<?xml version="1.0" encoding="UTF-8" standalone="no"?>
<!DOCTYPE svg PUBLIC "-//W3C//DTD SVG 1.1//EN"
"http://www.w3.org/Graphics/SVG/1.1/DTD/svg11.dtd">
<svg viewBox="0 0 909 1286" version="1.1" xmlns="http://www.w3.org/2000/svg" xmlns:xlink="http://www.w3.org/1999/xlink">
<defs>
<style type="text/css"><![CDATA[
.g0_71{
fill: #FFFFFF;
}
]]></style>
</defs>
<path fill-rule="evenodd" d="M52.8,75.9H856.9V55H52.8V75.9Z" class="g0_71" />
<path fill-rule="evenodd" d="M52.8,97.2H856.9V75.9H52.8V97.2Z" class="g0_71" />
<g fill="#000000" >
<use xlink:href="#f0_o" transform="matrix(12,0,0,12,55,92.8)" />
<use xlink:href="#f0_i" transform="matrix(12,0,0,12,64.2,92.8)" />
<use xlink:href="#f0_m" transform="matrix(12,0,0,12,69,92.8)" />
<use xlink:href="#f0_i" transform="matrix(12,0,0,12,78.1,92.8)" />
<use xlink:href="#f0_l" transform="matrix(12,0,0,12,82.9,92.8)" />
<use xlink:href="#f0_l" transform="matrix(12,0,0,12,92,92.8)" />
<use xlink:href="#f0_i" transform="matrix(12,0,0,12,100.8,92.8)" />
<use xlink:href="#f0_q" transform="matrix(12,0,0,12,105.6,92.8)" />
<use xlink:href="#f0_13" transform="matrix(12,0,0,12,119.6,92.8)" />
<use xlink:href="#f0_28" transform="matrix(12,0,0,12,132.8,92.8)" />
<use xlink:href="#f0_1x" transform="matrix(12,0,0,12,137.5,92.8)" />
<use xlink:href="#f0_2f" transform="matrix(12,0,0,12,146.7,92.8)" />
<use xlink:href="#f0_2f" transform="matrix(12,0,0,12,153.7,92.8)" />
<use xlink:href="#f0_h" transform="matrix(12,0,0,12,165.4,92.8)" />
<use xlink:href="#f0_n" transform="matrix(12,0,0,12,176.4,92.8)" />
<use xlink:href="#f0_u" transform="matrix(12,0,0,12,185.6,92.8)" />
<use xlink:href="#f0_11" transform="matrix(12,0,0,12,196.6,92.8)" />
<use xlink:href="#f0_2i" transform="matrix(12,0,0,12,209.8,92.8)" />
<use xlink:href="#f0_21" transform="matrix(12,0,0,12,219,92.8)" />
<use xlink:href="#f0_2f" transform="matrix(12,0,0,12,227,92.8)" />
</g>
<path fill-rule="evenodd" d="M52.8,118.1H856.9V97.2H52.8v20.9Z" class="g0_71" />
<path fill-rule="evenodd" d="M52.8,418.1H856.9v-300H52.8v300Z" class="g0_71" />
<image preserveAspectRatio="none" x="55" y="118" width="300" height="300" xlink:href="img/1.png" />
<path fill-rule="evenodd" d="M52.8,439H856.9V418.1H52.8V439Z" class="g0_71" />
<g fill="#000000" >
<use xlink:href="#f1_1g" transform="matrix(12,0,0,12,55,435)" />
<use xlink:href="#f1_2e" transform="matrix(12,0,0,12,65.3,435)" />
<use xlink:href="#f1_21" transform="matrix(12,0,0,12,71.5,435)" />
<use xlink:href="#f1_2f" transform="matrix(12,0,0,12,79.6,435)" />
<use xlink:href="#f1_21" transform="matrix(12,0,0,12,86.5,435)" />
<use xlink:href="#f1_2a" transform="matrix(12,0,0,12,94.6,435)" />
<use xlink:href="#f1_1z" transform="matrix(12,0,0,12,103.4,435)" />
<use xlink:href="#f1_21" transform="matrix(12,0,0,12,111.8,435)" />
<use xlink:href="#f1_2b" transform="matrix(12,0,0,12,124.6,435)" />
<use xlink:href="#f1_22" transform="matrix(12,0,0,12,134.1,435)" />
<use xlink:href="#f1_22" transform="matrix(12,0,0,12,144.8,435)" />
<use xlink:href="#f1_21" transform="matrix(12,0,0,12,150.3,435)" />
<use xlink:href="#f1_1x" transform="matrix(12,0,0,12,158.3,435)" />
<use xlink:href="#f1_2g" transform="matrix(12,0,0,12,166.4,435)" />
<use xlink:href="#f1_24" transform="matrix(12,0,0,12,171.9,435)" />
<use xlink:href="#f1_21" transform="matrix(12,0,0,12,180.7,435)" />
<use xlink:href="#f1_2e" transform="matrix(12,0,0,12,188.7,435)" />
<use xlink:href="#f1_2f" transform="matrix(12,0,0,12,195.3,435)" />
<use xlink:href="#f1_1x" transform="matrix(12,0,0,12,207,435)" />
<use xlink:href="#f1_2a" transform="matrix(12,0,0,12,215.1,435)" />
<use xlink:href="#f1_20" transform="matrix(12,0,0,12,223.9,435)" />
<use xlink:href="#f1_29" transform="matrix(12,0,0,12,238.2,435)" />
<use xlink:href="#f1_2b" transform="matrix(12,0,0,12,251.8,435)" />
<use xlink:href="#f1_2f" transform="matrix(12,0,0,12,261.3,435)" />
<use xlink:href="#f1_2g" transform="matrix(12,0,0,12,268.2,435)" />
<use xlink:href="#f1_2b" transform="matrix(12,0,0,12,278.4,435)" />
<use xlink:href="#f1_22" transform="matrix(12,0,0,12,287.9,435)" />
<use xlink:href="#f1_2g" transform="matrix(12,0,0,12,298.2,435)" />
<use xlink:href="#f1_24" transform="matrix(12,0,0,12,303.7,435)" />
<use xlink:href="#f1_21" transform="matrix(12,0,0,12,312.5,435)" />
<use xlink:href="#f1_29" transform="matrix(12,0,0,12,320.9,435)" />
<use xlink:href="#f1_22" transform="matrix(12,0,0,12,339.7,435)" />
<use xlink:href="#f1_28" transform="matrix(12,0,0,12,345.9,435)" />
<use xlink:href="#f1_2l" transform="matrix(12,0,0,12,351.1,435)" />
<use xlink:href="#f1_21" transform="matrix(12,0,0,12,364.2,435)" />
<use xlink:href="#f1_2k" transform="matrix(12,0,0,12,372.6,435)" />
<use xlink:href="#f1_1z" transform="matrix(12,0,0,12,381.4,435)" />
<use xlink:href="#f1_21" transform="matrix(12,0,0,12,389.9,435)" />
<use xlink:href="#f1_2c" transform="matrix(12,0,0,12,397.9,435)" />
<use xlink:href="#f1_2g" transform="matrix(12,0,0,12,407.1,435)" />
<use xlink:href="#f1_22" transform="matrix(12,0,0,12,417.3,435)" />
<use xlink:href="#f1_28" transform="matrix(12,0,0,12,423.2,435)" />
<use xlink:href="#f1_25" transform="matrix(12,0,0,12,428.3,435)" />
<use xlink:href="#f1_23" transform="matrix(12,0,0,12,433.1,435)" />
<use xlink:href="#f1_24" transform="matrix(12,0,0,12,442.6,435)" />
<use xlink:href="#f1_2g" transform="matrix(12,0,0,12,451.4,435)" />
<use xlink:href="#f1_28" transform="matrix(12,0,0,12,457.3,435)" />
<use xlink:href="#f1_21" transform="matrix(12,0,0,12,461.7,435)" />
<use xlink:href="#f1_2f" transform="matrix(12,0,0,12,469.7,435)" />
<use xlink:href="#f1_2f" transform="matrix(12,0,0,12,477,435)" />
<use xlink:href="#f1_1y" transform="matrix(12,0,0,12,488.8,435)" />
<use xlink:href="#f1_25" transform="matrix(12,0,0,12,497.9,435)" />
<use xlink:href="#f1_2e" transform="matrix(12,0,0,12,502.7,435)" />
<use xlink:href="#f1_20" transform="matrix(12,0,0,12,508.9,435)" />
<use xlink:href="#f1_28" transform="matrix(12,0,0,12,523.2,435)" />
<use xlink:href="#f1_25" transform="matrix(12,0,0,12,528,435)" />
<use xlink:href="#f1_27" transform="matrix(12,0,0,12,532.7,435)" />
<use xlink:href="#f1_21" transform="matrix(12,0,0,12,541.9,435)" />
<use xlink:href="#f1_2b" transform="matrix(12,0,0,12,554.7,435)" />
<use xlink:href="#f1_2f" transform="matrix(12,0,0,12,564.2,435)" />
<use xlink:href="#f1_2g" transform="matrix(12,0,0,12,571.2,435)" />
<use xlink:href="#f1_2e" transform="matrix(12,0,0,12,576.7,435)" />
<use xlink:href="#f1_25" transform="matrix(12,0,0,12,582.9,435)" />
<use xlink:href="#f1_1z" transform="matrix(12,0,0,12,587.3,435)" />
<use xlink:href="#f1_24" transform="matrix(12,0,0,12,595.7,435)" />
<use xlink:href="#f1_i" transform="matrix(12,0,0,12,604.5,435)" />
</g>
<path fill-rule="evenodd" d="M52.8,460.3H856.9V439H52.8v21.3Z" class="g0_71" />
<g fill="#000000" >
<use xlink:href="#f1_1a" transform="matrix(12,0,0,12,55,455.9)" />
<use xlink:href="#f1_1x" transform="matrix(12,0,0,12,62,455.9)" />
<use xlink:href="#f1_2j" transform="matrix(12,0,0,12,70.1,455.9)" />
<use xlink:href="#f1_29" transform="matrix(12,0,0,12,88.4,455.9)" />
<use xlink:href="#f1_2b" transform="matrix(12,0,0,12,102,455.9)" />
<use xlink:href="#f1_20" transform="matrix(12,0,0,12,111.5,455.9)" />
<use xlink:href="#f1_25" transform="matrix(12,0,0,12,121,455.9)" />
<use xlink:href="#f1_22" transform="matrix(12,0,0,12,125.7,455.9)" />
<use xlink:href="#f1_25" transform="matrix(12,0,0,12,132,455.9)" />
<use xlink:href="#f1_21" transform="matrix(12,0,0,12,136.7,455.9)" />
<use xlink:href="#f1_20" transform="matrix(12,0,0,12,144.8,455.9)" />
<use xlink:href="#f1_2g" transform="matrix(12,0,0,12,158.7,455.9)" />
<use xlink:href="#f1_2b" transform="matrix(12,0,0,12,163.8,455.9)" />
<use xlink:href="#f1_1y" transform="matrix(12,0,0,12,178.1,455.9)" />
<use xlink:href="#f1_21" transform="matrix(12,0,0,12,186.9,455.9)" />
<use xlink:href="#f1_1x" transform="matrix(12,0,0,12,195,455.9)" />
<use xlink:href="#f1_27" transform="matrix(12,0,0,12,203,455.9)" />
<use xlink:href="#f1_2j" transform="matrix(12,0,0,12,217,455.9)" />
<use xlink:href="#f1_25" transform="matrix(12,0,0,12,230.2,455.9)" />
<use xlink:href="#f1_2g" transform="matrix(12,0,0,12,234.6,455.9)" />
<use xlink:href="#f1_24" transform="matrix(12,0,0,12,240,455.9)" />
<use xlink:href="#f1_2b" transform="matrix(12,0,0,12,248.8,455.9)" />
<use xlink:href="#f1_2h" transform="matrix(12,0,0,12,258.4,455.9)" />
<use xlink:href="#f1_2g" transform="matrix(12,0,0,12,267.5,455.9)" />
<use xlink:href="#f1_2g" transform="matrix(12,0,0,12,277.4,455.9)" />
<use xlink:href="#f1_21" transform="matrix(12,0,0,12,282.9,455.9)" />
<use xlink:href="#f1_21" transform="matrix(12,0,0,12,291,455.9)" />
<use xlink:href="#f1_2g" transform="matrix(12,0,0,12,298.7,455.9)" />
<use xlink:href="#f1_24" transform="matrix(12,0,0,12,304.1,455.9)" />
<use xlink:href="#f1_i" transform="matrix(12,0,0,12,312.9,455.9)" />
</g>
<path fill-rule="evenodd" d="M52.8,481.2H856.9V460.3H52.8v20.9Z" class="g0_71" />
<g fill="#000000" >
<use xlink:href="#f1_16" transform="matrix(12,0,0,12,55,477.2)" />
<use xlink:href="#f1_2b" transform="matrix(12,0,0,12,64.9,477.2)" />
<use xlink:href="#f1_2e" transform="matrix(12,0,0,12,74.5,477.2)" />
<use xlink:href="#f1_21" transform="matrix(12,0,0,12,80.7,477.2)" />
<use xlink:href="#f1_28" transform="matrix(12,0,0,12,89.1,477.2)" />
<use xlink:href="#f1_25" transform="matrix(12,0,0,12,93.8,477.2)" />
<use xlink:href="#f1_29" transform="matrix(12,0,0,12,98.6,477.2)" />
<use xlink:href="#f1_1y" transform="matrix(12,0,0,12,112.5,477.2)" />
<use xlink:href="#f1_2f" transform="matrix(12,0,0,12,121.7,477.2)" />
<use xlink:href="#f1_1x" transform="matrix(12,0,0,12,133.4,477.2)" />
<use xlink:href="#f1_2e" transform="matrix(12,0,0,12,141.5,477.2)" />
<use xlink:href="#f1_21" transform="matrix(12,0,0,12,147.7,477.2)" />
<use xlink:href="#f1_29" transform="matrix(12,0,0,12,160.9,477.2)" />
<use xlink:href="#f1_2b" transform="matrix(12,0,0,12,174.5,477.2)" />
<use xlink:href="#f1_20" transform="matrix(12,0,0,12,184,477.2)" />
<use xlink:href="#f1_25" transform="matrix(12,0,0,12,193.5,477.2)" />
<use xlink:href="#f1_22" transform="matrix(12,0,0,12,198.3,477.2)" />
<use xlink:href="#f1_25" transform="matrix(12,0,0,12,204.5,477.2)" />
<use xlink:href="#f1_21" transform="matrix(12,0,0,12,209.2,477.2)" />
<use xlink:href="#f1_20" transform="matrix(12,0,0,12,217.3,477.2)" />
<use xlink:href="#f1_25" transform="matrix(12,0,0,12,231.6,477.2)" />
<use xlink:href="#f1_2a" transform="matrix(12,0,0,12,236.4,477.2)" />
<use xlink:href="#f1_2g" transform="matrix(12,0,0,12,245.2,477.2)" />
<use xlink:href="#f1_2b" transform="matrix(12,0,0,12,250.6,477.2)" />
<use xlink:href="#f1_2j" transform="matrix(12,0,0,12,264.9,477.2)" />
<use xlink:href="#f1_25" transform="matrix(12,0,0,12,278.1,477.2)" />
<use xlink:href="#f1_2a" transform="matrix(12,0,0,12,282.9,477.2)" />
<use xlink:href="#f1_23" transform="matrix(12,0,0,12,291.7,477.2)" />
<use xlink:href="#f1_2f" transform="matrix(12,0,0,12,300.8,477.2)" />
<use xlink:href="#f1_i" transform="matrix(12,0,0,12,307.8,477.2)" />
</g>
<path fill-rule="evenodd" d="M52.8,502.5H856.9V481.2H52.8v21.3Z" class="g0_71" />
<g fill="#000000" >
<use xlink:href="#f1_18" transform="matrix(12,0,0,12,55,498.1)" />
<use xlink:href="#f1_25" transform="matrix(12,0,0,12,68.6,498.1)" />
<use xlink:href="#f1_2a" transform="matrix(12,0,0,12,73.4,498.1)" />
<use xlink:href="#f1_20" transform="matrix(12,0,0,12,82.2,498.1)" />
<use xlink:href="#f1_28" transform="matrix(12,0,0,12,96.4,498.1)" />
<use xlink:href="#f1_25" transform="matrix(12,0,0,12,101.2,498.1)" />
<use xlink:href="#f1_29" transform="matrix(12,0,0,12,106.3,498.1)" />
<use xlink:href="#f1_1y" transform="matrix(12,0,0,12,120.3,498.1)" />
<use xlink:href="#f1_2f" transform="matrix(12,0,0,12,129.4,498.1)" />
<use xlink:href="#f1_24" transform="matrix(12,0,0,12,141.5,498.1)" />
<use xlink:href="#f1_1x" transform="matrix(12,0,0,12,150.3,498.1)" />
<use xlink:href="#f1_2i" transform="matrix(12,0,0,12,158.7,498.1)" />
<use xlink:href="#f1_21" transform="matrix(12,0,0,12,167.5,498.1)" />
<use xlink:href="#f1_2f" transform="matrix(12,0,0,12,180.3,498.1)" />
<use xlink:href="#f1_1z" transform="matrix(12,0,0,12,187.7,498.1)" />
<use xlink:href="#f1_1x" transform="matrix(12,0,0,12,195.7,498.1)" />
<use xlink:href="#f1_28" transform="matrix(12,0,0,12,204.1,498.1)" />
<use xlink:href="#f1_21" transform="matrix(12,0,0,12,208.9,498.1)" />
<use xlink:href="#f1_2f" transform="matrix(12,0,0,12,217,498.1)" />
<use xlink:href="#f1_i" transform="matrix(12,0,0,12,223.9,498.1)" />
</g>
<path fill-rule="evenodd" d="M52.8,523.4H856.9V502.5H52.8v20.9Z" class="g0_71" />
<g fill="#000000" >
<use xlink:href="#f1_1e" transform="matrix(12,0,0,12,55,519.4)" />
<use xlink:href="#f1_2b" transform="matrix(12,0,0,12,68.3,519.4)" />
<use xlink:href="#f1_23" transform="matrix(12,0,0,12,82.5,519.4)" />
<use xlink:href="#f1_28" transform="matrix(12,0,0,12,91.7,519.4)" />
<use xlink:href="#f1_1x" transform="matrix(12,0,0,12,96.1,519.4)" />
<use xlink:href="#f1_2a" transform="matrix(12,0,0,12,104.5,519.4)" />
<use xlink:href="#f1_20" transform="matrix(12,0,0,12,113.3,519.4)" />
<use xlink:href="#f1_2f" transform="matrix(12,0,0,12,122.4,519.4)" />
<use xlink:href="#f1_2b" transform="matrix(12,0,0,12,134.2,519.4)" />
<use xlink:href="#f1_2a" transform="matrix(12,0,0,12,143.7,519.4)" />
<use xlink:href="#f1_2f" transform="matrix(12,0,0,12,157.2,519.4)" />
<use xlink:href="#f1_27" transform="matrix(12,0,0,12,164.2,519.4)" />
<use xlink:href="#f1_25" transform="matrix(12,0,0,12,173.7,519.4)" />
<use xlink:href="#f1_2a" transform="matrix(12,0,0,12,178.5,519.4)" />
<use xlink:href="#f1_21" transform="matrix(12,0,0,12,192,519.4)" />
<use xlink:href="#f1_2k" transform="matrix(12,0,0,12,200.4,519.4)" />
<use xlink:href="#f1_1z" transform="matrix(12,0,0,12,209.2,519.4)" />
<use xlink:href="#f1_21" transform="matrix(12,0,0,12,217.7,519.4)" />
<use xlink:href="#f1_2c" transform="matrix(12,0,0,12,225.7,519.4)" />
<use xlink:href="#f1_2g" transform="matrix(12,0,0,12,234.9,519.4)" />
<use xlink:href="#f1_2b" transform="matrix(12,0,0,12,244.8,519.4)" />
<use xlink:href="#f1_25" transform="matrix(12,0,0,12,254.3,519.4)" />
<use xlink:href="#f1_28" transform="matrix(12,0,0,12,259.1,519.4)" />
<use xlink:href="#f1_23" transform="matrix(12,0,0,12,268.2,519.4)" />
<use xlink:href="#f1_28" transform="matrix(12,0,0,12,277.7,519.4)" />
<use xlink:href="#f1_1x" transform="matrix(12,0,0,12,282.5,519.4)" />
<use xlink:href="#f1_2a" transform="matrix(12,0,0,12,290.9,519.4)" />
<use xlink:href="#f1_20" transform="matrix(12,0,0,12,299.7,519.4)" />
<use xlink:href="#f1_1x" transform="matrix(12,0,0,12,313.6,519.4)" />
<use xlink:href="#f1_2g" transform="matrix(12,0,0,12,321.7,519.4)" />
<use xlink:href="#f1_1y" transform="matrix(12,0,0,12,331.9,519.4)" />
<use xlink:href="#f1_1x" transform="matrix(12,0,0,12,340.7,519.4)" />
<use xlink:href="#f1_2f" transform="matrix(12,0,0,12,348.8,519.4)" />
<use xlink:href="#f1_21" transform="matrix(12,0,0,12,355.7,519.4)" />
<use xlink:href="#f1_2b" transform="matrix(12,0,0,12,368.6,519.4)" />
<use xlink:href="#f1_22" transform="matrix(12,0,0,12,378.1,519.4)" />
<use xlink:href="#f1_2g" transform="matrix(12,0,0,12,388.3,519.4)" />
<use xlink:href="#f1_1x" transform="matrix(12,0,0,12,393.8,519.4)" />
<use xlink:href="#f1_25" transform="matrix(12,0,0,12,402.2,519.4)" />
<use xlink:href="#f1_28" transform="matrix(12,0,0,12,407,519.4)" />
<use xlink:href="#f1_i" transform="matrix(12,0,0,12,411.4,519.4)" />
</g>
<path fill-rule="evenodd" d="M52.8,544.7H856.9V523.4H52.8v21.3Z" class="g0_71" />
<g fill="#000000" >
<use xlink:href="#f1_15" transform="matrix(12,0,0,12,55,540.3)" />
<use xlink:href="#f1_2a" transform="matrix(12,0,0,12,66.4,540.3)" />
<use xlink:href="#f1_20" transform="matrix(12,0,0,12,75.2,540.3)" />
<use xlink:href="#f1_2b" transform="matrix(12,0,0,12,84.4,540.3)" />
<use xlink:href="#f1_2f" transform="matrix(12,0,0,12,93.9,540.3)" />
<use xlink:href="#f1_27" transform="matrix(12,0,0,12,100.8,540.3)" />
<use xlink:href="#f1_21" transform="matrix(12,0,0,12,110,540.3)" />
<use xlink:href="#f1_28" transform="matrix(12,0,0,12,118.4,540.3)" />
<use xlink:href="#f1_21" transform="matrix(12,0,0,12,122.8,540.3)" />
<use xlink:href="#f1_2g" transform="matrix(12,0,0,12,130.9,540.3)" />
<use xlink:href="#f1_2b" transform="matrix(12,0,0,12,136.4,540.3)" />
<use xlink:href="#f1_2a" transform="matrix(12,0,0,12,145.9,540.3)" />
<use xlink:href="#f1_25" transform="matrix(12,0,0,12,159.9,540.3)" />
<use xlink:href="#f1_2f" transform="matrix(12,0,0,12,164.3,540.3)" />
<use xlink:href="#f1_1x" transform="matrix(12,0,0,12,176.1,540.3)" />
<use xlink:href="#f1_28" transform="matrix(12,0,0,12,184.5,540.3)" />
<use xlink:href="#f1_29" transform="matrix(12,0,0,12,189.2,540.3)" />
<use xlink:href="#f1_2b" transform="matrix(12,0,0,12,202.8,540.3)" />
<use xlink:href="#f1_2f" transform="matrix(12,0,0,12,212.7,540.3)" />
<use xlink:href="#f1_2g" transform="matrix(12,0,0,12,219.7,540.3)" />
<use xlink:href="#f1_1z" transform="matrix(12,0,0,12,229.9,540.3)" />
<use xlink:href="#f1_2b" transform="matrix(12,0,0,12,237.6,540.3)" />
<use xlink:href="#f1_29" transform="matrix(12,0,0,12,247.1,540.3)" />
<use xlink:href="#f1_2c" transform="matrix(12,0,0,12,260.7,540.3)" />
<use xlink:href="#f1_28" transform="matrix(12,0,0,12,270.2,540.3)" />
<use xlink:href="#f1_21" transform="matrix(12,0,0,12,274.9,540.3)" />
<use xlink:href="#f1_2g" transform="matrix(12,0,0,12,283,540.3)" />
<use xlink:href="#f1_21" transform="matrix(12,0,0,12,288.5,540.3)" />
<use xlink:href="#f1_28" transform="matrix(12,0,0,12,296.9,540.3)" />
<use xlink:href="#f1_2l" transform="matrix(12,0,0,12,301.7,540.3)" />
<use xlink:href="#f1_2b" transform="matrix(12,0,0,12,315.2,540.3)" />
<use xlink:href="#f1_2f" transform="matrix(12,0,0,12,324.7,540.3)" />
<use xlink:href="#f1_2f" transform="matrix(12,0,0,12,331.7,540.3)" />
<use xlink:href="#f1_25" transform="matrix(12,0,0,12,339,540.3)" />
<use xlink:href="#f1_22" transform="matrix(12,0,0,12,343.8,540.3)" />
<use xlink:href="#f1_25" transform="matrix(12,0,0,12,350,540.3)" />
<use xlink:href="#f1_21" transform="matrix(12,0,0,12,354.8,540.3)" />
<use xlink:href="#f1_20" transform="matrix(12,0,0,12,362.8,540.3)" />
<use xlink:href="#f1_i" transform="matrix(12,0,0,12,372,540.3)" />
</g>
<path fill-rule="evenodd" d="M52.8,565.6H856.9V544.7H52.8v20.9Z" class="g0_71" />
<g fill="#000000" >
<use xlink:href="#f1_12" transform="matrix(12,0,0,12,55,561.5)" />
<use xlink:href="#f1_2b" transform="matrix(12,0,0,12,67.1,561.5)" />
<use xlink:href="#f1_2a" transform="matrix(12,0,0,12,76.7,561.5)" />
<use xlink:href="#f1_21" transform="matrix(12,0,0,12,85.5,561.5)" />
<use xlink:href="#f1_2f" transform="matrix(12,0,0,12,93.5,561.5)" />
<use xlink:href="#f1_1x" transform="matrix(12,0,0,12,105.2,561.5)" />
<use xlink:href="#f1_2e" transform="matrix(12,0,0,12,113.3,561.5)" />
<use xlink:href="#f1_21" transform="matrix(12,0,0,12,119.5,561.5)" />
<use xlink:href="#f1_2f" transform="matrix(12,0,0,12,132.3,561.5)" />
<use xlink:href="#f1_2c" transform="matrix(12,0,0,12,139.3,561.5)" />
<use xlink:href="#f1_2b" transform="matrix(12,0,0,12,148.5,561.5)" />
<use xlink:href="#f1_2a" transform="matrix(12,0,0,12,158,561.5)" />
<use xlink:href="#f1_23" transform="matrix(12,0,0,12,166.8,561.5)" />
<use xlink:href="#f1_2l" transform="matrix(12,0,0,12,176.3,561.5)" />
<use xlink:href="#f1_2b" transform="matrix(12,0,0,12,189.5,561.5)" />
<use xlink:href="#f1_2e" transform="matrix(12,0,0,12,199,561.5)" />
<use xlink:href="#f1_2c" transform="matrix(12,0,0,12,210,561.5)" />
<use xlink:href="#f1_2a" transform="matrix(12,0,0,12,219.1,561.5)" />
<use xlink:href="#f1_21" transform="matrix(12,0,0,12,227.9,561.5)" />
<use xlink:href="#f1_2h" transform="matrix(12,0,0,12,236,561.5)" />
<use xlink:href="#f1_29" transform="matrix(12,0,0,12,245.5,561.5)" />
<use xlink:href="#f1_1x" transform="matrix(12,0,0,12,259.1,561.5)" />
<use xlink:href="#f1_2g" transform="matrix(12,0,0,12,267.4,561.5)" />
<use xlink:href="#f1_25" transform="matrix(12,0,0,12,273.3,561.5)" />
<use xlink:href="#f1_1z" transform="matrix(12,0,0,12,277.7,561.5)" />
<use xlink:href="#f1_i" transform="matrix(12,0,0,12,285.7,561.5)" />
</g>
<path fill-rule="evenodd" d="M52.8,586.8H856.9V565.6H52.8v21.2Z" class="g0_71" />
<g fill="#000000" >
<use xlink:href="#f1_1c" transform="matrix(12,0,0,12,55,582.4)" />
<use xlink:href="#f1_2b" transform="matrix(12,0,0,12,66,582.4)" />
<use xlink:href="#f1_2a" transform="matrix(12,0,0,12,75.6,582.4)" />
<use xlink:href="#f1_23" transform="matrix(12,0,0,12,84.4,582.4)" />
<use xlink:href="#f1_1y" transform="matrix(12,0,0,12,98.3,582.4)" />
<use xlink:href="#f1_2b" transform="matrix(12,0,0,12,107.1,582.4)" />
<use xlink:href="#f1_2a" transform="matrix(12,0,0,12,116.6,582.4)" />
<use xlink:href="#f1_21" transform="matrix(12,0,0,12,125.4,582.4)" />
<use xlink:href="#f1_2f" transform="matrix(12,0,0,12,133.8,582.4)" />
<use xlink:href="#f1_1x" transform="matrix(12,0,0,12,145.5,582.4)" />
<use xlink:href="#f1_2e" transform="matrix(12,0,0,12,153.6,582.4)" />
<use xlink:href="#f1_21" transform="matrix(12,0,0,12,159.8,582.4)" />
<use xlink:href="#f1_24" transform="matrix(12,0,0,12,172.6,582.4)" />
<use xlink:href="#f1_2b" transform="matrix(12,0,0,12,181.4,582.4)" />
<use xlink:href="#f1_28" transform="matrix(12,0,0,12,191.3,582.4)" />
<use xlink:href="#f1_28" transform="matrix(12,0,0,12,196.1,582.4)" />
<use xlink:href="#f1_2b" transform="matrix(12,0,0,12,200.5,582.4)" />
<use xlink:href="#f1_2j" transform="matrix(12,0,0,12,210,582.4)" />
<use xlink:href="#f1_2j" transform="matrix(12,0,0,12,227.9,582.4)" />
<use xlink:href="#f1_25" transform="matrix(12,0,0,12,241.5,582.4)" />
<use xlink:href="#f1_2g" transform="matrix(12,0,0,12,245.9,582.4)" />
<use xlink:href="#f1_24" transform="matrix(12,0,0,12,251.4,582.4)" />
<use xlink:href="#f1_1x" transform="matrix(12,0,0,12,264.9,582.4)" />
<use xlink:href="#f1_25" transform="matrix(12,0,0,12,273.3,582.4)" />
<use xlink:href="#f1_2e" transform="matrix(12,0,0,12,277.7,582.4)" />
<use xlink:href="#f1_1z" transform="matrix(12,0,0,12,288.7,582.4)" />
<use xlink:href="#f1_1x" transform="matrix(12,0,0,12,296.7,582.4)" />
<use xlink:href="#f1_2i" transform="matrix(12,0,0,12,305.2,582.4)" />
<use xlink:href="#f1_25" transform="matrix(12,0,0,12,314.3,582.4)" />
<use xlink:href="#f1_2g" transform="matrix(12,0,0,12,318.7,582.4)" />
<use xlink:href="#f1_25" transform="matrix(12,0,0,12,324.6,582.4)" />
<use xlink:href="#f1_21" transform="matrix(12,0,0,12,329.3,582.4)" />
<use xlink:href="#f1_2f" transform="matrix(12,0,0,12,337.4,582.4)" />
<use xlink:href="#f1_i" transform="matrix(12,0,0,12,344.4,582.4)" />
</g>
<path fill-rule="evenodd" d="M52.8,607.7H856.9V586.8H52.8v20.9Z" class="g0_71" />
<g fill="#000000" >
<use xlink:href="#f1_15" transform="matrix(12,0,0,12,55,603.7)" />
<use xlink:href="#f1_2c" transform="matrix(12,0,0,12,66.4,603.7)" />
<use xlink:href="#f1_25" transform="matrix(12,0,0,12,75.6,603.7)" />
<use xlink:href="#f1_2c" transform="matrix(12,0,0,12,80,603.7)" />
<use xlink:href="#f1_24" transform="matrix(12,0,0,12,89.5,603.7)" />
<use xlink:href="#f1_2l" transform="matrix(12,0,0,12,98.6,603.7)" />
<use xlink:href="#f1_2f" transform="matrix(12,0,0,12,107.4,603.7)" />
<use xlink:href="#f1_21" transform="matrix(12,0,0,12,114.7,603.7)" />
<use xlink:href="#f1_2f" transform="matrix(12,0,0,12,123.2,603.7)" />
<use xlink:href="#f1_1x" transform="matrix(12,0,0,12,134.9,603.7)" />
<use xlink:href="#f1_2e" transform="matrix(12,0,0,12,142.9,603.7)" />
<use xlink:href="#f1_21" transform="matrix(12,0,0,12,149.2,603.7)" />
<use xlink:href="#f1_1x" transform="matrix(12,0,0,12,162,603.7)" />
<use xlink:href="#f1_1y" transform="matrix(12,0,0,12,170,603.7)" />
<use xlink:href="#f1_2f" transform="matrix(12,0,0,12,178.8,603.7)" />
<use xlink:href="#f1_21" transform="matrix(12,0,0,12,185.8,603.7)" />
<use xlink:href="#f1_2a" transform="matrix(12,0,0,12,194.2,603.7)" />
<use xlink:href="#f1_2g" transform="matrix(12,0,0,12,203,603.7)" />
<use xlink:href="#f1_i" transform="matrix(12,0,0,12,208.5,603.7)" />
</g>
<path fill-rule="evenodd" d="M52.8,629H856.9V607.7H52.8V629Z" class="g0_71" />
<g fill="#000000" >
<use xlink:href="#f1_1j" transform="matrix(12,0,0,12,55,624.6)" />
<use xlink:href="#f1_27" transform="matrix(12,0,0,12,65.3,624.6)" />
<use xlink:href="#f1_2h" transform="matrix(12,0,0,12,74.5,624.6)" />
<use xlink:href="#f1_28" transform="matrix(12,0,0,12,84,624.6)" />
<use xlink:href="#f1_28" transform="matrix(12,0,0,12,88.7,624.6)" />
<use xlink:href="#f1_25" transform="matrix(12,0,0,12,98.2,624.6)" />
<use xlink:href="#f1_2f" transform="matrix(12,0,0,12,103,624.6)" />
<use xlink:href="#f1_29" transform="matrix(12,0,0,12,115.1,624.6)" />
<use xlink:href="#f1_2b" transform="matrix(12,0,0,12,128.7,624.6)" />
<use xlink:href="#f1_2a" transform="matrix(12,0,0,12,138.5,624.6)" />
<use xlink:href="#f1_2b" transform="matrix(12,0,0,12,147.3,624.6)" />
<use xlink:href="#f1_1z" transform="matrix(12,0,0,12,156.9,624.6)" />
<use xlink:href="#f1_2b" transform="matrix(12,0,0,12,164.9,624.6)" />
<use xlink:href="#f1_2a" transform="matrix(12,0,0,12,174.4,624.6)" />
<use xlink:href="#f1_20" transform="matrix(12,0,0,12,183.2,624.6)" />
<use xlink:href="#f1_2l" transform="matrix(12,0,0,12,192.8,624.6)" />
<use xlink:href="#f1_28" transform="matrix(12,0,0,12,201.6,624.6)" />
<use xlink:href="#f1_25" transform="matrix(12,0,0,12,206.7,624.6)" />
<use xlink:href="#f1_1z" transform="matrix(12,0,0,12,211.5,624.6)" />
<use xlink:href="#f1_i" transform="matrix(12,0,0,12,219.5,624.6)" />
</g>
<path fill-rule="evenodd" d="M52.8,649.9H856.9V629H52.8v20.9Z" class="g0_71" />
<g fill="#000000" >
<use xlink:href="#f1_14" transform="matrix(12,0,0,12,55,645.9)" />
<use xlink:href="#f1_25" transform="matrix(12,0,0,12,68.6,645.9)" />
<use xlink:href="#f1_23" transform="matrix(12,0,0,12,73,645.9)" />
<use xlink:href="#f1_21" transform="matrix(12,0,0,12,82.2,645.9)" />
<use xlink:href="#f1_2f" transform="matrix(12,0,0,12,90.6,645.9)" />
<use xlink:href="#f1_2g" transform="matrix(12,0,0,12,97.5,645.9)" />
<use xlink:href="#f1_25" transform="matrix(12,0,0,12,103,645.9)" />
<use xlink:href="#f1_2i" transform="matrix(12,0,0,12,107.8,645.9)" />
<use xlink:href="#f1_21" transform="matrix(12,0,0,12,116.9,645.9)" />
<use xlink:href="#f1_2g" transform="matrix(12,0,0,12,129.8,645.9)" />
<use xlink:href="#f1_2e" transform="matrix(12,0,0,12,135.2,645.9)" />
<use xlink:href="#f1_1x" transform="matrix(12,0,0,12,141.5,645.9)" />
<use xlink:href="#f1_1z" transform="matrix(12,0,0,12,149.5,645.9)" />
<use xlink:href="#f1_2g" transform="matrix(12,0,0,12,157.2,645.9)" />
<use xlink:href="#f1_24" transform="matrix(12,0,0,12,167.1,645.9)" />
<use xlink:href="#f1_1x" transform="matrix(12,0,0,12,175.9,645.9)" />
<use xlink:href="#f1_2f" transform="matrix(12,0,0,12,184,645.9)" />
<use xlink:href="#f1_1x" transform="matrix(12,0,0,12,195.7,645.9)" />
<use xlink:href="#f1_20" transform="matrix(12,0,0,12,203.8,645.9)" />
<use xlink:href="#f1_20" transform="matrix(12,0,0,12,212.9,645.9)" />
<use xlink:href="#f1_25" transform="matrix(12,0,0,12,222.4,645.9)" />
<use xlink:href="#f1_2g" transform="matrix(12,0,0,12,226.8,645.9)" />
<use xlink:href="#f1_25" transform="matrix(12,0,0,12,232.7,645.9)" />
<use xlink:href="#f1_2b" transform="matrix(12,0,0,12,237.1,645.9)" />
<use xlink:href="#f1_2a" transform="matrix(12,0,0,12,246.6,645.9)" />
<use xlink:href="#f1_1x" transform="matrix(12,0,0,12,255.8,645.9)" />
<use xlink:href="#f1_28" transform="matrix(12,0,0,12,264.2,645.9)" />
<use xlink:href="#f1_1z" transform="matrix(12,0,0,12,273.3,645.9)" />
<use xlink:href="#f1_24" transform="matrix(12,0,0,12,281.7,645.9)" />
<use xlink:href="#f1_1x" transform="matrix(12,0,0,12,290.5,645.9)" />
<use xlink:href="#f1_29" transform="matrix(12,0,0,12,299,645.9)" />
<use xlink:href="#f1_1y" transform="matrix(12,0,0,12,312.9,645.9)" />
<use xlink:href="#f1_21" transform="matrix(12,0,0,12,322.1,645.9)" />
<use xlink:href="#f1_2e" transform="matrix(12,0,0,12,330.1,645.9)" />
<use xlink:href="#f1_2f" transform="matrix(12,0,0,12,336.3,645.9)" />
<use xlink:href="#f1_28" transform="matrix(12,0,0,12,348.4,645.9)" />
<use xlink:href="#f1_25" transform="matrix(12,0,0,12,353.5,645.9)" />
<use xlink:href="#f1_27" transform="matrix(12,0,0,12,358.3,645.9)" />
<use xlink:href="#f1_21" transform="matrix(12,0,0,12,367.5,645.9)" />
<use xlink:href="#f1_1z" transform="matrix(12,0,0,12,380.3,645.9)" />
<use xlink:href="#f1_2e" transform="matrix(12,0,0,12,388.4,645.9)" />
<use xlink:href="#f1_2b" transform="matrix(12,0,0,12,394.6,645.9)" />
<use xlink:href="#f1_2c" transform="matrix(12,0,0,12,404.1,645.9)" />
<use xlink:href="#f1_1x" transform="matrix(12,0,0,12,418,645.9)" />
<use xlink:href="#f1_2a" transform="matrix(12,0,0,12,425.7,645.9)" />
<use xlink:href="#f1_20" transform="matrix(12,0,0,12,434.5,645.9)" />
<use xlink:href="#f1_23" transform="matrix(12,0,0,12,448.4,645.9)" />
<use xlink:href="#f1_25" transform="matrix(12,0,0,12,457.9,645.9)" />
<use xlink:href="#f1_2m" transform="matrix(12,0,0,12,462.7,645.9)" />
<use xlink:href="#f1_2m" transform="matrix(12,0,0,12,470.8,645.9)" />
<use xlink:href="#f1_1x" transform="matrix(12,0,0,12,478.8,645.9)" />
<use xlink:href="#f1_2e" transform="matrix(12,0,0,12,486.9,645.9)" />
<use xlink:href="#f1_20" transform="matrix(12,0,0,12,493.1,645.9)" />
<use xlink:href="#f1_i" transform="matrix(12,0,0,12,502.3,645.9)" />
</g>
<path fill-rule="evenodd" d="M52.8,671.2H856.9V649.9H52.8v21.3Z" class="g0_71" />
<g fill="#000000" >
<use xlink:href="#f1_18" transform="matrix(12,0,0,12,55,666.8)" />
<use xlink:href="#f1_21" transform="matrix(12,0,0,12,68.3,666.8)" />
<use xlink:href="#f1_1x" transform="matrix(12,0,0,12,76.3,666.8)" />
<use xlink:href="#f1_2e" transform="matrix(12,0,0,12,84.4,666.8)" />
<use xlink:href="#f1_2g" transform="matrix(12,0,0,12,90.6,666.8)" />
<use xlink:href="#f1_25" transform="matrix(12,0,0,12,100.8,666.8)" />
<use xlink:href="#f1_2f" transform="matrix(12,0,0,12,105.2,666.8)" />
<use xlink:href="#f1_22" transform="matrix(12,0,0,12,117.3,666.8)" />
<use xlink:href="#f1_2b" transform="matrix(12,0,0,12,122.8,666.8)" />
<use xlink:href="#f1_2h" transform="matrix(12,0,0,12,132.3,666.8)" />
<use xlink:href="#f1_2e" transform="matrix(12,0,0,12,141.5,666.8)" />
<use xlink:href="#f1_1z" transform="matrix(12,0,0,12,152.4,666.8)" />
<use xlink:href="#f1_24" transform="matrix(12,0,0,12,160.5,666.8)" />
<use xlink:href="#f1_1x" transform="matrix(12,0,0,12,169.3,666.8)" />
<use xlink:href="#f1_29" transform="matrix(12,0,0,12,177.7,666.8)" />
<use xlink:href="#f1_1y" transform="matrix(12,0,0,12,191.7,666.8)" />
<use xlink:href="#f1_21" transform="matrix(12,0,0,12,200.8,666.8)" />
<use xlink:href="#f1_2e" transform="matrix(12,0,0,12,208.9,666.8)" />
<use xlink:href="#f1_21" transform="matrix(12,0,0,12,215.1,666.8)" />
<use xlink:href="#f1_20" transform="matrix(12,0,0,12,223.2,666.8)" />
<use xlink:href="#f1_i" transform="matrix(12,0,0,12,232.3,666.8)" />
<use xlink:href="#f1_18" transform="matrix(12,0,0,12,55,688.1)" />
<use xlink:href="#f1_2b" transform="matrix(12,0,0,12,68.3,688.1)" />
<use xlink:href="#f1_29" transform="matrix(12,0,0,12,77.8,688.1)" />
<use xlink:href="#f1_2b" transform="matrix(12,0,0,12,91.3,688.1)" />
<use xlink:href="#f1_25" transform="matrix(12,0,0,12,101.2,688.1)" />
<use xlink:href="#f1_2b" transform="matrix(12,0,0,12,105.6,688.1)" />
<use xlink:href="#f1_2g" transform="matrix(12,0,0,12,115.1,688.1)" />
<use xlink:href="#f1_24" transform="matrix(12,0,0,12,120.6,688.1)" />
<use xlink:href="#f1_21" transform="matrix(12,0,0,12,129.4,688.1)" />
<use xlink:href="#f1_2e" transform="matrix(12,0,0,12,137.5,688.1)" />
<use xlink:href="#f1_29" transform="matrix(12,0,0,12,143.7,688.1)" />
<use xlink:href="#f1_2b" transform="matrix(12,0,0,12,157.2,688.1)" />
<use xlink:href="#f1_2h" transform="matrix(12,0,0,12,166.8,688.1)" />
<use xlink:href="#f1_2f" transform="matrix(12,0,0,12,175.9,688.1)" />
<use xlink:href="#f1_2b" transform="matrix(12,0,0,12,187.8,688.1)" />
<use xlink:href="#f1_2e" transform="matrix(12,0,0,12,197.3,688.1)" />
<use xlink:href="#f1_2j" transform="matrix(12,0,0,12,208.3,688.1)" />
<use xlink:href="#f1_1x" transform="matrix(12,0,0,12,221.5,688.1)" />
<use xlink:href="#f1_2e" transform="matrix(12,0,0,12,229.6,688.1)" />
<use xlink:href="#f1_29" transform="matrix(12,0,0,12,235.8,688.1)" />
<use xlink:href="#f1_1y" transform="matrix(12,0,0,12,254.1,688.1)" />
<use xlink:href="#f1_28" transform="matrix(12,0,0,12,263.3,688.1)" />
<use xlink:href="#f1_2b" transform="matrix(12,0,0,12,267.7,688.1)" />
<use xlink:href="#f1_2b" transform="matrix(12,0,0,12,277.2,688.1)" />
<use xlink:href="#f1_20" transform="matrix(12,0,0,12,286.7,688.1)" />
<use xlink:href="#f1_21" transform="matrix(12,0,0,12,295.8,688.1)" />
<use xlink:href="#f1_20" transform="matrix(12,0,0,12,303.9,688.1)" />
<use xlink:href="#f1_g" transform="matrix(12,0,0,12,313.1,688.1)" />
<use xlink:href="#f1_1x" transform="matrix(12,0,0,12,322.6,688.1)" />
<use xlink:href="#f1_1y" transform="matrix(12,0,0,12,330.6,688.1)" />
<use xlink:href="#f1_28" transform="matrix(12,0,0,12,339.8,688.1)" />
<use xlink:href="#f1_21" transform="matrix(12,0,0,12,344.2,688.1)" />
<use xlink:href="#f1_2g" transform="matrix(12,0,0,12,357,688.1)" />
<use xlink:href="#f1_2b" transform="matrix(12,0,0,12,362.5,688.1)" />
<use xlink:href="#f1_29" transform="matrix(12,0,0,12,376.4,688.1)" />
<use xlink:href="#f1_1x" transform="matrix(12,0,0,12,390,688.1)" />
<use xlink:href="#f1_25" transform="matrix(12,0,0,12,398.4,688.1)" />
<use xlink:href="#f1_2a" transform="matrix(12,0,0,12,403.2,688.1)" />
<use xlink:href="#f1_2g" transform="matrix(12,0,0,12,412,688.1)" />
<use xlink:href="#f1_1x" transform="matrix(12,0,0,12,417.5,688.1)" />
<use xlink:href="#f1_25" transform="matrix(12,0,0,12,425.9,688.1)" />
<use xlink:href="#f1_2a" transform="matrix(12,0,0,12,430.6,688.1)" />
<use xlink:href="#f1_1z" transform="matrix(12,0,0,12,444.5,688.1)" />
<use xlink:href="#f1_2b" transform="matrix(12,0,0,12,452.6,688.1)" />
<use xlink:href="#f1_2a" transform="matrix(12,0,0,12,462.1,688.1)" />
<use xlink:href="#f1_2f" transform="matrix(12,0,0,12,470.9,688.1)" />
<use xlink:href="#f1_2g" transform="matrix(12,0,0,12,477.9,688.1)" />
<use xlink:href="#f1_1x" transform="matrix(12,0,0,12,483.4,688.1)" />
<use xlink:href="#f1_2a" transform="matrix(12,0,0,12,491.4,688.1)" />
<use xlink:href="#f1_2g" transform="matrix(12,0,0,12,500.2,688.1)" />
<use xlink:href="#f1_2g" transform="matrix(12,0,0,12,510.1,688.1)" />
<use xlink:href="#f1_21" transform="matrix(12,0,0,12,515.6,688.1)" />
<use xlink:href="#f1_29" transform="matrix(12,0,0,12,523.7,688.1)" />
<use xlink:href="#f1_2c" transform="matrix(12,0,0,12,537.2,688.1)" />
<use xlink:href="#f1_21" transform="matrix(12,0,0,12,546.8,688.1)" />
<use xlink:href="#f1_2e" transform="matrix(12,0,0,12,554.8,688.1)" />
<use xlink:href="#f1_1x" transform="matrix(12,0,0,12,561,688.1)" />
<use xlink:href="#f1_2g" transform="matrix(12,0,0,12,569.1,688.1)" />
<use xlink:href="#f1_2h" transform="matrix(12,0,0,12,574.6,688.1)" />
<use xlink:href="#f1_2e" transform="matrix(12,0,0,12,583.8,688.1)" />
<use xlink:href="#f1_21" transform="matrix(12,0,0,12,590,688.1)" />
<use xlink:href="#f1_i" transform="matrix(12,0,0,12,598,688.1)" />
</g>
<path fill-rule="evenodd" d="M52.8,713.3H856.9V692.1H52.8v21.2Z" class="g0_71" />
<g fill="#000000" >
<use xlink:href="#f1_11" transform="matrix(12,0,0,12,55,708.9)" />
<use xlink:href="#f1_25" transform="matrix(12,0,0,12,68.3,708.9)" />
<use xlink:href="#f1_2e" transform="matrix(12,0,0,12,73,708.9)" />
<use xlink:href="#f1_2f" transform="matrix(12,0,0,12,84,708.9)" />
<use xlink:href="#f1_1x" transform="matrix(12,0,0,12,90.9,708.9)" />
<use xlink:href="#f1_1z" transform="matrix(12,0,0,12,99,708.9)" />
<use xlink:href="#f1_2f" transform="matrix(12,0,0,12,107.1,708.9)" />
<use xlink:href="#f1_1x" transform="matrix(12,0,0,12,118.8,708.9)" />
<use xlink:href="#f1_2e" transform="matrix(12,0,0,12,126.9,708.9)" />
<use xlink:href="#f1_21" transform="matrix(12,0,0,12,133.1,708.9)" />
<use xlink:href="#f1_1z" transform="matrix(12,0,0,12,145.9,708.9)" />
<use xlink:href="#f1_2b" transform="matrix(12,0,0,12,154,708.9)" />
<use xlink:href="#f1_2a" transform="matrix(12,0,0,12,163.5,708.9)" />
<use xlink:href="#f1_2a" transform="matrix(12,0,0,12,172.7,708.9)" />
<use xlink:href="#f1_21" transform="matrix(12,0,0,12,181.5,708.9)" />
<use xlink:href="#f1_1z" transform="matrix(12,0,0,12,189.5,708.9)" />
<use xlink:href="#f1_2g" transform="matrix(12,0,0,12,197.6,708.9)" />
<use xlink:href="#f1_21" transform="matrix(12,0,0,12,203.1,708.9)" />
<use xlink:href="#f1_20" transform="matrix(12,0,0,12,211.1,708.9)" />
<use xlink:href="#f1_2g" transform="matrix(12,0,0,12,224.7,708.9)" />
<use xlink:href="#f1_2b" transform="matrix(12,0,0,12,229.8,708.9)" />
<use xlink:href="#f1_28" transform="matrix(12,0,0,12,244.1,708.9)" />
<use xlink:href="#f1_2h" transform="matrix(12,0,0,12,248.5,708.9)" />
<use xlink:href="#f1_2a" transform="matrix(12,0,0,12,258,708.9)" />
<use xlink:href="#f1_23" transform="matrix(12,0,0,12,266.8,708.9)" />
<use xlink:href="#f1_2f" transform="matrix(12,0,0,12,276,708.9)" />
<use xlink:href="#f1_2g" transform="matrix(12,0,0,12,287.7,708.9)" />
<use xlink:href="#f1_2b" transform="matrix(12,0,0,12,293.2,708.9)" />
<use xlink:href="#f1_2f" transform="matrix(12,0,0,12,307.1,708.9)" />
<use xlink:href="#f1_2h" transform="matrix(12,0,0,12,314.1,708.9)" />
<use xlink:href="#f1_2c" transform="matrix(12,0,0,12,323.2,708.9)" />
<use xlink:href="#f1_2c" transform="matrix(12,0,0,12,332.4,708.9)" />
<use xlink:href="#f1_28" transform="matrix(12,0,0,12,341.9,708.9)" />
<use xlink:href="#f1_21" transform="matrix(12,0,0,12,346.3,708.9)" />
<use xlink:href="#f1_29" transform="matrix(12,0,0,12,354.7,708.9)" />
<use xlink:href="#f1_21" transform="matrix(12,0,0,12,368.7,708.9)" />
<use xlink:href="#f1_2a" transform="matrix(12,0,0,12,377.1,708.9)" />
<use xlink:href="#f1_2g" transform="matrix(12,0,0,12,385.9,708.9)" />
<use xlink:href="#f1_2e" transform="matrix(12,0,0,12,396.1,708.9)" />
<use xlink:href="#f1_21" transform="matrix(12,0,0,12,402.3,708.9)" />
<use xlink:href="#f1_2f" transform="matrix(12,0,0,12,410.4,708.9)" />
<use xlink:href="#f1_2c" transform="matrix(12,0,0,12,417.4,708.9)" />
<use xlink:href="#f1_25" transform="matrix(12,0,0,12,426.2,708.9)" />
<use xlink:href="#f1_2e" transform="matrix(12,0,0,12,430.9,708.9)" />
<use xlink:href="#f1_1x" transform="matrix(12,0,0,12,437.1,708.9)" />
<use xlink:href="#f1_2g" transform="matrix(12,0,0,12,445.2,708.9)" />
<use xlink:href="#f1_25" transform="matrix(12,0,0,12,451.1,708.9)" />
<use xlink:href="#f1_2b" transform="matrix(12,0,0,12,455.5,708.9)" />
<use xlink:href="#f1_2a" transform="matrix(12,0,0,12,465,708.9)" />
<use xlink:href="#f1_i" transform="matrix(12,0,0,12,473.8,708.9)" />
</g>
<path fill-rule="evenodd" d="M52.8,734.2H856.9V713.3H52.8v20.9Z" class="g0_71" />
<g fill="#000000" >
<use xlink:href="#f1_1f" transform="matrix(12,0,0,12,55,730.2)" />
<use xlink:href="#f1_2i" transform="matrix(12,0,0,12,68.3,730.2)" />
<use xlink:href="#f1_25" transform="matrix(12,0,0,12,77.4,730.2)" />
<use xlink:href="#f1_2c" transform="matrix(12,0,0,12,82.2,730.2)" />
<use xlink:href="#f1_1x" transform="matrix(12,0,0,12,91.3,730.2)" />
<use xlink:href="#f1_2e" transform="matrix(12,0,0,12,99.4,730.2)" />
<use xlink:href="#f1_2b" transform="matrix(12,0,0,12,105.6,730.2)" />
<use xlink:href="#f1_2h" transform="matrix(12,0,0,12,115.1,730.2)" />
<use xlink:href="#f1_2f" transform="matrix(12,0,0,12,124.3,730.2)" />
<use xlink:href="#f1_i" transform="matrix(12,0,0,12,131.3,730.2)" />
<use xlink:href="#f1_14" transform="matrix(12,0,0,12,140.8,730.2)" />
<use xlink:href="#f1_25" transform="matrix(12,0,0,12,154,730.2)" />
<use xlink:href="#f1_2e" transform="matrix(12,0,0,12,158.4,730.2)" />
<use xlink:href="#f1_21" transform="matrix(12,0,0,12,164.6,730.2)" />
<use xlink:href="#f1_1z" transform="matrix(12,0,0,12,172.6,730.2)" />
<use xlink:href="#f1_2g" transform="matrix(12,0,0,12,180.7,730.2)" />
<use xlink:href="#f1_20" transform="matrix(12,0,0,12,190.9,730.2)" />
<use xlink:href="#f1_21" transform="matrix(12,0,0,12,200.1,730.2)" />
<use xlink:href="#f1_2i" transform="matrix(12,0,0,12,208.2,730.2)" />
<use xlink:href="#f1_21" transform="matrix(12,0,0,12,217,730.2)" />
<use xlink:href="#f1_28" transform="matrix(12,0,0,12,225.4,730.2)" />
<use xlink:href="#f1_2b" transform="matrix(12,0,0,12,229.8,730.2)" />
<use xlink:href="#f1_2c" transform="matrix(12,0,0,12,239.3,730.2)" />
<use xlink:href="#f1_29" transform="matrix(12,0,0,12,248.8,730.2)" />
<use xlink:href="#f1_21" transform="matrix(12,0,0,12,262.8,730.2)" />
<use xlink:href="#f1_2a" transform="matrix(12,0,0,12,271.2,730.2)" />
<use xlink:href="#f1_2g" transform="matrix(12,0,0,12,280,730.2)" />
<use xlink:href="#f1_i" transform="matrix(12,0,0,12,285.4,730.2)" />
</g>
<g fill="#231F20" >
<use xlink:href="#f1_15" transform="matrix(12,0,0,12,55,751.1)" />
<use xlink:href="#f1_2k" transform="matrix(12,0,0,12,66.4,751.1)" />
<use xlink:href="#f1_1x" transform="matrix(12,0,0,12,75.2,751.1)" />
<use xlink:href="#f1_29" transform="matrix(12,0,0,12,83.6,751.1)" />
<use xlink:href="#f1_2c" transform="matrix(12,0,0,12,97.5,751.1)" />
<use xlink:href="#f1_28" transform="matrix(12,0,0,12,107,751.1)" />
<use xlink:href="#f1_21" transform="matrix(12,0,0,12,111.8,751.1)" />
<use xlink:href="#f1_2f" transform="matrix(12,0,0,12,119.9,751.1)" />
<use xlink:href="#f1_u" transform="matrix(12,0,0,12,126.8,751.1)" />
<use xlink:href="#f1_1g" transform="matrix(12,0,0,12,136.8,751.1)" />
<use xlink:href="#f1_25" transform="matrix(12,0,0,12,147.4,751.1)" />
<use xlink:href="#f1_23" transform="matrix(12,0,0,12,151.8,751.1)" />
<use xlink:href="#f1_21" transform="matrix(12,0,0,12,161,751.1)" />
<use xlink:href="#f1_2b" transform="matrix(12,0,0,12,169.1,751.1)" />
<use xlink:href="#f1_2a" transform="matrix(12,0,0,12,178.6,751.1)" />
<use xlink:href="#f1_g" transform="matrix(12,0,0,12,187.4,751.1)" />
<use xlink:href="#f1_13" transform="matrix(12,0,0,12,197,751.1)" />
<use xlink:href="#f1_2e" transform="matrix(12,0,0,12,209.1,751.1)" />
<use xlink:href="#f1_2b" transform="matrix(12,0,0,12,215.3,751.1)" />
<use xlink:href="#f1_2j" transform="matrix(12,0,0,12,224.8,751.1)" />
<use xlink:href="#f1_g" transform="matrix(12,0,0,12,238,751.1)" />
<use xlink:href="#f1_1j" transform="matrix(12,0,0,12,247.2,751.1)" />
<use xlink:href="#f1_2c" transform="matrix(12,0,0,12,257.5,751.1)" />
<use xlink:href="#f1_1x" transform="matrix(12,0,0,12,266.7,751.1)" />
<use xlink:href="#f1_2e" transform="matrix(12,0,0,12,274.7,751.1)" />
<use xlink:href="#f1_2e" transform="matrix(12,0,0,12,280.9,751.1)" />
<use xlink:href="#f1_2b" transform="matrix(12,0,0,12,286.8,751.1)" />
<use xlink:href="#f1_2j" transform="matrix(12,0,0,12,296.3,751.1)" />
<use xlink:href="#f1_g" transform="matrix(12,0,0,12,309.2,751.1)" />
<use xlink:href="#f1_1g" transform="matrix(12,0,0,12,318.7,751.1)" />
<use xlink:href="#f1_21" transform="matrix(12,0,0,12,329,751.1)" />
<use xlink:href="#f1_1x" transform="matrix(12,0,0,12,337.1,751.1)" />
<use xlink:href="#f1_1z" transform="matrix(12,0,0,12,349.9,751.1)" />
<use xlink:href="#f1_2b" transform="matrix(12,0,0,12,357.6,751.1)" />
<use xlink:href="#f1_1z" transform="matrix(12,0,0,12,367.1,751.1)" />
<use xlink:href="#f1_27" transform="matrix(12,0,0,12,375.2,751.1)" />
<use xlink:href="#f1_21" transform="matrix(12,0,0,12,388.7,751.1)" />
<use xlink:href="#f1_2g" transform="matrix(12,0,0,12,396.4,751.1)" />
<use xlink:href="#f1_1z" transform="matrix(12,0,0,12,401.9,751.1)" />
<use xlink:href="#f1_i" transform="matrix(12,0,0,12,409.9,751.1)" />
</g>
<image preserveAspectRatio="none" x="55" y="755" width="315" height="237" xlink:href="img/2.png" />
<path fill-rule="evenodd" d="M52.8,1034.7H856.9v-21.3H52.8v21.3Z" class="g0_71" />
<g fill="#000000" >
<use xlink:href="#f0_o" transform="matrix(12,0,0,12,55,1030.3)" />
<use xlink:href="#f0_i" transform="matrix(12,0,0,12,64.2,1030.3)" />
<use xlink:href="#f0_m" transform="matrix(12,0,0,12,69,1030.3)" />
<use xlink:href="#f0_i" transform="matrix(12,0,0,12,78.1,1030.3)" />
<use xlink:href="#f0_l" transform="matrix(12,0,0,12,82.9,1030.3)" />
<use xlink:href="#f0_l" transform="matrix(12,0,0,12,92,1030.3)" />
<use xlink:href="#f0_i" transform="matrix(12,0,0,12,100.8,1030.3)" />
<use xlink:href="#f0_r" transform="matrix(12,0,0,12,105.6,1030.3)" />
<use xlink:href="#f0_13" transform="matrix(12,0,0,12,119.6,1030.3)" />
<use xlink:href="#f0_28" transform="matrix(12,0,0,12,132.8,1030.3)" />
<use xlink:href="#f0_1x" transform="matrix(12,0,0,12,137.5,1030.3)" />
<use xlink:href="#f0_2f" transform="matrix(12,0,0,12,146.7,1030.3)" />
<use xlink:href="#f0_2f" transform="matrix(12,0,0,12,153.7,1030.3)" />
<use xlink:href="#f0_h" transform="matrix(12,0,0,12,160.7,1030.3)" />
<use xlink:href="#f0_o" transform="matrix(12,0,0,12,171.7,1030.3)" />
<use xlink:href="#f0_u" transform="matrix(12,0,0,12,180.8,1030.3)" />
<use xlink:href="#f0_1d" transform="matrix(12,0,0,12,191.5,1030.3)" />
<use xlink:href="#f0_1x" transform="matrix(12,0,0,12,209,1030.3)" />
<use xlink:href="#f0_29" transform="matrix(12,0,0,12,218.2,1030.3)" />
<use xlink:href="#f0_29" transform="matrix(12,0,0,12,233.2,1030.3)" />
<use xlink:href="#f0_1x" transform="matrix(12,0,0,12,248.3,1030.3)" />
<use xlink:href="#f0_28" transform="matrix(12,0,0,12,257.9,1030.3)" />
<use xlink:href="#f0_25" transform="matrix(12,0,0,12,262.6,1030.3)" />
<use xlink:href="#f0_1x" transform="matrix(12,0,0,12,267.7,1030.3)" />
</g>
<path fill-rule="evenodd" d="M52.8,1055.6H856.9v-20.9H52.8v20.9Z" class="g0_71" />
<g fill="#000000" >
<use xlink:href="#f1_18" transform="matrix(12,0,0,12,55,1051.5)" />
<use xlink:href="#f1_1x" transform="matrix(12,0,0,12,68.3,1051.5)" />
<use xlink:href="#f1_2i" transform="matrix(12,0,0,12,76.3,1051.5)" />
<use xlink:href="#f1_21" transform="matrix(12,0,0,12,85.1,1051.5)" />
<use xlink:href="#f1_29" transform="matrix(12,0,0,12,98.3,1051.5)" />
<use xlink:href="#f1_1x" transform="matrix(12,0,0,12,112.2,1051.5)" />
<use xlink:href="#f1_29" transform="matrix(12,0,0,12,120.6,1051.5)" />
<use xlink:href="#f1_29" transform="matrix(12,0,0,12,134.9,1051.5)" />
<use xlink:href="#f1_1x" transform="matrix(12,0,0,12,148.9,1051.5)" />
<use xlink:href="#f1_2e" transform="matrix(12,0,0,12,156.9,1051.5)" />
<use xlink:href="#f1_2l" transform="matrix(12,0,0,12,163.5,1051.5)" />
<use xlink:href="#f1_23" transform="matrix(12,0,0,12,176.7,1051.5)" />
<use xlink:href="#f1_28" transform="matrix(12,0,0,12,186.2,1051.5)" />
<use xlink:href="#f1_1x" transform="matrix(12,0,0,12,191,1051.5)" />
<use xlink:href="#f1_2a" transform="matrix(12,0,0,12,199.4,1051.5)" />
<use xlink:href="#f1_20" transform="matrix(12,0,0,12,208.2,1051.5)" />
<use xlink:href="#f1_2f" transform="matrix(12,0,0,12,217.7,1051.5)" />
<use xlink:href="#f1_2g" transform="matrix(12,0,0,12,229.4,1051.5)" />
<use xlink:href="#f1_2b" transform="matrix(12,0,0,12,234.5,1051.5)" />
<use xlink:href="#f1_2a" transform="matrix(12,0,0,12,248.8,1051.5)" />
<use xlink:href="#f1_2b" transform="matrix(12,0,0,12,257.6,1051.5)" />
<use xlink:href="#f1_2h" transform="matrix(12,0,0,12,267.1,1051.5)" />
<use xlink:href="#f1_2e" transform="matrix(12,0,0,12,275.9,1051.5)" />
<use xlink:href="#f1_25" transform="matrix(12,0,0,12,282.1,1051.5)" />
<use xlink:href="#f1_2f" transform="matrix(12,0,0,12,286.9,1051.5)" />
<use xlink:href="#f1_24" transform="matrix(12,0,0,12,294.2,1051.5)" />
<use xlink:href="#f1_2l" transform="matrix(12,0,0,12,308.1,1051.5)" />
<use xlink:href="#f1_2b" transform="matrix(12,0,0,12,316.6,1051.5)" />
<use xlink:href="#f1_2h" transform="matrix(12,0,0,12,326.1,1051.5)" />
<use xlink:href="#f1_2a" transform="matrix(12,0,0,12,335.3,1051.5)" />
<use xlink:href="#f1_23" transform="matrix(12,0,0,12,344.1,1051.5)" />
<use xlink:href="#f1_2b" transform="matrix(12,0,0,12,358,1051.5)" />
<use xlink:href="#f1_2a" transform="matrix(12,0,0,12,367.5,1051.5)" />
<use xlink:href="#f1_21" transform="matrix(12,0,0,12,376.3,1051.5)" />
<use xlink:href="#f1_2f" transform="matrix(12,0,0,12,384.4,1051.5)" />
<use xlink:href="#f1_1y" transform="matrix(12,0,0,12,396.4,1051.5)" />
<use xlink:href="#f1_2l" transform="matrix(12,0,0,12,405.6,1051.5)" />
<use xlink:href="#f1_2f" transform="matrix(12,0,0,12,419.2,1051.5)" />
<use xlink:href="#f1_21" transform="matrix(12,0,0,12,426.5,1051.5)" />
<use xlink:href="#f1_1z" transform="matrix(12,0,0,12,434.5,1051.5)" />
<use xlink:href="#f1_2e" transform="matrix(12,0,0,12,442.6,1051.5)" />
<use xlink:href="#f1_21" transform="matrix(12,0,0,12,448.8,1051.5)" />
<use xlink:href="#f1_2g" transform="matrix(12,0,0,12,456.9,1051.5)" />
<use xlink:href="#f1_25" transform="matrix(12,0,0,12,462.4,1051.5)" />
<use xlink:href="#f1_2a" transform="matrix(12,0,0,12,467.1,1051.5)" />
<use xlink:href="#f1_23" transform="matrix(12,0,0,12,475.9,1051.5)" />
<use xlink:href="#f1_29" transform="matrix(12,0,0,12,490.2,1051.5)" />
<use xlink:href="#f1_25" transform="matrix(12,0,0,12,504.1,1051.5)" />
<use xlink:href="#f1_28" transform="matrix(12,0,0,12,509.2,1051.5)" />
<use xlink:href="#f1_27" transform="matrix(12,0,0,12,514,1051.5)" />
<use xlink:href="#f1_i" transform="matrix(12,0,0,12,523.2,1051.5)" />
</g>
<path fill-rule="evenodd" d="M52.8,1076.8H856.9v-21.2H52.8v21.2Z" class="g0_71" />
<g fill="#000000" >
<use xlink:href="#f1_18" transform="matrix(12,0,0,12,55,1072.4)" />
<use xlink:href="#f1_1x" transform="matrix(12,0,0,12,68.3,1072.4)" />
<use xlink:href="#f1_2i" transform="matrix(12,0,0,12,76.3,1072.4)" />
<use xlink:href="#f1_21" transform="matrix(12,0,0,12,85.1,1072.4)" />
<use xlink:href="#f1_2g" transform="matrix(12,0,0,12,97.9,1072.4)" />
<use xlink:href="#f1_2j" transform="matrix(12,0,0,12,103.4,1072.4)" />
<use xlink:href="#f1_2b" transform="matrix(12,0,0,12,116.6,1072.4)" />
<use xlink:href="#f1_2c" transform="matrix(12,0,0,12,130.5,1072.4)" />
<use xlink:href="#f1_1x" transform="matrix(12,0,0,12,139.7,1072.4)" />
<use xlink:href="#f1_25" transform="matrix(12,0,0,12,148.1,1072.4)" />
<use xlink:href="#f1_2e" transform="matrix(12,0,0,12,152.5,1072.4)" />
<use xlink:href="#f1_2f" transform="matrix(12,0,0,12,158.7,1072.4)" />
<use xlink:href="#f1_2b" transform="matrix(12,0,0,12,170.4,1072.4)" />
<use xlink:href="#f1_22" transform="matrix(12,0,0,12,179.9,1072.4)" />
<use xlink:href="#f1_28" transform="matrix(12,0,0,12,190.6,1072.4)" />
<use xlink:href="#f1_25" transform="matrix(12,0,0,12,195.3,1072.4)" />
<use xlink:href="#f1_29" transform="matrix(12,0,0,12,200.4,1072.4)" />
<use xlink:href="#f1_1y" transform="matrix(12,0,0,12,214.4,1072.4)" />
<use xlink:href="#f1_2f" transform="matrix(12,0,0,12,223.6,1072.4)" />
<use xlink:href="#f1_i" transform="matrix(12,0,0,12,230.5,1072.4)" />
</g>
<path fill-rule="evenodd" d="M52.8,1097.7H856.9v-20.9H52.8v20.9Z" class="g0_71" />
<g fill="#000000" >
<use xlink:href="#f1_1j" transform="matrix(12,0,0,12,55,1093.7)" />
<use xlink:href="#f1_27" transform="matrix(12,0,0,12,65.3,1093.7)" />
<use xlink:href="#f1_25" transform="matrix(12,0,0,12,74.8,1093.7)" />
<use xlink:href="#f1_2a" transform="matrix(12,0,0,12,79.6,1093.7)" />
<use xlink:href="#f1_24" transform="matrix(12,0,0,12,93.1,1093.7)" />
<use xlink:href="#f1_1x" transform="matrix(12,0,0,12,101.9,1093.7)" />
<use xlink:href="#f1_2f" transform="matrix(12,0,0,12,110.3,1093.7)" />
<use xlink:href="#f1_24" transform="matrix(12,0,0,12,122,1093.7)" />
<use xlink:href="#f1_1x" transform="matrix(12,0,0,12,131.2,1093.7)" />
<use xlink:href="#f1_25" transform="matrix(12,0,0,12,139.6,1093.7)" />
<use xlink:href="#f1_2e" transform="matrix(12,0,0,12,144,1093.7)" />
<use xlink:href="#f1_2f" transform="matrix(12,0,0,12,150.2,1093.7)" />
<use xlink:href="#f1_i" transform="matrix(12,0,0,12,157.2,1093.7)" />
</g>
<path fill-rule="evenodd" d="M52.8,1119H856.9v-21.3H52.8V1119Z" class="g0_71" />
<g fill="#000000" >
<use xlink:href="#f1_15" transform="matrix(12,0,0,12,55,1114.6)" />
<use xlink:href="#f1_2k" transform="matrix(12,0,0,12,66.4,1114.6)" />
<use xlink:href="#f1_2g" transform="matrix(12,0,0,12,75.2,1114.6)" />
<use xlink:href="#f1_21" transform="matrix(12,0,0,12,80.7,1114.6)" />
<use xlink:href="#f1_2e" transform="matrix(12,0,0,12,88.7,1114.6)" />
<use xlink:href="#f1_2a" transform="matrix(12,0,0,12,94.9,1114.6)" />
<use xlink:href="#f1_1x" transform="matrix(12,0,0,12,103.7,1114.6)" />
<use xlink:href="#f1_28" transform="matrix(12,0,0,12,112.2,1114.6)" />
<use xlink:href="#f1_21" transform="matrix(12,0,0,12,121.3,1114.6)" />
<use xlink:href="#f1_1x" transform="matrix(12,0,0,12,129.4,1114.6)" />
<use xlink:href="#f1_2e" transform="matrix(12,0,0,12,137.4,1114.6)" />
<use xlink:href="#f1_2f" transform="matrix(12,0,0,12,143.7,1114.6)" />
<use xlink:href="#f1_2b" transform="matrix(12,0,0,12,155.4,1114.6)" />
<use xlink:href="#f1_2e" transform="matrix(12,0,0,12,164.9,1114.6)" />
<use xlink:href="#f1_2c" transform="matrix(12,0,0,12,175.9,1114.6)" />
<use xlink:href="#f1_25" transform="matrix(12,0,0,12,185,1114.6)" />
<use xlink:href="#f1_2a" transform="matrix(12,0,0,12,189.8,1114.6)" />
<use xlink:href="#f1_2a" transform="matrix(12,0,0,12,199,1114.6)" />
<use xlink:href="#f1_1x" transform="matrix(12,0,0,12,207.8,1114.6)" />
<use xlink:href="#f1_2c" transform="matrix(12,0,0,12,220.6,1114.6)" />
<use xlink:href="#f1_2e" transform="matrix(12,0,0,12,229.7,1114.6)" />
<use xlink:href="#f1_21" transform="matrix(12,0,0,12,235.9,1114.6)" />
<use xlink:href="#f1_2f" transform="matrix(12,0,0,12,244,1114.6)" />
<use xlink:href="#f1_21" transform="matrix(12,0,0,12,251,1114.6)" />
<use xlink:href="#f1_2a" transform="matrix(12,0,0,12,259.4,1114.6)" />
<use xlink:href="#f1_2g" transform="matrix(12,0,0,12,268.2,1114.6)" />
<use xlink:href="#f1_i" transform="matrix(12,0,0,12,273.7,1114.6)" />
</g>
<path fill-rule="evenodd" d="M52.8,1139.9H856.9V1119H52.8v20.9Z" class="g0_71" />
<g fill="#000000" >
<use xlink:href="#f1_14" transform="matrix(12,0,0,12,55,1135.9)" />
<use xlink:href="#f1_25" transform="matrix(12,0,0,12,68.6,1135.9)" />
<use xlink:href="#f1_22" transform="matrix(12,0,0,12,73.4,1135.9)" />
<use xlink:href="#f1_22" transform="matrix(12,0,0,12,79.2,1135.9)" />
<use xlink:href="#f1_21" transform="matrix(12,0,0,12,85.1,1135.9)" />
<use xlink:href="#f1_2e" transform="matrix(12,0,0,12,93.2,1135.9)" />
<use xlink:href="#f1_21" transform="matrix(12,0,0,12,99.4,1135.9)" />
<use xlink:href="#f1_2a" transform="matrix(12,0,0,12,107.8,1135.9)" />
<use xlink:href="#f1_2g" transform="matrix(12,0,0,12,116.6,1135.9)" />
<use xlink:href="#f1_2g" transform="matrix(12,0,0,12,126.8,1135.9)" />
<use xlink:href="#f1_2l" transform="matrix(12,0,0,12,132.3,1135.9)" />
<use xlink:href="#f1_2c" transform="matrix(12,0,0,12,140.7,1135.9)" />
<use xlink:href="#f1_21" transform="matrix(12,0,0,12,149.9,1135.9)" />
<use xlink:href="#f1_2f" transform="matrix(12,0,0,12,158,1135.9)" />
<use xlink:href="#f1_2b" transform="matrix(12,0,0,12,169.7,1135.9)" />
<use xlink:href="#f1_22" transform="matrix(12,0,0,12,179.2,1135.9)" />
<use xlink:href="#f1_2g" transform="matrix(12,0,0,12,189.4,1135.9)" />
<use xlink:href="#f1_21" transform="matrix(12,0,0,12,194.9,1135.9)" />
<use xlink:href="#f1_21" transform="matrix(12,0,0,12,203,1135.9)" />
<use xlink:href="#f1_2g" transform="matrix(12,0,0,12,211.1,1135.9)" />
<use xlink:href="#f1_24" transform="matrix(12,0,0,12,216.5,1135.9)" />
<use xlink:href="#f1_25" transform="matrix(12,0,0,12,230.1,1135.9)" />
<use xlink:href="#f1_2a" transform="matrix(12,0,0,12,234.8,1135.9)" />
<use xlink:href="#f1_26" transform="matrix(12,0,0,12,248.8,1135.9)" />
<use xlink:href="#f1_1x" transform="matrix(12,0,0,12,253.5,1135.9)" />
<use xlink:href="#f1_2j" transform="matrix(12,0,0,12,261.6,1135.9)" />
<use xlink:href="#f1_i" transform="matrix(12,0,0,12,274.8,1135.9)" />
</g>
<path fill-rule="evenodd" d="M52.8,1161.2H856.9v-21.3H52.8v21.3Z" class="g0_71" />
<g fill="#000000" >
<use xlink:href="#f1_18" transform="matrix(12,0,0,12,55,1156.8)" />
<use xlink:href="#f1_21" transform="matrix(12,0,0,12,68.3,1156.8)" />
<use xlink:href="#f1_1x" transform="matrix(12,0,0,12,76.3,1156.8)" />
<use xlink:href="#f1_2e" transform="matrix(12,0,0,12,84.4,1156.8)" />
<use xlink:href="#f1_2g" transform="matrix(12,0,0,12,90.6,1156.8)" />
<use xlink:href="#f1_25" transform="matrix(12,0,0,12,100.8,1156.8)" />
<use xlink:href="#f1_2f" transform="matrix(12,0,0,12,105.2,1156.8)" />
<use xlink:href="#f1_22" transform="matrix(12,0,0,12,117.3,1156.8)" />
<use xlink:href="#f1_2b" transform="matrix(12,0,0,12,122.8,1156.8)" />
<use xlink:href="#f1_2h" transform="matrix(12,0,0,12,132.3,1156.8)" />
<use xlink:href="#f1_2e" transform="matrix(12,0,0,12,141.5,1156.8)" />
<use xlink:href="#f1_1z" transform="matrix(12,0,0,12,152.4,1156.8)" />
<use xlink:href="#f1_24" transform="matrix(12,0,0,12,160.5,1156.8)" />
<use xlink:href="#f1_1x" transform="matrix(12,0,0,12,169.3,1156.8)" />
<use xlink:href="#f1_29" transform="matrix(12,0,0,12,177.7,1156.8)" />
<use xlink:href="#f1_1y" transform="matrix(12,0,0,12,191.7,1156.8)" />
<use xlink:href="#f1_21" transform="matrix(12,0,0,12,200.8,1156.8)" />
<use xlink:href="#f1_2e" transform="matrix(12,0,0,12,208.9,1156.8)" />
<use xlink:href="#f1_21" transform="matrix(12,0,0,12,215.1,1156.8)" />
<use xlink:href="#f1_20" transform="matrix(12,0,0,12,223.2,1156.8)" />
<use xlink:href="#f1_i" transform="matrix(12,0,0,12,232.3,1156.8)" />
</g>
<path fill-rule="evenodd" d="M52.8,1182.1H856.9v-20.9H52.8v20.9Z" class="g0_71" />
<g fill="#000000" >
<use xlink:href="#f1_18" transform="matrix(12,0,0,12,55,1178.1)" />
<use xlink:href="#f1_2b" transform="matrix(12,0,0,12,68.3,1178.1)" />
<use xlink:href="#f1_29" transform="matrix(12,0,0,12,77.8,1178.1)" />
<use xlink:href="#f1_2b" transform="matrix(12,0,0,12,91.3,1178.1)" />
<use xlink:href="#f1_25" transform="matrix(12,0,0,12,101.2,1178.1)" />
<use xlink:href="#f1_2b" transform="matrix(12,0,0,12,105.6,1178.1)" />
<use xlink:href="#f1_2g" transform="matrix(12,0,0,12,115.1,1178.1)" />
<use xlink:href="#f1_24" transform="matrix(12,0,0,12,120.6,1178.1)" />
<use xlink:href="#f1_21" transform="matrix(12,0,0,12,129.4,1178.1)" />
<use xlink:href="#f1_2e" transform="matrix(12,0,0,12,137.5,1178.1)" />
<use xlink:href="#f1_29" transform="matrix(12,0,0,12,143.7,1178.1)" />
<use xlink:href="#f1_2b" transform="matrix(12,0,0,12,157.2,1178.1)" />
<use xlink:href="#f1_2h" transform="matrix(12,0,0,12,166.8,1178.1)" />
<use xlink:href="#f1_2f" transform="matrix(12,0,0,12,175.9,1178.1)" />
<use xlink:href="#f1_i" transform="matrix(12,0,0,12,182.9,1178.1)" />
</g>
<path fill-rule="evenodd" d="M52.8,1203.4H856.9v-21.3H52.8v21.3Z" class="g0_71" />
<g fill="#000000" >
<use xlink:href="#f1_1i" transform="matrix(12,0,0,12,55,1199)" />
<use xlink:href="#f1_21" transform="matrix(12,0,0,12,67.1,1199)" />
<use xlink:href="#f1_2f" transform="matrix(12,0,0,12,75.2,1199)" />
<use xlink:href="#f1_2c" transform="matrix(12,0,0,12,82.2,1199)" />
<use xlink:href="#f1_25" transform="matrix(12,0,0,12,91.7,1199)" />
<use xlink:href="#f1_2e" transform="matrix(12,0,0,12,96.5,1199)" />
<use xlink:href="#f1_1x" transform="matrix(12,0,0,12,102.7,1199)" />
<use xlink:href="#f1_2g" transform="matrix(12,0,0,12,110.7,1199)" />
<use xlink:href="#f1_25" transform="matrix(12,0,0,12,116.2,1199)" />
<use xlink:href="#f1_2b" transform="matrix(12,0,0,12,120.6,1199)" />
<use xlink:href="#f1_2a" transform="matrix(12,0,0,12,130.1,1199)" />
<use xlink:href="#f1_1y" transform="matrix(12,0,0,12,144,1199)" />
<use xlink:href="#f1_2l" transform="matrix(12,0,0,12,153.2,1199)" />
<use xlink:href="#f1_28" transform="matrix(12,0,0,12,166.8,1199)" />
<use xlink:href="#f1_2h" transform="matrix(12,0,0,12,171.5,1199)" />
<use xlink:href="#f1_2a" transform="matrix(12,0,0,12,181,1199)" />
<use xlink:href="#f1_23" transform="matrix(12,0,0,12,189.8,1199)" />
<use xlink:href="#f1_2f" transform="matrix(12,0,0,12,199.4,1199)" />
<use xlink:href="#f1_i" transform="matrix(12,0,0,12,206.3,1199)" />
</g>
<path fill-rule="evenodd" d="M52.8,1224.3H856.9v-20.9H52.8v20.9Z" class="g0_71" />
<g fill="#000000" >
<use xlink:href="#f1_1j" transform="matrix(12,0,0,12,55,1220.2)" />
<use xlink:href="#f1_21" transform="matrix(12,0,0,12,65.3,1220.2)" />
<use xlink:href="#f1_2k" transform="matrix(12,0,0,12,73.4,1220.2)" />
<use xlink:href="#f1_21" transform="matrix(12,0,0,12,82.2,1220.2)" />
<use xlink:href="#f1_2f" transform="matrix(12,0,0,12,90.6,1220.2)" />
<use xlink:href="#f1_2f" transform="matrix(12,0,0,12,102.3,1220.2)" />
<use xlink:href="#f1_21" transform="matrix(12,0,0,12,109.2,1220.2)" />
<use xlink:href="#f1_2c" transform="matrix(12,0,0,12,117.3,1220.2)" />
<use xlink:href="#f1_1x" transform="matrix(12,0,0,12,126.5,1220.2)" />
<use xlink:href="#f1_2e" transform="matrix(12,0,0,12,134.5,1220.2)" />
<use xlink:href="#f1_1x" transform="matrix(12,0,0,12,140.8,1220.2)" />
<use xlink:href="#f1_2g" transform="matrix(12,0,0,12,148.8,1220.2)" />
<use xlink:href="#f1_21" transform="matrix(12,0,0,12,154.3,1220.2)" />
<use xlink:href="#f1_g" transform="matrix(12,0,0,12,162.4,1220.2)" />
<use xlink:href="#f1_22" transform="matrix(12,0,0,12,171.9,1220.2)" />
<use xlink:href="#f1_21" transform="matrix(12,0,0,12,177.4,1220.2)" />
<use xlink:href="#f1_2e" transform="matrix(12,0,0,12,185.4,1220.2)" />
<use xlink:href="#f1_2g" transform="matrix(12,0,0,12,191.7,1220.2)" />
<use xlink:href="#f1_25" transform="matrix(12,0,0,12,197.1,1220.2)" />
<use xlink:href="#f1_28" transform="matrix(12,0,0,12,202.1,1220.2)" />
<use xlink:href="#f1_25" transform="matrix(12,0,0,12,207.2,1220.2)" />
<use xlink:href="#f1_2m" transform="matrix(12,0,0,12,212,1220.2)" />
<use xlink:href="#f1_1x" transform="matrix(12,0,0,12,220.1,1220.2)" />
<use xlink:href="#f1_2g" transform="matrix(12,0,0,12,228.1,1220.2)" />
<use xlink:href="#f1_25" transform="matrix(12,0,0,12,234,1220.2)" />
<use xlink:href="#f1_2b" transform="matrix(12,0,0,12,238.4,1220.2)" />
<use xlink:href="#f1_2a" transform="matrix(12,0,0,12,247.9,1220.2)" />
<use xlink:href="#f1_25" transform="matrix(12,0,0,12,261.8,1220.2)" />
<use xlink:href="#f1_2a" transform="matrix(12,0,0,12,266.6,1220.2)" />
<use xlink:href="#f1_2g" transform="matrix(12,0,0,12,275.4,1220.2)" />
<use xlink:href="#f1_21" transform="matrix(12,0,0,12,280.9,1220.2)" />
<use xlink:href="#f1_2e" transform="matrix(12,0,0,12,288.9,1220.2)" />
<use xlink:href="#f1_2a" transform="matrix(12,0,0,12,295.2,1220.2)" />
<use xlink:href="#f1_1x" transform="matrix(12,0,0,12,304,1220.2)" />
<use xlink:href="#f1_28" transform="matrix(12,0,0,12,312.4,1220.2)" />
<use xlink:href="#f1_i" transform="matrix(12,0,0,12,317.1,1220.2)" />
<use xlink:href="#f2_n" transform="matrix(8,0,0,8,785.7,1264.1)" />
<use xlink:href="#f2_l" transform="matrix(8,0,0,8,792.5,1264.1)" />
</g>
<defs>
<path d="M435,350V646c0,0,0,84,7,158L145,350ZM435,0V198H21V319l450,686H636V350H736V198H636V0Z" 
id="f0_o"
transform="scale(0.001,-0.001)" />

<path d="M191,-20c0,0,-51,0,-88,34c0,0,-36,36,-36,88c0,0,0,52,36,88c0,0,36,36,88,36c0,0,51,0,88,-36c0,0,36,-36,36,-88c0,0,0,-51,-36,-87c0,0,-36,-35,-88,-35Z" 
id="f0_i"
transform="scale(0.001,-0.001)" />

<path d="M64,0V141c0,0,64,68,119,123c0,0,119,118,174,185c0,0,56,68,81,140c0,0,26,72,26,165c0,0,0,81,-40,131c0,0,-39,50,-105,50c0,0,-46,0,-74,-10c0,0,-27,-10,-50,-29L163,751H98V979c0,0,59,13,116,23c0,0,58,9,125,9c0,0,165,0,252,-68c0,0,88,-68,88,-193c0,0,0,-78,-26,-142c0,0,-26,-64,-83,-124c0,0,-56,-61,-224,-197c0,0,-64,-52,-139,-119H698V0Z" 
id="f0_m"
transform="scale(0.001,-0.001)" />

<path d="M122,0V64L295,82V837L123,780v64l282,165H511V82L685,64V0Z" 
id="f0_l"
transform="scale(0.001,-0.001)" />

<path d="M404,60c0,0,54,0,75,59c0,0,21,59,21,177c0,0,0,106,-29,162c0,0,-29,57,-87,57c0,0,-55,0,-112,-17v-4c0,0,0,-434,132,-434Zm3,-74c0,0,-172,0,-263,130c0,0,-92,130,-92,378c0,0,0,161,48,278c0,0,48,117,135,178c0,0,87,61,199,61c0,0,117,0,225,-32V751H594L562,896c0,0,-52,39,-113,39c0,0,-75,0,-121,-95c0,0,-47,-96,-55,-267c0,0,81,35,161,35c0,0,137,0,211,-77c0,0,74,-77,74,-220c0,0,0,-158,-81,-242c0,0,-81,-83,-231,-83Z" 
id="f0_q"
transform="scale(0.001,-0.001)" />

<path d="M608,-14c0,0,-251,0,-392,133C216,119,75,252,75,488c0,0,0,257,134,390c0,0,135,133,398,133c0,0,174,0,361,-50l4,-240H905L884,866c0,0,-98,67,-229,67c0,0,-173,0,-253,-108c0,0,-80,-108,-80,-334c0,0,0,-209,84,-319c0,0,83,-109,243,-109c0,0,84,0,147,22c0,0,63,22,99,53l24,164h68L982,48C982,48,915,22,808,4C808,4,700,-14,608,-14Z" 
id="f0_13"
transform="scale(0.001,-0.001)" />

<path d="M30,0V49l76,18V992l-72,18v50H322V67L398,49V0Z" 
id="f0_28"
transform="scale(0.001,-0.001)" />

<path d="M345,75c0,0,50,0,110,26V351l-63,-2c0,0,-72,-3,-100,-38c0,0,-28,-35,-28,-113c0,0,0,-63,22,-93c0,0,23,-30,59,-30ZM266,-14c0,0,-217,0,-217,208c0,0,0,79,32,126c0,0,32,48,93,71c0,0,60,22,190,25l91,2V521c0,0,0,126,-104,126c0,0,-62,0,-140,-39L183,521H134V691c0,0,112,17,165,21c0,0,53,5,108,5c0,0,264,0,264,-194V67L741,49V0H483L466,54C466,54,408,14,361,0c0,0,-47,-14,-95,-14Z" 
id="f0_1x"
transform="scale(0.001,-0.001)" />

<path d="M276,-14c0,0,-57,0,-125,13C151,-1,83,10,48,23V214H97l28,-98c0,0,26,-26,69,-44c0,0,42,-17,86,-17c0,0,65,0,97,28c0,0,32,28,32,71c0,0,0,41,-31,65c0,0,-30,25,-133,57c0,0,-108,34,-154,92c0,0,-45,58,-45,143c0,0,0,95,71,152c0,0,71,57,183,57c0,0,77,0,207,-22V518H457l-24,82c0,0,-21,22,-60,35c0,0,-40,14,-75,14c0,0,-53,0,-79,-22c0,0,-26,-22,-26,-59c0,0,0,-40,32,-65c0,0,32,-26,132,-55c0,0,109,-34,155,-89c0,0,45,-55,45,-137c0,0,0,-117,-72,-177c0,0,-72,-59,-209,-59Z" 
id="f0_2f"
transform="scale(0.001,-0.001)" />

<path d="M56,294V424H453V294Z" 
id="f0_h"
transform="scale(0.001,-0.001)" />

<path d="M342,-14c0,0,-138,0,-276,29L57,258h69L165,96c0,0,65,-36,136,-36c0,0,90,0,141,58c0,0,50,57,50,161c0,0,0,91,-40,139c0,0,-41,48,-132,54l-87,5v90l84,6c0,0,66,5,98,49c0,0,32,44,32,134c0,0,0,83,-38,131c0,0,-38,48,-107,48c0,0,-40,0,-66,-13c0,0,-26,-12,-49,-26L155,751H90V979c0,0,76,19,132,26c0,0,55,6,108,6c0,0,337,0,337,-246c0,0,0,-102,-54,-164c0,0,-54,-63,-153,-78c0,0,252,-30,252,-251c0,0,0,-136,-98,-211c0,0,-98,-75,-272,-75Z" 
id="f0_n"
transform="scale(0.001,-0.001)" />

<path d="M248,-20c0,0,-52,0,-87,34c0,0,-36,36,-36,88c0,0,0,52,36,88c0,0,35,36,87,36c0,0,52,0,88,-36c0,0,36,-36,36,-88c0,0,0,-51,-36,-87c0,0,-35,-35,-88,-35Zm0,488c0,0,-52,0,-87,36c0,0,-36,36,-36,88c0,0,0,52,35,88c0,0,35,36,88,36c0,0,53,0,89,-36c0,0,35,-37,35,-88c0,0,0,-51,-36,-87c0,0,-35,-37,-88,-37Z" 
id="f0_u"
transform="scale(0.001,-0.001)" />

<path d="M639,416L478,858L313,416ZM647,0V54L762,74L667,333H283L191,74L319,54V0H15V54L90,74l355,935H662L1016,74l76,-20V0Z" 
id="f0_11"
transform="scale(0.001,-0.001)" />

<path d="M342,-14L49,634L0,652v49H359V652L275,632L455,233L617,634l-82,18v49H764V652L713,637L433,-14Z" 
id="f0_2i"
transform="scale(0.001,-0.001)" />

<path d="M434,423c0,0,0,101,-7,142c0,0,-6,40,-22,60c0,0,-16,19,-45,19c0,0,-44,0,-66,-48c0,0,-22,-49,-22,-173ZM389,-14c0,0,-172,0,-254,89c0,0,-83,90,-83,279c0,0,0,184,79,274c0,0,79,91,238,91c0,0,142,0,206,-76c0,0,64,-76,64,-237V345H271V333c0,0,0,-111,18,-158c0,0,18,-47,58,-72c0,0,40,-25,110,-25c0,0,66,0,166,22V42C623,42,582,18,517,1c0,0,-66,-15,-128,-15Z" 
id="f0_21"
transform="scale(0.001,-0.001)" />

<path d="M394,460c0,0,126,0,186,57c0,0,60,57,60,187c0,0,0,123,-57,176c0,0,-58,53,-194,53H316V460ZM54,0V40L172,60V941L44,960v40H421c0,0,368,0,368,-295c0,0,0,-153,-93,-233c0,0,-93,-80,-267,-80H316V60L475,40V0Z" 
id="f1_1g"
transform="scale(0.001,-0.001)" />

<path d="M31,0V33l88,19V649L31,668v33H235l7,-87c0,0,44,37,121,71c0,0,76,35,121,35h11V530H463l-43,82c0,0,-37,0,-88,-10c0,0,-52,-10,-89,-26V52L363,33V0Z" 
id="f1_2e"
transform="scale(0.001,-0.001)" />

<path d="M495,413c0,0,0,133,-34,190c0,0,-34,57,-105,57c0,0,-78,0,-119,-63c0,0,-42,-62,-42,-184ZM374,-14c0,0,-163,0,-239,87c0,0,-75,88,-75,283c0,0,0,183,77,273c0,0,76,91,219,91c0,0,269,0,269,-306V353H194V340c0,0,0,-103,23,-160c0,0,22,-57,70,-87c0,0,47,-29,124,-29c0,0,40,0,96,6c0,0,55,7,91,15V43C598,43,562,20,500,3c0,0,-61,-17,-126,-17Z" 
id="f1_21"
transform="scale(0.001,-0.001)" />

<path d="M278,-14c0,0,-52,0,-115,11c0,0,-63,10,-99,23V193H98L134,95c0,0,56,-50,146,-50c0,0,144,0,144,123c0,0,0,91,-114,130l-66,21c0,0,-75,25,-110,50c0,0,-34,26,-53,63c0,0,-18,36,-18,89c0,0,0,92,63,145c0,0,63,54,170,54c0,0,77,0,193,-23V544H454l-32,81c0,0,-39,35,-124,35c0,0,-61,0,-92,-30c0,0,-32,-30,-32,-80c0,0,0,-43,29,-72c0,0,28,-29,86,-48c0,0,110,-38,144,-55c0,0,33,-17,57,-42c0,0,23,-25,36,-57c0,0,13,-32,13,-79c0,0,0,-104,-66,-158c0,0,-66,-53,-195,-53Z" 
id="f1_2f"
transform="scale(0.001,-0.001)" />

<path d="M439,0V33l93,19V500c0,0,0,62,-30,97c0,0,-31,36,-94,36c0,0,-67,0,-165,-22V52L338,33V0H35V33l84,19V649L35,668v33H235l7,-57c0,0,57,33,122,54c0,0,65,22,108,22c0,0,91,0,137,-53c0,0,47,-53,47,-154V52L741,33V0Z" 
id="f1_2a"
transform="scale(0.001,-0.001)" />

<path d="M399,-14c0,0,-341,0,-341,370c0,0,0,175,87,269c0,0,87,95,249,95c0,0,101,0,220,-23V501H573L541,625c0,0,-62,35,-149,35c0,0,-200,0,-200,-304c0,0,0,-158,61,-225c0,0,61,-67,189,-67c0,0,109,0,189,24V43C631,43,595,16,530,1c0,0,-64,-15,-131,-15Z" 
id="f1_1z"
transform="scale(0.001,-0.001)" />

<path d="M377,45c0,0,99,0,147,73c0,0,47,73,47,237c0,0,0,161,-47,233c0,0,-47,72,-147,72c0,0,-97,0,-141,-69c0,0,-44,-69,-44,-236c0,0,0,-169,45,-240c0,0,44,-70,140,-70Zm0,-59c0,0,-158,0,-238,94c0,0,-81,95,-81,274c0,0,0,178,81,272c0,0,80,94,244,94c0,0,160,0,241,-92c0,0,82,-92,82,-274c0,0,0,-368,-329,-368Z" 
id="f1_2b"
transform="scale(0.001,-0.001)" />

<path d="M64,0V34L168,59V639H47v36l121,29v49c0,0,0,155,61,239c0,0,62,84,173,84c0,0,58,0,107,-15V908H472l-33,92c0,0,-26,16,-62,16c0,0,-47,0,-66,-42c0,0,-19,-42,-19,-157V701H478V639H292V59L443,34V0Z" 
id="f1_22"
transform="scale(0.001,-0.001)" />

<path d="M284,67c0,0,51,0,88,12c0,0,37,12,74,30V358l-98,-3c0,0,-100,-4,-135,-39c0,0,-35,-35,-35,-117c0,0,0,-132,106,-132ZM233,-14c0,0,-179,0,-179,208c0,0,0,70,27,116c0,0,27,46,87,70c0,0,60,24,173,27l105,3V519c0,0,0,72,-26,107c0,0,-27,34,-82,34c0,0,-75,0,-137,-35L176,538H134V691c0,0,121,26,213,26c0,0,115,0,169,-47c0,0,54,-47,54,-144V52L657,33V0H465L451,70c0,0,-85,-84,-218,-84Z" 
id="f1_1x"
transform="scale(0.001,-0.001)" />

<path d="M249,-14c0,0,-71,0,-107,42c0,0,-35,42,-35,119V639H15v33l93,29l76,159h47V701H391V639H231V161c0,0,0,-48,22,-73c0,0,22,-24,57,-24c0,0,44,0,106,12V26C416,26,389,8,340,-2c0,0,-49,-12,-91,-12Z" 
id="f1_2g"
transform="scale(0.001,-0.001)" />

<path d="M442,0V33l93,19V504c0,0,0,129,-124,129c0,0,-70,0,-168,-22V52L338,33V0H31V33l88,19v956L15,1026v34H243V756c0,0,0,-77,-5,-112c0,0,54,31,122,53c0,0,68,23,115,23c0,0,91,0,137,-53c0,0,47,-53,47,-154V52L744,33V0Z" 
id="f1_24"
transform="scale(0.001,-0.001)" />

<path d="M383,64c0,0,85,0,152,28V645c0,0,-67,13,-152,13c0,0,-194,0,-194,-314c0,0,0,-141,48,-211c0,0,48,-69,146,-69ZM342,-14c0,0,-287,0,-287,358c0,0,0,184,82,280c0,0,81,96,239,96c0,0,81,0,163,-18c0,0,-4,25,-4,124v182l-118,18v34H659V52L745,33V0H548l-9,52c0,0,-84,-66,-197,-66Z" 
id="f1_20"
transform="scale(0.001,-0.001)" />

<path d="M431,0V33L535,52V499c0,0,0,62,-32,96c0,0,-32,33,-95,33c0,0,-66,0,-163,-22V52L350,33V0H32V33l89,19V649L32,668v33H237l6,-57c0,0,56,32,119,54c0,0,62,22,110,22c0,0,52,0,95,-20c0,0,44,-19,66,-62c0,0,57,32,134,57c0,0,77,25,128,25c0,0,179,0,179,-207V52l90,-19V0H846V33L950,52V499c0,0,0,129,-119,129c0,0,-19,0,-45,-3c0,0,-26,-3,-52,-7c0,0,-25,-4,-49,-8c0,0,-23,-5,-39,-8c0,0,13,-41,13,-89V52L764,33V0Z" 
id="f1_29"
transform="scale(0.001,-0.001)" />

<path d="M31,0V33L150,52v956L31,1026v34H274V52L394,33V0Z" 
id="f1_28"
transform="scale(0.001,-0.001)" />

<path d="M148,-329c0,0,-58,0,-114,13v151H69l24,-71c0,0,23,-17,64,-17c0,0,39,0,72,22c0,0,33,23,60,67c0,0,27,44,68,157L90,649L19,668v33H344V668L233,648L423,158L606,649L497,668v33H758V668L685,652L411,-43c0,0,-48,-124,-84,-177c0,0,-36,-54,-79,-82c0,0,-44,-27,-100,-27Z" 
id="f1_2l"
transform="scale(0.001,-0.001)" />

<path d="M13,0V34L95,46L325,350L122,649L40,668v33H357V668L264,648L399,446L554,649l-96,19v33H710V668L630,652L433,397L663,50L745,34V0H427V34l94,17L359,299L169,50L266,34V0Z" 
id="f1_2k"
transform="scale(0.001,-0.001)" />

<path d="M382,45c0,0,188,0,188,314c0,0,0,143,-47,213c0,0,-46,69,-141,69c0,0,-87,0,-146,-24V58c0,0,67,-13,146,-13ZM25,-325v35l88,18V649L34,668v33H231l1,-41c0,0,31,27,84,43c0,0,53,17,107,17c0,0,134,0,208,-94c0,0,73,-93,73,-267c0,0,0,-178,-80,-276c0,0,-80,-97,-232,-97c0,0,-84,0,-160,16c0,0,4,-53,4,-84V-272l123,-18v-35Z" 
id="f1_2c"
transform="scale(0.001,-0.001)" />

<path d="M32,0V33L151,52V649L52,668v33H275V52L395,33V0ZM201,850c0,0,-32,0,-56,24c0,0,-24,24,-24,56c0,0,0,34,24,58c0,0,24,24,56,24c0,0,34,0,58,-24c0,0,24,-24,24,-58c0,0,0,-32,-24,-56c0,0,-24,-24,-58,-24Z" 
id="f1_25"
transform="scale(0.001,-0.001)" />

<path d="M359,-270c0,0,124,0,192,46c0,0,67,47,67,129c0,0,0,43,-26,67c0,0,-26,24,-79,24H242c0,0,-32,-27,-51,-69c0,0,-20,-41,-20,-77c0,0,0,-64,46,-92c0,0,46,-28,142,-28Zm11,561c0,0,81,0,115,47c0,0,34,47,34,141c0,0,0,100,-35,142c0,0,-35,42,-113,42c0,0,-78,0,-114,-43c0,0,-37,-42,-37,-141c0,0,0,-98,36,-143c0,0,36,-45,114,-45ZM359,-329c0,0,-143,0,-218,44c0,0,-75,43,-75,125c0,0,0,39,27,78c0,0,26,38,98,89c0,0,-43,14,-72,48c0,0,-29,35,-29,74L208,262c0,0,-118,55,-118,217c0,0,0,115,73,178c0,0,73,63,211,63c0,0,28,0,71,-6c0,0,44,-6,67,-13l165,83l26,-32L599,644c0,0,50,-56,50,-165c0,0,0,-120,-72,-182c0,0,-73,-62,-208,-62c0,0,-62,0,-114,11L208,148c0,0,2,-13,29,-24c0,0,27,-12,67,-12H512c0,0,113,0,168,-49c0,0,55,-49,55,-134c0,0,0,-79,-44,-137c0,0,-43,-58,-128,-90c0,0,-84,-31,-204,-31Z" 
id="f1_23"
transform="scale(0.001,-0.001)" />

<path d="M376,50c0,0,103,0,149,80c0,0,46,81,46,240c0,0,0,137,-47,204c0,0,-48,67,-148,67c0,0,-44,0,-87,-7c0,0,-44,-8,-63,-17V62c0,0,63,-12,150,-12Zm3,-64c0,0,-64,0,-141,14c0,0,-78,14,-136,37v971L0,1026v34H226V809c0,0,0,-40,-4,-148c0,0,74,59,188,59c0,0,143,0,219,-87c0,0,77,-87,77,-263c0,0,0,-189,-84,-287c0,0,-84,-97,-243,-97Z" 
id="f1_1y"
transform="scale(0.001,-0.001)" />

<path d="M477,0V33l64,19L348,354L257,254V52L331,33V0H44V33l89,19v956L29,1026v34H257V338L544,647l-73,20v34H718V667L631,650L431,446L688,50L764,33V0Z" 
id="f1_27"
transform="scale(0.001,-0.001)" />

<path d="M191,-20c0,0,-39,0,-65,25c0,0,-25,27,-25,64c0,0,0,38,26,64c0,0,26,26,64,26c0,0,38,0,64,-26c0,0,26,-26,26,-64c0,0,0,-37,-25,-64c0,0,-26,-25,-65,-25Z" 
id="f1_i"
transform="scale(0.001,-0.001)" />

<path d="M186,-14c0,0,-95,0,-154,22V190H81L104,86c0,0,14,-17,40,-26c0,0,26,-10,57,-10c0,0,105,0,105,141V941L178,960v40H562V960L449,941V322c0,0,0,-100,-30,-175c0,0,-31,-74,-93,-118c0,0,-63,-43,-140,-43Z" 
id="f1_1a"
transform="scale(0.001,-0.001)" />

<path d="M327,-14L84,649L1,668v33H335V668L219,648L385,174L554,632h63L786,171L944,649L830,668v33h267V668l-78,-16L784,-14H726L553,448L382,-14Z" 
id="f1_2j"
transform="scale(0.001,-0.001)" />

<path d="M289,-14c0,0,-179,0,-179,205V649L20,668v33H233V200c0,0,0,-128,120,-128c0,0,92,0,173,23V649L420,668v33H649V52L738,33V0H533l-6,57C527,57,474,28,405,7c0,0,-69,-21,-116,-21Z" 
id="f1_2h"
transform="scale(0.001,-0.001)" />

<path d="M54,0V40L172,60V941L44,960v40H794V760H745L721,922c0,0,-83,11,-241,11H316V516H611l23,120h46V328H634L611,449H316V60L483,40V0Z" 
id="f1_16"
transform="scale(0.001,-0.001)" />

<path d="M44,0V40L172,60V941L44,960v40H445V960L316,941V549H787V941L659,960v40h400V960L930,941V60L1059,40V0H659V40L787,60V481H316V60L445,40V0Z" 
id="f1_18"
transform="scale(0.001,-0.001)" />

<path d="M360,-14L72,649L0,668v33H327V668L216,648L420,164L615,649L504,668v33H764V668L697,652L416,-14Z" 
id="f1_2i"
transform="scale(0.001,-0.001)" />

<path d="M868,0L251,900V60L385,40V0H44V40L172,60V941L44,960v40H347L862,259V941L727,960v40h341V960L940,941V0Z" 
id="f1_1e"
transform="scale(0.001,-0.001)" />

<path d="M44,0V40L172,60V941L44,960v40H794V760H745L721,922c0,0,-83,11,-241,11H316V543H586l23,119h48V354H609L586,475H316V67H513c0,0,193,0,252,12l43,185h49L843,0Z" 
id="f1_15"
transform="scale(0.001,-0.001)" />

<path d="M536,63c0,0,127,0,191,54c0,0,63,54,63,168c0,0,0,105,-70,154c0,0,-70,49,-225,49H316V67c0,0,103,-4,220,-4ZM480,555c0,0,121,0,178,48c0,0,57,48,57,155c0,0,0,91,-58,133c0,0,-57,42,-186,42H316V555ZM554,-4L235,0H44V40L172,60V941L44,960v40H501c0,0,191,0,279,-56c0,0,88,-56,88,-179c0,0,0,-88,-55,-149c0,0,-54,-62,-151,-83c0,0,135,-14,209,-79c0,0,73,-65,73,-166c0,0,0,-144,-99,-219C845,69,745,-4,554,-4Z" 
id="f1_12"
transform="scale(0.001,-0.001)" />

<path d="M44,0V40L172,60V941L44,960v40H471V960L316,941V65H513c0,0,159,0,234,14l46,208h48L828,0Z" 
id="f1_1c"
transform="scale(0.001,-0.001)" />

<path d="M410,-14c0,0,-80,0,-162,14c0,0,-81,14,-144,38V270h48L178,134c0,0,28,-35,95,-62c0,0,68,-27,134,-27c0,0,104,0,163,53c0,0,58,54,58,148c0,0,0,54,-23,89c0,0,-22,35,-59,59c0,0,-37,24,-84,41c0,0,-47,17,-97,34c0,0,-49,17,-96,38c0,0,-47,21,-84,53c0,0,-37,32,-60,79c0,0,-23,48,-23,117c0,0,0,119,90,187c0,0,89,68,248,68c0,0,121,0,263,-32V771H654L628,893c0,0,-76,55,-188,55c0,0,-100,0,-156,-40c0,0,-56,-41,-56,-112c0,0,0,-49,22,-81c0,0,23,-32,60,-55c0,0,37,-22,84,-39c0,0,48,-16,97,-34c0,0,50,-17,97,-39c0,0,48,-22,85,-56c0,0,36,-34,59,-83c0,0,23,-49,23,-120c0,0,0,-145,-89,-224c0,0,-89,-79,-256,-79Z" 
id="f1_1j"
transform="scale(0.001,-0.001)" />

<path d="M529,65c0,0,183,0,270,108c0,0,87,108,87,334c0,0,0,210,-113,318c0,0,-113,108,-322,108H316V71c0,0,90,-6,213,-6Zm0,-67L172,0H44V40L172,60V941L44,960v40H498c0,0,277,0,411,-123c0,0,133,-124,133,-371c0,0,0,-251,-129,-380C913,126,785,-2,529,-2Z" 
id="f1_14"
transform="scale(0.001,-0.001)" />

<path d="M41,0V34L426,641H261c0,0,-42,0,-80,-7c0,0,-39,-7,-54,-19L104,515H69V701H586V665L201,60H407c0,0,42,0,89,10c0,0,47,10,66,25l39,147h35L617,0Z" 
id="f1_2m"
transform="scale(0.001,-0.001)" />

<path d="M58,-234v58c0,0,131,42,131,125c0,0,0,15,-11,27c0,0,-11,12,-38,25C140,1,89,27,89,75c0,0,0,40,25,61c0,0,26,21,65,21c0,0,48,0,77,-34c0,0,30,-34,30,-86c0,0,0,-101,-60,-170c0,0,-59,-69,-168,-101Z" 
id="f1_g"
transform="scale(0.001,-0.001)" />

<path d="M681,416L504,902L333,416ZM669,0V40L803,60L704,348H310L210,60L344,40V0H15V40L128,60l341,949H611L965,60L1092,40V0Z" 
id="f1_11"
transform="scale(0.001,-0.001)" />

<path d="M551,45c0,0,171,0,252,108c0,0,82,108,82,349c0,0,0,239,-81,344c0,0,-81,105,-253,105c0,0,-172,0,-252,-105c0,0,-80,-105,-80,-344c0,0,0,-241,80,-349c0,0,81,-108,252,-108Zm0,-59c0,0,-238,0,-363,129C188,115,63,245,63,501c0,0,0,510,488,510c0,0,242,0,366,-129c0,0,124,-130,124,-381c0,0,0,-255,-126,-385C915,116,790,-14,551,-14Z" 
id="f1_1f"
transform="scale(0.001,-0.001)" />

<path d="M211,-20c0,0,-39,0,-64,25c0,0,-26,27,-26,64c0,0,0,38,26,64c0,0,26,26,64,26c0,0,37,0,64,-25c0,0,26,-26,26,-65c0,0,0,-37,-26,-64c0,0,-26,-25,-64,-25Zm0,556c0,0,-38,0,-64,26c0,0,-26,26,-26,64c0,0,0,37,26,64c0,0,25,27,64,27c0,0,38,0,64,-27c0,0,26,-27,26,-64c0,0,0,-38,-26,-64c0,0,-27,-26,-64,-26Z" 
id="f1_u"
transform="scale(0.001,-0.001)" />

<path d="M577,-14c0,0,-243,0,-379,132C198,118,63,250,63,488c0,0,0,258,130,391c0,0,131,132,387,132c0,0,156,0,335,-38l5,-218H871L848,884c0,0,-52,32,-121,50c0,0,-69,17,-141,17c0,0,-191,0,-279,-112c0,0,-88,-113,-88,-349c0,0,0,-217,92,-332c0,0,92,-115,268,-115c0,0,85,0,160,20c0,0,76,21,120,55l27,149h49L930,32c0,0,-164,-46,-353,-46Z" 
id="f1_13"
transform="scale(0.001,-0.001)" />

<path d="M160,0L581,834H186L152,715H87v285H727V941L338,0Z" 
id="f0_r"
transform="scale(0.001,-0.001)" />

<path d="M900,0V54l135,20V845L658,0H617L248,845V74L382,54V0H26V54L154,74V926L26,945v55H419L705,342l292,658h401V945L1270,926V74L1398,54V0Z" 
id="f0_1d"
transform="scale(0.001,-0.001)" />

<path d="M41,0V49l69,18V634L41,652v49H313l11,-61l50,26c0,0,105,54,188,54c0,0,125,0,167,-91c0,0,153,91,258,91c0,0,189,0,189,-207V67l71,-17V0H898V50l63,17V484c0,0,0,63,-24,98c0,0,-25,35,-74,35c0,0,-55,0,-119,-31c0,0,7,-32,7,-73V67L821,50V0H473V50l63,17V484c0,0,0,63,-25,98c0,0,-24,35,-73,35c0,0,-49,0,-113,-29V67L389,49V0Z" 
id="f0_29"
transform="scale(0.001,-0.001)" />

<path d="M34,0V49l76,18V634L38,652v49H325V67L402,49V0ZM217,831c0,0,-48,0,-81,33c0,0,-34,33,-34,82c0,0,0,48,34,81c0,0,34,33,81,33c0,0,48,0,81,-33c0,0,33,-33,33,-81c0,0,0,-47,-33,-81c0,0,-32,-34,-81,-34Z" 
id="f0_25"
transform="scale(0.001,-0.001)" />

<path d="M64,-325c0,0,-46,0,-107,14v148H-8l19,-81c0,0,25,-21,62,-21c0,0,44,0,67,47c0,0,22,47,22,152V649L57,668v33H286V-28c0,0,0,-146,-57,-221c0,0,-56,-76,-165,-76ZM213,850c0,0,-34,0,-58,24c0,0,-24,24,-24,56c0,0,0,34,24,58c0,0,24,24,58,24c0,0,32,0,56,-24c0,0,24,-24,24,-58c0,0,0,-32,-24,-56c0,0,-24,-24,-56,-24Z" 
id="f1_26"
transform="scale(0.001,-0.001)" />

<path d="M448,506c0,0,134,0,190,49c0,0,57,50,57,168c0,0,0,114,-56,162c0,0,-56,48,-195,48H316V506ZM777,0L496,438H316V60L468,40V0H54V40L172,60V941L44,960v40H476c0,0,188,0,277,-63c0,0,90,-64,90,-204c0,0,0,-100,-54,-173c0,0,-55,-73,-151,-101L909,60L1017,40V0Z" 
id="f1_1i"
transform="scale(0.001,-0.001)" />

<path d="M412,-18c0,0,-144,0,-239,85c0,0,-95,86,-108,222l133,18c0,0,24,-114,79,-164c0,0,55,-50,135,-50c0,0,96,0,161,65c0,0,65,66,65,163c0,0,0,92,-61,152c0,0,-60,60,-153,60c0,0,-38,0,-95,-15l15,119c0,0,13,-2,21,-2c0,0,86,0,155,45c0,0,69,44,69,137c0,0,0,74,-50,122c0,0,-50,49,-129,49c0,0,-79,0,-131,-50c0,0,-52,-49,-67,-147L78,815c0,0,25,135,112,209c0,0,87,74,217,74c0,0,89,0,164,-38c0,0,76,-39,116,-105c0,0,40,-66,40,-141c0,0,0,-70,-39,-129c0,0,-38,-58,-112,-92c0,0,97,-22,151,-93c0,0,53,-70,53,-176c0,0,0,-143,-104,-243c0,0,-105,-99,-264,-99Z" 
id="f2_n"
transform="scale(0.001,-0.001)" />

<path d="M435,0V856c0,0,-48,-47,-127,-93c0,0,-79,-46,-142,-69V824c0,0,113,52,197,128c0,0,85,75,120,146h86V0Z" 
id="f2_l"
transform="scale(0.001,-0.001)" />


</defs>
</svg>