<?xml version="1.0" encoding="UTF-8" standalone="no"?>
<!DOCTYPE svg PUBLIC "-//W3C//DTD SVG 1.1//EN"
"http://www.w3.org/Graphics/SVG/1.1/DTD/svg11.dtd">
<svg viewBox="0 0 909 1286" version="1.1" xmlns="http://www.w3.org/2000/svg" xmlns:xlink="http://www.w3.org/1999/xlink">
<defs>
<clipPath id="c0_38"><path d="M0,1286.3V0H909.3V1286.3Z" /></clipPath>
</defs>
<g clip-path="url(#c0_38)">
<g fill="#000000" >
<use xlink:href="#f0_n" transform="matrix(12,0,0,12,55,515.3)" />
<use xlink:href="#f0_i" transform="matrix(12,0,0,12,64.2,515.3)" />
<use xlink:href="#f0_q" transform="matrix(12,0,0,12,69,515.3)" />
<use xlink:href="#f0_11" transform="matrix(12,0,0,12,82.2,515.3)" />
<use xlink:href="#f0_28" transform="matrix(12,0,0,12,95.4,515.3)" />
<use xlink:href="#f0_2g" transform="matrix(12,0,0,12,100.1,515.3)" />
<use xlink:href="#f0_21" transform="matrix(12,0,0,12,106.4,515.3)" />
<use xlink:href="#f0_2e" transform="matrix(12,0,0,12,114.4,515.3)" />
<use xlink:href="#f0_2a" transform="matrix(12,0,0,12,122.1,515.3)" />
<use xlink:href="#f0_1x" transform="matrix(12,0,0,12,132.4,515.3)" />
<use xlink:href="#f0_2g" transform="matrix(12,0,0,12,141.5,515.3)" />
<use xlink:href="#f0_25" transform="matrix(12,0,0,12,147.7,515.3)" />
<use xlink:href="#f0_2b" transform="matrix(12,0,0,12,152.8,515.3)" />
<use xlink:href="#f0_2a" transform="matrix(12,0,0,12,162,515.3)" />
<use xlink:href="#f0_2b" transform="matrix(12,0,0,12,176.3,515.3)" />
<use xlink:href="#f0_22" transform="matrix(12,0,0,12,185.5,515.3)" />
<use xlink:href="#f0_23" transform="matrix(12,0,0,12,195.4,515.3)" />
<use xlink:href="#f0_21" transform="matrix(12,0,0,12,204.6,515.3)" />
<use xlink:href="#f0_2a" transform="matrix(12,0,0,12,212.6,515.3)" />
<use xlink:href="#f0_21" transform="matrix(12,0,0,12,222.9,515.3)" />
<use xlink:href="#f0_2e" transform="matrix(12,0,0,12,231.3,515.3)" />
<use xlink:href="#f0_1x" transform="matrix(12,0,0,12,239,515.3)" />
<use xlink:href="#f0_2g" transform="matrix(12,0,0,12,248.2,515.3)" />
<use xlink:href="#f0_25" transform="matrix(12,0,0,12,254.4,515.3)" />
<use xlink:href="#f0_2b" transform="matrix(12,0,0,12,259.5,515.3)" />
<use xlink:href="#f0_2a" transform="matrix(12,0,0,12,268.6,515.3)" />
<use xlink:href="#f1_u" transform="matrix(12,0,0,12,279.1,515.3)" />
<use xlink:href="#f1_1k" transform="matrix(12,0,0,12,288.3,515.3)" />
<use xlink:href="#f1_24" transform="matrix(12,0,0,12,299.7,515.3)" />
<use xlink:href="#f1_21" transform="matrix(12,0,0,12,308.5,515.3)" />
<use xlink:href="#f1_2e" transform="matrix(12,0,0,12,316.5,515.3)" />
<use xlink:href="#f1_21" transform="matrix(12,0,0,12,322.7,515.3)" />
<use xlink:href="#f1_25" transform="matrix(12,0,0,12,335.2,515.3)" />
<use xlink:href="#f1_2f" transform="matrix(12,0,0,12,340,515.3)" />
<use xlink:href="#f1_1x" transform="matrix(12,0,0,12,351,515.3)" />
<use xlink:href="#f1_2a" transform="matrix(12,0,0,12,359.4,515.3)" />
<use xlink:href="#f1_1x" transform="matrix(12,0,0,12,372.2,515.3)" />
<use xlink:href="#f1_28" transform="matrix(12,0,0,12,380.6,515.3)" />
<use xlink:href="#f1_2g" transform="matrix(12,0,0,12,385,515.3)" />
<use xlink:href="#f1_21" transform="matrix(12,0,0,12,390.5,515.3)" />
<use xlink:href="#f1_2e" transform="matrix(12,0,0,12,398.6,515.3)" />
<use xlink:href="#f1_2a" transform="matrix(12,0,0,12,405.2,515.3)" />
<use xlink:href="#f1_1x" transform="matrix(12,0,0,12,414,515.3)" />
<use xlink:href="#f1_2g" transform="matrix(12,0,0,12,422,515.3)" />
<use xlink:href="#f1_25" transform="matrix(12,0,0,12,427.5,515.3)" />
<use xlink:href="#f1_2b" transform="matrix(12,0,0,12,431.9,515.3)" />
<use xlink:href="#f1_2a" transform="matrix(12,0,0,12,441.8,515.3)" />
<use xlink:href="#f1_2b" transform="matrix(12,0,0,12,454.6,515.3)" />
<use xlink:href="#f1_22" transform="matrix(12,0,0,12,464.1,515.3)" />
<use xlink:href="#f1_1x" transform="matrix(12,0,0,12,473.7,515.3)" />
<use xlink:href="#f1_24" transform="matrix(12,0,0,12,486.4,515.3)" />
<use xlink:href="#f1_1x" transform="matrix(12,0,0,12,495.2,515.3)" />
<use xlink:href="#f1_2c" transform="matrix(12,0,0,12,503.3,515.3)" />
<use xlink:href="#f1_28" transform="matrix(12,0,0,12,512.8,515.3)" />
<use xlink:href="#f1_2b" transform="matrix(12,0,0,12,517.2,515.3)" />
<use xlink:href="#f1_25" transform="matrix(12,0,0,12,527,515.3)" />
<use xlink:href="#f1_20" transform="matrix(12,0,0,12,531.8,515.3)" />
<use xlink:href="#f1_23" transform="matrix(12,0,0,12,545.1,515.3)" />
<use xlink:href="#f1_1x" transform="matrix(12,0,0,12,554.2,515.3)" />
<use xlink:href="#f1_29" transform="matrix(12,0,0,12,562.7,515.3)" />
<use xlink:href="#f1_21" transform="matrix(12,0,0,12,576.6,515.3)" />
<use xlink:href="#f1_2g" transform="matrix(12,0,0,12,584.7,515.3)" />
<use xlink:href="#f1_21" transform="matrix(12,0,0,12,590.1,515.3)" />
<use xlink:href="#f1_2c" transform="matrix(12,0,0,12,602.2,515.3)" />
<use xlink:href="#f1_2e" transform="matrix(12,0,0,12,611.4,515.3)" />
<use xlink:href="#f1_2b" transform="matrix(12,0,0,12,617.6,515.3)" />
<use xlink:href="#f1_20" transform="matrix(12,0,0,12,627.1,515.3)" />
<use xlink:href="#f1_2h" transform="matrix(12,0,0,12,636.3,515.3)" />
<use xlink:href="#f1_1z" transform="matrix(12,0,0,12,645.5,515.3)" />
<use xlink:href="#f1_25" transform="matrix(12,0,0,12,653.5,515.3)" />
<use xlink:href="#f1_2a" transform="matrix(12,0,0,12,658.3,515.3)" />
<use xlink:href="#f1_23" transform="matrix(12,0,0,12,667.1,515.3)" />
<use xlink:href="#f1_23" transform="matrix(12,0,0,12,680.4,515.3)" />
<use xlink:href="#f1_1x" transform="matrix(12,0,0,12,689.6,515.3)" />
<use xlink:href="#f1_29" transform="matrix(12,0,0,12,698,515.3)" />
<use xlink:href="#f1_21" transform="matrix(12,0,0,12,711.9,515.3)" />
<use xlink:href="#f1_2g" transform="matrix(12,0,0,12,720,515.3)" />
<use xlink:href="#f1_2b" transform="matrix(12,0,0,12,725.5,515.3)" />
<use xlink:href="#f1_2c" transform="matrix(12,0,0,12,735,515.3)" />
<use xlink:href="#f1_24" transform="matrix(12,0,0,12,744.2,515.3)" />
<use xlink:href="#f1_2l" transform="matrix(12,0,0,12,753.3,515.3)" />
<use xlink:href="#f1_2g" transform="matrix(12,0,0,12,761.8,515.3)" />
<use xlink:href="#f1_25" transform="matrix(12,0,0,12,767.6,515.3)" />
<use xlink:href="#f1_1z" transform="matrix(12,0,0,12,772,515.3)" />
<use xlink:href="#f1_1x" transform="matrix(12,0,0,12,784.1,515.3)" />
<use xlink:href="#f1_2a" transform="matrix(12,0,0,12,792.5,515.3)" />
<use xlink:href="#f1_20" transform="matrix(12,0,0,12,801.7,515.3)" />
<use xlink:href="#f1_2f" transform="matrix(12,0,0,12,814.9,515.3)" />
<use xlink:href="#f1_2c" transform="matrix(12,0,0,12,821.9,515.3)" />
<use xlink:href="#f1_2b" transform="matrix(12,0,0,12,831,515.3)" />
<use xlink:href="#f1_2e" transform="matrix(12,0,0,12,840.5,515.3)" />
<use xlink:href="#f1_21" transform="matrix(12,0,0,12,846.8,515.3)" />
<use xlink:href="#f1_2c" transform="matrix(12,0,0,12,55,536.6)" />
<use xlink:href="#f1_2e" transform="matrix(12,0,0,12,64.2,536.6)" />
<use xlink:href="#f1_2b" transform="matrix(12,0,0,12,70.4,536.6)" />
<use xlink:href="#f1_20" transform="matrix(12,0,0,12,79.9,536.6)" />
<use xlink:href="#f1_2h" transform="matrix(12,0,0,12,89.1,536.6)" />
<use xlink:href="#f1_1z" transform="matrix(12,0,0,12,98.3,536.6)" />
<use xlink:href="#f1_25" transform="matrix(12,0,0,12,106.3,536.6)" />
<use xlink:href="#f1_2a" transform="matrix(12,0,0,12,111.1,536.6)" />
<use xlink:href="#f1_23" transform="matrix(12,0,0,12,119.9,536.6)" />
<use xlink:href="#f1_2f" transform="matrix(12,0,0,12,133.8,536.6)" />
<use xlink:href="#f1_2c" transform="matrix(12,0,0,12,140.8,536.6)" />
<use xlink:href="#f1_2b" transform="matrix(12,0,0,12,149.9,536.6)" />
<use xlink:href="#f1_2e" transform="matrix(12,0,0,12,159.5,536.6)" />
<use xlink:href="#f1_2b" transform="matrix(12,0,0,12,165.3,536.6)" />
<use xlink:href="#f1_2c" transform="matrix(12,0,0,12,174.8,536.6)" />
<use xlink:href="#f1_24" transform="matrix(12,0,0,12,184,536.6)" />
<use xlink:href="#f1_2l" transform="matrix(12,0,0,12,193.2,536.6)" />
<use xlink:href="#f1_2g" transform="matrix(12,0,0,12,201.6,536.6)" />
<use xlink:href="#f1_25" transform="matrix(12,0,0,12,207.5,536.6)" />
<use xlink:href="#f1_1z" transform="matrix(12,0,0,12,211.9,536.6)" />
<use xlink:href="#f1_23" transform="matrix(12,0,0,12,224.7,536.6)" />
<use xlink:href="#f1_21" transform="matrix(12,0,0,12,233.8,536.6)" />
<use xlink:href="#f1_2a" transform="matrix(12,0,0,12,242.3,536.6)" />
<use xlink:href="#f1_21" transform="matrix(12,0,0,12,251.1,536.6)" />
<use xlink:href="#f1_2e" transform="matrix(12,0,0,12,259.1,536.6)" />
<use xlink:href="#f1_1x" transform="matrix(12,0,0,12,265.3,536.6)" />
<use xlink:href="#f1_2g" transform="matrix(12,0,0,12,273.4,536.6)" />
<use xlink:href="#f1_25" transform="matrix(12,0,0,12,279.3,536.6)" />
<use xlink:href="#f1_2b" transform="matrix(12,0,0,12,283.7,536.6)" />
<use xlink:href="#f1_2a" transform="matrix(12,0,0,12,293.2,536.6)" />
<use xlink:href="#f1_i" transform="matrix(12,0,0,12,302.2,536.6)" />
<use xlink:href="#f1_1k" transform="matrix(12,0,0,12,55,557.5)" />
<use xlink:href="#f1_24" transform="matrix(12,0,0,12,66.4,557.5)" />
<use xlink:href="#f1_2e" transform="matrix(12,0,0,12,75.2,557.5)" />
<use xlink:href="#f1_21" transform="matrix(12,0,0,12,81.4,557.5)" />
<use xlink:href="#f1_21" transform="matrix(12,0,0,12,89.5,557.5)" />
<use xlink:href="#f1_2g" transform="matrix(12,0,0,12,102.3,557.5)" />
<use xlink:href="#f1_2l" transform="matrix(12,0,0,12,107.8,557.5)" />
<use xlink:href="#f1_2c" transform="matrix(12,0,0,12,116.2,557.5)" />
<use xlink:href="#f1_21" transform="matrix(12,0,0,12,125.4,557.5)" />
<use xlink:href="#f1_2f" transform="matrix(12,0,0,12,133.8,557.5)" />
<use xlink:href="#f1_h" transform="matrix(12,0,0,12,140.8,557.5)" />
<use xlink:href="#f0_l" transform="matrix(12,0,0,12,82.5,578.8)" />
<use xlink:href="#f0_i" transform="matrix(12,0,0,12,91.7,578.8)" />
<use xlink:href="#f0_18" transform="matrix(12,0,0,12,110,578.8)" />
<use xlink:href="#f0_1x" transform="matrix(12,0,0,12,124.3,578.8)" />
<use xlink:href="#f0_2c" transform="matrix(12,0,0,12,133.5,578.8)" />
<use xlink:href="#f0_28" transform="matrix(12,0,0,12,143.8,578.8)" />
<use xlink:href="#f0_2b" transform="matrix(12,0,0,12,148.5,578.8)" />
<use xlink:href="#f0_2a" transform="matrix(12,0,0,12,157.7,578.8)" />
<use xlink:href="#f0_2g" transform="matrix(12,0,0,12,167.9,578.8)" />
<use xlink:href="#f0_25" transform="matrix(12,0,0,12,174.1,578.8)" />
<use xlink:href="#f0_1z" transform="matrix(12,0,0,12,179.2,578.8)" />
<use xlink:href="#f0_28" transform="matrix(12,0,0,12,194,578.8)" />
<use xlink:href="#f0_25" transform="matrix(12,0,0,12,198.8,578.8)" />
<use xlink:href="#f0_22" transform="matrix(12,0,0,12,204.3,578.8)" />
<use xlink:href="#f0_21" transform="matrix(12,0,0,12,210.2,578.8)" />
<use xlink:href="#f0_1z" transform="matrix(12,0,0,12,224.8,578.8)" />
<use xlink:href="#f0_2l" transform="matrix(12,0,0,12,232.9,578.8)" />
<use xlink:href="#f0_1z" transform="matrix(12,0,0,12,242,578.8)" />
<use xlink:href="#f0_28" transform="matrix(12,0,0,12,250.5,578.8)" />
<use xlink:href="#f0_21" transform="matrix(12,0,0,12,255.2,578.8)" />
<use xlink:href="#f0_u" transform="matrix(12,0,0,12,263.4,578.8)" />
<use xlink:href="#f1_19" transform="matrix(12,0,0,12,276.2,578.8)" />
<use xlink:href="#f1_2a" transform="matrix(12,0,0,12,282.4,578.8)" />
<use xlink:href="#f1_2g" transform="matrix(12,0,0,12,297.8,578.8)" />
<use xlink:href="#f1_24" transform="matrix(12,0,0,12,303.3,578.8)" />
<use xlink:href="#f1_25" transform="matrix(12,0,0,12,312.5,578.8)" />
<use xlink:href="#f1_2f" transform="matrix(12,0,0,12,317.2,578.8)" />
<use xlink:href="#f1_2g" transform="matrix(12,0,0,12,331.1,578.8)" />
<use xlink:href="#f1_2l" transform="matrix(12,0,0,12,336.6,578.8)" />
<use xlink:href="#f1_2c" transform="matrix(12,0,0,12,345,578.8)" />
<use xlink:href="#f1_21" transform="matrix(12,0,0,12,354.5,578.8)" />
<use xlink:href="#f1_2g" transform="matrix(12,0,0,12,369.2,578.8)" />
<use xlink:href="#f1_24" transform="matrix(12,0,0,12,374.7,578.8)" />
<use xlink:href="#f1_21" transform="matrix(12,0,0,12,383.5,578.8)" />
<use xlink:href="#f1_20" transform="matrix(12,0,0,12,398.1,578.8)" />
<use xlink:href="#f1_2b" transform="matrix(12,0,0,12,407.3,578.8)" />
<use xlink:href="#f1_29" transform="matrix(12,0,0,12,417.2,578.8)" />
<use xlink:href="#f1_25" transform="matrix(12,0,0,12,431.1,578.8)" />
<use xlink:href="#f1_2a" transform="matrix(12,0,0,12,435.9,578.8)" />
<use xlink:href="#f1_1x" transform="matrix(12,0,0,12,445,578.8)" />
<use xlink:href="#f1_2a" transform="matrix(12,0,0,12,453.5,578.8)" />
<use xlink:href="#f1_2g" transform="matrix(12,0,0,12,462.3,578.8)" />
<use xlink:href="#f1_g" transform="matrix(12,0,0,12,467.7,578.8)" />
<use xlink:href="#f1_2c" transform="matrix(12,0,0,12,479.1,578.8)" />
<use xlink:href="#f1_24" transform="matrix(12,0,0,12,488.2,578.8)" />
<use xlink:href="#f1_2b" transform="matrix(12,0,0,12,497,578.8)" />
<use xlink:href="#f1_2g" transform="matrix(12,0,0,12,506.5,578.8)" />
<use xlink:href="#f1_2b" transform="matrix(12,0,0,12,511.6,578.8)" />
<use xlink:href="#f1_2f" transform="matrix(12,0,0,12,521.2,578.8)" />
<use xlink:href="#f1_2l" transform="matrix(12,0,0,12,528.1,578.8)" />
<use xlink:href="#f1_2a" transform="matrix(12,0,0,12,536.9,578.8)" />
<use xlink:href="#f1_2g" transform="matrix(12,0,0,12,545.7,578.8)" />
<use xlink:href="#f1_24" transform="matrix(12,0,0,12,551.2,578.8)" />
<use xlink:href="#f1_21" transform="matrix(12,0,0,12,560,578.8)" />
<use xlink:href="#f1_2g" transform="matrix(12,0,0,12,568.1,578.8)" />
<use xlink:href="#f1_25" transform="matrix(12,0,0,12,573.9,578.8)" />
<use xlink:href="#f1_1z" transform="matrix(12,0,0,12,578.3,578.8)" />
<use xlink:href="#f1_2c" transform="matrix(12,0,0,12,593,578.8)" />
<use xlink:href="#f1_24" transform="matrix(12,0,0,12,602.5,578.8)" />
<use xlink:href="#f1_1x" transform="matrix(12,0,0,12,611.7,578.8)" />
<use xlink:href="#f1_2f" transform="matrix(12,0,0,12,619.7,578.8)" />
<use xlink:href="#f1_21" transform="matrix(12,0,0,12,626.7,578.8)" />
<use xlink:href="#f1_25" transform="matrix(12,0,0,12,641.7,578.8)" />
<use xlink:href="#f1_2f" transform="matrix(12,0,0,12,646.5,578.8)" />
<use xlink:href="#f1_1x" transform="matrix(12,0,0,12,660.4,578.8)" />
<use xlink:href="#f1_22" transform="matrix(12,0,0,12,675.4,578.8)" />
<use xlink:href="#f1_2e" transform="matrix(12,0,0,12,680.9,578.8)" />
<use xlink:href="#f1_21" transform="matrix(12,0,0,12,687.1,578.8)" />
<use xlink:href="#f1_21" transform="matrix(12,0,0,12,695.2,578.8)" />
<use xlink:href="#f1_28" transform="matrix(12,0,0,12,710.2,578.8)" />
<use xlink:href="#f1_25" transform="matrix(12,0,0,12,715.3,578.8)" />
<use xlink:href="#f1_2i" transform="matrix(12,0,0,12,720.1,578.8)" />
<use xlink:href="#f1_25" transform="matrix(12,0,0,12,729.6,578.8)" />
<use xlink:href="#f1_2a" transform="matrix(12,0,0,12,734.4,578.8)" />
<use xlink:href="#f1_23" transform="matrix(12,0,0,12,743.6,578.8)" />
<use xlink:href="#f1_23" transform="matrix(12,0,0,12,759.3,578.8)" />
<use xlink:href="#f1_1x" transform="matrix(12,0,0,12,768.5,578.8)" />
<use xlink:href="#f1_29" transform="matrix(12,0,0,12,776.9,578.8)" />
<use xlink:href="#f1_21" transform="matrix(12,0,0,12,790.8,578.8)" />
<use xlink:href="#f1_2g" transform="matrix(12,0,0,12,798.9,578.8)" />
<use xlink:href="#f1_2b" transform="matrix(12,0,0,12,804.4,578.8)" />
<use xlink:href="#f1_2c" transform="matrix(12,0,0,12,813.9,578.8)" />
<use xlink:href="#f1_24" transform="matrix(12,0,0,12,823.1,578.8)" />
<use xlink:href="#f1_2l" transform="matrix(12,0,0,12,832.2,578.8)" />
<use xlink:href="#f1_2g" transform="matrix(12,0,0,12,840.7,578.8)" />
<use xlink:href="#f1_21" transform="matrix(12,0,0,12,846.1,578.8)" />
<use xlink:href="#f1_2c" transform="matrix(12,0,0,12,110,599.7)" />
<use xlink:href="#f1_2e" transform="matrix(12,0,0,12,119.2,599.7)" />
<use xlink:href="#f1_2b" transform="matrix(12,0,0,12,125.4,599.7)" />
<use xlink:href="#f1_20" transform="matrix(12,0,0,12,134.9,599.7)" />
<use xlink:href="#f1_2h" transform="matrix(12,0,0,12,144.1,599.7)" />
<use xlink:href="#f1_1z" transform="matrix(12,0,0,12,153.3,599.7)" />
<use xlink:href="#f1_21" transform="matrix(12,0,0,12,161.3,599.7)" />
<use xlink:href="#f1_20" transform="matrix(12,0,0,12,169.4,599.7)" />
<use xlink:href="#f1_1y" transform="matrix(12,0,0,12,184,599.7)" />
<use xlink:href="#f1_2l" transform="matrix(12,0,0,12,193.2,599.7)" />
<use xlink:href="#f1_24" transform="matrix(12,0,0,12,207.5,599.7)" />
<use xlink:href="#f1_1x" transform="matrix(12,0,0,12,216.3,599.7)" />
<use xlink:href="#f1_2c" transform="matrix(12,0,0,12,224.4,599.7)" />
<use xlink:href="#f1_28" transform="matrix(12,0,0,12,233.9,599.7)" />
<use xlink:href="#f1_2b" transform="matrix(12,0,0,12,238.3,599.7)" />
<use xlink:href="#f1_25" transform="matrix(12,0,0,12,248.2,599.7)" />
<use xlink:href="#f1_20" transform="matrix(12,0,0,12,252.9,599.7)" />
<use xlink:href="#f1_2f" transform="matrix(12,0,0,12,267.9,599.7)" />
<use xlink:href="#f1_2c" transform="matrix(12,0,0,12,274.9,599.7)" />
<use xlink:href="#f1_2b" transform="matrix(12,0,0,12,284.1,599.7)" />
<use xlink:href="#f1_2e" transform="matrix(12,0,0,12,293.6,599.7)" />
<use xlink:href="#f1_21" transform="matrix(12,0,0,12,299.8,599.7)" />
<use xlink:href="#f1_2f" transform="matrix(12,0,0,12,307.9,599.7)" />
<use xlink:href="#f1_i" transform="matrix(12,0,0,12,314.8,599.7)" />
<use xlink:href="#f1_1k" transform="matrix(12,0,0,12,325.3,599.7)" />
<use xlink:href="#f1_24" transform="matrix(12,0,0,12,336.7,599.7)" />
<use xlink:href="#f1_21" transform="matrix(12,0,0,12,345.5,599.7)" />
<use xlink:href="#f1_23" transform="matrix(12,0,0,12,359.4,599.7)" />
<use xlink:href="#f1_1x" transform="matrix(12,0,0,12,368.6,599.7)" />
<use xlink:href="#f1_29" transform="matrix(12,0,0,12,376.6,599.7)" />
<use xlink:href="#f1_21" transform="matrix(12,0,0,12,390.2,599.7)" />
<use xlink:href="#f1_2g" transform="matrix(12,0,0,12,398.3,599.7)" />
<use xlink:href="#f1_2b" transform="matrix(12,0,0,12,403.8,599.7)" />
<use xlink:href="#f1_2c" transform="matrix(12,0,0,12,413.3,599.7)" />
<use xlink:href="#f1_24" transform="matrix(12,0,0,12,422.4,599.7)" />
<use xlink:href="#f1_2l" transform="matrix(12,0,0,12,431.6,599.7)" />
<use xlink:href="#f1_2g" transform="matrix(12,0,0,12,440,599.7)" />
<use xlink:href="#f1_21" transform="matrix(12,0,0,12,445.5,599.7)" />
<use xlink:href="#f1_2c" transform="matrix(12,0,0,12,459.4,599.7)" />
<use xlink:href="#f1_2e" transform="matrix(12,0,0,12,468.6,599.7)" />
<use xlink:href="#f1_2b" transform="matrix(12,0,0,12,474.5,599.7)" />
<use xlink:href="#f1_20" transform="matrix(12,0,0,12,483.6,599.7)" />
<use xlink:href="#f1_2h" transform="matrix(12,0,0,12,492.8,599.7)" />
<use xlink:href="#f1_1z" transform="matrix(12,0,0,12,502,599.7)" />
<use xlink:href="#f1_21" transform="matrix(12,0,0,12,510,599.7)" />
<use xlink:href="#f1_2f" transform="matrix(12,0,0,12,518.1,599.7)" />
<use xlink:href="#f1_23" transform="matrix(12,0,0,12,530.9,599.7)" />
<use xlink:href="#f1_1x" transform="matrix(12,0,0,12,540.1,599.7)" />
<use xlink:href="#f1_29" transform="matrix(12,0,0,12,548.5,599.7)" />
<use xlink:href="#f1_21" transform="matrix(12,0,0,12,562.1,599.7)" />
<use xlink:href="#f1_2g" transform="matrix(12,0,0,12,570.1,599.7)" />
<use xlink:href="#f1_21" transform="matrix(12,0,0,12,575.6,599.7)" />
<use xlink:href="#f1_2f" transform="matrix(12,0,0,12,583.7,599.7)" />
<use xlink:href="#f1_1y" transform="matrix(12,0,0,12,596.5,599.7)" />
<use xlink:href="#f1_2l" transform="matrix(12,0,0,12,605.7,599.7)" />
<use xlink:href="#f1_29" transform="matrix(12,0,0,12,620.6,599.7)" />
<use xlink:href="#f1_25" transform="matrix(12,0,0,12,634.5,599.7)" />
<use xlink:href="#f1_2g" transform="matrix(12,0,0,12,638.9,599.7)" />
<use xlink:href="#f1_2b" transform="matrix(12,0,0,12,644.4,599.7)" />
<use xlink:href="#f1_2f" transform="matrix(12,0,0,12,653.9,599.7)" />
<use xlink:href="#f1_25" transform="matrix(12,0,0,12,661.3,599.7)" />
<use xlink:href="#f1_2f" transform="matrix(12,0,0,12,666,599.7)" />
<use xlink:href="#f1_1x" transform="matrix(12,0,0,12,678.8,599.7)" />
<use xlink:href="#f1_2a" transform="matrix(12,0,0,12,686.9,599.7)" />
<use xlink:href="#f1_20" transform="matrix(12,0,0,12,695.7,599.7)" />
<use xlink:href="#f1_2g" transform="matrix(12,0,0,12,710.7,599.7)" />
<use xlink:href="#f1_24" transform="matrix(12,0,0,12,716.2,599.7)" />
<use xlink:href="#f1_21" transform="matrix(12,0,0,12,725,599.7)" />
<use xlink:href="#f1_23" transform="matrix(12,0,0,12,738.9,599.7)" />
<use xlink:href="#f1_1x" transform="matrix(12,0,0,12,748.1,599.7)" />
<use xlink:href="#f1_29" transform="matrix(12,0,0,12,756.2,599.7)" />
<use xlink:href="#f1_21" transform="matrix(12,0,0,12,770.1,599.7)" />
<use xlink:href="#f1_2g" transform="matrix(12,0,0,12,778.2,599.7)" />
<use xlink:href="#f1_21" transform="matrix(12,0,0,12,783.6,599.7)" />
<use xlink:href="#f1_2f" transform="matrix(12,0,0,12,791.7,599.7)" />
<use xlink:href="#f1_22" transform="matrix(12,0,0,12,804.5,599.7)" />
<use xlink:href="#f1_2h" transform="matrix(12,0,0,12,810,599.7)" />
<use xlink:href="#f1_2f" transform="matrix(12,0,0,12,819.2,599.7)" />
<use xlink:href="#f1_21" transform="matrix(12,0,0,12,826.1,599.7)" />
<use xlink:href="#f1_2g" transform="matrix(12,0,0,12,840.4,599.7)" />
<use xlink:href="#f1_2b" transform="matrix(12,0,0,12,845.5,599.7)" />
<use xlink:href="#f1_22" transform="matrix(12,0,0,12,110,620.9)" />
<use xlink:href="#f1_2b" transform="matrix(12,0,0,12,115.5,620.9)" />
<use xlink:href="#f1_2e" transform="matrix(12,0,0,12,125.1,620.9)" />
<use xlink:href="#f1_29" transform="matrix(12,0,0,12,131.6,620.9)" />
<use xlink:href="#f1_2g" transform="matrix(12,0,0,12,153.2,620.9)" />
<use xlink:href="#f1_24" transform="matrix(12,0,0,12,158.7,620.9)" />
<use xlink:href="#f1_21" transform="matrix(12,0,0,12,167.5,620.9)" />
<use xlink:href="#f1_2m" transform="matrix(12,0,0,12,183.6,620.9)" />
<use xlink:href="#f1_2l" transform="matrix(12,0,0,12,192.1,620.9)" />
<use xlink:href="#f1_23" transform="matrix(12,0,0,12,200.5,620.9)" />
<use xlink:href="#f1_2b" transform="matrix(12,0,0,12,209.7,620.9)" />
<use xlink:href="#f1_2g" transform="matrix(12,0,0,12,219.2,620.9)" />
<use xlink:href="#f1_21" transform="matrix(12,0,0,12,224.7,620.9)" />
<use xlink:href="#f1_2j" transform="matrix(12,0,0,12,241,620.9)" />
<use xlink:href="#f1_24" transform="matrix(12,0,0,12,254.2,620.9)" />
<use xlink:href="#f1_25" transform="matrix(12,0,0,12,263.4,620.9)" />
<use xlink:href="#f1_1z" transform="matrix(12,0,0,12,267.8,620.9)" />
<use xlink:href="#f1_24" transform="matrix(12,0,0,12,276.2,620.9)" />
<use xlink:href="#f1_2e" transform="matrix(12,0,0,12,293,620.9)" />
<use xlink:href="#f1_21" transform="matrix(12,0,0,12,299.3,620.9)" />
<use xlink:href="#f1_2c" transform="matrix(12,0,0,12,307.3,620.9)" />
<use xlink:href="#f1_2e" transform="matrix(12,0,0,12,316.5,620.9)" />
<use xlink:href="#f1_21" transform="matrix(12,0,0,12,322.7,620.9)" />
<use xlink:href="#f1_2f" transform="matrix(12,0,0,12,330.8,620.9)" />
<use xlink:href="#f1_21" transform="matrix(12,0,0,12,337.7,620.9)" />
<use xlink:href="#f1_2a" transform="matrix(12,0,0,12,346.1,620.9)" />
<use xlink:href="#f1_2g" transform="matrix(12,0,0,12,354.9,620.9)" />
<use xlink:href="#f1_2f" transform="matrix(12,0,0,12,360.4,620.9)" />
<use xlink:href="#f1_2g" transform="matrix(12,0,0,12,375.3,620.9)" />
<use xlink:href="#f1_24" transform="matrix(12,0,0,12,380.7,620.9)" />
<use xlink:href="#f1_21" transform="matrix(12,0,0,12,389.5,620.9)" />
<use xlink:href="#f1_2f" transform="matrix(12,0,0,12,405.6,620.9)" />
<use xlink:href="#f1_2c" transform="matrix(12,0,0,12,412.6,620.9)" />
<use xlink:href="#f1_2b" transform="matrix(12,0,0,12,421.8,620.9)" />
<use xlink:href="#f1_2e" transform="matrix(12,0,0,12,431.3,620.9)" />
<use xlink:href="#f1_2b" transform="matrix(12,0,0,12,437.2,620.9)" />
<use xlink:href="#f1_2c" transform="matrix(12,0,0,12,446.7,620.9)" />
<use xlink:href="#f1_24" transform="matrix(12,0,0,12,455.8,620.9)" />
<use xlink:href="#f1_2l" transform="matrix(12,0,0,12,465,620.9)" />
<use xlink:href="#f1_2g" transform="matrix(12,0,0,12,473.4,620.9)" />
<use xlink:href="#f1_25" transform="matrix(12,0,0,12,479.3,620.9)" />
<use xlink:href="#f1_1z" transform="matrix(12,0,0,12,484.1,620.9)" />
<use xlink:href="#f1_23" transform="matrix(12,0,0,12,500.3,620.9)" />
<use xlink:href="#f1_21" transform="matrix(12,0,0,12,509.5,620.9)" />
<use xlink:href="#f1_2a" transform="matrix(12,0,0,12,517.6,620.9)" />
<use xlink:href="#f1_21" transform="matrix(12,0,0,12,526.4,620.9)" />
<use xlink:href="#f1_2e" transform="matrix(12,0,0,12,534.4,620.9)" />
<use xlink:href="#f1_1x" transform="matrix(12,0,0,12,540.6,620.9)" />
<use xlink:href="#f1_2g" transform="matrix(12,0,0,12,548.7,620.9)" />
<use xlink:href="#f1_25" transform="matrix(12,0,0,12,554.5,620.9)" />
<use xlink:href="#f1_2b" transform="matrix(12,0,0,12,558.9,620.9)" />
<use xlink:href="#f1_2a" transform="matrix(12,0,0,12,568.5,620.9)" />
<use xlink:href="#f1_i" transform="matrix(12,0,0,12,577.3,620.9)" />
<use xlink:href="#f1_1q" transform="matrix(12,0,0,12,590.2,620.9)" />
<use xlink:href="#f1_2l" transform="matrix(12,0,0,12,601.5,620.9)" />
<use xlink:href="#f1_23" transform="matrix(12,0,0,12,610,620.9)" />
<use xlink:href="#f1_2b" transform="matrix(12,0,0,12,619.1,620.9)" />
<use xlink:href="#f1_2g" transform="matrix(12,0,0,12,628.6,620.9)" />
<use xlink:href="#f1_21" transform="matrix(12,0,0,12,634.1,620.9)" />
<use xlink:href="#f1_2h" transform="matrix(12,0,0,12,650.2,620.9)" />
<use xlink:href="#f1_2a" transform="matrix(12,0,0,12,659.4,620.9)" />
<use xlink:href="#f1_20" transform="matrix(12,0,0,12,668.2,620.9)" />
<use xlink:href="#f1_21" transform="matrix(12,0,0,12,677.4,620.9)" />
<use xlink:href="#f1_2e" transform="matrix(12,0,0,12,685.4,620.9)" />
<use xlink:href="#f1_23" transform="matrix(12,0,0,12,691.7,620.9)" />
<use xlink:href="#f1_2b" transform="matrix(12,0,0,12,700.5,620.9)" />
<use xlink:href="#f1_21" transform="matrix(12,0,0,12,710,620.9)" />
<use xlink:href="#f1_2f" transform="matrix(12,0,0,12,718,620.9)" />
<use xlink:href="#f1_29" transform="matrix(12,0,0,12,733.1,620.9)" />
<use xlink:href="#f1_21" transform="matrix(12,0,0,12,747,620.9)" />
<use xlink:href="#f1_25" transform="matrix(12,0,0,12,755.4,620.9)" />
<use xlink:href="#f1_2b" transform="matrix(12,0,0,12,759.8,620.9)" />
<use xlink:href="#f1_2f" transform="matrix(12,0,0,12,769.3,620.9)" />
<use xlink:href="#f1_25" transform="matrix(12,0,0,12,776.6,620.9)" />
<use xlink:href="#f1_2f" transform="matrix(12,0,0,12,781.4,620.9)" />
<use xlink:href="#f1_2g" transform="matrix(12,0,0,12,796.4,620.9)" />
<use xlink:href="#f1_2b" transform="matrix(12,0,0,12,801.9,620.9)" />
<use xlink:href="#f1_22" transform="matrix(12,0,0,12,819.1,620.9)" />
<use xlink:href="#f1_2b" transform="matrix(12,0,0,12,824.6,620.9)" />
<use xlink:href="#f1_2e" transform="matrix(12,0,0,12,834.1,620.9)" />
<use xlink:href="#f1_29" transform="matrix(12,0,0,12,840.3,620.9)" />
<use xlink:href="#f1_24" transform="matrix(12,0,0,12,110,641.9)" />
<use xlink:href="#f1_1x" transform="matrix(12,0,0,12,118.8,641.9)" />
<use xlink:href="#f1_2c" transform="matrix(12,0,0,12,126.9,641.9)" />
<use xlink:href="#f1_28" transform="matrix(12,0,0,12,136.4,641.9)" />
<use xlink:href="#f1_2b" transform="matrix(12,0,0,12,140.8,641.9)" />
<use xlink:href="#f1_25" transform="matrix(12,0,0,12,150.7,641.9)" />
<use xlink:href="#f1_20" transform="matrix(12,0,0,12,155.5,641.9)" />
<use xlink:href="#f1_2f" transform="matrix(12,0,0,12,169.4,641.9)" />
<use xlink:href="#f1_2c" transform="matrix(12,0,0,12,176.3,641.9)" />
<use xlink:href="#f1_2b" transform="matrix(12,0,0,12,185.5,641.9)" />
<use xlink:href="#f1_2e" transform="matrix(12,0,0,12,195,641.9)" />
<use xlink:href="#f1_21" transform="matrix(12,0,0,12,201.2,641.9)" />
<use xlink:href="#f1_2f" transform="matrix(12,0,0,12,209.3,641.9)" />
<use xlink:href="#f1_i" transform="matrix(12,0,0,12,216.3,641.9)" />
<use xlink:href="#f0_18" transform="matrix(12,0,0,12,225.9,641.9)" />
<use xlink:href="#f0_21" transform="matrix(12,0,0,12,240.2,641.9)" />
<use xlink:href="#f0_2e" transform="matrix(12,0,0,12,248.3,641.9)" />
<use xlink:href="#f0_21" transform="matrix(12,0,0,12,256,641.9)" />
<use xlink:href="#f0_2g" transform="matrix(12,0,0,12,268.8,641.9)" />
<use xlink:href="#f0_24" transform="matrix(12,0,0,12,275,641.9)" />
<use xlink:href="#f0_21" transform="matrix(12,0,0,12,285.3,641.9)" />
<use xlink:href="#f0_17" transform="matrix(12,0,0,12,298.2,641.9)" />
<use xlink:href="#f0_1x" transform="matrix(12,0,0,12,312.5,641.9)" />
<use xlink:href="#f0_29" transform="matrix(12,0,0,12,321.6,641.9)" />
<use xlink:href="#f0_21" transform="matrix(12,0,0,12,336.7,641.9)" />
<use xlink:href="#f0_2g" transform="matrix(12,0,0,12,344.8,641.9)" />
<use xlink:href="#f0_2b" transform="matrix(12,0,0,12,351,641.9)" />
<use xlink:href="#f0_2c" transform="matrix(12,0,0,12,360.2,641.9)" />
<use xlink:href="#f0_24" transform="matrix(12,0,0,12,370.4,641.9)" />
<use xlink:href="#f0_2l" transform="matrix(12,0,0,12,380.7,641.9)" />
<use xlink:href="#f0_2g" transform="matrix(12,0,0,12,389.8,641.9)" />
<use xlink:href="#f0_25" transform="matrix(12,0,0,12,396,641.9)" />
<use xlink:href="#f0_1z" transform="matrix(12,0,0,12,401.1,641.9)" />
<use xlink:href="#f0_2c" transform="matrix(12,0,0,12,413.6,641.9)" />
<use xlink:href="#f0_24" transform="matrix(12,0,0,12,423.9,641.9)" />
<use xlink:href="#f0_1x" transform="matrix(12,0,0,12,434.1,641.9)" />
<use xlink:href="#f0_2f" transform="matrix(12,0,0,12,443.3,641.9)" />
<use xlink:href="#f0_21" transform="matrix(12,0,0,12,450.2,641.9)" />
<use xlink:href="#f0_25" transform="matrix(12,0,0,12,463.3,641.9)" />
<use xlink:href="#f0_2f" transform="matrix(12,0,0,12,468.4,641.9)" />
<use xlink:href="#f0_20" transform="matrix(12,0,0,12,479.8,641.9)" />
<use xlink:href="#f0_2b" transform="matrix(12,0,0,12,490,641.9)" />
<use xlink:href="#f0_29" transform="matrix(12,0,0,12,499.2,641.9)" />
<use xlink:href="#f0_25" transform="matrix(12,0,0,12,514.2,641.9)" />
<use xlink:href="#f0_2a" transform="matrix(12,0,0,12,519.3,641.9)" />
<use xlink:href="#f0_1x" transform="matrix(12,0,0,12,529.6,641.9)" />
<use xlink:href="#f0_2a" transform="matrix(12,0,0,12,538.8,641.9)" />
<use xlink:href="#f0_2g" transform="matrix(12,0,0,12,549,641.9)" />
<use xlink:href="#f1_i" transform="matrix(12,0,0,12,555.3,641.9)" />
<use xlink:href="#f1_21" transform="matrix(12,0,0,12,564.8,641.9)" />
<use xlink:href="#f1_i" transform="matrix(12,0,0,12,572.5,641.9)" />
<use xlink:href="#f1_23" transform="matrix(12,0,0,12,577.3,641.9)" />
<use xlink:href="#f1_i" transform="matrix(12,0,0,12,586.5,641.9)" />
<use xlink:href="#f1_g" transform="matrix(12,0,0,12,590.9,641.9)" />
<use xlink:href="#f2_13" transform="matrix(12,0,0,12,600.4,641.9)" />
<use xlink:href="#f2_24" transform="matrix(12,0,0,12,612.5,641.9)" />
<use xlink:href="#f2_28" transform="matrix(12,0,0,12,621.7,641.9)" />
<use xlink:href="#f2_1x" transform="matrix(12,0,0,12,626.8,641.9)" />
<use xlink:href="#f2_29" transform="matrix(12,0,0,12,636,641.9)" />
<use xlink:href="#f2_2l" transform="matrix(12,0,0,12,649.2,641.9)" />
<use xlink:href="#f2_20" transform="matrix(12,0,0,12,657.3,641.9)" />
<use xlink:href="#f2_2b" transform="matrix(12,0,0,12,666.4,641.9)" />
<use xlink:href="#f2_29" transform="matrix(12,0,0,12,675.6,641.9)" />
<use xlink:href="#f2_2b" transform="matrix(12,0,0,12,688.9,641.9)" />
<use xlink:href="#f2_2a" transform="matrix(12,0,0,12,698,641.9)" />
<use xlink:href="#f2_1x" transform="matrix(12,0,0,12,707.2,641.9)" />
<use xlink:href="#f2_2f" transform="matrix(12,0,0,12,716.4,641.9)" />
<use xlink:href="#f1_i" transform="matrix(12,0,0,12,723.4,641.9)" />
<use xlink:href="#f0_m" transform="matrix(12,0,0,12,55,890.5)" />
<use xlink:href="#f0_i" transform="matrix(12,0,0,12,64.2,890.5)" />
<use xlink:href="#f0_14" transform="matrix(12,0,0,12,77.8,890.5)" />
<use xlink:href="#f0_25" transform="matrix(12,0,0,12,91,890.5)" />
<use xlink:href="#f0_2c" transform="matrix(12,0,0,12,96.1,890.5)" />
<use xlink:href="#f0_28" transform="matrix(12,0,0,12,106.4,890.5)" />
<use xlink:href="#f0_2b" transform="matrix(12,0,0,12,111.1,890.5)" />
<use xlink:href="#f0_2a" transform="matrix(12,0,0,12,120.3,890.5)" />
<use xlink:href="#f0_2g" transform="matrix(12,0,0,12,130.5,890.5)" />
<use xlink:href="#f0_25" transform="matrix(12,0,0,12,136.7,890.5)" />
<use xlink:href="#f0_1z" transform="matrix(12,0,0,12,141.8,890.5)" />
<use xlink:href="#f0_28" transform="matrix(12,0,0,12,154.4,890.5)" />
<use xlink:href="#f0_25" transform="matrix(12,0,0,12,159.2,890.5)" />
<use xlink:href="#f0_22" transform="matrix(12,0,0,12,164.3,890.5)" />
<use xlink:href="#f0_21" transform="matrix(12,0,0,12,170.2,890.5)" />
<use xlink:href="#f0_1z" transform="matrix(12,0,0,12,182.7,890.5)" />
<use xlink:href="#f0_2l" transform="matrix(12,0,0,12,190.7,890.5)" />
<use xlink:href="#f0_1z" transform="matrix(12,0,0,12,199.9,890.5)" />
<use xlink:href="#f0_28" transform="matrix(12,0,0,12,208,890.5)" />
<use xlink:href="#f0_21" transform="matrix(12,0,0,12,213.1,890.5)" />
<use xlink:href="#f1_u" transform="matrix(12,0,0,12,221.2,890.5)" />
<use xlink:href="#f1_18" transform="matrix(12,0,0,12,235.1,890.5)" />
<use xlink:href="#f1_21" transform="matrix(12,0,0,12,248.3,890.5)" />
<use xlink:href="#f1_2e" transform="matrix(12,0,0,12,256.4,890.5)" />
<use xlink:href="#f1_21" transform="matrix(12,0,0,12,262.6,890.5)" />
<use xlink:href="#f1_2g" transform="matrix(12,0,0,12,275.1,890.5)" />
<use xlink:href="#f1_24" transform="matrix(12,0,0,12,280.6,890.5)" />
<use xlink:href="#f1_21" transform="matrix(12,0,0,12,289.4,890.5)" />
<use xlink:href="#f1_20" transform="matrix(12,0,0,12,301.8,890.5)" />
<use xlink:href="#f1_25" transform="matrix(12,0,0,12,311,890.5)" />
<use xlink:href="#f1_2c" transform="matrix(12,0,0,12,315.4,890.5)" />
<use xlink:href="#f1_28" transform="matrix(12,0,0,12,324.9,890.5)" />
<use xlink:href="#f1_2b" transform="matrix(12,0,0,12,329.3,890.5)" />
<use xlink:href="#f1_25" transform="matrix(12,0,0,12,339.2,890.5)" />
<use xlink:href="#f1_20" transform="matrix(12,0,0,12,344,890.5)" />
<use xlink:href="#f1_2f" transform="matrix(12,0,0,12,357.7,890.5)" />
<use xlink:href="#f1_2c" transform="matrix(12,0,0,12,364.6,890.5)" />
<use xlink:href="#f1_2b" transform="matrix(12,0,0,12,373.8,890.5)" />
<use xlink:href="#f1_2e" transform="matrix(12,0,0,12,383.3,890.5)" />
<use xlink:href="#f1_2b" transform="matrix(12,0,0,12,389.5,890.5)" />
<use xlink:href="#f1_2c" transform="matrix(12,0,0,12,399,890.5)" />
<use xlink:href="#f1_24" transform="matrix(12,0,0,12,408.2,890.5)" />
<use xlink:href="#f1_2l" transform="matrix(12,0,0,12,417.4,890.5)" />
<use xlink:href="#f1_2g" transform="matrix(12,0,0,12,426.2,890.5)" />
<use xlink:href="#f1_21" transform="matrix(12,0,0,12,431.6,890.5)" />
<use xlink:href="#f1_25" transform="matrix(12,0,0,12,444.1,890.5)" />
<use xlink:href="#f1_2f" transform="matrix(12,0,0,12,448.5,890.5)" />
<use xlink:href="#f1_2g" transform="matrix(12,0,0,12,459.9,890.5)" />
<use xlink:href="#f1_24" transform="matrix(12,0,0,12,465.4,890.5)" />
<use xlink:href="#f1_21" transform="matrix(12,0,0,12,474.2,890.5)" />
<use xlink:href="#f1_20" transform="matrix(12,0,0,12,486.6,890.5)" />
<use xlink:href="#f1_2b" transform="matrix(12,0,0,12,495.8,890.5)" />
<use xlink:href="#f1_29" transform="matrix(12,0,0,12,505.3,890.5)" />
<use xlink:href="#f1_25" transform="matrix(12,0,0,12,519.2,890.5)" />
<use xlink:href="#f1_2a" transform="matrix(12,0,0,12,524,890.5)" />
<use xlink:href="#f1_1x" transform="matrix(12,0,0,12,533.2,890.5)" />
<use xlink:href="#f1_2a" transform="matrix(12,0,0,12,541.6,890.5)" />
<use xlink:href="#f1_2g" transform="matrix(12,0,0,12,550.4,890.5)" />
<use xlink:href="#f1_2c" transform="matrix(12,0,0,12,560.3,890.5)" />
<use xlink:href="#f1_24" transform="matrix(12,0,0,12,569.4,890.5)" />
<use xlink:href="#f1_2b" transform="matrix(12,0,0,12,578.2,890.5)" />
<use xlink:href="#f1_2g" transform="matrix(12,0,0,12,587.8,890.5)" />
<use xlink:href="#f1_2b" transform="matrix(12,0,0,12,592.9,890.5)" />
<use xlink:href="#f1_2f" transform="matrix(12,0,0,12,602.4,890.5)" />
<use xlink:href="#f1_2l" transform="matrix(12,0,0,12,609.4,890.5)" />
<use xlink:href="#f1_2a" transform="matrix(12,0,0,12,618.2,890.5)" />
<use xlink:href="#f1_2g" transform="matrix(12,0,0,12,627,890.5)" />
<use xlink:href="#f1_24" transform="matrix(12,0,0,12,632.5,890.5)" />
<use xlink:href="#f1_21" transform="matrix(12,0,0,12,641.6,890.5)" />
<use xlink:href="#f1_2g" transform="matrix(12,0,0,12,649.7,890.5)" />
<use xlink:href="#f1_25" transform="matrix(12,0,0,12,655.2,890.5)" />
<use xlink:href="#f1_1z" transform="matrix(12,0,0,12,659.9,890.5)" />
<use xlink:href="#f1_25" transform="matrix(12,0,0,12,672.7,890.5)" />
<use xlink:href="#f1_2a" transform="matrix(12,0,0,12,677.5,890.5)" />
<use xlink:href="#f1_20" transform="matrix(12,0,0,12,686.3,890.5)" />
<use xlink:href="#f1_21" transform="matrix(12,0,0,12,695.5,890.5)" />
<use xlink:href="#f1_2c" transform="matrix(12,0,0,12,703.5,890.5)" />
<use xlink:href="#f1_21" transform="matrix(12,0,0,12,712.7,890.5)" />
<use xlink:href="#f1_2a" transform="matrix(12,0,0,12,721.1,890.5)" />
<use xlink:href="#f1_20" transform="matrix(12,0,0,12,729.9,890.5)" />
<use xlink:href="#f1_21" transform="matrix(12,0,0,12,739.4,890.5)" />
<use xlink:href="#f1_2a" transform="matrix(12,0,0,12,747.9,890.5)" />
<use xlink:href="#f1_2g" transform="matrix(12,0,0,12,756.7,890.5)" />
<use xlink:href="#f1_2c" transform="matrix(12,0,0,12,766.5,890.5)" />
<use xlink:href="#f1_24" transform="matrix(12,0,0,12,775.7,890.5)" />
<use xlink:href="#f1_1x" transform="matrix(12,0,0,12,784.5,890.5)" />
<use xlink:href="#f1_2f" transform="matrix(12,0,0,12,792.6,890.5)" />
<use xlink:href="#f1_21" transform="matrix(12,0,0,12,799.9,890.5)" />
<use xlink:href="#f1_2b" transform="matrix(12,0,0,12,812.4,890.5)" />
<use xlink:href="#f1_22" transform="matrix(12,0,0,12,821.9,890.5)" />
<use xlink:href="#f1_2g" transform="matrix(12,0,0,12,831.8,890.5)" />
<use xlink:href="#f1_24" transform="matrix(12,0,0,12,837.3,890.5)" />
<use xlink:href="#f1_21" transform="matrix(12,0,0,12,846.1,890.5)" />
<use xlink:href="#f1_2c" transform="matrix(12,0,0,12,55,911.4)" />
<use xlink:href="#f1_28" transform="matrix(12,0,0,12,64.6,911.4)" />
<use xlink:href="#f1_1x" transform="matrix(12,0,0,12,69,911.4)" />
<use xlink:href="#f1_2a" transform="matrix(12,0,0,12,77.4,911.4)" />
<use xlink:href="#f1_2g" transform="matrix(12,0,0,12,86.2,911.4)" />
<use xlink:href="#f1_i" transform="matrix(12,0,0,12,91.6,911.4)" />
<use xlink:href="#f1_1k" transform="matrix(12,0,0,12,100.9,911.4)" />
<use xlink:href="#f1_24" transform="matrix(12,0,0,12,112.2,911.4)" />
<use xlink:href="#f1_21" transform="matrix(12,0,0,12,121,911.4)" />
<use xlink:href="#f1_23" transform="matrix(12,0,0,12,133.9,911.4)" />
<use xlink:href="#f1_1x" transform="matrix(12,0,0,12,143,911.4)" />
<use xlink:href="#f1_29" transform="matrix(12,0,0,12,151.5,911.4)" />
<use xlink:href="#f1_21" transform="matrix(12,0,0,12,165,911.4)" />
<use xlink:href="#f1_2g" transform="matrix(12,0,0,12,173.1,911.4)" />
<use xlink:href="#f1_2b" transform="matrix(12,0,0,12,178.6,911.4)" />
<use xlink:href="#f1_2c" transform="matrix(12,0,0,12,188.1,911.4)" />
<use xlink:href="#f1_24" transform="matrix(12,0,0,12,197.2,911.4)" />
<use xlink:href="#f1_2l" transform="matrix(12,0,0,12,206.4,911.4)" />
<use xlink:href="#f1_25" transform="matrix(12,0,0,12,215.2,911.4)" />
<use xlink:href="#f1_1z" transform="matrix(12,0,0,12,220,911.4)" />
<use xlink:href="#f1_2c" transform="matrix(12,0,0,12,232.8,911.4)" />
<use xlink:href="#f1_24" transform="matrix(12,0,0,12,242.3,911.4)" />
<use xlink:href="#f1_1x" transform="matrix(12,0,0,12,251.1,911.4)" />
<use xlink:href="#f1_2f" transform="matrix(12,0,0,12,259.5,911.4)" />
<use xlink:href="#f1_21" transform="matrix(12,0,0,12,266.5,911.4)" />
<use xlink:href="#f1_25" transform="matrix(12,0,0,12,279.7,911.4)" />
<use xlink:href="#f1_2f" transform="matrix(12,0,0,12,284.4,911.4)" />
<use xlink:href="#f1_2e" transform="matrix(12,0,0,12,296.2,911.4)" />
<use xlink:href="#f1_21" transform="matrix(12,0,0,12,302.4,911.4)" />
<use xlink:href="#f1_2c" transform="matrix(12,0,0,12,310.4,911.4)" />
<use xlink:href="#f1_2e" transform="matrix(12,0,0,12,319.6,911.4)" />
<use xlink:href="#f1_21" transform="matrix(12,0,0,12,325.8,911.4)" />
<use xlink:href="#f1_2f" transform="matrix(12,0,0,12,333.9,911.4)" />
<use xlink:href="#f1_21" transform="matrix(12,0,0,12,340.9,911.4)" />
<use xlink:href="#f1_2a" transform="matrix(12,0,0,12,348.9,911.4)" />
<use xlink:href="#f1_2g" transform="matrix(12,0,0,12,357.7,911.4)" />
<use xlink:href="#f1_21" transform="matrix(12,0,0,12,363.5,911.4)" />
<use xlink:href="#f1_20" transform="matrix(12,0,0,12,371.6,911.4)" />
<use xlink:href="#f1_1y" transform="matrix(12,0,0,12,385.5,911.4)" />
<use xlink:href="#f1_2l" transform="matrix(12,0,0,12,394.7,911.4)" />
<use xlink:href="#f1_2b" transform="matrix(12,0,0,12,407.8,911.4)" />
<use xlink:href="#f1_2a" transform="matrix(12,0,0,12,417.4,911.4)" />
<use xlink:href="#f1_21" transform="matrix(12,0,0,12,426.5,911.4)" />
<use xlink:href="#f1_2g" transform="matrix(12,0,0,12,439.3,911.4)" />
<use xlink:href="#f1_2b" transform="matrix(12,0,0,12,444.4,911.4)" />
<use xlink:href="#f1_22" transform="matrix(12,0,0,12,458.4,911.4)" />
<use xlink:href="#f1_21" transform="matrix(12,0,0,12,463.9,911.4)" />
<use xlink:href="#f1_2j" transform="matrix(12,0,0,12,472,911.4)" />
<use xlink:href="#f1_1z" transform="matrix(12,0,0,12,489.9,911.4)" />
<use xlink:href="#f1_21" transform="matrix(12,0,0,12,498,911.4)" />
<use xlink:href="#f1_28" transform="matrix(12,0,0,12,506.4,911.4)" />
<use xlink:href="#f1_28" transform="matrix(12,0,0,12,511.5,911.4)" />
<use xlink:href="#f1_21" transform="matrix(12,0,0,12,516.3,911.4)" />
<use xlink:href="#f1_20" transform="matrix(12,0,0,12,524.4,911.4)" />
<use xlink:href="#f1_24" transform="matrix(12,0,0,12,538.3,911.4)" />
<use xlink:href="#f1_1x" transform="matrix(12,0,0,12,547.4,911.4)" />
<use xlink:href="#f1_2c" transform="matrix(12,0,0,12,555.5,911.4)" />
<use xlink:href="#f1_28" transform="matrix(12,0,0,12,565,911.4)" />
<use xlink:href="#f1_2b" transform="matrix(12,0,0,12,569.4,911.4)" />
<use xlink:href="#f1_25" transform="matrix(12,0,0,12,579.3,911.4)" />
<use xlink:href="#f1_20" transform="matrix(12,0,0,12,583.7,911.4)" />
<use xlink:href="#f1_23" transform="matrix(12,0,0,12,597.9,911.4)" />
<use xlink:href="#f1_1x" transform="matrix(12,0,0,12,607,911.4)" />
<use xlink:href="#f1_29" transform="matrix(12,0,0,12,615.5,911.4)" />
<use xlink:href="#f1_21" transform="matrix(12,0,0,12,629.4,911.4)" />
<use xlink:href="#f1_2g" transform="matrix(12,0,0,12,637.5,911.4)" />
<use xlink:href="#f1_2b" transform="matrix(12,0,0,12,642.9,911.4)" />
<use xlink:href="#f1_2c" transform="matrix(12,0,0,12,652.5,911.4)" />
<use xlink:href="#f1_24" transform="matrix(12,0,0,12,661.6,911.4)" />
<use xlink:href="#f1_2l" transform="matrix(12,0,0,12,670.8,911.4)" />
<use xlink:href="#f1_2g" transform="matrix(12,0,0,12,679.2,911.4)" />
<use xlink:href="#f1_21" transform="matrix(12,0,0,12,684.7,911.4)" />
<use xlink:href="#f1_i" transform="matrix(12,0,0,12,692.8,911.4)" />
<use xlink:href="#f1_18" transform="matrix(12,0,0,12,55,932.7)" />
<use xlink:href="#f1_21" transform="matrix(12,0,0,12,68.3,932.7)" />
<use xlink:href="#f1_2e" transform="matrix(12,0,0,12,76.3,932.7)" />
<use xlink:href="#f1_21" transform="matrix(12,0,0,12,82.5,932.7)" />
<use xlink:href="#f0_2f" transform="matrix(12,0,0,12,95.4,932.7)" />
<use xlink:href="#f0_2c" transform="matrix(12,0,0,12,102.3,932.7)" />
<use xlink:href="#f0_2b" transform="matrix(12,0,0,12,112.6,932.7)" />
<use xlink:href="#f0_2e" transform="matrix(12,0,0,12,121.8,932.7)" />
<use xlink:href="#f0_2b" transform="matrix(12,0,0,12,129.5,932.7)" />
<use xlink:href="#f0_2c" transform="matrix(12,0,0,12,138.6,932.7)" />
<use xlink:href="#f0_24" transform="matrix(12,0,0,12,148.9,932.7)" />
<use xlink:href="#f0_2l" transform="matrix(12,0,0,12,159.1,932.7)" />
<use xlink:href="#f0_2g" transform="matrix(12,0,0,12,168.3,932.7)" />
<use xlink:href="#f0_25" transform="matrix(12,0,0,12,174.5,932.7)" />
<use xlink:href="#f0_1z" transform="matrix(12,0,0,12,179.6,932.7)" />
<use xlink:href="#f0_2c" transform="matrix(12,0,0,12,192.4,932.7)" />
<use xlink:href="#f0_24" transform="matrix(12,0,0,12,202.7,932.7)" />
<use xlink:href="#f0_1x" transform="matrix(12,0,0,12,212.9,932.7)" />
<use xlink:href="#f0_2f" transform="matrix(12,0,0,12,222.1,932.7)" />
<use xlink:href="#f0_21" transform="matrix(12,0,0,12,229.1,932.7)" />
<use xlink:href="#f0_25" transform="matrix(12,0,0,12,242.1,932.7)" />
<use xlink:href="#f0_2f" transform="matrix(12,0,0,12,247.2,932.7)" />
<use xlink:href="#f0_20" transform="matrix(12,0,0,12,259,932.7)" />
<use xlink:href="#f0_2b" transform="matrix(12,0,0,12,269.2,932.7)" />
<use xlink:href="#f0_29" transform="matrix(12,0,0,12,278.4,932.7)" />
<use xlink:href="#f0_25" transform="matrix(12,0,0,12,293.4,932.7)" />
<use xlink:href="#f0_2a" transform="matrix(12,0,0,12,298.5,932.7)" />
<use xlink:href="#f0_1x" transform="matrix(12,0,0,12,308.8,932.7)" />
<use xlink:href="#f0_2a" transform="matrix(12,0,0,12,318,932.7)" />
<use xlink:href="#f0_2g" transform="matrix(12,0,0,12,328.2,932.7)" />
<use xlink:href="#f1_i" transform="matrix(12,0,0,12,334.5,932.7)" />
<use xlink:href="#f1_21" transform="matrix(12,0,0,12,343.7,932.7)" />
<use xlink:href="#f1_i" transform="matrix(12,0,0,12,351.7,932.7)" />
<use xlink:href="#f1_23" transform="matrix(12,0,0,12,356.5,932.7)" />
<use xlink:href="#f1_i" transform="matrix(12,0,0,12,365.3,932.7)" />
<use xlink:href="#f1_g" transform="matrix(12,0,0,12,370,932.7)" />
<use xlink:href="#f1_11" transform="matrix(12,0,0,12,379.2,932.7)" />
<use xlink:href="#f1_2a" transform="matrix(12,0,0,12,392,932.7)" />
<use xlink:href="#f1_23" transform="matrix(12,0,0,12,400.8,932.7)" />
<use xlink:href="#f1_25" transform="matrix(12,0,0,12,410.3,932.7)" />
<use xlink:href="#f1_2b" transform="matrix(12,0,0,12,414.7,932.7)" />
<use xlink:href="#f1_2f" transform="matrix(12,0,0,12,424.6,932.7)" />
<use xlink:href="#f1_2c" transform="matrix(12,0,0,12,431.6,932.7)" />
<use xlink:href="#f1_21" transform="matrix(12,0,0,12,440.7,932.7)" />
<use xlink:href="#f1_2e" transform="matrix(12,0,0,12,448.8,932.7)" />
<use xlink:href="#f1_29" transform="matrix(12,0,0,12,455.4,932.7)" />
<use xlink:href="#f1_2f" transform="matrix(12,0,0,12,469.3,932.7)" />
<use xlink:href="#f1_1x" transform="matrix(12,0,0,12,481,932.7)" />
<use xlink:href="#f1_2a" transform="matrix(12,0,0,12,489.1,932.7)" />
<use xlink:href="#f1_20" transform="matrix(12,0,0,12,497.9,932.7)" />
<use xlink:href="#f1_17" transform="matrix(12,0,0,12,511.8,932.7)" />
<use xlink:href="#f1_2l" transform="matrix(12,0,0,12,525.4,932.7)" />
<use xlink:href="#f1_29" transform="matrix(12,0,0,12,534.5,932.7)" />
<use xlink:href="#f1_2a" transform="matrix(12,0,0,12,548.5,932.7)" />
<use xlink:href="#f1_2b" transform="matrix(12,0,0,12,557.3,932.7)" />
<use xlink:href="#f1_2f" transform="matrix(12,0,0,12,566.8,932.7)" />
<use xlink:href="#f1_2c" transform="matrix(12,0,0,12,573.7,932.7)" />
<use xlink:href="#f1_21" transform="matrix(12,0,0,12,582.9,932.7)" />
<use xlink:href="#f1_2e" transform="matrix(12,0,0,12,591,932.7)" />
<use xlink:href="#f1_29" transform="matrix(12,0,0,12,597.6,932.7)" />
<use xlink:href="#f1_2f" transform="matrix(12,0,0,12,611.5,932.7)" />
<use xlink:href="#f1_i" transform="matrix(12,0,0,12,618.8,932.7)" />
</g>
</g>
<image preserveAspectRatio="none" x="57" y="55" width="536" height="422" xlink:href="img/1.png" />
<image preserveAspectRatio="none" x="57" y="646" width="236" height="227" xlink:href="img/2.png" />
<image preserveAspectRatio="none" x="57" y="937" width="276" height="266" xlink:href="img/3.png" />
<g fill="#000000" >
<use xlink:href="#f3_l" transform="matrix(8,0,0,8,785.7,1264.1)" />
<use xlink:href="#f3_s" transform="matrix(8,0,0,8,792.5,1264.1)" />
</g>
<defs>
<path d="M342,-14c0,0,-138,0,-276,29L57,258h69L165,96c0,0,65,-36,136,-36c0,0,90,0,141,58c0,0,50,57,50,161c0,0,0,91,-40,139c0,0,-41,48,-132,54l-87,5v90l84,6c0,0,66,5,98,49c0,0,32,44,32,134c0,0,0,83,-38,131c0,0,-38,48,-107,48c0,0,-40,0,-66,-13c0,0,-26,-12,-49,-26L155,751H90V979c0,0,76,19,132,26c0,0,55,6,108,6c0,0,337,0,337,-246c0,0,0,-102,-54,-164c0,0,-54,-63,-153,-78c0,0,252,-30,252,-251c0,0,0,-136,-98,-211c0,0,-98,-75,-272,-75Z" 
id="f0_n"
transform="scale(0.001,-0.001)" />

<path d="M191,-20c0,0,-51,0,-88,34c0,0,-36,36,-36,88c0,0,0,52,36,88c0,0,36,36,88,36c0,0,51,0,88,-36c0,0,36,-36,36,-88c0,0,0,-51,-36,-87c0,0,-36,-35,-88,-35Z" 
id="f0_i"
transform="scale(0.001,-0.001)" />

<path d="M404,60c0,0,54,0,75,59c0,0,21,59,21,177c0,0,0,106,-29,162c0,0,-29,57,-87,57c0,0,-55,0,-112,-17v-4c0,0,0,-434,132,-434Zm3,-74c0,0,-172,0,-263,130c0,0,-92,130,-92,378c0,0,0,161,48,278c0,0,48,117,135,178c0,0,87,61,199,61c0,0,117,0,225,-32V751H594L562,896c0,0,-52,39,-113,39c0,0,-75,0,-121,-95c0,0,-47,-96,-55,-267c0,0,81,35,161,35c0,0,137,0,211,-77c0,0,74,-77,74,-220c0,0,0,-158,-81,-242c0,0,-81,-83,-231,-83Z" 
id="f0_q"
transform="scale(0.001,-0.001)" />

<path d="M639,416L478,858L313,416ZM647,0V54L762,74L667,333H283L191,74L319,54V0H15V54L90,74l355,935H662L1016,74l76,-20V0Z" 
id="f0_11"
transform="scale(0.001,-0.001)" />

<path d="M30,0V49l76,18V992l-72,18v50H322V67L398,49V0Z" 
id="f0_28"
transform="scale(0.001,-0.001)" />

<path d="M327,-14c0,0,-101,0,-156,45c0,0,-55,45,-55,131V624H25v48l108,29l87,159H332V701H480V624H332V176c0,0,0,-49,20,-73c0,0,20,-25,53,-25c0,0,40,0,97,12V26c0,0,-22,-15,-76,-27c0,0,-55,-13,-99,-13Z" 
id="f0_2g"
transform="scale(0.001,-0.001)" />

<path d="M434,423c0,0,0,101,-7,142c0,0,-6,40,-22,60c0,0,-16,19,-45,19c0,0,-44,0,-66,-48c0,0,-22,-49,-22,-173ZM389,-14c0,0,-172,0,-254,89c0,0,-83,90,-83,279c0,0,0,184,79,274c0,0,79,91,238,91c0,0,142,0,206,-76c0,0,64,-76,64,-237V345H271V333c0,0,0,-111,18,-158c0,0,18,-47,58,-72c0,0,40,-25,110,-25c0,0,66,0,166,22V42C623,42,582,18,517,1c0,0,-66,-15,-128,-15Z" 
id="f0_21"
transform="scale(0.001,-0.001)" />

<path d="M41,0V49l91,18V634L41,652v49H336l8,-145c0,0,80,89,144,128c0,0,64,40,117,40h40V468H604l-45,94c0,0,-47,0,-106,-21c0,0,-60,-20,-105,-48V67L460,49V0Z" 
id="f0_2e"
transform="scale(0.001,-0.001)" />

<path d="M41,0V49l69,18V634L41,652v49H313l11,-61l50,26c0,0,105,54,188,54c0,0,194,0,194,-207V67L827,49V0H478V49l63,18V484c0,0,0,63,-27,98c0,0,-26,35,-75,35c0,0,-57,0,-114,-25V67L389,49V0Z" 
id="f0_2a"
transform="scale(0.001,-0.001)" />

<path d="M345,75c0,0,50,0,110,26V351l-63,-2c0,0,-72,-3,-100,-38c0,0,-28,-35,-28,-113c0,0,0,-63,22,-93c0,0,23,-30,59,-30ZM266,-14c0,0,-217,0,-217,208c0,0,0,79,32,126c0,0,32,48,93,71c0,0,60,22,190,25l91,2V521c0,0,0,126,-104,126c0,0,-62,0,-140,-39L183,521H134V691c0,0,112,17,165,21c0,0,53,5,108,5c0,0,264,0,264,-194V67L741,49V0H483L466,54C466,54,408,14,361,0c0,0,-47,-14,-95,-14Z" 
id="f0_1x"
transform="scale(0.001,-0.001)" />

<path d="M34,0V49l76,18V634L38,652v49H325V67L402,49V0ZM217,831c0,0,-48,0,-81,33c0,0,-34,33,-34,82c0,0,0,48,34,81c0,0,34,33,81,33c0,0,48,0,81,-33c0,0,33,-33,33,-81c0,0,0,-47,-33,-81c0,0,-32,-34,-81,-34Z" 
id="f0_25"
transform="scale(0.001,-0.001)" />

<path d="M379,60c0,0,59,0,84,64c0,0,24,65,24,231c0,0,0,164,-24,227c0,0,-24,63,-84,63c0,0,-57,0,-80,-60c0,0,-22,-61,-22,-230c0,0,0,-173,23,-234c0,0,22,-61,79,-61Zm-2,-74c0,0,-161,0,-240,91c0,0,-79,91,-79,277c0,0,0,186,80,276c0,0,81,90,245,90c0,0,167,0,245,-93c0,0,78,-93,78,-273c0,0,0,-188,-81,-278c0,0,-81,-90,-248,-90Z" 
id="f0_2b"
transform="scale(0.001,-0.001)" />

<path d="M41,0V49l76,18V624H11v51l106,29v75c0,0,0,144,73,220c0,0,73,77,210,77c0,0,74,0,124,-15V894H476l-22,81c0,0,-18,17,-47,17c0,0,-74,0,-74,-189V701H475V624H333V67L447,49V0Z" 
id="f0_22"
transform="scale(0.001,-0.001)" />

<path d="M360,-256c0,0,108,0,167,35c0,0,59,35,59,98c0,0,0,70,-95,70H254c0,0,-65,-47,-65,-108c0,0,0,-47,46,-71c0,0,45,-24,125,-24Zm9,561c0,0,55,0,79,43c0,0,25,43,25,129c0,0,0,87,-24,127c0,0,-25,41,-80,41c0,0,-52,0,-75,-41c0,0,-24,-40,-24,-127c0,0,0,-86,23,-129c0,0,23,-43,76,-43Zm-9,-641c0,0,-153,0,-236,43c0,0,-84,44,-84,120c0,0,0,33,28,65c0,0,27,31,105,76c0,0,-44,17,-75,59c0,0,-31,43,-31,90L192,258c0,0,-133,56,-133,219c0,0,0,116,81,180c0,0,82,63,233,63c0,0,32,0,82,-6c0,0,51,-6,74,-13l168,83l26,-32L638,631c0,0,46,-57,46,-154c0,0,0,-119,-80,-182c0,0,-80,-64,-234,-64c0,0,-59,0,-114,9L238,183c0,0,1,-22,28,-41c0,0,26,-19,64,-19H493c0,0,256,0,256,-196c0,0,0,-81,-44,-139c0,0,-45,-59,-131,-92c0,0,-86,-32,-214,-32Z" 
id="f0_23"
transform="scale(0.001,-0.001)" />

<path d="M211,-20c0,0,-39,0,-64,25c0,0,-26,27,-26,64c0,0,0,38,26,64c0,0,26,26,64,26c0,0,37,0,64,-25c0,0,26,-26,26,-65c0,0,0,-37,-26,-64c0,0,-26,-25,-64,-25Zm0,556c0,0,-38,0,-64,26c0,0,-26,26,-26,64c0,0,0,37,26,64c0,0,25,27,64,27c0,0,38,0,64,-27c0,0,26,-27,26,-64c0,0,0,-38,-26,-64c0,0,-27,-26,-64,-26Z" 
id="f1_u"
transform="scale(0.001,-0.001)" />

<path d="M235,0V40L394,60V936H356c0,0,-189,0,-258,-15L78,766H28v234H908V766H857L837,921c0,0,-22,5,-98,9c0,0,-75,4,-165,4H538V60L697,40V0Z" 
id="f1_1k"
transform="scale(0.001,-0.001)" />

<path d="M442,0V33l93,19V504c0,0,0,129,-124,129c0,0,-70,0,-168,-22V52L338,33V0H31V33l88,19v956L15,1026v34H243V756c0,0,0,-77,-5,-112c0,0,54,31,122,53c0,0,68,23,115,23c0,0,91,0,137,-53c0,0,47,-53,47,-154V52L744,33V0Z" 
id="f1_24"
transform="scale(0.001,-0.001)" />

<path d="M495,413c0,0,0,133,-34,190c0,0,-34,57,-105,57c0,0,-78,0,-119,-63c0,0,-42,-62,-42,-184ZM374,-14c0,0,-163,0,-239,87c0,0,-75,88,-75,283c0,0,0,183,77,273c0,0,76,91,219,91c0,0,269,0,269,-306V353H194V340c0,0,0,-103,23,-160c0,0,22,-57,70,-87c0,0,47,-29,124,-29c0,0,40,0,96,6c0,0,55,7,91,15V43C598,43,562,20,500,3c0,0,-61,-17,-126,-17Z" 
id="f1_21"
transform="scale(0.001,-0.001)" />

<path d="M31,0V33l88,19V649L31,668v33H235l7,-87c0,0,44,37,121,71c0,0,76,35,121,35h11V530H463l-43,82c0,0,-37,0,-88,-10c0,0,-52,-10,-89,-26V52L363,33V0Z" 
id="f1_2e"
transform="scale(0.001,-0.001)" />

<path d="M32,0V33L151,52V649L52,668v33H275V52L395,33V0ZM201,850c0,0,-32,0,-56,24c0,0,-24,24,-24,56c0,0,0,34,24,58c0,0,24,24,56,24c0,0,34,0,58,-24c0,0,24,-24,24,-58c0,0,0,-32,-24,-56c0,0,-24,-24,-58,-24Z" 
id="f1_25"
transform="scale(0.001,-0.001)" />

<path d="M278,-14c0,0,-52,0,-115,11c0,0,-63,10,-99,23V193H98L134,95c0,0,56,-50,146,-50c0,0,144,0,144,123c0,0,0,91,-114,130l-66,21c0,0,-75,25,-110,50c0,0,-34,26,-53,63c0,0,-18,36,-18,89c0,0,0,92,63,145c0,0,63,54,170,54c0,0,77,0,193,-23V544H454l-32,81c0,0,-39,35,-124,35c0,0,-61,0,-92,-30c0,0,-32,-30,-32,-80c0,0,0,-43,29,-72c0,0,28,-29,86,-48c0,0,110,-38,144,-55c0,0,33,-17,57,-42c0,0,23,-25,36,-57c0,0,13,-32,13,-79c0,0,0,-104,-66,-158c0,0,-66,-53,-195,-53Z" 
id="f1_2f"
transform="scale(0.001,-0.001)" />

<path d="M284,67c0,0,51,0,88,12c0,0,37,12,74,30V358l-98,-3c0,0,-100,-4,-135,-39c0,0,-35,-35,-35,-117c0,0,0,-132,106,-132ZM233,-14c0,0,-179,0,-179,208c0,0,0,70,27,116c0,0,27,46,87,70c0,0,60,24,173,27l105,3V519c0,0,0,72,-26,107c0,0,-27,34,-82,34c0,0,-75,0,-137,-35L176,538H134V691c0,0,121,26,213,26c0,0,115,0,169,-47c0,0,54,-47,54,-144V52L657,33V0H465L451,70c0,0,-85,-84,-218,-84Z" 
id="f1_1x"
transform="scale(0.001,-0.001)" />

<path d="M439,0V33l93,19V500c0,0,0,62,-30,97c0,0,-31,36,-94,36c0,0,-67,0,-165,-22V52L338,33V0H35V33l84,19V649L35,668v33H235l7,-57c0,0,57,33,122,54c0,0,65,22,108,22c0,0,91,0,137,-53c0,0,47,-53,47,-154V52L741,33V0Z" 
id="f1_2a"
transform="scale(0.001,-0.001)" />

<path d="M31,0V33L150,52v956L31,1026v34H274V52L394,33V0Z" 
id="f1_28"
transform="scale(0.001,-0.001)" />

<path d="M249,-14c0,0,-71,0,-107,42c0,0,-35,42,-35,119V639H15v33l93,29l76,159h47V701H391V639H231V161c0,0,0,-48,22,-73c0,0,22,-24,57,-24c0,0,44,0,106,12V26C416,26,389,8,340,-2c0,0,-49,-12,-91,-12Z" 
id="f1_2g"
transform="scale(0.001,-0.001)" />

<path d="M377,45c0,0,99,0,147,73c0,0,47,73,47,237c0,0,0,161,-47,233c0,0,-47,72,-147,72c0,0,-97,0,-141,-69c0,0,-44,-69,-44,-236c0,0,0,-169,45,-240c0,0,44,-70,140,-70Zm0,-59c0,0,-158,0,-238,94c0,0,-81,95,-81,274c0,0,0,178,81,272c0,0,80,94,244,94c0,0,160,0,241,-92c0,0,82,-92,82,-274c0,0,0,-368,-329,-368Z" 
id="f1_2b"
transform="scale(0.001,-0.001)" />

<path d="M64,0V34L168,59V639H47v36l121,29v49c0,0,0,155,61,239c0,0,62,84,173,84c0,0,58,0,107,-15V908H472l-33,92c0,0,-26,16,-62,16c0,0,-47,0,-66,-42c0,0,-19,-42,-19,-157V701H478V639H292V59L443,34V0Z" 
id="f1_22"
transform="scale(0.001,-0.001)" />

<path d="M382,45c0,0,188,0,188,314c0,0,0,143,-47,213c0,0,-46,69,-141,69c0,0,-87,0,-146,-24V58c0,0,67,-13,146,-13ZM25,-325v35l88,18V649L34,668v33H231l1,-41c0,0,31,27,84,43c0,0,53,17,107,17c0,0,134,0,208,-94c0,0,73,-93,73,-267c0,0,0,-178,-80,-276c0,0,-80,-97,-232,-97c0,0,-84,0,-160,16c0,0,4,-53,4,-84V-272l123,-18v-35Z" 
id="f1_2c"
transform="scale(0.001,-0.001)" />

<path d="M383,64c0,0,85,0,152,28V645c0,0,-67,13,-152,13c0,0,-194,0,-194,-314c0,0,0,-141,48,-211c0,0,48,-69,146,-69ZM342,-14c0,0,-287,0,-287,358c0,0,0,184,82,280c0,0,81,96,239,96c0,0,81,0,163,-18c0,0,-4,25,-4,124v182l-118,18v34H659V52L745,33V0H548l-9,52c0,0,-84,-66,-197,-66Z" 
id="f1_20"
transform="scale(0.001,-0.001)" />

<path d="M359,-270c0,0,124,0,192,46c0,0,67,47,67,129c0,0,0,43,-26,67c0,0,-26,24,-79,24H242c0,0,-32,-27,-51,-69c0,0,-20,-41,-20,-77c0,0,0,-64,46,-92c0,0,46,-28,142,-28Zm11,561c0,0,81,0,115,47c0,0,34,47,34,141c0,0,0,100,-35,142c0,0,-35,42,-113,42c0,0,-78,0,-114,-43c0,0,-37,-42,-37,-141c0,0,0,-98,36,-143c0,0,36,-45,114,-45ZM359,-329c0,0,-143,0,-218,44c0,0,-75,43,-75,125c0,0,0,39,27,78c0,0,26,38,98,89c0,0,-43,14,-72,48c0,0,-29,35,-29,74L208,262c0,0,-118,55,-118,217c0,0,0,115,73,178c0,0,73,63,211,63c0,0,28,0,71,-6c0,0,44,-6,67,-13l165,83l26,-32L599,644c0,0,50,-56,50,-165c0,0,0,-120,-72,-182c0,0,-73,-62,-208,-62c0,0,-62,0,-114,11L208,148c0,0,2,-13,29,-24c0,0,27,-12,67,-12H512c0,0,113,0,168,-49c0,0,55,-49,55,-134c0,0,0,-79,-44,-137c0,0,-43,-58,-128,-90c0,0,-84,-31,-204,-31Z" 
id="f1_23"
transform="scale(0.001,-0.001)" />

<path d="M431,0V33L535,52V499c0,0,0,62,-32,96c0,0,-32,33,-95,33c0,0,-66,0,-163,-22V52L350,33V0H32V33l89,19V649L32,668v33H237l6,-57c0,0,56,32,119,54c0,0,62,22,110,22c0,0,52,0,95,-20c0,0,44,-19,66,-62c0,0,57,32,134,57c0,0,77,25,128,25c0,0,179,0,179,-207V52l90,-19V0H846V33L950,52V499c0,0,0,129,-119,129c0,0,-19,0,-45,-3c0,0,-26,-3,-52,-7c0,0,-25,-4,-49,-8c0,0,-23,-5,-39,-8c0,0,13,-41,13,-89V52L764,33V0Z" 
id="f1_29"
transform="scale(0.001,-0.001)" />

<path d="M289,-14c0,0,-179,0,-179,205V649L20,668v33H233V200c0,0,0,-128,120,-128c0,0,92,0,173,23V649L420,668v33H649V52L738,33V0H533l-6,57C527,57,474,28,405,7c0,0,-69,-21,-116,-21Z" 
id="f1_2h"
transform="scale(0.001,-0.001)" />

<path d="M399,-14c0,0,-341,0,-341,370c0,0,0,175,87,269c0,0,87,95,249,95c0,0,101,0,220,-23V501H573L541,625c0,0,-62,35,-149,35c0,0,-200,0,-200,-304c0,0,0,-158,61,-225c0,0,61,-67,189,-67c0,0,109,0,189,24V43C631,43,595,16,530,1c0,0,-64,-15,-131,-15Z" 
id="f1_1z"
transform="scale(0.001,-0.001)" />

<path d="M148,-329c0,0,-58,0,-114,13v151H69l24,-71c0,0,23,-17,64,-17c0,0,39,0,72,22c0,0,33,23,60,67c0,0,27,44,68,157L90,649L19,668v33H344V668L233,648L423,158L606,649L497,668v33H758V668L685,652L411,-43c0,0,-48,-124,-84,-177c0,0,-36,-54,-79,-82c0,0,-44,-27,-100,-27Z" 
id="f1_2l"
transform="scale(0.001,-0.001)" />

<path d="M191,-20c0,0,-39,0,-65,25c0,0,-25,27,-25,64c0,0,0,38,26,64c0,0,26,26,64,26c0,0,38,0,64,-26c0,0,26,-26,26,-64c0,0,0,-37,-25,-64c0,0,-26,-25,-65,-25Z" 
id="f1_i"
transform="scale(0.001,-0.001)" />

<path d="M57,302V417H454V302Z" 
id="f1_h"
transform="scale(0.001,-0.001)" />

<path d="M122,0V64L295,82V837L123,780v64l282,165H511V82L685,64V0Z" 
id="f0_l"
transform="scale(0.001,-0.001)" />

<path d="M26,0V55L154,74V926L26,946v54H518V946L389,926V555H798V926L670,946v54h493V946L1034,926V74L1163,55V0H670V55L798,74V473H389V74L518,55V0Z" 
id="f0_18"
transform="scale(0.001,-0.001)" />

<path d="M438,65c0,0,131,0,131,293c0,0,0,279,-130,279c0,0,-69,0,-127,-29V80c0,0,60,-15,126,-15ZM20,-325v50l76,18V634L19,652v49H304l1,-36c0,0,80,55,194,55c0,0,146,0,218,-86c0,0,71,-86,71,-271c0,0,0,-183,-83,-280c0,0,-83,-97,-238,-97c0,0,-79,0,-160,19c0,0,5,-48,5,-109V-257l103,-18v-50Z" 
id="f0_2c"
transform="scale(0.001,-0.001)" />

<path d="M425,-14c0,0,-187,0,-280,90c0,0,-93,90,-93,276c0,0,0,115,42,198c0,0,43,82,121,126c0,0,78,44,182,44c0,0,104,0,227,-26V486H571L539,609c0,0,-25,19,-50,26c0,0,-24,7,-65,7c0,0,-44,0,-79,-35c0,0,-36,-35,-56,-98c0,0,-20,-64,-20,-153c0,0,0,-150,47,-214c0,0,47,-64,148,-64c0,0,103,0,176,21V42C640,42,606,15,547,0c0,0,-59,-14,-122,-14Z" 
id="f0_1z"
transform="scale(0.001,-0.001)" />

<path d="M159,-329c0,0,-61,0,-123,14v180H81l32,-94c0,0,21,-17,55,-17c0,0,28,0,50,13c0,0,21,14,40,39c0,0,20,25,37,62c0,0,17,37,50,110L64,634L15,652v49H374V652L290,632L455,244L602,634l-82,18v49H749V652L698,637L421,-44c0,0,-47,-121,-83,-176c0,0,-36,-55,-80,-82c0,0,-43,-27,-99,-27Z" 
id="f0_2l"
transform="scale(0.001,-0.001)" />

<path d="M248,-20c0,0,-52,0,-87,34c0,0,-36,36,-36,88c0,0,0,52,36,88c0,0,35,36,87,36c0,0,52,0,88,-36c0,0,36,-36,36,-88c0,0,0,-51,-36,-87c0,0,-35,-35,-88,-35Zm0,488c0,0,-52,0,-87,36c0,0,-36,36,-36,88c0,0,0,52,35,88c0,0,35,36,88,36c0,0,53,0,89,-36c0,0,35,-37,35,-88c0,0,0,-51,-36,-87c0,0,-35,-37,-88,-37Z" 
id="f0_u"
transform="scale(0.001,-0.001)" />

<path d="M55,0V40L184,60V941L55,960v40H455V960L327,941V60L455,40V0Z" 
id="f1_19"
transform="scale(0.001,-0.001)" />

<path d="M58,-234v58c0,0,131,42,131,125c0,0,0,15,-11,27c0,0,-11,12,-38,25C140,1,89,27,89,75c0,0,0,40,25,61c0,0,26,21,65,21c0,0,48,0,77,-34c0,0,30,-34,30,-86c0,0,0,-101,-60,-170c0,0,-59,-69,-168,-101Z" 
id="f1_g"
transform="scale(0.001,-0.001)" />

<path d="M360,-14L72,649L0,668v33H327V668L216,648L420,164L615,649L504,668v33H764V668L697,652L416,-14Z" 
id="f1_2i"
transform="scale(0.001,-0.001)" />

<path d="M376,50c0,0,103,0,149,80c0,0,46,81,46,240c0,0,0,137,-47,204c0,0,-48,67,-148,67c0,0,-44,0,-87,-7c0,0,-44,-8,-63,-17V62c0,0,63,-12,150,-12Zm3,-64c0,0,-64,0,-141,14c0,0,-78,14,-136,37v971L0,1026v34H226V809c0,0,0,-40,-4,-148c0,0,74,59,188,59c0,0,143,0,219,-87c0,0,77,-87,77,-263c0,0,0,-189,-84,-287c0,0,-84,-97,-243,-97Z" 
id="f1_1y"
transform="scale(0.001,-0.001)" />

<path d="M41,0V34L426,641H261c0,0,-42,0,-80,-7c0,0,-39,-7,-54,-19L104,515H69V701H586V665L201,60H407c0,0,42,0,89,10c0,0,47,10,66,25l39,147h35L617,0Z" 
id="f1_2m"
transform="scale(0.001,-0.001)" />

<path d="M327,-14L84,649L1,668v33H335V668L219,648L385,174L554,632h63L786,171L944,649L830,668v33h267V668l-78,-16L784,-14H726L553,448L382,-14Z" 
id="f1_2j"
transform="scale(0.001,-0.001)" />

<path d="M73,0V70L634,936H448c0,0,-185,0,-254,-15L171,764H119v236H800V936L236,63H452c0,0,87,0,176,8c0,0,89,8,125,16l44,191h53L830,0Z" 
id="f1_1q"
transform="scale(0.001,-0.001)" />

<path d="M41,0V49l69,18V992l-72,18v50H325V756c0,0,0,-49,-4,-116l51,26c0,0,106,54,190,54c0,0,194,0,194,-207V67L827,49V0H478V49l63,18V484c0,0,0,63,-27,98c0,0,-26,35,-75,35c0,0,-57,0,-114,-25V67L389,49V0Z" 
id="f0_24"
transform="scale(0.001,-0.001)" />

<path d="M614,-14c0,0,-163,0,-285,59c0,0,-122,60,-188,174c0,0,-66,114,-66,269c0,0,0,252,143,387c0,0,144,136,410,136c0,0,65,0,118,-5c0,0,54,-5,100,-14c0,0,46,-9,170,-44V718H949L931,848c0,0,-59,40,-130,62c0,0,-71,23,-146,23c0,0,-174,0,-253,-108c0,0,-80,-108,-80,-335c0,0,0,-211,84,-319c0,0,84,-108,243,-108c0,0,87,0,165,26V377L686,397v55h461V397l-98,-20V52C1049,52,956,22,834,4C834,4,712,-14,614,-14Z" 
id="f0_17"
transform="scale(0.001,-0.001)" />

<path d="M41,0V49l69,18V634L41,652v49H313l11,-61l50,26c0,0,105,54,188,54c0,0,125,0,167,-91c0,0,153,91,258,91c0,0,189,0,189,-207V67l71,-17V0H898V50l63,17V484c0,0,0,63,-24,98c0,0,-25,35,-74,35c0,0,-55,0,-119,-31c0,0,7,-32,7,-73V67L821,50V0H473V50l63,17V484c0,0,0,63,-25,98c0,0,-24,35,-73,35c0,0,-49,0,-113,-29V67L389,49V0Z" 
id="f0_29"
transform="scale(0.001,-0.001)" />

<path d="M276,-14c0,0,-57,0,-125,13C151,-1,83,10,48,23V214H97l28,-98c0,0,26,-26,69,-44c0,0,42,-17,86,-17c0,0,65,0,97,28c0,0,32,28,32,71c0,0,0,41,-31,65c0,0,-30,25,-133,57c0,0,-108,34,-154,92c0,0,-45,58,-45,143c0,0,0,95,71,152c0,0,71,57,183,57c0,0,77,0,207,-22V518H457l-24,82c0,0,-21,22,-60,35c0,0,-40,14,-75,14c0,0,-53,0,-79,-22c0,0,-26,-22,-26,-59c0,0,0,-40,32,-65c0,0,32,-26,132,-55c0,0,109,-34,155,-89c0,0,45,-55,45,-137c0,0,0,-117,-72,-177c0,0,-72,-59,-209,-59Z" 
id="f0_2f"
transform="scale(0.001,-0.001)" />

<path d="M416,68c0,0,60,0,124,32V628c0,0,-58,15,-118,15c0,0,-67,0,-104,-73c0,0,-38,-73,-38,-216c0,0,0,-139,36,-212c0,0,35,-74,100,-74ZM369,-14c0,0,-155,0,-231,88c0,0,-76,90,-76,274c0,0,0,182,82,277c0,0,81,95,236,95c0,0,82,0,165,-20c0,0,-5,24,-5,115V992l-72,18v50H756V67L833,49V0H562L547,40C547,40,505,13,483,4c0,0,-23,-7,-51,-12c0,0,-28,-6,-63,-6Z" 
id="f0_20"
transform="scale(0.001,-0.001)" />

<path d="M521,-14c0,0,-205,0,-320,107C201,93,85,200,85,390c0,0,0,185,77,326c0,0,77,142,220,219c0,0,142,76,324,76c0,0,158,0,327,-38L1000,755H951V884c0,0,-46,32,-112,50c0,0,-65,17,-137,17c0,0,-135,0,-242,-72c0,0,-107,-72,-166,-203c0,0,-60,-132,-60,-301c0,0,0,-160,78,-244c0,0,78,-84,222,-84c0,0,85,0,166,25c0,0,82,26,133,65l53,149h49L889,52C889,52,803,20,705,3c0,0,-99,-17,-184,-17Z" 
id="f2_13"
transform="scale(0.001,-0.001)" />

<path d="M55,0L232,1008l-88,18l6,34H365L286,615L274,558c0,0,59,79,128,120c0,0,68,42,134,42c0,0,75,0,113,-41c0,0,38,-41,38,-117c0,0,0,-10,-3,-32c0,0,-3,-21,-81,-478L700,34L695,0H470l76,434c0,0,17,94,17,123c0,0,0,34,-18,55c0,0,-18,21,-56,21c0,0,-56,0,-121,-47c0,0,-65,-47,-107,-114L178,0Z" 
id="f2_24"
transform="scale(0.001,-0.001)" />

<path d="M81,0L258,1008l-96,18l6,34H391L214,52L331,33L325,0Z" 
id="f2_28"
transform="scale(0.001,-0.001)" />

<path d="M301,78c0,0,85,0,185,104l81,442c0,0,-29,20,-55,28c0,0,-25,8,-62,8c0,0,-75,0,-137,-56c0,0,-62,-56,-98,-152c0,0,-36,-95,-36,-199c0,0,0,-79,33,-127c0,0,33,-48,89,-48ZM245,-14c0,0,-90,0,-145,66c0,0,-54,66,-54,182c0,0,0,131,57,244c0,0,57,114,152,178c0,0,96,64,208,64c0,0,90,0,170,-33l33,26h40L589,52L673,33L667,0H454l22,117C476,117,350,-14,245,-14Z" 
id="f2_1x"
transform="scale(0.001,-0.001)" />

<path d="M55,0L169,649L81,668l6,33H295L274,557c0,0,52,73,117,118c0,0,65,45,122,45c0,0,66,0,102,-42c0,0,36,-41,36,-121c0,0,51,72,115,117c0,0,64,46,123,46c0,0,63,0,99,-40c0,0,36,-40,36,-116c0,0,0,-16,-3,-42c0,0,-3,-27,-80,-470l98,-19L1032,0H808l77,434c0,0,17,90,17,124c0,0,0,34,-16,54c0,0,-15,21,-49,21c0,0,-33,0,-78,-32c0,0,-46,-31,-83,-80c0,0,-37,-49,-44,-91L558,0H434l76,434c0,0,19,98,19,124c0,0,0,34,-17,54c0,0,-16,21,-51,21c0,0,-33,0,-81,-34c0,0,-47,-33,-84,-80c0,0,-36,-48,-43,-89L179,0Z" 
id="f2_29"
transform="scale(0.001,-0.001)" />

<path d="M-15,-329c0,0,-61,0,-112,13l28,152h34l12,-72c0,0,18,-17,60,-17c0,0,100,0,212,202L253,9L116,649L33,668l6,33H230L338,155L513,458c0,0,48,83,48,144c0,0,0,27,-16,44c0,0,-15,16,-33,22l6,33H659c0,0,20,-17,20,-47c0,0,0,-59,-62,-164L322,-7c0,0,-86,-145,-135,-205c0,0,-50,-61,-98,-89c0,0,-49,-28,-104,-28Z" 
id="f2_2l"
transform="scale(0.001,-0.001)" />

<path d="M301,78c0,0,41,0,90,27c0,0,49,28,95,77l81,442c0,0,-26,18,-54,27c0,0,-27,10,-67,10c0,0,-70,0,-131,-55c0,0,-61,-55,-99,-152c0,0,-37,-97,-37,-201c0,0,0,-79,33,-127c0,0,33,-48,89,-48ZM245,-14c0,0,-91,0,-145,68c0,0,-54,69,-54,183c0,0,0,128,55,240c0,0,55,112,150,177c0,0,96,66,210,66c0,0,70,0,123,-18c0,0,3,36,51,306l-115,18l6,34H768L589,52L673,33L667,0H454l22,117C476,117,350,-14,245,-14Z" 
id="f2_20"
transform="scale(0.001,-0.001)" />

<path d="M325,47c0,0,68,0,130,54c0,0,61,55,97,149c0,0,36,94,36,202c0,0,0,103,-39,156c0,0,-39,53,-113,53c0,0,-67,0,-128,-54c0,0,-61,-55,-96,-149c0,0,-35,-94,-35,-204c0,0,0,-101,39,-154c0,0,39,-53,109,-53Zm-6,-61c0,0,-124,0,-199,79c0,0,-74,79,-74,214c0,0,0,120,51,222c0,0,51,102,143,160c0,0,91,59,205,59c0,0,124,0,199,-80c0,0,74,-79,74,-214c0,0,0,-120,-51,-222C667,204,615,102,524,43c0,0,-91,-57,-205,-57Z" 
id="f2_2b"
transform="scale(0.001,-0.001)" />

<path d="M54,0L169,649L81,668l6,33H294L274,558c0,0,62,81,130,121c0,0,67,41,132,41c0,0,75,0,113,-41c0,0,38,-41,38,-117c0,0,0,-10,-3,-32c0,0,-3,-21,-81,-478L700,34L695,0H470l76,434c0,0,17,94,17,123c0,0,0,34,-18,55c0,0,-18,21,-56,21c0,0,-56,0,-121,-47c0,0,-65,-47,-108,-117L178,0Z" 
id="f2_2a"
transform="scale(0.001,-0.001)" />

<path d="M228,-14c0,0,-103,0,-209,46L49,200H83L95,99c0,0,20,-21,55,-38c0,0,36,-16,81,-16c0,0,163,0,163,133c0,0,0,44,-35,78c0,0,-34,34,-113,72c0,0,-75,37,-112,81c0,0,-36,45,-36,104c0,0,0,99,66,153c0,0,67,54,184,54c0,0,85,0,200,-26L521,538H486l-11,80c0,0,-47,42,-124,42c0,0,-61,0,-97,-28c0,0,-37,-28,-37,-87c0,0,0,-40,31,-71c0,0,32,-30,119,-75c0,0,78,-40,113,-86c0,0,36,-47,36,-107c0,0,0,-113,-71,-167c0,0,-72,-53,-217,-53Z" 
id="f2_2f"
transform="scale(0.001,-0.001)" />

<path d="M64,0V141c0,0,64,68,119,123c0,0,119,118,174,185c0,0,56,68,81,140c0,0,26,72,26,165c0,0,0,81,-40,131c0,0,-39,50,-105,50c0,0,-46,0,-74,-10c0,0,-27,-10,-50,-29L163,751H98V979c0,0,59,13,116,23c0,0,58,9,125,9c0,0,165,0,252,-68c0,0,88,-68,88,-193c0,0,0,-78,-26,-142c0,0,-26,-64,-83,-124c0,0,-56,-61,-224,-197c0,0,-64,-52,-139,-119H698V0Z" 
id="f0_m"
transform="scale(0.001,-0.001)" />

<path d="M519,79c0,0,97,0,153,42c0,0,57,42,83,131c0,0,26,89,26,248c0,0,0,216,-79,317c0,0,-79,101,-257,101H389V85c0,0,72,-6,130,-6ZM533,-2L198,0H27V54L155,74V926L27,945v55H502c0,0,269,0,398,-122c0,0,129,-122,129,-372c0,0,0,-258,-123,-383C906,123,783,-2,533,-2Z" 
id="f0_14"
transform="scale(0.001,-0.001)" />

<path d="M44,0V40L172,60V941L44,960v40H445V960L316,941V549H787V941L659,960v40h400V960L930,941V60L1059,40V0H659V40L787,60V481H316V60L445,40V0Z" 
id="f1_18"
transform="scale(0.001,-0.001)" />

<path d="M681,416L504,902L333,416ZM669,0V40L803,60L704,348H310L210,60L344,40V0H15V40L128,60l341,949H611L965,60L1092,40V0Z" 
id="f1_11"
transform="scale(0.001,-0.001)" />

<path d="M577,-14c0,0,-243,0,-379,131C198,117,63,248,63,488c0,0,0,263,131,393c0,0,132,130,386,130c0,0,182,0,352,-45V751H882L862,875c0,0,-52,37,-124,57c0,0,-72,19,-152,19c0,0,-191,0,-279,-113c0,0,-88,-114,-88,-348c0,0,0,-220,91,-333c0,0,91,-114,269,-114c0,0,63,0,131,15c0,0,69,15,105,36V377L686,397v40h370V397L958,377V52C958,52,871,24,778,5c0,0,-93,-19,-201,-19Z" 
id="f1_17"
transform="scale(0.001,-0.001)" />

<path d="M435,0V856c0,0,-48,-47,-127,-93c0,0,-79,-46,-142,-69V824c0,0,113,52,197,128c0,0,85,75,120,146h86V0Z" 
id="f3_l"
transform="scale(0.001,-0.001)" />

<path d="M423,92c0,0,97,0,159,62c0,0,62,62,62,157c0,0,0,97,-64,160c0,0,-64,64,-161,64c0,0,-96,0,-158,-63c0,0,-62,-62,-62,-156c0,0,0,-58,27,-111c0,0,27,-54,81,-84c0,0,54,-29,116,-29Zm0,552c0,0,78,0,127,49c0,0,49,49,49,120c0,0,0,74,-50,124c0,0,-51,51,-128,51c0,0,-77,0,-127,-50c0,0,-51,-49,-51,-118c0,0,0,-77,50,-126c0,0,50,-50,130,-50ZM422,-18c0,0,-162,0,-261,95c0,0,-99,96,-99,239c0,0,0,107,54,179c0,0,54,72,154,98c0,0,-84,31,-124,87c0,0,-40,57,-40,136c0,0,0,119,85,201c0,0,86,81,229,81c0,0,143,0,230,-83c0,0,87,-83,87,-203c0,0,0,-76,-40,-132c0,0,-39,-56,-121,-87c0,0,101,-33,154,-106c0,0,52,-73,52,-174c0,0,0,-141,-99,-236c0,0,-99,-95,-261,-95Z" 
id="f3_s"
transform="scale(0.001,-0.001)" />


</defs>
</svg>