<?xml version="1.0" encoding="UTF-8" standalone="no"?>
<!DOCTYPE svg PUBLIC "-//W3C//DTD SVG 1.1//EN"
"http://www.w3.org/Graphics/SVG/1.1/DTD/svg11.dtd">
<svg viewBox="0 0 909 1286" version="1.1" xmlns="http://www.w3.org/2000/svg" xmlns:xlink="http://www.w3.org/1999/xlink">
<defs>
</defs>
<g fill="#000000" >
<use xlink:href="#f0_1g" transform="matrix(12,0,0,12,55,327.1)" />
<use xlink:href="#f0_2b" transform="matrix(12,0,0,12,65.3,327.1)" />
<use xlink:href="#f0_28" transform="matrix(12,0,0,12,74.8,327.1)" />
<use xlink:href="#f0_28" transform="matrix(12,0,0,12,79.6,327.1)" />
<use xlink:href="#f0_21" transform="matrix(12,0,0,12,84.3,327.1)" />
<use xlink:href="#f0_2a" transform="matrix(12,0,0,12,92.7,327.1)" />
<use xlink:href="#f0_23" transform="matrix(12,0,0,12,106.3,327.1)" />
<use xlink:href="#f0_2e" transform="matrix(12,0,0,12,115.5,327.1)" />
<use xlink:href="#f0_1x" transform="matrix(12,0,0,12,121.7,327.1)" />
<use xlink:href="#f0_25" transform="matrix(12,0,0,12,130.1,327.1)" />
<use xlink:href="#f0_2a" transform="matrix(12,0,0,12,134.9,327.1)" />
<use xlink:href="#f0_1x" transform="matrix(12,0,0,12,148.4,327.1)" />
<use xlink:href="#f0_2e" transform="matrix(12,0,0,12,156.5,327.1)" />
<use xlink:href="#f0_21" transform="matrix(12,0,0,12,162.7,327.1)" />
<use xlink:href="#f0_1z" transform="matrix(12,0,0,12,175.7,327.1)" />
<use xlink:href="#f0_1x" transform="matrix(12,0,0,12,183.8,327.1)" />
<use xlink:href="#f0_2e" transform="matrix(12,0,0,12,191.8,327.1)" />
<use xlink:href="#f0_2e" transform="matrix(12,0,0,12,198.1,327.1)" />
<use xlink:href="#f0_25" transform="matrix(12,0,0,12,204.6,327.1)" />
<use xlink:href="#f0_21" transform="matrix(12,0,0,12,209,327.1)" />
<use xlink:href="#f0_20" transform="matrix(12,0,0,12,217.1,327.1)" />
<use xlink:href="#f0_1y" transform="matrix(12,0,0,12,231,327.1)" />
<use xlink:href="#f0_2l" transform="matrix(12,0,0,12,240.2,327.1)" />
<use xlink:href="#f0_2i" transform="matrix(12,0,0,12,254.2,327.1)" />
<use xlink:href="#f0_1x" transform="matrix(12,0,0,12,263,327.1)" />
<use xlink:href="#f0_2e" transform="matrix(12,0,0,12,271.1,327.1)" />
<use xlink:href="#f0_25" transform="matrix(12,0,0,12,277.7,327.1)" />
<use xlink:href="#f0_2b" transform="matrix(12,0,0,12,282.1,327.1)" />
<use xlink:href="#f0_2h" transform="matrix(12,0,0,12,291.6,327.1)" />
<use xlink:href="#f0_2f" transform="matrix(12,0,0,12,300.7,327.1)" />
<use xlink:href="#f0_1x" transform="matrix(12,0,0,12,312.5,327.1)" />
<use xlink:href="#f0_23" transform="matrix(12,0,0,12,320.5,327.1)" />
<use xlink:href="#f0_21" transform="matrix(12,0,0,12,329.7,327.1)" />
<use xlink:href="#f0_2a" transform="matrix(12,0,0,12,338.1,327.1)" />
<use xlink:href="#f0_2g" transform="matrix(12,0,0,12,346.9,327.1)" />
<use xlink:href="#f0_2f" transform="matrix(12,0,0,12,352.4,327.1)" />
<use xlink:href="#f0_28" transform="matrix(12,0,0,12,364.5,327.1)" />
<use xlink:href="#f0_25" transform="matrix(12,0,0,12,369.2,327.1)" />
<use xlink:href="#f0_27" transform="matrix(12,0,0,12,373.6,327.1)" />
<use xlink:href="#f0_21" transform="matrix(12,0,0,12,383.1,327.1)" />
<use xlink:href="#f0_2j" transform="matrix(12,0,0,12,396.2,327.1)" />
<use xlink:href="#f0_25" transform="matrix(12,0,0,12,409.7,327.1)" />
<use xlink:href="#f0_2a" transform="matrix(12,0,0,12,414.5,327.1)" />
<use xlink:href="#f0_20" transform="matrix(12,0,0,12,423.6,327.1)" />
<use xlink:href="#f0_g" transform="matrix(12,0,0,12,432.8,327.1)" />
<use xlink:href="#f0_2j" transform="matrix(12,0,0,12,442.4,327.1)" />
<use xlink:href="#f0_1x" transform="matrix(12,0,0,12,455.6,327.1)" />
<use xlink:href="#f0_2g" transform="matrix(12,0,0,12,463.3,327.1)" />
<use xlink:href="#f0_21" transform="matrix(12,0,0,12,468.8,327.1)" />
<use xlink:href="#f0_2e" transform="matrix(12,0,0,12,476.8,327.1)" />
<use xlink:href="#f0_g" transform="matrix(12,0,0,12,483.1,327.1)" />
<use xlink:href="#f0_1y" transform="matrix(12,0,0,12,492.3,327.1)" />
<use xlink:href="#f0_25" transform="matrix(12,0,0,12,501.4,327.1)" />
<use xlink:href="#f0_2e" transform="matrix(12,0,0,12,505.8,327.1)" />
<use xlink:href="#f0_20" transform="matrix(12,0,0,12,512,327.1)" />
<use xlink:href="#f0_2f" transform="matrix(12,0,0,12,521.2,327.1)" />
<use xlink:href="#f0_g" transform="matrix(12,0,0,12,528.2,327.1)" />
<use xlink:href="#f0_25" transform="matrix(12,0,0,12,538.1,327.1)" />
<use xlink:href="#f0_2a" transform="matrix(12,0,0,12,542.9,327.1)" />
<use xlink:href="#f0_2f" transform="matrix(12,0,0,12,551.7,327.1)" />
<use xlink:href="#f0_21" transform="matrix(12,0,0,12,559,327.1)" />
<use xlink:href="#f0_1z" transform="matrix(12,0,0,12,567.1,327.1)" />
<use xlink:href="#f0_2g" transform="matrix(12,0,0,12,575.1,327.1)" />
<use xlink:href="#f0_2f" transform="matrix(12,0,0,12,580.6,327.1)" />
<use xlink:href="#f0_21" transform="matrix(12,0,0,12,592.3,327.1)" />
<use xlink:href="#f0_2g" transform="matrix(12,0,0,12,600.4,327.1)" />
<use xlink:href="#f0_1z" transform="matrix(12,0,0,12,605.9,327.1)" />
<use xlink:href="#f0_i" transform="matrix(12,0,0,12,613.6,327.1)" />
<use xlink:href="#f0_1x" transform="matrix(12,0,0,12,623.2,327.1)" />
<use xlink:href="#f0_2a" transform="matrix(12,0,0,12,631.2,327.1)" />
<use xlink:href="#f0_20" transform="matrix(12,0,0,12,640,327.1)" />
<use xlink:href="#f0_2e" transform="matrix(12,0,0,12,654,327.1)" />
<use xlink:href="#f0_21" transform="matrix(12,0,0,12,660.2,327.1)" />
<use xlink:href="#f0_1x" transform="matrix(12,0,0,12,668.2,327.1)" />
<use xlink:href="#f0_1z" transform="matrix(12,0,0,12,676.3,327.1)" />
<use xlink:href="#f0_24" transform="matrix(12,0,0,12,684.4,327.1)" />
<use xlink:href="#f0_21" transform="matrix(12,0,0,12,693.2,327.1)" />
<use xlink:href="#f0_2f" transform="matrix(12,0,0,12,701.2,327.1)" />
<use xlink:href="#f0_2g" transform="matrix(12,0,0,12,713.1,327.1)" />
<use xlink:href="#f0_24" transform="matrix(12,0,0,12,718.5,327.1)" />
<use xlink:href="#f0_21" transform="matrix(12,0,0,12,727.3,327.1)" />
<use xlink:href="#f0_2f" transform="matrix(12,0,0,12,740.2,327.1)" />
<use xlink:href="#f0_2g" transform="matrix(12,0,0,12,747.1,327.1)" />
<use xlink:href="#f0_25" transform="matrix(12,0,0,12,753,327.1)" />
<use xlink:href="#f0_23" transform="matrix(12,0,0,12,757.4,327.1)" />
<use xlink:href="#f0_29" transform="matrix(12,0,0,12,766.9,327.1)" />
<use xlink:href="#f0_1x" transform="matrix(12,0,0,12,780.8,327.1)" />
<use xlink:href="#f0_i" transform="matrix(12,0,0,12,788.9,327.1)" />
<use xlink:href="#f0_1g" transform="matrix(12,0,0,12,55,348.4)" />
<use xlink:href="#f0_2b" transform="matrix(12,0,0,12,65.3,348.4)" />
<use xlink:href="#f0_28" transform="matrix(12,0,0,12,74.8,348.4)" />
<use xlink:href="#f0_28" transform="matrix(12,0,0,12,79.6,348.4)" />
<use xlink:href="#f0_21" transform="matrix(12,0,0,12,84.3,348.4)" />
<use xlink:href="#f0_2a" transform="matrix(12,0,0,12,92.7,348.4)" />
<use xlink:href="#f0_23" transform="matrix(12,0,0,12,106.4,348.4)" />
<use xlink:href="#f0_2e" transform="matrix(12,0,0,12,115.5,348.4)" />
<use xlink:href="#f0_1x" transform="matrix(12,0,0,12,121.8,348.4)" />
<use xlink:href="#f0_25" transform="matrix(12,0,0,12,130.2,348.4)" />
<use xlink:href="#f0_2a" transform="matrix(12,0,0,12,134.9,348.4)" />
<use xlink:href="#f0_2f" transform="matrix(12,0,0,12,143.7,348.4)" />
<use xlink:href="#f0_2c" transform="matrix(12,0,0,12,155.5,348.4)" />
<use xlink:href="#f0_2e" transform="matrix(12,0,0,12,164.7,348.4)" />
<use xlink:href="#f0_2b" transform="matrix(12,0,0,12,170.9,348.4)" />
<use xlink:href="#f0_20" transform="matrix(12,0,0,12,180.4,348.4)" />
<use xlink:href="#f0_2h" transform="matrix(12,0,0,12,189.6,348.4)" />
<use xlink:href="#f0_1z" transform="matrix(12,0,0,12,198.8,348.4)" />
<use xlink:href="#f0_21" transform="matrix(12,0,0,12,206.8,348.4)" />
<use xlink:href="#f0_2f" transform="matrix(12,0,0,12,214.9,348.4)" />
<use xlink:href="#f0_2c" transform="matrix(12,0,0,12,226.7,348.4)" />
<use xlink:href="#f0_2b" transform="matrix(12,0,0,12,235.8,348.4)" />
<use xlink:href="#f0_28" transform="matrix(12,0,0,12,245.4,348.4)" />
<use xlink:href="#f0_28" transform="matrix(12,0,0,12,250.1,348.4)" />
<use xlink:href="#f0_21" transform="matrix(12,0,0,12,254.9,348.4)" />
<use xlink:href="#f0_2a" transform="matrix(12,0,0,12,263.3,348.4)" />
<use xlink:href="#f0_2g" transform="matrix(12,0,0,12,276.9,348.4)" />
<use xlink:href="#f0_2h" transform="matrix(12,0,0,12,282.3,348.4)" />
<use xlink:href="#f0_1y" transform="matrix(12,0,0,12,291.5,348.4)" />
<use xlink:href="#f0_21" transform="matrix(12,0,0,12,300.3,348.4)" />
<use xlink:href="#f0_2j" transform="matrix(12,0,0,12,313.2,348.4)" />
<use xlink:href="#f0_24" transform="matrix(12,0,0,12,326.5,348.4)" />
<use xlink:href="#f0_25" transform="matrix(12,0,0,12,335.6,348.4)" />
<use xlink:href="#f0_1z" transform="matrix(12,0,0,12,340.4,348.4)" />
<use xlink:href="#f0_24" transform="matrix(12,0,0,12,348.8,348.4)" />
<use xlink:href="#f0_1z" transform="matrix(12,0,0,12,362.3,348.4)" />
<use xlink:href="#f0_2b" transform="matrix(12,0,0,12,370.4,348.4)" />
<use xlink:href="#f0_2a" transform="matrix(12,0,0,12,379.9,348.4)" />
<use xlink:href="#f0_2g" transform="matrix(12,0,0,12,388.7,348.4)" />
<use xlink:href="#f0_1x" transform="matrix(12,0,0,12,394.2,348.4)" />
<use xlink:href="#f0_25" transform="matrix(12,0,0,12,402.6,348.4)" />
<use xlink:href="#f0_2a" transform="matrix(12,0,0,12,407.4,348.4)" />
<use xlink:href="#f0_2f" transform="matrix(12,0,0,12,416.2,348.4)" />
<use xlink:href="#f0_2g" transform="matrix(12,0,0,12,428.3,348.4)" />
<use xlink:href="#f0_2j" transform="matrix(12,0,0,12,433.7,348.4)" />
<use xlink:href="#f0_2b" transform="matrix(12,0,0,12,446.6,348.4)" />
<use xlink:href="#f0_29" transform="matrix(12,0,0,12,460.5,348.4)" />
<use xlink:href="#f0_1x" transform="matrix(12,0,0,12,474.4,348.4)" />
<use xlink:href="#f0_28" transform="matrix(12,0,0,12,482.8,348.4)" />
<use xlink:href="#f0_21" transform="matrix(12,0,0,12,487.6,348.4)" />
<use xlink:href="#f0_23" transform="matrix(12,0,0,12,500.4,348.4)" />
<use xlink:href="#f0_1x" transform="matrix(12,0,0,12,509.6,348.4)" />
<use xlink:href="#f0_29" transform="matrix(12,0,0,12,518,348.4)" />
<use xlink:href="#f0_21" transform="matrix(12,0,0,12,531.6,348.4)" />
<use xlink:href="#f0_2g" transform="matrix(12,0,0,12,539.6,348.4)" />
<use xlink:href="#f0_21" transform="matrix(12,0,0,12,545.1,348.4)" />
<use xlink:href="#f0_2f" transform="matrix(12,0,0,12,553.2,348.4)" />
<use xlink:href="#f0_1x" transform="matrix(12,0,0,12,564.9,348.4)" />
<use xlink:href="#f0_2a" transform="matrix(12,0,0,12,573.3,348.4)" />
<use xlink:href="#f0_20" transform="matrix(12,0,0,12,582.1,348.4)" />
<use xlink:href="#f0_21" transform="matrix(12,0,0,12,596,348.4)" />
<use xlink:href="#f0_2a" transform="matrix(12,0,0,12,604.1,348.4)" />
<use xlink:href="#f0_2g" transform="matrix(12,0,0,12,612.9,348.4)" />
<use xlink:href="#f0_21" transform="matrix(12,0,0,12,618.4,348.4)" />
<use xlink:href="#f0_2e" transform="matrix(12,0,0,12,626.4,348.4)" />
<use xlink:href="#f0_2f" transform="matrix(12,0,0,12,632.7,348.4)" />
<use xlink:href="#f0_25" transform="matrix(12,0,0,12,644.7,348.4)" />
<use xlink:href="#f0_2a" transform="matrix(12,0,0,12,649.5,348.4)" />
<use xlink:href="#f0_2g" transform="matrix(12,0,0,12,658.3,348.4)" />
<use xlink:href="#f0_2b" transform="matrix(12,0,0,12,663.8,348.4)" />
<use xlink:href="#f0_2g" transform="matrix(12,0,0,12,677.4,348.4)" />
<use xlink:href="#f0_24" transform="matrix(12,0,0,12,682.8,348.4)" />
<use xlink:href="#f0_21" transform="matrix(12,0,0,12,691.6,348.4)" />
<use xlink:href="#f0_21" transform="matrix(12,0,0,12,704.5,348.4)" />
<use xlink:href="#f0_29" transform="matrix(12,0,0,12,712.9,348.4)" />
<use xlink:href="#f0_1y" transform="matrix(12,0,0,12,726.8,348.4)" />
<use xlink:href="#f0_2e" transform="matrix(12,0,0,12,735.6,348.4)" />
<use xlink:href="#f0_2l" transform="matrix(12,0,0,12,742.2,348.4)" />
<use xlink:href="#f0_2b" transform="matrix(12,0,0,12,750.6,348.4)" />
<use xlink:href="#f0_2f" transform="matrix(12,0,0,12,764.9,348.4)" />
<use xlink:href="#f0_1x" transform="matrix(12,0,0,12,771.8,348.4)" />
<use xlink:href="#f0_1z" transform="matrix(12,0,0,12,779.9,348.4)" />
<use xlink:href="#f0_i" transform="matrix(12,0,0,12,788,348.4)" />
<use xlink:href="#f0_1f" transform="matrix(12,0,0,12,55,369.3)" />
<use xlink:href="#f0_2a" transform="matrix(12,0,0,12,68.3,369.3)" />
<use xlink:href="#f0_21" transform="matrix(12,0,0,12,77,369.3)" />
<use xlink:href="#f0_29" transform="matrix(12,0,0,12,90.2,369.3)" />
<use xlink:href="#f0_1x" transform="matrix(12,0,0,12,104.2,369.3)" />
<use xlink:href="#f0_28" transform="matrix(12,0,0,12,112.6,369.3)" />
<use xlink:href="#f0_21" transform="matrix(12,0,0,12,117.3,369.3)" />
<use xlink:href="#f0_23" transform="matrix(12,0,0,12,130.1,369.3)" />
<use xlink:href="#f0_1x" transform="matrix(12,0,0,12,139.3,369.3)" />
<use xlink:href="#f0_29" transform="matrix(12,0,0,12,147.7,369.3)" />
<use xlink:href="#f0_21" transform="matrix(12,0,0,12,161.7,369.3)" />
<use xlink:href="#f0_2g" transform="matrix(12,0,0,12,169.7,369.3)" />
<use xlink:href="#f0_21" transform="matrix(12,0,0,12,175.2,369.3)" />
<use xlink:href="#f0_22" transform="matrix(12,0,0,12,188,369.3)" />
<use xlink:href="#f0_2h" transform="matrix(12,0,0,12,193.5,369.3)" />
<use xlink:href="#f0_2f" transform="matrix(12,0,0,12,202.7,369.3)" />
<use xlink:href="#f0_21" transform="matrix(12,0,0,12,210,369.3)" />
<use xlink:href="#f0_2f" transform="matrix(12,0,0,12,218.1,369.3)" />
<use xlink:href="#f0_2j" transform="matrix(12,0,0,12,229.8,369.3)" />
<use xlink:href="#f0_25" transform="matrix(12,0,0,12,243.3,369.3)" />
<use xlink:href="#f0_2g" transform="matrix(12,0,0,12,247.7,369.3)" />
<use xlink:href="#f0_24" transform="matrix(12,0,0,12,253.2,369.3)" />
<use xlink:href="#f0_21" transform="matrix(12,0,0,12,266.8,369.3)" />
<use xlink:href="#f0_23" transform="matrix(12,0,0,12,274.8,369.3)" />
<use xlink:href="#f0_23" transform="matrix(12,0,0,12,284,369.3)" />
<use xlink:href="#f0_1z" transform="matrix(12,0,0,12,297.9,369.3)" />
<use xlink:href="#f0_21" transform="matrix(12,0,0,12,306,369.3)" />
<use xlink:href="#f0_28" transform="matrix(12,0,0,12,314.4,369.3)" />
<use xlink:href="#f0_28" transform="matrix(12,0,0,12,319.5,369.3)" />
<use xlink:href="#f0_2g" transform="matrix(12,0,0,12,328.7,369.3)" />
<use xlink:href="#f0_2b" transform="matrix(12,0,0,12,334.2,369.3)" />
<use xlink:href="#f0_22" transform="matrix(12,0,0,12,348.4,369.3)" />
<use xlink:href="#f0_2b" transform="matrix(12,0,0,12,353.9,369.3)" />
<use xlink:href="#f0_2e" transform="matrix(12,0,0,12,363.4,369.3)" />
<use xlink:href="#f0_29" transform="matrix(12,0,0,12,369.7,369.3)" />
<use xlink:href="#f0_2m" transform="matrix(12,0,0,12,388.5,369.3)" />
<use xlink:href="#f0_2l" transform="matrix(12,0,0,12,396.9,369.3)" />
<use xlink:href="#f0_23" transform="matrix(12,0,0,12,405.3,369.3)" />
<use xlink:href="#f0_2b" transform="matrix(12,0,0,12,414.5,369.3)" />
<use xlink:href="#f0_2g" transform="matrix(12,0,0,12,424,369.3)" />
<use xlink:href="#f0_21" transform="matrix(12,0,0,12,429.1,369.3)" />
<use xlink:href="#f0_1x" transform="matrix(12,0,0,12,441.9,369.3)" />
<use xlink:href="#f0_2a" transform="matrix(12,0,0,12,450,369.3)" />
<use xlink:href="#f0_20" transform="matrix(12,0,0,12,458.8,369.3)" />
<use xlink:href="#f0_25" transform="matrix(12,0,0,12,473.2,369.3)" />
<use xlink:href="#f0_2f" transform="matrix(12,0,0,12,477.9,369.3)" />
<use xlink:href="#f0_1z" transform="matrix(12,0,0,12,489.7,369.3)" />
<use xlink:href="#f0_1x" transform="matrix(12,0,0,12,497.7,369.3)" />
<use xlink:href="#f0_28" transform="matrix(12,0,0,12,506.1,369.3)" />
<use xlink:href="#f0_28" transform="matrix(12,0,0,12,510.9,369.3)" />
<use xlink:href="#f0_21" transform="matrix(12,0,0,12,515.7,369.3)" />
<use xlink:href="#f0_20" transform="matrix(12,0,0,12,524.1,369.3)" />
<use xlink:href="#f1_2f" transform="matrix(12,0,0,12,538.1,369.3)" />
<use xlink:href="#f1_2l" transform="matrix(12,0,0,12,545.1,369.3)" />
<use xlink:href="#f1_2a" transform="matrix(12,0,0,12,554.2,369.3)" />
<use xlink:href="#f1_23" transform="matrix(12,0,0,12,564.5,369.3)" />
<use xlink:href="#f1_1x" transform="matrix(12,0,0,12,573.7,369.3)" />
<use xlink:href="#f1_29" transform="matrix(12,0,0,12,582.8,369.3)" />
<use xlink:href="#f1_2l" transform="matrix(12,0,0,12,597.9,369.3)" />
<use xlink:href="#f0_2j" transform="matrix(12,0,0,12,611.8,369.3)" />
<use xlink:href="#f0_24" transform="matrix(12,0,0,12,625.4,369.3)" />
<use xlink:href="#f0_25" transform="matrix(12,0,0,12,634.5,369.3)" />
<use xlink:href="#f0_1z" transform="matrix(12,0,0,12,639.3,369.3)" />
<use xlink:href="#f0_24" transform="matrix(12,0,0,12,647.7,369.3)" />
<use xlink:href="#f0_20" transform="matrix(12,0,0,12,661.3,369.3)" />
<use xlink:href="#f0_21" transform="matrix(12,0,0,12,670.4,369.3)" />
<use xlink:href="#f0_2i" transform="matrix(12,0,0,12,678.5,369.3)" />
<use xlink:href="#f0_21" transform="matrix(12,0,0,12,687.3,369.3)" />
<use xlink:href="#f0_28" transform="matrix(12,0,0,12,695.7,369.3)" />
<use xlink:href="#f0_2b" transform="matrix(12,0,0,12,700.1,369.3)" />
<use xlink:href="#f0_2c" transform="matrix(12,0,0,12,709.6,369.3)" />
<use xlink:href="#f0_2f" transform="matrix(12,0,0,12,719.1,369.3)" />
<use xlink:href="#f0_25" transform="matrix(12,0,0,12,731.2,369.3)" />
<use xlink:href="#f0_2a" transform="matrix(12,0,0,12,736,369.3)" />
<use xlink:href="#f0_2g" transform="matrix(12,0,0,12,744.8,369.3)" />
<use xlink:href="#f0_2b" transform="matrix(12,0,0,12,750.3,369.3)" />
<use xlink:href="#f0_21" transform="matrix(12,0,0,12,764.8,369.3)" />
<use xlink:href="#f0_29" transform="matrix(12,0,0,12,772.9,369.3)" />
<use xlink:href="#f0_1y" transform="matrix(12,0,0,12,786.8,369.3)" />
<use xlink:href="#f0_2e" transform="matrix(12,0,0,12,795.6,369.3)" />
<use xlink:href="#f0_2l" transform="matrix(12,0,0,12,801.8,369.3)" />
<use xlink:href="#f0_2b" transform="matrix(12,0,0,12,810.2,369.3)" />
<use xlink:href="#f0_i" transform="matrix(12,0,0,12,819.8,369.3)" />
<use xlink:href="#f0_1f" transform="matrix(12,0,0,12,55,390.6)" />
<use xlink:href="#f0_2g" transform="matrix(12,0,0,12,68.3,390.6)" />
<use xlink:href="#f0_24" transform="matrix(12,0,0,12,73.7,390.6)" />
<use xlink:href="#f0_21" transform="matrix(12,0,0,12,82.5,390.6)" />
<use xlink:href="#f0_2e" transform="matrix(12,0,0,12,90.6,390.6)" />
<use xlink:href="#f0_29" transform="matrix(12,0,0,12,101.5,390.6)" />
<use xlink:href="#f0_1x" transform="matrix(12,0,0,12,115.1,390.6)" />
<use xlink:href="#f0_28" transform="matrix(12,0,0,12,123.5,390.6)" />
<use xlink:href="#f0_21" transform="matrix(12,0,0,12,128.3,390.6)" />
<use xlink:href="#f0_23" transform="matrix(12,0,0,12,141.1,390.6)" />
<use xlink:href="#f0_1x" transform="matrix(12,0,0,12,150.3,390.6)" />
<use xlink:href="#f0_29" transform="matrix(12,0,0,12,158.7,390.6)" />
<use xlink:href="#f0_21" transform="matrix(12,0,0,12,172.6,390.6)" />
<use xlink:href="#f0_2g" transform="matrix(12,0,0,12,180.7,390.6)" />
<use xlink:href="#f0_21" transform="matrix(12,0,0,12,186.2,390.6)" />
<use xlink:href="#f0_22" transform="matrix(12,0,0,12,199,390.6)" />
<use xlink:href="#f0_2h" transform="matrix(12,0,0,12,204.5,390.6)" />
<use xlink:href="#f0_2f" transform="matrix(12,0,0,12,213.7,390.6)" />
<use xlink:href="#f0_21" transform="matrix(12,0,0,12,221,390.6)" />
<use xlink:href="#f0_2f" transform="matrix(12,0,0,12,229,390.6)" />
<use xlink:href="#f0_2j" transform="matrix(12,0,0,12,240.8,390.6)" />
<use xlink:href="#f0_25" transform="matrix(12,0,0,12,254.3,390.6)" />
<use xlink:href="#f0_2g" transform="matrix(12,0,0,12,258.7,390.6)" />
<use xlink:href="#f0_24" transform="matrix(12,0,0,12,264.2,390.6)" />
<use xlink:href="#f0_2f" transform="matrix(12,0,0,12,277.7,390.6)" />
<use xlink:href="#f0_21" transform="matrix(12,0,0,12,284.7,390.6)" />
<use xlink:href="#f0_1z" transform="matrix(12,0,0,12,293.1,390.6)" />
<use xlink:href="#f0_2b" transform="matrix(12,0,0,12,301.2,390.6)" />
<use xlink:href="#f0_2a" transform="matrix(12,0,0,12,310.7,390.6)" />
<use xlink:href="#f0_20" transform="matrix(12,0,0,12,319.5,390.6)" />
<use xlink:href="#f0_1x" transform="matrix(12,0,0,12,328.7,390.6)" />
<use xlink:href="#f0_2e" transform="matrix(12,0,0,12,336.7,390.6)" />
<use xlink:href="#f0_2l" transform="matrix(12,0,0,12,343.3,390.6)" />
<use xlink:href="#f0_2a" transform="matrix(12,0,0,12,356.9,390.6)" />
<use xlink:href="#f0_2h" transform="matrix(12,0,0,12,365.7,390.6)" />
<use xlink:href="#f0_1z" transform="matrix(12,0,0,12,374.8,390.6)" />
<use xlink:href="#f0_28" transform="matrix(12,0,0,12,383.2,390.6)" />
<use xlink:href="#f0_21" transform="matrix(12,0,0,12,388,390.6)" />
<use xlink:href="#f0_2h" transform="matrix(12,0,0,12,396.1,390.6)" />
<use xlink:href="#f0_2f" transform="matrix(12,0,0,12,405.2,390.6)" />
<use xlink:href="#f0_c" transform="matrix(12,0,0,12,417,390.6)" />
<use xlink:href="#f0_22" transform="matrix(12,0,0,12,423.5,390.6)" />
<use xlink:href="#f0_2b" transform="matrix(12,0,0,12,429.4,390.6)" />
<use xlink:href="#f0_2e" transform="matrix(12,0,0,12,438.9,390.6)" />
<use xlink:href="#f0_29" transform="matrix(12,0,0,12,445.1,390.6)" />
<use xlink:href="#f0_21" transform="matrix(12,0,0,12,458.7,390.6)" />
<use xlink:href="#f0_20" transform="matrix(12,0,0,12,466.8,390.6)" />
<use xlink:href="#f0_1y" transform="matrix(12,0,0,12,480.7,390.6)" />
<use xlink:href="#f0_2l" transform="matrix(12,0,0,12,489.8,390.6)" />
<use xlink:href="#f0_22" transform="matrix(12,0,0,12,503.4,390.6)" />
<use xlink:href="#f0_2h" transform="matrix(12,0,0,12,509.3,390.6)" />
<use xlink:href="#f0_2f" transform="matrix(12,0,0,12,518.8,390.6)" />
<use xlink:href="#f0_25" transform="matrix(12,0,0,12,526.1,390.6)" />
<use xlink:href="#f0_2b" transform="matrix(12,0,0,12,530.5,390.6)" />
<use xlink:href="#f0_2a" transform="matrix(12,0,0,12,540,390.6)" />
<use xlink:href="#f0_2b" transform="matrix(12,0,0,12,553.6,390.6)" />
<use xlink:href="#f0_22" transform="matrix(12,0,0,12,563.1,390.6)" />
<use xlink:href="#f0_2g" transform="matrix(12,0,0,12,574,390.6)" />
<use xlink:href="#f0_2j" transform="matrix(12,0,0,12,579.5,390.6)" />
<use xlink:href="#f0_2b" transform="matrix(12,0,0,12,592.8,390.6)" />
<use xlink:href="#f0_2c" transform="matrix(12,0,0,12,606.6,390.6)" />
<use xlink:href="#f0_2b" transform="matrix(12,0,0,12,615.4,390.6)" />
<use xlink:href="#f0_28" transform="matrix(12,0,0,12,625,390.6)" />
<use xlink:href="#f0_1x" transform="matrix(12,0,0,12,629.4,390.6)" />
<use xlink:href="#f0_2e" transform="matrix(12,0,0,12,637.4,390.6)" />
<use xlink:href="#f0_2a" transform="matrix(12,0,0,12,648.5,390.6)" />
<use xlink:href="#f0_2h" transform="matrix(12,0,0,12,657.3,390.6)" />
<use xlink:href="#f0_1z" transform="matrix(12,0,0,12,666.5,390.6)" />
<use xlink:href="#f0_28" transform="matrix(12,0,0,12,674.9,390.6)" />
<use xlink:href="#f0_21" transform="matrix(12,0,0,12,679.7,390.6)" />
<use xlink:href="#f0_25" transform="matrix(12,0,0,12,688.1,390.6)" />
<use xlink:href="#f0_d" transform="matrix(12,0,0,12,692.9,390.6)" />
<use xlink:href="#f0_2j" transform="matrix(12,0,0,12,703.8,390.6)" />
<use xlink:href="#f0_24" transform="matrix(12,0,0,12,717.1,390.6)" />
<use xlink:href="#f0_25" transform="matrix(12,0,0,12,726.2,390.6)" />
<use xlink:href="#f0_1z" transform="matrix(12,0,0,12,731,390.6)" />
<use xlink:href="#f0_24" transform="matrix(12,0,0,12,739.4,390.6)" />
<use xlink:href="#f0_22" transform="matrix(12,0,0,12,753.3,390.6)" />
<use xlink:href="#f0_2b" transform="matrix(12,0,0,12,758.8,390.6)" />
<use xlink:href="#f0_2e" transform="matrix(12,0,0,12,768.3,390.6)" />
<use xlink:href="#f0_29" transform="matrix(12,0,0,12,774.9,390.6)" />
<use xlink:href="#f0_2f" transform="matrix(12,0,0,12,788.4,390.6)" />
<use xlink:href="#f0_2g" transform="matrix(12,0,0,12,800.7,390.6)" />
<use xlink:href="#f0_2e" transform="matrix(12,0,0,12,806.2,390.6)" />
<use xlink:href="#f0_25" transform="matrix(12,0,0,12,812.4,390.6)" />
<use xlink:href="#f0_2c" transform="matrix(12,0,0,12,816.8,390.6)" />
<use xlink:href="#f0_28" transform="matrix(12,0,0,12,826.3,390.6)" />
<use xlink:href="#f0_2b" transform="matrix(12,0,0,12,830.7,390.6)" />
<use xlink:href="#f0_25" transform="matrix(12,0,0,12,840.6,390.6)" />
<use xlink:href="#f0_20" transform="matrix(12,0,0,12,845,390.6)" />
<use xlink:href="#f0_2c" transform="matrix(12,0,0,12,55,411.5)" />
<use xlink:href="#f0_2e" transform="matrix(12,0,0,12,64.2,411.5)" />
<use xlink:href="#f0_25" transform="matrix(12,0,0,12,70.8,411.5)" />
<use xlink:href="#f0_29" transform="matrix(12,0,0,12,75.6,411.5)" />
<use xlink:href="#f0_1x" transform="matrix(12,0,0,12,89.5,411.5)" />
<use xlink:href="#f0_2e" transform="matrix(12,0,0,12,97.6,411.5)" />
<use xlink:href="#f0_2l" transform="matrix(12,0,0,12,104.1,411.5)" />
<use xlink:href="#f0_21" transform="matrix(12,0,0,12,117,411.5)" />
<use xlink:href="#f0_2a" transform="matrix(12,0,0,12,125,411.5)" />
<use xlink:href="#f0_20" transform="matrix(12,0,0,12,133.8,411.5)" />
<use xlink:href="#f0_2b" transform="matrix(12,0,0,12,143,411.5)" />
<use xlink:href="#f0_2f" transform="matrix(12,0,0,12,152.5,411.5)" />
<use xlink:href="#f0_2c" transform="matrix(12,0,0,12,159.5,411.5)" />
<use xlink:href="#f0_21" transform="matrix(12,0,0,12,168.6,411.5)" />
<use xlink:href="#f0_2e" transform="matrix(12,0,0,12,176.7,411.5)" />
<use xlink:href="#f0_29" transform="matrix(12,0,0,12,183.3,411.5)" />
<use xlink:href="#f0_2a" transform="matrix(12,0,0,12,201.6,411.5)" />
<use xlink:href="#f0_2h" transform="matrix(12,0,0,12,210.4,411.5)" />
<use xlink:href="#f0_1z" transform="matrix(12,0,0,12,219.6,411.5)" />
<use xlink:href="#f0_28" transform="matrix(12,0,0,12,228,411.5)" />
<use xlink:href="#f0_21" transform="matrix(12,0,0,12,232.8,411.5)" />
<use xlink:href="#f0_2h" transform="matrix(12,0,0,12,240.8,411.5)" />
<use xlink:href="#f0_2f" transform="matrix(12,0,0,12,250,411.5)" />
<use xlink:href="#f0_c" transform="matrix(12,0,0,12,261.4,411.5)" />
<use xlink:href="#f0_1g" transform="matrix(12,0,0,12,267.6,411.5)" />
<use xlink:href="#f0_15" transform="matrix(12,0,0,12,277.8,411.5)" />
<use xlink:href="#f0_1e" transform="matrix(12,0,0,12,289.2,411.5)" />
<use xlink:href="#f0_d" transform="matrix(12,0,0,12,302.4,411.5)" />
<use xlink:href="#f0_1x" transform="matrix(12,0,0,12,312.9,411.5)" />
<use xlink:href="#f0_2a" transform="matrix(12,0,0,12,320.9,411.5)" />
<use xlink:href="#f0_20" transform="matrix(12,0,0,12,329.7,411.5)" />
<use xlink:href="#f0_25" transform="matrix(12,0,0,12,343.3,411.5)" />
<use xlink:href="#f0_2f" transform="matrix(12,0,0,12,348.1,411.5)" />
<use xlink:href="#f0_1z" transform="matrix(12,0,0,12,359.4,411.5)" />
<use xlink:href="#f0_1x" transform="matrix(12,0,0,12,367.5,411.5)" />
<use xlink:href="#f0_28" transform="matrix(12,0,0,12,375.9,411.5)" />
<use xlink:href="#f0_28" transform="matrix(12,0,0,12,380.7,411.5)" />
<use xlink:href="#f0_21" transform="matrix(12,0,0,12,385.5,411.5)" />
<use xlink:href="#f0_20" transform="matrix(12,0,0,12,393.5,411.5)" />
<use xlink:href="#f1_2g" transform="matrix(12,0,0,12,407.2,411.5)" />
<use xlink:href="#f1_2e" transform="matrix(12,0,0,12,413.4,411.5)" />
<use xlink:href="#f1_25" transform="matrix(12,0,0,12,421.1,411.5)" />
<use xlink:href="#f1_2c" transform="matrix(12,0,0,12,426.5,411.5)" />
<use xlink:href="#f1_28" transform="matrix(12,0,0,12,436.8,411.5)" />
<use xlink:href="#f1_21" transform="matrix(12,0,0,12,441.6,411.5)" />
<use xlink:href="#f1_22" transform="matrix(12,0,0,12,454,411.5)" />
<use xlink:href="#f1_2h" transform="matrix(12,0,0,12,459.9,411.5)" />
<use xlink:href="#f1_2f" transform="matrix(12,0,0,12,470.1,411.5)" />
<use xlink:href="#f1_25" transform="matrix(12,0,0,12,477.1,411.5)" />
<use xlink:href="#f1_2b" transform="matrix(12,0,0,12,482.2,411.5)" />
<use xlink:href="#f1_2a" transform="matrix(12,0,0,12,491.4,411.5)" />
<use xlink:href="#f1_i" transform="matrix(12,0,0,12,501.8,411.5)" />
<use xlink:href="#f0_1g" transform="matrix(12,0,0,12,510.9,411.5)" />
<use xlink:href="#f0_15" transform="matrix(12,0,0,12,520.8,411.5)" />
<use xlink:href="#f0_1e" transform="matrix(12,0,0,12,532.2,411.5)" />
<use xlink:href="#f0_20" transform="matrix(12,0,0,12,549.4,411.5)" />
<use xlink:href="#f0_21" transform="matrix(12,0,0,12,558.6,411.5)" />
<use xlink:href="#f0_2i" transform="matrix(12,0,0,12,566.7,411.5)" />
<use xlink:href="#f0_21" transform="matrix(12,0,0,12,575.5,411.5)" />
<use xlink:href="#f0_28" transform="matrix(12,0,0,12,583.9,411.5)" />
<use xlink:href="#f0_2b" transform="matrix(12,0,0,12,588.3,411.5)" />
<use xlink:href="#f0_2c" transform="matrix(12,0,0,12,597.8,411.5)" />
<use xlink:href="#f0_2f" transform="matrix(12,0,0,12,607,411.5)" />
<use xlink:href="#f0_25" transform="matrix(12,0,0,12,618.8,411.5)" />
<use xlink:href="#f0_2a" transform="matrix(12,0,0,12,623.5,411.5)" />
<use xlink:href="#f0_2g" transform="matrix(12,0,0,12,632.3,411.5)" />
<use xlink:href="#f0_2b" transform="matrix(12,0,0,12,637.8,411.5)" />
<use xlink:href="#f0_21" transform="matrix(12,0,0,12,651.4,411.5)" />
<use xlink:href="#f0_2a" transform="matrix(12,0,0,12,659.5,411.5)" />
<use xlink:href="#f0_20" transform="matrix(12,0,0,12,668.3,411.5)" />
<use xlink:href="#f0_2b" transform="matrix(12,0,0,12,677.4,411.5)" />
<use xlink:href="#f0_2f" transform="matrix(12,0,0,12,686.9,411.5)" />
<use xlink:href="#f0_2c" transform="matrix(12,0,0,12,693.9,411.5)" />
<use xlink:href="#f0_21" transform="matrix(12,0,0,12,703.1,411.5)" />
<use xlink:href="#f0_2e" transform="matrix(12,0,0,12,711.1,411.5)" />
<use xlink:href="#f0_29" transform="matrix(12,0,0,12,717.4,411.5)" />
<use xlink:href="#f0_2j" transform="matrix(12,0,0,12,735.3,411.5)" />
<use xlink:href="#f0_24" transform="matrix(12,0,0,12,748.9,411.5)" />
<use xlink:href="#f0_25" transform="matrix(12,0,0,12,758,411.5)" />
<use xlink:href="#f0_1z" transform="matrix(12,0,0,12,762.8,411.5)" />
<use xlink:href="#f0_24" transform="matrix(12,0,0,12,771.2,411.5)" />
<use xlink:href="#f0_2a" transform="matrix(12,0,0,12,784.4,411.5)" />
<use xlink:href="#f0_2b" transform="matrix(12,0,0,12,793.6,411.5)" />
<use xlink:href="#f0_2h" transform="matrix(12,0,0,12,803.1,411.5)" />
<use xlink:href="#f0_2e" transform="matrix(12,0,0,12,812.3,411.5)" />
<use xlink:href="#f0_25" transform="matrix(12,0,0,12,818.5,411.5)" />
<use xlink:href="#f0_2f" transform="matrix(12,0,0,12,822.9,411.5)" />
<use xlink:href="#f0_24" transform="matrix(12,0,0,12,830.2,411.5)" />
<use xlink:href="#f0_21" transform="matrix(12,0,0,12,839,411.5)" />
<use xlink:href="#f0_2f" transform="matrix(12,0,0,12,847.4,411.5)" />
<use xlink:href="#f0_2g" transform="matrix(12,0,0,12,55,432.8)" />
<use xlink:href="#f0_24" transform="matrix(12,0,0,12,60.5,432.8)" />
<use xlink:href="#f0_21" transform="matrix(12,0,0,12,69.3,432.8)" />
<use xlink:href="#f0_20" transform="matrix(12,0,0,12,82.5,432.8)" />
<use xlink:href="#f0_21" transform="matrix(12,0,0,12,91.7,432.8)" />
<use xlink:href="#f0_2i" transform="matrix(12,0,0,12,99.7,432.8)" />
<use xlink:href="#f0_21" transform="matrix(12,0,0,12,108.5,432.8)" />
<use xlink:href="#f0_28" transform="matrix(12,0,0,12,116.9,432.8)" />
<use xlink:href="#f0_2b" transform="matrix(12,0,0,12,121.3,432.8)" />
<use xlink:href="#f0_2c" transform="matrix(12,0,0,12,130.9,432.8)" />
<use xlink:href="#f0_25" transform="matrix(12,0,0,12,140.4,432.8)" />
<use xlink:href="#f0_2a" transform="matrix(12,0,0,12,145.1,432.8)" />
<use xlink:href="#f0_23" transform="matrix(12,0,0,12,153.9,432.8)" />
<use xlink:href="#f0_21" transform="matrix(12,0,0,12,168.2,432.8)" />
<use xlink:href="#f0_29" transform="matrix(12,0,0,12,176.6,432.8)" />
<use xlink:href="#f0_1y" transform="matrix(12,0,0,12,190.6,432.8)" />
<use xlink:href="#f0_2e" transform="matrix(12,0,0,12,199.4,432.8)" />
<use xlink:href="#f0_2l" transform="matrix(12,0,0,12,206,432.8)" />
<use xlink:href="#f0_2b" transform="matrix(12,0,0,12,214.4,432.8)" />
<use xlink:href="#f0_i" transform="matrix(12,0,0,12,223.9,432.8)" />
<use xlink:href="#f0_11" transform="matrix(12,0,0,12,234,432.8)" />
<use xlink:href="#f0_2f" transform="matrix(12,0,0,12,246.8,432.8)" />
<use xlink:href="#f0_2g" transform="matrix(12,0,0,12,258.9,432.8)" />
<use xlink:href="#f0_2j" transform="matrix(12,0,0,12,264.4,432.8)" />
<use xlink:href="#f0_2b" transform="matrix(12,0,0,12,277.6,432.8)" />
<use xlink:href="#f0_22" transform="matrix(12,0,0,12,291.9,432.8)" />
<use xlink:href="#f0_21" transform="matrix(12,0,0,12,297.4,432.8)" />
<use xlink:href="#f0_2e" transform="matrix(12,0,0,12,305.5,432.8)" />
<use xlink:href="#f0_2g" transform="matrix(12,0,0,12,311.7,432.8)" />
<use xlink:href="#f0_25" transform="matrix(12,0,0,12,317.2,432.8)" />
<use xlink:href="#f0_28" transform="matrix(12,0,0,12,321.9,432.8)" />
<use xlink:href="#f0_25" transform="matrix(12,0,0,12,327,432.8)" />
<use xlink:href="#f0_2m" transform="matrix(12,0,0,12,331.8,432.8)" />
<use xlink:href="#f0_1x" transform="matrix(12,0,0,12,339.9,432.8)" />
<use xlink:href="#f0_2g" transform="matrix(12,0,0,12,348,432.8)" />
<use xlink:href="#f0_25" transform="matrix(12,0,0,12,353.8,432.8)" />
<use xlink:href="#f0_2b" transform="matrix(12,0,0,12,358.2,432.8)" />
<use xlink:href="#f0_2a" transform="matrix(12,0,0,12,367.7,432.8)" />
<use xlink:href="#f0_c" transform="matrix(12,0,0,12,381.6,432.8)" />
<use xlink:href="#f0_2f" transform="matrix(12,0,0,12,387.8,432.8)" />
<use xlink:href="#f0_2l" transform="matrix(12,0,0,12,395.2,432.8)" />
<use xlink:href="#f0_2a" transform="matrix(12,0,0,12,404,432.8)" />
<use xlink:href="#f0_23" transform="matrix(12,0,0,12,412.8,432.8)" />
<use xlink:href="#f0_1x" transform="matrix(12,0,0,12,422.3,432.8)" />
<use xlink:href="#f0_29" transform="matrix(12,0,0,12,430.7,432.8)" />
<use xlink:href="#f0_2l" transform="matrix(12,0,0,12,444.6,432.8)" />
<use xlink:href="#f0_1x" transform="matrix(12,0,0,12,458.2,432.8)" />
<use xlink:href="#f0_2a" transform="matrix(12,0,0,12,466.6,432.8)" />
<use xlink:href="#f0_20" transform="matrix(12,0,0,12,475.4,432.8)" />
<use xlink:href="#f0_2g" transform="matrix(12,0,0,12,489.7,432.8)" />
<use xlink:href="#f0_2e" transform="matrix(12,0,0,12,495.1,432.8)" />
<use xlink:href="#f0_25" transform="matrix(12,0,0,12,501.4,432.8)" />
<use xlink:href="#f0_2c" transform="matrix(12,0,0,12,505.8,432.8)" />
<use xlink:href="#f0_28" transform="matrix(12,0,0,12,515.3,432.8)" />
<use xlink:href="#f0_21" transform="matrix(12,0,0,12,520,432.8)" />
<use xlink:href="#f0_22" transform="matrix(12,0,0,12,534.1,432.8)" />
<use xlink:href="#f0_2h" transform="matrix(12,0,0,12,539.6,432.8)" />
<use xlink:href="#f0_2f" transform="matrix(12,0,0,12,548.7,432.8)" />
<use xlink:href="#f0_25" transform="matrix(12,0,0,12,556.1,432.8)" />
<use xlink:href="#f0_2b" transform="matrix(12,0,0,12,560.5,432.8)" />
<use xlink:href="#f0_2a" transform="matrix(12,0,0,12,570.3,432.8)" />
<use xlink:href="#f0_d" transform="matrix(12,0,0,12,579.1,432.8)" />
<use xlink:href="#f0_2g" transform="matrix(12,0,0,12,590.5,432.8)" />
<use xlink:href="#f0_1x" transform="matrix(12,0,0,12,596,432.8)" />
<use xlink:href="#f0_27" transform="matrix(12,0,0,12,604.1,432.8)" />
<use xlink:href="#f0_21" transform="matrix(12,0,0,12,613.3,432.8)" />
<use xlink:href="#f0_2f" transform="matrix(12,0,0,12,621.3,432.8)" />
<use xlink:href="#f0_2c" transform="matrix(12,0,0,12,633.4,432.8)" />
<use xlink:href="#f0_28" transform="matrix(12,0,0,12,642.6,432.8)" />
<use xlink:href="#f0_1x" transform="matrix(12,0,0,12,647,432.8)" />
<use xlink:href="#f0_1z" transform="matrix(12,0,0,12,655,432.8)" />
<use xlink:href="#f0_21" transform="matrix(12,0,0,12,663.1,432.8)" />
<use xlink:href="#f0_25" transform="matrix(12,0,0,12,676.7,432.8)" />
<use xlink:href="#f0_2a" transform="matrix(12,0,0,12,681.4,432.8)" />
<use xlink:href="#f0_2f" transform="matrix(12,0,0,12,690.6,432.8)" />
<use xlink:href="#f0_25" transform="matrix(12,0,0,12,697.9,432.8)" />
<use xlink:href="#f0_20" transform="matrix(12,0,0,12,702.7,432.8)" />
<use xlink:href="#f0_21" transform="matrix(12,0,0,12,711.8,432.8)" />
<use xlink:href="#f0_2g" transform="matrix(12,0,0,12,725,432.8)" />
<use xlink:href="#f0_24" transform="matrix(12,0,0,12,730.5,432.8)" />
<use xlink:href="#f0_21" transform="matrix(12,0,0,12,739.3,432.8)" />
<use xlink:href="#f0_21" transform="matrix(12,0,0,12,752.5,432.8)" />
<use xlink:href="#f0_29" transform="matrix(12,0,0,12,760.6,432.8)" />
<use xlink:href="#f0_1y" transform="matrix(12,0,0,12,774.5,432.8)" />
<use xlink:href="#f0_2e" transform="matrix(12,0,0,12,783.3,432.8)" />
<use xlink:href="#f0_2l" transform="matrix(12,0,0,12,789.9,432.8)" />
<use xlink:href="#f0_2b" transform="matrix(12,0,0,12,798.3,432.8)" />
<use xlink:href="#f0_2f" transform="matrix(12,0,0,12,812.9,432.8)" />
<use xlink:href="#f0_1x" transform="matrix(12,0,0,12,819.9,432.8)" />
<use xlink:href="#f0_1z" transform="matrix(12,0,0,12,828,432.8)" />
<use xlink:href="#f0_1x" transform="matrix(12,0,0,12,841.1,432.8)" />
<use xlink:href="#f0_2g" transform="matrix(12,0,0,12,849.2,432.8)" />
<use xlink:href="#f0_2g" transform="matrix(12,0,0,12,55,453.7)" />
<use xlink:href="#f0_24" transform="matrix(12,0,0,12,60.5,453.7)" />
<use xlink:href="#f0_21" transform="matrix(12,0,0,12,69.3,453.7)" />
<use xlink:href="#f0_2f" transform="matrix(12,0,0,12,82.1,453.7)" />
<use xlink:href="#f0_1x" transform="matrix(12,0,0,12,89.1,453.7)" />
<use xlink:href="#f0_29" transform="matrix(12,0,0,12,97.5,453.7)" />
<use xlink:href="#f0_21" transform="matrix(12,0,0,12,111.1,453.7)" />
<use xlink:href="#f0_2g" transform="matrix(12,0,0,12,124,453.7)" />
<use xlink:href="#f0_25" transform="matrix(12,0,0,12,129.8,453.7)" />
<use xlink:href="#f0_29" transform="matrix(12,0,0,12,134.6,453.7)" />
<use xlink:href="#f0_21" transform="matrix(12,0,0,12,148.5,453.7)" />
<use xlink:href="#f0_g" transform="matrix(12,0,0,12,156.6,453.7)" />
<use xlink:href="#f0_25" transform="matrix(12,0,0,12,166.5,453.7)" />
<use xlink:href="#f0_2g" transform="matrix(12,0,0,12,170.9,453.7)" />
<use xlink:href="#f0_25" transform="matrix(12,0,0,12,181.2,453.7)" />
<use xlink:href="#f0_2f" transform="matrix(12,0,0,12,185.6,453.7)" />
<use xlink:href="#f0_1z" transform="matrix(12,0,0,12,197.3,453.7)" />
<use xlink:href="#f0_1x" transform="matrix(12,0,0,12,205.4,453.7)" />
<use xlink:href="#f0_28" transform="matrix(12,0,0,12,213.8,453.7)" />
<use xlink:href="#f0_28" transform="matrix(12,0,0,12,218.9,453.7)" />
<use xlink:href="#f0_21" transform="matrix(12,0,0,12,223.7,453.7)" />
<use xlink:href="#f0_20" transform="matrix(12,0,0,12,231.8,453.7)" />
<use xlink:href="#f0_20" transform="matrix(12,0,0,12,245.7,453.7)" />
<use xlink:href="#f0_2b" transform="matrix(12,0,0,12,254.9,453.7)" />
<use xlink:href="#f0_2h" transform="matrix(12,0,0,12,264.4,453.7)" />
<use xlink:href="#f0_1y" transform="matrix(12,0,0,12,273.5,453.7)" />
<use xlink:href="#f0_28" transform="matrix(12,0,0,12,282.7,453.7)" />
<use xlink:href="#f0_21" transform="matrix(12,0,0,12,287.5,453.7)" />
<use xlink:href="#f0_22" transform="matrix(12,0,0,12,300.7,453.7)" />
<use xlink:href="#f0_21" transform="matrix(12,0,0,12,306.2,453.7)" />
<use xlink:href="#f0_2e" transform="matrix(12,0,0,12,314.2,453.7)" />
<use xlink:href="#f0_2g" transform="matrix(12,0,0,12,320.4,453.7)" />
<use xlink:href="#f0_25" transform="matrix(12,0,0,12,325.9,453.7)" />
<use xlink:href="#f0_28" transform="matrix(12,0,0,12,330.7,453.7)" />
<use xlink:href="#f0_25" transform="matrix(12,0,0,12,335.8,453.7)" />
<use xlink:href="#f0_2m" transform="matrix(12,0,0,12,340.6,453.7)" />
<use xlink:href="#f0_1x" transform="matrix(12,0,0,12,349,453.7)" />
<use xlink:href="#f0_2g" transform="matrix(12,0,0,12,357.1,453.7)" />
<use xlink:href="#f0_25" transform="matrix(12,0,0,12,362.5,453.7)" />
<use xlink:href="#f0_2b" transform="matrix(12,0,0,12,366.9,453.7)" />
<use xlink:href="#f0_2a" transform="matrix(12,0,0,12,376.5,453.7)" />
<use xlink:href="#f0_i" transform="matrix(12,0,0,12,385.3,453.7)" />
<use xlink:href="#f1_15" transform="matrix(12,0,0,12,55,474.9)" />
<use xlink:href="#f1_2a" transform="matrix(12,0,0,12,67.1,474.9)" />
<use xlink:href="#f1_20" transform="matrix(12,0,0,12,77.4,474.9)" />
<use xlink:href="#f1_2b" transform="matrix(12,0,0,12,87.6,474.9)" />
<use xlink:href="#f1_2f" transform="matrix(12,0,0,12,96.8,474.9)" />
<use xlink:href="#f1_2c" transform="matrix(12,0,0,12,103.8,474.9)" />
<use xlink:href="#f1_21" transform="matrix(12,0,0,12,114,474.9)" />
<use xlink:href="#f1_2e" transform="matrix(12,0,0,12,122.4,474.9)" />
<use xlink:href="#f1_29" transform="matrix(12,0,0,12,130.1,474.9)" />
<use xlink:href="#f1_25" transform="matrix(12,0,0,12,149.9,474.9)" />
<use xlink:href="#f1_2f" transform="matrix(12,0,0,12,155,474.9)" />
<use xlink:href="#f1_2g" transform="matrix(12,0,0,12,166.8,474.9)" />
<use xlink:href="#f1_2e" transform="matrix(12,0,0,12,173,474.9)" />
<use xlink:href="#f1_25" transform="matrix(12,0,0,12,180.7,474.9)" />
<use xlink:href="#f1_2c" transform="matrix(12,0,0,12,185.8,474.9)" />
<use xlink:href="#f1_28" transform="matrix(12,0,0,12,196.4,474.9)" />
<use xlink:href="#f1_2b" transform="matrix(12,0,0,12,201.2,474.9)" />
<use xlink:href="#f1_25" transform="matrix(12,0,0,12,210.4,474.9)" />
<use xlink:href="#f1_20" transform="matrix(12,0,0,12,215.5,474.9)" />
<use xlink:href="#f1_i" transform="matrix(12,0,0,12,225.7,474.9)" />
<use xlink:href="#f0_1f" transform="matrix(12,0,0,12,55,495.9)" />
<use xlink:href="#f0_2i" transform="matrix(12,0,0,12,68.3,495.9)" />
<use xlink:href="#f0_2h" transform="matrix(12,0,0,12,77,495.9)" />
<use xlink:href="#f0_28" transform="matrix(12,0,0,12,86.6,495.9)" />
<use xlink:href="#f0_21" transform="matrix(12,0,0,12,91.3,495.9)" />
<use xlink:href="#f0_2f" transform="matrix(12,0,0,12,99.7,495.9)" />
<use xlink:href="#f0_20" transform="matrix(12,0,0,12,111.4,495.9)" />
<use xlink:href="#f0_21" transform="matrix(12,0,0,12,120.6,495.9)" />
<use xlink:href="#f0_2i" transform="matrix(12,0,0,12,128.7,495.9)" />
<use xlink:href="#f0_21" transform="matrix(12,0,0,12,137.5,495.9)" />
<use xlink:href="#f0_28" transform="matrix(12,0,0,12,145.9,495.9)" />
<use xlink:href="#f0_2b" transform="matrix(12,0,0,12,150.3,495.9)" />
<use xlink:href="#f0_2c" transform="matrix(12,0,0,12,159.8,495.9)" />
<use xlink:href="#f0_25" transform="matrix(12,0,0,12,174.1,495.9)" />
<use xlink:href="#f0_2a" transform="matrix(12,0,0,12,178.9,495.9)" />
<use xlink:href="#f0_2g" transform="matrix(12,0,0,12,187.7,495.9)" />
<use xlink:href="#f0_2b" transform="matrix(12,0,0,12,193.1,495.9)" />
<use xlink:href="#f0_2f" transform="matrix(12,0,0,12,207.4,495.9)" />
<use xlink:href="#f0_21" transform="matrix(12,0,0,12,214.4,495.9)" />
<use xlink:href="#f0_21" transform="matrix(12,0,0,12,222.4,495.9)" />
<use xlink:href="#f0_20" transform="matrix(12,0,0,12,230.5,495.9)" />
<use xlink:href="#f0_2f" transform="matrix(12,0,0,12,239.7,495.9)" />
<use xlink:href="#f0_1x" transform="matrix(12,0,0,12,251.4,495.9)" />
<use xlink:href="#f0_2a" transform="matrix(12,0,0,12,259.5,495.9)" />
<use xlink:href="#f0_20" transform="matrix(12,0,0,12,268.3,495.9)" />
<use xlink:href="#f0_2b" transform="matrix(12,0,0,12,282.2,495.9)" />
<use xlink:href="#f0_2i" transform="matrix(12,0,0,12,291.7,495.9)" />
<use xlink:href="#f0_1x" transform="matrix(12,0,0,12,300.5,495.9)" />
<use xlink:href="#f0_2e" transform="matrix(12,0,0,12,308.5,495.9)" />
<use xlink:href="#f0_25" transform="matrix(12,0,0,12,315.1,495.9)" />
<use xlink:href="#f0_21" transform="matrix(12,0,0,12,319.9,495.9)" />
<use xlink:href="#f0_2f" transform="matrix(12,0,0,12,328,495.9)" />
<use xlink:href="#f0_25" transform="matrix(12,0,0,12,340,495.9)" />
<use xlink:href="#f0_2a" transform="matrix(12,0,0,12,344.8,495.9)" />
<use xlink:href="#f0_2g" transform="matrix(12,0,0,12,353.6,495.9)" />
<use xlink:href="#f0_2b" transform="matrix(12,0,0,12,359.1,495.9)" />
<use xlink:href="#f0_22" transform="matrix(12,0,0,12,373.4,495.9)" />
<use xlink:href="#f0_2e" transform="matrix(12,0,0,12,378.9,495.9)" />
<use xlink:href="#f0_2h" transform="matrix(12,0,0,12,385.1,495.9)" />
<use xlink:href="#f0_25" transform="matrix(12,0,0,12,394.6,495.9)" />
<use xlink:href="#f0_2g" transform="matrix(12,0,0,12,399,495.9)" />
<use xlink:href="#f0_2f" transform="matrix(12,0,0,12,404.5,495.9)" />
<use xlink:href="#f0_i" transform="matrix(12,0,0,12,411.4,495.9)" />
<use xlink:href="#f0_1c" transform="matrix(12,0,0,12,252.4,868.8)" />
<use xlink:href="#f0_19" transform="matrix(12,0,0,12,263.4,868.8)" />
<use xlink:href="#f0_16" transform="matrix(12,0,0,12,269.6,868.8)" />
<use xlink:href="#f0_15" transform="matrix(12,0,0,12,279.5,868.8)" />
<use xlink:href="#f0_13" transform="matrix(12,0,0,12,295.6,868.8)" />
<use xlink:href="#f0_1p" transform="matrix(12,0,0,12,307.7,868.8)" />
<use xlink:href="#f0_13" transform="matrix(12,0,0,12,320.9,868.8)" />
<use xlink:href="#f0_1c" transform="matrix(12,0,0,12,333,868.8)" />
<use xlink:href="#f0_15" transform="matrix(12,0,0,12,344,868.8)" />
<use xlink:href="#f0_1f" transform="matrix(12,0,0,12,360.1,868.8)" />
<use xlink:href="#f0_16" transform="matrix(12,0,0,12,373.3,868.8)" />
<use xlink:href="#f0_11" transform="matrix(12,0,0,12,387.9,868.8)" />
<use xlink:href="#f0_1e" transform="matrix(12,0,0,12,400.8,868.8)" />
<use xlink:href="#f0_17" transform="matrix(12,0,0,12,414.3,868.8)" />
<use xlink:href="#f0_19" transform="matrix(12,0,0,12,427.9,868.8)" />
<use xlink:href="#f0_1f" transform="matrix(12,0,0,12,434.1,868.8)" />
<use xlink:href="#f0_1j" transform="matrix(12,0,0,12,447.3,868.8)" />
<use xlink:href="#f0_1g" transform="matrix(12,0,0,12,457.5,868.8)" />
<use xlink:href="#f0_15" transform="matrix(12,0,0,12,467.8,868.8)" />
<use xlink:href="#f0_1i" transform="matrix(12,0,0,12,479.1,868.8)" />
<use xlink:href="#f0_1d" transform="matrix(12,0,0,12,491.2,868.8)" />
<use xlink:href="#f0_1j" transform="matrix(12,0,0,12,507.4,868.8)" />
</g>
<image preserveAspectRatio="none" x="115" y="55" width="277" height="255" xlink:href="img/1.png" />
<image preserveAspectRatio="none" x="57" y="500" width="690" height="352" xlink:href="img/2.png" />
<g fill="#000000" >
<use xlink:href="#f2_l" transform="matrix(8,0,0,8,785.7,1264.1)" />
<use xlink:href="#f2_r" transform="matrix(8,0,0,8,792.5,1264.1)" />
</g>
<defs>
<path d="M394,460c0,0,126,0,186,57c0,0,60,57,60,187c0,0,0,123,-57,176c0,0,-58,53,-194,53H316V460ZM54,0V40L172,60V941L44,960v40H421c0,0,368,0,368,-295c0,0,0,-153,-93,-233c0,0,-93,-80,-267,-80H316V60L475,40V0Z" 
id="f0_1g"
transform="scale(0.001,-0.001)" />

<path d="M377,45c0,0,99,0,147,73c0,0,47,73,47,237c0,0,0,161,-47,233c0,0,-47,72,-147,72c0,0,-97,0,-141,-69c0,0,-44,-69,-44,-236c0,0,0,-169,45,-240c0,0,44,-70,140,-70Zm0,-59c0,0,-158,0,-238,94c0,0,-81,95,-81,274c0,0,0,178,81,272c0,0,80,94,244,94c0,0,160,0,241,-92c0,0,82,-92,82,-274c0,0,0,-368,-329,-368Z" 
id="f0_2b"
transform="scale(0.001,-0.001)" />

<path d="M31,0V33L150,52v956L31,1026v34H274V52L394,33V0Z" 
id="f0_28"
transform="scale(0.001,-0.001)" />

<path d="M495,413c0,0,0,133,-34,190c0,0,-34,57,-105,57c0,0,-78,0,-119,-63c0,0,-42,-62,-42,-184ZM374,-14c0,0,-163,0,-239,87c0,0,-75,88,-75,283c0,0,0,183,77,273c0,0,76,91,219,91c0,0,269,0,269,-306V353H194V340c0,0,0,-103,23,-160c0,0,22,-57,70,-87c0,0,47,-29,124,-29c0,0,40,0,96,6c0,0,55,7,91,15V43C598,43,562,20,500,3c0,0,-61,-17,-126,-17Z" 
id="f0_21"
transform="scale(0.001,-0.001)" />

<path d="M439,0V33l93,19V500c0,0,0,62,-30,97c0,0,-31,36,-94,36c0,0,-67,0,-165,-22V52L338,33V0H35V33l84,19V649L35,668v33H235l7,-57c0,0,57,33,122,54c0,0,65,22,108,22c0,0,91,0,137,-53c0,0,47,-53,47,-154V52L741,33V0Z" 
id="f0_2a"
transform="scale(0.001,-0.001)" />

<path d="M359,-270c0,0,124,0,192,46c0,0,67,47,67,129c0,0,0,43,-26,67c0,0,-26,24,-79,24H242c0,0,-32,-27,-51,-69c0,0,-20,-41,-20,-77c0,0,0,-64,46,-92c0,0,46,-28,142,-28Zm11,561c0,0,81,0,115,47c0,0,34,47,34,141c0,0,0,100,-35,142c0,0,-35,42,-113,42c0,0,-78,0,-114,-43c0,0,-37,-42,-37,-141c0,0,0,-98,36,-143c0,0,36,-45,114,-45ZM359,-329c0,0,-143,0,-218,44c0,0,-75,43,-75,125c0,0,0,39,27,78c0,0,26,38,98,89c0,0,-43,14,-72,48c0,0,-29,35,-29,74L208,262c0,0,-118,55,-118,217c0,0,0,115,73,178c0,0,73,63,211,63c0,0,28,0,71,-6c0,0,44,-6,67,-13l165,83l26,-32L599,644c0,0,50,-56,50,-165c0,0,0,-120,-72,-182c0,0,-73,-62,-208,-62c0,0,-62,0,-114,11L208,148c0,0,2,-13,29,-24c0,0,27,-12,67,-12H512c0,0,113,0,168,-49c0,0,55,-49,55,-134c0,0,0,-79,-44,-137c0,0,-43,-58,-128,-90c0,0,-84,-31,-204,-31Z" 
id="f0_23"
transform="scale(0.001,-0.001)" />

<path d="M31,0V33l88,19V649L31,668v33H235l7,-87c0,0,44,37,121,71c0,0,76,35,121,35h11V530H463l-43,82c0,0,-37,0,-88,-10c0,0,-52,-10,-89,-26V52L363,33V0Z" 
id="f0_2e"
transform="scale(0.001,-0.001)" />

<path d="M284,67c0,0,51,0,88,12c0,0,37,12,74,30V358l-98,-3c0,0,-100,-4,-135,-39c0,0,-35,-35,-35,-117c0,0,0,-132,106,-132ZM233,-14c0,0,-179,0,-179,208c0,0,0,70,27,116c0,0,27,46,87,70c0,0,60,24,173,27l105,3V519c0,0,0,72,-26,107c0,0,-27,34,-82,34c0,0,-75,0,-137,-35L176,538H134V691c0,0,121,26,213,26c0,0,115,0,169,-47c0,0,54,-47,54,-144V52L657,33V0H465L451,70c0,0,-85,-84,-218,-84Z" 
id="f0_1x"
transform="scale(0.001,-0.001)" />

<path d="M32,0V33L151,52V649L52,668v33H275V52L395,33V0ZM201,850c0,0,-32,0,-56,24c0,0,-24,24,-24,56c0,0,0,34,24,58c0,0,24,24,56,24c0,0,34,0,58,-24c0,0,24,-24,24,-58c0,0,0,-32,-24,-56c0,0,-24,-24,-58,-24Z" 
id="f0_25"
transform="scale(0.001,-0.001)" />

<path d="M399,-14c0,0,-341,0,-341,370c0,0,0,175,87,269c0,0,87,95,249,95c0,0,101,0,220,-23V501H573L541,625c0,0,-62,35,-149,35c0,0,-200,0,-200,-304c0,0,0,-158,61,-225c0,0,61,-67,189,-67c0,0,109,0,189,24V43C631,43,595,16,530,1c0,0,-64,-15,-131,-15Z" 
id="f0_1z"
transform="scale(0.001,-0.001)" />

<path d="M383,64c0,0,85,0,152,28V645c0,0,-67,13,-152,13c0,0,-194,0,-194,-314c0,0,0,-141,48,-211c0,0,48,-69,146,-69ZM342,-14c0,0,-287,0,-287,358c0,0,0,184,82,280c0,0,81,96,239,96c0,0,81,0,163,-18c0,0,-4,25,-4,124v182l-118,18v34H659V52L745,33V0H548l-9,52c0,0,-84,-66,-197,-66Z" 
id="f0_20"
transform="scale(0.001,-0.001)" />

<path d="M376,50c0,0,103,0,149,80c0,0,46,81,46,240c0,0,0,137,-47,204c0,0,-48,67,-148,67c0,0,-44,0,-87,-7c0,0,-44,-8,-63,-17V62c0,0,63,-12,150,-12Zm3,-64c0,0,-64,0,-141,14c0,0,-78,14,-136,37v971L0,1026v34H226V809c0,0,0,-40,-4,-148c0,0,74,59,188,59c0,0,143,0,219,-87c0,0,77,-87,77,-263c0,0,0,-189,-84,-287c0,0,-84,-97,-243,-97Z" 
id="f0_1y"
transform="scale(0.001,-0.001)" />

<path d="M148,-329c0,0,-58,0,-114,13v151H69l24,-71c0,0,23,-17,64,-17c0,0,39,0,72,22c0,0,33,23,60,67c0,0,27,44,68,157L90,649L19,668v33H344V668L233,648L423,158L606,649L497,668v33H758V668L685,652L411,-43c0,0,-48,-124,-84,-177c0,0,-36,-54,-79,-82c0,0,-44,-27,-100,-27Z" 
id="f0_2l"
transform="scale(0.001,-0.001)" />

<path d="M360,-14L72,649L0,668v33H327V668L216,648L420,164L615,649L504,668v33H764V668L697,652L416,-14Z" 
id="f0_2i"
transform="scale(0.001,-0.001)" />

<path d="M289,-14c0,0,-179,0,-179,205V649L20,668v33H233V200c0,0,0,-128,120,-128c0,0,92,0,173,23V649L420,668v33H649V52L738,33V0H533l-6,57C527,57,474,28,405,7c0,0,-69,-21,-116,-21Z" 
id="f0_2h"
transform="scale(0.001,-0.001)" />

<path d="M278,-14c0,0,-52,0,-115,11c0,0,-63,10,-99,23V193H98L134,95c0,0,56,-50,146,-50c0,0,144,0,144,123c0,0,0,91,-114,130l-66,21c0,0,-75,25,-110,50c0,0,-34,26,-53,63c0,0,-18,36,-18,89c0,0,0,92,63,145c0,0,63,54,170,54c0,0,77,0,193,-23V544H454l-32,81c0,0,-39,35,-124,35c0,0,-61,0,-92,-30c0,0,-32,-30,-32,-80c0,0,0,-43,29,-72c0,0,28,-29,86,-48c0,0,110,-38,144,-55c0,0,33,-17,57,-42c0,0,23,-25,36,-57c0,0,13,-32,13,-79c0,0,0,-104,-66,-158c0,0,-66,-53,-195,-53Z" 
id="f0_2f"
transform="scale(0.001,-0.001)" />

<path d="M249,-14c0,0,-71,0,-107,42c0,0,-35,42,-35,119V639H15v33l93,29l76,159h47V701H391V639H231V161c0,0,0,-48,22,-73c0,0,22,-24,57,-24c0,0,44,0,106,12V26C416,26,389,8,340,-2c0,0,-49,-12,-91,-12Z" 
id="f0_2g"
transform="scale(0.001,-0.001)" />

<path d="M477,0V33l64,19L348,354L257,254V52L331,33V0H44V33l89,19v956L29,1026v34H257V338L544,647l-73,20v34H718V667L631,650L431,446L688,50L764,33V0Z" 
id="f0_27"
transform="scale(0.001,-0.001)" />

<path d="M327,-14L84,649L1,668v33H335V668L219,648L385,174L554,632h63L786,171L944,649L830,668v33h267V668l-78,-16L784,-14H726L553,448L382,-14Z" 
id="f0_2j"
transform="scale(0.001,-0.001)" />

<path d="M58,-234v58c0,0,131,42,131,125c0,0,0,15,-11,27c0,0,-11,12,-38,25C140,1,89,27,89,75c0,0,0,40,25,61c0,0,26,21,65,21c0,0,48,0,77,-34c0,0,30,-34,30,-86c0,0,0,-101,-60,-170c0,0,-59,-69,-168,-101Z" 
id="f0_g"
transform="scale(0.001,-0.001)" />

<path d="M191,-20c0,0,-39,0,-65,25c0,0,-25,27,-25,64c0,0,0,38,26,64c0,0,26,26,64,26c0,0,38,0,64,-26c0,0,26,-26,26,-64c0,0,0,-37,-25,-64c0,0,-26,-25,-65,-25Z" 
id="f0_i"
transform="scale(0.001,-0.001)" />

<path d="M442,0V33l93,19V504c0,0,0,129,-124,129c0,0,-70,0,-168,-22V52L338,33V0H31V33l88,19v956L15,1026v34H243V756c0,0,0,-77,-5,-112c0,0,54,31,122,53c0,0,68,23,115,23c0,0,91,0,137,-53c0,0,47,-53,47,-154V52L744,33V0Z" 
id="f0_24"
transform="scale(0.001,-0.001)" />

<path d="M431,0V33L535,52V499c0,0,0,62,-32,96c0,0,-32,33,-95,33c0,0,-66,0,-163,-22V52L350,33V0H32V33l89,19V649L32,668v33H237l6,-57c0,0,56,32,119,54c0,0,62,22,110,22c0,0,52,0,95,-20c0,0,44,-19,66,-62c0,0,57,32,134,57c0,0,77,25,128,25c0,0,179,0,179,-207V52l90,-19V0H846V33L950,52V499c0,0,0,129,-119,129c0,0,-19,0,-45,-3c0,0,-26,-3,-52,-7c0,0,-25,-4,-49,-8c0,0,-23,-5,-39,-8c0,0,13,-41,13,-89V52L764,33V0Z" 
id="f0_29"
transform="scale(0.001,-0.001)" />

<path d="M382,45c0,0,188,0,188,314c0,0,0,143,-47,213c0,0,-46,69,-141,69c0,0,-87,0,-146,-24V58c0,0,67,-13,146,-13ZM25,-325v35l88,18V649L34,668v33H231l1,-41c0,0,31,27,84,43c0,0,53,17,107,17c0,0,134,0,208,-94c0,0,73,-93,73,-267c0,0,0,-178,-80,-276c0,0,-80,-97,-232,-97c0,0,-84,0,-160,16c0,0,4,-53,4,-84V-272l123,-18v-35Z" 
id="f0_2c"
transform="scale(0.001,-0.001)" />

<path d="M551,45c0,0,171,0,252,108c0,0,82,108,82,349c0,0,0,239,-81,344c0,0,-81,105,-253,105c0,0,-172,0,-252,-105c0,0,-80,-105,-80,-344c0,0,0,-241,80,-349c0,0,81,-108,252,-108Zm0,-59c0,0,-238,0,-363,129C188,115,63,245,63,501c0,0,0,510,488,510c0,0,242,0,366,-129c0,0,124,-130,124,-381c0,0,0,-255,-126,-385C915,116,790,-14,551,-14Z" 
id="f0_1f"
transform="scale(0.001,-0.001)" />

<path d="M64,0V34L168,59V639H47v36l121,29v49c0,0,0,155,61,239c0,0,62,84,173,84c0,0,58,0,107,-15V908H472l-33,92c0,0,-26,16,-62,16c0,0,-47,0,-66,-42c0,0,-19,-42,-19,-157V701H478V639H292V59L443,34V0Z" 
id="f0_22"
transform="scale(0.001,-0.001)" />

<path d="M41,0V34L426,641H261c0,0,-42,0,-80,-7c0,0,-39,-7,-54,-19L104,515H69V701H586V665L201,60H407c0,0,42,0,89,10c0,0,47,10,66,25l39,147h35L617,0Z" 
id="f0_2m"
transform="scale(0.001,-0.001)" />

<path d="M276,-14c0,0,-57,0,-125,13C151,-1,83,10,48,23V214H97l28,-98c0,0,26,-26,69,-44c0,0,42,-17,86,-17c0,0,65,0,97,28c0,0,32,28,32,71c0,0,0,41,-31,65c0,0,-30,25,-133,57c0,0,-108,34,-154,92c0,0,-45,58,-45,143c0,0,0,95,71,152c0,0,71,57,183,57c0,0,77,0,207,-22V518H457l-24,82c0,0,-21,22,-60,35c0,0,-40,14,-75,14c0,0,-53,0,-79,-22c0,0,-26,-22,-26,-59c0,0,0,-40,32,-65c0,0,32,-26,132,-55c0,0,109,-34,155,-89c0,0,45,-55,45,-137c0,0,0,-117,-72,-177c0,0,-72,-59,-209,-59Z" 
id="f1_2f"
transform="scale(0.001,-0.001)" />

<path d="M159,-329c0,0,-61,0,-123,14v180H81l32,-94c0,0,21,-17,55,-17c0,0,28,0,50,13c0,0,21,14,40,39c0,0,20,25,37,62c0,0,17,37,50,110L64,634L15,652v49H374V652L290,632L455,244L602,634l-82,18v49H749V652L698,637L421,-44c0,0,-47,-121,-83,-176c0,0,-36,-55,-80,-82c0,0,-43,-27,-99,-27Z" 
id="f1_2l"
transform="scale(0.001,-0.001)" />

<path d="M41,0V49l69,18V634L41,652v49H313l11,-61l50,26c0,0,105,54,188,54c0,0,194,0,194,-207V67L827,49V0H478V49l63,18V484c0,0,0,63,-27,98c0,0,-26,35,-75,35c0,0,-57,0,-114,-25V67L389,49V0Z" 
id="f1_2a"
transform="scale(0.001,-0.001)" />

<path d="M360,-256c0,0,108,0,167,35c0,0,59,35,59,98c0,0,0,70,-95,70H254c0,0,-65,-47,-65,-108c0,0,0,-47,46,-71c0,0,45,-24,125,-24Zm9,561c0,0,55,0,79,43c0,0,25,43,25,129c0,0,0,87,-24,127c0,0,-25,41,-80,41c0,0,-52,0,-75,-41c0,0,-24,-40,-24,-127c0,0,0,-86,23,-129c0,0,23,-43,76,-43Zm-9,-641c0,0,-153,0,-236,43c0,0,-84,44,-84,120c0,0,0,33,28,65c0,0,27,31,105,76c0,0,-44,17,-75,59c0,0,-31,43,-31,90L192,258c0,0,-133,56,-133,219c0,0,0,116,81,180c0,0,82,63,233,63c0,0,32,0,82,-6c0,0,51,-6,74,-13l168,83l26,-32L638,631c0,0,46,-57,46,-154c0,0,0,-119,-80,-182c0,0,-80,-64,-234,-64c0,0,-59,0,-114,9L238,183c0,0,1,-22,28,-41c0,0,26,-19,64,-19H493c0,0,256,0,256,-196c0,0,0,-81,-44,-139c0,0,-45,-59,-131,-92c0,0,-86,-32,-214,-32Z" 
id="f1_23"
transform="scale(0.001,-0.001)" />

<path d="M345,75c0,0,50,0,110,26V351l-63,-2c0,0,-72,-3,-100,-38c0,0,-28,-35,-28,-113c0,0,0,-63,22,-93c0,0,23,-30,59,-30ZM266,-14c0,0,-217,0,-217,208c0,0,0,79,32,126c0,0,32,48,93,71c0,0,60,22,190,25l91,2V521c0,0,0,126,-104,126c0,0,-62,0,-140,-39L183,521H134V691c0,0,112,17,165,21c0,0,53,5,108,5c0,0,264,0,264,-194V67L741,49V0H483L466,54C466,54,408,14,361,0c0,0,-47,-14,-95,-14Z" 
id="f1_1x"
transform="scale(0.001,-0.001)" />

<path d="M41,0V49l69,18V634L41,652v49H313l11,-61l50,26c0,0,105,54,188,54c0,0,125,0,167,-91c0,0,153,91,258,91c0,0,189,0,189,-207V67l71,-17V0H898V50l63,17V484c0,0,0,63,-24,98c0,0,-25,35,-74,35c0,0,-55,0,-119,-31c0,0,7,-32,7,-73V67L821,50V0H473V50l63,17V484c0,0,0,63,-25,98c0,0,-24,35,-73,35c0,0,-49,0,-113,-29V67L389,49V0Z" 
id="f1_29"
transform="scale(0.001,-0.001)" />

<path d="M460,-325c0,0,-148,79,-231,172c0,0,-84,93,-123,217c0,0,-39,126,-39,304c0,0,0,178,39,303c0,0,39,125,122,217c0,0,82,93,232,172V997c0,0,-91,-52,-145,-134c0,0,-54,-81,-79,-190c0,0,-25,-109,-25,-305c0,0,0,-194,26,-309c0,0,26,-114,82,-193c0,0,56,-79,141,-128v-63Z" 
id="f0_c"
transform="scale(0.001,-0.001)" />

<path d="M49,-325v63c0,0,85,49,140,128c0,0,56,79,83,194c0,0,26,115,26,308c0,0,0,196,-25,305c0,0,-25,109,-79,190c0,0,-54,82,-145,134v63c0,0,149,-80,232,-172c0,0,83,-92,122,-217c0,0,39,-125,39,-303c0,0,0,-177,-39,-303c0,0,-39,-125,-122,-217c0,0,-83,-93,-232,-173Z" 
id="f0_d"
transform="scale(0.001,-0.001)" />

<path d="M44,0V40L172,60V941L44,960v40H794V760H745L721,922c0,0,-83,11,-241,11H316V543H586l23,119h48V354H609L586,475H316V67H513c0,0,193,0,252,12l43,185h49L843,0Z" 
id="f0_15"
transform="scale(0.001,-0.001)" />

<path d="M868,0L251,900V60L385,40V0H44V40L172,60V941L44,960v40H347L862,259V941L727,960v40h341V960L940,941V0Z" 
id="f0_1e"
transform="scale(0.001,-0.001)" />

<path d="M327,-14c0,0,-101,0,-156,45c0,0,-55,45,-55,131V624H25v48l108,29l87,159H332V701H480V624H332V176c0,0,0,-49,20,-73c0,0,20,-25,53,-25c0,0,40,0,97,12V26c0,0,-22,-15,-76,-27c0,0,-55,-13,-99,-13Z" 
id="f1_2g"
transform="scale(0.001,-0.001)" />

<path d="M41,0V49l91,18V634L41,652v49H336l8,-145c0,0,80,89,144,128c0,0,64,40,117,40h40V468H604l-45,94c0,0,-47,0,-106,-21c0,0,-60,-20,-105,-48V67L460,49V0Z" 
id="f1_2e"
transform="scale(0.001,-0.001)" />

<path d="M34,0V49l76,18V634L38,652v49H325V67L402,49V0ZM217,831c0,0,-48,0,-81,33c0,0,-34,33,-34,82c0,0,0,48,34,81c0,0,34,33,81,33c0,0,48,0,81,-33c0,0,33,-33,33,-81c0,0,0,-47,-33,-81c0,0,-32,-34,-81,-34Z" 
id="f1_25"
transform="scale(0.001,-0.001)" />

<path d="M438,65c0,0,131,0,131,293c0,0,0,279,-130,279c0,0,-69,0,-127,-29V80c0,0,60,-15,126,-15ZM20,-325v50l76,18V634L19,652v49H304l1,-36c0,0,80,55,194,55c0,0,146,0,218,-86c0,0,71,-86,71,-271c0,0,0,-183,-83,-280c0,0,-83,-97,-238,-97c0,0,-79,0,-160,19c0,0,5,-48,5,-109V-257l103,-18v-50Z" 
id="f1_2c"
transform="scale(0.001,-0.001)" />

<path d="M30,0V49l76,18V992l-72,18v50H322V67L398,49V0Z" 
id="f1_28"
transform="scale(0.001,-0.001)" />

<path d="M434,423c0,0,0,101,-7,142c0,0,-6,40,-22,60c0,0,-16,19,-45,19c0,0,-44,0,-66,-48c0,0,-22,-49,-22,-173ZM389,-14c0,0,-172,0,-254,89c0,0,-83,90,-83,279c0,0,0,184,79,274c0,0,79,91,238,91c0,0,142,0,206,-76c0,0,64,-76,64,-237V345H271V333c0,0,0,-111,18,-158c0,0,18,-47,58,-72c0,0,40,-25,110,-25c0,0,66,0,166,22V42C623,42,582,18,517,1c0,0,-66,-15,-128,-15Z" 
id="f1_21"
transform="scale(0.001,-0.001)" />

<path d="M41,0V49l76,18V624H11v51l106,29v75c0,0,0,144,73,220c0,0,73,77,210,77c0,0,74,0,124,-15V894H476l-22,81c0,0,-18,17,-47,17c0,0,-74,0,-74,-189V701H475V624H333V67L447,49V0Z" 
id="f1_22"
transform="scale(0.001,-0.001)" />

<path d="M287,-18c0,0,-194,0,-194,206V634L23,652v49H309V217c0,0,0,-63,26,-98c0,0,27,-35,76,-35c0,0,57,0,113,25V634l-64,18v49H740V67L809,49V0H536L526,61L475,35c0,0,-104,-53,-188,-53Z" 
id="f1_2h"
transform="scale(0.001,-0.001)" />

<path d="M379,60c0,0,59,0,84,64c0,0,24,65,24,231c0,0,0,164,-24,227c0,0,-24,63,-84,63c0,0,-57,0,-80,-60c0,0,-22,-61,-22,-230c0,0,0,-173,23,-234c0,0,22,-61,79,-61Zm-2,-74c0,0,-161,0,-240,91c0,0,-79,91,-79,277c0,0,0,186,80,276c0,0,81,90,245,90c0,0,167,0,245,-93c0,0,78,-93,78,-273c0,0,0,-188,-81,-278c0,0,-81,-90,-248,-90Z" 
id="f1_2b"
transform="scale(0.001,-0.001)" />

<path d="M191,-20c0,0,-51,0,-88,34c0,0,-36,36,-36,88c0,0,0,52,36,88c0,0,36,36,88,36c0,0,51,0,88,-36c0,0,36,-36,36,-88c0,0,0,-51,-36,-87c0,0,-36,-35,-88,-35Z" 
id="f1_i"
transform="scale(0.001,-0.001)" />

<path d="M681,416L504,902L333,416ZM669,0V40L803,60L704,348H310L210,60L344,40V0H15V40L128,60l341,949H611L965,60L1092,40V0Z" 
id="f0_11"
transform="scale(0.001,-0.001)" />

<path d="M26,0V54L154,74V926L26,945v55H878V746H810L786,908c0,0,-83,10,-241,10H389V551H651l23,111h67V355H674L651,468H389V82H578c0,0,193,0,252,12l43,185h68L927,0Z" 
id="f1_15"
transform="scale(0.001,-0.001)" />

<path d="M416,68c0,0,60,0,124,32V628c0,0,-58,15,-118,15c0,0,-67,0,-104,-73c0,0,-38,-73,-38,-216c0,0,0,-139,36,-212c0,0,35,-74,100,-74ZM369,-14c0,0,-155,0,-231,88c0,0,-76,90,-76,274c0,0,0,182,82,277c0,0,81,95,236,95c0,0,82,0,165,-20c0,0,-5,24,-5,115V992l-72,18v50H756V67L833,49V0H562L547,40C547,40,505,13,483,4c0,0,-23,-7,-51,-12c0,0,-28,-6,-63,-6Z" 
id="f1_20"
transform="scale(0.001,-0.001)" />

<path d="M44,0V40L172,60V941L44,960v40H471V960L316,941V65H513c0,0,159,0,234,14l46,208h48L828,0Z" 
id="f0_1c"
transform="scale(0.001,-0.001)" />

<path d="M55,0V40L184,60V941L55,960v40H455V960L327,941V60L455,40V0Z" 
id="f0_19"
transform="scale(0.001,-0.001)" />

<path d="M54,0V40L172,60V941L44,960v40H794V760H745L721,922c0,0,-83,11,-241,11H316V516H611l23,120h46V328H634L611,449H316V60L483,40V0Z" 
id="f0_16"
transform="scale(0.001,-0.001)" />

<path d="M577,-14c0,0,-243,0,-379,132C198,118,63,250,63,488c0,0,0,258,130,391c0,0,131,132,387,132c0,0,156,0,335,-38l5,-218H871L848,884c0,0,-52,32,-121,50c0,0,-69,17,-141,17c0,0,-191,0,-279,-112c0,0,-88,-113,-88,-349c0,0,0,-217,92,-332c0,0,92,-115,268,-115c0,0,85,0,160,20c0,0,76,21,120,55l27,149h49L930,32c0,0,-164,-46,-353,-46Z" 
id="f0_13"
transform="scale(0.001,-0.001)" />

<path d="M322,0V40L481,60V389L130,941L17,960v40H440V960L306,941L593,480L866,941L739,960v40h326V960L955,941L625,394V60L784,40V0Z" 
id="f0_1p"
transform="scale(0.001,-0.001)" />

<path d="M577,-14c0,0,-243,0,-379,131C198,117,63,248,63,488c0,0,0,263,131,393c0,0,132,130,386,130c0,0,182,0,352,-45V751H882L862,875c0,0,-52,37,-124,57c0,0,-72,19,-152,19c0,0,-191,0,-279,-113c0,0,-88,-114,-88,-348c0,0,0,-220,91,-333c0,0,91,-114,269,-114c0,0,63,0,131,15c0,0,69,15,105,36V377L686,397v40h370V397L958,377V52C958,52,871,24,778,5c0,0,-93,-19,-201,-19Z" 
id="f0_17"
transform="scale(0.001,-0.001)" />

<path d="M410,-14c0,0,-80,0,-162,14c0,0,-81,14,-144,38V270h48L178,134c0,0,28,-35,95,-62c0,0,68,-27,134,-27c0,0,104,0,163,53c0,0,58,54,58,148c0,0,0,54,-23,89c0,0,-22,35,-59,59c0,0,-37,24,-84,41c0,0,-47,17,-97,34c0,0,-49,17,-96,38c0,0,-47,21,-84,53c0,0,-37,32,-60,79c0,0,-23,48,-23,117c0,0,0,119,90,187c0,0,89,68,248,68c0,0,121,0,263,-32V771H654L628,893c0,0,-76,55,-188,55c0,0,-100,0,-156,-40c0,0,-56,-41,-56,-112c0,0,0,-49,22,-81c0,0,23,-32,60,-55c0,0,37,-22,84,-39c0,0,48,-16,97,-34c0,0,50,-17,97,-39c0,0,48,-22,85,-56c0,0,36,-34,59,-83c0,0,23,-49,23,-120c0,0,0,-145,-89,-224c0,0,-89,-79,-256,-79Z" 
id="f0_1j"
transform="scale(0.001,-0.001)" />

<path d="M448,506c0,0,134,0,190,49c0,0,57,50,57,168c0,0,0,114,-56,162c0,0,-56,48,-195,48H316V506ZM777,0L496,438H316V60L468,40V0H54V40L172,60V941L44,960v40H476c0,0,188,0,277,-63c0,0,90,-64,90,-204c0,0,0,-100,-54,-173c0,0,-55,-73,-151,-101L909,60L1017,40V0Z" 
id="f0_1i"
transform="scale(0.001,-0.001)" />

<path d="M617,0L251,860V60L385,40V0H44V40L172,60V941L44,960v40H347L672,239l355,761h287V960L1185,941V60L1314,40V0H908V40l134,20V859L643,0Z" 
id="f0_1d"
transform="scale(0.001,-0.001)" />

<path d="M435,0V856c0,0,-48,-47,-127,-93c0,0,-79,-46,-142,-69V824c0,0,113,52,197,128c0,0,85,75,120,146h86V0Z" 
id="f2_l"
transform="scale(0.001,-0.001)" />

<path d="M225,0c0,0,2,129,51,312c0,0,48,183,139,352c0,0,91,170,193,286H72v129H780V975C780,975,676,864,573,680C573,680,470,495,414,301C414,301,374,163,363,0Z" 
id="f2_r"
transform="scale(0.001,-0.001)" />


</defs>
</svg>