<?xml version="1.0" encoding="UTF-8" standalone="no"?>
<!DOCTYPE svg PUBLIC "-//W3C//DTD SVG 1.1//EN"
"http://www.w3.org/Graphics/SVG/1.1/DTD/svg11.dtd">
<svg viewBox="0 0 935 1210" version="1.1" xmlns="http://www.w3.org/2000/svg" xmlns:xlink="http://www.w3.org/1999/xlink">
<defs>
<style type="text/css"><![CDATA[
.g0_169{
}
]]></style>
</defs>
<g fill="#000000" >
<use xlink:href="#f0_16" transform="matrix(12,0,0,12,358.8,386.2)" />
<use xlink:href="#f0_25" transform="matrix(12,0,0,12,369.8,386.2)" />
<use xlink:href="#f0_23" transform="matrix(12,0,0,12,374.8,386.2)" />
<use xlink:href="#f0_i" transform="matrix(12,0,0,12,384,386.2)" />
<use xlink:href="#f0_n" transform="matrix(12,0,0,12,393.5,386.2)" />
<use xlink:href="#f0_i" transform="matrix(12,0,0,12,402.7,386.2)" />
<use xlink:href="#f0_1d" transform="matrix(12,0,0,12,411.9,386.2)" />
<use xlink:href="#f0_21" transform="matrix(12,0,0,12,429.4,386.2)" />
<use xlink:href="#f0_2g" transform="matrix(12,0,0,12,437.1,386.2)" />
<use xlink:href="#f0_1x" transform="matrix(12,0,0,12,443.4,386.2)" />
<use xlink:href="#f0_2c" transform="matrix(12,0,0,12,452.5,386.2)" />
<use xlink:href="#f0_24" transform="matrix(12,0,0,12,462.8,386.2)" />
<use xlink:href="#f0_1x" transform="matrix(12,0,0,12,473,386.2)" />
<use xlink:href="#f0_2f" transform="matrix(12,0,0,12,482.2,386.2)" />
<use xlink:href="#f0_21" transform="matrix(12,0,0,12,489.2,386.2)" />
<use xlink:href="#f0_2b" transform="matrix(12,0,0,12,502,386.2)" />
<use xlink:href="#f0_22" transform="matrix(12,0,0,12,511.1,386.2)" />
<use xlink:href="#f0_29" transform="matrix(12,0,0,12,521.8,386.2)" />
<use xlink:href="#f0_25" transform="matrix(12,0,0,12,536.8,386.2)" />
<use xlink:href="#f0_2g" transform="matrix(12,0,0,12,541.9,386.2)" />
<use xlink:href="#f0_2b" transform="matrix(12,0,0,12,548.1,386.2)" />
<use xlink:href="#f0_2f" transform="matrix(12,0,0,12,557.3,386.2)" />
<use xlink:href="#f0_25" transform="matrix(12,0,0,12,564.3,386.2)" />
<use xlink:href="#f0_2f" transform="matrix(12,0,0,12,569.4,386.2)" />
<use xlink:href="#f0_11" transform="matrix(12,0,0,12,55,517.9)" />
<use xlink:href="#f0_2a" transform="matrix(12,0,0,12,68.3,517.9)" />
<use xlink:href="#f0_1x" transform="matrix(12,0,0,12,78.5,517.9)" />
<use xlink:href="#f0_2c" transform="matrix(12,0,0,12,87.6,517.9)" />
<use xlink:href="#f0_24" transform="matrix(12,0,0,12,97.9,517.9)" />
<use xlink:href="#f0_1x" transform="matrix(12,0,0,12,108.2,517.9)" />
<use xlink:href="#f0_2f" transform="matrix(12,0,0,12,117.3,517.9)" />
<use xlink:href="#f0_21" transform="matrix(12,0,0,12,124.3,517.9)" />
</g>
<path fill-rule="evenodd" d="M55,521.6h77.4v-1.9H55v1.9Z" class="g0_169" />
<g fill="#000000" >
<use xlink:href="#f1_19" transform="matrix(12,0,0,12,55,561.5)" />
<use xlink:href="#f1_2g" transform="matrix(12,0,0,12,61.3,561.5)" />
<use xlink:href="#f1_25" transform="matrix(12,0,0,12,71.5,561.5)" />
<use xlink:href="#f1_2f" transform="matrix(12,0,0,12,75.9,561.5)" />
<use xlink:href="#f1_2g" transform="matrix(12,0,0,12,88,561.5)" />
<use xlink:href="#f1_24" transform="matrix(12,0,0,12,93.5,561.5)" />
<use xlink:href="#f1_21" transform="matrix(12,0,0,12,102.3,561.5)" />
<use xlink:href="#f1_2f" transform="matrix(12,0,0,12,115.5,561.5)" />
<use xlink:href="#f1_24" transform="matrix(12,0,0,12,122.5,561.5)" />
<use xlink:href="#f1_2b" transform="matrix(12,0,0,12,131.3,561.5)" />
<use xlink:href="#f1_2e" transform="matrix(12,0,0,12,140.8,561.5)" />
<use xlink:href="#f1_2g" transform="matrix(12,0,0,12,147,561.5)" />
<use xlink:href="#f1_21" transform="matrix(12,0,0,12,152.5,561.5)" />
<use xlink:href="#f1_2f" transform="matrix(12,0,0,12,160.5,561.5)" />
<use xlink:href="#f1_2g" transform="matrix(12,0,0,12,167.1,561.5)" />
<use xlink:href="#f1_2f" transform="matrix(12,0,0,12,177.7,561.5)" />
<use xlink:href="#f1_2g" transform="matrix(12,0,0,12,184.3,561.5)" />
<use xlink:href="#f1_1x" transform="matrix(12,0,0,12,189.8,561.5)" />
<use xlink:href="#f1_23" transform="matrix(12,0,0,12,197.9,561.5)" />
<use xlink:href="#f1_21" transform="matrix(12,0,0,12,207.1,561.5)" />
<use xlink:href="#f1_2b" transform="matrix(12,0,0,12,219.9,561.5)" />
<use xlink:href="#f1_22" transform="matrix(12,0,0,12,229.4,561.5)" />
<use xlink:href="#f1_2g" transform="matrix(12,0,0,12,240,561.5)" />
<use xlink:href="#f1_24" transform="matrix(12,0,0,12,245.5,561.5)" />
<use xlink:href="#f1_21" transform="matrix(12,0,0,12,254.3,561.5)" />
<use xlink:href="#f1_1z" transform="matrix(12,0,0,12,267.5,561.5)" />
<use xlink:href="#f1_21" transform="matrix(12,0,0,12,275.5,561.5)" />
<use xlink:href="#f1_28" transform="matrix(12,0,0,12,283.6,561.5)" />
<use xlink:href="#f1_28" transform="matrix(12,0,0,12,288.4,561.5)" />
<use xlink:href="#f1_1z" transform="matrix(12,0,0,12,298.2,561.5)" />
<use xlink:href="#f1_2l" transform="matrix(12,0,0,12,306.7,561.5)" />
<use xlink:href="#f1_1z" transform="matrix(12,0,0,12,315.5,561.5)" />
<use xlink:href="#f1_28" transform="matrix(12,0,0,12,323.9,561.5)" />
<use xlink:href="#f1_21" transform="matrix(12,0,0,12,328.6,561.5)" />
<use xlink:href="#f1_i" transform="matrix(12,0,0,12,336.7,561.5)" />
<use xlink:href="#f1_14" transform="matrix(12,0,0,12,346.6,561.5)" />
<use xlink:href="#f1_2h" transform="matrix(12,0,0,12,359.8,561.5)" />
<use xlink:href="#f1_2e" transform="matrix(12,0,0,12,369,561.5)" />
<use xlink:href="#f1_25" transform="matrix(12,0,0,12,375.2,561.5)" />
<use xlink:href="#f1_2a" transform="matrix(12,0,0,12,379.9,561.5)" />
<use xlink:href="#f1_23" transform="matrix(12,0,0,12,388.7,561.5)" />
<use xlink:href="#f1_2g" transform="matrix(12,0,0,12,403,561.5)" />
<use xlink:href="#f1_24" transform="matrix(12,0,0,12,408.5,561.5)" />
<use xlink:href="#f1_25" transform="matrix(12,0,0,12,417.7,561.5)" />
<use xlink:href="#f1_2f" transform="matrix(12,0,0,12,422.4,561.5)" />
<use xlink:href="#f1_2c" transform="matrix(12,0,0,12,434.8,561.5)" />
<use xlink:href="#f1_24" transform="matrix(12,0,0,12,444,561.5)" />
<use xlink:href="#f1_1x" transform="matrix(12,0,0,12,452.8,561.5)" />
<use xlink:href="#f1_2f" transform="matrix(12,0,0,12,460.9,561.5)" />
<use xlink:href="#f1_21" transform="matrix(12,0,0,12,467.8,561.5)" />
<use xlink:href="#f1_g" transform="matrix(12,0,0,12,475.9,561.5)" />
<use xlink:href="#f1_2g" transform="matrix(12,0,0,12,485.8,561.5)" />
<use xlink:href="#f1_24" transform="matrix(12,0,0,12,491.3,561.5)" />
<use xlink:href="#f1_21" transform="matrix(12,0,0,12,500.1,561.5)" />
<use xlink:href="#f1_2e" transform="matrix(12,0,0,12,513.2,561.5)" />
<use xlink:href="#f1_21" transform="matrix(12,0,0,12,519.5,561.5)" />
<use xlink:href="#f1_2c" transform="matrix(12,0,0,12,527.5,561.5)" />
<use xlink:href="#f1_28" transform="matrix(12,0,0,12,536.7,561.5)" />
<use xlink:href="#f1_25" transform="matrix(12,0,0,12,541.5,561.5)" />
<use xlink:href="#f1_1z" transform="matrix(12,0,0,12,546.2,561.5)" />
<use xlink:href="#f1_1x" transform="matrix(12,0,0,12,554.3,561.5)" />
<use xlink:href="#f1_2g" transform="matrix(12,0,0,12,562.4,561.5)" />
<use xlink:href="#f1_21" transform="matrix(12,0,0,12,567.8,561.5)" />
<use xlink:href="#f1_20" transform="matrix(12,0,0,12,575.9,561.5)" />
<use xlink:href="#f1_1z" transform="matrix(12,0,0,12,590.2,561.5)" />
<use xlink:href="#f1_24" transform="matrix(12,0,0,12,598.3,561.5)" />
<use xlink:href="#f1_2e" transform="matrix(12,0,0,12,607.1,561.5)" />
<use xlink:href="#f1_2b" transform="matrix(12,0,0,12,613.3,561.5)" />
<use xlink:href="#f1_29" transform="matrix(12,0,0,12,622.8,561.5)" />
<use xlink:href="#f1_2b" transform="matrix(12,0,0,12,636.3,561.5)" />
<use xlink:href="#f1_2f" transform="matrix(12,0,0,12,645.9,561.5)" />
<use xlink:href="#f1_2b" transform="matrix(12,0,0,12,652.8,561.5)" />
<use xlink:href="#f1_29" transform="matrix(12,0,0,12,662.7,561.5)" />
<use xlink:href="#f1_21" transform="matrix(12,0,0,12,676.3,561.5)" />
<use xlink:href="#f1_2f" transform="matrix(12,0,0,12,684.3,561.5)" />
<use xlink:href="#f1_29" transform="matrix(12,0,0,12,696.8,561.5)" />
<use xlink:href="#f1_2b" transform="matrix(12,0,0,12,710.4,561.5)" />
<use xlink:href="#f1_2i" transform="matrix(12,0,0,12,721.1,561.5)" />
<use xlink:href="#f1_21" transform="matrix(12,0,0,12,729.9,561.5)" />
<use xlink:href="#f1_1x" transform="matrix(12,0,0,12,743.1,561.5)" />
<use xlink:href="#f1_2c" transform="matrix(12,0,0,12,751.2,561.5)" />
<use xlink:href="#f1_1x" transform="matrix(12,0,0,12,760.3,561.5)" />
<use xlink:href="#f1_2e" transform="matrix(12,0,0,12,768.4,561.5)" />
<use xlink:href="#f1_2g" transform="matrix(12,0,0,12,774.6,561.5)" />
<use xlink:href="#f1_1x" transform="matrix(12,0,0,12,784.9,561.5)" />
<use xlink:href="#f1_2a" transform="matrix(12,0,0,12,792.9,561.5)" />
<use xlink:href="#f1_20" transform="matrix(12,0,0,12,801.7,561.5)" />
<use xlink:href="#f1_20" transform="matrix(12,0,0,12,816,561.5)" />
<use xlink:href="#f1_1x" transform="matrix(12,0,0,12,825.2,561.5)" />
<use xlink:href="#f1_2h" transform="matrix(12,0,0,12,833.3,561.5)" />
<use xlink:href="#f1_23" transform="matrix(12,0,0,12,842.4,561.5)" />
<use xlink:href="#f1_24" transform="matrix(12,0,0,12,851.6,561.5)" />
<use xlink:href="#f1_2g" transform="matrix(12,0,0,12,860.4,561.5)" />
<use xlink:href="#f1_21" transform="matrix(12,0,0,12,865.9,561.5)" />
<use xlink:href="#f1_2e" transform="matrix(12,0,0,12,873.9,561.5)" />
<use xlink:href="#f1_1z" transform="matrix(12,0,0,12,55,593.1)" />
<use xlink:href="#f1_24" transform="matrix(12,0,0,12,63.1,593.1)" />
<use xlink:href="#f1_2e" transform="matrix(12,0,0,12,71.9,593.1)" />
<use xlink:href="#f1_2b" transform="matrix(12,0,0,12,78.1,593.1)" />
<use xlink:href="#f1_29" transform="matrix(12,0,0,12,88,593.1)" />
<use xlink:href="#f1_1x" transform="matrix(12,0,0,12,101.6,593.1)" />
<use xlink:href="#f1_2g" transform="matrix(12,0,0,12,109.6,593.1)" />
<use xlink:href="#f1_25" transform="matrix(12,0,0,12,115.5,593.1)" />
<use xlink:href="#f1_20" transform="matrix(12,0,0,12,119.9,593.1)" />
<use xlink:href="#f1_2f" transform="matrix(12,0,0,12,129,593.1)" />
<use xlink:href="#f1_29" transform="matrix(12,0,0,12,144.4,593.1)" />
<use xlink:href="#f1_2b" transform="matrix(12,0,0,12,158,593.1)" />
<use xlink:href="#f1_2i" transform="matrix(12,0,0,12,167.5,593.1)" />
<use xlink:href="#f1_21" transform="matrix(12,0,0,12,176.7,593.1)" />
<use xlink:href="#f1_2g" transform="matrix(12,0,0,12,192.9,593.1)" />
<use xlink:href="#f1_2b" transform="matrix(12,0,0,12,198,593.1)" />
<use xlink:href="#f1_2g" transform="matrix(12,0,0,12,214.9,593.1)" />
<use xlink:href="#f1_24" transform="matrix(12,0,0,12,220.4,593.1)" />
<use xlink:href="#f1_21" transform="matrix(12,0,0,12,229.2,593.1)" />
<use xlink:href="#f1_2b" transform="matrix(12,0,0,12,245.3,593.1)" />
<use xlink:href="#f1_2c" transform="matrix(12,0,0,12,254.8,593.1)" />
<use xlink:href="#f1_2c" transform="matrix(12,0,0,12,264,593.1)" />
<use xlink:href="#f1_2b" transform="matrix(12,0,0,12,272.8,593.1)" />
<use xlink:href="#f1_2f" transform="matrix(12,0,0,12,282.3,593.1)" />
<use xlink:href="#f1_25" transform="matrix(12,0,0,12,289.3,593.1)" />
<use xlink:href="#f1_2g" transform="matrix(12,0,0,12,293.7,593.1)" />
<use xlink:href="#f1_21" transform="matrix(12,0,0,12,299.2,593.1)" />
<use xlink:href="#f1_2c" transform="matrix(12,0,0,12,315.3,593.1)" />
<use xlink:href="#f1_2b" transform="matrix(12,0,0,12,324.4,593.1)" />
<use xlink:href="#f1_28" transform="matrix(12,0,0,12,334,593.1)" />
<use xlink:href="#f1_21" transform="matrix(12,0,0,12,338.4,593.1)" />
<use xlink:href="#f1_2f" transform="matrix(12,0,0,12,346.4,593.1)" />
<use xlink:href="#f1_i" transform="matrix(12,0,0,12,353.4,593.1)" />
<use xlink:href="#f1_13" transform="matrix(12,0,0,12,366.2,593.1)" />
<use xlink:href="#f1_24" transform="matrix(12,0,0,12,378.3,593.1)" />
<use xlink:href="#f1_2e" transform="matrix(12,0,0,12,387.1,593.1)" />
<use xlink:href="#f1_2b" transform="matrix(12,0,0,12,393.3,593.1)" />
<use xlink:href="#f1_29" transform="matrix(12,0,0,12,403.2,593.1)" />
<use xlink:href="#f1_2b" transform="matrix(12,0,0,12,416.8,593.1)" />
<use xlink:href="#f1_2f" transform="matrix(12,0,0,12,426.3,593.1)" />
<use xlink:href="#f1_2b" transform="matrix(12,0,0,12,433.2,593.1)" />
<use xlink:href="#f1_29" transform="matrix(12,0,0,12,442.8,593.1)" />
<use xlink:href="#f1_21" transform="matrix(12,0,0,12,456.7,593.1)" />
<use xlink:href="#f1_2f" transform="matrix(12,0,0,12,464.8,593.1)" />
<use xlink:href="#f1_1x" transform="matrix(12,0,0,12,479.8,593.1)" />
<use xlink:href="#f1_2e" transform="matrix(12,0,0,12,487.8,593.1)" />
<use xlink:href="#f1_21" transform="matrix(12,0,0,12,494,593.1)" />
<use xlink:href="#f1_29" transform="matrix(12,0,0,12,510.5,593.1)" />
<use xlink:href="#f1_1x" transform="matrix(12,0,0,12,524.1,593.1)" />
<use xlink:href="#f1_2k" transform="matrix(12,0,0,12,532.5,593.1)" />
<use xlink:href="#f1_25" transform="matrix(12,0,0,12,541.7,593.1)" />
<use xlink:href="#f1_29" transform="matrix(12,0,0,12,546.8,593.1)" />
<use xlink:href="#f1_1x" transform="matrix(12,0,0,12,560.7,593.1)" />
<use xlink:href="#f1_28" transform="matrix(12,0,0,12,569.2,593.1)" />
<use xlink:href="#f1_28" transform="matrix(12,0,0,12,574.3,593.1)" />
<use xlink:href="#f1_2l" transform="matrix(12,0,0,12,579.4,593.1)" />
<use xlink:href="#f1_1z" transform="matrix(12,0,0,12,595.9,593.1)" />
<use xlink:href="#f1_2b" transform="matrix(12,0,0,12,604,593.1)" />
<use xlink:href="#f1_2a" transform="matrix(12,0,0,12,613.5,593.1)" />
<use xlink:href="#f1_20" transform="matrix(12,0,0,12,622.3,593.1)" />
<use xlink:href="#f1_21" transform="matrix(12,0,0,12,631.4,593.1)" />
<use xlink:href="#f1_2a" transform="matrix(12,0,0,12,639.9,593.1)" />
<use xlink:href="#f1_2f" transform="matrix(12,0,0,12,649,593.1)" />
<use xlink:href="#f1_21" transform="matrix(12,0,0,12,656,593.1)" />
<use xlink:href="#f1_20" transform="matrix(12,0,0,12,664.1,593.1)" />
<use xlink:href="#f1_20" transform="matrix(12,0,0,12,681.3,593.1)" />
<use xlink:href="#f1_2h" transform="matrix(12,0,0,12,690.4,593.1)" />
<use xlink:href="#f1_2e" transform="matrix(12,0,0,12,699.6,593.1)" />
<use xlink:href="#f1_25" transform="matrix(12,0,0,12,706.2,593.1)" />
<use xlink:href="#f1_2a" transform="matrix(12,0,0,12,711,593.1)" />
<use xlink:href="#f1_23" transform="matrix(12,0,0,12,719.8,593.1)" />
<use xlink:href="#f1_28" transform="matrix(12,0,0,12,737.3,593.1)" />
<use xlink:href="#f1_1x" transform="matrix(12,0,0,12,741.7,593.1)" />
<use xlink:href="#f1_2g" transform="matrix(12,0,0,12,749.8,593.1)" />
<use xlink:href="#f1_21" transform="matrix(12,0,0,12,755.3,593.1)" />
<use xlink:href="#f1_1x" transform="matrix(12,0,0,12,771.4,593.1)" />
<use xlink:href="#f1_2a" transform="matrix(12,0,0,12,779.5,593.1)" />
<use xlink:href="#f1_1x" transform="matrix(12,0,0,12,788.3,593.1)" />
<use xlink:href="#f1_2c" transform="matrix(12,0,0,12,796.7,593.1)" />
<use xlink:href="#f1_24" transform="matrix(12,0,0,12,805.8,593.1)" />
<use xlink:href="#f1_1x" transform="matrix(12,0,0,12,814.6,593.1)" />
<use xlink:href="#f1_2f" transform="matrix(12,0,0,12,823.1,593.1)" />
<use xlink:href="#f1_21" transform="matrix(12,0,0,12,830,593.1)" />
<use xlink:href="#f1_i" transform="matrix(12,0,0,12,838.1,593.1)" />
<use xlink:href="#f1_1k" transform="matrix(12,0,0,12,850.9,593.1)" />
<use xlink:href="#f1_24" transform="matrix(12,0,0,12,862.2,593.1)" />
<use xlink:href="#f1_21" transform="matrix(12,0,0,12,871,593.1)" />
<use xlink:href="#f1_1z" transform="matrix(12,0,0,12,55,625)" />
<use xlink:href="#f1_24" transform="matrix(12,0,0,12,63.1,625)" />
<use xlink:href="#f1_2e" transform="matrix(12,0,0,12,71.9,625)" />
<use xlink:href="#f1_2b" transform="matrix(12,0,0,12,78.1,625)" />
<use xlink:href="#f1_29" transform="matrix(12,0,0,12,88,625)" />
<use xlink:href="#f1_2b" transform="matrix(12,0,0,12,101.6,625)" />
<use xlink:href="#f1_2f" transform="matrix(12,0,0,12,111.1,625)" />
<use xlink:href="#f1_2b" transform="matrix(12,0,0,12,118,625)" />
<use xlink:href="#f1_29" transform="matrix(12,0,0,12,127.6,625)" />
<use xlink:href="#f1_21" transform="matrix(12,0,0,12,141.1,625)" />
<use xlink:href="#f1_2f" transform="matrix(12,0,0,12,149.5,625)" />
<use xlink:href="#f1_1x" transform="matrix(12,0,0,12,161.3,625)" />
<use xlink:href="#f1_2c" transform="matrix(12,0,0,12,169.3,625)" />
<use xlink:href="#f1_2c" transform="matrix(12,0,0,12,178.5,625)" />
<use xlink:href="#f1_21" transform="matrix(12,0,0,12,187.7,625)" />
<use xlink:href="#f1_1x" transform="matrix(12,0,0,12,195.7,625)" />
<use xlink:href="#f1_2e" transform="matrix(12,0,0,12,203.8,625)" />
<use xlink:href="#f1_1p" transform="matrix(12,0,0,12,214.8,625)" />
<use xlink:href="#f1_h" transform="matrix(12,0,0,12,228.1,625)" />
<use xlink:href="#f1_2f" transform="matrix(12,0,0,12,239.1,625)" />
<use xlink:href="#f1_24" transform="matrix(12,0,0,12,246.1,625)" />
<use xlink:href="#f1_1x" transform="matrix(12,0,0,12,254.9,625)" />
<use xlink:href="#f1_2c" transform="matrix(12,0,0,12,263,625)" />
<use xlink:href="#f1_21" transform="matrix(12,0,0,12,272.1,625)" />
<use xlink:href="#f1_20" transform="matrix(12,0,0,12,280.2,625)" />
<use xlink:href="#f1_1x" transform="matrix(12,0,0,12,294.1,625)" />
<use xlink:href="#f1_2f" transform="matrix(12,0,0,12,302.2,625)" />
<use xlink:href="#f1_2g" transform="matrix(12,0,0,12,313.9,625)" />
<use xlink:href="#f1_24" transform="matrix(12,0,0,12,319.4,625)" />
<use xlink:href="#f1_21" transform="matrix(12,0,0,12,328.2,625)" />
<use xlink:href="#f1_2l" transform="matrix(12,0,0,12,336.6,625)" />
<use xlink:href="#f1_29" transform="matrix(12,0,0,12,350.2,625)" />
<use xlink:href="#f1_2b" transform="matrix(12,0,0,12,363.7,625)" />
<use xlink:href="#f1_2i" transform="matrix(12,0,0,12,373.6,625)" />
<use xlink:href="#f1_21" transform="matrix(12,0,0,12,382.4,625)" />
<use xlink:href="#f1_2g" transform="matrix(12,0,0,12,395.2,625)" />
<use xlink:href="#f1_2b" transform="matrix(12,0,0,12,400.7,625)" />
<use xlink:href="#f1_2g" transform="matrix(12,0,0,12,414.3,625)" />
<use xlink:href="#f1_24" transform="matrix(12,0,0,12,420,625)" />
<use xlink:href="#f1_21" transform="matrix(12,0,0,12,428.8,625)" />
<use xlink:href="#f1_2b" transform="matrix(12,0,0,12,441.6,625)" />
<use xlink:href="#f1_2c" transform="matrix(12,0,0,12,451.1,625)" />
<use xlink:href="#f1_2c" transform="matrix(12,0,0,12,460.3,625)" />
<use xlink:href="#f1_2b" transform="matrix(12,0,0,12,469.1,625)" />
<use xlink:href="#f1_2f" transform="matrix(12,0,0,12,478.6,625)" />
<use xlink:href="#f1_25" transform="matrix(12,0,0,12,485.6,625)" />
<use xlink:href="#f1_2g" transform="matrix(12,0,0,12,490,625)" />
<use xlink:href="#f1_21" transform="matrix(12,0,0,12,495.4,625)" />
<use xlink:href="#f1_2c" transform="matrix(12,0,0,12,508.3,625)" />
<use xlink:href="#f1_2b" transform="matrix(12,0,0,12,517.4,625)" />
<use xlink:href="#f1_28" transform="matrix(12,0,0,12,526.9,625)" />
<use xlink:href="#f1_21" transform="matrix(12,0,0,12,531.3,625)" />
<use xlink:href="#f1_2f" transform="matrix(12,0,0,12,539.4,625)" />
<use xlink:href="#f1_i" transform="matrix(12,0,0,12,546.4,625)" />
<use xlink:href="#f0_16" transform="matrix(12,0,0,12,362.8,1072.1)" />
<use xlink:href="#f0_25" transform="matrix(12,0,0,12,373.8,1072.1)" />
<use xlink:href="#f0_23" transform="matrix(12,0,0,12,378.9,1072.1)" />
<use xlink:href="#f0_i" transform="matrix(12,0,0,12,388,1072.1)" />
<use xlink:href="#f0_o" transform="matrix(12,0,0,12,397.6,1072.1)" />
<use xlink:href="#f0_i" transform="matrix(12,0,0,12,406.7,1072.1)" />
<use xlink:href="#f0_11" transform="matrix(12,0,0,12,415.9,1072.1)" />
<use xlink:href="#f0_2a" transform="matrix(12,0,0,12,429.1,1072.1)" />
<use xlink:href="#f0_1x" transform="matrix(12,0,0,12,439.3,1072.1)" />
<use xlink:href="#f0_2c" transform="matrix(12,0,0,12,448.5,1072.1)" />
<use xlink:href="#f0_24" transform="matrix(12,0,0,12,458.8,1072.1)" />
<use xlink:href="#f0_1x" transform="matrix(12,0,0,12,469,1072.1)" />
<use xlink:href="#f0_2f" transform="matrix(12,0,0,12,478.2,1072.1)" />
<use xlink:href="#f0_21" transform="matrix(12,0,0,12,485.2,1072.1)" />
<use xlink:href="#f0_2b" transform="matrix(12,0,0,12,498,1072.1)" />
<use xlink:href="#f0_22" transform="matrix(12,0,0,12,507.1,1072.1)" />
<use xlink:href="#f0_29" transform="matrix(12,0,0,12,517.8,1072.1)" />
<use xlink:href="#f0_25" transform="matrix(12,0,0,12,532.8,1072.1)" />
<use xlink:href="#f0_2g" transform="matrix(12,0,0,12,537.9,1072.1)" />
<use xlink:href="#f0_2b" transform="matrix(12,0,0,12,544.1,1072.1)" />
<use xlink:href="#f0_2f" transform="matrix(12,0,0,12,553.3,1072.1)" />
<use xlink:href="#f0_25" transform="matrix(12,0,0,12,560.3,1072.1)" />
<use xlink:href="#f0_2f" transform="matrix(12,0,0,12,565.4,1072.1)" />
<use xlink:href="#f0_1k" transform="matrix(12,0,0,12,55,1115.7)" />
<use xlink:href="#f0_21" transform="matrix(12,0,0,12,67.1,1115.7)" />
<use xlink:href="#f0_28" transform="matrix(12,0,0,12,75.2,1115.7)" />
<use xlink:href="#f0_2b" transform="matrix(12,0,0,12,80,1115.7)" />
<use xlink:href="#f0_2c" transform="matrix(12,0,0,12,89.1,1115.7)" />
<use xlink:href="#f0_24" transform="matrix(12,0,0,12,99.4,1115.7)" />
<use xlink:href="#f0_1x" transform="matrix(12,0,0,12,109.6,1115.7)" />
<use xlink:href="#f0_2f" transform="matrix(12,0,0,12,118.8,1115.7)" />
<use xlink:href="#f0_21" transform="matrix(12,0,0,12,126.1,1115.7)" />
</g>
<path fill-rule="evenodd" d="M55,1119.4h79.6v-1.8H55v1.8Z" class="g0_169" />
<image preserveAspectRatio="none" x="282" y="55" width="370" height="290" xlink:href="img/1.png" />
<image preserveAspectRatio="none" x="309" y="651" width="315" height="381" xlink:href="img/2.png" />
<g fill="#000000" >
<use xlink:href="#f2_n" transform="matrix(8,0,0,8,818.2,1187.9)" />
</g>
<defs>
<path d="M36,0V54L154,74V926L26,945v55H860V731H790L766,908c0,0,-36,5,-121,8c0,0,-84,2,-133,2H389V508H633l23,127h67V298H656L633,426H389V74L556,54V0Z" 
id="f0_16"
transform="scale(0.001,-0.001)" />

<path d="M34,0V49l76,18V634L38,652v49H325V67L402,49V0ZM217,831c0,0,-48,0,-81,33c0,0,-34,33,-34,82c0,0,0,48,34,81c0,0,34,33,81,33c0,0,48,0,81,-33c0,0,33,-33,33,-81c0,0,0,-47,-33,-81c0,0,-32,-34,-81,-34Z" 
id="f0_25"
transform="scale(0.001,-0.001)" />

<path d="M360,-256c0,0,108,0,167,35c0,0,59,35,59,98c0,0,0,70,-95,70H254c0,0,-65,-47,-65,-108c0,0,0,-47,46,-71c0,0,45,-24,125,-24Zm9,561c0,0,55,0,79,43c0,0,25,43,25,129c0,0,0,87,-24,127c0,0,-25,41,-80,41c0,0,-52,0,-75,-41c0,0,-24,-40,-24,-127c0,0,0,-86,23,-129c0,0,23,-43,76,-43Zm-9,-641c0,0,-153,0,-236,43c0,0,-84,44,-84,120c0,0,0,33,28,65c0,0,27,31,105,76c0,0,-44,17,-75,59c0,0,-31,43,-31,90L192,258c0,0,-133,56,-133,219c0,0,0,116,81,180c0,0,82,63,233,63c0,0,32,0,82,-6c0,0,51,-6,74,-13l168,83l26,-32L638,631c0,0,46,-57,46,-154c0,0,0,-119,-80,-182c0,0,-80,-64,-234,-64c0,0,-59,0,-114,9L238,183c0,0,1,-22,28,-41c0,0,26,-19,64,-19H493c0,0,256,0,256,-196c0,0,0,-81,-44,-139c0,0,-45,-59,-131,-92c0,0,-86,-32,-214,-32Z" 
id="f0_23"
transform="scale(0.001,-0.001)" />

<path d="M191,-20c0,0,-51,0,-88,34c0,0,-36,36,-36,88c0,0,0,52,36,88c0,0,36,36,88,36c0,0,51,0,88,-36c0,0,36,-36,36,-88c0,0,0,-51,-36,-87c0,0,-36,-35,-88,-35Z" 
id="f0_i"
transform="scale(0.001,-0.001)" />

<path d="M342,-14c0,0,-138,0,-276,29L57,258h69L165,96c0,0,65,-36,136,-36c0,0,90,0,141,58c0,0,50,57,50,161c0,0,0,91,-40,139c0,0,-41,48,-132,54l-87,5v90l84,6c0,0,66,5,98,49c0,0,32,44,32,134c0,0,0,83,-38,131c0,0,-38,48,-107,48c0,0,-40,0,-66,-13c0,0,-26,-12,-49,-26L155,751H90V979c0,0,76,19,132,26c0,0,55,6,108,6c0,0,337,0,337,-246c0,0,0,-102,-54,-164c0,0,-54,-63,-153,-78c0,0,252,-30,252,-251c0,0,0,-136,-98,-211c0,0,-98,-75,-272,-75Z" 
id="f0_n"
transform="scale(0.001,-0.001)" />

<path d="M900,0V54l135,20V845L658,0H617L248,845V74L382,54V0H26V54L154,74V926L26,945v55H419L705,342l292,658h401V945L1270,926V74L1398,54V0Z" 
id="f0_1d"
transform="scale(0.001,-0.001)" />

<path d="M434,423c0,0,0,101,-7,142c0,0,-6,40,-22,60c0,0,-16,19,-45,19c0,0,-44,0,-66,-48c0,0,-22,-49,-22,-173ZM389,-14c0,0,-172,0,-254,89c0,0,-83,90,-83,279c0,0,0,184,79,274c0,0,79,91,238,91c0,0,142,0,206,-76c0,0,64,-76,64,-237V345H271V333c0,0,0,-111,18,-158c0,0,18,-47,58,-72c0,0,40,-25,110,-25c0,0,66,0,166,22V42C623,42,582,18,517,1c0,0,-66,-15,-128,-15Z" 
id="f0_21"
transform="scale(0.001,-0.001)" />

<path d="M327,-14c0,0,-101,0,-156,45c0,0,-55,45,-55,131V624H25v48l108,29l87,159H332V701H480V624H332V176c0,0,0,-49,20,-73c0,0,20,-25,53,-25c0,0,40,0,97,12V26c0,0,-22,-15,-76,-27c0,0,-55,-13,-99,-13Z" 
id="f0_2g"
transform="scale(0.001,-0.001)" />

<path d="M345,75c0,0,50,0,110,26V351l-63,-2c0,0,-72,-3,-100,-38c0,0,-28,-35,-28,-113c0,0,0,-63,22,-93c0,0,23,-30,59,-30ZM266,-14c0,0,-217,0,-217,208c0,0,0,79,32,126c0,0,32,48,93,71c0,0,60,22,190,25l91,2V521c0,0,0,126,-104,126c0,0,-62,0,-140,-39L183,521H134V691c0,0,112,17,165,21c0,0,53,5,108,5c0,0,264,0,264,-194V67L741,49V0H483L466,54C466,54,408,14,361,0c0,0,-47,-14,-95,-14Z" 
id="f0_1x"
transform="scale(0.001,-0.001)" />

<path d="M438,65c0,0,131,0,131,293c0,0,0,279,-130,279c0,0,-69,0,-127,-29V80c0,0,60,-15,126,-15ZM20,-325v50l76,18V634L19,652v49H304l1,-36c0,0,80,55,194,55c0,0,146,0,218,-86c0,0,71,-86,71,-271c0,0,0,-183,-83,-280c0,0,-83,-97,-238,-97c0,0,-79,0,-160,19c0,0,5,-48,5,-109V-257l103,-18v-50Z" 
id="f0_2c"
transform="scale(0.001,-0.001)" />

<path d="M41,0V49l69,18V992l-72,18v50H325V756c0,0,0,-49,-4,-116l51,26c0,0,106,54,190,54c0,0,194,0,194,-207V67L827,49V0H478V49l63,18V484c0,0,0,63,-27,98c0,0,-26,35,-75,35c0,0,-57,0,-114,-25V67L389,49V0Z" 
id="f0_24"
transform="scale(0.001,-0.001)" />

<path d="M276,-14c0,0,-57,0,-125,13C151,-1,83,10,48,23V214H97l28,-98c0,0,26,-26,69,-44c0,0,42,-17,86,-17c0,0,65,0,97,28c0,0,32,28,32,71c0,0,0,41,-31,65c0,0,-30,25,-133,57c0,0,-108,34,-154,92c0,0,-45,58,-45,143c0,0,0,95,71,152c0,0,71,57,183,57c0,0,77,0,207,-22V518H457l-24,82c0,0,-21,22,-60,35c0,0,-40,14,-75,14c0,0,-53,0,-79,-22c0,0,-26,-22,-26,-59c0,0,0,-40,32,-65c0,0,32,-26,132,-55c0,0,109,-34,155,-89c0,0,45,-55,45,-137c0,0,0,-117,-72,-177c0,0,-72,-59,-209,-59Z" 
id="f0_2f"
transform="scale(0.001,-0.001)" />

<path d="M379,60c0,0,59,0,84,64c0,0,24,65,24,231c0,0,0,164,-24,227c0,0,-24,63,-84,63c0,0,-57,0,-80,-60c0,0,-22,-61,-22,-230c0,0,0,-173,23,-234c0,0,22,-61,79,-61Zm-2,-74c0,0,-161,0,-240,91c0,0,-79,91,-79,277c0,0,0,186,80,276c0,0,81,90,245,90c0,0,167,0,245,-93c0,0,78,-93,78,-273c0,0,0,-188,-81,-278c0,0,-81,-90,-248,-90Z" 
id="f0_2b"
transform="scale(0.001,-0.001)" />

<path d="M41,0V49l76,18V624H11v51l106,29v75c0,0,0,144,73,220c0,0,73,77,210,77c0,0,74,0,124,-15V894H476l-22,81c0,0,-18,17,-47,17c0,0,-74,0,-74,-189V701H475V624H333V67L447,49V0Z" 
id="f0_22"
transform="scale(0.001,-0.001)" />

<path d="M41,0V49l69,18V634L41,652v49H313l11,-61l50,26c0,0,105,54,188,54c0,0,125,0,167,-91c0,0,153,91,258,91c0,0,189,0,189,-207V67l71,-17V0H898V50l63,17V484c0,0,0,63,-24,98c0,0,-25,35,-74,35c0,0,-55,0,-119,-31c0,0,7,-32,7,-73V67L821,50V0H473V50l63,17V484c0,0,0,63,-25,98c0,0,-24,35,-73,35c0,0,-49,0,-113,-29V67L389,49V0Z" 
id="f0_29"
transform="scale(0.001,-0.001)" />

<path d="M639,416L478,858L313,416ZM647,0V54L762,74L667,333H283L191,74L319,54V0H15V54L90,74l355,935H662L1016,74l76,-20V0Z" 
id="f0_11"
transform="scale(0.001,-0.001)" />

<path d="M41,0V49l69,18V634L41,652v49H313l11,-61l50,26c0,0,105,54,188,54c0,0,194,0,194,-207V67L827,49V0H478V49l63,18V484c0,0,0,63,-27,98c0,0,-26,35,-75,35c0,0,-57,0,-114,-25V67L389,49V0Z" 
id="f0_2a"
transform="scale(0.001,-0.001)" />

<path d="M55,0V40L184,60V941L55,960v40H455V960L327,941V60L455,40V0Z" 
id="f1_19"
transform="scale(0.001,-0.001)" />

<path d="M249,-14c0,0,-71,0,-107,42c0,0,-35,42,-35,119V639H15v33l93,29l76,159h47V701H391V639H231V161c0,0,0,-48,22,-73c0,0,22,-24,57,-24c0,0,44,0,106,12V26C416,26,389,8,340,-2c0,0,-49,-12,-91,-12Z" 
id="f1_2g"
transform="scale(0.001,-0.001)" />

<path d="M32,0V33L151,52V649L52,668v33H275V52L395,33V0ZM201,850c0,0,-32,0,-56,24c0,0,-24,24,-24,56c0,0,0,34,24,58c0,0,24,24,56,24c0,0,34,0,58,-24c0,0,24,-24,24,-58c0,0,0,-32,-24,-56c0,0,-24,-24,-58,-24Z" 
id="f1_25"
transform="scale(0.001,-0.001)" />

<path d="M278,-14c0,0,-52,0,-115,11c0,0,-63,10,-99,23V193H98L134,95c0,0,56,-50,146,-50c0,0,144,0,144,123c0,0,0,91,-114,130l-66,21c0,0,-75,25,-110,50c0,0,-34,26,-53,63c0,0,-18,36,-18,89c0,0,0,92,63,145c0,0,63,54,170,54c0,0,77,0,193,-23V544H454l-32,81c0,0,-39,35,-124,35c0,0,-61,0,-92,-30c0,0,-32,-30,-32,-80c0,0,0,-43,29,-72c0,0,28,-29,86,-48c0,0,110,-38,144,-55c0,0,33,-17,57,-42c0,0,23,-25,36,-57c0,0,13,-32,13,-79c0,0,0,-104,-66,-158c0,0,-66,-53,-195,-53Z" 
id="f1_2f"
transform="scale(0.001,-0.001)" />

<path d="M442,0V33l93,19V504c0,0,0,129,-124,129c0,0,-70,0,-168,-22V52L338,33V0H31V33l88,19v956L15,1026v34H243V756c0,0,0,-77,-5,-112c0,0,54,31,122,53c0,0,68,23,115,23c0,0,91,0,137,-53c0,0,47,-53,47,-154V52L744,33V0Z" 
id="f1_24"
transform="scale(0.001,-0.001)" />

<path d="M495,413c0,0,0,133,-34,190c0,0,-34,57,-105,57c0,0,-78,0,-119,-63c0,0,-42,-62,-42,-184ZM374,-14c0,0,-163,0,-239,87c0,0,-75,88,-75,283c0,0,0,183,77,273c0,0,76,91,219,91c0,0,269,0,269,-306V353H194V340c0,0,0,-103,23,-160c0,0,22,-57,70,-87c0,0,47,-29,124,-29c0,0,40,0,96,6c0,0,55,7,91,15V43C598,43,562,20,500,3c0,0,-61,-17,-126,-17Z" 
id="f1_21"
transform="scale(0.001,-0.001)" />

<path d="M377,45c0,0,99,0,147,73c0,0,47,73,47,237c0,0,0,161,-47,233c0,0,-47,72,-147,72c0,0,-97,0,-141,-69c0,0,-44,-69,-44,-236c0,0,0,-169,45,-240c0,0,44,-70,140,-70Zm0,-59c0,0,-158,0,-238,94c0,0,-81,95,-81,274c0,0,0,178,81,272c0,0,80,94,244,94c0,0,160,0,241,-92c0,0,82,-92,82,-274c0,0,0,-368,-329,-368Z" 
id="f1_2b"
transform="scale(0.001,-0.001)" />

<path d="M31,0V33l88,19V649L31,668v33H235l7,-87c0,0,44,37,121,71c0,0,76,35,121,35h11V530H463l-43,82c0,0,-37,0,-88,-10c0,0,-52,-10,-89,-26V52L363,33V0Z" 
id="f1_2e"
transform="scale(0.001,-0.001)" />

<path d="M284,67c0,0,51,0,88,12c0,0,37,12,74,30V358l-98,-3c0,0,-100,-4,-135,-39c0,0,-35,-35,-35,-117c0,0,0,-132,106,-132ZM233,-14c0,0,-179,0,-179,208c0,0,0,70,27,116c0,0,27,46,87,70c0,0,60,24,173,27l105,3V519c0,0,0,72,-26,107c0,0,-27,34,-82,34c0,0,-75,0,-137,-35L176,538H134V691c0,0,121,26,213,26c0,0,115,0,169,-47c0,0,54,-47,54,-144V52L657,33V0H465L451,70c0,0,-85,-84,-218,-84Z" 
id="f1_1x"
transform="scale(0.001,-0.001)" />

<path d="M359,-270c0,0,124,0,192,46c0,0,67,47,67,129c0,0,0,43,-26,67c0,0,-26,24,-79,24H242c0,0,-32,-27,-51,-69c0,0,-20,-41,-20,-77c0,0,0,-64,46,-92c0,0,46,-28,142,-28Zm11,561c0,0,81,0,115,47c0,0,34,47,34,141c0,0,0,100,-35,142c0,0,-35,42,-113,42c0,0,-78,0,-114,-43c0,0,-37,-42,-37,-141c0,0,0,-98,36,-143c0,0,36,-45,114,-45ZM359,-329c0,0,-143,0,-218,44c0,0,-75,43,-75,125c0,0,0,39,27,78c0,0,26,38,98,89c0,0,-43,14,-72,48c0,0,-29,35,-29,74L208,262c0,0,-118,55,-118,217c0,0,0,115,73,178c0,0,73,63,211,63c0,0,28,0,71,-6c0,0,44,-6,67,-13l165,83l26,-32L599,644c0,0,50,-56,50,-165c0,0,0,-120,-72,-182c0,0,-73,-62,-208,-62c0,0,-62,0,-114,11L208,148c0,0,2,-13,29,-24c0,0,27,-12,67,-12H512c0,0,113,0,168,-49c0,0,55,-49,55,-134c0,0,0,-79,-44,-137c0,0,-43,-58,-128,-90c0,0,-84,-31,-204,-31Z" 
id="f1_23"
transform="scale(0.001,-0.001)" />

<path d="M64,0V34L168,59V639H47v36l121,29v49c0,0,0,155,61,239c0,0,62,84,173,84c0,0,58,0,107,-15V908H472l-33,92c0,0,-26,16,-62,16c0,0,-47,0,-66,-42c0,0,-19,-42,-19,-157V701H478V639H292V59L443,34V0Z" 
id="f1_22"
transform="scale(0.001,-0.001)" />

<path d="M399,-14c0,0,-341,0,-341,370c0,0,0,175,87,269c0,0,87,95,249,95c0,0,101,0,220,-23V501H573L541,625c0,0,-62,35,-149,35c0,0,-200,0,-200,-304c0,0,0,-158,61,-225c0,0,61,-67,189,-67c0,0,109,0,189,24V43C631,43,595,16,530,1c0,0,-64,-15,-131,-15Z" 
id="f1_1z"
transform="scale(0.001,-0.001)" />

<path d="M31,0V33L150,52v956L31,1026v34H274V52L394,33V0Z" 
id="f1_28"
transform="scale(0.001,-0.001)" />

<path d="M148,-329c0,0,-58,0,-114,13v151H69l24,-71c0,0,23,-17,64,-17c0,0,39,0,72,22c0,0,33,23,60,67c0,0,27,44,68,157L90,649L19,668v33H344V668L233,648L423,158L606,649L497,668v33H758V668L685,652L411,-43c0,0,-48,-124,-84,-177c0,0,-36,-54,-79,-82c0,0,-44,-27,-100,-27Z" 
id="f1_2l"
transform="scale(0.001,-0.001)" />

<path d="M191,-20c0,0,-39,0,-65,25c0,0,-25,27,-25,64c0,0,0,38,26,64c0,0,26,26,64,26c0,0,38,0,64,-26c0,0,26,-26,26,-64c0,0,0,-37,-25,-64c0,0,-26,-25,-65,-25Z" 
id="f1_i"
transform="scale(0.001,-0.001)" />

<path d="M529,65c0,0,183,0,270,108c0,0,87,108,87,334c0,0,0,210,-113,318c0,0,-113,108,-322,108H316V71c0,0,90,-6,213,-6Zm0,-67L172,0H44V40L172,60V941L44,960v40H498c0,0,277,0,411,-123c0,0,133,-124,133,-371c0,0,0,-251,-129,-380C913,126,785,-2,529,-2Z" 
id="f1_14"
transform="scale(0.001,-0.001)" />

<path d="M289,-14c0,0,-179,0,-179,205V649L20,668v33H233V200c0,0,0,-128,120,-128c0,0,92,0,173,23V649L420,668v33H649V52L738,33V0H533l-6,57C527,57,474,28,405,7c0,0,-69,-21,-116,-21Z" 
id="f1_2h"
transform="scale(0.001,-0.001)" />

<path d="M439,0V33l93,19V500c0,0,0,62,-30,97c0,0,-31,36,-94,36c0,0,-67,0,-165,-22V52L338,33V0H35V33l84,19V649L35,668v33H235l7,-57c0,0,57,33,122,54c0,0,65,22,108,22c0,0,91,0,137,-53c0,0,47,-53,47,-154V52L741,33V0Z" 
id="f1_2a"
transform="scale(0.001,-0.001)" />

<path d="M382,45c0,0,188,0,188,314c0,0,0,143,-47,213c0,0,-46,69,-141,69c0,0,-87,0,-146,-24V58c0,0,67,-13,146,-13ZM25,-325v35l88,18V649L34,668v33H231l1,-41c0,0,31,27,84,43c0,0,53,17,107,17c0,0,134,0,208,-94c0,0,73,-93,73,-267c0,0,0,-178,-80,-276c0,0,-80,-97,-232,-97c0,0,-84,0,-160,16c0,0,4,-53,4,-84V-272l123,-18v-35Z" 
id="f1_2c"
transform="scale(0.001,-0.001)" />

<path d="M58,-234v58c0,0,131,42,131,125c0,0,0,15,-11,27c0,0,-11,12,-38,25C140,1,89,27,89,75c0,0,0,40,25,61c0,0,26,21,65,21c0,0,48,0,77,-34c0,0,30,-34,30,-86c0,0,0,-101,-60,-170c0,0,-59,-69,-168,-101Z" 
id="f1_g"
transform="scale(0.001,-0.001)" />

<path d="M383,64c0,0,85,0,152,28V645c0,0,-67,13,-152,13c0,0,-194,0,-194,-314c0,0,0,-141,48,-211c0,0,48,-69,146,-69ZM342,-14c0,0,-287,0,-287,358c0,0,0,184,82,280c0,0,81,96,239,96c0,0,81,0,163,-18c0,0,-4,25,-4,124v182l-118,18v34H659V52L745,33V0H548l-9,52c0,0,-84,-66,-197,-66Z" 
id="f1_20"
transform="scale(0.001,-0.001)" />

<path d="M431,0V33L535,52V499c0,0,0,62,-32,96c0,0,-32,33,-95,33c0,0,-66,0,-163,-22V52L350,33V0H32V33l89,19V649L32,668v33H237l6,-57c0,0,56,32,119,54c0,0,62,22,110,22c0,0,52,0,95,-20c0,0,44,-19,66,-62c0,0,57,32,134,57c0,0,77,25,128,25c0,0,179,0,179,-207V52l90,-19V0H846V33L950,52V499c0,0,0,129,-119,129c0,0,-19,0,-45,-3c0,0,-26,-3,-52,-7c0,0,-25,-4,-49,-8c0,0,-23,-5,-39,-8c0,0,13,-41,13,-89V52L764,33V0Z" 
id="f1_29"
transform="scale(0.001,-0.001)" />

<path d="M360,-14L72,649L0,668v33H327V668L216,648L420,164L615,649L504,668v33H764V668L697,652L416,-14Z" 
id="f1_2i"
transform="scale(0.001,-0.001)" />

<path d="M577,-14c0,0,-243,0,-379,132C198,118,63,250,63,488c0,0,0,258,130,391c0,0,131,132,387,132c0,0,156,0,335,-38l5,-218H871L848,884c0,0,-52,32,-121,50c0,0,-69,17,-141,17c0,0,-191,0,-279,-112c0,0,-88,-113,-88,-349c0,0,0,-217,92,-332c0,0,92,-115,268,-115c0,0,85,0,160,20c0,0,76,21,120,55l27,149h49L930,32c0,0,-164,-46,-353,-46Z" 
id="f1_13"
transform="scale(0.001,-0.001)" />

<path d="M13,0V34L95,46L325,350L122,649L40,668v33H357V668L264,648L399,446L554,649l-96,19v33H710V668L630,652L433,397L663,50L745,34V0H427V34l94,17L359,299L169,50L266,34V0Z" 
id="f1_2k"
transform="scale(0.001,-0.001)" />

<path d="M235,0V40L394,60V936H356c0,0,-189,0,-258,-15L78,766H28v234H908V766H857L837,921c0,0,-22,5,-98,9c0,0,-75,4,-165,4H538V60L697,40V0Z" 
id="f1_1k"
transform="scale(0.001,-0.001)" />

<path d="M322,0V40L481,60V389L130,941L17,960v40H440V960L306,941L593,480L866,941L739,960v40h326V960L955,941L625,394V60L784,40V0Z" 
id="f1_1p"
transform="scale(0.001,-0.001)" />

<path d="M57,302V417H454V302Z" 
id="f1_h"
transform="scale(0.001,-0.001)" />

<path d="M435,350V646c0,0,0,84,7,158L145,350ZM435,0V198H21V319l450,686H636V350H736V198H636V0Z" 
id="f0_o"
transform="scale(0.001,-0.001)" />

<path d="M231,0V54L390,74V921H352c0,0,-171,0,-240,-15L92,721H24v279H996V721H927L907,906c0,0,-62,14,-245,14H626V74L785,54V0Z" 
id="f0_1k"
transform="scale(0.001,-0.001)" />

<path d="M30,0V49l76,18V992l-72,18v50H322V67L398,49V0Z" 
id="f0_28"
transform="scale(0.001,-0.001)" />

<path d="M412,-18c0,0,-144,0,-239,85c0,0,-95,86,-108,222l133,18c0,0,24,-114,79,-164c0,0,55,-50,135,-50c0,0,96,0,161,65c0,0,65,66,65,163c0,0,0,92,-61,152c0,0,-60,60,-153,60c0,0,-38,0,-95,-15l15,119c0,0,13,-2,21,-2c0,0,86,0,155,45c0,0,69,44,69,137c0,0,0,74,-50,122c0,0,-50,49,-129,49c0,0,-79,0,-131,-50c0,0,-52,-49,-67,-147L78,815c0,0,25,135,112,209c0,0,87,74,217,74c0,0,89,0,164,-38c0,0,76,-39,116,-105c0,0,40,-66,40,-141c0,0,0,-70,-39,-129c0,0,-38,-58,-112,-92c0,0,97,-22,151,-93c0,0,53,-70,53,-176c0,0,0,-143,-104,-243c0,0,-105,-99,-264,-99Z" 
id="f2_n"
transform="scale(0.001,-0.001)" />


</defs>
</svg>