<?xml version="1.0" encoding="UTF-8" standalone="no"?>
<!DOCTYPE svg PUBLIC "-//W3C//DTD SVG 1.1//EN"
"http://www.w3.org/Graphics/SVG/1.1/DTD/svg11.dtd">
<svg viewBox="0 0 909 1286" version="1.1" xmlns="http://www.w3.org/2000/svg" xmlns:xlink="http://www.w3.org/1999/xlink">
<defs>
<style type="text/css"><![CDATA[
.g0_67{
fill: #FFFFFF;
}
.g1_67{
}
]]></style>
</defs>
<path fill-rule="evenodd" d="M107.8,321.3H856.9V55H107.8V321.3Z" class="g0_67" />
<image preserveAspectRatio="none" x="110" y="55" width="421" height="266" xlink:href="img/1.png" />
<path fill-rule="evenodd" d="M52.8,342.6H856.9V321.3H52.8v21.3Z" class="g0_67" />
<g fill="#000000" >
<use xlink:href="#f0_11" transform="matrix(12,0,0,12,55,338.1)" />
<use xlink:href="#f0_23" transform="matrix(12,0,0,12,67.9,338.1)" />
<use xlink:href="#f0_2a" transform="matrix(12,0,0,12,77.4,338.1)" />
<use xlink:href="#f0_1x" transform="matrix(12,0,0,12,86.2,338.1)" />
<use xlink:href="#f0_2g" transform="matrix(12,0,0,12,94.3,338.1)" />
<use xlink:href="#f0_24" transform="matrix(12,0,0,12,99.7,338.1)" />
<use xlink:href="#f0_1x" transform="matrix(12,0,0,12,108.5,338.1)" />
<use xlink:href="#f0_c" transform="matrix(12,0,0,12,121.3,338.1)" />
<use xlink:href="#f0_1a" transform="matrix(12,0,0,12,127.6,338.1)" />
<use xlink:href="#f0_1x" transform="matrix(12,0,0,12,134.5,338.1)" />
<use xlink:href="#f0_2j" transform="matrix(12,0,0,12,142.6,338.1)" />
<use xlink:href="#f0_28" transform="matrix(12,0,0,12,156.1,338.1)" />
<use xlink:href="#f0_21" transform="matrix(12,0,0,12,160.9,338.1)" />
<use xlink:href="#f0_2f" transform="matrix(12,0,0,12,169.3,338.1)" />
<use xlink:href="#f0_2f" transform="matrix(12,0,0,12,176.3,338.1)" />
<use xlink:href="#f0_d" transform="matrix(12,0,0,12,183.3,338.1)" />
<use xlink:href="#f0_u" transform="matrix(12,0,0,12,189.5,338.1)" />
<use xlink:href="#f0_19" transform="matrix(12,0,0,12,199.5,338.1)" />
<use xlink:href="#f0_2a" transform="matrix(12,0,0,12,205.8,338.1)" />
<use xlink:href="#f0_1z" transform="matrix(12,0,0,12,214.6,338.1)" />
<use xlink:href="#f0_28" transform="matrix(12,0,0,12,223,338.1)" />
<use xlink:href="#f0_2h" transform="matrix(12,0,0,12,227.7,338.1)" />
<use xlink:href="#f0_20" transform="matrix(12,0,0,12,236.9,338.1)" />
<use xlink:href="#f0_21" transform="matrix(12,0,0,12,246.1,338.1)" />
<use xlink:href="#f0_2f" transform="matrix(12,0,0,12,254.5,338.1)" />
<use xlink:href="#f0_l" transform="matrix(12,0,0,12,266.2,338.1)" />
<use xlink:href="#f0_1z" transform="matrix(12,0,0,12,280.1,338.1)" />
<use xlink:href="#f0_28" transform="matrix(12,0,0,12,288.5,338.1)" />
<use xlink:href="#f0_1x" transform="matrix(12,0,0,12,292.9,338.1)" />
<use xlink:href="#f0_2f" transform="matrix(12,0,0,12,301,338.1)" />
<use xlink:href="#f0_2f" transform="matrix(12,0,0,12,308.3,338.1)" />
<use xlink:href="#f0_u" transform="matrix(12,0,0,12,315.3,338.1)" />
<use xlink:href="#f0_13" transform="matrix(12,0,0,12,325.2,338.1)" />
<use xlink:href="#f0_2l" transform="matrix(12,0,0,12,337.6,338.1)" />
<use xlink:href="#f0_1z" transform="matrix(12,0,0,12,346.4,338.1)" />
<use xlink:href="#f0_28" transform="matrix(12,0,0,12,354.8,338.1)" />
<use xlink:href="#f0_2b" transform="matrix(12,0,0,12,359.2,338.1)" />
<use xlink:href="#f0_2f" transform="matrix(12,0,0,12,368.7,338.1)" />
<use xlink:href="#f0_2g" transform="matrix(12,0,0,12,375.7,338.1)" />
<use xlink:href="#f0_2b" transform="matrix(12,0,0,12,381.2,338.1)" />
<use xlink:href="#f0_29" transform="matrix(12,0,0,12,390.7,338.1)" />
<use xlink:href="#f0_1x" transform="matrix(12,0,0,12,404.3,338.1)" />
<use xlink:href="#f0_2g" transform="matrix(12,0,0,12,412.3,338.1)" />
<use xlink:href="#f0_1x" transform="matrix(12,0,0,12,417.8,338.1)" />
</g>
<path fill-rule="evenodd" d="M52.8,363.5H856.9V342.6H52.8v20.9Z" class="g0_67" />
<path fill-rule="evenodd" d="M52.8,384.7H856.9V363.5H52.8v21.2Z" class="g0_67" />
<g fill="#000000" >
<use xlink:href="#f1_o" transform="matrix(12,0,0,12,55,380.3)" />
<use xlink:href="#f1_i" transform="matrix(12,0,0,12,64.2,380.3)" />
<use xlink:href="#f1_m" transform="matrix(12,0,0,12,69,380.3)" />
<use xlink:href="#f1_i" transform="matrix(12,0,0,12,78.1,380.3)" />
<use xlink:href="#f1_l" transform="matrix(12,0,0,12,82.9,380.3)" />
<use xlink:href="#f1_l" transform="matrix(12,0,0,12,92,380.3)" />
<use xlink:href="#f1_i" transform="matrix(12,0,0,12,100.8,380.3)" />
<use xlink:href="#f1_l" transform="matrix(12,0,0,12,105.6,380.3)" />
<use xlink:href="#f1_13" transform="matrix(12,0,0,12,119.6,380.3)" />
<use xlink:href="#f1_28" transform="matrix(12,0,0,12,132.8,380.3)" />
<use xlink:href="#f1_1x" transform="matrix(12,0,0,12,137.5,380.3)" />
<use xlink:href="#f1_2f" transform="matrix(12,0,0,12,146.7,380.3)" />
<use xlink:href="#f1_2f" transform="matrix(12,0,0,12,153.7,380.3)" />
<use xlink:href="#f1_u" transform="matrix(12,0,0,12,160.6,380.3)" />
<use xlink:href="#f1_13" transform="matrix(12,0,0,12,171.6,380.3)" />
<use xlink:href="#f1_2l" transform="matrix(12,0,0,12,184.8,380.3)" />
<use xlink:href="#f1_1z" transform="matrix(12,0,0,12,194,380.3)" />
<use xlink:href="#f1_28" transform="matrix(12,0,0,12,202,380.3)" />
<use xlink:href="#f1_2b" transform="matrix(12,0,0,12,206.8,380.3)" />
<use xlink:href="#f1_2f" transform="matrix(12,0,0,12,216.3,380.3)" />
<use xlink:href="#f1_2g" transform="matrix(12,0,0,12,223.3,380.3)" />
<use xlink:href="#f1_2b" transform="matrix(12,0,0,12,229.5,380.3)" />
<use xlink:href="#f1_29" transform="matrix(12,0,0,12,238.7,380.3)" />
<use xlink:href="#f1_1x" transform="matrix(12,0,0,12,253.7,380.3)" />
<use xlink:href="#f1_2g" transform="matrix(12,0,0,12,262.9,380.3)" />
<use xlink:href="#f1_1x" transform="matrix(12,0,0,12,269.1,380.3)" />
<use xlink:href="#f1_u" transform="matrix(12,0,0,12,278.2,380.3)" />
</g>
<path fill-rule="evenodd" d="M52.8,405.6H856.9V384.7H52.8v20.9Z" class="g0_67" />
<g fill="#000000" >
<use xlink:href="#f0_18" transform="matrix(12,0,0,12,55,401.6)" />
<use xlink:href="#f0_1x" transform="matrix(12,0,0,12,68.3,401.6)" />
<use xlink:href="#f0_2i" transform="matrix(12,0,0,12,76.3,401.6)" />
<use xlink:href="#f0_21" transform="matrix(12,0,0,12,85.1,401.6)" />
<use xlink:href="#f0_2f" transform="matrix(12,0,0,12,97.9,401.6)" />
<use xlink:href="#f0_2h" transform="matrix(12,0,0,12,104.9,401.6)" />
<use xlink:href="#f0_1z" transform="matrix(12,0,0,12,114.4,401.6)" />
<use xlink:href="#f0_27" transform="matrix(12,0,0,12,122.5,401.6)" />
<use xlink:href="#f0_25" transform="matrix(12,0,0,12,132,401.6)" />
<use xlink:href="#f0_2a" transform="matrix(12,0,0,12,136.7,401.6)" />
<use xlink:href="#f0_23" transform="matrix(12,0,0,12,145.5,401.6)" />
<use xlink:href="#f0_1x" transform="matrix(12,0,0,12,159.5,401.6)" />
<use xlink:href="#f0_2a" transform="matrix(12,0,0,12,167.9,401.6)" />
<use xlink:href="#f0_20" transform="matrix(12,0,0,12,176.7,401.6)" />
<use xlink:href="#f0_1z" transform="matrix(12,0,0,12,190.6,401.6)" />
<use xlink:href="#f0_25" transform="matrix(12,0,0,12,199,401.6)" />
<use xlink:href="#f0_2e" transform="matrix(12,0,0,12,203.4,401.6)" />
<use xlink:href="#f0_1z" transform="matrix(12,0,0,12,210,401.6)" />
<use xlink:href="#f0_2h" transform="matrix(12,0,0,12,218.1,401.6)" />
<use xlink:href="#f0_28" transform="matrix(12,0,0,12,227.6,401.6)" />
<use xlink:href="#f0_1x" transform="matrix(12,0,0,12,232.3,401.6)" />
<use xlink:href="#f0_2e" transform="matrix(12,0,0,12,240.4,401.6)" />
<use xlink:href="#f0_29" transform="matrix(12,0,0,12,251.7,401.6)" />
<use xlink:href="#f0_2b" transform="matrix(12,0,0,12,265.3,401.6)" />
<use xlink:href="#f0_2h" transform="matrix(12,0,0,12,274.8,401.6)" />
<use xlink:href="#f0_2g" transform="matrix(12,0,0,12,284,401.6)" />
<use xlink:href="#f0_24" transform="matrix(12,0,0,12,289.5,401.6)" />
<use xlink:href="#f0_2j" transform="matrix(12,0,0,12,303,401.6)" />
<use xlink:href="#f0_25" transform="matrix(12,0,0,12,316.2,401.6)" />
<use xlink:href="#f0_2g" transform="matrix(12,0,0,12,320.6,401.6)" />
<use xlink:href="#f0_24" transform="matrix(12,0,0,12,326.1,401.6)" />
<use xlink:href="#f0_2b" transform="matrix(12,0,0,12,334.9,401.6)" />
<use xlink:href="#f0_2h" transform="matrix(12,0,0,12,344.4,401.6)" />
<use xlink:href="#f0_2g" transform="matrix(12,0,0,12,353.6,401.6)" />
<use xlink:href="#f0_26" transform="matrix(12,0,0,12,363.5,401.6)" />
<use xlink:href="#f0_1x" transform="matrix(12,0,0,12,367.9,401.6)" />
<use xlink:href="#f0_2j" transform="matrix(12,0,0,12,376.3,401.6)" />
<use xlink:href="#f0_2f" transform="matrix(12,0,0,12,389.5,401.6)" />
<use xlink:href="#f0_i" transform="matrix(12,0,0,12,396.4,401.6)" />
</g>
<path fill-rule="evenodd" d="M52.8,426.9H856.9V405.6H52.8v21.3Z" class="g0_67" />
<g fill="#000000" >
<use xlink:href="#f0_1c" transform="matrix(12,0,0,12,55,422.5)" />
<use xlink:href="#f0_25" transform="matrix(12,0,0,12,66.4,422.5)" />
<use xlink:href="#f0_2i" transform="matrix(12,0,0,12,71.2,422.5)" />
<use xlink:href="#f0_21" transform="matrix(12,0,0,12,80.3,422.5)" />
<use xlink:href="#f0_1x" transform="matrix(12,0,0,12,93.1,422.5)" />
<use xlink:href="#f0_2f" transform="matrix(12,0,0,12,101.2,422.5)" />
<use xlink:href="#f0_21" transform="matrix(12,0,0,12,112.9,422.5)" />
<use xlink:href="#f0_1z" transform="matrix(12,0,0,12,121,422.5)" />
<use xlink:href="#f0_2g" transform="matrix(12,0,0,12,129,422.5)" />
<use xlink:href="#f0_2b" transform="matrix(12,0,0,12,134.5,422.5)" />
<use xlink:href="#f0_2c" transform="matrix(12,0,0,12,144,422.5)" />
<use xlink:href="#f0_1x" transform="matrix(12,0,0,12,153.2,422.5)" />
<use xlink:href="#f0_2e" transform="matrix(12,0,0,12,160.9,422.5)" />
<use xlink:href="#f0_1x" transform="matrix(12,0,0,12,167.1,422.5)" />
<use xlink:href="#f0_2f" transform="matrix(12,0,0,12,175.2,422.5)" />
<use xlink:href="#f0_25" transform="matrix(12,0,0,12,182.5,422.5)" />
<use xlink:href="#f0_2g" transform="matrix(12,0,0,12,186.9,422.5)" />
<use xlink:href="#f0_21" transform="matrix(12,0,0,12,192.4,422.5)" />
<use xlink:href="#f0_2f" transform="matrix(12,0,0,12,200.5,422.5)" />
<use xlink:href="#f0_2b" transform="matrix(12,0,0,12,212.2,422.5)" />
<use xlink:href="#f0_2a" transform="matrix(12,0,0,12,221.7,422.5)" />
<use xlink:href="#f0_2f" transform="matrix(12,0,0,12,235.2,422.5)" />
<use xlink:href="#f0_2b" transform="matrix(12,0,0,12,242.2,422.5)" />
<use xlink:href="#f0_29" transform="matrix(12,0,0,12,251.7,422.5)" />
<use xlink:href="#f0_21" transform="matrix(12,0,0,12,265.3,422.5)" />
<use xlink:href="#f0_22" transform="matrix(12,0,0,12,278.5,422.5)" />
<use xlink:href="#f0_25" transform="matrix(12,0,0,12,284.3,422.5)" />
<use xlink:href="#f0_2f" transform="matrix(12,0,0,12,289.1,422.5)" />
<use xlink:href="#f0_24" transform="matrix(12,0,0,12,296.4,422.5)" />
<use xlink:href="#f0_21" transform="matrix(12,0,0,12,305.6,422.5)" />
<use xlink:href="#f0_2f" transform="matrix(12,0,0,12,313.6,422.5)" />
<use xlink:href="#f0_i" transform="matrix(12,0,0,12,320.6,422.5)" />
</g>
<path fill-rule="evenodd" d="M52.8,447.8H856.9V426.9H52.8v20.9Z" class="g0_67" />
<g fill="#000000" >
<use xlink:href="#f0_14" transform="matrix(12,0,0,12,55,443.8)" />
<use xlink:href="#f0_21" transform="matrix(12,0,0,12,68.3,443.8)" />
<use xlink:href="#f0_2i" transform="matrix(12,0,0,12,76.3,443.8)" />
<use xlink:href="#f0_2b" transform="matrix(12,0,0,12,85.1,443.8)" />
<use xlink:href="#f0_25" transform="matrix(12,0,0,12,95,443.8)" />
<use xlink:href="#f0_20" transform="matrix(12,0,0,12,99.4,443.8)" />
<use xlink:href="#f0_2b" transform="matrix(12,0,0,12,113.3,443.8)" />
<use xlink:href="#f0_22" transform="matrix(12,0,0,12,122.8,443.8)" />
<use xlink:href="#f0_2f" transform="matrix(12,0,0,12,133.1,443.8)" />
<use xlink:href="#f0_1z" transform="matrix(12,0,0,12,140,443.8)" />
<use xlink:href="#f0_1x" transform="matrix(12,0,0,12,148.5,443.8)" />
<use xlink:href="#f0_28" transform="matrix(12,0,0,12,156.9,443.8)" />
<use xlink:href="#f0_21" transform="matrix(12,0,0,12,161.6,443.8)" />
<use xlink:href="#f0_2f" transform="matrix(12,0,0,12,169.7,443.8)" />
<use xlink:href="#f0_g" transform="matrix(12,0,0,12,176.7,443.8)" />
<use xlink:href="#f0_2a" transform="matrix(12,0,0,12,186.2,443.8)" />
<use xlink:href="#f0_2b" transform="matrix(12,0,0,12,195,443.8)" />
<use xlink:href="#f0_2c" transform="matrix(12,0,0,12,209.2,443.8)" />
<use xlink:href="#f0_1x" transform="matrix(12,0,0,12,218.4,443.8)" />
<use xlink:href="#f0_25" transform="matrix(12,0,0,12,226.8,443.8)" />
<use xlink:href="#f0_2e" transform="matrix(12,0,0,12,231.2,443.8)" />
<use xlink:href="#f0_21" transform="matrix(12,0,0,12,237.4,443.8)" />
<use xlink:href="#f0_20" transform="matrix(12,0,0,12,245.5,443.8)" />
<use xlink:href="#f0_22" transform="matrix(12,0,0,12,259.8,443.8)" />
<use xlink:href="#f0_25" transform="matrix(12,0,0,12,265.7,443.8)" />
<use xlink:href="#f0_2a" transform="matrix(12,0,0,12,270.4,443.8)" />
<use xlink:href="#f0_2f" transform="matrix(12,0,0,12,279.6,443.8)" />
<use xlink:href="#f0_i" transform="matrix(12,0,0,12,286.6,443.8)" />
</g>
<path fill-rule="evenodd" d="M52.8,469.1H856.9V447.8H52.8v21.3Z" class="g0_67" />
<g fill="#000000" >
<use xlink:href="#f0_13" transform="matrix(12,0,0,12,55,464.7)" />
<use xlink:href="#f0_2e" transform="matrix(12,0,0,12,67.1,464.7)" />
<use xlink:href="#f0_1x" transform="matrix(12,0,0,12,73.4,464.7)" />
<use xlink:href="#f0_2a" transform="matrix(12,0,0,12,81.4,464.7)" />
<use xlink:href="#f0_25" transform="matrix(12,0,0,12,90.6,464.7)" />
<use xlink:href="#f0_2h" transform="matrix(12,0,0,12,95.4,464.7)" />
<use xlink:href="#f0_29" transform="matrix(12,0,0,12,104.9,464.7)" />
<use xlink:href="#f0_1x" transform="matrix(12,0,0,12,123.5,464.7)" />
<use xlink:href="#f0_2a" transform="matrix(12,0,0,12,132,464.7)" />
<use xlink:href="#f0_20" transform="matrix(12,0,0,12,140.8,464.7)" />
<use xlink:href="#f0_2i" transform="matrix(12,0,0,12,154.7,464.7)" />
<use xlink:href="#f0_21" transform="matrix(12,0,0,12,163.5,464.7)" />
<use xlink:href="#f0_2e" transform="matrix(12,0,0,12,171.5,464.7)" />
<use xlink:href="#f0_2g" transform="matrix(12,0,0,12,177.8,464.7)" />
<use xlink:href="#f0_21" transform="matrix(12,0,0,12,183.2,464.7)" />
<use xlink:href="#f0_1y" transform="matrix(12,0,0,12,191.3,464.7)" />
<use xlink:href="#f0_2e" transform="matrix(12,0,0,12,200.1,464.7)" />
<use xlink:href="#f0_1x" transform="matrix(12,0,0,12,206.3,464.7)" />
<use xlink:href="#f0_28" transform="matrix(12,0,0,12,214.7,464.7)" />
<use xlink:href="#f0_1z" transform="matrix(12,0,0,12,223.9,464.7)" />
<use xlink:href="#f0_2b" transform="matrix(12,0,0,12,232,464.7)" />
<use xlink:href="#f0_28" transform="matrix(12,0,0,12,241.8,464.7)" />
<use xlink:href="#f0_2h" transform="matrix(12,0,0,12,246.2,464.7)" />
<use xlink:href="#f0_29" transform="matrix(12,0,0,12,255.8,464.7)" />
<use xlink:href="#f0_2a" transform="matrix(12,0,0,12,269.7,464.7)" />
<use xlink:href="#f0_25" transform="matrix(12,0,0,12,284,464.7)" />
<use xlink:href="#f0_2f" transform="matrix(12,0,0,12,288.7,464.7)" />
<use xlink:href="#f0_1z" transform="matrix(12,0,0,12,300.4,464.7)" />
<use xlink:href="#f0_1x" transform="matrix(12,0,0,12,308.5,464.7)" />
<use xlink:href="#f0_2e" transform="matrix(12,0,0,12,316.6,464.7)" />
<use xlink:href="#f0_2g" transform="matrix(12,0,0,12,322.8,464.7)" />
<use xlink:href="#f0_25" transform="matrix(12,0,0,12,328.3,464.7)" />
<use xlink:href="#f0_28" transform="matrix(12,0,0,12,333,464.7)" />
<use xlink:href="#f0_1x" transform="matrix(12,0,0,12,337.8,464.7)" />
<use xlink:href="#f0_23" transform="matrix(12,0,0,12,345.9,464.7)" />
<use xlink:href="#f0_25" transform="matrix(12,0,0,12,355.4,464.7)" />
<use xlink:href="#f0_2a" transform="matrix(12,0,0,12,360.2,464.7)" />
<use xlink:href="#f0_2b" transform="matrix(12,0,0,12,369,464.7)" />
<use xlink:href="#f0_2h" transform="matrix(12,0,0,12,378.5,464.7)" />
<use xlink:href="#f0_2f" transform="matrix(12,0,0,12,388,464.7)" />
<use xlink:href="#f0_i" transform="matrix(12,0,0,12,395,464.7)" />
</g>
<path fill-rule="evenodd" d="M52.8,490H856.9V469.1H52.8V490Z" class="g0_67" />
<g fill="#000000" >
<use xlink:href="#f0_1d" transform="matrix(12,0,0,12,55,486)" />
<use xlink:href="#f0_1x" transform="matrix(12,0,0,12,71.2,486)" />
<use xlink:href="#f0_2e" transform="matrix(12,0,0,12,79.2,486)" />
<use xlink:href="#f0_25" transform="matrix(12,0,0,12,85.8,486)" />
<use xlink:href="#f0_2a" transform="matrix(12,0,0,12,90.6,486)" />
<use xlink:href="#f0_21" transform="matrix(12,0,0,12,99.4,486)" />
<use xlink:href="#f0_24" transform="matrix(12,0,0,12,112.6,486)" />
<use xlink:href="#f0_1x" transform="matrix(12,0,0,12,121.4,486)" />
<use xlink:href="#f0_1y" transform="matrix(12,0,0,12,129.8,486)" />
<use xlink:href="#f0_25" transform="matrix(12,0,0,12,138.9,486)" />
<use xlink:href="#f0_2g" transform="matrix(12,0,0,12,143.3,486)" />
<use xlink:href="#f0_1y" transform="matrix(12,0,0,12,153.6,486)" />
<use xlink:href="#f0_2h" transform="matrix(12,0,0,12,162.4,486)" />
<use xlink:href="#f0_2g" transform="matrix(12,0,0,12,171.5,486)" />
<use xlink:href="#f0_29" transform="matrix(12,0,0,12,182.1,486)" />
<use xlink:href="#f0_25" transform="matrix(12,0,0,12,196.1,486)" />
<use xlink:href="#f0_23" transform="matrix(12,0,0,12,200.5,486)" />
<use xlink:href="#f0_2e" transform="matrix(12,0,0,12,209.6,486)" />
<use xlink:href="#f0_1x" transform="matrix(12,0,0,12,215.9,486)" />
<use xlink:href="#f0_2g" transform="matrix(12,0,0,12,223.9,486)" />
<use xlink:href="#f0_21" transform="matrix(12,0,0,12,229.4,486)" />
<use xlink:href="#f0_2f" transform="matrix(12,0,0,12,237.5,486)" />
<use xlink:href="#f0_2g" transform="matrix(12,0,0,12,249.2,486)" />
<use xlink:href="#f0_2b" transform="matrix(12,0,0,12,254.3,486)" />
<use xlink:href="#f0_22" transform="matrix(12,0,0,12,268.6,486)" />
<use xlink:href="#f0_2e" transform="matrix(12,0,0,12,274.1,486)" />
<use xlink:href="#f0_21" transform="matrix(12,0,0,12,280.3,486)" />
<use xlink:href="#f0_2f" transform="matrix(12,0,0,12,288.4,486)" />
<use xlink:href="#f0_24" transform="matrix(12,0,0,12,295.7,486)" />
<use xlink:href="#f0_2j" transform="matrix(12,0,0,12,309.2,486)" />
<use xlink:href="#f0_1x" transform="matrix(12,0,0,12,322.5,486)" />
<use xlink:href="#f0_2g" transform="matrix(12,0,0,12,330.5,486)" />
<use xlink:href="#f0_21" transform="matrix(12,0,0,12,336,486)" />
<use xlink:href="#f0_2e" transform="matrix(12,0,0,12,344,486)" />
<use xlink:href="#f0_22" transform="matrix(12,0,0,12,355,486)" />
<use xlink:href="#f0_2b" transform="matrix(12,0,0,12,360.5,486)" />
<use xlink:href="#f0_2e" transform="matrix(12,0,0,12,370,486)" />
<use xlink:href="#f0_2f" transform="matrix(12,0,0,12,380.6,486)" />
<use xlink:href="#f0_2c" transform="matrix(12,0,0,12,387.6,486)" />
<use xlink:href="#f0_1x" transform="matrix(12,0,0,12,396.8,486)" />
<use xlink:href="#f0_2j" transform="matrix(12,0,0,12,404.8,486)" />
<use xlink:href="#f0_2a" transform="matrix(12,0,0,12,418.1,486)" />
<use xlink:href="#f0_25" transform="matrix(12,0,0,12,427.2,486)" />
<use xlink:href="#f0_2a" transform="matrix(12,0,0,12,432,486)" />
<use xlink:href="#f0_23" transform="matrix(12,0,0,12,441.1,486)" />
<use xlink:href="#f0_1x" transform="matrix(12,0,0,12,455.1,486)" />
<use xlink:href="#f0_2a" transform="matrix(12,0,0,12,463.5,486)" />
<use xlink:href="#f0_20" transform="matrix(12,0,0,12,472.3,486)" />
<use xlink:href="#f0_20" transform="matrix(12,0,0,12,486.2,486)" />
<use xlink:href="#f0_25" transform="matrix(12,0,0,12,495.7,486)" />
<use xlink:href="#f0_21" transform="matrix(12,0,0,12,500.1,486)" />
<use xlink:href="#f0_1x" transform="matrix(12,0,0,12,512.9,486)" />
<use xlink:href="#f0_22" transform="matrix(12,0,0,12,521.3,486)" />
<use xlink:href="#f0_2g" transform="matrix(12,0,0,12,526.8,486)" />
<use xlink:href="#f0_21" transform="matrix(12,0,0,12,532.3,486)" />
<use xlink:href="#f0_2e" transform="matrix(12,0,0,12,540.4,486)" />
<use xlink:href="#f0_2f" transform="matrix(12,0,0,12,551.3,486)" />
<use xlink:href="#f0_2c" transform="matrix(12,0,0,12,558.3,486)" />
<use xlink:href="#f0_1x" transform="matrix(12,0,0,12,567.5,486)" />
<use xlink:href="#f0_2j" transform="matrix(12,0,0,12,575.5,486)" />
<use xlink:href="#f0_2a" transform="matrix(12,0,0,12,588.8,486)" />
<use xlink:href="#f0_25" transform="matrix(12,0,0,12,597.9,486)" />
<use xlink:href="#f0_2a" transform="matrix(12,0,0,12,602.7,486)" />
<use xlink:href="#f0_23" transform="matrix(12,0,0,12,611.8,486)" />
<use xlink:href="#f0_i" transform="matrix(12,0,0,12,621,486)" />
</g>
<path fill-rule="evenodd" d="M52.8,511.3H856.9V490H52.8v21.3Z" class="g0_67" />
<g fill="#000000" >
<use xlink:href="#f0_1c" transform="matrix(12,0,0,12,55,506.9)" />
<use xlink:href="#f0_1x" transform="matrix(12,0,0,12,66,506.9)" />
<use xlink:href="#f0_2e" transform="matrix(12,0,0,12,74.1,506.9)" />
<use xlink:href="#f0_2i" transform="matrix(12,0,0,12,80.3,506.9)" />
<use xlink:href="#f0_1x" transform="matrix(12,0,0,12,89.5,506.9)" />
<use xlink:href="#f0_2e" transform="matrix(12,0,0,12,102.3,506.9)" />
<use xlink:href="#f0_21" transform="matrix(12,0,0,12,108.5,506.9)" />
<use xlink:href="#f0_2g" transform="matrix(12,0,0,12,116.6,506.9)" />
<use xlink:href="#f0_2h" transform="matrix(12,0,0,12,122.1,506.9)" />
<use xlink:href="#f0_2e" transform="matrix(12,0,0,12,130.9,506.9)" />
<use xlink:href="#f0_2a" transform="matrix(12,0,0,12,137.1,506.9)" />
<use xlink:href="#f0_2f" transform="matrix(12,0,0,12,145.9,506.9)" />
<use xlink:href="#f0_2g" transform="matrix(12,0,0,12,157.6,506.9)" />
<use xlink:href="#f0_2b" transform="matrix(12,0,0,12,162.7,506.9)" />
<use xlink:href="#f0_2b" transform="matrix(12,0,0,12,176.6,506.9)" />
<use xlink:href="#f0_1z" transform="matrix(12,0,0,12,186.2,506.9)" />
<use xlink:href="#f0_21" transform="matrix(12,0,0,12,194.2,506.9)" />
<use xlink:href="#f0_1x" transform="matrix(12,0,0,12,202.3,506.9)" />
<use xlink:href="#f0_2a" transform="matrix(12,0,0,12,210.4,506.9)" />
<use xlink:href="#f0_1x" transform="matrix(12,0,0,12,223.9,506.9)" />
<use xlink:href="#f0_22" transform="matrix(12,0,0,12,232.3,506.9)" />
<use xlink:href="#f0_2g" transform="matrix(12,0,0,12,237.8,506.9)" />
<use xlink:href="#f0_21" transform="matrix(12,0,0,12,243.3,506.9)" />
<use xlink:href="#f0_2e" transform="matrix(12,0,0,12,251.4,506.9)" />
<use xlink:href="#f0_29" transform="matrix(12,0,0,12,262.3,506.9)" />
<use xlink:href="#f0_21" transform="matrix(12,0,0,12,275.9,506.9)" />
<use xlink:href="#f0_2g" transform="matrix(12,0,0,12,284,506.9)" />
<use xlink:href="#f0_1x" transform="matrix(12,0,0,12,289.4,506.9)" />
<use xlink:href="#f0_29" transform="matrix(12,0,0,12,297.9,506.9)" />
<use xlink:href="#f0_2b" transform="matrix(12,0,0,12,311.4,506.9)" />
<use xlink:href="#f0_2e" transform="matrix(12,0,0,12,320.9,506.9)" />
<use xlink:href="#f0_2c" transform="matrix(12,0,0,12,327.2,506.9)" />
<use xlink:href="#f0_24" transform="matrix(12,0,0,12,336.3,506.9)" />
<use xlink:href="#f0_2b" transform="matrix(12,0,0,12,345.1,506.9)" />
<use xlink:href="#f0_2f" transform="matrix(12,0,0,12,354.6,506.9)" />
<use xlink:href="#f0_25" transform="matrix(12,0,0,12,362,506.9)" />
<use xlink:href="#f0_2f" transform="matrix(12,0,0,12,366.4,506.9)" />
<use xlink:href="#f0_i" transform="matrix(12,0,0,12,373.3,506.9)" />
<use xlink:href="#f0_21" transform="matrix(12,0,0,12,110.4,528.2)" />
<use xlink:href="#f0_i" transform="matrix(12,0,0,12,118.5,528.2)" />
<use xlink:href="#f0_23" transform="matrix(12,0,0,12,123.2,528.2)" />
<use xlink:href="#f0_i" transform="matrix(12,0,0,12,132,528.2)" />
<use xlink:href="#f0_g" transform="matrix(12,0,0,12,136.8,528.2)" />
<use xlink:href="#f2_1g" transform="matrix(12,0,0,12,146,528.2)" />
<use xlink:href="#f2_21" transform="matrix(12,0,0,12,157,528.2)" />
<use xlink:href="#f2_2g" transform="matrix(12,0,0,12,165.1,528.2)" />
<use xlink:href="#f2_2e" transform="matrix(12,0,0,12,170.2,528.2)" />
<use xlink:href="#f2_2b" transform="matrix(12,0,0,12,177.2,528.2)" />
<use xlink:href="#f2_29" transform="matrix(12,0,0,12,186.3,528.2)" />
<use xlink:href="#f2_2l" transform="matrix(12,0,0,12,199.6,528.2)" />
<use xlink:href="#f2_2m" transform="matrix(12,0,0,12,207.6,528.2)" />
<use xlink:href="#f2_2b" transform="matrix(12,0,0,12,214.6,528.2)" />
<use xlink:href="#f2_2a" transform="matrix(12,0,0,12,223.7,528.2)" />
</g>
<g fill="#231F20" >
<use xlink:href="#f0_c" transform="matrix(12,0,0,12,237.7,528.2)" />
<use xlink:href="#f0_1c" transform="matrix(12,0,0,12,243.9,528.2)" />
<use xlink:href="#f0_1x" transform="matrix(12,0,0,12,254.9,528.2)" />
<use xlink:href="#f0_29" transform="matrix(12,0,0,12,263.3,528.2)" />
<use xlink:href="#f0_2c" transform="matrix(12,0,0,12,277.2,528.2)" />
<use xlink:href="#f0_2e" transform="matrix(12,0,0,12,286.4,528.2)" />
<use xlink:href="#f0_21" transform="matrix(12,0,0,12,292.6,528.2)" />
<use xlink:href="#f0_2l" transform="matrix(12,0,0,12,301.1,528.2)" />
<use xlink:href="#f0_d" transform="matrix(12,0,0,12,309.6,528.2)" />
<use xlink:href="#f0_1x" transform="matrix(12,0,0,12,320.5,528.2)" />
<use xlink:href="#f0_2a" transform="matrix(12,0,0,12,329,528.2)" />
<use xlink:href="#f0_20" transform="matrix(12,0,0,12,337.8,528.2)" />
<use xlink:href="#f2_1d" transform="matrix(12,0,0,12,351.8,528.2)" />
<use xlink:href="#f2_2l" transform="matrix(12,0,0,12,367.2,528.2)" />
<use xlink:href="#f2_2k" transform="matrix(12,0,0,12,375.2,528.2)" />
<use xlink:href="#f2_25" transform="matrix(12,0,0,12,383.3,528.2)" />
<use xlink:href="#f2_2a" transform="matrix(12,0,0,12,388.4,528.2)" />
<use xlink:href="#f2_21" transform="matrix(12,0,0,12,397.6,528.2)" />
<use xlink:href="#f0_c" transform="matrix(12,0,0,12,410.5,528.2)" />
<use xlink:href="#f0_18" transform="matrix(12,0,0,12,416.7,528.2)" />
<use xlink:href="#f0_1x" transform="matrix(12,0,0,12,429.9,528.2)" />
<use xlink:href="#f0_23" transform="matrix(12,0,0,12,437.9,528.2)" />
<use xlink:href="#f0_22" transform="matrix(12,0,0,12,447.4,528.2)" />
<use xlink:href="#f0_25" transform="matrix(12,0,0,12,453.3,528.2)" />
<use xlink:href="#f0_2f" transform="matrix(12,0,0,12,458.1,528.2)" />
<use xlink:href="#f0_24" transform="matrix(12,0,0,12,465.4,528.2)" />
<use xlink:href="#f0_d" transform="matrix(12,0,0,12,474.2,528.2)" />
<use xlink:href="#f0_i" transform="matrix(12,0,0,12,480.4,528.2)" />
</g>
<image preserveAspectRatio="none" x="78" y="532" width="365" height="312" xlink:href="img/2.png" />
<path fill-rule="evenodd" d="M52.8,886.1H856.9V864.8H52.8v21.3Z" class="g0_67" />
<path fill-rule="evenodd" d="M52.8,907H856.9V886.1H52.8V907Z" class="g0_67" />
<g fill="#000000" >
<use xlink:href="#f1_14" transform="matrix(12,0,0,12,55,903)" />
<use xlink:href="#f1_25" transform="matrix(12,0,0,12,68.3,903)" />
<use xlink:href="#f1_2i" transform="matrix(12,0,0,12,73.4,903)" />
<use xlink:href="#f1_25" transform="matrix(12,0,0,12,82.5,903)" />
<use xlink:href="#f1_2f" transform="matrix(12,0,0,12,87.6,903)" />
<use xlink:href="#f1_25" transform="matrix(12,0,0,12,94.6,903)" />
<use xlink:href="#f1_2b" transform="matrix(12,0,0,12,99.7,903)" />
<use xlink:href="#f1_2a" transform="matrix(12,0,0,12,108.9,903)" />
<use xlink:href="#f1_17" transform="matrix(12,0,0,12,123.9,903)" />
<use xlink:href="#f1_2a" transform="matrix(12,0,0,12,138.2,903)" />
<use xlink:href="#f1_1x" transform="matrix(12,0,0,12,148.5,903)" />
<use xlink:href="#f1_2g" transform="matrix(12,0,0,12,157.6,903)" />
<use xlink:href="#f1_24" transform="matrix(12,0,0,12,163.9,903)" />
<use xlink:href="#f1_2b" transform="matrix(12,0,0,12,174.1,903)" />
<use xlink:href="#f1_2f" transform="matrix(12,0,0,12,183.3,903)" />
<use xlink:href="#f1_2g" transform="matrix(12,0,0,12,190.2,903)" />
<use xlink:href="#f1_2b" transform="matrix(12,0,0,12,196.5,903)" />
<use xlink:href="#f1_29" transform="matrix(12,0,0,12,205.6,903)" />
<use xlink:href="#f1_1x" transform="matrix(12,0,0,12,220.7,903)" />
<use xlink:href="#f1_2g" transform="matrix(12,0,0,12,229.8,903)" />
<use xlink:href="#f1_1x" transform="matrix(12,0,0,12,236,903)" />
<use xlink:href="#f1_c" transform="matrix(12,0,0,12,249.6,903)" />
<use xlink:href="#f1_12" transform="matrix(12,0,0,12,255.8,903)" />
<use xlink:href="#f1_21" transform="matrix(12,0,0,12,268.3,903)" />
<use xlink:href="#f1_1x" transform="matrix(12,0,0,12,276.3,903)" />
<use xlink:href="#f1_2e" transform="matrix(12,0,0,12,285.5,903)" />
<use xlink:href="#f1_1a" transform="matrix(12,0,0,12,298,903)" />
<use xlink:href="#f1_1x" transform="matrix(12,0,0,12,307.1,903)" />
<use xlink:href="#f1_2j" transform="matrix(12,0,0,12,316.3,903)" />
<use xlink:href="#f1_2f" transform="matrix(12,0,0,12,329.5,903)" />
<use xlink:href="#f1_d" transform="matrix(12,0,0,12,336.5,903)" />
</g>
<path fill-rule="evenodd" d="M52.8,928.3H856.9V907H52.8v21.3Z" class="g0_67" />
<g fill="#000000" >
<use xlink:href="#f1_1j" transform="matrix(12,0,0,12,55,923.9)" />
<use xlink:href="#f1_1l" transform="matrix(12,0,0,12,65.3,923.9)" />
<use xlink:href="#f1_1g" transform="matrix(12,0,0,12,78.5,923.9)" />
<use xlink:href="#f1_15" transform="matrix(12,0,0,12,89.5,923.9)" />
<use xlink:href="#f1_1i" transform="matrix(12,0,0,12,101.6,923.9)" />
<use xlink:href="#f1_h" transform="matrix(12,0,0,12,114.8,923.9)" />
<use xlink:href="#f1_13" transform="matrix(12,0,0,12,121,923.9)" />
<use xlink:href="#f1_1c" transform="matrix(12,0,0,12,134.3,923.9)" />
<use xlink:href="#f1_11" transform="matrix(12,0,0,12,146.3,923.9)" />
<use xlink:href="#f1_1j" transform="matrix(12,0,0,12,159.6,923.9)" />
<use xlink:href="#f1_1j" transform="matrix(12,0,0,12,169.8,923.9)" />
<use xlink:href="#f1_u" transform="matrix(12,0,0,12,180.1,923.9)" />
<use xlink:href="#f1_1g" transform="matrix(12,0,0,12,191,923.9)" />
<use xlink:href="#f1_19" transform="matrix(12,0,0,12,202,923.9)" />
<use xlink:href="#f1_1j" transform="matrix(12,0,0,12,209,923.9)" />
<use xlink:href="#f1_13" transform="matrix(12,0,0,12,219.2,923.9)" />
<use xlink:href="#f1_15" transform="matrix(12,0,0,12,232.5,923.9)" />
<use xlink:href="#f1_1j" transform="matrix(12,0,0,12,244.5,923.9)" />
</g>
<path fill-rule="evenodd" d="M55,927.6H254.9v-1.9H55v1.9Z" class="g1_67" />
<path fill-rule="evenodd" d="M52.8,949.2H856.9V928.3H52.8v20.9Z" class="g0_67" />
<g fill="#000000" >
<use xlink:href="#f1_o" transform="matrix(12,0,0,12,55,945.2)" />
<use xlink:href="#f1_i" transform="matrix(12,0,0,12,64.2,945.2)" />
<use xlink:href="#f1_m" transform="matrix(12,0,0,12,69,945.2)" />
<use xlink:href="#f1_i" transform="matrix(12,0,0,12,78.1,945.2)" />
<use xlink:href="#f1_l" transform="matrix(12,0,0,12,82.9,945.2)" />
<use xlink:href="#f1_l" transform="matrix(12,0,0,12,92.1,945.2)" />
<use xlink:href="#f1_i" transform="matrix(12,0,0,12,100.9,945.2)" />
<use xlink:href="#f1_m" transform="matrix(12,0,0,12,105.6,945.2)" />
<use xlink:href="#f1_13" transform="matrix(12,0,0,12,119.6,945.2)" />
<use xlink:href="#f1_28" transform="matrix(12,0,0,12,132.8,945.2)" />
<use xlink:href="#f1_1x" transform="matrix(12,0,0,12,137.5,945.2)" />
<use xlink:href="#f1_2f" transform="matrix(12,0,0,12,146.7,945.2)" />
<use xlink:href="#f1_2f" transform="matrix(12,0,0,12,153.7,945.2)" />
<use xlink:href="#f1_l" transform="matrix(12,0,0,12,165.4,945.2)" />
<use xlink:href="#f1_u" transform="matrix(12,0,0,12,174.6,945.2)" />
<use xlink:href="#f1_13" transform="matrix(12,0,0,12,185.5,945.2)" />
<use xlink:href="#f1_24" transform="matrix(12,0,0,12,198.8,945.2)" />
<use xlink:href="#f1_2b" transform="matrix(12,0,0,12,208.9,945.2)" />
<use xlink:href="#f1_2a" transform="matrix(12,0,0,12,218.1,945.2)" />
<use xlink:href="#f1_20" transform="matrix(12,0,0,12,228.4,945.2)" />
<use xlink:href="#f1_2e" transform="matrix(12,0,0,12,238.6,945.2)" />
<use xlink:href="#f1_25" transform="matrix(12,0,0,12,246.3,945.2)" />
<use xlink:href="#f1_1z" transform="matrix(12,0,0,12,251.4,945.2)" />
<use xlink:href="#f1_24" transform="matrix(12,0,0,12,259.6,945.2)" />
<use xlink:href="#f1_2g" transform="matrix(12,0,0,12,269.8,945.2)" />
<use xlink:href="#f1_24" transform="matrix(12,0,0,12,276,945.2)" />
<use xlink:href="#f1_2l" transform="matrix(12,0,0,12,286.3,945.2)" />
<use xlink:href="#f1_21" transform="matrix(12,0,0,12,295.4,945.2)" />
<use xlink:href="#f1_2f" transform="matrix(12,0,0,12,303.5,945.2)" />
<use xlink:href="#f1_u" transform="matrix(12,0,0,12,315.2,945.2)" />
</g>
<path fill-rule="evenodd" d="M52.8,970.5H856.9V949.2H52.8v21.3Z" class="g0_67" />
<g fill="#000000" >
<use xlink:href="#f0_1d" transform="matrix(12,0,0,12,55,966.1)" />
<use xlink:href="#f0_1x" transform="matrix(12,0,0,12,71.2,966.1)" />
<use xlink:href="#f0_2e" transform="matrix(12,0,0,12,79.2,966.1)" />
<use xlink:href="#f0_25" transform="matrix(12,0,0,12,85.8,966.1)" />
<use xlink:href="#f0_2a" transform="matrix(12,0,0,12,90.6,966.1)" />
<use xlink:href="#f0_21" transform="matrix(12,0,0,12,99.4,966.1)" />
<use xlink:href="#f0_1x" transform="matrix(12,0,0,12,112.2,966.1)" />
<use xlink:href="#f0_2a" transform="matrix(12,0,0,12,120.6,966.1)" />
<use xlink:href="#f0_25" transform="matrix(12,0,0,12,129.8,966.1)" />
<use xlink:href="#f0_29" transform="matrix(12,0,0,12,134.9,966.1)" />
<use xlink:href="#f0_1x" transform="matrix(12,0,0,12,148.8,966.1)" />
<use xlink:href="#f0_28" transform="matrix(12,0,0,12,157.3,966.1)" />
<use xlink:href="#f0_2f" transform="matrix(12,0,0,12,162,966.1)" />
<use xlink:href="#f0_2j" transform="matrix(12,0,0,12,173.7,966.1)" />
<use xlink:href="#f0_25" transform="matrix(12,0,0,12,187.3,966.1)" />
<use xlink:href="#f0_2g" transform="matrix(12,0,0,12,191.7,966.1)" />
<use xlink:href="#f0_24" transform="matrix(12,0,0,12,197.5,966.1)" />
<use xlink:href="#f0_2f" transform="matrix(12,0,0,12,211.1,966.1)" />
<use xlink:href="#f0_2g" transform="matrix(12,0,0,12,218.1,966.1)" />
<use xlink:href="#f0_2e" transform="matrix(12,0,0,12,223.5,966.1)" />
<use xlink:href="#f0_21" transform="matrix(12,0,0,12,229.8,966.1)" />
<use xlink:href="#f0_1x" transform="matrix(12,0,0,12,237.8,966.1)" />
<use xlink:href="#f0_29" transform="matrix(12,0,0,12,245.9,966.1)" />
<use xlink:href="#f0_28" transform="matrix(12,0,0,12,264.6,966.1)" />
<use xlink:href="#f0_25" transform="matrix(12,0,0,12,269.7,966.1)" />
<use xlink:href="#f0_2a" transform="matrix(12,0,0,12,274.5,966.1)" />
<use xlink:href="#f0_21" transform="matrix(12,0,0,12,283.6,966.1)" />
<use xlink:href="#f0_20" transform="matrix(12,0,0,12,291.7,966.1)" />
<use xlink:href="#f0_1y" transform="matrix(12,0,0,12,305.6,966.1)" />
<use xlink:href="#f0_2b" transform="matrix(12,0,0,12,314.4,966.1)" />
<use xlink:href="#f0_20" transform="matrix(12,0,0,12,323.9,966.1)" />
<use xlink:href="#f0_2l" transform="matrix(12,0,0,12,333.4,966.1)" />
<use xlink:href="#f0_1x" transform="matrix(12,0,0,12,346.6,966.1)" />
<use xlink:href="#f0_2a" transform="matrix(12,0,0,12,355,966.1)" />
<use xlink:href="#f0_20" transform="matrix(12,0,0,12,363.8,966.1)" />
<use xlink:href="#f0_24" transform="matrix(12,0,0,12,378.1,966.1)" />
<use xlink:href="#f0_1x" transform="matrix(12,0,0,12,386.9,966.1)" />
<use xlink:href="#f0_2i" transform="matrix(12,0,0,12,395.3,966.1)" />
<use xlink:href="#f0_21" transform="matrix(12,0,0,12,404.1,966.1)" />
<use xlink:href="#f0_1z" transform="matrix(12,0,0,12,417,966.1)" />
<use xlink:href="#f0_1x" transform="matrix(12,0,0,12,425.4,966.1)" />
<use xlink:href="#f0_2e" transform="matrix(12,0,0,12,433.4,966.1)" />
<use xlink:href="#f0_2g" transform="matrix(12,0,0,12,439.7,966.1)" />
<use xlink:href="#f0_25" transform="matrix(12,0,0,12,445.1,966.1)" />
<use xlink:href="#f0_28" transform="matrix(12,0,0,12,449.9,966.1)" />
<use xlink:href="#f0_1x" transform="matrix(12,0,0,12,454.7,966.1)" />
<use xlink:href="#f0_23" transform="matrix(12,0,0,12,462.7,966.1)" />
<use xlink:href="#f0_25" transform="matrix(12,0,0,12,472.2,966.1)" />
<use xlink:href="#f0_2a" transform="matrix(12,0,0,12,477,966.1)" />
<use xlink:href="#f0_2b" transform="matrix(12,0,0,12,485.8,966.1)" />
<use xlink:href="#f0_2h" transform="matrix(12,0,0,12,495.3,966.1)" />
<use xlink:href="#f0_2f" transform="matrix(12,0,0,12,504.5,966.1)" />
<use xlink:href="#f0_21" transform="matrix(12,0,0,12,516.2,966.1)" />
<use xlink:href="#f0_2a" transform="matrix(12,0,0,12,524.6,966.1)" />
<use xlink:href="#f0_20" transform="matrix(12,0,0,12,533.4,966.1)" />
<use xlink:href="#f0_2b" transform="matrix(12,0,0,12,542.6,966.1)" />
<use xlink:href="#f0_2f" transform="matrix(12,0,0,12,552.1,966.1)" />
<use xlink:href="#f0_27" transform="matrix(12,0,0,12,559.1,966.1)" />
<use xlink:href="#f0_21" transform="matrix(12,0,0,12,568.2,966.1)" />
<use xlink:href="#f0_28" transform="matrix(12,0,0,12,576.7,966.1)" />
<use xlink:href="#f0_21" transform="matrix(12,0,0,12,581.1,966.1)" />
<use xlink:href="#f0_2g" transform="matrix(12,0,0,12,589.1,966.1)" />
<use xlink:href="#f0_2b" transform="matrix(12,0,0,12,594.6,966.1)" />
<use xlink:href="#f0_2a" transform="matrix(12,0,0,12,604.1,966.1)" />
<use xlink:href="#f0_i" transform="matrix(12,0,0,12,612.9,966.1)" />
</g>
<path fill-rule="evenodd" d="M52.8,991.4H856.9V970.5H52.8v20.9Z" class="g0_67" />
<g fill="#000000" >
<use xlink:href="#f0_1d" transform="matrix(12,0,0,12,55,987.3)" />
<use xlink:href="#f0_2b" transform="matrix(12,0,0,12,71.2,987.3)" />
<use xlink:href="#f0_2h" transform="matrix(12,0,0,12,80.7,987.3)" />
<use xlink:href="#f0_2g" transform="matrix(12,0,0,12,89.5,987.3)" />
<use xlink:href="#f0_24" transform="matrix(12,0,0,12,95,987.3)" />
<use xlink:href="#f0_2i" transform="matrix(12,0,0,12,108.5,987.3)" />
<use xlink:href="#f0_21" transform="matrix(12,0,0,12,117.3,987.3)" />
<use xlink:href="#f0_2a" transform="matrix(12,0,0,12,125.7,987.3)" />
<use xlink:href="#f0_2g" transform="matrix(12,0,0,12,134.5,987.3)" />
<use xlink:href="#f0_2e" transform="matrix(12,0,0,12,140,987.3)" />
<use xlink:href="#f0_1x" transform="matrix(12,0,0,12,146.2,987.3)" />
<use xlink:href="#f0_28" transform="matrix(12,0,0,12,154.6,987.3)" />
<use xlink:href="#f0_28" transform="matrix(12,0,0,12,159.4,987.3)" />
<use xlink:href="#f0_2l" transform="matrix(12,0,0,12,164.5,987.3)" />
<use xlink:href="#f0_28" transform="matrix(12,0,0,12,178.1,987.3)" />
<use xlink:href="#f0_2b" transform="matrix(12,0,0,12,182.5,987.3)" />
<use xlink:href="#f0_1z" transform="matrix(12,0,0,12,192,987.3)" />
<use xlink:href="#f0_1x" transform="matrix(12,0,0,12,200.1,987.3)" />
<use xlink:href="#f0_2g" transform="matrix(12,0,0,12,208.1,987.3)" />
<use xlink:href="#f0_21" transform="matrix(12,0,0,12,213.6,987.3)" />
<use xlink:href="#f0_20" transform="matrix(12,0,0,12,221.7,987.3)" />
<use xlink:href="#f0_i" transform="matrix(12,0,0,12,230.9,987.3)" />
</g>
<path fill-rule="evenodd" d="M52.8,1012.6H856.9V991.4H52.8v21.2Z" class="g0_67" />
<path fill-rule="evenodd" d="M52.8,1176.6H856.9v-164H52.8v164Z" class="g0_67" />
<image preserveAspectRatio="none" x="55" y="1012" width="408" height="164" xlink:href="img/3.png" />
<path fill-rule="evenodd" d="M52.8,1197.9H856.9v-21.3H52.8v21.3Z" class="g0_67" />
<g fill="#000000" >
<use xlink:href="#f0_1e" transform="matrix(12,0,0,12,55,1193.5)" />
<use xlink:href="#f0_2b" transform="matrix(12,0,0,12,68.3,1193.5)" />
<use xlink:href="#f0_2g" transform="matrix(12,0,0,12,77.4,1193.5)" />
<use xlink:href="#f0_2b" transform="matrix(12,0,0,12,82.5,1193.5)" />
<use xlink:href="#f0_1z" transform="matrix(12,0,0,12,92.1,1193.5)" />
<use xlink:href="#f0_24" transform="matrix(12,0,0,12,100.1,1193.5)" />
<use xlink:href="#f0_2b" transform="matrix(12,0,0,12,108.9,1193.5)" />
<use xlink:href="#f0_2e" transform="matrix(12,0,0,12,118.4,1193.5)" />
<use xlink:href="#f0_20" transform="matrix(12,0,0,12,124.6,1193.5)" />
<use xlink:href="#f0_2c" transform="matrix(12,0,0,12,138.2,1193.5)" />
<use xlink:href="#f0_21" transform="matrix(12,0,0,12,147.4,1193.5)" />
<use xlink:href="#f0_2e" transform="matrix(12,0,0,12,155.4,1193.5)" />
<use xlink:href="#f0_2f" transform="matrix(12,0,0,12,161.6,1193.5)" />
<use xlink:href="#f0_25" transform="matrix(12,0,0,12,168.6,1193.5)" />
<use xlink:href="#f0_2f" transform="matrix(12,0,0,12,173.4,1193.5)" />
<use xlink:href="#f0_2g" transform="matrix(12,0,0,12,180.3,1193.5)" />
<use xlink:href="#f0_2f" transform="matrix(12,0,0,12,185.8,1193.5)" />
<use xlink:href="#f0_2g" transform="matrix(12,0,0,12,197.5,1193.5)" />
<use xlink:href="#f0_24" transform="matrix(12,0,0,12,203,1193.5)" />
<use xlink:href="#f0_2e" transform="matrix(12,0,0,12,211.8,1193.5)" />
<use xlink:href="#f0_2b" transform="matrix(12,0,0,12,217.7,1193.5)" />
<use xlink:href="#f0_2h" transform="matrix(12,0,0,12,227.2,1193.5)" />
<use xlink:href="#f0_23" transform="matrix(12,0,0,12,236.4,1193.5)" />
<use xlink:href="#f0_24" transform="matrix(12,0,0,12,245.5,1193.5)" />
<use xlink:href="#f0_2b" transform="matrix(12,0,0,12,254.3,1193.5)" />
<use xlink:href="#f0_2h" transform="matrix(12,0,0,12,263.9,1193.5)" />
<use xlink:href="#f0_2g" transform="matrix(12,0,0,12,272.7,1193.5)" />
<use xlink:href="#f0_28" transform="matrix(12,0,0,12,282.9,1193.5)" />
<use xlink:href="#f0_25" transform="matrix(12,0,0,12,287.6,1193.5)" />
<use xlink:href="#f0_22" transform="matrix(12,0,0,12,292.4,1193.5)" />
<use xlink:href="#f0_21" transform="matrix(12,0,0,12,298.3,1193.5)" />
<use xlink:href="#f0_i" transform="matrix(12,0,0,12,306.3,1193.5)" />
</g>
<path fill-rule="evenodd" d="M52.8,1218.8H856.9v-20.9H52.8v20.9Z" class="g0_67" />
<g fill="#000000" >
<use xlink:href="#f0_17" transform="matrix(12,0,0,12,55,1214.7)" />
<use xlink:href="#f0_25" transform="matrix(12,0,0,12,68.6,1214.7)" />
<use xlink:href="#f0_28" transform="matrix(12,0,0,12,73.4,1214.7)" />
<use xlink:href="#f0_28" transform="matrix(12,0,0,12,78.4,1214.7)" />
<use xlink:href="#f0_2f" transform="matrix(12,0,0,12,88,1214.7)" />
<use xlink:href="#f0_28" transform="matrix(12,0,0,12,95.3,1214.7)" />
<use xlink:href="#f0_25" transform="matrix(12,0,0,12,100.4,1214.7)" />
<use xlink:href="#f0_2g" transform="matrix(12,0,0,12,104.8,1214.7)" />
<use xlink:href="#f0_2f" transform="matrix(12,0,0,12,110.3,1214.7)" />
<use xlink:href="#f0_1x" transform="matrix(12,0,0,12,122,1214.7)" />
<use xlink:href="#f0_2e" transform="matrix(12,0,0,12,130.1,1214.7)" />
<use xlink:href="#f0_21" transform="matrix(12,0,0,12,136.3,1214.7)" />
<use xlink:href="#f0_2f" transform="matrix(12,0,0,12,149.1,1214.7)" />
<use xlink:href="#f0_21" transform="matrix(12,0,0,12,156.1,1214.7)" />
<use xlink:href="#f0_2c" transform="matrix(12,0,0,12,164.2,1214.7)" />
<use xlink:href="#f0_1x" transform="matrix(12,0,0,12,173.3,1214.7)" />
<use xlink:href="#f0_2e" transform="matrix(12,0,0,12,181.4,1214.7)" />
<use xlink:href="#f0_1x" transform="matrix(12,0,0,12,187.6,1214.7)" />
<use xlink:href="#f0_2g" transform="matrix(12,0,0,12,195.7,1214.7)" />
<use xlink:href="#f0_21" transform="matrix(12,0,0,12,201.2,1214.7)" />
<use xlink:href="#f0_1x" transform="matrix(12,0,0,12,214,1214.7)" />
<use xlink:href="#f0_2a" transform="matrix(12,0,0,12,222.1,1214.7)" />
<use xlink:href="#f0_20" transform="matrix(12,0,0,12,230.9,1214.7)" />
<use xlink:href="#f0_2j" transform="matrix(12,0,0,12,244.8,1214.7)" />
<use xlink:href="#f0_25" transform="matrix(12,0,0,12,258.3,1214.7)" />
<use xlink:href="#f0_2g" transform="matrix(12,0,0,12,262.7,1214.7)" />
<use xlink:href="#f0_24" transform="matrix(12,0,0,12,268.2,1214.7)" />
<use xlink:href="#f0_2b" transform="matrix(12,0,0,12,277,1214.7)" />
<use xlink:href="#f0_2h" transform="matrix(12,0,0,12,286.5,1214.7)" />
<use xlink:href="#f0_2g" transform="matrix(12,0,0,12,295.7,1214.7)" />
<use xlink:href="#f0_2b" transform="matrix(12,0,0,12,305.2,1214.7)" />
<use xlink:href="#f0_2c" transform="matrix(12,0,0,12,314.7,1214.7)" />
<use xlink:href="#f0_21" transform="matrix(12,0,0,12,323.9,1214.7)" />
<use xlink:href="#f0_2e" transform="matrix(12,0,0,12,332,1214.7)" />
<use xlink:href="#f0_1z" transform="matrix(12,0,0,12,338.2,1214.7)" />
<use xlink:href="#f0_2h" transform="matrix(12,0,0,12,346.2,1214.7)" />
<use xlink:href="#f0_28" transform="matrix(12,0,0,12,355.4,1214.7)" />
<use xlink:href="#f0_2h" transform="matrix(12,0,0,12,359.8,1214.7)" />
<use xlink:href="#f0_29" transform="matrix(12,0,0,12,369.3,1214.7)" />
<use xlink:href="#f0_i" transform="matrix(12,0,0,12,382.9,1214.7)" />
<use xlink:href="#f3_m" transform="matrix(8,0,0,8,785.7,1264.1)" />
<use xlink:href="#f3_r" transform="matrix(8,0,0,8,792.5,1264.1)" />
</g>
<defs>
<path d="M681,416L504,902L333,416ZM669,0V40L803,60L704,348H310L210,60L344,40V0H15V40L128,60l341,949H611L965,60L1092,40V0Z" 
id="f0_11"
transform="scale(0.001,-0.001)" />

<path d="M359,-270c0,0,124,0,192,46c0,0,67,47,67,129c0,0,0,43,-26,67c0,0,-26,24,-79,24H242c0,0,-32,-27,-51,-69c0,0,-20,-41,-20,-77c0,0,0,-64,46,-92c0,0,46,-28,142,-28Zm11,561c0,0,81,0,115,47c0,0,34,47,34,141c0,0,0,100,-35,142c0,0,-35,42,-113,42c0,0,-78,0,-114,-43c0,0,-37,-42,-37,-141c0,0,0,-98,36,-143c0,0,36,-45,114,-45ZM359,-329c0,0,-143,0,-218,44c0,0,-75,43,-75,125c0,0,0,39,27,78c0,0,26,38,98,89c0,0,-43,14,-72,48c0,0,-29,35,-29,74L208,262c0,0,-118,55,-118,217c0,0,0,115,73,178c0,0,73,63,211,63c0,0,28,0,71,-6c0,0,44,-6,67,-13l165,83l26,-32L599,644c0,0,50,-56,50,-165c0,0,0,-120,-72,-182c0,0,-73,-62,-208,-62c0,0,-62,0,-114,11L208,148c0,0,2,-13,29,-24c0,0,27,-12,67,-12H512c0,0,113,0,168,-49c0,0,55,-49,55,-134c0,0,0,-79,-44,-137c0,0,-43,-58,-128,-90c0,0,-84,-31,-204,-31Z" 
id="f0_23"
transform="scale(0.001,-0.001)" />

<path d="M439,0V33l93,19V500c0,0,0,62,-30,97c0,0,-31,36,-94,36c0,0,-67,0,-165,-22V52L338,33V0H35V33l84,19V649L35,668v33H235l7,-57c0,0,57,33,122,54c0,0,65,22,108,22c0,0,91,0,137,-53c0,0,47,-53,47,-154V52L741,33V0Z" 
id="f0_2a"
transform="scale(0.001,-0.001)" />

<path d="M284,67c0,0,51,0,88,12c0,0,37,12,74,30V358l-98,-3c0,0,-100,-4,-135,-39c0,0,-35,-35,-35,-117c0,0,0,-132,106,-132ZM233,-14c0,0,-179,0,-179,208c0,0,0,70,27,116c0,0,27,46,87,70c0,0,60,24,173,27l105,3V519c0,0,0,72,-26,107c0,0,-27,34,-82,34c0,0,-75,0,-137,-35L176,538H134V691c0,0,121,26,213,26c0,0,115,0,169,-47c0,0,54,-47,54,-144V52L657,33V0H465L451,70c0,0,-85,-84,-218,-84Z" 
id="f0_1x"
transform="scale(0.001,-0.001)" />

<path d="M249,-14c0,0,-71,0,-107,42c0,0,-35,42,-35,119V639H15v33l93,29l76,159h47V701H391V639H231V161c0,0,0,-48,22,-73c0,0,22,-24,57,-24c0,0,44,0,106,12V26C416,26,389,8,340,-2c0,0,-49,-12,-91,-12Z" 
id="f0_2g"
transform="scale(0.001,-0.001)" />

<path d="M442,0V33l93,19V504c0,0,0,129,-124,129c0,0,-70,0,-168,-22V52L338,33V0H31V33l88,19v956L15,1026v34H243V756c0,0,0,-77,-5,-112c0,0,54,31,122,53c0,0,68,23,115,23c0,0,91,0,137,-53c0,0,47,-53,47,-154V52L744,33V0Z" 
id="f0_24"
transform="scale(0.001,-0.001)" />

<path d="M460,-325c0,0,-148,79,-231,172c0,0,-84,93,-123,217c0,0,-39,126,-39,304c0,0,0,178,39,303c0,0,39,125,122,217c0,0,82,93,232,172V997c0,0,-91,-52,-145,-134c0,0,-54,-81,-79,-190c0,0,-25,-109,-25,-305c0,0,0,-194,26,-309c0,0,26,-114,82,-193c0,0,56,-79,141,-128v-63Z" 
id="f0_c"
transform="scale(0.001,-0.001)" />

<path d="M186,-14c0,0,-95,0,-154,22V190H81L104,86c0,0,14,-17,40,-26c0,0,26,-10,57,-10c0,0,105,0,105,141V941L178,960v40H562V960L449,941V322c0,0,0,-100,-30,-175c0,0,-31,-74,-93,-118c0,0,-63,-43,-140,-43Z" 
id="f0_1a"
transform="scale(0.001,-0.001)" />

<path d="M327,-14L84,649L1,668v33H335V668L219,648L385,174L554,632h63L786,171L944,649L830,668v33h267V668l-78,-16L784,-14H726L553,448L382,-14Z" 
id="f0_2j"
transform="scale(0.001,-0.001)" />

<path d="M31,0V33L150,52v956L31,1026v34H274V52L394,33V0Z" 
id="f0_28"
transform="scale(0.001,-0.001)" />

<path d="M495,413c0,0,0,133,-34,190c0,0,-34,57,-105,57c0,0,-78,0,-119,-63c0,0,-42,-62,-42,-184ZM374,-14c0,0,-163,0,-239,87c0,0,-75,88,-75,283c0,0,0,183,77,273c0,0,76,91,219,91c0,0,269,0,269,-306V353H194V340c0,0,0,-103,23,-160c0,0,22,-57,70,-87c0,0,47,-29,124,-29c0,0,40,0,96,6c0,0,55,7,91,15V43C598,43,562,20,500,3c0,0,-61,-17,-126,-17Z" 
id="f0_21"
transform="scale(0.001,-0.001)" />

<path d="M278,-14c0,0,-52,0,-115,11c0,0,-63,10,-99,23V193H98L134,95c0,0,56,-50,146,-50c0,0,144,0,144,123c0,0,0,91,-114,130l-66,21c0,0,-75,25,-110,50c0,0,-34,26,-53,63c0,0,-18,36,-18,89c0,0,0,92,63,145c0,0,63,54,170,54c0,0,77,0,193,-23V544H454l-32,81c0,0,-39,35,-124,35c0,0,-61,0,-92,-30c0,0,-32,-30,-32,-80c0,0,0,-43,29,-72c0,0,28,-29,86,-48c0,0,110,-38,144,-55c0,0,33,-17,57,-42c0,0,23,-25,36,-57c0,0,13,-32,13,-79c0,0,0,-104,-66,-158c0,0,-66,-53,-195,-53Z" 
id="f0_2f"
transform="scale(0.001,-0.001)" />

<path d="M49,-325v63c0,0,85,49,140,128c0,0,56,79,83,194c0,0,26,115,26,308c0,0,0,196,-25,305c0,0,-25,109,-79,190c0,0,-54,82,-145,134v63c0,0,149,-80,232,-172c0,0,83,-92,122,-217c0,0,39,-125,39,-303c0,0,0,-177,-39,-303c0,0,-39,-125,-122,-217c0,0,-83,-93,-232,-173Z" 
id="f0_d"
transform="scale(0.001,-0.001)" />

<path d="M211,-20c0,0,-39,0,-64,25c0,0,-26,27,-26,64c0,0,0,38,26,64c0,0,26,26,64,26c0,0,37,0,64,-25c0,0,26,-26,26,-65c0,0,0,-37,-26,-64c0,0,-26,-25,-64,-25Zm0,556c0,0,-38,0,-64,26c0,0,-26,26,-26,64c0,0,0,37,26,64c0,0,25,27,64,27c0,0,38,0,64,-27c0,0,26,-27,26,-64c0,0,0,-38,-26,-64c0,0,-27,-26,-64,-26Z" 
id="f0_u"
transform="scale(0.001,-0.001)" />

<path d="M55,0V40L184,60V941L55,960v40H455V960L327,941V60L455,40V0Z" 
id="f0_19"
transform="scale(0.001,-0.001)" />

<path d="M399,-14c0,0,-341,0,-341,370c0,0,0,175,87,269c0,0,87,95,249,95c0,0,101,0,220,-23V501H573L541,625c0,0,-62,35,-149,35c0,0,-200,0,-200,-304c0,0,0,-158,61,-225c0,0,61,-67,189,-67c0,0,109,0,189,24V43C631,43,595,16,530,1c0,0,-64,-15,-131,-15Z" 
id="f0_1z"
transform="scale(0.001,-0.001)" />

<path d="M289,-14c0,0,-179,0,-179,205V649L20,668v33H233V200c0,0,0,-128,120,-128c0,0,92,0,173,23V649L420,668v33H649V52L738,33V0H533l-6,57C527,57,474,28,405,7c0,0,-69,-21,-116,-21Z" 
id="f0_2h"
transform="scale(0.001,-0.001)" />

<path d="M383,64c0,0,85,0,152,28V645c0,0,-67,13,-152,13c0,0,-194,0,-194,-314c0,0,0,-141,48,-211c0,0,48,-69,146,-69ZM342,-14c0,0,-287,0,-287,358c0,0,0,184,82,280c0,0,81,96,239,96c0,0,81,0,163,-18c0,0,-4,25,-4,124v182l-118,18v34H659V52L745,33V0H548l-9,52c0,0,-84,-66,-197,-66Z" 
id="f0_20"
transform="scale(0.001,-0.001)" />

<path d="M134,0V40L339,60V876L137,804v39l292,166h39V60L672,40V0Z" 
id="f0_l"
transform="scale(0.001,-0.001)" />

<path d="M577,-14c0,0,-243,0,-379,132C198,118,63,250,63,488c0,0,0,258,130,391c0,0,131,132,387,132c0,0,156,0,335,-38l5,-218H871L848,884c0,0,-52,32,-121,50c0,0,-69,17,-141,17c0,0,-191,0,-279,-112c0,0,-88,-113,-88,-349c0,0,0,-217,92,-332c0,0,92,-115,268,-115c0,0,85,0,160,20c0,0,76,21,120,55l27,149h49L930,32c0,0,-164,-46,-353,-46Z" 
id="f0_13"
transform="scale(0.001,-0.001)" />

<path d="M148,-329c0,0,-58,0,-114,13v151H69l24,-71c0,0,23,-17,64,-17c0,0,39,0,72,22c0,0,33,23,60,67c0,0,27,44,68,157L90,649L19,668v33H344V668L233,648L423,158L606,649L497,668v33H758V668L685,652L411,-43c0,0,-48,-124,-84,-177c0,0,-36,-54,-79,-82c0,0,-44,-27,-100,-27Z" 
id="f0_2l"
transform="scale(0.001,-0.001)" />

<path d="M377,45c0,0,99,0,147,73c0,0,47,73,47,237c0,0,0,161,-47,233c0,0,-47,72,-147,72c0,0,-97,0,-141,-69c0,0,-44,-69,-44,-236c0,0,0,-169,45,-240c0,0,44,-70,140,-70Zm0,-59c0,0,-158,0,-238,94c0,0,-81,95,-81,274c0,0,0,178,81,272c0,0,80,94,244,94c0,0,160,0,241,-92c0,0,82,-92,82,-274c0,0,0,-368,-329,-368Z" 
id="f0_2b"
transform="scale(0.001,-0.001)" />

<path d="M431,0V33L535,52V499c0,0,0,62,-32,96c0,0,-32,33,-95,33c0,0,-66,0,-163,-22V52L350,33V0H32V33l89,19V649L32,668v33H237l6,-57c0,0,56,32,119,54c0,0,62,22,110,22c0,0,52,0,95,-20c0,0,44,-19,66,-62c0,0,57,32,134,57c0,0,77,25,128,25c0,0,179,0,179,-207V52l90,-19V0H846V33L950,52V499c0,0,0,129,-119,129c0,0,-19,0,-45,-3c0,0,-26,-3,-52,-7c0,0,-25,-4,-49,-8c0,0,-23,-5,-39,-8c0,0,13,-41,13,-89V52L764,33V0Z" 
id="f0_29"
transform="scale(0.001,-0.001)" />

<path d="M435,350V646c0,0,0,84,7,158L145,350ZM435,0V198H21V319l450,686H636V350H736V198H636V0Z" 
id="f1_o"
transform="scale(0.001,-0.001)" />

<path d="M191,-20c0,0,-51,0,-88,34c0,0,-36,36,-36,88c0,0,0,52,36,88c0,0,36,36,88,36c0,0,51,0,88,-36c0,0,36,-36,36,-88c0,0,0,-51,-36,-87c0,0,-36,-35,-88,-35Z" 
id="f1_i"
transform="scale(0.001,-0.001)" />

<path d="M64,0V141c0,0,64,68,119,123c0,0,119,118,174,185c0,0,56,68,81,140c0,0,26,72,26,165c0,0,0,81,-40,131c0,0,-39,50,-105,50c0,0,-46,0,-74,-10c0,0,-27,-10,-50,-29L163,751H98V979c0,0,59,13,116,23c0,0,58,9,125,9c0,0,165,0,252,-68c0,0,88,-68,88,-193c0,0,0,-78,-26,-142c0,0,-26,-64,-83,-124c0,0,-56,-61,-224,-197c0,0,-64,-52,-139,-119H698V0Z" 
id="f1_m"
transform="scale(0.001,-0.001)" />

<path d="M122,0V64L295,82V837L123,780v64l282,165H511V82L685,64V0Z" 
id="f1_l"
transform="scale(0.001,-0.001)" />

<path d="M608,-14c0,0,-251,0,-392,133C216,119,75,252,75,488c0,0,0,257,134,390c0,0,135,133,398,133c0,0,174,0,361,-50l4,-240H905L884,866c0,0,-98,67,-229,67c0,0,-173,0,-253,-108c0,0,-80,-108,-80,-334c0,0,0,-209,84,-319c0,0,83,-109,243,-109c0,0,84,0,147,22c0,0,63,22,99,53l24,164h68L982,48C982,48,915,22,808,4C808,4,700,-14,608,-14Z" 
id="f1_13"
transform="scale(0.001,-0.001)" />

<path d="M30,0V49l76,18V992l-72,18v50H322V67L398,49V0Z" 
id="f1_28"
transform="scale(0.001,-0.001)" />

<path d="M345,75c0,0,50,0,110,26V351l-63,-2c0,0,-72,-3,-100,-38c0,0,-28,-35,-28,-113c0,0,0,-63,22,-93c0,0,23,-30,59,-30ZM266,-14c0,0,-217,0,-217,208c0,0,0,79,32,126c0,0,32,48,93,71c0,0,60,22,190,25l91,2V521c0,0,0,126,-104,126c0,0,-62,0,-140,-39L183,521H134V691c0,0,112,17,165,21c0,0,53,5,108,5c0,0,264,0,264,-194V67L741,49V0H483L466,54C466,54,408,14,361,0c0,0,-47,-14,-95,-14Z" 
id="f1_1x"
transform="scale(0.001,-0.001)" />

<path d="M276,-14c0,0,-57,0,-125,13C151,-1,83,10,48,23V214H97l28,-98c0,0,26,-26,69,-44c0,0,42,-17,86,-17c0,0,65,0,97,28c0,0,32,28,32,71c0,0,0,41,-31,65c0,0,-30,25,-133,57c0,0,-108,34,-154,92c0,0,-45,58,-45,143c0,0,0,95,71,152c0,0,71,57,183,57c0,0,77,0,207,-22V518H457l-24,82c0,0,-21,22,-60,35c0,0,-40,14,-75,14c0,0,-53,0,-79,-22c0,0,-26,-22,-26,-59c0,0,0,-40,32,-65c0,0,32,-26,132,-55c0,0,109,-34,155,-89c0,0,45,-55,45,-137c0,0,0,-117,-72,-177c0,0,-72,-59,-209,-59Z" 
id="f1_2f"
transform="scale(0.001,-0.001)" />

<path d="M248,-20c0,0,-52,0,-87,34c0,0,-36,36,-36,88c0,0,0,52,36,88c0,0,35,36,87,36c0,0,52,0,88,-36c0,0,36,-36,36,-88c0,0,0,-51,-36,-87c0,0,-35,-35,-88,-35Zm0,488c0,0,-52,0,-87,36c0,0,-36,36,-36,88c0,0,0,52,35,88c0,0,35,36,88,36c0,0,53,0,89,-36c0,0,35,-37,35,-88c0,0,0,-51,-36,-87c0,0,-35,-37,-88,-37Z" 
id="f1_u"
transform="scale(0.001,-0.001)" />

<path d="M159,-329c0,0,-61,0,-123,14v180H81l32,-94c0,0,21,-17,55,-17c0,0,28,0,50,13c0,0,21,14,40,39c0,0,20,25,37,62c0,0,17,37,50,110L64,634L15,652v49H374V652L290,632L455,244L602,634l-82,18v49H749V652L698,637L421,-44c0,0,-47,-121,-83,-176c0,0,-36,-55,-80,-82c0,0,-43,-27,-99,-27Z" 
id="f1_2l"
transform="scale(0.001,-0.001)" />

<path d="M425,-14c0,0,-187,0,-280,90c0,0,-93,90,-93,276c0,0,0,115,42,198c0,0,43,82,121,126c0,0,78,44,182,44c0,0,104,0,227,-26V486H571L539,609c0,0,-25,19,-50,26c0,0,-24,7,-65,7c0,0,-44,0,-79,-35c0,0,-36,-35,-56,-98c0,0,-20,-64,-20,-153c0,0,0,-150,47,-214c0,0,47,-64,148,-64c0,0,103,0,176,21V42C640,42,606,15,547,0c0,0,-59,-14,-122,-14Z" 
id="f1_1z"
transform="scale(0.001,-0.001)" />

<path d="M379,60c0,0,59,0,84,64c0,0,24,65,24,231c0,0,0,164,-24,227c0,0,-24,63,-84,63c0,0,-57,0,-80,-60c0,0,-22,-61,-22,-230c0,0,0,-173,23,-234c0,0,22,-61,79,-61Zm-2,-74c0,0,-161,0,-240,91c0,0,-79,91,-79,277c0,0,0,186,80,276c0,0,81,90,245,90c0,0,167,0,245,-93c0,0,78,-93,78,-273c0,0,0,-188,-81,-278c0,0,-81,-90,-248,-90Z" 
id="f1_2b"
transform="scale(0.001,-0.001)" />

<path d="M327,-14c0,0,-101,0,-156,45c0,0,-55,45,-55,131V624H25v48l108,29l87,159H332V701H480V624H332V176c0,0,0,-49,20,-73c0,0,20,-25,53,-25c0,0,40,0,97,12V26c0,0,-22,-15,-76,-27c0,0,-55,-13,-99,-13Z" 
id="f1_2g"
transform="scale(0.001,-0.001)" />

<path d="M41,0V49l69,18V634L41,652v49H313l11,-61l50,26c0,0,105,54,188,54c0,0,125,0,167,-91c0,0,153,91,258,91c0,0,189,0,189,-207V67l71,-17V0H898V50l63,17V484c0,0,0,63,-24,98c0,0,-25,35,-74,35c0,0,-55,0,-119,-31c0,0,7,-32,7,-73V67L821,50V0H473V50l63,17V484c0,0,0,63,-25,98c0,0,-24,35,-73,35c0,0,-49,0,-113,-29V67L389,49V0Z" 
id="f1_29"
transform="scale(0.001,-0.001)" />

<path d="M44,0V40L172,60V941L44,960v40H445V960L316,941V549H787V941L659,960v40h400V960L930,941V60L1059,40V0H659V40L787,60V481H316V60L445,40V0Z" 
id="f0_18"
transform="scale(0.001,-0.001)" />

<path d="M360,-14L72,649L0,668v33H327V668L216,648L420,164L615,649L504,668v33H764V668L697,652L416,-14Z" 
id="f0_2i"
transform="scale(0.001,-0.001)" />

<path d="M477,0V33l64,19L348,354L257,254V52L331,33V0H44V33l89,19v956L29,1026v34H257V338L544,647l-73,20v34H718V667L631,650L431,446L688,50L764,33V0Z" 
id="f0_27"
transform="scale(0.001,-0.001)" />

<path d="M32,0V33L151,52V649L52,668v33H275V52L395,33V0ZM201,850c0,0,-32,0,-56,24c0,0,-24,24,-24,56c0,0,0,34,24,58c0,0,24,24,56,24c0,0,34,0,58,-24c0,0,24,-24,24,-58c0,0,0,-32,-24,-56c0,0,-24,-24,-58,-24Z" 
id="f0_25"
transform="scale(0.001,-0.001)" />

<path d="M31,0V33l88,19V649L31,668v33H235l7,-87c0,0,44,37,121,71c0,0,76,35,121,35h11V530H463l-43,82c0,0,-37,0,-88,-10c0,0,-52,-10,-89,-26V52L363,33V0Z" 
id="f0_2e"
transform="scale(0.001,-0.001)" />

<path d="M64,-325c0,0,-46,0,-107,14v148H-8l19,-81c0,0,25,-21,62,-21c0,0,44,0,67,47c0,0,22,47,22,152V649L57,668v33H286V-28c0,0,0,-146,-57,-221c0,0,-56,-76,-165,-76ZM213,850c0,0,-34,0,-58,24c0,0,-24,24,-24,56c0,0,0,34,24,58c0,0,24,24,58,24c0,0,32,0,56,-24c0,0,24,-24,24,-58c0,0,0,-32,-24,-56c0,0,-24,-24,-56,-24Z" 
id="f0_26"
transform="scale(0.001,-0.001)" />

<path d="M191,-20c0,0,-39,0,-65,25c0,0,-25,27,-25,64c0,0,0,38,26,64c0,0,26,26,64,26c0,0,38,0,64,-26c0,0,26,-26,26,-64c0,0,0,-37,-25,-64c0,0,-26,-25,-65,-25Z" 
id="f0_i"
transform="scale(0.001,-0.001)" />

<path d="M44,0V40L172,60V941L44,960v40H471V960L316,941V65H513c0,0,159,0,234,14l46,208h48L828,0Z" 
id="f0_1c"
transform="scale(0.001,-0.001)" />

<path d="M382,45c0,0,188,0,188,314c0,0,0,143,-47,213c0,0,-46,69,-141,69c0,0,-87,0,-146,-24V58c0,0,67,-13,146,-13ZM25,-325v35l88,18V649L34,668v33H231l1,-41c0,0,31,27,84,43c0,0,53,17,107,17c0,0,134,0,208,-94c0,0,73,-93,73,-267c0,0,0,-178,-80,-276c0,0,-80,-97,-232,-97c0,0,-84,0,-160,16c0,0,4,-53,4,-84V-272l123,-18v-35Z" 
id="f0_2c"
transform="scale(0.001,-0.001)" />

<path d="M64,0V34L168,59V639H47v36l121,29v49c0,0,0,155,61,239c0,0,62,84,173,84c0,0,58,0,107,-15V908H472l-33,92c0,0,-26,16,-62,16c0,0,-47,0,-66,-42c0,0,-19,-42,-19,-157V701H478V639H292V59L443,34V0Z" 
id="f0_22"
transform="scale(0.001,-0.001)" />

<path d="M529,65c0,0,183,0,270,108c0,0,87,108,87,334c0,0,0,210,-113,318c0,0,-113,108,-322,108H316V71c0,0,90,-6,213,-6Zm0,-67L172,0H44V40L172,60V941L44,960v40H498c0,0,277,0,411,-123c0,0,133,-124,133,-371c0,0,0,-251,-129,-380C913,126,785,-2,529,-2Z" 
id="f0_14"
transform="scale(0.001,-0.001)" />

<path d="M58,-234v58c0,0,131,42,131,125c0,0,0,15,-11,27c0,0,-11,12,-38,25C140,1,89,27,89,75c0,0,0,40,25,61c0,0,26,21,65,21c0,0,48,0,77,-34c0,0,30,-34,30,-86c0,0,0,-101,-60,-170c0,0,-59,-69,-168,-101Z" 
id="f0_g"
transform="scale(0.001,-0.001)" />

<path d="M376,50c0,0,103,0,149,80c0,0,46,81,46,240c0,0,0,137,-47,204c0,0,-48,67,-148,67c0,0,-44,0,-87,-7c0,0,-44,-8,-63,-17V62c0,0,63,-12,150,-12Zm3,-64c0,0,-64,0,-141,14c0,0,-78,14,-136,37v971L0,1026v34H226V809c0,0,0,-40,-4,-148c0,0,74,59,188,59c0,0,143,0,219,-87c0,0,77,-87,77,-263c0,0,0,-189,-84,-287c0,0,-84,-97,-243,-97Z" 
id="f0_1y"
transform="scale(0.001,-0.001)" />

<path d="M617,0L251,860V60L385,40V0H44V40L172,60V941L44,960v40H347L672,239l355,761h287V960L1185,941V60L1314,40V0H908V40l134,20V859L643,0Z" 
id="f0_1d"
transform="scale(0.001,-0.001)" />

<path d="M457,460c0,0,289,0,289,266c0,0,0,106,-54,157c0,0,-54,50,-163,50H419L335,460ZM-7,0L0,40L120,60L276,941L151,960l7,40H559c0,0,161,0,248,-67c0,0,87,-66,87,-198c0,0,0,-167,-109,-255c0,0,-109,-88,-312,-88H323L264,60L427,40L420,0Z" 
id="f2_1g"
transform="scale(0.001,-0.001)" />

<path d="M188,355c0,0,148,11,236,69c0,0,89,58,89,143c0,0,0,41,-23,68c0,0,-22,27,-66,27c0,0,-52,0,-101,-43c0,0,-49,-42,-85,-114c0,0,-36,-71,-50,-150ZM298,-14c0,0,-120,0,-186,67c0,0,-65,67,-65,193c0,0,0,125,53,232c0,0,52,108,145,175c0,0,94,67,196,67c0,0,92,0,147,-42c0,0,56,-43,56,-111c0,0,0,-102,-126,-173c0,0,-125,-72,-336,-86l-3,-54c0,0,0,-95,40,-143c0,0,40,-47,118,-47c0,0,67,0,124,22c0,0,57,23,106,52l22,-32c0,0,-69,-58,-146,-89c0,0,-76,-31,-145,-31Z" 
id="f2_21"
transform="scale(0.001,-0.001)" />

<path d="M200,-14c0,0,-59,0,-93,35c0,0,-34,36,-34,100c0,0,0,22,4,51c0,0,4,30,82,467H67l6,33l99,29L275,860h47L295,701H455L443,639H283L210,230c0,0,-13,-69,-13,-99c0,0,0,-34,17,-51c0,0,17,-16,43,-16c0,0,54,0,113,21L386,50c0,0,-92,-64,-186,-64Z" 
id="f2_2g"
transform="scale(0.001,-0.001)" />

<path d="M62,0L176,649L88,668l6,33H301L278,543c0,0,55,84,124,130c0,0,69,47,138,47c0,0,37,0,59,-6L566,530H534l-28,95c0,0,-60,0,-124,-46c0,0,-63,-45,-116,-120L186,0Z" 
id="f2_2e"
transform="scale(0.001,-0.001)" />

<path d="M325,47c0,0,68,0,130,54c0,0,61,55,97,149c0,0,36,94,36,202c0,0,0,103,-39,156c0,0,-39,53,-113,53c0,0,-67,0,-128,-54c0,0,-61,-55,-96,-149c0,0,-35,-94,-35,-204c0,0,0,-101,39,-154c0,0,39,-53,109,-53Zm-6,-61c0,0,-124,0,-199,79c0,0,-74,79,-74,214c0,0,0,120,51,222c0,0,51,102,143,160c0,0,91,59,205,59c0,0,124,0,199,-80c0,0,74,-79,74,-214c0,0,0,-120,-51,-222C667,204,615,102,524,43c0,0,-91,-57,-205,-57Z" 
id="f2_2b"
transform="scale(0.001,-0.001)" />

<path d="M55,0L169,649L81,668l6,33H295L274,557c0,0,52,73,117,118c0,0,65,45,122,45c0,0,66,0,102,-42c0,0,36,-41,36,-121c0,0,51,72,115,117c0,0,64,46,123,46c0,0,63,0,99,-40c0,0,36,-40,36,-116c0,0,0,-16,-3,-42c0,0,-3,-27,-80,-470l98,-19L1032,0H808l77,434c0,0,17,90,17,124c0,0,0,34,-16,54c0,0,-15,21,-49,21c0,0,-33,0,-78,-32c0,0,-46,-31,-83,-80c0,0,-37,-49,-44,-91L558,0H434l76,434c0,0,19,98,19,124c0,0,0,34,-17,54c0,0,-16,21,-51,21c0,0,-33,0,-81,-34c0,0,-47,-33,-84,-80c0,0,-36,-48,-43,-89L179,0Z" 
id="f2_29"
transform="scale(0.001,-0.001)" />

<path d="M-15,-329c0,0,-61,0,-112,13l28,152h34l12,-72c0,0,18,-17,60,-17c0,0,100,0,212,202L253,9L116,649L33,668l6,33H230L338,155L513,458c0,0,48,83,48,144c0,0,0,27,-16,44c0,0,-15,16,-33,22l6,33H659c0,0,20,-17,20,-47c0,0,0,-59,-62,-164L322,-7c0,0,-86,-145,-135,-205c0,0,-50,-61,-98,-89c0,0,-49,-28,-104,-28Z" 
id="f2_2l"
transform="scale(0.001,-0.001)" />

<path d="M-16,0l7,34L410,641H299c0,0,-42,0,-81,-7c0,0,-40,-7,-58,-19L119,514H84l34,187H574l-6,-36L149,60H296c0,0,42,0,81,9c0,0,40,9,66,26l57,109h35L481,0Z" 
id="f2_2m"
transform="scale(0.001,-0.001)" />

<path d="M54,0L169,649L81,668l6,33H294L274,558c0,0,62,81,130,121c0,0,67,41,132,41c0,0,75,0,113,-41c0,0,38,-41,38,-117c0,0,0,-10,-3,-32c0,0,-3,-21,-81,-478L700,34L695,0H470l76,434c0,0,17,94,17,123c0,0,0,34,-18,55c0,0,-18,21,-56,21c0,0,-56,0,-121,-47c0,0,-65,-47,-108,-117L178,0Z" 
id="f2_2a"
transform="scale(0.001,-0.001)" />

<path d="M512,0L339,860L198,60L330,40L322,0H-17l8,40L120,60L276,941L151,960l7,40H443L597,237l446,763h300l-8,-40L1204,941L1048,60L1173,40L1166,0H760l8,40L905,60l141,800L538,0Z" 
id="f2_1d"
transform="scale(0.001,-0.001)" />

<path d="M-6,0c0,0,-12,10,-12,32c0,0,0,21,23,51c0,0,23,31,79,82L287,354L159,649L79,668l6,33H270L378,434l93,88c0,0,47,46,67,72c0,0,19,26,19,44c0,0,0,8,-6,13c0,0,-7,6,-38,17l6,33H651c0,0,16,-12,16,-32c0,0,0,-44,-103,-142L404,377L548,49L634,33L628,0H437L313,298L185,176c0,0,-41,-40,-60,-65c0,0,-19,-26,-19,-48c0,0,0,-21,31,-29L131,0Z" 
id="f2_2k"
transform="scale(0.001,-0.001)" />

<path d="M85,0L199,649l-96,19l6,33H332L218,52L335,33L329,0ZM297,849c0,0,-33,0,-57,24c0,0,-24,24,-24,57c0,0,0,33,24,57c0,0,24,24,57,24c0,0,33,0,57,-24c0,0,24,-24,24,-57c0,0,0,-33,-24,-57c0,0,-24,-24,-57,-24Z" 
id="f2_25"
transform="scale(0.001,-0.001)" />

<path d="M519,79c0,0,97,0,153,42c0,0,57,42,83,131c0,0,26,89,26,248c0,0,0,216,-79,317c0,0,-79,101,-257,101H389V85c0,0,72,-6,130,-6ZM533,-2L198,0H27V54L155,74V926L27,945v55H502c0,0,269,0,398,-122c0,0,129,-122,129,-372c0,0,0,-258,-123,-383C906,123,783,-2,533,-2Z" 
id="f1_14"
transform="scale(0.001,-0.001)" />

<path d="M34,0V49l76,18V634L38,652v49H325V67L402,49V0ZM217,831c0,0,-48,0,-81,33c0,0,-34,33,-34,82c0,0,0,48,34,81c0,0,34,33,81,33c0,0,48,0,81,-33c0,0,33,-33,33,-81c0,0,0,-47,-33,-81c0,0,-32,-34,-81,-34Z" 
id="f1_25"
transform="scale(0.001,-0.001)" />

<path d="M342,-14L49,634L0,652v49H359V652L275,632L455,233L617,634l-82,18v49H764V652L713,637L433,-14Z" 
id="f1_2i"
transform="scale(0.001,-0.001)" />

<path d="M41,0V49l69,18V634L41,652v49H313l11,-61l50,26c0,0,105,54,188,54c0,0,194,0,194,-207V67L827,49V0H478V49l63,18V484c0,0,0,63,-27,98c0,0,-26,35,-75,35c0,0,-57,0,-114,-25V67L389,49V0Z" 
id="f1_2a"
transform="scale(0.001,-0.001)" />

<path d="M614,-14c0,0,-163,0,-285,59c0,0,-122,60,-188,174c0,0,-66,114,-66,269c0,0,0,252,143,387c0,0,144,136,410,136c0,0,65,0,118,-5c0,0,54,-5,100,-14c0,0,46,-9,170,-44V718H949L931,848c0,0,-59,40,-130,62c0,0,-71,23,-146,23c0,0,-174,0,-253,-108c0,0,-80,-108,-80,-335c0,0,0,-211,84,-319c0,0,84,-108,243,-108c0,0,87,0,165,26V377L686,397v55h461V397l-98,-20V52C1049,52,956,22,834,4C834,4,712,-14,614,-14Z" 
id="f1_17"
transform="scale(0.001,-0.001)" />

<path d="M41,0V49l69,18V992l-72,18v50H325V756c0,0,0,-49,-4,-116l51,26c0,0,106,54,190,54c0,0,194,0,194,-207V67L827,49V0H478V49l63,18V484c0,0,0,63,-27,98c0,0,-26,35,-75,35c0,0,-57,0,-114,-25V67L389,49V0Z" 
id="f1_24"
transform="scale(0.001,-0.001)" />

<path d="M460,-325c0,0,-148,79,-231,172c0,0,-84,93,-123,217c0,0,-39,126,-39,305c0,0,0,178,39,303c0,0,39,125,123,218c0,0,83,92,231,170V975c0,0,-68,-52,-109,-133c0,0,-41,-81,-61,-189c0,0,-19,-109,-19,-285c0,0,0,-177,19,-285c0,0,19,-107,60,-189c0,0,42,-82,110,-134v-85Z" 
id="f1_c"
transform="scale(0.001,-0.001)" />

<path d="M559,77c0,0,87,0,129,53c0,0,42,53,42,162c0,0,0,99,-49,147c0,0,-50,49,-163,49H389V82c0,0,108,-5,170,-5ZM499,570c0,0,80,0,118,42c0,0,38,42,38,141c0,0,0,88,-38,126c0,0,-37,39,-124,39H389V570ZM561,-3L221,0H25V54L154,74V926L25,945v55H511c0,0,199,0,294,-53c0,0,95,-53,95,-173c0,0,0,-89,-56,-154c0,0,-56,-65,-150,-85c0,0,139,-14,211,-76c0,0,71,-61,71,-167c0,0,0,-146,-107,-221C869,71,762,-3,561,-3Z" 
id="f1_12"
transform="scale(0.001,-0.001)" />

<path d="M434,423c0,0,0,101,-7,142c0,0,-6,40,-22,60c0,0,-16,19,-45,19c0,0,-44,0,-66,-48c0,0,-22,-49,-22,-173ZM389,-14c0,0,-172,0,-254,89c0,0,-83,90,-83,279c0,0,0,184,79,274c0,0,79,91,238,91c0,0,142,0,206,-76c0,0,64,-76,64,-237V345H271V333c0,0,0,-111,18,-158c0,0,18,-47,58,-72c0,0,40,-25,110,-25c0,0,66,0,166,22V42C623,42,582,18,517,1c0,0,-66,-15,-128,-15Z" 
id="f1_21"
transform="scale(0.001,-0.001)" />

<path d="M41,0V49l91,18V634L41,652v49H336l8,-145c0,0,80,89,144,128c0,0,64,40,117,40h40V468H604l-45,94c0,0,-47,0,-106,-21c0,0,-60,-20,-105,-48V67L460,49V0Z" 
id="f1_2e"
transform="scale(0.001,-0.001)" />

<path d="M264,-14c0,0,-56,0,-110,7c0,0,-54,6,-86,15V234h66L157,101c0,0,14,-17,40,-27c0,0,26,-9,57,-9c0,0,52,0,86,35c0,0,34,36,34,106V926L245,945v55H722V945L609,926V322c0,0,0,-162,-90,-249c0,0,-89,-87,-255,-87Z" 
id="f1_1a"
transform="scale(0.001,-0.001)" />

<path d="M305,-14L57,634L4,652v49H351V652L268,632L419,232L581,631h71L814,232L950,634l-82,18v49h227V652l-54,-15L806,-14H715L555,378L395,-14Z" 
id="f1_2j"
transform="scale(0.001,-0.001)" />

<path d="M49,-325v85c0,0,68,53,110,135c0,0,41,82,60,190c0,0,19,109,19,283c0,0,0,177,-19,285c0,0,-20,108,-61,189c0,0,-41,81,-109,133v85c0,0,149,-80,232,-172c0,0,83,-92,122,-217c0,0,39,-125,39,-302c0,0,0,-178,-39,-304c0,0,-39,-125,-122,-218c0,0,-83,-93,-232,-172Z" 
id="f1_d"
transform="scale(0.001,-0.001)" />

<path d="M410,-14c0,0,-86,0,-175,14C235,0,145,14,81,38V307h66L181,146c0,0,31,-37,94,-62c0,0,64,-24,132,-24c0,0,214,0,214,177c0,0,0,55,-41,93c0,0,-41,38,-128,68c0,0,-128,42,-185,68c0,0,-56,27,-95,63c0,0,-38,36,-62,87c0,0,-23,51,-23,125c0,0,0,132,90,201c0,0,90,69,263,69c0,0,125,0,278,-32V741H651L618,878c0,0,-76,56,-178,56c0,0,-92,0,-141,-34c0,0,-49,-34,-49,-104c0,0,0,-50,41,-86c0,0,41,-35,128,-63c0,0,171,-56,235,-97c0,0,64,-41,97,-103c0,0,34,-61,34,-143c0,0,0,-318,-375,-318Z" 
id="f1_1j"
transform="scale(0.001,-0.001)" />

<path d="M566,-14c0,0,-200,0,-308,93c0,0,-107,94,-107,270V926L38,945v55H515V945L386,926V339c0,0,0,-120,61,-184c0,0,61,-64,178,-64c0,0,112,0,173,63c0,0,61,62,61,184V926L725,945v55h340V945L952,926V343c0,0,0,-173,-100,-265c0,0,-100,-92,-286,-92Z" 
id="f1_1l"
transform="scale(0.001,-0.001)" />

<path d="M452,474c0,0,104,0,151,52c0,0,47,53,47,178c0,0,0,119,-45,167c0,0,-44,47,-156,47H390V474ZM36,0V54L154,74V926L26,945v55H467c0,0,213,0,318,-71c0,0,105,-71,105,-224c0,0,0,-313,-366,-313H390V74L557,54V0Z" 
id="f1_1g"
transform="scale(0.001,-0.001)" />

<path d="M26,0V54L154,74V926L26,945v55H878V746H810L786,908c0,0,-83,10,-241,10H389V551H651l23,111h67V355H674L651,468H389V82H578c0,0,193,0,252,12l43,185h68L927,0Z" 
id="f1_15"
transform="scale(0.001,-0.001)" />

<path d="M498,506c0,0,115,0,164,47c0,0,48,48,48,166c0,0,0,112,-46,156c0,0,-46,43,-169,43H390V506ZM793,0L514,423H390V74L518,54V0H36V54L154,74V926L26,945v55H504c0,0,221,0,330,-68c0,0,109,-68,109,-212c0,0,0,-215,-201,-276L1009,74L1117,54V0Z" 
id="f1_1i"
transform="scale(0.001,-0.001)" />

<path d="M56,294V424H453V294Z" 
id="f1_h"
transform="scale(0.001,-0.001)" />

<path d="M26,0V54L154,74V926L27,945v55H544V945L389,926V79H593c0,0,159,0,234,15l61,208h67L927,0Z" 
id="f1_1c"
transform="scale(0.001,-0.001)" />

<path d="M639,416L478,858L313,416ZM647,0V54L762,74L667,333H283L191,74L319,54V0H15V54L90,74l355,935H662L1016,74l76,-20V0Z" 
id="f1_11"
transform="scale(0.001,-0.001)" />

<path d="M51,0V55L180,74V926L51,946v54H543V946L415,926V74L543,55V0Z" 
id="f1_19"
transform="scale(0.001,-0.001)" />

<path d="M416,68c0,0,60,0,124,32V628c0,0,-58,15,-118,15c0,0,-67,0,-104,-73c0,0,-38,-73,-38,-216c0,0,0,-139,36,-212c0,0,35,-74,100,-74ZM369,-14c0,0,-155,0,-231,88c0,0,-76,90,-76,274c0,0,0,182,82,277c0,0,81,95,236,95c0,0,82,0,165,-20c0,0,-5,24,-5,115V992l-72,18v50H756V67L833,49V0H562L547,40C547,40,505,13,483,4c0,0,-23,-7,-51,-12c0,0,-28,-6,-63,-6Z" 
id="f1_20"
transform="scale(0.001,-0.001)" />

<path d="M868,0L251,900V60L385,40V0H44V40L172,60V941L44,960v40H347L862,259V941L727,960v40h341V960L940,941V0Z" 
id="f0_1e"
transform="scale(0.001,-0.001)" />

<path d="M577,-14c0,0,-243,0,-379,131C198,117,63,248,63,488c0,0,0,263,131,393c0,0,132,130,386,130c0,0,182,0,352,-45V751H882L862,875c0,0,-52,37,-124,57c0,0,-72,19,-152,19c0,0,-191,0,-279,-113c0,0,-88,-114,-88,-348c0,0,0,-220,91,-333c0,0,91,-114,269,-114c0,0,63,0,131,15c0,0,69,15,105,36V377L686,397v40h370V397L958,377V52C958,52,871,24,778,5c0,0,-93,-19,-201,-19Z" 
id="f0_17"
transform="scale(0.001,-0.001)" />

<path d="M46,0c0,0,-2,48,16,93c0,0,27,74,88,146c0,0,61,71,176,165c0,0,178,146,241,232c0,0,63,85,63,161c0,0,0,80,-57,135c0,0,-58,55,-149,55c0,0,-98,0,-156,-59c0,0,-58,-58,-59,-160L71,782c0,0,15,154,107,235c0,0,93,81,249,81c0,0,157,0,249,-87c0,0,92,-88,92,-217c0,0,0,-65,-27,-129c0,0,-27,-63,-89,-133c0,0,-62,-70,-207,-193C445,339,324,238,290,202c0,0,-35,-36,-57,-73H770V0Z" 
id="f3_m"
transform="scale(0.001,-0.001)" />

<path d="M225,0c0,0,2,129,51,312c0,0,48,183,139,352c0,0,91,170,193,286H72v129H780V975C780,975,676,864,573,680C573,680,470,495,414,301C414,301,374,163,363,0Z" 
id="f3_r"
transform="scale(0.001,-0.001)" />


</defs>
</svg>