<?xml version="1.0" encoding="UTF-8" standalone="no"?>
<!DOCTYPE svg PUBLIC "-//W3C//DTD SVG 1.1//EN"
"http://www.w3.org/Graphics/SVG/1.1/DTD/svg11.dtd">
<svg viewBox="0 0 935 1210" version="1.1" xmlns="http://www.w3.org/2000/svg" xmlns:xlink="http://www.w3.org/1999/xlink">
<defs>
<style type="text/css"><![CDATA[
.g0_165{
}
]]></style>
</defs>
<g fill="#000000" >
<use xlink:href="#f0_3d" transform="matrix(12,0,0,12,82.5,73.4)" />
<use xlink:href="#f1_13" transform="matrix(12,0,0,12,110,73.4)" />
<use xlink:href="#f1_2b" transform="matrix(12,0,0,12,123.2,73.4)" />
<use xlink:href="#f1_h" transform="matrix(12,0,0,12,132.4,73.4)" />
<use xlink:href="#f1_22" transform="matrix(12,0,0,12,138.6,73.4)" />
<use xlink:href="#f1_1x" transform="matrix(12,0,0,12,144.5,73.4)" />
<use xlink:href="#f1_1z" transform="matrix(12,0,0,12,153.7,73.4)" />
<use xlink:href="#f1_2g" transform="matrix(12,0,0,12,161.7,73.4)" />
<use xlink:href="#f1_2b" transform="matrix(12,0,0,12,168,73.4)" />
<use xlink:href="#f1_2e" transform="matrix(12,0,0,12,177.1,73.4)" />
<use xlink:href="#f1_u" transform="matrix(12,0,0,12,184.8,73.4)" />
<use xlink:href="#f2_1e" transform="matrix(12,0,0,12,198.1,73.4)" />
<use xlink:href="#f2_2b" transform="matrix(12,0,0,12,211.3,73.4)" />
<use xlink:href="#f2_2a" transform="matrix(12,0,0,12,220.8,73.4)" />
<use xlink:href="#f2_h" transform="matrix(12,0,0,12,229.6,73.4)" />
<use xlink:href="#f2_2c" transform="matrix(12,0,0,12,235.8,73.4)" />
<use xlink:href="#f2_2e" transform="matrix(12,0,0,12,245,73.4)" />
<use xlink:href="#f2_2b" transform="matrix(12,0,0,12,251.2,73.4)" />
<use xlink:href="#f2_2g" transform="matrix(12,0,0,12,260.4,73.4)" />
<use xlink:href="#f2_21" transform="matrix(12,0,0,12,265.9,73.4)" />
<use xlink:href="#f2_25" transform="matrix(12,0,0,12,273.9,73.4)" />
<use xlink:href="#f2_2a" transform="matrix(12,0,0,12,278.7,73.4)" />
<use xlink:href="#f2_1z" transform="matrix(12,0,0,12,294.5,73.4)" />
<use xlink:href="#f2_2b" transform="matrix(12,0,0,12,302.5,73.4)" />
<use xlink:href="#f2_2a" transform="matrix(12,0,0,12,312,73.4)" />
<use xlink:href="#f2_2f" transform="matrix(12,0,0,12,320.8,73.4)" />
<use xlink:href="#f2_2g" transform="matrix(12,0,0,12,327.8,73.4)" />
<use xlink:href="#f2_25" transform="matrix(12,0,0,12,333.3,73.4)" />
<use xlink:href="#f2_2g" transform="matrix(12,0,0,12,337.7,73.4)" />
<use xlink:href="#f2_2h" transform="matrix(12,0,0,12,343.2,73.4)" />
<use xlink:href="#f2_21" transform="matrix(12,0,0,12,352.3,73.4)" />
<use xlink:href="#f2_2a" transform="matrix(12,0,0,12,360.4,73.4)" />
<use xlink:href="#f2_2g" transform="matrix(12,0,0,12,369.2,73.4)" />
<use xlink:href="#f2_2f" transform="matrix(12,0,0,12,374.7,73.4)" />
<use xlink:href="#f2_2g" transform="matrix(12,0,0,12,388.6,73.4)" />
<use xlink:href="#f2_24" transform="matrix(12,0,0,12,394.1,73.4)" />
<use xlink:href="#f2_1x" transform="matrix(12,0,0,12,402.9,73.4)" />
<use xlink:href="#f2_2g" transform="matrix(12,0,0,12,410.9,73.4)" />
<use xlink:href="#f2_1x" transform="matrix(12,0,0,12,423,73.4)" />
<use xlink:href="#f2_2e" transform="matrix(12,0,0,12,431.1,73.4)" />
<use xlink:href="#f2_21" transform="matrix(12,0,0,12,437.3,73.4)" />
<use xlink:href="#f2_1y" transform="matrix(12,0,0,12,452,73.4)" />
<use xlink:href="#f2_2b" transform="matrix(12,0,0,12,460.8,73.4)" />
<use xlink:href="#f2_2h" transform="matrix(12,0,0,12,470.3,73.4)" />
<use xlink:href="#f2_2a" transform="matrix(12,0,0,12,479.1,73.4)" />
<use xlink:href="#f2_20" transform="matrix(12,0,0,12,487.9,73.4)" />
<use xlink:href="#f2_2g" transform="matrix(12,0,0,12,504,73.4)" />
<use xlink:href="#f2_2b" transform="matrix(12,0,0,12,509.1,73.4)" />
<use xlink:href="#f2_2g" transform="matrix(12,0,0,12,524.9,73.4)" />
<use xlink:href="#f2_24" transform="matrix(12,0,0,12,530.3,73.4)" />
<use xlink:href="#f2_21" transform="matrix(12,0,0,12,539.1,73.4)" />
<use xlink:href="#f2_21" transform="matrix(12,0,0,12,554.6,73.4)" />
<use xlink:href="#f2_2a" transform="matrix(12,0,0,12,562.7,73.4)" />
<use xlink:href="#f2_2m" transform="matrix(12,0,0,12,571.5,73.4)" />
<use xlink:href="#f2_2l" transform="matrix(12,0,0,12,579.9,73.4)" />
<use xlink:href="#f2_29" transform="matrix(12,0,0,12,589.1,73.4)" />
<use xlink:href="#f2_21" transform="matrix(12,0,0,12,603,73.4)" />
<use xlink:href="#f2_1x" transform="matrix(12,0,0,12,618,73.4)" />
<use xlink:href="#f2_2a" transform="matrix(12,0,0,12,626.1,73.4)" />
<use xlink:href="#f2_20" transform="matrix(12,0,0,12,634.9,73.4)" />
<use xlink:href="#f2_29" transform="matrix(12,0,0,12,651.4,73.4)" />
<use xlink:href="#f2_1x" transform="matrix(12,0,0,12,665.3,73.4)" />
<use xlink:href="#f2_27" transform="matrix(12,0,0,12,673.4,73.4)" />
<use xlink:href="#f2_21" transform="matrix(12,0,0,12,682.5,73.4)" />
<use xlink:href="#f2_2g" transform="matrix(12,0,0,12,697.5,73.4)" />
<use xlink:href="#f2_24" transform="matrix(12,0,0,12,703,73.4)" />
<use xlink:href="#f2_21" transform="matrix(12,0,0,12,711.8,73.4)" />
<use xlink:href="#f2_21" transform="matrix(12,0,0,12,726.8,73.4)" />
<use xlink:href="#f2_2a" transform="matrix(12,0,0,12,734.9,73.4)" />
<use xlink:href="#f2_2m" transform="matrix(12,0,0,12,743.7,73.4)" />
<use xlink:href="#f2_2l" transform="matrix(12,0,0,12,752.1,73.4)" />
<use xlink:href="#f2_29" transform="matrix(12,0,0,12,761.3,73.4)" />
<use xlink:href="#f2_21" transform="matrix(12,0,0,12,775.2,73.4)" />
<use xlink:href="#f2_1z" transform="matrix(12,0,0,12,790.2,73.4)" />
<use xlink:href="#f2_1x" transform="matrix(12,0,0,12,798.3,73.4)" />
<use xlink:href="#f2_2g" transform="matrix(12,0,0,12,806.4,73.4)" />
<use xlink:href="#f2_1x" transform="matrix(12,0,0,12,811.8,73.4)" />
<use xlink:href="#f2_28" transform="matrix(12,0,0,12,819.9,73.4)" />
<use xlink:href="#f2_2l" transform="matrix(12,0,0,12,824.7,73.4)" />
<use xlink:href="#f2_2g" transform="matrix(12,0,0,12,833.1,73.4)" />
<use xlink:href="#f2_25" transform="matrix(12,0,0,12,839,73.4)" />
<use xlink:href="#f2_1z" transform="matrix(12,0,0,12,843.7,73.4)" />
<use xlink:href="#f2_1x" transform="matrix(12,0,0,12,852.1,73.4)" />
<use xlink:href="#f2_28" transform="matrix(12,0,0,12,860.6,73.4)" />
<use xlink:href="#f2_28" transform="matrix(12,0,0,12,865.7,73.4)" />
<use xlink:href="#f2_2l" transform="matrix(12,0,0,12,871.2,73.4)" />
<use xlink:href="#f2_1x" transform="matrix(12,0,0,12,110,105.3)" />
<use xlink:href="#f2_1z" transform="matrix(12,0,0,12,118.1,105.3)" />
<use xlink:href="#f2_2g" transform="matrix(12,0,0,12,126.2,105.3)" />
<use xlink:href="#f2_25" transform="matrix(12,0,0,12,131.7,105.3)" />
<use xlink:href="#f2_2i" transform="matrix(12,0,0,12,136.4,105.3)" />
<use xlink:href="#f2_21" transform="matrix(12,0,0,12,145.2,105.3)" />
<use xlink:href="#f2_i" transform="matrix(12,0,0,12,153.3,105.3)" />
<use xlink:href="#f0_3d" transform="matrix(12,0,0,12,82.5,137.9)" />
<use xlink:href="#f1_13" transform="matrix(12,0,0,12,110,137.9)" />
<use xlink:href="#f1_2b" transform="matrix(12,0,0,12,123.2,137.9)" />
<use xlink:href="#f1_h" transform="matrix(12,0,0,12,132.4,137.9)" />
<use xlink:href="#f1_21" transform="matrix(12,0,0,12,138.6,137.9)" />
<use xlink:href="#f1_2a" transform="matrix(12,0,0,12,146.7,137.9)" />
<use xlink:href="#f1_2m" transform="matrix(12,0,0,12,157,137.9)" />
<use xlink:href="#f1_2l" transform="matrix(12,0,0,12,164.7,137.9)" />
<use xlink:href="#f1_29" transform="matrix(12,0,0,12,174.2,137.9)" />
<use xlink:href="#f1_21" transform="matrix(12,0,0,12,189.2,137.9)" />
<use xlink:href="#f1_u" transform="matrix(12,0,0,12,197.3,137.9)" />
<use xlink:href="#f2_1f" transform="matrix(12,0,0,12,208.3,137.9)" />
<use xlink:href="#f2_2e" transform="matrix(12,0,0,12,221.6,137.9)" />
<use xlink:href="#f2_23" transform="matrix(12,0,0,12,227.8,137.9)" />
<use xlink:href="#f2_1x" transform="matrix(12,0,0,12,236.9,137.9)" />
<use xlink:href="#f2_2a" transform="matrix(12,0,0,12,245,137.9)" />
<use xlink:href="#f2_25" transform="matrix(12,0,0,12,254.2,137.9)" />
<use xlink:href="#f2_1z" transform="matrix(12,0,0,12,258.9,137.9)" />
<use xlink:href="#f2_1z" transform="matrix(12,0,0,12,271.7,137.9)" />
<use xlink:href="#f2_2b" transform="matrix(12,0,0,12,279.8,137.9)" />
<use xlink:href="#f2_29" transform="matrix(12,0,0,12,289.3,137.9)" />
<use xlink:href="#f2_2c" transform="matrix(12,0,0,12,302.9,137.9)" />
<use xlink:href="#f2_2b" transform="matrix(12,0,0,12,312.1,137.9)" />
<use xlink:href="#f2_2h" transform="matrix(12,0,0,12,321.6,137.9)" />
<use xlink:href="#f2_2a" transform="matrix(12,0,0,12,330.7,137.9)" />
<use xlink:href="#f2_20" transform="matrix(12,0,0,12,339.5,137.9)" />
<use xlink:href="#f2_2f" transform="matrix(12,0,0,12,349.1,137.9)" />
<use xlink:href="#f2_2g" transform="matrix(12,0,0,12,360.8,137.9)" />
<use xlink:href="#f2_24" transform="matrix(12,0,0,12,366.2,137.9)" />
<use xlink:href="#f2_1x" transform="matrix(12,0,0,12,375,137.9)" />
<use xlink:href="#f2_2g" transform="matrix(12,0,0,12,383.1,137.9)" />
<use xlink:href="#f2_1y" transform="matrix(12,0,0,12,393.3,137.9)" />
<use xlink:href="#f2_25" transform="matrix(12,0,0,12,402.5,137.9)" />
<use xlink:href="#f2_2a" transform="matrix(12,0,0,12,407.3,137.9)" />
<use xlink:href="#f2_20" transform="matrix(12,0,0,12,416.1,137.9)" />
<use xlink:href="#f2_2g" transform="matrix(12,0,0,12,430,137.9)" />
<use xlink:href="#f2_2b" transform="matrix(12,0,0,12,435.1,137.9)" />
<use xlink:href="#f2_2g" transform="matrix(12,0,0,12,449,137.9)" />
<use xlink:href="#f2_24" transform="matrix(12,0,0,12,454.5,137.9)" />
<use xlink:href="#f2_21" transform="matrix(12,0,0,12,463.3,137.9)" />
<use xlink:href="#f2_21" transform="matrix(12,0,0,12,476.1,137.9)" />
<use xlink:href="#f2_2a" transform="matrix(12,0,0,12,483.8,137.9)" />
<use xlink:href="#f2_2m" transform="matrix(12,0,0,12,492.6,137.9)" />
<use xlink:href="#f2_2l" transform="matrix(12,0,0,12,501.1,137.9)" />
<use xlink:href="#f2_29" transform="matrix(12,0,0,12,510.2,137.9)" />
<use xlink:href="#f2_21" transform="matrix(12,0,0,12,524.2,137.9)" />
<use xlink:href="#f2_2g" transform="matrix(12,0,0,12,537,137.9)" />
<use xlink:href="#f2_2e" transform="matrix(12,0,0,12,542.4,137.9)" />
<use xlink:href="#f2_1x" transform="matrix(12,0,0,12,548.7,137.9)" />
<use xlink:href="#f2_2a" transform="matrix(12,0,0,12,556.7,137.9)" />
<use xlink:href="#f2_2f" transform="matrix(12,0,0,12,565.5,137.9)" />
<use xlink:href="#f2_25" transform="matrix(12,0,0,12,572.8,137.9)" />
<use xlink:href="#f2_21" transform="matrix(12,0,0,12,577.6,137.9)" />
<use xlink:href="#f2_2a" transform="matrix(12,0,0,12,586,137.9)" />
<use xlink:href="#f2_2g" transform="matrix(12,0,0,12,594.8,137.9)" />
<use xlink:href="#f2_28" transform="matrix(12,0,0,12,600.7,137.9)" />
<use xlink:href="#f2_2l" transform="matrix(12,0,0,12,605.4,137.9)" />
<use xlink:href="#f2_20" transform="matrix(12,0,0,12,618.6,137.9)" />
<use xlink:href="#f2_2h" transform="matrix(12,0,0,12,627.8,137.9)" />
<use xlink:href="#f2_2e" transform="matrix(12,0,0,12,637,137.9)" />
<use xlink:href="#f2_25" transform="matrix(12,0,0,12,643.5,137.9)" />
<use xlink:href="#f2_2a" transform="matrix(12,0,0,12,648.3,137.9)" />
<use xlink:href="#f2_23" transform="matrix(12,0,0,12,657.5,137.9)" />
<use xlink:href="#f2_2g" transform="matrix(12,0,0,12,671.4,137.9)" />
<use xlink:href="#f2_24" transform="matrix(12,0,0,12,676.9,137.9)" />
<use xlink:href="#f2_21" transform="matrix(12,0,0,12,685.7,137.9)" />
<use xlink:href="#f2_1z" transform="matrix(12,0,0,12,698.5,137.9)" />
<use xlink:href="#f2_2b" transform="matrix(12,0,0,12,706.6,137.9)" />
<use xlink:href="#f2_2h" transform="matrix(12,0,0,12,716.1,137.9)" />
<use xlink:href="#f2_2e" transform="matrix(12,0,0,12,725.2,137.9)" />
<use xlink:href="#f2_2f" transform="matrix(12,0,0,12,731.4,137.9)" />
<use xlink:href="#f2_21" transform="matrix(12,0,0,12,738.4,137.9)" />
<use xlink:href="#f2_2b" transform="matrix(12,0,0,12,750.9,137.9)" />
<use xlink:href="#f2_22" transform="matrix(12,0,0,12,760.4,137.9)" />
<use xlink:href="#f2_2g" transform="matrix(12,0,0,12,770.6,137.9)" />
<use xlink:href="#f2_24" transform="matrix(12,0,0,12,776.1,137.9)" />
<use xlink:href="#f2_21" transform="matrix(12,0,0,12,784.9,137.9)" />
<use xlink:href="#f2_2e" transform="matrix(12,0,0,12,797.7,137.9)" />
<use xlink:href="#f2_21" transform="matrix(12,0,0,12,804,137.9)" />
<use xlink:href="#f2_1x" transform="matrix(12,0,0,12,812,137.9)" />
<use xlink:href="#f2_1z" transform="matrix(12,0,0,12,820.1,137.9)" />
<use xlink:href="#f2_2g" transform="matrix(12,0,0,12,828.2,137.9)" />
<use xlink:href="#f2_25" transform="matrix(12,0,0,12,833.6,137.9)" />
<use xlink:href="#f2_2b" transform="matrix(12,0,0,12,838,137.9)" />
<use xlink:href="#f2_2a" transform="matrix(12,0,0,12,847.6,137.9)" />
<use xlink:href="#f2_i" transform="matrix(12,0,0,12,856.7,137.9)" />
<use xlink:href="#f0_3d" transform="matrix(12,0,0,12,82.5,170.9)" />
<use xlink:href="#f1_1g" transform="matrix(12,0,0,12,110,170.9)" />
<use xlink:href="#f1_2e" transform="matrix(12,0,0,12,121.4,170.9)" />
<use xlink:href="#f1_2b" transform="matrix(12,0,0,12,129.1,170.9)" />
<use xlink:href="#f1_2f" transform="matrix(12,0,0,12,138.3,170.9)" />
<use xlink:href="#f1_2g" transform="matrix(12,0,0,12,145.2,170.9)" />
<use xlink:href="#f1_24" transform="matrix(12,0,0,12,151.4,170.9)" />
<use xlink:href="#f1_21" transform="matrix(12,0,0,12,161.7,170.9)" />
<use xlink:href="#f1_2g" transform="matrix(12,0,0,12,169.7,170.9)" />
<use xlink:href="#f1_25" transform="matrix(12,0,0,12,176,170.9)" />
<use xlink:href="#f1_1z" transform="matrix(12,0,0,12,181.1,170.9)" />
<use xlink:href="#f1_23" transform="matrix(12,0,0,12,193.9,170.9)" />
<use xlink:href="#f1_2e" transform="matrix(12,0,0,12,203.1,170.9)" />
<use xlink:href="#f1_2b" transform="matrix(12,0,0,12,210.8,170.9)" />
<use xlink:href="#f1_2h" transform="matrix(12,0,0,12,219.9,170.9)" />
<use xlink:href="#f1_2c" transform="matrix(12,0,0,12,230.2,170.9)" />
<use xlink:href="#f1_2f" transform="matrix(12,0,0,12,240.4,170.9)" />
<use xlink:href="#f1_u" transform="matrix(12,0,0,12,247.4,170.9)" />
<use xlink:href="#f2_1f" transform="matrix(12,0,0,12,258.6,170.9)" />
<use xlink:href="#f2_2e" transform="matrix(12,0,0,12,271.8,170.9)" />
<use xlink:href="#f2_23" transform="matrix(12,0,0,12,278,170.9)" />
<use xlink:href="#f2_1x" transform="matrix(12,0,0,12,287.2,170.9)" />
<use xlink:href="#f2_2a" transform="matrix(12,0,0,12,295.3,170.9)" />
<use xlink:href="#f2_25" transform="matrix(12,0,0,12,304.4,170.9)" />
<use xlink:href="#f2_1z" transform="matrix(12,0,0,12,309.2,170.9)" />
<use xlink:href="#f2_2f" transform="matrix(12,0,0,12,322,170.9)" />
<use xlink:href="#f2_2h" transform="matrix(12,0,0,12,329,170.9)" />
<use xlink:href="#f2_1y" transform="matrix(12,0,0,12,338.5,170.9)" />
<use xlink:href="#f2_2f" transform="matrix(12,0,0,12,347.7,170.9)" />
<use xlink:href="#f2_2g" transform="matrix(12,0,0,12,354.6,170.9)" />
<use xlink:href="#f2_1x" transform="matrix(12,0,0,12,360.1,170.9)" />
<use xlink:href="#f2_2a" transform="matrix(12,0,0,12,368.2,170.9)" />
<use xlink:href="#f2_1z" transform="matrix(12,0,0,12,377,170.9)" />
<use xlink:href="#f2_21" transform="matrix(12,0,0,12,385,170.9)" />
<use xlink:href="#f2_2f" transform="matrix(12,0,0,12,393.4,170.9)" />
<use xlink:href="#f2_2g" transform="matrix(12,0,0,12,405.2,170.9)" />
<use xlink:href="#f2_24" transform="matrix(12,0,0,12,410.6,170.9)" />
<use xlink:href="#f2_1x" transform="matrix(12,0,0,12,419.4,170.9)" />
<use xlink:href="#f2_2g" transform="matrix(12,0,0,12,427.5,170.9)" />
<use xlink:href="#f2_1x" transform="matrix(12,0,0,12,437.7,170.9)" />
<use xlink:href="#f2_2e" transform="matrix(12,0,0,12,445.8,170.9)" />
<use xlink:href="#f2_21" transform="matrix(12,0,0,12,452,170.9)" />
<use xlink:href="#f2_1y" transform="matrix(12,0,0,12,464.5,170.9)" />
<use xlink:href="#f2_2b" transform="matrix(12,0,0,12,473.3,170.9)" />
<use xlink:href="#f2_2h" transform="matrix(12,0,0,12,482.4,170.9)" />
<use xlink:href="#f2_2a" transform="matrix(12,0,0,12,491.6,170.9)" />
<use xlink:href="#f2_20" transform="matrix(12,0,0,12,500.4,170.9)" />
<use xlink:href="#f2_2i" transform="matrix(12,0,0,12,514.3,170.9)" />
<use xlink:href="#f2_21" transform="matrix(12,0,0,12,523.5,170.9)" />
<use xlink:href="#f2_2e" transform="matrix(12,0,0,12,531.6,170.9)" />
<use xlink:href="#f2_2l" transform="matrix(12,0,0,12,538.1,170.9)" />
<use xlink:href="#f2_2g" transform="matrix(12,0,0,12,551.3,170.9)" />
<use xlink:href="#f2_25" transform="matrix(12,0,0,12,557.2,170.9)" />
<use xlink:href="#f2_23" transform="matrix(12,0,0,12,561.6,170.9)" />
<use xlink:href="#f2_24" transform="matrix(12,0,0,12,571.1,170.9)" />
<use xlink:href="#f2_2g" transform="matrix(12,0,0,12,579.9,170.9)" />
<use xlink:href="#f2_28" transform="matrix(12,0,0,12,585.4,170.9)" />
<use xlink:href="#f2_2l" transform="matrix(12,0,0,12,590.1,170.9)" />
<use xlink:href="#f2_2g" transform="matrix(12,0,0,12,603.7,170.9)" />
<use xlink:href="#f2_2b" transform="matrix(12,0,0,12,609.2,170.9)" />
<use xlink:href="#f2_2g" transform="matrix(12,0,0,12,622.7,170.9)" />
<use xlink:href="#f2_24" transform="matrix(12,0,0,12,628.2,170.9)" />
<use xlink:href="#f2_21" transform="matrix(12,0,0,12,637,170.9)" />
<use xlink:href="#f2_21" transform="matrix(12,0,0,12,649.8,170.9)" />
<use xlink:href="#f2_2a" transform="matrix(12,0,0,12,657.9,170.9)" />
<use xlink:href="#f2_2m" transform="matrix(12,0,0,12,666.7,170.9)" />
<use xlink:href="#f2_2l" transform="matrix(12,0,0,12,675.1,170.9)" />
<use xlink:href="#f2_29" transform="matrix(12,0,0,12,684.3,170.9)" />
<use xlink:href="#f2_21" transform="matrix(12,0,0,12,698.2,170.9)" />
<use xlink:href="#f2_i" transform="matrix(12,0,0,12,706.3,170.9)" />
<use xlink:href="#f1_16" transform="matrix(12,0,0,12,55,835.5)" />
<use xlink:href="#f1_1x" transform="matrix(12,0,0,12,66,835.5)" />
<use xlink:href="#f1_1z" transform="matrix(12,0,0,12,75.2,835.5)" />
<use xlink:href="#f1_2g" transform="matrix(12,0,0,12,83.3,835.5)" />
<use xlink:href="#f1_2b" transform="matrix(12,0,0,12,89.5,835.5)" />
<use xlink:href="#f1_2e" transform="matrix(12,0,0,12,99,835.5)" />
<use xlink:href="#f1_2f" transform="matrix(12,0,0,12,106.7,835.5)" />
<use xlink:href="#f1_1x" transform="matrix(12,0,0,12,118.4,835.5)" />
<use xlink:href="#f1_22" transform="matrix(12,0,0,12,127.6,835.5)" />
<use xlink:href="#f1_22" transform="matrix(12,0,0,12,133.8,835.5)" />
<use xlink:href="#f1_21" transform="matrix(12,0,0,12,139.7,835.5)" />
<use xlink:href="#f1_1z" transform="matrix(12,0,0,12,147.7,835.5)" />
<use xlink:href="#f1_2g" transform="matrix(12,0,0,12,155.8,835.5)" />
<use xlink:href="#f1_25" transform="matrix(12,0,0,12,162,835.5)" />
<use xlink:href="#f1_2a" transform="matrix(12,0,0,12,167.1,835.5)" />
<use xlink:href="#f1_23" transform="matrix(12,0,0,12,177.4,835.5)" />
<use xlink:href="#f1_2g" transform="matrix(12,0,0,12,191.3,835.5)" />
<use xlink:href="#f1_24" transform="matrix(12,0,0,12,197.5,835.5)" />
<use xlink:href="#f1_21" transform="matrix(12,0,0,12,207.8,835.5)" />
<use xlink:href="#f1_21" transform="matrix(12,0,0,12,220.8,835.5)" />
<use xlink:href="#f1_2a" transform="matrix(12,0,0,12,228.9,835.5)" />
<use xlink:href="#f1_2m" transform="matrix(12,0,0,12,239.1,835.5)" />
<use xlink:href="#f1_2l" transform="matrix(12,0,0,12,246.8,835.5)" />
<use xlink:href="#f1_29" transform="matrix(12,0,0,12,256,835.5)" />
<use xlink:href="#f1_21" transform="matrix(12,0,0,12,271,835.5)" />
<use xlink:href="#f1_1x" transform="matrix(12,0,0,12,283.8,835.5)" />
<use xlink:href="#f1_1z" transform="matrix(12,0,0,12,293,835.5)" />
<use xlink:href="#f1_2g" transform="matrix(12,0,0,12,301.1,835.5)" />
<use xlink:href="#f1_25" transform="matrix(12,0,0,12,307.3,835.5)" />
<use xlink:href="#f1_2i" transform="matrix(12,0,0,12,312.4,835.5)" />
<use xlink:href="#f1_25" transform="matrix(12,0,0,12,321.6,835.5)" />
<use xlink:href="#f1_2g" transform="matrix(12,0,0,12,326.7,835.5)" />
<use xlink:href="#f1_2l" transform="matrix(12,0,0,12,332.9,835.5)" />
</g>
<path fill-rule="evenodd" d="M55,839.2H342.2v-1.8H55v1.8Z" class="g0_165" />
<g fill="#000000" >
<use xlink:href="#f2_1k" transform="matrix(12,0,0,12,55,879.5)" />
<use xlink:href="#f2_21" transform="matrix(12,0,0,12,66.4,879.5)" />
<use xlink:href="#f2_29" transform="matrix(12,0,0,12,74.8,879.5)" />
<use xlink:href="#f2_2c" transform="matrix(12,0,0,12,88.4,879.5)" />
<use xlink:href="#f2_21" transform="matrix(12,0,0,12,97.5,879.5)" />
<use xlink:href="#f2_2e" transform="matrix(12,0,0,12,105.6,879.5)" />
<use xlink:href="#f2_1x" transform="matrix(12,0,0,12,111.8,879.5)" />
<use xlink:href="#f2_2g" transform="matrix(12,0,0,12,119.9,879.5)" />
<use xlink:href="#f2_2h" transform="matrix(12,0,0,12,125.4,879.5)" />
<use xlink:href="#f2_2e" transform="matrix(12,0,0,12,134.5,879.5)" />
<use xlink:href="#f2_21" transform="matrix(12,0,0,12,140.7,879.5)" />
<use xlink:href="#f2_g" transform="matrix(12,0,0,12,148.8,879.5)" />
<use xlink:href="#f2_2c" transform="matrix(12,0,0,12,157.6,879.5)" />
<use xlink:href="#f2_18" transform="matrix(12,0,0,12,166.8,879.5)" />
<use xlink:href="#f2_1x" transform="matrix(12,0,0,12,184,879.5)" />
<use xlink:href="#f2_2a" transform="matrix(12,0,0,12,192.1,879.5)" />
<use xlink:href="#f2_20" transform="matrix(12,0,0,12,200.9,879.5)" />
<use xlink:href="#f2_2f" transform="matrix(12,0,0,12,214.4,879.5)" />
<use xlink:href="#f2_2h" transform="matrix(12,0,0,12,221.4,879.5)" />
<use xlink:href="#f2_1y" transform="matrix(12,0,0,12,230.6,879.5)" />
<use xlink:href="#f2_2f" transform="matrix(12,0,0,12,239.7,879.5)" />
<use xlink:href="#f2_2g" transform="matrix(12,0,0,12,246.7,879.5)" />
<use xlink:href="#f2_2e" transform="matrix(12,0,0,12,252.2,879.5)" />
<use xlink:href="#f2_1x" transform="matrix(12,0,0,12,258.4,879.5)" />
<use xlink:href="#f2_2g" transform="matrix(12,0,0,12,266.1,879.5)" />
<use xlink:href="#f2_21" transform="matrix(12,0,0,12,271.6,879.5)" />
<use xlink:href="#f2_1z" transform="matrix(12,0,0,12,284.1,879.5)" />
<use xlink:href="#f2_2b" transform="matrix(12,0,0,12,291.8,879.5)" />
<use xlink:href="#f2_2a" transform="matrix(12,0,0,12,301.3,879.5)" />
<use xlink:href="#f2_1z" transform="matrix(12,0,0,12,310.1,879.5)" />
<use xlink:href="#f2_21" transform="matrix(12,0,0,12,318.1,879.5)" />
<use xlink:href="#f2_2a" transform="matrix(12,0,0,12,326.2,879.5)" />
<use xlink:href="#f2_2g" transform="matrix(12,0,0,12,335,879.5)" />
<use xlink:href="#f2_2e" transform="matrix(12,0,0,12,340.5,879.5)" />
<use xlink:href="#f2_1x" transform="matrix(12,0,0,12,346.7,879.5)" />
<use xlink:href="#f2_2g" transform="matrix(12,0,0,12,354.8,879.5)" />
<use xlink:href="#f2_25" transform="matrix(12,0,0,12,360.2,879.5)" />
<use xlink:href="#f2_2b" transform="matrix(12,0,0,12,364.6,879.5)" />
<use xlink:href="#f2_2a" transform="matrix(12,0,0,12,374.2,879.5)" />
<use xlink:href="#f2_1x" transform="matrix(12,0,0,12,387.4,879.5)" />
<use xlink:href="#f2_22" transform="matrix(12,0,0,12,395.8,879.5)" />
<use xlink:href="#f2_22" transform="matrix(12,0,0,12,401.6,879.5)" />
<use xlink:href="#f2_21" transform="matrix(12,0,0,12,407.1,879.5)" />
<use xlink:href="#f2_1z" transform="matrix(12,0,0,12,415.6,879.5)" />
<use xlink:href="#f2_2g" transform="matrix(12,0,0,12,423.6,879.5)" />
<use xlink:href="#f2_2f" transform="matrix(12,0,0,12,429.1,879.5)" />
<use xlink:href="#f2_2g" transform="matrix(12,0,0,12,440.5,879.5)" />
<use xlink:href="#f2_24" transform="matrix(12,0,0,12,446,879.5)" />
<use xlink:href="#f2_21" transform="matrix(12,0,0,12,454.8,879.5)" />
<use xlink:href="#f2_21" transform="matrix(12,0,0,12,467.2,879.5)" />
<use xlink:href="#f2_2a" transform="matrix(12,0,0,12,475.3,879.5)" />
<use xlink:href="#f2_2m" transform="matrix(12,0,0,12,484.1,879.5)" />
<use xlink:href="#f2_2l" transform="matrix(12,0,0,12,492.5,879.5)" />
<use xlink:href="#f2_29" transform="matrix(12,0,0,12,501.3,879.5)" />
<use xlink:href="#f2_21" transform="matrix(12,0,0,12,515.2,879.5)" />
<use xlink:href="#f2_1x" transform="matrix(12,0,0,12,527.7,879.5)" />
<use xlink:href="#f2_1z" transform="matrix(12,0,0,12,535.8,879.5)" />
<use xlink:href="#f2_2g" transform="matrix(12,0,0,12,543.8,879.5)" />
<use xlink:href="#f2_25" transform="matrix(12,0,0,12,549.7,879.5)" />
<use xlink:href="#f2_2i" transform="matrix(12,0,0,12,554.5,879.5)" />
<use xlink:href="#f2_25" transform="matrix(12,0,0,12,563.6,879.5)" />
<use xlink:href="#f2_2g" transform="matrix(12,0,0,12,568,879.5)" />
<use xlink:href="#f2_2l" transform="matrix(12,0,0,12,573.9,879.5)" />
<use xlink:href="#f2_i" transform="matrix(12,0,0,12,582.3,879.5)" />
<use xlink:href="#f2_18" transform="matrix(12,0,0,12,591.5,879.5)" />
<use xlink:href="#f2_25" transform="matrix(12,0,0,12,605,879.5)" />
<use xlink:href="#f2_23" transform="matrix(12,0,0,12,609.4,879.5)" />
<use xlink:href="#f2_24" transform="matrix(12,0,0,12,618.9,879.5)" />
<use xlink:href="#f2_2b" transform="matrix(12,0,0,12,632.1,879.5)" />
<use xlink:href="#f2_2e" transform="matrix(12,0,0,12,641.6,879.5)" />
<use xlink:href="#f2_28" transform="matrix(12,0,0,12,651.9,879.5)" />
<use xlink:href="#f2_2b" transform="matrix(12,0,0,12,656.3,879.5)" />
<use xlink:href="#f2_2j" transform="matrix(12,0,0,12,665.8,879.5)" />
<use xlink:href="#f2_2g" transform="matrix(12,0,0,12,683,879.5)" />
<use xlink:href="#f2_21" transform="matrix(12,0,0,12,688.5,879.5)" />
<use xlink:href="#f2_29" transform="matrix(12,0,0,12,696.6,879.5)" />
<use xlink:href="#f2_2c" transform="matrix(12,0,0,12,710.2,879.5)" />
<use xlink:href="#f2_21" transform="matrix(12,0,0,12,719.3,879.5)" />
<use xlink:href="#f2_2e" transform="matrix(12,0,0,12,727.4,879.5)" />
<use xlink:href="#f2_1x" transform="matrix(12,0,0,12,733.6,879.5)" />
<use xlink:href="#f2_2g" transform="matrix(12,0,0,12,741.7,879.5)" />
<use xlink:href="#f2_2h" transform="matrix(12,0,0,12,747.2,879.5)" />
<use xlink:href="#f2_2e" transform="matrix(12,0,0,12,756.3,879.5)" />
<use xlink:href="#f2_21" transform="matrix(12,0,0,12,762.5,879.5)" />
<use xlink:href="#f2_25" transform="matrix(12,0,0,12,775,879.5)" />
<use xlink:href="#f2_2a" transform="matrix(12,0,0,12,779.8,879.5)" />
<use xlink:href="#f2_1x" transform="matrix(12,0,0,12,788.6,879.5)" />
<use xlink:href="#f2_1z" transform="matrix(12,0,0,12,797,879.5)" />
<use xlink:href="#f2_2g" transform="matrix(12,0,0,12,805.1,879.5)" />
<use xlink:href="#f2_25" transform="matrix(12,0,0,12,810.5,879.5)" />
<use xlink:href="#f2_2i" transform="matrix(12,0,0,12,815.3,879.5)" />
<use xlink:href="#f2_1x" transform="matrix(12,0,0,12,824.1,879.5)" />
<use xlink:href="#f2_2g" transform="matrix(12,0,0,12,832.2,879.5)" />
<use xlink:href="#f2_21" transform="matrix(12,0,0,12,837.7,879.5)" />
<use xlink:href="#f2_2f" transform="matrix(12,0,0,12,845.7,879.5)" />
<use xlink:href="#f2_2g" transform="matrix(12,0,0,12,857.1,879.5)" />
<use xlink:href="#f2_24" transform="matrix(12,0,0,12,862.6,879.5)" />
<use xlink:href="#f2_21" transform="matrix(12,0,0,12,871.4,879.5)" />
<use xlink:href="#f2_21" transform="matrix(12,0,0,12,55,911.1)" />
<use xlink:href="#f2_2a" transform="matrix(12,0,0,12,63.1,911.1)" />
<use xlink:href="#f2_2m" transform="matrix(12,0,0,12,71.9,911.1)" />
<use xlink:href="#f2_2l" transform="matrix(12,0,0,12,80.3,911.1)" />
<use xlink:href="#f2_29" transform="matrix(12,0,0,12,89.5,911.1)" />
<use xlink:href="#f2_21" transform="matrix(12,0,0,12,103.4,911.1)" />
<use xlink:href="#f2_1x" transform="matrix(12,0,0,12,116.2,911.1)" />
<use xlink:href="#f2_1z" transform="matrix(12,0,0,12,124.3,911.1)" />
<use xlink:href="#f2_2g" transform="matrix(12,0,0,12,132.4,911.1)" />
<use xlink:href="#f2_25" transform="matrix(12,0,0,12,138.2,911.1)" />
<use xlink:href="#f2_2i" transform="matrix(12,0,0,12,143,911.1)" />
<use xlink:href="#f2_25" transform="matrix(12,0,0,12,152.1,911.1)" />
<use xlink:href="#f2_2g" transform="matrix(12,0,0,12,156.5,911.1)" />
<use xlink:href="#f2_2l" transform="matrix(12,0,0,12,162.4,911.1)" />
<use xlink:href="#f2_i" transform="matrix(12,0,0,12,170.8,911.1)" />
<use xlink:href="#f2_14" transform="matrix(12,0,0,12,180.3,911.1)" />
<use xlink:href="#f2_21" transform="matrix(12,0,0,12,193.6,911.1)" />
<use xlink:href="#f2_2c" transform="matrix(12,0,0,12,201.6,911.1)" />
<use xlink:href="#f2_2e" transform="matrix(12,0,0,12,210.8,911.1)" />
<use xlink:href="#f2_2b" transform="matrix(12,0,0,12,217,911.1)" />
<use xlink:href="#f2_2g" transform="matrix(12,0,0,12,226.5,911.1)" />
<use xlink:href="#f2_2b" transform="matrix(12,0,0,12,231.6,911.1)" />
<use xlink:href="#f2_2a" transform="matrix(12,0,0,12,241.1,911.1)" />
<use xlink:href="#f2_1x" transform="matrix(12,0,0,12,249.9,911.1)" />
<use xlink:href="#f2_2g" transform="matrix(12,0,0,12,258,911.1)" />
<use xlink:href="#f2_25" transform="matrix(12,0,0,12,263.5,911.1)" />
<use xlink:href="#f2_2b" transform="matrix(12,0,0,12,267.9,911.1)" />
<use xlink:href="#f2_2a" transform="matrix(12,0,0,12,277.4,911.1)" />
<use xlink:href="#f2_2b" transform="matrix(12,0,0,12,290.9,911.1)" />
<use xlink:href="#f2_2e" transform="matrix(12,0,0,12,300.5,911.1)" />
<use xlink:href="#f2_2c" transform="matrix(12,0,0,12,311.1,911.1)" />
<use xlink:href="#f2_2e" transform="matrix(12,0,0,12,320.2,911.1)" />
<use xlink:href="#f2_2b" transform="matrix(12,0,0,12,326.1,911.1)" />
<use xlink:href="#f2_2g" transform="matrix(12,0,0,12,335.3,911.1)" />
<use xlink:href="#f2_2b" transform="matrix(12,0,0,12,340.4,911.1)" />
<use xlink:href="#f2_2a" transform="matrix(12,0,0,12,349.9,911.1)" />
<use xlink:href="#f2_1x" transform="matrix(12,0,0,12,358.7,911.1)" />
<use xlink:href="#f2_2g" transform="matrix(12,0,0,12,366.8,911.1)" />
<use xlink:href="#f2_25" transform="matrix(12,0,0,12,372.3,911.1)" />
<use xlink:href="#f2_2b" transform="matrix(12,0,0,12,376.7,911.1)" />
<use xlink:href="#f2_2a" transform="matrix(12,0,0,12,386.2,911.1)" />
<use xlink:href="#f2_1x" transform="matrix(12,0,0,12,399.7,911.1)" />
<use xlink:href="#f2_28" transform="matrix(12,0,0,12,408.2,911.1)" />
<use xlink:href="#f2_2g" transform="matrix(12,0,0,12,412.6,911.1)" />
<use xlink:href="#f2_21" transform="matrix(12,0,0,12,418,911.1)" />
<use xlink:href="#f2_2e" transform="matrix(12,0,0,12,426.1,911.1)" />
<use xlink:href="#f2_2f" transform="matrix(12,0,0,12,432.3,911.1)" />
<use xlink:href="#f2_2g" transform="matrix(12,0,0,12,443.7,911.1)" />
<use xlink:href="#f2_24" transform="matrix(12,0,0,12,449.2,911.1)" />
<use xlink:href="#f2_21" transform="matrix(12,0,0,12,458,911.1)" />
<use xlink:href="#f2_21" transform="matrix(12,0,0,12,470.8,911.1)" />
<use xlink:href="#f2_2a" transform="matrix(12,0,0,12,478.8,911.1)" />
<use xlink:href="#f2_2m" transform="matrix(12,0,0,12,488,911.1)" />
<use xlink:href="#f2_2l" transform="matrix(12,0,0,12,496.4,911.1)" />
<use xlink:href="#f2_29" transform="matrix(12,0,0,12,505.2,911.1)" />
<use xlink:href="#f2_21" transform="matrix(12,0,0,12,519.2,911.1)" />
<use xlink:href="#f2_1x" transform="matrix(12,0,0,12,532,911.1)" />
<use xlink:href="#f2_1z" transform="matrix(12,0,0,12,540,911.1)" />
<use xlink:href="#f2_2g" transform="matrix(12,0,0,12,548.1,911.1)" />
<use xlink:href="#f2_25" transform="matrix(12,0,0,12,554,911.1)" />
<use xlink:href="#f2_2i" transform="matrix(12,0,0,12,558.7,911.1)" />
<use xlink:href="#f2_25" transform="matrix(12,0,0,12,567.9,911.1)" />
<use xlink:href="#f2_2g" transform="matrix(12,0,0,12,572.3,911.1)" />
<use xlink:href="#f2_2l" transform="matrix(12,0,0,12,578.1,911.1)" />
<use xlink:href="#f2_i" transform="matrix(12,0,0,12,586.9,911.1)" />
<use xlink:href="#f2_15" transform="matrix(12,0,0,12,55,954.7)" />
<use xlink:href="#f2_2a" transform="matrix(12,0,0,12,66.4,954.7)" />
<use xlink:href="#f2_2m" transform="matrix(12,0,0,12,75.2,954.7)" />
<use xlink:href="#f2_2l" transform="matrix(12,0,0,12,83.6,954.7)" />
<use xlink:href="#f2_29" transform="matrix(12,0,0,12,92.8,954.7)" />
<use xlink:href="#f2_21" transform="matrix(12,0,0,12,106.7,954.7)" />
<use xlink:href="#f2_1z" transform="matrix(12,0,0,12,122.1,954.7)" />
<use xlink:href="#f2_1x" transform="matrix(12,0,0,12,130.1,954.7)" />
<use xlink:href="#f2_2a" transform="matrix(12,0,0,12,138.2,954.7)" />
<use xlink:href="#f2_1x" transform="matrix(12,0,0,12,154.3,954.7)" />
<use xlink:href="#f2_28" transform="matrix(12,0,0,12,162.7,954.7)" />
<use xlink:href="#f2_2f" transform="matrix(12,0,0,12,167.5,954.7)" />
<use xlink:href="#f2_2b" transform="matrix(12,0,0,12,174.5,954.7)" />
<use xlink:href="#f2_1y" transform="matrix(12,0,0,12,191.3,954.7)" />
<use xlink:href="#f2_21" transform="matrix(12,0,0,12,200.1,954.7)" />
<use xlink:href="#f2_25" transform="matrix(12,0,0,12,215.5,954.7)" />
<use xlink:href="#f2_2a" transform="matrix(12,0,0,12,220.3,954.7)" />
<use xlink:href="#f2_1x" transform="matrix(12,0,0,12,229.1,954.7)" />
<use xlink:href="#f2_1z" transform="matrix(12,0,0,12,237.1,954.7)" />
<use xlink:href="#f2_2g" transform="matrix(12,0,0,12,245.2,954.7)" />
<use xlink:href="#f2_25" transform="matrix(12,0,0,12,251,954.7)" />
<use xlink:href="#f2_2i" transform="matrix(12,0,0,12,255.8,954.7)" />
<use xlink:href="#f2_1x" transform="matrix(12,0,0,12,264.6,954.7)" />
<use xlink:href="#f2_2g" transform="matrix(12,0,0,12,272.7,954.7)" />
<use xlink:href="#f2_21" transform="matrix(12,0,0,12,278.2,954.7)" />
<use xlink:href="#f2_20" transform="matrix(12,0,0,12,286.2,954.7)" />
<use xlink:href="#f2_1y" transform="matrix(12,0,0,12,302.7,954.7)" />
<use xlink:href="#f2_2l" transform="matrix(12,0,0,12,311.9,954.7)" />
<use xlink:href="#f2_29" transform="matrix(12,0,0,12,328.3,954.7)" />
<use xlink:href="#f2_2b" transform="matrix(12,0,0,12,341.8,954.7)" />
<use xlink:href="#f2_28" transform="matrix(12,0,0,12,351.7,954.7)" />
<use xlink:href="#f2_21" transform="matrix(12,0,0,12,356.1,954.7)" />
<use xlink:href="#f2_1z" transform="matrix(12,0,0,12,364.5,954.7)" />
<use xlink:href="#f2_2h" transform="matrix(12,0,0,12,372.6,954.7)" />
<use xlink:href="#f2_28" transform="matrix(12,0,0,12,382.1,954.7)" />
<use xlink:href="#f2_21" transform="matrix(12,0,0,12,386.9,954.7)" />
<use xlink:href="#f2_2f" transform="matrix(12,0,0,12,395,954.7)" />
<use xlink:href="#f2_27" transform="matrix(12,0,0,12,409.2,954.7)" />
<use xlink:href="#f2_2a" transform="matrix(12,0,0,12,418.4,954.7)" />
<use xlink:href="#f2_2b" transform="matrix(12,0,0,12,427.6,954.7)" />
<use xlink:href="#f2_2j" transform="matrix(12,0,0,12,437.1,954.7)" />
<use xlink:href="#f2_2a" transform="matrix(12,0,0,12,450.3,954.7)" />
<use xlink:href="#f2_1x" transform="matrix(12,0,0,12,466.4,954.7)" />
<use xlink:href="#f2_2f" transform="matrix(12,0,0,12,474.5,954.7)" />
<use xlink:href="#f2_25" transform="matrix(12,0,0,12,489,954.7)" />
<use xlink:href="#f2_2a" transform="matrix(12,0,0,12,493.7,954.7)" />
<use xlink:href="#f2_24" transform="matrix(12,0,0,12,502.9,954.7)" />
<use xlink:href="#f2_25" transform="matrix(12,0,0,12,512.1,954.7)" />
<use xlink:href="#f2_1y" transform="matrix(12,0,0,12,516.8,954.7)" />
<use xlink:href="#f2_25" transform="matrix(12,0,0,12,526,954.7)" />
<use xlink:href="#f2_2g" transform="matrix(12,0,0,12,530.4,954.7)" />
<use xlink:href="#f2_2b" transform="matrix(12,0,0,12,535.9,954.7)" />
<use xlink:href="#f2_2e" transform="matrix(12,0,0,12,545.4,954.7)" />
<use xlink:href="#f2_2f" transform="matrix(12,0,0,12,551.6,954.7)" />
<use xlink:href="#f2_i" transform="matrix(12,0,0,12,558.6,954.7)" />
<use xlink:href="#f2_1k" transform="matrix(12,0,0,12,570.7,954.7)" />
<use xlink:href="#f2_24" transform="matrix(12,0,0,12,582.1,954.7)" />
<use xlink:href="#f2_21" transform="matrix(12,0,0,12,590.9,954.7)" />
<use xlink:href="#f2_29" transform="matrix(12,0,0,12,606.3,954.7)" />
<use xlink:href="#f2_2b" transform="matrix(12,0,0,12,619.8,954.7)" />
<use xlink:href="#f2_2f" transform="matrix(12,0,0,12,629.4,954.7)" />
<use xlink:href="#f2_2g" transform="matrix(12,0,0,12,636.3,954.7)" />
<use xlink:href="#f2_1z" transform="matrix(12,0,0,12,648.8,954.7)" />
<use xlink:href="#f2_2b" transform="matrix(12,0,0,12,656.5,954.7)" />
<use xlink:href="#f2_29" transform="matrix(12,0,0,12,666,954.7)" />
<use xlink:href="#f2_29" transform="matrix(12,0,0,12,679.9,954.7)" />
<use xlink:href="#f2_2b" transform="matrix(12,0,0,12,693.5,954.7)" />
<use xlink:href="#f2_2a" transform="matrix(12,0,0,12,703.4,954.7)" />
<use xlink:href="#f2_2g" transform="matrix(12,0,0,12,719.5,954.7)" />
<use xlink:href="#f2_2l" transform="matrix(12,0,0,12,725,954.7)" />
<use xlink:href="#f2_2c" transform="matrix(12,0,0,12,733.4,954.7)" />
<use xlink:href="#f2_21" transform="matrix(12,0,0,12,742.6,954.7)" />
<use xlink:href="#f2_2b" transform="matrix(12,0,0,12,757.9,954.7)" />
<use xlink:href="#f2_22" transform="matrix(12,0,0,12,767.5,954.7)" />
<use xlink:href="#f2_25" transform="matrix(12,0,0,12,780.6,954.7)" />
<use xlink:href="#f2_2a" transform="matrix(12,0,0,12,785.4,954.7)" />
<use xlink:href="#f2_24" transform="matrix(12,0,0,12,794.6,954.7)" />
<use xlink:href="#f2_25" transform="matrix(12,0,0,12,803.7,954.7)" />
<use xlink:href="#f2_1y" transform="matrix(12,0,0,12,808.5,954.7)" />
<use xlink:href="#f2_25" transform="matrix(12,0,0,12,818,954.7)" />
<use xlink:href="#f2_2g" transform="matrix(12,0,0,12,822.4,954.7)" />
<use xlink:href="#f2_2b" transform="matrix(12,0,0,12,827.9,954.7)" />
<use xlink:href="#f2_2e" transform="matrix(12,0,0,12,837.4,954.7)" />
<use xlink:href="#f2_2f" transform="matrix(12,0,0,12,843.6,954.7)" />
<use xlink:href="#f2_1x" transform="matrix(12,0,0,12,857.9,954.7)" />
<use xlink:href="#f2_2e" transform="matrix(12,0,0,12,866,954.7)" />
<use xlink:href="#f2_21" transform="matrix(12,0,0,12,872.2,954.7)" />
<use xlink:href="#f2_1z" transform="matrix(12,0,0,12,55,986.6)" />
<use xlink:href="#f2_2b" transform="matrix(12,0,0,12,63.1,986.6)" />
<use xlink:href="#f2_29" transform="matrix(12,0,0,12,72.6,986.6)" />
<use xlink:href="#f2_2c" transform="matrix(12,0,0,12,86.2,986.6)" />
<use xlink:href="#f2_21" transform="matrix(12,0,0,12,95.4,986.6)" />
<use xlink:href="#f2_2g" transform="matrix(12,0,0,12,103.4,986.6)" />
<use xlink:href="#f2_25" transform="matrix(12,0,0,12,109.3,986.6)" />
<use xlink:href="#f2_2g" transform="matrix(12,0,0,12,113.7,986.6)" />
<use xlink:href="#f2_25" transform="matrix(12,0,0,12,119.5,986.6)" />
<use xlink:href="#f2_2i" transform="matrix(12,0,0,12,124.3,986.6)" />
<use xlink:href="#f2_21" transform="matrix(12,0,0,12,133.1,986.6)" />
<use xlink:href="#f2_25" transform="matrix(12,0,0,12,145.2,986.6)" />
<use xlink:href="#f2_2a" transform="matrix(12,0,0,12,149.9,986.6)" />
<use xlink:href="#f2_24" transform="matrix(12,0,0,12,159.1,986.6)" />
<use xlink:href="#f2_25" transform="matrix(12,0,0,12,168.3,986.6)" />
<use xlink:href="#f2_1y" transform="matrix(12,0,0,12,173,986.6)" />
<use xlink:href="#f2_25" transform="matrix(12,0,0,12,182.6,986.6)" />
<use xlink:href="#f2_2g" transform="matrix(12,0,0,12,187,986.6)" />
<use xlink:href="#f2_2b" transform="matrix(12,0,0,12,192.4,986.6)" />
<use xlink:href="#f2_2e" transform="matrix(12,0,0,12,202,986.6)" />
<use xlink:href="#f2_2f" transform="matrix(12,0,0,12,208.2,986.6)" />
<use xlink:href="#f2_i" transform="matrix(12,0,0,12,215.1,986.6)" />
<use xlink:href="#f2_1k" transform="matrix(12,0,0,12,223.6,986.6)" />
<use xlink:href="#f2_24" transform="matrix(12,0,0,12,234.9,986.6)" />
<use xlink:href="#f2_21" transform="matrix(12,0,0,12,243.7,986.6)" />
<use xlink:href="#f2_2f" transform="matrix(12,0,0,12,251.8,986.6)" />
<use xlink:href="#f2_21" transform="matrix(12,0,0,12,258.7,986.6)" />
<use xlink:href="#f2_25" transform="matrix(12,0,0,12,270.8,986.6)" />
<use xlink:href="#f2_2a" transform="matrix(12,0,0,12,275.6,986.6)" />
<use xlink:href="#f2_24" transform="matrix(12,0,0,12,284.8,986.6)" />
<use xlink:href="#f2_25" transform="matrix(12,0,0,12,293.9,986.6)" />
<use xlink:href="#f2_1y" transform="matrix(12,0,0,12,298.7,986.6)" />
<use xlink:href="#f2_25" transform="matrix(12,0,0,12,308.2,986.6)" />
<use xlink:href="#f2_2g" transform="matrix(12,0,0,12,312.6,986.6)" />
<use xlink:href="#f2_2b" transform="matrix(12,0,0,12,318.1,986.6)" />
<use xlink:href="#f2_2e" transform="matrix(12,0,0,12,327.6,986.6)" />
<use xlink:href="#f2_2f" transform="matrix(12,0,0,12,333.8,986.6)" />
<use xlink:href="#f2_1z" transform="matrix(12,0,0,12,344.5,986.6)" />
<use xlink:href="#f2_2b" transform="matrix(12,0,0,12,352.5,986.6)" />
<use xlink:href="#f2_29" transform="matrix(12,0,0,12,362,986.6)" />
<use xlink:href="#f2_2c" transform="matrix(12,0,0,12,375.6,986.6)" />
<use xlink:href="#f2_21" transform="matrix(12,0,0,12,384.8,986.6)" />
<use xlink:href="#f2_2g" transform="matrix(12,0,0,12,392.8,986.6)" />
<use xlink:href="#f2_21" transform="matrix(12,0,0,12,398.3,986.6)" />
<use xlink:href="#f2_2j" transform="matrix(12,0,0,12,410.1,986.6)" />
<use xlink:href="#f2_25" transform="matrix(12,0,0,12,423.3,986.6)" />
<use xlink:href="#f2_2g" transform="matrix(12,0,0,12,428,986.6)" />
<use xlink:href="#f2_24" transform="matrix(12,0,0,12,433.5,986.6)" />
<use xlink:href="#f2_2f" transform="matrix(12,0,0,12,446,986.6)" />
<use xlink:href="#f2_2h" transform="matrix(12,0,0,12,452.9,986.6)" />
<use xlink:href="#f2_1y" transform="matrix(12,0,0,12,462.1,986.6)" />
<use xlink:href="#f2_2f" transform="matrix(12,0,0,12,470.9,986.6)" />
<use xlink:href="#f2_2g" transform="matrix(12,0,0,12,477.9,986.6)" />
<use xlink:href="#f2_2e" transform="matrix(12,0,0,12,483.4,986.6)" />
<use xlink:href="#f2_1x" transform="matrix(12,0,0,12,489.6,986.6)" />
<use xlink:href="#f2_2g" transform="matrix(12,0,0,12,497.6,986.6)" />
<use xlink:href="#f2_21" transform="matrix(12,0,0,12,503.1,986.6)" />
<use xlink:href="#f2_22" transform="matrix(12,0,0,12,514.9,986.6)" />
<use xlink:href="#f2_2b" transform="matrix(12,0,0,12,520.4,986.6)" />
<use xlink:href="#f2_2e" transform="matrix(12,0,0,12,529.9,986.6)" />
<use xlink:href="#f2_1y" transform="matrix(12,0,0,12,539.8,986.6)" />
<use xlink:href="#f2_25" transform="matrix(12,0,0,12,548.6,986.6)" />
<use xlink:href="#f2_2a" transform="matrix(12,0,0,12,553.3,986.6)" />
<use xlink:href="#f2_20" transform="matrix(12,0,0,12,562.1,986.6)" />
<use xlink:href="#f2_25" transform="matrix(12,0,0,12,571.6,986.6)" />
<use xlink:href="#f2_2a" transform="matrix(12,0,0,12,576.4,986.6)" />
<use xlink:href="#f2_23" transform="matrix(12,0,0,12,585.6,986.6)" />
<use xlink:href="#f2_2g" transform="matrix(12,0,0,12,598.4,986.6)" />
<use xlink:href="#f2_2b" transform="matrix(12,0,0,12,603.9,986.6)" />
<use xlink:href="#f2_2g" transform="matrix(12,0,0,12,616.3,986.6)" />
<use xlink:href="#f2_24" transform="matrix(12,0,0,12,621.8,986.6)" />
<use xlink:href="#f2_21" transform="matrix(12,0,0,12,630.6,986.6)" />
<use xlink:href="#f2_21" transform="matrix(12,0,0,12,642.4,986.6)" />
<use xlink:href="#f2_2a" transform="matrix(12,0,0,12,650.4,986.6)" />
<use xlink:href="#f2_2m" transform="matrix(12,0,0,12,659.2,986.6)" />
<use xlink:href="#f2_2l" transform="matrix(12,0,0,12,667.6,986.6)" />
<use xlink:href="#f2_29" transform="matrix(12,0,0,12,676.8,986.6)" />
<use xlink:href="#f2_21" transform="matrix(12,0,0,12,690.7,986.6)" />
<use xlink:href="#f2_1x" transform="matrix(12,0,0,12,702.5,986.6)" />
<use xlink:href="#f2_1z" transform="matrix(12,0,0,12,710.5,986.6)" />
<use xlink:href="#f2_2g" transform="matrix(12,0,0,12,718.6,986.6)" />
<use xlink:href="#f2_25" transform="matrix(12,0,0,12,724.5,986.6)" />
<use xlink:href="#f2_2i" transform="matrix(12,0,0,12,729.2,986.6)" />
<use xlink:href="#f2_21" transform="matrix(12,0,0,12,738,986.6)" />
<use xlink:href="#f2_2f" transform="matrix(12,0,0,12,749.8,986.6)" />
<use xlink:href="#f2_25" transform="matrix(12,0,0,12,757.1,986.6)" />
<use xlink:href="#f2_2g" transform="matrix(12,0,0,12,761.5,986.6)" />
<use xlink:href="#f2_21" transform="matrix(12,0,0,12,767,986.6)" />
<use xlink:href="#f2_i" transform="matrix(12,0,0,12,775,986.6)" />
<use xlink:href="#f2_16" transform="matrix(12,0,0,12,783.4,986.6)" />
<use xlink:href="#f2_2b" transform="matrix(12,0,0,12,793.3,986.6)" />
<use xlink:href="#f2_2e" transform="matrix(12,0,0,12,802.9,986.6)" />
<use xlink:href="#f2_21" transform="matrix(12,0,0,12,812.7,986.6)" />
<use xlink:href="#f2_2k" transform="matrix(12,0,0,12,820.8,986.6)" />
<use xlink:href="#f2_1x" transform="matrix(12,0,0,12,829.6,986.6)" />
<use xlink:href="#f2_29" transform="matrix(12,0,0,12,838,986.6)" />
<use xlink:href="#f2_2c" transform="matrix(12,0,0,12,851.6,986.6)" />
<use xlink:href="#f2_28" transform="matrix(12,0,0,12,861.1,986.6)" />
<use xlink:href="#f2_21" transform="matrix(12,0,0,12,865.9,986.6)" />
<use xlink:href="#f2_g" transform="matrix(12,0,0,12,874.3,986.6)" />
<use xlink:href="#f2_25" transform="matrix(12,0,0,12,55,1018.2)" />
<use xlink:href="#f2_2a" transform="matrix(12,0,0,12,59.8,1018.2)" />
<use xlink:href="#f2_24" transform="matrix(12,0,0,12,69,1018.2)" />
<use xlink:href="#f2_25" transform="matrix(12,0,0,12,78.5,1018.2)" />
<use xlink:href="#f2_1y" transform="matrix(12,0,0,12,83.3,1018.2)" />
<use xlink:href="#f2_25" transform="matrix(12,0,0,12,92.8,1018.2)" />
<use xlink:href="#f2_2g" transform="matrix(12,0,0,12,97.2,1018.2)" />
<use xlink:href="#f2_25" transform="matrix(12,0,0,12,103,1018.2)" />
<use xlink:href="#f2_2b" transform="matrix(12,0,0,12,107.4,1018.2)" />
<use xlink:href="#f2_2a" transform="matrix(12,0,0,12,116.9,1018.2)" />
<use xlink:href="#f2_2b" transform="matrix(12,0,0,12,130.5,1018.2)" />
<use xlink:href="#f2_22" transform="matrix(12,0,0,12,140.4,1018.2)" />
<use xlink:href="#f2_2f" transform="matrix(12,0,0,12,150.6,1018.2)" />
<use xlink:href="#f2_2h" transform="matrix(12,0,0,12,157.6,1018.2)" />
<use xlink:href="#f2_1z" transform="matrix(12,0,0,12,166.7,1018.2)" />
<use xlink:href="#f2_1z" transform="matrix(12,0,0,12,174.8,1018.2)" />
<use xlink:href="#f2_25" transform="matrix(12,0,0,12,183.2,1018.2)" />
<use xlink:href="#f2_2a" transform="matrix(12,0,0,12,188,1018.2)" />
<use xlink:href="#f2_1x" transform="matrix(12,0,0,12,197.2,1018.2)" />
<use xlink:href="#f2_2g" transform="matrix(12,0,0,12,205.2,1018.2)" />
<use xlink:href="#f2_21" transform="matrix(12,0,0,12,210.7,1018.2)" />
<use xlink:href="#f2_20" transform="matrix(12,0,0,12,223.5,1018.2)" />
<use xlink:href="#f2_21" transform="matrix(12,0,0,12,232.7,1018.2)" />
<use xlink:href="#f2_24" transform="matrix(12,0,0,12,240.8,1018.2)" />
<use xlink:href="#f2_2l" transform="matrix(12,0,0,12,249.9,1018.2)" />
<use xlink:href="#f2_20" transform="matrix(12,0,0,12,258.7,1018.2)" />
<use xlink:href="#f2_2e" transform="matrix(12,0,0,12,267.9,1018.2)" />
<use xlink:href="#f2_2b" transform="matrix(12,0,0,12,274.1,1018.2)" />
<use xlink:href="#f2_23" transform="matrix(12,0,0,12,283.6,1018.2)" />
<use xlink:href="#f2_21" transform="matrix(12,0,0,12,292.8,1018.2)" />
<use xlink:href="#f2_2a" transform="matrix(12,0,0,12,300.8,1018.2)" />
<use xlink:href="#f2_1x" transform="matrix(12,0,0,12,309.6,1018.2)" />
<use xlink:href="#f2_2f" transform="matrix(12,0,0,12,317.7,1018.2)" />
<use xlink:href="#f2_21" transform="matrix(12,0,0,12,324.7,1018.2)" />
<use xlink:href="#f2_1y" transform="matrix(12,0,0,12,337.9,1018.2)" />
<use xlink:href="#f2_2l" transform="matrix(12,0,0,12,347,1018.2)" />
<use xlink:href="#f2_1d" transform="matrix(12,0,0,12,360.6,1018.2)" />
<use xlink:href="#f2_1x" transform="matrix(12,0,0,12,376.7,1018.2)" />
<use xlink:href="#f2_28" transform="matrix(12,0,0,12,385.1,1018.2)" />
<use xlink:href="#f2_2b" transform="matrix(12,0,0,12,389.5,1018.2)" />
<use xlink:href="#f2_2a" transform="matrix(12,0,0,12,399.4,1018.2)" />
<use xlink:href="#f2_1x" transform="matrix(12,0,0,12,408.2,1018.2)" />
<use xlink:href="#f2_2g" transform="matrix(12,0,0,12,416.3,1018.2)" />
<use xlink:href="#f2_21" transform="matrix(12,0,0,12,421.8,1018.2)" />
<use xlink:href="#f2_i" transform="matrix(12,0,0,12,429.8,1018.2)" />
</g>
<image preserveAspectRatio="none" x="258" y="185" width="474" height="256" xlink:href="img/1.png" />
<image preserveAspectRatio="none" x="330" y="452" width="329" height="343" xlink:href="img/2.png" />
<g fill="#000000" >
<use xlink:href="#f3_t" transform="matrix(8,0,0,8,818.2,1187.9)" />
</g>
<defs>
<path d="M273,157c0,0,-114,0,-193,80C80,237,0,317,0,431c0,0,0,112,80,192c0,0,79,80,193,80c0,0,113,0,192,-80c0,0,80,-80,80,-192c0,0,0,-114,-80,-194c0,0,-79,-80,-192,-80Z" 
id="f0_3d"
transform="scale(0.001,-0.001)" />

<path d="M608,-14c0,0,-251,0,-392,133C216,119,75,252,75,488c0,0,0,257,134,390c0,0,135,133,398,133c0,0,174,0,361,-50l4,-240H905L884,866c0,0,-98,67,-229,67c0,0,-173,0,-253,-108c0,0,-80,-108,-80,-334c0,0,0,-209,84,-319c0,0,83,-109,243,-109c0,0,84,0,147,22c0,0,63,22,99,53l24,164h68L982,48C982,48,915,22,808,4C808,4,700,-14,608,-14Z" 
id="f1_13"
transform="scale(0.001,-0.001)" />

<path d="M379,60c0,0,59,0,84,64c0,0,24,65,24,231c0,0,0,164,-24,227c0,0,-24,63,-84,63c0,0,-57,0,-80,-60c0,0,-22,-61,-22,-230c0,0,0,-173,23,-234c0,0,22,-61,79,-61Zm-2,-74c0,0,-161,0,-240,91c0,0,-79,91,-79,277c0,0,0,186,80,276c0,0,81,90,245,90c0,0,167,0,245,-93c0,0,78,-93,78,-273c0,0,0,-188,-81,-278c0,0,-81,-90,-248,-90Z" 
id="f1_2b"
transform="scale(0.001,-0.001)" />

<path d="M56,294V424H453V294Z" 
id="f1_h"
transform="scale(0.001,-0.001)" />

<path d="M41,0V49l76,18V624H11v51l106,29v75c0,0,0,144,73,220c0,0,73,77,210,77c0,0,74,0,124,-15V894H476l-22,81c0,0,-18,17,-47,17c0,0,-74,0,-74,-189V701H475V624H333V67L447,49V0Z" 
id="f1_22"
transform="scale(0.001,-0.001)" />

<path d="M345,75c0,0,50,0,110,26V351l-63,-2c0,0,-72,-3,-100,-38c0,0,-28,-35,-28,-113c0,0,0,-63,22,-93c0,0,23,-30,59,-30ZM266,-14c0,0,-217,0,-217,208c0,0,0,79,32,126c0,0,32,48,93,71c0,0,60,22,190,25l91,2V521c0,0,0,126,-104,126c0,0,-62,0,-140,-39L183,521H134V691c0,0,112,17,165,21c0,0,53,5,108,5c0,0,264,0,264,-194V67L741,49V0H483L466,54C466,54,408,14,361,0c0,0,-47,-14,-95,-14Z" 
id="f1_1x"
transform="scale(0.001,-0.001)" />

<path d="M425,-14c0,0,-187,0,-280,90c0,0,-93,90,-93,276c0,0,0,115,42,198c0,0,43,82,121,126c0,0,78,44,182,44c0,0,104,0,227,-26V486H571L539,609c0,0,-25,19,-50,26c0,0,-24,7,-65,7c0,0,-44,0,-79,-35c0,0,-36,-35,-56,-98c0,0,-20,-64,-20,-153c0,0,0,-150,47,-214c0,0,47,-64,148,-64c0,0,103,0,176,21V42C640,42,606,15,547,0c0,0,-59,-14,-122,-14Z" 
id="f1_1z"
transform="scale(0.001,-0.001)" />

<path d="M327,-14c0,0,-101,0,-156,45c0,0,-55,45,-55,131V624H25v48l108,29l87,159H332V701H480V624H332V176c0,0,0,-49,20,-73c0,0,20,-25,53,-25c0,0,40,0,97,12V26c0,0,-22,-15,-76,-27c0,0,-55,-13,-99,-13Z" 
id="f1_2g"
transform="scale(0.001,-0.001)" />

<path d="M41,0V49l91,18V634L41,652v49H336l8,-145c0,0,80,89,144,128c0,0,64,40,117,40h40V468H604l-45,94c0,0,-47,0,-106,-21c0,0,-60,-20,-105,-48V67L460,49V0Z" 
id="f1_2e"
transform="scale(0.001,-0.001)" />

<path d="M248,-20c0,0,-52,0,-87,34c0,0,-36,36,-36,88c0,0,0,52,36,88c0,0,35,36,87,36c0,0,52,0,88,-36c0,0,36,-36,36,-88c0,0,0,-51,-36,-87c0,0,-35,-35,-88,-35Zm0,488c0,0,-52,0,-87,36c0,0,-36,36,-36,88c0,0,0,52,35,88c0,0,35,36,88,36c0,0,53,0,89,-36c0,0,35,-37,35,-88c0,0,0,-51,-36,-87c0,0,-35,-37,-88,-37Z" 
id="f1_u"
transform="scale(0.001,-0.001)" />

<path d="M868,0L251,900V60L385,40V0H44V40L172,60V941L44,960v40H347L862,259V941L727,960v40h341V960L940,941V0Z" 
id="f2_1e"
transform="scale(0.001,-0.001)" />

<path d="M377,45c0,0,99,0,147,73c0,0,47,73,47,237c0,0,0,161,-47,233c0,0,-47,72,-147,72c0,0,-97,0,-141,-69c0,0,-44,-69,-44,-236c0,0,0,-169,45,-240c0,0,44,-70,140,-70Zm0,-59c0,0,-158,0,-238,94c0,0,-81,95,-81,274c0,0,0,178,81,272c0,0,80,94,244,94c0,0,160,0,241,-92c0,0,82,-92,82,-274c0,0,0,-368,-329,-368Z" 
id="f2_2b"
transform="scale(0.001,-0.001)" />

<path d="M439,0V33l93,19V500c0,0,0,62,-30,97c0,0,-31,36,-94,36c0,0,-67,0,-165,-22V52L338,33V0H35V33l84,19V649L35,668v33H235l7,-57c0,0,57,33,122,54c0,0,65,22,108,22c0,0,91,0,137,-53c0,0,47,-53,47,-154V52L741,33V0Z" 
id="f2_2a"
transform="scale(0.001,-0.001)" />

<path d="M57,302V417H454V302Z" 
id="f2_h"
transform="scale(0.001,-0.001)" />

<path d="M382,45c0,0,188,0,188,314c0,0,0,143,-47,213c0,0,-46,69,-141,69c0,0,-87,0,-146,-24V58c0,0,67,-13,146,-13ZM25,-325v35l88,18V649L34,668v33H231l1,-41c0,0,31,27,84,43c0,0,53,17,107,17c0,0,134,0,208,-94c0,0,73,-93,73,-267c0,0,0,-178,-80,-276c0,0,-80,-97,-232,-97c0,0,-84,0,-160,16c0,0,4,-53,4,-84V-272l123,-18v-35Z" 
id="f2_2c"
transform="scale(0.001,-0.001)" />

<path d="M31,0V33l88,19V649L31,668v33H235l7,-87c0,0,44,37,121,71c0,0,76,35,121,35h11V530H463l-43,82c0,0,-37,0,-88,-10c0,0,-52,-10,-89,-26V52L363,33V0Z" 
id="f2_2e"
transform="scale(0.001,-0.001)" />

<path d="M249,-14c0,0,-71,0,-107,42c0,0,-35,42,-35,119V639H15v33l93,29l76,159h47V701H391V639H231V161c0,0,0,-48,22,-73c0,0,22,-24,57,-24c0,0,44,0,106,12V26C416,26,389,8,340,-2c0,0,-49,-12,-91,-12Z" 
id="f2_2g"
transform="scale(0.001,-0.001)" />

<path d="M495,413c0,0,0,133,-34,190c0,0,-34,57,-105,57c0,0,-78,0,-119,-63c0,0,-42,-62,-42,-184ZM374,-14c0,0,-163,0,-239,87c0,0,-75,88,-75,283c0,0,0,183,77,273c0,0,76,91,219,91c0,0,269,0,269,-306V353H194V340c0,0,0,-103,23,-160c0,0,22,-57,70,-87c0,0,47,-29,124,-29c0,0,40,0,96,6c0,0,55,7,91,15V43C598,43,562,20,500,3c0,0,-61,-17,-126,-17Z" 
id="f2_21"
transform="scale(0.001,-0.001)" />

<path d="M32,0V33L151,52V649L52,668v33H275V52L395,33V0ZM201,850c0,0,-32,0,-56,24c0,0,-24,24,-24,56c0,0,0,34,24,58c0,0,24,24,56,24c0,0,34,0,58,-24c0,0,24,-24,24,-58c0,0,0,-32,-24,-56c0,0,-24,-24,-58,-24Z" 
id="f2_25"
transform="scale(0.001,-0.001)" />

<path d="M399,-14c0,0,-341,0,-341,370c0,0,0,175,87,269c0,0,87,95,249,95c0,0,101,0,220,-23V501H573L541,625c0,0,-62,35,-149,35c0,0,-200,0,-200,-304c0,0,0,-158,61,-225c0,0,61,-67,189,-67c0,0,109,0,189,24V43C631,43,595,16,530,1c0,0,-64,-15,-131,-15Z" 
id="f2_1z"
transform="scale(0.001,-0.001)" />

<path d="M278,-14c0,0,-52,0,-115,11c0,0,-63,10,-99,23V193H98L134,95c0,0,56,-50,146,-50c0,0,144,0,144,123c0,0,0,91,-114,130l-66,21c0,0,-75,25,-110,50c0,0,-34,26,-53,63c0,0,-18,36,-18,89c0,0,0,92,63,145c0,0,63,54,170,54c0,0,77,0,193,-23V544H454l-32,81c0,0,-39,35,-124,35c0,0,-61,0,-92,-30c0,0,-32,-30,-32,-80c0,0,0,-43,29,-72c0,0,28,-29,86,-48c0,0,110,-38,144,-55c0,0,33,-17,57,-42c0,0,23,-25,36,-57c0,0,13,-32,13,-79c0,0,0,-104,-66,-158c0,0,-66,-53,-195,-53Z" 
id="f2_2f"
transform="scale(0.001,-0.001)" />

<path d="M289,-14c0,0,-179,0,-179,205V649L20,668v33H233V200c0,0,0,-128,120,-128c0,0,92,0,173,23V649L420,668v33H649V52L738,33V0H533l-6,57C527,57,474,28,405,7c0,0,-69,-21,-116,-21Z" 
id="f2_2h"
transform="scale(0.001,-0.001)" />

<path d="M442,0V33l93,19V504c0,0,0,129,-124,129c0,0,-70,0,-168,-22V52L338,33V0H31V33l88,19v956L15,1026v34H243V756c0,0,0,-77,-5,-112c0,0,54,31,122,53c0,0,68,23,115,23c0,0,91,0,137,-53c0,0,47,-53,47,-154V52L744,33V0Z" 
id="f2_24"
transform="scale(0.001,-0.001)" />

<path d="M284,67c0,0,51,0,88,12c0,0,37,12,74,30V358l-98,-3c0,0,-100,-4,-135,-39c0,0,-35,-35,-35,-117c0,0,0,-132,106,-132ZM233,-14c0,0,-179,0,-179,208c0,0,0,70,27,116c0,0,27,46,87,70c0,0,60,24,173,27l105,3V519c0,0,0,72,-26,107c0,0,-27,34,-82,34c0,0,-75,0,-137,-35L176,538H134V691c0,0,121,26,213,26c0,0,115,0,169,-47c0,0,54,-47,54,-144V52L657,33V0H465L451,70c0,0,-85,-84,-218,-84Z" 
id="f2_1x"
transform="scale(0.001,-0.001)" />

<path d="M376,50c0,0,103,0,149,80c0,0,46,81,46,240c0,0,0,137,-47,204c0,0,-48,67,-148,67c0,0,-44,0,-87,-7c0,0,-44,-8,-63,-17V62c0,0,63,-12,150,-12Zm3,-64c0,0,-64,0,-141,14c0,0,-78,14,-136,37v971L0,1026v34H226V809c0,0,0,-40,-4,-148c0,0,74,59,188,59c0,0,143,0,219,-87c0,0,77,-87,77,-263c0,0,0,-189,-84,-287c0,0,-84,-97,-243,-97Z" 
id="f2_1y"
transform="scale(0.001,-0.001)" />

<path d="M383,64c0,0,85,0,152,28V645c0,0,-67,13,-152,13c0,0,-194,0,-194,-314c0,0,0,-141,48,-211c0,0,48,-69,146,-69ZM342,-14c0,0,-287,0,-287,358c0,0,0,184,82,280c0,0,81,96,239,96c0,0,81,0,163,-18c0,0,-4,25,-4,124v182l-118,18v34H659V52L745,33V0H548l-9,52c0,0,-84,-66,-197,-66Z" 
id="f2_20"
transform="scale(0.001,-0.001)" />

<path d="M41,0V34L426,641H261c0,0,-42,0,-80,-7c0,0,-39,-7,-54,-19L104,515H69V701H586V665L201,60H407c0,0,42,0,89,10c0,0,47,10,66,25l39,147h35L617,0Z" 
id="f2_2m"
transform="scale(0.001,-0.001)" />

<path d="M148,-329c0,0,-58,0,-114,13v151H69l24,-71c0,0,23,-17,64,-17c0,0,39,0,72,22c0,0,33,23,60,67c0,0,27,44,68,157L90,649L19,668v33H344V668L233,648L423,158L606,649L497,668v33H758V668L685,652L411,-43c0,0,-48,-124,-84,-177c0,0,-36,-54,-79,-82c0,0,-44,-27,-100,-27Z" 
id="f2_2l"
transform="scale(0.001,-0.001)" />

<path d="M431,0V33L535,52V499c0,0,0,62,-32,96c0,0,-32,33,-95,33c0,0,-66,0,-163,-22V52L350,33V0H32V33l89,19V649L32,668v33H237l6,-57c0,0,56,32,119,54c0,0,62,22,110,22c0,0,52,0,95,-20c0,0,44,-19,66,-62c0,0,57,32,134,57c0,0,77,25,128,25c0,0,179,0,179,-207V52l90,-19V0H846V33L950,52V499c0,0,0,129,-119,129c0,0,-19,0,-45,-3c0,0,-26,-3,-52,-7c0,0,-25,-4,-49,-8c0,0,-23,-5,-39,-8c0,0,13,-41,13,-89V52L764,33V0Z" 
id="f2_29"
transform="scale(0.001,-0.001)" />

<path d="M477,0V33l64,19L348,354L257,254V52L331,33V0H44V33l89,19v956L29,1026v34H257V338L544,647l-73,20v34H718V667L631,650L431,446L688,50L764,33V0Z" 
id="f2_27"
transform="scale(0.001,-0.001)" />

<path d="M31,0V33L150,52v956L31,1026v34H274V52L394,33V0Z" 
id="f2_28"
transform="scale(0.001,-0.001)" />

<path d="M360,-14L72,649L0,668v33H327V668L216,648L420,164L615,649L504,668v33H764V668L697,652L416,-14Z" 
id="f2_2i"
transform="scale(0.001,-0.001)" />

<path d="M191,-20c0,0,-39,0,-65,25c0,0,-25,27,-25,64c0,0,0,38,26,64c0,0,26,26,64,26c0,0,38,0,64,-26c0,0,26,-26,26,-64c0,0,0,-37,-25,-64c0,0,-26,-25,-65,-25Z" 
id="f2_i"
transform="scale(0.001,-0.001)" />

<path d="M434,423c0,0,0,101,-7,142c0,0,-6,40,-22,60c0,0,-16,19,-45,19c0,0,-44,0,-66,-48c0,0,-22,-49,-22,-173ZM389,-14c0,0,-172,0,-254,89c0,0,-83,90,-83,279c0,0,0,184,79,274c0,0,79,91,238,91c0,0,142,0,206,-76c0,0,64,-76,64,-237V345H271V333c0,0,0,-111,18,-158c0,0,18,-47,58,-72c0,0,40,-25,110,-25c0,0,66,0,166,22V42C623,42,582,18,517,1c0,0,-66,-15,-128,-15Z" 
id="f1_21"
transform="scale(0.001,-0.001)" />

<path d="M41,0V49l69,18V634L41,652v49H313l11,-61l50,26c0,0,105,54,188,54c0,0,194,0,194,-207V67L827,49V0H478V49l63,18V484c0,0,0,63,-27,98c0,0,-26,35,-75,35c0,0,-57,0,-114,-25V67L389,49V0Z" 
id="f1_2a"
transform="scale(0.001,-0.001)" />

<path d="M30,0V34L352,634H272c0,0,-41,0,-80,-7c0,0,-39,-8,-54,-19L115,492H61V701H606V664L283,67H395c0,0,43,0,90,11c0,0,47,10,66,24l40,162h54L624,0Z" 
id="f1_2m"
transform="scale(0.001,-0.001)" />

<path d="M159,-329c0,0,-61,0,-123,14v180H81l32,-94c0,0,21,-17,55,-17c0,0,28,0,50,13c0,0,21,14,40,39c0,0,20,25,37,62c0,0,17,37,50,110L64,634L15,652v49H374V652L290,632L455,244L602,634l-82,18v49H749V652L698,637L421,-44c0,0,-47,-121,-83,-176c0,0,-36,-55,-80,-82c0,0,-43,-27,-99,-27Z" 
id="f1_2l"
transform="scale(0.001,-0.001)" />

<path d="M41,0V49l69,18V634L41,652v49H313l11,-61l50,26c0,0,105,54,188,54c0,0,125,0,167,-91c0,0,153,91,258,91c0,0,189,0,189,-207V67l71,-17V0H898V50l63,17V484c0,0,0,63,-24,98c0,0,-25,35,-74,35c0,0,-55,0,-119,-31c0,0,7,-32,7,-73V67L821,50V0H473V50l63,17V484c0,0,0,63,-25,98c0,0,-24,35,-73,35c0,0,-49,0,-113,-29V67L389,49V0Z" 
id="f1_29"
transform="scale(0.001,-0.001)" />

<path d="M551,45c0,0,171,0,252,108c0,0,82,108,82,349c0,0,0,239,-81,344c0,0,-81,105,-253,105c0,0,-172,0,-252,-105c0,0,-80,-105,-80,-344c0,0,0,-241,80,-349c0,0,81,-108,252,-108Zm0,-59c0,0,-238,0,-363,129C188,115,63,245,63,501c0,0,0,510,488,510c0,0,242,0,366,-129c0,0,124,-130,124,-381c0,0,0,-255,-126,-385C915,116,790,-14,551,-14Z" 
id="f2_1f"
transform="scale(0.001,-0.001)" />

<path d="M359,-270c0,0,124,0,192,46c0,0,67,47,67,129c0,0,0,43,-26,67c0,0,-26,24,-79,24H242c0,0,-32,-27,-51,-69c0,0,-20,-41,-20,-77c0,0,0,-64,46,-92c0,0,46,-28,142,-28Zm11,561c0,0,81,0,115,47c0,0,34,47,34,141c0,0,0,100,-35,142c0,0,-35,42,-113,42c0,0,-78,0,-114,-43c0,0,-37,-42,-37,-141c0,0,0,-98,36,-143c0,0,36,-45,114,-45ZM359,-329c0,0,-143,0,-218,44c0,0,-75,43,-75,125c0,0,0,39,27,78c0,0,26,38,98,89c0,0,-43,14,-72,48c0,0,-29,35,-29,74L208,262c0,0,-118,55,-118,217c0,0,0,115,73,178c0,0,73,63,211,63c0,0,28,0,71,-6c0,0,44,-6,67,-13l165,83l26,-32L599,644c0,0,50,-56,50,-165c0,0,0,-120,-72,-182c0,0,-73,-62,-208,-62c0,0,-62,0,-114,11L208,148c0,0,2,-13,29,-24c0,0,27,-12,67,-12H512c0,0,113,0,168,-49c0,0,55,-49,55,-134c0,0,0,-79,-44,-137c0,0,-43,-58,-128,-90c0,0,-84,-31,-204,-31Z" 
id="f2_23"
transform="scale(0.001,-0.001)" />

<path d="M64,0V34L168,59V639H47v36l121,29v49c0,0,0,155,61,239c0,0,62,84,173,84c0,0,58,0,107,-15V908H472l-33,92c0,0,-26,16,-62,16c0,0,-47,0,-66,-42c0,0,-19,-42,-19,-157V701H478V639H292V59L443,34V0Z" 
id="f2_22"
transform="scale(0.001,-0.001)" />

<path d="M452,474c0,0,104,0,151,52c0,0,47,53,47,178c0,0,0,119,-45,167c0,0,-44,47,-156,47H390V474ZM36,0V54L154,74V926L26,945v55H467c0,0,213,0,318,-71c0,0,105,-71,105,-224c0,0,0,-313,-366,-313H390V74L557,54V0Z" 
id="f1_1g"
transform="scale(0.001,-0.001)" />

<path d="M276,-14c0,0,-57,0,-125,13C151,-1,83,10,48,23V214H97l28,-98c0,0,26,-26,69,-44c0,0,42,-17,86,-17c0,0,65,0,97,28c0,0,32,28,32,71c0,0,0,41,-31,65c0,0,-30,25,-133,57c0,0,-108,34,-154,92c0,0,-45,58,-45,143c0,0,0,95,71,152c0,0,71,57,183,57c0,0,77,0,207,-22V518H457l-24,82c0,0,-21,22,-60,35c0,0,-40,14,-75,14c0,0,-53,0,-79,-22c0,0,-26,-22,-26,-59c0,0,0,-40,32,-65c0,0,32,-26,132,-55c0,0,109,-34,155,-89c0,0,45,-55,45,-137c0,0,0,-117,-72,-177c0,0,-72,-59,-209,-59Z" 
id="f1_2f"
transform="scale(0.001,-0.001)" />

<path d="M41,0V49l69,18V992l-72,18v50H325V756c0,0,0,-49,-4,-116l51,26c0,0,106,54,190,54c0,0,194,0,194,-207V67L827,49V0H478V49l63,18V484c0,0,0,63,-27,98c0,0,-26,35,-75,35c0,0,-57,0,-114,-25V67L389,49V0Z" 
id="f1_24"
transform="scale(0.001,-0.001)" />

<path d="M34,0V49l76,18V634L38,652v49H325V67L402,49V0ZM217,831c0,0,-48,0,-81,33c0,0,-34,33,-34,82c0,0,0,48,34,81c0,0,34,33,81,33c0,0,48,0,81,-33c0,0,33,-33,33,-81c0,0,0,-47,-33,-81c0,0,-32,-34,-81,-34Z" 
id="f1_25"
transform="scale(0.001,-0.001)" />

<path d="M360,-256c0,0,108,0,167,35c0,0,59,35,59,98c0,0,0,70,-95,70H254c0,0,-65,-47,-65,-108c0,0,0,-47,46,-71c0,0,45,-24,125,-24Zm9,561c0,0,55,0,79,43c0,0,25,43,25,129c0,0,0,87,-24,127c0,0,-25,41,-80,41c0,0,-52,0,-75,-41c0,0,-24,-40,-24,-127c0,0,0,-86,23,-129c0,0,23,-43,76,-43Zm-9,-641c0,0,-153,0,-236,43c0,0,-84,44,-84,120c0,0,0,33,28,65c0,0,27,31,105,76c0,0,-44,17,-75,59c0,0,-31,43,-31,90L192,258c0,0,-133,56,-133,219c0,0,0,116,81,180c0,0,82,63,233,63c0,0,32,0,82,-6c0,0,51,-6,74,-13l168,83l26,-32L638,631c0,0,46,-57,46,-154c0,0,0,-119,-80,-182c0,0,-80,-64,-234,-64c0,0,-59,0,-114,9L238,183c0,0,1,-22,28,-41c0,0,26,-19,64,-19H493c0,0,256,0,256,-196c0,0,0,-81,-44,-139c0,0,-45,-59,-131,-92c0,0,-86,-32,-214,-32Z" 
id="f1_23"
transform="scale(0.001,-0.001)" />

<path d="M287,-18c0,0,-194,0,-194,206V634L23,652v49H309V217c0,0,0,-63,26,-98c0,0,27,-35,76,-35c0,0,57,0,113,25V634l-64,18v49H740V67L809,49V0H536L526,61L475,35c0,0,-104,-53,-188,-53Z" 
id="f1_2h"
transform="scale(0.001,-0.001)" />

<path d="M438,65c0,0,131,0,131,293c0,0,0,279,-130,279c0,0,-69,0,-127,-29V80c0,0,60,-15,126,-15ZM20,-325v50l76,18V634L19,652v49H304l1,-36c0,0,80,55,194,55c0,0,146,0,218,-86c0,0,71,-86,71,-271c0,0,0,-183,-83,-280c0,0,-83,-97,-238,-97c0,0,-79,0,-160,19c0,0,5,-48,5,-109V-257l103,-18v-50Z" 
id="f1_2c"
transform="scale(0.001,-0.001)" />

<path d="M36,0V54L154,74V926L26,945v55H860V731H790L766,908c0,0,-36,5,-121,8c0,0,-84,2,-133,2H389V508H633l23,127h67V298H656L633,426H389V74L556,54V0Z" 
id="f1_16"
transform="scale(0.001,-0.001)" />

<path d="M342,-14L49,634L0,652v49H359V652L275,632L455,233L617,634l-82,18v49H764V652L713,637L433,-14Z" 
id="f1_2i"
transform="scale(0.001,-0.001)" />

<path d="M235,0V40L394,60V936H356c0,0,-189,0,-258,-15L78,766H28v234H908V766H857L837,921c0,0,-22,5,-98,9c0,0,-75,4,-165,4H538V60L697,40V0Z" 
id="f2_1k"
transform="scale(0.001,-0.001)" />

<path d="M58,-234v58c0,0,131,42,131,125c0,0,0,15,-11,27c0,0,-11,12,-38,25C140,1,89,27,89,75c0,0,0,40,25,61c0,0,26,21,65,21c0,0,48,0,77,-34c0,0,30,-34,30,-86c0,0,0,-101,-60,-170c0,0,-59,-69,-168,-101Z" 
id="f2_g"
transform="scale(0.001,-0.001)" />

<path d="M44,0V40L172,60V941L44,960v40H445V960L316,941V549H787V941L659,960v40h400V960L930,941V60L1059,40V0H659V40L787,60V481H316V60L445,40V0Z" 
id="f2_18"
transform="scale(0.001,-0.001)" />

<path d="M327,-14L84,649L1,668v33H335V668L219,648L385,174L554,632h63L786,171L944,649L830,668v33h267V668l-78,-16L784,-14H726L553,448L382,-14Z" 
id="f2_2j"
transform="scale(0.001,-0.001)" />

<path d="M529,65c0,0,183,0,270,108c0,0,87,108,87,334c0,0,0,210,-113,318c0,0,-113,108,-322,108H316V71c0,0,90,-6,213,-6Zm0,-67L172,0H44V40L172,60V941L44,960v40H498c0,0,277,0,411,-123c0,0,133,-124,133,-371c0,0,0,-251,-129,-380C913,126,785,-2,529,-2Z" 
id="f2_14"
transform="scale(0.001,-0.001)" />

<path d="M44,0V40L172,60V941L44,960v40H794V760H745L721,922c0,0,-83,11,-241,11H316V543H586l23,119h48V354H609L586,475H316V67H513c0,0,193,0,252,12l43,185h49L843,0Z" 
id="f2_15"
transform="scale(0.001,-0.001)" />

<path d="M54,0V40L172,60V941L44,960v40H794V760H745L721,922c0,0,-83,11,-241,11H316V516H611l23,120h46V328H634L611,449H316V60L483,40V0Z" 
id="f2_16"
transform="scale(0.001,-0.001)" />

<path d="M13,0V34L95,46L325,350L122,649L40,668v33H357V668L264,648L399,446L554,649l-96,19v33H710V668L630,652L433,397L663,50L745,34V0H427V34l94,17L359,299L169,50L266,34V0Z" 
id="f2_2k"
transform="scale(0.001,-0.001)" />

<path d="M617,0L251,860V60L385,40V0H44V40L172,60V941L44,960v40H347L672,239l355,761h287V960L1185,941V60L1314,40V0H908V40l134,20V859L643,0Z" 
id="f2_1d"
transform="scale(0.001,-0.001)" />

<path d="M420,489c0,0,93,0,153,65c0,0,60,65,60,181c0,0,0,116,-62,184c0,0,-61,68,-148,68c0,0,-90,0,-156,-74c0,0,-66,-73,-66,-189c0,0,0,-105,63,-170c0,0,63,-65,156,-65ZM391,-18c0,0,-128,0,-209,71c0,0,-82,71,-98,200l129,12c0,0,17,-91,63,-132c0,0,46,-41,118,-41c0,0,62,0,109,28c0,0,47,29,76,76c0,0,30,47,50,128c0,0,20,80,20,164c0,0,0,9,-1,27c0,0,-40,-65,-110,-105c0,0,-69,-39,-151,-39c0,0,-135,0,-229,98c0,0,-94,99,-94,260c0,0,0,166,98,268c0,0,98,101,245,101c0,0,107,0,195,-57c0,0,89,-58,134,-164c0,0,46,-106,46,-308c0,0,0,-209,-45,-334C737,235,691,111,602,46c0,0,-90,-64,-211,-64Z" 
id="f3_t"
transform="scale(0.001,-0.001)" />


</defs>
</svg>