<?xml version="1.0" encoding="UTF-8" standalone="no"?>
<!DOCTYPE svg PUBLIC "-//W3C//DTD SVG 1.1//EN"
"http://www.w3.org/Graphics/SVG/1.1/DTD/svg11.dtd">
<svg viewBox="0 0 935 1210" version="1.1" xmlns="http://www.w3.org/2000/svg" xmlns:xlink="http://www.w3.org/1999/xlink">
<defs>
<style type="text/css"><![CDATA[
.g0_158{
}
]]></style>
</defs>
<g fill="#000000" >
<use xlink:href="#f0_16" transform="matrix(12,0,0,12,399.5,384)" />
<use xlink:href="#f0_25" transform="matrix(12,0,0,12,410.5,384)" />
<use xlink:href="#f0_23" transform="matrix(12,0,0,12,415.5,384)" />
<use xlink:href="#f0_i" transform="matrix(12,0,0,12,424.7,384)" />
<use xlink:href="#f0_m" transform="matrix(12,0,0,12,434.2,384)" />
<use xlink:href="#f0_i" transform="matrix(12,0,0,12,443.4,384)" />
<use xlink:href="#f0_1q" transform="matrix(12,0,0,12,452.6,384)" />
<use xlink:href="#f0_2j" transform="matrix(12,0,0,12,464.3,384)" />
<use xlink:href="#f0_25" transform="matrix(12,0,0,12,477.5,384)" />
<use xlink:href="#f0_2g" transform="matrix(12,0,0,12,482.6,384)" />
<use xlink:href="#f0_2g" transform="matrix(12,0,0,12,488.8,384)" />
<use xlink:href="#f0_21" transform="matrix(12,0,0,12,495.1,384)" />
<use xlink:href="#f0_2e" transform="matrix(12,0,0,12,503.1,384)" />
<use xlink:href="#f0_25" transform="matrix(12,0,0,12,510.8,384)" />
<use xlink:href="#f0_2b" transform="matrix(12,0,0,12,515.9,384)" />
<use xlink:href="#f0_2a" transform="matrix(12,0,0,12,525.1,384)" />
<use xlink:href="#f1_11" transform="matrix(12,0,0,12,55,428)" />
<use xlink:href="#f1_28" transform="matrix(12,0,0,12,68.3,428)" />
<use xlink:href="#f1_28" transform="matrix(12,0,0,12,73.4,428)" />
<use xlink:href="#f1_1x" transform="matrix(12,0,0,12,82.2,428)" />
<use xlink:href="#f1_29" transform="matrix(12,0,0,12,90.6,428)" />
<use xlink:href="#f1_25" transform="matrix(12,0,0,12,104.5,428)" />
<use xlink:href="#f1_2a" transform="matrix(12,0,0,12,109.3,428)" />
<use xlink:href="#f1_2b" transform="matrix(12,0,0,12,118.1,428)" />
<use xlink:href="#f1_1x" transform="matrix(12,0,0,12,131.6,428)" />
<use xlink:href="#f1_1z" transform="matrix(12,0,0,12,139.7,428)" />
<use xlink:href="#f1_25" transform="matrix(12,0,0,12,148.1,428)" />
<use xlink:href="#f1_20" transform="matrix(12,0,0,12,152.9,428)" />
<use xlink:href="#f1_2f" transform="matrix(12,0,0,12,162.4,428)" />
<use xlink:href="#f1_1x" transform="matrix(12,0,0,12,173.4,428)" />
<use xlink:href="#f1_2e" transform="matrix(12,0,0,12,181.5,428)" />
<use xlink:href="#f1_21" transform="matrix(12,0,0,12,187.7,428)" />
<use xlink:href="#f1_2b" transform="matrix(12,0,0,12,199.8,428)" />
<use xlink:href="#f1_2c" transform="matrix(12,0,0,12,209.3,428)" />
<use xlink:href="#f1_2g" transform="matrix(12,0,0,12,218.1,428)" />
<use xlink:href="#f1_25" transform="matrix(12,0,0,12,223.6,428)" />
<use xlink:href="#f1_1z" transform="matrix(12,0,0,12,228,428)" />
<use xlink:href="#f1_1x" transform="matrix(12,0,0,12,236,428)" />
<use xlink:href="#f1_28" transform="matrix(12,0,0,12,244.5,428)" />
<use xlink:href="#f1_28" transform="matrix(12,0,0,12,249.6,428)" />
<use xlink:href="#f1_2l" transform="matrix(12,0,0,12,254.7,428)" />
<use xlink:href="#f1_1x" transform="matrix(12,0,0,12,267.5,428)" />
<use xlink:href="#f1_1z" transform="matrix(12,0,0,12,275.6,428)" />
<use xlink:href="#f1_2g" transform="matrix(12,0,0,12,283.7,428)" />
<use xlink:href="#f1_25" transform="matrix(12,0,0,12,289.5,428)" />
<use xlink:href="#f1_2i" transform="matrix(12,0,0,12,294.3,428)" />
<use xlink:href="#f1_21" transform="matrix(12,0,0,12,303.1,428)" />
<use xlink:href="#f1_g" transform="matrix(12,0,0,12,311.2,428)" />
<use xlink:href="#f1_2g" transform="matrix(12,0,0,12,319.9,428)" />
<use xlink:href="#f1_24" transform="matrix(12,0,0,12,325.4,428)" />
<use xlink:href="#f1_1x" transform="matrix(12,0,0,12,334.2,428)" />
<use xlink:href="#f1_2g" transform="matrix(12,0,0,12,342.3,428)" />
<use xlink:href="#f1_25" transform="matrix(12,0,0,12,351.8,428)" />
<use xlink:href="#f1_2f" transform="matrix(12,0,0,12,356.2,428)" />
<use xlink:href="#f1_g" transform="matrix(12,0,0,12,363.2,428)" />
<use xlink:href="#f1_2g" transform="matrix(12,0,0,12,371.9,428)" />
<use xlink:href="#f1_24" transform="matrix(12,0,0,12,377.4,428)" />
<use xlink:href="#f1_21" transform="matrix(12,0,0,12,386.2,428)" />
<use xlink:href="#f1_2l" transform="matrix(12,0,0,12,394.6,428)" />
<use xlink:href="#f1_1z" transform="matrix(12,0,0,12,407.1,428)" />
<use xlink:href="#f1_1x" transform="matrix(12,0,0,12,415.2,428)" />
<use xlink:href="#f1_2a" transform="matrix(12,0,0,12,423.6,428)" />
<use xlink:href="#f1_2e" transform="matrix(12,0,0,12,436.4,428)" />
<use xlink:href="#f1_2b" transform="matrix(12,0,0,12,442.6,428)" />
<use xlink:href="#f1_2g" transform="matrix(12,0,0,12,451.8,428)" />
<use xlink:href="#f1_1x" transform="matrix(12,0,0,12,457.3,428)" />
<use xlink:href="#f1_2g" transform="matrix(12,0,0,12,465,428)" />
<use xlink:href="#f1_21" transform="matrix(12,0,0,12,470.5,428)" />
<use xlink:href="#f1_2g" transform="matrix(12,0,0,12,482.2,428)" />
<use xlink:href="#f1_24" transform="matrix(12,0,0,12,487.7,428)" />
<use xlink:href="#f1_21" transform="matrix(12,0,0,12,496.5,428)" />
<use xlink:href="#f1_2c" transform="matrix(12,0,0,12,508.6,428)" />
<use xlink:href="#f1_28" transform="matrix(12,0,0,12,518.1,428)" />
<use xlink:href="#f1_1x" transform="matrix(12,0,0,12,522.5,428)" />
<use xlink:href="#f1_2a" transform="matrix(12,0,0,12,530.9,428)" />
<use xlink:href="#f1_21" transform="matrix(12,0,0,12,539.7,428)" />
<use xlink:href="#f1_2b" transform="matrix(12,0,0,12,551.8,428)" />
<use xlink:href="#f1_22" transform="matrix(12,0,0,12,561.3,428)" />
<use xlink:href="#f1_2c" transform="matrix(12,0,0,12,570.9,428)" />
<use xlink:href="#f1_2b" transform="matrix(12,0,0,12,580,428)" />
<use xlink:href="#f1_28" transform="matrix(12,0,0,12,589.9,428)" />
<use xlink:href="#f1_1x" transform="matrix(12,0,0,12,594.3,428)" />
<use xlink:href="#f1_2e" transform="matrix(12,0,0,12,602.4,428)" />
<use xlink:href="#f1_25" transform="matrix(12,0,0,12,609,428)" />
<use xlink:href="#f1_2m" transform="matrix(12,0,0,12,613.7,428)" />
<use xlink:href="#f1_21" transform="matrix(12,0,0,12,621.8,428)" />
<use xlink:href="#f1_20" transform="matrix(12,0,0,12,629.9,428)" />
<use xlink:href="#f1_28" transform="matrix(12,0,0,12,643.4,428)" />
<use xlink:href="#f1_25" transform="matrix(12,0,0,12,648.2,428)" />
<use xlink:href="#f1_23" transform="matrix(12,0,0,12,653,428)" />
<use xlink:href="#f1_24" transform="matrix(12,0,0,12,662.5,428)" />
<use xlink:href="#f1_2g" transform="matrix(12,0,0,12,671.3,428)" />
<use xlink:href="#f1_i" transform="matrix(12,0,0,12,676.8,428)" />
<use xlink:href="#f1_1f" transform="matrix(12,0,0,12,685.5,428)" />
<use xlink:href="#f1_2c" transform="matrix(12,0,0,12,698.8,428)" />
<use xlink:href="#f1_2g" transform="matrix(12,0,0,12,707.5,428)" />
<use xlink:href="#f1_25" transform="matrix(12,0,0,12,713,428)" />
<use xlink:href="#f1_1z" transform="matrix(12,0,0,12,717.4,428)" />
<use xlink:href="#f1_1x" transform="matrix(12,0,0,12,725.5,428)" />
<use xlink:href="#f1_28" transform="matrix(12,0,0,12,733.9,428)" />
<use xlink:href="#f1_28" transform="matrix(12,0,0,12,739,428)" />
<use xlink:href="#f1_2l" transform="matrix(12,0,0,12,744.2,428)" />
<use xlink:href="#f1_1x" transform="matrix(12,0,0,12,757,428)" />
<use xlink:href="#f1_1z" transform="matrix(12,0,0,12,765.1,428)" />
<use xlink:href="#f1_2g" transform="matrix(12,0,0,12,773.1,428)" />
<use xlink:href="#f1_25" transform="matrix(12,0,0,12,779,428)" />
<use xlink:href="#f1_2i" transform="matrix(12,0,0,12,783.7,428)" />
<use xlink:href="#f1_21" transform="matrix(12,0,0,12,792.9,428)" />
<use xlink:href="#f1_29" transform="matrix(12,0,0,12,805.4,428)" />
<use xlink:href="#f1_2b" transform="matrix(12,0,0,12,818.9,428)" />
<use xlink:href="#f1_28" transform="matrix(12,0,0,12,828.8,428)" />
<use xlink:href="#f1_21" transform="matrix(12,0,0,12,833.2,428)" />
<use xlink:href="#f1_1z" transform="matrix(12,0,0,12,841.3,428)" />
<use xlink:href="#f1_2h" transform="matrix(12,0,0,12,849.3,428)" />
<use xlink:href="#f1_28" transform="matrix(12,0,0,12,858.9,428)" />
<use xlink:href="#f1_21" transform="matrix(12,0,0,12,863.6,428)" />
<use xlink:href="#f1_2f" transform="matrix(12,0,0,12,872,428)" />
<use xlink:href="#f1_1z" transform="matrix(12,0,0,12,55,459.6)" />
<use xlink:href="#f1_2b" transform="matrix(12,0,0,12,63.1,459.6)" />
<use xlink:href="#f1_2a" transform="matrix(12,0,0,12,72.6,459.6)" />
<use xlink:href="#f1_2g" transform="matrix(12,0,0,12,81.4,459.6)" />
<use xlink:href="#f1_1x" transform="matrix(12,0,0,12,86.9,459.6)" />
<use xlink:href="#f1_25" transform="matrix(12,0,0,12,95,459.6)" />
<use xlink:href="#f1_2a" transform="matrix(12,0,0,12,99.7,459.6)" />
<use xlink:href="#f1_1z" transform="matrix(12,0,0,12,115.5,459.6)" />
<use xlink:href="#f1_24" transform="matrix(12,0,0,12,123.9,459.6)" />
<use xlink:href="#f1_25" transform="matrix(12,0,0,12,133.1,459.6)" />
<use xlink:href="#f1_2e" transform="matrix(12,0,0,12,137.5,459.6)" />
<use xlink:href="#f1_1x" transform="matrix(12,0,0,12,143.7,459.6)" />
<use xlink:href="#f1_28" transform="matrix(12,0,0,12,152.1,459.6)" />
<use xlink:href="#f1_1z" transform="matrix(12,0,0,12,164,459.6)" />
<use xlink:href="#f1_1x" transform="matrix(12,0,0,12,172,459.6)" />
<use xlink:href="#f1_2e" transform="matrix(12,0,0,12,180.1,459.6)" />
<use xlink:href="#f1_1y" transform="matrix(12,0,0,12,186.7,459.6)" />
<use xlink:href="#f1_2b" transform="matrix(12,0,0,12,195.5,459.6)" />
<use xlink:href="#f1_2a" transform="matrix(12,0,0,12,205,459.6)" />
<use xlink:href="#f1_21" transform="matrix(12,0,0,12,220.8,459.6)" />
<use xlink:href="#f1_2k" transform="matrix(12,0,0,12,228.8,459.6)" />
<use xlink:href="#f1_1z" transform="matrix(12,0,0,12,237.6,459.6)" />
<use xlink:href="#f1_21" transform="matrix(12,0,0,12,246,459.6)" />
<use xlink:href="#f1_2c" transform="matrix(12,0,0,12,254.1,459.6)" />
<use xlink:href="#f1_2g" transform="matrix(12,0,0,12,263.3,459.6)" />
<use xlink:href="#f1_23" transform="matrix(12,0,0,12,275.7,459.6)" />
<use xlink:href="#f1_28" transform="matrix(12,0,0,12,284.9,459.6)" />
<use xlink:href="#f1_2l" transform="matrix(12,0,0,12,289.6,459.6)" />
<use xlink:href="#f1_1z" transform="matrix(12,0,0,12,298.4,459.6)" />
<use xlink:href="#f1_25" transform="matrix(12,0,0,12,306.8,459.6)" />
<use xlink:href="#f1_2a" transform="matrix(12,0,0,12,311.6,459.6)" />
<use xlink:href="#f1_21" transform="matrix(12,0,0,12,320.8,459.6)" />
<use xlink:href="#f1_i" transform="matrix(12,0,0,12,328.8,459.6)" />
<use xlink:href="#f1_11" transform="matrix(12,0,0,12,340.7,459.6)" />
<use xlink:href="#f1_2g" transform="matrix(12,0,0,12,360.5,459.6)" />
<use xlink:href="#f1_21" transform="matrix(12,0,0,12,366,459.6)" />
<use xlink:href="#f1_2g" transform="matrix(12,0,0,12,373.7,459.6)" />
<use xlink:href="#f1_2e" transform="matrix(12,0,0,12,379.2,459.6)" />
<use xlink:href="#f1_1x" transform="matrix(12,0,0,12,385.4,459.6)" />
<use xlink:href="#f1_24" transform="matrix(12,0,0,12,393.5,459.6)" />
<use xlink:href="#f1_21" transform="matrix(12,0,0,12,402.3,459.6)" />
<use xlink:href="#f1_20" transform="matrix(12,0,0,12,410.3,459.6)" />
<use xlink:href="#f1_2e" transform="matrix(12,0,0,12,419.5,459.6)" />
<use xlink:href="#f1_1x" transform="matrix(12,0,0,12,425.7,459.6)" />
<use xlink:href="#f1_28" transform="matrix(12,0,0,12,434.1,459.6)" />
<use xlink:href="#f1_1z" transform="matrix(12,0,0,12,445.5,459.6)" />
<use xlink:href="#f1_1x" transform="matrix(12,0,0,12,453.5,459.6)" />
<use xlink:href="#f1_2e" transform="matrix(12,0,0,12,461.6,459.6)" />
<use xlink:href="#f1_1y" transform="matrix(12,0,0,12,467.8,459.6)" />
<use xlink:href="#f1_2b" transform="matrix(12,0,0,12,476.6,459.6)" />
<use xlink:href="#f1_2a" transform="matrix(12,0,0,12,486.1,459.6)" />
<use xlink:href="#f1_1x" transform="matrix(12,0,0,12,501.9,459.6)" />
<use xlink:href="#f1_2g" transform="matrix(12,0,0,12,510,459.6)" />
<use xlink:href="#f1_2b" transform="matrix(12,0,0,12,515.4,459.6)" />
<use xlink:href="#f1_29" transform="matrix(12,0,0,12,525,459.6)" />
<use xlink:href="#f1_2j" transform="matrix(12,0,0,12,545.5,459.6)" />
<use xlink:href="#f1_25" transform="matrix(12,0,0,12,559,459.6)" />
<use xlink:href="#f1_2g" transform="matrix(12,0,0,12,563.4,459.6)" />
<use xlink:href="#f1_24" transform="matrix(12,0,0,12,568.9,459.6)" />
<use xlink:href="#f1_22" transform="matrix(12,0,0,12,585,459.6)" />
<use xlink:href="#f1_2b" transform="matrix(12,0,0,12,590.5,459.6)" />
<use xlink:href="#f1_2h" transform="matrix(12,0,0,12,600,459.6)" />
<use xlink:href="#f1_2e" transform="matrix(12,0,0,12,609.2,459.6)" />
<use xlink:href="#f1_20" transform="matrix(12,0,0,12,622.4,459.6)" />
<use xlink:href="#f1_25" transform="matrix(12,0,0,12,631.5,459.6)" />
<use xlink:href="#f1_22" transform="matrix(12,0,0,12,636.3,459.6)" />
<use xlink:href="#f1_22" transform="matrix(12,0,0,12,642.2,459.6)" />
<use xlink:href="#f1_21" transform="matrix(12,0,0,12,648,459.6)" />
<use xlink:href="#f1_2e" transform="matrix(12,0,0,12,656.1,459.6)" />
<use xlink:href="#f1_21" transform="matrix(12,0,0,12,662.3,459.6)" />
<use xlink:href="#f1_2a" transform="matrix(12,0,0,12,670.7,459.6)" />
<use xlink:href="#f1_2g" transform="matrix(12,0,0,12,679.5,459.6)" />
<use xlink:href="#f1_1z" transform="matrix(12,0,0,12,692,459.6)" />
<use xlink:href="#f1_2b" transform="matrix(12,0,0,12,700,459.6)" />
<use xlink:href="#f1_2a" transform="matrix(12,0,0,12,709.5,459.6)" />
<use xlink:href="#f1_2f" transform="matrix(12,0,0,12,718.3,459.6)" />
<use xlink:href="#f1_2g" transform="matrix(12,0,0,12,725.3,459.6)" />
<use xlink:href="#f1_25" transform="matrix(12,0,0,12,730.8,459.6)" />
<use xlink:href="#f1_2g" transform="matrix(12,0,0,12,735.2,459.6)" />
<use xlink:href="#f1_2h" transform="matrix(12,0,0,12,740.7,459.6)" />
<use xlink:href="#f1_21" transform="matrix(12,0,0,12,749.8,459.6)" />
<use xlink:href="#f1_2a" transform="matrix(12,0,0,12,757.9,459.6)" />
<use xlink:href="#f1_2g" transform="matrix(12,0,0,12,766.7,459.6)" />
<use xlink:href="#f1_2f" transform="matrix(12,0,0,12,772.2,459.6)" />
<use xlink:href="#f1_25" transform="matrix(12,0,0,12,787.2,459.6)" />
<use xlink:href="#f1_2f" transform="matrix(12,0,0,12,791.6,459.6)" />
<use xlink:href="#f1_2f" transform="matrix(12,0,0,12,805.9,459.6)" />
<use xlink:href="#f1_1x" transform="matrix(12,0,0,12,812.8,459.6)" />
<use xlink:href="#f1_25" transform="matrix(12,0,0,12,821.2,459.6)" />
<use xlink:href="#f1_20" transform="matrix(12,0,0,12,825.6,459.6)" />
<use xlink:href="#f1_2g" transform="matrix(12,0,0,12,841.8,459.6)" />
<use xlink:href="#f1_2b" transform="matrix(12,0,0,12,846.9,459.6)" />
<use xlink:href="#f1_1y" transform="matrix(12,0,0,12,863,459.6)" />
<use xlink:href="#f1_21" transform="matrix(12,0,0,12,871.8,459.6)" />
<use xlink:href="#f0_1z" transform="matrix(12,0,0,12,55,491.1)" />
<use xlink:href="#f0_24" transform="matrix(12,0,0,12,63.1,491.1)" />
<use xlink:href="#f0_25" transform="matrix(12,0,0,12,73.4,491.1)" />
<use xlink:href="#f0_2e" transform="matrix(12,0,0,12,78.4,491.1)" />
<use xlink:href="#f0_1x" transform="matrix(12,0,0,12,86.2,491.1)" />
<use xlink:href="#f0_28" transform="matrix(12,0,0,12,95.7,491.1)" />
<use xlink:href="#f0_i" transform="matrix(12,0,0,12,100.5,491.1)" />
<use xlink:href="#f1_1g" transform="matrix(12,0,0,12,55,535.1)" />
<use xlink:href="#f1_21" transform="matrix(12,0,0,12,65.3,535.1)" />
<use xlink:href="#f1_2c" transform="matrix(12,0,0,12,73.4,535.1)" />
<use xlink:href="#f1_2g" transform="matrix(12,0,0,12,82.5,535.1)" />
<use xlink:href="#f1_25" transform="matrix(12,0,0,12,88,535.1)" />
<use xlink:href="#f1_20" transform="matrix(12,0,0,12,92.4,535.1)" />
<use xlink:href="#f1_21" transform="matrix(12,0,0,12,101.6,535.1)" />
<use xlink:href="#f1_25" transform="matrix(12,0,0,12,116.2,535.1)" />
<use xlink:href="#f1_2f" transform="matrix(12,0,0,12,121,535.1)" />
<use xlink:href="#f1_1x" transform="matrix(12,0,0,12,134.2,535.1)" />
<use xlink:href="#f1_1z" transform="matrix(12,0,0,12,148.4,535.1)" />
<use xlink:href="#f1_2b" transform="matrix(12,0,0,12,156.5,535.1)" />
<use xlink:href="#f1_29" transform="matrix(12,0,0,12,166,535.1)" />
<use xlink:href="#f1_2c" transform="matrix(12,0,0,12,179.6,535.1)" />
<use xlink:href="#f1_2b" transform="matrix(12,0,0,12,188.8,535.1)" />
<use xlink:href="#f1_2h" transform="matrix(12,0,0,12,198.3,535.1)" />
<use xlink:href="#f1_2a" transform="matrix(12,0,0,12,207.4,535.1)" />
<use xlink:href="#f1_20" transform="matrix(12,0,0,12,216.2,535.1)" />
<use xlink:href="#f1_1z" transform="matrix(12,0,0,12,231.6,535.1)" />
<use xlink:href="#f1_2b" transform="matrix(12,0,0,12,239.7,535.1)" />
<use xlink:href="#f1_2a" transform="matrix(12,0,0,12,249.2,535.1)" />
<use xlink:href="#f1_2f" transform="matrix(12,0,0,12,258,535.1)" />
<use xlink:href="#f1_25" transform="matrix(12,0,0,12,265.3,535.1)" />
<use xlink:href="#f1_2f" transform="matrix(12,0,0,12,270.1,535.1)" />
<use xlink:href="#f1_2g" transform="matrix(12,0,0,12,277.1,535.1)" />
<use xlink:href="#f1_25" transform="matrix(12,0,0,12,282.9,535.1)" />
<use xlink:href="#f1_2a" transform="matrix(12,0,0,12,287.7,535.1)" />
<use xlink:href="#f1_23" transform="matrix(12,0,0,12,296.5,535.1)" />
<use xlink:href="#f1_2b" transform="matrix(12,0,0,12,311.8,535.1)" />
<use xlink:href="#f1_22" transform="matrix(12,0,0,12,321.4,535.1)" />
<use xlink:href="#f1_2g" transform="matrix(12,0,0,12,333.1,535.1)" />
<use xlink:href="#f1_2j" transform="matrix(12,0,0,12,338.6,535.1)" />
<use xlink:href="#f1_2b" transform="matrix(12,0,0,12,351.8,535.1)" />
<use xlink:href="#f1_2b" transform="matrix(12,0,0,12,366.8,535.1)" />
<use xlink:href="#f1_2e" transform="matrix(12,0,0,12,376.3,535.1)" />
<use xlink:href="#f1_29" transform="matrix(12,0,0,12,388.4,535.1)" />
<use xlink:href="#f1_2b" transform="matrix(12,0,0,12,401.9,535.1)" />
<use xlink:href="#f1_2e" transform="matrix(12,0,0,12,411.5,535.1)" />
<use xlink:href="#f1_21" transform="matrix(12,0,0,12,417.7,535.1)" />
<use xlink:href="#f1_1x" transform="matrix(12,0,0,12,432,535.1)" />
<use xlink:href="#f1_29" transform="matrix(12,0,0,12,440.4,535.1)" />
<use xlink:href="#f1_25" transform="matrix(12,0,0,12,454.3,535.1)" />
<use xlink:href="#f1_2a" transform="matrix(12,0,0,12,459.1,535.1)" />
<use xlink:href="#f1_2b" transform="matrix(12,0,0,12,467.9,535.1)" />
<use xlink:href="#f1_1x" transform="matrix(12,0,0,12,483.6,535.1)" />
<use xlink:href="#f1_1z" transform="matrix(12,0,0,12,491.7,535.1)" />
<use xlink:href="#f1_25" transform="matrix(12,0,0,12,500.1,535.1)" />
<use xlink:href="#f1_20" transform="matrix(12,0,0,12,504.5,535.1)" />
<use xlink:href="#f1_2f" transform="matrix(12,0,0,12,514,535.1)" />
<use xlink:href="#f1_i" transform="matrix(12,0,0,12,521,535.1)" />
<use xlink:href="#f1_1n" transform="matrix(12,0,0,12,532.6,535.1)" />
<use xlink:href="#f1_24" transform="matrix(12,0,0,12,549.8,535.1)" />
<use xlink:href="#f1_21" transform="matrix(12,0,0,12,558.6,535.1)" />
<use xlink:href="#f1_2a" transform="matrix(12,0,0,12,567,535.1)" />
<use xlink:href="#f1_2g" transform="matrix(12,0,0,12,582,535.1)" />
<use xlink:href="#f1_2j" transform="matrix(12,0,0,12,587.5,535.1)" />
<use xlink:href="#f1_2b" transform="matrix(12,0,0,12,600.4,535.1)" />
<use xlink:href="#f1_1x" transform="matrix(12,0,0,12,616.1,535.1)" />
<use xlink:href="#f1_29" transform="matrix(12,0,0,12,624.2,535.1)" />
<use xlink:href="#f1_25" transform="matrix(12,0,0,12,638.1,535.1)" />
<use xlink:href="#f1_2a" transform="matrix(12,0,0,12,642.9,535.1)" />
<use xlink:href="#f1_2b" transform="matrix(12,0,0,12,651.7,535.1)" />
<use xlink:href="#f1_1x" transform="matrix(12,0,0,12,667.4,535.1)" />
<use xlink:href="#f1_1z" transform="matrix(12,0,0,12,675.5,535.1)" />
<use xlink:href="#f1_25" transform="matrix(12,0,0,12,683.9,535.1)" />
<use xlink:href="#f1_20" transform="matrix(12,0,0,12,688.6,535.1)" />
<use xlink:href="#f1_2f" transform="matrix(12,0,0,12,697.8,535.1)" />
<use xlink:href="#f1_1x" transform="matrix(12,0,0,12,711,535.1)" />
<use xlink:href="#f1_2e" transform="matrix(12,0,0,12,719.1,535.1)" />
<use xlink:href="#f1_21" transform="matrix(12,0,0,12,725.3,535.1)" />
<use xlink:href="#f1_28" transform="matrix(12,0,0,12,739.9,535.1)" />
<use xlink:href="#f1_25" transform="matrix(12,0,0,12,744.7,535.1)" />
<use xlink:href="#f1_2a" transform="matrix(12,0,0,12,749.4,535.1)" />
<use xlink:href="#f1_27" transform="matrix(12,0,0,12,758.6,535.1)" />
<use xlink:href="#f1_21" transform="matrix(12,0,0,12,767.8,535.1)" />
<use xlink:href="#f1_20" transform="matrix(12,0,0,12,775.8,535.1)" />
<use xlink:href="#f1_2g" transform="matrix(12,0,0,12,791.2,535.1)" />
<use xlink:href="#f1_2b" transform="matrix(12,0,0,12,796.3,535.1)" />
<use xlink:href="#f1_23" transform="matrix(12,0,0,12,805.9,535.1)" />
<use xlink:href="#f1_21" transform="matrix(12,0,0,12,815,535.1)" />
<use xlink:href="#f1_2g" transform="matrix(12,0,0,12,822.7,535.1)" />
<use xlink:href="#f1_24" transform="matrix(12,0,0,12,828.2,535.1)" />
<use xlink:href="#f1_21" transform="matrix(12,0,0,12,837,535.1)" />
<use xlink:href="#f1_2e" transform="matrix(12,0,0,12,845.1,535.1)" />
<use xlink:href="#f1_2i" transform="matrix(12,0,0,12,858,535.1)" />
<use xlink:href="#f1_25" transform="matrix(12,0,0,12,867.1,535.1)" />
<use xlink:href="#f1_1x" transform="matrix(12,0,0,12,871.9,535.1)" />
<use xlink:href="#f1_2c" transform="matrix(12,0,0,12,55,566.7)" />
<use xlink:href="#f1_21" transform="matrix(12,0,0,12,64.2,566.7)" />
<use xlink:href="#f1_2c" transform="matrix(12,0,0,12,72.3,566.7)" />
<use xlink:href="#f1_2g" transform="matrix(12,0,0,12,81.4,566.7)" />
<use xlink:href="#f1_25" transform="matrix(12,0,0,12,86.9,566.7)" />
<use xlink:href="#f1_20" transform="matrix(12,0,0,12,91.3,566.7)" />
<use xlink:href="#f1_21" transform="matrix(12,0,0,12,100.5,566.7)" />
<use xlink:href="#f1_1y" transform="matrix(12,0,0,12,113.3,566.7)" />
<use xlink:href="#f1_2b" transform="matrix(12,0,0,12,122.1,566.7)" />
<use xlink:href="#f1_2a" transform="matrix(12,0,0,12,131.6,566.7)" />
<use xlink:href="#f1_20" transform="matrix(12,0,0,12,140.4,566.7)" />
<use xlink:href="#f1_g" transform="matrix(12,0,0,12,149.6,566.7)" />
<use xlink:href="#f1_2g" transform="matrix(12,0,0,12,159.1,566.7)" />
<use xlink:href="#f1_24" transform="matrix(12,0,0,12,164.6,566.7)" />
<use xlink:href="#f1_21" transform="matrix(12,0,0,12,173.4,566.7)" />
<use xlink:href="#f1_2l" transform="matrix(12,0,0,12,181.8,566.7)" />
<use xlink:href="#f1_1x" transform="matrix(12,0,0,12,195,566.7)" />
<use xlink:href="#f1_2e" transform="matrix(12,0,0,12,203,566.7)" />
<use xlink:href="#f1_21" transform="matrix(12,0,0,12,209.2,566.7)" />
<use xlink:href="#f1_2f" transform="matrix(12,0,0,12,222.1,566.7)" />
<use xlink:href="#f1_1x" transform="matrix(12,0,0,12,229,566.7)" />
<use xlink:href="#f1_25" transform="matrix(12,0,0,12,237.4,566.7)" />
<use xlink:href="#f1_20" transform="matrix(12,0,0,12,241.8,566.7)" />
<use xlink:href="#f1_2g" transform="matrix(12,0,0,12,255.8,566.7)" />
<use xlink:href="#f1_2b" transform="matrix(12,0,0,12,260.8,566.7)" />
<use xlink:href="#f1_22" transform="matrix(12,0,0,12,275.1,566.7)" />
<use xlink:href="#f1_2b" transform="matrix(12,0,0,12,280.6,566.7)" />
<use xlink:href="#f1_2e" transform="matrix(12,0,0,12,290.2,566.7)" />
<use xlink:href="#f1_29" transform="matrix(12,0,0,12,296.4,566.7)" />
<use xlink:href="#f1_1x" transform="matrix(12,0,0,12,314.7,566.7)" />
<use xlink:href="#f0_20" transform="matrix(12,0,0,12,327.9,566.7)" />
<use xlink:href="#f0_25" transform="matrix(12,0,0,12,338.2,566.7)" />
<use xlink:href="#f0_2c" transform="matrix(12,0,0,12,343.3,566.7)" />
<use xlink:href="#f0_21" transform="matrix(12,0,0,12,353.5,566.7)" />
<use xlink:href="#f0_2c" transform="matrix(12,0,0,12,361.6,566.7)" />
<use xlink:href="#f0_2g" transform="matrix(12,0,0,12,371.9,566.7)" />
<use xlink:href="#f0_25" transform="matrix(12,0,0,12,377.7,566.7)" />
<use xlink:href="#f0_20" transform="matrix(12,0,0,12,382.8,566.7)" />
<use xlink:href="#f0_21" transform="matrix(12,0,0,12,393.1,566.7)" />
<use xlink:href="#f1_i" transform="matrix(12,0,0,12,401.3,566.7)" />
<use xlink:href="#f1_1k" transform="matrix(12,0,0,12,410.4,566.7)" />
<use xlink:href="#f1_24" transform="matrix(12,0,0,12,421.4,566.7)" />
<use xlink:href="#f1_2e" transform="matrix(12,0,0,12,430.2,566.7)" />
<use xlink:href="#f1_21" transform="matrix(12,0,0,12,436.4,566.7)" />
<use xlink:href="#f1_21" transform="matrix(12,0,0,12,444.5,566.7)" />
<use xlink:href="#f1_1x" transform="matrix(12,0,0,12,457.3,566.7)" />
<use xlink:href="#f1_29" transform="matrix(12,0,0,12,465.7,566.7)" />
<use xlink:href="#f1_25" transform="matrix(12,0,0,12,479.7,566.7)" />
<use xlink:href="#f1_2a" transform="matrix(12,0,0,12,484.4,566.7)" />
<use xlink:href="#f1_2b" transform="matrix(12,0,0,12,493.2,566.7)" />
<use xlink:href="#f1_1x" transform="matrix(12,0,0,12,507.5,566.7)" />
<use xlink:href="#f1_1z" transform="matrix(12,0,0,12,515.6,566.7)" />
<use xlink:href="#f1_25" transform="matrix(12,0,0,12,524,566.7)" />
<use xlink:href="#f1_20" transform="matrix(12,0,0,12,528.8,566.7)" />
<use xlink:href="#f1_2f" transform="matrix(12,0,0,12,537.9,566.7)" />
<use xlink:href="#f1_26" transform="matrix(12,0,0,12,550,566.7)" />
<use xlink:href="#f1_2b" transform="matrix(12,0,0,12,554.4,566.7)" />
<use xlink:href="#f1_25" transform="matrix(12,0,0,12,564.3,566.7)" />
<use xlink:href="#f1_2a" transform="matrix(12,0,0,12,569.1,566.7)" />
<use xlink:href="#f1_2g" transform="matrix(12,0,0,12,582.8,566.7)" />
<use xlink:href="#f1_2b" transform="matrix(12,0,0,12,587.9,566.7)" />
<use xlink:href="#f1_22" transform="matrix(12,0,0,12,602.2,566.7)" />
<use xlink:href="#f1_2b" transform="matrix(12,0,0,12,607.7,566.7)" />
<use xlink:href="#f1_2e" transform="matrix(12,0,0,12,617.3,566.7)" />
<use xlink:href="#f1_29" transform="matrix(12,0,0,12,623.5,566.7)" />
<use xlink:href="#f0_2g" transform="matrix(12,0,0,12,641.9,566.7)" />
<use xlink:href="#f0_2e" transform="matrix(12,0,0,12,648.1,566.7)" />
<use xlink:href="#f0_25" transform="matrix(12,0,0,12,655.8,566.7)" />
<use xlink:href="#f0_2c" transform="matrix(12,0,0,12,660.9,566.7)" />
<use xlink:href="#f0_21" transform="matrix(12,0,0,12,671.2,566.7)" />
<use xlink:href="#f0_2c" transform="matrix(12,0,0,12,679.2,566.7)" />
<use xlink:href="#f0_2g" transform="matrix(12,0,0,12,689.5,566.7)" />
<use xlink:href="#f0_25" transform="matrix(12,0,0,12,695.7,566.7)" />
<use xlink:href="#f0_20" transform="matrix(12,0,0,12,700.8,566.7)" />
<use xlink:href="#f0_21" transform="matrix(12,0,0,12,711.1,566.7)" />
<use xlink:href="#f1_21" transform="matrix(12,0,0,12,724.1,566.7)" />
<use xlink:href="#f1_2g" transform="matrix(12,0,0,12,731.8,566.7)" />
<use xlink:href="#f1_1z" transform="matrix(12,0,0,12,737.2,566.7)" />
<use xlink:href="#f1_i" transform="matrix(12,0,0,12,745.3,566.7)" />
<use xlink:href="#f1_1g" transform="matrix(12,0,0,12,754.5,566.7)" />
<use xlink:href="#f1_21" transform="matrix(12,0,0,12,764.7,566.7)" />
<use xlink:href="#f1_2c" transform="matrix(12,0,0,12,772.8,566.7)" />
<use xlink:href="#f1_2g" transform="matrix(12,0,0,12,781.6,566.7)" />
<use xlink:href="#f1_25" transform="matrix(12,0,0,12,787.1,566.7)" />
<use xlink:href="#f1_20" transform="matrix(12,0,0,12,791.8,566.7)" />
<use xlink:href="#f1_21" transform="matrix(12,0,0,12,801,566.7)" />
<use xlink:href="#f1_1z" transform="matrix(12,0,0,12,813.8,566.7)" />
<use xlink:href="#f1_24" transform="matrix(12,0,0,12,821.9,566.7)" />
<use xlink:href="#f1_1x" transform="matrix(12,0,0,12,830.7,566.7)" />
<use xlink:href="#f1_25" transform="matrix(12,0,0,12,839.1,566.7)" />
<use xlink:href="#f1_2a" transform="matrix(12,0,0,12,843.8,566.7)" />
<use xlink:href="#f1_2f" transform="matrix(12,0,0,12,853,566.7)" />
<use xlink:href="#f1_2b" transform="matrix(12,0,0,12,864.7,566.7)" />
<use xlink:href="#f1_22" transform="matrix(12,0,0,12,874.2,566.7)" />
<use xlink:href="#f1_l" transform="matrix(12,0,0,12,55,598.2)" />
<use xlink:href="#f1_m" transform="matrix(12,0,0,12,64.2,598.2)" />
<use xlink:href="#f1_2g" transform="matrix(12,0,0,12,78.9,598.2)" />
<use xlink:href="#f1_2b" transform="matrix(12,0,0,12,83.9,598.2)" />
<use xlink:href="#f1_m" transform="matrix(12,0,0,12,98.6,598.2)" />
<use xlink:href="#f1_k" transform="matrix(12,0,0,12,107.8,598.2)" />
<use xlink:href="#f1_1x" transform="matrix(12,0,0,12,122.4,598.2)" />
<use xlink:href="#f1_29" transform="matrix(12,0,0,12,130.5,598.2)" />
<use xlink:href="#f1_25" transform="matrix(12,0,0,12,144.4,598.2)" />
<use xlink:href="#f1_2a" transform="matrix(12,0,0,12,149.2,598.2)" />
<use xlink:href="#f1_2b" transform="matrix(12,0,0,12,158,598.2)" />
<use xlink:href="#f1_1x" transform="matrix(12,0,0,12,173,598.2)" />
<use xlink:href="#f1_1z" transform="matrix(12,0,0,12,181.1,598.2)" />
<use xlink:href="#f1_25" transform="matrix(12,0,0,12,189.5,598.2)" />
<use xlink:href="#f1_20" transform="matrix(12,0,0,12,194.3,598.2)" />
<use xlink:href="#f1_2f" transform="matrix(12,0,0,12,203.8,598.2)" />
<use xlink:href="#f1_22" transform="matrix(12,0,0,12,216.6,598.2)" />
<use xlink:href="#f1_2b" transform="matrix(12,0,0,12,222.1,598.2)" />
<use xlink:href="#f1_2e" transform="matrix(12,0,0,12,231.6,598.2)" />
<use xlink:href="#f1_29" transform="matrix(12,0,0,12,238.2,598.2)" />
<use xlink:href="#f0_2b" transform="matrix(12,0,0,12,257.5,598.2)" />
<use xlink:href="#f0_28" transform="matrix(12,0,0,12,266.7,598.2)" />
<use xlink:href="#f0_25" transform="matrix(12,0,0,12,271.4,598.2)" />
<use xlink:href="#f0_23" transform="matrix(12,0,0,12,276.5,598.2)" />
<use xlink:href="#f0_2b" transform="matrix(12,0,0,12,285.7,598.2)" />
<use xlink:href="#f0_2c" transform="matrix(12,0,0,12,294.9,598.2)" />
<use xlink:href="#f0_21" transform="matrix(12,0,0,12,305.2,598.2)" />
<use xlink:href="#f0_2c" transform="matrix(12,0,0,12,313.2,598.2)" />
<use xlink:href="#f0_2g" transform="matrix(12,0,0,12,323.5,598.2)" />
<use xlink:href="#f0_25" transform="matrix(12,0,0,12,329.7,598.2)" />
<use xlink:href="#f0_20" transform="matrix(12,0,0,12,334.8,598.2)" />
<use xlink:href="#f0_21" transform="matrix(12,0,0,12,345.1,598.2)" />
<use xlink:href="#f1_i" transform="matrix(12,0,0,12,353.3,598.2)" />
<use xlink:href="#f1_1n" transform="matrix(12,0,0,12,363.5,598.2)" />
<use xlink:href="#f1_24" transform="matrix(12,0,0,12,380.7,598.2)" />
<use xlink:href="#f1_21" transform="matrix(12,0,0,12,389.5,598.2)" />
<use xlink:href="#f1_2a" transform="matrix(12,0,0,12,397.9,598.2)" />
<use xlink:href="#f1_29" transform="matrix(12,0,0,12,412.6,598.2)" />
<use xlink:href="#f1_1x" transform="matrix(12,0,0,12,426.8,598.2)" />
<use xlink:href="#f1_2a" transform="matrix(12,0,0,12,435,598.2)" />
<use xlink:href="#f1_2l" transform="matrix(12,0,0,12,444.1,598.2)" />
<use xlink:href="#f1_1x" transform="matrix(12,0,0,12,458.4,598.2)" />
<use xlink:href="#f1_29" transform="matrix(12,0,0,12,466.8,598.2)" />
<use xlink:href="#f1_25" transform="matrix(12,0,0,12,481.1,598.2)" />
<use xlink:href="#f1_2a" transform="matrix(12,0,0,12,485.9,598.2)" />
<use xlink:href="#f1_2b" transform="matrix(12,0,0,12,494.7,598.2)" />
<use xlink:href="#f1_1x" transform="matrix(12,0,0,12,509.7,598.2)" />
<use xlink:href="#f1_1z" transform="matrix(12,0,0,12,517.7,598.2)" />
<use xlink:href="#f1_25" transform="matrix(12,0,0,12,526.2,598.2)" />
<use xlink:href="#f1_20" transform="matrix(12,0,0,12,530.9,598.2)" />
<use xlink:href="#f1_2f" transform="matrix(12,0,0,12,540.1,598.2)" />
<use xlink:href="#f1_1x" transform="matrix(12,0,0,12,552.5,598.2)" />
<use xlink:href="#f1_2e" transform="matrix(12,0,0,12,560.6,598.2)" />
<use xlink:href="#f1_21" transform="matrix(12,0,0,12,566.8,598.2)" />
<use xlink:href="#f1_26" transform="matrix(12,0,0,12,580.7,598.2)" />
<use xlink:href="#f1_2b" transform="matrix(12,0,0,12,585.1,598.2)" />
<use xlink:href="#f1_25" transform="matrix(12,0,0,12,595,598.2)" />
<use xlink:href="#f1_2a" transform="matrix(12,0,0,12,599.8,598.2)" />
<use xlink:href="#f1_21" transform="matrix(12,0,0,12,608.9,598.2)" />
<use xlink:href="#f1_20" transform="matrix(12,0,0,12,617,598.2)" />
<use xlink:href="#f1_g" transform="matrix(12,0,0,12,626.2,598.2)" />
<use xlink:href="#f1_2g" transform="matrix(12,0,0,12,636.4,598.2)" />
<use xlink:href="#f1_24" transform="matrix(12,0,0,12,641.9,598.2)" />
<use xlink:href="#f1_21" transform="matrix(12,0,0,12,650.7,598.2)" />
<use xlink:href="#f1_2l" transform="matrix(12,0,0,12,659.1,598.2)" />
<use xlink:href="#f1_22" transform="matrix(12,0,0,12,673.4,598.2)" />
<use xlink:href="#f1_2b" transform="matrix(12,0,0,12,678.9,598.2)" />
<use xlink:href="#f1_2e" transform="matrix(12,0,0,12,688.4,598.2)" />
<use xlink:href="#f1_29" transform="matrix(12,0,0,12,695,598.2)" />
<use xlink:href="#f0_2c" transform="matrix(12,0,0,12,714.5,598.2)" />
<use xlink:href="#f0_2b" transform="matrix(12,0,0,12,724.8,598.2)" />
<use xlink:href="#f0_28" transform="matrix(12,0,0,12,734.3,598.2)" />
<use xlink:href="#f0_2l" transform="matrix(12,0,0,12,739.1,598.2)" />
<use xlink:href="#f0_2c" transform="matrix(12,0,0,12,748.2,598.2)" />
<use xlink:href="#f0_21" transform="matrix(12,0,0,12,758.5,598.2)" />
<use xlink:href="#f0_2c" transform="matrix(12,0,0,12,766.5,598.2)" />
<use xlink:href="#f0_2g" transform="matrix(12,0,0,12,776.8,598.2)" />
<use xlink:href="#f0_25" transform="matrix(12,0,0,12,783,598.2)" />
<use xlink:href="#f0_20" transform="matrix(12,0,0,12,788.1,598.2)" />
<use xlink:href="#f0_21" transform="matrix(12,0,0,12,798.4,598.2)" />
<use xlink:href="#f1_i" transform="matrix(12,0,0,12,806.6,598.2)" />
<use xlink:href="#f1_1k" transform="matrix(12,0,0,12,816.8,598.2)" />
<use xlink:href="#f1_24" transform="matrix(12,0,0,12,828.2,598.2)" />
<use xlink:href="#f1_21" transform="matrix(12,0,0,12,837,598.2)" />
<use xlink:href="#f1_22" transform="matrix(12,0,0,12,850.9,598.2)" />
<use xlink:href="#f1_25" transform="matrix(12,0,0,12,856.8,598.2)" />
<use xlink:href="#f1_2e" transform="matrix(12,0,0,12,861.2,598.2)" />
<use xlink:href="#f1_2f" transform="matrix(12,0,0,12,867.7,598.2)" />
<use xlink:href="#f1_2g" transform="matrix(12,0,0,12,874.7,598.2)" />
<use xlink:href="#f1_1x" transform="matrix(12,0,0,12,55,629.7)" />
<use xlink:href="#f1_29" transform="matrix(12,0,0,12,63.5,629.7)" />
<use xlink:href="#f1_25" transform="matrix(12,0,0,12,77.4,629.7)" />
<use xlink:href="#f1_2a" transform="matrix(12,0,0,12,82.2,629.7)" />
<use xlink:href="#f1_2b" transform="matrix(12,0,0,12,91,629.7)" />
<use xlink:href="#f1_1x" transform="matrix(12,0,0,12,106.3,629.7)" />
<use xlink:href="#f1_1z" transform="matrix(12,0,0,12,114.4,629.7)" />
<use xlink:href="#f1_25" transform="matrix(12,0,0,12,122.8,629.7)" />
<use xlink:href="#f1_20" transform="matrix(12,0,0,12,127.6,629.7)" />
<use xlink:href="#f1_25" transform="matrix(12,0,0,12,143,629.7)" />
<use xlink:href="#f1_2f" transform="matrix(12,0,0,12,147.8,629.7)" />
<use xlink:href="#f1_27" transform="matrix(12,0,0,12,160.6,629.7)" />
<use xlink:href="#f1_2a" transform="matrix(12,0,0,12,169.8,629.7)" />
<use xlink:href="#f1_2b" transform="matrix(12,0,0,12,178.6,629.7)" />
<use xlink:href="#f1_2j" transform="matrix(12,0,0,12,188.1,629.7)" />
<use xlink:href="#f1_2a" transform="matrix(12,0,0,12,201.6,629.7)" />
<use xlink:href="#f1_1x" transform="matrix(12,0,0,12,216.3,629.7)" />
<use xlink:href="#f1_2f" transform="matrix(12,0,0,12,224.4,629.7)" />
<use xlink:href="#f1_1e" transform="matrix(12,0,0,12,237.2,629.7)" />
<use xlink:href="#f1_2g" transform="matrix(12,0,0,12,256.2,629.7)" />
<use xlink:href="#f1_21" transform="matrix(12,0,0,12,261.7,629.7)" />
<use xlink:href="#f1_2e" transform="matrix(12,0,0,12,269.8,629.7)" />
<use xlink:href="#f1_29" transform="matrix(12,0,0,12,276,629.7)" />
<use xlink:href="#f1_25" transform="matrix(12,0,0,12,289.9,629.7)" />
<use xlink:href="#f1_2a" transform="matrix(12,0,0,12,294.7,629.7)" />
<use xlink:href="#f1_1x" transform="matrix(12,0,0,12,303.9,629.7)" />
<use xlink:href="#f1_28" transform="matrix(12,0,0,12,312.3,629.7)" />
<use xlink:href="#f1_2b" transform="matrix(12,0,0,12,322.5,629.7)" />
<use xlink:href="#f1_2e" transform="matrix(12,0,0,12,332,629.7)" />
<use xlink:href="#f1_1x" transform="matrix(12,0,0,12,344.1,629.7)" />
<use xlink:href="#f1_29" transform="matrix(12,0,0,12,352.5,629.7)" />
<use xlink:href="#f1_25" transform="matrix(12,0,0,12,366.4,629.7)" />
<use xlink:href="#f1_2a" transform="matrix(12,0,0,12,371.2,629.7)" />
<use xlink:href="#f1_2b" transform="matrix(12,0,0,12,380,629.7)" />
<use xlink:href="#f1_2g" transform="matrix(12,0,0,12,395.4,629.7)" />
<use xlink:href="#f1_21" transform="matrix(12,0,0,12,400.9,629.7)" />
<use xlink:href="#f1_2e" transform="matrix(12,0,0,12,408.9,629.7)" />
<use xlink:href="#f1_29" transform="matrix(12,0,0,12,415.1,629.7)" />
<use xlink:href="#f1_25" transform="matrix(12,0,0,12,429.1,629.7)" />
<use xlink:href="#f1_2a" transform="matrix(12,0,0,12,433.8,629.7)" />
<use xlink:href="#f1_1x" transform="matrix(12,0,0,12,443,629.7)" />
<use xlink:href="#f1_28" transform="matrix(12,0,0,12,451.4,629.7)" />
<use xlink:href="#f1_1x" transform="matrix(12,0,0,12,462,629.7)" />
<use xlink:href="#f1_2a" transform="matrix(12,0,0,12,470.5,629.7)" />
<use xlink:href="#f1_20" transform="matrix(12,0,0,12,479.3,629.7)" />
<use xlink:href="#f1_28" transform="matrix(12,0,0,12,494.6,629.7)" />
<use xlink:href="#f1_1x" transform="matrix(12,0,0,12,499,629.7)" />
<use xlink:href="#f1_2f" transform="matrix(12,0,0,12,507.4,629.7)" />
<use xlink:href="#f1_2g" transform="matrix(12,0,0,12,514.4,629.7)" />
<use xlink:href="#f1_1x" transform="matrix(12,0,0,12,525.7,629.7)" />
<use xlink:href="#f1_29" transform="matrix(12,0,0,12,534.2,629.7)" />
<use xlink:href="#f1_25" transform="matrix(12,0,0,12,548.1,629.7)" />
<use xlink:href="#f1_2a" transform="matrix(12,0,0,12,552.9,629.7)" />
<use xlink:href="#f1_2b" transform="matrix(12,0,0,12,561.7,629.7)" />
<use xlink:href="#f1_1x" transform="matrix(12,0,0,12,577,629.7)" />
<use xlink:href="#f1_1z" transform="matrix(12,0,0,12,585.1,629.7)" />
<use xlink:href="#f1_25" transform="matrix(12,0,0,12,593.5,629.7)" />
<use xlink:href="#f1_20" transform="matrix(12,0,0,12,597.9,629.7)" />
<use xlink:href="#f1_25" transform="matrix(12,0,0,12,613.3,629.7)" />
<use xlink:href="#f1_2f" transform="matrix(12,0,0,12,618.8,629.7)" />
<use xlink:href="#f1_2f" transform="matrix(12,0,0,12,631.6,629.7)" />
<use xlink:href="#f1_1x" transform="matrix(12,0,0,12,638.9,629.7)" />
<use xlink:href="#f1_25" transform="matrix(12,0,0,12,647.3,629.7)" />
<use xlink:href="#f1_20" transform="matrix(12,0,0,12,651.7,629.7)" />
<use xlink:href="#f1_2g" transform="matrix(12,0,0,12,666.7,629.7)" />
<use xlink:href="#f1_2b" transform="matrix(12,0,0,12,672.2,629.7)" />
<use xlink:href="#f1_1y" transform="matrix(12,0,0,12,687.6,629.7)" />
<use xlink:href="#f1_21" transform="matrix(12,0,0,12,696.4,629.7)" />
<use xlink:href="#f1_13" transform="matrix(12,0,0,12,710.3,629.7)" />
<use xlink:href="#f1_2g" transform="matrix(12,0,0,12,727.9,629.7)" />
<use xlink:href="#f1_21" transform="matrix(12,0,0,12,733.4,629.7)" />
<use xlink:href="#f1_2e" transform="matrix(12,0,0,12,741.4,629.7)" />
<use xlink:href="#f1_29" transform="matrix(12,0,0,12,747.6,629.7)" />
<use xlink:href="#f1_25" transform="matrix(12,0,0,12,761.6,629.7)" />
<use xlink:href="#f1_2a" transform="matrix(12,0,0,12,766.3,629.7)" />
<use xlink:href="#f1_1x" transform="matrix(12,0,0,12,775.5,629.7)" />
<use xlink:href="#f1_28" transform="matrix(12,0,0,12,783.9,629.7)" />
<use xlink:href="#f1_2b" transform="matrix(12,0,0,12,794.5,629.7)" />
<use xlink:href="#f1_2e" transform="matrix(12,0,0,12,804.1,629.7)" />
<use xlink:href="#f1_1z" transform="matrix(12,0,0,12,816.1,629.7)" />
<use xlink:href="#f1_1x" transform="matrix(12,0,0,12,824.2,629.7)" />
<use xlink:href="#f1_2e" transform="matrix(12,0,0,12,832.3,629.7)" />
<use xlink:href="#f1_1y" transform="matrix(12,0,0,12,838.5,629.7)" />
<use xlink:href="#f1_2b" transform="matrix(12,0,0,12,847.3,629.7)" />
<use xlink:href="#f1_2k" transform="matrix(12,0,0,12,856.8,629.7)" />
<use xlink:href="#f1_2l" transform="matrix(12,0,0,12,866,629.7)" />
<use xlink:href="#f1_28" transform="matrix(12,0,0,12,874.8,629.7)" />
<use xlink:href="#f1_2g" transform="matrix(12,0,0,12,55,661.6)" />
<use xlink:href="#f1_21" transform="matrix(12,0,0,12,60.5,661.6)" />
<use xlink:href="#f1_2e" transform="matrix(12,0,0,12,68.6,661.6)" />
<use xlink:href="#f1_29" transform="matrix(12,0,0,12,74.8,661.6)" />
<use xlink:href="#f1_25" transform="matrix(12,0,0,12,88.7,661.6)" />
<use xlink:href="#f1_2a" transform="matrix(12,0,0,12,93.5,661.6)" />
<use xlink:href="#f1_1x" transform="matrix(12,0,0,12,102.7,661.6)" />
<use xlink:href="#f1_28" transform="matrix(12,0,0,12,111.1,661.6)" />
<use xlink:href="#f1_i" transform="matrix(12,0,0,12,115.5,661.6)" />
<use xlink:href="#f0_16" transform="matrix(12,0,0,12,336,1039.8)" />
<use xlink:href="#f0_25" transform="matrix(12,0,0,12,347,1039.8)" />
<use xlink:href="#f0_23" transform="matrix(12,0,0,12,352.1,1039.8)" />
<use xlink:href="#f0_i" transform="matrix(12,0,0,12,361.2,1039.8)" />
<use xlink:href="#f0_n" transform="matrix(12,0,0,12,370.8,1039.8)" />
<use xlink:href="#f0_i" transform="matrix(12,0,0,12,380,1039.8)" />
<use xlink:href="#f0_16" transform="matrix(12,0,0,12,389.2,1039.8)" />
<use xlink:href="#f0_2b" transform="matrix(12,0,0,12,400.2,1039.8)" />
<use xlink:href="#f0_2e" transform="matrix(12,0,0,12,409.3,1039.8)" />
<use xlink:href="#f0_29" transform="matrix(12,0,0,12,417.4,1039.8)" />
<use xlink:href="#f0_1x" transform="matrix(12,0,0,12,432.4,1039.8)" />
<use xlink:href="#f0_2g" transform="matrix(12,0,0,12,441.6,1039.8)" />
<use xlink:href="#f0_25" transform="matrix(12,0,0,12,447.8,1039.8)" />
<use xlink:href="#f0_2b" transform="matrix(12,0,0,12,452.9,1039.8)" />
<use xlink:href="#f0_2a" transform="matrix(12,0,0,12,462.1,1039.8)" />
<use xlink:href="#f0_2b" transform="matrix(12,0,0,12,477.1,1039.8)" />
<use xlink:href="#f0_22" transform="matrix(12,0,0,12,486.3,1039.8)" />
<use xlink:href="#f0_2c" transform="matrix(12,0,0,12,496.9,1039.8)" />
<use xlink:href="#f0_21" transform="matrix(12,0,0,12,507.1,1039.8)" />
<use xlink:href="#f0_2c" transform="matrix(12,0,0,12,515.2,1039.8)" />
<use xlink:href="#f0_2g" transform="matrix(12,0,0,12,525.5,1039.8)" />
<use xlink:href="#f0_25" transform="matrix(12,0,0,12,531.7,1039.8)" />
<use xlink:href="#f0_20" transform="matrix(12,0,0,12,536.8,1039.8)" />
<use xlink:href="#f0_21" transform="matrix(12,0,0,12,547.1,1039.8)" />
<use xlink:href="#f0_1y" transform="matrix(12,0,0,12,559.5,1039.8)" />
<use xlink:href="#f0_2b" transform="matrix(12,0,0,12,569.8,1039.8)" />
<use xlink:href="#f0_2a" transform="matrix(12,0,0,12,578.9,1039.8)" />
<use xlink:href="#f0_20" transform="matrix(12,0,0,12,589.2,1039.8)" />
<use xlink:href="#f0_1g" transform="matrix(12,0,0,12,55,1127.5)" />
<use xlink:href="#f0_2e" transform="matrix(12,0,0,12,66.4,1127.5)" />
<use xlink:href="#f0_2b" transform="matrix(12,0,0,12,74.1,1127.5)" />
<use xlink:href="#f0_2g" transform="matrix(12,0,0,12,83.3,1127.5)" />
<use xlink:href="#f0_21" transform="matrix(12,0,0,12,89.5,1127.5)" />
<use xlink:href="#f0_25" transform="matrix(12,0,0,12,97.5,1127.5)" />
<use xlink:href="#f0_2a" transform="matrix(12,0,0,12,102.6,1127.5)" />
<use xlink:href="#f0_2f" transform="matrix(12,0,0,12,117.7,1127.5)" />
<use xlink:href="#f0_2g" transform="matrix(12,0,0,12,124.6,1127.5)" />
<use xlink:href="#f0_2e" transform="matrix(12,0,0,12,130.8,1127.5)" />
<use xlink:href="#f0_2h" transform="matrix(12,0,0,12,138.5,1127.5)" />
<use xlink:href="#f0_1z" transform="matrix(12,0,0,12,148.8,1127.5)" />
<use xlink:href="#f0_2g" transform="matrix(12,0,0,12,156.9,1127.5)" />
<use xlink:href="#f0_2h" transform="matrix(12,0,0,12,163.1,1127.5)" />
<use xlink:href="#f0_2e" transform="matrix(12,0,0,12,173.7,1127.5)" />
<use xlink:href="#f0_21" transform="matrix(12,0,0,12,181.4,1127.5)" />
</g>
<path fill-rule="evenodd" d="M55,1131.1H190v-1.8H55v1.8Z" class="g0_158" />
<image preserveAspectRatio="none" x="312" y="55" width="311" height="289" xlink:href="img/1.png" />
<image preserveAspectRatio="none" x="270" y="688" width="395" height="311" xlink:href="img/2.png" />
<g fill="#000000" >
<use xlink:href="#f2_m" transform="matrix(8,0,0,8,818.2,1187.9)" />
</g>
<defs>
<path d="M36,0V54L154,74V926L26,945v55H860V731H790L766,908c0,0,-36,5,-121,8c0,0,-84,2,-133,2H389V508H633l23,127h67V298H656L633,426H389V74L556,54V0Z" 
id="f0_16"
transform="scale(0.001,-0.001)" />

<path d="M34,0V49l76,18V634L38,652v49H325V67L402,49V0ZM217,831c0,0,-48,0,-81,33c0,0,-34,33,-34,82c0,0,0,48,34,81c0,0,34,33,81,33c0,0,48,0,81,-33c0,0,33,-33,33,-81c0,0,0,-47,-33,-81c0,0,-32,-34,-81,-34Z" 
id="f0_25"
transform="scale(0.001,-0.001)" />

<path d="M360,-256c0,0,108,0,167,35c0,0,59,35,59,98c0,0,0,70,-95,70H254c0,0,-65,-47,-65,-108c0,0,0,-47,46,-71c0,0,45,-24,125,-24Zm9,561c0,0,55,0,79,43c0,0,25,43,25,129c0,0,0,87,-24,127c0,0,-25,41,-80,41c0,0,-52,0,-75,-41c0,0,-24,-40,-24,-127c0,0,0,-86,23,-129c0,0,23,-43,76,-43Zm-9,-641c0,0,-153,0,-236,43c0,0,-84,44,-84,120c0,0,0,33,28,65c0,0,27,31,105,76c0,0,-44,17,-75,59c0,0,-31,43,-31,90L192,258c0,0,-133,56,-133,219c0,0,0,116,81,180c0,0,82,63,233,63c0,0,32,0,82,-6c0,0,51,-6,74,-13l168,83l26,-32L638,631c0,0,46,-57,46,-154c0,0,0,-119,-80,-182c0,0,-80,-64,-234,-64c0,0,-59,0,-114,9L238,183c0,0,1,-22,28,-41c0,0,26,-19,64,-19H493c0,0,256,0,256,-196c0,0,0,-81,-44,-139c0,0,-45,-59,-131,-92c0,0,-86,-32,-214,-32Z" 
id="f0_23"
transform="scale(0.001,-0.001)" />

<path d="M191,-20c0,0,-51,0,-88,34c0,0,-36,36,-36,88c0,0,0,52,36,88c0,0,36,36,88,36c0,0,51,0,88,-36c0,0,36,-36,36,-88c0,0,0,-51,-36,-87c0,0,-36,-35,-88,-35Z" 
id="f0_i"
transform="scale(0.001,-0.001)" />

<path d="M64,0V141c0,0,64,68,119,123c0,0,119,118,174,185c0,0,56,68,81,140c0,0,26,72,26,165c0,0,0,81,-40,131c0,0,-39,50,-105,50c0,0,-46,0,-74,-10c0,0,-27,-10,-50,-29L163,751H98V979c0,0,59,13,116,23c0,0,58,9,125,9c0,0,165,0,252,-68c0,0,88,-68,88,-193c0,0,0,-78,-26,-142c0,0,-26,-64,-83,-124c0,0,-56,-61,-224,-197c0,0,-64,-52,-139,-119H698V0Z" 
id="f0_m"
transform="scale(0.001,-0.001)" />

<path d="M73,0V85L627,921H448c0,0,-170,0,-239,-15L186,749H119v251H892V921L335,77H544c0,0,85,0,167,8c0,0,83,9,119,17l44,191h67L921,0Z" 
id="f0_1q"
transform="scale(0.001,-0.001)" />

<path d="M305,-14L57,634L4,652v49H351V652L268,632L419,232L581,631h71L814,232L950,634l-82,18v49h227V652l-54,-15L806,-14H715L555,378L395,-14Z" 
id="f0_2j"
transform="scale(0.001,-0.001)" />

<path d="M327,-14c0,0,-101,0,-156,45c0,0,-55,45,-55,131V624H25v48l108,29l87,159H332V701H480V624H332V176c0,0,0,-49,20,-73c0,0,20,-25,53,-25c0,0,40,0,97,12V26c0,0,-22,-15,-76,-27c0,0,-55,-13,-99,-13Z" 
id="f0_2g"
transform="scale(0.001,-0.001)" />

<path d="M434,423c0,0,0,101,-7,142c0,0,-6,40,-22,60c0,0,-16,19,-45,19c0,0,-44,0,-66,-48c0,0,-22,-49,-22,-173ZM389,-14c0,0,-172,0,-254,89c0,0,-83,90,-83,279c0,0,0,184,79,274c0,0,79,91,238,91c0,0,142,0,206,-76c0,0,64,-76,64,-237V345H271V333c0,0,0,-111,18,-158c0,0,18,-47,58,-72c0,0,40,-25,110,-25c0,0,66,0,166,22V42C623,42,582,18,517,1c0,0,-66,-15,-128,-15Z" 
id="f0_21"
transform="scale(0.001,-0.001)" />

<path d="M41,0V49l91,18V634L41,652v49H336l8,-145c0,0,80,89,144,128c0,0,64,40,117,40h40V468H604l-45,94c0,0,-47,0,-106,-21c0,0,-60,-20,-105,-48V67L460,49V0Z" 
id="f0_2e"
transform="scale(0.001,-0.001)" />

<path d="M379,60c0,0,59,0,84,64c0,0,24,65,24,231c0,0,0,164,-24,227c0,0,-24,63,-84,63c0,0,-57,0,-80,-60c0,0,-22,-61,-22,-230c0,0,0,-173,23,-234c0,0,22,-61,79,-61Zm-2,-74c0,0,-161,0,-240,91c0,0,-79,91,-79,277c0,0,0,186,80,276c0,0,81,90,245,90c0,0,167,0,245,-93c0,0,78,-93,78,-273c0,0,0,-188,-81,-278c0,0,-81,-90,-248,-90Z" 
id="f0_2b"
transform="scale(0.001,-0.001)" />

<path d="M41,0V49l69,18V634L41,652v49H313l11,-61l50,26c0,0,105,54,188,54c0,0,194,0,194,-207V67L827,49V0H478V49l63,18V484c0,0,0,63,-27,98c0,0,-26,35,-75,35c0,0,-57,0,-114,-25V67L389,49V0Z" 
id="f0_2a"
transform="scale(0.001,-0.001)" />

<path d="M681,416L504,902L333,416ZM669,0V40L803,60L704,348H310L210,60L344,40V0H15V40L128,60l341,949H611L965,60L1092,40V0Z" 
id="f1_11"
transform="scale(0.001,-0.001)" />

<path d="M31,0V33L150,52v956L31,1026v34H274V52L394,33V0Z" 
id="f1_28"
transform="scale(0.001,-0.001)" />

<path d="M284,67c0,0,51,0,88,12c0,0,37,12,74,30V358l-98,-3c0,0,-100,-4,-135,-39c0,0,-35,-35,-35,-117c0,0,0,-132,106,-132ZM233,-14c0,0,-179,0,-179,208c0,0,0,70,27,116c0,0,27,46,87,70c0,0,60,24,173,27l105,3V519c0,0,0,72,-26,107c0,0,-27,34,-82,34c0,0,-75,0,-137,-35L176,538H134V691c0,0,121,26,213,26c0,0,115,0,169,-47c0,0,54,-47,54,-144V52L657,33V0H465L451,70c0,0,-85,-84,-218,-84Z" 
id="f1_1x"
transform="scale(0.001,-0.001)" />

<path d="M431,0V33L535,52V499c0,0,0,62,-32,96c0,0,-32,33,-95,33c0,0,-66,0,-163,-22V52L350,33V0H32V33l89,19V649L32,668v33H237l6,-57c0,0,56,32,119,54c0,0,62,22,110,22c0,0,52,0,95,-20c0,0,44,-19,66,-62c0,0,57,32,134,57c0,0,77,25,128,25c0,0,179,0,179,-207V52l90,-19V0H846V33L950,52V499c0,0,0,129,-119,129c0,0,-19,0,-45,-3c0,0,-26,-3,-52,-7c0,0,-25,-4,-49,-8c0,0,-23,-5,-39,-8c0,0,13,-41,13,-89V52L764,33V0Z" 
id="f1_29"
transform="scale(0.001,-0.001)" />

<path d="M32,0V33L151,52V649L52,668v33H275V52L395,33V0ZM201,850c0,0,-32,0,-56,24c0,0,-24,24,-24,56c0,0,0,34,24,58c0,0,24,24,56,24c0,0,34,0,58,-24c0,0,24,-24,24,-58c0,0,0,-32,-24,-56c0,0,-24,-24,-58,-24Z" 
id="f1_25"
transform="scale(0.001,-0.001)" />

<path d="M439,0V33l93,19V500c0,0,0,62,-30,97c0,0,-31,36,-94,36c0,0,-67,0,-165,-22V52L338,33V0H35V33l84,19V649L35,668v33H235l7,-57c0,0,57,33,122,54c0,0,65,22,108,22c0,0,91,0,137,-53c0,0,47,-53,47,-154V52L741,33V0Z" 
id="f1_2a"
transform="scale(0.001,-0.001)" />

<path d="M377,45c0,0,99,0,147,73c0,0,47,73,47,237c0,0,0,161,-47,233c0,0,-47,72,-147,72c0,0,-97,0,-141,-69c0,0,-44,-69,-44,-236c0,0,0,-169,45,-240c0,0,44,-70,140,-70Zm0,-59c0,0,-158,0,-238,94c0,0,-81,95,-81,274c0,0,0,178,81,272c0,0,80,94,244,94c0,0,160,0,241,-92c0,0,82,-92,82,-274c0,0,0,-368,-329,-368Z" 
id="f1_2b"
transform="scale(0.001,-0.001)" />

<path d="M399,-14c0,0,-341,0,-341,370c0,0,0,175,87,269c0,0,87,95,249,95c0,0,101,0,220,-23V501H573L541,625c0,0,-62,35,-149,35c0,0,-200,0,-200,-304c0,0,0,-158,61,-225c0,0,61,-67,189,-67c0,0,109,0,189,24V43C631,43,595,16,530,1c0,0,-64,-15,-131,-15Z" 
id="f1_1z"
transform="scale(0.001,-0.001)" />

<path d="M383,64c0,0,85,0,152,28V645c0,0,-67,13,-152,13c0,0,-194,0,-194,-314c0,0,0,-141,48,-211c0,0,48,-69,146,-69ZM342,-14c0,0,-287,0,-287,358c0,0,0,184,82,280c0,0,81,96,239,96c0,0,81,0,163,-18c0,0,-4,25,-4,124v182l-118,18v34H659V52L745,33V0H548l-9,52c0,0,-84,-66,-197,-66Z" 
id="f1_20"
transform="scale(0.001,-0.001)" />

<path d="M278,-14c0,0,-52,0,-115,11c0,0,-63,10,-99,23V193H98L134,95c0,0,56,-50,146,-50c0,0,144,0,144,123c0,0,0,91,-114,130l-66,21c0,0,-75,25,-110,50c0,0,-34,26,-53,63c0,0,-18,36,-18,89c0,0,0,92,63,145c0,0,63,54,170,54c0,0,77,0,193,-23V544H454l-32,81c0,0,-39,35,-124,35c0,0,-61,0,-92,-30c0,0,-32,-30,-32,-80c0,0,0,-43,29,-72c0,0,28,-29,86,-48c0,0,110,-38,144,-55c0,0,33,-17,57,-42c0,0,23,-25,36,-57c0,0,13,-32,13,-79c0,0,0,-104,-66,-158c0,0,-66,-53,-195,-53Z" 
id="f1_2f"
transform="scale(0.001,-0.001)" />

<path d="M31,0V33l88,19V649L31,668v33H235l7,-87c0,0,44,37,121,71c0,0,76,35,121,35h11V530H463l-43,82c0,0,-37,0,-88,-10c0,0,-52,-10,-89,-26V52L363,33V0Z" 
id="f1_2e"
transform="scale(0.001,-0.001)" />

<path d="M495,413c0,0,0,133,-34,190c0,0,-34,57,-105,57c0,0,-78,0,-119,-63c0,0,-42,-62,-42,-184ZM374,-14c0,0,-163,0,-239,87c0,0,-75,88,-75,283c0,0,0,183,77,273c0,0,76,91,219,91c0,0,269,0,269,-306V353H194V340c0,0,0,-103,23,-160c0,0,22,-57,70,-87c0,0,47,-29,124,-29c0,0,40,0,96,6c0,0,55,7,91,15V43C598,43,562,20,500,3c0,0,-61,-17,-126,-17Z" 
id="f1_21"
transform="scale(0.001,-0.001)" />

<path d="M382,45c0,0,188,0,188,314c0,0,0,143,-47,213c0,0,-46,69,-141,69c0,0,-87,0,-146,-24V58c0,0,67,-13,146,-13ZM25,-325v35l88,18V649L34,668v33H231l1,-41c0,0,31,27,84,43c0,0,53,17,107,17c0,0,134,0,208,-94c0,0,73,-93,73,-267c0,0,0,-178,-80,-276c0,0,-80,-97,-232,-97c0,0,-84,0,-160,16c0,0,4,-53,4,-84V-272l123,-18v-35Z" 
id="f1_2c"
transform="scale(0.001,-0.001)" />

<path d="M249,-14c0,0,-71,0,-107,42c0,0,-35,42,-35,119V639H15v33l93,29l76,159h47V701H391V639H231V161c0,0,0,-48,22,-73c0,0,22,-24,57,-24c0,0,44,0,106,12V26C416,26,389,8,340,-2c0,0,-49,-12,-91,-12Z" 
id="f1_2g"
transform="scale(0.001,-0.001)" />

<path d="M148,-329c0,0,-58,0,-114,13v151H69l24,-71c0,0,23,-17,64,-17c0,0,39,0,72,22c0,0,33,23,60,67c0,0,27,44,68,157L90,649L19,668v33H344V668L233,648L423,158L606,649L497,668v33H758V668L685,652L411,-43c0,0,-48,-124,-84,-177c0,0,-36,-54,-79,-82c0,0,-44,-27,-100,-27Z" 
id="f1_2l"
transform="scale(0.001,-0.001)" />

<path d="M360,-14L72,649L0,668v33H327V668L216,648L420,164L615,649L504,668v33H764V668L697,652L416,-14Z" 
id="f1_2i"
transform="scale(0.001,-0.001)" />

<path d="M58,-234v58c0,0,131,42,131,125c0,0,0,15,-11,27c0,0,-11,12,-38,25C140,1,89,27,89,75c0,0,0,40,25,61c0,0,26,21,65,21c0,0,48,0,77,-34c0,0,30,-34,30,-86c0,0,0,-101,-60,-170c0,0,-59,-69,-168,-101Z" 
id="f1_g"
transform="scale(0.001,-0.001)" />

<path d="M442,0V33l93,19V504c0,0,0,129,-124,129c0,0,-70,0,-168,-22V52L338,33V0H31V33l88,19v956L15,1026v34H243V756c0,0,0,-77,-5,-112c0,0,54,31,122,53c0,0,68,23,115,23c0,0,91,0,137,-53c0,0,47,-53,47,-154V52L744,33V0Z" 
id="f1_24"
transform="scale(0.001,-0.001)" />

<path d="M64,0V34L168,59V639H47v36l121,29v49c0,0,0,155,61,239c0,0,62,84,173,84c0,0,58,0,107,-15V908H472l-33,92c0,0,-26,16,-62,16c0,0,-47,0,-66,-42c0,0,-19,-42,-19,-157V701H478V639H292V59L443,34V0Z" 
id="f1_22"
transform="scale(0.001,-0.001)" />

<path d="M41,0V34L426,641H261c0,0,-42,0,-80,-7c0,0,-39,-7,-54,-19L104,515H69V701H586V665L201,60H407c0,0,42,0,89,10c0,0,47,10,66,25l39,147h35L617,0Z" 
id="f1_2m"
transform="scale(0.001,-0.001)" />

<path d="M359,-270c0,0,124,0,192,46c0,0,67,47,67,129c0,0,0,43,-26,67c0,0,-26,24,-79,24H242c0,0,-32,-27,-51,-69c0,0,-20,-41,-20,-77c0,0,0,-64,46,-92c0,0,46,-28,142,-28Zm11,561c0,0,81,0,115,47c0,0,34,47,34,141c0,0,0,100,-35,142c0,0,-35,42,-113,42c0,0,-78,0,-114,-43c0,0,-37,-42,-37,-141c0,0,0,-98,36,-143c0,0,36,-45,114,-45ZM359,-329c0,0,-143,0,-218,44c0,0,-75,43,-75,125c0,0,0,39,27,78c0,0,26,38,98,89c0,0,-43,14,-72,48c0,0,-29,35,-29,74L208,262c0,0,-118,55,-118,217c0,0,0,115,73,178c0,0,73,63,211,63c0,0,28,0,71,-6c0,0,44,-6,67,-13l165,83l26,-32L599,644c0,0,50,-56,50,-165c0,0,0,-120,-72,-182c0,0,-73,-62,-208,-62c0,0,-62,0,-114,11L208,148c0,0,2,-13,29,-24c0,0,27,-12,67,-12H512c0,0,113,0,168,-49c0,0,55,-49,55,-134c0,0,0,-79,-44,-137c0,0,-43,-58,-128,-90c0,0,-84,-31,-204,-31Z" 
id="f1_23"
transform="scale(0.001,-0.001)" />

<path d="M191,-20c0,0,-39,0,-65,25c0,0,-25,27,-25,64c0,0,0,38,26,64c0,0,26,26,64,26c0,0,38,0,64,-26c0,0,26,-26,26,-64c0,0,0,-37,-25,-64c0,0,-26,-25,-65,-25Z" 
id="f1_i"
transform="scale(0.001,-0.001)" />

<path d="M551,45c0,0,171,0,252,108c0,0,82,108,82,349c0,0,0,239,-81,344c0,0,-81,105,-253,105c0,0,-172,0,-252,-105c0,0,-80,-105,-80,-344c0,0,0,-241,80,-349c0,0,81,-108,252,-108Zm0,-59c0,0,-238,0,-363,129C188,115,63,245,63,501c0,0,0,510,488,510c0,0,242,0,366,-129c0,0,124,-130,124,-381c0,0,0,-255,-126,-385C915,116,790,-14,551,-14Z" 
id="f1_1f"
transform="scale(0.001,-0.001)" />

<path d="M289,-14c0,0,-179,0,-179,205V649L20,668v33H233V200c0,0,0,-128,120,-128c0,0,92,0,173,23V649L420,668v33H649V52L738,33V0H533l-6,57C527,57,474,28,405,7c0,0,-69,-21,-116,-21Z" 
id="f1_2h"
transform="scale(0.001,-0.001)" />

<path d="M376,50c0,0,103,0,149,80c0,0,46,81,46,240c0,0,0,137,-47,204c0,0,-48,67,-148,67c0,0,-44,0,-87,-7c0,0,-44,-8,-63,-17V62c0,0,63,-12,150,-12Zm3,-64c0,0,-64,0,-141,14c0,0,-78,14,-136,37v971L0,1026v34H226V809c0,0,0,-40,-4,-148c0,0,74,59,188,59c0,0,143,0,219,-87c0,0,77,-87,77,-263c0,0,0,-189,-84,-287c0,0,-84,-97,-243,-97Z" 
id="f1_1y"
transform="scale(0.001,-0.001)" />

<path d="M13,0V34L95,46L325,350L122,649L40,668v33H357V668L264,648L399,446L554,649l-96,19v33H710V668L630,652L433,397L663,50L745,34V0H427V34l94,17L359,299L169,50L266,34V0Z" 
id="f1_2k"
transform="scale(0.001,-0.001)" />

<path d="M327,-14L84,649L1,668v33H335V668L219,648L385,174L554,632h63L786,171L944,649L830,668v33h267V668l-78,-16L784,-14H726L553,448L382,-14Z" 
id="f1_2j"
transform="scale(0.001,-0.001)" />

<path d="M425,-14c0,0,-187,0,-280,90c0,0,-93,90,-93,276c0,0,0,115,42,198c0,0,43,82,121,126c0,0,78,44,182,44c0,0,104,0,227,-26V486H571L539,609c0,0,-25,19,-50,26c0,0,-24,7,-65,7c0,0,-44,0,-79,-35c0,0,-36,-35,-56,-98c0,0,-20,-64,-20,-153c0,0,0,-150,47,-214c0,0,47,-64,148,-64c0,0,103,0,176,21V42C640,42,606,15,547,0c0,0,-59,-14,-122,-14Z" 
id="f0_1z"
transform="scale(0.001,-0.001)" />

<path d="M41,0V49l69,18V992l-72,18v50H325V756c0,0,0,-49,-4,-116l51,26c0,0,106,54,190,54c0,0,194,0,194,-207V67L827,49V0H478V49l63,18V484c0,0,0,63,-27,98c0,0,-26,35,-75,35c0,0,-57,0,-114,-25V67L389,49V0Z" 
id="f0_24"
transform="scale(0.001,-0.001)" />

<path d="M345,75c0,0,50,0,110,26V351l-63,-2c0,0,-72,-3,-100,-38c0,0,-28,-35,-28,-113c0,0,0,-63,22,-93c0,0,23,-30,59,-30ZM266,-14c0,0,-217,0,-217,208c0,0,0,79,32,126c0,0,32,48,93,71c0,0,60,22,190,25l91,2V521c0,0,0,126,-104,126c0,0,-62,0,-140,-39L183,521H134V691c0,0,112,17,165,21c0,0,53,5,108,5c0,0,264,0,264,-194V67L741,49V0H483L466,54C466,54,408,14,361,0c0,0,-47,-14,-95,-14Z" 
id="f0_1x"
transform="scale(0.001,-0.001)" />

<path d="M30,0V49l76,18V992l-72,18v50H322V67L398,49V0Z" 
id="f0_28"
transform="scale(0.001,-0.001)" />

<path d="M394,460c0,0,126,0,186,57c0,0,60,57,60,187c0,0,0,123,-57,176c0,0,-58,53,-194,53H316V460ZM54,0V40L172,60V941L44,960v40H421c0,0,368,0,368,-295c0,0,0,-153,-93,-233c0,0,-93,-80,-267,-80H316V60L475,40V0Z" 
id="f1_1g"
transform="scale(0.001,-0.001)" />

<path d="M420,-22L89,941L1,960v40H383V960L236,941L474,236L744,930h33L1037,236l227,705l-156,19v40h331V960l-87,-19L1025,-22H985L726,666L460,-22Z" 
id="f1_1n"
transform="scale(0.001,-0.001)" />

<path d="M477,0V33l64,19L348,354L257,254V52L331,33V0H44V33l89,19v956L29,1026v34H257V338L544,647l-73,20v34H718V667L631,650L431,446L688,50L764,33V0Z" 
id="f1_27"
transform="scale(0.001,-0.001)" />

<path d="M416,68c0,0,60,0,124,32V628c0,0,-58,15,-118,15c0,0,-67,0,-104,-73c0,0,-38,-73,-38,-216c0,0,0,-139,36,-212c0,0,35,-74,100,-74ZM369,-14c0,0,-155,0,-231,88c0,0,-76,90,-76,274c0,0,0,182,82,277c0,0,81,95,236,95c0,0,82,0,165,-20c0,0,-5,24,-5,115V992l-72,18v50H756V67L833,49V0H562L547,40C547,40,505,13,483,4c0,0,-23,-7,-51,-12c0,0,-28,-6,-63,-6Z" 
id="f0_20"
transform="scale(0.001,-0.001)" />

<path d="M438,65c0,0,131,0,131,293c0,0,0,279,-130,279c0,0,-69,0,-127,-29V80c0,0,60,-15,126,-15ZM20,-325v50l76,18V634L19,652v49H304l1,-36c0,0,80,55,194,55c0,0,146,0,218,-86c0,0,71,-86,71,-271c0,0,0,-183,-83,-280c0,0,-83,-97,-238,-97c0,0,-79,0,-160,19c0,0,5,-48,5,-109V-257l103,-18v-50Z" 
id="f0_2c"
transform="scale(0.001,-0.001)" />

<path d="M235,0V40L394,60V936H356c0,0,-189,0,-258,-15L78,766H28v234H908V766H857L837,921c0,0,-22,5,-98,9c0,0,-75,4,-165,4H538V60L697,40V0Z" 
id="f1_1k"
transform="scale(0.001,-0.001)" />

<path d="M64,-325c0,0,-46,0,-107,14v148H-8l19,-81c0,0,25,-21,62,-21c0,0,44,0,67,47c0,0,22,47,22,152V649L57,668v33H286V-28c0,0,0,-146,-57,-221c0,0,-56,-76,-165,-76ZM213,850c0,0,-34,0,-58,24c0,0,-24,24,-24,56c0,0,0,34,24,58c0,0,24,24,58,24c0,0,32,0,56,-24c0,0,24,-24,24,-58c0,0,0,-32,-24,-56c0,0,-24,-24,-56,-24Z" 
id="f1_26"
transform="scale(0.001,-0.001)" />

<path d="M134,0V40L339,60V876L137,804v39l292,166h39V60L672,40V0Z" 
id="f1_l"
transform="scale(0.001,-0.001)" />

<path d="M67,0V109L206,235c0,0,133,118,196,190c0,0,63,72,90,149c0,0,27,77,27,177c0,0,0,97,-44,148c0,0,-44,50,-144,50c0,0,-39,0,-81,-10c0,0,-42,-11,-74,-29L150,787H101V980c0,0,135,32,230,32c0,0,164,0,247,-68c0,0,82,-69,82,-193c0,0,0,-84,-32,-158c0,0,-33,-75,-100,-148c0,0,-67,-74,-222,-206c0,0,-67,-57,-141,-125H680V0Z" 
id="f1_m"
transform="scale(0.001,-0.001)" />

<path d="M377,45c0,0,99,0,145,108c0,0,46,109,46,352c0,0,0,240,-45,345c0,0,-46,106,-146,106c0,0,-97,0,-139,-100c0,0,-43,-99,-43,-351c0,0,0,-254,44,-357c0,0,43,-103,138,-103Zm0,-59c0,0,-158,0,-238,132c0,0,-81,133,-81,386c0,0,0,249,81,380c0,0,80,132,244,132c0,0,159,0,241,-130c0,0,82,-130,82,-382c0,0,0,-518,-329,-518Z" 
id="f1_k"
transform="scale(0.001,-0.001)" />

<path d="M159,-329c0,0,-61,0,-123,14v180H81l32,-94c0,0,21,-17,55,-17c0,0,28,0,50,13c0,0,21,14,40,39c0,0,20,25,37,62c0,0,17,37,50,110L64,634L15,652v49H374V652L290,632L455,244L602,634l-82,18v49H749V652L698,637L421,-44c0,0,-47,-121,-83,-176c0,0,-36,-55,-80,-82c0,0,-43,-27,-99,-27Z" 
id="f0_2l"
transform="scale(0.001,-0.001)" />

<path d="M868,0L251,900V60L385,40V0H44V40L172,60V941L44,960v40H347L862,259V941L727,960v40h341V960L940,941V0Z" 
id="f1_1e"
transform="scale(0.001,-0.001)" />

<path d="M577,-14c0,0,-243,0,-379,132C198,118,63,250,63,488c0,0,0,258,130,391c0,0,131,132,387,132c0,0,156,0,335,-38l5,-218H871L848,884c0,0,-52,32,-121,50c0,0,-69,17,-141,17c0,0,-191,0,-279,-112c0,0,-88,-113,-88,-349c0,0,0,-217,92,-332c0,0,92,-115,268,-115c0,0,85,0,160,20c0,0,76,21,120,55l27,149h49L930,32c0,0,-164,-46,-353,-46Z" 
id="f1_13"
transform="scale(0.001,-0.001)" />

<path d="M342,-14c0,0,-138,0,-276,29L57,258h69L165,96c0,0,65,-36,136,-36c0,0,90,0,141,58c0,0,50,57,50,161c0,0,0,91,-40,139c0,0,-41,48,-132,54l-87,5v90l84,6c0,0,66,5,98,49c0,0,32,44,32,134c0,0,0,83,-38,131c0,0,-38,48,-107,48c0,0,-40,0,-66,-13c0,0,-26,-12,-49,-26L155,751H90V979c0,0,76,19,132,26c0,0,55,6,108,6c0,0,337,0,337,-246c0,0,0,-102,-54,-164c0,0,-54,-63,-153,-78c0,0,252,-30,252,-251c0,0,0,-136,-98,-211c0,0,-98,-75,-272,-75Z" 
id="f0_n"
transform="scale(0.001,-0.001)" />

<path d="M41,0V49l69,18V634L41,652v49H313l11,-61l50,26c0,0,105,54,188,54c0,0,125,0,167,-91c0,0,153,91,258,91c0,0,189,0,189,-207V67l71,-17V0H898V50l63,17V484c0,0,0,63,-24,98c0,0,-25,35,-74,35c0,0,-55,0,-119,-31c0,0,7,-32,7,-73V67L821,50V0H473V50l63,17V484c0,0,0,63,-25,98c0,0,-24,35,-73,35c0,0,-49,0,-113,-29V67L389,49V0Z" 
id="f0_29"
transform="scale(0.001,-0.001)" />

<path d="M41,0V49l76,18V624H11v51l106,29v75c0,0,0,144,73,220c0,0,73,77,210,77c0,0,74,0,124,-15V894H476l-22,81c0,0,-18,17,-47,17c0,0,-74,0,-74,-189V701H475V624H333V67L447,49V0Z" 
id="f0_22"
transform="scale(0.001,-0.001)" />

<path d="M424,64c0,0,74,0,109,71c0,0,36,72,36,236c0,0,0,137,-34,201c0,0,-34,65,-111,65c0,0,-29,0,-62,-7c0,0,-34,-6,-55,-19V76c0,0,47,-12,117,-12Zm21,-78c0,0,-121,0,-354,50V994l-72,18v48H307V802c0,0,0,-69,-8,-141c0,0,30,25,86,42c0,0,57,17,110,17c0,0,153,0,223,-84c0,0,70,-83,70,-266c0,0,0,-180,-90,-283C698,87,608,-14,445,-14Z" 
id="f0_1y"
transform="scale(0.001,-0.001)" />

<path d="M452,474c0,0,104,0,151,52c0,0,47,53,47,178c0,0,0,119,-45,167c0,0,-44,47,-156,47H390V474ZM36,0V54L154,74V926L26,945v55H467c0,0,213,0,318,-71c0,0,105,-71,105,-224c0,0,0,-313,-366,-313H390V74L557,54V0Z" 
id="f0_1g"
transform="scale(0.001,-0.001)" />

<path d="M276,-14c0,0,-57,0,-125,13C151,-1,83,10,48,23V214H97l28,-98c0,0,26,-26,69,-44c0,0,42,-17,86,-17c0,0,65,0,97,28c0,0,32,28,32,71c0,0,0,41,-31,65c0,0,-30,25,-133,57c0,0,-108,34,-154,92c0,0,-45,58,-45,143c0,0,0,95,71,152c0,0,71,57,183,57c0,0,77,0,207,-22V518H457l-24,82c0,0,-21,22,-60,35c0,0,-40,14,-75,14c0,0,-53,0,-79,-22c0,0,-26,-22,-26,-59c0,0,0,-40,32,-65c0,0,32,-26,132,-55c0,0,109,-34,155,-89c0,0,45,-55,45,-137c0,0,0,-117,-72,-177c0,0,-72,-59,-209,-59Z" 
id="f0_2f"
transform="scale(0.001,-0.001)" />

<path d="M287,-18c0,0,-194,0,-194,206V634L23,652v49H309V217c0,0,0,-63,26,-98c0,0,27,-35,76,-35c0,0,57,0,113,25V634l-64,18v49H740V67L809,49V0H536L526,61L475,35c0,0,-104,-53,-188,-53Z" 
id="f0_2h"
transform="scale(0.001,-0.001)" />

<path d="M46,0c0,0,-2,48,16,93c0,0,27,74,88,146c0,0,61,71,176,165c0,0,178,146,241,232c0,0,63,85,63,161c0,0,0,80,-57,135c0,0,-58,55,-149,55c0,0,-98,0,-156,-59c0,0,-58,-58,-59,-160L71,782c0,0,15,154,107,235c0,0,93,81,249,81c0,0,157,0,249,-87c0,0,92,-88,92,-217c0,0,0,-65,-27,-129c0,0,-27,-63,-89,-133c0,0,-62,-70,-207,-193C445,339,324,238,290,202c0,0,-35,-36,-57,-73H770V0Z" 
id="f2_m"
transform="scale(0.001,-0.001)" />


</defs>
</svg>