<?xml version="1.0" encoding="UTF-8" standalone="no"?>
<!DOCTYPE svg PUBLIC "-//W3C//DTD SVG 1.1//EN"
"http://www.w3.org/Graphics/SVG/1.1/DTD/svg11.dtd">
<svg viewBox="0 0 935 1210" version="1.1" xmlns="http://www.w3.org/2000/svg" xmlns:xlink="http://www.w3.org/1999/xlink">
<defs>
<clipPath id="c0_150"><path d="M0,1210V0H935V1210Z" /></clipPath>
<style type="text/css"><![CDATA[
.g0_150{
}
]]></style>
</defs>
<g clip-path="url(#c0_150)">
<g fill="#000000" >
<use xlink:href="#f0_16" transform="matrix(12,0,0,12,301.9,388.4)" />
<use xlink:href="#f0_25" transform="matrix(12,0,0,12,312.9,388.4)" />
<use xlink:href="#f0_23" transform="matrix(12,0,0,12,318,388.4)" />
<use xlink:href="#f0_i" transform="matrix(12,0,0,12,327.1,388.4)" />
<use xlink:href="#f0_o" transform="matrix(12,0,0,12,336.7,388.4)" />
<use xlink:href="#f0_i" transform="matrix(12,0,0,12,345.8,388.4)" />
<use xlink:href="#f0_1j" transform="matrix(12,0,0,12,355,388.4)" />
<use xlink:href="#f0_2g" transform="matrix(12,0,0,12,365.2,388.4)" />
<use xlink:href="#f0_2e" transform="matrix(12,0,0,12,371.4,388.4)" />
<use xlink:href="#f0_2h" transform="matrix(12,0,0,12,379.1,388.4)" />
<use xlink:href="#f0_1z" transform="matrix(12,0,0,12,389.4,388.4)" />
<use xlink:href="#f0_2g" transform="matrix(12,0,0,12,397.5,388.4)" />
<use xlink:href="#f0_2h" transform="matrix(12,0,0,12,403.7,388.4)" />
<use xlink:href="#f0_2e" transform="matrix(12,0,0,12,413.9,388.4)" />
<use xlink:href="#f0_21" transform="matrix(12,0,0,12,421.6,388.4)" />
<use xlink:href="#f0_2b" transform="matrix(12,0,0,12,434.4,388.4)" />
<use xlink:href="#f0_22" transform="matrix(12,0,0,12,443.6,388.4)" />
<use xlink:href="#f0_21" transform="matrix(12,0,0,12,454.2,388.4)" />
<use xlink:href="#f0_2a" transform="matrix(12,0,0,12,462.3,388.4)" />
<use xlink:href="#f0_20" transform="matrix(12,0,0,12,472.5,388.4)" />
<use xlink:href="#f0_2b" transform="matrix(12,0,0,12,482.8,388.4)" />
<use xlink:href="#f0_2c" transform="matrix(12,0,0,12,492,388.4)" />
<use xlink:href="#f0_28" transform="matrix(12,0,0,12,502.2,388.4)" />
<use xlink:href="#f0_1x" transform="matrix(12,0,0,12,507,388.4)" />
<use xlink:href="#f0_2f" transform="matrix(12,0,0,12,516.1,388.4)" />
<use xlink:href="#f0_29" transform="matrix(12,0,0,12,523.5,388.4)" />
<use xlink:href="#f0_25" transform="matrix(12,0,0,12,538.5,388.4)" />
<use xlink:href="#f0_1z" transform="matrix(12,0,0,12,543.6,388.4)" />
<use xlink:href="#f0_2e" transform="matrix(12,0,0,12,556.8,388.4)" />
<use xlink:href="#f0_21" transform="matrix(12,0,0,12,564.5,388.4)" />
<use xlink:href="#f0_2g" transform="matrix(12,0,0,12,572.6,388.4)" />
<use xlink:href="#f0_25" transform="matrix(12,0,0,12,578.8,388.4)" />
<use xlink:href="#f0_1z" transform="matrix(12,0,0,12,583.9,388.4)" />
<use xlink:href="#f0_2h" transform="matrix(12,0,0,12,592,388.4)" />
<use xlink:href="#f0_28" transform="matrix(12,0,0,12,602.2,388.4)" />
<use xlink:href="#f0_2h" transform="matrix(12,0,0,12,607,388.4)" />
<use xlink:href="#f0_29" transform="matrix(12,0,0,12,617.6,388.4)" />
<use xlink:href="#f1_1g" transform="matrix(12,0,0,12,55,476.5)" />
<use xlink:href="#f1_2e" transform="matrix(12,0,0,12,65.3,476.5)" />
<use xlink:href="#f1_2b" transform="matrix(12,0,0,12,71.2,476.5)" />
<use xlink:href="#f1_2g" transform="matrix(12,0,0,12,80.3,476.5)" />
<use xlink:href="#f1_21" transform="matrix(12,0,0,12,85.8,476.5)" />
<use xlink:href="#f1_25" transform="matrix(12,0,0,12,93.9,476.5)" />
<use xlink:href="#f1_2a" transform="matrix(12,0,0,12,98.6,476.5)" />
<use xlink:href="#f1_2f" transform="matrix(12,0,0,12,107.8,476.5)" />
<use xlink:href="#f1_2f" transform="matrix(12,0,0,12,119.5,476.5)" />
<use xlink:href="#f1_2l" transform="matrix(12,0,0,12,126.8,476.5)" />
<use xlink:href="#f1_2a" transform="matrix(12,0,0,12,135.6,476.5)" />
<use xlink:href="#f1_2g" transform="matrix(12,0,0,12,144.4,476.5)" />
<use xlink:href="#f1_24" transform="matrix(12,0,0,12,150.3,476.5)" />
<use xlink:href="#f1_21" transform="matrix(12,0,0,12,159.1,476.5)" />
<use xlink:href="#f1_2f" transform="matrix(12,0,0,12,167.5,476.5)" />
<use xlink:href="#f1_25" transform="matrix(12,0,0,12,174.8,476.5)" />
<use xlink:href="#f1_2m" transform="matrix(12,0,0,12,179.6,476.5)" />
<use xlink:href="#f1_21" transform="matrix(12,0,0,12,187.6,476.5)" />
<use xlink:href="#f1_20" transform="matrix(12,0,0,12,195.7,476.5)" />
<use xlink:href="#f1_1y" transform="matrix(12,0,0,12,210,476.5)" />
<use xlink:href="#f1_2l" transform="matrix(12,0,0,12,219.2,476.5)" />
<use xlink:href="#f1_2e" transform="matrix(12,0,0,12,232.3,476.5)" />
<use xlink:href="#f1_25" transform="matrix(12,0,0,12,238.9,476.5)" />
<use xlink:href="#f1_1y" transform="matrix(12,0,0,12,243.7,476.5)" />
<use xlink:href="#f1_2b" transform="matrix(12,0,0,12,252.5,476.5)" />
<use xlink:href="#f1_2f" transform="matrix(12,0,0,12,262,476.5)" />
<use xlink:href="#f1_2b" transform="matrix(12,0,0,12,269,476.5)" />
<use xlink:href="#f1_29" transform="matrix(12,0,0,12,278.9,476.5)" />
<use xlink:href="#f1_21" transform="matrix(12,0,0,12,292.4,476.5)" />
<use xlink:href="#f1_2f" transform="matrix(12,0,0,12,300.8,476.5)" />
<use xlink:href="#f1_1x" transform="matrix(12,0,0,12,312.5,476.5)" />
<use xlink:href="#f1_2f" transform="matrix(12,0,0,12,320.6,476.5)" />
<use xlink:href="#f1_2f" transform="matrix(12,0,0,12,327.9,476.5)" />
<use xlink:href="#f1_2b" transform="matrix(12,0,0,12,334.9,476.5)" />
<use xlink:href="#f1_1z" transform="matrix(12,0,0,12,344.4,476.5)" />
<use xlink:href="#f1_25" transform="matrix(12,0,0,12,352.8,476.5)" />
<use xlink:href="#f1_1x" transform="matrix(12,0,0,12,357.2,476.5)" />
<use xlink:href="#f1_2g" transform="matrix(12,0,0,12,365.3,476.5)" />
<use xlink:href="#f1_21" transform="matrix(12,0,0,12,370.8,476.5)" />
<use xlink:href="#f1_20" transform="matrix(12,0,0,12,378.8,476.5)" />
<use xlink:href="#f1_2j" transform="matrix(12,0,0,12,392.8,476.5)" />
<use xlink:href="#f1_25" transform="matrix(12,0,0,12,406.3,476.5)" />
<use xlink:href="#f1_2g" transform="matrix(12,0,0,12,410.7,476.5)" />
<use xlink:href="#f1_24" transform="matrix(12,0,0,12,416.2,476.5)" />
<use xlink:href="#f1_2g" transform="matrix(12,0,0,12,429.7,476.5)" />
<use xlink:href="#f1_24" transform="matrix(12,0,0,12,435.2,476.5)" />
<use xlink:href="#f1_21" transform="matrix(12,0,0,12,444,476.5)" />
<use xlink:href="#f1_29" transform="matrix(12,0,0,12,457.2,476.5)" />
<use xlink:href="#f1_21" transform="matrix(12,0,0,12,470.8,476.5)" />
<use xlink:href="#f1_29" transform="matrix(12,0,0,12,479.2,476.5)" />
<use xlink:href="#f1_1y" transform="matrix(12,0,0,12,493.1,476.5)" />
<use xlink:href="#f1_2e" transform="matrix(12,0,0,12,501.9,476.5)" />
<use xlink:href="#f1_1x" transform="matrix(12,0,0,12,508.5,476.5)" />
<use xlink:href="#f1_2a" transform="matrix(12,0,0,12,517.6,476.5)" />
<use xlink:href="#f1_21" transform="matrix(12,0,0,12,526.4,476.5)" />
<use xlink:href="#f1_2b" transform="matrix(12,0,0,12,539.2,476.5)" />
<use xlink:href="#f1_22" transform="matrix(12,0,0,12,548.7,476.5)" />
<use xlink:href="#f1_1i" transform="matrix(12,0,0,12,558.9,476.5)" />
<use xlink:href="#f1_15" transform="matrix(12,0,0,12,571,476.5)" />
<use xlink:href="#f1_1i" transform="matrix(12,0,0,12,582.4,476.5)" />
<use xlink:href="#f1_21" transform="matrix(12,0,0,12,599.2,476.5)" />
<use xlink:href="#f1_2a" transform="matrix(12,0,0,12,607.6,476.5)" />
<use xlink:href="#f1_2g" transform="matrix(12,0,0,12,616.4,476.5)" />
<use xlink:href="#f1_21" transform="matrix(12,0,0,12,621.9,476.5)" />
<use xlink:href="#f1_2e" transform="matrix(12,0,0,12,630,476.5)" />
<use xlink:href="#f1_25" transform="matrix(12,0,0,12,641,476.5)" />
<use xlink:href="#f1_2a" transform="matrix(12,0,0,12,645.7,476.5)" />
<use xlink:href="#f1_2g" transform="matrix(12,0,0,12,654.5,476.5)" />
<use xlink:href="#f1_2b" transform="matrix(12,0,0,12,660,476.5)" />
<use xlink:href="#f1_2g" transform="matrix(12,0,0,12,673.9,476.5)" />
<use xlink:href="#f1_24" transform="matrix(12,0,0,12,679.4,476.5)" />
<use xlink:href="#f1_21" transform="matrix(12,0,0,12,688.2,476.5)" />
<use xlink:href="#f1_28" transform="matrix(12,0,0,12,701.4,476.5)" />
<use xlink:href="#f1_2h" transform="matrix(12,0,0,12,705.8,476.5)" />
<use xlink:href="#f1_29" transform="matrix(12,0,0,12,715.3,476.5)" />
<use xlink:href="#f1_21" transform="matrix(12,0,0,12,729.2,476.5)" />
<use xlink:href="#f1_2a" transform="matrix(12,0,0,12,737.6,476.5)" />
<use xlink:href="#f1_1x" transform="matrix(12,0,0,12,751.2,476.5)" />
<use xlink:href="#f1_2a" transform="matrix(12,0,0,12,759.3,476.5)" />
<use xlink:href="#f1_20" transform="matrix(12,0,0,12,768.1,476.5)" />
<use xlink:href="#f1_29" transform="matrix(12,0,0,12,782.3,476.5)" />
<use xlink:href="#f1_21" transform="matrix(12,0,0,12,796.3,476.5)" />
<use xlink:href="#f1_29" transform="matrix(12,0,0,12,804.7,476.5)" />
<use xlink:href="#f1_1y" transform="matrix(12,0,0,12,818.6,476.5)" />
<use xlink:href="#f1_2e" transform="matrix(12,0,0,12,827.8,476.5)" />
<use xlink:href="#f1_1x" transform="matrix(12,0,0,12,834,476.5)" />
<use xlink:href="#f1_2a" transform="matrix(12,0,0,12,842.4,476.5)" />
<use xlink:href="#f1_21" transform="matrix(12,0,0,12,851.2,476.5)" />
<use xlink:href="#f1_2b" transform="matrix(12,0,0,12,864,476.5)" />
<use xlink:href="#f1_22" transform="matrix(12,0,0,12,873.9,476.5)" />
<use xlink:href="#f1_1i" transform="matrix(12,0,0,12,55,508)" />
<use xlink:href="#f1_15" transform="matrix(12,0,0,12,67.1,508)" />
<use xlink:href="#f1_1i" transform="matrix(12,0,0,12,78.5,508)" />
<use xlink:href="#f1_1y" transform="matrix(12,0,0,12,96.8,508)" />
<use xlink:href="#f1_2l" transform="matrix(12,0,0,12,106,508)" />
<use xlink:href="#f1_2g" transform="matrix(12,0,0,12,120.6,508)" />
<use xlink:href="#f1_24" transform="matrix(12,0,0,12,126.1,508)" />
<use xlink:href="#f1_21" transform="matrix(12,0,0,12,134.9,508)" />
<use xlink:href="#f1_2c" transform="matrix(12,0,0,12,149.2,508)" />
<use xlink:href="#f1_2e" transform="matrix(12,0,0,12,158.3,508)" />
<use xlink:href="#f1_2b" transform="matrix(12,0,0,12,164.2,508)" />
<use xlink:href="#f1_1z" transform="matrix(12,0,0,12,173.7,508)" />
<use xlink:href="#f1_21" transform="matrix(12,0,0,12,181.8,508)" />
<use xlink:href="#f1_2f" transform="matrix(12,0,0,12,189.9,508)" />
<use xlink:href="#f1_2f" transform="matrix(12,0,0,12,196.8,508)" />
<use xlink:href="#f1_2b" transform="matrix(12,0,0,12,209.6,508)" />
<use xlink:href="#f1_22" transform="matrix(12,0,0,12,219.2,508)" />
<use xlink:href="#f1_1z" transform="matrix(12,0,0,12,230.9,508)" />
<use xlink:href="#f1_2b" transform="matrix(12,0,0,12,238.9,508)" />
<use xlink:href="#f1_h" transform="matrix(12,0,0,12,248.7,508)" />
<use xlink:href="#f1_2g" transform="matrix(12,0,0,12,254.6,508)" />
<use xlink:href="#f1_2e" transform="matrix(12,0,0,12,259.7,508)" />
<use xlink:href="#f1_1x" transform="matrix(12,0,0,12,265.9,508)" />
<use xlink:href="#f1_2a" transform="matrix(12,0,0,12,274,508)" />
<use xlink:href="#f1_2f" transform="matrix(12,0,0,12,282.8,508)" />
<use xlink:href="#f1_28" transform="matrix(12,0,0,12,290.1,508)" />
<use xlink:href="#f1_1x" transform="matrix(12,0,0,12,294.9,508)" />
<use xlink:href="#f1_2g" transform="matrix(12,0,0,12,302.9,508)" />
<use xlink:href="#f1_25" transform="matrix(12,0,0,12,308.8,508)" />
<use xlink:href="#f1_2b" transform="matrix(12,0,0,12,313.2,508)" />
<use xlink:href="#f1_2a" transform="matrix(12,0,0,12,322.7,508)" />
<use xlink:href="#f1_1x" transform="matrix(12,0,0,12,331.5,508)" />
<use xlink:href="#f1_28" transform="matrix(12,0,0,12,339.9,508)" />
<use xlink:href="#f1_2g" transform="matrix(12,0,0,12,350.5,508)" />
<use xlink:href="#f1_2e" transform="matrix(12,0,0,12,356,508)" />
<use xlink:href="#f1_1x" transform="matrix(12,0,0,12,362.2,508)" />
<use xlink:href="#f1_2a" transform="matrix(12,0,0,12,370.3,508)" />
<use xlink:href="#f1_2f" transform="matrix(12,0,0,12,379.1,508)" />
<use xlink:href="#f1_28" transform="matrix(12,0,0,12,386.4,508)" />
<use xlink:href="#f1_2b" transform="matrix(12,0,0,12,390.8,508)" />
<use xlink:href="#f1_1z" transform="matrix(12,0,0,12,400.3,508)" />
<use xlink:href="#f1_1x" transform="matrix(12,0,0,12,408.4,508)" />
<use xlink:href="#f1_2g" transform="matrix(12,0,0,12,416.5,508)" />
<use xlink:href="#f1_25" transform="matrix(12,0,0,12,422.3,508)" />
<use xlink:href="#f1_2b" transform="matrix(12,0,0,12,427.1,508)" />
<use xlink:href="#f1_2a" transform="matrix(12,0,0,12,436.6,508)" />
<use xlink:href="#f1_i" transform="matrix(12,0,0,12,445.4,508)" />
<use xlink:href="#f1_19" transform="matrix(12,0,0,12,456.3,508)" />
<use xlink:href="#f1_2a" transform="matrix(12,0,0,12,462.5,508)" />
<use xlink:href="#f1_2g" transform="matrix(12,0,0,12,477.2,508)" />
<use xlink:href="#f1_24" transform="matrix(12,0,0,12,482.7,508)" />
<use xlink:href="#f1_21" transform="matrix(12,0,0,12,491.5,508)" />
<use xlink:href="#f1_28" transform="matrix(12,0,0,12,505.7,508)" />
<use xlink:href="#f1_2h" transform="matrix(12,0,0,12,510.1,508)" />
<use xlink:href="#f1_29" transform="matrix(12,0,0,12,519.7,508)" />
<use xlink:href="#f1_21" transform="matrix(12,0,0,12,533.6,508)" />
<use xlink:href="#f1_2a" transform="matrix(12,0,0,12,542,508)" />
<use xlink:href="#f1_2b" transform="matrix(12,0,0,12,557,508)" />
<use xlink:href="#f1_22" transform="matrix(12,0,0,12,566.5,508)" />
<use xlink:href="#f1_2g" transform="matrix(12,0,0,12,578.3,508)" />
<use xlink:href="#f1_24" transform="matrix(12,0,0,12,583.7,508)" />
<use xlink:href="#f1_21" transform="matrix(12,0,0,12,592.5,508)" />
<use xlink:href="#f1_1i" transform="matrix(12,0,0,12,606.8,508)" />
<use xlink:href="#f1_15" transform="matrix(12,0,0,12,618.9,508)" />
<use xlink:href="#f1_1i" transform="matrix(12,0,0,12,630.3,508)" />
<use xlink:href="#f1_g" transform="matrix(12,0,0,12,642.4,508)" />
<use xlink:href="#f1_22" transform="matrix(12,0,0,12,653,508)" />
<use xlink:href="#f1_25" transform="matrix(12,0,0,12,658.8,508)" />
<use xlink:href="#f1_2i" transform="matrix(12,0,0,12,663.6,508)" />
<use xlink:href="#f1_21" transform="matrix(12,0,0,12,672.4,508)" />
<use xlink:href="#f1_2c" transform="matrix(12,0,0,12,686.7,508)" />
<use xlink:href="#f1_2e" transform="matrix(12,0,0,12,695.9,508)" />
<use xlink:href="#f1_25" transform="matrix(12,0,0,12,702.4,508)" />
<use xlink:href="#f1_2a" transform="matrix(12,0,0,12,707.2,508)" />
<use xlink:href="#f1_1z" transform="matrix(12,0,0,12,716,508)" />
<use xlink:href="#f1_25" transform="matrix(12,0,0,12,724.4,508)" />
<use xlink:href="#f1_2c" transform="matrix(12,0,0,12,729.2,508)" />
<use xlink:href="#f1_1x" transform="matrix(12,0,0,12,738.4,508)" />
<use xlink:href="#f1_28" transform="matrix(12,0,0,12,746.8,508)" />
<use xlink:href="#f1_29" transform="matrix(12,0,0,12,757.8,508)" />
<use xlink:href="#f1_2b" transform="matrix(12,0,0,12,771.3,508)" />
<use xlink:href="#f1_20" transform="matrix(12,0,0,12,780.8,508)" />
<use xlink:href="#f1_25" transform="matrix(12,0,0,12,790.4,508)" />
<use xlink:href="#f1_22" transform="matrix(12,0,0,12,795.1,508)" />
<use xlink:href="#f1_25" transform="matrix(12,0,0,12,801.3,508)" />
<use xlink:href="#f1_1z" transform="matrix(12,0,0,12,806.1,508)" />
<use xlink:href="#f1_1x" transform="matrix(12,0,0,12,814.2,508)" />
<use xlink:href="#f1_2g" transform="matrix(12,0,0,12,822.2,508)" />
<use xlink:href="#f1_25" transform="matrix(12,0,0,12,828.1,508)" />
<use xlink:href="#f1_2b" transform="matrix(12,0,0,12,832.5,508)" />
<use xlink:href="#f1_2a" transform="matrix(12,0,0,12,842,508)" />
<use xlink:href="#f1_2f" transform="matrix(12,0,0,12,850.8,508)" />
<use xlink:href="#f1_2b" transform="matrix(12,0,0,12,864,508)" />
<use xlink:href="#f1_22" transform="matrix(12,0,0,12,873.9,508)" />
<use xlink:href="#f1_2c" transform="matrix(12,0,0,12,55,539.5)" />
<use xlink:href="#f1_2e" transform="matrix(12,0,0,12,64.2,539.5)" />
<use xlink:href="#f1_2b" transform="matrix(12,0,0,12,70.4,539.5)" />
<use xlink:href="#f1_2g" transform="matrix(12,0,0,12,79.6,539.5)" />
<use xlink:href="#f1_21" transform="matrix(12,0,0,12,85.1,539.5)" />
<use xlink:href="#f1_25" transform="matrix(12,0,0,12,93.1,539.5)" />
<use xlink:href="#f1_2a" transform="matrix(12,0,0,12,97.9,539.5)" />
<use xlink:href="#f1_2f" transform="matrix(12,0,0,12,106.7,539.5)" />
<use xlink:href="#f1_2b" transform="matrix(12,0,0,12,119.9,539.5)" />
<use xlink:href="#f1_1z" transform="matrix(12,0,0,12,129.4,539.5)" />
<use xlink:href="#f1_1z" transform="matrix(12,0,0,12,137.5,539.5)" />
<use xlink:href="#f1_2h" transform="matrix(12,0,0,12,145.5,539.5)" />
<use xlink:href="#f1_2e" transform="matrix(12,0,0,12,154.7,539.5)" />
<use xlink:href="#f1_1y" transform="matrix(12,0,0,12,167.1,539.5)" />
<use xlink:href="#f1_21" transform="matrix(12,0,0,12,175.9,539.5)" />
<use xlink:href="#f1_22" transform="matrix(12,0,0,12,184.3,539.5)" />
<use xlink:href="#f1_2b" transform="matrix(12,0,0,12,189.8,539.5)" />
<use xlink:href="#f1_2e" transform="matrix(12,0,0,12,199.4,539.5)" />
<use xlink:href="#f1_21" transform="matrix(12,0,0,12,205.6,539.5)" />
<use xlink:href="#f1_2g" transform="matrix(12,0,0,12,219.5,539.5)" />
<use xlink:href="#f1_24" transform="matrix(12,0,0,12,225,539.5)" />
<use xlink:href="#f1_21" transform="matrix(12,0,0,12,233.8,539.5)" />
<use xlink:href="#f1_2l" transform="matrix(12,0,0,12,242.2,539.5)" />
<use xlink:href="#f1_2e" transform="matrix(12,0,0,12,256.8,539.5)" />
<use xlink:href="#f1_21" transform="matrix(12,0,0,12,263,539.5)" />
<use xlink:href="#f1_1x" transform="matrix(12,0,0,12,271.1,539.5)" />
<use xlink:href="#f1_1z" transform="matrix(12,0,0,12,279.2,539.5)" />
<use xlink:href="#f1_24" transform="matrix(12,0,0,12,287.6,539.5)" />
<use xlink:href="#f1_2g" transform="matrix(12,0,0,12,302.6,539.5)" />
<use xlink:href="#f1_24" transform="matrix(12,0,0,12,308.1,539.5)" />
<use xlink:href="#f1_21" transform="matrix(12,0,0,12,316.9,539.5)" />
<use xlink:href="#f1_25" transform="matrix(12,0,0,12,325.3,539.5)" />
<use xlink:href="#f1_2e" transform="matrix(12,0,0,12,329.7,539.5)" />
<use xlink:href="#f1_22" transform="matrix(12,0,0,12,342.5,539.5)" />
<use xlink:href="#f1_25" transform="matrix(12,0,0,12,348.4,539.5)" />
<use xlink:href="#f1_2a" transform="matrix(12,0,0,12,353.1,539.5)" />
<use xlink:href="#f1_1x" transform="matrix(12,0,0,12,362.3,539.5)" />
<use xlink:href="#f1_28" transform="matrix(12,0,0,12,370.7,539.5)" />
<use xlink:href="#f1_20" transform="matrix(12,0,0,12,381.3,539.5)" />
<use xlink:href="#f1_21" transform="matrix(12,0,0,12,390.5,539.5)" />
<use xlink:href="#f1_2f" transform="matrix(12,0,0,12,398.9,539.5)" />
<use xlink:href="#f1_2g" transform="matrix(12,0,0,12,405.9,539.5)" />
<use xlink:href="#f1_25" transform="matrix(12,0,0,12,411.4,539.5)" />
<use xlink:href="#f1_2a" transform="matrix(12,0,0,12,416.1,539.5)" />
<use xlink:href="#f1_1x" transform="matrix(12,0,0,12,425.3,539.5)" />
<use xlink:href="#f1_2g" transform="matrix(12,0,0,12,433.4,539.5)" />
<use xlink:href="#f1_25" transform="matrix(12,0,0,12,438.8,539.5)" />
<use xlink:href="#f1_2b" transform="matrix(12,0,0,12,443.2,539.5)" />
<use xlink:href="#f1_2a" transform="matrix(12,0,0,12,452.8,539.5)" />
<use xlink:href="#f1_h" transform="matrix(12,0,0,12,462.2,539.5)" />
<use xlink:href="#f1_1x" transform="matrix(12,0,0,12,468.4,539.5)" />
<use xlink:href="#f1_20" transform="matrix(12,0,0,12,476.5,539.5)" />
<use xlink:href="#f1_20" transform="matrix(12,0,0,12,485.7,539.5)" />
<use xlink:href="#f1_25" transform="matrix(12,0,0,12,495.2,539.5)" />
<use xlink:href="#f1_2g" transform="matrix(12,0,0,12,499.6,539.5)" />
<use xlink:href="#f1_25" transform="matrix(12,0,0,12,505.4,539.5)" />
<use xlink:href="#f1_2b" transform="matrix(12,0,0,12,509.8,539.5)" />
<use xlink:href="#f1_2a" transform="matrix(12,0,0,12,519.3,539.5)" />
<use xlink:href="#f1_1x" transform="matrix(12,0,0,12,534.3,539.5)" />
<use xlink:href="#f1_2a" transform="matrix(12,0,0,12,542.8,539.5)" />
<use xlink:href="#f1_20" transform="matrix(12,0,0,12,551.6,539.5)" />
<use xlink:href="#f1_2c" transform="matrix(12,0,0,12,566.9,539.5)" />
<use xlink:href="#f1_2e" transform="matrix(12,0,0,12,576.1,539.5)" />
<use xlink:href="#f1_2b" transform="matrix(12,0,0,12,582.3,539.5)" />
<use xlink:href="#f1_1z" transform="matrix(12,0,0,12,591.8,539.5)" />
<use xlink:href="#f1_21" transform="matrix(12,0,0,12,599.9,539.5)" />
<use xlink:href="#f1_2f" transform="matrix(12,0,0,12,608,539.5)" />
<use xlink:href="#f1_2f" transform="matrix(12,0,0,12,614.9,539.5)" />
<use xlink:href="#f1_25" transform="matrix(12,0,0,12,622.3,539.5)" />
<use xlink:href="#f1_2a" transform="matrix(12,0,0,12,627,539.5)" />
<use xlink:href="#f1_23" transform="matrix(12,0,0,12,635.8,539.5)" />
<use xlink:href="#f1_2b" transform="matrix(12,0,0,12,651.2,539.5)" />
<use xlink:href="#f1_22" transform="matrix(12,0,0,12,660.7,539.5)" />
<use xlink:href="#f1_1z" transform="matrix(12,0,0,12,672.4,539.5)" />
<use xlink:href="#f1_1x" transform="matrix(12,0,0,12,680.5,539.5)" />
<use xlink:href="#f1_2e" transform="matrix(12,0,0,12,688.6,539.5)" />
<use xlink:href="#f1_1y" transform="matrix(12,0,0,12,695.1,539.5)" />
<use xlink:href="#f1_2b" transform="matrix(12,0,0,12,703.9,539.5)" />
<use xlink:href="#f1_24" transform="matrix(12,0,0,12,713.5,539.5)" />
<use xlink:href="#f1_2l" transform="matrix(12,0,0,12,722.6,539.5)" />
<use xlink:href="#f1_20" transform="matrix(12,0,0,12,731.4,539.5)" />
<use xlink:href="#f1_2e" transform="matrix(12,0,0,12,740.6,539.5)" />
<use xlink:href="#f1_1x" transform="matrix(12,0,0,12,746.8,539.5)" />
<use xlink:href="#f1_2g" transform="matrix(12,0,0,12,754.9,539.5)" />
<use xlink:href="#f1_21" transform="matrix(12,0,0,12,760.4,539.5)" />
<use xlink:href="#f1_2f" transform="matrix(12,0,0,12,768.4,539.5)" />
<use xlink:href="#f1_g" transform="matrix(12,0,0,12,775.4,539.5)" />
<use xlink:href="#f1_22" transform="matrix(12,0,0,12,786.8,539.5)" />
<use xlink:href="#f1_2b" transform="matrix(12,0,0,12,792.7,539.5)" />
<use xlink:href="#f1_2e" transform="matrix(12,0,0,12,802.2,539.5)" />
<use xlink:href="#f1_29" transform="matrix(12,0,0,12,808.4,539.5)" />
<use xlink:href="#f1_1x" transform="matrix(12,0,0,12,822,539.5)" />
<use xlink:href="#f1_2g" transform="matrix(12,0,0,12,830,539.5)" />
<use xlink:href="#f1_25" transform="matrix(12,0,0,12,835.5,539.5)" />
<use xlink:href="#f1_2b" transform="matrix(12,0,0,12,839.9,539.5)" />
<use xlink:href="#f1_2a" transform="matrix(12,0,0,12,849.4,539.5)" />
<use xlink:href="#f1_2b" transform="matrix(12,0,0,12,864.4,539.5)" />
<use xlink:href="#f1_22" transform="matrix(12,0,0,12,874.3,539.5)" />
<use xlink:href="#f1_20" transform="matrix(12,0,0,12,55,571.1)" />
<use xlink:href="#f1_25" transform="matrix(12,0,0,12,64.6,571.1)" />
<use xlink:href="#f1_2f" transform="matrix(12,0,0,12,69,571.1)" />
<use xlink:href="#f1_2h" transform="matrix(12,0,0,12,75.9,571.1)" />
<use xlink:href="#f1_28" transform="matrix(12,0,0,12,85.4,571.1)" />
<use xlink:href="#f1_22" transform="matrix(12,0,0,12,90.5,571.1)" />
<use xlink:href="#f1_25" transform="matrix(12,0,0,12,96.8,571.1)" />
<use xlink:href="#f1_20" transform="matrix(12,0,0,12,101.5,571.1)" />
<use xlink:href="#f1_21" transform="matrix(12,0,0,12,110.7,571.1)" />
<use xlink:href="#f1_1y" transform="matrix(12,0,0,12,124.6,571.1)" />
<use xlink:href="#f1_2b" transform="matrix(12,0,0,12,133.4,571.1)" />
<use xlink:href="#f1_2a" transform="matrix(12,0,0,12,142.9,571.1)" />
<use xlink:href="#f1_20" transform="matrix(12,0,0,12,151.7,571.1)" />
<use xlink:href="#f1_2f" transform="matrix(12,0,0,12,160.9,571.1)" />
<use xlink:href="#f1_g" transform="matrix(12,0,0,12,167.9,571.1)" />
<use xlink:href="#f1_2c" transform="matrix(12,0,0,12,178.1,571.1)" />
<use xlink:href="#f1_2e" transform="matrix(12,0,0,12,187.3,571.1)" />
<use xlink:href="#f1_2b" transform="matrix(12,0,0,12,193.5,571.1)" />
<use xlink:href="#f1_2c" transform="matrix(12,0,0,12,203,571.1)" />
<use xlink:href="#f1_21" transform="matrix(12,0,0,12,212.2,571.1)" />
<use xlink:href="#f1_2e" transform="matrix(12,0,0,12,220.2,571.1)" />
<use xlink:href="#f1_22" transform="matrix(12,0,0,12,231.6,571.1)" />
<use xlink:href="#f1_2b" transform="matrix(12,0,0,12,237.1,571.1)" />
<use xlink:href="#f1_28" transform="matrix(12,0,0,12,247,571.1)" />
<use xlink:href="#f1_20" transform="matrix(12,0,0,12,251.4,571.1)" />
<use xlink:href="#f1_25" transform="matrix(12,0,0,12,260.9,571.1)" />
<use xlink:href="#f1_2a" transform="matrix(12,0,0,12,265.7,571.1)" />
<use xlink:href="#f1_23" transform="matrix(12,0,0,12,274.8,571.1)" />
<use xlink:href="#f1_g" transform="matrix(12,0,0,12,284,571.1)" />
<use xlink:href="#f1_2f" transform="matrix(12,0,0,12,294.2,571.1)" />
<use xlink:href="#f1_2c" transform="matrix(12,0,0,12,301.2,571.1)" />
<use xlink:href="#f1_21" transform="matrix(12,0,0,12,310.3,571.1)" />
<use xlink:href="#f1_1z" transform="matrix(12,0,0,12,318.4,571.1)" />
<use xlink:href="#f1_25" transform="matrix(12,0,0,12,326.8,571.1)" />
<use xlink:href="#f1_22" transform="matrix(12,0,0,12,331.6,571.1)" />
<use xlink:href="#f1_25" transform="matrix(12,0,0,12,337.8,571.1)" />
<use xlink:href="#f1_1z" transform="matrix(12,0,0,12,342.6,571.1)" />
<use xlink:href="#f1_2c" transform="matrix(12,0,0,12,356.1,571.1)" />
<use xlink:href="#f1_2e" transform="matrix(12,0,0,12,365.3,571.1)" />
<use xlink:href="#f1_2b" transform="matrix(12,0,0,12,371.5,571.1)" />
<use xlink:href="#f1_2g" transform="matrix(12,0,0,12,381,571.1)" />
<use xlink:href="#f1_21" transform="matrix(12,0,0,12,386.5,571.1)" />
<use xlink:href="#f1_2b" transform="matrix(12,0,0,12,394.2,571.1)" />
<use xlink:href="#f1_28" transform="matrix(12,0,0,12,403.7,571.1)" />
<use xlink:href="#f1_2l" transform="matrix(12,0,0,12,408.5,571.1)" />
<use xlink:href="#f1_2g" transform="matrix(12,0,0,12,416.9,571.1)" />
<use xlink:href="#f1_25" transform="matrix(12,0,0,12,422.8,571.1)" />
<use xlink:href="#f1_1z" transform="matrix(12,0,0,12,427.5,571.1)" />
<use xlink:href="#f1_1z" transform="matrix(12,0,0,12,441.1,571.1)" />
<use xlink:href="#f1_28" transform="matrix(12,0,0,12,449.5,571.1)" />
<use xlink:href="#f1_21" transform="matrix(12,0,0,12,453.9,571.1)" />
<use xlink:href="#f1_1x" transform="matrix(12,0,0,12,462,571.1)" />
<use xlink:href="#f1_2i" transform="matrix(12,0,0,12,470.4,571.1)" />
<use xlink:href="#f1_1x" transform="matrix(12,0,0,12,479.5,571.1)" />
<use xlink:href="#f1_23" transform="matrix(12,0,0,12,487.6,571.1)" />
<use xlink:href="#f1_21" transform="matrix(12,0,0,12,496.8,571.1)" />
<use xlink:href="#f1_2f" transform="matrix(12,0,0,12,504.8,571.1)" />
<use xlink:href="#f1_1x" transform="matrix(12,0,0,12,517.3,571.1)" />
<use xlink:href="#f1_2a" transform="matrix(12,0,0,12,525.7,571.1)" />
<use xlink:href="#f1_20" transform="matrix(12,0,0,12,534.5,571.1)" />
<use xlink:href="#f1_1x" transform="matrix(12,0,0,12,549.2,571.1)" />
<use xlink:href="#f1_2f" transform="matrix(12,0,0,12,557.2,571.1)" />
<use xlink:href="#f1_2f" transform="matrix(12,0,0,12,564.5,571.1)" />
<use xlink:href="#f1_21" transform="matrix(12,0,0,12,571.5,571.1)" />
<use xlink:href="#f1_29" transform="matrix(12,0,0,12,579.9,571.1)" />
<use xlink:href="#f1_1y" transform="matrix(12,0,0,12,593.9,571.1)" />
<use xlink:href="#f1_28" transform="matrix(12,0,0,12,603.4,571.1)" />
<use xlink:href="#f1_2l" transform="matrix(12,0,0,12,608.5,571.1)" />
<use xlink:href="#f1_25" transform="matrix(12,0,0,12,622.8,571.1)" />
<use xlink:href="#f1_2a" transform="matrix(12,0,0,12,627.5,571.1)" />
<use xlink:href="#f1_2g" transform="matrix(12,0,0,12,636.3,571.1)" />
<use xlink:href="#f1_2b" transform="matrix(12,0,0,12,641.8,571.1)" />
<use xlink:href="#f1_29" transform="matrix(12,0,0,12,657.2,571.1)" />
<use xlink:href="#f1_2h" transform="matrix(12,0,0,12,670.8,571.1)" />
<use xlink:href="#f1_28" transform="matrix(12,0,0,12,680.3,571.1)" />
<use xlink:href="#f1_2g" transform="matrix(12,0,0,12,684.7,571.1)" />
<use xlink:href="#f1_25" transform="matrix(12,0,0,12,690.5,571.1)" />
<use xlink:href="#f1_29" transform="matrix(12,0,0,12,695.3,571.1)" />
<use xlink:href="#f1_21" transform="matrix(12,0,0,12,709.2,571.1)" />
<use xlink:href="#f1_2e" transform="matrix(12,0,0,12,717.3,571.1)" />
<use xlink:href="#f1_25" transform="matrix(12,0,0,12,723.9,571.1)" />
<use xlink:href="#f1_1z" transform="matrix(12,0,0,12,728.6,571.1)" />
<use xlink:href="#f1_2c" transform="matrix(12,0,0,12,742.2,571.1)" />
<use xlink:href="#f1_2e" transform="matrix(12,0,0,12,751.4,571.1)" />
<use xlink:href="#f1_2b" transform="matrix(12,0,0,12,757.6,571.1)" />
<use xlink:href="#f1_2g" transform="matrix(12,0,0,12,766.7,571.1)" />
<use xlink:href="#f1_21" transform="matrix(12,0,0,12,772.2,571.1)" />
<use xlink:href="#f1_25" transform="matrix(12,0,0,12,780.3,571.1)" />
<use xlink:href="#f1_2a" transform="matrix(12,0,0,12,785.1,571.1)" />
<use xlink:href="#f1_2f" transform="matrix(12,0,0,12,794.2,571.1)" />
<use xlink:href="#f1_i" transform="matrix(12,0,0,12,801.5,571.1)" />
<use xlink:href="#f1_1k" transform="matrix(12,0,0,12,811.8,571.1)" />
<use xlink:href="#f1_24" transform="matrix(12,0,0,12,823.1,571.1)" />
<use xlink:href="#f1_21" transform="matrix(12,0,0,12,831.9,571.1)" />
<use xlink:href="#f1_1j" transform="matrix(12,0,0,12,845.5,571.1)" />
<use xlink:href="#f1_15" transform="matrix(12,0,0,12,855.7,571.1)" />
<use xlink:href="#f1_1i" transform="matrix(12,0,0,12,867.1,571.1)" />
<use xlink:href="#f1_24" transform="matrix(12,0,0,12,55,603)" />
<use xlink:href="#f1_1x" transform="matrix(12,0,0,12,63.8,603)" />
<use xlink:href="#f1_2i" transform="matrix(12,0,0,12,72.3,603)" />
<use xlink:href="#f1_21" transform="matrix(12,0,0,12,81.1,603)" />
<use xlink:href="#f1_20" transform="matrix(12,0,0,12,93.9,603)" />
<use xlink:href="#f1_25" transform="matrix(12,0,0,12,103.4,603)" />
<use xlink:href="#f1_22" transform="matrix(12,0,0,12,108.1,603)" />
<use xlink:href="#f1_22" transform="matrix(12,0,0,12,114.4,603)" />
<use xlink:href="#f1_21" transform="matrix(12,0,0,12,120.2,603)" />
<use xlink:href="#f1_2e" transform="matrix(12,0,0,12,128.3,603)" />
<use xlink:href="#f1_21" transform="matrix(12,0,0,12,134.5,603)" />
<use xlink:href="#f1_2a" transform="matrix(12,0,0,12,142.9,603)" />
<use xlink:href="#f1_2g" transform="matrix(12,0,0,12,151.7,603)" />
<use xlink:href="#f1_22" transform="matrix(12,0,0,12,162,603)" />
<use xlink:href="#f1_2h" transform="matrix(12,0,0,12,167.5,603)" />
<use xlink:href="#f1_2a" transform="matrix(12,0,0,12,177,603)" />
<use xlink:href="#f1_1z" transform="matrix(12,0,0,12,185.8,603)" />
<use xlink:href="#f1_2g" transform="matrix(12,0,0,12,193.8,603)" />
<use xlink:href="#f1_25" transform="matrix(12,0,0,12,199.7,603)" />
<use xlink:href="#f1_2b" transform="matrix(12,0,0,12,204.1,603)" />
<use xlink:href="#f1_2a" transform="matrix(12,0,0,12,213.6,603)" />
<use xlink:href="#f1_2f" transform="matrix(12,0,0,12,222.8,603)" />
<use xlink:href="#f1_2f" transform="matrix(12,0,0,12,234.5,603)" />
<use xlink:href="#f1_2h" transform="matrix(12,0,0,12,241.5,603)" />
<use xlink:href="#f1_1z" transform="matrix(12,0,0,12,250.6,603)" />
<use xlink:href="#f1_24" transform="matrix(12,0,0,12,259,603)" />
<use xlink:href="#f1_25" transform="matrix(12,0,0,12,272.9,603)" />
<use xlink:href="#f1_2g" transform="matrix(12,0,0,12,277.3,603)" />
<use xlink:href="#f1_1x" transform="matrix(12,0,0,12,287.6,603)" />
<use xlink:href="#f1_1z" transform="matrix(12,0,0,12,295.6,603)" />
<use xlink:href="#f1_2g" transform="matrix(12,0,0,12,303.7,603)" />
<use xlink:href="#f1_2f" transform="matrix(12,0,0,12,309.2,603)" />
<use xlink:href="#f1_1x" transform="matrix(12,0,0,12,320.9,603)" />
<use xlink:href="#f1_2f" transform="matrix(12,0,0,12,329,603)" />
<use xlink:href="#f1_2f" transform="matrix(12,0,0,12,341.1,603)" />
<use xlink:href="#f1_25" transform="matrix(12,0,0,12,348.1,603)" />
<use xlink:href="#f1_2g" transform="matrix(12,0,0,12,352.5,603)" />
<use xlink:href="#f1_21" transform="matrix(12,0,0,12,358,603)" />
<use xlink:href="#f1_22" transform="matrix(12,0,0,12,370.8,603)" />
<use xlink:href="#f1_2b" transform="matrix(12,0,0,12,376.3,603)" />
<use xlink:href="#f1_2e" transform="matrix(12,0,0,12,385.8,603)" />
<use xlink:href="#f1_2g" transform="matrix(12,0,0,12,396.5,603)" />
<use xlink:href="#f1_24" transform="matrix(12,0,0,12,402,603)" />
<use xlink:href="#f1_21" transform="matrix(12,0,0,12,410.8,603)" />
<use xlink:href="#f1_28" transform="matrix(12,0,0,12,424,603)" />
<use xlink:href="#f1_25" transform="matrix(12,0,0,12,428.7,603)" />
<use xlink:href="#f1_2c" transform="matrix(12,0,0,12,433.5,603)" />
<use xlink:href="#f1_25" transform="matrix(12,0,0,12,443,603)" />
<use xlink:href="#f1_20" transform="matrix(12,0,0,12,447.8,603)" />
<use xlink:href="#f1_1y" transform="matrix(12,0,0,12,461.7,603)" />
<use xlink:href="#f1_25" transform="matrix(12,0,0,12,470.9,603)" />
<use xlink:href="#f1_2b" transform="matrix(12,0,0,12,475.3,603)" />
<use xlink:href="#f1_2f" transform="matrix(12,0,0,12,485.2,603)" />
<use xlink:href="#f1_2l" transform="matrix(12,0,0,12,492.5,603)" />
<use xlink:href="#f1_2a" transform="matrix(12,0,0,12,501.3,603)" />
<use xlink:href="#f1_2g" transform="matrix(12,0,0,12,510.1,603)" />
<use xlink:href="#f1_24" transform="matrix(12,0,0,12,515.6,603)" />
<use xlink:href="#f1_21" transform="matrix(12,0,0,12,524.7,603)" />
<use xlink:href="#f1_2f" transform="matrix(12,0,0,12,532.8,603)" />
<use xlink:href="#f1_25" transform="matrix(12,0,0,12,540.1,603)" />
<use xlink:href="#f1_2f" transform="matrix(12,0,0,12,544.9,603)" />
<use xlink:href="#f1_g" transform="matrix(12,0,0,12,551.8,603)" />
<use xlink:href="#f1_20" transform="matrix(12,0,0,12,561.3,603)" />
<use xlink:href="#f1_21" transform="matrix(12,0,0,12,570.5,603)" />
<use xlink:href="#f1_2g" transform="matrix(12,0,0,12,578.6,603)" />
<use xlink:href="#f1_2b" transform="matrix(12,0,0,12,584.1,603)" />
<use xlink:href="#f1_2k" transform="matrix(12,0,0,12,593.6,603)" />
<use xlink:href="#f1_25" transform="matrix(12,0,0,12,602.4,603)" />
<use xlink:href="#f1_22" transform="matrix(12,0,0,12,607.1,603)" />
<use xlink:href="#f1_25" transform="matrix(12,0,0,12,613.3,603)" />
<use xlink:href="#f1_1z" transform="matrix(12,0,0,12,618.1,603)" />
<use xlink:href="#f1_1x" transform="matrix(12,0,0,12,626.2,603)" />
<use xlink:href="#f1_2g" transform="matrix(12,0,0,12,634.2,603)" />
<use xlink:href="#f1_25" transform="matrix(12,0,0,12,640.1,603)" />
<use xlink:href="#f1_2b" transform="matrix(12,0,0,12,644.5,603)" />
<use xlink:href="#f1_2a" transform="matrix(12,0,0,12,654,603)" />
<use xlink:href="#f1_1x" transform="matrix(12,0,0,12,667.6,603)" />
<use xlink:href="#f1_2a" transform="matrix(12,0,0,12,676,603)" />
<use xlink:href="#f1_20" transform="matrix(12,0,0,12,684.8,603)" />
<use xlink:href="#f1_1z" transform="matrix(12,0,0,12,698.7,603)" />
<use xlink:href="#f1_1x" transform="matrix(12,0,0,12,706.8,603)" />
<use xlink:href="#f1_28" transform="matrix(12,0,0,12,715.2,603)" />
<use xlink:href="#f1_1z" transform="matrix(12,0,0,12,719.9,603)" />
<use xlink:href="#f1_25" transform="matrix(12,0,0,12,728.4,603)" />
<use xlink:href="#f1_2h" transform="matrix(12,0,0,12,733.1,603)" />
<use xlink:href="#f1_29" transform="matrix(12,0,0,12,742.6,603)" />
<use xlink:href="#f1_2e" transform="matrix(12,0,0,12,760.9,603)" />
<use xlink:href="#f1_21" transform="matrix(12,0,0,12,767.2,603)" />
<use xlink:href="#f1_23" transform="matrix(12,0,0,12,775.2,603)" />
<use xlink:href="#f1_2h" transform="matrix(12,0,0,12,784.4,603)" />
<use xlink:href="#f1_28" transform="matrix(12,0,0,12,793.9,603)" />
<use xlink:href="#f1_1x" transform="matrix(12,0,0,12,799,603)" />
<use xlink:href="#f1_2g" transform="matrix(12,0,0,12,807.1,603)" />
<use xlink:href="#f1_25" transform="matrix(12,0,0,12,812.6,603)" />
<use xlink:href="#f1_2b" transform="matrix(12,0,0,12,817,603)" />
<use xlink:href="#f1_2a" transform="matrix(12,0,0,12,826.5,603)" />
<use xlink:href="#f1_i" transform="matrix(12,0,0,12,835.3,603)" />
<use xlink:href="#f0_17" transform="matrix(12,0,0,12,55,646.6)" />
<use xlink:href="#f0_2b" transform="matrix(12,0,0,12,69.3,646.6)" />
<use xlink:href="#f0_28" transform="matrix(12,0,0,12,78.5,646.6)" />
<use xlink:href="#f0_23" transform="matrix(12,0,0,12,83.3,646.6)" />
<use xlink:href="#f0_25" transform="matrix(12,0,0,12,92.4,646.6)" />
<use xlink:href="#f0_1z" transform="matrix(12,0,0,12,102.3,646.6)" />
<use xlink:href="#f0_2b" transform="matrix(12,0,0,12,110.4,646.6)" />
<use xlink:href="#f0_29" transform="matrix(12,0,0,12,119.6,646.6)" />
<use xlink:href="#f0_2c" transform="matrix(12,0,0,12,134.6,646.6)" />
<use xlink:href="#f0_28" transform="matrix(12,0,0,12,145.2,646.6)" />
<use xlink:href="#f0_21" transform="matrix(12,0,0,12,150,646.6)" />
<use xlink:href="#f0_2k" transform="matrix(12,0,0,12,158.4,646.6)" />
<use xlink:href="#f0_j" transform="matrix(12,0,0,12,167.3,646.6)" />
<use xlink:href="#f0_17" transform="matrix(12,0,0,12,172.4,646.6)" />
<use xlink:href="#f0_2b" transform="matrix(12,0,0,12,186.7,646.6)" />
<use xlink:href="#f0_28" transform="matrix(12,0,0,12,196.2,646.6)" />
<use xlink:href="#f0_23" transform="matrix(12,0,0,12,201,646.6)" />
<use xlink:href="#f0_25" transform="matrix(12,0,0,12,210.2,646.6)" />
<use xlink:href="#f0_1x" transform="matrix(12,0,0,12,220.1,646.6)" />
<use xlink:href="#f0_2c" transform="matrix(12,0,0,12,229.2,646.6)" />
<use xlink:href="#f0_2c" transform="matrix(12,0,0,12,239.5,646.6)" />
<use xlink:href="#f0_1x" transform="matrix(12,0,0,12,249.7,646.6)" />
<use xlink:href="#f0_2e" transform="matrix(12,0,0,12,258.9,646.6)" />
<use xlink:href="#f0_1x" transform="matrix(12,0,0,12,266.6,646.6)" />
<use xlink:href="#f0_2g" transform="matrix(12,0,0,12,275.8,646.6)" />
<use xlink:href="#f0_2h" transform="matrix(12,0,0,12,282,646.6)" />
<use xlink:href="#f0_2f" transform="matrix(12,0,0,12,292.2,646.6)" />
</g>
</g>
<path fill-rule="evenodd" d="M55,650.3H299.7v-1.8H55v1.8Z" class="g0_150" />
<g clip-path="url(#c0_150)">
<g fill="#000000" >
<use xlink:href="#f1_19" transform="matrix(12,0,0,12,55,690.6)" />
<use xlink:href="#f1_2g" transform="matrix(12,0,0,12,61.3,690.6)" />
<use xlink:href="#f1_25" transform="matrix(12,0,0,12,73.7,690.6)" />
<use xlink:href="#f1_2f" transform="matrix(12,0,0,12,78.1,690.6)" />
<use xlink:href="#f1_1x" transform="matrix(12,0,0,12,92.4,690.6)" />
<use xlink:href="#f1_2f" transform="matrix(12,0,0,12,107.8,690.6)" />
<use xlink:href="#f1_25" transform="matrix(12,0,0,12,115.1,690.6)" />
<use xlink:href="#f1_2a" transform="matrix(12,0,0,12,119.8,690.6)" />
<use xlink:href="#f1_23" transform="matrix(12,0,0,12,128.6,690.6)" />
<use xlink:href="#f1_28" transform="matrix(12,0,0,12,138.2,690.6)" />
<use xlink:href="#f1_21" transform="matrix(12,0,0,12,142.9,690.6)" />
<use xlink:href="#f1_29" transform="matrix(12,0,0,12,158.7,690.6)" />
<use xlink:href="#f1_21" transform="matrix(12,0,0,12,172.2,690.6)" />
<use xlink:href="#f1_29" transform="matrix(12,0,0,12,180.7,690.6)" />
<use xlink:href="#f1_1y" transform="matrix(12,0,0,12,194.6,690.6)" />
<use xlink:href="#f1_2e" transform="matrix(12,0,0,12,203.8,690.6)" />
<use xlink:href="#f1_1x" transform="matrix(12,0,0,12,210,690.6)" />
<use xlink:href="#f1_2a" transform="matrix(12,0,0,12,218.4,690.6)" />
<use xlink:href="#f1_21" transform="matrix(12,0,0,12,227.2,690.6)" />
<use xlink:href="#f1_1y" transform="matrix(12,0,0,12,242.9,690.6)" />
<use xlink:href="#f1_2b" transform="matrix(12,0,0,12,251.7,690.6)" />
<use xlink:href="#f1_2h" transform="matrix(12,0,0,12,261.2,690.6)" />
<use xlink:href="#f1_2a" transform="matrix(12,0,0,12,270.4,690.6)" />
<use xlink:href="#f1_20" transform="matrix(12,0,0,12,279.2,690.6)" />
<use xlink:href="#f1_2b" transform="matrix(12,0,0,12,295.7,690.6)" />
<use xlink:href="#f1_2e" transform="matrix(12,0,0,12,304.9,690.6)" />
<use xlink:href="#f1_23" transform="matrix(12,0,0,12,311.1,690.6)" />
<use xlink:href="#f1_1x" transform="matrix(12,0,0,12,320.2,690.6)" />
<use xlink:href="#f1_2a" transform="matrix(12,0,0,12,328.3,690.6)" />
<use xlink:href="#f1_21" transform="matrix(12,0,0,12,337.1,690.6)" />
<use xlink:href="#f1_28" transform="matrix(12,0,0,12,345.5,690.6)" />
<use xlink:href="#f1_28" transform="matrix(12,0,0,12,350.6,690.6)" />
<use xlink:href="#f1_21" transform="matrix(12,0,0,12,355.4,690.6)" />
<use xlink:href="#f1_1x" transform="matrix(12,0,0,12,370.8,690.6)" />
<use xlink:href="#f1_2a" transform="matrix(12,0,0,12,378.9,690.6)" />
<use xlink:href="#f1_20" transform="matrix(12,0,0,12,387.7,690.6)" />
<use xlink:href="#f1_22" transform="matrix(12,0,0,12,404.5,690.6)" />
<use xlink:href="#f1_2b" transform="matrix(12,0,0,12,410,690.6)" />
<use xlink:href="#f1_2e" transform="matrix(12,0,0,12,419.5,690.6)" />
<use xlink:href="#f1_29" transform="matrix(12,0,0,12,425.8,690.6)" />
<use xlink:href="#f1_2f" transform="matrix(12,0,0,12,439.7,690.6)" />
<use xlink:href="#f1_1x" transform="matrix(12,0,0,12,454,690.6)" />
<use xlink:href="#f1_2c" transform="matrix(12,0,0,12,469.4,690.6)" />
<use xlink:href="#f1_1x" transform="matrix(12,0,0,12,478.5,690.6)" />
<use xlink:href="#f1_2e" transform="matrix(12,0,0,12,486.6,690.6)" />
<use xlink:href="#f1_2g" transform="matrix(12,0,0,12,492.8,690.6)" />
<use xlink:href="#f1_2b" transform="matrix(12,0,0,12,504.9,690.6)" />
<use xlink:href="#f1_22" transform="matrix(12,0,0,12,514.4,690.6)" />
<use xlink:href="#f1_21" transform="matrix(12,0,0,12,527.2,690.6)" />
<use xlink:href="#f1_2a" transform="matrix(12,0,0,12,535.3,690.6)" />
<use xlink:href="#f1_20" transform="matrix(12,0,0,12,544.1,690.6)" />
<use xlink:href="#f1_2b" transform="matrix(12,0,0,12,553.2,690.6)" />
<use xlink:href="#f1_29" transform="matrix(12,0,0,12,563.1,690.6)" />
<use xlink:href="#f1_21" transform="matrix(12,0,0,12,576.7,690.6)" />
<use xlink:href="#f1_29" transform="matrix(12,0,0,12,585.1,690.6)" />
<use xlink:href="#f1_1y" transform="matrix(12,0,0,12,599,690.6)" />
<use xlink:href="#f1_2e" transform="matrix(12,0,0,12,608.2,690.6)" />
<use xlink:href="#f1_1x" transform="matrix(12,0,0,12,614.4,690.6)" />
<use xlink:href="#f1_2a" transform="matrix(12,0,0,12,622.8,690.6)" />
<use xlink:href="#f1_21" transform="matrix(12,0,0,12,631.6,690.6)" />
<use xlink:href="#f1_2f" transform="matrix(12,0,0,12,647,690.6)" />
<use xlink:href="#f1_2l" transform="matrix(12,0,0,12,654.3,690.6)" />
<use xlink:href="#f1_2f" transform="matrix(12,0,0,12,663.1,690.6)" />
<use xlink:href="#f1_2g" transform="matrix(12,0,0,12,670.1,690.6)" />
<use xlink:href="#f1_21" transform="matrix(12,0,0,12,675.6,690.6)" />
<use xlink:href="#f1_29" transform="matrix(12,0,0,12,684,690.6)" />
<use xlink:href="#f1_i" transform="matrix(12,0,0,12,697.6,690.6)" />
<use xlink:href="#f1_19" transform="matrix(12,0,0,12,709.6,690.6)" />
<use xlink:href="#f1_2g" transform="matrix(12,0,0,12,715.5,690.6)" />
<use xlink:href="#f1_1z" transform="matrix(12,0,0,12,728.3,690.6)" />
<use xlink:href="#f1_2b" transform="matrix(12,0,0,12,736,690.6)" />
<use xlink:href="#f1_2a" transform="matrix(12,0,0,12,745.5,690.6)" />
<use xlink:href="#f1_2f" transform="matrix(12,0,0,12,754.3,690.6)" />
<use xlink:href="#f1_25" transform="matrix(12,0,0,12,761.6,690.6)" />
<use xlink:href="#f1_2f" transform="matrix(12,0,0,12,766.4,690.6)" />
<use xlink:href="#f1_2g" transform="matrix(12,0,0,12,773.4,690.6)" />
<use xlink:href="#f1_2f" transform="matrix(12,0,0,12,778.8,690.6)" />
<use xlink:href="#f1_2b" transform="matrix(12,0,0,12,792.8,690.6)" />
<use xlink:href="#f1_22" transform="matrix(12,0,0,12,802.3,690.6)" />
<use xlink:href="#f1_22" transform="matrix(12,0,0,12,815.4,690.6)" />
<use xlink:href="#f1_28" transform="matrix(12,0,0,12,821.3,690.6)" />
<use xlink:href="#f1_1x" transform="matrix(12,0,0,12,826.1,690.6)" />
<use xlink:href="#f1_2g" transform="matrix(12,0,0,12,834.1,690.6)" />
<use xlink:href="#f1_2g" transform="matrix(12,0,0,12,839.2,690.6)" />
<use xlink:href="#f1_21" transform="matrix(12,0,0,12,844.8,690.6)" />
<use xlink:href="#f1_2a" transform="matrix(12,0,0,12,852.8,690.6)" />
<use xlink:href="#f1_21" transform="matrix(12,0,0,12,861.6,690.6)" />
<use xlink:href="#f1_20" transform="matrix(12,0,0,12,869.7,690.6)" />
<use xlink:href="#f1_29" transform="matrix(12,0,0,12,55,722.2)" />
<use xlink:href="#f1_21" transform="matrix(12,0,0,12,69,722.2)" />
<use xlink:href="#f1_29" transform="matrix(12,0,0,12,77.4,722.2)" />
<use xlink:href="#f1_1y" transform="matrix(12,0,0,12,91.3,722.2)" />
<use xlink:href="#f1_2e" transform="matrix(12,0,0,12,100.5,722.2)" />
<use xlink:href="#f1_1x" transform="matrix(12,0,0,12,106.7,722.2)" />
<use xlink:href="#f1_2a" transform="matrix(12,0,0,12,115.1,722.2)" />
<use xlink:href="#f1_21" transform="matrix(12,0,0,12,123.9,722.2)" />
<use xlink:href="#f1_2f" transform="matrix(12,0,0,12,137.1,722.2)" />
<use xlink:href="#f1_1x" transform="matrix(12,0,0,12,144.1,722.2)" />
<use xlink:href="#f1_1z" transform="matrix(12,0,0,12,152.1,722.2)" />
<use xlink:href="#f1_2f" transform="matrix(12,0,0,12,160.2,722.2)" />
<use xlink:href="#f1_27" transform="matrix(12,0,0,12,172.3,722.2)" />
<use xlink:href="#f1_2a" transform="matrix(12,0,0,12,181.8,722.2)" />
<use xlink:href="#f1_2b" transform="matrix(12,0,0,12,190.6,722.2)" />
<use xlink:href="#f1_2j" transform="matrix(12,0,0,12,200.1,722.2)" />
<use xlink:href="#f1_2a" transform="matrix(12,0,0,12,213.3,722.2)" />
<use xlink:href="#f1_1x" transform="matrix(12,0,0,12,227.2,722.2)" />
<use xlink:href="#f1_2f" transform="matrix(12,0,0,12,235.3,722.2)" />
<use xlink:href="#f1_1z" transform="matrix(12,0,0,12,247.4,722.2)" />
<use xlink:href="#f1_25" transform="matrix(12,0,0,12,255.8,722.2)" />
<use xlink:href="#f1_2f" transform="matrix(12,0,0,12,260.2,722.2)" />
<use xlink:href="#f1_2g" transform="matrix(12,0,0,12,267.2,722.2)" />
<use xlink:href="#f1_21" transform="matrix(12,0,0,12,272.6,722.2)" />
<use xlink:href="#f1_2e" transform="matrix(12,0,0,12,280.7,722.2)" />
<use xlink:href="#f1_2a" transform="matrix(12,0,0,12,286.9,722.2)" />
<use xlink:href="#f1_1x" transform="matrix(12,0,0,12,295.7,722.2)" />
<use xlink:href="#f1_21" transform="matrix(12,0,0,12,303.8,722.2)" />
<use xlink:href="#f1_i" transform="matrix(12,0,0,12,311.9,722.2)" />
<use xlink:href="#f1_15" transform="matrix(12,0,0,12,321.7,722.2)" />
<use xlink:href="#f1_1x" transform="matrix(12,0,0,12,333.1,722.2)" />
<use xlink:href="#f1_1z" transform="matrix(12,0,0,12,341.1,722.2)" />
<use xlink:href="#f1_24" transform="matrix(12,0,0,12,349.2,722.2)" />
<use xlink:href="#f1_2f" transform="matrix(12,0,0,12,363.1,722.2)" />
<use xlink:href="#f1_2g" transform="matrix(12,0,0,12,370.1,722.2)" />
<use xlink:href="#f1_1x" transform="matrix(12,0,0,12,375.6,722.2)" />
<use xlink:href="#f1_1z" transform="matrix(12,0,0,12,383.6,722.2)" />
<use xlink:href="#f1_27" transform="matrix(12,0,0,12,391.7,722.2)" />
<use xlink:href="#f1_25" transform="matrix(12,0,0,12,406,722.2)" />
<use xlink:href="#f1_2f" transform="matrix(12,0,0,12,410.4,722.2)" />
<use xlink:href="#f1_27" transform="matrix(12,0,0,12,422.8,722.2)" />
<use xlink:href="#f1_2a" transform="matrix(12,0,0,12,432,722.2)" />
<use xlink:href="#f1_2b" transform="matrix(12,0,0,12,440.8,722.2)" />
<use xlink:href="#f1_2j" transform="matrix(12,0,0,12,450.3,722.2)" />
<use xlink:href="#f1_2a" transform="matrix(12,0,0,12,463.5,722.2)" />
<use xlink:href="#f1_1x" transform="matrix(12,0,0,12,477.4,722.2)" />
<use xlink:href="#f1_2f" transform="matrix(12,0,0,12,485.5,722.2)" />
<use xlink:href="#f1_17" transform="matrix(12,0,0,12,498.1,722.2)" />
<use xlink:href="#f1_2b" transform="matrix(12,0,0,12,511.4,722.2)" />
<use xlink:href="#f1_28" transform="matrix(12,0,0,12,520.8,722.2)" />
<use xlink:href="#f1_23" transform="matrix(12,0,0,12,525.2,722.2)" />
<use xlink:href="#f1_25" transform="matrix(12,0,0,12,534.7,722.2)" />
<use xlink:href="#f1_2f" transform="matrix(12,0,0,12,544.7,722.2)" />
<use xlink:href="#f1_2g" transform="matrix(12,0,0,12,551.7,722.2)" />
<use xlink:href="#f1_1x" transform="matrix(12,0,0,12,557.2,722.2)" />
<use xlink:href="#f1_1z" transform="matrix(12,0,0,12,565.2,722.2)" />
<use xlink:href="#f1_27" transform="matrix(12,0,0,12,573.3,722.2)" />
<use xlink:href="#f1_i" transform="matrix(12,0,0,12,582.5,722.2)" />
<use xlink:href="#f1_15" transform="matrix(12,0,0,12,592,722.2)" />
<use xlink:href="#f1_1x" transform="matrix(12,0,0,12,603.3,722.2)" />
<use xlink:href="#f1_1z" transform="matrix(12,0,0,12,611.4,722.2)" />
<use xlink:href="#f1_24" transform="matrix(12,0,0,12,619.4,722.2)" />
<use xlink:href="#f1_17" transform="matrix(12,0,0,12,633.4,722.2)" />
<use xlink:href="#f1_2b" transform="matrix(12,0,0,12,646.7,722.2)" />
<use xlink:href="#f1_28" transform="matrix(12,0,0,12,656.2,722.2)" />
<use xlink:href="#f1_23" transform="matrix(12,0,0,12,660.6,722.2)" />
<use xlink:href="#f1_25" transform="matrix(12,0,0,12,670.1,722.2)" />
<use xlink:href="#f1_2f" transform="matrix(12,0,0,12,679.7,722.2)" />
<use xlink:href="#f1_2g" transform="matrix(12,0,0,12,686.7,722.2)" />
<use xlink:href="#f1_1x" transform="matrix(12,0,0,12,692.1,722.2)" />
<use xlink:href="#f1_1z" transform="matrix(12,0,0,12,700.2,722.2)" />
<use xlink:href="#f1_27" transform="matrix(12,0,0,12,708.3,722.2)" />
<use xlink:href="#f1_24" transform="matrix(12,0,0,12,722.6,722.2)" />
<use xlink:href="#f1_1x" transform="matrix(12,0,0,12,731.4,722.2)" />
<use xlink:href="#f1_2f" transform="matrix(12,0,0,12,739.4,722.2)" />
<use xlink:href="#f1_2g" transform="matrix(12,0,0,12,751.5,722.2)" />
<use xlink:href="#f1_2j" transform="matrix(12,0,0,12,757,722.2)" />
<use xlink:href="#f1_2b" transform="matrix(12,0,0,12,769.8,722.2)" />
<use xlink:href="#f1_22" transform="matrix(12,0,0,12,784.4,722.2)" />
<use xlink:href="#f1_1x" transform="matrix(12,0,0,12,789.9,722.2)" />
<use xlink:href="#f1_1z" transform="matrix(12,0,0,12,798.4,722.2)" />
<use xlink:href="#f1_21" transform="matrix(12,0,0,12,806.4,722.2)" />
<use xlink:href="#f1_2f" transform="matrix(12,0,0,12,814.5,722.2)" />
<use xlink:href="#f1_h" transform="matrix(12,0,0,12,821.6,722.2)" />
<use xlink:href="#f1_2g" transform="matrix(12,0,0,12,833,722.2)" />
<use xlink:href="#f1_24" transform="matrix(12,0,0,12,838.5,722.2)" />
<use xlink:href="#f1_21" transform="matrix(12,0,0,12,847.3,722.2)" />
<use xlink:href="#f1_1z" transform="matrix(12,0,0,12,860.5,722.2)" />
<use xlink:href="#f1_25" transform="matrix(12,0,0,12,868.5,722.2)" />
<use xlink:href="#f1_2f" transform="matrix(12,0,0,12,872.9,722.2)" />
<use xlink:href="#f1_22" transform="matrix(12,0,0,12,55,753.7)" />
<use xlink:href="#f1_1x" transform="matrix(12,0,0,12,60.9,753.7)" />
<use xlink:href="#f1_1z" transform="matrix(12,0,0,12,69,753.7)" />
<use xlink:href="#f1_21" transform="matrix(12,0,0,12,77,753.7)" />
<use xlink:href="#f1_2b" transform="matrix(12,0,0,12,89.9,753.7)" />
<use xlink:href="#f1_2e" transform="matrix(12,0,0,12,99.4,753.7)" />
<use xlink:href="#f1_2g" transform="matrix(12,0,0,12,110,753.7)" />
<use xlink:href="#f1_24" transform="matrix(12,0,0,12,115.5,753.7)" />
<use xlink:href="#f1_21" transform="matrix(12,0,0,12,124.3,753.7)" />
<use xlink:href="#f1_21" transform="matrix(12,0,0,12,137.1,753.7)" />
<use xlink:href="#f1_2a" transform="matrix(12,0,0,12,145.1,753.7)" />
<use xlink:href="#f1_2g" transform="matrix(12,0,0,12,153.9,753.7)" />
<use xlink:href="#f1_2e" transform="matrix(12,0,0,12,159.4,753.7)" />
<use xlink:href="#f1_2l" transform="matrix(12,0,0,12,165.6,753.7)" />
<use xlink:href="#f1_22" transform="matrix(12,0,0,12,179.2,753.7)" />
<use xlink:href="#f1_1x" transform="matrix(12,0,0,12,185.1,753.7)" />
<use xlink:href="#f1_1z" transform="matrix(12,0,0,12,193.1,753.7)" />
<use xlink:href="#f1_21" transform="matrix(12,0,0,12,201.2,753.7)" />
<use xlink:href="#f1_1x" transform="matrix(12,0,0,12,214,753.7)" />
<use xlink:href="#f1_2a" transform="matrix(12,0,0,12,222.6,753.7)" />
<use xlink:href="#f1_20" transform="matrix(12,0,0,12,231.4,753.7)" />
<use xlink:href="#f1_2g" transform="matrix(12,0,0,12,245.4,753.7)" />
<use xlink:href="#f1_24" transform="matrix(12,0,0,12,250.8,753.7)" />
<use xlink:href="#f1_21" transform="matrix(12,0,0,12,259.6,753.7)" />
<use xlink:href="#f1_2g" transform="matrix(12,0,0,12,272.5,753.7)" />
<use xlink:href="#f1_2e" transform="matrix(12,0,0,12,277.6,753.7)" />
<use xlink:href="#f1_1x" transform="matrix(12,0,0,12,283.8,753.7)" />
<use xlink:href="#f1_2a" transform="matrix(12,0,0,12,291.9,753.7)" />
<use xlink:href="#f1_2f" transform="matrix(12,0,0,12,300.7,753.7)" />
<use xlink:href="#f1_22" transform="matrix(12,0,0,12,312.8,753.7)" />
<use xlink:href="#f1_1x" transform="matrix(12,0,0,12,318.6,753.7)" />
<use xlink:href="#f1_1z" transform="matrix(12,0,0,12,326.7,753.7)" />
<use xlink:href="#f1_21" transform="matrix(12,0,0,12,334.8,753.7)" />
<use xlink:href="#f1_2b" transform="matrix(12,0,0,12,347.6,753.7)" />
<use xlink:href="#f1_2e" transform="matrix(12,0,0,12,357.1,753.7)" />
<use xlink:href="#f1_21" transform="matrix(12,0,0,12,368,753.7)" />
<use xlink:href="#f1_2k" transform="matrix(12,0,0,12,376.1,753.7)" />
<use xlink:href="#f1_25" transform="matrix(12,0,0,12,385.3,753.7)" />
<use xlink:href="#f1_2g" transform="matrix(12,0,0,12,389.7,753.7)" />
<use xlink:href="#f1_22" transform="matrix(12,0,0,12,399.9,753.7)" />
<use xlink:href="#f1_1x" transform="matrix(12,0,0,12,405.4,753.7)" />
<use xlink:href="#f1_1z" transform="matrix(12,0,0,12,413.5,753.7)" />
<use xlink:href="#f1_21" transform="matrix(12,0,0,12,421.5,753.7)" />
<use xlink:href="#f1_i" transform="matrix(12,0,0,12,430,753.7)" />
<use xlink:href="#f1_1k" transform="matrix(12,0,0,12,439.5,753.7)" />
<use xlink:href="#f1_24" transform="matrix(12,0,0,12,450.8,753.7)" />
<use xlink:href="#f1_21" transform="matrix(12,0,0,12,459.6,753.7)" />
<use xlink:href="#f1_17" transform="matrix(12,0,0,12,472.8,753.7)" />
<use xlink:href="#f1_2b" transform="matrix(12,0,0,12,485.7,753.7)" />
<use xlink:href="#f1_28" transform="matrix(12,0,0,12,495.2,753.7)" />
<use xlink:href="#f1_23" transform="matrix(12,0,0,12,499.6,753.7)" />
<use xlink:href="#f1_25" transform="matrix(12,0,0,12,509.1,753.7)" />
<use xlink:href="#f1_1x" transform="matrix(12,0,0,12,518.7,753.7)" />
<use xlink:href="#f1_2c" transform="matrix(12,0,0,12,526.7,753.7)" />
<use xlink:href="#f1_2c" transform="matrix(12,0,0,12,535.9,753.7)" />
<use xlink:href="#f1_1x" transform="matrix(12,0,0,12,545.1,753.7)" />
<use xlink:href="#f1_2e" transform="matrix(12,0,0,12,553.1,753.7)" />
<use xlink:href="#f1_1x" transform="matrix(12,0,0,12,559.3,753.7)" />
<use xlink:href="#f1_2g" transform="matrix(12,0,0,12,567.4,753.7)" />
<use xlink:href="#f1_2h" transform="matrix(12,0,0,12,572.9,753.7)" />
<use xlink:href="#f1_2f" transform="matrix(12,0,0,12,582,753.7)" />
<use xlink:href="#f1_25" transform="matrix(12,0,0,12,594.2,753.7)" />
<use xlink:href="#f1_2f" transform="matrix(12,0,0,12,598.6,753.7)" />
<use xlink:href="#f1_21" transform="matrix(12,0,0,12,610.3,753.7)" />
<use xlink:href="#f1_2f" transform="matrix(12,0,0,12,618.4,753.7)" />
<use xlink:href="#f1_2c" transform="matrix(12,0,0,12,625.4,753.7)" />
<use xlink:href="#f1_21" transform="matrix(12,0,0,12,634.9,753.7)" />
<use xlink:href="#f1_1z" transform="matrix(12,0,0,12,642.9,753.7)" />
<use xlink:href="#f1_25" transform="matrix(12,0,0,12,651.4,753.7)" />
<use xlink:href="#f1_1x" transform="matrix(12,0,0,12,656.1,753.7)" />
<use xlink:href="#f1_28" transform="matrix(12,0,0,12,664.5,753.7)" />
<use xlink:href="#f1_28" transform="matrix(12,0,0,12,669.6,753.7)" />
<use xlink:href="#f1_2l" transform="matrix(12,0,0,12,674.8,753.7)" />
<use xlink:href="#f1_2c" transform="matrix(12,0,0,12,688,753.7)" />
<use xlink:href="#f1_2e" transform="matrix(12,0,0,12,697.1,753.7)" />
<use xlink:href="#f1_2b" transform="matrix(12,0,0,12,703.4,753.7)" />
<use xlink:href="#f1_29" transform="matrix(12,0,0,12,713.2,753.7)" />
<use xlink:href="#f1_25" transform="matrix(12,0,0,12,727.2,753.7)" />
<use xlink:href="#f1_2a" transform="matrix(12,0,0,12,731.9,753.7)" />
<use xlink:href="#f1_21" transform="matrix(12,0,0,12,741.1,753.7)" />
<use xlink:href="#f1_2a" transform="matrix(12,0,0,12,749.5,753.7)" />
<use xlink:href="#f1_2g" transform="matrix(12,0,0,12,758.3,753.7)" />
<use xlink:href="#f1_25" transform="matrix(12,0,0,12,768.5,753.7)" />
<use xlink:href="#f1_2a" transform="matrix(12,0,0,12,773.3,753.7)" />
<use xlink:href="#f1_1z" transform="matrix(12,0,0,12,786.9,753.7)" />
<use xlink:href="#f1_21" transform="matrix(12,0,0,12,794.9,753.7)" />
<use xlink:href="#f1_28" transform="matrix(12,0,0,12,803.3,753.7)" />
<use xlink:href="#f1_28" transform="matrix(12,0,0,12,808.4,753.7)" />
<use xlink:href="#f1_2f" transform="matrix(12,0,0,12,813.2,753.7)" />
<use xlink:href="#f1_2g" transform="matrix(12,0,0,12,825,753.7)" />
<use xlink:href="#f1_24" transform="matrix(12,0,0,12,830.4,753.7)" />
<use xlink:href="#f1_1x" transform="matrix(12,0,0,12,839.2,753.7)" />
<use xlink:href="#f1_2g" transform="matrix(12,0,0,12,847.3,753.7)" />
<use xlink:href="#f1_1x" transform="matrix(12,0,0,12,857.5,753.7)" />
<use xlink:href="#f1_2e" transform="matrix(12,0,0,12,865.6,753.7)" />
<use xlink:href="#f1_21" transform="matrix(12,0,0,12,871.8,753.7)" />
<use xlink:href="#f1_2f" transform="matrix(12,0,0,12,55,785.6)" />
<use xlink:href="#f1_2c" transform="matrix(12,0,0,12,62,785.6)" />
<use xlink:href="#f1_21" transform="matrix(12,0,0,12,71.2,785.6)" />
<use xlink:href="#f1_1z" transform="matrix(12,0,0,12,79.2,785.6)" />
<use xlink:href="#f1_25" transform="matrix(12,0,0,12,87.7,785.6)" />
<use xlink:href="#f1_1x" transform="matrix(12,0,0,12,92.4,785.6)" />
<use xlink:href="#f1_28" transform="matrix(12,0,0,12,100.8,785.6)" />
<use xlink:href="#f1_25" transform="matrix(12,0,0,12,105.9,785.6)" />
<use xlink:href="#f1_2m" transform="matrix(12,0,0,12,110.7,785.6)" />
<use xlink:href="#f1_21" transform="matrix(12,0,0,12,118.8,785.6)" />
<use xlink:href="#f1_20" transform="matrix(12,0,0,12,126.9,785.6)" />
<use xlink:href="#f1_22" transform="matrix(12,0,0,12,141.1,785.6)" />
<use xlink:href="#f1_2b" transform="matrix(12,0,0,12,146.6,785.6)" />
<use xlink:href="#f1_2e" transform="matrix(12,0,0,12,156.2,785.6)" />
<use xlink:href="#f1_2f" transform="matrix(12,0,0,12,167.1,785.6)" />
<use xlink:href="#f1_21" transform="matrix(12,0,0,12,174.1,785.6)" />
<use xlink:href="#f1_1z" transform="matrix(12,0,0,12,182.2,785.6)" />
<use xlink:href="#f1_2e" transform="matrix(12,0,0,12,190.2,785.6)" />
<use xlink:href="#f1_21" transform="matrix(12,0,0,12,196.4,785.6)" />
<use xlink:href="#f1_2g" transform="matrix(12,0,0,12,204.5,785.6)" />
<use xlink:href="#f1_25" transform="matrix(12,0,0,12,210,785.6)" />
<use xlink:href="#f1_2b" transform="matrix(12,0,0,12,214.4,785.6)" />
<use xlink:href="#f1_2a" transform="matrix(12,0,0,12,223.9,785.6)" />
<use xlink:href="#f1_i" transform="matrix(12,0,0,12,232.7,785.6)" />
</g>
</g>
<image preserveAspectRatio="none" x="259" y="55" width="417" height="293" xlink:href="img/1.png" />
<image preserveAspectRatio="none" x="278" y="812" width="379" height="323" xlink:href="img/2.png" />
<g fill="#000000" >
<use xlink:href="#f2_o" transform="matrix(8,0,0,8,818.2,1187.9)" />
</g>
<defs>
<path d="M36,0V54L154,74V926L26,945v55H860V731H790L766,908c0,0,-36,5,-121,8c0,0,-84,2,-133,2H389V508H633l23,127h67V298H656L633,426H389V74L556,54V0Z" 
id="f0_16"
transform="scale(0.001,-0.001)" />

<path d="M34,0V49l76,18V634L38,652v49H325V67L402,49V0ZM217,831c0,0,-48,0,-81,33c0,0,-34,33,-34,82c0,0,0,48,34,81c0,0,34,33,81,33c0,0,48,0,81,-33c0,0,33,-33,33,-81c0,0,0,-47,-33,-81c0,0,-32,-34,-81,-34Z" 
id="f0_25"
transform="scale(0.001,-0.001)" />

<path d="M360,-256c0,0,108,0,167,35c0,0,59,35,59,98c0,0,0,70,-95,70H254c0,0,-65,-47,-65,-108c0,0,0,-47,46,-71c0,0,45,-24,125,-24Zm9,561c0,0,55,0,79,43c0,0,25,43,25,129c0,0,0,87,-24,127c0,0,-25,41,-80,41c0,0,-52,0,-75,-41c0,0,-24,-40,-24,-127c0,0,0,-86,23,-129c0,0,23,-43,76,-43Zm-9,-641c0,0,-153,0,-236,43c0,0,-84,44,-84,120c0,0,0,33,28,65c0,0,27,31,105,76c0,0,-44,17,-75,59c0,0,-31,43,-31,90L192,258c0,0,-133,56,-133,219c0,0,0,116,81,180c0,0,82,63,233,63c0,0,32,0,82,-6c0,0,51,-6,74,-13l168,83l26,-32L638,631c0,0,46,-57,46,-154c0,0,0,-119,-80,-182c0,0,-80,-64,-234,-64c0,0,-59,0,-114,9L238,183c0,0,1,-22,28,-41c0,0,26,-19,64,-19H493c0,0,256,0,256,-196c0,0,0,-81,-44,-139c0,0,-45,-59,-131,-92c0,0,-86,-32,-214,-32Z" 
id="f0_23"
transform="scale(0.001,-0.001)" />

<path d="M191,-20c0,0,-51,0,-88,34c0,0,-36,36,-36,88c0,0,0,52,36,88c0,0,36,36,88,36c0,0,51,0,88,-36c0,0,36,-36,36,-88c0,0,0,-51,-36,-87c0,0,-36,-35,-88,-35Z" 
id="f0_i"
transform="scale(0.001,-0.001)" />

<path d="M435,350V646c0,0,0,84,7,158L145,350ZM435,0V198H21V319l450,686H636V350H736V198H636V0Z" 
id="f0_o"
transform="scale(0.001,-0.001)" />

<path d="M410,-14c0,0,-86,0,-175,14C235,0,145,14,81,38V307h66L181,146c0,0,31,-37,94,-62c0,0,64,-24,132,-24c0,0,214,0,214,177c0,0,0,55,-41,93c0,0,-41,38,-128,68c0,0,-128,42,-185,68c0,0,-56,27,-95,63c0,0,-38,36,-62,87c0,0,-23,51,-23,125c0,0,0,132,90,201c0,0,90,69,263,69c0,0,125,0,278,-32V741H651L618,878c0,0,-76,56,-178,56c0,0,-92,0,-141,-34c0,0,-49,-34,-49,-104c0,0,0,-50,41,-86c0,0,41,-35,128,-63c0,0,171,-56,235,-97c0,0,64,-41,97,-103c0,0,34,-61,34,-143c0,0,0,-318,-375,-318Z" 
id="f0_1j"
transform="scale(0.001,-0.001)" />

<path d="M327,-14c0,0,-101,0,-156,45c0,0,-55,45,-55,131V624H25v48l108,29l87,159H332V701H480V624H332V176c0,0,0,-49,20,-73c0,0,20,-25,53,-25c0,0,40,0,97,12V26c0,0,-22,-15,-76,-27c0,0,-55,-13,-99,-13Z" 
id="f0_2g"
transform="scale(0.001,-0.001)" />

<path d="M41,0V49l91,18V634L41,652v49H336l8,-145c0,0,80,89,144,128c0,0,64,40,117,40h40V468H604l-45,94c0,0,-47,0,-106,-21c0,0,-60,-20,-105,-48V67L460,49V0Z" 
id="f0_2e"
transform="scale(0.001,-0.001)" />

<path d="M287,-18c0,0,-194,0,-194,206V634L23,652v49H309V217c0,0,0,-63,26,-98c0,0,27,-35,76,-35c0,0,57,0,113,25V634l-64,18v49H740V67L809,49V0H536L526,61L475,35c0,0,-104,-53,-188,-53Z" 
id="f0_2h"
transform="scale(0.001,-0.001)" />

<path d="M425,-14c0,0,-187,0,-280,90c0,0,-93,90,-93,276c0,0,0,115,42,198c0,0,43,82,121,126c0,0,78,44,182,44c0,0,104,0,227,-26V486H571L539,609c0,0,-25,19,-50,26c0,0,-24,7,-65,7c0,0,-44,0,-79,-35c0,0,-36,-35,-56,-98c0,0,-20,-64,-20,-153c0,0,0,-150,47,-214c0,0,47,-64,148,-64c0,0,103,0,176,21V42C640,42,606,15,547,0c0,0,-59,-14,-122,-14Z" 
id="f0_1z"
transform="scale(0.001,-0.001)" />

<path d="M434,423c0,0,0,101,-7,142c0,0,-6,40,-22,60c0,0,-16,19,-45,19c0,0,-44,0,-66,-48c0,0,-22,-49,-22,-173ZM389,-14c0,0,-172,0,-254,89c0,0,-83,90,-83,279c0,0,0,184,79,274c0,0,79,91,238,91c0,0,142,0,206,-76c0,0,64,-76,64,-237V345H271V333c0,0,0,-111,18,-158c0,0,18,-47,58,-72c0,0,40,-25,110,-25c0,0,66,0,166,22V42C623,42,582,18,517,1c0,0,-66,-15,-128,-15Z" 
id="f0_21"
transform="scale(0.001,-0.001)" />

<path d="M379,60c0,0,59,0,84,64c0,0,24,65,24,231c0,0,0,164,-24,227c0,0,-24,63,-84,63c0,0,-57,0,-80,-60c0,0,-22,-61,-22,-230c0,0,0,-173,23,-234c0,0,22,-61,79,-61Zm-2,-74c0,0,-161,0,-240,91c0,0,-79,91,-79,277c0,0,0,186,80,276c0,0,81,90,245,90c0,0,167,0,245,-93c0,0,78,-93,78,-273c0,0,0,-188,-81,-278c0,0,-81,-90,-248,-90Z" 
id="f0_2b"
transform="scale(0.001,-0.001)" />

<path d="M41,0V49l76,18V624H11v51l106,29v75c0,0,0,144,73,220c0,0,73,77,210,77c0,0,74,0,124,-15V894H476l-22,81c0,0,-18,17,-47,17c0,0,-74,0,-74,-189V701H475V624H333V67L447,49V0Z" 
id="f0_22"
transform="scale(0.001,-0.001)" />

<path d="M41,0V49l69,18V634L41,652v49H313l11,-61l50,26c0,0,105,54,188,54c0,0,194,0,194,-207V67L827,49V0H478V49l63,18V484c0,0,0,63,-27,98c0,0,-26,35,-75,35c0,0,-57,0,-114,-25V67L389,49V0Z" 
id="f0_2a"
transform="scale(0.001,-0.001)" />

<path d="M416,68c0,0,60,0,124,32V628c0,0,-58,15,-118,15c0,0,-67,0,-104,-73c0,0,-38,-73,-38,-216c0,0,0,-139,36,-212c0,0,35,-74,100,-74ZM369,-14c0,0,-155,0,-231,88c0,0,-76,90,-76,274c0,0,0,182,82,277c0,0,81,95,236,95c0,0,82,0,165,-20c0,0,-5,24,-5,115V992l-72,18v50H756V67L833,49V0H562L547,40C547,40,505,13,483,4c0,0,-23,-7,-51,-12c0,0,-28,-6,-63,-6Z" 
id="f0_20"
transform="scale(0.001,-0.001)" />

<path d="M438,65c0,0,131,0,131,293c0,0,0,279,-130,279c0,0,-69,0,-127,-29V80c0,0,60,-15,126,-15ZM20,-325v50l76,18V634L19,652v49H304l1,-36c0,0,80,55,194,55c0,0,146,0,218,-86c0,0,71,-86,71,-271c0,0,0,-183,-83,-280c0,0,-83,-97,-238,-97c0,0,-79,0,-160,19c0,0,5,-48,5,-109V-257l103,-18v-50Z" 
id="f0_2c"
transform="scale(0.001,-0.001)" />

<path d="M30,0V49l76,18V992l-72,18v50H322V67L398,49V0Z" 
id="f0_28"
transform="scale(0.001,-0.001)" />

<path d="M345,75c0,0,50,0,110,26V351l-63,-2c0,0,-72,-3,-100,-38c0,0,-28,-35,-28,-113c0,0,0,-63,22,-93c0,0,23,-30,59,-30ZM266,-14c0,0,-217,0,-217,208c0,0,0,79,32,126c0,0,32,48,93,71c0,0,60,22,190,25l91,2V521c0,0,0,126,-104,126c0,0,-62,0,-140,-39L183,521H134V691c0,0,112,17,165,21c0,0,53,5,108,5c0,0,264,0,264,-194V67L741,49V0H483L466,54C466,54,408,14,361,0c0,0,-47,-14,-95,-14Z" 
id="f0_1x"
transform="scale(0.001,-0.001)" />

<path d="M276,-14c0,0,-57,0,-125,13C151,-1,83,10,48,23V214H97l28,-98c0,0,26,-26,69,-44c0,0,42,-17,86,-17c0,0,65,0,97,28c0,0,32,28,32,71c0,0,0,41,-31,65c0,0,-30,25,-133,57c0,0,-108,34,-154,92c0,0,-45,58,-45,143c0,0,0,95,71,152c0,0,71,57,183,57c0,0,77,0,207,-22V518H457l-24,82c0,0,-21,22,-60,35c0,0,-40,14,-75,14c0,0,-53,0,-79,-22c0,0,-26,-22,-26,-59c0,0,0,-40,32,-65c0,0,32,-26,132,-55c0,0,109,-34,155,-89c0,0,45,-55,45,-137c0,0,0,-117,-72,-177c0,0,-72,-59,-209,-59Z" 
id="f0_2f"
transform="scale(0.001,-0.001)" />

<path d="M41,0V49l69,18V634L41,652v49H313l11,-61l50,26c0,0,105,54,188,54c0,0,125,0,167,-91c0,0,153,91,258,91c0,0,189,0,189,-207V67l71,-17V0H898V50l63,17V484c0,0,0,63,-24,98c0,0,-25,35,-74,35c0,0,-55,0,-119,-31c0,0,7,-32,7,-73V67L821,50V0H473V50l63,17V484c0,0,0,63,-25,98c0,0,-24,35,-73,35c0,0,-49,0,-113,-29V67L389,49V0Z" 
id="f0_29"
transform="scale(0.001,-0.001)" />

<path d="M394,460c0,0,126,0,186,57c0,0,60,57,60,187c0,0,0,123,-57,176c0,0,-58,53,-194,53H316V460ZM54,0V40L172,60V941L44,960v40H421c0,0,368,0,368,-295c0,0,0,-153,-93,-233c0,0,-93,-80,-267,-80H316V60L475,40V0Z" 
id="f1_1g"
transform="scale(0.001,-0.001)" />

<path d="M31,0V33l88,19V649L31,668v33H235l7,-87c0,0,44,37,121,71c0,0,76,35,121,35h11V530H463l-43,82c0,0,-37,0,-88,-10c0,0,-52,-10,-89,-26V52L363,33V0Z" 
id="f1_2e"
transform="scale(0.001,-0.001)" />

<path d="M377,45c0,0,99,0,147,73c0,0,47,73,47,237c0,0,0,161,-47,233c0,0,-47,72,-147,72c0,0,-97,0,-141,-69c0,0,-44,-69,-44,-236c0,0,0,-169,45,-240c0,0,44,-70,140,-70Zm0,-59c0,0,-158,0,-238,94c0,0,-81,95,-81,274c0,0,0,178,81,272c0,0,80,94,244,94c0,0,160,0,241,-92c0,0,82,-92,82,-274c0,0,0,-368,-329,-368Z" 
id="f1_2b"
transform="scale(0.001,-0.001)" />

<path d="M249,-14c0,0,-71,0,-107,42c0,0,-35,42,-35,119V639H15v33l93,29l76,159h47V701H391V639H231V161c0,0,0,-48,22,-73c0,0,22,-24,57,-24c0,0,44,0,106,12V26C416,26,389,8,340,-2c0,0,-49,-12,-91,-12Z" 
id="f1_2g"
transform="scale(0.001,-0.001)" />

<path d="M495,413c0,0,0,133,-34,190c0,0,-34,57,-105,57c0,0,-78,0,-119,-63c0,0,-42,-62,-42,-184ZM374,-14c0,0,-163,0,-239,87c0,0,-75,88,-75,283c0,0,0,183,77,273c0,0,76,91,219,91c0,0,269,0,269,-306V353H194V340c0,0,0,-103,23,-160c0,0,22,-57,70,-87c0,0,47,-29,124,-29c0,0,40,0,96,6c0,0,55,7,91,15V43C598,43,562,20,500,3c0,0,-61,-17,-126,-17Z" 
id="f1_21"
transform="scale(0.001,-0.001)" />

<path d="M32,0V33L151,52V649L52,668v33H275V52L395,33V0ZM201,850c0,0,-32,0,-56,24c0,0,-24,24,-24,56c0,0,0,34,24,58c0,0,24,24,56,24c0,0,34,0,58,-24c0,0,24,-24,24,-58c0,0,0,-32,-24,-56c0,0,-24,-24,-58,-24Z" 
id="f1_25"
transform="scale(0.001,-0.001)" />

<path d="M439,0V33l93,19V500c0,0,0,62,-30,97c0,0,-31,36,-94,36c0,0,-67,0,-165,-22V52L338,33V0H35V33l84,19V649L35,668v33H235l7,-57c0,0,57,33,122,54c0,0,65,22,108,22c0,0,91,0,137,-53c0,0,47,-53,47,-154V52L741,33V0Z" 
id="f1_2a"
transform="scale(0.001,-0.001)" />

<path d="M278,-14c0,0,-52,0,-115,11c0,0,-63,10,-99,23V193H98L134,95c0,0,56,-50,146,-50c0,0,144,0,144,123c0,0,0,91,-114,130l-66,21c0,0,-75,25,-110,50c0,0,-34,26,-53,63c0,0,-18,36,-18,89c0,0,0,92,63,145c0,0,63,54,170,54c0,0,77,0,193,-23V544H454l-32,81c0,0,-39,35,-124,35c0,0,-61,0,-92,-30c0,0,-32,-30,-32,-80c0,0,0,-43,29,-72c0,0,28,-29,86,-48c0,0,110,-38,144,-55c0,0,33,-17,57,-42c0,0,23,-25,36,-57c0,0,13,-32,13,-79c0,0,0,-104,-66,-158c0,0,-66,-53,-195,-53Z" 
id="f1_2f"
transform="scale(0.001,-0.001)" />

<path d="M148,-329c0,0,-58,0,-114,13v151H69l24,-71c0,0,23,-17,64,-17c0,0,39,0,72,22c0,0,33,23,60,67c0,0,27,44,68,157L90,649L19,668v33H344V668L233,648L423,158L606,649L497,668v33H758V668L685,652L411,-43c0,0,-48,-124,-84,-177c0,0,-36,-54,-79,-82c0,0,-44,-27,-100,-27Z" 
id="f1_2l"
transform="scale(0.001,-0.001)" />

<path d="M442,0V33l93,19V504c0,0,0,129,-124,129c0,0,-70,0,-168,-22V52L338,33V0H31V33l88,19v956L15,1026v34H243V756c0,0,0,-77,-5,-112c0,0,54,31,122,53c0,0,68,23,115,23c0,0,91,0,137,-53c0,0,47,-53,47,-154V52L744,33V0Z" 
id="f1_24"
transform="scale(0.001,-0.001)" />

<path d="M41,0V34L426,641H261c0,0,-42,0,-80,-7c0,0,-39,-7,-54,-19L104,515H69V701H586V665L201,60H407c0,0,42,0,89,10c0,0,47,10,66,25l39,147h35L617,0Z" 
id="f1_2m"
transform="scale(0.001,-0.001)" />

<path d="M383,64c0,0,85,0,152,28V645c0,0,-67,13,-152,13c0,0,-194,0,-194,-314c0,0,0,-141,48,-211c0,0,48,-69,146,-69ZM342,-14c0,0,-287,0,-287,358c0,0,0,184,82,280c0,0,81,96,239,96c0,0,81,0,163,-18c0,0,-4,25,-4,124v182l-118,18v34H659V52L745,33V0H548l-9,52c0,0,-84,-66,-197,-66Z" 
id="f1_20"
transform="scale(0.001,-0.001)" />

<path d="M376,50c0,0,103,0,149,80c0,0,46,81,46,240c0,0,0,137,-47,204c0,0,-48,67,-148,67c0,0,-44,0,-87,-7c0,0,-44,-8,-63,-17V62c0,0,63,-12,150,-12Zm3,-64c0,0,-64,0,-141,14c0,0,-78,14,-136,37v971L0,1026v34H226V809c0,0,0,-40,-4,-148c0,0,74,59,188,59c0,0,143,0,219,-87c0,0,77,-87,77,-263c0,0,0,-189,-84,-287c0,0,-84,-97,-243,-97Z" 
id="f1_1y"
transform="scale(0.001,-0.001)" />

<path d="M431,0V33L535,52V499c0,0,0,62,-32,96c0,0,-32,33,-95,33c0,0,-66,0,-163,-22V52L350,33V0H32V33l89,19V649L32,668v33H237l6,-57c0,0,56,32,119,54c0,0,62,22,110,22c0,0,52,0,95,-20c0,0,44,-19,66,-62c0,0,57,32,134,57c0,0,77,25,128,25c0,0,179,0,179,-207V52l90,-19V0H846V33L950,52V499c0,0,0,129,-119,129c0,0,-19,0,-45,-3c0,0,-26,-3,-52,-7c0,0,-25,-4,-49,-8c0,0,-23,-5,-39,-8c0,0,13,-41,13,-89V52L764,33V0Z" 
id="f1_29"
transform="scale(0.001,-0.001)" />

<path d="M284,67c0,0,51,0,88,12c0,0,37,12,74,30V358l-98,-3c0,0,-100,-4,-135,-39c0,0,-35,-35,-35,-117c0,0,0,-132,106,-132ZM233,-14c0,0,-179,0,-179,208c0,0,0,70,27,116c0,0,27,46,87,70c0,0,60,24,173,27l105,3V519c0,0,0,72,-26,107c0,0,-27,34,-82,34c0,0,-75,0,-137,-35L176,538H134V691c0,0,121,26,213,26c0,0,115,0,169,-47c0,0,54,-47,54,-144V52L657,33V0H465L451,70c0,0,-85,-84,-218,-84Z" 
id="f1_1x"
transform="scale(0.001,-0.001)" />

<path d="M399,-14c0,0,-341,0,-341,370c0,0,0,175,87,269c0,0,87,95,249,95c0,0,101,0,220,-23V501H573L541,625c0,0,-62,35,-149,35c0,0,-200,0,-200,-304c0,0,0,-158,61,-225c0,0,61,-67,189,-67c0,0,109,0,189,24V43C631,43,595,16,530,1c0,0,-64,-15,-131,-15Z" 
id="f1_1z"
transform="scale(0.001,-0.001)" />

<path d="M327,-14L84,649L1,668v33H335V668L219,648L385,174L554,632h63L786,171L944,649L830,668v33h267V668l-78,-16L784,-14H726L553,448L382,-14Z" 
id="f1_2j"
transform="scale(0.001,-0.001)" />

<path d="M64,0V34L168,59V639H47v36l121,29v49c0,0,0,155,61,239c0,0,62,84,173,84c0,0,58,0,107,-15V908H472l-33,92c0,0,-26,16,-62,16c0,0,-47,0,-66,-42c0,0,-19,-42,-19,-157V701H478V639H292V59L443,34V0Z" 
id="f1_22"
transform="scale(0.001,-0.001)" />

<path d="M448,506c0,0,134,0,190,49c0,0,57,50,57,168c0,0,0,114,-56,162c0,0,-56,48,-195,48H316V506ZM777,0L496,438H316V60L468,40V0H54V40L172,60V941L44,960v40H476c0,0,188,0,277,-63c0,0,90,-64,90,-204c0,0,0,-100,-54,-173c0,0,-55,-73,-151,-101L909,60L1017,40V0Z" 
id="f1_1i"
transform="scale(0.001,-0.001)" />

<path d="M44,0V40L172,60V941L44,960v40H794V760H745L721,922c0,0,-83,11,-241,11H316V543H586l23,119h48V354H609L586,475H316V67H513c0,0,193,0,252,12l43,185h49L843,0Z" 
id="f1_15"
transform="scale(0.001,-0.001)" />

<path d="M31,0V33L150,52v956L31,1026v34H274V52L394,33V0Z" 
id="f1_28"
transform="scale(0.001,-0.001)" />

<path d="M289,-14c0,0,-179,0,-179,205V649L20,668v33H233V200c0,0,0,-128,120,-128c0,0,92,0,173,23V649L420,668v33H649V52L738,33V0H533l-6,57C527,57,474,28,405,7c0,0,-69,-21,-116,-21Z" 
id="f1_2h"
transform="scale(0.001,-0.001)" />

<path d="M382,45c0,0,188,0,188,314c0,0,0,143,-47,213c0,0,-46,69,-141,69c0,0,-87,0,-146,-24V58c0,0,67,-13,146,-13ZM25,-325v35l88,18V649L34,668v33H231l1,-41c0,0,31,27,84,43c0,0,53,17,107,17c0,0,134,0,208,-94c0,0,73,-93,73,-267c0,0,0,-178,-80,-276c0,0,-80,-97,-232,-97c0,0,-84,0,-160,16c0,0,4,-53,4,-84V-272l123,-18v-35Z" 
id="f1_2c"
transform="scale(0.001,-0.001)" />

<path d="M57,302V417H454V302Z" 
id="f1_h"
transform="scale(0.001,-0.001)" />

<path d="M191,-20c0,0,-39,0,-65,25c0,0,-25,27,-25,64c0,0,0,38,26,64c0,0,26,26,64,26c0,0,38,0,64,-26c0,0,26,-26,26,-64c0,0,0,-37,-25,-64c0,0,-26,-25,-65,-25Z" 
id="f1_i"
transform="scale(0.001,-0.001)" />

<path d="M55,0V40L184,60V941L55,960v40H455V960L327,941V60L455,40V0Z" 
id="f1_19"
transform="scale(0.001,-0.001)" />

<path d="M58,-234v58c0,0,131,42,131,125c0,0,0,15,-11,27c0,0,-11,12,-38,25C140,1,89,27,89,75c0,0,0,40,25,61c0,0,26,21,65,21c0,0,48,0,77,-34c0,0,30,-34,30,-86c0,0,0,-101,-60,-170c0,0,-59,-69,-168,-101Z" 
id="f1_g"
transform="scale(0.001,-0.001)" />

<path d="M360,-14L72,649L0,668v33H327V668L216,648L420,164L615,649L504,668v33H764V668L697,652L416,-14Z" 
id="f1_2i"
transform="scale(0.001,-0.001)" />

<path d="M359,-270c0,0,124,0,192,46c0,0,67,47,67,129c0,0,0,43,-26,67c0,0,-26,24,-79,24H242c0,0,-32,-27,-51,-69c0,0,-20,-41,-20,-77c0,0,0,-64,46,-92c0,0,46,-28,142,-28Zm11,561c0,0,81,0,115,47c0,0,34,47,34,141c0,0,0,100,-35,142c0,0,-35,42,-113,42c0,0,-78,0,-114,-43c0,0,-37,-42,-37,-141c0,0,0,-98,36,-143c0,0,36,-45,114,-45ZM359,-329c0,0,-143,0,-218,44c0,0,-75,43,-75,125c0,0,0,39,27,78c0,0,26,38,98,89c0,0,-43,14,-72,48c0,0,-29,35,-29,74L208,262c0,0,-118,55,-118,217c0,0,0,115,73,178c0,0,73,63,211,63c0,0,28,0,71,-6c0,0,44,-6,67,-13l165,83l26,-32L599,644c0,0,50,-56,50,-165c0,0,0,-120,-72,-182c0,0,-73,-62,-208,-62c0,0,-62,0,-114,11L208,148c0,0,2,-13,29,-24c0,0,27,-12,67,-12H512c0,0,113,0,168,-49c0,0,55,-49,55,-134c0,0,0,-79,-44,-137c0,0,-43,-58,-128,-90c0,0,-84,-31,-204,-31Z" 
id="f1_23"
transform="scale(0.001,-0.001)" />

<path d="M235,0V40L394,60V936H356c0,0,-189,0,-258,-15L78,766H28v234H908V766H857L837,921c0,0,-22,5,-98,9c0,0,-75,4,-165,4H538V60L697,40V0Z" 
id="f1_1k"
transform="scale(0.001,-0.001)" />

<path d="M410,-14c0,0,-80,0,-162,14c0,0,-81,14,-144,38V270h48L178,134c0,0,28,-35,95,-62c0,0,68,-27,134,-27c0,0,104,0,163,53c0,0,58,54,58,148c0,0,0,54,-23,89c0,0,-22,35,-59,59c0,0,-37,24,-84,41c0,0,-47,17,-97,34c0,0,-49,17,-96,38c0,0,-47,21,-84,53c0,0,-37,32,-60,79c0,0,-23,48,-23,117c0,0,0,119,90,187c0,0,89,68,248,68c0,0,121,0,263,-32V771H654L628,893c0,0,-76,55,-188,55c0,0,-100,0,-156,-40c0,0,-56,-41,-56,-112c0,0,0,-49,22,-81c0,0,23,-32,60,-55c0,0,37,-22,84,-39c0,0,48,-16,97,-34c0,0,50,-17,97,-39c0,0,48,-22,85,-56c0,0,36,-34,59,-83c0,0,23,-49,23,-120c0,0,0,-145,-89,-224c0,0,-89,-79,-256,-79Z" 
id="f1_1j"
transform="scale(0.001,-0.001)" />

<path d="M13,0V34L95,46L325,350L122,649L40,668v33H357V668L264,648L399,446L554,649l-96,19v33H710V668L630,652L433,397L663,50L745,34V0H427V34l94,17L359,299L169,50L266,34V0Z" 
id="f1_2k"
transform="scale(0.001,-0.001)" />

<path d="M614,-14c0,0,-163,0,-285,59c0,0,-122,60,-188,174c0,0,-66,114,-66,269c0,0,0,252,143,387c0,0,144,136,410,136c0,0,65,0,118,-5c0,0,54,-5,100,-14c0,0,46,-9,170,-44V718H949L931,848c0,0,-59,40,-130,62c0,0,-71,23,-146,23c0,0,-174,0,-253,-108c0,0,-80,-108,-80,-335c0,0,0,-211,84,-319c0,0,84,-108,243,-108c0,0,87,0,165,26V377L686,397v55h461V397l-98,-20V52C1049,52,956,22,834,4C834,4,712,-14,614,-14Z" 
id="f0_17"
transform="scale(0.001,-0.001)" />

<path d="M6,0V49L69,61L292,323L91,634L23,652v49H398V652L319,632L421,475L557,634l-71,18v49H725V652L663,637L466,406L689,65L756,49V0H381V49l79,17L337,254L175,65L245,49V0Z" 
id="f0_2k"
transform="scale(0.001,-0.001)" />

<path d="M-14,-14L336,1006H440L90,-14Z" 
id="f0_j"
transform="scale(0.001,-0.001)" />

<path d="M477,0V33l64,19L348,354L257,254V52L331,33V0H44V33l89,19v956L29,1026v34H257V338L544,647l-73,20v34H718V667L631,650L431,446L688,50L764,33V0Z" 
id="f1_27"
transform="scale(0.001,-0.001)" />

<path d="M577,-14c0,0,-243,0,-379,131C198,117,63,248,63,488c0,0,0,263,131,393c0,0,132,130,386,130c0,0,182,0,352,-45V751H882L862,875c0,0,-52,37,-124,57c0,0,-72,19,-152,19c0,0,-191,0,-279,-113c0,0,-88,-114,-88,-348c0,0,0,-220,91,-333c0,0,91,-114,269,-114c0,0,63,0,131,15c0,0,69,15,105,36V377L686,397v40h370V397L958,377V52C958,52,871,24,778,5c0,0,-93,-19,-201,-19Z" 
id="f1_17"
transform="scale(0.001,-0.001)" />

<path d="M494,385V878L152,385ZM494,0V262H20V385l498,708H628V385H775V262H628V0Z" 
id="f2_o"
transform="scale(0.001,-0.001)" />


</defs>
</svg>