<?xml version="1.0" encoding="UTF-8" standalone="no"?>
<!DOCTYPE svg PUBLIC "-//W3C//DTD SVG 1.1//EN"
"http://www.w3.org/Graphics/SVG/1.1/DTD/svg11.dtd">
<svg viewBox="0 0 935 1210" version="1.1" xmlns="http://www.w3.org/2000/svg" xmlns:xlink="http://www.w3.org/1999/xlink">
<defs>
<style type="text/css"><![CDATA[
.g0_179{
fill: #FFFFFF;
}
.g1_179{
fill: #212121;
}
]]></style>
</defs>
<path fill-rule="evenodd" d="M169.1,316.5H766.3V55H169.1V316.5Z" class="g0_179" />
<path fill-rule="evenodd" d="M381.5,360.5h172V339.3h-172v21.2Z" class="g0_179" />
<g fill="#212121" >
<use xlink:href="#f0_16" transform="matrix(12,0,0,12,381.5,356.5)" />
<use xlink:href="#f0_25" transform="matrix(12,0,0,12,392.5,356.5)" />
<use xlink:href="#f0_23" transform="matrix(12,0,0,12,397.6,356.5)" />
<use xlink:href="#f0_i" transform="matrix(12,0,0,12,406.7,356.5)" />
<use xlink:href="#f0_o" transform="matrix(12,0,0,12,411.6,356.5)" />
<use xlink:href="#f0_i" transform="matrix(12,0,0,12,420.7,356.5)" />
<use xlink:href="#f0_1n" transform="matrix(12,0,0,12,430.2,356.5)" />
<use xlink:href="#f0_1x" transform="matrix(12,0,0,12,448.5,356.5)" />
<use xlink:href="#f0_2g" transform="matrix(12,0,0,12,457.7,356.5)" />
<use xlink:href="#f0_21" transform="matrix(12,0,0,12,463.9,356.5)" />
<use xlink:href="#f0_2e" transform="matrix(12,0,0,12,472,356.5)" />
<use xlink:href="#f0_2c" transform="matrix(12,0,0,12,484.4,356.5)" />
<use xlink:href="#f0_2b" transform="matrix(12,0,0,12,494.7,356.5)" />
<use xlink:href="#f0_2g" transform="matrix(12,0,0,12,503.9,356.5)" />
<use xlink:href="#f0_21" transform="matrix(12,0,0,12,510.1,356.5)" />
<use xlink:href="#f0_2a" transform="matrix(12,0,0,12,518.1,356.5)" />
<use xlink:href="#f0_2g" transform="matrix(12,0,0,12,528.4,356.5)" />
<use xlink:href="#f0_25" transform="matrix(12,0,0,12,534.3,356.5)" />
<use xlink:href="#f0_1x" transform="matrix(12,0,0,12,539.4,356.5)" />
<use xlink:href="#f0_28" transform="matrix(12,0,0,12,548.5,356.5)" />
</g>
<path fill-rule="evenodd" d="M55,404.2H880.3V382.9H55v21.3Z" class="g0_179" />
<g fill="#212121" >
<use xlink:href="#f1_19" transform="matrix(12,0,0,12,55,400.1)" />
<use xlink:href="#f1_22" transform="matrix(12,0,0,12,61.3,400.1)" />
<use xlink:href="#f1_2f" transform="matrix(12,0,0,12,71.5,400.1)" />
<use xlink:href="#f1_2b" transform="matrix(12,0,0,12,78.5,400.1)" />
<use xlink:href="#f1_29" transform="matrix(12,0,0,12,88.3,400.1)" />
<use xlink:href="#f1_21" transform="matrix(12,0,0,12,101.9,400.1)" />
<use xlink:href="#f1_2f" transform="matrix(12,0,0,12,114.7,400.1)" />
<use xlink:href="#f1_2b" transform="matrix(12,0,0,12,121.7,400.1)" />
<use xlink:href="#f1_28" transform="matrix(12,0,0,12,131.6,400.1)" />
<use xlink:href="#f1_2h" transform="matrix(12,0,0,12,136,400.1)" />
<use xlink:href="#f1_2g" transform="matrix(12,0,0,12,145.1,400.1)" />
<use xlink:href="#f1_21" transform="matrix(12,0,0,12,150.6,400.1)" />
<use xlink:href="#f1_25" transform="matrix(12,0,0,12,163.8,400.1)" />
<use xlink:href="#f1_2f" transform="matrix(12,0,0,12,168.2,400.1)" />
<use xlink:href="#f1_1x" transform="matrix(12,0,0,12,179.9,400.1)" />
<use xlink:href="#f1_20" transform="matrix(12,0,0,12,188,400.1)" />
<use xlink:href="#f1_20" transform="matrix(12,0,0,12,197.2,400.1)" />
<use xlink:href="#f1_21" transform="matrix(12,0,0,12,206.3,400.1)" />
<use xlink:href="#f1_20" transform="matrix(12,0,0,12,214.4,400.1)" />
<use xlink:href="#f1_2g" transform="matrix(12,0,0,12,228.3,400.1)" />
<use xlink:href="#f1_2b" transform="matrix(12,0,0,12,233.8,400.1)" />
<use xlink:href="#f1_2c" transform="matrix(12,0,0,12,247.7,400.1)" />
<use xlink:href="#f1_2h" transform="matrix(12,0,0,12,256.9,400.1)" />
<use xlink:href="#f1_2e" transform="matrix(12,0,0,12,266,400.1)" />
<use xlink:href="#f1_21" transform="matrix(12,0,0,12,272.2,400.1)" />
<use xlink:href="#f1_2j" transform="matrix(12,0,0,12,285.1,400.1)" />
<use xlink:href="#f1_1x" transform="matrix(12,0,0,12,298.3,400.1)" />
<use xlink:href="#f1_2g" transform="matrix(12,0,0,12,306,400.1)" />
<use xlink:href="#f1_21" transform="matrix(12,0,0,12,311.4,400.1)" />
<use xlink:href="#f1_2e" transform="matrix(12,0,0,12,319.5,400.1)" />
<use xlink:href="#f1_g" transform="matrix(12,0,0,12,325.4,400.1)" />
<use xlink:href="#f1_2g" transform="matrix(12,0,0,12,334.5,400.1)" />
<use xlink:href="#f1_24" transform="matrix(12,0,0,12,340,400.1)" />
<use xlink:href="#f1_21" transform="matrix(12,0,0,12,348.8,400.1)" />
<use xlink:href="#f1_2j" transform="matrix(12,0,0,12,361.6,400.1)" />
<use xlink:href="#f1_1x" transform="matrix(12,0,0,12,374.9,400.1)" />
<use xlink:href="#f1_2g" transform="matrix(12,0,0,12,382.9,400.1)" />
<use xlink:href="#f1_21" transform="matrix(12,0,0,12,388.4,400.1)" />
<use xlink:href="#f1_2e" transform="matrix(12,0,0,12,396.4,400.1)" />
<use xlink:href="#f1_2c" transform="matrix(12,0,0,12,407.1,400.1)" />
<use xlink:href="#f1_2b" transform="matrix(12,0,0,12,415.9,400.1)" />
<use xlink:href="#f1_2g" transform="matrix(12,0,0,12,425,400.1)" />
<use xlink:href="#f1_21" transform="matrix(12,0,0,12,430.5,400.1)" />
<use xlink:href="#f1_2a" transform="matrix(12,0,0,12,438.6,400.1)" />
<use xlink:href="#f1_2g" transform="matrix(12,0,0,12,447.4,400.1)" />
<use xlink:href="#f1_25" transform="matrix(12,0,0,12,452.9,400.1)" />
<use xlink:href="#f1_1x" transform="matrix(12,0,0,12,457.3,400.1)" />
<use xlink:href="#f1_28" transform="matrix(12,0,0,12,465.7,400.1)" />
<use xlink:href="#f1_20" transform="matrix(12,0,0,12,475.2,400.1)" />
<use xlink:href="#f1_2e" transform="matrix(12,0,0,12,484.3,400.1)" />
<use xlink:href="#f1_2b" transform="matrix(12,0,0,12,490.6,400.1)" />
<use xlink:href="#f1_2c" transform="matrix(12,0,0,12,500.1,400.1)" />
<use xlink:href="#f1_2f" transform="matrix(12,0,0,12,509.2,400.1)" />
<use xlink:href="#f1_2g" transform="matrix(12,0,0,12,520.6,400.1)" />
<use xlink:href="#f1_2b" transform="matrix(12,0,0,12,525.7,400.1)" />
<use xlink:href="#f1_2a" transform="matrix(12,0,0,12,540,400.1)" />
<use xlink:href="#f1_21" transform="matrix(12,0,0,12,548.8,400.1)" />
<use xlink:href="#f1_23" transform="matrix(12,0,0,12,556.9,400.1)" />
<use xlink:href="#f1_1x" transform="matrix(12,0,0,12,566,400.1)" />
<use xlink:href="#f1_2g" transform="matrix(12,0,0,12,574.1,400.1)" />
<use xlink:href="#f1_25" transform="matrix(12,0,0,12,579.6,400.1)" />
<use xlink:href="#f1_2i" transform="matrix(12,0,0,12,584.4,400.1)" />
<use xlink:href="#f1_21" transform="matrix(12,0,0,12,593.2,400.1)" />
<use xlink:href="#f1_i" transform="matrix(12,0,0,12,601.2,400.1)" />
<use xlink:href="#f1_1k" transform="matrix(12,0,0,12,610.7,400.1)" />
<use xlink:href="#f1_24" transform="matrix(12,0,0,12,622.1,400.1)" />
<use xlink:href="#f1_25" transform="matrix(12,0,0,12,631.2,400.1)" />
<use xlink:href="#f1_2f" transform="matrix(12,0,0,12,636,400.1)" />
<use xlink:href="#f1_25" transform="matrix(12,0,0,12,648.1,400.1)" />
<use xlink:href="#f1_2f" transform="matrix(12,0,0,12,652.9,400.1)" />
<use xlink:href="#f1_27" transform="matrix(12,0,0,12,664.6,400.1)" />
<use xlink:href="#f1_2a" transform="matrix(12,0,0,12,673.7,400.1)" />
<use xlink:href="#f1_2b" transform="matrix(12,0,0,12,682.5,400.1)" />
<use xlink:href="#f1_2j" transform="matrix(12,0,0,12,692,400.1)" />
<use xlink:href="#f1_2a" transform="matrix(12,0,0,12,705.6,400.1)" />
<use xlink:href="#f1_1x" transform="matrix(12,0,0,12,719.1,400.1)" />
<use xlink:href="#f1_2f" transform="matrix(12,0,0,12,727.2,400.1)" />
<use xlink:href="#f0_2f" transform="matrix(12,0,0,12,739.8,400.1)" />
<use xlink:href="#f0_2b" transform="matrix(12,0,0,12,746.8,400.1)" />
<use xlink:href="#f0_28" transform="matrix(12,0,0,12,756.3,400.1)" />
<use xlink:href="#f0_2h" transform="matrix(12,0,0,12,761.1,400.1)" />
<use xlink:href="#f0_2g" transform="matrix(12,0,0,12,771.3,400.1)" />
<use xlink:href="#f0_21" transform="matrix(12,0,0,12,777.5,400.1)" />
<use xlink:href="#f0_2c" transform="matrix(12,0,0,12,790.4,400.1)" />
<use xlink:href="#f0_2b" transform="matrix(12,0,0,12,800.6,400.1)" />
<use xlink:href="#f0_2g" transform="matrix(12,0,0,12,809.8,400.1)" />
<use xlink:href="#f0_21" transform="matrix(12,0,0,12,816,400.1)" />
<use xlink:href="#f0_2a" transform="matrix(12,0,0,12,824,400.1)" />
<use xlink:href="#f0_2g" transform="matrix(12,0,0,12,834.3,400.1)" />
<use xlink:href="#f0_25" transform="matrix(12,0,0,12,840.5,400.1)" />
<use xlink:href="#f0_1x" transform="matrix(12,0,0,12,845.6,400.1)" />
<use xlink:href="#f0_28" transform="matrix(12,0,0,12,854.8,400.1)" />
<use xlink:href="#f1_i" transform="matrix(12,0,0,12,859.8,400.1)" />
<use xlink:href="#f1_19" transform="matrix(12,0,0,12,869.3,400.1)" />
<use xlink:href="#f1_2g" transform="matrix(12,0,0,12,875.2,400.1)" />
</g>
<path fill-rule="evenodd" d="M55,436.1H880.3V414.4H55v21.7Z" class="g0_179" />
<g fill="#212121" >
<use xlink:href="#f1_25" transform="matrix(12,0,0,12,55,431.7)" />
<use xlink:href="#f1_2f" transform="matrix(12,0,0,12,59.8,431.7)" />
<use xlink:href="#f1_2e" transform="matrix(12,0,0,12,73.4,431.7)" />
<use xlink:href="#f1_21" transform="matrix(12,0,0,12,79.6,431.7)" />
<use xlink:href="#f1_2c" transform="matrix(12,0,0,12,87.6,431.7)" />
<use xlink:href="#f1_2e" transform="matrix(12,0,0,12,96.8,431.7)" />
<use xlink:href="#f1_21" transform="matrix(12,0,0,12,103,431.7)" />
<use xlink:href="#f1_2f" transform="matrix(12,0,0,12,111.1,431.7)" />
<use xlink:href="#f1_21" transform="matrix(12,0,0,12,118,431.7)" />
<use xlink:href="#f1_2a" transform="matrix(12,0,0,12,126.5,431.7)" />
<use xlink:href="#f1_2g" transform="matrix(12,0,0,12,135.3,431.7)" />
<use xlink:href="#f1_21" transform="matrix(12,0,0,12,140.7,431.7)" />
<use xlink:href="#f1_20" transform="matrix(12,0,0,12,148.8,431.7)" />
<use xlink:href="#f1_1y" transform="matrix(12,0,0,12,164.6,431.7)" />
<use xlink:href="#f1_2l" transform="matrix(12,0,0,12,173.7,431.7)" />
<use xlink:href="#f2_2f" transform="matrix(12,0,0,12,188.9,431.7)" />
<use xlink:href="#f2_2l" transform="matrix(12,0,0,12,196.2,431.7)" />
<use xlink:href="#f2_29" transform="matrix(12,0,0,12,205,431.7)" />
<use xlink:href="#f2_1y" transform="matrix(12,0,0,12,219,431.7)" />
<use xlink:href="#f2_2b" transform="matrix(12,0,0,12,227.8,431.7)" />
<use xlink:href="#f2_28" transform="matrix(12,0,0,12,237.6,431.7)" />
<use xlink:href="#f2_el" transform="matrix(12,0,0,12,248.6,431.7)" />
<use xlink:href="#f1_2f" transform="matrix(7.9,0,0,7.9,262.6,433.1)" />
<use xlink:href="#f1_i" transform="matrix(12,0,0,12,267,431.7)" />
<use xlink:href="#f1_19" transform="matrix(12,0,0,12,278.4,431.7)" />
<use xlink:href="#f1_22" transform="matrix(12,0,0,12,284.6,431.7)" />
<use xlink:href="#f1_2c" transform="matrix(12,0,0,12,296.7,431.7)" />
<use xlink:href="#f1_2e" transform="matrix(12,0,0,12,305.9,431.7)" />
<use xlink:href="#f1_21" transform="matrix(12,0,0,12,312.1,431.7)" />
<use xlink:href="#f1_2f" transform="matrix(12,0,0,12,320.2,431.7)" />
<use xlink:href="#f1_2f" transform="matrix(12,0,0,12,327.2,431.7)" />
<use xlink:href="#f1_2h" transform="matrix(12,0,0,12,334.1,431.7)" />
<use xlink:href="#f1_2e" transform="matrix(12,0,0,12,343.3,431.7)" />
<use xlink:href="#f1_21" transform="matrix(12,0,0,12,349.5,431.7)" />
<use xlink:href="#f1_25" transform="matrix(12,0,0,12,364.2,431.7)" />
<use xlink:href="#f1_2f" transform="matrix(12,0,0,12,368.9,431.7)" />
<use xlink:href="#f1_23" transform="matrix(12,0,0,12,382.5,431.7)" />
<use xlink:href="#f1_2e" transform="matrix(12,0,0,12,391.6,431.7)" />
<use xlink:href="#f1_21" transform="matrix(12,0,0,12,397.8,431.7)" />
<use xlink:href="#f1_1x" transform="matrix(12,0,0,12,405.9,431.7)" />
<use xlink:href="#f1_2g" transform="matrix(12,0,0,12,414,431.7)" />
<use xlink:href="#f1_21" transform="matrix(12,0,0,12,419.5,431.7)" />
<use xlink:href="#f1_2e" transform="matrix(12,0,0,12,427.2,431.7)" />
<use xlink:href="#f1_2g" transform="matrix(12,0,0,12,439.6,431.7)" />
<use xlink:href="#f1_24" transform="matrix(12,0,0,12,445.1,431.7)" />
<use xlink:href="#f1_1x" transform="matrix(12,0,0,12,453.9,431.7)" />
<use xlink:href="#f1_2a" transform="matrix(12,0,0,12,461.9,431.7)" />
<use xlink:href="#f1_2g" transform="matrix(12,0,0,12,477.3,431.7)" />
<use xlink:href="#f1_24" transform="matrix(12,0,0,12,482.8,431.7)" />
<use xlink:href="#f1_21" transform="matrix(12,0,0,12,491.6,431.7)" />
<use xlink:href="#f1_1x" transform="matrix(12,0,0,12,506.3,431.7)" />
<use xlink:href="#f1_2g" transform="matrix(12,0,0,12,514,431.7)" />
<use xlink:href="#f1_29" transform="matrix(12,0,0,12,519.4,431.7)" />
<use xlink:href="#f1_2b" transform="matrix(12,0,0,12,533,431.7)" />
<use xlink:href="#f1_2f" transform="matrix(12,0,0,12,542.5,431.7)" />
<use xlink:href="#f1_2c" transform="matrix(12,0,0,12,549.5,431.7)" />
<use xlink:href="#f1_24" transform="matrix(12,0,0,12,558.7,431.7)" />
<use xlink:href="#f1_21" transform="matrix(12,0,0,12,567.5,431.7)" />
<use xlink:href="#f1_2e" transform="matrix(12,0,0,12,575.5,431.7)" />
<use xlink:href="#f1_25" transform="matrix(12,0,0,12,582.1,431.7)" />
<use xlink:href="#f1_1z" transform="matrix(12,0,0,12,586.9,431.7)" />
<use xlink:href="#f1_2c" transform="matrix(12,0,0,12,601.5,431.7)" />
<use xlink:href="#f1_2e" transform="matrix(12,0,0,12,610.7,431.7)" />
<use xlink:href="#f1_21" transform="matrix(12,0,0,12,616.9,431.7)" />
<use xlink:href="#f1_2f" transform="matrix(12,0,0,12,625,431.7)" />
<use xlink:href="#f1_2f" transform="matrix(12,0,0,12,631.9,431.7)" />
<use xlink:href="#f1_2h" transform="matrix(12,0,0,12,638.9,431.7)" />
<use xlink:href="#f1_2e" transform="matrix(12,0,0,12,648.1,431.7)" />
<use xlink:href="#f1_21" transform="matrix(12,0,0,12,654.3,431.7)" />
<use xlink:href="#f1_25" transform="matrix(12,0,0,12,669.3,431.7)" />
<use xlink:href="#f1_2a" transform="matrix(12,0,0,12,674.1,431.7)" />
<use xlink:href="#f1_1z" transform="matrix(12,0,0,12,689.4,431.7)" />
<use xlink:href="#f1_1x" transform="matrix(12,0,0,12,697.5,431.7)" />
<use xlink:href="#f1_2f" transform="matrix(12,0,0,12,705.6,431.7)" />
<use xlink:href="#f1_21" transform="matrix(12,0,0,12,712.5,431.7)" />
<use xlink:href="#f1_2b" transform="matrix(12,0,0,12,727.2,431.7)" />
<use xlink:href="#f1_22" transform="matrix(12,0,0,12,736.7,431.7)" />
<use xlink:href="#f1_2c" transform="matrix(12,0,0,12,748.8,431.7)" />
<use xlink:href="#f1_2h" transform="matrix(12,0,0,12,758,431.7)" />
<use xlink:href="#f1_2e" transform="matrix(12,0,0,12,767.1,431.7)" />
<use xlink:href="#f1_21" transform="matrix(12,0,0,12,773.3,431.7)" />
<use xlink:href="#f1_2j" transform="matrix(12,0,0,12,787.6,431.7)" />
<use xlink:href="#f1_1x" transform="matrix(12,0,0,12,800.4,431.7)" />
<use xlink:href="#f1_2g" transform="matrix(12,0,0,12,808.5,431.7)" />
<use xlink:href="#f1_21" transform="matrix(12,0,0,12,814,431.7)" />
<use xlink:href="#f1_2e" transform="matrix(12,0,0,12,822.1,431.7)" />
<use xlink:href="#f1_g" transform="matrix(12,0,0,12,827.9,431.7)" />
<use xlink:href="#f1_2j" transform="matrix(12,0,0,12,839.6,431.7)" />
<use xlink:href="#f1_1x" transform="matrix(12,0,0,12,852.8,431.7)" />
<use xlink:href="#f1_2g" transform="matrix(12,0,0,12,860.9,431.7)" />
<use xlink:href="#f1_21" transform="matrix(12,0,0,12,866.3,431.7)" />
<use xlink:href="#f1_2e" transform="matrix(12,0,0,12,874,431.7)" />
</g>
<path fill-rule="evenodd" d="M55,467.7H880.3V446.3H55v21.4Z" class="g0_179" />
<g fill="#212121" >
<use xlink:href="#f1_2c" transform="matrix(12,0,0,12,55,463.6)" />
<use xlink:href="#f1_2b" transform="matrix(12,0,0,12,64.2,463.6)" />
<use xlink:href="#f1_2g" transform="matrix(12,0,0,12,73.4,463.6)" />
<use xlink:href="#f1_21" transform="matrix(12,0,0,12,78.9,463.6)" />
<use xlink:href="#f1_2a" transform="matrix(12,0,0,12,86.9,463.6)" />
<use xlink:href="#f1_2g" transform="matrix(12,0,0,12,95.7,463.6)" />
<use xlink:href="#f1_25" transform="matrix(12,0,0,12,101.2,463.6)" />
<use xlink:href="#f1_1x" transform="matrix(12,0,0,12,105.6,463.6)" />
<use xlink:href="#f1_28" transform="matrix(12,0,0,12,114,463.6)" />
<use xlink:href="#f1_25" transform="matrix(12,0,0,12,124.6,463.6)" />
<use xlink:href="#f1_2a" transform="matrix(12,0,0,12,129.4,463.6)" />
<use xlink:href="#f1_1z" transform="matrix(12,0,0,12,138.6,463.6)" />
<use xlink:href="#f1_2e" transform="matrix(12,0,0,12,146.6,463.6)" />
<use xlink:href="#f1_21" transform="matrix(12,0,0,12,152.8,463.6)" />
<use xlink:href="#f1_1x" transform="matrix(12,0,0,12,160.9,463.6)" />
<use xlink:href="#f1_2f" transform="matrix(12,0,0,12,169,463.6)" />
<use xlink:href="#f1_21" transform="matrix(12,0,0,12,176.3,463.6)" />
<use xlink:href="#f1_2f" transform="matrix(12,0,0,12,184.4,463.6)" />
<use xlink:href="#f1_i" transform="matrix(12,0,0,12,191.3,463.6)" />
<use xlink:href="#f0_16" transform="matrix(12,0,0,12,201.7,463.6)" />
<use xlink:href="#f0_2e" transform="matrix(12,0,0,12,213.1,463.6)" />
<use xlink:href="#f0_2b" transform="matrix(12,0,0,12,220.8,463.6)" />
<use xlink:href="#f0_29" transform="matrix(12,0,0,12,230.3,463.6)" />
<use xlink:href="#f0_22" transform="matrix(12,0,0,12,250.8,463.6)" />
<use xlink:href="#f0_25" transform="matrix(12,0,0,12,256.7,463.6)" />
<use xlink:href="#f0_23" transform="matrix(12,0,0,12,261.8,463.6)" />
<use xlink:href="#f0_i" transform="matrix(12,0,0,12,271,463.6)" />
<use xlink:href="#f0_o" transform="matrix(12,0,0,12,275.7,463.6)" />
<use xlink:href="#f1_25" transform="matrix(12,0,0,12,290.9,463.6)" />
<use xlink:href="#f1_2g" transform="matrix(12,0,0,12,295.3,463.6)" />
<use xlink:href="#f1_25" transform="matrix(12,0,0,12,306.6,463.6)" />
<use xlink:href="#f1_2f" transform="matrix(12,0,0,12,311.4,463.6)" />
<use xlink:href="#f1_1z" transform="matrix(12,0,0,12,323.8,463.6)" />
<use xlink:href="#f1_28" transform="matrix(12,0,0,12,332.2,463.6)" />
<use xlink:href="#f1_21" transform="matrix(12,0,0,12,337,463.6)" />
<use xlink:href="#f1_1x" transform="matrix(12,0,0,12,345.1,463.6)" />
<use xlink:href="#f1_2e" transform="matrix(12,0,0,12,353.1,463.6)" />
<use xlink:href="#f1_2g" transform="matrix(12,0,0,12,364.8,463.6)" />
<use xlink:href="#f1_24" transform="matrix(12,0,0,12,370.3,463.6)" />
<use xlink:href="#f1_1x" transform="matrix(12,0,0,12,379.1,463.6)" />
<use xlink:href="#f1_2g" transform="matrix(12,0,0,12,387.2,463.6)" />
<use xlink:href="#f1_2j" transform="matrix(12,0,0,12,398.1,463.6)" />
<use xlink:href="#f1_1x" transform="matrix(12,0,0,12,411.4,463.6)" />
<use xlink:href="#f1_2g" transform="matrix(12,0,0,12,419.4,463.6)" />
<use xlink:href="#f1_21" transform="matrix(12,0,0,12,424.5,463.6)" />
<use xlink:href="#f1_2e" transform="matrix(12,0,0,12,432.6,463.6)" />
<use xlink:href="#f1_29" transform="matrix(12,0,0,12,444.7,463.6)" />
<use xlink:href="#f1_2b" transform="matrix(12,0,0,12,458.2,463.6)" />
<use xlink:href="#f1_2i" transform="matrix(12,0,0,12,467.8,463.6)" />
<use xlink:href="#f1_21" transform="matrix(12,0,0,12,476.6,463.6)" />
<use xlink:href="#f1_2f" transform="matrix(12,0,0,12,484.6,463.6)" />
<use xlink:href="#f1_22" transform="matrix(12,0,0,12,497.4,463.6)" />
<use xlink:href="#f1_2e" transform="matrix(12,0,0,12,502.9,463.6)" />
<use xlink:href="#f1_2b" transform="matrix(12,0,0,12,509.2,463.6)" />
<use xlink:href="#f1_29" transform="matrix(12,0,0,12,519,463.6)" />
<use xlink:href="#f1_1x" transform="matrix(12,0,0,12,538.1,463.6)" />
<use xlink:href="#f1_2e" transform="matrix(12,0,0,12,551.6,463.6)" />
<use xlink:href="#f1_21" transform="matrix(12,0,0,12,557.8,463.6)" />
<use xlink:href="#f1_23" transform="matrix(12,0,0,12,565.9,463.6)" />
<use xlink:href="#f1_25" transform="matrix(12,0,0,12,575.4,463.6)" />
<use xlink:href="#f1_2b" transform="matrix(12,0,0,12,579.8,463.6)" />
<use xlink:href="#f1_2a" transform="matrix(12,0,0,12,589.7,463.6)" />
<use xlink:href="#f1_2b" transform="matrix(12,0,0,12,604,463.6)" />
<use xlink:href="#f1_22" transform="matrix(12,0,0,12,613.9,463.6)" />
<use xlink:href="#f1_24" transform="matrix(12,0,0,12,624.9,463.6)" />
<use xlink:href="#f1_25" transform="matrix(12,0,0,12,634,463.6)" />
<use xlink:href="#f1_23" transform="matrix(12,0,0,12,638.8,463.6)" />
<use xlink:href="#f1_24" transform="matrix(12,0,0,12,648.3,463.6)" />
<use xlink:href="#f1_2j" transform="matrix(12,0,0,12,662.6,463.6)" />
<use xlink:href="#f1_1x" transform="matrix(12,0,0,12,676.1,463.6)" />
<use xlink:href="#f1_2g" transform="matrix(12,0,0,12,684.2,463.6)" />
<use xlink:href="#f1_21" transform="matrix(12,0,0,12,689.7,463.6)" />
<use xlink:href="#f1_2e" transform="matrix(12,0,0,12,697.7,463.6)" />
<use xlink:href="#f1_2c" transform="matrix(12,0,0,12,709.4,463.6)" />
<use xlink:href="#f1_2b" transform="matrix(12,0,0,12,718.2,463.6)" />
<use xlink:href="#f1_2g" transform="matrix(12,0,0,12,727.4,463.6)" />
<use xlink:href="#f1_21" transform="matrix(12,0,0,12,732.9,463.6)" />
<use xlink:href="#f1_2a" transform="matrix(12,0,0,12,741,463.6)" />
<use xlink:href="#f1_2g" transform="matrix(12,0,0,12,749.8,463.6)" />
<use xlink:href="#f1_25" transform="matrix(12,0,0,12,755.2,463.6)" />
<use xlink:href="#f1_1x" transform="matrix(12,0,0,12,759.6,463.6)" />
<use xlink:href="#f1_28" transform="matrix(12,0,0,12,768.1,463.6)" />
<use xlink:href="#f1_2g" transform="matrix(12,0,0,12,778.3,463.6)" />
<use xlink:href="#f1_2b" transform="matrix(12,0,0,12,783.8,463.6)" />
<use xlink:href="#f1_1x" transform="matrix(12,0,0,12,798.4,463.6)" />
<use xlink:href="#f1_2e" transform="matrix(12,0,0,12,812,463.6)" />
<use xlink:href="#f1_21" transform="matrix(12,0,0,12,818.2,463.6)" />
<use xlink:href="#f1_23" transform="matrix(12,0,0,12,826.2,463.6)" />
<use xlink:href="#f1_25" transform="matrix(12,0,0,12,835.8,463.6)" />
<use xlink:href="#f1_2b" transform="matrix(12,0,0,12,840.2,463.6)" />
<use xlink:href="#f1_2a" transform="matrix(12,0,0,12,849.7,463.6)" />
<use xlink:href="#f1_2b" transform="matrix(12,0,0,12,864,463.6)" />
<use xlink:href="#f1_22" transform="matrix(12,0,0,12,873.5,463.6)" />
</g>
<path fill-rule="evenodd" d="M55,499.2H552.1V477.9H55v21.3Z" class="g0_179" />
<g fill="#212121" >
<use xlink:href="#f1_28" transform="matrix(12,0,0,12,55,495.2)" />
<use xlink:href="#f1_2b" transform="matrix(12,0,0,12,59.4,495.2)" />
<use xlink:href="#f1_2j" transform="matrix(12,0,0,12,69,495.2)" />
<use xlink:href="#f1_2j" transform="matrix(12,0,0,12,86.9,495.2)" />
<use xlink:href="#f1_1x" transform="matrix(12,0,0,12,100.1,495.2)" />
<use xlink:href="#f1_2g" transform="matrix(12,0,0,12,108.2,495.2)" />
<use xlink:href="#f1_21" transform="matrix(12,0,0,12,113.6,495.2)" />
<use xlink:href="#f1_2e" transform="matrix(12,0,0,12,121.7,495.2)" />
<use xlink:href="#f1_2c" transform="matrix(12,0,0,12,132.7,495.2)" />
<use xlink:href="#f1_2b" transform="matrix(12,0,0,12,141.5,495.2)" />
<use xlink:href="#f1_2g" transform="matrix(12,0,0,12,150.6,495.2)" />
<use xlink:href="#f1_21" transform="matrix(12,0,0,12,156.1,495.2)" />
<use xlink:href="#f1_2a" transform="matrix(12,0,0,12,164.2,495.2)" />
<use xlink:href="#f1_2g" transform="matrix(12,0,0,12,173,495.2)" />
<use xlink:href="#f1_25" transform="matrix(12,0,0,12,178.5,495.2)" />
<use xlink:href="#f1_1x" transform="matrix(12,0,0,12,182.9,495.2)" />
<use xlink:href="#f1_28" transform="matrix(12,0,0,12,191.3,495.2)" />
<use xlink:href="#f1_2b" transform="matrix(12,0,0,12,200.4,495.2)" />
<use xlink:href="#f1_2e" transform="matrix(12,0,0,12,210,495.2)" />
<use xlink:href="#f1_22" transform="matrix(12,0,0,12,220.9,495.2)" />
<use xlink:href="#f1_2e" transform="matrix(12,0,0,12,226.4,495.2)" />
<use xlink:href="#f1_2b" transform="matrix(12,0,0,12,232.6,495.2)" />
<use xlink:href="#f1_29" transform="matrix(12,0,0,12,242.5,495.2)" />
<use xlink:href="#f1_20" transform="matrix(12,0,0,12,260.8,495.2)" />
<use xlink:href="#f1_25" transform="matrix(12,0,0,12,270.3,495.2)" />
<use xlink:href="#f1_28" transform="matrix(12,0,0,12,275.1,495.2)" />
<use xlink:href="#f1_2h" transform="matrix(12,0,0,12,279.9,495.2)" />
<use xlink:href="#f1_2g" transform="matrix(12,0,0,12,289,495.2)" />
<use xlink:href="#f1_21" transform="matrix(12,0,0,12,294.5,495.2)" />
<use xlink:href="#f1_2f" transform="matrix(12,0,0,12,307.3,495.2)" />
<use xlink:href="#f1_2b" transform="matrix(12,0,0,12,314.3,495.2)" />
<use xlink:href="#f1_28" transform="matrix(12,0,0,12,323.8,495.2)" />
<use xlink:href="#f1_2h" transform="matrix(12,0,0,12,328.2,495.2)" />
<use xlink:href="#f1_2g" transform="matrix(12,0,0,12,337.4,495.2)" />
<use xlink:href="#f1_25" transform="matrix(12,0,0,12,343.2,495.2)" />
<use xlink:href="#f1_2b" transform="matrix(12,0,0,12,347.6,495.2)" />
<use xlink:href="#f1_2a" transform="matrix(12,0,0,12,357.2,495.2)" />
<use xlink:href="#f1_2g" transform="matrix(12,0,0,12,370.7,495.2)" />
<use xlink:href="#f1_2b" transform="matrix(12,0,0,12,375.8,495.2)" />
<use xlink:href="#f1_1z" transform="matrix(12,0,0,12,390.1,495.2)" />
<use xlink:href="#f1_2b" transform="matrix(12,0,0,12,397.8,495.2)" />
<use xlink:href="#f1_2a" transform="matrix(12,0,0,12,407.3,495.2)" />
<use xlink:href="#f1_1z" transform="matrix(12,0,0,12,416.1,495.2)" />
<use xlink:href="#f1_21" transform="matrix(12,0,0,12,424.2,495.2)" />
<use xlink:href="#f1_2a" transform="matrix(12,0,0,12,432.2,495.2)" />
<use xlink:href="#f1_2g" transform="matrix(12,0,0,12,441,495.2)" />
<use xlink:href="#f1_2e" transform="matrix(12,0,0,12,446.5,495.2)" />
<use xlink:href="#f1_1x" transform="matrix(12,0,0,12,452.7,495.2)" />
<use xlink:href="#f1_2g" transform="matrix(12,0,0,12,460.8,495.2)" />
<use xlink:href="#f1_21" transform="matrix(12,0,0,12,466.3,495.2)" />
<use xlink:href="#f1_20" transform="matrix(12,0,0,12,474.4,495.2)" />
<use xlink:href="#f1_2f" transform="matrix(12,0,0,12,487.9,495.2)" />
<use xlink:href="#f1_2b" transform="matrix(12,0,0,12,494.9,495.2)" />
<use xlink:href="#f1_28" transform="matrix(12,0,0,12,504.4,495.2)" />
<use xlink:href="#f1_2h" transform="matrix(12,0,0,12,508.8,495.2)" />
<use xlink:href="#f1_2g" transform="matrix(12,0,0,12,518,495.2)" />
<use xlink:href="#f1_25" transform="matrix(12,0,0,12,523.8,495.2)" />
<use xlink:href="#f1_2b" transform="matrix(12,0,0,12,528.2,495.2)" />
<use xlink:href="#f1_2a" transform="matrix(12,0,0,12,537.7,495.2)" />
<use xlink:href="#f1_i" transform="matrix(12,0,0,12,546.5,495.2)" />
</g>
<path fill-rule="evenodd" d="M55,543.2H880.3V521.6H55v21.6Z" class="g0_179" />
<g fill="#212121" >
<use xlink:href="#f1_1n" transform="matrix(12,0,0,12,55,538.8)" />
<use xlink:href="#f1_24" transform="matrix(12,0,0,12,72.3,538.8)" />
<use xlink:href="#f1_21" transform="matrix(12,0,0,12,81.1,538.8)" />
<use xlink:href="#f1_2a" transform="matrix(12,0,0,12,89.5,538.8)" />
<use xlink:href="#f1_2j" transform="matrix(12,0,0,12,103.8,538.8)" />
<use xlink:href="#f1_1x" transform="matrix(12,0,0,12,117,538.8)" />
<use xlink:href="#f1_2g" transform="matrix(12,0,0,12,125,538.8)" />
<use xlink:href="#f1_21" transform="matrix(12,0,0,12,130.5,538.8)" />
<use xlink:href="#f1_2e" transform="matrix(12,0,0,12,138.6,538.8)" />
<use xlink:href="#f1_21" transform="matrix(12,0,0,12,150.3,538.8)" />
<use xlink:href="#f1_2a" transform="matrix(12,0,0,12,158.3,538.8)" />
<use xlink:href="#f1_2g" transform="matrix(12,0,0,12,167.1,538.8)" />
<use xlink:href="#f1_21" transform="matrix(12,0,0,12,172.6,538.8)" />
<use xlink:href="#f1_2e" transform="matrix(12,0,0,12,180.7,538.8)" />
<use xlink:href="#f1_2f" transform="matrix(12,0,0,12,186.9,538.8)" />
<use xlink:href="#f1_2g" transform="matrix(12,0,0,12,199.4,538.8)" />
<use xlink:href="#f1_24" transform="matrix(12,0,0,12,204.8,538.8)" />
<use xlink:href="#f1_21" transform="matrix(12,0,0,12,213.6,538.8)" />
<use xlink:href="#f1_2c" transform="matrix(12,0,0,12,227.2,538.8)" />
<use xlink:href="#f1_28" transform="matrix(12,0,0,12,236.7,538.8)" />
<use xlink:href="#f1_1x" transform="matrix(12,0,0,12,241.1,538.8)" />
<use xlink:href="#f1_2a" transform="matrix(12,0,0,12,249.5,538.8)" />
<use xlink:href="#f1_2g" transform="matrix(12,0,0,12,258.3,538.8)" />
<use xlink:href="#f1_1z" transform="matrix(12,0,0,12,269.3,538.8)" />
<use xlink:href="#f1_21" transform="matrix(12,0,0,12,277.3,538.8)" />
<use xlink:href="#f1_28" transform="matrix(12,0,0,12,285.8,538.8)" />
<use xlink:href="#f1_28" transform="matrix(12,0,0,12,290.5,538.8)" />
<use xlink:href="#f1_g" transform="matrix(12,0,0,12,295.3,538.8)" />
<use xlink:href="#f1_2c" transform="matrix(12,0,0,12,305.5,538.8)" />
<use xlink:href="#f1_2e" transform="matrix(12,0,0,12,314.7,538.8)" />
<use xlink:href="#f1_21" transform="matrix(12,0,0,12,320.9,538.8)" />
<use xlink:href="#f1_2f" transform="matrix(12,0,0,12,329,538.8)" />
<use xlink:href="#f1_2f" transform="matrix(12,0,0,12,335.9,538.8)" />
<use xlink:href="#f1_2h" transform="matrix(12,0,0,12,342.9,538.8)" />
<use xlink:href="#f1_2e" transform="matrix(12,0,0,12,352.1,538.8)" />
<use xlink:href="#f1_21" transform="matrix(12,0,0,12,358.3,538.8)" />
<use xlink:href="#f1_20" transform="matrix(12,0,0,12,371.8,538.8)" />
<use xlink:href="#f1_21" transform="matrix(12,0,0,12,381,538.8)" />
<use xlink:href="#f1_2i" transform="matrix(12,0,0,12,389.4,538.8)" />
<use xlink:href="#f1_21" transform="matrix(12,0,0,12,398.2,538.8)" />
<use xlink:href="#f1_28" transform="matrix(12,0,0,12,406.6,538.8)" />
<use xlink:href="#f1_2b" transform="matrix(12,0,0,12,411,538.8)" />
<use xlink:href="#f1_2c" transform="matrix(12,0,0,12,420.5,538.8)" />
<use xlink:href="#f1_2f" transform="matrix(12,0,0,12,430,538.8)" />
<use xlink:href="#f1_25" transform="matrix(12,0,0,12,442.9,538.8)" />
<use xlink:href="#f1_2a" transform="matrix(12,0,0,12,447.6,538.8)" />
<use xlink:href="#f1_2f" transform="matrix(12,0,0,12,456.4,538.8)" />
<use xlink:href="#f1_25" transform="matrix(12,0,0,12,463.7,538.8)" />
<use xlink:href="#f1_20" transform="matrix(12,0,0,12,468.5,538.8)" />
<use xlink:href="#f1_21" transform="matrix(12,0,0,12,478,538.8)" />
<use xlink:href="#f1_2g" transform="matrix(12,0,0,12,491.6,538.8)" />
<use xlink:href="#f1_24" transform="matrix(12,0,0,12,497.1,538.8)" />
<use xlink:href="#f1_21" transform="matrix(12,0,0,12,505.9,538.8)" />
<use xlink:href="#f1_1z" transform="matrix(12,0,0,12,519.8,538.8)" />
<use xlink:href="#f1_21" transform="matrix(12,0,0,12,527.8,538.8)" />
<use xlink:href="#f1_28" transform="matrix(12,0,0,12,536.2,538.8)" />
<use xlink:href="#f1_28" transform="matrix(12,0,0,12,541,538.8)" />
<use xlink:href="#f1_1x" transform="matrix(12,0,0,12,551.2,538.8)" />
<use xlink:href="#f1_23" transform="matrix(12,0,0,12,559.3,538.8)" />
<use xlink:href="#f1_1x" transform="matrix(12,0,0,12,568.5,538.8)" />
<use xlink:href="#f1_25" transform="matrix(12,0,0,12,576.9,538.8)" />
<use xlink:href="#f1_2a" transform="matrix(12,0,0,12,581.7,538.8)" />
<use xlink:href="#f1_2f" transform="matrix(12,0,0,12,590.8,538.8)" />
<use xlink:href="#f1_2g" transform="matrix(12,0,0,12,597.8,538.8)" />
<use xlink:href="#f1_2g" transform="matrix(12,0,0,12,608.8,538.8)" />
<use xlink:href="#f1_24" transform="matrix(12,0,0,12,614.2,538.8)" />
<use xlink:href="#f1_21" transform="matrix(12,0,0,12,623,538.8)" />
<use xlink:href="#f1_1z" transform="matrix(12,0,0,12,636.6,538.8)" />
<use xlink:href="#f1_21" transform="matrix(12,0,0,12,644.7,538.8)" />
<use xlink:href="#f1_28" transform="matrix(12,0,0,12,653.1,538.8)" />
<use xlink:href="#f1_28" transform="matrix(12,0,0,12,657.8,538.8)" />
<use xlink:href="#f1_2j" transform="matrix(12,0,0,12,668.1,538.8)" />
<use xlink:href="#f1_1x" transform="matrix(12,0,0,12,681.3,538.8)" />
<use xlink:href="#f1_28" transform="matrix(12,0,0,12,689.7,538.8)" />
<use xlink:href="#f1_28" transform="matrix(12,0,0,12,694.8,538.8)" />
<use xlink:href="#f1_29" transform="matrix(12,0,0,12,705.4,538.8)" />
<use xlink:href="#f1_1x" transform="matrix(12,0,0,12,719.4,538.8)" />
<use xlink:href="#f1_27" transform="matrix(12,0,0,12,727.4,538.8)" />
<use xlink:href="#f1_25" transform="matrix(12,0,0,12,737,538.8)" />
<use xlink:href="#f1_2a" transform="matrix(12,0,0,12,741.7,538.8)" />
<use xlink:href="#f1_23" transform="matrix(12,0,0,12,750.9,538.8)" />
<use xlink:href="#f1_25" transform="matrix(12,0,0,12,765.9,538.8)" />
<use xlink:href="#f1_2g" transform="matrix(12,0,0,12,770.3,538.8)" />
<use xlink:href="#f1_2f" transform="matrix(12,0,0,12,775.8,538.8)" />
<use xlink:href="#f1_29" transform="matrix(12,0,0,12,788.6,538.8)" />
<use xlink:href="#f1_2b" transform="matrix(12,0,0,12,802.5,538.8)" />
<use xlink:href="#f1_2e" transform="matrix(12,0,0,12,812.1,538.8)" />
<use xlink:href="#f1_21" transform="matrix(12,0,0,12,818.3,538.8)" />
<use xlink:href="#f1_2g" transform="matrix(12,0,0,12,831.5,538.8)" />
<use xlink:href="#f1_2h" transform="matrix(12,0,0,12,836.6,538.8)" />
<use xlink:href="#f1_2e" transform="matrix(12,0,0,12,845.7,538.8)" />
<use xlink:href="#f1_23" transform="matrix(12,0,0,12,852,538.8)" />
<use xlink:href="#f1_25" transform="matrix(12,0,0,12,861.1,538.8)" />
<use xlink:href="#f1_20" transform="matrix(12,0,0,12,865.5,538.8)" />
<use xlink:href="#f1_i" transform="matrix(12,0,0,12,874.7,538.8)" />
</g>
<path fill-rule="evenodd" d="M55,574.7H880.3V553.5H55v21.2Z" class="g0_179" />
<g fill="#212121" >
<use xlink:href="#f1_1k" transform="matrix(12,0,0,12,55,570.7)" />
<use xlink:href="#f1_24" transform="matrix(12,0,0,12,66.4,570.7)" />
<use xlink:href="#f1_25" transform="matrix(12,0,0,12,75.6,570.7)" />
<use xlink:href="#f1_2f" transform="matrix(12,0,0,12,80.3,570.7)" />
<use xlink:href="#f1_2e" transform="matrix(12,0,0,12,94.6,570.7)" />
<use xlink:href="#f1_1x" transform="matrix(12,0,0,12,100.8,570.7)" />
<use xlink:href="#f1_25" transform="matrix(12,0,0,12,109.2,570.7)" />
<use xlink:href="#f1_2f" transform="matrix(12,0,0,12,113.6,570.7)" />
<use xlink:href="#f1_21" transform="matrix(12,0,0,12,120.9,570.7)" />
<use xlink:href="#f1_2f" transform="matrix(12,0,0,12,129,570.7)" />
<use xlink:href="#f1_2g" transform="matrix(12,0,0,12,143.3,570.7)" />
<use xlink:href="#f1_24" transform="matrix(12,0,0,12,148.8,570.7)" />
<use xlink:href="#f1_21" transform="matrix(12,0,0,12,157.6,570.7)" />
<use xlink:href="#f1_2c" transform="matrix(12,0,0,12,173,570.7)" />
<use xlink:href="#f1_2e" transform="matrix(12,0,0,12,182.1,570.7)" />
<use xlink:href="#f1_21" transform="matrix(12,0,0,12,188.3,570.7)" />
<use xlink:href="#f1_2f" transform="matrix(12,0,0,12,196.4,570.7)" />
<use xlink:href="#f1_2f" transform="matrix(12,0,0,12,203.4,570.7)" />
<use xlink:href="#f1_2h" transform="matrix(12,0,0,12,210.3,570.7)" />
<use xlink:href="#f1_2e" transform="matrix(12,0,0,12,219.5,570.7)" />
<use xlink:href="#f1_21" transform="matrix(12,0,0,12,225.7,570.7)" />
<use xlink:href="#f1_2c" transform="matrix(12,0,0,12,241.1,570.7)" />
<use xlink:href="#f1_2b" transform="matrix(12,0,0,12,250.3,570.7)" />
<use xlink:href="#f1_2g" transform="matrix(12,0,0,12,259.4,570.7)" />
<use xlink:href="#f1_21" transform="matrix(12,0,0,12,264.9,570.7)" />
<use xlink:href="#f1_2a" transform="matrix(12,0,0,12,273,570.7)" />
<use xlink:href="#f1_2g" transform="matrix(12,0,0,12,281.8,570.7)" />
<use xlink:href="#f1_25" transform="matrix(12,0,0,12,287.3,570.7)" />
<use xlink:href="#f1_1x" transform="matrix(12,0,0,12,291.7,570.7)" />
<use xlink:href="#f1_28" transform="matrix(12,0,0,12,300.1,570.7)" />
<use xlink:href="#f1_i" transform="matrix(12,0,0,12,304.5,570.7)" />
<use xlink:href="#f1_1j" transform="matrix(12,0,0,12,316.5,570.7)" />
<use xlink:href="#f1_2b" transform="matrix(12,0,0,12,326.8,570.7)" />
<use xlink:href="#f1_g" transform="matrix(12,0,0,12,336.3,570.7)" />
<use xlink:href="#f1_2g" transform="matrix(12,0,0,12,347.7,570.7)" />
<use xlink:href="#f1_24" transform="matrix(12,0,0,12,353.1,570.7)" />
<use xlink:href="#f1_21" transform="matrix(12,0,0,12,361.9,570.7)" />
<use xlink:href="#f1_2e" transform="matrix(12,0,0,12,377.3,570.7)" />
<use xlink:href="#f1_21" transform="matrix(12,0,0,12,383.5,570.7)" />
<use xlink:href="#f1_28" transform="matrix(12,0,0,12,391.9,570.7)" />
<use xlink:href="#f1_1x" transform="matrix(12,0,0,12,396.3,570.7)" />
<use xlink:href="#f1_2g" transform="matrix(12,0,0,12,404.4,570.7)" />
<use xlink:href="#f1_25" transform="matrix(12,0,0,12,410.3,570.7)" />
<use xlink:href="#f1_2b" transform="matrix(12,0,0,12,414.7,570.7)" />
<use xlink:href="#f1_2a" transform="matrix(12,0,0,12,424.2,570.7)" />
<use xlink:href="#f1_2f" transform="matrix(12,0,0,12,433,570.7)" />
<use xlink:href="#f1_24" transform="matrix(12,0,0,12,440.3,570.7)" />
<use xlink:href="#f1_25" transform="matrix(12,0,0,12,449.5,570.7)" />
<use xlink:href="#f1_2c" transform="matrix(12,0,0,12,454.2,570.7)" />
<use xlink:href="#f1_1y" transform="matrix(12,0,0,12,471.1,570.7)" />
<use xlink:href="#f1_21" transform="matrix(12,0,0,12,479.9,570.7)" />
<use xlink:href="#f1_2g" transform="matrix(12,0,0,12,487.9,570.7)" />
<use xlink:href="#f1_2j" transform="matrix(12,0,0,12,493.4,570.7)" />
<use xlink:href="#f1_21" transform="matrix(12,0,0,12,506.7,570.7)" />
<use xlink:href="#f1_21" transform="matrix(12,0,0,12,514.7,570.7)" />
<use xlink:href="#f1_2a" transform="matrix(12,0,0,12,522.8,570.7)" />
<use xlink:href="#f1_2j" transform="matrix(12,0,0,12,538.9,570.7)" />
<use xlink:href="#f1_1x" transform="matrix(12,0,0,12,552.1,570.7)" />
<use xlink:href="#f1_2g" transform="matrix(12,0,0,12,560.1,570.7)" />
<use xlink:href="#f1_21" transform="matrix(12,0,0,12,565.6,570.7)" />
<use xlink:href="#f1_2e" transform="matrix(12,0,0,12,573.7,570.7)" />
<use xlink:href="#f1_2c" transform="matrix(12,0,0,12,587.2,570.7)" />
<use xlink:href="#f1_2b" transform="matrix(12,0,0,12,596,570.7)" />
<use xlink:href="#f1_2g" transform="matrix(12,0,0,12,605.2,570.7)" />
<use xlink:href="#f1_21" transform="matrix(12,0,0,12,610.7,570.7)" />
<use xlink:href="#f1_2a" transform="matrix(12,0,0,12,618.7,570.7)" />
<use xlink:href="#f1_2g" transform="matrix(12,0,0,12,627.5,570.7)" />
<use xlink:href="#f1_25" transform="matrix(12,0,0,12,633,570.7)" />
<use xlink:href="#f1_1x" transform="matrix(12,0,0,12,637.4,570.7)" />
<use xlink:href="#f1_28" transform="matrix(12,0,0,12,645.8,570.7)" />
<use xlink:href="#f1_g" transform="matrix(12,0,0,12,650.2,570.7)" />
<use xlink:href="#f1_2f" transform="matrix(12,0,0,12,662.3,570.7)" />
<use xlink:href="#f1_2b" transform="matrix(12,0,0,12,669.3,570.7)" />
<use xlink:href="#f1_28" transform="matrix(12,0,0,12,679.1,570.7)" />
<use xlink:href="#f1_2h" transform="matrix(12,0,0,12,683.5,570.7)" />
<use xlink:href="#f1_2g" transform="matrix(12,0,0,12,692.7,570.7)" />
<use xlink:href="#f1_21" transform="matrix(12,0,0,12,698.2,570.7)" />
<use xlink:href="#f1_2c" transform="matrix(12,0,0,12,713.6,570.7)" />
<use xlink:href="#f1_2b" transform="matrix(12,0,0,12,722.7,570.7)" />
<use xlink:href="#f1_2g" transform="matrix(12,0,0,12,731.9,570.7)" />
<use xlink:href="#f1_21" transform="matrix(12,0,0,12,737.4,570.7)" />
<use xlink:href="#f1_2a" transform="matrix(12,0,0,12,745.5,570.7)" />
<use xlink:href="#f1_2g" transform="matrix(12,0,0,12,754.3,570.7)" />
<use xlink:href="#f1_25" transform="matrix(12,0,0,12,759.7,570.7)" />
<use xlink:href="#f1_1x" transform="matrix(12,0,0,12,764.1,570.7)" />
<use xlink:href="#f1_28" transform="matrix(12,0,0,12,772.5,570.7)" />
<use xlink:href="#f1_1x" transform="matrix(12,0,0,12,784.3,570.7)" />
<use xlink:href="#f1_2a" transform="matrix(12,0,0,12,792.7,570.7)" />
<use xlink:href="#f1_20" transform="matrix(12,0,0,12,801.5,570.7)" />
<use xlink:href="#f1_2c" transform="matrix(12,0,0,12,818,570.7)" />
<use xlink:href="#f1_2e" transform="matrix(12,0,0,12,827.1,570.7)" />
<use xlink:href="#f1_21" transform="matrix(12,0,0,12,833.3,570.7)" />
<use xlink:href="#f1_2f" transform="matrix(12,0,0,12,841.4,570.7)" />
<use xlink:href="#f1_2f" transform="matrix(12,0,0,12,848.4,570.7)" />
<use xlink:href="#f1_2h" transform="matrix(12,0,0,12,855.3,570.7)" />
<use xlink:href="#f1_2e" transform="matrix(12,0,0,12,864.5,570.7)" />
<use xlink:href="#f1_21" transform="matrix(12,0,0,12,870.7,570.7)" />
</g>
<path fill-rule="evenodd" d="M55,606.3H231.8V585H55v21.3Z" class="g0_179" />
<g fill="#212121" >
<use xlink:href="#f1_2c" transform="matrix(12,0,0,12,55,602.3)" />
<use xlink:href="#f1_2b" transform="matrix(12,0,0,12,64.2,602.3)" />
<use xlink:href="#f1_2g" transform="matrix(12,0,0,12,73.4,602.3)" />
<use xlink:href="#f1_21" transform="matrix(12,0,0,12,78.9,602.3)" />
<use xlink:href="#f1_2a" transform="matrix(12,0,0,12,86.9,602.3)" />
<use xlink:href="#f1_2g" transform="matrix(12,0,0,12,95.7,602.3)" />
<use xlink:href="#f1_25" transform="matrix(12,0,0,12,101.2,602.3)" />
<use xlink:href="#f1_1x" transform="matrix(12,0,0,12,105.6,602.3)" />
<use xlink:href="#f1_28" transform="matrix(12,0,0,12,114,602.3)" />
<use xlink:href="#f1_1x" transform="matrix(12,0,0,12,123.5,602.3)" />
<use xlink:href="#f1_2e" transform="matrix(12,0,0,12,131.6,602.3)" />
<use xlink:href="#f1_21" transform="matrix(12,0,0,12,137.8,602.3)" />
<use xlink:href="#f1_1x" transform="matrix(12,0,0,12,150.6,602.3)" />
<use xlink:href="#f1_2f" transform="matrix(12,0,0,12,158.7,602.3)" />
<use xlink:href="#f1_22" transform="matrix(12,0,0,12,170.8,602.3)" />
<use xlink:href="#f1_2b" transform="matrix(12,0,0,12,176.3,602.3)" />
<use xlink:href="#f1_28" transform="matrix(12,0,0,12,186.2,602.3)" />
<use xlink:href="#f1_28" transform="matrix(12,0,0,12,190.9,602.3)" />
<use xlink:href="#f1_2b" transform="matrix(12,0,0,12,195.3,602.3)" />
<use xlink:href="#f1_2j" transform="matrix(12,0,0,12,204.8,602.3)" />
<use xlink:href="#f1_2f" transform="matrix(12,0,0,12,218.1,602.3)" />
<use xlink:href="#f1_h" transform="matrix(12,0,0,12,225.2,602.3)" />
</g>
<path fill-rule="evenodd" d="M276.9,755.2H658.4V629H276.9V755.2Z" class="g0_179" />
<path fill-rule="evenodd" d="M298.9,798.8H636V777.5H298.9v21.3Z" class="g0_179" />
<g fill="#212121" >
<use xlink:href="#f0_16" transform="matrix(12,0,0,12,298.9,794.8)" />
<use xlink:href="#f0_25" transform="matrix(12,0,0,12,309.9,794.8)" />
<use xlink:href="#f0_23" transform="matrix(12,0,0,12,315,794.8)" />
<use xlink:href="#f0_i" transform="matrix(12,0,0,12,324.2,794.8)" />
<use xlink:href="#f0_p" transform="matrix(12,0,0,12,329,794.8)" />
<use xlink:href="#f0_i" transform="matrix(12,0,0,12,338.2,794.8)" />
<use xlink:href="#f0_1i" transform="matrix(12,0,0,12,347.7,794.8)" />
<use xlink:href="#f0_21" transform="matrix(12,0,0,12,360.9,794.8)" />
<use xlink:href="#f0_28" transform="matrix(12,0,0,12,368.9,794.8)" />
<use xlink:href="#f0_1x" transform="matrix(12,0,0,12,373.7,794.8)" />
<use xlink:href="#f0_2g" transform="matrix(12,0,0,12,382.9,794.8)" />
<use xlink:href="#f0_25" transform="matrix(12,0,0,12,389.1,794.8)" />
<use xlink:href="#f0_2b" transform="matrix(12,0,0,12,394.2,794.8)" />
<use xlink:href="#f0_2a" transform="matrix(12,0,0,12,403.3,794.8)" />
<use xlink:href="#f0_1y" transform="matrix(12,0,0,12,418.4,794.8)" />
<use xlink:href="#f0_21" transform="matrix(12,0,0,12,428.6,794.8)" />
<use xlink:href="#f0_2g" transform="matrix(12,0,0,12,436.7,794.8)" />
<use xlink:href="#f0_2j" transform="matrix(12,0,0,12,442.9,794.8)" />
<use xlink:href="#f0_21" transform="matrix(12,0,0,12,456.1,794.8)" />
<use xlink:href="#f0_21" transform="matrix(12,0,0,12,464.2,794.8)" />
<use xlink:href="#f0_2a" transform="matrix(12,0,0,12,472.2,794.8)" />
<use xlink:href="#f0_20" transform="matrix(12,0,0,12,486.9,794.8)" />
<use xlink:href="#f0_25" transform="matrix(12,0,0,12,497.1,794.8)" />
<use xlink:href="#f0_22" transform="matrix(12,0,0,12,502.2,794.8)" />
<use xlink:href="#f0_22" transform="matrix(12,0,0,12,508.1,794.8)" />
<use xlink:href="#f0_21" transform="matrix(12,0,0,12,514,794.8)" />
<use xlink:href="#f0_2e" transform="matrix(12,0,0,12,522.4,794.8)" />
<use xlink:href="#f0_21" transform="matrix(12,0,0,12,530.1,794.8)" />
<use xlink:href="#f0_2a" transform="matrix(12,0,0,12,538.2,794.8)" />
<use xlink:href="#f0_2g" transform="matrix(12,0,0,12,548.4,794.8)" />
<use xlink:href="#f0_2c" transform="matrix(12,0,0,12,559.4,794.8)" />
<use xlink:href="#f0_2b" transform="matrix(12,0,0,12,569.7,794.8)" />
<use xlink:href="#f0_2g" transform="matrix(12,0,0,12,578.8,794.8)" />
<use xlink:href="#f0_21" transform="matrix(12,0,0,12,585,794.8)" />
<use xlink:href="#f0_2a" transform="matrix(12,0,0,12,593.1,794.8)" />
<use xlink:href="#f0_2g" transform="matrix(12,0,0,12,603.3,794.8)" />
<use xlink:href="#f0_25" transform="matrix(12,0,0,12,609.6,794.8)" />
<use xlink:href="#f0_1x" transform="matrix(12,0,0,12,614.7,794.8)" />
<use xlink:href="#f0_28" transform="matrix(12,0,0,12,623.8,794.8)" />
<use xlink:href="#f0_2f" transform="matrix(12,0,0,12,628.6,794.8)" />
</g>
<path fill-rule="evenodd" d="M55,842.9h65.3V821.6H55v21.3Z" class="g0_179" />
<g fill="#212121" >
<use xlink:href="#f0_1f" transform="matrix(12,0,0,12,55,838.8)" />
<use xlink:href="#f0_2f" transform="matrix(12,0,0,12,69.3,838.8)" />
<use xlink:href="#f0_29" transform="matrix(12,0,0,12,76.3,838.8)" />
<use xlink:href="#f0_2b" transform="matrix(12,0,0,12,91.3,838.8)" />
<use xlink:href="#f0_2f" transform="matrix(12,0,0,12,100.5,838.8)" />
<use xlink:href="#f0_25" transform="matrix(12,0,0,12,107.5,838.8)" />
<use xlink:href="#f0_2f" transform="matrix(12,0,0,12,113,838.8)" />
</g>
<path fill-rule="evenodd" d="M55,842.5h65.3v-1.8H55v1.8Z" class="g1_179" />
<path fill-rule="evenodd" d="M55,886.9H880.3V865.6H55v21.3Z" class="g0_179" />
<g fill="#212121" >
<use xlink:href="#f1_19" transform="matrix(12,0,0,12,55,882.8)" />
<use xlink:href="#f1_2g" transform="matrix(12,0,0,12,61.3,882.8)" />
<use xlink:href="#f1_25" transform="matrix(12,0,0,12,70.1,882.8)" />
<use xlink:href="#f1_2f" transform="matrix(12,0,0,12,74.8,882.8)" />
<use xlink:href="#f1_20" transform="matrix(12,0,0,12,85.5,882.8)" />
<use xlink:href="#f1_21" transform="matrix(12,0,0,12,94.6,882.8)" />
<use xlink:href="#f1_22" transform="matrix(12,0,0,12,103,882.8)" />
<use xlink:href="#f1_25" transform="matrix(12,0,0,12,108.9,882.8)" />
<use xlink:href="#f1_2a" transform="matrix(12,0,0,12,113.7,882.8)" />
<use xlink:href="#f1_21" transform="matrix(12,0,0,12,122.8,882.8)" />
<use xlink:href="#f1_20" transform="matrix(12,0,0,12,131.2,882.8)" />
<use xlink:href="#f1_1x" transform="matrix(12,0,0,12,144.1,882.8)" />
<use xlink:href="#f1_2f" transform="matrix(12,0,0,12,152.1,882.8)" />
<use xlink:href="#f1_2g" transform="matrix(12,0,0,12,162.8,882.8)" />
<use xlink:href="#f1_24" transform="matrix(12,0,0,12,168.3,882.8)" />
<use xlink:href="#f1_21" transform="matrix(12,0,0,12,177.1,882.8)" />
<use xlink:href="#f1_2c" transform="matrix(12,0,0,12,188.8,882.8)" />
<use xlink:href="#f1_2e" transform="matrix(12,0,0,12,198,882.8)" />
<use xlink:href="#f1_2b" transform="matrix(12,0,0,12,204.2,882.8)" />
<use xlink:href="#f1_1z" transform="matrix(12,0,0,12,213.7,882.8)" />
<use xlink:href="#f1_21" transform="matrix(12,0,0,12,221.8,882.8)" />
<use xlink:href="#f1_2f" transform="matrix(12,0,0,12,229.8,882.8)" />
<use xlink:href="#f1_2f" transform="matrix(12,0,0,12,236.8,882.8)" />
<use xlink:href="#f1_2b" transform="matrix(12,0,0,12,247.4,882.8)" />
<use xlink:href="#f1_22" transform="matrix(12,0,0,12,256.9,882.8)" />
<use xlink:href="#f1_29" transform="matrix(12,0,0,12,266.5,882.8)" />
<use xlink:href="#f1_2b" transform="matrix(12,0,0,12,280,882.8)" />
<use xlink:href="#f1_2i" transform="matrix(12,0,0,12,289.9,882.8)" />
<use xlink:href="#f1_21" transform="matrix(12,0,0,12,298.7,882.8)" />
<use xlink:href="#f1_29" transform="matrix(12,0,0,12,307.1,882.8)" />
<use xlink:href="#f1_21" transform="matrix(12,0,0,12,321.1,882.8)" />
<use xlink:href="#f1_2a" transform="matrix(12,0,0,12,329.5,882.8)" />
<use xlink:href="#f1_2g" transform="matrix(12,0,0,12,338.3,882.8)" />
<use xlink:href="#f1_2b" transform="matrix(12,0,0,12,347.4,882.8)" />
<use xlink:href="#f1_22" transform="matrix(12,0,0,12,356.9,882.8)" />
<use xlink:href="#f1_2j" transform="matrix(12,0,0,12,366.1,882.8)" />
<use xlink:href="#f1_1x" transform="matrix(12,0,0,12,379.4,882.8)" />
<use xlink:href="#f1_2g" transform="matrix(12,0,0,12,387.4,882.8)" />
<use xlink:href="#f1_21" transform="matrix(12,0,0,12,392.9,882.8)" />
<use xlink:href="#f1_2e" transform="matrix(12,0,0,12,400.9,882.8)" />
<use xlink:href="#f1_29" transform="matrix(12,0,0,12,410.8,882.8)" />
<use xlink:href="#f1_2b" transform="matrix(12,0,0,12,424.7,882.8)" />
<use xlink:href="#f1_28" transform="matrix(12,0,0,12,434.3,882.8)" />
<use xlink:href="#f1_21" transform="matrix(12,0,0,12,438.7,882.8)" />
<use xlink:href="#f1_1z" transform="matrix(12,0,0,12,446.7,882.8)" />
<use xlink:href="#f1_2h" transform="matrix(12,0,0,12,454.8,882.8)" />
<use xlink:href="#f1_28" transform="matrix(12,0,0,12,464.3,882.8)" />
<use xlink:href="#f1_21" transform="matrix(12,0,0,12,469.1,882.8)" />
<use xlink:href="#f1_2f" transform="matrix(12,0,0,12,477.5,882.8)" />
<use xlink:href="#f1_1x" transform="matrix(12,0,0,12,488.1,882.8)" />
<use xlink:href="#f1_1z" transform="matrix(12,0,0,12,496.2,882.8)" />
<use xlink:href="#f1_2e" transform="matrix(12,0,0,12,504.3,882.8)" />
<use xlink:href="#f1_2b" transform="matrix(12,0,0,12,510.5,882.8)" />
<use xlink:href="#f1_2f" transform="matrix(12,0,0,12,520,882.8)" />
<use xlink:href="#f1_2f" transform="matrix(12,0,0,12,527,882.8)" />
<use xlink:href="#f1_2g" transform="matrix(12,0,0,12,537.6,882.8)" />
<use xlink:href="#f1_24" transform="matrix(12,0,0,12,543.1,882.8)" />
<use xlink:href="#f1_21" transform="matrix(12,0,0,12,551.9,882.8)" />
<use xlink:href="#f1_2f" transform="matrix(12,0,0,12,563.6,882.8)" />
<use xlink:href="#f1_21" transform="matrix(12,0,0,12,570.6,882.8)" />
<use xlink:href="#f1_29" transform="matrix(12,0,0,12,579,882.8)" />
<use xlink:href="#f1_25" transform="matrix(12,0,0,12,593.2,882.8)" />
<use xlink:href="#f1_h" transform="matrix(12,0,0,12,598.2,882.8)" />
<use xlink:href="#f1_2c" transform="matrix(12,0,0,12,604.5,882.8)" />
<use xlink:href="#f1_21" transform="matrix(12,0,0,12,614,882.8)" />
<use xlink:href="#f1_2e" transform="matrix(12,0,0,12,622.1,882.8)" />
<use xlink:href="#f1_29" transform="matrix(12,0,0,12,628.6,882.8)" />
<use xlink:href="#f1_21" transform="matrix(12,0,0,12,642.2,882.8)" />
<use xlink:href="#f1_1x" transform="matrix(12,0,0,12,650.6,882.8)" />
<use xlink:href="#f1_1y" transform="matrix(12,0,0,12,659,882.8)" />
<use xlink:href="#f1_28" transform="matrix(12,0,0,12,668.2,882.8)" />
<use xlink:href="#f1_21" transform="matrix(12,0,0,12,673,882.8)" />
<use xlink:href="#f1_29" transform="matrix(12,0,0,12,685.1,882.8)" />
<use xlink:href="#f1_21" transform="matrix(12,0,0,12,699,882.8)" />
<use xlink:href="#f1_29" transform="matrix(12,0,0,12,707.4,882.8)" />
<use xlink:href="#f1_1y" transform="matrix(12,0,0,12,721.4,882.8)" />
<use xlink:href="#f1_2e" transform="matrix(12,0,0,12,730.2,882.8)" />
<use xlink:href="#f1_1x" transform="matrix(12,0,0,12,736.4,882.8)" />
<use xlink:href="#f1_2a" transform="matrix(12,0,0,12,744.8,882.8)" />
<use xlink:href="#f1_21" transform="matrix(12,0,0,12,753.6,882.8)" />
<use xlink:href="#f1_i" transform="matrix(12,0,0,12,761.7,882.8)" />
<use xlink:href="#f1_1k" transform="matrix(12,0,0,12,770.1,882.8)" />
<use xlink:href="#f1_24" transform="matrix(12,0,0,12,781.4,882.8)" />
<use xlink:href="#f1_21" transform="matrix(12,0,0,12,790.6,882.8)" />
<use xlink:href="#f1_29" transform="matrix(12,0,0,12,803,882.8)" />
<use xlink:href="#f1_2b" transform="matrix(12,0,0,12,816.6,882.8)" />
<use xlink:href="#f1_2i" transform="matrix(12,0,0,12,826.1,882.8)" />
<use xlink:href="#f1_21" transform="matrix(12,0,0,12,834.9,882.8)" />
<use xlink:href="#f1_29" transform="matrix(12,0,0,12,843.3,882.8)" />
<use xlink:href="#f1_21" transform="matrix(12,0,0,12,857.3,882.8)" />
<use xlink:href="#f1_2a" transform="matrix(12,0,0,12,865.7,882.8)" />
<use xlink:href="#f1_2g" transform="matrix(12,0,0,12,874.5,882.8)" />
</g>
<path fill-rule="evenodd" d="M55,918.4H538.5V897.1H55v21.3Z" class="g0_179" />
<g fill="#212121" >
<use xlink:href="#f1_2b" transform="matrix(12,0,0,12,55,914.4)" />
<use xlink:href="#f1_22" transform="matrix(12,0,0,12,64.6,914.4)" />
<use xlink:href="#f1_2j" transform="matrix(12,0,0,12,74.8,914.4)" />
<use xlink:href="#f1_1x" transform="matrix(12,0,0,12,88,914.4)" />
<use xlink:href="#f1_2g" transform="matrix(12,0,0,12,96.1,914.4)" />
<use xlink:href="#f1_21" transform="matrix(12,0,0,12,101.5,914.4)" />
<use xlink:href="#f1_2e" transform="matrix(12,0,0,12,109.6,914.4)" />
<use xlink:href="#f1_20" transform="matrix(12,0,0,12,120.6,914.4)" />
<use xlink:href="#f1_21" transform="matrix(12,0,0,12,129.7,914.4)" />
<use xlink:href="#f1_2c" transform="matrix(12,0,0,12,137.8,914.4)" />
<use xlink:href="#f1_21" transform="matrix(12,0,0,12,147,914.4)" />
<use xlink:href="#f1_2a" transform="matrix(12,0,0,12,155,914.4)" />
<use xlink:href="#f1_20" transform="matrix(12,0,0,12,163.8,914.4)" />
<use xlink:href="#f1_2f" transform="matrix(12,0,0,12,173,914.4)" />
<use xlink:href="#f1_2b" transform="matrix(12,0,0,12,184.7,914.4)" />
<use xlink:href="#f1_2a" transform="matrix(12,0,0,12,194.2,914.4)" />
<use xlink:href="#f1_1z" transform="matrix(12,0,0,12,207.8,914.4)" />
<use xlink:href="#f1_2b" transform="matrix(12,0,0,12,215.9,914.4)" />
<use xlink:href="#f1_2a" transform="matrix(12,0,0,12,225.4,914.4)" />
<use xlink:href="#f1_1z" transform="matrix(12,0,0,12,234.2,914.4)" />
<use xlink:href="#f1_21" transform="matrix(12,0,0,12,242.2,914.4)" />
<use xlink:href="#f1_2a" transform="matrix(12,0,0,12,250.3,914.4)" />
<use xlink:href="#f1_2g" transform="matrix(12,0,0,12,259.1,914.4)" />
<use xlink:href="#f1_2e" transform="matrix(12,0,0,12,264.6,914.4)" />
<use xlink:href="#f1_1x" transform="matrix(12,0,0,12,270.8,914.4)" />
<use xlink:href="#f1_2g" transform="matrix(12,0,0,12,278.9,914.4)" />
<use xlink:href="#f1_25" transform="matrix(12,0,0,12,284.3,914.4)" />
<use xlink:href="#f1_2b" transform="matrix(12,0,0,12,288.7,914.4)" />
<use xlink:href="#f1_2a" transform="matrix(12,0,0,12,298.3,914.4)" />
<use xlink:href="#f1_23" transform="matrix(12,0,0,12,311.8,914.4)" />
<use xlink:href="#f1_2e" transform="matrix(12,0,0,12,321,914.4)" />
<use xlink:href="#f1_1x" transform="matrix(12,0,0,12,327.2,914.4)" />
<use xlink:href="#f1_20" transform="matrix(12,0,0,12,335.3,914.4)" />
<use xlink:href="#f1_25" transform="matrix(12,0,0,12,344.8,914.4)" />
<use xlink:href="#f1_21" transform="matrix(12,0,0,12,349.2,914.4)" />
<use xlink:href="#f1_2a" transform="matrix(12,0,0,12,357.6,914.4)" />
<use xlink:href="#f1_2g" transform="matrix(12,0,0,12,366.4,914.4)" />
<use xlink:href="#f1_1x" transform="matrix(12,0,0,12,376.6,914.4)" />
<use xlink:href="#f1_2a" transform="matrix(12,0,0,12,384.7,914.4)" />
<use xlink:href="#f1_20" transform="matrix(12,0,0,12,393.5,914.4)" />
<use xlink:href="#f1_2c" transform="matrix(12,0,0,12,407.4,914.4)" />
<use xlink:href="#f1_2e" transform="matrix(12,0,0,12,416.6,914.4)" />
<use xlink:href="#f1_21" transform="matrix(12,0,0,12,422.8,914.4)" />
<use xlink:href="#f1_2f" transform="matrix(12,0,0,12,430.9,914.4)" />
<use xlink:href="#f1_2f" transform="matrix(12,0,0,12,437.8,914.4)" />
<use xlink:href="#f1_2h" transform="matrix(12,0,0,12,444.8,914.4)" />
<use xlink:href="#f1_2e" transform="matrix(12,0,0,12,454,914.4)" />
<use xlink:href="#f1_21" transform="matrix(12,0,0,12,460.2,914.4)" />
<use xlink:href="#f1_23" transform="matrix(12,0,0,12,473,914.4)" />
<use xlink:href="#f1_2e" transform="matrix(12,0,0,12,482.1,914.4)" />
<use xlink:href="#f1_1x" transform="matrix(12,0,0,12,488.4,914.4)" />
<use xlink:href="#f1_20" transform="matrix(12,0,0,12,496.4,914.4)" />
<use xlink:href="#f1_25" transform="matrix(12,0,0,12,505.9,914.4)" />
<use xlink:href="#f1_21" transform="matrix(12,0,0,12,510.3,914.4)" />
<use xlink:href="#f1_2a" transform="matrix(12,0,0,12,518.8,914.4)" />
<use xlink:href="#f1_2g" transform="matrix(12,0,0,12,527.6,914.4)" />
<use xlink:href="#f1_i" transform="matrix(12,0,0,12,533,914.4)" />
</g>
<image preserveAspectRatio="none" x="169" y="55" width="597" height="261" xlink:href="img/1.png" />
<image preserveAspectRatio="none" x="277" y="629" width="381" height="126" xlink:href="img/2.png" />
<g fill="#000000" >
<use xlink:href="#f3_n" transform="matrix(8,0,0,8,818.2,1187.9)" />
</g>
<defs>
<path d="M36,0V54L154,74V926L26,945v55H860V731H790L766,908c0,0,-36,5,-121,8c0,0,-84,2,-133,2H389V508H633l23,127h67V298H656L633,426H389V74L556,54V0Z" 
id="f0_16"
transform="scale(0.001,-0.001)" />

<path d="M34,0V49l76,18V634L38,652v49H325V67L402,49V0ZM217,831c0,0,-48,0,-81,33c0,0,-34,33,-34,82c0,0,0,48,34,81c0,0,34,33,81,33c0,0,48,0,81,-33c0,0,33,-33,33,-81c0,0,0,-47,-33,-81c0,0,-32,-34,-81,-34Z" 
id="f0_25"
transform="scale(0.001,-0.001)" />

<path d="M360,-256c0,0,108,0,167,35c0,0,59,35,59,98c0,0,0,70,-95,70H254c0,0,-65,-47,-65,-108c0,0,0,-47,46,-71c0,0,45,-24,125,-24Zm9,561c0,0,55,0,79,43c0,0,25,43,25,129c0,0,0,87,-24,127c0,0,-25,41,-80,41c0,0,-52,0,-75,-41c0,0,-24,-40,-24,-127c0,0,0,-86,23,-129c0,0,23,-43,76,-43Zm-9,-641c0,0,-153,0,-236,43c0,0,-84,44,-84,120c0,0,0,33,28,65c0,0,27,31,105,76c0,0,-44,17,-75,59c0,0,-31,43,-31,90L192,258c0,0,-133,56,-133,219c0,0,0,116,81,180c0,0,82,63,233,63c0,0,32,0,82,-6c0,0,51,-6,74,-13l168,83l26,-32L638,631c0,0,46,-57,46,-154c0,0,0,-119,-80,-182c0,0,-80,-64,-234,-64c0,0,-59,0,-114,9L238,183c0,0,1,-22,28,-41c0,0,26,-19,64,-19H493c0,0,256,0,256,-196c0,0,0,-81,-44,-139c0,0,-45,-59,-131,-92c0,0,-86,-32,-214,-32Z" 
id="f0_23"
transform="scale(0.001,-0.001)" />

<path d="M191,-20c0,0,-51,0,-88,34c0,0,-36,36,-36,88c0,0,0,52,36,88c0,0,36,36,88,36c0,0,51,0,88,-36c0,0,36,-36,36,-88c0,0,0,-51,-36,-87c0,0,-36,-35,-88,-35Z" 
id="f0_i"
transform="scale(0.001,-0.001)" />

<path d="M435,350V646c0,0,0,84,7,158L145,350ZM435,0V198H21V319l450,686H636V350H736V198H636V0Z" 
id="f0_o"
transform="scale(0.001,-0.001)" />

<path d="M440,-22L109,926L22,945v55H471V945L354,926L567,330L801,915h93L1129,332l177,594l-126,19v55h324V945l-87,-19L1120,-22h-92L779,594L532,-22Z" 
id="f0_1n"
transform="scale(0.001,-0.001)" />

<path d="M345,75c0,0,50,0,110,26V351l-63,-2c0,0,-72,-3,-100,-38c0,0,-28,-35,-28,-113c0,0,0,-63,22,-93c0,0,23,-30,59,-30ZM266,-14c0,0,-217,0,-217,208c0,0,0,79,32,126c0,0,32,48,93,71c0,0,60,22,190,25l91,2V521c0,0,0,126,-104,126c0,0,-62,0,-140,-39L183,521H134V691c0,0,112,17,165,21c0,0,53,5,108,5c0,0,264,0,264,-194V67L741,49V0H483L466,54C466,54,408,14,361,0c0,0,-47,-14,-95,-14Z" 
id="f0_1x"
transform="scale(0.001,-0.001)" />

<path d="M327,-14c0,0,-101,0,-156,45c0,0,-55,45,-55,131V624H25v48l108,29l87,159H332V701H480V624H332V176c0,0,0,-49,20,-73c0,0,20,-25,53,-25c0,0,40,0,97,12V26c0,0,-22,-15,-76,-27c0,0,-55,-13,-99,-13Z" 
id="f0_2g"
transform="scale(0.001,-0.001)" />

<path d="M434,423c0,0,0,101,-7,142c0,0,-6,40,-22,60c0,0,-16,19,-45,19c0,0,-44,0,-66,-48c0,0,-22,-49,-22,-173ZM389,-14c0,0,-172,0,-254,89c0,0,-83,90,-83,279c0,0,0,184,79,274c0,0,79,91,238,91c0,0,142,0,206,-76c0,0,64,-76,64,-237V345H271V333c0,0,0,-111,18,-158c0,0,18,-47,58,-72c0,0,40,-25,110,-25c0,0,66,0,166,22V42C623,42,582,18,517,1c0,0,-66,-15,-128,-15Z" 
id="f0_21"
transform="scale(0.001,-0.001)" />

<path d="M41,0V49l91,18V634L41,652v49H336l8,-145c0,0,80,89,144,128c0,0,64,40,117,40h40V468H604l-45,94c0,0,-47,0,-106,-21c0,0,-60,-20,-105,-48V67L460,49V0Z" 
id="f0_2e"
transform="scale(0.001,-0.001)" />

<path d="M438,65c0,0,131,0,131,293c0,0,0,279,-130,279c0,0,-69,0,-127,-29V80c0,0,60,-15,126,-15ZM20,-325v50l76,18V634L19,652v49H304l1,-36c0,0,80,55,194,55c0,0,146,0,218,-86c0,0,71,-86,71,-271c0,0,0,-183,-83,-280c0,0,-83,-97,-238,-97c0,0,-79,0,-160,19c0,0,5,-48,5,-109V-257l103,-18v-50Z" 
id="f0_2c"
transform="scale(0.001,-0.001)" />

<path d="M379,60c0,0,59,0,84,64c0,0,24,65,24,231c0,0,0,164,-24,227c0,0,-24,63,-84,63c0,0,-57,0,-80,-60c0,0,-22,-61,-22,-230c0,0,0,-173,23,-234c0,0,22,-61,79,-61Zm-2,-74c0,0,-161,0,-240,91c0,0,-79,91,-79,277c0,0,0,186,80,276c0,0,81,90,245,90c0,0,167,0,245,-93c0,0,78,-93,78,-273c0,0,0,-188,-81,-278c0,0,-81,-90,-248,-90Z" 
id="f0_2b"
transform="scale(0.001,-0.001)" />

<path d="M41,0V49l69,18V634L41,652v49H313l11,-61l50,26c0,0,105,54,188,54c0,0,194,0,194,-207V67L827,49V0H478V49l63,18V484c0,0,0,63,-27,98c0,0,-26,35,-75,35c0,0,-57,0,-114,-25V67L389,49V0Z" 
id="f0_2a"
transform="scale(0.001,-0.001)" />

<path d="M30,0V49l76,18V992l-72,18v50H322V67L398,49V0Z" 
id="f0_28"
transform="scale(0.001,-0.001)" />

<path d="M55,0V40L184,60V941L55,960v40H455V960L327,941V60L455,40V0Z" 
id="f1_19"
transform="scale(0.001,-0.001)" />

<path d="M64,0V34L168,59V639H47v36l121,29v49c0,0,0,155,61,239c0,0,62,84,173,84c0,0,58,0,107,-15V908H472l-33,92c0,0,-26,16,-62,16c0,0,-47,0,-66,-42c0,0,-19,-42,-19,-157V701H478V639H292V59L443,34V0Z" 
id="f1_22"
transform="scale(0.001,-0.001)" />

<path d="M278,-14c0,0,-52,0,-115,11c0,0,-63,10,-99,23V193H98L134,95c0,0,56,-50,146,-50c0,0,144,0,144,123c0,0,0,91,-114,130l-66,21c0,0,-75,25,-110,50c0,0,-34,26,-53,63c0,0,-18,36,-18,89c0,0,0,92,63,145c0,0,63,54,170,54c0,0,77,0,193,-23V544H454l-32,81c0,0,-39,35,-124,35c0,0,-61,0,-92,-30c0,0,-32,-30,-32,-80c0,0,0,-43,29,-72c0,0,28,-29,86,-48c0,0,110,-38,144,-55c0,0,33,-17,57,-42c0,0,23,-25,36,-57c0,0,13,-32,13,-79c0,0,0,-104,-66,-158c0,0,-66,-53,-195,-53Z" 
id="f1_2f"
transform="scale(0.001,-0.001)" />

<path d="M377,45c0,0,99,0,147,73c0,0,47,73,47,237c0,0,0,161,-47,233c0,0,-47,72,-147,72c0,0,-97,0,-141,-69c0,0,-44,-69,-44,-236c0,0,0,-169,45,-240c0,0,44,-70,140,-70Zm0,-59c0,0,-158,0,-238,94c0,0,-81,95,-81,274c0,0,0,178,81,272c0,0,80,94,244,94c0,0,160,0,241,-92c0,0,82,-92,82,-274c0,0,0,-368,-329,-368Z" 
id="f1_2b"
transform="scale(0.001,-0.001)" />

<path d="M431,0V33L535,52V499c0,0,0,62,-32,96c0,0,-32,33,-95,33c0,0,-66,0,-163,-22V52L350,33V0H32V33l89,19V649L32,668v33H237l6,-57c0,0,56,32,119,54c0,0,62,22,110,22c0,0,52,0,95,-20c0,0,44,-19,66,-62c0,0,57,32,134,57c0,0,77,25,128,25c0,0,179,0,179,-207V52l90,-19V0H846V33L950,52V499c0,0,0,129,-119,129c0,0,-19,0,-45,-3c0,0,-26,-3,-52,-7c0,0,-25,-4,-49,-8c0,0,-23,-5,-39,-8c0,0,13,-41,13,-89V52L764,33V0Z" 
id="f1_29"
transform="scale(0.001,-0.001)" />

<path d="M495,413c0,0,0,133,-34,190c0,0,-34,57,-105,57c0,0,-78,0,-119,-63c0,0,-42,-62,-42,-184ZM374,-14c0,0,-163,0,-239,87c0,0,-75,88,-75,283c0,0,0,183,77,273c0,0,76,91,219,91c0,0,269,0,269,-306V353H194V340c0,0,0,-103,23,-160c0,0,22,-57,70,-87c0,0,47,-29,124,-29c0,0,40,0,96,6c0,0,55,7,91,15V43C598,43,562,20,500,3c0,0,-61,-17,-126,-17Z" 
id="f1_21"
transform="scale(0.001,-0.001)" />

<path d="M31,0V33L150,52v956L31,1026v34H274V52L394,33V0Z" 
id="f1_28"
transform="scale(0.001,-0.001)" />

<path d="M289,-14c0,0,-179,0,-179,205V649L20,668v33H233V200c0,0,0,-128,120,-128c0,0,92,0,173,23V649L420,668v33H649V52L738,33V0H533l-6,57C527,57,474,28,405,7c0,0,-69,-21,-116,-21Z" 
id="f1_2h"
transform="scale(0.001,-0.001)" />

<path d="M249,-14c0,0,-71,0,-107,42c0,0,-35,42,-35,119V639H15v33l93,29l76,159h47V701H391V639H231V161c0,0,0,-48,22,-73c0,0,22,-24,57,-24c0,0,44,0,106,12V26C416,26,389,8,340,-2c0,0,-49,-12,-91,-12Z" 
id="f1_2g"
transform="scale(0.001,-0.001)" />

<path d="M32,0V33L151,52V649L52,668v33H275V52L395,33V0ZM201,850c0,0,-32,0,-56,24c0,0,-24,24,-24,56c0,0,0,34,24,58c0,0,24,24,56,24c0,0,34,0,58,-24c0,0,24,-24,24,-58c0,0,0,-32,-24,-56c0,0,-24,-24,-58,-24Z" 
id="f1_25"
transform="scale(0.001,-0.001)" />

<path d="M284,67c0,0,51,0,88,12c0,0,37,12,74,30V358l-98,-3c0,0,-100,-4,-135,-39c0,0,-35,-35,-35,-117c0,0,0,-132,106,-132ZM233,-14c0,0,-179,0,-179,208c0,0,0,70,27,116c0,0,27,46,87,70c0,0,60,24,173,27l105,3V519c0,0,0,72,-26,107c0,0,-27,34,-82,34c0,0,-75,0,-137,-35L176,538H134V691c0,0,121,26,213,26c0,0,115,0,169,-47c0,0,54,-47,54,-144V52L657,33V0H465L451,70c0,0,-85,-84,-218,-84Z" 
id="f1_1x"
transform="scale(0.001,-0.001)" />

<path d="M383,64c0,0,85,0,152,28V645c0,0,-67,13,-152,13c0,0,-194,0,-194,-314c0,0,0,-141,48,-211c0,0,48,-69,146,-69ZM342,-14c0,0,-287,0,-287,358c0,0,0,184,82,280c0,0,81,96,239,96c0,0,81,0,163,-18c0,0,-4,25,-4,124v182l-118,18v34H659V52L745,33V0H548l-9,52c0,0,-84,-66,-197,-66Z" 
id="f1_20"
transform="scale(0.001,-0.001)" />

<path d="M382,45c0,0,188,0,188,314c0,0,0,143,-47,213c0,0,-46,69,-141,69c0,0,-87,0,-146,-24V58c0,0,67,-13,146,-13ZM25,-325v35l88,18V649L34,668v33H231l1,-41c0,0,31,27,84,43c0,0,53,17,107,17c0,0,134,0,208,-94c0,0,73,-93,73,-267c0,0,0,-178,-80,-276c0,0,-80,-97,-232,-97c0,0,-84,0,-160,16c0,0,4,-53,4,-84V-272l123,-18v-35Z" 
id="f1_2c"
transform="scale(0.001,-0.001)" />

<path d="M31,0V33l88,19V649L31,668v33H235l7,-87c0,0,44,37,121,71c0,0,76,35,121,35h11V530H463l-43,82c0,0,-37,0,-88,-10c0,0,-52,-10,-89,-26V52L363,33V0Z" 
id="f1_2e"
transform="scale(0.001,-0.001)" />

<path d="M327,-14L84,649L1,668v33H335V668L219,648L385,174L554,632h63L786,171L944,649L830,668v33h267V668l-78,-16L784,-14H726L553,448L382,-14Z" 
id="f1_2j"
transform="scale(0.001,-0.001)" />

<path d="M58,-234v58c0,0,131,42,131,125c0,0,0,15,-11,27c0,0,-11,12,-38,25C140,1,89,27,89,75c0,0,0,40,25,61c0,0,26,21,65,21c0,0,48,0,77,-34c0,0,30,-34,30,-86c0,0,0,-101,-60,-170c0,0,-59,-69,-168,-101Z" 
id="f1_g"
transform="scale(0.001,-0.001)" />

<path d="M442,0V33l93,19V504c0,0,0,129,-124,129c0,0,-70,0,-168,-22V52L338,33V0H31V33l88,19v956L15,1026v34H243V756c0,0,0,-77,-5,-112c0,0,54,31,122,53c0,0,68,23,115,23c0,0,91,0,137,-53c0,0,47,-53,47,-154V52L744,33V0Z" 
id="f1_24"
transform="scale(0.001,-0.001)" />

<path d="M439,0V33l93,19V500c0,0,0,62,-30,97c0,0,-31,36,-94,36c0,0,-67,0,-165,-22V52L338,33V0H35V33l84,19V649L35,668v33H235l7,-57c0,0,57,33,122,54c0,0,65,22,108,22c0,0,91,0,137,-53c0,0,47,-53,47,-154V52L741,33V0Z" 
id="f1_2a"
transform="scale(0.001,-0.001)" />

<path d="M359,-270c0,0,124,0,192,46c0,0,67,47,67,129c0,0,0,43,-26,67c0,0,-26,24,-79,24H242c0,0,-32,-27,-51,-69c0,0,-20,-41,-20,-77c0,0,0,-64,46,-92c0,0,46,-28,142,-28Zm11,561c0,0,81,0,115,47c0,0,34,47,34,141c0,0,0,100,-35,142c0,0,-35,42,-113,42c0,0,-78,0,-114,-43c0,0,-37,-42,-37,-141c0,0,0,-98,36,-143c0,0,36,-45,114,-45ZM359,-329c0,0,-143,0,-218,44c0,0,-75,43,-75,125c0,0,0,39,27,78c0,0,26,38,98,89c0,0,-43,14,-72,48c0,0,-29,35,-29,74L208,262c0,0,-118,55,-118,217c0,0,0,115,73,178c0,0,73,63,211,63c0,0,28,0,71,-6c0,0,44,-6,67,-13l165,83l26,-32L599,644c0,0,50,-56,50,-165c0,0,0,-120,-72,-182c0,0,-73,-62,-208,-62c0,0,-62,0,-114,11L208,148c0,0,2,-13,29,-24c0,0,27,-12,67,-12H512c0,0,113,0,168,-49c0,0,55,-49,55,-134c0,0,0,-79,-44,-137c0,0,-43,-58,-128,-90c0,0,-84,-31,-204,-31Z" 
id="f1_23"
transform="scale(0.001,-0.001)" />

<path d="M360,-14L72,649L0,668v33H327V668L216,648L420,164L615,649L504,668v33H764V668L697,652L416,-14Z" 
id="f1_2i"
transform="scale(0.001,-0.001)" />

<path d="M191,-20c0,0,-39,0,-65,25c0,0,-25,27,-25,64c0,0,0,38,26,64c0,0,26,26,64,26c0,0,38,0,64,-26c0,0,26,-26,26,-64c0,0,0,-37,-25,-64c0,0,-26,-25,-65,-25Z" 
id="f1_i"
transform="scale(0.001,-0.001)" />

<path d="M235,0V40L394,60V936H356c0,0,-189,0,-258,-15L78,766H28v234H908V766H857L837,921c0,0,-22,5,-98,9c0,0,-75,4,-165,4H538V60L697,40V0Z" 
id="f1_1k"
transform="scale(0.001,-0.001)" />

<path d="M477,0V33l64,19L348,354L257,254V52L331,33V0H44V33l89,19v956L29,1026v34H257V338L544,647l-73,20v34H718V667L631,650L431,446L688,50L764,33V0Z" 
id="f1_27"
transform="scale(0.001,-0.001)" />

<path d="M276,-14c0,0,-57,0,-125,13C151,-1,83,10,48,23V214H97l28,-98c0,0,26,-26,69,-44c0,0,42,-17,86,-17c0,0,65,0,97,28c0,0,32,28,32,71c0,0,0,41,-31,65c0,0,-30,25,-133,57c0,0,-108,34,-154,92c0,0,-45,58,-45,143c0,0,0,95,71,152c0,0,71,57,183,57c0,0,77,0,207,-22V518H457l-24,82c0,0,-21,22,-60,35c0,0,-40,14,-75,14c0,0,-53,0,-79,-22c0,0,-26,-22,-26,-59c0,0,0,-40,32,-65c0,0,32,-26,132,-55c0,0,109,-34,155,-89c0,0,45,-55,45,-137c0,0,0,-117,-72,-177c0,0,-72,-59,-209,-59Z" 
id="f0_2f"
transform="scale(0.001,-0.001)" />

<path d="M287,-18c0,0,-194,0,-194,206V634L23,652v49H309V217c0,0,0,-63,26,-98c0,0,27,-35,76,-35c0,0,57,0,113,25V634l-64,18v49H740V67L809,49V0H536L526,61L475,35c0,0,-104,-53,-188,-53Z" 
id="f0_2h"
transform="scale(0.001,-0.001)" />

<path d="M376,50c0,0,103,0,149,80c0,0,46,81,46,240c0,0,0,137,-47,204c0,0,-48,67,-148,67c0,0,-44,0,-87,-7c0,0,-44,-8,-63,-17V62c0,0,63,-12,150,-12Zm3,-64c0,0,-64,0,-141,14c0,0,-78,14,-136,37v971L0,1026v34H226V809c0,0,0,-40,-4,-148c0,0,74,59,188,59c0,0,143,0,219,-87c0,0,77,-87,77,-263c0,0,0,-189,-84,-287c0,0,-84,-97,-243,-97Z" 
id="f1_1y"
transform="scale(0.001,-0.001)" />

<path d="M148,-329c0,0,-58,0,-114,13v151H69l24,-71c0,0,23,-17,64,-17c0,0,39,0,72,22c0,0,33,23,60,67c0,0,27,44,68,157L90,649L19,668v33H344V668L233,648L423,158L606,649L497,668v33H758V668L685,652L411,-43c0,0,-48,-124,-84,-177c0,0,-36,-54,-79,-82c0,0,-44,-27,-100,-27Z" 
id="f1_2l"
transform="scale(0.001,-0.001)" />

<path d="M312,-20c0,0,-62,0,-143,22c0,0,-25,8,-40,8c0,0,-18,0,-27,-19H77V234h25c0,0,21,-105,80,-158c0,0,59,-53,132,-53c0,0,51,0,84,31c0,0,32,30,32,72c0,0,0,52,-36,87c0,0,-36,35,-144,88c0,0,-109,54,-142,97c0,0,-34,43,-34,107c0,0,0,85,58,141c0,0,58,57,150,57c0,0,40,0,97,-17c0,0,38,-11,51,-11c0,0,12,0,19,5c0,0,7,5,15,23h25V470H464c0,0,-28,110,-72,149c0,0,-45,40,-113,40c0,0,-53,0,-85,-28c0,0,-32,-27,-32,-61c0,0,0,-41,24,-71c0,0,23,-31,94,-65L389,381c0,0,152,-74,152,-194c0,0,0,-94,-71,-151c0,0,-70,-56,-158,-56Z" 
id="f2_2f"
transform="scale(0.001,-0.001)" />

<path d="M145,-328c0,0,-44,0,-73,25c0,0,-28,25,-28,58c0,0,0,31,21,50c0,0,20,19,56,19c0,0,25,0,67,-16c0,0,30,-11,38,-11c0,0,22,0,49,23c0,0,26,23,53,89L376,28L131,542c0,0,-11,24,-36,58c0,0,-19,27,-30,36c0,0,-18,12,-56,21v26H328V657H312c0,0,-33,0,-50,-15c0,0,-17,-14,-17,-36c0,0,0,-30,25,-81L437,179L589,557c0,0,12,31,12,62c0,0,0,13,-5,20c0,0,-6,8,-19,13c0,0,-12,5,-44,5v26H754V657c0,0,-27,-3,-42,-12c0,0,-15,-9,-33,-34c0,0,-7,-10,-25,-58L376,-128c0,0,-40,-99,-105,-150c0,0,-66,-50,-126,-50Z" 
id="f2_2l"
transform="scale(0.001,-0.001)" />

<path d="M23,0V26c0,0,47,0,66,10c0,0,19,11,28,33c0,0,10,22,10,85V416c0,0,0,112,-7,145c0,0,-5,25,-16,34c0,0,-11,10,-31,10c0,0,-21,0,-50,-11L12,620l207,83h32V557c0,0,75,75,88,86c0,0,34,29,72,44c0,0,39,16,77,16c0,0,64,0,110,-37c0,0,47,-38,62,-109c0,0,77,90,130,118c0,0,53,28,109,28c0,0,54,0,96,-28c0,0,42,-28,67,-91c0,0,16,-43,16,-136V154c0,0,0,-64,10,-88c0,0,8,-16,28,-28c0,0,20,-12,65,-12V0H844V26h14c0,0,44,0,69,18c0,0,17,12,24,38c0,0,3,13,3,72V448c0,0,0,83,-20,117c0,0,-29,48,-93,48c0,0,-39,0,-79,-20c0,0,-40,-19,-97,-73l-1,-8l2,-32V154c0,0,0,-70,8,-87c0,0,7,-17,29,-29c0,0,21,-12,73,-12V0H431V26c0,0,57,0,78,14c0,0,21,13,29,40c0,0,4,13,4,74V448c0,0,0,83,-25,120c0,0,-33,48,-91,48c0,0,-40,0,-80,-22c0,0,-61,-33,-95,-74V154c0,0,0,-67,10,-87c0,0,9,-20,27,-30c0,0,18,-11,74,-11V0Z" 
id="f2_29"
transform="scale(0.001,-0.001)" />

<path d="M397,34c0,0,67,0,126,75c0,0,58,74,58,216c0,0,0,131,-58,201c0,0,-59,70,-133,70c0,0,-39,0,-79,-20c0,0,-29,-14,-75,-59V109c0,0,37,-37,78,-56c0,0,40,-19,83,-19ZM358,-20c0,0,-59,0,-121,21c0,0,-61,22,-126,65V773c0,0,0,117,-5,144c0,0,-6,27,-18,37c0,0,-12,9,-29,9c0,0,-21,0,-53,-12l-9,27l205,83h34V564c0,0,98,139,213,139c0,0,105,0,183,-90c0,0,78,-90,78,-245c0,0,0,-182,-121,-293c0,0,-103,-95,-231,-95Z" 
id="f2_1y"
transform="scale(0.001,-0.001)" />

<path d="M406,32c0,0,72,0,119,60c0,0,47,59,47,205c0,0,0,181,-78,286c0,0,-53,71,-135,71c0,0,-40,0,-79,-23c0,0,-40,-24,-65,-83c0,0,-24,-58,-24,-151c0,0,0,-149,59,-257c0,0,59,-108,156,-108ZM374,-20c0,0,-154,0,-245,122c0,0,-77,104,-77,233c0,0,0,94,46,187c0,0,47,92,123,137c0,0,76,44,161,44c0,0,155,0,249,-118c0,0,80,-100,80,-231c0,0,0,-91,-44,-185C667,169,623,75,546,27c0,0,-77,-47,-172,-47Z" 
id="f2_2b"
transform="scale(0.001,-0.001)" />

<path d="M58,0V26c0,0,47,0,64,10c0,0,18,10,28,32c0,0,9,23,9,86V775c0,0,0,116,-5,142c0,0,-5,27,-17,37c0,0,-11,9,-29,9c0,0,-20,0,-49,-12L46,978l204,83h34V154c0,0,0,-64,9,-85c0,0,9,-21,29,-32c0,0,19,-11,72,-11V0Z" 
id="f2_28"
transform="scale(0.001,-0.001)" />

<path d="M340,0V27c0,0,66,1,99,15c0,0,32,14,43,40c0,0,11,27,11,116V434c0,0,-161,4,-250,52c0,0,-89,48,-120,125c0,0,-32,77,-32,225c0,0,0,94,-14,125c0,0,-14,31,-59,35v28c0,0,75,-2,121,-24c0,0,47,-23,75,-79c0,0,28,-57,31,-150c0,0,6,-114,22,-163c0,0,17,-50,71,-84c0,0,54,-35,155,-35V815c0,0,0,88,-10,113c0,0,-10,26,-42,41c0,0,-32,15,-101,16v27H788V985c0,0,-68,-1,-100,-16c0,0,-32,-14,-42,-40c0,0,-10,-26,-10,-114V489c0,0,101,0,154,34c0,0,53,35,70,84c0,0,18,49,23,164c0,0,5,128,57,190c0,0,52,63,171,63V996c0,0,-43,-3,-58,-33c0,0,-16,-30,-16,-128c0,0,0,-144,-30,-222c0,0,-30,-78,-121,-127c0,0,-91,-48,-250,-52V198c0,0,0,-88,10,-114c0,0,10,-25,42,-41c0,0,32,-16,100,-16V0Z" 
id="f2_el"
transform="scale(0.001,-0.001)" />

<path d="M399,-14c0,0,-341,0,-341,370c0,0,0,175,87,269c0,0,87,95,249,95c0,0,101,0,220,-23V501H573L541,625c0,0,-62,35,-149,35c0,0,-200,0,-200,-304c0,0,0,-158,61,-225c0,0,61,-67,189,-67c0,0,109,0,189,24V43C631,43,595,16,530,1c0,0,-64,-15,-131,-15Z" 
id="f1_1z"
transform="scale(0.001,-0.001)" />

<path d="M41,0V49l69,18V634L41,652v49H313l11,-61l50,26c0,0,105,54,188,54c0,0,125,0,167,-91c0,0,153,91,258,91c0,0,189,0,189,-207V67l71,-17V0H898V50l63,17V484c0,0,0,63,-24,98c0,0,-25,35,-74,35c0,0,-55,0,-119,-31c0,0,7,-32,7,-73V67L821,50V0H473V50l63,17V484c0,0,0,63,-25,98c0,0,-24,35,-73,35c0,0,-49,0,-113,-29V67L389,49V0Z" 
id="f0_29"
transform="scale(0.001,-0.001)" />

<path d="M41,0V49l76,18V624H11v51l106,29v75c0,0,0,144,73,220c0,0,73,77,210,77c0,0,74,0,124,-15V894H476l-22,81c0,0,-18,17,-47,17c0,0,-74,0,-74,-189V701H475V624H333V67L447,49V0Z" 
id="f0_22"
transform="scale(0.001,-0.001)" />

<path d="M420,-22L89,941L1,960v40H383V960L236,941L474,236L744,930h33L1037,236l227,705l-156,19v40h331V960l-87,-19L1025,-22H985L726,666L460,-22Z" 
id="f1_1n"
transform="scale(0.001,-0.001)" />

<path d="M410,-14c0,0,-80,0,-162,14c0,0,-81,14,-144,38V270h48L178,134c0,0,28,-35,95,-62c0,0,68,-27,134,-27c0,0,104,0,163,53c0,0,58,54,58,148c0,0,0,54,-23,89c0,0,-22,35,-59,59c0,0,-37,24,-84,41c0,0,-47,17,-97,34c0,0,-49,17,-96,38c0,0,-47,21,-84,53c0,0,-37,32,-60,79c0,0,-23,48,-23,117c0,0,0,119,90,187c0,0,89,68,248,68c0,0,121,0,263,-32V771H654L628,893c0,0,-76,55,-188,55c0,0,-100,0,-156,-40c0,0,-56,-41,-56,-112c0,0,0,-49,22,-81c0,0,23,-32,60,-55c0,0,37,-22,84,-39c0,0,48,-16,97,-34c0,0,50,-17,97,-39c0,0,48,-22,85,-56c0,0,36,-34,59,-83c0,0,23,-49,23,-120c0,0,0,-145,-89,-224c0,0,-89,-79,-256,-79Z" 
id="f1_1j"
transform="scale(0.001,-0.001)" />

<path d="M57,302V417H454V302Z" 
id="f1_h"
transform="scale(0.001,-0.001)" />

<path d="M346,-14c0,0,-139,0,-276,29L61,258h69L169,96c0,0,29,-16,71,-26c0,0,43,-10,77,-10c0,0,172,0,172,230c0,0,0,120,-44,174c0,0,-44,53,-139,53c0,0,-53,0,-97,-19L186,488H111v512H633V834H194V571c0,0,91,21,164,21c0,0,178,0,264,-74c0,0,86,-73,86,-220c0,0,0,-151,-94,-232c0,0,-93,-80,-268,-80Z" 
id="f0_p"
transform="scale(0.001,-0.001)" />

<path d="M498,506c0,0,115,0,164,47c0,0,48,48,48,166c0,0,0,112,-46,156c0,0,-46,43,-169,43H390V506ZM793,0L514,423H390V74L518,54V0H36V54L154,74V926L26,945v55H504c0,0,221,0,330,-68c0,0,109,-68,109,-212c0,0,0,-215,-201,-276L1009,74L1117,54V0Z" 
id="f0_1i"
transform="scale(0.001,-0.001)" />

<path d="M424,64c0,0,74,0,109,71c0,0,36,72,36,236c0,0,0,137,-34,201c0,0,-34,65,-111,65c0,0,-29,0,-62,-7c0,0,-34,-6,-55,-19V76c0,0,47,-12,117,-12Zm21,-78c0,0,-121,0,-354,50V994l-72,18v48H307V802c0,0,0,-69,-8,-141c0,0,30,25,86,42c0,0,57,17,110,17c0,0,153,0,223,-84c0,0,70,-83,70,-266c0,0,0,-180,-90,-283C698,87,608,-14,445,-14Z" 
id="f0_1y"
transform="scale(0.001,-0.001)" />

<path d="M305,-14L57,634L4,652v49H351V652L268,632L419,232L581,631h71L814,232L950,634l-82,18v49h227V652l-54,-15L806,-14H715L555,378L395,-14Z" 
id="f0_2j"
transform="scale(0.001,-0.001)" />

<path d="M416,68c0,0,60,0,124,32V628c0,0,-58,15,-118,15c0,0,-67,0,-104,-73c0,0,-38,-73,-38,-216c0,0,0,-139,36,-212c0,0,35,-74,100,-74ZM369,-14c0,0,-155,0,-231,88c0,0,-76,90,-76,274c0,0,0,182,82,277c0,0,81,95,236,95c0,0,82,0,165,-20c0,0,-5,24,-5,115V992l-72,18v50H756V67L833,49V0H562L547,40C547,40,505,13,483,4c0,0,-23,-7,-51,-12c0,0,-28,-6,-63,-6Z" 
id="f0_20"
transform="scale(0.001,-0.001)" />

<path d="M595,60c0,0,141,0,206,102c0,0,65,102,65,340c0,0,0,236,-65,335c0,0,-65,100,-206,100c0,0,-142,0,-207,-100c0,0,-66,-99,-66,-335c0,0,0,-239,66,-340c0,0,65,-102,207,-102Zm0,-74c0,0,-253,0,-387,130C208,116,75,246,75,501c0,0,0,510,520,510c0,0,256,0,387,-129c0,0,132,-130,132,-381c0,0,0,-254,-133,-385C981,116,848,-14,595,-14Z" 
id="f0_1f"
transform="scale(0.001,-0.001)" />

<path d="M412,-18c0,0,-144,0,-239,85c0,0,-95,86,-108,222l133,18c0,0,24,-114,79,-164c0,0,55,-50,135,-50c0,0,96,0,161,65c0,0,65,66,65,163c0,0,0,92,-61,152c0,0,-60,60,-153,60c0,0,-38,0,-95,-15l15,119c0,0,13,-2,21,-2c0,0,86,0,155,45c0,0,69,44,69,137c0,0,0,74,-50,122c0,0,-50,49,-129,49c0,0,-79,0,-131,-50c0,0,-52,-49,-67,-147L78,815c0,0,25,135,112,209c0,0,87,74,217,74c0,0,89,0,164,-38c0,0,76,-39,116,-105c0,0,40,-66,40,-141c0,0,0,-70,-39,-129c0,0,-38,-58,-112,-92c0,0,97,-22,151,-93c0,0,53,-70,53,-176c0,0,0,-143,-104,-243c0,0,-105,-99,-264,-99Z" 
id="f3_n"
transform="scale(0.001,-0.001)" />


</defs>
</svg>