<?xml version="1.0" encoding="UTF-8" standalone="no"?>
<!DOCTYPE svg PUBLIC "-//W3C//DTD SVG 1.1//EN"
"http://www.w3.org/Graphics/SVG/1.1/DTD/svg11.dtd">
<svg viewBox="0 0 935 1210" version="1.1" xmlns="http://www.w3.org/2000/svg" xmlns:xlink="http://www.w3.org/1999/xlink">
<defs>
<clipPath id="c0_9"><path d="M0,1210V0H935V1210Z" /></clipPath>
</defs>
<g clip-path="url(#c0_9)">
<g fill="#000000" >
<use xlink:href="#f0_19" transform="matrix(12,0,0,12,77.8,71.9)" />
<use xlink:href="#f0_22" transform="matrix(12,0,0,12,84,71.9)" />
<use xlink:href="#f0_1x" transform="matrix(12,0,0,12,95.7,71.9)" />
<use xlink:href="#f0_27" transform="matrix(12,0,0,12,110,71.9)" />
<use xlink:href="#f0_21" transform="matrix(12,0,0,12,119.1,71.9)" />
<use xlink:href="#f0_2l" transform="matrix(12,0,0,12,127.6,71.9)" />
<use xlink:href="#f0_2c" transform="matrix(12,0,0,12,142.2,71.9)" />
<use xlink:href="#f0_2e" transform="matrix(12,0,0,12,151.4,71.9)" />
<use xlink:href="#f0_2b" transform="matrix(12,0,0,12,157.6,71.9)" />
<use xlink:href="#f0_2i" transform="matrix(12,0,0,12,167.1,71.9)" />
<use xlink:href="#f0_25" transform="matrix(12,0,0,12,176.3,71.9)" />
<use xlink:href="#f0_20" transform="matrix(12,0,0,12,180.7,71.9)" />
<use xlink:href="#f0_21" transform="matrix(12,0,0,12,189.8,71.9)" />
<use xlink:href="#f0_2f" transform="matrix(12,0,0,12,198.4,71.9)" />
<use xlink:href="#f0_2f" transform="matrix(12,0,0,12,211.6,71.9)" />
<use xlink:href="#f0_21" transform="matrix(12,0,0,12,218.6,71.9)" />
<use xlink:href="#f0_2d" transform="matrix(12,0,0,12,226.7,71.9)" />
<use xlink:href="#f0_2h" transform="matrix(12,0,0,12,235.8,71.9)" />
<use xlink:href="#f0_21" transform="matrix(12,0,0,12,245,71.9)" />
<use xlink:href="#f0_2a" transform="matrix(12,0,0,12,253.4,71.9)" />
<use xlink:href="#f0_1z" transform="matrix(12,0,0,12,262.2,71.9)" />
<use xlink:href="#f0_21" transform="matrix(12,0,0,12,270.3,71.9)" />
<use xlink:href="#f0_2b" transform="matrix(12,0,0,12,284.6,71.9)" />
<use xlink:href="#f0_22" transform="matrix(12,0,0,12,294.1,71.9)" />
<use xlink:href="#f0_1z" transform="matrix(12,0,0,12,305.8,71.9)" />
<use xlink:href="#f0_24" transform="matrix(12,0,0,12,313.9,71.9)" />
<use xlink:href="#f0_2b" transform="matrix(12,0,0,12,322.7,71.9)" />
<use xlink:href="#f0_25" transform="matrix(12,0,0,12,332.5,71.9)" />
<use xlink:href="#f0_1z" transform="matrix(12,0,0,12,336.9,71.9)" />
<use xlink:href="#f0_21" transform="matrix(12,0,0,12,345.3,71.9)" />
<use xlink:href="#f0_2f" transform="matrix(12,0,0,12,353.4,71.9)" />
<use xlink:href="#f0_1y" transform="matrix(12,0,0,12,366.6,71.9)" />
<use xlink:href="#f0_21" transform="matrix(12,0,0,12,375.8,71.9)" />
<use xlink:href="#f0_2g" transform="matrix(12,0,0,12,383.8,71.9)" />
<use xlink:href="#f0_2j" transform="matrix(12,0,0,12,389.3,71.9)" />
<use xlink:href="#f0_21" transform="matrix(12,0,0,12,402.5,71.9)" />
<use xlink:href="#f0_21" transform="matrix(12,0,0,12,410.6,71.9)" />
<use xlink:href="#f0_2a" transform="matrix(12,0,0,12,418.6,71.9)" />
<use xlink:href="#f0_2g" transform="matrix(12,0,0,12,433.9,71.9)" />
<use xlink:href="#f0_2j" transform="matrix(12,0,0,12,439.4,71.9)" />
<use xlink:href="#f0_2b" transform="matrix(12,0,0,12,452.2,71.9)" />
<use xlink:href="#f0_2b" transform="matrix(12,0,0,12,467.2,71.9)" />
<use xlink:href="#f0_2e" transform="matrix(12,0,0,12,476.8,71.9)" />
<use xlink:href="#f0_29" transform="matrix(12,0,0,12,488.8,71.9)" />
<use xlink:href="#f0_2b" transform="matrix(12,0,0,12,502.4,71.9)" />
<use xlink:href="#f0_2e" transform="matrix(12,0,0,12,511.9,71.9)" />
<use xlink:href="#f0_21" transform="matrix(12,0,0,12,518.1,71.9)" />
<use xlink:href="#f0_2f" transform="matrix(12,0,0,12,532.4,71.9)" />
<use xlink:href="#f0_2g" transform="matrix(12,0,0,12,539,71.9)" />
<use xlink:href="#f0_1x" transform="matrix(12,0,0,12,544.5,71.9)" />
<use xlink:href="#f0_2g" transform="matrix(12,0,0,12,552.6,71.9)" />
<use xlink:href="#f0_21" transform="matrix(12,0,0,12,558.1,71.9)" />
<use xlink:href="#f0_29" transform="matrix(12,0,0,12,566.1,71.9)" />
<use xlink:href="#f0_21" transform="matrix(12,0,0,12,579.7,71.9)" />
<use xlink:href="#f0_2a" transform="matrix(12,0,0,12,588.1,71.9)" />
<use xlink:href="#f0_2g" transform="matrix(12,0,0,12,596.9,71.9)" />
<use xlink:href="#f0_2f" transform="matrix(12,0,0,12,602.4,71.9)" />
<use xlink:href="#f0_2b" transform="matrix(12,0,0,12,615.2,71.9)" />
<use xlink:href="#f0_22" transform="matrix(12,0,0,12,624.7,71.9)" />
<use xlink:href="#f0_1z" transform="matrix(12,0,0,12,636.4,71.9)" />
<use xlink:href="#f0_24" transform="matrix(12,0,0,12,644.8,71.9)" />
<use xlink:href="#f0_1x" transform="matrix(12,0,0,12,653.6,71.9)" />
<use xlink:href="#f0_2e" transform="matrix(12,0,0,12,661.7,71.9)" />
<use xlink:href="#f0_1x" transform="matrix(12,0,0,12,667.9,71.9)" />
<use xlink:href="#f0_1z" transform="matrix(12,0,0,12,676,71.9)" />
<use xlink:href="#f0_2g" transform="matrix(12,0,0,12,684.1,71.9)" />
<use xlink:href="#f0_21" transform="matrix(12,0,0,12,689.5,71.9)" />
<use xlink:href="#f0_2e" transform="matrix(12,0,0,12,697.6,71.9)" />
<use xlink:href="#f0_2f" transform="matrix(12,0,0,12,703.8,71.9)" />
<use xlink:href="#f0_2b" transform="matrix(12,0,0,12,716.6,71.9)" />
<use xlink:href="#f0_22" transform="matrix(12,0,0,12,726.2,71.9)" />
<use xlink:href="#f0_2f" transform="matrix(12,0,0,12,737.9,71.9)" />
<use xlink:href="#f0_2c" transform="matrix(12,0,0,12,744.8,71.9)" />
<use xlink:href="#f0_21" transform="matrix(12,0,0,12,754,71.9)" />
<use xlink:href="#f0_1z" transform="matrix(12,0,0,12,762.1,71.9)" />
<use xlink:href="#f0_25" transform="matrix(12,0,0,12,770.5,71.9)" />
<use xlink:href="#f0_21" transform="matrix(12,0,0,12,775.2,71.9)" />
<use xlink:href="#f0_2f" transform="matrix(12,0,0,12,783.3,71.9)" />
<use xlink:href="#f0_g" transform="matrix(12,0,0,12,790.8,71.9)" />
<use xlink:href="#f0_25" transform="matrix(12,0,0,12,802.2,71.9)" />
<use xlink:href="#f0_2g" transform="matrix(12,0,0,12,806.6,71.9)" />
<use xlink:href="#f0_25" transform="matrix(12,0,0,12,818.3,71.9)" />
<use xlink:href="#f0_2f" transform="matrix(12,0,0,12,823.1,71.9)" />
<use xlink:href="#f0_1z" transform="matrix(12,0,0,12,836.3,71.9)" />
<use xlink:href="#f0_1x" transform="matrix(12,0,0,12,844.3,71.9)" />
<use xlink:href="#f0_28" transform="matrix(12,0,0,12,852.8,71.9)" />
<use xlink:href="#f0_28" transform="matrix(12,0,0,12,857.5,71.9)" />
<use xlink:href="#f0_21" transform="matrix(12,0,0,12,862.3,71.9)" />
<use xlink:href="#f0_20" transform="matrix(12,0,0,12,870.7,71.9)" />
<use xlink:href="#f1_25" transform="matrix(12,0,0,12,77.8,93.2)" />
<use xlink:href="#f1_2a" transform="matrix(12,0,0,12,82.9,93.2)" />
<use xlink:href="#f1_20" transform="matrix(12,0,0,12,93.2,93.2)" />
<use xlink:href="#f1_21" transform="matrix(12,0,0,12,103.4,93.2)" />
<use xlink:href="#f1_2a" transform="matrix(12,0,0,12,111.5,93.2)" />
<use xlink:href="#f1_2g" transform="matrix(12,0,0,12,121.7,93.2)" />
<use xlink:href="#f1_21" transform="matrix(12,0,0,12,127.9,93.2)" />
<use xlink:href="#f1_20" transform="matrix(12,0,0,12,136,93.2)" />
<use xlink:href="#f1_27" transform="matrix(12,0,0,12,151,93.2)" />
<use xlink:href="#f1_21" transform="matrix(12,0,0,12,160.9,93.2)" />
<use xlink:href="#f1_2l" transform="matrix(12,0,0,12,169,93.2)" />
<use xlink:href="#f0_i" transform="matrix(12,0,0,12,178.3,93.2)" />
<use xlink:href="#f0_15" transform="matrix(12,0,0,12,187.4,93.2)" />
<use xlink:href="#f0_1x" transform="matrix(12,0,0,12,198.8,93.2)" />
<use xlink:href="#f0_1z" transform="matrix(12,0,0,12,206.9,93.2)" />
<use xlink:href="#f0_24" transform="matrix(12,0,0,12,214.9,93.2)" />
<use xlink:href="#f0_2f" transform="matrix(12,0,0,12,228.5,93.2)" />
<use xlink:href="#f0_2g" transform="matrix(12,0,0,12,235.4,93.2)" />
<use xlink:href="#f0_1x" transform="matrix(12,0,0,12,240.9,93.2)" />
<use xlink:href="#f0_2g" transform="matrix(12,0,0,12,248.6,93.2)" />
<use xlink:href="#f0_21" transform="matrix(12,0,0,12,254.1,93.2)" />
<use xlink:href="#f0_29" transform="matrix(12,0,0,12,262.5,93.2)" />
<use xlink:href="#f0_21" transform="matrix(12,0,0,12,276.1,93.2)" />
<use xlink:href="#f0_2a" transform="matrix(12,0,0,12,284.5,93.2)" />
<use xlink:href="#f0_2g" transform="matrix(12,0,0,12,293.3,93.2)" />
<use xlink:href="#f0_25" transform="matrix(12,0,0,12,303.5,93.2)" />
<use xlink:href="#f0_2a" transform="matrix(12,0,0,12,308.3,93.2)" />
<use xlink:href="#f0_1x" transform="matrix(12,0,0,12,321.8,93.2)" />
<use xlink:href="#f0_27" transform="matrix(12,0,0,12,334.7,93.2)" />
<use xlink:href="#f0_21" transform="matrix(12,0,0,12,343.8,93.2)" />
<use xlink:href="#f0_2l" transform="matrix(12,0,0,12,352.2,93.2)" />
<use xlink:href="#f0_25" transform="matrix(12,0,0,12,365.8,93.2)" />
<use xlink:href="#f0_2f" transform="matrix(12,0,0,12,370.6,93.2)" />
<use xlink:href="#f0_1z" transform="matrix(12,0,0,12,382.3,93.2)" />
<use xlink:href="#f0_1x" transform="matrix(12,0,0,12,390.3,93.2)" />
<use xlink:href="#f0_28" transform="matrix(12,0,0,12,398.8,93.2)" />
<use xlink:href="#f0_28" transform="matrix(12,0,0,12,403.8,93.2)" />
<use xlink:href="#f0_21" transform="matrix(12,0,0,12,408.7,93.2)" />
<use xlink:href="#f0_20" transform="matrix(12,0,0,12,416.7,93.2)" />
<use xlink:href="#f1_1x" transform="matrix(12,0,0,12,431,93.2)" />
<use xlink:href="#f1_28" transform="matrix(12,0,0,12,444.9,93.2)" />
<use xlink:href="#f1_21" transform="matrix(12,0,0,12,450,93.2)" />
<use xlink:href="#f1_1x" transform="matrix(12,0,0,12,458.1,93.2)" />
<use xlink:href="#f1_20" transform="matrix(12,0,0,12,467.3,93.2)" />
<use xlink:href="#f1_i" transform="matrix(12,0,0,12,477.5,93.2)" />
<use xlink:href="#f0_19" transform="matrix(12,0,0,12,77.8,123.2)" />
<use xlink:href="#f0_22" transform="matrix(12,0,0,12,84,123.2)" />
<use xlink:href="#f0_2g" transform="matrix(12,0,0,12,94.6,123.2)" />
<use xlink:href="#f0_24" transform="matrix(12,0,0,12,100.1,123.2)" />
<use xlink:href="#f0_21" transform="matrix(12,0,0,12,108.9,123.2)" />
<use xlink:href="#f0_2c" transform="matrix(12,0,0,12,122.1,123.2)" />
<use xlink:href="#f0_1x" transform="matrix(12,0,0,12,131.2,123.2)" />
<use xlink:href="#f0_25" transform="matrix(12,0,0,12,139.6,123.2)" />
<use xlink:href="#f0_2e" transform="matrix(12,0,0,12,144.4,123.2)" />
<use xlink:href="#f0_2f" transform="matrix(12,0,0,12,150.6,123.2)" />
<use xlink:href="#f0_2b" transform="matrix(12,0,0,12,162.7,123.2)" />
<use xlink:href="#f0_22" transform="matrix(12,0,0,12,172.2,123.2)" />
<use xlink:href="#f0_1z" transform="matrix(12,0,0,12,182.8,123.2)" />
<use xlink:href="#f0_2b" transform="matrix(12,0,0,12,190.9,123.2)" />
<use xlink:href="#f0_2a" transform="matrix(12,0,0,12,200.4,123.2)" />
<use xlink:href="#f0_2g" transform="matrix(12,0,0,12,209.2,123.2)" />
<use xlink:href="#f0_2e" transform="matrix(12,0,0,12,214.7,123.2)" />
<use xlink:href="#f0_1x" transform="matrix(12,0,0,12,220.9,123.2)" />
<use xlink:href="#f0_2f" transform="matrix(12,0,0,12,229,123.2)" />
<use xlink:href="#f0_2g" transform="matrix(12,0,0,12,235.9,123.2)" />
<use xlink:href="#f0_25" transform="matrix(12,0,0,12,241.4,123.2)" />
<use xlink:href="#f0_2a" transform="matrix(12,0,0,12,246.2,123.2)" />
<use xlink:href="#f0_23" transform="matrix(12,0,0,12,255,123.2)" />
<use xlink:href="#f0_1z" transform="matrix(12,0,0,12,269.3,123.2)" />
<use xlink:href="#f0_24" transform="matrix(12,0,0,12,277.7,123.2)" />
<use xlink:href="#f0_1x" transform="matrix(12,0,0,12,286.5,123.2)" />
<use xlink:href="#f0_2e" transform="matrix(12,0,0,12,294.6,123.2)" />
<use xlink:href="#f0_1x" transform="matrix(12,0,0,12,300.8,123.2)" />
<use xlink:href="#f0_1z" transform="matrix(12,0,0,12,308.8,123.2)" />
<use xlink:href="#f0_2g" transform="matrix(12,0,0,12,316.9,123.2)" />
<use xlink:href="#f0_21" transform="matrix(12,0,0,12,322.4,123.2)" />
<use xlink:href="#f0_2e" transform="matrix(12,0,0,12,330.5,123.2)" />
<use xlink:href="#f0_2f" transform="matrix(12,0,0,12,336.7,123.2)" />
<use xlink:href="#f0_1x" transform="matrix(12,0,0,12,348.8,123.2)" />
<use xlink:href="#f0_2e" transform="matrix(12,0,0,12,356.8,123.2)" />
<use xlink:href="#f0_21" transform="matrix(12,0,0,12,363,123.2)" />
<use xlink:href="#f0_2a" transform="matrix(12,0,0,12,376.2,123.2)" />
<use xlink:href="#f0_2b" transform="matrix(12,0,0,12,385,123.2)" />
<use xlink:href="#f0_2g" transform="matrix(12,0,0,12,394.5,123.2)" />
<use xlink:href="#f0_2e" transform="matrix(12,0,0,12,404.8,123.2)" />
<use xlink:href="#f0_21" transform="matrix(12,0,0,12,411,123.2)" />
<use xlink:href="#f0_2c" transform="matrix(12,0,0,12,419,123.2)" />
<use xlink:href="#f0_21" transform="matrix(12,0,0,12,428.2,123.2)" />
<use xlink:href="#f0_1x" transform="matrix(12,0,0,12,436.3,123.2)" />
<use xlink:href="#f0_2g" transform="matrix(12,0,0,12,444.3,123.2)" />
<use xlink:href="#f0_21" transform="matrix(12,0,0,12,449.4,123.2)" />
<use xlink:href="#f0_20" transform="matrix(12,0,0,12,457.6,123.2)" />
<use xlink:href="#f0_1y" transform="matrix(12,0,0,12,471.8,123.2)" />
<use xlink:href="#f0_2l" transform="matrix(12,0,0,12,481,123.2)" />
<use xlink:href="#f0_2f" transform="matrix(12,0,0,12,494.9,123.2)" />
<use xlink:href="#f0_2h" transform="matrix(12,0,0,12,501.9,123.2)" />
<use xlink:href="#f0_1y" transform="matrix(12,0,0,12,511.4,123.2)" />
<use xlink:href="#f0_20" transform="matrix(12,0,0,12,520.2,123.2)" />
<use xlink:href="#f0_25" transform="matrix(12,0,0,12,529.7,123.2)" />
<use xlink:href="#f0_2i" transform="matrix(12,0,0,12,534.5,123.2)" />
<use xlink:href="#f0_25" transform="matrix(12,0,0,12,544,123.2)" />
<use xlink:href="#f0_20" transform="matrix(12,0,0,12,548.8,123.2)" />
<use xlink:href="#f0_25" transform="matrix(12,0,0,12,558.3,123.2)" />
<use xlink:href="#f0_2a" transform="matrix(12,0,0,12,563,123.2)" />
<use xlink:href="#f0_23" transform="matrix(12,0,0,12,572.2,123.2)" />
<use xlink:href="#f0_1z" transform="matrix(12,0,0,12,586.5,123.2)" />
<use xlink:href="#f0_24" transform="matrix(12,0,0,12,594.9,123.2)" />
<use xlink:href="#f0_1x" transform="matrix(12,0,0,12,603.7,123.2)" />
<use xlink:href="#f0_2e" transform="matrix(12,0,0,12,611.8,123.2)" />
<use xlink:href="#f0_1x" transform="matrix(12,0,0,12,618,123.2)" />
<use xlink:href="#f0_1z" transform="matrix(12,0,0,12,626,123.2)" />
<use xlink:href="#f0_2g" transform="matrix(12,0,0,12,634.1,123.2)" />
<use xlink:href="#f0_21" transform="matrix(12,0,0,12,639.6,123.2)" />
<use xlink:href="#f0_2e" transform="matrix(12,0,0,12,647.7,123.2)" />
<use xlink:href="#f0_2f" transform="matrix(12,0,0,12,653.9,123.2)" />
<use xlink:href="#f0_1x" transform="matrix(12,0,0,12,666,123.2)" />
<use xlink:href="#f0_2a" transform="matrix(12,0,0,12,674,123.2)" />
<use xlink:href="#f0_20" transform="matrix(12,0,0,12,682.8,123.2)" />
<use xlink:href="#f0_21" transform="matrix(12,0,0,12,697.1,123.2)" />
<use xlink:href="#f0_1x" transform="matrix(12,0,0,12,705.2,123.2)" />
<use xlink:href="#f0_1z" transform="matrix(12,0,0,12,713.2,123.2)" />
<use xlink:href="#f0_24" transform="matrix(12,0,0,12,721.7,123.2)" />
<use xlink:href="#f0_1z" transform="matrix(12,0,0,12,735.6,123.2)" />
<use xlink:href="#f0_24" transform="matrix(12,0,0,12,744,123.2)" />
<use xlink:href="#f0_1x" transform="matrix(12,0,0,12,752.8,123.2)" />
<use xlink:href="#f0_2e" transform="matrix(12,0,0,12,760.9,123.2)" />
<use xlink:href="#f0_1x" transform="matrix(12,0,0,12,767.1,123.2)" />
<use xlink:href="#f0_1z" transform="matrix(12,0,0,12,775.1,123.2)" />
<use xlink:href="#f0_2g" transform="matrix(12,0,0,12,783.2,123.2)" />
<use xlink:href="#f0_21" transform="matrix(12,0,0,12,788.7,123.2)" />
<use xlink:href="#f0_2e" transform="matrix(12,0,0,12,796.7,123.2)" />
<use xlink:href="#f0_25" transform="matrix(12,0,0,12,808.4,123.2)" />
<use xlink:href="#f0_2f" transform="matrix(12,0,0,12,812.8,123.2)" />
<use xlink:href="#f0_23" transform="matrix(12,0,0,12,825.3,123.2)" />
<use xlink:href="#f0_25" transform="matrix(12,0,0,12,834.8,123.2)" />
<use xlink:href="#f0_2i" transform="matrix(12,0,0,12,839.6,123.2)" />
<use xlink:href="#f0_21" transform="matrix(12,0,0,12,848.4,123.2)" />
<use xlink:href="#f0_2a" transform="matrix(12,0,0,12,856.8,123.2)" />
<use xlink:href="#f0_1x" transform="matrix(12,0,0,12,870.7,123.2)" />
<use xlink:href="#f0_2a" transform="matrix(12,0,0,12,77.8,144.5)" />
<use xlink:href="#f0_2h" transform="matrix(12,0,0,12,86.6,144.5)" />
<use xlink:href="#f0_29" transform="matrix(12,0,0,12,96.1,144.5)" />
<use xlink:href="#f0_1y" transform="matrix(12,0,0,12,110,144.5)" />
<use xlink:href="#f0_21" transform="matrix(12,0,0,12,119.2,144.5)" />
<use xlink:href="#f0_2e" transform="matrix(12,0,0,12,127.3,144.5)" />
<use xlink:href="#f0_25" transform="matrix(12,0,0,12,138.6,144.5)" />
<use xlink:href="#f0_2a" transform="matrix(12,0,0,12,143.3,144.5)" />
<use xlink:href="#f0_1y" transform="matrix(12,0,0,12,157.3,144.5)" />
<use xlink:href="#f0_2e" transform="matrix(12,0,0,12,166.1,144.5)" />
<use xlink:href="#f0_1x" transform="matrix(12,0,0,12,172.3,144.5)" />
<use xlink:href="#f0_1z" transform="matrix(12,0,0,12,180.3,144.5)" />
<use xlink:href="#f0_27" transform="matrix(12,0,0,12,188.4,144.5)" />
<use xlink:href="#f0_21" transform="matrix(12,0,0,12,197.6,144.5)" />
<use xlink:href="#f0_2g" transform="matrix(12,0,0,12,205.6,144.5)" />
<use xlink:href="#f0_g" transform="matrix(12,0,0,12,211.1,144.5)" />
<use xlink:href="#f0_25" transform="matrix(12,0,0,12,220.8,144.5)" />
<use xlink:href="#f0_2g" transform="matrix(12,0,0,12,225.2,144.5)" />
<use xlink:href="#f0_25" transform="matrix(12,0,0,12,235.4,144.5)" />
<use xlink:href="#f0_2f" transform="matrix(12,0,0,12,239.8,144.5)" />
<use xlink:href="#f0_1z" transform="matrix(12,0,0,12,251.6,144.5)" />
<use xlink:href="#f0_1x" transform="matrix(12,0,0,12,259.6,144.5)" />
<use xlink:href="#f0_28" transform="matrix(12,0,0,12,268,144.5)" />
<use xlink:href="#f0_28" transform="matrix(12,0,0,12,273.1,144.5)" />
<use xlink:href="#f0_21" transform="matrix(12,0,0,12,277.9,144.5)" />
<use xlink:href="#f0_20" transform="matrix(12,0,0,12,286,144.5)" />
<use xlink:href="#f1_1y" transform="matrix(12,0,0,12,300,144.5)" />
<use xlink:href="#f1_2e" transform="matrix(12,0,0,12,310.7,144.5)" />
<use xlink:href="#f1_1x" transform="matrix(12,0,0,12,318.4,144.5)" />
<use xlink:href="#f1_1z" transform="matrix(12,0,0,12,327.5,144.5)" />
<use xlink:href="#f1_27" transform="matrix(12,0,0,12,335.9,144.5)" />
<use xlink:href="#f1_21" transform="matrix(12,0,0,12,345.8,144.5)" />
<use xlink:href="#f1_2g" transform="matrix(12,0,0,12,353.9,144.5)" />
<use xlink:href="#f1_21" transform="matrix(12,0,0,12,360.1,144.5)" />
<use xlink:href="#f1_20" transform="matrix(12,0,0,12,368.2,144.5)" />
<use xlink:href="#f1_27" transform="matrix(12,0,0,12,383.2,144.5)" />
<use xlink:href="#f1_21" transform="matrix(12,0,0,12,393.1,144.5)" />
<use xlink:href="#f1_2l" transform="matrix(12,0,0,12,401.1,144.5)" />
<use xlink:href="#f1_i" transform="matrix(12,0,0,12,410.3,144.5)" />
<use xlink:href="#f1_c" transform="matrix(12,0,0,12,77.8,493)" />
<use xlink:href="#f1_21" transform="matrix(12,0,0,12,84,493)" />
<use xlink:href="#f1_d" transform="matrix(12,0,0,12,92.1,493)" />
<use xlink:href="#f1_i" transform="matrix(12,0,0,12,98.3,493)" />
<use xlink:href="#f1_1q" transform="matrix(12,0,0,12,103,493)" />
<use xlink:href="#f1_2b" transform="matrix(12,0,0,12,114.7,493)" />
<use xlink:href="#f1_2b" transform="matrix(12,0,0,12,123.9,493)" />
<use xlink:href="#f1_28" transform="matrix(12,0,0,12,133.1,493)" />
<use xlink:href="#f1_2b" transform="matrix(12,0,0,12,137.8,493)" />
<use xlink:href="#f1_23" transform="matrix(12,0,0,12,147,493)" />
<use xlink:href="#f1_25" transform="matrix(12,0,0,12,156.2,493)" />
<use xlink:href="#f1_1z" transform="matrix(12,0,0,12,161.3,493)" />
<use xlink:href="#f1_1x" transform="matrix(12,0,0,12,169.4,493)" />
<use xlink:href="#f1_28" transform="matrix(12,0,0,12,178.9,493)" />
<use xlink:href="#f1_2c" transform="matrix(12,0,0,12,188.4,493)" />
<use xlink:href="#f1_1x" transform="matrix(12,0,0,12,198.7,493)" />
<use xlink:href="#f1_2e" transform="matrix(12,0,0,12,208.2,493)" />
<use xlink:href="#f1_27" transform="matrix(12,0,0,12,215.9,493)" />
<use xlink:href="#f1_2f" transform="matrix(12,0,0,12,226.1,493)" />
<use xlink:href="#f1_u" transform="matrix(12,0,0,12,233.1,493)" />
<use xlink:href="#f0_1q" transform="matrix(12,0,0,12,77.8,523)" />
<use xlink:href="#f0_2b" transform="matrix(12,0,0,12,88.8,523)" />
<use xlink:href="#f0_2b" transform="matrix(12,0,0,12,98.3,523)" />
<use xlink:href="#f0_28" transform="matrix(12,0,0,12,107.8,523)" />
<use xlink:href="#f0_2b" transform="matrix(12,0,0,12,112.2,523)" />
<use xlink:href="#f0_23" transform="matrix(12,0,0,12,121.7,523)" />
<use xlink:href="#f0_25" transform="matrix(12,0,0,12,130.9,523)" />
<use xlink:href="#f0_1z" transform="matrix(12,0,0,12,135.3,523)" />
<use xlink:href="#f0_1x" transform="matrix(12,0,0,12,143.7,523)" />
<use xlink:href="#f0_28" transform="matrix(12,0,0,12,152.1,523)" />
<use xlink:href="#f0_2c" transform="matrix(12,0,0,12,160.2,523)" />
<use xlink:href="#f0_1x" transform="matrix(12,0,0,12,169.3,523)" />
<use xlink:href="#f0_2e" transform="matrix(12,0,0,12,177.4,523)" />
<use xlink:href="#f0_27" transform="matrix(12,0,0,12,183.6,523)" />
<use xlink:href="#f0_2f" transform="matrix(12,0,0,12,193.1,523)" />
<use xlink:href="#f0_1x" transform="matrix(12,0,0,12,203.8,523)" />
<use xlink:href="#f0_2e" transform="matrix(12,0,0,12,211.8,523)" />
<use xlink:href="#f0_21" transform="matrix(12,0,0,12,218.1,523)" />
<use xlink:href="#f0_2g" transform="matrix(12,0,0,12,229.8,523)" />
<use xlink:href="#f0_24" transform="matrix(12,0,0,12,235.3,523)" />
<use xlink:href="#f0_21" transform="matrix(12,0,0,12,244.1,523)" />
<use xlink:href="#f0_2c" transform="matrix(12,0,0,12,255.8,523)" />
<use xlink:href="#f0_28" transform="matrix(12,0,0,12,265.3,523)" />
<use xlink:href="#f0_1x" transform="matrix(12,0,0,12,269.7,523)" />
<use xlink:href="#f0_1z" transform="matrix(12,0,0,12,277.8,523)" />
<use xlink:href="#f0_21" transform="matrix(12,0,0,12,285.9,523)" />
<use xlink:href="#f0_2f" transform="matrix(12,0,0,12,294.3,523)" />
<use xlink:href="#f0_2j" transform="matrix(12,0,0,12,305.2,523)" />
<use xlink:href="#f0_24" transform="matrix(12,0,0,12,318.4,523)" />
<use xlink:href="#f0_21" transform="matrix(12,0,0,12,327.6,523)" />
<use xlink:href="#f0_2e" transform="matrix(12,0,0,12,335.6,523)" />
<use xlink:href="#f0_21" transform="matrix(12,0,0,12,341.8,523)" />
<use xlink:href="#f1_1x" transform="matrix(12,0,0,12,353.6,523)" />
<use xlink:href="#f1_2a" transform="matrix(12,0,0,12,362.8,523)" />
<use xlink:href="#f1_25" transform="matrix(12,0,0,12,373,523)" />
<use xlink:href="#f1_29" transform="matrix(12,0,0,12,378.1,523)" />
<use xlink:href="#f1_1x" transform="matrix(12,0,0,12,393.2,523)" />
<use xlink:href="#f1_28" transform="matrix(12,0,0,12,402.4,523)" />
<use xlink:href="#f1_2f" transform="matrix(12,0,0,12,407.5,523)" />
<use xlink:href="#f1_1x" transform="matrix(12,0,0,12,418.1,523)" />
<use xlink:href="#f1_2e" transform="matrix(12,0,0,12,427.6,523)" />
<use xlink:href="#f1_21" transform="matrix(12,0,0,12,435.3,523)" />
<use xlink:href="#f1_27" transform="matrix(12,0,0,12,447.1,523)" />
<use xlink:href="#f1_21" transform="matrix(12,0,0,12,457,523)" />
<use xlink:href="#f1_2c" transform="matrix(12,0,0,12,465,523)" />
<use xlink:href="#f1_2g" transform="matrix(12,0,0,12,475.3,523)" />
<use xlink:href="#f1_25" transform="matrix(12,0,0,12,485.2,523)" />
<use xlink:href="#f1_2a" transform="matrix(12,0,0,12,490.3,523)" />
<use xlink:href="#f1_2c" transform="matrix(12,0,0,12,504.2,523)" />
<use xlink:href="#f1_2e" transform="matrix(12,0,0,12,514.5,523)" />
<use xlink:href="#f1_2b" transform="matrix(12,0,0,12,522.2,523)" />
<use xlink:href="#f1_2g" transform="matrix(12,0,0,12,531.3,523)" />
<use xlink:href="#f1_21" transform="matrix(12,0,0,12,537.6,523)" />
<use xlink:href="#f1_1z" transform="matrix(12,0,0,12,545.6,523)" />
<use xlink:href="#f1_2g" transform="matrix(12,0,0,12,553.7,523)" />
<use xlink:href="#f1_21" transform="matrix(12,0,0,12,559.9,523)" />
<use xlink:href="#f1_20" transform="matrix(12,0,0,12,568,523)" />
<use xlink:href="#f1_21" transform="matrix(12,0,0,12,581.9,523)" />
<use xlink:href="#f1_2a" transform="matrix(12,0,0,12,590,523)" />
<use xlink:href="#f1_2i" transform="matrix(12,0,0,12,600.2,523)" />
<use xlink:href="#f1_25" transform="matrix(12,0,0,12,609.4,523)" />
<use xlink:href="#f1_2e" transform="matrix(12,0,0,12,614.5,523)" />
<use xlink:href="#f1_2b" transform="matrix(12,0,0,12,622.2,523)" />
<use xlink:href="#f1_2a" transform="matrix(12,0,0,12,631.4,523)" />
<use xlink:href="#f1_29" transform="matrix(12,0,0,12,641.6,523)" />
<use xlink:href="#f1_21" transform="matrix(12,0,0,12,657,523)" />
<use xlink:href="#f1_2a" transform="matrix(12,0,0,12,665.1,523)" />
<use xlink:href="#f1_2g" transform="matrix(12,0,0,12,675.3,523)" />
<use xlink:href="#f1_2h" transform="matrix(12,0,0,12,685.2,523)" />
<use xlink:href="#f1_2a" transform="matrix(12,0,0,12,695.4,523)" />
<use xlink:href="#f1_20" transform="matrix(12,0,0,12,705.7,523)" />
<use xlink:href="#f1_21" transform="matrix(12,0,0,12,715.9,523)" />
<use xlink:href="#f1_2e" transform="matrix(12,0,0,12,724,523)" />
<use xlink:href="#f1_24" transform="matrix(12,0,0,12,735.4,523)" />
<use xlink:href="#f1_2h" transform="matrix(12,0,0,12,745.6,523)" />
<use xlink:href="#f1_29" transform="matrix(12,0,0,12,755.9,523)" />
<use xlink:href="#f1_1x" transform="matrix(12,0,0,12,770.9,523)" />
<use xlink:href="#f1_2a" transform="matrix(12,0,0,12,780.1,523)" />
<use xlink:href="#f1_1z" transform="matrix(12,0,0,12,794,523)" />
<use xlink:href="#f1_1x" transform="matrix(12,0,0,12,802.1,523)" />
<use xlink:href="#f1_2e" transform="matrix(12,0,0,12,811.2,523)" />
<use xlink:href="#f1_21" transform="matrix(12,0,0,12,819.3,523)" />
<use xlink:href="#f1_i" transform="matrix(12,0,0,12,827.4,523)" />
<use xlink:href="#f0_1k" transform="matrix(12,0,0,12,836.3,523)" />
<use xlink:href="#f0_24" transform="matrix(12,0,0,12,847.6,523)" />
<use xlink:href="#f0_21" transform="matrix(12,0,0,12,856.4,523)" />
<use xlink:href="#f0_2f" transform="matrix(12,0,0,12,864.5,523)" />
<use xlink:href="#f0_21" transform="matrix(12,0,0,12,871.8,523)" />
<use xlink:href="#f0_21" transform="matrix(12,0,0,12,77.8,544.3)" />
<use xlink:href="#f0_2a" transform="matrix(12,0,0,12,85.8,544.3)" />
<use xlink:href="#f0_1x" transform="matrix(12,0,0,12,94.6,544.3)" />
<use xlink:href="#f0_1y" transform="matrix(12,0,0,12,103.1,544.3)" />
<use xlink:href="#f0_28" transform="matrix(12,0,0,12,112.2,544.3)" />
<use xlink:href="#f0_21" transform="matrix(12,0,0,12,117,544.3)" />
<use xlink:href="#f0_2h" transform="matrix(12,0,0,12,129.8,544.3)" />
<use xlink:href="#f0_2f" transform="matrix(12,0,0,12,139,544.3)" />
<use xlink:href="#f0_2g" transform="matrix(12,0,0,12,150.7,544.3)" />
<use xlink:href="#f0_2b" transform="matrix(12,0,0,12,156.2,544.3)" />
<use xlink:href="#f0_28" transform="matrix(12,0,0,12,170.1,544.3)" />
<use xlink:href="#f0_21" transform="matrix(12,0,0,12,174.5,544.3)" />
<use xlink:href="#f0_1x" transform="matrix(12,0,0,12,182.9,544.3)" />
<use xlink:href="#f0_2e" transform="matrix(12,0,0,12,191,544.3)" />
<use xlink:href="#f0_2a" transform="matrix(12,0,0,12,197.2,544.3)" />
<use xlink:href="#f0_1x" transform="matrix(12,0,0,12,210.9,544.3)" />
<use xlink:href="#f0_1y" transform="matrix(12,0,0,12,219.3,544.3)" />
<use xlink:href="#f0_2b" transform="matrix(12,0,0,12,228.1,544.3)" />
<use xlink:href="#f0_2h" transform="matrix(12,0,0,12,237.6,544.3)" />
<use xlink:href="#f0_2g" transform="matrix(12,0,0,12,246.8,544.3)" />
<use xlink:href="#f0_2g" transform="matrix(12,0,0,12,256.3,544.3)" />
<use xlink:href="#f0_24" transform="matrix(12,0,0,12,261.8,544.3)" />
<use xlink:href="#f0_21" transform="matrix(12,0,0,12,270.6,544.3)" />
<use xlink:href="#f0_25" transform="matrix(12,0,0,12,279,544.3)" />
<use xlink:href="#f0_2e" transform="matrix(12,0,0,12,283.4,544.3)" />
<use xlink:href="#f0_22" transform="matrix(12,0,0,12,294.8,544.3)" />
<use xlink:href="#f0_2b" transform="matrix(12,0,0,12,300.3,544.3)" />
<use xlink:href="#f0_2b" transform="matrix(12,0,0,12,309.8,544.3)" />
<use xlink:href="#f0_20" transform="matrix(12,0,0,12,319.3,544.3)" />
<use xlink:href="#f0_24" transform="matrix(12,0,0,12,332.8,544.3)" />
<use xlink:href="#f0_1x" transform="matrix(12,0,0,12,341.6,544.3)" />
<use xlink:href="#f0_1y" transform="matrix(12,0,0,12,350.1,544.3)" />
<use xlink:href="#f0_25" transform="matrix(12,0,0,12,359.2,544.3)" />
<use xlink:href="#f0_2g" transform="matrix(12,0,0,12,363.6,544.3)" />
<use xlink:href="#f0_2f" transform="matrix(12,0,0,12,369.1,544.3)" />
<use xlink:href="#f0_1x" transform="matrix(12,0,0,12,380.8,544.3)" />
<use xlink:href="#f0_2a" transform="matrix(12,0,0,12,389.2,544.3)" />
<use xlink:href="#f0_20" transform="matrix(12,0,0,12,398,544.3)" />
<use xlink:href="#f0_1y" transform="matrix(12,0,0,12,412,544.3)" />
<use xlink:href="#f0_21" transform="matrix(12,0,0,12,420.8,544.3)" />
<use xlink:href="#f0_24" transform="matrix(12,0,0,12,429.2,544.3)" />
<use xlink:href="#f0_1x" transform="matrix(12,0,0,12,438,544.3)" />
<use xlink:href="#f0_2i" transform="matrix(12,0,0,12,446.4,544.3)" />
<use xlink:href="#f0_25" transform="matrix(12,0,0,12,455.5,544.3)" />
<use xlink:href="#f0_2b" transform="matrix(12,0,0,12,459.9,544.3)" />
<use xlink:href="#f0_2e" transform="matrix(12,0,0,12,469.5,544.3)" />
<use xlink:href="#f1_i" transform="matrix(12,0,0,12,476.1,544.3)" />
<use xlink:href="#f0_1k" transform="matrix(12,0,0,12,77.8,574.7)" />
<use xlink:href="#f0_24" transform="matrix(12,0,0,12,89.1,574.7)" />
<use xlink:href="#f0_21" transform="matrix(12,0,0,12,97.9,574.7)" />
<use xlink:href="#f0_28" transform="matrix(12,0,0,12,111.1,574.7)" />
<use xlink:href="#f0_1x" transform="matrix(12,0,0,12,115.5,574.7)" />
<use xlink:href="#f0_2e" transform="matrix(12,0,0,12,123.6,574.7)" />
<use xlink:href="#f0_23" transform="matrix(12,0,0,12,129.8,574.7)" />
<use xlink:href="#f0_21" transform="matrix(12,0,0,12,138.9,574.7)" />
<use xlink:href="#f0_2f" transform="matrix(12,0,0,12,147.4,574.7)" />
<use xlink:href="#f0_2g" transform="matrix(12,0,0,12,154.3,574.7)" />
<use xlink:href="#f0_2m" transform="matrix(12,0,0,12,164.6,574.7)" />
<use xlink:href="#f0_2b" transform="matrix(12,0,0,12,172.3,574.7)" />
<use xlink:href="#f0_2b" transform="matrix(12,0,0,12,181.4,574.7)" />
<use xlink:href="#f0_25" transform="matrix(12,0,0,12,195.7,574.7)" />
<use xlink:href="#f0_2a" transform="matrix(12,0,0,12,200.5,574.7)" />
<use xlink:href="#f0_2g" transform="matrix(12,0,0,12,214,574.7)" />
<use xlink:href="#f0_24" transform="matrix(12,0,0,12,219.5,574.7)" />
<use xlink:href="#f0_21" transform="matrix(12,0,0,12,228.3,574.7)" />
<use xlink:href="#f0_2j" transform="matrix(12,0,0,12,241.1,574.7)" />
<use xlink:href="#f0_2b" transform="matrix(12,0,0,12,254.6,574.7)" />
<use xlink:href="#f0_2e" transform="matrix(12,0,0,12,263.7,574.7)" />
<use xlink:href="#f0_28" transform="matrix(12,0,0,12,270,574.7)" />
<use xlink:href="#f0_20" transform="matrix(12,0,0,12,274.4,574.7)" />
<use xlink:href="#f0_25" transform="matrix(12,0,0,12,288.6,574.7)" />
<use xlink:href="#f0_2f" transform="matrix(12,0,0,12,293.4,574.7)" />
<use xlink:href="#f1_2g" transform="matrix(12,0,0,12,305.2,574.7)" />
<use xlink:href="#f1_24" transform="matrix(12,0,0,12,311.4,574.7)" />
<use xlink:href="#f1_21" transform="matrix(12,0,0,12,321.6,574.7)" />
<use xlink:href="#f1_2m" transform="matrix(12,0,0,12,334.5,574.7)" />
<use xlink:href="#f1_2b" transform="matrix(12,0,0,12,342.2,574.7)" />
<use xlink:href="#f1_2b" transform="matrix(12,0,0,12,351.3,574.7)" />
<use xlink:href="#f1_28" transform="matrix(12,0,0,12,360.8,574.7)" />
<use xlink:href="#f1_2b" transform="matrix(12,0,0,12,365.6,574.7)" />
<use xlink:href="#f1_23" transform="matrix(12,0,0,12,374.8,574.7)" />
<use xlink:href="#f1_25" transform="matrix(12,0,0,12,383.9,574.7)" />
<use xlink:href="#f1_1z" transform="matrix(12,0,0,12,389,574.7)" />
<use xlink:href="#f1_1x" transform="matrix(12,0,0,12,397.2,574.7)" />
<use xlink:href="#f1_28" transform="matrix(12,0,0,12,406.6,574.7)" />
<use xlink:href="#f1_2c" transform="matrix(12,0,0,12,416.2,574.7)" />
<use xlink:href="#f1_1x" transform="matrix(12,0,0,12,426.4,574.7)" />
<use xlink:href="#f1_2e" transform="matrix(12,0,0,12,435.6,574.7)" />
<use xlink:href="#f1_27" transform="matrix(12,0,0,12,443.6,574.7)" />
<use xlink:href="#f1_2b" transform="matrix(12,0,0,12,458.3,574.7)" />
<use xlink:href="#f1_22" transform="matrix(12,0,0,12,467.5,574.7)" />
<use xlink:href="#f1_1b" transform="matrix(12,0,0,12,478.1,574.7)" />
<use xlink:href="#f1_2e" transform="matrix(12,0,0,12,493,574.7)" />
<use xlink:href="#f1_2h" transform="matrix(12,0,0,12,500.7,574.7)" />
<use xlink:href="#f1_23" transform="matrix(12,0,0,12,510.9,574.7)" />
<use xlink:href="#f1_21" transform="matrix(12,0,0,12,520.1,574.7)" />
<use xlink:href="#f1_2e" transform="matrix(12,0,0,12,528.5,574.7)" />
<use xlink:href="#f1_25" transform="matrix(12,0,0,12,541,574.7)" />
<use xlink:href="#f1_2a" transform="matrix(12,0,0,12,546.1,574.7)" />
<use xlink:href="#f1_1j" transform="matrix(12,0,0,12,561.1,574.7)" />
<use xlink:href="#f1_2b" transform="matrix(12,0,0,12,571.3,574.7)" />
<use xlink:href="#f1_2h" transform="matrix(12,0,0,12,580.5,574.7)" />
<use xlink:href="#f1_2g" transform="matrix(12,0,0,12,590.8,574.7)" />
<use xlink:href="#f1_24" transform="matrix(12,0,0,12,596.6,574.7)" />
<use xlink:href="#f1_11" transform="matrix(12,0,0,12,611.6,574.7)" />
<use xlink:href="#f1_22" transform="matrix(12,0,0,12,624.9,574.7)" />
<use xlink:href="#f1_2e" transform="matrix(12,0,0,12,630.7,574.7)" />
<use xlink:href="#f1_25" transform="matrix(12,0,0,12,638.4,574.7)" />
<use xlink:href="#f1_1z" transform="matrix(12,0,0,12,643.5,574.7)" />
<use xlink:href="#f1_1x" transform="matrix(12,0,0,12,651.6,574.7)" />
<use xlink:href="#f1_i" transform="matrix(12,0,0,12,660.8,574.7)" />
<use xlink:href="#f0_1k" transform="matrix(12,0,0,12,77.8,604.8)" />
<use xlink:href="#f0_24" transform="matrix(12,0,0,12,89.1,604.8)" />
<use xlink:href="#f0_21" transform="matrix(12,0,0,12,97.9,604.8)" />
<use xlink:href="#f0_28" transform="matrix(12,0,0,12,111.1,604.8)" />
<use xlink:href="#f0_1x" transform="matrix(12,0,0,12,115.5,604.8)" />
<use xlink:href="#f0_2e" transform="matrix(12,0,0,12,123.6,604.8)" />
<use xlink:href="#f0_23" transform="matrix(12,0,0,12,129.8,604.8)" />
<use xlink:href="#f0_21" transform="matrix(12,0,0,12,138.9,604.8)" />
<use xlink:href="#f0_2f" transform="matrix(12,0,0,12,147.4,604.8)" />
<use xlink:href="#f0_2g" transform="matrix(12,0,0,12,154.3,604.8)" />
<use xlink:href="#f0_2m" transform="matrix(12,0,0,12,164.6,604.8)" />
<use xlink:href="#f0_2b" transform="matrix(12,0,0,12,172.3,604.8)" />
<use xlink:href="#f0_2b" transform="matrix(12,0,0,12,181.4,604.8)" />
<use xlink:href="#f0_25" transform="matrix(12,0,0,12,195.7,604.8)" />
<use xlink:href="#f0_2a" transform="matrix(12,0,0,12,200.5,604.8)" />
<use xlink:href="#f0_19" transform="matrix(12,0,0,12,214,604.8)" />
<use xlink:href="#f0_2a" transform="matrix(12,0,0,12,220.2,604.8)" />
<use xlink:href="#f0_20" transform="matrix(12,0,0,12,229,604.8)" />
<use xlink:href="#f0_25" transform="matrix(12,0,0,12,238.5,604.8)" />
<use xlink:href="#f0_1x" transform="matrix(12,0,0,12,243.3,604.8)" />
<use xlink:href="#f0_25" transform="matrix(12,0,0,12,256.5,604.8)" />
<use xlink:href="#f0_2f" transform="matrix(12,0,0,12,261.2,604.8)" />
<use xlink:href="#f1_2g" transform="matrix(12,0,0,12,273.3,604.8)" />
<use xlink:href="#f1_24" transform="matrix(12,0,0,12,279.5,604.8)" />
<use xlink:href="#f1_21" transform="matrix(12,0,0,12,289.7,604.8)" />
<use xlink:href="#f1_1q" transform="matrix(12,0,0,12,302.6,604.8)" />
<use xlink:href="#f1_2b" transform="matrix(12,0,0,12,314.3,604.8)" />
<use xlink:href="#f1_2b" transform="matrix(12,0,0,12,323.5,604.8)" />
<use xlink:href="#f1_2b" transform="matrix(12,0,0,12,337.4,604.8)" />
<use xlink:href="#f1_22" transform="matrix(12,0,0,12,346.5,604.8)" />
<use xlink:href="#f1_1b" transform="matrix(12,0,0,12,357.1,604.8)" />
<use xlink:href="#f1_2b" transform="matrix(12,0,0,12,371.8,604.8)" />
<use xlink:href="#f1_28" transform="matrix(12,0,0,12,381,604.8)" />
<use xlink:href="#f1_27" transform="matrix(12,0,0,12,385.7,604.8)" />
<use xlink:href="#f1_1x" transform="matrix(12,0,0,12,395.6,604.8)" />
<use xlink:href="#f1_2g" transform="matrix(12,0,0,12,404.8,604.8)" />
<use xlink:href="#f1_1x" transform="matrix(12,0,0,12,411,604.8)" />
<use xlink:href="#f1_i" transform="matrix(12,0,0,12,420.2,604.8)" />
<use xlink:href="#f1_1f" transform="matrix(12,0,0,12,77.8,962.1)" />
<use xlink:href="#f1_1k" transform="matrix(12,0,0,12,92,962.1)" />
<use xlink:href="#f1_18" transform="matrix(12,0,0,12,104.2,962.1)" />
<use xlink:href="#f1_15" transform="matrix(12,0,0,12,118.4,962.1)" />
<use xlink:href="#f1_1i" transform="matrix(12,0,0,12,130.6,962.1)" />
<use xlink:href="#f1_1k" transform="matrix(12,0,0,12,148.2,962.1)" />
<use xlink:href="#f1_11" transform="matrix(12,0,0,12,160.3,962.1)" />
<use xlink:href="#f1_1o" transform="matrix(12,0,0,12,173.5,962.1)" />
<use xlink:href="#f1_1f" transform="matrix(12,0,0,12,186.7,962.1)" />
<use xlink:href="#f1_1e" transform="matrix(12,0,0,12,200.9,962.1)" />
<use xlink:href="#f1_1f" transform="matrix(12,0,0,12,214.2,962.1)" />
<use xlink:href="#f1_1d" transform="matrix(12,0,0,12,228.4,962.1)" />
<use xlink:href="#f1_19" transform="matrix(12,0,0,12,246.1,962.1)" />
<use xlink:href="#f1_13" transform="matrix(12,0,0,12,253,962.1)" />
<use xlink:href="#f1_11" transform="matrix(12,0,0,12,270.6,962.1)" />
<use xlink:href="#f1_19" transform="matrix(12,0,0,12,283.9,962.1)" />
<use xlink:href="#f1_14" transform="matrix(12,0,0,12,290.8,962.1)" />
<use xlink:href="#f1_1j" transform="matrix(12,0,0,12,304,962.1)" />
<use xlink:href="#f0_u" transform="matrix(12,0,0,12,314.3,962.1)" />
<use xlink:href="#f0_12" transform="matrix(12,0,0,12,323.9,962.1)" />
<use xlink:href="#f0_21" transform="matrix(12,0,0,12,336,962.1)" />
<use xlink:href="#f0_2f" transform="matrix(12,0,0,12,344,962.1)" />
<use xlink:href="#f0_25" transform="matrix(12,0,0,12,351.4,962.1)" />
<use xlink:href="#f0_20" transform="matrix(12,0,0,12,355.8,962.1)" />
<use xlink:href="#f0_21" transform="matrix(12,0,0,12,364.9,962.1)" />
<use xlink:href="#f0_2f" transform="matrix(12,0,0,12,373.3,962.1)" />
<use xlink:href="#f0_2g" transform="matrix(12,0,0,12,384.7,962.1)" />
<use xlink:href="#f0_24" transform="matrix(12,0,0,12,390.2,962.1)" />
<use xlink:href="#f0_21" transform="matrix(12,0,0,12,399,962.1)" />
<use xlink:href="#f0_1x" transform="matrix(12,0,0,12,411.5,962.1)" />
<use xlink:href="#f0_1y" transform="matrix(12,0,0,12,419.5,962.1)" />
<use xlink:href="#f0_2b" transform="matrix(12,0,0,12,428.3,962.1)" />
<use xlink:href="#f0_2i" transform="matrix(12,0,0,12,437.8,962.1)" />
<use xlink:href="#f0_21" transform="matrix(12,0,0,12,447,962.1)" />
<use xlink:href="#f0_29" transform="matrix(12,0,0,12,459.5,962.1)" />
<use xlink:href="#f0_21" transform="matrix(12,0,0,12,473.4,962.1)" />
<use xlink:href="#f0_2a" transform="matrix(12,0,0,12,481.8,962.1)" />
<use xlink:href="#f0_2g" transform="matrix(12,0,0,12,490.6,962.1)" />
<use xlink:href="#f0_25" transform="matrix(12,0,0,12,496.1,962.1)" />
<use xlink:href="#f0_2b" transform="matrix(12,0,0,12,500.5,962.1)" />
<use xlink:href="#f0_2a" transform="matrix(12,0,0,12,510,962.1)" />
<use xlink:href="#f0_21" transform="matrix(12,0,0,12,519.2,962.1)" />
<use xlink:href="#f0_20" transform="matrix(12,0,0,12,527.2,962.1)" />
<use xlink:href="#f0_2g" transform="matrix(12,0,0,12,540.8,962.1)" />
<use xlink:href="#f0_1x" transform="matrix(12,0,0,12,546.3,962.1)" />
<use xlink:href="#f0_2k" transform="matrix(12,0,0,12,554.4,962.1)" />
<use xlink:href="#f0_2b" transform="matrix(12,0,0,12,563.2,962.1)" />
<use xlink:href="#f0_2a" transform="matrix(12,0,0,12,572.7,962.1)" />
<use xlink:href="#f0_2b" transform="matrix(12,0,0,12,581.5,962.1)" />
<use xlink:href="#f0_29" transform="matrix(12,0,0,12,591,962.1)" />
<use xlink:href="#f0_25" transform="matrix(12,0,0,12,604.9,962.1)" />
<use xlink:href="#f0_1z" transform="matrix(12,0,0,12,609.7,962.1)" />
<use xlink:href="#f0_1x" transform="matrix(12,0,0,12,622.2,962.1)" />
<use xlink:href="#f0_25" transform="matrix(12,0,0,12,630.6,962.1)" />
<use xlink:href="#f0_20" transform="matrix(12,0,0,12,635,962.1)" />
<use xlink:href="#f0_2f" transform="matrix(12,0,0,12,644.5,962.1)" />
<use xlink:href="#f1_g" transform="matrix(12,0,0,12,651.8,962.1)" />
<use xlink:href="#f1_22" transform="matrix(12,0,0,12,661,962.1)" />
<use xlink:href="#f1_28" transform="matrix(12,0,0,12,666.9,962.1)" />
<use xlink:href="#f1_2b" transform="matrix(12,0,0,12,671.6,962.1)" />
<use xlink:href="#f1_2e" transform="matrix(12,0,0,12,681.1,962.1)" />
<use xlink:href="#f1_1x" transform="matrix(12,0,0,12,689.2,962.1)" />
<use xlink:href="#f1_g" transform="matrix(12,0,0,12,698.4,962.1)" />
<use xlink:href="#f1_29" transform="matrix(12,0,0,12,707.6,962.1)" />
<use xlink:href="#f1_1x" transform="matrix(12,0,0,12,722.6,962.1)" />
<use xlink:href="#f1_2a" transform="matrix(12,0,0,12,731.8,962.1)" />
<use xlink:href="#f1_2h" transform="matrix(12,0,0,12,742,962.1)" />
<use xlink:href="#f1_1x" transform="matrix(12,0,0,12,752.3,962.1)" />
<use xlink:href="#f1_28" transform="matrix(12,0,0,12,761.4,962.1)" />
<use xlink:href="#f1_2f" transform="matrix(12,0,0,12,766.2,962.1)" />
<use xlink:href="#f1_g" transform="matrix(12,0,0,12,773.2,962.1)" />
<use xlink:href="#f1_29" transform="matrix(12,0,0,12,782.4,962.1)" />
<use xlink:href="#f1_2b" transform="matrix(12,0,0,12,797.4,962.1)" />
<use xlink:href="#f1_2a" transform="matrix(12,0,0,12,806.6,962.1)" />
<use xlink:href="#f1_2b" transform="matrix(12,0,0,12,816.8,962.1)" />
<use xlink:href="#f1_23" transform="matrix(12,0,0,12,826,962.1)" />
<use xlink:href="#f1_2e" transform="matrix(12,0,0,12,835.2,962.1)" />
<use xlink:href="#f1_1x" transform="matrix(12,0,0,12,842.9,962.1)" />
<use xlink:href="#f1_2c" transform="matrix(12,0,0,12,852,962.1)" />
<use xlink:href="#f1_24" transform="matrix(12,0,0,12,862.3,962.1)" />
<use xlink:href="#f1_2f" transform="matrix(12,0,0,12,872.9,962.1)" />
<use xlink:href="#f1_1x" transform="matrix(12,0,0,12,77.8,983.7)" />
<use xlink:href="#f1_2a" transform="matrix(12,0,0,12,86.9,983.7)" />
<use xlink:href="#f1_20" transform="matrix(12,0,0,12,97.2,983.7)" />
<use xlink:href="#f1_1z" transform="matrix(12,0,0,12,112.2,983.7)" />
<use xlink:href="#f1_1x" transform="matrix(12,0,0,12,120.2,983.7)" />
<use xlink:href="#f1_2g" transform="matrix(12,0,0,12,129.4,983.7)" />
<use xlink:href="#f1_1x" transform="matrix(12,0,0,12,135.6,983.7)" />
<use xlink:href="#f1_28" transform="matrix(12,0,0,12,144.8,983.7)" />
<use xlink:href="#f1_2b" transform="matrix(12,0,0,12,149.6,983.7)" />
<use xlink:href="#f1_23" transform="matrix(12,0,0,12,158.7,983.7)" />
<use xlink:href="#f1_2h" transform="matrix(12,0,0,12,167.9,983.7)" />
<use xlink:href="#f1_21" transform="matrix(12,0,0,12,178.1,983.7)" />
<use xlink:href="#f1_2f" transform="matrix(12,0,0,12,186.2,983.7)" />
<use xlink:href="#f0_1x" transform="matrix(12,0,0,12,198.1,983.7)" />
<use xlink:href="#f0_28" transform="matrix(12,0,0,12,206.5,983.7)" />
<use xlink:href="#f0_2f" transform="matrix(12,0,0,12,210.9,983.7)" />
<use xlink:href="#f0_2b" transform="matrix(12,0,0,12,217.9,983.7)" />
<use xlink:href="#f0_2f" transform="matrix(12,0,0,12,232.1,983.7)" />
<use xlink:href="#f0_21" transform="matrix(12,0,0,12,239.1,983.7)" />
<use xlink:href="#f0_2e" transform="matrix(12,0,0,12,247.2,983.7)" />
<use xlink:href="#f0_2i" transform="matrix(12,0,0,12,253.4,983.7)" />
<use xlink:href="#f0_21" transform="matrix(12,0,0,12,262.2,983.7)" />
<use xlink:href="#f0_1x" transform="matrix(12,0,0,12,275,983.7)" />
<use xlink:href="#f0_2f" transform="matrix(12,0,0,12,283.1,983.7)" />
<use xlink:href="#f0_2g" transform="matrix(12,0,0,12,294.8,983.7)" />
<use xlink:href="#f0_1x" transform="matrix(12,0,0,12,300.2,983.7)" />
<use xlink:href="#f0_2k" transform="matrix(12,0,0,12,308.3,983.7)" />
<use xlink:href="#f0_2b" transform="matrix(12,0,0,12,317.1,983.7)" />
<use xlink:href="#f0_2a" transform="matrix(12,0,0,12,326.6,983.7)" />
<use xlink:href="#f0_2b" transform="matrix(12,0,0,12,335.4,983.7)" />
<use xlink:href="#f0_29" transform="matrix(12,0,0,12,345.3,983.7)" />
<use xlink:href="#f0_25" transform="matrix(12,0,0,12,359.2,983.7)" />
<use xlink:href="#f0_1z" transform="matrix(12,0,0,12,364,983.7)" />
<use xlink:href="#f0_1x" transform="matrix(12,0,0,12,376.8,983.7)" />
<use xlink:href="#f0_25" transform="matrix(12,0,0,12,385.2,983.7)" />
<use xlink:href="#f0_20" transform="matrix(12,0,0,12,389.6,983.7)" />
<use xlink:href="#f0_2f" transform="matrix(12,0,0,12,399.2,983.7)" />
<use xlink:href="#f0_22" transform="matrix(12,0,0,12,411.2,983.7)" />
<use xlink:href="#f0_2b" transform="matrix(12,0,0,12,416.7,983.7)" />
<use xlink:href="#f0_2e" transform="matrix(12,0,0,12,426.3,983.7)" />
<use xlink:href="#f0_1z" transform="matrix(12,0,0,12,437.2,983.7)" />
<use xlink:href="#f0_2b" transform="matrix(12,0,0,12,444.9,983.7)" />
<use xlink:href="#f0_2e" transform="matrix(12,0,0,12,454.4,983.7)" />
<use xlink:href="#f0_2e" transform="matrix(12,0,0,12,460.3,983.7)" />
<use xlink:href="#f0_21" transform="matrix(12,0,0,12,466.5,983.7)" />
<use xlink:href="#f0_1z" transform="matrix(12,0,0,12,474.6,983.7)" />
<use xlink:href="#f0_2g" transform="matrix(12,0,0,12,482.6,983.7)" />
<use xlink:href="#f0_25" transform="matrix(12,0,0,12,492.5,983.7)" />
<use xlink:href="#f0_20" transform="matrix(12,0,0,12,496.9,983.7)" />
<use xlink:href="#f0_21" transform="matrix(12,0,0,12,506.1,983.7)" />
<use xlink:href="#f0_2a" transform="matrix(12,0,0,12,514.5,983.7)" />
<use xlink:href="#f0_2g" transform="matrix(12,0,0,12,523.3,983.7)" />
<use xlink:href="#f0_25" transform="matrix(12,0,0,12,529.2,983.7)" />
<use xlink:href="#f0_22" transform="matrix(12,0,0,12,533.9,983.7)" />
<use xlink:href="#f0_25" transform="matrix(12,0,0,12,539.8,983.7)" />
<use xlink:href="#f0_1z" transform="matrix(12,0,0,12,544.6,983.7)" />
<use xlink:href="#f0_1x" transform="matrix(12,0,0,12,553,983.7)" />
<use xlink:href="#f0_2g" transform="matrix(12,0,0,12,561,983.7)" />
<use xlink:href="#f0_25" transform="matrix(12,0,0,12,566.9,983.7)" />
<use xlink:href="#f0_2b" transform="matrix(12,0,0,12,571.3,983.7)" />
<use xlink:href="#f0_2a" transform="matrix(12,0,0,12,580.8,983.7)" />
<use xlink:href="#f0_i" transform="matrix(12,0,0,12,589.6,983.7)" />
<use xlink:href="#f1_16" transform="matrix(12,0,0,12,77.8,1013.4)" />
<use xlink:href="#f1_28" transform="matrix(12,0,0,12,88.8,1013.4)" />
<use xlink:href="#f1_2b" transform="matrix(12,0,0,12,93.5,1013.4)" />
<use xlink:href="#f1_2e" transform="matrix(12,0,0,12,103.1,1013.4)" />
<use xlink:href="#f1_1x" transform="matrix(12,0,0,12,111.1,1013.4)" />
<use xlink:href="#f1_u" transform="matrix(12,0,0,12,120.3,1013.4)" />
<use xlink:href="#f1_1k" transform="matrix(12,0,0,12,132.4,1013.4)" />
<use xlink:href="#f1_24" transform="matrix(12,0,0,12,144.5,1013.4)" />
<use xlink:href="#f1_21" transform="matrix(12,0,0,12,154.8,1013.4)" />
<use xlink:href="#f1_2f" transform="matrix(12,0,0,12,162.8,1013.4)" />
<use xlink:href="#f1_21" transform="matrix(12,0,0,12,169.8,1013.4)" />
<use xlink:href="#f1_1z" transform="matrix(12,0,0,12,183.7,1013.4)" />
<use xlink:href="#f1_2b" transform="matrix(12,0,0,12,191.8,1013.4)" />
<use xlink:href="#f1_2a" transform="matrix(12,0,0,12,200.9,1013.4)" />
<use xlink:href="#f1_2g" transform="matrix(12,0,0,12,211.2,1013.4)" />
<use xlink:href="#f1_1x" transform="matrix(12,0,0,12,217.4,1013.4)" />
<use xlink:href="#f1_25" transform="matrix(12,0,0,12,226.6,1013.4)" />
<use xlink:href="#f1_2a" transform="matrix(12,0,0,12,231.7,1013.4)" />
<use xlink:href="#f1_2g" transform="matrix(12,0,0,12,247.4,1013.4)" />
<use xlink:href="#f1_24" transform="matrix(12,0,0,12,253.6,1013.4)" />
<use xlink:href="#f1_21" transform="matrix(12,0,0,12,263.9,1013.4)" />
<use xlink:href="#f1_1x" transform="matrix(12,0,0,12,277.8,1013.4)" />
<use xlink:href="#f1_1z" transform="matrix(12,0,0,12,287,1013.4)" />
<use xlink:href="#f1_2g" transform="matrix(12,0,0,12,295,1013.4)" />
<use xlink:href="#f1_2h" transform="matrix(12,0,0,12,300.9,1013.4)" />
<use xlink:href="#f1_1x" transform="matrix(12,0,0,12,311.2,1013.4)" />
<use xlink:href="#f1_28" transform="matrix(12,0,0,12,320.3,1013.4)" />
<use xlink:href="#f1_1x" transform="matrix(12,0,0,12,330.9,1013.4)" />
<use xlink:href="#f1_1z" transform="matrix(12,0,0,12,340.1,1013.4)" />
<use xlink:href="#f1_1z" transform="matrix(12,0,0,12,348.2,1013.4)" />
<use xlink:href="#f1_2b" transform="matrix(12,0,0,12,356.2,1013.4)" />
<use xlink:href="#f1_2h" transform="matrix(12,0,0,12,365.4,1013.4)" />
<use xlink:href="#f1_2a" transform="matrix(12,0,0,12,375.7,1013.4)" />
<use xlink:href="#f1_2g" transform="matrix(12,0,0,12,385.9,1013.4)" />
<use xlink:href="#f1_2b" transform="matrix(12,0,0,12,398.4,1013.4)" />
<use xlink:href="#f1_22" transform="matrix(12,0,0,12,407.5,1013.4)" />
<use xlink:href="#f1_24" transform="matrix(12,0,0,12,418.9,1013.4)" />
<use xlink:href="#f1_1x" transform="matrix(12,0,0,12,429.1,1013.4)" />
<use xlink:href="#f1_1y" transform="matrix(12,0,0,12,438.3,1013.4)" />
<use xlink:href="#f1_25" transform="matrix(12,0,0,12,448.2,1013.4)" />
<use xlink:href="#f1_2g" transform="matrix(12,0,0,12,453.3,1013.4)" />
<use xlink:href="#f1_1x" transform="matrix(12,0,0,12,459.5,1013.4)" />
<use xlink:href="#f1_2g" transform="matrix(12,0,0,12,468.7,1013.4)" />
<use xlink:href="#f1_1x" transform="matrix(12,0,0,12,480.8,1013.4)" />
<use xlink:href="#f1_2a" transform="matrix(12,0,0,12,489.6,1013.4)" />
<use xlink:href="#f1_20" transform="matrix(12,0,0,12,499.8,1013.4)" />
<use xlink:href="#f1_20" transform="matrix(12,0,0,12,515.5,1013.4)" />
<use xlink:href="#f1_25" transform="matrix(12,0,0,12,525.8,1013.4)" />
<use xlink:href="#f1_2f" transform="matrix(12,0,0,12,530.9,1013.4)" />
<use xlink:href="#f1_2g" transform="matrix(12,0,0,12,537.9,1013.4)" />
<use xlink:href="#f1_2e" transform="matrix(12,0,0,12,544.1,1013.4)" />
<use xlink:href="#f1_25" transform="matrix(12,0,0,12,551.8,1013.4)" />
<use xlink:href="#f1_1y" transform="matrix(12,0,0,12,556.9,1013.4)" />
<use xlink:href="#f1_2h" transform="matrix(12,0,0,12,567.2,1013.4)" />
<use xlink:href="#f1_2g" transform="matrix(12,0,0,12,577.4,1013.4)" />
<use xlink:href="#f1_25" transform="matrix(12,0,0,12,583.6,1013.4)" />
<use xlink:href="#f1_2b" transform="matrix(12,0,0,12,588.7,1013.4)" />
<use xlink:href="#f1_2a" transform="matrix(12,0,0,12,597.9,1013.4)" />
<use xlink:href="#f1_2b" transform="matrix(12,0,0,12,614,1013.4)" />
<use xlink:href="#f1_22" transform="matrix(12,0,0,12,623.2,1013.4)" />
<use xlink:href="#f1_2c" transform="matrix(12,0,0,12,634.9,1013.4)" />
<use xlink:href="#f1_28" transform="matrix(12,0,0,12,645.2,1013.4)" />
<use xlink:href="#f1_1x" transform="matrix(12,0,0,12,649.9,1013.4)" />
<use xlink:href="#f1_2a" transform="matrix(12,0,0,12,659.1,1013.4)" />
<use xlink:href="#f1_2g" transform="matrix(12,0,0,12,669.4,1013.4)" />
<use xlink:href="#f1_2f" transform="matrix(12,0,0,12,681.1,1013.4)" />
<use xlink:href="#f1_2c" transform="matrix(12,0,0,12,688,1013.4)" />
<use xlink:href="#f1_21" transform="matrix(12,0,0,12,698.3,1013.4)" />
<use xlink:href="#f1_1z" transform="matrix(12,0,0,12,706.4,1013.4)" />
<use xlink:href="#f1_25" transform="matrix(12,0,0,12,714.4,1013.4)" />
<use xlink:href="#f1_21" transform="matrix(12,0,0,12,719.5,1013.4)" />
<use xlink:href="#f1_2f" transform="matrix(12,0,0,12,727.7,1013.4)" />
<use xlink:href="#f1_2b" transform="matrix(12,0,0,12,740.4,1013.4)" />
<use xlink:href="#f1_22" transform="matrix(12,0,0,12,749.6,1013.4)" />
<use xlink:href="#f1_1x" transform="matrix(12,0,0,12,761.3,1013.4)" />
<use xlink:href="#f1_23" transform="matrix(12,0,0,12,776.3,1013.4)" />
<use xlink:href="#f1_25" transform="matrix(12,0,0,12,785.5,1013.4)" />
<use xlink:href="#f1_2i" transform="matrix(12,0,0,12,790.6,1013.4)" />
<use xlink:href="#f1_21" transform="matrix(12,0,0,12,799.8,1013.4)" />
<use xlink:href="#f1_2a" transform="matrix(12,0,0,12,807.9,1013.4)" />
<use xlink:href="#f1_1x" transform="matrix(12,0,0,12,823.6,1013.4)" />
<use xlink:href="#f1_2e" transform="matrix(12,0,0,12,832.8,1013.4)" />
<use xlink:href="#f1_21" transform="matrix(12,0,0,12,840.5,1013.4)" />
<use xlink:href="#f1_1x" transform="matrix(12,0,0,12,848.5,1013.4)" />
<use xlink:href="#f1_i" transform="matrix(12,0,0,12,857.7,1013.4)" />
<use xlink:href="#f0_19" transform="matrix(12,0,0,12,869,1013.4)" />
<use xlink:href="#f0_2g" transform="matrix(12,0,0,12,874.8,1013.4)" />
<use xlink:href="#f0_2c" transform="matrix(12,0,0,12,77.8,1035)" />
<use xlink:href="#f0_2e" transform="matrix(12,0,0,12,86.9,1035)" />
<use xlink:href="#f0_2b" transform="matrix(12,0,0,12,93.2,1035)" />
<use xlink:href="#f0_2i" transform="matrix(12,0,0,12,102.7,1035)" />
<use xlink:href="#f0_25" transform="matrix(12,0,0,12,111.8,1035)" />
<use xlink:href="#f0_20" transform="matrix(12,0,0,12,116.2,1035)" />
<use xlink:href="#f0_21" transform="matrix(12,0,0,12,125.4,1035)" />
<use xlink:href="#f0_2f" transform="matrix(12,0,0,12,133.5,1035)" />
<use xlink:href="#f0_2g" transform="matrix(12,0,0,12,145.2,1035)" />
<use xlink:href="#f0_24" transform="matrix(12,0,0,12,150.7,1035)" />
<use xlink:href="#f0_21" transform="matrix(12,0,0,12,159.5,1035)" />
<use xlink:href="#f0_25" transform="matrix(12,0,0,12,172.6,1035)" />
<use xlink:href="#f0_2a" transform="matrix(12,0,0,12,177.4,1035)" />
<use xlink:href="#f0_20" transform="matrix(12,0,0,12,186.2,1035)" />
<use xlink:href="#f0_21" transform="matrix(12,0,0,12,195.4,1035)" />
<use xlink:href="#f0_2k" transform="matrix(12,0,0,12,203.8,1035)" />
<use xlink:href="#f0_2g" transform="matrix(12,0,0,12,217.3,1035)" />
<use xlink:href="#f0_2b" transform="matrix(12,0,0,12,222.8,1035)" />
<use xlink:href="#f0_2c" transform="matrix(12,0,0,12,236.7,1035)" />
<use xlink:href="#f0_28" transform="matrix(12,0,0,12,245.9,1035)" />
<use xlink:href="#f0_1x" transform="matrix(12,0,0,12,250.3,1035)" />
<use xlink:href="#f0_2a" transform="matrix(12,0,0,12,258.7,1035)" />
<use xlink:href="#f0_2g" transform="matrix(12,0,0,12,267.5,1035)" />
<use xlink:href="#f0_2f" transform="matrix(12,0,0,12,273,1035)" />
<use xlink:href="#f0_2b" transform="matrix(12,0,0,12,284.7,1035)" />
<use xlink:href="#f0_1z" transform="matrix(12,0,0,12,294.2,1035)" />
<use xlink:href="#f0_1z" transform="matrix(12,0,0,12,302.3,1035)" />
<use xlink:href="#f0_2h" transform="matrix(12,0,0,12,310.4,1035)" />
<use xlink:href="#f0_2e" transform="matrix(12,0,0,12,319.5,1035)" />
<use xlink:href="#f0_2e" transform="matrix(12,0,0,12,325.7,1035)" />
<use xlink:href="#f0_25" transform="matrix(12,0,0,12,332,1035)" />
<use xlink:href="#f0_2a" transform="matrix(12,0,0,12,336.7,1035)" />
<use xlink:href="#f0_23" transform="matrix(12,0,0,12,345.5,1035)" />
<use xlink:href="#f0_25" transform="matrix(12,0,0,12,359.8,1035)" />
<use xlink:href="#f0_2a" transform="matrix(12,0,0,12,364.6,1035)" />
<use xlink:href="#f0_1x" transform="matrix(12,0,0,12,378.1,1035)" />
<use xlink:href="#f0_2c" transform="matrix(12,0,0,12,390.9,1035)" />
<use xlink:href="#f0_1x" transform="matrix(12,0,0,12,400.1,1035)" />
<use xlink:href="#f0_2e" transform="matrix(12,0,0,12,408.2,1035)" />
<use xlink:href="#f0_2g" transform="matrix(12,0,0,12,414.4,1035)" />
<use xlink:href="#f0_25" transform="matrix(12,0,0,12,419.9,1035)" />
<use xlink:href="#f0_1z" transform="matrix(12,0,0,12,424.3,1035)" />
<use xlink:href="#f0_2h" transform="matrix(12,0,0,12,432.3,1035)" />
<use xlink:href="#f0_28" transform="matrix(12,0,0,12,441.9,1035)" />
<use xlink:href="#f0_1x" transform="matrix(12,0,0,12,446.9,1035)" />
<use xlink:href="#f0_2e" transform="matrix(12,0,0,12,455.1,1035)" />
<use xlink:href="#f0_1x" transform="matrix(12,0,0,12,466,1035)" />
<use xlink:href="#f0_2e" transform="matrix(12,0,0,12,474.1,1035)" />
<use xlink:href="#f0_21" transform="matrix(12,0,0,12,480.3,1035)" />
<use xlink:href="#f0_1x" transform="matrix(12,0,0,12,488.4,1035)" />
<use xlink:href="#f0_i" transform="matrix(12,0,0,12,496.4,1035)" />
<use xlink:href="#f0_18" transform="matrix(12,0,0,12,506.6,1035)" />
<use xlink:href="#f0_2b" transform="matrix(12,0,0,12,519.4,1035)" />
<use xlink:href="#f0_2b" transform="matrix(12,0,0,12,528.6,1035)" />
<use xlink:href="#f0_27" transform="matrix(12,0,0,12,538.1,1035)" />
<use xlink:href="#f0_21" transform="matrix(12,0,0,12,547.2,1035)" />
<use xlink:href="#f0_2e" transform="matrix(12,0,0,12,554.9,1035)" />
<use xlink:href="#f0_1z" transform="matrix(12,0,0,12,565.9,1035)" />
<use xlink:href="#f0_2b" transform="matrix(12,0,0,12,573.6,1035)" />
<use xlink:href="#f0_29" transform="matrix(12,0,0,12,583.1,1035)" />
<use xlink:href="#f0_2c" transform="matrix(12,0,0,12,596.7,1035)" />
<use xlink:href="#f0_25" transform="matrix(12,0,0,12,606.2,1035)" />
<use xlink:href="#f0_28" transform="matrix(12,0,0,12,611.3,1035)" />
<use xlink:href="#f0_21" transform="matrix(12,0,0,12,616.1,1035)" />
<use xlink:href="#f0_20" transform="matrix(12,0,0,12,624.2,1035)" />
<use xlink:href="#f0_22" transform="matrix(12,0,0,12,638.4,1035)" />
<use xlink:href="#f0_25" transform="matrix(12,0,0,12,644.3,1035)" />
<use xlink:href="#f0_2e" transform="matrix(12,0,0,12,649.1,1035)" />
<use xlink:href="#f0_2f" transform="matrix(12,0,0,12,655.3,1035)" />
<use xlink:href="#f0_2g" transform="matrix(12,0,0,12,662.3,1035)" />
<use xlink:href="#f0_1z" transform="matrix(12,0,0,12,672.5,1035)" />
<use xlink:href="#f0_2b" transform="matrix(12,0,0,12,680.6,1035)" />
<use xlink:href="#f0_29" transform="matrix(12,0,0,12,690.1,1035)" />
<use xlink:href="#f0_2c" transform="matrix(12,0,0,12,703.6,1035)" />
<use xlink:href="#f0_28" transform="matrix(12,0,0,12,713.1,1035)" />
<use xlink:href="#f0_21" transform="matrix(12,0,0,12,717.9,1035)" />
<use xlink:href="#f0_2g" transform="matrix(12,0,0,12,726,1035)" />
<use xlink:href="#f0_21" transform="matrix(12,0,0,12,731.5,1035)" />
<use xlink:href="#f0_22" transform="matrix(12,0,0,12,744.3,1035)" />
<use xlink:href="#f0_28" transform="matrix(12,0,0,12,750.1,1035)" />
<use xlink:href="#f0_2b" transform="matrix(12,0,0,12,754.5,1035)" />
<use xlink:href="#f0_2e" transform="matrix(12,0,0,12,764.1,1035)" />
<use xlink:href="#f0_1x" transform="matrix(12,0,0,12,770.3,1035)" />
<use xlink:href="#f0_2b" transform="matrix(12,0,0,12,783.1,1035)" />
<use xlink:href="#f0_22" transform="matrix(12,0,0,12,792.6,1035)" />
<use xlink:href="#f0_19" transform="matrix(12,0,0,12,802.9,1035)" />
<use xlink:href="#f0_2a" transform="matrix(12,0,0,12,809.1,1035)" />
<use xlink:href="#f0_20" transform="matrix(12,0,0,12,818.2,1035)" />
<use xlink:href="#f0_25" transform="matrix(12,0,0,12,827.8,1035)" />
<use xlink:href="#f0_1x" transform="matrix(12,0,0,12,832.2,1035)" />
<use xlink:href="#f0_i" transform="matrix(12,0,0,12,840.2,1035)" />
</g>
</g>
<image preserveAspectRatio="none" x="66" y="158" width="623" height="275" xlink:href="img/1.png" />
<image preserveAspectRatio="none" x="80" y="618" width="545" height="288" xlink:href="img/2.png" />
<g fill="#000000" >
<use xlink:href="#f2_t" transform="matrix(8,0,0,8,818.2,1187.9)" />
</g>
<defs>
<path d="M55,0V40L184,60V941L55,960v40H455V960L327,941V60L455,40V0Z" 
id="f0_19"
transform="scale(0.001,-0.001)" />

<path d="M64,0V34L168,59V639H47v36l121,29v49c0,0,0,155,61,239c0,0,62,84,173,84c0,0,58,0,107,-15V908H472l-33,92c0,0,-26,16,-62,16c0,0,-47,0,-66,-42c0,0,-19,-42,-19,-157V701H478V639H292V59L443,34V0Z" 
id="f0_22"
transform="scale(0.001,-0.001)" />

<path d="M284,67c0,0,51,0,88,12c0,0,37,12,74,30V358l-98,-3c0,0,-100,-4,-135,-39c0,0,-35,-35,-35,-117c0,0,0,-132,106,-132ZM233,-14c0,0,-179,0,-179,208c0,0,0,70,27,116c0,0,27,46,87,70c0,0,60,24,173,27l105,3V519c0,0,0,72,-26,107c0,0,-27,34,-82,34c0,0,-75,0,-137,-35L176,538H134V691c0,0,121,26,213,26c0,0,115,0,169,-47c0,0,54,-47,54,-144V52L657,33V0H465L451,70c0,0,-85,-84,-218,-84Z" 
id="f0_1x"
transform="scale(0.001,-0.001)" />

<path d="M477,0V33l64,19L348,354L257,254V52L331,33V0H44V33l89,19v956L29,1026v34H257V338L544,647l-73,20v34H718V667L631,650L431,446L688,50L764,33V0Z" 
id="f0_27"
transform="scale(0.001,-0.001)" />

<path d="M495,413c0,0,0,133,-34,190c0,0,-34,57,-105,57c0,0,-78,0,-119,-63c0,0,-42,-62,-42,-184ZM374,-14c0,0,-163,0,-239,87c0,0,-75,88,-75,283c0,0,0,183,77,273c0,0,76,91,219,91c0,0,269,0,269,-306V353H194V340c0,0,0,-103,23,-160c0,0,22,-57,70,-87c0,0,47,-29,124,-29c0,0,40,0,96,6c0,0,55,7,91,15V43C598,43,562,20,500,3c0,0,-61,-17,-126,-17Z" 
id="f0_21"
transform="scale(0.001,-0.001)" />

<path d="M148,-329c0,0,-58,0,-114,13v151H69l24,-71c0,0,23,-17,64,-17c0,0,39,0,72,22c0,0,33,23,60,67c0,0,27,44,68,157L90,649L19,668v33H344V668L233,648L423,158L606,649L497,668v33H758V668L685,652L411,-43c0,0,-48,-124,-84,-177c0,0,-36,-54,-79,-82c0,0,-44,-27,-100,-27Z" 
id="f0_2l"
transform="scale(0.001,-0.001)" />

<path d="M382,45c0,0,188,0,188,314c0,0,0,143,-47,213c0,0,-46,69,-141,69c0,0,-87,0,-146,-24V58c0,0,67,-13,146,-13ZM25,-325v35l88,18V649L34,668v33H231l1,-41c0,0,31,27,84,43c0,0,53,17,107,17c0,0,134,0,208,-94c0,0,73,-93,73,-267c0,0,0,-178,-80,-276c0,0,-80,-97,-232,-97c0,0,-84,0,-160,16c0,0,4,-53,4,-84V-272l123,-18v-35Z" 
id="f0_2c"
transform="scale(0.001,-0.001)" />

<path d="M31,0V33l88,19V649L31,668v33H235l7,-87c0,0,44,37,121,71c0,0,76,35,121,35h11V530H463l-43,82c0,0,-37,0,-88,-10c0,0,-52,-10,-89,-26V52L363,33V0Z" 
id="f0_2e"
transform="scale(0.001,-0.001)" />

<path d="M377,45c0,0,99,0,147,73c0,0,47,73,47,237c0,0,0,161,-47,233c0,0,-47,72,-147,72c0,0,-97,0,-141,-69c0,0,-44,-69,-44,-236c0,0,0,-169,45,-240c0,0,44,-70,140,-70Zm0,-59c0,0,-158,0,-238,94c0,0,-81,95,-81,274c0,0,0,178,81,272c0,0,80,94,244,94c0,0,160,0,241,-92c0,0,82,-92,82,-274c0,0,0,-368,-329,-368Z" 
id="f0_2b"
transform="scale(0.001,-0.001)" />

<path d="M360,-14L72,649L0,668v33H327V668L216,648L420,164L615,649L504,668v33H764V668L697,652L416,-14Z" 
id="f0_2i"
transform="scale(0.001,-0.001)" />

<path d="M32,0V33L151,52V649L52,668v33H275V52L395,33V0ZM201,850c0,0,-32,0,-56,24c0,0,-24,24,-24,56c0,0,0,34,24,58c0,0,24,24,56,24c0,0,34,0,58,-24c0,0,24,-24,24,-58c0,0,0,-32,-24,-56c0,0,-24,-24,-58,-24Z" 
id="f0_25"
transform="scale(0.001,-0.001)" />

<path d="M383,64c0,0,85,0,152,28V645c0,0,-67,13,-152,13c0,0,-194,0,-194,-314c0,0,0,-141,48,-211c0,0,48,-69,146,-69ZM342,-14c0,0,-287,0,-287,358c0,0,0,184,82,280c0,0,81,96,239,96c0,0,81,0,163,-18c0,0,-4,25,-4,124v182l-118,18v34H659V52L745,33V0H548l-9,52c0,0,-84,-66,-197,-66Z" 
id="f0_20"
transform="scale(0.001,-0.001)" />

<path d="M278,-14c0,0,-52,0,-115,11c0,0,-63,10,-99,23V193H98L134,95c0,0,56,-50,146,-50c0,0,144,0,144,123c0,0,0,91,-114,130l-66,21c0,0,-75,25,-110,50c0,0,-34,26,-53,63c0,0,-18,36,-18,89c0,0,0,92,63,145c0,0,63,54,170,54c0,0,77,0,193,-23V544H454l-32,81c0,0,-39,35,-124,35c0,0,-61,0,-92,-30c0,0,-32,-30,-32,-80c0,0,0,-43,29,-72c0,0,28,-29,86,-48c0,0,110,-38,144,-55c0,0,33,-17,57,-42c0,0,23,-25,36,-57c0,0,13,-32,13,-79c0,0,0,-104,-66,-158c0,0,-66,-53,-195,-53Z" 
id="f0_2f"
transform="scale(0.001,-0.001)" />

<path d="M383,64c0,0,44,0,87,7c0,0,43,7,65,17V645c0,0,-67,13,-152,13c0,0,-194,0,-194,-309c0,0,0,-143,48,-214c0,0,47,-71,146,-71Zm56,-389v35l96,18V-77c0,0,0,73,7,124c0,0,-79,-61,-200,-61c0,0,-287,0,-287,362c0,0,0,180,81,276c0,0,81,96,237,96c0,0,84,0,166,-18l67,33h53V-272l77,-18v-35Z" 
id="f0_2d"
transform="scale(0.001,-0.001)" />

<path d="M289,-14c0,0,-179,0,-179,205V649L20,668v33H233V200c0,0,0,-128,120,-128c0,0,92,0,173,23V649L420,668v33H649V52L738,33V0H533l-6,57C527,57,474,28,405,7c0,0,-69,-21,-116,-21Z" 
id="f0_2h"
transform="scale(0.001,-0.001)" />

<path d="M439,0V33l93,19V500c0,0,0,62,-30,97c0,0,-31,36,-94,36c0,0,-67,0,-165,-22V52L338,33V0H35V33l84,19V649L35,668v33H235l7,-57c0,0,57,33,122,54c0,0,65,22,108,22c0,0,91,0,137,-53c0,0,47,-53,47,-154V52L741,33V0Z" 
id="f0_2a"
transform="scale(0.001,-0.001)" />

<path d="M399,-14c0,0,-341,0,-341,370c0,0,0,175,87,269c0,0,87,95,249,95c0,0,101,0,220,-23V501H573L541,625c0,0,-62,35,-149,35c0,0,-200,0,-200,-304c0,0,0,-158,61,-225c0,0,61,-67,189,-67c0,0,109,0,189,24V43C631,43,595,16,530,1c0,0,-64,-15,-131,-15Z" 
id="f0_1z"
transform="scale(0.001,-0.001)" />

<path d="M442,0V33l93,19V504c0,0,0,129,-124,129c0,0,-70,0,-168,-22V52L338,33V0H31V33l88,19v956L15,1026v34H243V756c0,0,0,-77,-5,-112c0,0,54,31,122,53c0,0,68,23,115,23c0,0,91,0,137,-53c0,0,47,-53,47,-154V52L744,33V0Z" 
id="f0_24"
transform="scale(0.001,-0.001)" />

<path d="M376,50c0,0,103,0,149,80c0,0,46,81,46,240c0,0,0,137,-47,204c0,0,-48,67,-148,67c0,0,-44,0,-87,-7c0,0,-44,-8,-63,-17V62c0,0,63,-12,150,-12Zm3,-64c0,0,-64,0,-141,14c0,0,-78,14,-136,37v971L0,1026v34H226V809c0,0,0,-40,-4,-148c0,0,74,59,188,59c0,0,143,0,219,-87c0,0,77,-87,77,-263c0,0,0,-189,-84,-287c0,0,-84,-97,-243,-97Z" 
id="f0_1y"
transform="scale(0.001,-0.001)" />

<path d="M249,-14c0,0,-71,0,-107,42c0,0,-35,42,-35,119V639H15v33l93,29l76,159h47V701H391V639H231V161c0,0,0,-48,22,-73c0,0,22,-24,57,-24c0,0,44,0,106,12V26C416,26,389,8,340,-2c0,0,-49,-12,-91,-12Z" 
id="f0_2g"
transform="scale(0.001,-0.001)" />

<path d="M327,-14L84,649L1,668v33H335V668L219,648L385,174L554,632h63L786,171L944,649L830,668v33h267V668l-78,-16L784,-14H726L553,448L382,-14Z" 
id="f0_2j"
transform="scale(0.001,-0.001)" />

<path d="M431,0V33L535,52V499c0,0,0,62,-32,96c0,0,-32,33,-95,33c0,0,-66,0,-163,-22V52L350,33V0H32V33l89,19V649L32,668v33H237l6,-57c0,0,56,32,119,54c0,0,62,22,110,22c0,0,52,0,95,-20c0,0,44,-19,66,-62c0,0,57,32,134,57c0,0,77,25,128,25c0,0,179,0,179,-207V52l90,-19V0H846V33L950,52V499c0,0,0,129,-119,129c0,0,-19,0,-45,-3c0,0,-26,-3,-52,-7c0,0,-25,-4,-49,-8c0,0,-23,-5,-39,-8c0,0,13,-41,13,-89V52L764,33V0Z" 
id="f0_29"
transform="scale(0.001,-0.001)" />

<path d="M58,-234v58c0,0,131,42,131,125c0,0,0,15,-11,27c0,0,-11,12,-38,25C140,1,89,27,89,75c0,0,0,40,25,61c0,0,26,21,65,21c0,0,48,0,77,-34c0,0,30,-34,30,-86c0,0,0,-101,-60,-170c0,0,-59,-69,-168,-101Z" 
id="f0_g"
transform="scale(0.001,-0.001)" />

<path d="M31,0V33L150,52v956L31,1026v34H274V52L394,33V0Z" 
id="f0_28"
transform="scale(0.001,-0.001)" />

<path d="M34,0V49l76,18V634L38,652v49H325V67L402,49V0ZM217,831c0,0,-48,0,-81,33c0,0,-34,33,-34,82c0,0,0,48,34,81c0,0,34,33,81,33c0,0,48,0,81,-33c0,0,33,-33,33,-81c0,0,0,-47,-33,-81c0,0,-32,-34,-81,-34Z" 
id="f1_25"
transform="scale(0.001,-0.001)" />

<path d="M41,0V49l69,18V634L41,652v49H313l11,-61l50,26c0,0,105,54,188,54c0,0,194,0,194,-207V67L827,49V0H478V49l63,18V484c0,0,0,63,-27,98c0,0,-26,35,-75,35c0,0,-57,0,-114,-25V67L389,49V0Z" 
id="f1_2a"
transform="scale(0.001,-0.001)" />

<path d="M416,68c0,0,60,0,124,32V628c0,0,-58,15,-118,15c0,0,-67,0,-104,-73c0,0,-38,-73,-38,-216c0,0,0,-139,36,-212c0,0,35,-74,100,-74ZM369,-14c0,0,-155,0,-231,88c0,0,-76,90,-76,274c0,0,0,182,82,277c0,0,81,95,236,95c0,0,82,0,165,-20c0,0,-5,24,-5,115V992l-72,18v50H756V67L833,49V0H562L547,40C547,40,505,13,483,4c0,0,-23,-7,-51,-12c0,0,-28,-6,-63,-6Z" 
id="f1_20"
transform="scale(0.001,-0.001)" />

<path d="M434,423c0,0,0,101,-7,142c0,0,-6,40,-22,60c0,0,-16,19,-45,19c0,0,-44,0,-66,-48c0,0,-22,-49,-22,-173ZM389,-14c0,0,-172,0,-254,89c0,0,-83,90,-83,279c0,0,0,184,79,274c0,0,79,91,238,91c0,0,142,0,206,-76c0,0,64,-76,64,-237V345H271V333c0,0,0,-111,18,-158c0,0,18,-47,58,-72c0,0,40,-25,110,-25c0,0,66,0,166,22V42C623,42,582,18,517,1c0,0,-66,-15,-128,-15Z" 
id="f1_21"
transform="scale(0.001,-0.001)" />

<path d="M327,-14c0,0,-101,0,-156,45c0,0,-55,45,-55,131V624H25v48l108,29l87,159H332V701H480V624H332V176c0,0,0,-49,20,-73c0,0,20,-25,53,-25c0,0,40,0,97,12V26c0,0,-22,-15,-76,-27c0,0,-55,-13,-99,-13Z" 
id="f1_2g"
transform="scale(0.001,-0.001)" />

<path d="M43,0V49l67,18V992l-72,18v50H325V336L599,635l-75,17v49H791V652L711,636L544,460L785,67L847,50V0H510V50l41,17L411,313L325,253V67L395,49V0Z" 
id="f1_27"
transform="scale(0.001,-0.001)" />

<path d="M159,-329c0,0,-61,0,-123,14v180H81l32,-94c0,0,21,-17,55,-17c0,0,28,0,50,13c0,0,21,14,40,39c0,0,20,25,37,62c0,0,17,37,50,110L64,634L15,652v49H374V652L290,632L455,244L602,634l-82,18v49H749V652L698,637L421,-44c0,0,-47,-121,-83,-176c0,0,-36,-55,-80,-82c0,0,-43,-27,-99,-27Z" 
id="f1_2l"
transform="scale(0.001,-0.001)" />

<path d="M191,-20c0,0,-39,0,-65,25c0,0,-25,27,-25,64c0,0,0,38,26,64c0,0,26,26,64,26c0,0,38,0,64,-26c0,0,26,-26,26,-64c0,0,0,-37,-25,-64c0,0,-26,-25,-65,-25Z" 
id="f0_i"
transform="scale(0.001,-0.001)" />

<path d="M44,0V40L172,60V941L44,960v40H794V760H745L721,922c0,0,-83,11,-241,11H316V543H586l23,119h48V354H609L586,475H316V67H513c0,0,193,0,252,12l43,185h49L843,0Z" 
id="f0_15"
transform="scale(0.001,-0.001)" />

<path d="M345,75c0,0,50,0,110,26V351l-63,-2c0,0,-72,-3,-100,-38c0,0,-28,-35,-28,-113c0,0,0,-63,22,-93c0,0,23,-30,59,-30ZM266,-14c0,0,-217,0,-217,208c0,0,0,79,32,126c0,0,32,48,93,71c0,0,60,22,190,25l91,2V521c0,0,0,126,-104,126c0,0,-62,0,-140,-39L183,521H134V691c0,0,112,17,165,21c0,0,53,5,108,5c0,0,264,0,264,-194V67L741,49V0H483L466,54C466,54,408,14,361,0c0,0,-47,-14,-95,-14Z" 
id="f1_1x"
transform="scale(0.001,-0.001)" />

<path d="M30,0V49l76,18V992l-72,18v50H322V67L398,49V0Z" 
id="f1_28"
transform="scale(0.001,-0.001)" />

<path d="M191,-20c0,0,-51,0,-88,34c0,0,-36,36,-36,88c0,0,0,52,36,88c0,0,36,36,88,36c0,0,51,0,88,-36c0,0,36,-36,36,-88c0,0,0,-51,-36,-87c0,0,-36,-35,-88,-35Z" 
id="f1_i"
transform="scale(0.001,-0.001)" />

<path d="M359,-270c0,0,124,0,192,46c0,0,67,47,67,129c0,0,0,43,-26,67c0,0,-26,24,-79,24H242c0,0,-32,-27,-51,-69c0,0,-20,-41,-20,-77c0,0,0,-64,46,-92c0,0,46,-28,142,-28Zm11,561c0,0,81,0,115,47c0,0,34,47,34,141c0,0,0,100,-35,142c0,0,-35,42,-113,42c0,0,-78,0,-114,-43c0,0,-37,-42,-37,-141c0,0,0,-98,36,-143c0,0,36,-45,114,-45ZM359,-329c0,0,-143,0,-218,44c0,0,-75,43,-75,125c0,0,0,39,27,78c0,0,26,38,98,89c0,0,-43,14,-72,48c0,0,-29,35,-29,74L208,262c0,0,-118,55,-118,217c0,0,0,115,73,178c0,0,73,63,211,63c0,0,28,0,71,-6c0,0,44,-6,67,-13l165,83l26,-32L599,644c0,0,50,-56,50,-165c0,0,0,-120,-72,-182c0,0,-73,-62,-208,-62c0,0,-62,0,-114,11L208,148c0,0,2,-13,29,-24c0,0,27,-12,67,-12H512c0,0,113,0,168,-49c0,0,55,-49,55,-134c0,0,0,-79,-44,-137c0,0,-43,-58,-128,-90c0,0,-84,-31,-204,-31Z" 
id="f0_23"
transform="scale(0.001,-0.001)" />

<path d="M424,64c0,0,74,0,109,71c0,0,36,72,36,236c0,0,0,137,-34,201c0,0,-34,65,-111,65c0,0,-29,0,-62,-7c0,0,-34,-6,-55,-19V76c0,0,47,-12,117,-12Zm21,-78c0,0,-121,0,-354,50V994l-72,18v48H307V802c0,0,0,-69,-8,-141c0,0,30,25,86,42c0,0,57,17,110,17c0,0,153,0,223,-84c0,0,70,-83,70,-266c0,0,0,-180,-90,-283C698,87,608,-14,445,-14Z" 
id="f1_1y"
transform="scale(0.001,-0.001)" />

<path d="M41,0V49l91,18V634L41,652v49H336l8,-145c0,0,80,89,144,128c0,0,64,40,117,40h40V468H604l-45,94c0,0,-47,0,-106,-21c0,0,-60,-20,-105,-48V67L460,49V0Z" 
id="f1_2e"
transform="scale(0.001,-0.001)" />

<path d="M425,-14c0,0,-187,0,-280,90c0,0,-93,90,-93,276c0,0,0,115,42,198c0,0,43,82,121,126c0,0,78,44,182,44c0,0,104,0,227,-26V486H571L539,609c0,0,-25,19,-50,26c0,0,-24,7,-65,7c0,0,-44,0,-79,-35c0,0,-36,-35,-56,-98c0,0,-20,-64,-20,-153c0,0,0,-150,47,-214c0,0,47,-64,148,-64c0,0,103,0,176,21V42C640,42,606,15,547,0c0,0,-59,-14,-122,-14Z" 
id="f1_1z"
transform="scale(0.001,-0.001)" />

<path d="M460,-325c0,0,-148,79,-231,172c0,0,-84,93,-123,217c0,0,-39,126,-39,305c0,0,0,178,39,303c0,0,39,125,123,218c0,0,83,92,231,170V975c0,0,-68,-52,-109,-133c0,0,-41,-81,-61,-189c0,0,-19,-109,-19,-285c0,0,0,-177,19,-285c0,0,19,-107,60,-189c0,0,42,-82,110,-134v-85Z" 
id="f1_c"
transform="scale(0.001,-0.001)" />

<path d="M49,-325v85c0,0,68,53,110,135c0,0,41,82,60,190c0,0,19,109,19,283c0,0,0,177,-19,285c0,0,-20,108,-61,189c0,0,-41,81,-109,133v85c0,0,149,-80,232,-172c0,0,83,-92,122,-217c0,0,39,-125,39,-302c0,0,0,-178,-39,-304c0,0,-39,-125,-122,-218c0,0,-83,-93,-232,-172Z" 
id="f1_d"
transform="scale(0.001,-0.001)" />

<path d="M73,0V85L627,921H448c0,0,-170,0,-239,-15L186,749H119v251H892V921L335,77H544c0,0,85,0,167,8c0,0,83,9,119,17l44,191h67L921,0Z" 
id="f1_1q"
transform="scale(0.001,-0.001)" />

<path d="M379,60c0,0,59,0,84,64c0,0,24,65,24,231c0,0,0,164,-24,227c0,0,-24,63,-84,63c0,0,-57,0,-80,-60c0,0,-22,-61,-22,-230c0,0,0,-173,23,-234c0,0,22,-61,79,-61Zm-2,-74c0,0,-161,0,-240,91c0,0,-79,91,-79,277c0,0,0,186,80,276c0,0,81,90,245,90c0,0,167,0,245,-93c0,0,78,-93,78,-273c0,0,0,-188,-81,-278c0,0,-81,-90,-248,-90Z" 
id="f1_2b"
transform="scale(0.001,-0.001)" />

<path d="M360,-256c0,0,108,0,167,35c0,0,59,35,59,98c0,0,0,70,-95,70H254c0,0,-65,-47,-65,-108c0,0,0,-47,46,-71c0,0,45,-24,125,-24Zm9,561c0,0,55,0,79,43c0,0,25,43,25,129c0,0,0,87,-24,127c0,0,-25,41,-80,41c0,0,-52,0,-75,-41c0,0,-24,-40,-24,-127c0,0,0,-86,23,-129c0,0,23,-43,76,-43Zm-9,-641c0,0,-153,0,-236,43c0,0,-84,44,-84,120c0,0,0,33,28,65c0,0,27,31,105,76c0,0,-44,17,-75,59c0,0,-31,43,-31,90L192,258c0,0,-133,56,-133,219c0,0,0,116,81,180c0,0,82,63,233,63c0,0,32,0,82,-6c0,0,51,-6,74,-13l168,83l26,-32L638,631c0,0,46,-57,46,-154c0,0,0,-119,-80,-182c0,0,-80,-64,-234,-64c0,0,-59,0,-114,9L238,183c0,0,1,-22,28,-41c0,0,26,-19,64,-19H493c0,0,256,0,256,-196c0,0,0,-81,-44,-139c0,0,-45,-59,-131,-92c0,0,-86,-32,-214,-32Z" 
id="f1_23"
transform="scale(0.001,-0.001)" />

<path d="M438,65c0,0,131,0,131,293c0,0,0,279,-130,279c0,0,-69,0,-127,-29V80c0,0,60,-15,126,-15ZM20,-325v50l76,18V634L19,652v49H304l1,-36c0,0,80,55,194,55c0,0,146,0,218,-86c0,0,71,-86,71,-271c0,0,0,-183,-83,-280c0,0,-83,-97,-238,-97c0,0,-79,0,-160,19c0,0,5,-48,5,-109V-257l103,-18v-50Z" 
id="f1_2c"
transform="scale(0.001,-0.001)" />

<path d="M276,-14c0,0,-57,0,-125,13C151,-1,83,10,48,23V214H97l28,-98c0,0,26,-26,69,-44c0,0,42,-17,86,-17c0,0,65,0,97,28c0,0,32,28,32,71c0,0,0,41,-31,65c0,0,-30,25,-133,57c0,0,-108,34,-154,92c0,0,-45,58,-45,143c0,0,0,95,71,152c0,0,71,57,183,57c0,0,77,0,207,-22V518H457l-24,82c0,0,-21,22,-60,35c0,0,-40,14,-75,14c0,0,-53,0,-79,-22c0,0,-26,-22,-26,-59c0,0,0,-40,32,-65c0,0,32,-26,132,-55c0,0,109,-34,155,-89c0,0,45,-55,45,-137c0,0,0,-117,-72,-177c0,0,-72,-59,-209,-59Z" 
id="f1_2f"
transform="scale(0.001,-0.001)" />

<path d="M248,-20c0,0,-52,0,-87,34c0,0,-36,36,-36,88c0,0,0,52,36,88c0,0,35,36,87,36c0,0,52,0,88,-36c0,0,36,-36,36,-88c0,0,0,-51,-36,-87c0,0,-35,-35,-88,-35Zm0,488c0,0,-52,0,-87,36c0,0,-36,36,-36,88c0,0,0,52,35,88c0,0,35,36,88,36c0,0,53,0,89,-36c0,0,35,-37,35,-88c0,0,0,-51,-36,-87c0,0,-35,-37,-88,-37Z" 
id="f1_u"
transform="scale(0.001,-0.001)" />

<path d="M73,0V70L634,936H448c0,0,-185,0,-254,-15L171,764H119v236H800V936L236,63H452c0,0,87,0,176,8c0,0,89,8,125,16l44,191h53L830,0Z" 
id="f0_1q"
transform="scale(0.001,-0.001)" />

<path d="M41,0V49l69,18V634L41,652v49H313l11,-61l50,26c0,0,105,54,188,54c0,0,125,0,167,-91c0,0,153,91,258,91c0,0,189,0,189,-207V67l71,-17V0H898V50l63,17V484c0,0,0,63,-24,98c0,0,-25,35,-74,35c0,0,-55,0,-119,-31c0,0,7,-32,7,-73V67L821,50V0H473V50l63,17V484c0,0,0,63,-25,98c0,0,-24,35,-73,35c0,0,-49,0,-113,-29V67L389,49V0Z" 
id="f1_29"
transform="scale(0.001,-0.001)" />

<path d="M342,-14L49,634L0,652v49H359V652L275,632L455,233L617,634l-82,18v49H764V652L713,637L433,-14Z" 
id="f1_2i"
transform="scale(0.001,-0.001)" />

<path d="M287,-18c0,0,-194,0,-194,206V634L23,652v49H309V217c0,0,0,-63,26,-98c0,0,27,-35,76,-35c0,0,57,0,113,25V634l-64,18v49H740V67L809,49V0H536L526,61L475,35c0,0,-104,-53,-188,-53Z" 
id="f1_2h"
transform="scale(0.001,-0.001)" />

<path d="M41,0V49l69,18V992l-72,18v50H325V756c0,0,0,-49,-4,-116l51,26c0,0,106,54,190,54c0,0,194,0,194,-207V67L827,49V0H478V49l63,18V484c0,0,0,63,-27,98c0,0,-26,35,-75,35c0,0,-57,0,-114,-25V67L389,49V0Z" 
id="f1_24"
transform="scale(0.001,-0.001)" />

<path d="M235,0V40L394,60V936H356c0,0,-189,0,-258,-15L78,766H28v234H908V766H857L837,921c0,0,-22,5,-98,9c0,0,-75,4,-165,4H538V60L697,40V0Z" 
id="f0_1k"
transform="scale(0.001,-0.001)" />

<path d="M41,0V34L426,641H261c0,0,-42,0,-80,-7c0,0,-39,-7,-54,-19L104,515H69V701H586V665L201,60H407c0,0,42,0,89,10c0,0,47,10,66,25l39,147h35L617,0Z" 
id="f0_2m"
transform="scale(0.001,-0.001)" />

<path d="M30,0V34L352,634H272c0,0,-41,0,-80,-7c0,0,-39,-8,-54,-19L115,492H61V701H606V664L283,67H395c0,0,43,0,90,11c0,0,47,10,66,24l40,162h54L624,0Z" 
id="f1_2m"
transform="scale(0.001,-0.001)" />

<path d="M41,0V49l76,18V624H11v51l106,29v75c0,0,0,144,73,220c0,0,73,77,210,77c0,0,74,0,124,-15V894H476l-22,81c0,0,-18,17,-47,17c0,0,-74,0,-74,-189V701H475V624H333V67L447,49V0Z" 
id="f1_22"
transform="scale(0.001,-0.001)" />

<path d="M850,0L476,482L389,407V74L533,54V0H26V54L154,74V926L26,945v55H518V945L389,926V519L845,926l-92,19v55h343V945L974,926L643,634L1083,74l93,-20V0Z" 
id="f1_1b"
transform="scale(0.001,-0.001)" />

<path d="M410,-14c0,0,-86,0,-175,14C235,0,145,14,81,38V307h66L181,146c0,0,31,-37,94,-62c0,0,64,-24,132,-24c0,0,214,0,214,177c0,0,0,55,-41,93c0,0,-41,38,-128,68c0,0,-128,42,-185,68c0,0,-56,27,-95,63c0,0,-38,36,-62,87c0,0,-23,51,-23,125c0,0,0,132,90,201c0,0,90,69,263,69c0,0,125,0,278,-32V741H651L618,878c0,0,-76,56,-178,56c0,0,-92,0,-141,-34c0,0,-49,-34,-49,-104c0,0,0,-50,41,-86c0,0,41,-35,128,-63c0,0,171,-56,235,-97c0,0,64,-41,97,-103c0,0,34,-61,34,-143c0,0,0,-318,-375,-318Z" 
id="f1_1j"
transform="scale(0.001,-0.001)" />

<path d="M639,416L478,858L313,416ZM647,0V54L762,74L667,333H283L191,74L319,54V0H15V54L90,74l355,935H662L1016,74l76,-20V0Z" 
id="f1_11"
transform="scale(0.001,-0.001)" />

<path d="M595,60c0,0,141,0,206,102c0,0,65,102,65,340c0,0,0,236,-65,335c0,0,-65,100,-206,100c0,0,-142,0,-207,-100c0,0,-66,-99,-66,-335c0,0,0,-239,66,-340c0,0,65,-102,207,-102Zm0,-74c0,0,-253,0,-387,130C208,116,75,246,75,501c0,0,0,510,520,510c0,0,256,0,387,-129c0,0,132,-130,132,-381c0,0,0,-254,-133,-385C981,116,848,-14,595,-14Z" 
id="f1_1f"
transform="scale(0.001,-0.001)" />

<path d="M231,0V54L390,74V921H352c0,0,-171,0,-240,-15L92,721H24v279H996V721H927L907,906c0,0,-62,14,-245,14H626V74L785,54V0Z" 
id="f1_1k"
transform="scale(0.001,-0.001)" />

<path d="M26,0V55L154,74V926L26,946v54H518V946L389,926V555H798V926L670,946v54h493V946L1034,926V74L1163,55V0H670V55L798,74V473H389V74L518,55V0Z" 
id="f1_18"
transform="scale(0.001,-0.001)" />

<path d="M26,0V54L154,74V926L26,945v55H878V746H810L786,908c0,0,-83,10,-241,10H389V551H651l23,111h67V355H674L651,468H389V82H578c0,0,193,0,252,12l43,185h68L927,0Z" 
id="f1_15"
transform="scale(0.001,-0.001)" />

<path d="M498,506c0,0,115,0,164,47c0,0,48,48,48,166c0,0,0,112,-46,156c0,0,-46,43,-169,43H390V506ZM793,0L514,423H390V74L518,54V0H36V54L154,74V926L26,945v55H504c0,0,221,0,330,-68c0,0,109,-68,109,-212c0,0,0,-215,-201,-276L1009,74L1117,54V0Z" 
id="f1_1i"
transform="scale(0.001,-0.001)" />

<path d="M598,0V54L725,74L509,408L246,74L370,54V0H28V54L139,74L460,483L174,926L61,945v55H548V945L421,926L596,656L809,926L685,945v55h342V945L917,926L645,581L972,74L1085,54V0Z" 
id="f1_1o"
transform="scale(0.001,-0.001)" />

<path d="M868,0L251,804V74L385,54V0H29V54L157,74V926L29,945v55H371L862,361V926L727,945v55h356V945L955,926V0Z" 
id="f1_1e"
transform="scale(0.001,-0.001)" />

<path d="M900,0V54l135,20V845L658,0H617L248,845V74L382,54V0H26V54L154,74V926L26,945v55H419L705,342l292,658h401V945L1270,926V74L1398,54V0Z" 
id="f1_1d"
transform="scale(0.001,-0.001)" />

<path d="M51,0V55L180,74V926L51,946v54H543V946L415,926V74L543,55V0Z" 
id="f1_19"
transform="scale(0.001,-0.001)" />

<path d="M608,-14c0,0,-251,0,-392,133C216,119,75,252,75,488c0,0,0,257,134,390c0,0,135,133,398,133c0,0,174,0,361,-50l4,-240H905L884,866c0,0,-98,67,-229,67c0,0,-173,0,-253,-108c0,0,-80,-108,-80,-334c0,0,0,-209,84,-319c0,0,83,-109,243,-109c0,0,84,0,147,22c0,0,63,22,99,53l24,164h68L982,48C982,48,915,22,808,4C808,4,700,-14,608,-14Z" 
id="f1_13"
transform="scale(0.001,-0.001)" />

<path d="M519,79c0,0,97,0,153,42c0,0,57,42,83,131c0,0,26,89,26,248c0,0,0,216,-79,317c0,0,-79,101,-257,101H389V85c0,0,72,-6,130,-6ZM533,-2L198,0H27V54L155,74V926L27,945v55H502c0,0,269,0,398,-122c0,0,129,-122,129,-372c0,0,0,-258,-123,-383C906,123,783,-2,533,-2Z" 
id="f1_14"
transform="scale(0.001,-0.001)" />

<path d="M211,-20c0,0,-39,0,-64,25c0,0,-26,27,-26,64c0,0,0,38,26,64c0,0,26,26,64,26c0,0,37,0,64,-25c0,0,26,-26,26,-65c0,0,0,-37,-26,-64c0,0,-26,-25,-64,-25Zm0,556c0,0,-38,0,-64,26c0,0,-26,26,-26,64c0,0,0,37,26,64c0,0,25,27,64,27c0,0,38,0,64,-27c0,0,26,-27,26,-64c0,0,0,-38,-26,-64c0,0,-27,-26,-64,-26Z" 
id="f0_u"
transform="scale(0.001,-0.001)" />

<path d="M536,63c0,0,127,0,191,54c0,0,63,54,63,168c0,0,0,105,-70,154c0,0,-70,49,-225,49H316V67c0,0,103,-4,220,-4ZM480,555c0,0,121,0,178,48c0,0,57,48,57,155c0,0,0,91,-58,133c0,0,-57,42,-186,42H316V555ZM554,-4L235,0H44V40L172,60V941L44,960v40H501c0,0,191,0,279,-56c0,0,88,-56,88,-179c0,0,0,-88,-55,-149c0,0,-54,-62,-151,-83c0,0,135,-14,209,-79c0,0,73,-65,73,-166c0,0,0,-144,-99,-219C845,69,745,-4,554,-4Z" 
id="f0_12"
transform="scale(0.001,-0.001)" />

<path d="M13,0V34L95,46L325,350L122,649L40,668v33H357V668L264,648L399,446L554,649l-96,19v33H710V668L630,652L433,397L663,50L745,34V0H427V34l94,17L359,299L169,50L266,34V0Z" 
id="f0_2k"
transform="scale(0.001,-0.001)" />

<path d="M20,-236v69c0,0,47,14,81,37c0,0,33,24,52,52c0,0,18,28,18,53c0,0,0,17,-11,28c0,0,-12,12,-45,30c0,0,-57,30,-57,93c0,0,0,48,34,74c0,0,33,25,85,25c0,0,63,0,105,-41c0,0,42,-41,42,-105c0,0,0,-115,-78,-195c0,0,-77,-81,-226,-120Z" 
id="f1_g"
transform="scale(0.001,-0.001)" />

<path d="M36,0V54L154,74V926L26,945v55H860V731H790L766,908c0,0,-36,5,-121,8c0,0,-84,2,-133,2H389V508H633l23,127h67V298H656L633,426H389V74L556,54V0Z" 
id="f1_16"
transform="scale(0.001,-0.001)" />

<path d="M44,0V40L172,60V941L44,960v40H445V960L316,941V549H787V941L659,960v40h400V960L930,941V60L1059,40V0H659V40L787,60V481H316V60L445,40V0Z" 
id="f0_18"
transform="scale(0.001,-0.001)" />

<path d="M420,489c0,0,93,0,153,65c0,0,60,65,60,181c0,0,0,116,-62,184c0,0,-61,68,-148,68c0,0,-90,0,-156,-74c0,0,-66,-73,-66,-189c0,0,0,-105,63,-170c0,0,63,-65,156,-65ZM391,-18c0,0,-128,0,-209,71c0,0,-82,71,-98,200l129,12c0,0,17,-91,63,-132c0,0,46,-41,118,-41c0,0,62,0,109,28c0,0,47,29,76,76c0,0,30,47,50,128c0,0,20,80,20,164c0,0,0,9,-1,27c0,0,-40,-65,-110,-105c0,0,-69,-39,-151,-39c0,0,-135,0,-229,98c0,0,-94,99,-94,260c0,0,0,166,98,268c0,0,98,101,245,101c0,0,107,0,195,-57c0,0,89,-58,134,-164c0,0,46,-106,46,-308c0,0,0,-209,-45,-334C737,235,691,111,602,46c0,0,-90,-64,-211,-64Z" 
id="f2_t"
transform="scale(0.001,-0.001)" />


</defs>
</svg>