<?xml version="1.0" encoding="UTF-8" standalone="no"?>
<!DOCTYPE svg PUBLIC "-//W3C//DTD SVG 1.1//EN"
"http://www.w3.org/Graphics/SVG/1.1/DTD/svg11.dtd">
<svg viewBox="0 0 935 1210" version="1.1" xmlns="http://www.w3.org/2000/svg" xmlns:xlink="http://www.w3.org/1999/xlink">
<defs>
</defs>
<g fill="#000000" >
<use xlink:href="#f0_16" transform="matrix(12,0,0,12,351.1,381.4)" />
<use xlink:href="#f0_25" transform="matrix(12,0,0,12,362.1,381.4)" />
<use xlink:href="#f0_23" transform="matrix(12,0,0,12,367.1,381.4)" />
<use xlink:href="#f0_i" transform="matrix(12,0,0,12,376.3,381.4)" />
<use xlink:href="#f0_p" transform="matrix(12,0,0,12,385.8,381.4)" />
<use xlink:href="#f0_i" transform="matrix(12,0,0,12,395,381.4)" />
<use xlink:href="#f0_1j" transform="matrix(12,0,0,12,404.2,381.4)" />
<use xlink:href="#f0_2g" transform="matrix(12,0,0,12,414.4,381.4)" />
<use xlink:href="#f0_2e" transform="matrix(12,0,0,12,420.6,381.4)" />
<use xlink:href="#f0_2h" transform="matrix(12,0,0,12,428.3,381.4)" />
<use xlink:href="#f0_1z" transform="matrix(12,0,0,12,438.6,381.4)" />
<use xlink:href="#f0_2g" transform="matrix(12,0,0,12,446.6,381.4)" />
<use xlink:href="#f0_2h" transform="matrix(12,0,0,12,452.9,381.4)" />
<use xlink:href="#f0_2e" transform="matrix(12,0,0,12,463.1,381.4)" />
<use xlink:href="#f0_21" transform="matrix(12,0,0,12,470.8,381.4)" />
<use xlink:href="#f0_2b" transform="matrix(12,0,0,12,483.6,381.4)" />
<use xlink:href="#f0_22" transform="matrix(12,0,0,12,492.8,381.4)" />
<use xlink:href="#f0_2a" transform="matrix(12,0,0,12,503.4,381.4)" />
<use xlink:href="#f0_2h" transform="matrix(12,0,0,12,513.7,381.4)" />
<use xlink:href="#f0_1z" transform="matrix(12,0,0,12,523.9,381.4)" />
<use xlink:href="#f0_28" transform="matrix(12,0,0,12,532,381.4)" />
<use xlink:href="#f0_21" transform="matrix(12,0,0,12,536.7,381.4)" />
<use xlink:href="#f0_2b" transform="matrix(12,0,0,12,544.8,381.4)" />
<use xlink:href="#f0_2g" transform="matrix(12,0,0,12,554,381.4)" />
<use xlink:href="#f0_25" transform="matrix(12,0,0,12,560.2,381.4)" />
<use xlink:href="#f0_20" transform="matrix(12,0,0,12,565.3,381.4)" />
<use xlink:href="#f0_21" transform="matrix(12,0,0,12,575.6,381.4)" />
<use xlink:href="#f1_1e" transform="matrix(12,0,0,12,55,425.4)" />
<use xlink:href="#f1_25" transform="matrix(12,0,0,12,68.6,425.4)" />
<use xlink:href="#f1_2g" transform="matrix(12,0,0,12,73,425.4)" />
<use xlink:href="#f1_2e" transform="matrix(12,0,0,12,78.5,425.4)" />
<use xlink:href="#f1_2b" transform="matrix(12,0,0,12,84.7,425.4)" />
<use xlink:href="#f1_23" transform="matrix(12,0,0,12,94.2,425.4)" />
<use xlink:href="#f1_21" transform="matrix(12,0,0,12,103.4,425.4)" />
<use xlink:href="#f1_2a" transform="matrix(12,0,0,12,111.4,425.4)" />
<use xlink:href="#f1_2b" transform="matrix(12,0,0,12,120.2,425.4)" />
<use xlink:href="#f1_2h" transform="matrix(12,0,0,12,129.7,425.4)" />
<use xlink:href="#f1_2f" transform="matrix(12,0,0,12,138.9,425.4)" />
<use xlink:href="#f1_1y" transform="matrix(12,0,0,12,150.6,425.4)" />
<use xlink:href="#f1_1x" transform="matrix(12,0,0,12,159.4,425.4)" />
<use xlink:href="#f1_2f" transform="matrix(12,0,0,12,167.5,425.4)" />
<use xlink:href="#f1_21" transform="matrix(12,0,0,12,174.5,425.4)" />
<use xlink:href="#f1_2f" transform="matrix(12,0,0,12,182.9,425.4)" />
<use xlink:href="#f1_1x" transform="matrix(12,0,0,12,195,425.4)" />
<use xlink:href="#f1_2e" transform="matrix(12,0,0,12,203,425.4)" />
<use xlink:href="#f1_21" transform="matrix(12,0,0,12,209.2,425.4)" />
<use xlink:href="#f1_24" transform="matrix(12,0,0,12,222.4,425.4)" />
<use xlink:href="#f1_21" transform="matrix(12,0,0,12,231.2,425.4)" />
<use xlink:href="#f1_2g" transform="matrix(12,0,0,12,239.3,425.4)" />
<use xlink:href="#f1_21" transform="matrix(12,0,0,12,244.8,425.4)" />
<use xlink:href="#f1_2e" transform="matrix(12,0,0,12,252.8,425.4)" />
<use xlink:href="#f1_2b" transform="matrix(12,0,0,12,258.7,425.4)" />
<use xlink:href="#f1_1z" transform="matrix(12,0,0,12,268.2,425.4)" />
<use xlink:href="#f1_2l" transform="matrix(12,0,0,12,276.3,425.4)" />
<use xlink:href="#f1_1z" transform="matrix(12,0,0,12,284.7,425.4)" />
<use xlink:href="#f1_28" transform="matrix(12,0,0,12,293.1,425.4)" />
<use xlink:href="#f1_25" transform="matrix(12,0,0,12,298.2,425.4)" />
<use xlink:href="#f1_1z" transform="matrix(12,0,0,12,303,425.4)" />
<use xlink:href="#f1_g" transform="matrix(12,0,0,12,311.1,425.4)" />
<use xlink:href="#f1_1x" transform="matrix(12,0,0,12,321,425.4)" />
<use xlink:href="#f1_2e" transform="matrix(12,0,0,12,329,425.4)" />
<use xlink:href="#f1_2b" transform="matrix(12,0,0,12,335.2,425.4)" />
<use xlink:href="#f1_29" transform="matrix(12,0,0,12,344.8,425.4)" />
<use xlink:href="#f1_1x" transform="matrix(12,0,0,12,358.3,425.4)" />
<use xlink:href="#f1_2g" transform="matrix(12,0,0,12,366.4,425.4)" />
<use xlink:href="#f1_25" transform="matrix(12,0,0,12,372.2,425.4)" />
<use xlink:href="#f1_1z" transform="matrix(12,0,0,12,376.6,425.4)" />
<use xlink:href="#f1_29" transform="matrix(12,0,0,12,390.2,425.4)" />
<use xlink:href="#f1_2b" transform="matrix(12,0,0,12,403.8,425.4)" />
<use xlink:href="#f1_28" transform="matrix(12,0,0,12,413.6,425.4)" />
<use xlink:href="#f1_21" transform="matrix(12,0,0,12,418,425.4)" />
<use xlink:href="#f1_1z" transform="matrix(12,0,0,12,426.5,425.4)" />
<use xlink:href="#f1_2h" transform="matrix(12,0,0,12,434.5,425.4)" />
<use xlink:href="#f1_28" transform="matrix(12,0,0,12,444,425.4)" />
<use xlink:href="#f1_21" transform="matrix(12,0,0,12,448.4,425.4)" />
<use xlink:href="#f1_2f" transform="matrix(12,0,0,12,456.8,425.4)" />
<use xlink:href="#f1_i" transform="matrix(12,0,0,12,463.8,425.4)" />
<use xlink:href="#f1_1k" transform="matrix(12,0,0,12,473.7,425.4)" />
<use xlink:href="#f1_24" transform="matrix(12,0,0,12,485,425.4)" />
<use xlink:href="#f1_21" transform="matrix(12,0,0,12,493.8,425.4)" />
<use xlink:href="#f1_2e" transform="matrix(12,0,0,12,501.9,425.4)" />
<use xlink:href="#f1_21" transform="matrix(12,0,0,12,508.1,425.4)" />
<use xlink:href="#f1_1x" transform="matrix(12,0,0,12,521.3,425.4)" />
<use xlink:href="#f1_2e" transform="matrix(12,0,0,12,529.4,425.4)" />
<use xlink:href="#f1_21" transform="matrix(12,0,0,12,535.6,425.4)" />
<use xlink:href="#f1_1y" transform="matrix(12,0,0,12,548.4,425.4)" />
<use xlink:href="#f1_1x" transform="matrix(12,0,0,12,557.2,425.4)" />
<use xlink:href="#f1_2f" transform="matrix(12,0,0,12,565.3,425.4)" />
<use xlink:href="#f1_25" transform="matrix(12,0,0,12,572.6,425.4)" />
<use xlink:href="#f1_1z" transform="matrix(12,0,0,12,577.3,425.4)" />
<use xlink:href="#f1_1x" transform="matrix(12,0,0,12,585.4,425.4)" />
<use xlink:href="#f1_28" transform="matrix(12,0,0,12,593.8,425.4)" />
<use xlink:href="#f1_28" transform="matrix(12,0,0,12,598.9,425.4)" />
<use xlink:href="#f1_2l" transform="matrix(12,0,0,12,604.1,425.4)" />
<use xlink:href="#f1_2g" transform="matrix(12,0,0,12,617.6,425.4)" />
<use xlink:href="#f1_2j" transform="matrix(12,0,0,12,623.1,425.4)" />
<use xlink:href="#f1_2b" transform="matrix(12,0,0,12,636.3,425.4)" />
<use xlink:href="#f1_2g" transform="matrix(12,0,0,12,650.2,425.4)" />
<use xlink:href="#f1_2l" transform="matrix(12,0,0,12,655.7,425.4)" />
<use xlink:href="#f1_2c" transform="matrix(12,0,0,12,664.1,425.4)" />
<use xlink:href="#f1_21" transform="matrix(12,0,0,12,673.3,425.4)" />
<use xlink:href="#f1_2f" transform="matrix(12,0,0,12,681.7,425.4)" />
<use xlink:href="#f1_2b" transform="matrix(12,0,0,12,693.8,425.4)" />
<use xlink:href="#f1_22" transform="matrix(12,0,0,12,703.3,425.4)" />
<use xlink:href="#f1_2a" transform="matrix(12,0,0,12,713.9,425.4)" />
<use xlink:href="#f1_2h" transform="matrix(12,0,0,12,722.7,425.4)" />
<use xlink:href="#f1_1z" transform="matrix(12,0,0,12,731.9,425.4)" />
<use xlink:href="#f1_28" transform="matrix(12,0,0,12,740.3,425.4)" />
<use xlink:href="#f1_21" transform="matrix(12,0,0,12,745.1,425.4)" />
<use xlink:href="#f1_25" transform="matrix(12,0,0,12,753.5,425.4)" />
<use xlink:href="#f1_1z" transform="matrix(12,0,0,12,758.2,425.4)" />
<use xlink:href="#f1_1x" transform="matrix(12,0,0,12,771.4,425.4)" />
<use xlink:href="#f1_1z" transform="matrix(12,0,0,12,779.5,425.4)" />
<use xlink:href="#f1_25" transform="matrix(12,0,0,12,787.9,425.4)" />
<use xlink:href="#f1_20" transform="matrix(12,0,0,12,792.7,425.4)" />
<use xlink:href="#f1_2f" transform="matrix(12,0,0,12,802.9,425.4)" />
<use xlink:href="#f0_h" transform="matrix(12,0,0,12,809.9,425.4)" />
<use xlink:href="#f0_2c" transform="matrix(12,0,0,12,821.3,425.4)" />
<use xlink:href="#f0_2h" transform="matrix(12,0,0,12,831.5,425.4)" />
<use xlink:href="#f0_2e" transform="matrix(12,0,0,12,841.8,425.4)" />
<use xlink:href="#f0_25" transform="matrix(12,0,0,12,849.5,425.4)" />
<use xlink:href="#f0_2a" transform="matrix(12,0,0,12,854.6,425.4)" />
<use xlink:href="#f0_21" transform="matrix(12,0,0,12,864.8,425.4)" />
<use xlink:href="#f0_2f" transform="matrix(12,0,0,12,872.9,425.4)" />
<use xlink:href="#f0_1x" transform="matrix(12,0,0,12,55,457)" />
<use xlink:href="#f0_2a" transform="matrix(12,0,0,12,64.2,457)" />
<use xlink:href="#f0_20" transform="matrix(12,0,0,12,74.5,457)" />
<use xlink:href="#f0_2c" transform="matrix(12,0,0,12,89.4,457)" />
<use xlink:href="#f0_2l" transform="matrix(12,0,0,12,99.7,457)" />
<use xlink:href="#f0_2e" transform="matrix(12,0,0,12,108.9,457)" />
<use xlink:href="#f0_25" transform="matrix(12,0,0,12,116.6,457)" />
<use xlink:href="#f0_29" transform="matrix(12,0,0,12,121.7,457)" />
<use xlink:href="#f0_25" transform="matrix(12,0,0,12,136.7,457)" />
<use xlink:href="#f0_20" transform="matrix(12,0,0,12,141.8,457)" />
<use xlink:href="#f0_25" transform="matrix(12,0,0,12,152.1,457)" />
<use xlink:href="#f0_2a" transform="matrix(12,0,0,12,157.2,457)" />
<use xlink:href="#f0_21" transform="matrix(12,0,0,12,167.5,457)" />
<use xlink:href="#f0_2f" transform="matrix(12,0,0,12,175.6,457)" />
<use xlink:href="#f1_i" transform="matrix(12,0,0,12,182.7,457)" />
<use xlink:href="#f1_1g" transform="matrix(12,0,0,12,55,501)" />
<use xlink:href="#f1_2h" transform="matrix(12,0,0,12,65.3,501)" />
<use xlink:href="#f1_2e" transform="matrix(12,0,0,12,74.5,501)" />
<use xlink:href="#f1_25" transform="matrix(12,0,0,12,80.7,501)" />
<use xlink:href="#f1_2a" transform="matrix(12,0,0,12,85.4,501)" />
<use xlink:href="#f1_21" transform="matrix(12,0,0,12,94.6,501)" />
<use xlink:href="#f1_2f" transform="matrix(12,0,0,12,102.7,501)" />
<use xlink:href="#f1_1x" transform="matrix(12,0,0,12,114.4,501)" />
<use xlink:href="#f1_2e" transform="matrix(12,0,0,12,122.4,501)" />
<use xlink:href="#f1_21" transform="matrix(12,0,0,12,128.7,501)" />
<use xlink:href="#f1_2b" transform="matrix(12,0,0,12,141.5,501)" />
<use xlink:href="#f1_22" transform="matrix(12,0,0,12,151,501)" />
<use xlink:href="#f1_2g" transform="matrix(12,0,0,12,161.2,501)" />
<use xlink:href="#f1_2j" transform="matrix(12,0,0,12,166.7,501)" />
<use xlink:href="#f1_2b" transform="matrix(12,0,0,12,179.6,501)" />
<use xlink:href="#f1_2g" transform="matrix(12,0,0,12,193.5,501)" />
<use xlink:href="#f1_2l" transform="matrix(12,0,0,12,199,501)" />
<use xlink:href="#f1_2c" transform="matrix(12,0,0,12,207.4,501)" />
<use xlink:href="#f1_21" transform="matrix(12,0,0,12,216.6,501)" />
<use xlink:href="#f1_2f" transform="matrix(12,0,0,12,224.6,501)" />
<use xlink:href="#f1_h" transform="matrix(12,0,0,12,231.8,501)" />
<use xlink:href="#f1_1x" transform="matrix(12,0,0,12,242.8,501)" />
<use xlink:href="#f1_20" transform="matrix(12,0,0,12,250.9,501)" />
<use xlink:href="#f1_21" transform="matrix(12,0,0,12,260,501)" />
<use xlink:href="#f1_2a" transform="matrix(12,0,0,12,268.5,501)" />
<use xlink:href="#f1_25" transform="matrix(12,0,0,12,277.6,501)" />
<use xlink:href="#f1_2a" transform="matrix(12,0,0,12,282.4,501)" />
<use xlink:href="#f1_21" transform="matrix(12,0,0,12,291.6,501)" />
<use xlink:href="#f1_1x" transform="matrix(12,0,0,12,304.4,501)" />
<use xlink:href="#f1_2a" transform="matrix(12,0,0,12,312.4,501)" />
<use xlink:href="#f1_20" transform="matrix(12,0,0,12,321.2,501)" />
<use xlink:href="#f1_23" transform="matrix(12,0,0,12,335.2,501)" />
<use xlink:href="#f1_2h" transform="matrix(12,0,0,12,344.3,501)" />
<use xlink:href="#f1_1x" transform="matrix(12,0,0,12,353.5,501)" />
<use xlink:href="#f1_2a" transform="matrix(12,0,0,12,361.9,501)" />
<use xlink:href="#f1_25" transform="matrix(12,0,0,12,371.1,501)" />
<use xlink:href="#f1_2a" transform="matrix(12,0,0,12,375.8,501)" />
<use xlink:href="#f1_21" transform="matrix(12,0,0,12,385,501)" />
<use xlink:href="#f1_2j" transform="matrix(12,0,0,12,397.8,501)" />
<use xlink:href="#f1_24" transform="matrix(12,0,0,12,411.4,501)" />
<use xlink:href="#f1_21" transform="matrix(12,0,0,12,420.2,501)" />
<use xlink:href="#f1_2e" transform="matrix(12,0,0,12,428.6,501)" />
<use xlink:href="#f1_21" transform="matrix(12,0,0,12,434.8,501)" />
<use xlink:href="#f1_1x" transform="matrix(12,0,0,12,442.9,501)" />
<use xlink:href="#f1_2f" transform="matrix(12,0,0,12,450.9,501)" />
<use xlink:href="#f1_2c" transform="matrix(12,0,0,12,462.6,501)" />
<use xlink:href="#f1_2l" transform="matrix(12,0,0,12,472.2,501)" />
<use xlink:href="#f1_2e" transform="matrix(12,0,0,12,480.6,501)" />
<use xlink:href="#f1_25" transform="matrix(12,0,0,12,487.2,501)" />
<use xlink:href="#f1_29" transform="matrix(12,0,0,12,491.9,501)" />
<use xlink:href="#f1_25" transform="matrix(12,0,0,12,506.2,501)" />
<use xlink:href="#f1_20" transform="matrix(12,0,0,12,511,501)" />
<use xlink:href="#f1_25" transform="matrix(12,0,0,12,520.5,501)" />
<use xlink:href="#f1_2a" transform="matrix(12,0,0,12,525.3,501)" />
<use xlink:href="#f1_21" transform="matrix(12,0,0,12,534.5,501)" />
<use xlink:href="#f1_2f" transform="matrix(12,0,0,12,542.9,501)" />
<use xlink:href="#f1_1z" transform="matrix(12,0,0,12,554.6,501)" />
<use xlink:href="#f1_1x" transform="matrix(12,0,0,12,562.7,501)" />
<use xlink:href="#f1_2a" transform="matrix(12,0,0,12,571.1,501)" />
<use xlink:href="#f1_1y" transform="matrix(12,0,0,12,584.6,501)" />
<use xlink:href="#f1_21" transform="matrix(12,0,0,12,593.4,501)" />
<use xlink:href="#f1_2g" transform="matrix(12,0,0,12,606.2,501)" />
<use xlink:href="#f1_24" transform="matrix(12,0,0,12,611.7,501)" />
<use xlink:href="#f1_2l" transform="matrix(12,0,0,12,620.9,501)" />
<use xlink:href="#f1_29" transform="matrix(12,0,0,12,630,501)" />
<use xlink:href="#f1_25" transform="matrix(12,0,0,12,644.3,501)" />
<use xlink:href="#f1_2a" transform="matrix(12,0,0,12,649.1,501)" />
<use xlink:href="#f1_21" transform="matrix(12,0,0,12,658.3,501)" />
<use xlink:href="#f1_g" transform="matrix(12,0,0,12,666.3,501)" />
<use xlink:href="#f1_1z" transform="matrix(12,0,0,12,675.8,501)" />
<use xlink:href="#f1_2l" transform="matrix(12,0,0,12,684.3,501)" />
<use xlink:href="#f1_2g" transform="matrix(12,0,0,12,692.7,501)" />
<use xlink:href="#f1_2b" transform="matrix(12,0,0,12,698.2,501)" />
<use xlink:href="#f1_2f" transform="matrix(12,0,0,12,707.7,501)" />
<use xlink:href="#f1_25" transform="matrix(12,0,0,12,714.7,501)" />
<use xlink:href="#f1_2a" transform="matrix(12,0,0,12,719.4,501)" />
<use xlink:href="#f1_21" transform="matrix(12,0,0,12,728.2,501)" />
<use xlink:href="#f1_g" transform="matrix(12,0,0,12,736.3,501)" />
<use xlink:href="#f1_2b" transform="matrix(12,0,0,12,745.8,501)" />
<use xlink:href="#f1_2e" transform="matrix(12,0,0,12,755.3,501)" />
<use xlink:href="#f1_2h" transform="matrix(12,0,0,12,765.9,501)" />
<use xlink:href="#f1_2e" transform="matrix(12,0,0,12,775.1,501)" />
<use xlink:href="#f1_1x" transform="matrix(12,0,0,12,781.3,501)" />
<use xlink:href="#f1_1z" transform="matrix(12,0,0,12,789.4,501)" />
<use xlink:href="#f1_25" transform="matrix(12,0,0,12,797.4,501)" />
<use xlink:href="#f1_28" transform="matrix(12,0,0,12,802.2,501)" />
<use xlink:href="#f1_i" transform="matrix(12,0,0,12,806.6,501)" />
<use xlink:href="#f0_16" transform="matrix(12,0,0,12,295.3,1005.3)" />
<use xlink:href="#f0_25" transform="matrix(12,0,0,12,306.3,1005.3)" />
<use xlink:href="#f0_23" transform="matrix(12,0,0,12,311.4,1005.3)" />
<use xlink:href="#f0_i" transform="matrix(12,0,0,12,320.5,1005.3)" />
<use xlink:href="#f0_q" transform="matrix(12,0,0,12,330.1,1005.3)" />
<use xlink:href="#f0_i" transform="matrix(12,0,0,12,339.2,1005.3)" />
<use xlink:href="#f0_1j" transform="matrix(12,0,0,12,348.4,1005.3)" />
<use xlink:href="#f0_2g" transform="matrix(12,0,0,12,358.6,1005.3)" />
<use xlink:href="#f0_2e" transform="matrix(12,0,0,12,364.8,1005.3)" />
<use xlink:href="#f0_2h" transform="matrix(12,0,0,12,372.5,1005.3)" />
<use xlink:href="#f0_1z" transform="matrix(12,0,0,12,382.8,1005.3)" />
<use xlink:href="#f0_2g" transform="matrix(12,0,0,12,390.9,1005.3)" />
<use xlink:href="#f0_2h" transform="matrix(12,0,0,12,397.1,1005.3)" />
<use xlink:href="#f0_2e" transform="matrix(12,0,0,12,407.3,1005.3)" />
<use xlink:href="#f0_21" transform="matrix(12,0,0,12,415,1005.3)" />
<use xlink:href="#f0_2b" transform="matrix(12,0,0,12,427.8,1005.3)" />
<use xlink:href="#f0_22" transform="matrix(12,0,0,12,437,1005.3)" />
<use xlink:href="#f0_2c" transform="matrix(12,0,0,12,447.6,1005.3)" />
<use xlink:href="#f0_2h" transform="matrix(12,0,0,12,457.9,1005.3)" />
<use xlink:href="#f0_2e" transform="matrix(12,0,0,12,468.1,1005.3)" />
<use xlink:href="#f0_25" transform="matrix(12,0,0,12,475.8,1005.3)" />
<use xlink:href="#f0_2a" transform="matrix(12,0,0,12,480.9,1005.3)" />
<use xlink:href="#f0_21" transform="matrix(12,0,0,12,491.2,1005.3)" />
<use xlink:href="#f0_2f" transform="matrix(12,0,0,12,499.6,1005.3)" />
<use xlink:href="#f0_1x" transform="matrix(12,0,0,12,511.3,1005.3)" />
<use xlink:href="#f0_2a" transform="matrix(12,0,0,12,520.5,1005.3)" />
<use xlink:href="#f0_20" transform="matrix(12,0,0,12,530.7,1005.3)" />
<use xlink:href="#f0_2c" transform="matrix(12,0,0,12,545.7,1005.3)" />
<use xlink:href="#f0_2l" transform="matrix(12,0,0,12,556,1005.3)" />
<use xlink:href="#f0_2e" transform="matrix(12,0,0,12,565.2,1005.3)" />
<use xlink:href="#f0_25" transform="matrix(12,0,0,12,572.9,1005.3)" />
<use xlink:href="#f0_29" transform="matrix(12,0,0,12,578,1005.3)" />
<use xlink:href="#f0_25" transform="matrix(12,0,0,12,593,1005.3)" />
<use xlink:href="#f0_20" transform="matrix(12,0,0,12,598.1,1005.3)" />
<use xlink:href="#f0_25" transform="matrix(12,0,0,12,608.4,1005.3)" />
<use xlink:href="#f0_2a" transform="matrix(12,0,0,12,613.5,1005.3)" />
<use xlink:href="#f0_21" transform="matrix(12,0,0,12,623.8,1005.3)" />
<use xlink:href="#f0_2f" transform="matrix(12,0,0,12,631.9,1005.3)" />
<use xlink:href="#f1_1k" transform="matrix(12,0,0,12,55,1093)" />
<use xlink:href="#f1_24" transform="matrix(12,0,0,12,66.4,1093)" />
<use xlink:href="#f1_21" transform="matrix(12,0,0,12,75.2,1093)" />
<use xlink:href="#f1_p" transform="matrix(12,0,0,12,86.9,1093)" />
<use xlink:href="#f1_h" transform="matrix(12,0,0,12,96.1,1093)" />
<use xlink:href="#f1_1z" transform="matrix(12,0,0,12,106,1093)" />
<use xlink:href="#f1_1x" transform="matrix(12,0,0,12,114.1,1093)" />
<use xlink:href="#f1_2e" transform="matrix(12,0,0,12,122.1,1093)" />
<use xlink:href="#f1_1y" transform="matrix(12,0,0,12,128.4,1093)" />
<use xlink:href="#f1_2b" transform="matrix(12,0,0,12,137.2,1093)" />
<use xlink:href="#f1_2a" transform="matrix(12,0,0,12,146.7,1093)" />
<use xlink:href="#f1_2f" transform="matrix(12,0,0,12,159.1,1093)" />
<use xlink:href="#f1_2h" transform="matrix(12,0,0,12,166.1,1093)" />
<use xlink:href="#f1_23" transform="matrix(12,0,0,12,175.3,1093)" />
<use xlink:href="#f1_1x" transform="matrix(12,0,0,12,184.4,1093)" />
<use xlink:href="#f1_2e" transform="matrix(12,0,0,12,192.5,1093)" />
<use xlink:href="#f1_22" transform="matrix(12,0,0,12,202.7,1093)" />
<use xlink:href="#f1_2b" transform="matrix(12,0,0,12,208.2,1093)" />
<use xlink:href="#f1_2h" transform="matrix(12,0,0,12,217.8,1093)" />
<use xlink:href="#f1_2a" transform="matrix(12,0,0,12,226.9,1093)" />
<use xlink:href="#f1_20" transform="matrix(12,0,0,12,235.7,1093)" />
<use xlink:href="#f1_25" transform="matrix(12,0,0,12,248.9,1093)" />
<use xlink:href="#f1_2a" transform="matrix(12,0,0,12,253.7,1093)" />
<use xlink:href="#f0_14" transform="matrix(12,0,0,12,266.3,1093)" />
<use xlink:href="#f0_1e" transform="matrix(12,0,0,12,279.5,1093)" />
<use xlink:href="#f0_11" transform="matrix(12,0,0,12,292.7,1093)" />
<use xlink:href="#f1_25" transform="matrix(12,0,0,12,309.9,1093)" />
<use xlink:href="#f1_2f" transform="matrix(12,0,0,12,314.7,1093)" />
<use xlink:href="#f0_20" transform="matrix(12,0,0,12,325.3,1093)" />
<use xlink:href="#f0_21" transform="matrix(12,0,0,12,335.6,1093)" />
<use xlink:href="#f0_2b" transform="matrix(12,0,0,12,343.7,1093)" />
<use xlink:href="#f0_2k" transform="matrix(12,0,0,12,353.2,1093)" />
<use xlink:href="#f0_2l" transform="matrix(12,0,0,12,362,1093)" />
<use xlink:href="#f0_2e" transform="matrix(12,0,0,12,371.5,1093)" />
<use xlink:href="#f0_25" transform="matrix(12,0,0,12,379.2,1093)" />
<use xlink:href="#f0_1y" transform="matrix(12,0,0,12,384.3,1093)" />
<use xlink:href="#f0_2b" transform="matrix(12,0,0,12,394.6,1093)" />
<use xlink:href="#f0_2f" transform="matrix(12,0,0,12,403.7,1093)" />
<use xlink:href="#f0_21" transform="matrix(12,0,0,12,411,1093)" />
<use xlink:href="#f1_1x" transform="matrix(12,0,0,12,422.9,1093)" />
<use xlink:href="#f1_2a" transform="matrix(12,0,0,12,431,1093)" />
<use xlink:href="#f1_20" transform="matrix(12,0,0,12,439.8,1093)" />
<use xlink:href="#f1_22" transform="matrix(12,0,0,12,453,1093)" />
<use xlink:href="#f1_2b" transform="matrix(12,0,0,12,458.5,1093)" />
<use xlink:href="#f1_2e" transform="matrix(12,0,0,12,468,1093)" />
<use xlink:href="#f0_1i" transform="matrix(12,0,0,12,477.9,1093)" />
<use xlink:href="#f0_1e" transform="matrix(12,0,0,12,491.1,1093)" />
<use xlink:href="#f0_11" transform="matrix(12,0,0,12,504.4,1093)" />
<use xlink:href="#f1_25" transform="matrix(12,0,0,12,521.6,1093)" />
<use xlink:href="#f1_2f" transform="matrix(12,0,0,12,526,1093)" />
<use xlink:href="#f0_2e" transform="matrix(12,0,0,12,537,1093)" />
<use xlink:href="#f0_25" transform="matrix(12,0,0,12,544.7,1093)" />
<use xlink:href="#f0_1y" transform="matrix(12,0,0,12,549.8,1093)" />
<use xlink:href="#f0_2b" transform="matrix(12,0,0,12,560.1,1093)" />
<use xlink:href="#f0_2f" transform="matrix(12,0,0,12,569.2,1093)" />
<use xlink:href="#f0_21" transform="matrix(12,0,0,12,576.2,1093)" />
<use xlink:href="#f1_i" transform="matrix(12,0,0,12,584.3,1093)" />
<use xlink:href="#f1_1e" transform="matrix(12,0,0,12,592.7,1093)" />
<use xlink:href="#f1_2h" transform="matrix(12,0,0,12,606,1093)" />
<use xlink:href="#f1_1z" transform="matrix(12,0,0,12,615.1,1093)" />
<use xlink:href="#f1_28" transform="matrix(12,0,0,12,623.5,1093)" />
<use xlink:href="#f1_21" transform="matrix(12,0,0,12,628.3,1093)" />
<use xlink:href="#f1_2b" transform="matrix(12,0,0,12,636.3,1093)" />
<use xlink:href="#f1_2g" transform="matrix(12,0,0,12,646,1093)" />
<use xlink:href="#f1_25" transform="matrix(12,0,0,12,651.4,1093)" />
<use xlink:href="#f1_20" transform="matrix(12,0,0,12,655.8,1093)" />
<use xlink:href="#f1_21" transform="matrix(12,0,0,12,665,1093)" />
<use xlink:href="#f1_2j" transform="matrix(12,0,0,12,676.7,1093)" />
<use xlink:href="#f1_25" transform="matrix(12,0,0,12,690.3,1093)" />
<use xlink:href="#f1_2g" transform="matrix(12,0,0,12,694.7,1093)" />
<use xlink:href="#f1_24" transform="matrix(12,0,0,12,700.2,1093)" />
<use xlink:href="#f1_2b" transform="matrix(12,0,0,12,709,1093)" />
<use xlink:href="#f1_2h" transform="matrix(12,0,0,12,718.5,1093)" />
<use xlink:href="#f1_2g" transform="matrix(12,0,0,12,727.7,1093)" />
<use xlink:href="#f1_2c" transform="matrix(12,0,0,12,736.8,1093)" />
<use xlink:href="#f1_24" transform="matrix(12,0,0,12,746,1093)" />
<use xlink:href="#f1_2b" transform="matrix(12,0,0,12,754.8,1093)" />
<use xlink:href="#f1_2f" transform="matrix(12,0,0,12,764.3,1093)" />
<use xlink:href="#f1_2c" transform="matrix(12,0,0,12,771.2,1093)" />
<use xlink:href="#f1_24" transform="matrix(12,0,0,12,780.4,1093)" />
<use xlink:href="#f1_1x" transform="matrix(12,0,0,12,789.2,1093)" />
<use xlink:href="#f1_2g" transform="matrix(12,0,0,12,797.6,1093)" />
<use xlink:href="#f1_21" transform="matrix(12,0,0,12,803.1,1093)" />
<use xlink:href="#f1_25" transform="matrix(12,0,0,12,814.8,1093)" />
<use xlink:href="#f1_2f" transform="matrix(12,0,0,12,819.2,1093)" />
<use xlink:href="#f1_27" transform="matrix(12,0,0,12,829.9,1093)" />
<use xlink:href="#f1_2a" transform="matrix(12,0,0,12,839.4,1093)" />
<use xlink:href="#f1_2b" transform="matrix(12,0,0,12,848.2,1093)" />
<use xlink:href="#f1_2j" transform="matrix(12,0,0,12,857.7,1093)" />
<use xlink:href="#f1_2a" transform="matrix(12,0,0,12,870.9,1093)" />
<use xlink:href="#f1_1x" transform="matrix(12,0,0,12,55,1124.9)" />
<use xlink:href="#f1_2f" transform="matrix(12,0,0,12,63.1,1124.9)" />
<use xlink:href="#f1_2a" transform="matrix(12,0,0,12,74.8,1124.9)" />
<use xlink:href="#f1_2h" transform="matrix(12,0,0,12,83.6,1124.9)" />
<use xlink:href="#f1_1z" transform="matrix(12,0,0,12,92.8,1124.9)" />
<use xlink:href="#f1_28" transform="matrix(12,0,0,12,101.2,1124.9)" />
<use xlink:href="#f1_21" transform="matrix(12,0,0,12,106,1124.9)" />
<use xlink:href="#f1_2b" transform="matrix(12,0,0,12,114,1124.9)" />
<use xlink:href="#f1_2f" transform="matrix(12,0,0,12,123.5,1124.9)" />
<use xlink:href="#f1_25" transform="matrix(12,0,0,12,130.9,1124.9)" />
<use xlink:href="#f1_20" transform="matrix(12,0,0,12,135.6,1124.9)" />
<use xlink:href="#f1_21" transform="matrix(12,0,0,12,144.8,1124.9)" />
<use xlink:href="#f1_i" transform="matrix(12,0,0,12,152.9,1124.9)" />
</g>
<image preserveAspectRatio="none" x="324" y="55" width="287" height="286" xlink:href="img/1.png" />
<image preserveAspectRatio="none" x="144" y="527" width="647" height="437" xlink:href="img/2.png" />
<g fill="#000000" >
<use xlink:href="#f2_o" transform="matrix(8,0,0,8,818.2,1187.9)" />
</g>
<defs>
<path d="M36,0V54L154,74V926L26,945v55H860V731H790L766,908c0,0,-36,5,-121,8c0,0,-84,2,-133,2H389V508H633l23,127h67V298H656L633,426H389V74L556,54V0Z" 
id="f0_16"
transform="scale(0.001,-0.001)" />

<path d="M34,0V49l76,18V634L38,652v49H325V67L402,49V0ZM217,831c0,0,-48,0,-81,33c0,0,-34,33,-34,82c0,0,0,48,34,81c0,0,34,33,81,33c0,0,48,0,81,-33c0,0,33,-33,33,-81c0,0,0,-47,-33,-81c0,0,-32,-34,-81,-34Z" 
id="f0_25"
transform="scale(0.001,-0.001)" />

<path d="M360,-256c0,0,108,0,167,35c0,0,59,35,59,98c0,0,0,70,-95,70H254c0,0,-65,-47,-65,-108c0,0,0,-47,46,-71c0,0,45,-24,125,-24Zm9,561c0,0,55,0,79,43c0,0,25,43,25,129c0,0,0,87,-24,127c0,0,-25,41,-80,41c0,0,-52,0,-75,-41c0,0,-24,-40,-24,-127c0,0,0,-86,23,-129c0,0,23,-43,76,-43Zm-9,-641c0,0,-153,0,-236,43c0,0,-84,44,-84,120c0,0,0,33,28,65c0,0,27,31,105,76c0,0,-44,17,-75,59c0,0,-31,43,-31,90L192,258c0,0,-133,56,-133,219c0,0,0,116,81,180c0,0,82,63,233,63c0,0,32,0,82,-6c0,0,51,-6,74,-13l168,83l26,-32L638,631c0,0,46,-57,46,-154c0,0,0,-119,-80,-182c0,0,-80,-64,-234,-64c0,0,-59,0,-114,9L238,183c0,0,1,-22,28,-41c0,0,26,-19,64,-19H493c0,0,256,0,256,-196c0,0,0,-81,-44,-139c0,0,-45,-59,-131,-92c0,0,-86,-32,-214,-32Z" 
id="f0_23"
transform="scale(0.001,-0.001)" />

<path d="M191,-20c0,0,-51,0,-88,34c0,0,-36,36,-36,88c0,0,0,52,36,88c0,0,36,36,88,36c0,0,51,0,88,-36c0,0,36,-36,36,-88c0,0,0,-51,-36,-87c0,0,-36,-35,-88,-35Z" 
id="f0_i"
transform="scale(0.001,-0.001)" />

<path d="M346,-14c0,0,-139,0,-276,29L61,258h69L169,96c0,0,29,-16,71,-26c0,0,43,-10,77,-10c0,0,172,0,172,230c0,0,0,120,-44,174c0,0,-44,53,-139,53c0,0,-53,0,-97,-19L186,488H111v512H633V834H194V571c0,0,91,21,164,21c0,0,178,0,264,-74c0,0,86,-73,86,-220c0,0,0,-151,-94,-232c0,0,-93,-80,-268,-80Z" 
id="f0_p"
transform="scale(0.001,-0.001)" />

<path d="M410,-14c0,0,-86,0,-175,14C235,0,145,14,81,38V307h66L181,146c0,0,31,-37,94,-62c0,0,64,-24,132,-24c0,0,214,0,214,177c0,0,0,55,-41,93c0,0,-41,38,-128,68c0,0,-128,42,-185,68c0,0,-56,27,-95,63c0,0,-38,36,-62,87c0,0,-23,51,-23,125c0,0,0,132,90,201c0,0,90,69,263,69c0,0,125,0,278,-32V741H651L618,878c0,0,-76,56,-178,56c0,0,-92,0,-141,-34c0,0,-49,-34,-49,-104c0,0,0,-50,41,-86c0,0,41,-35,128,-63c0,0,171,-56,235,-97c0,0,64,-41,97,-103c0,0,34,-61,34,-143c0,0,0,-318,-375,-318Z" 
id="f0_1j"
transform="scale(0.001,-0.001)" />

<path d="M327,-14c0,0,-101,0,-156,45c0,0,-55,45,-55,131V624H25v48l108,29l87,159H332V701H480V624H332V176c0,0,0,-49,20,-73c0,0,20,-25,53,-25c0,0,40,0,97,12V26c0,0,-22,-15,-76,-27c0,0,-55,-13,-99,-13Z" 
id="f0_2g"
transform="scale(0.001,-0.001)" />

<path d="M41,0V49l91,18V634L41,652v49H336l8,-145c0,0,80,89,144,128c0,0,64,40,117,40h40V468H604l-45,94c0,0,-47,0,-106,-21c0,0,-60,-20,-105,-48V67L460,49V0Z" 
id="f0_2e"
transform="scale(0.001,-0.001)" />

<path d="M287,-18c0,0,-194,0,-194,206V634L23,652v49H309V217c0,0,0,-63,26,-98c0,0,27,-35,76,-35c0,0,57,0,113,25V634l-64,18v49H740V67L809,49V0H536L526,61L475,35c0,0,-104,-53,-188,-53Z" 
id="f0_2h"
transform="scale(0.001,-0.001)" />

<path d="M425,-14c0,0,-187,0,-280,90c0,0,-93,90,-93,276c0,0,0,115,42,198c0,0,43,82,121,126c0,0,78,44,182,44c0,0,104,0,227,-26V486H571L539,609c0,0,-25,19,-50,26c0,0,-24,7,-65,7c0,0,-44,0,-79,-35c0,0,-36,-35,-56,-98c0,0,-20,-64,-20,-153c0,0,0,-150,47,-214c0,0,47,-64,148,-64c0,0,103,0,176,21V42C640,42,606,15,547,0c0,0,-59,-14,-122,-14Z" 
id="f0_1z"
transform="scale(0.001,-0.001)" />

<path d="M434,423c0,0,0,101,-7,142c0,0,-6,40,-22,60c0,0,-16,19,-45,19c0,0,-44,0,-66,-48c0,0,-22,-49,-22,-173ZM389,-14c0,0,-172,0,-254,89c0,0,-83,90,-83,279c0,0,0,184,79,274c0,0,79,91,238,91c0,0,142,0,206,-76c0,0,64,-76,64,-237V345H271V333c0,0,0,-111,18,-158c0,0,18,-47,58,-72c0,0,40,-25,110,-25c0,0,66,0,166,22V42C623,42,582,18,517,1c0,0,-66,-15,-128,-15Z" 
id="f0_21"
transform="scale(0.001,-0.001)" />

<path d="M379,60c0,0,59,0,84,64c0,0,24,65,24,231c0,0,0,164,-24,227c0,0,-24,63,-84,63c0,0,-57,0,-80,-60c0,0,-22,-61,-22,-230c0,0,0,-173,23,-234c0,0,22,-61,79,-61Zm-2,-74c0,0,-161,0,-240,91c0,0,-79,91,-79,277c0,0,0,186,80,276c0,0,81,90,245,90c0,0,167,0,245,-93c0,0,78,-93,78,-273c0,0,0,-188,-81,-278c0,0,-81,-90,-248,-90Z" 
id="f0_2b"
transform="scale(0.001,-0.001)" />

<path d="M41,0V49l76,18V624H11v51l106,29v75c0,0,0,144,73,220c0,0,73,77,210,77c0,0,74,0,124,-15V894H476l-22,81c0,0,-18,17,-47,17c0,0,-74,0,-74,-189V701H475V624H333V67L447,49V0Z" 
id="f0_22"
transform="scale(0.001,-0.001)" />

<path d="M41,0V49l69,18V634L41,652v49H313l11,-61l50,26c0,0,105,54,188,54c0,0,194,0,194,-207V67L827,49V0H478V49l63,18V484c0,0,0,63,-27,98c0,0,-26,35,-75,35c0,0,-57,0,-114,-25V67L389,49V0Z" 
id="f0_2a"
transform="scale(0.001,-0.001)" />

<path d="M30,0V49l76,18V992l-72,18v50H322V67L398,49V0Z" 
id="f0_28"
transform="scale(0.001,-0.001)" />

<path d="M416,68c0,0,60,0,124,32V628c0,0,-58,15,-118,15c0,0,-67,0,-104,-73c0,0,-38,-73,-38,-216c0,0,0,-139,36,-212c0,0,35,-74,100,-74ZM369,-14c0,0,-155,0,-231,88c0,0,-76,90,-76,274c0,0,0,182,82,277c0,0,81,95,236,95c0,0,82,0,165,-20c0,0,-5,24,-5,115V992l-72,18v50H756V67L833,49V0H562L547,40C547,40,505,13,483,4c0,0,-23,-7,-51,-12c0,0,-28,-6,-63,-6Z" 
id="f0_20"
transform="scale(0.001,-0.001)" />

<path d="M868,0L251,900V60L385,40V0H44V40L172,60V941L44,960v40H347L862,259V941L727,960v40h341V960L940,941V0Z" 
id="f1_1e"
transform="scale(0.001,-0.001)" />

<path d="M32,0V33L151,52V649L52,668v33H275V52L395,33V0ZM201,850c0,0,-32,0,-56,24c0,0,-24,24,-24,56c0,0,0,34,24,58c0,0,24,24,56,24c0,0,34,0,58,-24c0,0,24,-24,24,-58c0,0,0,-32,-24,-56c0,0,-24,-24,-58,-24Z" 
id="f1_25"
transform="scale(0.001,-0.001)" />

<path d="M249,-14c0,0,-71,0,-107,42c0,0,-35,42,-35,119V639H15v33l93,29l76,159h47V701H391V639H231V161c0,0,0,-48,22,-73c0,0,22,-24,57,-24c0,0,44,0,106,12V26C416,26,389,8,340,-2c0,0,-49,-12,-91,-12Z" 
id="f1_2g"
transform="scale(0.001,-0.001)" />

<path d="M31,0V33l88,19V649L31,668v33H235l7,-87c0,0,44,37,121,71c0,0,76,35,121,35h11V530H463l-43,82c0,0,-37,0,-88,-10c0,0,-52,-10,-89,-26V52L363,33V0Z" 
id="f1_2e"
transform="scale(0.001,-0.001)" />

<path d="M377,45c0,0,99,0,147,73c0,0,47,73,47,237c0,0,0,161,-47,233c0,0,-47,72,-147,72c0,0,-97,0,-141,-69c0,0,-44,-69,-44,-236c0,0,0,-169,45,-240c0,0,44,-70,140,-70Zm0,-59c0,0,-158,0,-238,94c0,0,-81,95,-81,274c0,0,0,178,81,272c0,0,80,94,244,94c0,0,160,0,241,-92c0,0,82,-92,82,-274c0,0,0,-368,-329,-368Z" 
id="f1_2b"
transform="scale(0.001,-0.001)" />

<path d="M359,-270c0,0,124,0,192,46c0,0,67,47,67,129c0,0,0,43,-26,67c0,0,-26,24,-79,24H242c0,0,-32,-27,-51,-69c0,0,-20,-41,-20,-77c0,0,0,-64,46,-92c0,0,46,-28,142,-28Zm11,561c0,0,81,0,115,47c0,0,34,47,34,141c0,0,0,100,-35,142c0,0,-35,42,-113,42c0,0,-78,0,-114,-43c0,0,-37,-42,-37,-141c0,0,0,-98,36,-143c0,0,36,-45,114,-45ZM359,-329c0,0,-143,0,-218,44c0,0,-75,43,-75,125c0,0,0,39,27,78c0,0,26,38,98,89c0,0,-43,14,-72,48c0,0,-29,35,-29,74L208,262c0,0,-118,55,-118,217c0,0,0,115,73,178c0,0,73,63,211,63c0,0,28,0,71,-6c0,0,44,-6,67,-13l165,83l26,-32L599,644c0,0,50,-56,50,-165c0,0,0,-120,-72,-182c0,0,-73,-62,-208,-62c0,0,-62,0,-114,11L208,148c0,0,2,-13,29,-24c0,0,27,-12,67,-12H512c0,0,113,0,168,-49c0,0,55,-49,55,-134c0,0,0,-79,-44,-137c0,0,-43,-58,-128,-90c0,0,-84,-31,-204,-31Z" 
id="f1_23"
transform="scale(0.001,-0.001)" />

<path d="M495,413c0,0,0,133,-34,190c0,0,-34,57,-105,57c0,0,-78,0,-119,-63c0,0,-42,-62,-42,-184ZM374,-14c0,0,-163,0,-239,87c0,0,-75,88,-75,283c0,0,0,183,77,273c0,0,76,91,219,91c0,0,269,0,269,-306V353H194V340c0,0,0,-103,23,-160c0,0,22,-57,70,-87c0,0,47,-29,124,-29c0,0,40,0,96,6c0,0,55,7,91,15V43C598,43,562,20,500,3c0,0,-61,-17,-126,-17Z" 
id="f1_21"
transform="scale(0.001,-0.001)" />

<path d="M439,0V33l93,19V500c0,0,0,62,-30,97c0,0,-31,36,-94,36c0,0,-67,0,-165,-22V52L338,33V0H35V33l84,19V649L35,668v33H235l7,-57c0,0,57,33,122,54c0,0,65,22,108,22c0,0,91,0,137,-53c0,0,47,-53,47,-154V52L741,33V0Z" 
id="f1_2a"
transform="scale(0.001,-0.001)" />

<path d="M289,-14c0,0,-179,0,-179,205V649L20,668v33H233V200c0,0,0,-128,120,-128c0,0,92,0,173,23V649L420,668v33H649V52L738,33V0H533l-6,57C527,57,474,28,405,7c0,0,-69,-21,-116,-21Z" 
id="f1_2h"
transform="scale(0.001,-0.001)" />

<path d="M278,-14c0,0,-52,0,-115,11c0,0,-63,10,-99,23V193H98L134,95c0,0,56,-50,146,-50c0,0,144,0,144,123c0,0,0,91,-114,130l-66,21c0,0,-75,25,-110,50c0,0,-34,26,-53,63c0,0,-18,36,-18,89c0,0,0,92,63,145c0,0,63,54,170,54c0,0,77,0,193,-23V544H454l-32,81c0,0,-39,35,-124,35c0,0,-61,0,-92,-30c0,0,-32,-30,-32,-80c0,0,0,-43,29,-72c0,0,28,-29,86,-48c0,0,110,-38,144,-55c0,0,33,-17,57,-42c0,0,23,-25,36,-57c0,0,13,-32,13,-79c0,0,0,-104,-66,-158c0,0,-66,-53,-195,-53Z" 
id="f1_2f"
transform="scale(0.001,-0.001)" />

<path d="M376,50c0,0,103,0,149,80c0,0,46,81,46,240c0,0,0,137,-47,204c0,0,-48,67,-148,67c0,0,-44,0,-87,-7c0,0,-44,-8,-63,-17V62c0,0,63,-12,150,-12Zm3,-64c0,0,-64,0,-141,14c0,0,-78,14,-136,37v971L0,1026v34H226V809c0,0,0,-40,-4,-148c0,0,74,59,188,59c0,0,143,0,219,-87c0,0,77,-87,77,-263c0,0,0,-189,-84,-287c0,0,-84,-97,-243,-97Z" 
id="f1_1y"
transform="scale(0.001,-0.001)" />

<path d="M284,67c0,0,51,0,88,12c0,0,37,12,74,30V358l-98,-3c0,0,-100,-4,-135,-39c0,0,-35,-35,-35,-117c0,0,0,-132,106,-132ZM233,-14c0,0,-179,0,-179,208c0,0,0,70,27,116c0,0,27,46,87,70c0,0,60,24,173,27l105,3V519c0,0,0,72,-26,107c0,0,-27,34,-82,34c0,0,-75,0,-137,-35L176,538H134V691c0,0,121,26,213,26c0,0,115,0,169,-47c0,0,54,-47,54,-144V52L657,33V0H465L451,70c0,0,-85,-84,-218,-84Z" 
id="f1_1x"
transform="scale(0.001,-0.001)" />

<path d="M442,0V33l93,19V504c0,0,0,129,-124,129c0,0,-70,0,-168,-22V52L338,33V0H31V33l88,19v956L15,1026v34H243V756c0,0,0,-77,-5,-112c0,0,54,31,122,53c0,0,68,23,115,23c0,0,91,0,137,-53c0,0,47,-53,47,-154V52L744,33V0Z" 
id="f1_24"
transform="scale(0.001,-0.001)" />

<path d="M399,-14c0,0,-341,0,-341,370c0,0,0,175,87,269c0,0,87,95,249,95c0,0,101,0,220,-23V501H573L541,625c0,0,-62,35,-149,35c0,0,-200,0,-200,-304c0,0,0,-158,61,-225c0,0,61,-67,189,-67c0,0,109,0,189,24V43C631,43,595,16,530,1c0,0,-64,-15,-131,-15Z" 
id="f1_1z"
transform="scale(0.001,-0.001)" />

<path d="M148,-329c0,0,-58,0,-114,13v151H69l24,-71c0,0,23,-17,64,-17c0,0,39,0,72,22c0,0,33,23,60,67c0,0,27,44,68,157L90,649L19,668v33H344V668L233,648L423,158L606,649L497,668v33H758V668L685,652L411,-43c0,0,-48,-124,-84,-177c0,0,-36,-54,-79,-82c0,0,-44,-27,-100,-27Z" 
id="f1_2l"
transform="scale(0.001,-0.001)" />

<path d="M31,0V33L150,52v956L31,1026v34H274V52L394,33V0Z" 
id="f1_28"
transform="scale(0.001,-0.001)" />

<path d="M58,-234v58c0,0,131,42,131,125c0,0,0,15,-11,27c0,0,-11,12,-38,25C140,1,89,27,89,75c0,0,0,40,25,61c0,0,26,21,65,21c0,0,48,0,77,-34c0,0,30,-34,30,-86c0,0,0,-101,-60,-170c0,0,-59,-69,-168,-101Z" 
id="f1_g"
transform="scale(0.001,-0.001)" />

<path d="M431,0V33L535,52V499c0,0,0,62,-32,96c0,0,-32,33,-95,33c0,0,-66,0,-163,-22V52L350,33V0H32V33l89,19V649L32,668v33H237l6,-57c0,0,56,32,119,54c0,0,62,22,110,22c0,0,52,0,95,-20c0,0,44,-19,66,-62c0,0,57,32,134,57c0,0,77,25,128,25c0,0,179,0,179,-207V52l90,-19V0H846V33L950,52V499c0,0,0,129,-119,129c0,0,-19,0,-45,-3c0,0,-26,-3,-52,-7c0,0,-25,-4,-49,-8c0,0,-23,-5,-39,-8c0,0,13,-41,13,-89V52L764,33V0Z" 
id="f1_29"
transform="scale(0.001,-0.001)" />

<path d="M191,-20c0,0,-39,0,-65,25c0,0,-25,27,-25,64c0,0,0,38,26,64c0,0,26,26,64,26c0,0,38,0,64,-26c0,0,26,-26,26,-64c0,0,0,-37,-25,-64c0,0,-26,-25,-65,-25Z" 
id="f1_i"
transform="scale(0.001,-0.001)" />

<path d="M235,0V40L394,60V936H356c0,0,-189,0,-258,-15L78,766H28v234H908V766H857L837,921c0,0,-22,5,-98,9c0,0,-75,4,-165,4H538V60L697,40V0Z" 
id="f1_1k"
transform="scale(0.001,-0.001)" />

<path d="M327,-14L84,649L1,668v33H335V668L219,648L385,174L554,632h63L786,171L944,649L830,668v33h267V668l-78,-16L784,-14H726L553,448L382,-14Z" 
id="f1_2j"
transform="scale(0.001,-0.001)" />

<path d="M382,45c0,0,188,0,188,314c0,0,0,143,-47,213c0,0,-46,69,-141,69c0,0,-87,0,-146,-24V58c0,0,67,-13,146,-13ZM25,-325v35l88,18V649L34,668v33H231l1,-41c0,0,31,27,84,43c0,0,53,17,107,17c0,0,134,0,208,-94c0,0,73,-93,73,-267c0,0,0,-178,-80,-276c0,0,-80,-97,-232,-97c0,0,-84,0,-160,16c0,0,4,-53,4,-84V-272l123,-18v-35Z" 
id="f1_2c"
transform="scale(0.001,-0.001)" />

<path d="M64,0V34L168,59V639H47v36l121,29v49c0,0,0,155,61,239c0,0,62,84,173,84c0,0,58,0,107,-15V908H472l-33,92c0,0,-26,16,-62,16c0,0,-47,0,-66,-42c0,0,-19,-42,-19,-157V701H478V639H292V59L443,34V0Z" 
id="f1_22"
transform="scale(0.001,-0.001)" />

<path d="M383,64c0,0,85,0,152,28V645c0,0,-67,13,-152,13c0,0,-194,0,-194,-314c0,0,0,-141,48,-211c0,0,48,-69,146,-69ZM342,-14c0,0,-287,0,-287,358c0,0,0,184,82,280c0,0,81,96,239,96c0,0,81,0,163,-18c0,0,-4,25,-4,124v182l-118,18v34H659V52L745,33V0H548l-9,52c0,0,-84,-66,-197,-66Z" 
id="f1_20"
transform="scale(0.001,-0.001)" />

<path d="M56,294V424H453V294Z" 
id="f0_h"
transform="scale(0.001,-0.001)" />

<path d="M438,65c0,0,131,0,131,293c0,0,0,279,-130,279c0,0,-69,0,-127,-29V80c0,0,60,-15,126,-15ZM20,-325v50l76,18V634L19,652v49H304l1,-36c0,0,80,55,194,55c0,0,146,0,218,-86c0,0,71,-86,71,-271c0,0,0,-183,-83,-280c0,0,-83,-97,-238,-97c0,0,-79,0,-160,19c0,0,5,-48,5,-109V-257l103,-18v-50Z" 
id="f0_2c"
transform="scale(0.001,-0.001)" />

<path d="M276,-14c0,0,-57,0,-125,13C151,-1,83,10,48,23V214H97l28,-98c0,0,26,-26,69,-44c0,0,42,-17,86,-17c0,0,65,0,97,28c0,0,32,28,32,71c0,0,0,41,-31,65c0,0,-30,25,-133,57c0,0,-108,34,-154,92c0,0,-45,58,-45,143c0,0,0,95,71,152c0,0,71,57,183,57c0,0,77,0,207,-22V518H457l-24,82c0,0,-21,22,-60,35c0,0,-40,14,-75,14c0,0,-53,0,-79,-22c0,0,-26,-22,-26,-59c0,0,0,-40,32,-65c0,0,32,-26,132,-55c0,0,109,-34,155,-89c0,0,45,-55,45,-137c0,0,0,-117,-72,-177c0,0,-72,-59,-209,-59Z" 
id="f0_2f"
transform="scale(0.001,-0.001)" />

<path d="M345,75c0,0,50,0,110,26V351l-63,-2c0,0,-72,-3,-100,-38c0,0,-28,-35,-28,-113c0,0,0,-63,22,-93c0,0,23,-30,59,-30ZM266,-14c0,0,-217,0,-217,208c0,0,0,79,32,126c0,0,32,48,93,71c0,0,60,22,190,25l91,2V521c0,0,0,126,-104,126c0,0,-62,0,-140,-39L183,521H134V691c0,0,112,17,165,21c0,0,53,5,108,5c0,0,264,0,264,-194V67L741,49V0H483L466,54C466,54,408,14,361,0c0,0,-47,-14,-95,-14Z" 
id="f0_1x"
transform="scale(0.001,-0.001)" />

<path d="M159,-329c0,0,-61,0,-123,14v180H81l32,-94c0,0,21,-17,55,-17c0,0,28,0,50,13c0,0,21,14,40,39c0,0,20,25,37,62c0,0,17,37,50,110L64,634L15,652v49H374V652L290,632L455,244L602,634l-82,18v49H749V652L698,637L421,-44c0,0,-47,-121,-83,-176c0,0,-36,-55,-80,-82c0,0,-43,-27,-99,-27Z" 
id="f0_2l"
transform="scale(0.001,-0.001)" />

<path d="M41,0V49l69,18V634L41,652v49H313l11,-61l50,26c0,0,105,54,188,54c0,0,125,0,167,-91c0,0,153,91,258,91c0,0,189,0,189,-207V67l71,-17V0H898V50l63,17V484c0,0,0,63,-24,98c0,0,-25,35,-74,35c0,0,-55,0,-119,-31c0,0,7,-32,7,-73V67L821,50V0H473V50l63,17V484c0,0,0,63,-25,98c0,0,-24,35,-73,35c0,0,-49,0,-113,-29V67L389,49V0Z" 
id="f0_29"
transform="scale(0.001,-0.001)" />

<path d="M394,460c0,0,126,0,186,57c0,0,60,57,60,187c0,0,0,123,-57,176c0,0,-58,53,-194,53H316V460ZM54,0V40L172,60V941L44,960v40H421c0,0,368,0,368,-295c0,0,0,-153,-93,-233c0,0,-93,-80,-267,-80H316V60L475,40V0Z" 
id="f1_1g"
transform="scale(0.001,-0.001)" />

<path d="M57,302V417H454V302Z" 
id="f1_h"
transform="scale(0.001,-0.001)" />

<path d="M404,60c0,0,54,0,75,59c0,0,21,59,21,177c0,0,0,106,-29,162c0,0,-29,57,-87,57c0,0,-55,0,-112,-17v-4c0,0,0,-434,132,-434Zm3,-74c0,0,-172,0,-263,130c0,0,-92,130,-92,378c0,0,0,161,48,278c0,0,48,117,135,178c0,0,87,61,199,61c0,0,117,0,225,-32V751H594L562,896c0,0,-52,39,-113,39c0,0,-75,0,-121,-95c0,0,-47,-96,-55,-267c0,0,81,35,161,35c0,0,137,0,211,-77c0,0,74,-77,74,-220c0,0,0,-158,-81,-242c0,0,-81,-83,-231,-83Z" 
id="f0_q"
transform="scale(0.001,-0.001)" />

<path d="M350,-14c0,0,-142,0,-253,31L89,228h49L172,87c0,0,32,-18,78,-29c0,0,46,-11,88,-11c0,0,118,0,173,56c0,0,56,55,56,187c0,0,0,93,-24,140c0,0,-24,47,-76,70c0,0,-52,22,-140,22c0,0,-68,0,-133,-18H122v496H630V886H189V567c0,0,81,18,173,18c0,0,173,0,258,-71c0,0,84,-71,84,-216c0,0,0,-151,-92,-232c0,0,-91,-80,-262,-80Z" 
id="f1_p"
transform="scale(0.001,-0.001)" />

<path d="M519,79c0,0,97,0,153,42c0,0,57,42,83,131c0,0,26,89,26,248c0,0,0,216,-79,317c0,0,-79,101,-257,101H389V85c0,0,72,-6,130,-6ZM533,-2L198,0H27V54L155,74V926L27,945v55H502c0,0,269,0,398,-122c0,0,129,-122,129,-372c0,0,0,-258,-123,-383C906,123,783,-2,533,-2Z" 
id="f0_14"
transform="scale(0.001,-0.001)" />

<path d="M868,0L251,804V74L385,54V0H29V54L157,74V926L29,945v55H371L862,361V926L727,945v55h356V945L955,926V0Z" 
id="f0_1e"
transform="scale(0.001,-0.001)" />

<path d="M639,416L478,858L313,416ZM647,0V54L762,74L667,333H283L191,74L319,54V0H15V54L90,74l355,935H662L1016,74l76,-20V0Z" 
id="f0_11"
transform="scale(0.001,-0.001)" />

<path d="M6,0V49L69,61L292,323L91,634L23,652v49H398V652L319,632L421,475L557,634l-71,18v49H725V652L663,637L466,406L689,65L756,49V0H381V49l79,17L337,254L175,65L245,49V0Z" 
id="f0_2k"
transform="scale(0.001,-0.001)" />

<path d="M424,64c0,0,74,0,109,71c0,0,36,72,36,236c0,0,0,137,-34,201c0,0,-34,65,-111,65c0,0,-29,0,-62,-7c0,0,-34,-6,-55,-19V76c0,0,47,-12,117,-12Zm21,-78c0,0,-121,0,-354,50V994l-72,18v48H307V802c0,0,0,-69,-8,-141c0,0,30,25,86,42c0,0,57,17,110,17c0,0,153,0,223,-84c0,0,70,-83,70,-266c0,0,0,-180,-90,-283C698,87,608,-14,445,-14Z" 
id="f0_1y"
transform="scale(0.001,-0.001)" />

<path d="M498,506c0,0,115,0,164,47c0,0,48,48,48,166c0,0,0,112,-46,156c0,0,-46,43,-169,43H390V506ZM793,0L514,423H390V74L518,54V0H36V54L154,74V926L26,945v55H504c0,0,221,0,330,-68c0,0,109,-68,109,-212c0,0,0,-215,-201,-276L1009,74L1117,54V0Z" 
id="f0_1i"
transform="scale(0.001,-0.001)" />

<path d="M477,0V33l64,19L348,354L257,254V52L331,33V0H44V33l89,19v956L29,1026v34H257V338L544,647l-73,20v34H718V667L631,650L431,446L688,50L764,33V0Z" 
id="f1_27"
transform="scale(0.001,-0.001)" />

<path d="M494,385V878L152,385ZM494,0V262H20V385l498,708H628V385H775V262H628V0Z" 
id="f2_o"
transform="scale(0.001,-0.001)" />


</defs>
</svg>