<?xml version="1.0" encoding="UTF-8" standalone="no"?>
<!DOCTYPE svg PUBLIC "-//W3C//DTD SVG 1.1//EN"
"http://www.w3.org/Graphics/SVG/1.1/DTD/svg11.dtd">
<svg viewBox="0 0 797 1155" version="1.1" xmlns="http://www.w3.org/2000/svg" xmlns:xlink="http://www.w3.org/1999/xlink">
<defs>
<style type="text/css"><![CDATA[
.g0_78{
fill: #FFFFFF;
}
]]></style>
</defs>
<path fill-rule="evenodd" d="M110,294.1H742.8V272.9H110v21.2Z" class="g0_78" />
<g fill="#000000" >
<use xlink:href="#f0_3d" transform="matrix(11,0,0,11,82.5,289.7)" />
<use xlink:href="#f1_2n" transform="matrix(11,0,0,11,110,289.7)" />
<use xlink:href="#f1_bf" transform="matrix(11,0,0,11,118.1,289.7)" />
<use xlink:href="#f1_9q" transform="matrix(11,0,0,11,123.9,289.7)" />
<use xlink:href="#f1_a8" transform="matrix(11,0,0,11,128,289.7)" />
<use xlink:href="#f1_bf" transform="matrix(11,0,0,11,132,289.7)" />
<use xlink:href="#f1_b1" transform="matrix(11,0,0,11,141.2,289.7)" />
<use xlink:href="#f1_am" transform="matrix(11,0,0,11,147,289.7)" />
<use xlink:href="#f1_am" transform="matrix(11,0,0,11,156.2,289.7)" />
<use xlink:href="#f1_bf" transform="matrix(11,0,0,11,165.3,289.7)" />
<use xlink:href="#f1_b5" transform="matrix(11,0,0,11,171.2,289.7)" />
<use xlink:href="#f1_ns" transform="matrix(11,0,0,11,177.8,289.7)" />
<use xlink:href="#f2_2n" transform="matrix(11,0,0,11,186,289.7)" />
<use xlink:href="#f2_c6" transform="matrix(11,0,0,11,193.7,289.7)" />
<use xlink:href="#f2_ay" transform="matrix(11,0,0,11,202.5,289.7)" />
<use xlink:href="#f2_ay" transform="matrix(11,0,0,11,211.3,289.7)" />
<use xlink:href="#f2_am" transform="matrix(11,0,0,11,220.1,289.7)" />
<use xlink:href="#f2_b1" transform="matrix(11,0,0,11,228.9,289.7)" />
<use xlink:href="#f2_bf" transform="matrix(11,0,0,11,235.1,289.7)" />
<use xlink:href="#f2_9q" transform="matrix(11,0,0,11,240.6,289.7)" />
<use xlink:href="#f2_af" transform="matrix(11,0,0,11,244.6,289.7)" />
<use xlink:href="#f2_9d" transform="matrix(11,0,0,11,253.4,289.7)" />
<use xlink:href="#f2_b1" transform="matrix(11,0,0,11,264.8,289.7)" />
<use xlink:href="#f2_am" transform="matrix(11,0,0,11,270.7,289.7)" />
<use xlink:href="#f2_am" transform="matrix(11,0,0,11,279.5,289.7)" />
<use xlink:href="#f2_bf" transform="matrix(11,0,0,11,288.3,289.7)" />
<use xlink:href="#f2_b5" transform="matrix(11,0,0,11,293.8,289.7)" />
<use xlink:href="#f2_bf" transform="matrix(11,0,0,11,304,289.7)" />
<use xlink:href="#f2_9n" transform="matrix(11,0,0,11,309.5,289.7)" />
<use xlink:href="#f2_77" transform="matrix(11,0,0,11,318.3,289.7)" />
<use xlink:href="#f2_bf" transform="matrix(11,0,0,11,326.7,289.7)" />
<use xlink:href="#f2_77" transform="matrix(11,0,0,11,335.9,289.7)" />
<use xlink:href="#f2_b1" transform="matrix(11,0,0,11,344,289.7)" />
<use xlink:href="#f2_9q" transform="matrix(11,0,0,11,349.9,289.7)" />
<use xlink:href="#f2_b5" transform="matrix(11,0,0,11,353.8,289.7)" />
<use xlink:href="#f2_7z" transform="matrix(11,0,0,11,360.4,289.7)" />
<use xlink:href="#f2_89" transform="matrix(11,0,0,11,372.2,289.7)" />
<use xlink:href="#f2_b1" transform="matrix(11,0,0,11,377.3,289.7)" />
<use xlink:href="#f2_am" transform="matrix(11,0,0,11,383.2,289.7)" />
<use xlink:href="#f2_ae" transform="matrix(11,0,0,11,392,289.7)" />
<use xlink:href="#f2_a8" transform="matrix(11,0,0,11,408.8,289.7)" />
<use xlink:href="#f2_am" transform="matrix(11,0,0,11,412.8,289.7)" />
<use xlink:href="#f2_ci" transform="matrix(11,0,0,11,421.6,289.7)" />
<use xlink:href="#f2_7z" transform="matrix(11,0,0,11,433.7,289.7)" />
<use xlink:href="#f2_b1" transform="matrix(11,0,0,11,442.1,289.7)" />
<use xlink:href="#f2_af" transform="matrix(11,0,0,11,451.3,289.7)" />
<use xlink:href="#f2_am" transform="matrix(11,0,0,11,460.1,289.7)" />
<use xlink:href="#f2_7v" transform="matrix(11,0,0,11,468.9,289.7)" />
<use xlink:href="#f2_7z" transform="matrix(11,0,0,11,478.1,289.7)" />
<use xlink:href="#f2_b5" transform="matrix(11,0,0,11,486.5,289.7)" />
<use xlink:href="#f2_am" transform="matrix(11,0,0,11,496.4,289.7)" />
<use xlink:href="#f2_89" transform="matrix(11,0,0,11,505.2,289.7)" />
<use xlink:href="#f2_bf" transform="matrix(11,0,0,11,514,289.7)" />
<use xlink:href="#f2_9n" transform="matrix(11,0,0,11,519.5,289.7)" />
<use xlink:href="#f2_7z" transform="matrix(11,0,0,11,528.3,289.7)" />
<use xlink:href="#f2_b5" transform="matrix(11,0,0,11,540,289.7)" />
<use xlink:href="#f2_bf" transform="matrix(11,0,0,11,547,289.7)" />
<use xlink:href="#f2_7z" transform="matrix(11,0,0,11,552.5,289.7)" />
<use xlink:href="#f2_ae" transform="matrix(11,0,0,11,560.9,289.7)" />
<use xlink:href="#f2_bf" transform="matrix(11,0,0,11,577.8,289.7)" />
<use xlink:href="#f2_9n" transform="matrix(11,0,0,11,583.3,289.7)" />
<use xlink:href="#f2_77" transform="matrix(11,0,0,11,592.1,289.7)" />
<use xlink:href="#f2_bf" transform="matrix(11,0,0,11,600.5,289.7)" />
<use xlink:href="#f2_77" transform="matrix(11,0,0,11,609.7,289.7)" />
<use xlink:href="#f2_b1" transform="matrix(11,0,0,11,617.7,289.7)" />
<use xlink:href="#f2_7z" transform="matrix(11,0,0,11,623.6,289.7)" />
<use xlink:href="#f2_c6" transform="matrix(11,0,0,11,635.3,289.7)" />
<use xlink:href="#f2_b5" transform="matrix(11,0,0,11,644.1,289.7)" />
<use xlink:href="#f2_7z" transform="matrix(11,0,0,11,650.7,289.7)" />
<use xlink:href="#f2_7v" transform="matrix(11,0,0,11,659.1,289.7)" />
<use xlink:href="#f2_bf" transform="matrix(11,0,0,11,671.6,289.7)" />
<use xlink:href="#f2_am" transform="matrix(11,0,0,11,677.1,289.7)" />
<use xlink:href="#f2_ay" transform="matrix(11,0,0,11,689.6,289.7)" />
<use xlink:href="#f2_b1" transform="matrix(11,0,0,11,698.4,289.7)" />
<use xlink:href="#f2_am" transform="matrix(11,0,0,11,704.3,289.7)" />
<use xlink:href="#f2_ch" transform="matrix(11,0,0,11,713,289.7)" />
<use xlink:href="#f2_9q" transform="matrix(11,0,0,11,720.7,289.7)" />
<use xlink:href="#f2_7v" transform="matrix(11,0,0,11,724.7,289.7)" />
<use xlink:href="#f2_7z" transform="matrix(11,0,0,11,733.6,289.7)" />
</g>
<path fill-rule="evenodd" d="M110,314.7H397.7V294.1H110v20.6Z" class="g0_78" />
<g fill="#000000" >
<use xlink:href="#f2_77" transform="matrix(11,0,0,11,110,310.3)" />
<use xlink:href="#f2_7v" transform="matrix(11,0,0,11,118.1,310.3)" />
<use xlink:href="#f2_7v" transform="matrix(11,0,0,11,126.9,310.3)" />
<use xlink:href="#f2_9q" transform="matrix(11,0,0,11,135.7,310.3)" />
<use xlink:href="#f2_bf" transform="matrix(11,0,0,11,139.7,310.3)" />
<use xlink:href="#f2_9q" transform="matrix(11,0,0,11,145.2,310.3)" />
<use xlink:href="#f2_am" transform="matrix(11,0,0,11,149.2,310.3)" />
<use xlink:href="#f2_af" transform="matrix(11,0,0,11,158,310.3)" />
<use xlink:href="#f2_77" transform="matrix(11,0,0,11,166.8,310.3)" />
<use xlink:href="#f2_a8" transform="matrix(11,0,0,11,174.9,310.3)" />
<use xlink:href="#f2_b5" transform="matrix(11,0,0,11,182.6,310.3)" />
<use xlink:href="#f2_c6" transform="matrix(11,0,0,11,189.2,310.3)" />
<use xlink:href="#f2_ay" transform="matrix(11,0,0,11,198,310.3)" />
<use xlink:href="#f2_ay" transform="matrix(11,0,0,11,206.8,310.3)" />
<use xlink:href="#f2_am" transform="matrix(11,0,0,11,215.6,310.3)" />
<use xlink:href="#f2_b1" transform="matrix(11,0,0,11,224.4,310.3)" />
<use xlink:href="#f2_bf" transform="matrix(11,0,0,11,230.3,310.3)" />
<use xlink:href="#f2_77" transform="matrix(11,0,0,11,239.4,310.3)" />
<use xlink:href="#f2_b5" transform="matrix(11,0,0,11,247.5,310.3)" />
<use xlink:href="#f2_9q" transform="matrix(11,0,0,11,257.8,310.3)" />
<use xlink:href="#f2_af" transform="matrix(11,0,0,11,261.8,310.3)" />
<use xlink:href="#f2_bf" transform="matrix(11,0,0,11,274.2,310.3)" />
<use xlink:href="#f2_9n" transform="matrix(11,0,0,11,279.7,310.3)" />
<use xlink:href="#f2_7z" transform="matrix(11,0,0,11,288.5,310.3)" />
<use xlink:href="#f2_7l" transform="matrix(11,0,0,11,301,310.3)" />
<use xlink:href="#f2_77" transform="matrix(11,0,0,11,308,310.3)" />
<use xlink:href="#f2_b5" transform="matrix(11,0,0,11,316,310.3)" />
<use xlink:href="#f2_7z" transform="matrix(11,0,0,11,322.6,310.3)" />
<use xlink:href="#f2_am" transform="matrix(11,0,0,11,334.7,310.3)" />
<use xlink:href="#f2_89" transform="matrix(11,0,0,11,343.5,310.3)" />
<use xlink:href="#f2_ae" transform="matrix(11,0,0,11,352.3,310.3)" />
<use xlink:href="#f2_77" transform="matrix(11,0,0,11,365.9,310.3)" />
<use xlink:href="#f2_9q" transform="matrix(11,0,0,11,373.9,310.3)" />
<use xlink:href="#f2_ct" transform="matrix(11,0,0,11,377.9,310.3)" />
<use xlink:href="#f2_7z" transform="matrix(11,0,0,11,384.5,310.3)" />
<use xlink:href="#f2_nt" transform="matrix(11,0,0,11,392.9,310.3)" />
</g>
<path fill-rule="evenodd" d="M110,650.3H742.8V628.7H110v21.6Z" class="g0_78" />
<g fill="#000000" >
<use xlink:href="#f0_3d" transform="matrix(11,0,0,11,82.5,645.5)" />
<use xlink:href="#f1_j" transform="matrix(11,0,0,11,110,645.5)" />
<use xlink:href="#f1_a8" transform="matrix(11,0,0,11,118.8,645.5)" />
<use xlink:href="#f1_9q" transform="matrix(11,0,0,11,122.9,645.5)" />
<use xlink:href="#f1_ae" transform="matrix(11,0,0,11,126.9,645.5)" />
<use xlink:href="#f1_7k" transform="matrix(11,0,0,11,140.5,645.5)" />
<use xlink:href="#f1_9q" transform="matrix(11,0,0,11,149.6,645.5)" />
<use xlink:href="#f1_af" transform="matrix(11,0,0,11,153.6,645.5)" />
<use xlink:href="#f1_9d" transform="matrix(11,0,0,11,162.8,645.5)" />
<use xlink:href="#f1_b1" transform="matrix(11,0,0,11,175.2,645.5)" />
<use xlink:href="#f1_am" transform="matrix(11,0,0,11,181.1,645.5)" />
<use xlink:href="#f1_am" transform="matrix(11,0,0,11,190.2,645.5)" />
<use xlink:href="#f1_bf" transform="matrix(11,0,0,11,199.4,645.5)" />
<use xlink:href="#f1_b5" transform="matrix(11,0,0,11,205.2,645.5)" />
<use xlink:href="#f1_ns" transform="matrix(11,0,0,11,211.8,645.5)" />
<use xlink:href="#f2_2j" transform="matrix(11,0,0,11,221.2,645.5)" />
<use xlink:href="#f2_am" transform="matrix(11,0,0,11,230.4,645.5)" />
<use xlink:href="#f2_am" transform="matrix(11,0,0,11,239.2,645.5)" />
<use xlink:href="#f2_bf" transform="matrix(11,0,0,11,248,645.5)" />
<use xlink:href="#f2_b5" transform="matrix(11,0,0,11,253.5,645.5)" />
<use xlink:href="#f2_77" transform="matrix(11,0,0,11,264.8,645.5)" />
<use xlink:href="#f2_b1" transform="matrix(11,0,0,11,272.9,645.5)" />
<use xlink:href="#f2_9q" transform="matrix(11,0,0,11,278.8,645.5)" />
<use xlink:href="#f2_b5" transform="matrix(11,0,0,11,282.8,645.5)" />
<use xlink:href="#f2_7z" transform="matrix(11,0,0,11,289.3,645.5)" />
<use xlink:href="#f2_89" transform="matrix(11,0,0,11,302.2,645.5)" />
<use xlink:href="#f2_b1" transform="matrix(11,0,0,11,307.3,645.5)" />
<use xlink:href="#f2_am" transform="matrix(11,0,0,11,313.2,645.5)" />
<use xlink:href="#f2_ae" transform="matrix(11,0,0,11,322,645.5)" />
<use xlink:href="#f2_af" transform="matrix(11,0,0,11,339.9,645.5)" />
<use xlink:href="#f2_am" transform="matrix(11,0,0,11,349,645.5)" />
<use xlink:href="#f2_7v" transform="matrix(11,0,0,11,358,645.5)" />
<use xlink:href="#f2_7z" transform="matrix(11,0,0,11,366.8,645.5)" />
<use xlink:href="#f2_b5" transform="matrix(11,0,0,11,375.2,645.5)" />
<use xlink:href="#f2_bf" transform="matrix(11,0,0,11,386.2,645.5)" />
<use xlink:href="#f2_9n" transform="matrix(11,0,0,11,391.7,645.5)" />
<use xlink:href="#f2_77" transform="matrix(11,0,0,11,400.5,645.5)" />
<use xlink:href="#f2_bf" transform="matrix(11,0,0,11,409,645.5)" />
<use xlink:href="#f2_9n" transform="matrix(11,0,0,11,419.2,645.5)" />
<use xlink:href="#f2_7z" transform="matrix(11,0,0,11,428,645.5)" />
<use xlink:href="#f2_a8" transform="matrix(11,0,0,11,436.4,645.5)" />
<use xlink:href="#f2_ay" transform="matrix(11,0,0,11,440.5,645.5)" />
<use xlink:href="#f2_ci" transform="matrix(11,0,0,11,453.7,645.5)" />
<use xlink:href="#f2_7z" transform="matrix(11,0,0,11,465.7,645.5)" />
<use xlink:href="#f2_77" transform="matrix(11,0,0,11,474.2,645.5)" />
<use xlink:href="#f2_a5" transform="matrix(11,0,0,11,482.2,645.5)" />
<use xlink:href="#f2_b5" transform="matrix(11,0,0,11,494.3,645.5)" />
<use xlink:href="#f2_bf" transform="matrix(11,0,0,11,500.9,645.5)" />
<use xlink:href="#f2_7z" transform="matrix(11,0,0,11,506.4,645.5)" />
<use xlink:href="#f2_ae" transform="matrix(11,0,0,11,514.8,645.5)" />
<use xlink:href="#f2_ae" transform="matrix(11,0,0,11,528.4,645.5)" />
<use xlink:href="#f2_7z" transform="matrix(11,0,0,11,541.9,645.5)" />
<use xlink:href="#f2_7v" transform="matrix(11,0,0,11,550.3,645.5)" />
<use xlink:href="#f2_ay" transform="matrix(11,0,0,11,563.6,645.5)" />
<use xlink:href="#f2_a8" transform="matrix(11,0,0,11,572.4,645.5)" />
<use xlink:href="#f2_77" transform="matrix(11,0,0,11,576.4,645.5)" />
<use xlink:href="#f2_af" transform="matrix(11,0,0,11,584.5,645.5)" />
<use xlink:href="#f2_bf" transform="matrix(11,0,0,11,593.2,645.5)" />
<use xlink:href="#f2_b5" transform="matrix(11,0,0,11,598.7,645.5)" />
<use xlink:href="#f2_9q" transform="matrix(11,0,0,11,609.7,645.5)" />
<use xlink:href="#f2_af" transform="matrix(11,0,0,11,613.7,645.5)" />
<use xlink:href="#f2_7l" transform="matrix(11,0,0,11,627.3,645.5)" />
<use xlink:href="#f2_a8" transform="matrix(11,0,0,11,634.3,645.5)" />
<use xlink:href="#f2_9q" transform="matrix(11,0,0,11,638.3,645.5)" />
<use xlink:href="#f2_ae" transform="matrix(11,0,0,11,642.3,645.5)" />
<use xlink:href="#f2_7k" transform="matrix(11,0,0,11,655.8,645.5)" />
<use xlink:href="#f2_9q" transform="matrix(11,0,0,11,664.6,645.5)" />
<use xlink:href="#f2_af" transform="matrix(11,0,0,11,668.7,645.5)" />
<use xlink:href="#f2_9d" transform="matrix(11,0,0,11,677.1,645.5)" />
<use xlink:href="#f2_c6" transform="matrix(11,0,0,11,689.5,645.5)" />
<use xlink:href="#f2_ay" transform="matrix(11,0,0,11,698.3,645.5)" />
<use xlink:href="#f2_ci" transform="matrix(11,0,0,11,711.5,645.5)" />
<use xlink:href="#f2_9q" transform="matrix(11,0,0,11,723.6,645.5)" />
<use xlink:href="#f2_bf" transform="matrix(11,0,0,11,727.6,645.5)" />
<use xlink:href="#f2_9n" transform="matrix(11,0,0,11,733.1,645.5)" />
</g>
<path fill-rule="evenodd" d="M110,670.8H422.2V650.3H110v20.5Z" class="g0_78" />
<g fill="#000000" >
<use xlink:href="#f2_9n" transform="matrix(11,0,0,11,110,666.4)" />
<use xlink:href="#f2_7z" transform="matrix(11,0,0,11,118.8,666.4)" />
<use xlink:href="#f2_a8" transform="matrix(11,0,0,11,127.2,666.4)" />
<use xlink:href="#f2_ay" transform="matrix(11,0,0,11,131.3,666.4)" />
<use xlink:href="#f2_am" transform="matrix(11,0,0,11,143.8,666.4)" />
<use xlink:href="#f2_89" transform="matrix(11,0,0,11,152.6,666.4)" />
<use xlink:href="#f2_b5" transform="matrix(11,0,0,11,161.4,666.4)" />
<use xlink:href="#f2_c6" transform="matrix(11,0,0,11,168,666.4)" />
<use xlink:href="#f2_ay" transform="matrix(11,0,0,11,176.8,666.4)" />
<use xlink:href="#f2_ay" transform="matrix(11,0,0,11,185.6,666.4)" />
<use xlink:href="#f2_am" transform="matrix(11,0,0,11,194.4,666.4)" />
<use xlink:href="#f2_b1" transform="matrix(11,0,0,11,203.2,666.4)" />
<use xlink:href="#f2_bf" transform="matrix(11,0,0,11,209.1,666.4)" />
<use xlink:href="#f2_77" transform="matrix(11,0,0,11,218.2,666.4)" />
<use xlink:href="#f2_b5" transform="matrix(11,0,0,11,226.3,666.4)" />
<use xlink:href="#f2_9q" transform="matrix(11,0,0,11,236.9,666.4)" />
<use xlink:href="#f2_af" transform="matrix(11,0,0,11,240.9,666.4)" />
<use xlink:href="#f2_bf" transform="matrix(11,0,0,11,253.4,666.4)" />
<use xlink:href="#f2_9n" transform="matrix(11,0,0,11,258.9,666.4)" />
<use xlink:href="#f2_7z" transform="matrix(11,0,0,11,267.7,666.4)" />
<use xlink:href="#f2_7l" transform="matrix(11,0,0,11,280.1,666.4)" />
<use xlink:href="#f2_77" transform="matrix(11,0,0,11,287.1,666.4)" />
<use xlink:href="#f2_b5" transform="matrix(11,0,0,11,295.1,666.4)" />
<use xlink:href="#f2_7z" transform="matrix(11,0,0,11,301.7,666.4)" />
<use xlink:href="#f2_am" transform="matrix(11,0,0,11,313.8,666.4)" />
<use xlink:href="#f2_89" transform="matrix(11,0,0,11,322.6,666.4)" />
<use xlink:href="#f2_ae" transform="matrix(11,0,0,11,331.4,666.4)" />
<use xlink:href="#f2_am" transform="matrix(11,0,0,11,345,666.4)" />
<use xlink:href="#f2_af" transform="matrix(11,0,0,11,353.8,666.4)" />
<use xlink:href="#f2_7z" transform="matrix(11,0,0,11,362.6,666.4)" />
<use xlink:href="#f2_co" transform="matrix(11,0,0,11,371.2,666.4)" />
<use xlink:href="#f2_ay" transform="matrix(11,0,0,11,382.6,666.4)" />
<use xlink:href="#f2_a8" transform="matrix(11,0,0,11,391.4,666.4)" />
<use xlink:href="#f2_77" transform="matrix(11,0,0,11,395.4,666.4)" />
<use xlink:href="#f2_af" transform="matrix(11,0,0,11,403.5,666.4)" />
<use xlink:href="#f2_bf" transform="matrix(11,0,0,11,412.3,666.4)" />
<use xlink:href="#f2_nt" transform="matrix(11,0,0,11,417.8,666.4)" />
</g>
<path fill-rule="evenodd" d="M110,882.5H549.9V860.8H110v21.7Z" class="g0_78" />
<g fill="#000000" >
<use xlink:href="#f0_3d" transform="matrix(11,0,0,11,82.5,877.7)" />
<use xlink:href="#f1_13" transform="matrix(11,0,0,11,110,877.7)" />
<use xlink:href="#f1_am" transform="matrix(11,0,0,11,117.8,877.7)" />
<use xlink:href="#f1_a8" transform="matrix(11,0,0,11,126.9,877.7)" />
<use xlink:href="#f1_9q" transform="matrix(11,0,0,11,130.9,877.7)" />
<use xlink:href="#f1_77" transform="matrix(11,0,0,11,134.9,877.7)" />
<use xlink:href="#f1_b1" transform="matrix(11,0,0,11,143.4,877.7)" />
<use xlink:href="#f1_b1" transform="matrix(11,0,0,11,152.9,877.7)" />
<use xlink:href="#f1_am" transform="matrix(11,0,0,11,158.8,877.7)" />
<use xlink:href="#f1_am" transform="matrix(11,0,0,11,167.9,877.7)" />
<use xlink:href="#f1_bf" transform="matrix(11,0,0,11,177,877.7)" />
<use xlink:href="#f1_b5" transform="matrix(11,0,0,11,182.9,877.7)" />
<use xlink:href="#f1_ns" transform="matrix(11,0,0,11,189.5,877.7)" />
<use xlink:href="#f2_2j" transform="matrix(11,0,0,11,198.1,877.7)" />
<use xlink:href="#f2_am" transform="matrix(11,0,0,11,207.2,877.7)" />
<use xlink:href="#f2_am" transform="matrix(11,0,0,11,216,877.7)" />
<use xlink:href="#f2_bf" transform="matrix(11,0,0,11,224.8,877.7)" />
<use xlink:href="#f2_b5" transform="matrix(11,0,0,11,230.3,877.7)" />
<use xlink:href="#f2_77" transform="matrix(11,0,0,11,240.6,877.7)" />
<use xlink:href="#f2_b1" transform="matrix(11,0,0,11,248.7,877.7)" />
<use xlink:href="#f2_9q" transform="matrix(11,0,0,11,254.6,877.7)" />
<use xlink:href="#f2_b5" transform="matrix(11,0,0,11,258.6,877.7)" />
<use xlink:href="#f2_9q" transform="matrix(11,0,0,11,265.2,877.7)" />
<use xlink:href="#f2_af" transform="matrix(11,0,0,11,269.2,877.7)" />
<use xlink:href="#f2_9d" transform="matrix(11,0,0,11,278,877.7)" />
<use xlink:href="#f2_89" transform="matrix(11,0,0,11,289.7,877.7)" />
<use xlink:href="#f2_b1" transform="matrix(11,0,0,11,294.8,877.7)" />
<use xlink:href="#f2_am" transform="matrix(11,0,0,11,300.7,877.7)" />
<use xlink:href="#f2_ae" transform="matrix(11,0,0,11,309.5,877.7)" />
<use xlink:href="#f2_a8" transform="matrix(11,0,0,11,326.7,877.7)" />
<use xlink:href="#f2_7z" transform="matrix(11,0,0,11,330.7,877.7)" />
<use xlink:href="#f2_77" transform="matrix(11,0,0,11,339.1,877.7)" />
<use xlink:href="#f2_ch" transform="matrix(11,0,0,11,347.2,877.7)" />
<use xlink:href="#f2_7z" transform="matrix(11,0,0,11,354.9,877.7)" />
<use xlink:href="#f2_b5" transform="matrix(11,0,0,11,363.3,877.7)" />
<use xlink:href="#f2_77" transform="matrix(11,0,0,11,373.6,877.7)" />
<use xlink:href="#f2_b5" transform="matrix(11,0,0,11,381.7,877.7)" />
<use xlink:href="#f2_9q" transform="matrix(11,0,0,11,391.9,877.7)" />
<use xlink:href="#f2_af" transform="matrix(11,0,0,11,395.9,877.7)" />
<use xlink:href="#f2_7l" transform="matrix(11,0,0,11,408.4,877.7)" />
<use xlink:href="#f2_77" transform="matrix(11,0,0,11,415.4,877.7)" />
<use xlink:href="#f2_b5" transform="matrix(11,0,0,11,423.4,877.7)" />
<use xlink:href="#f2_7z" transform="matrix(11,0,0,11,430,877.7)" />
<use xlink:href="#f2_am" transform="matrix(11,0,0,11,442.1,877.7)" />
<use xlink:href="#f2_89" transform="matrix(11,0,0,11,450.9,877.7)" />
<use xlink:href="#f3_i" transform="matrix(11,0,0,11,460,877.7)" />
<use xlink:href="#f3_b1" transform="matrix(11,0,0,11,469.2,877.7)" />
<use xlink:href="#f3_co" transform="matrix(11,0,0,11,475,877.7)" />
<use xlink:href="#f3_am" transform="matrix(11,0,0,11,482.3,877.7)" />
<use xlink:href="#f3_ay" transform="matrix(11,0,0,11,491.1,877.7)" />
<use xlink:href="#f3_9n" transform="matrix(11,0,0,11,499.9,877.7)" />
<use xlink:href="#f3_co" transform="matrix(11,0,0,11,508.3,877.7)" />
<use xlink:href="#f3_a8" transform="matrix(11,0,0,11,516,877.7)" />
<use xlink:href="#f3_a8" transform="matrix(11,0,0,11,519.7,877.7)" />
<use xlink:href="#f3_c6" transform="matrix(11,0,0,11,523.7,877.7)" />
<use xlink:href="#f3_ae" transform="matrix(11,0,0,11,532.5,877.7)" />
<use xlink:href="#f2_nt" transform="matrix(11,0,0,11,545.8,877.7)" />
</g>
<image preserveAspectRatio="none" x="49" y="55" width="687" height="218" xlink:href="img/1.png" />
<image preserveAspectRatio="none" x="327" y="315" width="198" height="314" xlink:href="img/2.png" />
<image preserveAspectRatio="none" x="303" y="671" width="247" height="189" xlink:href="img/3.png" />
<image preserveAspectRatio="none" x="298" y="882" width="257" height="212" xlink:href="img/4.png" />
<g fill="#000000" >
<use xlink:href="#f4_p" transform="matrix(8,0,0,8,680.7,1121.9)" />
</g>
<defs>
<path d="M273,157c0,0,-114,0,-193,80C80,237,0,317,0,431c0,0,0,112,80,192c0,0,79,80,193,80c0,0,113,0,192,-80c0,0,80,-80,80,-192c0,0,0,-114,-80,-194c0,0,-79,-80,-192,-80Z" 
id="f0_3d"
transform="scale(0.001,-0.001)" />

<path d="M320,-17c0,0,-50,0,-93,9c0,0,-43,8,-76,19c0,0,-32,11,-54,24C97,35,75,48,65,58c0,0,-10,9,-14,28c0,0,-4,18,-4,52c0,0,0,23,1,39c0,0,2,15,5,25c0,0,4,10,9,14c0,0,6,4,13,4c0,0,11,0,30,-12c0,0,19,-13,49,-28c0,0,30,-15,71,-27c0,0,42,-12,96,-12c0,0,36,0,64,8c0,0,29,9,49,25c0,0,19,15,30,38c0,0,10,23,10,52c0,0,0,33,-18,56c0,0,-18,24,-46,42c0,0,-29,18,-66,34c0,0,-36,16,-75,34c0,0,-39,18,-76,41c0,0,-36,23,-65,54c0,0,-29,32,-47,75c0,0,-17,44,-17,104c0,0,0,70,25,122c0,0,26,53,70,88c0,0,43,34,103,51c0,0,59,18,125,18c0,0,35,0,69,-6c0,0,34,-5,64,-14c0,0,30,-9,53,-20c0,0,23,-11,31,-18c0,0,7,-8,10,-13c0,0,3,-5,4,-14c0,0,2,-8,3,-21c0,0,1,-13,1,-33c0,0,0,-21,-1,-36c0,0,-1,-15,-4,-25c0,0,-3,-9,-7,-14c0,0,-5,-4,-14,-4c0,0,-8,0,-26,10c0,0,-18,10,-44,23c0,0,-26,12,-60,22c0,0,-34,10,-75,10c0,0,-32,0,-56,-8c0,0,-24,-8,-40,-21c0,0,-16,-14,-24,-34c0,0,-8,-19,-8,-41c0,0,0,-32,18,-56c0,0,17,-23,46,-42c0,0,30,-18,67,-34c0,0,38,-16,76,-34c0,0,39,-18,76,-41c0,0,38,-22,67,-54c0,0,29,-32,47,-75c0,0,18,-43,18,-101c0,0,0,-76,-29,-133c0,0,-28,-58,-77,-96C572,60,524,21,459,2c0,0,-65,-19,-139,-19Z" 
id="f1_2n"
transform="scale(0.001,-0.001)" />

<path d="M344,-14c0,0,-56,0,-97,14c0,0,-42,14,-69,43c0,0,-26,29,-39,74c0,0,-13,45,-13,106V563H47c0,0,-15,0,-22,18c0,0,-7,17,-7,58c0,0,0,22,1,37c0,0,2,15,6,24c0,0,4,8,9,12c0,0,6,4,13,4h79V864c0,0,0,8,4,14c0,0,4,6,15,10c0,0,11,4,29,6c0,0,19,2,46,2c0,0,27,0,46,-2c0,0,18,-2,28,-6c0,0,11,-4,15,-10c0,0,5,-6,5,-14V716H459c0,0,7,0,13,-4c0,0,6,-4,9,-12c0,0,4,-9,6,-24c0,0,2,-15,2,-37c0,0,0,-41,-8,-58c0,0,-7,-18,-21,-18H314V251c0,0,0,-54,17,-81c0,0,17,-27,61,-27c0,0,15,0,27,2c0,0,12,3,22,6c0,0,9,4,15,6c0,0,7,3,12,3c0,0,4,0,9,-3c0,0,4,-2,6,-10c0,0,2,-8,4,-21c0,0,2,-14,2,-35c0,0,0,-33,-4,-50c0,0,-4,-18,-11,-25c0,0,-7,-7,-20,-12c0,0,-13,-5,-31,-9c0,0,-17,-4,-38,-6c0,0,-20,-3,-41,-3Z" 
id="f1_bf"
transform="scale(0.001,-0.001)" />

<path d="M188,-4c0,0,-28,0,-46,2c0,0,-18,2,-28,5c0,0,-11,3,-16,9c0,0,-4,5,-4,13V689c0,0,0,8,4,13c0,0,5,6,16,10c0,0,10,4,28,6c0,0,18,3,46,3c0,0,27,0,45,-3c0,0,18,-2,29,-6c0,0,11,-4,15,-10c0,0,5,-5,5,-13V25c0,0,0,-8,-5,-13c0,0,-4,-6,-15,-9c0,0,-11,-3,-29,-5c0,0,-18,-2,-45,-2Zm-1,820c0,0,-63,0,-85,21c0,0,-22,21,-22,75c0,0,0,57,23,79c0,0,23,22,86,22c0,0,63,0,85,-21c0,0,22,-21,22,-76c0,0,0,-56,-23,-78c0,0,-23,-22,-86,-22Z" 
id="f1_9q"
transform="scale(0.001,-0.001)" />

<path d="M188,-4c0,0,-28,0,-46,2c0,0,-18,2,-28,5c0,0,-11,3,-16,9c0,0,-4,5,-4,13v981c0,0,0,8,4,14c0,0,5,6,16,10c0,0,10,4,28,6c0,0,18,2,46,2c0,0,27,0,45,-2c0,0,18,-2,29,-6c0,0,11,-4,15,-10c0,0,5,-6,5,-14V25c0,0,0,-8,-5,-13c0,0,-4,-6,-15,-9c0,0,-11,-3,-29,-5c0,0,-18,-2,-45,-2Z" 
id="f1_a8"
transform="scale(0.001,-0.001)" />

<path d="M188,-4c0,0,-28,0,-46,2c0,0,-18,2,-28,5c0,0,-11,3,-16,9c0,0,-4,5,-4,13V691c0,0,0,7,4,13c0,0,3,5,13,9c0,0,10,4,25,6c0,0,15,2,38,2c0,0,24,0,40,-2c0,0,15,-2,24,-6c0,0,9,-4,12,-9c0,0,4,-6,4,-13V608c0,0,26,37,49,61c0,0,23,25,44,39c0,0,21,14,42,20c0,0,21,5,42,5c0,0,10,0,21,-1c0,0,11,-1,23,-4c0,0,12,-2,21,-5c0,0,9,-4,13,-8c0,0,4,-3,6,-8c0,0,2,-4,3,-12c0,0,2,-8,2,-24c0,0,1,-15,1,-42c0,0,0,-27,-1,-44c0,0,-2,-17,-5,-27c0,0,-3,-10,-8,-13c0,0,-5,-4,-12,-4c0,0,-6,0,-13,3c0,0,-8,2,-17,5c0,0,-10,3,-21,6c0,0,-11,2,-24,2c0,0,-16,0,-32,-6c0,0,-15,-6,-32,-20c0,0,-17,-13,-35,-36c0,0,-19,-22,-39,-55V25c0,0,0,-8,-5,-13c0,0,-4,-6,-15,-9c0,0,-11,-3,-29,-5c0,0,-18,-2,-45,-2Z" 
id="f1_b1"
transform="scale(0.001,-0.001)" />

<path d="M409,132c0,0,42,0,73,15c0,0,32,16,52,45c0,0,20,29,29,70c0,0,10,42,10,95c0,0,0,49,-8,91c0,0,-8,41,-26,72c0,0,-19,30,-50,48c0,0,-30,17,-77,17c0,0,-42,0,-73,-16c0,0,-31,-15,-51,-44c0,0,-21,-30,-31,-71c0,0,-10,-42,-10,-95c0,0,0,-49,9,-91c0,0,8,-41,26,-72c0,0,18,-30,49,-47c0,0,32,-17,78,-17ZM402,-17c0,0,-89,0,-154,24c0,0,-66,25,-109,72c0,0,-43,47,-64,115c0,0,-21,69,-21,157c0,0,0,85,23,156c0,0,22,70,68,121c0,0,45,50,113,78c0,0,69,27,160,27c0,0,90,0,155,-24c0,0,66,-24,109,-71c0,0,43,-47,64,-116c0,0,21,-69,21,-157c0,0,0,-86,-23,-156c0,0,-22,-70,-68,-121C676,88,631,38,562,10c0,0,-68,-27,-160,-27Z" 
id="f1_am"
transform="scale(0.001,-0.001)" />

<path d="M275,-17c0,0,-37,0,-71,6c0,0,-34,6,-61,13c0,0,-27,9,-45,18c0,0,-18,9,-26,17c0,0,-8,8,-13,25c0,0,-4,17,-4,49c0,0,0,22,1,35c0,0,2,13,5,21c0,0,3,8,7,10c0,0,5,3,11,3c0,0,9,0,25,-9c0,0,16,-10,40,-21c0,0,24,-11,55,-21c0,0,32,-10,72,-10c0,0,26,0,46,5c0,0,19,6,34,15c0,0,14,10,22,25c0,0,7,15,7,34c0,0,0,23,-13,39c0,0,-14,16,-37,28c0,0,-23,11,-52,22c0,0,-28,10,-58,23c0,0,-31,13,-59,29c0,0,-29,17,-52,41c0,0,-23,23,-37,57c0,0,-13,34,-13,81c0,0,0,47,18,87c0,0,19,40,54,69c0,0,35,28,86,44c0,0,50,15,113,15c0,0,31,0,61,-4c0,0,29,-5,53,-11c0,0,24,-7,40,-15c0,0,17,-7,24,-13c0,0,7,-6,10,-11c0,0,3,-6,4,-14c0,0,2,-7,3,-19c0,0,1,-12,1,-29c0,0,0,-20,-1,-33c0,0,-1,-12,-4,-20c0,0,-2,-7,-7,-10c0,0,-4,-3,-10,-3c0,0,-7,0,-21,8c0,0,-14,8,-36,17c0,0,-21,9,-49,17c0,0,-28,7,-64,7c0,0,-25,0,-44,-5c0,0,-19,-5,-30,-15c0,0,-12,-9,-18,-22c0,0,-6,-14,-6,-28c0,0,0,-24,14,-39c0,0,14,-16,37,-28c0,0,23,-12,53,-22c0,0,29,-11,59,-23c0,0,31,-12,60,-29c0,0,30,-16,53,-40c0,0,23,-24,37,-57c0,0,14,-33,14,-79c0,0,0,-57,-21,-100c0,0,-21,-43,-60,-72c0,0,-39,-29,-92,-43c0,0,-53,-15,-115,-15Z" 
id="f1_b5"
transform="scale(0.001,-0.001)" />

<path d="M224,-9c0,0,-31,0,-51,6c0,0,-20,4,-32,18c0,0,-13,13,-17,34c0,0,-5,22,-5,53c0,0,0,31,5,53c0,0,4,22,17,36c0,0,12,13,32,19c0,0,20,5,51,5c0,0,30,0,50,-5c0,0,20,-6,33,-19c0,0,12,-14,17,-36c0,0,6,-22,6,-53c0,0,0,-31,-6,-53c0,0,-5,-21,-17,-34C307,15,294,1,274,-3c0,0,-20,-6,-50,-6Zm0,487c0,0,-31,0,-51,6c0,0,-20,5,-32,19c0,0,-13,13,-17,34c0,0,-5,21,-5,52c0,0,0,32,5,54c0,0,4,21,17,35c0,0,12,13,32,19c0,0,20,6,51,6c0,0,30,0,50,-6c0,0,20,-6,33,-19c0,0,12,-14,17,-35c0,0,6,-22,6,-54c0,0,0,-31,-6,-52c0,0,-5,-21,-17,-34c0,0,-13,-14,-33,-19c0,0,-20,-6,-50,-6Z" 
id="f1_ns"
transform="scale(0.001,-0.001)" />

<path d="M318,-13c0,0,-48,0,-90,8c0,0,-41,8,-73,19c0,0,-33,12,-55,25c0,0,-22,13,-30,22c0,0,-9,8,-13,22c0,0,-4,14,-4,37c0,0,0,17,1,27c0,0,2,11,5,18c0,0,3,7,7,9c0,0,5,3,11,3c0,0,10,0,29,-13c0,0,19,-12,49,-27c0,0,30,-15,72,-28c0,0,42,-13,97,-13c0,0,42,0,77,11c0,0,34,11,59,32c0,0,25,20,39,50c0,0,13,30,13,68c0,0,0,41,-19,70c0,0,-18,29,-49,51c0,0,-30,22,-70,41c0,0,-39,18,-80,37c0,0,-41,19,-80,42c0,0,-39,23,-69,54c0,0,-31,32,-50,74c0,0,-19,42,-19,101c0,0,0,60,22,108c0,0,22,47,61,79c0,0,40,32,94,49c0,0,54,17,116,17c0,0,32,0,65,-6c0,0,32,-5,61,-15c0,0,29,-9,51,-20c0,0,22,-12,30,-19c0,0,7,-7,9,-11c0,0,2,-4,4,-10c0,0,1,-7,2,-16c0,0,1,-9,1,-23c0,0,0,-13,-2,-24c0,0,-1,-10,-3,-17c0,0,-2,-8,-6,-11c0,0,-4,-3,-10,-3c0,0,-8,0,-25,10c0,0,-18,11,-43,24c0,0,-26,13,-60,23c0,0,-35,11,-78,11c0,0,-40,0,-70,-11c0,0,-30,-10,-49,-28c0,0,-20,-18,-29,-43c0,0,-10,-25,-10,-52c0,0,0,-40,18,-70c0,0,19,-29,50,-51c0,0,31,-22,71,-41c0,0,39,-19,80,-38c0,0,41,-19,81,-41c0,0,39,-23,70,-54c0,0,31,-31,50,-73c0,0,19,-42,19,-100c0,0,0,-68,-25,-121c0,0,-25,-53,-69,-89C552,61,508,24,448,5c0,0,-60,-18,-130,-18Z" 
id="f2_2n"
transform="scale(0.001,-0.001)" />

<path d="M351,-13c0,0,-67,0,-113,22c0,0,-46,22,-75,60c0,0,-28,39,-40,90c0,0,-13,51,-13,124V690c0,0,0,6,3,10c0,0,3,4,10,7c0,0,8,4,20,5c0,0,11,1,29,1c0,0,18,0,30,-1c0,0,12,-1,19,-5c0,0,7,-3,10,-7c0,0,3,-4,3,-10V299c0,0,0,-59,9,-94c0,0,8,-36,26,-61c0,0,18,-24,44,-38c0,0,27,-14,63,-14c0,0,46,0,92,33c0,0,46,32,98,95V690c0,0,0,6,2,10c0,0,3,4,10,7c0,0,8,4,19,5c0,0,12,1,30,1c0,0,18,0,30,-1c0,0,12,-1,19,-5c0,0,7,-3,10,-7c0,0,3,-4,3,-10V18c0,0,0,-6,-2,-10c0,0,-3,-4,-10,-7c0,0,-6,-2,-17,-3c0,0,-11,-2,-27,-2c0,0,-17,0,-28,2c0,0,-10,1,-17,3c0,0,-6,3,-8,7c0,0,-3,4,-3,10v89c0,0,-57,-63,-113,-92c0,0,-56,-28,-113,-28Z" 
id="f2_c6"
transform="scale(0.001,-0.001)" />

<path d="M429,92c0,0,47,0,80,22c0,0,33,23,54,60c0,0,20,38,30,84c0,0,10,46,10,93c0,0,0,52,-8,100c0,0,-8,48,-27,86c0,0,-19,37,-51,60c0,0,-32,22,-80,22c0,0,-24,0,-47,-7c0,0,-23,-7,-47,-23c0,0,-24,-15,-50,-40c0,0,-26,-25,-56,-62V220c0,0,51,-62,97,-95c0,0,45,-33,95,-33ZM176,-271c0,0,-18,0,-30,2c0,0,-12,1,-19,4c0,0,-7,3,-10,8c0,0,-3,4,-3,10V690c0,0,0,6,3,10c0,0,2,5,9,8c0,0,6,3,17,4c0,0,10,1,25,1c0,0,16,0,26,-1c0,0,10,-1,17,-4c0,0,6,-3,9,-7c0,0,3,-4,3,-11V601c0,0,30,31,59,54c0,0,28,23,57,39c0,0,28,15,59,23c0,0,30,8,63,8c0,0,74,0,125,-29c0,0,52,-28,84,-77c0,0,32,-50,47,-115c0,0,15,-65,15,-139c0,0,0,-88,-19,-158c0,0,-19,-70,-56,-119c0,0,-37,-49,-91,-75c0,0,-55,-26,-125,-26c0,0,-30,0,-55,6c0,0,-25,6,-50,18c0,0,-24,13,-48,32c0,0,-24,19,-51,46V-247c0,0,0,-6,-3,-10c0,0,-2,-5,-9,-8c0,0,-7,-3,-19,-4c0,0,-12,-2,-30,-2Z" 
id="f2_ay"
transform="scale(0.001,-0.001)" />

<path d="M401,90c0,0,54,0,93,19c0,0,40,20,65,55c0,0,26,35,37,84c0,0,12,48,12,106c0,0,0,55,-10,104c0,0,-10,48,-33,85c0,0,-23,36,-62,58c0,0,-40,21,-99,21c0,0,-54,0,-93,-20c0,0,-39,-19,-65,-54c0,0,-25,-36,-37,-85c0,0,-12,-48,-12,-106c0,0,0,-55,10,-103c0,0,10,-49,33,-85c0,0,24,-36,63,-58c0,0,39,-21,98,-21ZM395,-13c0,0,-82,0,-144,24c0,0,-61,25,-102,72c0,0,-41,47,-61,114c0,0,-21,67,-21,152c0,0,0,82,22,151c0,0,21,69,64,119c0,0,43,50,107,78c0,0,64,28,150,28c0,0,82,0,144,-25c0,0,61,-25,102,-72c0,0,41,-47,62,-114c0,0,20,-67,20,-151c0,0,0,-83,-21,-152c0,0,-22,-69,-65,-119C652,92,609,42,545,14c0,0,-65,-27,-150,-27Z" 
id="f2_am"
transform="scale(0.001,-0.001)" />

<path d="M176,-4c0,0,-18,0,-30,2c0,0,-12,1,-19,3c0,0,-7,3,-10,7c0,0,-3,4,-3,10V690c0,0,0,6,3,10c0,0,2,4,9,7c0,0,6,4,17,5c0,0,10,1,27,1c0,0,17,0,28,-1c0,0,10,-1,16,-5c0,0,6,-3,9,-7c0,0,3,-4,3,-10V592c0,0,27,41,51,66c0,0,25,26,46,41c0,0,22,14,43,20c0,0,21,6,43,6c0,0,10,0,22,-2c0,0,12,-1,26,-4c0,0,13,-3,24,-6c0,0,11,-4,15,-8c0,0,5,-4,6,-7c0,0,2,-3,3,-9c0,0,1,-5,1,-15c0,0,0,-10,0,-27c0,0,0,-16,0,-28c0,0,-1,-11,-3,-17c0,0,-2,-6,-6,-10c0,0,-3,-3,-9,-3c0,0,-6,0,-15,3c0,0,-8,4,-19,7c0,0,-11,3,-24,6c0,0,-14,3,-29,3c0,0,-19,0,-37,-7c0,0,-18,-8,-37,-25c0,0,-20,-18,-42,-46c0,0,-21,-29,-48,-70V18c0,0,0,-6,-3,-10c0,0,-2,-4,-9,-7c0,0,-7,-2,-19,-3c0,0,-12,-2,-30,-2Z" 
id="f2_b1"
transform="scale(0.001,-0.001)" />

<path d="M339,-13c0,0,-52,0,-90,13c0,0,-37,14,-61,42c0,0,-24,28,-34,71c0,0,-11,43,-11,101V607H49c0,0,-11,0,-18,12c0,0,-7,12,-7,39c0,0,0,14,2,24c0,0,2,10,5,16c0,0,3,7,8,9c0,0,5,3,11,3h93V870c0,0,0,5,2,9c0,0,3,5,10,8c0,0,7,4,19,5c0,0,12,2,30,2c0,0,19,0,31,-2c0,0,11,-1,18,-5c0,0,7,-3,10,-8c0,0,3,-4,3,-9V710H438c0,0,6,0,10,-3c0,0,5,-2,8,-9c0,0,4,-6,5,-16c0,0,1,-10,1,-24c0,0,0,-27,-6,-39c0,0,-7,-12,-18,-12H266V232c0,0,0,-69,20,-105c0,0,21,-35,74,-35c0,0,17,0,30,3c0,0,14,4,24,7c0,0,10,4,18,7c0,0,7,4,13,4c0,0,4,0,7,-2c0,0,4,-2,6,-7c0,0,2,-5,3,-14c0,0,1,-9,1,-23c0,0,0,-22,-2,-34c0,0,-3,-13,-9,-19c0,0,-6,-6,-18,-11c0,0,-12,-4,-28,-8c0,0,-15,-3,-32,-5c0,0,-17,-3,-34,-3Z" 
id="f2_bf"
transform="scale(0.001,-0.001)" />

<path d="M176,-4c0,0,-18,0,-30,2c0,0,-12,1,-19,3c0,0,-7,3,-10,7c0,0,-3,4,-3,10V690c0,0,0,5,3,9c0,0,3,5,10,8c0,0,7,3,19,4c0,0,12,2,30,2c0,0,18,0,30,-2c0,0,12,-1,19,-4c0,0,7,-3,9,-8c0,0,3,-4,3,-9V18c0,0,0,-6,-3,-10c0,0,-2,-4,-9,-7c0,0,-7,-2,-19,-3c0,0,-12,-2,-30,-2Zm-1,846c0,0,-43,0,-59,15c0,0,-16,15,-16,58c0,0,0,43,16,59c0,0,17,16,61,16c0,0,43,0,59,-16c0,0,16,-15,16,-58c0,0,0,-43,-16,-58c0,0,-17,-16,-61,-16Z" 
id="f2_9q"
transform="scale(0.001,-0.001)" />

<path d="M176,-4c0,0,-18,0,-30,2c0,0,-12,1,-19,3c0,0,-7,3,-10,7c0,0,-3,4,-3,10V690c0,0,0,6,3,10c0,0,2,4,9,7c0,0,6,4,17,5c0,0,10,1,27,1c0,0,17,0,28,-1c0,0,10,-1,16,-5c0,0,6,-3,9,-7c0,0,3,-4,3,-10V601c0,0,56,64,112,94c0,0,57,30,114,30c0,0,67,0,113,-23c0,0,46,-23,74,-61c0,0,29,-38,41,-89c0,0,12,-52,12,-123V18c0,0,0,-6,-3,-10c0,0,-3,-4,-9,-7c0,0,-7,-2,-19,-3c0,0,-12,-2,-30,-2c0,0,-19,0,-30,2c0,0,-12,1,-19,3c0,0,-7,3,-10,7c0,0,-3,4,-3,10V412c0,0,0,58,-9,93c0,0,-9,35,-26,61c0,0,-17,25,-44,38c0,0,-27,14,-63,14c0,0,-46,0,-93,-33c0,0,-46,-33,-97,-96V18c0,0,0,-6,-3,-10c0,0,-2,-4,-9,-7c0,0,-7,-2,-19,-3c0,0,-12,-2,-30,-2Z" 
id="f2_af"
transform="scale(0.001,-0.001)" />

<path d="M346,-177c0,0,56,0,94,11c0,0,37,11,60,28c0,0,24,18,34,41c0,0,10,23,10,49c0,0,0,43,-36,65c0,0,-35,23,-95,25L239,48c0,0,-24,-19,-39,-35c0,0,-15,-16,-24,-31c0,0,-9,-16,-12,-30c0,0,-4,-15,-4,-31c0,0,0,-48,49,-73c0,0,50,-25,137,-25Zm-6,512c0,0,36,0,63,12c0,0,27,12,44,32c0,0,18,21,26,48c0,0,9,27,9,56c0,0,0,69,-38,107c0,0,-37,39,-107,39c0,0,-35,0,-62,-12c0,0,-26,-12,-44,-33c0,0,-17,-21,-26,-48c0,0,-8,-28,-8,-58c0,0,0,-66,37,-104c0,0,38,-39,106,-39Zm0,-606c0,0,-81,0,-138,14c0,0,-57,14,-94,38c0,0,-36,24,-52,57c0,0,-17,33,-17,72c0,0,0,24,6,47c0,0,6,24,18,43c0,0,13,21,31,40c0,0,18,19,42,38c0,0,-36,19,-54,47c0,0,-17,28,-17,61c0,0,0,45,18,81c0,0,19,36,46,64c0,0,-23,28,-36,62c0,0,-14,35,-14,84c0,0,0,58,20,104c0,0,19,45,53,77c0,0,35,31,83,48c0,0,48,17,105,17c0,0,30,0,57,-4c0,0,26,-3,49,-9H649c0,0,13,0,19,-12c0,0,7,-13,7,-38c0,0,0,-26,-7,-37c0,0,-7,-12,-19,-12H553c0,0,26,-27,37,-60c0,0,10,-32,10,-68c0,0,0,-58,-18,-103c0,0,-19,-45,-54,-76c0,0,-34,-31,-82,-47c0,0,-48,-16,-106,-16c0,0,-41,0,-78,10c0,0,-37,11,-57,28c0,0,-14,-14,-22,-31c0,0,-9,-17,-9,-39c0,0,0,-27,24,-44c0,0,25,-17,65,-18l175,-8c0,0,50,-1,92,-14c0,0,41,-12,72,-35c0,0,31,-22,48,-55c0,0,17,-34,17,-76c0,0,0,-47,-20,-88c0,0,-19,-42,-59,-74c0,0,-40,-31,-102,-50c0,0,-61,-18,-146,-18Z" 
id="f2_9d"
transform="scale(0.001,-0.001)" />

<path d="M272,-13c0,0,-35,0,-68,6c0,0,-32,6,-58,13c0,0,-26,9,-44,18c0,0,-17,10,-26,17c0,0,-8,8,-12,21c0,0,-3,14,-3,37c0,0,0,14,1,24c0,0,2,9,4,15c0,0,2,6,6,9c0,0,4,3,10,3c0,0,8,0,24,-11c0,0,16,-10,39,-22c0,0,24,-12,56,-22c0,0,32,-10,74,-10c0,0,31,0,56,7c0,0,26,6,44,19c0,0,19,14,29,34c0,0,10,20,10,47c0,0,0,29,-14,48c0,0,-15,19,-39,34c0,0,-24,15,-53,27c0,0,-30,11,-62,24c0,0,-32,13,-62,29c0,0,-30,16,-54,39c0,0,-24,23,-38,55c0,0,-15,32,-15,77c0,0,0,40,16,76c0,0,15,36,45,63c0,0,31,28,77,44c0,0,46,17,107,17c0,0,27,0,54,-5c0,0,26,-5,48,-11c0,0,22,-7,37,-15c0,0,15,-8,23,-14c0,0,8,-6,11,-11c0,0,2,-4,3,-10c0,0,1,-5,2,-14c0,0,2,-8,2,-20c0,0,0,-12,-2,-22c0,0,-1,-9,-3,-15c0,0,-3,-6,-7,-8c0,0,-3,-3,-8,-3c0,0,-7,0,-19,8c0,0,-13,8,-33,18c0,0,-20,9,-47,17c0,0,-28,9,-63,9c0,0,-31,0,-55,-7c0,0,-24,-7,-39,-20c0,0,-15,-13,-23,-31c0,0,-8,-18,-8,-39c0,0,0,-29,15,-49c0,0,15,-20,39,-35c0,0,24,-15,54,-27c0,0,31,-11,62,-24c0,0,32,-13,63,-29c0,0,31,-15,55,-38c0,0,24,-22,38,-53c0,0,15,-32,15,-75c0,0,0,-51,-19,-92c0,0,-19,-40,-54,-68C463,42,428,15,379,1c0,0,-48,-14,-107,-14Z" 
id="f2_b5"
transform="scale(0.001,-0.001)" />

<path d="M176,-4c0,0,-18,0,-30,2c0,0,-12,1,-19,3c0,0,-7,3,-10,7c0,0,-3,4,-3,10v997c0,0,0,6,3,11c0,0,3,4,10,7c0,0,7,3,19,5c0,0,12,1,30,1c0,0,18,0,30,-1c0,0,12,-2,19,-5c0,0,7,-3,9,-7c0,0,3,-5,3,-10V614c0,0,53,56,107,83c0,0,54,28,108,28c0,0,67,0,113,-23c0,0,46,-23,74,-61c0,0,29,-38,41,-89c0,0,12,-52,12,-124V18c0,0,0,-6,-3,-10c0,0,-3,-4,-9,-7c0,0,-7,-2,-19,-3c0,0,-12,-2,-30,-2c0,0,-19,0,-30,2c0,0,-12,1,-19,3c0,0,-7,3,-10,7c0,0,-3,4,-3,10V412c0,0,0,58,-9,93c0,0,-9,35,-26,61c0,0,-17,25,-44,38c0,0,-27,14,-63,14c0,0,-46,0,-93,-33c0,0,-46,-33,-97,-96V18c0,0,0,-6,-3,-10c0,0,-2,-4,-9,-7c0,0,-7,-2,-19,-3c0,0,-12,-2,-30,-2Z" 
id="f2_9n"
transform="scale(0.001,-0.001)" />

<path d="M321,82c0,0,48,0,90,25c0,0,41,24,87,75V325H392c0,0,-50,0,-88,-9c0,0,-37,-9,-62,-25c0,0,-24,-17,-36,-41c0,0,-11,-23,-11,-54c0,0,0,-52,33,-83c0,0,33,-31,93,-31ZM301,-13c0,0,-53,0,-96,13c0,0,-43,14,-73,40c0,0,-30,26,-47,64c0,0,-17,38,-17,87c0,0,0,56,24,98c0,0,23,42,66,69c0,0,43,28,106,42c0,0,63,14,141,14h93v52c0,0,0,39,-9,69c0,0,-8,30,-26,50c0,0,-18,20,-47,30c0,0,-30,10,-72,10c0,0,-46,0,-82,-11c0,0,-36,-11,-63,-24c0,0,-27,-13,-46,-24c0,0,-18,-11,-27,-11c0,0,-6,0,-10,3c0,0,-5,3,-8,9c0,0,-3,6,-5,16c0,0,-1,9,-1,20c0,0,0,19,2,30c0,0,3,11,13,20c0,0,10,10,35,23c0,0,24,13,56,24c0,0,32,10,70,17c0,0,38,8,77,8c0,0,73,0,123,-17c0,0,51,-16,82,-48c0,0,32,-32,46,-79c0,0,14,-47,14,-110V18c0,0,0,-9,-6,-14c0,0,-6,-4,-16,-6c0,0,-11,-2,-31,-2c0,0,-19,0,-31,2c0,0,-12,2,-17,6c0,0,-5,5,-5,13V85c0,0,-44,-47,-98,-73c0,0,-54,-25,-115,-25Z" 
id="f2_77"
transform="scale(0.001,-0.001)" />

<path d="M564,420c0,0,2,98,-43,153c0,0,-46,56,-134,56c0,0,-46,0,-80,-18c0,0,-35,-17,-58,-45c0,0,-23,-29,-36,-67c0,0,-12,-37,-14,-79ZM405,-13c0,0,-83,0,-145,22c0,0,-62,24,-105,69c0,0,-42,46,-64,114c0,0,-22,69,-22,160c0,0,0,87,23,156c0,0,22,69,64,117c0,0,43,48,102,74c0,0,60,26,134,26c0,0,79,0,135,-26c0,0,55,-25,91,-68c0,0,36,-43,53,-101c0,0,16,-58,16,-123V384c0,0,0,-29,-14,-41c0,0,-15,-13,-33,-13H199c0,0,0,-56,11,-100c0,0,12,-45,38,-77c0,0,26,-33,68,-50c0,0,41,-17,102,-17c0,0,48,0,85,8c0,0,37,8,65,17c0,0,27,10,44,18c0,0,18,8,27,8c0,0,5,0,9,-3c0,0,4,-2,7,-8c0,0,2,-5,3,-14c0,0,1,-9,1,-23c0,0,0,-9,-1,-16c0,0,0,-8,-2,-13c0,0,-1,-6,-3,-10c0,0,-3,-5,-7,-9c0,0,-4,-4,-24,-13c0,0,-20,-10,-53,-18c0,0,-32,-9,-74,-16c0,0,-42,-7,-90,-7Z" 
id="f2_7z"
transform="scale(0.001,-0.001)" />

<path d="M209,-4c0,0,-18,0,-30,2c0,0,-12,1,-19,3c0,0,-7,3,-10,7c0,0,-3,4,-3,10V607H52c0,0,-12,0,-18,12c0,0,-6,12,-6,39c0,0,0,14,2,24c0,0,1,10,4,16c0,0,3,7,8,9c0,0,4,3,10,3h95v69c0,0,0,71,13,121c0,0,13,50,40,82c0,0,27,33,67,48c0,0,41,15,96,15c0,0,26,0,51,-5c0,0,25,-4,38,-10c0,0,13,-6,18,-10c0,0,4,-5,7,-12c0,0,3,-7,5,-17c0,0,1,-10,1,-24c0,0,0,-15,-2,-23c0,0,-1,-9,-3,-14c0,0,-2,-5,-5,-7c0,0,-3,-2,-8,-2c0,0,-5,0,-13,3c0,0,-7,4,-19,8c0,0,-11,4,-26,7c0,0,-15,4,-36,4c0,0,-27,0,-47,-9c0,0,-19,-9,-31,-28c0,0,-12,-19,-17,-50c0,0,-5,-30,-5,-73V710H421c0,0,6,0,10,-3c0,0,4,-2,7,-9c0,0,4,-6,6,-16c0,0,2,-10,2,-24c0,0,0,-27,-7,-39c0,0,-7,-12,-18,-12H271V18c0,0,0,-6,-3,-10c0,0,-3,-4,-11,-7c0,0,-7,-2,-19,-3c0,0,-12,-2,-29,-2Z" 
id="f2_89"
transform="scale(0.001,-0.001)" />

<path d="M176,-4c0,0,-18,0,-30,2c0,0,-12,1,-19,3c0,0,-7,3,-10,7c0,0,-3,4,-3,10V690c0,0,0,6,3,10c0,0,2,4,9,7c0,0,6,4,17,5c0,0,10,1,27,1c0,0,17,0,28,-1c0,0,10,-1,16,-5c0,0,6,-3,9,-7c0,0,3,-4,3,-10V601c0,0,56,64,110,94c0,0,53,30,108,30c0,0,42,0,75,-10c0,0,33,-10,58,-28c0,0,26,-17,44,-42c0,0,18,-24,30,-55c0,0,33,37,63,63c0,0,31,26,59,41c0,0,28,16,54,23c0,0,27,8,53,8c0,0,65,0,109,-23c0,0,44,-23,71,-61c0,0,28,-38,39,-89c0,0,12,-52,12,-108V18c0,0,0,-6,-3,-10c0,0,-3,-4,-10,-7c0,0,-7,-2,-19,-3c0,0,-12,-2,-29,-2c0,0,-19,0,-31,2c0,0,-12,1,-19,3c0,0,-7,3,-10,7c0,0,-3,4,-3,10V427c0,0,0,43,-8,78c0,0,-7,35,-23,61c0,0,-17,25,-42,38c0,0,-25,14,-60,14c0,0,-42,0,-85,-33c0,0,-43,-33,-94,-96V18c0,0,0,-6,-3,-10c0,0,-3,-4,-11,-7c0,0,-7,-2,-19,-3c0,0,-11,-2,-29,-2c0,0,-18,0,-30,2c0,0,-12,1,-19,3c0,0,-7,3,-10,7c0,0,-3,4,-3,10V427c0,0,0,43,-8,78c0,0,-8,35,-24,61c0,0,-17,25,-42,38c0,0,-25,14,-59,14c0,0,-43,0,-86,-33c0,0,-44,-33,-95,-96V18c0,0,0,-6,-3,-10c0,0,-2,-4,-9,-7c0,0,-7,-2,-19,-3c0,0,-12,-2,-30,-2Z" 
id="f2_ae"
transform="scale(0.001,-0.001)" />

<path d="M176,-4c0,0,-18,0,-30,2c0,0,-12,1,-19,3c0,0,-7,3,-10,7c0,0,-3,4,-3,10v997c0,0,0,6,3,11c0,0,3,4,10,7c0,0,7,3,19,5c0,0,12,1,30,1c0,0,18,0,30,-1c0,0,12,-2,19,-5c0,0,7,-3,9,-7c0,0,3,-5,3,-11V18c0,0,0,-6,-3,-10c0,0,-2,-4,-9,-7c0,0,-7,-2,-19,-3c0,0,-12,-2,-30,-2Z" 
id="f2_a8"
transform="scale(0.001,-0.001)" />

<path d="M324,-4c0,0,-23,0,-37,2c0,0,-15,1,-24,3c0,0,-9,3,-14,8c0,0,-4,6,-7,13L46,660c0,0,-4,11,-5,18c0,0,-2,8,-2,13c0,0,0,7,3,11c0,0,3,4,10,7c0,0,8,2,19,3c0,0,12,1,30,1c0,0,20,0,33,-1c0,0,13,-1,20,-4c0,0,6,-3,9,-8c0,0,3,-4,5,-11L330,136l2,-7l1,7L482,689c0,0,1,7,5,11c0,0,3,5,10,8c0,0,6,3,18,4c0,0,12,1,31,1c0,0,18,0,29,-1c0,0,12,-1,18,-4c0,0,7,-3,10,-7c0,0,3,-5,5,-11L768,136l1,-7l1,7L930,689c0,0,1,7,5,11c0,0,3,5,10,8c0,0,7,3,20,4c0,0,12,1,31,1c0,0,18,0,29,-1c0,0,11,-1,17,-4c0,0,6,-3,9,-6c0,0,3,-4,3,-11c0,0,0,-5,-2,-13c0,0,-1,-7,-5,-18L849,22c0,0,-2,-8,-7,-13c0,0,-5,-6,-13,-9c0,0,-9,-2,-24,-3c0,0,-15,-1,-37,-1c0,0,-23,0,-39,2c0,0,-15,1,-25,3c0,0,-9,3,-14,8c0,0,-4,6,-6,13L543,510l-2,6l-2,-6L409,22c0,0,-3,-8,-7,-13c0,0,-5,-6,-15,-9c0,0,-10,-2,-25,-3c0,0,-15,-1,-38,-1Z" 
id="f2_ci"
transform="scale(0.001,-0.001)" />

<path d="M366,92c0,0,25,0,48,7c0,0,22,6,46,22c0,0,24,16,50,41c0,0,26,24,56,61V492c0,0,-51,62,-97,94c0,0,-47,33,-98,33c0,0,-47,0,-79,-22c0,0,-33,-23,-54,-59c0,0,-20,-37,-30,-83c0,0,-9,-47,-9,-94c0,0,0,-51,8,-100c0,0,8,-48,27,-86c0,0,19,-38,52,-60c0,0,32,-23,80,-23ZM345,-13c0,0,-74,0,-127,28c0,0,-52,29,-84,78c0,0,-33,49,-48,115c0,0,-15,66,-15,139c0,0,0,86,19,156c0,0,19,70,55,119c0,0,37,50,91,76c0,0,54,27,125,27c0,0,59,0,108,-26c0,0,49,-26,97,-76v390c0,0,0,5,2,10c0,0,3,4,10,7c0,0,8,3,19,5c0,0,12,1,30,1c0,0,18,0,30,-1c0,0,12,-2,19,-5c0,0,7,-3,10,-7c0,0,3,-5,3,-10V18c0,0,0,-6,-2,-10c0,0,-3,-5,-9,-7c0,0,-7,-2,-17,-3c0,0,-10,-2,-25,-2c0,0,-16,0,-26,2c0,0,-11,1,-18,3c0,0,-6,2,-9,7c0,0,-3,4,-3,10v90c0,0,-53,-58,-110,-90c0,0,-58,-31,-125,-31Z" 
id="f2_7v"
transform="scale(0.001,-0.001)" />

<path d="M346,-4c0,0,-23,0,-38,2c0,0,-15,1,-24,3c0,0,-9,3,-15,8c0,0,-5,6,-8,13L33,660c0,0,-3,9,-5,15c0,0,-2,7,-2,11c0,0,0,3,0,5c0,0,0,6,3,11c0,0,3,4,10,7c0,0,7,2,18,3c0,0,12,1,29,1c0,0,22,0,35,-1c0,0,13,-1,20,-4c0,0,7,-3,10,-8c0,0,4,-4,7,-11L347,135l3,-9l2,9L540,689c0,0,1,7,5,11c0,0,3,5,11,8c0,0,7,3,19,4c0,0,12,1,32,1c0,0,18,0,29,-1c0,0,11,-1,17,-4c0,0,7,-3,9,-7c0,0,3,-4,3,-10c0,0,0,-3,-1,-6c0,0,0,-4,-1,-7c0,0,0,-4,-2,-8c0,0,-1,-5,-2,-10L430,22c0,0,-3,-8,-8,-13c0,0,-5,-6,-15,-9c0,0,-9,-2,-24,-3c0,0,-15,-1,-37,-1Z" 
id="f2_ch"
transform="scale(0.001,-0.001)" />

<path d="M367,-13c0,0,-73,0,-129,23c0,0,-56,24,-93,70c0,0,-38,46,-58,112c0,0,-20,67,-20,154c0,0,0,99,25,171c0,0,24,71,66,116c0,0,42,46,99,68c0,0,58,22,124,22c0,0,32,0,62,-6c0,0,31,-6,56,-16c0,0,25,-10,45,-22c0,0,20,-13,29,-22c0,0,9,-9,12,-14c0,0,3,-5,6,-13c0,0,2,-7,3,-16c0,0,0,-9,0,-22c0,0,0,-29,-6,-41c0,0,-7,-11,-17,-11c0,0,-11,0,-25,12c0,0,-15,12,-37,27c0,0,-23,15,-55,28c0,0,-31,12,-75,12c0,0,-88,0,-136,-68c0,0,-47,-68,-47,-198c0,0,0,-65,12,-114c0,0,12,-49,36,-81c0,0,24,-33,59,-49c0,0,35,-16,79,-16c0,0,43,0,75,13c0,0,32,14,56,30c0,0,23,16,39,29c0,0,16,13,25,13c0,0,5,0,9,-3c0,0,4,-3,7,-10c0,0,2,-7,3,-18c0,0,1,-11,1,-26c0,0,0,-12,0,-22c0,0,-1,-9,-3,-15c0,0,-2,-7,-4,-12c0,0,-3,-4,-12,-14c0,0,-10,-9,-32,-23c0,0,-22,-14,-50,-24C496,11,468,0,435,-6c0,0,-33,-7,-68,-7Z" 
id="f2_7l"
transform="scale(0.001,-0.001)" />

<path d="M102,0C102,0,87,0,77,10C77,10,66,21,66,45V71c0,0,0,10,2,18c0,0,1,9,4,17c0,0,3,8,9,17c0,0,5,10,12,22L390,606H102c0,0,-12,0,-19,13c0,0,-7,12,-7,39c0,0,0,14,2,24c0,0,1,10,5,16c0,0,3,7,8,9c0,0,5,3,11,3H487c0,0,9,0,15,-2c0,0,6,-3,11,-8c0,0,4,-5,7,-13c0,0,3,-8,3,-21V642c0,0,0,-10,-2,-19c0,0,-1,-9,-4,-18c0,0,-3,-8,-9,-18c0,0,-5,-10,-12,-22L201,104H516c0,0,6,0,11,-3c0,0,4,-3,8,-9c0,0,3,-6,5,-16c0,0,3,-10,3,-24c0,0,0,-14,-3,-24c0,0,-2,-10,-5,-16c0,0,-3,-7,-8,-9c0,0,-5,-3,-11,-3Z" 
id="f2_ct"
transform="scale(0.001,-0.001)" />

<path d="M192,-6c0,0,-45,0,-62,16c0,0,-18,18,-18,69c0,0,0,53,18,71c0,0,18,17,64,17c0,0,45,0,62,-17c0,0,17,-17,17,-69c0,0,0,-53,-18,-70c0,0,-17,-17,-63,-17Z" 
id="f2_nt"
transform="scale(0.001,-0.001)" />

<path d="M489,-15c0,0,-99,0,-179,30c0,0,-80,30,-136,91c0,0,-56,61,-85,152c0,0,-30,91,-30,212c0,0,0,123,32,218c0,0,33,96,92,161c0,0,59,65,142,98c0,0,82,34,181,34c0,0,40,0,78,-7c0,0,37,-7,69,-18c0,0,31,-11,57,-25c0,0,25,-14,35,-24c0,0,10,-10,14,-17c0,0,4,-7,6,-17c0,0,2,-11,3,-25c0,0,2,-14,2,-35c0,0,0,-22,-2,-38c0,0,-1,-15,-5,-25c0,0,-4,-10,-9,-14c0,0,-5,-5,-12,-5c0,0,-11,0,-28,13c0,0,-18,13,-45,29c0,0,-27,16,-65,29c0,0,-37,13,-89,13c0,0,-58,0,-103,-23c0,0,-45,-23,-77,-67c0,0,-31,-44,-48,-106c0,0,-16,-61,-16,-139c0,0,0,-85,17,-147c0,0,18,-62,50,-103c0,0,33,-40,79,-60c0,0,45,-19,103,-19c0,0,52,0,90,12c0,0,38,12,65,27c0,0,27,15,45,27c0,0,17,12,27,12c0,0,8,0,12,-3c0,0,4,-3,7,-12c0,0,3,-9,5,-25c0,0,1,-16,1,-43c0,0,0,-18,-1,-31c0,0,-1,-14,-3,-23c0,0,-2,-9,-6,-16c0,0,-4,-7,-12,-15c0,0,-8,-9,-32,-22c0,0,-23,-14,-57,-26C661,13,627,1,583,-6c0,0,-43,-9,-94,-9Z" 
id="f1_j"
transform="scale(0.001,-0.001)" />

<path d="M188,-4c0,0,-28,0,-46,2c0,0,-18,2,-28,5c0,0,-11,3,-16,9c0,0,-4,5,-4,13V691c0,0,0,7,4,13c0,0,3,5,13,9c0,0,10,4,25,6c0,0,15,2,38,2c0,0,24,0,40,-2c0,0,15,-2,24,-6c0,0,9,-4,12,-9c0,0,4,-6,4,-13V614c0,0,55,60,110,89c0,0,55,30,115,30c0,0,41,0,74,-8c0,0,33,-9,59,-25c0,0,26,-16,44,-38c0,0,19,-23,32,-50c0,0,30,32,58,55c0,0,29,23,57,38c0,0,28,14,56,21c0,0,28,7,57,7c0,0,66,0,112,-22c0,0,45,-22,73,-61c0,0,28,-38,40,-90c0,0,12,-51,12,-109V25c0,0,0,-8,-5,-13c0,0,-4,-6,-15,-9c0,0,-10,-3,-28,-5c0,0,-18,-2,-46,-2c0,0,-28,0,-46,2c0,0,-18,2,-29,5c0,0,-11,3,-15,9c0,0,-4,6,-4,13V420c0,0,0,34,-6,61c0,0,-7,28,-20,48c0,0,-13,19,-32,30c0,0,-20,11,-47,11c0,0,-34,0,-68,-26c0,0,-34,-26,-74,-76V25c0,0,0,-7,-5,-13c0,0,-4,-6,-15,-9c0,0,-11,-3,-29,-5c0,0,-18,-2,-45,-2c0,0,-27,0,-45,2c0,0,-18,2,-29,5c0,0,-11,3,-16,9c0,0,-4,6,-4,13V420c0,0,0,34,-6,61c0,0,-7,28,-19,48c0,0,-13,19,-33,30c0,0,-21,11,-48,11c0,0,-34,0,-68,-26c0,0,-35,-26,-74,-76V25c0,0,0,-7,-5,-13c0,0,-4,-6,-15,-9c0,0,-11,-3,-29,-5c0,0,-18,-2,-45,-2Z" 
id="f1_ae"
transform="scale(0.001,-0.001)" />

<path d="M433,142c0,0,37,0,62,18c0,0,26,19,42,49c0,0,17,30,25,68c0,0,7,38,7,76c0,0,0,43,-6,82c0,0,-7,40,-22,71c0,0,-16,30,-41,49c0,0,-25,18,-63,18c0,0,-19,0,-37,-5c0,0,-18,-5,-37,-18c0,0,-19,-13,-39,-33c0,0,-20,-20,-42,-50V246c0,0,39,-51,75,-78c0,0,37,-26,76,-26ZM477,-17c0,0,-33,0,-63,7c0,0,-29,6,-55,19c0,0,-27,14,-52,36c0,0,-26,22,-53,52V25c0,0,0,-8,-4,-14c0,0,-4,-5,-13,-9c0,0,-10,-3,-25,-4c0,0,-16,-2,-38,-2c0,0,-24,0,-39,2c0,0,-15,1,-24,4c0,0,-10,4,-13,9c0,0,-4,6,-4,14v981c0,0,0,8,4,14c0,0,5,6,16,10c0,0,10,4,28,6c0,0,18,2,46,2c0,0,27,0,45,-2c0,0,18,-2,29,-6c0,0,11,-4,15,-10c0,0,5,-6,5,-14V639c0,0,25,25,50,43c0,0,26,18,51,29c0,0,25,12,52,17c0,0,27,5,57,5c0,0,74,0,125,-29c0,0,52,-30,84,-80c0,0,33,-50,48,-116c0,0,15,-67,15,-141c0,0,0,-89,-20,-160c0,0,-19,-71,-56,-121C688,86,652,36,598,9c0,0,-53,-26,-121,-26Z" 
id="f1_7k"
transform="scale(0.001,-0.001)" />

<path d="M188,-4c0,0,-28,0,-46,2c0,0,-18,2,-28,5c0,0,-11,3,-16,9c0,0,-4,5,-4,13V691c0,0,0,7,4,13c0,0,3,5,13,9c0,0,10,4,25,6c0,0,15,2,38,2c0,0,24,0,40,-2c0,0,15,-2,24,-6c0,0,9,-4,12,-9c0,0,4,-6,4,-13V614c0,0,55,60,112,89c0,0,57,30,119,30c0,0,68,0,115,-22c0,0,47,-22,75,-61c0,0,29,-38,42,-90c0,0,12,-51,12,-124V25c0,0,0,-8,-4,-13c0,0,-5,-6,-15,-9c0,0,-10,-3,-29,-5c0,0,-18,-2,-45,-2c0,0,-28,0,-46,2c0,0,-18,2,-29,5c0,0,-10,3,-15,9c0,0,-4,6,-4,13V405c0,0,0,49,-7,76c0,0,-7,28,-21,48c0,0,-13,19,-35,30c0,0,-21,11,-49,11c0,0,-36,0,-72,-26c0,0,-37,-26,-76,-76V25c0,0,0,-7,-5,-13c0,0,-4,-6,-15,-9c0,0,-11,-3,-29,-5c0,0,-18,-2,-45,-2Z" 
id="f1_af"
transform="scale(0.001,-0.001)" />

<path d="M345,-143c0,0,43,0,72,9c0,0,29,8,47,23c0,0,18,14,25,31c0,0,8,18,8,37c0,0,0,33,-27,50c0,0,-27,18,-74,20L263,30C263,30,243,16,232,3c0,0,-12,-12,-19,-24c0,0,-7,-12,-9,-23c0,0,-3,-11,-3,-23c0,0,0,-37,38,-56c0,0,38,-20,106,-20Zm-4,517c0,0,28,0,49,9c0,0,21,9,35,25c0,0,14,16,21,36c0,0,7,21,7,43c0,0,0,54,-30,84c0,0,-30,29,-84,29c0,0,-28,0,-49,-9c0,0,-21,-9,-34,-25c0,0,-14,-16,-21,-38c0,0,-7,-21,-7,-44c0,0,0,-51,30,-80c0,0,30,-30,83,-30Zm-4,-645c0,0,-85,0,-145,14c0,0,-60,13,-98,37c0,0,-39,24,-56,57c0,0,-18,33,-18,73c0,0,0,24,6,47c0,0,7,22,19,42c0,0,12,20,30,39c0,0,18,18,41,35c0,0,-32,18,-49,47c0,0,-18,29,-18,64c0,0,0,44,20,80c0,0,21,36,53,65c0,0,-27,26,-42,63c0,0,-16,37,-16,91c0,0,0,58,21,104c0,0,20,46,57,78c0,0,36,32,87,49c0,0,51,16,112,16c0,0,31,0,60,-3c0,0,29,-4,53,-11H665c0,0,13,0,21,-17c0,0,8,-16,8,-55c0,0,0,-36,-8,-53c0,0,-9,-17,-21,-17H587c0,0,17,-18,24,-41c0,0,7,-22,7,-47c0,0,0,-58,-20,-103c0,0,-19,-45,-55,-76c0,0,-36,-31,-88,-47c0,0,-51,-17,-113,-17c0,0,-32,0,-61,8c0,0,-30,8,-45,19c0,0,-9,-10,-16,-23c0,0,-7,-14,-7,-30c0,0,0,-22,19,-36c0,0,19,-13,53,-15l162,-6c0,0,57,-2,101,-16c0,0,44,-14,75,-39c0,0,30,-24,46,-59c0,0,16,-35,16,-79c0,0,0,-49,-22,-93c0,0,-21,-44,-65,-76c0,0,-43,-32,-108,-50c0,0,-66,-19,-153,-19Z" 
id="f1_9d"
transform="scale(0.001,-0.001)" />

<path d="M382,534c0,0,51,0,88,12c0,0,37,12,61,35c0,0,25,22,36,51c0,0,12,30,12,65c0,0,0,57,-25,96c0,0,-26,40,-86,57c0,0,-18,5,-42,7c0,0,-23,2,-61,2H256V534ZM192,-4c0,0,-18,0,-31,2c0,0,-12,2,-19,3c0,0,-8,3,-11,8c0,0,-3,4,-3,10V913c0,0,0,29,15,40c0,0,16,12,33,12H381c0,0,37,0,61,-2c0,0,24,-2,44,-4c0,0,56,-10,98,-30c0,0,43,-21,73,-53c0,0,29,-33,43,-74c0,0,15,-41,15,-91c0,0,0,-49,-13,-87c0,0,-13,-39,-38,-68c0,0,-25,-30,-59,-51c0,0,-34,-22,-77,-37c0,0,24,-10,43,-26c0,0,20,-16,37,-39c0,0,16,-22,31,-51c0,0,15,-29,30,-66L756,73c0,0,10,-26,13,-37c0,0,3,-11,3,-17c0,0,0,-6,-2,-10c0,0,-2,-5,-10,-8c0,0,-7,-2,-21,-3c0,0,-13,-2,-36,-2c0,0,-19,0,-31,2c0,0,-13,1,-20,3c0,0,-7,4,-12,10c0,0,-4,6,-7,15L545,253c0,0,-16,39,-33,72c0,0,-17,32,-40,56c0,0,-23,23,-54,36c0,0,-32,13,-76,13H256V19c0,0,0,-6,-3,-10c0,0,-3,-5,-10,-8c0,0,-7,-1,-20,-3c0,0,-12,-2,-31,-2Z" 
id="f2_2j"
transform="scale(0.001,-0.001)" />

<path d="M176,-4c0,0,-18,0,-30,2c0,0,-12,1,-19,3c0,0,-7,3,-10,7c0,0,-3,4,-3,10v997c0,0,0,6,3,11c0,0,3,4,10,7c0,0,7,3,19,5c0,0,12,1,30,1c0,0,18,0,30,-1c0,0,12,-2,19,-5c0,0,7,-3,9,-7c0,0,3,-5,3,-11V408L492,687c0,0,6,7,12,12c0,0,7,5,16,8c0,0,10,4,22,5c0,0,13,1,31,1c0,0,19,0,31,-1c0,0,13,-1,21,-4c0,0,8,-3,11,-7c0,0,3,-4,3,-11c0,0,0,-9,-4,-18c0,0,-5,-8,-16,-20L375,408L648,54c0,0,10,-13,14,-20c0,0,4,-8,4,-15c0,0,0,-6,-3,-10c0,0,-3,-5,-10,-8c0,0,-7,-2,-20,-3c0,0,-13,-2,-32,-2c0,0,-20,0,-33,1c0,0,-13,1,-22,3c0,0,-9,3,-15,7c0,0,-5,5,-10,12L237,391V18c0,0,0,-6,-3,-10c0,0,-2,-4,-9,-7c0,0,-7,-2,-19,-3c0,0,-12,-2,-30,-2Z" 
id="f2_a5"
transform="scale(0.001,-0.001)" />

<path d="M431,92c0,0,46,0,79,22c0,0,33,23,53,60c0,0,21,37,30,83c0,0,10,46,10,93c0,0,0,51,-8,100c0,0,-8,49,-28,86c0,0,-19,37,-51,60c0,0,-32,23,-80,23c0,0,-24,0,-47,-7c0,0,-23,-7,-47,-22c0,0,-24,-16,-50,-41c0,0,-25,-24,-55,-62V219c0,0,51,-62,98,-95c0,0,46,-32,96,-32ZM443,-13c0,0,-32,0,-59,7c0,0,-27,6,-53,19c0,0,-26,14,-52,36c0,0,-27,22,-56,52V18c0,0,0,-6,-3,-10c0,0,-3,-5,-9,-7c0,0,-7,-2,-17,-3c0,0,-10,-2,-26,-2c0,0,-15,0,-25,2c0,0,-11,1,-17,3c0,0,-7,2,-9,7c0,0,-3,4,-3,10v997c0,0,0,6,3,11c0,0,3,4,10,7c0,0,7,3,19,5c0,0,12,1,30,1c0,0,18,0,30,-1c0,0,12,-2,19,-5c0,0,7,-3,9,-7c0,0,3,-5,3,-10V614c0,0,30,31,58,52c0,0,28,20,55,34c0,0,27,13,54,19c0,0,27,6,57,6c0,0,73,0,125,-30c0,0,52,-29,84,-78c0,0,32,-48,47,-114c0,0,15,-66,15,-139c0,0,0,-87,-19,-157c0,0,-19,-70,-56,-119c0,0,-37,-49,-90,-76c0,0,-54,-25,-124,-25Z" 
id="f2_7k"
transform="scale(0.001,-0.001)" />

<path d="M252,-271c0,0,-19,0,-31,2c0,0,-12,2,-18,6c0,0,-7,5,-8,12c0,0,0,8,4,18L292,0c0,0,-7,3,-13,10c0,0,-6,6,-8,14L31,665c0,0,-6,16,-6,25c0,0,0,9,6,14c0,0,6,5,20,7c0,0,13,2,36,2c0,0,22,0,35,-1c0,0,12,-1,20,-4c0,0,7,-3,11,-9c0,0,3,-6,7,-15L351,145h3L539,687c0,0,4,14,10,18c0,0,7,4,19,6c0,0,13,2,37,2c0,0,21,0,34,-2c0,0,14,-2,20,-7c0,0,6,-5,6,-14c0,0,0,-9,-4,-23L420,0L330,-246c0,0,-4,-12,-22,-18c0,0,-19,-7,-56,-7Z" 
id="f2_co"
transform="scale(0.001,-0.001)" />

<path d="M204,-4c0,0,-28,0,-47,2c0,0,-19,2,-31,6c0,0,-11,4,-16,10c0,0,-4,6,-4,14V903c0,0,0,33,16,48c0,0,17,14,42,14H618c0,0,7,0,12,-4c0,0,5,-4,9,-13c0,0,5,-10,6,-25c0,0,2,-16,2,-38c0,0,0,-23,-2,-38c0,0,-1,-15,-6,-24c0,0,-4,-9,-9,-14c0,0,-5,-4,-12,-4H302V545H599c0,0,6,0,12,-4c0,0,5,-4,9,-13c0,0,4,-9,6,-24c0,0,2,-15,2,-37c0,0,0,-22,-2,-37c0,0,-2,-15,-6,-25c0,0,-4,-10,-9,-14c0,0,-6,-4,-12,-4H302V28c0,0,0,-8,-4,-14c0,0,-5,-6,-16,-10c0,0,-12,-4,-30,-6c0,0,-19,-2,-48,-2Z" 
id="f1_13"
transform="scale(0.001,-0.001)" />

<path d="M337,115c0,0,39,0,73,21c0,0,33,20,67,59V308H405c0,0,-45,0,-77,-7c0,0,-32,-6,-53,-20c0,0,-20,-13,-29,-32c0,0,-9,-19,-9,-44c0,0,0,-42,26,-66c0,0,27,-24,74,-24ZM296,-17c0,0,-53,0,-98,14c0,0,-44,13,-77,40c0,0,-32,28,-50,68c0,0,-18,40,-18,94c0,0,0,58,23,101c0,0,22,43,68,71c0,0,45,28,112,42c0,0,67,13,156,13h65v40c0,0,0,32,-6,55c0,0,-7,24,-21,39c0,0,-15,16,-39,23c0,0,-24,8,-60,8c0,0,-47,0,-84,-11c0,0,-37,-10,-66,-23c0,0,-28,-13,-47,-23c0,0,-19,-11,-31,-11c0,0,-9,0,-15,5c0,0,-6,6,-10,15c0,0,-5,10,-7,24c0,0,-2,14,-2,31c0,0,0,23,4,37c0,0,3,13,14,24c0,0,10,11,36,24c0,0,27,13,62,25c0,0,35,11,76,18c0,0,42,7,86,7c0,0,78,0,134,-15c0,0,55,-15,91,-47c0,0,36,-32,53,-82c0,0,16,-50,16,-118V23c0,0,0,-11,-7,-17c0,0,-8,-6,-24,-7c0,0,-16,-3,-47,-3c0,0,-34,0,-49,3c0,0,-15,1,-21,7c0,0,-7,6,-7,17V76C506,76,465,32,412,7c0,0,-52,-24,-116,-24Z" 
id="f1_77"
transform="scale(0.001,-0.001)" />

<path d="M386,106c0,0,61,0,103,17c0,0,43,18,71,46c0,0,28,29,43,67c0,0,15,38,15,80c0,0,0,62,-44,96c0,0,-44,34,-136,34H274L207,106Zm55,443c0,0,59,0,97,19c0,0,38,19,62,49c0,0,24,31,36,67c0,0,11,36,11,70c0,0,0,25,-8,44c0,0,-8,19,-26,33c0,0,-19,14,-47,22c0,0,-28,7,-73,7H357L295,549ZM112,0C112,0,87,0,75,12c0,0,-12,13,-6,40L241,913c0,0,5,29,23,41c0,0,19,11,39,11H511c0,0,74,0,124,-12c0,0,50,-13,83,-36c0,0,33,-24,50,-59c0,0,16,-35,16,-81c0,0,0,-45,-12,-86c0,0,-12,-41,-35,-75c0,0,-23,-34,-55,-60c0,0,-33,-26,-74,-43c0,0,31,-6,58,-22c0,0,28,-16,47,-39c0,0,19,-24,30,-56c0,0,11,-32,11,-71c0,0,0,-39,-11,-79c0,0,-10,-40,-31,-76c0,0,-21,-36,-53,-67c0,0,-32,-31,-74,-55c0,0,-43,-23,-95,-35C490,13,437,0,368,0Z" 
id="f3_i"
transform="scale(0.001,-0.001)" />

<path d="M105,-4c0,0,-18,0,-30,2c0,0,-11,1,-18,3c0,0,-6,3,-8,7c0,0,-2,4,0,10L182,690c0,0,1,6,4,10c0,0,4,5,12,8c0,0,7,3,18,4c0,0,11,1,26,1c0,0,15,0,25,-1c0,0,10,-1,16,-4c0,0,6,-3,7,-8c0,0,2,-4,1,-10L266,568c0,0,17,31,41,59c0,0,23,29,51,51c0,0,28,21,58,34c0,0,30,13,59,13c0,0,13,0,26,-2c0,0,13,-2,24,-5c0,0,11,-2,20,-6c0,0,8,-3,13,-8c0,0,4,-4,4,-14c0,0,0,-3,-1,-11c0,0,-1,-9,-2,-20c0,0,-2,-11,-5,-23c0,0,-3,-12,-7,-22c0,0,-5,-10,-10,-17c0,0,-5,-7,-10,-7c0,0,-6,0,-13,3c0,0,-8,3,-16,6c0,0,-9,4,-20,7c0,0,-11,2,-26,2c0,0,-25,0,-58,-22c0,0,-34,-22,-66,-61c0,0,-32,-39,-58,-92c0,0,-27,-53,-40,-116L172,18c0,0,-2,-6,-5,-10c0,0,-4,-4,-12,-7c0,0,-7,-2,-20,-3c0,0,-12,-2,-30,-2Z" 
id="f3_b1"
transform="scale(0.001,-0.001)" />

<path d="M75,-271c0,0,-20,0,-33,2c0,0,-13,2,-20,6c0,0,-6,5,-6,12c0,0,1,8,9,18L207,0L96,655c0,0,-2,9,-2,17c0,0,-1,7,-1,12c0,0,0,9,3,14c0,0,2,6,10,9c0,0,7,4,19,5c0,0,13,1,31,1c0,0,20,0,31,-1c0,0,12,-1,18,-4c0,0,6,-3,9,-8c0,0,2,-5,3,-13L305,140h2c0,0,46,65,83,132c0,0,37,67,69,136c0,0,31,69,58,140c0,0,26,70,49,142c0,0,2,6,6,10c0,0,4,5,12,8c0,0,8,3,21,4c0,0,13,1,34,1c0,0,33,0,44,-5c0,0,11,-4,11,-13c0,0,0,-8,-1,-17c0,0,-2,-8,-5,-16c0,0,-25,-68,-54,-141c0,0,-29,-74,-68,-154c0,0,-39,-80,-91,-167c0,0,-51,-87,-123,-184L159,-246c0,0,-4,-6,-11,-11c0,0,-7,-4,-16,-7c0,0,-10,-4,-24,-5c0,0,-14,-2,-33,-2Z" 
id="f3_co"
transform="scale(0.001,-0.001)" />

<path d="M340,89c0,0,46,0,82,16c0,0,36,16,65,44c0,0,29,27,50,64c0,0,21,36,35,78c0,0,14,42,21,85c0,0,6,44,6,85c0,0,0,38,-7,68c0,0,-8,29,-27,50c0,0,-18,20,-47,32c0,0,-30,11,-72,11c0,0,-44,0,-81,-16c0,0,-36,-16,-65,-43c0,0,-29,-28,-50,-64c0,0,-21,-37,-35,-78c0,0,-14,-42,-21,-85c0,0,-6,-44,-6,-86c0,0,0,-37,8,-67c0,0,8,-30,26,-51c0,0,19,-21,48,-32c0,0,29,-11,70,-11ZM329,-13c0,0,-71,0,-122,16c0,0,-52,18,-84,50c0,0,-33,33,-49,81c0,0,-15,48,-15,108c0,0,0,56,10,113c0,0,10,58,31,111c0,0,22,53,54,100c0,0,33,47,77,82c0,0,45,35,101,56c0,0,56,21,125,21c0,0,72,0,123,-18c0,0,52,-18,85,-50c0,0,33,-33,49,-81c0,0,15,-48,15,-108c0,0,0,-55,-10,-112c0,0,-10,-58,-32,-111c0,0,-21,-53,-54,-100c0,0,-33,-47,-77,-83C556,62,511,27,455,7c0,0,-56,-20,-126,-20Z" 
id="f3_am"
transform="scale(0.001,-0.001)" />

<path d="M372,92c0,0,40,0,72,19c0,0,33,18,58,50c0,0,25,31,43,71c0,0,19,39,31,82c0,0,12,42,18,84c0,0,5,42,5,75c0,0,0,32,-5,59c0,0,-6,27,-18,47c0,0,-12,19,-32,29c0,0,-20,11,-49,11c0,0,-40,0,-82,-22c0,0,-42,-23,-78,-63c0,0,-35,-41,-63,-96c0,0,-28,-54,-41,-120L206,195c0,0,35,-52,76,-77c0,0,40,-26,90,-26ZM51,-271c0,0,-17,0,-28,2c0,0,-12,1,-18,4c0,0,-6,3,-8,8c0,0,-2,4,-1,10L184,690c0,0,1,12,15,18c0,0,13,5,44,5c0,0,16,0,25,-1c0,0,10,-1,16,-4c0,0,6,-3,8,-7c0,0,1,-5,0,-11L268,564c0,0,10,25,35,53c0,0,25,28,60,52c0,0,34,24,77,40c0,0,42,16,86,16c0,0,57,0,95,-20c0,0,39,-19,63,-52c0,0,24,-32,34,-77c0,0,10,-44,10,-95c0,0,0,-43,-8,-97c0,0,-8,-54,-26,-110c0,0,-18,-55,-46,-107c0,0,-28,-52,-67,-92c0,0,-40,-40,-92,-64c0,0,-52,-24,-117,-24c0,0,-34,0,-61,7c0,0,-28,6,-51,18c0,0,-23,12,-42,28c0,0,-19,16,-36,35L118,-247c0,0,-1,-6,-5,-10c0,0,-3,-5,-11,-8c0,0,-7,-3,-19,-4c0,0,-13,-2,-32,-2Z" 
id="f3_ay"
transform="scale(0.001,-0.001)" />

<path d="M105,-4c0,0,-18,0,-30,2c0,0,-11,1,-18,3c0,0,-6,3,-8,7c0,0,-2,4,0,10l198,997c0,0,2,6,5,11c0,0,4,4,11,7c0,0,8,3,20,5c0,0,13,1,31,1c0,0,18,0,30,-1c0,0,11,-2,18,-5c0,0,6,-3,8,-7c0,0,1,-5,1,-11L311,712c0,0,-4,-19,-9,-39c0,0,-6,-20,-11,-40c0,0,-6,-20,-11,-38c0,0,-6,-18,-11,-31c0,0,12,26,38,54c0,0,25,28,59,52c0,0,35,23,76,39c0,0,42,16,86,16c0,0,47,0,81,-14c0,0,33,-14,54,-38c0,0,22,-25,31,-58c0,0,10,-34,10,-73c0,0,0,-27,-3,-52c0,0,-3,-26,-8,-52L610,18c0,0,-2,-6,-6,-10c0,0,-3,-4,-11,-7c0,0,-8,-2,-20,-3c0,0,-12,-2,-31,-2c0,0,-18,0,-29,2c0,0,-11,1,-18,3c0,0,-6,3,-8,7c0,0,-2,4,-1,10l82,416c0,0,4,19,6,44c0,0,3,24,3,42c0,0,0,22,-4,40c0,0,-5,18,-15,31c0,0,-10,13,-26,20c0,0,-16,8,-39,8c0,0,-39,0,-81,-23c0,0,-41,-23,-77,-64c0,0,-35,-41,-63,-96c0,0,-28,-56,-41,-120L172,18c0,0,-2,-6,-5,-10c0,0,-4,-4,-12,-7c0,0,-7,-2,-20,-3c0,0,-12,-2,-30,-2Z" 
id="f3_9n"
transform="scale(0.001,-0.001)" />

<path d="M105,-4c0,0,-18,0,-30,2c0,0,-11,1,-18,3c0,0,-6,3,-8,7c0,0,-2,4,0,10l198,997c0,0,2,6,5,11c0,0,4,4,11,7c0,0,8,3,20,5c0,0,13,1,31,1c0,0,18,0,30,-1c0,0,11,-2,18,-5c0,0,6,-3,8,-7c0,0,1,-5,1,-11L172,18c0,0,-2,-6,-5,-10c0,0,-4,-4,-12,-7c0,0,-7,-2,-20,-3c0,0,-12,-2,-30,-2Z" 
id="f3_a8"
transform="scale(0.001,-0.001)" />

<path d="M265,-13c0,0,-51,0,-85,13c0,0,-35,14,-56,38c0,0,-21,24,-31,57c0,0,-9,33,-9,73c0,0,0,24,3,50c0,0,4,26,9,52l83,420c0,0,1,6,5,10c0,0,4,5,12,8c0,0,7,3,19,4c0,0,13,1,30,1c0,0,18,0,30,-1c0,0,12,-1,18,-4c0,0,7,-3,9,-8c0,0,1,-4,1,-10L220,274c0,0,-4,-19,-6,-40c0,0,-3,-21,-3,-42c0,0,0,-22,4,-40c0,0,5,-19,15,-32c0,0,10,-13,26,-21c0,0,16,-7,39,-7c0,0,39,0,81,23c0,0,41,22,77,62c0,0,36,40,64,96c0,0,28,55,41,120l59,297c0,0,1,6,5,10c0,0,4,5,12,8c0,0,8,3,20,4c0,0,12,1,30,1c0,0,18,0,29,-1c0,0,12,-1,18,-4c0,0,7,-3,9,-8c0,0,1,-4,1,-10L606,18c0,0,-1,-6,-5,-10c0,0,-3,-5,-10,-7c0,0,-7,-2,-18,-3c0,0,-11,-2,-26,-2c0,0,-15,0,-25,2c0,0,-10,1,-16,3c0,0,-5,2,-7,7c0,0,-2,4,-1,10l25,126c0,0,-12,-25,-38,-53c0,0,-25,-28,-60,-51C425,40,390,16,349,1c0,0,-42,-14,-84,-14Z" 
id="f3_c6"
transform="scale(0.001,-0.001)" />

<path d="M105,-4c0,0,-18,0,-30,2c0,0,-11,1,-18,3c0,0,-6,3,-8,7c0,0,-2,4,0,10L184,690c0,0,1,6,4,10c0,0,3,5,10,8c0,0,7,3,18,4c0,0,11,1,26,1c0,0,15,0,26,-1c0,0,10,-1,15,-4c0,0,6,-3,7,-8c0,0,2,-4,1,-10L266,562c0,0,11,26,37,54c0,0,25,29,60,53c0,0,34,24,75,40c0,0,40,16,83,16c0,0,45,0,77,-13c0,0,32,-12,52,-34c0,0,21,-21,30,-51c0,0,10,-30,12,-65c0,0,15,26,41,55c0,0,27,29,61,52c0,0,34,24,74,40c0,0,41,16,83,16c0,0,49,0,83,-15c0,0,34,-14,54,-39c0,0,21,-24,30,-57c0,0,9,-33,9,-72c0,0,0,-27,-3,-52c0,0,-3,-26,-8,-52L1032,18c0,0,0,-6,-4,-10c0,0,-4,-4,-12,-7c0,0,-8,-2,-20,-3c0,0,-13,-2,-31,-2c0,0,-17,0,-29,2c0,0,-11,1,-17,3c0,0,-7,3,-9,7c0,0,-2,4,-1,10l82,415c0,0,4,22,7,41c0,0,2,20,2,40c0,0,0,48,-18,76c0,0,-18,29,-63,29c0,0,-38,0,-78,-23c0,0,-40,-23,-75,-63c0,0,-36,-40,-64,-95c0,0,-27,-55,-40,-120L602,18c0,0,-2,-6,-5,-10c0,0,-4,-4,-12,-7c0,0,-8,-2,-20,-3c0,0,-12,-2,-30,-2c0,0,-18,0,-30,2c0,0,-11,1,-17,3c0,0,-6,3,-8,7c0,0,-3,4,-2,10l83,415c0,0,5,23,7,44c0,0,2,22,2,41c0,0,0,46,-18,73c0,0,-19,28,-64,28c0,0,-38,0,-77,-23c0,0,-40,-23,-76,-63c0,0,-36,-40,-63,-95c0,0,-28,-55,-41,-120L172,18c0,0,-2,-6,-5,-10c0,0,-4,-4,-12,-7c0,0,-7,-2,-20,-3c0,0,-12,-2,-30,-2Z" 
id="f3_ae"
transform="scale(0.001,-0.001)" />

<path d="M415,-18c0,0,-149,0,-244,83c0,0,-94,84,-107,222l140,11c0,0,16,-103,73,-154c0,0,56,-52,137,-52c0,0,98,0,165,73c0,0,66,73,66,194c0,0,0,115,-64,182c0,0,-64,66,-169,66c0,0,-65,0,-117,-29c0,0,-52,-30,-82,-77L87,517l106,562H736V951H300L241,657c0,0,99,69,207,69c0,0,143,0,242,-100c0,0,98,-99,98,-255c0,0,0,-149,-86,-257C702,114,597,-18,415,-18Z" 
id="f4_p"
transform="scale(0.001,-0.001)" />


</defs>
</svg>