<?xml version="1.0" encoding="UTF-8" standalone="no"?>
<!DOCTYPE svg PUBLIC "-//W3C//DTD SVG 1.1//EN"
"http://www.w3.org/Graphics/SVG/1.1/DTD/svg11.dtd">
<svg viewBox="0 0 797 1155" version="1.1" xmlns="http://www.w3.org/2000/svg" xmlns:xlink="http://www.w3.org/1999/xlink">
<defs>
<style type="text/css"><![CDATA[
.g0_77{
fill: #FFFFFF;
}
]]></style>
</defs>
<g fill="#000000" >
<use xlink:href="#f0_3d" transform="matrix(11,0,0,11,82.5,271.4)" />
<use xlink:href="#f1_2j" transform="matrix(11,0,0,11,110,271.4)" />
<use xlink:href="#f1_7z" transform="matrix(11,0,0,11,119.5,271.4)" />
<use xlink:href="#f1_b5" transform="matrix(11,0,0,11,128,271.4)" />
<use xlink:href="#f1_ay" transform="matrix(11,0,0,11,134.6,271.4)" />
<use xlink:href="#f1_9q" transform="matrix(11,0,0,11,143.8,271.4)" />
<use xlink:href="#f1_b1" transform="matrix(11,0,0,11,147.8,271.4)" />
<use xlink:href="#f1_77" transform="matrix(11,0,0,11,153.7,271.4)" />
<use xlink:href="#f1_bf" transform="matrix(11,0,0,11,162.1,271.4)" />
<use xlink:href="#f1_am" transform="matrix(11,0,0,11,167.9,271.4)" />
<use xlink:href="#f1_b1" transform="matrix(11,0,0,11,177.1,271.4)" />
<use xlink:href="#f1_co" transform="matrix(11,0,0,11,183,271.4)" />
<use xlink:href="#f1_b1" transform="matrix(11,0,0,11,193.9,271.4)" />
<use xlink:href="#f1_am" transform="matrix(11,0,0,11,199.8,271.4)" />
<use xlink:href="#f1_am" transform="matrix(11,0,0,11,208.9,271.4)" />
<use xlink:href="#f1_bf" transform="matrix(11,0,0,11,218.1,271.4)" />
<use xlink:href="#f1_b5" transform="matrix(11,0,0,11,223.9,271.4)" />
<use xlink:href="#f1_ns" transform="matrix(11,0,0,11,230.5,271.4)" />
<use xlink:href="#f2_2t" transform="matrix(11,0,0,11,238.4,271.4)" />
<use xlink:href="#f2_9n" transform="matrix(11,0,0,11,246.5,271.4)" />
<use xlink:href="#f2_7z" transform="matrix(11,0,0,11,255.3,271.4)" />
<use xlink:href="#f2_ay" transform="matrix(11,0,0,11,266.7,271.4)" />
<use xlink:href="#f2_a8" transform="matrix(11,0,0,11,275.5,271.4)" />
<use xlink:href="#f2_77" transform="matrix(11,0,0,11,279.5,271.4)" />
<use xlink:href="#f2_af" transform="matrix(11,0,0,11,287.6,271.4)" />
<use xlink:href="#f2_bf" transform="matrix(11,0,0,11,296.4,271.4)" />
<use xlink:href="#f2_b5" transform="matrix(11,0,0,11,301.9,271.4)" />
<use xlink:href="#f2_ci" transform="matrix(11,0,0,11,311.5,271.4)" />
<use xlink:href="#f2_9n" transform="matrix(11,0,0,11,323.5,271.4)" />
<use xlink:href="#f2_9q" transform="matrix(11,0,0,11,332.4,271.4)" />
<use xlink:href="#f2_7l" transform="matrix(11,0,0,11,336.4,271.4)" />
<use xlink:href="#f2_9n" transform="matrix(11,0,0,11,343.3,271.4)" />
<use xlink:href="#f2_9d" transform="matrix(11,0,0,11,355.1,271.4)" />
<use xlink:href="#f2_b1" transform="matrix(11,0,0,11,363.1,271.4)" />
<use xlink:href="#f2_am" transform="matrix(11,0,0,11,369,271.4)" />
<use xlink:href="#f2_ci" transform="matrix(11,0,0,11,377.8,271.4)" />
<use xlink:href="#f2_9q" transform="matrix(11,0,0,11,392.9,271.4)" />
<use xlink:href="#f2_af" transform="matrix(11,0,0,11,396.9,271.4)" />
<use xlink:href="#f2_ae" transform="matrix(11,0,0,11,408.3,271.4)" />
<use xlink:href="#f2_77" transform="matrix(11,0,0,11,421.8,271.4)" />
<use xlink:href="#f2_b1" transform="matrix(11,0,0,11,429.9,271.4)" />
<use xlink:href="#f2_b5" transform="matrix(11,0,0,11,435.8,271.4)" />
<use xlink:href="#f2_9n" transform="matrix(11,0,0,11,442.4,271.4)" />
<use xlink:href="#f2_co" transform="matrix(11,0,0,11,451.2,271.4)" />
<use xlink:href="#f2_77" transform="matrix(11,0,0,11,461.8,271.4)" />
<use xlink:href="#f2_b1" transform="matrix(11,0,0,11,469.9,271.4)" />
<use xlink:href="#f2_7z" transform="matrix(11,0,0,11,475.8,271.4)" />
<use xlink:href="#f2_77" transform="matrix(11,0,0,11,483.8,271.4)" />
<use xlink:href="#f2_b5" transform="matrix(11,0,0,11,491.9,271.4)" />
<use xlink:href="#f2_7v" transform="matrix(11,0,0,11,501.4,271.4)" />
<use xlink:href="#f2_7z" transform="matrix(11,0,0,11,510.3,271.4)" />
<use xlink:href="#f2_ch" transform="matrix(11,0,0,11,518.7,271.4)" />
<use xlink:href="#f2_7z" transform="matrix(11,0,0,11,526.4,271.4)" />
<use xlink:href="#f2_a8" transform="matrix(11,0,0,11,534.8,271.4)" />
<use xlink:href="#f2_am" transform="matrix(11,0,0,11,538.8,271.4)" />
<use xlink:href="#f2_ay" transform="matrix(11,0,0,11,547.6,271.4)" />
<use xlink:href="#f2_7k" transform="matrix(11,0,0,11,559.4,271.4)" />
<use xlink:href="#f2_b1" transform="matrix(11,0,0,11,568.2,271.4)" />
<use xlink:href="#f2_77" transform="matrix(11,0,0,11,574.1,271.4)" />
<use xlink:href="#f2_af" transform="matrix(11,0,0,11,582.1,271.4)" />
<use xlink:href="#f2_7l" transform="matrix(11,0,0,11,590.9,271.4)" />
<use xlink:href="#f2_9n" transform="matrix(11,0,0,11,597.9,271.4)" />
<use xlink:href="#f2_7z" transform="matrix(11,0,0,11,606.7,271.4)" />
<use xlink:href="#f2_b5" transform="matrix(11,0,0,11,615.1,271.4)" />
<use xlink:href="#f2_am" transform="matrix(11,0,0,11,624.6,271.4)" />
<use xlink:href="#f2_89" transform="matrix(11,0,0,11,633.4,271.4)" />
<use xlink:href="#f2_b1" transform="matrix(11,0,0,11,641.5,271.4)" />
<use xlink:href="#f2_am" transform="matrix(11,0,0,11,647.4,271.4)" />
<use xlink:href="#f2_am" transform="matrix(11,0,0,11,656.2,271.4)" />
<use xlink:href="#f2_bf" transform="matrix(11,0,0,11,665,271.4)" />
<use xlink:href="#f2_bf" transform="matrix(11,0,0,11,673.4,271.4)" />
<use xlink:href="#f2_9n" transform="matrix(11,0,0,11,678.9,271.4)" />
<use xlink:href="#f2_77" transform="matrix(11,0,0,11,687.7,271.4)" />
<use xlink:href="#f2_bf" transform="matrix(11,0,0,11,696.1,271.4)" />
<use xlink:href="#f2_7l" transform="matrix(11,0,0,11,704.6,271.4)" />
<use xlink:href="#f2_am" transform="matrix(11,0,0,11,711.5,271.4)" />
<use xlink:href="#f2_ae" transform="matrix(11,0,0,11,720.3,271.4)" />
<use xlink:href="#f2_7z" transform="matrix(11,0,0,11,733.9,271.4)" />
<use xlink:href="#f2_am" transform="matrix(11,0,0,11,110,291.9)" />
<use xlink:href="#f2_c6" transform="matrix(11,0,0,11,118.8,291.9)" />
<use xlink:href="#f2_bf" transform="matrix(11,0,0,11,127.6,291.9)" />
<use xlink:href="#f2_am" transform="matrix(11,0,0,11,138.3,291.9)" />
<use xlink:href="#f2_89" transform="matrix(11,0,0,11,147.1,291.9)" />
<use xlink:href="#f2_bf" transform="matrix(11,0,0,11,157.3,291.9)" />
<use xlink:href="#f2_9n" transform="matrix(11,0,0,11,163.2,291.9)" />
<use xlink:href="#f2_7z" transform="matrix(11,0,0,11,172,291.9)" />
<use xlink:href="#f2_9d" transform="matrix(11,0,0,11,185.5,291.9)" />
<use xlink:href="#f2_b1" transform="matrix(11,0,0,11,193.6,291.9)" />
<use xlink:href="#f2_am" transform="matrix(11,0,0,11,199.4,291.9)" />
<use xlink:href="#f2_c6" transform="matrix(11,0,0,11,208.2,291.9)" />
<use xlink:href="#f2_af" transform="matrix(11,0,0,11,217,291.9)" />
<use xlink:href="#f2_7v" transform="matrix(11,0,0,11,225.8,291.9)" />
<use xlink:href="#f2_77" transform="matrix(11,0,0,11,239.8,291.9)" />
<use xlink:href="#f2_af" transform="matrix(11,0,0,11,247.8,291.9)" />
<use xlink:href="#f2_7v" transform="matrix(11,0,0,11,256.6,291.9)" />
<use xlink:href="#f2_9d" transform="matrix(11,0,0,11,270.5,291.9)" />
<use xlink:href="#f2_b1" transform="matrix(11,0,0,11,278.6,291.9)" />
<use xlink:href="#f2_am" transform="matrix(11,0,0,11,284.5,291.9)" />
<use xlink:href="#f2_ci" transform="matrix(11,0,0,11,293.3,291.9)" />
<use xlink:href="#f2_ch" transform="matrix(11,0,0,11,310.5,291.9)" />
<use xlink:href="#f2_7z" transform="matrix(11,0,0,11,318.2,291.9)" />
<use xlink:href="#f2_b1" transform="matrix(11,0,0,11,326.6,291.9)" />
<use xlink:href="#f2_bf" transform="matrix(11,0,0,11,332.5,291.9)" />
<use xlink:href="#f2_9q" transform="matrix(11,0,0,11,338,291.9)" />
<use xlink:href="#f2_7l" transform="matrix(11,0,0,11,342,291.9)" />
<use xlink:href="#f2_77" transform="matrix(11,0,0,11,349,291.9)" />
<use xlink:href="#f2_a8" transform="matrix(11,0,0,11,357,291.9)" />
<use xlink:href="#f2_a8" transform="matrix(11,0,0,11,361,291.9)" />
<use xlink:href="#f2_co" transform="matrix(11,0,0,11,365,291.9)" />
<use xlink:href="#f2_c6" transform="matrix(11,0,0,11,377.8,291.9)" />
<use xlink:href="#f2_ay" transform="matrix(11,0,0,11,386.7,291.9)" />
<use xlink:href="#f2_ci" transform="matrix(11,0,0,11,395.5,291.9)" />
<use xlink:href="#f2_77" transform="matrix(11,0,0,11,407.5,291.9)" />
<use xlink:href="#f2_b1" transform="matrix(11,0,0,11,415.6,291.9)" />
<use xlink:href="#f2_7v" transform="matrix(11,0,0,11,421.5,291.9)" />
<use xlink:href="#f2_nt" transform="matrix(11,0,0,11,430.3,291.9)" />
<use xlink:href="#f2_2t" transform="matrix(11,0,0,11,439.8,291.9)" />
<use xlink:href="#f2_9n" transform="matrix(11,0,0,11,447.8,291.9)" />
<use xlink:href="#f2_9q" transform="matrix(11,0,0,11,456.6,291.9)" />
<use xlink:href="#f2_b5" transform="matrix(11,0,0,11,460.7,291.9)" />
<use xlink:href="#f2_am" transform="matrix(11,0,0,11,472.4,291.9)" />
<use xlink:href="#f2_7l" transform="matrix(11,0,0,11,480.8,291.9)" />
<use xlink:href="#f2_7l" transform="matrix(11,0,0,11,487.8,291.9)" />
<use xlink:href="#f2_c6" transform="matrix(11,0,0,11,494.7,291.9)" />
<use xlink:href="#f2_b1" transform="matrix(11,0,0,11,503.6,291.9)" />
<use xlink:href="#f2_b5" transform="matrix(11,0,0,11,509.4,291.9)" />
<use xlink:href="#f2_77" transform="matrix(11,0,0,11,521.1,291.9)" />
<use xlink:href="#f2_b5" transform="matrix(11,0,0,11,529.2,291.9)" />
<use xlink:href="#f2_bf" transform="matrix(11,0,0,11,541.4,291.9)" />
<use xlink:href="#f2_9n" transform="matrix(11,0,0,11,546.9,291.9)" />
<use xlink:href="#f2_7z" transform="matrix(11,0,0,11,555.7,291.9)" />
<use xlink:href="#f2_b1" transform="matrix(11,0,0,11,564.1,291.9)" />
<use xlink:href="#f2_7z" transform="matrix(11,0,0,11,570,291.9)" />
<use xlink:href="#f2_9q" transform="matrix(11,0,0,11,583.6,291.9)" />
<use xlink:href="#f2_b5" transform="matrix(11,0,0,11,587.6,291.9)" />
<use xlink:href="#f2_b5" transform="matrix(11,0,0,11,599.3,291.9)" />
<use xlink:href="#f2_7l" transform="matrix(11,0,0,11,605.9,291.9)" />
<use xlink:href="#f2_77" transform="matrix(11,0,0,11,612.9,291.9)" />
<use xlink:href="#f2_b1" transform="matrix(11,0,0,11,620.9,291.9)" />
<use xlink:href="#f2_7l" transform="matrix(11,0,0,11,626.8,291.9)" />
<use xlink:href="#f2_9q" transform="matrix(11,0,0,11,633.8,291.9)" />
<use xlink:href="#f2_bf" transform="matrix(11,0,0,11,637.8,291.9)" />
<use xlink:href="#f2_co" transform="matrix(11,0,0,11,643.3,291.9)" />
<use xlink:href="#f2_am" transform="matrix(11,0,0,11,656.3,291.9)" />
<use xlink:href="#f2_89" transform="matrix(11,0,0,11,665.1,291.9)" />
<use xlink:href="#f2_am" transform="matrix(11,0,0,11,675.7,291.9)" />
<use xlink:href="#f2_cn" transform="matrix(11,0,0,11,684.5,291.9)" />
<use xlink:href="#f2_co" transform="matrix(11,0,0,11,691.8,291.9)" />
<use xlink:href="#f2_9d" transform="matrix(11,0,0,11,699.5,291.9)" />
<use xlink:href="#f2_7z" transform="matrix(11,0,0,11,707.6,291.9)" />
<use xlink:href="#f2_af" transform="matrix(11,0,0,11,716,291.9)" />
<use xlink:href="#f2_9q" transform="matrix(11,0,0,11,730,291.9)" />
<use xlink:href="#f2_af" transform="matrix(11,0,0,11,734,291.9)" />
<use xlink:href="#f2_b5" transform="matrix(11,0,0,11,110,312.5)" />
<use xlink:href="#f2_c6" transform="matrix(11,0,0,11,116.6,312.5)" />
<use xlink:href="#f2_7l" transform="matrix(11,0,0,11,125.5,312.5)" />
<use xlink:href="#f2_9n" transform="matrix(11,0,0,11,132.4,312.5)" />
<use xlink:href="#f2_ay" transform="matrix(11,0,0,11,146,312.5)" />
<use xlink:href="#f2_a8" transform="matrix(11,0,0,11,154.8,312.5)" />
<use xlink:href="#f2_77" transform="matrix(11,0,0,11,158.8,312.5)" />
<use xlink:href="#f2_7l" transform="matrix(11,0,0,11,166.9,312.5)" />
<use xlink:href="#f2_7z" transform="matrix(11,0,0,11,173.9,312.5)" />
<use xlink:href="#f2_b5" transform="matrix(11,0,0,11,182.3,312.5)" />
<use xlink:href="#f2_nt" transform="matrix(11,0,0,11,188.9,312.5)" />
<use xlink:href="#f2_2t" transform="matrix(11,0,0,11,198.1,312.5)" />
<use xlink:href="#f2_9n" transform="matrix(11,0,0,11,206.1,312.5)" />
<use xlink:href="#f2_7z" transform="matrix(11,0,0,11,214.9,312.5)" />
<use xlink:href="#f2_b5" transform="matrix(11,0,0,11,223.3,312.5)" />
<use xlink:href="#f2_7z" transform="matrix(11,0,0,11,229.9,312.5)" />
<use xlink:href="#f2_b1" transform="matrix(11,0,0,11,243.2,312.5)" />
<use xlink:href="#f2_am" transform="matrix(11,0,0,11,249.1,312.5)" />
<use xlink:href="#f2_am" transform="matrix(11,0,0,11,257.9,312.5)" />
<use xlink:href="#f2_bf" transform="matrix(11,0,0,11,266.7,312.5)" />
<use xlink:href="#f2_b5" transform="matrix(11,0,0,11,272.2,312.5)" />
<use xlink:href="#f2_77" transform="matrix(11,0,0,11,283.5,312.5)" />
<use xlink:href="#f2_b1" transform="matrix(11,0,0,11,291.6,312.5)" />
<use xlink:href="#f2_7z" transform="matrix(11,0,0,11,297.5,312.5)" />
<use xlink:href="#f2_7l" transform="matrix(11,0,0,11,310.7,312.5)" />
<use xlink:href="#f2_77" transform="matrix(11,0,0,11,317.7,312.5)" />
<use xlink:href="#f2_a8" transform="matrix(11,0,0,11,325.8,312.5)" />
<use xlink:href="#f2_a8" transform="matrix(11,0,0,11,329.8,312.5)" />
<use xlink:href="#f2_7z" transform="matrix(11,0,0,11,333.8,312.5)" />
<use xlink:href="#f2_7v" transform="matrix(11,0,0,11,342.2,312.5)" />
<use xlink:href="#f1_ay" transform="matrix(11,0,0,11,355.8,312.5)" />
<use xlink:href="#f1_af" transform="matrix(11,0,0,11,364.6,312.5)" />
<use xlink:href="#f1_7z" transform="matrix(11,0,0,11,373.8,312.5)" />
<use xlink:href="#f1_c6" transform="matrix(11,0,0,11,382.2,312.5)" />
<use xlink:href="#f1_ae" transform="matrix(11,0,0,11,391.3,312.5)" />
<use xlink:href="#f1_77" transform="matrix(11,0,0,11,404.9,312.5)" />
<use xlink:href="#f1_bf" transform="matrix(11,0,0,11,413.3,312.5)" />
<use xlink:href="#f1_am" transform="matrix(11,0,0,11,418.8,312.5)" />
<use xlink:href="#f1_ay" transform="matrix(11,0,0,11,428,312.5)" />
<use xlink:href="#f1_9n" transform="matrix(11,0,0,11,437.1,312.5)" />
<use xlink:href="#f1_am" transform="matrix(11,0,0,11,445.9,312.5)" />
<use xlink:href="#f1_b1" transform="matrix(11,0,0,11,455,312.5)" />
<use xlink:href="#f1_7z" transform="matrix(11,0,0,11,460.9,312.5)" />
<use xlink:href="#f1_b5" transform="matrix(11,0,0,11,469.3,312.5)" />
<use xlink:href="#f2_nt" transform="matrix(11,0,0,11,476.1,312.5)" />
<use xlink:href="#f2_2t" transform="matrix(11,0,0,11,484.9,312.5)" />
<use xlink:href="#f2_9n" transform="matrix(11,0,0,11,493,312.5)" />
<use xlink:href="#f2_b1" transform="matrix(11,0,0,11,501.8,312.5)" />
<use xlink:href="#f2_am" transform="matrix(11,0,0,11,507.7,312.5)" />
<use xlink:href="#f2_c6" transform="matrix(11,0,0,11,516.5,312.5)" />
<use xlink:href="#f2_9d" transform="matrix(11,0,0,11,525.3,312.5)" />
<use xlink:href="#f2_9n" transform="matrix(11,0,0,11,533.3,312.5)" />
<use xlink:href="#f2_bf" transform="matrix(11,0,0,11,546.9,312.5)" />
<use xlink:href="#f2_9n" transform="matrix(11,0,0,11,552.4,312.5)" />
<use xlink:href="#f2_7z" transform="matrix(11,0,0,11,561.2,312.5)" />
<use xlink:href="#f2_b5" transform="matrix(11,0,0,11,569.6,312.5)" />
<use xlink:href="#f2_7z" transform="matrix(11,0,0,11,576.2,312.5)" />
<use xlink:href="#f2_b1" transform="matrix(11,0,0,11,589.4,312.5)" />
<use xlink:href="#f2_am" transform="matrix(11,0,0,11,595.3,312.5)" />
<use xlink:href="#f2_am" transform="matrix(11,0,0,11,604,312.5)" />
<use xlink:href="#f2_bf" transform="matrix(11,0,0,11,612.9,312.5)" />
<use xlink:href="#f2_b5" transform="matrix(11,0,0,11,618.4,312.5)" />
<use xlink:href="#f2_77" transform="matrix(11,0,0,11,629.8,312.5)" />
<use xlink:href="#f2_9q" transform="matrix(11,0,0,11,637.9,312.5)" />
<use xlink:href="#f2_b1" transform="matrix(11,0,0,11,641.9,312.5)" />
<use xlink:href="#f2_ae" transform="matrix(11,0,0,11,652.6,312.5)" />
<use xlink:href="#f2_am" transform="matrix(11,0,0,11,666.1,312.5)" />
<use xlink:href="#f2_ch" transform="matrix(11,0,0,11,674.9,312.5)" />
<use xlink:href="#f2_7z" transform="matrix(11,0,0,11,682.6,312.5)" />
<use xlink:href="#f2_b5" transform="matrix(11,0,0,11,691.1,312.5)" />
<use xlink:href="#f2_9q" transform="matrix(11,0,0,11,702.5,312.5)" />
<use xlink:href="#f2_af" transform="matrix(11,0,0,11,706.5,312.5)" />
<use xlink:href="#f2_b5" transform="matrix(11,0,0,11,715.3,312.5)" />
<use xlink:href="#f2_9q" transform="matrix(11,0,0,11,721.5,312.5)" />
<use xlink:href="#f2_7v" transform="matrix(11,0,0,11,725.5,312.5)" />
<use xlink:href="#f2_7z" transform="matrix(11,0,0,11,734.3,312.5)" />
<use xlink:href="#f2_bf" transform="matrix(11,0,0,11,110,333)" />
<use xlink:href="#f2_9n" transform="matrix(11,0,0,11,115.5,333)" />
<use xlink:href="#f2_7z" transform="matrix(11,0,0,11,124.3,333)" />
<use xlink:href="#f2_ay" transform="matrix(11,0,0,11,136.5,333)" />
<use xlink:href="#f2_a8" transform="matrix(11,0,0,11,145.3,333)" />
<use xlink:href="#f2_77" transform="matrix(11,0,0,11,149.3,333)" />
<use xlink:href="#f2_af" transform="matrix(11,0,0,11,157.4,333)" />
<use xlink:href="#f2_bf" transform="matrix(11,0,0,11,166.2,333)" />
<use xlink:href="#f2_77" transform="matrix(11,0,0,11,175.3,333)" />
<use xlink:href="#f2_af" transform="matrix(11,0,0,11,183.4,333)" />
<use xlink:href="#f2_7v" transform="matrix(11,0,0,11,192.2,333)" />
<use xlink:href="#f2_7l" transform="matrix(11,0,0,11,205,333)" />
<use xlink:href="#f2_7z" transform="matrix(11,0,0,11,212,333)" />
<use xlink:href="#f2_a8" transform="matrix(11,0,0,11,220.4,333)" />
<use xlink:href="#f2_a8" transform="matrix(11,0,0,11,224.5,333)" />
<use xlink:href="#f2_b5" transform="matrix(11,0,0,11,228.5,333)" />
<use xlink:href="#f2_9d" transform="matrix(11,0,0,11,238.8,333)" />
<use xlink:href="#f2_7z" transform="matrix(11,0,0,11,246.9,333)" />
<use xlink:href="#f2_bf" transform="matrix(11,0,0,11,255.3,333)" />
<use xlink:href="#f2_am" transform="matrix(11,0,0,11,264.5,333)" />
<use xlink:href="#f2_cn" transform="matrix(11,0,0,11,273.3,333)" />
<use xlink:href="#f2_co" transform="matrix(11,0,0,11,280.6,333)" />
<use xlink:href="#f2_9d" transform="matrix(11,0,0,11,288.3,333)" />
<use xlink:href="#f2_7z" transform="matrix(11,0,0,11,296.3,333)" />
<use xlink:href="#f2_af" transform="matrix(11,0,0,11,304.7,333)" />
<use xlink:href="#f2_89" transform="matrix(11,0,0,11,317.3,333)" />
<use xlink:href="#f2_am" transform="matrix(11,0,0,11,322.5,333)" />
<use xlink:href="#f2_b1" transform="matrix(11,0,0,11,331.3,333)" />
<use xlink:href="#f2_7l" transform="matrix(11,0,0,11,340.8,333)" />
<use xlink:href="#f2_7z" transform="matrix(11,0,0,11,347.8,333)" />
<use xlink:href="#f2_a8" transform="matrix(11,0,0,11,356.2,333)" />
<use xlink:href="#f2_a8" transform="matrix(11,0,0,11,360.2,333)" />
<use xlink:href="#f2_c6" transform="matrix(11,0,0,11,364.2,333)" />
<use xlink:href="#f2_a8" transform="matrix(11,0,0,11,373,333)" />
<use xlink:href="#f2_77" transform="matrix(11,0,0,11,377,333)" />
<use xlink:href="#f2_b1" transform="matrix(11,0,0,11,385.1,333)" />
<use xlink:href="#f2_b1" transform="matrix(11,0,0,11,394.7,333)" />
<use xlink:href="#f2_7z" transform="matrix(11,0,0,11,400.6,333)" />
<use xlink:href="#f2_b5" transform="matrix(11,0,0,11,409,333)" />
<use xlink:href="#f2_ay" transform="matrix(11,0,0,11,415.6,333)" />
<use xlink:href="#f2_9q" transform="matrix(11,0,0,11,424,333)" />
<use xlink:href="#f2_b1" transform="matrix(11,0,0,11,428.1,333)" />
<use xlink:href="#f2_77" transform="matrix(11,0,0,11,433.9,333)" />
<use xlink:href="#f2_bf" transform="matrix(11,0,0,11,442,333)" />
<use xlink:href="#f2_9q" transform="matrix(11,0,0,11,447.5,333)" />
<use xlink:href="#f2_am" transform="matrix(11,0,0,11,451.5,333)" />
<use xlink:href="#f2_af" transform="matrix(11,0,0,11,460.3,333)" />
<use xlink:href="#f2_nt" transform="matrix(11,0,0,11,469.2,333)" />
<use xlink:href="#f2_t" transform="matrix(11,0,0,11,477.2,333)" />
<use xlink:href="#f2_9d" transform="matrix(11,0,0,11,485.3,333)" />
<use xlink:href="#f2_nt" transform="matrix(11,0,0,11,493.4,333)" />
<use xlink:href="#f3_2j" transform="matrix(11,0,0,11,501.4,333)" />
<use xlink:href="#f3_9n" transform="matrix(11,0,0,11,510.6,333)" />
<use xlink:href="#f3_9q" transform="matrix(11,0,0,11,519,333)" />
<use xlink:href="#f3_ct" transform="matrix(11,0,0,11,523.1,333)" />
<use xlink:href="#f3_am" transform="matrix(11,0,0,11,529.6,333)" />
<use xlink:href="#f3_ay" transform="matrix(11,0,0,11,538.4,333)" />
<use xlink:href="#f3_am" transform="matrix(11,0,0,11,546.9,333)" />
<use xlink:href="#f3_b1" transform="matrix(11,0,0,11,555.7,333)" />
<use xlink:href="#f3_77" transform="matrix(11,0,0,11,561.2,333)" />
</g>
<path fill-rule="evenodd" d="M186,670.5H742.8V648.8H186v21.7Z" class="g0_77" />
<g fill="#000000" >
<use xlink:href="#f0_3d" transform="matrix(11,0,0,11,82.5,665.7)" />
<use xlink:href="#f1_2g" transform="matrix(10.6,0,0,10.6,110,665.7)" />
<use xlink:href="#f1_b1" transform="matrix(10.6,0,0,10.6,118.5,665.7)" />
<use xlink:href="#f1_am" transform="matrix(10.6,0,0,10.6,124.3,665.7)" />
<use xlink:href="#f1_ay" transform="matrix(10.6,0,0,10.6,133.1,665.7)" />
<use xlink:href="#f1_b1" transform="matrix(10.6,0,0,10.6,146.3,665.7)" />
<use xlink:href="#f1_am" transform="matrix(10.6,0,0,10.6,152.1,665.7)" />
<use xlink:href="#f1_am" transform="matrix(10.6,0,0,10.6,160.6,665.7)" />
<use xlink:href="#f1_bf" transform="matrix(10.6,0,0,10.6,169.4,665.7)" />
<use xlink:href="#f1_b5" transform="matrix(10.6,0,0,10.6,174.9,665.7)" />
<use xlink:href="#f1_ns" transform="matrix(10.6,0,0,10.6,181.4,665.7)" />
</g>
<g fill="#212121" >
<use xlink:href="#f2_2j" transform="matrix(11,0,0,11,190.7,665.7)" />
<use xlink:href="#f2_am" transform="matrix(11,0,0,11,199.9,665.7)" />
<use xlink:href="#f2_am" transform="matrix(11,0,0,11,208.7,665.7)" />
<use xlink:href="#f2_bf" transform="matrix(11,0,0,11,217.5,665.7)" />
<use xlink:href="#f2_b5" transform="matrix(11,0,0,11,223,665.7)" />
<use xlink:href="#f2_bf" transform="matrix(11,0,0,11,234.4,665.7)" />
<use xlink:href="#f2_9n" transform="matrix(11,0,0,11,239.9,665.7)" />
<use xlink:href="#f2_77" transform="matrix(11,0,0,11,248.7,665.7)" />
<use xlink:href="#f2_bf" transform="matrix(11,0,0,11,256.7,665.7)" />
<use xlink:href="#f2_77" transform="matrix(11,0,0,11,267,665.7)" />
<use xlink:href="#f2_b1" transform="matrix(11,0,0,11,275.1,665.7)" />
<use xlink:href="#f2_9q" transform="matrix(11,0,0,11,280.9,665.7)" />
<use xlink:href="#f2_b5" transform="matrix(11,0,0,11,284.9,665.7)" />
<use xlink:href="#f2_7z" transform="matrix(11,0,0,11,291.5,665.7)" />
<use xlink:href="#f2_89" transform="matrix(11,0,0,11,304.7,665.7)" />
<use xlink:href="#f2_b1" transform="matrix(11,0,0,11,309.9,665.7)" />
<use xlink:href="#f2_am" transform="matrix(11,0,0,11,315.7,665.7)" />
<use xlink:href="#f2_ae" transform="matrix(11,0,0,11,324.5,665.7)" />
<use xlink:href="#f2_bf" transform="matrix(11,0,0,11,342.8,665.7)" />
<use xlink:href="#f2_9n" transform="matrix(11,0,0,11,348.3,665.7)" />
<use xlink:href="#f2_7z" transform="matrix(11,0,0,11,357.1,665.7)" />
<use xlink:href="#f2_9n" transform="matrix(11,0,0,11,370.3,665.7)" />
<use xlink:href="#f2_9q" transform="matrix(11,0,0,11,379.1,665.7)" />
<use xlink:href="#f2_9d" transform="matrix(11,0,0,11,383.1,665.7)" />
<use xlink:href="#f2_9n" transform="matrix(11,0,0,11,391.2,665.7)" />
<use xlink:href="#f2_7z" transform="matrix(11,0,0,11,400,665.7)" />
<use xlink:href="#f2_b1" transform="matrix(11,0,0,11,408.4,665.7)" />
<use xlink:href="#f2_af" transform="matrix(11,0,0,11,419,665.7)" />
<use xlink:href="#f2_am" transform="matrix(11,0,0,11,427.8,665.7)" />
<use xlink:href="#f2_7v" transform="matrix(11,0,0,11,436.6,665.7)" />
<use xlink:href="#f2_7z" transform="matrix(11,0,0,11,445.4,665.7)" />
<use xlink:href="#f2_b5" transform="matrix(11,0,0,11,453.8,665.7)" />
<use xlink:href="#f2_am" transform="matrix(11,0,0,11,465.2,665.7)" />
<use xlink:href="#f2_b1" transform="matrix(11,0,0,11,474,665.7)" />
<use xlink:href="#f2_7k" transform="matrix(11,0,0,11,485,665.7)" />
<use xlink:href="#f2_b1" transform="matrix(11,0,0,11,493.8,665.7)" />
<use xlink:href="#f2_77" transform="matrix(11,0,0,11,499.7,665.7)" />
<use xlink:href="#f2_af" transform="matrix(11,0,0,11,507.8,665.7)" />
<use xlink:href="#f2_7l" transform="matrix(11,0,0,11,516.5,665.7)" />
<use xlink:href="#f2_9n" transform="matrix(11,0,0,11,523.5,665.7)" />
<use xlink:href="#f2_7z" transform="matrix(11,0,0,11,532.3,665.7)" />
<use xlink:href="#f2_b5" transform="matrix(11,0,0,11,540.7,665.7)" />
<use xlink:href="#f2_am" transform="matrix(11,0,0,11,552.1,665.7)" />
<use xlink:href="#f2_89" transform="matrix(11,0,0,11,560.9,665.7)" />
<use xlink:href="#f2_b5" transform="matrix(11,0,0,11,570.8,665.7)" />
<use xlink:href="#f2_bf" transform="matrix(11,0,0,11,577.4,665.7)" />
<use xlink:href="#f2_7z" transform="matrix(11,0,0,11,582.9,665.7)" />
<use xlink:href="#f2_ae" transform="matrix(11,0,0,11,591.3,665.7)" />
<use xlink:href="#f2_am" transform="matrix(11,0,0,11,609.6,665.7)" />
<use xlink:href="#f2_89" transform="matrix(11,0,0,11,618.4,665.7)" />
<use xlink:href="#f2_7l" transform="matrix(11,0,0,11,628.7,665.7)" />
<use xlink:href="#f2_7z" transform="matrix(11,0,0,11,635.6,665.7)" />
<use xlink:href="#f2_b1" transform="matrix(11,0,0,11,644,665.7)" />
<use xlink:href="#f2_bf" transform="matrix(11,0,0,11,649.9,665.7)" />
<use xlink:href="#f2_77" transform="matrix(11,0,0,11,655.4,665.7)" />
<use xlink:href="#f2_9q" transform="matrix(11,0,0,11,663.5,665.7)" />
<use xlink:href="#f2_af" transform="matrix(11,0,0,11,667.5,665.7)" />
<use xlink:href="#f2_ay" transform="matrix(11,0,0,11,681.1,665.7)" />
<use xlink:href="#f2_a8" transform="matrix(11,0,0,11,689.9,665.7)" />
<use xlink:href="#f2_77" transform="matrix(11,0,0,11,693.9,665.7)" />
<use xlink:href="#f2_af" transform="matrix(11,0,0,11,702,665.7)" />
<use xlink:href="#f2_bf" transform="matrix(11,0,0,11,710.8,665.7)" />
<use xlink:href="#f2_b5" transform="matrix(11,0,0,11,716.3,665.7)" />
<use xlink:href="#f2_bf" transform="matrix(11,0,0,11,727.6,665.7)" />
<use xlink:href="#f2_am" transform="matrix(11,0,0,11,733.1,665.7)" />
</g>
<path fill-rule="evenodd" d="M110,691H742.8V670.4H110V691Z" class="g0_77" />
<g fill="#212121" >
<use xlink:href="#f2_ay" transform="matrix(11,0,0,11,110,686.6)" />
<use xlink:href="#f2_b1" transform="matrix(11,0,0,11,118.8,686.6)" />
<use xlink:href="#f2_am" transform="matrix(11,0,0,11,124.7,686.6)" />
<use xlink:href="#f2_ch" transform="matrix(11,0,0,11,133.5,686.6)" />
<use xlink:href="#f2_9q" transform="matrix(11,0,0,11,141.2,686.6)" />
<use xlink:href="#f2_7v" transform="matrix(11,0,0,11,145.2,686.6)" />
<use xlink:href="#f2_7z" transform="matrix(11,0,0,11,154,686.6)" />
<use xlink:href="#f2_7z" transform="matrix(11,0,0,11,166.5,686.6)" />
<use xlink:href="#f2_cn" transform="matrix(11,0,0,11,174.9,686.6)" />
<use xlink:href="#f2_bf" transform="matrix(11,0,0,11,182.2,686.6)" />
<use xlink:href="#f2_b1" transform="matrix(11,0,0,11,187.7,686.6)" />
<use xlink:href="#f2_77" transform="matrix(11,0,0,11,193.6,686.6)" />
<use xlink:href="#f2_b5" transform="matrix(11,0,0,11,205.7,686.6)" />
<use xlink:href="#f2_c6" transform="matrix(11,0,0,11,212.3,686.6)" />
<use xlink:href="#f2_ay" transform="matrix(11,0,0,11,221.1,686.6)" />
<use xlink:href="#f2_ay" transform="matrix(11,0,0,11,229.9,686.6)" />
<use xlink:href="#f2_am" transform="matrix(11,0,0,11,238.7,686.6)" />
<use xlink:href="#f2_b1" transform="matrix(11,0,0,11,247.5,686.6)" />
<use xlink:href="#f2_bf" transform="matrix(11,0,0,11,253.4,686.6)" />
<use xlink:href="#f2_nt" transform="matrix(11,0,0,11,258.9,686.6)" />
<use xlink:href="#f2_2n" transform="matrix(11,0,0,11,267.3,686.6)" />
<use xlink:href="#f2_c6" transform="matrix(11,0,0,11,275,686.6)" />
<use xlink:href="#f2_7l" transform="matrix(11,0,0,11,283.7,686.6)" />
<use xlink:href="#f2_9n" transform="matrix(11,0,0,11,290.7,686.6)" />
<use xlink:href="#f2_b5" transform="matrix(11,0,0,11,303.5,686.6)" />
<use xlink:href="#f2_bf" transform="matrix(11,0,0,11,310.5,686.6)" />
<use xlink:href="#f2_7z" transform="matrix(11,0,0,11,316,686.6)" />
<use xlink:href="#f2_ae" transform="matrix(11,0,0,11,324.4,686.6)" />
<use xlink:href="#f2_b5" transform="matrix(11,0,0,11,338,686.6)" />
<use xlink:href="#f2_77" transform="matrix(11,0,0,11,348.6,686.6)" />
<use xlink:href="#f2_b1" transform="matrix(11,0,0,11,356.6,686.6)" />
<use xlink:href="#f2_7z" transform="matrix(11,0,0,11,362.5,686.6)" />
<use xlink:href="#f2_c6" transform="matrix(11,0,0,11,374.9,686.6)" />
<use xlink:href="#f2_b5" transform="matrix(11,0,0,11,383.7,686.6)" />
<use xlink:href="#f2_c6" transform="matrix(11,0,0,11,390.3,686.6)" />
<use xlink:href="#f2_77" transform="matrix(11,0,0,11,399.2,686.6)" />
<use xlink:href="#f2_a8" transform="matrix(11,0,0,11,407.2,686.6)" />
<use xlink:href="#f2_a8" transform="matrix(11,0,0,11,411.2,686.6)" />
<use xlink:href="#f2_co" transform="matrix(11,0,0,11,415.2,686.6)" />
<use xlink:href="#f2_bf" transform="matrix(11,0,0,11,426.9,686.6)" />
<use xlink:href="#f2_77" transform="matrix(11,0,0,11,432.4,686.6)" />
<use xlink:href="#f2_a8" transform="matrix(11,0,0,11,440.5,686.6)" />
<use xlink:href="#f2_a8" transform="matrix(11,0,0,11,444.5,686.6)" />
<use xlink:href="#f2_77" transform="matrix(11,0,0,11,452.5,686.6)" />
<use xlink:href="#f2_af" transform="matrix(11,0,0,11,460.6,686.6)" />
<use xlink:href="#f2_7v" transform="matrix(11,0,0,11,469.4,686.6)" />
<use xlink:href="#f2_b5" transform="matrix(11,0,0,11,482.2,686.6)" />
<use xlink:href="#f2_a8" transform="matrix(11,0,0,11,488.8,686.6)" />
<use xlink:href="#f2_7z" transform="matrix(11,0,0,11,492.8,686.6)" />
<use xlink:href="#f2_af" transform="matrix(11,0,0,11,501.2,686.6)" />
<use xlink:href="#f2_7v" transform="matrix(11,0,0,11,510.1,686.6)" />
<use xlink:href="#f2_7z" transform="matrix(11,0,0,11,518.9,686.6)" />
<use xlink:href="#f2_b1" transform="matrix(11,0,0,11,527.3,686.6)" />
<use xlink:href="#f2_77" transform="matrix(11,0,0,11,537.2,686.6)" />
<use xlink:href="#f2_af" transform="matrix(11,0,0,11,545.3,686.6)" />
<use xlink:href="#f2_7v" transform="matrix(11,0,0,11,554.1,686.6)" />
<use xlink:href="#f2_bf" transform="matrix(11,0,0,11,566.9,686.6)" />
<use xlink:href="#f2_9n" transform="matrix(11,0,0,11,572.4,686.6)" />
<use xlink:href="#f2_7z" transform="matrix(11,0,0,11,581.2,686.6)" />
<use xlink:href="#f2_ay" transform="matrix(11,0,0,11,593.9,686.6)" />
<use xlink:href="#f2_b1" transform="matrix(11,0,0,11,602.7,686.6)" />
<use xlink:href="#f2_am" transform="matrix(11,0,0,11,608.6,686.6)" />
<use xlink:href="#f2_ay" transform="matrix(11,0,0,11,617.4,686.6)" />
<use xlink:href="#f2_b1" transform="matrix(11,0,0,11,630.2,686.6)" />
<use xlink:href="#f2_am" transform="matrix(11,0,0,11,636.1,686.6)" />
<use xlink:href="#f2_am" transform="matrix(11,0,0,11,645.2,686.6)" />
<use xlink:href="#f2_bf" transform="matrix(11,0,0,11,654,686.6)" />
<use xlink:href="#f2_b5" transform="matrix(11,0,0,11,659.5,686.6)" />
<use xlink:href="#f2_7v" transform="matrix(11,0,0,11,669.8,686.6)" />
<use xlink:href="#f2_7z" transform="matrix(11,0,0,11,678.6,686.6)" />
<use xlink:href="#f2_ch" transform="matrix(11,0,0,11,687,686.6)" />
<use xlink:href="#f2_7z" transform="matrix(11,0,0,11,694.8,686.6)" />
<use xlink:href="#f2_a8" transform="matrix(11,0,0,11,703.2,686.6)" />
<use xlink:href="#f2_am" transform="matrix(11,0,0,11,707.2,686.6)" />
<use xlink:href="#f2_ay" transform="matrix(11,0,0,11,716,686.6)" />
<use xlink:href="#f2_77" transform="matrix(11,0,0,11,728.8,686.6)" />
<use xlink:href="#f2_bf" transform="matrix(11,0,0,11,736.9,686.6)" />
</g>
<path fill-rule="evenodd" d="M110,711.5H596.1V691H110v20.5Z" class="g0_77" />
<g fill="#212121" >
<use xlink:href="#f2_b5" transform="matrix(11,0,0,11,110,707.1)" />
<use xlink:href="#f2_c6" transform="matrix(11,0,0,11,116.6,707.1)" />
<use xlink:href="#f2_7l" transform="matrix(11,0,0,11,125.5,707.1)" />
<use xlink:href="#f2_7l" transform="matrix(11,0,0,11,132.4,707.1)" />
<use xlink:href="#f2_7z" transform="matrix(11,0,0,11,139.4,707.1)" />
<use xlink:href="#f2_b5" transform="matrix(11,0,0,11,147.8,707.1)" />
<use xlink:href="#f2_b5" transform="matrix(11,0,0,11,154.4,707.1)" />
<use xlink:href="#f2_9q" transform="matrix(11,0,0,11,161,707.1)" />
<use xlink:href="#f2_ch" transform="matrix(11,0,0,11,165,707.1)" />
<use xlink:href="#f2_7z" transform="matrix(11,0,0,11,172.7,707.1)" />
<use xlink:href="#f2_a8" transform="matrix(11,0,0,11,181.1,707.1)" />
<use xlink:href="#f2_co" transform="matrix(11,0,0,11,185.2,707.1)" />
<use xlink:href="#f2_9n" transform="matrix(11,0,0,11,196.5,707.1)" />
<use xlink:href="#f2_9q" transform="matrix(11,0,0,11,205.3,707.1)" />
<use xlink:href="#f2_9d" transform="matrix(11,0,0,11,209,707.1)" />
<use xlink:href="#f2_9n" transform="matrix(11,0,0,11,217,707.1)" />
<use xlink:href="#f2_7z" transform="matrix(11,0,0,11,225.8,707.1)" />
<use xlink:href="#f2_b1" transform="matrix(11,0,0,11,234.2,707.1)" />
<use xlink:href="#f2_a8" transform="matrix(11,0,0,11,243.8,707.1)" />
<use xlink:href="#f2_7z" transform="matrix(11,0,0,11,247.8,707.1)" />
<use xlink:href="#f2_ch" transform="matrix(11,0,0,11,255.9,707.1)" />
<use xlink:href="#f2_7z" transform="matrix(11,0,0,11,263.6,707.1)" />
<use xlink:href="#f2_a8" transform="matrix(11,0,0,11,272,707.1)" />
<use xlink:href="#f2_b5" transform="matrix(11,0,0,11,276,707.1)" />
<use xlink:href="#f2_77" transform="matrix(11,0,0,11,286.3,707.1)" />
<use xlink:href="#f2_b5" transform="matrix(11,0,0,11,294.4,707.1)" />
<use xlink:href="#f2_bf" transform="matrix(11,0,0,11,304.6,707.1)" />
<use xlink:href="#f2_9n" transform="matrix(11,0,0,11,310.1,707.1)" />
<use xlink:href="#f2_7z" transform="matrix(11,0,0,11,318.9,707.1)" />
<use xlink:href="#f2_b5" transform="matrix(11,0,0,11,331,707.1)" />
<use xlink:href="#f2_bf" transform="matrix(11,0,0,11,337.6,707.1)" />
<use xlink:href="#f2_7z" transform="matrix(11,0,0,11,343.1,707.1)" />
<use xlink:href="#f2_ae" transform="matrix(11,0,0,11,351.5,707.1)" />
<use xlink:href="#f2_7z" transform="matrix(11,0,0,11,368.7,707.1)" />
<use xlink:href="#f2_a8" transform="matrix(11,0,0,11,377.1,707.1)" />
<use xlink:href="#f2_am" transform="matrix(11,0,0,11,381.2,707.1)" />
<use xlink:href="#f2_af" transform="matrix(11,0,0,11,390,707.1)" />
<use xlink:href="#f2_9d" transform="matrix(11,0,0,11,398.8,707.1)" />
<use xlink:href="#f2_77" transform="matrix(11,0,0,11,406.8,707.1)" />
<use xlink:href="#f2_bf" transform="matrix(11,0,0,11,414.9,707.1)" />
<use xlink:href="#f2_7z" transform="matrix(11,0,0,11,420.4,707.1)" />
<use xlink:href="#f2_b5" transform="matrix(11,0,0,11,428.8,707.1)" />
<use xlink:href="#f2_nt" transform="matrix(11,0,0,11,435.4,707.1)" />
<use xlink:href="#f2_2t" transform="matrix(11,0,0,11,443.9,707.1)" />
<use xlink:href="#f2_9n" transform="matrix(11,0,0,11,451.9,707.1)" />
<use xlink:href="#f2_9q" transform="matrix(11,0,0,11,460.7,707.1)" />
<use xlink:href="#f2_b5" transform="matrix(11,0,0,11,464.7,707.1)" />
<use xlink:href="#f2_9q" transform="matrix(11,0,0,11,475,707.1)" />
<use xlink:href="#f2_b5" transform="matrix(11,0,0,11,479,707.1)" />
<use xlink:href="#f2_b5" transform="matrix(11,0,0,11,488.9,707.1)" />
<use xlink:href="#f2_7z" transform="matrix(11,0,0,11,495.5,707.1)" />
<use xlink:href="#f2_7z" transform="matrix(11,0,0,11,503.9,707.1)" />
<use xlink:href="#f2_af" transform="matrix(11,0,0,11,512.4,707.1)" />
<use xlink:href="#f2_9q" transform="matrix(11,0,0,11,524.8,707.1)" />
<use xlink:href="#f2_af" transform="matrix(11,0,0,11,528.8,707.1)" />
<use xlink:href="#f2_7k" transform="matrix(11,0,0,11,541.3,707.1)" />
<use xlink:href="#f2_77" transform="matrix(11,0,0,11,550.1,707.1)" />
<use xlink:href="#f2_af" transform="matrix(11,0,0,11,558.2,707.1)" />
<use xlink:href="#f2_co" transform="matrix(11,0,0,11,567,707.1)" />
<use xlink:href="#f2_77" transform="matrix(11,0,0,11,574.7,707.1)" />
<use xlink:href="#f2_af" transform="matrix(11,0,0,11,582.7,707.1)" />
<use xlink:href="#f2_nt" transform="matrix(11,0,0,11,591.5,707.1)" />
</g>
<path fill-rule="evenodd" d="M110,933.1H742.8V911.8H110v21.3Z" class="g0_77" />
<g fill="#000000" >
<use xlink:href="#f0_3d" transform="matrix(11,0,0,11,82.5,928.7)" />
<use xlink:href="#f1_5" transform="matrix(11,0,0,11,110,928.7)" />
<use xlink:href="#f1_7v" transform="matrix(11,0,0,11,120.3,928.7)" />
<use xlink:href="#f1_ch" transform="matrix(11,0,0,11,129.5,928.7)" />
<use xlink:href="#f1_7z" transform="matrix(11,0,0,11,137.5,928.7)" />
<use xlink:href="#f1_af" transform="matrix(11,0,0,11,145.9,928.7)" />
<use xlink:href="#f1_bf" transform="matrix(11,0,0,11,155.1,928.7)" />
<use xlink:href="#f1_9q" transform="matrix(11,0,0,11,160.9,928.7)" />
<use xlink:href="#f1_bf" transform="matrix(11,0,0,11,165,928.7)" />
<use xlink:href="#f1_9q" transform="matrix(11,0,0,11,170.8,928.7)" />
<use xlink:href="#f1_am" transform="matrix(11,0,0,11,174.9,928.7)" />
<use xlink:href="#f1_c6" transform="matrix(11,0,0,11,183.7,928.7)" />
<use xlink:href="#f1_b5" transform="matrix(11,0,0,11,192.8,928.7)" />
<use xlink:href="#f1_2j" transform="matrix(11,0,0,11,210,928.7)" />
<use xlink:href="#f1_am" transform="matrix(11,0,0,11,219.5,928.7)" />
<use xlink:href="#f1_am" transform="matrix(11,0,0,11,228.4,928.7)" />
<use xlink:href="#f1_bf" transform="matrix(11,0,0,11,237.5,928.7)" />
<use xlink:href="#f1_ae" transform="matrix(11,0,0,11,254,928.7)" />
<use xlink:href="#f1_am" transform="matrix(11,0,0,11,267.5,928.7)" />
<use xlink:href="#f1_7v" transform="matrix(11,0,0,11,276.7,928.7)" />
<use xlink:href="#f1_9q" transform="matrix(11,0,0,11,285.8,928.7)" />
<use xlink:href="#f1_89" transform="matrix(11,0,0,11,289.5,928.7)" />
<use xlink:href="#f1_9q" transform="matrix(11,0,0,11,295,928.7)" />
<use xlink:href="#f1_7l" transform="matrix(11,0,0,11,299,928.7)" />
<use xlink:href="#f1_77" transform="matrix(11,0,0,11,306,928.7)" />
<use xlink:href="#f1_bf" transform="matrix(11,0,0,11,314.4,928.7)" />
<use xlink:href="#f1_9q" transform="matrix(11,0,0,11,320.2,928.7)" />
<use xlink:href="#f1_am" transform="matrix(11,0,0,11,324.3,928.7)" />
<use xlink:href="#f1_af" transform="matrix(11,0,0,11,333.4,928.7)" />
<use xlink:href="#f1_b5" transform="matrix(11,0,0,11,342.6,928.7)" />
<use xlink:href="#f1_ns" transform="matrix(11,0,0,11,349.2,928.7)" />
<use xlink:href="#f2_39" transform="matrix(11,0,0,11,364.6,928.7)" />
<use xlink:href="#f2_9n" transform="matrix(11,0,0,11,379.6,928.7)" />
<use xlink:href="#f2_7z" transform="matrix(11,0,0,11,388.5,928.7)" />
<use xlink:href="#f2_af" transform="matrix(11,0,0,11,396.9,928.7)" />
<use xlink:href="#f2_77" transform="matrix(11,0,0,11,416.3,928.7)" />
<use xlink:href="#f2_7v" transform="matrix(11,0,0,11,424.4,928.7)" />
<use xlink:href="#f2_ch" transform="matrix(11,0,0,11,433.2,928.7)" />
<use xlink:href="#f2_7z" transform="matrix(11,0,0,11,440.9,928.7)" />
<use xlink:href="#f2_af" transform="matrix(11,0,0,11,449.3,928.7)" />
<use xlink:href="#f2_bf" transform="matrix(11,0,0,11,458.1,928.7)" />
<use xlink:href="#f2_9q" transform="matrix(11,0,0,11,463.6,928.7)" />
<use xlink:href="#f2_bf" transform="matrix(11,0,0,11,467.6,928.7)" />
<use xlink:href="#f2_9q" transform="matrix(11,0,0,11,473.1,928.7)" />
<use xlink:href="#f2_am" transform="matrix(11,0,0,11,476.8,928.7)" />
<use xlink:href="#f2_c6" transform="matrix(11,0,0,11,485.6,928.7)" />
<use xlink:href="#f2_b5" transform="matrix(11,0,0,11,494.4,928.7)" />
<use xlink:href="#f2_b1" transform="matrix(11,0,0,11,511.6,928.7)" />
<use xlink:href="#f2_am" transform="matrix(11,0,0,11,517.5,928.7)" />
<use xlink:href="#f2_am" transform="matrix(11,0,0,11,526.3,928.7)" />
<use xlink:href="#f2_bf" transform="matrix(11,0,0,11,535.1,928.7)" />
<use xlink:href="#f2_b5" transform="matrix(11,0,0,11,540.6,928.7)" />
<use xlink:href="#f2_77" transform="matrix(11,0,0,11,557.8,928.7)" />
<use xlink:href="#f2_b1" transform="matrix(11,0,0,11,565.9,928.7)" />
<use xlink:href="#f2_7z" transform="matrix(11,0,0,11,571.8,928.7)" />
<use xlink:href="#f2_ae" transform="matrix(11,0,0,11,590.8,928.7)" />
<use xlink:href="#f2_am" transform="matrix(11,0,0,11,604.3,928.7)" />
<use xlink:href="#f2_7v" transform="matrix(11,0,0,11,613.1,928.7)" />
<use xlink:href="#f2_9q" transform="matrix(11,0,0,11,621.9,928.7)" />
<use xlink:href="#f2_89" transform="matrix(11,0,0,11,626,928.7)" />
<use xlink:href="#f2_9q" transform="matrix(11,0,0,11,631.1,928.7)" />
<use xlink:href="#f2_7z" transform="matrix(11,0,0,11,635.1,928.7)" />
<use xlink:href="#f2_7v" transform="matrix(11,0,0,11,643.5,928.7)" />
<use xlink:href="#f2_89" transform="matrix(11,0,0,11,662.9,928.7)" />
<use xlink:href="#f2_am" transform="matrix(11,0,0,11,668.1,928.7)" />
<use xlink:href="#f2_b1" transform="matrix(11,0,0,11,676.9,928.7)" />
<use xlink:href="#f2_ch" transform="matrix(11,0,0,11,693,928.7)" />
<use xlink:href="#f2_77" transform="matrix(11,0,0,11,700.7,928.7)" />
<use xlink:href="#f2_b1" transform="matrix(11,0,0,11,708.8,928.7)" />
<use xlink:href="#f2_9q" transform="matrix(11,0,0,11,714.7,928.7)" />
<use xlink:href="#f2_am" transform="matrix(11,0,0,11,718.6,928.7)" />
<use xlink:href="#f2_c6" transform="matrix(11,0,0,11,727.4,928.7)" />
<use xlink:href="#f2_b5" transform="matrix(11,0,0,11,736.2,928.7)" />
</g>
<path fill-rule="evenodd" d="M110,953.6h67.9V933.1H110v20.5Z" class="g0_77" />
<g fill="#000000" >
<use xlink:href="#f2_89" transform="matrix(11,0,0,11,110,949.2)" />
<use xlink:href="#f2_c6" transform="matrix(11,0,0,11,115.2,949.2)" />
<use xlink:href="#f2_af" transform="matrix(11,0,0,11,124,949.2)" />
<use xlink:href="#f2_7l" transform="matrix(11,0,0,11,132.8,949.2)" />
<use xlink:href="#f2_bf" transform="matrix(11,0,0,11,139.7,949.2)" />
<use xlink:href="#f2_9q" transform="matrix(11,0,0,11,145.2,949.2)" />
<use xlink:href="#f2_am" transform="matrix(11,0,0,11,149.3,949.2)" />
<use xlink:href="#f2_af" transform="matrix(11,0,0,11,158.1,949.2)" />
<use xlink:href="#f2_b5" transform="matrix(11,0,0,11,166.9,949.2)" />
<use xlink:href="#f2_nt" transform="matrix(11,0,0,11,173.5,949.2)" />
</g>
<path fill-rule="evenodd" d="M110,975.3H742.8V953.6H110v21.7Z" class="g0_77" />
<g fill="#000000" >
<use xlink:href="#f0_3d" transform="matrix(11,0,0,11,82.5,970.5)" />
<use xlink:href="#f1_5" transform="matrix(11,0,0,11,110,970.5)" />
<use xlink:href="#f1_7v" transform="matrix(11,0,0,11,120.3,970.5)" />
<use xlink:href="#f1_ch" transform="matrix(11,0,0,11,129.5,970.5)" />
<use xlink:href="#f1_7z" transform="matrix(11,0,0,11,137.5,970.5)" />
<use xlink:href="#f1_af" transform="matrix(11,0,0,11,145.9,970.5)" />
<use xlink:href="#f1_bf" transform="matrix(11,0,0,11,155.1,970.5)" />
<use xlink:href="#f1_9q" transform="matrix(11,0,0,11,160.9,970.5)" />
<use xlink:href="#f1_bf" transform="matrix(11,0,0,11,165,970.5)" />
<use xlink:href="#f1_9q" transform="matrix(11,0,0,11,170.8,970.5)" />
<use xlink:href="#f1_am" transform="matrix(11,0,0,11,174.9,970.5)" />
<use xlink:href="#f1_c6" transform="matrix(11,0,0,11,183.7,970.5)" />
<use xlink:href="#f1_b5" transform="matrix(11,0,0,11,192.8,970.5)" />
<use xlink:href="#f1_b1" transform="matrix(11,0,0,11,205.6,970.5)" />
<use xlink:href="#f1_am" transform="matrix(11,0,0,11,211.5,970.5)" />
<use xlink:href="#f1_am" transform="matrix(11,0,0,11,220.6,970.5)" />
<use xlink:href="#f1_bf" transform="matrix(11,0,0,11,229.8,970.5)" />
<use xlink:href="#f1_ae" transform="matrix(11,0,0,11,241.9,970.5)" />
<use xlink:href="#f1_am" transform="matrix(11,0,0,11,255.4,970.5)" />
<use xlink:href="#f1_7v" transform="matrix(11,0,0,11,264.6,970.5)" />
<use xlink:href="#f1_9q" transform="matrix(11,0,0,11,273.7,970.5)" />
<use xlink:href="#f1_89" transform="matrix(11,0,0,11,277.4,970.5)" />
<use xlink:href="#f1_9q" transform="matrix(11,0,0,11,282.9,970.5)" />
<use xlink:href="#f1_7z" transform="matrix(11,0,0,11,286.9,970.5)" />
<use xlink:href="#f1_7v" transform="matrix(11,0,0,11,295.3,970.5)" />
<use xlink:href="#f1_89" transform="matrix(11,0,0,11,310.7,970.5)" />
<use xlink:href="#f1_am" transform="matrix(11,0,0,11,315.8,970.5)" />
<use xlink:href="#f1_b1" transform="matrix(11,0,0,11,325,970.5)" />
<use xlink:href="#f1_b5" transform="matrix(11,0,0,11,337,970.5)" />
<use xlink:href="#f1_bf" transform="matrix(11,0,0,11,343.6,970.5)" />
<use xlink:href="#f1_am" transform="matrix(11,0,0,11,349.5,970.5)" />
<use xlink:href="#f1_b1" transform="matrix(11,0,0,11,358.7,970.5)" />
<use xlink:href="#f1_77" transform="matrix(11,0,0,11,364.5,970.5)" />
<use xlink:href="#f1_9d" transform="matrix(11,0,0,11,372.9,970.5)" />
<use xlink:href="#f1_7z" transform="matrix(11,0,0,11,381,970.5)" />
<use xlink:href="#f1_ns" transform="matrix(11,0,0,11,389.4,970.5)" />
<use xlink:href="#f2_2t" transform="matrix(11,0,0,11,401,970.5)" />
<use xlink:href="#f2_9n" transform="matrix(11,0,0,11,409,970.5)" />
<use xlink:href="#f2_7z" transform="matrix(11,0,0,11,417.8,970.5)" />
<use xlink:href="#f2_co" transform="matrix(11,0,0,11,426.2,970.5)" />
<use xlink:href="#f2_77" transform="matrix(11,0,0,11,440.2,970.5)" />
<use xlink:href="#f2_b1" transform="matrix(11,0,0,11,448.2,970.5)" />
<use xlink:href="#f2_7z" transform="matrix(11,0,0,11,454.1,970.5)" />
<use xlink:href="#f2_b5" transform="matrix(11,0,0,11,468.8,970.5)" />
<use xlink:href="#f2_ci" transform="matrix(11,0,0,11,475,970.5)" />
<use xlink:href="#f2_am" transform="matrix(11,0,0,11,487.1,970.5)" />
<use xlink:href="#f2_a8" transform="matrix(11,0,0,11,495.9,970.5)" />
<use xlink:href="#f2_a8" transform="matrix(11,0,0,11,499.9,970.5)" />
<use xlink:href="#f2_7z" transform="matrix(11,0,0,11,503.9,970.5)" />
<use xlink:href="#f2_af" transform="matrix(11,0,0,11,512.3,970.5)" />
<use xlink:href="#f2_77" transform="matrix(11,0,0,11,527.4,970.5)" />
<use xlink:href="#f2_af" transform="matrix(11,0,0,11,535.4,970.5)" />
<use xlink:href="#f2_7v" transform="matrix(11,0,0,11,544.2,970.5)" />
<use xlink:href="#f2_bf" transform="matrix(11,0,0,11,559.3,970.5)" />
<use xlink:href="#f2_77" transform="matrix(11,0,0,11,564.8,970.5)" />
<use xlink:href="#f2_a5" transform="matrix(11,0,0,11,572.8,970.5)" />
<use xlink:href="#f2_7z" transform="matrix(11,0,0,11,580.5,970.5)" />
<use xlink:href="#f2_c6" transform="matrix(11,0,0,11,595.2,970.5)" />
<use xlink:href="#f2_ay" transform="matrix(11,0,0,11,604,970.5)" />
<use xlink:href="#f2_ch" transform="matrix(11,0,0,11,619,970.5)" />
<use xlink:href="#f2_77" transform="matrix(11,0,0,11,626.7,970.5)" />
<use xlink:href="#f2_b1" transform="matrix(11,0,0,11,634.8,970.5)" />
<use xlink:href="#f2_9q" transform="matrix(11,0,0,11,640.3,970.5)" />
<use xlink:href="#f2_am" transform="matrix(11,0,0,11,644.3,970.5)" />
<use xlink:href="#f2_c6" transform="matrix(11,0,0,11,653.1,970.5)" />
<use xlink:href="#f2_b5" transform="matrix(11,0,0,11,661.9,970.5)" />
<use xlink:href="#f2_b5" transform="matrix(11,0,0,11,674.7,970.5)" />
<use xlink:href="#f2_9n" transform="matrix(11,0,0,11,681.3,970.5)" />
<use xlink:href="#f2_77" transform="matrix(11,0,0,11,690.1,970.5)" />
<use xlink:href="#f2_ay" transform="matrix(11,0,0,11,698.2,970.5)" />
<use xlink:href="#f2_7z" transform="matrix(11,0,0,11,707,970.5)" />
<use xlink:href="#f2_b5" transform="matrix(11,0,0,11,715.4,970.5)" />
<use xlink:href="#f2_bf" transform="matrix(11,0,0,11,728.2,970.5)" />
<use xlink:href="#f2_am" transform="matrix(11,0,0,11,733.7,970.5)" />
</g>
<path fill-rule="evenodd" d="M110,995.8H714.9V975.3H110v20.5Z" class="g0_77" />
<g fill="#000000" >
<use xlink:href="#f2_77" transform="matrix(11,0,0,11,110,991.4)" />
<use xlink:href="#f2_7l" transform="matrix(11,0,0,11,118.1,991.4)" />
<use xlink:href="#f2_7l" transform="matrix(11,0,0,11,125.1,991.4)" />
<use xlink:href="#f2_am" transform="matrix(11,0,0,11,132,991.4)" />
<use xlink:href="#f2_ae" transform="matrix(11,0,0,11,140.8,991.4)" />
<use xlink:href="#f2_ae" transform="matrix(11,0,0,11,154.4,991.4)" />
<use xlink:href="#f2_am" transform="matrix(11,0,0,11,167.9,991.4)" />
<use xlink:href="#f2_7v" transform="matrix(11,0,0,11,176.7,991.4)" />
<use xlink:href="#f2_77" transform="matrix(11,0,0,11,185.5,991.4)" />
<use xlink:href="#f2_bf" transform="matrix(11,0,0,11,193.6,991.4)" />
<use xlink:href="#f2_7z" transform="matrix(11,0,0,11,199.1,991.4)" />
<use xlink:href="#f2_bf" transform="matrix(11,0,0,11,211.2,991.4)" />
<use xlink:href="#f2_9n" transform="matrix(11,0,0,11,216.7,991.4)" />
<use xlink:href="#f2_7z" transform="matrix(11,0,0,11,225.5,991.4)" />
<use xlink:href="#f2_b5" transform="matrix(11,0,0,11,237.6,991.4)" />
<use xlink:href="#f2_bf" transform="matrix(11,0,0,11,244.5,991.4)" />
<use xlink:href="#f2_am" transform="matrix(11,0,0,11,250,991.4)" />
<use xlink:href="#f2_b1" transform="matrix(11,0,0,11,258.8,991.4)" />
<use xlink:href="#f2_7z" transform="matrix(11,0,0,11,264.7,991.4)" />
<use xlink:href="#f2_7v" transform="matrix(11,0,0,11,273.1,991.4)" />
<use xlink:href="#f2_77" transform="matrix(11,0,0,11,285.6,991.4)" />
<use xlink:href="#f2_af" transform="matrix(11,0,0,11,293.7,991.4)" />
<use xlink:href="#f2_7v" transform="matrix(11,0,0,11,302.5,991.4)" />
<use xlink:href="#f2_b1" transform="matrix(11,0,0,11,314.9,991.4)" />
<use xlink:href="#f2_7z" transform="matrix(11,0,0,11,320.8,991.4)" />
<use xlink:href="#f2_b5" transform="matrix(11,0,0,11,329.2,991.4)" />
<use xlink:href="#f2_7z" transform="matrix(11,0,0,11,335.8,991.4)" />
<use xlink:href="#f2_b1" transform="matrix(11,0,0,11,344.2,991.4)" />
<use xlink:href="#f2_ch" transform="matrix(11,0,0,11,350.1,991.4)" />
<use xlink:href="#f2_7z" transform="matrix(11,0,0,11,357.8,991.4)" />
<use xlink:href="#f2_89" transform="matrix(11,0,0,11,369.9,991.4)" />
<use xlink:href="#f2_am" transform="matrix(11,0,0,11,375,991.4)" />
<use xlink:href="#f2_am" transform="matrix(11,0,0,11,383.8,991.4)" />
<use xlink:href="#f2_7v" transform="matrix(11,0,0,11,392.6,991.4)" />
<use xlink:href="#f2_a8" transform="matrix(11,0,0,11,405.4,991.4)" />
<use xlink:href="#f2_9q" transform="matrix(11,0,0,11,409.4,991.4)" />
<use xlink:href="#f2_a5" transform="matrix(11,0,0,11,413.5,991.4)" />
<use xlink:href="#f2_7z" transform="matrix(11,0,0,11,421.1,991.4)" />
<use xlink:href="#f2_bf" transform="matrix(11,0,0,11,433.2,991.4)" />
<use xlink:href="#f2_c6" transform="matrix(11,0,0,11,438.7,991.4)" />
<use xlink:href="#f2_7k" transform="matrix(11,0,0,11,447.5,991.4)" />
<use xlink:href="#f2_7z" transform="matrix(11,0,0,11,456.3,991.4)" />
<use xlink:href="#f2_b1" transform="matrix(11,0,0,11,464.7,991.4)" />
<use xlink:href="#f2_am" transform="matrix(11,0,0,11,470.6,991.4)" />
<use xlink:href="#f2_c6" transform="matrix(11,0,0,11,479.5,991.4)" />
<use xlink:href="#f2_b5" transform="matrix(11,0,0,11,488.3,991.4)" />
<use xlink:href="#f2_nq" transform="matrix(11,0,0,11,494.8,991.4)" />
<use xlink:href="#f2_89" transform="matrix(11,0,0,11,502.5,991.4)" />
<use xlink:href="#f2_9q" transform="matrix(11,0,0,11,507.7,991.4)" />
<use xlink:href="#f2_7k" transform="matrix(11,0,0,11,511.7,991.4)" />
<use xlink:href="#f2_b1" transform="matrix(11,0,0,11,520.5,991.4)" />
<use xlink:href="#f2_am" transform="matrix(11,0,0,11,526.4,991.4)" />
<use xlink:href="#f2_c6" transform="matrix(11,0,0,11,535.2,991.4)" />
<use xlink:href="#f2_b5" transform="matrix(11,0,0,11,544,991.4)" />
<use xlink:href="#f2_nq" transform="matrix(11,0,0,11,550.6,991.4)" />
<use xlink:href="#f2_af" transform="matrix(11,0,0,11,558.3,991.4)" />
<use xlink:href="#f2_am" transform="matrix(11,0,0,11,567.4,991.4)" />
<use xlink:href="#f2_7v" transform="matrix(11,0,0,11,576.2,991.4)" />
<use xlink:href="#f2_c6" transform="matrix(11,0,0,11,585,991.4)" />
<use xlink:href="#f2_a8" transform="matrix(11,0,0,11,593.8,991.4)" />
<use xlink:href="#f2_am" transform="matrix(11,0,0,11,597.8,991.4)" />
<use xlink:href="#f2_b5" transform="matrix(11,0,0,11,606.6,991.4)" />
<use xlink:href="#f2_7z" transform="matrix(11,0,0,11,613.2,991.4)" />
<use xlink:href="#f2_nq" transform="matrix(11,0,0,11,621.6,991.4)" />
<use xlink:href="#f2_7k" transform="matrix(11,0,0,11,629.3,991.4)" />
<use xlink:href="#f2_7z" transform="matrix(11,0,0,11,638.1,991.4)" />
<use xlink:href="#f2_77" transform="matrix(11,0,0,11,646.5,991.4)" />
<use xlink:href="#f2_7v" transform="matrix(11,0,0,11,654.6,991.4)" />
<use xlink:href="#f2_7z" transform="matrix(11,0,0,11,663.5,991.4)" />
<use xlink:href="#f2_7v" transform="matrix(11,0,0,11,671.9,991.4)" />
<use xlink:href="#f2_nq" transform="matrix(11,0,0,11,680.7,991.4)" />
<use xlink:href="#f2_7z" transform="matrix(11,0,0,11,688.4,991.4)" />
<use xlink:href="#f2_bf" transform="matrix(11,0,0,11,697.2,991.4)" />
<use xlink:href="#f2_7l" transform="matrix(11,0,0,11,702.7,991.4)" />
<use xlink:href="#f2_nt" transform="matrix(11,0,0,11,709.6,991.4)" />
</g>
<image preserveAspectRatio="none" x="300" y="55" width="252" height="199" xlink:href="img/1.png" />
<image preserveAspectRatio="none" x="235" y="337" width="383" height="270" xlink:href="img/2.png" />
<image preserveAspectRatio="none" x="276" y="711" width="301" height="201" xlink:href="img/3.png" />
<g fill="#000000" >
<use xlink:href="#f4_o" transform="matrix(8,0,0,8,680.7,1121.9)" />
</g>
<defs>
<path d="M273,157c0,0,-114,0,-193,80C80,237,0,317,0,431c0,0,0,112,80,192c0,0,79,80,193,80c0,0,113,0,192,-80c0,0,80,-80,80,-192c0,0,0,-114,-80,-194c0,0,-79,-80,-192,-80Z" 
id="f0_3d"
transform="scale(0.001,-0.001)" />

<path d="M402,542c0,0,41,0,72,10c0,0,32,10,52,28c0,0,21,18,32,44c0,0,10,25,10,56c0,0,0,48,-21,81c0,0,-22,33,-71,46c0,0,-15,4,-34,6c0,0,-19,2,-52,2H302V542ZM203,-4c0,0,-28,0,-47,2c0,0,-19,2,-30,5c0,0,-11,4,-16,10c0,0,-4,6,-4,13V903c0,0,0,33,16,48c0,0,17,14,42,14H414c0,0,38,0,62,-1c0,0,25,-2,45,-4c0,0,58,-8,105,-28c0,0,46,-21,79,-53c0,0,32,-32,49,-77c0,0,17,-44,17,-101c0,0,0,-49,-12,-89c0,0,-12,-40,-36,-71c0,0,-24,-31,-59,-54c0,0,-35,-23,-80,-38c0,0,22,-10,41,-25c0,0,19,-15,36,-36c0,0,17,-22,31,-49c0,0,15,-27,30,-61L803,87c0,0,11,-28,15,-41c0,0,3,-14,3,-21c0,0,0,-8,-3,-14c0,0,-3,-5,-14,-9c0,0,-11,-3,-33,-4c0,0,-21,-2,-59,-2c0,0,-31,0,-50,2c0,0,-18,1,-29,4c0,0,-11,4,-15,11c0,0,-5,6,-8,15L524,244c0,0,-16,37,-31,65c0,0,-14,28,-33,48c0,0,-18,19,-42,28c0,0,-24,10,-55,10H302V27c0,0,0,-8,-5,-14c0,0,-5,-6,-16,-10c0,0,-11,-3,-30,-5c0,0,-18,-2,-48,-2Z" 
id="f1_2j"
transform="scale(0.001,-0.001)" />

<path d="M526,431c0,0,2,79,-32,124c0,0,-34,45,-105,45c0,0,-35,0,-62,-13c0,0,-26,-13,-44,-36c0,0,-17,-23,-27,-54c0,0,-9,-31,-11,-66ZM410,-17c0,0,-88,0,-155,22c0,0,-67,22,-112,68c0,0,-44,45,-66,115c0,0,-22,69,-22,162c0,0,0,89,23,161c0,0,23,71,67,120c0,0,44,50,107,76c0,0,63,26,142,26c0,0,84,0,143,-24c0,0,59,-25,97,-69c0,0,38,-43,56,-103c0,0,18,-60,18,-130V377c0,0,0,-34,-15,-51c0,0,-16,-16,-43,-16H245c0,0,0,-43,10,-77c0,0,11,-35,33,-59c0,0,22,-24,56,-37c0,0,35,-13,83,-13c0,0,50,0,87,7c0,0,37,8,65,16c0,0,27,9,45,16c0,0,18,7,29,7c0,0,6,0,11,-2c0,0,4,-3,7,-10c0,0,3,-7,4,-19c0,0,2,-12,2,-31c0,0,0,-16,-1,-28c0,0,-1,-12,-2,-20c0,0,-2,-8,-5,-14c0,0,-3,-5,-8,-10c0,0,-5,-6,-26,-15c0,0,-22,-9,-55,-17c0,0,-34,-8,-77,-14c0,0,-43,-7,-93,-7Z" 
id="f1_7z"
transform="scale(0.001,-0.001)" />

<path d="M275,-17c0,0,-37,0,-71,6c0,0,-34,6,-61,13c0,0,-27,9,-45,18c0,0,-18,9,-26,17c0,0,-8,8,-13,25c0,0,-4,17,-4,49c0,0,0,22,1,35c0,0,2,13,5,21c0,0,3,8,7,10c0,0,5,3,11,3c0,0,9,0,25,-9c0,0,16,-10,40,-21c0,0,24,-11,55,-21c0,0,32,-10,72,-10c0,0,26,0,46,5c0,0,19,6,34,15c0,0,14,10,22,25c0,0,7,15,7,34c0,0,0,23,-13,39c0,0,-14,16,-37,28c0,0,-23,11,-52,22c0,0,-28,10,-58,23c0,0,-31,13,-59,29c0,0,-29,17,-52,41c0,0,-23,23,-37,57c0,0,-13,34,-13,81c0,0,0,47,18,87c0,0,19,40,54,69c0,0,35,28,86,44c0,0,50,15,113,15c0,0,31,0,61,-4c0,0,29,-5,53,-11c0,0,24,-7,40,-15c0,0,17,-7,24,-13c0,0,7,-6,10,-11c0,0,3,-6,4,-14c0,0,2,-7,3,-19c0,0,1,-12,1,-29c0,0,0,-20,-1,-33c0,0,-1,-12,-4,-20c0,0,-2,-7,-7,-10c0,0,-4,-3,-10,-3c0,0,-7,0,-21,8c0,0,-14,8,-36,17c0,0,-21,9,-49,17c0,0,-28,7,-64,7c0,0,-25,0,-44,-5c0,0,-19,-5,-30,-15c0,0,-12,-9,-18,-22c0,0,-6,-14,-6,-28c0,0,0,-24,14,-39c0,0,14,-16,37,-28c0,0,23,-12,53,-22c0,0,29,-11,59,-23c0,0,31,-12,60,-29c0,0,30,-16,53,-40c0,0,23,-24,37,-57c0,0,14,-33,14,-79c0,0,0,-57,-21,-100c0,0,-21,-43,-60,-72c0,0,-39,-29,-92,-43c0,0,-53,-15,-115,-15Z" 
id="f1_b5"
transform="scale(0.001,-0.001)" />

<path d="M432,142c0,0,36,0,62,18c0,0,26,19,42,49c0,0,16,31,24,69c0,0,8,38,8,76c0,0,0,43,-6,82c0,0,-7,39,-22,70c0,0,-15,30,-40,49c0,0,-25,18,-62,18c0,0,-19,0,-37,-6c0,0,-19,-5,-38,-18c0,0,-19,-13,-39,-33c0,0,-20,-20,-42,-50V247c0,0,39,-51,75,-78c0,0,36,-27,75,-27ZM188,-270c0,0,-28,0,-46,2c0,0,-18,3,-28,7c0,0,-11,4,-16,10c0,0,-4,6,-4,13V691c0,0,0,7,4,13c0,0,3,5,13,9c0,0,9,4,24,6c0,0,15,2,39,2c0,0,22,0,37,-2c0,0,15,-2,25,-6c0,0,9,-4,13,-9c0,0,4,-6,4,-13V612c0,0,29,30,57,53c0,0,28,23,57,38c0,0,29,15,60,23c0,0,31,7,66,7c0,0,73,0,124,-28c0,0,52,-29,84,-79c0,0,33,-50,48,-117c0,0,15,-66,15,-141c0,0,0,-89,-19,-161c0,0,-19,-71,-56,-121C689,86,652,36,598,9c0,0,-54,-26,-125,-26c0,0,-29,0,-53,6c0,0,-24,6,-47,16c0,0,-23,12,-45,29c0,0,-23,17,-46,40V-238c0,0,0,-7,-5,-13c0,0,-4,-6,-15,-10c0,0,-11,-4,-29,-7c0,0,-18,-2,-45,-2Z" 
id="f1_ay"
transform="scale(0.001,-0.001)" />

<path d="M188,-4c0,0,-28,0,-46,2c0,0,-18,2,-28,5c0,0,-11,3,-16,9c0,0,-4,5,-4,13V689c0,0,0,8,4,13c0,0,5,6,16,10c0,0,10,4,28,6c0,0,18,3,46,3c0,0,27,0,45,-3c0,0,18,-2,29,-6c0,0,11,-4,15,-10c0,0,5,-5,5,-13V25c0,0,0,-8,-5,-13c0,0,-4,-6,-15,-9c0,0,-11,-3,-29,-5c0,0,-18,-2,-45,-2Zm-1,820c0,0,-63,0,-85,21c0,0,-22,21,-22,75c0,0,0,57,23,79c0,0,23,22,86,22c0,0,63,0,85,-21c0,0,22,-21,22,-76c0,0,0,-56,-23,-78c0,0,-23,-22,-86,-22Z" 
id="f1_9q"
transform="scale(0.001,-0.001)" />

<path d="M188,-4c0,0,-28,0,-46,2c0,0,-18,2,-28,5c0,0,-11,3,-16,9c0,0,-4,5,-4,13V691c0,0,0,7,4,13c0,0,3,5,13,9c0,0,10,4,25,6c0,0,15,2,38,2c0,0,24,0,40,-2c0,0,15,-2,24,-6c0,0,9,-4,12,-9c0,0,4,-6,4,-13V608c0,0,26,37,49,61c0,0,23,25,44,39c0,0,21,14,42,20c0,0,21,5,42,5c0,0,10,0,21,-1c0,0,11,-1,23,-4c0,0,12,-2,21,-5c0,0,9,-4,13,-8c0,0,4,-3,6,-8c0,0,2,-4,3,-12c0,0,2,-8,2,-24c0,0,1,-15,1,-42c0,0,0,-27,-1,-44c0,0,-2,-17,-5,-27c0,0,-3,-10,-8,-13c0,0,-5,-4,-12,-4c0,0,-6,0,-13,3c0,0,-8,2,-17,5c0,0,-10,3,-21,6c0,0,-11,2,-24,2c0,0,-16,0,-32,-6c0,0,-15,-6,-32,-20c0,0,-17,-13,-35,-36c0,0,-19,-22,-39,-55V25c0,0,0,-8,-5,-13c0,0,-4,-6,-15,-9c0,0,-11,-3,-29,-5c0,0,-18,-2,-45,-2Z" 
id="f1_b1"
transform="scale(0.001,-0.001)" />

<path d="M337,115c0,0,39,0,73,21c0,0,33,20,67,59V308H405c0,0,-45,0,-77,-7c0,0,-32,-6,-53,-20c0,0,-20,-13,-29,-32c0,0,-9,-19,-9,-44c0,0,0,-42,26,-66c0,0,27,-24,74,-24ZM296,-17c0,0,-53,0,-98,14c0,0,-44,13,-77,40c0,0,-32,28,-50,68c0,0,-18,40,-18,94c0,0,0,58,23,101c0,0,22,43,68,71c0,0,45,28,112,42c0,0,67,13,156,13h65v40c0,0,0,32,-6,55c0,0,-7,24,-21,39c0,0,-15,16,-39,23c0,0,-24,8,-60,8c0,0,-47,0,-84,-11c0,0,-37,-10,-66,-23c0,0,-28,-13,-47,-23c0,0,-19,-11,-31,-11c0,0,-9,0,-15,5c0,0,-6,6,-10,15c0,0,-5,10,-7,24c0,0,-2,14,-2,31c0,0,0,23,4,37c0,0,3,13,14,24c0,0,10,11,36,24c0,0,27,13,62,25c0,0,35,11,76,18c0,0,42,7,86,7c0,0,78,0,134,-15c0,0,55,-15,91,-47c0,0,36,-32,53,-82c0,0,16,-50,16,-118V23c0,0,0,-11,-7,-17c0,0,-8,-6,-24,-7c0,0,-16,-3,-47,-3c0,0,-34,0,-49,3c0,0,-15,1,-21,7c0,0,-7,6,-7,17V76C506,76,465,32,412,7c0,0,-52,-24,-116,-24Z" 
id="f1_77"
transform="scale(0.001,-0.001)" />

<path d="M344,-14c0,0,-56,0,-97,14c0,0,-42,14,-69,43c0,0,-26,29,-39,74c0,0,-13,45,-13,106V563H47c0,0,-15,0,-22,18c0,0,-7,17,-7,58c0,0,0,22,1,37c0,0,2,15,6,24c0,0,4,8,9,12c0,0,6,4,13,4h79V864c0,0,0,8,4,14c0,0,4,6,15,10c0,0,11,4,29,6c0,0,19,2,46,2c0,0,27,0,46,-2c0,0,18,-2,28,-6c0,0,11,-4,15,-10c0,0,5,-6,5,-14V716H459c0,0,7,0,13,-4c0,0,6,-4,9,-12c0,0,4,-9,6,-24c0,0,2,-15,2,-37c0,0,0,-41,-8,-58c0,0,-7,-18,-21,-18H314V251c0,0,0,-54,17,-81c0,0,17,-27,61,-27c0,0,15,0,27,2c0,0,12,3,22,6c0,0,9,4,15,6c0,0,7,3,12,3c0,0,4,0,9,-3c0,0,4,-2,6,-10c0,0,2,-8,4,-21c0,0,2,-14,2,-35c0,0,0,-33,-4,-50c0,0,-4,-18,-11,-25c0,0,-7,-7,-20,-12c0,0,-13,-5,-31,-9c0,0,-17,-4,-38,-6c0,0,-20,-3,-41,-3Z" 
id="f1_bf"
transform="scale(0.001,-0.001)" />

<path d="M409,132c0,0,42,0,73,15c0,0,32,16,52,45c0,0,20,29,29,70c0,0,10,42,10,95c0,0,0,49,-8,91c0,0,-8,41,-26,72c0,0,-19,30,-50,48c0,0,-30,17,-77,17c0,0,-42,0,-73,-16c0,0,-31,-15,-51,-44c0,0,-21,-30,-31,-71c0,0,-10,-42,-10,-95c0,0,0,-49,9,-91c0,0,8,-41,26,-72c0,0,18,-30,49,-47c0,0,32,-17,78,-17ZM402,-17c0,0,-89,0,-154,24c0,0,-66,25,-109,72c0,0,-43,47,-64,115c0,0,-21,69,-21,157c0,0,0,85,23,156c0,0,22,70,68,121c0,0,45,50,113,78c0,0,69,27,160,27c0,0,90,0,155,-24c0,0,66,-24,109,-71c0,0,43,-47,64,-116c0,0,21,-69,21,-157c0,0,0,-86,-23,-156c0,0,-22,-70,-68,-121C676,88,631,38,562,10c0,0,-68,-27,-160,-27Z" 
id="f1_am"
transform="scale(0.001,-0.001)" />

<path d="M275,-270c0,0,-30,0,-47,3c0,0,-18,2,-27,8c0,0,-9,6,-10,15c0,0,-1,9,5,22L284,0c0,0,-9,4,-17,14c0,0,-8,9,-12,20L26,645c0,0,-10,26,-10,40c0,0,0,14,9,22c0,0,9,8,30,11c0,0,22,3,57,3c0,0,32,0,50,-1c0,0,19,-2,29,-6c0,0,11,-5,16,-14c0,0,5,-9,11,-26L375,228h2L521,683c0,0,4,19,11,25c0,0,7,7,24,10c0,0,16,3,57,3c0,0,32,0,53,-3c0,0,21,-3,31,-12c0,0,11,-8,11,-22c0,0,0,-13,-6,-32L480,0L399,-235c0,0,-7,-18,-37,-27c0,0,-29,-8,-87,-8Z" 
id="f1_co"
transform="scale(0.001,-0.001)" />

<path d="M224,-9c0,0,-31,0,-51,6c0,0,-20,4,-32,18c0,0,-13,13,-17,34c0,0,-5,22,-5,53c0,0,0,31,5,53c0,0,4,22,17,36c0,0,12,13,32,19c0,0,20,5,51,5c0,0,30,0,50,-5c0,0,20,-6,33,-19c0,0,12,-14,17,-36c0,0,6,-22,6,-53c0,0,0,-31,-6,-53c0,0,-5,-21,-17,-34C307,15,294,1,274,-3c0,0,-20,-6,-50,-6Zm0,487c0,0,-31,0,-51,6c0,0,-20,5,-32,19c0,0,-13,13,-17,34c0,0,-5,21,-5,52c0,0,0,32,5,54c0,0,4,21,17,35c0,0,12,13,32,19c0,0,20,6,51,6c0,0,30,0,50,-6c0,0,20,-6,33,-19c0,0,12,-14,17,-35c0,0,6,-22,6,-54c0,0,0,-31,-6,-52c0,0,-5,-21,-17,-34c0,0,-13,-14,-33,-19c0,0,-20,-6,-50,-6Z" 
id="f1_ns"
transform="scale(0.001,-0.001)" />

<path d="M372,-4c0,0,-18,0,-30,2c0,0,-13,2,-21,3c0,0,-7,3,-10,8c0,0,-3,4,-3,10V857H36c0,0,-6,0,-11,3c0,0,-5,2,-8,9c0,0,-2,6,-4,17c0,0,-2,10,-2,24c0,0,0,14,2,25c0,0,2,11,4,17c0,0,3,7,8,10c0,0,5,3,11,3H708c0,0,6,0,11,-3c0,0,5,-3,8,-10c0,0,4,-6,5,-17c0,0,2,-11,2,-25c0,0,0,-14,-2,-24c0,0,-1,-11,-5,-17c0,0,-3,-7,-8,-9c0,0,-5,-3,-11,-3H436V19c0,0,0,-6,-3,-10c0,0,-3,-5,-10,-8c0,0,-8,-1,-20,-3c0,0,-12,-2,-31,-2Z" 
id="f2_2t"
transform="scale(0.001,-0.001)" />

<path d="M176,-4c0,0,-18,0,-30,2c0,0,-12,1,-19,3c0,0,-7,3,-10,7c0,0,-3,4,-3,10v997c0,0,0,6,3,11c0,0,3,4,10,7c0,0,7,3,19,5c0,0,12,1,30,1c0,0,18,0,30,-1c0,0,12,-2,19,-5c0,0,7,-3,9,-7c0,0,3,-5,3,-10V614c0,0,53,56,107,83c0,0,54,28,108,28c0,0,67,0,113,-23c0,0,46,-23,74,-61c0,0,29,-38,41,-89c0,0,12,-52,12,-124V18c0,0,0,-6,-3,-10c0,0,-3,-4,-9,-7c0,0,-7,-2,-19,-3c0,0,-12,-2,-30,-2c0,0,-19,0,-30,2c0,0,-12,1,-19,3c0,0,-7,3,-10,7c0,0,-3,4,-3,10V412c0,0,0,58,-9,93c0,0,-9,35,-26,61c0,0,-17,25,-44,38c0,0,-27,14,-63,14c0,0,-46,0,-93,-33c0,0,-46,-33,-97,-96V18c0,0,0,-6,-3,-10c0,0,-2,-4,-9,-7c0,0,-7,-2,-19,-3c0,0,-12,-2,-30,-2Z" 
id="f2_9n"
transform="scale(0.001,-0.001)" />

<path d="M564,420c0,0,2,98,-43,153c0,0,-46,56,-134,56c0,0,-46,0,-80,-18c0,0,-35,-17,-58,-45c0,0,-23,-29,-36,-67c0,0,-12,-37,-14,-79ZM405,-13c0,0,-83,0,-145,22c0,0,-62,24,-105,69c0,0,-42,46,-64,114c0,0,-22,69,-22,160c0,0,0,87,23,156c0,0,22,69,64,117c0,0,43,48,102,74c0,0,60,26,134,26c0,0,79,0,135,-26c0,0,55,-25,91,-68c0,0,36,-43,53,-101c0,0,16,-58,16,-123V384c0,0,0,-29,-14,-41c0,0,-15,-13,-33,-13H199c0,0,0,-56,11,-100c0,0,12,-45,38,-77c0,0,26,-33,68,-50c0,0,41,-17,102,-17c0,0,48,0,85,8c0,0,37,8,65,17c0,0,27,10,44,18c0,0,18,8,27,8c0,0,5,0,9,-3c0,0,4,-2,7,-8c0,0,2,-5,3,-14c0,0,1,-9,1,-23c0,0,0,-9,-1,-16c0,0,0,-8,-2,-13c0,0,-1,-6,-3,-10c0,0,-3,-5,-7,-9c0,0,-4,-4,-24,-13c0,0,-20,-10,-53,-18c0,0,-32,-9,-74,-16c0,0,-42,-7,-90,-7Z" 
id="f2_7z"
transform="scale(0.001,-0.001)" />

<path d="M429,92c0,0,47,0,80,22c0,0,33,23,54,60c0,0,20,38,30,84c0,0,10,46,10,93c0,0,0,52,-8,100c0,0,-8,48,-27,86c0,0,-19,37,-51,60c0,0,-32,22,-80,22c0,0,-24,0,-47,-7c0,0,-23,-7,-47,-23c0,0,-24,-15,-50,-40c0,0,-26,-25,-56,-62V220c0,0,51,-62,97,-95c0,0,45,-33,95,-33ZM176,-271c0,0,-18,0,-30,2c0,0,-12,1,-19,4c0,0,-7,3,-10,8c0,0,-3,4,-3,10V690c0,0,0,6,3,10c0,0,2,5,9,8c0,0,6,3,17,4c0,0,10,1,25,1c0,0,16,0,26,-1c0,0,10,-1,17,-4c0,0,6,-3,9,-7c0,0,3,-4,3,-11V601c0,0,30,31,59,54c0,0,28,23,57,39c0,0,28,15,59,23c0,0,30,8,63,8c0,0,74,0,125,-29c0,0,52,-28,84,-77c0,0,32,-50,47,-115c0,0,15,-65,15,-139c0,0,0,-88,-19,-158c0,0,-19,-70,-56,-119c0,0,-37,-49,-91,-75c0,0,-55,-26,-125,-26c0,0,-30,0,-55,6c0,0,-25,6,-50,18c0,0,-24,13,-48,32c0,0,-24,19,-51,46V-247c0,0,0,-6,-3,-10c0,0,-2,-5,-9,-8c0,0,-7,-3,-19,-4c0,0,-12,-2,-30,-2Z" 
id="f2_ay"
transform="scale(0.001,-0.001)" />

<path d="M176,-4c0,0,-18,0,-30,2c0,0,-12,1,-19,3c0,0,-7,3,-10,7c0,0,-3,4,-3,10v997c0,0,0,6,3,11c0,0,3,4,10,7c0,0,7,3,19,5c0,0,12,1,30,1c0,0,18,0,30,-1c0,0,12,-2,19,-5c0,0,7,-3,9,-7c0,0,3,-5,3,-11V18c0,0,0,-6,-3,-10c0,0,-2,-4,-9,-7c0,0,-7,-2,-19,-3c0,0,-12,-2,-30,-2Z" 
id="f2_a8"
transform="scale(0.001,-0.001)" />

<path d="M321,82c0,0,48,0,90,25c0,0,41,24,87,75V325H392c0,0,-50,0,-88,-9c0,0,-37,-9,-62,-25c0,0,-24,-17,-36,-41c0,0,-11,-23,-11,-54c0,0,0,-52,33,-83c0,0,33,-31,93,-31ZM301,-13c0,0,-53,0,-96,13c0,0,-43,14,-73,40c0,0,-30,26,-47,64c0,0,-17,38,-17,87c0,0,0,56,24,98c0,0,23,42,66,69c0,0,43,28,106,42c0,0,63,14,141,14h93v52c0,0,0,39,-9,69c0,0,-8,30,-26,50c0,0,-18,20,-47,30c0,0,-30,10,-72,10c0,0,-46,0,-82,-11c0,0,-36,-11,-63,-24c0,0,-27,-13,-46,-24c0,0,-18,-11,-27,-11c0,0,-6,0,-10,3c0,0,-5,3,-8,9c0,0,-3,6,-5,16c0,0,-1,9,-1,20c0,0,0,19,2,30c0,0,3,11,13,20c0,0,10,10,35,23c0,0,24,13,56,24c0,0,32,10,70,17c0,0,38,8,77,8c0,0,73,0,123,-17c0,0,51,-16,82,-48c0,0,32,-32,46,-79c0,0,14,-47,14,-110V18c0,0,0,-9,-6,-14c0,0,-6,-4,-16,-6c0,0,-11,-2,-31,-2c0,0,-19,0,-31,2c0,0,-12,2,-17,6c0,0,-5,5,-5,13V85c0,0,-44,-47,-98,-73c0,0,-54,-25,-115,-25Z" 
id="f2_77"
transform="scale(0.001,-0.001)" />

<path d="M176,-4c0,0,-18,0,-30,2c0,0,-12,1,-19,3c0,0,-7,3,-10,7c0,0,-3,4,-3,10V690c0,0,0,6,3,10c0,0,2,4,9,7c0,0,6,4,17,5c0,0,10,1,27,1c0,0,17,0,28,-1c0,0,10,-1,16,-5c0,0,6,-3,9,-7c0,0,3,-4,3,-10V601c0,0,56,64,112,94c0,0,57,30,114,30c0,0,67,0,113,-23c0,0,46,-23,74,-61c0,0,29,-38,41,-89c0,0,12,-52,12,-123V18c0,0,0,-6,-3,-10c0,0,-3,-4,-9,-7c0,0,-7,-2,-19,-3c0,0,-12,-2,-30,-2c0,0,-19,0,-30,2c0,0,-12,1,-19,3c0,0,-7,3,-10,7c0,0,-3,4,-3,10V412c0,0,0,58,-9,93c0,0,-9,35,-26,61c0,0,-17,25,-44,38c0,0,-27,14,-63,14c0,0,-46,0,-93,-33c0,0,-46,-33,-97,-96V18c0,0,0,-6,-3,-10c0,0,-2,-4,-9,-7c0,0,-7,-2,-19,-3c0,0,-12,-2,-30,-2Z" 
id="f2_af"
transform="scale(0.001,-0.001)" />

<path d="M339,-13c0,0,-52,0,-90,13c0,0,-37,14,-61,42c0,0,-24,28,-34,71c0,0,-11,43,-11,101V607H49c0,0,-11,0,-18,12c0,0,-7,12,-7,39c0,0,0,14,2,24c0,0,2,10,5,16c0,0,3,7,8,9c0,0,5,3,11,3h93V870c0,0,0,5,2,9c0,0,3,5,10,8c0,0,7,4,19,5c0,0,12,2,30,2c0,0,19,0,31,-2c0,0,11,-1,18,-5c0,0,7,-3,10,-8c0,0,3,-4,3,-9V710H438c0,0,6,0,10,-3c0,0,5,-2,8,-9c0,0,4,-6,5,-16c0,0,1,-10,1,-24c0,0,0,-27,-6,-39c0,0,-7,-12,-18,-12H266V232c0,0,0,-69,20,-105c0,0,21,-35,74,-35c0,0,17,0,30,3c0,0,14,4,24,7c0,0,10,4,18,7c0,0,7,4,13,4c0,0,4,0,7,-2c0,0,4,-2,6,-7c0,0,2,-5,3,-14c0,0,1,-9,1,-23c0,0,0,-22,-2,-34c0,0,-3,-13,-9,-19c0,0,-6,-6,-18,-11c0,0,-12,-4,-28,-8c0,0,-15,-3,-32,-5c0,0,-17,-3,-34,-3Z" 
id="f2_bf"
transform="scale(0.001,-0.001)" />

<path d="M272,-13c0,0,-35,0,-68,6c0,0,-32,6,-58,13c0,0,-26,9,-44,18c0,0,-17,10,-26,17c0,0,-8,8,-12,21c0,0,-3,14,-3,37c0,0,0,14,1,24c0,0,2,9,4,15c0,0,2,6,6,9c0,0,4,3,10,3c0,0,8,0,24,-11c0,0,16,-10,39,-22c0,0,24,-12,56,-22c0,0,32,-10,74,-10c0,0,31,0,56,7c0,0,26,6,44,19c0,0,19,14,29,34c0,0,10,20,10,47c0,0,0,29,-14,48c0,0,-15,19,-39,34c0,0,-24,15,-53,27c0,0,-30,11,-62,24c0,0,-32,13,-62,29c0,0,-30,16,-54,39c0,0,-24,23,-38,55c0,0,-15,32,-15,77c0,0,0,40,16,76c0,0,15,36,45,63c0,0,31,28,77,44c0,0,46,17,107,17c0,0,27,0,54,-5c0,0,26,-5,48,-11c0,0,22,-7,37,-15c0,0,15,-8,23,-14c0,0,8,-6,11,-11c0,0,2,-4,3,-10c0,0,1,-5,2,-14c0,0,2,-8,2,-20c0,0,0,-12,-2,-22c0,0,-1,-9,-3,-15c0,0,-3,-6,-7,-8c0,0,-3,-3,-8,-3c0,0,-7,0,-19,8c0,0,-13,8,-33,18c0,0,-20,9,-47,17c0,0,-28,9,-63,9c0,0,-31,0,-55,-7c0,0,-24,-7,-39,-20c0,0,-15,-13,-23,-31c0,0,-8,-18,-8,-39c0,0,0,-29,15,-49c0,0,15,-20,39,-35c0,0,24,-15,54,-27c0,0,31,-11,62,-24c0,0,32,-13,63,-29c0,0,31,-15,55,-38c0,0,24,-22,38,-53c0,0,15,-32,15,-75c0,0,0,-51,-19,-92c0,0,-19,-40,-54,-68C463,42,428,15,379,1c0,0,-48,-14,-107,-14Z" 
id="f2_b5"
transform="scale(0.001,-0.001)" />

<path d="M324,-4c0,0,-23,0,-37,2c0,0,-15,1,-24,3c0,0,-9,3,-14,8c0,0,-4,6,-7,13L46,660c0,0,-4,11,-5,18c0,0,-2,8,-2,13c0,0,0,7,3,11c0,0,3,4,10,7c0,0,8,2,19,3c0,0,12,1,30,1c0,0,20,0,33,-1c0,0,13,-1,20,-4c0,0,6,-3,9,-8c0,0,3,-4,5,-11L330,136l2,-7l1,7L482,689c0,0,1,7,5,11c0,0,3,5,10,8c0,0,6,3,18,4c0,0,12,1,31,1c0,0,18,0,29,-1c0,0,12,-1,18,-4c0,0,7,-3,10,-7c0,0,3,-5,5,-11L768,136l1,-7l1,7L930,689c0,0,1,7,5,11c0,0,3,5,10,8c0,0,7,3,20,4c0,0,12,1,31,1c0,0,18,0,29,-1c0,0,11,-1,17,-4c0,0,6,-3,9,-6c0,0,3,-4,3,-11c0,0,0,-5,-2,-13c0,0,-1,-7,-5,-18L849,22c0,0,-2,-8,-7,-13c0,0,-5,-6,-13,-9c0,0,-9,-2,-24,-3c0,0,-15,-1,-37,-1c0,0,-23,0,-39,2c0,0,-15,1,-25,3c0,0,-9,3,-14,8c0,0,-4,6,-6,13L543,510l-2,6l-2,-6L409,22c0,0,-3,-8,-7,-13c0,0,-5,-6,-15,-9c0,0,-10,-2,-25,-3c0,0,-15,-1,-38,-1Z" 
id="f2_ci"
transform="scale(0.001,-0.001)" />

<path d="M176,-4c0,0,-18,0,-30,2c0,0,-12,1,-19,3c0,0,-7,3,-10,7c0,0,-3,4,-3,10V690c0,0,0,5,3,9c0,0,3,5,10,8c0,0,7,3,19,4c0,0,12,2,30,2c0,0,18,0,30,-2c0,0,12,-1,19,-4c0,0,7,-3,9,-8c0,0,3,-4,3,-9V18c0,0,0,-6,-3,-10c0,0,-2,-4,-9,-7c0,0,-7,-2,-19,-3c0,0,-12,-2,-30,-2Zm-1,846c0,0,-43,0,-59,15c0,0,-16,15,-16,58c0,0,0,43,16,59c0,0,17,16,61,16c0,0,43,0,59,-16c0,0,16,-15,16,-58c0,0,0,-43,-16,-58c0,0,-17,-16,-61,-16Z" 
id="f2_9q"
transform="scale(0.001,-0.001)" />

<path d="M367,-13c0,0,-73,0,-129,23c0,0,-56,24,-93,70c0,0,-38,46,-58,112c0,0,-20,67,-20,154c0,0,0,99,25,171c0,0,24,71,66,116c0,0,42,46,99,68c0,0,58,22,124,22c0,0,32,0,62,-6c0,0,31,-6,56,-16c0,0,25,-10,45,-22c0,0,20,-13,29,-22c0,0,9,-9,12,-14c0,0,3,-5,6,-13c0,0,2,-7,3,-16c0,0,0,-9,0,-22c0,0,0,-29,-6,-41c0,0,-7,-11,-17,-11c0,0,-11,0,-25,12c0,0,-15,12,-37,27c0,0,-23,15,-55,28c0,0,-31,12,-75,12c0,0,-88,0,-136,-68c0,0,-47,-68,-47,-198c0,0,0,-65,12,-114c0,0,12,-49,36,-81c0,0,24,-33,59,-49c0,0,35,-16,79,-16c0,0,43,0,75,13c0,0,32,14,56,30c0,0,23,16,39,29c0,0,16,13,25,13c0,0,5,0,9,-3c0,0,4,-3,7,-10c0,0,2,-7,3,-18c0,0,1,-11,1,-26c0,0,0,-12,0,-22c0,0,-1,-9,-3,-15c0,0,-2,-7,-4,-12c0,0,-3,-4,-12,-14c0,0,-10,-9,-32,-23c0,0,-22,-14,-50,-24C496,11,468,0,435,-6c0,0,-33,-7,-68,-7Z" 
id="f2_7l"
transform="scale(0.001,-0.001)" />

<path d="M346,-177c0,0,56,0,94,11c0,0,37,11,60,28c0,0,24,18,34,41c0,0,10,23,10,49c0,0,0,43,-36,65c0,0,-35,23,-95,25L239,48c0,0,-24,-19,-39,-35c0,0,-15,-16,-24,-31c0,0,-9,-16,-12,-30c0,0,-4,-15,-4,-31c0,0,0,-48,49,-73c0,0,50,-25,137,-25Zm-6,512c0,0,36,0,63,12c0,0,27,12,44,32c0,0,18,21,26,48c0,0,9,27,9,56c0,0,0,69,-38,107c0,0,-37,39,-107,39c0,0,-35,0,-62,-12c0,0,-26,-12,-44,-33c0,0,-17,-21,-26,-48c0,0,-8,-28,-8,-58c0,0,0,-66,37,-104c0,0,38,-39,106,-39Zm0,-606c0,0,-81,0,-138,14c0,0,-57,14,-94,38c0,0,-36,24,-52,57c0,0,-17,33,-17,72c0,0,0,24,6,47c0,0,6,24,18,43c0,0,13,21,31,40c0,0,18,19,42,38c0,0,-36,19,-54,47c0,0,-17,28,-17,61c0,0,0,45,18,81c0,0,19,36,46,64c0,0,-23,28,-36,62c0,0,-14,35,-14,84c0,0,0,58,20,104c0,0,19,45,53,77c0,0,35,31,83,48c0,0,48,17,105,17c0,0,30,0,57,-4c0,0,26,-3,49,-9H649c0,0,13,0,19,-12c0,0,7,-13,7,-38c0,0,0,-26,-7,-37c0,0,-7,-12,-19,-12H553c0,0,26,-27,37,-60c0,0,10,-32,10,-68c0,0,0,-58,-18,-103c0,0,-19,-45,-54,-76c0,0,-34,-31,-82,-47c0,0,-48,-16,-106,-16c0,0,-41,0,-78,10c0,0,-37,11,-57,28c0,0,-14,-14,-22,-31c0,0,-9,-17,-9,-39c0,0,0,-27,24,-44c0,0,25,-17,65,-18l175,-8c0,0,50,-1,92,-14c0,0,41,-12,72,-35c0,0,31,-22,48,-55c0,0,17,-34,17,-76c0,0,0,-47,-20,-88c0,0,-19,-42,-59,-74c0,0,-40,-31,-102,-50c0,0,-61,-18,-146,-18Z" 
id="f2_9d"
transform="scale(0.001,-0.001)" />

<path d="M176,-4c0,0,-18,0,-30,2c0,0,-12,1,-19,3c0,0,-7,3,-10,7c0,0,-3,4,-3,10V690c0,0,0,6,3,10c0,0,2,4,9,7c0,0,6,4,17,5c0,0,10,1,27,1c0,0,17,0,28,-1c0,0,10,-1,16,-5c0,0,6,-3,9,-7c0,0,3,-4,3,-10V592c0,0,27,41,51,66c0,0,25,26,46,41c0,0,22,14,43,20c0,0,21,6,43,6c0,0,10,0,22,-2c0,0,12,-1,26,-4c0,0,13,-3,24,-6c0,0,11,-4,15,-8c0,0,5,-4,6,-7c0,0,2,-3,3,-9c0,0,1,-5,1,-15c0,0,0,-10,0,-27c0,0,0,-16,0,-28c0,0,-1,-11,-3,-17c0,0,-2,-6,-6,-10c0,0,-3,-3,-9,-3c0,0,-6,0,-15,3c0,0,-8,4,-19,7c0,0,-11,3,-24,6c0,0,-14,3,-29,3c0,0,-19,0,-37,-7c0,0,-18,-8,-37,-25c0,0,-20,-18,-42,-46c0,0,-21,-29,-48,-70V18c0,0,0,-6,-3,-10c0,0,-2,-4,-9,-7c0,0,-7,-2,-19,-3c0,0,-12,-2,-30,-2Z" 
id="f2_b1"
transform="scale(0.001,-0.001)" />

<path d="M401,90c0,0,54,0,93,19c0,0,40,20,65,55c0,0,26,35,37,84c0,0,12,48,12,106c0,0,0,55,-10,104c0,0,-10,48,-33,85c0,0,-23,36,-62,58c0,0,-40,21,-99,21c0,0,-54,0,-93,-20c0,0,-39,-19,-65,-54c0,0,-25,-36,-37,-85c0,0,-12,-48,-12,-106c0,0,0,-55,10,-103c0,0,10,-49,33,-85c0,0,24,-36,63,-58c0,0,39,-21,98,-21ZM395,-13c0,0,-82,0,-144,24c0,0,-61,25,-102,72c0,0,-41,47,-61,114c0,0,-21,67,-21,152c0,0,0,82,22,151c0,0,21,69,64,119c0,0,43,50,107,78c0,0,64,28,150,28c0,0,82,0,144,-25c0,0,61,-25,102,-72c0,0,41,-47,62,-114c0,0,20,-67,20,-151c0,0,0,-83,-21,-152c0,0,-22,-69,-65,-119C652,92,609,42,545,14c0,0,-65,-27,-150,-27Z" 
id="f2_am"
transform="scale(0.001,-0.001)" />

<path d="M176,-4c0,0,-18,0,-30,2c0,0,-12,1,-19,3c0,0,-7,3,-10,7c0,0,-3,4,-3,10V690c0,0,0,6,3,10c0,0,2,4,9,7c0,0,6,4,17,5c0,0,10,1,27,1c0,0,17,0,28,-1c0,0,10,-1,16,-5c0,0,6,-3,9,-7c0,0,3,-4,3,-10V601c0,0,56,64,110,94c0,0,53,30,108,30c0,0,42,0,75,-10c0,0,33,-10,58,-28c0,0,26,-17,44,-42c0,0,18,-24,30,-55c0,0,33,37,63,63c0,0,31,26,59,41c0,0,28,16,54,23c0,0,27,8,53,8c0,0,65,0,109,-23c0,0,44,-23,71,-61c0,0,28,-38,39,-89c0,0,12,-52,12,-108V18c0,0,0,-6,-3,-10c0,0,-3,-4,-10,-7c0,0,-7,-2,-19,-3c0,0,-12,-2,-29,-2c0,0,-19,0,-31,2c0,0,-12,1,-19,3c0,0,-7,3,-10,7c0,0,-3,4,-3,10V427c0,0,0,43,-8,78c0,0,-7,35,-23,61c0,0,-17,25,-42,38c0,0,-25,14,-60,14c0,0,-42,0,-85,-33c0,0,-43,-33,-94,-96V18c0,0,0,-6,-3,-10c0,0,-3,-4,-11,-7c0,0,-7,-2,-19,-3c0,0,-11,-2,-29,-2c0,0,-18,0,-30,2c0,0,-12,1,-19,3c0,0,-7,3,-10,7c0,0,-3,4,-3,10V427c0,0,0,43,-8,78c0,0,-8,35,-24,61c0,0,-17,25,-42,38c0,0,-25,14,-59,14c0,0,-43,0,-86,-33c0,0,-44,-33,-95,-96V18c0,0,0,-6,-3,-10c0,0,-2,-4,-9,-7c0,0,-7,-2,-19,-3c0,0,-12,-2,-30,-2Z" 
id="f2_ae"
transform="scale(0.001,-0.001)" />

<path d="M252,-271c0,0,-19,0,-31,2c0,0,-12,2,-18,6c0,0,-7,5,-8,12c0,0,0,8,4,18L292,0c0,0,-7,3,-13,10c0,0,-6,6,-8,14L31,665c0,0,-6,16,-6,25c0,0,0,9,6,14c0,0,6,5,20,7c0,0,13,2,36,2c0,0,22,0,35,-1c0,0,12,-1,20,-4c0,0,7,-3,11,-9c0,0,3,-6,7,-15L351,145h3L539,687c0,0,4,14,10,18c0,0,7,4,19,6c0,0,13,2,37,2c0,0,21,0,34,-2c0,0,14,-2,20,-7c0,0,6,-5,6,-14c0,0,0,-9,-4,-23L420,0L330,-246c0,0,-4,-12,-22,-18c0,0,-19,-7,-56,-7Z" 
id="f2_co"
transform="scale(0.001,-0.001)" />

<path d="M366,92c0,0,25,0,48,7c0,0,22,6,46,22c0,0,24,16,50,41c0,0,26,24,56,61V492c0,0,-51,62,-97,94c0,0,-47,33,-98,33c0,0,-47,0,-79,-22c0,0,-33,-23,-54,-59c0,0,-20,-37,-30,-83c0,0,-9,-47,-9,-94c0,0,0,-51,8,-100c0,0,8,-48,27,-86c0,0,19,-38,52,-60c0,0,32,-23,80,-23ZM345,-13c0,0,-74,0,-127,28c0,0,-52,29,-84,78c0,0,-33,49,-48,115c0,0,-15,66,-15,139c0,0,0,86,19,156c0,0,19,70,55,119c0,0,37,50,91,76c0,0,54,27,125,27c0,0,59,0,108,-26c0,0,49,-26,97,-76v390c0,0,0,5,2,10c0,0,3,4,10,7c0,0,8,3,19,5c0,0,12,1,30,1c0,0,18,0,30,-1c0,0,12,-2,19,-5c0,0,7,-3,10,-7c0,0,3,-5,3,-10V18c0,0,0,-6,-2,-10c0,0,-3,-5,-9,-7c0,0,-7,-2,-17,-3c0,0,-10,-2,-25,-2c0,0,-16,0,-26,2c0,0,-11,1,-18,3c0,0,-6,2,-9,7c0,0,-3,4,-3,10v90c0,0,-53,-58,-110,-90c0,0,-58,-31,-125,-31Z" 
id="f2_7v"
transform="scale(0.001,-0.001)" />

<path d="M346,-4c0,0,-23,0,-38,2c0,0,-15,1,-24,3c0,0,-9,3,-15,8c0,0,-5,6,-8,13L33,660c0,0,-3,9,-5,15c0,0,-2,7,-2,11c0,0,0,3,0,5c0,0,0,6,3,11c0,0,3,4,10,7c0,0,7,2,18,3c0,0,12,1,29,1c0,0,22,0,35,-1c0,0,13,-1,20,-4c0,0,7,-3,10,-8c0,0,4,-4,7,-11L347,135l3,-9l2,9L540,689c0,0,1,7,5,11c0,0,3,5,11,8c0,0,7,3,19,4c0,0,12,1,32,1c0,0,18,0,29,-1c0,0,11,-1,17,-4c0,0,7,-3,9,-7c0,0,3,-4,3,-10c0,0,0,-3,-1,-6c0,0,0,-4,-1,-7c0,0,0,-4,-2,-8c0,0,-1,-5,-2,-10L430,22c0,0,-3,-8,-8,-13c0,0,-5,-6,-15,-9c0,0,-9,-2,-24,-3c0,0,-15,-1,-37,-1Z" 
id="f2_ch"
transform="scale(0.001,-0.001)" />

<path d="M431,92c0,0,46,0,79,22c0,0,33,23,53,60c0,0,21,37,30,83c0,0,10,46,10,93c0,0,0,51,-8,100c0,0,-8,49,-28,86c0,0,-19,37,-51,60c0,0,-32,23,-80,23c0,0,-24,0,-47,-7c0,0,-23,-7,-47,-22c0,0,-24,-16,-50,-41c0,0,-25,-24,-55,-62V219c0,0,51,-62,98,-95c0,0,46,-32,96,-32ZM443,-13c0,0,-32,0,-59,7c0,0,-27,6,-53,19c0,0,-26,14,-52,36c0,0,-27,22,-56,52V18c0,0,0,-6,-3,-10c0,0,-3,-5,-9,-7c0,0,-7,-2,-17,-3c0,0,-10,-2,-26,-2c0,0,-15,0,-25,2c0,0,-11,1,-17,3c0,0,-7,2,-9,7c0,0,-3,4,-3,10v997c0,0,0,6,3,11c0,0,3,4,10,7c0,0,7,3,19,5c0,0,12,1,30,1c0,0,18,0,30,-1c0,0,12,-2,19,-5c0,0,7,-3,9,-7c0,0,3,-5,3,-10V614c0,0,30,31,58,52c0,0,28,20,55,34c0,0,27,13,54,19c0,0,27,6,57,6c0,0,73,0,125,-30c0,0,52,-29,84,-78c0,0,32,-48,47,-114c0,0,15,-66,15,-139c0,0,0,-87,-19,-157c0,0,-19,-70,-56,-119c0,0,-37,-49,-90,-76c0,0,-54,-25,-124,-25Z" 
id="f2_7k"
transform="scale(0.001,-0.001)" />

<path d="M209,-4c0,0,-18,0,-30,2c0,0,-12,1,-19,3c0,0,-7,3,-10,7c0,0,-3,4,-3,10V607H52c0,0,-12,0,-18,12c0,0,-6,12,-6,39c0,0,0,14,2,24c0,0,1,10,4,16c0,0,3,7,8,9c0,0,4,3,10,3h95v69c0,0,0,71,13,121c0,0,13,50,40,82c0,0,27,33,67,48c0,0,41,15,96,15c0,0,26,0,51,-5c0,0,25,-4,38,-10c0,0,13,-6,18,-10c0,0,4,-5,7,-12c0,0,3,-7,5,-17c0,0,1,-10,1,-24c0,0,0,-15,-2,-23c0,0,-1,-9,-3,-14c0,0,-2,-5,-5,-7c0,0,-3,-2,-8,-2c0,0,-5,0,-13,3c0,0,-7,4,-19,8c0,0,-11,4,-26,7c0,0,-15,4,-36,4c0,0,-27,0,-47,-9c0,0,-19,-9,-31,-28c0,0,-12,-19,-17,-50c0,0,-5,-30,-5,-73V710H421c0,0,6,0,10,-3c0,0,4,-2,7,-9c0,0,4,-6,6,-16c0,0,2,-10,2,-24c0,0,0,-27,-7,-39c0,0,-7,-12,-18,-12H271V18c0,0,0,-6,-3,-10c0,0,-3,-4,-11,-7c0,0,-7,-2,-19,-3c0,0,-12,-2,-29,-2Z" 
id="f2_89"
transform="scale(0.001,-0.001)" />

<path d="M351,-13c0,0,-67,0,-113,22c0,0,-46,22,-75,60c0,0,-28,39,-40,90c0,0,-13,51,-13,124V690c0,0,0,6,3,10c0,0,3,4,10,7c0,0,8,4,20,5c0,0,11,1,29,1c0,0,18,0,30,-1c0,0,12,-1,19,-5c0,0,7,-3,10,-7c0,0,3,-4,3,-10V299c0,0,0,-59,9,-94c0,0,8,-36,26,-61c0,0,18,-24,44,-38c0,0,27,-14,63,-14c0,0,46,0,92,33c0,0,46,32,98,95V690c0,0,0,6,2,10c0,0,3,4,10,7c0,0,8,4,19,5c0,0,12,1,30,1c0,0,18,0,30,-1c0,0,12,-1,19,-5c0,0,7,-3,10,-7c0,0,3,-4,3,-10V18c0,0,0,-6,-2,-10c0,0,-3,-4,-10,-7c0,0,-6,-2,-17,-3c0,0,-11,-2,-27,-2c0,0,-17,0,-28,2c0,0,-10,1,-17,3c0,0,-6,3,-8,7c0,0,-3,4,-3,10v89c0,0,-57,-63,-113,-92c0,0,-56,-28,-113,-28Z" 
id="f2_c6"
transform="scale(0.001,-0.001)" />

<path d="M192,-6c0,0,-45,0,-62,16c0,0,-18,18,-18,69c0,0,0,53,18,71c0,0,18,17,64,17c0,0,45,0,62,-17c0,0,17,-17,17,-69c0,0,0,-53,-18,-70c0,0,-17,-17,-63,-17Z" 
id="f2_nt"
transform="scale(0.001,-0.001)" />

<path d="M92,-4c0,0,-22,0,-35,2C57,-2,43,0,37,3c0,0,-7,5,-6,12c0,0,0,7,7,17L247,360L49,675c0,0,-6,11,-6,18c0,0,-1,7,6,12c0,0,7,5,22,6c0,0,14,2,38,2c0,0,22,0,35,-1c0,0,13,-1,20,-4c0,0,8,-2,12,-6c0,0,3,-3,6,-9L335,443L490,693c0,0,3,5,7,9c0,0,4,3,10,6c0,0,7,3,18,4c0,0,12,1,32,1c0,0,21,0,35,-2c0,0,14,-1,21,-5c0,0,7,-4,6,-12c0,0,-1,-7,-8,-19L415,364L622,32c0,0,6,-10,6,-17c0,0,0,-7,-7,-12c0,0,-7,-3,-21,-5c0,0,-15,-2,-38,-2c0,0,-22,0,-35,1c0,0,-13,1,-21,3c0,0,-8,3,-12,7c0,0,-4,4,-7,9L326,282L165,16c0,0,-3,-5,-7,-9c0,0,-4,-4,-12,-7c0,0,-8,-2,-20,-3c0,0,-13,-1,-34,-1Z" 
id="f2_cn"
transform="scale(0.001,-0.001)" />

<path d="M188,-4c0,0,-28,0,-46,2c0,0,-18,2,-28,5c0,0,-11,3,-16,9c0,0,-4,5,-4,13V691c0,0,0,7,4,13c0,0,3,5,13,9c0,0,10,4,25,6c0,0,15,2,38,2c0,0,24,0,40,-2c0,0,15,-2,24,-6c0,0,9,-4,12,-9c0,0,4,-6,4,-13V614c0,0,55,60,112,89c0,0,57,30,119,30c0,0,68,0,115,-22c0,0,47,-22,75,-61c0,0,29,-38,42,-90c0,0,12,-51,12,-124V25c0,0,0,-8,-4,-13c0,0,-5,-6,-15,-9c0,0,-10,-3,-29,-5c0,0,-18,-2,-45,-2c0,0,-28,0,-46,2c0,0,-18,2,-29,5c0,0,-10,3,-15,9c0,0,-4,6,-4,13V405c0,0,0,49,-7,76c0,0,-7,28,-21,48c0,0,-13,19,-35,30c0,0,-21,11,-49,11c0,0,-36,0,-72,-26c0,0,-37,-26,-76,-76V25c0,0,0,-7,-5,-13c0,0,-4,-6,-15,-9c0,0,-11,-3,-29,-5c0,0,-18,-2,-45,-2Z" 
id="f1_af"
transform="scale(0.001,-0.001)" />

<path d="M334,-17c0,0,-69,0,-115,22c0,0,-47,22,-76,61c0,0,-28,39,-41,90c0,0,-12,51,-12,127V691c0,0,0,7,4,13c0,0,4,5,15,9c0,0,11,4,29,6c0,0,19,2,45,2c0,0,28,0,46,-2c0,0,18,-2,29,-6c0,0,11,-4,15,-9c0,0,5,-6,5,-13V314c0,0,0,-52,6,-79c0,0,7,-28,21,-48c0,0,14,-20,35,-30c0,0,21,-11,49,-11c0,0,36,0,72,26c0,0,36,26,77,76V691c0,0,0,7,4,13c0,0,4,5,15,9c0,0,11,4,29,6c0,0,18,2,45,2c0,0,28,0,46,-2c0,0,18,-2,28,-6c0,0,11,-4,15,-9c0,0,5,-6,5,-13V25c0,0,0,-8,-4,-13c0,0,-4,-6,-13,-9c0,0,-10,-3,-25,-5c0,0,-15,-2,-38,-2c0,0,-25,0,-40,2c0,0,-16,2,-25,5c0,0,-9,3,-12,9c0,0,-4,5,-4,13v77c0,0,-55,-60,-112,-90c0,0,-57,-29,-118,-29Z" 
id="f1_c6"
transform="scale(0.001,-0.001)" />

<path d="M188,-4c0,0,-28,0,-46,2c0,0,-18,2,-28,5c0,0,-11,3,-16,9c0,0,-4,5,-4,13V691c0,0,0,7,4,13c0,0,3,5,13,9c0,0,10,4,25,6c0,0,15,2,38,2c0,0,24,0,40,-2c0,0,15,-2,24,-6c0,0,9,-4,12,-9c0,0,4,-6,4,-13V614c0,0,55,60,110,89c0,0,55,30,115,30c0,0,41,0,74,-8c0,0,33,-9,59,-25c0,0,26,-16,44,-38c0,0,19,-23,32,-50c0,0,30,32,58,55c0,0,29,23,57,38c0,0,28,14,56,21c0,0,28,7,57,7c0,0,66,0,112,-22c0,0,45,-22,73,-61c0,0,28,-38,40,-90c0,0,12,-51,12,-109V25c0,0,0,-8,-5,-13c0,0,-4,-6,-15,-9c0,0,-10,-3,-28,-5c0,0,-18,-2,-46,-2c0,0,-28,0,-46,2c0,0,-18,2,-29,5c0,0,-11,3,-15,9c0,0,-4,6,-4,13V420c0,0,0,34,-6,61c0,0,-7,28,-20,48c0,0,-13,19,-32,30c0,0,-20,11,-47,11c0,0,-34,0,-68,-26c0,0,-34,-26,-74,-76V25c0,0,0,-7,-5,-13c0,0,-4,-6,-15,-9c0,0,-11,-3,-29,-5c0,0,-18,-2,-45,-2c0,0,-27,0,-45,2c0,0,-18,2,-29,5c0,0,-11,3,-16,9c0,0,-4,6,-4,13V420c0,0,0,34,-6,61c0,0,-7,28,-19,48c0,0,-13,19,-33,30c0,0,-21,11,-48,11c0,0,-34,0,-68,-26c0,0,-35,-26,-74,-76V25c0,0,0,-7,-5,-13c0,0,-4,-6,-15,-9c0,0,-11,-3,-29,-5c0,0,-18,-2,-45,-2Z" 
id="f1_ae"
transform="scale(0.001,-0.001)" />

<path d="M188,-4c0,0,-28,0,-46,2c0,0,-18,2,-28,5c0,0,-11,3,-16,9c0,0,-4,5,-4,13v981c0,0,0,8,4,14c0,0,5,6,16,10c0,0,10,4,28,6c0,0,18,2,46,2c0,0,27,0,45,-2c0,0,18,-2,29,-6c0,0,11,-4,15,-10c0,0,5,-6,5,-14V639c0,0,48,47,98,71c0,0,51,23,105,23c0,0,68,0,115,-22c0,0,47,-22,75,-61c0,0,29,-39,42,-91c0,0,12,-52,12,-126V25c0,0,0,-8,-4,-13c0,0,-5,-6,-15,-9c0,0,-10,-3,-29,-5c0,0,-18,-2,-45,-2c0,0,-28,0,-46,2c0,0,-18,2,-29,5c0,0,-10,3,-15,9c0,0,-4,6,-4,13V405c0,0,0,49,-7,76c0,0,-7,28,-21,48c0,0,-13,19,-35,30c0,0,-21,11,-49,11c0,0,-36,0,-72,-26c0,0,-37,-26,-76,-76V25c0,0,0,-7,-5,-13c0,0,-4,-6,-15,-9c0,0,-11,-3,-29,-5c0,0,-18,-2,-45,-2Z" 
id="f1_9n"
transform="scale(0.001,-0.001)" />

<path d="M176,0c0,0,-17,0,-33,12c0,0,-15,11,-15,40V913c0,0,0,29,15,41c0,0,16,11,33,11H635c0,0,6,0,10,-3c0,0,5,-3,8,-10c0,0,3,-6,5,-16c0,0,2,-10,2,-25c0,0,0,-14,-2,-24c0,0,-2,-10,-5,-16c0,0,-3,-7,-8,-10c0,0,-4,-2,-10,-2H256V555H581c0,0,6,0,11,-3c0,0,5,-3,8,-9c0,0,3,-6,5,-17c0,0,1,-10,1,-24c0,0,0,-14,-1,-23c0,0,-2,-10,-5,-16c0,0,-3,-6,-8,-9c0,0,-5,-2,-11,-2H256V107H640c0,0,6,0,11,-3c0,0,4,-3,8,-10c0,0,4,-6,5,-16c0,0,2,-10,2,-25c0,0,0,-14,-2,-24c0,0,-1,-10,-5,-16c0,0,-4,-7,-8,-10c0,0,-5,-3,-11,-3Z" 
id="f2_t"
transform="scale(0.001,-0.001)" />

<path d="M407,534c0,0,67,0,113,18c0,0,47,18,76,47c0,0,30,30,43,67c0,0,14,37,14,77c0,0,0,25,-9,47c0,0,-9,22,-28,37c0,0,-19,16,-50,24c0,0,-31,8,-73,8H359L294,534ZM122,-4c0,0,-18,0,-30,2c0,0,-12,1,-19,3c0,0,-7,2,-9,7c0,0,-3,4,-1,10L242,913c0,0,5,29,23,41c0,0,18,11,40,11H515c0,0,68,0,120,-13c0,0,52,-14,87,-40c0,0,35,-25,52,-63c0,0,18,-38,18,-86c0,0,0,-52,-15,-98c0,0,-14,-46,-44,-85c0,0,-29,-39,-73,-69c0,0,-45,-30,-104,-49c0,0,40,-14,64,-59c0,0,25,-46,38,-121L698,69c0,0,2,-14,4,-26c0,0,2,-13,2,-23c0,0,0,-6,-4,-11c0,0,-3,-5,-12,-8c0,0,-8,-2,-22,-3c0,0,-15,-2,-36,-2c0,0,-19,0,-31,2c0,0,-12,1,-18,4c0,0,-7,4,-9,9c0,0,-3,6,-5,15L529,253c0,0,-6,40,-17,72c0,0,-11,32,-30,56c0,0,-19,23,-50,36c0,0,-30,13,-73,13H273L191,18c0,0,-2,-5,-5,-9c0,0,-4,-5,-12,-8c0,0,-9,-1,-21,-3c0,0,-13,-2,-31,-2Z" 
id="f3_2j"
transform="scale(0.001,-0.001)" />

<path d="M105,-4c0,0,-18,0,-30,2c0,0,-11,1,-18,3c0,0,-6,3,-8,7c0,0,-2,4,0,10l198,997c0,0,2,6,5,11c0,0,4,4,11,7c0,0,8,3,20,5c0,0,13,1,31,1c0,0,18,0,30,-1c0,0,11,-2,18,-5c0,0,6,-3,8,-7c0,0,1,-5,1,-11L311,712c0,0,-4,-19,-9,-39c0,0,-6,-20,-11,-40c0,0,-6,-20,-11,-38c0,0,-6,-18,-11,-31c0,0,12,26,38,54c0,0,25,28,59,52c0,0,35,23,76,39c0,0,42,16,86,16c0,0,47,0,81,-14c0,0,33,-14,54,-38c0,0,22,-25,31,-58c0,0,10,-34,10,-73c0,0,0,-27,-3,-52c0,0,-3,-26,-8,-52L610,18c0,0,-2,-6,-6,-10c0,0,-3,-4,-11,-7c0,0,-8,-2,-20,-3c0,0,-12,-2,-31,-2c0,0,-18,0,-29,2c0,0,-11,1,-18,3c0,0,-6,3,-8,7c0,0,-2,4,-1,10l82,416c0,0,4,19,6,44c0,0,3,24,3,42c0,0,0,22,-4,40c0,0,-5,18,-15,31c0,0,-10,13,-26,20c0,0,-16,8,-39,8c0,0,-39,0,-81,-23c0,0,-41,-23,-77,-64c0,0,-35,-41,-63,-96c0,0,-28,-56,-41,-120L172,18c0,0,-2,-6,-5,-10c0,0,-4,-4,-12,-7c0,0,-7,-2,-20,-3c0,0,-12,-2,-30,-2Z" 
id="f3_9n"
transform="scale(0.001,-0.001)" />

<path d="M105,-4c0,0,-18,0,-30,2c0,0,-11,1,-18,3c0,0,-6,3,-8,7c0,0,-2,4,0,10L183,690c0,0,1,5,4,9c0,0,4,5,11,8c0,0,8,3,20,4c0,0,12,2,30,2c0,0,19,0,30,-2c0,0,12,-1,18,-4c0,0,7,-3,9,-8c0,0,2,-4,1,-9L172,18c0,0,-2,-6,-5,-10c0,0,-4,-4,-12,-7c0,0,-7,-2,-20,-3c0,0,-12,-2,-30,-2ZM274,842c0,0,-22,0,-36,4c0,0,-14,3,-20,12c0,0,-7,8,-8,23c0,0,-1,14,3,35c0,0,5,21,11,34c0,0,7,14,17,23c0,0,10,10,25,13c0,0,16,4,38,4c0,0,22,0,36,-4c0,0,14,-3,21,-13c0,0,8,-9,8,-23c0,0,1,-13,-3,-34c0,0,-4,-21,-10,-35c0,0,-7,-15,-17,-23c0,0,-11,-9,-27,-12c0,0,-16,-4,-38,-4Z" 
id="f3_9q"
transform="scale(0.001,-0.001)" />

<path d="M32,0C32,0,17,0,11,8C11,8,4,16,4,29c0,0,0,5,1,13c0,0,2,9,3,17c0,0,2,9,4,16c0,0,2,8,3,12c0,0,2,5,4,10c0,0,2,5,6,11c0,0,5,7,12,16c0,0,6,9,16,21L435,606H154c0,0,-9,0,-14,7c0,0,-5,6,-5,19c0,0,0,7,1,15c0,0,1,8,3,17c0,0,2,9,5,17c0,0,4,9,8,15c0,0,5,6,10,10c0,0,6,4,13,4H561c0,0,14,0,20,-7l6,-19c0,0,0,-3,-1,-10c0,0,-1,-7,-2,-15c0,0,-2,-8,-3,-16c0,0,-2,-8,-3,-13c0,0,-5,-16,-14,-31c0,0,-9,-14,-25,-34L159,104H467c0,0,9,0,14,-7c0,0,4,-7,4,-19c0,0,0,-6,-1,-15c0,0,-1,-8,-3,-16c0,0,-2,-8,-5,-17c0,0,-3,-8,-7,-15c0,0,-5,-7,-10,-11c0,0,-5,-4,-12,-4Z" 
id="f3_ct"
transform="scale(0.001,-0.001)" />

<path d="M340,89c0,0,46,0,82,16c0,0,36,16,65,44c0,0,29,27,50,64c0,0,21,36,35,78c0,0,14,42,21,85c0,0,6,44,6,85c0,0,0,38,-7,68c0,0,-8,29,-27,50c0,0,-18,20,-47,32c0,0,-30,11,-72,11c0,0,-44,0,-81,-16c0,0,-36,-16,-65,-43c0,0,-29,-28,-50,-64c0,0,-21,-37,-35,-78c0,0,-14,-42,-21,-85c0,0,-6,-44,-6,-86c0,0,0,-37,8,-67c0,0,8,-30,26,-51c0,0,19,-21,48,-32c0,0,29,-11,70,-11ZM329,-13c0,0,-71,0,-122,16c0,0,-52,18,-84,50c0,0,-33,33,-49,81c0,0,-15,48,-15,108c0,0,0,56,10,113c0,0,10,58,31,111c0,0,22,53,54,100c0,0,33,47,77,82c0,0,45,35,101,56c0,0,56,21,125,21c0,0,72,0,123,-18c0,0,52,-18,85,-50c0,0,33,-33,49,-81c0,0,15,-48,15,-108c0,0,0,-55,-10,-112c0,0,-10,-58,-32,-111c0,0,-21,-53,-54,-100c0,0,-33,-47,-77,-83C556,62,511,27,455,7c0,0,-56,-20,-126,-20Z" 
id="f3_am"
transform="scale(0.001,-0.001)" />

<path d="M372,92c0,0,40,0,72,19c0,0,33,18,58,50c0,0,25,31,43,71c0,0,19,39,31,82c0,0,12,42,18,84c0,0,5,42,5,75c0,0,0,32,-5,59c0,0,-6,27,-18,47c0,0,-12,19,-32,29c0,0,-20,11,-49,11c0,0,-40,0,-82,-22c0,0,-42,-23,-78,-63c0,0,-35,-41,-63,-96c0,0,-28,-54,-41,-120L206,195c0,0,35,-52,76,-77c0,0,40,-26,90,-26ZM51,-271c0,0,-17,0,-28,2c0,0,-12,1,-18,4c0,0,-6,3,-8,8c0,0,-2,4,-1,10L184,690c0,0,1,12,15,18c0,0,13,5,44,5c0,0,16,0,25,-1c0,0,10,-1,16,-4c0,0,6,-3,8,-7c0,0,1,-5,0,-11L268,564c0,0,10,25,35,53c0,0,25,28,60,52c0,0,34,24,77,40c0,0,42,16,86,16c0,0,57,0,95,-20c0,0,39,-19,63,-52c0,0,24,-32,34,-77c0,0,10,-44,10,-95c0,0,0,-43,-8,-97c0,0,-8,-54,-26,-110c0,0,-18,-55,-46,-107c0,0,-28,-52,-67,-92c0,0,-40,-40,-92,-64c0,0,-52,-24,-117,-24c0,0,-34,0,-61,7c0,0,-28,6,-51,18c0,0,-23,12,-42,28c0,0,-19,16,-36,35L118,-247c0,0,-1,-6,-5,-10c0,0,-3,-5,-11,-8c0,0,-7,-3,-19,-4c0,0,-13,-2,-32,-2Z" 
id="f3_ay"
transform="scale(0.001,-0.001)" />

<path d="M105,-4c0,0,-18,0,-30,2c0,0,-11,1,-18,3c0,0,-6,3,-8,7c0,0,-2,4,0,10L182,690c0,0,1,6,4,10c0,0,4,5,12,8c0,0,7,3,18,4c0,0,11,1,26,1c0,0,15,0,25,-1c0,0,10,-1,16,-4c0,0,6,-3,7,-8c0,0,2,-4,1,-10L266,568c0,0,17,31,41,59c0,0,23,29,51,51c0,0,28,21,58,34c0,0,30,13,59,13c0,0,13,0,26,-2c0,0,13,-2,24,-5c0,0,11,-2,20,-6c0,0,8,-3,13,-8c0,0,4,-4,4,-14c0,0,0,-3,-1,-11c0,0,-1,-9,-2,-20c0,0,-2,-11,-5,-23c0,0,-3,-12,-7,-22c0,0,-5,-10,-10,-17c0,0,-5,-7,-10,-7c0,0,-6,0,-13,3c0,0,-8,3,-16,6c0,0,-9,4,-20,7c0,0,-11,2,-26,2c0,0,-25,0,-58,-22c0,0,-34,-22,-66,-61c0,0,-32,-39,-58,-92c0,0,-27,-53,-40,-116L172,18c0,0,-2,-6,-5,-10c0,0,-4,-4,-12,-7c0,0,-7,-2,-20,-3c0,0,-12,-2,-30,-2Z" 
id="f3_b1"
transform="scale(0.001,-0.001)" />

<path d="M293,92c0,0,41,0,83,23c0,0,41,22,77,62c0,0,36,40,64,95c0,0,27,54,41,119l25,123c0,0,-35,53,-76,79c0,0,-41,26,-91,26c0,0,-41,0,-73,-19c0,0,-32,-19,-57,-50c0,0,-25,-32,-44,-72c0,0,-18,-40,-30,-82c0,0,-11,-43,-17,-84c0,0,-5,-41,-5,-74c0,0,0,-26,4,-52c0,0,4,-25,15,-47c0,0,12,-21,32,-34c0,0,20,-13,52,-13ZM262,-13c0,0,-60,0,-99,20c0,0,-39,21,-62,55c0,0,-23,35,-32,78c0,0,-8,43,-8,89c0,0,0,42,7,95c0,0,8,53,26,108c0,0,17,55,45,107c0,0,28,53,68,94c0,0,39,42,92,67c0,0,52,25,118,25c0,0,67,0,114,-28c0,0,47,-27,85,-74l14,67c0,0,3,12,17,18c0,0,14,5,44,5c0,0,15,0,25,-1c0,0,10,-1,16,-4c0,0,6,-3,7,-8c0,0,2,-4,1,-10L606,18C606,18,603,6,590,0c0,0,-14,-4,-45,-4c0,0,-15,0,-25,2c0,0,-9,1,-15,3c0,0,-6,2,-8,6c0,0,-3,5,0,11l24,127c0,0,-10,-24,-35,-52c0,0,-25,-28,-60,-52C426,41,391,17,349,2c0,0,-43,-15,-87,-15Z" 
id="f3_77"
transform="scale(0.001,-0.001)" />

<path d="M390,486c0,0,47,0,79,13c0,0,31,12,51,35c0,0,20,23,31,55c0,0,10,31,10,69c0,0,0,50,-18,83c0,0,-17,33,-44,49c0,0,-26,15,-54,19c0,0,-29,5,-59,5H302V486ZM203,-4c0,0,-28,0,-47,2c0,0,-19,2,-30,5c0,0,-11,4,-16,10c0,0,-4,6,-4,13V895c0,0,0,35,18,53c0,0,18,17,48,17H400c0,0,34,0,65,-3c0,0,31,-2,74,-11c0,0,43,-8,88,-31c0,0,44,-24,75,-59c0,0,32,-36,48,-83c0,0,17,-47,17,-106c0,0,0,-82,-26,-144c0,0,-25,-63,-74,-106c0,0,-48,-43,-118,-65c0,0,-71,-23,-166,-23H302V26c0,0,0,-7,-5,-13c0,0,-5,-6,-16,-10c0,0,-11,-3,-30,-5c0,0,-18,-2,-48,-2Z" 
id="f1_2g"
transform="scale(0.001,-0.001)" />

<path d="M382,534c0,0,51,0,88,12c0,0,37,12,61,35c0,0,25,22,36,51c0,0,12,30,12,65c0,0,0,57,-25,96c0,0,-26,40,-86,57c0,0,-18,5,-42,7c0,0,-23,2,-61,2H256V534ZM192,-4c0,0,-18,0,-31,2c0,0,-12,2,-19,3c0,0,-8,3,-11,8c0,0,-3,4,-3,10V913c0,0,0,29,15,40c0,0,16,12,33,12H381c0,0,37,0,61,-2c0,0,24,-2,44,-4c0,0,56,-10,98,-30c0,0,43,-21,73,-53c0,0,29,-33,43,-74c0,0,15,-41,15,-91c0,0,0,-49,-13,-87c0,0,-13,-39,-38,-68c0,0,-25,-30,-59,-51c0,0,-34,-22,-77,-37c0,0,24,-10,43,-26c0,0,20,-16,37,-39c0,0,16,-22,31,-51c0,0,15,-29,30,-66L756,73c0,0,10,-26,13,-37c0,0,3,-11,3,-17c0,0,0,-6,-2,-10c0,0,-2,-5,-10,-8c0,0,-7,-2,-21,-3c0,0,-13,-2,-36,-2c0,0,-19,0,-31,2c0,0,-13,1,-20,3c0,0,-7,4,-12,10c0,0,-4,6,-7,15L545,253c0,0,-16,39,-33,72c0,0,-17,32,-40,56c0,0,-23,23,-54,36c0,0,-32,13,-76,13H256V19c0,0,0,-6,-3,-10c0,0,-3,-5,-10,-8c0,0,-7,-1,-20,-3c0,0,-12,-2,-31,-2Z" 
id="f2_2j"
transform="scale(0.001,-0.001)" />

<path d="M318,-13c0,0,-48,0,-90,8c0,0,-41,8,-73,19c0,0,-33,12,-55,25c0,0,-22,13,-30,22c0,0,-9,8,-13,22c0,0,-4,14,-4,37c0,0,0,17,1,27c0,0,2,11,5,18c0,0,3,7,7,9c0,0,5,3,11,3c0,0,10,0,29,-13c0,0,19,-12,49,-27c0,0,30,-15,72,-28c0,0,42,-13,97,-13c0,0,42,0,77,11c0,0,34,11,59,32c0,0,25,20,39,50c0,0,13,30,13,68c0,0,0,41,-19,70c0,0,-18,29,-49,51c0,0,-30,22,-70,41c0,0,-39,18,-80,37c0,0,-41,19,-80,42c0,0,-39,23,-69,54c0,0,-31,32,-50,74c0,0,-19,42,-19,101c0,0,0,60,22,108c0,0,22,47,61,79c0,0,40,32,94,49c0,0,54,17,116,17c0,0,32,0,65,-6c0,0,32,-5,61,-15c0,0,29,-9,51,-20c0,0,22,-12,30,-19c0,0,7,-7,9,-11c0,0,2,-4,4,-10c0,0,1,-7,2,-16c0,0,1,-9,1,-23c0,0,0,-13,-2,-24c0,0,-1,-10,-3,-17c0,0,-2,-8,-6,-11c0,0,-4,-3,-10,-3c0,0,-8,0,-25,10c0,0,-18,11,-43,24c0,0,-26,13,-60,23c0,0,-35,11,-78,11c0,0,-40,0,-70,-11c0,0,-30,-10,-49,-28c0,0,-20,-18,-29,-43c0,0,-10,-25,-10,-52c0,0,0,-40,18,-70c0,0,19,-29,50,-51c0,0,31,-22,71,-41c0,0,39,-19,80,-38c0,0,41,-19,81,-41c0,0,39,-23,70,-54c0,0,31,-31,50,-73c0,0,19,-42,19,-100c0,0,0,-68,-25,-121c0,0,-25,-53,-69,-89C552,61,508,24,448,5c0,0,-60,-18,-130,-18Z" 
id="f2_2n"
transform="scale(0.001,-0.001)" />

<path d="M589,371L453,782h-1L317,371ZM106,-4c0,0,-35,0,-54,2C52,-2,32,0,25,8c0,0,-7,9,-5,24c0,0,2,16,11,42L329,931c0,0,4,13,10,21c0,0,6,7,19,12c0,0,13,4,36,5c0,0,23,1,61,1c0,0,44,0,71,-1c0,0,26,-1,40,-5c0,0,15,-5,21,-13c0,0,6,-8,11,-22L896,73c0,0,9,-27,11,-43c0,0,3,-15,-6,-23c0,0,-8,-7,-29,-9c0,0,-21,-2,-57,-2c0,0,-38,0,-59,1c0,0,-22,1,-33,4c0,0,-11,3,-16,9c0,0,-4,6,-7,16L635,220H272L211,31c0,0,-2,-11,-7,-18c0,0,-5,-7,-16,-11c0,0,-11,-3,-31,-4c0,0,-19,-2,-51,-2Z" 
id="f1_5"
transform="scale(0.001,-0.001)" />

<path d="M380,142c0,0,19,0,37,5c0,0,19,6,38,19c0,0,19,12,39,33c0,0,20,20,44,50V470c0,0,-40,50,-77,77c0,0,-37,27,-77,27c0,0,-37,0,-63,-18c0,0,-27,-19,-43,-49c0,0,-16,-31,-24,-68c0,0,-8,-38,-8,-77c0,0,0,-42,7,-82c0,0,7,-39,22,-70c0,0,15,-31,41,-50c0,0,25,-18,64,-18ZM333,-17c0,0,-76,0,-129,29c0,0,-52,29,-85,79c0,0,-33,50,-48,117c0,0,-15,67,-15,141c0,0,0,89,19,160c0,0,19,71,55,121c0,0,37,50,91,76c0,0,55,27,125,27c0,0,56,0,102,-22c0,0,45,-23,90,-67v360c0,0,0,8,4,14c0,0,4,6,15,10c0,0,11,4,29,6c0,0,18,2,45,2c0,0,28,0,46,-2c0,0,18,-2,28,-6c0,0,11,-4,15,-10c0,0,5,-6,5,-14V25c0,0,0,-8,-4,-14c0,0,-4,-5,-13,-9c0,0,-9,-3,-24,-4c0,0,-15,-2,-38,-2c0,0,-24,0,-39,2c0,0,-15,1,-24,4c0,0,-9,4,-13,9c0,0,-5,6,-5,14V99C565,99,514,44,458,13c0,0,-57,-30,-125,-30Z" 
id="f1_7v"
transform="scale(0.001,-0.001)" />

<path d="M361,-4c0,0,-39,0,-64,2c0,0,-25,2,-40,5c0,0,-14,5,-20,13c0,0,-7,7,-10,19L27,638c0,0,-5,15,-7,27c0,0,-3,12,-3,17c0,0,-1,5,-1,10c0,0,0,7,4,13c0,0,4,5,15,9c0,0,10,4,28,5c0,0,19,2,46,2c0,0,31,0,50,-2c0,0,18,-2,29,-5c0,0,11,-4,15,-10c0,0,5,-7,8,-15L363,200l4,-19l5,19L521,689c0,0,2,8,7,15c0,0,5,6,15,10c0,0,10,3,28,5c0,0,18,2,46,2c0,0,28,0,45,-2c0,0,18,-1,27,-5c0,0,10,-4,14,-9c0,0,3,-6,3,-13c0,0,0,-4,0,-9c0,0,0,-6,-1,-12c0,0,-2,-6,-3,-15c0,0,-2,-8,-5,-18L497,35c0,0,-4,-12,-10,-20c0,0,-7,-8,-21,-12c0,0,-15,-4,-40,-5c0,0,-25,-2,-65,-2Z" 
id="f1_ch"
transform="scale(0.001,-0.001)" />

<path d="M224,-4c0,0,-26,0,-45,2c0,0,-18,2,-29,5c0,0,-11,3,-15,9c0,0,-4,5,-4,13V563H48c0,0,-14,0,-21,18c0,0,-7,17,-7,58c0,0,0,22,1,37c0,0,2,15,6,24c0,0,3,8,9,12c0,0,5,4,13,4h82v56c0,0,0,68,13,119c0,0,14,51,43,85c0,0,29,34,73,51c0,0,45,17,105,17c0,0,29,0,55,-5c0,0,27,-4,42,-10c0,0,15,-6,20,-10c0,0,5,-5,8,-15c0,0,4,-9,5,-23c0,0,2,-15,2,-37c0,0,0,-21,-2,-34c0,0,-1,-13,-4,-20c0,0,-3,-7,-7,-10c0,0,-4,-3,-8,-3c0,0,-5,0,-12,3c0,0,-6,3,-16,6c0,0,-9,2,-22,5c0,0,-12,3,-29,3c0,0,-21,0,-35,-7c0,0,-15,-6,-25,-20c0,0,-9,-14,-14,-36c0,0,-4,-22,-4,-54V716H440c0,0,7,0,13,-4c0,0,5,-4,9,-12c0,0,4,-9,5,-24c0,0,2,-15,2,-37c0,0,0,-41,-7,-58c0,0,-8,-18,-22,-18H319V25c0,0,0,-8,-5,-13c0,0,-4,-6,-15,-9c0,0,-10,-3,-29,-5c0,0,-19,-2,-46,-2Z" 
id="f1_89"
transform="scale(0.001,-0.001)" />

<path d="M371,-16c0,0,-77,0,-136,23c0,0,-60,24,-100,71c0,0,-40,47,-61,114c0,0,-20,67,-20,154c0,0,0,100,25,173c0,0,25,72,69,120c0,0,45,48,106,71c0,0,62,23,135,23c0,0,29,0,58,-5c0,0,29,-5,54,-14c0,0,25,-9,45,-20c0,0,19,-12,28,-20c0,0,8,-8,11,-14c0,0,3,-5,5,-14c0,0,2,-9,3,-22c0,0,1,-13,1,-32c0,0,0,-43,-7,-61c0,0,-7,-18,-19,-18c0,0,-13,0,-27,11c0,0,-14,10,-34,23c0,0,-19,13,-46,23c0,0,-27,11,-64,11c0,0,-73,0,-112,-57c0,0,-39,-56,-39,-165c0,0,0,-54,10,-95c0,0,10,-41,29,-69c0,0,19,-28,47,-41c0,0,29,-14,67,-14c0,0,39,0,67,11c0,0,28,12,49,26c0,0,21,14,35,26c0,0,14,11,24,11c0,0,6,0,11,-4c0,0,4,-3,7,-13c0,0,2,-11,4,-26c0,0,1,-16,1,-41c0,0,0,-19,-1,-32c0,0,-1,-13,-3,-22c0,0,-2,-9,-4,-15c0,0,-3,-5,-12,-14c0,0,-9,-8,-30,-20C547,27,525,14,497,5c0,0,-27,-9,-60,-15c0,0,-32,-6,-66,-6Z" 
id="f1_7l"
transform="scale(0.001,-0.001)" />

<path d="M398,-4c0,0,-25,0,-41,2c0,0,-17,1,-27,3c0,0,-11,4,-16,10c0,0,-6,6,-8,17L51,920c0,0,-5,17,-5,27c0,0,0,10,6,15c0,0,6,5,20,6c0,0,15,2,38,2c0,0,24,0,37,-1c0,0,13,-1,20,-4c0,0,8,-3,10,-8c0,0,3,-6,4,-14L398,134h1L605,942c0,0,2,8,6,13c0,0,3,6,10,9c0,0,8,3,22,4c0,0,13,2,36,2c0,0,21,0,33,-2c0,0,12,-1,20,-4c0,0,7,-3,11,-9c0,0,3,-5,5,-13L970,134h1l213,808c0,0,2,8,4,13c0,0,3,6,10,9c0,0,7,3,20,4c0,0,13,2,35,2c0,0,22,0,35,-2c0,0,13,-2,19,-7c0,0,6,-5,6,-15c0,0,-1,-10,-5,-27L1053,28c0,0,-3,-11,-9,-17c0,0,-6,-6,-17,-10c0,0,-10,-2,-26,-3c0,0,-15,-2,-37,-2c0,0,-23,0,-39,2c0,0,-16,1,-27,3c0,0,-10,4,-15,10c0,0,-6,6,-9,17L672,757h-1L484,28c0,0,-2,-11,-7,-17c0,0,-6,-6,-15,-10c0,0,-10,-2,-25,-3c0,0,-16,-2,-39,-2Z" 
id="f2_39"
transform="scale(0.001,-0.001)" />

<path d="M345,-143c0,0,43,0,72,9c0,0,29,8,47,23c0,0,18,14,25,31c0,0,8,18,8,37c0,0,0,33,-27,50c0,0,-27,18,-74,20L263,30C263,30,243,16,232,3c0,0,-12,-12,-19,-24c0,0,-7,-12,-9,-23c0,0,-3,-11,-3,-23c0,0,0,-37,38,-56c0,0,38,-20,106,-20Zm-4,517c0,0,28,0,49,9c0,0,21,9,35,25c0,0,14,16,21,36c0,0,7,21,7,43c0,0,0,54,-30,84c0,0,-30,29,-84,29c0,0,-28,0,-49,-9c0,0,-21,-9,-34,-25c0,0,-14,-16,-21,-38c0,0,-7,-21,-7,-44c0,0,0,-51,30,-80c0,0,30,-30,83,-30Zm-4,-645c0,0,-85,0,-145,14c0,0,-60,13,-98,37c0,0,-39,24,-56,57c0,0,-18,33,-18,73c0,0,0,24,6,47c0,0,7,22,19,42c0,0,12,20,30,39c0,0,18,18,41,35c0,0,-32,18,-49,47c0,0,-18,29,-18,64c0,0,0,44,20,80c0,0,21,36,53,65c0,0,-27,26,-42,63c0,0,-16,37,-16,91c0,0,0,58,21,104c0,0,20,46,57,78c0,0,36,32,87,49c0,0,51,16,112,16c0,0,31,0,60,-3c0,0,29,-4,53,-11H665c0,0,13,0,21,-17c0,0,8,-16,8,-55c0,0,0,-36,-8,-53c0,0,-9,-17,-21,-17H587c0,0,17,-18,24,-41c0,0,7,-22,7,-47c0,0,0,-58,-20,-103c0,0,-19,-45,-55,-76c0,0,-36,-31,-88,-47c0,0,-51,-17,-113,-17c0,0,-32,0,-61,8c0,0,-30,8,-45,19c0,0,-9,-10,-16,-23c0,0,-7,-14,-7,-30c0,0,0,-22,19,-36c0,0,19,-13,53,-15l162,-6c0,0,57,-2,101,-16c0,0,44,-14,75,-39c0,0,30,-24,46,-59c0,0,16,-35,16,-79c0,0,0,-49,-22,-93c0,0,-21,-44,-65,-76c0,0,-43,-32,-108,-50c0,0,-66,-19,-153,-19Z" 
id="f1_9d"
transform="scale(0.001,-0.001)" />

<path d="M176,-4c0,0,-18,0,-30,2c0,0,-12,1,-19,3c0,0,-7,3,-10,7c0,0,-3,4,-3,10v997c0,0,0,6,3,11c0,0,3,4,10,7c0,0,7,3,19,5c0,0,12,1,30,1c0,0,18,0,30,-1c0,0,12,-2,19,-5c0,0,7,-3,9,-7c0,0,3,-5,3,-11V408L492,687c0,0,6,7,12,12c0,0,7,5,16,8c0,0,10,4,22,5c0,0,13,1,31,1c0,0,19,0,31,-1c0,0,13,-1,21,-4c0,0,8,-3,11,-7c0,0,3,-4,3,-11c0,0,0,-9,-4,-18c0,0,-5,-8,-16,-20L375,408L648,54c0,0,10,-13,14,-20c0,0,4,-8,4,-15c0,0,0,-6,-3,-10c0,0,-3,-5,-10,-8c0,0,-7,-2,-20,-3c0,0,-13,-2,-32,-2c0,0,-20,0,-33,1c0,0,-13,1,-22,3c0,0,-9,3,-15,7c0,0,-5,5,-10,12L237,391V18c0,0,0,-6,-3,-10c0,0,-2,-4,-9,-7c0,0,-7,-2,-19,-3c0,0,-12,-2,-30,-2Z" 
id="f2_a5"
transform="scale(0.001,-0.001)" />

<path d="M69,-215c0,0,-12,0,-21,1c0,0,-8,1,-12,4c0,0,-4,2,-4,7c0,0,-1,4,2,10L134,11v96c0,0,0,20,4,32c0,0,4,12,13,18c0,0,9,6,22,8c0,0,13,2,33,2c0,0,19,0,32,-2c0,0,13,-2,22,-8c0,0,9,-6,13,-18c0,0,4,-12,4,-32c0,0,0,-23,-2,-43c0,0,-3,-19,-8,-36c0,0,-5,-17,-14,-33c0,0,-8,-17,-21,-36L130,-194c0,0,-4,-5,-9,-9c0,0,-5,-4,-12,-7c0,0,-7,-3,-16,-4c0,0,-9,-1,-24,-1Z" 
id="f2_nq"
transform="scale(0.001,-0.001)" />

<path d="M494,385V878L152,385ZM494,0V262H20V385l498,708H628V385H775V262H628V0Z" 
id="f4_o"
transform="scale(0.001,-0.001)" />


</defs>
</svg>