<?xml version="1.0" encoding="UTF-8" standalone="no"?>
<!DOCTYPE svg PUBLIC "-//W3C//DTD SVG 1.1//EN"
"http://www.w3.org/Graphics/SVG/1.1/DTD/svg11.dtd">
<svg viewBox="0 0 909 1286" version="1.1" xmlns="http://www.w3.org/2000/svg" xmlns:xlink="http://www.w3.org/1999/xlink">
<defs>
</defs>
<g fill="#000000" >
<use xlink:href="#f0_13" transform="matrix(12,0,0,12,55,394.6)" />
<use xlink:href="#f0_2b" transform="matrix(12,0,0,12,68.3,394.6)" />
<use xlink:href="#f0_25" transform="matrix(12,0,0,12,77.4,394.6)" />
<use xlink:href="#f0_28" transform="matrix(12,0,0,12,82.5,394.6)" />
<use xlink:href="#f0_25" transform="matrix(12,0,0,12,87.3,394.6)" />
<use xlink:href="#f0_2a" transform="matrix(12,0,0,12,92.4,394.6)" />
<use xlink:href="#f0_23" transform="matrix(12,0,0,12,102.7,394.6)" />
<use xlink:href="#f0_2b" transform="matrix(12,0,0,12,116.6,394.6)" />
<use xlink:href="#f0_22" transform="matrix(12,0,0,12,125.8,394.6)" />
<use xlink:href="#f0_2l" transform="matrix(12,0,0,12,136.4,394.6)" />
<use xlink:href="#f0_2b" transform="matrix(12,0,0,12,145.5,394.6)" />
<use xlink:href="#f0_2h" transform="matrix(12,0,0,12,154.7,394.6)" />
<use xlink:href="#f0_23" transform="matrix(12,0,0,12,165,394.6)" />
<use xlink:href="#f0_28" transform="matrix(12,0,0,12,178.9,394.6)" />
<use xlink:href="#f0_21" transform="matrix(12,0,0,12,183.6,394.6)" />
<use xlink:href="#f0_1x" transform="matrix(12,0,0,12,191.7,394.6)" />
<use xlink:href="#f0_2i" transform="matrix(12,0,0,12,200.9,394.6)" />
<use xlink:href="#f0_21" transform="matrix(12,0,0,12,210,394.6)" />
<use xlink:href="#f0_2f" transform="matrix(12,0,0,12,218.1,394.6)" />
<use xlink:href="#f0_h" transform="matrix(12,0,0,12,230,394.6)" />
<use xlink:href="#f0_13" transform="matrix(12,0,0,12,241,394.6)" />
<use xlink:href="#f0_25" transform="matrix(12,0,0,12,254.2,394.6)" />
<use xlink:href="#f0_2e" transform="matrix(12,0,0,12,259.3,394.6)" />
<use xlink:href="#f0_1z" transform="matrix(12,0,0,12,267,394.6)" />
<use xlink:href="#f0_25" transform="matrix(12,0,0,12,275.1,394.6)" />
<use xlink:href="#f0_2a" transform="matrix(12,0,0,12,280.2,394.6)" />
<use xlink:href="#f0_1x" transform="matrix(12,0,0,12,290.5,394.6)" />
<use xlink:href="#f0_2g" transform="matrix(12,0,0,12,299.7,394.6)" />
<use xlink:href="#f0_21" transform="matrix(12,0,0,12,305.9,394.6)" />
<use xlink:href="#f0_2i" transform="matrix(12,0,0,12,318.7,394.6)" />
<use xlink:href="#f0_21" transform="matrix(12,0,0,12,327.9,394.6)" />
<use xlink:href="#f0_2e" transform="matrix(12,0,0,12,336.3,394.6)" />
<use xlink:href="#f0_2a" transform="matrix(12,0,0,12,344,394.6)" />
<use xlink:href="#f0_1x" transform="matrix(12,0,0,12,354.2,394.6)" />
<use xlink:href="#f0_2g" transform="matrix(12,0,0,12,363.5,394.6)" />
<use xlink:href="#f0_25" transform="matrix(12,0,0,12,369.7,394.6)" />
<use xlink:href="#f0_2b" transform="matrix(12,0,0,12,374.8,394.6)" />
<use xlink:href="#f0_2a" transform="matrix(12,0,0,12,384,394.6)" />
<use xlink:href="#f0_25" transform="matrix(12,0,0,12,399,394.6)" />
<use xlink:href="#f0_2f" transform="matrix(12,0,0,12,404.1,394.6)" />
<use xlink:href="#f0_2f" transform="matrix(12,0,0,12,415.9,394.6)" />
<use xlink:href="#f0_21" transform="matrix(12,0,0,12,422.8,394.6)" />
<use xlink:href="#f0_21" transform="matrix(12,0,0,12,430.9,394.6)" />
<use xlink:href="#f0_2a" transform="matrix(12,0,0,12,439,394.6)" />
<use xlink:href="#f0_25" transform="matrix(12,0,0,12,454,394.6)" />
<use xlink:href="#f0_2a" transform="matrix(12,0,0,12,459.1,394.6)" />
<use xlink:href="#f0_2c" transform="matrix(12,0,0,12,474.1,394.6)" />
<use xlink:href="#f0_2g" transform="matrix(12,0,0,12,484,394.6)" />
<use xlink:href="#f0_21" transform="matrix(12,0,0,12,490.2,394.6)" />
<use xlink:href="#f0_2e" transform="matrix(12,0,0,12,498.3,394.6)" />
<use xlink:href="#f0_25" transform="matrix(12,0,0,12,506,394.6)" />
<use xlink:href="#f0_20" transform="matrix(12,0,0,12,511.1,394.6)" />
<use xlink:href="#f0_2b" transform="matrix(12,0,0,12,521.4,394.6)" />
<use xlink:href="#f0_2c" transform="matrix(12,0,0,12,530.5,394.6)" />
<use xlink:href="#f0_24" transform="matrix(12,0,0,12,540.8,394.6)" />
<use xlink:href="#f0_2l" transform="matrix(12,0,0,12,551,394.6)" />
<use xlink:href="#f0_2g" transform="matrix(12,0,0,12,560.2,394.6)" />
<use xlink:href="#f0_21" transform="matrix(12,0,0,12,566.4,394.6)" />
<use xlink:href="#f0_2f" transform="matrix(12,0,0,12,574.5,394.6)" />
<use xlink:href="#f1_i" transform="matrix(12,0,0,12,581.7,394.6)" />
<use xlink:href="#f1_1c" transform="matrix(12,0,0,12,55,645.1)" />
<use xlink:href="#f1_21" transform="matrix(12,0,0,12,66,645.1)" />
<use xlink:href="#f1_1x" transform="matrix(12,0,0,12,74.1,645.1)" />
<use xlink:href="#f1_2i" transform="matrix(12,0,0,12,82.5,645.1)" />
<use xlink:href="#f1_21" transform="matrix(12,0,0,12,91.3,645.1)" />
<use xlink:href="#f1_2f" transform="matrix(12,0,0,12,99.7,645.1)" />
<use xlink:href="#f1_1x" transform="matrix(12,0,0,12,111.4,645.1)" />
<use xlink:href="#f1_2e" transform="matrix(12,0,0,12,119.5,645.1)" />
<use xlink:href="#f1_21" transform="matrix(12,0,0,12,125.7,645.1)" />
<use xlink:href="#f1_2b" transform="matrix(12,0,0,12,138.5,645.1)" />
<use xlink:href="#f1_22" transform="matrix(12,0,0,12,148.1,645.1)" />
<use xlink:href="#f1_2g" transform="matrix(12,0,0,12,158.3,645.1)" />
<use xlink:href="#f1_2j" transform="matrix(12,0,0,12,163.8,645.1)" />
<use xlink:href="#f1_2b" transform="matrix(12,0,0,12,176.6,645.1)" />
<use xlink:href="#f1_2g" transform="matrix(12,0,0,12,190.2,645.1)" />
<use xlink:href="#f1_2l" transform="matrix(12,0,0,12,195.7,645.1)" />
<use xlink:href="#f1_2c" transform="matrix(12,0,0,12,204.1,645.1)" />
<use xlink:href="#f1_21" transform="matrix(12,0,0,12,213.3,645.1)" />
<use xlink:href="#f1_2f" transform="matrix(12,0,0,12,221.7,645.1)" />
<use xlink:href="#f1_2i" transform="matrix(12,0,0,12,233.4,645.1)" />
<use xlink:href="#f1_21" transform="matrix(12,0,0,12,242.2,645.1)" />
<use xlink:href="#f1_23" transform="matrix(12,0,0,12,250.3,645.1)" />
<use xlink:href="#f1_21" transform="matrix(12,0,0,12,259.8,645.1)" />
<use xlink:href="#f1_2g" transform="matrix(12,0,0,12,267.8,645.1)" />
<use xlink:href="#f1_1x" transform="matrix(12,0,0,12,273.3,645.1)" />
<use xlink:href="#f1_2g" transform="matrix(12,0,0,12,281.4,645.1)" />
<use xlink:href="#f1_25" transform="matrix(12,0,0,12,286.9,645.1)" />
<use xlink:href="#f1_2i" transform="matrix(12,0,0,12,291.3,645.1)" />
<use xlink:href="#f1_21" transform="matrix(12,0,0,12,300.4,645.1)" />
<use xlink:href="#f1_1x" transform="matrix(12,0,0,12,313.3,645.1)" />
<use xlink:href="#f1_2a" transform="matrix(12,0,0,12,321.3,645.1)" />
<use xlink:href="#f1_20" transform="matrix(12,0,0,12,330.1,645.1)" />
<use xlink:href="#f1_22" transform="matrix(12,0,0,12,344.4,645.1)" />
<use xlink:href="#f1_21" transform="matrix(12,0,0,12,350.3,645.1)" />
<use xlink:href="#f1_2e" transform="matrix(12,0,0,12,358.3,645.1)" />
<use xlink:href="#f1_2g" transform="matrix(12,0,0,12,364.6,645.1)" />
<use xlink:href="#f1_25" transform="matrix(12,0,0,12,370,645.1)" />
<use xlink:href="#f1_28" transform="matrix(12,0,0,12,374.8,645.1)" />
<use xlink:href="#f1_21" transform="matrix(12,0,0,12,379.6,645.1)" />
<use xlink:href="#f1_i" transform="matrix(12,0,0,12,387.6,645.1)" />
<use xlink:href="#f1_16" transform="matrix(12,0,0,12,397.6,645.1)" />
<use xlink:href="#f1_21" transform="matrix(12,0,0,12,407.5,645.1)" />
<use xlink:href="#f1_2e" transform="matrix(12,0,0,12,415.6,645.1)" />
<use xlink:href="#f1_2g" transform="matrix(12,0,0,12,421.8,645.1)" />
<use xlink:href="#f1_25" transform="matrix(12,0,0,12,427.3,645.1)" />
<use xlink:href="#f1_28" transform="matrix(12,0,0,12,432.4,645.1)" />
<use xlink:href="#f1_21" transform="matrix(12,0,0,12,437.2,645.1)" />
<use xlink:href="#f1_28" transform="matrix(12,0,0,12,450.4,645.1)" />
<use xlink:href="#f1_21" transform="matrix(12,0,0,12,455.1,645.1)" />
<use xlink:href="#f1_1x" transform="matrix(12,0,0,12,463.2,645.1)" />
<use xlink:href="#f1_2i" transform="matrix(12,0,0,12,471.6,645.1)" />
<use xlink:href="#f1_21" transform="matrix(12,0,0,12,480.4,645.1)" />
<use xlink:href="#f1_2f" transform="matrix(12,0,0,12,488.5,645.1)" />
<use xlink:href="#f1_1x" transform="matrix(12,0,0,12,500.2,645.1)" />
<use xlink:href="#f1_2e" transform="matrix(12,0,0,12,508.3,645.1)" />
<use xlink:href="#f1_21" transform="matrix(12,0,0,12,514.5,645.1)" />
<use xlink:href="#f1_2g" transform="matrix(12,0,0,12,527.3,645.1)" />
<use xlink:href="#f1_24" transform="matrix(12,0,0,12,532.8,645.1)" />
<use xlink:href="#f1_21" transform="matrix(12,0,0,12,541.6,645.1)" />
<use xlink:href="#f1_2f" transform="matrix(12,0,0,12,554.4,645.1)" />
<use xlink:href="#f1_2c" transform="matrix(12,0,0,12,561.4,645.1)" />
<use xlink:href="#f1_2b" transform="matrix(12,0,0,12,570.5,645.1)" />
<use xlink:href="#f1_2e" transform="matrix(12,0,0,12,580,645.1)" />
<use xlink:href="#f1_21" transform="matrix(12,0,0,12,586.3,645.1)" />
<use xlink:href="#f1_1y" transform="matrix(12,0,0,12,599.1,645.1)" />
<use xlink:href="#f1_21" transform="matrix(12,0,0,12,607.9,645.1)" />
<use xlink:href="#f1_1x" transform="matrix(12,0,0,12,615.9,645.1)" />
<use xlink:href="#f1_2e" transform="matrix(12,0,0,12,624,645.1)" />
<use xlink:href="#f1_25" transform="matrix(12,0,0,12,630.6,645.1)" />
<use xlink:href="#f1_2a" transform="matrix(12,0,0,12,635.3,645.1)" />
<use xlink:href="#f1_23" transform="matrix(12,0,0,12,644.1,645.1)" />
<use xlink:href="#f1_28" transform="matrix(12,0,0,12,658.4,645.1)" />
<use xlink:href="#f1_21" transform="matrix(12,0,0,12,662.8,645.1)" />
<use xlink:href="#f1_1x" transform="matrix(12,0,0,12,670.9,645.1)" />
<use xlink:href="#f1_2i" transform="matrix(12,0,0,12,679.3,645.1)" />
<use xlink:href="#f1_21" transform="matrix(12,0,0,12,688.5,645.1)" />
<use xlink:href="#f1_2f" transform="matrix(12,0,0,12,696.5,645.1)" />
<use xlink:href="#f1_1z" transform="matrix(12,0,0,12,708.3,645.1)" />
<use xlink:href="#f1_1x" transform="matrix(12,0,0,12,716.3,645.1)" />
<use xlink:href="#f1_28" transform="matrix(12,0,0,12,724.7,645.1)" />
<use xlink:href="#f1_28" transform="matrix(12,0,0,12,729.8,645.1)" />
<use xlink:href="#f1_21" transform="matrix(12,0,0,12,734.6,645.1)" />
<use xlink:href="#f1_20" transform="matrix(12,0,0,12,742.7,645.1)" />
<use xlink:href="#f1_2f" transform="matrix(12,0,0,12,756.6,645.1)" />
<use xlink:href="#f1_2c" transform="matrix(12,0,0,12,763.6,645.1)" />
<use xlink:href="#f1_2b" transform="matrix(12,0,0,12,772.8,645.1)" />
<use xlink:href="#f1_2e" transform="matrix(12,0,0,12,782.3,645.1)" />
<use xlink:href="#f1_2b" transform="matrix(12,0,0,12,788.1,645.1)" />
<use xlink:href="#f1_2c" transform="matrix(12,0,0,12,797.3,645.1)" />
<use xlink:href="#f1_24" transform="matrix(12,0,0,12,806.5,645.1)" />
<use xlink:href="#f1_2l" transform="matrix(12,0,0,12,815.6,645.1)" />
<use xlink:href="#f1_28" transform="matrix(12,0,0,12,824.8,645.1)" />
<use xlink:href="#f1_28" transform="matrix(12,0,0,12,829.9,645.1)" />
<use xlink:href="#f1_2f" transform="matrix(12,0,0,12,834.7,645.1)" />
<use xlink:href="#f1_i" transform="matrix(12,0,0,12,841.7,645.1)" />
<use xlink:href="#f1_1j" transform="matrix(12,0,0,12,55,666)" />
<use xlink:href="#f1_2c" transform="matrix(12,0,0,12,65.3,666)" />
<use xlink:href="#f1_2b" transform="matrix(12,0,0,12,74.5,666)" />
<use xlink:href="#f1_2e" transform="matrix(12,0,0,12,83.6,666)" />
<use xlink:href="#f1_21" transform="matrix(12,0,0,12,89.8,666)" />
<use xlink:href="#f1_2f" transform="matrix(12,0,0,12,97.9,666)" />
<use xlink:href="#f1_1x" transform="matrix(12,0,0,12,109.6,666)" />
<use xlink:href="#f1_2e" transform="matrix(12,0,0,12,117.7,666)" />
<use xlink:href="#f1_21" transform="matrix(12,0,0,12,123.9,666)" />
<use xlink:href="#f1_22" transform="matrix(12,0,0,12,136.7,666)" />
<use xlink:href="#f1_2b" transform="matrix(12,0,0,12,142.2,666)" />
<use xlink:href="#f1_2e" transform="matrix(12,0,0,12,151.7,666)" />
<use xlink:href="#f1_29" transform="matrix(12,0,0,12,157.9,666)" />
<use xlink:href="#f1_21" transform="matrix(12,0,0,12,171.5,666)" />
<use xlink:href="#f1_20" transform="matrix(12,0,0,12,179.6,666)" />
<use xlink:href="#f1_25" transform="matrix(12,0,0,12,193.9,666)" />
<use xlink:href="#f1_2a" transform="matrix(12,0,0,12,198.6,666)" />
<use xlink:href="#f1_2f" transform="matrix(12,0,0,12,207.8,666)" />
<use xlink:href="#f1_25" transform="matrix(12,0,0,12,215.1,666)" />
<use xlink:href="#f1_20" transform="matrix(12,0,0,12,219.9,666)" />
<use xlink:href="#f1_21" transform="matrix(12,0,0,12,229,666)" />
<use xlink:href="#f1_2g" transform="matrix(12,0,0,12,241.9,666)" />
<use xlink:href="#f1_24" transform="matrix(12,0,0,12,247.3,666)" />
<use xlink:href="#f1_21" transform="matrix(12,0,0,12,256.1,666)" />
<use xlink:href="#f1_2f" transform="matrix(12,0,0,12,268.9,666)" />
<use xlink:href="#f1_2c" transform="matrix(12,0,0,12,275.9,666)" />
<use xlink:href="#f1_2b" transform="matrix(12,0,0,12,285.1,666)" />
<use xlink:href="#f1_2e" transform="matrix(12,0,0,12,294.6,666)" />
<use xlink:href="#f1_1x" transform="matrix(12,0,0,12,300.8,666)" />
<use xlink:href="#f1_2a" transform="matrix(12,0,0,12,308.9,666)" />
<use xlink:href="#f1_23" transform="matrix(12,0,0,12,317.7,666)" />
<use xlink:href="#f1_25" transform="matrix(12,0,0,12,327.2,666)" />
<use xlink:href="#f1_1x" transform="matrix(12,0,0,12,332,666)" />
<use xlink:href="#f1_i" transform="matrix(12,0,0,12,340,666)" />
<use xlink:href="#f1_19" transform="matrix(12,0,0,12,55,687.3)" />
<use xlink:href="#f1_2a" transform="matrix(12,0,0,12,61.3,687.3)" />
<use xlink:href="#f1_1j" transform="matrix(12,0,0,12,74.8,687.3)" />
<use xlink:href="#f1_2c" transform="matrix(12,0,0,12,85,687.3)" />
<use xlink:href="#f1_2b" transform="matrix(12,0,0,12,94.2,687.3)" />
<use xlink:href="#f1_2e" transform="matrix(12,0,0,12,103.7,687.3)" />
<use xlink:href="#f1_1x" transform="matrix(12,0,0,12,109.9,687.3)" />
<use xlink:href="#f1_2a" transform="matrix(12,0,0,12,118,687.3)" />
<use xlink:href="#f1_23" transform="matrix(12,0,0,12,126.8,687.3)" />
<use xlink:href="#f1_25" transform="matrix(12,0,0,12,136.3,687.3)" />
<use xlink:href="#f1_1x" transform="matrix(12,0,0,12,140.7,687.3)" />
<use xlink:href="#f1_g" transform="matrix(12,0,0,12,148.8,687.3)" />
<use xlink:href="#f1_2g" transform="matrix(12,0,0,12,158.3,687.3)" />
<use xlink:href="#f1_24" transform="matrix(12,0,0,12,163.8,687.3)" />
<use xlink:href="#f1_21" transform="matrix(12,0,0,12,172.6,687.3)" />
<use xlink:href="#f1_2f" transform="matrix(12,0,0,12,185.4,687.3)" />
<use xlink:href="#f1_2c" transform="matrix(12,0,0,12,192.4,687.3)" />
<use xlink:href="#f1_2b" transform="matrix(12,0,0,12,201.5,687.3)" />
<use xlink:href="#f1_2e" transform="matrix(12,0,0,12,211,687.3)" />
<use xlink:href="#f1_21" transform="matrix(12,0,0,12,217.2,687.3)" />
<use xlink:href="#f1_29" transform="matrix(12,0,0,12,229.7,687.3)" />
<use xlink:href="#f1_2b" transform="matrix(12,0,0,12,243.3,687.3)" />
<use xlink:href="#f1_2g" transform="matrix(12,0,0,12,252.8,687.3)" />
<use xlink:href="#f1_24" transform="matrix(12,0,0,12,258.3,687.3)" />
<use xlink:href="#f1_21" transform="matrix(12,0,0,12,267.1,687.3)" />
<use xlink:href="#f1_2e" transform="matrix(12,0,0,12,275.1,687.3)" />
<use xlink:href="#f1_1z" transform="matrix(12,0,0,12,286.1,687.3)" />
<use xlink:href="#f1_21" transform="matrix(12,0,0,12,294.2,687.3)" />
<use xlink:href="#f1_28" transform="matrix(12,0,0,12,302.6,687.3)" />
<use xlink:href="#f1_28" transform="matrix(12,0,0,12,307.3,687.3)" />
<use xlink:href="#f1_2f" transform="matrix(12,0,0,12,312.1,687.3)" />
<use xlink:href="#f1_23" transform="matrix(12,0,0,12,323.8,687.3)" />
<use xlink:href="#f1_25" transform="matrix(12,0,0,12,333.3,687.3)" />
<use xlink:href="#f1_2i" transform="matrix(12,0,0,12,338.1,687.3)" />
<use xlink:href="#f1_21" transform="matrix(12,0,0,12,346.9,687.3)" />
<use xlink:href="#f1_2e" transform="matrix(12,0,0,12,359.7,687.3)" />
<use xlink:href="#f1_25" transform="matrix(12,0,0,12,366.3,687.3)" />
<use xlink:href="#f1_2f" transform="matrix(12,0,0,12,371.1,687.3)" />
<use xlink:href="#f1_21" transform="matrix(12,0,0,12,378,687.3)" />
<use xlink:href="#f1_2g" transform="matrix(12,0,0,12,390.8,687.3)" />
<use xlink:href="#f1_2b" transform="matrix(12,0,0,12,396.3,687.3)" />
<use xlink:href="#f1_2f" transform="matrix(12,0,0,12,410.2,687.3)" />
<use xlink:href="#f1_2c" transform="matrix(12,0,0,12,417.2,687.3)" />
<use xlink:href="#f1_2b" transform="matrix(12,0,0,12,426,687.3)" />
<use xlink:href="#f1_2e" transform="matrix(12,0,0,12,435.5,687.3)" />
<use xlink:href="#f1_21" transform="matrix(12,0,0,12,441.7,687.3)" />
<use xlink:href="#f1_2f" transform="matrix(12,0,0,12,449.8,687.3)" />
<use xlink:href="#f1_1x" transform="matrix(12,0,0,12,461.5,687.3)" />
<use xlink:href="#f1_22" transform="matrix(12,0,0,12,469.6,687.3)" />
<use xlink:href="#f1_2g" transform="matrix(12,0,0,12,475.1,687.3)" />
<use xlink:href="#f1_21" transform="matrix(12,0,0,12,480.6,687.3)" />
<use xlink:href="#f1_2e" transform="matrix(12,0,0,12,488.6,687.3)" />
<use xlink:href="#f1_29" transform="matrix(12,0,0,12,499.6,687.3)" />
<use xlink:href="#f1_21" transform="matrix(12,0,0,12,513.2,687.3)" />
<use xlink:href="#f1_25" transform="matrix(12,0,0,12,521.6,687.3)" />
<use xlink:href="#f1_2b" transform="matrix(12,0,0,12,526,687.3)" />
<use xlink:href="#f1_2f" transform="matrix(12,0,0,12,535.5,687.3)" />
<use xlink:href="#f1_25" transform="matrix(12,0,0,12,542.8,687.3)" />
<use xlink:href="#f1_2f" transform="matrix(12,0,0,12,547.6,687.3)" />
<use xlink:href="#f1_i" transform="matrix(12,0,0,12,554.5,687.3)" />
<use xlink:href="#f0_1j" transform="matrix(12,0,0,12,55,708.2)" />
<use xlink:href="#f0_2c" transform="matrix(12,0,0,12,65.3,708.2)" />
<use xlink:href="#f0_2b" transform="matrix(12,0,0,12,75.5,708.2)" />
<use xlink:href="#f0_2e" transform="matrix(12,0,0,12,84.7,708.2)" />
<use xlink:href="#f0_21" transform="matrix(12,0,0,12,92.4,708.2)" />
<use xlink:href="#f0_2f" transform="matrix(12,0,0,12,100.5,708.2)" />
<use xlink:href="#f0_23" transform="matrix(12,0,0,12,113.3,708.2)" />
<use xlink:href="#f0_21" transform="matrix(12,0,0,12,122.8,708.2)" />
<use xlink:href="#f0_2e" transform="matrix(12,0,0,12,131.2,708.2)" />
<use xlink:href="#f0_29" transform="matrix(12,0,0,12,138.9,708.2)" />
<use xlink:href="#f0_25" transform="matrix(12,0,0,12,153.9,708.2)" />
<use xlink:href="#f0_2a" transform="matrix(12,0,0,12,159,708.2)" />
<use xlink:href="#f0_1x" transform="matrix(12,0,0,12,169.3,708.2)" />
<use xlink:href="#f0_2g" transform="matrix(12,0,0,12,178.5,708.2)" />
<use xlink:href="#f0_21" transform="matrix(12,0,0,12,184.7,708.2)" />
<use xlink:href="#f0_2g" transform="matrix(12,0,0,12,198.6,708.2)" />
<use xlink:href="#f0_2b" transform="matrix(12,0,0,12,204.8,708.2)" />
<use xlink:href="#f0_22" transform="matrix(12,0,0,12,219.9,708.2)" />
<use xlink:href="#f0_2b" transform="matrix(12,0,0,12,225.7,708.2)" />
<use xlink:href="#f0_2e" transform="matrix(12,0,0,12,235.2,708.2)" />
<use xlink:href="#f0_29" transform="matrix(12,0,0,12,243.3,708.2)" />
<use xlink:href="#f0_24" transform="matrix(12,0,0,12,264.2,708.2)" />
<use xlink:href="#f0_1x" transform="matrix(12,0,0,12,274.4,708.2)" />
<use xlink:href="#f0_2c" transform="matrix(12,0,0,12,283.6,708.2)" />
<use xlink:href="#f0_28" transform="matrix(12,0,0,12,293.8,708.2)" />
<use xlink:href="#f0_2b" transform="matrix(12,0,0,12,298.6,708.2)" />
<use xlink:href="#f0_25" transform="matrix(12,0,0,12,307.8,708.2)" />
<use xlink:href="#f0_20" transform="matrix(12,0,0,12,312.9,708.2)" />
<use xlink:href="#f0_23" transform="matrix(12,0,0,12,329,708.2)" />
<use xlink:href="#f0_1x" transform="matrix(12,0,0,12,338.2,708.2)" />
<use xlink:href="#f0_29" transform="matrix(12,0,0,12,347.7,708.2)" />
<use xlink:href="#f0_21" transform="matrix(12,0,0,12,362.7,708.2)" />
<use xlink:href="#f0_2g" transform="matrix(12,0,0,12,370.8,708.2)" />
<use xlink:href="#f0_2b" transform="matrix(12,0,0,12,377,708.2)" />
<use xlink:href="#f0_2c" transform="matrix(12,0,0,12,386.2,708.2)" />
<use xlink:href="#f0_24" transform="matrix(12,0,0,12,396.4,708.2)" />
<use xlink:href="#f0_2l" transform="matrix(12,0,0,12,406.7,708.2)" />
<use xlink:href="#f0_2g" transform="matrix(12,0,0,12,415.8,708.2)" />
<use xlink:href="#f0_25" transform="matrix(12,0,0,12,422.1,708.2)" />
<use xlink:href="#f0_1z" transform="matrix(12,0,0,12,427.1,708.2)" />
<use xlink:href="#f0_g" transform="matrix(12,0,0,12,435.8,708.2)" />
<use xlink:href="#f0_2c" transform="matrix(12,0,0,12,446.4,708.2)" />
<use xlink:href="#f0_24" transform="matrix(12,0,0,12,456.6,708.2)" />
<use xlink:href="#f0_2b" transform="matrix(12,0,0,12,466.9,708.2)" />
<use xlink:href="#f0_2g" transform="matrix(12,0,0,12,476,708.2)" />
<use xlink:href="#f0_2b" transform="matrix(12,0,0,12,482.3,708.2)" />
<use xlink:href="#f0_2f" transform="matrix(12,0,0,12,491.4,708.2)" />
<use xlink:href="#f0_2l" transform="matrix(12,0,0,12,498.4,708.2)" />
<use xlink:href="#f0_2a" transform="matrix(12,0,0,12,507.6,708.2)" />
<use xlink:href="#f0_2g" transform="matrix(12,0,0,12,517.8,708.2)" />
<use xlink:href="#f0_24" transform="matrix(12,0,0,12,524,708.2)" />
<use xlink:href="#f0_21" transform="matrix(12,0,0,12,534.3,708.2)" />
<use xlink:href="#f0_2g" transform="matrix(12,0,0,12,542,708.2)" />
<use xlink:href="#f0_25" transform="matrix(12,0,0,12,548.2,708.2)" />
<use xlink:href="#f0_1z" transform="matrix(12,0,0,12,553.3,708.2)" />
<use xlink:href="#f0_24" transform="matrix(12,0,0,12,567.2,708.2)" />
<use xlink:href="#f0_21" transform="matrix(12,0,0,12,577.5,708.2)" />
<use xlink:href="#f0_1x" transform="matrix(12,0,0,12,585.5,708.2)" />
<use xlink:href="#f0_2e" transform="matrix(12,0,0,12,594.7,708.2)" />
<use xlink:href="#f0_2g" transform="matrix(12,0,0,12,602.4,708.2)" />
<use xlink:href="#f0_2f" transform="matrix(12,0,0,12,614.5,708.2)" />
<use xlink:href="#f0_24" transform="matrix(12,0,0,12,621.4,708.2)" />
<use xlink:href="#f0_1x" transform="matrix(12,0,0,12,631.7,708.2)" />
<use xlink:href="#f0_2c" transform="matrix(12,0,0,12,640.9,708.2)" />
<use xlink:href="#f0_21" transform="matrix(12,0,0,12,651.1,708.2)" />
<use xlink:href="#f0_20" transform="matrix(12,0,0,12,659.2,708.2)" />
<use xlink:href="#f0_29" transform="matrix(12,0,0,12,675.3,708.2)" />
<use xlink:href="#f0_2h" transform="matrix(12,0,0,12,690.3,708.2)" />
<use xlink:href="#f0_28" transform="matrix(12,0,0,12,700.9,708.2)" />
<use xlink:href="#f0_2g" transform="matrix(12,0,0,12,705.7,708.2)" />
<use xlink:href="#f0_25" transform="matrix(12,0,0,12,711.9,708.2)" />
<use xlink:href="#f0_1z" transform="matrix(12,0,0,12,717,708.2)" />
<use xlink:href="#f0_21" transform="matrix(12,0,0,12,725.1,708.2)" />
<use xlink:href="#f0_28" transform="matrix(12,0,0,12,733.2,708.2)" />
<use xlink:href="#f0_28" transform="matrix(12,0,0,12,738.3,708.2)" />
<use xlink:href="#f0_2h" transform="matrix(12,0,0,12,743.1,708.2)" />
<use xlink:href="#f0_28" transform="matrix(12,0,0,12,753.7,708.2)" />
<use xlink:href="#f0_1x" transform="matrix(12,0,0,12,758.4,708.2)" />
<use xlink:href="#f0_2e" transform="matrix(12,0,0,12,768,708.2)" />
<use xlink:href="#f0_2f" transform="matrix(12,0,0,12,782.4,708.2)" />
<use xlink:href="#f0_2g" transform="matrix(12,0,0,12,789.4,708.2)" />
<use xlink:href="#f0_2e" transform="matrix(12,0,0,12,795.6,708.2)" />
<use xlink:href="#f0_2h" transform="matrix(12,0,0,12,803.3,708.2)" />
<use xlink:href="#f0_1z" transform="matrix(12,0,0,12,813.5,708.2)" />
<use xlink:href="#f0_2g" transform="matrix(12,0,0,12,821.6,708.2)" />
<use xlink:href="#f0_2h" transform="matrix(12,0,0,12,827.8,708.2)" />
<use xlink:href="#f0_2e" transform="matrix(12,0,0,12,838.4,708.2)" />
<use xlink:href="#f0_21" transform="matrix(12,0,0,12,846.1,708.2)" />
<use xlink:href="#f0_1z" transform="matrix(12,0,0,12,55,729.5)" />
<use xlink:href="#f0_1x" transform="matrix(12,0,0,12,63.1,729.5)" />
<use xlink:href="#f0_28" transform="matrix(12,0,0,12,72.3,729.5)" />
<use xlink:href="#f0_28" transform="matrix(12,0,0,12,77.4,729.5)" />
<use xlink:href="#f0_21" transform="matrix(12,0,0,12,82.2,729.5)" />
<use xlink:href="#f0_20" transform="matrix(12,0,0,12,90.2,729.5)" />
<use xlink:href="#f0_2c" transform="matrix(12,0,0,12,105.3,729.5)" />
<use xlink:href="#f0_2e" transform="matrix(12,0,0,12,115.5,729.5)" />
<use xlink:href="#f0_2b" transform="matrix(12,0,0,12,123.2,729.5)" />
<use xlink:href="#f0_2g" transform="matrix(12,0,0,12,132.4,729.5)" />
<use xlink:href="#f0_24" transform="matrix(12,0,0,12,138.6,729.5)" />
<use xlink:href="#f0_1x" transform="matrix(12,0,0,12,148.8,729.5)" />
<use xlink:href="#f0_28" transform="matrix(12,0,0,12,158.4,729.5)" />
<use xlink:href="#f0_28" transform="matrix(12,0,0,12,163.5,729.5)" />
<use xlink:href="#f0_2h" transform="matrix(12,0,0,12,168.3,729.5)" />
<use xlink:href="#f0_2f" transform="matrix(12,0,0,12,178.5,729.5)" />
<use xlink:href="#f0_2j" transform="matrix(12,0,0,12,190.4,729.5)" />
<use xlink:href="#f0_24" transform="matrix(12,0,0,12,203.6,729.5)" />
<use xlink:href="#f0_25" transform="matrix(12,0,0,12,213.8,729.5)" />
<use xlink:href="#f0_1z" transform="matrix(12,0,0,12,219,729.5)" />
<use xlink:href="#f0_24" transform="matrix(12,0,0,12,227,729.5)" />
<use xlink:href="#f0_1y" transform="matrix(12,0,0,12,242,729.5)" />
<use xlink:href="#f0_21" transform="matrix(12,0,0,12,252.3,729.5)" />
<use xlink:href="#f0_1x" transform="matrix(12,0,0,12,260.3,729.5)" />
<use xlink:href="#f0_2e" transform="matrix(12,0,0,12,269.5,729.5)" />
<use xlink:href="#f0_2f" transform="matrix(12,0,0,12,277.2,729.5)" />
<use xlink:href="#f0_1x" transform="matrix(12,0,0,12,289,729.5)" />
<use xlink:href="#f0_2a" transform="matrix(12,0,0,12,298.2,729.5)" />
<use xlink:href="#f0_2g" transform="matrix(12,0,0,12,308.5,729.5)" />
<use xlink:href="#f0_24" transform="matrix(12,0,0,12,314.7,729.5)" />
<use xlink:href="#f0_21" transform="matrix(12,0,0,12,324.9,729.5)" />
<use xlink:href="#f0_2e" transform="matrix(12,0,0,12,333,729.5)" />
<use xlink:href="#f0_25" transform="matrix(12,0,0,12,340.7,729.5)" />
<use xlink:href="#f0_20" transform="matrix(12,0,0,12,345.8,729.5)" />
<use xlink:href="#f0_25" transform="matrix(12,0,0,12,356.1,729.5)" />
<use xlink:href="#f0_1x" transform="matrix(12,0,0,12,361.2,729.5)" />
<use xlink:href="#f0_1x" transform="matrix(12,0,0,12,375.3,729.5)" />
<use xlink:href="#f0_2a" transform="matrix(12,0,0,12,384.4,729.5)" />
<use xlink:href="#f0_20" transform="matrix(12,0,0,12,394.7,729.5)" />
<use xlink:href="#f0_1x" transform="matrix(12,0,0,12,409.7,729.5)" />
<use xlink:href="#f0_2e" transform="matrix(12,0,0,12,418.9,729.5)" />
<use xlink:href="#f0_1z" transform="matrix(12,0,0,12,427,729.5)" />
<use xlink:href="#f0_24" transform="matrix(12,0,0,12,435,729.5)" />
<use xlink:href="#f0_21" transform="matrix(12,0,0,12,445.3,729.5)" />
<use xlink:href="#f0_23" transform="matrix(12,0,0,12,453.3,729.5)" />
<use xlink:href="#f0_2b" transform="matrix(12,0,0,12,462.5,729.5)" />
<use xlink:href="#f0_2a" transform="matrix(12,0,0,12,471.7,729.5)" />
<use xlink:href="#f0_25" transform="matrix(12,0,0,12,481.9,729.5)" />
<use xlink:href="#f0_1x" transform="matrix(12,0,0,12,487,729.5)" />
<use xlink:href="#f0_i" transform="matrix(12,0,0,12,496.3,729.5)" />
<use xlink:href="#f1_1g" transform="matrix(12,0,0,12,55,1013.4)" />
<use xlink:href="#f1_2e" transform="matrix(12,0,0,12,65.3,1013.4)" />
<use xlink:href="#f1_2b" transform="matrix(12,0,0,12,71.2,1013.4)" />
<use xlink:href="#f1_2g" transform="matrix(12,0,0,12,80.3,1013.4)" />
<use xlink:href="#f1_24" transform="matrix(12,0,0,12,85.8,1013.4)" />
<use xlink:href="#f1_1x" transform="matrix(12,0,0,12,94.6,1013.4)" />
<use xlink:href="#f1_28" transform="matrix(12,0,0,12,103,1013.4)" />
<use xlink:href="#f1_28" transform="matrix(12,0,0,12,107.8,1013.4)" />
<use xlink:href="#f1_2h" transform="matrix(12,0,0,12,112.5,1013.4)" />
<use xlink:href="#f1_2f" transform="matrix(12,0,0,12,122.1,1013.4)" />
<use xlink:href="#f1_2e" transform="matrix(12,0,0,12,133.8,1013.4)" />
<use xlink:href="#f1_21" transform="matrix(12,0,0,12,140,1013.4)" />
<use xlink:href="#f1_2d" transform="matrix(12,0,0,12,148.1,1013.4)" />
<use xlink:href="#f1_2h" transform="matrix(12,0,0,12,157.2,1013.4)" />
<use xlink:href="#f1_25" transform="matrix(12,0,0,12,166.7,1013.4)" />
<use xlink:href="#f1_2e" transform="matrix(12,0,0,12,171.1,1013.4)" />
<use xlink:href="#f1_21" transform="matrix(12,0,0,12,177.4,1013.4)" />
<use xlink:href="#f1_2f" transform="matrix(12,0,0,12,185.4,1013.4)" />
<use xlink:href="#f1_1z" transform="matrix(12,0,0,12,197.1,1013.4)" />
<use xlink:href="#f1_2b" transform="matrix(12,0,0,12,205.2,1013.4)" />
<use xlink:href="#f1_2b" transform="matrix(12,0,0,12,214.7,1013.4)" />
<use xlink:href="#f1_28" transform="matrix(12,0,0,12,224.2,1013.4)" />
<use xlink:href="#f1_g" transform="matrix(12,0,0,12,228.6,1013.4)" />
<use xlink:href="#f1_20" transform="matrix(12,0,0,12,238.4,1013.4)" />
<use xlink:href="#f1_1x" transform="matrix(12,0,0,12,247.6,1013.4)" />
<use xlink:href="#f1_29" transform="matrix(12,0,0,12,256,1013.4)" />
<use xlink:href="#f1_2c" transform="matrix(12,0,0,12,269.6,1013.4)" />
<use xlink:href="#f1_2f" transform="matrix(12,0,0,12,283.5,1013.4)" />
<use xlink:href="#f1_24" transform="matrix(12,0,0,12,290.8,1013.4)" />
<use xlink:href="#f1_1x" transform="matrix(12,0,0,12,299.6,1013.4)" />
<use xlink:href="#f1_20" transform="matrix(12,0,0,12,307.7,1013.4)" />
<use xlink:href="#f1_2l" transform="matrix(12,0,0,12,317.2,1013.4)" />
<use xlink:href="#f1_1x" transform="matrix(12,0,0,12,330.7,1013.4)" />
<use xlink:href="#f1_2e" transform="matrix(12,0,0,12,338.8,1013.4)" />
<use xlink:href="#f1_21" transform="matrix(12,0,0,12,345,1013.4)" />
<use xlink:href="#f1_1x" transform="matrix(12,0,0,12,353.1,1013.4)" />
<use xlink:href="#f1_2f" transform="matrix(12,0,0,12,361.1,1013.4)" />
<use xlink:href="#f1_22" transform="matrix(12,0,0,12,373.2,1013.4)" />
<use xlink:href="#f1_2b" transform="matrix(12,0,0,12,378.7,1013.4)" />
<use xlink:href="#f1_2e" transform="matrix(12,0,0,12,388.2,1013.4)" />
<use xlink:href="#f1_23" transform="matrix(12,0,0,12,399.2,1013.4)" />
<use xlink:href="#f1_2e" transform="matrix(12,0,0,12,408.4,1013.4)" />
<use xlink:href="#f1_2b" transform="matrix(12,0,0,12,414.2,1013.4)" />
<use xlink:href="#f1_2j" transform="matrix(12,0,0,12,423.4,1013.4)" />
<use xlink:href="#f1_2g" transform="matrix(12,0,0,12,436.6,1013.4)" />
<use xlink:href="#f1_24" transform="matrix(12,0,0,12,442.1,1013.4)" />
<use xlink:href="#f1_1x" transform="matrix(12,0,0,12,455.6,1013.4)" />
<use xlink:href="#f1_2a" transform="matrix(12,0,0,12,463.7,1013.4)" />
<use xlink:href="#f1_20" transform="matrix(12,0,0,12,472.5,1013.4)" />
<use xlink:href="#f1_2j" transform="matrix(12,0,0,12,486.4,1013.4)" />
<use xlink:href="#f1_1x" transform="matrix(12,0,0,12,499.6,1013.4)" />
<use xlink:href="#f1_2g" transform="matrix(12,0,0,12,507.7,1013.4)" />
<use xlink:href="#f1_21" transform="matrix(12,0,0,12,513.2,1013.4)" />
<use xlink:href="#f1_2e" transform="matrix(12,0,0,12,521.2,1013.4)" />
<use xlink:href="#f1_25" transform="matrix(12,0,0,12,532.2,1013.4)" />
<use xlink:href="#f1_2f" transform="matrix(12,0,0,12,536.6,1013.4)" />
<use xlink:href="#f1_21" transform="matrix(12,0,0,12,548.3,1013.4)" />
<use xlink:href="#f1_2f" transform="matrix(12,0,0,12,556.4,1013.4)" />
<use xlink:href="#f1_2f" transform="matrix(12,0,0,12,563.7,1013.4)" />
<use xlink:href="#f1_21" transform="matrix(12,0,0,12,570.6,1013.4)" />
<use xlink:href="#f1_2a" transform="matrix(12,0,0,12,579.1,1013.4)" />
<use xlink:href="#f1_2g" transform="matrix(12,0,0,12,587.9,1013.4)" />
<use xlink:href="#f1_25" transform="matrix(12,0,0,12,593.7,1013.4)" />
<use xlink:href="#f1_1x" transform="matrix(12,0,0,12,598.1,1013.4)" />
<use xlink:href="#f1_28" transform="matrix(12,0,0,12,606.5,1013.4)" />
<use xlink:href="#f1_22" transform="matrix(12,0,0,12,616,1013.4)" />
<use xlink:href="#f1_2b" transform="matrix(12,0,0,12,621.5,1013.4)" />
<use xlink:href="#f1_2e" transform="matrix(12,0,0,12,631.1,1013.4)" />
<use xlink:href="#f1_22" transform="matrix(12,0,0,12,642.4,1013.4)" />
<use xlink:href="#f1_21" transform="matrix(12,0,0,12,647.9,1013.4)" />
<use xlink:href="#f1_2e" transform="matrix(12,0,0,12,656,1013.4)" />
<use xlink:href="#f1_2g" transform="matrix(12,0,0,12,662.2,1013.4)" />
<use xlink:href="#f1_25" transform="matrix(12,0,0,12,667.6,1013.4)" />
<use xlink:href="#f1_28" transform="matrix(12,0,0,12,672.4,1013.4)" />
<use xlink:href="#f1_25" transform="matrix(12,0,0,12,677.5,1013.4)" />
<use xlink:href="#f1_2m" transform="matrix(12,0,0,12,682.3,1013.4)" />
<use xlink:href="#f1_1x" transform="matrix(12,0,0,12,690.4,1013.4)" />
<use xlink:href="#f1_2g" transform="matrix(12,0,0,12,698.4,1013.4)" />
<use xlink:href="#f1_25" transform="matrix(12,0,0,12,704.3,1013.4)" />
<use xlink:href="#f1_2b" transform="matrix(12,0,0,12,708.7,1013.4)" />
<use xlink:href="#f1_2a" transform="matrix(12,0,0,12,718.2,1013.4)" />
<use xlink:href="#f1_i" transform="matrix(12,0,0,12,727,1013.4)" />
<use xlink:href="#f1_1k" transform="matrix(12,0,0,12,55,1034.7)" />
<use xlink:href="#f1_24" transform="matrix(12,0,0,12,66.4,1034.7)" />
<use xlink:href="#f1_21" transform="matrix(12,0,0,12,75.2,1034.7)" />
<use xlink:href="#f1_1x" transform="matrix(12,0,0,12,88.4,1034.7)" />
<use xlink:href="#f1_2a" transform="matrix(12,0,0,12,96.8,1034.7)" />
<use xlink:href="#f1_2g" transform="matrix(12,0,0,12,105.6,1034.7)" />
<use xlink:href="#f1_24" transform="matrix(12,0,0,12,111.1,1034.7)" />
<use xlink:href="#f1_21" transform="matrix(12,0,0,12,119.9,1034.7)" />
<use xlink:href="#f1_2e" transform="matrix(12,0,0,12,128,1034.7)" />
<use xlink:href="#f1_25" transform="matrix(12,0,0,12,134.5,1034.7)" />
<use xlink:href="#f1_20" transform="matrix(12,0,0,12,138.9,1034.7)" />
<use xlink:href="#f1_25" transform="matrix(12,0,0,12,148.5,1034.7)" />
<use xlink:href="#f1_1x" transform="matrix(12,0,0,12,153.2,1034.7)" />
<use xlink:href="#f1_1y" transform="matrix(12,0,0,12,166.9,1034.7)" />
<use xlink:href="#f1_21" transform="matrix(12,0,0,12,176.1,1034.7)" />
<use xlink:href="#f1_1x" transform="matrix(12,0,0,12,184.1,1034.7)" />
<use xlink:href="#f1_2e" transform="matrix(12,0,0,12,192.2,1034.7)" />
<use xlink:href="#f0_1x" transform="matrix(12,0,0,12,203.6,1034.7)" />
<use xlink:href="#f0_2a" transform="matrix(12,0,0,12,212.7,1034.7)" />
<use xlink:href="#f0_2g" transform="matrix(12,0,0,12,223,1034.7)" />
<use xlink:href="#f0_24" transform="matrix(12,0,0,12,229.2,1034.7)" />
<use xlink:href="#f0_21" transform="matrix(12,0,0,12,239.5,1034.7)" />
<use xlink:href="#f0_2e" transform="matrix(12,0,0,12,247.5,1034.7)" />
<use xlink:href="#f0_2b" transform="matrix(12,0,0,12,255.2,1034.7)" />
<use xlink:href="#f0_2m" transform="matrix(12,0,0,12,264.7,1034.7)" />
<use xlink:href="#f0_2b" transform="matrix(12,0,0,12,272.4,1034.7)" />
<use xlink:href="#f0_25" transform="matrix(12,0,0,12,281.6,1034.7)" />
<use xlink:href="#f0_20" transform="matrix(12,0,0,12,286.7,1034.7)" />
<use xlink:href="#f0_2f" transform="matrix(12,0,0,12,297,1034.7)" />
<use xlink:href="#f1_1x" transform="matrix(12,0,0,12,309.6,1034.7)" />
<use xlink:href="#f1_2a" transform="matrix(12,0,0,12,318,1034.7)" />
<use xlink:href="#f1_20" transform="matrix(12,0,0,12,326.8,1034.7)" />
<use xlink:href="#f1_1x" transform="matrix(12,0,0,12,341.2,1034.7)" />
<use xlink:href="#f1_2e" transform="matrix(12,0,0,12,349.2,1034.7)" />
<use xlink:href="#f1_1z" transform="matrix(12,0,0,12,355.4,1034.7)" />
<use xlink:href="#f1_24" transform="matrix(12,0,0,12,363.5,1034.7)" />
<use xlink:href="#f1_21" transform="matrix(12,0,0,12,372.7,1034.7)" />
<use xlink:href="#f1_23" transform="matrix(12,0,0,12,380.7,1034.7)" />
<use xlink:href="#f1_2b" transform="matrix(12,0,0,12,389.9,1034.7)" />
<use xlink:href="#f1_2a" transform="matrix(12,0,0,12,399.4,1034.7)" />
<use xlink:href="#f1_25" transform="matrix(12,0,0,12,408.6,1034.7)" />
<use xlink:href="#f1_1x" transform="matrix(12,0,0,12,413.3,1034.7)" />
<use xlink:href="#f1_1y" transform="matrix(12,0,0,12,426.9,1034.7)" />
<use xlink:href="#f1_21" transform="matrix(12,0,0,12,435.7,1034.7)" />
<use xlink:href="#f1_1x" transform="matrix(12,0,0,12,443.8,1034.7)" />
<use xlink:href="#f1_2e" transform="matrix(12,0,0,12,451.8,1034.7)" />
<use xlink:href="#f1_2f" transform="matrix(12,0,0,12,458,1034.7)" />
<use xlink:href="#f1_2g" transform="matrix(12,0,0,12,470.1,1034.7)" />
<use xlink:href="#f1_24" transform="matrix(12,0,0,12,475.6,1034.7)" />
<use xlink:href="#f1_21" transform="matrix(12,0,0,12,484.4,1034.7)" />
<use xlink:href="#f0_21" transform="matrix(12,0,0,12,498.1,1034.7)" />
<use xlink:href="#f0_23" transform="matrix(12,0,0,12,506.2,1034.7)" />
<use xlink:href="#f0_23" transform="matrix(12,0,0,12,515.3,1034.7)" />
<use xlink:href="#f0_1z" transform="matrix(12,0,0,12,529.6,1034.7)" />
<use xlink:href="#f0_21" transform="matrix(12,0,0,12,537.7,1034.7)" />
<use xlink:href="#f0_28" transform="matrix(12,0,0,12,546.1,1034.7)" />
<use xlink:href="#f0_28" transform="matrix(12,0,0,12,551.2,1034.7)" />
<use xlink:href="#f1_2e" transform="matrix(12,0,0,12,561.2,1034.7)" />
<use xlink:href="#f1_21" transform="matrix(12,0,0,12,567.4,1034.7)" />
<use xlink:href="#f1_2f" transform="matrix(12,0,0,12,575.5,1034.7)" />
<use xlink:href="#f1_2c" transform="matrix(12,0,0,12,582.5,1034.7)" />
<use xlink:href="#f1_21" transform="matrix(12,0,0,12,591.6,1034.7)" />
<use xlink:href="#f1_1z" transform="matrix(12,0,0,12,599.7,1034.7)" />
<use xlink:href="#f1_2g" transform="matrix(12,0,0,12,607.8,1034.7)" />
<use xlink:href="#f1_25" transform="matrix(12,0,0,12,613.6,1034.7)" />
<use xlink:href="#f1_2i" transform="matrix(12,0,0,12,618.4,1034.7)" />
<use xlink:href="#f1_21" transform="matrix(12,0,0,12,627.2,1034.7)" />
<use xlink:href="#f1_28" transform="matrix(12,0,0,12,635.6,1034.7)" />
<use xlink:href="#f1_2l" transform="matrix(12,0,0,12,640.7,1034.7)" />
<use xlink:href="#f1_2j" transform="matrix(12,0,0,12,654.6,1034.7)" />
<use xlink:href="#f1_24" transform="matrix(12,0,0,12,668.2,1034.7)" />
<use xlink:href="#f1_25" transform="matrix(12,0,0,12,677.4,1034.7)" />
<use xlink:href="#f1_1z" transform="matrix(12,0,0,12,682.1,1034.7)" />
<use xlink:href="#f1_24" transform="matrix(12,0,0,12,690.5,1034.7)" />
<use xlink:href="#f1_2b" transform="matrix(12,0,0,12,704.5,1034.7)" />
<use xlink:href="#f1_2a" transform="matrix(12,0,0,12,714,1034.7)" />
<use xlink:href="#f1_22" transform="matrix(12,0,0,12,728.2,1034.7)" />
<use xlink:href="#f1_21" transform="matrix(12,0,0,12,734.1,1034.7)" />
<use xlink:href="#f1_2e" transform="matrix(12,0,0,12,742.2,1034.7)" />
<use xlink:href="#f1_2g" transform="matrix(12,0,0,12,748.4,1034.7)" />
<use xlink:href="#f1_25" transform="matrix(12,0,0,12,753.9,1034.7)" />
<use xlink:href="#f1_28" transform="matrix(12,0,0,12,758.6,1034.7)" />
<use xlink:href="#f1_25" transform="matrix(12,0,0,12,763.7,1034.7)" />
<use xlink:href="#f1_2m" transform="matrix(12,0,0,12,768.5,1034.7)" />
<use xlink:href="#f1_1x" transform="matrix(12,0,0,12,777,1034.7)" />
<use xlink:href="#f1_2g" transform="matrix(12,0,0,12,785,1034.7)" />
<use xlink:href="#f1_25" transform="matrix(12,0,0,12,790.5,1034.7)" />
<use xlink:href="#f1_2b" transform="matrix(12,0,0,12,795.3,1034.7)" />
<use xlink:href="#f1_2a" transform="matrix(12,0,0,12,804.8,1034.7)" />
<use xlink:href="#f1_22" transform="matrix(12,0,0,12,819.1,1034.7)" />
<use xlink:href="#f1_2b" transform="matrix(12,0,0,12,824.6,1034.7)" />
<use xlink:href="#f1_2e" transform="matrix(12,0,0,12,834.1,1034.7)" />
<use xlink:href="#f1_29" transform="matrix(12,0,0,12,840.3,1034.7)" />
<use xlink:href="#f1_2m" transform="matrix(12,0,0,12,55,1055.6)" />
<use xlink:href="#f1_2l" transform="matrix(12,0,0,12,63.5,1055.6)" />
<use xlink:href="#f1_23" transform="matrix(12,0,0,12,71.9,1055.6)" />
<use xlink:href="#f1_2b" transform="matrix(12,0,0,12,81.1,1055.6)" />
<use xlink:href="#f1_2g" transform="matrix(12,0,0,12,90.6,1055.6)" />
<use xlink:href="#f1_21" transform="matrix(12,0,0,12,96.1,1055.6)" />
<use xlink:href="#f1_2j" transform="matrix(12,0,0,12,108.9,1055.6)" />
<use xlink:href="#f1_24" transform="matrix(12,0,0,12,122.2,1055.6)" />
<use xlink:href="#f1_25" transform="matrix(12,0,0,12,131.3,1055.6)" />
<use xlink:href="#f1_1z" transform="matrix(12,0,0,12,135.7,1055.6)" />
<use xlink:href="#f1_24" transform="matrix(12,0,0,12,144.1,1055.6)" />
<use xlink:href="#f1_2b" transform="matrix(12,0,0,12,157.6,1055.6)" />
<use xlink:href="#f1_2a" transform="matrix(12,0,0,12,167.2,1055.6)" />
<use xlink:href="#f1_23" transform="matrix(12,0,0,12,180.7,1055.6)" />
<use xlink:href="#f1_21" transform="matrix(12,0,0,12,189.9,1055.6)" />
<use xlink:href="#f1_2e" transform="matrix(12,0,0,12,197.9,1055.6)" />
<use xlink:href="#f1_29" transform="matrix(12,0,0,12,204.5,1055.6)" />
<use xlink:href="#f1_25" transform="matrix(12,0,0,12,218.5,1055.6)" />
<use xlink:href="#f1_2a" transform="matrix(12,0,0,12,223.2,1055.6)" />
<use xlink:href="#f1_1x" transform="matrix(12,0,0,12,232.4,1055.6)" />
<use xlink:href="#f1_2g" transform="matrix(12,0,0,12,240.5,1055.6)" />
<use xlink:href="#f1_25" transform="matrix(12,0,0,12,245.9,1055.6)" />
<use xlink:href="#f1_2b" transform="matrix(12,0,0,12,250.3,1055.6)" />
<use xlink:href="#f1_2a" transform="matrix(12,0,0,12,259.9,1055.6)" />
<use xlink:href="#f1_22" transform="matrix(12,0,0,12,273.8,1055.6)" />
<use xlink:href="#f1_2b" transform="matrix(12,0,0,12,279.3,1055.6)" />
<use xlink:href="#f1_2e" transform="matrix(12,0,0,12,288.8,1055.6)" />
<use xlink:href="#f1_29" transform="matrix(12,0,0,12,295.4,1055.6)" />
<use xlink:href="#f1_2f" transform="matrix(12,0,0,12,309.3,1055.6)" />
<use xlink:href="#f1_2g" transform="matrix(12,0,0,12,321,1055.6)" />
<use xlink:href="#f1_24" transform="matrix(12,0,0,12,326.5,1055.6)" />
<use xlink:href="#f1_21" transform="matrix(12,0,0,12,335.3,1055.6)" />
<use xlink:href="#f1_2f" transform="matrix(12,0,0,12,348.1,1055.6)" />
<use xlink:href="#f1_2c" transform="matrix(12,0,0,12,355.1,1055.6)" />
<use xlink:href="#f1_2b" transform="matrix(12,0,0,12,364.2,1055.6)" />
<use xlink:href="#f1_2e" transform="matrix(12,0,0,12,373.8,1055.6)" />
<use xlink:href="#f1_2b" transform="matrix(12,0,0,12,379.6,1055.6)" />
<use xlink:href="#f1_2c" transform="matrix(12,0,0,12,389.1,1055.6)" />
<use xlink:href="#f1_24" transform="matrix(12,0,0,12,398.3,1055.6)" />
<use xlink:href="#f1_2l" transform="matrix(12,0,0,12,407.5,1055.6)" />
<use xlink:href="#f1_2g" transform="matrix(12,0,0,12,415.9,1055.6)" />
<use xlink:href="#f1_21" transform="matrix(12,0,0,12,421.4,1055.6)" />
<use xlink:href="#f1_i" transform="matrix(12,0,0,12,429.5,1055.6)" />
<use xlink:href="#f1_1d" transform="matrix(12,0,0,12,55,1097.7)" />
<use xlink:href="#f1_2b" transform="matrix(12,0,0,12,71.2,1097.7)" />
<use xlink:href="#f1_2f" transform="matrix(12,0,0,12,80.7,1097.7)" />
<use xlink:href="#f1_2g" transform="matrix(12,0,0,12,87.7,1097.7)" />
<use xlink:href="#f1_2b" transform="matrix(12,0,0,12,97.2,1097.7)" />
<use xlink:href="#f1_22" transform="matrix(12,0,0,12,106.7,1097.7)" />
<use xlink:href="#f1_2c" transform="matrix(12,0,0,12,116.9,1097.7)" />
<use xlink:href="#f1_2g" transform="matrix(12,0,0,12,126.1,1097.7)" />
<use xlink:href="#f1_21" transform="matrix(12,0,0,12,131.6,1097.7)" />
<use xlink:href="#f1_2e" transform="matrix(12,0,0,12,139.7,1097.7)" />
<use xlink:href="#f1_25" transform="matrix(12,0,0,12,145.9,1097.7)" />
<use xlink:href="#f1_20" transform="matrix(12,0,0,12,150.3,1097.7)" />
<use xlink:href="#f1_2b" transform="matrix(12,0,0,12,159.4,1097.7)" />
<use xlink:href="#f1_2c" transform="matrix(12,0,0,12,169,1097.7)" />
<use xlink:href="#f1_24" transform="matrix(12,0,0,12,178.1,1097.7)" />
<use xlink:href="#f1_2l" transform="matrix(12,0,0,12,187.3,1097.7)" />
<use xlink:href="#f1_2g" transform="matrix(12,0,0,12,195.7,1097.7)" />
<use xlink:href="#f1_21" transform="matrix(12,0,0,12,201.2,1097.7)" />
<use xlink:href="#f1_2f" transform="matrix(12,0,0,12,209.6,1097.7)" />
<use xlink:href="#f1_2c" transform="matrix(12,0,0,12,221.3,1097.7)" />
<use xlink:href="#f1_2e" transform="matrix(12,0,0,12,230.5,1097.7)" />
<use xlink:href="#f1_2b" transform="matrix(12,0,0,12,236.7,1097.7)" />
<use xlink:href="#f1_20" transform="matrix(12,0,0,12,246.2,1097.7)" />
<use xlink:href="#f1_2h" transform="matrix(12,0,0,12,255.4,1097.7)" />
<use xlink:href="#f1_1z" transform="matrix(12,0,0,12,264.6,1097.7)" />
<use xlink:href="#f1_21" transform="matrix(12,0,0,12,272.6,1097.7)" />
<use xlink:href="#f1_2f" transform="matrix(12,0,0,12,285.4,1097.7)" />
<use xlink:href="#f1_25" transform="matrix(12,0,0,12,292.4,1097.7)" />
<use xlink:href="#f1_29" transform="matrix(12,0,0,12,297.2,1097.7)" />
<use xlink:href="#f1_25" transform="matrix(12,0,0,12,311.4,1097.7)" />
<use xlink:href="#f1_28" transform="matrix(12,0,0,12,316.6,1097.7)" />
<use xlink:href="#f1_1x" transform="matrix(12,0,0,12,321.4,1097.7)" />
<use xlink:href="#f1_2e" transform="matrix(12,0,0,12,329.4,1097.7)" />
<use xlink:href="#f1_27" transform="matrix(12,0,0,12,340.4,1097.7)" />
<use xlink:href="#f1_25" transform="matrix(12,0,0,12,349.9,1097.7)" />
<use xlink:href="#f1_2a" transform="matrix(12,0,0,12,354.7,1097.7)" />
<use xlink:href="#f1_20" transform="matrix(12,0,0,12,363.5,1097.7)" />
<use xlink:href="#f1_2f" transform="matrix(12,0,0,12,372.6,1097.7)" />
<use xlink:href="#f1_2b" transform="matrix(12,0,0,12,384.4,1097.7)" />
<use xlink:href="#f1_22" transform="matrix(12,0,0,12,393.9,1097.7)" />
<use xlink:href="#f1_2f" transform="matrix(12,0,0,12,404.1,1097.7)" />
<use xlink:href="#f1_2c" transform="matrix(12,0,0,12,411.1,1097.7)" />
<use xlink:href="#f1_2b" transform="matrix(12,0,0,12,420.3,1097.7)" />
<use xlink:href="#f1_2e" transform="matrix(12,0,0,12,429.8,1097.7)" />
<use xlink:href="#f1_21" transform="matrix(12,0,0,12,436,1097.7)" />
<use xlink:href="#f1_2f" transform="matrix(12,0,0,12,444.1,1097.7)" />
<use xlink:href="#f1_24" transform="matrix(12,0,0,12,455.8,1097.7)" />
<use xlink:href="#f1_21" transform="matrix(12,0,0,12,464.6,1097.7)" />
<use xlink:href="#f1_2a" transform="matrix(12,0,0,12,473,1097.7)" />
<use xlink:href="#f1_1z" transform="matrix(12,0,0,12,481.8,1097.7)" />
<use xlink:href="#f1_21" transform="matrix(12,0,0,12,489.8,1097.7)" />
<use xlink:href="#f1_1z" transform="matrix(12,0,0,12,502.7,1097.7)" />
<use xlink:href="#f1_1x" transform="matrix(12,0,0,12,510.7,1097.7)" />
<use xlink:href="#f1_28" transform="matrix(12,0,0,12,519.1,1097.7)" />
<use xlink:href="#f1_28" transform="matrix(12,0,0,12,524.2,1097.7)" />
<use xlink:href="#f1_21" transform="matrix(12,0,0,12,529,1097.7)" />
<use xlink:href="#f1_20" transform="matrix(12,0,0,12,537.1,1097.7)" />
<use xlink:href="#f0_24" transform="matrix(12,0,0,12,551.7,1097.7)" />
<use xlink:href="#f0_2b" transform="matrix(12,0,0,12,561.9,1097.7)" />
<use xlink:href="#f0_29" transform="matrix(12,0,0,12,571.1,1097.7)" />
<use xlink:href="#f0_2b" transform="matrix(12,0,0,12,586.1,1097.7)" />
<use xlink:href="#f0_2f" transform="matrix(12,0,0,12,595.6,1097.7)" />
<use xlink:href="#f0_2c" transform="matrix(12,0,0,12,602.6,1097.7)" />
<use xlink:href="#f0_2b" transform="matrix(12,0,0,12,612.9,1097.7)" />
<use xlink:href="#f0_2e" transform="matrix(12,0,0,12,622.4,1097.7)" />
<use xlink:href="#f0_2b" transform="matrix(12,0,0,12,630.1,1097.7)" />
<use xlink:href="#f0_2h" transform="matrix(12,0,0,12,639.2,1097.7)" />
<use xlink:href="#f0_2f" transform="matrix(12,0,0,12,649.5,1097.7)" />
<use xlink:href="#f0_i" transform="matrix(12,0,0,12,656.5,1097.7)" />
<use xlink:href="#f1_17" transform="matrix(12,0,0,12,55,1119)" />
<use xlink:href="#f1_21" transform="matrix(12,0,0,12,68.3,1119)" />
<use xlink:href="#f1_2a" transform="matrix(12,0,0,12,76.3,1119)" />
<use xlink:href="#f1_21" transform="matrix(12,0,0,12,85.1,1119)" />
<use xlink:href="#f1_2e" transform="matrix(12,0,0,12,93.2,1119)" />
<use xlink:href="#f1_1x" transform="matrix(12,0,0,12,99.4,1119)" />
<use xlink:href="#f1_28" transform="matrix(12,0,0,12,113.7,1119)" />
<use xlink:href="#f1_25" transform="matrix(12,0,0,12,118.4,1119)" />
<use xlink:href="#f1_27" transform="matrix(12,0,0,12,123.2,1119)" />
<use xlink:href="#f1_21" transform="matrix(12,0,0,12,132.7,1119)" />
<use xlink:href="#f2_1j" transform="matrix(12,0,0,12,146.7,1119)" />
<use xlink:href="#f2_21" transform="matrix(12,0,0,12,155.9,1119)" />
<use xlink:href="#f2_28" transform="matrix(12,0,0,12,164,1119)" />
<use xlink:href="#f2_1x" transform="matrix(12,0,0,12,169.1,1119)" />
<use xlink:href="#f2_23" transform="matrix(12,0,0,12,178.2,1119)" />
<use xlink:href="#f2_25" transform="matrix(12,0,0,12,187.4,1119)" />
<use xlink:href="#f2_2a" transform="matrix(12,0,0,12,192.6,1119)" />
<use xlink:href="#f2_21" transform="matrix(12,0,0,12,201.7,1119)" />
<use xlink:href="#f2_28" transform="matrix(12,0,0,12,209.8,1119)" />
<use xlink:href="#f2_28" transform="matrix(12,0,0,12,214.9,1119)" />
<use xlink:href="#f2_1x" transform="matrix(12,0,0,12,220,1119)" />
<use xlink:href="#f1_1x" transform="matrix(12,0,0,12,235.1,1119)" />
<use xlink:href="#f1_2a" transform="matrix(12,0,0,12,243.2,1119)" />
<use xlink:href="#f1_20" transform="matrix(12,0,0,12,252,1119)" />
<use xlink:href="#f2_1j" transform="matrix(12,0,0,12,267,1119)" />
<use xlink:href="#f2_1x" transform="matrix(12,0,0,12,276.2,1119)" />
<use xlink:href="#f2_28" transform="matrix(12,0,0,12,285.4,1119)" />
<use xlink:href="#f2_2i" transform="matrix(12,0,0,12,290.5,1119)" />
<use xlink:href="#f2_25" transform="matrix(12,0,0,12,298.6,1119)" />
<use xlink:href="#f2_2a" transform="matrix(12,0,0,12,303.7,1119)" />
<use xlink:href="#f2_25" transform="matrix(12,0,0,12,312.9,1119)" />
<use xlink:href="#f2_1x" transform="matrix(12,0,0,12,318,1119)" />
<use xlink:href="#f1_2c" transform="matrix(12,0,0,12,333,1119)" />
<use xlink:href="#f1_2e" transform="matrix(12,0,0,12,341.8,1119)" />
<use xlink:href="#f1_2b" transform="matrix(12,0,0,12,347.7,1119)" />
<use xlink:href="#f1_20" transform="matrix(12,0,0,12,357.2,1119)" />
<use xlink:href="#f1_2h" transform="matrix(12,0,0,12,366.4,1119)" />
<use xlink:href="#f1_1z" transform="matrix(12,0,0,12,375.6,1119)" />
<use xlink:href="#f1_21" transform="matrix(12,0,0,12,383.6,1119)" />
<use xlink:href="#f1_2g" transform="matrix(12,0,0,12,397.3,1119)" />
<use xlink:href="#f1_2j" transform="matrix(12,0,0,12,402.7,1119)" />
<use xlink:href="#f1_2b" transform="matrix(12,0,0,12,415.6,1119)" />
<use xlink:href="#f1_27" transform="matrix(12,0,0,12,430.2,1119)" />
<use xlink:href="#f1_25" transform="matrix(12,0,0,12,439.7,1119)" />
<use xlink:href="#f1_2a" transform="matrix(12,0,0,12,444.5,1119)" />
<use xlink:href="#f1_20" transform="matrix(12,0,0,12,453.3,1119)" />
<use xlink:href="#f1_2b" transform="matrix(12,0,0,12,468.3,1119)" />
<use xlink:href="#f1_22" transform="matrix(12,0,0,12,477.8,1119)" />
<use xlink:href="#f1_2f" transform="matrix(12,0,0,12,489.2,1119)" />
<use xlink:href="#f1_2c" transform="matrix(12,0,0,12,496.1,1119)" />
<use xlink:href="#f1_2b" transform="matrix(12,0,0,12,505.3,1119)" />
<use xlink:href="#f1_2e" transform="matrix(12,0,0,12,514.8,1119)" />
<use xlink:href="#f1_21" transform="matrix(12,0,0,12,521,1119)" />
<use xlink:href="#f1_2f" transform="matrix(12,0,0,12,529.1,1119)" />
<use xlink:href="#f1_g" transform="matrix(12,0,0,12,536.1,1119)" />
<use xlink:href="#f1_29" transform="matrix(12,0,0,12,546.7,1119)" />
<use xlink:href="#f1_1x" transform="matrix(12,0,0,12,560.2,1119)" />
<use xlink:href="#f1_1z" transform="matrix(12,0,0,12,568.3,1119)" />
<use xlink:href="#f1_2e" transform="matrix(12,0,0,12,576.4,1119)" />
<use xlink:href="#f1_2b" transform="matrix(12,0,0,12,582.6,1119)" />
<use xlink:href="#f1_2b" transform="matrix(12,0,0,12,597.6,1119)" />
<use xlink:href="#f1_2e" transform="matrix(12,0,0,12,607.1,1119)" />
<use xlink:href="#f1_28" transform="matrix(12,0,0,12,618.8,1119)" />
<use xlink:href="#f1_1x" transform="matrix(12,0,0,12,623.2,1119)" />
<use xlink:href="#f1_2e" transform="matrix(12,0,0,12,631.3,1119)" />
<use xlink:href="#f1_23" transform="matrix(12,0,0,12,637.5,1119)" />
<use xlink:href="#f1_21" transform="matrix(12,0,0,12,646.7,1119)" />
<use xlink:href="#f1_2f" transform="matrix(12,0,0,12,660.6,1119)" />
<use xlink:href="#f1_2c" transform="matrix(12,0,0,12,667.5,1119)" />
<use xlink:href="#f1_2b" transform="matrix(12,0,0,12,676.7,1119)" />
<use xlink:href="#f1_2e" transform="matrix(12,0,0,12,686.2,1119)" />
<use xlink:href="#f1_21" transform="matrix(12,0,0,12,692.4,1119)" />
<use xlink:href="#f1_2f" transform="matrix(12,0,0,12,700.5,1119)" />
<use xlink:href="#f1_1x" transform="matrix(12,0,0,12,713.8,1119)" />
<use xlink:href="#f1_2a" transform="matrix(12,0,0,12,721.9,1119)" />
<use xlink:href="#f1_20" transform="matrix(12,0,0,12,730.7,1119)" />
<use xlink:href="#f1_2f" transform="matrix(12,0,0,12,745.7,1119)" />
<use xlink:href="#f1_29" transform="matrix(12,0,0,12,753,1119)" />
<use xlink:href="#f1_1x" transform="matrix(12,0,0,12,766.6,1119)" />
<use xlink:href="#f1_28" transform="matrix(12,0,0,12,775,1119)" />
<use xlink:href="#f1_28" transform="matrix(12,0,0,12,780.1,1119)" />
<use xlink:href="#f1_2b" transform="matrix(12,0,0,12,790.4,1119)" />
<use xlink:href="#f1_2e" transform="matrix(12,0,0,12,799.9,1119)" />
<use xlink:href="#f1_29" transform="matrix(12,0,0,12,811.9,1119)" />
<use xlink:href="#f1_25" transform="matrix(12,0,0,12,825.9,1119)" />
<use xlink:href="#f1_1z" transform="matrix(12,0,0,12,830.6,1119)" />
<use xlink:href="#f1_2e" transform="matrix(12,0,0,12,838.7,1119)" />
<use xlink:href="#f1_2b" transform="matrix(12,0,0,12,844.9,1119)" />
<use xlink:href="#f1_2f" transform="matrix(12,0,0,12,55,1139.9)" />
<use xlink:href="#f1_2c" transform="matrix(12,0,0,12,62,1139.9)" />
<use xlink:href="#f1_2b" transform="matrix(12,0,0,12,71.2,1139.9)" />
<use xlink:href="#f1_2e" transform="matrix(12,0,0,12,80.7,1139.9)" />
<use xlink:href="#f1_21" transform="matrix(12,0,0,12,86.9,1139.9)" />
<use xlink:href="#f1_2f" transform="matrix(12,0,0,12,95,1139.9)" />
<use xlink:href="#f1_1x" transform="matrix(12,0,0,12,107.8,1139.9)" />
<use xlink:href="#f1_2a" transform="matrix(12,0,0,12,115.9,1139.9)" />
<use xlink:href="#f1_20" transform="matrix(12,0,0,12,124.7,1139.9)" />
<use xlink:href="#f1_1x" transform="matrix(12,0,0,12,139.7,1139.9)" />
<use xlink:href="#f1_2e" transform="matrix(12,0,0,12,147.8,1139.9)" />
<use xlink:href="#f1_21" transform="matrix(12,0,0,12,154,1139.9)" />
<use xlink:href="#f1_2f" transform="matrix(12,0,0,12,168,1139.9)" />
<use xlink:href="#f1_1x" transform="matrix(12,0,0,12,175,1139.9)" />
<use xlink:href="#f1_25" transform="matrix(12,0,0,12,183,1139.9)" />
<use xlink:href="#f1_20" transform="matrix(12,0,0,12,187.4,1139.9)" />
<use xlink:href="#f1_2g" transform="matrix(12,0,0,12,202.5,1139.9)" />
<use xlink:href="#f1_2b" transform="matrix(12,0,0,12,207.6,1139.9)" />
<use xlink:href="#f1_1y" transform="matrix(12,0,0,12,222.6,1139.9)" />
<use xlink:href="#f1_21" transform="matrix(12,0,0,12,231.4,1139.9)" />
<use xlink:href="#f0_24" transform="matrix(12,0,0,12,245.4,1139.9)" />
<use xlink:href="#f0_21" transform="matrix(12,0,0,12,255.7,1139.9)" />
<use xlink:href="#f0_2g" transform="matrix(12,0,0,12,263.7,1139.9)" />
<use xlink:href="#f0_21" transform="matrix(12,0,0,12,269.9,1139.9)" />
<use xlink:href="#f0_2e" transform="matrix(12,0,0,12,278,1139.9)" />
<use xlink:href="#f0_2b" transform="matrix(12,0,0,12,285.7,1139.9)" />
<use xlink:href="#f0_2f" transform="matrix(12,0,0,12,294.9,1139.9)" />
<use xlink:href="#f0_2c" transform="matrix(12,0,0,12,301.8,1139.9)" />
<use xlink:href="#f0_2b" transform="matrix(12,0,0,12,312.1,1139.9)" />
<use xlink:href="#f0_2e" transform="matrix(12,0,0,12,321.6,1139.9)" />
<use xlink:href="#f0_2b" transform="matrix(12,0,0,12,329.3,1139.9)" />
<use xlink:href="#f0_2h" transform="matrix(12,0,0,12,338.5,1139.9)" />
<use xlink:href="#f0_2f" transform="matrix(12,0,0,12,349.1,1139.9)" />
<use xlink:href="#f1_i" transform="matrix(12,0,0,12,356.2,1139.9)" />
<use xlink:href="#f1_1d" transform="matrix(12,0,0,12,366.8,1139.9)" />
<use xlink:href="#f1_25" transform="matrix(12,0,0,12,383.3,1139.9)" />
<use xlink:href="#f1_1z" transform="matrix(12,0,0,12,387.7,1139.9)" />
<use xlink:href="#f1_2e" transform="matrix(12,0,0,12,395.7,1139.9)" />
<use xlink:href="#f1_2b" transform="matrix(12,0,0,12,401.9,1139.9)" />
<use xlink:href="#f1_2f" transform="matrix(12,0,0,12,411.5,1139.9)" />
<use xlink:href="#f1_2c" transform="matrix(12,0,0,12,418.4,1139.9)" />
<use xlink:href="#f1_2b" transform="matrix(12,0,0,12,427.6,1139.9)" />
<use xlink:href="#f1_2e" transform="matrix(12,0,0,12,437.1,1139.9)" />
<use xlink:href="#f1_21" transform="matrix(12,0,0,12,443.3,1139.9)" />
<use xlink:href="#f1_1x" transform="matrix(12,0,0,12,456.9,1139.9)" />
<use xlink:href="#f1_2a" transform="matrix(12,0,0,12,464.9,1139.9)" />
<use xlink:href="#f1_20" transform="matrix(12,0,0,12,473.7,1139.9)" />
<use xlink:href="#f1_29" transform="matrix(12,0,0,12,488.8,1139.9)" />
<use xlink:href="#f1_1x" transform="matrix(12,0,0,12,502.7,1139.9)" />
<use xlink:href="#f1_1z" transform="matrix(12,0,0,12,510.8,1139.9)" />
<use xlink:href="#f1_2e" transform="matrix(12,0,0,12,518.8,1139.9)" />
<use xlink:href="#f1_2b" transform="matrix(12,0,0,12,525,1139.9)" />
<use xlink:href="#f1_2f" transform="matrix(12,0,0,12,534.6,1139.9)" />
<use xlink:href="#f1_2c" transform="matrix(12,0,0,12,541.5,1139.9)" />
<use xlink:href="#f1_2b" transform="matrix(12,0,0,12,550.7,1139.9)" />
<use xlink:href="#f1_2e" transform="matrix(12,0,0,12,559.9,1139.9)" />
<use xlink:href="#f1_21" transform="matrix(12,0,0,12,566.1,1139.9)" />
<use xlink:href="#f1_23" transform="matrix(12,0,0,12,580.3,1139.9)" />
<use xlink:href="#f1_21" transform="matrix(12,0,0,12,589.4,1139.9)" />
<use xlink:href="#f1_2e" transform="matrix(12,0,0,12,597.5,1139.9)" />
<use xlink:href="#f1_29" transform="matrix(12,0,0,12,603.7,1139.9)" />
<use xlink:href="#f1_25" transform="matrix(12,0,0,12,617.7,1139.9)" />
<use xlink:href="#f1_2a" transform="matrix(12,0,0,12,622.4,1139.9)" />
<use xlink:href="#f1_1x" transform="matrix(12,0,0,12,631.6,1139.9)" />
<use xlink:href="#f1_2g" transform="matrix(12,0,0,12,639.7,1139.9)" />
<use xlink:href="#f1_21" transform="matrix(12,0,0,12,645.1,1139.9)" />
<use xlink:href="#f1_1x" transform="matrix(12,0,0,12,659.2,1139.9)" />
<use xlink:href="#f1_2a" transform="matrix(12,0,0,12,667.2,1139.9)" />
<use xlink:href="#f1_20" transform="matrix(12,0,0,12,676,1139.9)" />
<use xlink:href="#f1_23" transform="matrix(12,0,0,12,691,1139.9)" />
<use xlink:href="#f1_25" transform="matrix(12,0,0,12,700.2,1139.9)" />
<use xlink:href="#f1_2i" transform="matrix(12,0,0,12,705,1139.9)" />
<use xlink:href="#f1_21" transform="matrix(12,0,0,12,713.8,1139.9)" />
<use xlink:href="#f1_2f" transform="matrix(12,0,0,12,722.2,1139.9)" />
<use xlink:href="#f1_2e" transform="matrix(12,0,0,12,735,1139.9)" />
<use xlink:href="#f1_25" transform="matrix(12,0,0,12,741.6,1139.9)" />
<use xlink:href="#f1_2f" transform="matrix(12,0,0,12,746,1139.9)" />
<use xlink:href="#f1_21" transform="matrix(12,0,0,12,753,1139.9)" />
<use xlink:href="#f1_2g" transform="matrix(12,0,0,12,766.9,1139.9)" />
<use xlink:href="#f1_2b" transform="matrix(12,0,0,12,772,1139.9)" />
<use xlink:href="#f1_29" transform="matrix(12,0,0,12,787.4,1139.9)" />
<use xlink:href="#f1_1x" transform="matrix(12,0,0,12,800.9,1139.9)" />
<use xlink:href="#f1_28" transform="matrix(12,0,0,12,809.3,1139.9)" />
<use xlink:href="#f1_21" transform="matrix(12,0,0,12,813.7,1139.9)" />
<use xlink:href="#f1_1x" transform="matrix(12,0,0,12,827.7,1139.9)" />
<use xlink:href="#f1_2a" transform="matrix(12,0,0,12,836.1,1139.9)" />
<use xlink:href="#f1_20" transform="matrix(12,0,0,12,844.9,1139.9)" />
<use xlink:href="#f1_22" transform="matrix(12,0,0,12,55,1161.2)" />
<use xlink:href="#f1_21" transform="matrix(12,0,0,12,60.9,1161.2)" />
<use xlink:href="#f1_29" transform="matrix(12,0,0,12,69.3,1161.2)" />
<use xlink:href="#f1_1x" transform="matrix(12,0,0,12,83.3,1161.2)" />
<use xlink:href="#f1_28" transform="matrix(12,0,0,12,91.7,1161.2)" />
<use xlink:href="#f1_21" transform="matrix(12,0,0,12,96.4,1161.2)" />
<use xlink:href="#f1_23" transform="matrix(12,0,0,12,109.2,1161.2)" />
<use xlink:href="#f1_1x" transform="matrix(12,0,0,12,118.4,1161.2)" />
<use xlink:href="#f1_29" transform="matrix(12,0,0,12,126.8,1161.2)" />
<use xlink:href="#f1_21" transform="matrix(12,0,0,12,140.8,1161.2)" />
<use xlink:href="#f1_2g" transform="matrix(12,0,0,12,148.8,1161.2)" />
<use xlink:href="#f1_2b" transform="matrix(12,0,0,12,154.3,1161.2)" />
<use xlink:href="#f1_2c" transform="matrix(12,0,0,12,163.8,1161.2)" />
<use xlink:href="#f1_24" transform="matrix(12,0,0,12,173,1161.2)" />
<use xlink:href="#f1_2l" transform="matrix(12,0,0,12,182.2,1161.2)" />
<use xlink:href="#f1_2g" transform="matrix(12,0,0,12,190.6,1161.2)" />
<use xlink:href="#f1_21" transform="matrix(12,0,0,12,196.1,1161.2)" />
<use xlink:href="#f1_2e" transform="matrix(12,0,0,12,208.9,1161.2)" />
<use xlink:href="#f1_21" transform="matrix(12,0,0,12,215.1,1161.2)" />
<use xlink:href="#f1_2f" transform="matrix(12,0,0,12,223.2,1161.2)" />
<use xlink:href="#f1_2c" transform="matrix(12,0,0,12,230.1,1161.2)" />
<use xlink:href="#f1_21" transform="matrix(12,0,0,12,239.3,1161.2)" />
<use xlink:href="#f1_1z" transform="matrix(12,0,0,12,247.4,1161.2)" />
<use xlink:href="#f1_2g" transform="matrix(12,0,0,12,255.4,1161.2)" />
<use xlink:href="#f1_25" transform="matrix(12,0,0,12,260.9,1161.2)" />
<use xlink:href="#f1_2i" transform="matrix(12,0,0,12,265.7,1161.2)" />
<use xlink:href="#f1_21" transform="matrix(12,0,0,12,274.5,1161.2)" />
<use xlink:href="#f1_28" transform="matrix(12,0,0,12,282.9,1161.2)" />
<use xlink:href="#f1_2l" transform="matrix(12,0,0,12,288,1161.2)" />
<use xlink:href="#f1_i" transform="matrix(12,0,0,12,296.5,1161.2)" />
<use xlink:href="#f1_19" transform="matrix(12,0,0,12,55,1182.1)" />
<use xlink:href="#f1_2a" transform="matrix(12,0,0,12,61.3,1182.1)" />
<use xlink:href="#f1_24" transform="matrix(12,0,0,12,75.9,1182.1)" />
<use xlink:href="#f1_21" transform="matrix(12,0,0,12,84.7,1182.1)" />
<use xlink:href="#f1_2g" transform="matrix(12,0,0,12,92.8,1182.1)" />
<use xlink:href="#f1_21" transform="matrix(12,0,0,12,98.2,1182.1)" />
<use xlink:href="#f1_2e" transform="matrix(12,0,0,12,106.3,1182.1)" />
<use xlink:href="#f1_2b" transform="matrix(12,0,0,12,112.5,1182.1)" />
<use xlink:href="#f1_2f" transform="matrix(12,0,0,12,122,1182.1)" />
<use xlink:href="#f1_2c" transform="matrix(12,0,0,12,129,1182.1)" />
<use xlink:href="#f1_2b" transform="matrix(12,0,0,12,137.8,1182.1)" />
<use xlink:href="#f1_2e" transform="matrix(12,0,0,12,147.3,1182.1)" />
<use xlink:href="#f1_2b" transform="matrix(12,0,0,12,153.2,1182.1)" />
<use xlink:href="#f1_2h" transform="matrix(12,0,0,12,162.7,1182.1)" />
<use xlink:href="#f1_2f" transform="matrix(12,0,0,12,172,1182.1)" />
<use xlink:href="#f1_1z" transform="matrix(12,0,0,12,184.5,1182.1)" />
<use xlink:href="#f1_2b" transform="matrix(12,0,0,12,192.2,1182.1)" />
<use xlink:href="#f1_2a" transform="matrix(12,0,0,12,201.7,1182.1)" />
<use xlink:href="#f1_20" transform="matrix(12,0,0,12,210.5,1182.1)" />
<use xlink:href="#f1_25" transform="matrix(12,0,0,12,220,1182.1)" />
<use xlink:href="#f1_2g" transform="matrix(12,0,0,12,224.4,1182.1)" />
<use xlink:href="#f1_25" transform="matrix(12,0,0,12,230.3,1182.1)" />
<use xlink:href="#f1_2b" transform="matrix(12,0,0,12,234.7,1182.1)" />
<use xlink:href="#f1_2a" transform="matrix(12,0,0,12,244.2,1182.1)" />
<use xlink:href="#f1_2g" transform="matrix(12,0,0,12,259,1182.1)" />
<use xlink:href="#f1_24" transform="matrix(12,0,0,12,264.5,1182.1)" />
<use xlink:href="#f1_21" transform="matrix(12,0,0,12,273.3,1182.1)" />
<use xlink:href="#f1_22" transform="matrix(12,0,0,12,287.2,1182.1)" />
<use xlink:href="#f1_21" transform="matrix(12,0,0,12,292.7,1182.1)" />
<use xlink:href="#f1_29" transform="matrix(12,0,0,12,301.1,1182.1)" />
<use xlink:href="#f1_1x" transform="matrix(12,0,0,12,315.1,1182.1)" />
<use xlink:href="#f1_28" transform="matrix(12,0,0,12,323.5,1182.1)" />
<use xlink:href="#f1_21" transform="matrix(12,0,0,12,328.2,1182.1)" />
<use xlink:href="#f1_23" transform="matrix(12,0,0,12,342.2,1182.1)" />
<use xlink:href="#f1_1x" transform="matrix(12,0,0,12,351.3,1182.1)" />
<use xlink:href="#f1_29" transform="matrix(12,0,0,12,359.7,1182.1)" />
<use xlink:href="#f1_21" transform="matrix(12,0,0,12,373.3,1182.1)" />
<use xlink:href="#f1_2g" transform="matrix(12,0,0,12,381.4,1182.1)" />
<use xlink:href="#f1_2b" transform="matrix(12,0,0,12,386.8,1182.1)" />
<use xlink:href="#f1_2c" transform="matrix(12,0,0,12,396.4,1182.1)" />
<use xlink:href="#f1_24" transform="matrix(12,0,0,12,405.5,1182.1)" />
<use xlink:href="#f1_2l" transform="matrix(12,0,0,12,414.7,1182.1)" />
<use xlink:href="#f1_2g" transform="matrix(12,0,0,12,423.1,1182.1)" />
<use xlink:href="#f1_21" transform="matrix(12,0,0,12,428.6,1182.1)" />
<use xlink:href="#f1_25" transform="matrix(12,0,0,12,442.5,1182.1)" />
<use xlink:href="#f1_2f" transform="matrix(12,0,0,12,447.3,1182.1)" />
<use xlink:href="#f1_2a" transform="matrix(12,0,0,12,460.1,1182.1)" />
<use xlink:href="#f1_2b" transform="matrix(12,0,0,12,468.9,1182.1)" />
<use xlink:href="#f1_2g" transform="matrix(12,0,0,12,478.1,1182.1)" />
<use xlink:href="#f1_22" transform="matrix(12,0,0,12,489.4,1182.1)" />
<use xlink:href="#f1_2e" transform="matrix(12,0,0,12,494.9,1182.1)" />
<use xlink:href="#f1_21" transform="matrix(12,0,0,12,501.1,1182.1)" />
<use xlink:href="#f1_21" transform="matrix(12,0,0,12,509.2,1182.1)" />
<use xlink:href="#f1_28" transform="matrix(12,0,0,12,523.1,1182.1)" />
<use xlink:href="#f1_25" transform="matrix(12,0,0,12,527.9,1182.1)" />
<use xlink:href="#f1_2i" transform="matrix(12,0,0,12,532.6,1182.1)" />
<use xlink:href="#f1_25" transform="matrix(12,0,0,12,542.2,1182.1)" />
<use xlink:href="#f1_2a" transform="matrix(12,0,0,12,546.9,1182.1)" />
<use xlink:href="#f1_23" transform="matrix(12,0,0,12,556.1,1182.1)" />
<use xlink:href="#f1_g" transform="matrix(12,0,0,12,565.3,1182.1)" />
<use xlink:href="#f1_25" transform="matrix(12,0,0,12,575.8,1182.1)" />
<use xlink:href="#f1_2g" transform="matrix(12,0,0,12,580.2,1182.1)" />
<use xlink:href="#f1_25" transform="matrix(12,0,0,12,591.6,1182.1)" />
<use xlink:href="#f1_2f" transform="matrix(12,0,0,12,596.3,1182.1)" />
<use xlink:href="#f1_2e" transform="matrix(12,0,0,12,609.2,1182.1)" />
<use xlink:href="#f1_21" transform="matrix(12,0,0,12,615.4,1182.1)" />
<use xlink:href="#f1_2g" transform="matrix(12,0,0,12,623.1,1182.1)" />
<use xlink:href="#f1_1x" transform="matrix(12,0,0,12,628.6,1182.1)" />
<use xlink:href="#f1_25" transform="matrix(12,0,0,12,636.6,1182.1)" />
<use xlink:href="#f1_2a" transform="matrix(12,0,0,12,641.4,1182.1)" />
<use xlink:href="#f1_21" transform="matrix(12,0,0,12,650.6,1182.1)" />
<use xlink:href="#f1_20" transform="matrix(12,0,0,12,658.6,1182.1)" />
<use xlink:href="#f1_25" transform="matrix(12,0,0,12,674,1182.1)" />
<use xlink:href="#f1_2a" transform="matrix(12,0,0,12,678.8,1182.1)" />
<use xlink:href="#f1_2g" transform="matrix(12,0,0,12,693.4,1182.1)" />
<use xlink:href="#f1_24" transform="matrix(12,0,0,12,698.9,1182.1)" />
<use xlink:href="#f1_21" transform="matrix(12,0,0,12,707.7,1182.1)" />
<use xlink:href="#f1_2c" transform="matrix(12,0,0,12,721.6,1182.1)" />
<use xlink:href="#f1_1x" transform="matrix(12,0,0,12,730.8,1182.1)" />
<use xlink:href="#f1_2e" transform="matrix(12,0,0,12,738.8,1182.1)" />
<use xlink:href="#f1_21" transform="matrix(12,0,0,12,745.1,1182.1)" />
<use xlink:href="#f1_2a" transform="matrix(12,0,0,12,753.1,1182.1)" />
<use xlink:href="#f1_2g" transform="matrix(12,0,0,12,761.9,1182.1)" />
<use xlink:href="#f1_2f" transform="matrix(12,0,0,12,772.9,1182.1)" />
<use xlink:href="#f1_2c" transform="matrix(12,0,0,12,779.9,1182.1)" />
<use xlink:href="#f1_2b" transform="matrix(12,0,0,12,788.7,1182.1)" />
<use xlink:href="#f1_2e" transform="matrix(12,0,0,12,797.8,1182.1)" />
<use xlink:href="#f1_2b" transform="matrix(12,0,0,12,804.1,1182.1)" />
<use xlink:href="#f1_2c" transform="matrix(12,0,0,12,813.6,1182.1)" />
<use xlink:href="#f1_24" transform="matrix(12,0,0,12,822.7,1182.1)" />
<use xlink:href="#f1_2l" transform="matrix(12,0,0,12,831.9,1182.1)" />
<use xlink:href="#f1_2g" transform="matrix(12,0,0,12,840.3,1182.1)" />
<use xlink:href="#f1_21" transform="matrix(12,0,0,12,845.8,1182.1)" />
<use xlink:href="#f1_2g" transform="matrix(12,0,0,12,55,1203.4)" />
<use xlink:href="#f1_25" transform="matrix(12,0,0,12,60.5,1203.4)" />
<use xlink:href="#f1_28" transform="matrix(12,0,0,12,65.3,1203.4)" />
<use xlink:href="#f1_28" transform="matrix(12,0,0,12,70.4,1203.4)" />
<use xlink:href="#f1_2g" transform="matrix(12,0,0,12,79.6,1203.4)" />
<use xlink:href="#f1_24" transform="matrix(12,0,0,12,85,1203.4)" />
<use xlink:href="#f1_21" transform="matrix(12,0,0,12,93.8,1203.4)" />
<use xlink:href="#f1_1y" transform="matrix(12,0,0,12,107,1203.4)" />
<use xlink:href="#f1_21" transform="matrix(12,0,0,12,115.8,1203.4)" />
<use xlink:href="#f1_23" transform="matrix(12,0,0,12,123.9,1203.4)" />
<use xlink:href="#f1_25" transform="matrix(12,0,0,12,133.4,1203.4)" />
<use xlink:href="#f1_2a" transform="matrix(12,0,0,12,138.2,1203.4)" />
<use xlink:href="#f1_2a" transform="matrix(12,0,0,12,147.3,1203.4)" />
<use xlink:href="#f1_25" transform="matrix(12,0,0,12,156.9,1203.4)" />
<use xlink:href="#f1_2a" transform="matrix(12,0,0,12,161.6,1203.4)" />
<use xlink:href="#f1_23" transform="matrix(12,0,0,12,170.8,1203.4)" />
<use xlink:href="#f1_2b" transform="matrix(12,0,0,12,184.7,1203.4)" />
<use xlink:href="#f1_22" transform="matrix(12,0,0,12,194.2,1203.4)" />
<use xlink:href="#f1_2g" transform="matrix(12,0,0,12,204.5,1203.4)" />
<use xlink:href="#f1_24" transform="matrix(12,0,0,12,210,1203.4)" />
<use xlink:href="#f1_21" transform="matrix(12,0,0,12,218.8,1203.4)" />
<use xlink:href="#f1_21" transform="matrix(12,0,0,12,231.6,1203.4)" />
<use xlink:href="#f1_29" transform="matrix(12,0,0,12,240,1203.4)" />
<use xlink:href="#f1_1y" transform="matrix(12,0,0,12,253.9,1203.4)" />
<use xlink:href="#f1_2e" transform="matrix(12,0,0,12,262.7,1203.4)" />
<use xlink:href="#f1_2l" transform="matrix(12,0,0,12,269.3,1203.4)" />
<use xlink:href="#f1_2b" transform="matrix(12,0,0,12,277.7,1203.4)" />
<use xlink:href="#f1_20" transform="matrix(12,0,0,12,292,1203.4)" />
<use xlink:href="#f1_21" transform="matrix(12,0,0,12,301.2,1203.4)" />
<use xlink:href="#f1_2i" transform="matrix(12,0,0,12,309.2,1203.4)" />
<use xlink:href="#f1_21" transform="matrix(12,0,0,12,318,1203.4)" />
<use xlink:href="#f1_28" transform="matrix(12,0,0,12,326.4,1203.4)" />
<use xlink:href="#f1_2b" transform="matrix(12,0,0,12,330.8,1203.4)" />
<use xlink:href="#f1_2c" transform="matrix(12,0,0,12,340.4,1203.4)" />
<use xlink:href="#f1_29" transform="matrix(12,0,0,12,349.9,1203.4)" />
<use xlink:href="#f1_21" transform="matrix(12,0,0,12,363.8,1203.4)" />
<use xlink:href="#f1_2a" transform="matrix(12,0,0,12,372.2,1203.4)" />
<use xlink:href="#f1_2g" transform="matrix(12,0,0,12,381,1203.4)" />
<use xlink:href="#f1_i" transform="matrix(12,0,0,12,386.5,1203.4)" />
<use xlink:href="#f1_1j" transform="matrix(12,0,0,12,55,1224.3)" />
<use xlink:href="#f1_21" transform="matrix(12,0,0,12,65.3,1224.3)" />
<use xlink:href="#f1_21" transform="matrix(12,0,0,12,73.4,1224.3)" />
<use xlink:href="#f1_20" transform="matrix(12,0,0,12,81.4,1224.3)" />
<use xlink:href="#f1_1y" transform="matrix(12,0,0,12,95.3,1224.3)" />
<use xlink:href="#f1_21" transform="matrix(12,0,0,12,104.1,1224.3)" />
<use xlink:href="#f1_1x" transform="matrix(12,0,0,12,112.2,1224.3)" />
<use xlink:href="#f1_2e" transform="matrix(12,0,0,12,120.3,1224.3)" />
<use xlink:href="#f1_25" transform="matrix(12,0,0,12,126.8,1224.3)" />
<use xlink:href="#f1_2a" transform="matrix(12,0,0,12,131.6,1224.3)" />
<use xlink:href="#f1_23" transform="matrix(12,0,0,12,140.8,1224.3)" />
<use xlink:href="#f1_2c" transform="matrix(12,0,0,12,154.7,1224.3)" />
<use xlink:href="#f1_28" transform="matrix(12,0,0,12,164.2,1224.3)" />
<use xlink:href="#f1_1x" transform="matrix(12,0,0,12,168.6,1224.3)" />
<use xlink:href="#f1_2a" transform="matrix(12,0,0,12,177,1224.3)" />
<use xlink:href="#f1_2g" transform="matrix(12,0,0,12,185.8,1224.3)" />
<use xlink:href="#f1_2f" transform="matrix(12,0,0,12,191.3,1224.3)" />
<use xlink:href="#f1_1x" transform="matrix(12,0,0,12,203,1224.3)" />
<use xlink:href="#f1_2e" transform="matrix(12,0,0,12,211.1,1224.3)" />
<use xlink:href="#f1_21" transform="matrix(12,0,0,12,217.3,1224.3)" />
<use xlink:href="#f1_21" transform="matrix(12,0,0,12,230.1,1224.3)" />
<use xlink:href="#f1_2i" transform="matrix(12,0,0,12,238.2,1224.3)" />
<use xlink:href="#f1_2b" transform="matrix(12,0,0,12,247,1224.3)" />
<use xlink:href="#f1_28" transform="matrix(12,0,0,12,256.9,1224.3)" />
<use xlink:href="#f1_2i" transform="matrix(12,0,0,12,261.6,1224.3)" />
<use xlink:href="#f1_21" transform="matrix(12,0,0,12,270.4,1224.3)" />
<use xlink:href="#f1_20" transform="matrix(12,0,0,12,278.5,1224.3)" />
<use xlink:href="#f1_22" transform="matrix(12,0,0,12,292.8,1224.3)" />
<use xlink:href="#f1_2e" transform="matrix(12,0,0,12,298.3,1224.3)" />
<use xlink:href="#f1_2b" transform="matrix(12,0,0,12,304.5,1224.3)" />
<use xlink:href="#f1_29" transform="matrix(12,0,0,12,314,1224.3)" />
<use xlink:href="#f1_24" transform="matrix(12,0,0,12,332.7,1224.3)" />
<use xlink:href="#f1_21" transform="matrix(12,0,0,12,341.5,1224.3)" />
<use xlink:href="#f1_2g" transform="matrix(12,0,0,12,349.6,1224.3)" />
<use xlink:href="#f1_21" transform="matrix(12,0,0,12,355,1224.3)" />
<use xlink:href="#f1_2e" transform="matrix(12,0,0,12,363.1,1224.3)" />
<use xlink:href="#f1_2b" transform="matrix(12,0,0,12,369.3,1224.3)" />
<use xlink:href="#f1_2f" transform="matrix(12,0,0,12,378.8,1224.3)" />
<use xlink:href="#f1_2c" transform="matrix(12,0,0,12,385.8,1224.3)" />
<use xlink:href="#f1_2b" transform="matrix(12,0,0,12,394.6,1224.3)" />
<use xlink:href="#f1_2e" transform="matrix(12,0,0,12,404.1,1224.3)" />
<use xlink:href="#f1_2b" transform="matrix(12,0,0,12,410,1224.3)" />
<use xlink:href="#f1_2h" transform="matrix(12,0,0,12,419.5,1224.3)" />
<use xlink:href="#f1_2f" transform="matrix(12,0,0,12,428.3,1224.3)" />
<use xlink:href="#f1_2c" transform="matrix(12,0,0,12,440.5,1224.3)" />
<use xlink:href="#f1_2g" transform="matrix(12,0,0,12,449.7,1224.3)" />
<use xlink:href="#f1_21" transform="matrix(12,0,0,12,455.2,1224.3)" />
<use xlink:href="#f1_2e" transform="matrix(12,0,0,12,463.3,1224.3)" />
<use xlink:href="#f1_25" transform="matrix(12,0,0,12,469.5,1224.3)" />
<use xlink:href="#f1_20" transform="matrix(12,0,0,12,473.9,1224.3)" />
<use xlink:href="#f1_2b" transform="matrix(12,0,0,12,483,1224.3)" />
<use xlink:href="#f1_2c" transform="matrix(12,0,0,12,492.6,1224.3)" />
<use xlink:href="#f1_24" transform="matrix(12,0,0,12,501.7,1224.3)" />
<use xlink:href="#f1_2l" transform="matrix(12,0,0,12,510.9,1224.3)" />
<use xlink:href="#f1_2g" transform="matrix(12,0,0,12,519.3,1224.3)" />
<use xlink:href="#f1_21" transform="matrix(12,0,0,12,524.8,1224.3)" />
<use xlink:href="#f1_i" transform="matrix(12,0,0,12,532.9,1224.3)" />
</g>
<image preserveAspectRatio="none" x="57" y="55" width="403" height="302" xlink:href="img/1.png" />
<image preserveAspectRatio="none" x="55" y="399" width="158" height="229" xlink:href="img/2.png" />
<image preserveAspectRatio="none" x="57" y="754" width="326" height="242" xlink:href="img/3.png" />
<g fill="#000000" >
<use xlink:href="#f3_l" transform="matrix(8,0,0,8,785.7,1264.1)" />
<use xlink:href="#f3_m" transform="matrix(8,0,0,8,792.5,1264.1)" />
</g>
<defs>
<path d="M608,-14c0,0,-251,0,-392,133C216,119,75,252,75,488c0,0,0,257,134,390c0,0,135,133,398,133c0,0,174,0,361,-50l4,-240H905L884,866c0,0,-98,67,-229,67c0,0,-173,0,-253,-108c0,0,-80,-108,-80,-334c0,0,0,-209,84,-319c0,0,83,-109,243,-109c0,0,84,0,147,22c0,0,63,22,99,53l24,164h68L982,48C982,48,915,22,808,4C808,4,700,-14,608,-14Z" 
id="f0_13"
transform="scale(0.001,-0.001)" />

<path d="M379,60c0,0,59,0,84,64c0,0,24,65,24,231c0,0,0,164,-24,227c0,0,-24,63,-84,63c0,0,-57,0,-80,-60c0,0,-22,-61,-22,-230c0,0,0,-173,23,-234c0,0,22,-61,79,-61Zm-2,-74c0,0,-161,0,-240,91c0,0,-79,91,-79,277c0,0,0,186,80,276c0,0,81,90,245,90c0,0,167,0,245,-93c0,0,78,-93,78,-273c0,0,0,-188,-81,-278c0,0,-81,-90,-248,-90Z" 
id="f0_2b"
transform="scale(0.001,-0.001)" />

<path d="M34,0V49l76,18V634L38,652v49H325V67L402,49V0ZM217,831c0,0,-48,0,-81,33c0,0,-34,33,-34,82c0,0,0,48,34,81c0,0,34,33,81,33c0,0,48,0,81,-33c0,0,33,-33,33,-81c0,0,0,-47,-33,-81c0,0,-32,-34,-81,-34Z" 
id="f0_25"
transform="scale(0.001,-0.001)" />

<path d="M30,0V49l76,18V992l-72,18v50H322V67L398,49V0Z" 
id="f0_28"
transform="scale(0.001,-0.001)" />

<path d="M41,0V49l69,18V634L41,652v49H313l11,-61l50,26c0,0,105,54,188,54c0,0,194,0,194,-207V67L827,49V0H478V49l63,18V484c0,0,0,63,-27,98c0,0,-26,35,-75,35c0,0,-57,0,-114,-25V67L389,49V0Z" 
id="f0_2a"
transform="scale(0.001,-0.001)" />

<path d="M360,-256c0,0,108,0,167,35c0,0,59,35,59,98c0,0,0,70,-95,70H254c0,0,-65,-47,-65,-108c0,0,0,-47,46,-71c0,0,45,-24,125,-24Zm9,561c0,0,55,0,79,43c0,0,25,43,25,129c0,0,0,87,-24,127c0,0,-25,41,-80,41c0,0,-52,0,-75,-41c0,0,-24,-40,-24,-127c0,0,0,-86,23,-129c0,0,23,-43,76,-43Zm-9,-641c0,0,-153,0,-236,43c0,0,-84,44,-84,120c0,0,0,33,28,65c0,0,27,31,105,76c0,0,-44,17,-75,59c0,0,-31,43,-31,90L192,258c0,0,-133,56,-133,219c0,0,0,116,81,180c0,0,82,63,233,63c0,0,32,0,82,-6c0,0,51,-6,74,-13l168,83l26,-32L638,631c0,0,46,-57,46,-154c0,0,0,-119,-80,-182c0,0,-80,-64,-234,-64c0,0,-59,0,-114,9L238,183c0,0,1,-22,28,-41c0,0,26,-19,64,-19H493c0,0,256,0,256,-196c0,0,0,-81,-44,-139c0,0,-45,-59,-131,-92c0,0,-86,-32,-214,-32Z" 
id="f0_23"
transform="scale(0.001,-0.001)" />

<path d="M41,0V49l76,18V624H11v51l106,29v75c0,0,0,144,73,220c0,0,73,77,210,77c0,0,74,0,124,-15V894H476l-22,81c0,0,-18,17,-47,17c0,0,-74,0,-74,-189V701H475V624H333V67L447,49V0Z" 
id="f0_22"
transform="scale(0.001,-0.001)" />

<path d="M159,-329c0,0,-61,0,-123,14v180H81l32,-94c0,0,21,-17,55,-17c0,0,28,0,50,13c0,0,21,14,40,39c0,0,20,25,37,62c0,0,17,37,50,110L64,634L15,652v49H374V652L290,632L455,244L602,634l-82,18v49H749V652L698,637L421,-44c0,0,-47,-121,-83,-176c0,0,-36,-55,-80,-82c0,0,-43,-27,-99,-27Z" 
id="f0_2l"
transform="scale(0.001,-0.001)" />

<path d="M287,-18c0,0,-194,0,-194,206V634L23,652v49H309V217c0,0,0,-63,26,-98c0,0,27,-35,76,-35c0,0,57,0,113,25V634l-64,18v49H740V67L809,49V0H536L526,61L475,35c0,0,-104,-53,-188,-53Z" 
id="f0_2h"
transform="scale(0.001,-0.001)" />

<path d="M434,423c0,0,0,101,-7,142c0,0,-6,40,-22,60c0,0,-16,19,-45,19c0,0,-44,0,-66,-48c0,0,-22,-49,-22,-173ZM389,-14c0,0,-172,0,-254,89c0,0,-83,90,-83,279c0,0,0,184,79,274c0,0,79,91,238,91c0,0,142,0,206,-76c0,0,64,-76,64,-237V345H271V333c0,0,0,-111,18,-158c0,0,18,-47,58,-72c0,0,40,-25,110,-25c0,0,66,0,166,22V42C623,42,582,18,517,1c0,0,-66,-15,-128,-15Z" 
id="f0_21"
transform="scale(0.001,-0.001)" />

<path d="M345,75c0,0,50,0,110,26V351l-63,-2c0,0,-72,-3,-100,-38c0,0,-28,-35,-28,-113c0,0,0,-63,22,-93c0,0,23,-30,59,-30ZM266,-14c0,0,-217,0,-217,208c0,0,0,79,32,126c0,0,32,48,93,71c0,0,60,22,190,25l91,2V521c0,0,0,126,-104,126c0,0,-62,0,-140,-39L183,521H134V691c0,0,112,17,165,21c0,0,53,5,108,5c0,0,264,0,264,-194V67L741,49V0H483L466,54C466,54,408,14,361,0c0,0,-47,-14,-95,-14Z" 
id="f0_1x"
transform="scale(0.001,-0.001)" />

<path d="M342,-14L49,634L0,652v49H359V652L275,632L455,233L617,634l-82,18v49H764V652L713,637L433,-14Z" 
id="f0_2i"
transform="scale(0.001,-0.001)" />

<path d="M276,-14c0,0,-57,0,-125,13C151,-1,83,10,48,23V214H97l28,-98c0,0,26,-26,69,-44c0,0,42,-17,86,-17c0,0,65,0,97,28c0,0,32,28,32,71c0,0,0,41,-31,65c0,0,-30,25,-133,57c0,0,-108,34,-154,92c0,0,-45,58,-45,143c0,0,0,95,71,152c0,0,71,57,183,57c0,0,77,0,207,-22V518H457l-24,82c0,0,-21,22,-60,35c0,0,-40,14,-75,14c0,0,-53,0,-79,-22c0,0,-26,-22,-26,-59c0,0,0,-40,32,-65c0,0,32,-26,132,-55c0,0,109,-34,155,-89c0,0,45,-55,45,-137c0,0,0,-117,-72,-177c0,0,-72,-59,-209,-59Z" 
id="f0_2f"
transform="scale(0.001,-0.001)" />

<path d="M56,294V424H453V294Z" 
id="f0_h"
transform="scale(0.001,-0.001)" />

<path d="M41,0V49l91,18V634L41,652v49H336l8,-145c0,0,80,89,144,128c0,0,64,40,117,40h40V468H604l-45,94c0,0,-47,0,-106,-21c0,0,-60,-20,-105,-48V67L460,49V0Z" 
id="f0_2e"
transform="scale(0.001,-0.001)" />

<path d="M425,-14c0,0,-187,0,-280,90c0,0,-93,90,-93,276c0,0,0,115,42,198c0,0,43,82,121,126c0,0,78,44,182,44c0,0,104,0,227,-26V486H571L539,609c0,0,-25,19,-50,26c0,0,-24,7,-65,7c0,0,-44,0,-79,-35c0,0,-36,-35,-56,-98c0,0,-20,-64,-20,-153c0,0,0,-150,47,-214c0,0,47,-64,148,-64c0,0,103,0,176,21V42C640,42,606,15,547,0c0,0,-59,-14,-122,-14Z" 
id="f0_1z"
transform="scale(0.001,-0.001)" />

<path d="M327,-14c0,0,-101,0,-156,45c0,0,-55,45,-55,131V624H25v48l108,29l87,159H332V701H480V624H332V176c0,0,0,-49,20,-73c0,0,20,-25,53,-25c0,0,40,0,97,12V26c0,0,-22,-15,-76,-27c0,0,-55,-13,-99,-13Z" 
id="f0_2g"
transform="scale(0.001,-0.001)" />

<path d="M438,65c0,0,131,0,131,293c0,0,0,279,-130,279c0,0,-69,0,-127,-29V80c0,0,60,-15,126,-15ZM20,-325v50l76,18V634L19,652v49H304l1,-36c0,0,80,55,194,55c0,0,146,0,218,-86c0,0,71,-86,71,-271c0,0,0,-183,-83,-280c0,0,-83,-97,-238,-97c0,0,-79,0,-160,19c0,0,5,-48,5,-109V-257l103,-18v-50Z" 
id="f0_2c"
transform="scale(0.001,-0.001)" />

<path d="M416,68c0,0,60,0,124,32V628c0,0,-58,15,-118,15c0,0,-67,0,-104,-73c0,0,-38,-73,-38,-216c0,0,0,-139,36,-212c0,0,35,-74,100,-74ZM369,-14c0,0,-155,0,-231,88c0,0,-76,90,-76,274c0,0,0,182,82,277c0,0,81,95,236,95c0,0,82,0,165,-20c0,0,-5,24,-5,115V992l-72,18v50H756V67L833,49V0H562L547,40C547,40,505,13,483,4c0,0,-23,-7,-51,-12c0,0,-28,-6,-63,-6Z" 
id="f0_20"
transform="scale(0.001,-0.001)" />

<path d="M41,0V49l69,18V992l-72,18v50H325V756c0,0,0,-49,-4,-116l51,26c0,0,106,54,190,54c0,0,194,0,194,-207V67L827,49V0H478V49l63,18V484c0,0,0,63,-27,98c0,0,-26,35,-75,35c0,0,-57,0,-114,-25V67L389,49V0Z" 
id="f0_24"
transform="scale(0.001,-0.001)" />

<path d="M191,-20c0,0,-39,0,-65,25c0,0,-25,27,-25,64c0,0,0,38,26,64c0,0,26,26,64,26c0,0,38,0,64,-26c0,0,26,-26,26,-64c0,0,0,-37,-25,-64c0,0,-26,-25,-65,-25Z" 
id="f1_i"
transform="scale(0.001,-0.001)" />

<path d="M44,0V40L172,60V941L44,960v40H471V960L316,941V65H513c0,0,159,0,234,14l46,208h48L828,0Z" 
id="f1_1c"
transform="scale(0.001,-0.001)" />

<path d="M495,413c0,0,0,133,-34,190c0,0,-34,57,-105,57c0,0,-78,0,-119,-63c0,0,-42,-62,-42,-184ZM374,-14c0,0,-163,0,-239,87c0,0,-75,88,-75,283c0,0,0,183,77,273c0,0,76,91,219,91c0,0,269,0,269,-306V353H194V340c0,0,0,-103,23,-160c0,0,22,-57,70,-87c0,0,47,-29,124,-29c0,0,40,0,96,6c0,0,55,7,91,15V43C598,43,562,20,500,3c0,0,-61,-17,-126,-17Z" 
id="f1_21"
transform="scale(0.001,-0.001)" />

<path d="M284,67c0,0,51,0,88,12c0,0,37,12,74,30V358l-98,-3c0,0,-100,-4,-135,-39c0,0,-35,-35,-35,-117c0,0,0,-132,106,-132ZM233,-14c0,0,-179,0,-179,208c0,0,0,70,27,116c0,0,27,46,87,70c0,0,60,24,173,27l105,3V519c0,0,0,72,-26,107c0,0,-27,34,-82,34c0,0,-75,0,-137,-35L176,538H134V691c0,0,121,26,213,26c0,0,115,0,169,-47c0,0,54,-47,54,-144V52L657,33V0H465L451,70c0,0,-85,-84,-218,-84Z" 
id="f1_1x"
transform="scale(0.001,-0.001)" />

<path d="M360,-14L72,649L0,668v33H327V668L216,648L420,164L615,649L504,668v33H764V668L697,652L416,-14Z" 
id="f1_2i"
transform="scale(0.001,-0.001)" />

<path d="M278,-14c0,0,-52,0,-115,11c0,0,-63,10,-99,23V193H98L134,95c0,0,56,-50,146,-50c0,0,144,0,144,123c0,0,0,91,-114,130l-66,21c0,0,-75,25,-110,50c0,0,-34,26,-53,63c0,0,-18,36,-18,89c0,0,0,92,63,145c0,0,63,54,170,54c0,0,77,0,193,-23V544H454l-32,81c0,0,-39,35,-124,35c0,0,-61,0,-92,-30c0,0,-32,-30,-32,-80c0,0,0,-43,29,-72c0,0,28,-29,86,-48c0,0,110,-38,144,-55c0,0,33,-17,57,-42c0,0,23,-25,36,-57c0,0,13,-32,13,-79c0,0,0,-104,-66,-158c0,0,-66,-53,-195,-53Z" 
id="f1_2f"
transform="scale(0.001,-0.001)" />

<path d="M31,0V33l88,19V649L31,668v33H235l7,-87c0,0,44,37,121,71c0,0,76,35,121,35h11V530H463l-43,82c0,0,-37,0,-88,-10c0,0,-52,-10,-89,-26V52L363,33V0Z" 
id="f1_2e"
transform="scale(0.001,-0.001)" />

<path d="M377,45c0,0,99,0,147,73c0,0,47,73,47,237c0,0,0,161,-47,233c0,0,-47,72,-147,72c0,0,-97,0,-141,-69c0,0,-44,-69,-44,-236c0,0,0,-169,45,-240c0,0,44,-70,140,-70Zm0,-59c0,0,-158,0,-238,94c0,0,-81,95,-81,274c0,0,0,178,81,272c0,0,80,94,244,94c0,0,160,0,241,-92c0,0,82,-92,82,-274c0,0,0,-368,-329,-368Z" 
id="f1_2b"
transform="scale(0.001,-0.001)" />

<path d="M64,0V34L168,59V639H47v36l121,29v49c0,0,0,155,61,239c0,0,62,84,173,84c0,0,58,0,107,-15V908H472l-33,92c0,0,-26,16,-62,16c0,0,-47,0,-66,-42c0,0,-19,-42,-19,-157V701H478V639H292V59L443,34V0Z" 
id="f1_22"
transform="scale(0.001,-0.001)" />

<path d="M249,-14c0,0,-71,0,-107,42c0,0,-35,42,-35,119V639H15v33l93,29l76,159h47V701H391V639H231V161c0,0,0,-48,22,-73c0,0,22,-24,57,-24c0,0,44,0,106,12V26C416,26,389,8,340,-2c0,0,-49,-12,-91,-12Z" 
id="f1_2g"
transform="scale(0.001,-0.001)" />

<path d="M327,-14L84,649L1,668v33H335V668L219,648L385,174L554,632h63L786,171L944,649L830,668v33h267V668l-78,-16L784,-14H726L553,448L382,-14Z" 
id="f1_2j"
transform="scale(0.001,-0.001)" />

<path d="M148,-329c0,0,-58,0,-114,13v151H69l24,-71c0,0,23,-17,64,-17c0,0,39,0,72,22c0,0,33,23,60,67c0,0,27,44,68,157L90,649L19,668v33H344V668L233,648L423,158L606,649L497,668v33H758V668L685,652L411,-43c0,0,-48,-124,-84,-177c0,0,-36,-54,-79,-82c0,0,-44,-27,-100,-27Z" 
id="f1_2l"
transform="scale(0.001,-0.001)" />

<path d="M382,45c0,0,188,0,188,314c0,0,0,143,-47,213c0,0,-46,69,-141,69c0,0,-87,0,-146,-24V58c0,0,67,-13,146,-13ZM25,-325v35l88,18V649L34,668v33H231l1,-41c0,0,31,27,84,43c0,0,53,17,107,17c0,0,134,0,208,-94c0,0,73,-93,73,-267c0,0,0,-178,-80,-276c0,0,-80,-97,-232,-97c0,0,-84,0,-160,16c0,0,4,-53,4,-84V-272l123,-18v-35Z" 
id="f1_2c"
transform="scale(0.001,-0.001)" />

<path d="M359,-270c0,0,124,0,192,46c0,0,67,47,67,129c0,0,0,43,-26,67c0,0,-26,24,-79,24H242c0,0,-32,-27,-51,-69c0,0,-20,-41,-20,-77c0,0,0,-64,46,-92c0,0,46,-28,142,-28Zm11,561c0,0,81,0,115,47c0,0,34,47,34,141c0,0,0,100,-35,142c0,0,-35,42,-113,42c0,0,-78,0,-114,-43c0,0,-37,-42,-37,-141c0,0,0,-98,36,-143c0,0,36,-45,114,-45ZM359,-329c0,0,-143,0,-218,44c0,0,-75,43,-75,125c0,0,0,39,27,78c0,0,26,38,98,89c0,0,-43,14,-72,48c0,0,-29,35,-29,74L208,262c0,0,-118,55,-118,217c0,0,0,115,73,178c0,0,73,63,211,63c0,0,28,0,71,-6c0,0,44,-6,67,-13l165,83l26,-32L599,644c0,0,50,-56,50,-165c0,0,0,-120,-72,-182c0,0,-73,-62,-208,-62c0,0,-62,0,-114,11L208,148c0,0,2,-13,29,-24c0,0,27,-12,67,-12H512c0,0,113,0,168,-49c0,0,55,-49,55,-134c0,0,0,-79,-44,-137c0,0,-43,-58,-128,-90c0,0,-84,-31,-204,-31Z" 
id="f1_23"
transform="scale(0.001,-0.001)" />

<path d="M32,0V33L151,52V649L52,668v33H275V52L395,33V0ZM201,850c0,0,-32,0,-56,24c0,0,-24,24,-24,56c0,0,0,34,24,58c0,0,24,24,56,24c0,0,34,0,58,-24c0,0,24,-24,24,-58c0,0,0,-32,-24,-56c0,0,-24,-24,-58,-24Z" 
id="f1_25"
transform="scale(0.001,-0.001)" />

<path d="M439,0V33l93,19V500c0,0,0,62,-30,97c0,0,-31,36,-94,36c0,0,-67,0,-165,-22V52L338,33V0H35V33l84,19V649L35,668v33H235l7,-57c0,0,57,33,122,54c0,0,65,22,108,22c0,0,91,0,137,-53c0,0,47,-53,47,-154V52L741,33V0Z" 
id="f1_2a"
transform="scale(0.001,-0.001)" />

<path d="M383,64c0,0,85,0,152,28V645c0,0,-67,13,-152,13c0,0,-194,0,-194,-314c0,0,0,-141,48,-211c0,0,48,-69,146,-69ZM342,-14c0,0,-287,0,-287,358c0,0,0,184,82,280c0,0,81,96,239,96c0,0,81,0,163,-18c0,0,-4,25,-4,124v182l-118,18v34H659V52L745,33V0H548l-9,52c0,0,-84,-66,-197,-66Z" 
id="f1_20"
transform="scale(0.001,-0.001)" />

<path d="M31,0V33L150,52v956L31,1026v34H274V52L394,33V0Z" 
id="f1_28"
transform="scale(0.001,-0.001)" />

<path d="M54,0V40L172,60V941L44,960v40H794V760H745L721,922c0,0,-83,11,-241,11H316V516H611l23,120h46V328H634L611,449H316V60L483,40V0Z" 
id="f1_16"
transform="scale(0.001,-0.001)" />

<path d="M442,0V33l93,19V504c0,0,0,129,-124,129c0,0,-70,0,-168,-22V52L338,33V0H31V33l88,19v956L15,1026v34H243V756c0,0,0,-77,-5,-112c0,0,54,31,122,53c0,0,68,23,115,23c0,0,91,0,137,-53c0,0,47,-53,47,-154V52L744,33V0Z" 
id="f1_24"
transform="scale(0.001,-0.001)" />

<path d="M376,50c0,0,103,0,149,80c0,0,46,81,46,240c0,0,0,137,-47,204c0,0,-48,67,-148,67c0,0,-44,0,-87,-7c0,0,-44,-8,-63,-17V62c0,0,63,-12,150,-12Zm3,-64c0,0,-64,0,-141,14c0,0,-78,14,-136,37v971L0,1026v34H226V809c0,0,0,-40,-4,-148c0,0,74,59,188,59c0,0,143,0,219,-87c0,0,77,-87,77,-263c0,0,0,-189,-84,-287c0,0,-84,-97,-243,-97Z" 
id="f1_1y"
transform="scale(0.001,-0.001)" />

<path d="M399,-14c0,0,-341,0,-341,370c0,0,0,175,87,269c0,0,87,95,249,95c0,0,101,0,220,-23V501H573L541,625c0,0,-62,35,-149,35c0,0,-200,0,-200,-304c0,0,0,-158,61,-225c0,0,61,-67,189,-67c0,0,109,0,189,24V43C631,43,595,16,530,1c0,0,-64,-15,-131,-15Z" 
id="f1_1z"
transform="scale(0.001,-0.001)" />

<path d="M410,-14c0,0,-80,0,-162,14c0,0,-81,14,-144,38V270h48L178,134c0,0,28,-35,95,-62c0,0,68,-27,134,-27c0,0,104,0,163,53c0,0,58,54,58,148c0,0,0,54,-23,89c0,0,-22,35,-59,59c0,0,-37,24,-84,41c0,0,-47,17,-97,34c0,0,-49,17,-96,38c0,0,-47,21,-84,53c0,0,-37,32,-60,79c0,0,-23,48,-23,117c0,0,0,119,90,187c0,0,89,68,248,68c0,0,121,0,263,-32V771H654L628,893c0,0,-76,55,-188,55c0,0,-100,0,-156,-40c0,0,-56,-41,-56,-112c0,0,0,-49,22,-81c0,0,23,-32,60,-55c0,0,37,-22,84,-39c0,0,48,-16,97,-34c0,0,50,-17,97,-39c0,0,48,-22,85,-56c0,0,36,-34,59,-83c0,0,23,-49,23,-120c0,0,0,-145,-89,-224c0,0,-89,-79,-256,-79Z" 
id="f1_1j"
transform="scale(0.001,-0.001)" />

<path d="M431,0V33L535,52V499c0,0,0,62,-32,96c0,0,-32,33,-95,33c0,0,-66,0,-163,-22V52L350,33V0H32V33l89,19V649L32,668v33H237l6,-57c0,0,56,32,119,54c0,0,62,22,110,22c0,0,52,0,95,-20c0,0,44,-19,66,-62c0,0,57,32,134,57c0,0,77,25,128,25c0,0,179,0,179,-207V52l90,-19V0H846V33L950,52V499c0,0,0,129,-119,129c0,0,-19,0,-45,-3c0,0,-26,-3,-52,-7c0,0,-25,-4,-49,-8c0,0,-23,-5,-39,-8c0,0,13,-41,13,-89V52L764,33V0Z" 
id="f1_29"
transform="scale(0.001,-0.001)" />

<path d="M55,0V40L184,60V941L55,960v40H455V960L327,941V60L455,40V0Z" 
id="f1_19"
transform="scale(0.001,-0.001)" />

<path d="M58,-234v58c0,0,131,42,131,125c0,0,0,15,-11,27c0,0,-11,12,-38,25C140,1,89,27,89,75c0,0,0,40,25,61c0,0,26,21,65,21c0,0,48,0,77,-34c0,0,30,-34,30,-86c0,0,0,-101,-60,-170c0,0,-59,-69,-168,-101Z" 
id="f1_g"
transform="scale(0.001,-0.001)" />

<path d="M410,-14c0,0,-86,0,-175,14C235,0,145,14,81,38V307h66L181,146c0,0,31,-37,94,-62c0,0,64,-24,132,-24c0,0,214,0,214,177c0,0,0,55,-41,93c0,0,-41,38,-128,68c0,0,-128,42,-185,68c0,0,-56,27,-95,63c0,0,-38,36,-62,87c0,0,-23,51,-23,125c0,0,0,132,90,201c0,0,90,69,263,69c0,0,125,0,278,-32V741H651L618,878c0,0,-76,56,-178,56c0,0,-92,0,-141,-34c0,0,-49,-34,-49,-104c0,0,0,-50,41,-86c0,0,41,-35,128,-63c0,0,171,-56,235,-97c0,0,64,-41,97,-103c0,0,34,-61,34,-143c0,0,0,-318,-375,-318Z" 
id="f0_1j"
transform="scale(0.001,-0.001)" />

<path d="M41,0V49l69,18V634L41,652v49H313l11,-61l50,26c0,0,105,54,188,54c0,0,125,0,167,-91c0,0,153,91,258,91c0,0,189,0,189,-207V67l71,-17V0H898V50l63,17V484c0,0,0,63,-24,98c0,0,-25,35,-74,35c0,0,-55,0,-119,-31c0,0,7,-32,7,-73V67L821,50V0H473V50l63,17V484c0,0,0,63,-25,98c0,0,-24,35,-73,35c0,0,-49,0,-113,-29V67L389,49V0Z" 
id="f0_29"
transform="scale(0.001,-0.001)" />

<path d="M20,-236v69c0,0,47,14,81,37c0,0,33,24,52,52c0,0,18,28,18,53c0,0,0,17,-11,28c0,0,-12,12,-45,30c0,0,-57,30,-57,93c0,0,0,48,34,74c0,0,33,25,85,25c0,0,63,0,105,-41c0,0,42,-41,42,-105c0,0,0,-115,-78,-195c0,0,-77,-81,-226,-120Z" 
id="f0_g"
transform="scale(0.001,-0.001)" />

<path d="M305,-14L57,634L4,652v49H351V652L268,632L419,232L581,631h71L814,232L950,634l-82,18v49h227V652l-54,-15L806,-14H715L555,378L395,-14Z" 
id="f0_2j"
transform="scale(0.001,-0.001)" />

<path d="M424,64c0,0,74,0,109,71c0,0,36,72,36,236c0,0,0,137,-34,201c0,0,-34,65,-111,65c0,0,-29,0,-62,-7c0,0,-34,-6,-55,-19V76c0,0,47,-12,117,-12Zm21,-78c0,0,-121,0,-354,50V994l-72,18v48H307V802c0,0,0,-69,-8,-141c0,0,30,25,86,42c0,0,57,17,110,17c0,0,153,0,223,-84c0,0,70,-83,70,-266c0,0,0,-180,-90,-283C698,87,608,-14,445,-14Z" 
id="f0_1y"
transform="scale(0.001,-0.001)" />

<path d="M191,-20c0,0,-51,0,-88,34c0,0,-36,36,-36,88c0,0,0,52,36,88c0,0,36,36,88,36c0,0,51,0,88,-36c0,0,36,-36,36,-88c0,0,0,-51,-36,-87c0,0,-36,-35,-88,-35Z" 
id="f0_i"
transform="scale(0.001,-0.001)" />

<path d="M394,460c0,0,126,0,186,57c0,0,60,57,60,187c0,0,0,123,-57,176c0,0,-58,53,-194,53H316V460ZM54,0V40L172,60V941L44,960v40H421c0,0,368,0,368,-295c0,0,0,-153,-93,-233c0,0,-93,-80,-267,-80H316V60L475,40V0Z" 
id="f1_1g"
transform="scale(0.001,-0.001)" />

<path d="M289,-14c0,0,-179,0,-179,205V649L20,668v33H233V200c0,0,0,-128,120,-128c0,0,92,0,173,23V649L420,668v33H649V52L738,33V0H533l-6,57C527,57,474,28,405,7c0,0,-69,-21,-116,-21Z" 
id="f1_2h"
transform="scale(0.001,-0.001)" />

<path d="M383,64c0,0,44,0,87,7c0,0,43,7,65,17V645c0,0,-67,13,-152,13c0,0,-194,0,-194,-309c0,0,0,-143,48,-214c0,0,47,-71,146,-71Zm56,-389v35l96,18V-77c0,0,0,73,7,124c0,0,-79,-61,-200,-61c0,0,-287,0,-287,362c0,0,0,180,81,276c0,0,81,96,237,96c0,0,84,0,166,-18l67,33h53V-272l77,-18v-35Z" 
id="f1_2d"
transform="scale(0.001,-0.001)" />

<path d="M41,0V34L426,641H261c0,0,-42,0,-80,-7c0,0,-39,-7,-54,-19L104,515H69V701H586V665L201,60H407c0,0,42,0,89,10c0,0,47,10,66,25l39,147h35L617,0Z" 
id="f1_2m"
transform="scale(0.001,-0.001)" />

<path d="M235,0V40L394,60V936H356c0,0,-189,0,-258,-15L78,766H28v234H908V766H857L837,921c0,0,-22,5,-98,9c0,0,-75,4,-165,4H538V60L697,40V0Z" 
id="f1_1k"
transform="scale(0.001,-0.001)" />

<path d="M30,0V34L352,634H272c0,0,-41,0,-80,-7c0,0,-39,-8,-54,-19L115,492H61V701H606V664L283,67H395c0,0,43,0,90,11c0,0,47,10,66,24l40,162h54L624,0Z" 
id="f0_2m"
transform="scale(0.001,-0.001)" />

<path d="M617,0L251,860V60L385,40V0H44V40L172,60V941L44,960v40H347L672,239l355,761h287V960L1185,941V60L1314,40V0H908V40l134,20V859L643,0Z" 
id="f1_1d"
transform="scale(0.001,-0.001)" />

<path d="M477,0V33l64,19L348,354L257,254V52L331,33V0H44V33l89,19v956L29,1026v34H257V338L544,647l-73,20v34H718V667L631,650L431,446L688,50L764,33V0Z" 
id="f1_27"
transform="scale(0.001,-0.001)" />

<path d="M577,-14c0,0,-243,0,-379,131C198,117,63,248,63,488c0,0,0,263,131,393c0,0,132,130,386,130c0,0,182,0,352,-45V751H882L862,875c0,0,-52,37,-124,57c0,0,-72,19,-152,19c0,0,-191,0,-279,-113c0,0,-88,-114,-88,-348c0,0,0,-220,91,-333c0,0,91,-114,269,-114c0,0,63,0,131,15c0,0,69,15,105,36V377L686,397v40h370V397L958,377V52C958,52,871,24,778,5c0,0,-93,-19,-201,-19Z" 
id="f1_17"
transform="scale(0.001,-0.001)" />

<path d="M311,-14c0,0,-94,0,-169,18C142,4,67,23,18,55L57,277h48l1,-143c0,0,25,-37,84,-63c0,0,59,-26,126,-26c0,0,122,0,188,58c0,0,66,58,66,162c0,0,0,40,-18,70c0,0,-18,30,-48,54c0,0,-30,23,-67,44c0,0,-38,20,-77,40c0,0,-40,21,-78,44c0,0,-37,24,-67,55c0,0,-30,31,-48,71c0,0,-18,40,-18,94c0,0,0,133,90,204c0,0,91,70,259,70c0,0,128,0,241,-28L703,774H654l-4,128c0,0,-23,20,-66,33c0,0,-42,13,-98,13c0,0,-99,0,-153,-48c0,0,-53,-48,-53,-136c0,0,0,-47,33,-85c0,0,34,-39,100,-73c0,0,102,-53,146,-80c0,0,45,-28,75,-59c0,0,31,-31,49,-72c0,0,18,-40,18,-92c0,0,0,-154,-100,-236c0,0,-100,-81,-290,-81Z" 
id="f2_1j"
transform="scale(0.001,-0.001)" />

<path d="M188,355c0,0,148,11,236,69c0,0,89,58,89,143c0,0,0,41,-23,68c0,0,-22,27,-66,27c0,0,-52,0,-101,-43c0,0,-49,-42,-85,-114c0,0,-36,-71,-50,-150ZM298,-14c0,0,-120,0,-186,67c0,0,-65,67,-65,193c0,0,0,125,53,232c0,0,52,108,145,175c0,0,94,67,196,67c0,0,92,0,147,-42c0,0,56,-43,56,-111c0,0,0,-102,-126,-173c0,0,-125,-72,-336,-86l-3,-54c0,0,0,-95,40,-143c0,0,40,-47,118,-47c0,0,67,0,124,22c0,0,57,23,106,52l22,-32c0,0,-69,-58,-146,-89c0,0,-76,-31,-145,-31Z" 
id="f2_21"
transform="scale(0.001,-0.001)" />

<path d="M81,0L258,1008l-96,18l6,34H391L214,52L331,33L325,0Z" 
id="f2_28"
transform="scale(0.001,-0.001)" />

<path d="M301,78c0,0,85,0,185,104l81,442c0,0,-29,20,-55,28c0,0,-25,8,-62,8c0,0,-75,0,-137,-56c0,0,-62,-56,-98,-152c0,0,-36,-95,-36,-199c0,0,0,-79,33,-127c0,0,33,-48,89,-48ZM245,-14c0,0,-90,0,-145,66c0,0,-54,66,-54,182c0,0,0,131,57,244c0,0,57,114,152,178c0,0,96,64,208,64c0,0,90,0,170,-33l33,26h40L589,52L673,33L667,0H454l22,117C476,117,350,-14,245,-14Z" 
id="f2_1x"
transform="scale(0.001,-0.001)" />

<path d="M312,78c0,0,42,0,93,28c0,0,51,27,99,76l82,460c0,0,-18,5,-32,9c0,0,-14,3,-28,6c0,0,-14,2,-29,3c0,0,-16,1,-36,1c0,0,-75,0,-139,-56c0,0,-64,-56,-100,-150c0,0,-37,-95,-37,-202c0,0,0,-80,33,-127c0,0,33,-48,94,-48ZM249,-325c0,0,-65,0,-136,16c0,0,-70,15,-112,37l13,170H48l27,-93c0,0,60,-59,173,-59c0,0,91,0,145,47c0,0,54,48,72,152l29,175c0,0,-54,-59,-120,-97c0,0,-66,-37,-119,-37c0,0,-95,0,-149,66c0,0,-55,67,-55,182c0,0,0,131,58,243c0,0,57,112,154,177c0,0,97,66,211,66c0,0,45,0,117,-9c0,0,72,-9,128,-22L594,-25c0,0,-28,-158,-108,-229c0,0,-80,-71,-237,-71Z" 
id="f2_23"
transform="scale(0.001,-0.001)" />

<path d="M85,0L199,649l-96,19l6,33H332L218,52L335,33L329,0ZM297,849c0,0,-33,0,-57,24c0,0,-24,24,-24,57c0,0,0,33,24,57c0,0,24,24,57,24c0,0,33,0,57,-24c0,0,24,-24,24,-57c0,0,0,-33,-24,-57c0,0,-24,-24,-57,-24Z" 
id="f2_25"
transform="scale(0.001,-0.001)" />

<path d="M54,0L169,649L81,668l6,33H294L274,558c0,0,62,81,130,121c0,0,67,41,132,41c0,0,75,0,113,-41c0,0,38,-41,38,-117c0,0,0,-10,-3,-32c0,0,-3,-21,-81,-478L700,34L695,0H470l76,434c0,0,17,94,17,123c0,0,0,34,-18,55c0,0,-18,21,-56,21c0,0,-56,0,-121,-47c0,0,-65,-47,-108,-117L178,0Z" 
id="f2_2a"
transform="scale(0.001,-0.001)" />

<path d="M246,-14L105,649L21,668l7,33H219L327,155L512,458c0,0,48,78,48,144c0,0,0,28,-15,44c0,0,-16,16,-34,22l6,33H659c0,0,19,-17,19,-47c0,0,0,-66,-62,-164L301,-14Z" 
id="f2_2i"
transform="scale(0.001,-0.001)" />

<path d="M435,0V856c0,0,-48,-47,-127,-93c0,0,-79,-46,-142,-69V824c0,0,113,52,197,128c0,0,85,75,120,146h86V0Z" 
id="f3_l"
transform="scale(0.001,-0.001)" />

<path d="M46,0c0,0,-2,48,16,93c0,0,27,74,88,146c0,0,61,71,176,165c0,0,178,146,241,232c0,0,63,85,63,161c0,0,0,80,-57,135c0,0,-58,55,-149,55c0,0,-98,0,-156,-59c0,0,-58,-58,-59,-160L71,782c0,0,15,154,107,235c0,0,93,81,249,81c0,0,157,0,249,-87c0,0,92,-88,92,-217c0,0,0,-65,-27,-129c0,0,-27,-63,-89,-133c0,0,-62,-70,-207,-193C445,339,324,238,290,202c0,0,-35,-36,-57,-73H770V0Z" 
id="f3_m"
transform="scale(0.001,-0.001)" />


</defs>
</svg>