<?xml version="1.0" encoding="UTF-8" standalone="no"?>
<!DOCTYPE svg PUBLIC "-//W3C//DTD SVG 1.1//EN"
"http://www.w3.org/Graphics/SVG/1.1/DTD/svg11.dtd">
<svg viewBox="0 0 909 1286" version="1.1" xmlns="http://www.w3.org/2000/svg" xmlns:xlink="http://www.w3.org/1999/xlink">
<defs>
<clipPath id="c0_36"><path d="M0,1286.3V0H909.3V1286.3Z" /></clipPath>
</defs>
<g clip-path="url(#c0_36)">
<g fill="#000000" >
<use xlink:href="#f0_1c" transform="matrix(12,0,0,12,55,72.3)" />
<use xlink:href="#f0_1x" transform="matrix(12,0,0,12,66,72.3)" />
<use xlink:href="#f0_2e" transform="matrix(12,0,0,12,74.1,72.3)" />
<use xlink:href="#f0_23" transform="matrix(12,0,0,12,80.3,72.3)" />
<use xlink:href="#f0_21" transform="matrix(12,0,0,12,89.5,72.3)" />
<use xlink:href="#f0_2f" transform="matrix(12,0,0,12,97.6,72.3)" />
<use xlink:href="#f0_2g" transform="matrix(12,0,0,12,104.5,72.3)" />
<use xlink:href="#f0_23" transform="matrix(12,0,0,12,114.7,72.3)" />
<use xlink:href="#f0_2l" transform="matrix(12,0,0,12,123.9,72.3)" />
<use xlink:href="#f0_29" transform="matrix(12,0,0,12,132.7,72.3)" />
<use xlink:href="#f0_2a" transform="matrix(12,0,0,12,146.6,72.3)" />
<use xlink:href="#f0_2b" transform="matrix(12,0,0,12,155.4,72.3)" />
<use xlink:href="#f0_2f" transform="matrix(12,0,0,12,165.3,72.3)" />
<use xlink:href="#f0_2c" transform="matrix(12,0,0,12,172.3,72.3)" />
<use xlink:href="#f0_21" transform="matrix(12,0,0,12,181.5,72.3)" />
<use xlink:href="#f0_2e" transform="matrix(12,0,0,12,189.5,72.3)" />
<use xlink:href="#f0_29" transform="matrix(12,0,0,12,196.1,72.3)" />
<use xlink:href="#f0_h" transform="matrix(12,0,0,12,209.8,72.3)" />
<use xlink:href="#f1_1j" transform="matrix(12,0,0,12,220.8,72.3)" />
<use xlink:href="#f1_21" transform="matrix(12,0,0,12,230,72.3)" />
<use xlink:href="#f1_2d" transform="matrix(12,0,0,12,238,72.3)" />
<use xlink:href="#f1_2h" transform="matrix(12,0,0,12,247.2,72.3)" />
<use xlink:href="#f1_2b" transform="matrix(12,0,0,12,256.4,72.3)" />
<use xlink:href="#f1_25" transform="matrix(12,0,0,12,265.5,72.3)" />
<use xlink:href="#f1_1x" transform="matrix(12,0,0,12,270.6,72.3)" />
<use xlink:href="#f0_1j" transform="matrix(12,0,0,12,55,108.6)" />
<use xlink:href="#f0_29" transform="matrix(12,0,0,12,65.7,108.6)" />
<use xlink:href="#f0_1x" transform="matrix(12,0,0,12,79.2,108.6)" />
<use xlink:href="#f0_28" transform="matrix(12,0,0,12,87.6,108.6)" />
<use xlink:href="#f0_28" transform="matrix(12,0,0,12,92.7,108.6)" />
<use xlink:href="#f0_21" transform="matrix(12,0,0,12,97.5,108.6)" />
<use xlink:href="#f0_2f" transform="matrix(12,0,0,12,105.6,108.6)" />
<use xlink:href="#f0_2g" transform="matrix(12,0,0,12,112.6,108.6)" />
<use xlink:href="#f0_23" transform="matrix(12,0,0,12,122.8,108.6)" />
<use xlink:href="#f0_2l" transform="matrix(12,0,0,12,132.3,108.6)" />
<use xlink:href="#f0_29" transform="matrix(12,0,0,12,141.1,108.6)" />
<use xlink:href="#f0_2a" transform="matrix(12,0,0,12,155,108.6)" />
<use xlink:href="#f0_2b" transform="matrix(12,0,0,12,163.8,108.6)" />
<use xlink:href="#f0_2f" transform="matrix(12,0,0,12,173.4,108.6)" />
<use xlink:href="#f0_2c" transform="matrix(12,0,0,12,180.3,108.6)" />
<use xlink:href="#f0_21" transform="matrix(12,0,0,12,189.5,108.6)" />
<use xlink:href="#f0_2e" transform="matrix(12,0,0,12,197.6,108.6)" />
<use xlink:href="#f0_29" transform="matrix(12,0,0,12,204.1,108.6)" />
<use xlink:href="#f0_h" transform="matrix(12,0,0,12,217.9,108.6)" />
<use xlink:href="#f1_1q" transform="matrix(12,0,0,12,228.9,108.6)" />
<use xlink:href="#f1_1x" transform="matrix(12,0,0,12,239.1,108.6)" />
<use xlink:href="#f1_29" transform="matrix(12,0,0,12,248.3,108.6)" />
<use xlink:href="#f1_25" transform="matrix(12,0,0,12,261.5,108.6)" />
<use xlink:href="#f1_1x" transform="matrix(12,0,0,12,266.6,108.6)" />
<use xlink:href="#f0_17" transform="matrix(12,0,0,12,55,144.9)" />
<use xlink:href="#f0_2l" transform="matrix(12,0,0,12,68.6,144.9)" />
<use xlink:href="#f0_29" transform="matrix(12,0,0,12,77.4,144.9)" />
<use xlink:href="#f0_2a" transform="matrix(12,0,0,12,91.3,144.9)" />
<use xlink:href="#f0_2b" transform="matrix(12,0,0,12,100.1,144.9)" />
<use xlink:href="#f0_2f" transform="matrix(12,0,0,12,109.6,144.9)" />
<use xlink:href="#f0_2c" transform="matrix(12,0,0,12,116.6,144.9)" />
<use xlink:href="#f0_21" transform="matrix(12,0,0,12,126.1,144.9)" />
<use xlink:href="#f0_2e" transform="matrix(12,0,0,12,134.2,144.9)" />
<use xlink:href="#f0_29" transform="matrix(12,0,0,12,140.8,144.9)" />
<use xlink:href="#f0_2j" transform="matrix(12,0,0,12,159.1,144.9)" />
<use xlink:href="#f0_25" transform="matrix(12,0,0,12,172.6,144.9)" />
<use xlink:href="#f0_2g" transform="matrix(12,0,0,12,177,144.9)" />
<use xlink:href="#f0_24" transform="matrix(12,0,0,12,182.9,144.9)" />
<use xlink:href="#f0_2k" transform="matrix(12,0,0,12,196.4,144.9)" />
<use xlink:href="#f0_2l" transform="matrix(12,0,0,12,205.6,144.9)" />
<use xlink:href="#f0_28" transform="matrix(12,0,0,12,214.8,144.9)" />
<use xlink:href="#f0_21" transform="matrix(12,0,0,12,219.5,144.9)" />
<use xlink:href="#f0_29" transform="matrix(12,0,0,12,227.9,144.9)" />
<use xlink:href="#f0_2i" transform="matrix(12,0,0,12,246.6,144.9)" />
<use xlink:href="#f0_21" transform="matrix(12,0,0,12,255.8,144.9)" />
<use xlink:href="#f0_2f" transform="matrix(12,0,0,12,263.9,144.9)" />
<use xlink:href="#f0_2f" transform="matrix(12,0,0,12,271.2,144.9)" />
<use xlink:href="#f0_21" transform="matrix(12,0,0,12,278.1,144.9)" />
<use xlink:href="#f0_28" transform="matrix(12,0,0,12,286.6,144.9)" />
<use xlink:href="#f0_2f" transform="matrix(12,0,0,12,291.3,144.9)" />
<use xlink:href="#f0_h" transform="matrix(12,0,0,12,298.6,144.9)" />
<use xlink:href="#f1_15" transform="matrix(12,0,0,12,309.6,144.9)" />
<use xlink:href="#f1_2c" transform="matrix(12,0,0,12,320.9,144.9)" />
<use xlink:href="#f1_24" transform="matrix(12,0,0,12,330.1,144.9)" />
<use xlink:href="#f1_21" transform="matrix(12,0,0,12,339.3,144.9)" />
<use xlink:href="#f1_20" transform="matrix(12,0,0,12,347.3,144.9)" />
<use xlink:href="#f1_2e" transform="matrix(12,0,0,12,356.5,144.9)" />
<use xlink:href="#f1_1x" transform="matrix(12,0,0,12,363.5,144.9)" />
<use xlink:href="#f1_g" transform="matrix(12,0,0,12,372.6,144.9)" />
<use xlink:href="#f1_17" transform="matrix(12,0,0,12,382.1,144.9)" />
<use xlink:href="#f1_2a" transform="matrix(12,0,0,12,395.4,144.9)" />
<use xlink:href="#f1_21" transform="matrix(12,0,0,12,404.5,144.9)" />
<use xlink:href="#f1_2g" transform="matrix(12,0,0,12,412.6,144.9)" />
<use xlink:href="#f1_2h" transform="matrix(12,0,0,12,417.6,144.9)" />
<use xlink:href="#f1_29" transform="matrix(12,0,0,12,426.8,144.9)" />
<use xlink:href="#f0_i" transform="matrix(12,0,0,12,440.2,144.9)" />
<use xlink:href="#f2_n" transform="matrix(12,0,0,12,55,181.2)" />
<use xlink:href="#f2_i" transform="matrix(12,0,0,12,64.2,181.2)" />
<use xlink:href="#f2_p" transform="matrix(12,0,0,12,69,181.2)" />
<use xlink:href="#f2_11" transform="matrix(12,0,0,12,82.9,181.2)" />
<use xlink:href="#f2_1e" transform="matrix(12,0,0,12,96.1,181.2)" />
<use xlink:href="#f2_17" transform="matrix(12,0,0,12,109.3,181.2)" />
<use xlink:href="#f2_19" transform="matrix(12,0,0,12,123.6,181.2)" />
<use xlink:href="#f2_1f" transform="matrix(12,0,0,12,130.6,181.2)" />
<use xlink:href="#f2_1j" transform="matrix(12,0,0,12,144.8,181.2)" />
<use xlink:href="#f2_1g" transform="matrix(12,0,0,12,155.1,181.2)" />
<use xlink:href="#f2_15" transform="matrix(12,0,0,12,166.1,181.2)" />
<use xlink:href="#f2_1i" transform="matrix(12,0,0,12,178.3,181.2)" />
<use xlink:href="#f2_1d" transform="matrix(12,0,0,12,191.5,181.2)" />
<use xlink:href="#f2_1j" transform="matrix(12,0,0,12,209.1,181.2)" />
<use xlink:href="#f2_u" transform="matrix(12,0,0,12,219.3,181.2)" />
<use xlink:href="#f0_11" transform="matrix(12,0,0,12,55,483.1)" />
<use xlink:href="#f0_2a" transform="matrix(12,0,0,12,68.3,483.1)" />
<use xlink:href="#f0_23" transform="matrix(12,0,0,12,77,483.1)" />
<use xlink:href="#f0_25" transform="matrix(12,0,0,12,86.6,483.1)" />
<use xlink:href="#f0_2b" transform="matrix(12,0,0,12,91,483.1)" />
<use xlink:href="#f0_2f" transform="matrix(12,0,0,12,100.5,483.1)" />
<use xlink:href="#f0_2c" transform="matrix(12,0,0,12,107.4,483.1)" />
<use xlink:href="#f0_21" transform="matrix(12,0,0,12,116.9,483.1)" />
<use xlink:href="#f0_2e" transform="matrix(12,0,0,12,125,483.1)" />
<use xlink:href="#f0_29" transform="matrix(12,0,0,12,131.6,483.1)" />
<use xlink:href="#f0_2f" transform="matrix(12,0,0,12,145.5,483.1)" />
<use xlink:href="#f0_1x" transform="matrix(12,0,0,12,157.2,483.1)" />
<use xlink:href="#f0_2e" transform="matrix(12,0,0,12,165.3,483.1)" />
<use xlink:href="#f0_21" transform="matrix(12,0,0,12,171.5,483.1)" />
<use xlink:href="#f0_27" transform="matrix(12,0,0,12,184.3,483.1)" />
<use xlink:href="#f0_2a" transform="matrix(12,0,0,12,193.5,483.1)" />
<use xlink:href="#f0_2b" transform="matrix(12,0,0,12,202.3,483.1)" />
<use xlink:href="#f0_2j" transform="matrix(12,0,0,12,211.8,483.1)" />
<use xlink:href="#f0_2a" transform="matrix(12,0,0,12,225.1,483.1)" />
<use xlink:href="#f0_1x" transform="matrix(12,0,0,12,238.6,483.1)" />
<use xlink:href="#f0_2f" transform="matrix(12,0,0,12,246.6,483.1)" />
<use xlink:href="#f0_22" transform="matrix(12,0,0,12,259,483.1)" />
<use xlink:href="#f0_28" transform="matrix(12,0,0,12,264.8,483.1)" />
<use xlink:href="#f0_2b" transform="matrix(12,0,0,12,269.2,483.1)" />
<use xlink:href="#f0_2j" transform="matrix(12,0,0,12,278.8,483.1)" />
<use xlink:href="#f0_21" transform="matrix(12,0,0,12,292,483.1)" />
<use xlink:href="#f0_2e" transform="matrix(12,0,0,12,300,483.1)" />
<use xlink:href="#f0_25" transform="matrix(12,0,0,12,306.6,483.1)" />
<use xlink:href="#f0_2a" transform="matrix(12,0,0,12,311.4,483.1)" />
<use xlink:href="#f0_23" transform="matrix(12,0,0,12,320.5,483.1)" />
<use xlink:href="#f0_2c" transform="matrix(12,0,0,12,334.5,483.1)" />
<use xlink:href="#f0_28" transform="matrix(12,0,0,12,344,483.1)" />
<use xlink:href="#f0_1x" transform="matrix(12,0,0,12,348.4,483.1)" />
<use xlink:href="#f0_2a" transform="matrix(12,0,0,12,356.8,483.1)" />
<use xlink:href="#f0_2g" transform="matrix(12,0,0,12,365.6,483.1)" />
<use xlink:href="#f0_2f" transform="matrix(12,0,0,12,371.1,483.1)" />
<use xlink:href="#f0_1x" transform="matrix(12,0,0,12,382.8,483.1)" />
<use xlink:href="#f0_2a" transform="matrix(12,0,0,12,390.8,483.1)" />
<use xlink:href="#f0_20" transform="matrix(12,0,0,12,399.6,483.1)" />
<use xlink:href="#f2_24" transform="matrix(12,0,0,12,413.8,483.1)" />
<use xlink:href="#f2_1x" transform="matrix(12,0,0,12,424.4,483.1)" />
<use xlink:href="#f2_2i" transform="matrix(12,0,0,12,433.5,483.1)" />
<use xlink:href="#f2_21" transform="matrix(12,0,0,12,442.7,483.1)" />
<use xlink:href="#f2_1z" transform="matrix(12,0,0,12,455.6,483.1)" />
<use xlink:href="#f2_2b" transform="matrix(12,0,0,12,463.7,483.1)" />
<use xlink:href="#f2_2i" transform="matrix(12,0,0,12,472.8,483.1)" />
<use xlink:href="#f2_21" transform="matrix(12,0,0,12,482,483.1)" />
<use xlink:href="#f2_2e" transform="matrix(12,0,0,12,490.1,483.1)" />
<use xlink:href="#f2_21" transform="matrix(12,0,0,12,497.8,483.1)" />
<use xlink:href="#f2_20" transform="matrix(12,0,0,12,505.8,483.1)" />
<use xlink:href="#f2_2f" transform="matrix(12,0,0,12,520.8,483.1)" />
<use xlink:href="#f2_21" transform="matrix(12,0,0,12,527.8,483.1)" />
<use xlink:href="#f2_21" transform="matrix(12,0,0,12,536.2,483.1)" />
<use xlink:href="#f2_20" transform="matrix(12,0,0,12,544.3,483.1)" />
<use xlink:href="#f2_2f" transform="matrix(12,0,0,12,554.5,483.1)" />
<use xlink:href="#f0_i" transform="matrix(12,0,0,12,561.6,483.1)" />
<use xlink:href="#f0_1k" transform="matrix(12,0,0,12,55,519.7)" />
<use xlink:href="#f0_24" transform="matrix(12,0,0,12,66.4,519.7)" />
<use xlink:href="#f0_21" transform="matrix(12,0,0,12,75.2,519.7)" />
<use xlink:href="#f0_2l" transform="matrix(12,0,0,12,83.6,519.7)" />
<use xlink:href="#f0_1x" transform="matrix(12,0,0,12,96.8,519.7)" />
<use xlink:href="#f0_2e" transform="matrix(12,0,0,12,104.8,519.7)" />
<use xlink:href="#f0_21" transform="matrix(12,0,0,12,111.1,519.7)" />
<use xlink:href="#f0_20" transform="matrix(12,0,0,12,124,519.7)" />
<use xlink:href="#f0_25" transform="matrix(12,0,0,12,133.5,519.7)" />
<use xlink:href="#f0_2i" transform="matrix(12,0,0,12,138.3,519.7)" />
<use xlink:href="#f0_25" transform="matrix(12,0,0,12,147.8,519.7)" />
<use xlink:href="#f0_20" transform="matrix(12,0,0,12,152.6,519.7)" />
<use xlink:href="#f0_21" transform="matrix(12,0,0,12,161.7,519.7)" />
<use xlink:href="#f0_20" transform="matrix(12,0,0,12,169.8,519.7)" />
<use xlink:href="#f0_25" transform="matrix(12,0,0,12,184.1,519.7)" />
<use xlink:href="#f0_2a" transform="matrix(12,0,0,12,188.8,519.7)" />
<use xlink:href="#f0_2g" transform="matrix(12,0,0,12,197.6,519.7)" />
<use xlink:href="#f0_2b" transform="matrix(12,0,0,12,203.1,519.7)" />
<use xlink:href="#f0_2g" transform="matrix(12,0,0,12,216.7,519.7)" />
<use xlink:href="#f0_2j" transform="matrix(12,0,0,12,222.2,519.7)" />
<use xlink:href="#f0_2b" transform="matrix(12,0,0,12,235,519.7)" />
<use xlink:href="#f0_1z" transform="matrix(12,0,0,12,249.3,519.7)" />
<use xlink:href="#f0_28" transform="matrix(12,0,0,12,257.3,519.7)" />
<use xlink:href="#f0_1x" transform="matrix(12,0,0,12,261.7,519.7)" />
<use xlink:href="#f0_2f" transform="matrix(12,0,0,12,270.1,519.7)" />
<use xlink:href="#f0_2f" transform="matrix(12,0,0,12,277.1,519.7)" />
<use xlink:href="#f0_21" transform="matrix(12,0,0,12,284.1,519.7)" />
<use xlink:href="#f0_2f" transform="matrix(12,0,0,12,292.5,519.7)" />
<use xlink:href="#f3_4y" transform="matrix(12,0,0,12,304.4,519.7)" />
<use xlink:href="#f4_3d" transform="matrix(12,0,0,12,82.5,557.1)" />
<use xlink:href="#f0_l" transform="matrix(12,0,0,12,110,557.1)" />
<use xlink:href="#f0_i" transform="matrix(12,0,0,12,119.2,557.1)" />
<use xlink:href="#f0_14" transform="matrix(12,0,0,12,124,557.1)" />
<use xlink:href="#f0_25" transform="matrix(12,0,0,12,137.2,557.1)" />
<use xlink:href="#f0_1z" transform="matrix(12,0,0,12,141.9,557.1)" />
<use xlink:href="#f0_2b" transform="matrix(12,0,0,12,150,557.1)" />
<use xlink:href="#f0_2g" transform="matrix(12,0,0,12,159.5,557.1)" />
<use xlink:href="#f0_2l" transform="matrix(12,0,0,12,165,557.1)" />
<use xlink:href="#f0_28" transform="matrix(12,0,0,12,173.8,557.1)" />
<use xlink:href="#f0_21" transform="matrix(12,0,0,12,178.6,557.1)" />
<use xlink:href="#f0_20" transform="matrix(12,0,0,12,186.7,557.1)" />
<use xlink:href="#f0_2b" transform="matrix(12,0,0,12,195.9,557.1)" />
<use xlink:href="#f0_2a" transform="matrix(12,0,0,12,205.4,557.1)" />
<use xlink:href="#f0_2f" transform="matrix(12,0,0,12,214.2,557.1)" />
<use xlink:href="#f0_c" transform="matrix(12,0,0,12,225.9,557.1)" />
<use xlink:href="#f0_24" transform="matrix(12,0,0,12,232.1,557.1)" />
<use xlink:href="#f0_1x" transform="matrix(12,0,0,12,240.9,557.1)" />
<use xlink:href="#f0_2i" transform="matrix(12,0,0,12,249.3,557.1)" />
<use xlink:href="#f0_21" transform="matrix(12,0,0,12,258.5,557.1)" />
<use xlink:href="#f0_2g" transform="matrix(12,0,0,12,271.3,557.1)" />
<use xlink:href="#f0_2j" transform="matrix(12,0,0,12,276.8,557.1)" />
<use xlink:href="#f0_2b" transform="matrix(12,0,0,12,289.6,557.1)" />
<use xlink:href="#f0_1z" transform="matrix(12,0,0,12,303.9,557.1)" />
<use xlink:href="#f0_2b" transform="matrix(12,0,0,12,311.6,557.1)" />
<use xlink:href="#f0_2g" transform="matrix(12,0,0,12,320.8,557.1)" />
<use xlink:href="#f0_2l" transform="matrix(12,0,0,12,326.2,557.1)" />
<use xlink:href="#f0_28" transform="matrix(12,0,0,12,335,557.1)" />
<use xlink:href="#f0_21" transform="matrix(12,0,0,12,339.8,557.1)" />
<use xlink:href="#f0_20" transform="matrix(12,0,0,12,347.9,557.1)" />
<use xlink:href="#f0_2b" transform="matrix(12,0,0,12,357,557.1)" />
<use xlink:href="#f0_2a" transform="matrix(12,0,0,12,366.6,557.1)" />
<use xlink:href="#f0_2f" transform="matrix(12,0,0,12,375.4,557.1)" />
<use xlink:href="#f0_d" transform="matrix(12,0,0,12,382.3,557.1)" />
<use xlink:href="#f4_3d" transform="matrix(12,0,0,12,82.5,579.5)" />
<use xlink:href="#f0_m" transform="matrix(12,0,0,12,110,579.5)" />
<use xlink:href="#f0_i" transform="matrix(12,0,0,12,119.2,579.5)" />
<use xlink:href="#f0_1d" transform="matrix(12,0,0,12,128.7,579.5)" />
<use xlink:href="#f0_2b" transform="matrix(12,0,0,12,144.5,579.5)" />
<use xlink:href="#f0_2a" transform="matrix(12,0,0,12,154,579.5)" />
<use xlink:href="#f0_2b" transform="matrix(12,0,0,12,162.8,579.5)" />
<use xlink:href="#f0_1z" transform="matrix(12,0,0,12,172.3,579.5)" />
<use xlink:href="#f0_2b" transform="matrix(12,0,0,12,180.4,579.5)" />
<use xlink:href="#f0_2g" transform="matrix(12,0,0,12,189.6,579.5)" />
<use xlink:href="#f0_2l" transform="matrix(12,0,0,12,195,579.5)" />
<use xlink:href="#f0_28" transform="matrix(12,0,0,12,203.8,579.5)" />
<use xlink:href="#f0_21" transform="matrix(12,0,0,12,208.6,579.5)" />
<use xlink:href="#f0_20" transform="matrix(12,0,0,12,216.7,579.5)" />
<use xlink:href="#f0_2b" transform="matrix(12,0,0,12,225.8,579.5)" />
<use xlink:href="#f0_2a" transform="matrix(12,0,0,12,235.4,579.5)" />
<use xlink:href="#f0_2f" transform="matrix(12,0,0,12,244.2,579.5)" />
<use xlink:href="#f0_c" transform="matrix(12,0,0,12,255.9,579.5)" />
<use xlink:href="#f0_24" transform="matrix(12,0,0,12,262.3,579.5)" />
<use xlink:href="#f0_1x" transform="matrix(12,0,0,12,271.1,579.5)" />
<use xlink:href="#f0_2i" transform="matrix(12,0,0,12,279.5,579.5)" />
<use xlink:href="#f0_21" transform="matrix(12,0,0,12,288.7,579.5)" />
<use xlink:href="#f0_2b" transform="matrix(12,0,0,12,301.5,579.5)" />
<use xlink:href="#f0_2a" transform="matrix(12,0,0,12,311,579.5)" />
<use xlink:href="#f0_21" transform="matrix(12,0,0,12,319.8,579.5)" />
<use xlink:href="#f0_1z" transform="matrix(12,0,0,12,332.6,579.5)" />
<use xlink:href="#f0_2b" transform="matrix(12,0,0,12,340.7,579.5)" />
<use xlink:href="#f0_2g" transform="matrix(12,0,0,12,349.8,579.5)" />
<use xlink:href="#f0_2l" transform="matrix(12,0,0,12,355.3,579.5)" />
<use xlink:href="#f0_28" transform="matrix(12,0,0,12,364.1,579.5)" />
<use xlink:href="#f0_21" transform="matrix(12,0,0,12,368.9,579.5)" />
<use xlink:href="#f0_20" transform="matrix(12,0,0,12,376.9,579.5)" />
<use xlink:href="#f0_2b" transform="matrix(12,0,0,12,386.1,579.5)" />
<use xlink:href="#f0_2a" transform="matrix(12,0,0,12,395.6,579.5)" />
<use xlink:href="#f0_d" transform="matrix(12,0,0,12,404.4,579.5)" />
<use xlink:href="#f0_i" transform="matrix(12,0,0,12,410.6,579.5)" />
<use xlink:href="#f0_1j" transform="matrix(12,0,0,12,55,615.8)" />
<use xlink:href="#f0_29" transform="matrix(12,0,0,12,65.7,615.8)" />
<use xlink:href="#f0_1x" transform="matrix(12,0,0,12,79.2,615.8)" />
<use xlink:href="#f0_28" transform="matrix(12,0,0,12,87.6,615.8)" />
<use xlink:href="#f0_28" transform="matrix(12,0,0,12,92.7,615.8)" />
<use xlink:href="#f0_21" transform="matrix(12,0,0,12,97.5,615.8)" />
<use xlink:href="#f0_2f" transform="matrix(12,0,0,12,105.6,615.8)" />
<use xlink:href="#f0_2g" transform="matrix(12,0,0,12,112.6,615.8)" />
<use xlink:href="#f0_1x" transform="matrix(12,0,0,12,122.8,615.8)" />
<use xlink:href="#f0_2a" transform="matrix(12,0,0,12,130.9,615.8)" />
<use xlink:href="#f0_23" transform="matrix(12,0,0,12,139.7,615.8)" />
<use xlink:href="#f0_25" transform="matrix(12,0,0,12,149.2,615.8)" />
<use xlink:href="#f0_2b" transform="matrix(12,0,0,12,153.6,615.8)" />
<use xlink:href="#f0_2f" transform="matrix(12,0,0,12,163.1,615.8)" />
<use xlink:href="#f0_2c" transform="matrix(12,0,0,12,170.1,615.8)" />
<use xlink:href="#f0_21" transform="matrix(12,0,0,12,179.2,615.8)" />
<use xlink:href="#f0_2e" transform="matrix(12,0,0,12,187.3,615.8)" />
<use xlink:href="#f0_29" transform="matrix(12,0,0,12,193.9,615.8)" />
<use xlink:href="#f0_u" transform="matrix(12,0,0,12,207.8,615.8)" />
<use xlink:href="#f5_1n" transform="matrix(12,0,0,12,217.9,615.8)" />
<use xlink:href="#f5_2b" transform="matrix(12,0,0,12,234,615.8)" />
<use xlink:href="#f5_28" transform="matrix(12,0,0,12,243.2,615.8)" />
<use xlink:href="#f5_22" transform="matrix(12,0,0,12,248.3,615.8)" />
<use xlink:href="#f5_25" transform="matrix(12,0,0,12,254.5,615.8)" />
<use xlink:href="#f5_1x" transform="matrix(12,0,0,12,259.6,615.8)" />
<use xlink:href="#f0_c" transform="matrix(12,0,0,12,273.6,615.8)" />
<use xlink:href="#f0_29" transform="matrix(12,0,0,12,279.9,615.8)" />
<use xlink:href="#f0_25" transform="matrix(12,0,0,12,293.8,615.8)" />
<use xlink:href="#f0_1z" transform="matrix(12,0,0,12,298.6,615.8)" />
<use xlink:href="#f0_2e" transform="matrix(12,0,0,12,306.6,615.8)" />
<use xlink:href="#f0_2b" transform="matrix(12,0,0,12,312.8,615.8)" />
<use xlink:href="#f0_2f" transform="matrix(12,0,0,12,322.4,615.8)" />
<use xlink:href="#f0_1z" transform="matrix(12,0,0,12,329.3,615.8)" />
<use xlink:href="#f0_2b" transform="matrix(12,0,0,12,337.4,615.8)" />
<use xlink:href="#f0_2c" transform="matrix(12,0,0,12,346.9,615.8)" />
<use xlink:href="#f0_25" transform="matrix(12,0,0,12,356.1,615.8)" />
<use xlink:href="#f0_1z" transform="matrix(12,0,0,12,360.8,615.8)" />
<use xlink:href="#f0_d" transform="matrix(12,0,0,12,368.9,615.8)" />
<use xlink:href="#f0_i" transform="matrix(12,0,0,12,375.1,615.8)" />
<use xlink:href="#f0_1c" transform="matrix(12,0,0,12,55,636.7)" />
<use xlink:href="#f0_1x" transform="matrix(12,0,0,12,66,636.7)" />
<use xlink:href="#f0_2e" transform="matrix(12,0,0,12,74.1,636.7)" />
<use xlink:href="#f0_23" transform="matrix(12,0,0,12,80.3,636.7)" />
<use xlink:href="#f0_21" transform="matrix(12,0,0,12,89.5,636.7)" />
<use xlink:href="#f0_2g" transform="matrix(12,0,0,12,102.3,636.7)" />
<use xlink:href="#f0_2e" transform="matrix(12,0,0,12,107.8,636.7)" />
<use xlink:href="#f0_21" transform="matrix(12,0,0,12,114,636.7)" />
<use xlink:href="#f0_21" transform="matrix(12,0,0,12,122.1,636.7)" />
<use xlink:href="#f0_u" transform="matrix(12,0,0,12,130.1,636.7)" />
<use xlink:href="#f5_15" transform="matrix(12,0,0,12,139.7,636.7)" />
<use xlink:href="#f5_2h" transform="matrix(12,0,0,12,151.8,636.7)" />
<use xlink:href="#f5_1z" transform="matrix(12,0,0,12,162.1,636.7)" />
<use xlink:href="#f5_1x" transform="matrix(12,0,0,12,170.2,636.7)" />
<use xlink:href="#f5_28" transform="matrix(12,0,0,12,179.3,636.7)" />
<use xlink:href="#f5_2l" transform="matrix(12,0,0,12,184.4,636.7)" />
<use xlink:href="#f5_2c" transform="matrix(12,0,0,12,192.6,636.7)" />
<use xlink:href="#f5_2g" transform="matrix(12,0,0,12,201.7,636.7)" />
<use xlink:href="#f5_2h" transform="matrix(12,0,0,12,206.8,636.7)" />
<use xlink:href="#f5_2f" transform="matrix(12,0,0,12,217.1,636.7)" />
<use xlink:href="#f0_2b" transform="matrix(12,0,0,12,228.5,636.7)" />
<use xlink:href="#f0_2i" transform="matrix(12,0,0,12,238,636.7)" />
<use xlink:href="#f0_21" transform="matrix(12,0,0,12,246.8,636.7)" />
<use xlink:href="#f0_2e" transform="matrix(12,0,0,12,254.9,636.7)" />
<use xlink:href="#f0_l" transform="matrix(12,0,0,12,265.9,636.7)" />
<use xlink:href="#f0_k" transform="matrix(12,0,0,12,275,636.7)" />
<use xlink:href="#f0_k" transform="matrix(12,0,0,12,284.2,636.7)" />
<use xlink:href="#f0_29" transform="matrix(12,0,0,12,298.1,636.7)" />
<use xlink:href="#f0_21" transform="matrix(12,0,0,12,311.7,636.7)" />
<use xlink:href="#f0_2g" transform="matrix(12,0,0,12,319.7,636.7)" />
<use xlink:href="#f0_21" transform="matrix(12,0,0,12,325.2,636.7)" />
<use xlink:href="#f0_2e" transform="matrix(12,0,0,12,333.3,636.7)" />
<use xlink:href="#f0_2f" transform="matrix(12,0,0,12,339.5,636.7)" />
<use xlink:href="#f0_i" transform="matrix(12,0,0,12,346.5,636.7)" />
<use xlink:href="#f0_1i" transform="matrix(12,0,0,12,55,658)" />
<use xlink:href="#f0_21" transform="matrix(12,0,0,12,67.1,658)" />
<use xlink:href="#f0_2c" transform="matrix(12,0,0,12,75.2,658)" />
<use xlink:href="#f0_2e" transform="matrix(12,0,0,12,84.4,658)" />
<use xlink:href="#f0_2b" transform="matrix(12,0,0,12,90.6,658)" />
<use xlink:href="#f0_20" transform="matrix(12,0,0,12,100.1,658)" />
<use xlink:href="#f0_2h" transform="matrix(12,0,0,12,109.3,658)" />
<use xlink:href="#f0_1z" transform="matrix(12,0,0,12,118.4,658)" />
<use xlink:href="#f0_2g" transform="matrix(12,0,0,12,126.1,658)" />
<use xlink:href="#f0_25" transform="matrix(12,0,0,12,131.6,658)" />
<use xlink:href="#f0_2i" transform="matrix(12,0,0,12,136.4,658)" />
<use xlink:href="#f0_21" transform="matrix(12,0,0,12,145.2,658)" />
<use xlink:href="#f0_2b" transform="matrix(12,0,0,12,158,658)" />
<use xlink:href="#f0_2e" transform="matrix(12,0,0,12,167.5,658)" />
<use xlink:href="#f0_23" transform="matrix(12,0,0,12,173.7,658)" />
<use xlink:href="#f0_1x" transform="matrix(12,0,0,12,182.9,658)" />
<use xlink:href="#f0_2a" transform="matrix(12,0,0,12,191,658)" />
<use xlink:href="#f0_2f" transform="matrix(12,0,0,12,199.8,658)" />
<use xlink:href="#f0_20" transform="matrix(12,0,0,12,211.5,658)" />
<use xlink:href="#f0_21" transform="matrix(12,0,0,12,220.6,658)" />
<use xlink:href="#f0_2i" transform="matrix(12,0,0,12,229.1,658)" />
<use xlink:href="#f0_21" transform="matrix(12,0,0,12,237.9,658)" />
<use xlink:href="#f0_28" transform="matrix(12,0,0,12,246.3,658)" />
<use xlink:href="#f0_2b" transform="matrix(12,0,0,12,250.7,658)" />
<use xlink:href="#f0_2c" transform="matrix(12,0,0,12,260.2,658)" />
<use xlink:href="#f0_21" transform="matrix(12,0,0,12,269.4,658)" />
<use xlink:href="#f0_20" transform="matrix(12,0,0,12,277.4,658)" />
<use xlink:href="#f0_25" transform="matrix(12,0,0,12,291.7,658)" />
<use xlink:href="#f0_2a" transform="matrix(12,0,0,12,296.5,658)" />
<use xlink:href="#f2_22" transform="matrix(12,0,0,12,310.7,658)" />
<use xlink:href="#f2_28" transform="matrix(12,0,0,12,316.5,658)" />
<use xlink:href="#f2_2b" transform="matrix(12,0,0,12,321.3,658)" />
<use xlink:href="#f2_2j" transform="matrix(12,0,0,12,330.8,658)" />
<use xlink:href="#f2_21" transform="matrix(12,0,0,12,344.1,658)" />
<use xlink:href="#f2_2e" transform="matrix(12,0,0,12,352.4,658)" />
<use xlink:href="#f2_2f" transform="matrix(12,0,0,12,360.1,658)" />
<use xlink:href="#f0_i" transform="matrix(12,0,0,12,367.2,658)" />
<use xlink:href="#f0_1k" transform="matrix(12,0,0,12,55,678.9)" />
<use xlink:href="#f0_24" transform="matrix(12,0,0,12,66.4,678.9)" />
<use xlink:href="#f0_21" transform="matrix(12,0,0,12,75.2,678.9)" />
<use xlink:href="#f0_1d" transform="matrix(12,0,0,12,88,678.9)" />
<use xlink:href="#f0_1x" transform="matrix(12,0,0,12,104.2,678.9)" />
<use xlink:href="#f0_28" transform="matrix(12,0,0,12,112.6,678.9)" />
<use xlink:href="#f0_21" transform="matrix(12,0,0,12,117.4,678.9)" />
<use xlink:href="#f0_2f" transform="matrix(12,0,0,12,130.2,678.9)" />
<use xlink:href="#f0_21" transform="matrix(12,0,0,12,137.1,678.9)" />
<use xlink:href="#f0_2k" transform="matrix(12,0,0,12,145.5,678.9)" />
<use xlink:href="#f0_2b" transform="matrix(12,0,0,12,159.1,678.9)" />
<use xlink:href="#f0_2e" transform="matrix(12,0,0,12,168.6,678.9)" />
<use xlink:href="#f0_23" transform="matrix(12,0,0,12,174.8,678.9)" />
<use xlink:href="#f0_1x" transform="matrix(12,0,0,12,184,678.9)" />
<use xlink:href="#f0_2a" transform="matrix(12,0,0,12,192.1,678.9)" />
<use xlink:href="#f0_2f" transform="matrix(12,0,0,12,200.9,678.9)" />
<use xlink:href="#f0_25" transform="matrix(12,0,0,12,212.9,678.9)" />
<use xlink:href="#f0_2a" transform="matrix(12,0,0,12,217.7,678.9)" />
<use xlink:href="#f0_1x" transform="matrix(12,0,0,12,231.3,678.9)" />
<use xlink:href="#f0_22" transform="matrix(12,0,0,12,244.4,678.9)" />
<use xlink:href="#f0_28" transform="matrix(12,0,0,12,250.3,678.9)" />
<use xlink:href="#f0_2b" transform="matrix(12,0,0,12,254.7,678.9)" />
<use xlink:href="#f0_2j" transform="matrix(12,0,0,12,264.2,678.9)" />
<use xlink:href="#f0_21" transform="matrix(12,0,0,12,277.5,678.9)" />
<use xlink:href="#f0_2e" transform="matrix(12,0,0,12,285.5,678.9)" />
<use xlink:href="#f0_1x" transform="matrix(12,0,0,12,296.4,678.9)" />
<use xlink:href="#f0_2e" transform="matrix(12,0,0,12,304.5,678.9)" />
<use xlink:href="#f0_21" transform="matrix(12,0,0,12,310.7,678.9)" />
<use xlink:href="#f0_1z" transform="matrix(12,0,0,12,323.5,678.9)" />
<use xlink:href="#f0_1x" transform="matrix(12,0,0,12,331.6,678.9)" />
<use xlink:href="#f0_28" transform="matrix(12,0,0,12,340,678.9)" />
<use xlink:href="#f0_28" transform="matrix(12,0,0,12,344.8,678.9)" />
<use xlink:href="#f0_21" transform="matrix(12,0,0,12,349.6,678.9)" />
<use xlink:href="#f0_20" transform="matrix(12,0,0,12,357.6,678.9)" />
<use xlink:href="#f2_2f" transform="matrix(12,0,0,12,372,678.9)" />
<use xlink:href="#f2_2g" transform="matrix(12,0,0,12,378.9,678.9)" />
<use xlink:href="#f2_1x" transform="matrix(12,0,0,12,385.1,678.9)" />
<use xlink:href="#f2_29" transform="matrix(12,0,0,12,394.6,678.9)" />
<use xlink:href="#f2_21" transform="matrix(12,0,0,12,409.7,678.9)" />
<use xlink:href="#f2_2a" transform="matrix(12,0,0,12,417.7,678.9)" />
<use xlink:href="#f2_2f" transform="matrix(12,0,0,12,428,678.9)" />
<use xlink:href="#f0_2b" transform="matrix(12,0,0,12,439.8,678.9)" />
<use xlink:href="#f0_2e" transform="matrix(12,0,0,12,449.3,678.9)" />
<use xlink:href="#f0_1x" transform="matrix(12,0,0,12,459.9,678.9)" />
<use xlink:href="#f0_2a" transform="matrix(12,0,0,12,468,678.9)" />
<use xlink:href="#f0_20" transform="matrix(12,0,0,12,476.8,678.9)" />
<use xlink:href="#f0_2e" transform="matrix(12,0,0,12,486,678.9)" />
<use xlink:href="#f0_2b" transform="matrix(12,0,0,12,492.2,678.9)" />
<use xlink:href="#f0_21" transform="matrix(12,0,0,12,501.7,678.9)" />
<use xlink:href="#f0_1z" transform="matrix(12,0,0,12,509.8,678.9)" />
<use xlink:href="#f0_25" transform="matrix(12,0,0,12,517.8,678.9)" />
<use xlink:href="#f0_2h" transform="matrix(12,0,0,12,522.2,678.9)" />
<use xlink:href="#f0_29" transform="matrix(12,0,0,12,531.8,678.9)" />
<use xlink:href="#f0_i" transform="matrix(12,0,0,12,545.7,678.9)" />
<use xlink:href="#f0_19" transform="matrix(12,0,0,12,55,700.1)" />
<use xlink:href="#f0_2g" transform="matrix(12,0,0,12,61.3,700.1)" />
<use xlink:href="#f0_24" transform="matrix(12,0,0,12,70.8,700.1)" />
<use xlink:href="#f0_1x" transform="matrix(12,0,0,12,79.6,700.1)" />
<use xlink:href="#f0_2f" transform="matrix(12,0,0,12,87.7,700.1)" />
<use xlink:href="#f2_22" transform="matrix(12,0,0,12,99,700.1)" />
<use xlink:href="#f2_25" transform="matrix(12,0,0,12,104.9,700.1)" />
<use xlink:href="#f2_28" transform="matrix(12,0,0,12,110.4,700.1)" />
<use xlink:href="#f2_1x" transform="matrix(12,0,0,12,115.2,700.1)" />
<use xlink:href="#f2_29" transform="matrix(12,0,0,12,124.7,700.1)" />
<use xlink:href="#f2_21" transform="matrix(12,0,0,12,139.7,700.1)" />
<use xlink:href="#f2_2a" transform="matrix(12,0,0,12,147.8,700.1)" />
<use xlink:href="#f2_2g" transform="matrix(12,0,0,12,158,700.1)" />
<use xlink:href="#f0_1x" transform="matrix(12,0,0,12,168.7,700.1)" />
<use xlink:href="#f0_2a" transform="matrix(12,0,0,12,176.8,700.1)" />
<use xlink:href="#f0_20" transform="matrix(12,0,0,12,185.6,700.1)" />
<use xlink:href="#f2_1x" transform="matrix(12,0,0,12,199.2,700.1)" />
<use xlink:href="#f2_2a" transform="matrix(12,0,0,12,208.3,700.1)" />
<use xlink:href="#f2_2g" transform="matrix(12,0,0,12,218.6,700.1)" />
<use xlink:href="#f2_24" transform="matrix(12,0,0,12,224.8,700.1)" />
<use xlink:href="#f2_21" transform="matrix(12,0,0,12,235.1,700.1)" />
<use xlink:href="#f2_2e" transform="matrix(12,0,0,12,243.5,700.1)" />
<use xlink:href="#f0_i" transform="matrix(12,0,0,12,251.3,700.1)" />
<use xlink:href="#f0_11" transform="matrix(12,0,0,12,260.4,700.1)" />
<use xlink:href="#f0_2a" transform="matrix(12,0,0,12,273.7,700.1)" />
<use xlink:href="#f0_2g" transform="matrix(12,0,0,12,282.4,700.1)" />
<use xlink:href="#f0_24" transform="matrix(12,0,0,12,287.9,700.1)" />
<use xlink:href="#f0_21" transform="matrix(12,0,0,12,296.7,700.1)" />
<use xlink:href="#f0_2e" transform="matrix(12,0,0,12,304.8,700.1)" />
<use xlink:href="#f0_2f" transform="matrix(12,0,0,12,311,700.1)" />
<use xlink:href="#f0_2b" transform="matrix(12,0,0,12,322.4,700.1)" />
<use xlink:href="#f0_2a" transform="matrix(12,0,0,12,331.9,700.1)" />
<use xlink:href="#f0_29" transform="matrix(12,0,0,12,345.4,700.1)" />
<use xlink:href="#f0_21" transform="matrix(12,0,0,12,359.3,700.1)" />
<use xlink:href="#f0_25" transform="matrix(12,0,0,12,367.8,700.1)" />
<use xlink:href="#f0_2b" transform="matrix(12,0,0,12,372.2,700.1)" />
<use xlink:href="#f0_2f" transform="matrix(12,0,0,12,381.7,700.1)" />
<use xlink:href="#f0_25" transform="matrix(12,0,0,12,389,700.1)" />
<use xlink:href="#f0_2f" transform="matrix(12,0,0,12,393.8,700.1)" />
<use xlink:href="#f0_2c" transform="matrix(12,0,0,12,405.1,700.1)" />
<use xlink:href="#f0_2e" transform="matrix(12,0,0,12,414.3,700.1)" />
<use xlink:href="#f0_2b" transform="matrix(12,0,0,12,420.5,700.1)" />
<use xlink:href="#f0_20" transform="matrix(12,0,0,12,430,700.1)" />
<use xlink:href="#f0_2h" transform="matrix(12,0,0,12,439.2,700.1)" />
<use xlink:href="#f0_1z" transform="matrix(12,0,0,12,448.4,700.1)" />
<use xlink:href="#f0_21" transform="matrix(12,0,0,12,456.4,700.1)" />
<use xlink:href="#f2_2c" transform="matrix(12,0,0,12,469.2,700.1)" />
<use xlink:href="#f2_2b" transform="matrix(12,0,0,12,479.4,700.1)" />
<use xlink:href="#f2_28" transform="matrix(12,0,0,12,488.6,700.1)" />
<use xlink:href="#f2_28" transform="matrix(12,0,0,12,493.7,700.1)" />
<use xlink:href="#f2_21" transform="matrix(12,0,0,12,498.5,700.1)" />
<use xlink:href="#f2_2a" transform="matrix(12,0,0,12,506.5,700.1)" />
<use xlink:href="#f2_23" transform="matrix(12,0,0,12,521.2,700.1)" />
<use xlink:href="#f2_2e" transform="matrix(12,0,0,12,530.7,700.1)" />
<use xlink:href="#f2_1x" transform="matrix(12,0,0,12,538.4,700.1)" />
<use xlink:href="#f2_25" transform="matrix(12,0,0,12,547.6,700.1)" />
<use xlink:href="#f2_2a" transform="matrix(12,0,0,12,552.7,700.1)" />
<use xlink:href="#f2_2f" transform="matrix(12,0,0,12,563,700.1)" />
<use xlink:href="#f0_i" transform="matrix(12,0,0,12,570,700.1)" />
<use xlink:href="#f0_1g" transform="matrix(12,0,0,12,579.2,700.1)" />
<use xlink:href="#f0_2b" transform="matrix(12,0,0,12,589.4,700.1)" />
<use xlink:href="#f0_28" transform="matrix(12,0,0,12,598.9,700.1)" />
<use xlink:href="#f0_28" transform="matrix(12,0,0,12,603.7,700.1)" />
<use xlink:href="#f0_21" transform="matrix(12,0,0,12,608.5,700.1)" />
<use xlink:href="#f0_2a" transform="matrix(12,0,0,12,616.9,700.1)" />
<use xlink:href="#f0_23" transform="matrix(12,0,0,12,630.2,700.1)" />
<use xlink:href="#f0_2e" transform="matrix(12,0,0,12,639.4,700.1)" />
<use xlink:href="#f0_1x" transform="matrix(12,0,0,12,645.6,700.1)" />
<use xlink:href="#f0_25" transform="matrix(12,0,0,12,654,700.1)" />
<use xlink:href="#f0_2a" transform="matrix(12,0,0,12,658.8,700.1)" />
<use xlink:href="#f0_2f" transform="matrix(12,0,0,12,667.9,700.1)" />
<use xlink:href="#f0_24" transform="matrix(12,0,0,12,679.3,700.1)" />
<use xlink:href="#f0_1x" transform="matrix(12,0,0,12,688.5,700.1)" />
<use xlink:href="#f0_2i" transform="matrix(12,0,0,12,696.9,700.1)" />
<use xlink:href="#f0_21" transform="matrix(12,0,0,12,705.7,700.1)" />
<use xlink:href="#f0_2g" transform="matrix(12,0,0,12,718.1,700.1)" />
<use xlink:href="#f0_2j" transform="matrix(12,0,0,12,723.6,700.1)" />
<use xlink:href="#f0_2b" transform="matrix(12,0,0,12,736.5,700.1)" />
<use xlink:href="#f0_29" transform="matrix(12,0,0,12,750.4,700.1)" />
<use xlink:href="#f0_1x" transform="matrix(12,0,0,12,763.9,700.1)" />
<use xlink:href="#f0_28" transform="matrix(12,0,0,12,772.3,700.1)" />
<use xlink:href="#f0_21" transform="matrix(12,0,0,12,777.1,700.1)" />
<use xlink:href="#f0_23" transform="matrix(12,0,0,12,789.6,700.1)" />
<use xlink:href="#f0_1x" transform="matrix(12,0,0,12,799.1,700.1)" />
<use xlink:href="#f0_29" transform="matrix(12,0,0,12,807.5,700.1)" />
<use xlink:href="#f0_21" transform="matrix(12,0,0,12,821.1,700.1)" />
<use xlink:href="#f0_2g" transform="matrix(12,0,0,12,829.1,700.1)" />
<use xlink:href="#f0_21" transform="matrix(12,0,0,12,834.6,700.1)" />
<use xlink:href="#f0_2f" transform="matrix(12,0,0,12,842.7,700.1)" />
<use xlink:href="#f0_i" transform="matrix(12,0,0,12,849.7,700.1)" />
<use xlink:href="#f0_16" transform="matrix(12,0,0,12,55,721.1)" />
<use xlink:href="#f0_21" transform="matrix(12,0,0,12,64.9,721.1)" />
<use xlink:href="#f0_29" transform="matrix(12,0,0,12,73.4,721.1)" />
<use xlink:href="#f0_1x" transform="matrix(12,0,0,12,87.3,721.1)" />
<use xlink:href="#f0_28" transform="matrix(12,0,0,12,95.7,721.1)" />
<use xlink:href="#f0_21" transform="matrix(12,0,0,12,100.5,721.1)" />
<use xlink:href="#f0_2e" transform="matrix(12,0,0,12,113.3,721.1)" />
<use xlink:href="#f0_21" transform="matrix(12,0,0,12,119.6,721.1)" />
<use xlink:href="#f0_2c" transform="matrix(12,0,0,12,127.6,721.1)" />
<use xlink:href="#f0_2e" transform="matrix(12,0,0,12,136.8,721.1)" />
<use xlink:href="#f0_2b" transform="matrix(12,0,0,12,143,721.1)" />
<use xlink:href="#f0_20" transform="matrix(12,0,0,12,152.5,721.1)" />
<use xlink:href="#f0_2h" transform="matrix(12,0,0,12,161.7,721.1)" />
<use xlink:href="#f0_1z" transform="matrix(12,0,0,12,170.8,721.1)" />
<use xlink:href="#f0_2g" transform="matrix(12,0,0,12,178.5,721.1)" />
<use xlink:href="#f0_25" transform="matrix(12,0,0,12,184,721.1)" />
<use xlink:href="#f0_2i" transform="matrix(12,0,0,12,188.8,721.1)" />
<use xlink:href="#f0_21" transform="matrix(12,0,0,12,197.6,721.1)" />
<use xlink:href="#f0_2c" transform="matrix(12,0,0,12,210.4,721.1)" />
<use xlink:href="#f0_1x" transform="matrix(12,0,0,12,219.6,721.1)" />
<use xlink:href="#f0_2e" transform="matrix(12,0,0,12,227.6,721.1)" />
<use xlink:href="#f0_2g" transform="matrix(12,0,0,12,233.9,721.1)" />
<use xlink:href="#f0_25" transform="matrix(12,0,0,12,244.1,721.1)" />
<use xlink:href="#f0_2f" transform="matrix(12,0,0,12,248.5,721.1)" />
<use xlink:href="#f0_2g" transform="matrix(12,0,0,12,260.2,721.1)" />
<use xlink:href="#f0_24" transform="matrix(12,0,0,12,265.7,721.1)" />
<use xlink:href="#f0_21" transform="matrix(12,0,0,12,274.5,721.1)" />
<use xlink:href="#f0_2c" transform="matrix(12,0,0,12,287.3,721.1)" />
<use xlink:href="#f0_25" transform="matrix(12,0,0,12,296.8,721.1)" />
<use xlink:href="#f0_2f" transform="matrix(12,0,0,12,301.6,721.1)" />
<use xlink:href="#f0_2g" transform="matrix(12,0,0,12,308.5,721.1)" />
<use xlink:href="#f0_25" transform="matrix(12,0,0,12,314.4,721.1)" />
<use xlink:href="#f0_28" transform="matrix(12,0,0,12,319.2,721.1)" />
<use xlink:href="#f0_2b" transform="matrix(12,0,0,12,328.3,721.1)" />
<use xlink:href="#f0_2e" transform="matrix(12,0,0,12,337.8,721.1)" />
<use xlink:href="#f0_23" transform="matrix(12,0,0,12,348.8,721.1)" />
<use xlink:href="#f0_2l" transform="matrix(12,0,0,12,358,721.1)" />
<use xlink:href="#f0_2a" transform="matrix(12,0,0,12,366.8,721.1)" />
<use xlink:href="#f0_2b" transform="matrix(12,0,0,12,375.6,721.1)" />
<use xlink:href="#f0_21" transform="matrix(12,0,0,12,385.1,721.1)" />
<use xlink:href="#f0_1z" transform="matrix(12,0,0,12,393.1,721.1)" />
<use xlink:href="#f0_25" transform="matrix(12,0,0,12,401.6,721.1)" />
<use xlink:href="#f0_2h" transform="matrix(12,0,0,12,406,721.1)" />
<use xlink:href="#f0_29" transform="matrix(12,0,0,12,415.5,721.1)" />
<use xlink:href="#f0_i" transform="matrix(12,0,0,12,429.7,721.1)" />
<use xlink:href="#f0_19" transform="matrix(12,0,0,12,439.3,721.1)" />
<use xlink:href="#f0_2g" transform="matrix(12,0,0,12,445.1,721.1)" />
<use xlink:href="#f0_24" transform="matrix(12,0,0,12,455.6,721.1)" />
<use xlink:href="#f0_1x" transform="matrix(12,0,0,12,464.4,721.1)" />
<use xlink:href="#f0_2f" transform="matrix(12,0,0,12,472.5,721.1)" />
<use xlink:href="#f2_2f" transform="matrix(12,0,0,12,484.2,721.1)" />
<use xlink:href="#f2_2g" transform="matrix(12,0,0,12,491.2,721.1)" />
<use xlink:href="#f2_25" transform="matrix(12,0,0,12,497.4,721.1)" />
<use xlink:href="#f2_23" transform="matrix(12,0,0,12,502.5,721.1)" />
<use xlink:href="#f2_29" transform="matrix(12,0,0,12,511.6,721.1)" />
<use xlink:href="#f2_1x" transform="matrix(12,0,0,12,526.7,721.1)" />
<use xlink:href="#f0_g" transform="matrix(12,0,0,12,535.9,721.1)" />
<use xlink:href="#f2_2f" transform="matrix(12,0,0,12,545.4,721.1)" />
<use xlink:href="#f2_2g" transform="matrix(12,0,0,12,552.4,721.1)" />
<use xlink:href="#f2_2l" transform="matrix(12,0,0,12,558.6,721.1)" />
<use xlink:href="#f2_28" transform="matrix(12,0,0,12,567.8,721.1)" />
<use xlink:href="#f2_21" transform="matrix(12,0,0,12,572.6,721.1)" />
<use xlink:href="#f0_1x" transform="matrix(12,0,0,12,585.4,721.1)" />
<use xlink:href="#f0_2a" transform="matrix(12,0,0,12,593.8,721.1)" />
<use xlink:href="#f0_20" transform="matrix(12,0,0,12,602.6,721.1)" />
<use xlink:href="#f2_2b" transform="matrix(12,0,0,12,616.6,721.1)" />
<use xlink:href="#f2_2i" transform="matrix(12,0,0,12,625.7,721.1)" />
<use xlink:href="#f2_1x" transform="matrix(12,0,0,12,634.9,721.1)" />
<use xlink:href="#f2_2e" transform="matrix(12,0,0,12,644.1,721.1)" />
<use xlink:href="#f2_2l" transform="matrix(12,0,0,12,651.8,721.1)" />
<use xlink:href="#f0_i" transform="matrix(12,0,0,12,661,721.1)" />
<use xlink:href="#f0_1f" transform="matrix(12,0,0,12,59.8,1024.8)" />
<use xlink:href="#f0_2i" transform="matrix(12,0,0,12,73,1024.8)" />
<use xlink:href="#f0_1x" transform="matrix(12,0,0,12,81.8,1024.8)" />
<use xlink:href="#f0_2e" transform="matrix(12,0,0,12,89.9,1024.8)" />
<use xlink:href="#f0_2l" transform="matrix(12,0,0,12,96.5,1024.8)" />
<use xlink:href="#f0_24" transform="matrix(12,0,0,12,110,1024.8)" />
<use xlink:href="#f0_1x" transform="matrix(12,0,0,12,118.8,1024.8)" />
<use xlink:href="#f0_2f" transform="matrix(12,0,0,12,127.2,1024.8)" />
<use xlink:href="#f0_2b" transform="matrix(12,0,0,12,138.9,1024.8)" />
<use xlink:href="#f0_2a" transform="matrix(12,0,0,12,148.4,1024.8)" />
<use xlink:href="#f0_21" transform="matrix(12,0,0,12,157.2,1024.8)" />
<use xlink:href="#f0_2b" transform="matrix(12,0,0,12,170.1,1024.8)" />
<use xlink:href="#f0_2e" transform="matrix(12,0,0,12,179.2,1024.8)" />
<use xlink:href="#f0_29" transform="matrix(12,0,0,12,190.2,1024.8)" />
<use xlink:href="#f0_1x" transform="matrix(12,0,0,12,203.8,1024.8)" />
<use xlink:href="#f0_2a" transform="matrix(12,0,0,12,212.2,1024.8)" />
<use xlink:href="#f0_2l" transform="matrix(12,0,0,12,221.3,1024.8)" />
<use xlink:href="#f0_2b" transform="matrix(12,0,0,12,234.5,1024.8)" />
<use xlink:href="#f0_2i" transform="matrix(12,0,0,12,244,1024.8)" />
<use xlink:href="#f0_2h" transform="matrix(12,0,0,12,252.8,1024.8)" />
<use xlink:href="#f0_28" transform="matrix(12,0,0,12,262.4,1024.8)" />
<use xlink:href="#f0_21" transform="matrix(12,0,0,12,267.1,1024.8)" />
<use xlink:href="#f0_25" transform="matrix(12,0,0,12,280.3,1024.8)" />
<use xlink:href="#f0_2a" transform="matrix(12,0,0,12,285.1,1024.8)" />
<use xlink:href="#f0_2j" transform="matrix(12,0,0,12,299,1024.8)" />
<use xlink:href="#f0_24" transform="matrix(12,0,0,12,312.2,1024.8)" />
<use xlink:href="#f0_25" transform="matrix(12,0,0,12,321.4,1024.8)" />
<use xlink:href="#f0_1z" transform="matrix(12,0,0,12,326.1,1024.8)" />
<use xlink:href="#f0_24" transform="matrix(12,0,0,12,334.5,1024.8)" />
<use xlink:href="#f0_22" transform="matrix(12,0,0,12,348.4,1024.8)" />
<use xlink:href="#f0_21" transform="matrix(12,0,0,12,354.3,1024.8)" />
<use xlink:href="#f0_29" transform="matrix(12,0,0,12,362.7,1024.8)" />
<use xlink:href="#f0_1x" transform="matrix(12,0,0,12,376.7,1024.8)" />
<use xlink:href="#f0_28" transform="matrix(12,0,0,12,385.1,1024.8)" />
<use xlink:href="#f0_21" transform="matrix(12,0,0,12,389.8,1024.8)" />
<use xlink:href="#f0_23" transform="matrix(12,0,0,12,403.1,1024.8)" />
<use xlink:href="#f0_1x" transform="matrix(12,0,0,12,412.3,1024.8)" />
<use xlink:href="#f0_29" transform="matrix(12,0,0,12,420.7,1024.8)" />
<use xlink:href="#f0_21" transform="matrix(12,0,0,12,434.6,1024.8)" />
<use xlink:href="#f0_2g" transform="matrix(12,0,0,12,442.7,1024.8)" />
<use xlink:href="#f0_2b" transform="matrix(12,0,0,12,448.2,1024.8)" />
<use xlink:href="#f0_2c" transform="matrix(12,0,0,12,457.7,1024.8)" />
<use xlink:href="#f0_24" transform="matrix(12,0,0,12,466.9,1024.8)" />
<use xlink:href="#f0_2l" transform="matrix(12,0,0,12,476,1024.8)" />
<use xlink:href="#f0_2g" transform="matrix(12,0,0,12,484.5,1024.8)" />
<use xlink:href="#f0_21" transform="matrix(12,0,0,12,489.9,1024.8)" />
<use xlink:href="#f0_c" transform="matrix(12,0,0,12,502.8,1024.8)" />
<use xlink:href="#f2_21" transform="matrix(12,0,0,12,509.1,1024.8)" />
<use xlink:href="#f2_29" transform="matrix(12,0,0,12,517.2,1024.8)" />
<use xlink:href="#f2_1y" transform="matrix(12,0,0,12,532.2,1024.8)" />
<use xlink:href="#f2_2e" transform="matrix(12,0,0,12,542.5,1024.8)" />
<use xlink:href="#f2_2l" transform="matrix(12,0,0,12,550.2,1024.8)" />
<use xlink:href="#f2_2b" transform="matrix(12,0,0,12,559.3,1024.8)" />
<use xlink:href="#f2_2f" transform="matrix(12,0,0,12,573.2,1024.8)" />
<use xlink:href="#f2_1x" transform="matrix(12,0,0,12,580.2,1024.8)" />
<use xlink:href="#f2_1z" transform="matrix(12,0,0,12,589.4,1024.8)" />
<use xlink:href="#f0_d" transform="matrix(12,0,0,12,597.5,1024.8)" />
<use xlink:href="#f0_20" transform="matrix(12,0,0,12,608.5,1024.8)" />
<use xlink:href="#f0_21" transform="matrix(12,0,0,12,617.6,1024.8)" />
<use xlink:href="#f0_2i" transform="matrix(12,0,0,12,625.7,1024.8)" />
<use xlink:href="#f0_21" transform="matrix(12,0,0,12,634.9,1024.8)" />
<use xlink:href="#f0_28" transform="matrix(12,0,0,12,643.3,1024.8)" />
<use xlink:href="#f0_2b" transform="matrix(12,0,0,12,647.7,1024.8)" />
<use xlink:href="#f0_2c" transform="matrix(12,0,0,12,657.2,1024.8)" />
<use xlink:href="#f0_2f" transform="matrix(12,0,0,12,666.4,1024.8)" />
<use xlink:href="#f0_1y" transform="matrix(12,0,0,12,678.1,1024.8)" />
<use xlink:href="#f0_2l" transform="matrix(12,0,0,12,687.3,1024.8)" />
<use xlink:href="#f0_29" transform="matrix(12,0,0,12,701.2,1024.8)" />
<use xlink:href="#f0_21" transform="matrix(12,0,0,12,715.1,1024.8)" />
<use xlink:href="#f0_25" transform="matrix(12,0,0,12,723.5,1024.8)" />
<use xlink:href="#f0_2b" transform="matrix(12,0,0,12,727.9,1024.8)" />
<use xlink:href="#f0_2f" transform="matrix(12,0,0,12,737.4,1024.8)" />
<use xlink:href="#f0_25" transform="matrix(12,0,0,12,744.7,1024.8)" />
<use xlink:href="#f0_2f" transform="matrix(12,0,0,12,749.5,1024.8)" />
<use xlink:href="#f0_i" transform="matrix(12,0,0,12,756.5,1024.8)" />
<use xlink:href="#f0_15" transform="matrix(12,0,0,12,55,1045.7)" />
<use xlink:href="#f0_29" transform="matrix(12,0,0,12,66.4,1045.7)" />
<use xlink:href="#f0_1y" transform="matrix(12,0,0,12,80.3,1045.7)" />
<use xlink:href="#f0_2e" transform="matrix(12,0,0,12,89.1,1045.7)" />
<use xlink:href="#f0_2l" transform="matrix(12,0,0,12,95.7,1045.7)" />
<use xlink:href="#f0_2b" transform="matrix(12,0,0,12,104.1,1045.7)" />
<use xlink:href="#f0_2f" transform="matrix(12,0,0,12,118.4,1045.7)" />
<use xlink:href="#f0_1x" transform="matrix(12,0,0,12,125.4,1045.7)" />
<use xlink:href="#f0_1z" transform="matrix(12,0,0,12,133.4,1045.7)" />
<use xlink:href="#f0_24" transform="matrix(12,0,0,12,146.6,1045.7)" />
<use xlink:href="#f0_1x" transform="matrix(12,0,0,12,155.4,1045.7)" />
<use xlink:href="#f0_2f" transform="matrix(12,0,0,12,163.8,1045.7)" />
<use xlink:href="#f0_r" transform="matrix(12,0,0,12,175.5,1045.7)" />
<use xlink:href="#f0_1z" transform="matrix(12,0,0,12,189.5,1045.7)" />
<use xlink:href="#f0_21" transform="matrix(12,0,0,12,197.5,1045.7)" />
<use xlink:href="#f0_28" transform="matrix(12,0,0,12,205.9,1045.7)" />
<use xlink:href="#f0_28" transform="matrix(12,0,0,12,210.7,1045.7)" />
<use xlink:href="#f0_2f" transform="matrix(12,0,0,12,215.5,1045.7)" />
<use xlink:href="#f0_1x" transform="matrix(12,0,0,12,227.2,1045.7)" />
<use xlink:href="#f0_2a" transform="matrix(12,0,0,12,235.6,1045.7)" />
<use xlink:href="#f0_20" transform="matrix(12,0,0,12,244.4,1045.7)" />
<use xlink:href="#f0_s" transform="matrix(12,0,0,12,258.3,1045.7)" />
<use xlink:href="#f0_2a" transform="matrix(12,0,0,12,272.2,1045.7)" />
<use xlink:href="#f0_2h" transform="matrix(12,0,0,12,281,1045.7)" />
<use xlink:href="#f0_1z" transform="matrix(12,0,0,12,290.2,1045.7)" />
<use xlink:href="#f0_28" transform="matrix(12,0,0,12,298.6,1045.7)" />
<use xlink:href="#f0_21" transform="matrix(12,0,0,12,303.4,1045.7)" />
<use xlink:href="#f0_25" transform="matrix(12,0,0,12,311.8,1045.7)" />
<use xlink:href="#f0_i" transform="matrix(12,0,0,12,316.2,1045.7)" />
<use xlink:href="#f4_3d" transform="matrix(12,0,0,12,85.8,1068.4)" />
<use xlink:href="#f2_l" transform="matrix(12,0,0,12,113.3,1068.4)" />
<use xlink:href="#f2_21" transform="matrix(12,0,0,12,127.3,1068.4)" />
<use xlink:href="#f2_23" transform="matrix(12,0,0,12,135.3,1068.4)" />
<use xlink:href="#f2_23" transform="matrix(12,0,0,12,144.5,1068.4)" />
<use xlink:href="#f2_1z" transform="matrix(12,0,0,12,158.4,1068.4)" />
<use xlink:href="#f2_21" transform="matrix(12,0,0,12,166.5,1068.4)" />
<use xlink:href="#f2_28" transform="matrix(12,0,0,12,174.6,1068.4)" />
<use xlink:href="#f2_28" transform="matrix(12,0,0,12,179.3,1068.4)" />
<use xlink:href="#f4_3d" transform="matrix(12,0,0,12,85.8,1090.8)" />
<use xlink:href="#f2_m" transform="matrix(12,0,0,12,113.3,1090.8)" />
<use xlink:href="#f2_2f" transform="matrix(12,0,0,12,127.3,1090.8)" />
<use xlink:href="#f2_2l" transform="matrix(12,0,0,12,134.2,1090.8)" />
<use xlink:href="#f2_2a" transform="matrix(12,0,0,12,143.4,1090.8)" />
<use xlink:href="#f2_21" transform="matrix(12,0,0,12,153.7,1090.8)" />
<use xlink:href="#f2_2e" transform="matrix(12,0,0,12,161.7,1090.8)" />
<use xlink:href="#f2_23" transform="matrix(12,0,0,12,169.4,1090.8)" />
<use xlink:href="#f2_25" transform="matrix(12,0,0,12,178.6,1090.8)" />
<use xlink:href="#f2_20" transform="matrix(12,0,0,12,183.7,1090.8)" />
<use xlink:href="#f2_2f" transform="matrix(12,0,0,12,194,1090.8)" />
<use xlink:href="#f4_3d" transform="matrix(12,0,0,12,85.8,1113.1)" />
<use xlink:href="#f2_n" transform="matrix(12,0,0,12,113.3,1113.1)" />
<use xlink:href="#f2_1x" transform="matrix(12,0,0,12,127.3,1113.1)" />
<use xlink:href="#f2_2a" transform="matrix(12,0,0,12,136.4,1113.1)" />
<use xlink:href="#f2_2g" transform="matrix(12,0,0,12,146.7,1113.1)" />
<use xlink:href="#f2_25" transform="matrix(12,0,0,12,152.9,1113.1)" />
<use xlink:href="#f2_2c" transform="matrix(12,0,0,12,158,1113.1)" />
<use xlink:href="#f2_2b" transform="matrix(12,0,0,12,168.3,1113.1)" />
<use xlink:href="#f2_20" transform="matrix(12,0,0,12,177.1,1113.1)" />
<use xlink:href="#f2_1x" transform="matrix(12,0,0,12,187.3,1113.1)" />
<use xlink:href="#f2_28" transform="matrix(12,0,0,12,196.5,1113.1)" />
<use xlink:href="#f4_3d" transform="matrix(12,0,0,12,85.8,1135.5)" />
<use xlink:href="#f2_1f" transform="matrix(12,0,0,12,118.1,1135.5)" />
<use xlink:href="#f2_2a" transform="matrix(12,0,0,12,132.4,1135.5)" />
<use xlink:href="#f2_21" transform="matrix(12,0,0,12,142.7,1135.5)" />
<use xlink:href="#f2_1z" transform="matrix(12,0,0,12,155.5,1135.5)" />
<use xlink:href="#f2_21" transform="matrix(12,0,0,12,163.6,1135.5)" />
<use xlink:href="#f2_2a" transform="matrix(12,0,0,12,171.7,1135.5)" />
<use xlink:href="#f2_2g" transform="matrix(12,0,0,12,181.9,1135.5)" />
<use xlink:href="#f2_2e" transform="matrix(12,0,0,12,188.1,1135.5)" />
<use xlink:href="#f2_1x" transform="matrix(12,0,0,12,195.8,1135.5)" />
<use xlink:href="#f2_28" transform="matrix(12,0,0,12,205,1135.5)" />
<use xlink:href="#f2_1z" transform="matrix(12,0,0,12,214.5,1135.5)" />
<use xlink:href="#f2_21" transform="matrix(12,0,0,12,222.6,1135.5)" />
<use xlink:href="#f2_28" transform="matrix(12,0,0,12,231,1135.5)" />
<use xlink:href="#f2_28" transform="matrix(12,0,0,12,235.8,1135.5)" />
<use xlink:href="#f2_24" transform="matrix(12,0,0,12,245.3,1135.5)" />
<use xlink:href="#f2_1x" transform="matrix(12,0,0,12,255.5,1135.5)" />
<use xlink:href="#f2_2i" transform="matrix(12,0,0,12,264.7,1135.5)" />
<use xlink:href="#f2_25" transform="matrix(12,0,0,12,273.9,1135.5)" />
<use xlink:href="#f2_2a" transform="matrix(12,0,0,12,279,1135.5)" />
<use xlink:href="#f2_23" transform="matrix(12,0,0,12,289.2,1135.5)" />
<use xlink:href="#f2_2g" transform="matrix(12,0,0,12,303.2,1135.5)" />
<use xlink:href="#f2_2j" transform="matrix(12,0,0,12,309.4,1135.5)" />
<use xlink:href="#f2_2b" transform="matrix(12,0,0,12,322.6,1135.5)" />
<use xlink:href="#f2_2c" transform="matrix(12,0,0,12,336.5,1135.5)" />
<use xlink:href="#f2_2b" transform="matrix(12,0,0,12,346.7,1135.5)" />
<use xlink:href="#f2_28" transform="matrix(12,0,0,12,355.9,1135.5)" />
<use xlink:href="#f2_1x" transform="matrix(12,0,0,12,360.7,1135.5)" />
<use xlink:href="#f2_2e" transform="matrix(12,0,0,12,369.8,1135.5)" />
<use xlink:href="#f2_2a" transform="matrix(12,0,0,12,382.3,1135.5)" />
<use xlink:href="#f2_2h" transform="matrix(12,0,0,12,392.5,1135.5)" />
<use xlink:href="#f2_1z" transform="matrix(12,0,0,12,402.8,1135.5)" />
<use xlink:href="#f2_28" transform="matrix(12,0,0,12,410.9,1135.5)" />
<use xlink:href="#f2_21" transform="matrix(12,0,0,12,415.6,1135.5)" />
<use xlink:href="#f2_25" transform="matrix(12,0,0,12,423.7,1135.5)" />
<use xlink:href="#f0_i" transform="matrix(12,0,0,12,429.2,1135.5)" />
</g>
</g>
<image preserveAspectRatio="none" x="57" y="237" width="368" height="214" xlink:href="img/1.png" />
<image preserveAspectRatio="none" x="55" y="725" width="356" height="261" xlink:href="img/2.png" />
<g fill="#000000" >
<use xlink:href="#f6_l" transform="matrix(8,0,0,8,785.7,1264.1)" />
<use xlink:href="#f6_q" transform="matrix(8,0,0,8,792.5,1264.1)" />
</g>
<defs>
<path d="M44,0V40L172,60V941L44,960v40H471V960L316,941V65H513c0,0,159,0,234,14l46,208h48L828,0Z" 
id="f0_1c"
transform="scale(0.001,-0.001)" />

<path d="M284,67c0,0,51,0,88,12c0,0,37,12,74,30V358l-98,-3c0,0,-100,-4,-135,-39c0,0,-35,-35,-35,-117c0,0,0,-132,106,-132ZM233,-14c0,0,-179,0,-179,208c0,0,0,70,27,116c0,0,27,46,87,70c0,0,60,24,173,27l105,3V519c0,0,0,72,-26,107c0,0,-27,34,-82,34c0,0,-75,0,-137,-35L176,538H134V691c0,0,121,26,213,26c0,0,115,0,169,-47c0,0,54,-47,54,-144V52L657,33V0H465L451,70c0,0,-85,-84,-218,-84Z" 
id="f0_1x"
transform="scale(0.001,-0.001)" />

<path d="M31,0V33l88,19V649L31,668v33H235l7,-87c0,0,44,37,121,71c0,0,76,35,121,35h11V530H463l-43,82c0,0,-37,0,-88,-10c0,0,-52,-10,-89,-26V52L363,33V0Z" 
id="f0_2e"
transform="scale(0.001,-0.001)" />

<path d="M359,-270c0,0,124,0,192,46c0,0,67,47,67,129c0,0,0,43,-26,67c0,0,-26,24,-79,24H242c0,0,-32,-27,-51,-69c0,0,-20,-41,-20,-77c0,0,0,-64,46,-92c0,0,46,-28,142,-28Zm11,561c0,0,81,0,115,47c0,0,34,47,34,141c0,0,0,100,-35,142c0,0,-35,42,-113,42c0,0,-78,0,-114,-43c0,0,-37,-42,-37,-141c0,0,0,-98,36,-143c0,0,36,-45,114,-45ZM359,-329c0,0,-143,0,-218,44c0,0,-75,43,-75,125c0,0,0,39,27,78c0,0,26,38,98,89c0,0,-43,14,-72,48c0,0,-29,35,-29,74L208,262c0,0,-118,55,-118,217c0,0,0,115,73,178c0,0,73,63,211,63c0,0,28,0,71,-6c0,0,44,-6,67,-13l165,83l26,-32L599,644c0,0,50,-56,50,-165c0,0,0,-120,-72,-182c0,0,-73,-62,-208,-62c0,0,-62,0,-114,11L208,148c0,0,2,-13,29,-24c0,0,27,-12,67,-12H512c0,0,113,0,168,-49c0,0,55,-49,55,-134c0,0,0,-79,-44,-137c0,0,-43,-58,-128,-90c0,0,-84,-31,-204,-31Z" 
id="f0_23"
transform="scale(0.001,-0.001)" />

<path d="M495,413c0,0,0,133,-34,190c0,0,-34,57,-105,57c0,0,-78,0,-119,-63c0,0,-42,-62,-42,-184ZM374,-14c0,0,-163,0,-239,87c0,0,-75,88,-75,283c0,0,0,183,77,273c0,0,76,91,219,91c0,0,269,0,269,-306V353H194V340c0,0,0,-103,23,-160c0,0,22,-57,70,-87c0,0,47,-29,124,-29c0,0,40,0,96,6c0,0,55,7,91,15V43C598,43,562,20,500,3c0,0,-61,-17,-126,-17Z" 
id="f0_21"
transform="scale(0.001,-0.001)" />

<path d="M278,-14c0,0,-52,0,-115,11c0,0,-63,10,-99,23V193H98L134,95c0,0,56,-50,146,-50c0,0,144,0,144,123c0,0,0,91,-114,130l-66,21c0,0,-75,25,-110,50c0,0,-34,26,-53,63c0,0,-18,36,-18,89c0,0,0,92,63,145c0,0,63,54,170,54c0,0,77,0,193,-23V544H454l-32,81c0,0,-39,35,-124,35c0,0,-61,0,-92,-30c0,0,-32,-30,-32,-80c0,0,0,-43,29,-72c0,0,28,-29,86,-48c0,0,110,-38,144,-55c0,0,33,-17,57,-42c0,0,23,-25,36,-57c0,0,13,-32,13,-79c0,0,0,-104,-66,-158c0,0,-66,-53,-195,-53Z" 
id="f0_2f"
transform="scale(0.001,-0.001)" />

<path d="M249,-14c0,0,-71,0,-107,42c0,0,-35,42,-35,119V639H15v33l93,29l76,159h47V701H391V639H231V161c0,0,0,-48,22,-73c0,0,22,-24,57,-24c0,0,44,0,106,12V26C416,26,389,8,340,-2c0,0,-49,-12,-91,-12Z" 
id="f0_2g"
transform="scale(0.001,-0.001)" />

<path d="M148,-329c0,0,-58,0,-114,13v151H69l24,-71c0,0,23,-17,64,-17c0,0,39,0,72,22c0,0,33,23,60,67c0,0,27,44,68,157L90,649L19,668v33H344V668L233,648L423,158L606,649L497,668v33H758V668L685,652L411,-43c0,0,-48,-124,-84,-177c0,0,-36,-54,-79,-82c0,0,-44,-27,-100,-27Z" 
id="f0_2l"
transform="scale(0.001,-0.001)" />

<path d="M431,0V33L535,52V499c0,0,0,62,-32,96c0,0,-32,33,-95,33c0,0,-66,0,-163,-22V52L350,33V0H32V33l89,19V649L32,668v33H237l6,-57c0,0,56,32,119,54c0,0,62,22,110,22c0,0,52,0,95,-20c0,0,44,-19,66,-62c0,0,57,32,134,57c0,0,77,25,128,25c0,0,179,0,179,-207V52l90,-19V0H846V33L950,52V499c0,0,0,129,-119,129c0,0,-19,0,-45,-3c0,0,-26,-3,-52,-7c0,0,-25,-4,-49,-8c0,0,-23,-5,-39,-8c0,0,13,-41,13,-89V52L764,33V0Z" 
id="f0_29"
transform="scale(0.001,-0.001)" />

<path d="M439,0V33l93,19V500c0,0,0,62,-30,97c0,0,-31,36,-94,36c0,0,-67,0,-165,-22V52L338,33V0H35V33l84,19V649L35,668v33H235l7,-57c0,0,57,33,122,54c0,0,65,22,108,22c0,0,91,0,137,-53c0,0,47,-53,47,-154V52L741,33V0Z" 
id="f0_2a"
transform="scale(0.001,-0.001)" />

<path d="M377,45c0,0,99,0,147,73c0,0,47,73,47,237c0,0,0,161,-47,233c0,0,-47,72,-147,72c0,0,-97,0,-141,-69c0,0,-44,-69,-44,-236c0,0,0,-169,45,-240c0,0,44,-70,140,-70Zm0,-59c0,0,-158,0,-238,94c0,0,-81,95,-81,274c0,0,0,178,81,272c0,0,80,94,244,94c0,0,160,0,241,-92c0,0,82,-92,82,-274c0,0,0,-368,-329,-368Z" 
id="f0_2b"
transform="scale(0.001,-0.001)" />

<path d="M382,45c0,0,188,0,188,314c0,0,0,143,-47,213c0,0,-46,69,-141,69c0,0,-87,0,-146,-24V58c0,0,67,-13,146,-13ZM25,-325v35l88,18V649L34,668v33H231l1,-41c0,0,31,27,84,43c0,0,53,17,107,17c0,0,134,0,208,-94c0,0,73,-93,73,-267c0,0,0,-178,-80,-276c0,0,-80,-97,-232,-97c0,0,-84,0,-160,16c0,0,4,-53,4,-84V-272l123,-18v-35Z" 
id="f0_2c"
transform="scale(0.001,-0.001)" />

<path d="M57,302V417H454V302Z" 
id="f0_h"
transform="scale(0.001,-0.001)" />

<path d="M311,-14c0,0,-94,0,-169,18C142,4,67,23,18,55L57,277h48l1,-143c0,0,25,-37,84,-63c0,0,59,-26,126,-26c0,0,122,0,188,58c0,0,66,58,66,162c0,0,0,40,-18,70c0,0,-18,30,-48,54c0,0,-30,23,-67,44c0,0,-38,20,-77,40c0,0,-40,21,-78,44c0,0,-37,24,-67,55c0,0,-30,31,-48,71c0,0,-18,40,-18,94c0,0,0,133,90,204c0,0,91,70,259,70c0,0,128,0,241,-28L703,774H654l-4,128c0,0,-23,20,-66,33c0,0,-42,13,-98,13c0,0,-99,0,-153,-48c0,0,-53,-48,-53,-136c0,0,0,-47,33,-85c0,0,34,-39,100,-73c0,0,102,-53,146,-80c0,0,45,-28,75,-59c0,0,31,-31,49,-72c0,0,18,-40,18,-92c0,0,0,-154,-100,-236c0,0,-100,-81,-290,-81Z" 
id="f1_1j"
transform="scale(0.001,-0.001)" />

<path d="M188,355c0,0,148,11,236,69c0,0,89,58,89,143c0,0,0,41,-23,68c0,0,-22,27,-66,27c0,0,-52,0,-101,-43c0,0,-49,-42,-85,-114c0,0,-36,-71,-50,-150ZM298,-14c0,0,-120,0,-186,67c0,0,-65,67,-65,193c0,0,0,125,53,232c0,0,52,108,145,175c0,0,94,67,196,67c0,0,92,0,147,-42c0,0,56,-43,56,-111c0,0,0,-102,-126,-173c0,0,-125,-72,-336,-86l-3,-54c0,0,0,-95,40,-143c0,0,40,-47,118,-47c0,0,67,0,124,22c0,0,57,23,106,52l22,-32c0,0,-69,-58,-146,-89c0,0,-76,-31,-145,-31Z" 
id="f1_21"
transform="scale(0.001,-0.001)" />

<path d="M313,80c0,0,53,0,105,15c0,0,52,15,87,38l90,509c0,0,-76,20,-152,20c0,0,-74,0,-134,-54c0,0,-60,-54,-94,-149c0,0,-34,-95,-34,-203c0,0,0,-86,34,-131c0,0,34,-45,98,-45ZM421,-325l52,285c0,0,12,64,28,120C501,80,443,37,380,11c0,0,-64,-25,-119,-25c0,0,-102,0,-156,63c0,0,-54,63,-54,188c0,0,0,137,53,248c0,0,54,112,152,173c0,0,97,62,220,62c0,0,52,0,129,-10c0,0,76,-11,123,-22L554,-273l91,-17l-6,-35Z" 
id="f1_2d"
transform="scale(0.001,-0.001)" />

<path d="M228,-17c0,0,-76,0,-114,40c0,0,-38,41,-38,117c0,0,0,11,4,39c0,0,4,29,80,470L78,667l6,34H293L217,268c0,0,-17,-94,-17,-124c0,0,0,-34,18,-55c0,0,18,-21,57,-21c0,0,55,0,120,47c0,0,65,47,107,115l83,471H709L595,52L683,33L677,0H469l20,144C489,144,427,64,360,23c0,0,-67,-40,-132,-40Z" 
id="f1_2h"
transform="scale(0.001,-0.001)" />

<path d="M325,47c0,0,68,0,130,54c0,0,61,55,97,149c0,0,36,94,36,202c0,0,0,103,-39,156c0,0,-39,53,-113,53c0,0,-67,0,-128,-54c0,0,-61,-55,-96,-149c0,0,-35,-94,-35,-204c0,0,0,-101,39,-154c0,0,39,-53,109,-53Zm-6,-61c0,0,-124,0,-199,79c0,0,-74,79,-74,214c0,0,0,120,51,222c0,0,51,102,143,160c0,0,91,59,205,59c0,0,124,0,199,-80c0,0,74,-79,74,-214c0,0,0,-120,-51,-222C667,204,615,102,524,43c0,0,-91,-57,-205,-57Z" 
id="f1_2b"
transform="scale(0.001,-0.001)" />

<path d="M85,0L199,649l-96,19l6,33H332L218,52L335,33L329,0ZM297,849c0,0,-33,0,-57,24c0,0,-24,24,-24,57c0,0,0,33,24,57c0,0,24,24,57,24c0,0,33,0,57,-24c0,0,24,-24,24,-57c0,0,0,-33,-24,-57c0,0,-24,-24,-57,-24Z" 
id="f1_25"
transform="scale(0.001,-0.001)" />

<path d="M301,78c0,0,85,0,185,104l81,442c0,0,-29,20,-55,28c0,0,-25,8,-62,8c0,0,-75,0,-137,-56c0,0,-62,-56,-98,-152c0,0,-36,-95,-36,-199c0,0,0,-79,33,-127c0,0,33,-48,89,-48ZM245,-14c0,0,-90,0,-145,66c0,0,-54,66,-54,182c0,0,0,131,57,244c0,0,57,114,152,178c0,0,96,64,208,64c0,0,90,0,170,-33l33,26h40L589,52L673,33L667,0H454l22,117C476,117,350,-14,245,-14Z" 
id="f1_1x"
transform="scale(0.001,-0.001)" />

<path d="M410,-14c0,0,-80,0,-162,14c0,0,-81,14,-144,38V270h48L178,134c0,0,28,-35,95,-62c0,0,68,-27,134,-27c0,0,104,0,163,53c0,0,58,54,58,148c0,0,0,54,-23,89c0,0,-22,35,-59,59c0,0,-37,24,-84,41c0,0,-47,17,-97,34c0,0,-49,17,-96,38c0,0,-47,21,-84,53c0,0,-37,32,-60,79c0,0,-23,48,-23,117c0,0,0,119,90,187c0,0,89,68,248,68c0,0,121,0,263,-32V771H654L628,893c0,0,-76,55,-188,55c0,0,-100,0,-156,-40c0,0,-56,-41,-56,-112c0,0,0,-49,22,-81c0,0,23,-32,60,-55c0,0,37,-22,84,-39c0,0,48,-16,97,-34c0,0,50,-17,97,-39c0,0,48,-22,85,-56c0,0,36,-34,59,-83c0,0,23,-49,23,-120c0,0,0,-145,-89,-224c0,0,-89,-79,-256,-79Z" 
id="f0_1j"
transform="scale(0.001,-0.001)" />

<path d="M31,0V33L150,52v956L31,1026v34H274V52L394,33V0Z" 
id="f0_28"
transform="scale(0.001,-0.001)" />

<path d="M19,0L31,70L677,936H527c0,0,-185,0,-255,-15L221,764H169l42,236H862L850,936L199,63H378c0,0,89,0,181,8c0,0,92,9,125,16l78,192h52L744,0Z" 
id="f1_1q"
transform="scale(0.001,-0.001)" />

<path d="M55,0L169,649L81,668l6,33H295L274,557c0,0,52,73,117,118c0,0,65,45,122,45c0,0,66,0,102,-42c0,0,36,-41,36,-121c0,0,51,72,115,117c0,0,64,46,123,46c0,0,63,0,99,-40c0,0,36,-40,36,-116c0,0,0,-16,-3,-42c0,0,-3,-27,-80,-470l98,-19L1032,0H808l77,434c0,0,17,90,17,124c0,0,0,34,-16,54c0,0,-15,21,-49,21c0,0,-33,0,-78,-32c0,0,-46,-31,-83,-80c0,0,-37,-49,-44,-91L558,0H434l76,434c0,0,19,98,19,124c0,0,0,34,-17,54c0,0,-16,21,-51,21c0,0,-33,0,-81,-34c0,0,-47,-33,-84,-80c0,0,-36,-48,-43,-89L179,0Z" 
id="f1_29"
transform="scale(0.001,-0.001)" />

<path d="M577,-14c0,0,-243,0,-379,131C198,117,63,248,63,488c0,0,0,263,131,393c0,0,132,130,386,130c0,0,182,0,352,-45V751H882L862,875c0,0,-52,37,-124,57c0,0,-72,19,-152,19c0,0,-191,0,-279,-113c0,0,-88,-114,-88,-348c0,0,0,-220,91,-333c0,0,91,-114,269,-114c0,0,63,0,131,15c0,0,69,15,105,36V377L686,397v40h370V397L958,377V52C958,52,871,24,778,5c0,0,-93,-19,-201,-19Z" 
id="f0_17"
transform="scale(0.001,-0.001)" />

<path d="M327,-14L84,649L1,668v33H335V668L219,648L385,174L554,632h63L786,171L944,649L830,668v33h267V668l-78,-16L784,-14H726L553,448L382,-14Z" 
id="f0_2j"
transform="scale(0.001,-0.001)" />

<path d="M32,0V33L151,52V649L52,668v33H275V52L395,33V0ZM201,850c0,0,-32,0,-56,24c0,0,-24,24,-24,56c0,0,0,34,24,58c0,0,24,24,56,24c0,0,34,0,58,-24c0,0,24,-24,24,-58c0,0,0,-32,-24,-56c0,0,-24,-24,-58,-24Z" 
id="f0_25"
transform="scale(0.001,-0.001)" />

<path d="M442,0V33l93,19V504c0,0,0,129,-124,129c0,0,-70,0,-168,-22V52L338,33V0H31V33l88,19v956L15,1026v34H243V756c0,0,0,-77,-5,-112c0,0,54,31,122,53c0,0,68,23,115,23c0,0,91,0,137,-53c0,0,47,-53,47,-154V52L744,33V0Z" 
id="f0_24"
transform="scale(0.001,-0.001)" />

<path d="M13,0V34L95,46L325,350L122,649L40,668v33H357V668L264,648L399,446L554,649l-96,19v33H710V668L630,652L433,397L663,50L745,34V0H427V34l94,17L359,299L169,50L266,34V0Z" 
id="f0_2k"
transform="scale(0.001,-0.001)" />

<path d="M360,-14L72,649L0,668v33H327V668L216,648L420,164L615,649L504,668v33H764V668L697,652L416,-14Z" 
id="f0_2i"
transform="scale(0.001,-0.001)" />

<path d="M-17,0l8,40L120,60L276,941L151,960l7,40H909L866,761H817l4,161c0,0,-81,11,-239,11H419L349,543H619l45,119h48L657,354H609l-1,121H338L266,67H463c0,0,190,0,254,12l75,185h49L780,0Z" 
id="f1_15"
transform="scale(0.001,-0.001)" />

<path d="M317,45c0,0,74,0,134,54c0,0,60,55,97,153c0,0,36,98,36,200c0,0,0,82,-33,129c0,0,-33,46,-89,46c0,0,-40,0,-93,-29c0,0,-54,-29,-96,-75L192,81c0,0,46,-36,125,-36ZM-88,-325l5,35l90,17L170,649L93,668l6,33H297L283,588c0,0,130,132,235,132c0,0,90,0,145,-67c0,0,55,-66,55,-182c0,0,0,-132,-56,-244C662,227,606,114,510,49c0,0,-97,-63,-209,-63c0,0,-35,0,-72,5c0,0,-37,5,-55,11l-8,-67L130,-273l119,-17l-6,-35Z" 
id="f1_2c"
transform="scale(0.001,-0.001)" />

<path d="M55,0L232,1008l-88,18l6,34H365L286,615L274,558c0,0,59,79,128,120c0,0,68,42,134,42c0,0,75,0,113,-41c0,0,38,-41,38,-117c0,0,0,-10,-3,-32c0,0,-3,-21,-81,-478L700,34L695,0H470l76,434c0,0,17,94,17,123c0,0,0,34,-18,55c0,0,-18,21,-56,21c0,0,-56,0,-121,-47c0,0,-65,-47,-107,-114L178,0Z" 
id="f1_24"
transform="scale(0.001,-0.001)" />

<path d="M301,78c0,0,41,0,90,27c0,0,49,28,95,77l81,442c0,0,-26,18,-54,27c0,0,-27,10,-67,10c0,0,-70,0,-131,-55c0,0,-61,-55,-99,-152c0,0,-37,-97,-37,-201c0,0,0,-79,33,-127c0,0,33,-48,89,-48ZM245,-14c0,0,-91,0,-145,68c0,0,-54,69,-54,183c0,0,0,128,55,240c0,0,55,112,150,177c0,0,96,66,210,66c0,0,70,0,123,-18c0,0,3,36,51,306l-115,18l6,34H768L589,52L673,33L667,0H454l22,117C476,117,350,-14,245,-14Z" 
id="f1_20"
transform="scale(0.001,-0.001)" />

<path d="M62,0L176,649L88,668l6,33H301L278,543c0,0,55,84,124,130c0,0,69,47,138,47c0,0,37,0,59,-6L566,530H534l-28,95c0,0,-60,0,-124,-46c0,0,-63,-45,-116,-120L186,0Z" 
id="f1_2e"
transform="scale(0.001,-0.001)" />

<path d="M51,-233v58c0,0,138,44,138,125c0,0,0,21,-14,31c0,0,-15,11,-32,21c0,0,-18,10,-32,26c0,0,-15,16,-15,48c0,0,0,40,26,61c0,0,25,21,64,21c0,0,46,0,73,-33c0,0,27,-34,27,-93c0,0,0,-96,-62,-164c0,0,-62,-69,-173,-101Z" 
id="f1_g"
transform="scale(0.001,-0.001)" />

<path d="M515,-13c0,0,-204,0,-317,106C198,93,84,200,84,390c0,0,0,187,78,328c0,0,77,141,219,217c0,0,142,76,325,76c0,0,173,0,334,-45L1002,752H952l2,123c0,0,-95,76,-252,76c0,0,-132,0,-239,-71c0,0,-108,-71,-168,-202c0,0,-61,-132,-61,-303c0,0,0,-155,77,-242c0,0,76,-87,213,-87c0,0,67,0,134,19c0,0,67,19,114,49l47,263L695,397l6,40h369l-6,-40L962,377L906,64C906,64,794,21,703,3c0,0,-91,-16,-188,-16Z" 
id="f1_17"
transform="scale(0.001,-0.001)" />

<path d="M54,0L169,649L81,668l6,33H294L274,558c0,0,62,81,130,121c0,0,67,41,132,41c0,0,75,0,113,-41c0,0,38,-41,38,-117c0,0,0,-10,-3,-32c0,0,-3,-21,-81,-478L700,34L695,0H470l76,434c0,0,17,94,17,123c0,0,0,34,-18,55c0,0,-18,21,-56,21c0,0,-56,0,-121,-47c0,0,-65,-47,-108,-117L178,0Z" 
id="f1_2a"
transform="scale(0.001,-0.001)" />

<path d="M200,-14c0,0,-59,0,-93,35c0,0,-34,36,-34,100c0,0,0,22,4,51c0,0,4,30,82,467H67l6,33l99,29L275,860h47L295,701H455L443,639H283L210,230c0,0,-13,-69,-13,-99c0,0,0,-34,17,-51c0,0,17,-16,43,-16c0,0,54,0,113,21L386,50c0,0,-92,-64,-186,-64Z" 
id="f1_2g"
transform="scale(0.001,-0.001)" />

<path d="M191,-20c0,0,-39,0,-65,25c0,0,-25,27,-25,64c0,0,0,38,26,64c0,0,26,26,64,26c0,0,38,0,64,-26c0,0,26,-26,26,-64c0,0,0,-37,-25,-64c0,0,-26,-25,-65,-25Z" 
id="f0_i"
transform="scale(0.001,-0.001)" />

<path d="M342,-14c0,0,-138,0,-276,29L57,258h69L165,96c0,0,65,-36,136,-36c0,0,90,0,141,58c0,0,50,57,50,161c0,0,0,91,-40,139c0,0,-41,48,-132,54l-87,5v90l84,6c0,0,66,5,98,49c0,0,32,44,32,134c0,0,0,83,-38,131c0,0,-38,48,-107,48c0,0,-40,0,-66,-13c0,0,-26,-12,-49,-26L155,751H90V979c0,0,76,19,132,26c0,0,55,6,108,6c0,0,337,0,337,-246c0,0,0,-102,-54,-164c0,0,-54,-63,-153,-78c0,0,252,-30,252,-251c0,0,0,-136,-98,-211c0,0,-98,-75,-272,-75Z" 
id="f2_n"
transform="scale(0.001,-0.001)" />

<path d="M191,-20c0,0,-51,0,-88,34c0,0,-36,36,-36,88c0,0,0,52,36,88c0,0,36,36,88,36c0,0,51,0,88,-36c0,0,36,-36,36,-88c0,0,0,-51,-36,-87c0,0,-36,-35,-88,-35Z" 
id="f2_i"
transform="scale(0.001,-0.001)" />

<path d="M346,-14c0,0,-139,0,-276,29L61,258h69L169,96c0,0,29,-16,71,-26c0,0,43,-10,77,-10c0,0,172,0,172,230c0,0,0,120,-44,174c0,0,-44,53,-139,53c0,0,-53,0,-97,-19L186,488H111v512H633V834H194V571c0,0,91,21,164,21c0,0,178,0,264,-74c0,0,86,-73,86,-220c0,0,0,-151,-94,-232c0,0,-93,-80,-268,-80Z" 
id="f2_p"
transform="scale(0.001,-0.001)" />

<path d="M639,416L478,858L313,416ZM647,0V54L762,74L667,333H283L191,74L319,54V0H15V54L90,74l355,935H662L1016,74l76,-20V0Z" 
id="f2_11"
transform="scale(0.001,-0.001)" />

<path d="M868,0L251,804V74L385,54V0H29V54L157,74V926L29,945v55H371L862,361V926L727,945v55h356V945L955,926V0Z" 
id="f2_1e"
transform="scale(0.001,-0.001)" />

<path d="M614,-14c0,0,-163,0,-285,59c0,0,-122,60,-188,174c0,0,-66,114,-66,269c0,0,0,252,143,387c0,0,144,136,410,136c0,0,65,0,118,-5c0,0,54,-5,100,-14c0,0,46,-9,170,-44V718H949L931,848c0,0,-59,40,-130,62c0,0,-71,23,-146,23c0,0,-174,0,-253,-108c0,0,-80,-108,-80,-335c0,0,0,-211,84,-319c0,0,84,-108,243,-108c0,0,87,0,165,26V377L686,397v55h461V397l-98,-20V52C1049,52,956,22,834,4C834,4,712,-14,614,-14Z" 
id="f2_17"
transform="scale(0.001,-0.001)" />

<path d="M51,0V55L180,74V926L51,946v54H543V946L415,926V74L543,55V0Z" 
id="f2_19"
transform="scale(0.001,-0.001)" />

<path d="M595,60c0,0,141,0,206,102c0,0,65,102,65,340c0,0,0,236,-65,335c0,0,-65,100,-206,100c0,0,-142,0,-207,-100c0,0,-66,-99,-66,-335c0,0,0,-239,66,-340c0,0,65,-102,207,-102Zm0,-74c0,0,-253,0,-387,130C208,116,75,246,75,501c0,0,0,510,520,510c0,0,256,0,387,-129c0,0,132,-130,132,-381c0,0,0,-254,-133,-385C981,116,848,-14,595,-14Z" 
id="f2_1f"
transform="scale(0.001,-0.001)" />

<path d="M410,-14c0,0,-86,0,-175,14C235,0,145,14,81,38V307h66L181,146c0,0,31,-37,94,-62c0,0,64,-24,132,-24c0,0,214,0,214,177c0,0,0,55,-41,93c0,0,-41,38,-128,68c0,0,-128,42,-185,68c0,0,-56,27,-95,63c0,0,-38,36,-62,87c0,0,-23,51,-23,125c0,0,0,132,90,201c0,0,90,69,263,69c0,0,125,0,278,-32V741H651L618,878c0,0,-76,56,-178,56c0,0,-92,0,-141,-34c0,0,-49,-34,-49,-104c0,0,0,-50,41,-86c0,0,41,-35,128,-63c0,0,171,-56,235,-97c0,0,64,-41,97,-103c0,0,34,-61,34,-143c0,0,0,-318,-375,-318Z" 
id="f2_1j"
transform="scale(0.001,-0.001)" />

<path d="M452,474c0,0,104,0,151,52c0,0,47,53,47,178c0,0,0,119,-45,167c0,0,-44,47,-156,47H390V474ZM36,0V54L154,74V926L26,945v55H467c0,0,213,0,318,-71c0,0,105,-71,105,-224c0,0,0,-313,-366,-313H390V74L557,54V0Z" 
id="f2_1g"
transform="scale(0.001,-0.001)" />

<path d="M26,0V54L154,74V926L26,945v55H878V746H810L786,908c0,0,-83,10,-241,10H389V551H651l23,111h67V355H674L651,468H389V82H578c0,0,193,0,252,12l43,185h68L927,0Z" 
id="f2_15"
transform="scale(0.001,-0.001)" />

<path d="M498,506c0,0,115,0,164,47c0,0,48,48,48,166c0,0,0,112,-46,156c0,0,-46,43,-169,43H390V506ZM793,0L514,423H390V74L518,54V0H36V54L154,74V926L26,945v55H504c0,0,221,0,330,-68c0,0,109,-68,109,-212c0,0,0,-215,-201,-276L1009,74L1117,54V0Z" 
id="f2_1i"
transform="scale(0.001,-0.001)" />

<path d="M900,0V54l135,20V845L658,0H617L248,845V74L382,54V0H26V54L154,74V926L26,945v55H419L705,342l292,658h401V945L1270,926V74L1398,54V0Z" 
id="f2_1d"
transform="scale(0.001,-0.001)" />

<path d="M248,-20c0,0,-52,0,-87,34c0,0,-36,36,-36,88c0,0,0,52,36,88c0,0,35,36,87,36c0,0,52,0,88,-36c0,0,36,-36,36,-88c0,0,0,-51,-36,-87c0,0,-35,-35,-88,-35Zm0,488c0,0,-52,0,-87,36c0,0,-36,36,-36,88c0,0,0,52,35,88c0,0,35,36,88,36c0,0,53,0,89,-36c0,0,35,-37,35,-88c0,0,0,-51,-36,-87c0,0,-35,-37,-88,-37Z" 
id="f2_u"
transform="scale(0.001,-0.001)" />

<path d="M681,416L504,902L333,416ZM669,0V40L803,60L704,348H310L210,60L344,40V0H15V40L128,60l341,949H611L965,60L1092,40V0Z" 
id="f0_11"
transform="scale(0.001,-0.001)" />

<path d="M477,0V33l64,19L348,354L257,254V52L331,33V0H44V33l89,19v956L29,1026v34H257V338L544,647l-73,20v34H718V667L631,650L431,446L688,50L764,33V0Z" 
id="f0_27"
transform="scale(0.001,-0.001)" />

<path d="M64,0V34L168,59V639H47v36l121,29v49c0,0,0,155,61,239c0,0,62,84,173,84c0,0,58,0,107,-15V908H472l-33,92c0,0,-26,16,-62,16c0,0,-47,0,-66,-42c0,0,-19,-42,-19,-157V701H478V639H292V59L443,34V0Z" 
id="f0_22"
transform="scale(0.001,-0.001)" />

<path d="M383,64c0,0,85,0,152,28V645c0,0,-67,13,-152,13c0,0,-194,0,-194,-314c0,0,0,-141,48,-211c0,0,48,-69,146,-69ZM342,-14c0,0,-287,0,-287,358c0,0,0,184,82,280c0,0,81,96,239,96c0,0,81,0,163,-18c0,0,-4,25,-4,124v182l-118,18v34H659V52L745,33V0H548l-9,52c0,0,-84,-66,-197,-66Z" 
id="f0_20"
transform="scale(0.001,-0.001)" />

<path d="M41,0V49l69,18V992l-72,18v50H325V756c0,0,0,-49,-4,-116l51,26c0,0,106,54,190,54c0,0,194,0,194,-207V67L827,49V0H478V49l63,18V484c0,0,0,63,-27,98c0,0,-26,35,-75,35c0,0,-57,0,-114,-25V67L389,49V0Z" 
id="f2_24"
transform="scale(0.001,-0.001)" />

<path d="M345,75c0,0,50,0,110,26V351l-63,-2c0,0,-72,-3,-100,-38c0,0,-28,-35,-28,-113c0,0,0,-63,22,-93c0,0,23,-30,59,-30ZM266,-14c0,0,-217,0,-217,208c0,0,0,79,32,126c0,0,32,48,93,71c0,0,60,22,190,25l91,2V521c0,0,0,126,-104,126c0,0,-62,0,-140,-39L183,521H134V691c0,0,112,17,165,21c0,0,53,5,108,5c0,0,264,0,264,-194V67L741,49V0H483L466,54C466,54,408,14,361,0c0,0,-47,-14,-95,-14Z" 
id="f2_1x"
transform="scale(0.001,-0.001)" />

<path d="M342,-14L49,634L0,652v49H359V652L275,632L455,233L617,634l-82,18v49H764V652L713,637L433,-14Z" 
id="f2_2i"
transform="scale(0.001,-0.001)" />

<path d="M434,423c0,0,0,101,-7,142c0,0,-6,40,-22,60c0,0,-16,19,-45,19c0,0,-44,0,-66,-48c0,0,-22,-49,-22,-173ZM389,-14c0,0,-172,0,-254,89c0,0,-83,90,-83,279c0,0,0,184,79,274c0,0,79,91,238,91c0,0,142,0,206,-76c0,0,64,-76,64,-237V345H271V333c0,0,0,-111,18,-158c0,0,18,-47,58,-72c0,0,40,-25,110,-25c0,0,66,0,166,22V42C623,42,582,18,517,1c0,0,-66,-15,-128,-15Z" 
id="f2_21"
transform="scale(0.001,-0.001)" />

<path d="M425,-14c0,0,-187,0,-280,90c0,0,-93,90,-93,276c0,0,0,115,42,198c0,0,43,82,121,126c0,0,78,44,182,44c0,0,104,0,227,-26V486H571L539,609c0,0,-25,19,-50,26c0,0,-24,7,-65,7c0,0,-44,0,-79,-35c0,0,-36,-35,-56,-98c0,0,-20,-64,-20,-153c0,0,0,-150,47,-214c0,0,47,-64,148,-64c0,0,103,0,176,21V42C640,42,606,15,547,0c0,0,-59,-14,-122,-14Z" 
id="f2_1z"
transform="scale(0.001,-0.001)" />

<path d="M379,60c0,0,59,0,84,64c0,0,24,65,24,231c0,0,0,164,-24,227c0,0,-24,63,-84,63c0,0,-57,0,-80,-60c0,0,-22,-61,-22,-230c0,0,0,-173,23,-234c0,0,22,-61,79,-61Zm-2,-74c0,0,-161,0,-240,91c0,0,-79,91,-79,277c0,0,0,186,80,276c0,0,81,90,245,90c0,0,167,0,245,-93c0,0,78,-93,78,-273c0,0,0,-188,-81,-278c0,0,-81,-90,-248,-90Z" 
id="f2_2b"
transform="scale(0.001,-0.001)" />

<path d="M41,0V49l91,18V634L41,652v49H336l8,-145c0,0,80,89,144,128c0,0,64,40,117,40h40V468H604l-45,94c0,0,-47,0,-106,-21c0,0,-60,-20,-105,-48V67L460,49V0Z" 
id="f2_2e"
transform="scale(0.001,-0.001)" />

<path d="M416,68c0,0,60,0,124,32V628c0,0,-58,15,-118,15c0,0,-67,0,-104,-73c0,0,-38,-73,-38,-216c0,0,0,-139,36,-212c0,0,35,-74,100,-74ZM369,-14c0,0,-155,0,-231,88c0,0,-76,90,-76,274c0,0,0,182,82,277c0,0,81,95,236,95c0,0,82,0,165,-20c0,0,-5,24,-5,115V992l-72,18v50H756V67L833,49V0H562L547,40C547,40,505,13,483,4c0,0,-23,-7,-51,-12c0,0,-28,-6,-63,-6Z" 
id="f2_20"
transform="scale(0.001,-0.001)" />

<path d="M276,-14c0,0,-57,0,-125,13C151,-1,83,10,48,23V214H97l28,-98c0,0,26,-26,69,-44c0,0,42,-17,86,-17c0,0,65,0,97,28c0,0,32,28,32,71c0,0,0,41,-31,65c0,0,-30,25,-133,57c0,0,-108,34,-154,92c0,0,-45,58,-45,143c0,0,0,95,71,152c0,0,71,57,183,57c0,0,77,0,207,-22V518H457l-24,82c0,0,-21,22,-60,35c0,0,-40,14,-75,14c0,0,-53,0,-79,-22c0,0,-26,-22,-26,-59c0,0,0,-40,32,-65c0,0,32,-26,132,-55c0,0,109,-34,155,-89c0,0,45,-55,45,-137c0,0,0,-117,-72,-177c0,0,-72,-59,-209,-59Z" 
id="f2_2f"
transform="scale(0.001,-0.001)" />

<path d="M235,0V40L394,60V936H356c0,0,-189,0,-258,-15L78,766H28v234H908V766H857L837,921c0,0,-22,5,-98,9c0,0,-75,4,-165,4H538V60L697,40V0Z" 
id="f0_1k"
transform="scale(0.001,-0.001)" />

<path d="M399,-14c0,0,-341,0,-341,370c0,0,0,175,87,269c0,0,87,95,249,95c0,0,101,0,220,-23V501H573L541,625c0,0,-62,35,-149,35c0,0,-200,0,-200,-304c0,0,0,-158,61,-225c0,0,61,-67,189,-67c0,0,109,0,189,24V43C631,43,595,16,530,1c0,0,-64,-15,-131,-15Z" 
id="f0_1z"
transform="scale(0.001,-0.001)" />

<path d="M-12,338v55H777V338Z" 
id="f3_4y"
transform="scale(0.001,-0.001)" />

<path d="M273,157c0,0,-114,0,-193,80C80,237,0,317,0,431c0,0,0,112,80,192c0,0,79,80,193,80c0,0,113,0,192,-80c0,0,80,-80,80,-192c0,0,0,-114,-80,-194c0,0,-79,-80,-192,-80Z" 
id="f4_3d"
transform="scale(0.001,-0.001)" />

<path d="M134,0V40L339,60V876L137,804v39l292,166h39V60L672,40V0Z" 
id="f0_l"
transform="scale(0.001,-0.001)" />

<path d="M529,65c0,0,183,0,270,108c0,0,87,108,87,334c0,0,0,210,-113,318c0,0,-113,108,-322,108H316V71c0,0,90,-6,213,-6Zm0,-67L172,0H44V40L172,60V941L44,960v40H498c0,0,277,0,411,-123c0,0,133,-124,133,-371c0,0,0,-251,-129,-380C913,126,785,-2,529,-2Z" 
id="f0_14"
transform="scale(0.001,-0.001)" />

<path d="M460,-325c0,0,-148,79,-231,172c0,0,-84,93,-123,217c0,0,-39,126,-39,304c0,0,0,178,39,303c0,0,39,125,122,217c0,0,82,93,232,172V997c0,0,-91,-52,-145,-134c0,0,-54,-81,-79,-190c0,0,-25,-109,-25,-305c0,0,0,-194,26,-309c0,0,26,-114,82,-193c0,0,56,-79,141,-128v-63Z" 
id="f0_c"
transform="scale(0.001,-0.001)" />

<path d="M49,-325v63c0,0,85,49,140,128c0,0,56,79,83,194c0,0,26,115,26,308c0,0,0,196,-25,305c0,0,-25,109,-79,190c0,0,-54,82,-145,134v63c0,0,149,-80,232,-172c0,0,83,-92,122,-217c0,0,39,-125,39,-303c0,0,0,-177,-39,-303c0,0,-39,-125,-122,-217c0,0,-83,-93,-232,-173Z" 
id="f0_d"
transform="scale(0.001,-0.001)" />

<path d="M67,0V109L206,235c0,0,133,118,196,190c0,0,63,72,90,149c0,0,27,77,27,177c0,0,0,97,-44,148c0,0,-44,50,-144,50c0,0,-39,0,-81,-10c0,0,-42,-11,-74,-29L150,787H101V980c0,0,135,32,230,32c0,0,164,0,247,-68c0,0,82,-69,82,-193c0,0,0,-84,-32,-158c0,0,-33,-75,-100,-148c0,0,-67,-74,-222,-206c0,0,-67,-57,-141,-125H680V0Z" 
id="f0_m"
transform="scale(0.001,-0.001)" />

<path d="M617,0L251,860V60L385,40V0H44V40L172,60V941L44,960v40H347L672,239l355,761h287V960L1185,941V60L1314,40V0H908V40l134,20V859L643,0Z" 
id="f0_1d"
transform="scale(0.001,-0.001)" />

<path d="M211,-20c0,0,-39,0,-64,25c0,0,-26,27,-26,64c0,0,0,38,26,64c0,0,26,26,64,26c0,0,37,0,64,-25c0,0,26,-26,26,-65c0,0,0,-37,-26,-64c0,0,-26,-25,-64,-25Zm0,556c0,0,-38,0,-64,26c0,0,-26,26,-26,64c0,0,0,37,26,64c0,0,25,27,64,27c0,0,38,0,64,-27c0,0,26,-27,26,-64c0,0,0,-38,-26,-64c0,0,-27,-26,-64,-26Z" 
id="f0_u"
transform="scale(0.001,-0.001)" />

<path d="M342,-22L202,926l-97,19l10,55H536L526,945L405,926L484,319L780,938h75L968,315l270,611l-122,19l10,55h322l-10,-55l-91,-19L906,-22H836L718,609L418,-22Z" 
id="f5_1n"
transform="scale(0.001,-0.001)" />

<path d="M320,60c0,0,48,0,93,55c0,0,44,55,70,149c0,0,27,93,27,202c0,0,0,179,-94,179c0,0,-47,0,-93,-56c0,0,-45,-57,-73,-152c0,0,-28,-95,-28,-199c0,0,0,-85,27,-132c0,0,28,-46,71,-46ZM303,-14c0,0,-127,0,-203,79c0,0,-76,80,-76,214c0,0,0,121,52,222c0,0,52,102,146,160c0,0,94,59,211,59c0,0,126,0,203,-80c0,0,76,-80,76,-214c0,0,0,-121,-53,-222C659,204,607,102,514,44c0,0,-94,-58,-211,-58Z" 
id="f5_2b"
transform="scale(0.001,-0.001)" />

<path d="M34,0L210,992l-68,18l8,50H422L246,67L335,49L327,0Z" 
id="f5_28"
transform="scale(0.001,-0.001)" />

<path d="M0,-325L166,624H45l9,51l126,29l17,91c0,0,28,148,107,214c0,0,80,67,213,67c0,0,68,0,119,-16L606,895H559l-9,83c0,0,-16,15,-42,15c0,0,-40,0,-64,-39c0,0,-25,-40,-43,-135L380,701H533L520,624H366L201,-325Z" 
id="f5_22"
transform="scale(0.001,-0.001)" />

<path d="M39,0L151,634L83,652l8,49H363L251,67L340,49L332,0ZM304,831c0,0,-48,0,-82,33c0,0,-33,33,-33,82c0,0,0,48,34,81c0,0,34,33,81,33c0,0,47,0,81,-33c0,0,33,-33,33,-81c0,0,0,-47,-33,-81c0,0,-33,-34,-81,-34Z" 
id="f5_25"
transform="scale(0.001,-0.001)" />

<path d="M304,96c0,0,30,0,67,30c0,0,36,30,65,74l74,420c0,0,-33,25,-92,25c0,0,-55,0,-102,-52c0,0,-47,-53,-75,-143c0,0,-27,-90,-27,-187c0,0,0,-77,26,-122c0,0,26,-45,64,-45ZM215,-14c0,0,-93,0,-145,66c0,0,-52,68,-52,187c0,0,0,130,54,242c0,0,55,111,152,175c0,0,98,64,215,64c0,0,103,0,187,-35l61,28h40L614,67L695,43L689,0H430l-3,104c0,0,-44,-55,-99,-87c0,0,-56,-31,-113,-31Z" 
id="f5_1x"
transform="scale(0.001,-0.001)" />

<path d="M-10,0l9,54L130,74L280,926L155,945l10,55H950L905,746H837l4,162c0,0,-81,10,-239,10H499L434,551H644l42,111h67L698,355H632l-3,113H419L351,82H488c0,0,189,0,252,12l77,185h68L822,0Z" 
id="f5_15"
transform="scale(0.001,-0.001)" />

<path d="M219,-17c0,0,-75,0,-118,40c0,0,-42,41,-42,117c0,0,0,14,5,48c0,0,5,34,78,446L56,652l10,49H354L278,278c0,0,-17,-86,-17,-117c0,0,0,-72,68,-72c0,0,48,0,107,53c0,0,60,54,86,117l79,442H800L689,67L771,49L761,0H497l6,132C503,132,387,-17,219,-17Z" 
id="f5_2h"
transform="scale(0.001,-0.001)" />

<path d="M292,-14c0,0,-129,0,-199,69c0,0,-71,69,-71,191c0,0,0,138,55,246c0,0,55,108,151,168c0,0,97,60,208,60c0,0,54,0,117,-10c0,0,63,-10,103,-24L619,471H565L555,599c0,0,-40,44,-109,44c0,0,-59,0,-111,-52c0,0,-53,-53,-83,-142c0,0,-30,-90,-30,-195c0,0,0,-83,33,-130c0,0,33,-46,96,-46c0,0,56,0,102,20c0,0,46,21,89,51l32,-48c0,0,-61,-54,-136,-85c0,0,-75,-30,-146,-30Z" 
id="f5_1z"
transform="scale(0.001,-0.001)" />

<path d="M-32,-329c0,0,-38,0,-61,2c0,0,-22,3,-59,12l31,180h45l15,-94c0,0,19,-17,52,-17c0,0,44,0,97,51c0,0,53,52,136,192L64,634L19,652l8,49H253L366,224L501,448c0,0,20,33,34,72c0,0,14,39,14,62c0,0,0,20,-6,32c0,0,-7,12,-17,20c0,0,-11,9,-44,18l9,49H663c0,0,20,-17,20,-47c0,0,0,-67,-61,-164L295,-43c0,0,-72,-118,-121,-173c0,0,-49,-56,-99,-85c0,0,-51,-28,-107,-28Z" 
id="f5_2l"
transform="scale(0.001,-0.001)" />

<path d="M327,60c0,0,53,0,99,52c0,0,45,53,70,142c0,0,25,89,25,184c0,0,0,78,-22,123c0,0,-23,45,-60,45c0,0,-51,0,-126,-99L240,95c0,0,18,-17,43,-26c0,0,25,-9,44,-9ZM-108,-325l9,50l78,18L137,638L63,656l9,45H330L325,598c0,0,94,122,199,122c0,0,88,0,141,-67c0,0,53,-68,53,-182c0,0,0,-133,-49,-244C669,227,621,115,533,50c0,0,-88,-64,-198,-64c0,0,-64,0,-116,24l-1,-21l-9,-70L181,-257l119,-18l-9,-50Z" 
id="f5_2c"
transform="scale(0.001,-0.001)" />

<path d="M221,-14c0,0,-82,0,-127,38C94,24,50,64,50,138c0,0,0,35,13,108l69,378H46l8,48l106,29L264,860H373L345,701H463L449,624H331L263,244c0,0,-12,-61,-12,-89c0,0,0,-40,20,-58c0,0,20,-18,48,-18c0,0,26,0,82,20L421,46C421,46,384,20,328,3c0,0,-56,-17,-107,-17Z" 
id="f5_2g"
transform="scale(0.001,-0.001)" />

<path d="M213,-14c0,0,-57,0,-123,13C90,-1,24,11,-7,26L26,220H75L87,122c0,0,47,-67,132,-67c0,0,61,0,97,32c0,0,37,33,37,81c0,0,0,29,-20,53c0,0,-20,24,-61,48l-50,29c0,0,-82,46,-117,96c0,0,-34,51,-34,113c0,0,0,213,281,213c0,0,88,0,196,-24L515,516H466l-9,82c0,0,-16,19,-47,35c0,0,-30,16,-68,16c0,0,-57,0,-84,-25c0,0,-26,-25,-26,-66c0,0,0,-29,22,-55c0,0,22,-25,97,-67c0,0,70,-39,101,-68c0,0,31,-29,48,-64c0,0,17,-35,17,-82c0,0,0,-114,-76,-175c0,0,-76,-61,-228,-61Z" 
id="f5_2f"
transform="scale(0.001,-0.001)" />

<path d="M377,45c0,0,99,0,145,108c0,0,46,109,46,352c0,0,0,240,-45,345c0,0,-46,106,-146,106c0,0,-97,0,-139,-100c0,0,-43,-99,-43,-351c0,0,0,-254,44,-357c0,0,43,-103,138,-103Zm0,-59c0,0,-158,0,-238,132c0,0,-81,133,-81,386c0,0,0,249,81,380c0,0,80,132,244,132c0,0,159,0,241,-130c0,0,82,-130,82,-382c0,0,0,-518,-329,-518Z" 
id="f0_k"
transform="scale(0.001,-0.001)" />

<path d="M448,506c0,0,134,0,190,49c0,0,57,50,57,168c0,0,0,114,-56,162c0,0,-56,48,-195,48H316V506ZM777,0L496,438H316V60L468,40V0H54V40L172,60V941L44,960v40H476c0,0,188,0,277,-63c0,0,90,-64,90,-204c0,0,0,-100,-54,-173c0,0,-55,-73,-151,-101L909,60L1017,40V0Z" 
id="f0_1i"
transform="scale(0.001,-0.001)" />

<path d="M289,-14c0,0,-179,0,-179,205V649L20,668v33H233V200c0,0,0,-128,120,-128c0,0,92,0,173,23V649L420,668v33H649V52L738,33V0H533l-6,57C527,57,474,28,405,7c0,0,-69,-21,-116,-21Z" 
id="f0_2h"
transform="scale(0.001,-0.001)" />

<path d="M41,0V49l76,18V624H11v51l106,29v75c0,0,0,144,73,220c0,0,73,77,210,77c0,0,74,0,124,-15V894H476l-22,81c0,0,-18,17,-47,17c0,0,-74,0,-74,-189V701H475V624H333V67L447,49V0Z" 
id="f2_22"
transform="scale(0.001,-0.001)" />

<path d="M30,0V49l76,18V992l-72,18v50H322V67L398,49V0Z" 
id="f2_28"
transform="scale(0.001,-0.001)" />

<path d="M305,-14L57,634L4,652v49H351V652L268,632L419,232L581,631h71L814,232L950,634l-82,18v49h227V652l-54,-15L806,-14H715L555,378L395,-14Z" 
id="f2_2j"
transform="scale(0.001,-0.001)" />

<path d="M327,-14c0,0,-101,0,-156,45c0,0,-55,45,-55,131V624H25v48l108,29l87,159H332V701H480V624H332V176c0,0,0,-49,20,-73c0,0,20,-25,53,-25c0,0,40,0,97,12V26c0,0,-22,-15,-76,-27c0,0,-55,-13,-99,-13Z" 
id="f2_2g"
transform="scale(0.001,-0.001)" />

<path d="M41,0V49l69,18V634L41,652v49H313l11,-61l50,26c0,0,105,54,188,54c0,0,125,0,167,-91c0,0,153,91,258,91c0,0,189,0,189,-207V67l71,-17V0H898V50l63,17V484c0,0,0,63,-24,98c0,0,-25,35,-74,35c0,0,-55,0,-119,-31c0,0,7,-32,7,-73V67L821,50V0H473V50l63,17V484c0,0,0,63,-25,98c0,0,-24,35,-73,35c0,0,-49,0,-113,-29V67L389,49V0Z" 
id="f2_29"
transform="scale(0.001,-0.001)" />

<path d="M41,0V49l69,18V634L41,652v49H313l11,-61l50,26c0,0,105,54,188,54c0,0,194,0,194,-207V67L827,49V0H478V49l63,18V484c0,0,0,63,-27,98c0,0,-26,35,-75,35c0,0,-57,0,-114,-25V67L389,49V0Z" 
id="f2_2a"
transform="scale(0.001,-0.001)" />

<path d="M55,0V40L184,60V941L55,960v40H455V960L327,941V60L455,40V0Z" 
id="f0_19"
transform="scale(0.001,-0.001)" />

<path d="M34,0V49l76,18V634L38,652v49H325V67L402,49V0ZM217,831c0,0,-48,0,-81,33c0,0,-34,33,-34,82c0,0,0,48,34,81c0,0,34,33,81,33c0,0,48,0,81,-33c0,0,33,-33,33,-81c0,0,0,-47,-33,-81c0,0,-32,-34,-81,-34Z" 
id="f2_25"
transform="scale(0.001,-0.001)" />

<path d="M438,65c0,0,131,0,131,293c0,0,0,279,-130,279c0,0,-69,0,-127,-29V80c0,0,60,-15,126,-15ZM20,-325v50l76,18V634L19,652v49H304l1,-36c0,0,80,55,194,55c0,0,146,0,218,-86c0,0,71,-86,71,-271c0,0,0,-183,-83,-280c0,0,-83,-97,-238,-97c0,0,-79,0,-160,19c0,0,5,-48,5,-109V-257l103,-18v-50Z" 
id="f2_2c"
transform="scale(0.001,-0.001)" />

<path d="M360,-256c0,0,108,0,167,35c0,0,59,35,59,98c0,0,0,70,-95,70H254c0,0,-65,-47,-65,-108c0,0,0,-47,46,-71c0,0,45,-24,125,-24Zm9,561c0,0,55,0,79,43c0,0,25,43,25,129c0,0,0,87,-24,127c0,0,-25,41,-80,41c0,0,-52,0,-75,-41c0,0,-24,-40,-24,-127c0,0,0,-86,23,-129c0,0,23,-43,76,-43Zm-9,-641c0,0,-153,0,-236,43c0,0,-84,44,-84,120c0,0,0,33,28,65c0,0,27,31,105,76c0,0,-44,17,-75,59c0,0,-31,43,-31,90L192,258c0,0,-133,56,-133,219c0,0,0,116,81,180c0,0,82,63,233,63c0,0,32,0,82,-6c0,0,51,-6,74,-13l168,83l26,-32L638,631c0,0,46,-57,46,-154c0,0,0,-119,-80,-182c0,0,-80,-64,-234,-64c0,0,-59,0,-114,9L238,183c0,0,1,-22,28,-41c0,0,26,-19,64,-19H493c0,0,256,0,256,-196c0,0,0,-81,-44,-139c0,0,-45,-59,-131,-92c0,0,-86,-32,-214,-32Z" 
id="f2_23"
transform="scale(0.001,-0.001)" />

<path d="M394,460c0,0,126,0,186,57c0,0,60,57,60,187c0,0,0,123,-57,176c0,0,-58,53,-194,53H316V460ZM54,0V40L172,60V941L44,960v40H421c0,0,368,0,368,-295c0,0,0,-153,-93,-233c0,0,-93,-80,-267,-80H316V60L475,40V0Z" 
id="f0_1g"
transform="scale(0.001,-0.001)" />

<path d="M54,0V40L172,60V941L44,960v40H794V760H745L721,922c0,0,-83,11,-241,11H316V516H611l23,120h46V328H634L611,449H316V60L483,40V0Z" 
id="f0_16"
transform="scale(0.001,-0.001)" />

<path d="M58,-234v58c0,0,131,42,131,125c0,0,0,15,-11,27c0,0,-11,12,-38,25C140,1,89,27,89,75c0,0,0,40,25,61c0,0,26,21,65,21c0,0,48,0,77,-34c0,0,30,-34,30,-86c0,0,0,-101,-60,-170c0,0,-59,-69,-168,-101Z" 
id="f0_g"
transform="scale(0.001,-0.001)" />

<path d="M159,-329c0,0,-61,0,-123,14v180H81l32,-94c0,0,21,-17,55,-17c0,0,28,0,50,13c0,0,21,14,40,39c0,0,20,25,37,62c0,0,17,37,50,110L64,634L15,652v49H374V652L290,632L455,244L602,634l-82,18v49H749V652L698,637L421,-44c0,0,-47,-121,-83,-176c0,0,-36,-55,-80,-82c0,0,-43,-27,-99,-27Z" 
id="f2_2l"
transform="scale(0.001,-0.001)" />

<path d="M551,45c0,0,171,0,252,108c0,0,82,108,82,349c0,0,0,239,-81,344c0,0,-81,105,-253,105c0,0,-172,0,-252,-105c0,0,-80,-105,-80,-344c0,0,0,-241,80,-349c0,0,81,-108,252,-108Zm0,-59c0,0,-238,0,-363,129C188,115,63,245,63,501c0,0,0,510,488,510c0,0,242,0,366,-129c0,0,124,-130,124,-381c0,0,0,-255,-126,-385C915,116,790,-14,551,-14Z" 
id="f0_1f"
transform="scale(0.001,-0.001)" />

<path d="M424,64c0,0,74,0,109,71c0,0,36,72,36,236c0,0,0,137,-34,201c0,0,-34,65,-111,65c0,0,-29,0,-62,-7c0,0,-34,-6,-55,-19V76c0,0,47,-12,117,-12Zm21,-78c0,0,-121,0,-354,50V994l-72,18v48H307V802c0,0,0,-69,-8,-141c0,0,30,25,86,42c0,0,57,17,110,17c0,0,153,0,223,-84c0,0,70,-83,70,-266c0,0,0,-180,-90,-283C698,87,608,-14,445,-14Z" 
id="f2_1y"
transform="scale(0.001,-0.001)" />

<path d="M376,50c0,0,103,0,149,80c0,0,46,81,46,240c0,0,0,137,-47,204c0,0,-48,67,-148,67c0,0,-44,0,-87,-7c0,0,-44,-8,-63,-17V62c0,0,63,-12,150,-12Zm3,-64c0,0,-64,0,-141,14c0,0,-78,14,-136,37v971L0,1026v34H226V809c0,0,0,-40,-4,-148c0,0,74,59,188,59c0,0,143,0,219,-87c0,0,77,-87,77,-263c0,0,0,-189,-84,-287c0,0,-84,-97,-243,-97Z" 
id="f0_1y"
transform="scale(0.001,-0.001)" />

<path d="M44,0V40L172,60V941L44,960v40H794V760H745L721,922c0,0,-83,11,-241,11H316V543H586l23,119h48V354H609L586,475H316V67H513c0,0,193,0,252,12l43,185h49L843,0Z" 
id="f0_15"
transform="scale(0.001,-0.001)" />

<path d="M178,0L615,886H176L150,764H101v236H720V943L274,0Z" 
id="f0_r"
transform="scale(0.001,-0.001)" />

<path d="M377,45c0,0,100,0,147,52c0,0,47,52,47,174c0,0,0,119,-46,173c0,0,-47,54,-148,54c0,0,-98,0,-141,-51c0,0,-44,-51,-44,-176c0,0,0,-126,44,-176c0,0,44,-50,141,-50Zm2,518c0,0,84,0,123,46c0,0,39,46,39,148c0,0,0,102,-40,151c0,0,-41,48,-122,48c0,0,-79,0,-118,-47c0,0,-38,-47,-38,-152c0,0,0,-104,37,-149c0,0,38,-45,119,-45ZM377,-14c0,0,-319,0,-319,285c0,0,0,99,48,164c0,0,48,66,129,96c0,0,-65,30,-106,87c0,0,-40,56,-40,139c0,0,0,123,75,191c0,0,76,68,219,68c0,0,139,0,216,-67c0,0,76,-68,76,-192c0,0,0,-82,-40,-139c0,0,-40,-57,-108,-87c0,0,85,-31,132,-98c0,0,47,-67,47,-162c0,0,0,-142,-80,-214c0,0,-80,-71,-249,-71Z" 
id="f0_s"
transform="scale(0.001,-0.001)" />

<path d="M122,0V64L295,82V837L123,780v64l282,165H511V82L685,64V0Z" 
id="f2_l"
transform="scale(0.001,-0.001)" />

<path d="M64,0V141c0,0,64,68,119,123c0,0,119,118,174,185c0,0,56,68,81,140c0,0,26,72,26,165c0,0,0,81,-40,131c0,0,-39,50,-105,50c0,0,-46,0,-74,-10c0,0,-27,-10,-50,-29L163,751H98V979c0,0,59,13,116,23c0,0,58,9,125,9c0,0,165,0,252,-68c0,0,88,-68,88,-193c0,0,0,-78,-26,-142c0,0,-26,-64,-83,-124c0,0,-56,-61,-224,-197c0,0,-64,-52,-139,-119H698V0Z" 
id="f2_m"
transform="scale(0.001,-0.001)" />

<path d="M287,-18c0,0,-194,0,-194,206V634L23,652v49H309V217c0,0,0,-63,26,-98c0,0,27,-35,76,-35c0,0,57,0,113,25V634l-64,18v49H740V67L809,49V0H536L526,61L475,35c0,0,-104,-53,-188,-53Z" 
id="f2_2h"
transform="scale(0.001,-0.001)" />

<path d="M435,0V856c0,0,-48,-47,-127,-93c0,0,-79,-46,-142,-69V824c0,0,113,52,197,128c0,0,85,75,120,146h86V0Z" 
id="f6_l"
transform="scale(0.001,-0.001)" />

<path d="M435,92c0,0,86,0,147,69c0,0,60,68,60,186c0,0,0,114,-60,179c0,0,-60,66,-152,66c0,0,-91,0,-154,-66c0,0,-64,-65,-64,-171c0,0,0,-70,30,-133c0,0,29,-64,82,-97c0,0,52,-33,111,-33Zm3,-110c0,0,-168,0,-274,123C164,105,58,228,58,512c0,0,0,317,117,461c0,0,102,125,275,125c0,0,129,0,212,-72c0,0,82,-72,99,-200L627,815c0,0,-18,79,-51,115c0,0,-54,58,-134,58c0,0,-64,0,-113,-36c0,0,-63,-46,-99,-135c0,0,-37,-89,-38,-253c0,0,48,74,118,110c0,0,70,36,147,36c0,0,135,0,229,-99c0,0,94,-99,94,-256c0,0,0,-103,-44,-191C736,164,691,75,614,28c0,0,-78,-46,-176,-46Z" 
id="f6_q"
transform="scale(0.001,-0.001)" />


</defs>
</svg>