<?xml version="1.0" encoding="UTF-8" standalone="no"?>
<!DOCTYPE svg PUBLIC "-//W3C//DTD SVG 1.1//EN"
"http://www.w3.org/Graphics/SVG/1.1/DTD/svg11.dtd">
<svg viewBox="0 0 797 1155" version="1.1" xmlns="http://www.w3.org/2000/svg" xmlns:xlink="http://www.w3.org/1999/xlink">
<defs>
<clipPath id="c0_90"><path d="M0,1155V0H797.5V1155Z" /></clipPath>
</defs>
<g clip-path="url(#c0_90)">
<g fill="#000000" >
<use xlink:href="#f0_2n" transform="matrix(11,0,0,11,55,517.9)" />
<use xlink:href="#f0_co" transform="matrix(11,0,0,11,63.1,517.9)" />
<use xlink:href="#f0_ae" transform="matrix(11,0,0,11,71.1,517.9)" />
<use xlink:href="#f0_ae" transform="matrix(11,0,0,11,84.7,517.9)" />
<use xlink:href="#f0_7z" transform="matrix(11,0,0,11,98.2,517.9)" />
<use xlink:href="#f0_bf" transform="matrix(11,0,0,11,106.7,517.9)" />
<use xlink:href="#f0_b1" transform="matrix(11,0,0,11,112.5,517.9)" />
<use xlink:href="#f0_co" transform="matrix(11,0,0,11,118.4,517.9)" />
</g>
<g fill="#FFFFFF" >
<use xlink:href="#f0_nt" transform="matrix(11,0,0,11,126.6,517.9)" />
</g>
<g fill="#000000" >
<use xlink:href="#f0_am" transform="matrix(11,0,0,11,131,517.9)" />
<use xlink:href="#f0_89" transform="matrix(11,0,0,11,140.1,517.9)" />
</g>
<g fill="#FFFFFF" >
<use xlink:href="#f0_nt" transform="matrix(11,0,0,11,145.6,517.9)" />
</g>
<g fill="#000000" >
<use xlink:href="#f0_89" transform="matrix(11,0,0,11,150,517.9)" />
<use xlink:href="#f0_a8" transform="matrix(11,0,0,11,155.5,517.9)" />
<use xlink:href="#f0_am" transform="matrix(11,0,0,11,159.6,517.9)" />
<use xlink:href="#f0_ci" transform="matrix(11,0,0,11,168.7,517.9)" />
<use xlink:href="#f0_7z" transform="matrix(11,0,0,11,181.2,517.9)" />
<use xlink:href="#f0_b1" transform="matrix(11,0,0,11,189.6,517.9)" />
<use xlink:href="#f0_j" transform="matrix(11,0,0,11,55,538.4)" />
<use xlink:href="#f0_co" transform="matrix(11,0,0,11,63.8,538.4)" />
<use xlink:href="#f0_7l" transform="matrix(11,0,0,11,71.9,538.4)" />
<use xlink:href="#f0_a8" transform="matrix(11,0,0,11,78.9,538.4)" />
<use xlink:href="#f0_9q" transform="matrix(11,0,0,11,82.9,538.4)" />
<use xlink:href="#f0_7l" transform="matrix(11,0,0,11,86.9,538.4)" />
<use xlink:href="#f0_89" transform="matrix(11,0,0,11,97.5,538.4)" />
<use xlink:href="#f0_a8" transform="matrix(11,0,0,11,103,538.4)" />
<use xlink:href="#f0_am" transform="matrix(11,0,0,11,107.1,538.4)" />
<use xlink:href="#f0_ci" transform="matrix(11,0,0,11,116.2,538.4)" />
<use xlink:href="#f0_7z" transform="matrix(11,0,0,11,128.7,538.4)" />
<use xlink:href="#f0_b1" transform="matrix(11,0,0,11,137.1,538.4)" />
<use xlink:href="#f0_ns" transform="matrix(11,0,0,11,143,538.4)" />
<use xlink:href="#f1_13" transform="matrix(11,0,0,11,151.5,538.4)" />
<use xlink:href="#f1_a8" transform="matrix(11,0,0,11,159.2,538.4)" />
<use xlink:href="#f1_am" transform="matrix(11,0,0,11,163.2,538.4)" />
<use xlink:href="#f1_b1" transform="matrix(11,0,0,11,172,538.4)" />
<use xlink:href="#f1_77" transform="matrix(11,0,0,11,177.9,538.4)" />
<use xlink:href="#f1_a8" transform="matrix(11,0,0,11,186,538.4)" />
<use xlink:href="#f1_a8" transform="matrix(11,0,0,11,193.6,538.4)" />
<use xlink:href="#f1_7z" transform="matrix(11,0,0,11,197.7,538.4)" />
<use xlink:href="#f1_77" transform="matrix(11,0,0,11,206.1,538.4)" />
<use xlink:href="#f1_ch" transform="matrix(11,0,0,11,214.1,538.4)" />
<use xlink:href="#f1_7z" transform="matrix(11,0,0,11,221.8,538.4)" />
<use xlink:href="#f1_b5" transform="matrix(11,0,0,11,230.2,538.4)" />
<use xlink:href="#f1_77" transform="matrix(11,0,0,11,240.5,538.4)" />
<use xlink:href="#f1_b1" transform="matrix(11,0,0,11,248.6,538.4)" />
<use xlink:href="#f1_7z" transform="matrix(11,0,0,11,254.5,538.4)" />
<use xlink:href="#f1_7l" transform="matrix(11,0,0,11,266.6,538.4)" />
<use xlink:href="#f1_co" transform="matrix(11,0,0,11,273.5,538.4)" />
<use xlink:href="#f1_7l" transform="matrix(11,0,0,11,281.2,538.4)" />
<use xlink:href="#f1_a8" transform="matrix(11,0,0,11,288.2,538.4)" />
<use xlink:href="#f1_9q" transform="matrix(11,0,0,11,292.2,538.4)" />
<use xlink:href="#f1_7l" transform="matrix(11,0,0,11,296.2,538.4)" />
<use xlink:href="#f1_77" transform="matrix(11,0,0,11,303.2,538.4)" />
<use xlink:href="#f1_a8" transform="matrix(11,0,0,11,311.3,538.4)" />
<use xlink:href="#f1_a8" transform="matrix(11,0,0,11,315.3,538.4)" />
<use xlink:href="#f1_co" transform="matrix(11,0,0,11,318.9,538.4)" />
<use xlink:href="#f1_77" transform="matrix(11,0,0,11,330.3,538.4)" />
<use xlink:href="#f1_b1" transform="matrix(11,0,0,11,338.4,538.4)" />
<use xlink:href="#f1_b1" transform="matrix(11,0,0,11,344.2,538.4)" />
<use xlink:href="#f1_77" transform="matrix(11,0,0,11,350.1,538.4)" />
<use xlink:href="#f1_af" transform="matrix(11,0,0,11,358.2,538.4)" />
<use xlink:href="#f1_9d" transform="matrix(11,0,0,11,366.9,538.4)" />
<use xlink:href="#f1_7z" transform="matrix(11,0,0,11,375,538.4)" />
<use xlink:href="#f1_7v" transform="matrix(11,0,0,11,383.4,538.4)" />
<use xlink:href="#f1_9q" transform="matrix(11,0,0,11,395.9,538.4)" />
<use xlink:href="#f1_af" transform="matrix(11,0,0,11,399.9,538.4)" />
<use xlink:href="#f1_77" transform="matrix(11,0,0,11,412.4,538.4)" />
<use xlink:href="#f1_89" transform="matrix(11,0,0,11,424.1,538.4)" />
<use xlink:href="#f1_a8" transform="matrix(11,0,0,11,429.3,538.4)" />
<use xlink:href="#f1_am" transform="matrix(11,0,0,11,433.2,538.4)" />
<use xlink:href="#f1_ci" transform="matrix(11,0,0,11,442.1,538.4)" />
<use xlink:href="#f1_7z" transform="matrix(11,0,0,11,454.1,538.4)" />
<use xlink:href="#f1_b1" transform="matrix(11,0,0,11,462.6,538.4)" />
<use xlink:href="#f1_nt" transform="matrix(11,0,0,11,468.4,538.4)" />
<use xlink:href="#f0_2n" transform="matrix(11,0,0,11,55,559)" />
<use xlink:href="#f0_ay" transform="matrix(11,0,0,11,63.1,559)" />
<use xlink:href="#f0_9q" transform="matrix(11,0,0,11,72.2,559)" />
<use xlink:href="#f0_b1" transform="matrix(11,0,0,11,76.3,559)" />
<use xlink:href="#f0_77" transform="matrix(11,0,0,11,82.1,559)" />
<use xlink:href="#f0_a8" transform="matrix(11,0,0,11,90.5,559)" />
<use xlink:href="#f0_od" transform="matrix(11,0,0,11,94.6,559)" />
<use xlink:href="#f0_5" transform="matrix(11,0,0,11,101.9,559)" />
<use xlink:href="#f0_7l" transform="matrix(11,0,0,11,112.1,559)" />
<use xlink:href="#f0_co" transform="matrix(11,0,0,11,119.2,559)" />
<use xlink:href="#f0_7l" transform="matrix(11,0,0,11,127.2,559)" />
<use xlink:href="#f0_a8" transform="matrix(11,0,0,11,134.2,559)" />
<use xlink:href="#f0_9q" transform="matrix(11,0,0,11,138.2,559)" />
<use xlink:href="#f0_7l" transform="matrix(11,0,0,11,142.2,559)" />
<use xlink:href="#f0_89" transform="matrix(11,0,0,11,152.8,559)" />
<use xlink:href="#f0_a8" transform="matrix(11,0,0,11,158.3,559)" />
<use xlink:href="#f0_am" transform="matrix(11,0,0,11,162.4,559)" />
<use xlink:href="#f0_ci" transform="matrix(11,0,0,11,171.5,559)" />
<use xlink:href="#f0_7z" transform="matrix(11,0,0,11,184,559)" />
<use xlink:href="#f0_b1" transform="matrix(11,0,0,11,192.4,559)" />
<use xlink:href="#f0_ns" transform="matrix(11,0,0,11,198.3,559)" />
<use xlink:href="#f1_13" transform="matrix(11,0,0,11,206.9,559)" />
<use xlink:href="#f1_a8" transform="matrix(11,0,0,11,214.6,559)" />
<use xlink:href="#f1_am" transform="matrix(11,0,0,11,218.6,559)" />
<use xlink:href="#f1_b1" transform="matrix(11,0,0,11,227.4,559)" />
<use xlink:href="#f1_77" transform="matrix(11,0,0,11,233.3,559)" />
<use xlink:href="#f1_a8" transform="matrix(11,0,0,11,241.4,559)" />
<use xlink:href="#f1_a8" transform="matrix(11,0,0,11,249,559)" />
<use xlink:href="#f1_7z" transform="matrix(11,0,0,11,253,559)" />
<use xlink:href="#f1_77" transform="matrix(11,0,0,11,261.4,559)" />
<use xlink:href="#f1_ch" transform="matrix(11,0,0,11,269.5,559)" />
<use xlink:href="#f1_7z" transform="matrix(11,0,0,11,276.9,559)" />
<use xlink:href="#f1_b5" transform="matrix(11,0,0,11,285.3,559)" />
<use xlink:href="#f1_77" transform="matrix(11,0,0,11,295.6,559)" />
<use xlink:href="#f1_b1" transform="matrix(11,0,0,11,303.6,559)" />
<use xlink:href="#f1_7z" transform="matrix(11,0,0,11,309.5,559)" />
<use xlink:href="#f1_77" transform="matrix(11,0,0,11,321.6,559)" />
<use xlink:href="#f1_b1" transform="matrix(11,0,0,11,329.7,559)" />
<use xlink:href="#f1_b1" transform="matrix(11,0,0,11,335.6,559)" />
<use xlink:href="#f1_77" transform="matrix(11,0,0,11,341.4,559)" />
<use xlink:href="#f1_af" transform="matrix(11,0,0,11,349.5,559)" />
<use xlink:href="#f1_9d" transform="matrix(11,0,0,11,358.3,559)" />
<use xlink:href="#f1_7z" transform="matrix(11,0,0,11,366.3,559)" />
<use xlink:href="#f1_7v" transform="matrix(11,0,0,11,374.7,559)" />
<use xlink:href="#f1_9q" transform="matrix(11,0,0,11,387.2,559)" />
<use xlink:href="#f1_af" transform="matrix(11,0,0,11,391.2,559)" />
<use xlink:href="#f1_77" transform="matrix(11,0,0,11,403.7,559)" />
<use xlink:href="#f1_b5" transform="matrix(11,0,0,11,415.4,559)" />
<use xlink:href="#f1_ay" transform="matrix(11,0,0,11,422,559)" />
<use xlink:href="#f1_9q" transform="matrix(11,0,0,11,430.9,559)" />
<use xlink:href="#f1_b1" transform="matrix(11,0,0,11,434.8,559)" />
<use xlink:href="#f1_77" transform="matrix(11,0,0,11,440.7,559)" />
<use xlink:href="#f1_a8" transform="matrix(11,0,0,11,448.8,559)" />
<use xlink:href="#f1_am" transform="matrix(11,0,0,11,456.4,559)" />
<use xlink:href="#f1_b1" transform="matrix(11,0,0,11,465.2,559)" />
<use xlink:href="#f1_77" transform="matrix(11,0,0,11,474.8,559)" />
<use xlink:href="#f1_af" transform="matrix(11,0,0,11,482.8,559)" />
<use xlink:href="#f1_77" transform="matrix(11,0,0,11,495.6,559)" />
<use xlink:href="#f1_7l" transform="matrix(11,0,0,11,503.7,559)" />
<use xlink:href="#f1_co" transform="matrix(11,0,0,11,510.6,559)" />
<use xlink:href="#f1_7l" transform="matrix(11,0,0,11,518.3,559)" />
<use xlink:href="#f1_a8" transform="matrix(11,0,0,11,525.3,559)" />
<use xlink:href="#f1_9q" transform="matrix(11,0,0,11,529.3,559)" />
<use xlink:href="#f1_7l" transform="matrix(11,0,0,11,533.3,559)" />
<use xlink:href="#f1_ae" transform="matrix(11,0,0,11,543.9,559)" />
<use xlink:href="#f1_77" transform="matrix(11,0,0,11,557.5,559)" />
<use xlink:href="#f1_af" transform="matrix(11,0,0,11,565.5,559)" />
<use xlink:href="#f1_af" transform="matrix(11,0,0,11,574.3,559)" />
<use xlink:href="#f1_7z" transform="matrix(11,0,0,11,583.1,559)" />
<use xlink:href="#f1_b1" transform="matrix(11,0,0,11,591.5,559)" />
<use xlink:href="#f1_nt" transform="matrix(11,0,0,11,597.4,559)" />
<use xlink:href="#f0_ry" transform="matrix(11,0,0,11,55,600.1)" />
<use xlink:href="#f0_nt" transform="matrix(11,0,0,11,63.5,600.1)" />
</g>
<g fill="#FFFFFF" >
<use xlink:href="#f0_nt" transform="matrix(11,0,0,11,67.9,600.1)" />
</g>
<g fill="#000000" >
<use xlink:href="#f0_5" transform="matrix(11,0,0,11,72.3,600.1)" />
<use xlink:href="#f0_7l" transform="matrix(11,0,0,11,82.5,600.1)" />
<use xlink:href="#f0_bf" transform="matrix(11,0,0,11,89.5,600.1)" />
<use xlink:href="#f0_9q" transform="matrix(11,0,0,11,95.4,600.1)" />
<use xlink:href="#f0_af" transform="matrix(11,0,0,11,99.4,600.1)" />
<use xlink:href="#f0_am" transform="matrix(11,0,0,11,108.6,600.1)" />
<use xlink:href="#f0_ae" transform="matrix(11,0,0,11,117.7,600.1)" />
<use xlink:href="#f0_am" transform="matrix(11,0,0,11,131.3,600.1)" />
<use xlink:href="#f0_b1" transform="matrix(11,0,0,11,140.4,600.1)" />
<use xlink:href="#f0_ay" transform="matrix(11,0,0,11,146.3,600.1)" />
<use xlink:href="#f0_9n" transform="matrix(11,0,0,11,155.4,600.1)" />
<use xlink:href="#f0_9q" transform="matrix(11,0,0,11,164.5,600.1)" />
<use xlink:href="#f0_7l" transform="matrix(11,0,0,11,168.6,600.1)" />
</g>
<g fill="#FFFFFF" >
<use xlink:href="#f0_nt" transform="matrix(11,0,0,11,175.7,600.1)" />
</g>
<g fill="#000000" >
<use xlink:href="#f1_oj" transform="matrix(11,0,0,11,180.1,600.1)" />
<use xlink:href="#f1_13" transform="matrix(11,0,0,11,55,620.6)" />
<use xlink:href="#f1_a8" transform="matrix(11,0,0,11,62.8,620.6)" />
<use xlink:href="#f1_am" transform="matrix(11,0,0,11,66.8,620.6)" />
<use xlink:href="#f1_ci" transform="matrix(11,0,0,11,75.6,620.6)" />
<use xlink:href="#f1_7z" transform="matrix(11,0,0,11,87.6,620.6)" />
<use xlink:href="#f1_b1" transform="matrix(11,0,0,11,96.1,620.6)" />
<use xlink:href="#f1_7l" transform="matrix(11,0,0,11,105.6,620.6)" />
<use xlink:href="#f1_77" transform="matrix(11,0,0,11,112.6,620.6)" />
<use xlink:href="#f1_af" transform="matrix(11,0,0,11,120.6,620.6)" />
<use xlink:href="#f1_7k" transform="matrix(11,0,0,11,133.1,620.6)" />
<use xlink:href="#f1_7z" transform="matrix(11,0,0,11,141.9,620.6)" />
<use xlink:href="#f1_7v" transform="matrix(11,0,0,11,154,620.6)" />
<use xlink:href="#f1_9q" transform="matrix(11,0,0,11,162.8,620.6)" />
<use xlink:href="#f1_ch" transform="matrix(11,0,0,11,166.8,620.6)" />
<use xlink:href="#f1_9q" transform="matrix(11,0,0,11,174.5,620.6)" />
<use xlink:href="#f1_7v" transform="matrix(11,0,0,11,178.5,620.6)" />
<use xlink:href="#f1_7z" transform="matrix(11,0,0,11,187.3,620.6)" />
<use xlink:href="#f1_7v" transform="matrix(11,0,0,11,195.7,620.6)" />
<use xlink:href="#f1_9q" transform="matrix(11,0,0,11,208.2,620.6)" />
<use xlink:href="#f1_af" transform="matrix(11,0,0,11,212.2,620.6)" />
<use xlink:href="#f1_bf" transform="matrix(11,0,0,11,221,620.6)" />
<use xlink:href="#f1_am" transform="matrix(11,0,0,11,226.5,620.6)" />
<use xlink:href="#f1_bf" transform="matrix(11,0,0,11,239,620.6)" />
<use xlink:href="#f1_ci" transform="matrix(11,0,0,11,244.5,620.6)" />
<use xlink:href="#f1_am" transform="matrix(11,0,0,11,256.6,620.6)" />
<use xlink:href="#f1_7z" transform="matrix(11,0,0,11,269.1,620.6)" />
<use xlink:href="#f1_b0" transform="matrix(11,0,0,11,277.5,620.6)" />
<use xlink:href="#f1_c6" transform="matrix(11,0,0,11,286.3,620.6)" />
<use xlink:href="#f1_77" transform="matrix(11,0,0,11,295.1,620.6)" />
<use xlink:href="#f1_a8" transform="matrix(11,0,0,11,303.2,620.6)" />
<use xlink:href="#f1_9n" transform="matrix(11,0,0,11,310.8,620.6)" />
<use xlink:href="#f1_77" transform="matrix(11,0,0,11,319.6,620.6)" />
<use xlink:href="#f1_a8" transform="matrix(11,0,0,11,327.7,620.6)" />
<use xlink:href="#f1_ch" transform="matrix(11,0,0,11,331.7,620.6)" />
<use xlink:href="#f1_7z" transform="matrix(11,0,0,11,339.4,620.6)" />
<use xlink:href="#f1_b5" transform="matrix(11,0,0,11,347.8,620.6)" />
<use xlink:href="#f1_77" transform="matrix(11,0,0,11,358.1,620.6)" />
<use xlink:href="#f1_a8" transform="matrix(11,0,0,11,366.2,620.6)" />
<use xlink:href="#f1_am" transform="matrix(11,0,0,11,370.2,620.6)" />
<use xlink:href="#f1_af" transform="matrix(11,0,0,11,379,620.6)" />
<use xlink:href="#f1_9d" transform="matrix(11,0,0,11,387.8,620.6)" />
<use xlink:href="#f1_77" transform="matrix(11,0,0,11,399.5,620.6)" />
<use xlink:href="#f1_af" transform="matrix(11,0,0,11,407.6,620.6)" />
<use xlink:href="#f1_co" transform="matrix(11,0,0,11,416.4,620.6)" />
<use xlink:href="#f1_ch" transform="matrix(11,0,0,11,427.7,620.6)" />
<use xlink:href="#f1_7z" transform="matrix(11,0,0,11,435.4,620.6)" />
<use xlink:href="#f1_b1" transform="matrix(11,0,0,11,443.8,620.6)" />
<use xlink:href="#f1_bf" transform="matrix(11,0,0,11,449.7,620.6)" />
<use xlink:href="#f1_9q" transform="matrix(11,0,0,11,455.2,620.6)" />
<use xlink:href="#f1_7l" transform="matrix(11,0,0,11,459.2,620.6)" />
<use xlink:href="#f1_77" transform="matrix(11,0,0,11,466.2,620.6)" />
<use xlink:href="#f1_a8" transform="matrix(11,0,0,11,474.3,620.6)" />
<use xlink:href="#f1_ay" transform="matrix(11,0,0,11,481.9,620.6)" />
<use xlink:href="#f1_a8" transform="matrix(11,0,0,11,490.7,620.6)" />
<use xlink:href="#f1_77" transform="matrix(11,0,0,11,494.8,620.6)" />
<use xlink:href="#f1_af" transform="matrix(11,0,0,11,502.8,620.6)" />
<use xlink:href="#f1_7z" transform="matrix(11,0,0,11,511.6,620.6)" />
<use xlink:href="#f1_nt" transform="matrix(11,0,0,11,520,620.6)" />
<use xlink:href="#f1_t" transform="matrix(11,0,0,11,528.1,620.6)" />
<use xlink:href="#f1_nt" transform="matrix(11,0,0,11,536.2,620.6)" />
<use xlink:href="#f1_9d" transform="matrix(11,0,0,11,540.2,620.6)" />
<use xlink:href="#f1_ns" transform="matrix(11,0,0,11,548.2,620.6)" />
<use xlink:href="#f1_ae" transform="matrix(11,0,0,11,556.3,620.6)" />
<use xlink:href="#f1_c6" transform="matrix(11,0,0,11,569.8,620.6)" />
<use xlink:href="#f1_b5" transform="matrix(11,0,0,11,578.6,620.6)" />
<use xlink:href="#f1_bf" transform="matrix(11,0,0,11,585.2,620.6)" />
<use xlink:href="#f1_77" transform="matrix(11,0,0,11,590.7,620.6)" />
<use xlink:href="#f1_b1" transform="matrix(11,0,0,11,598.8,620.6)" />
<use xlink:href="#f1_7v" transform="matrix(11,0,0,11,604.7,620.6)" />
<use xlink:href="#f1_nt" transform="matrix(11,0,0,11,613.5,620.6)" />
<use xlink:href="#f0_rz" transform="matrix(11,0,0,11,55,661.6)" />
<use xlink:href="#f0_nt" transform="matrix(11,0,0,11,63.5,661.6)" />
</g>
<g fill="#FFFFFF" >
<use xlink:href="#f0_nt" transform="matrix(11,0,0,11,67.9,661.6)" />
</g>
<g fill="#000000" >
<use xlink:href="#f0_3k" transform="matrix(11,0,0,11,72.3,661.6)" />
<use xlink:href="#f0_co" transform="matrix(11,0,0,11,80.3,661.6)" />
<use xlink:href="#f0_9d" transform="matrix(11,0,0,11,88.4,661.6)" />
<use xlink:href="#f0_am" transform="matrix(11,0,0,11,96.4,661.6)" />
<use xlink:href="#f0_ae" transform="matrix(11,0,0,11,105.6,661.6)" />
<use xlink:href="#f0_am" transform="matrix(11,0,0,11,119.1,661.6)" />
<use xlink:href="#f0_b1" transform="matrix(11,0,0,11,128.3,661.6)" />
<use xlink:href="#f0_ay" transform="matrix(11,0,0,11,134.2,661.6)" />
<use xlink:href="#f0_9n" transform="matrix(11,0,0,11,143.3,661.6)" />
<use xlink:href="#f0_9q" transform="matrix(11,0,0,11,152.4,661.6)" />
<use xlink:href="#f0_7l" transform="matrix(11,0,0,11,156.5,661.6)" />
</g>
<g fill="#FFFFFF" >
<use xlink:href="#f0_nt" transform="matrix(11,0,0,11,163.6,661.6)" />
</g>
<g fill="#000000" >
<use xlink:href="#f1_oj" transform="matrix(11,0,0,11,168,661.6)" />
<use xlink:href="#f1_13" transform="matrix(11,0,0,11,55,682.2)" />
<use xlink:href="#f1_a8" transform="matrix(11,0,0,11,62.8,682.2)" />
<use xlink:href="#f1_am" transform="matrix(11,0,0,11,66.8,682.2)" />
<use xlink:href="#f1_ci" transform="matrix(11,0,0,11,75.6,682.2)" />
<use xlink:href="#f1_7z" transform="matrix(11,0,0,11,87.6,682.2)" />
<use xlink:href="#f1_b1" transform="matrix(11,0,0,11,96.1,682.2)" />
<use xlink:href="#f1_7l" transform="matrix(11,0,0,11,105.2,682.2)" />
<use xlink:href="#f1_77" transform="matrix(11,0,0,11,112.2,682.2)" />
<use xlink:href="#f1_af" transform="matrix(11,0,0,11,120.3,682.2)" />
<use xlink:href="#f1_7k" transform="matrix(11,0,0,11,132.4,682.2)" />
<use xlink:href="#f1_7z" transform="matrix(11,0,0,11,141.2,682.2)" />
<use xlink:href="#f1_7v" transform="matrix(11,0,0,11,153.3,682.2)" />
<use xlink:href="#f1_9q" transform="matrix(11,0,0,11,162.1,682.2)" />
<use xlink:href="#f1_ch" transform="matrix(11,0,0,11,166.1,682.2)" />
<use xlink:href="#f1_9q" transform="matrix(11,0,0,11,173.8,682.2)" />
<use xlink:href="#f1_7v" transform="matrix(11,0,0,11,177.8,682.2)" />
<use xlink:href="#f1_7z" transform="matrix(11,0,0,11,186.6,682.2)" />
<use xlink:href="#f1_7v" transform="matrix(11,0,0,11,195,682.2)" />
<use xlink:href="#f1_9q" transform="matrix(11,0,0,11,207.1,682.2)" />
<use xlink:href="#f1_af" transform="matrix(11,0,0,11,211.1,682.2)" />
<use xlink:href="#f1_bf" transform="matrix(11,0,0,11,219.9,682.2)" />
<use xlink:href="#f1_am" transform="matrix(11,0,0,11,225.4,682.2)" />
<use xlink:href="#f1_bf" transform="matrix(11,0,0,11,237.6,682.2)" />
<use xlink:href="#f1_ci" transform="matrix(11,0,0,11,243,682.2)" />
<use xlink:href="#f1_am" transform="matrix(11,0,0,11,255.1,682.2)" />
<use xlink:href="#f1_7z" transform="matrix(11,0,0,11,267.6,682.2)" />
<use xlink:href="#f1_b0" transform="matrix(11,0,0,11,276,682.2)" />
<use xlink:href="#f1_c6" transform="matrix(11,0,0,11,284.9,682.2)" />
<use xlink:href="#f1_77" transform="matrix(11,0,0,11,293.6,682.2)" />
<use xlink:href="#f1_a8" transform="matrix(11,0,0,11,301.7,682.2)" />
<use xlink:href="#f1_9n" transform="matrix(11,0,0,11,309,682.2)" />
<use xlink:href="#f1_77" transform="matrix(11,0,0,11,317.8,682.2)" />
<use xlink:href="#f1_a8" transform="matrix(11,0,0,11,325.9,682.2)" />
<use xlink:href="#f1_ch" transform="matrix(11,0,0,11,329.9,682.2)" />
<use xlink:href="#f1_7z" transform="matrix(11,0,0,11,337.6,682.2)" />
<use xlink:href="#f1_b5" transform="matrix(11,0,0,11,346,682.2)" />
<use xlink:href="#f1_am" transform="matrix(11,0,0,11,355.9,682.2)" />
<use xlink:href="#f1_af" transform="matrix(11,0,0,11,364.7,682.2)" />
<use xlink:href="#f1_a8" transform="matrix(11,0,0,11,373.5,682.2)" />
<use xlink:href="#f1_co" transform="matrix(11,0,0,11,377.5,682.2)" />
<use xlink:href="#f1_77" transform="matrix(11,0,0,11,388.5,682.2)" />
<use xlink:href="#f1_a8" transform="matrix(11,0,0,11,396.6,682.2)" />
<use xlink:href="#f1_am" transform="matrix(11,0,0,11,400.6,682.2)" />
<use xlink:href="#f1_af" transform="matrix(11,0,0,11,409.4,682.2)" />
<use xlink:href="#f1_9d" transform="matrix(11,0,0,11,418.2,682.2)" />
<use xlink:href="#f1_am" transform="matrix(11,0,0,11,429.6,682.2)" />
<use xlink:href="#f1_af" transform="matrix(11,0,0,11,438.4,682.2)" />
<use xlink:href="#f1_7z" transform="matrix(11,0,0,11,447.2,682.2)" />
<use xlink:href="#f1_ch" transform="matrix(11,0,0,11,458.9,682.2)" />
<use xlink:href="#f1_7z" transform="matrix(11,0,0,11,466.6,682.2)" />
<use xlink:href="#f1_b1" transform="matrix(11,0,0,11,475,682.2)" />
<use xlink:href="#f1_bf" transform="matrix(11,0,0,11,480.9,682.2)" />
<use xlink:href="#f1_9q" transform="matrix(11,0,0,11,486.4,682.2)" />
<use xlink:href="#f1_7l" transform="matrix(11,0,0,11,490.4,682.2)" />
<use xlink:href="#f1_77" transform="matrix(11,0,0,11,497.4,682.2)" />
<use xlink:href="#f1_a8" transform="matrix(11,0,0,11,505.5,682.2)" />
<use xlink:href="#f1_ay" transform="matrix(11,0,0,11,512.8,682.2)" />
<use xlink:href="#f1_a8" transform="matrix(11,0,0,11,521.6,682.2)" />
<use xlink:href="#f1_77" transform="matrix(11,0,0,11,525.6,682.2)" />
<use xlink:href="#f1_af" transform="matrix(11,0,0,11,533.7,682.2)" />
<use xlink:href="#f1_7z" transform="matrix(11,0,0,11,542.5,682.2)" />
<use xlink:href="#f1_nt" transform="matrix(11,0,0,11,550.9,682.2)" />
<use xlink:href="#f1_2t" transform="matrix(11,0,0,11,558.6,682.2)" />
<use xlink:href="#f1_9n" transform="matrix(11,0,0,11,566.7,682.2)" />
<use xlink:href="#f1_7z" transform="matrix(11,0,0,11,575.5,682.2)" />
<use xlink:href="#f1_ay" transform="matrix(11,0,0,11,587.2,682.2)" />
<use xlink:href="#f1_a8" transform="matrix(11,0,0,11,596,682.2)" />
<use xlink:href="#f1_77" transform="matrix(11,0,0,11,600,682.2)" />
<use xlink:href="#f1_af" transform="matrix(11,0,0,11,608.1,682.2)" />
<use xlink:href="#f1_7z" transform="matrix(11,0,0,11,616.9,682.2)" />
<use xlink:href="#f1_7l" transform="matrix(11,0,0,11,628.6,682.2)" />
<use xlink:href="#f1_am" transform="matrix(11,0,0,11,635.9,682.2)" />
<use xlink:href="#f1_c6" transform="matrix(11,0,0,11,644.7,682.2)" />
<use xlink:href="#f1_a8" transform="matrix(11,0,0,11,653.6,682.2)" />
<use xlink:href="#f1_7v" transform="matrix(11,0,0,11,657.6,682.2)" />
<use xlink:href="#f1_7k" transform="matrix(11,0,0,11,669.7,682.2)" />
<use xlink:href="#f1_7z" transform="matrix(11,0,0,11,678.5,682.2)" />
<use xlink:href="#f1_ae" transform="matrix(11,0,0,11,690.2,682.2)" />
<use xlink:href="#f1_7z" transform="matrix(11,0,0,11,703.8,682.2)" />
<use xlink:href="#f1_7v" transform="matrix(11,0,0,11,712.2,682.2)" />
<use xlink:href="#f1_9q" transform="matrix(11,0,0,11,721,682.2)" />
<use xlink:href="#f1_77" transform="matrix(11,0,0,11,725,682.2)" />
<use xlink:href="#f1_af" transform="matrix(11,0,0,11,733.1,682.2)" />
<use xlink:href="#f1_ov" transform="matrix(11,0,0,11,55,702.7)" />
<use xlink:href="#f2_24" transform="matrix(11,0,0,11,60.2,702.7)" />
<use xlink:href="#f2_7l" transform="matrix(11,0,0,11,71.2,702.7)" />
<use xlink:href="#f2_9q" transform="matrix(11,0,0,11,78.1,702.7)" />
<use xlink:href="#f2_ae" transform="matrix(11,0,0,11,82.1,702.7)" />
<use xlink:href="#f2_c6" transform="matrix(11,0,0,11,95.4,702.7)" />
<use xlink:href="#f2_ae" transform="matrix(11,0,0,11,104.1,702.7)" />
<use xlink:href="#f1_ow" transform="matrix(11,0,0,11,117.4,702.7)" />
<use xlink:href="#f1_am" transform="matrix(11,0,0,11,126.2,702.7)" />
<use xlink:href="#f1_b1" transform="matrix(11,0,0,11,135,702.7)" />
<use xlink:href="#f1_a8" transform="matrix(11,0,0,11,144.5,702.7)" />
<use xlink:href="#f1_77" transform="matrix(11,0,0,11,148.6,702.7)" />
<use xlink:href="#f1_bf" transform="matrix(11,0,0,11,156.6,702.7)" />
<use xlink:href="#f1_7z" transform="matrix(11,0,0,11,162.1,702.7)" />
<use xlink:href="#f1_b1" transform="matrix(11,0,0,11,170.5,702.7)" />
<use xlink:href="#f1_77" transform="matrix(11,0,0,11,176.4,702.7)" />
<use xlink:href="#f1_a8" transform="matrix(11,0,0,11,184.5,702.7)" />
<use xlink:href="#f0_s0" transform="matrix(11,0,0,11,55,1064.8)" />
<use xlink:href="#f0_nt" transform="matrix(11,0,0,11,63.5,1064.8)" />
</g>
<g fill="#FFFFFF" >
<use xlink:href="#f0_nt" transform="matrix(11,0,0,11,67.9,1064.8)" />
</g>
<g fill="#000000" >
<use xlink:href="#f0_5" transform="matrix(11,0,0,11,72.3,1064.8)" />
<use xlink:href="#f0_b5" transform="matrix(11,0,0,11,82.5,1064.8)" />
<use xlink:href="#f0_co" transform="matrix(11,0,0,11,89.1,1064.8)" />
<use xlink:href="#f0_ae" transform="matrix(11,0,0,11,97.2,1064.8)" />
<use xlink:href="#f0_ae" transform="matrix(11,0,0,11,110.7,1064.8)" />
<use xlink:href="#f0_7z" transform="matrix(11,0,0,11,124.3,1064.8)" />
<use xlink:href="#f0_bf" transform="matrix(11,0,0,11,132.7,1064.8)" />
<use xlink:href="#f0_b1" transform="matrix(11,0,0,11,138.6,1064.8)" />
<use xlink:href="#f0_9q" transform="matrix(11,0,0,11,144.8,1064.8)" />
<use xlink:href="#f0_7l" transform="matrix(11,0,0,11,148.8,1064.8)" />
<use xlink:href="#f0_77" transform="matrix(11,0,0,11,155.8,1064.8)" />
<use xlink:href="#f0_a8" transform="matrix(11,0,0,11,164.2,1064.8)" />
</g>
<g fill="#FFFFFF" >
<use xlink:href="#f0_nt" transform="matrix(11,0,0,11,168.4,1064.8)" />
</g>
<g fill="#000000" >
<use xlink:href="#f1_oj" transform="matrix(11,0,0,11,172.8,1064.8)" />
<use xlink:href="#f1_13" transform="matrix(11,0,0,11,55,1085.3)" />
<use xlink:href="#f1_a8" transform="matrix(11,0,0,11,62.8,1085.3)" />
<use xlink:href="#f1_am" transform="matrix(11,0,0,11,66.8,1085.3)" />
<use xlink:href="#f1_ci" transform="matrix(11,0,0,11,75.6,1085.3)" />
<use xlink:href="#f1_7z" transform="matrix(11,0,0,11,87.6,1085.3)" />
<use xlink:href="#f1_b1" transform="matrix(11,0,0,11,96.1,1085.3)" />
<use xlink:href="#f1_7l" transform="matrix(11,0,0,11,105.6,1085.3)" />
<use xlink:href="#f1_77" transform="matrix(11,0,0,11,112.6,1085.3)" />
<use xlink:href="#f1_af" transform="matrix(11,0,0,11,120.6,1085.3)" />
<use xlink:href="#f1_af" transform="matrix(11,0,0,11,129.4,1085.3)" />
<use xlink:href="#f1_am" transform="matrix(11,0,0,11,138.2,1085.3)" />
<use xlink:href="#f1_bf" transform="matrix(11,0,0,11,147,1085.3)" />
<use xlink:href="#f1_7k" transform="matrix(11,0,0,11,156.2,1085.3)" />
<use xlink:href="#f1_7z" transform="matrix(11,0,0,11,165,1085.3)" />
<use xlink:href="#f1_7v" transform="matrix(11,0,0,11,177.1,1085.3)" />
<use xlink:href="#f1_9q" transform="matrix(11,0,0,11,185.9,1085.3)" />
<use xlink:href="#f1_ch" transform="matrix(11,0,0,11,189.9,1085.3)" />
<use xlink:href="#f1_9q" transform="matrix(11,0,0,11,197.6,1085.3)" />
<use xlink:href="#f1_7v" transform="matrix(11,0,0,11,201.6,1085.3)" />
<use xlink:href="#f1_7z" transform="matrix(11,0,0,11,210.4,1085.3)" />
<use xlink:href="#f1_7v" transform="matrix(11,0,0,11,218.8,1085.3)" />
<use xlink:href="#f1_9q" transform="matrix(11,0,0,11,231.3,1085.3)" />
<use xlink:href="#f1_af" transform="matrix(11,0,0,11,235.3,1085.3)" />
<use xlink:href="#f1_bf" transform="matrix(11,0,0,11,244.1,1085.3)" />
<use xlink:href="#f1_am" transform="matrix(11,0,0,11,249.6,1085.3)" />
<use xlink:href="#f1_bf" transform="matrix(11,0,0,11,262.1,1085.3)" />
<use xlink:href="#f1_ci" transform="matrix(11,0,0,11,267.6,1085.3)" />
<use xlink:href="#f1_am" transform="matrix(11,0,0,11,279.7,1085.3)" />
<use xlink:href="#f1_7z" transform="matrix(11,0,0,11,292.2,1085.3)" />
<use xlink:href="#f1_b0" transform="matrix(11,0,0,11,300.6,1085.3)" />
<use xlink:href="#f1_c6" transform="matrix(11,0,0,11,309.4,1085.3)" />
<use xlink:href="#f1_77" transform="matrix(11,0,0,11,318.2,1085.3)" />
<use xlink:href="#f1_a8" transform="matrix(11,0,0,11,326.3,1085.3)" />
<use xlink:href="#f1_9n" transform="matrix(11,0,0,11,333.9,1085.3)" />
<use xlink:href="#f1_77" transform="matrix(11,0,0,11,342.7,1085.3)" />
<use xlink:href="#f1_a8" transform="matrix(11,0,0,11,350.8,1085.3)" />
<use xlink:href="#f1_ch" transform="matrix(11,0,0,11,354.8,1085.3)" />
<use xlink:href="#f1_7z" transform="matrix(11,0,0,11,362.5,1085.3)" />
<use xlink:href="#f1_b5" transform="matrix(11,0,0,11,370.9,1085.3)" />
<use xlink:href="#f1_77" transform="matrix(11,0,0,11,381.2,1085.3)" />
<use xlink:href="#f1_a8" transform="matrix(11,0,0,11,389.3,1085.3)" />
<use xlink:href="#f1_am" transform="matrix(11,0,0,11,393.3,1085.3)" />
<use xlink:href="#f1_af" transform="matrix(11,0,0,11,402.1,1085.3)" />
<use xlink:href="#f1_9d" transform="matrix(11,0,0,11,410.9,1085.3)" />
<use xlink:href="#f1_77" transform="matrix(11,0,0,11,422.6,1085.3)" />
<use xlink:href="#f1_af" transform="matrix(11,0,0,11,430.7,1085.3)" />
<use xlink:href="#f1_co" transform="matrix(11,0,0,11,439.5,1085.3)" />
<use xlink:href="#f1_ay" transform="matrix(11,0,0,11,450.8,1085.3)" />
<use xlink:href="#f1_a8" transform="matrix(11,0,0,11,459.6,1085.3)" />
<use xlink:href="#f1_77" transform="matrix(11,0,0,11,463.6,1085.3)" />
<use xlink:href="#f1_af" transform="matrix(11,0,0,11,471.7,1085.3)" />
<use xlink:href="#f1_7z" transform="matrix(11,0,0,11,480.5,1085.3)" />
<use xlink:href="#f1_nt" transform="matrix(11,0,0,11,488.9,1085.3)" />
<use xlink:href="#f1_t" transform="matrix(11,0,0,11,497,1085.3)" />
<use xlink:href="#f1_nt" transform="matrix(11,0,0,11,505.1,1085.3)" />
<use xlink:href="#f1_9d" transform="matrix(11,0,0,11,509.4,1085.3)" />
<use xlink:href="#f1_oj" transform="matrix(11,0,0,11,517.9,1085.3)" />
<use xlink:href="#f2_j" transform="matrix(11,0,0,11,526.7,1085.3)" />
<use xlink:href="#f2_77" transform="matrix(11,0,0,11,535.6,1085.3)" />
<use xlink:href="#f2_af" transform="matrix(11,0,0,11,544,1085.3)" />
<use xlink:href="#f2_af" transform="matrix(11,0,0,11,552.8,1085.3)" />
<use xlink:href="#f2_77" transform="matrix(11,0,0,11,561.6,1085.3)" />
</g>
</g>
<image preserveAspectRatio="none" x="55" y="55" width="630" height="425" xlink:href="img/1.png" />
<image preserveAspectRatio="none" x="55" y="727" width="545" height="320" xlink:href="img/2.png" />
<g fill="#000000" >
<use xlink:href="#f3_l" transform="matrix(8,0,0,8,673.9,1121.9)" />
<use xlink:href="#f3_r" transform="matrix(8,0,0,8,680.7,1121.9)" />
</g>
<defs>
<path d="M320,-17c0,0,-50,0,-93,9c0,0,-43,8,-76,19c0,0,-32,11,-54,24C97,35,75,48,65,58c0,0,-10,9,-14,28c0,0,-4,18,-4,52c0,0,0,23,1,39c0,0,2,15,5,25c0,0,4,10,9,14c0,0,6,4,13,4c0,0,11,0,30,-12c0,0,19,-13,49,-28c0,0,30,-15,71,-27c0,0,42,-12,96,-12c0,0,36,0,64,8c0,0,29,9,49,25c0,0,19,15,30,38c0,0,10,23,10,52c0,0,0,33,-18,56c0,0,-18,24,-46,42c0,0,-29,18,-66,34c0,0,-36,16,-75,34c0,0,-39,18,-76,41c0,0,-36,23,-65,54c0,0,-29,32,-47,75c0,0,-17,44,-17,104c0,0,0,70,25,122c0,0,26,53,70,88c0,0,43,34,103,51c0,0,59,18,125,18c0,0,35,0,69,-6c0,0,34,-5,64,-14c0,0,30,-9,53,-20c0,0,23,-11,31,-18c0,0,7,-8,10,-13c0,0,3,-5,4,-14c0,0,2,-8,3,-21c0,0,1,-13,1,-33c0,0,0,-21,-1,-36c0,0,-1,-15,-4,-25c0,0,-3,-9,-7,-14c0,0,-5,-4,-14,-4c0,0,-8,0,-26,10c0,0,-18,10,-44,23c0,0,-26,12,-60,22c0,0,-34,10,-75,10c0,0,-32,0,-56,-8c0,0,-24,-8,-40,-21c0,0,-16,-14,-24,-34c0,0,-8,-19,-8,-41c0,0,0,-32,18,-56c0,0,17,-23,46,-42c0,0,30,-18,67,-34c0,0,38,-16,76,-34c0,0,39,-18,76,-41c0,0,38,-22,67,-54c0,0,29,-32,47,-75c0,0,18,-43,18,-101c0,0,0,-76,-29,-133c0,0,-28,-58,-77,-96C572,60,524,21,459,2c0,0,-65,-19,-139,-19Z" 
id="f0_2n"
transform="scale(0.001,-0.001)" />

<path d="M275,-270c0,0,-30,0,-47,3c0,0,-18,2,-27,8c0,0,-9,6,-10,15c0,0,-1,9,5,22L284,0c0,0,-9,4,-17,14c0,0,-8,9,-12,20L26,645c0,0,-10,26,-10,40c0,0,0,14,9,22c0,0,9,8,30,11c0,0,22,3,57,3c0,0,32,0,50,-1c0,0,19,-2,29,-6c0,0,11,-5,16,-14c0,0,5,-9,11,-26L375,228h2L521,683c0,0,4,19,11,25c0,0,7,7,24,10c0,0,16,3,57,3c0,0,32,0,53,-3c0,0,21,-3,31,-12c0,0,11,-8,11,-22c0,0,0,-13,-6,-32L480,0L399,-235c0,0,-7,-18,-37,-27c0,0,-29,-8,-87,-8Z" 
id="f0_co"
transform="scale(0.001,-0.001)" />

<path d="M188,-4c0,0,-28,0,-46,2c0,0,-18,2,-28,5c0,0,-11,3,-16,9c0,0,-4,5,-4,13V691c0,0,0,7,4,13c0,0,3,5,13,9c0,0,10,4,25,6c0,0,15,2,38,2c0,0,24,0,40,-2c0,0,15,-2,24,-6c0,0,9,-4,12,-9c0,0,4,-6,4,-13V614c0,0,55,60,110,89c0,0,55,30,115,30c0,0,41,0,74,-8c0,0,33,-9,59,-25c0,0,26,-16,44,-38c0,0,19,-23,32,-50c0,0,30,32,58,55c0,0,29,23,57,38c0,0,28,14,56,21c0,0,28,7,57,7c0,0,66,0,112,-22c0,0,45,-22,73,-61c0,0,28,-38,40,-90c0,0,12,-51,12,-109V25c0,0,0,-8,-5,-13c0,0,-4,-6,-15,-9c0,0,-10,-3,-28,-5c0,0,-18,-2,-46,-2c0,0,-28,0,-46,2c0,0,-18,2,-29,5c0,0,-11,3,-15,9c0,0,-4,6,-4,13V420c0,0,0,34,-6,61c0,0,-7,28,-20,48c0,0,-13,19,-32,30c0,0,-20,11,-47,11c0,0,-34,0,-68,-26c0,0,-34,-26,-74,-76V25c0,0,0,-7,-5,-13c0,0,-4,-6,-15,-9c0,0,-11,-3,-29,-5c0,0,-18,-2,-45,-2c0,0,-27,0,-45,2c0,0,-18,2,-29,5c0,0,-11,3,-16,9c0,0,-4,6,-4,13V420c0,0,0,34,-6,61c0,0,-7,28,-19,48c0,0,-13,19,-33,30c0,0,-21,11,-48,11c0,0,-34,0,-68,-26c0,0,-35,-26,-74,-76V25c0,0,0,-7,-5,-13c0,0,-4,-6,-15,-9c0,0,-11,-3,-29,-5c0,0,-18,-2,-45,-2Z" 
id="f0_ae"
transform="scale(0.001,-0.001)" />

<path d="M526,431c0,0,2,79,-32,124c0,0,-34,45,-105,45c0,0,-35,0,-62,-13c0,0,-26,-13,-44,-36c0,0,-17,-23,-27,-54c0,0,-9,-31,-11,-66ZM410,-17c0,0,-88,0,-155,22c0,0,-67,22,-112,68c0,0,-44,45,-66,115c0,0,-22,69,-22,162c0,0,0,89,23,161c0,0,23,71,67,120c0,0,44,50,107,76c0,0,63,26,142,26c0,0,84,0,143,-24c0,0,59,-25,97,-69c0,0,38,-43,56,-103c0,0,18,-60,18,-130V377c0,0,0,-34,-15,-51c0,0,-16,-16,-43,-16H245c0,0,0,-43,10,-77c0,0,11,-35,33,-59c0,0,22,-24,56,-37c0,0,35,-13,83,-13c0,0,50,0,87,7c0,0,37,8,65,16c0,0,27,9,45,16c0,0,18,7,29,7c0,0,6,0,11,-2c0,0,4,-3,7,-10c0,0,3,-7,4,-19c0,0,2,-12,2,-31c0,0,0,-16,-1,-28c0,0,-1,-12,-2,-20c0,0,-2,-8,-5,-14c0,0,-3,-5,-8,-10c0,0,-5,-6,-26,-15c0,0,-22,-9,-55,-17c0,0,-34,-8,-77,-14c0,0,-43,-7,-93,-7Z" 
id="f0_7z"
transform="scale(0.001,-0.001)" />

<path d="M344,-14c0,0,-56,0,-97,14c0,0,-42,14,-69,43c0,0,-26,29,-39,74c0,0,-13,45,-13,106V563H47c0,0,-15,0,-22,18c0,0,-7,17,-7,58c0,0,0,22,1,37c0,0,2,15,6,24c0,0,4,8,9,12c0,0,6,4,13,4h79V864c0,0,0,8,4,14c0,0,4,6,15,10c0,0,11,4,29,6c0,0,19,2,46,2c0,0,27,0,46,-2c0,0,18,-2,28,-6c0,0,11,-4,15,-10c0,0,5,-6,5,-14V716H459c0,0,7,0,13,-4c0,0,6,-4,9,-12c0,0,4,-9,6,-24c0,0,2,-15,2,-37c0,0,0,-41,-8,-58c0,0,-7,-18,-21,-18H314V251c0,0,0,-54,17,-81c0,0,17,-27,61,-27c0,0,15,0,27,2c0,0,12,3,22,6c0,0,9,4,15,6c0,0,7,3,12,3c0,0,4,0,9,-3c0,0,4,-2,6,-10c0,0,2,-8,4,-21c0,0,2,-14,2,-35c0,0,0,-33,-4,-50c0,0,-4,-18,-11,-25c0,0,-7,-7,-20,-12c0,0,-13,-5,-31,-9c0,0,-17,-4,-38,-6c0,0,-20,-3,-41,-3Z" 
id="f0_bf"
transform="scale(0.001,-0.001)" />

<path d="M188,-4c0,0,-28,0,-46,2c0,0,-18,2,-28,5c0,0,-11,3,-16,9c0,0,-4,5,-4,13V691c0,0,0,7,4,13c0,0,3,5,13,9c0,0,10,4,25,6c0,0,15,2,38,2c0,0,24,0,40,-2c0,0,15,-2,24,-6c0,0,9,-4,12,-9c0,0,4,-6,4,-13V608c0,0,26,37,49,61c0,0,23,25,44,39c0,0,21,14,42,20c0,0,21,5,42,5c0,0,10,0,21,-1c0,0,11,-1,23,-4c0,0,12,-2,21,-5c0,0,9,-4,13,-8c0,0,4,-3,6,-8c0,0,2,-4,3,-12c0,0,2,-8,2,-24c0,0,1,-15,1,-42c0,0,0,-27,-1,-44c0,0,-2,-17,-5,-27c0,0,-3,-10,-8,-13c0,0,-5,-4,-12,-4c0,0,-6,0,-13,3c0,0,-8,2,-17,5c0,0,-10,3,-21,6c0,0,-11,2,-24,2c0,0,-16,0,-32,-6c0,0,-15,-6,-32,-20c0,0,-17,-13,-35,-36c0,0,-19,-22,-39,-55V25c0,0,0,-8,-5,-13c0,0,-4,-6,-15,-9c0,0,-11,-3,-29,-5c0,0,-18,-2,-45,-2Z" 
id="f0_b1"
transform="scale(0.001,-0.001)" />

<path d="M204,-9c0,0,-63,0,-87,23c0,0,-24,23,-24,89c0,0,0,70,24,94c0,0,25,24,88,24c0,0,62,0,86,-24c0,0,24,-23,24,-90c0,0,0,-69,-24,-93c0,0,-25,-23,-87,-23Z" 
id="f0_nt"
transform="scale(0.001,-0.001)" />

<path d="M409,132c0,0,42,0,73,15c0,0,32,16,52,45c0,0,20,29,29,70c0,0,10,42,10,95c0,0,0,49,-8,91c0,0,-8,41,-26,72c0,0,-19,30,-50,48c0,0,-30,17,-77,17c0,0,-42,0,-73,-16c0,0,-31,-15,-51,-44c0,0,-21,-30,-31,-71c0,0,-10,-42,-10,-95c0,0,0,-49,9,-91c0,0,8,-41,26,-72c0,0,18,-30,49,-47c0,0,32,-17,78,-17ZM402,-17c0,0,-89,0,-154,24c0,0,-66,25,-109,72c0,0,-43,47,-64,115c0,0,-21,69,-21,157c0,0,0,85,23,156c0,0,22,70,68,121c0,0,45,50,113,78c0,0,69,27,160,27c0,0,90,0,155,-24c0,0,66,-24,109,-71c0,0,43,-47,64,-116c0,0,21,-69,21,-157c0,0,0,-86,-23,-156c0,0,-22,-70,-68,-121C676,88,631,38,562,10c0,0,-68,-27,-160,-27Z" 
id="f0_am"
transform="scale(0.001,-0.001)" />

<path d="M224,-4c0,0,-26,0,-45,2c0,0,-18,2,-29,5c0,0,-11,3,-15,9c0,0,-4,5,-4,13V563H48c0,0,-14,0,-21,18c0,0,-7,17,-7,58c0,0,0,22,1,37c0,0,2,15,6,24c0,0,3,8,9,12c0,0,5,4,13,4h82v56c0,0,0,68,13,119c0,0,14,51,43,85c0,0,29,34,73,51c0,0,45,17,105,17c0,0,29,0,55,-5c0,0,27,-4,42,-10c0,0,15,-6,20,-10c0,0,5,-5,8,-15c0,0,4,-9,5,-23c0,0,2,-15,2,-37c0,0,0,-21,-2,-34c0,0,-1,-13,-4,-20c0,0,-3,-7,-7,-10c0,0,-4,-3,-8,-3c0,0,-5,0,-12,3c0,0,-6,3,-16,6c0,0,-9,2,-22,5c0,0,-12,3,-29,3c0,0,-21,0,-35,-7c0,0,-15,-6,-25,-20c0,0,-9,-14,-14,-36c0,0,-4,-22,-4,-54V716H440c0,0,7,0,13,-4c0,0,5,-4,9,-12c0,0,4,-9,5,-24c0,0,2,-15,2,-37c0,0,0,-41,-7,-58c0,0,-8,-18,-22,-18H319V25c0,0,0,-8,-5,-13c0,0,-4,-6,-15,-9c0,0,-10,-3,-29,-5c0,0,-19,-2,-46,-2Z" 
id="f0_89"
transform="scale(0.001,-0.001)" />

<path d="M188,-4c0,0,-28,0,-46,2c0,0,-18,2,-28,5c0,0,-11,3,-16,9c0,0,-4,5,-4,13v981c0,0,0,8,4,14c0,0,5,6,16,10c0,0,10,4,28,6c0,0,18,2,46,2c0,0,27,0,45,-2c0,0,18,-2,29,-6c0,0,11,-4,15,-10c0,0,5,-6,5,-14V25c0,0,0,-8,-5,-13c0,0,-4,-6,-15,-9c0,0,-11,-3,-29,-5c0,0,-18,-2,-45,-2Z" 
id="f0_a8"
transform="scale(0.001,-0.001)" />

<path d="M337,-4c0,0,-38,0,-60,2c0,0,-23,2,-36,5c0,0,-13,5,-19,13c0,0,-6,7,-9,19L37,638c0,0,-7,21,-9,34c0,0,-2,12,-2,20c0,0,0,8,4,13c0,0,4,6,15,9c0,0,11,4,29,5c0,0,19,2,46,2c0,0,30,0,49,-2c0,0,18,-1,29,-5c0,0,10,-4,14,-10c0,0,4,-7,7,-15L351,200l1,-9l2,9L478,689c0,0,2,8,7,15c0,0,4,6,14,10c0,0,10,4,27,5c0,0,18,2,45,2c0,0,28,0,45,-2c0,0,17,-2,27,-5c0,0,10,-4,14,-9c0,0,4,-6,7,-13L796,199l2,-8l2,9L926,689c0,0,2,8,6,15c0,0,5,6,15,10c0,0,11,4,29,5c0,0,18,2,45,2c0,0,28,0,46,-2c0,0,17,-1,27,-5c0,0,10,-3,14,-9c0,0,4,-5,4,-13c0,0,0,-8,-2,-20c0,0,-3,-12,-9,-34L924,35c0,0,-4,-12,-10,-20c0,0,-6,-8,-18,-12c0,0,-12,-4,-35,-5c0,0,-23,-2,-59,-2c0,0,-37,0,-60,2c0,0,-23,2,-36,5c0,0,-13,5,-19,13c0,0,-6,7,-9,19L566,440l-1,7l-2,-7L460,35c0,0,-3,-12,-8,-20c0,0,-6,-8,-19,-12c0,0,-14,-4,-37,-5c0,0,-23,-2,-59,-2Z" 
id="f0_ci"
transform="scale(0.001,-0.001)" />

<path d="M489,-15c0,0,-99,0,-179,30c0,0,-80,30,-136,91c0,0,-56,61,-85,152c0,0,-30,91,-30,212c0,0,0,123,32,218c0,0,33,96,92,161c0,0,59,65,142,98c0,0,82,34,181,34c0,0,40,0,78,-7c0,0,37,-7,69,-18c0,0,31,-11,57,-25c0,0,25,-14,35,-24c0,0,10,-10,14,-17c0,0,4,-7,6,-17c0,0,2,-11,3,-25c0,0,2,-14,2,-35c0,0,0,-22,-2,-38c0,0,-1,-15,-5,-25c0,0,-4,-10,-9,-14c0,0,-5,-5,-12,-5c0,0,-11,0,-28,13c0,0,-18,13,-45,29c0,0,-27,16,-65,29c0,0,-37,13,-89,13c0,0,-58,0,-103,-23c0,0,-45,-23,-77,-67c0,0,-31,-44,-48,-106c0,0,-16,-61,-16,-139c0,0,0,-85,17,-147c0,0,18,-62,50,-103c0,0,33,-40,79,-60c0,0,45,-19,103,-19c0,0,52,0,90,12c0,0,38,12,65,27c0,0,27,15,45,27c0,0,17,12,27,12c0,0,8,0,12,-3c0,0,4,-3,7,-12c0,0,3,-9,5,-25c0,0,1,-16,1,-43c0,0,0,-18,-1,-31c0,0,-1,-14,-3,-23c0,0,-2,-9,-6,-16c0,0,-4,-7,-12,-15c0,0,-8,-9,-32,-22c0,0,-23,-14,-57,-26C661,13,627,1,583,-6c0,0,-43,-9,-94,-9Z" 
id="f0_j"
transform="scale(0.001,-0.001)" />

<path d="M371,-16c0,0,-77,0,-136,23c0,0,-60,24,-100,71c0,0,-40,47,-61,114c0,0,-20,67,-20,154c0,0,0,100,25,173c0,0,25,72,69,120c0,0,45,48,106,71c0,0,62,23,135,23c0,0,29,0,58,-5c0,0,29,-5,54,-14c0,0,25,-9,45,-20c0,0,19,-12,28,-20c0,0,8,-8,11,-14c0,0,3,-5,5,-14c0,0,2,-9,3,-22c0,0,1,-13,1,-32c0,0,0,-43,-7,-61c0,0,-7,-18,-19,-18c0,0,-13,0,-27,11c0,0,-14,10,-34,23c0,0,-19,13,-46,23c0,0,-27,11,-64,11c0,0,-73,0,-112,-57c0,0,-39,-56,-39,-165c0,0,0,-54,10,-95c0,0,10,-41,29,-69c0,0,19,-28,47,-41c0,0,29,-14,67,-14c0,0,39,0,67,11c0,0,28,12,49,26c0,0,21,14,35,26c0,0,14,11,24,11c0,0,6,0,11,-4c0,0,4,-3,7,-13c0,0,2,-11,4,-26c0,0,1,-16,1,-41c0,0,0,-19,-1,-32c0,0,-1,-13,-3,-22c0,0,-2,-9,-4,-15c0,0,-3,-5,-12,-14c0,0,-9,-8,-30,-20C547,27,525,14,497,5c0,0,-27,-9,-60,-15c0,0,-32,-6,-66,-6Z" 
id="f0_7l"
transform="scale(0.001,-0.001)" />

<path d="M188,-4c0,0,-28,0,-46,2c0,0,-18,2,-28,5c0,0,-11,3,-16,9c0,0,-4,5,-4,13V689c0,0,0,8,4,13c0,0,5,6,16,10c0,0,10,4,28,6c0,0,18,3,46,3c0,0,27,0,45,-3c0,0,18,-2,29,-6c0,0,11,-4,15,-10c0,0,5,-5,5,-13V25c0,0,0,-8,-5,-13c0,0,-4,-6,-15,-9c0,0,-11,-3,-29,-5c0,0,-18,-2,-45,-2Zm-1,820c0,0,-63,0,-85,21c0,0,-22,21,-22,75c0,0,0,57,23,79c0,0,23,22,86,22c0,0,63,0,85,-21c0,0,22,-21,22,-76c0,0,0,-56,-23,-78c0,0,-23,-22,-86,-22Z" 
id="f0_9q"
transform="scale(0.001,-0.001)" />

<path d="M224,-9c0,0,-31,0,-51,6c0,0,-20,4,-32,18c0,0,-13,13,-17,34c0,0,-5,22,-5,53c0,0,0,31,5,53c0,0,4,22,17,36c0,0,12,13,32,19c0,0,20,5,51,5c0,0,30,0,50,-5c0,0,20,-6,33,-19c0,0,12,-14,17,-36c0,0,6,-22,6,-53c0,0,0,-31,-6,-53c0,0,-5,-21,-17,-34C307,15,294,1,274,-3c0,0,-20,-6,-50,-6Zm0,487c0,0,-31,0,-51,6c0,0,-20,5,-32,19c0,0,-13,13,-17,34c0,0,-5,21,-5,52c0,0,0,32,5,54c0,0,4,21,17,35c0,0,12,13,32,19c0,0,20,6,51,6c0,0,30,0,50,-6c0,0,20,-6,33,-19c0,0,12,-14,17,-35c0,0,6,-22,6,-54c0,0,0,-31,-6,-52c0,0,-5,-21,-17,-34c0,0,-13,-14,-33,-19c0,0,-20,-6,-50,-6Z" 
id="f0_ns"
transform="scale(0.001,-0.001)" />

<path d="M192,-4c0,0,-18,0,-30,2c0,0,-13,2,-20,3c0,0,-8,3,-11,8c0,0,-3,5,-3,10V913c0,0,0,29,15,40c0,0,16,12,33,12H610c0,0,5,0,10,-3c0,0,5,-3,9,-10c0,0,4,-6,5,-17c0,0,2,-11,2,-25c0,0,0,-14,-2,-24c0,0,-1,-11,-5,-17c0,0,-4,-7,-9,-9c0,0,-5,-3,-10,-3H256V528H591c0,0,5,0,10,-3c0,0,5,-2,8,-8c0,0,4,-6,6,-16c0,0,1,-10,1,-26c0,0,0,-14,-1,-24c0,0,-2,-10,-6,-17c0,0,-3,-6,-8,-9c0,0,-5,-4,-10,-4H256V19c0,0,0,-5,-3,-10c0,0,-3,-5,-10,-8c0,0,-7,-1,-19,-3c0,0,-12,-2,-32,-2Z" 
id="f1_13"
transform="scale(0.001,-0.001)" />

<path d="M176,-4c0,0,-18,0,-30,2c0,0,-12,1,-19,3c0,0,-7,3,-10,7c0,0,-3,4,-3,10v997c0,0,0,6,3,11c0,0,3,4,10,7c0,0,7,3,19,5c0,0,12,1,30,1c0,0,18,0,30,-1c0,0,12,-2,19,-5c0,0,7,-3,9,-7c0,0,3,-5,3,-11V18c0,0,0,-6,-3,-10c0,0,-2,-4,-9,-7c0,0,-7,-2,-19,-3c0,0,-12,-2,-30,-2Z" 
id="f1_a8"
transform="scale(0.001,-0.001)" />

<path d="M401,90c0,0,54,0,93,19c0,0,40,20,65,55c0,0,26,35,37,84c0,0,12,48,12,106c0,0,0,55,-10,104c0,0,-10,48,-33,85c0,0,-23,36,-62,58c0,0,-40,21,-99,21c0,0,-54,0,-93,-20c0,0,-39,-19,-65,-54c0,0,-25,-36,-37,-85c0,0,-12,-48,-12,-106c0,0,0,-55,10,-103c0,0,10,-49,33,-85c0,0,24,-36,63,-58c0,0,39,-21,98,-21ZM395,-13c0,0,-82,0,-144,24c0,0,-61,25,-102,72c0,0,-41,47,-61,114c0,0,-21,67,-21,152c0,0,0,82,22,151c0,0,21,69,64,119c0,0,43,50,107,78c0,0,64,28,150,28c0,0,82,0,144,-25c0,0,61,-25,102,-72c0,0,41,-47,62,-114c0,0,20,-67,20,-151c0,0,0,-83,-21,-152c0,0,-22,-69,-65,-119C652,92,609,42,545,14c0,0,-65,-27,-150,-27Z" 
id="f1_am"
transform="scale(0.001,-0.001)" />

<path d="M176,-4c0,0,-18,0,-30,2c0,0,-12,1,-19,3c0,0,-7,3,-10,7c0,0,-3,4,-3,10V690c0,0,0,6,3,10c0,0,2,4,9,7c0,0,6,4,17,5c0,0,10,1,27,1c0,0,17,0,28,-1c0,0,10,-1,16,-5c0,0,6,-3,9,-7c0,0,3,-4,3,-10V592c0,0,27,41,51,66c0,0,25,26,46,41c0,0,22,14,43,20c0,0,21,6,43,6c0,0,10,0,22,-2c0,0,12,-1,26,-4c0,0,13,-3,24,-6c0,0,11,-4,15,-8c0,0,5,-4,6,-7c0,0,2,-3,3,-9c0,0,1,-5,1,-15c0,0,0,-10,0,-27c0,0,0,-16,0,-28c0,0,-1,-11,-3,-17c0,0,-2,-6,-6,-10c0,0,-3,-3,-9,-3c0,0,-6,0,-15,3c0,0,-8,4,-19,7c0,0,-11,3,-24,6c0,0,-14,3,-29,3c0,0,-19,0,-37,-7c0,0,-18,-8,-37,-25c0,0,-20,-18,-42,-46c0,0,-21,-29,-48,-70V18c0,0,0,-6,-3,-10c0,0,-2,-4,-9,-7c0,0,-7,-2,-19,-3c0,0,-12,-2,-30,-2Z" 
id="f1_b1"
transform="scale(0.001,-0.001)" />

<path d="M321,82c0,0,48,0,90,25c0,0,41,24,87,75V325H392c0,0,-50,0,-88,-9c0,0,-37,-9,-62,-25c0,0,-24,-17,-36,-41c0,0,-11,-23,-11,-54c0,0,0,-52,33,-83c0,0,33,-31,93,-31ZM301,-13c0,0,-53,0,-96,13c0,0,-43,14,-73,40c0,0,-30,26,-47,64c0,0,-17,38,-17,87c0,0,0,56,24,98c0,0,23,42,66,69c0,0,43,28,106,42c0,0,63,14,141,14h93v52c0,0,0,39,-9,69c0,0,-8,30,-26,50c0,0,-18,20,-47,30c0,0,-30,10,-72,10c0,0,-46,0,-82,-11c0,0,-36,-11,-63,-24c0,0,-27,-13,-46,-24c0,0,-18,-11,-27,-11c0,0,-6,0,-10,3c0,0,-5,3,-8,9c0,0,-3,6,-5,16c0,0,-1,9,-1,20c0,0,0,19,2,30c0,0,3,11,13,20c0,0,10,10,35,23c0,0,24,13,56,24c0,0,32,10,70,17c0,0,38,8,77,8c0,0,73,0,123,-17c0,0,51,-16,82,-48c0,0,32,-32,46,-79c0,0,14,-47,14,-110V18c0,0,0,-9,-6,-14c0,0,-6,-4,-16,-6c0,0,-11,-2,-31,-2c0,0,-19,0,-31,2c0,0,-12,2,-17,6c0,0,-5,5,-5,13V85c0,0,-44,-47,-98,-73c0,0,-54,-25,-115,-25Z" 
id="f1_77"
transform="scale(0.001,-0.001)" />

<path d="M564,420c0,0,2,98,-43,153c0,0,-46,56,-134,56c0,0,-46,0,-80,-18c0,0,-35,-17,-58,-45c0,0,-23,-29,-36,-67c0,0,-12,-37,-14,-79ZM405,-13c0,0,-83,0,-145,22c0,0,-62,24,-105,69c0,0,-42,46,-64,114c0,0,-22,69,-22,160c0,0,0,87,23,156c0,0,22,69,64,117c0,0,43,48,102,74c0,0,60,26,134,26c0,0,79,0,135,-26c0,0,55,-25,91,-68c0,0,36,-43,53,-101c0,0,16,-58,16,-123V384c0,0,0,-29,-14,-41c0,0,-15,-13,-33,-13H199c0,0,0,-56,11,-100c0,0,12,-45,38,-77c0,0,26,-33,68,-50c0,0,41,-17,102,-17c0,0,48,0,85,8c0,0,37,8,65,17c0,0,27,10,44,18c0,0,18,8,27,8c0,0,5,0,9,-3c0,0,4,-2,7,-8c0,0,2,-5,3,-14c0,0,1,-9,1,-23c0,0,0,-9,-1,-16c0,0,0,-8,-2,-13c0,0,-1,-6,-3,-10c0,0,-3,-5,-7,-9c0,0,-4,-4,-24,-13c0,0,-20,-10,-53,-18c0,0,-32,-9,-74,-16c0,0,-42,-7,-90,-7Z" 
id="f1_7z"
transform="scale(0.001,-0.001)" />

<path d="M346,-4c0,0,-23,0,-38,2c0,0,-15,1,-24,3c0,0,-9,3,-15,8c0,0,-5,6,-8,13L33,660c0,0,-3,9,-5,15c0,0,-2,7,-2,11c0,0,0,3,0,5c0,0,0,6,3,11c0,0,3,4,10,7c0,0,7,2,18,3c0,0,12,1,29,1c0,0,22,0,35,-1c0,0,13,-1,20,-4c0,0,7,-3,10,-8c0,0,4,-4,7,-11L347,135l3,-9l2,9L540,689c0,0,1,7,5,11c0,0,3,5,11,8c0,0,7,3,19,4c0,0,12,1,32,1c0,0,18,0,29,-1c0,0,11,-1,17,-4c0,0,7,-3,9,-7c0,0,3,-4,3,-10c0,0,0,-3,-1,-6c0,0,0,-4,-1,-7c0,0,0,-4,-2,-8c0,0,-1,-5,-2,-10L430,22c0,0,-3,-8,-8,-13c0,0,-5,-6,-15,-9c0,0,-9,-2,-24,-3c0,0,-15,-1,-37,-1Z" 
id="f1_ch"
transform="scale(0.001,-0.001)" />

<path d="M272,-13c0,0,-35,0,-68,6c0,0,-32,6,-58,13c0,0,-26,9,-44,18c0,0,-17,10,-26,17c0,0,-8,8,-12,21c0,0,-3,14,-3,37c0,0,0,14,1,24c0,0,2,9,4,15c0,0,2,6,6,9c0,0,4,3,10,3c0,0,8,0,24,-11c0,0,16,-10,39,-22c0,0,24,-12,56,-22c0,0,32,-10,74,-10c0,0,31,0,56,7c0,0,26,6,44,19c0,0,19,14,29,34c0,0,10,20,10,47c0,0,0,29,-14,48c0,0,-15,19,-39,34c0,0,-24,15,-53,27c0,0,-30,11,-62,24c0,0,-32,13,-62,29c0,0,-30,16,-54,39c0,0,-24,23,-38,55c0,0,-15,32,-15,77c0,0,0,40,16,76c0,0,15,36,45,63c0,0,31,28,77,44c0,0,46,17,107,17c0,0,27,0,54,-5c0,0,26,-5,48,-11c0,0,22,-7,37,-15c0,0,15,-8,23,-14c0,0,8,-6,11,-11c0,0,2,-4,3,-10c0,0,1,-5,2,-14c0,0,2,-8,2,-20c0,0,0,-12,-2,-22c0,0,-1,-9,-3,-15c0,0,-3,-6,-7,-8c0,0,-3,-3,-8,-3c0,0,-7,0,-19,8c0,0,-13,8,-33,18c0,0,-20,9,-47,17c0,0,-28,9,-63,9c0,0,-31,0,-55,-7c0,0,-24,-7,-39,-20c0,0,-15,-13,-23,-31c0,0,-8,-18,-8,-39c0,0,0,-29,15,-49c0,0,15,-20,39,-35c0,0,24,-15,54,-27c0,0,31,-11,62,-24c0,0,32,-13,63,-29c0,0,31,-15,55,-38c0,0,24,-22,38,-53c0,0,15,-32,15,-75c0,0,0,-51,-19,-92c0,0,-19,-40,-54,-68C463,42,428,15,379,1c0,0,-48,-14,-107,-14Z" 
id="f1_b5"
transform="scale(0.001,-0.001)" />

<path d="M367,-13c0,0,-73,0,-129,23c0,0,-56,24,-93,70c0,0,-38,46,-58,112c0,0,-20,67,-20,154c0,0,0,99,25,171c0,0,24,71,66,116c0,0,42,46,99,68c0,0,58,22,124,22c0,0,32,0,62,-6c0,0,31,-6,56,-16c0,0,25,-10,45,-22c0,0,20,-13,29,-22c0,0,9,-9,12,-14c0,0,3,-5,6,-13c0,0,2,-7,3,-16c0,0,0,-9,0,-22c0,0,0,-29,-6,-41c0,0,-7,-11,-17,-11c0,0,-11,0,-25,12c0,0,-15,12,-37,27c0,0,-23,15,-55,28c0,0,-31,12,-75,12c0,0,-88,0,-136,-68c0,0,-47,-68,-47,-198c0,0,0,-65,12,-114c0,0,12,-49,36,-81c0,0,24,-33,59,-49c0,0,35,-16,79,-16c0,0,43,0,75,13c0,0,32,14,56,30c0,0,23,16,39,29c0,0,16,13,25,13c0,0,5,0,9,-3c0,0,4,-3,7,-10c0,0,2,-7,3,-18c0,0,1,-11,1,-26c0,0,0,-12,0,-22c0,0,-1,-9,-3,-15c0,0,-2,-7,-4,-12c0,0,-3,-4,-12,-14c0,0,-10,-9,-32,-23c0,0,-22,-14,-50,-24C496,11,468,0,435,-6c0,0,-33,-7,-68,-7Z" 
id="f1_7l"
transform="scale(0.001,-0.001)" />

<path d="M252,-271c0,0,-19,0,-31,2c0,0,-12,2,-18,6c0,0,-7,5,-8,12c0,0,0,8,4,18L292,0c0,0,-7,3,-13,10c0,0,-6,6,-8,14L31,665c0,0,-6,16,-6,25c0,0,0,9,6,14c0,0,6,5,20,7c0,0,13,2,36,2c0,0,22,0,35,-1c0,0,12,-1,20,-4c0,0,7,-3,11,-9c0,0,3,-6,7,-15L351,145h3L539,687c0,0,4,14,10,18c0,0,7,4,19,6c0,0,13,2,37,2c0,0,21,0,34,-2c0,0,14,-2,20,-7c0,0,6,-5,6,-14c0,0,0,-9,-4,-23L420,0L330,-246c0,0,-4,-12,-22,-18c0,0,-19,-7,-56,-7Z" 
id="f1_co"
transform="scale(0.001,-0.001)" />

<path d="M176,-4c0,0,-18,0,-30,2c0,0,-12,1,-19,3c0,0,-7,3,-10,7c0,0,-3,4,-3,10V690c0,0,0,5,3,9c0,0,3,5,10,8c0,0,7,3,19,4c0,0,12,2,30,2c0,0,18,0,30,-2c0,0,12,-1,19,-4c0,0,7,-3,9,-8c0,0,3,-4,3,-9V18c0,0,0,-6,-3,-10c0,0,-2,-4,-9,-7c0,0,-7,-2,-19,-3c0,0,-12,-2,-30,-2Zm-1,846c0,0,-43,0,-59,15c0,0,-16,15,-16,58c0,0,0,43,16,59c0,0,17,16,61,16c0,0,43,0,59,-16c0,0,16,-15,16,-58c0,0,0,-43,-16,-58c0,0,-17,-16,-61,-16Z" 
id="f1_9q"
transform="scale(0.001,-0.001)" />

<path d="M176,-4c0,0,-18,0,-30,2c0,0,-12,1,-19,3c0,0,-7,3,-10,7c0,0,-3,4,-3,10V690c0,0,0,6,3,10c0,0,2,4,9,7c0,0,6,4,17,5c0,0,10,1,27,1c0,0,17,0,28,-1c0,0,10,-1,16,-5c0,0,6,-3,9,-7c0,0,3,-4,3,-10V601c0,0,56,64,112,94c0,0,57,30,114,30c0,0,67,0,113,-23c0,0,46,-23,74,-61c0,0,29,-38,41,-89c0,0,12,-52,12,-123V18c0,0,0,-6,-3,-10c0,0,-3,-4,-9,-7c0,0,-7,-2,-19,-3c0,0,-12,-2,-30,-2c0,0,-19,0,-30,2c0,0,-12,1,-19,3c0,0,-7,3,-10,7c0,0,-3,4,-3,10V412c0,0,0,58,-9,93c0,0,-9,35,-26,61c0,0,-17,25,-44,38c0,0,-27,14,-63,14c0,0,-46,0,-93,-33c0,0,-46,-33,-97,-96V18c0,0,0,-6,-3,-10c0,0,-2,-4,-9,-7c0,0,-7,-2,-19,-3c0,0,-12,-2,-30,-2Z" 
id="f1_af"
transform="scale(0.001,-0.001)" />

<path d="M346,-177c0,0,56,0,94,11c0,0,37,11,60,28c0,0,24,18,34,41c0,0,10,23,10,49c0,0,0,43,-36,65c0,0,-35,23,-95,25L239,48c0,0,-24,-19,-39,-35c0,0,-15,-16,-24,-31c0,0,-9,-16,-12,-30c0,0,-4,-15,-4,-31c0,0,0,-48,49,-73c0,0,50,-25,137,-25Zm-6,512c0,0,36,0,63,12c0,0,27,12,44,32c0,0,18,21,26,48c0,0,9,27,9,56c0,0,0,69,-38,107c0,0,-37,39,-107,39c0,0,-35,0,-62,-12c0,0,-26,-12,-44,-33c0,0,-17,-21,-26,-48c0,0,-8,-28,-8,-58c0,0,0,-66,37,-104c0,0,38,-39,106,-39Zm0,-606c0,0,-81,0,-138,14c0,0,-57,14,-94,38c0,0,-36,24,-52,57c0,0,-17,33,-17,72c0,0,0,24,6,47c0,0,6,24,18,43c0,0,13,21,31,40c0,0,18,19,42,38c0,0,-36,19,-54,47c0,0,-17,28,-17,61c0,0,0,45,18,81c0,0,19,36,46,64c0,0,-23,28,-36,62c0,0,-14,35,-14,84c0,0,0,58,20,104c0,0,19,45,53,77c0,0,35,31,83,48c0,0,48,17,105,17c0,0,30,0,57,-4c0,0,26,-3,49,-9H649c0,0,13,0,19,-12c0,0,7,-13,7,-38c0,0,0,-26,-7,-37c0,0,-7,-12,-19,-12H553c0,0,26,-27,37,-60c0,0,10,-32,10,-68c0,0,0,-58,-18,-103c0,0,-19,-45,-54,-76c0,0,-34,-31,-82,-47c0,0,-48,-16,-106,-16c0,0,-41,0,-78,10c0,0,-37,11,-57,28c0,0,-14,-14,-22,-31c0,0,-9,-17,-9,-39c0,0,0,-27,24,-44c0,0,25,-17,65,-18l175,-8c0,0,50,-1,92,-14c0,0,41,-12,72,-35c0,0,31,-22,48,-55c0,0,17,-34,17,-76c0,0,0,-47,-20,-88c0,0,-19,-42,-59,-74c0,0,-40,-31,-102,-50c0,0,-61,-18,-146,-18Z" 
id="f1_9d"
transform="scale(0.001,-0.001)" />

<path d="M366,92c0,0,25,0,48,7c0,0,22,6,46,22c0,0,24,16,50,41c0,0,26,24,56,61V492c0,0,-51,62,-97,94c0,0,-47,33,-98,33c0,0,-47,0,-79,-22c0,0,-33,-23,-54,-59c0,0,-20,-37,-30,-83c0,0,-9,-47,-9,-94c0,0,0,-51,8,-100c0,0,8,-48,27,-86c0,0,19,-38,52,-60c0,0,32,-23,80,-23ZM345,-13c0,0,-74,0,-127,28c0,0,-52,29,-84,78c0,0,-33,49,-48,115c0,0,-15,66,-15,139c0,0,0,86,19,156c0,0,19,70,55,119c0,0,37,50,91,76c0,0,54,27,125,27c0,0,59,0,108,-26c0,0,49,-26,97,-76v390c0,0,0,5,2,10c0,0,3,4,10,7c0,0,8,3,19,5c0,0,12,1,30,1c0,0,18,0,30,-1c0,0,12,-2,19,-5c0,0,7,-3,10,-7c0,0,3,-5,3,-10V18c0,0,0,-6,-2,-10c0,0,-3,-5,-9,-7c0,0,-7,-2,-17,-3c0,0,-10,-2,-25,-2c0,0,-16,0,-26,2c0,0,-11,1,-18,3c0,0,-6,2,-9,7c0,0,-3,4,-3,10v90c0,0,-53,-58,-110,-90c0,0,-58,-31,-125,-31Z" 
id="f1_7v"
transform="scale(0.001,-0.001)" />

<path d="M209,-4c0,0,-18,0,-30,2c0,0,-12,1,-19,3c0,0,-7,3,-10,7c0,0,-3,4,-3,10V607H52c0,0,-12,0,-18,12c0,0,-6,12,-6,39c0,0,0,14,2,24c0,0,1,10,4,16c0,0,3,7,8,9c0,0,4,3,10,3h95v69c0,0,0,71,13,121c0,0,13,50,40,82c0,0,27,33,67,48c0,0,41,15,96,15c0,0,26,0,51,-5c0,0,25,-4,38,-10c0,0,13,-6,18,-10c0,0,4,-5,7,-12c0,0,3,-7,5,-17c0,0,1,-10,1,-24c0,0,0,-15,-2,-23c0,0,-1,-9,-3,-14c0,0,-2,-5,-5,-7c0,0,-3,-2,-8,-2c0,0,-5,0,-13,3c0,0,-7,4,-19,8c0,0,-11,4,-26,7c0,0,-15,4,-36,4c0,0,-27,0,-47,-9c0,0,-19,-9,-31,-28c0,0,-12,-19,-17,-50c0,0,-5,-30,-5,-73V710H421c0,0,6,0,10,-3c0,0,4,-2,7,-9c0,0,4,-6,6,-16c0,0,2,-10,2,-24c0,0,0,-27,-7,-39c0,0,-7,-12,-18,-12H271V18c0,0,0,-6,-3,-10c0,0,-3,-4,-11,-7c0,0,-7,-2,-19,-3c0,0,-12,-2,-29,-2Z" 
id="f1_89"
transform="scale(0.001,-0.001)" />

<path d="M324,-4c0,0,-23,0,-37,2c0,0,-15,1,-24,3c0,0,-9,3,-14,8c0,0,-4,6,-7,13L46,660c0,0,-4,11,-5,18c0,0,-2,8,-2,13c0,0,0,7,3,11c0,0,3,4,10,7c0,0,8,2,19,3c0,0,12,1,30,1c0,0,20,0,33,-1c0,0,13,-1,20,-4c0,0,6,-3,9,-8c0,0,3,-4,5,-11L330,136l2,-7l1,7L482,689c0,0,1,7,5,11c0,0,3,5,10,8c0,0,6,3,18,4c0,0,12,1,31,1c0,0,18,0,29,-1c0,0,12,-1,18,-4c0,0,7,-3,10,-7c0,0,3,-5,5,-11L768,136l1,-7l1,7L930,689c0,0,1,7,5,11c0,0,3,5,10,8c0,0,7,3,20,4c0,0,12,1,31,1c0,0,18,0,29,-1c0,0,11,-1,17,-4c0,0,6,-3,9,-6c0,0,3,-4,3,-11c0,0,0,-5,-2,-13c0,0,-1,-7,-5,-18L849,22c0,0,-2,-8,-7,-13c0,0,-5,-6,-13,-9c0,0,-9,-2,-24,-3c0,0,-15,-1,-37,-1c0,0,-23,0,-39,2c0,0,-15,1,-25,3c0,0,-9,3,-14,8c0,0,-4,6,-6,13L543,510l-2,6l-2,-6L409,22c0,0,-3,-8,-7,-13c0,0,-5,-6,-15,-9c0,0,-10,-2,-25,-3c0,0,-15,-1,-38,-1Z" 
id="f1_ci"
transform="scale(0.001,-0.001)" />

<path d="M192,-6c0,0,-45,0,-62,16c0,0,-18,18,-18,69c0,0,0,53,18,71c0,0,18,17,64,17c0,0,45,0,62,-17c0,0,17,-17,17,-69c0,0,0,-53,-18,-70c0,0,-17,-17,-63,-17Z" 
id="f1_nt"
transform="scale(0.001,-0.001)" />

<path d="M432,142c0,0,36,0,62,18c0,0,26,19,42,49c0,0,16,31,24,69c0,0,8,38,8,76c0,0,0,43,-6,82c0,0,-7,39,-22,70c0,0,-15,30,-40,49c0,0,-25,18,-62,18c0,0,-19,0,-37,-6c0,0,-19,-5,-38,-18c0,0,-19,-13,-39,-33c0,0,-20,-20,-42,-50V247c0,0,39,-51,75,-78c0,0,36,-27,75,-27ZM188,-270c0,0,-28,0,-46,2c0,0,-18,3,-28,7c0,0,-11,4,-16,10c0,0,-4,6,-4,13V691c0,0,0,7,4,13c0,0,3,5,13,9c0,0,9,4,24,6c0,0,15,2,39,2c0,0,22,0,37,-2c0,0,15,-2,25,-6c0,0,9,-4,13,-9c0,0,4,-6,4,-13V612c0,0,29,30,57,53c0,0,28,23,57,38c0,0,29,15,60,23c0,0,31,7,66,7c0,0,73,0,124,-28c0,0,52,-29,84,-79c0,0,33,-50,48,-117c0,0,15,-66,15,-141c0,0,0,-89,-19,-161c0,0,-19,-71,-56,-121C689,86,652,36,598,9c0,0,-54,-26,-125,-26c0,0,-29,0,-53,6c0,0,-24,6,-47,16c0,0,-23,12,-45,29c0,0,-23,17,-46,40V-238c0,0,0,-7,-5,-13c0,0,-4,-6,-15,-10c0,0,-11,-4,-29,-7c0,0,-18,-2,-45,-2Z" 
id="f0_ay"
transform="scale(0.001,-0.001)" />

<path d="M337,115c0,0,39,0,73,21c0,0,33,20,67,59V308H405c0,0,-45,0,-77,-7c0,0,-32,-6,-53,-20c0,0,-20,-13,-29,-32c0,0,-9,-19,-9,-44c0,0,0,-42,26,-66c0,0,27,-24,74,-24ZM296,-17c0,0,-53,0,-98,14c0,0,-44,13,-77,40c0,0,-32,28,-50,68c0,0,-18,40,-18,94c0,0,0,58,23,101c0,0,22,43,68,71c0,0,45,28,112,42c0,0,67,13,156,13h65v40c0,0,0,32,-6,55c0,0,-7,24,-21,39c0,0,-15,16,-39,23c0,0,-24,8,-60,8c0,0,-47,0,-84,-11c0,0,-37,-10,-66,-23c0,0,-28,-13,-47,-23c0,0,-19,-11,-31,-11c0,0,-9,0,-15,5c0,0,-6,6,-10,15c0,0,-5,10,-7,24c0,0,-2,14,-2,31c0,0,0,23,4,37c0,0,3,13,14,24c0,0,10,11,36,24c0,0,27,13,62,25c0,0,35,11,76,18c0,0,42,7,86,7c0,0,78,0,134,-15c0,0,55,-15,91,-47c0,0,36,-32,53,-82c0,0,16,-50,16,-118V23c0,0,0,-11,-7,-17c0,0,-8,-6,-24,-7c0,0,-16,-3,-47,-3c0,0,-34,0,-49,3c0,0,-15,1,-21,7c0,0,-7,6,-7,17V76C506,76,465,32,412,7c0,0,-52,-24,-116,-24Z" 
id="f0_77"
transform="scale(0.001,-0.001)" />

<path d="M94,-225c0,0,-31,0,-50,3c0,0,-20,3,-30,9c0,0,-10,6,-11,15c0,0,-2,10,3,22L452,1075c0,0,3,10,9,16c0,0,6,7,16,10c0,0,10,4,27,6c0,0,17,2,41,2c0,0,31,0,50,-3c0,0,19,-3,29,-9c0,0,9,-6,11,-15c0,0,1,-10,-2,-22L188,-192c0,0,-4,-10,-10,-16c0,0,-6,-6,-17,-9c0,0,-11,-4,-27,-6c0,0,-16,-2,-40,-2Z" 
id="f0_od"
transform="scale(0.001,-0.001)" />

<path d="M589,371L453,782h-1L317,371ZM106,-4c0,0,-35,0,-54,2C52,-2,32,0,25,8c0,0,-7,9,-5,24c0,0,2,16,11,42L329,931c0,0,4,13,10,21c0,0,6,7,19,12c0,0,13,4,36,5c0,0,23,1,61,1c0,0,44,0,71,-1c0,0,26,-1,40,-5c0,0,15,-5,21,-13c0,0,6,-8,11,-22L896,73c0,0,9,-27,11,-43c0,0,3,-15,-6,-23c0,0,-8,-7,-29,-9c0,0,-21,-2,-57,-2c0,0,-38,0,-59,1c0,0,-22,1,-33,4c0,0,-11,3,-16,9c0,0,-4,6,-7,16L635,220H272L211,31c0,0,-2,-11,-7,-18c0,0,-5,-7,-16,-11c0,0,-11,-3,-31,-4c0,0,-19,-2,-51,-2Z" 
id="f0_5"
transform="scale(0.001,-0.001)" />

<path d="M429,92c0,0,47,0,80,22c0,0,33,23,54,60c0,0,20,38,30,84c0,0,10,46,10,93c0,0,0,52,-8,100c0,0,-8,48,-27,86c0,0,-19,37,-51,60c0,0,-32,22,-80,22c0,0,-24,0,-47,-7c0,0,-23,-7,-47,-23c0,0,-24,-15,-50,-40c0,0,-26,-25,-56,-62V220c0,0,51,-62,97,-95c0,0,45,-33,95,-33ZM176,-271c0,0,-18,0,-30,2c0,0,-12,1,-19,4c0,0,-7,3,-10,8c0,0,-3,4,-3,10V690c0,0,0,6,3,10c0,0,2,5,9,8c0,0,6,3,17,4c0,0,10,1,25,1c0,0,16,0,26,-1c0,0,10,-1,17,-4c0,0,6,-3,9,-7c0,0,3,-4,3,-11V601c0,0,30,31,59,54c0,0,28,23,57,39c0,0,28,15,59,23c0,0,30,8,63,8c0,0,74,0,125,-29c0,0,52,-28,84,-77c0,0,32,-50,47,-115c0,0,15,-65,15,-139c0,0,0,-88,-19,-158c0,0,-19,-70,-56,-119c0,0,-37,-49,-91,-75c0,0,-55,-26,-125,-26c0,0,-30,0,-55,6c0,0,-25,6,-50,18c0,0,-24,13,-48,32c0,0,-24,19,-51,46V-247c0,0,0,-6,-3,-10c0,0,-2,-5,-9,-8c0,0,-7,-3,-19,-4c0,0,-12,-2,-30,-2Z" 
id="f1_ay"
transform="scale(0.001,-0.001)" />

<path d="M176,-4c0,0,-18,0,-30,2c0,0,-12,1,-19,3c0,0,-7,3,-10,7c0,0,-3,4,-3,10V690c0,0,0,6,3,10c0,0,2,4,9,7c0,0,6,4,17,5c0,0,10,1,27,1c0,0,17,0,28,-1c0,0,10,-1,16,-5c0,0,6,-3,9,-7c0,0,3,-4,3,-10V601c0,0,56,64,110,94c0,0,53,30,108,30c0,0,42,0,75,-10c0,0,33,-10,58,-28c0,0,26,-17,44,-42c0,0,18,-24,30,-55c0,0,33,37,63,63c0,0,31,26,59,41c0,0,28,16,54,23c0,0,27,8,53,8c0,0,65,0,109,-23c0,0,44,-23,71,-61c0,0,28,-38,39,-89c0,0,12,-52,12,-108V18c0,0,0,-6,-3,-10c0,0,-3,-4,-10,-7c0,0,-7,-2,-19,-3c0,0,-12,-2,-29,-2c0,0,-19,0,-31,2c0,0,-12,1,-19,3c0,0,-7,3,-10,7c0,0,-3,4,-3,10V427c0,0,0,43,-8,78c0,0,-7,35,-23,61c0,0,-17,25,-42,38c0,0,-25,14,-60,14c0,0,-42,0,-85,-33c0,0,-43,-33,-94,-96V18c0,0,0,-6,-3,-10c0,0,-3,-4,-11,-7c0,0,-7,-2,-19,-3c0,0,-11,-2,-29,-2c0,0,-18,0,-30,2c0,0,-12,1,-19,3c0,0,-7,3,-10,7c0,0,-3,4,-3,10V427c0,0,0,43,-8,78c0,0,-8,35,-24,61c0,0,-17,25,-42,38c0,0,-25,14,-59,14c0,0,-43,0,-86,-33c0,0,-44,-33,-95,-96V18c0,0,0,-6,-3,-10c0,0,-2,-4,-9,-7c0,0,-7,-2,-19,-3c0,0,-12,-2,-30,-2Z" 
id="f1_ae"
transform="scale(0.001,-0.001)" />

<path d="M142,0c0,0,-6,0,-12,4c0,0,-5,3,-9,12c0,0,-4,9,-6,23c0,0,-3,15,-3,36c0,0,0,21,2,36c0,0,2,14,6,23c0,0,4,9,10,13c0,0,5,5,12,5H322V779L166,693c0,0,-17,-8,-28,-10c0,0,-1,0,-3,0c-4,0,-10,1,-14,5c0,0,-6,6,-8,22c0,0,-2,15,-2,44c0,0,0,18,0,29c0,0,1,12,4,20c0,0,3,8,8,14c0,0,5,5,14,11L345,962c0,0,4,3,9,5c0,0,6,2,15,3c0,0,9,1,23,2c0,0,15,0,38,0c0,0,28,0,46,-1c0,0,17,-1,26,-4c0,0,9,-3,12,-7c0,0,3,-4,3,-11V152H675c0,0,7,0,12,-5c0,0,6,-4,10,-13c0,0,4,-9,6,-23c0,0,2,-15,2,-36c0,0,0,-21,-2,-36c0,0,-3,-14,-7,-23c0,0,-4,-9,-9,-12c0,0,-5,-4,-12,-4Z" 
id="f0_ry"
transform="scale(0.001,-0.001)" />

<path d="M188,-4c0,0,-28,0,-46,2c0,0,-18,2,-28,5c0,0,-11,3,-16,9c0,0,-4,5,-4,13V691c0,0,0,7,4,13c0,0,3,5,13,9c0,0,10,4,25,6c0,0,15,2,38,2c0,0,24,0,40,-2c0,0,15,-2,24,-6c0,0,9,-4,12,-9c0,0,4,-6,4,-13V614c0,0,55,60,112,89c0,0,57,30,119,30c0,0,68,0,115,-22c0,0,47,-22,75,-61c0,0,29,-38,42,-90c0,0,12,-51,12,-124V25c0,0,0,-8,-4,-13c0,0,-5,-6,-15,-9c0,0,-10,-3,-29,-5c0,0,-18,-2,-45,-2c0,0,-28,0,-46,2c0,0,-18,2,-29,5c0,0,-10,3,-15,9c0,0,-4,6,-4,13V405c0,0,0,49,-7,76c0,0,-7,28,-21,48c0,0,-13,19,-35,30c0,0,-21,11,-49,11c0,0,-36,0,-72,-26c0,0,-37,-26,-76,-76V25c0,0,0,-7,-5,-13c0,0,-4,-6,-15,-9c0,0,-11,-3,-29,-5c0,0,-18,-2,-45,-2Z" 
id="f0_af"
transform="scale(0.001,-0.001)" />

<path d="M188,-4c0,0,-28,0,-46,2c0,0,-18,2,-28,5c0,0,-11,3,-16,9c0,0,-4,5,-4,13v981c0,0,0,8,4,14c0,0,5,6,16,10c0,0,10,4,28,6c0,0,18,2,46,2c0,0,27,0,45,-2c0,0,18,-2,29,-6c0,0,11,-4,15,-10c0,0,5,-6,5,-14V639c0,0,48,47,98,71c0,0,51,23,105,23c0,0,68,0,115,-22c0,0,47,-22,75,-61c0,0,29,-39,42,-91c0,0,12,-52,12,-126V25c0,0,0,-8,-4,-13c0,0,-5,-6,-15,-9c0,0,-10,-3,-29,-5c0,0,-18,-2,-45,-2c0,0,-28,0,-46,2c0,0,-18,2,-29,5c0,0,-10,3,-15,9c0,0,-4,6,-4,13V405c0,0,0,49,-7,76c0,0,-7,28,-21,48c0,0,-13,19,-35,30c0,0,-21,11,-49,11c0,0,-36,0,-72,-26c0,0,-37,-26,-76,-76V25c0,0,0,-7,-5,-13c0,0,-4,-6,-15,-9c0,0,-11,-3,-29,-5c0,0,-18,-2,-45,-2Z" 
id="f0_9n"
transform="scale(0.001,-0.001)" />

<path d="M79,326c0,0,-14,0,-20,11c0,0,-7,12,-7,40c0,0,0,29,7,40c0,0,6,11,20,11H390c0,0,6,0,11,-2c0,0,5,-2,8,-9c0,0,4,-6,6,-16c0,0,2,-9,2,-24c0,0,0,-29,-7,-40c0,0,-7,-11,-20,-11Z" 
id="f1_oj"
transform="scale(0.001,-0.001)" />

<path d="M431,92c0,0,46,0,79,22c0,0,33,23,53,60c0,0,21,37,30,83c0,0,10,46,10,93c0,0,0,51,-8,100c0,0,-8,49,-28,86c0,0,-19,37,-51,60c0,0,-32,23,-80,23c0,0,-24,0,-47,-7c0,0,-23,-7,-47,-22c0,0,-24,-16,-50,-41c0,0,-25,-24,-55,-62V219c0,0,51,-62,98,-95c0,0,46,-32,96,-32ZM443,-13c0,0,-32,0,-59,7c0,0,-27,6,-53,19c0,0,-26,14,-52,36c0,0,-27,22,-56,52V18c0,0,0,-6,-3,-10c0,0,-3,-5,-9,-7c0,0,-7,-2,-17,-3c0,0,-10,-2,-26,-2c0,0,-15,0,-25,2c0,0,-11,1,-17,3c0,0,-7,2,-9,7c0,0,-3,4,-3,10v997c0,0,0,6,3,11c0,0,3,4,10,7c0,0,7,3,19,5c0,0,12,1,30,1c0,0,18,0,30,-1c0,0,12,-2,19,-5c0,0,7,-3,9,-7c0,0,3,-5,3,-10V614c0,0,30,31,58,52c0,0,28,20,55,34c0,0,27,13,54,19c0,0,27,6,57,6c0,0,73,0,125,-30c0,0,52,-29,84,-78c0,0,32,-48,47,-114c0,0,15,-66,15,-139c0,0,0,-87,-19,-157c0,0,-19,-70,-56,-119c0,0,-37,-49,-90,-76c0,0,-54,-25,-124,-25Z" 
id="f1_7k"
transform="scale(0.001,-0.001)" />

<path d="M339,-13c0,0,-52,0,-90,13c0,0,-37,14,-61,42c0,0,-24,28,-34,71c0,0,-11,43,-11,101V607H49c0,0,-11,0,-18,12c0,0,-7,12,-7,39c0,0,0,14,2,24c0,0,2,10,5,16c0,0,3,7,8,9c0,0,5,3,11,3h93V870c0,0,0,5,2,9c0,0,3,5,10,8c0,0,7,4,19,5c0,0,12,2,30,2c0,0,19,0,31,-2c0,0,11,-1,18,-5c0,0,7,-3,10,-8c0,0,3,-4,3,-9V710H438c0,0,6,0,10,-3c0,0,5,-2,8,-9c0,0,4,-6,5,-16c0,0,1,-10,1,-24c0,0,0,-27,-6,-39c0,0,-7,-12,-18,-12H266V232c0,0,0,-69,20,-105c0,0,21,-35,74,-35c0,0,17,0,30,3c0,0,14,4,24,7c0,0,10,4,18,7c0,0,7,4,13,4c0,0,4,0,7,-2c0,0,4,-2,6,-7c0,0,2,-5,3,-14c0,0,1,-9,1,-23c0,0,0,-22,-2,-34c0,0,-3,-13,-9,-19c0,0,-6,-6,-18,-11c0,0,-12,-4,-28,-8c0,0,-15,-3,-32,-5c0,0,-17,-3,-34,-3Z" 
id="f1_bf"
transform="scale(0.001,-0.001)" />

<path d="M366,92c0,0,25,0,48,7c0,0,22,6,46,22c0,0,24,16,50,41c0,0,26,24,56,61V492c0,0,-51,62,-97,94c0,0,-47,33,-98,33c0,0,-47,0,-79,-22c0,0,-33,-23,-54,-59c0,0,-20,-37,-30,-83c0,0,-9,-47,-9,-94c0,0,0,-52,8,-100c0,0,8,-49,27,-86c0,0,19,-38,52,-60c0,0,32,-23,80,-23ZM627,-271c0,0,-18,0,-30,2c0,0,-11,1,-19,4c0,0,-7,3,-10,8c0,0,-2,4,-2,10V97c0,0,-31,-31,-59,-52c0,0,-27,-21,-54,-34c0,0,-27,-12,-54,-18c0,0,-28,-6,-57,-6c0,0,-73,0,-124,28c0,0,-52,29,-84,78c0,0,-33,49,-48,115c0,0,-15,66,-15,139c0,0,0,86,19,156c0,0,19,70,56,119c0,0,37,50,91,76c0,0,54,27,125,27c0,0,30,0,56,-7c0,0,26,-6,52,-20c0,0,25,-14,52,-36c0,0,26,-22,58,-52v80c0,0,0,7,3,11c0,0,3,4,9,7c0,0,7,3,18,4c0,0,10,1,26,1c0,0,15,0,25,-1c0,0,10,-1,17,-4c0,0,6,-3,9,-8c0,0,2,-4,2,-10V-247c0,0,0,-6,-3,-10c0,0,-3,-5,-10,-8c0,0,-7,-3,-19,-4c0,0,-12,-2,-30,-2Z" 
id="f1_b0"
transform="scale(0.001,-0.001)" />

<path d="M351,-13c0,0,-67,0,-113,22c0,0,-46,22,-75,60c0,0,-28,39,-40,90c0,0,-13,51,-13,124V690c0,0,0,6,3,10c0,0,3,4,10,7c0,0,8,4,20,5c0,0,11,1,29,1c0,0,18,0,30,-1c0,0,12,-1,19,-5c0,0,7,-3,10,-7c0,0,3,-4,3,-10V299c0,0,0,-59,9,-94c0,0,8,-36,26,-61c0,0,18,-24,44,-38c0,0,27,-14,63,-14c0,0,46,0,92,33c0,0,46,32,98,95V690c0,0,0,6,2,10c0,0,3,4,10,7c0,0,8,4,19,5c0,0,12,1,30,1c0,0,18,0,30,-1c0,0,12,-1,19,-5c0,0,7,-3,10,-7c0,0,3,-4,3,-10V18c0,0,0,-6,-2,-10c0,0,-3,-4,-10,-7c0,0,-6,-2,-17,-3c0,0,-11,-2,-27,-2c0,0,-17,0,-28,2c0,0,-10,1,-17,3c0,0,-6,3,-8,7c0,0,-3,4,-3,10v89c0,0,-57,-63,-113,-92c0,0,-56,-28,-113,-28Z" 
id="f1_c6"
transform="scale(0.001,-0.001)" />

<path d="M176,-4c0,0,-18,0,-30,2c0,0,-12,1,-19,3c0,0,-7,3,-10,7c0,0,-3,4,-3,10v997c0,0,0,6,3,11c0,0,3,4,10,7c0,0,7,3,19,5c0,0,12,1,30,1c0,0,18,0,30,-1c0,0,12,-2,19,-5c0,0,7,-3,9,-7c0,0,3,-5,3,-10V614c0,0,53,56,107,83c0,0,54,28,108,28c0,0,67,0,113,-23c0,0,46,-23,74,-61c0,0,29,-38,41,-89c0,0,12,-52,12,-124V18c0,0,0,-6,-3,-10c0,0,-3,-4,-9,-7c0,0,-7,-2,-19,-3c0,0,-12,-2,-30,-2c0,0,-19,0,-30,2c0,0,-12,1,-19,3c0,0,-7,3,-10,7c0,0,-3,4,-3,10V412c0,0,0,58,-9,93c0,0,-9,35,-26,61c0,0,-17,25,-44,38c0,0,-27,14,-63,14c0,0,-46,0,-93,-33c0,0,-46,-33,-97,-96V18c0,0,0,-6,-3,-10c0,0,-2,-4,-9,-7c0,0,-7,-2,-19,-3c0,0,-12,-2,-30,-2Z" 
id="f1_9n"
transform="scale(0.001,-0.001)" />

<path d="M176,0c0,0,-17,0,-33,12c0,0,-15,11,-15,40V913c0,0,0,29,15,41c0,0,16,11,33,11H635c0,0,6,0,10,-3c0,0,5,-3,8,-10c0,0,3,-6,5,-16c0,0,2,-10,2,-25c0,0,0,-14,-2,-24c0,0,-2,-10,-5,-16c0,0,-3,-7,-8,-10c0,0,-4,-2,-10,-2H256V555H581c0,0,6,0,11,-3c0,0,5,-3,8,-9c0,0,3,-6,5,-17c0,0,1,-10,1,-24c0,0,0,-14,-1,-23c0,0,-2,-10,-5,-16c0,0,-3,-6,-8,-9c0,0,-5,-2,-11,-2H256V107H640c0,0,6,0,11,-3c0,0,4,-3,8,-10c0,0,4,-6,5,-16c0,0,2,-10,2,-25c0,0,0,-14,-2,-24c0,0,-1,-10,-5,-16c0,0,-4,-7,-8,-10c0,0,-5,-3,-11,-3Z" 
id="f1_t"
transform="scale(0.001,-0.001)" />

<path d="M218,-6c0,0,-24,0,-39,4c0,0,-15,3,-24,13c0,0,-8,10,-12,27c0,0,-3,16,-3,41c0,0,0,24,3,41c0,0,4,17,12,27c0,0,9,9,24,14c0,0,15,4,39,4c0,0,23,0,38,-4c0,0,15,-5,24,-14c0,0,10,-10,13,-27c0,0,3,-17,3,-41c0,0,0,-25,-3,-41c0,0,-3,-17,-13,-27c0,0,-9,-10,-24,-13c0,0,-15,-4,-38,-4Zm0,518c0,0,-24,0,-39,4c0,0,-15,5,-24,15c0,0,-8,10,-12,26c0,0,-3,16,-3,40c0,0,0,26,3,42c0,0,4,17,12,27c0,0,9,10,24,14c0,0,15,4,39,4c0,0,23,0,38,-4c0,0,15,-4,24,-14c0,0,10,-10,13,-27c0,0,3,-16,3,-42c0,0,0,-24,-3,-40c0,0,-3,-16,-13,-26c0,0,-9,-10,-24,-15c0,0,-15,-4,-38,-4Z" 
id="f1_ns"
transform="scale(0.001,-0.001)" />

<path d="M127,0c0,0,-16,0,-28,3C99,3,87,6,80,15c0,0,-8,8,-11,25c0,0,-3,16,-3,42c0,0,0,25,2,42c0,0,2,18,8,32c0,0,6,14,15,27c0,0,9,13,24,29L282,390c0,0,50,53,81,95c0,0,30,43,47,79c0,0,17,35,24,65c0,0,6,30,6,57c0,0,0,24,-8,46c0,0,-8,22,-23,39c0,0,-15,16,-38,25c0,0,-23,10,-55,10c0,0,-44,0,-78,-12c0,0,-33,-11,-59,-25c0,0,-26,-13,-43,-25c0,0,-17,-12,-27,-12c0,0,-7,0,-11,5c0,0,-5,4,-8,15c0,0,-3,10,-5,28c0,0,-2,17,-2,42c0,0,0,18,1,29c0,0,1,12,4,20c0,0,2,9,6,15c0,0,3,6,13,15c0,0,9,9,34,23c0,0,25,14,61,27c0,0,37,14,81,23c0,0,44,9,92,9c0,0,75,0,131,-19c0,0,57,-19,94,-53c0,0,37,-34,55,-81c0,0,19,-47,19,-100c0,0,0,-47,-9,-93c0,0,-9,-45,-37,-98c0,0,-29,-52,-80,-116c0,0,-52,-64,-136,-148L299,159H679c0,0,8,0,14,-4c0,0,6,-5,11,-14c0,0,4,-9,7,-25c0,0,2,-15,2,-36c0,0,0,-22,-2,-37c0,0,-2,-15,-6,-25c0,0,-3,-10,-9,-14c0,0,-6,-4,-14,-4Z" 
id="f0_rz"
transform="scale(0.001,-0.001)" />

<path d="M100,0C100,0,70,0,54,17C54,17,38,34,38,67v33c0,0,0,15,2,27c0,0,2,13,6,25c0,0,5,13,13,28c0,0,9,15,22,36L455,810H83c0,0,-9,0,-15,4c0,0,-6,4,-10,13c0,0,-4,9,-6,24c0,0,-2,14,-2,35c0,0,0,23,2,38c0,0,2,15,6,24c0,0,4,10,10,13c0,0,6,4,15,4H617c0,0,31,0,45,-16c0,0,15,-15,15,-43V869c0,0,0,-20,-2,-34c0,0,-2,-15,-7,-29c0,0,-5,-14,-13,-28c0,0,-8,-15,-21,-35L266,157H669c0,0,14,0,22,-17c0,0,7,-18,7,-62c0,0,0,-22,-2,-37c0,0,-2,-15,-5,-24C691,17,687,7,681,4c0,0,-5,-4,-12,-4Z" 
id="f0_3k"
transform="scale(0.001,-0.001)" />

<path d="M345,-143c0,0,43,0,72,9c0,0,29,8,47,23c0,0,18,14,25,31c0,0,8,18,8,37c0,0,0,33,-27,50c0,0,-27,18,-74,20L263,30C263,30,243,16,232,3c0,0,-12,-12,-19,-24c0,0,-7,-12,-9,-23c0,0,-3,-11,-3,-23c0,0,0,-37,38,-56c0,0,38,-20,106,-20Zm-4,517c0,0,28,0,49,9c0,0,21,9,35,25c0,0,14,16,21,36c0,0,7,21,7,43c0,0,0,54,-30,84c0,0,-30,29,-84,29c0,0,-28,0,-49,-9c0,0,-21,-9,-34,-25c0,0,-14,-16,-21,-38c0,0,-7,-21,-7,-44c0,0,0,-51,30,-80c0,0,30,-30,83,-30Zm-4,-645c0,0,-85,0,-145,14c0,0,-60,13,-98,37c0,0,-39,24,-56,57c0,0,-18,33,-18,73c0,0,0,24,6,47c0,0,7,22,19,42c0,0,12,20,30,39c0,0,18,18,41,35c0,0,-32,18,-49,47c0,0,-18,29,-18,64c0,0,0,44,20,80c0,0,21,36,53,65c0,0,-27,26,-42,63c0,0,-16,37,-16,91c0,0,0,58,21,104c0,0,20,46,57,78c0,0,36,32,87,49c0,0,51,16,112,16c0,0,31,0,60,-3c0,0,29,-4,53,-11H665c0,0,13,0,21,-17c0,0,8,-16,8,-55c0,0,0,-36,-8,-53c0,0,-9,-17,-21,-17H587c0,0,17,-18,24,-41c0,0,7,-22,7,-47c0,0,0,-58,-20,-103c0,0,-19,-45,-55,-76c0,0,-36,-31,-88,-47c0,0,-51,-17,-113,-17c0,0,-32,0,-61,8c0,0,-30,8,-45,19c0,0,-9,-10,-16,-23c0,0,-7,-14,-7,-30c0,0,0,-22,19,-36c0,0,19,-13,53,-15l162,-6c0,0,57,-2,101,-16c0,0,44,-14,75,-39c0,0,30,-24,46,-59c0,0,16,-35,16,-79c0,0,0,-49,-22,-93c0,0,-21,-44,-65,-76c0,0,-43,-32,-108,-50c0,0,-66,-19,-153,-19Z" 
id="f0_9d"
transform="scale(0.001,-0.001)" />

<path d="M372,-4c0,0,-18,0,-30,2c0,0,-13,2,-21,3c0,0,-7,3,-10,8c0,0,-3,4,-3,10V857H36c0,0,-6,0,-11,3c0,0,-5,2,-8,9c0,0,-2,6,-4,17c0,0,-2,10,-2,24c0,0,0,14,2,25c0,0,2,11,4,17c0,0,3,7,8,10c0,0,5,3,11,3H708c0,0,6,0,11,-3c0,0,5,-3,8,-10c0,0,4,-6,5,-17c0,0,2,-11,2,-25c0,0,0,-14,-2,-24c0,0,-1,-11,-5,-17c0,0,-3,-7,-8,-9c0,0,-5,-3,-11,-3H436V19c0,0,0,-6,-3,-10c0,0,-3,-5,-10,-8c0,0,-8,-1,-20,-3c0,0,-12,-2,-31,-2Z" 
id="f1_2t"
transform="scale(0.001,-0.001)" />

<path d="M321,-256c0,0,-13,0,-23,1c0,0,-10,0,-17,3c0,0,-7,2,-11,5c0,0,-5,3,-7,7c0,0,-40,76,-71,154c0,0,-31,78,-51,157c0,0,-21,81,-32,163c0,0,-10,83,-10,167c0,0,0,84,11,166c0,0,12,82,33,163c0,0,21,81,52,160c0,0,31,78,69,155c0,0,0,3,4,5c0,0,3,2,9,4c0,0,6,3,16,4c0,0,11,1,27,1c0,0,17,0,28,-2c0,0,10,-3,16,-6c0,0,6,-4,7,-10c0,0,1,-6,-2,-13c0,0,-71,-150,-106,-307c0,0,-34,-158,-34,-318c0,0,0,-160,35,-318c0,0,35,-156,103,-308c0,0,4,-9,4,-15c0,0,1,-6,-4,-10c0,0,-6,-4,-16,-6c0,0,-11,-2,-30,-2Z" 
id="f1_ov"
transform="scale(0.001,-0.001)" />

<path d="M448,98c0,0,77,0,135,28c0,0,58,28,100,73c0,0,43,46,71,103c0,0,29,58,46,118c0,0,17,59,24,115c0,0,7,56,7,98c0,0,0,52,-12,96c0,0,-12,44,-38,75c0,0,-26,31,-69,49c0,0,-44,17,-105,17c0,0,-77,0,-136,-28c0,0,-58,-29,-101,-75c0,0,-43,-47,-71,-105c0,0,-28,-59,-45,-118c0,0,-17,-60,-24,-116c0,0,-7,-56,-7,-97c0,0,0,-53,11,-96c0,0,12,-43,39,-73c0,0,27,-31,70,-47c0,0,43,-17,105,-17ZM428,-13c0,0,-86,0,-150,21c0,0,-64,21,-107,63c0,0,-43,42,-64,104c0,0,-22,62,-22,143c0,0,0,64,11,138c0,0,11,74,37,147c0,0,26,74,67,142c0,0,42,68,102,120c0,0,60,53,140,84c0,0,81,31,185,31c0,0,85,0,148,-22c0,0,64,-22,107,-65c0,0,43,-43,64,-106c0,0,22,-63,22,-145c0,0,0,-58,-10,-128c0,0,-11,-71,-35,-144c0,0,-25,-73,-66,-142c0,0,-40,-69,-100,-123c0,0,-60,-53,-142,-86c0,0,-82,-32,-187,-32Z" 
id="f2_24"
transform="scale(0.001,-0.001)" />

<path d="M296,-13c0,0,-121,0,-180,60c0,0,-59,62,-59,182c0,0,0,46,8,100c0,0,7,54,26,109c0,0,19,54,48,106c0,0,29,51,71,91c0,0,43,40,99,64c0,0,56,24,128,24c0,0,30,0,58,-5c0,0,27,-5,51,-13c0,0,25,-8,44,-20c0,0,20,-13,31,-22c0,0,11,-10,14,-17c0,0,3,-6,3,-14c0,0,0,-14,-3,-28c0,0,-3,-14,-8,-27c0,0,-5,-12,-12,-20c0,0,-8,-8,-17,-8c0,0,-10,0,-21,10c0,0,-12,11,-30,24c0,0,-18,14,-46,25c0,0,-28,11,-71,11c0,0,-48,0,-85,-20c0,0,-37,-20,-64,-51c0,0,-27,-32,-45,-72c0,0,-18,-40,-29,-81c0,0,-12,-41,-16,-80c0,0,-5,-38,-5,-66c0,0,0,-77,33,-117c0,0,34,-39,100,-39c0,0,49,0,84,12c0,0,34,12,58,27c0,0,25,15,40,27c0,0,16,12,28,12c0,0,6,0,9,-5c0,0,4,-6,4,-17c0,0,0,-8,-2,-21c0,0,-1,-12,-5,-25c0,0,-3,-13,-8,-24c0,0,-5,-12,-14,-21c0,0,-9,-9,-31,-23c0,0,-22,-13,-52,-24C430,11,401,0,366,-6c0,0,-34,-7,-70,-7Z" 
id="f2_7l"
transform="scale(0.001,-0.001)" />

<path d="M105,-4c0,0,-18,0,-30,2c0,0,-11,1,-18,3c0,0,-6,3,-8,7c0,0,-2,4,0,10L183,690c0,0,1,5,4,9c0,0,4,5,11,8c0,0,8,3,20,4c0,0,12,2,30,2c0,0,19,0,30,-2c0,0,12,-1,18,-4c0,0,7,-3,9,-8c0,0,2,-4,1,-9L172,18c0,0,-2,-6,-5,-10c0,0,-4,-4,-12,-7c0,0,-7,-2,-20,-3c0,0,-12,-2,-30,-2ZM274,842c0,0,-22,0,-36,4c0,0,-14,3,-20,12c0,0,-7,8,-8,23c0,0,-1,14,3,35c0,0,5,21,11,34c0,0,7,14,17,23c0,0,10,10,25,13c0,0,16,4,38,4c0,0,22,0,36,-4c0,0,14,-3,21,-13c0,0,8,-9,8,-23c0,0,1,-13,-3,-34c0,0,-4,-21,-10,-35c0,0,-7,-15,-17,-23c0,0,-11,-9,-27,-12c0,0,-16,-4,-38,-4Z" 
id="f2_9q"
transform="scale(0.001,-0.001)" />

<path d="M105,-4c0,0,-18,0,-30,2c0,0,-11,1,-18,3c0,0,-6,3,-8,7c0,0,-2,4,0,10L184,690c0,0,1,6,4,10c0,0,3,5,10,8c0,0,7,3,18,4c0,0,11,1,26,1c0,0,15,0,26,-1c0,0,10,-1,15,-4c0,0,6,-3,7,-8c0,0,2,-4,1,-10L266,562c0,0,11,26,37,54c0,0,25,29,60,53c0,0,34,24,75,40c0,0,40,16,83,16c0,0,45,0,77,-13c0,0,32,-12,52,-34c0,0,21,-21,30,-51c0,0,10,-30,12,-65c0,0,15,26,41,55c0,0,27,29,61,52c0,0,34,24,74,40c0,0,41,16,83,16c0,0,49,0,83,-15c0,0,34,-14,54,-39c0,0,21,-24,30,-57c0,0,9,-33,9,-72c0,0,0,-27,-3,-52c0,0,-3,-26,-8,-52L1032,18c0,0,0,-6,-4,-10c0,0,-4,-4,-12,-7c0,0,-8,-2,-20,-3c0,0,-13,-2,-31,-2c0,0,-17,0,-29,2c0,0,-11,1,-17,3c0,0,-7,3,-9,7c0,0,-2,4,-1,10l82,415c0,0,4,22,7,41c0,0,2,20,2,40c0,0,0,48,-18,76c0,0,-18,29,-63,29c0,0,-38,0,-78,-23c0,0,-40,-23,-75,-63c0,0,-36,-40,-64,-95c0,0,-27,-55,-40,-120L602,18c0,0,-2,-6,-5,-10c0,0,-4,-4,-12,-7c0,0,-8,-2,-20,-3c0,0,-12,-2,-30,-2c0,0,-18,0,-30,2c0,0,-11,1,-17,3c0,0,-6,3,-8,7c0,0,-3,4,-2,10l83,415c0,0,5,23,7,44c0,0,2,22,2,41c0,0,0,46,-18,73c0,0,-19,28,-64,28c0,0,-38,0,-77,-23c0,0,-40,-23,-76,-63c0,0,-36,-40,-63,-95c0,0,-28,-55,-41,-120L172,18c0,0,-2,-6,-5,-10c0,0,-4,-4,-12,-7c0,0,-7,-2,-20,-3c0,0,-12,-2,-30,-2Z" 
id="f2_ae"
transform="scale(0.001,-0.001)" />

<path d="M265,-13c0,0,-51,0,-85,13c0,0,-35,14,-56,38c0,0,-21,24,-31,57c0,0,-9,33,-9,73c0,0,0,24,3,50c0,0,4,26,9,52l83,420c0,0,1,6,5,10c0,0,4,5,12,8c0,0,7,3,19,4c0,0,13,1,30,1c0,0,18,0,30,-1c0,0,12,-1,18,-4c0,0,7,-3,9,-8c0,0,1,-4,1,-10L220,274c0,0,-4,-19,-6,-40c0,0,-3,-21,-3,-42c0,0,0,-22,4,-40c0,0,5,-19,15,-32c0,0,10,-13,26,-21c0,0,16,-7,39,-7c0,0,39,0,81,23c0,0,41,22,77,62c0,0,36,40,64,96c0,0,28,55,41,120l59,297c0,0,1,6,5,10c0,0,4,5,12,8c0,0,8,3,20,4c0,0,12,1,30,1c0,0,18,0,29,-1c0,0,12,-1,18,-4c0,0,7,-3,9,-8c0,0,1,-4,1,-10L606,18c0,0,-1,-6,-5,-10c0,0,-3,-5,-10,-7c0,0,-7,-2,-18,-3c0,0,-11,-2,-26,-2c0,0,-15,0,-25,2c0,0,-10,1,-16,3c0,0,-5,2,-7,7c0,0,-2,4,-1,10l25,126c0,0,-12,-25,-38,-53c0,0,-25,-28,-60,-51C425,40,390,16,349,1c0,0,-42,-14,-84,-14Z" 
id="f2_c6"
transform="scale(0.001,-0.001)" />

<path d="M142,-256c0,0,-19,0,-30,2c0,0,-11,2,-16,6c0,0,-5,4,-4,10c0,0,0,6,4,15c0,0,69,151,104,308c0,0,35,158,35,318c0,0,0,160,-35,318c0,0,-35,157,-106,307c0,0,-3,7,-2,13c0,0,1,6,7,10c0,0,6,3,16,6c0,0,11,2,28,2c0,0,16,0,26,-1c0,0,10,-1,17,-4c0,0,6,-2,9,-4c0,0,3,-2,5,-5c0,0,76,-153,120,-315c0,0,44,-161,44,-329c0,0,0,-84,-11,-167c0,0,-10,-82,-31,-163c0,0,-21,-79,-51,-157c0,0,-30,-78,-71,-154c0,0,-2,-4,-6,-7c0,0,-5,-3,-12,-5c0,0,-7,-3,-17,-3c0,0,-9,-1,-23,-1Z" 
id="f1_ow"
transform="scale(0.001,-0.001)" />

<path d="M337,-17c0,0,-50,0,-93,8c0,0,-43,7,-76,16c0,0,-34,11,-55,22c0,0,-22,11,-29,17c0,0,-6,6,-10,13c0,0,-3,8,-6,18c0,0,-2,10,-3,25c0,0,-1,16,-1,37c0,0,0,36,6,50c0,0,6,13,17,13c0,0,8,0,26,-10c0,0,18,-10,47,-21c0,0,28,-12,66,-22c0,0,38,-10,87,-10c0,0,41,0,72,10c0,0,31,9,53,27c0,0,22,17,33,42c0,0,11,25,11,56c0,0,0,34,-13,61c0,0,-13,26,-39,45c0,0,-26,20,-65,30c0,0,-39,10,-92,10H189c0,0,-9,0,-16,3c0,0,-7,3,-11,11c0,0,-5,8,-7,23c0,0,-1,14,-1,37c0,0,0,22,1,36c0,0,2,13,6,21c0,0,4,7,11,10c0,0,6,3,15,3h85c0,0,43,0,77,10c0,0,33,10,56,29c0,0,23,19,35,45c0,0,12,27,12,59c0,0,0,25,-8,47c0,0,-9,22,-25,38c0,0,-16,16,-41,26c0,0,-26,9,-60,9c0,0,-39,0,-73,-11c0,0,-34,-12,-62,-26c0,0,-27,-13,-46,-25c0,0,-19,-12,-28,-12c0,0,-6,0,-10,2c0,0,-5,3,-8,11c0,0,-3,7,-4,21c0,0,-2,14,-2,37c0,0,0,18,1,31c0,0,1,12,3,20c0,0,2,8,5,14c0,0,4,6,11,13c0,0,8,7,31,21c0,0,23,14,58,28c0,0,35,13,81,22c0,0,46,10,100,10c0,0,70,0,124,-17c0,0,54,-16,91,-47c0,0,37,-31,56,-76c0,0,19,-46,19,-102c0,0,0,-44,-11,-83c0,0,-12,-38,-33,-68c0,0,-22,-29,-54,-50c0,0,-33,-21,-75,-32v-2c0,0,50,-6,91,-26c0,0,40,-19,68,-49c0,0,28,-30,43,-68c0,0,15,-37,15,-81c0,0,0,-72,-28,-128c0,0,-27,-56,-77,-94C604,60,555,22,487,2c0,0,-69,-19,-150,-19Z" 
id="f0_s0"
transform="scale(0.001,-0.001)" />

<path d="M275,-17c0,0,-37,0,-71,6c0,0,-34,6,-61,13c0,0,-27,9,-45,18c0,0,-18,9,-26,17c0,0,-8,8,-13,25c0,0,-4,17,-4,49c0,0,0,22,1,35c0,0,2,13,5,21c0,0,3,8,7,10c0,0,5,3,11,3c0,0,9,0,25,-9c0,0,16,-10,40,-21c0,0,24,-11,55,-21c0,0,32,-10,72,-10c0,0,26,0,46,5c0,0,19,6,34,15c0,0,14,10,22,25c0,0,7,15,7,34c0,0,0,23,-13,39c0,0,-14,16,-37,28c0,0,-23,11,-52,22c0,0,-28,10,-58,23c0,0,-31,13,-59,29c0,0,-29,17,-52,41c0,0,-23,23,-37,57c0,0,-13,34,-13,81c0,0,0,47,18,87c0,0,19,40,54,69c0,0,35,28,86,44c0,0,50,15,113,15c0,0,31,0,61,-4c0,0,29,-5,53,-11c0,0,24,-7,40,-15c0,0,17,-7,24,-13c0,0,7,-6,10,-11c0,0,3,-6,4,-14c0,0,2,-7,3,-19c0,0,1,-12,1,-29c0,0,0,-20,-1,-33c0,0,-1,-12,-4,-20c0,0,-2,-7,-7,-10c0,0,-4,-3,-10,-3c0,0,-7,0,-21,8c0,0,-14,8,-36,17c0,0,-21,9,-49,17c0,0,-28,7,-64,7c0,0,-25,0,-44,-5c0,0,-19,-5,-30,-15c0,0,-12,-9,-18,-22c0,0,-6,-14,-6,-28c0,0,0,-24,14,-39c0,0,14,-16,37,-28c0,0,23,-12,53,-22c0,0,29,-11,59,-23c0,0,31,-12,60,-29c0,0,30,-16,53,-40c0,0,23,-24,37,-57c0,0,14,-33,14,-79c0,0,0,-57,-21,-100c0,0,-21,-43,-60,-72c0,0,-39,-29,-92,-43c0,0,-53,-15,-115,-15Z" 
id="f0_b5"
transform="scale(0.001,-0.001)" />

<path d="M417,-11c0,0,-76,0,-137,22c0,0,-61,23,-104,67c0,0,-43,44,-66,110c0,0,-24,66,-24,152c0,0,0,71,15,146c0,0,15,75,44,146c0,0,29,70,73,133c0,0,43,63,101,110c0,0,58,47,130,75c0,0,72,27,159,27c0,0,54,0,102,-12c0,0,47,-13,81,-31c0,0,34,-19,49,-33c0,0,15,-15,15,-34c0,0,0,-16,-6,-39c0,0,-5,-23,-14,-36c0,0,-8,-14,-18,-14c0,0,-11,0,-25,14c0,0,-14,14,-38,30c0,0,-24,16,-61,30c0,0,-38,13,-95,13c0,0,-62,0,-114,-23c0,0,-51,-24,-92,-64c0,0,-42,-39,-73,-92c0,0,-31,-52,-52,-109c0,0,-20,-57,-31,-115c0,0,-10,-58,-10,-110c0,0,0,-60,15,-107c0,0,15,-46,43,-78c0,0,28,-32,69,-49c0,0,41,-16,93,-16c0,0,58,0,100,13c0,0,43,13,73,29c0,0,30,16,50,29c0,0,20,13,33,13c0,0,8,0,12,-6c0,0,4,-6,4,-18c0,0,0,-4,-1,-11c0,0,-2,-7,-3,-15c0,0,-2,-8,-3,-18c0,0,-2,-10,-5,-18c0,0,-3,-9,-7,-16c0,0,-3,-7,-11,-15c0,0,-8,-7,-33,-21c0,0,-25,-15,-61,-28C594,20,558,7,513,-1c0,0,-45,-10,-96,-10Z" 
id="f2_j"
transform="scale(0.001,-0.001)" />

<path d="M293,92c0,0,41,0,83,23c0,0,41,22,77,62c0,0,36,40,64,95c0,0,27,54,41,119l25,123c0,0,-35,53,-76,79c0,0,-41,26,-91,26c0,0,-41,0,-73,-19c0,0,-32,-19,-57,-50c0,0,-25,-32,-44,-72c0,0,-18,-40,-30,-82c0,0,-11,-43,-17,-84c0,0,-5,-41,-5,-74c0,0,0,-26,4,-52c0,0,4,-25,15,-47c0,0,12,-21,32,-34c0,0,20,-13,52,-13ZM262,-13c0,0,-60,0,-99,20c0,0,-39,21,-62,55c0,0,-23,35,-32,78c0,0,-8,43,-8,89c0,0,0,42,7,95c0,0,8,53,26,108c0,0,17,55,45,107c0,0,28,53,68,94c0,0,39,42,92,67c0,0,52,25,118,25c0,0,67,0,114,-28c0,0,47,-27,85,-74l14,67c0,0,3,12,17,18c0,0,14,5,44,5c0,0,15,0,25,-1c0,0,10,-1,16,-4c0,0,6,-3,7,-8c0,0,2,-4,1,-10L606,18C606,18,603,6,590,0c0,0,-14,-4,-45,-4c0,0,-15,0,-25,2c0,0,-9,1,-15,3c0,0,-6,2,-8,6c0,0,-3,5,0,11l24,127c0,0,-10,-24,-35,-52c0,0,-25,-28,-60,-52C426,41,391,17,349,2c0,0,-43,-15,-87,-15Z" 
id="f2_77"
transform="scale(0.001,-0.001)" />

<path d="M105,-4c0,0,-18,0,-30,2c0,0,-11,1,-18,3c0,0,-6,3,-8,7c0,0,-2,4,0,10L184,690c0,0,1,6,4,10c0,0,3,5,10,8c0,0,7,3,18,4c0,0,11,1,26,1c0,0,15,0,26,-1c0,0,10,-1,15,-4c0,0,6,-3,7,-8c0,0,2,-4,1,-10L266,562c0,0,11,26,36,54c0,0,26,29,61,53c0,0,35,24,77,40c0,0,42,16,88,16c0,0,50,0,83,-16c0,0,34,-15,55,-40c0,0,21,-25,30,-58c0,0,9,-33,9,-69c0,0,0,-26,-3,-51c0,0,-3,-26,-8,-53L609,18c0,0,-2,-6,-5,-10c0,0,-3,-4,-11,-7c0,0,-8,-2,-20,-3c0,0,-12,-2,-31,-2c0,0,-18,0,-29,2c0,0,-11,1,-18,3c0,0,-6,3,-8,7c0,0,-2,4,-1,10l83,415c0,0,5,23,7,45c0,0,2,22,2,39c0,0,0,45,-19,74c0,0,-20,28,-66,28c0,0,-39,0,-81,-23c0,0,-41,-23,-76,-63c0,0,-36,-40,-64,-95c0,0,-28,-55,-41,-120L172,18c0,0,-2,-6,-5,-10c0,0,-4,-4,-12,-7c0,0,-7,-2,-20,-3c0,0,-12,-2,-30,-2Z" 
id="f2_af"
transform="scale(0.001,-0.001)" />

<path d="M435,0V856c0,0,-48,-47,-127,-93c0,0,-79,-46,-142,-69V824c0,0,113,52,197,128c0,0,85,75,120,146h86V0Z" 
id="f3_l"
transform="scale(0.001,-0.001)" />

<path d="M225,0c0,0,2,129,51,312c0,0,48,183,139,352c0,0,91,170,193,286H72v129H780V975C780,975,676,864,573,680C573,680,470,495,414,301C414,301,374,163,363,0Z" 
id="f3_r"
transform="scale(0.001,-0.001)" />


</defs>
</svg>