<?xml version="1.0" encoding="UTF-8" standalone="no"?>
<!DOCTYPE svg PUBLIC "-//W3C//DTD SVG 1.1//EN"
"http://www.w3.org/Graphics/SVG/1.1/DTD/svg11.dtd">
<svg viewBox="0 0 909 1286" version="1.1" xmlns="http://www.w3.org/2000/svg" xmlns:xlink="http://www.w3.org/1999/xlink">
<defs>
<clipPath id="c0_33"><path d="M0,1286.3V0H909.3V1286.3Z" /></clipPath>
</defs>
<g clip-path="url(#c0_33)">
<g fill="#000000" >
<use xlink:href="#f0_1g" transform="matrix(12,0,0,12,55,71.9)" />
<use xlink:href="#f0_2g" transform="matrix(12,0,0,12,65.3,71.9)" />
<use xlink:href="#f0_21" transform="matrix(12,0,0,12,70.8,71.9)" />
<use xlink:href="#f0_2e" transform="matrix(12,0,0,12,78.8,71.9)" />
<use xlink:href="#f0_25" transform="matrix(12,0,0,12,85,71.9)" />
<use xlink:href="#f0_20" transform="matrix(12,0,0,12,89.4,71.9)" />
<use xlink:href="#f0_2b" transform="matrix(12,0,0,12,98.6,71.9)" />
<use xlink:href="#f0_2c" transform="matrix(12,0,0,12,108.1,71.9)" />
<use xlink:href="#f0_24" transform="matrix(12,0,0,12,117.3,71.9)" />
<use xlink:href="#f0_2l" transform="matrix(12,0,0,12,126.5,71.9)" />
<use xlink:href="#f0_2g" transform="matrix(12,0,0,12,134.9,71.9)" />
<use xlink:href="#f0_21" transform="matrix(12,0,0,12,140.4,71.9)" />
<use xlink:href="#f0_2f" transform="matrix(12,0,0,12,148.4,71.9)" />
<use xlink:href="#f0_22" transform="matrix(12,0,0,12,160.5,71.9)" />
<use xlink:href="#f0_2h" transform="matrix(12,0,0,12,166,71.9)" />
<use xlink:href="#f0_2e" transform="matrix(12,0,0,12,175.2,71.9)" />
<use xlink:href="#f0_2g" transform="matrix(12,0,0,12,181.4,71.9)" />
<use xlink:href="#f0_24" transform="matrix(12,0,0,12,186.9,71.9)" />
<use xlink:href="#f0_21" transform="matrix(12,0,0,12,195.7,71.9)" />
<use xlink:href="#f0_2e" transform="matrix(12,0,0,12,203.8,71.9)" />
<use xlink:href="#f0_1z" transform="matrix(12,0,0,12,214.7,71.9)" />
<use xlink:href="#f0_28" transform="matrix(12,0,0,12,223.1,71.9)" />
<use xlink:href="#f0_1x" transform="matrix(12,0,0,12,227.5,71.9)" />
<use xlink:href="#f0_2f" transform="matrix(12,0,0,12,235.9,71.9)" />
<use xlink:href="#f0_2f" transform="matrix(12,0,0,12,242.9,71.9)" />
<use xlink:href="#f0_25" transform="matrix(12,0,0,12,250.2,71.9)" />
<use xlink:href="#f0_22" transform="matrix(12,0,0,12,255.3,71.9)" />
<use xlink:href="#f0_25" transform="matrix(12,0,0,12,261.6,71.9)" />
<use xlink:href="#f0_21" transform="matrix(12,0,0,12,266.3,71.9)" />
<use xlink:href="#f0_20" transform="matrix(12,0,0,12,274.4,71.9)" />
<use xlink:href="#f0_25" transform="matrix(12,0,0,12,288.7,71.9)" />
<use xlink:href="#f0_2a" transform="matrix(12,0,0,12,293.5,71.9)" />
<use xlink:href="#f0_2g" transform="matrix(12,0,0,12,302.3,71.9)" />
<use xlink:href="#f0_2b" transform="matrix(12,0,0,12,307.7,71.9)" />
<use xlink:href="#f0_22" transform="matrix(12,0,0,12,321.7,71.9)" />
<use xlink:href="#f0_2b" transform="matrix(12,0,0,12,327.2,71.9)" />
<use xlink:href="#f0_2h" transform="matrix(12,0,0,12,336.7,71.9)" />
<use xlink:href="#f0_2e" transform="matrix(12,0,0,12,345.8,71.9)" />
<use xlink:href="#f0_1z" transform="matrix(12,0,0,12,356.8,71.9)" />
<use xlink:href="#f0_28" transform="matrix(12,0,0,12,364.9,71.9)" />
<use xlink:href="#f0_1x" transform="matrix(12,0,0,12,369.6,71.9)" />
<use xlink:href="#f0_2f" transform="matrix(12,0,0,12,377.7,71.9)" />
<use xlink:href="#f0_2f" transform="matrix(12,0,0,12,384.7,71.9)" />
<use xlink:href="#f0_21" transform="matrix(12,0,0,12,392,71.9)" />
<use xlink:href="#f0_2f" transform="matrix(12,0,0,12,400.1,71.9)" />
<use xlink:href="#f0_u" transform="matrix(12,0,0,12,407,71.9)" />
<use xlink:href="#f1_3d" transform="matrix(12,0,0,12,82.5,94.3)" />
<use xlink:href="#f0_1g" transform="matrix(12,0,0,12,110,94.3)" />
<use xlink:href="#f0_2f" transform="matrix(12,0,0,12,120.3,94.3)" />
<use xlink:href="#f0_25" transform="matrix(12,0,0,12,127.6,94.3)" />
<use xlink:href="#f0_28" transform="matrix(12,0,0,12,132.4,94.3)" />
<use xlink:href="#f0_2b" transform="matrix(12,0,0,12,136.8,94.3)" />
<use xlink:href="#f0_2c" transform="matrix(12,0,0,12,146.3,94.3)" />
<use xlink:href="#f0_2f" transform="matrix(12,0,0,12,155.4,94.3)" />
<use xlink:href="#f0_25" transform="matrix(12,0,0,12,162.8,94.3)" />
<use xlink:href="#f0_20" transform="matrix(12,0,0,12,167.5,94.3)" />
<use xlink:href="#f0_1x" transform="matrix(12,0,0,12,177,94.3)" />
<use xlink:href="#f0_c" transform="matrix(12,0,0,12,189.9,94.3)" />
<use xlink:href="#f2_1g" transform="matrix(12,0,0,12,196.2,94.3)" />
<use xlink:href="#f2_2f" transform="matrix(12,0,0,12,207.2,94.3)" />
<use xlink:href="#f2_25" transform="matrix(12,0,0,12,214.2,94.3)" />
<use xlink:href="#f2_28" transform="matrix(12,0,0,12,219.3,94.3)" />
<use xlink:href="#f2_2b" transform="matrix(12,0,0,12,224.5,94.3)" />
<use xlink:href="#f2_2g" transform="matrix(12,0,0,12,233.6,94.3)" />
<use xlink:href="#f2_2h" transform="matrix(12,0,0,12,238.7,94.3)" />
<use xlink:href="#f2_29" transform="matrix(12,0,0,12,247.9,94.3)" />
<use xlink:href="#f0_d" transform="matrix(12,0,0,12,261.2,94.3)" />
<use xlink:href="#f1_3d" transform="matrix(12,0,0,12,82.5,117)" />
<use xlink:href="#f0_1c" transform="matrix(12,0,0,12,110,117)" />
<use xlink:href="#f0_2l" transform="matrix(12,0,0,12,121.4,117)" />
<use xlink:href="#f0_1z" transform="matrix(12,0,0,12,130.2,117)" />
<use xlink:href="#f0_2b" transform="matrix(12,0,0,12,138.3,117)" />
<use xlink:href="#f0_2c" transform="matrix(12,0,0,12,147.8,117)" />
<use xlink:href="#f0_2f" transform="matrix(12,0,0,12,156.9,117)" />
<use xlink:href="#f0_25" transform="matrix(12,0,0,12,164.2,117)" />
<use xlink:href="#f0_20" transform="matrix(12,0,0,12,168.6,117)" />
<use xlink:href="#f0_1x" transform="matrix(12,0,0,12,177.8,117)" />
<use xlink:href="#f0_c" transform="matrix(12,0,0,12,190.7,117)" />
<use xlink:href="#f2_1j" transform="matrix(12,0,0,12,197,117)" />
<use xlink:href="#f2_21" transform="matrix(12,0,0,12,206.1,117)" />
<use xlink:href="#f2_28" transform="matrix(12,0,0,12,214.2,117)" />
<use xlink:href="#f2_1x" transform="matrix(12,0,0,12,219.3,117)" />
<use xlink:href="#f2_23" transform="matrix(12,0,0,12,228.5,117)" />
<use xlink:href="#f2_25" transform="matrix(12,0,0,12,237.6,117)" />
<use xlink:href="#f2_2a" transform="matrix(12,0,0,12,242.8,117)" />
<use xlink:href="#f2_21" transform="matrix(12,0,0,12,252,117)" />
<use xlink:href="#f2_28" transform="matrix(12,0,0,12,260,117)" />
<use xlink:href="#f2_28" transform="matrix(12,0,0,12,265.1,117)" />
<use xlink:href="#f2_1x" transform="matrix(12,0,0,12,270.3,117)" />
<use xlink:href="#f0_d" transform="matrix(12,0,0,12,279.5,117)" />
<use xlink:href="#f1_3d" transform="matrix(12,0,0,12,82.5,139.4)" />
<use xlink:href="#f0_1j" transform="matrix(12,0,0,12,110,139.4)" />
<use xlink:href="#f0_2c" transform="matrix(12,0,0,12,120.3,139.4)" />
<use xlink:href="#f0_24" transform="matrix(12,0,0,12,129.5,139.4)" />
<use xlink:href="#f0_21" transform="matrix(12,0,0,12,138.3,139.4)" />
<use xlink:href="#f0_2a" transform="matrix(12,0,0,12,146.7,139.4)" />
<use xlink:href="#f0_2b" transform="matrix(12,0,0,12,155.5,139.4)" />
<use xlink:href="#f0_2c" transform="matrix(12,0,0,12,165,139.4)" />
<use xlink:href="#f0_2f" transform="matrix(12,0,0,12,174.1,139.4)" />
<use xlink:href="#f0_25" transform="matrix(12,0,0,12,181.5,139.4)" />
<use xlink:href="#f0_20" transform="matrix(12,0,0,12,185.9,139.4)" />
<use xlink:href="#f0_1x" transform="matrix(12,0,0,12,195.4,139.4)" />
<use xlink:href="#f0_c" transform="matrix(12,0,0,12,208.2,139.4)" />
<use xlink:href="#f2_15" transform="matrix(12,0,0,12,214.6,139.4)" />
<use xlink:href="#f2_2d" transform="matrix(12,0,0,12,225.9,139.4)" />
<use xlink:href="#f2_2h" transform="matrix(12,0,0,12,235.1,139.4)" />
<use xlink:href="#f2_25" transform="matrix(12,0,0,12,244.3,139.4)" />
<use xlink:href="#f2_2f" transform="matrix(12,0,0,12,249.4,139.4)" />
<use xlink:href="#f2_21" transform="matrix(12,0,0,12,256.4,139.4)" />
<use xlink:href="#f2_2g" transform="matrix(12,0,0,12,264.4,139.4)" />
<use xlink:href="#f2_2h" transform="matrix(12,0,0,12,269.5,139.4)" />
<use xlink:href="#f2_29" transform="matrix(12,0,0,12,278.7,139.4)" />
<use xlink:href="#f0_d" transform="matrix(12,0,0,12,296.7,139.4)" />
<use xlink:href="#f1_3d" transform="matrix(12,0,0,12,82.5,161.7)" />
<use xlink:href="#f0_1g" transform="matrix(12,0,0,12,110,161.7)" />
<use xlink:href="#f0_2g" transform="matrix(12,0,0,12,120.3,161.7)" />
<use xlink:href="#f0_21" transform="matrix(12,0,0,12,125.8,161.7)" />
<use xlink:href="#f0_2e" transform="matrix(12,0,0,12,133.8,161.7)" />
<use xlink:href="#f0_2b" transform="matrix(12,0,0,12,139.7,161.7)" />
<use xlink:href="#f0_2c" transform="matrix(12,0,0,12,149.2,161.7)" />
<use xlink:href="#f0_2f" transform="matrix(12,0,0,12,158.4,161.7)" />
<use xlink:href="#f0_25" transform="matrix(12,0,0,12,165.3,161.7)" />
<use xlink:href="#f0_20" transform="matrix(12,0,0,12,169.7,161.7)" />
<use xlink:href="#f0_1x" transform="matrix(12,0,0,12,178.9,161.7)" />
<use xlink:href="#f0_c" transform="matrix(12,0,0,12,191.7,161.7)" />
<use xlink:href="#f2_1g" transform="matrix(12,0,0,12,198.1,161.7)" />
<use xlink:href="#f2_2g" transform="matrix(12,0,0,12,209.1,161.7)" />
<use xlink:href="#f2_21" transform="matrix(12,0,0,12,214.2,161.7)" />
<use xlink:href="#f2_2e" transform="matrix(12,0,0,12,222.3,161.7)" />
<use xlink:href="#f2_25" transform="matrix(12,0,0,12,229.2,161.7)" />
<use xlink:href="#f2_2f" transform="matrix(12,0,0,12,234.7,161.7)" />
<use xlink:href="#f0_d" transform="matrix(12,0,0,12,241.7,161.7)" />
<use xlink:href="#f0_i" transform="matrix(12,0,0,12,248,161.7)" />
<use xlink:href="#f3_15" transform="matrix(12,0,0,12,55,537.7)" />
<use xlink:href="#f3_1z" transform="matrix(12,0,0,12,67.1,537.7)" />
<use xlink:href="#f3_2b" transform="matrix(12,0,0,12,75.2,537.7)" />
<use xlink:href="#f3_2a" transform="matrix(12,0,0,12,84.4,537.7)" />
<use xlink:href="#f3_2b" transform="matrix(12,0,0,12,94.6,537.7)" />
<use xlink:href="#f3_29" transform="matrix(12,0,0,12,103.8,537.7)" />
<use xlink:href="#f3_25" transform="matrix(12,0,0,12,118.8,537.7)" />
<use xlink:href="#f3_1z" transform="matrix(12,0,0,12,123.9,537.7)" />
<use xlink:href="#f3_25" transform="matrix(12,0,0,12,136.8,537.7)" />
<use xlink:href="#f3_29" transform="matrix(12,0,0,12,141.9,537.7)" />
<use xlink:href="#f3_2c" transform="matrix(12,0,0,12,156.9,537.7)" />
<use xlink:href="#f3_2b" transform="matrix(12,0,0,12,167.2,537.7)" />
<use xlink:href="#f3_2e" transform="matrix(12,0,0,12,176.7,537.7)" />
<use xlink:href="#f3_2g" transform="matrix(12,0,0,12,184.4,537.7)" />
<use xlink:href="#f3_1x" transform="matrix(12,0,0,12,190.6,537.7)" />
<use xlink:href="#f3_2a" transform="matrix(12,0,0,12,199.8,537.7)" />
<use xlink:href="#f3_1z" transform="matrix(12,0,0,12,210,537.7)" />
<use xlink:href="#f3_21" transform="matrix(12,0,0,12,218.1,537.7)" />
<use xlink:href="#f3_u" transform="matrix(12,0,0,12,226.2,537.7)" />
<use xlink:href="#f0_1j" transform="matrix(12,0,0,12,55,558.6)" />
<use xlink:href="#f0_2b" transform="matrix(12,0,0,12,65.3,558.6)" />
<use xlink:href="#f0_29" transform="matrix(12,0,0,12,74.8,558.6)" />
<use xlink:href="#f0_21" transform="matrix(12,0,0,12,88.4,558.6)" />
<use xlink:href="#f0_29" transform="matrix(12,0,0,12,101.5,558.6)" />
<use xlink:href="#f0_21" transform="matrix(12,0,0,12,115.1,558.6)" />
<use xlink:href="#f0_29" transform="matrix(12,0,0,12,123.5,558.6)" />
<use xlink:href="#f0_1y" transform="matrix(12,0,0,12,137.5,558.6)" />
<use xlink:href="#f0_21" transform="matrix(12,0,0,12,146.6,558.6)" />
<use xlink:href="#f0_2e" transform="matrix(12,0,0,12,154.7,558.6)" />
<use xlink:href="#f0_2f" transform="matrix(12,0,0,12,161.3,558.6)" />
<use xlink:href="#f0_1x" transform="matrix(12,0,0,12,173,558.6)" />
<use xlink:href="#f0_2e" transform="matrix(12,0,0,12,181.1,558.6)" />
<use xlink:href="#f0_21" transform="matrix(12,0,0,12,187.3,558.6)" />
<use xlink:href="#f0_1d" transform="matrix(12,0,0,12,200.3,558.6)" />
<use xlink:href="#f0_21" transform="matrix(12,0,0,12,216.4,558.6)" />
<use xlink:href="#f0_20" transform="matrix(12,0,0,12,224.5,558.6)" />
<use xlink:href="#f0_25" transform="matrix(12,0,0,12,234,558.6)" />
<use xlink:href="#f0_1z" transform="matrix(12,0,0,12,238.4,558.6)" />
<use xlink:href="#f0_25" transform="matrix(12,0,0,12,246.8,558.6)" />
<use xlink:href="#f0_2a" transform="matrix(12,0,0,12,251.6,558.6)" />
<use xlink:href="#f0_1x" transform="matrix(12,0,0,12,260.7,558.6)" />
<use xlink:href="#f0_28" transform="matrix(12,0,0,12,269.2,558.6)" />
<use xlink:href="#f0_h" transform="matrix(12,0,0,12,274,558.6)" />
<use xlink:href="#f2_14" transform="matrix(12,0,0,12,285,558.6)" />
<use xlink:href="#f2_2e" transform="matrix(12,0,0,12,298.2,558.6)" />
<use xlink:href="#f2_2l" transform="matrix(12,0,0,12,305.2,558.6)" />
<use xlink:href="#f2_2b" transform="matrix(12,0,0,12,313.2,558.6)" />
<use xlink:href="#f2_2c" transform="matrix(12,0,0,12,322.4,558.6)" />
<use xlink:href="#f2_2g" transform="matrix(12,0,0,12,331.6,558.6)" />
<use xlink:href="#f2_21" transform="matrix(12,0,0,12,336.7,558.6)" />
<use xlink:href="#f2_2e" transform="matrix(12,0,0,12,345.1,558.6)" />
<use xlink:href="#f2_25" transform="matrix(12,0,0,12,352.1,558.6)" />
<use xlink:href="#f2_2f" transform="matrix(12,0,0,12,357.2,558.6)" />
<use xlink:href="#f0_18" transform="matrix(12,0,0,12,55,579.9)" />
<use xlink:href="#f0_21" transform="matrix(12,0,0,12,68.3,579.9)" />
<use xlink:href="#f0_28" transform="matrix(12,0,0,12,76.7,579.9)" />
<use xlink:href="#f0_2c" transform="matrix(12,0,0,12,81.1,579.9)" />
<use xlink:href="#f0_2f" transform="matrix(12,0,0,12,90.6,579.9)" />
<use xlink:href="#f0_25" transform="matrix(12,0,0,12,102.6,579.9)" />
<use xlink:href="#f0_2a" transform="matrix(12,0,0,12,107.4,579.9)" />
<use xlink:href="#f0_1j" transform="matrix(12,0,0,12,121,579.9)" />
<use xlink:href="#f0_2b" transform="matrix(12,0,0,12,131.3,579.9)" />
<use xlink:href="#f0_25" transform="matrix(12,0,0,12,140.8,579.9)" />
<use xlink:href="#f0_28" transform="matrix(12,0,0,12,145.6,579.9)" />
<use xlink:href="#f0_1y" transform="matrix(12,0,0,12,155.4,579.9)" />
<use xlink:href="#f0_25" transform="matrix(12,0,0,12,164.6,579.9)" />
<use xlink:href="#f0_2a" transform="matrix(12,0,0,12,169.4,579.9)" />
<use xlink:href="#f0_20" transform="matrix(12,0,0,12,178.2,579.9)" />
<use xlink:href="#f0_25" transform="matrix(12,0,0,12,187.7,579.9)" />
<use xlink:href="#f0_2a" transform="matrix(12,0,0,12,192.5,579.9)" />
<use xlink:href="#f0_23" transform="matrix(12,0,0,12,201.6,579.9)" />
<use xlink:href="#f0_1l" transform="matrix(12,0,0,12,55,600.8)" />
<use xlink:href="#f0_2f" transform="matrix(12,0,0,12,68.3,600.8)" />
<use xlink:href="#f0_21" transform="matrix(12,0,0,12,75.2,600.8)" />
<use xlink:href="#f0_20" transform="matrix(12,0,0,12,83.3,600.8)" />
<use xlink:href="#f0_1x" transform="matrix(12,0,0,12,97.2,600.8)" />
<use xlink:href="#f0_2f" transform="matrix(12,0,0,12,105.3,600.8)" />
<use xlink:href="#f0_1f" transform="matrix(12,0,0,12,117,600.8)" />
<use xlink:href="#f0_2e" transform="matrix(12,0,0,12,130.2,600.8)" />
<use xlink:href="#f0_2a" transform="matrix(12,0,0,12,136.4,600.8)" />
<use xlink:href="#f0_1x" transform="matrix(12,0,0,12,145.2,600.8)" />
<use xlink:href="#f0_29" transform="matrix(12,0,0,12,153.6,600.8)" />
<use xlink:href="#f0_21" transform="matrix(12,0,0,12,167.6,600.8)" />
<use xlink:href="#f0_2a" transform="matrix(12,0,0,12,176,600.8)" />
<use xlink:href="#f0_2g" transform="matrix(12,0,0,12,184.8,600.8)" />
<use xlink:href="#f0_1x" transform="matrix(12,0,0,12,190.3,600.8)" />
<use xlink:href="#f0_28" transform="matrix(12,0,0,12,198.7,600.8)" />
<use xlink:href="#f0_2c" transform="matrix(12,0,0,12,207.8,600.8)" />
<use xlink:href="#f0_28" transform="matrix(12,0,0,12,217.3,600.8)" />
<use xlink:href="#f0_1x" transform="matrix(12,0,0,12,222.1,600.8)" />
<use xlink:href="#f0_2a" transform="matrix(12,0,0,12,230.5,600.8)" />
<use xlink:href="#f0_2g" transform="matrix(12,0,0,12,239.3,600.8)" />
<use xlink:href="#f0_2f" transform="matrix(12,0,0,12,244.8,600.8)" />
<use xlink:href="#f0_15" transform="matrix(12,0,0,12,55,622.1)" />
<use xlink:href="#f0_20" transform="matrix(12,0,0,12,66.4,622.1)" />
<use xlink:href="#f0_25" transform="matrix(12,0,0,12,75.6,622.1)" />
<use xlink:href="#f0_1y" transform="matrix(12,0,0,12,80.3,622.1)" />
<use xlink:href="#f0_28" transform="matrix(12,0,0,12,89.5,622.1)" />
<use xlink:href="#f0_21" transform="matrix(12,0,0,12,94.3,622.1)" />
<use xlink:href="#f0_2c" transform="matrix(12,0,0,12,107.1,622.1)" />
<use xlink:href="#f0_28" transform="matrix(12,0,0,12,116.6,622.1)" />
<use xlink:href="#f0_1x" transform="matrix(12,0,0,12,121.3,622.1)" />
<use xlink:href="#f0_2a" transform="matrix(12,0,0,12,129.8,622.1)" />
<use xlink:href="#f0_2g" transform="matrix(12,0,0,12,138.6,622.1)" />
<use xlink:href="#f0_2f" transform="matrix(12,0,0,12,144,622.1)" />
<use xlink:href="#f0_h" transform="matrix(12,0,0,12,151.1,622.1)" />
<use xlink:href="#f2_1d" transform="matrix(12,0,0,12,162.1,622.1)" />
<use xlink:href="#f2_1x" transform="matrix(12,0,0,12,177.5,622.1)" />
<use xlink:href="#f2_2e" transform="matrix(12,0,0,12,186.7,622.1)" />
<use xlink:href="#f2_1z" transform="matrix(12,0,0,12,193.7,622.1)" />
<use xlink:href="#f2_21" transform="matrix(12,0,0,12,201.7,622.1)" />
<use xlink:href="#f2_28" transform="matrix(12,0,0,12,209.8,622.1)" />
<use xlink:href="#f2_25" transform="matrix(12,0,0,12,214.9,622.1)" />
<use xlink:href="#f2_1x" transform="matrix(12,0,0,12,220,622.1)" />
<use xlink:href="#f0_1l" transform="matrix(12,0,0,12,55,643)" />
<use xlink:href="#f0_2f" transform="matrix(12,0,0,12,68.3,643)" />
<use xlink:href="#f0_21" transform="matrix(12,0,0,12,75.2,643)" />
<use xlink:href="#f0_20" transform="matrix(12,0,0,12,83.3,643)" />
<use xlink:href="#f0_25" transform="matrix(12,0,0,12,97.6,643)" />
<use xlink:href="#f0_2a" transform="matrix(12,0,0,12,102.3,643)" />
<use xlink:href="#f0_13" transform="matrix(12,0,0,12,115.9,643)" />
<use xlink:href="#f0_2e" transform="matrix(12,0,0,12,128,643)" />
<use xlink:href="#f0_2b" transform="matrix(12,0,0,12,134.2,643)" />
<use xlink:href="#f0_2c" transform="matrix(12,0,0,12,143.7,643)" />
<use xlink:href="#f0_2e" transform="matrix(12,0,0,12,157.6,643)" />
<use xlink:href="#f0_2b" transform="matrix(12,0,0,12,163.5,643)" />
<use xlink:href="#f0_2g" transform="matrix(12,0,0,12,172.7,643)" />
<use xlink:href="#f0_1x" transform="matrix(12,0,0,12,178.2,643)" />
<use xlink:href="#f0_2g" transform="matrix(12,0,0,12,185.9,643)" />
<use xlink:href="#f0_25" transform="matrix(12,0,0,12,191.3,643)" />
<use xlink:href="#f0_2b" transform="matrix(12,0,0,12,195.7,643)" />
<use xlink:href="#f0_2a" transform="matrix(12,0,0,12,205.3,643)" />
<use xlink:href="#f0_h" transform="matrix(12,0,0,12,214.2,643)" />
<use xlink:href="#f2_11" transform="matrix(12,0,0,12,225.2,643)" />
<use xlink:href="#f2_2m" transform="matrix(12,0,0,12,236.6,643)" />
<use xlink:href="#f2_2b" transform="matrix(12,0,0,12,243.5,643)" />
<use xlink:href="#f2_28" transform="matrix(12,0,0,12,252.7,643)" />
<use xlink:href="#f2_28" transform="matrix(12,0,0,12,257.8,643)" />
<use xlink:href="#f2_1x" transform="matrix(12,0,0,12,262.9,643)" />
<use xlink:href="#f0_18" transform="matrix(12,0,0,12,55,664.2)" />
<use xlink:href="#f0_21" transform="matrix(12,0,0,12,68.3,664.2)" />
<use xlink:href="#f0_28" transform="matrix(12,0,0,12,76.7,664.2)" />
<use xlink:href="#f0_2c" transform="matrix(12,0,0,12,81.1,664.2)" />
<use xlink:href="#f0_2f" transform="matrix(12,0,0,12,90.6,664.2)" />
<use xlink:href="#f0_25" transform="matrix(12,0,0,12,102.6,664.2)" />
<use xlink:href="#f0_2a" transform="matrix(12,0,0,12,107.4,664.2)" />
<use xlink:href="#f0_1j" transform="matrix(12,0,0,12,121,664.2)" />
<use xlink:href="#f0_2l" transform="matrix(12,0,0,12,131.7,664.2)" />
<use xlink:href="#f0_29" transform="matrix(12,0,0,12,140.5,664.2)" />
<use xlink:href="#f0_1y" transform="matrix(12,0,0,12,154.4,664.2)" />
<use xlink:href="#f0_25" transform="matrix(12,0,0,12,163.9,664.2)" />
<use xlink:href="#f0_2b" transform="matrix(12,0,0,12,168.3,664.2)" />
<use xlink:href="#f0_2g" transform="matrix(12,0,0,12,177.8,664.2)" />
<use xlink:href="#f0_25" transform="matrix(12,0,0,12,183.7,664.2)" />
<use xlink:href="#f0_1z" transform="matrix(12,0,0,12,188.1,664.2)" />
<use xlink:href="#f0_2a" transform="matrix(12,0,0,12,201.2,664.2)" />
<use xlink:href="#f0_25" transform="matrix(12,0,0,12,210.4,664.2)" />
<use xlink:href="#f0_2g" transform="matrix(12,0,0,12,214.8,664.2)" />
<use xlink:href="#f0_2e" transform="matrix(12,0,0,12,220.3,664.2)" />
<use xlink:href="#f0_2b" transform="matrix(12,0,0,12,226.5,664.2)" />
<use xlink:href="#f0_23" transform="matrix(12,0,0,12,236,664.2)" />
<use xlink:href="#f0_21" transform="matrix(12,0,0,12,245.2,664.2)" />
<use xlink:href="#f0_2a" transform="matrix(12,0,0,12,253.3,664.2)" />
<use xlink:href="#f0_22" transform="matrix(12,0,0,12,266.8,664.2)" />
<use xlink:href="#f0_25" transform="matrix(12,0,0,12,272.7,664.2)" />
<use xlink:href="#f0_2k" transform="matrix(12,0,0,12,277.4,664.2)" />
<use xlink:href="#f0_1x" transform="matrix(12,0,0,12,286.6,664.2)" />
<use xlink:href="#f0_2g" transform="matrix(12,0,0,12,294.7,664.2)" />
<use xlink:href="#f0_25" transform="matrix(12,0,0,12,300.5,664.2)" />
<use xlink:href="#f0_2b" transform="matrix(12,0,0,12,304.9,664.2)" />
<use xlink:href="#f0_2a" transform="matrix(12,0,0,12,314.4,664.2)" />
<use xlink:href="#f0_i" transform="matrix(12,0,0,12,323.2,664.2)" />
<use xlink:href="#f0_1g" transform="matrix(12,0,0,12,55,685.1)" />
<use xlink:href="#f0_28" transform="matrix(12,0,0,12,65.7,685.1)" />
<use xlink:href="#f0_1x" transform="matrix(12,0,0,12,70.1,685.1)" />
<use xlink:href="#f0_2l" transform="matrix(12,0,0,12,78.5,685.1)" />
<use xlink:href="#f0_1x" transform="matrix(12,0,0,12,92,685.1)" />
<use xlink:href="#f0_2a" transform="matrix(12,0,0,12,100.4,685.1)" />
<use xlink:href="#f0_25" transform="matrix(12,0,0,12,114.3,685.1)" />
<use xlink:href="#f0_29" transform="matrix(12,0,0,12,119.1,685.1)" />
<use xlink:href="#f0_2c" transform="matrix(12,0,0,12,133,685.1)" />
<use xlink:href="#f0_2b" transform="matrix(12,0,0,12,142.2,685.1)" />
<use xlink:href="#f0_2e" transform="matrix(12,0,0,12,151.7,685.1)" />
<use xlink:href="#f0_2g" transform="matrix(12,0,0,12,157.6,685.1)" />
<use xlink:href="#f0_1x" transform="matrix(12,0,0,12,163.1,685.1)" />
<use xlink:href="#f0_2a" transform="matrix(12,0,0,12,171.1,685.1)" />
<use xlink:href="#f0_2g" transform="matrix(12,0,0,12,179.9,685.1)" />
<use xlink:href="#f0_2e" transform="matrix(12,0,0,12,190.2,685.1)" />
<use xlink:href="#f0_2b" transform="matrix(12,0,0,12,196,685.1)" />
<use xlink:href="#f0_28" transform="matrix(12,0,0,12,205.6,685.1)" />
<use xlink:href="#f0_21" transform="matrix(12,0,0,12,210,685.1)" />
<use xlink:href="#f0_25" transform="matrix(12,0,0,12,223.1,685.1)" />
<use xlink:href="#f0_2a" transform="matrix(12,0,0,12,227.9,685.1)" />
<use xlink:href="#f0_2c" transform="matrix(12,0,0,12,241.5,685.1)" />
<use xlink:href="#f0_28" transform="matrix(12,0,0,12,251,685.1)" />
<use xlink:href="#f0_1x" transform="matrix(12,0,0,12,255.7,685.1)" />
<use xlink:href="#f0_2a" transform="matrix(12,0,0,12,264.1,685.1)" />
<use xlink:href="#f0_2g" transform="matrix(12,0,0,12,272.9,685.1)" />
<use xlink:href="#f0_2f" transform="matrix(12,0,0,12,283.2,685.1)" />
<use xlink:href="#f0_2h" transform="matrix(12,0,0,12,290.1,685.1)" />
<use xlink:href="#f0_1z" transform="matrix(12,0,0,12,299.3,685.1)" />
<use xlink:href="#f0_1z" transform="matrix(12,0,0,12,307.4,685.1)" />
<use xlink:href="#f0_21" transform="matrix(12,0,0,12,315.4,685.1)" />
<use xlink:href="#f0_2f" transform="matrix(12,0,0,12,323.5,685.1)" />
<use xlink:href="#f0_2f" transform="matrix(12,0,0,12,330.5,685.1)" />
<use xlink:href="#f0_25" transform="matrix(12,0,0,12,337.8,685.1)" />
<use xlink:href="#f0_2b" transform="matrix(12,0,0,12,342.2,685.1)" />
<use xlink:href="#f0_2a" transform="matrix(12,0,0,12,352.1,685.1)" />
<use xlink:href="#f0_2b" transform="matrix(12,0,0,12,365.6,685.1)" />
<use xlink:href="#f0_2a" transform="matrix(12,0,0,12,375.1,685.1)" />
<use xlink:href="#f0_1y" transform="matrix(12,0,0,12,388.7,685.1)" />
<use xlink:href="#f0_1x" transform="matrix(12,0,0,12,397.5,685.1)" />
<use xlink:href="#f0_2e" transform="matrix(12,0,0,12,405.6,685.1)" />
<use xlink:href="#f0_21" transform="matrix(12,0,0,12,411.8,685.1)" />
<use xlink:href="#f0_2e" transform="matrix(12,0,0,12,424.6,685.1)" />
<use xlink:href="#f0_2b" transform="matrix(12,0,0,12,430.8,685.1)" />
<use xlink:href="#f0_1z" transform="matrix(12,0,0,12,440.3,685.1)" />
<use xlink:href="#f0_27" transform="matrix(12,0,0,12,448.4,685.1)" />
<use xlink:href="#f0_2f" transform="matrix(12,0,0,12,457.5,685.1)" />
<use xlink:href="#f0_2b" transform="matrix(12,0,0,12,468.9,685.1)" />
<use xlink:href="#f0_2e" transform="matrix(12,0,0,12,478.1,685.1)" />
<use xlink:href="#f0_2f" transform="matrix(12,0,0,12,489,685.1)" />
<use xlink:href="#f0_2b" transform="matrix(12,0,0,12,495.6,685.1)" />
<use xlink:href="#f0_25" transform="matrix(12,0,0,12,505.2,685.1)" />
<use xlink:href="#f0_28" transform="matrix(12,0,0,12,509.9,685.1)" />
<use xlink:href="#f0_i" transform="matrix(12,0,0,12,514.7,685.1)" />
<use xlink:href="#f0_1j" transform="matrix(12,0,0,12,55,706.4)" />
<use xlink:href="#f0_2c" transform="matrix(12,0,0,12,65.3,706.4)" />
<use xlink:href="#f0_24" transform="matrix(12,0,0,12,74.5,706.4)" />
<use xlink:href="#f0_1x" transform="matrix(12,0,0,12,83.3,706.4)" />
<use xlink:href="#f0_23" transform="matrix(12,0,0,12,91.3,706.4)" />
<use xlink:href="#f0_2a" transform="matrix(12,0,0,12,100.8,706.4)" />
<use xlink:href="#f0_2h" transform="matrix(12,0,0,12,109.6,706.4)" />
<use xlink:href="#f0_29" transform="matrix(12,0,0,12,119.1,706.4)" />
<use xlink:href="#f0_25" transform="matrix(12,0,0,12,137.1,706.4)" />
<use xlink:href="#f0_2f" transform="matrix(12,0,0,12,141.9,706.4)" />
<use xlink:href="#f0_2h" transform="matrix(12,0,0,12,152.6,706.4)" />
<use xlink:href="#f0_2f" transform="matrix(12,0,0,12,161.8,706.4)" />
<use xlink:href="#f0_21" transform="matrix(12,0,0,12,168.7,706.4)" />
<use xlink:href="#f0_20" transform="matrix(12,0,0,12,176.8,706.4)" />
<use xlink:href="#f0_2g" transform="matrix(12,0,0,12,189.6,706.4)" />
<use xlink:href="#f0_2b" transform="matrix(12,0,0,12,195.1,706.4)" />
<use xlink:href="#f0_27" transform="matrix(12,0,0,12,208,706.4)" />
<use xlink:href="#f0_21" transform="matrix(12,0,0,12,217.1,706.4)" />
<use xlink:href="#f0_21" transform="matrix(12,0,0,12,225.2,706.4)" />
<use xlink:href="#f0_2c" transform="matrix(12,0,0,12,233.3,706.4)" />
<use xlink:href="#f0_2f" transform="matrix(12,0,0,12,246.1,706.4)" />
<use xlink:href="#f0_21" transform="matrix(12,0,0,12,253.1,706.4)" />
<use xlink:href="#f0_21" transform="matrix(12,0,0,12,261.1,706.4)" />
<use xlink:href="#f0_20" transform="matrix(12,0,0,12,269.2,706.4)" />
<use xlink:href="#f0_28" transform="matrix(12,0,0,12,278.7,706.4)" />
<use xlink:href="#f0_25" transform="matrix(12,0,0,12,283.5,706.4)" />
<use xlink:href="#f0_2a" transform="matrix(12,0,0,12,288.2,706.4)" />
<use xlink:href="#f0_23" transform="matrix(12,0,0,12,297.4,706.4)" />
<use xlink:href="#f0_2f" transform="matrix(12,0,0,12,306.6,706.4)" />
<use xlink:href="#f0_25" transform="matrix(12,0,0,12,317.6,706.4)" />
<use xlink:href="#f0_2a" transform="matrix(12,0,0,12,322.3,706.4)" />
<use xlink:href="#f0_23" transform="matrix(12,0,0,12,335.2,706.4)" />
<use xlink:href="#f0_1x" transform="matrix(12,0,0,12,344.3,706.4)" />
<use xlink:href="#f0_2e" transform="matrix(12,0,0,12,352.4,706.4)" />
<use xlink:href="#f0_20" transform="matrix(12,0,0,12,358.6,706.4)" />
<use xlink:href="#f0_21" transform="matrix(12,0,0,12,367.8,706.4)" />
<use xlink:href="#f0_2a" transform="matrix(12,0,0,12,376.2,706.4)" />
<use xlink:href="#f0_2f" transform="matrix(12,0,0,12,385,706.4)" />
<use xlink:href="#f0_1x" transform="matrix(12,0,0,12,395.6,706.4)" />
<use xlink:href="#f0_2a" transform="matrix(12,0,0,12,404.1,706.4)" />
<use xlink:href="#f0_20" transform="matrix(12,0,0,12,412.9,706.4)" />
<use xlink:href="#f0_1z" transform="matrix(12,0,0,12,426.1,706.4)" />
<use xlink:href="#f0_2h" transform="matrix(12,0,0,12,434.1,706.4)" />
<use xlink:href="#f0_2g" transform="matrix(12,0,0,12,443.3,706.4)" />
<use xlink:href="#f0_2c" transform="matrix(12,0,0,12,452.4,706.4)" />
<use xlink:href="#f0_28" transform="matrix(12,0,0,12,461.6,706.4)" />
<use xlink:href="#f0_1x" transform="matrix(12,0,0,12,466,706.4)" />
<use xlink:href="#f0_2a" transform="matrix(12,0,0,12,474.4,706.4)" />
<use xlink:href="#f0_2g" transform="matrix(12,0,0,12,483.2,706.4)" />
<use xlink:href="#f0_2c" transform="matrix(12,0,0,12,492.4,706.4)" />
<use xlink:href="#f0_1x" transform="matrix(12,0,0,12,501.5,706.4)" />
<use xlink:href="#f0_2e" transform="matrix(12,0,0,12,509.6,706.4)" />
<use xlink:href="#f0_2g" transform="matrix(12,0,0,12,515.5,706.4)" />
<use xlink:href="#f0_2f" transform="matrix(12,0,0,12,520.9,706.4)" />
<use xlink:href="#f0_29" transform="matrix(12,0,0,12,531.6,706.4)" />
<use xlink:href="#f0_2b" transform="matrix(12,0,0,12,545.1,706.4)" />
<use xlink:href="#f0_25" transform="matrix(12,0,0,12,555,706.4)" />
<use xlink:href="#f0_2f" transform="matrix(12,0,0,12,559.4,706.4)" />
<use xlink:href="#f0_2g" transform="matrix(12,0,0,12,566.4,706.4)" />
<use xlink:href="#f0_20" transform="matrix(12,0,0,12,575.5,706.4)" />
<use xlink:href="#f0_2h" transform="matrix(12,0,0,12,584.7,706.4)" />
<use xlink:href="#f0_2e" transform="matrix(12,0,0,12,593.9,706.4)" />
<use xlink:href="#f0_25" transform="matrix(12,0,0,12,600.1,706.4)" />
<use xlink:href="#f0_2a" transform="matrix(12,0,0,12,604.9,706.4)" />
<use xlink:href="#f0_23" transform="matrix(12,0,0,12,613.7,706.4)" />
<use xlink:href="#f0_2g" transform="matrix(12,0,0,12,626.5,706.4)" />
<use xlink:href="#f0_2e" transform="matrix(12,0,0,12,632,706.4)" />
<use xlink:href="#f0_1x" transform="matrix(12,0,0,12,638.2,706.4)" />
<use xlink:href="#f0_2a" transform="matrix(12,0,0,12,646.3,706.4)" />
<use xlink:href="#f0_2f" transform="matrix(12,0,0,12,655.1,706.4)" />
<use xlink:href="#f0_2c" transform="matrix(12,0,0,12,662,706.4)" />
<use xlink:href="#f0_2b" transform="matrix(12,0,0,12,671.2,706.4)" />
<use xlink:href="#f0_2e" transform="matrix(12,0,0,12,680.7,706.4)" />
<use xlink:href="#f0_2g" transform="matrix(12,0,0,12,686.9,706.4)" />
<use xlink:href="#f0_1x" transform="matrix(12,0,0,12,692.4,706.4)" />
<use xlink:href="#f0_2g" transform="matrix(12,0,0,12,700.1,706.4)" />
<use xlink:href="#f0_25" transform="matrix(12,0,0,12,705.6,706.4)" />
<use xlink:href="#f0_2b" transform="matrix(12,0,0,12,710,706.4)" />
<use xlink:href="#f0_2a" transform="matrix(12,0,0,12,719.5,706.4)" />
<use xlink:href="#f0_1x" transform="matrix(12,0,0,12,732,706.4)" />
<use xlink:href="#f0_2a" transform="matrix(12,0,0,12,740.4,706.4)" />
<use xlink:href="#f0_20" transform="matrix(12,0,0,12,749.2,706.4)" />
<use xlink:href="#f0_2c" transform="matrix(12,0,0,12,762,706.4)" />
<use xlink:href="#f0_2e" transform="matrix(12,0,0,12,771.2,706.4)" />
<use xlink:href="#f0_2b" transform="matrix(12,0,0,12,777.4,706.4)" />
<use xlink:href="#f0_2c" transform="matrix(12,0,0,12,786.9,706.4)" />
<use xlink:href="#f0_1x" transform="matrix(12,0,0,12,795.7,706.4)" />
<use xlink:href="#f0_23" transform="matrix(12,0,0,12,803.8,706.4)" />
<use xlink:href="#f0_1x" transform="matrix(12,0,0,12,812.9,706.4)" />
<use xlink:href="#f0_2g" transform="matrix(12,0,0,12,821,706.4)" />
<use xlink:href="#f0_25" transform="matrix(12,0,0,12,826.5,706.4)" />
<use xlink:href="#f0_2b" transform="matrix(12,0,0,12,830.9,706.4)" />
<use xlink:href="#f0_2a" transform="matrix(12,0,0,12,840.4,706.4)" />
<use xlink:href="#f0_i" transform="matrix(12,0,0,12,849.2,706.4)" />
<use xlink:href="#f3_13" transform="matrix(12,0,0,12,55,790.7)" />
<use xlink:href="#f3_2b" transform="matrix(12,0,0,12,68.3,790.7)" />
<use xlink:href="#f3_29" transform="matrix(12,0,0,12,77.4,790.7)" />
<use xlink:href="#f3_29" transform="matrix(12,0,0,12,92.4,790.7)" />
<use xlink:href="#f3_2b" transform="matrix(12,0,0,12,107.5,790.7)" />
<use xlink:href="#f3_2a" transform="matrix(12,0,0,12,116.6,790.7)" />
<use xlink:href="#f3_2a" transform="matrix(12,0,0,12,131.6,790.7)" />
<use xlink:href="#f3_1x" transform="matrix(12,0,0,12,141.9,790.7)" />
<use xlink:href="#f3_29" transform="matrix(12,0,0,12,151,790.7)" />
<use xlink:href="#f3_21" transform="matrix(12,0,0,12,166.1,790.7)" />
<use xlink:href="#f3_2f" transform="matrix(12,0,0,12,174.5,790.7)" />
<use xlink:href="#f3_u" transform="matrix(12,0,0,12,181.5,790.7)" />
<use xlink:href="#f1_3d" transform="matrix(12,0,0,12,82.5,813.1)" />
<use xlink:href="#f0_13" transform="matrix(12,0,0,12,110,813.1)" />
<use xlink:href="#f0_2e" transform="matrix(12,0,0,12,122.1,813.1)" />
<use xlink:href="#f0_21" transform="matrix(12,0,0,12,128.4,813.1)" />
<use xlink:href="#f0_21" transform="matrix(12,0,0,12,136.4,813.1)" />
<use xlink:href="#f0_2c" transform="matrix(12,0,0,12,144.5,813.1)" />
<use xlink:href="#f0_25" transform="matrix(12,0,0,12,154,813.1)" />
<use xlink:href="#f0_2a" transform="matrix(12,0,0,12,158.8,813.1)" />
<use xlink:href="#f0_23" transform="matrix(12,0,0,12,167.6,813.1)" />
<use xlink:href="#f0_2c" transform="matrix(12,0,0,12,181.6,813.1)" />
<use xlink:href="#f0_25" transform="matrix(12,0,0,12,191.1,813.1)" />
<use xlink:href="#f0_2a" transform="matrix(12,0,0,12,195.9,813.1)" />
<use xlink:href="#f0_21" transform="matrix(12,0,0,12,205,813.1)" />
<use xlink:href="#f0_j" transform="matrix(12,0,0,12,213.1,813.1)" />
<use xlink:href="#f0_13" transform="matrix(12,0,0,12,218.2,813.1)" />
<use xlink:href="#f0_28" transform="matrix(12,0,0,12,230.7,813.1)" />
<use xlink:href="#f0_2h" transform="matrix(12,0,0,12,235.4,813.1)" />
<use xlink:href="#f0_1y" transform="matrix(12,0,0,12,245,813.1)" />
<use xlink:href="#f0_29" transform="matrix(12,0,0,12,258.9,813.1)" />
<use xlink:href="#f0_2b" transform="matrix(12,0,0,12,272.4,813.1)" />
<use xlink:href="#f0_2f" transform="matrix(12,0,0,12,282,813.1)" />
<use xlink:href="#f0_2f" transform="matrix(12,0,0,12,288.9,813.1)" />
<use xlink:href="#f2_h" transform="matrix(12,0,0,12,296,813.1)" />
<use xlink:href="#f2_1c" transform="matrix(12,0,0,12,307,813.1)" />
<use xlink:href="#f2_2l" transform="matrix(12,0,0,12,317.3,813.1)" />
<use xlink:href="#f2_1z" transform="matrix(12,0,0,12,325.3,813.1)" />
<use xlink:href="#f2_2b" transform="matrix(12,0,0,12,333.4,813.1)" />
<use xlink:href="#f2_2c" transform="matrix(12,0,0,12,342.6,813.1)" />
<use xlink:href="#f2_2b" transform="matrix(12,0,0,12,351.7,813.1)" />
<use xlink:href="#f2_20" transform="matrix(12,0,0,12,360.9,813.1)" />
<use xlink:href="#f2_25" transform="matrix(12,0,0,12,370.1,813.1)" />
<use xlink:href="#f2_2h" transform="matrix(12,0,0,12,375.2,813.1)" />
<use xlink:href="#f2_29" transform="matrix(12,0,0,12,384.3,813.1)" />
<use xlink:href="#f1_3d" transform="matrix(12,0,0,12,82.5,835.5)" />
<use xlink:href="#f0_1j" transform="matrix(12,0,0,12,110,835.5)" />
<use xlink:href="#f0_2c" transform="matrix(12,0,0,12,120.3,835.5)" />
<use xlink:href="#f0_25" transform="matrix(12,0,0,12,129.8,835.5)" />
<use xlink:href="#f0_27" transform="matrix(12,0,0,12,134.2,835.5)" />
<use xlink:href="#f0_21" transform="matrix(12,0,0,12,143.4,835.5)" />
<use xlink:href="#f0_29" transform="matrix(12,0,0,12,156.5,835.5)" />
<use xlink:href="#f0_2b" transform="matrix(12,0,0,12,170.1,835.5)" />
<use xlink:href="#f0_2f" transform="matrix(12,0,0,12,179.6,835.5)" />
<use xlink:href="#f0_2f" transform="matrix(12,0,0,12,186.6,835.5)" />
<use xlink:href="#f0_c" transform="matrix(12,0,0,12,193.6,835.5)" />
<use xlink:href="#f0_1i" transform="matrix(12,0,0,12,199.8,835.5)" />
<use xlink:href="#f0_21" transform="matrix(12,0,0,12,211.9,835.5)" />
<use xlink:href="#f0_2f" transform="matrix(12,0,0,12,220.3,835.5)" />
<use xlink:href="#f0_2h" transform="matrix(12,0,0,12,227.3,835.5)" />
<use xlink:href="#f0_2e" transform="matrix(12,0,0,12,236.4,835.5)" />
<use xlink:href="#f0_2e" transform="matrix(12,0,0,12,242.6,835.5)" />
<use xlink:href="#f0_21" transform="matrix(12,0,0,12,248.9,835.5)" />
<use xlink:href="#f0_1z" transform="matrix(12,0,0,12,256.9,835.5)" />
<use xlink:href="#f0_2g" transform="matrix(12,0,0,12,265,835.5)" />
<use xlink:href="#f0_25" transform="matrix(12,0,0,12,270.5,835.5)" />
<use xlink:href="#f0_2b" transform="matrix(12,0,0,12,274.9,835.5)" />
<use xlink:href="#f0_2a" transform="matrix(12,0,0,12,284.4,835.5)" />
<use xlink:href="#f0_2c" transform="matrix(12,0,0,12,297.9,835.5)" />
<use xlink:href="#f0_28" transform="matrix(12,0,0,12,307.4,835.5)" />
<use xlink:href="#f0_1x" transform="matrix(12,0,0,12,312.2,835.5)" />
<use xlink:href="#f0_2a" transform="matrix(12,0,0,12,320.6,835.5)" />
<use xlink:href="#f0_2g" transform="matrix(12,0,0,12,329.4,835.5)" />
<use xlink:href="#f0_h" transform="matrix(12,0,0,12,335.2,835.5)" />
<use xlink:href="#f2_1j" transform="matrix(12,0,0,12,346.3,835.5)" />
<use xlink:href="#f2_21" transform="matrix(12,0,0,12,355.5,835.5)" />
<use xlink:href="#f2_28" transform="matrix(12,0,0,12,363.5,835.5)" />
<use xlink:href="#f2_1x" transform="matrix(12,0,0,12,368.6,835.5)" />
<use xlink:href="#f2_23" transform="matrix(12,0,0,12,377.8,835.5)" />
<use xlink:href="#f2_25" transform="matrix(12,0,0,12,386.9,835.5)" />
<use xlink:href="#f2_2a" transform="matrix(12,0,0,12,392.1,835.5)" />
<use xlink:href="#f2_21" transform="matrix(12,0,0,12,401.3,835.5)" />
<use xlink:href="#f2_28" transform="matrix(12,0,0,12,409.3,835.5)" />
<use xlink:href="#f2_28" transform="matrix(12,0,0,12,414.4,835.5)" />
<use xlink:href="#f2_1x" transform="matrix(12,0,0,12,419.6,835.5)" />
<use xlink:href="#f1_3d" transform="matrix(12,0,0,12,82.5,857.8)" />
<use xlink:href="#f0_1n" transform="matrix(12,0,0,12,110,857.8)" />
<use xlink:href="#f0_1x" transform="matrix(12,0,0,12,126.9,857.8)" />
<use xlink:href="#f0_2g" transform="matrix(12,0,0,12,135,857.8)" />
<use xlink:href="#f0_21" transform="matrix(12,0,0,12,140.5,857.8)" />
<use xlink:href="#f0_2e" transform="matrix(12,0,0,12,148.5,857.8)" />
<use xlink:href="#f0_22" transform="matrix(12,0,0,12,159.5,857.8)" />
<use xlink:href="#f0_21" transform="matrix(12,0,0,12,165,857.8)" />
<use xlink:href="#f0_2e" transform="matrix(12,0,0,12,173,857.8)" />
<use xlink:href="#f0_2a" transform="matrix(12,0,0,12,179.6,857.8)" />
<use xlink:href="#f0_h" transform="matrix(12,0,0,12,188.5,857.8)" />
<use xlink:href="#f2_11" transform="matrix(12,0,0,12,199.5,857.8)" />
<use xlink:href="#f2_2m" transform="matrix(12,0,0,12,210.9,857.8)" />
<use xlink:href="#f2_2b" transform="matrix(12,0,0,12,217.9,857.8)" />
<use xlink:href="#f2_28" transform="matrix(12,0,0,12,227,857.8)" />
<use xlink:href="#f2_28" transform="matrix(12,0,0,12,232.1,857.8)" />
<use xlink:href="#f2_1x" transform="matrix(12,0,0,12,237.3,857.8)" />
<use xlink:href="#f0_c" transform="matrix(12,0,0,12,251.3,857.8)" />
<use xlink:href="#f0_2f" transform="matrix(12,0,0,12,257.5,857.8)" />
<use xlink:href="#f0_29" transform="matrix(12,0,0,12,264.5,857.8)" />
<use xlink:href="#f0_1x" transform="matrix(12,0,0,12,278.4,857.8)" />
<use xlink:href="#f0_28" transform="matrix(12,0,0,12,286.8,857.8)" />
<use xlink:href="#f0_28" transform="matrix(12,0,0,12,291.6,857.8)" />
<use xlink:href="#f0_21" transform="matrix(12,0,0,12,296.3,857.8)" />
<use xlink:href="#f0_2f" transform="matrix(12,0,0,12,304.8,857.8)" />
<use xlink:href="#f0_2g" transform="matrix(12,0,0,12,311.7,857.8)" />
<use xlink:href="#f0_2c" transform="matrix(12,0,0,12,321.9,857.8)" />
<use xlink:href="#f0_2g" transform="matrix(12,0,0,12,330.7,857.8)" />
<use xlink:href="#f0_21" transform="matrix(12,0,0,12,336.2,857.8)" />
<use xlink:href="#f0_2e" transform="matrix(12,0,0,12,344.3,857.8)" />
<use xlink:href="#f0_25" transform="matrix(12,0,0,12,350.5,857.8)" />
<use xlink:href="#f0_20" transform="matrix(12,0,0,12,354.9,857.8)" />
<use xlink:href="#f0_2b" transform="matrix(12,0,0,12,364.1,857.8)" />
<use xlink:href="#f0_2c" transform="matrix(12,0,0,12,373.6,857.8)" />
<use xlink:href="#f0_24" transform="matrix(12,0,0,12,382.8,857.8)" />
<use xlink:href="#f0_2l" transform="matrix(12,0,0,12,391.9,857.8)" />
<use xlink:href="#f0_2g" transform="matrix(12,0,0,12,400.4,857.8)" />
<use xlink:href="#f0_21" transform="matrix(12,0,0,12,405.8,857.8)" />
<use xlink:href="#f0_d" transform="matrix(12,0,0,12,414.1,857.8)" />
<use xlink:href="#f1_3d" transform="matrix(12,0,0,12,82.5,880.2)" />
<use xlink:href="#f0_1n" transform="matrix(12,0,0,12,110,880.2)" />
<use xlink:href="#f0_1x" transform="matrix(12,0,0,12,126.9,880.2)" />
<use xlink:href="#f0_28" transform="matrix(12,0,0,12,135.3,880.2)" />
<use xlink:href="#f0_27" transform="matrix(12,0,0,12,140.1,880.2)" />
<use xlink:href="#f0_25" transform="matrix(12,0,0,12,149.6,880.2)" />
<use xlink:href="#f0_2a" transform="matrix(12,0,0,12,154.4,880.2)" />
<use xlink:href="#f0_23" transform="matrix(12,0,0,12,163.5,880.2)" />
<use xlink:href="#f0_22" transform="matrix(12,0,0,12,177.8,880.2)" />
<use xlink:href="#f0_21" transform="matrix(12,0,0,12,183.3,880.2)" />
<use xlink:href="#f0_2e" transform="matrix(12,0,0,12,191.4,880.2)" />
<use xlink:href="#f0_2a" transform="matrix(12,0,0,12,198,880.2)" />
<use xlink:href="#f0_c" transform="matrix(12,0,0,12,211.5,880.2)" />
<use xlink:href="#f0_1d" transform="matrix(12,0,0,12,217.7,880.2)" />
<use xlink:href="#f0_1x" transform="matrix(12,0,0,12,233.9,880.2)" />
<use xlink:href="#f0_25" transform="matrix(12,0,0,12,242.3,880.2)" />
<use xlink:href="#f0_20" transform="matrix(12,0,0,12,247,880.2)" />
<use xlink:href="#f0_21" transform="matrix(12,0,0,12,256.2,880.2)" />
<use xlink:href="#f0_2a" transform="matrix(12,0,0,12,264.6,880.2)" />
<use xlink:href="#f0_24" transform="matrix(12,0,0,12,278.2,880.2)" />
<use xlink:href="#f0_1x" transform="matrix(12,0,0,12,287.3,880.2)" />
<use xlink:href="#f0_28" transform="matrix(12,0,0,12,295.8,880.2)" />
<use xlink:href="#f0_28" transform="matrix(12,0,0,12,300.5,880.2)" />
<use xlink:href="#f0_22" transform="matrix(12,0,0,12,310.4,880.2)" />
<use xlink:href="#f0_21" transform="matrix(12,0,0,12,316.3,880.2)" />
<use xlink:href="#f0_2e" transform="matrix(12,0,0,12,324.3,880.2)" />
<use xlink:href="#f0_2a" transform="matrix(12,0,0,12,330.5,880.2)" />
<use xlink:href="#f0_d" transform="matrix(12,0,0,12,339.3,880.2)" />
<use xlink:href="#f0_h" transform="matrix(12,0,0,12,345.9,880.2)" />
<use xlink:href="#f2_11" transform="matrix(12,0,0,12,356.9,880.2)" />
<use xlink:href="#f2_20" transform="matrix(12,0,0,12,368.3,880.2)" />
<use xlink:href="#f2_25" transform="matrix(12,0,0,12,377.4,880.2)" />
<use xlink:href="#f2_1x" transform="matrix(12,0,0,12,382.5,880.2)" />
<use xlink:href="#f2_2a" transform="matrix(12,0,0,12,391.7,880.2)" />
<use xlink:href="#f2_2g" transform="matrix(12,0,0,12,400.9,880.2)" />
<use xlink:href="#f2_2h" transform="matrix(12,0,0,12,406,880.2)" />
<use xlink:href="#f2_29" transform="matrix(12,0,0,12,415.2,880.2)" />
<use xlink:href="#f1_3d" transform="matrix(12,0,0,12,82.5,903)" />
<use xlink:href="#f4_11" transform="matrix(12,0,0,12,110,903)" />
<use xlink:href="#f4_20" transform="matrix(12,0,0,12,122.9,903)" />
<use xlink:href="#f4_20" transform="matrix(12,0,0,12,132,903)" />
<use xlink:href="#f4_21" transform="matrix(12,0,0,12,141.2,903)" />
<use xlink:href="#f4_2e" transform="matrix(12,0,0,12,149.3,903)" />
<use xlink:href="#f4_53" transform="matrix(12,0,0,12,155.9,903)" />
<use xlink:href="#f4_2f" transform="matrix(12,0,0,12,161.7,903)" />
<use xlink:href="#f4_2g" transform="matrix(12,0,0,12,173.4,903)" />
<use xlink:href="#f4_2b" transform="matrix(12,0,0,12,178.5,903)" />
<use xlink:href="#f4_2a" transform="matrix(12,0,0,12,188.1,903)" />
<use xlink:href="#f4_23" transform="matrix(12,0,0,12,196.9,903)" />
<use xlink:href="#f4_2h" transform="matrix(12,0,0,12,206,903)" />
<use xlink:href="#f4_21" transform="matrix(12,0,0,12,215.2,903)" />
<use xlink:href="#f4_22" transform="matrix(12,0,0,12,228.4,903)" />
<use xlink:href="#f4_21" transform="matrix(12,0,0,12,233.9,903)" />
<use xlink:href="#f4_2e" transform="matrix(12,0,0,12,242,903)" />
<use xlink:href="#f4_2a" transform="matrix(12,0,0,12,248.5,903)" />
<use xlink:href="#f0_h" transform="matrix(12,0,0,12,257.5,903)" />
<use xlink:href="#f2_1f" transform="matrix(12,0,0,12,268.5,903)" />
<use xlink:href="#f2_2c" transform="matrix(12,0,0,12,281.7,903)" />
<use xlink:href="#f2_24" transform="matrix(12,0,0,12,290.9,903)" />
<use xlink:href="#f2_25" transform="matrix(12,0,0,12,300.1,903)" />
<use xlink:href="#f2_2b" transform="matrix(12,0,0,12,305.2,903)" />
<use xlink:href="#f2_23" transform="matrix(12,0,0,12,314.3,903)" />
<use xlink:href="#f2_28" transform="matrix(12,0,0,12,323.5,903)" />
<use xlink:href="#f2_2b" transform="matrix(12,0,0,12,328.6,903)" />
<use xlink:href="#f2_2f" transform="matrix(12,0,0,12,337.8,903)" />
<use xlink:href="#f2_2f" transform="matrix(12,0,0,12,344.8,903)" />
<use xlink:href="#f2_2h" transform="matrix(12,0,0,12,351.7,903)" />
<use xlink:href="#f2_29" transform="matrix(12,0,0,12,360.9,903)" />
<use xlink:href="#f1_3d" transform="matrix(12,0,0,12,82.5,925.4)" />
<use xlink:href="#f0_16" transform="matrix(12,0,0,12,110,925.4)" />
<use xlink:href="#f0_2b" transform="matrix(12,0,0,12,119.9,925.4)" />
<use xlink:href="#f0_2f" transform="matrix(12,0,0,12,129.5,925.4)" />
<use xlink:href="#f0_2f" transform="matrix(12,0,0,12,136.4,925.4)" />
<use xlink:href="#f0_25" transform="matrix(12,0,0,12,143.7,925.4)" />
<use xlink:href="#f0_28" transform="matrix(12,0,0,12,148.5,925.4)" />
<use xlink:href="#f0_2c" transform="matrix(12,0,0,12,158,925.4)" />
<use xlink:href="#f0_2g" transform="matrix(12,0,0,12,167.2,925.4)" />
<use xlink:href="#f0_21" transform="matrix(12,0,0,12,172.7,925.4)" />
<use xlink:href="#f0_2e" transform="matrix(12,0,0,12,180.7,925.4)" />
<use xlink:href="#f0_25" transform="matrix(12,0,0,12,187.3,925.4)" />
<use xlink:href="#f0_20" transform="matrix(12,0,0,12,191.7,925.4)" />
<use xlink:href="#f0_2b" transform="matrix(12,0,0,12,200.9,925.4)" />
<use xlink:href="#f0_2c" transform="matrix(12,0,0,12,210.4,925.4)" />
<use xlink:href="#f0_24" transform="matrix(12,0,0,12,219.6,925.4)" />
<use xlink:href="#f0_2l" transform="matrix(12,0,0,12,228.7,925.4)" />
<use xlink:href="#f0_2g" transform="matrix(12,0,0,12,237.2,925.4)" />
<use xlink:href="#f0_21" transform="matrix(12,0,0,12,242.6,925.4)" />
<use xlink:href="#f0_h" transform="matrix(12,0,0,12,250.9,925.4)" />
<use xlink:href="#f2_13" transform="matrix(12,0,0,12,261.9,925.4)" />
<use xlink:href="#f2_2b" transform="matrix(12,0,0,12,274,925.4)" />
<use xlink:href="#f2_2b" transform="matrix(12,0,0,12,283.2,925.4)" />
<use xlink:href="#f2_27" transform="matrix(12,0,0,12,292.3,925.4)" />
<use xlink:href="#f2_2f" transform="matrix(12,0,0,12,300.4,925.4)" />
<use xlink:href="#f2_2b" transform="matrix(12,0,0,12,307.4,925.4)" />
<use xlink:href="#f2_2a" transform="matrix(12,0,0,12,316.5,925.4)" />
<use xlink:href="#f2_25" transform="matrix(12,0,0,12,325.7,925.4)" />
<use xlink:href="#f2_1x" transform="matrix(12,0,0,12,330.8,925.4)" />
<use xlink:href="#f1_3d" transform="matrix(12,0,0,12,82.5,947.7)" />
<use xlink:href="#f0_1c" transform="matrix(12,0,0,12,110,947.7)" />
<use xlink:href="#f0_21" transform="matrix(12,0,0,12,121,947.7)" />
<use xlink:href="#f0_1x" transform="matrix(12,0,0,12,129.1,947.7)" />
<use xlink:href="#f0_22" transform="matrix(12,0,0,12,137.5,947.7)" />
<use xlink:href="#f0_28" transform="matrix(12,0,0,12,143.4,947.7)" />
<use xlink:href="#f0_21" transform="matrix(12,0,0,12,148.2,947.7)" />
<use xlink:href="#f0_2f" transform="matrix(12,0,0,12,156.6,947.7)" />
<use xlink:href="#f0_2f" transform="matrix(12,0,0,12,163.9,947.7)" />
<use xlink:href="#f0_1g" transform="matrix(12,0,0,12,175.6,947.7)" />
<use xlink:href="#f0_2g" transform="matrix(12,0,0,12,185.8,947.7)" />
<use xlink:href="#f0_21" transform="matrix(12,0,0,12,191.3,947.7)" />
<use xlink:href="#f0_2e" transform="matrix(12,0,0,12,199.4,947.7)" />
<use xlink:href="#f0_25" transform="matrix(12,0,0,12,205.6,947.7)" />
<use xlink:href="#f0_20" transform="matrix(12,0,0,12,210,947.7)" />
<use xlink:href="#f0_2b" transform="matrix(12,0,0,12,219.2,947.7)" />
<use xlink:href="#f0_2c" transform="matrix(12,0,0,12,228.7,947.7)" />
<use xlink:href="#f0_24" transform="matrix(12,0,0,12,237.9,947.7)" />
<use xlink:href="#f0_2l" transform="matrix(12,0,0,12,247,947.7)" />
<use xlink:href="#f0_2g" transform="matrix(12,0,0,12,255.5,947.7)" />
<use xlink:href="#f0_21" transform="matrix(12,0,0,12,260.9,947.7)" />
<use xlink:href="#f0_h" transform="matrix(12,0,0,12,269.2,947.7)" />
<use xlink:href="#f2_1g" transform="matrix(12,0,0,12,280.2,947.7)" />
<use xlink:href="#f2_2f" transform="matrix(12,0,0,12,291.2,947.7)" />
<use xlink:href="#f2_25" transform="matrix(12,0,0,12,298.2,947.7)" />
<use xlink:href="#f2_28" transform="matrix(12,0,0,12,303.3,947.7)" />
<use xlink:href="#f2_2b" transform="matrix(12,0,0,12,308.5,947.7)" />
<use xlink:href="#f2_2g" transform="matrix(12,0,0,12,317.6,947.7)" />
<use xlink:href="#f2_2h" transform="matrix(12,0,0,12,322.7,947.7)" />
<use xlink:href="#f2_29" transform="matrix(12,0,0,12,331.9,947.7)" />
<use xlink:href="#f1_3d" transform="matrix(12,0,0,12,82.5,970.1)" />
<use xlink:href="#f0_18" transform="matrix(12,0,0,12,110,970.1)" />
<use xlink:href="#f0_2b" transform="matrix(12,0,0,12,123.3,970.1)" />
<use xlink:href="#f0_2e" transform="matrix(12,0,0,12,132.8,970.1)" />
<use xlink:href="#f0_2f" transform="matrix(12,0,0,12,139,970.1)" />
<use xlink:href="#f0_21" transform="matrix(12,0,0,12,145.9,970.1)" />
<use xlink:href="#f0_2g" transform="matrix(12,0,0,12,158.4,970.1)" />
<use xlink:href="#f0_1x" transform="matrix(12,0,0,12,163.9,970.1)" />
<use xlink:href="#f0_25" transform="matrix(12,0,0,12,171.9,970.1)" />
<use xlink:href="#f0_28" transform="matrix(12,0,0,12,176.7,970.1)" />
<use xlink:href="#f0_h" transform="matrix(12,0,0,12,181.2,970.1)" />
<use xlink:href="#f2_15" transform="matrix(12,0,0,12,192.2,970.1)" />
<use xlink:href="#f2_2d" transform="matrix(12,0,0,12,203.6,970.1)" />
<use xlink:href="#f2_2h" transform="matrix(12,0,0,12,212.7,970.1)" />
<use xlink:href="#f2_25" transform="matrix(12,0,0,12,221.9,970.1)" />
<use xlink:href="#f2_2f" transform="matrix(12,0,0,12,227,970.1)" />
<use xlink:href="#f2_21" transform="matrix(12,0,0,12,234,970.1)" />
<use xlink:href="#f2_2g" transform="matrix(12,0,0,12,242.1,970.1)" />
<use xlink:href="#f2_2h" transform="matrix(12,0,0,12,247.2,970.1)" />
<use xlink:href="#f2_29" transform="matrix(12,0,0,12,256.3,970.1)" />
<use xlink:href="#f3_n" transform="matrix(12,0,0,12,55,1011.9)" />
<use xlink:href="#f3_i" transform="matrix(12,0,0,12,64.2,1011.9)" />
<use xlink:href="#f3_o" transform="matrix(12,0,0,12,69,1011.9)" />
<use xlink:href="#f3_17" transform="matrix(12,0,0,12,82.9,1011.9)" />
<use xlink:href="#f3_1p" transform="matrix(12,0,0,12,97.2,1011.9)" />
<use xlink:href="#f3_1d" transform="matrix(12,0,0,12,110,1011.9)" />
<use xlink:href="#f3_1e" transform="matrix(12,0,0,12,127.6,1011.9)" />
<use xlink:href="#f3_1f" transform="matrix(12,0,0,12,140.9,1011.9)" />
<use xlink:href="#f3_1j" transform="matrix(12,0,0,12,155.1,1011.9)" />
<use xlink:href="#f3_1g" transform="matrix(12,0,0,12,165.4,1011.9)" />
<use xlink:href="#f3_15" transform="matrix(12,0,0,12,176.4,1011.9)" />
<use xlink:href="#f3_1i" transform="matrix(12,0,0,12,188.5,1011.9)" />
<use xlink:href="#f3_1d" transform="matrix(12,0,0,12,201.7,1011.9)" />
<use xlink:href="#f3_1j" transform="matrix(12,0,0,12,219.2,1011.9)" />
<use xlink:href="#f3_u" transform="matrix(12,0,0,12,229.5,1011.9)" />
</g>
</g>
<image preserveAspectRatio="none" x="57" y="166" width="620" height="355" xlink:href="img/1.png" />
<g fill="#000000" >
<use xlink:href="#f5_l" transform="matrix(8,0,0,8,785.7,1264.1)" />
<use xlink:href="#f5_n" transform="matrix(8,0,0,8,792.5,1264.1)" />
</g>
<defs>
<path d="M394,460c0,0,126,0,186,57c0,0,60,57,60,187c0,0,0,123,-57,176c0,0,-58,53,-194,53H316V460ZM54,0V40L172,60V941L44,960v40H421c0,0,368,0,368,-295c0,0,0,-153,-93,-233c0,0,-93,-80,-267,-80H316V60L475,40V0Z" 
id="f0_1g"
transform="scale(0.001,-0.001)" />

<path d="M249,-14c0,0,-71,0,-107,42c0,0,-35,42,-35,119V639H15v33l93,29l76,159h47V701H391V639H231V161c0,0,0,-48,22,-73c0,0,22,-24,57,-24c0,0,44,0,106,12V26C416,26,389,8,340,-2c0,0,-49,-12,-91,-12Z" 
id="f0_2g"
transform="scale(0.001,-0.001)" />

<path d="M495,413c0,0,0,133,-34,190c0,0,-34,57,-105,57c0,0,-78,0,-119,-63c0,0,-42,-62,-42,-184ZM374,-14c0,0,-163,0,-239,87c0,0,-75,88,-75,283c0,0,0,183,77,273c0,0,76,91,219,91c0,0,269,0,269,-306V353H194V340c0,0,0,-103,23,-160c0,0,22,-57,70,-87c0,0,47,-29,124,-29c0,0,40,0,96,6c0,0,55,7,91,15V43C598,43,562,20,500,3c0,0,-61,-17,-126,-17Z" 
id="f0_21"
transform="scale(0.001,-0.001)" />

<path d="M31,0V33l88,19V649L31,668v33H235l7,-87c0,0,44,37,121,71c0,0,76,35,121,35h11V530H463l-43,82c0,0,-37,0,-88,-10c0,0,-52,-10,-89,-26V52L363,33V0Z" 
id="f0_2e"
transform="scale(0.001,-0.001)" />

<path d="M32,0V33L151,52V649L52,668v33H275V52L395,33V0ZM201,850c0,0,-32,0,-56,24c0,0,-24,24,-24,56c0,0,0,34,24,58c0,0,24,24,56,24c0,0,34,0,58,-24c0,0,24,-24,24,-58c0,0,0,-32,-24,-56c0,0,-24,-24,-58,-24Z" 
id="f0_25"
transform="scale(0.001,-0.001)" />

<path d="M383,64c0,0,85,0,152,28V645c0,0,-67,13,-152,13c0,0,-194,0,-194,-314c0,0,0,-141,48,-211c0,0,48,-69,146,-69ZM342,-14c0,0,-287,0,-287,358c0,0,0,184,82,280c0,0,81,96,239,96c0,0,81,0,163,-18c0,0,-4,25,-4,124v182l-118,18v34H659V52L745,33V0H548l-9,52c0,0,-84,-66,-197,-66Z" 
id="f0_20"
transform="scale(0.001,-0.001)" />

<path d="M377,45c0,0,99,0,147,73c0,0,47,73,47,237c0,0,0,161,-47,233c0,0,-47,72,-147,72c0,0,-97,0,-141,-69c0,0,-44,-69,-44,-236c0,0,0,-169,45,-240c0,0,44,-70,140,-70Zm0,-59c0,0,-158,0,-238,94c0,0,-81,95,-81,274c0,0,0,178,81,272c0,0,80,94,244,94c0,0,160,0,241,-92c0,0,82,-92,82,-274c0,0,0,-368,-329,-368Z" 
id="f0_2b"
transform="scale(0.001,-0.001)" />

<path d="M382,45c0,0,188,0,188,314c0,0,0,143,-47,213c0,0,-46,69,-141,69c0,0,-87,0,-146,-24V58c0,0,67,-13,146,-13ZM25,-325v35l88,18V649L34,668v33H231l1,-41c0,0,31,27,84,43c0,0,53,17,107,17c0,0,134,0,208,-94c0,0,73,-93,73,-267c0,0,0,-178,-80,-276c0,0,-80,-97,-232,-97c0,0,-84,0,-160,16c0,0,4,-53,4,-84V-272l123,-18v-35Z" 
id="f0_2c"
transform="scale(0.001,-0.001)" />

<path d="M442,0V33l93,19V504c0,0,0,129,-124,129c0,0,-70,0,-168,-22V52L338,33V0H31V33l88,19v956L15,1026v34H243V756c0,0,0,-77,-5,-112c0,0,54,31,122,53c0,0,68,23,115,23c0,0,91,0,137,-53c0,0,47,-53,47,-154V52L744,33V0Z" 
id="f0_24"
transform="scale(0.001,-0.001)" />

<path d="M148,-329c0,0,-58,0,-114,13v151H69l24,-71c0,0,23,-17,64,-17c0,0,39,0,72,22c0,0,33,23,60,67c0,0,27,44,68,157L90,649L19,668v33H344V668L233,648L423,158L606,649L497,668v33H758V668L685,652L411,-43c0,0,-48,-124,-84,-177c0,0,-36,-54,-79,-82c0,0,-44,-27,-100,-27Z" 
id="f0_2l"
transform="scale(0.001,-0.001)" />

<path d="M278,-14c0,0,-52,0,-115,11c0,0,-63,10,-99,23V193H98L134,95c0,0,56,-50,146,-50c0,0,144,0,144,123c0,0,0,91,-114,130l-66,21c0,0,-75,25,-110,50c0,0,-34,26,-53,63c0,0,-18,36,-18,89c0,0,0,92,63,145c0,0,63,54,170,54c0,0,77,0,193,-23V544H454l-32,81c0,0,-39,35,-124,35c0,0,-61,0,-92,-30c0,0,-32,-30,-32,-80c0,0,0,-43,29,-72c0,0,28,-29,86,-48c0,0,110,-38,144,-55c0,0,33,-17,57,-42c0,0,23,-25,36,-57c0,0,13,-32,13,-79c0,0,0,-104,-66,-158c0,0,-66,-53,-195,-53Z" 
id="f0_2f"
transform="scale(0.001,-0.001)" />

<path d="M64,0V34L168,59V639H47v36l121,29v49c0,0,0,155,61,239c0,0,62,84,173,84c0,0,58,0,107,-15V908H472l-33,92c0,0,-26,16,-62,16c0,0,-47,0,-66,-42c0,0,-19,-42,-19,-157V701H478V639H292V59L443,34V0Z" 
id="f0_22"
transform="scale(0.001,-0.001)" />

<path d="M289,-14c0,0,-179,0,-179,205V649L20,668v33H233V200c0,0,0,-128,120,-128c0,0,92,0,173,23V649L420,668v33H649V52L738,33V0H533l-6,57C527,57,474,28,405,7c0,0,-69,-21,-116,-21Z" 
id="f0_2h"
transform="scale(0.001,-0.001)" />

<path d="M399,-14c0,0,-341,0,-341,370c0,0,0,175,87,269c0,0,87,95,249,95c0,0,101,0,220,-23V501H573L541,625c0,0,-62,35,-149,35c0,0,-200,0,-200,-304c0,0,0,-158,61,-225c0,0,61,-67,189,-67c0,0,109,0,189,24V43C631,43,595,16,530,1c0,0,-64,-15,-131,-15Z" 
id="f0_1z"
transform="scale(0.001,-0.001)" />

<path d="M31,0V33L150,52v956L31,1026v34H274V52L394,33V0Z" 
id="f0_28"
transform="scale(0.001,-0.001)" />

<path d="M284,67c0,0,51,0,88,12c0,0,37,12,74,30V358l-98,-3c0,0,-100,-4,-135,-39c0,0,-35,-35,-35,-117c0,0,0,-132,106,-132ZM233,-14c0,0,-179,0,-179,208c0,0,0,70,27,116c0,0,27,46,87,70c0,0,60,24,173,27l105,3V519c0,0,0,72,-26,107c0,0,-27,34,-82,34c0,0,-75,0,-137,-35L176,538H134V691c0,0,121,26,213,26c0,0,115,0,169,-47c0,0,54,-47,54,-144V52L657,33V0H465L451,70c0,0,-85,-84,-218,-84Z" 
id="f0_1x"
transform="scale(0.001,-0.001)" />

<path d="M439,0V33l93,19V500c0,0,0,62,-30,97c0,0,-31,36,-94,36c0,0,-67,0,-165,-22V52L338,33V0H35V33l84,19V649L35,668v33H235l7,-57c0,0,57,33,122,54c0,0,65,22,108,22c0,0,91,0,137,-53c0,0,47,-53,47,-154V52L741,33V0Z" 
id="f0_2a"
transform="scale(0.001,-0.001)" />

<path d="M211,-20c0,0,-39,0,-64,25c0,0,-26,27,-26,64c0,0,0,38,26,64c0,0,26,26,64,26c0,0,37,0,64,-25c0,0,26,-26,26,-65c0,0,0,-37,-26,-64c0,0,-26,-25,-64,-25Zm0,556c0,0,-38,0,-64,26c0,0,-26,26,-26,64c0,0,0,37,26,64c0,0,25,27,64,27c0,0,38,0,64,-27c0,0,26,-27,26,-64c0,0,0,-38,-26,-64c0,0,-27,-26,-64,-26Z" 
id="f0_u"
transform="scale(0.001,-0.001)" />

<path d="M273,157c0,0,-114,0,-193,80C80,237,0,317,0,431c0,0,0,112,80,192c0,0,79,80,193,80c0,0,113,0,192,-80c0,0,80,-80,80,-192c0,0,0,-114,-80,-194c0,0,-79,-80,-192,-80Z" 
id="f1_3d"
transform="scale(0.001,-0.001)" />

<path d="M460,-325c0,0,-148,79,-231,172c0,0,-84,93,-123,217c0,0,-39,126,-39,304c0,0,0,178,39,303c0,0,39,125,122,217c0,0,82,93,232,172V997c0,0,-91,-52,-145,-134c0,0,-54,-81,-79,-190c0,0,-25,-109,-25,-305c0,0,0,-194,26,-309c0,0,26,-114,82,-193c0,0,56,-79,141,-128v-63Z" 
id="f0_c"
transform="scale(0.001,-0.001)" />

<path d="M457,460c0,0,289,0,289,266c0,0,0,106,-54,157c0,0,-54,50,-163,50H419L335,460ZM-7,0L0,40L120,60L276,941L151,960l7,40H559c0,0,161,0,248,-67c0,0,87,-66,87,-198c0,0,0,-167,-109,-255c0,0,-109,-88,-312,-88H323L264,60L427,40L420,0Z" 
id="f2_1g"
transform="scale(0.001,-0.001)" />

<path d="M228,-14c0,0,-103,0,-209,46L49,200H83L95,99c0,0,20,-21,55,-38c0,0,36,-16,81,-16c0,0,163,0,163,133c0,0,0,44,-35,78c0,0,-34,34,-113,72c0,0,-75,37,-112,81c0,0,-36,45,-36,104c0,0,0,99,66,153c0,0,67,54,184,54c0,0,85,0,200,-26L521,538H486l-11,80c0,0,-47,42,-124,42c0,0,-61,0,-97,-28c0,0,-37,-28,-37,-87c0,0,0,-40,31,-71c0,0,32,-30,119,-75c0,0,78,-40,113,-86c0,0,36,-47,36,-107c0,0,0,-113,-71,-167c0,0,-72,-53,-217,-53Z" 
id="f2_2f"
transform="scale(0.001,-0.001)" />

<path d="M85,0L199,649l-96,19l6,33H332L218,52L335,33L329,0ZM297,849c0,0,-33,0,-57,24c0,0,-24,24,-24,57c0,0,0,33,24,57c0,0,24,24,57,24c0,0,33,0,57,-24c0,0,24,-24,24,-57c0,0,0,-33,-24,-57c0,0,-24,-24,-57,-24Z" 
id="f2_25"
transform="scale(0.001,-0.001)" />

<path d="M81,0L258,1008l-96,18l6,34H391L214,52L331,33L325,0Z" 
id="f2_28"
transform="scale(0.001,-0.001)" />

<path d="M325,47c0,0,68,0,130,54c0,0,61,55,97,149c0,0,36,94,36,202c0,0,0,103,-39,156c0,0,-39,53,-113,53c0,0,-67,0,-128,-54c0,0,-61,-55,-96,-149c0,0,-35,-94,-35,-204c0,0,0,-101,39,-154c0,0,39,-53,109,-53Zm-6,-61c0,0,-124,0,-199,79c0,0,-74,79,-74,214c0,0,0,120,51,222c0,0,51,102,143,160c0,0,91,59,205,59c0,0,124,0,199,-80c0,0,74,-79,74,-214c0,0,0,-120,-51,-222C667,204,615,102,524,43c0,0,-91,-57,-205,-57Z" 
id="f2_2b"
transform="scale(0.001,-0.001)" />

<path d="M200,-14c0,0,-59,0,-93,35c0,0,-34,36,-34,100c0,0,0,22,4,51c0,0,4,30,82,467H67l6,33l99,29L275,860h47L295,701H455L443,639H283L210,230c0,0,-13,-69,-13,-99c0,0,0,-34,17,-51c0,0,17,-16,43,-16c0,0,54,0,113,21L386,50c0,0,-92,-64,-186,-64Z" 
id="f2_2g"
transform="scale(0.001,-0.001)" />

<path d="M228,-17c0,0,-76,0,-114,40c0,0,-38,41,-38,117c0,0,0,11,4,39c0,0,4,29,80,470L78,667l6,34H293L217,268c0,0,-17,-94,-17,-124c0,0,0,-34,18,-55c0,0,18,-21,57,-21c0,0,55,0,120,47c0,0,65,47,107,115l83,471H709L595,52L683,33L677,0H469l20,144C489,144,427,64,360,23c0,0,-67,-40,-132,-40Z" 
id="f2_2h"
transform="scale(0.001,-0.001)" />

<path d="M55,0L169,649L81,668l6,33H295L274,557c0,0,52,73,117,118c0,0,65,45,122,45c0,0,66,0,102,-42c0,0,36,-41,36,-121c0,0,51,72,115,117c0,0,64,46,123,46c0,0,63,0,99,-40c0,0,36,-40,36,-116c0,0,0,-16,-3,-42c0,0,-3,-27,-80,-470l98,-19L1032,0H808l77,434c0,0,17,90,17,124c0,0,0,34,-16,54c0,0,-15,21,-49,21c0,0,-33,0,-78,-32c0,0,-46,-31,-83,-80c0,0,-37,-49,-44,-91L558,0H434l76,434c0,0,19,98,19,124c0,0,0,34,-17,54c0,0,-16,21,-51,21c0,0,-33,0,-81,-34c0,0,-47,-33,-84,-80c0,0,-36,-48,-43,-89L179,0Z" 
id="f2_29"
transform="scale(0.001,-0.001)" />

<path d="M49,-325v63c0,0,85,49,140,128c0,0,56,79,83,194c0,0,26,115,26,308c0,0,0,196,-25,305c0,0,-25,109,-79,190c0,0,-54,82,-145,134v63c0,0,149,-80,232,-172c0,0,83,-92,122,-217c0,0,39,-125,39,-303c0,0,0,-177,-39,-303c0,0,-39,-125,-122,-217c0,0,-83,-93,-232,-173Z" 
id="f0_d"
transform="scale(0.001,-0.001)" />

<path d="M44,0V40L172,60V941L44,960v40H471V960L316,941V65H513c0,0,159,0,234,14l46,208h48L828,0Z" 
id="f0_1c"
transform="scale(0.001,-0.001)" />

<path d="M311,-14c0,0,-94,0,-169,18C142,4,67,23,18,55L57,277h48l1,-143c0,0,25,-37,84,-63c0,0,59,-26,126,-26c0,0,122,0,188,58c0,0,66,58,66,162c0,0,0,40,-18,70c0,0,-18,30,-48,54c0,0,-30,23,-67,44c0,0,-38,20,-77,40c0,0,-40,21,-78,44c0,0,-37,24,-67,55c0,0,-30,31,-48,71c0,0,-18,40,-18,94c0,0,0,133,90,204c0,0,91,70,259,70c0,0,128,0,241,-28L703,774H654l-4,128c0,0,-23,20,-66,33c0,0,-42,13,-98,13c0,0,-99,0,-153,-48c0,0,-53,-48,-53,-136c0,0,0,-47,33,-85c0,0,34,-39,100,-73c0,0,102,-53,146,-80c0,0,45,-28,75,-59c0,0,31,-31,49,-72c0,0,18,-40,18,-92c0,0,0,-154,-100,-236c0,0,-100,-81,-290,-81Z" 
id="f2_1j"
transform="scale(0.001,-0.001)" />

<path d="M188,355c0,0,148,11,236,69c0,0,89,58,89,143c0,0,0,41,-23,68c0,0,-22,27,-66,27c0,0,-52,0,-101,-43c0,0,-49,-42,-85,-114c0,0,-36,-71,-50,-150ZM298,-14c0,0,-120,0,-186,67c0,0,-65,67,-65,193c0,0,0,125,53,232c0,0,52,108,145,175c0,0,94,67,196,67c0,0,92,0,147,-42c0,0,56,-43,56,-111c0,0,0,-102,-126,-173c0,0,-125,-72,-336,-86l-3,-54c0,0,0,-95,40,-143c0,0,40,-47,118,-47c0,0,67,0,124,22c0,0,57,23,106,52l22,-32c0,0,-69,-58,-146,-89c0,0,-76,-31,-145,-31Z" 
id="f2_21"
transform="scale(0.001,-0.001)" />

<path d="M301,78c0,0,85,0,185,104l81,442c0,0,-29,20,-55,28c0,0,-25,8,-62,8c0,0,-75,0,-137,-56c0,0,-62,-56,-98,-152c0,0,-36,-95,-36,-199c0,0,0,-79,33,-127c0,0,33,-48,89,-48ZM245,-14c0,0,-90,0,-145,66c0,0,-54,66,-54,182c0,0,0,131,57,244c0,0,57,114,152,178c0,0,96,64,208,64c0,0,90,0,170,-33l33,26h40L589,52L673,33L667,0H454l22,117C476,117,350,-14,245,-14Z" 
id="f2_1x"
transform="scale(0.001,-0.001)" />

<path d="M312,78c0,0,42,0,93,28c0,0,51,27,99,76l82,460c0,0,-18,5,-32,9c0,0,-14,3,-28,6c0,0,-14,2,-29,3c0,0,-16,1,-36,1c0,0,-75,0,-139,-56c0,0,-64,-56,-100,-150c0,0,-37,-95,-37,-202c0,0,0,-80,33,-127c0,0,33,-48,94,-48ZM249,-325c0,0,-65,0,-136,16c0,0,-70,15,-112,37l13,170H48l27,-93c0,0,60,-59,173,-59c0,0,91,0,145,47c0,0,54,48,72,152l29,175c0,0,-54,-59,-120,-97c0,0,-66,-37,-119,-37c0,0,-95,0,-149,66c0,0,-55,67,-55,182c0,0,0,131,58,243c0,0,57,112,154,177c0,0,97,66,211,66c0,0,45,0,117,-9c0,0,72,-9,128,-22L594,-25c0,0,-28,-158,-108,-229c0,0,-80,-71,-237,-71Z" 
id="f2_23"
transform="scale(0.001,-0.001)" />

<path d="M54,0L169,649L81,668l6,33H294L274,558c0,0,62,81,130,121c0,0,67,41,132,41c0,0,75,0,113,-41c0,0,38,-41,38,-117c0,0,0,-10,-3,-32c0,0,-3,-21,-81,-478L700,34L695,0H470l76,434c0,0,17,94,17,123c0,0,0,34,-18,55c0,0,-18,21,-56,21c0,0,-56,0,-121,-47c0,0,-65,-47,-108,-117L178,0Z" 
id="f2_2a"
transform="scale(0.001,-0.001)" />

<path d="M410,-14c0,0,-80,0,-162,14c0,0,-81,14,-144,38V270h48L178,134c0,0,28,-35,95,-62c0,0,68,-27,134,-27c0,0,104,0,163,53c0,0,58,54,58,148c0,0,0,54,-23,89c0,0,-22,35,-59,59c0,0,-37,24,-84,41c0,0,-47,17,-97,34c0,0,-49,17,-96,38c0,0,-47,21,-84,53c0,0,-37,32,-60,79c0,0,-23,48,-23,117c0,0,0,119,90,187c0,0,89,68,248,68c0,0,121,0,263,-32V771H654L628,893c0,0,-76,55,-188,55c0,0,-100,0,-156,-40c0,0,-56,-41,-56,-112c0,0,0,-49,22,-81c0,0,23,-32,60,-55c0,0,37,-22,84,-39c0,0,48,-16,97,-34c0,0,50,-17,97,-39c0,0,48,-22,85,-56c0,0,36,-34,59,-83c0,0,23,-49,23,-120c0,0,0,-145,-89,-224c0,0,-89,-79,-256,-79Z" 
id="f0_1j"
transform="scale(0.001,-0.001)" />

<path d="M-17,0l8,40L120,60L276,941L151,960l7,40H909L866,761H817l4,161c0,0,-81,11,-239,11H419L349,543H619l45,119h48L657,354H609l-1,121H338L266,67H463c0,0,190,0,254,12l75,185h49L780,0Z" 
id="f2_15"
transform="scale(0.001,-0.001)" />

<path d="M313,80c0,0,53,0,105,15c0,0,52,15,87,38l90,509c0,0,-76,20,-152,20c0,0,-74,0,-134,-54c0,0,-60,-54,-94,-149c0,0,-34,-95,-34,-203c0,0,0,-86,34,-131c0,0,34,-45,98,-45ZM421,-325l52,285c0,0,12,64,28,120C501,80,443,37,380,11c0,0,-64,-25,-119,-25c0,0,-102,0,-156,63c0,0,-54,63,-54,188c0,0,0,137,53,248c0,0,54,112,152,173c0,0,97,62,220,62c0,0,52,0,129,-10c0,0,76,-11,123,-22L554,-273l91,-17l-6,-35Z" 
id="f2_2d"
transform="scale(0.001,-0.001)" />

<path d="M62,0L176,649L88,668l6,33H301L278,543c0,0,55,84,124,130c0,0,69,47,138,47c0,0,37,0,59,-6L566,530H534l-28,95c0,0,-60,0,-124,-46c0,0,-63,-45,-116,-120L186,0Z" 
id="f2_2e"
transform="scale(0.001,-0.001)" />

<path d="M191,-20c0,0,-39,0,-65,25c0,0,-25,27,-25,64c0,0,0,38,26,64c0,0,26,26,64,26c0,0,38,0,64,-26c0,0,26,-26,26,-64c0,0,0,-37,-25,-64c0,0,-26,-25,-65,-25Z" 
id="f0_i"
transform="scale(0.001,-0.001)" />

<path d="M26,0V54L154,74V926L26,945v55H878V746H810L786,908c0,0,-83,10,-241,10H389V551H651l23,111h67V355H674L651,468H389V82H578c0,0,193,0,252,12l43,185h68L927,0Z" 
id="f3_15"
transform="scale(0.001,-0.001)" />

<path d="M425,-14c0,0,-187,0,-280,90c0,0,-93,90,-93,276c0,0,0,115,42,198c0,0,43,82,121,126c0,0,78,44,182,44c0,0,104,0,227,-26V486H571L539,609c0,0,-25,19,-50,26c0,0,-24,7,-65,7c0,0,-44,0,-79,-35c0,0,-36,-35,-56,-98c0,0,-20,-64,-20,-153c0,0,0,-150,47,-214c0,0,47,-64,148,-64c0,0,103,0,176,21V42C640,42,606,15,547,0c0,0,-59,-14,-122,-14Z" 
id="f3_1z"
transform="scale(0.001,-0.001)" />

<path d="M379,60c0,0,59,0,84,64c0,0,24,65,24,231c0,0,0,164,-24,227c0,0,-24,63,-84,63c0,0,-57,0,-80,-60c0,0,-22,-61,-22,-230c0,0,0,-173,23,-234c0,0,22,-61,79,-61Zm-2,-74c0,0,-161,0,-240,91c0,0,-79,91,-79,277c0,0,0,186,80,276c0,0,81,90,245,90c0,0,167,0,245,-93c0,0,78,-93,78,-273c0,0,0,-188,-81,-278c0,0,-81,-90,-248,-90Z" 
id="f3_2b"
transform="scale(0.001,-0.001)" />

<path d="M41,0V49l69,18V634L41,652v49H313l11,-61l50,26c0,0,105,54,188,54c0,0,194,0,194,-207V67L827,49V0H478V49l63,18V484c0,0,0,63,-27,98c0,0,-26,35,-75,35c0,0,-57,0,-114,-25V67L389,49V0Z" 
id="f3_2a"
transform="scale(0.001,-0.001)" />

<path d="M41,0V49l69,18V634L41,652v49H313l11,-61l50,26c0,0,105,54,188,54c0,0,125,0,167,-91c0,0,153,91,258,91c0,0,189,0,189,-207V67l71,-17V0H898V50l63,17V484c0,0,0,63,-24,98c0,0,-25,35,-74,35c0,0,-55,0,-119,-31c0,0,7,-32,7,-73V67L821,50V0H473V50l63,17V484c0,0,0,63,-25,98c0,0,-24,35,-73,35c0,0,-49,0,-113,-29V67L389,49V0Z" 
id="f3_29"
transform="scale(0.001,-0.001)" />

<path d="M34,0V49l76,18V634L38,652v49H325V67L402,49V0ZM217,831c0,0,-48,0,-81,33c0,0,-34,33,-34,82c0,0,0,48,34,81c0,0,34,33,81,33c0,0,48,0,81,-33c0,0,33,-33,33,-81c0,0,0,-47,-33,-81c0,0,-32,-34,-81,-34Z" 
id="f3_25"
transform="scale(0.001,-0.001)" />

<path d="M438,65c0,0,131,0,131,293c0,0,0,279,-130,279c0,0,-69,0,-127,-29V80c0,0,60,-15,126,-15ZM20,-325v50l76,18V634L19,652v49H304l1,-36c0,0,80,55,194,55c0,0,146,0,218,-86c0,0,71,-86,71,-271c0,0,0,-183,-83,-280c0,0,-83,-97,-238,-97c0,0,-79,0,-160,19c0,0,5,-48,5,-109V-257l103,-18v-50Z" 
id="f3_2c"
transform="scale(0.001,-0.001)" />

<path d="M41,0V49l91,18V634L41,652v49H336l8,-145c0,0,80,89,144,128c0,0,64,40,117,40h40V468H604l-45,94c0,0,-47,0,-106,-21c0,0,-60,-20,-105,-48V67L460,49V0Z" 
id="f3_2e"
transform="scale(0.001,-0.001)" />

<path d="M327,-14c0,0,-101,0,-156,45c0,0,-55,45,-55,131V624H25v48l108,29l87,159H332V701H480V624H332V176c0,0,0,-49,20,-73c0,0,20,-25,53,-25c0,0,40,0,97,12V26c0,0,-22,-15,-76,-27c0,0,-55,-13,-99,-13Z" 
id="f3_2g"
transform="scale(0.001,-0.001)" />

<path d="M345,75c0,0,50,0,110,26V351l-63,-2c0,0,-72,-3,-100,-38c0,0,-28,-35,-28,-113c0,0,0,-63,22,-93c0,0,23,-30,59,-30ZM266,-14c0,0,-217,0,-217,208c0,0,0,79,32,126c0,0,32,48,93,71c0,0,60,22,190,25l91,2V521c0,0,0,126,-104,126c0,0,-62,0,-140,-39L183,521H134V691c0,0,112,17,165,21c0,0,53,5,108,5c0,0,264,0,264,-194V67L741,49V0H483L466,54C466,54,408,14,361,0c0,0,-47,-14,-95,-14Z" 
id="f3_1x"
transform="scale(0.001,-0.001)" />

<path d="M434,423c0,0,0,101,-7,142c0,0,-6,40,-22,60c0,0,-16,19,-45,19c0,0,-44,0,-66,-48c0,0,-22,-49,-22,-173ZM389,-14c0,0,-172,0,-254,89c0,0,-83,90,-83,279c0,0,0,184,79,274c0,0,79,91,238,91c0,0,142,0,206,-76c0,0,64,-76,64,-237V345H271V333c0,0,0,-111,18,-158c0,0,18,-47,58,-72c0,0,40,-25,110,-25c0,0,66,0,166,22V42C623,42,582,18,517,1c0,0,-66,-15,-128,-15Z" 
id="f3_21"
transform="scale(0.001,-0.001)" />

<path d="M248,-20c0,0,-52,0,-87,34c0,0,-36,36,-36,88c0,0,0,52,36,88c0,0,35,36,87,36c0,0,52,0,88,-36c0,0,36,-36,36,-88c0,0,0,-51,-36,-87c0,0,-35,-35,-88,-35Zm0,488c0,0,-52,0,-87,36c0,0,-36,36,-36,88c0,0,0,52,35,88c0,0,35,36,88,36c0,0,53,0,89,-36c0,0,35,-37,35,-88c0,0,0,-51,-36,-87c0,0,-35,-37,-88,-37Z" 
id="f3_u"
transform="scale(0.001,-0.001)" />

<path d="M431,0V33L535,52V499c0,0,0,62,-32,96c0,0,-32,33,-95,33c0,0,-66,0,-163,-22V52L350,33V0H32V33l89,19V649L32,668v33H237l6,-57c0,0,56,32,119,54c0,0,62,22,110,22c0,0,52,0,95,-20c0,0,44,-19,66,-62c0,0,57,32,134,57c0,0,77,25,128,25c0,0,179,0,179,-207V52l90,-19V0H846V33L950,52V499c0,0,0,129,-119,129c0,0,-19,0,-45,-3c0,0,-26,-3,-52,-7c0,0,-25,-4,-49,-8c0,0,-23,-5,-39,-8c0,0,13,-41,13,-89V52L764,33V0Z" 
id="f0_29"
transform="scale(0.001,-0.001)" />

<path d="M376,50c0,0,103,0,149,80c0,0,46,81,46,240c0,0,0,137,-47,204c0,0,-48,67,-148,67c0,0,-44,0,-87,-7c0,0,-44,-8,-63,-17V62c0,0,63,-12,150,-12Zm3,-64c0,0,-64,0,-141,14c0,0,-78,14,-136,37v971L0,1026v34H226V809c0,0,0,-40,-4,-148c0,0,74,59,188,59c0,0,143,0,219,-87c0,0,77,-87,77,-263c0,0,0,-189,-84,-287c0,0,-84,-97,-243,-97Z" 
id="f0_1y"
transform="scale(0.001,-0.001)" />

<path d="M617,0L251,860V60L385,40V0H44V40L172,60V941L44,960v40H347L672,239l355,761h287V960L1185,941V60L1314,40V0H908V40l134,20V859L643,0Z" 
id="f0_1d"
transform="scale(0.001,-0.001)" />

<path d="M57,302V417H454V302Z" 
id="f0_h"
transform="scale(0.001,-0.001)" />

<path d="M463,65c0,0,220,0,340,135c0,0,121,135,121,385c0,0,0,348,-385,348H419L266,70c0,0,120,-5,197,-5Zm6,-67L110,0H-16l7,40L121,60L276,941L151,960l7,40H585c0,0,241,0,368,-105c0,0,127,-106,127,-304c0,0,0,-179,-75,-314c0,0,-75,-136,-214,-208C791,69,653,-2,469,-2Z" 
id="f2_14"
transform="scale(0.001,-0.001)" />

<path d="M-15,-329c0,0,-61,0,-112,13l28,152h34l12,-72c0,0,18,-17,60,-17c0,0,100,0,212,202L253,9L116,649L33,668l6,33H230L338,155L513,458c0,0,48,83,48,144c0,0,0,27,-16,44c0,0,-15,16,-33,22l6,33H659c0,0,20,-17,20,-47c0,0,0,-59,-62,-164L322,-7c0,0,-86,-145,-135,-205c0,0,-50,-61,-98,-89c0,0,-49,-28,-104,-28Z" 
id="f2_2l"
transform="scale(0.001,-0.001)" />

<path d="M317,45c0,0,74,0,134,54c0,0,60,55,97,153c0,0,36,98,36,200c0,0,0,82,-33,129c0,0,-33,46,-89,46c0,0,-40,0,-93,-29c0,0,-54,-29,-96,-75L192,81c0,0,46,-36,125,-36ZM-88,-325l5,35l90,17L170,649L93,668l6,33H297L283,588c0,0,130,132,235,132c0,0,90,0,145,-67c0,0,55,-66,55,-182c0,0,0,-132,-56,-244C662,227,606,114,510,49c0,0,-97,-63,-209,-63c0,0,-35,0,-72,5c0,0,-37,5,-55,11l-8,-67L130,-273l119,-17l-6,-35Z" 
id="f2_2c"
transform="scale(0.001,-0.001)" />

<path d="M44,0V40L172,60V941L44,960v40H445V960L316,941V549H787V941L659,960v40h400V960L930,941V60L1059,40V0H659V40L787,60V481H316V60L445,40V0Z" 
id="f0_18"
transform="scale(0.001,-0.001)" />

<path d="M359,-270c0,0,124,0,192,46c0,0,67,47,67,129c0,0,0,43,-26,67c0,0,-26,24,-79,24H242c0,0,-32,-27,-51,-69c0,0,-20,-41,-20,-77c0,0,0,-64,46,-92c0,0,46,-28,142,-28Zm11,561c0,0,81,0,115,47c0,0,34,47,34,141c0,0,0,100,-35,142c0,0,-35,42,-113,42c0,0,-78,0,-114,-43c0,0,-37,-42,-37,-141c0,0,0,-98,36,-143c0,0,36,-45,114,-45ZM359,-329c0,0,-143,0,-218,44c0,0,-75,43,-75,125c0,0,0,39,27,78c0,0,26,38,98,89c0,0,-43,14,-72,48c0,0,-29,35,-29,74L208,262c0,0,-118,55,-118,217c0,0,0,115,73,178c0,0,73,63,211,63c0,0,28,0,71,-6c0,0,44,-6,67,-13l165,83l26,-32L599,644c0,0,50,-56,50,-165c0,0,0,-120,-72,-182c0,0,-73,-62,-208,-62c0,0,-62,0,-114,11L208,148c0,0,2,-13,29,-24c0,0,27,-12,67,-12H512c0,0,113,0,168,-49c0,0,55,-49,55,-134c0,0,0,-79,-44,-137c0,0,-43,-58,-128,-90c0,0,-84,-31,-204,-31Z" 
id="f0_23"
transform="scale(0.001,-0.001)" />

<path d="M557,-14c0,0,-199,0,-298,89c0,0,-99,90,-99,255V941L32,960v40H432V960L304,941V341c0,0,0,-273,264,-273c0,0,144,0,220,68c0,0,77,68,77,202V941L730,960v40h341V960L943,941V344c0,0,0,-180,-99,-269c0,0,-99,-89,-287,-89Z" 
id="f0_1l"
transform="scale(0.001,-0.001)" />

<path d="M551,45c0,0,171,0,252,108c0,0,82,108,82,349c0,0,0,239,-81,344c0,0,-81,105,-253,105c0,0,-172,0,-252,-105c0,0,-80,-105,-80,-344c0,0,0,-241,80,-349c0,0,81,-108,252,-108Zm0,-59c0,0,-238,0,-363,129C188,115,63,245,63,501c0,0,0,510,488,510c0,0,242,0,366,-129c0,0,124,-130,124,-381c0,0,0,-255,-126,-385C915,116,790,-14,551,-14Z" 
id="f0_1f"
transform="scale(0.001,-0.001)" />

<path d="M44,0V40L172,60V941L44,960v40H794V760H745L721,922c0,0,-83,11,-241,11H316V543H586l23,119h48V354H609L586,475H316V67H513c0,0,193,0,252,12l43,185h49L843,0Z" 
id="f0_15"
transform="scale(0.001,-0.001)" />

<path d="M512,0L339,860L198,60L330,40L322,0H-17l8,40L120,60L276,941L151,960l7,40H443L597,237l446,763h300l-8,-40L1204,941L1048,60L1173,40L1166,0H760l8,40L905,60l141,800L538,0Z" 
id="f2_1d"
transform="scale(0.001,-0.001)" />

<path d="M298,-14c0,0,-120,0,-185,69c0,0,-66,69,-66,191c0,0,0,130,52,237c0,0,52,107,149,172c0,0,97,65,203,65c0,0,53,0,112,-12c0,0,60,-11,99,-27L628,485H587L575,615c0,0,-47,47,-125,47c0,0,-72,0,-134,-53c0,0,-62,-53,-100,-147c0,0,-37,-95,-37,-208c0,0,0,-190,154,-190c0,0,106,0,222,74l22,-32c0,0,-60,-56,-135,-88c0,0,-76,-32,-144,-32Z" 
id="f2_1z"
transform="scale(0.001,-0.001)" />

<path d="M577,-14c0,0,-243,0,-379,132C198,118,63,250,63,488c0,0,0,258,130,391c0,0,131,132,387,132c0,0,156,0,335,-38l5,-218H871L848,884c0,0,-52,32,-121,50c0,0,-69,17,-141,17c0,0,-191,0,-279,-112c0,0,-88,-113,-88,-349c0,0,0,-217,92,-332c0,0,92,-115,268,-115c0,0,85,0,160,20c0,0,76,21,120,55l27,149h49L930,32c0,0,-164,-46,-353,-46Z" 
id="f0_13"
transform="scale(0.001,-0.001)" />

<path d="M631,416L539,902L283,416ZM576,0l8,40L691,60L643,348H249L96,60L197,40L189,0H-83l8,40L7,60l509,949H659L845,60L938,40L930,0Z" 
id="f2_11"
transform="scale(0.001,-0.001)" />

<path d="M-16,0l7,34L410,641H299c0,0,-42,0,-81,-7c0,0,-40,-7,-58,-19L119,514H84l34,187H574l-6,-36L149,60H296c0,0,42,0,81,9c0,0,40,9,66,26l57,109h35L481,0Z" 
id="f2_2m"
transform="scale(0.001,-0.001)" />

<path d="M13,0V34L95,46L325,350L122,649L40,668v33H357V668L264,648L399,446L554,649l-96,19v33H710V668L630,652L433,397L663,50L745,34V0H427V34l94,17L359,299L169,50L266,34V0Z" 
id="f0_2k"
transform="scale(0.001,-0.001)" />

<path d="M477,0V33l64,19L348,354L257,254V52L331,33V0H44V33l89,19v956L29,1026v34H257V338L544,647l-73,20v34H718V667L631,650L431,446L688,50L764,33V0Z" 
id="f0_27"
transform="scale(0.001,-0.001)" />

<path d="M608,-14c0,0,-251,0,-392,133C216,119,75,252,75,488c0,0,0,257,134,390c0,0,135,133,398,133c0,0,174,0,361,-50l4,-240H905L884,866c0,0,-98,67,-229,67c0,0,-173,0,-253,-108c0,0,-80,-108,-80,-334c0,0,0,-209,84,-319c0,0,83,-109,243,-109c0,0,84,0,147,22c0,0,63,22,99,53l24,164h68L982,48C982,48,915,22,808,4C808,4,700,-14,608,-14Z" 
id="f3_13"
transform="scale(0.001,-0.001)" />

<path d="M276,-14c0,0,-57,0,-125,13C151,-1,83,10,48,23V214H97l28,-98c0,0,26,-26,69,-44c0,0,42,-17,86,-17c0,0,65,0,97,28c0,0,32,28,32,71c0,0,0,41,-31,65c0,0,-30,25,-133,57c0,0,-108,34,-154,92c0,0,-45,58,-45,143c0,0,0,95,71,152c0,0,71,57,183,57c0,0,77,0,207,-22V518H457l-24,82c0,0,-21,22,-60,35c0,0,-40,14,-75,14c0,0,-53,0,-79,-22c0,0,-26,-22,-26,-59c0,0,0,-40,32,-65c0,0,32,-26,132,-55c0,0,109,-34,155,-89c0,0,45,-55,45,-137c0,0,0,-117,-72,-177c0,0,-72,-59,-209,-59Z" 
id="f3_2f"
transform="scale(0.001,-0.001)" />

<path d="M0,-14L351,1007h73L75,-14Z" 
id="f0_j"
transform="scale(0.001,-0.001)" />

<path d="M57,302V417H454V302Z" 
id="f2_h"
transform="scale(0.001,-0.001)" />

<path d="M-17,0l8,40L120,60L276,941L151,960l7,40H585l-8,-40L420,941L265,65H424c0,0,142,0,222,14l83,208h48L713,0Z" 
id="f2_1c"
transform="scale(0.001,-0.001)" />

<path d="M301,78c0,0,41,0,90,27c0,0,49,28,95,77l81,442c0,0,-26,18,-54,27c0,0,-27,10,-67,10c0,0,-70,0,-131,-55c0,0,-61,-55,-99,-152c0,0,-37,-97,-37,-201c0,0,0,-79,33,-127c0,0,33,-48,89,-48ZM245,-14c0,0,-91,0,-145,68c0,0,-54,69,-54,183c0,0,0,128,55,240c0,0,55,112,150,177c0,0,96,66,210,66c0,0,70,0,123,-18c0,0,3,36,51,306l-115,18l6,34H768L589,52L673,33L667,0H454l22,117C476,117,350,-14,245,-14Z" 
id="f2_20"
transform="scale(0.001,-0.001)" />

<path d="M448,506c0,0,134,0,190,49c0,0,57,50,57,168c0,0,0,114,-56,162c0,0,-56,48,-195,48H316V506ZM777,0L496,438H316V60L468,40V0H54V40L172,60V941L44,960v40H476c0,0,188,0,277,-63c0,0,90,-64,90,-204c0,0,0,-100,-54,-173c0,0,-55,-73,-151,-101L909,60L1017,40V0Z" 
id="f0_1i"
transform="scale(0.001,-0.001)" />

<path d="M420,-22L89,941L1,960v40H383V960L236,941L474,236L744,930h33L1037,236l227,705l-156,19v40h331V960l-87,-19L1025,-22H985L726,666L460,-22Z" 
id="f0_1n"
transform="scale(0.001,-0.001)" />

<path d="M678,393L506,802L330,393ZM11,0V27c0,0,63,12,82,30c0,0,38,35,84,145l356,832h27L912,193c0,0,43,-101,77,-132c0,0,35,-30,97,-34V0H687V27c0,0,60,3,82,21c0,0,21,17,21,41c0,0,0,33,-30,104L700,338H307L239,179c0,0,-26,-59,-26,-88c0,0,0,-23,22,-41c0,0,22,-17,95,-23V0Z" 
id="f4_11"
transform="scale(0.001,-0.001)" />

<path d="M399,62c0,0,68,0,131,68V481c0,0,-5,51,-27,93c0,0,-22,42,-59,63c0,0,-37,21,-72,21c0,0,-65,0,-117,-59c0,0,-67,-77,-67,-226c0,0,0,-151,65,-231c0,0,66,-80,146,-80ZM330,-20c0,0,-112,0,-196,93c0,0,-83,94,-83,240c0,0,0,147,92,269c0,0,93,122,238,122c0,0,90,0,149,-58V773c0,0,0,117,-6,144c0,0,-5,27,-17,37c0,0,-12,9,-30,9c0,0,-20,0,-52,-12l-9,27l204,83h33V270c0,0,0,-120,6,-146c0,0,5,-27,18,-37c0,0,12,-11,28,-11c0,0,21,0,54,13l9,-26L564,-20H530V78C530,78,480,25,432,2c0,0,-47,-22,-102,-22Z" 
id="f4_20"
transform="scale(0.001,-0.001)" />

<path d="M479,469c0,0,-4,66,-16,93c0,0,-18,42,-55,65c0,0,-37,24,-78,24c0,0,-62,0,-111,-48c0,0,-48,-48,-57,-134ZM355,-20c0,0,-123,0,-211,95c0,0,-87,96,-87,258c0,0,0,175,90,273c0,0,89,98,225,98c0,0,115,0,189,-76c0,0,74,-75,74,-202H162c0,0,0,-152,74,-239c0,0,75,-86,175,-86c0,0,67,0,117,36c0,0,50,37,83,127l24,-15c0,0,-16,-102,-91,-186c0,0,-76,-83,-189,-83Z" 
id="f4_21"
transform="scale(0.001,-0.001)" />

<path d="M17,0V26c0,0,52,0,77,17c0,0,19,12,26,38c0,0,4,13,4,73V419c0,0,0,119,-5,142c0,0,-4,23,-17,33c0,0,-13,11,-33,11c0,0,-23,0,-52,-11l-7,26l207,83h31V549c0,0,86,154,176,154c0,0,41,0,68,-25c0,0,27,-25,27,-58c0,0,0,-29,-20,-49c0,0,-19,-20,-46,-20c0,0,-26,0,-58,25c0,0,-33,26,-48,26c0,0,-14,0,-29,-15c0,0,-34,-30,-70,-101V159c0,0,0,-56,15,-85c0,0,9,-20,34,-34c0,0,24,-14,71,-14V0Z" 
id="f4_2e"
transform="scale(0.001,-0.001)" />

<path d="M177,647v35c0,0,77,46,105,86c0,0,19,28,19,68c0,0,0,23,-8,34c0,0,-9,11,-19,11c0,0,-9,0,-22,-5c0,0,-19,-7,-32,-7c0,0,-30,0,-53,23c0,0,-23,22,-23,56c0,0,0,37,23,58c0,0,31,28,75,28c0,0,50,0,90,-42c0,0,40,-42,40,-105c0,0,0,-88,-67,-160c0,0,-44,-48,-128,-80Z" 
id="f4_53"
transform="scale(0.001,-0.001)" />

<path d="M312,-20c0,0,-62,0,-143,22c0,0,-25,8,-40,8c0,0,-18,0,-27,-19H77V234h25c0,0,21,-105,80,-158c0,0,59,-53,132,-53c0,0,51,0,84,31c0,0,32,30,32,72c0,0,0,52,-36,87c0,0,-36,35,-144,88c0,0,-109,54,-142,97c0,0,-34,43,-34,107c0,0,0,85,58,141c0,0,58,57,150,57c0,0,40,0,97,-17c0,0,38,-11,51,-11c0,0,12,0,19,5c0,0,7,5,15,23h25V470H464c0,0,-28,110,-72,149c0,0,-45,40,-113,40c0,0,-53,0,-85,-28c0,0,-32,-27,-32,-61c0,0,0,-41,24,-71c0,0,23,-31,94,-65L389,381c0,0,152,-74,152,-194c0,0,0,-94,-71,-151c0,0,-70,-56,-158,-56Z" 
id="f4_2f"
transform="scale(0.001,-0.001)" />

<path d="M255,-10c0,0,-35,0,-68,18c0,0,-32,19,-48,55c0,0,-16,35,-16,109V632H15v24c0,0,41,16,84,56c0,0,43,39,77,92c0,0,17,29,48,104h23V683H407V632H247V188c0,0,0,-66,19,-90c0,0,19,-23,49,-23c0,0,24,0,47,16c0,0,23,15,36,45h29c0,0,-26,-73,-74,-110c0,0,-47,-36,-98,-36Z" 
id="f4_2g"
transform="scale(0.001,-0.001)" />

<path d="M406,32c0,0,72,0,119,60c0,0,47,59,47,205c0,0,0,181,-78,286c0,0,-53,71,-135,71c0,0,-40,0,-79,-23c0,0,-40,-24,-65,-83c0,0,-24,-58,-24,-151c0,0,0,-149,59,-257c0,0,59,-108,156,-108ZM374,-20c0,0,-154,0,-245,122c0,0,-77,104,-77,233c0,0,0,94,46,187c0,0,47,92,123,137c0,0,76,44,161,44c0,0,155,0,249,-118c0,0,80,-100,80,-231c0,0,0,-91,-44,-185C667,169,623,75,546,27c0,0,-77,-47,-172,-47Z" 
id="f4_2b"
transform="scale(0.001,-0.001)" />

<path d="M21,0V26H35c0,0,53,0,71,27c0,0,18,27,18,101V408c0,0,0,123,-5,150c0,0,-6,27,-17,37c0,0,-12,10,-31,10c0,0,-21,0,-50,-11L10,620l206,83h32V558c0,0,120,145,229,145c0,0,56,0,96,-28c0,0,40,-28,64,-92c0,0,16,-45,16,-137V154c0,0,0,-65,11,-88c0,0,8,-19,26,-29c0,0,18,-11,68,-11V0H419V26h14c0,0,47,0,66,15c0,0,20,15,27,43c0,0,3,11,3,70V434c0,0,0,93,-24,135c0,0,-24,42,-81,42c0,0,-88,0,-176,-97V154c0,0,0,-69,9,-86c0,0,10,-21,28,-31c0,0,19,-11,75,-11V0Z" 
id="f4_2a"
transform="scale(0.001,-0.001)" />

<path d="M411,-239c0,0,134,0,198,48c0,0,64,47,64,100c0,0,0,39,-38,55c0,0,-39,16,-154,19c0,0,-167,5,-258,17c0,0,-35,-37,-53,-70c0,0,-17,-32,-17,-60c0,0,0,-36,43,-62c0,0,74,-47,215,-47ZM380,257c0,0,56,0,93,43c0,0,36,42,36,133c0,0,0,118,-51,185c0,0,-38,49,-98,49c0,0,-55,0,-92,-44c0,0,-37,-44,-37,-135c0,0,0,-117,50,-182c0,0,39,-49,99,-49ZM345,-328c0,0,-144,0,-243,64c0,0,-56,38,-56,78c0,0,0,18,8,36c0,0,13,27,52,76c0,0,5,7,76,80c0,0,-39,23,-55,41c0,0,-16,19,-16,42c0,0,0,26,22,61c0,0,21,35,98,100c0,0,-63,30,-97,85c0,0,-33,55,-33,121c0,0,0,101,76,174c0,0,77,73,196,73c0,0,98,0,170,-48H688c0,0,32,0,37,-2c0,0,6,-2,8,-6c0,0,4,-7,4,-24c0,0,0,-20,-4,-27c0,0,-2,-4,-7,-6c0,0,-6,-2,-38,-2H599c0,0,41,-54,41,-137c0,0,0,-96,-73,-163c0,0,-73,-68,-196,-68c0,0,-51,0,-104,15c0,0,-33,-28,-44,-49c0,0,-12,-22,-12,-37c0,0,0,-12,13,-24c0,0,12,-12,48,-17c0,0,21,-4,104,-6c0,0,154,-4,199,-11c0,0,70,-10,111,-51c0,0,42,-41,42,-102c0,0,0,-84,-79,-158c0,0,-117,-108,-304,-108Z" 
id="f4_23"
transform="scale(0.001,-0.001)" />

<path d="M292,-20c0,0,-57,0,-100,33c0,0,-42,33,-58,85c0,0,-17,52,-17,148V551c0,0,0,49,-10,68c0,0,-11,18,-31,29c0,0,-19,9,-68,9c-2,0,-4,0,-6,0v26H242V226c0,0,0,-95,33,-125c0,0,33,-30,80,-30c0,0,32,0,73,21c0,0,40,20,96,76V555c0,0,0,59,-21,80c0,0,-22,21,-89,22v26H647V269c0,0,0,-119,6,-145c0,0,6,-27,18,-37c0,0,12,-11,29,-11c0,0,23,0,52,13L763,63L558,-20H524V124C524,124,436,29,390,4c0,0,-47,-24,-98,-24Z" 
id="f4_2h"
transform="scale(0.001,-0.001)" />

<path d="M63,0V26H93c0,0,30,0,54,15c0,0,25,15,34,41c0,0,10,25,10,99V630H58v53H191v45c0,0,0,102,33,173c0,0,32,71,100,114c0,0,68,44,152,44c0,0,79,0,145,-51c0,0,43,-33,43,-75c0,0,0,-22,-19,-42c0,0,-20,-20,-42,-20c0,0,-17,0,-36,12c0,0,-19,13,-47,53c0,0,-28,41,-51,55c0,0,-23,14,-51,14c0,0,-35,0,-58,-18c0,0,-24,-18,-35,-57c0,0,-10,-38,-10,-197V683H491V630H315V181c0,0,0,-96,21,-122c0,0,27,-33,73,-33h62V0Z" 
id="f4_22"
transform="scale(0.001,-0.001)" />

<path d="M500,49c0,0,111,0,205,75c0,0,95,75,154,216c0,0,59,140,59,280c0,0,0,150,-76,240c0,0,-77,91,-202,91c0,0,-111,0,-204,-75c0,0,-93,-76,-151,-217c0,0,-59,-141,-59,-284c0,0,0,-147,75,-237c0,0,75,-89,199,-89Zm-5,-63c0,0,-121,0,-216,50c0,0,-96,50,-149,142c0,0,-53,91,-53,205c0,0,0,180,74,326c0,0,75,145,204,224c0,0,129,78,295,78c0,0,120,0,216,-50c0,0,96,-51,149,-142c0,0,53,-91,53,-206c0,0,0,-177,-75,-325C993,288,918,140,789,63c0,0,-129,-77,-294,-77Z" 
id="f2_1f"
transform="scale(0.001,-0.001)" />

<path d="M55,0L232,1008l-88,18l6,34H365L286,615L274,558c0,0,59,79,128,120c0,0,68,42,134,42c0,0,75,0,113,-41c0,0,38,-41,38,-117c0,0,0,-10,-3,-32c0,0,-3,-21,-81,-478L700,34L695,0H470l76,434c0,0,17,94,17,123c0,0,0,34,-18,55c0,0,-18,21,-56,21c0,0,-56,0,-121,-47c0,0,-65,-47,-107,-114L178,0Z" 
id="f2_24"
transform="scale(0.001,-0.001)" />

<path d="M54,0V40L172,60V941L44,960v40H794V760H745L721,922c0,0,-83,11,-241,11H316V516H611l23,120h46V328H634L611,449H316V60L483,40V0Z" 
id="f0_16"
transform="scale(0.001,-0.001)" />

<path d="M521,-14c0,0,-205,0,-320,107C201,93,85,200,85,390c0,0,0,185,77,326c0,0,77,142,220,219c0,0,142,76,324,76c0,0,158,0,327,-38L1000,755H951V884c0,0,-46,32,-112,50c0,0,-65,17,-137,17c0,0,-135,0,-242,-72c0,0,-107,-72,-166,-203c0,0,-60,-132,-60,-301c0,0,0,-160,78,-244c0,0,78,-84,222,-84c0,0,85,0,166,25c0,0,82,26,133,65l53,149h49L889,52C889,52,803,20,705,3c0,0,-99,-17,-184,-17Z" 
id="f2_13"
transform="scale(0.001,-0.001)" />

<path d="M44,0L223,1008l-101,18l6,34H356L228,338L547,647l-70,20l6,34H700l-5,-34L634,650L415,441L596,51L669,34L663,0H487L324,357L214,254L168,0Z" 
id="f2_27"
transform="scale(0.001,-0.001)" />

<path d="M342,-14c0,0,-138,0,-276,29L57,258h69L165,96c0,0,65,-36,136,-36c0,0,90,0,141,58c0,0,50,57,50,161c0,0,0,91,-40,139c0,0,-41,48,-132,54l-87,5v90l84,6c0,0,66,5,98,49c0,0,32,44,32,134c0,0,0,83,-38,131c0,0,-38,48,-107,48c0,0,-40,0,-66,-13c0,0,-26,-12,-49,-26L155,751H90V979c0,0,76,19,132,26c0,0,55,6,108,6c0,0,337,0,337,-246c0,0,0,-102,-54,-164c0,0,-54,-63,-153,-78c0,0,252,-30,252,-251c0,0,0,-136,-98,-211c0,0,-98,-75,-272,-75Z" 
id="f3_n"
transform="scale(0.001,-0.001)" />

<path d="M191,-20c0,0,-51,0,-88,34c0,0,-36,36,-36,88c0,0,0,52,36,88c0,0,36,36,88,36c0,0,51,0,88,-36c0,0,36,-36,36,-88c0,0,0,-51,-36,-87c0,0,-36,-35,-88,-35Z" 
id="f3_i"
transform="scale(0.001,-0.001)" />

<path d="M435,350V646c0,0,0,84,7,158L145,350ZM435,0V198H21V319l450,686H636V350H736V198H636V0Z" 
id="f3_o"
transform="scale(0.001,-0.001)" />

<path d="M614,-14c0,0,-163,0,-285,59c0,0,-122,60,-188,174c0,0,-66,114,-66,269c0,0,0,252,143,387c0,0,144,136,410,136c0,0,65,0,118,-5c0,0,54,-5,100,-14c0,0,46,-9,170,-44V718H949L931,848c0,0,-59,40,-130,62c0,0,-71,23,-146,23c0,0,-174,0,-253,-108c0,0,-80,-108,-80,-335c0,0,0,-211,84,-319c0,0,84,-108,243,-108c0,0,87,0,165,26V377L686,397v55h461V397l-98,-20V52C1049,52,956,22,834,4C834,4,712,-14,614,-14Z" 
id="f3_17"
transform="scale(0.001,-0.001)" />

<path d="M285,0V54L444,74V389L140,926L27,945v55H542V945L407,926L636,507L856,926L734,945v55h340V945L968,926L680,394V74L838,54V0Z" 
id="f3_1p"
transform="scale(0.001,-0.001)" />

<path d="M900,0V54l135,20V845L658,0H617L248,845V74L382,54V0H26V54L154,74V926L26,945v55H419L705,342l292,658h401V945L1270,926V74L1398,54V0Z" 
id="f3_1d"
transform="scale(0.001,-0.001)" />

<path d="M868,0L251,804V74L385,54V0H29V54L157,74V926L29,945v55H371L862,361V926L727,945v55h356V945L955,926V0Z" 
id="f3_1e"
transform="scale(0.001,-0.001)" />

<path d="M595,60c0,0,141,0,206,102c0,0,65,102,65,340c0,0,0,236,-65,335c0,0,-65,100,-206,100c0,0,-142,0,-207,-100c0,0,-66,-99,-66,-335c0,0,0,-239,66,-340c0,0,65,-102,207,-102Zm0,-74c0,0,-253,0,-387,130C208,116,75,246,75,501c0,0,0,510,520,510c0,0,256,0,387,-129c0,0,132,-130,132,-381c0,0,0,-254,-133,-385C981,116,848,-14,595,-14Z" 
id="f3_1f"
transform="scale(0.001,-0.001)" />

<path d="M410,-14c0,0,-86,0,-175,14C235,0,145,14,81,38V307h66L181,146c0,0,31,-37,94,-62c0,0,64,-24,132,-24c0,0,214,0,214,177c0,0,0,55,-41,93c0,0,-41,38,-128,68c0,0,-128,42,-185,68c0,0,-56,27,-95,63c0,0,-38,36,-62,87c0,0,-23,51,-23,125c0,0,0,132,90,201c0,0,90,69,263,69c0,0,125,0,278,-32V741H651L618,878c0,0,-76,56,-178,56c0,0,-92,0,-141,-34c0,0,-49,-34,-49,-104c0,0,0,-50,41,-86c0,0,41,-35,128,-63c0,0,171,-56,235,-97c0,0,64,-41,97,-103c0,0,34,-61,34,-143c0,0,0,-318,-375,-318Z" 
id="f3_1j"
transform="scale(0.001,-0.001)" />

<path d="M452,474c0,0,104,0,151,52c0,0,47,53,47,178c0,0,0,119,-45,167c0,0,-44,47,-156,47H390V474ZM36,0V54L154,74V926L26,945v55H467c0,0,213,0,318,-71c0,0,105,-71,105,-224c0,0,0,-313,-366,-313H390V74L557,54V0Z" 
id="f3_1g"
transform="scale(0.001,-0.001)" />

<path d="M498,506c0,0,115,0,164,47c0,0,48,48,48,166c0,0,0,112,-46,156c0,0,-46,43,-169,43H390V506ZM793,0L514,423H390V74L518,54V0H36V54L154,74V926L26,945v55H504c0,0,221,0,330,-68c0,0,109,-68,109,-212c0,0,0,-215,-201,-276L1009,74L1117,54V0Z" 
id="f3_1i"
transform="scale(0.001,-0.001)" />

<path d="M435,0V856c0,0,-48,-47,-127,-93c0,0,-79,-46,-142,-69V824c0,0,113,52,197,128c0,0,85,75,120,146h86V0Z" 
id="f5_l"
transform="scale(0.001,-0.001)" />

<path d="M412,-18c0,0,-144,0,-239,85c0,0,-95,86,-108,222l133,18c0,0,24,-114,79,-164c0,0,55,-50,135,-50c0,0,96,0,161,65c0,0,65,66,65,163c0,0,0,92,-61,152c0,0,-60,60,-153,60c0,0,-38,0,-95,-15l15,119c0,0,13,-2,21,-2c0,0,86,0,155,45c0,0,69,44,69,137c0,0,0,74,-50,122c0,0,-50,49,-129,49c0,0,-79,0,-131,-50c0,0,-52,-49,-67,-147L78,815c0,0,25,135,112,209c0,0,87,74,217,74c0,0,89,0,164,-38c0,0,76,-39,116,-105c0,0,40,-66,40,-141c0,0,0,-70,-39,-129c0,0,-38,-58,-112,-92c0,0,97,-22,151,-93c0,0,53,-70,53,-176c0,0,0,-143,-104,-243c0,0,-105,-99,-264,-99Z" 
id="f5_n"
transform="scale(0.001,-0.001)" />


</defs>
</svg>