<?xml version="1.0" encoding="UTF-8" standalone="no"?>
<!DOCTYPE svg PUBLIC "-//W3C//DTD SVG 1.1//EN"
"http://www.w3.org/Graphics/SVG/1.1/DTD/svg11.dtd">
<svg viewBox="0 0 935 1210" version="1.1" xmlns="http://www.w3.org/2000/svg" xmlns:xlink="http://www.w3.org/1999/xlink">
<defs>
<clipPath id="c0_161"><path d="M0,1210V0H935V1210Z" /></clipPath>
<style type="text/css"><![CDATA[
.g0_161{
}
]]></style>
</defs>
<g clip-path="url(#c0_161)">
<g fill="#000000" >
<use xlink:href="#f0_1j" transform="matrix(12,0,0,12,55,72.3)" />
<use xlink:href="#f0_2g" transform="matrix(12,0,0,12,65.3,72.3)" />
<use xlink:href="#f0_2e" transform="matrix(12,0,0,12,71.5,72.3)" />
<use xlink:href="#f0_2h" transform="matrix(12,0,0,12,79.2,72.3)" />
<use xlink:href="#f0_1z" transform="matrix(12,0,0,12,89.4,72.3)" />
<use xlink:href="#f0_2g" transform="matrix(12,0,0,12,97.5,72.3)" />
<use xlink:href="#f0_2h" transform="matrix(12,0,0,12,103.7,72.3)" />
<use xlink:href="#f0_2e" transform="matrix(12,0,0,12,114,72.3)" />
<use xlink:href="#f0_21" transform="matrix(12,0,0,12,121.7,72.3)" />
<use xlink:href="#f0_2b" transform="matrix(12,0,0,12,134.5,72.3)" />
<use xlink:href="#f0_22" transform="matrix(12,0,0,12,144,72.3)" />
<use xlink:href="#f0_20" transform="matrix(12,0,0,12,154.6,72.3)" />
<use xlink:href="#f0_2b" transform="matrix(12,0,0,12,164.9,72.3)" />
<use xlink:href="#f0_2h" transform="matrix(12,0,0,12,174,72.3)" />
<use xlink:href="#f0_1y" transform="matrix(12,0,0,12,184.3,72.3)" />
<use xlink:href="#f0_28" transform="matrix(12,0,0,12,194.5,72.3)" />
<use xlink:href="#f0_21" transform="matrix(12,0,0,12,199.3,72.3)" />
<use xlink:href="#f0_2f" transform="matrix(12,0,0,12,212.1,72.3)" />
<use xlink:href="#f0_2g" transform="matrix(12,0,0,12,219.1,72.3)" />
<use xlink:href="#f0_2e" transform="matrix(12,0,0,12,225.3,72.3)" />
<use xlink:href="#f0_1x" transform="matrix(12,0,0,12,233,72.3)" />
<use xlink:href="#f0_2a" transform="matrix(12,0,0,12,242.2,72.3)" />
<use xlink:href="#f0_20" transform="matrix(12,0,0,12,252.4,72.3)" />
<use xlink:href="#f0_21" transform="matrix(12,0,0,12,262.7,72.3)" />
<use xlink:href="#f0_20" transform="matrix(12,0,0,12,270.7,72.3)" />
<use xlink:href="#f0_14" transform="matrix(12,0,0,12,285.7,72.3)" />
<use xlink:href="#f0_1e" transform="matrix(12,0,0,12,299,72.3)" />
<use xlink:href="#f0_11" transform="matrix(12,0,0,12,312.1,72.3)" />
</g>
</g>
<path fill-rule="evenodd" d="M55,75.9H326.1V74.1H55v1.8Z" class="g0_161" />
<g clip-path="url(#c0_161)">
<g fill="#000000" >
<use xlink:href="#f1_14" transform="matrix(12,0,0,12,55,116.3)" />
<use xlink:href="#f1_1e" transform="matrix(12,0,0,12,68.3,116.3)" />
<use xlink:href="#f1_11" transform="matrix(12,0,0,12,81.4,116.3)" />
<use xlink:href="#f1_1x" transform="matrix(12,0,0,12,99,116.3)" />
<use xlink:href="#f1_2e" transform="matrix(12,0,0,12,107.1,116.3)" />
<use xlink:href="#f1_21" transform="matrix(12,0,0,12,113.3,116.3)" />
<use xlink:href="#f1_2b" transform="matrix(12,0,0,12,126.1,116.3)" />
<use xlink:href="#f1_22" transform="matrix(12,0,0,12,135.6,116.3)" />
<use xlink:href="#f1_20" transform="matrix(12,0,0,12,145.9,116.3)" />
<use xlink:href="#f1_25" transform="matrix(12,0,0,12,155.4,116.3)" />
<use xlink:href="#f1_22" transform="matrix(12,0,0,12,160.2,116.3)" />
<use xlink:href="#f1_22" transform="matrix(12,0,0,12,166.4,116.3)" />
<use xlink:href="#f1_21" transform="matrix(12,0,0,12,172.2,116.3)" />
<use xlink:href="#f1_2e" transform="matrix(12,0,0,12,180.3,116.3)" />
<use xlink:href="#f1_21" transform="matrix(12,0,0,12,186.5,116.3)" />
<use xlink:href="#f1_2a" transform="matrix(12,0,0,12,194.9,116.3)" />
<use xlink:href="#f1_2g" transform="matrix(12,0,0,12,203.7,116.3)" />
<use xlink:href="#f1_2g" transform="matrix(12,0,0,12,213.6,116.3)" />
<use xlink:href="#f1_2l" transform="matrix(12,0,0,12,219.1,116.3)" />
<use xlink:href="#f1_2c" transform="matrix(12,0,0,12,227.5,116.3)" />
<use xlink:href="#f1_21" transform="matrix(12,0,0,12,236.7,116.3)" />
<use xlink:href="#f1_2f" transform="matrix(12,0,0,12,245.1,116.3)" />
<use xlink:href="#f1_2f" transform="matrix(12,0,0,12,256.8,116.3)" />
<use xlink:href="#f1_2h" transform="matrix(12,0,0,12,263.8,116.3)" />
<use xlink:href="#f1_1z" transform="matrix(12,0,0,12,273,116.3)" />
<use xlink:href="#f1_24" transform="matrix(12,0,0,12,281.4,116.3)" />
<use xlink:href="#f1_1x" transform="matrix(12,0,0,12,294.9,116.3)" />
<use xlink:href="#f1_2f" transform="matrix(12,0,0,12,303,116.3)" />
<use xlink:href="#f1_h" transform="matrix(12,0,0,12,310.3,116.3)" />
<use xlink:href="#f0_12" transform="matrix(12,0,0,12,55,159.9)" />
<use xlink:href="#f0_14" transform="matrix(12,0,0,12,72.2,159.9)" />
<use xlink:href="#f0_1e" transform="matrix(12,0,0,12,85.5,159.9)" />
<use xlink:href="#f0_11" transform="matrix(12,0,0,12,98.6,159.9)" />
<use xlink:href="#f2_3d" transform="matrix(12,0,0,12,82.5,205)" />
<use xlink:href="#f1_1k" transform="matrix(12,0,0,12,110,205)" />
<use xlink:href="#f1_2j" transform="matrix(12,0,0,12,121.4,205)" />
<use xlink:href="#f1_2b" transform="matrix(12,0,0,12,134.6,205)" />
<use xlink:href="#f1_28" transform="matrix(12,0,0,12,148.5,205)" />
<use xlink:href="#f1_2b" transform="matrix(12,0,0,12,152.9,205)" />
<use xlink:href="#f1_2a" transform="matrix(12,0,0,12,162.4,205)" />
<use xlink:href="#f1_23" transform="matrix(12,0,0,12,171.2,205)" />
<use xlink:href="#f1_2c" transform="matrix(12,0,0,12,185.1,205)" />
<use xlink:href="#f1_2b" transform="matrix(12,0,0,12,194.3,205)" />
<use xlink:href="#f1_28" transform="matrix(12,0,0,12,203.8,205)" />
<use xlink:href="#f1_2l" transform="matrix(12,0,0,12,208.6,205)" />
<use xlink:href="#f1_2a" transform="matrix(12,0,0,12,217.4,205)" />
<use xlink:href="#f1_2h" transform="matrix(12,0,0,12,226.5,205)" />
<use xlink:href="#f1_1z" transform="matrix(12,0,0,12,236.1,205)" />
<use xlink:href="#f1_28" transform="matrix(12,0,0,12,244.5,205)" />
<use xlink:href="#f1_21" transform="matrix(12,0,0,12,249.2,205)" />
<use xlink:href="#f1_2b" transform="matrix(12,0,0,12,257.3,205)" />
<use xlink:href="#f1_2g" transform="matrix(12,0,0,12,266.8,205)" />
<use xlink:href="#f1_25" transform="matrix(12,0,0,12,272.3,205)" />
<use xlink:href="#f1_20" transform="matrix(12,0,0,12,276.7,205)" />
<use xlink:href="#f1_21" transform="matrix(12,0,0,12,285.9,205)" />
<use xlink:href="#f1_2f" transform="matrix(12,0,0,12,298.7,205)" />
<use xlink:href="#f1_2g" transform="matrix(12,0,0,12,305.7,205)" />
<use xlink:href="#f1_2e" transform="matrix(12,0,0,12,311.1,205)" />
<use xlink:href="#f1_1x" transform="matrix(12,0,0,12,317.3,205)" />
<use xlink:href="#f1_2a" transform="matrix(12,0,0,12,325.4,205)" />
<use xlink:href="#f1_20" transform="matrix(12,0,0,12,334.2,205)" />
<use xlink:href="#f1_2f" transform="matrix(12,0,0,12,343.4,205)" />
<use xlink:href="#f1_1x" transform="matrix(12,0,0,12,355.1,205)" />
<use xlink:href="#f1_2e" transform="matrix(12,0,0,12,363.2,205)" />
<use xlink:href="#f1_21" transform="matrix(12,0,0,12,369.4,205)" />
<use xlink:href="#f1_1z" transform="matrix(12,0,0,12,382.2,205)" />
<use xlink:href="#f1_2b" transform="matrix(12,0,0,12,390.3,205)" />
<use xlink:href="#f1_25" transform="matrix(12,0,0,12,399.8,205)" />
<use xlink:href="#f1_28" transform="matrix(12,0,0,12,404.5,205)" />
<use xlink:href="#f1_21" transform="matrix(12,0,0,12,409.3,205)" />
<use xlink:href="#f1_20" transform="matrix(12,0,0,12,417.4,205)" />
<use xlink:href="#f1_1x" transform="matrix(12,0,0,12,431.3,205)" />
<use xlink:href="#f1_2e" transform="matrix(12,0,0,12,439.4,205)" />
<use xlink:href="#f1_2b" transform="matrix(12,0,0,12,445.6,205)" />
<use xlink:href="#f1_2h" transform="matrix(12,0,0,12,455.1,205)" />
<use xlink:href="#f1_2a" transform="matrix(12,0,0,12,464.3,205)" />
<use xlink:href="#f1_20" transform="matrix(12,0,0,12,473.1,205)" />
<use xlink:href="#f1_2g" transform="matrix(12,0,0,12,486.6,205)" />
<use xlink:href="#f1_24" transform="matrix(12,0,0,12,492.1,205)" />
<use xlink:href="#f1_21" transform="matrix(12,0,0,12,500.9,205)" />
<use xlink:href="#f1_1x" transform="matrix(12,0,0,12,513.7,205)" />
<use xlink:href="#f1_2k" transform="matrix(12,0,0,12,521.8,205)" />
<use xlink:href="#f1_25" transform="matrix(12,0,0,12,531,205)" />
<use xlink:href="#f1_2f" transform="matrix(12,0,0,12,535.7,205)" />
<use xlink:href="#f1_i" transform="matrix(12,0,0,12,542.7,205)" />
<use xlink:href="#f2_3d" transform="matrix(12,0,0,12,82.5,238)" />
<use xlink:href="#f1_1j" transform="matrix(12,0,0,12,110,238)" />
<use xlink:href="#f1_2g" transform="matrix(12,0,0,12,120.3,238)" />
<use xlink:href="#f1_2e" transform="matrix(12,0,0,12,125.4,238)" />
<use xlink:href="#f1_1x" transform="matrix(12,0,0,12,131.6,238)" />
<use xlink:href="#f1_2a" transform="matrix(12,0,0,12,139.7,238)" />
<use xlink:href="#f1_20" transform="matrix(12,0,0,12,148.5,238)" />
<use xlink:href="#f1_2f" transform="matrix(12,0,0,12,157.7,238)" />
<use xlink:href="#f1_1x" transform="matrix(12,0,0,12,169.4,238)" />
<use xlink:href="#f1_2e" transform="matrix(12,0,0,12,177.4,238)" />
<use xlink:href="#f1_21" transform="matrix(12,0,0,12,183.7,238)" />
<use xlink:href="#f1_1x" transform="matrix(12,0,0,12,196.5,238)" />
<use xlink:href="#f1_2a" transform="matrix(12,0,0,12,204.5,238)" />
<use xlink:href="#f1_2g" transform="matrix(12,0,0,12,213.3,238)" />
<use xlink:href="#f1_25" transform="matrix(12,0,0,12,219.2,238)" />
<use xlink:href="#f1_2c" transform="matrix(12,0,0,12,223.6,238)" />
<use xlink:href="#f1_1x" transform="matrix(12,0,0,12,232.8,238)" />
<use xlink:href="#f1_2e" transform="matrix(12,0,0,12,240.8,238)" />
<use xlink:href="#f1_1x" transform="matrix(12,0,0,12,247,238)" />
<use xlink:href="#f1_28" transform="matrix(12,0,0,12,255.5,238)" />
<use xlink:href="#f1_28" transform="matrix(12,0,0,12,260.6,238)" />
<use xlink:href="#f1_21" transform="matrix(12,0,0,12,265.4,238)" />
<use xlink:href="#f1_28" transform="matrix(12,0,0,12,273.8,238)" />
<use xlink:href="#f1_2g" transform="matrix(12,0,0,12,282.9,238)" />
<use xlink:href="#f1_2b" transform="matrix(12,0,0,12,288.4,238)" />
<use xlink:href="#f1_21" transform="matrix(12,0,0,12,302.7,238)" />
<use xlink:href="#f1_1x" transform="matrix(12,0,0,12,310.7,238)" />
<use xlink:href="#f1_1z" transform="matrix(12,0,0,12,318.8,238)" />
<use xlink:href="#f1_24" transform="matrix(12,0,0,12,326.9,238)" />
<use xlink:href="#f1_2b" transform="matrix(12,0,0,12,340.4,238)" />
<use xlink:href="#f1_2g" transform="matrix(12,0,0,12,349.6,238)" />
<use xlink:href="#f1_24" transform="matrix(12,0,0,12,355.1,238)" />
<use xlink:href="#f1_21" transform="matrix(12,0,0,12,363.9,238)" />
<use xlink:href="#f1_2e" transform="matrix(12,0,0,12,371.9,238)" />
<use xlink:href="#f1_i" transform="matrix(12,0,0,12,378.1,238)" />
<use xlink:href="#f2_3d" transform="matrix(12,0,0,12,82.5,270.7)" />
<use xlink:href="#f1_17" transform="matrix(12,0,0,12,110,270.7)" />
<use xlink:href="#f1_2h" transform="matrix(12,0,0,12,123.3,270.7)" />
<use xlink:href="#f1_1x" transform="matrix(12,0,0,12,132.4,270.7)" />
<use xlink:href="#f1_2a" transform="matrix(12,0,0,12,140.5,270.7)" />
<use xlink:href="#f1_25" transform="matrix(12,0,0,12,149.6,270.7)" />
<use xlink:href="#f1_2a" transform="matrix(12,0,0,12,154.4,270.7)" />
<use xlink:href="#f1_21" transform="matrix(12,0,0,12,163.6,270.7)" />
<use xlink:href="#f1_1y" transform="matrix(12,0,0,12,176.8,270.7)" />
<use xlink:href="#f1_1x" transform="matrix(12,0,0,12,185.6,270.7)" />
<use xlink:href="#f1_2f" transform="matrix(12,0,0,12,193.6,270.7)" />
<use xlink:href="#f1_21" transform="matrix(12,0,0,12,200.9,270.7)" />
<use xlink:href="#f1_2c" transform="matrix(12,0,0,12,213.7,270.7)" />
<use xlink:href="#f1_1x" transform="matrix(12,0,0,12,222.9,270.7)" />
<use xlink:href="#f1_25" transform="matrix(12,0,0,12,231.3,270.7)" />
<use xlink:href="#f1_2e" transform="matrix(12,0,0,12,235.7,270.7)" />
<use xlink:href="#f1_2f" transform="matrix(12,0,0,12,241.9,270.7)" />
<use xlink:href="#f1_2j" transform="matrix(12,0,0,12,253.7,270.7)" />
<use xlink:href="#f1_25" transform="matrix(12,0,0,12,267.2,270.7)" />
<use xlink:href="#f1_2g" transform="matrix(12,0,0,12,271.6,270.7)" />
<use xlink:href="#f1_24" transform="matrix(12,0,0,12,277.5,270.7)" />
<use xlink:href="#f1_1z" transform="matrix(12,0,0,12,291,270.7)" />
<use xlink:href="#f1_2l" transform="matrix(12,0,0,12,299.4,270.7)" />
<use xlink:href="#f1_2g" transform="matrix(12,0,0,12,307.9,270.7)" />
<use xlink:href="#f1_2b" transform="matrix(12,0,0,12,313.3,270.7)" />
<use xlink:href="#f1_2f" transform="matrix(12,0,0,12,322.8,270.7)" />
<use xlink:href="#f1_25" transform="matrix(12,0,0,12,330.2,270.7)" />
<use xlink:href="#f1_2a" transform="matrix(12,0,0,12,334.9,270.7)" />
<use xlink:href="#f1_21" transform="matrix(12,0,0,12,343.7,270.7)" />
<use xlink:href="#f1_1x" transform="matrix(12,0,0,12,356.9,270.7)" />
<use xlink:href="#f1_2a" transform="matrix(12,0,0,12,365.3,270.7)" />
<use xlink:href="#f1_20" transform="matrix(12,0,0,12,374.1,270.7)" />
<use xlink:href="#f1_1x" transform="matrix(12,0,0,12,388,270.7)" />
<use xlink:href="#f1_20" transform="matrix(12,0,0,12,396.1,270.7)" />
<use xlink:href="#f1_21" transform="matrix(12,0,0,12,405.3,270.7)" />
<use xlink:href="#f1_2a" transform="matrix(12,0,0,12,413.3,270.7)" />
<use xlink:href="#f1_25" transform="matrix(12,0,0,12,422.5,270.7)" />
<use xlink:href="#f1_2a" transform="matrix(12,0,0,12,427.3,270.7)" />
<use xlink:href="#f1_21" transform="matrix(12,0,0,12,436.4,270.7)" />
<use xlink:href="#f1_1y" transform="matrix(12,0,0,12,449.6,270.7)" />
<use xlink:href="#f1_1x" transform="matrix(12,0,0,12,458.4,270.7)" />
<use xlink:href="#f1_2f" transform="matrix(12,0,0,12,466.8,270.7)" />
<use xlink:href="#f1_21" transform="matrix(12,0,0,12,473.8,270.7)" />
<use xlink:href="#f1_2c" transform="matrix(12,0,0,12,487,270.7)" />
<use xlink:href="#f1_1x" transform="matrix(12,0,0,12,496.1,270.7)" />
<use xlink:href="#f1_25" transform="matrix(12,0,0,12,504.6,270.7)" />
<use xlink:href="#f1_2e" transform="matrix(12,0,0,12,509,270.7)" />
<use xlink:href="#f1_2f" transform="matrix(12,0,0,12,515.2,270.7)" />
<use xlink:href="#f1_2j" transform="matrix(12,0,0,12,526.9,270.7)" />
<use xlink:href="#f1_25" transform="matrix(12,0,0,12,540.4,270.7)" />
<use xlink:href="#f1_2g" transform="matrix(12,0,0,12,544.8,270.7)" />
<use xlink:href="#f1_24" transform="matrix(12,0,0,12,550.3,270.7)" />
<use xlink:href="#f1_2g" transform="matrix(12,0,0,12,563.9,270.7)" />
<use xlink:href="#f1_24" transform="matrix(12,0,0,12,569.3,270.7)" />
<use xlink:href="#f1_2l" transform="matrix(12,0,0,12,578.5,270.7)" />
<use xlink:href="#f1_29" transform="matrix(12,0,0,12,587.3,270.7)" />
<use xlink:href="#f1_25" transform="matrix(12,0,0,12,601.6,270.7)" />
<use xlink:href="#f1_2a" transform="matrix(12,0,0,12,606.4,270.7)" />
<use xlink:href="#f1_21" transform="matrix(12,0,0,12,615.5,270.7)" />
<use xlink:href="#f1_i" transform="matrix(12,0,0,12,623.6,270.7)" />
<use xlink:href="#f2_3d" transform="matrix(12,0,0,12,82.5,303.7)" />
<use xlink:href="#f1_17" transform="matrix(12,0,0,12,110,303.7)" />
<use xlink:href="#f1_2h" transform="matrix(12,0,0,12,123.3,303.7)" />
<use xlink:href="#f1_1x" transform="matrix(12,0,0,12,132.4,303.7)" />
<use xlink:href="#f1_2a" transform="matrix(12,0,0,12,140.5,303.7)" />
<use xlink:href="#f1_25" transform="matrix(12,0,0,12,149.6,303.7)" />
<use xlink:href="#f1_2a" transform="matrix(12,0,0,12,154.4,303.7)" />
<use xlink:href="#f1_21" transform="matrix(12,0,0,12,163.6,303.7)" />
<use xlink:href="#f1_22" transform="matrix(12,0,0,12,176,303.7)" />
<use xlink:href="#f1_2b" transform="matrix(12,0,0,12,181.5,303.7)" />
<use xlink:href="#f1_2e" transform="matrix(12,0,0,12,191.1,303.7)" />
<use xlink:href="#f1_29" transform="matrix(12,0,0,12,197.6,303.7)" />
<use xlink:href="#f1_2f" transform="matrix(12,0,0,12,211.2,303.7)" />
<use xlink:href="#f1_n" transform="matrix(12,0,0,12,222.2,303.7)" />
<use xlink:href="#f1_24" transform="matrix(12,0,0,12,235.4,303.7)" />
<use xlink:href="#f1_2l" transform="matrix(12,0,0,12,244.6,303.7)" />
<use xlink:href="#f1_20" transform="matrix(12,0,0,12,253,303.7)" />
<use xlink:href="#f1_2e" transform="matrix(12,0,0,12,262.2,303.7)" />
<use xlink:href="#f1_2b" transform="matrix(12,0,0,12,268.4,303.7)" />
<use xlink:href="#f1_23" transform="matrix(12,0,0,12,277.9,303.7)" />
<use xlink:href="#f1_21" transform="matrix(12,0,0,12,287.1,303.7)" />
<use xlink:href="#f1_2a" transform="matrix(12,0,0,12,295.1,303.7)" />
<use xlink:href="#f1_1y" transform="matrix(12,0,0,12,308,303.7)" />
<use xlink:href="#f1_2b" transform="matrix(12,0,0,12,316.8,303.7)" />
<use xlink:href="#f1_2a" transform="matrix(12,0,0,12,326.3,303.7)" />
<use xlink:href="#f1_20" transform="matrix(12,0,0,12,335.1,303.7)" />
<use xlink:href="#f1_2f" transform="matrix(12,0,0,12,344.2,303.7)" />
<use xlink:href="#f1_2j" transform="matrix(12,0,0,12,355.2,303.7)" />
<use xlink:href="#f1_25" transform="matrix(12,0,0,12,368.8,303.7)" />
<use xlink:href="#f1_2g" transform="matrix(12,0,0,12,373.2,303.7)" />
<use xlink:href="#f1_24" transform="matrix(12,0,0,12,378.7,303.7)" />
<use xlink:href="#f1_1z" transform="matrix(12,0,0,12,391.5,303.7)" />
<use xlink:href="#f1_2l" transform="matrix(12,0,0,12,399.9,303.7)" />
<use xlink:href="#f1_2g" transform="matrix(12,0,0,12,408.4,303.7)" />
<use xlink:href="#f1_2b" transform="matrix(12,0,0,12,413.8,303.7)" />
<use xlink:href="#f1_2f" transform="matrix(12,0,0,12,423.4,303.7)" />
<use xlink:href="#f1_25" transform="matrix(12,0,0,12,430.7,303.7)" />
<use xlink:href="#f1_2a" transform="matrix(12,0,0,12,435.4,303.7)" />
<use xlink:href="#f1_21" transform="matrix(12,0,0,12,444.2,303.7)" />
<use xlink:href="#f1_2j" transform="matrix(12,0,0,12,456.3,303.7)" />
<use xlink:href="#f1_24" transform="matrix(12,0,0,12,469.6,303.7)" />
<use xlink:href="#f1_21" transform="matrix(12,0,0,12,478.7,303.7)" />
<use xlink:href="#f1_2e" transform="matrix(12,0,0,12,486.8,303.7)" />
<use xlink:href="#f1_21" transform="matrix(12,0,0,12,493,303.7)" />
<use xlink:href="#f1_1x" transform="matrix(12,0,0,12,501.1,303.7)" />
<use xlink:href="#f1_2f" transform="matrix(12,0,0,12,509.1,303.7)" />
<use xlink:href="#f1_1x" transform="matrix(12,0,0,12,520.1,303.7)" />
<use xlink:href="#f1_20" transform="matrix(12,0,0,12,528.2,303.7)" />
<use xlink:href="#f1_21" transform="matrix(12,0,0,12,537.4,303.7)" />
<use xlink:href="#f1_2a" transform="matrix(12,0,0,12,545.4,303.7)" />
<use xlink:href="#f1_25" transform="matrix(12,0,0,12,554.6,303.7)" />
<use xlink:href="#f1_2a" transform="matrix(12,0,0,12,559.4,303.7)" />
<use xlink:href="#f1_21" transform="matrix(12,0,0,12,568.5,303.7)" />
<use xlink:href="#f1_22" transform="matrix(12,0,0,12,581,303.7)" />
<use xlink:href="#f1_2b" transform="matrix(12,0,0,12,586.5,303.7)" />
<use xlink:href="#f1_2e" transform="matrix(12,0,0,12,596,303.7)" />
<use xlink:href="#f1_29" transform="matrix(12,0,0,12,602.2,303.7)" />
<use xlink:href="#f1_2f" transform="matrix(12,0,0,12,616.1,303.7)" />
<use xlink:href="#f1_2g" transform="matrix(12,0,0,12,627.1,303.7)" />
<use xlink:href="#f1_2j" transform="matrix(12,0,0,12,632.6,303.7)" />
<use xlink:href="#f1_2b" transform="matrix(12,0,0,12,645.5,303.7)" />
<use xlink:href="#f1_24" transform="matrix(12,0,0,12,658.7,303.7)" />
<use xlink:href="#f1_2l" transform="matrix(12,0,0,12,667.8,303.7)" />
<use xlink:href="#f1_20" transform="matrix(12,0,0,12,676.3,303.7)" />
<use xlink:href="#f1_2e" transform="matrix(12,0,0,12,685.4,303.7)" />
<use xlink:href="#f1_2b" transform="matrix(12,0,0,12,691.6,303.7)" />
<use xlink:href="#f1_23" transform="matrix(12,0,0,12,701.2,303.7)" />
<use xlink:href="#f1_21" transform="matrix(12,0,0,12,710.3,303.7)" />
<use xlink:href="#f1_2a" transform="matrix(12,0,0,12,718.4,303.7)" />
<use xlink:href="#f1_1y" transform="matrix(12,0,0,12,731.2,303.7)" />
<use xlink:href="#f1_2b" transform="matrix(12,0,0,12,740,303.7)" />
<use xlink:href="#f1_2a" transform="matrix(12,0,0,12,749.5,303.7)" />
<use xlink:href="#f1_20" transform="matrix(12,0,0,12,758.3,303.7)" />
<use xlink:href="#f1_2f" transform="matrix(12,0,0,12,767.5,303.7)" />
<use xlink:href="#f1_2j" transform="matrix(12,0,0,12,778.5,303.7)" />
<use xlink:href="#f1_25" transform="matrix(12,0,0,12,792.1,303.7)" />
<use xlink:href="#f1_2g" transform="matrix(12,0,0,12,796.5,303.7)" />
<use xlink:href="#f1_24" transform="matrix(12,0,0,12,801.9,303.7)" />
<use xlink:href="#f1_2g" transform="matrix(12,0,0,12,814.8,303.7)" />
<use xlink:href="#f1_24" transform="matrix(12,0,0,12,820.3,303.7)" />
<use xlink:href="#f1_2l" transform="matrix(12,0,0,12,829.4,303.7)" />
<use xlink:href="#f1_29" transform="matrix(12,0,0,12,838.2,303.7)" />
<use xlink:href="#f1_25" transform="matrix(12,0,0,12,852.5,303.7)" />
<use xlink:href="#f1_2a" transform="matrix(12,0,0,12,857.3,303.7)" />
<use xlink:href="#f1_21" transform="matrix(12,0,0,12,866.5,303.7)" />
<use xlink:href="#f1_i" transform="matrix(12,0,0,12,874.5,303.7)" />
<use xlink:href="#f0_1q" transform="matrix(12,0,0,12,55,347.7)" />
<use xlink:href="#f0_14" transform="matrix(12,0,0,12,71.5,347.7)" />
<use xlink:href="#f0_1e" transform="matrix(12,0,0,12,84.8,347.7)" />
<use xlink:href="#f0_11" transform="matrix(12,0,0,12,97.9,347.7)" />
<use xlink:href="#f2_3d" transform="matrix(12,0,0,12,82.5,392.8)" />
<use xlink:href="#f1_1k" transform="matrix(12,0,0,12,110,392.8)" />
<use xlink:href="#f1_24" transform="matrix(12,0,0,12,121.4,392.8)" />
<use xlink:href="#f1_21" transform="matrix(12,0,0,12,130.2,392.8)" />
<use xlink:href="#f1_2l" transform="matrix(12,0,0,12,138.6,392.8)" />
<use xlink:href="#f1_1x" transform="matrix(12,0,0,12,151.8,392.8)" />
<use xlink:href="#f1_2e" transform="matrix(12,0,0,12,159.8,392.8)" />
<use xlink:href="#f1_21" transform="matrix(12,0,0,12,166.1,392.8)" />
<use xlink:href="#f1_2g" transform="matrix(12,0,0,12,178.9,392.8)" />
<use xlink:href="#f1_24" transform="matrix(12,0,0,12,184.4,392.8)" />
<use xlink:href="#f1_25" transform="matrix(12,0,0,12,193.5,392.8)" />
<use xlink:href="#f1_2a" transform="matrix(12,0,0,12,198.3,392.8)" />
<use xlink:href="#f1_2a" transform="matrix(12,0,0,12,207.5,392.8)" />
<use xlink:href="#f1_21" transform="matrix(12,0,0,12,216.6,392.8)" />
<use xlink:href="#f1_2e" transform="matrix(12,0,0,12,224.7,392.8)" />
<use xlink:href="#f1_2g" transform="matrix(12,0,0,12,235.7,392.8)" />
<use xlink:href="#f1_24" transform="matrix(12,0,0,12,241.1,392.8)" />
<use xlink:href="#f1_1x" transform="matrix(12,0,0,12,249.9,392.8)" />
<use xlink:href="#f1_2a" transform="matrix(12,0,0,12,258,392.8)" />
<use xlink:href="#f1_12" transform="matrix(12,0,0,12,271.6,392.8)" />
<use xlink:href="#f1_14" transform="matrix(12,0,0,12,288.4,392.8)" />
<use xlink:href="#f1_1e" transform="matrix(12,0,0,12,301.6,392.8)" />
<use xlink:href="#f1_11" transform="matrix(12,0,0,12,315.1,392.8)" />
<use xlink:href="#f1_i" transform="matrix(12,0,0,12,328,392.8)" />
<use xlink:href="#f2_3d" transform="matrix(12,0,0,12,82.5,425.8)" />
<use xlink:href="#f1_1k" transform="matrix(12,0,0,12,110,425.8)" />
<use xlink:href="#f1_24" transform="matrix(12,0,0,12,121.4,425.8)" />
<use xlink:href="#f1_21" transform="matrix(12,0,0,12,130.2,425.8)" />
<use xlink:href="#f1_2l" transform="matrix(12,0,0,12,138.6,425.8)" />
<use xlink:href="#f1_24" transform="matrix(12,0,0,12,152.1,425.8)" />
<use xlink:href="#f1_1x" transform="matrix(12,0,0,12,160.9,425.8)" />
<use xlink:href="#f1_2i" transform="matrix(12,0,0,12,169.4,425.8)" />
<use xlink:href="#f1_21" transform="matrix(12,0,0,12,178.5,425.8)" />
<use xlink:href="#f1_1x" transform="matrix(12,0,0,12,191.3,425.8)" />
<use xlink:href="#f1_28" transform="matrix(12,0,0,12,199.8,425.8)" />
<use xlink:href="#f1_2g" transform="matrix(12,0,0,12,204.2,425.8)" />
<use xlink:href="#f1_21" transform="matrix(12,0,0,12,209.6,425.8)" />
<use xlink:href="#f1_2e" transform="matrix(12,0,0,12,217.7,425.8)" />
<use xlink:href="#f1_2a" transform="matrix(12,0,0,12,223.9,425.8)" />
<use xlink:href="#f1_1x" transform="matrix(12,0,0,12,232.7,425.8)" />
<use xlink:href="#f1_2g" transform="matrix(12,0,0,12,240.8,425.8)" />
<use xlink:href="#f1_25" transform="matrix(12,0,0,12,246.6,425.8)" />
<use xlink:href="#f1_2a" transform="matrix(12,0,0,12,251.4,425.8)" />
<use xlink:href="#f1_23" transform="matrix(12,0,0,12,260.2,425.8)" />
<use xlink:href="#f1_2c" transform="matrix(12,0,0,12,274.1,425.8)" />
<use xlink:href="#f1_2h" transform="matrix(12,0,0,12,283.3,425.8)" />
<use xlink:href="#f1_2e" transform="matrix(12,0,0,12,292.5,425.8)" />
<use xlink:href="#f1_25" transform="matrix(12,0,0,12,299,425.8)" />
<use xlink:href="#f1_2a" transform="matrix(12,0,0,12,303.8,425.8)" />
<use xlink:href="#f1_21" transform="matrix(12,0,0,12,312.6,425.8)" />
<use xlink:href="#f1_1x" transform="matrix(12,0,0,12,325.4,425.8)" />
<use xlink:href="#f1_2a" transform="matrix(12,0,0,12,333.8,425.8)" />
<use xlink:href="#f1_20" transform="matrix(12,0,0,12,342.6,425.8)" />
<use xlink:href="#f1_2c" transform="matrix(12,0,0,12,356.5,425.8)" />
<use xlink:href="#f1_2l" transform="matrix(12,0,0,12,366.1,425.8)" />
<use xlink:href="#f1_2e" transform="matrix(12,0,0,12,374.5,425.8)" />
<use xlink:href="#f1_25" transform="matrix(12,0,0,12,381.1,425.8)" />
<use xlink:href="#f1_29" transform="matrix(12,0,0,12,386.2,425.8)" />
<use xlink:href="#f1_25" transform="matrix(12,0,0,12,400.5,425.8)" />
<use xlink:href="#f1_20" transform="matrix(12,0,0,12,405.3,425.8)" />
<use xlink:href="#f1_25" transform="matrix(12,0,0,12,414.8,425.8)" />
<use xlink:href="#f1_2a" transform="matrix(12,0,0,12,419.5,425.8)" />
<use xlink:href="#f1_21" transform="matrix(12,0,0,12,428.7,425.8)" />
<use xlink:href="#f1_1y" transform="matrix(12,0,0,12,441.5,425.8)" />
<use xlink:href="#f1_1x" transform="matrix(12,0,0,12,450.3,425.8)" />
<use xlink:href="#f1_2f" transform="matrix(12,0,0,12,458.7,425.8)" />
<use xlink:href="#f1_21" transform="matrix(12,0,0,12,465.7,425.8)" />
<use xlink:href="#f1_2f" transform="matrix(12,0,0,12,473.8,425.8)" />
<use xlink:href="#f1_i" transform="matrix(12,0,0,12,481.1,425.8)" />
<use xlink:href="#f2_3d" transform="matrix(12,0,0,12,82.5,458.9)" />
<use xlink:href="#f1_1k" transform="matrix(12,0,0,12,110,458.9)" />
<use xlink:href="#f1_24" transform="matrix(12,0,0,12,121.4,458.9)" />
<use xlink:href="#f1_21" transform="matrix(12,0,0,12,130.2,458.9)" />
<use xlink:href="#f1_2l" transform="matrix(12,0,0,12,138.6,458.9)" />
<use xlink:href="#f1_1x" transform="matrix(12,0,0,12,151.8,458.9)" />
<use xlink:href="#f1_2e" transform="matrix(12,0,0,12,159.8,458.9)" />
<use xlink:href="#f1_21" transform="matrix(12,0,0,12,166.1,458.9)" />
<use xlink:href="#f1_2f" transform="matrix(12,0,0,12,178.9,458.9)" />
<use xlink:href="#f1_2g" transform="matrix(12,0,0,12,185.8,458.9)" />
<use xlink:href="#f1_1x" transform="matrix(12,0,0,12,191.3,458.9)" />
<use xlink:href="#f1_1y" transform="matrix(12,0,0,12,199.4,458.9)" />
<use xlink:href="#f1_25" transform="matrix(12,0,0,12,208.6,458.9)" />
<use xlink:href="#f1_28" transform="matrix(12,0,0,12,213.7,458.9)" />
<use xlink:href="#f1_25" transform="matrix(12,0,0,12,218.8,458.9)" />
<use xlink:href="#f1_2m" transform="matrix(12,0,0,12,223.6,458.9)" />
<use xlink:href="#f1_21" transform="matrix(12,0,0,12,231.6,458.9)" />
<use xlink:href="#f1_20" transform="matrix(12,0,0,12,239.7,458.9)" />
<use xlink:href="#f1_1y" transform="matrix(12,0,0,12,254,458.9)" />
<use xlink:href="#f1_2l" transform="matrix(12,0,0,12,263.2,458.9)" />
<use xlink:href="#f1_24" transform="matrix(12,0,0,12,276.7,458.9)" />
<use xlink:href="#f1_25" transform="matrix(12,0,0,12,285.9,458.9)" />
<use xlink:href="#f1_23" transform="matrix(12,0,0,12,290.6,458.9)" />
<use xlink:href="#f1_24" transform="matrix(12,0,0,12,300.2,458.9)" />
<use xlink:href="#f1_2f" transform="matrix(12,0,0,12,313.7,458.9)" />
<use xlink:href="#f1_1x" transform="matrix(12,0,0,12,320.7,458.9)" />
<use xlink:href="#f1_28" transform="matrix(12,0,0,12,329.1,458.9)" />
<use xlink:href="#f1_2g" transform="matrix(12,0,0,12,333.5,458.9)" />
<use xlink:href="#f1_1z" transform="matrix(12,0,0,12,344,458.9)" />
<use xlink:href="#f1_2b" transform="matrix(12,0,0,12,352.1,458.9)" />
<use xlink:href="#f1_2a" transform="matrix(12,0,0,12,361.6,458.9)" />
<use xlink:href="#f1_1z" transform="matrix(12,0,0,12,370.4,458.9)" />
<use xlink:href="#f1_21" transform="matrix(12,0,0,12,378.5,458.9)" />
<use xlink:href="#f1_2a" transform="matrix(12,0,0,12,386.9,458.9)" />
<use xlink:href="#f1_2g" transform="matrix(12,0,0,12,395.7,458.9)" />
<use xlink:href="#f1_2e" transform="matrix(12,0,0,12,401.2,458.9)" />
<use xlink:href="#f1_1x" transform="matrix(12,0,0,12,407.4,458.9)" />
<use xlink:href="#f1_2g" transform="matrix(12,0,0,12,415.5,458.9)" />
<use xlink:href="#f1_25" transform="matrix(12,0,0,12,420.9,458.9)" />
<use xlink:href="#f1_2b" transform="matrix(12,0,0,12,425.3,458.9)" />
<use xlink:href="#f1_2a" transform="matrix(12,0,0,12,434.9,458.9)" />
<use xlink:href="#f1_i" transform="matrix(12,0,0,12,443.7,458.9)" />
<use xlink:href="#f0_14" transform="matrix(12,0,0,12,55,546.5)" />
<use xlink:href="#f0_21" transform="matrix(12,0,0,12,68.3,546.5)" />
<use xlink:href="#f0_2a" transform="matrix(12,0,0,12,76.3,546.5)" />
<use xlink:href="#f0_1x" transform="matrix(12,0,0,12,86.6,546.5)" />
<use xlink:href="#f0_2g" transform="matrix(12,0,0,12,95.7,546.5)" />
<use xlink:href="#f0_2h" transform="matrix(12,0,0,12,101.9,546.5)" />
<use xlink:href="#f0_2e" transform="matrix(12,0,0,12,112.2,546.5)" />
<use xlink:href="#f0_1x" transform="matrix(12,0,0,12,119.9,546.5)" />
<use xlink:href="#f0_2g" transform="matrix(12,0,0,12,129,546.5)" />
<use xlink:href="#f0_25" transform="matrix(12,0,0,12,135.3,546.5)" />
<use xlink:href="#f0_2b" transform="matrix(12,0,0,12,140.4,546.5)" />
<use xlink:href="#f0_2a" transform="matrix(12,0,0,12,149.5,546.5)" />
<use xlink:href="#f0_2b" transform="matrix(12,0,0,12,164.6,546.5)" />
<use xlink:href="#f0_22" transform="matrix(12,0,0,12,173.7,546.5)" />
<use xlink:href="#f0_14" transform="matrix(12,0,0,12,184.3,546.5)" />
<use xlink:href="#f0_1e" transform="matrix(12,0,0,12,197.6,546.5)" />
<use xlink:href="#f0_11" transform="matrix(12,0,0,12,210.7,546.5)" />
</g>
</g>
<path fill-rule="evenodd" d="M55,550.2H224.1v-1.9H55v1.9Z" class="g0_161" />
<g clip-path="url(#c0_161)">
<g fill="#000000" >
<use xlink:href="#f1_1n" transform="matrix(12,0,0,12,55,590.5)" />
<use xlink:href="#f1_24" transform="matrix(12,0,0,12,72.3,590.5)" />
<use xlink:href="#f1_21" transform="matrix(12,0,0,12,81.1,590.5)" />
<use xlink:href="#f1_2a" transform="matrix(12,0,0,12,89.5,590.5)" />
<use xlink:href="#f1_14" transform="matrix(12,0,0,12,103.4,590.5)" />
<use xlink:href="#f1_1e" transform="matrix(12,0,0,12,116.6,590.5)" />
<use xlink:href="#f1_11" transform="matrix(12,0,0,12,130.1,590.5)" />
<use xlink:href="#f1_25" transform="matrix(12,0,0,12,148.5,590.5)" />
<use xlink:href="#f1_2f" transform="matrix(12,0,0,12,153.2,590.5)" />
<use xlink:href="#f1_2f" transform="matrix(12,0,0,12,165.3,590.5)" />
<use xlink:href="#f1_2h" transform="matrix(12,0,0,12,172.3,590.5)" />
<use xlink:href="#f1_1y" transform="matrix(12,0,0,12,181.4,590.5)" />
<use xlink:href="#f1_26" transform="matrix(12,0,0,12,190.6,590.5)" />
<use xlink:href="#f1_21" transform="matrix(12,0,0,12,195.4,590.5)" />
<use xlink:href="#f1_1z" transform="matrix(12,0,0,12,203.8,590.5)" />
<use xlink:href="#f1_2g" transform="matrix(12,0,0,12,211.9,590.5)" />
<use xlink:href="#f1_21" transform="matrix(12,0,0,12,217.3,590.5)" />
<use xlink:href="#f1_20" transform="matrix(12,0,0,12,225.4,590.5)" />
<use xlink:href="#f1_2g" transform="matrix(12,0,0,12,239.3,590.5)" />
<use xlink:href="#f1_2b" transform="matrix(12,0,0,12,244.4,590.5)" />
<use xlink:href="#f1_2i" transform="matrix(12,0,0,12,258.7,590.5)" />
<use xlink:href="#f1_1x" transform="matrix(12,0,0,12,267.5,590.5)" />
<use xlink:href="#f1_2e" transform="matrix(12,0,0,12,275.6,590.5)" />
<use xlink:href="#f1_2l" transform="matrix(12,0,0,12,282.2,590.5)" />
<use xlink:href="#f1_25" transform="matrix(12,0,0,12,291,590.5)" />
<use xlink:href="#f1_2a" transform="matrix(12,0,0,12,295.8,590.5)" />
<use xlink:href="#f1_23" transform="matrix(12,0,0,12,304.9,590.5)" />
<use xlink:href="#f1_2c" transform="matrix(12,0,0,12,319.2,590.5)" />
<use xlink:href="#f1_18" transform="matrix(12,0,0,12,328.4,590.5)" />
<use xlink:href="#f1_g" transform="matrix(12,0,0,12,341.6,590.5)" />
<use xlink:href="#f1_2g" transform="matrix(12,0,0,12,351.1,590.5)" />
<use xlink:href="#f1_21" transform="matrix(12,0,0,12,356.5,590.5)" />
<use xlink:href="#f1_29" transform="matrix(12,0,0,12,364.6,590.5)" />
<use xlink:href="#f1_2c" transform="matrix(12,0,0,12,378.2,590.5)" />
<use xlink:href="#f1_21" transform="matrix(12,0,0,12,387.3,590.5)" />
<use xlink:href="#f1_2e" transform="matrix(12,0,0,12,395.4,590.5)" />
<use xlink:href="#f1_1x" transform="matrix(12,0,0,12,401.6,590.5)" />
<use xlink:href="#f1_2g" transform="matrix(12,0,0,12,409.7,590.5)" />
<use xlink:href="#f1_2h" transform="matrix(12,0,0,12,415.2,590.5)" />
<use xlink:href="#f1_2e" transform="matrix(12,0,0,12,424.3,590.5)" />
<use xlink:href="#f1_21" transform="matrix(12,0,0,12,430.6,590.5)" />
<use xlink:href="#f1_21" transform="matrix(12,0,0,12,443.7,590.5)" />
<use xlink:href="#f1_2g" transform="matrix(12,0,0,12,451.4,590.5)" />
<use xlink:href="#f1_1z" transform="matrix(12,0,0,12,456.9,590.5)" />
<use xlink:href="#f1_g" transform="matrix(12,0,0,12,465,590.5)" />
<use xlink:href="#f1_2g" transform="matrix(12,0,0,12,474.1,590.5)" />
<use xlink:href="#f1_2j" transform="matrix(12,0,0,12,479.6,590.5)" />
<use xlink:href="#f1_2b" transform="matrix(12,0,0,12,492.5,590.5)" />
<use xlink:href="#f1_14" transform="matrix(12,0,0,12,506.7,590.5)" />
<use xlink:href="#f1_1e" transform="matrix(12,0,0,12,520,590.5)" />
<use xlink:href="#f1_11" transform="matrix(12,0,0,12,533.1,590.5)" />
<use xlink:href="#f1_2f" transform="matrix(12,0,0,12,551.1,590.5)" />
<use xlink:href="#f1_2g" transform="matrix(12,0,0,12,558,590.5)" />
<use xlink:href="#f1_2e" transform="matrix(12,0,0,12,563.5,590.5)" />
<use xlink:href="#f1_1x" transform="matrix(12,0,0,12,569.7,590.5)" />
<use xlink:href="#f1_2a" transform="matrix(12,0,0,12,577.8,590.5)" />
<use xlink:href="#f1_20" transform="matrix(12,0,0,12,586.6,590.5)" />
<use xlink:href="#f1_2f" transform="matrix(12,0,0,12,595.8,590.5)" />
<use xlink:href="#f1_2f" transform="matrix(12,0,0,12,607.9,590.5)" />
<use xlink:href="#f1_21" transform="matrix(12,0,0,12,614.8,590.5)" />
<use xlink:href="#f1_2c" transform="matrix(12,0,0,12,622.9,590.5)" />
<use xlink:href="#f1_1x" transform="matrix(12,0,0,12,632.1,590.5)" />
<use xlink:href="#f1_2e" transform="matrix(12,0,0,12,640.1,590.5)" />
<use xlink:href="#f1_1x" transform="matrix(12,0,0,12,646.3,590.5)" />
<use xlink:href="#f1_2g" transform="matrix(12,0,0,12,654.4,590.5)" />
<use xlink:href="#f1_21" transform="matrix(12,0,0,12,659.9,590.5)" />
<use xlink:href="#f1_2b" transform="matrix(12,0,0,12,672.7,590.5)" />
<use xlink:href="#f1_2h" transform="matrix(12,0,0,12,682.2,590.5)" />
<use xlink:href="#f1_2g" transform="matrix(12,0,0,12,691,590.5)" />
<use xlink:href="#f1_i" transform="matrix(12,0,0,12,696.1,590.5)" />
<use xlink:href="#f1_1k" transform="matrix(12,0,0,12,706.5,590.5)" />
<use xlink:href="#f1_24" transform="matrix(12,0,0,12,717.8,590.5)" />
<use xlink:href="#f1_1x" transform="matrix(12,0,0,12,726.6,590.5)" />
<use xlink:href="#f1_2g" transform="matrix(12,0,0,12,734.7,590.5)" />
<use xlink:href="#f1_25" transform="matrix(12,0,0,12,744.9,590.5)" />
<use xlink:href="#f1_2f" transform="matrix(12,0,0,12,749.7,590.5)" />
<use xlink:href="#f1_2g" transform="matrix(12,0,0,12,761.8,590.5)" />
<use xlink:href="#f1_24" transform="matrix(12,0,0,12,767.3,590.5)" />
<use xlink:href="#f1_21" transform="matrix(12,0,0,12,776.1,590.5)" />
<use xlink:href="#f1_14" transform="matrix(12,0,0,12,788.9,590.5)" />
<use xlink:href="#f1_1e" transform="matrix(12,0,0,12,802.1,590.5)" />
<use xlink:href="#f1_11" transform="matrix(12,0,0,12,815.3,590.5)" />
<use xlink:href="#f1_25" transform="matrix(12,0,0,12,833.6,590.5)" />
<use xlink:href="#f1_2f" transform="matrix(12,0,0,12,838.3,590.5)" />
<use xlink:href="#f1_2f" transform="matrix(12,0,0,12,850.4,590.5)" />
<use xlink:href="#f1_1x" transform="matrix(12,0,0,12,857.4,590.5)" />
<use xlink:href="#f1_25" transform="matrix(12,0,0,12,865.8,590.5)" />
<use xlink:href="#f1_20" transform="matrix(12,0,0,12,870.6,590.5)" />
<use xlink:href="#f1_2g" transform="matrix(12,0,0,12,55,622.1)" />
<use xlink:href="#f1_2b" transform="matrix(12,0,0,12,60.1,622.1)" />
<use xlink:href="#f1_1y" transform="matrix(12,0,0,12,75.9,622.1)" />
<use xlink:href="#f1_21" transform="matrix(12,0,0,12,84.7,622.1)" />
<use xlink:href="#f1_20" transform="matrix(12,0,0,12,99,622.1)" />
<use xlink:href="#f1_21" transform="matrix(12,0,0,12,108.1,622.1)" />
<use xlink:href="#f1_2a" transform="matrix(12,0,0,12,116.2,622.1)" />
<use xlink:href="#f1_1x" transform="matrix(12,0,0,12,125,622.1)" />
<use xlink:href="#f1_2g" transform="matrix(12,0,0,12,133.1,622.1)" />
<use xlink:href="#f1_2h" transform="matrix(12,0,0,12,138.6,622.1)" />
<use xlink:href="#f1_2e" transform="matrix(12,0,0,12,147.7,622.1)" />
<use xlink:href="#f1_21" transform="matrix(12,0,0,12,153.9,622.1)" />
<use xlink:href="#f1_20" transform="matrix(12,0,0,12,162,622.1)" />
<use xlink:href="#f1_i" transform="matrix(12,0,0,12,171.2,622.1)" />
<use xlink:href="#f1_19" transform="matrix(12,0,0,12,182.3,622.1)" />
<use xlink:href="#f1_22" transform="matrix(12,0,0,12,188.5,622.1)" />
<use xlink:href="#f1_2g" transform="matrix(12,0,0,12,200.2,622.1)" />
<use xlink:href="#f1_24" transform="matrix(12,0,0,12,205.7,622.1)" />
<use xlink:href="#f1_21" transform="matrix(12,0,0,12,214.5,622.1)" />
<use xlink:href="#f1_20" transform="matrix(12,0,0,12,228.8,622.1)" />
<use xlink:href="#f1_21" transform="matrix(12,0,0,12,238,622.1)" />
<use xlink:href="#f1_2a" transform="matrix(12,0,0,12,246.1,622.1)" />
<use xlink:href="#f1_1x" transform="matrix(12,0,0,12,254.9,622.1)" />
<use xlink:href="#f1_2g" transform="matrix(12,0,0,12,263,622.1)" />
<use xlink:href="#f1_2h" transform="matrix(12,0,0,12,268.5,622.1)" />
<use xlink:href="#f1_2e" transform="matrix(12,0,0,12,277.6,622.1)" />
<use xlink:href="#f1_1x" transform="matrix(12,0,0,12,283.8,622.1)" />
<use xlink:href="#f1_2a" transform="matrix(12,0,0,12,291.9,622.1)" />
<use xlink:href="#f1_2g" transform="matrix(12,0,0,12,300.7,622.1)" />
<use xlink:href="#f1_2f" transform="matrix(12,0,0,12,312.4,622.1)" />
<use xlink:href="#f1_2h" transform="matrix(12,0,0,12,319.4,622.1)" />
<use xlink:href="#f1_1z" transform="matrix(12,0,0,12,328.5,622.1)" />
<use xlink:href="#f1_24" transform="matrix(12,0,0,12,336.6,622.1)" />
<use xlink:href="#f1_1x" transform="matrix(12,0,0,12,351.6,622.1)" />
<use xlink:href="#f1_2f" transform="matrix(12,0,0,12,360,622.1)" />
<use xlink:href="#f1_2g" transform="matrix(12,0,0,12,373.2,622.1)" />
<use xlink:href="#f1_21" transform="matrix(12,0,0,12,378.7,622.1)" />
<use xlink:href="#f1_29" transform="matrix(12,0,0,12,386.8,622.1)" />
<use xlink:href="#f1_2c" transform="matrix(12,0,0,12,400.3,622.1)" />
<use xlink:href="#f1_21" transform="matrix(12,0,0,12,409.8,622.1)" />
<use xlink:href="#f1_2e" transform="matrix(12,0,0,12,417.9,622.1)" />
<use xlink:href="#f1_1x" transform="matrix(12,0,0,12,424.1,622.1)" />
<use xlink:href="#f1_2g" transform="matrix(12,0,0,12,432.2,622.1)" />
<use xlink:href="#f1_2h" transform="matrix(12,0,0,12,437.7,622.1)" />
<use xlink:href="#f1_2e" transform="matrix(12,0,0,12,446.8,622.1)" />
<use xlink:href="#f1_21" transform="matrix(12,0,0,12,453.1,622.1)" />
<use xlink:href="#f1_g" transform="matrix(12,0,0,12,460.8,622.1)" />
<use xlink:href="#f1_2c" transform="matrix(12,0,0,12,471.7,622.1)" />
<use xlink:href="#f1_18" transform="matrix(12,0,0,12,480.9,622.1)" />
<use xlink:href="#f1_25" transform="matrix(12,0,0,12,500.7,622.1)" />
<use xlink:href="#f1_2f" transform="matrix(12,0,0,12,505.1,622.1)" />
<use xlink:href="#f1_2e" transform="matrix(12,0,0,12,518.3,622.1)" />
<use xlink:href="#f1_21" transform="matrix(12,0,0,12,524.5,622.1)" />
<use xlink:href="#f1_29" transform="matrix(12,0,0,12,532.9,622.1)" />
<use xlink:href="#f1_2b" transform="matrix(12,0,0,12,546.5,622.1)" />
<use xlink:href="#f1_2i" transform="matrix(12,0,0,12,556.3,622.1)" />
<use xlink:href="#f1_21" transform="matrix(12,0,0,12,565.1,622.1)" />
<use xlink:href="#f1_20" transform="matrix(12,0,0,12,573.2,622.1)" />
<use xlink:href="#f1_g" transform="matrix(12,0,0,12,582.4,622.1)" />
<use xlink:href="#f1_2g" transform="matrix(12,0,0,12,593.3,622.1)" />
<use xlink:href="#f1_24" transform="matrix(12,0,0,12,598.8,622.1)" />
<use xlink:href="#f1_21" transform="matrix(12,0,0,12,607.6,622.1)" />
<use xlink:href="#f1_14" transform="matrix(12,0,0,12,621.9,622.1)" />
<use xlink:href="#f1_1e" transform="matrix(12,0,0,12,635.1,622.1)" />
<use xlink:href="#f1_11" transform="matrix(12,0,0,12,648.7,622.1)" />
<use xlink:href="#f1_2e" transform="matrix(12,0,0,12,667.7,622.1)" />
<use xlink:href="#f1_21" transform="matrix(12,0,0,12,673.9,622.1)" />
<use xlink:href="#f1_23" transform="matrix(12,0,0,12,682,622.1)" />
<use xlink:href="#f1_1x" transform="matrix(12,0,0,12,691.1,622.1)" />
<use xlink:href="#f1_25" transform="matrix(12,0,0,12,699.6,622.1)" />
<use xlink:href="#f1_2a" transform="matrix(12,0,0,12,704.3,622.1)" />
<use xlink:href="#f1_2f" transform="matrix(12,0,0,12,713.5,622.1)" />
<use xlink:href="#f1_25" transform="matrix(12,0,0,12,727,622.1)" />
<use xlink:href="#f1_2g" transform="matrix(12,0,0,12,731.4,622.1)" />
<use xlink:href="#f1_2f" transform="matrix(12,0,0,12,736.9,622.1)" />
<use xlink:href="#f1_2b" transform="matrix(12,0,0,12,750.1,622.1)" />
<use xlink:href="#f1_2e" transform="matrix(12,0,0,12,759.6,622.1)" />
<use xlink:href="#f1_25" transform="matrix(12,0,0,12,765.8,622.1)" />
<use xlink:href="#f1_23" transform="matrix(12,0,0,12,770.2,622.1)" />
<use xlink:href="#f1_25" transform="matrix(12,0,0,12,779.8,622.1)" />
<use xlink:href="#f1_2a" transform="matrix(12,0,0,12,784.5,622.1)" />
<use xlink:href="#f1_1x" transform="matrix(12,0,0,12,794,622.1)" />
<use xlink:href="#f1_28" transform="matrix(12,0,0,12,802.5,622.1)" />
<use xlink:href="#f1_2b" transform="matrix(12,0,0,12,813.1,622.1)" />
<use xlink:href="#f1_2e" transform="matrix(12,0,0,12,822.6,622.1)" />
<use xlink:href="#f1_2a" transform="matrix(12,0,0,12,835,622.1)" />
<use xlink:href="#f1_1x" transform="matrix(12,0,0,12,843.8,622.1)" />
<use xlink:href="#f1_2g" transform="matrix(12,0,0,12,851.9,622.1)" />
<use xlink:href="#f1_25" transform="matrix(12,0,0,12,857.4,622.1)" />
<use xlink:href="#f1_2i" transform="matrix(12,0,0,12,862.1,622.1)" />
<use xlink:href="#f1_21" transform="matrix(12,0,0,12,871.3,622.1)" />
<use xlink:href="#f1_2f" transform="matrix(12,0,0,12,55,653.6)" />
<use xlink:href="#f1_2g" transform="matrix(12,0,0,12,62,653.6)" />
<use xlink:href="#f1_2e" transform="matrix(12,0,0,12,67.5,653.6)" />
<use xlink:href="#f1_2h" transform="matrix(12,0,0,12,73.7,653.6)" />
<use xlink:href="#f1_1z" transform="matrix(12,0,0,12,82.9,653.6)" />
<use xlink:href="#f1_2g" transform="matrix(12,0,0,12,90.6,653.6)" />
<use xlink:href="#f1_2h" transform="matrix(12,0,0,12,96.1,653.6)" />
<use xlink:href="#f1_2e" transform="matrix(12,0,0,12,105.2,653.6)" />
<use xlink:href="#f1_21" transform="matrix(12,0,0,12,111.4,653.6)" />
<use xlink:href="#f1_i" transform="matrix(12,0,0,12,119.1,653.6)" />
<use xlink:href="#f1_1k" transform="matrix(12,0,0,12,128.3,653.6)" />
<use xlink:href="#f1_24" transform="matrix(12,0,0,12,139.6,653.6)" />
<use xlink:href="#f1_25" transform="matrix(12,0,0,12,148.8,653.6)" />
<use xlink:href="#f1_2f" transform="matrix(12,0,0,12,153.6,653.6)" />
<use xlink:href="#f1_25" transform="matrix(12,0,0,12,165.7,653.6)" />
<use xlink:href="#f1_2f" transform="matrix(12,0,0,12,170.4,653.6)" />
<use xlink:href="#f1_27" transform="matrix(12,0,0,12,182.1,653.6)" />
<use xlink:href="#f1_2a" transform="matrix(12,0,0,12,191.3,653.6)" />
<use xlink:href="#f1_2b" transform="matrix(12,0,0,12,200.1,653.6)" />
<use xlink:href="#f1_2j" transform="matrix(12,0,0,12,209.6,653.6)" />
<use xlink:href="#f1_2a" transform="matrix(12,0,0,12,222.9,653.6)" />
<use xlink:href="#f1_1x" transform="matrix(12,0,0,12,236.4,653.6)" />
<use xlink:href="#f1_2f" transform="matrix(12,0,0,12,244.4,653.6)" />
<use xlink:href="#f1_2e" transform="matrix(12,0,0,12,256.2,653.6)" />
<use xlink:href="#f1_21" transform="matrix(12,0,0,12,262.4,653.6)" />
<use xlink:href="#f1_2a" transform="matrix(12,0,0,12,270.8,653.6)" />
<use xlink:href="#f1_1x" transform="matrix(12,0,0,12,279.6,653.6)" />
<use xlink:href="#f1_2g" transform="matrix(12,0,0,12,287.6,653.6)" />
<use xlink:href="#f1_2h" transform="matrix(12,0,0,12,293.1,653.6)" />
<use xlink:href="#f1_2e" transform="matrix(12,0,0,12,302.3,653.6)" />
<use xlink:href="#f1_1x" transform="matrix(12,0,0,12,308.5,653.6)" />
<use xlink:href="#f1_2g" transform="matrix(12,0,0,12,316.2,653.6)" />
<use xlink:href="#f1_25" transform="matrix(12,0,0,12,321.7,653.6)" />
<use xlink:href="#f1_2b" transform="matrix(12,0,0,12,326.1,653.6)" />
<use xlink:href="#f1_2a" transform="matrix(12,0,0,12,335.6,653.6)" />
<use xlink:href="#f1_2b" transform="matrix(12,0,0,12,349.6,653.6)" />
<use xlink:href="#f1_2e" transform="matrix(12,0,0,12,359.1,653.6)" />
<use xlink:href="#f1_1x" transform="matrix(12,0,0,12,370.1,653.6)" />
<use xlink:href="#f1_2a" transform="matrix(12,0,0,12,378.1,653.6)" />
<use xlink:href="#f1_2a" transform="matrix(12,0,0,12,386.9,653.6)" />
<use xlink:href="#f1_21" transform="matrix(12,0,0,12,395.7,653.6)" />
<use xlink:href="#f1_1x" transform="matrix(12,0,0,12,404.1,653.6)" />
<use xlink:href="#f1_28" transform="matrix(12,0,0,12,412.6,653.6)" />
<use xlink:href="#f1_25" transform="matrix(12,0,0,12,417.3,653.6)" />
<use xlink:href="#f1_2a" transform="matrix(12,0,0,12,422.4,653.6)" />
<use xlink:href="#f1_23" transform="matrix(12,0,0,12,431.3,653.6)" />
<use xlink:href="#f1_i" transform="matrix(12,0,0,12,440.5,653.6)" />
<use xlink:href="#f0_16" transform="matrix(12,0,0,12,348.5,989.6)" />
<use xlink:href="#f0_25" transform="matrix(12,0,0,12,359.5,989.6)" />
<use xlink:href="#f0_23" transform="matrix(12,0,0,12,364.6,989.6)" />
<use xlink:href="#f0_i" transform="matrix(12,0,0,12,373.7,989.6)" />
<use xlink:href="#f0_r" transform="matrix(12,0,0,12,383.3,989.6)" />
<use xlink:href="#f0_i" transform="matrix(12,0,0,12,392.4,989.6)" />
<use xlink:href="#f0_1g" transform="matrix(12,0,0,12,401.6,989.6)" />
<use xlink:href="#f0_2e" transform="matrix(12,0,0,12,412.6,989.6)" />
<use xlink:href="#f0_2b" transform="matrix(12,0,0,12,420.3,989.6)" />
<use xlink:href="#f0_1z" transform="matrix(12,0,0,12,429.5,989.6)" />
<use xlink:href="#f0_21" transform="matrix(12,0,0,12,437.9,989.6)" />
<use xlink:href="#f0_2f" transform="matrix(12,0,0,12,445.9,989.6)" />
<use xlink:href="#f0_2f" transform="matrix(12,0,0,12,452.9,989.6)" />
<use xlink:href="#f0_2b" transform="matrix(12,0,0,12,464.6,989.6)" />
<use xlink:href="#f0_22" transform="matrix(12,0,0,12,474.1,989.6)" />
<use xlink:href="#f0_20" transform="matrix(12,0,0,12,484.8,989.6)" />
<use xlink:href="#f0_21" transform="matrix(12,0,0,12,495,989.6)" />
<use xlink:href="#f0_2a" transform="matrix(12,0,0,12,503.1,989.6)" />
<use xlink:href="#f0_1x" transform="matrix(12,0,0,12,513.3,989.6)" />
<use xlink:href="#f0_2g" transform="matrix(12,0,0,12,522.5,989.6)" />
<use xlink:href="#f0_2h" transform="matrix(12,0,0,12,528.7,989.6)" />
<use xlink:href="#f0_2e" transform="matrix(12,0,0,12,539,989.6)" />
<use xlink:href="#f0_1x" transform="matrix(12,0,0,12,546.7,989.6)" />
<use xlink:href="#f0_2g" transform="matrix(12,0,0,12,555.8,989.6)" />
<use xlink:href="#f0_25" transform="matrix(12,0,0,12,562,989.6)" />
<use xlink:href="#f0_2b" transform="matrix(12,0,0,12,567.1,989.6)" />
<use xlink:href="#f0_2a" transform="matrix(12,0,0,12,576.3,989.6)" />
<use xlink:href="#f0_1i" transform="matrix(12,0,0,12,55,1033.6)" />
<use xlink:href="#f0_1e" transform="matrix(12,0,0,12,68.2,1033.6)" />
<use xlink:href="#f0_11" transform="matrix(12,0,0,12,81.4,1033.6)" />
</g>
</g>
<path fill-rule="evenodd" d="M55,1037.2H94.6v-1.8H55v1.8Z" class="g0_161" />
<g clip-path="url(#c0_161)">
<g fill="#000000" >
<use xlink:href="#f1_1i" transform="matrix(12,0,0,12,55,1077.2)" />
<use xlink:href="#f1_1e" transform="matrix(12,0,0,12,67.1,1077.2)" />
<use xlink:href="#f1_11" transform="matrix(12,0,0,12,80.7,1077.2)" />
<use xlink:href="#f1_27" transform="matrix(12,0,0,12,98.3,1077.2)" />
<use xlink:href="#f1_2a" transform="matrix(12,0,0,12,107.4,1077.2)" />
<use xlink:href="#f1_2b" transform="matrix(12,0,0,12,116.2,1077.2)" />
<use xlink:href="#f1_2j" transform="matrix(12,0,0,12,125.7,1077.2)" />
<use xlink:href="#f1_2a" transform="matrix(12,0,0,12,139,1077.2)" />
<use xlink:href="#f1_1x" transform="matrix(12,0,0,12,152.5,1077.2)" />
<use xlink:href="#f1_2f" transform="matrix(12,0,0,12,160.6,1077.2)" />
<use xlink:href="#f1_2e" transform="matrix(12,0,0,12,172.3,1077.2)" />
<use xlink:href="#f1_25" transform="matrix(12,0,0,12,178.9,1077.2)" />
<use xlink:href="#f1_1y" transform="matrix(12,0,0,12,183.6,1077.2)" />
<use xlink:href="#f1_2b" transform="matrix(12,0,0,12,192.4,1077.2)" />
<use xlink:href="#f1_2a" transform="matrix(12,0,0,12,201.9,1077.2)" />
<use xlink:href="#f1_2h" transform="matrix(12,0,0,12,210.7,1077.2)" />
<use xlink:href="#f1_1z" transform="matrix(12,0,0,12,219.9,1077.2)" />
<use xlink:href="#f1_28" transform="matrix(12,0,0,12,228.3,1077.2)" />
<use xlink:href="#f1_21" transform="matrix(12,0,0,12,233.1,1077.2)" />
<use xlink:href="#f1_25" transform="matrix(12,0,0,12,241.5,1077.2)" />
<use xlink:href="#f1_1z" transform="matrix(12,0,0,12,246.3,1077.2)" />
<use xlink:href="#f1_1x" transform="matrix(12,0,0,12,259.1,1077.2)" />
<use xlink:href="#f1_1z" transform="matrix(12,0,0,12,267.5,1077.2)" />
<use xlink:href="#f1_25" transform="matrix(12,0,0,12,275.9,1077.2)" />
<use xlink:href="#f1_20" transform="matrix(12,0,0,12,280.3,1077.2)" />
<use xlink:href="#f1_i" transform="matrix(12,0,0,12,289.5,1077.2)" />
<use xlink:href="#f1_19" transform="matrix(12,0,0,12,299.3,1077.2)" />
<use xlink:href="#f1_2g" transform="matrix(12,0,0,12,305.5,1077.2)" />
<use xlink:href="#f1_2h" transform="matrix(12,0,0,12,315.4,1077.2)" />
<use xlink:href="#f1_2f" transform="matrix(12,0,0,12,324.6,1077.2)" />
<use xlink:href="#f1_2h" transform="matrix(12,0,0,12,331.5,1077.2)" />
<use xlink:href="#f1_1x" transform="matrix(12,0,0,12,340.7,1077.2)" />
<use xlink:href="#f1_28" transform="matrix(12,0,0,12,349.1,1077.2)" />
<use xlink:href="#f1_28" transform="matrix(12,0,0,12,353.9,1077.2)" />
<use xlink:href="#f1_2l" transform="matrix(12,0,0,12,359,1077.2)" />
<use xlink:href="#f1_21" transform="matrix(12,0,0,12,372.6,1077.2)" />
<use xlink:href="#f1_2k" transform="matrix(12,0,0,12,381,1077.2)" />
<use xlink:href="#f1_25" transform="matrix(12,0,0,12,390.1,1077.2)" />
<use xlink:href="#f1_2f" transform="matrix(12,0,0,12,394.9,1077.2)" />
<use xlink:href="#f1_2g" transform="matrix(12,0,0,12,401.9,1077.2)" />
<use xlink:href="#f1_2f" transform="matrix(12,0,0,12,407.4,1077.2)" />
<use xlink:href="#f1_1x" transform="matrix(12,0,0,12,419.1,1077.2)" />
<use xlink:href="#f1_2f" transform="matrix(12,0,0,12,427.1,1077.2)" />
<use xlink:href="#f1_2f" transform="matrix(12,0,0,12,438.9,1077.2)" />
<use xlink:href="#f1_25" transform="matrix(12,0,0,12,446.2,1077.2)" />
<use xlink:href="#f1_2a" transform="matrix(12,0,0,12,450.9,1077.2)" />
<use xlink:href="#f1_23" transform="matrix(12,0,0,12,459.7,1077.2)" />
<use xlink:href="#f1_28" transform="matrix(12,0,0,12,469.3,1077.2)" />
<use xlink:href="#f1_21" transform="matrix(12,0,0,12,474,1077.2)" />
<use xlink:href="#f1_2f" transform="matrix(12,0,0,12,486.8,1077.2)" />
<use xlink:href="#f1_2g" transform="matrix(12,0,0,12,493.8,1077.2)" />
<use xlink:href="#f1_2e" transform="matrix(12,0,0,12,499.3,1077.2)" />
<use xlink:href="#f1_1x" transform="matrix(12,0,0,12,505.5,1077.2)" />
<use xlink:href="#f1_2a" transform="matrix(12,0,0,12,513.6,1077.2)" />
<use xlink:href="#f1_20" transform="matrix(12,0,0,12,522.4,1077.2)" />
<use xlink:href="#f1_i" transform="matrix(12,0,0,12,531.5,1077.2)" />
<use xlink:href="#f1_1i" transform="matrix(12,0,0,12,541,1077.2)" />
<use xlink:href="#f1_1e" transform="matrix(12,0,0,12,553.1,1077.2)" />
<use xlink:href="#f1_11" transform="matrix(12,0,0,12,566.7,1077.2)" />
<use xlink:href="#f1_21" transform="matrix(12,0,0,12,584.3,1077.2)" />
<use xlink:href="#f1_2k" transform="matrix(12,0,0,12,592.3,1077.2)" />
<use xlink:href="#f1_25" transform="matrix(12,0,0,12,601.5,1077.2)" />
<use xlink:href="#f1_2f" transform="matrix(12,0,0,12,606.3,1077.2)" />
<use xlink:href="#f1_2g" transform="matrix(12,0,0,12,613.2,1077.2)" />
<use xlink:href="#f1_2f" transform="matrix(12,0,0,12,618.7,1077.2)" />
<use xlink:href="#f1_25" transform="matrix(12,0,0,12,630.8,1077.2)" />
<use xlink:href="#f1_2a" transform="matrix(12,0,0,12,635.6,1077.2)" />
<use xlink:href="#f1_1z" transform="matrix(12,0,0,12,649.1,1077.2)" />
<use xlink:href="#f1_21" transform="matrix(12,0,0,12,657.2,1077.2)" />
<use xlink:href="#f1_28" transform="matrix(12,0,0,12,665.6,1077.2)" />
<use xlink:href="#f1_28" transform="matrix(12,0,0,12,670.7,1077.2)" />
<use xlink:href="#f1_2f" transform="matrix(12,0,0,12,675.5,1077.2)" />
<use xlink:href="#f1_25" transform="matrix(12,0,0,12,687.6,1077.2)" />
<use xlink:href="#f1_2a" transform="matrix(12,0,0,12,692.3,1077.2)" />
<use xlink:href="#f1_2i" transform="matrix(12,0,0,12,706.3,1077.2)" />
<use xlink:href="#f1_1x" transform="matrix(12,0,0,12,715.4,1077.2)" />
<use xlink:href="#f1_2e" transform="matrix(12,0,0,12,723.5,1077.2)" />
<use xlink:href="#f1_25" transform="matrix(12,0,0,12,730.1,1077.2)" />
<use xlink:href="#f1_2b" transform="matrix(12,0,0,12,734.5,1077.2)" />
<use xlink:href="#f1_2h" transform="matrix(12,0,0,12,744,1077.2)" />
<use xlink:href="#f1_2f" transform="matrix(12,0,0,12,753.1,1077.2)" />
<use xlink:href="#f1_22" transform="matrix(12,0,0,12,765.2,1077.2)" />
<use xlink:href="#f1_2b" transform="matrix(12,0,0,12,770.7,1077.2)" />
<use xlink:href="#f1_2e" transform="matrix(12,0,0,12,780.2,1077.2)" />
<use xlink:href="#f1_29" transform="matrix(12,0,0,12,786.5,1077.2)" />
<use xlink:href="#f1_2f" transform="matrix(12,0,0,12,800.4,1077.2)" />
<use xlink:href="#f1_1x" transform="matrix(12,0,0,12,812.1,1077.2)" />
<use xlink:href="#f1_2f" transform="matrix(12,0,0,12,820.2,1077.2)" />
<use xlink:href="#f1_21" transform="matrix(12,0,0,12,55,1108.8)" />
<use xlink:href="#f1_2k" transform="matrix(12,0,0,12,63.1,1108.8)" />
<use xlink:href="#f1_2c" transform="matrix(12,0,0,12,71.9,1108.8)" />
<use xlink:href="#f1_28" transform="matrix(12,0,0,12,81.4,1108.8)" />
<use xlink:href="#f1_1x" transform="matrix(12,0,0,12,86.2,1108.8)" />
<use xlink:href="#f1_25" transform="matrix(12,0,0,12,94.6,1108.8)" />
<use xlink:href="#f1_2a" transform="matrix(12,0,0,12,99.4,1108.8)" />
<use xlink:href="#f1_21" transform="matrix(12,0,0,12,108.5,1108.8)" />
<use xlink:href="#f1_20" transform="matrix(12,0,0,12,116.6,1108.8)" />
<use xlink:href="#f1_1y" transform="matrix(12,0,0,12,130.9,1108.8)" />
<use xlink:href="#f1_21" transform="matrix(12,0,0,12,139.7,1108.8)" />
<use xlink:href="#f1_28" transform="matrix(12,0,0,12,148.1,1108.8)" />
<use xlink:href="#f1_2b" transform="matrix(12,0,0,12,152.5,1108.8)" />
<use xlink:href="#f1_2j" transform="matrix(12,0,0,12,162,1108.8)" />
<use xlink:href="#f1_h" transform="matrix(12,0,0,12,175.3,1108.8)" />
</g>
</g>
<image preserveAspectRatio="none" x="55" y="680" width="825" height="269" xlink:href="img/1.png" />
<g fill="#000000" >
<use xlink:href="#f3_p" transform="matrix(8,0,0,8,818.2,1187.9)" />
</g>
<defs>
<path d="M410,-14c0,0,-86,0,-175,14C235,0,145,14,81,38V307h66L181,146c0,0,31,-37,94,-62c0,0,64,-24,132,-24c0,0,214,0,214,177c0,0,0,55,-41,93c0,0,-41,38,-128,68c0,0,-128,42,-185,68c0,0,-56,27,-95,63c0,0,-38,36,-62,87c0,0,-23,51,-23,125c0,0,0,132,90,201c0,0,90,69,263,69c0,0,125,0,278,-32V741H651L618,878c0,0,-76,56,-178,56c0,0,-92,0,-141,-34c0,0,-49,-34,-49,-104c0,0,0,-50,41,-86c0,0,41,-35,128,-63c0,0,171,-56,235,-97c0,0,64,-41,97,-103c0,0,34,-61,34,-143c0,0,0,-318,-375,-318Z" 
id="f0_1j"
transform="scale(0.001,-0.001)" />

<path d="M327,-14c0,0,-101,0,-156,45c0,0,-55,45,-55,131V624H25v48l108,29l87,159H332V701H480V624H332V176c0,0,0,-49,20,-73c0,0,20,-25,53,-25c0,0,40,0,97,12V26c0,0,-22,-15,-76,-27c0,0,-55,-13,-99,-13Z" 
id="f0_2g"
transform="scale(0.001,-0.001)" />

<path d="M41,0V49l91,18V634L41,652v49H336l8,-145c0,0,80,89,144,128c0,0,64,40,117,40h40V468H604l-45,94c0,0,-47,0,-106,-21c0,0,-60,-20,-105,-48V67L460,49V0Z" 
id="f0_2e"
transform="scale(0.001,-0.001)" />

<path d="M287,-18c0,0,-194,0,-194,206V634L23,652v49H309V217c0,0,0,-63,26,-98c0,0,27,-35,76,-35c0,0,57,0,113,25V634l-64,18v49H740V67L809,49V0H536L526,61L475,35c0,0,-104,-53,-188,-53Z" 
id="f0_2h"
transform="scale(0.001,-0.001)" />

<path d="M425,-14c0,0,-187,0,-280,90c0,0,-93,90,-93,276c0,0,0,115,42,198c0,0,43,82,121,126c0,0,78,44,182,44c0,0,104,0,227,-26V486H571L539,609c0,0,-25,19,-50,26c0,0,-24,7,-65,7c0,0,-44,0,-79,-35c0,0,-36,-35,-56,-98c0,0,-20,-64,-20,-153c0,0,0,-150,47,-214c0,0,47,-64,148,-64c0,0,103,0,176,21V42C640,42,606,15,547,0c0,0,-59,-14,-122,-14Z" 
id="f0_1z"
transform="scale(0.001,-0.001)" />

<path d="M434,423c0,0,0,101,-7,142c0,0,-6,40,-22,60c0,0,-16,19,-45,19c0,0,-44,0,-66,-48c0,0,-22,-49,-22,-173ZM389,-14c0,0,-172,0,-254,89c0,0,-83,90,-83,279c0,0,0,184,79,274c0,0,79,91,238,91c0,0,142,0,206,-76c0,0,64,-76,64,-237V345H271V333c0,0,0,-111,18,-158c0,0,18,-47,58,-72c0,0,40,-25,110,-25c0,0,66,0,166,22V42C623,42,582,18,517,1c0,0,-66,-15,-128,-15Z" 
id="f0_21"
transform="scale(0.001,-0.001)" />

<path d="M379,60c0,0,59,0,84,64c0,0,24,65,24,231c0,0,0,164,-24,227c0,0,-24,63,-84,63c0,0,-57,0,-80,-60c0,0,-22,-61,-22,-230c0,0,0,-173,23,-234c0,0,22,-61,79,-61Zm-2,-74c0,0,-161,0,-240,91c0,0,-79,91,-79,277c0,0,0,186,80,276c0,0,81,90,245,90c0,0,167,0,245,-93c0,0,78,-93,78,-273c0,0,0,-188,-81,-278c0,0,-81,-90,-248,-90Z" 
id="f0_2b"
transform="scale(0.001,-0.001)" />

<path d="M41,0V49l76,18V624H11v51l106,29v75c0,0,0,144,73,220c0,0,73,77,210,77c0,0,74,0,124,-15V894H476l-22,81c0,0,-18,17,-47,17c0,0,-74,0,-74,-189V701H475V624H333V67L447,49V0Z" 
id="f0_22"
transform="scale(0.001,-0.001)" />

<path d="M416,68c0,0,60,0,124,32V628c0,0,-58,15,-118,15c0,0,-67,0,-104,-73c0,0,-38,-73,-38,-216c0,0,0,-139,36,-212c0,0,35,-74,100,-74ZM369,-14c0,0,-155,0,-231,88c0,0,-76,90,-76,274c0,0,0,182,82,277c0,0,81,95,236,95c0,0,82,0,165,-20c0,0,-5,24,-5,115V992l-72,18v50H756V67L833,49V0H562L547,40C547,40,505,13,483,4c0,0,-23,-7,-51,-12c0,0,-28,-6,-63,-6Z" 
id="f0_20"
transform="scale(0.001,-0.001)" />

<path d="M424,64c0,0,74,0,109,71c0,0,36,72,36,236c0,0,0,137,-34,201c0,0,-34,65,-111,65c0,0,-29,0,-62,-7c0,0,-34,-6,-55,-19V76c0,0,47,-12,117,-12Zm21,-78c0,0,-121,0,-354,50V994l-72,18v48H307V802c0,0,0,-69,-8,-141c0,0,30,25,86,42c0,0,57,17,110,17c0,0,153,0,223,-84c0,0,70,-83,70,-266c0,0,0,-180,-90,-283C698,87,608,-14,445,-14Z" 
id="f0_1y"
transform="scale(0.001,-0.001)" />

<path d="M30,0V49l76,18V992l-72,18v50H322V67L398,49V0Z" 
id="f0_28"
transform="scale(0.001,-0.001)" />

<path d="M276,-14c0,0,-57,0,-125,13C151,-1,83,10,48,23V214H97l28,-98c0,0,26,-26,69,-44c0,0,42,-17,86,-17c0,0,65,0,97,28c0,0,32,28,32,71c0,0,0,41,-31,65c0,0,-30,25,-133,57c0,0,-108,34,-154,92c0,0,-45,58,-45,143c0,0,0,95,71,152c0,0,71,57,183,57c0,0,77,0,207,-22V518H457l-24,82c0,0,-21,22,-60,35c0,0,-40,14,-75,14c0,0,-53,0,-79,-22c0,0,-26,-22,-26,-59c0,0,0,-40,32,-65c0,0,32,-26,132,-55c0,0,109,-34,155,-89c0,0,45,-55,45,-137c0,0,0,-117,-72,-177c0,0,-72,-59,-209,-59Z" 
id="f0_2f"
transform="scale(0.001,-0.001)" />

<path d="M345,75c0,0,50,0,110,26V351l-63,-2c0,0,-72,-3,-100,-38c0,0,-28,-35,-28,-113c0,0,0,-63,22,-93c0,0,23,-30,59,-30ZM266,-14c0,0,-217,0,-217,208c0,0,0,79,32,126c0,0,32,48,93,71c0,0,60,22,190,25l91,2V521c0,0,0,126,-104,126c0,0,-62,0,-140,-39L183,521H134V691c0,0,112,17,165,21c0,0,53,5,108,5c0,0,264,0,264,-194V67L741,49V0H483L466,54C466,54,408,14,361,0c0,0,-47,-14,-95,-14Z" 
id="f0_1x"
transform="scale(0.001,-0.001)" />

<path d="M41,0V49l69,18V634L41,652v49H313l11,-61l50,26c0,0,105,54,188,54c0,0,194,0,194,-207V67L827,49V0H478V49l63,18V484c0,0,0,63,-27,98c0,0,-26,35,-75,35c0,0,-57,0,-114,-25V67L389,49V0Z" 
id="f0_2a"
transform="scale(0.001,-0.001)" />

<path d="M519,79c0,0,97,0,153,42c0,0,57,42,83,131c0,0,26,89,26,248c0,0,0,216,-79,317c0,0,-79,101,-257,101H389V85c0,0,72,-6,130,-6ZM533,-2L198,0H27V54L155,74V926L27,945v55H502c0,0,269,0,398,-122c0,0,129,-122,129,-372c0,0,0,-258,-123,-383C906,123,783,-2,533,-2Z" 
id="f0_14"
transform="scale(0.001,-0.001)" />

<path d="M868,0L251,804V74L385,54V0H29V54L157,74V926L29,945v55H371L862,361V926L727,945v55h356V945L955,926V0Z" 
id="f0_1e"
transform="scale(0.001,-0.001)" />

<path d="M639,416L478,858L313,416ZM647,0V54L762,74L667,333H283L191,74L319,54V0H15V54L90,74l355,935H662L1016,74l76,-20V0Z" 
id="f0_11"
transform="scale(0.001,-0.001)" />

<path d="M529,65c0,0,183,0,270,108c0,0,87,108,87,334c0,0,0,210,-113,318c0,0,-113,108,-322,108H316V71c0,0,90,-6,213,-6Zm0,-67L172,0H44V40L172,60V941L44,960v40H498c0,0,277,0,411,-123c0,0,133,-124,133,-371c0,0,0,-251,-129,-380C913,126,785,-2,529,-2Z" 
id="f1_14"
transform="scale(0.001,-0.001)" />

<path d="M868,0L251,900V60L385,40V0H44V40L172,60V941L44,960v40H347L862,259V941L727,960v40h341V960L940,941V0Z" 
id="f1_1e"
transform="scale(0.001,-0.001)" />

<path d="M681,416L504,902L333,416ZM669,0V40L803,60L704,348H310L210,60L344,40V0H15V40L128,60l341,949H611L965,60L1092,40V0Z" 
id="f1_11"
transform="scale(0.001,-0.001)" />

<path d="M284,67c0,0,51,0,88,12c0,0,37,12,74,30V358l-98,-3c0,0,-100,-4,-135,-39c0,0,-35,-35,-35,-117c0,0,0,-132,106,-132ZM233,-14c0,0,-179,0,-179,208c0,0,0,70,27,116c0,0,27,46,87,70c0,0,60,24,173,27l105,3V519c0,0,0,72,-26,107c0,0,-27,34,-82,34c0,0,-75,0,-137,-35L176,538H134V691c0,0,121,26,213,26c0,0,115,0,169,-47c0,0,54,-47,54,-144V52L657,33V0H465L451,70c0,0,-85,-84,-218,-84Z" 
id="f1_1x"
transform="scale(0.001,-0.001)" />

<path d="M31,0V33l88,19V649L31,668v33H235l7,-87c0,0,44,37,121,71c0,0,76,35,121,35h11V530H463l-43,82c0,0,-37,0,-88,-10c0,0,-52,-10,-89,-26V52L363,33V0Z" 
id="f1_2e"
transform="scale(0.001,-0.001)" />

<path d="M495,413c0,0,0,133,-34,190c0,0,-34,57,-105,57c0,0,-78,0,-119,-63c0,0,-42,-62,-42,-184ZM374,-14c0,0,-163,0,-239,87c0,0,-75,88,-75,283c0,0,0,183,77,273c0,0,76,91,219,91c0,0,269,0,269,-306V353H194V340c0,0,0,-103,23,-160c0,0,22,-57,70,-87c0,0,47,-29,124,-29c0,0,40,0,96,6c0,0,55,7,91,15V43C598,43,562,20,500,3c0,0,-61,-17,-126,-17Z" 
id="f1_21"
transform="scale(0.001,-0.001)" />

<path d="M377,45c0,0,99,0,147,73c0,0,47,73,47,237c0,0,0,161,-47,233c0,0,-47,72,-147,72c0,0,-97,0,-141,-69c0,0,-44,-69,-44,-236c0,0,0,-169,45,-240c0,0,44,-70,140,-70Zm0,-59c0,0,-158,0,-238,94c0,0,-81,95,-81,274c0,0,0,178,81,272c0,0,80,94,244,94c0,0,160,0,241,-92c0,0,82,-92,82,-274c0,0,0,-368,-329,-368Z" 
id="f1_2b"
transform="scale(0.001,-0.001)" />

<path d="M64,0V34L168,59V639H47v36l121,29v49c0,0,0,155,61,239c0,0,62,84,173,84c0,0,58,0,107,-15V908H472l-33,92c0,0,-26,16,-62,16c0,0,-47,0,-66,-42c0,0,-19,-42,-19,-157V701H478V639H292V59L443,34V0Z" 
id="f1_22"
transform="scale(0.001,-0.001)" />

<path d="M383,64c0,0,85,0,152,28V645c0,0,-67,13,-152,13c0,0,-194,0,-194,-314c0,0,0,-141,48,-211c0,0,48,-69,146,-69ZM342,-14c0,0,-287,0,-287,358c0,0,0,184,82,280c0,0,81,96,239,96c0,0,81,0,163,-18c0,0,-4,25,-4,124v182l-118,18v34H659V52L745,33V0H548l-9,52c0,0,-84,-66,-197,-66Z" 
id="f1_20"
transform="scale(0.001,-0.001)" />

<path d="M32,0V33L151,52V649L52,668v33H275V52L395,33V0ZM201,850c0,0,-32,0,-56,24c0,0,-24,24,-24,56c0,0,0,34,24,58c0,0,24,24,56,24c0,0,34,0,58,-24c0,0,24,-24,24,-58c0,0,0,-32,-24,-56c0,0,-24,-24,-58,-24Z" 
id="f1_25"
transform="scale(0.001,-0.001)" />

<path d="M439,0V33l93,19V500c0,0,0,62,-30,97c0,0,-31,36,-94,36c0,0,-67,0,-165,-22V52L338,33V0H35V33l84,19V649L35,668v33H235l7,-57c0,0,57,33,122,54c0,0,65,22,108,22c0,0,91,0,137,-53c0,0,47,-53,47,-154V52L741,33V0Z" 
id="f1_2a"
transform="scale(0.001,-0.001)" />

<path d="M249,-14c0,0,-71,0,-107,42c0,0,-35,42,-35,119V639H15v33l93,29l76,159h47V701H391V639H231V161c0,0,0,-48,22,-73c0,0,22,-24,57,-24c0,0,44,0,106,12V26C416,26,389,8,340,-2c0,0,-49,-12,-91,-12Z" 
id="f1_2g"
transform="scale(0.001,-0.001)" />

<path d="M148,-329c0,0,-58,0,-114,13v151H69l24,-71c0,0,23,-17,64,-17c0,0,39,0,72,22c0,0,33,23,60,67c0,0,27,44,68,157L90,649L19,668v33H344V668L233,648L423,158L606,649L497,668v33H758V668L685,652L411,-43c0,0,-48,-124,-84,-177c0,0,-36,-54,-79,-82c0,0,-44,-27,-100,-27Z" 
id="f1_2l"
transform="scale(0.001,-0.001)" />

<path d="M382,45c0,0,188,0,188,314c0,0,0,143,-47,213c0,0,-46,69,-141,69c0,0,-87,0,-146,-24V58c0,0,67,-13,146,-13ZM25,-325v35l88,18V649L34,668v33H231l1,-41c0,0,31,27,84,43c0,0,53,17,107,17c0,0,134,0,208,-94c0,0,73,-93,73,-267c0,0,0,-178,-80,-276c0,0,-80,-97,-232,-97c0,0,-84,0,-160,16c0,0,4,-53,4,-84V-272l123,-18v-35Z" 
id="f1_2c"
transform="scale(0.001,-0.001)" />

<path d="M278,-14c0,0,-52,0,-115,11c0,0,-63,10,-99,23V193H98L134,95c0,0,56,-50,146,-50c0,0,144,0,144,123c0,0,0,91,-114,130l-66,21c0,0,-75,25,-110,50c0,0,-34,26,-53,63c0,0,-18,36,-18,89c0,0,0,92,63,145c0,0,63,54,170,54c0,0,77,0,193,-23V544H454l-32,81c0,0,-39,35,-124,35c0,0,-61,0,-92,-30c0,0,-32,-30,-32,-80c0,0,0,-43,29,-72c0,0,28,-29,86,-48c0,0,110,-38,144,-55c0,0,33,-17,57,-42c0,0,23,-25,36,-57c0,0,13,-32,13,-79c0,0,0,-104,-66,-158c0,0,-66,-53,-195,-53Z" 
id="f1_2f"
transform="scale(0.001,-0.001)" />

<path d="M289,-14c0,0,-179,0,-179,205V649L20,668v33H233V200c0,0,0,-128,120,-128c0,0,92,0,173,23V649L420,668v33H649V52L738,33V0H533l-6,57C527,57,474,28,405,7c0,0,-69,-21,-116,-21Z" 
id="f1_2h"
transform="scale(0.001,-0.001)" />

<path d="M399,-14c0,0,-341,0,-341,370c0,0,0,175,87,269c0,0,87,95,249,95c0,0,101,0,220,-23V501H573L541,625c0,0,-62,35,-149,35c0,0,-200,0,-200,-304c0,0,0,-158,61,-225c0,0,61,-67,189,-67c0,0,109,0,189,24V43C631,43,595,16,530,1c0,0,-64,-15,-131,-15Z" 
id="f1_1z"
transform="scale(0.001,-0.001)" />

<path d="M442,0V33l93,19V504c0,0,0,129,-124,129c0,0,-70,0,-168,-22V52L338,33V0H31V33l88,19v956L15,1026v34H243V756c0,0,0,-77,-5,-112c0,0,54,31,122,53c0,0,68,23,115,23c0,0,91,0,137,-53c0,0,47,-53,47,-154V52L744,33V0Z" 
id="f1_24"
transform="scale(0.001,-0.001)" />

<path d="M57,302V417H454V302Z" 
id="f1_h"
transform="scale(0.001,-0.001)" />

<path d="M559,77c0,0,87,0,129,53c0,0,42,53,42,162c0,0,0,99,-49,147c0,0,-50,49,-163,49H389V82c0,0,108,-5,170,-5ZM499,570c0,0,80,0,118,42c0,0,38,42,38,141c0,0,0,88,-38,126c0,0,-37,39,-124,39H389V570ZM561,-3L221,0H25V54L154,74V926L25,945v55H511c0,0,199,0,294,-53c0,0,95,-53,95,-173c0,0,0,-89,-56,-154c0,0,-56,-65,-150,-85c0,0,139,-14,211,-76c0,0,71,-61,71,-167c0,0,0,-146,-107,-221C869,71,762,-3,561,-3Z" 
id="f0_12"
transform="scale(0.001,-0.001)" />

<path d="M273,157c0,0,-114,0,-193,80C80,237,0,317,0,431c0,0,0,112,80,192c0,0,79,80,193,80c0,0,113,0,192,-80c0,0,80,-80,80,-192c0,0,0,-114,-80,-194c0,0,-79,-80,-192,-80Z" 
id="f2_3d"
transform="scale(0.001,-0.001)" />

<path d="M235,0V40L394,60V936H356c0,0,-189,0,-258,-15L78,766H28v234H908V766H857L837,921c0,0,-22,5,-98,9c0,0,-75,4,-165,4H538V60L697,40V0Z" 
id="f1_1k"
transform="scale(0.001,-0.001)" />

<path d="M327,-14L84,649L1,668v33H335V668L219,648L385,174L554,632h63L786,171L944,649L830,668v33h267V668l-78,-16L784,-14H726L553,448L382,-14Z" 
id="f1_2j"
transform="scale(0.001,-0.001)" />

<path d="M31,0V33L150,52v956L31,1026v34H274V52L394,33V0Z" 
id="f1_28"
transform="scale(0.001,-0.001)" />

<path d="M359,-270c0,0,124,0,192,46c0,0,67,47,67,129c0,0,0,43,-26,67c0,0,-26,24,-79,24H242c0,0,-32,-27,-51,-69c0,0,-20,-41,-20,-77c0,0,0,-64,46,-92c0,0,46,-28,142,-28Zm11,561c0,0,81,0,115,47c0,0,34,47,34,141c0,0,0,100,-35,142c0,0,-35,42,-113,42c0,0,-78,0,-114,-43c0,0,-37,-42,-37,-141c0,0,0,-98,36,-143c0,0,36,-45,114,-45ZM359,-329c0,0,-143,0,-218,44c0,0,-75,43,-75,125c0,0,0,39,27,78c0,0,26,38,98,89c0,0,-43,14,-72,48c0,0,-29,35,-29,74L208,262c0,0,-118,55,-118,217c0,0,0,115,73,178c0,0,73,63,211,63c0,0,28,0,71,-6c0,0,44,-6,67,-13l165,83l26,-32L599,644c0,0,50,-56,50,-165c0,0,0,-120,-72,-182c0,0,-73,-62,-208,-62c0,0,-62,0,-114,11L208,148c0,0,2,-13,29,-24c0,0,27,-12,67,-12H512c0,0,113,0,168,-49c0,0,55,-49,55,-134c0,0,0,-79,-44,-137c0,0,-43,-58,-128,-90c0,0,-84,-31,-204,-31Z" 
id="f1_23"
transform="scale(0.001,-0.001)" />

<path d="M13,0V34L95,46L325,350L122,649L40,668v33H357V668L264,648L399,446L554,649l-96,19v33H710V668L630,652L433,397L663,50L745,34V0H427V34l94,17L359,299L169,50L266,34V0Z" 
id="f1_2k"
transform="scale(0.001,-0.001)" />

<path d="M191,-20c0,0,-39,0,-65,25c0,0,-25,27,-25,64c0,0,0,38,26,64c0,0,26,26,64,26c0,0,38,0,64,-26c0,0,26,-26,26,-64c0,0,0,-37,-25,-64c0,0,-26,-25,-65,-25Z" 
id="f1_i"
transform="scale(0.001,-0.001)" />

<path d="M410,-14c0,0,-80,0,-162,14c0,0,-81,14,-144,38V270h48L178,134c0,0,28,-35,95,-62c0,0,68,-27,134,-27c0,0,104,0,163,53c0,0,58,54,58,148c0,0,0,54,-23,89c0,0,-22,35,-59,59c0,0,-37,24,-84,41c0,0,-47,17,-97,34c0,0,-49,17,-96,38c0,0,-47,21,-84,53c0,0,-37,32,-60,79c0,0,-23,48,-23,117c0,0,0,119,90,187c0,0,89,68,248,68c0,0,121,0,263,-32V771H654L628,893c0,0,-76,55,-188,55c0,0,-100,0,-156,-40c0,0,-56,-41,-56,-112c0,0,0,-49,22,-81c0,0,23,-32,60,-55c0,0,37,-22,84,-39c0,0,48,-16,97,-34c0,0,50,-17,97,-39c0,0,48,-22,85,-56c0,0,36,-34,59,-83c0,0,23,-49,23,-120c0,0,0,-145,-89,-224c0,0,-89,-79,-256,-79Z" 
id="f1_1j"
transform="scale(0.001,-0.001)" />

<path d="M577,-14c0,0,-243,0,-379,131C198,117,63,248,63,488c0,0,0,263,131,393c0,0,132,130,386,130c0,0,182,0,352,-45V751H882L862,875c0,0,-52,37,-124,57c0,0,-72,19,-152,19c0,0,-191,0,-279,-113c0,0,-88,-114,-88,-348c0,0,0,-220,91,-333c0,0,91,-114,269,-114c0,0,63,0,131,15c0,0,69,15,105,36V377L686,397v40h370V397L958,377V52C958,52,871,24,778,5c0,0,-93,-19,-201,-19Z" 
id="f1_17"
transform="scale(0.001,-0.001)" />

<path d="M376,50c0,0,103,0,149,80c0,0,46,81,46,240c0,0,0,137,-47,204c0,0,-48,67,-148,67c0,0,-44,0,-87,-7c0,0,-44,-8,-63,-17V62c0,0,63,-12,150,-12Zm3,-64c0,0,-64,0,-141,14c0,0,-78,14,-136,37v971L0,1026v34H226V809c0,0,0,-40,-4,-148c0,0,74,59,188,59c0,0,143,0,219,-87c0,0,77,-87,77,-263c0,0,0,-189,-84,-287c0,0,-84,-97,-243,-97Z" 
id="f1_1y"
transform="scale(0.001,-0.001)" />

<path d="M431,0V33L535,52V499c0,0,0,62,-32,96c0,0,-32,33,-95,33c0,0,-66,0,-163,-22V52L350,33V0H32V33l89,19V649L32,668v33H237l6,-57c0,0,56,32,119,54c0,0,62,22,110,22c0,0,52,0,95,-20c0,0,44,-19,66,-62c0,0,57,32,134,57c0,0,77,25,128,25c0,0,179,0,179,-207V52l90,-19V0H846V33L950,52V499c0,0,0,129,-119,129c0,0,-19,0,-45,-3c0,0,-26,-3,-52,-7c0,0,-25,-4,-49,-8c0,0,-23,-5,-39,-8c0,0,13,-41,13,-89V52L764,33V0Z" 
id="f1_29"
transform="scale(0.001,-0.001)" />

<path d="M350,-14c0,0,-142,0,-269,31L73,228h49L156,87c0,0,29,-16,82,-28c0,0,54,-12,100,-12c0,0,117,0,173,54c0,0,56,53,56,178c0,0,0,99,-52,150c0,0,-51,51,-159,56l-107,6v61l107,7c0,0,84,5,124,52c0,0,41,48,41,145c0,0,0,101,-44,147c0,0,-44,45,-139,45c0,0,-40,0,-83,-10c0,0,-43,-11,-76,-29L153,786H104V979c0,0,74,19,127,26c0,0,54,6,107,6c0,0,321,0,321,-246c0,0,0,-104,-57,-165c0,0,-57,-62,-162,-77c0,0,136,-16,200,-78c0,0,64,-62,64,-173c0,0,0,-135,-92,-211c0,0,-93,-75,-262,-75Z" 
id="f1_n"
transform="scale(0.001,-0.001)" />

<path d="M73,0V85L627,921H448c0,0,-170,0,-239,-15L186,749H119v251H892V921L335,77H544c0,0,85,0,167,8c0,0,83,9,119,17l44,191h67L921,0Z" 
id="f0_1q"
transform="scale(0.001,-0.001)" />

<path d="M536,63c0,0,127,0,191,54c0,0,63,54,63,168c0,0,0,105,-70,154c0,0,-70,49,-225,49H316V67c0,0,103,-4,220,-4ZM480,555c0,0,121,0,178,48c0,0,57,48,57,155c0,0,0,91,-58,133c0,0,-57,42,-186,42H316V555ZM554,-4L235,0H44V40L172,60V941L44,960v40H501c0,0,191,0,279,-56c0,0,88,-56,88,-179c0,0,0,-88,-55,-149c0,0,-54,-62,-151,-83c0,0,135,-14,209,-79c0,0,73,-65,73,-166c0,0,0,-144,-99,-219C845,69,745,-4,554,-4Z" 
id="f1_12"
transform="scale(0.001,-0.001)" />

<path d="M360,-14L72,649L0,668v33H327V668L216,648L420,164L615,649L504,668v33H764V668L697,652L416,-14Z" 
id="f1_2i"
transform="scale(0.001,-0.001)" />

<path d="M41,0V34L426,641H261c0,0,-42,0,-80,-7c0,0,-39,-7,-54,-19L104,515H69V701H586V665L201,60H407c0,0,42,0,89,10c0,0,47,10,66,25l39,147h35L617,0Z" 
id="f1_2m"
transform="scale(0.001,-0.001)" />

<path d="M34,0V49l76,18V634L38,652v49H325V67L402,49V0ZM217,831c0,0,-48,0,-81,33c0,0,-34,33,-34,82c0,0,0,48,34,81c0,0,34,33,81,33c0,0,48,0,81,-33c0,0,33,-33,33,-81c0,0,0,-47,-33,-81c0,0,-32,-34,-81,-34Z" 
id="f0_25"
transform="scale(0.001,-0.001)" />

<path d="M420,-22L89,941L1,960v40H383V960L236,941L474,236L744,930h33L1037,236l227,705l-156,19v40h331V960l-87,-19L1025,-22H985L726,666L460,-22Z" 
id="f1_1n"
transform="scale(0.001,-0.001)" />

<path d="M64,-325c0,0,-46,0,-107,14v148H-8l19,-81c0,0,25,-21,62,-21c0,0,44,0,67,47c0,0,22,47,22,152V649L57,668v33H286V-28c0,0,0,-146,-57,-221c0,0,-56,-76,-165,-76ZM213,850c0,0,-34,0,-58,24c0,0,-24,24,-24,56c0,0,0,34,24,58c0,0,24,24,58,24c0,0,32,0,56,-24c0,0,24,-24,24,-58c0,0,0,-32,-24,-56c0,0,-24,-24,-56,-24Z" 
id="f1_26"
transform="scale(0.001,-0.001)" />

<path d="M44,0V40L172,60V941L44,960v40H445V960L316,941V549H787V941L659,960v40h400V960L930,941V60L1059,40V0H659V40L787,60V481H316V60L445,40V0Z" 
id="f1_18"
transform="scale(0.001,-0.001)" />

<path d="M58,-234v58c0,0,131,42,131,125c0,0,0,15,-11,27c0,0,-11,12,-38,25C140,1,89,27,89,75c0,0,0,40,25,61c0,0,26,21,65,21c0,0,48,0,77,-34c0,0,30,-34,30,-86c0,0,0,-101,-60,-170c0,0,-59,-69,-168,-101Z" 
id="f1_g"
transform="scale(0.001,-0.001)" />

<path d="M55,0V40L184,60V941L55,960v40H455V960L327,941V60L455,40V0Z" 
id="f1_19"
transform="scale(0.001,-0.001)" />

<path d="M477,0V33l64,19L348,354L257,254V52L331,33V0H44V33l89,19v956L29,1026v34H257V338L544,647l-73,20v34H718V667L631,650L431,446L688,50L764,33V0Z" 
id="f1_27"
transform="scale(0.001,-0.001)" />

<path d="M36,0V54L154,74V926L26,945v55H860V731H790L766,908c0,0,-36,5,-121,8c0,0,-84,2,-133,2H389V508H633l23,127h67V298H656L633,426H389V74L556,54V0Z" 
id="f0_16"
transform="scale(0.001,-0.001)" />

<path d="M360,-256c0,0,108,0,167,35c0,0,59,35,59,98c0,0,0,70,-95,70H254c0,0,-65,-47,-65,-108c0,0,0,-47,46,-71c0,0,45,-24,125,-24Zm9,561c0,0,55,0,79,43c0,0,25,43,25,129c0,0,0,87,-24,127c0,0,-25,41,-80,41c0,0,-52,0,-75,-41c0,0,-24,-40,-24,-127c0,0,0,-86,23,-129c0,0,23,-43,76,-43Zm-9,-641c0,0,-153,0,-236,43c0,0,-84,44,-84,120c0,0,0,33,28,65c0,0,27,31,105,76c0,0,-44,17,-75,59c0,0,-31,43,-31,90L192,258c0,0,-133,56,-133,219c0,0,0,116,81,180c0,0,82,63,233,63c0,0,32,0,82,-6c0,0,51,-6,74,-13l168,83l26,-32L638,631c0,0,46,-57,46,-154c0,0,0,-119,-80,-182c0,0,-80,-64,-234,-64c0,0,-59,0,-114,9L238,183c0,0,1,-22,28,-41c0,0,26,-19,64,-19H493c0,0,256,0,256,-196c0,0,0,-81,-44,-139c0,0,-45,-59,-131,-92c0,0,-86,-32,-214,-32Z" 
id="f0_23"
transform="scale(0.001,-0.001)" />

<path d="M191,-20c0,0,-51,0,-88,34c0,0,-36,36,-36,88c0,0,0,52,36,88c0,0,36,36,88,36c0,0,51,0,88,-36c0,0,36,-36,36,-88c0,0,0,-51,-36,-87c0,0,-36,-35,-88,-35Z" 
id="f0_i"
transform="scale(0.001,-0.001)" />

<path d="M160,0L581,834H186L152,715H87v285H727V941L338,0Z" 
id="f0_r"
transform="scale(0.001,-0.001)" />

<path d="M452,474c0,0,104,0,151,52c0,0,47,53,47,178c0,0,0,119,-45,167c0,0,-44,47,-156,47H390V474ZM36,0V54L154,74V926L26,945v55H467c0,0,213,0,318,-71c0,0,105,-71,105,-224c0,0,0,-313,-366,-313H390V74L557,54V0Z" 
id="f0_1g"
transform="scale(0.001,-0.001)" />

<path d="M498,506c0,0,115,0,164,47c0,0,48,48,48,166c0,0,0,112,-46,156c0,0,-46,43,-169,43H390V506ZM793,0L514,423H390V74L518,54V0H36V54L154,74V926L26,945v55H504c0,0,221,0,330,-68c0,0,109,-68,109,-212c0,0,0,-215,-201,-276L1009,74L1117,54V0Z" 
id="f0_1i"
transform="scale(0.001,-0.001)" />

<path d="M448,506c0,0,134,0,190,49c0,0,57,50,57,168c0,0,0,114,-56,162c0,0,-56,48,-195,48H316V506ZM777,0L496,438H316V60L468,40V0H54V40L172,60V941L44,960v40H476c0,0,188,0,277,-63c0,0,90,-64,90,-204c0,0,0,-100,-54,-173c0,0,-55,-73,-151,-101L909,60L1017,40V0Z" 
id="f1_1i"
transform="scale(0.001,-0.001)" />

<path d="M415,-18c0,0,-149,0,-244,83c0,0,-94,84,-107,222l140,11c0,0,16,-103,73,-154c0,0,56,-52,137,-52c0,0,98,0,165,73c0,0,66,73,66,194c0,0,0,115,-64,182c0,0,-64,66,-169,66c0,0,-65,0,-117,-29c0,0,-52,-30,-82,-77L87,517l106,562H736V951H300L241,657c0,0,99,69,207,69c0,0,143,0,242,-100c0,0,98,-99,98,-255c0,0,0,-149,-86,-257C702,114,597,-18,415,-18Z" 
id="f3_p"
transform="scale(0.001,-0.001)" />


</defs>
</svg>