<?xml version="1.0" encoding="UTF-8" standalone="no"?>
<!DOCTYPE svg PUBLIC "-//W3C//DTD SVG 1.1//EN"
"http://www.w3.org/Graphics/SVG/1.1/DTD/svg11.dtd">
<svg viewBox="0 0 797 1155" version="1.1" xmlns="http://www.w3.org/2000/svg" xmlns:xlink="http://www.w3.org/1999/xlink">
<defs>
<style type="text/css"><![CDATA[
.g0_75{
fill: #FFFFFF;
}
]]></style>
</defs>
<path fill-rule="evenodd" d="M52.8,344H745V323.5H52.8V344Z" class="g0_75" />
<g fill="#FFFFFF" >
<use xlink:href="#f0_nt" transform="matrix(11,0,0,11,55,339.6)" />
</g>
<g fill="#000000" >
<use xlink:href="#f0_ox" transform="matrix(11,0,0,11,59.4,339.6)" />
</g>
<g fill="#FFFFFF" >
<use xlink:href="#f0_nt" transform="matrix(11,0,0,11,64.6,339.6)" />
</g>
<g fill="#000000" >
<use xlink:href="#f0_1c" transform="matrix(11,0,0,11,69,339.6)" />
<use xlink:href="#f0_ae" transform="matrix(11,0,0,11,73.4,339.6)" />
<use xlink:href="#f0_77" transform="matrix(11,0,0,11,86.6,339.6)" />
<use xlink:href="#f0_9d" transform="matrix(11,0,0,11,95,339.6)" />
<use xlink:href="#f0_7z" transform="matrix(11,0,0,11,103.8,339.6)" />
</g>
<g fill="#FFFFFF" >
<use xlink:href="#f0_nt" transform="matrix(11,0,0,11,111.9,339.6)" />
</g>
<g fill="#000000" >
<use xlink:href="#f0_b5" transform="matrix(11,0,0,11,115.9,339.6)" />
<use xlink:href="#f0_am" transform="matrix(11,0,0,11,122.5,339.6)" />
<use xlink:href="#f0_c6" transform="matrix(11,0,0,11,130.9,339.6)" />
<use xlink:href="#f0_b1" transform="matrix(11,0,0,11,139.7,339.6)" />
<use xlink:href="#f0_7l" transform="matrix(11,0,0,11,145.6,339.6)" />
<use xlink:href="#f0_7z" transform="matrix(11,0,0,11,152.6,339.6)" />
<use xlink:href="#f0_ns" transform="matrix(11,0,0,11,160.7,339.6)" />
<use xlink:href="#f0_9d" transform="matrix(11,0,0,11,165,339.6)" />
<use xlink:href="#f0_am" transform="matrix(11,0,0,11,173.4,339.6)" />
<use xlink:href="#f0_am" transform="matrix(11,0,0,11,182.2,339.6)" />
<use xlink:href="#f0_9d" transform="matrix(11,0,0,11,191,339.6)" />
<use xlink:href="#f0_a8" transform="matrix(11,0,0,11,199.4,339.6)" />
<use xlink:href="#f0_7z" transform="matrix(11,0,0,11,203.5,339.6)" />
</g>
<g fill="#FFFFFF" >
<use xlink:href="#f0_nt" transform="matrix(11,0,0,11,211.7,339.6)" />
</g>
<g fill="#000000" >
<use xlink:href="#f0_9q" transform="matrix(11,0,0,11,215.7,339.6)" />
<use xlink:href="#f0_ae" transform="matrix(11,0,0,11,219.7,339.6)" />
<use xlink:href="#f0_77" transform="matrix(11,0,0,11,232.9,339.6)" />
<use xlink:href="#f0_9d" transform="matrix(11,0,0,11,241.4,339.6)" />
<use xlink:href="#f0_7z" transform="matrix(11,0,0,11,250.1,339.6)" />
<use xlink:href="#f0_b5" transform="matrix(11,0,0,11,258.2,339.6)" />
<use xlink:href="#f0_oy" transform="matrix(11,0,0,11,264.8,339.6)" />
</g>
<g fill="#FFFFFF" >
<use xlink:href="#f0_nt" transform="matrix(11,0,0,11,270,339.6)" />
</g>
<g fill="#000000" >
<use xlink:href="#f1_2t" transform="matrix(11,0,0,11,55,380.3)" />
<use xlink:href="#f1_co" transform="matrix(11,0,0,11,63.5,380.3)" />
<use xlink:href="#f1_ay" transform="matrix(11,0,0,11,71.5,380.3)" />
<use xlink:href="#f1_7z" transform="matrix(11,0,0,11,80.6,380.3)" />
<use xlink:href="#f1_b5" transform="matrix(11,0,0,11,89.1,380.3)" />
</g>
<g fill="#FFFFFF" >
<use xlink:href="#f1_nt" transform="matrix(11,0,0,11,95.7,380.3)" />
</g>
<g fill="#000000" >
<use xlink:href="#f1_am" transform="matrix(11,0,0,11,100.1,380.3)" />
<use xlink:href="#f1_89" transform="matrix(11,0,0,11,109.3,380.3)" />
</g>
<g fill="#FFFFFF" >
<use xlink:href="#f1_nt" transform="matrix(11,0,0,11,114.8,380.3)" />
</g>
<g fill="#000000" >
<use xlink:href="#f1_2j" transform="matrix(11,0,0,11,119.2,380.3)" />
<use xlink:href="#f1_am" transform="matrix(11,0,0,11,128.4,380.3)" />
<use xlink:href="#f1_am" transform="matrix(11,0,0,11,137.5,380.3)" />
<use xlink:href="#f1_bf" transform="matrix(11,0,0,11,146.6,380.3)" />
<use xlink:href="#f1_ns" transform="matrix(11,0,0,11,152.5,380.3)" />
<use xlink:href="#f1_oj" transform="matrix(11,0,0,11,157.4,380.3)" />
<use xlink:href="#f1_oj" transform="matrix(11,0,0,11,162.5,380.3)" />
<use xlink:href="#f2_2j" transform="matrix(11,0,0,11,55,400.9)" />
<use xlink:href="#f2_am" transform="matrix(11,0,0,11,64.2,400.9)" />
<use xlink:href="#f2_am" transform="matrix(11,0,0,11,73,400.9)" />
<use xlink:href="#f2_bf" transform="matrix(11,0,0,11,81.8,400.9)" />
<use xlink:href="#f2_b5" transform="matrix(11,0,0,11,87.3,400.9)" />
</g>
<g fill="#FFFFFF" >
<use xlink:href="#f2_nt" transform="matrix(11,0,0,11,93.9,400.9)" />
</g>
<g fill="#000000" >
<use xlink:href="#f2_77" transform="matrix(11,0,0,11,98.3,400.9)" />
<use xlink:href="#f2_b1" transform="matrix(11,0,0,11,106.4,400.9)" />
<use xlink:href="#f2_7z" transform="matrix(11,0,0,11,112.2,400.9)" />
</g>
<g fill="#FFFFFF" >
<use xlink:href="#f2_nt" transform="matrix(11,0,0,11,120.7,400.9)" />
</g>
<g fill="#000000" >
<use xlink:href="#f2_am" transform="matrix(11,0,0,11,125.1,400.9)" />
<use xlink:href="#f2_89" transform="matrix(11,0,0,11,133.9,400.9)" />
</g>
<g fill="#FFFFFF" >
<use xlink:href="#f2_nt" transform="matrix(11,0,0,11,139,400.9)" />
</g>
<g fill="#000000" >
<use xlink:href="#f2_bf" transform="matrix(11,0,0,11,143.4,400.9)" />
<use xlink:href="#f2_9n" transform="matrix(11,0,0,11,148.9,400.9)" />
<use xlink:href="#f2_b1" transform="matrix(11,0,0,11,157.7,400.9)" />
<use xlink:href="#f2_7z" transform="matrix(11,0,0,11,163.6,400.9)" />
<use xlink:href="#f2_7z" transform="matrix(11,0,0,11,172,400.9)" />
</g>
<g fill="#FFFFFF" >
<use xlink:href="#f2_nt" transform="matrix(11,0,0,11,180.5,400.9)" />
</g>
<g fill="#000000" >
<use xlink:href="#f2_bf" transform="matrix(11,0,0,11,184.9,400.9)" />
<use xlink:href="#f2_co" transform="matrix(11,0,0,11,190.4,400.9)" />
<use xlink:href="#f2_ay" transform="matrix(11,0,0,11,198.1,400.9)" />
<use xlink:href="#f2_7z" transform="matrix(11,0,0,11,206.9,400.9)" />
<use xlink:href="#f2_b5" transform="matrix(11,0,0,11,215.3,400.9)" />
<use xlink:href="#f2_ns" transform="matrix(11,0,0,11,221.9,400.9)" />
<use xlink:href="#f2_ry" transform="matrix(11,0,0,11,55,421.4)" />
<use xlink:href="#f2_nt" transform="matrix(11,0,0,11,63.5,421.4)" />
<use xlink:href="#f2_2t" transform="matrix(11,0,0,11,71.5,421.4)" />
<use xlink:href="#f2_77" transform="matrix(11,0,0,11,79.6,421.4)" />
<use xlink:href="#f2_ay" transform="matrix(11,0,0,11,87.7,421.4)" />
</g>
<g fill="#FFFFFF" >
<use xlink:href="#f2_nt" transform="matrix(11,0,0,11,96.5,421.4)" />
</g>
<g fill="#000000" >
<use xlink:href="#f2_b1" transform="matrix(11,0,0,11,100.9,421.4)" />
<use xlink:href="#f2_am" transform="matrix(11,0,0,11,106.8,421.4)" />
<use xlink:href="#f2_am" transform="matrix(11,0,0,11,115.5,421.4)" />
<use xlink:href="#f2_bf" transform="matrix(11,0,0,11,124.3,421.4)" />
</g>
<g fill="#FFFFFF" >
<use xlink:href="#f2_nt" transform="matrix(11,0,0,11,133.5,421.4)" />
</g>
<g fill="#000000" >
<use xlink:href="#f2_rz" transform="matrix(11,0,0,11,55,442)" />
<use xlink:href="#f2_nt" transform="matrix(11,0,0,11,63.5,442)" />
<use xlink:href="#f2_13" transform="matrix(11,0,0,11,71.5,442)" />
<use xlink:href="#f2_9q" transform="matrix(11,0,0,11,79.3,442)" />
<use xlink:href="#f2_7k" transform="matrix(11,0,0,11,83.3,442)" />
<use xlink:href="#f2_b1" transform="matrix(11,0,0,11,92.1,442)" />
<use xlink:href="#f2_am" transform="matrix(11,0,0,11,97.9,442)" />
<use xlink:href="#f2_c6" transform="matrix(11,0,0,11,106.7,442)" />
<use xlink:href="#f2_b5" transform="matrix(11,0,0,11,115.5,442)" />
</g>
<g fill="#FFFFFF" >
<use xlink:href="#f2_nt" transform="matrix(11,0,0,11,122.1,442)" />
</g>
<g fill="#000000" >
<use xlink:href="#f2_b1" transform="matrix(11,0,0,11,126.6,442)" />
<use xlink:href="#f2_am" transform="matrix(11,0,0,11,132.5,442)" />
<use xlink:href="#f2_am" transform="matrix(11,0,0,11,141.2,442)" />
<use xlink:href="#f2_bf" transform="matrix(11,0,0,11,150.1,442)" />
<use xlink:href="#f2_s0" transform="matrix(11,0,0,11,55,462.5)" />
<use xlink:href="#f2_nt" transform="matrix(11,0,0,11,63.5,462.5)" />
<use xlink:href="#f2_5" transform="matrix(11,0,0,11,71.5,462.5)" />
<use xlink:href="#f2_7v" transform="matrix(11,0,0,11,81.4,462.5)" />
<use xlink:href="#f2_ch" transform="matrix(11,0,0,11,90.2,462.5)" />
<use xlink:href="#f2_7z" transform="matrix(11,0,0,11,97.9,462.5)" />
<use xlink:href="#f2_af" transform="matrix(11,0,0,11,106.3,462.5)" />
<use xlink:href="#f2_bf" transform="matrix(11,0,0,11,115.1,462.5)" />
<use xlink:href="#f2_9q" transform="matrix(11,0,0,11,120.6,462.5)" />
<use xlink:href="#f2_bf" transform="matrix(11,0,0,11,124.6,462.5)" />
<use xlink:href="#f2_9q" transform="matrix(11,0,0,11,130.1,462.5)" />
<use xlink:href="#f2_am" transform="matrix(11,0,0,11,134.2,462.5)" />
<use xlink:href="#f2_c6" transform="matrix(11,0,0,11,143,462.5)" />
<use xlink:href="#f2_b5" transform="matrix(11,0,0,11,151.8,462.5)" />
<use xlink:href="#f2_b1" transform="matrix(11,0,0,11,162,462.5)" />
<use xlink:href="#f2_am" transform="matrix(11,0,0,11,167.9,462.5)" />
<use xlink:href="#f2_am" transform="matrix(11,0,0,11,176.7,462.5)" />
<use xlink:href="#f2_bf" transform="matrix(11,0,0,11,185.5,462.5)" />
</g>
<path fill-rule="evenodd" d="M55,879.5H742.8V859H55v20.5Z" class="g0_75" />
<g fill="#212121" >
<use xlink:href="#f1_2t" transform="matrix(11,0,0,11,55,875.1)" />
<use xlink:href="#f1_77" transform="matrix(11,0,0,11,63.5,875.1)" />
<use xlink:href="#f1_ay" transform="matrix(11,0,0,11,71.9,875.1)" />
<use xlink:href="#f1_b1" transform="matrix(11,0,0,11,85.4,875.1)" />
<use xlink:href="#f1_am" transform="matrix(11,0,0,11,91.3,875.1)" />
<use xlink:href="#f1_am" transform="matrix(11,0,0,11,100.4,875.1)" />
<use xlink:href="#f1_bf" transform="matrix(11,0,0,11,109.5,875.1)" />
<use xlink:href="#f1_b5" transform="matrix(11,0,0,11,119.8,875.1)" />
<use xlink:href="#f1_co" transform="matrix(11,0,0,11,126.4,875.1)" />
<use xlink:href="#f1_b5" transform="matrix(11,0,0,11,134.4,875.1)" />
<use xlink:href="#f1_bf" transform="matrix(11,0,0,11,141,875.1)" />
<use xlink:href="#f1_7z" transform="matrix(11,0,0,11,146.9,875.1)" />
<use xlink:href="#f1_ae" transform="matrix(11,0,0,11,155.4,875.1)" />
<use xlink:href="#f1_ns" transform="matrix(11,0,0,11,168.9,875.1)" />
</g>
<g fill="#000000" >
<use xlink:href="#f2_2t" transform="matrix(11,0,0,11,178.3,875.1)" />
<use xlink:href="#f2_9n" transform="matrix(11,0,0,11,186.3,875.1)" />
<use xlink:href="#f2_7z" transform="matrix(11,0,0,11,195.1,875.1)" />
<use xlink:href="#f2_ay" transform="matrix(11,0,0,11,208,875.1)" />
<use xlink:href="#f2_b1" transform="matrix(11,0,0,11,216.8,875.1)" />
<use xlink:href="#f2_9q" transform="matrix(11,0,0,11,222.7,875.1)" />
<use xlink:href="#f2_ae" transform="matrix(11,0,0,11,226.6,875.1)" />
<use xlink:href="#f2_77" transform="matrix(11,0,0,11,240.2,875.1)" />
<use xlink:href="#f2_b1" transform="matrix(11,0,0,11,248.3,875.1)" />
<use xlink:href="#f2_co" transform="matrix(11,0,0,11,254.2,875.1)" />
<use xlink:href="#f2_b1" transform="matrix(11,0,0,11,266.2,875.1)" />
<use xlink:href="#f2_am" transform="matrix(11,0,0,11,272.1,875.1)" />
<use xlink:href="#f2_am" transform="matrix(11,0,0,11,280.9,875.1)" />
<use xlink:href="#f2_bf" transform="matrix(11,0,0,11,289.7,875.1)" />
<use xlink:href="#f2_9q" transform="matrix(11,0,0,11,299.9,875.1)" />
<use xlink:href="#f2_b5" transform="matrix(11,0,0,11,303.9,875.1)" />
<use xlink:href="#f2_a8" transform="matrix(11,0,0,11,314.9,875.1)" />
<use xlink:href="#f2_77" transform="matrix(11,0,0,11,318.9,875.1)" />
<use xlink:href="#f2_b1" transform="matrix(11,0,0,11,327,875.1)" />
<use xlink:href="#f2_9d" transform="matrix(11,0,0,11,332.9,875.1)" />
<use xlink:href="#f2_7z" transform="matrix(11,0,0,11,340.9,875.1)" />
<use xlink:href="#f2_nq" transform="matrix(11,0,0,11,349.3,875.1)" />
<use xlink:href="#f2_7l" transform="matrix(11,0,0,11,358,875.1)" />
<use xlink:href="#f2_7z" transform="matrix(11,0,0,11,365,875.1)" />
<use xlink:href="#f2_af" transform="matrix(11,0,0,11,373.4,875.1)" />
<use xlink:href="#f2_bf" transform="matrix(11,0,0,11,382.6,875.1)" />
<use xlink:href="#f2_b1" transform="matrix(11,0,0,11,388.1,875.1)" />
<use xlink:href="#f2_77" transform="matrix(11,0,0,11,393.9,875.1)" />
<use xlink:href="#f2_a8" transform="matrix(11,0,0,11,402,875.1)" />
<use xlink:href="#f2_nq" transform="matrix(11,0,0,11,406,875.1)" />
<use xlink:href="#f2_77" transform="matrix(11,0,0,11,414.4,875.1)" />
<use xlink:href="#f2_af" transform="matrix(11,0,0,11,422.8,875.1)" />
<use xlink:href="#f2_7v" transform="matrix(11,0,0,11,431.6,875.1)" />
<use xlink:href="#f2_7v" transform="matrix(11,0,0,11,444.8,875.1)" />
<use xlink:href="#f2_am" transform="matrix(11,0,0,11,453.6,875.1)" />
<use xlink:href="#f2_ae" transform="matrix(11,0,0,11,462.4,875.1)" />
<use xlink:href="#f2_9q" transform="matrix(11,0,0,11,476,875.1)" />
<use xlink:href="#f2_af" transform="matrix(11,0,0,11,480,875.1)" />
<use xlink:href="#f2_77" transform="matrix(11,0,0,11,488.8,875.1)" />
<use xlink:href="#f2_af" transform="matrix(11,0,0,11,496.9,875.1)" />
<use xlink:href="#f2_bf" transform="matrix(11,0,0,11,505.7,875.1)" />
<use xlink:href="#f0_b1" transform="matrix(11,0,0,11,515,875.1)" />
<use xlink:href="#f0_am" transform="matrix(11,0,0,11,520.9,875.1)" />
<use xlink:href="#f0_am" transform="matrix(11,0,0,11,529.7,875.1)" />
<use xlink:href="#f0_bf" transform="matrix(11,0,0,11,538.4,875.1)" />
<use xlink:href="#f2_9q" transform="matrix(11,0,0,11,548.4,875.1)" />
<use xlink:href="#f2_af" transform="matrix(11,0,0,11,552.4,875.1)" />
<use xlink:href="#f2_bf" transform="matrix(11,0,0,11,565.6,875.1)" />
<use xlink:href="#f2_77" transform="matrix(11,0,0,11,571.1,875.1)" />
<use xlink:href="#f2_ay" transform="matrix(11,0,0,11,579.2,875.1)" />
<use xlink:href="#f2_b1" transform="matrix(11,0,0,11,588,875.1)" />
<use xlink:href="#f2_am" transform="matrix(11,0,0,11,593.9,875.1)" />
<use xlink:href="#f2_am" transform="matrix(11,0,0,11,603,875.1)" />
<use xlink:href="#f2_bf" transform="matrix(11,0,0,11,611.8,875.1)" />
<use xlink:href="#f2_b5" transform="matrix(11,0,0,11,622,875.1)" />
<use xlink:href="#f2_co" transform="matrix(11,0,0,11,628.6,875.1)" />
<use xlink:href="#f2_b5" transform="matrix(11,0,0,11,636.3,875.1)" />
<use xlink:href="#f2_bf" transform="matrix(11,0,0,11,642.9,875.1)" />
<use xlink:href="#f2_7z" transform="matrix(11,0,0,11,648.4,875.1)" />
<use xlink:href="#f2_ae" transform="matrix(11,0,0,11,656.8,875.1)" />
<use xlink:href="#f2_nt" transform="matrix(11,0,0,11,670.4,875.1)" />
<use xlink:href="#f2_13" transform="matrix(11,0,0,11,679.2,875.1)" />
<use xlink:href="#f2_b1" transform="matrix(11,0,0,11,686.9,875.1)" />
<use xlink:href="#f2_am" transform="matrix(11,0,0,11,692.7,875.1)" />
<use xlink:href="#f2_ae" transform="matrix(11,0,0,11,701.5,875.1)" />
<use xlink:href="#f2_bf" transform="matrix(11,0,0,11,719.5,875.1)" />
<use xlink:href="#f2_9n" transform="matrix(11,0,0,11,725,875.1)" />
<use xlink:href="#f2_7z" transform="matrix(11,0,0,11,733.8,875.1)" />
</g>
<path fill-rule="evenodd" d="M55,903.4H742.8V882.5H55v20.9Z" class="g0_75" />
<g fill="#000000" >
<use xlink:href="#f2_ay" transform="matrix(11,0,0,11,55,898.6)" />
<use xlink:href="#f2_b1" transform="matrix(11,0,0,11,63.8,898.6)" />
<use xlink:href="#f2_9q" transform="matrix(11,0,0,11,69.7,898.6)" />
<use xlink:href="#f2_ae" transform="matrix(11,0,0,11,73.7,898.6)" />
<use xlink:href="#f2_77" transform="matrix(11,0,0,11,87.3,898.6)" />
<use xlink:href="#f2_b1" transform="matrix(11,0,0,11,95.3,898.6)" />
<use xlink:href="#f2_co" transform="matrix(11,0,0,11,101.2,898.6)" />
<use xlink:href="#f2_b1" transform="matrix(11,0,0,11,113.6,898.6)" />
<use xlink:href="#f2_am" transform="matrix(11,0,0,11,119.5,898.6)" />
<use xlink:href="#f2_am" transform="matrix(11,0,0,11,128.3,898.6)" />
<use xlink:href="#f2_bf" transform="matrix(11,0,0,11,137.1,898.6)" />
<use xlink:href="#f2_am" transform="matrix(11,0,0,11,147.5,898.6)" />
<use xlink:href="#f2_bf" transform="matrix(11,0,0,11,156.3,898.6)" />
<use xlink:href="#f2_9n" transform="matrix(11,0,0,11,161.8,898.6)" />
<use xlink:href="#f2_7z" transform="matrix(11,0,0,11,170.6,898.6)" />
<use xlink:href="#f2_b1" transform="matrix(11,0,0,11,179,898.6)" />
<use xlink:href="#f0_b1" transform="matrix(11,0,0,11,188.9,898.6)" />
<use xlink:href="#f0_am" transform="matrix(11,0,0,11,194.8,898.6)" />
<use xlink:href="#f0_am" transform="matrix(11,0,0,11,203.6,898.6)" />
<use xlink:href="#f0_bf" transform="matrix(11,0,0,11,212.3,898.6)" />
<use xlink:href="#f0_b5" transform="matrix(11,0,0,11,217.8,898.6)" />
<use xlink:href="#f2_b5" transform="matrix(11,0,0,11,228.2,898.6)" />
<use xlink:href="#f2_ay" transform="matrix(11,0,0,11,234.8,898.6)" />
<use xlink:href="#f2_b1" transform="matrix(11,0,0,11,243.6,898.6)" />
<use xlink:href="#f2_am" transform="matrix(11,0,0,11,249.4,898.6)" />
<use xlink:href="#f2_c6" transform="matrix(11,0,0,11,258.2,898.6)" />
<use xlink:href="#f2_bf" transform="matrix(11,0,0,11,267.1,898.6)" />
<use xlink:href="#f2_a8" transform="matrix(11,0,0,11,277.3,898.6)" />
<use xlink:href="#f2_77" transform="matrix(11,0,0,11,281.3,898.6)" />
<use xlink:href="#f2_bf" transform="matrix(11,0,0,11,289.4,898.6)" />
<use xlink:href="#f2_7z" transform="matrix(11,0,0,11,294.9,898.6)" />
<use xlink:href="#f2_b1" transform="matrix(11,0,0,11,303.3,898.6)" />
<use xlink:href="#f2_77" transform="matrix(11,0,0,11,309.2,898.6)" />
<use xlink:href="#f2_a8" transform="matrix(11,0,0,11,317.2,898.6)" />
<use xlink:href="#f2_a8" transform="matrix(11,0,0,11,321.3,898.6)" />
<use xlink:href="#f2_co" transform="matrix(11,0,0,11,325.3,898.6)" />
<use xlink:href="#f2_nt" transform="matrix(11,0,0,11,333,898.6)" />
<use xlink:href="#f2_2t" transform="matrix(11,0,0,11,342.1,898.6)" />
<use xlink:href="#f2_9n" transform="matrix(11,0,0,11,350.2,898.6)" />
<use xlink:href="#f2_9q" transform="matrix(11,0,0,11,359,898.6)" />
<use xlink:href="#f2_b5" transform="matrix(11,0,0,11,363,898.6)" />
<use xlink:href="#f2_b1" transform="matrix(11,0,0,11,374.3,898.6)" />
<use xlink:href="#f2_am" transform="matrix(11,0,0,11,380.2,898.6)" />
<use xlink:href="#f2_am" transform="matrix(11,0,0,11,389,898.6)" />
<use xlink:href="#f2_bf" transform="matrix(11,0,0,11,397.8,898.6)" />
<use xlink:href="#f2_b5" transform="matrix(11,0,0,11,408.1,898.6)" />
<use xlink:href="#f2_co" transform="matrix(11,0,0,11,414.7,898.6)" />
<use xlink:href="#f2_b5" transform="matrix(11,0,0,11,422.4,898.6)" />
<use xlink:href="#f2_bf" transform="matrix(11,0,0,11,429.3,898.6)" />
<use xlink:href="#f2_7z" transform="matrix(11,0,0,11,434.8,898.6)" />
<use xlink:href="#f2_ae" transform="matrix(11,0,0,11,443.2,898.6)" />
<use xlink:href="#f2_9q" transform="matrix(11,0,0,11,461.5,898.6)" />
<use xlink:href="#f2_b5" transform="matrix(11,0,0,11,465.6,898.6)" />
<use xlink:href="#f2_9d" transform="matrix(11,0,0,11,476.9,898.6)" />
<use xlink:href="#f2_7z" transform="matrix(11,0,0,11,485,898.6)" />
<use xlink:href="#f2_af" transform="matrix(11,0,0,11,493.3,898.6)" />
<use xlink:href="#f2_7z" transform="matrix(11,0,0,11,502.2,898.6)" />
<use xlink:href="#f2_b1" transform="matrix(11,0,0,11,510.6,898.6)" />
<use xlink:href="#f2_77" transform="matrix(11,0,0,11,516.5,898.6)" />
<use xlink:href="#f2_a8" transform="matrix(11,0,0,11,524.6,898.6)" />
<use xlink:href="#f2_a8" transform="matrix(11,0,0,11,528.6,898.6)" />
<use xlink:href="#f2_co" transform="matrix(11,0,0,11,532.2,898.6)" />
<use xlink:href="#f2_bf" transform="matrix(11,0,0,11,544.7,898.6)" />
<use xlink:href="#f2_77" transform="matrix(11,0,0,11,550.2,898.6)" />
<use xlink:href="#f2_ay" transform="matrix(11,0,0,11,558.3,898.6)" />
<use xlink:href="#f2_7z" transform="matrix(11,0,0,11,567,898.6)" />
<use xlink:href="#f2_b1" transform="matrix(11,0,0,11,575.4,898.6)" />
<use xlink:href="#f2_9q" transform="matrix(11,0,0,11,581.3,898.6)" />
<use xlink:href="#f2_af" transform="matrix(11,0,0,11,585.4,898.6)" />
<use xlink:href="#f2_9d" transform="matrix(11,0,0,11,594.2,898.6)" />
<use xlink:href="#f2_9q" transform="matrix(11,0,0,11,607,898.6)" />
<use xlink:href="#f2_af" transform="matrix(11,0,0,11,611,898.6)" />
<use xlink:href="#f2_b5" transform="matrix(11,0,0,11,624.5,898.6)" />
<use xlink:href="#f2_9n" transform="matrix(11,0,0,11,631.1,898.6)" />
<use xlink:href="#f2_77" transform="matrix(11,0,0,11,640,898.6)" />
<use xlink:href="#f2_ay" transform="matrix(11,0,0,11,648,898.6)" />
<use xlink:href="#f2_7z" transform="matrix(11,0,0,11,656.8,898.6)" />
<use xlink:href="#f2_77" transform="matrix(11,0,0,11,670,898.6)" />
<use xlink:href="#f2_af" transform="matrix(11,0,0,11,678.1,898.6)" />
<use xlink:href="#f2_7v" transform="matrix(11,0,0,11,686.9,898.6)" />
<use xlink:href="#f2_9d" transform="matrix(11,0,0,11,700.4,898.6)" />
<use xlink:href="#f2_b1" transform="matrix(11,0,0,11,708.5,898.6)" />
<use xlink:href="#f2_am" transform="matrix(11,0,0,11,714.4,898.6)" />
<use xlink:href="#f2_ci" transform="matrix(11,0,0,11,723.1,898.6)" />
<use xlink:href="#f2_b5" transform="matrix(11,0,0,11,735.2,898.6)" />
</g>
<path fill-rule="evenodd" d="M55,926.9H385.6V906.3H55v20.6Z" class="g0_75" />
<g fill="#000000" >
<use xlink:href="#f2_7v" transform="matrix(11,0,0,11,55,922.5)" />
<use xlink:href="#f2_9q" transform="matrix(11,0,0,11,63.8,922.5)" />
<use xlink:href="#f2_b1" transform="matrix(11,0,0,11,67.9,922.5)" />
<use xlink:href="#f2_7z" transform="matrix(11,0,0,11,73.7,922.5)" />
<use xlink:href="#f2_7l" transform="matrix(11,0,0,11,82.1,922.5)" />
<use xlink:href="#f2_bf" transform="matrix(11,0,0,11,89.1,922.5)" />
<use xlink:href="#f2_a8" transform="matrix(11,0,0,11,94.6,922.5)" />
<use xlink:href="#f2_co" transform="matrix(11,0,0,11,98.6,922.5)" />
<use xlink:href="#f2_7v" transform="matrix(11,0,0,11,110,922.5)" />
<use xlink:href="#f2_am" transform="matrix(11,0,0,11,118.8,922.5)" />
<use xlink:href="#f2_ci" transform="matrix(11,0,0,11,127.6,922.5)" />
<use xlink:href="#f2_af" transform="matrix(11,0,0,11,139.7,922.5)" />
<use xlink:href="#f2_ci" transform="matrix(11,0,0,11,148.5,922.5)" />
<use xlink:href="#f2_77" transform="matrix(11,0,0,11,160.6,922.5)" />
<use xlink:href="#f2_b1" transform="matrix(11,0,0,11,168.7,922.5)" />
<use xlink:href="#f2_7v" transform="matrix(11,0,0,11,174.5,922.5)" />
</g>
<g fill="#535353" >
<use xlink:href="#f3_i" transform="matrix(11,0,0,11,183.4,922.5)" />
</g>
<g fill="#000000" >
<use xlink:href="#f2_1c" transform="matrix(11,0,0,11,192.9,922.5)" />
<use xlink:href="#f2_bf" transform="matrix(11,0,0,11,197.3,922.5)" />
<use xlink:href="#f2_9q" transform="matrix(11,0,0,11,206.5,922.5)" />
<use xlink:href="#f2_b5" transform="matrix(11,0,0,11,210.5,922.5)" />
<use xlink:href="#f2_7l" transform="matrix(11,0,0,11,220.8,922.5)" />
<use xlink:href="#f2_am" transform="matrix(11,0,0,11,227.7,922.5)" />
<use xlink:href="#f2_ae" transform="matrix(11,0,0,11,236.5,922.5)" />
<use xlink:href="#f2_ae" transform="matrix(11,0,0,11,250.1,922.5)" />
<use xlink:href="#f2_am" transform="matrix(11,0,0,11,263.6,922.5)" />
<use xlink:href="#f2_af" transform="matrix(11,0,0,11,272.4,922.5)" />
<use xlink:href="#f2_9q" transform="matrix(11,0,0,11,284.9,922.5)" />
<use xlink:href="#f2_af" transform="matrix(11,0,0,11,288.9,922.5)" />
<use xlink:href="#f2_7v" transform="matrix(11,0,0,11,301.4,922.5)" />
<use xlink:href="#f2_9q" transform="matrix(11,0,0,11,310.2,922.5)" />
<use xlink:href="#f2_7l" transform="matrix(11,0,0,11,314.2,922.5)" />
<use xlink:href="#f2_am" transform="matrix(11,0,0,11,321.2,922.5)" />
<use xlink:href="#f2_bf" transform="matrix(11,0,0,11,330,922.5)" />
<use xlink:href="#f2_ay" transform="matrix(11,0,0,11,339.1,922.5)" />
<use xlink:href="#f2_a8" transform="matrix(11,0,0,11,347.9,922.5)" />
<use xlink:href="#f2_77" transform="matrix(11,0,0,11,351.9,922.5)" />
<use xlink:href="#f2_af" transform="matrix(11,0,0,11,360,922.5)" />
<use xlink:href="#f2_bf" transform="matrix(11,0,0,11,368.8,922.5)" />
<use xlink:href="#f2_b5" transform="matrix(11,0,0,11,374.3,922.5)" />
<use xlink:href="#f2_nt" transform="matrix(11,0,0,11,380.9,922.5)" />
</g>
<path fill-rule="evenodd" d="M55,965.7H742.8V945.2H55v20.5Z" class="g0_75" />
<g fill="#000000" >
<use xlink:href="#f1_13" transform="matrix(11,0,0,11,55,961.3)" />
<use xlink:href="#f1_9q" transform="matrix(11,0,0,11,62.8,961.3)" />
<use xlink:href="#f1_7k" transform="matrix(11,0,0,11,66.8,961.3)" />
<use xlink:href="#f1_b1" transform="matrix(11,0,0,11,75.9,961.3)" />
<use xlink:href="#f1_am" transform="matrix(11,0,0,11,81.8,961.3)" />
<use xlink:href="#f1_c6" transform="matrix(11,0,0,11,90.9,961.3)" />
<use xlink:href="#f1_b5" transform="matrix(11,0,0,11,100.1,961.3)" />
<use xlink:href="#f1_b1" transform="matrix(11,0,0,11,110.7,961.3)" />
<use xlink:href="#f1_am" transform="matrix(11,0,0,11,116.5,961.3)" />
<use xlink:href="#f1_am" transform="matrix(11,0,0,11,125.7,961.3)" />
<use xlink:href="#f1_bf" transform="matrix(11,0,0,11,134.8,961.3)" />
<use xlink:href="#f1_ns" transform="matrix(11,0,0,11,140.7,961.3)" />
</g>
<g fill="#212121" >
<use xlink:href="#f2_1c" transform="matrix(11,0,0,11,149.7,961.3)" />
<use xlink:href="#f2_bf" transform="matrix(11,0,0,11,154.1,961.3)" />
<use xlink:href="#f2_7l" transform="matrix(11,0,0,11,163.6,961.3)" />
<use xlink:href="#f2_am" transform="matrix(11,0,0,11,170.5,961.3)" />
<use xlink:href="#f2_af" transform="matrix(11,0,0,11,179.3,961.3)" />
<use xlink:href="#f2_b5" transform="matrix(11,0,0,11,188.1,961.3)" />
<use xlink:href="#f2_9q" transform="matrix(11,0,0,11,194.7,961.3)" />
<use xlink:href="#f2_b5" transform="matrix(11,0,0,11,198.8,961.3)" />
<use xlink:href="#f2_bf" transform="matrix(11,0,0,11,205.4,961.3)" />
<use xlink:href="#f2_b5" transform="matrix(11,0,0,11,210.8,961.3)" />
<use xlink:href="#f2_am" transform="matrix(11,0,0,11,221.5,961.3)" />
<use xlink:href="#f2_89" transform="matrix(11,0,0,11,230.3,961.3)" />
<use xlink:href="#f2_bf" transform="matrix(11,0,0,11,239.5,961.3)" />
<use xlink:href="#f2_9n" transform="matrix(11,0,0,11,245,961.3)" />
<use xlink:href="#f2_9q" transform="matrix(11,0,0,11,253.8,961.3)" />
<use xlink:href="#f2_af" transform="matrix(11,0,0,11,257.9,961.3)" />
<use xlink:href="#f2_nq" transform="matrix(11,0,0,11,266.7,961.3)" />
<use xlink:href="#f2_ae" transform="matrix(11,0,0,11,275.1,961.3)" />
<use xlink:href="#f2_am" transform="matrix(11,0,0,11,288.6,961.3)" />
<use xlink:href="#f2_7v" transform="matrix(11,0,0,11,297.4,961.3)" />
<use xlink:href="#f2_7z" transform="matrix(11,0,0,11,306.2,961.3)" />
<use xlink:href="#f2_b1" transform="matrix(11,0,0,11,314.6,961.3)" />
<use xlink:href="#f2_77" transform="matrix(11,0,0,11,320.5,961.3)" />
<use xlink:href="#f2_bf" transform="matrix(11,0,0,11,328.6,961.3)" />
<use xlink:href="#f2_7z" transform="matrix(11,0,0,11,334.1,961.3)" />
<use xlink:href="#f2_a8" transform="matrix(11,0,0,11,342.5,961.3)" />
<use xlink:href="#f2_co" transform="matrix(11,0,0,11,346.5,961.3)" />
<use xlink:href="#f2_7k" transform="matrix(11,0,0,11,358.2,961.3)" />
<use xlink:href="#f2_b1" transform="matrix(11,0,0,11,367,961.3)" />
<use xlink:href="#f2_77" transform="matrix(11,0,0,11,372.9,961.3)" />
<use xlink:href="#f2_af" transform="matrix(11,0,0,11,381,961.3)" />
<use xlink:href="#f2_7l" transform="matrix(11,0,0,11,389.8,961.3)" />
<use xlink:href="#f2_9n" transform="matrix(11,0,0,11,396.9,961.3)" />
<use xlink:href="#f2_9q" transform="matrix(11,0,0,11,405.7,961.3)" />
<use xlink:href="#f2_af" transform="matrix(11,0,0,11,409.7,961.3)" />
<use xlink:href="#f2_9d" transform="matrix(11,0,0,11,418.5,961.3)" />
<use xlink:href="#f2_b1" transform="matrix(11,0,0,11,430.3,961.3)" />
<use xlink:href="#f2_am" transform="matrix(11,0,0,11,436.2,961.3)" />
<use xlink:href="#f2_am" transform="matrix(11,0,0,11,445,961.3)" />
<use xlink:href="#f2_bf" transform="matrix(11,0,0,11,453.8,961.3)" />
<use xlink:href="#f2_b5" transform="matrix(11,0,0,11,459.3,961.3)" />
<use xlink:href="#f2_9d" transform="matrix(11,0,0,11,469.5,961.3)" />
<use xlink:href="#f2_b1" transform="matrix(11,0,0,11,477.6,961.3)" />
<use xlink:href="#f2_am" transform="matrix(11,0,0,11,483.5,961.3)" />
<use xlink:href="#f2_ci" transform="matrix(11,0,0,11,492.3,961.3)" />
<use xlink:href="#f2_9q" transform="matrix(11,0,0,11,504.3,961.3)" />
<use xlink:href="#f2_af" transform="matrix(11,0,0,11,508.4,961.3)" />
<use xlink:href="#f2_9d" transform="matrix(11,0,0,11,517.2,961.3)" />
<use xlink:href="#f2_89" transform="matrix(11,0,0,11,529.3,961.3)" />
<use xlink:href="#f2_b1" transform="matrix(11,0,0,11,534.4,961.3)" />
<use xlink:href="#f2_am" transform="matrix(11,0,0,11,540.3,961.3)" />
<use xlink:href="#f2_ae" transform="matrix(11,0,0,11,549.1,961.3)" />
<use xlink:href="#f2_bf" transform="matrix(11,0,0,11,566.6,961.3)" />
<use xlink:href="#f2_9n" transform="matrix(11,0,0,11,572.1,961.3)" />
<use xlink:href="#f2_7z" transform="matrix(11,0,0,11,580.9,961.3)" />
<use xlink:href="#f2_7k" transform="matrix(11,0,0,11,593.5,961.3)" />
<use xlink:href="#f2_77" transform="matrix(11,0,0,11,602.3,961.3)" />
<use xlink:href="#f2_b5" transform="matrix(11,0,0,11,610.4,961.3)" />
<use xlink:href="#f2_7z" transform="matrix(11,0,0,11,617,961.3)" />
<use xlink:href="#f2_am" transform="matrix(11,0,0,11,629.5,961.3)" />
<use xlink:href="#f2_89" transform="matrix(11,0,0,11,638.3,961.3)" />
<use xlink:href="#f2_bf" transform="matrix(11,0,0,11,647.8,961.3)" />
<use xlink:href="#f2_9n" transform="matrix(11,0,0,11,653.3,961.3)" />
<use xlink:href="#f2_7z" transform="matrix(11,0,0,11,662.1,961.3)" />
<use xlink:href="#f2_b5" transform="matrix(11,0,0,11,674.6,961.3)" />
<use xlink:href="#f2_bf" transform="matrix(11,0,0,11,681.2,961.3)" />
<use xlink:href="#f2_7z" transform="matrix(11,0,0,11,686.7,961.3)" />
<use xlink:href="#f2_ae" transform="matrix(11,0,0,11,695.1,961.3)" />
<use xlink:href="#f2_nt" transform="matrix(11,0,0,11,708.7,961.3)" />
<use xlink:href="#f2_2t" transform="matrix(11,0,0,11,717.2,961.3)" />
<use xlink:href="#f2_9n" transform="matrix(11,0,0,11,725.2,961.3)" />
<use xlink:href="#f2_7z" transform="matrix(11,0,0,11,734,961.3)" />
</g>
<path fill-rule="evenodd" d="M55,989.2H742.8V968.7H55v20.5Z" class="g0_75" />
<g fill="#212121" >
<use xlink:href="#f2_ay" transform="matrix(11,0,0,11,55,984.8)" />
<use xlink:href="#f2_b1" transform="matrix(11,0,0,11,63.8,984.8)" />
<use xlink:href="#f2_9q" transform="matrix(11,0,0,11,69.7,984.8)" />
<use xlink:href="#f2_ae" transform="matrix(11,0,0,11,73.7,984.8)" />
<use xlink:href="#f2_77" transform="matrix(11,0,0,11,87.3,984.8)" />
<use xlink:href="#f2_b1" transform="matrix(11,0,0,11,95.3,984.8)" />
<use xlink:href="#f2_co" transform="matrix(11,0,0,11,101.2,984.8)" />
<use xlink:href="#f2_b1" transform="matrix(11,0,0,11,113.6,984.8)" />
<use xlink:href="#f2_am" transform="matrix(11,0,0,11,119.5,984.8)" />
<use xlink:href="#f2_am" transform="matrix(11,0,0,11,128.3,984.8)" />
<use xlink:href="#f2_bf" transform="matrix(11,0,0,11,137.1,984.8)" />
<use xlink:href="#f2_9q" transform="matrix(11,0,0,11,147.4,984.8)" />
<use xlink:href="#f2_b5" transform="matrix(11,0,0,11,151.4,984.8)" />
<use xlink:href="#f2_af" transform="matrix(11,0,0,11,162.7,984.8)" />
<use xlink:href="#f2_am" transform="matrix(11,0,0,11,171.6,984.8)" />
<use xlink:href="#f2_bf" transform="matrix(11,0,0,11,180.4,984.8)" />
<use xlink:href="#f2_ay" transform="matrix(11,0,0,11,190.6,984.8)" />
<use xlink:href="#f2_b1" transform="matrix(11,0,0,11,199.4,984.8)" />
<use xlink:href="#f2_am" transform="matrix(11,0,0,11,205.3,984.8)" />
<use xlink:href="#f2_ae" transform="matrix(11,0,0,11,214.1,984.8)" />
<use xlink:href="#f2_9q" transform="matrix(11,0,0,11,227.6,984.8)" />
<use xlink:href="#f2_af" transform="matrix(11,0,0,11,231.6,984.8)" />
<use xlink:href="#f2_7z" transform="matrix(11,0,0,11,240.5,984.8)" />
<use xlink:href="#f2_af" transform="matrix(11,0,0,11,248.9,984.8)" />
<use xlink:href="#f2_bf" transform="matrix(11,0,0,11,257.7,984.8)" />
<use xlink:href="#f2_77" transform="matrix(11,0,0,11,267.9,984.8)" />
<use xlink:href="#f2_af" transform="matrix(11,0,0,11,276,984.8)" />
<use xlink:href="#f2_7v" transform="matrix(11,0,0,11,284.8,984.8)" />
<use xlink:href="#f2_9q" transform="matrix(11,0,0,11,298.4,984.8)" />
<use xlink:href="#f2_b5" transform="matrix(11,0,0,11,302.4,984.8)" />
<use xlink:href="#f2_b1" transform="matrix(11,0,0,11,313.7,984.8)" />
<use xlink:href="#f2_7z" transform="matrix(11,0,0,11,319.6,984.8)" />
<use xlink:href="#f2_ay" transform="matrix(11,0,0,11,328,984.8)" />
<use xlink:href="#f2_a8" transform="matrix(11,0,0,11,336.5,984.8)" />
<use xlink:href="#f2_77" transform="matrix(11,0,0,11,340.5,984.8)" />
<use xlink:href="#f2_7l" transform="matrix(11,0,0,11,348.6,984.8)" />
<use xlink:href="#f2_7z" transform="matrix(11,0,0,11,355.5,984.8)" />
<use xlink:href="#f2_7v" transform="matrix(11,0,0,11,363.9,984.8)" />
<use xlink:href="#f2_7k" transform="matrix(11,0,0,11,377.5,984.8)" />
<use xlink:href="#f2_co" transform="matrix(11,0,0,11,386.3,984.8)" />
<use xlink:href="#f2_77" transform="matrix(11,0,0,11,398.7,984.8)" />
<use xlink:href="#f2_a8" transform="matrix(11,0,0,11,411.6,984.8)" />
<use xlink:href="#f2_77" transform="matrix(11,0,0,11,415.6,984.8)" />
<use xlink:href="#f2_b1" transform="matrix(11,0,0,11,423.7,984.8)" />
<use xlink:href="#f2_9d" transform="matrix(11,0,0,11,429.1,984.8)" />
<use xlink:href="#f2_7z" transform="matrix(11,0,0,11,437.2,984.8)" />
<use xlink:href="#f2_af" transform="matrix(11,0,0,11,450.4,984.8)" />
<use xlink:href="#f2_c6" transform="matrix(11,0,0,11,459.2,984.8)" />
<use xlink:href="#f2_ae" transform="matrix(11,0,0,11,468,984.8)" />
<use xlink:href="#f2_7k" transform="matrix(11,0,0,11,481.5,984.8)" />
<use xlink:href="#f2_7z" transform="matrix(11,0,0,11,490.3,984.8)" />
<use xlink:href="#f2_b1" transform="matrix(11,0,0,11,498.7,984.8)" />
<use xlink:href="#f2_am" transform="matrix(11,0,0,11,509.4,984.8)" />
<use xlink:href="#f2_89" transform="matrix(11,0,0,11,518.2,984.8)" />
<use xlink:href="#f2_b1" transform="matrix(11,0,0,11,528.1,984.8)" />
<use xlink:href="#f2_am" transform="matrix(11,0,0,11,533.9,984.8)" />
<use xlink:href="#f2_am" transform="matrix(11,0,0,11,542.7,984.8)" />
<use xlink:href="#f2_bf" transform="matrix(11,0,0,11,551.5,984.8)" />
<use xlink:href="#f2_b5" transform="matrix(11,0,0,11,557,984.8)" />
<use xlink:href="#f2_nt" transform="matrix(11,0,0,11,563.6,984.8)" />
<use xlink:href="#f2_2t" transform="matrix(11,0,0,11,573.4,984.8)" />
<use xlink:href="#f2_9n" transform="matrix(11,0,0,11,581.4,984.8)" />
<use xlink:href="#f2_7z" transform="matrix(11,0,0,11,590.2,984.8)" />
<use xlink:href="#f2_89" transform="matrix(11,0,0,11,602.3,984.8)" />
<use xlink:href="#f2_9q" transform="matrix(11,0,0,11,607.5,984.8)" />
<use xlink:href="#f2_7k" transform="matrix(11,0,0,11,611.5,984.8)" />
<use xlink:href="#f2_b1" transform="matrix(11,0,0,11,620.3,984.8)" />
<use xlink:href="#f2_am" transform="matrix(11,0,0,11,626.2,984.8)" />
<use xlink:href="#f2_c6" transform="matrix(11,0,0,11,634.9,984.8)" />
<use xlink:href="#f2_b5" transform="matrix(11,0,0,11,643.8,984.8)" />
<use xlink:href="#f2_b1" transform="matrix(11,0,0,11,655.1,984.8)" />
<use xlink:href="#f2_am" transform="matrix(11,0,0,11,661,984.8)" />
<use xlink:href="#f2_am" transform="matrix(11,0,0,11,669.8,984.8)" />
<use xlink:href="#f2_bf" transform="matrix(11,0,0,11,678.6,984.8)" />
<use xlink:href="#f2_b5" transform="matrix(11,0,0,11,687.8,984.8)" />
<use xlink:href="#f2_co" transform="matrix(11,0,0,11,694.4,984.8)" />
<use xlink:href="#f2_b5" transform="matrix(11,0,0,11,702.1,984.8)" />
<use xlink:href="#f2_bf" transform="matrix(11,0,0,11,708.7,984.8)" />
<use xlink:href="#f2_7z" transform="matrix(11,0,0,11,714.2,984.8)" />
<use xlink:href="#f2_ae" transform="matrix(11,0,0,11,722.6,984.8)" />
<use xlink:href="#f2_b5" transform="matrix(11,0,0,11,736.1,984.8)" />
</g>
<path fill-rule="evenodd" d="M55,1013H742.8V992.1H55V1013Z" class="g0_75" />
<g fill="#212121" >
<use xlink:href="#f2_77" transform="matrix(11,0,0,11,55,1008.3)" />
<use xlink:href="#f2_ay" transform="matrix(11,0,0,11,63.1,1008.3)" />
<use xlink:href="#f2_ay" transform="matrix(11,0,0,11,71.9,1008.3)" />
<use xlink:href="#f2_7z" transform="matrix(11,0,0,11,80.7,1008.3)" />
<use xlink:href="#f2_77" transform="matrix(11,0,0,11,89.1,1008.3)" />
<use xlink:href="#f2_b1" transform="matrix(11,0,0,11,97.2,1008.3)" />
<use xlink:href="#f2_b5" transform="matrix(11,0,0,11,103.1,1008.3)" />
<use xlink:href="#f2_77" transform="matrix(11,0,0,11,118.8,1008.3)" />
<use xlink:href="#f2_b5" transform="matrix(11,0,0,11,126.9,1008.3)" />
<use xlink:href="#f2_77" transform="matrix(11,0,0,11,142.6,1008.3)" />
<use xlink:href="#f2_bf" transform="matrix(11,0,0,11,160.2,1008.3)" />
<use xlink:href="#f2_9n" transform="matrix(11,0,0,11,165.7,1008.3)" />
<use xlink:href="#f2_9q" transform="matrix(11,0,0,11,174.5,1008.3)" />
<use xlink:href="#f2_7l" transform="matrix(11,0,0,11,178.5,1008.3)" />
<use xlink:href="#f2_a5" transform="matrix(11,0,0,11,185.5,1008.3)" />
<use xlink:href="#f2_bf" transform="matrix(11,0,0,11,202.4,1008.3)" />
<use xlink:href="#f2_c6" transform="matrix(11,0,0,11,207.8,1008.3)" />
<use xlink:href="#f2_89" transform="matrix(11,0,0,11,216.7,1008.3)" />
<use xlink:href="#f2_bf" transform="matrix(11,0,0,11,222.1,1008.3)" />
<use xlink:href="#f2_am" transform="matrix(11,0,0,11,237.1,1008.3)" />
<use xlink:href="#f2_89" transform="matrix(11,0,0,11,246,1008.3)" />
<use xlink:href="#f2_b1" transform="matrix(11,0,0,11,260.2,1008.3)" />
<use xlink:href="#f2_am" transform="matrix(11,0,0,11,266.1,1008.3)" />
<use xlink:href="#f2_am" transform="matrix(11,0,0,11,274.9,1008.3)" />
<use xlink:href="#f2_bf" transform="matrix(11,0,0,11,284.1,1008.3)" />
<use xlink:href="#f2_b5" transform="matrix(11,0,0,11,289.6,1008.3)" />
<use xlink:href="#f2_89" transform="matrix(11,0,0,11,305.3,1008.3)" />
<use xlink:href="#f2_am" transform="matrix(11,0,0,11,310.4,1008.3)" />
<use xlink:href="#f2_b1" transform="matrix(11,0,0,11,319.2,1008.3)" />
<use xlink:href="#f2_ae" transform="matrix(11,0,0,11,325.1,1008.3)" />
<use xlink:href="#f2_9q" transform="matrix(11,0,0,11,338.6,1008.3)" />
<use xlink:href="#f2_af" transform="matrix(11,0,0,11,342.7,1008.3)" />
<use xlink:href="#f2_9d" transform="matrix(11,0,0,11,351.5,1008.3)" />
<use xlink:href="#f2_77" transform="matrix(11,0,0,11,368.7,1008.3)" />
<use xlink:href="#f2_ae" transform="matrix(11,0,0,11,385.9,1008.3)" />
<use xlink:href="#f2_77" transform="matrix(11,0,0,11,399.4,1008.3)" />
<use xlink:href="#f2_bf" transform="matrix(11,0,0,11,407.5,1008.3)" />
<use xlink:href="#f2_oj" transform="matrix(11,0,0,11,413.4,1008.3)" />
<use xlink:href="#f2_a8" transform="matrix(11,0,0,11,418.6,1008.3)" />
<use xlink:href="#f2_9q" transform="matrix(11,0,0,11,422.6,1008.3)" />
<use xlink:href="#f2_a5" transform="matrix(11,0,0,11,426.6,1008.3)" />
<use xlink:href="#f2_7z" transform="matrix(11,0,0,11,434.3,1008.3)" />
<use xlink:href="#f2_b5" transform="matrix(11,0,0,11,451.8,1008.3)" />
<use xlink:href="#f2_bf" transform="matrix(11,0,0,11,458.4,1008.3)" />
<use xlink:href="#f2_b1" transform="matrix(11,0,0,11,463.9,1008.3)" />
<use xlink:href="#f2_c6" transform="matrix(11,0,0,11,469.8,1008.3)" />
<use xlink:href="#f2_7l" transform="matrix(11,0,0,11,478.6,1008.3)" />
<use xlink:href="#f2_bf" transform="matrix(11,0,0,11,485.6,1008.3)" />
<use xlink:href="#f2_c6" transform="matrix(11,0,0,11,491.1,1008.3)" />
<use xlink:href="#f2_b1" transform="matrix(11,0,0,11,499.9,1008.3)" />
<use xlink:href="#f2_7z" transform="matrix(11,0,0,11,505.8,1008.3)" />
<use xlink:href="#f2_77" transform="matrix(11,0,0,11,523.7,1008.3)" />
<use xlink:href="#f2_bf" transform="matrix(11,0,0,11,531.8,1008.3)" />
<use xlink:href="#f2_ae" transform="matrix(11,0,0,11,546.7,1008.3)" />
<use xlink:href="#f2_77" transform="matrix(11,0,0,11,560.3,1008.3)" />
<use xlink:href="#f2_bf" transform="matrix(11,0,0,11,568.4,1008.3)" />
<use xlink:href="#f2_c6" transform="matrix(11,0,0,11,573.8,1008.3)" />
<use xlink:href="#f2_b1" transform="matrix(11,0,0,11,582.6,1008.3)" />
<use xlink:href="#f2_9q" transform="matrix(11,0,0,11,588.5,1008.3)" />
<use xlink:href="#f2_bf" transform="matrix(11,0,0,11,592.5,1008.3)" />
<use xlink:href="#f2_co" transform="matrix(11,0,0,11,598,1008.3)" />
<use xlink:href="#f2_nt" transform="matrix(11,0,0,11,605.7,1008.3)" />
<use xlink:href="#f2_1c" transform="matrix(11,0,0,11,619.2,1008.3)" />
<use xlink:href="#f2_bf" transform="matrix(11,0,0,11,623.6,1008.3)" />
<use xlink:href="#f2_9q" transform="matrix(11,0,0,11,638.7,1008.3)" />
<use xlink:href="#f2_b5" transform="matrix(11,0,0,11,642.7,1008.3)" />
<use xlink:href="#f2_c6" transform="matrix(11,0,0,11,658.4,1008.3)" />
<use xlink:href="#f2_af" transform="matrix(11,0,0,11,667.2,1008.3)" />
<use xlink:href="#f2_9q" transform="matrix(11,0,0,11,676,1008.3)" />
<use xlink:href="#f2_ch" transform="matrix(11,0,0,11,680,1008.3)" />
<use xlink:href="#f2_7z" transform="matrix(11,0,0,11,687.7,1008.3)" />
<use xlink:href="#f2_b1" transform="matrix(11,0,0,11,696.1,1008.3)" />
<use xlink:href="#f2_b5" transform="matrix(11,0,0,11,702,1008.3)" />
<use xlink:href="#f2_77" transform="matrix(11,0,0,11,708.6,1008.3)" />
<use xlink:href="#f2_a8" transform="matrix(11,0,0,11,716.7,1008.3)" />
<use xlink:href="#f2_9q" transform="matrix(11,0,0,11,729.9,1008.3)" />
<use xlink:href="#f2_af" transform="matrix(11,0,0,11,733.9,1008.3)" />
</g>
<path fill-rule="evenodd" d="M55,1036.5H305.2V1016H55v20.5Z" class="g0_75" />
<g fill="#212121" >
<use xlink:href="#f2_ae" transform="matrix(11,0,0,11,55,1032.1)" />
<use xlink:href="#f2_am" transform="matrix(11,0,0,11,68.6,1032.1)" />
<use xlink:href="#f2_af" transform="matrix(11,0,0,11,77.4,1032.1)" />
<use xlink:href="#f2_am" transform="matrix(11,0,0,11,86.2,1032.1)" />
<use xlink:href="#f2_7l" transform="matrix(11,0,0,11,95,1032.1)" />
<use xlink:href="#f2_am" transform="matrix(11,0,0,11,102,1032.1)" />
<use xlink:href="#f2_bf" transform="matrix(11,0,0,11,110.8,1032.1)" />
<use xlink:href="#f2_co" transform="matrix(11,0,0,11,116.3,1032.1)" />
<use xlink:href="#f2_a8" transform="matrix(11,0,0,11,124,1032.1)" />
<use xlink:href="#f2_7z" transform="matrix(11,0,0,11,128,1032.1)" />
<use xlink:href="#f2_7v" transform="matrix(11,0,0,11,136.4,1032.1)" />
<use xlink:href="#f2_am" transform="matrix(11,0,0,11,145.2,1032.1)" />
<use xlink:href="#f2_af" transform="matrix(11,0,0,11,154,1032.1)" />
<use xlink:href="#f2_am" transform="matrix(11,0,0,11,162.8,1032.1)" />
<use xlink:href="#f2_c6" transform="matrix(11,0,0,11,171.6,1032.1)" />
<use xlink:href="#f2_b5" transform="matrix(11,0,0,11,180.4,1032.1)" />
<use xlink:href="#f2_ay" transform="matrix(11,0,0,11,190.7,1032.1)" />
<use xlink:href="#f2_a8" transform="matrix(11,0,0,11,199.5,1032.1)" />
<use xlink:href="#f2_77" transform="matrix(11,0,0,11,203.5,1032.1)" />
<use xlink:href="#f2_af" transform="matrix(11,0,0,11,211.6,1032.1)" />
<use xlink:href="#f2_bf" transform="matrix(11,0,0,11,220.4,1032.1)" />
<use xlink:href="#f2_b5" transform="matrix(11,0,0,11,225.9,1032.1)" />
<use xlink:href="#f2_77" transform="matrix(11,0,0,11,236.1,1032.1)" />
<use xlink:href="#f2_af" transform="matrix(11,0,0,11,244.2,1032.1)" />
<use xlink:href="#f2_7v" transform="matrix(11,0,0,11,253,1032.1)" />
<use xlink:href="#f2_89" transform="matrix(11,0,0,11,265.8,1032.1)" />
<use xlink:href="#f2_7z" transform="matrix(11,0,0,11,270.9,1032.1)" />
<use xlink:href="#f2_b1" transform="matrix(11,0,0,11,279.3,1032.1)" />
<use xlink:href="#f2_af" transform="matrix(11,0,0,11,285.2,1032.1)" />
<use xlink:href="#f2_b5" transform="matrix(11,0,0,11,294,1032.1)" />
<use xlink:href="#f2_nt" transform="matrix(11,0,0,11,300.6,1032.1)" />
</g>
<image preserveAspectRatio="none" x="57" y="55" width="310" height="264" xlink:href="img/1.png" />
<image preserveAspectRatio="none" x="55" y="467" width="575" height="391" xlink:href="img/2.png" />
<g fill="#000000" >
<use xlink:href="#f4_m" transform="matrix(8,0,0,8,680.7,1121.9)" />
</g>
<defs>
<path d="M124,-6c0,0,-21,0,-35,3C89,-3,76,0,68,6c0,0,-7,7,-10,17c0,0,-3,10,-3,23c0,0,0,12,2,27c0,0,1,14,6,28c0,0,4,15,9,27c0,0,6,12,15,21c0,0,8,8,24,13c0,0,15,5,43,5c0,0,22,0,35,-4c0,0,13,-3,20,-10c0,0,8,-7,10,-17c0,0,3,-10,3,-22c0,0,0,-10,-2,-24c0,0,-2,-15,-5,-30c0,0,-4,-15,-10,-27c0,0,-5,-13,-14,-22c0,0,-9,-9,-26,-12c0,0,-16,-5,-41,-5Z" 
id="f0_nt"
transform="scale(0.001,-0.001)" />

<path d="M72,-238c0,0,-9,0,-17,3c0,0,-7,3,-13,9c0,0,-5,6,-7,16c0,0,-3,10,1,25L271,991c0,0,6,29,23,41c0,0,18,11,36,11H520c0,0,15,0,15,-21c0,0,0,-4,-1,-11c0,0,-1,-6,-3,-14c0,0,-1,-7,-4,-16c0,0,-3,-8,-6,-14c0,0,-4,-6,-9,-11c0,0,-5,-4,-11,-4H380L160,-148H281c0,0,8,0,12,-5c0,0,3,-6,3,-15c0,0,0,-6,0,-12c0,0,-1,-7,-3,-15c0,0,-2,-8,-5,-15c0,0,-2,-8,-6,-15c0,0,-4,-6,-8,-9c0,0,-5,-4,-11,-4Z" 
id="f0_ox"
transform="scale(0.001,-0.001)" />

<path d="M122,-4c0,0,-19,0,-31,2C91,-2,79,0,72,1c0,0,-6,3,-9,8c0,0,-2,4,0,9L247,947c0,0,1,5,6,10c0,0,5,4,13,7c0,0,8,2,21,4c0,0,12,2,30,2c0,0,18,0,30,-2c0,0,12,-2,19,-4c0,0,7,-3,9,-7c0,0,2,-5,1,-10L191,18c0,0,-1,-5,-5,-9c0,0,-4,-5,-12,-8c0,0,-9,-1,-21,-3c0,0,-13,-2,-31,-2Z" 
id="f0_1c"
transform="scale(0.001,-0.001)" />

<path d="M105,-4c0,0,-18,0,-30,2c0,0,-11,1,-18,3c0,0,-6,3,-8,7c0,0,-2,4,0,10L184,690c0,0,1,6,4,10c0,0,3,5,10,8c0,0,7,3,18,4c0,0,11,1,26,1c0,0,15,0,26,-1c0,0,10,-1,15,-4c0,0,6,-3,7,-8c0,0,2,-4,1,-10L266,562c0,0,11,26,37,54c0,0,25,29,60,53c0,0,34,24,75,40c0,0,40,16,83,16c0,0,45,0,77,-13c0,0,32,-12,52,-34c0,0,21,-21,30,-51c0,0,10,-30,12,-65c0,0,15,26,41,55c0,0,27,29,61,52c0,0,34,24,74,40c0,0,41,16,83,16c0,0,49,0,83,-15c0,0,34,-14,54,-39c0,0,21,-24,30,-57c0,0,9,-33,9,-72c0,0,0,-27,-3,-52c0,0,-3,-26,-8,-52L1032,18c0,0,0,-6,-4,-10c0,0,-4,-4,-12,-7c0,0,-8,-2,-20,-3c0,0,-13,-2,-31,-2c0,0,-17,0,-29,2c0,0,-11,1,-17,3c0,0,-7,3,-9,7c0,0,-2,4,-1,10l82,415c0,0,4,22,7,41c0,0,2,20,2,40c0,0,0,48,-18,76c0,0,-18,29,-63,29c0,0,-38,0,-78,-23c0,0,-40,-23,-75,-63c0,0,-36,-40,-64,-95c0,0,-27,-55,-40,-120L602,18c0,0,-2,-6,-5,-10c0,0,-4,-4,-12,-7c0,0,-8,-2,-20,-3c0,0,-12,-2,-30,-2c0,0,-18,0,-30,2c0,0,-11,1,-17,3c0,0,-6,3,-8,7c0,0,-3,4,-2,10l83,415c0,0,5,23,7,44c0,0,2,22,2,41c0,0,0,46,-18,73c0,0,-19,28,-64,28c0,0,-38,0,-77,-23c0,0,-40,-23,-76,-63c0,0,-36,-40,-63,-95c0,0,-28,-55,-41,-120L172,18c0,0,-2,-6,-5,-10c0,0,-4,-4,-12,-7c0,0,-7,-2,-20,-3c0,0,-12,-2,-30,-2Z" 
id="f0_ae"
transform="scale(0.001,-0.001)" />

<path d="M293,92c0,0,41,0,83,23c0,0,41,22,77,62c0,0,36,40,64,95c0,0,27,54,41,119l25,123c0,0,-35,53,-76,79c0,0,-41,26,-91,26c0,0,-41,0,-73,-19c0,0,-32,-19,-57,-50c0,0,-25,-32,-44,-72c0,0,-18,-40,-30,-82c0,0,-11,-43,-17,-84c0,0,-5,-41,-5,-74c0,0,0,-26,4,-52c0,0,4,-25,15,-47c0,0,12,-21,32,-34c0,0,20,-13,52,-13ZM262,-13c0,0,-60,0,-99,20c0,0,-39,21,-62,55c0,0,-23,35,-32,78c0,0,-8,43,-8,89c0,0,0,42,7,95c0,0,8,53,26,108c0,0,17,55,45,107c0,0,28,53,68,94c0,0,39,42,92,67c0,0,52,25,118,25c0,0,67,0,114,-28c0,0,47,-27,85,-74l14,67c0,0,3,12,17,18c0,0,14,5,44,5c0,0,15,0,25,-1c0,0,10,-1,16,-4c0,0,6,-3,7,-8c0,0,2,-4,1,-10L606,18C606,18,603,6,590,0c0,0,-14,-4,-45,-4c0,0,-15,0,-25,2c0,0,-9,1,-15,3c0,0,-6,2,-8,6c0,0,-3,5,0,11l24,127c0,0,-10,-24,-35,-52c0,0,-25,-28,-60,-52C426,41,391,17,349,2c0,0,-43,-15,-87,-15Z" 
id="f0_77"
transform="scale(0.001,-0.001)" />

<path d="M293,92c0,0,41,0,83,23c0,0,41,22,77,62c0,0,36,40,64,95c0,0,27,55,41,120l25,124c0,0,-35,51,-76,77c0,0,-41,26,-91,26c0,0,-41,0,-73,-19c0,0,-32,-18,-57,-49c0,0,-25,-31,-43,-72c0,0,-19,-40,-31,-82c0,0,-11,-42,-17,-84c0,0,-5,-41,-5,-75c0,0,0,-32,5,-59c0,0,6,-27,18,-46c0,0,12,-19,32,-30c0,0,20,-11,48,-11ZM263,-271c0,0,-61,0,-112,13c0,0,-51,12,-82,30c0,0,-11,7,-15,14c0,0,-4,7,-4,18c0,0,0,5,0,13c0,0,1,8,2,16c0,0,2,9,5,17c0,0,2,9,6,16c0,0,5,8,10,12c0,0,6,4,13,4c0,0,9,0,22,-8c0,0,14,-8,36,-18c0,0,22,-10,56,-18c0,0,33,-8,81,-8c0,0,41,0,73,8c0,0,33,8,57,25c0,0,24,16,39,41c0,0,16,26,23,61c0,0,14,66,26,111c0,0,12,45,20,70c0,0,-12,-28,-38,-56c0,0,-26,-28,-60,-51C421,39,387,15,345,1c0,0,-41,-14,-83,-14c0,0,-56,0,-95,18c0,0,-39,19,-62,51c0,0,-24,33,-34,77c0,0,-10,44,-10,96c0,0,0,43,8,97c0,0,8,54,26,109c0,0,18,55,46,107c0,0,28,52,67,93c0,0,40,40,92,65c0,0,52,25,117,25c0,0,67,0,114,-27c0,0,47,-27,85,-74l14,66c0,0,3,12,17,18c0,0,14,5,44,5c0,0,15,0,25,-1c0,0,10,-1,16,-4c0,0,6,-3,7,-8c0,0,2,-4,1,-10L595,-33c0,0,-12,-60,-39,-104c0,0,-26,-45,-67,-75c0,0,-41,-29,-98,-44c0,0,-56,-15,-128,-15Z" 
id="f0_9d"
transform="scale(0.001,-0.001)" />

<path d="M292,420c0,0,78,0,130,10c0,0,53,10,84,27c0,0,32,16,45,39c0,0,13,22,13,47c0,0,0,38,-30,61c0,0,-29,24,-84,24c0,0,-49,0,-86,-17c0,0,-37,-17,-66,-45c0,0,-29,-28,-49,-66c0,0,-21,-38,-33,-80ZM323,-13c0,0,-66,0,-116,14c0,0,-50,15,-83,46c0,0,-33,31,-50,77c0,0,-16,47,-16,109c0,0,0,49,9,105c0,0,9,55,29,110c0,0,21,54,53,104c0,0,32,50,76,88c0,0,45,38,103,61c0,0,58,24,131,24c0,0,63,0,107,-16c0,0,43,-16,71,-40c0,0,28,-25,41,-55c0,0,12,-31,12,-60c0,0,0,-52,-24,-93c0,0,-23,-41,-74,-70c0,0,-51,-29,-130,-45c0,0,-79,-15,-189,-15H194c0,0,-5,-25,-7,-48c0,0,-2,-24,-2,-44c0,0,0,-75,37,-114c0,0,37,-40,119,-40c0,0,48,0,86,7c0,0,38,7,66,16c0,0,28,8,46,15c0,0,18,7,24,7c0,0,7,0,11,-5c0,0,3,-5,3,-14c0,0,0,-7,-2,-17c0,0,-1,-11,-4,-22c0,0,-3,-10,-8,-20c0,0,-5,-10,-11,-17c0,0,-9,-8,-31,-17C521,18,498,9,467,2c0,0,-32,-6,-69,-10c0,0,-37,-5,-75,-5Z" 
id="f0_7z"
transform="scale(0.001,-0.001)" />

<path d="M210,-13c0,0,-35,0,-66,6c0,0,-30,5,-55,12C89,5,64,14,46,24C46,24,28,34,18,43c0,0,-6,6,-9,12C9,55,7,62,7,71c0,0,0,6,1,14c0,0,0,8,3,17c0,0,2,9,4,17c0,0,3,8,7,15c0,0,4,6,7,11c0,0,4,4,9,4c0,0,9,0,22,-10c0,0,13,-11,33,-22c0,0,21,-12,51,-22c0,0,31,-10,76,-10c0,0,41,0,71,10c0,0,29,10,48,27c0,0,20,17,29,39c0,0,9,22,9,47c0,0,0,31,-19,51c0,0,-19,20,-49,36c0,0,-29,16,-64,32c0,0,-34,15,-64,37c0,0,-29,21,-49,52c0,0,-20,31,-20,79c0,0,0,49,20,91c0,0,19,42,55,73c0,0,35,31,85,48c0,0,50,18,110,18c0,0,28,0,55,-5c0,0,26,-4,49,-11c0,0,22,-7,39,-15c0,0,16,-8,24,-16c0,0,8,-8,8,-24c0,0,0,-7,-2,-19c0,0,-2,-13,-6,-25c0,0,-4,-12,-10,-20c0,0,-5,-8,-12,-8c0,0,-9,0,-21,7c0,0,-13,7,-31,16c0,0,-18,9,-43,16c0,0,-25,8,-59,8c0,0,-33,0,-58,-10c0,0,-26,-9,-43,-25c0,0,-17,-16,-26,-36c0,0,-9,-21,-9,-43c0,0,0,-30,19,-50c0,0,20,-20,50,-35c0,0,30,-16,65,-31c0,0,35,-16,64,-38c0,0,30,-22,50,-53c0,0,20,-31,20,-78c0,0,0,-52,-21,-97c0,0,-21,-45,-59,-78C425,55,387,23,332,5c0,0,-54,-18,-122,-18Z" 
id="f0_b5"
transform="scale(0.001,-0.001)" />

<path d="M340,89c0,0,46,0,82,16c0,0,36,16,65,44c0,0,29,27,50,64c0,0,21,36,35,78c0,0,14,42,21,85c0,0,6,44,6,85c0,0,0,38,-7,68c0,0,-8,29,-27,50c0,0,-18,20,-47,32c0,0,-30,11,-72,11c0,0,-44,0,-81,-16c0,0,-36,-16,-65,-43c0,0,-29,-28,-50,-64c0,0,-21,-37,-35,-78c0,0,-14,-42,-21,-85c0,0,-6,-44,-6,-86c0,0,0,-37,8,-67c0,0,8,-30,26,-51c0,0,19,-21,48,-32c0,0,29,-11,70,-11ZM329,-13c0,0,-71,0,-122,16c0,0,-52,18,-84,50c0,0,-33,33,-49,81c0,0,-15,48,-15,108c0,0,0,56,10,113c0,0,10,58,31,111c0,0,22,53,54,100c0,0,33,47,77,82c0,0,45,35,101,56c0,0,56,21,125,21c0,0,72,0,123,-18c0,0,52,-18,85,-50c0,0,33,-33,49,-81c0,0,15,-48,15,-108c0,0,0,-55,-10,-112c0,0,-10,-58,-32,-111c0,0,-21,-53,-54,-100c0,0,-33,-47,-77,-83C556,62,511,27,455,7c0,0,-56,-20,-126,-20Z" 
id="f0_am"
transform="scale(0.001,-0.001)" />

<path d="M265,-13c0,0,-51,0,-85,13c0,0,-35,14,-56,38c0,0,-21,24,-31,57c0,0,-9,33,-9,73c0,0,0,24,3,50c0,0,4,26,9,52l83,420c0,0,1,6,5,10c0,0,4,5,12,8c0,0,7,3,19,4c0,0,13,1,30,1c0,0,18,0,30,-1c0,0,12,-1,18,-4c0,0,7,-3,9,-8c0,0,1,-4,1,-10L220,274c0,0,-4,-19,-6,-40c0,0,-3,-21,-3,-42c0,0,0,-22,4,-40c0,0,5,-19,15,-32c0,0,10,-13,26,-21c0,0,16,-7,39,-7c0,0,39,0,81,23c0,0,41,22,77,62c0,0,36,40,64,96c0,0,28,55,41,120l59,297c0,0,1,6,5,10c0,0,4,5,12,8c0,0,8,3,20,4c0,0,12,1,30,1c0,0,18,0,29,-1c0,0,12,-1,18,-4c0,0,7,-3,9,-8c0,0,1,-4,1,-10L606,18c0,0,-1,-6,-5,-10c0,0,-3,-5,-10,-7c0,0,-7,-2,-18,-3c0,0,-11,-2,-26,-2c0,0,-15,0,-25,2c0,0,-10,1,-16,3c0,0,-5,2,-7,7c0,0,-2,4,-1,10l25,126c0,0,-12,-25,-38,-53c0,0,-25,-28,-60,-51C425,40,390,16,349,1c0,0,-42,-14,-84,-14Z" 
id="f0_c6"
transform="scale(0.001,-0.001)" />

<path d="M105,-4c0,0,-18,0,-30,2c0,0,-11,1,-18,3c0,0,-6,3,-8,7c0,0,-2,4,0,10L182,690c0,0,1,6,4,10c0,0,4,5,12,8c0,0,7,3,18,4c0,0,11,1,26,1c0,0,15,0,25,-1c0,0,10,-1,16,-4c0,0,6,-3,7,-8c0,0,2,-4,1,-10L266,568c0,0,17,31,41,59c0,0,23,29,51,51c0,0,28,21,58,34c0,0,30,13,59,13c0,0,13,0,26,-2c0,0,13,-2,24,-5c0,0,11,-2,20,-6c0,0,8,-3,13,-8c0,0,4,-4,4,-14c0,0,0,-3,-1,-11c0,0,-1,-9,-2,-20c0,0,-2,-11,-5,-23c0,0,-3,-12,-7,-22c0,0,-5,-10,-10,-17c0,0,-5,-7,-10,-7c0,0,-6,0,-13,3c0,0,-8,3,-16,6c0,0,-9,4,-20,7c0,0,-11,2,-26,2c0,0,-25,0,-58,-22c0,0,-34,-22,-66,-61c0,0,-32,-39,-58,-92c0,0,-27,-53,-40,-116L172,18c0,0,-2,-6,-5,-10c0,0,-4,-4,-12,-7c0,0,-7,-2,-20,-3c0,0,-12,-2,-30,-2Z" 
id="f0_b1"
transform="scale(0.001,-0.001)" />

<path d="M296,-13c0,0,-121,0,-180,60c0,0,-59,62,-59,182c0,0,0,46,8,100c0,0,7,54,26,109c0,0,19,54,48,106c0,0,29,51,71,91c0,0,43,40,99,64c0,0,56,24,128,24c0,0,30,0,58,-5c0,0,27,-5,51,-13c0,0,25,-8,44,-20c0,0,20,-13,31,-22c0,0,11,-10,14,-17c0,0,3,-6,3,-14c0,0,0,-14,-3,-28c0,0,-3,-14,-8,-27c0,0,-5,-12,-12,-20c0,0,-8,-8,-17,-8c0,0,-10,0,-21,10c0,0,-12,11,-30,24c0,0,-18,14,-46,25c0,0,-28,11,-71,11c0,0,-48,0,-85,-20c0,0,-37,-20,-64,-51c0,0,-27,-32,-45,-72c0,0,-18,-40,-29,-81c0,0,-12,-41,-16,-80c0,0,-5,-38,-5,-66c0,0,0,-77,33,-117c0,0,34,-39,100,-39c0,0,49,0,84,12c0,0,34,12,58,27c0,0,25,15,40,27c0,0,16,12,28,12c0,0,6,0,9,-5c0,0,4,-6,4,-17c0,0,0,-8,-2,-21c0,0,-1,-12,-5,-25c0,0,-3,-13,-8,-24c0,0,-5,-12,-14,-21c0,0,-9,-9,-31,-23c0,0,-22,-13,-52,-24C430,11,401,0,366,-6c0,0,-34,-7,-70,-7Z" 
id="f0_7l"
transform="scale(0.001,-0.001)" />

<path d="M147,-6c0,0,-23,0,-37,4c0,0,-14,3,-21,12c0,0,-7,10,-7,27c0,0,0,17,4,42c0,0,4,24,11,40c0,0,7,17,18,27c0,0,10,10,26,15c0,0,16,4,38,4c0,0,24,0,38,-4c0,0,15,-5,22,-15c0,0,6,-10,7,-27c0,0,1,-16,-4,-40c0,0,-3,-24,-10,-40c0,0,-7,-17,-19,-27C213,12,202,2,186,-1c0,0,-16,-5,-39,-5ZM251,511c0,0,-23,0,-37,5c0,0,-14,4,-21,14c0,0,-7,10,-7,27c0,0,-1,16,5,40c0,0,4,25,11,42c0,0,6,16,17,26c0,0,10,10,26,15c0,0,16,4,39,4c0,0,23,0,37,-4c0,0,15,-5,22,-15c0,0,8,-10,8,-26c0,0,0,-17,-5,-42c0,0,-4,-24,-11,-40c0,0,-8,-17,-18,-27c0,0,-11,-10,-27,-14c0,0,-16,-5,-39,-5Z" 
id="f0_ns"
transform="scale(0.001,-0.001)" />

<path d="M105,-4c0,0,-18,0,-30,2c0,0,-11,1,-18,3c0,0,-6,3,-8,7c0,0,-2,4,0,10l198,997c0,0,2,6,5,11c0,0,4,4,11,7c0,0,8,3,20,5c0,0,13,1,31,1c0,0,18,0,30,-1c0,0,11,-2,18,-5c0,0,6,-3,8,-7c0,0,1,-5,1,-11L172,18c0,0,-2,-6,-5,-10c0,0,-4,-4,-12,-7c0,0,-7,-2,-20,-3c0,0,-12,-2,-30,-2Z" 
id="f0_a8"
transform="scale(0.001,-0.001)" />

<path d="M105,-4c0,0,-18,0,-30,2c0,0,-11,1,-18,3c0,0,-6,3,-8,7c0,0,-2,4,0,10L183,690c0,0,1,5,4,9c0,0,4,5,11,8c0,0,8,3,20,4c0,0,12,2,30,2c0,0,19,0,30,-2c0,0,12,-1,18,-4c0,0,7,-3,9,-8c0,0,2,-4,1,-9L172,18c0,0,-2,-6,-5,-10c0,0,-4,-4,-12,-7c0,0,-7,-2,-20,-3c0,0,-12,-2,-30,-2ZM274,842c0,0,-22,0,-36,4c0,0,-14,3,-20,12c0,0,-7,8,-8,23c0,0,-1,14,3,35c0,0,5,21,11,34c0,0,7,14,17,23c0,0,10,10,25,13c0,0,16,4,38,4c0,0,22,0,36,-4c0,0,14,-3,21,-13c0,0,8,-9,8,-23c0,0,1,-13,-3,-34c0,0,-4,-21,-10,-35c0,0,-7,-15,-17,-23c0,0,-11,-9,-27,-12c0,0,-16,-4,-38,-4Z" 
id="f0_9q"
transform="scale(0.001,-0.001)" />

<path d="M-28,-238c0,0,-7,0,-11,6c0,0,-4,6,-4,16c0,0,0,4,2,11c0,0,1,7,2,14c0,0,1,8,4,15c0,0,3,8,7,15c0,0,3,6,8,10c0,0,5,3,11,3H110L330,952H209c0,0,-8,0,-12,6c0,0,-3,5,-3,14c0,0,0,5,0,12c0,0,1,7,3,15c0,0,1,8,4,16c0,0,2,8,6,14c0,0,4,6,9,10c0,0,5,4,12,4H418c0,0,9,0,17,-2c0,0,8,-3,14,-9c0,0,5,-7,7,-17c0,0,2,-10,0,-24L219,-185c0,0,-5,-30,-22,-41c0,0,-18,-12,-35,-12Z" 
id="f0_oy"
transform="scale(0.001,-0.001)" />

<path d="M378,-4c0,0,-28,0,-47,2c0,0,-19,2,-31,5c0,0,-11,4,-16,10c0,0,-4,6,-4,13V805H38c0,0,-8,0,-13,4c0,0,-5,5,-9,14c0,0,-3,9,-5,25c0,0,-2,15,-2,37c0,0,0,22,2,38c0,0,2,15,5,25c0,0,4,9,9,13c0,0,5,4,13,4H718c0,0,7,0,12,-4c0,0,6,-4,10,-13c0,0,3,-10,5,-25c0,0,2,-16,2,-38c0,0,0,-22,-2,-37c0,0,-2,-16,-5,-25c0,0,-4,-9,-10,-14c0,0,-5,-4,-12,-4H476V26c0,0,0,-7,-5,-13c0,0,-5,-6,-16,-10c0,0,-11,-3,-30,-5c0,0,-19,-2,-47,-2Z" 
id="f1_2t"
transform="scale(0.001,-0.001)" />

<path d="M275,-270c0,0,-30,0,-47,3c0,0,-18,2,-27,8c0,0,-9,6,-10,15c0,0,-1,9,5,22L284,0c0,0,-9,4,-17,14c0,0,-8,9,-12,20L26,645c0,0,-10,26,-10,40c0,0,0,14,9,22c0,0,9,8,30,11c0,0,22,3,57,3c0,0,32,0,50,-1c0,0,19,-2,29,-6c0,0,11,-5,16,-14c0,0,5,-9,11,-26L375,228h2L521,683c0,0,4,19,11,25c0,0,7,7,24,10c0,0,16,3,57,3c0,0,32,0,53,-3c0,0,21,-3,31,-12c0,0,11,-8,11,-22c0,0,0,-13,-6,-32L480,0L399,-235c0,0,-7,-18,-37,-27c0,0,-29,-8,-87,-8Z" 
id="f1_co"
transform="scale(0.001,-0.001)" />

<path d="M432,142c0,0,36,0,62,18c0,0,26,19,42,49c0,0,16,31,24,69c0,0,8,38,8,76c0,0,0,43,-6,82c0,0,-7,39,-22,70c0,0,-15,30,-40,49c0,0,-25,18,-62,18c0,0,-19,0,-37,-6c0,0,-19,-5,-38,-18c0,0,-19,-13,-39,-33c0,0,-20,-20,-42,-50V247c0,0,39,-51,75,-78c0,0,36,-27,75,-27ZM188,-270c0,0,-28,0,-46,2c0,0,-18,3,-28,7c0,0,-11,4,-16,10c0,0,-4,6,-4,13V691c0,0,0,7,4,13c0,0,3,5,13,9c0,0,9,4,24,6c0,0,15,2,39,2c0,0,22,0,37,-2c0,0,15,-2,25,-6c0,0,9,-4,13,-9c0,0,4,-6,4,-13V612c0,0,29,30,57,53c0,0,28,23,57,38c0,0,29,15,60,23c0,0,31,7,66,7c0,0,73,0,124,-28c0,0,52,-29,84,-79c0,0,33,-50,48,-117c0,0,15,-66,15,-141c0,0,0,-89,-19,-161c0,0,-19,-71,-56,-121C689,86,652,36,598,9c0,0,-54,-26,-125,-26c0,0,-29,0,-53,6c0,0,-24,6,-47,16c0,0,-23,12,-45,29c0,0,-23,17,-46,40V-238c0,0,0,-7,-5,-13c0,0,-4,-6,-15,-10c0,0,-11,-4,-29,-7c0,0,-18,-2,-45,-2Z" 
id="f1_ay"
transform="scale(0.001,-0.001)" />

<path d="M526,431c0,0,2,79,-32,124c0,0,-34,45,-105,45c0,0,-35,0,-62,-13c0,0,-26,-13,-44,-36c0,0,-17,-23,-27,-54c0,0,-9,-31,-11,-66ZM410,-17c0,0,-88,0,-155,22c0,0,-67,22,-112,68c0,0,-44,45,-66,115c0,0,-22,69,-22,162c0,0,0,89,23,161c0,0,23,71,67,120c0,0,44,50,107,76c0,0,63,26,142,26c0,0,84,0,143,-24c0,0,59,-25,97,-69c0,0,38,-43,56,-103c0,0,18,-60,18,-130V377c0,0,0,-34,-15,-51c0,0,-16,-16,-43,-16H245c0,0,0,-43,10,-77c0,0,11,-35,33,-59c0,0,22,-24,56,-37c0,0,35,-13,83,-13c0,0,50,0,87,7c0,0,37,8,65,16c0,0,27,9,45,16c0,0,18,7,29,7c0,0,6,0,11,-2c0,0,4,-3,7,-10c0,0,3,-7,4,-19c0,0,2,-12,2,-31c0,0,0,-16,-1,-28c0,0,-1,-12,-2,-20c0,0,-2,-8,-5,-14c0,0,-3,-5,-8,-10c0,0,-5,-6,-26,-15c0,0,-22,-9,-55,-17c0,0,-34,-8,-77,-14c0,0,-43,-7,-93,-7Z" 
id="f1_7z"
transform="scale(0.001,-0.001)" />

<path d="M275,-17c0,0,-37,0,-71,6c0,0,-34,6,-61,13c0,0,-27,9,-45,18c0,0,-18,9,-26,17c0,0,-8,8,-13,25c0,0,-4,17,-4,49c0,0,0,22,1,35c0,0,2,13,5,21c0,0,3,8,7,10c0,0,5,3,11,3c0,0,9,0,25,-9c0,0,16,-10,40,-21c0,0,24,-11,55,-21c0,0,32,-10,72,-10c0,0,26,0,46,5c0,0,19,6,34,15c0,0,14,10,22,25c0,0,7,15,7,34c0,0,0,23,-13,39c0,0,-14,16,-37,28c0,0,-23,11,-52,22c0,0,-28,10,-58,23c0,0,-31,13,-59,29c0,0,-29,17,-52,41c0,0,-23,23,-37,57c0,0,-13,34,-13,81c0,0,0,47,18,87c0,0,19,40,54,69c0,0,35,28,86,44c0,0,50,15,113,15c0,0,31,0,61,-4c0,0,29,-5,53,-11c0,0,24,-7,40,-15c0,0,17,-7,24,-13c0,0,7,-6,10,-11c0,0,3,-6,4,-14c0,0,2,-7,3,-19c0,0,1,-12,1,-29c0,0,0,-20,-1,-33c0,0,-1,-12,-4,-20c0,0,-2,-7,-7,-10c0,0,-4,-3,-10,-3c0,0,-7,0,-21,8c0,0,-14,8,-36,17c0,0,-21,9,-49,17c0,0,-28,7,-64,7c0,0,-25,0,-44,-5c0,0,-19,-5,-30,-15c0,0,-12,-9,-18,-22c0,0,-6,-14,-6,-28c0,0,0,-24,14,-39c0,0,14,-16,37,-28c0,0,23,-12,53,-22c0,0,29,-11,59,-23c0,0,31,-12,60,-29c0,0,30,-16,53,-40c0,0,23,-24,37,-57c0,0,14,-33,14,-79c0,0,0,-57,-21,-100c0,0,-21,-43,-60,-72c0,0,-39,-29,-92,-43c0,0,-53,-15,-115,-15Z" 
id="f1_b5"
transform="scale(0.001,-0.001)" />

<path d="M204,-9c0,0,-63,0,-87,23c0,0,-24,23,-24,89c0,0,0,70,24,94c0,0,25,24,88,24c0,0,62,0,86,-24c0,0,24,-23,24,-90c0,0,0,-69,-24,-93c0,0,-25,-23,-87,-23Z" 
id="f1_nt"
transform="scale(0.001,-0.001)" />

<path d="M409,132c0,0,42,0,73,15c0,0,32,16,52,45c0,0,20,29,29,70c0,0,10,42,10,95c0,0,0,49,-8,91c0,0,-8,41,-26,72c0,0,-19,30,-50,48c0,0,-30,17,-77,17c0,0,-42,0,-73,-16c0,0,-31,-15,-51,-44c0,0,-21,-30,-31,-71c0,0,-10,-42,-10,-95c0,0,0,-49,9,-91c0,0,8,-41,26,-72c0,0,18,-30,49,-47c0,0,32,-17,78,-17ZM402,-17c0,0,-89,0,-154,24c0,0,-66,25,-109,72c0,0,-43,47,-64,115c0,0,-21,69,-21,157c0,0,0,85,23,156c0,0,22,70,68,121c0,0,45,50,113,78c0,0,69,27,160,27c0,0,90,0,155,-24c0,0,66,-24,109,-71c0,0,43,-47,64,-116c0,0,21,-69,21,-157c0,0,0,-86,-23,-156c0,0,-22,-70,-68,-121C676,88,631,38,562,10c0,0,-68,-27,-160,-27Z" 
id="f1_am"
transform="scale(0.001,-0.001)" />

<path d="M224,-4c0,0,-26,0,-45,2c0,0,-18,2,-29,5c0,0,-11,3,-15,9c0,0,-4,5,-4,13V563H48c0,0,-14,0,-21,18c0,0,-7,17,-7,58c0,0,0,22,1,37c0,0,2,15,6,24c0,0,3,8,9,12c0,0,5,4,13,4h82v56c0,0,0,68,13,119c0,0,14,51,43,85c0,0,29,34,73,51c0,0,45,17,105,17c0,0,29,0,55,-5c0,0,27,-4,42,-10c0,0,15,-6,20,-10c0,0,5,-5,8,-15c0,0,4,-9,5,-23c0,0,2,-15,2,-37c0,0,0,-21,-2,-34c0,0,-1,-13,-4,-20c0,0,-3,-7,-7,-10c0,0,-4,-3,-8,-3c0,0,-5,0,-12,3c0,0,-6,3,-16,6c0,0,-9,2,-22,5c0,0,-12,3,-29,3c0,0,-21,0,-35,-7c0,0,-15,-6,-25,-20c0,0,-9,-14,-14,-36c0,0,-4,-22,-4,-54V716H440c0,0,7,0,13,-4c0,0,5,-4,9,-12c0,0,4,-9,5,-24c0,0,2,-15,2,-37c0,0,0,-41,-7,-58c0,0,-8,-18,-22,-18H319V25c0,0,0,-8,-5,-13c0,0,-4,-6,-15,-9c0,0,-10,-3,-29,-5c0,0,-19,-2,-46,-2Z" 
id="f1_89"
transform="scale(0.001,-0.001)" />

<path d="M402,542c0,0,41,0,72,10c0,0,32,10,52,28c0,0,21,18,32,44c0,0,10,25,10,56c0,0,0,48,-21,81c0,0,-22,33,-71,46c0,0,-15,4,-34,6c0,0,-19,2,-52,2H302V542ZM203,-4c0,0,-28,0,-47,2c0,0,-19,2,-30,5c0,0,-11,4,-16,10c0,0,-4,6,-4,13V903c0,0,0,33,16,48c0,0,17,14,42,14H414c0,0,38,0,62,-1c0,0,25,-2,45,-4c0,0,58,-8,105,-28c0,0,46,-21,79,-53c0,0,32,-32,49,-77c0,0,17,-44,17,-101c0,0,0,-49,-12,-89c0,0,-12,-40,-36,-71c0,0,-24,-31,-59,-54c0,0,-35,-23,-80,-38c0,0,22,-10,41,-25c0,0,19,-15,36,-36c0,0,17,-22,31,-49c0,0,15,-27,30,-61L803,87c0,0,11,-28,15,-41c0,0,3,-14,3,-21c0,0,0,-8,-3,-14c0,0,-3,-5,-14,-9c0,0,-11,-3,-33,-4c0,0,-21,-2,-59,-2c0,0,-31,0,-50,2c0,0,-18,1,-29,4c0,0,-11,4,-15,11c0,0,-5,6,-8,15L524,244c0,0,-16,37,-31,65c0,0,-14,28,-33,48c0,0,-18,19,-42,28c0,0,-24,10,-55,10H302V27c0,0,0,-8,-5,-14c0,0,-5,-6,-16,-10c0,0,-11,-3,-30,-5c0,0,-18,-2,-48,-2Z" 
id="f1_2j"
transform="scale(0.001,-0.001)" />

<path d="M344,-14c0,0,-56,0,-97,14c0,0,-42,14,-69,43c0,0,-26,29,-39,74c0,0,-13,45,-13,106V563H47c0,0,-15,0,-22,18c0,0,-7,17,-7,58c0,0,0,22,1,37c0,0,2,15,6,24c0,0,4,8,9,12c0,0,6,4,13,4h79V864c0,0,0,8,4,14c0,0,4,6,15,10c0,0,11,4,29,6c0,0,19,2,46,2c0,0,27,0,46,-2c0,0,18,-2,28,-6c0,0,11,-4,15,-10c0,0,5,-6,5,-14V716H459c0,0,7,0,13,-4c0,0,6,-4,9,-12c0,0,4,-9,6,-24c0,0,2,-15,2,-37c0,0,0,-41,-8,-58c0,0,-7,-18,-21,-18H314V251c0,0,0,-54,17,-81c0,0,17,-27,61,-27c0,0,15,0,27,2c0,0,12,3,22,6c0,0,9,4,15,6c0,0,7,3,12,3c0,0,4,0,9,-3c0,0,4,-2,6,-10c0,0,2,-8,4,-21c0,0,2,-14,2,-35c0,0,0,-33,-4,-50c0,0,-4,-18,-11,-25c0,0,-7,-7,-20,-12c0,0,-13,-5,-31,-9c0,0,-17,-4,-38,-6c0,0,-20,-3,-41,-3Z" 
id="f1_bf"
transform="scale(0.001,-0.001)" />

<path d="M224,-9c0,0,-31,0,-51,6c0,0,-20,4,-32,18c0,0,-13,13,-17,34c0,0,-5,22,-5,53c0,0,0,31,5,53c0,0,4,22,17,36c0,0,12,13,32,19c0,0,20,5,51,5c0,0,30,0,50,-5c0,0,20,-6,33,-19c0,0,12,-14,17,-36c0,0,6,-22,6,-53c0,0,0,-31,-6,-53c0,0,-5,-21,-17,-34C307,15,294,1,274,-3c0,0,-20,-6,-50,-6Zm0,487c0,0,-31,0,-51,6c0,0,-20,5,-32,19c0,0,-13,13,-17,34c0,0,-5,21,-5,52c0,0,0,32,5,54c0,0,4,21,17,35c0,0,12,13,32,19c0,0,20,6,51,6c0,0,30,0,50,-6c0,0,20,-6,33,-19c0,0,12,-14,17,-35c0,0,6,-22,6,-54c0,0,0,-31,-6,-52c0,0,-5,-21,-17,-34c0,0,-13,-14,-33,-19c0,0,-20,-6,-50,-6Z" 
id="f1_ns"
transform="scale(0.001,-0.001)" />

<path d="M79,297c0,0,-19,0,-27,18c0,0,-8,17,-8,60c0,0,0,41,8,59c0,0,8,17,27,17H389c0,0,9,0,15,-4c0,0,7,-4,11,-13c0,0,5,-9,7,-23c0,0,1,-15,1,-36c0,0,0,-43,-8,-61c0,0,-8,-17,-26,-17Z" 
id="f1_oj"
transform="scale(0.001,-0.001)" />

<path d="M382,534c0,0,51,0,88,12c0,0,37,12,61,35c0,0,25,22,36,51c0,0,12,30,12,65c0,0,0,57,-25,96c0,0,-26,40,-86,57c0,0,-18,5,-42,7c0,0,-23,2,-61,2H256V534ZM192,-4c0,0,-18,0,-31,2c0,0,-12,2,-19,3c0,0,-8,3,-11,8c0,0,-3,4,-3,10V913c0,0,0,29,15,40c0,0,16,12,33,12H381c0,0,37,0,61,-2c0,0,24,-2,44,-4c0,0,56,-10,98,-30c0,0,43,-21,73,-53c0,0,29,-33,43,-74c0,0,15,-41,15,-91c0,0,0,-49,-13,-87c0,0,-13,-39,-38,-68c0,0,-25,-30,-59,-51c0,0,-34,-22,-77,-37c0,0,24,-10,43,-26c0,0,20,-16,37,-39c0,0,16,-22,31,-51c0,0,15,-29,30,-66L756,73c0,0,10,-26,13,-37c0,0,3,-11,3,-17c0,0,0,-6,-2,-10c0,0,-2,-5,-10,-8c0,0,-7,-2,-21,-3c0,0,-13,-2,-36,-2c0,0,-19,0,-31,2c0,0,-13,1,-20,3c0,0,-7,4,-12,10c0,0,-4,6,-7,15L545,253c0,0,-16,39,-33,72c0,0,-17,32,-40,56c0,0,-23,23,-54,36c0,0,-32,13,-76,13H256V19c0,0,0,-6,-3,-10c0,0,-3,-5,-10,-8c0,0,-7,-1,-20,-3c0,0,-12,-2,-31,-2Z" 
id="f2_2j"
transform="scale(0.001,-0.001)" />

<path d="M401,90c0,0,54,0,93,19c0,0,40,20,65,55c0,0,26,35,37,84c0,0,12,48,12,106c0,0,0,55,-10,104c0,0,-10,48,-33,85c0,0,-23,36,-62,58c0,0,-40,21,-99,21c0,0,-54,0,-93,-20c0,0,-39,-19,-65,-54c0,0,-25,-36,-37,-85c0,0,-12,-48,-12,-106c0,0,0,-55,10,-103c0,0,10,-49,33,-85c0,0,24,-36,63,-58c0,0,39,-21,98,-21ZM395,-13c0,0,-82,0,-144,24c0,0,-61,25,-102,72c0,0,-41,47,-61,114c0,0,-21,67,-21,152c0,0,0,82,22,151c0,0,21,69,64,119c0,0,43,50,107,78c0,0,64,28,150,28c0,0,82,0,144,-25c0,0,61,-25,102,-72c0,0,41,-47,62,-114c0,0,20,-67,20,-151c0,0,0,-83,-21,-152c0,0,-22,-69,-65,-119C652,92,609,42,545,14c0,0,-65,-27,-150,-27Z" 
id="f2_am"
transform="scale(0.001,-0.001)" />

<path d="M339,-13c0,0,-52,0,-90,13c0,0,-37,14,-61,42c0,0,-24,28,-34,71c0,0,-11,43,-11,101V607H49c0,0,-11,0,-18,12c0,0,-7,12,-7,39c0,0,0,14,2,24c0,0,2,10,5,16c0,0,3,7,8,9c0,0,5,3,11,3h93V870c0,0,0,5,2,9c0,0,3,5,10,8c0,0,7,4,19,5c0,0,12,2,30,2c0,0,19,0,31,-2c0,0,11,-1,18,-5c0,0,7,-3,10,-8c0,0,3,-4,3,-9V710H438c0,0,6,0,10,-3c0,0,5,-2,8,-9c0,0,4,-6,5,-16c0,0,1,-10,1,-24c0,0,0,-27,-6,-39c0,0,-7,-12,-18,-12H266V232c0,0,0,-69,20,-105c0,0,21,-35,74,-35c0,0,17,0,30,3c0,0,14,4,24,7c0,0,10,4,18,7c0,0,7,4,13,4c0,0,4,0,7,-2c0,0,4,-2,6,-7c0,0,2,-5,3,-14c0,0,1,-9,1,-23c0,0,0,-22,-2,-34c0,0,-3,-13,-9,-19c0,0,-6,-6,-18,-11c0,0,-12,-4,-28,-8c0,0,-15,-3,-32,-5c0,0,-17,-3,-34,-3Z" 
id="f2_bf"
transform="scale(0.001,-0.001)" />

<path d="M272,-13c0,0,-35,0,-68,6c0,0,-32,6,-58,13c0,0,-26,9,-44,18c0,0,-17,10,-26,17c0,0,-8,8,-12,21c0,0,-3,14,-3,37c0,0,0,14,1,24c0,0,2,9,4,15c0,0,2,6,6,9c0,0,4,3,10,3c0,0,8,0,24,-11c0,0,16,-10,39,-22c0,0,24,-12,56,-22c0,0,32,-10,74,-10c0,0,31,0,56,7c0,0,26,6,44,19c0,0,19,14,29,34c0,0,10,20,10,47c0,0,0,29,-14,48c0,0,-15,19,-39,34c0,0,-24,15,-53,27c0,0,-30,11,-62,24c0,0,-32,13,-62,29c0,0,-30,16,-54,39c0,0,-24,23,-38,55c0,0,-15,32,-15,77c0,0,0,40,16,76c0,0,15,36,45,63c0,0,31,28,77,44c0,0,46,17,107,17c0,0,27,0,54,-5c0,0,26,-5,48,-11c0,0,22,-7,37,-15c0,0,15,-8,23,-14c0,0,8,-6,11,-11c0,0,2,-4,3,-10c0,0,1,-5,2,-14c0,0,2,-8,2,-20c0,0,0,-12,-2,-22c0,0,-1,-9,-3,-15c0,0,-3,-6,-7,-8c0,0,-3,-3,-8,-3c0,0,-7,0,-19,8c0,0,-13,8,-33,18c0,0,-20,9,-47,17c0,0,-28,9,-63,9c0,0,-31,0,-55,-7c0,0,-24,-7,-39,-20c0,0,-15,-13,-23,-31c0,0,-8,-18,-8,-39c0,0,0,-29,15,-49c0,0,15,-20,39,-35c0,0,24,-15,54,-27c0,0,31,-11,62,-24c0,0,32,-13,63,-29c0,0,31,-15,55,-38c0,0,24,-22,38,-53c0,0,15,-32,15,-75c0,0,0,-51,-19,-92c0,0,-19,-40,-54,-68C463,42,428,15,379,1c0,0,-48,-14,-107,-14Z" 
id="f2_b5"
transform="scale(0.001,-0.001)" />

<path d="M192,-6c0,0,-45,0,-62,16c0,0,-18,18,-18,69c0,0,0,53,18,71c0,0,18,17,64,17c0,0,45,0,62,-17c0,0,17,-17,17,-69c0,0,0,-53,-18,-70c0,0,-17,-17,-63,-17Z" 
id="f2_nt"
transform="scale(0.001,-0.001)" />

<path d="M321,82c0,0,48,0,90,25c0,0,41,24,87,75V325H392c0,0,-50,0,-88,-9c0,0,-37,-9,-62,-25c0,0,-24,-17,-36,-41c0,0,-11,-23,-11,-54c0,0,0,-52,33,-83c0,0,33,-31,93,-31ZM301,-13c0,0,-53,0,-96,13c0,0,-43,14,-73,40c0,0,-30,26,-47,64c0,0,-17,38,-17,87c0,0,0,56,24,98c0,0,23,42,66,69c0,0,43,28,106,42c0,0,63,14,141,14h93v52c0,0,0,39,-9,69c0,0,-8,30,-26,50c0,0,-18,20,-47,30c0,0,-30,10,-72,10c0,0,-46,0,-82,-11c0,0,-36,-11,-63,-24c0,0,-27,-13,-46,-24c0,0,-18,-11,-27,-11c0,0,-6,0,-10,3c0,0,-5,3,-8,9c0,0,-3,6,-5,16c0,0,-1,9,-1,20c0,0,0,19,2,30c0,0,3,11,13,20c0,0,10,10,35,23c0,0,24,13,56,24c0,0,32,10,70,17c0,0,38,8,77,8c0,0,73,0,123,-17c0,0,51,-16,82,-48c0,0,32,-32,46,-79c0,0,14,-47,14,-110V18c0,0,0,-9,-6,-14c0,0,-6,-4,-16,-6c0,0,-11,-2,-31,-2c0,0,-19,0,-31,2c0,0,-12,2,-17,6c0,0,-5,5,-5,13V85c0,0,-44,-47,-98,-73c0,0,-54,-25,-115,-25Z" 
id="f2_77"
transform="scale(0.001,-0.001)" />

<path d="M176,-4c0,0,-18,0,-30,2c0,0,-12,1,-19,3c0,0,-7,3,-10,7c0,0,-3,4,-3,10V690c0,0,0,6,3,10c0,0,2,4,9,7c0,0,6,4,17,5c0,0,10,1,27,1c0,0,17,0,28,-1c0,0,10,-1,16,-5c0,0,6,-3,9,-7c0,0,3,-4,3,-10V592c0,0,27,41,51,66c0,0,25,26,46,41c0,0,22,14,43,20c0,0,21,6,43,6c0,0,10,0,22,-2c0,0,12,-1,26,-4c0,0,13,-3,24,-6c0,0,11,-4,15,-8c0,0,5,-4,6,-7c0,0,2,-3,3,-9c0,0,1,-5,1,-15c0,0,0,-10,0,-27c0,0,0,-16,0,-28c0,0,-1,-11,-3,-17c0,0,-2,-6,-6,-10c0,0,-3,-3,-9,-3c0,0,-6,0,-15,3c0,0,-8,4,-19,7c0,0,-11,3,-24,6c0,0,-14,3,-29,3c0,0,-19,0,-37,-7c0,0,-18,-8,-37,-25c0,0,-20,-18,-42,-46c0,0,-21,-29,-48,-70V18c0,0,0,-6,-3,-10c0,0,-2,-4,-9,-7c0,0,-7,-2,-19,-3c0,0,-12,-2,-30,-2Z" 
id="f2_b1"
transform="scale(0.001,-0.001)" />

<path d="M564,420c0,0,2,98,-43,153c0,0,-46,56,-134,56c0,0,-46,0,-80,-18c0,0,-35,-17,-58,-45c0,0,-23,-29,-36,-67c0,0,-12,-37,-14,-79ZM405,-13c0,0,-83,0,-145,22c0,0,-62,24,-105,69c0,0,-42,46,-64,114c0,0,-22,69,-22,160c0,0,0,87,23,156c0,0,22,69,64,117c0,0,43,48,102,74c0,0,60,26,134,26c0,0,79,0,135,-26c0,0,55,-25,91,-68c0,0,36,-43,53,-101c0,0,16,-58,16,-123V384c0,0,0,-29,-14,-41c0,0,-15,-13,-33,-13H199c0,0,0,-56,11,-100c0,0,12,-45,38,-77c0,0,26,-33,68,-50c0,0,41,-17,102,-17c0,0,48,0,85,8c0,0,37,8,65,17c0,0,27,10,44,18c0,0,18,8,27,8c0,0,5,0,9,-3c0,0,4,-2,7,-8c0,0,2,-5,3,-14c0,0,1,-9,1,-23c0,0,0,-9,-1,-16c0,0,0,-8,-2,-13c0,0,-1,-6,-3,-10c0,0,-3,-5,-7,-9c0,0,-4,-4,-24,-13c0,0,-20,-10,-53,-18c0,0,-32,-9,-74,-16c0,0,-42,-7,-90,-7Z" 
id="f2_7z"
transform="scale(0.001,-0.001)" />

<path d="M209,-4c0,0,-18,0,-30,2c0,0,-12,1,-19,3c0,0,-7,3,-10,7c0,0,-3,4,-3,10V607H52c0,0,-12,0,-18,12c0,0,-6,12,-6,39c0,0,0,14,2,24c0,0,1,10,4,16c0,0,3,7,8,9c0,0,4,3,10,3h95v69c0,0,0,71,13,121c0,0,13,50,40,82c0,0,27,33,67,48c0,0,41,15,96,15c0,0,26,0,51,-5c0,0,25,-4,38,-10c0,0,13,-6,18,-10c0,0,4,-5,7,-12c0,0,3,-7,5,-17c0,0,1,-10,1,-24c0,0,0,-15,-2,-23c0,0,-1,-9,-3,-14c0,0,-2,-5,-5,-7c0,0,-3,-2,-8,-2c0,0,-5,0,-13,3c0,0,-7,4,-19,8c0,0,-11,4,-26,7c0,0,-15,4,-36,4c0,0,-27,0,-47,-9c0,0,-19,-9,-31,-28c0,0,-12,-19,-17,-50c0,0,-5,-30,-5,-73V710H421c0,0,6,0,10,-3c0,0,4,-2,7,-9c0,0,4,-6,6,-16c0,0,2,-10,2,-24c0,0,0,-27,-7,-39c0,0,-7,-12,-18,-12H271V18c0,0,0,-6,-3,-10c0,0,-3,-4,-11,-7c0,0,-7,-2,-19,-3c0,0,-12,-2,-29,-2Z" 
id="f2_89"
transform="scale(0.001,-0.001)" />

<path d="M176,-4c0,0,-18,0,-30,2c0,0,-12,1,-19,3c0,0,-7,3,-10,7c0,0,-3,4,-3,10v997c0,0,0,6,3,11c0,0,3,4,10,7c0,0,7,3,19,5c0,0,12,1,30,1c0,0,18,0,30,-1c0,0,12,-2,19,-5c0,0,7,-3,9,-7c0,0,3,-5,3,-10V614c0,0,53,56,107,83c0,0,54,28,108,28c0,0,67,0,113,-23c0,0,46,-23,74,-61c0,0,29,-38,41,-89c0,0,12,-52,12,-124V18c0,0,0,-6,-3,-10c0,0,-3,-4,-9,-7c0,0,-7,-2,-19,-3c0,0,-12,-2,-30,-2c0,0,-19,0,-30,2c0,0,-12,1,-19,3c0,0,-7,3,-10,7c0,0,-3,4,-3,10V412c0,0,0,58,-9,93c0,0,-9,35,-26,61c0,0,-17,25,-44,38c0,0,-27,14,-63,14c0,0,-46,0,-93,-33c0,0,-46,-33,-97,-96V18c0,0,0,-6,-3,-10c0,0,-2,-4,-9,-7c0,0,-7,-2,-19,-3c0,0,-12,-2,-30,-2Z" 
id="f2_9n"
transform="scale(0.001,-0.001)" />

<path d="M252,-271c0,0,-19,0,-31,2c0,0,-12,2,-18,6c0,0,-7,5,-8,12c0,0,0,8,4,18L292,0c0,0,-7,3,-13,10c0,0,-6,6,-8,14L31,665c0,0,-6,16,-6,25c0,0,0,9,6,14c0,0,6,5,20,7c0,0,13,2,36,2c0,0,22,0,35,-1c0,0,12,-1,20,-4c0,0,7,-3,11,-9c0,0,3,-6,7,-15L351,145h3L539,687c0,0,4,14,10,18c0,0,7,4,19,6c0,0,13,2,37,2c0,0,21,0,34,-2c0,0,14,-2,20,-7c0,0,6,-5,6,-14c0,0,0,-9,-4,-23L420,0L330,-246c0,0,-4,-12,-22,-18c0,0,-19,-7,-56,-7Z" 
id="f2_co"
transform="scale(0.001,-0.001)" />

<path d="M429,92c0,0,47,0,80,22c0,0,33,23,54,60c0,0,20,38,30,84c0,0,10,46,10,93c0,0,0,52,-8,100c0,0,-8,48,-27,86c0,0,-19,37,-51,60c0,0,-32,22,-80,22c0,0,-24,0,-47,-7c0,0,-23,-7,-47,-23c0,0,-24,-15,-50,-40c0,0,-26,-25,-56,-62V220c0,0,51,-62,97,-95c0,0,45,-33,95,-33ZM176,-271c0,0,-18,0,-30,2c0,0,-12,1,-19,4c0,0,-7,3,-10,8c0,0,-3,4,-3,10V690c0,0,0,6,3,10c0,0,2,5,9,8c0,0,6,3,17,4c0,0,10,1,25,1c0,0,16,0,26,-1c0,0,10,-1,17,-4c0,0,6,-3,9,-7c0,0,3,-4,3,-11V601c0,0,30,31,59,54c0,0,28,23,57,39c0,0,28,15,59,23c0,0,30,8,63,8c0,0,74,0,125,-29c0,0,52,-28,84,-77c0,0,32,-50,47,-115c0,0,15,-65,15,-139c0,0,0,-88,-19,-158c0,0,-19,-70,-56,-119c0,0,-37,-49,-91,-75c0,0,-55,-26,-125,-26c0,0,-30,0,-55,6c0,0,-25,6,-50,18c0,0,-24,13,-48,32c0,0,-24,19,-51,46V-247c0,0,0,-6,-3,-10c0,0,-2,-5,-9,-8c0,0,-7,-3,-19,-4c0,0,-12,-2,-30,-2Z" 
id="f2_ay"
transform="scale(0.001,-0.001)" />

<path d="M218,-6c0,0,-24,0,-39,4c0,0,-15,3,-24,13c0,0,-8,10,-12,27c0,0,-3,16,-3,41c0,0,0,24,3,41c0,0,4,17,12,27c0,0,9,9,24,14c0,0,15,4,39,4c0,0,23,0,38,-4c0,0,15,-5,24,-14c0,0,10,-10,13,-27c0,0,3,-17,3,-41c0,0,0,-25,-3,-41c0,0,-3,-17,-13,-27c0,0,-9,-10,-24,-13c0,0,-15,-4,-38,-4Zm0,518c0,0,-24,0,-39,4c0,0,-15,5,-24,15c0,0,-8,10,-12,26c0,0,-3,16,-3,40c0,0,0,26,3,42c0,0,4,17,12,27c0,0,9,10,24,14c0,0,15,4,39,4c0,0,23,0,38,-4c0,0,15,-4,24,-14c0,0,10,-10,13,-27c0,0,3,-16,3,-42c0,0,0,-24,-3,-40c0,0,-3,-16,-13,-26c0,0,-9,-10,-24,-15c0,0,-15,-4,-38,-4Z" 
id="f2_ns"
transform="scale(0.001,-0.001)" />

<path d="M161,0c0,0,-5,0,-10,3c0,0,-4,2,-8,8c0,0,-5,6,-7,16c0,0,-2,9,-2,24c0,0,0,13,2,23c0,0,2,9,6,16c0,0,3,6,8,9c0,0,5,4,11,4H362V837L176,726c0,0,-15,-8,-23,-9c0,0,-1,-1,-3,-1c-3,0,-8,1,-11,4c0,0,-5,5,-7,16c0,0,-2,11,-2,28c0,0,0,13,1,22c0,0,1,9,4,15c0,0,2,6,6,10c0,0,4,5,11,9L374,963c0,0,3,2,7,4c0,0,5,1,11,3c0,0,7,1,16,2c0,0,9,0,22,0c0,0,18,0,30,-2c0,0,12,-1,19,-4c0,0,7,-2,9,-6c0,0,2,-5,2,-9V103H665c0,0,6,0,11,-4c0,0,5,-3,8,-9c0,0,4,-7,6,-16c0,0,2,-10,2,-23c0,0,0,-15,-3,-24c0,0,-2,-10,-6,-16c0,0,-3,-6,-8,-8c0,0,-5,-3,-10,-3Z" 
id="f2_ry"
transform="scale(0.001,-0.001)" />

<path d="M372,-4c0,0,-18,0,-30,2c0,0,-13,2,-21,3c0,0,-7,3,-10,8c0,0,-3,4,-3,10V857H36c0,0,-6,0,-11,3c0,0,-5,2,-8,9c0,0,-2,6,-4,17c0,0,-2,10,-2,24c0,0,0,14,2,25c0,0,2,11,4,17c0,0,3,7,8,10c0,0,5,3,11,3H708c0,0,6,0,11,-3c0,0,5,-3,8,-10c0,0,4,-6,5,-17c0,0,2,-11,2,-25c0,0,0,-14,-2,-24c0,0,-1,-11,-5,-17c0,0,-3,-7,-8,-9c0,0,-5,-3,-11,-3H436V19c0,0,0,-6,-3,-10c0,0,-3,-5,-10,-8c0,0,-8,-1,-20,-3c0,0,-12,-2,-31,-2Z" 
id="f2_2t"
transform="scale(0.001,-0.001)" />

<path d="M128,0c0,0,-11,0,-19,3c0,0,-8,2,-13,8c0,0,-6,6,-8,17c0,0,-3,11,-3,28c0,0,0,15,1,26c0,0,1,11,5,20c0,0,4,8,9,17c0,0,6,8,15,18L302,336c0,0,65,68,104,123c0,0,39,54,61,99c0,0,21,45,28,81c0,0,6,37,6,69c0,0,0,32,-10,61c0,0,-11,29,-30,50c0,0,-20,22,-50,35c0,0,-30,12,-69,12c0,0,-45,0,-81,-12c0,0,-37,-13,-64,-28c0,0,-27,-15,-45,-27c0,0,-19,-13,-28,-13c0,0,-5,0,-9,3c0,0,-4,3,-7,10c0,0,-2,6,-4,18c0,0,-1,11,-1,26c0,0,0,12,0,20c0,0,1,8,3,14c0,0,2,6,5,11c0,0,3,5,12,13c0,0,9,8,31,21c0,0,22,14,55,27c0,0,33,13,73,22c0,0,40,9,84,9c0,0,70,0,123,-20c0,0,53,-20,87,-54c0,0,35,-34,52,-80c0,0,17,-46,17,-97c0,0,0,-46,-8,-92c0,0,-8,-46,-35,-99c0,0,-26,-54,-76,-119c0,0,-50,-65,-133,-151L240,109H660c0,0,6,0,12,-4c0,0,5,-3,9,-10c0,0,5,-7,6,-17c0,0,2,-10,2,-23c0,0,0,-13,-2,-24c0,0,-1,-10,-5,-17c0,0,-3,-7,-9,-11c0,0,-5,-3,-12,-3Z" 
id="f2_rz"
transform="scale(0.001,-0.001)" />

<path d="M192,-4c0,0,-18,0,-30,2c0,0,-13,2,-20,3c0,0,-8,3,-11,8c0,0,-3,5,-3,10V913c0,0,0,29,15,40c0,0,16,12,33,12H610c0,0,5,0,10,-3c0,0,5,-3,9,-10c0,0,4,-6,5,-17c0,0,2,-11,2,-25c0,0,0,-14,-2,-24c0,0,-1,-11,-5,-17c0,0,-4,-7,-9,-9c0,0,-5,-3,-10,-3H256V528H591c0,0,5,0,10,-3c0,0,5,-2,8,-8c0,0,4,-6,6,-16c0,0,1,-10,1,-26c0,0,0,-14,-1,-24c0,0,-2,-10,-6,-17c0,0,-3,-6,-8,-9c0,0,-5,-4,-10,-4H256V19c0,0,0,-5,-3,-10c0,0,-3,-5,-10,-8c0,0,-7,-1,-19,-3c0,0,-12,-2,-32,-2Z" 
id="f2_13"
transform="scale(0.001,-0.001)" />

<path d="M176,-4c0,0,-18,0,-30,2c0,0,-12,1,-19,3c0,0,-7,3,-10,7c0,0,-3,4,-3,10V690c0,0,0,5,3,9c0,0,3,5,10,8c0,0,7,3,19,4c0,0,12,2,30,2c0,0,18,0,30,-2c0,0,12,-1,19,-4c0,0,7,-3,9,-8c0,0,3,-4,3,-9V18c0,0,0,-6,-3,-10c0,0,-2,-4,-9,-7c0,0,-7,-2,-19,-3c0,0,-12,-2,-30,-2Zm-1,846c0,0,-43,0,-59,15c0,0,-16,15,-16,58c0,0,0,43,16,59c0,0,17,16,61,16c0,0,43,0,59,-16c0,0,16,-15,16,-58c0,0,0,-43,-16,-58c0,0,-17,-16,-61,-16Z" 
id="f2_9q"
transform="scale(0.001,-0.001)" />

<path d="M431,92c0,0,46,0,79,22c0,0,33,23,53,60c0,0,21,37,30,83c0,0,10,46,10,93c0,0,0,51,-8,100c0,0,-8,49,-28,86c0,0,-19,37,-51,60c0,0,-32,23,-80,23c0,0,-24,0,-47,-7c0,0,-23,-7,-47,-22c0,0,-24,-16,-50,-41c0,0,-25,-24,-55,-62V219c0,0,51,-62,98,-95c0,0,46,-32,96,-32ZM443,-13c0,0,-32,0,-59,7c0,0,-27,6,-53,19c0,0,-26,14,-52,36c0,0,-27,22,-56,52V18c0,0,0,-6,-3,-10c0,0,-3,-5,-9,-7c0,0,-7,-2,-17,-3c0,0,-10,-2,-26,-2c0,0,-15,0,-25,2c0,0,-11,1,-17,3c0,0,-7,2,-9,7c0,0,-3,4,-3,10v997c0,0,0,6,3,11c0,0,3,4,10,7c0,0,7,3,19,5c0,0,12,1,30,1c0,0,18,0,30,-1c0,0,12,-2,19,-5c0,0,7,-3,9,-7c0,0,3,-5,3,-10V614c0,0,30,31,58,52c0,0,28,20,55,34c0,0,27,13,54,19c0,0,27,6,57,6c0,0,73,0,125,-30c0,0,52,-29,84,-78c0,0,32,-48,47,-114c0,0,15,-66,15,-139c0,0,0,-87,-19,-157c0,0,-19,-70,-56,-119c0,0,-37,-49,-90,-76c0,0,-54,-25,-124,-25Z" 
id="f2_7k"
transform="scale(0.001,-0.001)" />

<path d="M351,-13c0,0,-67,0,-113,22c0,0,-46,22,-75,60c0,0,-28,39,-40,90c0,0,-13,51,-13,124V690c0,0,0,6,3,10c0,0,3,4,10,7c0,0,8,4,20,5c0,0,11,1,29,1c0,0,18,0,30,-1c0,0,12,-1,19,-5c0,0,7,-3,10,-7c0,0,3,-4,3,-10V299c0,0,0,-59,9,-94c0,0,8,-36,26,-61c0,0,18,-24,44,-38c0,0,27,-14,63,-14c0,0,46,0,92,33c0,0,46,32,98,95V690c0,0,0,6,2,10c0,0,3,4,10,7c0,0,8,4,19,5c0,0,12,1,30,1c0,0,18,0,30,-1c0,0,12,-1,19,-5c0,0,7,-3,10,-7c0,0,3,-4,3,-10V18c0,0,0,-6,-2,-10c0,0,-3,-4,-10,-7c0,0,-6,-2,-17,-3c0,0,-11,-2,-27,-2c0,0,-17,0,-28,2c0,0,-10,1,-17,3c0,0,-6,3,-8,7c0,0,-3,4,-3,10v89c0,0,-57,-63,-113,-92c0,0,-56,-28,-113,-28Z" 
id="f2_c6"
transform="scale(0.001,-0.001)" />

<path d="M343,-13c0,0,-49,0,-91,8c0,0,-42,7,-75,18c0,0,-33,11,-54,22c0,0,-22,12,-27,17c0,0,-6,5,-9,10c0,0,-3,5,-5,13c0,0,-3,7,-4,18c0,0,-1,11,-1,27c0,0,0,26,5,37c0,0,6,10,15,10c0,0,7,0,27,-12c0,0,20,-12,51,-25c0,0,31,-14,72,-26c0,0,41,-12,92,-12c0,0,49,0,87,13c0,0,37,12,62,35c0,0,26,24,39,55c0,0,12,32,12,69c0,0,0,41,-16,74c0,0,-16,33,-47,57c0,0,-31,24,-76,36c0,0,-45,13,-103,13H206c0,0,-6,0,-12,3c0,0,-6,2,-10,8c0,0,-4,6,-6,16c0,0,-3,10,-3,25c0,0,0,14,2,24c0,0,2,9,7,15c0,0,4,5,9,8c0,0,5,3,12,3h84c0,0,49,0,89,12c0,0,39,13,66,37c0,0,27,24,42,57c0,0,14,33,14,74c0,0,0,30,-9,57c0,0,-10,28,-30,48c0,0,-19,20,-49,32c0,0,-31,11,-70,11c0,0,-43,0,-80,-13c0,0,-36,-13,-64,-28c0,0,-29,-15,-47,-28c0,0,-19,-13,-26,-13c0,0,-6,0,-10,2c0,0,-4,2,-6,7c0,0,-3,6,-4,16c0,0,-1,10,-1,26c0,0,0,12,0,20c0,0,1,9,3,15c0,0,3,6,6,12c0,0,3,5,10,12c0,0,7,7,28,20c0,0,22,14,54,27c0,0,32,13,73,22c0,0,41,9,89,9c0,0,67,0,118,-17c0,0,51,-18,85,-49c0,0,34,-31,51,-75c0,0,17,-44,17,-97c0,0,0,-45,-12,-84c0,0,-12,-39,-35,-70c0,0,-24,-30,-57,-51c0,0,-34,-21,-78,-30v-1c0,0,50,-5,92,-25c0,0,41,-20,71,-50c0,0,30,-29,47,-69c0,0,16,-40,16,-86c0,0,0,-66,-23,-119c0,0,-23,-54,-66,-92C593,65,550,27,486,7c0,0,-63,-20,-143,-20Z" 
id="f2_s0"
transform="scale(0.001,-0.001)" />

<path d="M604,356L436,837h-1L269,356ZM87,-4c0,0,-22,0,-36,2C51,-2,37,0,32,4c0,0,-6,5,-6,15c0,0,1,10,7,27L357,943c0,0,3,8,7,13c0,0,5,6,15,9c0,0,9,3,23,4c0,0,15,1,37,1c0,0,24,0,40,-1c0,0,16,-1,25,-4c0,0,10,-3,15,-9c0,0,5,-5,8,-14L851,45c0,0,6,-16,7,-26c0,0,0,-10,-6,-16c0,0,-6,-4,-20,-5c0,0,-14,-2,-37,-2c0,0,-23,0,-37,1c0,0,-14,1,-21,3c0,0,-7,3,-10,7c0,0,-3,5,-6,11L638,253H236L157,21c0,0,-2,-6,-6,-11c0,0,-3,-5,-10,-9c0,0,-7,-2,-21,-3c0,0,-13,-2,-33,-2Z" 
id="f2_5"
transform="scale(0.001,-0.001)" />

<path d="M366,92c0,0,25,0,48,7c0,0,22,6,46,22c0,0,24,16,50,41c0,0,26,24,56,61V492c0,0,-51,62,-97,94c0,0,-47,33,-98,33c0,0,-47,0,-79,-22c0,0,-33,-23,-54,-59c0,0,-20,-37,-30,-83c0,0,-9,-47,-9,-94c0,0,0,-51,8,-100c0,0,8,-48,27,-86c0,0,19,-38,52,-60c0,0,32,-23,80,-23ZM345,-13c0,0,-74,0,-127,28c0,0,-52,29,-84,78c0,0,-33,49,-48,115c0,0,-15,66,-15,139c0,0,0,86,19,156c0,0,19,70,55,119c0,0,37,50,91,76c0,0,54,27,125,27c0,0,59,0,108,-26c0,0,49,-26,97,-76v390c0,0,0,5,2,10c0,0,3,4,10,7c0,0,8,3,19,5c0,0,12,1,30,1c0,0,18,0,30,-1c0,0,12,-2,19,-5c0,0,7,-3,10,-7c0,0,3,-5,3,-10V18c0,0,0,-6,-2,-10c0,0,-3,-5,-9,-7c0,0,-7,-2,-17,-3c0,0,-10,-2,-25,-2c0,0,-16,0,-26,2c0,0,-11,1,-18,3c0,0,-6,2,-9,7c0,0,-3,4,-3,10v90c0,0,-53,-58,-110,-90c0,0,-58,-31,-125,-31Z" 
id="f2_7v"
transform="scale(0.001,-0.001)" />

<path d="M346,-4c0,0,-23,0,-38,2c0,0,-15,1,-24,3c0,0,-9,3,-15,8c0,0,-5,6,-8,13L33,660c0,0,-3,9,-5,15c0,0,-2,7,-2,11c0,0,0,3,0,5c0,0,0,6,3,11c0,0,3,4,10,7c0,0,7,2,18,3c0,0,12,1,29,1c0,0,22,0,35,-1c0,0,13,-1,20,-4c0,0,7,-3,10,-8c0,0,4,-4,7,-11L347,135l3,-9l2,9L540,689c0,0,1,7,5,11c0,0,3,5,11,8c0,0,7,3,19,4c0,0,12,1,32,1c0,0,18,0,29,-1c0,0,11,-1,17,-4c0,0,7,-3,9,-7c0,0,3,-4,3,-10c0,0,0,-3,-1,-6c0,0,0,-4,-1,-7c0,0,0,-4,-2,-8c0,0,-1,-5,-2,-10L430,22c0,0,-3,-8,-8,-13c0,0,-5,-6,-15,-9c0,0,-9,-2,-24,-3c0,0,-15,-1,-37,-1Z" 
id="f2_ch"
transform="scale(0.001,-0.001)" />

<path d="M176,-4c0,0,-18,0,-30,2c0,0,-12,1,-19,3c0,0,-7,3,-10,7c0,0,-3,4,-3,10V690c0,0,0,6,3,10c0,0,2,4,9,7c0,0,6,4,17,5c0,0,10,1,27,1c0,0,17,0,28,-1c0,0,10,-1,16,-5c0,0,6,-3,9,-7c0,0,3,-4,3,-10V601c0,0,56,64,112,94c0,0,57,30,114,30c0,0,67,0,113,-23c0,0,46,-23,74,-61c0,0,29,-38,41,-89c0,0,12,-52,12,-123V18c0,0,0,-6,-3,-10c0,0,-3,-4,-9,-7c0,0,-7,-2,-19,-3c0,0,-12,-2,-30,-2c0,0,-19,0,-30,2c0,0,-12,1,-19,3c0,0,-7,3,-10,7c0,0,-3,4,-3,10V412c0,0,0,58,-9,93c0,0,-9,35,-26,61c0,0,-17,25,-44,38c0,0,-27,14,-63,14c0,0,-46,0,-93,-33c0,0,-46,-33,-97,-96V18c0,0,0,-6,-3,-10c0,0,-2,-4,-9,-7c0,0,-7,-2,-19,-3c0,0,-12,-2,-30,-2Z" 
id="f2_af"
transform="scale(0.001,-0.001)" />

<path d="M337,115c0,0,39,0,73,21c0,0,33,20,67,59V308H405c0,0,-45,0,-77,-7c0,0,-32,-6,-53,-20c0,0,-20,-13,-29,-32c0,0,-9,-19,-9,-44c0,0,0,-42,26,-66c0,0,27,-24,74,-24ZM296,-17c0,0,-53,0,-98,14c0,0,-44,13,-77,40c0,0,-32,28,-50,68c0,0,-18,40,-18,94c0,0,0,58,23,101c0,0,22,43,68,71c0,0,45,28,112,42c0,0,67,13,156,13h65v40c0,0,0,32,-6,55c0,0,-7,24,-21,39c0,0,-15,16,-39,23c0,0,-24,8,-60,8c0,0,-47,0,-84,-11c0,0,-37,-10,-66,-23c0,0,-28,-13,-47,-23c0,0,-19,-11,-31,-11c0,0,-9,0,-15,5c0,0,-6,6,-10,15c0,0,-5,10,-7,24c0,0,-2,14,-2,31c0,0,0,23,4,37c0,0,3,13,14,24c0,0,10,11,36,24c0,0,27,13,62,25c0,0,35,11,76,18c0,0,42,7,86,7c0,0,78,0,134,-15c0,0,55,-15,91,-47c0,0,36,-32,53,-82c0,0,16,-50,16,-118V23c0,0,0,-11,-7,-17c0,0,-8,-6,-24,-7c0,0,-16,-3,-47,-3c0,0,-34,0,-49,3c0,0,-15,1,-21,7c0,0,-7,6,-7,17V76C506,76,465,32,412,7c0,0,-52,-24,-116,-24Z" 
id="f1_77"
transform="scale(0.001,-0.001)" />

<path d="M188,-4c0,0,-28,0,-46,2c0,0,-18,2,-28,5c0,0,-11,3,-16,9c0,0,-4,5,-4,13V691c0,0,0,7,4,13c0,0,3,5,13,9c0,0,10,4,25,6c0,0,15,2,38,2c0,0,24,0,40,-2c0,0,15,-2,24,-6c0,0,9,-4,12,-9c0,0,4,-6,4,-13V608c0,0,26,37,49,61c0,0,23,25,44,39c0,0,21,14,42,20c0,0,21,5,42,5c0,0,10,0,21,-1c0,0,11,-1,23,-4c0,0,12,-2,21,-5c0,0,9,-4,13,-8c0,0,4,-3,6,-8c0,0,2,-4,3,-12c0,0,2,-8,2,-24c0,0,1,-15,1,-42c0,0,0,-27,-1,-44c0,0,-2,-17,-5,-27c0,0,-3,-10,-8,-13c0,0,-5,-4,-12,-4c0,0,-6,0,-13,3c0,0,-8,2,-17,5c0,0,-10,3,-21,6c0,0,-11,2,-24,2c0,0,-16,0,-32,-6c0,0,-15,-6,-32,-20c0,0,-17,-13,-35,-36c0,0,-19,-22,-39,-55V25c0,0,0,-8,-5,-13c0,0,-4,-6,-15,-9c0,0,-11,-3,-29,-5c0,0,-18,-2,-45,-2Z" 
id="f1_b1"
transform="scale(0.001,-0.001)" />

<path d="M188,-4c0,0,-28,0,-46,2c0,0,-18,2,-28,5c0,0,-11,3,-16,9c0,0,-4,5,-4,13V691c0,0,0,7,4,13c0,0,3,5,13,9c0,0,10,4,25,6c0,0,15,2,38,2c0,0,24,0,40,-2c0,0,15,-2,24,-6c0,0,9,-4,12,-9c0,0,4,-6,4,-13V614c0,0,55,60,110,89c0,0,55,30,115,30c0,0,41,0,74,-8c0,0,33,-9,59,-25c0,0,26,-16,44,-38c0,0,19,-23,32,-50c0,0,30,32,58,55c0,0,29,23,57,38c0,0,28,14,56,21c0,0,28,7,57,7c0,0,66,0,112,-22c0,0,45,-22,73,-61c0,0,28,-38,40,-90c0,0,12,-51,12,-109V25c0,0,0,-8,-5,-13c0,0,-4,-6,-15,-9c0,0,-10,-3,-28,-5c0,0,-18,-2,-46,-2c0,0,-28,0,-46,2c0,0,-18,2,-29,5c0,0,-11,3,-15,9c0,0,-4,6,-4,13V420c0,0,0,34,-6,61c0,0,-7,28,-20,48c0,0,-13,19,-32,30c0,0,-20,11,-47,11c0,0,-34,0,-68,-26c0,0,-34,-26,-74,-76V25c0,0,0,-7,-5,-13c0,0,-4,-6,-15,-9c0,0,-11,-3,-29,-5c0,0,-18,-2,-45,-2c0,0,-27,0,-45,2c0,0,-18,2,-29,5c0,0,-11,3,-16,9c0,0,-4,6,-4,13V420c0,0,0,34,-6,61c0,0,-7,28,-19,48c0,0,-13,19,-33,30c0,0,-21,11,-48,11c0,0,-34,0,-68,-26c0,0,-35,-26,-74,-76V25c0,0,0,-7,-5,-13c0,0,-4,-6,-15,-9c0,0,-11,-3,-29,-5c0,0,-18,-2,-45,-2Z" 
id="f1_ae"
transform="scale(0.001,-0.001)" />

<path d="M176,-4c0,0,-18,0,-30,2c0,0,-12,1,-19,3c0,0,-7,3,-10,7c0,0,-3,4,-3,10V690c0,0,0,6,3,10c0,0,2,4,9,7c0,0,6,4,17,5c0,0,10,1,27,1c0,0,17,0,28,-1c0,0,10,-1,16,-5c0,0,6,-3,9,-7c0,0,3,-4,3,-10V601c0,0,56,64,110,94c0,0,53,30,108,30c0,0,42,0,75,-10c0,0,33,-10,58,-28c0,0,26,-17,44,-42c0,0,18,-24,30,-55c0,0,33,37,63,63c0,0,31,26,59,41c0,0,28,16,54,23c0,0,27,8,53,8c0,0,65,0,109,-23c0,0,44,-23,71,-61c0,0,28,-38,39,-89c0,0,12,-52,12,-108V18c0,0,0,-6,-3,-10c0,0,-3,-4,-10,-7c0,0,-7,-2,-19,-3c0,0,-12,-2,-29,-2c0,0,-19,0,-31,2c0,0,-12,1,-19,3c0,0,-7,3,-10,7c0,0,-3,4,-3,10V427c0,0,0,43,-8,78c0,0,-7,35,-23,61c0,0,-17,25,-42,38c0,0,-25,14,-60,14c0,0,-42,0,-85,-33c0,0,-43,-33,-94,-96V18c0,0,0,-6,-3,-10c0,0,-3,-4,-11,-7c0,0,-7,-2,-19,-3c0,0,-11,-2,-29,-2c0,0,-18,0,-30,2c0,0,-12,1,-19,3c0,0,-7,3,-10,7c0,0,-3,4,-3,10V427c0,0,0,43,-8,78c0,0,-8,35,-24,61c0,0,-17,25,-42,38c0,0,-25,14,-59,14c0,0,-43,0,-86,-33c0,0,-44,-33,-95,-96V18c0,0,0,-6,-3,-10c0,0,-2,-4,-9,-7c0,0,-7,-2,-19,-3c0,0,-12,-2,-30,-2Z" 
id="f2_ae"
transform="scale(0.001,-0.001)" />

<path d="M176,-4c0,0,-18,0,-30,2c0,0,-12,1,-19,3c0,0,-7,3,-10,7c0,0,-3,4,-3,10v997c0,0,0,6,3,11c0,0,3,4,10,7c0,0,7,3,19,5c0,0,12,1,30,1c0,0,18,0,30,-1c0,0,12,-2,19,-5c0,0,7,-3,9,-7c0,0,3,-5,3,-11V18c0,0,0,-6,-3,-10c0,0,-2,-4,-9,-7c0,0,-7,-2,-19,-3c0,0,-12,-2,-30,-2Z" 
id="f2_a8"
transform="scale(0.001,-0.001)" />

<path d="M346,-177c0,0,56,0,94,11c0,0,37,11,60,28c0,0,24,18,34,41c0,0,10,23,10,49c0,0,0,43,-36,65c0,0,-35,23,-95,25L239,48c0,0,-24,-19,-39,-35c0,0,-15,-16,-24,-31c0,0,-9,-16,-12,-30c0,0,-4,-15,-4,-31c0,0,0,-48,49,-73c0,0,50,-25,137,-25Zm-6,512c0,0,36,0,63,12c0,0,27,12,44,32c0,0,18,21,26,48c0,0,9,27,9,56c0,0,0,69,-38,107c0,0,-37,39,-107,39c0,0,-35,0,-62,-12c0,0,-26,-12,-44,-33c0,0,-17,-21,-26,-48c0,0,-8,-28,-8,-58c0,0,0,-66,37,-104c0,0,38,-39,106,-39Zm0,-606c0,0,-81,0,-138,14c0,0,-57,14,-94,38c0,0,-36,24,-52,57c0,0,-17,33,-17,72c0,0,0,24,6,47c0,0,6,24,18,43c0,0,13,21,31,40c0,0,18,19,42,38c0,0,-36,19,-54,47c0,0,-17,28,-17,61c0,0,0,45,18,81c0,0,19,36,46,64c0,0,-23,28,-36,62c0,0,-14,35,-14,84c0,0,0,58,20,104c0,0,19,45,53,77c0,0,35,31,83,48c0,0,48,17,105,17c0,0,30,0,57,-4c0,0,26,-3,49,-9H649c0,0,13,0,19,-12c0,0,7,-13,7,-38c0,0,0,-26,-7,-37c0,0,-7,-12,-19,-12H553c0,0,26,-27,37,-60c0,0,10,-32,10,-68c0,0,0,-58,-18,-103c0,0,-19,-45,-54,-76c0,0,-34,-31,-82,-47c0,0,-48,-16,-106,-16c0,0,-41,0,-78,10c0,0,-37,11,-57,28c0,0,-14,-14,-22,-31c0,0,-9,-17,-9,-39c0,0,0,-27,24,-44c0,0,25,-17,65,-18l175,-8c0,0,50,-1,92,-14c0,0,41,-12,72,-35c0,0,31,-22,48,-55c0,0,17,-34,17,-76c0,0,0,-47,-20,-88c0,0,-19,-42,-59,-74c0,0,-40,-31,-102,-50c0,0,-61,-18,-146,-18Z" 
id="f2_9d"
transform="scale(0.001,-0.001)" />

<path d="M69,-215c0,0,-12,0,-21,1c0,0,-8,1,-12,4c0,0,-4,2,-4,7c0,0,-1,4,2,10L134,11v96c0,0,0,20,4,32c0,0,4,12,13,18c0,0,9,6,22,8c0,0,13,2,33,2c0,0,19,0,32,-2c0,0,13,-2,22,-8c0,0,9,-6,13,-18c0,0,4,-12,4,-32c0,0,0,-23,-2,-43c0,0,-3,-19,-8,-36c0,0,-5,-17,-14,-33c0,0,-8,-17,-21,-36L130,-194c0,0,-4,-5,-9,-9c0,0,-5,-4,-12,-7c0,0,-7,-3,-16,-4c0,0,-9,-1,-24,-1Z" 
id="f2_nq"
transform="scale(0.001,-0.001)" />

<path d="M367,-13c0,0,-73,0,-129,23c0,0,-56,24,-93,70c0,0,-38,46,-58,112c0,0,-20,67,-20,154c0,0,0,99,25,171c0,0,24,71,66,116c0,0,42,46,99,68c0,0,58,22,124,22c0,0,32,0,62,-6c0,0,31,-6,56,-16c0,0,25,-10,45,-22c0,0,20,-13,29,-22c0,0,9,-9,12,-14c0,0,3,-5,6,-13c0,0,2,-7,3,-16c0,0,0,-9,0,-22c0,0,0,-29,-6,-41c0,0,-7,-11,-17,-11c0,0,-11,0,-25,12c0,0,-15,12,-37,27c0,0,-23,15,-55,28c0,0,-31,12,-75,12c0,0,-88,0,-136,-68c0,0,-47,-68,-47,-198c0,0,0,-65,12,-114c0,0,12,-49,36,-81c0,0,24,-33,59,-49c0,0,35,-16,79,-16c0,0,43,0,75,13c0,0,32,14,56,30c0,0,23,16,39,29c0,0,16,13,25,13c0,0,5,0,9,-3c0,0,4,-3,7,-10c0,0,2,-7,3,-18c0,0,1,-11,1,-26c0,0,0,-12,0,-22c0,0,-1,-9,-3,-15c0,0,-2,-7,-4,-12c0,0,-3,-4,-12,-14c0,0,-10,-9,-32,-23c0,0,-22,-14,-50,-24C496,11,468,0,435,-6c0,0,-33,-7,-68,-7Z" 
id="f2_7l"
transform="scale(0.001,-0.001)" />

<path d="M273,-13c0,0,-42,0,-73,9c0,0,-30,8,-51,27c0,0,-21,19,-31,48c0,0,-10,29,-10,69c0,0,0,9,1,20c0,0,0,11,2,23c0,0,2,12,4,24c0,0,2,12,4,22l76,378H101c0,0,-8,0,-12,5c0,0,-5,5,-5,19c0,0,0,11,2,25c0,0,3,13,7,25c0,0,4,12,12,21c0,0,7,8,16,8h94l32,160c0,0,1,5,5,9c0,0,4,5,12,8c0,0,7,4,20,5c0,0,12,2,30,2c0,0,18,0,30,-2c0,0,11,-1,17,-5c0,0,7,-3,8,-8c0,0,2,-4,2,-9L339,710H510c0,0,12,0,15,-8c0,0,4,-9,4,-19c0,0,0,-7,-1,-15c0,0,-1,-8,-3,-16c0,0,-2,-8,-6,-16c0,0,-3,-9,-8,-15c0,0,-4,-6,-9,-10c0,0,-5,-4,-12,-4H318L243,232c0,0,-3,-15,-5,-35c0,0,-3,-19,-3,-32c0,0,0,-38,16,-56c0,0,16,-17,53,-17c0,0,20,0,35,3c0,0,15,4,26,7c0,0,10,4,19,7c0,0,8,4,14,4c0,0,6,0,9,-4c0,0,4,-4,4,-16c0,0,0,-9,-2,-21c0,0,-2,-12,-5,-23c0,0,-3,-11,-8,-20c0,0,-4,-9,-9,-14c0,0,-6,-5,-18,-11c0,0,-12,-4,-28,-8c0,0,-16,-4,-33,-6c0,0,-18,-3,-35,-3Z" 
id="f0_bf"
transform="scale(0.001,-0.001)" />

<path d="M324,-4c0,0,-23,0,-37,2c0,0,-15,1,-24,3c0,0,-9,3,-14,8c0,0,-4,6,-7,13L46,660c0,0,-4,11,-5,18c0,0,-2,8,-2,13c0,0,0,7,3,11c0,0,3,4,10,7c0,0,8,2,19,3c0,0,12,1,30,1c0,0,20,0,33,-1c0,0,13,-1,20,-4c0,0,6,-3,9,-8c0,0,3,-4,5,-11L330,136l2,-7l1,7L482,689c0,0,1,7,5,11c0,0,3,5,10,8c0,0,6,3,18,4c0,0,12,1,31,1c0,0,18,0,29,-1c0,0,12,-1,18,-4c0,0,7,-3,10,-7c0,0,3,-5,5,-11L768,136l1,-7l1,7L930,689c0,0,1,7,5,11c0,0,3,5,10,8c0,0,7,3,20,4c0,0,12,1,31,1c0,0,18,0,29,-1c0,0,11,-1,17,-4c0,0,6,-3,9,-6c0,0,3,-4,3,-11c0,0,0,-5,-2,-13c0,0,-1,-7,-5,-18L849,22c0,0,-2,-8,-7,-13c0,0,-5,-6,-13,-9c0,0,-9,-2,-24,-3c0,0,-15,-1,-37,-1c0,0,-23,0,-39,2c0,0,-15,1,-25,3c0,0,-9,3,-14,8c0,0,-4,6,-6,13L543,510l-2,6l-2,-6L409,22c0,0,-3,-8,-7,-13c0,0,-5,-6,-15,-9c0,0,-10,-2,-25,-3c0,0,-15,-1,-38,-1Z" 
id="f2_ci"
transform="scale(0.001,-0.001)" />

<path d="M140,0V163H285V0Z" 
id="f3_i"
transform="scale(0.001,-0.001)" />

<path d="M192,-4c0,0,-18,0,-30,2c0,0,-13,2,-20,3c0,0,-8,3,-11,8c0,0,-3,4,-3,10V946c0,0,0,6,3,11c0,0,4,4,12,7c0,0,7,2,20,4c0,0,12,2,29,2c0,0,19,0,31,-2c0,0,13,-2,20,-4c0,0,7,-3,10,-7c0,0,3,-5,3,-11V19c0,0,0,-6,-3,-10c0,0,-3,-5,-10,-8c0,0,-7,-1,-20,-3c0,0,-12,-2,-31,-2Z" 
id="f2_1c"
transform="scale(0.001,-0.001)" />

<path d="M204,-4c0,0,-28,0,-47,2c0,0,-19,2,-31,6c0,0,-11,4,-16,10c0,0,-4,6,-4,14V903c0,0,0,33,16,48c0,0,17,14,42,14H618c0,0,7,0,12,-4c0,0,5,-4,9,-13c0,0,5,-10,6,-25c0,0,2,-16,2,-38c0,0,0,-23,-2,-38c0,0,-1,-15,-6,-24c0,0,-4,-9,-9,-14c0,0,-5,-4,-12,-4H302V545H599c0,0,6,0,12,-4c0,0,5,-4,9,-13c0,0,4,-9,6,-24c0,0,2,-15,2,-37c0,0,0,-22,-2,-37c0,0,-2,-15,-6,-25c0,0,-4,-10,-9,-14c0,0,-6,-4,-12,-4H302V28c0,0,0,-8,-4,-14c0,0,-5,-6,-16,-10c0,0,-12,-4,-30,-6c0,0,-19,-2,-48,-2Z" 
id="f1_13"
transform="scale(0.001,-0.001)" />

<path d="M188,-4c0,0,-28,0,-46,2c0,0,-18,2,-28,5c0,0,-11,3,-16,9c0,0,-4,5,-4,13V689c0,0,0,8,4,13c0,0,5,6,16,10c0,0,10,4,28,6c0,0,18,3,46,3c0,0,27,0,45,-3c0,0,18,-2,29,-6c0,0,11,-4,15,-10c0,0,5,-5,5,-13V25c0,0,0,-8,-5,-13c0,0,-4,-6,-15,-9c0,0,-11,-3,-29,-5c0,0,-18,-2,-45,-2Zm-1,820c0,0,-63,0,-85,21c0,0,-22,21,-22,75c0,0,0,57,23,79c0,0,23,22,86,22c0,0,63,0,85,-21c0,0,22,-21,22,-76c0,0,0,-56,-23,-78c0,0,-23,-22,-86,-22Z" 
id="f1_9q"
transform="scale(0.001,-0.001)" />

<path d="M433,142c0,0,37,0,62,18c0,0,26,19,42,49c0,0,17,30,25,68c0,0,7,38,7,76c0,0,0,43,-6,82c0,0,-7,40,-22,71c0,0,-16,30,-41,49c0,0,-25,18,-63,18c0,0,-19,0,-37,-5c0,0,-18,-5,-37,-18c0,0,-19,-13,-39,-33c0,0,-20,-20,-42,-50V246c0,0,39,-51,75,-78c0,0,37,-26,76,-26ZM477,-17c0,0,-33,0,-63,7c0,0,-29,6,-55,19c0,0,-27,14,-52,36c0,0,-26,22,-53,52V25c0,0,0,-8,-4,-14c0,0,-4,-5,-13,-9c0,0,-10,-3,-25,-4c0,0,-16,-2,-38,-2c0,0,-24,0,-39,2c0,0,-15,1,-24,4c0,0,-10,4,-13,9c0,0,-4,6,-4,14v981c0,0,0,8,4,14c0,0,5,6,16,10c0,0,10,4,28,6c0,0,18,2,46,2c0,0,27,0,45,-2c0,0,18,-2,29,-6c0,0,11,-4,15,-10c0,0,5,-6,5,-14V639c0,0,25,25,50,43c0,0,26,18,51,29c0,0,25,12,52,17c0,0,27,5,57,5c0,0,74,0,125,-29c0,0,52,-30,84,-80c0,0,33,-50,48,-116c0,0,15,-67,15,-141c0,0,0,-89,-20,-160c0,0,-19,-71,-56,-121C688,86,652,36,598,9c0,0,-53,-26,-121,-26Z" 
id="f1_7k"
transform="scale(0.001,-0.001)" />

<path d="M334,-17c0,0,-69,0,-115,22c0,0,-47,22,-76,61c0,0,-28,39,-41,90c0,0,-12,51,-12,127V691c0,0,0,7,4,13c0,0,4,5,15,9c0,0,11,4,29,6c0,0,19,2,45,2c0,0,28,0,46,-2c0,0,18,-2,29,-6c0,0,11,-4,15,-9c0,0,5,-6,5,-13V314c0,0,0,-52,6,-79c0,0,7,-28,21,-48c0,0,14,-20,35,-30c0,0,21,-11,49,-11c0,0,36,0,72,26c0,0,36,26,77,76V691c0,0,0,7,4,13c0,0,4,5,15,9c0,0,11,4,29,6c0,0,18,2,45,2c0,0,28,0,46,-2c0,0,18,-2,28,-6c0,0,11,-4,15,-9c0,0,5,-6,5,-13V25c0,0,0,-8,-4,-13c0,0,-4,-6,-13,-9c0,0,-10,-3,-25,-5c0,0,-15,-2,-38,-2c0,0,-25,0,-40,2c0,0,-16,2,-25,5c0,0,-9,3,-12,9c0,0,-4,5,-4,13v77c0,0,-55,-60,-112,-90c0,0,-57,-29,-118,-29Z" 
id="f1_c6"
transform="scale(0.001,-0.001)" />

<path d="M176,-4c0,0,-18,0,-30,2c0,0,-12,1,-19,3c0,0,-7,3,-10,7c0,0,-3,4,-3,10v997c0,0,0,6,3,11c0,0,3,4,10,7c0,0,7,3,19,5c0,0,12,1,30,1c0,0,18,0,30,-1c0,0,12,-2,19,-5c0,0,7,-3,9,-7c0,0,3,-5,3,-11V408L492,687c0,0,6,7,12,12c0,0,7,5,16,8c0,0,10,4,22,5c0,0,13,1,31,1c0,0,19,0,31,-1c0,0,13,-1,21,-4c0,0,8,-3,11,-7c0,0,3,-4,3,-11c0,0,0,-9,-4,-18c0,0,-5,-8,-16,-20L375,408L648,54c0,0,10,-13,14,-20c0,0,4,-8,4,-15c0,0,0,-6,-3,-10c0,0,-3,-5,-10,-8c0,0,-7,-2,-20,-3c0,0,-13,-2,-32,-2c0,0,-20,0,-33,1c0,0,-13,1,-22,3c0,0,-9,3,-15,7c0,0,-5,5,-10,12L237,391V18c0,0,0,-6,-3,-10c0,0,-2,-4,-9,-7c0,0,-7,-2,-19,-3c0,0,-12,-2,-30,-2Z" 
id="f2_a5"
transform="scale(0.001,-0.001)" />

<path d="M79,326c0,0,-14,0,-20,11c0,0,-7,12,-7,40c0,0,0,29,7,40c0,0,6,11,20,11H390c0,0,6,0,11,-2c0,0,5,-2,8,-9c0,0,4,-6,6,-16c0,0,2,-9,2,-24c0,0,0,-29,-7,-40c0,0,-7,-11,-20,-11Z" 
id="f2_oj"
transform="scale(0.001,-0.001)" />

<path d="M46,0c0,0,-2,48,16,93c0,0,27,74,88,146c0,0,61,71,176,165c0,0,178,146,241,232c0,0,63,85,63,161c0,0,0,80,-57,135c0,0,-58,55,-149,55c0,0,-98,0,-156,-59c0,0,-58,-58,-59,-160L71,782c0,0,15,154,107,235c0,0,93,81,249,81c0,0,157,0,249,-87c0,0,92,-88,92,-217c0,0,0,-65,-27,-129c0,0,-27,-63,-89,-133c0,0,-62,-70,-207,-193C445,339,324,238,290,202c0,0,-35,-36,-57,-73H770V0Z" 
id="f4_m"
transform="scale(0.001,-0.001)" />


</defs>
</svg>