<?xml version="1.0" encoding="UTF-8" standalone="no"?>
<!DOCTYPE svg PUBLIC "-//W3C//DTD SVG 1.1//EN"
"http://www.w3.org/Graphics/SVG/1.1/DTD/svg11.dtd">
<svg viewBox="0 0 909 1286" version="1.1" xmlns="http://www.w3.org/2000/svg" xmlns:xlink="http://www.w3.org/1999/xlink">
<defs>
<style type="text/css"><![CDATA[
.g0_68{
fill: #FFFFFF;
}
]]></style>
</defs>
<path fill-rule="evenodd" d="M52.8,75.9H856.9V55H52.8V75.9Z" class="g0_68" />
<g fill="#000000" >
<use xlink:href="#f0_1j" transform="matrix(12,0,0,12,55,71.9)" />
<use xlink:href="#f0_27" transform="matrix(12,0,0,12,65.3,71.9)" />
<use xlink:href="#f0_25" transform="matrix(12,0,0,12,74.8,71.9)" />
<use xlink:href="#f0_2a" transform="matrix(12,0,0,12,79.6,71.9)" />
<use xlink:href="#f0_24" transform="matrix(12,0,0,12,93.1,71.9)" />
<use xlink:href="#f0_1x" transform="matrix(12,0,0,12,101.9,71.9)" />
<use xlink:href="#f0_2f" transform="matrix(12,0,0,12,110.3,71.9)" />
<use xlink:href="#f0_2c" transform="matrix(12,0,0,12,122.1,71.9)" />
<use xlink:href="#f0_28" transform="matrix(12,0,0,12,131.7,71.9)" />
<use xlink:href="#f0_1x" transform="matrix(12,0,0,12,136.1,71.9)" />
<use xlink:href="#f0_1z" transform="matrix(12,0,0,12,144.5,71.9)" />
<use xlink:href="#f0_2b" transform="matrix(12,0,0,12,152.5,71.9)" />
<use xlink:href="#f0_25" transform="matrix(12,0,0,12,162,71.9)" />
<use xlink:href="#f0_20" transform="matrix(12,0,0,12,166.4,71.9)" />
<use xlink:href="#f0_2f" transform="matrix(12,0,0,12,180.4,71.9)" />
<use xlink:href="#f0_1z" transform="matrix(12,0,0,12,187.7,71.9)" />
<use xlink:href="#f0_1x" transform="matrix(12,0,0,12,195.7,71.9)" />
<use xlink:href="#f0_28" transform="matrix(12,0,0,12,204.2,71.9)" />
<use xlink:href="#f0_21" transform="matrix(12,0,0,12,208.9,71.9)" />
<use xlink:href="#f0_2f" transform="matrix(12,0,0,12,217,71.9)" />
<use xlink:href="#f0_i" transform="matrix(12,0,0,12,224,71.9)" />
</g>
<path fill-rule="evenodd" d="M52.8,97.2H856.9V75.9H52.8V97.2Z" class="g0_68" />
<path fill-rule="evenodd" d="M52.8,281.7H856.9V97.2H52.8V281.7Z" class="g0_68" />
<image preserveAspectRatio="none" x="55" y="97" width="278" height="185" xlink:href="img/1.png" />
<path fill-rule="evenodd" d="M52.8,302.9H856.9V281.7H52.8v21.2Z" class="g0_68" />
<g fill="#000000" >
<use xlink:href="#f0_1a" transform="matrix(12,0,0,12,55,298.5)" />
<use xlink:href="#f0_1x" transform="matrix(12,0,0,12,62,298.5)" />
<use xlink:href="#f0_2j" transform="matrix(12,0,0,12,70.1,298.5)" />
<use xlink:href="#f0_1z" transform="matrix(12,0,0,12,88,298.5)" />
<use xlink:href="#f0_2b" transform="matrix(12,0,0,12,96.1,298.5)" />
<use xlink:href="#f0_2a" transform="matrix(12,0,0,12,105.6,298.5)" />
<use xlink:href="#f0_2g" transform="matrix(12,0,0,12,114.4,298.5)" />
<use xlink:href="#f0_1x" transform="matrix(12,0,0,12,119.9,298.5)" />
<use xlink:href="#f0_25" transform="matrix(12,0,0,12,127.9,298.5)" />
<use xlink:href="#f0_2a" transform="matrix(12,0,0,12,132.7,298.5)" />
<use xlink:href="#f0_2f" transform="matrix(12,0,0,12,141.9,298.5)" />
<use xlink:href="#f0_2g" transform="matrix(12,0,0,12,153.6,298.5)" />
<use xlink:href="#f0_21" transform="matrix(12,0,0,12,159.1,298.5)" />
<use xlink:href="#f0_21" transform="matrix(12,0,0,12,167.1,298.5)" />
<use xlink:href="#f0_2g" transform="matrix(12,0,0,12,174.8,298.5)" />
<use xlink:href="#f0_24" transform="matrix(12,0,0,12,180.3,298.5)" />
<use xlink:href="#f0_g" transform="matrix(12,0,0,12,189.1,298.5)" />
<use xlink:href="#f0_2j" transform="matrix(12,0,0,12,198.6,298.5)" />
<use xlink:href="#f0_24" transform="matrix(12,0,0,12,211.9,298.5)" />
<use xlink:href="#f0_25" transform="matrix(12,0,0,12,221,298.5)" />
<use xlink:href="#f0_1z" transform="matrix(12,0,0,12,225.8,298.5)" />
<use xlink:href="#f0_24" transform="matrix(12,0,0,12,234.2,298.5)" />
<use xlink:href="#f0_1x" transform="matrix(12,0,0,12,247.7,298.5)" />
<use xlink:href="#f0_2e" transform="matrix(12,0,0,12,255.8,298.5)" />
<use xlink:href="#f0_21" transform="matrix(12,0,0,12,262,298.5)" />
<use xlink:href="#f0_29" transform="matrix(12,0,0,12,275.2,298.5)" />
<use xlink:href="#f0_2b" transform="matrix(12,0,0,12,288.7,298.5)" />
<use xlink:href="#f0_20" transform="matrix(12,0,0,12,298.3,298.5)" />
<use xlink:href="#f0_25" transform="matrix(12,0,0,12,307.4,298.5)" />
<use xlink:href="#f0_22" transform="matrix(12,0,0,12,312.2,298.5)" />
<use xlink:href="#f0_25" transform="matrix(12,0,0,12,318.4,298.5)" />
<use xlink:href="#f0_21" transform="matrix(12,0,0,12,323.2,298.5)" />
<use xlink:href="#f0_20" transform="matrix(12,0,0,12,331.2,298.5)" />
<use xlink:href="#f0_2c" transform="matrix(12,0,0,12,345.2,298.5)" />
<use xlink:href="#f0_28" transform="matrix(12,0,0,12,354.7,298.5)" />
<use xlink:href="#f0_1x" transform="matrix(12,0,0,12,359.4,298.5)" />
<use xlink:href="#f0_1z" transform="matrix(12,0,0,12,367.5,298.5)" />
<use xlink:href="#f0_2b" transform="matrix(12,0,0,12,375.6,298.5)" />
<use xlink:href="#f0_25" transform="matrix(12,0,0,12,385.5,298.5)" />
<use xlink:href="#f0_20" transform="matrix(12,0,0,12,389.9,298.5)" />
<use xlink:href="#f0_2f" transform="matrix(12,0,0,12,403.8,298.5)" />
<use xlink:href="#f0_1z" transform="matrix(12,0,0,12,410.7,298.5)" />
<use xlink:href="#f0_1x" transform="matrix(12,0,0,12,418.8,298.5)" />
<use xlink:href="#f0_28" transform="matrix(12,0,0,12,427.2,298.5)" />
<use xlink:href="#f0_21" transform="matrix(12,0,0,12,432,298.5)" />
<use xlink:href="#f0_2f" transform="matrix(12,0,0,12,440.4,298.5)" />
<use xlink:href="#f0_i" transform="matrix(12,0,0,12,447.4,298.5)" />
</g>
<path fill-rule="evenodd" d="M52.8,323.8H856.9V302.9H52.8v20.9Z" class="g0_68" />
<g fill="#000000" >
<use xlink:href="#f0_1d" transform="matrix(12,0,0,12,55,319.8)" />
<use xlink:href="#f0_2b" transform="matrix(12,0,0,12,71.2,319.8)" />
<use xlink:href="#f0_2f" transform="matrix(12,0,0,12,80.7,319.8)" />
<use xlink:href="#f0_2g" transform="matrix(12,0,0,12,87.7,319.8)" />
<use xlink:href="#f0_28" transform="matrix(12,0,0,12,93.1,319.8)" />
<use xlink:href="#f0_2l" transform="matrix(12,0,0,12,97.9,319.8)" />
<use xlink:href="#f0_2c" transform="matrix(12,0,0,12,111.1,319.8)" />
<use xlink:href="#f0_2e" transform="matrix(12,0,0,12,120.2,319.8)" />
<use xlink:href="#f0_21" transform="matrix(12,0,0,12,126.5,319.8)" />
<use xlink:href="#f0_20" transform="matrix(12,0,0,12,134.5,319.8)" />
<use xlink:href="#f0_1x" transform="matrix(12,0,0,12,143.7,319.8)" />
<use xlink:href="#f0_1z" transform="matrix(12,0,0,12,151.8,319.8)" />
<use xlink:href="#f0_21" transform="matrix(12,0,0,12,160.2,319.8)" />
<use xlink:href="#f0_2b" transform="matrix(12,0,0,12,168.2,319.8)" />
<use xlink:href="#f0_2h" transform="matrix(12,0,0,12,177.8,319.8)" />
<use xlink:href="#f0_2f" transform="matrix(12,0,0,12,186.9,319.8)" />
<use xlink:href="#f0_i" transform="matrix(12,0,0,12,193.9,319.8)" />
</g>
<path fill-rule="evenodd" d="M52.8,345.1H856.9V323.8H52.8v21.3Z" class="g0_68" />
<g fill="#000000" >
<use xlink:href="#f0_1j" transform="matrix(12,0,0,12,55,340.7)" />
<use xlink:href="#f0_2j" transform="matrix(12,0,0,12,65.3,340.7)" />
<use xlink:href="#f0_25" transform="matrix(12,0,0,12,78.8,340.7)" />
<use xlink:href="#f0_29" transform="matrix(12,0,0,12,83.6,340.7)" />
<use xlink:href="#f0_1y" transform="matrix(12,0,0,12,102.3,340.7)" />
<use xlink:href="#f0_28" transform="matrix(12,0,0,12,111.4,340.7)" />
<use xlink:href="#f0_1x" transform="matrix(12,0,0,12,116.2,340.7)" />
<use xlink:href="#f0_20" transform="matrix(12,0,0,12,124.3,340.7)" />
<use xlink:href="#f0_20" transform="matrix(12,0,0,12,133.4,340.7)" />
<use xlink:href="#f0_21" transform="matrix(12,0,0,12,142.6,340.7)" />
<use xlink:href="#f0_2e" transform="matrix(12,0,0,12,150.7,340.7)" />
<use xlink:href="#f0_1x" transform="matrix(12,0,0,12,161.6,340.7)" />
<use xlink:href="#f0_1y" transform="matrix(12,0,0,12,170.1,340.7)" />
<use xlink:href="#f0_2f" transform="matrix(12,0,0,12,178.9,340.7)" />
<use xlink:href="#f0_21" transform="matrix(12,0,0,12,185.8,340.7)" />
<use xlink:href="#f0_2a" transform="matrix(12,0,0,12,194.2,340.7)" />
<use xlink:href="#f0_2g" transform="matrix(12,0,0,12,203,340.7)" />
<use xlink:href="#f0_i" transform="matrix(12,0,0,12,208.5,340.7)" />
</g>
<path fill-rule="evenodd" d="M52.8,366H856.9V345.1H52.8V366Z" class="g0_68" />
<g fill="#000000" >
<use xlink:href="#f0_18" transform="matrix(12,0,0,12,55,362)" />
<use xlink:href="#f0_21" transform="matrix(12,0,0,12,68.3,362)" />
<use xlink:href="#f0_1x" transform="matrix(12,0,0,12,76.3,362)" />
<use xlink:href="#f0_2e" transform="matrix(12,0,0,12,84.4,362)" />
<use xlink:href="#f0_2g" transform="matrix(12,0,0,12,90.6,362)" />
<use xlink:href="#f0_25" transform="matrix(12,0,0,12,100.8,362)" />
<use xlink:href="#f0_2f" transform="matrix(12,0,0,12,105.2,362)" />
<use xlink:href="#f0_2g" transform="matrix(12,0,0,12,116.9,362)" />
<use xlink:href="#f0_2j" transform="matrix(12,0,0,12,122.4,362)" />
<use xlink:href="#f0_2b" transform="matrix(12,0,0,12,135.2,362)" />
<use xlink:href="#f0_1z" transform="matrix(12,0,0,12,149.5,362)" />
<use xlink:href="#f0_24" transform="matrix(12,0,0,12,157.6,362)" />
<use xlink:href="#f0_1x" transform="matrix(12,0,0,12,166.4,362)" />
<use xlink:href="#f0_29" transform="matrix(12,0,0,12,174.8,362)" />
<use xlink:href="#f0_1y" transform="matrix(12,0,0,12,188.7,362)" />
<use xlink:href="#f0_21" transform="matrix(12,0,0,12,197.5,362)" />
<use xlink:href="#f0_2e" transform="matrix(12,0,0,12,205.6,362)" />
<use xlink:href="#f0_21" transform="matrix(12,0,0,12,211.8,362)" />
<use xlink:href="#f0_20" transform="matrix(12,0,0,12,219.9,362)" />
<use xlink:href="#f0_i" transform="matrix(12,0,0,12,229,362)" />
<use xlink:href="#f0_c" transform="matrix(12,0,0,12,238.5,362)" />
<use xlink:href="#f0_1f" transform="matrix(12,0,0,12,245,362)" />
<use xlink:href="#f0_2a" transform="matrix(12,0,0,12,258.2,362)" />
<use xlink:href="#f0_21" transform="matrix(12,0,0,12,267,362)" />
<use xlink:href="#f0_1x" transform="matrix(12,0,0,12,279.9,362)" />
<use xlink:href="#f0_2h" transform="matrix(12,0,0,12,287.9,362)" />
<use xlink:href="#f0_2e" transform="matrix(12,0,0,12,297.1,362)" />
<use xlink:href="#f0_25" transform="matrix(12,0,0,12,303.7,362)" />
<use xlink:href="#f0_1z" transform="matrix(12,0,0,12,308.1,362)" />
<use xlink:href="#f0_28" transform="matrix(12,0,0,12,316.5,362)" />
<use xlink:href="#f0_21" transform="matrix(12,0,0,12,321.3,362)" />
<use xlink:href="#f0_1x" transform="matrix(12,0,0,12,334.1,362)" />
<use xlink:href="#f0_2a" transform="matrix(12,0,0,12,342.5,362)" />
<use xlink:href="#f0_20" transform="matrix(12,0,0,12,351.3,362)" />
<use xlink:href="#f0_2b" transform="matrix(12,0,0,12,365.2,362)" />
<use xlink:href="#f0_2a" transform="matrix(12,0,0,12,374.7,362)" />
<use xlink:href="#f0_21" transform="matrix(12,0,0,12,383.5,362)" />
<use xlink:href="#f0_2i" transform="matrix(12,0,0,12,396.3,362)" />
<use xlink:href="#f0_21" transform="matrix(12,0,0,12,405.5,362)" />
<use xlink:href="#f0_2a" transform="matrix(12,0,0,12,413.9,362)" />
<use xlink:href="#f0_2g" transform="matrix(12,0,0,12,422.7,362)" />
<use xlink:href="#f0_2e" transform="matrix(12,0,0,12,427.8,362)" />
<use xlink:href="#f0_25" transform="matrix(12,0,0,12,434.4,362)" />
<use xlink:href="#f0_1z" transform="matrix(12,0,0,12,438.8,362)" />
<use xlink:href="#f0_28" transform="matrix(12,0,0,12,447.3,362)" />
<use xlink:href="#f0_21" transform="matrix(12,0,0,12,452,362)" />
<use xlink:href="#f0_d" transform="matrix(12,0,0,12,460.1,362)" />
</g>
<path fill-rule="evenodd" d="M52.8,387.3H856.9V366H52.8v21.3Z" class="g0_68" />
<g fill="#000000" >
<use xlink:href="#f0_1j" transform="matrix(12,0,0,12,55,382.9)" />
<use xlink:href="#f0_2b" transform="matrix(12,0,0,12,65.3,382.9)" />
<use xlink:href="#f0_29" transform="matrix(12,0,0,12,74.8,382.9)" />
<use xlink:href="#f0_21" transform="matrix(12,0,0,12,88.4,382.9)" />
<use xlink:href="#f0_2b" transform="matrix(12,0,0,12,101.2,382.9)" />
<use xlink:href="#f0_22" transform="matrix(12,0,0,12,110.7,382.9)" />
<use xlink:href="#f0_2g" transform="matrix(12,0,0,12,120.9,382.9)" />
<use xlink:href="#f0_24" transform="matrix(12,0,0,12,126.4,382.9)" />
<use xlink:href="#f0_21" transform="matrix(12,0,0,12,135.2,382.9)" />
<use xlink:href="#f0_29" transform="matrix(12,0,0,12,143.6,382.9)" />
<use xlink:href="#f0_1z" transform="matrix(12,0,0,12,162,382.9)" />
<use xlink:href="#f0_2b" transform="matrix(12,0,0,12,170,382.9)" />
<use xlink:href="#f0_2a" transform="matrix(12,0,0,12,179.5,382.9)" />
<use xlink:href="#f0_2g" transform="matrix(12,0,0,12,188.3,382.9)" />
<use xlink:href="#f0_1x" transform="matrix(12,0,0,12,193.8,382.9)" />
<use xlink:href="#f0_25" transform="matrix(12,0,0,12,202.2,382.9)" />
<use xlink:href="#f0_2a" transform="matrix(12,0,0,12,207,382.9)" />
<use xlink:href="#f0_21" transform="matrix(12,0,0,12,220.5,382.9)" />
<use xlink:href="#f0_28" transform="matrix(12,0,0,12,229,382.9)" />
<use xlink:href="#f0_21" transform="matrix(12,0,0,12,233.7,382.9)" />
<use xlink:href="#f0_1z" transform="matrix(12,0,0,12,241.8,382.9)" />
<use xlink:href="#f0_2g" transform="matrix(12,0,0,12,249.9,382.9)" />
<use xlink:href="#f0_2e" transform="matrix(12,0,0,12,255.3,382.9)" />
<use xlink:href="#f0_25" transform="matrix(12,0,0,12,261.6,382.9)" />
<use xlink:href="#f0_1z" transform="matrix(12,0,0,12,266.3,382.9)" />
<use xlink:href="#f0_2b" transform="matrix(12,0,0,12,279.1,382.9)" />
<use xlink:href="#f0_2e" transform="matrix(12,0,0,12,288.7,382.9)" />
<use xlink:href="#f0_23" transform="matrix(12,0,0,12,294.9,382.9)" />
<use xlink:href="#f0_1x" transform="matrix(12,0,0,12,304,382.9)" />
<use xlink:href="#f0_2a" transform="matrix(12,0,0,12,312.1,382.9)" />
<use xlink:href="#f0_2f" transform="matrix(12,0,0,12,320.9,382.9)" />
<use xlink:href="#f0_c" transform="matrix(12,0,0,12,333,382.9)" />
<use xlink:href="#f0_21" transform="matrix(12,0,0,12,339.3,382.9)" />
<use xlink:href="#f0_i" transform="matrix(12,0,0,12,347.4,382.9)" />
<use xlink:href="#f0_23" transform="matrix(12,0,0,12,352.1,382.9)" />
<use xlink:href="#f0_i" transform="matrix(12,0,0,12,361.3,382.9)" />
<use xlink:href="#f0_1k" transform="matrix(12,0,0,12,370.4,382.9)" />
<use xlink:href="#f0_2b" transform="matrix(12,0,0,12,381.4,382.9)" />
<use xlink:href="#f0_2e" transform="matrix(12,0,0,12,390.6,382.9)" />
<use xlink:href="#f0_2c" transform="matrix(12,0,0,12,396.8,382.9)" />
<use xlink:href="#f0_21" transform="matrix(12,0,0,12,406,382.9)" />
<use xlink:href="#f0_20" transform="matrix(12,0,0,12,414.1,382.9)" />
<use xlink:href="#f0_2b" transform="matrix(12,0,0,12,423.2,382.9)" />
<use xlink:href="#f0_d" transform="matrix(12,0,0,12,432.7,382.9)" />
</g>
<path fill-rule="evenodd" d="M52.8,408.2H856.9V387.3H52.8v20.9Z" class="g0_68" />
<g fill="#000000" >
<use xlink:href="#f0_1j" transform="matrix(12,0,0,12,55,404.2)" />
<use xlink:href="#f0_2b" transform="matrix(12,0,0,12,65.3,404.2)" />
<use xlink:href="#f0_29" transform="matrix(12,0,0,12,74.8,404.2)" />
<use xlink:href="#f0_21" transform="matrix(12,0,0,12,88.4,404.2)" />
<use xlink:href="#f0_2c" transform="matrix(12,0,0,12,101.2,404.2)" />
<use xlink:href="#f0_2b" transform="matrix(12,0,0,12,110.3,404.2)" />
<use xlink:href="#f0_2f" transform="matrix(12,0,0,12,119.9,404.2)" />
<use xlink:href="#f0_2f" transform="matrix(12,0,0,12,126.8,404.2)" />
<use xlink:href="#f0_21" transform="matrix(12,0,0,12,133.8,404.2)" />
<use xlink:href="#f0_2f" transform="matrix(12,0,0,12,141.9,404.2)" />
<use xlink:href="#f0_2f" transform="matrix(12,0,0,12,148.8,404.2)" />
<use xlink:href="#f0_21" transform="matrix(12,0,0,12,156.1,404.2)" />
<use xlink:href="#f0_2f" transform="matrix(12,0,0,12,164.2,404.2)" />
<use xlink:href="#f0_2c" transform="matrix(12,0,0,12,175.9,404.2)" />
<use xlink:href="#f0_2b" transform="matrix(12,0,0,12,185.1,404.2)" />
<use xlink:href="#f0_25" transform="matrix(12,0,0,12,194.6,404.2)" />
<use xlink:href="#f0_2f" transform="matrix(12,0,0,12,199.4,404.2)" />
<use xlink:href="#f0_2b" transform="matrix(12,0,0,12,206.3,404.2)" />
<use xlink:href="#f0_2a" transform="matrix(12,0,0,12,215.9,404.2)" />
<use xlink:href="#f0_2f" transform="matrix(12,0,0,12,229.4,404.2)" />
<use xlink:href="#f0_2g" transform="matrix(12,0,0,12,236.4,404.2)" />
<use xlink:href="#f0_25" transform="matrix(12,0,0,12,242.2,404.2)" />
<use xlink:href="#f0_2a" transform="matrix(12,0,0,12,247,404.2)" />
<use xlink:href="#f0_23" transform="matrix(12,0,0,12,255.8,404.2)" />
<use xlink:href="#f0_i" transform="matrix(12,0,0,12,265,404.2)" />
<use xlink:href="#f0_c" transform="matrix(12,0,0,12,274.4,404.2)" />
<use xlink:href="#f0_21" transform="matrix(12,0,0,12,281,404.2)" />
<use xlink:href="#f0_i" transform="matrix(12,0,0,12,289,404.2)" />
<use xlink:href="#f0_23" transform="matrix(12,0,0,12,293.8,404.2)" />
<use xlink:href="#f0_i" transform="matrix(12,0,0,12,302.6,404.2)" />
<use xlink:href="#f0_1k" transform="matrix(12,0,0,12,311.7,404.2)" />
<use xlink:href="#f0_2e" transform="matrix(12,0,0,12,323.1,404.2)" />
<use xlink:href="#f0_2l" transform="matrix(12,0,0,12,329.3,404.2)" />
<use xlink:href="#f0_23" transform="matrix(12,0,0,12,337.7,404.2)" />
<use xlink:href="#f0_2b" transform="matrix(12,0,0,12,346.9,404.2)" />
<use xlink:href="#f0_2a" transform="matrix(12,0,0,12,356.4,404.2)" />
<use xlink:href="#f0_d" transform="matrix(12,0,0,12,365.2,404.2)" />
</g>
<path fill-rule="evenodd" d="M52.8,429.5H856.9V408.2H52.8v21.3Z" class="g0_68" />
<g fill="#000000" >
<use xlink:href="#f0_1g" transform="matrix(12,0,0,12,55,425.1)" />
<use xlink:href="#f0_2b" transform="matrix(12,0,0,12,65.3,425.1)" />
<use xlink:href="#f0_25" transform="matrix(12,0,0,12,74.8,425.1)" />
<use xlink:href="#f0_27" transform="matrix(12,0,0,12,79.2,425.1)" />
<use xlink:href="#f0_25" transform="matrix(12,0,0,12,88.7,425.1)" />
<use xlink:href="#f0_28" transform="matrix(12,0,0,12,93.5,425.1)" />
<use xlink:href="#f0_2b" transform="matrix(12,0,0,12,97.9,425.1)" />
<use xlink:href="#f0_2g" transform="matrix(12,0,0,12,107.4,425.1)" />
<use xlink:href="#f0_24" transform="matrix(12,0,0,12,112.9,425.1)" />
<use xlink:href="#f0_21" transform="matrix(12,0,0,12,122,425.1)" />
<use xlink:href="#f0_2e" transform="matrix(12,0,0,12,130.1,425.1)" />
<use xlink:href="#f0_29" transform="matrix(12,0,0,12,136.7,425.1)" />
<use xlink:href="#f0_2b" transform="matrix(12,0,0,12,155,425.1)" />
<use xlink:href="#f0_2e" transform="matrix(12,0,0,12,164.5,425.1)" />
<use xlink:href="#f0_1z" transform="matrix(12,0,0,12,175.5,425.1)" />
<use xlink:href="#f0_2b" transform="matrix(12,0,0,12,183.2,425.1)" />
<use xlink:href="#f0_28" transform="matrix(12,0,0,12,192.7,425.1)" />
<use xlink:href="#f0_20" transform="matrix(12,0,0,12,197.1,425.1)" />
<use xlink:href="#f0_1y" transform="matrix(12,0,0,12,211,425.1)" />
<use xlink:href="#f0_28" transform="matrix(12,0,0,12,220.2,425.1)" />
<use xlink:href="#f0_2b" transform="matrix(12,0,0,12,224.6,425.1)" />
<use xlink:href="#f0_2b" transform="matrix(12,0,0,12,234.1,425.1)" />
<use xlink:href="#f0_20" transform="matrix(12,0,0,12,243.6,425.1)" />
<use xlink:href="#f0_21" transform="matrix(12,0,0,12,252.8,425.1)" />
<use xlink:href="#f0_20" transform="matrix(12,0,0,12,260.8,425.1)" />
<use xlink:href="#f0_i" transform="matrix(12,0,0,12,270,425.1)" />
</g>
<path fill-rule="evenodd" d="M52.8,450.4H856.9V429.5H52.8v20.9Z" class="g0_68" />
<g fill="#000000" >
<use xlink:href="#f0_14" transform="matrix(12,0,0,12,55,446.3)" />
<use xlink:href="#f0_25" transform="matrix(12,0,0,12,68.6,446.3)" />
<use xlink:href="#f0_2b" transform="matrix(12,0,0,12,73,446.3)" />
<use xlink:href="#f0_21" transform="matrix(12,0,0,12,82.5,446.3)" />
<use xlink:href="#f0_1z" transform="matrix(12,0,0,12,90.6,446.3)" />
<use xlink:href="#f0_25" transform="matrix(12,0,0,12,99,446.3)" />
<use xlink:href="#f0_2b" transform="matrix(12,0,0,12,103.4,446.3)" />
<use xlink:href="#f0_2h" transform="matrix(12,0,0,12,112.9,446.3)" />
<use xlink:href="#f0_2f" transform="matrix(12,0,0,12,122.1,446.3)" />
<use xlink:href="#f0_i" transform="matrix(12,0,0,12,129,446.3)" />
</g>
<path fill-rule="evenodd" d="M52.8,471.6H856.9V450.4H52.8v21.2Z" class="g0_68" />
<g fill="#000000" >
<use xlink:href="#f1_1j" transform="matrix(12,0,0,12,55,467.2)" />
<use xlink:href="#f1_21" transform="matrix(12,0,0,12,65.3,467.2)" />
<use xlink:href="#f1_2k" transform="matrix(12,0,0,12,73.4,467.2)" />
<use xlink:href="#f1_2h" transform="matrix(12,0,0,12,82.2,467.2)" />
<use xlink:href="#f1_1x" transform="matrix(12,0,0,12,91.3,467.2)" />
<use xlink:href="#f1_28" transform="matrix(12,0,0,12,99.7,467.2)" />
<use xlink:href="#f1_28" transform="matrix(12,0,0,12,104.8,467.2)" />
<use xlink:href="#f1_2l" transform="matrix(12,0,0,12,110,467.2)" />
<use xlink:href="#f1_20" transform="matrix(12,0,0,12,123.2,467.2)" />
<use xlink:href="#f1_25" transform="matrix(12,0,0,12,132.7,467.2)" />
<use xlink:href="#f1_29" transform="matrix(12,0,0,12,137.8,467.2)" />
<use xlink:href="#f1_2b" transform="matrix(12,0,0,12,151.4,467.2)" />
<use xlink:href="#f1_2e" transform="matrix(12,0,0,12,160.9,467.2)" />
<use xlink:href="#f1_2c" transform="matrix(12,0,0,12,167.1,467.2)" />
<use xlink:href="#f1_24" transform="matrix(12,0,0,12,176.6,467.2)" />
<use xlink:href="#f1_25" transform="matrix(12,0,0,12,185.8,467.2)" />
<use xlink:href="#f1_1z" transform="matrix(12,0,0,12,190.6,467.2)" />
<use xlink:href="#f1_g" transform="matrix(12,0,0,12,198.6,467.2)" />
<use xlink:href="#f1_29" transform="matrix(12,0,0,12,208.5,467.2)" />
<use xlink:href="#f1_1x" transform="matrix(12,0,0,12,222.1,467.2)" />
<use xlink:href="#f1_28" transform="matrix(12,0,0,12,230.5,467.2)" />
<use xlink:href="#f1_21" transform="matrix(12,0,0,12,235.2,467.2)" />
<use xlink:href="#f1_53" transform="matrix(12,0,0,12,243.7,467.2)" />
<use xlink:href="#f1_2f" transform="matrix(12,0,0,12,249.5,467.2)" />
<use xlink:href="#f1_2c" transform="matrix(12,0,0,12,261.2,467.2)" />
<use xlink:href="#f1_21" transform="matrix(12,0,0,12,270.4,467.2)" />
<use xlink:href="#f1_28" transform="matrix(12,0,0,12,278.8,467.2)" />
<use xlink:href="#f1_2i" transform="matrix(12,0,0,12,283.6,467.2)" />
<use xlink:href="#f1_25" transform="matrix(12,0,0,12,293.1,467.2)" />
<use xlink:href="#f1_1z" transform="matrix(12,0,0,12,297.9,467.2)" />
<use xlink:href="#f1_22" transform="matrix(12,0,0,12,311,467.2)" />
<use xlink:href="#f1_25" transform="matrix(12,0,0,12,316.9,467.2)" />
<use xlink:href="#f1_2a" transform="matrix(12,0,0,12,321.7,467.2)" />
<use xlink:href="#f1_1y" transform="matrix(12,0,0,12,335.6,467.2)" />
<use xlink:href="#f1_21" transform="matrix(12,0,0,12,344.8,467.2)" />
<use xlink:href="#f1_1x" transform="matrix(12,0,0,12,352.8,467.2)" />
<use xlink:href="#f1_2e" transform="matrix(12,0,0,12,360.9,467.2)" />
<use xlink:href="#f1_2f" transform="matrix(12,0,0,12,367.1,467.2)" />
<use xlink:href="#f1_1z" transform="matrix(12,0,0,12,378.8,467.2)" />
<use xlink:href="#f1_28" transform="matrix(12,0,0,12,387.2,467.2)" />
<use xlink:href="#f1_1x" transform="matrix(12,0,0,12,392,467.2)" />
<use xlink:href="#f1_2f" transform="matrix(12,0,0,12,400.1,467.2)" />
<use xlink:href="#f1_2c" transform="matrix(12,0,0,12,407,467.2)" />
<use xlink:href="#f1_21" transform="matrix(12,0,0,12,416.2,467.2)" />
<use xlink:href="#f1_2e" transform="matrix(12,0,0,12,424.6,467.2)" />
<use xlink:href="#f1_2f" transform="matrix(12,0,0,12,430.8,467.2)" />
<use xlink:href="#f1_i" transform="matrix(12,0,0,12,437.8,467.2)" />
</g>
<path fill-rule="evenodd" d="M52.8,732.4H856.9V471.6H52.8V732.4Z" class="g0_68" />
<image preserveAspectRatio="none" x="55" y="471" width="348" height="261" xlink:href="img/2.png" />
<path fill-rule="evenodd" d="M52.8,753.7H856.9V732.4H52.8v21.3Z" class="g0_68" />
<g fill="#000000" >
<use xlink:href="#f0_16" transform="matrix(12,0,0,12,55,749.3)" />
<use xlink:href="#f0_21" transform="matrix(12,0,0,12,64.9,749.3)" />
<use xlink:href="#f0_2e" transform="matrix(12,0,0,12,73,749.3)" />
<use xlink:href="#f0_2g" transform="matrix(12,0,0,12,79.2,749.3)" />
<use xlink:href="#f0_25" transform="matrix(12,0,0,12,84.7,749.3)" />
<use xlink:href="#f0_28" transform="matrix(12,0,0,12,89.5,749.3)" />
<use xlink:href="#f0_25" transform="matrix(12,0,0,12,94.6,749.3)" />
<use xlink:href="#f0_2m" transform="matrix(12,0,0,12,99.4,749.3)" />
<use xlink:href="#f0_1x" transform="matrix(12,0,0,12,107.8,749.3)" />
<use xlink:href="#f0_2g" transform="matrix(12,0,0,12,115.8,749.3)" />
<use xlink:href="#f0_25" transform="matrix(12,0,0,12,121.3,749.3)" />
<use xlink:href="#f0_2b" transform="matrix(12,0,0,12,125.7,749.3)" />
<use xlink:href="#f0_2a" transform="matrix(12,0,0,12,135.2,749.3)" />
<use xlink:href="#f0_25" transform="matrix(12,0,0,12,149.2,749.3)" />
<use xlink:href="#f0_2a" transform="matrix(12,0,0,12,153.9,749.3)" />
<use xlink:href="#f0_2g" transform="matrix(12,0,0,12,162.7,749.3)" />
<use xlink:href="#f0_21" transform="matrix(12,0,0,12,168.2,749.3)" />
<use xlink:href="#f0_2e" transform="matrix(12,0,0,12,176.3,749.3)" />
<use xlink:href="#f0_2a" transform="matrix(12,0,0,12,182.5,749.3)" />
<use xlink:href="#f0_1x" transform="matrix(12,0,0,12,191.7,749.3)" />
<use xlink:href="#f0_28" transform="matrix(12,0,0,12,200.1,749.3)" />
<use xlink:href="#f0_i" transform="matrix(12,0,0,12,204.5,749.3)" />
</g>
<path fill-rule="evenodd" d="M52.8,774.6H856.9V753.7H52.8v20.9Z" class="g0_68" />
<g fill="#000000" >
<use xlink:href="#f0_1d" transform="matrix(12,0,0,12,55,770.6)" />
<use xlink:href="#f0_1x" transform="matrix(12,0,0,12,71.2,770.6)" />
<use xlink:href="#f0_2a" transform="matrix(12,0,0,12,79.6,770.6)" />
<use xlink:href="#f0_2l" transform="matrix(12,0,0,12,88.8,770.6)" />
<use xlink:href="#f0_2b" transform="matrix(12,0,0,12,101.9,770.6)" />
<use xlink:href="#f0_22" transform="matrix(12,0,0,12,111.8,770.6)" />
<use xlink:href="#f0_2g" transform="matrix(12,0,0,12,122.1,770.6)" />
<use xlink:href="#f0_24" transform="matrix(12,0,0,12,127.5,770.6)" />
<use xlink:href="#f0_21" transform="matrix(12,0,0,12,136.3,770.6)" />
<use xlink:href="#f0_29" transform="matrix(12,0,0,12,144.8,770.6)" />
<use xlink:href="#f0_2i" transform="matrix(12,0,0,12,163.4,770.6)" />
<use xlink:href="#f0_25" transform="matrix(12,0,0,12,172.6,770.6)" />
<use xlink:href="#f0_2i" transform="matrix(12,0,0,12,177.4,770.6)" />
<use xlink:href="#f0_25" transform="matrix(12,0,0,12,186.9,770.6)" />
<use xlink:href="#f0_2c" transform="matrix(12,0,0,12,191.3,770.6)" />
<use xlink:href="#f0_1x" transform="matrix(12,0,0,12,200.8,770.6)" />
<use xlink:href="#f0_2e" transform="matrix(12,0,0,12,208.9,770.6)" />
<use xlink:href="#f0_2b" transform="matrix(12,0,0,12,215.1,770.6)" />
<use xlink:href="#f0_2h" transform="matrix(12,0,0,12,224.6,770.6)" />
<use xlink:href="#f0_2f" transform="matrix(12,0,0,12,233.8,770.6)" />
<use xlink:href="#f0_i" transform="matrix(12,0,0,12,240.7,770.6)" />
</g>
<g fill="#231F20" >
<use xlink:href="#f0_15" transform="matrix(12,0,0,12,55,791.5)" />
<use xlink:href="#f0_2k" transform="matrix(12,0,0,12,66.4,791.5)" />
<use xlink:href="#f0_1x" transform="matrix(12,0,0,12,75.2,791.5)" />
<use xlink:href="#f0_29" transform="matrix(12,0,0,12,83.6,791.5)" />
<use xlink:href="#f0_2c" transform="matrix(12,0,0,12,97.5,791.5)" />
<use xlink:href="#f0_28" transform="matrix(12,0,0,12,107,791.5)" />
<use xlink:href="#f0_21" transform="matrix(12,0,0,12,111.8,791.5)" />
<use xlink:href="#f0_2f" transform="matrix(12,0,0,12,119.9,791.5)" />
<use xlink:href="#f0_u" transform="matrix(12,0,0,12,126.8,791.5)" />
<use xlink:href="#f0_1k" transform="matrix(12,0,0,12,136.8,791.5)" />
<use xlink:href="#f0_2b" transform="matrix(12,0,0,12,148.2,791.5)" />
<use xlink:href="#f0_2e" transform="matrix(12,0,0,12,157.7,791.5)" />
<use xlink:href="#f0_2c" transform="matrix(12,0,0,12,163.9,791.5)" />
<use xlink:href="#f0_21" transform="matrix(12,0,0,12,173,791.5)" />
<use xlink:href="#f0_20" transform="matrix(12,0,0,12,181.1,791.5)" />
<use xlink:href="#f0_2b" transform="matrix(12,0,0,12,189.9,791.5)" />
<use xlink:href="#f0_c" transform="matrix(12,0,0,12,203.8,791.5)" />
<use xlink:href="#f0_15" transform="matrix(12,0,0,12,210.2,791.5)" />
<use xlink:href="#f0_28" transform="matrix(12,0,0,12,221.5,791.5)" />
<use xlink:href="#f0_21" transform="matrix(12,0,0,12,225.9,791.5)" />
<use xlink:href="#f0_1z" transform="matrix(12,0,0,12,234,791.5)" />
<use xlink:href="#f0_2g" transform="matrix(12,0,0,12,242.1,791.5)" />
<use xlink:href="#f0_2e" transform="matrix(12,0,0,12,247.5,791.5)" />
<use xlink:href="#f0_25" transform="matrix(12,0,0,12,253.8,791.5)" />
<use xlink:href="#f0_1z" transform="matrix(12,0,0,12,258.2,791.5)" />
<use xlink:href="#f0_2e" transform="matrix(12,0,0,12,271,791.5)" />
<use xlink:href="#f0_1x" transform="matrix(12,0,0,12,277.2,791.5)" />
<use xlink:href="#f0_2l" transform="matrix(12,0,0,12,285.6,791.5)" />
<use xlink:href="#f0_d" transform="matrix(12,0,0,12,298.8,791.5)" />
<use xlink:href="#f0_g" transform="matrix(12,0,0,12,305,791.5)" />
<use xlink:href="#f0_1i" transform="matrix(12,0,0,12,314.7,791.5)" />
<use xlink:href="#f0_24" transform="matrix(12,0,0,12,326.8,791.5)" />
<use xlink:href="#f0_25" transform="matrix(12,0,0,12,336,791.5)" />
<use xlink:href="#f0_2a" transform="matrix(12,0,0,12,340.7,791.5)" />
<use xlink:href="#f0_2b" transform="matrix(12,0,0,12,349.5,791.5)" />
<use xlink:href="#f0_1y" transform="matrix(12,0,0,12,359.4,791.5)" />
<use xlink:href="#f0_1x" transform="matrix(12,0,0,12,368.2,791.5)" />
<use xlink:href="#f0_2g" transform="matrix(12,0,0,12,376.3,791.5)" />
<use xlink:href="#f0_2h" transform="matrix(12,0,0,12,381.8,791.5)" />
<use xlink:href="#f0_2f" transform="matrix(12,0,0,12,390.9,791.5)" />
<use xlink:href="#f0_c" transform="matrix(12,0,0,12,402.7,791.5)" />
<use xlink:href="#f0_17" transform="matrix(12,0,0,12,408.9,791.5)" />
<use xlink:href="#f0_2h" transform="matrix(12,0,0,12,422.1,791.5)" />
<use xlink:href="#f0_25" transform="matrix(12,0,0,12,431.6,791.5)" />
<use xlink:href="#f0_2g" transform="matrix(12,0,0,12,436,791.5)" />
<use xlink:href="#f0_1x" transform="matrix(12,0,0,12,441.5,791.5)" />
<use xlink:href="#f0_2e" transform="matrix(12,0,0,12,449.5,791.5)" />
<use xlink:href="#f0_22" transform="matrix(12,0,0,12,460.5,791.5)" />
<use xlink:href="#f0_25" transform="matrix(12,0,0,12,466.4,791.5)" />
<use xlink:href="#f0_2f" transform="matrix(12,0,0,12,471.1,791.5)" />
<use xlink:href="#f0_24" transform="matrix(12,0,0,12,478.4,791.5)" />
<use xlink:href="#f0_d" transform="matrix(12,0,0,12,487.2,791.5)" />
<use xlink:href="#f0_i" transform="matrix(12,0,0,12,493.5,791.5)" />
</g>
<path fill-rule="evenodd" d="M52.8,838H856.9V816.8H52.8V838Z" class="g0_68" />
<g fill="#000000" >
<use xlink:href="#f2_o" transform="matrix(12,0,0,12,55,833.6)" />
<use xlink:href="#f2_i" transform="matrix(12,0,0,12,64.2,833.6)" />
<use xlink:href="#f2_m" transform="matrix(12,0,0,12,69,833.6)" />
<use xlink:href="#f2_i" transform="matrix(12,0,0,12,78.1,833.6)" />
<use xlink:href="#f2_l" transform="matrix(12,0,0,12,82.9,833.6)" />
<use xlink:href="#f2_l" transform="matrix(12,0,0,12,92,833.6)" />
<use xlink:href="#f2_i" transform="matrix(12,0,0,12,100.8,833.6)" />
<use xlink:href="#f2_n" transform="matrix(12,0,0,12,105.6,833.6)" />
<use xlink:href="#f2_13" transform="matrix(12,0,0,12,119.6,833.6)" />
<use xlink:href="#f2_28" transform="matrix(12,0,0,12,132.8,833.6)" />
<use xlink:href="#f2_1x" transform="matrix(12,0,0,12,137.5,833.6)" />
<use xlink:href="#f2_2f" transform="matrix(12,0,0,12,146.7,833.6)" />
<use xlink:href="#f2_2f" transform="matrix(12,0,0,12,153.7,833.6)" />
<use xlink:href="#f2_m" transform="matrix(12,0,0,12,165.4,833.6)" />
<use xlink:href="#f2_u" transform="matrix(12,0,0,12,174.6,833.6)" />
<use xlink:href="#f2_1f" transform="matrix(12,0,0,12,185.5,833.6)" />
<use xlink:href="#f2_2f" transform="matrix(12,0,0,12,199.8,833.6)" />
<use xlink:href="#f2_2g" transform="matrix(12,0,0,12,206.8,833.6)" />
<use xlink:href="#f2_21" transform="matrix(12,0,0,12,213,833.6)" />
<use xlink:href="#f2_25" transform="matrix(12,0,0,12,221.1,833.6)" />
<use xlink:href="#f2_1z" transform="matrix(12,0,0,12,226.2,833.6)" />
<use xlink:href="#f2_24" transform="matrix(12,0,0,12,234.3,833.6)" />
<use xlink:href="#f2_2g" transform="matrix(12,0,0,12,244.5,833.6)" />
<use xlink:href="#f2_24" transform="matrix(12,0,0,12,250.7,833.6)" />
<use xlink:href="#f2_2l" transform="matrix(12,0,0,12,261,833.6)" />
<use xlink:href="#f2_21" transform="matrix(12,0,0,12,270.2,833.6)" />
<use xlink:href="#f2_2f" transform="matrix(12,0,0,12,278.2,833.6)" />
<use xlink:href="#f2_u" transform="matrix(12,0,0,12,285.2,833.6)" />
</g>
<path fill-rule="evenodd" d="M52.8,858.9H856.9V838H52.8v20.9Z" class="g0_68" />
<g fill="#000000" >
<use xlink:href="#f0_19" transform="matrix(12,0,0,12,55,854.9)" />
<use xlink:href="#f0_2a" transform="matrix(12,0,0,12,61.3,854.9)" />
<use xlink:href="#f0_1z" transform="matrix(12,0,0,12,70.1,854.9)" />
<use xlink:href="#f0_28" transform="matrix(12,0,0,12,78.5,854.9)" />
<use xlink:href="#f0_2h" transform="matrix(12,0,0,12,83.2,854.9)" />
<use xlink:href="#f0_20" transform="matrix(12,0,0,12,92.4,854.9)" />
<use xlink:href="#f0_21" transform="matrix(12,0,0,12,101.6,854.9)" />
<use xlink:href="#f0_2f" transform="matrix(12,0,0,12,109.6,854.9)" />
<use xlink:href="#f0_1y" transform="matrix(12,0,0,12,121.7,854.9)" />
<use xlink:href="#f0_2b" transform="matrix(12,0,0,12,130.5,854.9)" />
<use xlink:href="#f0_2g" transform="matrix(12,0,0,12,140,854.9)" />
<use xlink:href="#f0_24" transform="matrix(12,0,0,12,145.5,854.9)" />
<use xlink:href="#f0_29" transform="matrix(12,0,0,12,159.1,854.9)" />
<use xlink:href="#f0_1x" transform="matrix(12,0,0,12,172.6,854.9)" />
<use xlink:href="#f0_2e" transform="matrix(12,0,0,12,180.7,854.9)" />
<use xlink:href="#f0_25" transform="matrix(12,0,0,12,187.3,854.9)" />
<use xlink:href="#f0_2a" transform="matrix(12,0,0,12,192,854.9)" />
<use xlink:href="#f0_21" transform="matrix(12,0,0,12,201.2,854.9)" />
<use xlink:href="#f0_1x" transform="matrix(12,0,0,12,214,854.9)" />
<use xlink:href="#f0_2a" transform="matrix(12,0,0,12,222.4,854.9)" />
<use xlink:href="#f0_20" transform="matrix(12,0,0,12,231.2,854.9)" />
<use xlink:href="#f0_22" transform="matrix(12,0,0,12,245.5,854.9)" />
<use xlink:href="#f0_2e" transform="matrix(12,0,0,12,251,854.9)" />
<use xlink:href="#f0_21" transform="matrix(12,0,0,12,257.2,854.9)" />
<use xlink:href="#f0_2f" transform="matrix(12,0,0,12,265.3,854.9)" />
<use xlink:href="#f0_24" transform="matrix(12,0,0,12,272.6,854.9)" />
<use xlink:href="#f0_2j" transform="matrix(12,0,0,12,286.2,854.9)" />
<use xlink:href="#f0_1x" transform="matrix(12,0,0,12,299.4,854.9)" />
<use xlink:href="#f0_2g" transform="matrix(12,0,0,12,307.4,854.9)" />
<use xlink:href="#f0_21" transform="matrix(12,0,0,12,312.9,854.9)" />
<use xlink:href="#f0_2e" transform="matrix(12,0,0,12,321,854.9)" />
<use xlink:href="#f0_22" transform="matrix(12,0,0,12,331.9,854.9)" />
<use xlink:href="#f0_25" transform="matrix(12,0,0,12,337.8,854.9)" />
<use xlink:href="#f0_2f" transform="matrix(12,0,0,12,342.6,854.9)" />
<use xlink:href="#f0_24" transform="matrix(12,0,0,12,349.9,854.9)" />
<use xlink:href="#f0_21" transform="matrix(12,0,0,12,358.7,854.9)" />
<use xlink:href="#f0_2f" transform="matrix(12,0,0,12,367.1,854.9)" />
<use xlink:href="#f0_i" transform="matrix(12,0,0,12,374.1,854.9)" />
</g>
<path fill-rule="evenodd" d="M52.8,880.2H856.9V858.9H52.8v21.3Z" class="g0_68" />
<g fill="#000000" >
<use xlink:href="#f0_12" transform="matrix(12,0,0,12,55,875.8)" />
<use xlink:href="#f0_2b" transform="matrix(12,0,0,12,67.1,875.8)" />
<use xlink:href="#f0_2a" transform="matrix(12,0,0,12,76.7,875.8)" />
<use xlink:href="#f0_2l" transform="matrix(12,0,0,12,85.8,875.8)" />
<use xlink:href="#f0_21" transform="matrix(12,0,0,12,99,875.8)" />
<use xlink:href="#f0_2a" transform="matrix(12,0,0,12,107.4,875.8)" />
<use xlink:href="#f0_20" transform="matrix(12,0,0,12,116.2,875.8)" />
<use xlink:href="#f0_2b" transform="matrix(12,0,0,12,125.4,875.8)" />
<use xlink:href="#f0_2f" transform="matrix(12,0,0,12,134.9,875.8)" />
<use xlink:href="#f0_27" transform="matrix(12,0,0,12,141.9,875.8)" />
<use xlink:href="#f0_21" transform="matrix(12,0,0,12,151,875.8)" />
<use xlink:href="#f0_28" transform="matrix(12,0,0,12,159.4,875.8)" />
<use xlink:href="#f0_21" transform="matrix(12,0,0,12,164.2,875.8)" />
<use xlink:href="#f0_2g" transform="matrix(12,0,0,12,172.3,875.8)" />
<use xlink:href="#f0_2b" transform="matrix(12,0,0,12,177.8,875.8)" />
<use xlink:href="#f0_2a" transform="matrix(12,0,0,12,187.3,875.8)" />
<use xlink:href="#f0_i" transform="matrix(12,0,0,12,196.1,875.8)" />
</g>
<path fill-rule="evenodd" d="M52.8,901.2H856.9v-21H52.8v21Z" class="g0_68" />
<g fill="#000000" >
<use xlink:href="#f0_1d" transform="matrix(12,0,0,12,55,897.1)" />
<use xlink:href="#f0_2b" transform="matrix(12,0,0,12,71.2,897.1)" />
<use xlink:href="#f0_2h" transform="matrix(12,0,0,12,80.7,897.1)" />
<use xlink:href="#f0_2g" transform="matrix(12,0,0,12,89.5,897.1)" />
<use xlink:href="#f0_24" transform="matrix(12,0,0,12,95,897.1)" />
<use xlink:href="#f0_25" transform="matrix(12,0,0,12,108.9,897.1)" />
<use xlink:href="#f0_2f" transform="matrix(12,0,0,12,113.3,897.1)" />
<use xlink:href="#f0_2h" transform="matrix(12,0,0,12,125,897.1)" />
<use xlink:href="#f0_2f" transform="matrix(12,0,0,12,134.2,897.1)" />
<use xlink:href="#f0_2h" transform="matrix(12,0,0,12,141.1,897.1)" />
<use xlink:href="#f0_1x" transform="matrix(12,0,0,12,150.3,897.1)" />
<use xlink:href="#f0_28" transform="matrix(12,0,0,12,158.7,897.1)" />
<use xlink:href="#f0_28" transform="matrix(12,0,0,12,163.8,897.1)" />
<use xlink:href="#f0_2l" transform="matrix(12,0,0,12,169,897.1)" />
<use xlink:href="#f0_2g" transform="matrix(12,0,0,12,182.5,897.1)" />
<use xlink:href="#f0_21" transform="matrix(12,0,0,12,188,897.1)" />
<use xlink:href="#f0_2e" transform="matrix(12,0,0,12,196.1,897.1)" />
<use xlink:href="#f0_29" transform="matrix(12,0,0,12,202.3,897.1)" />
<use xlink:href="#f0_25" transform="matrix(12,0,0,12,216.2,897.1)" />
<use xlink:href="#f0_2a" transform="matrix(12,0,0,12,221,897.1)" />
<use xlink:href="#f0_1x" transform="matrix(12,0,0,12,230.1,897.1)" />
<use xlink:href="#f0_28" transform="matrix(12,0,0,12,238.6,897.1)" />
<use xlink:href="#f0_i" transform="matrix(12,0,0,12,243.3,897.1)" />
</g>
<path fill-rule="evenodd" d="M52.8,922.4H856.9V901.2H52.8v21.2Z" class="g0_68" />
<g fill="#000000" >
<use xlink:href="#f0_16" transform="matrix(12,0,0,12,55,918)" />
<use xlink:href="#f0_2b" transform="matrix(12,0,0,12,64.9,918)" />
<use xlink:href="#f0_2h" transform="matrix(12,0,0,12,74.5,918)" />
<use xlink:href="#f0_2e" transform="matrix(12,0,0,12,83.6,918)" />
<use xlink:href="#f0_2c" transform="matrix(12,0,0,12,94.6,918)" />
<use xlink:href="#f0_1x" transform="matrix(12,0,0,12,103.7,918)" />
<use xlink:href="#f0_25" transform="matrix(12,0,0,12,111.8,918)" />
<use xlink:href="#f0_2e" transform="matrix(12,0,0,12,116.2,918)" />
<use xlink:href="#f0_2f" transform="matrix(12,0,0,12,122.4,918)" />
<use xlink:href="#f0_2b" transform="matrix(12,0,0,12,134.1,918)" />
<use xlink:href="#f0_22" transform="matrix(12,0,0,12,143.7,918)" />
<use xlink:href="#f0_23" transform="matrix(12,0,0,12,153.9,918)" />
<use xlink:href="#f0_25" transform="matrix(12,0,0,12,163.4,918)" />
<use xlink:href="#f0_28" transform="matrix(12,0,0,12,168.5,918)" />
<use xlink:href="#f0_28" transform="matrix(12,0,0,12,173.3,918)" />
<use xlink:href="#f0_2f" transform="matrix(12,0,0,12,182.8,918)" />
<use xlink:href="#f0_28" transform="matrix(12,0,0,12,190.2,918)" />
<use xlink:href="#f0_25" transform="matrix(12,0,0,12,195.3,918)" />
<use xlink:href="#f0_2g" transform="matrix(12,0,0,12,199.7,918)" />
<use xlink:href="#f0_2f" transform="matrix(12,0,0,12,205.2,918)" />
<use xlink:href="#f0_1z" transform="matrix(12,0,0,12,216.9,918)" />
<use xlink:href="#f0_2b" transform="matrix(12,0,0,12,224.9,918)" />
<use xlink:href="#f0_2i" transform="matrix(12,0,0,12,234.5,918)" />
<use xlink:href="#f0_21" transform="matrix(12,0,0,12,243.3,918)" />
<use xlink:href="#f0_2e" transform="matrix(12,0,0,12,251.3,918)" />
<use xlink:href="#f0_21" transform="matrix(12,0,0,12,257.5,918)" />
<use xlink:href="#f0_20" transform="matrix(12,0,0,12,265.6,918)" />
<use xlink:href="#f0_1y" transform="matrix(12,0,0,12,279.9,918)" />
<use xlink:href="#f0_2l" transform="matrix(12,0,0,12,289.1,918)" />
<use xlink:href="#f0_2b" transform="matrix(12,0,0,12,302.2,918)" />
<use xlink:href="#f0_2c" transform="matrix(12,0,0,12,311.8,918)" />
<use xlink:href="#f0_21" transform="matrix(12,0,0,12,320.9,918)" />
<use xlink:href="#f0_2e" transform="matrix(12,0,0,12,329,918)" />
<use xlink:href="#f0_1z" transform="matrix(12,0,0,12,335.2,918)" />
<use xlink:href="#f0_2h" transform="matrix(12,0,0,12,343.3,918)" />
<use xlink:href="#f0_28" transform="matrix(12,0,0,12,352.8,918)" />
<use xlink:href="#f0_2h" transform="matrix(12,0,0,12,357.2,918)" />
<use xlink:href="#f0_29" transform="matrix(12,0,0,12,366.7,918)" />
<use xlink:href="#f0_i" transform="matrix(12,0,0,12,380.3,918)" />
</g>
<path fill-rule="evenodd" d="M52.8,943.3H856.9V922.4H52.8v20.9Z" class="g0_68" />
<g fill="#000000" >
<use xlink:href="#f0_1j" transform="matrix(12,0,0,12,55,939.3)" />
<use xlink:href="#f0_27" transform="matrix(12,0,0,12,65.3,939.3)" />
<use xlink:href="#f0_25" transform="matrix(12,0,0,12,74.8,939.3)" />
<use xlink:href="#f0_2a" transform="matrix(12,0,0,12,79.6,939.3)" />
<use xlink:href="#f0_24" transform="matrix(12,0,0,12,93.1,939.3)" />
<use xlink:href="#f0_1x" transform="matrix(12,0,0,12,101.9,939.3)" />
<use xlink:href="#f0_2f" transform="matrix(12,0,0,12,110.3,939.3)" />
<use xlink:href="#f0_1z" transform="matrix(12,0,0,12,122,939.3)" />
<use xlink:href="#f0_2l" transform="matrix(12,0,0,12,130.5,939.3)" />
<use xlink:href="#f0_1z" transform="matrix(12,0,0,12,139.3,939.3)" />
<use xlink:href="#f0_28" transform="matrix(12,0,0,12,147.7,939.3)" />
<use xlink:href="#f0_2b" transform="matrix(12,0,0,12,152.1,939.3)" />
<use xlink:href="#f0_25" transform="matrix(12,0,0,12,162,939.3)" />
<use xlink:href="#f0_20" transform="matrix(12,0,0,12,166.4,939.3)" />
<use xlink:href="#f0_j" transform="matrix(12,0,0,12,175.5,939.3)" />
<use xlink:href="#f0_1z" transform="matrix(12,0,0,12,181,939.3)" />
<use xlink:href="#f0_2g" transform="matrix(12,0,0,12,189.1,939.3)" />
<use xlink:href="#f0_21" transform="matrix(12,0,0,12,194.6,939.3)" />
<use xlink:href="#f0_2a" transform="matrix(12,0,0,12,202.6,939.3)" />
<use xlink:href="#f0_2b" transform="matrix(12,0,0,12,211.4,939.3)" />
<use xlink:href="#f0_25" transform="matrix(12,0,0,12,221.3,939.3)" />
<use xlink:href="#f0_20" transform="matrix(12,0,0,12,225.7,939.3)" />
<use xlink:href="#f0_2f" transform="matrix(12,0,0,12,239.6,939.3)" />
<use xlink:href="#f0_1z" transform="matrix(12,0,0,12,246.6,939.3)" />
<use xlink:href="#f0_1x" transform="matrix(12,0,0,12,254.7,939.3)" />
<use xlink:href="#f0_28" transform="matrix(12,0,0,12,263.1,939.3)" />
<use xlink:href="#f0_21" transform="matrix(12,0,0,12,267.8,939.3)" />
<use xlink:href="#f0_2f" transform="matrix(12,0,0,12,275.9,939.3)" />
<use xlink:href="#f0_i" transform="matrix(12,0,0,12,282.9,939.3)" />
</g>
<path fill-rule="evenodd" d="M52.8,964.6H856.9V943.3H52.8v21.3Z" class="g0_68" />
<path fill-rule="evenodd" d="M52.8,1099.6H856.9v-135H52.8v135Z" class="g0_68" />
<image preserveAspectRatio="none" x="55" y="964" width="312" height="135" xlink:href="img/3.png" />
<path fill-rule="evenodd" d="M52.8,1120.5H856.9v-20.9H52.8v20.9Z" class="g0_68" />
<g fill="#000000" >
<use xlink:href="#f0_11" transform="matrix(12,0,0,12,55,1116.4)" />
<use xlink:href="#f0_25" transform="matrix(12,0,0,12,68.3,1116.4)" />
<use xlink:href="#f0_2e" transform="matrix(12,0,0,12,73,1116.4)" />
<use xlink:href="#f0_1y" transform="matrix(12,0,0,12,84,1116.4)" />
<use xlink:href="#f0_28" transform="matrix(12,0,0,12,93.1,1116.4)" />
<use xlink:href="#f0_1x" transform="matrix(12,0,0,12,97.9,1116.4)" />
<use xlink:href="#f0_20" transform="matrix(12,0,0,12,106,1116.4)" />
<use xlink:href="#f0_20" transform="matrix(12,0,0,12,115.1,1116.4)" />
<use xlink:href="#f0_21" transform="matrix(12,0,0,12,124.3,1116.4)" />
<use xlink:href="#f0_2e" transform="matrix(12,0,0,12,132.4,1116.4)" />
<use xlink:href="#f0_25" transform="matrix(12,0,0,12,143.7,1116.4)" />
<use xlink:href="#f0_2f" transform="matrix(12,0,0,12,148.5,1116.4)" />
<use xlink:href="#f0_2c" transform="matrix(12,0,0,12,160.2,1116.4)" />
<use xlink:href="#f0_2e" transform="matrix(12,0,0,12,169.3,1116.4)" />
<use xlink:href="#f0_21" transform="matrix(12,0,0,12,175.6,1116.4)" />
<use xlink:href="#f0_2f" transform="matrix(12,0,0,12,183.6,1116.4)" />
<use xlink:href="#f0_21" transform="matrix(12,0,0,12,190.6,1116.4)" />
<use xlink:href="#f0_2a" transform="matrix(12,0,0,12,199,1116.4)" />
<use xlink:href="#f0_2g" transform="matrix(12,0,0,12,207.8,1116.4)" />
<use xlink:href="#f0_22" transform="matrix(12,0,0,12,218,1116.4)" />
<use xlink:href="#f0_2b" transform="matrix(12,0,0,12,223.5,1116.4)" />
<use xlink:href="#f0_2e" transform="matrix(12,0,0,12,233.1,1116.4)" />
<use xlink:href="#f0_1y" transform="matrix(12,0,0,12,244,1116.4)" />
<use xlink:href="#f0_2h" transform="matrix(12,0,0,12,252.8,1116.4)" />
<use xlink:href="#f0_2b" transform="matrix(12,0,0,12,262,1116.4)" />
<use xlink:href="#f0_2l" transform="matrix(12,0,0,12,271.5,1116.4)" />
<use xlink:href="#f0_1x" transform="matrix(12,0,0,12,279.9,1116.4)" />
<use xlink:href="#f0_2a" transform="matrix(12,0,0,12,288.3,1116.4)" />
<use xlink:href="#f0_1z" transform="matrix(12,0,0,12,297.1,1116.4)" />
<use xlink:href="#f0_2l" transform="matrix(12,0,0,12,305.6,1116.4)" />
<use xlink:href="#f0_i" transform="matrix(12,0,0,12,314.4,1116.4)" />
</g>
<path fill-rule="evenodd" d="M52.8,1141.7H856.9v-21.2H52.8v21.2Z" class="g0_68" />
<g fill="#000000" >
<use xlink:href="#f0_18" transform="matrix(12,0,0,12,55,1137.3)" />
<use xlink:href="#f0_21" transform="matrix(12,0,0,12,68.3,1137.3)" />
<use xlink:href="#f0_1x" transform="matrix(12,0,0,12,76.3,1137.3)" />
<use xlink:href="#f0_2e" transform="matrix(12,0,0,12,84.4,1137.3)" />
<use xlink:href="#f0_2g" transform="matrix(12,0,0,12,90.6,1137.3)" />
<use xlink:href="#f0_25" transform="matrix(12,0,0,12,100.8,1137.3)" />
<use xlink:href="#f0_2f" transform="matrix(12,0,0,12,105.2,1137.3)" />
<use xlink:href="#f0_2g" transform="matrix(12,0,0,12,116.9,1137.3)" />
<use xlink:href="#f0_2j" transform="matrix(12,0,0,12,122.4,1137.3)" />
<use xlink:href="#f0_2b" transform="matrix(12,0,0,12,135.2,1137.3)" />
<use xlink:href="#f0_1z" transform="matrix(12,0,0,12,149.5,1137.3)" />
<use xlink:href="#f0_24" transform="matrix(12,0,0,12,157.6,1137.3)" />
<use xlink:href="#f0_1x" transform="matrix(12,0,0,12,166.4,1137.3)" />
<use xlink:href="#f0_29" transform="matrix(12,0,0,12,174.8,1137.3)" />
<use xlink:href="#f0_1y" transform="matrix(12,0,0,12,188.7,1137.3)" />
<use xlink:href="#f0_21" transform="matrix(12,0,0,12,197.5,1137.3)" />
<use xlink:href="#f0_2e" transform="matrix(12,0,0,12,205.6,1137.3)" />
<use xlink:href="#f0_21" transform="matrix(12,0,0,12,211.8,1137.3)" />
<use xlink:href="#f0_20" transform="matrix(12,0,0,12,219.9,1137.3)" />
<use xlink:href="#f0_i" transform="matrix(12,0,0,12,229,1137.3)" />
</g>
<path fill-rule="evenodd" d="M52.8,1162.7H856.9v-21H52.8v21Z" class="g0_68" />
<g fill="#000000" >
<use xlink:href="#f0_13" transform="matrix(12,0,0,12,55,1158.6)" />
<use xlink:href="#f0_2b" transform="matrix(12,0,0,12,67.1,1158.6)" />
<use xlink:href="#f0_28" transform="matrix(12,0,0,12,76.7,1158.6)" />
<use xlink:href="#f0_20" transform="matrix(12,0,0,12,81.1,1158.6)" />
<use xlink:href="#f0_1y" transform="matrix(12,0,0,12,95.3,1158.6)" />
<use xlink:href="#f0_28" transform="matrix(12,0,0,12,104.5,1158.6)" />
<use xlink:href="#f0_2b" transform="matrix(12,0,0,12,108.9,1158.6)" />
<use xlink:href="#f0_2b" transform="matrix(12,0,0,12,118.4,1158.6)" />
<use xlink:href="#f0_20" transform="matrix(12,0,0,12,127.9,1158.6)" />
<use xlink:href="#f0_21" transform="matrix(12,0,0,12,137.1,1158.6)" />
<use xlink:href="#f0_20" transform="matrix(12,0,0,12,145.2,1158.6)" />
<use xlink:href="#f0_1x" transform="matrix(12,0,0,12,159.1,1158.6)" />
<use xlink:href="#f0_2a" transform="matrix(12,0,0,12,167.1,1158.6)" />
<use xlink:href="#f0_25" transform="matrix(12,0,0,12,176.3,1158.6)" />
<use xlink:href="#f0_29" transform="matrix(12,0,0,12,181.1,1158.6)" />
<use xlink:href="#f0_1x" transform="matrix(12,0,0,12,195,1158.6)" />
<use xlink:href="#f0_28" transform="matrix(12,0,0,12,203.4,1158.6)" />
<use xlink:href="#f0_2f" transform="matrix(12,0,0,12,208.2,1158.6)" />
<use xlink:href="#f0_i" transform="matrix(12,0,0,12,215.2,1158.6)" />
</g>
<path fill-rule="evenodd" d="M52.8,1183.9H856.9v-21.2H52.8v21.2Z" class="g0_68" />
<g fill="#000000" >
<use xlink:href="#f0_14" transform="matrix(12,0,0,12,55,1179.5)" />
<use xlink:href="#f0_25" transform="matrix(12,0,0,12,68.6,1179.5)" />
<use xlink:href="#f0_2b" transform="matrix(12,0,0,12,73,1179.5)" />
<use xlink:href="#f0_21" transform="matrix(12,0,0,12,82.5,1179.5)" />
<use xlink:href="#f0_1z" transform="matrix(12,0,0,12,90.6,1179.5)" />
<use xlink:href="#f0_25" transform="matrix(12,0,0,12,99,1179.5)" />
<use xlink:href="#f0_2b" transform="matrix(12,0,0,12,103.4,1179.5)" />
<use xlink:href="#f0_2h" transform="matrix(12,0,0,12,112.9,1179.5)" />
<use xlink:href="#f0_2f" transform="matrix(12,0,0,12,122.1,1179.5)" />
<use xlink:href="#f0_i" transform="matrix(12,0,0,12,129,1179.5)" />
</g>
<path fill-rule="evenodd" d="M52.8,1204.8H856.9v-20.9H52.8v20.9Z" class="g0_68" />
<g fill="#000000" >
<use xlink:href="#f0_1j" transform="matrix(12,0,0,12,55,1200.8)" />
<use xlink:href="#f0_21" transform="matrix(12,0,0,12,65.3,1200.8)" />
<use xlink:href="#f0_2k" transform="matrix(12,0,0,12,73.4,1200.8)" />
<use xlink:href="#f0_2h" transform="matrix(12,0,0,12,82.2,1200.8)" />
<use xlink:href="#f0_1x" transform="matrix(12,0,0,12,91.3,1200.8)" />
<use xlink:href="#f0_28" transform="matrix(12,0,0,12,99.7,1200.8)" />
<use xlink:href="#f0_28" transform="matrix(12,0,0,12,104.8,1200.8)" />
<use xlink:href="#f0_2l" transform="matrix(12,0,0,12,110,1200.8)" />
<use xlink:href="#f0_29" transform="matrix(12,0,0,12,123.5,1200.8)" />
<use xlink:href="#f0_2b" transform="matrix(12,0,0,12,137.1,1200.8)" />
<use xlink:href="#f0_2a" transform="matrix(12,0,0,12,147,1200.8)" />
<use xlink:href="#f0_2b" transform="matrix(12,0,0,12,155.8,1200.8)" />
<use xlink:href="#f0_29" transform="matrix(12,0,0,12,165.7,1200.8)" />
<use xlink:href="#f0_2b" transform="matrix(12,0,0,12,179.2,1200.8)" />
<use xlink:href="#f0_2e" transform="matrix(12,0,0,12,188.7,1200.8)" />
<use xlink:href="#f0_2c" transform="matrix(12,0,0,12,195,1200.8)" />
<use xlink:href="#f0_24" transform="matrix(12,0,0,12,204.1,1200.8)" />
<use xlink:href="#f0_25" transform="matrix(12,0,0,12,213.3,1200.8)" />
<use xlink:href="#f0_1z" transform="matrix(12,0,0,12,218.1,1200.8)" />
<use xlink:href="#f0_i" transform="matrix(12,0,0,12,226.1,1200.8)" />
</g>
<path fill-rule="evenodd" d="M52.8,1226.1H856.9v-21.3H52.8v21.3Z" class="g0_68" />
<g fill="#000000" >
<use xlink:href="#f0_16" transform="matrix(12,0,0,12,55,1221.7)" />
<use xlink:href="#f0_21" transform="matrix(12,0,0,12,64.9,1221.7)" />
<use xlink:href="#f0_2e" transform="matrix(12,0,0,12,73,1221.7)" />
<use xlink:href="#f0_2g" transform="matrix(12,0,0,12,79.2,1221.7)" />
<use xlink:href="#f0_25" transform="matrix(12,0,0,12,84.7,1221.7)" />
<use xlink:href="#f0_28" transform="matrix(12,0,0,12,89.5,1221.7)" />
<use xlink:href="#f0_25" transform="matrix(12,0,0,12,94.6,1221.7)" />
<use xlink:href="#f0_2m" transform="matrix(12,0,0,12,99.4,1221.7)" />
<use xlink:href="#f0_1x" transform="matrix(12,0,0,12,107.8,1221.7)" />
<use xlink:href="#f0_2g" transform="matrix(12,0,0,12,115.8,1221.7)" />
<use xlink:href="#f0_25" transform="matrix(12,0,0,12,121.3,1221.7)" />
<use xlink:href="#f0_2b" transform="matrix(12,0,0,12,125.7,1221.7)" />
<use xlink:href="#f0_2a" transform="matrix(12,0,0,12,135.2,1221.7)" />
<use xlink:href="#f0_21" transform="matrix(12,0,0,12,148.8,1221.7)" />
<use xlink:href="#f0_2k" transform="matrix(12,0,0,12,157.2,1221.7)" />
<use xlink:href="#f0_2g" transform="matrix(12,0,0,12,166,1221.7)" />
<use xlink:href="#f0_21" transform="matrix(12,0,0,12,171.5,1221.7)" />
<use xlink:href="#f0_2e" transform="matrix(12,0,0,12,179.6,1221.7)" />
<use xlink:href="#f0_2a" transform="matrix(12,0,0,12,185.8,1221.7)" />
<use xlink:href="#f0_1x" transform="matrix(12,0,0,12,194.6,1221.7)" />
<use xlink:href="#f0_28" transform="matrix(12,0,0,12,203,1221.7)" />
<use xlink:href="#f0_i" transform="matrix(12,0,0,12,207.4,1221.7)" />
<use xlink:href="#f3_m" transform="matrix(8,0,0,8,785.7,1264.1)" />
<use xlink:href="#f3_s" transform="matrix(8,0,0,8,792.5,1264.1)" />
</g>
<defs>
<path d="M410,-14c0,0,-80,0,-162,14c0,0,-81,14,-144,38V270h48L178,134c0,0,28,-35,95,-62c0,0,68,-27,134,-27c0,0,104,0,163,53c0,0,58,54,58,148c0,0,0,54,-23,89c0,0,-22,35,-59,59c0,0,-37,24,-84,41c0,0,-47,17,-97,34c0,0,-49,17,-96,38c0,0,-47,21,-84,53c0,0,-37,32,-60,79c0,0,-23,48,-23,117c0,0,0,119,90,187c0,0,89,68,248,68c0,0,121,0,263,-32V771H654L628,893c0,0,-76,55,-188,55c0,0,-100,0,-156,-40c0,0,-56,-41,-56,-112c0,0,0,-49,22,-81c0,0,23,-32,60,-55c0,0,37,-22,84,-39c0,0,48,-16,97,-34c0,0,50,-17,97,-39c0,0,48,-22,85,-56c0,0,36,-34,59,-83c0,0,23,-49,23,-120c0,0,0,-145,-89,-224c0,0,-89,-79,-256,-79Z" 
id="f0_1j"
transform="scale(0.001,-0.001)" />

<path d="M477,0V33l64,19L348,354L257,254V52L331,33V0H44V33l89,19v956L29,1026v34H257V338L544,647l-73,20v34H718V667L631,650L431,446L688,50L764,33V0Z" 
id="f0_27"
transform="scale(0.001,-0.001)" />

<path d="M32,0V33L151,52V649L52,668v33H275V52L395,33V0ZM201,850c0,0,-32,0,-56,24c0,0,-24,24,-24,56c0,0,0,34,24,58c0,0,24,24,56,24c0,0,34,0,58,-24c0,0,24,-24,24,-58c0,0,0,-32,-24,-56c0,0,-24,-24,-58,-24Z" 
id="f0_25"
transform="scale(0.001,-0.001)" />

<path d="M439,0V33l93,19V500c0,0,0,62,-30,97c0,0,-31,36,-94,36c0,0,-67,0,-165,-22V52L338,33V0H35V33l84,19V649L35,668v33H235l7,-57c0,0,57,33,122,54c0,0,65,22,108,22c0,0,91,0,137,-53c0,0,47,-53,47,-154V52L741,33V0Z" 
id="f0_2a"
transform="scale(0.001,-0.001)" />

<path d="M442,0V33l93,19V504c0,0,0,129,-124,129c0,0,-70,0,-168,-22V52L338,33V0H31V33l88,19v956L15,1026v34H243V756c0,0,0,-77,-5,-112c0,0,54,31,122,53c0,0,68,23,115,23c0,0,91,0,137,-53c0,0,47,-53,47,-154V52L744,33V0Z" 
id="f0_24"
transform="scale(0.001,-0.001)" />

<path d="M284,67c0,0,51,0,88,12c0,0,37,12,74,30V358l-98,-3c0,0,-100,-4,-135,-39c0,0,-35,-35,-35,-117c0,0,0,-132,106,-132ZM233,-14c0,0,-179,0,-179,208c0,0,0,70,27,116c0,0,27,46,87,70c0,0,60,24,173,27l105,3V519c0,0,0,72,-26,107c0,0,-27,34,-82,34c0,0,-75,0,-137,-35L176,538H134V691c0,0,121,26,213,26c0,0,115,0,169,-47c0,0,54,-47,54,-144V52L657,33V0H465L451,70c0,0,-85,-84,-218,-84Z" 
id="f0_1x"
transform="scale(0.001,-0.001)" />

<path d="M278,-14c0,0,-52,0,-115,11c0,0,-63,10,-99,23V193H98L134,95c0,0,56,-50,146,-50c0,0,144,0,144,123c0,0,0,91,-114,130l-66,21c0,0,-75,25,-110,50c0,0,-34,26,-53,63c0,0,-18,36,-18,89c0,0,0,92,63,145c0,0,63,54,170,54c0,0,77,0,193,-23V544H454l-32,81c0,0,-39,35,-124,35c0,0,-61,0,-92,-30c0,0,-32,-30,-32,-80c0,0,0,-43,29,-72c0,0,28,-29,86,-48c0,0,110,-38,144,-55c0,0,33,-17,57,-42c0,0,23,-25,36,-57c0,0,13,-32,13,-79c0,0,0,-104,-66,-158c0,0,-66,-53,-195,-53Z" 
id="f0_2f"
transform="scale(0.001,-0.001)" />

<path d="M382,45c0,0,188,0,188,314c0,0,0,143,-47,213c0,0,-46,69,-141,69c0,0,-87,0,-146,-24V58c0,0,67,-13,146,-13ZM25,-325v35l88,18V649L34,668v33H231l1,-41c0,0,31,27,84,43c0,0,53,17,107,17c0,0,134,0,208,-94c0,0,73,-93,73,-267c0,0,0,-178,-80,-276c0,0,-80,-97,-232,-97c0,0,-84,0,-160,16c0,0,4,-53,4,-84V-272l123,-18v-35Z" 
id="f0_2c"
transform="scale(0.001,-0.001)" />

<path d="M31,0V33L150,52v956L31,1026v34H274V52L394,33V0Z" 
id="f0_28"
transform="scale(0.001,-0.001)" />

<path d="M399,-14c0,0,-341,0,-341,370c0,0,0,175,87,269c0,0,87,95,249,95c0,0,101,0,220,-23V501H573L541,625c0,0,-62,35,-149,35c0,0,-200,0,-200,-304c0,0,0,-158,61,-225c0,0,61,-67,189,-67c0,0,109,0,189,24V43C631,43,595,16,530,1c0,0,-64,-15,-131,-15Z" 
id="f0_1z"
transform="scale(0.001,-0.001)" />

<path d="M377,45c0,0,99,0,147,73c0,0,47,73,47,237c0,0,0,161,-47,233c0,0,-47,72,-147,72c0,0,-97,0,-141,-69c0,0,-44,-69,-44,-236c0,0,0,-169,45,-240c0,0,44,-70,140,-70Zm0,-59c0,0,-158,0,-238,94c0,0,-81,95,-81,274c0,0,0,178,81,272c0,0,80,94,244,94c0,0,160,0,241,-92c0,0,82,-92,82,-274c0,0,0,-368,-329,-368Z" 
id="f0_2b"
transform="scale(0.001,-0.001)" />

<path d="M383,64c0,0,85,0,152,28V645c0,0,-67,13,-152,13c0,0,-194,0,-194,-314c0,0,0,-141,48,-211c0,0,48,-69,146,-69ZM342,-14c0,0,-287,0,-287,358c0,0,0,184,82,280c0,0,81,96,239,96c0,0,81,0,163,-18c0,0,-4,25,-4,124v182l-118,18v34H659V52L745,33V0H548l-9,52c0,0,-84,-66,-197,-66Z" 
id="f0_20"
transform="scale(0.001,-0.001)" />

<path d="M495,413c0,0,0,133,-34,190c0,0,-34,57,-105,57c0,0,-78,0,-119,-63c0,0,-42,-62,-42,-184ZM374,-14c0,0,-163,0,-239,87c0,0,-75,88,-75,283c0,0,0,183,77,273c0,0,76,91,219,91c0,0,269,0,269,-306V353H194V340c0,0,0,-103,23,-160c0,0,22,-57,70,-87c0,0,47,-29,124,-29c0,0,40,0,96,6c0,0,55,7,91,15V43C598,43,562,20,500,3c0,0,-61,-17,-126,-17Z" 
id="f0_21"
transform="scale(0.001,-0.001)" />

<path d="M191,-20c0,0,-39,0,-65,25c0,0,-25,27,-25,64c0,0,0,38,26,64c0,0,26,26,64,26c0,0,38,0,64,-26c0,0,26,-26,26,-64c0,0,0,-37,-25,-64c0,0,-26,-25,-65,-25Z" 
id="f0_i"
transform="scale(0.001,-0.001)" />

<path d="M186,-14c0,0,-95,0,-154,22V190H81L104,86c0,0,14,-17,40,-26c0,0,26,-10,57,-10c0,0,105,0,105,141V941L178,960v40H562V960L449,941V322c0,0,0,-100,-30,-175c0,0,-31,-74,-93,-118c0,0,-63,-43,-140,-43Z" 
id="f0_1a"
transform="scale(0.001,-0.001)" />

<path d="M327,-14L84,649L1,668v33H335V668L219,648L385,174L554,632h63L786,171L944,649L830,668v33h267V668l-78,-16L784,-14H726L553,448L382,-14Z" 
id="f0_2j"
transform="scale(0.001,-0.001)" />

<path d="M249,-14c0,0,-71,0,-107,42c0,0,-35,42,-35,119V639H15v33l93,29l76,159h47V701H391V639H231V161c0,0,0,-48,22,-73c0,0,22,-24,57,-24c0,0,44,0,106,12V26C416,26,389,8,340,-2c0,0,-49,-12,-91,-12Z" 
id="f0_2g"
transform="scale(0.001,-0.001)" />

<path d="M58,-234v58c0,0,131,42,131,125c0,0,0,15,-11,27c0,0,-11,12,-38,25C140,1,89,27,89,75c0,0,0,40,25,61c0,0,26,21,65,21c0,0,48,0,77,-34c0,0,30,-34,30,-86c0,0,0,-101,-60,-170c0,0,-59,-69,-168,-101Z" 
id="f0_g"
transform="scale(0.001,-0.001)" />

<path d="M31,0V33l88,19V649L31,668v33H235l7,-87c0,0,44,37,121,71c0,0,76,35,121,35h11V530H463l-43,82c0,0,-37,0,-88,-10c0,0,-52,-10,-89,-26V52L363,33V0Z" 
id="f0_2e"
transform="scale(0.001,-0.001)" />

<path d="M431,0V33L535,52V499c0,0,0,62,-32,96c0,0,-32,33,-95,33c0,0,-66,0,-163,-22V52L350,33V0H32V33l89,19V649L32,668v33H237l6,-57c0,0,56,32,119,54c0,0,62,22,110,22c0,0,52,0,95,-20c0,0,44,-19,66,-62c0,0,57,32,134,57c0,0,77,25,128,25c0,0,179,0,179,-207V52l90,-19V0H846V33L950,52V499c0,0,0,129,-119,129c0,0,-19,0,-45,-3c0,0,-26,-3,-52,-7c0,0,-25,-4,-49,-8c0,0,-23,-5,-39,-8c0,0,13,-41,13,-89V52L764,33V0Z" 
id="f0_29"
transform="scale(0.001,-0.001)" />

<path d="M64,0V34L168,59V639H47v36l121,29v49c0,0,0,155,61,239c0,0,62,84,173,84c0,0,58,0,107,-15V908H472l-33,92c0,0,-26,16,-62,16c0,0,-47,0,-66,-42c0,0,-19,-42,-19,-157V701H478V639H292V59L443,34V0Z" 
id="f0_22"
transform="scale(0.001,-0.001)" />

<path d="M617,0L251,860V60L385,40V0H44V40L172,60V941L44,960v40H347L672,239l355,761h287V960L1185,941V60L1314,40V0H908V40l134,20V859L643,0Z" 
id="f0_1d"
transform="scale(0.001,-0.001)" />

<path d="M148,-329c0,0,-58,0,-114,13v151H69l24,-71c0,0,23,-17,64,-17c0,0,39,0,72,22c0,0,33,23,60,67c0,0,27,44,68,157L90,649L19,668v33H344V668L233,648L423,158L606,649L497,668v33H758V668L685,652L411,-43c0,0,-48,-124,-84,-177c0,0,-36,-54,-79,-82c0,0,-44,-27,-100,-27Z" 
id="f0_2l"
transform="scale(0.001,-0.001)" />

<path d="M289,-14c0,0,-179,0,-179,205V649L20,668v33H233V200c0,0,0,-128,120,-128c0,0,92,0,173,23V649L420,668v33H649V52L738,33V0H533l-6,57C527,57,474,28,405,7c0,0,-69,-21,-116,-21Z" 
id="f0_2h"
transform="scale(0.001,-0.001)" />

<path d="M376,50c0,0,103,0,149,80c0,0,46,81,46,240c0,0,0,137,-47,204c0,0,-48,67,-148,67c0,0,-44,0,-87,-7c0,0,-44,-8,-63,-17V62c0,0,63,-12,150,-12Zm3,-64c0,0,-64,0,-141,14c0,0,-78,14,-136,37v971L0,1026v34H226V809c0,0,0,-40,-4,-148c0,0,74,59,188,59c0,0,143,0,219,-87c0,0,77,-87,77,-263c0,0,0,-189,-84,-287c0,0,-84,-97,-243,-97Z" 
id="f0_1y"
transform="scale(0.001,-0.001)" />

<path d="M44,0V40L172,60V941L44,960v40H445V960L316,941V549H787V941L659,960v40h400V960L930,941V60L1059,40V0H659V40L787,60V481H316V60L445,40V0Z" 
id="f0_18"
transform="scale(0.001,-0.001)" />

<path d="M460,-325c0,0,-148,79,-231,172c0,0,-84,93,-123,217c0,0,-39,126,-39,304c0,0,0,178,39,303c0,0,39,125,122,217c0,0,82,93,232,172V997c0,0,-91,-52,-145,-134c0,0,-54,-81,-79,-190c0,0,-25,-109,-25,-305c0,0,0,-194,26,-309c0,0,26,-114,82,-193c0,0,56,-79,141,-128v-63Z" 
id="f0_c"
transform="scale(0.001,-0.001)" />

<path d="M551,45c0,0,171,0,252,108c0,0,82,108,82,349c0,0,0,239,-81,344c0,0,-81,105,-253,105c0,0,-172,0,-252,-105c0,0,-80,-105,-80,-344c0,0,0,-241,80,-349c0,0,81,-108,252,-108Zm0,-59c0,0,-238,0,-363,129C188,115,63,245,63,501c0,0,0,510,488,510c0,0,242,0,366,-129c0,0,124,-130,124,-381c0,0,0,-255,-126,-385C915,116,790,-14,551,-14Z" 
id="f0_1f"
transform="scale(0.001,-0.001)" />

<path d="M360,-14L72,649L0,668v33H327V668L216,648L420,164L615,649L504,668v33H764V668L697,652L416,-14Z" 
id="f0_2i"
transform="scale(0.001,-0.001)" />

<path d="M49,-325v63c0,0,85,49,140,128c0,0,56,79,83,194c0,0,26,115,26,308c0,0,0,196,-25,305c0,0,-25,109,-79,190c0,0,-54,82,-145,134v63c0,0,149,-80,232,-172c0,0,83,-92,122,-217c0,0,39,-125,39,-303c0,0,0,-177,-39,-303c0,0,-39,-125,-122,-217c0,0,-83,-93,-232,-173Z" 
id="f0_d"
transform="scale(0.001,-0.001)" />

<path d="M359,-270c0,0,124,0,192,46c0,0,67,47,67,129c0,0,0,43,-26,67c0,0,-26,24,-79,24H242c0,0,-32,-27,-51,-69c0,0,-20,-41,-20,-77c0,0,0,-64,46,-92c0,0,46,-28,142,-28Zm11,561c0,0,81,0,115,47c0,0,34,47,34,141c0,0,0,100,-35,142c0,0,-35,42,-113,42c0,0,-78,0,-114,-43c0,0,-37,-42,-37,-141c0,0,0,-98,36,-143c0,0,36,-45,114,-45ZM359,-329c0,0,-143,0,-218,44c0,0,-75,43,-75,125c0,0,0,39,27,78c0,0,26,38,98,89c0,0,-43,14,-72,48c0,0,-29,35,-29,74L208,262c0,0,-118,55,-118,217c0,0,0,115,73,178c0,0,73,63,211,63c0,0,28,0,71,-6c0,0,44,-6,67,-13l165,83l26,-32L599,644c0,0,50,-56,50,-165c0,0,0,-120,-72,-182c0,0,-73,-62,-208,-62c0,0,-62,0,-114,11L208,148c0,0,2,-13,29,-24c0,0,27,-12,67,-12H512c0,0,113,0,168,-49c0,0,55,-49,55,-134c0,0,0,-79,-44,-137c0,0,-43,-58,-128,-90c0,0,-84,-31,-204,-31Z" 
id="f0_23"
transform="scale(0.001,-0.001)" />

<path d="M235,0V40L394,60V936H356c0,0,-189,0,-258,-15L78,766H28v234H908V766H857L837,921c0,0,-22,5,-98,9c0,0,-75,4,-165,4H538V60L697,40V0Z" 
id="f0_1k"
transform="scale(0.001,-0.001)" />

<path d="M394,460c0,0,126,0,186,57c0,0,60,57,60,187c0,0,0,123,-57,176c0,0,-58,53,-194,53H316V460ZM54,0V40L172,60V941L44,960v40H421c0,0,368,0,368,-295c0,0,0,-153,-93,-233c0,0,-93,-80,-267,-80H316V60L475,40V0Z" 
id="f0_1g"
transform="scale(0.001,-0.001)" />

<path d="M529,65c0,0,183,0,270,108c0,0,87,108,87,334c0,0,0,210,-113,318c0,0,-113,108,-322,108H316V71c0,0,90,-6,213,-6Zm0,-67L172,0H44V40L172,60V941L44,960v40H498c0,0,277,0,411,-123c0,0,133,-124,133,-371c0,0,0,-251,-129,-380C913,126,785,-2,529,-2Z" 
id="f0_14"
transform="scale(0.001,-0.001)" />

<path d="M107,-21V325h27c0,0,19,-109,52,-163c0,0,33,-54,100,-90c0,0,68,-36,148,-36c0,0,93,0,148,49c0,0,54,50,54,117c0,0,0,37,-21,75c0,0,-20,38,-64,71c0,0,-29,22,-159,95c0,0,-130,72,-185,115c0,0,-55,44,-83,96c0,0,-28,52,-28,114c0,0,0,109,83,188c0,0,84,78,213,78c0,0,81,0,171,-39c0,0,42,-19,59,-19c0,0,20,0,32,11c0,0,12,12,20,47h27V684H674c0,0,-14,101,-48,161c0,0,-35,60,-100,95c0,0,-64,35,-133,35c0,0,-77,0,-128,-47c0,0,-51,-48,-51,-108c0,0,0,-46,32,-84c0,0,47,-56,221,-149c0,0,142,-76,194,-117c0,0,51,-41,80,-96c0,0,28,-55,28,-115c0,0,0,-115,-90,-198c0,0,-89,-82,-229,-82c0,0,-44,0,-83,6c0,0,-23,4,-95,27c0,0,-73,24,-93,24c0,0,-18,0,-29,-11c0,0,-11,-12,-16,-46Z" 
id="f1_1j"
transform="scale(0.001,-0.001)" />

<path d="M479,469c0,0,-4,66,-16,93c0,0,-18,42,-55,65c0,0,-37,24,-78,24c0,0,-62,0,-111,-48c0,0,-48,-48,-57,-134ZM355,-20c0,0,-123,0,-211,95c0,0,-87,96,-87,258c0,0,0,175,90,273c0,0,89,98,225,98c0,0,115,0,189,-76c0,0,74,-75,74,-202H162c0,0,0,-152,74,-239c0,0,75,-86,175,-86c0,0,67,0,117,36c0,0,50,37,83,127l24,-15c0,0,-16,-102,-91,-186c0,0,-76,-83,-189,-83Z" 
id="f1_21"
transform="scale(0.001,-0.001)" />

<path d="M25,0V26c0,0,27,4,47,19c0,0,29,22,96,111L311,346L182,535c0,0,-55,81,-86,102c0,0,-30,20,-75,20v26H341V657c0,0,-30,0,-42,-10c0,0,-13,-11,-13,-28c0,0,0,-19,27,-56c0,0,8,-12,25,-37l48,-78l56,77c0,0,55,74,55,94c0,0,0,16,0,27c0,0,0,11,0,11v26H674V657c0,0,-37,-2,-64,-20c0,0,-37,-26,-100,-111L416,402L587,156c0,0,63,-91,89,-109c0,0,27,-18,70,-21V0H423V26c0,0,34,0,53,15c0,0,14,11,14,28c0,0,0,17,-48,87L341,302L232,157c0,0,-50,-69,-50,-82c0,0,0,-18,17,-32c0,0,17,-15,50,-17V0Z" 
id="f1_2k"
transform="scale(0.001,-0.001)" />

<path d="M292,-20c0,0,-57,0,-100,33c0,0,-42,33,-58,85c0,0,-17,52,-17,148V551c0,0,0,49,-10,68c0,0,-11,18,-31,29c0,0,-19,9,-68,9c-2,0,-4,0,-6,0v26H242V226c0,0,0,-95,33,-125c0,0,33,-30,80,-30c0,0,32,0,73,21c0,0,40,20,96,76V555c0,0,0,59,-21,80c0,0,-22,21,-89,22v26H647V269c0,0,0,-119,6,-145c0,0,6,-27,18,-37c0,0,12,-11,29,-11c0,0,23,0,52,13L763,63L558,-20H524V124C524,124,436,29,390,4c0,0,-47,-24,-98,-24Z" 
id="f1_2h"
transform="scale(0.001,-0.001)" />

<path d="M286,72c0,0,57,0,149,75V407c0,0,-113,-45,-145,-64c0,0,-59,-32,-85,-68c0,0,-25,-36,-25,-78c0,0,0,-54,32,-89c0,0,32,-36,74,-36ZM217,-13c0,0,-71,0,-116,48c0,0,-46,48,-46,127c0,0,0,50,22,87c0,0,31,50,106,95c0,0,76,45,252,109v26c0,0,0,102,-32,140c0,0,-32,38,-94,38c0,0,-47,0,-74,-25c0,0,-28,-25,-28,-58l1,-43c0,0,0,-34,-17,-53c0,0,-18,-18,-47,-18c0,0,-28,0,-45,19c0,0,-18,19,-18,53c0,0,0,64,66,117c0,0,65,54,184,54c0,0,91,0,149,-31c0,0,44,-23,65,-72c0,0,13,-32,13,-131V238c0,0,0,-98,4,-120c0,0,4,-22,12,-29c0,0,9,-8,20,-8c0,0,12,0,21,5c0,0,16,10,61,55V99C676,99,592,-12,516,-12c0,0,-37,0,-58,24c0,0,-22,26,-23,86C435,98,330,17,303,5c0,0,-40,-18,-86,-18Z" 
id="f1_1x"
transform="scale(0.001,-0.001)" />

<path d="M58,0V26c0,0,47,0,64,10c0,0,18,10,28,32c0,0,9,23,9,86V775c0,0,0,116,-5,142c0,0,-5,27,-17,37c0,0,-11,9,-29,9c0,0,-20,0,-49,-12L46,978l204,83h34V154c0,0,0,-64,9,-85c0,0,9,-21,29,-32c0,0,19,-11,72,-11V0Z" 
id="f1_28"
transform="scale(0.001,-0.001)" />

<path d="M145,-328c0,0,-44,0,-73,25c0,0,-28,25,-28,58c0,0,0,31,21,50c0,0,20,19,56,19c0,0,25,0,67,-16c0,0,30,-11,38,-11c0,0,22,0,49,23c0,0,26,23,53,89L376,28L131,542c0,0,-11,24,-36,58c0,0,-19,27,-30,36c0,0,-18,12,-56,21v26H328V657H312c0,0,-33,0,-50,-15c0,0,-17,-14,-17,-36c0,0,0,-30,25,-81L437,179L589,557c0,0,12,31,12,62c0,0,0,13,-5,20c0,0,-6,8,-19,13c0,0,-12,5,-44,5v26H754V657c0,0,-27,-3,-42,-12c0,0,-15,-9,-33,-34c0,0,-7,-10,-25,-58L376,-128c0,0,-40,-99,-105,-150c0,0,-66,-50,-126,-50Z" 
id="f1_2l"
transform="scale(0.001,-0.001)" />

<path d="M399,62c0,0,68,0,131,68V481c0,0,-5,51,-27,93c0,0,-22,42,-59,63c0,0,-37,21,-72,21c0,0,-65,0,-117,-59c0,0,-67,-77,-67,-226c0,0,0,-151,65,-231c0,0,66,-80,146,-80ZM330,-20c0,0,-112,0,-196,93c0,0,-83,94,-83,240c0,0,0,147,92,269c0,0,93,122,238,122c0,0,90,0,149,-58V773c0,0,0,117,-6,144c0,0,-5,27,-17,37c0,0,-12,9,-30,9c0,0,-20,0,-52,-12l-9,27l204,83h33V270c0,0,0,-120,6,-146c0,0,5,-27,18,-37c0,0,12,-11,28,-11c0,0,21,0,54,13l9,-26L564,-20H530V78C530,78,480,25,432,2c0,0,-47,-22,-102,-22Z" 
id="f1_20"
transform="scale(0.001,-0.001)" />

<path d="M55,0V26c0,0,50,0,67,10c0,0,17,10,27,32c0,0,10,23,10,86V418c0,0,0,111,-6,144c0,0,-6,24,-17,33c0,0,-11,10,-30,10c0,0,-21,0,-51,-11L45,620l206,83h33V154c0,0,0,-64,9,-85c0,0,9,-22,27,-32c0,0,19,-11,67,-11V0ZM222,909c0,0,-32,0,-54,23c0,0,-22,22,-22,53c0,0,0,32,22,54c0,0,22,22,54,22c0,0,31,0,53,-22c0,0,22,-22,22,-54c0,0,0,-31,-22,-53c0,0,-22,-23,-53,-23Z" 
id="f1_25"
transform="scale(0.001,-0.001)" />

<path d="M23,0V26c0,0,47,0,66,10c0,0,19,11,28,33c0,0,10,22,10,85V416c0,0,0,112,-7,145c0,0,-5,25,-16,34c0,0,-11,10,-31,10c0,0,-21,0,-50,-11L12,620l207,83h32V557c0,0,75,75,88,86c0,0,34,29,72,44c0,0,39,16,77,16c0,0,64,0,110,-37c0,0,47,-38,62,-109c0,0,77,90,130,118c0,0,53,28,109,28c0,0,54,0,96,-28c0,0,42,-28,67,-91c0,0,16,-43,16,-136V154c0,0,0,-64,10,-88c0,0,8,-16,28,-28c0,0,20,-12,65,-12V0H844V26h14c0,0,44,0,69,18c0,0,17,12,24,38c0,0,3,13,3,72V448c0,0,0,83,-20,117c0,0,-29,48,-93,48c0,0,-39,0,-79,-20c0,0,-40,-19,-97,-73l-1,-8l2,-32V154c0,0,0,-70,8,-87c0,0,7,-17,29,-29c0,0,21,-12,73,-12V0H431V26c0,0,57,0,78,14c0,0,21,13,29,40c0,0,4,13,4,74V448c0,0,0,83,-25,120c0,0,-33,48,-91,48c0,0,-40,0,-80,-22c0,0,-61,-33,-95,-74V154c0,0,0,-67,10,-87c0,0,9,-20,27,-30c0,0,18,-11,74,-11V0Z" 
id="f1_29"
transform="scale(0.001,-0.001)" />

<path d="M406,32c0,0,72,0,119,60c0,0,47,59,47,205c0,0,0,181,-78,286c0,0,-53,71,-135,71c0,0,-40,0,-79,-23c0,0,-40,-24,-65,-83c0,0,-24,-58,-24,-151c0,0,0,-149,59,-257c0,0,59,-108,156,-108ZM374,-20c0,0,-154,0,-245,122c0,0,-77,104,-77,233c0,0,0,94,46,187c0,0,47,92,123,137c0,0,76,44,161,44c0,0,155,0,249,-118c0,0,80,-100,80,-231c0,0,0,-91,-44,-185C667,169,623,75,546,27c0,0,-77,-47,-172,-47Z" 
id="f1_2b"
transform="scale(0.001,-0.001)" />

<path d="M17,0V26c0,0,52,0,77,17c0,0,19,12,26,38c0,0,4,13,4,73V419c0,0,0,119,-5,142c0,0,-4,23,-17,33c0,0,-13,11,-33,11c0,0,-23,0,-52,-11l-7,26l207,83h31V549c0,0,86,154,176,154c0,0,41,0,68,-25c0,0,27,-25,27,-58c0,0,0,-29,-20,-49c0,0,-19,-20,-46,-20c0,0,-26,0,-58,25c0,0,-33,26,-48,26c0,0,-14,0,-29,-15c0,0,-34,-30,-70,-101V159c0,0,0,-56,15,-85c0,0,9,-20,34,-34c0,0,24,-14,71,-14V0Z" 
id="f1_2e"
transform="scale(0.001,-0.001)" />

<path d="M398,24c0,0,74,0,120,58c0,0,61,76,61,214c0,0,0,156,-69,240c0,0,-47,59,-113,59c0,0,-36,0,-71,-18c0,0,-27,-14,-88,-81V242c0,0,0,-83,6,-109c0,0,11,-43,51,-76c0,0,41,-33,103,-33ZM-4,-326v27H15c5,0,42,0,69,16c0,0,14,8,22,26c0,0,7,19,7,94V481c0,0,0,67,-6,85c0,0,-5,18,-18,27c0,0,-13,9,-36,9c0,0,-18,0,-45,-10L0,615l209,85h29V540c0,0,53,91,106,127c0,0,53,36,112,36c0,0,103,0,172,-80c0,0,84,-99,84,-257c0,0,0,-176,-102,-292c0,0,-83,-94,-210,-94c0,0,-55,0,-95,16c0,0,-30,10,-67,44V-167c0,0,0,-71,8,-90c0,0,9,-20,30,-31c0,0,21,-11,77,-11v-27Z" 
id="f1_2c"
transform="scale(0.001,-0.001)" />

<path d="M20,0V26c0,0,45,0,71,15c0,0,15,7,24,28c0,0,9,21,9,85V773c0,0,0,117,-5,144c0,0,-6,27,-17,37c0,0,-12,9,-31,9c0,0,-16,0,-51,-12L10,978l204,83h34V561c0,0,83,91,131,116c0,0,49,26,97,26c0,0,58,0,100,-32c0,0,42,-32,62,-101c0,0,14,-47,14,-174V154c0,0,0,-65,11,-89c0,0,7,-18,25,-28c0,0,18,-11,66,-11V0H418V26h15c0,0,48,0,67,15c0,0,18,15,26,43c0,0,2,12,2,70V396c0,0,0,112,-12,147c0,0,-11,35,-36,53c0,0,-26,17,-61,17c0,0,-37,0,-76,-19c0,0,-40,-20,-95,-79V154c0,0,0,-70,8,-87c0,0,8,-17,29,-29c0,0,22,-12,74,-12V0Z" 
id="f1_24"
transform="scale(0.001,-0.001)" />

<path d="M342,-20c0,0,-116,0,-203,97c0,0,-86,98,-86,264c0,0,0,161,96,261c0,0,95,101,230,101c0,0,100,0,165,-53c0,0,65,-54,65,-111c0,0,0,-29,-18,-46c0,0,-18,-18,-51,-18c0,0,-44,0,-66,29c0,0,-13,15,-17,59c0,0,-4,45,-30,68c0,0,-26,22,-73,22c0,0,-74,0,-120,-55c0,0,-60,-73,-60,-193c0,0,0,-122,60,-216c0,0,60,-93,162,-93c0,0,73,0,131,49c0,0,41,35,80,126l22,-10C629,261,601,125,521,52c0,0,-81,-72,-179,-72Z" 
id="f1_1z"
transform="scale(0.001,-0.001)" />

<path d="M82,-253v33c0,0,77,25,119,78c0,0,42,54,42,114c0,0,0,14,-7,23c0,0,-5,6,-11,6c0,0,-8,0,-35,-14c0,0,-14,-7,-28,-7c0,0,-37,0,-58,21C104,1,82,23,82,61c0,0,0,36,28,62c0,0,28,27,68,27c0,0,49,0,88,-43c0,0,38,-43,38,-113c0,0,0,-77,-53,-143c0,0,-53,-66,-169,-104Z" 
id="f1_g"
transform="scale(0.001,-0.001)" />

<path d="M177,647v35c0,0,77,46,105,86c0,0,19,28,19,68c0,0,0,23,-8,34c0,0,-9,11,-19,11c0,0,-9,0,-22,-5c0,0,-19,-7,-32,-7c0,0,-30,0,-53,23c0,0,-23,22,-23,56c0,0,0,37,23,58c0,0,31,28,75,28c0,0,50,0,90,-42c0,0,40,-42,40,-105c0,0,0,-88,-67,-160c0,0,-44,-48,-128,-80Z" 
id="f1_53"
transform="scale(0.001,-0.001)" />

<path d="M312,-20c0,0,-62,0,-143,22c0,0,-25,8,-40,8c0,0,-18,0,-27,-19H77V234h25c0,0,21,-105,80,-158c0,0,59,-53,132,-53c0,0,51,0,84,31c0,0,32,30,32,72c0,0,0,52,-36,87c0,0,-36,35,-144,88c0,0,-109,54,-142,97c0,0,-34,43,-34,107c0,0,0,85,58,141c0,0,58,57,150,57c0,0,40,0,97,-17c0,0,38,-11,51,-11c0,0,12,0,19,5c0,0,7,5,15,23h25V470H464c0,0,-28,110,-72,149c0,0,-45,40,-113,40c0,0,-53,0,-85,-28c0,0,-32,-27,-32,-61c0,0,0,-41,24,-71c0,0,23,-31,94,-65L389,381c0,0,152,-74,152,-194c0,0,0,-94,-71,-151c0,0,-70,-56,-158,-56Z" 
id="f1_2f"
transform="scale(0.001,-0.001)" />

<path d="M376,-20L133,556c0,0,-17,41,-31,58c0,0,-15,18,-39,30c0,0,-12,7,-50,13v26H335V657H314c0,0,-29,0,-44,-14c0,0,-16,-14,-15,-38c0,0,-1,-26,15,-62L429,165L588,557c0,0,17,42,17,64c0,0,0,10,-6,17c0,0,-8,11,-21,15c0,0,-13,4,-52,4v26H750V657c0,0,-39,-3,-54,-16c0,0,-26,-23,-47,-76L409,-20Z" 
id="f1_2i"
transform="scale(0.001,-0.001)" />

<path d="M63,0V26H93c0,0,30,0,54,15c0,0,25,15,34,41c0,0,10,25,10,99V630H58v53H191v45c0,0,0,102,33,173c0,0,32,71,100,114c0,0,68,44,152,44c0,0,79,0,145,-51c0,0,43,-33,43,-75c0,0,0,-22,-19,-42c0,0,-20,-20,-42,-20c0,0,-17,0,-36,12c0,0,-19,13,-47,53c0,0,-28,41,-51,55c0,0,-23,14,-51,14c0,0,-35,0,-58,-18c0,0,-24,-18,-35,-57c0,0,-10,-38,-10,-197V683H491V630H315V181c0,0,0,-96,21,-122c0,0,27,-33,73,-33h62V0Z" 
id="f1_22"
transform="scale(0.001,-0.001)" />

<path d="M21,0V26H35c0,0,53,0,71,27c0,0,18,27,18,101V408c0,0,0,123,-5,150c0,0,-6,27,-17,37c0,0,-12,10,-31,10c0,0,-21,0,-50,-11L10,620l206,83h32V558c0,0,120,145,229,145c0,0,56,0,96,-28c0,0,40,-28,64,-92c0,0,16,-45,16,-137V154c0,0,0,-65,11,-88c0,0,8,-19,26,-29c0,0,18,-11,68,-11V0H419V26h14c0,0,47,0,66,15c0,0,20,15,27,43c0,0,3,11,3,70V434c0,0,0,93,-24,135c0,0,-24,42,-81,42c0,0,-88,0,-176,-97V154c0,0,0,-69,9,-86c0,0,10,-21,28,-31c0,0,19,-11,75,-11V0Z" 
id="f1_2a"
transform="scale(0.001,-0.001)" />

<path d="M397,34c0,0,67,0,126,75c0,0,58,74,58,216c0,0,0,131,-58,201c0,0,-59,70,-133,70c0,0,-39,0,-79,-20c0,0,-29,-14,-75,-59V109c0,0,37,-37,78,-56c0,0,40,-19,83,-19ZM358,-20c0,0,-59,0,-121,21c0,0,-61,22,-126,65V773c0,0,0,117,-5,144c0,0,-6,27,-18,37c0,0,-12,9,-29,9c0,0,-21,0,-53,-12l-9,27l205,83h34V564c0,0,98,139,213,139c0,0,105,0,183,-90c0,0,78,-90,78,-245c0,0,0,-182,-121,-293c0,0,-103,-95,-231,-95Z" 
id="f1_1y"
transform="scale(0.001,-0.001)" />

<path d="M191,-20c0,0,-34,0,-58,24c0,0,-24,24,-24,58c0,0,0,35,24,59c0,0,24,24,58,24c0,0,35,0,59,-24c0,0,24,-25,24,-59c0,0,0,-34,-24,-58c0,0,-25,-24,-59,-24Z" 
id="f1_i"
transform="scale(0.001,-0.001)" />

<path d="M54,0V40L172,60V941L44,960v40H794V760H745L721,922c0,0,-83,11,-241,11H316V516H611l23,120h46V328H634L611,449H316V60L483,40V0Z" 
id="f0_16"
transform="scale(0.001,-0.001)" />

<path d="M41,0V34L426,641H261c0,0,-42,0,-80,-7c0,0,-39,-7,-54,-19L104,515H69V701H586V665L201,60H407c0,0,42,0,89,10c0,0,47,10,66,25l39,147h35L617,0Z" 
id="f0_2m"
transform="scale(0.001,-0.001)" />

<path d="M44,0V40L172,60V941L44,960v40H794V760H745L721,922c0,0,-83,11,-241,11H316V543H586l23,119h48V354H609L586,475H316V67H513c0,0,193,0,252,12l43,185h49L843,0Z" 
id="f0_15"
transform="scale(0.001,-0.001)" />

<path d="M13,0V34L95,46L325,350L122,649L40,668v33H357V668L264,648L399,446L554,649l-96,19v33H710V668L630,652L433,397L663,50L745,34V0H427V34l94,17L359,299L169,50L266,34V0Z" 
id="f0_2k"
transform="scale(0.001,-0.001)" />

<path d="M211,-20c0,0,-39,0,-64,25c0,0,-26,27,-26,64c0,0,0,38,26,64c0,0,26,26,64,26c0,0,37,0,64,-25c0,0,26,-26,26,-65c0,0,0,-37,-26,-64c0,0,-26,-25,-64,-25Zm0,556c0,0,-38,0,-64,26c0,0,-26,26,-26,64c0,0,0,37,26,64c0,0,25,27,64,27c0,0,38,0,64,-27c0,0,26,-27,26,-64c0,0,0,-38,-26,-64c0,0,-27,-26,-64,-26Z" 
id="f0_u"
transform="scale(0.001,-0.001)" />

<path d="M448,506c0,0,134,0,190,49c0,0,57,50,57,168c0,0,0,114,-56,162c0,0,-56,48,-195,48H316V506ZM777,0L496,438H316V60L468,40V0H54V40L172,60V941L44,960v40H476c0,0,188,0,277,-63c0,0,90,-64,90,-204c0,0,0,-100,-54,-173c0,0,-55,-73,-151,-101L909,60L1017,40V0Z" 
id="f0_1i"
transform="scale(0.001,-0.001)" />

<path d="M577,-14c0,0,-243,0,-379,131C198,117,63,248,63,488c0,0,0,263,131,393c0,0,132,130,386,130c0,0,182,0,352,-45V751H882L862,875c0,0,-52,37,-124,57c0,0,-72,19,-152,19c0,0,-191,0,-279,-113c0,0,-88,-114,-88,-348c0,0,0,-220,91,-333c0,0,91,-114,269,-114c0,0,63,0,131,15c0,0,69,15,105,36V377L686,397v40h370V397L958,377V52C958,52,871,24,778,5c0,0,-93,-19,-201,-19Z" 
id="f0_17"
transform="scale(0.001,-0.001)" />

<path d="M435,350V646c0,0,0,84,7,158L145,350ZM435,0V198H21V319l450,686H636V350H736V198H636V0Z" 
id="f2_o"
transform="scale(0.001,-0.001)" />

<path d="M191,-20c0,0,-51,0,-88,34c0,0,-36,36,-36,88c0,0,0,52,36,88c0,0,36,36,88,36c0,0,51,0,88,-36c0,0,36,-36,36,-88c0,0,0,-51,-36,-87c0,0,-36,-35,-88,-35Z" 
id="f2_i"
transform="scale(0.001,-0.001)" />

<path d="M64,0V141c0,0,64,68,119,123c0,0,119,118,174,185c0,0,56,68,81,140c0,0,26,72,26,165c0,0,0,81,-40,131c0,0,-39,50,-105,50c0,0,-46,0,-74,-10c0,0,-27,-10,-50,-29L163,751H98V979c0,0,59,13,116,23c0,0,58,9,125,9c0,0,165,0,252,-68c0,0,88,-68,88,-193c0,0,0,-78,-26,-142c0,0,-26,-64,-83,-124c0,0,-56,-61,-224,-197c0,0,-64,-52,-139,-119H698V0Z" 
id="f2_m"
transform="scale(0.001,-0.001)" />

<path d="M122,0V64L295,82V837L123,780v64l282,165H511V82L685,64V0Z" 
id="f2_l"
transform="scale(0.001,-0.001)" />

<path d="M342,-14c0,0,-138,0,-276,29L57,258h69L165,96c0,0,65,-36,136,-36c0,0,90,0,141,58c0,0,50,57,50,161c0,0,0,91,-40,139c0,0,-41,48,-132,54l-87,5v90l84,6c0,0,66,5,98,49c0,0,32,44,32,134c0,0,0,83,-38,131c0,0,-38,48,-107,48c0,0,-40,0,-66,-13c0,0,-26,-12,-49,-26L155,751H90V979c0,0,76,19,132,26c0,0,55,6,108,6c0,0,337,0,337,-246c0,0,0,-102,-54,-164c0,0,-54,-63,-153,-78c0,0,252,-30,252,-251c0,0,0,-136,-98,-211c0,0,-98,-75,-272,-75Z" 
id="f2_n"
transform="scale(0.001,-0.001)" />

<path d="M608,-14c0,0,-251,0,-392,133C216,119,75,252,75,488c0,0,0,257,134,390c0,0,135,133,398,133c0,0,174,0,361,-50l4,-240H905L884,866c0,0,-98,67,-229,67c0,0,-173,0,-253,-108c0,0,-80,-108,-80,-334c0,0,0,-209,84,-319c0,0,83,-109,243,-109c0,0,84,0,147,22c0,0,63,22,99,53l24,164h68L982,48C982,48,915,22,808,4C808,4,700,-14,608,-14Z" 
id="f2_13"
transform="scale(0.001,-0.001)" />

<path d="M30,0V49l76,18V992l-72,18v50H322V67L398,49V0Z" 
id="f2_28"
transform="scale(0.001,-0.001)" />

<path d="M345,75c0,0,50,0,110,26V351l-63,-2c0,0,-72,-3,-100,-38c0,0,-28,-35,-28,-113c0,0,0,-63,22,-93c0,0,23,-30,59,-30ZM266,-14c0,0,-217,0,-217,208c0,0,0,79,32,126c0,0,32,48,93,71c0,0,60,22,190,25l91,2V521c0,0,0,126,-104,126c0,0,-62,0,-140,-39L183,521H134V691c0,0,112,17,165,21c0,0,53,5,108,5c0,0,264,0,264,-194V67L741,49V0H483L466,54C466,54,408,14,361,0c0,0,-47,-14,-95,-14Z" 
id="f2_1x"
transform="scale(0.001,-0.001)" />

<path d="M276,-14c0,0,-57,0,-125,13C151,-1,83,10,48,23V214H97l28,-98c0,0,26,-26,69,-44c0,0,42,-17,86,-17c0,0,65,0,97,28c0,0,32,28,32,71c0,0,0,41,-31,65c0,0,-30,25,-133,57c0,0,-108,34,-154,92c0,0,-45,58,-45,143c0,0,0,95,71,152c0,0,71,57,183,57c0,0,77,0,207,-22V518H457l-24,82c0,0,-21,22,-60,35c0,0,-40,14,-75,14c0,0,-53,0,-79,-22c0,0,-26,-22,-26,-59c0,0,0,-40,32,-65c0,0,32,-26,132,-55c0,0,109,-34,155,-89c0,0,45,-55,45,-137c0,0,0,-117,-72,-177c0,0,-72,-59,-209,-59Z" 
id="f2_2f"
transform="scale(0.001,-0.001)" />

<path d="M248,-20c0,0,-52,0,-87,34c0,0,-36,36,-36,88c0,0,0,52,36,88c0,0,35,36,87,36c0,0,52,0,88,-36c0,0,36,-36,36,-88c0,0,0,-51,-36,-87c0,0,-35,-35,-88,-35Zm0,488c0,0,-52,0,-87,36c0,0,-36,36,-36,88c0,0,0,52,35,88c0,0,35,36,88,36c0,0,53,0,89,-36c0,0,35,-37,35,-88c0,0,0,-51,-36,-87c0,0,-35,-37,-88,-37Z" 
id="f2_u"
transform="scale(0.001,-0.001)" />

<path d="M595,60c0,0,141,0,206,102c0,0,65,102,65,340c0,0,0,236,-65,335c0,0,-65,100,-206,100c0,0,-142,0,-207,-100c0,0,-66,-99,-66,-335c0,0,0,-239,66,-340c0,0,65,-102,207,-102Zm0,-74c0,0,-253,0,-387,130C208,116,75,246,75,501c0,0,0,510,520,510c0,0,256,0,387,-129c0,0,132,-130,132,-381c0,0,0,-254,-133,-385C981,116,848,-14,595,-14Z" 
id="f2_1f"
transform="scale(0.001,-0.001)" />

<path d="M327,-14c0,0,-101,0,-156,45c0,0,-55,45,-55,131V624H25v48l108,29l87,159H332V701H480V624H332V176c0,0,0,-49,20,-73c0,0,20,-25,53,-25c0,0,40,0,97,12V26c0,0,-22,-15,-76,-27c0,0,-55,-13,-99,-13Z" 
id="f2_2g"
transform="scale(0.001,-0.001)" />

<path d="M434,423c0,0,0,101,-7,142c0,0,-6,40,-22,60c0,0,-16,19,-45,19c0,0,-44,0,-66,-48c0,0,-22,-49,-22,-173ZM389,-14c0,0,-172,0,-254,89c0,0,-83,90,-83,279c0,0,0,184,79,274c0,0,79,91,238,91c0,0,142,0,206,-76c0,0,64,-76,64,-237V345H271V333c0,0,0,-111,18,-158c0,0,18,-47,58,-72c0,0,40,-25,110,-25c0,0,66,0,166,22V42C623,42,582,18,517,1c0,0,-66,-15,-128,-15Z" 
id="f2_21"
transform="scale(0.001,-0.001)" />

<path d="M34,0V49l76,18V634L38,652v49H325V67L402,49V0ZM217,831c0,0,-48,0,-81,33c0,0,-34,33,-34,82c0,0,0,48,34,81c0,0,34,33,81,33c0,0,48,0,81,-33c0,0,33,-33,33,-81c0,0,0,-47,-33,-81c0,0,-32,-34,-81,-34Z" 
id="f2_25"
transform="scale(0.001,-0.001)" />

<path d="M425,-14c0,0,-187,0,-280,90c0,0,-93,90,-93,276c0,0,0,115,42,198c0,0,43,82,121,126c0,0,78,44,182,44c0,0,104,0,227,-26V486H571L539,609c0,0,-25,19,-50,26c0,0,-24,7,-65,7c0,0,-44,0,-79,-35c0,0,-36,-35,-56,-98c0,0,-20,-64,-20,-153c0,0,0,-150,47,-214c0,0,47,-64,148,-64c0,0,103,0,176,21V42C640,42,606,15,547,0c0,0,-59,-14,-122,-14Z" 
id="f2_1z"
transform="scale(0.001,-0.001)" />

<path d="M41,0V49l69,18V992l-72,18v50H325V756c0,0,0,-49,-4,-116l51,26c0,0,106,54,190,54c0,0,194,0,194,-207V67L827,49V0H478V49l63,18V484c0,0,0,63,-27,98c0,0,-26,35,-75,35c0,0,-57,0,-114,-25V67L389,49V0Z" 
id="f2_24"
transform="scale(0.001,-0.001)" />

<path d="M159,-329c0,0,-61,0,-123,14v180H81l32,-94c0,0,21,-17,55,-17c0,0,28,0,50,13c0,0,21,14,40,39c0,0,20,25,37,62c0,0,17,37,50,110L64,634L15,652v49H374V652L290,632L455,244L602,634l-82,18v49H749V652L698,637L421,-44c0,0,-47,-121,-83,-176c0,0,-36,-55,-80,-82c0,0,-43,-27,-99,-27Z" 
id="f2_2l"
transform="scale(0.001,-0.001)" />

<path d="M55,0V40L184,60V941L55,960v40H455V960L327,941V60L455,40V0Z" 
id="f0_19"
transform="scale(0.001,-0.001)" />

<path d="M536,63c0,0,127,0,191,54c0,0,63,54,63,168c0,0,0,105,-70,154c0,0,-70,49,-225,49H316V67c0,0,103,-4,220,-4ZM480,555c0,0,121,0,178,48c0,0,57,48,57,155c0,0,0,91,-58,133c0,0,-57,42,-186,42H316V555ZM554,-4L235,0H44V40L172,60V941L44,960v40H501c0,0,191,0,279,-56c0,0,88,-56,88,-179c0,0,0,-88,-55,-149c0,0,-54,-62,-151,-83c0,0,135,-14,209,-79c0,0,73,-65,73,-166c0,0,0,-144,-99,-219C845,69,745,-4,554,-4Z" 
id="f0_12"
transform="scale(0.001,-0.001)" />

<path d="M0,-14L351,1007h73L75,-14Z" 
id="f0_j"
transform="scale(0.001,-0.001)" />

<path d="M681,416L504,902L333,416ZM669,0V40L803,60L704,348H310L210,60L344,40V0H15V40L128,60l341,949H611L965,60L1092,40V0Z" 
id="f0_11"
transform="scale(0.001,-0.001)" />

<path d="M577,-14c0,0,-243,0,-379,132C198,118,63,250,63,488c0,0,0,258,130,391c0,0,131,132,387,132c0,0,156,0,335,-38l5,-218H871L848,884c0,0,-52,32,-121,50c0,0,-69,17,-141,17c0,0,-191,0,-279,-112c0,0,-88,-113,-88,-349c0,0,0,-217,92,-332c0,0,92,-115,268,-115c0,0,85,0,160,20c0,0,76,21,120,55l27,149h49L930,32c0,0,-164,-46,-353,-46Z" 
id="f0_13"
transform="scale(0.001,-0.001)" />

<path d="M46,0c0,0,-2,48,16,93c0,0,27,74,88,146c0,0,61,71,176,165c0,0,178,146,241,232c0,0,63,85,63,161c0,0,0,80,-57,135c0,0,-58,55,-149,55c0,0,-98,0,-156,-59c0,0,-58,-58,-59,-160L71,782c0,0,15,154,107,235c0,0,93,81,249,81c0,0,157,0,249,-87c0,0,92,-88,92,-217c0,0,0,-65,-27,-129c0,0,-27,-63,-89,-133c0,0,-62,-70,-207,-193C445,339,324,238,290,202c0,0,-35,-36,-57,-73H770V0Z" 
id="f3_m"
transform="scale(0.001,-0.001)" />

<path d="M423,92c0,0,97,0,159,62c0,0,62,62,62,157c0,0,0,97,-64,160c0,0,-64,64,-161,64c0,0,-96,0,-158,-63c0,0,-62,-62,-62,-156c0,0,0,-58,27,-111c0,0,27,-54,81,-84c0,0,54,-29,116,-29Zm0,552c0,0,78,0,127,49c0,0,49,49,49,120c0,0,0,74,-50,124c0,0,-51,51,-128,51c0,0,-77,0,-127,-50c0,0,-51,-49,-51,-118c0,0,0,-77,50,-126c0,0,50,-50,130,-50ZM422,-18c0,0,-162,0,-261,95c0,0,-99,96,-99,239c0,0,0,107,54,179c0,0,54,72,154,98c0,0,-84,31,-124,87c0,0,-40,57,-40,136c0,0,0,119,85,201c0,0,86,81,229,81c0,0,143,0,230,-83c0,0,87,-83,87,-203c0,0,0,-76,-40,-132c0,0,-39,-56,-121,-87c0,0,101,-33,154,-106c0,0,52,-73,52,-174c0,0,0,-141,-99,-236c0,0,-99,-95,-261,-95Z" 
id="f3_s"
transform="scale(0.001,-0.001)" />


</defs>
</svg>