<?xml version="1.0" encoding="UTF-8" standalone="no"?>
<!DOCTYPE svg PUBLIC "-//W3C//DTD SVG 1.1//EN"
"http://www.w3.org/Graphics/SVG/1.1/DTD/svg11.dtd">
<svg viewBox="0 0 797 1155" version="1.1" xmlns="http://www.w3.org/2000/svg" xmlns:xlink="http://www.w3.org/1999/xlink">
<defs>
</defs>
<g fill="#000000" >
<use xlink:href="#f0_3d" transform="matrix(12,0,0,12,55,73.4)" />
<use xlink:href="#f1_1k" transform="matrix(12,0,0,12,82.5,73.4)" />
<use xlink:href="#f1_2e" transform="matrix(12,0,0,12,93.9,73.4)" />
<use xlink:href="#f1_1x" transform="matrix(12,0,0,12,100.1,73.4)" />
<use xlink:href="#f1_1z" transform="matrix(12,0,0,12,108.2,73.4)" />
<use xlink:href="#f1_24" transform="matrix(12,0,0,12,116.2,73.4)" />
<use xlink:href="#f1_21" transform="matrix(12,0,0,12,125,73.4)" />
<use xlink:href="#f1_25" transform="matrix(12,0,0,12,133.4,73.4)" />
<use xlink:href="#f1_20" transform="matrix(12,0,0,12,138.2,73.4)" />
<use xlink:href="#f1_1x" transform="matrix(12,0,0,12,152.1,73.4)" />
<use xlink:href="#f1_2a" transform="matrix(12,0,0,12,160.5,73.4)" />
<use xlink:href="#f1_20" transform="matrix(12,0,0,12,169.3,73.4)" />
<use xlink:href="#f1_2i" transform="matrix(12,0,0,12,183.4,73.4)" />
<use xlink:href="#f1_21" transform="matrix(12,0,0,12,192.6,73.4)" />
<use xlink:href="#f1_2f" transform="matrix(12,0,0,12,200.6,73.4)" />
<use xlink:href="#f1_2f" transform="matrix(12,0,0,12,208,73.4)" />
<use xlink:href="#f1_21" transform="matrix(12,0,0,12,214.9,73.4)" />
<use xlink:href="#f1_28" transform="matrix(12,0,0,12,223.3,73.4)" />
<use xlink:href="#f1_2f" transform="matrix(12,0,0,12,228.1,73.4)" />
<use xlink:href="#f1_1x" transform="matrix(12,0,0,12,239.9,73.4)" />
<use xlink:href="#f1_2e" transform="matrix(12,0,0,12,248,73.4)" />
<use xlink:href="#f1_21" transform="matrix(12,0,0,12,254.2,73.4)" />
<use xlink:href="#f1_1z" transform="matrix(12,0,0,12,267,73.4)" />
<use xlink:href="#f1_2b" transform="matrix(12,0,0,12,275.1,73.4)" />
<use xlink:href="#f1_28" transform="matrix(12,0,0,12,285,73.4)" />
<use xlink:href="#f1_28" transform="matrix(12,0,0,12,289.8,73.4)" />
<use xlink:href="#f1_21" transform="matrix(12,0,0,12,294.5,73.4)" />
<use xlink:href="#f1_1z" transform="matrix(12,0,0,12,302.6,73.4)" />
<use xlink:href="#f1_2g" transform="matrix(12,0,0,12,310.7,73.4)" />
<use xlink:href="#f1_25" transform="matrix(12,0,0,12,316.5,73.4)" />
<use xlink:href="#f1_2i" transform="matrix(12,0,0,12,321.3,73.4)" />
<use xlink:href="#f1_21" transform="matrix(12,0,0,12,330.1,73.4)" />
<use xlink:href="#f1_28" transform="matrix(12,0,0,12,338.5,73.4)" />
<use xlink:href="#f1_2l" transform="matrix(12,0,0,12,343.6,73.4)" />
<use xlink:href="#f1_27" transform="matrix(12,0,0,12,357.2,73.4)" />
<use xlink:href="#f1_2a" transform="matrix(12,0,0,12,366.7,73.4)" />
<use xlink:href="#f1_2b" transform="matrix(12,0,0,12,375.5,73.4)" />
<use xlink:href="#f1_2j" transform="matrix(12,0,0,12,385,73.4)" />
<use xlink:href="#f1_2a" transform="matrix(12,0,0,12,398.2,73.4)" />
<use xlink:href="#f1_1x" transform="matrix(12,0,0,12,411.7,73.4)" />
<use xlink:href="#f1_2f" transform="matrix(12,0,0,12,419.8,73.4)" />
<use xlink:href="#f1_2j" transform="matrix(12,0,0,12,431.7,73.4)" />
<use xlink:href="#f1_1x" transform="matrix(12,0,0,12,445,73.4)" />
<use xlink:href="#f1_2g" transform="matrix(12,0,0,12,453.4,73.4)" />
<use xlink:href="#f1_21" transform="matrix(12,0,0,12,458.8,73.4)" />
<use xlink:href="#f1_2e" transform="matrix(12,0,0,12,466.9,73.4)" />
<use xlink:href="#f1_1z" transform="matrix(12,0,0,12,477.9,73.4)" />
<use xlink:href="#f1_2b" transform="matrix(12,0,0,12,485.6,73.4)" />
<use xlink:href="#f1_2a" transform="matrix(12,0,0,12,495.1,73.4)" />
<use xlink:href="#f1_20" transform="matrix(12,0,0,12,503.9,73.4)" />
<use xlink:href="#f1_2h" transform="matrix(12,0,0,12,513.1,73.4)" />
<use xlink:href="#f1_1z" transform="matrix(12,0,0,12,522.2,73.4)" />
<use xlink:href="#f1_2g" transform="matrix(12,0,0,12,530.3,73.4)" />
<use xlink:href="#f1_25" transform="matrix(12,0,0,12,535.8,73.4)" />
<use xlink:href="#f1_2a" transform="matrix(12,0,0,12,540.5,73.4)" />
<use xlink:href="#f1_23" transform="matrix(12,0,0,12,549.3,73.4)" />
<use xlink:href="#f1_21" transform="matrix(12,0,0,12,563.3,73.4)" />
<use xlink:href="#f1_28" transform="matrix(12,0,0,12,571.7,73.4)" />
<use xlink:href="#f1_21" transform="matrix(12,0,0,12,576.4,73.4)" />
<use xlink:href="#f1_29" transform="matrix(12,0,0,12,584.9,73.4)" />
<use xlink:href="#f1_21" transform="matrix(12,0,0,12,598.8,73.4)" />
<use xlink:href="#f1_2a" transform="matrix(12,0,0,12,607.2,73.4)" />
<use xlink:href="#f2_2g" transform="matrix(12,0,0,12,616.3,73.4)" />
<use xlink:href="#f2_2f" transform="matrix(12,0,0,12,621.7,73.4)" />
<use xlink:href="#f2_2b" transform="matrix(12,0,0,12,633.5,73.4)" />
<use xlink:href="#f2_2e" transform="matrix(12,0,0,12,643,73.4)" />
<use xlink:href="#f2_50" transform="matrix(12,0,0,12,653.6,73.4)" />
<use xlink:href="#f2_18" transform="matrix(12,0,0,12,661.3,73.4)" />
<use xlink:href="#f2_1x" transform="matrix(12,0,0,12,674.5,73.4)" />
<use xlink:href="#f2_20" transform="matrix(12,0,0,12,682.6,73.4)" />
<use xlink:href="#f2_2e" transform="matrix(12,0,0,12,691.7,73.4)" />
<use xlink:href="#f2_2b" transform="matrix(12,0,0,12,697.9,73.4)" />
<use xlink:href="#f2_29" transform="matrix(12,0,0,12,707.4,73.4)" />
<use xlink:href="#f2_21" transform="matrix(12,0,0,12,721.4,73.4)" />
<use xlink:href="#f2_51" transform="matrix(12,0,0,12,729.4,73.4)" />
<use xlink:href="#f2_i" transform="matrix(12,0,0,12,737.5,73.4)" />
<use xlink:href="#f1_14" transform="matrix(12,0,0,12,82.5,94.3)" />
<use xlink:href="#f1_21" transform="matrix(12,0,0,12,95.8,94.3)" />
<use xlink:href="#f1_2i" transform="matrix(12,0,0,12,103.8,94.3)" />
<use xlink:href="#f1_21" transform="matrix(12,0,0,12,112.6,94.3)" />
<use xlink:href="#f1_28" transform="matrix(12,0,0,12,121,94.3)" />
<use xlink:href="#f1_2b" transform="matrix(12,0,0,12,125.4,94.3)" />
<use xlink:href="#f1_2c" transform="matrix(12,0,0,12,134.9,94.3)" />
<use xlink:href="#f1_29" transform="matrix(12,0,0,12,144.4,94.3)" />
<use xlink:href="#f1_21" transform="matrix(12,0,0,12,158.4,94.3)" />
<use xlink:href="#f1_2a" transform="matrix(12,0,0,12,166.8,94.3)" />
<use xlink:href="#f1_2g" transform="matrix(12,0,0,12,175.6,94.3)" />
<use xlink:href="#f1_2b" transform="matrix(12,0,0,12,185.8,94.3)" />
<use xlink:href="#f1_22" transform="matrix(12,0,0,12,195.3,94.3)" />
<use xlink:href="#f1_1z" transform="matrix(12,0,0,12,205.8,94.3)" />
<use xlink:href="#f1_2b" transform="matrix(12,0,0,12,213.8,94.3)" />
<use xlink:href="#f1_2a" transform="matrix(12,0,0,12,223.4,94.3)" />
<use xlink:href="#f1_20" transform="matrix(12,0,0,12,232.2,94.3)" />
<use xlink:href="#f1_2h" transform="matrix(12,0,0,12,241.3,94.3)" />
<use xlink:href="#f1_1z" transform="matrix(12,0,0,12,250.5,94.3)" />
<use xlink:href="#f1_2g" transform="matrix(12,0,0,12,258.6,94.3)" />
<use xlink:href="#f1_25" transform="matrix(12,0,0,12,264,94.3)" />
<use xlink:href="#f1_2a" transform="matrix(12,0,0,12,268.8,94.3)" />
<use xlink:href="#f1_23" transform="matrix(12,0,0,12,277.6,94.3)" />
<use xlink:href="#f1_21" transform="matrix(12,0,0,12,291.5,94.3)" />
<use xlink:href="#f1_28" transform="matrix(12,0,0,12,299.9,94.3)" />
<use xlink:href="#f1_21" transform="matrix(12,0,0,12,304.7,94.3)" />
<use xlink:href="#f1_29" transform="matrix(12,0,0,12,313.1,94.3)" />
<use xlink:href="#f1_21" transform="matrix(12,0,0,12,327.1,94.3)" />
<use xlink:href="#f1_2a" transform="matrix(12,0,0,12,335.5,94.3)" />
<use xlink:href="#f1_2g" transform="matrix(12,0,0,12,344.3,94.3)" />
<use xlink:href="#f1_2f" transform="matrix(12,0,0,12,349.7,94.3)" />
<use xlink:href="#f1_1y" transform="matrix(12,0,0,12,361.5,94.3)" />
<use xlink:href="#f1_2l" transform="matrix(12,0,0,12,370.6,94.3)" />
<use xlink:href="#f1_2g" transform="matrix(12,0,0,12,383.8,94.3)" />
<use xlink:href="#f1_24" transform="matrix(12,0,0,12,389.3,94.3)" />
<use xlink:href="#f1_2e" transform="matrix(12,0,0,12,398.1,94.3)" />
<use xlink:href="#f1_21" transform="matrix(12,0,0,12,404.3,94.3)" />
<use xlink:href="#f1_21" transform="matrix(12,0,0,12,412.4,94.3)" />
<use xlink:href="#f1_2g" transform="matrix(12,0,0,12,425.2,94.3)" />
<use xlink:href="#f1_2l" transform="matrix(12,0,0,12,431,94.3)" />
<use xlink:href="#f1_2c" transform="matrix(12,0,0,12,439.5,94.3)" />
<use xlink:href="#f1_21" transform="matrix(12,0,0,12,448.6,94.3)" />
<use xlink:href="#f1_2f" transform="matrix(12,0,0,12,457.1,94.3)" />
<use xlink:href="#f1_u" transform="matrix(12,0,0,12,468.8,94.3)" />
<use xlink:href="#f1_h" transform="matrix(12,0,0,12,474.3,94.3)" />
<use xlink:href="#f3_19" transform="matrix(12,0,0,12,82.5,115.5)" />
<use xlink:href="#f3_i" transform="matrix(12,0,0,12,89.5,115.5)" />
<use xlink:href="#f3_13" transform="matrix(12,0,0,12,99.4,115.5)" />
<use xlink:href="#f3_21" transform="matrix(12,0,0,12,112.6,115.5)" />
<use xlink:href="#f3_2a" transform="matrix(12,0,0,12,120.7,115.5)" />
<use xlink:href="#f3_2g" transform="matrix(12,0,0,12,130.9,115.5)" />
<use xlink:href="#f3_2e" transform="matrix(12,0,0,12,137.1,115.5)" />
<use xlink:href="#f3_25" transform="matrix(12,0,0,12,144.8,115.5)" />
<use xlink:href="#f3_22" transform="matrix(12,0,0,12,149.9,115.5)" />
<use xlink:href="#f3_2h" transform="matrix(12,0,0,12,155.8,115.5)" />
<use xlink:href="#f3_23" transform="matrix(12,0,0,12,166.1,115.5)" />
<use xlink:href="#f3_1x" transform="matrix(12,0,0,12,175.2,115.5)" />
<use xlink:href="#f3_28" transform="matrix(12,0,0,12,184.8,115.5)" />
<use xlink:href="#f3_u" transform="matrix(12,0,0,12,189.5,115.5)" />
<use xlink:href="#f3_h" transform="matrix(12,0,0,12,201,115.5)" />
<use xlink:href="#f1_19" transform="matrix(12,0,0,12,212.4,115.5)" />
<use xlink:href="#f1_2a" transform="matrix(12,0,0,12,218.6,115.5)" />
<use xlink:href="#f1_2g" transform="matrix(12,0,0,12,232.2,115.5)" />
<use xlink:href="#f1_24" transform="matrix(12,0,0,12,237.7,115.5)" />
<use xlink:href="#f1_25" transform="matrix(12,0,0,12,246.8,115.5)" />
<use xlink:href="#f1_2f" transform="matrix(12,0,0,12,251.2,115.5)" />
<use xlink:href="#f1_2g" transform="matrix(12,0,0,12,263.3,115.5)" />
<use xlink:href="#f1_2l" transform="matrix(12,0,0,12,269.1,115.5)" />
<use xlink:href="#f1_2c" transform="matrix(12,0,0,12,277.6,115.5)" />
<use xlink:href="#f1_21" transform="matrix(12,0,0,12,286.7,115.5)" />
<use xlink:href="#f1_2b" transform="matrix(12,0,0,12,299.9,115.5)" />
<use xlink:href="#f1_22" transform="matrix(12,0,0,12,309.4,115.5)" />
<use xlink:href="#f1_20" transform="matrix(12,0,0,12,320.1,115.5)" />
<use xlink:href="#f1_21" transform="matrix(12,0,0,12,329.2,115.5)" />
<use xlink:href="#f1_2i" transform="matrix(12,0,0,12,337.6,115.5)" />
<use xlink:href="#f1_21" transform="matrix(12,0,0,12,346.4,115.5)" />
<use xlink:href="#f1_28" transform="matrix(12,0,0,12,354.9,115.5)" />
<use xlink:href="#f1_2b" transform="matrix(12,0,0,12,359.3,115.5)" />
<use xlink:href="#f1_2c" transform="matrix(12,0,0,12,368.8,115.5)" />
<use xlink:href="#f1_29" transform="matrix(12,0,0,12,378.3,115.5)" />
<use xlink:href="#f1_21" transform="matrix(12,0,0,12,392.2,115.5)" />
<use xlink:href="#f1_2a" transform="matrix(12,0,0,12,400.6,115.5)" />
<use xlink:href="#f1_2g" transform="matrix(12,0,0,12,409.4,115.5)" />
<use xlink:href="#f1_g" transform="matrix(12,0,0,12,414.9,115.5)" />
<use xlink:href="#f1_2g" transform="matrix(12,0,0,12,424.4,115.5)" />
<use xlink:href="#f1_24" transform="matrix(12,0,0,12,429.9,115.5)" />
<use xlink:href="#f1_21" transform="matrix(12,0,0,12,438.7,115.5)" />
<use xlink:href="#f1_2c" transform="matrix(12,0,0,12,451.9,115.5)" />
<use xlink:href="#f1_2e" transform="matrix(12,0,0,12,461,115.5)" />
<use xlink:href="#f1_2b" transform="matrix(12,0,0,12,467.3,115.5)" />
<use xlink:href="#f1_2g" transform="matrix(12,0,0,12,476.4,115.5)" />
<use xlink:href="#f1_2b" transform="matrix(12,0,0,12,481.5,115.5)" />
<use xlink:href="#f1_2k" transform="matrix(12,0,0,12,491.1,115.5)" />
<use xlink:href="#f1_2l" transform="matrix(12,0,0,12,500.2,115.5)" />
<use xlink:href="#f1_28" transform="matrix(12,0,0,12,509,115.5)" />
<use xlink:href="#f1_21" transform="matrix(12,0,0,12,513.8,115.5)" />
<use xlink:href="#f1_29" transform="matrix(12,0,0,12,522.2,115.5)" />
<use xlink:href="#f1_22" transform="matrix(12,0,0,12,541.3,115.5)" />
<use xlink:href="#f1_2b" transform="matrix(12,0,0,12,546.8,115.5)" />
<use xlink:href="#f1_2e" transform="matrix(12,0,0,12,556.3,115.5)" />
<use xlink:href="#f1_29" transform="matrix(12,0,0,12,562.9,115.5)" />
<use xlink:href="#f1_21" transform="matrix(12,0,0,12,576.4,115.5)" />
<use xlink:href="#f1_20" transform="matrix(12,0,0,12,584.5,115.5)" />
<use xlink:href="#f1_2a" transform="matrix(12,0,0,12,599.1,115.5)" />
<use xlink:href="#f1_21" transform="matrix(12,0,0,12,607.9,115.5)" />
<use xlink:href="#f1_1x" transform="matrix(12,0,0,12,616,115.5)" />
<use xlink:href="#f1_2e" transform="matrix(12,0,0,12,624.1,115.5)" />
<use xlink:href="#f1_2g" transform="matrix(12,0,0,12,635.4,115.5)" />
<use xlink:href="#f1_24" transform="matrix(12,0,0,12,640.9,115.5)" />
<use xlink:href="#f1_21" transform="matrix(12,0,0,12,649.7,115.5)" />
<use xlink:href="#f1_1z" transform="matrix(12,0,0,12,662.9,115.5)" />
<use xlink:href="#f1_21" transform="matrix(12,0,0,12,670.9,115.5)" />
<use xlink:href="#f1_2a" transform="matrix(12,0,0,12,679,115.5)" />
<use xlink:href="#f1_2g" transform="matrix(12,0,0,12,687.8,115.5)" />
<use xlink:href="#f1_2e" transform="matrix(12,0,0,12,693.3,115.5)" />
<use xlink:href="#f1_21" transform="matrix(12,0,0,12,699.5,115.5)" />
<use xlink:href="#f1_1x" transform="matrix(12,0,0,12,712.7,115.5)" />
<use xlink:href="#f1_2k" transform="matrix(12,0,0,12,720.8,115.5)" />
<use xlink:href="#f1_25" transform="matrix(12,0,0,12,729.9,115.5)" />
<use xlink:href="#f1_2f" transform="matrix(12,0,0,12,734.7,115.5)" />
<use xlink:href="#f1_1x" transform="matrix(12,0,0,12,82.5,136.4)" />
<use xlink:href="#f1_2a" transform="matrix(12,0,0,12,90.6,136.4)" />
<use xlink:href="#f1_20" transform="matrix(12,0,0,12,99.4,136.4)" />
<use xlink:href="#f1_29" transform="matrix(12,0,0,12,114.8,136.4)" />
<use xlink:href="#f1_21" transform="matrix(12,0,0,12,128.7,136.4)" />
<use xlink:href="#f1_2g" transform="matrix(12,0,0,12,136.8,136.4)" />
<use xlink:href="#f1_1x" transform="matrix(12,0,0,12,142.3,136.4)" />
<use xlink:href="#f1_2k" transform="matrix(12,0,0,12,150.4,136.4)" />
<use xlink:href="#f1_2l" transform="matrix(12,0,0,12,159.5,136.4)" />
<use xlink:href="#f1_28" transform="matrix(12,0,0,12,168.7,136.4)" />
<use xlink:href="#f1_21" transform="matrix(12,0,0,12,173.5,136.4)" />
<use xlink:href="#f1_29" transform="matrix(12,0,0,12,181.9,136.4)" />
<use xlink:href="#f1_25" transform="matrix(12,0,0,12,202.1,136.4)" />
<use xlink:href="#f1_2f" transform="matrix(12,0,0,12,206.9,136.4)" />
<use xlink:href="#f1_22" transform="matrix(12,0,0,12,220.4,136.4)" />
<use xlink:href="#f1_2b" transform="matrix(12,0,0,12,225.9,136.4)" />
<use xlink:href="#f1_2e" transform="matrix(12,0,0,12,235.4,136.4)" />
<use xlink:href="#f1_29" transform="matrix(12,0,0,12,242,136.4)" />
<use xlink:href="#f1_21" transform="matrix(12,0,0,12,255.6,136.4)" />
<use xlink:href="#f1_20" transform="matrix(12,0,0,12,263.6,136.4)" />
<use xlink:href="#f1_1x" transform="matrix(12,0,0,12,278.7,136.4)" />
<use xlink:href="#f1_2j" transform="matrix(12,0,0,12,286.7,136.4)" />
<use xlink:href="#f1_1x" transform="matrix(12,0,0,12,300,136.4)" />
<use xlink:href="#f1_2l" transform="matrix(12,0,0,12,308.3,136.4)" />
<use xlink:href="#f1_22" transform="matrix(12,0,0,12,323.3,136.4)" />
<use xlink:href="#f1_2e" transform="matrix(12,0,0,12,329.2,136.4)" />
<use xlink:href="#f1_2b" transform="matrix(12,0,0,12,335.4,136.4)" />
<use xlink:href="#f1_29" transform="matrix(12,0,0,12,344.9,136.4)" />
<use xlink:href="#f1_2g" transform="matrix(12,0,0,12,364.4,136.4)" />
<use xlink:href="#f1_24" transform="matrix(12,0,0,12,369.8,136.4)" />
<use xlink:href="#f1_21" transform="matrix(12,0,0,12,378.6,136.4)" />
<use xlink:href="#f1_1z" transform="matrix(12,0,0,12,392.9,136.4)" />
<use xlink:href="#f1_21" transform="matrix(12,0,0,12,401,136.4)" />
<use xlink:href="#f1_2a" transform="matrix(12,0,0,12,409.4,136.4)" />
<use xlink:href="#f1_2g" transform="matrix(12,0,0,12,418.2,136.4)" />
<use xlink:href="#f1_2e" transform="matrix(12,0,0,12,423.7,136.4)" />
<use xlink:href="#f1_21" transform="matrix(12,0,0,12,429.9,136.4)" />
<use xlink:href="#f1_2g" transform="matrix(12,0,0,12,443.4,136.4)" />
<use xlink:href="#f1_2b" transform="matrix(12,0,0,12,448.5,136.4)" />
<use xlink:href="#f1_2j" transform="matrix(12,0,0,12,458.1,136.4)" />
<use xlink:href="#f1_1x" transform="matrix(12,0,0,12,471.3,136.4)" />
<use xlink:href="#f1_2e" transform="matrix(12,0,0,12,479.4,136.4)" />
<use xlink:href="#f1_20" transform="matrix(12,0,0,12,485.6,136.4)" />
<use xlink:href="#f1_2f" transform="matrix(12,0,0,12,494.7,136.4)" />
<use xlink:href="#f1_2g" transform="matrix(12,0,0,12,507.2,136.4)" />
<use xlink:href="#f1_24" transform="matrix(12,0,0,12,512.7,136.4)" />
<use xlink:href="#f1_21" transform="matrix(12,0,0,12,521.5,136.4)" />
<use xlink:href="#f1_2c" transform="matrix(12,0,0,12,535.4,136.4)" />
<use xlink:href="#f1_21" transform="matrix(12,0,0,12,544.6,136.4)" />
<use xlink:href="#f1_2e" transform="matrix(12,0,0,12,552.6,136.4)" />
<use xlink:href="#f1_25" transform="matrix(12,0,0,12,559.2,136.4)" />
<use xlink:href="#f1_2c" transform="matrix(12,0,0,12,563.6,136.4)" />
<use xlink:href="#f1_24" transform="matrix(12,0,0,12,573.1,136.4)" />
<use xlink:href="#f1_21" transform="matrix(12,0,0,12,581.9,136.4)" />
<use xlink:href="#f1_2e" transform="matrix(12,0,0,12,590,136.4)" />
<use xlink:href="#f1_2l" transform="matrix(12,0,0,12,596.6,136.4)" />
<use xlink:href="#f1_i" transform="matrix(12,0,0,12,605,136.4)" />
<use xlink:href="#f1_1k" transform="matrix(12,0,0,12,615.6,136.4)" />
<use xlink:href="#f1_24" transform="matrix(12,0,0,12,627.3,136.4)" />
<use xlink:href="#f1_25" transform="matrix(12,0,0,12,636.5,136.4)" />
<use xlink:href="#f1_2f" transform="matrix(12,0,0,12,641.2,136.4)" />
<use xlink:href="#f1_1z" transform="matrix(12,0,0,12,654.1,136.4)" />
<use xlink:href="#f1_2b" transform="matrix(12,0,0,12,662.1,136.4)" />
<use xlink:href="#f1_2a" transform="matrix(12,0,0,12,671.6,136.4)" />
<use xlink:href="#f1_20" transform="matrix(12,0,0,12,680.4,136.4)" />
<use xlink:href="#f1_25" transform="matrix(12,0,0,12,690,136.4)" />
<use xlink:href="#f1_2g" transform="matrix(12,0,0,12,694.4,136.4)" />
<use xlink:href="#f1_25" transform="matrix(12,0,0,12,700.2,136.4)" />
<use xlink:href="#f1_2b" transform="matrix(12,0,0,12,704.6,136.4)" />
<use xlink:href="#f1_2a" transform="matrix(12,0,0,12,714.5,136.4)" />
<use xlink:href="#f1_25" transform="matrix(12,0,0,12,729.5,136.4)" />
<use xlink:href="#f1_2f" transform="matrix(12,0,0,12,734.6,136.4)" />
<use xlink:href="#f1_27" transform="matrix(12,0,0,12,82.5,157.7)" />
<use xlink:href="#f1_2a" transform="matrix(12,0,0,12,91.7,157.7)" />
<use xlink:href="#f1_2b" transform="matrix(12,0,0,12,100.5,157.7)" />
<use xlink:href="#f1_2j" transform="matrix(12,0,0,12,110,157.7)" />
<use xlink:href="#f1_2a" transform="matrix(12,0,0,12,123.3,157.7)" />
<use xlink:href="#f1_1x" transform="matrix(12,0,0,12,136.8,157.7)" />
<use xlink:href="#f1_2f" transform="matrix(12,0,0,12,144.8,157.7)" />
<use xlink:href="#f3_21" transform="matrix(12,0,0,12,156.6,157.7)" />
<use xlink:href="#f3_2a" transform="matrix(12,0,0,12,164.7,157.7)" />
<use xlink:href="#f3_20" transform="matrix(12,0,0,12,175,157.7)" />
<use xlink:href="#f3_1x" transform="matrix(12,0,0,12,185.2,157.7)" />
<use xlink:href="#f3_2e" transform="matrix(12,0,0,12,194.7,157.7)" />
<use xlink:href="#f3_1z" transform="matrix(12,0,0,12,202.4,157.7)" />
<use xlink:href="#f3_24" transform="matrix(12,0,0,12,210.5,157.7)" />
<use xlink:href="#f1_i" transform="matrix(12,0,0,12,220.8,157.7)" />
<use xlink:href="#f1_15" transform="matrix(12,0,0,12,230.4,157.7)" />
<use xlink:href="#f1_2k" transform="matrix(12,0,0,12,241.7,157.7)" />
<use xlink:href="#f1_i" transform="matrix(12,0,0,12,250.5,157.7)" />
<use xlink:href="#f1_2f" transform="matrix(12,0,0,12,260,157.7)" />
<use xlink:href="#f1_2g" transform="matrix(12,0,0,12,267,157.7)" />
<use xlink:href="#f1_21" transform="matrix(12,0,0,12,272.5,157.7)" />
<use xlink:href="#f1_29" transform="matrix(12,0,0,12,280.6,157.7)" />
<use xlink:href="#f1_2b" transform="matrix(12,0,0,12,298.9,157.7)" />
<use xlink:href="#f1_22" transform="matrix(12,0,0,12,308.4,157.7)" />
<use xlink:href="#f1_1x" transform="matrix(12,0,0,12,318.8,157.7)" />
<use xlink:href="#f1_2a" transform="matrix(12,0,0,12,326.9,157.7)" />
<use xlink:href="#f1_23" transform="matrix(12,0,0,12,335.7,157.7)" />
<use xlink:href="#f1_25" transform="matrix(12,0,0,12,345.2,157.7)" />
<use xlink:href="#f1_2b" transform="matrix(12,0,0,12,349.6,157.7)" />
<use xlink:href="#f1_2f" transform="matrix(12,0,0,12,359.4,157.7)" />
<use xlink:href="#f1_2c" transform="matrix(12,0,0,12,366.4,157.7)" />
<use xlink:href="#f1_21" transform="matrix(12,0,0,12,375.6,157.7)" />
<use xlink:href="#f1_2e" transform="matrix(12,0,0,12,383.6,157.7)" />
<use xlink:href="#f1_29" transform="matrix(12,0,0,12,390.2,157.7)" />
<use xlink:href="#f1_a" transform="matrix(12,0,0,12,408.9,157.7)" />
<use xlink:href="#f1_17" transform="matrix(12,0,0,12,422.8,157.7)" />
<use xlink:href="#f1_2l" transform="matrix(12,0,0,12,436.4,157.7)" />
<use xlink:href="#f1_29" transform="matrix(12,0,0,12,445.6,157.7)" />
<use xlink:href="#f1_2a" transform="matrix(12,0,0,12,459.5,157.7)" />
<use xlink:href="#f1_2b" transform="matrix(12,0,0,12,468.3,157.7)" />
<use xlink:href="#f1_2f" transform="matrix(12,0,0,12,477.8,157.7)" />
<use xlink:href="#f1_2c" transform="matrix(12,0,0,12,484.8,157.7)" />
<use xlink:href="#f1_21" transform="matrix(12,0,0,12,494.3,157.7)" />
<use xlink:href="#f1_2e" transform="matrix(12,0,0,12,502.4,157.7)" />
<use xlink:href="#f1_29" transform="matrix(12,0,0,12,508.9,157.7)" />
<use xlink:href="#f1_i" transform="matrix(12,0,0,12,522.5,157.7)" />
<use xlink:href="#f3_19" transform="matrix(12,0,0,12,82.5,178.6)" />
<use xlink:href="#f3_19" transform="matrix(12,0,0,12,89.5,178.6)" />
<use xlink:href="#f3_i" transform="matrix(12,0,0,12,96.5,178.6)" />
<use xlink:href="#f3_13" transform="matrix(12,0,0,12,106.4,178.6)" />
<use xlink:href="#f3_21" transform="matrix(12,0,0,12,119.6,178.6)" />
<use xlink:href="#f3_2a" transform="matrix(12,0,0,12,127.6,178.6)" />
<use xlink:href="#f3_2g" transform="matrix(12,0,0,12,137.9,178.6)" />
<use xlink:href="#f3_2e" transform="matrix(12,0,0,12,144.1,178.6)" />
<use xlink:href="#f3_25" transform="matrix(12,0,0,12,151.8,178.6)" />
<use xlink:href="#f3_2c" transform="matrix(12,0,0,12,156.9,178.6)" />
<use xlink:href="#f3_21" transform="matrix(12,0,0,12,167.2,178.6)" />
<use xlink:href="#f3_2g" transform="matrix(12,0,0,12,175.2,178.6)" />
<use xlink:href="#f3_1x" transform="matrix(12,0,0,12,181.5,178.6)" />
<use xlink:href="#f3_28" transform="matrix(12,0,0,12,190.6,178.6)" />
<use xlink:href="#f3_u" transform="matrix(12,0,0,12,195.4,178.6)" />
<use xlink:href="#f3_h" transform="matrix(12,0,0,12,206.9,178.6)" />
<use xlink:href="#f1_19" transform="matrix(12,0,0,12,217.9,178.6)" />
<use xlink:href="#f1_2a" transform="matrix(12,0,0,12,224.1,178.6)" />
<use xlink:href="#f1_2j" transform="matrix(12,0,0,12,238,178.6)" />
<use xlink:href="#f1_24" transform="matrix(12,0,0,12,251.3,178.6)" />
<use xlink:href="#f1_25" transform="matrix(12,0,0,12,260.4,178.6)" />
<use xlink:href="#f1_1z" transform="matrix(12,0,0,12,264.8,178.6)" />
<use xlink:href="#f1_24" transform="matrix(12,0,0,12,273.2,178.6)" />
<use xlink:href="#f1_2c" transform="matrix(12,0,0,12,287.1,178.6)" />
<use xlink:href="#f1_2e" transform="matrix(12,0,0,12,296.3,178.6)" />
<use xlink:href="#f1_2b" transform="matrix(12,0,0,12,302.5,178.6)" />
<use xlink:href="#f1_2g" transform="matrix(12,0,0,12,311.7,178.6)" />
<use xlink:href="#f1_2b" transform="matrix(12,0,0,12,316.8,178.6)" />
<use xlink:href="#f1_2k" transform="matrix(12,0,0,12,326.3,178.6)" />
<use xlink:href="#f1_2l" transform="matrix(12,0,0,12,335.5,178.6)" />
<use xlink:href="#f1_28" transform="matrix(12,0,0,12,344.3,178.6)" />
<use xlink:href="#f1_21" transform="matrix(12,0,0,12,349.1,178.6)" />
<use xlink:href="#f1_29" transform="matrix(12,0,0,12,357.5,178.6)" />
<use xlink:href="#f1_25" transform="matrix(12,0,0,12,376.5,178.6)" />
<use xlink:href="#f1_2f" transform="matrix(12,0,0,12,381.3,178.6)" />
<use xlink:href="#f1_22" transform="matrix(12,0,0,12,393.7,178.6)" />
<use xlink:href="#f1_2b" transform="matrix(12,0,0,12,399.2,178.6)" />
<use xlink:href="#f1_2e" transform="matrix(12,0,0,12,408.8,178.6)" />
<use xlink:href="#f1_29" transform="matrix(12,0,0,12,415,178.6)" />
<use xlink:href="#f1_21" transform="matrix(12,0,0,12,428.5,178.6)" />
<use xlink:href="#f1_20" transform="matrix(12,0,0,12,436.6,178.6)" />
<use xlink:href="#f1_1x" transform="matrix(12,0,0,12,450.9,178.6)" />
<use xlink:href="#f1_2j" transform="matrix(12,0,0,12,459,178.6)" />
<use xlink:href="#f1_1x" transform="matrix(12,0,0,12,472.2,178.6)" />
<use xlink:href="#f1_2l" transform="matrix(12,0,0,12,480.6,178.6)" />
<use xlink:href="#f1_22" transform="matrix(12,0,0,12,494.5,178.6)" />
<use xlink:href="#f1_2e" transform="matrix(12,0,0,12,500,178.6)" />
<use xlink:href="#f1_2b" transform="matrix(12,0,0,12,506.2,178.6)" />
<use xlink:href="#f1_29" transform="matrix(12,0,0,12,516.1,178.6)" />
<use xlink:href="#f1_2g" transform="matrix(12,0,0,12,534.8,178.6)" />
<use xlink:href="#f1_24" transform="matrix(12,0,0,12,540.2,178.6)" />
<use xlink:href="#f1_21" transform="matrix(12,0,0,12,549,178.6)" />
<use xlink:href="#f1_1z" transform="matrix(12,0,0,12,562.2,178.6)" />
<use xlink:href="#f1_21" transform="matrix(12,0,0,12,570.3,178.6)" />
<use xlink:href="#f1_2a" transform="matrix(12,0,0,12,578.4,178.6)" />
<use xlink:href="#f1_2g" transform="matrix(12,0,0,12,587.2,178.6)" />
<use xlink:href="#f1_2e" transform="matrix(12,0,0,12,592.6,178.6)" />
<use xlink:href="#f1_21" transform="matrix(12,0,0,12,598.9,178.6)" />
<use xlink:href="#f1_2a" transform="matrix(12,0,0,12,611.7,178.6)" />
<use xlink:href="#f1_21" transform="matrix(12,0,0,12,620.5,178.6)" />
<use xlink:href="#f1_1x" transform="matrix(12,0,0,12,628.5,178.6)" />
<use xlink:href="#f1_2e" transform="matrix(12,0,0,12,636.6,178.6)" />
<use xlink:href="#f1_2g" transform="matrix(12,0,0,12,647.6,178.6)" />
<use xlink:href="#f1_24" transform="matrix(12,0,0,12,653,178.6)" />
<use xlink:href="#f1_21" transform="matrix(12,0,0,12,661.8,178.6)" />
<use xlink:href="#f1_2c" transform="matrix(12,0,0,12,675,178.6)" />
<use xlink:href="#f1_21" transform="matrix(12,0,0,12,684.2,178.6)" />
<use xlink:href="#f1_2e" transform="matrix(12,0,0,12,692.3,178.6)" />
<use xlink:href="#f1_25" transform="matrix(12,0,0,12,698.5,178.6)" />
<use xlink:href="#f1_1z" transform="matrix(12,0,0,12,702.9,178.6)" />
<use xlink:href="#f1_2l" transform="matrix(12,0,0,12,711.3,178.6)" />
<use xlink:href="#f1_1z" transform="matrix(12,0,0,12,720.1,178.6)" />
<use xlink:href="#f1_28" transform="matrix(12,0,0,12,728.5,178.6)" />
<use xlink:href="#f1_21" transform="matrix(12,0,0,12,733.6,178.6)" />
<use xlink:href="#f1_1x" transform="matrix(12,0,0,12,82.5,199.9)" />
<use xlink:href="#f1_2a" transform="matrix(12,0,0,12,90.6,199.9)" />
<use xlink:href="#f1_20" transform="matrix(12,0,0,12,99.4,199.9)" />
<use xlink:href="#f1_29" transform="matrix(12,0,0,12,113.7,199.9)" />
<use xlink:href="#f1_21" transform="matrix(12,0,0,12,127.6,199.9)" />
<use xlink:href="#f1_2g" transform="matrix(12,0,0,12,135.7,199.9)" />
<use xlink:href="#f1_1x" transform="matrix(12,0,0,12,141.2,199.9)" />
<use xlink:href="#f1_2k" transform="matrix(12,0,0,12,149.3,199.9)" />
<use xlink:href="#f1_2l" transform="matrix(12,0,0,12,158.4,199.9)" />
<use xlink:href="#f1_28" transform="matrix(12,0,0,12,167.6,199.9)" />
<use xlink:href="#f1_21" transform="matrix(12,0,0,12,172.4,199.9)" />
<use xlink:href="#f1_29" transform="matrix(12,0,0,12,180.8,199.9)" />
<use xlink:href="#f1_25" transform="matrix(12,0,0,12,199.5,199.9)" />
<use xlink:href="#f1_2f" transform="matrix(12,0,0,12,204.3,199.9)" />
<use xlink:href="#f1_22" transform="matrix(12,0,0,12,216.4,199.9)" />
<use xlink:href="#f1_2b" transform="matrix(12,0,0,12,221.9,199.9)" />
<use xlink:href="#f1_2e" transform="matrix(12,0,0,12,231.4,199.9)" />
<use xlink:href="#f1_29" transform="matrix(12,0,0,12,238,199.9)" />
<use xlink:href="#f1_21" transform="matrix(12,0,0,12,251.6,199.9)" />
<use xlink:href="#f1_20" transform="matrix(12,0,0,12,259.6,199.9)" />
<use xlink:href="#f1_2g" transform="matrix(12,0,0,12,273.5,199.9)" />
<use xlink:href="#f1_2b" transform="matrix(12,0,0,12,279,199.9)" />
<use xlink:href="#f1_2j" transform="matrix(12,0,0,12,288.5,199.9)" />
<use xlink:href="#f1_1x" transform="matrix(12,0,0,12,301.8,199.9)" />
<use xlink:href="#f1_2e" transform="matrix(12,0,0,12,309.8,199.9)" />
<use xlink:href="#f1_20" transform="matrix(12,0,0,12,316,199.9)" />
<use xlink:href="#f1_2f" transform="matrix(12,0,0,12,325.2,199.9)" />
<use xlink:href="#f1_2g" transform="matrix(12,0,0,12,336.5,199.9)" />
<use xlink:href="#f1_24" transform="matrix(12,0,0,12,342,199.9)" />
<use xlink:href="#f1_21" transform="matrix(12,0,0,12,350.8,199.9)" />
<use xlink:href="#f1_1z" transform="matrix(12,0,0,12,363.6,199.9)" />
<use xlink:href="#f1_21" transform="matrix(12,0,0,12,371.7,199.9)" />
<use xlink:href="#f1_2a" transform="matrix(12,0,0,12,379.8,199.9)" />
<use xlink:href="#f1_2g" transform="matrix(12,0,0,12,388.6,199.9)" />
<use xlink:href="#f1_2e" transform="matrix(12,0,0,12,394.1,199.9)" />
<use xlink:href="#f1_21" transform="matrix(12,0,0,12,400.3,199.9)" />
<use xlink:href="#f1_i" transform="matrix(12,0,0,12,408.3,199.9)" />
<use xlink:href="#f1_1k" transform="matrix(12,0,0,12,417.5,199.9)" />
<use xlink:href="#f1_24" transform="matrix(12,0,0,12,428.8,199.9)" />
<use xlink:href="#f1_25" transform="matrix(12,0,0,12,438,199.9)" />
<use xlink:href="#f1_2f" transform="matrix(12,0,0,12,442.4,199.9)" />
<use xlink:href="#f1_1z" transform="matrix(12,0,0,12,454.5,199.9)" />
<use xlink:href="#f1_2b" transform="matrix(12,0,0,12,462.6,199.9)" />
<use xlink:href="#f1_2a" transform="matrix(12,0,0,12,472.1,199.9)" />
<use xlink:href="#f1_20" transform="matrix(12,0,0,12,480.9,199.9)" />
<use xlink:href="#f1_25" transform="matrix(12,0,0,12,490.4,199.9)" />
<use xlink:href="#f1_2g" transform="matrix(12,0,0,12,494.8,199.9)" />
<use xlink:href="#f1_25" transform="matrix(12,0,0,12,500.6,199.9)" />
<use xlink:href="#f1_2b" transform="matrix(12,0,0,12,505,199.9)" />
<use xlink:href="#f1_2a" transform="matrix(12,0,0,12,514.5,199.9)" />
<use xlink:href="#f1_25" transform="matrix(12,0,0,12,528.5,199.9)" />
<use xlink:href="#f1_2f" transform="matrix(12,0,0,12,533.2,199.9)" />
<use xlink:href="#f1_1z" transform="matrix(12,0,0,12,544.9,199.9)" />
<use xlink:href="#f1_1x" transform="matrix(12,0,0,12,553,199.9)" />
<use xlink:href="#f1_28" transform="matrix(12,0,0,12,561.4,199.9)" />
<use xlink:href="#f1_28" transform="matrix(12,0,0,12,566.2,199.9)" />
<use xlink:href="#f1_21" transform="matrix(12,0,0,12,571,199.9)" />
<use xlink:href="#f1_20" transform="matrix(12,0,0,12,579.4,199.9)" />
<use xlink:href="#f3_21" transform="matrix(12,0,0,12,593.9,199.9)" />
<use xlink:href="#f3_2k" transform="matrix(12,0,0,12,602,199.9)" />
<use xlink:href="#f3_1x" transform="matrix(12,0,0,12,610.8,199.9)" />
<use xlink:href="#f3_2e" transform="matrix(12,0,0,12,620.3,199.9)" />
<use xlink:href="#f3_1z" transform="matrix(12,0,0,12,628.3,199.9)" />
<use xlink:href="#f3_24" transform="matrix(12,0,0,12,636.4,199.9)" />
<use xlink:href="#f1_i" transform="matrix(12,0,0,12,646.7,199.9)" />
<use xlink:href="#f1_15" transform="matrix(12,0,0,12,656.3,199.9)" />
<use xlink:href="#f1_2k" transform="matrix(12,0,0,12,667.6,199.9)" />
<use xlink:href="#f1_i" transform="matrix(12,0,0,12,676.4,199.9)" />
<use xlink:href="#f1_1i" transform="matrix(12,0,0,12,685.9,199.9)" />
<use xlink:href="#f1_2b" transform="matrix(12,0,0,12,697.7,199.9)" />
<use xlink:href="#f1_2b" transform="matrix(12,0,0,12,706.8,199.9)" />
<use xlink:href="#f1_2g" transform="matrix(12,0,0,12,716,199.9)" />
<use xlink:href="#f1_2f" transform="matrix(12,0,0,12,721.5,199.9)" />
<use xlink:href="#f1_i" transform="matrix(12,0,0,12,728.4,199.9)" />
<use xlink:href="#f3_19" transform="matrix(12,0,0,12,82.5,220.8)" />
<use xlink:href="#f3_19" transform="matrix(12,0,0,12,89.5,220.8)" />
<use xlink:href="#f3_19" transform="matrix(12,0,0,12,96.5,220.8)" />
<use xlink:href="#f3_i" transform="matrix(12,0,0,12,103.4,220.8)" />
<use xlink:href="#f3_13" transform="matrix(12,0,0,12,112.9,220.8)" />
<use xlink:href="#f3_21" transform="matrix(12,0,0,12,126.2,220.8)" />
<use xlink:href="#f3_2a" transform="matrix(12,0,0,12,134.2,220.8)" />
<use xlink:href="#f3_2g" transform="matrix(12,0,0,12,144.4,220.8)" />
<use xlink:href="#f3_2e" transform="matrix(12,0,0,12,151,220.8)" />
<use xlink:href="#f3_25" transform="matrix(12,0,0,12,158.7,220.8)" />
<use xlink:href="#f3_22" transform="matrix(12,0,0,12,163.8,220.8)" />
<use xlink:href="#f3_2h" transform="matrix(12,0,0,12,169.7,220.8)" />
<use xlink:href="#f3_23" transform="matrix(12,0,0,12,180,220.8)" />
<use xlink:href="#f3_1x" transform="matrix(12,0,0,12,189.1,220.8)" />
<use xlink:href="#f3_28" transform="matrix(12,0,0,12,198.7,220.8)" />
<use xlink:href="#f3_1x" transform="matrix(12,0,0,12,208.2,220.8)" />
<use xlink:href="#f3_2a" transform="matrix(12,0,0,12,217.3,220.8)" />
<use xlink:href="#f3_20" transform="matrix(12,0,0,12,227.6,220.8)" />
<use xlink:href="#f3_1z" transform="matrix(12,0,0,12,242.8,220.8)" />
<use xlink:href="#f3_21" transform="matrix(12,0,0,12,250.9,220.8)" />
<use xlink:href="#f3_2a" transform="matrix(12,0,0,12,259,220.8)" />
<use xlink:href="#f3_2g" transform="matrix(12,0,0,12,269.2,220.8)" />
<use xlink:href="#f3_2e" transform="matrix(12,0,0,12,275.4,220.8)" />
<use xlink:href="#f3_25" transform="matrix(12,0,0,12,283.1,220.8)" />
<use xlink:href="#f3_2c" transform="matrix(12,0,0,12,288.2,220.8)" />
<use xlink:href="#f3_21" transform="matrix(12,0,0,12,298.5,220.8)" />
<use xlink:href="#f3_2g" transform="matrix(12,0,0,12,306.6,220.8)" />
<use xlink:href="#f3_1x" transform="matrix(12,0,0,12,312.8,220.8)" />
<use xlink:href="#f3_28" transform="matrix(12,0,0,12,322.3,220.8)" />
<use xlink:href="#f3_u" transform="matrix(12,0,0,12,327.1,220.8)" />
<use xlink:href="#f3_h" transform="matrix(12,0,0,12,338.2,220.8)" />
<use xlink:href="#f1_19" transform="matrix(12,0,0,12,349.2,220.8)" />
<use xlink:href="#f1_2a" transform="matrix(12,0,0,12,355.4,220.8)" />
<use xlink:href="#f1_2j" transform="matrix(12,0,0,12,369,220.8)" />
<use xlink:href="#f1_24" transform="matrix(12,0,0,12,382.5,220.8)" />
<use xlink:href="#f1_25" transform="matrix(12,0,0,12,391.7,220.8)" />
<use xlink:href="#f1_1z" transform="matrix(12,0,0,12,396.5,220.8)" />
<use xlink:href="#f1_24" transform="matrix(12,0,0,12,404.9,220.8)" />
<use xlink:href="#f1_21" transform="matrix(12,0,0,12,418.4,220.8)" />
<use xlink:href="#f1_28" transform="matrix(12,0,0,12,426.8,220.8)" />
<use xlink:href="#f1_21" transform="matrix(12,0,0,12,431.6,220.8)" />
<use xlink:href="#f1_29" transform="matrix(12,0,0,12,440,220.8)" />
<use xlink:href="#f1_21" transform="matrix(12,0,0,12,454.3,220.8)" />
<use xlink:href="#f1_2a" transform="matrix(12,0,0,12,462.4,220.8)" />
<use xlink:href="#f1_2g" transform="matrix(12,0,0,12,471.2,220.8)" />
<use xlink:href="#f1_2f" transform="matrix(12,0,0,12,476.7,220.8)" />
<use xlink:href="#f1_2b" transform="matrix(12,0,0,12,488.4,220.8)" />
<use xlink:href="#f1_22" transform="matrix(12,0,0,12,497.9,220.8)" />
<use xlink:href="#f1_29" transform="matrix(12,0,0,12,508.5,220.8)" />
<use xlink:href="#f1_21" transform="matrix(12,0,0,12,522.5,220.8)" />
<use xlink:href="#f1_2g" transform="matrix(12,0,0,12,530.5,220.8)" />
<use xlink:href="#f1_1x" transform="matrix(12,0,0,12,536,220.8)" />
<use xlink:href="#f1_2k" transform="matrix(12,0,0,12,544.1,220.8)" />
<use xlink:href="#f1_2l" transform="matrix(12,0,0,12,553.2,220.8)" />
<use xlink:href="#f1_28" transform="matrix(12,0,0,12,562.4,220.8)" />
<use xlink:href="#f1_21" transform="matrix(12,0,0,12,567.2,220.8)" />
<use xlink:href="#f1_29" transform="matrix(12,0,0,12,575.6,220.8)" />
<use xlink:href="#f1_25" transform="matrix(12,0,0,12,594.6,220.8)" />
<use xlink:href="#f1_2f" transform="matrix(12,0,0,12,599.4,220.8)" />
<use xlink:href="#f1_22" transform="matrix(12,0,0,12,611.5,220.8)" />
<use xlink:href="#f1_2b" transform="matrix(12,0,0,12,617,220.8)" />
<use xlink:href="#f1_2e" transform="matrix(12,0,0,12,626.5,220.8)" />
<use xlink:href="#f1_29" transform="matrix(12,0,0,12,633.1,220.8)" />
<use xlink:href="#f1_21" transform="matrix(12,0,0,12,647,220.8)" />
<use xlink:href="#f1_20" transform="matrix(12,0,0,12,655.1,220.8)" />
<use xlink:href="#f1_22" transform="matrix(12,0,0,12,669.4,220.8)" />
<use xlink:href="#f1_2e" transform="matrix(12,0,0,12,674.9,220.8)" />
<use xlink:href="#f1_2b" transform="matrix(12,0,0,12,681.1,220.8)" />
<use xlink:href="#f1_29" transform="matrix(12,0,0,12,691,220.8)" />
<use xlink:href="#f1_1y" transform="matrix(12,0,0,12,709.6,220.8)" />
<use xlink:href="#f1_2b" transform="matrix(12,0,0,12,718.4,220.8)" />
<use xlink:href="#f1_2g" transform="matrix(12,0,0,12,727.9,220.8)" />
<use xlink:href="#f1_24" transform="matrix(12,0,0,12,733.4,220.8)" />
<use xlink:href="#f1_2f" transform="matrix(12,0,0,12,82.5,242.1)" />
<use xlink:href="#f1_25" transform="matrix(12,0,0,12,89.9,242.1)" />
<use xlink:href="#f1_20" transform="matrix(12,0,0,12,94.3,242.1)" />
<use xlink:href="#f1_21" transform="matrix(12,0,0,12,103.8,242.1)" />
<use xlink:href="#f1_2b" transform="matrix(12,0,0,12,116.6,242.1)" />
<use xlink:href="#f1_22" transform="matrix(12,0,0,12,126.1,242.1)" />
<use xlink:href="#f1_2g" transform="matrix(12,0,0,12,136.3,242.1)" />
<use xlink:href="#f1_24" transform="matrix(12,0,0,12,141.8,242.1)" />
<use xlink:href="#f1_21" transform="matrix(12,0,0,12,150.6,242.1)" />
<use xlink:href="#f1_21" transform="matrix(12,0,0,12,163.6,242.1)" />
<use xlink:href="#f1_28" transform="matrix(12,0,0,12,172,242.1)" />
<use xlink:href="#f1_21" transform="matrix(12,0,0,12,176.4,242.1)" />
<use xlink:href="#f1_29" transform="matrix(12,0,0,12,184.8,242.1)" />
<use xlink:href="#f1_21" transform="matrix(12,0,0,12,198.8,242.1)" />
<use xlink:href="#f1_2a" transform="matrix(12,0,0,12,207.2,242.1)" />
<use xlink:href="#f1_2g" transform="matrix(12,0,0,12,216,242.1)" />
<use xlink:href="#f1_2f" transform="matrix(12,0,0,12,221.5,242.1)" />
<use xlink:href="#f1_2b" transform="matrix(12,0,0,12,233.2,242.1)" />
<use xlink:href="#f1_22" transform="matrix(12,0,0,12,242.7,242.1)" />
<use xlink:href="#f1_2c" transform="matrix(12,0,0,12,252.9,242.1)" />
<use xlink:href="#f1_2e" transform="matrix(12,0,0,12,262.1,242.1)" />
<use xlink:href="#f1_2b" transform="matrix(12,0,0,12,268.3,242.1)" />
<use xlink:href="#f1_2g" transform="matrix(12,0,0,12,277.5,242.1)" />
<use xlink:href="#f1_2b" transform="matrix(12,0,0,12,282.6,242.1)" />
<use xlink:href="#f1_2k" transform="matrix(12,0,0,12,292.1,242.1)" />
<use xlink:href="#f1_2l" transform="matrix(12,0,0,12,301.3,242.1)" />
<use xlink:href="#f1_28" transform="matrix(12,0,0,12,310.1,242.1)" />
<use xlink:href="#f1_21" transform="matrix(12,0,0,12,314.9,242.1)" />
<use xlink:href="#f1_29" transform="matrix(12,0,0,12,323.3,242.1)" />
<use xlink:href="#f1_i" transform="matrix(12,0,0,12,337.2,242.1)" />
<use xlink:href="#f1_1j" transform="matrix(12,0,0,12,346.7,242.1)" />
<use xlink:href="#f1_2b" transform="matrix(12,0,0,12,357,242.1)" />
<use xlink:href="#f1_2g" transform="matrix(12,0,0,12,370.9,242.1)" />
<use xlink:href="#f1_24" transform="matrix(12,0,0,12,376.4,242.1)" />
<use xlink:href="#f1_1x" transform="matrix(12,0,0,12,385.2,242.1)" />
<use xlink:href="#f1_2g" transform="matrix(12,0,0,12,393.2,242.1)" />
<use xlink:href="#f1_2c" transform="matrix(12,0,0,12,403.1,242.1)" />
<use xlink:href="#f1_2e" transform="matrix(12,0,0,12,412.3,242.1)" />
<use xlink:href="#f1_2b" transform="matrix(12,0,0,12,418.1,242.1)" />
<use xlink:href="#f1_2g" transform="matrix(12,0,0,12,427.3,242.1)" />
<use xlink:href="#f1_2b" transform="matrix(12,0,0,12,432.4,242.1)" />
<use xlink:href="#f1_2k" transform="matrix(12,0,0,12,442,242.1)" />
<use xlink:href="#f1_2l" transform="matrix(12,0,0,12,450.8,242.1)" />
<use xlink:href="#f1_28" transform="matrix(12,0,0,12,459.9,242.1)" />
<use xlink:href="#f1_21" transform="matrix(12,0,0,12,464.7,242.1)" />
<use xlink:href="#f1_29" transform="matrix(12,0,0,12,473.1,242.1)" />
<use xlink:href="#f1_25" transform="matrix(12,0,0,12,492.2,242.1)" />
<use xlink:href="#f1_2f" transform="matrix(12,0,0,12,496.9,242.1)" />
<use xlink:href="#f1_2f" transform="matrix(12,0,0,12,508.6,242.1)" />
<use xlink:href="#f1_2h" transform="matrix(12,0,0,12,515.6,242.1)" />
<use xlink:href="#f1_2e" transform="matrix(12,0,0,12,524.8,242.1)" />
<use xlink:href="#f1_2e" transform="matrix(12,0,0,12,531,242.1)" />
<use xlink:href="#f1_2b" transform="matrix(12,0,0,12,537.2,242.1)" />
<use xlink:href="#f1_2h" transform="matrix(12,0,0,12,546.7,242.1)" />
<use xlink:href="#f1_2a" transform="matrix(12,0,0,12,555.9,242.1)" />
<use xlink:href="#f1_20" transform="matrix(12,0,0,12,564.7,242.1)" />
<use xlink:href="#f1_21" transform="matrix(12,0,0,12,573.9,242.1)" />
<use xlink:href="#f1_20" transform="matrix(12,0,0,12,581.9,242.1)" />
<use xlink:href="#f1_1y" transform="matrix(12,0,0,12,595.8,242.1)" />
<use xlink:href="#f1_2l" transform="matrix(12,0,0,12,605,242.1)" />
<use xlink:href="#f1_29" transform="matrix(12,0,0,12,619.6,242.1)" />
<use xlink:href="#f1_21" transform="matrix(12,0,0,12,633.5,242.1)" />
<use xlink:href="#f1_2g" transform="matrix(12,0,0,12,641.6,242.1)" />
<use xlink:href="#f1_1x" transform="matrix(12,0,0,12,647,242.1)" />
<use xlink:href="#f1_2k" transform="matrix(12,0,0,12,655.1,242.1)" />
<use xlink:href="#f1_2l" transform="matrix(12,0,0,12,664.3,242.1)" />
<use xlink:href="#f1_28" transform="matrix(12,0,0,12,673.4,242.1)" />
<use xlink:href="#f1_21" transform="matrix(12,0,0,12,678.2,242.1)" />
<use xlink:href="#f1_29" transform="matrix(12,0,0,12,686.6,242.1)" />
<use xlink:href="#f1_i" transform="matrix(12,0,0,12,700.2,242.1)" />
<use xlink:href="#f1_1k" transform="matrix(12,0,0,12,709.7,242.1)" />
<use xlink:href="#f1_24" transform="matrix(12,0,0,12,721.4,242.1)" />
<use xlink:href="#f1_25" transform="matrix(12,0,0,12,730.6,242.1)" />
<use xlink:href="#f1_2f" transform="matrix(12,0,0,12,735.3,242.1)" />
<use xlink:href="#f1_1z" transform="matrix(12,0,0,12,82.5,263)" />
<use xlink:href="#f1_2b" transform="matrix(12,0,0,12,90.6,263)" />
<use xlink:href="#f1_2a" transform="matrix(12,0,0,12,100.1,263)" />
<use xlink:href="#f1_20" transform="matrix(12,0,0,12,108.9,263)" />
<use xlink:href="#f1_25" transform="matrix(12,0,0,12,118.4,263)" />
<use xlink:href="#f1_2g" transform="matrix(12,0,0,12,122.8,263)" />
<use xlink:href="#f1_25" transform="matrix(12,0,0,12,128.7,263)" />
<use xlink:href="#f1_2b" transform="matrix(12,0,0,12,133.1,263)" />
<use xlink:href="#f1_2a" transform="matrix(12,0,0,12,142.6,263)" />
<use xlink:href="#f1_25" transform="matrix(12,0,0,12,156.5,263)" />
<use xlink:href="#f1_2f" transform="matrix(12,0,0,12,161.3,263)" />
<use xlink:href="#f1_27" transform="matrix(12,0,0,12,173,263)" />
<use xlink:href="#f1_2a" transform="matrix(12,0,0,12,182.2,263)" />
<use xlink:href="#f1_2b" transform="matrix(12,0,0,12,191,263)" />
<use xlink:href="#f1_2j" transform="matrix(12,0,0,12,200.5,263)" />
<use xlink:href="#f1_2a" transform="matrix(12,0,0,12,213.7,263)" />
<use xlink:href="#f1_1x" transform="matrix(12,0,0,12,227.2,263)" />
<use xlink:href="#f1_2f" transform="matrix(12,0,0,12,235.3,263)" />
<use xlink:href="#f3_29" transform="matrix(12,0,0,12,247.6,263)" />
<use xlink:href="#f3_21" transform="matrix(12,0,0,12,262.6,263)" />
<use xlink:href="#f3_2f" transform="matrix(12,0,0,12,270.7,263)" />
<use xlink:href="#f3_1x" transform="matrix(12,0,0,12,277.7,263)" />
<use xlink:href="#f3_2e" transform="matrix(12,0,0,12,287.2,263)" />
<use xlink:href="#f3_1z" transform="matrix(12,0,0,12,295.3,263)" />
<use xlink:href="#f3_24" transform="matrix(12,0,0,12,303.3,263)" />
<use xlink:href="#f1_21" transform="matrix(12,0,0,12,318.4,263)" />
<use xlink:href="#f1_2k" transform="matrix(12,0,0,12,326.5,263)" />
<use xlink:href="#f1_i" transform="matrix(12,0,0,12,335.3,263)" />
<use xlink:href="#f1_2f" transform="matrix(12,0,0,12,344.8,263)" />
<use xlink:href="#f1_2g" transform="matrix(12,0,0,12,351.7,263)" />
<use xlink:href="#f1_21" transform="matrix(12,0,0,12,357.2,263)" />
<use xlink:href="#f1_29" transform="matrix(12,0,0,12,365.3,263)" />
<use xlink:href="#f1_2b" transform="matrix(12,0,0,12,383.6,263)" />
<use xlink:href="#f1_22" transform="matrix(12,0,0,12,393.5,263)" />
<use xlink:href="#f1_22" transform="matrix(12,0,0,12,404.1,263)" />
<use xlink:href="#f1_21" transform="matrix(12,0,0,12,409.6,263)" />
<use xlink:href="#f1_2e" transform="matrix(12,0,0,12,417.7,263)" />
<use xlink:href="#f1_2a" transform="matrix(12,0,0,12,424.3,263)" />
<use xlink:href="#f1_i" transform="matrix(12,0,0,12,433.1,263)" />
<use xlink:href="#f3_13" transform="matrix(12,0,0,12,298.3,669.4)" />
<use xlink:href="#f3_2b" transform="matrix(12,0,0,12,311.5,669.4)" />
<use xlink:href="#f3_29" transform="matrix(12,0,0,12,320.7,669.4)" />
<use xlink:href="#f3_2c" transform="matrix(12,0,0,12,335.7,669.4)" />
<use xlink:href="#f3_2b" transform="matrix(12,0,0,12,345.9,669.4)" />
<use xlink:href="#f3_2a" transform="matrix(12,0,0,12,355.1,669.4)" />
<use xlink:href="#f3_21" transform="matrix(12,0,0,12,365.3,669.4)" />
<use xlink:href="#f3_2a" transform="matrix(12,0,0,12,373.4,669.4)" />
<use xlink:href="#f3_2g" transform="matrix(12,0,0,12,383.6,669.4)" />
<use xlink:href="#f3_2f" transform="matrix(12,0,0,12,389.8,669.4)" />
<use xlink:href="#f3_2b" transform="matrix(12,0,0,12,401.6,669.4)" />
<use xlink:href="#f3_22" transform="matrix(12,0,0,12,410.7,669.4)" />
<use xlink:href="#f3_1o" transform="matrix(12,0,0,12,421.3,669.4)" />
<use xlink:href="#f3_2l" transform="matrix(12,0,0,12,434.6,669.4)" />
<use xlink:href="#f3_28" transform="matrix(12,0,0,12,443.7,669.4)" />
<use xlink:href="#f3_21" transform="matrix(12,0,0,12,448.5,669.4)" />
<use xlink:href="#f3_29" transform="matrix(12,0,0,12,456.9,669.4)" />
<use xlink:href="#f3_1k" transform="matrix(12,0,0,12,476.7,669.4)" />
<use xlink:href="#f3_25" transform="matrix(12,0,0,12,488.8,669.4)" />
<use xlink:href="#f3_2f" transform="matrix(12,0,0,12,493.9,669.4)" />
<use xlink:href="#f3_2f" transform="matrix(12,0,0,12,501.2,669.4)" />
<use xlink:href="#f3_2h" transform="matrix(12,0,0,12,508.2,669.4)" />
<use xlink:href="#f3_21" transform="matrix(12,0,0,12,518.4,669.4)" />
<use xlink:href="#f3_1k" transform="matrix(12,0,0,12,285.7,1050.1)" />
<use xlink:href="#f3_2l" transform="matrix(12,0,0,12,297.8,1050.1)" />
<use xlink:href="#f3_2c" transform="matrix(12,0,0,12,307,1050.1)" />
<use xlink:href="#f3_21" transform="matrix(12,0,0,12,317.3,1050.1)" />
<use xlink:href="#f3_2f" transform="matrix(12,0,0,12,325.3,1050.1)" />
<use xlink:href="#f3_2b" transform="matrix(12,0,0,12,337,1050.1)" />
<use xlink:href="#f3_22" transform="matrix(12,0,0,12,346.2,1050.1)" />
<use xlink:href="#f3_2g" transform="matrix(12,0,0,12,356.8,1050.1)" />
<use xlink:href="#f3_24" transform="matrix(12,0,0,12,363,1050.1)" />
<use xlink:href="#f3_25" transform="matrix(12,0,0,12,373.3,1050.1)" />
<use xlink:href="#f3_1z" transform="matrix(12,0,0,12,378.4,1050.1)" />
<use xlink:href="#f3_27" transform="matrix(12,0,0,12,386.5,1050.1)" />
<use xlink:href="#f3_21" transform="matrix(12,0,0,12,396.4,1050.1)" />
<use xlink:href="#f3_2a" transform="matrix(12,0,0,12,404.4,1050.1)" />
<use xlink:href="#f3_25" transform="matrix(12,0,0,12,414.7,1050.1)" />
<use xlink:href="#f3_2a" transform="matrix(12,0,0,12,419.8,1050.1)" />
<use xlink:href="#f3_23" transform="matrix(12,0,0,12,430.1,1050.1)" />
<use xlink:href="#f3_25" transform="matrix(12,0,0,12,444,1050.1)" />
<use xlink:href="#f3_2f" transform="matrix(12,0,0,12,449.1,1050.1)" />
<use xlink:href="#f3_1k" transform="matrix(12,0,0,12,460.8,1050.1)" />
<use xlink:href="#f3_2e" transform="matrix(12,0,0,12,472.9,1050.1)" />
<use xlink:href="#f3_1x" transform="matrix(12,0,0,12,480.6,1050.1)" />
<use xlink:href="#f3_1z" transform="matrix(12,0,0,12,490.2,1050.1)" />
<use xlink:href="#f3_24" transform="matrix(12,0,0,12,498.2,1050.1)" />
<use xlink:href="#f3_21" transform="matrix(12,0,0,12,508.5,1050.1)" />
<use xlink:href="#f3_25" transform="matrix(12,0,0,12,516.5,1050.1)" />
<use xlink:href="#f3_20" transform="matrix(12,0,0,12,521.6,1050.1)" />
<use xlink:href="#f3_2f" transform="matrix(12,0,0,12,531.9,1050.1)" />
</g>
<image preserveAspectRatio="none" x="175" y="267" width="474" height="384" xlink:href="img/1.png" />
<image preserveAspectRatio="none" x="165" y="673" width="495" height="360" xlink:href="img/2.png" />
<g fill="#000000" >
<use xlink:href="#f4_s" transform="matrix(8,0,0,8,680.7,1132.9)" />
</g>
<defs>
<path d="M273,157c0,0,-114,0,-193,80C80,237,0,317,0,431c0,0,0,112,80,192c0,0,79,80,193,80c0,0,113,0,192,-80c0,0,80,-80,80,-192c0,0,0,-114,-80,-194c0,0,-79,-80,-192,-80Z" 
id="f0_3d"
transform="scale(0.001,-0.001)" />

<path d="M235,0V40L394,60V936H356c0,0,-189,0,-258,-15L78,766H28v234H908V766H857L837,921c0,0,-22,5,-98,9c0,0,-75,4,-165,4H538V60L697,40V0Z" 
id="f1_1k"
transform="scale(0.001,-0.001)" />

<path d="M31,0V33l88,19V649L31,668v33H235l7,-87c0,0,44,37,121,71c0,0,76,35,121,35h11V530H463l-43,82c0,0,-37,0,-88,-10c0,0,-52,-10,-89,-26V52L363,33V0Z" 
id="f1_2e"
transform="scale(0.001,-0.001)" />

<path d="M284,67c0,0,51,0,88,12c0,0,37,12,74,30V358l-98,-3c0,0,-100,-4,-135,-39c0,0,-35,-35,-35,-117c0,0,0,-132,106,-132ZM233,-14c0,0,-179,0,-179,208c0,0,0,70,27,116c0,0,27,46,87,70c0,0,60,24,173,27l105,3V519c0,0,0,72,-26,107c0,0,-27,34,-82,34c0,0,-75,0,-137,-35L176,538H134V691c0,0,121,26,213,26c0,0,115,0,169,-47c0,0,54,-47,54,-144V52L657,33V0H465L451,70c0,0,-85,-84,-218,-84Z" 
id="f1_1x"
transform="scale(0.001,-0.001)" />

<path d="M399,-14c0,0,-341,0,-341,370c0,0,0,175,87,269c0,0,87,95,249,95c0,0,101,0,220,-23V501H573L541,625c0,0,-62,35,-149,35c0,0,-200,0,-200,-304c0,0,0,-158,61,-225c0,0,61,-67,189,-67c0,0,109,0,189,24V43C631,43,595,16,530,1c0,0,-64,-15,-131,-15Z" 
id="f1_1z"
transform="scale(0.001,-0.001)" />

<path d="M442,0V33l93,19V504c0,0,0,129,-124,129c0,0,-70,0,-168,-22V52L338,33V0H31V33l88,19v956L15,1026v34H243V756c0,0,0,-77,-5,-112c0,0,54,31,122,53c0,0,68,23,115,23c0,0,91,0,137,-53c0,0,47,-53,47,-154V52L744,33V0Z" 
id="f1_24"
transform="scale(0.001,-0.001)" />

<path d="M495,413c0,0,0,133,-34,190c0,0,-34,57,-105,57c0,0,-78,0,-119,-63c0,0,-42,-62,-42,-184ZM374,-14c0,0,-163,0,-239,87c0,0,-75,88,-75,283c0,0,0,183,77,273c0,0,76,91,219,91c0,0,269,0,269,-306V353H194V340c0,0,0,-103,23,-160c0,0,22,-57,70,-87c0,0,47,-29,124,-29c0,0,40,0,96,6c0,0,55,7,91,15V43C598,43,562,20,500,3c0,0,-61,-17,-126,-17Z" 
id="f1_21"
transform="scale(0.001,-0.001)" />

<path d="M32,0V33L151,52V649L52,668v33H275V52L395,33V0ZM201,850c0,0,-32,0,-56,24c0,0,-24,24,-24,56c0,0,0,34,24,58c0,0,24,24,56,24c0,0,34,0,58,-24c0,0,24,-24,24,-58c0,0,0,-32,-24,-56c0,0,-24,-24,-58,-24Z" 
id="f1_25"
transform="scale(0.001,-0.001)" />

<path d="M383,64c0,0,85,0,152,28V645c0,0,-67,13,-152,13c0,0,-194,0,-194,-314c0,0,0,-141,48,-211c0,0,48,-69,146,-69ZM342,-14c0,0,-287,0,-287,358c0,0,0,184,82,280c0,0,81,96,239,96c0,0,81,0,163,-18c0,0,-4,25,-4,124v182l-118,18v34H659V52L745,33V0H548l-9,52c0,0,-84,-66,-197,-66Z" 
id="f1_20"
transform="scale(0.001,-0.001)" />

<path d="M439,0V33l93,19V500c0,0,0,62,-30,97c0,0,-31,36,-94,36c0,0,-67,0,-165,-22V52L338,33V0H35V33l84,19V649L35,668v33H235l7,-57c0,0,57,33,122,54c0,0,65,22,108,22c0,0,91,0,137,-53c0,0,47,-53,47,-154V52L741,33V0Z" 
id="f1_2a"
transform="scale(0.001,-0.001)" />

<path d="M360,-14L72,649L0,668v33H327V668L216,648L420,164L615,649L504,668v33H764V668L697,652L416,-14Z" 
id="f1_2i"
transform="scale(0.001,-0.001)" />

<path d="M278,-14c0,0,-52,0,-115,11c0,0,-63,10,-99,23V193H98L134,95c0,0,56,-50,146,-50c0,0,144,0,144,123c0,0,0,91,-114,130l-66,21c0,0,-75,25,-110,50c0,0,-34,26,-53,63c0,0,-18,36,-18,89c0,0,0,92,63,145c0,0,63,54,170,54c0,0,77,0,193,-23V544H454l-32,81c0,0,-39,35,-124,35c0,0,-61,0,-92,-30c0,0,-32,-30,-32,-80c0,0,0,-43,29,-72c0,0,28,-29,86,-48c0,0,110,-38,144,-55c0,0,33,-17,57,-42c0,0,23,-25,36,-57c0,0,13,-32,13,-79c0,0,0,-104,-66,-158c0,0,-66,-53,-195,-53Z" 
id="f1_2f"
transform="scale(0.001,-0.001)" />

<path d="M31,0V33L150,52v956L31,1026v34H274V52L394,33V0Z" 
id="f1_28"
transform="scale(0.001,-0.001)" />

<path d="M377,45c0,0,99,0,147,73c0,0,47,73,47,237c0,0,0,161,-47,233c0,0,-47,72,-147,72c0,0,-97,0,-141,-69c0,0,-44,-69,-44,-236c0,0,0,-169,45,-240c0,0,44,-70,140,-70Zm0,-59c0,0,-158,0,-238,94c0,0,-81,95,-81,274c0,0,0,178,81,272c0,0,80,94,244,94c0,0,160,0,241,-92c0,0,82,-92,82,-274c0,0,0,-368,-329,-368Z" 
id="f1_2b"
transform="scale(0.001,-0.001)" />

<path d="M249,-14c0,0,-71,0,-107,42c0,0,-35,42,-35,119V639H15v33l93,29l76,159h47V701H391V639H231V161c0,0,0,-48,22,-73c0,0,22,-24,57,-24c0,0,44,0,106,12V26C416,26,389,8,340,-2c0,0,-49,-12,-91,-12Z" 
id="f1_2g"
transform="scale(0.001,-0.001)" />

<path d="M148,-329c0,0,-58,0,-114,13v151H69l24,-71c0,0,23,-17,64,-17c0,0,39,0,72,22c0,0,33,23,60,67c0,0,27,44,68,157L90,649L19,668v33H344V668L233,648L423,158L606,649L497,668v33H758V668L685,652L411,-43c0,0,-48,-124,-84,-177c0,0,-36,-54,-79,-82c0,0,-44,-27,-100,-27Z" 
id="f1_2l"
transform="scale(0.001,-0.001)" />

<path d="M477,0V33l64,19L348,354L257,254V52L331,33V0H44V33l89,19v956L29,1026v34H257V338L544,647l-73,20v34H718V667L631,650L431,446L688,50L764,33V0Z" 
id="f1_27"
transform="scale(0.001,-0.001)" />

<path d="M327,-14L84,649L1,668v33H335V668L219,648L385,174L554,632h63L786,171L944,649L830,668v33h267V668l-78,-16L784,-14H726L553,448L382,-14Z" 
id="f1_2j"
transform="scale(0.001,-0.001)" />

<path d="M289,-14c0,0,-179,0,-179,205V649L20,668v33H233V200c0,0,0,-128,120,-128c0,0,92,0,173,23V649L420,668v33H649V52L738,33V0H533l-6,57C527,57,474,28,405,7c0,0,-69,-21,-116,-21Z" 
id="f1_2h"
transform="scale(0.001,-0.001)" />

<path d="M359,-270c0,0,124,0,192,46c0,0,67,47,67,129c0,0,0,43,-26,67c0,0,-26,24,-79,24H242c0,0,-32,-27,-51,-69c0,0,-20,-41,-20,-77c0,0,0,-64,46,-92c0,0,46,-28,142,-28Zm11,561c0,0,81,0,115,47c0,0,34,47,34,141c0,0,0,100,-35,142c0,0,-35,42,-113,42c0,0,-78,0,-114,-43c0,0,-37,-42,-37,-141c0,0,0,-98,36,-143c0,0,36,-45,114,-45ZM359,-329c0,0,-143,0,-218,44c0,0,-75,43,-75,125c0,0,0,39,27,78c0,0,26,38,98,89c0,0,-43,14,-72,48c0,0,-29,35,-29,74L208,262c0,0,-118,55,-118,217c0,0,0,115,73,178c0,0,73,63,211,63c0,0,28,0,71,-6c0,0,44,-6,67,-13l165,83l26,-32L599,644c0,0,50,-56,50,-165c0,0,0,-120,-72,-182c0,0,-73,-62,-208,-62c0,0,-62,0,-114,11L208,148c0,0,2,-13,29,-24c0,0,27,-12,67,-12H512c0,0,113,0,168,-49c0,0,55,-49,55,-134c0,0,0,-79,-44,-137c0,0,-43,-58,-128,-90c0,0,-84,-31,-204,-31Z" 
id="f1_23"
transform="scale(0.001,-0.001)" />

<path d="M431,0V33L535,52V499c0,0,0,62,-32,96c0,0,-32,33,-95,33c0,0,-66,0,-163,-22V52L350,33V0H32V33l89,19V649L32,668v33H237l6,-57c0,0,56,32,119,54c0,0,62,22,110,22c0,0,52,0,95,-20c0,0,44,-19,66,-62c0,0,57,32,134,57c0,0,77,25,128,25c0,0,179,0,179,-207V52l90,-19V0H846V33L950,52V499c0,0,0,129,-119,129c0,0,-19,0,-45,-3c0,0,-26,-3,-52,-7c0,0,-25,-4,-49,-8c0,0,-23,-5,-39,-8c0,0,13,-41,13,-89V52L764,33V0Z" 
id="f1_29"
transform="scale(0.001,-0.001)" />

<path d="M255,-10c0,0,-35,0,-68,18c0,0,-32,19,-48,55c0,0,-16,35,-16,109V632H15v24c0,0,41,16,84,56c0,0,43,39,77,92c0,0,17,29,48,104h23V683H407V632H247V188c0,0,0,-66,19,-90c0,0,19,-23,49,-23c0,0,24,0,47,16c0,0,23,15,36,45h29c0,0,-26,-73,-74,-110c0,0,-47,-36,-98,-36Z" 
id="f2_2g"
transform="scale(0.001,-0.001)" />

<path d="M312,-20c0,0,-62,0,-143,22c0,0,-25,8,-40,8c0,0,-18,0,-27,-19H77V234h25c0,0,21,-105,80,-158c0,0,59,-53,132,-53c0,0,51,0,84,31c0,0,32,30,32,72c0,0,0,52,-36,87c0,0,-36,35,-144,88c0,0,-109,54,-142,97c0,0,-34,43,-34,107c0,0,0,85,58,141c0,0,58,57,150,57c0,0,40,0,97,-17c0,0,38,-11,51,-11c0,0,12,0,19,5c0,0,7,5,15,23h25V470H464c0,0,-28,110,-72,149c0,0,-45,40,-113,40c0,0,-53,0,-85,-28c0,0,-32,-27,-32,-61c0,0,0,-41,24,-71c0,0,23,-31,94,-65L389,381c0,0,152,-74,152,-194c0,0,0,-94,-71,-151c0,0,-70,-56,-158,-56Z" 
id="f2_2f"
transform="scale(0.001,-0.001)" />

<path d="M406,32c0,0,72,0,119,60c0,0,47,59,47,205c0,0,0,181,-78,286c0,0,-53,71,-135,71c0,0,-40,0,-79,-23c0,0,-40,-24,-65,-83c0,0,-24,-58,-24,-151c0,0,0,-149,59,-257c0,0,59,-108,156,-108ZM374,-20c0,0,-154,0,-245,122c0,0,-77,104,-77,233c0,0,0,94,46,187c0,0,47,92,123,137c0,0,76,44,161,44c0,0,155,0,249,-118c0,0,80,-100,80,-231c0,0,0,-91,-44,-185C667,169,623,75,546,27c0,0,-77,-47,-172,-47Z" 
id="f2_2b"
transform="scale(0.001,-0.001)" />

<path d="M17,0V26c0,0,52,0,77,17c0,0,19,12,26,38c0,0,4,13,4,73V419c0,0,0,119,-5,142c0,0,-4,23,-17,33c0,0,-13,11,-33,11c0,0,-23,0,-52,-11l-7,26l207,83h31V549c0,0,86,154,176,154c0,0,41,0,68,-25c0,0,27,-25,27,-58c0,0,0,-29,-20,-49c0,0,-19,-20,-46,-20c0,0,-26,0,-58,25c0,0,-33,26,-48,26c0,0,-14,0,-29,-15c0,0,-34,-30,-70,-101V159c0,0,0,-56,15,-85c0,0,9,-20,34,-34c0,0,24,-14,71,-14V0Z" 
id="f2_2e"
transform="scale(0.001,-0.001)" />

<path d="M537,651c0,0,-49,0,-89,43c0,0,-39,42,-39,105c0,0,0,78,50,142c0,0,50,65,142,92v-29c0,0,-76,-43,-100,-77c0,0,-24,-35,-24,-81c0,0,0,-21,8,-31c0,0,9,-10,18,-10c0,0,8,0,24,6c0,0,17,5,33,5c0,0,31,0,54,-21c0,0,23,-22,23,-54c0,0,0,-36,-29,-63c0,0,-29,-27,-71,-27ZM181,650c0,0,-50,0,-91,44c0,0,-40,43,-40,106c0,0,0,75,50,139c0,0,49,65,144,95v-30c0,0,-66,-35,-95,-72c0,0,-29,-37,-29,-81c0,0,0,-27,8,-36c0,0,7,-11,16,-11c0,0,10,0,27,6c0,0,16,5,30,5c0,0,31,0,54,-22c0,0,23,-23,23,-56c0,0,0,-35,-28,-61c0,0,-28,-26,-69,-26Z" 
id="f2_50"
transform="scale(0.001,-0.001)" />

<path d="M26,0V27H62c0,0,63,0,91,37c0,0,18,24,18,115V833c0,0,0,77,-10,102c0,0,-7,18,-30,32c0,0,-33,18,-69,18H26v27H459V985H422c0,0,-35,0,-67,-17c0,0,-23,-12,-32,-36c0,0,-9,-25,-9,-99V542H784V833c0,0,0,77,-10,102c0,0,-8,18,-31,32c0,0,-33,18,-68,18H639v27h432V985h-36c0,0,-36,0,-68,-17c0,0,-24,-12,-32,-36c0,0,-9,-25,-9,-99V179c0,0,0,-77,10,-102c0,0,7,-18,31,-32c0,0,32,-18,68,-18h36V0H639V27h36c0,0,62,0,90,37c0,0,19,24,19,115V487H314V179c0,0,0,-77,9,-102c0,0,8,-18,32,-32c0,0,32,-18,67,-18h37V0Z" 
id="f2_18"
transform="scale(0.001,-0.001)" />

<path d="M286,72c0,0,57,0,149,75V407c0,0,-113,-45,-145,-64c0,0,-59,-32,-85,-68c0,0,-25,-36,-25,-78c0,0,0,-54,32,-89c0,0,32,-36,74,-36ZM217,-13c0,0,-71,0,-116,48c0,0,-46,48,-46,127c0,0,0,50,22,87c0,0,31,50,106,95c0,0,76,45,252,109v26c0,0,0,102,-32,140c0,0,-32,38,-94,38c0,0,-47,0,-74,-25c0,0,-28,-25,-28,-58l1,-43c0,0,0,-34,-17,-53c0,0,-18,-18,-47,-18c0,0,-28,0,-45,19c0,0,-18,19,-18,53c0,0,0,64,66,117c0,0,65,54,184,54c0,0,91,0,149,-31c0,0,44,-23,65,-72c0,0,13,-32,13,-131V238c0,0,0,-98,4,-120c0,0,4,-22,12,-29c0,0,9,-8,20,-8c0,0,12,0,21,5c0,0,16,10,61,55V99C676,99,592,-12,516,-12c0,0,-37,0,-58,24c0,0,-22,26,-23,86C435,98,330,17,303,5c0,0,-40,-18,-86,-18Z" 
id="f2_1x"
transform="scale(0.001,-0.001)" />

<path d="M399,62c0,0,68,0,131,68V481c0,0,-5,51,-27,93c0,0,-22,42,-59,63c0,0,-37,21,-72,21c0,0,-65,0,-117,-59c0,0,-67,-77,-67,-226c0,0,0,-151,65,-231c0,0,66,-80,146,-80ZM330,-20c0,0,-112,0,-196,93c0,0,-83,94,-83,240c0,0,0,147,92,269c0,0,93,122,238,122c0,0,90,0,149,-58V773c0,0,0,117,-6,144c0,0,-5,27,-17,37c0,0,-12,9,-30,9c0,0,-20,0,-52,-12l-9,27l204,83h33V270c0,0,0,-120,6,-146c0,0,5,-27,18,-37c0,0,12,-11,28,-11c0,0,21,0,54,13l9,-26L564,-20H530V78C530,78,480,25,432,2c0,0,-47,-22,-102,-22Z" 
id="f2_20"
transform="scale(0.001,-0.001)" />

<path d="M23,0V26c0,0,47,0,66,10c0,0,19,11,28,33c0,0,10,22,10,85V416c0,0,0,112,-7,145c0,0,-5,25,-16,34c0,0,-11,10,-31,10c0,0,-21,0,-50,-11L12,620l207,83h32V557c0,0,75,75,88,86c0,0,34,29,72,44c0,0,39,16,77,16c0,0,64,0,110,-37c0,0,47,-38,62,-109c0,0,77,90,130,118c0,0,53,28,109,28c0,0,54,0,96,-28c0,0,42,-28,67,-91c0,0,16,-43,16,-136V154c0,0,0,-64,10,-88c0,0,8,-16,28,-28c0,0,20,-12,65,-12V0H844V26h14c0,0,44,0,69,18c0,0,17,12,24,38c0,0,3,13,3,72V448c0,0,0,83,-20,117c0,0,-29,48,-93,48c0,0,-39,0,-79,-20c0,0,-40,-19,-97,-73l-1,-8l2,-32V154c0,0,0,-70,8,-87c0,0,7,-17,29,-29c0,0,21,-12,73,-12V0H431V26c0,0,57,0,78,14c0,0,21,13,29,40c0,0,4,13,4,74V448c0,0,0,83,-25,120c0,0,-33,48,-91,48c0,0,-40,0,-80,-22c0,0,-61,-33,-95,-74V154c0,0,0,-67,10,-87c0,0,9,-20,27,-30c0,0,18,-11,74,-11V0Z" 
id="f2_29"
transform="scale(0.001,-0.001)" />

<path d="M479,469c0,0,-4,66,-16,93c0,0,-18,42,-55,65c0,0,-37,24,-78,24c0,0,-62,0,-111,-48c0,0,-48,-48,-57,-134ZM355,-20c0,0,-123,0,-211,95c0,0,-87,96,-87,258c0,0,0,175,90,273c0,0,89,98,225,98c0,0,115,0,189,-76c0,0,74,-75,74,-202H162c0,0,0,-152,74,-239c0,0,75,-86,175,-86c0,0,67,0,117,36c0,0,50,37,83,127l24,-15c0,0,-16,-102,-91,-186c0,0,-76,-83,-189,-83Z" 
id="f2_21"
transform="scale(0.001,-0.001)" />

<path d="M86,650v31c0,0,75,42,99,77c0,0,23,35,23,80c0,0,0,21,-7,32c0,0,-9,10,-18,10c0,0,-8,0,-24,-6c0,0,-17,-6,-33,-6c0,0,-31,0,-54,23c0,0,-22,22,-22,54c0,0,0,36,29,63c0,0,28,26,69,26c0,0,50,0,90,-42c0,0,40,-43,40,-107c0,0,0,-79,-51,-144c0,0,-50,-65,-141,-91Zm356,0v31c0,0,65,33,93,71c0,0,29,38,29,82c0,0,0,26,-7,36c0,0,-8,10,-17,10c0,0,-10,0,-26,-6c0,0,-17,-6,-30,-6c0,0,-30,0,-53,23c0,0,-23,23,-23,55c0,0,0,36,28,62c0,0,27,26,68,26c0,0,50,0,91,-43c0,0,40,-44,40,-107c0,0,0,-75,-50,-139c0,0,-49,-65,-143,-95Z" 
id="f2_51"
transform="scale(0.001,-0.001)" />

<path d="M191,-20c0,0,-34,0,-58,24c0,0,-24,24,-24,58c0,0,0,35,24,59c0,0,24,24,58,24c0,0,35,0,59,-24c0,0,24,-25,24,-59c0,0,0,-34,-24,-58c0,0,-25,-24,-59,-24Z" 
id="f2_i"
transform="scale(0.001,-0.001)" />

<path d="M529,65c0,0,183,0,270,108c0,0,87,108,87,334c0,0,0,210,-113,318c0,0,-113,108,-322,108H316V71c0,0,90,-6,213,-6Zm0,-67L172,0H44V40L172,60V941L44,960v40H498c0,0,277,0,411,-123c0,0,133,-124,133,-371c0,0,0,-251,-129,-380C913,126,785,-2,529,-2Z" 
id="f1_14"
transform="scale(0.001,-0.001)" />

<path d="M382,45c0,0,188,0,188,314c0,0,0,143,-47,213c0,0,-46,69,-141,69c0,0,-87,0,-146,-24V58c0,0,67,-13,146,-13ZM25,-325v35l88,18V649L34,668v33H231l1,-41c0,0,31,27,84,43c0,0,53,17,107,17c0,0,134,0,208,-94c0,0,73,-93,73,-267c0,0,0,-178,-80,-276c0,0,-80,-97,-232,-97c0,0,-84,0,-160,16c0,0,4,-53,4,-84V-272l123,-18v-35Z" 
id="f1_2c"
transform="scale(0.001,-0.001)" />

<path d="M64,0V34L168,59V639H47v36l121,29v49c0,0,0,155,61,239c0,0,62,84,173,84c0,0,58,0,107,-15V908H472l-33,92c0,0,-26,16,-62,16c0,0,-47,0,-66,-42c0,0,-19,-42,-19,-157V701H478V639H292V59L443,34V0Z" 
id="f1_22"
transform="scale(0.001,-0.001)" />

<path d="M376,50c0,0,103,0,149,80c0,0,46,81,46,240c0,0,0,137,-47,204c0,0,-48,67,-148,67c0,0,-44,0,-87,-7c0,0,-44,-8,-63,-17V62c0,0,63,-12,150,-12Zm3,-64c0,0,-64,0,-141,14c0,0,-78,14,-136,37v971L0,1026v34H226V809c0,0,0,-40,-4,-148c0,0,74,59,188,59c0,0,143,0,219,-87c0,0,77,-87,77,-263c0,0,0,-189,-84,-287c0,0,-84,-97,-243,-97Z" 
id="f1_1y"
transform="scale(0.001,-0.001)" />

<path d="M211,-20c0,0,-39,0,-64,25c0,0,-26,27,-26,64c0,0,0,38,26,64c0,0,26,26,64,26c0,0,37,0,64,-25c0,0,26,-26,26,-65c0,0,0,-37,-26,-64c0,0,-26,-25,-64,-25Zm0,556c0,0,-38,0,-64,26c0,0,-26,26,-26,64c0,0,0,37,26,64c0,0,25,27,64,27c0,0,38,0,64,-27c0,0,26,-27,26,-64c0,0,0,-38,-26,-64c0,0,-27,-26,-64,-26Z" 
id="f1_u"
transform="scale(0.001,-0.001)" />

<path d="M57,302V417H454V302Z" 
id="f1_h"
transform="scale(0.001,-0.001)" />

<path d="M51,0V55L180,74V926L51,946v54H543V946L415,926V74L543,55V0Z" 
id="f3_19"
transform="scale(0.001,-0.001)" />

<path d="M191,-20c0,0,-51,0,-88,34c0,0,-36,36,-36,88c0,0,0,52,36,88c0,0,36,36,88,36c0,0,51,0,88,-36c0,0,36,-36,36,-88c0,0,0,-51,-36,-87c0,0,-36,-35,-88,-35Z" 
id="f3_i"
transform="scale(0.001,-0.001)" />

<path d="M608,-14c0,0,-251,0,-392,133C216,119,75,252,75,488c0,0,0,257,134,390c0,0,135,133,398,133c0,0,174,0,361,-50l4,-240H905L884,866c0,0,-98,67,-229,67c0,0,-173,0,-253,-108c0,0,-80,-108,-80,-334c0,0,0,-209,84,-319c0,0,83,-109,243,-109c0,0,84,0,147,22c0,0,63,22,99,53l24,164h68L982,48C982,48,915,22,808,4C808,4,700,-14,608,-14Z" 
id="f3_13"
transform="scale(0.001,-0.001)" />

<path d="M434,423c0,0,0,101,-7,142c0,0,-6,40,-22,60c0,0,-16,19,-45,19c0,0,-44,0,-66,-48c0,0,-22,-49,-22,-173ZM389,-14c0,0,-172,0,-254,89c0,0,-83,90,-83,279c0,0,0,184,79,274c0,0,79,91,238,91c0,0,142,0,206,-76c0,0,64,-76,64,-237V345H271V333c0,0,0,-111,18,-158c0,0,18,-47,58,-72c0,0,40,-25,110,-25c0,0,66,0,166,22V42C623,42,582,18,517,1c0,0,-66,-15,-128,-15Z" 
id="f3_21"
transform="scale(0.001,-0.001)" />

<path d="M41,0V49l69,18V634L41,652v49H313l11,-61l50,26c0,0,105,54,188,54c0,0,194,0,194,-207V67L827,49V0H478V49l63,18V484c0,0,0,63,-27,98c0,0,-26,35,-75,35c0,0,-57,0,-114,-25V67L389,49V0Z" 
id="f3_2a"
transform="scale(0.001,-0.001)" />

<path d="M327,-14c0,0,-101,0,-156,45c0,0,-55,45,-55,131V624H25v48l108,29l87,159H332V701H480V624H332V176c0,0,0,-49,20,-73c0,0,20,-25,53,-25c0,0,40,0,97,12V26c0,0,-22,-15,-76,-27c0,0,-55,-13,-99,-13Z" 
id="f3_2g"
transform="scale(0.001,-0.001)" />

<path d="M41,0V49l91,18V634L41,652v49H336l8,-145c0,0,80,89,144,128c0,0,64,40,117,40h40V468H604l-45,94c0,0,-47,0,-106,-21c0,0,-60,-20,-105,-48V67L460,49V0Z" 
id="f3_2e"
transform="scale(0.001,-0.001)" />

<path d="M34,0V49l76,18V634L38,652v49H325V67L402,49V0ZM217,831c0,0,-48,0,-81,33c0,0,-34,33,-34,82c0,0,0,48,34,81c0,0,34,33,81,33c0,0,48,0,81,-33c0,0,33,-33,33,-81c0,0,0,-47,-33,-81c0,0,-32,-34,-81,-34Z" 
id="f3_25"
transform="scale(0.001,-0.001)" />

<path d="M41,0V49l76,18V624H11v51l106,29v75c0,0,0,144,73,220c0,0,73,77,210,77c0,0,74,0,124,-15V894H476l-22,81c0,0,-18,17,-47,17c0,0,-74,0,-74,-189V701H475V624H333V67L447,49V0Z" 
id="f3_22"
transform="scale(0.001,-0.001)" />

<path d="M287,-18c0,0,-194,0,-194,206V634L23,652v49H309V217c0,0,0,-63,26,-98c0,0,27,-35,76,-35c0,0,57,0,113,25V634l-64,18v49H740V67L809,49V0H536L526,61L475,35c0,0,-104,-53,-188,-53Z" 
id="f3_2h"
transform="scale(0.001,-0.001)" />

<path d="M360,-256c0,0,108,0,167,35c0,0,59,35,59,98c0,0,0,70,-95,70H254c0,0,-65,-47,-65,-108c0,0,0,-47,46,-71c0,0,45,-24,125,-24Zm9,561c0,0,55,0,79,43c0,0,25,43,25,129c0,0,0,87,-24,127c0,0,-25,41,-80,41c0,0,-52,0,-75,-41c0,0,-24,-40,-24,-127c0,0,0,-86,23,-129c0,0,23,-43,76,-43Zm-9,-641c0,0,-153,0,-236,43c0,0,-84,44,-84,120c0,0,0,33,28,65c0,0,27,31,105,76c0,0,-44,17,-75,59c0,0,-31,43,-31,90L192,258c0,0,-133,56,-133,219c0,0,0,116,81,180c0,0,82,63,233,63c0,0,32,0,82,-6c0,0,51,-6,74,-13l168,83l26,-32L638,631c0,0,46,-57,46,-154c0,0,0,-119,-80,-182c0,0,-80,-64,-234,-64c0,0,-59,0,-114,9L238,183c0,0,1,-22,28,-41c0,0,26,-19,64,-19H493c0,0,256,0,256,-196c0,0,0,-81,-44,-139c0,0,-45,-59,-131,-92c0,0,-86,-32,-214,-32Z" 
id="f3_23"
transform="scale(0.001,-0.001)" />

<path d="M345,75c0,0,50,0,110,26V351l-63,-2c0,0,-72,-3,-100,-38c0,0,-28,-35,-28,-113c0,0,0,-63,22,-93c0,0,23,-30,59,-30ZM266,-14c0,0,-217,0,-217,208c0,0,0,79,32,126c0,0,32,48,93,71c0,0,60,22,190,25l91,2V521c0,0,0,126,-104,126c0,0,-62,0,-140,-39L183,521H134V691c0,0,112,17,165,21c0,0,53,5,108,5c0,0,264,0,264,-194V67L741,49V0H483L466,54C466,54,408,14,361,0c0,0,-47,-14,-95,-14Z" 
id="f3_1x"
transform="scale(0.001,-0.001)" />

<path d="M30,0V49l76,18V992l-72,18v50H322V67L398,49V0Z" 
id="f3_28"
transform="scale(0.001,-0.001)" />

<path d="M248,-20c0,0,-52,0,-87,34c0,0,-36,36,-36,88c0,0,0,52,36,88c0,0,35,36,87,36c0,0,52,0,88,-36c0,0,36,-36,36,-88c0,0,0,-51,-36,-87c0,0,-35,-35,-88,-35Zm0,488c0,0,-52,0,-87,36c0,0,-36,36,-36,88c0,0,0,52,35,88c0,0,35,36,88,36c0,0,53,0,89,-36c0,0,35,-37,35,-88c0,0,0,-51,-36,-87c0,0,-35,-37,-88,-37Z" 
id="f3_u"
transform="scale(0.001,-0.001)" />

<path d="M56,294V424H453V294Z" 
id="f3_h"
transform="scale(0.001,-0.001)" />

<path d="M55,0V40L184,60V941L55,960v40H455V960L327,941V60L455,40V0Z" 
id="f1_19"
transform="scale(0.001,-0.001)" />

<path d="M58,-234v58c0,0,131,42,131,125c0,0,0,15,-11,27c0,0,-11,12,-38,25C140,1,89,27,89,75c0,0,0,40,25,61c0,0,26,21,65,21c0,0,48,0,77,-34c0,0,30,-34,30,-86c0,0,0,-101,-60,-170c0,0,-59,-69,-168,-101Z" 
id="f1_g"
transform="scale(0.001,-0.001)" />

<path d="M13,0V34L95,46L325,350L122,649L40,668v33H357V668L264,648L399,446L554,649l-96,19v33H710V668L630,652L433,397L663,50L745,34V0H427V34l94,17L359,299L169,50L266,34V0Z" 
id="f1_2k"
transform="scale(0.001,-0.001)" />

<path d="M191,-20c0,0,-39,0,-65,25c0,0,-25,27,-25,64c0,0,0,38,26,64c0,0,26,26,64,26c0,0,38,0,64,-26c0,0,26,-26,26,-64c0,0,0,-37,-25,-64c0,0,-26,-25,-65,-25Z" 
id="f1_i"
transform="scale(0.001,-0.001)" />

<path d="M416,68c0,0,60,0,124,32V628c0,0,-58,15,-118,15c0,0,-67,0,-104,-73c0,0,-38,-73,-38,-216c0,0,0,-139,36,-212c0,0,35,-74,100,-74ZM369,-14c0,0,-155,0,-231,88c0,0,-76,90,-76,274c0,0,0,182,82,277c0,0,81,95,236,95c0,0,82,0,165,-20c0,0,-5,24,-5,115V992l-72,18v50H756V67L833,49V0H562L547,40C547,40,505,13,483,4c0,0,-23,-7,-51,-12c0,0,-28,-6,-63,-6Z" 
id="f3_20"
transform="scale(0.001,-0.001)" />

<path d="M425,-14c0,0,-187,0,-280,90c0,0,-93,90,-93,276c0,0,0,115,42,198c0,0,43,82,121,126c0,0,78,44,182,44c0,0,104,0,227,-26V486H571L539,609c0,0,-25,19,-50,26c0,0,-24,7,-65,7c0,0,-44,0,-79,-35c0,0,-36,-35,-56,-98c0,0,-20,-64,-20,-153c0,0,0,-150,47,-214c0,0,47,-64,148,-64c0,0,103,0,176,21V42C640,42,606,15,547,0c0,0,-59,-14,-122,-14Z" 
id="f3_1z"
transform="scale(0.001,-0.001)" />

<path d="M41,0V49l69,18V992l-72,18v50H325V756c0,0,0,-49,-4,-116l51,26c0,0,106,54,190,54c0,0,194,0,194,-207V67L827,49V0H478V49l63,18V484c0,0,0,63,-27,98c0,0,-26,35,-75,35c0,0,-57,0,-114,-25V67L389,49V0Z" 
id="f3_24"
transform="scale(0.001,-0.001)" />

<path d="M44,0V40L172,60V941L44,960v40H794V760H745L721,922c0,0,-83,11,-241,11H316V543H586l23,119h48V354H609L586,475H316V67H513c0,0,193,0,252,12l43,185h49L843,0Z" 
id="f1_15"
transform="scale(0.001,-0.001)" />

<path d="M449,50c0,0,162,0,276,114L353,504c0,0,-78,-33,-114,-91c0,0,-35,-57,-35,-139c0,0,0,-108,63,-166c0,0,63,-58,182,-58ZM439,605c0,0,72,27,104,53c0,0,31,25,47,63c0,0,16,37,16,92c0,0,0,143,-135,143c0,0,-79,0,-113,-36c0,0,-34,-35,-34,-107c0,0,0,-121,115,-208ZM429,-14c0,0,-185,0,-278,71c0,0,-93,72,-93,209c0,0,0,72,27,124c0,0,27,52,73,89c0,0,46,37,146,75c0,0,-112,109,-112,244c0,0,0,107,71,162c0,0,72,56,208,56c0,0,130,0,198,-53c0,0,69,-53,69,-155c0,0,0,-58,-25,-101c0,0,-25,-42,-71,-75c0,0,-45,-32,-152,-74L805,272c0,0,72,147,77,271L776,563v39h341V563L1013,543c0,0,-57,-198,-145,-329L1038,59L1161,40V0H904L777,116C777,116,699,46,614,16c0,0,-84,-30,-185,-30Z" 
id="f1_a"
transform="scale(0.001,-0.001)" />

<path d="M577,-14c0,0,-243,0,-379,131C198,117,63,248,63,488c0,0,0,263,131,393c0,0,132,130,386,130c0,0,182,0,352,-45V751H882L862,875c0,0,-52,37,-124,57c0,0,-72,19,-152,19c0,0,-191,0,-279,-113c0,0,-88,-114,-88,-348c0,0,0,-220,91,-333c0,0,91,-114,269,-114c0,0,63,0,131,15c0,0,69,15,105,36V377L686,397v40h370V397L958,377V52C958,52,871,24,778,5c0,0,-93,-19,-201,-19Z" 
id="f1_17"
transform="scale(0.001,-0.001)" />

<path d="M438,65c0,0,131,0,131,293c0,0,0,279,-130,279c0,0,-69,0,-127,-29V80c0,0,60,-15,126,-15ZM20,-325v50l76,18V634L19,652v49H304l1,-36c0,0,80,55,194,55c0,0,146,0,218,-86c0,0,71,-86,71,-271c0,0,0,-183,-83,-280c0,0,-83,-97,-238,-97c0,0,-79,0,-160,19c0,0,5,-48,5,-109V-257l103,-18v-50Z" 
id="f3_2c"
transform="scale(0.001,-0.001)" />

<path d="M6,0V49L69,61L292,323L91,634L23,652v49H398V652L319,632L421,475L557,634l-71,18v49H725V652L663,637L466,406L689,65L756,49V0H381V49l79,17L337,254L175,65L245,49V0Z" 
id="f3_2k"
transform="scale(0.001,-0.001)" />

<path d="M448,506c0,0,134,0,190,49c0,0,57,50,57,168c0,0,0,114,-56,162c0,0,-56,48,-195,48H316V506ZM777,0L496,438H316V60L468,40V0H54V40L172,60V941L44,960v40H476c0,0,188,0,277,-63c0,0,90,-64,90,-204c0,0,0,-100,-54,-173c0,0,-55,-73,-151,-101L909,60L1017,40V0Z" 
id="f1_1i"
transform="scale(0.001,-0.001)" />

<path d="M410,-14c0,0,-80,0,-162,14c0,0,-81,14,-144,38V270h48L178,134c0,0,28,-35,95,-62c0,0,68,-27,134,-27c0,0,104,0,163,53c0,0,58,54,58,148c0,0,0,54,-23,89c0,0,-22,35,-59,59c0,0,-37,24,-84,41c0,0,-47,17,-97,34c0,0,-49,17,-96,38c0,0,-47,21,-84,53c0,0,-37,32,-60,79c0,0,-23,48,-23,117c0,0,0,119,90,187c0,0,89,68,248,68c0,0,121,0,263,-32V771H654L628,893c0,0,-76,55,-188,55c0,0,-100,0,-156,-40c0,0,-56,-41,-56,-112c0,0,0,-49,22,-81c0,0,23,-32,60,-55c0,0,37,-22,84,-39c0,0,48,-16,97,-34c0,0,50,-17,97,-39c0,0,48,-22,85,-56c0,0,36,-34,59,-83c0,0,23,-49,23,-120c0,0,0,-145,-89,-224c0,0,-89,-79,-256,-79Z" 
id="f1_1j"
transform="scale(0.001,-0.001)" />

<path d="M41,0V49l69,18V634L41,652v49H313l11,-61l50,26c0,0,105,54,188,54c0,0,125,0,167,-91c0,0,153,91,258,91c0,0,189,0,189,-207V67l71,-17V0H898V50l63,17V484c0,0,0,63,-24,98c0,0,-25,35,-74,35c0,0,-55,0,-119,-31c0,0,7,-32,7,-73V67L821,50V0H473V50l63,17V484c0,0,0,63,-25,98c0,0,-24,35,-73,35c0,0,-49,0,-113,-29V67L389,49V0Z" 
id="f3_29"
transform="scale(0.001,-0.001)" />

<path d="M276,-14c0,0,-57,0,-125,13C151,-1,83,10,48,23V214H97l28,-98c0,0,26,-26,69,-44c0,0,42,-17,86,-17c0,0,65,0,97,28c0,0,32,28,32,71c0,0,0,41,-31,65c0,0,-30,25,-133,57c0,0,-108,34,-154,92c0,0,-45,58,-45,143c0,0,0,95,71,152c0,0,71,57,183,57c0,0,77,0,207,-22V518H457l-24,82c0,0,-21,22,-60,35c0,0,-40,14,-75,14c0,0,-53,0,-79,-22c0,0,-26,-22,-26,-59c0,0,0,-40,32,-65c0,0,32,-26,132,-55c0,0,109,-34,155,-89c0,0,45,-55,45,-137c0,0,0,-117,-72,-177c0,0,-72,-59,-209,-59Z" 
id="f3_2f"
transform="scale(0.001,-0.001)" />

<path d="M379,60c0,0,59,0,84,64c0,0,24,65,24,231c0,0,0,164,-24,227c0,0,-24,63,-84,63c0,0,-57,0,-80,-60c0,0,-22,-61,-22,-230c0,0,0,-173,23,-234c0,0,22,-61,79,-61Zm-2,-74c0,0,-161,0,-240,91c0,0,-79,91,-79,277c0,0,0,186,80,276c0,0,81,90,245,90c0,0,167,0,245,-93c0,0,78,-93,78,-273c0,0,0,-188,-81,-278c0,0,-81,-90,-248,-90Z" 
id="f3_2b"
transform="scale(0.001,-0.001)" />

<path d="M598,0V54L725,74L509,408L246,74L370,54V0H28V54L139,74L460,483L174,926L61,945v55H548V945L421,926L596,656L809,926L685,945v55h342V945L917,926L645,581L972,74L1085,54V0Z" 
id="f3_1o"
transform="scale(0.001,-0.001)" />

<path d="M159,-329c0,0,-61,0,-123,14v180H81l32,-94c0,0,21,-17,55,-17c0,0,28,0,50,13c0,0,21,14,40,39c0,0,20,25,37,62c0,0,17,37,50,110L64,634L15,652v49H374V652L290,632L455,244L602,634l-82,18v49H749V652L698,637L421,-44c0,0,-47,-121,-83,-176c0,0,-36,-55,-80,-82c0,0,-43,-27,-99,-27Z" 
id="f3_2l"
transform="scale(0.001,-0.001)" />

<path d="M231,0V54L390,74V921H352c0,0,-171,0,-240,-15L92,721H24v279H996V721H927L907,906c0,0,-62,14,-245,14H626V74L785,54V0Z" 
id="f3_1k"
transform="scale(0.001,-0.001)" />

<path d="M43,0V49l67,18V992l-72,18v50H325V336L599,635l-75,17v49H791V652L711,636L544,460L785,67L847,50V0H510V50l41,17L411,313L325,253V67L395,49V0Z" 
id="f3_27"
transform="scale(0.001,-0.001)" />

<path d="M423,92c0,0,97,0,159,62c0,0,62,62,62,157c0,0,0,97,-64,160c0,0,-64,64,-161,64c0,0,-96,0,-158,-63c0,0,-62,-62,-62,-156c0,0,0,-58,27,-111c0,0,27,-54,81,-84c0,0,54,-29,116,-29Zm0,552c0,0,78,0,127,49c0,0,49,49,49,120c0,0,0,74,-50,124c0,0,-51,51,-128,51c0,0,-77,0,-127,-50c0,0,-51,-49,-51,-118c0,0,0,-77,50,-126c0,0,50,-50,130,-50ZM422,-18c0,0,-162,0,-261,95c0,0,-99,96,-99,239c0,0,0,107,54,179c0,0,54,72,154,98c0,0,-84,31,-124,87c0,0,-40,57,-40,136c0,0,0,119,85,201c0,0,86,81,229,81c0,0,143,0,230,-83c0,0,87,-83,87,-203c0,0,0,-76,-40,-132c0,0,-39,-56,-121,-87c0,0,101,-33,154,-106c0,0,52,-73,52,-174c0,0,0,-141,-99,-236c0,0,-99,-95,-261,-95Z" 
id="f4_s"
transform="scale(0.001,-0.001)" />


</defs>
</svg>