<?xml version="1.0" encoding="UTF-8" standalone="no"?>
<!DOCTYPE svg PUBLIC "-//W3C//DTD SVG 1.1//EN"
"http://www.w3.org/Graphics/SVG/1.1/DTD/svg11.dtd">
<svg viewBox="0 0 909 1286" version="1.1" xmlns="http://www.w3.org/2000/svg" xmlns:xlink="http://www.w3.org/1999/xlink">
<defs>
<style type="text/css"><![CDATA[
.g0_66{
fill: #FFFFFF;
}
]]></style>
</defs>
<path fill-rule="evenodd" d="M52.8,479.8H856.9V55H52.8V479.8Z" class="g0_66" />
<image preserveAspectRatio="none" x="55" y="55" width="403" height="425" xlink:href="img/1.png" />
<path fill-rule="evenodd" d="M52.8,500.7H856.9V479.8H52.8v20.9Z" class="g0_66" />
<path fill-rule="evenodd" d="M52.8,521.9H856.9V500.7H52.8v21.2Z" class="g0_66" />
<g fill="#000000" >
<use xlink:href="#f0_1j" transform="matrix(12,0,0,12,55,517.5)" />
<use xlink:href="#f0_1l" transform="matrix(12,0,0,12,65.3,517.5)" />
<use xlink:href="#f0_12" transform="matrix(12,0,0,12,78.5,517.5)" />
<use xlink:href="#f0_h" transform="matrix(12,0,0,12,91,517.5)" />
<use xlink:href="#f0_1g" transform="matrix(12,0,0,12,97.2,517.5)" />
<use xlink:href="#f0_18" transform="matrix(12,0,0,12,108.2,517.5)" />
<use xlink:href="#f0_1p" transform="matrix(12,0,0,12,122.5,517.5)" />
<use xlink:href="#f0_1c" transform="matrix(12,0,0,12,135.7,517.5)" />
<use xlink:href="#f0_11" transform="matrix(12,0,0,12,147.8,517.5)" />
<use xlink:href="#f0_1m" transform="matrix(12,0,0,12,165.8,517.5)" />
<use xlink:href="#f0_15" transform="matrix(12,0,0,12,179,517.5)" />
<use xlink:href="#f0_1i" transform="matrix(12,0,0,12,191.1,517.5)" />
<use xlink:href="#f0_1k" transform="matrix(12,0,0,12,204.3,517.5)" />
<use xlink:href="#f0_15" transform="matrix(12,0,0,12,216.4,517.5)" />
<use xlink:href="#f0_12" transform="matrix(12,0,0,12,228.5,517.5)" />
<use xlink:href="#f0_1i" transform="matrix(12,0,0,12,240.9,517.5)" />
<use xlink:href="#f0_11" transform="matrix(12,0,0,12,254.1,517.5)" />
<use xlink:href="#f0_1k" transform="matrix(12,0,0,12,267.3,517.5)" />
<use xlink:href="#f0_11" transform="matrix(12,0,0,12,279.4,517.5)" />
<use xlink:href="#f0_u" transform="matrix(12,0,0,12,292.7,517.5)" />
</g>
<path fill-rule="evenodd" d="M52.8,542.8H856.9V521.9H52.8v20.9Z" class="g0_66" />
<g fill="#000000" >
<use xlink:href="#f1_18" transform="matrix(12,0,0,12,55,538.8)" />
<use xlink:href="#f1_1x" transform="matrix(12,0,0,12,68.3,538.8)" />
<use xlink:href="#f1_2i" transform="matrix(12,0,0,12,76.3,538.8)" />
<use xlink:href="#f1_21" transform="matrix(12,0,0,12,85.1,538.8)" />
<use xlink:href="#f1_2a" transform="matrix(12,0,0,12,98.3,538.8)" />
<use xlink:href="#f1_2b" transform="matrix(12,0,0,12,107.1,538.8)" />
<use xlink:href="#f1_2g" transform="matrix(12,0,0,12,116.6,538.8)" />
<use xlink:href="#f1_2b" transform="matrix(12,0,0,12,121.7,538.8)" />
<use xlink:href="#f1_1z" transform="matrix(12,0,0,12,131.2,538.8)" />
<use xlink:href="#f1_24" transform="matrix(12,0,0,12,139.3,538.8)" />
<use xlink:href="#f1_2b" transform="matrix(12,0,0,12,148.1,538.8)" />
<use xlink:href="#f1_2e" transform="matrix(12,0,0,12,157.6,538.8)" />
<use xlink:href="#f1_20" transform="matrix(12,0,0,12,163.8,538.8)" />
<use xlink:href="#f1_2b" transform="matrix(12,0,0,12,177,538.8)" />
<use xlink:href="#f1_2a" transform="matrix(12,0,0,12,186.6,538.8)" />
<use xlink:href="#f1_28" transform="matrix(12,0,0,12,195.7,538.8)" />
<use xlink:href="#f1_2l" transform="matrix(12,0,0,12,200.5,538.8)" />
<use xlink:href="#f1_20" transform="matrix(12,0,0,12,214,538.8)" />
<use xlink:href="#f1_2h" transform="matrix(12,0,0,12,223.2,538.8)" />
<use xlink:href="#f1_2e" transform="matrix(12,0,0,12,232.4,538.8)" />
<use xlink:href="#f1_25" transform="matrix(12,0,0,12,239,538.8)" />
<use xlink:href="#f1_2a" transform="matrix(12,0,0,12,243.7,538.8)" />
<use xlink:href="#f1_23" transform="matrix(12,0,0,12,252.5,538.8)" />
<use xlink:href="#f1_21" transform="matrix(12,0,0,12,266.4,538.8)" />
<use xlink:href="#f1_29" transform="matrix(12,0,0,12,274.9,538.8)" />
<use xlink:href="#f1_1y" transform="matrix(12,0,0,12,288.8,538.8)" />
<use xlink:href="#f1_2e" transform="matrix(12,0,0,12,297.6,538.8)" />
<use xlink:href="#f1_2l" transform="matrix(12,0,0,12,304.2,538.8)" />
<use xlink:href="#f1_2b" transform="matrix(12,0,0,12,312.6,538.8)" />
<use xlink:href="#f1_2a" transform="matrix(12,0,0,12,322.5,538.8)" />
<use xlink:href="#f1_25" transform="matrix(12,0,0,12,331.6,538.8)" />
<use xlink:href="#f1_1z" transform="matrix(12,0,0,12,336.4,538.8)" />
<use xlink:href="#f1_2c" transform="matrix(12,0,0,12,349.2,538.8)" />
<use xlink:href="#f1_21" transform="matrix(12,0,0,12,358.4,538.8)" />
<use xlink:href="#f1_2e" transform="matrix(12,0,0,12,366.5,538.8)" />
<use xlink:href="#f1_25" transform="matrix(12,0,0,12,373,538.8)" />
<use xlink:href="#f1_2b" transform="matrix(12,0,0,12,377.4,538.8)" />
<use xlink:href="#f1_20" transform="matrix(12,0,0,12,387,538.8)" />
<use xlink:href="#f1_i" transform="matrix(12,0,0,12,396.1,538.8)" />
</g>
<path fill-rule="evenodd" d="M52.8,564.1H856.9V542.8H52.8v21.3Z" class="g0_66" />
<g fill="#000000" >
<use xlink:href="#f1_1e" transform="matrix(12,0,0,12,55,559.7)" />
<use xlink:href="#f1_2b" transform="matrix(12,0,0,12,68.3,559.7)" />
<use xlink:href="#f1_2g" transform="matrix(12,0,0,12,77.4,559.7)" />
<use xlink:href="#f1_2b" transform="matrix(12,0,0,12,82.5,559.7)" />
<use xlink:href="#f1_1z" transform="matrix(12,0,0,12,92.1,559.7)" />
<use xlink:href="#f1_24" transform="matrix(12,0,0,12,100.1,559.7)" />
<use xlink:href="#f1_2b" transform="matrix(12,0,0,12,108.9,559.7)" />
<use xlink:href="#f1_2e" transform="matrix(12,0,0,12,118.4,559.7)" />
<use xlink:href="#f1_20" transform="matrix(12,0,0,12,124.6,559.7)" />
<use xlink:href="#f1_23" transform="matrix(12,0,0,12,138.2,559.7)" />
<use xlink:href="#f1_21" transform="matrix(12,0,0,12,147.4,559.7)" />
<use xlink:href="#f1_2g" transform="matrix(12,0,0,12,155.1,559.7)" />
<use xlink:href="#f1_2f" transform="matrix(12,0,0,12,160.5,559.7)" />
<use xlink:href="#f1_2e" transform="matrix(12,0,0,12,172.3,559.7)" />
<use xlink:href="#f1_21" transform="matrix(12,0,0,12,178.5,559.7)" />
<use xlink:href="#f1_2c" transform="matrix(12,0,0,12,186.5,559.7)" />
<use xlink:href="#f1_28" transform="matrix(12,0,0,12,195.7,559.7)" />
<use xlink:href="#f1_1x" transform="matrix(12,0,0,12,200.1,559.7)" />
<use xlink:href="#f1_1z" transform="matrix(12,0,0,12,208.2,559.7)" />
<use xlink:href="#f1_21" transform="matrix(12,0,0,12,216.6,559.7)" />
<use xlink:href="#f1_20" transform="matrix(12,0,0,12,224.7,559.7)" />
<use xlink:href="#f1_1y" transform="matrix(12,0,0,12,238.6,559.7)" />
<use xlink:href="#f1_2l" transform="matrix(12,0,0,12,247.7,559.7)" />
<use xlink:href="#f1_1y" transform="matrix(12,0,0,12,261.7,559.7)" />
<use xlink:href="#f1_2b" transform="matrix(12,0,0,12,270.5,559.7)" />
<use xlink:href="#f1_2a" transform="matrix(12,0,0,12,280,559.7)" />
<use xlink:href="#f1_2l" transform="matrix(12,0,0,12,289.1,559.7)" />
<use xlink:href="#f1_2b" transform="matrix(12,0,0,12,302.3,559.7)" />
<use xlink:href="#f1_2e" transform="matrix(12,0,0,12,311.8,559.7)" />
<use xlink:href="#f1_1z" transform="matrix(12,0,0,12,322.8,559.7)" />
<use xlink:href="#f1_1x" transform="matrix(12,0,0,12,330.9,559.7)" />
<use xlink:href="#f1_2e" transform="matrix(12,0,0,12,338.9,559.7)" />
<use xlink:href="#f1_2g" transform="matrix(12,0,0,12,344.8,559.7)" />
<use xlink:href="#f1_25" transform="matrix(12,0,0,12,350.3,559.7)" />
<use xlink:href="#f1_28" transform="matrix(12,0,0,12,355,559.7)" />
<use xlink:href="#f1_1x" transform="matrix(12,0,0,12,359.8,559.7)" />
<use xlink:href="#f1_23" transform="matrix(12,0,0,12,367.9,559.7)" />
<use xlink:href="#f1_25" transform="matrix(12,0,0,12,377.4,559.7)" />
<use xlink:href="#f1_2a" transform="matrix(12,0,0,12,382.2,559.7)" />
<use xlink:href="#f1_2b" transform="matrix(12,0,0,12,391,559.7)" />
<use xlink:href="#f1_2h" transform="matrix(12,0,0,12,400.5,559.7)" />
<use xlink:href="#f1_2f" transform="matrix(12,0,0,12,409.6,559.7)" />
<use xlink:href="#f1_2i" transform="matrix(12,0,0,12,421.7,559.7)" />
<use xlink:href="#f1_21" transform="matrix(12,0,0,12,430.5,559.7)" />
<use xlink:href="#f1_2e" transform="matrix(12,0,0,12,438.6,559.7)" />
<use xlink:href="#f1_2g" transform="matrix(12,0,0,12,445.3,559.7)" />
<use xlink:href="#f1_21" transform="matrix(12,0,0,12,450.8,559.7)" />
<use xlink:href="#f1_1y" transform="matrix(12,0,0,12,458.9,559.7)" />
<use xlink:href="#f1_2e" transform="matrix(12,0,0,12,467.7,559.7)" />
<use xlink:href="#f1_1x" transform="matrix(12,0,0,12,473.9,559.7)" />
<use xlink:href="#f1_28" transform="matrix(12,0,0,12,482.3,559.7)" />
<use xlink:href="#f1_1z" transform="matrix(12,0,0,12,491.4,559.7)" />
<use xlink:href="#f1_2b" transform="matrix(12,0,0,12,499.5,559.7)" />
<use xlink:href="#f1_28" transform="matrix(12,0,0,12,509.4,559.7)" />
<use xlink:href="#f1_2h" transform="matrix(12,0,0,12,513.8,559.7)" />
<use xlink:href="#f1_29" transform="matrix(12,0,0,12,523.3,559.7)" />
<use xlink:href="#f1_2a" transform="matrix(12,0,0,12,537.2,559.7)" />
<use xlink:href="#f1_i" transform="matrix(12,0,0,12,546.4,559.7)" />
</g>
<path fill-rule="evenodd" d="M52.8,585H856.9V564.1H52.8V585Z" class="g0_66" />
<g fill="#000000" >
<use xlink:href="#f1_18" transform="matrix(12,0,0,12,55,581)" />
<use xlink:href="#f1_1x" transform="matrix(12,0,0,12,68.3,581)" />
<use xlink:href="#f1_2i" transform="matrix(12,0,0,12,76.3,581)" />
<use xlink:href="#f1_21" transform="matrix(12,0,0,12,85.1,581)" />
<use xlink:href="#f1_2i" transform="matrix(12,0,0,12,98.3,581)" />
<use xlink:href="#f1_21" transform="matrix(12,0,0,12,107.1,581)" />
<use xlink:href="#f1_2a" transform="matrix(12,0,0,12,115.5,581)" />
<use xlink:href="#f1_2g" transform="matrix(12,0,0,12,124.3,581)" />
<use xlink:href="#f1_2e" transform="matrix(12,0,0,12,129.8,581)" />
<use xlink:href="#f1_1x" transform="matrix(12,0,0,12,136,581)" />
<use xlink:href="#f1_28" transform="matrix(12,0,0,12,144.4,581)" />
<use xlink:href="#f1_29" transform="matrix(12,0,0,12,153.9,581)" />
<use xlink:href="#f1_2h" transform="matrix(12,0,0,12,167.5,581)" />
<use xlink:href="#f1_2f" transform="matrix(12,0,0,12,177,581)" />
<use xlink:href="#f1_1z" transform="matrix(12,0,0,12,184,581)" />
<use xlink:href="#f1_2h" transform="matrix(12,0,0,12,192,581)" />
<use xlink:href="#f1_28" transform="matrix(12,0,0,12,201.6,581)" />
<use xlink:href="#f1_1x" transform="matrix(12,0,0,12,206.3,581)" />
<use xlink:href="#f1_2e" transform="matrix(12,0,0,12,214.4,581)" />
<use xlink:href="#f1_24" transform="matrix(12,0,0,12,225.4,581)" />
<use xlink:href="#f1_21" transform="matrix(12,0,0,12,234.2,581)" />
<use xlink:href="#f1_1x" transform="matrix(12,0,0,12,242.2,581)" />
<use xlink:href="#f1_2e" transform="matrix(12,0,0,12,250.3,581)" />
<use xlink:href="#f1_2g" transform="matrix(12,0,0,12,256.5,581)" />
<use xlink:href="#f1_2j" transform="matrix(12,0,0,12,266.7,581)" />
<use xlink:href="#f1_25" transform="matrix(12,0,0,12,280.2,581)" />
<use xlink:href="#f1_2g" transform="matrix(12,0,0,12,284.6,581)" />
<use xlink:href="#f1_24" transform="matrix(12,0,0,12,290.1,581)" />
<use xlink:href="#f1_2g" transform="matrix(12,0,0,12,303.7,581)" />
<use xlink:href="#f1_2j" transform="matrix(12,0,0,12,309.2,581)" />
<use xlink:href="#f1_2b" transform="matrix(12,0,0,12,322.4,581)" />
<use xlink:href="#f1_g" transform="matrix(12,0,0,12,331.6,581)" />
<use xlink:href="#f1_2g" transform="matrix(12,0,0,12,340.7,581)" />
<use xlink:href="#f1_24" transform="matrix(12,0,0,12,346.1,581)" />
<use xlink:href="#f1_2e" transform="matrix(12,0,0,12,354.9,581)" />
<use xlink:href="#f1_21" transform="matrix(12,0,0,12,361.2,581)" />
<use xlink:href="#f1_21" transform="matrix(12,0,0,12,369.2,581)" />
<use xlink:href="#f1_2b" transform="matrix(12,0,0,12,381.7,581)" />
<use xlink:href="#f1_2e" transform="matrix(12,0,0,12,391.2,581)" />
<use xlink:href="#f1_22" transform="matrix(12,0,0,12,401.8,581)" />
<use xlink:href="#f1_2b" transform="matrix(12,0,0,12,407.3,581)" />
<use xlink:href="#f1_2h" transform="matrix(12,0,0,12,416.8,581)" />
<use xlink:href="#f1_2e" transform="matrix(12,0,0,12,426,581)" />
<use xlink:href="#f1_1z" transform="matrix(12,0,0,12,437,581)" />
<use xlink:href="#f1_24" transform="matrix(12,0,0,12,445,581)" />
<use xlink:href="#f1_1x" transform="matrix(12,0,0,12,453.8,581)" />
<use xlink:href="#f1_29" transform="matrix(12,0,0,12,462.3,581)" />
<use xlink:href="#f1_1y" transform="matrix(12,0,0,12,476.2,581)" />
<use xlink:href="#f1_21" transform="matrix(12,0,0,12,485.4,581)" />
<use xlink:href="#f1_2e" transform="matrix(12,0,0,12,493.4,581)" />
<use xlink:href="#f1_2f" transform="matrix(12,0,0,12,499.6,581)" />
<use xlink:href="#f1_i" transform="matrix(12,0,0,12,506.9,581)" />
</g>
<path fill-rule="evenodd" d="M52.8,606.3H856.9V585H52.8v21.3Z" class="g0_66" />
<g fill="#000000" >
<use xlink:href="#f1_1g" transform="matrix(12,0,0,12,55,601.9)" />
<use xlink:href="#f1_1x" transform="matrix(12,0,0,12,65.3,601.9)" />
<use xlink:href="#f1_25" transform="matrix(12,0,0,12,73.7,601.9)" />
<use xlink:href="#f1_2e" transform="matrix(12,0,0,12,78.1,601.9)" />
<use xlink:href="#f1_21" transform="matrix(12,0,0,12,84.3,601.9)" />
<use xlink:href="#f1_20" transform="matrix(12,0,0,12,92.4,601.9)" />
<use xlink:href="#f1_1x" transform="matrix(12,0,0,12,106.3,601.9)" />
<use xlink:href="#f1_2c" transform="matrix(12,0,0,12,114.4,601.9)" />
<use xlink:href="#f1_2c" transform="matrix(12,0,0,12,123.5,601.9)" />
<use xlink:href="#f1_21" transform="matrix(12,0,0,12,132.7,601.9)" />
<use xlink:href="#f1_2a" transform="matrix(12,0,0,12,141.1,601.9)" />
<use xlink:href="#f1_20" transform="matrix(12,0,0,12,149.9,601.9)" />
<use xlink:href="#f1_1x" transform="matrix(12,0,0,12,159.1,601.9)" />
<use xlink:href="#f1_23" transform="matrix(12,0,0,12,167.1,601.9)" />
<use xlink:href="#f1_21" transform="matrix(12,0,0,12,176.3,601.9)" />
<use xlink:href="#f1_2f" transform="matrix(12,0,0,12,184.4,601.9)" />
<use xlink:href="#f1_2j" transform="matrix(12,0,0,12,196.1,601.9)" />
<use xlink:href="#f1_24" transform="matrix(12,0,0,12,209.6,601.9)" />
<use xlink:href="#f1_25" transform="matrix(12,0,0,12,218.8,601.9)" />
<use xlink:href="#f1_1z" transform="matrix(12,0,0,12,223.6,601.9)" />
<use xlink:href="#f1_24" transform="matrix(12,0,0,12,232,601.9)" />
<use xlink:href="#f1_29" transform="matrix(12,0,0,12,245.9,601.9)" />
<use xlink:href="#f1_1x" transform="matrix(12,0,0,12,259.8,601.9)" />
<use xlink:href="#f1_2l" transform="matrix(12,0,0,12,268.3,601.9)" />
<use xlink:href="#f1_1y" transform="matrix(12,0,0,12,281.8,601.9)" />
<use xlink:href="#f1_21" transform="matrix(12,0,0,12,290.6,601.9)" />
<use xlink:href="#f1_22" transform="matrix(12,0,0,12,303.8,601.9)" />
<use xlink:href="#f1_25" transform="matrix(12,0,0,12,309.7,601.9)" />
<use xlink:href="#f1_2a" transform="matrix(12,0,0,12,314.4,601.9)" />
<use xlink:href="#f1_2f" transform="matrix(12,0,0,12,323.6,601.9)" />
<use xlink:href="#f1_2b" transform="matrix(12,0,0,12,335.3,601.9)" />
<use xlink:href="#f1_2e" transform="matrix(12,0,0,12,344.8,601.9)" />
<use xlink:href="#f1_28" transform="matrix(12,0,0,12,355.8,601.9)" />
<use xlink:href="#f1_25" transform="matrix(12,0,0,12,360.5,601.9)" />
<use xlink:href="#f1_29" transform="matrix(12,0,0,12,365.6,601.9)" />
<use xlink:href="#f1_1y" transform="matrix(12,0,0,12,379.6,601.9)" />
<use xlink:href="#f1_2f" transform="matrix(12,0,0,12,388.8,601.9)" />
<use xlink:href="#f1_i" transform="matrix(12,0,0,12,395.7,601.9)" />
</g>
<path fill-rule="evenodd" d="M52.8,627.2H856.9v-21H52.8v21Z" class="g0_66" />
<g fill="#000000" >
<use xlink:href="#f1_1b" transform="matrix(12,0,0,12,55,623.1)" />
<use xlink:href="#f1_25" transform="matrix(12,0,0,12,68.3,623.1)" />
<use xlink:href="#f1_20" transform="matrix(12,0,0,12,73,623.1)" />
<use xlink:href="#f1_2a" transform="matrix(12,0,0,12,82.5,623.1)" />
<use xlink:href="#f1_21" transform="matrix(12,0,0,12,91.3,623.1)" />
<use xlink:href="#f1_2l" transform="matrix(12,0,0,12,99.7,623.1)" />
<use xlink:href="#f1_2f" transform="matrix(12,0,0,12,108.5,623.1)" />
<use xlink:href="#f1_22" transform="matrix(12,0,0,12,120.6,623.1)" />
<use xlink:href="#f1_2b" transform="matrix(12,0,0,12,126.1,623.1)" />
<use xlink:href="#f1_2e" transform="matrix(12,0,0,12,135.6,623.1)" />
<use xlink:href="#f1_21" transform="matrix(12,0,0,12,146.6,623.1)" />
<use xlink:href="#f1_2k" transform="matrix(12,0,0,12,154.7,623.1)" />
<use xlink:href="#f1_1z" transform="matrix(12,0,0,12,163.5,623.1)" />
<use xlink:href="#f1_2e" transform="matrix(12,0,0,12,171.5,623.1)" />
<use xlink:href="#f1_21" transform="matrix(12,0,0,12,177.7,623.1)" />
<use xlink:href="#f1_2g" transform="matrix(12,0,0,12,185.8,623.1)" />
<use xlink:href="#f1_25" transform="matrix(12,0,0,12,191.7,623.1)" />
<use xlink:href="#f1_2b" transform="matrix(12,0,0,12,196.1,623.1)" />
<use xlink:href="#f1_2a" transform="matrix(12,0,0,12,205.6,623.1)" />
<use xlink:href="#f1_1x" transform="matrix(12,0,0,12,219.1,623.1)" />
<use xlink:href="#f1_2a" transform="matrix(12,0,0,12,227.5,623.1)" />
<use xlink:href="#f1_20" transform="matrix(12,0,0,12,236.3,623.1)" />
<use xlink:href="#f1_2b" transform="matrix(12,0,0,12,250.2,623.1)" />
<use xlink:href="#f1_2f" transform="matrix(12,0,0,12,259.8,623.1)" />
<use xlink:href="#f1_29" transform="matrix(12,0,0,12,266.7,623.1)" />
<use xlink:href="#f1_2b" transform="matrix(12,0,0,12,280.3,623.1)" />
<use xlink:href="#f1_2e" transform="matrix(12,0,0,12,289.8,623.1)" />
<use xlink:href="#f1_21" transform="matrix(12,0,0,12,296,623.1)" />
<use xlink:href="#f1_23" transform="matrix(12,0,0,12,304.1,623.1)" />
<use xlink:href="#f1_2h" transform="matrix(12,0,0,12,313.3,623.1)" />
<use xlink:href="#f1_28" transform="matrix(12,0,0,12,322.8,623.1)" />
<use xlink:href="#f1_1x" transform="matrix(12,0,0,12,327.2,623.1)" />
<use xlink:href="#f1_2g" transform="matrix(12,0,0,12,335.2,623.1)" />
<use xlink:href="#f1_25" transform="matrix(12,0,0,12,341.1,623.1)" />
<use xlink:href="#f1_2b" transform="matrix(12,0,0,12,345.5,623.1)" />
<use xlink:href="#f1_2a" transform="matrix(12,0,0,12,355,623.1)" />
<use xlink:href="#f1_i" transform="matrix(12,0,0,12,363.8,623.1)" />
</g>
<path fill-rule="evenodd" d="M52.8,648.4H856.9V627.2H52.8v21.2Z" class="g0_66" />
<path fill-rule="evenodd" d="M52.8,996.9H856.9V648.5H52.8V996.9Z" class="g0_66" />
<image preserveAspectRatio="none" x="101" y="648" width="681" height="349" xlink:href="img/2.png" />
<path fill-rule="evenodd" d="M52.8,1017.8H856.9V996.9H52.8v20.9Z" class="g0_66" />
<path fill-rule="evenodd" d="M52.8,1039.1H856.9v-21.3H52.8v21.3Z" class="g0_66" />
<g fill="#000000" >
<use xlink:href="#f1_1m" transform="matrix(12,0,0,12,55,1034.7)" />
<use xlink:href="#f1_21" transform="matrix(12,0,0,12,68.3,1034.7)" />
<use xlink:href="#f1_2e" transform="matrix(12,0,0,12,76.3,1034.7)" />
<use xlink:href="#f1_2g" transform="matrix(12,0,0,12,82.5,1034.7)" />
<use xlink:href="#f1_21" transform="matrix(12,0,0,12,88,1034.7)" />
<use xlink:href="#f1_1y" transform="matrix(12,0,0,12,96.1,1034.7)" />
<use xlink:href="#f1_2e" transform="matrix(12,0,0,12,104.9,1034.7)" />
<use xlink:href="#f1_1x" transform="matrix(12,0,0,12,111.1,1034.7)" />
<use xlink:href="#f1_2g" transform="matrix(12,0,0,12,119.1,1034.7)" />
<use xlink:href="#f1_1x" transform="matrix(12,0,0,12,124.6,1034.7)" />
<use xlink:href="#f1_u" transform="matrix(12,0,0,12,132.7,1034.7)" />
<use xlink:href="#f1_18" transform="matrix(12,0,0,12,142.2,1034.7)" />
<use xlink:href="#f1_1x" transform="matrix(12,0,0,12,155.4,1034.7)" />
<use xlink:href="#f1_2f" transform="matrix(12,0,0,12,163.5,1034.7)" />
<use xlink:href="#f1_m" transform="matrix(12,0,0,12,175.2,1034.7)" />
<use xlink:href="#f1_20" transform="matrix(12,0,0,12,189.1,1034.7)" />
<use xlink:href="#f1_25" transform="matrix(12,0,0,12,198.3,1034.7)" />
<use xlink:href="#f1_2i" transform="matrix(12,0,0,12,203,1034.7)" />
<use xlink:href="#f1_25" transform="matrix(12,0,0,12,212.2,1034.7)" />
<use xlink:href="#f1_2f" transform="matrix(12,0,0,12,217,1034.7)" />
<use xlink:href="#f1_25" transform="matrix(12,0,0,12,224.3,1034.7)" />
<use xlink:href="#f1_2b" transform="matrix(12,0,0,12,228.7,1034.7)" />
<use xlink:href="#f1_2a" transform="matrix(12,0,0,12,238.6,1034.7)" />
<use xlink:href="#f1_2f" transform="matrix(12,0,0,12,247.7,1034.7)" />
<use xlink:href="#f1_h" transform="matrix(12,0,0,12,254.9,1034.7)" />
<use xlink:href="#f1_11" transform="matrix(12,0,0,12,265.9,1034.7)" />
<use xlink:href="#f1_23" transform="matrix(12,0,0,12,278.8,1034.7)" />
<use xlink:href="#f1_2a" transform="matrix(12,0,0,12,288.3,1034.7)" />
<use xlink:href="#f1_1x" transform="matrix(12,0,0,12,297.1,1034.7)" />
<use xlink:href="#f1_2g" transform="matrix(12,0,0,12,305.2,1034.7)" />
<use xlink:href="#f1_24" transform="matrix(12,0,0,12,310.6,1034.7)" />
<use xlink:href="#f1_1x" transform="matrix(12,0,0,12,319.4,1034.7)" />
<use xlink:href="#f1_1x" transform="matrix(12,0,0,12,332.3,1034.7)" />
<use xlink:href="#f1_2a" transform="matrix(12,0,0,12,340.7,1034.7)" />
<use xlink:href="#f1_20" transform="matrix(12,0,0,12,349.5,1034.7)" />
<use xlink:href="#f1_17" transform="matrix(12,0,0,12,363.4,1034.7)" />
<use xlink:href="#f1_2a" transform="matrix(12,0,0,12,376.6,1034.7)" />
<use xlink:href="#f1_1x" transform="matrix(12,0,0,12,385.8,1034.7)" />
<use xlink:href="#f1_2g" transform="matrix(12,0,0,12,393.8,1034.7)" />
<use xlink:href="#f1_24" transform="matrix(12,0,0,12,399.3,1034.7)" />
<use xlink:href="#f1_2b" transform="matrix(12,0,0,12,408.1,1034.7)" />
<use xlink:href="#f1_2f" transform="matrix(12,0,0,12,417.6,1034.7)" />
<use xlink:href="#f1_2g" transform="matrix(12,0,0,12,424.6,1034.7)" />
<use xlink:href="#f1_2b" transform="matrix(12,0,0,12,429.7,1034.7)" />
<use xlink:href="#f1_29" transform="matrix(12,0,0,12,439.2,1034.7)" />
<use xlink:href="#f1_1x" transform="matrix(12,0,0,12,452.8,1034.7)" />
<use xlink:href="#f1_2g" transform="matrix(12,0,0,12,460.9,1034.7)" />
<use xlink:href="#f1_1x" transform="matrix(12,0,0,12,466.3,1034.7)" />
</g>
<path fill-rule="evenodd" d="M107.8,1060H856.9v-20.9H107.8V1060Z" class="g0_66" />
<g fill="#000000" >
<use xlink:href="#f2_m" transform="matrix(8,0,0,8,785.7,1264.1)" />
<use xlink:href="#f2_q" transform="matrix(8,0,0,8,792.5,1264.1)" />
</g>
<defs>
<path d="M410,-14c0,0,-86,0,-175,14C235,0,145,14,81,38V307h66L181,146c0,0,31,-37,94,-62c0,0,64,-24,132,-24c0,0,214,0,214,177c0,0,0,55,-41,93c0,0,-41,38,-128,68c0,0,-128,42,-185,68c0,0,-56,27,-95,63c0,0,-38,36,-62,87c0,0,-23,51,-23,125c0,0,0,132,90,201c0,0,90,69,263,69c0,0,125,0,278,-32V741H651L618,878c0,0,-76,56,-178,56c0,0,-92,0,-141,-34c0,0,-49,-34,-49,-104c0,0,0,-50,41,-86c0,0,41,-35,128,-63c0,0,171,-56,235,-97c0,0,64,-41,97,-103c0,0,34,-61,34,-143c0,0,0,-318,-375,-318Z" 
id="f0_1j"
transform="scale(0.001,-0.001)" />

<path d="M566,-14c0,0,-200,0,-308,93c0,0,-107,94,-107,270V926L38,945v55H515V945L386,926V339c0,0,0,-120,61,-184c0,0,61,-64,178,-64c0,0,112,0,173,63c0,0,61,62,61,184V926L725,945v55h340V945L952,926V343c0,0,0,-173,-100,-265c0,0,-100,-92,-286,-92Z" 
id="f0_1l"
transform="scale(0.001,-0.001)" />

<path d="M559,77c0,0,87,0,129,53c0,0,42,53,42,162c0,0,0,99,-49,147c0,0,-50,49,-163,49H389V82c0,0,108,-5,170,-5ZM499,570c0,0,80,0,118,42c0,0,38,42,38,141c0,0,0,88,-38,126c0,0,-37,39,-124,39H389V570ZM561,-3L221,0H25V54L154,74V926L25,945v55H511c0,0,199,0,294,-53c0,0,95,-53,95,-173c0,0,0,-89,-56,-154c0,0,-56,-65,-150,-85c0,0,139,-14,211,-76c0,0,71,-61,71,-167c0,0,0,-146,-107,-221C869,71,762,-3,561,-3Z" 
id="f0_12"
transform="scale(0.001,-0.001)" />

<path d="M56,294V424H453V294Z" 
id="f0_h"
transform="scale(0.001,-0.001)" />

<path d="M452,474c0,0,104,0,151,52c0,0,47,53,47,178c0,0,0,119,-45,167c0,0,-44,47,-156,47H390V474ZM36,0V54L154,74V926L26,945v55H467c0,0,213,0,318,-71c0,0,105,-71,105,-224c0,0,0,-313,-366,-313H390V74L557,54V0Z" 
id="f0_1g"
transform="scale(0.001,-0.001)" />

<path d="M26,0V55L154,74V926L26,946v54H518V946L389,926V555H798V926L670,946v54h493V946L1034,926V74L1163,55V0H670V55L798,74V473H389V74L518,55V0Z" 
id="f0_18"
transform="scale(0.001,-0.001)" />

<path d="M285,0V54L444,74V389L140,926L27,945v55H542V945L407,926L636,507L856,926L734,945v55h340V945L968,926L680,394V74L838,54V0Z" 
id="f0_1p"
transform="scale(0.001,-0.001)" />

<path d="M26,0V54L154,74V926L27,945v55H544V945L389,926V79H593c0,0,159,0,234,15l61,208h67L927,0Z" 
id="f0_1c"
transform="scale(0.001,-0.001)" />

<path d="M639,416L478,858L313,416ZM647,0V54L762,74L667,333H283L191,74L319,54V0H15V54L90,74l355,935H662L1016,74l76,-20V0Z" 
id="f0_11"
transform="scale(0.001,-0.001)" />

<path d="M506,-22L99,926L17,946v54H452V946L348,926L630,270L892,926L791,946v54h295V946L991,926L605,-22Z" 
id="f0_1m"
transform="scale(0.001,-0.001)" />

<path d="M26,0V54L154,74V926L26,945v55H878V746H810L786,908c0,0,-83,10,-241,10H389V551H651l23,111h67V355H674L651,468H389V82H578c0,0,193,0,252,12l43,185h68L927,0Z" 
id="f0_15"
transform="scale(0.001,-0.001)" />

<path d="M498,506c0,0,115,0,164,47c0,0,48,48,48,166c0,0,0,112,-46,156c0,0,-46,43,-169,43H390V506ZM793,0L514,423H390V74L518,54V0H36V54L154,74V926L26,945v55H504c0,0,221,0,330,-68c0,0,109,-68,109,-212c0,0,0,-215,-201,-276L1009,74L1117,54V0Z" 
id="f0_1i"
transform="scale(0.001,-0.001)" />

<path d="M231,0V54L390,74V921H352c0,0,-171,0,-240,-15L92,721H24v279H996V721H927L907,906c0,0,-62,14,-245,14H626V74L785,54V0Z" 
id="f0_1k"
transform="scale(0.001,-0.001)" />

<path d="M248,-20c0,0,-52,0,-87,34c0,0,-36,36,-36,88c0,0,0,52,36,88c0,0,35,36,87,36c0,0,52,0,88,-36c0,0,36,-36,36,-88c0,0,0,-51,-36,-87c0,0,-35,-35,-88,-35Zm0,488c0,0,-52,0,-87,36c0,0,-36,36,-36,88c0,0,0,52,35,88c0,0,35,36,88,36c0,0,53,0,89,-36c0,0,35,-37,35,-88c0,0,0,-51,-36,-87c0,0,-35,-37,-88,-37Z" 
id="f0_u"
transform="scale(0.001,-0.001)" />

<path d="M44,0V40L172,60V941L44,960v40H445V960L316,941V549H787V941L659,960v40h400V960L930,941V60L1059,40V0H659V40L787,60V481H316V60L445,40V0Z" 
id="f1_18"
transform="scale(0.001,-0.001)" />

<path d="M284,67c0,0,51,0,88,12c0,0,37,12,74,30V358l-98,-3c0,0,-100,-4,-135,-39c0,0,-35,-35,-35,-117c0,0,0,-132,106,-132ZM233,-14c0,0,-179,0,-179,208c0,0,0,70,27,116c0,0,27,46,87,70c0,0,60,24,173,27l105,3V519c0,0,0,72,-26,107c0,0,-27,34,-82,34c0,0,-75,0,-137,-35L176,538H134V691c0,0,121,26,213,26c0,0,115,0,169,-47c0,0,54,-47,54,-144V52L657,33V0H465L451,70c0,0,-85,-84,-218,-84Z" 
id="f1_1x"
transform="scale(0.001,-0.001)" />

<path d="M360,-14L72,649L0,668v33H327V668L216,648L420,164L615,649L504,668v33H764V668L697,652L416,-14Z" 
id="f1_2i"
transform="scale(0.001,-0.001)" />

<path d="M495,413c0,0,0,133,-34,190c0,0,-34,57,-105,57c0,0,-78,0,-119,-63c0,0,-42,-62,-42,-184ZM374,-14c0,0,-163,0,-239,87c0,0,-75,88,-75,283c0,0,0,183,77,273c0,0,76,91,219,91c0,0,269,0,269,-306V353H194V340c0,0,0,-103,23,-160c0,0,22,-57,70,-87c0,0,47,-29,124,-29c0,0,40,0,96,6c0,0,55,7,91,15V43C598,43,562,20,500,3c0,0,-61,-17,-126,-17Z" 
id="f1_21"
transform="scale(0.001,-0.001)" />

<path d="M439,0V33l93,19V500c0,0,0,62,-30,97c0,0,-31,36,-94,36c0,0,-67,0,-165,-22V52L338,33V0H35V33l84,19V649L35,668v33H235l7,-57c0,0,57,33,122,54c0,0,65,22,108,22c0,0,91,0,137,-53c0,0,47,-53,47,-154V52L741,33V0Z" 
id="f1_2a"
transform="scale(0.001,-0.001)" />

<path d="M377,45c0,0,99,0,147,73c0,0,47,73,47,237c0,0,0,161,-47,233c0,0,-47,72,-147,72c0,0,-97,0,-141,-69c0,0,-44,-69,-44,-236c0,0,0,-169,45,-240c0,0,44,-70,140,-70Zm0,-59c0,0,-158,0,-238,94c0,0,-81,95,-81,274c0,0,0,178,81,272c0,0,80,94,244,94c0,0,160,0,241,-92c0,0,82,-92,82,-274c0,0,0,-368,-329,-368Z" 
id="f1_2b"
transform="scale(0.001,-0.001)" />

<path d="M249,-14c0,0,-71,0,-107,42c0,0,-35,42,-35,119V639H15v33l93,29l76,159h47V701H391V639H231V161c0,0,0,-48,22,-73c0,0,22,-24,57,-24c0,0,44,0,106,12V26C416,26,389,8,340,-2c0,0,-49,-12,-91,-12Z" 
id="f1_2g"
transform="scale(0.001,-0.001)" />

<path d="M399,-14c0,0,-341,0,-341,370c0,0,0,175,87,269c0,0,87,95,249,95c0,0,101,0,220,-23V501H573L541,625c0,0,-62,35,-149,35c0,0,-200,0,-200,-304c0,0,0,-158,61,-225c0,0,61,-67,189,-67c0,0,109,0,189,24V43C631,43,595,16,530,1c0,0,-64,-15,-131,-15Z" 
id="f1_1z"
transform="scale(0.001,-0.001)" />

<path d="M442,0V33l93,19V504c0,0,0,129,-124,129c0,0,-70,0,-168,-22V52L338,33V0H31V33l88,19v956L15,1026v34H243V756c0,0,0,-77,-5,-112c0,0,54,31,122,53c0,0,68,23,115,23c0,0,91,0,137,-53c0,0,47,-53,47,-154V52L744,33V0Z" 
id="f1_24"
transform="scale(0.001,-0.001)" />

<path d="M31,0V33l88,19V649L31,668v33H235l7,-87c0,0,44,37,121,71c0,0,76,35,121,35h11V530H463l-43,82c0,0,-37,0,-88,-10c0,0,-52,-10,-89,-26V52L363,33V0Z" 
id="f1_2e"
transform="scale(0.001,-0.001)" />

<path d="M383,64c0,0,85,0,152,28V645c0,0,-67,13,-152,13c0,0,-194,0,-194,-314c0,0,0,-141,48,-211c0,0,48,-69,146,-69ZM342,-14c0,0,-287,0,-287,358c0,0,0,184,82,280c0,0,81,96,239,96c0,0,81,0,163,-18c0,0,-4,25,-4,124v182l-118,18v34H659V52L745,33V0H548l-9,52c0,0,-84,-66,-197,-66Z" 
id="f1_20"
transform="scale(0.001,-0.001)" />

<path d="M31,0V33L150,52v956L31,1026v34H274V52L394,33V0Z" 
id="f1_28"
transform="scale(0.001,-0.001)" />

<path d="M148,-329c0,0,-58,0,-114,13v151H69l24,-71c0,0,23,-17,64,-17c0,0,39,0,72,22c0,0,33,23,60,67c0,0,27,44,68,157L90,649L19,668v33H344V668L233,648L423,158L606,649L497,668v33H758V668L685,652L411,-43c0,0,-48,-124,-84,-177c0,0,-36,-54,-79,-82c0,0,-44,-27,-100,-27Z" 
id="f1_2l"
transform="scale(0.001,-0.001)" />

<path d="M289,-14c0,0,-179,0,-179,205V649L20,668v33H233V200c0,0,0,-128,120,-128c0,0,92,0,173,23V649L420,668v33H649V52L738,33V0H533l-6,57C527,57,474,28,405,7c0,0,-69,-21,-116,-21Z" 
id="f1_2h"
transform="scale(0.001,-0.001)" />

<path d="M32,0V33L151,52V649L52,668v33H275V52L395,33V0ZM201,850c0,0,-32,0,-56,24c0,0,-24,24,-24,56c0,0,0,34,24,58c0,0,24,24,56,24c0,0,34,0,58,-24c0,0,24,-24,24,-58c0,0,0,-32,-24,-56c0,0,-24,-24,-58,-24Z" 
id="f1_25"
transform="scale(0.001,-0.001)" />

<path d="M359,-270c0,0,124,0,192,46c0,0,67,47,67,129c0,0,0,43,-26,67c0,0,-26,24,-79,24H242c0,0,-32,-27,-51,-69c0,0,-20,-41,-20,-77c0,0,0,-64,46,-92c0,0,46,-28,142,-28Zm11,561c0,0,81,0,115,47c0,0,34,47,34,141c0,0,0,100,-35,142c0,0,-35,42,-113,42c0,0,-78,0,-114,-43c0,0,-37,-42,-37,-141c0,0,0,-98,36,-143c0,0,36,-45,114,-45ZM359,-329c0,0,-143,0,-218,44c0,0,-75,43,-75,125c0,0,0,39,27,78c0,0,26,38,98,89c0,0,-43,14,-72,48c0,0,-29,35,-29,74L208,262c0,0,-118,55,-118,217c0,0,0,115,73,178c0,0,73,63,211,63c0,0,28,0,71,-6c0,0,44,-6,67,-13l165,83l26,-32L599,644c0,0,50,-56,50,-165c0,0,0,-120,-72,-182c0,0,-73,-62,-208,-62c0,0,-62,0,-114,11L208,148c0,0,2,-13,29,-24c0,0,27,-12,67,-12H512c0,0,113,0,168,-49c0,0,55,-49,55,-134c0,0,0,-79,-44,-137c0,0,-43,-58,-128,-90c0,0,-84,-31,-204,-31Z" 
id="f1_23"
transform="scale(0.001,-0.001)" />

<path d="M431,0V33L535,52V499c0,0,0,62,-32,96c0,0,-32,33,-95,33c0,0,-66,0,-163,-22V52L350,33V0H32V33l89,19V649L32,668v33H237l6,-57c0,0,56,32,119,54c0,0,62,22,110,22c0,0,52,0,95,-20c0,0,44,-19,66,-62c0,0,57,32,134,57c0,0,77,25,128,25c0,0,179,0,179,-207V52l90,-19V0H846V33L950,52V499c0,0,0,129,-119,129c0,0,-19,0,-45,-3c0,0,-26,-3,-52,-7c0,0,-25,-4,-49,-8c0,0,-23,-5,-39,-8c0,0,13,-41,13,-89V52L764,33V0Z" 
id="f1_29"
transform="scale(0.001,-0.001)" />

<path d="M376,50c0,0,103,0,149,80c0,0,46,81,46,240c0,0,0,137,-47,204c0,0,-48,67,-148,67c0,0,-44,0,-87,-7c0,0,-44,-8,-63,-17V62c0,0,63,-12,150,-12Zm3,-64c0,0,-64,0,-141,14c0,0,-78,14,-136,37v971L0,1026v34H226V809c0,0,0,-40,-4,-148c0,0,74,59,188,59c0,0,143,0,219,-87c0,0,77,-87,77,-263c0,0,0,-189,-84,-287c0,0,-84,-97,-243,-97Z" 
id="f1_1y"
transform="scale(0.001,-0.001)" />

<path d="M382,45c0,0,188,0,188,314c0,0,0,143,-47,213c0,0,-46,69,-141,69c0,0,-87,0,-146,-24V58c0,0,67,-13,146,-13ZM25,-325v35l88,18V649L34,668v33H231l1,-41c0,0,31,27,84,43c0,0,53,17,107,17c0,0,134,0,208,-94c0,0,73,-93,73,-267c0,0,0,-178,-80,-276c0,0,-80,-97,-232,-97c0,0,-84,0,-160,16c0,0,4,-53,4,-84V-272l123,-18v-35Z" 
id="f1_2c"
transform="scale(0.001,-0.001)" />

<path d="M191,-20c0,0,-39,0,-65,25c0,0,-25,27,-25,64c0,0,0,38,26,64c0,0,26,26,64,26c0,0,38,0,64,-26c0,0,26,-26,26,-64c0,0,0,-37,-25,-64c0,0,-26,-25,-65,-25Z" 
id="f1_i"
transform="scale(0.001,-0.001)" />

<path d="M868,0L251,900V60L385,40V0H44V40L172,60V941L44,960v40H347L862,259V941L727,960v40h341V960L940,941V0Z" 
id="f1_1e"
transform="scale(0.001,-0.001)" />

<path d="M278,-14c0,0,-52,0,-115,11c0,0,-63,10,-99,23V193H98L134,95c0,0,56,-50,146,-50c0,0,144,0,144,123c0,0,0,91,-114,130l-66,21c0,0,-75,25,-110,50c0,0,-34,26,-53,63c0,0,-18,36,-18,89c0,0,0,92,63,145c0,0,63,54,170,54c0,0,77,0,193,-23V544H454l-32,81c0,0,-39,35,-124,35c0,0,-61,0,-92,-30c0,0,-32,-30,-32,-80c0,0,0,-43,29,-72c0,0,28,-29,86,-48c0,0,110,-38,144,-55c0,0,33,-17,57,-42c0,0,23,-25,36,-57c0,0,13,-32,13,-79c0,0,0,-104,-66,-158c0,0,-66,-53,-195,-53Z" 
id="f1_2f"
transform="scale(0.001,-0.001)" />

<path d="M327,-14L84,649L1,668v33H335V668L219,648L385,174L554,632h63L786,171L944,649L830,668v33h267V668l-78,-16L784,-14H726L553,448L382,-14Z" 
id="f1_2j"
transform="scale(0.001,-0.001)" />

<path d="M58,-234v58c0,0,131,42,131,125c0,0,0,15,-11,27c0,0,-11,12,-38,25C140,1,89,27,89,75c0,0,0,40,25,61c0,0,26,21,65,21c0,0,48,0,77,-34c0,0,30,-34,30,-86c0,0,0,-101,-60,-170c0,0,-59,-69,-168,-101Z" 
id="f1_g"
transform="scale(0.001,-0.001)" />

<path d="M64,0V34L168,59V639H47v36l121,29v49c0,0,0,155,61,239c0,0,62,84,173,84c0,0,58,0,107,-15V908H472l-33,92c0,0,-26,16,-62,16c0,0,-47,0,-66,-42c0,0,-19,-42,-19,-157V701H478V639H292V59L443,34V0Z" 
id="f1_22"
transform="scale(0.001,-0.001)" />

<path d="M394,460c0,0,126,0,186,57c0,0,60,57,60,187c0,0,0,123,-57,176c0,0,-58,53,-194,53H316V460ZM54,0V40L172,60V941L44,960v40H421c0,0,368,0,368,-295c0,0,0,-153,-93,-233c0,0,-93,-80,-267,-80H316V60L475,40V0Z" 
id="f1_1g"
transform="scale(0.001,-0.001)" />

<path d="M843,0L451,506L316,398V60L460,40V0H44V40L172,60V941L44,960v40H445V960L316,941V470L795,941l-99,19v40h313V960L894,941L552,607L979,60L1088,40V0Z" 
id="f1_1b"
transform="scale(0.001,-0.001)" />

<path d="M13,0V34L95,46L325,350L122,649L40,668v33H357V668L264,648L399,446L554,649l-96,19v33H710V668L630,652L433,397L663,50L745,34V0H427V34l94,17L359,299L169,50L266,34V0Z" 
id="f1_2k"
transform="scale(0.001,-0.001)" />

<path d="M536,-22L130,941L17,960v40H421V960L287,941L590,205L892,941L761,960v40h325V960L976,941L574,-22Z" 
id="f1_1m"
transform="scale(0.001,-0.001)" />

<path d="M211,-20c0,0,-39,0,-64,25c0,0,-26,27,-26,64c0,0,0,38,26,64c0,0,26,26,64,26c0,0,37,0,64,-25c0,0,26,-26,26,-65c0,0,0,-37,-26,-64c0,0,-26,-25,-64,-25Zm0,556c0,0,-38,0,-64,26c0,0,-26,26,-26,64c0,0,0,37,26,64c0,0,25,27,64,27c0,0,38,0,64,-27c0,0,26,-27,26,-64c0,0,0,-38,-26,-64c0,0,-27,-26,-64,-26Z" 
id="f1_u"
transform="scale(0.001,-0.001)" />

<path d="M67,0V109L206,235c0,0,133,118,196,190c0,0,63,72,90,149c0,0,27,77,27,177c0,0,0,97,-44,148c0,0,-44,50,-144,50c0,0,-39,0,-81,-10c0,0,-42,-11,-74,-29L150,787H101V980c0,0,135,32,230,32c0,0,164,0,247,-68c0,0,82,-69,82,-193c0,0,0,-84,-32,-158c0,0,-33,-75,-100,-148c0,0,-67,-74,-222,-206c0,0,-67,-57,-141,-125H680V0Z" 
id="f1_m"
transform="scale(0.001,-0.001)" />

<path d="M57,302V417H454V302Z" 
id="f1_h"
transform="scale(0.001,-0.001)" />

<path d="M681,416L504,902L333,416ZM669,0V40L803,60L704,348H310L210,60L344,40V0H15V40L128,60l341,949H611L965,60L1092,40V0Z" 
id="f1_11"
transform="scale(0.001,-0.001)" />

<path d="M577,-14c0,0,-243,0,-379,131C198,117,63,248,63,488c0,0,0,263,131,393c0,0,132,130,386,130c0,0,182,0,352,-45V751H882L862,875c0,0,-52,37,-124,57c0,0,-72,19,-152,19c0,0,-191,0,-279,-113c0,0,-88,-114,-88,-348c0,0,0,-220,91,-333c0,0,91,-114,269,-114c0,0,63,0,131,15c0,0,69,15,105,36V377L686,397v40h370V397L958,377V52C958,52,871,24,778,5c0,0,-93,-19,-201,-19Z" 
id="f1_17"
transform="scale(0.001,-0.001)" />

<path d="M46,0c0,0,-2,48,16,93c0,0,27,74,88,146c0,0,61,71,176,165c0,0,178,146,241,232c0,0,63,85,63,161c0,0,0,80,-57,135c0,0,-58,55,-149,55c0,0,-98,0,-156,-59c0,0,-58,-58,-59,-160L71,782c0,0,15,154,107,235c0,0,93,81,249,81c0,0,157,0,249,-87c0,0,92,-88,92,-217c0,0,0,-65,-27,-129c0,0,-27,-63,-89,-133c0,0,-62,-70,-207,-193C445,339,324,238,290,202c0,0,-35,-36,-57,-73H770V0Z" 
id="f2_m"
transform="scale(0.001,-0.001)" />

<path d="M435,92c0,0,86,0,147,69c0,0,60,68,60,186c0,0,0,114,-60,179c0,0,-60,66,-152,66c0,0,-91,0,-154,-66c0,0,-64,-65,-64,-171c0,0,0,-70,30,-133c0,0,29,-64,82,-97c0,0,52,-33,111,-33Zm3,-110c0,0,-168,0,-274,123C164,105,58,228,58,512c0,0,0,317,117,461c0,0,102,125,275,125c0,0,129,0,212,-72c0,0,82,-72,99,-200L627,815c0,0,-18,79,-51,115c0,0,-54,58,-134,58c0,0,-64,0,-113,-36c0,0,-63,-46,-99,-135c0,0,-37,-89,-38,-253c0,0,48,74,118,110c0,0,70,36,147,36c0,0,135,0,229,-99c0,0,94,-99,94,-256c0,0,0,-103,-44,-191C736,164,691,75,614,28c0,0,-78,-46,-176,-46Z" 
id="f2_q"
transform="scale(0.001,-0.001)" />


</defs>
</svg>