<?xml version="1.0" encoding="UTF-8" standalone="no"?>
<!DOCTYPE svg PUBLIC "-//W3C//DTD SVG 1.1//EN"
"http://www.w3.org/Graphics/SVG/1.1/DTD/svg11.dtd">
<svg viewBox="0 0 909 1286" version="1.1" xmlns="http://www.w3.org/2000/svg" xmlns:xlink="http://www.w3.org/1999/xlink">
<defs>
<clipPath id="c0_70"><path d="M0,1286.3V0H909.3V1286.3Z" /></clipPath>
<style type="text/css"><![CDATA[
.g0_70{
fill: #FFFFFF;
}
]]></style>
</defs>
<path fill-rule="evenodd" d="M52.8,293.4H856.9V55H52.8V293.4Z" class="g0_70" />
<image preserveAspectRatio="none" x="55" y="55" width="435" height="238" xlink:href="img/1.png" />
<path fill-rule="evenodd" d="M52.8,314.3H856.9V293.4H52.8v20.9Z" class="g0_70" />
<path fill-rule="evenodd" d="M52.8,335.6H856.9V314.3H52.8v21.3Z" class="g0_70" />
<g clip-path="url(#c0_70)">
<g fill="#000000" >
<use xlink:href="#f0_1i" transform="matrix(12,0,0,12,55,331.2)" />
<use xlink:href="#f0_21" transform="matrix(12,0,0,12,67.1,331.2)" />
<use xlink:href="#f0_2f" transform="matrix(12,0,0,12,75.2,331.2)" />
<use xlink:href="#f0_2c" transform="matrix(12,0,0,12,82.2,331.2)" />
<use xlink:href="#f0_25" transform="matrix(12,0,0,12,91.7,331.2)" />
<use xlink:href="#f0_2e" transform="matrix(12,0,0,12,96.5,331.2)" />
<use xlink:href="#f0_1x" transform="matrix(12,0,0,12,102.7,331.2)" />
<use xlink:href="#f0_2g" transform="matrix(12,0,0,12,110.7,331.2)" />
<use xlink:href="#f0_25" transform="matrix(12,0,0,12,116.2,331.2)" />
<use xlink:href="#f0_2b" transform="matrix(12,0,0,12,120.6,331.2)" />
<use xlink:href="#f0_2a" transform="matrix(12,0,0,12,130.1,331.2)" />
<use xlink:href="#f0_1y" transform="matrix(12,0,0,12,144,331.2)" />
<use xlink:href="#f0_2l" transform="matrix(12,0,0,12,153.2,331.2)" />
<use xlink:href="#f0_23" transform="matrix(12,0,0,12,166.4,331.2)" />
<use xlink:href="#f0_25" transform="matrix(12,0,0,12,175.9,331.2)" />
<use xlink:href="#f0_28" transform="matrix(12,0,0,12,181,331.2)" />
<use xlink:href="#f0_28" transform="matrix(12,0,0,12,186.2,331.2)" />
<use xlink:href="#f0_2f" transform="matrix(12,0,0,12,190.9,331.2)" />
<use xlink:href="#f0_g" transform="matrix(12,0,0,12,197.9,331.2)" />
<use xlink:href="#f0_28" transform="matrix(12,0,0,12,207.8,331.2)" />
<use xlink:href="#f0_2h" transform="matrix(12,0,0,12,212.2,331.2)" />
<use xlink:href="#f0_2a" transform="matrix(12,0,0,12,221.7,331.2)" />
<use xlink:href="#f0_23" transform="matrix(12,0,0,12,230.5,331.2)" />
<use xlink:href="#f0_2f" transform="matrix(12,0,0,12,240,331.2)" />
<use xlink:href="#f0_2b" transform="matrix(12,0,0,12,251.7,331.2)" />
<use xlink:href="#f0_2e" transform="matrix(12,0,0,12,261.2,331.2)" />
<use xlink:href="#f0_2f" transform="matrix(12,0,0,12,272.2,331.2)" />
<use xlink:href="#f0_27" transform="matrix(12,0,0,12,279.1,331.2)" />
<use xlink:href="#f0_25" transform="matrix(12,0,0,12,288.3,331.2)" />
<use xlink:href="#f0_2a" transform="matrix(12,0,0,12,293.1,331.2)" />
<use xlink:href="#f0_i" transform="matrix(12,0,0,12,301.9,331.2)" />
</g>
</g>
<path fill-rule="evenodd" d="M52.8,356.5H856.9V335.6H52.8v20.9Z" class="g0_70" />
<g clip-path="url(#c0_70)">
<g fill="#000000" >
<use xlink:href="#f0_18" transform="matrix(12,0,0,12,55,352.5)" />
<use xlink:href="#f0_21" transform="matrix(12,0,0,12,68.3,352.5)" />
<use xlink:href="#f0_1x" transform="matrix(12,0,0,12,76.3,352.5)" />
<use xlink:href="#f0_2e" transform="matrix(12,0,0,12,84.4,352.5)" />
<use xlink:href="#f0_2g" transform="matrix(12,0,0,12,90.6,352.5)" />
<use xlink:href="#f0_25" transform="matrix(12,0,0,12,100.8,352.5)" />
<use xlink:href="#f0_2f" transform="matrix(12,0,0,12,105.2,352.5)" />
<use xlink:href="#f0_n" transform="matrix(12,0,0,12,116.9,352.5)" />
<use xlink:href="#f0_h" transform="matrix(12,0,0,12,126.2,352.5)" />
<use xlink:href="#f0_1z" transform="matrix(12,0,0,12,132.4,352.5)" />
<use xlink:href="#f0_24" transform="matrix(12,0,0,12,140.5,352.5)" />
<use xlink:href="#f0_1x" transform="matrix(12,0,0,12,149.3,352.5)" />
<use xlink:href="#f0_29" transform="matrix(12,0,0,12,157.7,352.5)" />
<use xlink:href="#f0_1y" transform="matrix(12,0,0,12,171.6,352.5)" />
<use xlink:href="#f0_21" transform="matrix(12,0,0,12,180.8,352.5)" />
<use xlink:href="#f0_2e" transform="matrix(12,0,0,12,188.9,352.5)" />
<use xlink:href="#f0_21" transform="matrix(12,0,0,12,195.1,352.5)" />
<use xlink:href="#f0_20" transform="matrix(12,0,0,12,203.1,352.5)" />
<use xlink:href="#f0_c" transform="matrix(12,0,0,12,217.1,352.5)" />
<use xlink:href="#f0_2g" transform="matrix(12,0,0,12,223.4,352.5)" />
<use xlink:href="#f0_2j" transform="matrix(12,0,0,12,228.9,352.5)" />
<use xlink:href="#f0_2b" transform="matrix(12,0,0,12,241.7,352.5)" />
<use xlink:href="#f0_1x" transform="matrix(12,0,0,12,256,352.5)" />
<use xlink:href="#f0_2h" transform="matrix(12,0,0,12,264,352.5)" />
<use xlink:href="#f0_2e" transform="matrix(12,0,0,12,273.2,352.5)" />
<use xlink:href="#f0_25" transform="matrix(12,0,0,12,279.4,352.5)" />
<use xlink:href="#f0_1z" transform="matrix(12,0,0,12,283.8,352.5)" />
<use xlink:href="#f0_28" transform="matrix(12,0,0,12,292.2,352.5)" />
<use xlink:href="#f0_21" transform="matrix(12,0,0,12,297,352.5)" />
<use xlink:href="#f0_1x" transform="matrix(12,0,0,12,309.8,352.5)" />
<use xlink:href="#f0_2a" transform="matrix(12,0,0,12,318.2,352.5)" />
<use xlink:href="#f0_20" transform="matrix(12,0,0,12,327,352.5)" />
<use xlink:href="#f0_2b" transform="matrix(12,0,0,12,340.9,352.5)" />
<use xlink:href="#f0_2a" transform="matrix(12,0,0,12,350.4,352.5)" />
<use xlink:href="#f0_21" transform="matrix(12,0,0,12,359.2,352.5)" />
<use xlink:href="#f0_2i" transform="matrix(12,0,0,12,372.1,352.5)" />
<use xlink:href="#f0_21" transform="matrix(12,0,0,12,380.9,352.5)" />
<use xlink:href="#f0_2a" transform="matrix(12,0,0,12,389.3,352.5)" />
<use xlink:href="#f0_2g" transform="matrix(12,0,0,12,398.1,352.5)" />
<use xlink:href="#f0_2e" transform="matrix(12,0,0,12,403.6,352.5)" />
<use xlink:href="#f0_25" transform="matrix(12,0,0,12,409.8,352.5)" />
<use xlink:href="#f0_1z" transform="matrix(12,0,0,12,414.5,352.5)" />
<use xlink:href="#f0_28" transform="matrix(12,0,0,12,423,352.5)" />
<use xlink:href="#f0_21" transform="matrix(12,0,0,12,427.7,352.5)" />
<use xlink:href="#f0_d" transform="matrix(12,0,0,12,435.8,352.5)" />
</g>
</g>
<path fill-rule="evenodd" d="M52.8,377.8H856.9V356.5H52.8v21.3Z" class="g0_70" />
<g clip-path="url(#c0_70)">
<g fill="#000000" >
<use xlink:href="#f0_13" transform="matrix(12,0,0,12,55,373.4)" />
<use xlink:href="#f0_2b" transform="matrix(12,0,0,12,67.1,373.4)" />
<use xlink:href="#f0_28" transform="matrix(12,0,0,12,76.7,373.4)" />
<use xlink:href="#f0_20" transform="matrix(12,0,0,12,81.1,373.4)" />
<use xlink:href="#f0_1y" transform="matrix(12,0,0,12,95.3,373.4)" />
<use xlink:href="#f0_28" transform="matrix(12,0,0,12,104.5,373.4)" />
<use xlink:href="#f0_2b" transform="matrix(12,0,0,12,108.9,373.4)" />
<use xlink:href="#f0_2b" transform="matrix(12,0,0,12,118.4,373.4)" />
<use xlink:href="#f0_20" transform="matrix(12,0,0,12,127.9,373.4)" />
<use xlink:href="#f0_21" transform="matrix(12,0,0,12,137.1,373.4)" />
<use xlink:href="#f0_20" transform="matrix(12,0,0,12,145.2,373.4)" />
<use xlink:href="#f0_1x" transform="matrix(12,0,0,12,159.1,373.4)" />
<use xlink:href="#f0_2a" transform="matrix(12,0,0,12,167.1,373.4)" />
<use xlink:href="#f0_25" transform="matrix(12,0,0,12,176.3,373.4)" />
<use xlink:href="#f0_29" transform="matrix(12,0,0,12,181.1,373.4)" />
<use xlink:href="#f0_1x" transform="matrix(12,0,0,12,195,373.4)" />
<use xlink:href="#f0_28" transform="matrix(12,0,0,12,203.4,373.4)" />
<use xlink:href="#f0_2f" transform="matrix(12,0,0,12,208.2,373.4)" />
<use xlink:href="#f0_i" transform="matrix(12,0,0,12,215.2,373.4)" />
</g>
</g>
<path fill-rule="evenodd" d="M52.8,398.7H856.9V377.8H52.8v20.9Z" class="g0_70" />
<g clip-path="url(#c0_70)">
<g fill="#000000" >
<use xlink:href="#f0_1j" transform="matrix(12,0,0,12,55,394.6)" />
<use xlink:href="#f0_21" transform="matrix(12,0,0,12,65.3,394.6)" />
<use xlink:href="#f0_2k" transform="matrix(12,0,0,12,73.4,394.6)" />
<use xlink:href="#f0_21" transform="matrix(12,0,0,12,82.2,394.6)" />
<use xlink:href="#f0_2f" transform="matrix(12,0,0,12,90.6,394.6)" />
<use xlink:href="#f0_2f" transform="matrix(12,0,0,12,102.3,394.6)" />
<use xlink:href="#f0_21" transform="matrix(12,0,0,12,109.2,394.6)" />
<use xlink:href="#f0_2c" transform="matrix(12,0,0,12,117.3,394.6)" />
<use xlink:href="#f0_1x" transform="matrix(12,0,0,12,126.5,394.6)" />
<use xlink:href="#f0_2e" transform="matrix(12,0,0,12,134.5,394.6)" />
<use xlink:href="#f0_1x" transform="matrix(12,0,0,12,140.8,394.6)" />
<use xlink:href="#f0_2g" transform="matrix(12,0,0,12,148.8,394.6)" />
<use xlink:href="#f0_21" transform="matrix(12,0,0,12,154.3,394.6)" />
<use xlink:href="#f0_i" transform="matrix(12,0,0,12,162.4,394.6)" />
</g>
</g>
<path fill-rule="evenodd" d="M52.8,419.9H856.9V398.7H52.8v21.2Z" class="g0_70" />
<g clip-path="url(#c0_70)">
<g fill="#000000" >
<use xlink:href="#f0_16" transform="matrix(12,0,0,12,55,415.5)" />
<use xlink:href="#f0_21" transform="matrix(12,0,0,12,64.9,415.5)" />
<use xlink:href="#f0_2e" transform="matrix(12,0,0,12,73,415.5)" />
<use xlink:href="#f0_2g" transform="matrix(12,0,0,12,79.2,415.5)" />
<use xlink:href="#f0_25" transform="matrix(12,0,0,12,84.7,415.5)" />
<use xlink:href="#f0_28" transform="matrix(12,0,0,12,89.5,415.5)" />
<use xlink:href="#f0_25" transform="matrix(12,0,0,12,94.6,415.5)" />
<use xlink:href="#f0_2m" transform="matrix(12,0,0,12,99.4,415.5)" />
<use xlink:href="#f0_1x" transform="matrix(12,0,0,12,107.8,415.5)" />
<use xlink:href="#f0_2g" transform="matrix(12,0,0,12,115.8,415.5)" />
<use xlink:href="#f0_25" transform="matrix(12,0,0,12,121.3,415.5)" />
<use xlink:href="#f0_2b" transform="matrix(12,0,0,12,125.7,415.5)" />
<use xlink:href="#f0_2a" transform="matrix(12,0,0,12,135.2,415.5)" />
<use xlink:href="#f0_25" transform="matrix(12,0,0,12,149.2,415.5)" />
<use xlink:href="#f0_2f" transform="matrix(12,0,0,12,153.9,415.5)" />
<use xlink:href="#f0_21" transform="matrix(12,0,0,12,165.6,415.5)" />
<use xlink:href="#f0_2k" transform="matrix(12,0,0,12,174.1,415.5)" />
<use xlink:href="#f0_2g" transform="matrix(12,0,0,12,182.9,415.5)" />
<use xlink:href="#f0_21" transform="matrix(12,0,0,12,188.3,415.5)" />
<use xlink:href="#f0_2e" transform="matrix(12,0,0,12,196.4,415.5)" />
<use xlink:href="#f0_2a" transform="matrix(12,0,0,12,202.6,415.5)" />
<use xlink:href="#f0_1x" transform="matrix(12,0,0,12,211.4,415.5)" />
<use xlink:href="#f0_28" transform="matrix(12,0,0,12,219.8,415.5)" />
<use xlink:href="#f0_1x" transform="matrix(12,0,0,12,229,415.5)" />
<use xlink:href="#f0_2a" transform="matrix(12,0,0,12,237.4,415.5)" />
<use xlink:href="#f0_20" transform="matrix(12,0,0,12,246.2,415.5)" />
<use xlink:href="#f0_2e" transform="matrix(12,0,0,12,260.1,415.5)" />
<use xlink:href="#f0_21" transform="matrix(12,0,0,12,266.3,415.5)" />
<use xlink:href="#f0_2d" transform="matrix(12,0,0,12,274.4,415.5)" />
<use xlink:href="#f0_2h" transform="matrix(12,0,0,12,283.6,415.5)" />
<use xlink:href="#f0_25" transform="matrix(12,0,0,12,293.1,415.5)" />
<use xlink:href="#f0_2e" transform="matrix(12,0,0,12,297.5,415.5)" />
<use xlink:href="#f0_21" transform="matrix(12,0,0,12,303.7,415.5)" />
<use xlink:href="#f0_2f" transform="matrix(12,0,0,12,312.1,415.5)" />
<use xlink:href="#f0_2j" transform="matrix(12,0,0,12,323.8,415.5)" />
<use xlink:href="#f0_1x" transform="matrix(12,0,0,12,337.1,415.5)" />
<use xlink:href="#f0_2g" transform="matrix(12,0,0,12,345.1,415.5)" />
<use xlink:href="#f0_21" transform="matrix(12,0,0,12,350.6,415.5)" />
<use xlink:href="#f0_2e" transform="matrix(12,0,0,12,358.6,415.5)" />
<use xlink:href="#f0_i" transform="matrix(12,0,0,12,364.9,415.5)" />
</g>
</g>
<path fill-rule="evenodd" d="M52.8,440.8H856.9V419.9H52.8v20.9Z" class="g0_70" />
<g clip-path="url(#c0_70)">
<g fill="#000000" >
<use xlink:href="#f0_1f" transform="matrix(12,0,0,12,55,436.8)" />
<use xlink:href="#f0_2i" transform="matrix(12,0,0,12,68.3,436.8)" />
<use xlink:href="#f0_25" transform="matrix(12,0,0,12,77.4,436.8)" />
<use xlink:href="#f0_2c" transform="matrix(12,0,0,12,82.2,436.8)" />
<use xlink:href="#f0_1x" transform="matrix(12,0,0,12,91.3,436.8)" />
<use xlink:href="#f0_2e" transform="matrix(12,0,0,12,99.4,436.8)" />
<use xlink:href="#f0_2b" transform="matrix(12,0,0,12,105.6,436.8)" />
<use xlink:href="#f0_2h" transform="matrix(12,0,0,12,115.1,436.8)" />
<use xlink:href="#f0_2f" transform="matrix(12,0,0,12,124.3,436.8)" />
<use xlink:href="#f0_g" transform="matrix(12,0,0,12,131.3,436.8)" />
<use xlink:href="#f0_19" transform="matrix(12,0,0,12,140.8,436.8)" />
<use xlink:href="#f0_2a" transform="matrix(12,0,0,12,147.1,436.8)" />
<use xlink:href="#f0_20" transform="matrix(12,0,0,12,155.9,436.8)" />
<use xlink:href="#f0_25" transform="matrix(12,0,0,12,165.4,436.8)" />
<use xlink:href="#f0_2e" transform="matrix(12,0,0,12,169.8,436.8)" />
<use xlink:href="#f0_21" transform="matrix(12,0,0,12,176,436.8)" />
<use xlink:href="#f0_1z" transform="matrix(12,0,0,12,184,436.8)" />
<use xlink:href="#f0_2g" transform="matrix(12,0,0,12,192.1,436.8)" />
<use xlink:href="#f0_20" transform="matrix(12,0,0,12,202.3,436.8)" />
<use xlink:href="#f0_21" transform="matrix(12,0,0,12,211.5,436.8)" />
<use xlink:href="#f0_2i" transform="matrix(12,0,0,12,219.6,436.8)" />
<use xlink:href="#f0_21" transform="matrix(12,0,0,12,228.4,436.8)" />
<use xlink:href="#f0_28" transform="matrix(12,0,0,12,236.8,436.8)" />
<use xlink:href="#f0_2b" transform="matrix(12,0,0,12,241.2,436.8)" />
<use xlink:href="#f0_2c" transform="matrix(12,0,0,12,250.7,436.8)" />
<use xlink:href="#f0_29" transform="matrix(12,0,0,12,260.2,436.8)" />
<use xlink:href="#f0_21" transform="matrix(12,0,0,12,274.2,436.8)" />
<use xlink:href="#f0_2a" transform="matrix(12,0,0,12,282.6,436.8)" />
<use xlink:href="#f0_2g" transform="matrix(12,0,0,12,291.4,436.8)" />
<use xlink:href="#f0_i" transform="matrix(12,0,0,12,296.9,436.8)" />
<use xlink:href="#f0_15" transform="matrix(12,0,0,12,55,457.7)" />
<use xlink:href="#f0_2k" transform="matrix(12,0,0,12,66.4,457.7)" />
<use xlink:href="#f0_1x" transform="matrix(12,0,0,12,75.2,457.7)" />
<use xlink:href="#f0_29" transform="matrix(12,0,0,12,83.6,457.7)" />
<use xlink:href="#f0_2c" transform="matrix(12,0,0,12,97.5,457.7)" />
<use xlink:href="#f0_28" transform="matrix(12,0,0,12,107,457.7)" />
<use xlink:href="#f0_21" transform="matrix(12,0,0,12,111.8,457.7)" />
<use xlink:href="#f0_2f" transform="matrix(12,0,0,12,119.9,457.7)" />
<use xlink:href="#f0_u" transform="matrix(12,0,0,12,126.8,457.7)" />
<use xlink:href="#f1_19" transform="matrix(12,0,0,12,136.8,457.7)" />
<use xlink:href="#f1_1z" transform="matrix(12,0,0,12,143,457.7)" />
<use xlink:href="#f1_24" transform="matrix(12,0,0,12,151.1,457.7)" />
<use xlink:href="#f1_2g" transform="matrix(12,0,0,12,160.3,457.7)" />
<use xlink:href="#f1_24" transform="matrix(12,0,0,12,165.3,457.7)" />
<use xlink:href="#f1_2l" transform="matrix(12,0,0,12,174.5,457.7)" />
<use xlink:href="#f1_2b" transform="matrix(12,0,0,12,182.7,457.7)" />
<use xlink:href="#f1_2c" transform="matrix(12,0,0,12,191.8,457.7)" />
<use xlink:href="#f1_24" transform="matrix(12,0,0,12,201,457.7)" />
<use xlink:href="#f1_25" transform="matrix(12,0,0,12,210.2,457.7)" />
<use xlink:href="#f1_2f" transform="matrix(12,0,0,12,215.3,457.7)" />
<use xlink:href="#f1_g" transform="matrix(12,0,0,12,222.2,457.7)" />
<use xlink:href="#f1_1e" transform="matrix(12,0,0,12,231.8,457.7)" />
<use xlink:href="#f1_21" transform="matrix(12,0,0,12,243.9,457.7)" />
<use xlink:href="#f1_1z" transform="matrix(12,0,0,12,252,457.7)" />
<use xlink:href="#f1_2g" transform="matrix(12,0,0,12,260,457.7)" />
<use xlink:href="#f1_2h" transform="matrix(12,0,0,12,265.1,457.7)" />
<use xlink:href="#f1_2e" transform="matrix(12,0,0,12,274.3,457.7)" />
<use xlink:href="#f1_2h" transform="matrix(12,0,0,12,281.3,457.7)" />
<use xlink:href="#f1_2f" transform="matrix(12,0,0,12,290.5,457.7)" />
<use xlink:href="#f1_g" transform="matrix(12,0,0,12,297.4,457.7)" />
<use xlink:href="#f1_1j" transform="matrix(12,0,0,12,306.9,457.7)" />
<use xlink:href="#f1_25" transform="matrix(12,0,0,12,316.1,457.7)" />
<use xlink:href="#f1_2e" transform="matrix(12,0,0,12,321.2,457.7)" />
<use xlink:href="#f1_21" transform="matrix(12,0,0,12,328.2,457.7)" />
<use xlink:href="#f1_2a" transform="matrix(12,0,0,12,336.3,457.7)" />
<use xlink:href="#f1_g" transform="matrix(12,0,0,12,345.4,457.7)" />
<use xlink:href="#f1_11" transform="matrix(12,0,0,12,354.9,457.7)" />
<use xlink:href="#f1_29" transform="matrix(12,0,0,12,366.3,457.7)" />
<use xlink:href="#f1_2c" transform="matrix(12,0,0,12,379.5,457.7)" />
<use xlink:href="#f1_24" transform="matrix(12,0,0,12,388.7,457.7)" />
<use xlink:href="#f1_25" transform="matrix(12,0,0,12,397.9,457.7)" />
<use xlink:href="#f1_2h" transform="matrix(12,0,0,12,403,457.7)" />
<use xlink:href="#f1_29" transform="matrix(12,0,0,12,412.1,457.7)" />
<use xlink:href="#f1_1x" transform="matrix(12,0,0,12,425,457.7)" />
<use xlink:href="#f1_g" transform="matrix(12,0,0,12,434.1,457.7)" />
<use xlink:href="#f1_1j" transform="matrix(12,0,0,12,443.6,457.7)" />
<use xlink:href="#f1_1x" transform="matrix(12,0,0,12,452.8,457.7)" />
<use xlink:href="#f1_28" transform="matrix(12,0,0,12,461.9,457.7)" />
<use xlink:href="#f1_1x" transform="matrix(12,0,0,12,467,457.7)" />
<use xlink:href="#f1_29" transform="matrix(12,0,0,12,476.2,457.7)" />
<use xlink:href="#f1_1x" transform="matrix(12,0,0,12,489.4,457.7)" />
<use xlink:href="#f1_2a" transform="matrix(12,0,0,12,498.6,457.7)" />
<use xlink:href="#f1_20" transform="matrix(12,0,0,12,507.8,457.7)" />
<use xlink:href="#f1_2e" transform="matrix(12,0,0,12,516.9,457.7)" />
<use xlink:href="#f1_1x" transform="matrix(12,0,0,12,523.9,457.7)" />
<use xlink:href="#f1_g" transform="matrix(12,0,0,12,533.1,457.7)" />
<use xlink:href="#f1_1i" transform="matrix(12,0,0,12,542.2,457.7)" />
<use xlink:href="#f1_1x" transform="matrix(12,0,0,12,553.6,457.7)" />
<use xlink:href="#f1_2a" transform="matrix(12,0,0,12,562.7,457.7)" />
<use xlink:href="#f1_1x" transform="matrix(12,0,0,12,571.9,457.7)" />
<use xlink:href="#f1_g" transform="matrix(12,0,0,12,580.7,457.7)" />
<use xlink:href="#f1_12" transform="matrix(12,0,0,12,589.9,457.7)" />
<use xlink:href="#f1_2h" transform="matrix(12,0,0,12,601.2,457.7)" />
<use xlink:href="#f1_22" transform="matrix(12,0,0,12,610,457.7)" />
<use xlink:href="#f1_2b" transform="matrix(12,0,0,12,615.5,457.7)" />
<use xlink:href="#f1_g" transform="matrix(12,0,0,12,624.7,457.7)" />
<use xlink:href="#f1_18" transform="matrix(12,0,0,12,633.8,457.7)" />
<use xlink:href="#f1_2l" transform="matrix(12,0,0,12,647,457.7)" />
<use xlink:href="#f1_28" transform="matrix(12,0,0,12,655.1,457.7)" />
<use xlink:href="#f1_1x" transform="matrix(12,0,0,12,660.2,457.7)" />
<use xlink:href="#f0_21" transform="matrix(12,0,0,12,674.6,457.7)" />
<use xlink:href="#f0_2g" transform="matrix(12,0,0,12,682.3,457.7)" />
<use xlink:href="#f0_1z" transform="matrix(12,0,0,12,687.7,457.7)" />
</g>
<g fill="#231F20" >
<use xlink:href="#f0_i" transform="matrix(12,0,0,12,695.8,457.7)" />
</g>
</g>
<path fill-rule="evenodd" d="M52.8,504.3H856.9V483.1H52.8v21.2Z" class="g0_70" />
<g clip-path="url(#c0_70)">
<g fill="#000000" >
<use xlink:href="#f2_o" transform="matrix(12,0,0,12,55,499.9)" />
<use xlink:href="#f2_i" transform="matrix(12,0,0,12,64.2,499.9)" />
<use xlink:href="#f2_m" transform="matrix(12,0,0,12,69,499.9)" />
<use xlink:href="#f2_i" transform="matrix(12,0,0,12,78.1,499.9)" />
<use xlink:href="#f2_l" transform="matrix(12,0,0,12,82.9,499.9)" />
<use xlink:href="#f2_l" transform="matrix(12,0,0,12,92,499.9)" />
<use xlink:href="#f2_i" transform="matrix(12,0,0,12,100.8,499.9)" />
<use xlink:href="#f2_p" transform="matrix(12,0,0,12,105.6,499.9)" />
<use xlink:href="#f2_13" transform="matrix(12,0,0,12,119.6,499.9)" />
<use xlink:href="#f2_28" transform="matrix(12,0,0,12,132.8,499.9)" />
<use xlink:href="#f2_1x" transform="matrix(12,0,0,12,137.5,499.9)" />
<use xlink:href="#f2_2f" transform="matrix(12,0,0,12,146.7,499.9)" />
<use xlink:href="#f2_2f" transform="matrix(12,0,0,12,153.7,499.9)" />
<use xlink:href="#f2_h" transform="matrix(12,0,0,12,165.4,499.9)" />
<use xlink:href="#f2_m" transform="matrix(12,0,0,12,176.4,499.9)" />
<use xlink:href="#f2_u" transform="matrix(12,0,0,12,185.6,499.9)" />
<use xlink:href="#f2_1i" transform="matrix(12,0,0,12,196.6,499.9)" />
<use xlink:href="#f2_21" transform="matrix(12,0,0,12,209.8,499.9)" />
<use xlink:href="#f2_2c" transform="matrix(12,0,0,12,217.8,499.9)" />
<use xlink:href="#f2_2g" transform="matrix(12,0,0,12,227.7,499.9)" />
<use xlink:href="#f2_25" transform="matrix(12,0,0,12,234,499.9)" />
<use xlink:href="#f2_28" transform="matrix(12,0,0,12,239.1,499.9)" />
<use xlink:href="#f2_25" transform="matrix(12,0,0,12,243.9,499.9)" />
<use xlink:href="#f2_1x" transform="matrix(12,0,0,12,249,499.9)" />
</g>
</g>
<path fill-rule="evenodd" d="M52.8,525.2H856.9V504.3H52.8v20.9Z" class="g0_70" />
<g clip-path="url(#c0_70)">
<g fill="#000000" >
<use xlink:href="#f0_13" transform="matrix(12,0,0,12,55,521.2)" />
<use xlink:href="#f0_2e" transform="matrix(12,0,0,12,67.1,521.2)" />
<use xlink:href="#f0_21" transform="matrix(12,0,0,12,73.4,521.2)" />
<use xlink:href="#f0_21" transform="matrix(12,0,0,12,81.4,521.2)" />
<use xlink:href="#f0_2c" transform="matrix(12,0,0,12,89.5,521.2)" />
<use xlink:href="#f0_25" transform="matrix(12,0,0,12,99,521.2)" />
<use xlink:href="#f0_2a" transform="matrix(12,0,0,12,103.8,521.2)" />
<use xlink:href="#f0_23" transform="matrix(12,0,0,12,112.6,521.2)" />
<use xlink:href="#f0_2b" transform="matrix(12,0,0,12,126.5,521.2)" />
<use xlink:href="#f0_2e" transform="matrix(12,0,0,12,136,521.2)" />
<use xlink:href="#f0_1z" transform="matrix(12,0,0,12,147,521.2)" />
<use xlink:href="#f0_2e" transform="matrix(12,0,0,12,155,521.2)" />
<use xlink:href="#f0_1x" transform="matrix(12,0,0,12,161.2,521.2)" />
<use xlink:href="#f0_2j" transform="matrix(12,0,0,12,169.3,521.2)" />
<use xlink:href="#f0_28" transform="matrix(12,0,0,12,182.5,521.2)" />
<use xlink:href="#f0_25" transform="matrix(12,0,0,12,187.3,521.2)" />
<use xlink:href="#f0_2a" transform="matrix(12,0,0,12,192,521.2)" />
<use xlink:href="#f0_23" transform="matrix(12,0,0,12,201.2,521.2)" />
<use xlink:href="#f0_29" transform="matrix(12,0,0,12,215.5,521.2)" />
<use xlink:href="#f0_2b" transform="matrix(12,0,0,12,229.1,521.2)" />
<use xlink:href="#f0_20" transform="matrix(12,0,0,12,238.6,521.2)" />
<use xlink:href="#f0_21" transform="matrix(12,0,0,12,247.7,521.2)" />
<use xlink:href="#f0_2b" transform="matrix(12,0,0,12,260.6,521.2)" />
<use xlink:href="#f0_22" transform="matrix(12,0,0,12,270.1,521.2)" />
<use xlink:href="#f0_28" transform="matrix(12,0,0,12,280.7,521.2)" />
<use xlink:href="#f0_2b" transform="matrix(12,0,0,12,285.1,521.2)" />
<use xlink:href="#f0_1z" transform="matrix(12,0,0,12,294.6,521.2)" />
<use xlink:href="#f0_2b" transform="matrix(12,0,0,12,302.7,521.2)" />
<use xlink:href="#f0_29" transform="matrix(12,0,0,12,312.2,521.2)" />
<use xlink:href="#f0_2b" transform="matrix(12,0,0,12,325.7,521.2)" />
<use xlink:href="#f0_2g" transform="matrix(12,0,0,12,335.3,521.2)" />
<use xlink:href="#f0_25" transform="matrix(12,0,0,12,340.7,521.2)" />
<use xlink:href="#f0_2b" transform="matrix(12,0,0,12,345.1,521.2)" />
<use xlink:href="#f0_2a" transform="matrix(12,0,0,12,354.7,521.2)" />
<use xlink:href="#f0_i" transform="matrix(12,0,0,12,363.5,521.2)" />
</g>
</g>
<path fill-rule="evenodd" d="M52.8,546.5H856.9V525.2H52.8v21.3Z" class="g0_70" />
<g clip-path="url(#c0_70)">
<g fill="#000000" >
<use xlink:href="#f0_12" transform="matrix(12,0,0,12,55,542.1)" />
<use xlink:href="#f0_2b" transform="matrix(12,0,0,12,67.1,542.1)" />
<use xlink:href="#f0_20" transform="matrix(12,0,0,12,76.7,542.1)" />
<use xlink:href="#f0_2l" transform="matrix(12,0,0,12,85.8,542.1)" />
<use xlink:href="#f0_24" transform="matrix(12,0,0,12,99.4,542.1)" />
<use xlink:href="#f0_1x" transform="matrix(12,0,0,12,108.2,542.1)" />
<use xlink:href="#f0_2f" transform="matrix(12,0,0,12,116.2,542.1)" />
<use xlink:href="#f0_20" transform="matrix(12,0,0,12,127.9,542.1)" />
<use xlink:href="#f0_2e" transform="matrix(12,0,0,12,137.1,542.1)" />
<use xlink:href="#f0_2l" transform="matrix(12,0,0,12,143.7,542.1)" />
<use xlink:href="#f0_1x" transform="matrix(12,0,0,12,156.9,542.1)" />
<use xlink:href="#f0_2a" transform="matrix(12,0,0,12,165.3,542.1)" />
<use xlink:href="#f0_20" transform="matrix(12,0,0,12,174.1,542.1)" />
<use xlink:href="#f0_1z" transform="matrix(12,0,0,12,188,542.1)" />
<use xlink:href="#f0_2b" transform="matrix(12,0,0,12,196.1,542.1)" />
<use xlink:href="#f0_2e" transform="matrix(12,0,0,12,205.6,542.1)" />
<use xlink:href="#f0_2a" transform="matrix(12,0,0,12,211.8,542.1)" />
<use xlink:href="#f0_25" transform="matrix(12,0,0,12,221,542.1)" />
<use xlink:href="#f0_22" transform="matrix(12,0,0,12,225.7,542.1)" />
<use xlink:href="#f0_25" transform="matrix(12,0,0,12,232,542.1)" />
<use xlink:href="#f0_21" transform="matrix(12,0,0,12,236.7,542.1)" />
<use xlink:href="#f0_20" transform="matrix(12,0,0,12,244.8,542.1)" />
<use xlink:href="#f0_2f" transform="matrix(12,0,0,12,258.7,542.1)" />
<use xlink:href="#f0_27" transform="matrix(12,0,0,12,265.7,542.1)" />
<use xlink:href="#f0_25" transform="matrix(12,0,0,12,275.2,542.1)" />
<use xlink:href="#f0_2a" transform="matrix(12,0,0,12,279.9,542.1)" />
<use xlink:href="#f0_1x" transform="matrix(12,0,0,12,293.9,542.1)" />
<use xlink:href="#f0_2a" transform="matrix(12,0,0,12,302.3,542.1)" />
<use xlink:href="#f0_20" transform="matrix(12,0,0,12,311.1,542.1)" />
<use xlink:href="#f0_21" transform="matrix(12,0,0,12,325,542.1)" />
<use xlink:href="#f0_2c" transform="matrix(12,0,0,12,333.1,542.1)" />
<use xlink:href="#f0_25" transform="matrix(12,0,0,12,342.6,542.1)" />
<use xlink:href="#f0_20" transform="matrix(12,0,0,12,347,542.1)" />
<use xlink:href="#f0_21" transform="matrix(12,0,0,12,356.1,542.1)" />
<use xlink:href="#f0_2e" transform="matrix(12,0,0,12,364.2,542.1)" />
<use xlink:href="#f0_29" transform="matrix(12,0,0,12,370.8,542.1)" />
<use xlink:href="#f0_1x" transform="matrix(12,0,0,12,384.7,542.1)" />
<use xlink:href="#f0_28" transform="matrix(12,0,0,12,393.1,542.1)" />
<use xlink:href="#f0_2f" transform="matrix(12,0,0,12,402.7,542.1)" />
<use xlink:href="#f0_1z" transform="matrix(12,0,0,12,409.6,542.1)" />
<use xlink:href="#f0_1x" transform="matrix(12,0,0,12,417.7,542.1)" />
<use xlink:href="#f0_28" transform="matrix(12,0,0,12,426.1,542.1)" />
<use xlink:href="#f0_21" transform="matrix(12,0,0,12,430.9,542.1)" />
<use xlink:href="#f0_2f" transform="matrix(12,0,0,12,439.3,542.1)" />
<use xlink:href="#f0_2b" transform="matrix(12,0,0,12,451,542.1)" />
<use xlink:href="#f0_2e" transform="matrix(12,0,0,12,460.5,542.1)" />
<use xlink:href="#f0_2f" transform="matrix(12,0,0,12,471.1,542.1)" />
<use xlink:href="#f0_1z" transform="matrix(12,0,0,12,478.1,542.1)" />
<use xlink:href="#f0_2h" transform="matrix(12,0,0,12,486.2,542.1)" />
<use xlink:href="#f0_2g" transform="matrix(12,0,0,12,495.3,542.1)" />
<use xlink:href="#f0_21" transform="matrix(12,0,0,12,500.8,542.1)" />
<use xlink:href="#f0_2f" transform="matrix(12,0,0,12,508.9,542.1)" />
<use xlink:href="#f0_i" transform="matrix(12,0,0,12,515.8,542.1)" />
</g>
</g>
<path fill-rule="evenodd" d="M52.8,567.4H856.9V546.5H52.8v20.9Z" class="g0_70" />
<g clip-path="url(#c0_70)">
<g fill="#000000" >
<use xlink:href="#f0_1k" transform="matrix(12,0,0,12,55,563.4)" />
<use xlink:href="#f0_2l" transform="matrix(12,0,0,12,66.8,563.4)" />
<use xlink:href="#f0_29" transform="matrix(12,0,0,12,75.6,563.4)" />
<use xlink:href="#f0_2c" transform="matrix(12,0,0,12,89.1,563.4)" />
<use xlink:href="#f0_1x" transform="matrix(12,0,0,12,98.6,563.4)" />
<use xlink:href="#f0_2a" transform="matrix(12,0,0,12,107,563.4)" />
<use xlink:href="#f0_2h" transform="matrix(12,0,0,12,115.8,563.4)" />
<use xlink:href="#f0_29" transform="matrix(12,0,0,12,125.4,563.4)" />
<use xlink:href="#f0_2e" transform="matrix(12,0,0,12,143.7,563.4)" />
<use xlink:href="#f0_21" transform="matrix(12,0,0,12,149.9,563.4)" />
<use xlink:href="#f0_2c" transform="matrix(12,0,0,12,158,563.4)" />
<use xlink:href="#f0_2e" transform="matrix(12,0,0,12,167.1,563.4)" />
<use xlink:href="#f0_21" transform="matrix(12,0,0,12,173.5,563.4)" />
<use xlink:href="#f0_2f" transform="matrix(12,0,0,12,181.6,563.4)" />
<use xlink:href="#f0_21" transform="matrix(12,0,0,12,188.5,563.4)" />
<use xlink:href="#f0_2a" transform="matrix(12,0,0,12,197,563.4)" />
<use xlink:href="#f0_2g" transform="matrix(12,0,0,12,205.8,563.4)" />
<use xlink:href="#f0_2f" transform="matrix(12,0,0,12,211.2,563.4)" />
<use xlink:href="#f0_21" transform="matrix(12,0,0,12,223,563.4)" />
<use xlink:href="#f0_1x" transform="matrix(12,0,0,12,231,563.4)" />
<use xlink:href="#f0_2e" transform="matrix(12,0,0,12,239.1,563.4)" />
<use xlink:href="#f0_i" transform="matrix(12,0,0,12,245.3,563.4)" />
</g>
</g>
<path fill-rule="evenodd" d="M52.8,588.7H856.9V567.4H52.8v21.3Z" class="g0_70" />
<g clip-path="url(#c0_70)">
<g fill="#000000" >
<use xlink:href="#f0_1c" transform="matrix(12,0,0,12,55,584.3)" />
<use xlink:href="#f0_25" transform="matrix(12,0,0,12,66.4,584.3)" />
<use xlink:href="#f0_29" transform="matrix(12,0,0,12,71.2,584.3)" />
<use xlink:href="#f0_1y" transform="matrix(12,0,0,12,85.1,584.3)" />
<use xlink:href="#f0_2f" transform="matrix(12,0,0,12,94.3,584.3)" />
<use xlink:href="#f0_2j" transform="matrix(12,0,0,12,106,584.3)" />
<use xlink:href="#f0_24" transform="matrix(12,0,0,12,119.5,584.3)" />
<use xlink:href="#f0_21" transform="matrix(12,0,0,12,128.7,584.3)" />
<use xlink:href="#f0_2a" transform="matrix(12,0,0,12,137.1,584.3)" />
<use xlink:href="#f0_2c" transform="matrix(12,0,0,12,150.6,584.3)" />
<use xlink:href="#f0_2e" transform="matrix(12,0,0,12,159.8,584.3)" />
<use xlink:href="#f0_21" transform="matrix(12,0,0,12,166,584.3)" />
<use xlink:href="#f0_2f" transform="matrix(12,0,0,12,174.1,584.3)" />
<use xlink:href="#f0_21" transform="matrix(12,0,0,12,181.1,584.3)" />
<use xlink:href="#f0_2a" transform="matrix(12,0,0,12,189.5,584.3)" />
<use xlink:href="#f0_2g" transform="matrix(12,0,0,12,198.3,584.3)" />
<use xlink:href="#f0_1x" transform="matrix(12,0,0,12,208.5,584.3)" />
<use xlink:href="#f0_2e" transform="matrix(12,0,0,12,216.6,584.3)" />
<use xlink:href="#f0_21" transform="matrix(12,0,0,12,222.8,584.3)" />
<use xlink:href="#f0_2g" transform="matrix(12,0,0,12,234.9,584.3)" />
<use xlink:href="#f0_2j" transform="matrix(12,0,0,12,240.4,584.3)" />
<use xlink:href="#f0_2b" transform="matrix(12,0,0,12,253.2,584.3)" />
<use xlink:href="#f0_2c" transform="matrix(12,0,0,12,267.5,584.3)" />
<use xlink:href="#f0_1x" transform="matrix(12,0,0,12,276.6,584.3)" />
<use xlink:href="#f0_25" transform="matrix(12,0,0,12,284.7,584.3)" />
<use xlink:href="#f0_2e" transform="matrix(12,0,0,12,289.1,584.3)" />
<use xlink:href="#f0_2f" transform="matrix(12,0,0,12,295.3,584.3)" />
<use xlink:href="#f0_i" transform="matrix(12,0,0,12,302.3,584.3)" />
</g>
</g>
<path fill-rule="evenodd" d="M52.8,609.6H856.9V588.7H52.8v20.9Z" class="g0_70" />
<g clip-path="url(#c0_70)">
<g fill="#000000" >
<use xlink:href="#f0_1d" transform="matrix(12,0,0,12,55,605.5)" />
<use xlink:href="#f0_2b" transform="matrix(12,0,0,12,71.2,605.5)" />
<use xlink:href="#f0_2f" transform="matrix(12,0,0,12,80.7,605.5)" />
<use xlink:href="#f0_2g" transform="matrix(12,0,0,12,87.7,605.5)" />
<use xlink:href="#f0_28" transform="matrix(12,0,0,12,93.1,605.5)" />
<use xlink:href="#f0_2l" transform="matrix(12,0,0,12,97.9,605.5)" />
<use xlink:href="#f0_2g" transform="matrix(12,0,0,12,111.1,605.5)" />
<use xlink:href="#f0_24" transform="matrix(12,0,0,12,116.6,605.5)" />
<use xlink:href="#f0_2e" transform="matrix(12,0,0,12,125.4,605.5)" />
<use xlink:href="#f0_21" transform="matrix(12,0,0,12,131.6,605.5)" />
<use xlink:href="#f0_21" transform="matrix(12,0,0,12,139.6,605.5)" />
<use xlink:href="#f0_1z" transform="matrix(12,0,0,12,152.5,605.5)" />
<use xlink:href="#f0_24" transform="matrix(12,0,0,12,160.9,605.5)" />
<use xlink:href="#f0_1x" transform="matrix(12,0,0,12,169.7,605.5)" />
<use xlink:href="#f0_29" transform="matrix(12,0,0,12,178.1,605.5)" />
<use xlink:href="#f0_1y" transform="matrix(12,0,0,12,192,605.5)" />
<use xlink:href="#f0_21" transform="matrix(12,0,0,12,201.2,605.5)" />
<use xlink:href="#f0_2e" transform="matrix(12,0,0,12,209.3,605.5)" />
<use xlink:href="#f0_21" transform="matrix(12,0,0,12,215.5,605.5)" />
<use xlink:href="#f0_20" transform="matrix(12,0,0,12,223.5,605.5)" />
<use xlink:href="#f0_24" transform="matrix(12,0,0,12,237.5,605.5)" />
<use xlink:href="#f0_21" transform="matrix(12,0,0,12,246.6,605.5)" />
<use xlink:href="#f0_1x" transform="matrix(12,0,0,12,254.7,605.5)" />
<use xlink:href="#f0_2e" transform="matrix(12,0,0,12,262.8,605.5)" />
<use xlink:href="#f0_2g" transform="matrix(12,0,0,12,269,605.5)" />
<use xlink:href="#f0_1y" transform="matrix(12,0,0,12,279.2,605.5)" />
<use xlink:href="#f0_2h" transform="matrix(12,0,0,12,288,605.5)" />
<use xlink:href="#f0_2g" transform="matrix(12,0,0,12,297.2,605.5)" />
<use xlink:href="#f0_o" transform="matrix(12,0,0,12,307,605.5)" />
<use xlink:href="#f0_h" transform="matrix(12,0,0,12,316.5,605.5)" />
<use xlink:href="#f0_1z" transform="matrix(12,0,0,12,322.8,605.5)" />
<use xlink:href="#f0_24" transform="matrix(12,0,0,12,330.8,605.5)" />
<use xlink:href="#f0_1x" transform="matrix(12,0,0,12,339.6,605.5)" />
<use xlink:href="#f0_29" transform="matrix(12,0,0,12,348.1,605.5)" />
<use xlink:href="#f0_1y" transform="matrix(12,0,0,12,362,605.5)" />
<use xlink:href="#f0_21" transform="matrix(12,0,0,12,370.8,605.5)" />
<use xlink:href="#f0_2e" transform="matrix(12,0,0,12,378.9,605.5)" />
<use xlink:href="#f0_21" transform="matrix(12,0,0,12,385.1,605.5)" />
<use xlink:href="#f0_20" transform="matrix(12,0,0,12,393.1,605.5)" />
<use xlink:href="#f0_25" transform="matrix(12,0,0,12,407.4,605.5)" />
<use xlink:href="#f0_2a" transform="matrix(12,0,0,12,412.2,605.5)" />
<use xlink:href="#f0_1z" transform="matrix(12,0,0,12,426.1,605.5)" />
<use xlink:href="#f0_2e" transform="matrix(12,0,0,12,434.2,605.5)" />
<use xlink:href="#f0_2b" transform="matrix(12,0,0,12,440.4,605.5)" />
<use xlink:href="#f0_1z" transform="matrix(12,0,0,12,449.9,605.5)" />
<use xlink:href="#f0_2b" transform="matrix(12,0,0,12,457.6,605.5)" />
<use xlink:href="#f0_20" transform="matrix(12,0,0,12,467.1,605.5)" />
<use xlink:href="#f0_25" transform="matrix(12,0,0,12,476.3,605.5)" />
<use xlink:href="#f0_28" transform="matrix(12,0,0,12,481,605.5)" />
<use xlink:href="#f0_21" transform="matrix(12,0,0,12,485.8,605.5)" />
<use xlink:href="#f0_2f" transform="matrix(12,0,0,12,493.9,605.5)" />
<use xlink:href="#f0_i" transform="matrix(12,0,0,12,500.8,605.5)" />
</g>
</g>
<path fill-rule="evenodd" d="M52.8,630.8H856.9V609.5H52.8v21.3Z" class="g0_70" />
<g clip-path="url(#c0_70)">
<g fill="#000000" >
<use xlink:href="#f0_1j" transform="matrix(12,0,0,12,55,626.4)" />
<use xlink:href="#f0_2a" transform="matrix(12,0,0,12,65.3,626.4)" />
<use xlink:href="#f0_1x" transform="matrix(12,0,0,12,74.1,626.4)" />
<use xlink:href="#f0_27" transform="matrix(12,0,0,12,82.2,626.4)" />
<use xlink:href="#f0_21" transform="matrix(12,0,0,12,91.3,626.4)" />
<use xlink:href="#f0_2f" transform="matrix(12,0,0,12,99.7,626.4)" />
<use xlink:href="#f0_1x" transform="matrix(12,0,0,12,111.4,626.4)" />
<use xlink:href="#f0_2a" transform="matrix(12,0,0,12,119.5,626.4)" />
<use xlink:href="#f0_20" transform="matrix(12,0,0,12,128.3,626.4)" />
<use xlink:href="#f0_28" transform="matrix(12,0,0,12,142.6,626.4)" />
<use xlink:href="#f0_25" transform="matrix(12,0,0,12,147.7,626.4)" />
<use xlink:href="#f0_2m" transform="matrix(12,0,0,12,152.5,626.4)" />
<use xlink:href="#f0_1x" transform="matrix(12,0,0,12,160.6,626.4)" />
<use xlink:href="#f0_2e" transform="matrix(12,0,0,12,168.6,626.4)" />
<use xlink:href="#f0_20" transform="matrix(12,0,0,12,174.8,626.4)" />
<use xlink:href="#f0_2f" transform="matrix(12,0,0,12,184,626.4)" />
<use xlink:href="#f0_2f" transform="matrix(12,0,0,12,195.7,626.4)" />
<use xlink:href="#f0_24" transform="matrix(12,0,0,12,203,626.4)" />
<use xlink:href="#f0_21" transform="matrix(12,0,0,12,211.8,626.4)" />
<use xlink:href="#f0_20" transform="matrix(12,0,0,12,219.9,626.4)" />
<use xlink:href="#f0_2f" transform="matrix(12,0,0,12,233.8,626.4)" />
<use xlink:href="#f0_1z" transform="matrix(12,0,0,12,240.8,626.4)" />
<use xlink:href="#f0_1x" transform="matrix(12,0,0,12,249.2,626.4)" />
<use xlink:href="#f0_28" transform="matrix(12,0,0,12,257.6,626.4)" />
<use xlink:href="#f0_21" transform="matrix(12,0,0,12,262.4,626.4)" />
<use xlink:href="#f0_2f" transform="matrix(12,0,0,12,270.5,626.4)" />
<use xlink:href="#f0_1x" transform="matrix(12,0,0,12,282.2,626.4)" />
<use xlink:href="#f0_2f" transform="matrix(12,0,0,12,290.2,626.4)" />
<use xlink:href="#f0_2f" transform="matrix(12,0,0,12,301.9,626.4)" />
<use xlink:href="#f0_27" transform="matrix(12,0,0,12,308.9,626.4)" />
<use xlink:href="#f0_25" transform="matrix(12,0,0,12,318.4,626.4)" />
<use xlink:href="#f0_2a" transform="matrix(12,0,0,12,323.2,626.4)" />
<use xlink:href="#f0_1z" transform="matrix(12,0,0,12,337.1,626.4)" />
<use xlink:href="#f0_1x" transform="matrix(12,0,0,12,345.2,626.4)" />
<use xlink:href="#f0_2f" transform="matrix(12,0,0,12,353.2,626.4)" />
<use xlink:href="#f0_2g" transform="matrix(12,0,0,12,360.2,626.4)" />
<use xlink:href="#f0_i" transform="matrix(12,0,0,12,365.7,626.4)" />
</g>
</g>
<path fill-rule="evenodd" d="M52.8,651.7H856.9V630.8H52.8v20.9Z" class="g0_70" />
<g clip-path="url(#c0_70)">
<g fill="#000000" >
<use xlink:href="#f0_1g" transform="matrix(12,0,0,12,55,647.7)" />
<use xlink:href="#f0_2b" transform="matrix(12,0,0,12,65.3,647.7)" />
<use xlink:href="#f0_25" transform="matrix(12,0,0,12,74.8,647.7)" />
<use xlink:href="#f0_27" transform="matrix(12,0,0,12,79.2,647.7)" />
<use xlink:href="#f0_25" transform="matrix(12,0,0,12,88.7,647.7)" />
<use xlink:href="#f0_28" transform="matrix(12,0,0,12,93.5,647.7)" />
<use xlink:href="#f0_2b" transform="matrix(12,0,0,12,97.9,647.7)" />
<use xlink:href="#f0_2g" transform="matrix(12,0,0,12,107.4,647.7)" />
<use xlink:href="#f0_24" transform="matrix(12,0,0,12,112.9,647.7)" />
<use xlink:href="#f0_21" transform="matrix(12,0,0,12,122,647.7)" />
<use xlink:href="#f0_2e" transform="matrix(12,0,0,12,130.1,647.7)" />
<use xlink:href="#f0_29" transform="matrix(12,0,0,12,136.7,647.7)" />
<use xlink:href="#f0_i" transform="matrix(12,0,0,12,150.3,647.7)" />
</g>
</g>
<path fill-rule="evenodd" d="M52.8,673H856.9V651.7H52.8V673Z" class="g0_70" />
<g clip-path="url(#c0_70)">
<g fill="#000000" >
<use xlink:href="#f0_1j" transform="matrix(12,0,0,12,55,668.6)" />
<use xlink:href="#f0_21" transform="matrix(12,0,0,12,65.3,668.6)" />
<use xlink:href="#f0_2k" transform="matrix(12,0,0,12,73.4,668.6)" />
<use xlink:href="#f0_21" transform="matrix(12,0,0,12,82.2,668.6)" />
<use xlink:href="#f0_2f" transform="matrix(12,0,0,12,90.6,668.6)" />
<use xlink:href="#f0_1x" transform="matrix(12,0,0,12,102.3,668.6)" />
<use xlink:href="#f0_2e" transform="matrix(12,0,0,12,110.3,668.6)" />
<use xlink:href="#f0_21" transform="matrix(12,0,0,12,116.6,668.6)" />
<use xlink:href="#f0_2f" transform="matrix(12,0,0,12,129.4,668.6)" />
<use xlink:href="#f0_21" transform="matrix(12,0,0,12,136.3,668.6)" />
<use xlink:href="#f0_2c" transform="matrix(12,0,0,12,144.4,668.6)" />
<use xlink:href="#f0_1x" transform="matrix(12,0,0,12,153.6,668.6)" />
<use xlink:href="#f0_2e" transform="matrix(12,0,0,12,161.6,668.6)" />
<use xlink:href="#f0_1x" transform="matrix(12,0,0,12,167.9,668.6)" />
<use xlink:href="#f0_2g" transform="matrix(12,0,0,12,175.9,668.6)" />
<use xlink:href="#f0_21" transform="matrix(12,0,0,12,181.4,668.6)" />
<use xlink:href="#f0_i" transform="matrix(12,0,0,12,189.5,668.6)" />
</g>
</g>
<path fill-rule="evenodd" d="M52.8,916.2H856.9V673H52.8V916.2Z" class="g0_70" />
<image preserveAspectRatio="none" x="55" y="673" width="395" height="243" xlink:href="img/2.png" />
<path fill-rule="evenodd" d="M52.8,937.5H856.9V916.2H52.8v21.3Z" class="g0_70" />
<path fill-rule="evenodd" d="M52.8,958.4H856.9V937.5H52.8v20.9Z" class="g0_70" />
<g clip-path="url(#c0_70)">
<g fill="#000000" >
<use xlink:href="#f0_16" transform="matrix(12,0,0,12,55,954.3)" />
<use xlink:href="#f0_21" transform="matrix(12,0,0,12,64.9,954.3)" />
<use xlink:href="#f0_2e" transform="matrix(12,0,0,12,73,954.3)" />
<use xlink:href="#f0_2g" transform="matrix(12,0,0,12,79.2,954.3)" />
<use xlink:href="#f0_25" transform="matrix(12,0,0,12,84.7,954.3)" />
<use xlink:href="#f0_28" transform="matrix(12,0,0,12,89.5,954.3)" />
<use xlink:href="#f0_25" transform="matrix(12,0,0,12,94.6,954.3)" />
<use xlink:href="#f0_2m" transform="matrix(12,0,0,12,99.4,954.3)" />
<use xlink:href="#f0_1x" transform="matrix(12,0,0,12,107.8,954.3)" />
<use xlink:href="#f0_2g" transform="matrix(12,0,0,12,115.8,954.3)" />
<use xlink:href="#f0_25" transform="matrix(12,0,0,12,121.3,954.3)" />
<use xlink:href="#f0_2b" transform="matrix(12,0,0,12,125.7,954.3)" />
<use xlink:href="#f0_2a" transform="matrix(12,0,0,12,135.2,954.3)" />
<use xlink:href="#f0_25" transform="matrix(12,0,0,12,149.3,954.3)" />
<use xlink:href="#f0_2f" transform="matrix(12,0,0,12,154.1,954.3)" />
<use xlink:href="#f0_25" transform="matrix(12,0,0,12,166.2,954.3)" />
<use xlink:href="#f0_2a" transform="matrix(12,0,0,12,170.9,954.3)" />
<use xlink:href="#f0_2g" transform="matrix(12,0,0,12,179.7,954.3)" />
<use xlink:href="#f0_21" transform="matrix(12,0,0,12,185.2,954.3)" />
<use xlink:href="#f0_2e" transform="matrix(12,0,0,12,193.3,954.3)" />
<use xlink:href="#f0_2a" transform="matrix(12,0,0,12,199.5,954.3)" />
<use xlink:href="#f0_1x" transform="matrix(12,0,0,12,208.3,954.3)" />
<use xlink:href="#f0_28" transform="matrix(12,0,0,12,216.7,954.3)" />
<use xlink:href="#f0_i" transform="matrix(12,0,0,12,221.5,954.3)" />
</g>
</g>
<path fill-rule="evenodd" d="M52.8,979.3H856.9V958.4H52.8v20.9Z" class="g0_70" />
<g clip-path="url(#c0_70)">
<g fill="#000000" >
<use xlink:href="#f0_1f" transform="matrix(12,0,0,12,55,975.2)" />
<use xlink:href="#f0_2i" transform="matrix(12,0,0,12,68.3,975.2)" />
<use xlink:href="#f0_25" transform="matrix(12,0,0,12,77.4,975.2)" />
<use xlink:href="#f0_2c" transform="matrix(12,0,0,12,82.2,975.2)" />
<use xlink:href="#f0_1x" transform="matrix(12,0,0,12,91.3,975.2)" />
<use xlink:href="#f0_2e" transform="matrix(12,0,0,12,99.4,975.2)" />
<use xlink:href="#f0_2b" transform="matrix(12,0,0,12,105.6,975.2)" />
<use xlink:href="#f0_2h" transform="matrix(12,0,0,12,115.1,975.2)" />
<use xlink:href="#f0_2f" transform="matrix(12,0,0,12,124.3,975.2)" />
<use xlink:href="#f0_g" transform="matrix(12,0,0,12,131.3,975.2)" />
<use xlink:href="#f0_14" transform="matrix(12,0,0,12,140.8,975.2)" />
<use xlink:href="#f0_25" transform="matrix(12,0,0,12,154.1,975.2)" />
<use xlink:href="#f0_2e" transform="matrix(12,0,0,12,158.4,975.2)" />
<use xlink:href="#f0_21" transform="matrix(12,0,0,12,164.7,975.2)" />
<use xlink:href="#f0_1z" transform="matrix(12,0,0,12,172.7,975.2)" />
<use xlink:href="#f0_2g" transform="matrix(12,0,0,12,180.8,975.2)" />
<use xlink:href="#f0_20" transform="matrix(12,0,0,12,191,975.2)" />
<use xlink:href="#f0_21" transform="matrix(12,0,0,12,200.2,975.2)" />
<use xlink:href="#f0_2i" transform="matrix(12,0,0,12,208.2,975.2)" />
<use xlink:href="#f0_21" transform="matrix(12,0,0,12,217,975.2)" />
<use xlink:href="#f0_28" transform="matrix(12,0,0,12,225.5,975.2)" />
<use xlink:href="#f0_2b" transform="matrix(12,0,0,12,229.9,975.2)" />
<use xlink:href="#f0_2c" transform="matrix(12,0,0,12,239.4,975.2)" />
<use xlink:href="#f0_29" transform="matrix(12,0,0,12,248.9,975.2)" />
<use xlink:href="#f0_21" transform="matrix(12,0,0,12,262.8,975.2)" />
<use xlink:href="#f0_2a" transform="matrix(12,0,0,12,271.2,975.2)" />
<use xlink:href="#f0_2g" transform="matrix(12,0,0,12,280,975.2)" />
<use xlink:href="#f0_i" transform="matrix(12,0,0,12,285.5,975.2)" />
</g>
<g fill="#231F20" >
<use xlink:href="#f0_15" transform="matrix(12,0,0,12,55,996.1)" />
<use xlink:href="#f0_2k" transform="matrix(12,0,0,12,66.4,996.1)" />
<use xlink:href="#f0_1x" transform="matrix(12,0,0,12,75.2,996.1)" />
<use xlink:href="#f0_29" transform="matrix(12,0,0,12,83.6,996.1)" />
<use xlink:href="#f0_2c" transform="matrix(12,0,0,12,97.5,996.1)" />
<use xlink:href="#f0_28" transform="matrix(12,0,0,12,107,996.1)" />
<use xlink:href="#f0_21" transform="matrix(12,0,0,12,111.8,996.1)" />
<use xlink:href="#f0_2f" transform="matrix(12,0,0,12,119.9,996.1)" />
<use xlink:href="#f0_u" transform="matrix(12,0,0,12,126.8,996.1)" />
<use xlink:href="#f1_13" transform="matrix(12,0,0,12,144.1,996.1)" />
<use xlink:href="#f1_24" transform="matrix(12,0,0,12,156.2,996.1)" />
<use xlink:href="#f1_21" transform="matrix(12,0,0,12,165.4,996.1)" />
<use xlink:href="#f1_28" transform="matrix(12,0,0,12,173.5,996.1)" />
<use xlink:href="#f1_2b" transform="matrix(12,0,0,12,178.6,996.1)" />
<use xlink:href="#f1_2a" transform="matrix(12,0,0,12,187.7,996.1)" />
<use xlink:href="#f1_21" transform="matrix(12,0,0,12,196.9,996.1)" />
<use xlink:href="#f0_c" transform="matrix(12,0,0,12,217.1,996.1)" />
<use xlink:href="#f0_1k" transform="matrix(12,0,0,12,223.4,996.1)" />
<use xlink:href="#f0_2h" transform="matrix(12,0,0,12,234.7,996.1)" />
<use xlink:href="#f0_2e" transform="matrix(12,0,0,12,243.9,996.1)" />
<use xlink:href="#f0_2g" transform="matrix(12,0,0,12,249.7,996.1)" />
<use xlink:href="#f0_28" transform="matrix(12,0,0,12,255.2,996.1)" />
<use xlink:href="#f0_21" transform="matrix(12,0,0,12,260,996.1)" />
<use xlink:href="#f0_d" transform="matrix(12,0,0,12,268.1,996.1)" />
<use xlink:href="#f0_g" transform="matrix(12,0,0,12,274.3,996.1)" />
<use xlink:href="#f1_1k" transform="matrix(12,0,0,12,291.2,996.1)" />
<use xlink:href="#f1_21" transform="matrix(12,0,0,12,301.5,996.1)" />
<use xlink:href="#f1_2f" transform="matrix(12,0,0,12,309.6,996.1)" />
<use xlink:href="#f1_2g" transform="matrix(12,0,0,12,316.5,996.1)" />
<use xlink:href="#f1_2h" transform="matrix(12,0,0,12,321.6,996.1)" />
<use xlink:href="#f1_20" transform="matrix(12,0,0,12,330.8,996.1)" />
<use xlink:href="#f1_2b" transform="matrix(12,0,0,12,340,996.1)" />
<use xlink:href="#f0_c" transform="matrix(12,0,0,12,361.3,996.1)" />
<use xlink:href="#f0_1k" transform="matrix(12,0,0,12,367.2,996.1)" />
<use xlink:href="#f0_2b" transform="matrix(12,0,0,12,378.2,996.1)" />
<use xlink:href="#f0_2e" transform="matrix(12,0,0,12,387.7,996.1)" />
<use xlink:href="#f0_2g" transform="matrix(12,0,0,12,393.6,996.1)" />
<use xlink:href="#f0_2b" transform="matrix(12,0,0,12,398.7,996.1)" />
<use xlink:href="#f0_25" transform="matrix(12,0,0,12,408.2,996.1)" />
<use xlink:href="#f0_2f" transform="matrix(12,0,0,12,412.6,996.1)" />
<use xlink:href="#f0_21" transform="matrix(12,0,0,12,419.6,996.1)" />
<use xlink:href="#f0_d" transform="matrix(12,0,0,12,428,996.1)" />
<use xlink:href="#f0_g" transform="matrix(12,0,0,12,434.2,996.1)" />
<use xlink:href="#f1_13" transform="matrix(12,0,0,12,451.2,996.1)" />
<use xlink:href="#f1_24" transform="matrix(12,0,0,12,463.3,996.1)" />
<use xlink:href="#f1_1x" transform="matrix(12,0,0,12,472.5,996.1)" />
<use xlink:href="#f1_29" transform="matrix(12,0,0,12,481.6,996.1)" />
<use xlink:href="#f1_21" transform="matrix(12,0,0,12,494.9,996.1)" />
<use xlink:href="#f1_28" transform="matrix(12,0,0,12,502.9,996.1)" />
<use xlink:href="#f1_21" transform="matrix(12,0,0,12,508,996.1)" />
<use xlink:href="#f1_2b" transform="matrix(12,0,0,12,516.1,996.1)" />
<use xlink:href="#f1_2a" transform="matrix(12,0,0,12,525.3,996.1)" />
<use xlink:href="#f0_c" transform="matrix(12,0,0,12,546.5,996.1)" />
<use xlink:href="#f0_1k" transform="matrix(12,0,0,12,552.4,996.1)" />
<use xlink:href="#f0_2e" transform="matrix(12,0,0,12,563.8,996.1)" />
<use xlink:href="#f0_21" transform="matrix(12,0,0,12,570,996.1)" />
<use xlink:href="#f0_21" transform="matrix(12,0,0,12,578,996.1)" />
<use xlink:href="#f0_28" transform="matrix(12,0,0,12,598.2,996.1)" />
<use xlink:href="#f0_25" transform="matrix(12,0,0,12,603,996.1)" />
<use xlink:href="#f0_2m" transform="matrix(12,0,0,12,607.7,996.1)" />
<use xlink:href="#f0_1x" transform="matrix(12,0,0,12,615.8,996.1)" />
<use xlink:href="#f0_2e" transform="matrix(12,0,0,12,623.9,996.1)" />
<use xlink:href="#f0_20" transform="matrix(12,0,0,12,630.1,996.1)" />
<use xlink:href="#f0_d" transform="matrix(12,0,0,12,639.2,996.1)" />
<use xlink:href="#f0_g" transform="matrix(12,0,0,12,645.5,996.1)" />
<use xlink:href="#f1_13" transform="matrix(12,0,0,12,662.5,996.1)" />
<use xlink:href="#f1_1x" transform="matrix(12,0,0,12,674.6,996.1)" />
<use xlink:href="#f1_28" transform="matrix(12,0,0,12,683.7,996.1)" />
<use xlink:href="#f1_2b" transform="matrix(12,0,0,12,688.8,996.1)" />
<use xlink:href="#f1_2g" transform="matrix(12,0,0,12,698,996.1)" />
<use xlink:href="#f1_21" transform="matrix(12,0,0,12,703.1,996.1)" />
<use xlink:href="#f1_2f" transform="matrix(12,0,0,12,711.2,996.1)" />
<use xlink:href="#f0_c" transform="matrix(12,0,0,12,730.3,996.1)" />
<use xlink:href="#f0_17" transform="matrix(12,0,0,12,736.5,996.1)" />
<use xlink:href="#f0_1x" transform="matrix(12,0,0,12,749.8,996.1)" />
<use xlink:href="#f0_2e" transform="matrix(12,0,0,12,757.8,996.1)" />
<use xlink:href="#f0_20" transform="matrix(12,0,0,12,764,996.1)" />
<use xlink:href="#f0_21" transform="matrix(12,0,0,12,773.2,996.1)" />
<use xlink:href="#f0_2a" transform="matrix(12,0,0,12,781.3,996.1)" />
<use xlink:href="#f0_28" transform="matrix(12,0,0,12,802.1,996.1)" />
<use xlink:href="#f0_25" transform="matrix(12,0,0,12,807.2,996.1)" />
<use xlink:href="#f0_2m" transform="matrix(12,0,0,12,812,996.1)" />
<use xlink:href="#f0_1x" transform="matrix(12,0,0,12,820.1,996.1)" />
<use xlink:href="#f0_2e" transform="matrix(12,0,0,12,828.2,996.1)" />
<use xlink:href="#f0_20" transform="matrix(12,0,0,12,834.4,996.1)" />
<use xlink:href="#f0_d" transform="matrix(12,0,0,12,843.6,996.1)" />
<use xlink:href="#f0_g" transform="matrix(12,0,0,12,849.8,996.1)" />
<use xlink:href="#f1_13" transform="matrix(12,0,0,12,55,1017.4)" />
<use xlink:href="#f1_2e" transform="matrix(12,0,0,12,67.1,1017.4)" />
<use xlink:href="#f1_2b" transform="matrix(12,0,0,12,74.1,1017.4)" />
<use xlink:href="#f1_1z" transform="matrix(12,0,0,12,83.3,1017.4)" />
<use xlink:href="#f1_2b" transform="matrix(12,0,0,12,91.3,1017.4)" />
<use xlink:href="#f1_20" transform="matrix(12,0,0,12,100.5,1017.4)" />
<use xlink:href="#f1_25" transform="matrix(12,0,0,12,109.7,1017.4)" />
<use xlink:href="#f1_28" transform="matrix(12,0,0,12,114.8,1017.4)" />
<use xlink:href="#f1_2h" transform="matrix(12,0,0,12,119.9,1017.4)" />
<use xlink:href="#f1_2f" transform="matrix(12,0,0,12,129.1,1017.4)" />
<use xlink:href="#f0_c" transform="matrix(12,0,0,12,140.8,1017.4)" />
<use xlink:href="#f0_13" transform="matrix(12,0,0,12,147.1,1017.4)" />
<use xlink:href="#f0_2e" transform="matrix(12,0,0,12,159.2,1017.4)" />
<use xlink:href="#f0_2b" transform="matrix(12,0,0,12,165.4,1017.4)" />
<use xlink:href="#f0_1z" transform="matrix(12,0,0,12,174.9,1017.4)" />
<use xlink:href="#f0_2b" transform="matrix(12,0,0,12,182.9,1017.4)" />
<use xlink:href="#f0_20" transform="matrix(12,0,0,12,192.5,1017.4)" />
<use xlink:href="#f0_25" transform="matrix(12,0,0,12,201.6,1017.4)" />
<use xlink:href="#f0_28" transform="matrix(12,0,0,12,206.4,1017.4)" />
<use xlink:href="#f0_21" transform="matrix(12,0,0,12,211.2,1017.4)" />
<use xlink:href="#f0_d" transform="matrix(12,0,0,12,219.2,1017.4)" />
<use xlink:href="#f0_g" transform="matrix(12,0,0,12,225.4,1017.4)" />
<use xlink:href="#f1_11" transform="matrix(12,0,0,12,235.1,1017.4)" />
<use xlink:href="#f1_28" transform="matrix(12,0,0,12,246.5,1017.4)" />
<use xlink:href="#f1_28" transform="matrix(12,0,0,12,251.6,1017.4)" />
<use xlink:href="#f1_25" transform="matrix(12,0,0,12,256.7,1017.4)" />
<use xlink:href="#f1_23" transform="matrix(12,0,0,12,261.8,1017.4)" />
<use xlink:href="#f1_1x" transform="matrix(12,0,0,12,271,1017.4)" />
<use xlink:href="#f1_2g" transform="matrix(12,0,0,12,280.1,1017.4)" />
<use xlink:href="#f1_2b" transform="matrix(12,0,0,12,285.3,1017.4)" />
<use xlink:href="#f1_2e" transform="matrix(12,0,0,12,294.5,1017.4)" />
<use xlink:href="#f0_c" transform="matrix(12,0,0,12,305.9,1017.4)" />
<use xlink:href="#f0_11" transform="matrix(12,0,0,12,312.1,1017.4)" />
<use xlink:href="#f0_28" transform="matrix(12,0,0,12,325.4,1017.4)" />
<use xlink:href="#f0_28" transform="matrix(12,0,0,12,330.1,1017.4)" />
<use xlink:href="#f0_25" transform="matrix(12,0,0,12,335.2,1017.4)" />
<use xlink:href="#f0_23" transform="matrix(12,0,0,12,340,1017.4)" />
<use xlink:href="#f0_1x" transform="matrix(12,0,0,12,349.2,1017.4)" />
<use xlink:href="#f0_2g" transform="matrix(12,0,0,12,357.2,1017.4)" />
<use xlink:href="#f0_2b" transform="matrix(12,0,0,12,362.7,1017.4)" />
<use xlink:href="#f0_2e" transform="matrix(12,0,0,12,372.2,1017.4)" />
<use xlink:href="#f0_d" transform="matrix(12,0,0,12,378.1,1017.4)" />
<use xlink:href="#f0_g" transform="matrix(12,0,0,12,384.3,1017.4)" />
<use xlink:href="#f1_18" transform="matrix(12,0,0,12,394,1017.4)" />
<use xlink:href="#f1_21" transform="matrix(12,0,0,12,407.2,1017.4)" />
<use xlink:href="#f1_29" transform="matrix(12,0,0,12,415.2,1017.4)" />
<use xlink:href="#f1_25" transform="matrix(12,0,0,12,428.1,1017.4)" />
<use xlink:href="#f1_20" transform="matrix(12,0,0,12,433.1,1017.4)" />
<use xlink:href="#f1_1x" transform="matrix(12,0,0,12,442.3,1017.4)" />
<use xlink:href="#f1_1z" transform="matrix(12,0,0,12,451.5,1017.4)" />
<use xlink:href="#f1_2g" transform="matrix(12,0,0,12,459.6,1017.4)" />
<use xlink:href="#f1_2l" transform="matrix(12,0,0,12,464.7,1017.4)" />
<use xlink:href="#f1_28" transform="matrix(12,0,0,12,472.8,1017.4)" />
<use xlink:href="#f1_2h" transform="matrix(12,0,0,12,477.9,1017.4)" />
<use xlink:href="#f1_2f" transform="matrix(12,0,0,12,487,1017.4)" />
<use xlink:href="#f0_c" transform="matrix(12,0,0,12,498.9,1017.4)" />
<use xlink:href="#f0_1n" transform="matrix(12,0,0,12,505.1,1017.4)" />
<use xlink:href="#f0_1x" transform="matrix(12,0,0,12,521.9,1017.4)" />
<use xlink:href="#f0_28" transform="matrix(12,0,0,12,530.3,1017.4)" />
<use xlink:href="#f0_28" transform="matrix(12,0,0,12,535.4,1017.4)" />
<use xlink:href="#f0_28" transform="matrix(12,0,0,12,545.4,1017.4)" />
<use xlink:href="#f0_25" transform="matrix(12,0,0,12,550.1,1017.4)" />
<use xlink:href="#f0_2m" transform="matrix(12,0,0,12,554.9,1017.4)" />
<use xlink:href="#f0_1x" transform="matrix(12,0,0,12,563.3,1017.4)" />
<use xlink:href="#f0_2e" transform="matrix(12,0,0,12,571.4,1017.4)" />
<use xlink:href="#f0_20" transform="matrix(12,0,0,12,577.6,1017.4)" />
<use xlink:href="#f0_d" transform="matrix(12,0,0,12,586.8,1017.4)" />
<use xlink:href="#f0_g" transform="matrix(12,0,0,12,593,1017.4)" />
<use xlink:href="#f0_1g" transform="matrix(12,0,0,12,602.5,1017.4)" />
<use xlink:href="#f0_2b" transform="matrix(12,0,0,12,612.4,1017.4)" />
<use xlink:href="#f0_25" transform="matrix(12,0,0,12,621.9,1017.4)" />
<use xlink:href="#f0_2f" transform="matrix(12,0,0,12,626.3,1017.4)" />
<use xlink:href="#f0_2b" transform="matrix(12,0,0,12,633.3,1017.4)" />
<use xlink:href="#f0_2a" transform="matrix(12,0,0,12,643,1017.4)" />
<use xlink:href="#f0_2b" transform="matrix(12,0,0,12,651.8,1017.4)" />
<use xlink:href="#f0_2h" transform="matrix(12,0,0,12,661.3,1017.4)" />
<use xlink:href="#f0_2f" transform="matrix(12,0,0,12,670.5,1017.4)" />
<use xlink:href="#f0_1j" transform="matrix(12,0,0,12,682.2,1017.4)" />
<use xlink:href="#f0_2a" transform="matrix(12,0,0,12,692.5,1017.4)" />
<use xlink:href="#f0_1x" transform="matrix(12,0,0,12,701.3,1017.4)" />
<use xlink:href="#f0_27" transform="matrix(12,0,0,12,709.4,1017.4)" />
<use xlink:href="#f0_21" transform="matrix(12,0,0,12,718.9,1017.4)" />
<use xlink:href="#f0_2f" transform="matrix(12,0,0,12,727,1017.4)" />
<use xlink:href="#f3_4y" transform="matrix(12,0,0,12,738.8,1017.4)" />
<use xlink:href="#f1_1e" transform="matrix(12,0,0,12,752.7,1017.4)" />
<use xlink:href="#f1_1x" transform="matrix(12,0,0,12,764.8,1017.4)" />
<use xlink:href="#f1_26" transform="matrix(12,0,0,12,774,1017.4)" />
<use xlink:href="#f1_1x" transform="matrix(12,0,0,12,779.1,1017.4)" />
<use xlink:href="#f0_c" transform="matrix(12,0,0,12,793,1017.4)" />
<use xlink:href="#f0_13" transform="matrix(12,0,0,12,799.2,1017.4)" />
<use xlink:href="#f0_2b" transform="matrix(12,0,0,12,811.3,1017.4)" />
<use xlink:href="#f0_1y" transform="matrix(12,0,0,12,820.9,1017.4)" />
<use xlink:href="#f0_2e" transform="matrix(12,0,0,12,829.7,1017.4)" />
<use xlink:href="#f0_1x" transform="matrix(12,0,0,12,835.9,1017.4)" />
<use xlink:href="#f0_d" transform="matrix(12,0,0,12,843.9,1017.4)" />
<use xlink:href="#f0_g" transform="matrix(12,0,0,12,850.2,1017.4)" />
<use xlink:href="#f1_12" transform="matrix(12,0,0,12,55,1038.3)" />
<use xlink:href="#f1_1x" transform="matrix(12,0,0,12,66.4,1038.3)" />
<use xlink:href="#f1_2a" transform="matrix(12,0,0,12,75.6,1038.3)" />
<use xlink:href="#f1_23" transform="matrix(12,0,0,12,84.7,1038.3)" />
<use xlink:href="#f1_1x" transform="matrix(12,0,0,12,93.9,1038.3)" />
<use xlink:href="#f1_2e" transform="matrix(12,0,0,12,103.1,1038.3)" />
<use xlink:href="#f1_2h" transform="matrix(12,0,0,12,110,1038.3)" />
<use xlink:href="#f1_2f" transform="matrix(12,0,0,12,119.2,1038.3)" />
<use xlink:href="#f0_c" transform="matrix(12,0,0,12,130.9,1038.3)" />
<use xlink:href="#f0_1b" transform="matrix(12,0,0,12,137.2,1038.3)" />
<use xlink:href="#f0_2e" transform="matrix(12,0,0,12,150,1038.3)" />
<use xlink:href="#f0_1x" transform="matrix(12,0,0,12,156.2,1038.3)" />
<use xlink:href="#f0_25" transform="matrix(12,0,0,12,164.6,1038.3)" />
<use xlink:href="#f0_2g" transform="matrix(12,0,0,12,169,1038.3)" />
<use xlink:href="#f0_d" transform="matrix(12,0,0,12,174.5,1038.3)" />
<use xlink:href="#f0_g" transform="matrix(12,0,0,12,180.7,1038.3)" />
<use xlink:href="#f1_1m" transform="matrix(12,0,0,12,190.4,1038.3)" />
<use xlink:href="#f1_25" transform="matrix(12,0,0,12,201.4,1038.3)" />
<use xlink:href="#f1_2c" transform="matrix(12,0,0,12,206.5,1038.3)" />
<use xlink:href="#f1_21" transform="matrix(12,0,0,12,215.6,1038.3)" />
<use xlink:href="#f1_2e" transform="matrix(12,0,0,12,223.8,1038.3)" />
<use xlink:href="#f1_1x" transform="matrix(12,0,0,12,230.7,1038.3)" />
<use xlink:href="#f0_c" transform="matrix(12,0,0,12,244.7,1038.3)" />
<use xlink:href="#f0_1m" transform="matrix(12,0,0,12,250.9,1038.3)" />
<use xlink:href="#f0_25" transform="matrix(12,0,0,12,264.1,1038.3)" />
<use xlink:href="#f0_2c" transform="matrix(12,0,0,12,268.5,1038.3)" />
<use xlink:href="#f0_21" transform="matrix(12,0,0,12,277.7,1038.3)" />
<use xlink:href="#f0_2e" transform="matrix(12,0,0,12,285.7,1038.3)" />
<use xlink:href="#f0_d" transform="matrix(12,0,0,12,291.9,1038.3)" />
<use xlink:href="#f0_i" transform="matrix(12,0,0,12,298.2,1038.3)" />
</g>
</g>
<path fill-rule="evenodd" d="M52.8,1063.6H856.9v-20.9H52.8v20.9Z" class="g0_70" />
<path fill-rule="evenodd" d="M52.8,1084.9H856.9v-21.3H52.8v21.3Z" class="g0_70" />
<path fill-rule="evenodd" d="M52.8,1105.8H856.9v-20.9H52.8v20.9Z" class="g0_70" />
<path fill-rule="evenodd" d="M52.8,1127.1H856.9v-21.3H52.8v21.3Z" class="g0_70" />
<path fill-rule="evenodd" d="M52.8,1148H856.9v-20.9H52.8V1148Z" class="g0_70" />
<path fill-rule="evenodd" d="M52.8,1169.3H856.9V1148H52.8v21.3Z" class="g0_70" />
<path fill-rule="evenodd" d="M52.8,1190.2H856.9v-20.9H52.8v20.9Z" class="g0_70" />
<path fill-rule="evenodd" d="M52.8,1211.4H856.9v-21.2H52.8v21.2Z" class="g0_70" />
<g fill="#000000" >
<use xlink:href="#f4_n" transform="matrix(8,0,0,8,785.7,1264.1)" />
<use xlink:href="#f4_k" transform="matrix(8,0,0,8,792.5,1264.1)" />
</g>
<defs>
<path d="M448,506c0,0,134,0,190,49c0,0,57,50,57,168c0,0,0,114,-56,162c0,0,-56,48,-195,48H316V506ZM777,0L496,438H316V60L468,40V0H54V40L172,60V941L44,960v40H476c0,0,188,0,277,-63c0,0,90,-64,90,-204c0,0,0,-100,-54,-173c0,0,-55,-73,-151,-101L909,60L1017,40V0Z" 
id="f0_1i"
transform="scale(0.001,-0.001)" />

<path d="M495,413c0,0,0,133,-34,190c0,0,-34,57,-105,57c0,0,-78,0,-119,-63c0,0,-42,-62,-42,-184ZM374,-14c0,0,-163,0,-239,87c0,0,-75,88,-75,283c0,0,0,183,77,273c0,0,76,91,219,91c0,0,269,0,269,-306V353H194V340c0,0,0,-103,23,-160c0,0,22,-57,70,-87c0,0,47,-29,124,-29c0,0,40,0,96,6c0,0,55,7,91,15V43C598,43,562,20,500,3c0,0,-61,-17,-126,-17Z" 
id="f0_21"
transform="scale(0.001,-0.001)" />

<path d="M278,-14c0,0,-52,0,-115,11c0,0,-63,10,-99,23V193H98L134,95c0,0,56,-50,146,-50c0,0,144,0,144,123c0,0,0,91,-114,130l-66,21c0,0,-75,25,-110,50c0,0,-34,26,-53,63c0,0,-18,36,-18,89c0,0,0,92,63,145c0,0,63,54,170,54c0,0,77,0,193,-23V544H454l-32,81c0,0,-39,35,-124,35c0,0,-61,0,-92,-30c0,0,-32,-30,-32,-80c0,0,0,-43,29,-72c0,0,28,-29,86,-48c0,0,110,-38,144,-55c0,0,33,-17,57,-42c0,0,23,-25,36,-57c0,0,13,-32,13,-79c0,0,0,-104,-66,-158c0,0,-66,-53,-195,-53Z" 
id="f0_2f"
transform="scale(0.001,-0.001)" />

<path d="M382,45c0,0,188,0,188,314c0,0,0,143,-47,213c0,0,-46,69,-141,69c0,0,-87,0,-146,-24V58c0,0,67,-13,146,-13ZM25,-325v35l88,18V649L34,668v33H231l1,-41c0,0,31,27,84,43c0,0,53,17,107,17c0,0,134,0,208,-94c0,0,73,-93,73,-267c0,0,0,-178,-80,-276c0,0,-80,-97,-232,-97c0,0,-84,0,-160,16c0,0,4,-53,4,-84V-272l123,-18v-35Z" 
id="f0_2c"
transform="scale(0.001,-0.001)" />

<path d="M32,0V33L151,52V649L52,668v33H275V52L395,33V0ZM201,850c0,0,-32,0,-56,24c0,0,-24,24,-24,56c0,0,0,34,24,58c0,0,24,24,56,24c0,0,34,0,58,-24c0,0,24,-24,24,-58c0,0,0,-32,-24,-56c0,0,-24,-24,-58,-24Z" 
id="f0_25"
transform="scale(0.001,-0.001)" />

<path d="M31,0V33l88,19V649L31,668v33H235l7,-87c0,0,44,37,121,71c0,0,76,35,121,35h11V530H463l-43,82c0,0,-37,0,-88,-10c0,0,-52,-10,-89,-26V52L363,33V0Z" 
id="f0_2e"
transform="scale(0.001,-0.001)" />

<path d="M284,67c0,0,51,0,88,12c0,0,37,12,74,30V358l-98,-3c0,0,-100,-4,-135,-39c0,0,-35,-35,-35,-117c0,0,0,-132,106,-132ZM233,-14c0,0,-179,0,-179,208c0,0,0,70,27,116c0,0,27,46,87,70c0,0,60,24,173,27l105,3V519c0,0,0,72,-26,107c0,0,-27,34,-82,34c0,0,-75,0,-137,-35L176,538H134V691c0,0,121,26,213,26c0,0,115,0,169,-47c0,0,54,-47,54,-144V52L657,33V0H465L451,70c0,0,-85,-84,-218,-84Z" 
id="f0_1x"
transform="scale(0.001,-0.001)" />

<path d="M249,-14c0,0,-71,0,-107,42c0,0,-35,42,-35,119V639H15v33l93,29l76,159h47V701H391V639H231V161c0,0,0,-48,22,-73c0,0,22,-24,57,-24c0,0,44,0,106,12V26C416,26,389,8,340,-2c0,0,-49,-12,-91,-12Z" 
id="f0_2g"
transform="scale(0.001,-0.001)" />

<path d="M377,45c0,0,99,0,147,73c0,0,47,73,47,237c0,0,0,161,-47,233c0,0,-47,72,-147,72c0,0,-97,0,-141,-69c0,0,-44,-69,-44,-236c0,0,0,-169,45,-240c0,0,44,-70,140,-70Zm0,-59c0,0,-158,0,-238,94c0,0,-81,95,-81,274c0,0,0,178,81,272c0,0,80,94,244,94c0,0,160,0,241,-92c0,0,82,-92,82,-274c0,0,0,-368,-329,-368Z" 
id="f0_2b"
transform="scale(0.001,-0.001)" />

<path d="M439,0V33l93,19V500c0,0,0,62,-30,97c0,0,-31,36,-94,36c0,0,-67,0,-165,-22V52L338,33V0H35V33l84,19V649L35,668v33H235l7,-57c0,0,57,33,122,54c0,0,65,22,108,22c0,0,91,0,137,-53c0,0,47,-53,47,-154V52L741,33V0Z" 
id="f0_2a"
transform="scale(0.001,-0.001)" />

<path d="M376,50c0,0,103,0,149,80c0,0,46,81,46,240c0,0,0,137,-47,204c0,0,-48,67,-148,67c0,0,-44,0,-87,-7c0,0,-44,-8,-63,-17V62c0,0,63,-12,150,-12Zm3,-64c0,0,-64,0,-141,14c0,0,-78,14,-136,37v971L0,1026v34H226V809c0,0,0,-40,-4,-148c0,0,74,59,188,59c0,0,143,0,219,-87c0,0,77,-87,77,-263c0,0,0,-189,-84,-287c0,0,-84,-97,-243,-97Z" 
id="f0_1y"
transform="scale(0.001,-0.001)" />

<path d="M148,-329c0,0,-58,0,-114,13v151H69l24,-71c0,0,23,-17,64,-17c0,0,39,0,72,22c0,0,33,23,60,67c0,0,27,44,68,157L90,649L19,668v33H344V668L233,648L423,158L606,649L497,668v33H758V668L685,652L411,-43c0,0,-48,-124,-84,-177c0,0,-36,-54,-79,-82c0,0,-44,-27,-100,-27Z" 
id="f0_2l"
transform="scale(0.001,-0.001)" />

<path d="M359,-270c0,0,124,0,192,46c0,0,67,47,67,129c0,0,0,43,-26,67c0,0,-26,24,-79,24H242c0,0,-32,-27,-51,-69c0,0,-20,-41,-20,-77c0,0,0,-64,46,-92c0,0,46,-28,142,-28Zm11,561c0,0,81,0,115,47c0,0,34,47,34,141c0,0,0,100,-35,142c0,0,-35,42,-113,42c0,0,-78,0,-114,-43c0,0,-37,-42,-37,-141c0,0,0,-98,36,-143c0,0,36,-45,114,-45ZM359,-329c0,0,-143,0,-218,44c0,0,-75,43,-75,125c0,0,0,39,27,78c0,0,26,38,98,89c0,0,-43,14,-72,48c0,0,-29,35,-29,74L208,262c0,0,-118,55,-118,217c0,0,0,115,73,178c0,0,73,63,211,63c0,0,28,0,71,-6c0,0,44,-6,67,-13l165,83l26,-32L599,644c0,0,50,-56,50,-165c0,0,0,-120,-72,-182c0,0,-73,-62,-208,-62c0,0,-62,0,-114,11L208,148c0,0,2,-13,29,-24c0,0,27,-12,67,-12H512c0,0,113,0,168,-49c0,0,55,-49,55,-134c0,0,0,-79,-44,-137c0,0,-43,-58,-128,-90c0,0,-84,-31,-204,-31Z" 
id="f0_23"
transform="scale(0.001,-0.001)" />

<path d="M31,0V33L150,52v956L31,1026v34H274V52L394,33V0Z" 
id="f0_28"
transform="scale(0.001,-0.001)" />

<path d="M58,-234v58c0,0,131,42,131,125c0,0,0,15,-11,27c0,0,-11,12,-38,25C140,1,89,27,89,75c0,0,0,40,25,61c0,0,26,21,65,21c0,0,48,0,77,-34c0,0,30,-34,30,-86c0,0,0,-101,-60,-170c0,0,-59,-69,-168,-101Z" 
id="f0_g"
transform="scale(0.001,-0.001)" />

<path d="M289,-14c0,0,-179,0,-179,205V649L20,668v33H233V200c0,0,0,-128,120,-128c0,0,92,0,173,23V649L420,668v33H649V52L738,33V0H533l-6,57C527,57,474,28,405,7c0,0,-69,-21,-116,-21Z" 
id="f0_2h"
transform="scale(0.001,-0.001)" />

<path d="M477,0V33l64,19L348,354L257,254V52L331,33V0H44V33l89,19v956L29,1026v34H257V338L544,647l-73,20v34H718V667L631,650L431,446L688,50L764,33V0Z" 
id="f0_27"
transform="scale(0.001,-0.001)" />

<path d="M191,-20c0,0,-39,0,-65,25c0,0,-25,27,-25,64c0,0,0,38,26,64c0,0,26,26,64,26c0,0,38,0,64,-26c0,0,26,-26,26,-64c0,0,0,-37,-25,-64c0,0,-26,-25,-65,-25Z" 
id="f0_i"
transform="scale(0.001,-0.001)" />

<path d="M44,0V40L172,60V941L44,960v40H445V960L316,941V549H787V941L659,960v40h400V960L930,941V60L1059,40V0H659V40L787,60V481H316V60L445,40V0Z" 
id="f0_18"
transform="scale(0.001,-0.001)" />

<path d="M350,-14c0,0,-142,0,-269,31L73,228h49L156,87c0,0,29,-16,82,-28c0,0,54,-12,100,-12c0,0,117,0,173,54c0,0,56,53,56,178c0,0,0,99,-52,150c0,0,-51,51,-159,56l-107,6v61l107,7c0,0,84,5,124,52c0,0,41,48,41,145c0,0,0,101,-44,147c0,0,-44,45,-139,45c0,0,-40,0,-83,-10c0,0,-43,-11,-76,-29L153,786H104V979c0,0,74,19,127,26c0,0,54,6,107,6c0,0,321,0,321,-246c0,0,0,-104,-57,-165c0,0,-57,-62,-162,-77c0,0,136,-16,200,-78c0,0,64,-62,64,-173c0,0,0,-135,-92,-211c0,0,-93,-75,-262,-75Z" 
id="f0_n"
transform="scale(0.001,-0.001)" />

<path d="M57,302V417H454V302Z" 
id="f0_h"
transform="scale(0.001,-0.001)" />

<path d="M399,-14c0,0,-341,0,-341,370c0,0,0,175,87,269c0,0,87,95,249,95c0,0,101,0,220,-23V501H573L541,625c0,0,-62,35,-149,35c0,0,-200,0,-200,-304c0,0,0,-158,61,-225c0,0,61,-67,189,-67c0,0,109,0,189,24V43C631,43,595,16,530,1c0,0,-64,-15,-131,-15Z" 
id="f0_1z"
transform="scale(0.001,-0.001)" />

<path d="M442,0V33l93,19V504c0,0,0,129,-124,129c0,0,-70,0,-168,-22V52L338,33V0H31V33l88,19v956L15,1026v34H243V756c0,0,0,-77,-5,-112c0,0,54,31,122,53c0,0,68,23,115,23c0,0,91,0,137,-53c0,0,47,-53,47,-154V52L744,33V0Z" 
id="f0_24"
transform="scale(0.001,-0.001)" />

<path d="M431,0V33L535,52V499c0,0,0,62,-32,96c0,0,-32,33,-95,33c0,0,-66,0,-163,-22V52L350,33V0H32V33l89,19V649L32,668v33H237l6,-57c0,0,56,32,119,54c0,0,62,22,110,22c0,0,52,0,95,-20c0,0,44,-19,66,-62c0,0,57,32,134,57c0,0,77,25,128,25c0,0,179,0,179,-207V52l90,-19V0H846V33L950,52V499c0,0,0,129,-119,129c0,0,-19,0,-45,-3c0,0,-26,-3,-52,-7c0,0,-25,-4,-49,-8c0,0,-23,-5,-39,-8c0,0,13,-41,13,-89V52L764,33V0Z" 
id="f0_29"
transform="scale(0.001,-0.001)" />

<path d="M383,64c0,0,85,0,152,28V645c0,0,-67,13,-152,13c0,0,-194,0,-194,-314c0,0,0,-141,48,-211c0,0,48,-69,146,-69ZM342,-14c0,0,-287,0,-287,358c0,0,0,184,82,280c0,0,81,96,239,96c0,0,81,0,163,-18c0,0,-4,25,-4,124v182l-118,18v34H659V52L745,33V0H548l-9,52c0,0,-84,-66,-197,-66Z" 
id="f0_20"
transform="scale(0.001,-0.001)" />

<path d="M460,-325c0,0,-148,79,-231,172c0,0,-84,93,-123,217c0,0,-39,126,-39,304c0,0,0,178,39,303c0,0,39,125,122,217c0,0,82,93,232,172V997c0,0,-91,-52,-145,-134c0,0,-54,-81,-79,-190c0,0,-25,-109,-25,-305c0,0,0,-194,26,-309c0,0,26,-114,82,-193c0,0,56,-79,141,-128v-63Z" 
id="f0_c"
transform="scale(0.001,-0.001)" />

<path d="M327,-14L84,649L1,668v33H335V668L219,648L385,174L554,632h63L786,171L944,649L830,668v33h267V668l-78,-16L784,-14H726L553,448L382,-14Z" 
id="f0_2j"
transform="scale(0.001,-0.001)" />

<path d="M360,-14L72,649L0,668v33H327V668L216,648L420,164L615,649L504,668v33H764V668L697,652L416,-14Z" 
id="f0_2i"
transform="scale(0.001,-0.001)" />

<path d="M49,-325v63c0,0,85,49,140,128c0,0,56,79,83,194c0,0,26,115,26,308c0,0,0,196,-25,305c0,0,-25,109,-79,190c0,0,-54,82,-145,134v63c0,0,149,-80,232,-172c0,0,83,-92,122,-217c0,0,39,-125,39,-303c0,0,0,-177,-39,-303c0,0,-39,-125,-122,-217c0,0,-83,-93,-232,-173Z" 
id="f0_d"
transform="scale(0.001,-0.001)" />

<path d="M577,-14c0,0,-243,0,-379,132C198,118,63,250,63,488c0,0,0,258,130,391c0,0,131,132,387,132c0,0,156,0,335,-38l5,-218H871L848,884c0,0,-52,32,-121,50c0,0,-69,17,-141,17c0,0,-191,0,-279,-112c0,0,-88,-113,-88,-349c0,0,0,-217,92,-332c0,0,92,-115,268,-115c0,0,85,0,160,20c0,0,76,21,120,55l27,149h49L930,32c0,0,-164,-46,-353,-46Z" 
id="f0_13"
transform="scale(0.001,-0.001)" />

<path d="M410,-14c0,0,-80,0,-162,14c0,0,-81,14,-144,38V270h48L178,134c0,0,28,-35,95,-62c0,0,68,-27,134,-27c0,0,104,0,163,53c0,0,58,54,58,148c0,0,0,54,-23,89c0,0,-22,35,-59,59c0,0,-37,24,-84,41c0,0,-47,17,-97,34c0,0,-49,17,-96,38c0,0,-47,21,-84,53c0,0,-37,32,-60,79c0,0,-23,48,-23,117c0,0,0,119,90,187c0,0,89,68,248,68c0,0,121,0,263,-32V771H654L628,893c0,0,-76,55,-188,55c0,0,-100,0,-156,-40c0,0,-56,-41,-56,-112c0,0,0,-49,22,-81c0,0,23,-32,60,-55c0,0,37,-22,84,-39c0,0,48,-16,97,-34c0,0,50,-17,97,-39c0,0,48,-22,85,-56c0,0,36,-34,59,-83c0,0,23,-49,23,-120c0,0,0,-145,-89,-224c0,0,-89,-79,-256,-79Z" 
id="f0_1j"
transform="scale(0.001,-0.001)" />

<path d="M13,0V34L95,46L325,350L122,649L40,668v33H357V668L264,648L399,446L554,649l-96,19v33H710V668L630,652L433,397L663,50L745,34V0H427V34l94,17L359,299L169,50L266,34V0Z" 
id="f0_2k"
transform="scale(0.001,-0.001)" />

<path d="M54,0V40L172,60V941L44,960v40H794V760H745L721,922c0,0,-83,11,-241,11H316V516H611l23,120h46V328H634L611,449H316V60L483,40V0Z" 
id="f0_16"
transform="scale(0.001,-0.001)" />

<path d="M41,0V34L426,641H261c0,0,-42,0,-80,-7c0,0,-39,-7,-54,-19L104,515H69V701H586V665L201,60H407c0,0,42,0,89,10c0,0,47,10,66,25l39,147h35L617,0Z" 
id="f0_2m"
transform="scale(0.001,-0.001)" />

<path d="M383,64c0,0,44,0,87,7c0,0,43,7,65,17V645c0,0,-67,13,-152,13c0,0,-194,0,-194,-309c0,0,0,-143,48,-214c0,0,47,-71,146,-71Zm56,-389v35l96,18V-77c0,0,0,73,7,124c0,0,-79,-61,-200,-61c0,0,-287,0,-287,362c0,0,0,180,81,276c0,0,81,96,237,96c0,0,84,0,166,-18l67,33h53V-272l77,-18v-35Z" 
id="f0_2d"
transform="scale(0.001,-0.001)" />

<path d="M551,45c0,0,171,0,252,108c0,0,82,108,82,349c0,0,0,239,-81,344c0,0,-81,105,-253,105c0,0,-172,0,-252,-105c0,0,-80,-105,-80,-344c0,0,0,-241,80,-349c0,0,81,-108,252,-108Zm0,-59c0,0,-238,0,-363,129C188,115,63,245,63,501c0,0,0,510,488,510c0,0,242,0,366,-129c0,0,124,-130,124,-381c0,0,0,-255,-126,-385C915,116,790,-14,551,-14Z" 
id="f0_1f"
transform="scale(0.001,-0.001)" />

<path d="M55,0V40L184,60V941L55,960v40H455V960L327,941V60L455,40V0Z" 
id="f0_19"
transform="scale(0.001,-0.001)" />

<path d="M44,0V40L172,60V941L44,960v40H794V760H745L721,922c0,0,-83,11,-241,11H316V543H586l23,119h48V354H609L586,475H316V67H513c0,0,193,0,252,12l43,185h49L843,0Z" 
id="f0_15"
transform="scale(0.001,-0.001)" />

<path d="M211,-20c0,0,-39,0,-64,25c0,0,-26,27,-26,64c0,0,0,38,26,64c0,0,26,26,64,26c0,0,37,0,64,-25c0,0,26,-26,26,-65c0,0,0,-37,-26,-64c0,0,-26,-25,-64,-25Zm0,556c0,0,-38,0,-64,26c0,0,-26,26,-26,64c0,0,0,37,26,64c0,0,25,27,64,27c0,0,38,0,64,-27c0,0,26,-27,26,-64c0,0,0,-38,-26,-64c0,0,-27,-26,-64,-26Z" 
id="f0_u"
transform="scale(0.001,-0.001)" />

<path d="M-5,0L0,40L131,60L286,941L162,960l6,40H568l-6,-40L430,941L275,60L399,40L393,0Z" 
id="f1_19"
transform="scale(0.001,-0.001)" />

<path d="M298,-14c0,0,-120,0,-185,69c0,0,-66,69,-66,191c0,0,0,130,52,237c0,0,52,107,149,172c0,0,97,65,203,65c0,0,53,0,112,-12c0,0,60,-11,99,-27L628,485H587L575,615c0,0,-47,47,-125,47c0,0,-72,0,-134,-53c0,0,-62,-53,-100,-147c0,0,-37,-95,-37,-208c0,0,0,-190,154,-190c0,0,106,0,222,74l22,-32c0,0,-60,-56,-135,-88c0,0,-76,-32,-144,-32Z" 
id="f1_1z"
transform="scale(0.001,-0.001)" />

<path d="M55,0L232,1008l-88,18l6,34H365L286,615L274,558c0,0,59,79,128,120c0,0,68,42,134,42c0,0,75,0,113,-41c0,0,38,-41,38,-117c0,0,0,-10,-3,-32c0,0,-3,-21,-81,-478L700,34L695,0H470l76,434c0,0,17,94,17,123c0,0,0,34,-18,55c0,0,-18,21,-56,21c0,0,-56,0,-121,-47c0,0,-65,-47,-107,-114L178,0Z" 
id="f1_24"
transform="scale(0.001,-0.001)" />

<path d="M200,-14c0,0,-59,0,-93,35c0,0,-34,36,-34,100c0,0,0,22,4,51c0,0,4,30,82,467H67l6,33l99,29L275,860h47L295,701H455L443,639H283L210,230c0,0,-13,-69,-13,-99c0,0,0,-34,17,-51c0,0,17,-16,43,-16c0,0,54,0,113,21L386,50c0,0,-92,-64,-186,-64Z" 
id="f1_2g"
transform="scale(0.001,-0.001)" />

<path d="M-15,-329c0,0,-61,0,-112,13l28,152h34l12,-72c0,0,18,-17,60,-17c0,0,100,0,212,202L253,9L116,649L33,668l6,33H230L338,155L513,458c0,0,48,83,48,144c0,0,0,27,-16,44c0,0,-15,16,-33,22l6,33H659c0,0,20,-17,20,-47c0,0,0,-59,-62,-164L322,-7c0,0,-86,-145,-135,-205c0,0,-50,-61,-98,-89c0,0,-49,-28,-104,-28Z" 
id="f1_2l"
transform="scale(0.001,-0.001)" />

<path d="M325,47c0,0,68,0,130,54c0,0,61,55,97,149c0,0,36,94,36,202c0,0,0,103,-39,156c0,0,-39,53,-113,53c0,0,-67,0,-128,-54c0,0,-61,-55,-96,-149c0,0,-35,-94,-35,-204c0,0,0,-101,39,-154c0,0,39,-53,109,-53Zm-6,-61c0,0,-124,0,-199,79c0,0,-74,79,-74,214c0,0,0,120,51,222c0,0,51,102,143,160c0,0,91,59,205,59c0,0,124,0,199,-80c0,0,74,-79,74,-214c0,0,0,-120,-51,-222C667,204,615,102,524,43c0,0,-91,-57,-205,-57Z" 
id="f1_2b"
transform="scale(0.001,-0.001)" />

<path d="M317,45c0,0,74,0,134,54c0,0,60,55,97,153c0,0,36,98,36,200c0,0,0,82,-33,129c0,0,-33,46,-89,46c0,0,-40,0,-93,-29c0,0,-54,-29,-96,-75L192,81c0,0,46,-36,125,-36ZM-88,-325l5,35l90,17L170,649L93,668l6,33H297L283,588c0,0,130,132,235,132c0,0,90,0,145,-67c0,0,55,-66,55,-182c0,0,0,-132,-56,-244C662,227,606,114,510,49c0,0,-97,-63,-209,-63c0,0,-35,0,-72,5c0,0,-37,5,-55,11l-8,-67L130,-273l119,-17l-6,-35Z" 
id="f1_2c"
transform="scale(0.001,-0.001)" />

<path d="M85,0L199,649l-96,19l6,33H332L218,52L335,33L329,0ZM297,849c0,0,-33,0,-57,24c0,0,-24,24,-24,57c0,0,0,33,24,57c0,0,24,24,57,24c0,0,33,0,57,-24c0,0,24,-24,24,-57c0,0,0,-33,-24,-57c0,0,-24,-24,-57,-24Z" 
id="f1_25"
transform="scale(0.001,-0.001)" />

<path d="M228,-14c0,0,-103,0,-209,46L49,200H83L95,99c0,0,20,-21,55,-38c0,0,36,-16,81,-16c0,0,163,0,163,133c0,0,0,44,-35,78c0,0,-34,34,-113,72c0,0,-75,37,-112,81c0,0,-36,45,-36,104c0,0,0,99,66,153c0,0,67,54,184,54c0,0,85,0,200,-26L521,538H486l-11,80c0,0,-47,42,-124,42c0,0,-61,0,-97,-28c0,0,-37,-28,-37,-87c0,0,0,-40,31,-71c0,0,32,-30,119,-75c0,0,78,-40,113,-86c0,0,36,-47,36,-107c0,0,0,-113,-71,-167c0,0,-72,-53,-217,-53Z" 
id="f1_2f"
transform="scale(0.001,-0.001)" />

<path d="M51,-233v58c0,0,138,44,138,125c0,0,0,21,-14,31c0,0,-15,11,-32,21c0,0,-18,10,-32,26c0,0,-15,16,-15,48c0,0,0,40,26,61c0,0,25,21,64,21c0,0,46,0,73,-33c0,0,27,-34,27,-93c0,0,0,-96,-62,-164c0,0,-62,-69,-173,-101Z" 
id="f1_g"
transform="scale(0.001,-0.001)" />

<path d="M712,0L354,900L205,60L336,40L329,0H-10l7,40L127,60L283,941L157,960l8,40H454L752,250L873,941L742,960l7,40h341l-8,-40L951,941L785,0Z" 
id="f1_1e"
transform="scale(0.001,-0.001)" />

<path d="M188,355c0,0,148,11,236,69c0,0,89,58,89,143c0,0,0,41,-23,68c0,0,-22,27,-66,27c0,0,-52,0,-101,-43c0,0,-49,-42,-85,-114c0,0,-36,-71,-50,-150ZM298,-14c0,0,-120,0,-186,67c0,0,-65,67,-65,193c0,0,0,125,53,232c0,0,52,108,145,175c0,0,94,67,196,67c0,0,92,0,147,-42c0,0,56,-43,56,-111c0,0,0,-102,-126,-173c0,0,-125,-72,-336,-86l-3,-54c0,0,0,-95,40,-143c0,0,40,-47,118,-47c0,0,67,0,124,22c0,0,57,23,106,52l22,-32c0,0,-69,-58,-146,-89c0,0,-76,-31,-145,-31Z" 
id="f1_21"
transform="scale(0.001,-0.001)" />

<path d="M228,-17c0,0,-76,0,-114,40c0,0,-38,41,-38,117c0,0,0,11,4,39c0,0,4,29,80,470L78,667l6,34H293L217,268c0,0,-17,-94,-17,-124c0,0,0,-34,18,-55c0,0,18,-21,57,-21c0,0,55,0,120,47c0,0,65,47,107,115l83,471H709L595,52L683,33L677,0H469l20,144C489,144,427,64,360,23c0,0,-67,-40,-132,-40Z" 
id="f1_2h"
transform="scale(0.001,-0.001)" />

<path d="M62,0L176,649L88,668l6,33H301L278,543c0,0,55,84,124,130c0,0,69,47,138,47c0,0,37,0,59,-6L566,530H534l-28,95c0,0,-60,0,-124,-46c0,0,-63,-45,-116,-120L186,0Z" 
id="f1_2e"
transform="scale(0.001,-0.001)" />

<path d="M311,-14c0,0,-94,0,-169,18C142,4,67,23,18,55L57,277h48l1,-143c0,0,25,-37,84,-63c0,0,59,-26,126,-26c0,0,122,0,188,58c0,0,66,58,66,162c0,0,0,40,-18,70c0,0,-18,30,-48,54c0,0,-30,23,-67,44c0,0,-38,20,-77,40c0,0,-40,21,-78,44c0,0,-37,24,-67,55c0,0,-30,31,-48,71c0,0,-18,40,-18,94c0,0,0,133,90,204c0,0,91,70,259,70c0,0,128,0,241,-28L703,774H654l-4,128c0,0,-23,20,-66,33c0,0,-42,13,-98,13c0,0,-99,0,-153,-48c0,0,-53,-48,-53,-136c0,0,0,-47,33,-85c0,0,34,-39,100,-73c0,0,102,-53,146,-80c0,0,45,-28,75,-59c0,0,31,-31,49,-72c0,0,18,-40,18,-92c0,0,0,-154,-100,-236c0,0,-100,-81,-290,-81Z" 
id="f1_1j"
transform="scale(0.001,-0.001)" />

<path d="M54,0L169,649L81,668l6,33H294L274,558c0,0,62,81,130,121c0,0,67,41,132,41c0,0,75,0,113,-41c0,0,38,-41,38,-117c0,0,0,-10,-3,-32c0,0,-3,-21,-81,-478L700,34L695,0H470l76,434c0,0,17,94,17,123c0,0,0,34,-18,55c0,0,-18,21,-56,21c0,0,-56,0,-121,-47c0,0,-65,-47,-108,-117L178,0Z" 
id="f1_2a"
transform="scale(0.001,-0.001)" />

<path d="M631,416L539,902L283,416ZM576,0l8,40L691,60L643,348H249L96,60L197,40L189,0H-83l8,40L7,60l509,949H659L845,60L938,40L930,0Z" 
id="f1_11"
transform="scale(0.001,-0.001)" />

<path d="M55,0L169,649L81,668l6,33H295L274,557c0,0,52,73,117,118c0,0,65,45,122,45c0,0,66,0,102,-42c0,0,36,-41,36,-121c0,0,51,72,115,117c0,0,64,46,123,46c0,0,63,0,99,-40c0,0,36,-40,36,-116c0,0,0,-16,-3,-42c0,0,-3,-27,-80,-470l98,-19L1032,0H808l77,434c0,0,17,90,17,124c0,0,0,34,-16,54c0,0,-15,21,-49,21c0,0,-33,0,-78,-32c0,0,-46,-31,-83,-80c0,0,-37,-49,-44,-91L558,0H434l76,434c0,0,19,98,19,124c0,0,0,34,-17,54c0,0,-16,21,-51,21c0,0,-33,0,-81,-34c0,0,-47,-33,-84,-80c0,0,-36,-48,-43,-89L179,0Z" 
id="f1_29"
transform="scale(0.001,-0.001)" />

<path d="M301,78c0,0,85,0,185,104l81,442c0,0,-29,20,-55,28c0,0,-25,8,-62,8c0,0,-75,0,-137,-56c0,0,-62,-56,-98,-152c0,0,-36,-95,-36,-199c0,0,0,-79,33,-127c0,0,33,-48,89,-48ZM245,-14c0,0,-90,0,-145,66c0,0,-54,66,-54,182c0,0,0,131,57,244c0,0,57,114,152,178c0,0,96,64,208,64c0,0,90,0,170,-33l33,26h40L589,52L673,33L667,0H454l22,117C476,117,350,-14,245,-14Z" 
id="f1_1x"
transform="scale(0.001,-0.001)" />

<path d="M81,0L258,1008l-96,18l6,34H391L214,52L331,33L325,0Z" 
id="f1_28"
transform="scale(0.001,-0.001)" />

<path d="M301,78c0,0,41,0,90,27c0,0,49,28,95,77l81,442c0,0,-26,18,-54,27c0,0,-27,10,-67,10c0,0,-70,0,-131,-55c0,0,-61,-55,-99,-152c0,0,-37,-97,-37,-201c0,0,0,-79,33,-127c0,0,33,-48,89,-48ZM245,-14c0,0,-91,0,-145,68c0,0,-54,69,-54,183c0,0,0,128,55,240c0,0,55,112,150,177c0,0,96,66,210,66c0,0,70,0,123,-18c0,0,3,36,51,306l-115,18l6,34H768L589,52L673,33L667,0H454l22,117C476,117,350,-14,245,-14Z" 
id="f1_20"
transform="scale(0.001,-0.001)" />

<path d="M460,506c0,0,135,0,209,64c0,0,73,65,73,183c0,0,0,180,-213,180H419L343,506ZM671,0L487,438H331L264,60L398,40L390,0H-7L0,40L120,60L276,941L151,960l7,40H555c0,0,163,0,249,-62c0,0,86,-62,86,-180c0,0,0,-236,-261,-299L798,60L908,40L900,0Z" 
id="f1_1i"
transform="scale(0.001,-0.001)" />

<path d="M459,63c0,0,143,0,210,55c0,0,67,56,67,185c0,0,0,101,-66,146c0,0,-66,46,-190,46H341L266,67c0,0,114,-4,193,-4Zm18,499c0,0,144,0,206,49c0,0,61,48,61,170c0,0,0,77,-48,115c0,0,-48,37,-160,37H419L353,562ZM459,-4L173,0H14l8,40l99,20L277,941L151,960l8,40H570c0,0,330,0,330,-210c0,0,0,-105,-66,-174c0,0,-66,-69,-184,-85c0,0,115,-9,179,-69c0,0,63,-59,63,-157c0,0,0,-160,-108,-235C784,70,675,-4,459,-4Z" 
id="f1_12"
transform="scale(0.001,-0.001)" />

<path d="M17,-325L185,639H64l6,36l127,29l9,49c0,0,30,167,100,245c0,0,71,78,191,78c0,0,57,0,104,-15L574,915H538l-14,85c0,0,-22,16,-63,16c0,0,-45,0,-72,-39c0,0,-26,-39,-48,-160L319,701H475L465,639H309L141,-325Z" 
id="f1_22"
transform="scale(0.001,-0.001)" />

<path d="M-15,0l6,40L121,60L275,941L151,960l6,40H558l-6,-40L419,941L350,549H821l68,392L765,960l6,40h401l-6,-40L1033,941L879,60L1003,40L996,0H596l6,40L735,60l74,421H338L264,60L388,40L382,0Z" 
id="f1_18"
transform="scale(0.001,-0.001)" />

<path d="M435,350V646c0,0,0,84,7,158L145,350ZM435,0V198H21V319l450,686H636V350H736V198H636V0Z" 
id="f2_o"
transform="scale(0.001,-0.001)" />

<path d="M191,-20c0,0,-51,0,-88,34c0,0,-36,36,-36,88c0,0,0,52,36,88c0,0,36,36,88,36c0,0,51,0,88,-36c0,0,36,-36,36,-88c0,0,0,-51,-36,-87c0,0,-36,-35,-88,-35Z" 
id="f2_i"
transform="scale(0.001,-0.001)" />

<path d="M64,0V141c0,0,64,68,119,123c0,0,119,118,174,185c0,0,56,68,81,140c0,0,26,72,26,165c0,0,0,81,-40,131c0,0,-39,50,-105,50c0,0,-46,0,-74,-10c0,0,-27,-10,-50,-29L163,751H98V979c0,0,59,13,116,23c0,0,58,9,125,9c0,0,165,0,252,-68c0,0,88,-68,88,-193c0,0,0,-78,-26,-142c0,0,-26,-64,-83,-124c0,0,-56,-61,-224,-197c0,0,-64,-52,-139,-119H698V0Z" 
id="f2_m"
transform="scale(0.001,-0.001)" />

<path d="M122,0V64L295,82V837L123,780v64l282,165H511V82L685,64V0Z" 
id="f2_l"
transform="scale(0.001,-0.001)" />

<path d="M346,-14c0,0,-139,0,-276,29L61,258h69L169,96c0,0,29,-16,71,-26c0,0,43,-10,77,-10c0,0,172,0,172,230c0,0,0,120,-44,174c0,0,-44,53,-139,53c0,0,-53,0,-97,-19L186,488H111v512H633V834H194V571c0,0,91,21,164,21c0,0,178,0,264,-74c0,0,86,-73,86,-220c0,0,0,-151,-94,-232c0,0,-93,-80,-268,-80Z" 
id="f2_p"
transform="scale(0.001,-0.001)" />

<path d="M608,-14c0,0,-251,0,-392,133C216,119,75,252,75,488c0,0,0,257,134,390c0,0,135,133,398,133c0,0,174,0,361,-50l4,-240H905L884,866c0,0,-98,67,-229,67c0,0,-173,0,-253,-108c0,0,-80,-108,-80,-334c0,0,0,-209,84,-319c0,0,83,-109,243,-109c0,0,84,0,147,22c0,0,63,22,99,53l24,164h68L982,48C982,48,915,22,808,4C808,4,700,-14,608,-14Z" 
id="f2_13"
transform="scale(0.001,-0.001)" />

<path d="M30,0V49l76,18V992l-72,18v50H322V67L398,49V0Z" 
id="f2_28"
transform="scale(0.001,-0.001)" />

<path d="M345,75c0,0,50,0,110,26V351l-63,-2c0,0,-72,-3,-100,-38c0,0,-28,-35,-28,-113c0,0,0,-63,22,-93c0,0,23,-30,59,-30ZM266,-14c0,0,-217,0,-217,208c0,0,0,79,32,126c0,0,32,48,93,71c0,0,60,22,190,25l91,2V521c0,0,0,126,-104,126c0,0,-62,0,-140,-39L183,521H134V691c0,0,112,17,165,21c0,0,53,5,108,5c0,0,264,0,264,-194V67L741,49V0H483L466,54C466,54,408,14,361,0c0,0,-47,-14,-95,-14Z" 
id="f2_1x"
transform="scale(0.001,-0.001)" />

<path d="M276,-14c0,0,-57,0,-125,13C151,-1,83,10,48,23V214H97l28,-98c0,0,26,-26,69,-44c0,0,42,-17,86,-17c0,0,65,0,97,28c0,0,32,28,32,71c0,0,0,41,-31,65c0,0,-30,25,-133,57c0,0,-108,34,-154,92c0,0,-45,58,-45,143c0,0,0,95,71,152c0,0,71,57,183,57c0,0,77,0,207,-22V518H457l-24,82c0,0,-21,22,-60,35c0,0,-40,14,-75,14c0,0,-53,0,-79,-22c0,0,-26,-22,-26,-59c0,0,0,-40,32,-65c0,0,32,-26,132,-55c0,0,109,-34,155,-89c0,0,45,-55,45,-137c0,0,0,-117,-72,-177c0,0,-72,-59,-209,-59Z" 
id="f2_2f"
transform="scale(0.001,-0.001)" />

<path d="M56,294V424H453V294Z" 
id="f2_h"
transform="scale(0.001,-0.001)" />

<path d="M248,-20c0,0,-52,0,-87,34c0,0,-36,36,-36,88c0,0,0,52,36,88c0,0,35,36,87,36c0,0,52,0,88,-36c0,0,36,-36,36,-88c0,0,0,-51,-36,-87c0,0,-35,-35,-88,-35Zm0,488c0,0,-52,0,-87,36c0,0,-36,36,-36,88c0,0,0,52,35,88c0,0,35,36,88,36c0,0,53,0,89,-36c0,0,35,-37,35,-88c0,0,0,-51,-36,-87c0,0,-35,-37,-88,-37Z" 
id="f2_u"
transform="scale(0.001,-0.001)" />

<path d="M498,506c0,0,115,0,164,47c0,0,48,48,48,166c0,0,0,112,-46,156c0,0,-46,43,-169,43H390V506ZM793,0L514,423H390V74L518,54V0H36V54L154,74V926L26,945v55H504c0,0,221,0,330,-68c0,0,109,-68,109,-212c0,0,0,-215,-201,-276L1009,74L1117,54V0Z" 
id="f2_1i"
transform="scale(0.001,-0.001)" />

<path d="M434,423c0,0,0,101,-7,142c0,0,-6,40,-22,60c0,0,-16,19,-45,19c0,0,-44,0,-66,-48c0,0,-22,-49,-22,-173ZM389,-14c0,0,-172,0,-254,89c0,0,-83,90,-83,279c0,0,0,184,79,274c0,0,79,91,238,91c0,0,142,0,206,-76c0,0,64,-76,64,-237V345H271V333c0,0,0,-111,18,-158c0,0,18,-47,58,-72c0,0,40,-25,110,-25c0,0,66,0,166,22V42C623,42,582,18,517,1c0,0,-66,-15,-128,-15Z" 
id="f2_21"
transform="scale(0.001,-0.001)" />

<path d="M438,65c0,0,131,0,131,293c0,0,0,279,-130,279c0,0,-69,0,-127,-29V80c0,0,60,-15,126,-15ZM20,-325v50l76,18V634L19,652v49H304l1,-36c0,0,80,55,194,55c0,0,146,0,218,-86c0,0,71,-86,71,-271c0,0,0,-183,-83,-280c0,0,-83,-97,-238,-97c0,0,-79,0,-160,19c0,0,5,-48,5,-109V-257l103,-18v-50Z" 
id="f2_2c"
transform="scale(0.001,-0.001)" />

<path d="M327,-14c0,0,-101,0,-156,45c0,0,-55,45,-55,131V624H25v48l108,29l87,159H332V701H480V624H332V176c0,0,0,-49,20,-73c0,0,20,-25,53,-25c0,0,40,0,97,12V26c0,0,-22,-15,-76,-27c0,0,-55,-13,-99,-13Z" 
id="f2_2g"
transform="scale(0.001,-0.001)" />

<path d="M34,0V49l76,18V634L38,652v49H325V67L402,49V0ZM217,831c0,0,-48,0,-81,33c0,0,-34,33,-34,82c0,0,0,48,34,81c0,0,34,33,81,33c0,0,48,0,81,-33c0,0,33,-33,33,-81c0,0,0,-47,-33,-81c0,0,-32,-34,-81,-34Z" 
id="f2_25"
transform="scale(0.001,-0.001)" />

<path d="M64,0V34L168,59V639H47v36l121,29v49c0,0,0,155,61,239c0,0,62,84,173,84c0,0,58,0,107,-15V908H472l-33,92c0,0,-26,16,-62,16c0,0,-47,0,-66,-42c0,0,-19,-42,-19,-157V701H478V639H292V59L443,34V0Z" 
id="f0_22"
transform="scale(0.001,-0.001)" />

<path d="M536,63c0,0,127,0,191,54c0,0,63,54,63,168c0,0,0,105,-70,154c0,0,-70,49,-225,49H316V67c0,0,103,-4,220,-4ZM480,555c0,0,121,0,178,48c0,0,57,48,57,155c0,0,0,91,-58,133c0,0,-57,42,-186,42H316V555ZM554,-4L235,0H44V40L172,60V941L44,960v40H501c0,0,191,0,279,-56c0,0,88,-56,88,-179c0,0,0,-88,-55,-149c0,0,-54,-62,-151,-83c0,0,135,-14,209,-79c0,0,73,-65,73,-166c0,0,0,-144,-99,-219C845,69,745,-4,554,-4Z" 
id="f0_12"
transform="scale(0.001,-0.001)" />

<path d="M235,0V40L394,60V936H356c0,0,-189,0,-258,-15L78,766H28v234H908V766H857L837,921c0,0,-22,5,-98,9c0,0,-75,4,-165,4H538V60L697,40V0Z" 
id="f0_1k"
transform="scale(0.001,-0.001)" />

<path d="M44,0V40L172,60V941L44,960v40H471V960L316,941V65H513c0,0,159,0,234,14l46,208h48L828,0Z" 
id="f0_1c"
transform="scale(0.001,-0.001)" />

<path d="M617,0L251,860V60L385,40V0H44V40L172,60V941L44,960v40H347L672,239l355,761h287V960L1185,941V60L1314,40V0H908V40l134,20V859L643,0Z" 
id="f0_1d"
transform="scale(0.001,-0.001)" />

<path d="M476,327V830h-4L114,327ZM476,0V220H30v99l488,686h86V327H740V220H604V0Z" 
id="f0_o"
transform="scale(0.001,-0.001)" />

<path d="M394,460c0,0,126,0,186,57c0,0,60,57,60,187c0,0,0,123,-57,176c0,0,-58,53,-194,53H316V460ZM54,0V40L172,60V941L44,960v40H421c0,0,368,0,368,-295c0,0,0,-153,-93,-233c0,0,-93,-80,-267,-80H316V60L475,40V0Z" 
id="f0_1g"
transform="scale(0.001,-0.001)" />

<path d="M529,65c0,0,183,0,270,108c0,0,87,108,87,334c0,0,0,210,-113,318c0,0,-113,108,-322,108H316V71c0,0,90,-6,213,-6Zm0,-67L172,0H44V40L172,60V941L44,960v40H498c0,0,277,0,411,-123c0,0,133,-124,133,-371c0,0,0,-251,-129,-380C913,126,785,-2,529,-2Z" 
id="f0_14"
transform="scale(0.001,-0.001)" />

<path d="M521,-14c0,0,-205,0,-320,107C201,93,85,200,85,390c0,0,0,185,77,326c0,0,77,142,220,219c0,0,142,76,324,76c0,0,158,0,327,-38L1000,755H951V884c0,0,-46,32,-112,50c0,0,-65,17,-137,17c0,0,-135,0,-242,-72c0,0,-107,-72,-166,-203c0,0,-60,-132,-60,-301c0,0,0,-160,78,-244c0,0,78,-84,222,-84c0,0,85,0,166,25c0,0,82,26,133,65l53,149h49L889,52C889,52,803,20,705,3c0,0,-99,-17,-184,-17Z" 
id="f1_13"
transform="scale(0.001,-0.001)" />

<path d="M131,0l8,40L301,60L455,936H417c0,0,-148,0,-219,-15L150,766H100l42,234H940L898,766H847l8,155c0,0,-67,13,-219,13H599L445,60L601,40L593,0Z" 
id="f1_1k"
transform="scale(0.001,-0.001)" />

<path d="M577,-14c0,0,-243,0,-379,131C198,117,63,248,63,488c0,0,0,263,131,393c0,0,132,130,386,130c0,0,182,0,352,-45V751H882L862,875c0,0,-52,37,-124,57c0,0,-72,19,-152,19c0,0,-191,0,-279,-113c0,0,-88,-114,-88,-348c0,0,0,-220,91,-333c0,0,91,-114,269,-114c0,0,63,0,131,15c0,0,69,15,105,36V377L686,397v40h370V397L958,377V52C958,52,871,24,778,5c0,0,-93,-19,-201,-19Z" 
id="f0_17"
transform="scale(0.001,-0.001)" />

<path d="M312,78c0,0,42,0,93,28c0,0,51,27,99,76l82,460c0,0,-18,5,-32,9c0,0,-14,3,-28,6c0,0,-14,2,-29,3c0,0,-16,1,-36,1c0,0,-75,0,-139,-56c0,0,-64,-56,-100,-150c0,0,-37,-95,-37,-202c0,0,0,-80,33,-127c0,0,33,-48,94,-48ZM249,-325c0,0,-65,0,-136,16c0,0,-70,15,-112,37l13,170H48l27,-93c0,0,60,-59,173,-59c0,0,91,0,145,47c0,0,54,48,72,152l29,175c0,0,-54,-59,-120,-97c0,0,-66,-37,-119,-37c0,0,-95,0,-149,66c0,0,-55,67,-55,182c0,0,0,131,58,243c0,0,57,112,154,177c0,0,97,66,211,66c0,0,45,0,117,-9c0,0,72,-9,128,-22L594,-25c0,0,-28,-158,-108,-229c0,0,-80,-71,-237,-71Z" 
id="f1_23"
transform="scale(0.001,-0.001)" />

<path d="M681,416L504,902L333,416ZM669,0V40L803,60L704,348H310L210,60L344,40V0H15V40L128,60l341,949H611L965,60L1092,40V0Z" 
id="f0_11"
transform="scale(0.001,-0.001)" />

<path d="M420,-22L89,941L1,960v40H383V960L236,941L474,236L744,930h33L1037,236l227,705l-156,19v40h331V960l-87,-19L1025,-22H985L726,666L460,-22Z" 
id="f0_1n"
transform="scale(0.001,-0.001)" />

<path d="M-12,338v55H777V338Z" 
id="f3_4y"
transform="scale(0.001,-0.001)" />

<path d="M-43,-325c0,0,-60,0,-119,23l24,140h35l12,-83c0,0,20,-20,52,-20c0,0,48,0,76,48c0,0,28,48,46,151L210,649L107,668l6,33H342L213,-28c0,0,-27,-151,-90,-224c0,0,-63,-73,-166,-73ZM306,849c0,0,-33,0,-57,24c0,0,-24,24,-24,57c0,0,0,33,24,57c0,0,24,24,57,24c0,0,33,0,57,-24c0,0,24,-24,24,-57c0,0,0,-33,-24,-57c0,0,-24,-24,-57,-24Z" 
id="f1_26"
transform="scale(0.001,-0.001)" />

<path d="M843,0L451,506L316,398V60L460,40V0H44V40L172,60V941L44,960v40H445V960L316,941V470L795,941l-99,19v40h313V960L894,941L552,607L979,60L1088,40V0Z" 
id="f0_1b"
transform="scale(0.001,-0.001)" />

<path d="M395,-22L175,941L80,960l7,40H455l-7,-40L322,941L484,211L885,941L771,960l9,40h300l-7,-40L975,941L433,-22Z" 
id="f1_1m"
transform="scale(0.001,-0.001)" />

<path d="M536,-22L130,941L17,960v40H421V960L287,941L590,205L892,941L761,960v40h325V960L976,941L574,-22Z" 
id="f0_1m"
transform="scale(0.001,-0.001)" />

<path d="M412,-18c0,0,-144,0,-239,85c0,0,-95,86,-108,222l133,18c0,0,24,-114,79,-164c0,0,55,-50,135,-50c0,0,96,0,161,65c0,0,65,66,65,163c0,0,0,92,-61,152c0,0,-60,60,-153,60c0,0,-38,0,-95,-15l15,119c0,0,13,-2,21,-2c0,0,86,0,155,45c0,0,69,44,69,137c0,0,0,74,-50,122c0,0,-50,49,-129,49c0,0,-79,0,-131,-50c0,0,-52,-49,-67,-147L78,815c0,0,25,135,112,209c0,0,87,74,217,74c0,0,89,0,164,-38c0,0,76,-39,116,-105c0,0,40,-66,40,-141c0,0,0,-70,-39,-129c0,0,-38,-58,-112,-92c0,0,97,-22,151,-93c0,0,53,-70,53,-176c0,0,0,-143,-104,-243c0,0,-105,-99,-264,-99Z" 
id="f4_n"
transform="scale(0.001,-0.001)" />

<path d="M420,92c0,0,92,0,155,89c0,0,64,89,64,358c0,0,0,270,-63,359c0,0,-63,89,-158,89c0,0,-92,0,-147,-79c0,0,-70,-100,-70,-369c0,0,0,-269,63,-358c0,0,63,-89,156,-89Zm0,-110c0,0,-158,0,-248,112C172,94,64,231,64,539c0,0,0,194,39,313c0,0,40,118,119,182c0,0,79,64,198,64c0,0,88,0,155,-35c0,0,66,-36,109,-103c0,0,43,-66,68,-162c0,0,24,-96,24,-259c0,0,0,-192,-39,-311C737,228,697,110,619,46c0,0,-79,-64,-199,-64Z" 
id="f4_k"
transform="scale(0.001,-0.001)" />


</defs>
</svg>