<?xml version="1.0" encoding="UTF-8" standalone="no"?>
<!DOCTYPE svg PUBLIC "-//W3C//DTD SVG 1.1//EN"
"http://www.w3.org/Graphics/SVG/1.1/DTD/svg11.dtd">
<svg viewBox="0 0 797 1155" version="1.1" xmlns="http://www.w3.org/2000/svg" xmlns:xlink="http://www.w3.org/1999/xlink">
<defs>
</defs>
<g fill="#000000" >
<use xlink:href="#f0_25" transform="matrix(12,0,0,12,63.1,363.5)" />
<use xlink:href="#f0_25" transform="matrix(12,0,0,12,68.2,363.5)" />
<use xlink:href="#f0_d" transform="matrix(12,0,0,12,73.4,363.5)" />
<use xlink:href="#f0_19" transform="matrix(12,0,0,12,118.1,363.5)" />
<use xlink:href="#f0_2a" transform="matrix(12,0,0,12,125.1,363.5)" />
<use xlink:href="#f0_2g" transform="matrix(12,0,0,12,135.3,363.5)" />
<use xlink:href="#f0_21" transform="matrix(12,0,0,12,141.5,363.5)" />
<use xlink:href="#f0_2e" transform="matrix(12,0,0,12,149.6,363.5)" />
<use xlink:href="#f0_1z" transform="matrix(12,0,0,12,157.3,363.5)" />
<use xlink:href="#f0_1x" transform="matrix(12,0,0,12,165.4,363.5)" />
<use xlink:href="#f0_28" transform="matrix(12,0,0,12,174.9,363.5)" />
<use xlink:href="#f0_1x" transform="matrix(12,0,0,12,179.6,363.5)" />
<use xlink:href="#f0_2e" transform="matrix(12,0,0,12,189.2,363.5)" />
<use xlink:href="#f0_2l" transform="matrix(12,0,0,12,197.2,363.5)" />
<use xlink:href="#f0_29" transform="matrix(12,0,0,12,211.1,363.5)" />
<use xlink:href="#f0_21" transform="matrix(12,0,0,12,226.2,363.5)" />
<use xlink:href="#f0_2e" transform="matrix(12,0,0,12,234.6,363.5)" />
<use xlink:href="#f0_25" transform="matrix(12,0,0,12,242.3,363.5)" />
<use xlink:href="#f0_2f" transform="matrix(12,0,0,12,247.4,363.5)" />
<use xlink:href="#f0_2g" transform="matrix(12,0,0,12,254.4,363.5)" />
<use xlink:href="#f0_21" transform="matrix(12,0,0,12,260.6,363.5)" />
<use xlink:href="#f0_29" transform="matrix(12,0,0,12,269,363.5)" />
<use xlink:href="#f1_3d" transform="matrix(12,0,0,12,55,413)" />
<use xlink:href="#f2_1k" transform="matrix(12,0,0,12,82.5,413)" />
<use xlink:href="#f2_24" transform="matrix(12,0,0,12,93.9,413)" />
<use xlink:href="#f2_21" transform="matrix(12,0,0,12,102.7,413)" />
<use xlink:href="#f2_29" transform="matrix(12,0,0,12,115.9,413)" />
<use xlink:href="#f2_21" transform="matrix(12,0,0,12,129.5,413)" />
<use xlink:href="#f2_2e" transform="matrix(12,0,0,12,137.5,413)" />
<use xlink:href="#f2_25" transform="matrix(12,0,0,12,144.1,413)" />
<use xlink:href="#f2_2f" transform="matrix(12,0,0,12,148.9,413)" />
<use xlink:href="#f2_2g" transform="matrix(12,0,0,12,155.9,413)" />
<use xlink:href="#f2_21" transform="matrix(12,0,0,12,161.3,413)" />
<use xlink:href="#f2_29" transform="matrix(12,0,0,12,169.7,413)" />
<use xlink:href="#f2_2c" transform="matrix(12,0,0,12,188.2,413)" />
<use xlink:href="#f2_2e" transform="matrix(12,0,0,12,197.3,413)" />
<use xlink:href="#f2_21" transform="matrix(12,0,0,12,203.6,413)" />
<use xlink:href="#f2_2f" transform="matrix(12,0,0,12,211.6,413)" />
<use xlink:href="#f2_21" transform="matrix(12,0,0,12,218.6,413)" />
<use xlink:href="#f2_2a" transform="matrix(12,0,0,12,227,413)" />
<use xlink:href="#f2_2g" transform="matrix(12,0,0,12,235.8,413)" />
<use xlink:href="#f2_1y" transform="matrix(12,0,0,12,246.1,413)" />
<use xlink:href="#f2_21" transform="matrix(12,0,0,12,254.9,413)" />
<use xlink:href="#f2_2g" transform="matrix(12,0,0,12,263,413)" />
<use xlink:href="#f2_2j" transform="matrix(12,0,0,12,268.5,413)" />
<use xlink:href="#f2_21" transform="matrix(12,0,0,12,281.7,413)" />
<use xlink:href="#f2_21" transform="matrix(12,0,0,12,289.8,413)" />
<use xlink:href="#f2_2a" transform="matrix(12,0,0,12,297.8,413)" />
<use xlink:href="#f2_29" transform="matrix(12,0,0,12,311.7,413)" />
<use xlink:href="#f2_1x" transform="matrix(12,0,0,12,325.7,413)" />
<use xlink:href="#f2_2g" transform="matrix(12,0,0,12,333.7,413)" />
<use xlink:href="#f2_2h" transform="matrix(12,0,0,12,339.2,413)" />
<use xlink:href="#f2_2e" transform="matrix(12,0,0,12,348.4,413)" />
<use xlink:href="#f2_21" transform="matrix(12,0,0,12,354.6,413)" />
<use xlink:href="#f2_2g" transform="matrix(12,0,0,12,367.1,413)" />
<use xlink:href="#f2_25" transform="matrix(12,0,0,12,372.5,413)" />
<use xlink:href="#f2_2f" transform="matrix(12,0,0,12,376.9,413)" />
<use xlink:href="#f2_2f" transform="matrix(12,0,0,12,384.3,413)" />
<use xlink:href="#f2_2h" transform="matrix(12,0,0,12,391.2,413)" />
<use xlink:href="#f2_21" transform="matrix(12,0,0,12,400.4,413)" />
<use xlink:href="#f2_2f" transform="matrix(12,0,0,12,408.5,413)" />
<use xlink:href="#f2_25" transform="matrix(12,0,0,12,420.5,413)" />
<use xlink:href="#f2_2f" transform="matrix(12,0,0,12,425.3,413)" />
<use xlink:href="#f2_1z" transform="matrix(12,0,0,12,437.2,413)" />
<use xlink:href="#f2_1x" transform="matrix(12,0,0,12,445.3,413)" />
<use xlink:href="#f2_28" transform="matrix(12,0,0,12,453.7,413)" />
<use xlink:href="#f2_28" transform="matrix(12,0,0,12,458.8,413)" />
<use xlink:href="#f2_21" transform="matrix(12,0,0,12,463.6,413)" />
<use xlink:href="#f2_20" transform="matrix(12,0,0,12,471.7,413)" />
<use xlink:href="#f2_25" transform="matrix(12,0,0,12,486,413)" />
<use xlink:href="#f2_2a" transform="matrix(12,0,0,12,490.8,413)" />
<use xlink:href="#f2_2g" transform="matrix(12,0,0,12,499.6,413)" />
<use xlink:href="#f2_21" transform="matrix(12,0,0,12,505.1,413)" />
<use xlink:href="#f2_2e" transform="matrix(12,0,0,12,513.2,413)" />
<use xlink:href="#f2_1z" transform="matrix(12,0,0,12,519.4,413)" />
<use xlink:href="#f2_1x" transform="matrix(12,0,0,12,527.4,413)" />
<use xlink:href="#f2_28" transform="matrix(12,0,0,12,535.9,413)" />
<use xlink:href="#f2_1x" transform="matrix(12,0,0,12,540.6,413)" />
<use xlink:href="#f2_2e" transform="matrix(12,0,0,12,548.7,413)" />
<use xlink:href="#f2_2l" transform="matrix(12,0,0,12,555.3,413)" />
<use xlink:href="#f2_29" transform="matrix(12,0,0,12,568.8,413)" />
<use xlink:href="#f2_21" transform="matrix(12,0,0,12,582.8,413)" />
<use xlink:href="#f2_2e" transform="matrix(12,0,0,12,590.8,413)" />
<use xlink:href="#f2_25" transform="matrix(12,0,0,12,597.4,413)" />
<use xlink:href="#f2_2f" transform="matrix(12,0,0,12,602.2,413)" />
<use xlink:href="#f2_2g" transform="matrix(12,0,0,12,609.1,413)" />
<use xlink:href="#f2_21" transform="matrix(12,0,0,12,614.6,413)" />
<use xlink:href="#f2_29" transform="matrix(12,0,0,12,623,413)" />
<use xlink:href="#f2_i" transform="matrix(12,0,0,12,636.6,413)" />
<use xlink:href="#f1_3d" transform="matrix(12,0,0,12,55,438.7)" />
<use xlink:href="#f2_1k" transform="matrix(12,0,0,12,82.5,438.7)" />
<use xlink:href="#f2_24" transform="matrix(12,0,0,12,93.9,438.7)" />
<use xlink:href="#f2_21" transform="matrix(12,0,0,12,102.7,438.7)" />
<use xlink:href="#f2_2l" transform="matrix(12,0,0,12,111.1,438.7)" />
<use xlink:href="#f2_1x" transform="matrix(12,0,0,12,126.2,438.7)" />
<use xlink:href="#f2_2e" transform="matrix(12,0,0,12,134.2,438.7)" />
<use xlink:href="#f2_21" transform="matrix(12,0,0,12,140.5,438.7)" />
<use xlink:href="#f2_2f" transform="matrix(12,0,0,12,155.1,438.7)" />
<use xlink:href="#f2_21" transform="matrix(12,0,0,12,162.1,438.7)" />
<use xlink:href="#f2_21" transform="matrix(12,0,0,12,170.1,438.7)" />
<use xlink:href="#f2_2a" transform="matrix(12,0,0,12,178.5,438.7)" />
<use xlink:href="#f2_25" transform="matrix(12,0,0,12,194.3,438.7)" />
<use xlink:href="#f2_2a" transform="matrix(12,0,0,12,199.1,438.7)" />
<use xlink:href="#f2_23" transform="matrix(12,0,0,12,214.4,438.7)" />
<use xlink:href="#f2_2e" transform="matrix(12,0,0,12,223.6,438.7)" />
<use xlink:href="#f2_1x" transform="matrix(12,0,0,12,229.8,438.7)" />
<use xlink:href="#f2_2f" transform="matrix(12,0,0,12,237.9,438.7)" />
<use xlink:href="#f2_2f" transform="matrix(12,0,0,12,245.2,438.7)" />
<use xlink:href="#f2_21" transform="matrix(12,0,0,12,252.2,438.7)" />
<use xlink:href="#f2_2f" transform="matrix(12,0,0,12,260.2,438.7)" />
<use xlink:href="#f2_i" transform="matrix(12,0,0,12,267.2,438.7)" />
<use xlink:href="#f2_1k" transform="matrix(12,0,0,12,278.5,438.7)" />
<use xlink:href="#f2_24" transform="matrix(12,0,0,12,289.9,438.7)" />
<use xlink:href="#f2_21" transform="matrix(12,0,0,12,298.7,438.7)" />
<use xlink:href="#f2_25" transform="matrix(12,0,0,12,307.1,438.7)" />
<use xlink:href="#f2_2e" transform="matrix(12,0,0,12,311.9,438.7)" />
<use xlink:href="#f2_22" transform="matrix(12,0,0,12,325,438.7)" />
<use xlink:href="#f2_2h" transform="matrix(12,0,0,12,330.5,438.7)" />
<use xlink:href="#f2_2a" transform="matrix(12,0,0,12,340,438.7)" />
<use xlink:href="#f2_1z" transform="matrix(12,0,0,12,348.8,438.7)" />
<use xlink:href="#f2_2g" transform="matrix(12,0,0,12,356.9,438.7)" />
<use xlink:href="#f2_25" transform="matrix(12,0,0,12,362.8,438.7)" />
<use xlink:href="#f2_2b" transform="matrix(12,0,0,12,367.2,438.7)" />
<use xlink:href="#f2_2a" transform="matrix(12,0,0,12,376.7,438.7)" />
<use xlink:href="#f2_25" transform="matrix(12,0,0,12,392.4,438.7)" />
<use xlink:href="#f2_2f" transform="matrix(12,0,0,12,396.8,438.7)" />
<use xlink:href="#f2_2g" transform="matrix(12,0,0,12,410.4,438.7)" />
<use xlink:href="#f2_2b" transform="matrix(12,0,0,12,415.9,438.7)" />
<use xlink:href="#f2_2e" transform="matrix(12,0,0,12,432.1,438.7)" />
<use xlink:href="#f2_21" transform="matrix(12,0,0,12,438.3,438.7)" />
<use xlink:href="#f2_23" transform="matrix(12,0,0,12,446.4,438.7)" />
<use xlink:href="#f2_21" transform="matrix(12,0,0,12,455.2,438.7)" />
<use xlink:href="#f2_2a" transform="matrix(12,0,0,12,463.3,438.7)" />
<use xlink:href="#f2_21" transform="matrix(12,0,0,12,472.1,438.7)" />
<use xlink:href="#f2_2e" transform="matrix(12,0,0,12,480.1,438.7)" />
<use xlink:href="#f2_1x" transform="matrix(12,0,0,12,486.3,438.7)" />
<use xlink:href="#f2_2g" transform="matrix(12,0,0,12,494.4,438.7)" />
<use xlink:href="#f2_21" transform="matrix(12,0,0,12,499.9,438.7)" />
<use xlink:href="#f2_2c" transform="matrix(12,0,0,12,514.5,438.7)" />
<use xlink:href="#f2_1x" transform="matrix(12,0,0,12,523.7,438.7)" />
<use xlink:href="#f2_2e" transform="matrix(12,0,0,12,531.8,438.7)" />
<use xlink:href="#f2_2g" transform="matrix(12,0,0,12,537.6,438.7)" />
<use xlink:href="#f2_2f" transform="matrix(12,0,0,12,543.1,438.7)" />
<use xlink:href="#f2_20" transform="matrix(12,0,0,12,556.9,438.7)" />
<use xlink:href="#f2_21" transform="matrix(12,0,0,12,566,438.7)" />
<use xlink:href="#f2_2f" transform="matrix(12,0,0,12,574.1,438.7)" />
<use xlink:href="#f2_2g" transform="matrix(12,0,0,12,581.1,438.7)" />
<use xlink:href="#f2_2e" transform="matrix(12,0,0,12,586.2,438.7)" />
<use xlink:href="#f2_2b" transform="matrix(12,0,0,12,592.1,438.7)" />
<use xlink:href="#f2_2l" transform="matrix(12,0,0,12,601.6,438.7)" />
<use xlink:href="#f2_21" transform="matrix(12,0,0,12,610.4,438.7)" />
<use xlink:href="#f2_20" transform="matrix(12,0,0,12,618.4,438.7)" />
<use xlink:href="#f2_1y" transform="matrix(12,0,0,12,634.3,438.7)" />
<use xlink:href="#f2_2l" transform="matrix(12,0,0,12,643.4,438.7)" />
<use xlink:href="#f2_2g" transform="matrix(12,0,0,12,658.4,438.7)" />
<use xlink:href="#f2_24" transform="matrix(12,0,0,12,663.9,438.7)" />
<use xlink:href="#f2_21" transform="matrix(12,0,0,12,673.1,438.7)" />
<use xlink:href="#f2_23" transform="matrix(12,0,0,12,687.7,438.7)" />
<use xlink:href="#f2_2e" transform="matrix(12,0,0,12,696.9,438.7)" />
<use xlink:href="#f2_1x" transform="matrix(12,0,0,12,703.1,438.7)" />
<use xlink:href="#f2_2m" transform="matrix(12,0,0,12,711.2,438.7)" />
<use xlink:href="#f2_25" transform="matrix(12,0,0,12,719.6,438.7)" />
<use xlink:href="#f2_2a" transform="matrix(12,0,0,12,724.4,438.7)" />
<use xlink:href="#f2_23" transform="matrix(12,0,0,12,733.2,438.7)" />
<use xlink:href="#f2_24" transform="matrix(12,0,0,12,82.5,462.9)" />
<use xlink:href="#f2_21" transform="matrix(12,0,0,12,91.3,462.9)" />
<use xlink:href="#f2_2e" transform="matrix(12,0,0,12,99.4,462.9)" />
<use xlink:href="#f2_1y" transform="matrix(12,0,0,12,106,462.9)" />
<use xlink:href="#f2_25" transform="matrix(12,0,0,12,115.2,462.9)" />
<use xlink:href="#f2_2i" transform="matrix(12,0,0,12,119.9,462.9)" />
<use xlink:href="#f2_2b" transform="matrix(12,0,0,12,128.7,462.9)" />
<use xlink:href="#f2_2e" transform="matrix(12,0,0,12,138.2,462.9)" />
<use xlink:href="#f2_21" transform="matrix(12,0,0,12,144.4,462.9)" />
<use xlink:href="#f2_2f" transform="matrix(12,0,0,12,152.5,462.9)" />
<use xlink:href="#f2_i" transform="matrix(12,0,0,12,159.5,462.9)" />
<use xlink:href="#f0_1j" transform="matrix(12,0,0,12,78.1,812.8)" />
<use xlink:href="#f0_21" transform="matrix(12,0,0,12,88.4,812.8)" />
<use xlink:href="#f0_1z" transform="matrix(12,0,0,12,96.5,812.8)" />
<use xlink:href="#f0_2b" transform="matrix(12,0,0,12,104.5,812.8)" />
<use xlink:href="#f0_2a" transform="matrix(12,0,0,12,113.7,812.8)" />
<use xlink:href="#f0_20" transform="matrix(12,0,0,12,124,812.8)" />
<use xlink:href="#f0_1x" transform="matrix(12,0,0,12,134.2,812.8)" />
<use xlink:href="#f0_2e" transform="matrix(12,0,0,12,143.4,812.8)" />
<use xlink:href="#f0_2l" transform="matrix(12,0,0,12,151.1,812.8)" />
<use xlink:href="#f0_29" transform="matrix(12,0,0,12,165,812.8)" />
<use xlink:href="#f0_21" transform="matrix(12,0,0,12,180,812.8)" />
<use xlink:href="#f0_2e" transform="matrix(12,0,0,12,188.4,812.8)" />
<use xlink:href="#f0_25" transform="matrix(12,0,0,12,196.1,812.8)" />
<use xlink:href="#f0_2f" transform="matrix(12,0,0,12,201.2,812.8)" />
<use xlink:href="#f0_2g" transform="matrix(12,0,0,12,208.2,812.8)" />
<use xlink:href="#f0_21" transform="matrix(12,0,0,12,214.4,812.8)" />
<use xlink:href="#f0_29" transform="matrix(12,0,0,12,222.9,812.8)" />
<use xlink:href="#f0_2f" transform="matrix(12,0,0,12,237.9,812.8)" />
<use xlink:href="#f2_1k" transform="matrix(12,0,0,12,55,852.4)" />
<use xlink:href="#f2_24" transform="matrix(12,0,0,12,66.4,852.4)" />
<use xlink:href="#f2_21" transform="matrix(12,0,0,12,75.2,852.4)" />
<use xlink:href="#f2_29" transform="matrix(12,0,0,12,89.9,852.4)" />
<use xlink:href="#f2_21" transform="matrix(12,0,0,12,103.4,852.4)" />
<use xlink:href="#f2_2e" transform="matrix(12,0,0,12,111.5,852.4)" />
<use xlink:href="#f2_25" transform="matrix(12,0,0,12,118.1,852.4)" />
<use xlink:href="#f2_2f" transform="matrix(12,0,0,12,122.9,852.4)" />
<use xlink:href="#f2_2g" transform="matrix(12,0,0,12,129.8,852.4)" />
<use xlink:href="#f2_21" transform="matrix(12,0,0,12,135.3,852.4)" />
<use xlink:href="#f2_29" transform="matrix(12,0,0,12,143.7,852.4)" />
<use xlink:href="#f2_2f" transform="matrix(12,0,0,12,157.6,852.4)" />
<use xlink:href="#f2_2c" transform="matrix(12,0,0,12,170.9,852.4)" />
<use xlink:href="#f2_2e" transform="matrix(12,0,0,12,180.1,852.4)" />
<use xlink:href="#f2_21" transform="matrix(12,0,0,12,186.3,852.4)" />
<use xlink:href="#f2_2f" transform="matrix(12,0,0,12,194.4,852.4)" />
<use xlink:href="#f2_21" transform="matrix(12,0,0,12,201.4,852.4)" />
<use xlink:href="#f2_2a" transform="matrix(12,0,0,12,209.4,852.4)" />
<use xlink:href="#f2_2g" transform="matrix(12,0,0,12,218.2,852.4)" />
<use xlink:href="#f2_25" transform="matrix(12,0,0,12,230,852.4)" />
<use xlink:href="#f2_2a" transform="matrix(12,0,0,12,234.8,852.4)" />
<use xlink:href="#f2_2g" transform="matrix(12,0,0,12,249.8,852.4)" />
<use xlink:href="#f2_24" transform="matrix(12,0,0,12,255.3,852.4)" />
<use xlink:href="#f2_21" transform="matrix(12,0,0,12,264.1,852.4)" />
<use xlink:href="#f2_20" transform="matrix(12,0,0,12,278.4,852.4)" />
<use xlink:href="#f2_25" transform="matrix(12,0,0,12,287.9,852.4)" />
<use xlink:href="#f2_22" transform="matrix(12,0,0,12,292.7,852.4)" />
<use xlink:href="#f2_22" transform="matrix(12,0,0,12,298.6,852.4)" />
<use xlink:href="#f2_21" transform="matrix(12,0,0,12,304.4,852.4)" />
<use xlink:href="#f2_2e" transform="matrix(12,0,0,12,312.5,852.4)" />
<use xlink:href="#f2_21" transform="matrix(12,0,0,12,318.7,852.4)" />
<use xlink:href="#f2_2a" transform="matrix(12,0,0,12,327.1,852.4)" />
<use xlink:href="#f2_2g" transform="matrix(12,0,0,12,335.9,852.4)" />
<use xlink:href="#f2_25" transform="matrix(12,0,0,12,341.8,852.4)" />
<use xlink:href="#f2_1x" transform="matrix(12,0,0,12,346.2,852.4)" />
<use xlink:href="#f2_2g" transform="matrix(12,0,0,12,354.2,852.4)" />
<use xlink:href="#f2_21" transform="matrix(12,0,0,12,359.7,852.4)" />
<use xlink:href="#f2_20" transform="matrix(12,0,0,12,367.8,852.4)" />
<use xlink:href="#f2_2e" transform="matrix(12,0,0,12,383.3,852.4)" />
<use xlink:href="#f2_21" transform="matrix(12,0,0,12,389.6,852.4)" />
<use xlink:href="#f2_23" transform="matrix(12,0,0,12,397.6,852.4)" />
<use xlink:href="#f2_25" transform="matrix(12,0,0,12,406.8,852.4)" />
<use xlink:href="#f2_2b" transform="matrix(12,0,0,12,411.2,852.4)" />
<use xlink:href="#f2_2a" transform="matrix(12,0,0,12,420.7,852.4)" />
<use xlink:href="#f2_2f" transform="matrix(12,0,0,12,429.9,852.4)" />
<use xlink:href="#f2_2b" transform="matrix(12,0,0,12,443.1,852.4)" />
<use xlink:href="#f2_22" transform="matrix(12,0,0,12,452.6,852.4)" />
<use xlink:href="#f2_2e" transform="matrix(12,0,0,12,464.4,852.4)" />
<use xlink:href="#f2_2b" transform="matrix(12,0,0,12,470.3,852.4)" />
<use xlink:href="#f2_2b" transform="matrix(12,0,0,12,479.4,852.4)" />
<use xlink:href="#f2_2g" transform="matrix(12,0,0,12,488.6,852.4)" />
<use xlink:href="#f2_2f" transform="matrix(12,0,0,12,494.1,852.4)" />
<use xlink:href="#f2_1x" transform="matrix(12,0,0,12,507.3,852.4)" />
<use xlink:href="#f2_2a" transform="matrix(12,0,0,12,515.3,852.4)" />
<use xlink:href="#f2_20" transform="matrix(12,0,0,12,524.1,852.4)" />
<use xlink:href="#f2_2f" transform="matrix(12,0,0,12,539.5,852.4)" />
<use xlink:href="#f2_24" transform="matrix(12,0,0,12,546.5,852.4)" />
<use xlink:href="#f2_2b" transform="matrix(12,0,0,12,555.3,852.4)" />
<use xlink:href="#f2_2b" transform="matrix(12,0,0,12,564.8,852.4)" />
<use xlink:href="#f2_2g" transform="matrix(12,0,0,12,574,852.4)" />
<use xlink:href="#f2_2f" transform="matrix(12,0,0,12,579.5,852.4)" />
<use xlink:href="#f2_2c" transform="matrix(12,0,0,12,592.6,852.4)" />
<use xlink:href="#f2_28" transform="matrix(12,0,0,12,601.8,852.4)" />
<use xlink:href="#f2_1x" transform="matrix(12,0,0,12,606.2,852.4)" />
<use xlink:href="#f2_2a" transform="matrix(12,0,0,12,614.6,852.4)" />
<use xlink:href="#f2_2g" transform="matrix(12,0,0,12,623.4,852.4)" />
<use xlink:href="#f2_2f" transform="matrix(12,0,0,12,628.9,852.4)" />
<use xlink:href="#f2_1x" transform="matrix(12,0,0,12,642.3,852.4)" />
<use xlink:href="#f2_2e" transform="matrix(12,0,0,12,650.4,852.4)" />
<use xlink:href="#f2_21" transform="matrix(12,0,0,12,656.6,852.4)" />
<use xlink:href="#f2_1z" transform="matrix(12,0,0,12,670.9,852.4)" />
<use xlink:href="#f2_1x" transform="matrix(12,0,0,12,679,852.4)" />
<use xlink:href="#f2_28" transform="matrix(12,0,0,12,687.1,852.4)" />
<use xlink:href="#f2_28" transform="matrix(12,0,0,12,691.8,852.4)" />
<use xlink:href="#f2_21" transform="matrix(12,0,0,12,696.6,852.4)" />
<use xlink:href="#f2_20" transform="matrix(12,0,0,12,704.7,852.4)" />
<use xlink:href="#f2_2g" transform="matrix(12,0,0,12,720,852.4)" />
<use xlink:href="#f2_24" transform="matrix(12,0,0,12,725.5,852.4)" />
<use xlink:href="#f2_21" transform="matrix(12,0,0,12,734.3,852.4)" />
<use xlink:href="#f2_2f" transform="matrix(12,0,0,12,55,876.6)" />
<use xlink:href="#f2_21" transform="matrix(12,0,0,12,62,876.6)" />
<use xlink:href="#f2_1z" transform="matrix(12,0,0,12,70.1,876.6)" />
<use xlink:href="#f2_2b" transform="matrix(12,0,0,12,78.1,876.6)" />
<use xlink:href="#f2_2a" transform="matrix(12,0,0,12,87.7,876.6)" />
<use xlink:href="#f2_20" transform="matrix(12,0,0,12,96.5,876.6)" />
<use xlink:href="#f2_1x" transform="matrix(12,0,0,12,105.6,876.6)" />
<use xlink:href="#f2_2e" transform="matrix(12,0,0,12,113.7,876.6)" />
<use xlink:href="#f2_2l" transform="matrix(12,0,0,12,120.3,876.6)" />
<use xlink:href="#f2_2b" transform="matrix(12,0,0,12,135.6,876.6)" />
<use xlink:href="#f2_2e" transform="matrix(12,0,0,12,145.2,876.6)" />
<use xlink:href="#f2_28" transform="matrix(12,0,0,12,158.3,876.6)" />
<use xlink:href="#f2_1x" transform="matrix(12,0,0,12,162.7,876.6)" />
<use xlink:href="#f2_2g" transform="matrix(12,0,0,12,170.8,876.6)" />
<use xlink:href="#f2_21" transform="matrix(12,0,0,12,176.3,876.6)" />
<use xlink:href="#f2_2e" transform="matrix(12,0,0,12,184.3,876.6)" />
<use xlink:href="#f2_1x" transform="matrix(12,0,0,12,190.6,876.6)" />
<use xlink:href="#f2_28" transform="matrix(12,0,0,12,199,876.6)" />
<use xlink:href="#f2_29" transform="matrix(12,0,0,12,210.7,876.6)" />
<use xlink:href="#f2_21" transform="matrix(12,0,0,12,224.3,876.6)" />
<use xlink:href="#f2_2e" transform="matrix(12,0,0,12,232.3,876.6)" />
<use xlink:href="#f2_25" transform="matrix(12,0,0,12,238.9,876.6)" />
<use xlink:href="#f2_2f" transform="matrix(12,0,0,12,243.7,876.6)" />
<use xlink:href="#f2_2g" transform="matrix(12,0,0,12,250.6,876.6)" />
<use xlink:href="#f2_21" transform="matrix(12,0,0,12,256.1,876.6)" />
<use xlink:href="#f2_29" transform="matrix(12,0,0,12,264.5,876.6)" />
<use xlink:href="#f2_i" transform="matrix(12,0,0,12,278.4,876.6)" />
<use xlink:href="#f2_1k" transform="matrix(12,0,0,12,290.1,876.6)" />
<use xlink:href="#f2_24" transform="matrix(12,0,0,12,301.5,876.6)" />
<use xlink:href="#f2_21" transform="matrix(12,0,0,12,310.3,876.6)" />
<use xlink:href="#f2_2l" transform="matrix(12,0,0,12,318.7,876.6)" />
<use xlink:href="#f2_25" transform="matrix(12,0,0,12,334.6,876.6)" />
<use xlink:href="#f2_2a" transform="matrix(12,0,0,12,339.3,876.6)" />
<use xlink:href="#f2_1z" transform="matrix(12,0,0,12,348.5,876.6)" />
<use xlink:href="#f2_2e" transform="matrix(12,0,0,12,356.6,876.6)" />
<use xlink:href="#f2_21" transform="matrix(12,0,0,12,362.8,876.6)" />
<use xlink:href="#f2_1x" transform="matrix(12,0,0,12,370.8,876.6)" />
<use xlink:href="#f2_2f" transform="matrix(12,0,0,12,378.9,876.6)" />
<use xlink:href="#f2_21" transform="matrix(12,0,0,12,386.2,876.6)" />
<use xlink:href="#f2_2g" transform="matrix(12,0,0,12,401.2,876.6)" />
<use xlink:href="#f2_24" transform="matrix(12,0,0,12,406.7,876.6)" />
<use xlink:href="#f2_21" transform="matrix(12,0,0,12,415.5,876.6)" />
<use xlink:href="#f2_23" transform="matrix(12,0,0,12,430.2,876.6)" />
<use xlink:href="#f2_25" transform="matrix(12,0,0,12,439.7,876.6)" />
<use xlink:href="#f2_2e" transform="matrix(12,0,0,12,444.1,876.6)" />
<use xlink:href="#f2_2g" transform="matrix(12,0,0,12,450.3,876.6)" />
<use xlink:href="#f2_24" transform="matrix(12,0,0,12,455.8,876.6)" />
<use xlink:href="#f2_2b" transform="matrix(12,0,0,12,471.5,876.6)" />
<use xlink:href="#f2_22" transform="matrix(12,0,0,12,481,876.6)" />
<use xlink:href="#f2_2g" transform="matrix(12,0,0,12,493.5,876.6)" />
<use xlink:href="#f2_24" transform="matrix(12,0,0,12,499,876.6)" />
<use xlink:href="#f2_21" transform="matrix(12,0,0,12,507.8,876.6)" />
<use xlink:href="#f2_2f" transform="matrix(12,0,0,12,522.8,876.6)" />
<use xlink:href="#f2_2g" transform="matrix(12,0,0,12,529.4,876.6)" />
<use xlink:href="#f2_21" transform="matrix(12,0,0,12,534.9,876.6)" />
<use xlink:href="#f2_29" transform="matrix(12,0,0,12,542.9,876.6)" />
<use xlink:href="#f2_1x" transform="matrix(12,0,0,12,563.4,876.6)" />
<use xlink:href="#f2_2a" transform="matrix(12,0,0,12,571.9,876.6)" />
<use xlink:href="#f2_20" transform="matrix(12,0,0,12,580.7,876.6)" />
<use xlink:href="#f2_2h" transform="matrix(12,0,0,12,597.2,876.6)" />
<use xlink:href="#f2_2f" transform="matrix(12,0,0,12,606.4,876.6)" />
<use xlink:href="#f2_2h" transform="matrix(12,0,0,12,613.3,876.6)" />
<use xlink:href="#f2_1x" transform="matrix(12,0,0,12,622.5,876.6)" />
<use xlink:href="#f2_28" transform="matrix(12,0,0,12,630.9,876.6)" />
<use xlink:href="#f2_28" transform="matrix(12,0,0,12,636,876.6)" />
<use xlink:href="#f2_2l" transform="matrix(12,0,0,12,641.2,876.6)" />
<use xlink:href="#f2_23" transform="matrix(12,0,0,12,656.6,876.6)" />
<use xlink:href="#f2_25" transform="matrix(12,0,0,12,666.1,876.6)" />
<use xlink:href="#f2_2i" transform="matrix(12,0,0,12,670.9,876.6)" />
<use xlink:href="#f2_21" transform="matrix(12,0,0,12,680.1,876.6)" />
<use xlink:href="#f2_2e" transform="matrix(12,0,0,12,695.1,876.6)" />
<use xlink:href="#f2_25" transform="matrix(12,0,0,12,701.7,876.6)" />
<use xlink:href="#f2_2f" transform="matrix(12,0,0,12,706.1,876.6)" />
<use xlink:href="#f2_21" transform="matrix(12,0,0,12,713,876.6)" />
<use xlink:href="#f2_2g" transform="matrix(12,0,0,12,728.1,876.6)" />
<use xlink:href="#f2_2b" transform="matrix(12,0,0,12,733.5,876.6)" />
<use xlink:href="#f2_2j" transform="matrix(12,0,0,12,55,900.8)" />
<use xlink:href="#f2_2b" transform="matrix(12,0,0,12,68.3,900.8)" />
<use xlink:href="#f2_2b" transform="matrix(12,0,0,12,77.4,900.8)" />
<use xlink:href="#f2_20" transform="matrix(12,0,0,12,86.9,900.8)" />
<use xlink:href="#f2_2l" transform="matrix(12,0,0,12,96.1,900.8)" />
<use xlink:href="#f2_1x" transform="matrix(12,0,0,12,109.3,900.8)" />
<use xlink:href="#f2_2k" transform="matrix(12,0,0,12,117.7,900.8)" />
<use xlink:href="#f2_25" transform="matrix(12,0,0,12,126.8,900.8)" />
<use xlink:href="#f2_2f" transform="matrix(12,0,0,12,131.6,900.8)" />
<use xlink:href="#f2_i" transform="matrix(12,0,0,12,138.7,900.8)" />
<use xlink:href="#f2_1k" transform="matrix(12,0,0,12,148.2,900.8)" />
<use xlink:href="#f2_24" transform="matrix(12,0,0,12,159.5,900.8)" />
<use xlink:href="#f2_21" transform="matrix(12,0,0,12,168.3,900.8)" />
<use xlink:href="#f2_2l" transform="matrix(12,0,0,12,176.7,900.8)" />
<use xlink:href="#f2_1x" transform="matrix(12,0,0,12,190.4,900.8)" />
<use xlink:href="#f2_2e" transform="matrix(12,0,0,12,198.4,900.8)" />
<use xlink:href="#f2_21" transform="matrix(12,0,0,12,204.7,900.8)" />
<use xlink:href="#f2_22" transform="matrix(12,0,0,12,217.5,900.8)" />
<use xlink:href="#f2_2b" transform="matrix(12,0,0,12,223,900.8)" />
<use xlink:href="#f2_2e" transform="matrix(12,0,0,12,232.5,900.8)" />
<use xlink:href="#f2_29" transform="matrix(12,0,0,12,239.1,900.8)" />
<use xlink:href="#f2_21" transform="matrix(12,0,0,12,252.6,900.8)" />
<use xlink:href="#f2_20" transform="matrix(12,0,0,12,260.7,900.8)" />
<use xlink:href="#f2_28" transform="matrix(12,0,0,12,275.1,900.8)" />
<use xlink:href="#f2_1x" transform="matrix(12,0,0,12,279.9,900.8)" />
<use xlink:href="#f2_2g" transform="matrix(12,0,0,12,287.9,900.8)" />
<use xlink:href="#f2_21" transform="matrix(12,0,0,12,293.4,900.8)" />
<use xlink:href="#f2_2e" transform="matrix(12,0,0,12,301.5,900.8)" />
<use xlink:href="#f2_2g" transform="matrix(12,0,0,12,312.1,900.8)" />
<use xlink:href="#f2_24" transform="matrix(12,0,0,12,317.6,900.8)" />
<use xlink:href="#f2_1x" transform="matrix(12,0,0,12,326.4,900.8)" />
<use xlink:href="#f2_2a" transform="matrix(12,0,0,12,334.5,900.8)" />
<use xlink:href="#f2_2c" transform="matrix(12,0,0,12,348,900.8)" />
<use xlink:href="#f2_2e" transform="matrix(12,0,0,12,357.2,900.8)" />
<use xlink:href="#f2_25" transform="matrix(12,0,0,12,363.7,900.8)" />
<use xlink:href="#f2_29" transform="matrix(12,0,0,12,368.5,900.8)" />
<use xlink:href="#f2_1x" transform="matrix(12,0,0,12,382.4,900.8)" />
<use xlink:href="#f2_2e" transform="matrix(12,0,0,12,390.5,900.8)" />
<use xlink:href="#f2_2l" transform="matrix(12,0,0,12,397.1,900.8)" />
<use xlink:href="#f2_29" transform="matrix(12,0,0,12,410.6,900.8)" />
<use xlink:href="#f2_21" transform="matrix(12,0,0,12,424.9,900.8)" />
<use xlink:href="#f2_2e" transform="matrix(12,0,0,12,433,900.8)" />
<use xlink:href="#f2_25" transform="matrix(12,0,0,12,439.6,900.8)" />
<use xlink:href="#f2_2f" transform="matrix(12,0,0,12,444,900.8)" />
<use xlink:href="#f2_2g" transform="matrix(12,0,0,12,451,900.8)" />
<use xlink:href="#f2_21" transform="matrix(12,0,0,12,456.4,900.8)" />
<use xlink:href="#f2_29" transform="matrix(12,0,0,12,464.9,900.8)" />
<use xlink:href="#f2_i" transform="matrix(12,0,0,12,478.4,900.8)" />
<use xlink:href="#f1_3d" transform="matrix(12,0,0,12,55,941.5)" />
<use xlink:href="#f2_15" transform="matrix(12,0,0,12,82.5,941.5)" />
<use xlink:href="#f2_2k" transform="matrix(12,0,0,12,93.9,941.5)" />
<use xlink:href="#f2_1x" transform="matrix(12,0,0,12,102.7,941.5)" />
<use xlink:href="#f2_29" transform="matrix(12,0,0,12,111.1,941.5)" />
<use xlink:href="#f2_2c" transform="matrix(12,0,0,12,125.1,941.5)" />
<use xlink:href="#f2_28" transform="matrix(12,0,0,12,134.6,941.5)" />
<use xlink:href="#f2_21" transform="matrix(12,0,0,12,139.3,941.5)" />
<use xlink:href="#f2_2f" transform="matrix(12,0,0,12,147.4,941.5)" />
<use xlink:href="#f2_2b" transform="matrix(12,0,0,12,165.3,941.5)" />
<use xlink:href="#f2_22" transform="matrix(12,0,0,12,175.2,941.5)" />
<use xlink:href="#f2_28" transform="matrix(12,0,0,12,192.1,941.5)" />
<use xlink:href="#f2_1x" transform="matrix(12,0,0,12,196.5,941.5)" />
<use xlink:href="#f2_2g" transform="matrix(12,0,0,12,204.5,941.5)" />
<use xlink:href="#f2_21" transform="matrix(12,0,0,12,210,941.5)" />
<use xlink:href="#f2_2e" transform="matrix(12,0,0,12,218.1,941.5)" />
<use xlink:href="#f2_1x" transform="matrix(12,0,0,12,224.3,941.5)" />
<use xlink:href="#f2_28" transform="matrix(12,0,0,12,232.7,941.5)" />
<use xlink:href="#f2_29" transform="matrix(12,0,0,12,248.5,941.5)" />
<use xlink:href="#f2_21" transform="matrix(12,0,0,12,262.4,941.5)" />
<use xlink:href="#f2_2e" transform="matrix(12,0,0,12,270.5,941.5)" />
<use xlink:href="#f2_25" transform="matrix(12,0,0,12,277.1,941.5)" />
<use xlink:href="#f2_2f" transform="matrix(12,0,0,12,281.8,941.5)" />
<use xlink:href="#f2_2g" transform="matrix(12,0,0,12,288.8,941.5)" />
<use xlink:href="#f2_21" transform="matrix(12,0,0,12,294.3,941.5)" />
<use xlink:href="#f2_29" transform="matrix(12,0,0,12,302.7,941.5)" />
<use xlink:href="#f2_2f" transform="matrix(12,0,0,12,316.2,941.5)" />
<use xlink:href="#f2_25" transform="matrix(12,0,0,12,334.9,941.5)" />
<use xlink:href="#f2_2a" transform="matrix(12,0,0,12,339.7,941.5)" />
<use xlink:href="#f2_1z" transform="matrix(12,0,0,12,348.9,941.5)" />
<use xlink:href="#f2_28" transform="matrix(12,0,0,12,357.3,941.5)" />
<use xlink:href="#f2_2h" transform="matrix(12,0,0,12,362,941.5)" />
<use xlink:href="#f2_20" transform="matrix(12,0,0,12,371.2,941.5)" />
<use xlink:href="#f2_21" transform="matrix(12,0,0,12,380.4,941.5)" />
<use xlink:href="#f2_22" transform="matrix(12,0,0,12,399.8,941.5)" />
<use xlink:href="#f2_1x" transform="matrix(12,0,0,12,405.6,941.5)" />
<use xlink:href="#f2_2f" transform="matrix(12,0,0,12,413.7,941.5)" />
<use xlink:href="#f2_1z" transform="matrix(12,0,0,12,421,941.5)" />
<use xlink:href="#f2_25" transform="matrix(12,0,0,12,429.4,941.5)" />
<use xlink:href="#f2_1z" transform="matrix(12,0,0,12,434.2,941.5)" />
<use xlink:href="#f2_2h" transform="matrix(12,0,0,12,442.3,941.5)" />
<use xlink:href="#f2_28" transform="matrix(12,0,0,12,451.8,941.5)" />
<use xlink:href="#f2_1x" transform="matrix(12,0,0,12,456.9,941.5)" />
<use xlink:href="#f2_2e" transform="matrix(12,0,0,12,465,941.5)" />
<use xlink:href="#f2_2i" transform="matrix(12,0,0,12,482.2,941.5)" />
<use xlink:href="#f2_1x" transform="matrix(12,0,0,12,491,941.5)" />
<use xlink:href="#f2_2f" transform="matrix(12,0,0,12,499.1,941.5)" />
<use xlink:href="#f2_1z" transform="matrix(12,0,0,12,506,941.5)" />
<use xlink:href="#f2_2h" transform="matrix(12,0,0,12,514.1,941.5)" />
<use xlink:href="#f2_28" transform="matrix(12,0,0,12,523.6,941.5)" />
<use xlink:href="#f2_1x" transform="matrix(12,0,0,12,528.4,941.5)" />
<use xlink:href="#f2_2e" transform="matrix(12,0,0,12,536.4,941.5)" />
<use xlink:href="#f2_1z" transform="matrix(12,0,0,12,553.6,941.5)" />
<use xlink:href="#f2_1x" transform="matrix(12,0,0,12,561.7,941.5)" />
<use xlink:href="#f2_29" transform="matrix(12,0,0,12,570.1,941.5)" />
<use xlink:href="#f2_1y" transform="matrix(12,0,0,12,584.1,941.5)" />
<use xlink:href="#f2_25" transform="matrix(12,0,0,12,593.6,941.5)" />
<use xlink:href="#f2_2h" transform="matrix(12,0,0,12,598.3,941.5)" />
<use xlink:href="#f2_29" transform="matrix(12,0,0,12,607.8,941.5)" />
<use xlink:href="#f2_g" transform="matrix(12,0,0,12,621.8,941.5)" />
<use xlink:href="#f2_25" transform="matrix(12,0,0,12,637.9,941.5)" />
<use xlink:href="#f2_2a" transform="matrix(12,0,0,12,642.7,941.5)" />
<use xlink:href="#f2_2g" transform="matrix(12,0,0,12,651.5,941.5)" />
<use xlink:href="#f2_21" transform="matrix(12,0,0,12,657,941.5)" />
<use xlink:href="#f2_2e" transform="matrix(12,0,0,12,665,941.5)" />
<use xlink:href="#f2_22" transform="matrix(12,0,0,12,671.6,941.5)" />
<use xlink:href="#f2_1x" transform="matrix(12,0,0,12,677.5,941.5)" />
<use xlink:href="#f2_2f" transform="matrix(12,0,0,12,685.6,941.5)" />
<use xlink:href="#f2_1z" transform="matrix(12,0,0,12,692.5,941.5)" />
<use xlink:href="#f2_25" transform="matrix(12,0,0,12,700.9,941.5)" />
<use xlink:href="#f2_1z" transform="matrix(12,0,0,12,705.7,941.5)" />
<use xlink:href="#f2_2h" transform="matrix(12,0,0,12,713.8,941.5)" />
<use xlink:href="#f2_28" transform="matrix(12,0,0,12,723.3,941.5)" />
<use xlink:href="#f2_1x" transform="matrix(12,0,0,12,728.1,941.5)" />
<use xlink:href="#f2_2e" transform="matrix(12,0,0,12,736.1,941.5)" />
<use xlink:href="#f2_1z" transform="matrix(12,0,0,12,82.5,966.1)" />
<use xlink:href="#f2_1x" transform="matrix(12,0,0,12,90.6,966.1)" />
<use xlink:href="#f2_29" transform="matrix(12,0,0,12,99,966.1)" />
<use xlink:href="#f2_1y" transform="matrix(12,0,0,12,113,966.1)" />
<use xlink:href="#f2_25" transform="matrix(12,0,0,12,122.1,966.1)" />
<use xlink:href="#f2_2h" transform="matrix(12,0,0,12,126.9,966.1)" />
<use xlink:href="#f2_29" transform="matrix(12,0,0,12,136.4,966.1)" />
<use xlink:href="#f2_1x" transform="matrix(12,0,0,12,155.1,966.1)" />
<use xlink:href="#f2_2a" transform="matrix(12,0,0,12,163.5,966.1)" />
<use xlink:href="#f2_20" transform="matrix(12,0,0,12,172.3,966.1)" />
<use xlink:href="#f2_1z" transform="matrix(12,0,0,12,186.2,966.1)" />
<use xlink:href="#f2_2b" transform="matrix(12,0,0,12,194.3,966.1)" />
<use xlink:href="#f2_2e" transform="matrix(12,0,0,12,203.8,966.1)" />
<use xlink:href="#f2_27" transform="matrix(12,0,0,12,210,966.1)" />
<use xlink:href="#f2_1z" transform="matrix(12,0,0,12,223.9,966.1)" />
<use xlink:href="#f2_1x" transform="matrix(12,0,0,12,232,966.1)" />
<use xlink:href="#f2_29" transform="matrix(12,0,0,12,240.1,966.1)" />
<use xlink:href="#f2_1y" transform="matrix(12,0,0,12,254,966.1)" />
<use xlink:href="#f2_25" transform="matrix(12,0,0,12,263.2,966.1)" />
<use xlink:href="#f2_2h" transform="matrix(12,0,0,12,267.9,966.1)" />
<use xlink:href="#f2_29" transform="matrix(12,0,0,12,277.4,966.1)" />
<use xlink:href="#f2_i" transform="matrix(12,0,0,12,291,966.1)" />
<use xlink:href="#f1_3d" transform="matrix(12,0,0,12,55,991.4)" />
<use xlink:href="#f2_1k" transform="matrix(12,0,0,12,82.5,991.4)" />
<use xlink:href="#f2_24" transform="matrix(12,0,0,12,93.9,991.4)" />
<use xlink:href="#f2_21" transform="matrix(12,0,0,12,102.7,991.4)" />
<use xlink:href="#f2_2f" transform="matrix(12,0,0,12,110.8,991.4)" />
<use xlink:href="#f2_21" transform="matrix(12,0,0,12,117.7,991.4)" />
<use xlink:href="#f2_2c" transform="matrix(12,0,0,12,130.6,991.4)" />
<use xlink:href="#f2_2e" transform="matrix(12,0,0,12,139.8,991.4)" />
<use xlink:href="#f2_2b" transform="matrix(12,0,0,12,146,991.4)" />
<use xlink:href="#f2_20" transform="matrix(12,0,0,12,155.5,991.4)" />
<use xlink:href="#f2_2h" transform="matrix(12,0,0,12,164.7,991.4)" />
<use xlink:href="#f2_1z" transform="matrix(12,0,0,12,173.8,991.4)" />
<use xlink:href="#f2_21" transform="matrix(12,0,0,12,181.9,991.4)" />
<use xlink:href="#f2_2f" transform="matrix(12,0,0,12,194.8,991.4)" />
<use xlink:href="#f2_21" transform="matrix(12,0,0,12,201.7,991.4)" />
<use xlink:href="#f2_1z" transform="matrix(12,0,0,12,209.8,991.4)" />
<use xlink:href="#f2_2b" transform="matrix(12,0,0,12,217.9,991.4)" />
<use xlink:href="#f2_2a" transform="matrix(12,0,0,12,227.4,991.4)" />
<use xlink:href="#f2_20" transform="matrix(12,0,0,12,236.2,991.4)" />
<use xlink:href="#f2_1x" transform="matrix(12,0,0,12,245.4,991.4)" />
<use xlink:href="#f2_2e" transform="matrix(12,0,0,12,253.4,991.4)" />
<use xlink:href="#f2_2l" transform="matrix(12,0,0,12,260,991.4)" />
<use xlink:href="#f2_2g" transform="matrix(12,0,0,12,273.3,991.4)" />
<use xlink:href="#f2_25" transform="matrix(12,0,0,12,278.8,991.4)" />
<use xlink:href="#f2_2f" transform="matrix(12,0,0,12,283.5,991.4)" />
<use xlink:href="#f2_2f" transform="matrix(12,0,0,12,290.5,991.4)" />
<use xlink:href="#f2_2h" transform="matrix(12,0,0,12,297.5,991.4)" />
<use xlink:href="#f2_21" transform="matrix(12,0,0,12,306.6,991.4)" />
<use xlink:href="#f2_2f" transform="matrix(12,0,0,12,315,991.4)" />
<use xlink:href="#f2_i" transform="matrix(12,0,0,12,322,991.4)" />
</g>
<image preserveAspectRatio="none" x="83" y="55" width="603" height="264" xlink:href="img/1.png" />
<image preserveAspectRatio="none" x="229" y="470" width="367" height="307" xlink:href="img/2.png" />
<g fill="#000000" >
<use xlink:href="#f3_m" transform="matrix(8,0,0,8,680.7,1132.9)" />
</g>
<defs>
<path d="M34,0V49l76,18V634L38,652v49H325V67L402,49V0ZM217,831c0,0,-48,0,-81,33c0,0,-34,33,-34,82c0,0,0,48,34,81c0,0,34,33,81,33c0,0,48,0,81,-33c0,0,33,-33,33,-81c0,0,0,-47,-33,-81c0,0,-32,-34,-81,-34Z" 
id="f0_25"
transform="scale(0.001,-0.001)" />

<path d="M49,-325v85c0,0,68,53,110,135c0,0,41,82,60,190c0,0,19,109,19,283c0,0,0,177,-19,285c0,0,-20,108,-61,189c0,0,-41,81,-109,133v85c0,0,149,-80,232,-172c0,0,83,-92,122,-217c0,0,39,-125,39,-302c0,0,0,-178,-39,-304c0,0,-39,-125,-122,-218c0,0,-83,-93,-232,-172Z" 
id="f0_d"
transform="scale(0.001,-0.001)" />

<path d="M51,0V55L180,74V926L51,946v54H543V946L415,926V74L543,55V0Z" 
id="f0_19"
transform="scale(0.001,-0.001)" />

<path d="M41,0V49l69,18V634L41,652v49H313l11,-61l50,26c0,0,105,54,188,54c0,0,194,0,194,-207V67L827,49V0H478V49l63,18V484c0,0,0,63,-27,98c0,0,-26,35,-75,35c0,0,-57,0,-114,-25V67L389,49V0Z" 
id="f0_2a"
transform="scale(0.001,-0.001)" />

<path d="M327,-14c0,0,-101,0,-156,45c0,0,-55,45,-55,131V624H25v48l108,29l87,159H332V701H480V624H332V176c0,0,0,-49,20,-73c0,0,20,-25,53,-25c0,0,40,0,97,12V26c0,0,-22,-15,-76,-27c0,0,-55,-13,-99,-13Z" 
id="f0_2g"
transform="scale(0.001,-0.001)" />

<path d="M434,423c0,0,0,101,-7,142c0,0,-6,40,-22,60c0,0,-16,19,-45,19c0,0,-44,0,-66,-48c0,0,-22,-49,-22,-173ZM389,-14c0,0,-172,0,-254,89c0,0,-83,90,-83,279c0,0,0,184,79,274c0,0,79,91,238,91c0,0,142,0,206,-76c0,0,64,-76,64,-237V345H271V333c0,0,0,-111,18,-158c0,0,18,-47,58,-72c0,0,40,-25,110,-25c0,0,66,0,166,22V42C623,42,582,18,517,1c0,0,-66,-15,-128,-15Z" 
id="f0_21"
transform="scale(0.001,-0.001)" />

<path d="M41,0V49l91,18V634L41,652v49H336l8,-145c0,0,80,89,144,128c0,0,64,40,117,40h40V468H604l-45,94c0,0,-47,0,-106,-21c0,0,-60,-20,-105,-48V67L460,49V0Z" 
id="f0_2e"
transform="scale(0.001,-0.001)" />

<path d="M425,-14c0,0,-187,0,-280,90c0,0,-93,90,-93,276c0,0,0,115,42,198c0,0,43,82,121,126c0,0,78,44,182,44c0,0,104,0,227,-26V486H571L539,609c0,0,-25,19,-50,26c0,0,-24,7,-65,7c0,0,-44,0,-79,-35c0,0,-36,-35,-56,-98c0,0,-20,-64,-20,-153c0,0,0,-150,47,-214c0,0,47,-64,148,-64c0,0,103,0,176,21V42C640,42,606,15,547,0c0,0,-59,-14,-122,-14Z" 
id="f0_1z"
transform="scale(0.001,-0.001)" />

<path d="M345,75c0,0,50,0,110,26V351l-63,-2c0,0,-72,-3,-100,-38c0,0,-28,-35,-28,-113c0,0,0,-63,22,-93c0,0,23,-30,59,-30ZM266,-14c0,0,-217,0,-217,208c0,0,0,79,32,126c0,0,32,48,93,71c0,0,60,22,190,25l91,2V521c0,0,0,126,-104,126c0,0,-62,0,-140,-39L183,521H134V691c0,0,112,17,165,21c0,0,53,5,108,5c0,0,264,0,264,-194V67L741,49V0H483L466,54C466,54,408,14,361,0c0,0,-47,-14,-95,-14Z" 
id="f0_1x"
transform="scale(0.001,-0.001)" />

<path d="M30,0V49l76,18V992l-72,18v50H322V67L398,49V0Z" 
id="f0_28"
transform="scale(0.001,-0.001)" />

<path d="M159,-329c0,0,-61,0,-123,14v180H81l32,-94c0,0,21,-17,55,-17c0,0,28,0,50,13c0,0,21,14,40,39c0,0,20,25,37,62c0,0,17,37,50,110L64,634L15,652v49H374V652L290,632L455,244L602,634l-82,18v49H749V652L698,637L421,-44c0,0,-47,-121,-83,-176c0,0,-36,-55,-80,-82c0,0,-43,-27,-99,-27Z" 
id="f0_2l"
transform="scale(0.001,-0.001)" />

<path d="M41,0V49l69,18V634L41,652v49H313l11,-61l50,26c0,0,105,54,188,54c0,0,125,0,167,-91c0,0,153,91,258,91c0,0,189,0,189,-207V67l71,-17V0H898V50l63,17V484c0,0,0,63,-24,98c0,0,-25,35,-74,35c0,0,-55,0,-119,-31c0,0,7,-32,7,-73V67L821,50V0H473V50l63,17V484c0,0,0,63,-25,98c0,0,-24,35,-73,35c0,0,-49,0,-113,-29V67L389,49V0Z" 
id="f0_29"
transform="scale(0.001,-0.001)" />

<path d="M276,-14c0,0,-57,0,-125,13C151,-1,83,10,48,23V214H97l28,-98c0,0,26,-26,69,-44c0,0,42,-17,86,-17c0,0,65,0,97,28c0,0,32,28,32,71c0,0,0,41,-31,65c0,0,-30,25,-133,57c0,0,-108,34,-154,92c0,0,-45,58,-45,143c0,0,0,95,71,152c0,0,71,57,183,57c0,0,77,0,207,-22V518H457l-24,82c0,0,-21,22,-60,35c0,0,-40,14,-75,14c0,0,-53,0,-79,-22c0,0,-26,-22,-26,-59c0,0,0,-40,32,-65c0,0,32,-26,132,-55c0,0,109,-34,155,-89c0,0,45,-55,45,-137c0,0,0,-117,-72,-177c0,0,-72,-59,-209,-59Z" 
id="f0_2f"
transform="scale(0.001,-0.001)" />

<path d="M273,157c0,0,-114,0,-193,80C80,237,0,317,0,431c0,0,0,112,80,192c0,0,79,80,193,80c0,0,113,0,192,-80c0,0,80,-80,80,-192c0,0,0,-114,-80,-194c0,0,-79,-80,-192,-80Z" 
id="f1_3d"
transform="scale(0.001,-0.001)" />

<path d="M235,0V40L394,60V936H356c0,0,-189,0,-258,-15L78,766H28v234H908V766H857L837,921c0,0,-22,5,-98,9c0,0,-75,4,-165,4H538V60L697,40V0Z" 
id="f2_1k"
transform="scale(0.001,-0.001)" />

<path d="M442,0V33l93,19V504c0,0,0,129,-124,129c0,0,-70,0,-168,-22V52L338,33V0H31V33l88,19v956L15,1026v34H243V756c0,0,0,-77,-5,-112c0,0,54,31,122,53c0,0,68,23,115,23c0,0,91,0,137,-53c0,0,47,-53,47,-154V52L744,33V0Z" 
id="f2_24"
transform="scale(0.001,-0.001)" />

<path d="M495,413c0,0,0,133,-34,190c0,0,-34,57,-105,57c0,0,-78,0,-119,-63c0,0,-42,-62,-42,-184ZM374,-14c0,0,-163,0,-239,87c0,0,-75,88,-75,283c0,0,0,183,77,273c0,0,76,91,219,91c0,0,269,0,269,-306V353H194V340c0,0,0,-103,23,-160c0,0,22,-57,70,-87c0,0,47,-29,124,-29c0,0,40,0,96,6c0,0,55,7,91,15V43C598,43,562,20,500,3c0,0,-61,-17,-126,-17Z" 
id="f2_21"
transform="scale(0.001,-0.001)" />

<path d="M431,0V33L535,52V499c0,0,0,62,-32,96c0,0,-32,33,-95,33c0,0,-66,0,-163,-22V52L350,33V0H32V33l89,19V649L32,668v33H237l6,-57c0,0,56,32,119,54c0,0,62,22,110,22c0,0,52,0,95,-20c0,0,44,-19,66,-62c0,0,57,32,134,57c0,0,77,25,128,25c0,0,179,0,179,-207V52l90,-19V0H846V33L950,52V499c0,0,0,129,-119,129c0,0,-19,0,-45,-3c0,0,-26,-3,-52,-7c0,0,-25,-4,-49,-8c0,0,-23,-5,-39,-8c0,0,13,-41,13,-89V52L764,33V0Z" 
id="f2_29"
transform="scale(0.001,-0.001)" />

<path d="M31,0V33l88,19V649L31,668v33H235l7,-87c0,0,44,37,121,71c0,0,76,35,121,35h11V530H463l-43,82c0,0,-37,0,-88,-10c0,0,-52,-10,-89,-26V52L363,33V0Z" 
id="f2_2e"
transform="scale(0.001,-0.001)" />

<path d="M32,0V33L151,52V649L52,668v33H275V52L395,33V0ZM201,850c0,0,-32,0,-56,24c0,0,-24,24,-24,56c0,0,0,34,24,58c0,0,24,24,56,24c0,0,34,0,58,-24c0,0,24,-24,24,-58c0,0,0,-32,-24,-56c0,0,-24,-24,-58,-24Z" 
id="f2_25"
transform="scale(0.001,-0.001)" />

<path d="M278,-14c0,0,-52,0,-115,11c0,0,-63,10,-99,23V193H98L134,95c0,0,56,-50,146,-50c0,0,144,0,144,123c0,0,0,91,-114,130l-66,21c0,0,-75,25,-110,50c0,0,-34,26,-53,63c0,0,-18,36,-18,89c0,0,0,92,63,145c0,0,63,54,170,54c0,0,77,0,193,-23V544H454l-32,81c0,0,-39,35,-124,35c0,0,-61,0,-92,-30c0,0,-32,-30,-32,-80c0,0,0,-43,29,-72c0,0,28,-29,86,-48c0,0,110,-38,144,-55c0,0,33,-17,57,-42c0,0,23,-25,36,-57c0,0,13,-32,13,-79c0,0,0,-104,-66,-158c0,0,-66,-53,-195,-53Z" 
id="f2_2f"
transform="scale(0.001,-0.001)" />

<path d="M249,-14c0,0,-71,0,-107,42c0,0,-35,42,-35,119V639H15v33l93,29l76,159h47V701H391V639H231V161c0,0,0,-48,22,-73c0,0,22,-24,57,-24c0,0,44,0,106,12V26C416,26,389,8,340,-2c0,0,-49,-12,-91,-12Z" 
id="f2_2g"
transform="scale(0.001,-0.001)" />

<path d="M382,45c0,0,188,0,188,314c0,0,0,143,-47,213c0,0,-46,69,-141,69c0,0,-87,0,-146,-24V58c0,0,67,-13,146,-13ZM25,-325v35l88,18V649L34,668v33H231l1,-41c0,0,31,27,84,43c0,0,53,17,107,17c0,0,134,0,208,-94c0,0,73,-93,73,-267c0,0,0,-178,-80,-276c0,0,-80,-97,-232,-97c0,0,-84,0,-160,16c0,0,4,-53,4,-84V-272l123,-18v-35Z" 
id="f2_2c"
transform="scale(0.001,-0.001)" />

<path d="M439,0V33l93,19V500c0,0,0,62,-30,97c0,0,-31,36,-94,36c0,0,-67,0,-165,-22V52L338,33V0H35V33l84,19V649L35,668v33H235l7,-57c0,0,57,33,122,54c0,0,65,22,108,22c0,0,91,0,137,-53c0,0,47,-53,47,-154V52L741,33V0Z" 
id="f2_2a"
transform="scale(0.001,-0.001)" />

<path d="M376,50c0,0,103,0,149,80c0,0,46,81,46,240c0,0,0,137,-47,204c0,0,-48,67,-148,67c0,0,-44,0,-87,-7c0,0,-44,-8,-63,-17V62c0,0,63,-12,150,-12Zm3,-64c0,0,-64,0,-141,14c0,0,-78,14,-136,37v971L0,1026v34H226V809c0,0,0,-40,-4,-148c0,0,74,59,188,59c0,0,143,0,219,-87c0,0,77,-87,77,-263c0,0,0,-189,-84,-287c0,0,-84,-97,-243,-97Z" 
id="f2_1y"
transform="scale(0.001,-0.001)" />

<path d="M327,-14L84,649L1,668v33H335V668L219,648L385,174L554,632h63L786,171L944,649L830,668v33h267V668l-78,-16L784,-14H726L553,448L382,-14Z" 
id="f2_2j"
transform="scale(0.001,-0.001)" />

<path d="M284,67c0,0,51,0,88,12c0,0,37,12,74,30V358l-98,-3c0,0,-100,-4,-135,-39c0,0,-35,-35,-35,-117c0,0,0,-132,106,-132ZM233,-14c0,0,-179,0,-179,208c0,0,0,70,27,116c0,0,27,46,87,70c0,0,60,24,173,27l105,3V519c0,0,0,72,-26,107c0,0,-27,34,-82,34c0,0,-75,0,-137,-35L176,538H134V691c0,0,121,26,213,26c0,0,115,0,169,-47c0,0,54,-47,54,-144V52L657,33V0H465L451,70c0,0,-85,-84,-218,-84Z" 
id="f2_1x"
transform="scale(0.001,-0.001)" />

<path d="M289,-14c0,0,-179,0,-179,205V649L20,668v33H233V200c0,0,0,-128,120,-128c0,0,92,0,173,23V649L420,668v33H649V52L738,33V0H533l-6,57C527,57,474,28,405,7c0,0,-69,-21,-116,-21Z" 
id="f2_2h"
transform="scale(0.001,-0.001)" />

<path d="M399,-14c0,0,-341,0,-341,370c0,0,0,175,87,269c0,0,87,95,249,95c0,0,101,0,220,-23V501H573L541,625c0,0,-62,35,-149,35c0,0,-200,0,-200,-304c0,0,0,-158,61,-225c0,0,61,-67,189,-67c0,0,109,0,189,24V43C631,43,595,16,530,1c0,0,-64,-15,-131,-15Z" 
id="f2_1z"
transform="scale(0.001,-0.001)" />

<path d="M31,0V33L150,52v956L31,1026v34H274V52L394,33V0Z" 
id="f2_28"
transform="scale(0.001,-0.001)" />

<path d="M383,64c0,0,85,0,152,28V645c0,0,-67,13,-152,13c0,0,-194,0,-194,-314c0,0,0,-141,48,-211c0,0,48,-69,146,-69ZM342,-14c0,0,-287,0,-287,358c0,0,0,184,82,280c0,0,81,96,239,96c0,0,81,0,163,-18c0,0,-4,25,-4,124v182l-118,18v34H659V52L745,33V0H548l-9,52c0,0,-84,-66,-197,-66Z" 
id="f2_20"
transform="scale(0.001,-0.001)" />

<path d="M148,-329c0,0,-58,0,-114,13v151H69l24,-71c0,0,23,-17,64,-17c0,0,39,0,72,22c0,0,33,23,60,67c0,0,27,44,68,157L90,649L19,668v33H344V668L233,648L423,158L606,649L497,668v33H758V668L685,652L411,-43c0,0,-48,-124,-84,-177c0,0,-36,-54,-79,-82c0,0,-44,-27,-100,-27Z" 
id="f2_2l"
transform="scale(0.001,-0.001)" />

<path d="M191,-20c0,0,-39,0,-65,25c0,0,-25,27,-25,64c0,0,0,38,26,64c0,0,26,26,64,26c0,0,38,0,64,-26c0,0,26,-26,26,-64c0,0,0,-37,-25,-64c0,0,-26,-25,-65,-25Z" 
id="f2_i"
transform="scale(0.001,-0.001)" />

<path d="M359,-270c0,0,124,0,192,46c0,0,67,47,67,129c0,0,0,43,-26,67c0,0,-26,24,-79,24H242c0,0,-32,-27,-51,-69c0,0,-20,-41,-20,-77c0,0,0,-64,46,-92c0,0,46,-28,142,-28Zm11,561c0,0,81,0,115,47c0,0,34,47,34,141c0,0,0,100,-35,142c0,0,-35,42,-113,42c0,0,-78,0,-114,-43c0,0,-37,-42,-37,-141c0,0,0,-98,36,-143c0,0,36,-45,114,-45ZM359,-329c0,0,-143,0,-218,44c0,0,-75,43,-75,125c0,0,0,39,27,78c0,0,26,38,98,89c0,0,-43,14,-72,48c0,0,-29,35,-29,74L208,262c0,0,-118,55,-118,217c0,0,0,115,73,178c0,0,73,63,211,63c0,0,28,0,71,-6c0,0,44,-6,67,-13l165,83l26,-32L599,644c0,0,50,-56,50,-165c0,0,0,-120,-72,-182c0,0,-73,-62,-208,-62c0,0,-62,0,-114,11L208,148c0,0,2,-13,29,-24c0,0,27,-12,67,-12H512c0,0,113,0,168,-49c0,0,55,-49,55,-134c0,0,0,-79,-44,-137c0,0,-43,-58,-128,-90c0,0,-84,-31,-204,-31Z" 
id="f2_23"
transform="scale(0.001,-0.001)" />

<path d="M64,0V34L168,59V639H47v36l121,29v49c0,0,0,155,61,239c0,0,62,84,173,84c0,0,58,0,107,-15V908H472l-33,92c0,0,-26,16,-62,16c0,0,-47,0,-66,-42c0,0,-19,-42,-19,-157V701H478V639H292V59L443,34V0Z" 
id="f2_22"
transform="scale(0.001,-0.001)" />

<path d="M377,45c0,0,99,0,147,73c0,0,47,73,47,237c0,0,0,161,-47,233c0,0,-47,72,-147,72c0,0,-97,0,-141,-69c0,0,-44,-69,-44,-236c0,0,0,-169,45,-240c0,0,44,-70,140,-70Zm0,-59c0,0,-158,0,-238,94c0,0,-81,95,-81,274c0,0,0,178,81,272c0,0,80,94,244,94c0,0,160,0,241,-92c0,0,82,-92,82,-274c0,0,0,-368,-329,-368Z" 
id="f2_2b"
transform="scale(0.001,-0.001)" />

<path d="M41,0V34L426,641H261c0,0,-42,0,-80,-7c0,0,-39,-7,-54,-19L104,515H69V701H586V665L201,60H407c0,0,42,0,89,10c0,0,47,10,66,25l39,147h35L617,0Z" 
id="f2_2m"
transform="scale(0.001,-0.001)" />

<path d="M360,-14L72,649L0,668v33H327V668L216,648L420,164L615,649L504,668v33H764V668L697,652L416,-14Z" 
id="f2_2i"
transform="scale(0.001,-0.001)" />

<path d="M410,-14c0,0,-86,0,-175,14C235,0,145,14,81,38V307h66L181,146c0,0,31,-37,94,-62c0,0,64,-24,132,-24c0,0,214,0,214,177c0,0,0,55,-41,93c0,0,-41,38,-128,68c0,0,-128,42,-185,68c0,0,-56,27,-95,63c0,0,-38,36,-62,87c0,0,-23,51,-23,125c0,0,0,132,90,201c0,0,90,69,263,69c0,0,125,0,278,-32V741H651L618,878c0,0,-76,56,-178,56c0,0,-92,0,-141,-34c0,0,-49,-34,-49,-104c0,0,0,-50,41,-86c0,0,41,-35,128,-63c0,0,171,-56,235,-97c0,0,64,-41,97,-103c0,0,34,-61,34,-143c0,0,0,-318,-375,-318Z" 
id="f0_1j"
transform="scale(0.001,-0.001)" />

<path d="M379,60c0,0,59,0,84,64c0,0,24,65,24,231c0,0,0,164,-24,227c0,0,-24,63,-84,63c0,0,-57,0,-80,-60c0,0,-22,-61,-22,-230c0,0,0,-173,23,-234c0,0,22,-61,79,-61Zm-2,-74c0,0,-161,0,-240,91c0,0,-79,91,-79,277c0,0,0,186,80,276c0,0,81,90,245,90c0,0,167,0,245,-93c0,0,78,-93,78,-273c0,0,0,-188,-81,-278c0,0,-81,-90,-248,-90Z" 
id="f0_2b"
transform="scale(0.001,-0.001)" />

<path d="M416,68c0,0,60,0,124,32V628c0,0,-58,15,-118,15c0,0,-67,0,-104,-73c0,0,-38,-73,-38,-216c0,0,0,-139,36,-212c0,0,35,-74,100,-74ZM369,-14c0,0,-155,0,-231,88c0,0,-76,90,-76,274c0,0,0,182,82,277c0,0,81,95,236,95c0,0,82,0,165,-20c0,0,-5,24,-5,115V992l-72,18v50H756V67L833,49V0H562L547,40C547,40,505,13,483,4c0,0,-23,-7,-51,-12c0,0,-28,-6,-63,-6Z" 
id="f0_20"
transform="scale(0.001,-0.001)" />

<path d="M13,0V34L95,46L325,350L122,649L40,668v33H357V668L264,648L399,446L554,649l-96,19v33H710V668L630,652L433,397L663,50L745,34V0H427V34l94,17L359,299L169,50L266,34V0Z" 
id="f2_2k"
transform="scale(0.001,-0.001)" />

<path d="M44,0V40L172,60V941L44,960v40H794V760H745L721,922c0,0,-83,11,-241,11H316V543H586l23,119h48V354H609L586,475H316V67H513c0,0,193,0,252,12l43,185h49L843,0Z" 
id="f2_15"
transform="scale(0.001,-0.001)" />

<path d="M58,-234v58c0,0,131,42,131,125c0,0,0,15,-11,27c0,0,-11,12,-38,25C140,1,89,27,89,75c0,0,0,40,25,61c0,0,26,21,65,21c0,0,48,0,77,-34c0,0,30,-34,30,-86c0,0,0,-101,-60,-170c0,0,-59,-69,-168,-101Z" 
id="f2_g"
transform="scale(0.001,-0.001)" />

<path d="M477,0V33l64,19L348,354L257,254V52L331,33V0H44V33l89,19v956L29,1026v34H257V338L544,647l-73,20v34H718V667L631,650L431,446L688,50L764,33V0Z" 
id="f2_27"
transform="scale(0.001,-0.001)" />

<path d="M46,0c0,0,-2,48,16,93c0,0,27,74,88,146c0,0,61,71,176,165c0,0,178,146,241,232c0,0,63,85,63,161c0,0,0,80,-57,135c0,0,-58,55,-149,55c0,0,-98,0,-156,-59c0,0,-58,-58,-59,-160L71,782c0,0,15,154,107,235c0,0,93,81,249,81c0,0,157,0,249,-87c0,0,92,-88,92,-217c0,0,0,-65,-27,-129c0,0,-27,-63,-89,-133c0,0,-62,-70,-207,-193C445,339,324,238,290,202c0,0,-35,-36,-57,-73H770V0Z" 
id="f3_m"
transform="scale(0.001,-0.001)" />


</defs>
</svg>