<?xml version="1.0" encoding="UTF-8" standalone="no"?>
<!DOCTYPE svg PUBLIC "-//W3C//DTD SVG 1.1//EN"
"http://www.w3.org/Graphics/SVG/1.1/DTD/svg11.dtd">
<svg viewBox="0 0 909 1286" version="1.1" xmlns="http://www.w3.org/2000/svg" xmlns:xlink="http://www.w3.org/1999/xlink">
<defs>
<clipPath id="c0_47"><path d="M0,1286.3V0H909.3V1286.3Z" /></clipPath>
</defs>
<image preserveAspectRatio="none" x="110" y="55" width="568" height="411" xlink:href="img/1.png" />
<g clip-path="url(#c0_47)">
<g fill="#000000" >
<use xlink:href="#f0_13" transform="matrix(12,0,0,12,55,525.6)" />
<use xlink:href="#f0_28" transform="matrix(12,0,0,12,68.3,525.6)" />
<use xlink:href="#f0_1x" transform="matrix(12,0,0,12,73,525.6)" />
<use xlink:href="#f0_2f" transform="matrix(12,0,0,12,82.2,525.6)" />
<use xlink:href="#f0_2f" transform="matrix(12,0,0,12,89.5,525.6)" />
<use xlink:href="#f0_25" transform="matrix(12,0,0,12,96.5,525.6)" />
<use xlink:href="#f0_22" transform="matrix(12,0,0,12,101.5,525.6)" />
<use xlink:href="#f0_25" transform="matrix(12,0,0,12,107.5,525.6)" />
<use xlink:href="#f0_1z" transform="matrix(12,0,0,12,112.9,525.6)" />
<use xlink:href="#f0_1x" transform="matrix(12,0,0,12,121,525.6)" />
<use xlink:href="#f0_2g" transform="matrix(12,0,0,12,130.2,525.6)" />
<use xlink:href="#f0_25" transform="matrix(12,0,0,12,136.4,525.6)" />
<use xlink:href="#f0_2b" transform="matrix(12,0,0,12,141.5,525.6)" />
<use xlink:href="#f0_2a" transform="matrix(12,0,0,12,150.6,525.6)" />
<use xlink:href="#f0_2b" transform="matrix(12,0,0,12,165.7,525.6)" />
<use xlink:href="#f0_22" transform="matrix(12,0,0,12,175,525.6)" />
<use xlink:href="#f0_1g" transform="matrix(12,0,0,12,185.6,525.6)" />
<use xlink:href="#f0_2b" transform="matrix(12,0,0,12,196.6,525.6)" />
<use xlink:href="#f0_2e" transform="matrix(12,0,0,12,205.8,525.6)" />
<use xlink:href="#f0_25" transform="matrix(12,0,0,12,213.5,525.6)" />
<use xlink:href="#f0_22" transform="matrix(12,0,0,12,218.9,525.6)" />
<use xlink:href="#f0_21" transform="matrix(12,0,0,12,224.8,525.6)" />
<use xlink:href="#f0_2e" transform="matrix(12,0,0,12,233.2,525.6)" />
<use xlink:href="#f0_1x" transform="matrix(12,0,0,12,240.9,525.6)" />
<use xlink:href="#f1_13" transform="matrix(12,0,0,12,55,546.5)" />
<use xlink:href="#f1_28" transform="matrix(12,0,0,12,67.5,546.5)" />
<use xlink:href="#f1_1x" transform="matrix(12,0,0,12,71.9,546.5)" />
<use xlink:href="#f1_2f" transform="matrix(12,0,0,12,80.3,546.5)" />
<use xlink:href="#f1_2f" transform="matrix(12,0,0,12,87.3,546.5)" />
<use xlink:href="#f1_19" transform="matrix(12,0,0,12,99,546.5)" />
<use xlink:href="#f1_u" transform="matrix(12,0,0,12,105.2,546.5)" />
<use xlink:href="#f1_13" transform="matrix(12,0,0,12,115.2,546.5)" />
<use xlink:href="#f1_1x" transform="matrix(12,0,0,12,127.3,546.5)" />
<use xlink:href="#f1_28" transform="matrix(12,0,0,12,135.7,546.5)" />
<use xlink:href="#f1_1z" transform="matrix(12,0,0,12,140.1,546.5)" />
<use xlink:href="#f1_1x" transform="matrix(12,0,0,12,148.5,546.5)" />
<use xlink:href="#f1_2e" transform="matrix(12,0,0,12,156.6,546.5)" />
<use xlink:href="#f1_21" transform="matrix(12,0,0,12,162.8,546.5)" />
<use xlink:href="#f1_1x" transform="matrix(12,0,0,12,170.9,546.5)" />
<use xlink:href="#f1_c" transform="matrix(12,0,0,12,183.8,546.5)" />
<use xlink:href="#f1_1z" transform="matrix(12,0,0,12,190,546.5)" />
<use xlink:href="#f1_1x" transform="matrix(12,0,0,12,198.1,546.5)" />
<use xlink:href="#f1_28" transform="matrix(12,0,0,12,206.5,546.5)" />
<use xlink:href="#f1_1z" transform="matrix(12,0,0,12,210.9,546.5)" />
<use xlink:href="#f1_1x" transform="matrix(12,0,0,12,219,546.5)" />
<use xlink:href="#f1_2e" transform="matrix(12,0,0,12,227,546.5)" />
<use xlink:href="#f1_21" transform="matrix(12,0,0,12,233.2,546.5)" />
<use xlink:href="#f1_2b" transform="matrix(12,0,0,12,241.3,546.5)" />
<use xlink:href="#f1_2h" transform="matrix(12,0,0,12,250.8,546.5)" />
<use xlink:href="#f1_2f" transform="matrix(12,0,0,12,260,546.5)" />
<use xlink:href="#f1_2f" transform="matrix(12,0,0,12,271.7,546.5)" />
<use xlink:href="#f1_2c" transform="matrix(12,0,0,12,278.7,546.5)" />
<use xlink:href="#f1_2b" transform="matrix(12,0,0,12,287.8,546.5)" />
<use xlink:href="#f1_2a" transform="matrix(12,0,0,12,297.4,546.5)" />
<use xlink:href="#f1_23" transform="matrix(12,0,0,12,306.2,546.5)" />
<use xlink:href="#f1_21" transform="matrix(12,0,0,12,315.3,546.5)" />
<use xlink:href="#f1_2f" transform="matrix(12,0,0,12,323.4,546.5)" />
<use xlink:href="#f1_i" transform="matrix(12,0,0,12,330.4,546.5)" />
<use xlink:href="#f1_21" transform="matrix(12,0,0,12,339.8,546.5)" />
<use xlink:href="#f1_23" transform="matrix(12,0,0,12,347.9,546.5)" />
<use xlink:href="#f1_u" transform="matrix(12,0,0,12,357.1,546.5)" />
<use xlink:href="#f2_1j" transform="matrix(12,0,0,12,367.2,546.5)" />
<use xlink:href="#f2_2l" transform="matrix(12,0,0,12,376.4,546.5)" />
<use xlink:href="#f2_2c" transform="matrix(12,0,0,12,384.4,546.5)" />
<use xlink:href="#f2_24" transform="matrix(12,0,0,12,393.6,546.5)" />
<use xlink:href="#f2_1x" transform="matrix(12,0,0,12,402.8,546.5)" />
<use xlink:href="#f2_g" transform="matrix(12,0,0,12,411.9,546.5)" />
<use xlink:href="#f2_1c" transform="matrix(12,0,0,12,421.1,546.5)" />
<use xlink:href="#f2_21" transform="matrix(12,0,0,12,431.4,546.5)" />
<use xlink:href="#f2_2h" transform="matrix(12,0,0,12,439.4,546.5)" />
<use xlink:href="#f2_1z" transform="matrix(12,0,0,12,448.6,546.5)" />
<use xlink:href="#f2_2b" transform="matrix(12,0,0,12,456.7,546.5)" />
<use xlink:href="#f2_2f" transform="matrix(12,0,0,12,465.8,546.5)" />
<use xlink:href="#f2_2b" transform="matrix(12,0,0,12,472.8,546.5)" />
<use xlink:href="#f2_28" transform="matrix(12,0,0,12,482,546.5)" />
<use xlink:href="#f2_21" transform="matrix(12,0,0,12,487,546.5)" />
<use xlink:href="#f2_2a" transform="matrix(12,0,0,12,495.2,546.5)" />
<use xlink:href="#f2_25" transform="matrix(12,0,0,12,504.4,546.5)" />
<use xlink:href="#f2_1x" transform="matrix(12,0,0,12,509.5,546.5)" />
<use xlink:href="#f1_g" transform="matrix(12,0,0,12,518.7,546.5)" />
<use xlink:href="#f1_21" transform="matrix(12,0,0,12,528.1,546.5)" />
<use xlink:href="#f1_2g" transform="matrix(12,0,0,12,536.2,546.5)" />
<use xlink:href="#f1_1z" transform="matrix(12,0,0,12,541.7,546.5)" />
<use xlink:href="#f1_i" transform="matrix(12,0,0,12,549.5,546.5)" />
<use xlink:href="#f1_d" transform="matrix(12,0,0,12,554.2,546.5)" />
<use xlink:href="#f1_13" transform="matrix(12,0,0,12,55,567.8)" />
<use xlink:href="#f1_28" transform="matrix(12,0,0,12,67.5,567.8)" />
<use xlink:href="#f1_1x" transform="matrix(12,0,0,12,71.9,567.8)" />
<use xlink:href="#f1_2f" transform="matrix(12,0,0,12,80.3,567.8)" />
<use xlink:href="#f1_2f" transform="matrix(12,0,0,12,87.3,567.8)" />
<use xlink:href="#f1_19" transform="matrix(12,0,0,12,94.2,567.8)" />
<use xlink:href="#f1_19" transform="matrix(12,0,0,12,100.4,567.8)" />
<use xlink:href="#f1_u" transform="matrix(12,0,0,12,106.7,567.8)" />
<use xlink:href="#f1_14" transform="matrix(12,0,0,12,116.6,567.8)" />
<use xlink:href="#f1_21" transform="matrix(12,0,0,12,129.9,567.8)" />
<use xlink:href="#f1_29" transform="matrix(12,0,0,12,138.3,567.8)" />
<use xlink:href="#f1_2b" transform="matrix(12,0,0,12,151.8,567.8)" />
<use xlink:href="#f1_2f" transform="matrix(12,0,0,12,161.3,567.8)" />
<use xlink:href="#f1_2c" transform="matrix(12,0,0,12,168.3,567.8)" />
<use xlink:href="#f1_2b" transform="matrix(12,0,0,12,177.5,567.8)" />
<use xlink:href="#f1_2a" transform="matrix(12,0,0,12,187,567.8)" />
<use xlink:href="#f1_23" transform="matrix(12,0,0,12,195.8,567.8)" />
<use xlink:href="#f1_25" transform="matrix(12,0,0,12,205.3,567.8)" />
<use xlink:href="#f1_1x" transform="matrix(12,0,0,12,210.1,567.8)" />
<use xlink:href="#f1_c" transform="matrix(12,0,0,12,222.9,567.8)" />
<use xlink:href="#f1_2f" transform="matrix(12,0,0,12,229.1,567.8)" />
<use xlink:href="#f1_27" transform="matrix(12,0,0,12,236.1,567.8)" />
<use xlink:href="#f1_21" transform="matrix(12,0,0,12,245.2,567.8)" />
<use xlink:href="#f1_28" transform="matrix(12,0,0,12,253.6,567.8)" />
<use xlink:href="#f1_21" transform="matrix(12,0,0,12,258.4,567.8)" />
<use xlink:href="#f1_2g" transform="matrix(12,0,0,12,266.5,567.8)" />
<use xlink:href="#f1_2b" transform="matrix(12,0,0,12,271.6,567.8)" />
<use xlink:href="#f1_2a" transform="matrix(12,0,0,12,281.1,567.8)" />
<use xlink:href="#f1_2b" transform="matrix(12,0,0,12,294.7,567.8)" />
<use xlink:href="#f1_22" transform="matrix(12,0,0,12,304.2,567.8)" />
<use xlink:href="#f1_2f" transform="matrix(12,0,0,12,314.4,567.8)" />
<use xlink:href="#f1_2c" transform="matrix(12,0,0,12,321.4,567.8)" />
<use xlink:href="#f1_2b" transform="matrix(12,0,0,12,330.6,567.8)" />
<use xlink:href="#f1_2a" transform="matrix(12,0,0,12,340.1,567.8)" />
<use xlink:href="#f1_23" transform="matrix(12,0,0,12,348.9,567.8)" />
<use xlink:href="#f1_25" transform="matrix(12,0,0,12,358.4,567.8)" />
<use xlink:href="#f1_2a" transform="matrix(12,0,0,12,363.2,567.8)" />
<use xlink:href="#f1_23" transform="matrix(12,0,0,12,372,567.8)" />
<use xlink:href="#f1_22" transform="matrix(12,0,0,12,386.2,567.8)" />
<use xlink:href="#f1_25" transform="matrix(12,0,0,12,392.1,567.8)" />
<use xlink:href="#f1_1y" transform="matrix(12,0,0,12,396.9,567.8)" />
<use xlink:href="#f1_2e" transform="matrix(12,0,0,12,406,567.8)" />
<use xlink:href="#f1_21" transform="matrix(12,0,0,12,412.3,567.8)" />
<use xlink:href="#f1_2f" transform="matrix(12,0,0,12,420.7,567.8)" />
<use xlink:href="#f1_i" transform="matrix(12,0,0,12,428,567.8)" />
<use xlink:href="#f1_1c" transform="matrix(12,0,0,12,437.5,567.8)" />
<use xlink:href="#f1_1x" transform="matrix(12,0,0,12,448.5,567.8)" />
<use xlink:href="#f1_2e" transform="matrix(12,0,0,12,456.6,567.8)" />
<use xlink:href="#f1_23" transform="matrix(12,0,0,12,462.8,567.8)" />
<use xlink:href="#f1_21" transform="matrix(12,0,0,12,471.9,567.8)" />
<use xlink:href="#f1_2f" transform="matrix(12,0,0,12,480,567.8)" />
<use xlink:href="#f1_2g" transform="matrix(12,0,0,12,487,567.8)" />
<use xlink:href="#f1_1z" transform="matrix(12,0,0,12,496.9,567.8)" />
<use xlink:href="#f1_28" transform="matrix(12,0,0,12,504.9,567.8)" />
<use xlink:href="#f1_1x" transform="matrix(12,0,0,12,509.7,567.8)" />
<use xlink:href="#f1_2f" transform="matrix(12,0,0,12,517.8,567.8)" />
<use xlink:href="#f1_2f" transform="matrix(12,0,0,12,525.1,567.8)" />
<use xlink:href="#f1_2b" transform="matrix(12,0,0,12,536.8,567.8)" />
<use xlink:href="#f1_22" transform="matrix(12,0,0,12,546.3,567.8)" />
<use xlink:href="#f1_2f" transform="matrix(12,0,0,12,556.5,567.8)" />
<use xlink:href="#f1_2c" transform="matrix(12,0,0,12,563.5,567.8)" />
<use xlink:href="#f1_2b" transform="matrix(12,0,0,12,572.7,567.8)" />
<use xlink:href="#f1_2a" transform="matrix(12,0,0,12,582.2,567.8)" />
<use xlink:href="#f1_23" transform="matrix(12,0,0,12,591,567.8)" />
<use xlink:href="#f1_21" transform="matrix(12,0,0,12,600.2,567.8)" />
<use xlink:href="#f1_2f" transform="matrix(12,0,0,12,608.2,567.8)" />
<use xlink:href="#f1_i" transform="matrix(12,0,0,12,615.2,567.8)" />
<use xlink:href="#f1_15" transform="matrix(12,0,0,12,625.4,567.8)" />
<use xlink:href="#f1_23" transform="matrix(12,0,0,12,636.7,567.8)" />
<use xlink:href="#f1_u" transform="matrix(12,0,0,12,645.9,567.8)" />
<use xlink:href="#f1_15" transform="matrix(12,0,0,12,655.8,567.8)" />
<use xlink:href="#f1_2h" transform="matrix(12,0,0,12,667.1,567.8)" />
<use xlink:href="#f1_2f" transform="matrix(12,0,0,12,676.3,567.8)" />
<use xlink:href="#f1_2c" transform="matrix(12,0,0,12,683.3,567.8)" />
<use xlink:href="#f1_2b" transform="matrix(12,0,0,12,692.1,567.8)" />
<use xlink:href="#f1_2a" transform="matrix(12,0,0,12,701.6,567.8)" />
<use xlink:href="#f1_23" transform="matrix(12,0,0,12,710.4,567.8)" />
<use xlink:href="#f1_25" transform="matrix(12,0,0,12,719.9,567.8)" />
<use xlink:href="#f1_1x" transform="matrix(12,0,0,12,724.3,567.8)" />
<use xlink:href="#f2_g" transform="matrix(12,0,0,12,732.5,567.8)" />
<use xlink:href="#f2_1j" transform="matrix(12,0,0,12,742.1,567.8)" />
<use xlink:href="#f2_2c" transform="matrix(12,0,0,12,751.2,567.8)" />
<use xlink:href="#f2_2b" transform="matrix(12,0,0,12,760.4,567.8)" />
<use xlink:href="#f2_2a" transform="matrix(12,0,0,12,769.6,567.8)" />
<use xlink:href="#f2_23" transform="matrix(12,0,0,12,778.7,567.8)" />
<use xlink:href="#f2_25" transform="matrix(12,0,0,12,787.9,567.8)" />
<use xlink:href="#f2_28" transform="matrix(12,0,0,12,793,567.8)" />
<use xlink:href="#f2_28" transform="matrix(12,0,0,12,798.1,567.8)" />
<use xlink:href="#f2_1x" transform="matrix(12,0,0,12,803.2,567.8)" />
<use xlink:href="#f1_g" transform="matrix(12,0,0,12,812.5,567.8)" />
<use xlink:href="#f1_21" transform="matrix(12,0,0,12,822,567.8)" />
<use xlink:href="#f1_2g" transform="matrix(12,0,0,12,829.7,567.8)" />
<use xlink:href="#f1_1z" transform="matrix(12,0,0,12,835.1,567.8)" />
<use xlink:href="#f1_i" transform="matrix(12,0,0,12,843.3,567.8)" />
<use xlink:href="#f1_13" transform="matrix(12,0,0,12,55,588.7)" />
<use xlink:href="#f1_28" transform="matrix(12,0,0,12,67.5,588.7)" />
<use xlink:href="#f1_1x" transform="matrix(12,0,0,12,71.9,588.7)" />
<use xlink:href="#f1_2f" transform="matrix(12,0,0,12,80.3,588.7)" />
<use xlink:href="#f1_2f" transform="matrix(12,0,0,12,87.3,588.7)" />
<use xlink:href="#f1_19" transform="matrix(12,0,0,12,94.2,588.7)" />
<use xlink:href="#f1_19" transform="matrix(12,0,0,12,100.4,588.7)" />
<use xlink:href="#f1_19" transform="matrix(12,0,0,12,106.7,588.7)" />
<use xlink:href="#f1_u" transform="matrix(12,0,0,12,113,588.7)" />
<use xlink:href="#f1_18" transform="matrix(12,0,0,12,122.9,588.7)" />
<use xlink:href="#f1_21" transform="matrix(12,0,0,12,136.1,588.7)" />
<use xlink:href="#f1_2k" transform="matrix(12,0,0,12,144.1,588.7)" />
<use xlink:href="#f1_1x" transform="matrix(12,0,0,12,152.9,588.7)" />
<use xlink:href="#f1_1z" transform="matrix(12,0,0,12,161,588.7)" />
<use xlink:href="#f1_2g" transform="matrix(12,0,0,12,169.1,588.7)" />
<use xlink:href="#f1_25" transform="matrix(12,0,0,12,174.9,588.7)" />
<use xlink:href="#f1_2a" transform="matrix(12,0,0,12,179.7,588.7)" />
<use xlink:href="#f1_21" transform="matrix(12,0,0,12,188.5,588.7)" />
<use xlink:href="#f1_28" transform="matrix(12,0,0,12,196.9,588.7)" />
<use xlink:href="#f1_28" transform="matrix(12,0,0,12,202,588.7)" />
<use xlink:href="#f1_25" transform="matrix(12,0,0,12,207.1,588.7)" />
<use xlink:href="#f1_20" transform="matrix(12,0,0,12,211.9,588.7)" />
<use xlink:href="#f1_1x" transform="matrix(12,0,0,12,221.1,588.7)" />
<use xlink:href="#f1_c" transform="matrix(12,0,0,12,234,588.7)" />
<use xlink:href="#f1_23" transform="matrix(12,0,0,12,240.2,588.7)" />
<use xlink:href="#f1_28" transform="matrix(12,0,0,12,249.7,588.7)" />
<use xlink:href="#f1_1x" transform="matrix(12,0,0,12,254.1,588.7)" />
<use xlink:href="#f1_2f" transform="matrix(12,0,0,12,262.6,588.7)" />
<use xlink:href="#f1_2f" transform="matrix(12,0,0,12,269.5,588.7)" />
<use xlink:href="#f1_2f" transform="matrix(12,0,0,12,281.3,588.7)" />
<use xlink:href="#f1_2c" transform="matrix(12,0,0,12,288.3,588.7)" />
<use xlink:href="#f1_2b" transform="matrix(12,0,0,12,297.5,588.7)" />
<use xlink:href="#f1_2a" transform="matrix(12,0,0,12,307,588.7)" />
<use xlink:href="#f1_23" transform="matrix(12,0,0,12,315.8,588.7)" />
<use xlink:href="#f1_21" transform="matrix(12,0,0,12,325,588.7)" />
<use xlink:href="#f1_2f" transform="matrix(12,0,0,12,333.4,588.7)" />
<use xlink:href="#f1_2j" transform="matrix(12,0,0,12,345.1,588.7)" />
<use xlink:href="#f1_25" transform="matrix(12,0,0,12,358.6,588.7)" />
<use xlink:href="#f1_2g" transform="matrix(12,0,0,12,363,588.7)" />
<use xlink:href="#f1_24" transform="matrix(12,0,0,12,368.5,588.7)" />
<use xlink:href="#f1_2f" transform="matrix(12,0,0,12,382.1,588.7)" />
<use xlink:href="#f1_25" transform="matrix(12,0,0,12,389.4,588.7)" />
<use xlink:href="#f1_28" transform="matrix(12,0,0,12,394.5,588.7)" />
<use xlink:href="#f1_25" transform="matrix(12,0,0,12,399.6,588.7)" />
<use xlink:href="#f1_1z" transform="matrix(12,0,0,12,404.6,588.7)" />
<use xlink:href="#f1_25" transform="matrix(12,0,0,12,413,588.7)" />
<use xlink:href="#f1_2b" transform="matrix(12,0,0,12,417.4,588.7)" />
<use xlink:href="#f1_2h" transform="matrix(12,0,0,12,427.3,588.7)" />
<use xlink:href="#f1_2f" transform="matrix(12,0,0,12,436.4,588.7)" />
<use xlink:href="#f1_2f" transform="matrix(12,0,0,12,448.2,588.7)" />
<use xlink:href="#f1_2c" transform="matrix(12,0,0,12,455.1,588.7)" />
<use xlink:href="#f1_25" transform="matrix(12,0,0,12,464.6,588.7)" />
<use xlink:href="#f1_1z" transform="matrix(12,0,0,12,469,588.7)" />
<use xlink:href="#f1_2h" transform="matrix(12,0,0,12,477.1,588.7)" />
<use xlink:href="#f1_28" transform="matrix(12,0,0,12,486.6,588.7)" />
<use xlink:href="#f1_21" transform="matrix(12,0,0,12,491.4,588.7)" />
<use xlink:href="#f1_2f" transform="matrix(12,0,0,12,500,588.7)" />
<use xlink:href="#f1_i" transform="matrix(12,0,0,12,506.9,588.7)" />
<use xlink:href="#f1_21" transform="matrix(12,0,0,12,516.5,588.7)" />
<use xlink:href="#f1_23" transform="matrix(12,0,0,12,524.5,588.7)" />
<use xlink:href="#f2_u" transform="matrix(12,0,0,12,533.7,588.7)" />
<use xlink:href="#f2_15" transform="matrix(12,0,0,12,544.7,588.7)" />
<use xlink:href="#f2_2h" transform="matrix(12,0,0,12,556.1,588.7)" />
<use xlink:href="#f2_2c" transform="matrix(12,0,0,12,565.2,588.7)" />
<use xlink:href="#f2_28" transform="matrix(12,0,0,12,574.4,588.7)" />
<use xlink:href="#f2_21" transform="matrix(12,0,0,12,579.5,588.7)" />
<use xlink:href="#f2_1z" transform="matrix(12,0,0,12,587.6,588.7)" />
<use xlink:href="#f2_2g" transform="matrix(12,0,0,12,595.7,588.7)" />
<use xlink:href="#f2_21" transform="matrix(12,0,0,12,600.8,588.7)" />
<use xlink:href="#f2_28" transform="matrix(12,0,0,12,608.9,588.7)" />
<use xlink:href="#f2_28" transform="matrix(12,0,0,12,614,588.7)" />
<use xlink:href="#f2_1x" transform="matrix(12,0,0,12,619.1,588.7)" />
<use xlink:href="#f2_g" transform="matrix(12,0,0,12,627.9,588.7)" />
<use xlink:href="#f2_18" transform="matrix(12,0,0,12,637.5,588.7)" />
<use xlink:href="#f2_2l" transform="matrix(12,0,0,12,650.7,588.7)" />
<use xlink:href="#f2_1x" transform="matrix(12,0,0,12,658.8,588.7)" />
<use xlink:href="#f2_28" transform="matrix(12,0,0,12,668,588.7)" />
<use xlink:href="#f2_2b" transform="matrix(12,0,0,12,673.1,588.7)" />
<use xlink:href="#f2_2a" transform="matrix(12,0,0,12,682.2,588.7)" />
<use xlink:href="#f2_21" transform="matrix(12,0,0,12,691.4,588.7)" />
<use xlink:href="#f2_29" transform="matrix(12,0,0,12,699.5,588.7)" />
<use xlink:href="#f2_1x" transform="matrix(12,0,0,12,712.7,588.7)" />
<use xlink:href="#f1_g" transform="matrix(12,0,0,12,721.9,588.7)" />
<use xlink:href="#f1_21" transform="matrix(12,0,0,12,731,588.7)" />
<use xlink:href="#f1_2g" transform="matrix(12,0,0,12,739.1,588.7)" />
<use xlink:href="#f1_1z" transform="matrix(12,0,0,12,744.6,588.7)" />
<use xlink:href="#f1_i" transform="matrix(12,0,0,12,752.3,588.7)" />
</g>
</g>
<image preserveAspectRatio="none" x="55" y="635" width="424" height="281" xlink:href="img/2.png" />
<g clip-path="url(#c0_47)">
<g fill="#000000" >
<use xlink:href="#f0_o" transform="matrix(12,0,0,12,55,954.3)" />
<use xlink:href="#f0_i" transform="matrix(12,0,0,12,64.2,954.3)" />
<use xlink:href="#f0_m" transform="matrix(12,0,0,12,69,954.3)" />
<use xlink:href="#f0_i" transform="matrix(12,0,0,12,78.1,954.3)" />
<use xlink:href="#f0_m" transform="matrix(12,0,0,12,82.9,954.3)" />
<use xlink:href="#f0_1g" transform="matrix(12,0,0,12,96.5,954.3)" />
<use xlink:href="#f0_18" transform="matrix(12,0,0,12,107.5,954.3)" />
<use xlink:href="#f0_1p" transform="matrix(12,0,0,12,121.7,954.3)" />
<use xlink:href="#f0_1c" transform="matrix(12,0,0,12,135,954.3)" />
<use xlink:href="#f0_1l" transform="matrix(12,0,0,12,147.1,954.3)" />
<use xlink:href="#f0_1d" transform="matrix(12,0,0,12,160.3,954.3)" />
<use xlink:href="#f0_13" transform="matrix(12,0,0,12,182.6,954.3)" />
<use xlink:href="#f0_1f" transform="matrix(12,0,0,12,195.8,954.3)" />
<use xlink:href="#f0_15" transform="matrix(12,0,0,12,210.1,954.3)" />
<use xlink:href="#f0_1c" transform="matrix(12,0,0,12,222.2,954.3)" />
<use xlink:href="#f0_15" transform="matrix(12,0,0,12,234.3,954.3)" />
<use xlink:href="#f0_1e" transform="matrix(12,0,0,12,246.4,954.3)" />
<use xlink:href="#f0_1k" transform="matrix(12,0,0,12,259.6,954.3)" />
<use xlink:href="#f0_15" transform="matrix(12,0,0,12,271.8,954.3)" />
<use xlink:href="#f0_1i" transform="matrix(12,0,0,12,283.9,954.3)" />
<use xlink:href="#f0_11" transform="matrix(12,0,0,12,297.1,954.3)" />
<use xlink:href="#f0_1k" transform="matrix(12,0,0,12,310.7,954.3)" />
<use xlink:href="#f0_11" transform="matrix(12,0,0,12,322.8,954.3)" />
<use xlink:href="#f1_11" transform="matrix(12,0,0,12,55,975.6)" />
<use xlink:href="#f1_2a" transform="matrix(12,0,0,12,68.3,975.6)" />
<use xlink:href="#f1_25" transform="matrix(12,0,0,12,77.4,975.6)" />
<use xlink:href="#f1_29" transform="matrix(12,0,0,12,82.5,975.6)" />
<use xlink:href="#f1_1x" transform="matrix(12,0,0,12,96.5,975.6)" />
<use xlink:href="#f1_28" transform="matrix(12,0,0,12,104.9,975.6)" />
<use xlink:href="#f1_2f" transform="matrix(12,0,0,12,109.7,975.6)" />
<use xlink:href="#f1_1y" transform="matrix(12,0,0,12,123.6,975.6)" />
<use xlink:href="#f1_21" transform="matrix(12,0,0,12,132.4,975.6)" />
<use xlink:href="#f1_28" transform="matrix(12,0,0,12,140.8,975.6)" />
<use xlink:href="#f1_2b" transform="matrix(12,0,0,12,145.2,975.6)" />
<use xlink:href="#f1_2a" transform="matrix(12,0,0,12,155.2,975.6)" />
<use xlink:href="#f1_23" transform="matrix(12,0,0,12,164,975.6)" />
<use xlink:href="#f1_25" transform="matrix(12,0,0,12,173.5,975.6)" />
<use xlink:href="#f1_2a" transform="matrix(12,0,0,12,178.3,975.6)" />
<use xlink:href="#f1_23" transform="matrix(12,0,0,12,187.4,975.6)" />
<use xlink:href="#f1_2g" transform="matrix(12,0,0,12,203.2,975.6)" />
<use xlink:href="#f1_2b" transform="matrix(12,0,0,12,208.3,975.6)" />
<use xlink:href="#f1_2g" transform="matrix(12,0,0,12,224,975.6)" />
<use xlink:href="#f1_24" transform="matrix(12,0,0,12,229.5,975.6)" />
<use xlink:href="#f1_21" transform="matrix(12,0,0,12,238.3,975.6)" />
<use xlink:href="#f1_2c" transform="matrix(12,0,0,12,253,975.6)" />
<use xlink:href="#f1_24" transform="matrix(12,0,0,12,262.1,975.6)" />
<use xlink:href="#f1_2l" transform="matrix(12,0,0,12,271.3,975.6)" />
<use xlink:href="#f1_28" transform="matrix(12,0,0,12,280.1,975.6)" />
<use xlink:href="#f1_2h" transform="matrix(12,0,0,12,284.9,975.6)" />
<use xlink:href="#f1_29" transform="matrix(12,0,0,12,294.4,975.6)" />
<use xlink:href="#f1_1z" transform="matrix(12,0,0,12,314.9,975.6)" />
<use xlink:href="#f1_2b" transform="matrix(12,0,0,12,323,975.6)" />
<use xlink:href="#f1_21" transform="matrix(12,0,0,12,332.5,975.6)" />
<use xlink:href="#f1_28" transform="matrix(12,0,0,12,340.9,975.6)" />
<use xlink:href="#f1_21" transform="matrix(12,0,0,12,345.3,975.6)" />
<use xlink:href="#f1_2a" transform="matrix(12,0,0,12,353.7,975.6)" />
<use xlink:href="#f1_2g" transform="matrix(12,0,0,12,362.5,975.6)" />
<use xlink:href="#f1_21" transform="matrix(12,0,0,12,368,975.6)" />
<use xlink:href="#f1_2e" transform="matrix(12,0,0,12,376.1,975.6)" />
<use xlink:href="#f1_1x" transform="matrix(12,0,0,12,382.3,975.6)" />
<use xlink:href="#f1_2g" transform="matrix(12,0,0,12,390.3,975.6)" />
<use xlink:href="#f1_1x" transform="matrix(12,0,0,12,395.8,975.6)" />
<use xlink:href="#f1_1x" transform="matrix(12,0,0,12,410.5,975.6)" />
<use xlink:href="#f1_2e" transform="matrix(12,0,0,12,418.5,975.6)" />
<use xlink:href="#f1_21" transform="matrix(12,0,0,12,424.4,975.6)" />
<use xlink:href="#f1_1z" transform="matrix(12,0,0,12,439,975.6)" />
<use xlink:href="#f1_2b" transform="matrix(12,0,0,12,447.1,975.6)" />
<use xlink:href="#f1_29" transform="matrix(12,0,0,12,456.6,975.6)" />
<use xlink:href="#f1_29" transform="matrix(12,0,0,12,470.5,975.6)" />
<use xlink:href="#f1_2b" transform="matrix(12,0,0,12,484.1,975.6)" />
<use xlink:href="#f1_2a" transform="matrix(12,0,0,12,494,975.6)" />
<use xlink:href="#f1_28" transform="matrix(12,0,0,12,503.2,975.6)" />
<use xlink:href="#f1_2l" transform="matrix(12,0,0,12,507.9,975.6)" />
<use xlink:href="#f1_1z" transform="matrix(12,0,0,12,523.3,975.6)" />
<use xlink:href="#f1_1x" transform="matrix(12,0,0,12,531.4,975.6)" />
<use xlink:href="#f1_28" transform="matrix(12,0,0,12,539.8,975.6)" />
<use xlink:href="#f1_28" transform="matrix(12,0,0,12,544.9,975.6)" />
<use xlink:href="#f1_21" transform="matrix(12,0,0,12,549.7,975.6)" />
<use xlink:href="#f1_20" transform="matrix(12,0,0,12,557.8,975.6)" />
<use xlink:href="#f1_1z" transform="matrix(12,0,0,12,573.5,975.6)" />
<use xlink:href="#f1_2b" transform="matrix(12,0,0,12,581.6,975.6)" />
<use xlink:href="#f1_21" transform="matrix(12,0,0,12,591.1,975.6)" />
<use xlink:href="#f1_28" transform="matrix(12,0,0,12,599.5,975.6)" />
<use xlink:href="#f1_21" transform="matrix(12,0,0,12,603.9,975.6)" />
<use xlink:href="#f1_2a" transform="matrix(12,0,0,12,612.3,975.6)" />
<use xlink:href="#f1_2g" transform="matrix(12,0,0,12,621.1,975.6)" />
<use xlink:href="#f1_21" transform="matrix(12,0,0,12,626.6,975.6)" />
<use xlink:href="#f1_2e" transform="matrix(12,0,0,12,634.7,975.6)" />
<use xlink:href="#f1_1x" transform="matrix(12,0,0,12,640.9,975.6)" />
<use xlink:href="#f1_2g" transform="matrix(12,0,0,12,649,975.6)" />
<use xlink:href="#f1_21" transform="matrix(12,0,0,12,654.4,975.6)" />
<use xlink:href="#f1_2f" transform="matrix(12,0,0,12,662.5,975.6)" />
<use xlink:href="#f1_2b" transform="matrix(12,0,0,12,675.7,975.6)" />
<use xlink:href="#f1_2e" transform="matrix(12,0,0,12,685.2,975.6)" />
<use xlink:href="#f1_13" transform="matrix(12,0,0,12,697.6,975.6)" />
<use xlink:href="#f1_2a" transform="matrix(12,0,0,12,709.7,975.6)" />
<use xlink:href="#f1_25" transform="matrix(12,0,0,12,718.9,975.6)" />
<use xlink:href="#f1_20" transform="matrix(12,0,0,12,723.3,975.6)" />
<use xlink:href="#f1_1x" transform="matrix(12,0,0,12,732.8,975.6)" />
<use xlink:href="#f1_2e" transform="matrix(12,0,0,12,740.9,975.6)" />
<use xlink:href="#f1_25" transform="matrix(12,0,0,12,747.5,975.6)" />
<use xlink:href="#f1_1x" transform="matrix(12,0,0,12,751.9,975.6)" />
<use xlink:href="#f1_2a" transform="matrix(12,0,0,12,760.3,975.6)" />
<use xlink:href="#f1_2f" transform="matrix(12,0,0,12,769.5,975.6)" />
<use xlink:href="#f1_i" transform="matrix(12,0,0,12,776.4,975.6)" />
<use xlink:href="#f1_1k" transform="matrix(12,0,0,12,787.8,975.6)" />
<use xlink:href="#f1_24" transform="matrix(12,0,0,12,798.8,975.6)" />
<use xlink:href="#f1_21" transform="matrix(12,0,0,12,807.6,975.6)" />
<use xlink:href="#f1_2l" transform="matrix(12,0,0,12,816,975.6)" />
<use xlink:href="#f1_1x" transform="matrix(12,0,0,12,831.3,975.6)" />
<use xlink:href="#f1_2e" transform="matrix(12,0,0,12,839.4,975.6)" />
<use xlink:href="#f1_21" transform="matrix(12,0,0,12,845.6,975.6)" />
<use xlink:href="#f1_29" transform="matrix(12,0,0,12,55,996.5)" />
<use xlink:href="#f1_2b" transform="matrix(12,0,0,12,68.6,996.5)" />
<use xlink:href="#f1_2e" transform="matrix(12,0,0,12,78.1,996.5)" />
<use xlink:href="#f1_21" transform="matrix(12,0,0,12,84.3,996.5)" />
<use xlink:href="#f1_1x" transform="matrix(12,0,0,12,97.1,996.5)" />
<use xlink:href="#f1_20" transform="matrix(12,0,0,12,105.2,996.5)" />
<use xlink:href="#f1_2i" transform="matrix(12,0,0,12,114.4,996.5)" />
<use xlink:href="#f1_1x" transform="matrix(12,0,0,12,123.6,996.5)" />
<use xlink:href="#f1_2a" transform="matrix(12,0,0,12,132,996.5)" />
<use xlink:href="#f1_1z" transform="matrix(12,0,0,12,140.8,996.5)" />
<use xlink:href="#f1_21" transform="matrix(12,0,0,12,148.9,996.5)" />
<use xlink:href="#f1_20" transform="matrix(12,0,0,12,157,996.5)" />
<use xlink:href="#f1_2g" transform="matrix(12,0,0,12,170.9,996.5)" />
<use xlink:href="#f1_24" transform="matrix(12,0,0,12,176.3,996.5)" />
<use xlink:href="#f1_1x" transform="matrix(12,0,0,12,185.1,996.5)" />
<use xlink:href="#f1_2a" transform="matrix(12,0,0,12,193.6,996.5)" />
<use xlink:href="#f1_2f" transform="matrix(12,0,0,12,207.1,996.5)" />
<use xlink:href="#f1_2c" transform="matrix(12,0,0,12,214.1,996.5)" />
<use xlink:href="#f1_2b" transform="matrix(12,0,0,12,223.2,996.5)" />
<use xlink:href="#f1_2a" transform="matrix(12,0,0,12,232.8,996.5)" />
<use xlink:href="#f1_23" transform="matrix(12,0,0,12,241.6,996.5)" />
<use xlink:href="#f1_21" transform="matrix(12,0,0,12,250.7,996.5)" />
<use xlink:href="#f1_2f" transform="matrix(12,0,0,12,258.8,996.5)" />
<use xlink:href="#f1_25" transform="matrix(12,0,0,12,270.9,996.5)" />
<use xlink:href="#f1_2a" transform="matrix(12,0,0,12,275.6,996.5)" />
<use xlink:href="#f1_24" transform="matrix(12,0,0,12,289.6,996.5)" />
<use xlink:href="#f1_1x" transform="matrix(12,0,0,12,298.4,996.5)" />
<use xlink:href="#f1_2i" transform="matrix(12,0,0,12,306.8,996.5)" />
<use xlink:href="#f1_25" transform="matrix(12,0,0,12,315.9,996.5)" />
<use xlink:href="#f1_2a" transform="matrix(12,0,0,12,320.7,996.5)" />
<use xlink:href="#f1_23" transform="matrix(12,0,0,12,329.9,996.5)" />
<use xlink:href="#f1_2g" transform="matrix(12,0,0,12,343.8,996.5)" />
<use xlink:href="#f1_2e" transform="matrix(12,0,0,12,349.3,996.5)" />
<use xlink:href="#f1_2h" transform="matrix(12,0,0,12,355.5,996.5)" />
<use xlink:href="#f1_21" transform="matrix(12,0,0,12,364.6,996.5)" />
<use xlink:href="#f1_2g" transform="matrix(12,0,0,12,377.1,996.5)" />
<use xlink:href="#f1_25" transform="matrix(12,0,0,12,382.6,996.5)" />
<use xlink:href="#f1_2f" transform="matrix(12,0,0,12,387,996.5)" />
<use xlink:href="#f1_2f" transform="matrix(12,0,0,12,394,996.5)" />
<use xlink:href="#f1_2h" transform="matrix(12,0,0,12,400.9,996.5)" />
<use xlink:href="#f1_21" transform="matrix(12,0,0,12,410.4,996.5)" />
<use xlink:href="#f1_2f" transform="matrix(12,0,0,12,418.5,996.5)" />
<use xlink:href="#f1_i" transform="matrix(12,0,0,12,425.8,996.5)" />
<use xlink:href="#f1_19" transform="matrix(12,0,0,12,55,1017.8)" />
<use xlink:href="#f1_2g" transform="matrix(12,0,0,12,61.3,1017.8)" />
<use xlink:href="#f1_25" transform="matrix(12,0,0,12,71.1,1017.8)" />
<use xlink:href="#f1_2a" transform="matrix(12,0,0,12,75.9,1017.8)" />
<use xlink:href="#f1_1z" transform="matrix(12,0,0,12,84.7,1017.8)" />
<use xlink:href="#f1_28" transform="matrix(12,0,0,12,93.1,1017.8)" />
<use xlink:href="#f1_2h" transform="matrix(12,0,0,12,97.9,1017.8)" />
<use xlink:href="#f1_20" transform="matrix(12,0,0,12,107,1017.8)" />
<use xlink:href="#f1_21" transform="matrix(12,0,0,12,116.2,1017.8)" />
<use xlink:href="#f1_2f" transform="matrix(12,0,0,12,124.6,1017.8)" />
<use xlink:href="#f1_1x" transform="matrix(12,0,0,12,136.3,1017.8)" />
<use xlink:href="#f1_1y" transform="matrix(12,0,0,12,144.4,1017.8)" />
<use xlink:href="#f1_2b" transform="matrix(12,0,0,12,153.2,1017.8)" />
<use xlink:href="#f1_2h" transform="matrix(12,0,0,12,162.7,1017.8)" />
<use xlink:href="#f1_2g" transform="matrix(12,0,0,12,171.9,1017.8)" />
<use xlink:href="#f1_t" transform="matrix(12,0,0,12,182.1,1017.8)" />
<use xlink:href="#f1_k" transform="matrix(12,0,0,12,191.3,1017.8)" />
<use xlink:href="#f1_k" transform="matrix(12,0,0,12,200.5,1017.8)" />
<use xlink:href="#f1_k" transform="matrix(12,0,0,12,209.6,1017.8)" />
<use xlink:href="#f1_2f" transform="matrix(12,0,0,12,223.2,1017.8)" />
<use xlink:href="#f1_2c" transform="matrix(12,0,0,12,230.1,1017.8)" />
<use xlink:href="#f1_21" transform="matrix(12,0,0,12,239.3,1017.8)" />
<use xlink:href="#f1_1z" transform="matrix(12,0,0,12,247.4,1017.8)" />
<use xlink:href="#f1_25" transform="matrix(12,0,0,12,255.8,1017.8)" />
<use xlink:href="#f1_21" transform="matrix(12,0,0,12,260.2,1017.8)" />
<use xlink:href="#f1_2f" transform="matrix(12,0,0,12,268.6,1017.8)" />
<use xlink:href="#f1_i" transform="matrix(12,0,0,12,275.6,1017.8)" />
<use xlink:href="#f1_1k" transform="matrix(12,0,0,12,55,1038.7)" />
<use xlink:href="#f1_24" transform="matrix(12,0,0,12,66.4,1038.7)" />
<use xlink:href="#f1_21" transform="matrix(12,0,0,12,75.2,1038.7)" />
<use xlink:href="#f1_2l" transform="matrix(12,0,0,12,83.6,1038.7)" />
<use xlink:href="#f1_1x" transform="matrix(12,0,0,12,96.8,1038.7)" />
<use xlink:href="#f1_2e" transform="matrix(12,0,0,12,104.8,1038.7)" />
<use xlink:href="#f1_21" transform="matrix(12,0,0,12,111.1,1038.7)" />
<use xlink:href="#f1_1x" transform="matrix(12,0,0,12,123.9,1038.7)" />
<use xlink:href="#f1_2d" transform="matrix(12,0,0,12,131.9,1038.7)" />
<use xlink:href="#f1_2h" transform="matrix(12,0,0,12,141.1,1038.7)" />
<use xlink:href="#f1_1x" transform="matrix(12,0,0,12,150.3,1038.7)" />
<use xlink:href="#f1_2g" transform="matrix(12,0,0,12,158.3,1038.7)" />
<use xlink:href="#f1_25" transform="matrix(12,0,0,12,164.2,1038.7)" />
<use xlink:href="#f1_1z" transform="matrix(12,0,0,12,168.6,1038.7)" />
<use xlink:href="#f1_i" transform="matrix(12,0,0,12,176.7,1038.7)" />
<use xlink:href="#f1_1d" transform="matrix(12,0,0,12,186.2,1038.7)" />
<use xlink:href="#f1_2b" transform="matrix(12,0,0,12,202.3,1038.7)" />
<use xlink:href="#f1_2f" transform="matrix(12,0,0,12,211.8,1038.7)" />
<use xlink:href="#f1_2g" transform="matrix(12,0,0,12,218.8,1038.7)" />
<use xlink:href="#f1_2b" transform="matrix(12,0,0,12,228.3,1038.7)" />
<use xlink:href="#f1_22" transform="matrix(12,0,0,12,237.8,1038.7)" />
<use xlink:href="#f1_2g" transform="matrix(12,0,0,12,248.1,1038.7)" />
<use xlink:href="#f1_24" transform="matrix(12,0,0,12,253.6,1038.7)" />
<use xlink:href="#f1_21" transform="matrix(12,0,0,12,262.4,1038.7)" />
<use xlink:href="#f1_29" transform="matrix(12,0,0,12,270.8,1038.7)" />
<use xlink:href="#f1_1x" transform="matrix(12,0,0,12,289.1,1038.7)" />
<use xlink:href="#f1_2e" transform="matrix(12,0,0,12,297.1,1038.7)" />
<use xlink:href="#f1_21" transform="matrix(12,0,0,12,303.4,1038.7)" />
<use xlink:href="#f1_29" transform="matrix(12,0,0,12,316.5,1038.7)" />
<use xlink:href="#f1_1x" transform="matrix(12,0,0,12,330.5,1038.7)" />
<use xlink:href="#f1_2e" transform="matrix(12,0,0,12,338.5,1038.7)" />
<use xlink:href="#f1_25" transform="matrix(12,0,0,12,345.1,1038.7)" />
<use xlink:href="#f1_2a" transform="matrix(12,0,0,12,349.9,1038.7)" />
<use xlink:href="#f1_21" transform="matrix(12,0,0,12,358.7,1038.7)" />
<use xlink:href="#f1_i" transform="matrix(12,0,0,12,366.8,1038.7)" />
<use xlink:href="#f0_18" transform="matrix(12,0,0,12,376.7,1038.7)" />
<use xlink:href="#f0_2l" transform="matrix(12,0,0,12,391,1038.7)" />
<use xlink:href="#f0_20" transform="matrix(12,0,0,12,400.1,1038.7)" />
<use xlink:href="#f0_2e" transform="matrix(12,0,0,12,410.4,1038.7)" />
<use xlink:href="#f0_1x" transform="matrix(12,0,0,12,418.1,1038.7)" />
<use xlink:href="#f1_25" transform="matrix(12,0,0,12,432.5,1038.7)" />
<use xlink:href="#f1_2f" transform="matrix(12,0,0,12,437.2,1038.7)" />
<use xlink:href="#f1_1x" transform="matrix(12,0,0,12,448.9,1038.7)" />
<use xlink:href="#f0_22" transform="matrix(12,0,0,12,461.8,1038.7)" />
<use xlink:href="#f0_2e" transform="matrix(12,0,0,12,468,1038.7)" />
<use xlink:href="#f0_21" transform="matrix(12,0,0,12,475.7,1038.7)" />
<use xlink:href="#f0_2f" transform="matrix(12,0,0,12,484.1,1038.7)" />
<use xlink:href="#f0_24" transform="matrix(12,0,0,12,491.1,1038.7)" />
<use xlink:href="#f0_2j" transform="matrix(12,0,0,12,506.1,1038.7)" />
<use xlink:href="#f0_1x" transform="matrix(12,0,0,12,519.3,1038.7)" />
<use xlink:href="#f0_2g" transform="matrix(12,0,0,12,528.5,1038.7)" />
<use xlink:href="#f0_21" transform="matrix(12,0,0,12,534.7,1038.7)" />
<use xlink:href="#f0_2e" transform="matrix(12,0,0,12,542.8,1038.7)" />
<use xlink:href="#f1_22" transform="matrix(12,0,0,12,555.7,1038.7)" />
<use xlink:href="#f1_2b" transform="matrix(12,0,0,12,561.2,1038.7)" />
<use xlink:href="#f1_2e" transform="matrix(12,0,0,12,570.7,1038.7)" />
<use xlink:href="#f1_29" transform="matrix(12,0,0,12,577.3,1038.7)" />
<use xlink:href="#f0_19" transform="matrix(12,0,0,12,55,1060)" />
<use xlink:href="#f0_29" transform="matrix(12,0,0,12,62,1060)" />
<use xlink:href="#f0_2c" transform="matrix(12,0,0,12,77,1060)" />
<use xlink:href="#f0_2b" transform="matrix(12,0,0,12,87.3,1060)" />
<use xlink:href="#f0_2e" transform="matrix(12,0,0,12,96.8,1060)" />
<use xlink:href="#f0_2g" transform="matrix(12,0,0,12,104.5,1060)" />
<use xlink:href="#f0_1x" transform="matrix(12,0,0,12,110.7,1060)" />
<use xlink:href="#f0_2a" transform="matrix(12,0,0,12,119.9,1060)" />
<use xlink:href="#f0_2g" transform="matrix(12,0,0,12,130.1,1060)" />
<use xlink:href="#f0_1z" transform="matrix(12,0,0,12,141.1,1060)" />
<use xlink:href="#f0_24" transform="matrix(12,0,0,12,149.2,1060)" />
<use xlink:href="#f0_1x" transform="matrix(12,0,0,12,159.4,1060)" />
<use xlink:href="#f0_2e" transform="matrix(12,0,0,12,168.6,1060)" />
<use xlink:href="#f0_1x" transform="matrix(12,0,0,12,176.3,1060)" />
<use xlink:href="#f0_1z" transform="matrix(12,0,0,12,185.4,1060)" />
<use xlink:href="#f0_2g" transform="matrix(12,0,0,12,193.5,1060)" />
<use xlink:href="#f0_21" transform="matrix(12,0,0,12,199.7,1060)" />
<use xlink:href="#f0_2e" transform="matrix(12,0,0,12,208.1,1060)" />
<use xlink:href="#f0_25" transform="matrix(12,0,0,12,215.8,1060)" />
<use xlink:href="#f0_2f" transform="matrix(12,0,0,12,220.9,1060)" />
<use xlink:href="#f0_2g" transform="matrix(12,0,0,12,227.9,1060)" />
<use xlink:href="#f0_25" transform="matrix(12,0,0,12,234.2,1060)" />
<use xlink:href="#f0_1z" transform="matrix(12,0,0,12,239.2,1060)" />
<use xlink:href="#f0_22" transform="matrix(12,0,0,12,252.1,1060)" />
<use xlink:href="#f0_21" transform="matrix(12,0,0,12,258,1060)" />
<use xlink:href="#f0_1x" transform="matrix(12,0,0,12,266,1060)" />
<use xlink:href="#f0_2g" transform="matrix(12,0,0,12,275.2,1060)" />
<use xlink:href="#f0_2h" transform="matrix(12,0,0,12,281.4,1060)" />
<use xlink:href="#f0_2e" transform="matrix(12,0,0,12,292,1060)" />
<use xlink:href="#f0_21" transform="matrix(12,0,0,12,299.7,1060)" />
<use xlink:href="#f0_2f" transform="matrix(12,0,0,12,308.1,1060)" />
<use xlink:href="#f3_3d" transform="matrix(12,0,0,12,82.5,1082.3)" />
<use xlink:href="#f1_1k" transform="matrix(12,0,0,12,110,1082.3)" />
<use xlink:href="#f1_24" transform="matrix(12,0,0,12,121.4,1082.3)" />
<use xlink:href="#f1_21" transform="matrix(12,0,0,12,130.2,1082.3)" />
<use xlink:href="#f1_2l" transform="matrix(12,0,0,12,138.6,1082.3)" />
<use xlink:href="#f1_1x" transform="matrix(12,0,0,12,151.8,1082.3)" />
<use xlink:href="#f1_2e" transform="matrix(12,0,0,12,159.8,1082.3)" />
<use xlink:href="#f1_21" transform="matrix(12,0,0,12,166.1,1082.3)" />
<use xlink:href="#f1_2f" transform="matrix(12,0,0,12,178.9,1082.3)" />
<use xlink:href="#f1_21" transform="matrix(12,0,0,12,185.8,1082.3)" />
<use xlink:href="#f1_2f" transform="matrix(12,0,0,12,194.3,1082.3)" />
<use xlink:href="#f1_2f" transform="matrix(12,0,0,12,201.2,1082.3)" />
<use xlink:href="#f1_25" transform="matrix(12,0,0,12,208.5,1082.3)" />
<use xlink:href="#f1_28" transform="matrix(12,0,0,12,213.6,1082.3)" />
<use xlink:href="#f1_21" transform="matrix(12,0,0,12,218.4,1082.3)" />
<use xlink:href="#f1_2b" transform="matrix(12,0,0,12,231.3,1082.3)" />
<use xlink:href="#f1_2e" transform="matrix(12,0,0,12,240.8,1082.3)" />
<use xlink:href="#f1_22" transform="matrix(12,0,0,12,251.7,1082.3)" />
<use xlink:href="#f1_2e" transform="matrix(12,0,0,12,257.2,1082.3)" />
<use xlink:href="#f1_21" transform="matrix(12,0,0,12,263.4,1082.3)" />
<use xlink:href="#f1_21" transform="matrix(12,0,0,12,271.5,1082.3)" />
<use xlink:href="#f1_2f" transform="matrix(12,0,0,12,284.3,1082.3)" />
<use xlink:href="#f1_2j" transform="matrix(12,0,0,12,291.3,1082.3)" />
<use xlink:href="#f1_25" transform="matrix(12,0,0,12,304.8,1082.3)" />
<use xlink:href="#f1_29" transform="matrix(12,0,0,12,309.6,1082.3)" />
<use xlink:href="#f1_29" transform="matrix(12,0,0,12,323.9,1082.3)" />
<use xlink:href="#f1_25" transform="matrix(12,0,0,12,338.2,1082.3)" />
<use xlink:href="#f1_2a" transform="matrix(12,0,0,12,343,1082.3)" />
<use xlink:href="#f1_23" transform="matrix(12,0,0,12,352.1,1082.3)" />
<use xlink:href="#f1_i" transform="matrix(12,0,0,12,361.3,1082.3)" />
<use xlink:href="#f3_3d" transform="matrix(12,0,0,12,82.5,1104.7)" />
<use xlink:href="#f1_1k" transform="matrix(12,0,0,12,110,1104.7)" />
<use xlink:href="#f1_24" transform="matrix(12,0,0,12,121.4,1104.7)" />
<use xlink:href="#f1_21" transform="matrix(12,0,0,12,130.2,1104.7)" />
<use xlink:href="#f1_2l" transform="matrix(12,0,0,12,138.6,1104.7)" />
<use xlink:href="#f1_21" transform="matrix(12,0,0,12,151.8,1104.7)" />
<use xlink:href="#f1_2k" transform="matrix(12,0,0,12,160.2,1104.7)" />
<use xlink:href="#f1_24" transform="matrix(12,0,0,12,169.4,1104.7)" />
<use xlink:href="#f1_25" transform="matrix(12,0,0,12,178.5,1104.7)" />
<use xlink:href="#f1_1y" transform="matrix(12,0,0,12,183.3,1104.7)" />
<use xlink:href="#f1_25" transform="matrix(12,0,0,12,192.8,1104.7)" />
<use xlink:href="#f1_2g" transform="matrix(12,0,0,12,197.2,1104.7)" />
<use xlink:href="#f1_1x" transform="matrix(12,0,0,12,207.4,1104.7)" />
<use xlink:href="#f1_2g" transform="matrix(12,0,0,12,220.3,1104.7)" />
<use xlink:href="#f1_25" transform="matrix(12,0,0,12,225.7,1104.7)" />
<use xlink:href="#f1_2f" transform="matrix(12,0,0,12,230.1,1104.7)" />
<use xlink:href="#f1_2f" transform="matrix(12,0,0,12,237.5,1104.7)" />
<use xlink:href="#f1_2h" transform="matrix(12,0,0,12,244.4,1104.7)" />
<use xlink:href="#f1_21" transform="matrix(12,0,0,12,253.6,1104.7)" />
<use xlink:href="#f1_28" transform="matrix(12,0,0,12,266.8,1104.7)" />
<use xlink:href="#f1_21" transform="matrix(12,0,0,12,271.5,1104.7)" />
<use xlink:href="#f1_2i" transform="matrix(12,0,0,12,280,1104.7)" />
<use xlink:href="#f1_21" transform="matrix(12,0,0,12,288.8,1104.7)" />
<use xlink:href="#f1_28" transform="matrix(12,0,0,12,297.2,1104.7)" />
<use xlink:href="#f1_2b" transform="matrix(12,0,0,12,306.3,1104.7)" />
<use xlink:href="#f1_22" transform="matrix(12,0,0,12,316.2,1104.7)" />
<use xlink:href="#f1_2b" transform="matrix(12,0,0,12,326.4,1104.7)" />
<use xlink:href="#f1_2e" transform="matrix(12,0,0,12,336,1104.7)" />
<use xlink:href="#f1_23" transform="matrix(12,0,0,12,342.2,1104.7)" />
<use xlink:href="#f1_1x" transform="matrix(12,0,0,12,351.3,1104.7)" />
<use xlink:href="#f1_2a" transform="matrix(12,0,0,12,359.4,1104.7)" />
<use xlink:href="#f1_25" transform="matrix(12,0,0,12,368.6,1104.7)" />
<use xlink:href="#f1_2f" transform="matrix(12,0,0,12,373.3,1104.7)" />
<use xlink:href="#f1_1x" transform="matrix(12,0,0,12,380.3,1104.7)" />
<use xlink:href="#f1_2g" transform="matrix(12,0,0,12,388.8,1104.7)" />
<use xlink:href="#f1_25" transform="matrix(12,0,0,12,394.7,1104.7)" />
<use xlink:href="#f1_2b" transform="matrix(12,0,0,12,399.1,1104.7)" />
<use xlink:href="#f1_2a" transform="matrix(12,0,0,12,408.6,1104.7)" />
<use xlink:href="#f1_i" transform="matrix(12,0,0,12,417.4,1104.7)" />
<use xlink:href="#f3_3d" transform="matrix(12,0,0,12,82.5,1127.1)" />
<use xlink:href="#f1_11" transform="matrix(12,0,0,12,110,1127.1)" />
<use xlink:href="#f1_1z" transform="matrix(12,0,0,12,122.9,1127.1)" />
<use xlink:href="#f1_2b" transform="matrix(12,0,0,12,130.9,1127.1)" />
<use xlink:href="#f1_21" transform="matrix(12,0,0,12,140.5,1127.1)" />
<use xlink:href="#f1_28" transform="matrix(12,0,0,12,148.9,1127.1)" />
<use xlink:href="#f1_2b" transform="matrix(12,0,0,12,153.3,1127.1)" />
<use xlink:href="#f1_29" transform="matrix(12,0,0,12,163.1,1127.1)" />
<use xlink:href="#f1_1x" transform="matrix(12,0,0,12,176.7,1127.1)" />
<use xlink:href="#f1_2g" transform="matrix(12,0,0,12,184.8,1127.1)" />
<use xlink:href="#f1_21" transform="matrix(12,0,0,12,190.3,1127.1)" />
<use xlink:href="#f1_2f" transform="matrix(12,0,0,12,198.3,1127.1)" />
<use xlink:href="#f3_3d" transform="matrix(12,0,0,12,82.5,1149.4)" />
<use xlink:href="#f1_1i" transform="matrix(12,0,0,12,110,1149.4)" />
<use xlink:href="#f1_1x" transform="matrix(12,0,0,12,122.1,1149.4)" />
<use xlink:href="#f1_20" transform="matrix(12,0,0,12,130.2,1149.4)" />
<use xlink:href="#f1_25" transform="matrix(12,0,0,12,139.7,1149.4)" />
<use xlink:href="#f1_1x" transform="matrix(12,0,0,12,144.5,1149.4)" />
<use xlink:href="#f1_28" transform="matrix(12,0,0,12,152.9,1149.4)" />
<use xlink:href="#f1_28" transform="matrix(12,0,0,12,157.7,1149.4)" />
<use xlink:href="#f1_2l" transform="matrix(12,0,0,12,162.8,1149.4)" />
<use xlink:href="#f1_2f" transform="matrix(12,0,0,12,176.3,1149.4)" />
<use xlink:href="#f1_2l" transform="matrix(12,0,0,12,183.7,1149.4)" />
<use xlink:href="#f1_29" transform="matrix(12,0,0,12,192.8,1149.4)" />
<use xlink:href="#f1_29" transform="matrix(12,0,0,12,207.1,1149.4)" />
<use xlink:href="#f1_21" transform="matrix(12,0,0,12,221.1,1149.4)" />
<use xlink:href="#f1_2g" transform="matrix(12,0,0,12,229.1,1149.4)" />
<use xlink:href="#f1_2e" transform="matrix(12,0,0,12,234.6,1149.4)" />
<use xlink:href="#f1_25" transform="matrix(12,0,0,12,241.2,1149.4)" />
<use xlink:href="#f1_1z" transform="matrix(12,0,0,12,245.6,1149.4)" />
<use xlink:href="#f1_1x" transform="matrix(12,0,0,12,253.7,1149.4)" />
<use xlink:href="#f1_28" transform="matrix(12,0,0,12,262.1,1149.4)" />
<use xlink:href="#f1_i" transform="matrix(12,0,0,12,266.5,1149.4)" />
<use xlink:href="#f1_12" transform="matrix(12,0,0,12,276,1149.4)" />
<use xlink:href="#f1_2h" transform="matrix(12,0,0,12,288.1,1149.4)" />
<use xlink:href="#f1_2g" transform="matrix(12,0,0,12,297.2,1149.4)" />
<use xlink:href="#f0_2f" transform="matrix(12,0,0,12,307.7,1149.4)" />
<use xlink:href="#f0_21" transform="matrix(12,0,0,12,314.7,1149.4)" />
<use xlink:href="#f0_1x" transform="matrix(12,0,0,12,322.8,1149.4)" />
<use xlink:href="#f0_1x" transform="matrix(12,0,0,12,336.7,1149.4)" />
<use xlink:href="#f0_2a" transform="matrix(12,0,0,12,345.9,1149.4)" />
<use xlink:href="#f0_21" transform="matrix(12,0,0,12,356.1,1149.4)" />
<use xlink:href="#f0_29" transform="matrix(12,0,0,12,364.2,1149.4)" />
<use xlink:href="#f0_2b" transform="matrix(12,0,0,12,379.2,1149.4)" />
<use xlink:href="#f0_2a" transform="matrix(12,0,0,12,388.4,1149.4)" />
<use xlink:href="#f0_21" transform="matrix(12,0,0,12,398.6,1149.4)" />
<use xlink:href="#f1_25" transform="matrix(12,0,0,12,411.9,1149.4)" />
<use xlink:href="#f1_2f" transform="matrix(12,0,0,12,416.3,1149.4)" />
<use xlink:href="#f1_1y" transform="matrix(12,0,0,12,428.4,1149.4)" />
<use xlink:href="#f1_25" transform="matrix(12,0,0,12,437.6,1149.4)" />
<use xlink:href="#f1_2e" transform="matrix(12,0,0,12,442,1149.4)" />
<use xlink:href="#f1_1x" transform="matrix(12,0,0,12,448.5,1149.4)" />
<use xlink:href="#f1_20" transform="matrix(12,0,0,12,456.6,1149.4)" />
<use xlink:href="#f1_25" transform="matrix(12,0,0,12,466.1,1149.4)" />
<use xlink:href="#f1_1x" transform="matrix(12,0,0,12,470.9,1149.4)" />
<use xlink:href="#f1_28" transform="matrix(12,0,0,12,479.3,1149.4)" />
<use xlink:href="#f1_28" transform="matrix(12,0,0,12,484.1,1149.4)" />
<use xlink:href="#f1_2l" transform="matrix(12,0,0,12,489.2,1149.4)" />
<use xlink:href="#f1_2f" transform="matrix(12,0,0,12,502.8,1149.4)" />
<use xlink:href="#f1_2l" transform="matrix(12,0,0,12,510.1,1149.4)" />
<use xlink:href="#f1_29" transform="matrix(12,0,0,12,519.2,1149.4)" />
<use xlink:href="#f1_29" transform="matrix(12,0,0,12,533.5,1149.4)" />
<use xlink:href="#f1_21" transform="matrix(12,0,0,12,547.5,1149.4)" />
<use xlink:href="#f1_2g" transform="matrix(12,0,0,12,555.5,1149.4)" />
<use xlink:href="#f1_2e" transform="matrix(12,0,0,12,561,1149.4)" />
<use xlink:href="#f1_25" transform="matrix(12,0,0,12,567.2,1149.4)" />
<use xlink:href="#f1_1z" transform="matrix(12,0,0,12,571.6,1149.4)" />
<use xlink:href="#f1_1x" transform="matrix(12,0,0,12,580.1,1149.4)" />
<use xlink:href="#f1_28" transform="matrix(12,0,0,12,588.5,1149.4)" />
<use xlink:href="#f1_i" transform="matrix(12,0,0,12,592.9,1149.4)" />
<use xlink:href="#f3_3d" transform="matrix(12,0,0,12,82.5,1171.8)" />
<use xlink:href="#f0_12" transform="matrix(12,0,0,12,110,1171.8)" />
<use xlink:href="#f0_2b" transform="matrix(12,0,0,12,122.5,1171.8)" />
<use xlink:href="#f0_20" transform="matrix(12,0,0,12,131.7,1171.8)" />
<use xlink:href="#f0_2l" transform="matrix(12,0,0,12,141.9,1171.8)" />
<use xlink:href="#f0_2j" transform="matrix(12,0,0,12,155.8,1171.8)" />
<use xlink:href="#f0_1x" transform="matrix(12,0,0,12,169.1,1171.8)" />
<use xlink:href="#f0_28" transform="matrix(12,0,0,12,178.2,1171.8)" />
<use xlink:href="#f0_28" transform="matrix(12,0,0,12,182.9,1171.8)" />
<use xlink:href="#f1_u" transform="matrix(12,0,0,12,187.8,1171.8)" />
<use xlink:href="#f1_14" transform="matrix(12,0,0,12,197.7,1171.8)" />
<use xlink:href="#f1_25" transform="matrix(12,0,0,12,211.2,1171.8)" />
<use xlink:href="#f1_2c" transform="matrix(12,0,0,12,215.6,1171.8)" />
<use xlink:href="#f1_28" transform="matrix(12,0,0,12,225.2,1171.8)" />
<use xlink:href="#f1_2b" transform="matrix(12,0,0,12,229.6,1171.8)" />
<use xlink:href="#f1_1y" transform="matrix(12,0,0,12,239.4,1171.8)" />
<use xlink:href="#f1_28" transform="matrix(12,0,0,12,248.6,1171.8)" />
<use xlink:href="#f1_1x" transform="matrix(12,0,0,12,253.4,1171.8)" />
<use xlink:href="#f1_2f" transform="matrix(12,0,0,12,261.4,1171.8)" />
<use xlink:href="#f1_2g" transform="matrix(12,0,0,12,268.4,1171.8)" />
<use xlink:href="#f1_25" transform="matrix(12,0,0,12,274.3,1171.8)" />
<use xlink:href="#f1_1z" transform="matrix(12,0,0,12,278.7,1171.8)" />
<use xlink:href="#f1_c" transform="matrix(12,0,0,12,291.5,1171.8)" />
<use xlink:href="#f1_2b" transform="matrix(12,0,0,12,297.7,1171.8)" />
<use xlink:href="#f1_2h" transform="matrix(12,0,0,12,307.2,1171.8)" />
<use xlink:href="#f1_2g" transform="matrix(12,0,0,12,316,1171.8)" />
<use xlink:href="#f1_21" transform="matrix(12,0,0,12,321.5,1171.8)" />
<use xlink:href="#f1_2e" transform="matrix(12,0,0,12,329.5,1171.8)" />
<use xlink:href="#f1_21" transform="matrix(12,0,0,12,340.5,1171.8)" />
<use xlink:href="#f1_1z" transform="matrix(12,0,0,12,348.6,1171.8)" />
<use xlink:href="#f1_2g" transform="matrix(12,0,0,12,356.3,1171.8)" />
<use xlink:href="#f1_2b" transform="matrix(12,0,0,12,361.4,1171.8)" />
<use xlink:href="#f1_20" transform="matrix(12,0,0,12,370.9,1171.8)" />
<use xlink:href="#f1_21" transform="matrix(12,0,0,12,380.1,1171.8)" />
<use xlink:href="#f1_2e" transform="matrix(12,0,0,12,388.2,1171.8)" />
<use xlink:href="#f1_29" transform="matrix(12,0,0,12,394.4,1171.8)" />
<use xlink:href="#f1_g" transform="matrix(12,0,0,12,407.9,1171.8)" />
<use xlink:href="#f1_25" transform="matrix(12,0,0,12,417.8,1171.8)" />
<use xlink:href="#f1_2a" transform="matrix(12,0,0,12,422.2,1171.8)" />
<use xlink:href="#f1_2a" transform="matrix(12,0,0,12,431.4,1171.8)" />
<use xlink:href="#f1_21" transform="matrix(12,0,0,12,440.5,1171.8)" />
<use xlink:href="#f1_2e" transform="matrix(12,0,0,12,448.6,1171.8)" />
<use xlink:href="#f1_21" transform="matrix(12,0,0,12,459.6,1171.8)" />
<use xlink:href="#f1_2a" transform="matrix(12,0,0,12,467.6,1171.8)" />
<use xlink:href="#f1_20" transform="matrix(12,0,0,12,476.8,1171.8)" />
<use xlink:href="#f1_2b" transform="matrix(12,0,0,12,486,1171.8)" />
<use xlink:href="#f1_20" transform="matrix(12,0,0,12,495.5,1171.8)" />
<use xlink:href="#f1_21" transform="matrix(12,0,0,12,504.6,1171.8)" />
<use xlink:href="#f1_2e" transform="matrix(12,0,0,12,512.7,1171.8)" />
<use xlink:href="#f1_29" transform="matrix(12,0,0,12,518.9,1171.8)" />
<use xlink:href="#f1_1x" transform="matrix(12,0,0,12,537.2,1171.8)" />
<use xlink:href="#f1_2a" transform="matrix(12,0,0,12,545.3,1171.8)" />
<use xlink:href="#f1_20" transform="matrix(12,0,0,12,554.1,1171.8)" />
<use xlink:href="#f1_29" transform="matrix(12,0,0,12,568.4,1171.8)" />
<use xlink:href="#f1_25" transform="matrix(12,0,0,12,582.7,1171.8)" />
<use xlink:href="#f1_20" transform="matrix(12,0,0,12,587.5,1171.8)" />
<use xlink:href="#f1_20" transform="matrix(12,0,0,12,596.6,1171.8)" />
<use xlink:href="#f1_28" transform="matrix(12,0,0,12,606.1,1171.8)" />
<use xlink:href="#f1_21" transform="matrix(12,0,0,12,610.9,1171.8)" />
<use xlink:href="#f1_29" transform="matrix(12,0,0,12,624.1,1171.8)" />
<use xlink:href="#f1_21" transform="matrix(12,0,0,12,637.7,1171.8)" />
<use xlink:href="#f1_2f" transform="matrix(12,0,0,12,646.1,1171.8)" />
<use xlink:href="#f1_2b" transform="matrix(12,0,0,12,653,1171.8)" />
<use xlink:href="#f1_23" transform="matrix(12,0,0,12,662.6,1171.8)" />
<use xlink:href="#f1_28" transform="matrix(12,0,0,12,672.1,1171.8)" />
<use xlink:href="#f1_21" transform="matrix(12,0,0,12,676.5,1171.8)" />
<use xlink:href="#f1_1x" transform="matrix(12,0,0,12,684.5,1171.8)" />
<use xlink:href="#f1_d" transform="matrix(12,0,0,12,692.6,1171.8)" />
<use xlink:href="#f3_3d" transform="matrix(12,0,0,12,82.5,1194.6)" />
<use xlink:href="#f0_12" transform="matrix(12,0,0,12,110,1194.6)" />
<use xlink:href="#f0_2b" transform="matrix(12,0,0,12,122.5,1194.6)" />
<use xlink:href="#f0_20" transform="matrix(12,0,0,12,131.7,1194.6)" />
<use xlink:href="#f0_2l" transform="matrix(12,0,0,12,141.9,1194.6)" />
<use xlink:href="#f0_1z" transform="matrix(12,0,0,12,158.7,1194.6)" />
<use xlink:href="#f0_1x" transform="matrix(12,0,0,12,166.8,1194.6)" />
<use xlink:href="#f0_2i" transform="matrix(12,0,0,12,176,1194.6)" />
<use xlink:href="#f0_25" transform="matrix(12,0,0,12,185.1,1194.6)" />
<use xlink:href="#f0_2g" transform="matrix(12,0,0,12,190.2,1194.6)" />
<use xlink:href="#f0_2l" transform="matrix(12,0,0,12,196.5,1194.6)" />
<use xlink:href="#f1_u" transform="matrix(12,0,0,12,205.8,1194.6)" />
<use xlink:href="#f1_11" transform="matrix(12,0,0,12,218.2,1194.6)" />
<use xlink:href="#f1_1z" transform="matrix(12,0,0,12,238.4,1194.6)" />
<use xlink:href="#f1_21" transform="matrix(12,0,0,12,246.4,1194.6)" />
<use xlink:href="#f1_2a" transform="matrix(12,0,0,12,254.5,1194.6)" />
<use xlink:href="#f1_2g" transform="matrix(12,0,0,12,263.3,1194.6)" />
<use xlink:href="#f1_2e" transform="matrix(12,0,0,12,268.8,1194.6)" />
<use xlink:href="#f1_1x" transform="matrix(12,0,0,12,275,1194.6)" />
<use xlink:href="#f1_28" transform="matrix(12,0,0,12,283.4,1194.6)" />
<use xlink:href="#f1_23" transform="matrix(12,0,0,12,295.3,1194.6)" />
<use xlink:href="#f1_1x" transform="matrix(12,0,0,12,304.4,1194.6)" />
<use xlink:href="#f1_2f" transform="matrix(12,0,0,12,312.5,1194.6)" />
<use xlink:href="#f1_2g" transform="matrix(12,0,0,12,319.5,1194.6)" />
<use xlink:href="#f1_2e" transform="matrix(12,0,0,12,325,1194.6)" />
<use xlink:href="#f1_2b" transform="matrix(12,0,0,12,331.2,1194.6)" />
<use xlink:href="#f1_2i" transform="matrix(12,0,0,12,348,1194.6)" />
<use xlink:href="#f1_1x" transform="matrix(12,0,0,12,356.8,1194.6)" />
<use xlink:href="#f1_2f" transform="matrix(12,0,0,12,364.9,1194.6)" />
<use xlink:href="#f1_1z" transform="matrix(12,0,0,12,371.8,1194.6)" />
<use xlink:href="#f1_2h" transform="matrix(12,0,0,12,379.9,1194.6)" />
<use xlink:href="#f1_28" transform="matrix(12,0,0,12,389.4,1194.6)" />
<use xlink:href="#f1_1x" transform="matrix(12,0,0,12,394.2,1194.6)" />
<use xlink:href="#f1_2e" transform="matrix(12,0,0,12,402.2,1194.6)" />
<use xlink:href="#f1_1z" transform="matrix(12,0,0,12,415.8,1194.6)" />
<use xlink:href="#f1_1x" transform="matrix(12,0,0,12,423.8,1194.6)" />
<use xlink:href="#f1_2i" transform="matrix(12,0,0,12,431.9,1194.6)" />
<use xlink:href="#f1_25" transform="matrix(12,0,0,12,441.1,1194.6)" />
<use xlink:href="#f1_2g" transform="matrix(12,0,0,12,445.5,1194.6)" />
<use xlink:href="#f1_2l" transform="matrix(12,0,0,12,451.3,1194.6)" />
<use xlink:href="#f1_2b" transform="matrix(12,0,0,12,467.7,1194.6)" />
<use xlink:href="#f1_2e" transform="matrix(12,0,0,12,477.2,1194.6)" />
<use xlink:href="#f1_1z" transform="matrix(12,0,0,12,490.8,1194.6)" />
<use xlink:href="#f1_2b" transform="matrix(12,0,0,12,498.9,1194.6)" />
<use xlink:href="#f1_21" transform="matrix(12,0,0,12,508.4,1194.6)" />
<use xlink:href="#f1_28" transform="matrix(12,0,0,12,516.4,1194.6)" />
<use xlink:href="#f1_21" transform="matrix(12,0,0,12,520.8,1194.6)" />
<use xlink:href="#f1_2a" transform="matrix(12,0,0,12,529.2,1194.6)" />
<use xlink:href="#f1_2g" transform="matrix(12,0,0,12,538,1194.6)" />
<use xlink:href="#f1_21" transform="matrix(12,0,0,12,543.5,1194.6)" />
<use xlink:href="#f1_2e" transform="matrix(12,0,0,12,551.6,1194.6)" />
<use xlink:href="#f1_2b" transform="matrix(12,0,0,12,557.8,1194.6)" />
<use xlink:href="#f1_2a" transform="matrix(12,0,0,12,567.3,1194.6)" />
<use xlink:href="#f1_2j" transform="matrix(12,0,0,12,583.6,1194.6)" />
<use xlink:href="#f1_24" transform="matrix(12,0,0,12,596.8,1194.6)" />
<use xlink:href="#f1_25" transform="matrix(12,0,0,12,606,1194.6)" />
<use xlink:href="#f1_1z" transform="matrix(12,0,0,12,610.7,1194.6)" />
<use xlink:href="#f1_24" transform="matrix(12,0,0,12,619.1,1194.6)" />
<use xlink:href="#f1_2b" transform="matrix(12,0,0,12,635.2,1194.6)" />
<use xlink:href="#f1_2c" transform="matrix(12,0,0,12,644.8,1194.6)" />
<use xlink:href="#f1_21" transform="matrix(12,0,0,12,653.9,1194.6)" />
<use xlink:href="#f1_2a" transform="matrix(12,0,0,12,662,1194.6)" />
<use xlink:href="#f1_2f" transform="matrix(12,0,0,12,671.2,1194.6)" />
<use xlink:href="#f1_2b" transform="matrix(12,0,0,12,685.4,1194.6)" />
<use xlink:href="#f1_2h" transform="matrix(12,0,0,12,695,1194.6)" />
<use xlink:href="#f1_2g" transform="matrix(12,0,0,12,703.8,1194.6)" />
<use xlink:href="#f1_2g" transform="matrix(12,0,0,12,716.2,1194.6)" />
<use xlink:href="#f1_24" transform="matrix(12,0,0,12,721.7,1194.6)" />
<use xlink:href="#f1_2e" transform="matrix(12,0,0,12,730.5,1194.6)" />
<use xlink:href="#f1_2b" transform="matrix(12,0,0,12,736.7,1194.6)" />
<use xlink:href="#f1_2h" transform="matrix(12,0,0,12,746.2,1194.6)" />
<use xlink:href="#f1_23" transform="matrix(12,0,0,12,755.4,1194.6)" />
<use xlink:href="#f1_24" transform="matrix(12,0,0,12,764.5,1194.6)" />
<use xlink:href="#f0_29" transform="matrix(12,0,0,12,780.9,1194.6)" />
<use xlink:href="#f0_2b" transform="matrix(12,0,0,12,796,1194.6)" />
<use xlink:href="#f0_2h" transform="matrix(12,0,0,12,805.1,1194.6)" />
<use xlink:href="#f0_2g" transform="matrix(12,0,0,12,815.4,1194.6)" />
<use xlink:href="#f0_24" transform="matrix(12,0,0,12,821.6,1194.6)" />
<use xlink:href="#f1_2b" transform="matrix(12,0,0,12,839.6,1194.6)" />
<use xlink:href="#f1_2e" transform="matrix(12,0,0,12,848.8,1194.6)" />
<use xlink:href="#f0_24" transform="matrix(12,0,0,12,110,1215.5)" />
<use xlink:href="#f0_2l" transform="matrix(12,0,0,12,120.3,1215.5)" />
<use xlink:href="#f0_2c" transform="matrix(12,0,0,12,129.5,1215.5)" />
<use xlink:href="#f0_2b" transform="matrix(12,0,0,12,139.7,1215.5)" />
<use xlink:href="#f0_2f" transform="matrix(12,0,0,12,148.9,1215.5)" />
<use xlink:href="#f0_2g" transform="matrix(12,0,0,12,155.9,1215.5)" />
<use xlink:href="#f0_2b" transform="matrix(12,0,0,12,162.1,1215.5)" />
<use xlink:href="#f0_29" transform="matrix(12,0,0,12,171.2,1215.5)" />
<use xlink:href="#f0_21" transform="matrix(12,0,0,12,186.3,1215.5)" />
<use xlink:href="#f1_i" transform="matrix(12,0,0,12,194.4,1215.5)" />
<use xlink:href="#f1_11" transform="matrix(12,0,0,12,203.9,1215.5)" />
<use xlink:href="#f1_2a" transform="matrix(12,0,0,12,217.1,1215.5)" />
<use xlink:href="#f1_2h" transform="matrix(12,0,0,12,225.9,1215.5)" />
<use xlink:href="#f1_2f" transform="matrix(12,0,0,12,235.1,1215.5)" />
<use xlink:href="#f1_25" transform="matrix(12,0,0,12,247.2,1215.5)" />
<use xlink:href="#f1_2f" transform="matrix(12,0,0,12,251.9,1215.5)" />
<use xlink:href="#f1_1x" transform="matrix(12,0,0,12,263.6,1215.5)" />
<use xlink:href="#f1_1y" transform="matrix(12,0,0,12,272.1,1215.5)" />
<use xlink:href="#f1_2f" transform="matrix(12,0,0,12,280.9,1215.5)" />
<use xlink:href="#f1_21" transform="matrix(12,0,0,12,287.8,1215.5)" />
<use xlink:href="#f1_2a" transform="matrix(12,0,0,12,296.2,1215.5)" />
<use xlink:href="#f1_2g" transform="matrix(12,0,0,12,305,1215.5)" />
<use xlink:href="#f1_i" transform="matrix(12,0,0,12,310.5,1215.5)" />
<use xlink:href="#f1_12" transform="matrix(12,0,0,12,320,1215.5)" />
<use xlink:href="#f1_2b" transform="matrix(12,0,0,12,331.7,1215.5)" />
<use xlink:href="#f1_20" transform="matrix(12,0,0,12,341.3,1215.5)" />
<use xlink:href="#f1_2l" transform="matrix(12,0,0,12,350.4,1215.5)" />
<use xlink:href="#f1_1z" transform="matrix(12,0,0,12,363.6,1215.5)" />
<use xlink:href="#f1_1x" transform="matrix(12,0,0,12,371.7,1215.5)" />
<use xlink:href="#f1_2i" transform="matrix(12,0,0,12,380.1,1215.5)" />
<use xlink:href="#f1_25" transform="matrix(12,0,0,12,389.3,1215.5)" />
<use xlink:href="#f1_2g" transform="matrix(12,0,0,12,393.7,1215.5)" />
<use xlink:href="#f1_2l" transform="matrix(12,0,0,12,399.5,1215.5)" />
<use xlink:href="#f1_20" transform="matrix(12,0,0,12,413.1,1215.5)" />
<use xlink:href="#f1_2b" transform="matrix(12,0,0,12,422.2,1215.5)" />
<use xlink:href="#f1_21" transform="matrix(12,0,0,12,431.7,1215.5)" />
<use xlink:href="#f1_2f" transform="matrix(12,0,0,12,439.8,1215.5)" />
<use xlink:href="#f1_1y" transform="matrix(12,0,0,12,451.5,1215.5)" />
<use xlink:href="#f1_2b" transform="matrix(12,0,0,12,460.3,1215.5)" />
<use xlink:href="#f1_2g" transform="matrix(12,0,0,12,469.8,1215.5)" />
<use xlink:href="#f1_24" transform="matrix(12,0,0,12,475.3,1215.5)" />
<use xlink:href="#f1_20" transform="matrix(12,0,0,12,488.9,1215.5)" />
<use xlink:href="#f1_25" transform="matrix(12,0,0,12,498,1215.5)" />
<use xlink:href="#f1_23" transform="matrix(12,0,0,12,502.4,1215.5)" />
<use xlink:href="#f1_21" transform="matrix(12,0,0,12,511.9,1215.5)" />
<use xlink:href="#f1_2f" transform="matrix(12,0,0,12,520,1215.5)" />
<use xlink:href="#f1_2g" transform="matrix(12,0,0,12,527,1215.5)" />
<use xlink:href="#f1_25" transform="matrix(12,0,0,12,532.8,1215.5)" />
<use xlink:href="#f1_2b" transform="matrix(12,0,0,12,537.2,1215.5)" />
<use xlink:href="#f1_2a" transform="matrix(12,0,0,12,546.7,1215.5)" />
<use xlink:href="#f1_1x" transform="matrix(12,0,0,12,560.3,1215.5)" />
<use xlink:href="#f1_2a" transform="matrix(12,0,0,12,568.4,1215.5)" />
<use xlink:href="#f1_20" transform="matrix(12,0,0,12,577.2,1215.5)" />
<use xlink:href="#f1_1z" transform="matrix(12,0,0,12,591.1,1215.5)" />
<use xlink:href="#f1_25" transform="matrix(12,0,0,12,599.5,1215.5)" />
<use xlink:href="#f1_2e" transform="matrix(12,0,0,12,604.3,1215.5)" />
<use xlink:href="#f1_1z" transform="matrix(12,0,0,12,610.5,1215.5)" />
<use xlink:href="#f1_2h" transform="matrix(12,0,0,12,618.5,1215.5)" />
<use xlink:href="#f1_28" transform="matrix(12,0,0,12,628,1215.5)" />
<use xlink:href="#f1_1x" transform="matrix(12,0,0,12,632.8,1215.5)" />
<use xlink:href="#f1_2g" transform="matrix(12,0,0,12,640.9,1215.5)" />
<use xlink:href="#f1_25" transform="matrix(12,0,0,12,646.7,1215.5)" />
<use xlink:href="#f1_2b" transform="matrix(12,0,0,12,651.1,1215.5)" />
<use xlink:href="#f1_2a" transform="matrix(12,0,0,12,660.6,1215.5)" />
<use xlink:href="#f1_2b" transform="matrix(12,0,0,12,674.2,1215.5)" />
<use xlink:href="#f1_22" transform="matrix(12,0,0,12,683.7,1215.5)" />
<use xlink:href="#f1_22" transform="matrix(12,0,0,12,694.3,1215.5)" />
<use xlink:href="#f1_2b" transform="matrix(12,0,0,12,699.8,1215.5)" />
<use xlink:href="#f1_2b" transform="matrix(12,0,0,12,709.3,1215.5)" />
<use xlink:href="#f1_20" transform="matrix(12,0,0,12,718.9,1215.5)" />
<use xlink:href="#f1_i" transform="matrix(12,0,0,12,728,1215.5)" />
</g>
</g>
<g fill="#000000" >
<use xlink:href="#f4_r" transform="matrix(8,0,0,8,792.5,1264.1)" />
</g>
<defs>
<path d="M608,-14c0,0,-251,0,-392,133C216,119,75,252,75,488c0,0,0,257,134,390c0,0,135,133,398,133c0,0,174,0,361,-50l4,-240H905L884,866c0,0,-98,67,-229,67c0,0,-173,0,-253,-108c0,0,-80,-108,-80,-334c0,0,0,-209,84,-319c0,0,83,-109,243,-109c0,0,84,0,147,22c0,0,63,22,99,53l24,164h68L982,48C982,48,915,22,808,4C808,4,700,-14,608,-14Z" 
id="f0_13"
transform="scale(0.001,-0.001)" />

<path d="M30,0V49l76,18V992l-72,18v50H322V67L398,49V0Z" 
id="f0_28"
transform="scale(0.001,-0.001)" />

<path d="M345,75c0,0,50,0,110,26V351l-63,-2c0,0,-72,-3,-100,-38c0,0,-28,-35,-28,-113c0,0,0,-63,22,-93c0,0,23,-30,59,-30ZM266,-14c0,0,-217,0,-217,208c0,0,0,79,32,126c0,0,32,48,93,71c0,0,60,22,190,25l91,2V521c0,0,0,126,-104,126c0,0,-62,0,-140,-39L183,521H134V691c0,0,112,17,165,21c0,0,53,5,108,5c0,0,264,0,264,-194V67L741,49V0H483L466,54C466,54,408,14,361,0c0,0,-47,-14,-95,-14Z" 
id="f0_1x"
transform="scale(0.001,-0.001)" />

<path d="M276,-14c0,0,-57,0,-125,13C151,-1,83,10,48,23V214H97l28,-98c0,0,26,-26,69,-44c0,0,42,-17,86,-17c0,0,65,0,97,28c0,0,32,28,32,71c0,0,0,41,-31,65c0,0,-30,25,-133,57c0,0,-108,34,-154,92c0,0,-45,58,-45,143c0,0,0,95,71,152c0,0,71,57,183,57c0,0,77,0,207,-22V518H457l-24,82c0,0,-21,22,-60,35c0,0,-40,14,-75,14c0,0,-53,0,-79,-22c0,0,-26,-22,-26,-59c0,0,0,-40,32,-65c0,0,32,-26,132,-55c0,0,109,-34,155,-89c0,0,45,-55,45,-137c0,0,0,-117,-72,-177c0,0,-72,-59,-209,-59Z" 
id="f0_2f"
transform="scale(0.001,-0.001)" />

<path d="M34,0V49l76,18V634L38,652v49H325V67L402,49V0ZM217,831c0,0,-48,0,-81,33c0,0,-34,33,-34,82c0,0,0,48,34,81c0,0,34,33,81,33c0,0,48,0,81,-33c0,0,33,-33,33,-81c0,0,0,-47,-33,-81c0,0,-32,-34,-81,-34Z" 
id="f0_25"
transform="scale(0.001,-0.001)" />

<path d="M41,0V49l76,18V624H11v51l106,29v75c0,0,0,144,73,220c0,0,73,77,210,77c0,0,74,0,124,-15V894H476l-22,81c0,0,-18,17,-47,17c0,0,-74,0,-74,-189V701H475V624H333V67L447,49V0Z" 
id="f0_22"
transform="scale(0.001,-0.001)" />

<path d="M425,-14c0,0,-187,0,-280,90c0,0,-93,90,-93,276c0,0,0,115,42,198c0,0,43,82,121,126c0,0,78,44,182,44c0,0,104,0,227,-26V486H571L539,609c0,0,-25,19,-50,26c0,0,-24,7,-65,7c0,0,-44,0,-79,-35c0,0,-36,-35,-56,-98c0,0,-20,-64,-20,-153c0,0,0,-150,47,-214c0,0,47,-64,148,-64c0,0,103,0,176,21V42C640,42,606,15,547,0c0,0,-59,-14,-122,-14Z" 
id="f0_1z"
transform="scale(0.001,-0.001)" />

<path d="M327,-14c0,0,-101,0,-156,45c0,0,-55,45,-55,131V624H25v48l108,29l87,159H332V701H480V624H332V176c0,0,0,-49,20,-73c0,0,20,-25,53,-25c0,0,40,0,97,12V26c0,0,-22,-15,-76,-27c0,0,-55,-13,-99,-13Z" 
id="f0_2g"
transform="scale(0.001,-0.001)" />

<path d="M379,60c0,0,59,0,84,64c0,0,24,65,24,231c0,0,0,164,-24,227c0,0,-24,63,-84,63c0,0,-57,0,-80,-60c0,0,-22,-61,-22,-230c0,0,0,-173,23,-234c0,0,22,-61,79,-61Zm-2,-74c0,0,-161,0,-240,91c0,0,-79,91,-79,277c0,0,0,186,80,276c0,0,81,90,245,90c0,0,167,0,245,-93c0,0,78,-93,78,-273c0,0,0,-188,-81,-278c0,0,-81,-90,-248,-90Z" 
id="f0_2b"
transform="scale(0.001,-0.001)" />

<path d="M41,0V49l69,18V634L41,652v49H313l11,-61l50,26c0,0,105,54,188,54c0,0,194,0,194,-207V67L827,49V0H478V49l63,18V484c0,0,0,63,-27,98c0,0,-26,35,-75,35c0,0,-57,0,-114,-25V67L389,49V0Z" 
id="f0_2a"
transform="scale(0.001,-0.001)" />

<path d="M452,474c0,0,104,0,151,52c0,0,47,53,47,178c0,0,0,119,-45,167c0,0,-44,47,-156,47H390V474ZM36,0V54L154,74V926L26,945v55H467c0,0,213,0,318,-71c0,0,105,-71,105,-224c0,0,0,-313,-366,-313H390V74L557,54V0Z" 
id="f0_1g"
transform="scale(0.001,-0.001)" />

<path d="M41,0V49l91,18V634L41,652v49H336l8,-145c0,0,80,89,144,128c0,0,64,40,117,40h40V468H604l-45,94c0,0,-47,0,-106,-21c0,0,-60,-20,-105,-48V67L460,49V0Z" 
id="f0_2e"
transform="scale(0.001,-0.001)" />

<path d="M434,423c0,0,0,101,-7,142c0,0,-6,40,-22,60c0,0,-16,19,-45,19c0,0,-44,0,-66,-48c0,0,-22,-49,-22,-173ZM389,-14c0,0,-172,0,-254,89c0,0,-83,90,-83,279c0,0,0,184,79,274c0,0,79,91,238,91c0,0,142,0,206,-76c0,0,64,-76,64,-237V345H271V333c0,0,0,-111,18,-158c0,0,18,-47,58,-72c0,0,40,-25,110,-25c0,0,66,0,166,22V42C623,42,582,18,517,1c0,0,-66,-15,-128,-15Z" 
id="f0_21"
transform="scale(0.001,-0.001)" />

<path d="M577,-14c0,0,-243,0,-379,132C198,118,63,250,63,488c0,0,0,258,130,391c0,0,131,132,387,132c0,0,156,0,335,-38l5,-218H871L848,884c0,0,-52,32,-121,50c0,0,-69,17,-141,17c0,0,-191,0,-279,-112c0,0,-88,-113,-88,-349c0,0,0,-217,92,-332c0,0,92,-115,268,-115c0,0,85,0,160,20c0,0,76,21,120,55l27,149h49L930,32c0,0,-164,-46,-353,-46Z" 
id="f1_13"
transform="scale(0.001,-0.001)" />

<path d="M31,0V33L150,52v956L31,1026v34H274V52L394,33V0Z" 
id="f1_28"
transform="scale(0.001,-0.001)" />

<path d="M284,67c0,0,51,0,88,12c0,0,37,12,74,30V358l-98,-3c0,0,-100,-4,-135,-39c0,0,-35,-35,-35,-117c0,0,0,-132,106,-132ZM233,-14c0,0,-179,0,-179,208c0,0,0,70,27,116c0,0,27,46,87,70c0,0,60,24,173,27l105,3V519c0,0,0,72,-26,107c0,0,-27,34,-82,34c0,0,-75,0,-137,-35L176,538H134V691c0,0,121,26,213,26c0,0,115,0,169,-47c0,0,54,-47,54,-144V52L657,33V0H465L451,70c0,0,-85,-84,-218,-84Z" 
id="f1_1x"
transform="scale(0.001,-0.001)" />

<path d="M278,-14c0,0,-52,0,-115,11c0,0,-63,10,-99,23V193H98L134,95c0,0,56,-50,146,-50c0,0,144,0,144,123c0,0,0,91,-114,130l-66,21c0,0,-75,25,-110,50c0,0,-34,26,-53,63c0,0,-18,36,-18,89c0,0,0,92,63,145c0,0,63,54,170,54c0,0,77,0,193,-23V544H454l-32,81c0,0,-39,35,-124,35c0,0,-61,0,-92,-30c0,0,-32,-30,-32,-80c0,0,0,-43,29,-72c0,0,28,-29,86,-48c0,0,110,-38,144,-55c0,0,33,-17,57,-42c0,0,23,-25,36,-57c0,0,13,-32,13,-79c0,0,0,-104,-66,-158c0,0,-66,-53,-195,-53Z" 
id="f1_2f"
transform="scale(0.001,-0.001)" />

<path d="M55,0V40L184,60V941L55,960v40H455V960L327,941V60L455,40V0Z" 
id="f1_19"
transform="scale(0.001,-0.001)" />

<path d="M211,-20c0,0,-39,0,-64,25c0,0,-26,27,-26,64c0,0,0,38,26,64c0,0,26,26,64,26c0,0,37,0,64,-25c0,0,26,-26,26,-65c0,0,0,-37,-26,-64c0,0,-26,-25,-64,-25Zm0,556c0,0,-38,0,-64,26c0,0,-26,26,-26,64c0,0,0,37,26,64c0,0,25,27,64,27c0,0,38,0,64,-27c0,0,26,-27,26,-64c0,0,0,-38,-26,-64c0,0,-27,-26,-64,-26Z" 
id="f1_u"
transform="scale(0.001,-0.001)" />

<path d="M399,-14c0,0,-341,0,-341,370c0,0,0,175,87,269c0,0,87,95,249,95c0,0,101,0,220,-23V501H573L541,625c0,0,-62,35,-149,35c0,0,-200,0,-200,-304c0,0,0,-158,61,-225c0,0,61,-67,189,-67c0,0,109,0,189,24V43C631,43,595,16,530,1c0,0,-64,-15,-131,-15Z" 
id="f1_1z"
transform="scale(0.001,-0.001)" />

<path d="M31,0V33l88,19V649L31,668v33H235l7,-87c0,0,44,37,121,71c0,0,76,35,121,35h11V530H463l-43,82c0,0,-37,0,-88,-10c0,0,-52,-10,-89,-26V52L363,33V0Z" 
id="f1_2e"
transform="scale(0.001,-0.001)" />

<path d="M495,413c0,0,0,133,-34,190c0,0,-34,57,-105,57c0,0,-78,0,-119,-63c0,0,-42,-62,-42,-184ZM374,-14c0,0,-163,0,-239,87c0,0,-75,88,-75,283c0,0,0,183,77,273c0,0,76,91,219,91c0,0,269,0,269,-306V353H194V340c0,0,0,-103,23,-160c0,0,22,-57,70,-87c0,0,47,-29,124,-29c0,0,40,0,96,6c0,0,55,7,91,15V43C598,43,562,20,500,3c0,0,-61,-17,-126,-17Z" 
id="f1_21"
transform="scale(0.001,-0.001)" />

<path d="M460,-325c0,0,-148,79,-231,172c0,0,-84,93,-123,217c0,0,-39,126,-39,304c0,0,0,178,39,303c0,0,39,125,122,217c0,0,82,93,232,172V997c0,0,-91,-52,-145,-134c0,0,-54,-81,-79,-190c0,0,-25,-109,-25,-305c0,0,0,-194,26,-309c0,0,26,-114,82,-193c0,0,56,-79,141,-128v-63Z" 
id="f1_c"
transform="scale(0.001,-0.001)" />

<path d="M377,45c0,0,99,0,147,73c0,0,47,73,47,237c0,0,0,161,-47,233c0,0,-47,72,-147,72c0,0,-97,0,-141,-69c0,0,-44,-69,-44,-236c0,0,0,-169,45,-240c0,0,44,-70,140,-70Zm0,-59c0,0,-158,0,-238,94c0,0,-81,95,-81,274c0,0,0,178,81,272c0,0,80,94,244,94c0,0,160,0,241,-92c0,0,82,-92,82,-274c0,0,0,-368,-329,-368Z" 
id="f1_2b"
transform="scale(0.001,-0.001)" />

<path d="M289,-14c0,0,-179,0,-179,205V649L20,668v33H233V200c0,0,0,-128,120,-128c0,0,92,0,173,23V649L420,668v33H649V52L738,33V0H533l-6,57C527,57,474,28,405,7c0,0,-69,-21,-116,-21Z" 
id="f1_2h"
transform="scale(0.001,-0.001)" />

<path d="M382,45c0,0,188,0,188,314c0,0,0,143,-47,213c0,0,-46,69,-141,69c0,0,-87,0,-146,-24V58c0,0,67,-13,146,-13ZM25,-325v35l88,18V649L34,668v33H231l1,-41c0,0,31,27,84,43c0,0,53,17,107,17c0,0,134,0,208,-94c0,0,73,-93,73,-267c0,0,0,-178,-80,-276c0,0,-80,-97,-232,-97c0,0,-84,0,-160,16c0,0,4,-53,4,-84V-272l123,-18v-35Z" 
id="f1_2c"
transform="scale(0.001,-0.001)" />

<path d="M439,0V33l93,19V500c0,0,0,62,-30,97c0,0,-31,36,-94,36c0,0,-67,0,-165,-22V52L338,33V0H35V33l84,19V649L35,668v33H235l7,-57c0,0,57,33,122,54c0,0,65,22,108,22c0,0,91,0,137,-53c0,0,47,-53,47,-154V52L741,33V0Z" 
id="f1_2a"
transform="scale(0.001,-0.001)" />

<path d="M359,-270c0,0,124,0,192,46c0,0,67,47,67,129c0,0,0,43,-26,67c0,0,-26,24,-79,24H242c0,0,-32,-27,-51,-69c0,0,-20,-41,-20,-77c0,0,0,-64,46,-92c0,0,46,-28,142,-28Zm11,561c0,0,81,0,115,47c0,0,34,47,34,141c0,0,0,100,-35,142c0,0,-35,42,-113,42c0,0,-78,0,-114,-43c0,0,-37,-42,-37,-141c0,0,0,-98,36,-143c0,0,36,-45,114,-45ZM359,-329c0,0,-143,0,-218,44c0,0,-75,43,-75,125c0,0,0,39,27,78c0,0,26,38,98,89c0,0,-43,14,-72,48c0,0,-29,35,-29,74L208,262c0,0,-118,55,-118,217c0,0,0,115,73,178c0,0,73,63,211,63c0,0,28,0,71,-6c0,0,44,-6,67,-13l165,83l26,-32L599,644c0,0,50,-56,50,-165c0,0,0,-120,-72,-182c0,0,-73,-62,-208,-62c0,0,-62,0,-114,11L208,148c0,0,2,-13,29,-24c0,0,27,-12,67,-12H512c0,0,113,0,168,-49c0,0,55,-49,55,-134c0,0,0,-79,-44,-137c0,0,-43,-58,-128,-90c0,0,-84,-31,-204,-31Z" 
id="f1_23"
transform="scale(0.001,-0.001)" />

<path d="M191,-20c0,0,-39,0,-65,25c0,0,-25,27,-25,64c0,0,0,38,26,64c0,0,26,26,64,26c0,0,38,0,64,-26c0,0,26,-26,26,-64c0,0,0,-37,-25,-64c0,0,-26,-25,-65,-25Z" 
id="f1_i"
transform="scale(0.001,-0.001)" />

<path d="M311,-14c0,0,-94,0,-169,18C142,4,67,23,18,55L57,277h48l1,-143c0,0,25,-37,84,-63c0,0,59,-26,126,-26c0,0,122,0,188,58c0,0,66,58,66,162c0,0,0,40,-18,70c0,0,-18,30,-48,54c0,0,-30,23,-67,44c0,0,-38,20,-77,40c0,0,-40,21,-78,44c0,0,-37,24,-67,55c0,0,-30,31,-48,71c0,0,-18,40,-18,94c0,0,0,133,90,204c0,0,91,70,259,70c0,0,128,0,241,-28L703,774H654l-4,128c0,0,-23,20,-66,33c0,0,-42,13,-98,13c0,0,-99,0,-153,-48c0,0,-53,-48,-53,-136c0,0,0,-47,33,-85c0,0,34,-39,100,-73c0,0,102,-53,146,-80c0,0,45,-28,75,-59c0,0,31,-31,49,-72c0,0,18,-40,18,-92c0,0,0,-154,-100,-236c0,0,-100,-81,-290,-81Z" 
id="f2_1j"
transform="scale(0.001,-0.001)" />

<path d="M-15,-329c0,0,-61,0,-112,13l28,152h34l12,-72c0,0,18,-17,60,-17c0,0,100,0,212,202L253,9L116,649L33,668l6,33H230L338,155L513,458c0,0,48,83,48,144c0,0,0,27,-16,44c0,0,-15,16,-33,22l6,33H659c0,0,20,-17,20,-47c0,0,0,-59,-62,-164L322,-7c0,0,-86,-145,-135,-205c0,0,-50,-61,-98,-89c0,0,-49,-28,-104,-28Z" 
id="f2_2l"
transform="scale(0.001,-0.001)" />

<path d="M317,45c0,0,74,0,134,54c0,0,60,55,97,153c0,0,36,98,36,200c0,0,0,82,-33,129c0,0,-33,46,-89,46c0,0,-40,0,-93,-29c0,0,-54,-29,-96,-75L192,81c0,0,46,-36,125,-36ZM-88,-325l5,35l90,17L170,649L93,668l6,33H297L283,588c0,0,130,132,235,132c0,0,90,0,145,-67c0,0,55,-66,55,-182c0,0,0,-132,-56,-244C662,227,606,114,510,49c0,0,-97,-63,-209,-63c0,0,-35,0,-72,5c0,0,-37,5,-55,11l-8,-67L130,-273l119,-17l-6,-35Z" 
id="f2_2c"
transform="scale(0.001,-0.001)" />

<path d="M55,0L232,1008l-88,18l6,34H365L286,615L274,558c0,0,59,79,128,120c0,0,68,42,134,42c0,0,75,0,113,-41c0,0,38,-41,38,-117c0,0,0,-10,-3,-32c0,0,-3,-21,-81,-478L700,34L695,0H470l76,434c0,0,17,94,17,123c0,0,0,34,-18,55c0,0,-18,21,-56,21c0,0,-56,0,-121,-47c0,0,-65,-47,-107,-114L178,0Z" 
id="f2_24"
transform="scale(0.001,-0.001)" />

<path d="M301,78c0,0,85,0,185,104l81,442c0,0,-29,20,-55,28c0,0,-25,8,-62,8c0,0,-75,0,-137,-56c0,0,-62,-56,-98,-152c0,0,-36,-95,-36,-199c0,0,0,-79,33,-127c0,0,33,-48,89,-48ZM245,-14c0,0,-90,0,-145,66c0,0,-54,66,-54,182c0,0,0,131,57,244c0,0,57,114,152,178c0,0,96,64,208,64c0,0,90,0,170,-33l33,26h40L589,52L673,33L667,0H454l22,117C476,117,350,-14,245,-14Z" 
id="f2_1x"
transform="scale(0.001,-0.001)" />

<path d="M51,-233v58c0,0,138,44,138,125c0,0,0,21,-14,31c0,0,-15,11,-32,21c0,0,-18,10,-32,26c0,0,-15,16,-15,48c0,0,0,40,26,61c0,0,25,21,64,21c0,0,46,0,73,-33c0,0,27,-34,27,-93c0,0,0,-96,-62,-164c0,0,-62,-69,-173,-101Z" 
id="f2_g"
transform="scale(0.001,-0.001)" />

<path d="M-17,0l8,40L120,60L276,941L151,960l7,40H585l-8,-40L420,941L265,65H424c0,0,142,0,222,14l83,208h48L713,0Z" 
id="f2_1c"
transform="scale(0.001,-0.001)" />

<path d="M188,355c0,0,148,11,236,69c0,0,89,58,89,143c0,0,0,41,-23,68c0,0,-22,27,-66,27c0,0,-52,0,-101,-43c0,0,-49,-42,-85,-114c0,0,-36,-71,-50,-150ZM298,-14c0,0,-120,0,-186,67c0,0,-65,67,-65,193c0,0,0,125,53,232c0,0,52,108,145,175c0,0,94,67,196,67c0,0,92,0,147,-42c0,0,56,-43,56,-111c0,0,0,-102,-126,-173c0,0,-125,-72,-336,-86l-3,-54c0,0,0,-95,40,-143c0,0,40,-47,118,-47c0,0,67,0,124,22c0,0,57,23,106,52l22,-32c0,0,-69,-58,-146,-89c0,0,-76,-31,-145,-31Z" 
id="f2_21"
transform="scale(0.001,-0.001)" />

<path d="M228,-17c0,0,-76,0,-114,40c0,0,-38,41,-38,117c0,0,0,11,4,39c0,0,4,29,80,470L78,667l6,34H293L217,268c0,0,-17,-94,-17,-124c0,0,0,-34,18,-55c0,0,18,-21,57,-21c0,0,55,0,120,47c0,0,65,47,107,115l83,471H709L595,52L683,33L677,0H469l20,144C489,144,427,64,360,23c0,0,-67,-40,-132,-40Z" 
id="f2_2h"
transform="scale(0.001,-0.001)" />

<path d="M298,-14c0,0,-120,0,-185,69c0,0,-66,69,-66,191c0,0,0,130,52,237c0,0,52,107,149,172c0,0,97,65,203,65c0,0,53,0,112,-12c0,0,60,-11,99,-27L628,485H587L575,615c0,0,-47,47,-125,47c0,0,-72,0,-134,-53c0,0,-62,-53,-100,-147c0,0,-37,-95,-37,-208c0,0,0,-190,154,-190c0,0,106,0,222,74l22,-32c0,0,-60,-56,-135,-88c0,0,-76,-32,-144,-32Z" 
id="f2_1z"
transform="scale(0.001,-0.001)" />

<path d="M325,47c0,0,68,0,130,54c0,0,61,55,97,149c0,0,36,94,36,202c0,0,0,103,-39,156c0,0,-39,53,-113,53c0,0,-67,0,-128,-54c0,0,-61,-55,-96,-149c0,0,-35,-94,-35,-204c0,0,0,-101,39,-154c0,0,39,-53,109,-53Zm-6,-61c0,0,-124,0,-199,79c0,0,-74,79,-74,214c0,0,0,120,51,222c0,0,51,102,143,160c0,0,91,59,205,59c0,0,124,0,199,-80c0,0,74,-79,74,-214c0,0,0,-120,-51,-222C667,204,615,102,524,43c0,0,-91,-57,-205,-57Z" 
id="f2_2b"
transform="scale(0.001,-0.001)" />

<path d="M228,-14c0,0,-103,0,-209,46L49,200H83L95,99c0,0,20,-21,55,-38c0,0,36,-16,81,-16c0,0,163,0,163,133c0,0,0,44,-35,78c0,0,-34,34,-113,72c0,0,-75,37,-112,81c0,0,-36,45,-36,104c0,0,0,99,66,153c0,0,67,54,184,54c0,0,85,0,200,-26L521,538H486l-11,80c0,0,-47,42,-124,42c0,0,-61,0,-97,-28c0,0,-37,-28,-37,-87c0,0,0,-40,31,-71c0,0,32,-30,119,-75c0,0,78,-40,113,-86c0,0,36,-47,36,-107c0,0,0,-113,-71,-167c0,0,-72,-53,-217,-53Z" 
id="f2_2f"
transform="scale(0.001,-0.001)" />

<path d="M81,0L258,1008l-96,18l6,34H391L214,52L331,33L325,0Z" 
id="f2_28"
transform="scale(0.001,-0.001)" />

<path d="M54,0L169,649L81,668l6,33H294L274,558c0,0,62,81,130,121c0,0,67,41,132,41c0,0,75,0,113,-41c0,0,38,-41,38,-117c0,0,0,-10,-3,-32c0,0,-3,-21,-81,-478L700,34L695,0H470l76,434c0,0,17,94,17,123c0,0,0,34,-18,55c0,0,-18,21,-56,21c0,0,-56,0,-121,-47c0,0,-65,-47,-108,-117L178,0Z" 
id="f2_2a"
transform="scale(0.001,-0.001)" />

<path d="M85,0L199,649l-96,19l6,33H332L218,52L335,33L329,0ZM297,849c0,0,-33,0,-57,24c0,0,-24,24,-24,57c0,0,0,33,24,57c0,0,24,24,57,24c0,0,33,0,57,-24c0,0,24,-24,24,-57c0,0,0,-33,-24,-57c0,0,-24,-24,-57,-24Z" 
id="f2_25"
transform="scale(0.001,-0.001)" />

<path d="M58,-234v58c0,0,131,42,131,125c0,0,0,15,-11,27c0,0,-11,12,-38,25C140,1,89,27,89,75c0,0,0,40,25,61c0,0,26,21,65,21c0,0,48,0,77,-34c0,0,30,-34,30,-86c0,0,0,-101,-60,-170c0,0,-59,-69,-168,-101Z" 
id="f1_g"
transform="scale(0.001,-0.001)" />

<path d="M249,-14c0,0,-71,0,-107,42c0,0,-35,42,-35,119V639H15v33l93,29l76,159h47V701H391V639H231V161c0,0,0,-48,22,-73c0,0,22,-24,57,-24c0,0,44,0,106,12V26C416,26,389,8,340,-2c0,0,-49,-12,-91,-12Z" 
id="f1_2g"
transform="scale(0.001,-0.001)" />

<path d="M49,-325v63c0,0,85,49,140,128c0,0,56,79,83,194c0,0,26,115,26,308c0,0,0,196,-25,305c0,0,-25,109,-79,190c0,0,-54,82,-145,134v63c0,0,149,-80,232,-172c0,0,83,-92,122,-217c0,0,39,-125,39,-303c0,0,0,-177,-39,-303c0,0,-39,-125,-122,-217c0,0,-83,-93,-232,-173Z" 
id="f1_d"
transform="scale(0.001,-0.001)" />

<path d="M529,65c0,0,183,0,270,108c0,0,87,108,87,334c0,0,0,210,-113,318c0,0,-113,108,-322,108H316V71c0,0,90,-6,213,-6Zm0,-67L172,0H44V40L172,60V941L44,960v40H498c0,0,277,0,411,-123c0,0,133,-124,133,-371c0,0,0,-251,-129,-380C913,126,785,-2,529,-2Z" 
id="f1_14"
transform="scale(0.001,-0.001)" />

<path d="M431,0V33L535,52V499c0,0,0,62,-32,96c0,0,-32,33,-95,33c0,0,-66,0,-163,-22V52L350,33V0H32V33l89,19V649L32,668v33H237l6,-57c0,0,56,32,119,54c0,0,62,22,110,22c0,0,52,0,95,-20c0,0,44,-19,66,-62c0,0,57,32,134,57c0,0,77,25,128,25c0,0,179,0,179,-207V52l90,-19V0H846V33L950,52V499c0,0,0,129,-119,129c0,0,-19,0,-45,-3c0,0,-26,-3,-52,-7c0,0,-25,-4,-49,-8c0,0,-23,-5,-39,-8c0,0,13,-41,13,-89V52L764,33V0Z" 
id="f1_29"
transform="scale(0.001,-0.001)" />

<path d="M32,0V33L151,52V649L52,668v33H275V52L395,33V0ZM201,850c0,0,-32,0,-56,24c0,0,-24,24,-24,56c0,0,0,34,24,58c0,0,24,24,56,24c0,0,34,0,58,-24c0,0,24,-24,24,-58c0,0,0,-32,-24,-56c0,0,-24,-24,-58,-24Z" 
id="f1_25"
transform="scale(0.001,-0.001)" />

<path d="M477,0V33l64,19L348,354L257,254V52L331,33V0H44V33l89,19v956L29,1026v34H257V338L544,647l-73,20v34H718V667L631,650L431,446L688,50L764,33V0Z" 
id="f1_27"
transform="scale(0.001,-0.001)" />

<path d="M64,0V34L168,59V639H47v36l121,29v49c0,0,0,155,61,239c0,0,62,84,173,84c0,0,58,0,107,-15V908H472l-33,92c0,0,-26,16,-62,16c0,0,-47,0,-66,-42c0,0,-19,-42,-19,-157V701H478V639H292V59L443,34V0Z" 
id="f1_22"
transform="scale(0.001,-0.001)" />

<path d="M376,50c0,0,103,0,149,80c0,0,46,81,46,240c0,0,0,137,-47,204c0,0,-48,67,-148,67c0,0,-44,0,-87,-7c0,0,-44,-8,-63,-17V62c0,0,63,-12,150,-12Zm3,-64c0,0,-64,0,-141,14c0,0,-78,14,-136,37v971L0,1026v34H226V809c0,0,0,-40,-4,-148c0,0,74,59,188,59c0,0,143,0,219,-87c0,0,77,-87,77,-263c0,0,0,-189,-84,-287c0,0,-84,-97,-243,-97Z" 
id="f1_1y"
transform="scale(0.001,-0.001)" />

<path d="M44,0V40L172,60V941L44,960v40H471V960L316,941V65H513c0,0,159,0,234,14l46,208h48L828,0Z" 
id="f1_1c"
transform="scale(0.001,-0.001)" />

<path d="M44,0V40L172,60V941L44,960v40H794V760H745L721,922c0,0,-83,11,-241,11H316V543H586l23,119h48V354H609L586,475H316V67H513c0,0,193,0,252,12l43,185h49L843,0Z" 
id="f1_15"
transform="scale(0.001,-0.001)" />

<path d="M312,78c0,0,42,0,93,28c0,0,51,27,99,76l82,460c0,0,-18,5,-32,9c0,0,-14,3,-28,6c0,0,-14,2,-29,3c0,0,-16,1,-36,1c0,0,-75,0,-139,-56c0,0,-64,-56,-100,-150c0,0,-37,-95,-37,-202c0,0,0,-80,33,-127c0,0,33,-48,94,-48ZM249,-325c0,0,-65,0,-136,16c0,0,-70,15,-112,37l13,170H48l27,-93c0,0,60,-59,173,-59c0,0,91,0,145,47c0,0,54,48,72,152l29,175c0,0,-54,-59,-120,-97c0,0,-66,-37,-119,-37c0,0,-95,0,-149,66c0,0,-55,67,-55,182c0,0,0,131,58,243c0,0,57,112,154,177c0,0,97,66,211,66c0,0,45,0,117,-9c0,0,72,-9,128,-22L594,-25c0,0,-28,-158,-108,-229c0,0,-80,-71,-237,-71Z" 
id="f2_23"
transform="scale(0.001,-0.001)" />

<path d="M44,0V40L172,60V941L44,960v40H445V960L316,941V549H787V941L659,960v40h400V960L930,941V60L1059,40V0H659V40L787,60V481H316V60L445,40V0Z" 
id="f1_18"
transform="scale(0.001,-0.001)" />

<path d="M13,0V34L95,46L325,350L122,649L40,668v33H357V668L264,648L399,446L554,649l-96,19v33H710V668L630,652L433,397L663,50L745,34V0H427V34l94,17L359,299L169,50L266,34V0Z" 
id="f1_2k"
transform="scale(0.001,-0.001)" />

<path d="M383,64c0,0,85,0,152,28V645c0,0,-67,13,-152,13c0,0,-194,0,-194,-314c0,0,0,-141,48,-211c0,0,48,-69,146,-69ZM342,-14c0,0,-287,0,-287,358c0,0,0,184,82,280c0,0,81,96,239,96c0,0,81,0,163,-18c0,0,-4,25,-4,124v182l-118,18v34H659V52L745,33V0H548l-9,52c0,0,-84,-66,-197,-66Z" 
id="f1_20"
transform="scale(0.001,-0.001)" />

<path d="M327,-14L84,649L1,668v33H335V668L219,648L385,174L554,632h63L786,171L944,649L830,668v33h267V668l-78,-16L784,-14H726L553,448L382,-14Z" 
id="f1_2j"
transform="scale(0.001,-0.001)" />

<path d="M442,0V33l93,19V504c0,0,0,129,-124,129c0,0,-70,0,-168,-22V52L338,33V0H31V33l88,19v956L15,1026v34H243V756c0,0,0,-77,-5,-112c0,0,54,31,122,53c0,0,68,23,115,23c0,0,91,0,137,-53c0,0,47,-53,47,-154V52L744,33V0Z" 
id="f1_24"
transform="scale(0.001,-0.001)" />

<path d="M192,-20c0,0,-38,0,-64,25c0,0,-26,27,-26,64c0,0,0,38,26,64c0,0,26,26,64,26c0,0,39,0,65,-26c0,0,26,-26,26,-64c0,0,0,-37,-26,-64c0,0,-26,-25,-65,-25ZM298,535c0,0,-39,0,-65,27c0,0,-26,27,-26,63c0,0,0,38,26,65c0,0,27,26,65,26c0,0,38,0,64,-26c0,0,26,-27,26,-65c0,0,0,-36,-26,-63c0,0,-26,-27,-64,-27Z" 
id="f2_u"
transform="scale(0.001,-0.001)" />

<path d="M-17,0l8,40L120,60L276,941L151,960l7,40H909L866,761H817l4,161c0,0,-81,11,-239,11H419L349,543H619l45,119h48L657,354H609l-1,121H338L266,67H463c0,0,190,0,254,12l75,185h49L780,0Z" 
id="f2_15"
transform="scale(0.001,-0.001)" />

<path d="M200,-14c0,0,-59,0,-93,35c0,0,-34,36,-34,100c0,0,0,22,4,51c0,0,4,30,82,467H67l6,33l99,29L275,860h47L295,701H455L443,639H283L210,230c0,0,-13,-69,-13,-99c0,0,0,-34,17,-51c0,0,17,-16,43,-16c0,0,54,0,113,21L386,50c0,0,-92,-64,-186,-64Z" 
id="f2_2g"
transform="scale(0.001,-0.001)" />

<path d="M-15,0l6,40L121,60L275,941L151,960l6,40H558l-6,-40L419,941L350,549H821l68,392L765,960l6,40h401l-6,-40L1033,941L879,60L1003,40L996,0H596l6,40L735,60l74,421H338L264,60L388,40L382,0Z" 
id="f2_18"
transform="scale(0.001,-0.001)" />

<path d="M55,0L169,649L81,668l6,33H295L274,557c0,0,52,73,117,118c0,0,65,45,122,45c0,0,66,0,102,-42c0,0,36,-41,36,-121c0,0,51,72,115,117c0,0,64,46,123,46c0,0,63,0,99,-40c0,0,36,-40,36,-116c0,0,0,-16,-3,-42c0,0,-3,-27,-80,-470l98,-19L1032,0H808l77,434c0,0,17,90,17,124c0,0,0,34,-16,54c0,0,-15,21,-49,21c0,0,-33,0,-78,-32c0,0,-46,-31,-83,-80c0,0,-37,-49,-44,-91L558,0H434l76,434c0,0,19,98,19,124c0,0,0,34,-17,54c0,0,-16,21,-51,21c0,0,-33,0,-81,-34c0,0,-47,-33,-84,-80c0,0,-36,-48,-43,-89L179,0Z" 
id="f2_29"
transform="scale(0.001,-0.001)" />

<path d="M435,350V646c0,0,0,84,7,158L145,350ZM435,0V198H21V319l450,686H636V350H736V198H636V0Z" 
id="f0_o"
transform="scale(0.001,-0.001)" />

<path d="M191,-20c0,0,-51,0,-88,34c0,0,-36,36,-36,88c0,0,0,52,36,88c0,0,36,36,88,36c0,0,51,0,88,-36c0,0,36,-36,36,-88c0,0,0,-51,-36,-87c0,0,-36,-35,-88,-35Z" 
id="f0_i"
transform="scale(0.001,-0.001)" />

<path d="M64,0V141c0,0,64,68,119,123c0,0,119,118,174,185c0,0,56,68,81,140c0,0,26,72,26,165c0,0,0,81,-40,131c0,0,-39,50,-105,50c0,0,-46,0,-74,-10c0,0,-27,-10,-50,-29L163,751H98V979c0,0,59,13,116,23c0,0,58,9,125,9c0,0,165,0,252,-68c0,0,88,-68,88,-193c0,0,0,-78,-26,-142c0,0,-26,-64,-83,-124c0,0,-56,-61,-224,-197c0,0,-64,-52,-139,-119H698V0Z" 
id="f0_m"
transform="scale(0.001,-0.001)" />

<path d="M26,0V55L154,74V926L26,946v54H518V946L389,926V555H798V926L670,946v54h493V946L1034,926V74L1163,55V0H670V55L798,74V473H389V74L518,55V0Z" 
id="f0_18"
transform="scale(0.001,-0.001)" />

<path d="M285,0V54L444,74V389L140,926L27,945v55H542V945L407,926L636,507L856,926L734,945v55h340V945L968,926L680,394V74L838,54V0Z" 
id="f0_1p"
transform="scale(0.001,-0.001)" />

<path d="M26,0V54L154,74V926L27,945v55H544V945L389,926V79H593c0,0,159,0,234,15l61,208h67L927,0Z" 
id="f0_1c"
transform="scale(0.001,-0.001)" />

<path d="M566,-14c0,0,-200,0,-308,93c0,0,-107,94,-107,270V926L38,945v55H515V945L386,926V339c0,0,0,-120,61,-184c0,0,61,-64,178,-64c0,0,112,0,173,63c0,0,61,62,61,184V926L725,945v55h340V945L952,926V343c0,0,0,-173,-100,-265c0,0,-100,-92,-286,-92Z" 
id="f0_1l"
transform="scale(0.001,-0.001)" />

<path d="M900,0V54l135,20V845L658,0H617L248,845V74L382,54V0H26V54L154,74V926L26,945v55H419L705,342l292,658h401V945L1270,926V74L1398,54V0Z" 
id="f0_1d"
transform="scale(0.001,-0.001)" />

<path d="M595,60c0,0,141,0,206,102c0,0,65,102,65,340c0,0,0,236,-65,335c0,0,-65,100,-206,100c0,0,-142,0,-207,-100c0,0,-66,-99,-66,-335c0,0,0,-239,66,-340c0,0,65,-102,207,-102Zm0,-74c0,0,-253,0,-387,130C208,116,75,246,75,501c0,0,0,510,520,510c0,0,256,0,387,-129c0,0,132,-130,132,-381c0,0,0,-254,-133,-385C981,116,848,-14,595,-14Z" 
id="f0_1f"
transform="scale(0.001,-0.001)" />

<path d="M26,0V54L154,74V926L26,945v55H878V746H810L786,908c0,0,-83,10,-241,10H389V551H651l23,111h67V355H674L651,468H389V82H578c0,0,193,0,252,12l43,185h68L927,0Z" 
id="f0_15"
transform="scale(0.001,-0.001)" />

<path d="M868,0L251,804V74L385,54V0H29V54L157,74V926L29,945v55H371L862,361V926L727,945v55h356V945L955,926V0Z" 
id="f0_1e"
transform="scale(0.001,-0.001)" />

<path d="M231,0V54L390,74V921H352c0,0,-171,0,-240,-15L92,721H24v279H996V721H927L907,906c0,0,-62,14,-245,14H626V74L785,54V0Z" 
id="f0_1k"
transform="scale(0.001,-0.001)" />

<path d="M498,506c0,0,115,0,164,47c0,0,48,48,48,166c0,0,0,112,-46,156c0,0,-46,43,-169,43H390V506ZM793,0L514,423H390V74L518,54V0H36V54L154,74V926L26,945v55H504c0,0,221,0,330,-68c0,0,109,-68,109,-212c0,0,0,-215,-201,-276L1009,74L1117,54V0Z" 
id="f0_1i"
transform="scale(0.001,-0.001)" />

<path d="M639,416L478,858L313,416ZM647,0V54L762,74L667,333H283L191,74L319,54V0H15V54L90,74l355,935H662L1016,74l76,-20V0Z" 
id="f0_11"
transform="scale(0.001,-0.001)" />

<path d="M681,416L504,902L333,416ZM669,0V40L803,60L704,348H310L210,60L344,40V0H15V40L128,60l341,949H611L965,60L1092,40V0Z" 
id="f1_11"
transform="scale(0.001,-0.001)" />

<path d="M148,-329c0,0,-58,0,-114,13v151H69l24,-71c0,0,23,-17,64,-17c0,0,39,0,72,22c0,0,33,23,60,67c0,0,27,44,68,157L90,649L19,668v33H344V668L233,648L423,158L606,649L497,668v33H758V668L685,652L411,-43c0,0,-48,-124,-84,-177c0,0,-36,-54,-79,-82c0,0,-44,-27,-100,-27Z" 
id="f1_2l"
transform="scale(0.001,-0.001)" />

<path d="M235,0V40L394,60V936H356c0,0,-189,0,-258,-15L78,766H28v234H908V766H857L837,921c0,0,-22,5,-98,9c0,0,-75,4,-165,4H538V60L697,40V0Z" 
id="f1_1k"
transform="scale(0.001,-0.001)" />

<path d="M360,-14L72,649L0,668v33H327V668L216,648L420,164L615,649L504,668v33H764V668L697,652L416,-14Z" 
id="f1_2i"
transform="scale(0.001,-0.001)" />

<path d="M370,468c0,0,96,0,194,40c0,0,0,229,-45,336c0,0,-45,107,-146,107c0,0,-187,0,-187,-259c0,0,0,-115,45,-169c0,0,45,-55,139,-55ZM312,-14c0,0,-122,0,-223,25V184h48L163,76c0,0,24,-11,65,-20c0,0,40,-9,81,-9c0,0,119,0,183,105c0,0,65,104,71,307c0,0,-113,-62,-230,-62c0,0,-132,0,-208,79c0,0,-76,78,-76,219c0,0,0,151,85,233c0,0,84,83,237,83c0,0,171,0,251,-123c0,0,79,-123,79,-385c0,0,0,-252,-102,-385C599,118,497,-14,312,-14Z" 
id="f1_t"
transform="scale(0.001,-0.001)" />

<path d="M377,45c0,0,99,0,145,108c0,0,46,109,46,352c0,0,0,240,-45,345c0,0,-46,106,-146,106c0,0,-97,0,-139,-100c0,0,-43,-99,-43,-351c0,0,0,-254,44,-357c0,0,43,-103,138,-103Zm0,-59c0,0,-158,0,-238,132c0,0,-81,133,-81,386c0,0,0,249,81,380c0,0,80,132,244,132c0,0,159,0,241,-130c0,0,82,-130,82,-382c0,0,0,-518,-329,-518Z" 
id="f1_k"
transform="scale(0.001,-0.001)" />

<path d="M383,64c0,0,44,0,87,7c0,0,43,7,65,17V645c0,0,-67,13,-152,13c0,0,-194,0,-194,-309c0,0,0,-143,48,-214c0,0,47,-71,146,-71Zm56,-389v35l96,18V-77c0,0,0,73,7,124c0,0,-79,-61,-200,-61c0,0,-287,0,-287,362c0,0,0,180,81,276c0,0,81,96,237,96c0,0,84,0,166,-18l67,33h53V-272l77,-18v-35Z" 
id="f1_2d"
transform="scale(0.001,-0.001)" />

<path d="M617,0L251,860V60L385,40V0H44V40L172,60V941L44,960v40H347L672,239l355,761h287V960L1185,941V60L1314,40V0H908V40l134,20V859L643,0Z" 
id="f1_1d"
transform="scale(0.001,-0.001)" />

<path d="M159,-329c0,0,-61,0,-123,14v180H81l32,-94c0,0,21,-17,55,-17c0,0,28,0,50,13c0,0,21,14,40,39c0,0,20,25,37,62c0,0,17,37,50,110L64,634L15,652v49H374V652L290,632L455,244L602,634l-82,18v49H749V652L698,637L421,-44c0,0,-47,-121,-83,-176c0,0,-36,-55,-80,-82c0,0,-43,-27,-99,-27Z" 
id="f0_2l"
transform="scale(0.001,-0.001)" />

<path d="M416,68c0,0,60,0,124,32V628c0,0,-58,15,-118,15c0,0,-67,0,-104,-73c0,0,-38,-73,-38,-216c0,0,0,-139,36,-212c0,0,35,-74,100,-74ZM369,-14c0,0,-155,0,-231,88c0,0,-76,90,-76,274c0,0,0,182,82,277c0,0,81,95,236,95c0,0,82,0,165,-20c0,0,-5,24,-5,115V992l-72,18v50H756V67L833,49V0H562L547,40C547,40,505,13,483,4c0,0,-23,-7,-51,-12c0,0,-28,-6,-63,-6Z" 
id="f0_20"
transform="scale(0.001,-0.001)" />

<path d="M41,0V49l69,18V992l-72,18v50H325V756c0,0,0,-49,-4,-116l51,26c0,0,106,54,190,54c0,0,194,0,194,-207V67L827,49V0H478V49l63,18V484c0,0,0,63,-27,98c0,0,-26,35,-75,35c0,0,-57,0,-114,-25V67L389,49V0Z" 
id="f0_24"
transform="scale(0.001,-0.001)" />

<path d="M305,-14L57,634L4,652v49H351V652L268,632L419,232L581,631h71L814,232L950,634l-82,18v49h227V652l-54,-15L806,-14H715L555,378L395,-14Z" 
id="f0_2j"
transform="scale(0.001,-0.001)" />

<path d="M51,0V55L180,74V926L51,946v54H543V946L415,926V74L543,55V0Z" 
id="f0_19"
transform="scale(0.001,-0.001)" />

<path d="M41,0V49l69,18V634L41,652v49H313l11,-61l50,26c0,0,105,54,188,54c0,0,125,0,167,-91c0,0,153,91,258,91c0,0,189,0,189,-207V67l71,-17V0H898V50l63,17V484c0,0,0,63,-24,98c0,0,-25,35,-74,35c0,0,-55,0,-119,-31c0,0,7,-32,7,-73V67L821,50V0H473V50l63,17V484c0,0,0,63,-25,98c0,0,-24,35,-73,35c0,0,-49,0,-113,-29V67L389,49V0Z" 
id="f0_29"
transform="scale(0.001,-0.001)" />

<path d="M438,65c0,0,131,0,131,293c0,0,0,279,-130,279c0,0,-69,0,-127,-29V80c0,0,60,-15,126,-15ZM20,-325v50l76,18V634L19,652v49H304l1,-36c0,0,80,55,194,55c0,0,146,0,218,-86c0,0,71,-86,71,-271c0,0,0,-183,-83,-280c0,0,-83,-97,-238,-97c0,0,-79,0,-160,19c0,0,5,-48,5,-109V-257l103,-18v-50Z" 
id="f0_2c"
transform="scale(0.001,-0.001)" />

<path d="M287,-18c0,0,-194,0,-194,206V634L23,652v49H309V217c0,0,0,-63,26,-98c0,0,27,-35,76,-35c0,0,57,0,113,25V634l-64,18v49H740V67L809,49V0H536L526,61L475,35c0,0,-104,-53,-188,-53Z" 
id="f0_2h"
transform="scale(0.001,-0.001)" />

<path d="M273,157c0,0,-114,0,-193,80C80,237,0,317,0,431c0,0,0,112,80,192c0,0,79,80,193,80c0,0,113,0,192,-80c0,0,80,-80,80,-192c0,0,0,-114,-80,-194c0,0,-79,-80,-192,-80Z" 
id="f3_3d"
transform="scale(0.001,-0.001)" />

<path d="M448,506c0,0,134,0,190,49c0,0,57,50,57,168c0,0,0,114,-56,162c0,0,-56,48,-195,48H316V506ZM777,0L496,438H316V60L468,40V0H54V40L172,60V941L44,960v40H476c0,0,188,0,277,-63c0,0,90,-64,90,-204c0,0,0,-100,-54,-173c0,0,-55,-73,-151,-101L909,60L1017,40V0Z" 
id="f1_1i"
transform="scale(0.001,-0.001)" />

<path d="M536,63c0,0,127,0,191,54c0,0,63,54,63,168c0,0,0,105,-70,154c0,0,-70,49,-225,49H316V67c0,0,103,-4,220,-4ZM480,555c0,0,121,0,178,48c0,0,57,48,57,155c0,0,0,91,-58,133c0,0,-57,42,-186,42H316V555ZM554,-4L235,0H44V40L172,60V941L44,960v40H501c0,0,191,0,279,-56c0,0,88,-56,88,-179c0,0,0,-88,-55,-149c0,0,-54,-62,-151,-83c0,0,135,-14,209,-79c0,0,73,-65,73,-166c0,0,0,-144,-99,-219C845,69,745,-4,554,-4Z" 
id="f1_12"
transform="scale(0.001,-0.001)" />

<path d="M559,77c0,0,87,0,129,53c0,0,42,53,42,162c0,0,0,99,-49,147c0,0,-50,49,-163,49H389V82c0,0,108,-5,170,-5ZM499,570c0,0,80,0,118,42c0,0,38,42,38,141c0,0,0,88,-38,126c0,0,-37,39,-124,39H389V570ZM561,-3L221,0H25V54L154,74V926L25,945v55H511c0,0,199,0,294,-53c0,0,95,-53,95,-173c0,0,0,-89,-56,-154c0,0,-56,-65,-150,-85c0,0,139,-14,211,-76c0,0,71,-61,71,-167c0,0,0,-146,-107,-221C869,71,762,-3,561,-3Z" 
id="f0_12"
transform="scale(0.001,-0.001)" />

<path d="M342,-14L49,634L0,652v49H359V652L275,632L455,233L617,634l-82,18v49H764V652L713,637L433,-14Z" 
id="f0_2i"
transform="scale(0.001,-0.001)" />

<path d="M225,0c0,0,2,129,51,312c0,0,48,183,139,352c0,0,91,170,193,286H72v129H780V975C780,975,676,864,573,680C573,680,470,495,414,301C414,301,374,163,363,0Z" 
id="f4_r"
transform="scale(0.001,-0.001)" />


</defs>
</svg>