<?xml version="1.0" encoding="UTF-8" standalone="no"?>
<!DOCTYPE svg PUBLIC "-//W3C//DTD SVG 1.1//EN"
"http://www.w3.org/Graphics/SVG/1.1/DTD/svg11.dtd">
<svg viewBox="0 0 909 1286" version="1.1" xmlns="http://www.w3.org/2000/svg" xmlns:xlink="http://www.w3.org/1999/xlink">
<defs>
<style type="text/css"><![CDATA[
.g0_69{
fill: #FFFFFF;
}
.g1_69{
}
]]></style>
</defs>
<path fill-rule="evenodd" d="M52.8,75.9H856.9V55H52.8V75.9Z" class="g0_69" />
<g fill="#000000" >
<use xlink:href="#f0_1d" transform="matrix(12,0,0,12,55,71.9)" />
<use xlink:href="#f0_2b" transform="matrix(12,0,0,12,71.2,71.9)" />
<use xlink:href="#f0_2f" transform="matrix(12,0,0,12,80.7,71.9)" />
<use xlink:href="#f0_2g" transform="matrix(12,0,0,12,87.7,71.9)" />
<use xlink:href="#f0_28" transform="matrix(12,0,0,12,93.1,71.9)" />
<use xlink:href="#f0_2l" transform="matrix(12,0,0,12,97.9,71.9)" />
<use xlink:href="#f0_2b" transform="matrix(12,0,0,12,111.1,71.9)" />
<use xlink:href="#f0_2i" transform="matrix(12,0,0,12,120.6,71.9)" />
<use xlink:href="#f0_25" transform="matrix(12,0,0,12,129.8,71.9)" />
<use xlink:href="#f0_2c" transform="matrix(12,0,0,12,134.5,71.9)" />
<use xlink:href="#f0_1x" transform="matrix(12,0,0,12,143.7,71.9)" />
<use xlink:href="#f0_2e" transform="matrix(12,0,0,12,151.8,71.9)" />
<use xlink:href="#f0_2b" transform="matrix(12,0,0,12,158,71.9)" />
<use xlink:href="#f0_2h" transform="matrix(12,0,0,12,167.5,71.9)" />
<use xlink:href="#f0_2f" transform="matrix(12,0,0,12,176.7,71.9)" />
</g>
<path fill-rule="evenodd" d="M52.8,97.2H856.9V75.9H52.8V97.2Z" class="g0_69" />
<g fill="#000000" >
<use xlink:href="#f0_14" transform="matrix(12,0,0,12,55,92.8)" />
<use xlink:href="#f0_21" transform="matrix(12,0,0,12,68.3,92.8)" />
<use xlink:href="#f0_2i" transform="matrix(12,0,0,12,76.3,92.8)" />
<use xlink:href="#f0_21" transform="matrix(12,0,0,12,85.1,92.8)" />
<use xlink:href="#f0_28" transform="matrix(12,0,0,12,93.5,92.8)" />
<use xlink:href="#f0_2b" transform="matrix(12,0,0,12,97.9,92.8)" />
<use xlink:href="#f0_2c" transform="matrix(12,0,0,12,107.4,92.8)" />
<use xlink:href="#f0_29" transform="matrix(12,0,0,12,116.9,92.8)" />
<use xlink:href="#f0_21" transform="matrix(12,0,0,12,130.9,92.8)" />
<use xlink:href="#f0_2a" transform="matrix(12,0,0,12,139.3,92.8)" />
<use xlink:href="#f0_2g" transform="matrix(12,0,0,12,148.1,92.8)" />
<use xlink:href="#f0_25" transform="matrix(12,0,0,12,158.7,92.8)" />
<use xlink:href="#f0_2f" transform="matrix(12,0,0,12,163.1,92.8)" />
<use xlink:href="#f0_25" transform="matrix(12,0,0,12,175.2,92.8)" />
<use xlink:href="#f0_2a" transform="matrix(12,0,0,12,179.9,92.8)" />
<use xlink:href="#f0_20" transform="matrix(12,0,0,12,189.1,92.8)" />
<use xlink:href="#f0_25" transform="matrix(12,0,0,12,198.6,92.8)" />
<use xlink:href="#f0_2e" transform="matrix(12,0,0,12,203,92.8)" />
<use xlink:href="#f0_21" transform="matrix(12,0,0,12,209.2,92.8)" />
<use xlink:href="#f0_1z" transform="matrix(12,0,0,12,217.3,92.8)" />
<use xlink:href="#f0_2g" transform="matrix(12,0,0,12,225.4,92.8)" />
<use xlink:href="#f0_i" transform="matrix(12,0,0,12,230.9,92.8)" />
</g>
<path fill-rule="evenodd" d="M52.8,118.1H856.9V97.2H52.8v20.9Z" class="g0_69" />
<path fill-rule="evenodd" d="M52.8,328.2H856.9V118.1H52.8V328.2Z" class="g0_69" />
<image preserveAspectRatio="none" x="55" y="118" width="327" height="210" xlink:href="img/1.png" />
<g fill="#231F20" >
<use xlink:href="#f0_15" transform="matrix(12,0,0,12,55,345.1)" />
<use xlink:href="#f0_2k" transform="matrix(12,0,0,12,66.4,345.1)" />
<use xlink:href="#f0_1x" transform="matrix(12,0,0,12,75.2,345.1)" />
<use xlink:href="#f0_29" transform="matrix(12,0,0,12,83.6,345.1)" />
<use xlink:href="#f0_2c" transform="matrix(12,0,0,12,97.5,345.1)" />
<use xlink:href="#f0_28" transform="matrix(12,0,0,12,107,345.1)" />
<use xlink:href="#f0_21" transform="matrix(12,0,0,12,111.8,345.1)" />
<use xlink:href="#f0_2f" transform="matrix(12,0,0,12,119.9,345.1)" />
<use xlink:href="#f0_u" transform="matrix(12,0,0,12,126.8,345.1)" />
<use xlink:href="#f0_1d" transform="matrix(12,0,0,12,136.7,345.1)" />
<use xlink:href="#f0_1x" transform="matrix(12,0,0,12,152.9,345.1)" />
<use xlink:href="#f0_2e" transform="matrix(12,0,0,12,160.9,345.1)" />
<use xlink:href="#f0_25" transform="matrix(12,0,0,12,167.5,345.1)" />
<use xlink:href="#f0_2a" transform="matrix(12,0,0,12,172.3,345.1)" />
<use xlink:href="#f0_21" transform="matrix(12,0,0,12,181.4,345.1)" />
<use xlink:href="#f1_4y" transform="matrix(12,0,0,12,194.4,345.1)" />
<use xlink:href="#f2_15" transform="matrix(12,0,0,12,208.3,345.1)" />
<use xlink:href="#f2_2k" transform="matrix(12,0,0,12,219.7,345.1)" />
<use xlink:href="#f2_2b" transform="matrix(12,0,0,12,227.8,345.1)" />
<use xlink:href="#f2_1z" transform="matrix(12,0,0,12,236.9,345.1)" />
<use xlink:href="#f2_2b" transform="matrix(12,0,0,12,245,345.1)" />
<use xlink:href="#f2_21" transform="matrix(12,0,0,12,254.2,345.1)" />
<use xlink:href="#f2_2g" transform="matrix(12,0,0,12,262.2,345.1)" />
<use xlink:href="#f2_2h" transform="matrix(12,0,0,12,267.3,345.1)" />
<use xlink:href="#f2_2f" transform="matrix(12,0,0,12,276.5,345.1)" />
<use xlink:href="#f0_c" transform="matrix(12,0,0,12,288.3,345.1)" />
<use xlink:href="#f0_16" transform="matrix(12,0,0,12,294.5,345.1)" />
<use xlink:href="#f0_28" transform="matrix(12,0,0,12,304.8,345.1)" />
<use xlink:href="#f0_2l" transform="matrix(12,0,0,12,309.5,345.1)" />
<use xlink:href="#f0_25" transform="matrix(12,0,0,12,318.7,345.1)" />
<use xlink:href="#f0_2a" transform="matrix(12,0,0,12,323.5,345.1)" />
<use xlink:href="#f0_23" transform="matrix(12,0,0,12,332.6,345.1)" />
<use xlink:href="#f0_22" transform="matrix(12,0,0,12,346.9,345.1)" />
<use xlink:href="#f0_25" transform="matrix(12,0,0,12,352.8,345.1)" />
<use xlink:href="#f0_2f" transform="matrix(12,0,0,12,357.6,345.1)" />
<use xlink:href="#f0_24" transform="matrix(12,0,0,12,364.9,345.1)" />
<use xlink:href="#f0_d" transform="matrix(12,0,0,12,373.7,345.1)" />
<use xlink:href="#f0_g" transform="matrix(12,0,0,12,379.9,345.1)" />
<use xlink:href="#f2_18" transform="matrix(12,0,0,12,389.6,345.1)" />
<use xlink:href="#f2_25" transform="matrix(12,0,0,12,402.8,345.1)" />
<use xlink:href="#f2_2c" transform="matrix(12,0,0,12,407.9,345.1)" />
<use xlink:href="#f2_2c" transform="matrix(12,0,0,12,417.1,345.1)" />
<use xlink:href="#f2_2b" transform="matrix(12,0,0,12,426.2,345.1)" />
<use xlink:href="#f2_1z" transform="matrix(12,0,0,12,435.4,345.1)" />
<use xlink:href="#f2_1x" transform="matrix(12,0,0,12,443.5,345.1)" />
<use xlink:href="#f2_29" transform="matrix(12,0,0,12,452.6,345.1)" />
<use xlink:href="#f2_2c" transform="matrix(12,0,0,12,465.9,345.1)" />
<use xlink:href="#f2_2h" transform="matrix(12,0,0,12,475,345.1)" />
<use xlink:href="#f2_2f" transform="matrix(12,0,0,12,484.2,345.1)" />
<use xlink:href="#f0_c" transform="matrix(12,0,0,12,495.9,345.1)" />
<use xlink:href="#f0_1j" transform="matrix(12,0,0,12,502.1,345.1)" />
<use xlink:href="#f0_21" transform="matrix(12,0,0,12,512.4,345.1)" />
<use xlink:href="#f0_1x" transform="matrix(12,0,0,12,520.4,345.1)" />
<use xlink:href="#f0_24" transform="matrix(12,0,0,12,533.3,345.1)" />
<use xlink:href="#f0_2b" transform="matrix(12,0,0,12,542.1,345.1)" />
<use xlink:href="#f0_2e" transform="matrix(12,0,0,12,551.6,345.1)" />
<use xlink:href="#f0_2f" transform="matrix(12,0,0,12,557.9,345.1)" />
<use xlink:href="#f0_21" transform="matrix(12,0,0,12,564.9,345.1)" />
<use xlink:href="#f0_d" transform="matrix(12,0,0,12,572.9,345.1)" />
<use xlink:href="#f0_i" transform="matrix(12,0,0,12,579.2,345.1)" />
<use xlink:href="#f0_16" transform="matrix(12,0,0,12,55,366)" />
<use xlink:href="#f0_2e" transform="matrix(12,0,0,12,64.9,366)" />
<use xlink:href="#f0_21" transform="matrix(12,0,0,12,71.2,366)" />
<use xlink:href="#f0_2f" transform="matrix(12,0,0,12,79.2,366)" />
<use xlink:href="#f0_24" transform="matrix(12,0,0,12,86.5,366)" />
<use xlink:href="#f0_2j" transform="matrix(12,0,0,12,95.3,366)" />
<use xlink:href="#f0_1x" transform="matrix(12,0,0,12,108.6,366)" />
<use xlink:href="#f0_2g" transform="matrix(12,0,0,12,116.6,366)" />
<use xlink:href="#f0_21" transform="matrix(12,0,0,12,122.1,366)" />
<use xlink:href="#f0_2e" transform="matrix(12,0,0,12,130.1,366)" />
<use xlink:href="#f1_4y" transform="matrix(12,0,0,12,141.2,366)" />
<use xlink:href="#f2_1c" transform="matrix(12,0,0,12,155.2,366)" />
<use xlink:href="#f2_1x" transform="matrix(12,0,0,12,165.4,366)" />
<use xlink:href="#f2_1y" transform="matrix(12,0,0,12,174.6,366)" />
<use xlink:href="#f2_21" transform="matrix(12,0,0,12,183.8,366)" />
<use xlink:href="#f2_2b" transform="matrix(12,0,0,12,191.8,366)" />
<use xlink:href="#f0_c" transform="matrix(12,0,0,12,205.4,366)" />
<use xlink:href="#f0_1i" transform="matrix(12,0,0,12,211.6,366)" />
<use xlink:href="#f0_2b" transform="matrix(12,0,0,12,223.7,366)" />
<use xlink:href="#f0_24" transform="matrix(12,0,0,12,233.2,366)" />
<use xlink:href="#f0_2h" transform="matrix(12,0,0,12,242,366)" />
<use xlink:href="#f0_d" transform="matrix(12,0,0,12,251.2,366)" />
<use xlink:href="#f0_i" transform="matrix(12,0,0,12,257.4,366)" />
<use xlink:href="#f2_13" transform="matrix(12,0,0,12,55,387.3)" />
<use xlink:href="#f2_1x" transform="matrix(12,0,0,12,67.1,387.3)" />
<use xlink:href="#f2_2g" transform="matrix(12,0,0,12,76.3,387.3)" />
<use xlink:href="#f2_28" transform="matrix(12,0,0,12,81.4,387.3)" />
<use xlink:href="#f2_1x" transform="matrix(12,0,0,12,86.6,387.3)" />
<use xlink:href="#f0_c" transform="matrix(12,0,0,12,100.5,387.3)" />
<use xlink:href="#f0_1b" transform="matrix(12,0,0,12,106.7,387.3)" />
<use xlink:href="#f0_1x" transform="matrix(12,0,0,12,119.6,387.3)" />
<use xlink:href="#f0_2g" transform="matrix(12,0,0,12,127.6,387.3)" />
<use xlink:href="#f0_28" transform="matrix(12,0,0,12,133.1,387.3)" />
<use xlink:href="#f0_1x" transform="matrix(12,0,0,12,137.9,387.3)" />
<use xlink:href="#f0_d" transform="matrix(12,0,0,12,145.9,387.3)" />
<use xlink:href="#f0_g" transform="matrix(12,0,0,12,152.1,387.3)" />
<use xlink:href="#f2_13" transform="matrix(12,0,0,12,161.8,387.3)" />
<use xlink:href="#f2_28" transform="matrix(12,0,0,12,173.9,387.3)" />
<use xlink:href="#f2_1x" transform="matrix(12,0,0,12,179,387.3)" />
<use xlink:href="#f2_2e" transform="matrix(12,0,0,12,188.1,387.3)" />
<use xlink:href="#f2_25" transform="matrix(12,0,0,12,195.1,387.3)" />
<use xlink:href="#f2_1x" transform="matrix(12,0,0,12,200.2,387.3)" />
<use xlink:href="#f2_2f" transform="matrix(12,0,0,12,209.4,387.3)" />
<use xlink:href="#f0_c" transform="matrix(12,0,0,12,221.2,387.3)" />
<use xlink:href="#f0_1d" transform="matrix(12,0,0,12,227.4,387.3)" />
<use xlink:href="#f0_1x" transform="matrix(12,0,0,12,243.5,387.3)" />
<use xlink:href="#f0_23" transform="matrix(12,0,0,12,251.6,387.3)" />
<use xlink:href="#f0_2h" transform="matrix(12,0,0,12,260.8,387.3)" />
<use xlink:href="#f0_2e" transform="matrix(12,0,0,12,269.9,387.3)" />
<use xlink:href="#f0_d" transform="matrix(12,0,0,12,276.1,387.3)" />
<use xlink:href="#f0_i" transform="matrix(12,0,0,12,282.4,387.3)" />
<use xlink:href="#f0_11" transform="matrix(12,0,0,12,55,408.2)" />
<use xlink:href="#f0_2d" transform="matrix(12,0,0,12,67.9,408.2)" />
<use xlink:href="#f0_2h" transform="matrix(12,0,0,12,77,408.2)" />
<use xlink:href="#f0_1x" transform="matrix(12,0,0,12,86.2,408.2)" />
<use xlink:href="#f0_2e" transform="matrix(12,0,0,12,94.3,408.2)" />
<use xlink:href="#f0_25" transform="matrix(12,0,0,12,100.9,408.2)" />
<use xlink:href="#f0_2h" transform="matrix(12,0,0,12,105.6,408.2)" />
<use xlink:href="#f0_29" transform="matrix(12,0,0,12,115.1,408.2)" />
<use xlink:href="#f1_4y" transform="matrix(12,0,0,12,133.5,408.2)" />
<use xlink:href="#f0_12" transform="matrix(12,0,0,12,147.5,408.2)" />
<use xlink:href="#f0_21" transform="matrix(12,0,0,12,159.6,408.2)" />
<use xlink:href="#f0_2g" transform="matrix(12,0,0,12,167.6,408.2)" />
<use xlink:href="#f0_2g" transform="matrix(12,0,0,12,173.1,408.2)" />
<use xlink:href="#f0_1x" transform="matrix(12,0,0,12,178.6,408.2)" />
<use xlink:href="#f0_c" transform="matrix(12,0,0,12,191.1,408.2)" />
<use xlink:href="#f0_16" transform="matrix(12,0,0,12,197.3,408.2)" />
<use xlink:href="#f0_25" transform="matrix(12,0,0,12,207.6,408.2)" />
<use xlink:href="#f0_23" transform="matrix(12,0,0,12,212,408.2)" />
<use xlink:href="#f0_24" transform="matrix(12,0,0,12,221.5,408.2)" />
<use xlink:href="#f0_2g" transform="matrix(12,0,0,12,230.3,408.2)" />
<use xlink:href="#f0_25" transform="matrix(12,0,0,12,236.1,408.2)" />
<use xlink:href="#f0_2a" transform="matrix(12,0,0,12,240.9,408.2)" />
<use xlink:href="#f0_23" transform="matrix(12,0,0,12,249.7,408.2)" />
<use xlink:href="#f0_22" transform="matrix(12,0,0,12,264,408.2)" />
<use xlink:href="#f0_25" transform="matrix(12,0,0,12,269.9,408.2)" />
<use xlink:href="#f0_2f" transform="matrix(12,0,0,12,274.6,408.2)" />
<use xlink:href="#f0_24" transform="matrix(12,0,0,12,281.9,408.2)" />
<use xlink:href="#f0_d" transform="matrix(12,0,0,12,290.7,408.2)" />
<use xlink:href="#f0_g" transform="matrix(12,0,0,12,296.9,408.2)" />
<use xlink:href="#f2_1g" transform="matrix(12,0,0,12,306.6,408.2)" />
<use xlink:href="#f2_2g" transform="matrix(12,0,0,12,317.6,408.2)" />
<use xlink:href="#f2_21" transform="matrix(12,0,0,12,322.7,408.2)" />
<use xlink:href="#f2_2e" transform="matrix(12,0,0,12,330.9,408.2)" />
<use xlink:href="#f2_2b" transform="matrix(12,0,0,12,337.8,408.2)" />
<use xlink:href="#f2_2c" transform="matrix(12,0,0,12,347,408.2)" />
<use xlink:href="#f2_24" transform="matrix(12,0,0,12,356.1,408.2)" />
<use xlink:href="#f2_2l" transform="matrix(12,0,0,12,365.3,408.2)" />
<use xlink:href="#f2_28" transform="matrix(12,0,0,12,373.4,408.2)" />
<use xlink:href="#f2_28" transform="matrix(12,0,0,12,378.5,408.2)" />
<use xlink:href="#f2_2h" transform="matrix(12,0,0,12,383.6,408.2)" />
<use xlink:href="#f2_29" transform="matrix(12,0,0,12,392.8,408.2)" />
<use xlink:href="#f0_c" transform="matrix(12,0,0,12,410.8,408.2)" />
<use xlink:href="#f0_11" transform="matrix(12,0,0,12,417,408.2)" />
<use xlink:href="#f0_2a" transform="matrix(12,0,0,12,430.3,408.2)" />
<use xlink:href="#f0_23" transform="matrix(12,0,0,12,439,408.2)" />
<use xlink:href="#f0_21" transform="matrix(12,0,0,12,448.2,408.2)" />
<use xlink:href="#f0_28" transform="matrix(12,0,0,12,456.6,408.2)" />
<use xlink:href="#f0_22" transform="matrix(12,0,0,12,466.5,408.2)" />
<use xlink:href="#f0_25" transform="matrix(12,0,0,12,472.4,408.2)" />
<use xlink:href="#f0_2f" transform="matrix(12,0,0,12,477.1,408.2)" />
<use xlink:href="#f0_24" transform="matrix(12,0,0,12,484.4,408.2)" />
<use xlink:href="#f0_d" transform="matrix(12,0,0,12,493.2,408.2)" />
<use xlink:href="#f0_i" transform="matrix(12,0,0,12,499.5,408.2)" />
</g>
<path fill-rule="evenodd" d="M52.8,433.5H856.9V412.6H52.8v20.9Z" class="g0_69" />
<path fill-rule="evenodd" d="M52.8,454.8H856.9V433.5H52.8v21.3Z" class="g0_69" />
<g fill="#000000" >
<use xlink:href="#f3_1j" transform="matrix(12,0,0,12,55,450.4)" />
<use xlink:href="#f3_1l" transform="matrix(12,0,0,12,65.3,450.4)" />
<use xlink:href="#f3_1g" transform="matrix(12,0,0,12,78.5,450.4)" />
<use xlink:href="#f3_15" transform="matrix(12,0,0,12,89.5,450.4)" />
<use xlink:href="#f3_1i" transform="matrix(12,0,0,12,101.6,450.4)" />
<use xlink:href="#f3_13" transform="matrix(12,0,0,12,119.5,450.4)" />
<use xlink:href="#f3_1c" transform="matrix(12,0,0,12,132.8,450.4)" />
<use xlink:href="#f3_11" transform="matrix(12,0,0,12,144.8,450.4)" />
<use xlink:href="#f3_1j" transform="matrix(12,0,0,12,158.1,450.4)" />
<use xlink:href="#f3_1j" transform="matrix(12,0,0,12,168.4,450.4)" />
<use xlink:href="#f3_u" transform="matrix(12,0,0,12,178.6,450.4)" />
<use xlink:href="#f3_1k" transform="matrix(12,0,0,12,189.6,450.4)" />
<use xlink:href="#f3_15" transform="matrix(12,0,0,12,201.7,450.4)" />
<use xlink:href="#f3_1k" transform="matrix(12,0,0,12,213.8,450.4)" />
<use xlink:href="#f3_1i" transform="matrix(12,0,0,12,225.9,450.4)" />
<use xlink:href="#f3_11" transform="matrix(12,0,0,12,239.1,450.4)" />
<use xlink:href="#f3_1g" transform="matrix(12,0,0,12,252.3,450.4)" />
<use xlink:href="#f3_1f" transform="matrix(12,0,0,12,263.3,450.4)" />
<use xlink:href="#f3_14" transform="matrix(12,0,0,12,277.5,450.4)" />
<use xlink:href="#f3_11" transform="matrix(12,0,0,12,291.1,450.4)" />
<use xlink:href="#f3_h" transform="matrix(12,0,0,12,309.2,450.4)" />
</g>
<path fill-rule="evenodd" d="M55,454H315.4v-1.8H55V454Z" class="g1_69" />
<path fill-rule="evenodd" d="M52.8,475.7H856.9V454.8H52.8v20.9Z" class="g0_69" />
<g fill="#000000" >
<use xlink:href="#f3_o" transform="matrix(12,0,0,12,55,471.6)" />
<use xlink:href="#f3_i" transform="matrix(12,0,0,12,64.2,471.6)" />
<use xlink:href="#f3_m" transform="matrix(12,0,0,12,69,471.6)" />
<use xlink:href="#f3_i" transform="matrix(12,0,0,12,78.1,471.6)" />
<use xlink:href="#f3_l" transform="matrix(12,0,0,12,82.9,471.6)" />
<use xlink:href="#f3_l" transform="matrix(12,0,0,12,92,471.6)" />
<use xlink:href="#f3_i" transform="matrix(12,0,0,12,100.8,471.6)" />
<use xlink:href="#f3_o" transform="matrix(12,0,0,12,105.6,471.6)" />
<use xlink:href="#f3_13" transform="matrix(12,0,0,12,119.6,471.6)" />
<use xlink:href="#f3_28" transform="matrix(12,0,0,12,132.8,471.6)" />
<use xlink:href="#f3_1x" transform="matrix(12,0,0,12,137.5,471.6)" />
<use xlink:href="#f3_2f" transform="matrix(12,0,0,12,146.7,471.6)" />
<use xlink:href="#f3_2f" transform="matrix(12,0,0,12,153.7,471.6)" />
<use xlink:href="#f3_h" transform="matrix(12,0,0,12,160.7,471.6)" />
<use xlink:href="#f3_l" transform="matrix(12,0,0,12,166.9,471.6)" />
<use xlink:href="#f3_u" transform="matrix(12,0,0,12,176.1,471.6)" />
<use xlink:href="#f3_11" transform="matrix(12,0,0,12,187,471.6)" />
<use xlink:href="#f3_29" transform="matrix(12,0,0,12,200.3,471.6)" />
<use xlink:href="#f3_2c" transform="matrix(12,0,0,12,215.3,471.6)" />
<use xlink:href="#f3_24" transform="matrix(12,0,0,12,225.5,471.6)" />
<use xlink:href="#f3_25" transform="matrix(12,0,0,12,235.8,471.6)" />
<use xlink:href="#f3_1y" transform="matrix(12,0,0,12,240.9,471.6)" />
<use xlink:href="#f3_25" transform="matrix(12,0,0,12,251.2,471.6)" />
<use xlink:href="#f3_1x" transform="matrix(12,0,0,12,256.2,471.6)" />
</g>
<path fill-rule="evenodd" d="M52.8,497H856.9V475.7H52.8V497Z" class="g0_69" />
<path fill-rule="evenodd" d="M52.8,702.3H856.9V497H52.8V702.3Z" class="g0_69" />
<image preserveAspectRatio="none" x="55" y="497" width="257" height="205" xlink:href="img/2.png" />
<path fill-rule="evenodd" d="M52.8,723.2H856.9V702.4H52.8v20.8Z" class="g0_69" />
<g fill="#000000" >
<use xlink:href="#f0_19" transform="matrix(12,0,0,12,55,719.2)" />
<use xlink:href="#f0_2g" transform="matrix(12,0,0,12,61.3,719.2)" />
<use xlink:href="#f0_25" transform="matrix(12,0,0,12,73.3,719.2)" />
<use xlink:href="#f0_2f" transform="matrix(12,0,0,12,77.7,719.2)" />
<use xlink:href="#f0_1x" transform="matrix(12,0,0,12,91.6,719.2)" />
<use xlink:href="#f0_1z" transform="matrix(12,0,0,12,106.7,719.2)" />
<use xlink:href="#f0_28" transform="matrix(12,0,0,12,114.7,719.2)" />
<use xlink:href="#f0_1x" transform="matrix(12,0,0,12,119.1,719.2)" />
<use xlink:href="#f0_2f" transform="matrix(12,0,0,12,127.5,719.2)" />
<use xlink:href="#f0_2f" transform="matrix(12,0,0,12,134.5,719.2)" />
<use xlink:href="#f0_2b" transform="matrix(12,0,0,12,148.6,719.2)" />
<use xlink:href="#f0_22" transform="matrix(12,0,0,12,158.1,719.2)" />
<use xlink:href="#f0_2g" transform="matrix(12,0,0,12,170.5,719.2)" />
<use xlink:href="#f0_21" transform="matrix(12,0,0,12,176,719.2)" />
<use xlink:href="#f0_2e" transform="matrix(12,0,0,12,184.1,719.2)" />
<use xlink:href="#f0_2e" transform="matrix(12,0,0,12,190,719.2)" />
<use xlink:href="#f0_21" transform="matrix(12,0,0,12,196.2,719.2)" />
<use xlink:href="#f0_2f" transform="matrix(12,0,0,12,204.2,719.2)" />
<use xlink:href="#f0_2g" transform="matrix(12,0,0,12,211.2,719.2)" />
<use xlink:href="#f0_2e" transform="matrix(12,0,0,12,216.7,719.2)" />
<use xlink:href="#f0_25" transform="matrix(12,0,0,12,222.9,719.2)" />
<use xlink:href="#f0_1x" transform="matrix(12,0,0,12,227.3,719.2)" />
<use xlink:href="#f0_28" transform="matrix(12,0,0,12,235.7,719.2)" />
<use xlink:href="#f0_2g" transform="matrix(12,0,0,12,247.1,719.2)" />
<use xlink:href="#f0_21" transform="matrix(12,0,0,12,252.5,719.2)" />
<use xlink:href="#f0_2g" transform="matrix(12,0,0,12,260.2,719.2)" />
<use xlink:href="#f0_2e" transform="matrix(12,0,0,12,265.7,719.2)" />
<use xlink:href="#f0_1x" transform="matrix(12,0,0,12,271.9,719.2)" />
<use xlink:href="#f0_2c" transform="matrix(12,0,0,12,280,719.2)" />
<use xlink:href="#f0_2b" transform="matrix(12,0,0,12,288.8,719.2)" />
<use xlink:href="#f0_20" transform="matrix(12,0,0,12,298.3,719.2)" />
<use xlink:href="#f0_2f" transform="matrix(12,0,0,12,307.5,719.2)" />
<use xlink:href="#f0_2j" transform="matrix(12,0,0,12,321.4,719.2)" />
<use xlink:href="#f0_24" transform="matrix(12,0,0,12,334.6,719.2)" />
<use xlink:href="#f0_25" transform="matrix(12,0,0,12,343.8,719.2)" />
<use xlink:href="#f0_1z" transform="matrix(12,0,0,12,348.2,719.2)" />
<use xlink:href="#f0_24" transform="matrix(12,0,0,12,356.6,719.2)" />
<use xlink:href="#f0_28" transform="matrix(12,0,0,12,372.7,719.2)" />
<use xlink:href="#f0_21" transform="matrix(12,0,0,12,377.1,719.2)" />
<use xlink:href="#f0_1x" transform="matrix(12,0,0,12,385.2,719.2)" />
<use xlink:href="#f0_20" transform="matrix(12,0,0,12,393.2,719.2)" />
<use xlink:href="#f0_1x" transform="matrix(12,0,0,12,409.3,719.2)" />
<use xlink:href="#f0_20" transform="matrix(12,0,0,12,424,719.2)" />
<use xlink:href="#f0_2h" transform="matrix(12,0,0,12,433.2,719.2)" />
<use xlink:href="#f0_1x" transform="matrix(12,0,0,12,442.3,719.2)" />
<use xlink:href="#f0_28" transform="matrix(12,0,0,12,450.7,719.2)" />
<use xlink:href="#f0_28" transform="matrix(12,0,0,12,462.5,719.2)" />
<use xlink:href="#f0_25" transform="matrix(12,0,0,12,467.2,719.2)" />
<use xlink:href="#f0_22" transform="matrix(12,0,0,12,472.3,719.2)" />
<use xlink:href="#f0_21" transform="matrix(12,0,0,12,478.2,719.2)" />
<use xlink:href="#f0_25" transform="matrix(12,0,0,12,493.6,719.2)" />
<use xlink:href="#f0_2a" transform="matrix(12,0,0,12,498.4,719.2)" />
<use xlink:href="#f0_2j" transform="matrix(12,0,0,12,514.1,719.2)" />
<use xlink:href="#f0_1x" transform="matrix(12,0,0,12,527.4,719.2)" />
<use xlink:href="#f0_2g" transform="matrix(12,0,0,12,535.4,719.2)" />
<use xlink:href="#f0_21" transform="matrix(12,0,0,12,540.9,719.2)" />
<use xlink:href="#f0_2e" transform="matrix(12,0,0,12,548.9,719.2)" />
<use xlink:href="#f0_1x" transform="matrix(12,0,0,12,561.8,719.2)" />
<use xlink:href="#f0_2f" transform="matrix(12,0,0,12,569.8,719.2)" />
<use xlink:href="#f0_2j" transform="matrix(12,0,0,12,583.9,719.2)" />
<use xlink:href="#f0_21" transform="matrix(12,0,0,12,597.2,719.2)" />
<use xlink:href="#f0_28" transform="matrix(12,0,0,12,605.2,719.2)" />
<use xlink:href="#f0_28" transform="matrix(12,0,0,12,610,719.2)" />
<use xlink:href="#f0_1x" transform="matrix(12,0,0,12,621.7,719.2)" />
<use xlink:href="#f0_2f" transform="matrix(12,0,0,12,629.8,719.2)" />
<use xlink:href="#f0_2b" transform="matrix(12,0,0,12,643.7,719.2)" />
<use xlink:href="#f0_2a" transform="matrix(12,0,0,12,653.2,719.2)" />
<use xlink:href="#f0_29" transform="matrix(12,0,0,12,668.9,719.2)" />
<use xlink:href="#f0_2b" transform="matrix(12,0,0,12,682.5,719.2)" />
<use xlink:href="#f0_25" transform="matrix(12,0,0,12,692.4,719.2)" />
<use xlink:href="#f0_2f" transform="matrix(12,0,0,12,696.8,719.2)" />
<use xlink:href="#f0_2g" transform="matrix(12,0,0,12,703.8,719.2)" />
<use xlink:href="#f0_28" transform="matrix(12,0,0,12,716.2,719.2)" />
<use xlink:href="#f0_1x" transform="matrix(12,0,0,12,720.6,719.2)" />
<use xlink:href="#f0_2a" transform="matrix(12,0,0,12,729,719.2)" />
<use xlink:href="#f0_20" transform="matrix(12,0,0,12,737.8,719.2)" />
<use xlink:href="#f0_1x" transform="matrix(12,0,0,12,753.9,719.2)" />
<use xlink:href="#f0_2f" transform="matrix(12,0,0,12,762,719.2)" />
<use xlink:href="#f0_2g" transform="matrix(12,0,0,12,775.9,719.2)" />
<use xlink:href="#f0_24" transform="matrix(12,0,0,12,781.4,719.2)" />
<use xlink:href="#f0_21" transform="matrix(12,0,0,12,790.2,719.2)" />
<use xlink:href="#f0_2f" transform="matrix(12,0,0,12,805.5,719.2)" />
<use xlink:href="#f0_27" transform="matrix(12,0,0,12,812.5,719.2)" />
<use xlink:href="#f0_25" transform="matrix(12,0,0,12,821.6,719.2)" />
<use xlink:href="#f0_2a" transform="matrix(12,0,0,12,826.4,719.2)" />
<use xlink:href="#f0_25" transform="matrix(12,0,0,12,842.5,719.2)" />
<use xlink:href="#f0_2f" transform="matrix(12,0,0,12,847.3,719.2)" />
</g>
<path fill-rule="evenodd" d="M52.8,744.5H856.9V723.2H52.8v21.3Z" class="g0_69" />
<g fill="#000000" >
<use xlink:href="#f0_20" transform="matrix(12,0,0,12,55,740.1)" />
<use xlink:href="#f0_21" transform="matrix(12,0,0,12,64.2,740.1)" />
<use xlink:href="#f0_2i" transform="matrix(12,0,0,12,72.3,740.1)" />
<use xlink:href="#f0_2b" transform="matrix(12,0,0,12,81.1,740.1)" />
<use xlink:href="#f0_25" transform="matrix(12,0,0,12,91,740.1)" />
<use xlink:href="#f0_20" transform="matrix(12,0,0,12,95.4,740.1)" />
<use xlink:href="#f0_2b" transform="matrix(12,0,0,12,109.3,740.1)" />
<use xlink:href="#f0_22" transform="matrix(12,0,0,12,118.8,740.1)" />
<use xlink:href="#f0_2c" transform="matrix(12,0,0,12,129,740.1)" />
<use xlink:href="#f0_2e" transform="matrix(12,0,0,12,138.2,740.1)" />
<use xlink:href="#f0_2b" transform="matrix(12,0,0,12,144.4,740.1)" />
<use xlink:href="#f0_2g" transform="matrix(12,0,0,12,153.6,740.1)" />
<use xlink:href="#f0_21" transform="matrix(12,0,0,12,159.1,740.1)" />
<use xlink:href="#f0_1z" transform="matrix(12,0,0,12,167.1,740.1)" />
<use xlink:href="#f0_2g" transform="matrix(12,0,0,12,174.8,740.1)" />
<use xlink:href="#f0_25" transform="matrix(12,0,0,12,180.3,740.1)" />
<use xlink:href="#f0_2i" transform="matrix(12,0,0,12,185.1,740.1)" />
<use xlink:href="#f0_21" transform="matrix(12,0,0,12,194.2,740.1)" />
<use xlink:href="#f0_2f" transform="matrix(12,0,0,12,207.1,740.1)" />
<use xlink:href="#f0_1z" transform="matrix(12,0,0,12,214,740.1)" />
<use xlink:href="#f0_1x" transform="matrix(12,0,0,12,222.1,740.1)" />
<use xlink:href="#f0_28" transform="matrix(12,0,0,12,230.5,740.1)" />
<use xlink:href="#f0_21" transform="matrix(12,0,0,12,235.3,740.1)" />
<use xlink:href="#f0_2f" transform="matrix(12,0,0,12,243.3,740.1)" />
<use xlink:href="#f0_1x" transform="matrix(12,0,0,12,255.1,740.1)" />
<use xlink:href="#f0_2a" transform="matrix(12,0,0,12,263.5,740.1)" />
<use xlink:href="#f0_20" transform="matrix(12,0,0,12,272.3,740.1)" />
<use xlink:href="#f0_2g" transform="matrix(12,0,0,12,286.2,740.1)" />
<use xlink:href="#f0_24" transform="matrix(12,0,0,12,291.7,740.1)" />
<use xlink:href="#f0_21" transform="matrix(12,0,0,12,300.5,740.1)" />
<use xlink:href="#f0_28" transform="matrix(12,0,0,12,313.6,740.1)" />
<use xlink:href="#f0_1x" transform="matrix(12,0,0,12,318,740.1)" />
<use xlink:href="#f0_2e" transform="matrix(12,0,0,12,326.1,740.1)" />
<use xlink:href="#f0_2i" transform="matrix(12,0,0,12,332.7,740.1)" />
<use xlink:href="#f0_1x" transform="matrix(12,0,0,12,341.5,740.1)" />
<use xlink:href="#f0_28" transform="matrix(12,0,0,12,349.9,740.1)" />
<use xlink:href="#f0_2f" transform="matrix(12,0,0,12,359.4,740.1)" />
<use xlink:href="#f0_2g" transform="matrix(12,0,0,12,366.4,740.1)" />
<use xlink:href="#f0_1x" transform="matrix(12,0,0,12,371.9,740.1)" />
<use xlink:href="#f0_23" transform="matrix(12,0,0,12,379.9,740.1)" />
<use xlink:href="#f0_21" transform="matrix(12,0,0,12,389.1,740.1)" />
<use xlink:href="#f0_25" transform="matrix(12,0,0,12,402.3,740.1)" />
<use xlink:href="#f0_2f" transform="matrix(12,0,0,12,406.7,740.1)" />
<use xlink:href="#f0_1x" transform="matrix(12,0,0,12,418.4,740.1)" />
<use xlink:href="#f0_2d" transform="matrix(12,0,0,12,426.8,740.1)" />
<use xlink:href="#f0_2h" transform="matrix(12,0,0,12,436,740.1)" />
<use xlink:href="#f0_1x" transform="matrix(12,0,0,12,445.2,740.1)" />
<use xlink:href="#f0_2g" transform="matrix(12,0,0,12,453.2,740.1)" />
<use xlink:href="#f0_25" transform="matrix(12,0,0,12,458.7,740.1)" />
<use xlink:href="#f0_1z" transform="matrix(12,0,0,12,463.1,740.1)" />
<use xlink:href="#f0_i" transform="matrix(12,0,0,12,471.2,740.1)" />
</g>
<path fill-rule="evenodd" d="M52.8,765.4H856.9V744.5H52.8v20.9Z" class="g0_69" />
<g fill="#000000" >
<use xlink:href="#f0_1k" transform="matrix(12,0,0,12,55,761.4)" />
<use xlink:href="#f0_24" transform="matrix(12,0,0,12,66.4,761.4)" />
<use xlink:href="#f0_21" transform="matrix(12,0,0,12,75.2,761.4)" />
<use xlink:href="#f0_1x" transform="matrix(12,0,0,12,88,761.4)" />
<use xlink:href="#f0_2a" transform="matrix(12,0,0,12,96.5,761.4)" />
<use xlink:href="#f0_25" transform="matrix(12,0,0,12,105.6,761.4)" />
<use xlink:href="#f0_29" transform="matrix(12,0,0,12,110.7,761.4)" />
<use xlink:href="#f0_1x" transform="matrix(12,0,0,12,124.7,761.4)" />
<use xlink:href="#f0_28" transform="matrix(12,0,0,12,133.1,761.4)" />
<use xlink:href="#f0_2c" transform="matrix(12,0,0,12,142.2,761.4)" />
<use xlink:href="#f0_2b" transform="matrix(12,0,0,12,151.4,761.4)" />
<use xlink:href="#f0_2f" transform="matrix(12,0,0,12,160.9,761.4)" />
<use xlink:href="#f0_2f" transform="matrix(12,0,0,12,167.9,761.4)" />
<use xlink:href="#f0_21" transform="matrix(12,0,0,12,175.2,761.4)" />
<use xlink:href="#f0_2f" transform="matrix(12,0,0,12,183.3,761.4)" />
<use xlink:href="#f0_2f" transform="matrix(12,0,0,12,190.2,761.4)" />
<use xlink:href="#f0_21" transform="matrix(12,0,0,12,197.6,761.4)" />
<use xlink:href="#f0_2f" transform="matrix(12,0,0,12,205.6,761.4)" />
<use xlink:href="#f0_2g" transform="matrix(12,0,0,12,217.5,761.4)" />
<use xlink:href="#f0_2j" transform="matrix(12,0,0,12,223,761.4)" />
<use xlink:href="#f0_2b" transform="matrix(12,0,0,12,236.2,761.4)" />
<use xlink:href="#f0_2c" transform="matrix(12,0,0,12,250.5,761.4)" />
<use xlink:href="#f0_1x" transform="matrix(12,0,0,12,259.6,761.4)" />
<use xlink:href="#f0_25" transform="matrix(12,0,0,12,267.7,761.4)" />
<use xlink:href="#f0_2e" transform="matrix(12,0,0,12,272.1,761.4)" />
<use xlink:href="#f0_2f" transform="matrix(12,0,0,12,278.3,761.4)" />
<use xlink:href="#f0_2b" transform="matrix(12,0,0,12,290,761.4)" />
<use xlink:href="#f0_22" transform="matrix(12,0,0,12,299.5,761.4)" />
<use xlink:href="#f0_26" transform="matrix(12,0,0,12,310.1,761.4)" />
<use xlink:href="#f0_2b" transform="matrix(12,0,0,12,314.5,761.4)" />
<use xlink:href="#f0_25" transform="matrix(12,0,0,12,324.4,761.4)" />
<use xlink:href="#f0_2a" transform="matrix(12,0,0,12,329.2,761.4)" />
<use xlink:href="#f0_2g" transform="matrix(12,0,0,12,338,761.4)" />
<use xlink:href="#f0_21" transform="matrix(12,0,0,12,343.5,761.4)" />
<use xlink:href="#f0_20" transform="matrix(12,0,0,12,351.5,761.4)" />
<use xlink:href="#f0_2c" transform="matrix(12,0,0,12,365.5,761.4)" />
<use xlink:href="#f0_21" transform="matrix(12,0,0,12,374.6,761.4)" />
<use xlink:href="#f0_2a" transform="matrix(12,0,0,12,383,761.4)" />
<use xlink:href="#f0_2g" transform="matrix(12,0,0,12,391.8,761.4)" />
<use xlink:href="#f0_1x" transform="matrix(12,0,0,12,397.3,761.4)" />
<use xlink:href="#f0_20" transform="matrix(12,0,0,12,405.4,761.4)" />
<use xlink:href="#f0_1x" transform="matrix(12,0,0,12,414.6,761.4)" />
<use xlink:href="#f0_1z" transform="matrix(12,0,0,12,422.6,761.4)" />
<use xlink:href="#f0_2g" transform="matrix(12,0,0,12,430.7,761.4)" />
<use xlink:href="#f0_2l" transform="matrix(12,0,0,12,436.2,761.4)" />
<use xlink:href="#f0_28" transform="matrix(12,0,0,12,445,761.4)" />
<use xlink:href="#f0_28" transform="matrix(12,0,0,12,454.9,761.4)" />
<use xlink:href="#f0_25" transform="matrix(12,0,0,12,459.9,761.4)" />
<use xlink:href="#f0_29" transform="matrix(12,0,0,12,464.8,761.4)" />
<use xlink:href="#f0_1y" transform="matrix(12,0,0,12,478.7,761.4)" />
<use xlink:href="#f0_i" transform="matrix(12,0,0,12,487.9,761.4)" />
<use xlink:href="#f0_1k" transform="matrix(12,0,0,12,497.8,761.4)" />
<use xlink:href="#f0_24" transform="matrix(12,0,0,12,509.1,761.4)" />
<use xlink:href="#f0_21" transform="matrix(12,0,0,12,518.3,761.4)" />
<use xlink:href="#f0_25" transform="matrix(12,0,0,12,526.7,761.4)" />
<use xlink:href="#f0_2e" transform="matrix(12,0,0,12,531.1,761.4)" />
<use xlink:href="#f0_20" transform="matrix(12,0,0,12,542,761.4)" />
<use xlink:href="#f0_25" transform="matrix(12,0,0,12,551.6,761.4)" />
<use xlink:href="#f0_23" transform="matrix(12,0,0,12,556.3,761.4)" />
<use xlink:href="#f0_25" transform="matrix(12,0,0,12,565.8,761.4)" />
<use xlink:href="#f0_2g" transform="matrix(12,0,0,12,570.2,761.4)" />
<use xlink:href="#f0_2f" transform="matrix(12,0,0,12,575.7,761.4)" />
<use xlink:href="#f0_20" transform="matrix(12,0,0,12,587.4,761.4)" />
<use xlink:href="#f0_2b" transform="matrix(12,0,0,12,596.6,761.4)" />
<use xlink:href="#f0_2a" transform="matrix(12,0,0,12,610.9,761.4)" />
<use xlink:href="#f0_2b" transform="matrix(12,0,0,12,619.7,761.4)" />
<use xlink:href="#f0_2g" transform="matrix(12,0,0,12,629.2,761.4)" />
<use xlink:href="#f0_2c" transform="matrix(12,0,0,12,639.1,761.4)" />
<use xlink:href="#f0_2b" transform="matrix(12,0,0,12,647.9,761.4)" />
<use xlink:href="#f0_2f" transform="matrix(12,0,0,12,657.4,761.4)" />
<use xlink:href="#f0_2f" transform="matrix(12,0,0,12,664.3,761.4)" />
<use xlink:href="#f0_21" transform="matrix(12,0,0,12,671.3,761.4)" />
<use xlink:href="#f0_2f" transform="matrix(12,0,0,12,679.4,761.4)" />
<use xlink:href="#f0_2f" transform="matrix(12,0,0,12,686.3,761.4)" />
<use xlink:href="#f0_1z" transform="matrix(12,0,0,12,698.1,761.4)" />
<use xlink:href="#f0_28" transform="matrix(12,0,0,12,706.5,761.4)" />
<use xlink:href="#f0_1x" transform="matrix(12,0,0,12,711.2,761.4)" />
<use xlink:href="#f0_2j" transform="matrix(12,0,0,12,719.7,761.4)" />
<use xlink:href="#f0_2f" transform="matrix(12,0,0,12,732.9,761.4)" />
<use xlink:href="#f0_g" transform="matrix(12,0,0,12,739.8,761.4)" />
<use xlink:href="#f0_2a" transform="matrix(12,0,0,12,749.3,761.4)" />
<use xlink:href="#f0_1x" transform="matrix(12,0,0,12,758.5,761.4)" />
<use xlink:href="#f0_25" transform="matrix(12,0,0,12,766.9,761.4)" />
<use xlink:href="#f0_28" transform="matrix(12,0,0,12,771.7,761.4)" />
<use xlink:href="#f0_2f" transform="matrix(12,0,0,12,776.4,761.4)" />
<use xlink:href="#f0_g" transform="matrix(12,0,0,12,783.4,761.4)" />
<use xlink:href="#f0_2b" transform="matrix(12,0,0,12,793.3,761.4)" />
<use xlink:href="#f0_2e" transform="matrix(12,0,0,12,802.8,761.4)" />
<use xlink:href="#f0_24" transform="matrix(12,0,0,12,813.4,761.4)" />
<use xlink:href="#f0_2b" transform="matrix(12,0,0,12,822.2,761.4)" />
<use xlink:href="#f0_2b" transform="matrix(12,0,0,12,831.4,761.4)" />
<use xlink:href="#f0_22" transform="matrix(12,0,0,12,840.9,761.4)" />
<use xlink:href="#f0_2f" transform="matrix(12,0,0,12,846.7,761.4)" />
<use xlink:href="#f0_i" transform="matrix(12,0,0,12,853.7,761.4)" />
</g>
<path fill-rule="evenodd" d="M52.8,786.7H856.9V765.4H52.8v21.3Z" class="g0_69" />
<g fill="#000000" >
<use xlink:href="#f0_12" transform="matrix(12,0,0,12,55,782.3)" />
<use xlink:href="#f0_2b" transform="matrix(12,0,0,12,67.1,782.3)" />
<use xlink:href="#f0_20" transform="matrix(12,0,0,12,76.7,782.3)" />
<use xlink:href="#f0_2l" transform="matrix(12,0,0,12,85.8,782.3)" />
<use xlink:href="#f0_20" transform="matrix(12,0,0,12,99,782.3)" />
<use xlink:href="#f0_25" transform="matrix(12,0,0,12,108.5,782.3)" />
<use xlink:href="#f0_2i" transform="matrix(12,0,0,12,113.3,782.3)" />
<use xlink:href="#f0_25" transform="matrix(12,0,0,12,122.8,782.3)" />
<use xlink:href="#f0_2f" transform="matrix(12,0,0,12,127.6,782.3)" />
<use xlink:href="#f0_25" transform="matrix(12,0,0,12,134.9,782.3)" />
<use xlink:href="#f0_1y" transform="matrix(12,0,0,12,139.6,782.3)" />
<use xlink:href="#f0_28" transform="matrix(12,0,0,12,149.2,782.3)" />
<use xlink:href="#f0_21" transform="matrix(12,0,0,12,153.9,782.3)" />
<use xlink:href="#f0_25" transform="matrix(12,0,0,12,167.1,782.3)" />
<use xlink:href="#f0_2a" transform="matrix(12,0,0,12,171.9,782.3)" />
<use xlink:href="#f0_2g" transform="matrix(12,0,0,12,180.7,782.3)" />
<use xlink:href="#f0_2b" transform="matrix(12,0,0,12,186.2,782.3)" />
<use xlink:href="#f0_24" transform="matrix(12,0,0,12,200.4,782.3)" />
<use xlink:href="#f0_21" transform="matrix(12,0,0,12,209.2,782.3)" />
<use xlink:href="#f0_1x" transform="matrix(12,0,0,12,217.3,782.3)" />
<use xlink:href="#f0_20" transform="matrix(12,0,0,12,225.4,782.3)" />
<use xlink:href="#f0_1x" transform="matrix(12,0,0,12,239.3,782.3)" />
<use xlink:href="#f0_2a" transform="matrix(12,0,0,12,247.3,782.3)" />
<use xlink:href="#f0_20" transform="matrix(12,0,0,12,256.1,782.3)" />
<use xlink:href="#f0_2g" transform="matrix(12,0,0,12,270.1,782.3)" />
<use xlink:href="#f0_2e" transform="matrix(12,0,0,12,275.5,782.3)" />
<use xlink:href="#f0_2h" transform="matrix(12,0,0,12,281.7,782.3)" />
<use xlink:href="#f0_2a" transform="matrix(12,0,0,12,290.9,782.3)" />
<use xlink:href="#f0_27" transform="matrix(12,0,0,12,299.7,782.3)" />
<use xlink:href="#f0_i" transform="matrix(12,0,0,12,308.9,782.3)" />
</g>
<path fill-rule="evenodd" d="M52.8,807.6H856.9V786.7H52.8v20.9Z" class="g0_69" />
<g fill="#000000" >
<use xlink:href="#f0_1j" transform="matrix(12,0,0,12,55,803.6)" />
<use xlink:href="#f0_27" transform="matrix(12,0,0,12,65.3,803.6)" />
<use xlink:href="#f0_25" transform="matrix(12,0,0,12,74.8,803.6)" />
<use xlink:href="#f0_2a" transform="matrix(12,0,0,12,79.6,803.6)" />
<use xlink:href="#f0_29" transform="matrix(12,0,0,12,93.5,803.6)" />
<use xlink:href="#f0_2b" transform="matrix(12,0,0,12,107,803.6)" />
<use xlink:href="#f0_25" transform="matrix(12,0,0,12,116.9,803.6)" />
<use xlink:href="#f0_2f" transform="matrix(12,0,0,12,121.3,803.6)" />
<use xlink:href="#f0_2g" transform="matrix(12,0,0,12,128.3,803.6)" />
<use xlink:href="#f0_g" transform="matrix(12,0,0,12,133.8,803.6)" />
<use xlink:href="#f0_2j" transform="matrix(12,0,0,12,143.4,803.6)" />
<use xlink:href="#f0_25" transform="matrix(12,0,0,12,156.6,803.6)" />
<use xlink:href="#f0_2g" transform="matrix(12,0,0,12,161,803.6)" />
<use xlink:href="#f0_24" transform="matrix(12,0,0,12,166.5,803.6)" />
<use xlink:href="#f0_2b" transform="matrix(12,0,0,12,175.3,803.6)" />
<use xlink:href="#f0_2h" transform="matrix(12,0,0,12,184.8,803.6)" />
<use xlink:href="#f0_2g" transform="matrix(12,0,0,12,194,803.6)" />
<use xlink:href="#f0_2f" transform="matrix(12,0,0,12,204.2,803.6)" />
<use xlink:href="#f0_1z" transform="matrix(12,0,0,12,211.2,803.6)" />
<use xlink:href="#f0_1x" transform="matrix(12,0,0,12,219.2,803.6)" />
<use xlink:href="#f0_28" transform="matrix(12,0,0,12,227.3,803.6)" />
<use xlink:href="#f0_21" transform="matrix(12,0,0,12,231.7,803.6)" />
<use xlink:href="#f0_2f" transform="matrix(12,0,0,12,240.1,803.6)" />
<use xlink:href="#f0_i" transform="matrix(12,0,0,12,247.1,803.6)" />
</g>
<path fill-rule="evenodd" d="M52.8,828.9H856.9V807.6H52.8v21.3Z" class="g0_69" />
<g fill="#000000" >
<use xlink:href="#f0_1k" transform="matrix(12,0,0,12,55,824.5)" />
<use xlink:href="#f0_2l" transform="matrix(12,0,0,12,66.8,824.5)" />
<use xlink:href="#f0_29" transform="matrix(12,0,0,12,75.6,824.5)" />
<use xlink:href="#f0_2c" transform="matrix(12,0,0,12,89.1,824.5)" />
<use xlink:href="#f0_1x" transform="matrix(12,0,0,12,98.6,824.5)" />
<use xlink:href="#f0_2a" transform="matrix(12,0,0,12,107,824.5)" />
<use xlink:href="#f0_2h" transform="matrix(12,0,0,12,115.8,824.5)" />
<use xlink:href="#f0_29" transform="matrix(12,0,0,12,125.4,824.5)" />
<use xlink:href="#f0_2e" transform="matrix(12,0,0,12,143.7,824.5)" />
<use xlink:href="#f0_21" transform="matrix(12,0,0,12,149.9,824.5)" />
<use xlink:href="#f0_2c" transform="matrix(12,0,0,12,158.1,824.5)" />
<use xlink:href="#f0_2e" transform="matrix(12,0,0,12,167.3,824.5)" />
<use xlink:href="#f0_21" transform="matrix(12,0,0,12,173.5,824.5)" />
<use xlink:href="#f0_2f" transform="matrix(12,0,0,12,181.6,824.5)" />
<use xlink:href="#f0_21" transform="matrix(12,0,0,12,188.5,824.5)" />
<use xlink:href="#f0_2a" transform="matrix(12,0,0,12,196.9,824.5)" />
<use xlink:href="#f0_2g" transform="matrix(12,0,0,12,205.7,824.5)" />
<use xlink:href="#f0_2f" transform="matrix(12,0,0,12,211.2,824.5)" />
<use xlink:href="#f0_21" transform="matrix(12,0,0,12,222.9,824.5)" />
<use xlink:href="#f0_1x" transform="matrix(12,0,0,12,231,824.5)" />
<use xlink:href="#f0_2e" transform="matrix(12,0,0,12,239.1,824.5)" />
<use xlink:href="#f0_i" transform="matrix(12,0,0,12,245.3,824.5)" />
</g>
<path fill-rule="evenodd" d="M52.8,849.8H856.9V828.9H52.8v20.9Z" class="g0_69" />
<path fill-rule="evenodd" d="M52.8,1074.3H856.9V849.8H52.8v224.5Z" class="g0_69" />
<image preserveAspectRatio="none" x="55" y="850" width="342" height="224" xlink:href="img/3.png" />
<path fill-rule="evenodd" d="M52.8,1095.5H856.9v-21.2H52.8v21.2Z" class="g0_69" />
<path fill-rule="evenodd" d="M52.8,1116.4H856.9v-20.9H52.8v20.9Z" class="g0_69" />
<g fill="#000000" >
<use xlink:href="#f3_13" transform="matrix(12,0,0,12,55,1112.4)" />
<use xlink:href="#f3_28" transform="matrix(12,0,0,12,68.3,1112.4)" />
<use xlink:href="#f3_2b" transform="matrix(12,0,0,12,73,1112.4)" />
<use xlink:href="#f3_1x" transform="matrix(12,0,0,12,82.2,1112.4)" />
<use xlink:href="#f3_1z" transform="matrix(12,0,0,12,91.3,1112.4)" />
<use xlink:href="#f3_1x" transform="matrix(12,0,0,12,99.4,1112.4)" />
<use xlink:href="#f0_25" transform="matrix(12,0,0,12,113.7,1112.4)" />
<use xlink:href="#f0_2f" transform="matrix(12,0,0,12,118.5,1112.4)" />
<use xlink:href="#f0_2g" transform="matrix(12,0,0,12,130.2,1112.4)" />
<use xlink:href="#f0_24" transform="matrix(12,0,0,12,135.7,1112.4)" />
<use xlink:href="#f0_21" transform="matrix(12,0,0,12,144.5,1112.4)" />
<use xlink:href="#f0_1z" transform="matrix(12,0,0,12,157.3,1112.4)" />
<use xlink:href="#f0_2b" transform="matrix(12,0,0,12,165.3,1112.4)" />
<use xlink:href="#f0_29" transform="matrix(12,0,0,12,174.9,1112.4)" />
<use xlink:href="#f0_29" transform="matrix(12,0,0,12,188.8,1112.4)" />
<use xlink:href="#f0_2b" transform="matrix(12,0,0,12,202.4,1112.4)" />
<use xlink:href="#f0_2a" transform="matrix(12,0,0,12,212.2,1112.4)" />
<use xlink:href="#f0_1z" transform="matrix(12,0,0,12,225.8,1112.4)" />
<use xlink:href="#f0_24" transform="matrix(12,0,0,12,234.2,1112.4)" />
<use xlink:href="#f0_1x" transform="matrix(12,0,0,12,243,1112.4)" />
<use xlink:href="#f0_29" transform="matrix(12,0,0,12,251.4,1112.4)" />
<use xlink:href="#f0_1y" transform="matrix(12,0,0,12,265.4,1112.4)" />
<use xlink:href="#f0_21" transform="matrix(12,0,0,12,274.5,1112.4)" />
<use xlink:href="#f0_2e" transform="matrix(12,0,0,12,282.6,1112.4)" />
<use xlink:href="#f0_2j" transform="matrix(12,0,0,12,293.6,1112.4)" />
<use xlink:href="#f0_24" transform="matrix(12,0,0,12,306.8,1112.4)" />
<use xlink:href="#f0_21" transform="matrix(12,0,0,12,315.6,1112.4)" />
<use xlink:href="#f0_2e" transform="matrix(12,0,0,12,323.6,1112.4)" />
<use xlink:href="#f0_21" transform="matrix(12,0,0,12,329.8,1112.4)" />
<use xlink:href="#f0_1x" transform="matrix(12,0,0,12,342.6,1112.4)" />
<use xlink:href="#f0_28" transform="matrix(12,0,0,12,351.1,1112.4)" />
<use xlink:href="#f0_25" transform="matrix(12,0,0,12,356.2,1112.4)" />
<use xlink:href="#f0_29" transform="matrix(12,0,0,12,361.3,1112.4)" />
<use xlink:href="#f0_21" transform="matrix(12,0,0,12,375.2,1112.4)" />
<use xlink:href="#f0_2a" transform="matrix(12,0,0,12,383.7,1112.4)" />
<use xlink:href="#f0_2g" transform="matrix(12,0,0,12,392.5,1112.4)" />
<use xlink:href="#f0_1x" transform="matrix(12,0,0,12,397.9,1112.4)" />
<use xlink:href="#f0_2e" transform="matrix(12,0,0,12,406,1112.4)" />
<use xlink:href="#f0_2l" transform="matrix(12,0,0,12,412.6,1112.4)" />
<use xlink:href="#f0_g" transform="matrix(12,0,0,12,421,1112.4)" />
<use xlink:href="#f0_2h" transform="matrix(12,0,0,12,430.5,1112.4)" />
<use xlink:href="#f0_2e" transform="matrix(12,0,0,12,439.7,1112.4)" />
<use xlink:href="#f0_25" transform="matrix(12,0,0,12,445.9,1112.4)" />
<use xlink:href="#f0_2a" transform="matrix(12,0,0,12,450.7,1112.4)" />
<use xlink:href="#f0_1x" transform="matrix(12,0,0,12,459.5,1112.4)" />
<use xlink:href="#f0_2e" transform="matrix(12,0,0,12,467.5,1112.4)" />
<use xlink:href="#f0_2l" transform="matrix(12,0,0,12,474.1,1112.4)" />
<use xlink:href="#f0_1x" transform="matrix(12,0,0,12,487.7,1112.4)" />
<use xlink:href="#f0_2a" transform="matrix(12,0,0,12,496.1,1112.4)" />
<use xlink:href="#f0_20" transform="matrix(12,0,0,12,504.9,1112.4)" />
<use xlink:href="#f0_2e" transform="matrix(12,0,0,12,518.8,1112.4)" />
<use xlink:href="#f0_21" transform="matrix(12,0,0,12,525,1112.4)" />
<use xlink:href="#f0_2c" transform="matrix(12,0,0,12,533.1,1112.4)" />
<use xlink:href="#f0_2e" transform="matrix(12,0,0,12,542.2,1112.4)" />
<use xlink:href="#f0_2b" transform="matrix(12,0,0,12,548.5,1112.4)" />
<use xlink:href="#f0_20" transform="matrix(12,0,0,12,558,1112.4)" />
<use xlink:href="#f0_2h" transform="matrix(12,0,0,12,567.1,1112.4)" />
<use xlink:href="#f0_1z" transform="matrix(12,0,0,12,576.3,1112.4)" />
<use xlink:href="#f0_2g" transform="matrix(12,0,0,12,584,1112.4)" />
<use xlink:href="#f0_25" transform="matrix(12,0,0,12,589.5,1112.4)" />
<use xlink:href="#f0_2i" transform="matrix(12,0,0,12,593.9,1112.4)" />
<use xlink:href="#f0_21" transform="matrix(12,0,0,12,603.1,1112.4)" />
<use xlink:href="#f0_2g" transform="matrix(12,0,0,12,615.9,1112.4)" />
<use xlink:href="#f0_2e" transform="matrix(12,0,0,12,621.4,1112.4)" />
<use xlink:href="#f0_1x" transform="matrix(12,0,0,12,627.6,1112.4)" />
<use xlink:href="#f0_1z" transform="matrix(12,0,0,12,635.6,1112.4)" />
<use xlink:href="#f0_2g" transform="matrix(12,0,0,12,643.3,1112.4)" />
<use xlink:href="#f0_2f" transform="matrix(12,0,0,12,648.8,1112.4)" />
<use xlink:href="#f0_2b" transform="matrix(12,0,0,12,660.2,1112.4)" />
<use xlink:href="#f0_2c" transform="matrix(12,0,0,12,669.7,1112.4)" />
<use xlink:href="#f0_21" transform="matrix(12,0,0,12,678.9,1112.4)" />
<use xlink:href="#f0_2a" transform="matrix(12,0,0,12,686.9,1112.4)" />
<use xlink:href="#f0_i" transform="matrix(12,0,0,12,695.7,1112.4)" />
</g>
<path fill-rule="evenodd" d="M52.8,1137.7H856.9v-21.3H52.8v21.3Z" class="g0_69" />
<g fill="#000000" >
<use xlink:href="#f4_m" transform="matrix(8,0,0,8,785.7,1264.1)" />
<use xlink:href="#f4_t" transform="matrix(8,0,0,8,792.5,1264.1)" />
</g>
<defs>
<path d="M617,0L251,860V60L385,40V0H44V40L172,60V941L44,960v40H347L672,239l355,761h287V960L1185,941V60L1314,40V0H908V40l134,20V859L643,0Z" 
id="f0_1d"
transform="scale(0.001,-0.001)" />

<path d="M377,45c0,0,99,0,147,73c0,0,47,73,47,237c0,0,0,161,-47,233c0,0,-47,72,-147,72c0,0,-97,0,-141,-69c0,0,-44,-69,-44,-236c0,0,0,-169,45,-240c0,0,44,-70,140,-70Zm0,-59c0,0,-158,0,-238,94c0,0,-81,95,-81,274c0,0,0,178,81,272c0,0,80,94,244,94c0,0,160,0,241,-92c0,0,82,-92,82,-274c0,0,0,-368,-329,-368Z" 
id="f0_2b"
transform="scale(0.001,-0.001)" />

<path d="M278,-14c0,0,-52,0,-115,11c0,0,-63,10,-99,23V193H98L134,95c0,0,56,-50,146,-50c0,0,144,0,144,123c0,0,0,91,-114,130l-66,21c0,0,-75,25,-110,50c0,0,-34,26,-53,63c0,0,-18,36,-18,89c0,0,0,92,63,145c0,0,63,54,170,54c0,0,77,0,193,-23V544H454l-32,81c0,0,-39,35,-124,35c0,0,-61,0,-92,-30c0,0,-32,-30,-32,-80c0,0,0,-43,29,-72c0,0,28,-29,86,-48c0,0,110,-38,144,-55c0,0,33,-17,57,-42c0,0,23,-25,36,-57c0,0,13,-32,13,-79c0,0,0,-104,-66,-158c0,0,-66,-53,-195,-53Z" 
id="f0_2f"
transform="scale(0.001,-0.001)" />

<path d="M249,-14c0,0,-71,0,-107,42c0,0,-35,42,-35,119V639H15v33l93,29l76,159h47V701H391V639H231V161c0,0,0,-48,22,-73c0,0,22,-24,57,-24c0,0,44,0,106,12V26C416,26,389,8,340,-2c0,0,-49,-12,-91,-12Z" 
id="f0_2g"
transform="scale(0.001,-0.001)" />

<path d="M31,0V33L150,52v956L31,1026v34H274V52L394,33V0Z" 
id="f0_28"
transform="scale(0.001,-0.001)" />

<path d="M148,-329c0,0,-58,0,-114,13v151H69l24,-71c0,0,23,-17,64,-17c0,0,39,0,72,22c0,0,33,23,60,67c0,0,27,44,68,157L90,649L19,668v33H344V668L233,648L423,158L606,649L497,668v33H758V668L685,652L411,-43c0,0,-48,-124,-84,-177c0,0,-36,-54,-79,-82c0,0,-44,-27,-100,-27Z" 
id="f0_2l"
transform="scale(0.001,-0.001)" />

<path d="M360,-14L72,649L0,668v33H327V668L216,648L420,164L615,649L504,668v33H764V668L697,652L416,-14Z" 
id="f0_2i"
transform="scale(0.001,-0.001)" />

<path d="M32,0V33L151,52V649L52,668v33H275V52L395,33V0ZM201,850c0,0,-32,0,-56,24c0,0,-24,24,-24,56c0,0,0,34,24,58c0,0,24,24,56,24c0,0,34,0,58,-24c0,0,24,-24,24,-58c0,0,0,-32,-24,-56c0,0,-24,-24,-58,-24Z" 
id="f0_25"
transform="scale(0.001,-0.001)" />

<path d="M382,45c0,0,188,0,188,314c0,0,0,143,-47,213c0,0,-46,69,-141,69c0,0,-87,0,-146,-24V58c0,0,67,-13,146,-13ZM25,-325v35l88,18V649L34,668v33H231l1,-41c0,0,31,27,84,43c0,0,53,17,107,17c0,0,134,0,208,-94c0,0,73,-93,73,-267c0,0,0,-178,-80,-276c0,0,-80,-97,-232,-97c0,0,-84,0,-160,16c0,0,4,-53,4,-84V-272l123,-18v-35Z" 
id="f0_2c"
transform="scale(0.001,-0.001)" />

<path d="M284,67c0,0,51,0,88,12c0,0,37,12,74,30V358l-98,-3c0,0,-100,-4,-135,-39c0,0,-35,-35,-35,-117c0,0,0,-132,106,-132ZM233,-14c0,0,-179,0,-179,208c0,0,0,70,27,116c0,0,27,46,87,70c0,0,60,24,173,27l105,3V519c0,0,0,72,-26,107c0,0,-27,34,-82,34c0,0,-75,0,-137,-35L176,538H134V691c0,0,121,26,213,26c0,0,115,0,169,-47c0,0,54,-47,54,-144V52L657,33V0H465L451,70c0,0,-85,-84,-218,-84Z" 
id="f0_1x"
transform="scale(0.001,-0.001)" />

<path d="M31,0V33l88,19V649L31,668v33H235l7,-87c0,0,44,37,121,71c0,0,76,35,121,35h11V530H463l-43,82c0,0,-37,0,-88,-10c0,0,-52,-10,-89,-26V52L363,33V0Z" 
id="f0_2e"
transform="scale(0.001,-0.001)" />

<path d="M289,-14c0,0,-179,0,-179,205V649L20,668v33H233V200c0,0,0,-128,120,-128c0,0,92,0,173,23V649L420,668v33H649V52L738,33V0H533l-6,57C527,57,474,28,405,7c0,0,-69,-21,-116,-21Z" 
id="f0_2h"
transform="scale(0.001,-0.001)" />

<path d="M529,65c0,0,183,0,270,108c0,0,87,108,87,334c0,0,0,210,-113,318c0,0,-113,108,-322,108H316V71c0,0,90,-6,213,-6Zm0,-67L172,0H44V40L172,60V941L44,960v40H498c0,0,277,0,411,-123c0,0,133,-124,133,-371c0,0,0,-251,-129,-380C913,126,785,-2,529,-2Z" 
id="f0_14"
transform="scale(0.001,-0.001)" />

<path d="M495,413c0,0,0,133,-34,190c0,0,-34,57,-105,57c0,0,-78,0,-119,-63c0,0,-42,-62,-42,-184ZM374,-14c0,0,-163,0,-239,87c0,0,-75,88,-75,283c0,0,0,183,77,273c0,0,76,91,219,91c0,0,269,0,269,-306V353H194V340c0,0,0,-103,23,-160c0,0,22,-57,70,-87c0,0,47,-29,124,-29c0,0,40,0,96,6c0,0,55,7,91,15V43C598,43,562,20,500,3c0,0,-61,-17,-126,-17Z" 
id="f0_21"
transform="scale(0.001,-0.001)" />

<path d="M431,0V33L535,52V499c0,0,0,62,-32,96c0,0,-32,33,-95,33c0,0,-66,0,-163,-22V52L350,33V0H32V33l89,19V649L32,668v33H237l6,-57c0,0,56,32,119,54c0,0,62,22,110,22c0,0,52,0,95,-20c0,0,44,-19,66,-62c0,0,57,32,134,57c0,0,77,25,128,25c0,0,179,0,179,-207V52l90,-19V0H846V33L950,52V499c0,0,0,129,-119,129c0,0,-19,0,-45,-3c0,0,-26,-3,-52,-7c0,0,-25,-4,-49,-8c0,0,-23,-5,-39,-8c0,0,13,-41,13,-89V52L764,33V0Z" 
id="f0_29"
transform="scale(0.001,-0.001)" />

<path d="M439,0V33l93,19V500c0,0,0,62,-30,97c0,0,-31,36,-94,36c0,0,-67,0,-165,-22V52L338,33V0H35V33l84,19V649L35,668v33H235l7,-57c0,0,57,33,122,54c0,0,65,22,108,22c0,0,91,0,137,-53c0,0,47,-53,47,-154V52L741,33V0Z" 
id="f0_2a"
transform="scale(0.001,-0.001)" />

<path d="M383,64c0,0,85,0,152,28V645c0,0,-67,13,-152,13c0,0,-194,0,-194,-314c0,0,0,-141,48,-211c0,0,48,-69,146,-69ZM342,-14c0,0,-287,0,-287,358c0,0,0,184,82,280c0,0,81,96,239,96c0,0,81,0,163,-18c0,0,-4,25,-4,124v182l-118,18v34H659V52L745,33V0H548l-9,52c0,0,-84,-66,-197,-66Z" 
id="f0_20"
transform="scale(0.001,-0.001)" />

<path d="M399,-14c0,0,-341,0,-341,370c0,0,0,175,87,269c0,0,87,95,249,95c0,0,101,0,220,-23V501H573L541,625c0,0,-62,35,-149,35c0,0,-200,0,-200,-304c0,0,0,-158,61,-225c0,0,61,-67,189,-67c0,0,109,0,189,24V43C631,43,595,16,530,1c0,0,-64,-15,-131,-15Z" 
id="f0_1z"
transform="scale(0.001,-0.001)" />

<path d="M191,-20c0,0,-39,0,-65,25c0,0,-25,27,-25,64c0,0,0,38,26,64c0,0,26,26,64,26c0,0,38,0,64,-26c0,0,26,-26,26,-64c0,0,0,-37,-25,-64c0,0,-26,-25,-65,-25Z" 
id="f0_i"
transform="scale(0.001,-0.001)" />

<path d="M44,0V40L172,60V941L44,960v40H794V760H745L721,922c0,0,-83,11,-241,11H316V543H586l23,119h48V354H609L586,475H316V67H513c0,0,193,0,252,12l43,185h49L843,0Z" 
id="f0_15"
transform="scale(0.001,-0.001)" />

<path d="M13,0V34L95,46L325,350L122,649L40,668v33H357V668L264,648L399,446L554,649l-96,19v33H710V668L630,652L433,397L663,50L745,34V0H427V34l94,17L359,299L169,50L266,34V0Z" 
id="f0_2k"
transform="scale(0.001,-0.001)" />

<path d="M211,-20c0,0,-39,0,-64,25c0,0,-26,27,-26,64c0,0,0,38,26,64c0,0,26,26,64,26c0,0,37,0,64,-25c0,0,26,-26,26,-65c0,0,0,-37,-26,-64c0,0,-26,-25,-64,-25Zm0,556c0,0,-38,0,-64,26c0,0,-26,26,-26,64c0,0,0,37,26,64c0,0,25,27,64,27c0,0,38,0,64,-27c0,0,26,-27,26,-64c0,0,0,-38,-26,-64c0,0,-27,-26,-64,-26Z" 
id="f0_u"
transform="scale(0.001,-0.001)" />

<path d="M-12,338v55H777V338Z" 
id="f1_4y"
transform="scale(0.001,-0.001)" />

<path d="M-17,0l8,40L120,60L276,941L151,960l7,40H909L866,761H817l4,161c0,0,-81,11,-239,11H419L349,543H619l45,119h48L657,354H609l-1,121H338L266,67H463c0,0,190,0,254,12l75,185h49L780,0Z" 
id="f2_15"
transform="scale(0.001,-0.001)" />

<path d="M-6,0c0,0,-12,10,-12,32c0,0,0,21,23,51c0,0,23,31,79,82L287,354L159,649L79,668l6,33H270L378,434l93,88c0,0,47,46,67,72c0,0,19,26,19,44c0,0,0,8,-6,13c0,0,-7,6,-38,17l6,33H651c0,0,16,-12,16,-32c0,0,0,-44,-103,-142L404,377L548,49L634,33L628,0H437L313,298L185,176c0,0,-41,-40,-60,-65c0,0,-19,-26,-19,-48c0,0,0,-21,31,-29L131,0Z" 
id="f2_2k"
transform="scale(0.001,-0.001)" />

<path d="M325,47c0,0,68,0,130,54c0,0,61,55,97,149c0,0,36,94,36,202c0,0,0,103,-39,156c0,0,-39,53,-113,53c0,0,-67,0,-128,-54c0,0,-61,-55,-96,-149c0,0,-35,-94,-35,-204c0,0,0,-101,39,-154c0,0,39,-53,109,-53Zm-6,-61c0,0,-124,0,-199,79c0,0,-74,79,-74,214c0,0,0,120,51,222c0,0,51,102,143,160c0,0,91,59,205,59c0,0,124,0,199,-80c0,0,74,-79,74,-214c0,0,0,-120,-51,-222C667,204,615,102,524,43c0,0,-91,-57,-205,-57Z" 
id="f2_2b"
transform="scale(0.001,-0.001)" />

<path d="M298,-14c0,0,-120,0,-185,69c0,0,-66,69,-66,191c0,0,0,130,52,237c0,0,52,107,149,172c0,0,97,65,203,65c0,0,53,0,112,-12c0,0,60,-11,99,-27L628,485H587L575,615c0,0,-47,47,-125,47c0,0,-72,0,-134,-53c0,0,-62,-53,-100,-147c0,0,-37,-95,-37,-208c0,0,0,-190,154,-190c0,0,106,0,222,74l22,-32c0,0,-60,-56,-135,-88c0,0,-76,-32,-144,-32Z" 
id="f2_1z"
transform="scale(0.001,-0.001)" />

<path d="M188,355c0,0,148,11,236,69c0,0,89,58,89,143c0,0,0,41,-23,68c0,0,-22,27,-66,27c0,0,-52,0,-101,-43c0,0,-49,-42,-85,-114c0,0,-36,-71,-50,-150ZM298,-14c0,0,-120,0,-186,67c0,0,-65,67,-65,193c0,0,0,125,53,232c0,0,52,108,145,175c0,0,94,67,196,67c0,0,92,0,147,-42c0,0,56,-43,56,-111c0,0,0,-102,-126,-173c0,0,-125,-72,-336,-86l-3,-54c0,0,0,-95,40,-143c0,0,40,-47,118,-47c0,0,67,0,124,22c0,0,57,23,106,52l22,-32c0,0,-69,-58,-146,-89c0,0,-76,-31,-145,-31Z" 
id="f2_21"
transform="scale(0.001,-0.001)" />

<path d="M200,-14c0,0,-59,0,-93,35c0,0,-34,36,-34,100c0,0,0,22,4,51c0,0,4,30,82,467H67l6,33l99,29L275,860h47L295,701H455L443,639H283L210,230c0,0,-13,-69,-13,-99c0,0,0,-34,17,-51c0,0,17,-16,43,-16c0,0,54,0,113,21L386,50c0,0,-92,-64,-186,-64Z" 
id="f2_2g"
transform="scale(0.001,-0.001)" />

<path d="M228,-17c0,0,-76,0,-114,40c0,0,-38,41,-38,117c0,0,0,11,4,39c0,0,4,29,80,470L78,667l6,34H293L217,268c0,0,-17,-94,-17,-124c0,0,0,-34,18,-55c0,0,18,-21,57,-21c0,0,55,0,120,47c0,0,65,47,107,115l83,471H709L595,52L683,33L677,0H469l20,144C489,144,427,64,360,23c0,0,-67,-40,-132,-40Z" 
id="f2_2h"
transform="scale(0.001,-0.001)" />

<path d="M228,-14c0,0,-103,0,-209,46L49,200H83L95,99c0,0,20,-21,55,-38c0,0,36,-16,81,-16c0,0,163,0,163,133c0,0,0,44,-35,78c0,0,-34,34,-113,72c0,0,-75,37,-112,81c0,0,-36,45,-36,104c0,0,0,99,66,153c0,0,67,54,184,54c0,0,85,0,200,-26L521,538H486l-11,80c0,0,-47,42,-124,42c0,0,-61,0,-97,-28c0,0,-37,-28,-37,-87c0,0,0,-40,31,-71c0,0,32,-30,119,-75c0,0,78,-40,113,-86c0,0,36,-47,36,-107c0,0,0,-113,-71,-167c0,0,-72,-53,-217,-53Z" 
id="f2_2f"
transform="scale(0.001,-0.001)" />

<path d="M460,-325c0,0,-148,79,-231,172c0,0,-84,93,-123,217c0,0,-39,126,-39,304c0,0,0,178,39,303c0,0,39,125,122,217c0,0,82,93,232,172V997c0,0,-91,-52,-145,-134c0,0,-54,-81,-79,-190c0,0,-25,-109,-25,-305c0,0,0,-194,26,-309c0,0,26,-114,82,-193c0,0,56,-79,141,-128v-63Z" 
id="f0_c"
transform="scale(0.001,-0.001)" />

<path d="M54,0V40L172,60V941L44,960v40H794V760H745L721,922c0,0,-83,11,-241,11H316V516H611l23,120h46V328H634L611,449H316V60L483,40V0Z" 
id="f0_16"
transform="scale(0.001,-0.001)" />

<path d="M359,-270c0,0,124,0,192,46c0,0,67,47,67,129c0,0,0,43,-26,67c0,0,-26,24,-79,24H242c0,0,-32,-27,-51,-69c0,0,-20,-41,-20,-77c0,0,0,-64,46,-92c0,0,46,-28,142,-28Zm11,561c0,0,81,0,115,47c0,0,34,47,34,141c0,0,0,100,-35,142c0,0,-35,42,-113,42c0,0,-78,0,-114,-43c0,0,-37,-42,-37,-141c0,0,0,-98,36,-143c0,0,36,-45,114,-45ZM359,-329c0,0,-143,0,-218,44c0,0,-75,43,-75,125c0,0,0,39,27,78c0,0,26,38,98,89c0,0,-43,14,-72,48c0,0,-29,35,-29,74L208,262c0,0,-118,55,-118,217c0,0,0,115,73,178c0,0,73,63,211,63c0,0,28,0,71,-6c0,0,44,-6,67,-13l165,83l26,-32L599,644c0,0,50,-56,50,-165c0,0,0,-120,-72,-182c0,0,-73,-62,-208,-62c0,0,-62,0,-114,11L208,148c0,0,2,-13,29,-24c0,0,27,-12,67,-12H512c0,0,113,0,168,-49c0,0,55,-49,55,-134c0,0,0,-79,-44,-137c0,0,-43,-58,-128,-90c0,0,-84,-31,-204,-31Z" 
id="f0_23"
transform="scale(0.001,-0.001)" />

<path d="M64,0V34L168,59V639H47v36l121,29v49c0,0,0,155,61,239c0,0,62,84,173,84c0,0,58,0,107,-15V908H472l-33,92c0,0,-26,16,-62,16c0,0,-47,0,-66,-42c0,0,-19,-42,-19,-157V701H478V639H292V59L443,34V0Z" 
id="f0_22"
transform="scale(0.001,-0.001)" />

<path d="M442,0V33l93,19V504c0,0,0,129,-124,129c0,0,-70,0,-168,-22V52L338,33V0H31V33l88,19v956L15,1026v34H243V756c0,0,0,-77,-5,-112c0,0,54,31,122,53c0,0,68,23,115,23c0,0,91,0,137,-53c0,0,47,-53,47,-154V52L744,33V0Z" 
id="f0_24"
transform="scale(0.001,-0.001)" />

<path d="M49,-325v63c0,0,85,49,140,128c0,0,56,79,83,194c0,0,26,115,26,308c0,0,0,196,-25,305c0,0,-25,109,-79,190c0,0,-54,82,-145,134v63c0,0,149,-80,232,-172c0,0,83,-92,122,-217c0,0,39,-125,39,-303c0,0,0,-177,-39,-303c0,0,-39,-125,-122,-217c0,0,-83,-93,-232,-173Z" 
id="f0_d"
transform="scale(0.001,-0.001)" />

<path d="M58,-234v58c0,0,131,42,131,125c0,0,0,15,-11,27c0,0,-11,12,-38,25C140,1,89,27,89,75c0,0,0,40,25,61c0,0,26,21,65,21c0,0,48,0,77,-34c0,0,30,-34,30,-86c0,0,0,-101,-60,-170c0,0,-59,-69,-168,-101Z" 
id="f0_g"
transform="scale(0.001,-0.001)" />

<path d="M-15,0l6,40L121,60L275,941L151,960l6,40H558l-6,-40L419,941L350,549H821l68,392L765,960l6,40h401l-6,-40L1033,941L879,60L1003,40L996,0H596l6,40L735,60l74,421H338L264,60L388,40L382,0Z" 
id="f2_18"
transform="scale(0.001,-0.001)" />

<path d="M85,0L199,649l-96,19l6,33H332L218,52L335,33L329,0ZM297,849c0,0,-33,0,-57,24c0,0,-24,24,-24,57c0,0,0,33,24,57c0,0,24,24,57,24c0,0,33,0,57,-24c0,0,24,-24,24,-57c0,0,0,-33,-24,-57c0,0,-24,-24,-57,-24Z" 
id="f2_25"
transform="scale(0.001,-0.001)" />

<path d="M317,45c0,0,74,0,134,54c0,0,60,55,97,153c0,0,36,98,36,200c0,0,0,82,-33,129c0,0,-33,46,-89,46c0,0,-40,0,-93,-29c0,0,-54,-29,-96,-75L192,81c0,0,46,-36,125,-36ZM-88,-325l5,35l90,17L170,649L93,668l6,33H297L283,588c0,0,130,132,235,132c0,0,90,0,145,-67c0,0,55,-66,55,-182c0,0,0,-132,-56,-244C662,227,606,114,510,49c0,0,-97,-63,-209,-63c0,0,-35,0,-72,5c0,0,-37,5,-55,11l-8,-67L130,-273l119,-17l-6,-35Z" 
id="f2_2c"
transform="scale(0.001,-0.001)" />

<path d="M301,78c0,0,85,0,185,104l81,442c0,0,-29,20,-55,28c0,0,-25,8,-62,8c0,0,-75,0,-137,-56c0,0,-62,-56,-98,-152c0,0,-36,-95,-36,-199c0,0,0,-79,33,-127c0,0,33,-48,89,-48ZM245,-14c0,0,-90,0,-145,66c0,0,-54,66,-54,182c0,0,0,131,57,244c0,0,57,114,152,178c0,0,96,64,208,64c0,0,90,0,170,-33l33,26h40L589,52L673,33L667,0H454l22,117C476,117,350,-14,245,-14Z" 
id="f2_1x"
transform="scale(0.001,-0.001)" />

<path d="M55,0L169,649L81,668l6,33H295L274,557c0,0,52,73,117,118c0,0,65,45,122,45c0,0,66,0,102,-42c0,0,36,-41,36,-121c0,0,51,72,115,117c0,0,64,46,123,46c0,0,63,0,99,-40c0,0,36,-40,36,-116c0,0,0,-16,-3,-42c0,0,-3,-27,-80,-470l98,-19L1032,0H808l77,434c0,0,17,90,17,124c0,0,0,34,-16,54c0,0,-15,21,-49,21c0,0,-33,0,-78,-32c0,0,-46,-31,-83,-80c0,0,-37,-49,-44,-91L558,0H434l76,434c0,0,19,98,19,124c0,0,0,34,-17,54c0,0,-16,21,-51,21c0,0,-33,0,-81,-34c0,0,-47,-33,-84,-80c0,0,-36,-48,-43,-89L179,0Z" 
id="f2_29"
transform="scale(0.001,-0.001)" />

<path d="M410,-14c0,0,-80,0,-162,14c0,0,-81,14,-144,38V270h48L178,134c0,0,28,-35,95,-62c0,0,68,-27,134,-27c0,0,104,0,163,53c0,0,58,54,58,148c0,0,0,54,-23,89c0,0,-22,35,-59,59c0,0,-37,24,-84,41c0,0,-47,17,-97,34c0,0,-49,17,-96,38c0,0,-47,21,-84,53c0,0,-37,32,-60,79c0,0,-23,48,-23,117c0,0,0,119,90,187c0,0,89,68,248,68c0,0,121,0,263,-32V771H654L628,893c0,0,-76,55,-188,55c0,0,-100,0,-156,-40c0,0,-56,-41,-56,-112c0,0,0,-49,22,-81c0,0,23,-32,60,-55c0,0,37,-22,84,-39c0,0,48,-16,97,-34c0,0,50,-17,97,-39c0,0,48,-22,85,-56c0,0,36,-34,59,-83c0,0,23,-49,23,-120c0,0,0,-145,-89,-224c0,0,-89,-79,-256,-79Z" 
id="f0_1j"
transform="scale(0.001,-0.001)" />

<path d="M327,-14L84,649L1,668v33H335V668L219,648L385,174L554,632h63L786,171L944,649L830,668v33h267V668l-78,-16L784,-14H726L553,448L382,-14Z" 
id="f0_2j"
transform="scale(0.001,-0.001)" />

<path d="M-17,0l8,40L120,60L276,941L151,960l7,40H585l-8,-40L420,941L265,65H424c0,0,142,0,222,14l83,208h48L713,0Z" 
id="f2_1c"
transform="scale(0.001,-0.001)" />

<path d="M305,45c0,0,76,0,141,56c0,0,64,56,101,151c0,0,37,95,37,200c0,0,0,83,-35,129c0,0,-34,46,-92,46c0,0,-44,0,-96,-29c0,0,-51,-29,-97,-75L185,81c0,0,43,-36,120,-36ZM295,-14c0,0,-65,0,-128,16C167,2,104,19,57,48l171,960l-100,18l6,34H358L303,731c0,0,-13,-85,-29,-144c0,0,59,61,122,97c0,0,64,36,116,36c0,0,94,0,150,-67c0,0,56,-67,56,-182c0,0,0,-129,-56,-242C662,229,606,115,509,50c0,0,-98,-64,-214,-64Z" 
id="f2_1y"
transform="scale(0.001,-0.001)" />

<path d="M448,506c0,0,134,0,190,49c0,0,57,50,57,168c0,0,0,114,-56,162c0,0,-56,48,-195,48H316V506ZM777,0L496,438H316V60L468,40V0H54V40L172,60V941L44,960v40H476c0,0,188,0,277,-63c0,0,90,-64,90,-204c0,0,0,-100,-54,-173c0,0,-55,-73,-151,-101L909,60L1017,40V0Z" 
id="f0_1i"
transform="scale(0.001,-0.001)" />

<path d="M521,-14c0,0,-205,0,-320,107C201,93,85,200,85,390c0,0,0,185,77,326c0,0,77,142,220,219c0,0,142,76,324,76c0,0,158,0,327,-38L1000,755H951V884c0,0,-46,32,-112,50c0,0,-65,17,-137,17c0,0,-135,0,-242,-72c0,0,-107,-72,-166,-203c0,0,-60,-132,-60,-301c0,0,0,-160,78,-244c0,0,78,-84,222,-84c0,0,85,0,166,25c0,0,82,26,133,65l53,149h49L889,52C889,52,803,20,705,3c0,0,-99,-17,-184,-17Z" 
id="f2_13"
transform="scale(0.001,-0.001)" />

<path d="M81,0L258,1008l-96,18l6,34H391L214,52L331,33L325,0Z" 
id="f2_28"
transform="scale(0.001,-0.001)" />

<path d="M843,0L451,506L316,398V60L460,40V0H44V40L172,60V941L44,960v40H445V960L316,941V470L795,941l-99,19v40h313V960L894,941L552,607L979,60L1088,40V0Z" 
id="f0_1b"
transform="scale(0.001,-0.001)" />

<path d="M62,0L176,649L88,668l6,33H301L278,543c0,0,55,84,124,130c0,0,69,47,138,47c0,0,37,0,59,-6L566,530H534l-28,95c0,0,-60,0,-124,-46c0,0,-63,-45,-116,-120L186,0Z" 
id="f2_2e"
transform="scale(0.001,-0.001)" />

<path d="M681,416L504,902L333,416ZM669,0V40L803,60L704,348H310L210,60L344,40V0H15V40L128,60l341,949H611L965,60L1092,40V0Z" 
id="f0_11"
transform="scale(0.001,-0.001)" />

<path d="M383,64c0,0,44,0,87,7c0,0,43,7,65,17V645c0,0,-67,13,-152,13c0,0,-194,0,-194,-309c0,0,0,-143,48,-214c0,0,47,-71,146,-71Zm56,-389v35l96,18V-77c0,0,0,73,7,124c0,0,-79,-61,-200,-61c0,0,-287,0,-287,362c0,0,0,180,81,276c0,0,81,96,237,96c0,0,84,0,166,-18l67,33h53V-272l77,-18v-35Z" 
id="f0_2d"
transform="scale(0.001,-0.001)" />

<path d="M536,63c0,0,127,0,191,54c0,0,63,54,63,168c0,0,0,105,-70,154c0,0,-70,49,-225,49H316V67c0,0,103,-4,220,-4ZM480,555c0,0,121,0,178,48c0,0,57,48,57,155c0,0,0,91,-58,133c0,0,-57,42,-186,42H316V555ZM554,-4L235,0H44V40L172,60V941L44,960v40H501c0,0,191,0,279,-56c0,0,88,-56,88,-179c0,0,0,-88,-55,-149c0,0,-54,-62,-151,-83c0,0,135,-14,209,-79c0,0,73,-65,73,-166c0,0,0,-144,-99,-219C845,69,745,-4,554,-4Z" 
id="f0_12"
transform="scale(0.001,-0.001)" />

<path d="M457,460c0,0,289,0,289,266c0,0,0,106,-54,157c0,0,-54,50,-163,50H419L335,460ZM-7,0L0,40L120,60L276,941L151,960l7,40H559c0,0,161,0,248,-67c0,0,87,-66,87,-198c0,0,0,-167,-109,-255c0,0,-109,-88,-312,-88H323L264,60L427,40L420,0Z" 
id="f2_1g"
transform="scale(0.001,-0.001)" />

<path d="M55,0L232,1008l-88,18l6,34H365L286,615L274,558c0,0,59,79,128,120c0,0,68,42,134,42c0,0,75,0,113,-41c0,0,38,-41,38,-117c0,0,0,-10,-3,-32c0,0,-3,-21,-81,-478L700,34L695,0H470l76,434c0,0,17,94,17,123c0,0,0,34,-18,55c0,0,-18,21,-56,21c0,0,-56,0,-121,-47c0,0,-65,-47,-107,-114L178,0Z" 
id="f2_24"
transform="scale(0.001,-0.001)" />

<path d="M-15,-329c0,0,-61,0,-112,13l28,152h34l12,-72c0,0,18,-17,60,-17c0,0,100,0,212,202L253,9L116,649L33,668l6,33H230L338,155L513,458c0,0,48,83,48,144c0,0,0,27,-16,44c0,0,-15,16,-33,22l6,33H659c0,0,20,-17,20,-47c0,0,0,-59,-62,-164L322,-7c0,0,-86,-145,-135,-205c0,0,-50,-61,-98,-89c0,0,-49,-28,-104,-28Z" 
id="f2_2l"
transform="scale(0.001,-0.001)" />

<path d="M410,-14c0,0,-86,0,-175,14C235,0,145,14,81,38V307h66L181,146c0,0,31,-37,94,-62c0,0,64,-24,132,-24c0,0,214,0,214,177c0,0,0,55,-41,93c0,0,-41,38,-128,68c0,0,-128,42,-185,68c0,0,-56,27,-95,63c0,0,-38,36,-62,87c0,0,-23,51,-23,125c0,0,0,132,90,201c0,0,90,69,263,69c0,0,125,0,278,-32V741H651L618,878c0,0,-76,56,-178,56c0,0,-92,0,-141,-34c0,0,-49,-34,-49,-104c0,0,0,-50,41,-86c0,0,41,-35,128,-63c0,0,171,-56,235,-97c0,0,64,-41,97,-103c0,0,34,-61,34,-143c0,0,0,-318,-375,-318Z" 
id="f3_1j"
transform="scale(0.001,-0.001)" />

<path d="M566,-14c0,0,-200,0,-308,93c0,0,-107,94,-107,270V926L38,945v55H515V945L386,926V339c0,0,0,-120,61,-184c0,0,61,-64,178,-64c0,0,112,0,173,63c0,0,61,62,61,184V926L725,945v55h340V945L952,926V343c0,0,0,-173,-100,-265c0,0,-100,-92,-286,-92Z" 
id="f3_1l"
transform="scale(0.001,-0.001)" />

<path d="M452,474c0,0,104,0,151,52c0,0,47,53,47,178c0,0,0,119,-45,167c0,0,-44,47,-156,47H390V474ZM36,0V54L154,74V926L26,945v55H467c0,0,213,0,318,-71c0,0,105,-71,105,-224c0,0,0,-313,-366,-313H390V74L557,54V0Z" 
id="f3_1g"
transform="scale(0.001,-0.001)" />

<path d="M26,0V54L154,74V926L26,945v55H878V746H810L786,908c0,0,-83,10,-241,10H389V551H651l23,111h67V355H674L651,468H389V82H578c0,0,193,0,252,12l43,185h68L927,0Z" 
id="f3_15"
transform="scale(0.001,-0.001)" />

<path d="M498,506c0,0,115,0,164,47c0,0,48,48,48,166c0,0,0,112,-46,156c0,0,-46,43,-169,43H390V506ZM793,0L514,423H390V74L518,54V0H36V54L154,74V926L26,945v55H504c0,0,221,0,330,-68c0,0,109,-68,109,-212c0,0,0,-215,-201,-276L1009,74L1117,54V0Z" 
id="f3_1i"
transform="scale(0.001,-0.001)" />

<path d="M608,-14c0,0,-251,0,-392,133C216,119,75,252,75,488c0,0,0,257,134,390c0,0,135,133,398,133c0,0,174,0,361,-50l4,-240H905L884,866c0,0,-98,67,-229,67c0,0,-173,0,-253,-108c0,0,-80,-108,-80,-334c0,0,0,-209,84,-319c0,0,83,-109,243,-109c0,0,84,0,147,22c0,0,63,22,99,53l24,164h68L982,48C982,48,915,22,808,4C808,4,700,-14,608,-14Z" 
id="f3_13"
transform="scale(0.001,-0.001)" />

<path d="M26,0V54L154,74V926L27,945v55H544V945L389,926V79H593c0,0,159,0,234,15l61,208h67L927,0Z" 
id="f3_1c"
transform="scale(0.001,-0.001)" />

<path d="M639,416L478,858L313,416ZM647,0V54L762,74L667,333H283L191,74L319,54V0H15V54L90,74l355,935H662L1016,74l76,-20V0Z" 
id="f3_11"
transform="scale(0.001,-0.001)" />

<path d="M248,-20c0,0,-52,0,-87,34c0,0,-36,36,-36,88c0,0,0,52,36,88c0,0,35,36,87,36c0,0,52,0,88,-36c0,0,36,-36,36,-88c0,0,0,-51,-36,-87c0,0,-35,-35,-88,-35Zm0,488c0,0,-52,0,-87,36c0,0,-36,36,-36,88c0,0,0,52,35,88c0,0,35,36,88,36c0,0,53,0,89,-36c0,0,35,-37,35,-88c0,0,0,-51,-36,-87c0,0,-35,-37,-88,-37Z" 
id="f3_u"
transform="scale(0.001,-0.001)" />

<path d="M231,0V54L390,74V921H352c0,0,-171,0,-240,-15L92,721H24v279H996V721H927L907,906c0,0,-62,14,-245,14H626V74L785,54V0Z" 
id="f3_1k"
transform="scale(0.001,-0.001)" />

<path d="M595,60c0,0,141,0,206,102c0,0,65,102,65,340c0,0,0,236,-65,335c0,0,-65,100,-206,100c0,0,-142,0,-207,-100c0,0,-66,-99,-66,-335c0,0,0,-239,66,-340c0,0,65,-102,207,-102Zm0,-74c0,0,-253,0,-387,130C208,116,75,246,75,501c0,0,0,510,520,510c0,0,256,0,387,-129c0,0,132,-130,132,-381c0,0,0,-254,-133,-385C981,116,848,-14,595,-14Z" 
id="f3_1f"
transform="scale(0.001,-0.001)" />

<path d="M519,79c0,0,97,0,153,42c0,0,57,42,83,131c0,0,26,89,26,248c0,0,0,216,-79,317c0,0,-79,101,-257,101H389V85c0,0,72,-6,130,-6ZM533,-2L198,0H27V54L155,74V926L27,945v55H502c0,0,269,0,398,-122c0,0,129,-122,129,-372c0,0,0,-258,-123,-383C906,123,783,-2,533,-2Z" 
id="f3_14"
transform="scale(0.001,-0.001)" />

<path d="M56,294V424H453V294Z" 
id="f3_h"
transform="scale(0.001,-0.001)" />

<path d="M435,350V646c0,0,0,84,7,158L145,350ZM435,0V198H21V319l450,686H636V350H736V198H636V0Z" 
id="f3_o"
transform="scale(0.001,-0.001)" />

<path d="M191,-20c0,0,-51,0,-88,34c0,0,-36,36,-36,88c0,0,0,52,36,88c0,0,36,36,88,36c0,0,51,0,88,-36c0,0,36,-36,36,-88c0,0,0,-51,-36,-87c0,0,-36,-35,-88,-35Z" 
id="f3_i"
transform="scale(0.001,-0.001)" />

<path d="M64,0V141c0,0,64,68,119,123c0,0,119,118,174,185c0,0,56,68,81,140c0,0,26,72,26,165c0,0,0,81,-40,131c0,0,-39,50,-105,50c0,0,-46,0,-74,-10c0,0,-27,-10,-50,-29L163,751H98V979c0,0,59,13,116,23c0,0,58,9,125,9c0,0,165,0,252,-68c0,0,88,-68,88,-193c0,0,0,-78,-26,-142c0,0,-26,-64,-83,-124c0,0,-56,-61,-224,-197c0,0,-64,-52,-139,-119H698V0Z" 
id="f3_m"
transform="scale(0.001,-0.001)" />

<path d="M122,0V64L295,82V837L123,780v64l282,165H511V82L685,64V0Z" 
id="f3_l"
transform="scale(0.001,-0.001)" />

<path d="M30,0V49l76,18V992l-72,18v50H322V67L398,49V0Z" 
id="f3_28"
transform="scale(0.001,-0.001)" />

<path d="M345,75c0,0,50,0,110,26V351l-63,-2c0,0,-72,-3,-100,-38c0,0,-28,-35,-28,-113c0,0,0,-63,22,-93c0,0,23,-30,59,-30ZM266,-14c0,0,-217,0,-217,208c0,0,0,79,32,126c0,0,32,48,93,71c0,0,60,22,190,25l91,2V521c0,0,0,126,-104,126c0,0,-62,0,-140,-39L183,521H134V691c0,0,112,17,165,21c0,0,53,5,108,5c0,0,264,0,264,-194V67L741,49V0H483L466,54C466,54,408,14,361,0c0,0,-47,-14,-95,-14Z" 
id="f3_1x"
transform="scale(0.001,-0.001)" />

<path d="M276,-14c0,0,-57,0,-125,13C151,-1,83,10,48,23V214H97l28,-98c0,0,26,-26,69,-44c0,0,42,-17,86,-17c0,0,65,0,97,28c0,0,32,28,32,71c0,0,0,41,-31,65c0,0,-30,25,-133,57c0,0,-108,34,-154,92c0,0,-45,58,-45,143c0,0,0,95,71,152c0,0,71,57,183,57c0,0,77,0,207,-22V518H457l-24,82c0,0,-21,22,-60,35c0,0,-40,14,-75,14c0,0,-53,0,-79,-22c0,0,-26,-22,-26,-59c0,0,0,-40,32,-65c0,0,32,-26,132,-55c0,0,109,-34,155,-89c0,0,45,-55,45,-137c0,0,0,-117,-72,-177c0,0,-72,-59,-209,-59Z" 
id="f3_2f"
transform="scale(0.001,-0.001)" />

<path d="M41,0V49l69,18V634L41,652v49H313l11,-61l50,26c0,0,105,54,188,54c0,0,125,0,167,-91c0,0,153,91,258,91c0,0,189,0,189,-207V67l71,-17V0H898V50l63,17V484c0,0,0,63,-24,98c0,0,-25,35,-74,35c0,0,-55,0,-119,-31c0,0,7,-32,7,-73V67L821,50V0H473V50l63,17V484c0,0,0,63,-25,98c0,0,-24,35,-73,35c0,0,-49,0,-113,-29V67L389,49V0Z" 
id="f3_29"
transform="scale(0.001,-0.001)" />

<path d="M438,65c0,0,131,0,131,293c0,0,0,279,-130,279c0,0,-69,0,-127,-29V80c0,0,60,-15,126,-15ZM20,-325v50l76,18V634L19,652v49H304l1,-36c0,0,80,55,194,55c0,0,146,0,218,-86c0,0,71,-86,71,-271c0,0,0,-183,-83,-280c0,0,-83,-97,-238,-97c0,0,-79,0,-160,19c0,0,5,-48,5,-109V-257l103,-18v-50Z" 
id="f3_2c"
transform="scale(0.001,-0.001)" />

<path d="M41,0V49l69,18V992l-72,18v50H325V756c0,0,0,-49,-4,-116l51,26c0,0,106,54,190,54c0,0,194,0,194,-207V67L827,49V0H478V49l63,18V484c0,0,0,63,-27,98c0,0,-26,35,-75,35c0,0,-57,0,-114,-25V67L389,49V0Z" 
id="f3_24"
transform="scale(0.001,-0.001)" />

<path d="M34,0V49l76,18V634L38,652v49H325V67L402,49V0ZM217,831c0,0,-48,0,-81,33c0,0,-34,33,-34,82c0,0,0,48,34,81c0,0,34,33,81,33c0,0,48,0,81,-33c0,0,33,-33,33,-81c0,0,0,-47,-33,-81c0,0,-32,-34,-81,-34Z" 
id="f3_25"
transform="scale(0.001,-0.001)" />

<path d="M424,64c0,0,74,0,109,71c0,0,36,72,36,236c0,0,0,137,-34,201c0,0,-34,65,-111,65c0,0,-29,0,-62,-7c0,0,-34,-6,-55,-19V76c0,0,47,-12,117,-12Zm21,-78c0,0,-121,0,-354,50V994l-72,18v48H307V802c0,0,0,-69,-8,-141c0,0,30,25,86,42c0,0,57,17,110,17c0,0,153,0,223,-84c0,0,70,-83,70,-266c0,0,0,-180,-90,-283C698,87,608,-14,445,-14Z" 
id="f3_1y"
transform="scale(0.001,-0.001)" />

<path d="M55,0V40L184,60V941L55,960v40H455V960L327,941V60L455,40V0Z" 
id="f0_19"
transform="scale(0.001,-0.001)" />

<path d="M477,0V33l64,19L348,354L257,254V52L331,33V0H44V33l89,19v956L29,1026v34H257V338L544,647l-73,20v34H718V667L631,650L431,446L688,50L764,33V0Z" 
id="f0_27"
transform="scale(0.001,-0.001)" />

<path d="M235,0V40L394,60V936H356c0,0,-189,0,-258,-15L78,766H28v234H908V766H857L837,921c0,0,-22,5,-98,9c0,0,-75,4,-165,4H538V60L697,40V0Z" 
id="f0_1k"
transform="scale(0.001,-0.001)" />

<path d="M64,-325c0,0,-46,0,-107,14v148H-8l19,-81c0,0,25,-21,62,-21c0,0,44,0,67,47c0,0,22,47,22,152V649L57,668v33H286V-28c0,0,0,-146,-57,-221c0,0,-56,-76,-165,-76ZM213,850c0,0,-34,0,-58,24c0,0,-24,24,-24,56c0,0,0,34,24,58c0,0,24,24,58,24c0,0,32,0,56,-24c0,0,24,-24,24,-58c0,0,0,-32,-24,-56c0,0,-24,-24,-56,-24Z" 
id="f0_26"
transform="scale(0.001,-0.001)" />

<path d="M376,50c0,0,103,0,149,80c0,0,46,81,46,240c0,0,0,137,-47,204c0,0,-48,67,-148,67c0,0,-44,0,-87,-7c0,0,-44,-8,-63,-17V62c0,0,63,-12,150,-12Zm3,-64c0,0,-64,0,-141,14c0,0,-78,14,-136,37v971L0,1026v34H226V809c0,0,0,-40,-4,-148c0,0,74,59,188,59c0,0,143,0,219,-87c0,0,77,-87,77,-263c0,0,0,-189,-84,-287c0,0,-84,-97,-243,-97Z" 
id="f0_1y"
transform="scale(0.001,-0.001)" />

<path d="M379,60c0,0,59,0,84,64c0,0,24,65,24,231c0,0,0,164,-24,227c0,0,-24,63,-84,63c0,0,-57,0,-80,-60c0,0,-22,-61,-22,-230c0,0,0,-173,23,-234c0,0,22,-61,79,-61Zm-2,-74c0,0,-161,0,-240,91c0,0,-79,91,-79,277c0,0,0,186,80,276c0,0,81,90,245,90c0,0,167,0,245,-93c0,0,78,-93,78,-273c0,0,0,-188,-81,-278c0,0,-81,-90,-248,-90Z" 
id="f3_2b"
transform="scale(0.001,-0.001)" />

<path d="M425,-14c0,0,-187,0,-280,90c0,0,-93,90,-93,276c0,0,0,115,42,198c0,0,43,82,121,126c0,0,78,44,182,44c0,0,104,0,227,-26V486H571L539,609c0,0,-25,19,-50,26c0,0,-24,7,-65,7c0,0,-44,0,-79,-35c0,0,-36,-35,-56,-98c0,0,-20,-64,-20,-153c0,0,0,-150,47,-214c0,0,47,-64,148,-64c0,0,103,0,176,21V42C640,42,606,15,547,0c0,0,-59,-14,-122,-14Z" 
id="f3_1z"
transform="scale(0.001,-0.001)" />

<path d="M46,0c0,0,-2,48,16,93c0,0,27,74,88,146c0,0,61,71,176,165c0,0,178,146,241,232c0,0,63,85,63,161c0,0,0,80,-57,135c0,0,-58,55,-149,55c0,0,-98,0,-156,-59c0,0,-58,-58,-59,-160L71,782c0,0,15,154,107,235c0,0,93,81,249,81c0,0,157,0,249,-87c0,0,92,-88,92,-217c0,0,0,-65,-27,-129c0,0,-27,-63,-89,-133c0,0,-62,-70,-207,-193C445,339,324,238,290,202c0,0,-35,-36,-57,-73H770V0Z" 
id="f4_m"
transform="scale(0.001,-0.001)" />

<path d="M420,489c0,0,93,0,153,65c0,0,60,65,60,181c0,0,0,116,-62,184c0,0,-61,68,-148,68c0,0,-90,0,-156,-74c0,0,-66,-73,-66,-189c0,0,0,-105,63,-170c0,0,63,-65,156,-65ZM391,-18c0,0,-128,0,-209,71c0,0,-82,71,-98,200l129,12c0,0,17,-91,63,-132c0,0,46,-41,118,-41c0,0,62,0,109,28c0,0,47,29,76,76c0,0,30,47,50,128c0,0,20,80,20,164c0,0,0,9,-1,27c0,0,-40,-65,-110,-105c0,0,-69,-39,-151,-39c0,0,-135,0,-229,98c0,0,-94,99,-94,260c0,0,0,166,98,268c0,0,98,101,245,101c0,0,107,0,195,-57c0,0,89,-58,134,-164c0,0,46,-106,46,-308c0,0,0,-209,-45,-334C737,235,691,111,602,46c0,0,-90,-64,-211,-64Z" 
id="f4_t"
transform="scale(0.001,-0.001)" />


</defs>
</svg>