<?xml version="1.0" encoding="UTF-8" standalone="no"?>
<!DOCTYPE svg PUBLIC "-//W3C//DTD SVG 1.1//EN"
"http://www.w3.org/Graphics/SVG/1.1/DTD/svg11.dtd">
<svg viewBox="0 0 797 1155" version="1.1" xmlns="http://www.w3.org/2000/svg" xmlns:xlink="http://www.w3.org/1999/xlink">
<defs>
<clipPath id="c0_83"><path d="M0,1155V0H797.5V1155Z" /></clipPath>
</defs>
<g clip-path="url(#c0_83)">
<g fill="#000000" >
<use xlink:href="#f0_ov" transform="matrix(11,0,0,11,55,270.7)" />
<use xlink:href="#f0_rz" transform="matrix(11,0,0,11,60.1,270.7)" />
<use xlink:href="#f0_ow" transform="matrix(11,0,0,11,68.6,270.7)" />
</g>
<g fill="#FFFFFF" >
<use xlink:href="#f0_nt" transform="matrix(11,0,0,11,73.7,270.7)" />
</g>
<g fill="#000000" >
<use xlink:href="#f1_2g" transform="matrix(11,0,0,11,78.1,270.7)" />
<use xlink:href="#f1_9n" transform="matrix(11,0,0,11,86.9,270.7)" />
<use xlink:href="#f1_co" transform="matrix(11,0,0,11,96.1,270.7)" />
<use xlink:href="#f1_a8" transform="matrix(11,0,0,11,104.1,270.7)" />
<use xlink:href="#f1_a8" transform="matrix(11,0,0,11,108.2,270.7)" />
<use xlink:href="#f1_am" transform="matrix(11,0,0,11,112.2,270.7)" />
<use xlink:href="#f1_7l" transform="matrix(11,0,0,11,121.3,270.7)" />
<use xlink:href="#f1_a8" transform="matrix(11,0,0,11,128.3,270.7)" />
<use xlink:href="#f1_77" transform="matrix(11,0,0,11,132.3,270.7)" />
<use xlink:href="#f1_7v" transform="matrix(11,0,0,11,140.7,270.7)" />
<use xlink:href="#f1_7z" transform="matrix(11,0,0,11,149.9,270.7)" />
</g>
<g fill="#FFFFFF" >
<use xlink:href="#f1_nt" transform="matrix(11,0,0,11,158.5,270.7)" />
</g>
<g fill="#000000" >
<use xlink:href="#f0_oj" transform="matrix(11,0,0,11,162.9,270.7)" />
</g>
<g fill="#FFFFFF" >
<use xlink:href="#f0_nt" transform="matrix(11,0,0,11,168,270.7)" />
</g>
<g fill="#000000" >
<use xlink:href="#f0_2t" transform="matrix(11,0,0,11,172.4,270.7)" />
<use xlink:href="#f0_9n" transform="matrix(11,0,0,11,180.5,270.7)" />
<use xlink:href="#f0_7z" transform="matrix(11,0,0,11,189.3,270.7)" />
</g>
<g fill="#FFFFFF" >
<use xlink:href="#f0_nt" transform="matrix(11,0,0,11,197.7,270.7)" />
</g>
<g fill="#000000" >
<use xlink:href="#f0_b5" transform="matrix(11,0,0,11,202.1,270.7)" />
<use xlink:href="#f0_bf" transform="matrix(11,0,0,11,208.7,270.7)" />
<use xlink:href="#f0_7z" transform="matrix(11,0,0,11,214.2,270.7)" />
<use xlink:href="#f0_ae" transform="matrix(11,0,0,11,222.3,270.7)" />
</g>
<g fill="#FFFFFF" >
<use xlink:href="#f0_nt" transform="matrix(11,0,0,11,235.9,270.7)" />
</g>
<g fill="#000000" >
<use xlink:href="#f0_9q" transform="matrix(11,0,0,11,240.3,270.7)" />
<use xlink:href="#f0_b5" transform="matrix(11,0,0,11,243.9,270.7)" />
</g>
<g fill="#FFFFFF" >
<use xlink:href="#f0_nt" transform="matrix(11,0,0,11,250.5,270.7)" />
</g>
<g fill="#000000" >
<use xlink:href="#f0_ae" transform="matrix(11,0,0,11,254.9,270.7)" />
<use xlink:href="#f0_am" transform="matrix(11,0,0,11,268.5,270.7)" />
<use xlink:href="#f0_7v" transform="matrix(11,0,0,11,277.3,270.7)" />
<use xlink:href="#f0_9q" transform="matrix(11,0,0,11,285.7,270.7)" />
<use xlink:href="#f0_89" transform="matrix(11,0,0,11,289.7,270.7)" />
<use xlink:href="#f0_9q" transform="matrix(11,0,0,11,294.9,270.7)" />
<use xlink:href="#f0_7z" transform="matrix(11,0,0,11,298.9,270.7)" />
<use xlink:href="#f0_7v" transform="matrix(11,0,0,11,307.3,270.7)" />
</g>
<g fill="#FFFFFF" >
<use xlink:href="#f0_nt" transform="matrix(11,0,0,11,315.9,270.7)" />
</g>
<g fill="#000000" >
<use xlink:href="#f0_9q" transform="matrix(11,0,0,11,320.3,270.7)" />
<use xlink:href="#f0_af" transform="matrix(11,0,0,11,324.3,270.7)" />
<use xlink:href="#f0_bf" transform="matrix(11,0,0,11,333.1,270.7)" />
<use xlink:href="#f0_am" transform="matrix(11,0,0,11,338.6,270.7)" />
</g>
<g fill="#FFFFFF" >
<use xlink:href="#f0_nt" transform="matrix(11,0,0,11,347.4,270.7)" />
</g>
<g fill="#000000" >
<use xlink:href="#f0_77" transform="matrix(11,0,0,11,351.8,270.7)" />
</g>
<g fill="#FFFFFF" >
<use xlink:href="#f0_nt" transform="matrix(11,0,0,11,359.9,270.7)" />
</g>
<g fill="#000000" >
<use xlink:href="#f0_89" transform="matrix(11,0,0,11,364.3,270.7)" />
<use xlink:href="#f0_a8" transform="matrix(11,0,0,11,369,270.7)" />
<use xlink:href="#f0_77" transform="matrix(11,0,0,11,373,270.7)" />
<use xlink:href="#f0_bf" transform="matrix(11,0,0,11,381.1,270.7)" />
<use xlink:href="#f0_nq" transform="matrix(11,0,0,11,386.6,270.7)" />
</g>
<g fill="#FFFFFF" >
<use xlink:href="#f0_nt" transform="matrix(11,0,0,11,390.7,270.7)" />
</g>
<g fill="#000000" >
<use xlink:href="#f0_89" transform="matrix(11,0,0,11,395.1,270.7)" />
<use xlink:href="#f0_a8" transform="matrix(11,0,0,11,400.2,270.7)" />
<use xlink:href="#f0_7z" transform="matrix(11,0,0,11,404.2,270.7)" />
<use xlink:href="#f0_b5" transform="matrix(11,0,0,11,412.6,270.7)" />
<use xlink:href="#f0_9n" transform="matrix(11,0,0,11,419.2,270.7)" />
<use xlink:href="#f0_co" transform="matrix(11,0,0,11,427.7,270.7)" />
</g>
<g fill="#FFFFFF" >
<use xlink:href="#f0_nt" transform="matrix(11,0,0,11,435.4,270.7)" />
</g>
<g fill="#000000" >
<use xlink:href="#f0_77" transform="matrix(11,0,0,11,439.8,270.7)" />
<use xlink:href="#f0_af" transform="matrix(11,0,0,11,447.9,270.7)" />
<use xlink:href="#f0_7v" transform="matrix(11,0,0,11,456.7,270.7)" />
</g>
<g fill="#FFFFFF" >
<use xlink:href="#f0_nt" transform="matrix(11,0,0,11,465.5,270.7)" />
</g>
<g fill="#000000" >
<use xlink:href="#f0_9d" transform="matrix(11,0,0,11,469.9,270.7)" />
<use xlink:href="#f0_b1" transform="matrix(11,0,0,11,478,270.7)" />
<use xlink:href="#f0_7z" transform="matrix(11,0,0,11,483.5,270.7)" />
<use xlink:href="#f0_7z" transform="matrix(11,0,0,11,491.9,270.7)" />
<use xlink:href="#f0_af" transform="matrix(11,0,0,11,500.3,270.7)" />
</g>
<g fill="#FFFFFF" >
<use xlink:href="#f0_nt" transform="matrix(11,0,0,11,509.1,270.7)" />
</g>
<g fill="#000000" >
<use xlink:href="#f0_a8" transform="matrix(11,0,0,11,513.2,270.7)" />
<use xlink:href="#f0_7z" transform="matrix(11,0,0,11,517.2,270.7)" />
<use xlink:href="#f0_77" transform="matrix(11,0,0,11,525.6,270.7)" />
<use xlink:href="#f0_89" transform="matrix(11,0,0,11,533.7,270.7)" />
</g>
<g fill="#FFFFFF" >
<use xlink:href="#f0_nt" transform="matrix(11,0,0,11,538.8,270.7)" />
</g>
<g fill="#000000" >
<use xlink:href="#f0_a8" transform="matrix(11,0,0,11,542.9,270.7)" />
<use xlink:href="#f0_9q" transform="matrix(11,0,0,11,546.9,270.7)" />
<use xlink:href="#f0_a5" transform="matrix(11,0,0,11,550.6,270.7)" />
<use xlink:href="#f0_7z" transform="matrix(11,0,0,11,558.2,270.7)" />
</g>
<g fill="#FFFFFF" >
<use xlink:href="#f0_nt" transform="matrix(11,0,0,11,566.8,270.7)" />
</g>
<g fill="#000000" >
<use xlink:href="#f0_b5" transform="matrix(11,0,0,11,571.2,270.7)" />
<use xlink:href="#f0_bf" transform="matrix(11,0,0,11,577.8,270.7)" />
<use xlink:href="#f0_b1" transform="matrix(11,0,0,11,583.3,270.7)" />
<use xlink:href="#f0_c6" transform="matrix(11,0,0,11,589.1,270.7)" />
<use xlink:href="#f0_7l" transform="matrix(11,0,0,11,597.9,270.7)" />
<use xlink:href="#f0_bf" transform="matrix(11,0,0,11,604.9,270.7)" />
<use xlink:href="#f0_c6" transform="matrix(11,0,0,11,610.4,270.7)" />
<use xlink:href="#f0_b1" transform="matrix(11,0,0,11,619.2,270.7)" />
<use xlink:href="#f0_7z" transform="matrix(11,0,0,11,625.1,270.7)" />
</g>
<g fill="#FFFFFF" >
<use xlink:href="#f0_nt" transform="matrix(11,0,0,11,633.5,270.7)" />
</g>
<g fill="#000000" >
<use xlink:href="#f0_77" transform="matrix(11,0,0,11,637.9,270.7)" />
<use xlink:href="#f0_af" transform="matrix(11,0,0,11,646,270.7)" />
<use xlink:href="#f0_7v" transform="matrix(11,0,0,11,654.8,270.7)" />
</g>
<g fill="#FFFFFF" >
<use xlink:href="#f0_nt" transform="matrix(11,0,0,11,663.6,270.7)" />
</g>
<g fill="#000000" >
<use xlink:href="#f0_7l" transform="matrix(11,0,0,11,668,270.7)" />
<use xlink:href="#f0_77" transform="matrix(11,0,0,11,675,270.7)" />
<use xlink:href="#f0_b1" transform="matrix(11,0,0,11,683,270.7)" />
<use xlink:href="#f0_b1" transform="matrix(11,0,0,11,688.9,270.7)" />
<use xlink:href="#f0_9q" transform="matrix(11,0,0,11,694.8,270.7)" />
<use xlink:href="#f0_7z" transform="matrix(11,0,0,11,698.8,270.7)" />
<use xlink:href="#f0_b5" transform="matrix(11,0,0,11,707.2,270.7)" />
</g>
<g fill="#FFFFFF" >
<use xlink:href="#f0_nt" transform="matrix(11,0,0,11,713.5,270.7)" />
</g>
<g fill="#000000" >
<use xlink:href="#f0_am" transform="matrix(11,0,0,11,717.9,270.7)" />
<use xlink:href="#f0_c6" transform="matrix(11,0,0,11,726.7,270.7)" />
<use xlink:href="#f0_bf" transform="matrix(11,0,0,11,735.5,270.7)" />
<use xlink:href="#f0_ay" transform="matrix(11,0,0,11,55,291.2)" />
<use xlink:href="#f0_9n" transform="matrix(11,0,0,11,63.8,291.2)" />
<use xlink:href="#f0_am" transform="matrix(11,0,0,11,72.6,291.2)" />
<use xlink:href="#f0_bf" transform="matrix(11,0,0,11,81.4,291.2)" />
<use xlink:href="#f0_am" transform="matrix(11,0,0,11,86.9,291.2)" />
<use xlink:href="#f0_b5" transform="matrix(11,0,0,11,95.8,291.2)" />
<use xlink:href="#f0_co" transform="matrix(11,0,0,11,102.3,291.2)" />
<use xlink:href="#f0_af" transform="matrix(11,0,0,11,110,291.2)" />
<use xlink:href="#f0_bf" transform="matrix(11,0,0,11,118.8,291.2)" />
<use xlink:href="#f0_9n" transform="matrix(11,0,0,11,124.3,291.2)" />
<use xlink:href="#f0_7z" transform="matrix(11,0,0,11,133.1,291.2)" />
<use xlink:href="#f0_b5" transform="matrix(11,0,0,11,141.5,291.2)" />
<use xlink:href="#f0_9q" transform="matrix(11,0,0,11,148.1,291.2)" />
<use xlink:href="#f0_b5" transform="matrix(11,0,0,11,152.2,291.2)" />
</g>
<g fill="#FFFFFF" >
<use xlink:href="#f0_nt" transform="matrix(11,0,0,11,158.8,291.2)" />
</g>
<g fill="#000000" >
<use xlink:href="#f0_a8" transform="matrix(11,0,0,11,163.2,291.2)" />
<use xlink:href="#f0_9q" transform="matrix(11,0,0,11,167.3,291.2)" />
<use xlink:href="#f0_a5" transform="matrix(11,0,0,11,171.3,291.2)" />
<use xlink:href="#f0_7z" transform="matrix(11,0,0,11,178.6,291.2)" />
</g>
<g fill="#FFFFFF" >
<use xlink:href="#f0_nt" transform="matrix(11,0,0,11,187.1,291.2)" />
</g>
<g fill="#000000" >
<use xlink:href="#f0_a8" transform="matrix(11,0,0,11,191.1,291.2)" />
<use xlink:href="#f0_7z" transform="matrix(11,0,0,11,195.1,291.2)" />
<use xlink:href="#f0_77" transform="matrix(11,0,0,11,203.5,291.2)" />
<use xlink:href="#f0_89" transform="matrix(11,0,0,11,211.6,291.2)" />
<use xlink:href="#f0_nt" transform="matrix(11,0,0,11,216.7,291.2)" />
</g>
<g fill="#FFFFFF" >
<use xlink:href="#f0_nt" transform="matrix(11,0,0,11,220.8,291.2)" />
</g>
<g fill="#000000" >
<use xlink:href="#f0_2t" transform="matrix(11,0,0,11,225.2,291.2)" />
<use xlink:href="#f0_9n" transform="matrix(11,0,0,11,233.3,291.2)" />
<use xlink:href="#f0_7z" transform="matrix(11,0,0,11,242.1,291.2)" />
</g>
<g fill="#FFFFFF" >
<use xlink:href="#f0_nt" transform="matrix(11,0,0,11,250.5,291.2)" />
</g>
<g fill="#000000" >
<use xlink:href="#f0_a8" transform="matrix(11,0,0,11,254.9,291.2)" />
<use xlink:href="#f0_7z" transform="matrix(11,0,0,11,258.6,291.2)" />
<use xlink:href="#f0_77" transform="matrix(11,0,0,11,267,291.2)" />
<use xlink:href="#f0_ch" transform="matrix(11,0,0,11,275.1,291.2)" />
<use xlink:href="#f0_7z" transform="matrix(11,0,0,11,282.8,291.2)" />
<use xlink:href="#f0_b5" transform="matrix(11,0,0,11,291.2,291.2)" />
</g>
<g fill="#FFFFFF" >
<use xlink:href="#f0_nt" transform="matrix(11,0,0,11,297.5,291.2)" />
</g>
<g fill="#000000" >
<use xlink:href="#f0_77" transform="matrix(11,0,0,11,301.9,291.2)" />
<use xlink:href="#f0_b1" transform="matrix(11,0,0,11,310,291.2)" />
<use xlink:href="#f0_7z" transform="matrix(11,0,0,11,315.9,291.2)" />
</g>
<g fill="#FFFFFF" >
<use xlink:href="#f0_nt" transform="matrix(11,0,0,11,324.3,291.2)" />
</g>
<g fill="#000000" >
<use xlink:href="#f0_ae" transform="matrix(11,0,0,11,328.3,291.2)" />
<use xlink:href="#f0_am" transform="matrix(11,0,0,11,341.9,291.2)" />
<use xlink:href="#f0_7v" transform="matrix(11,0,0,11,350.7,291.2)" />
<use xlink:href="#f0_9q" transform="matrix(11,0,0,11,359.5,291.2)" />
<use xlink:href="#f0_89" transform="matrix(11,0,0,11,363.5,291.2)" />
<use xlink:href="#f0_9q" transform="matrix(11,0,0,11,368.6,291.2)" />
<use xlink:href="#f0_7z" transform="matrix(11,0,0,11,372.3,291.2)" />
<use xlink:href="#f0_7v" transform="matrix(11,0,0,11,380.7,291.2)" />
</g>
<g fill="#FFFFFF" >
<use xlink:href="#f0_nt" transform="matrix(11,0,0,11,389.6,291.2)" />
</g>
<g fill="#000000" >
<use xlink:href="#f0_9q" transform="matrix(11,0,0,11,394,291.2)" />
<use xlink:href="#f0_af" transform="matrix(11,0,0,11,398,291.2)" />
<use xlink:href="#f0_bf" transform="matrix(11,0,0,11,406.8,291.2)" />
<use xlink:href="#f0_am" transform="matrix(11,0,0,11,412.3,291.2)" />
</g>
<g fill="#FFFFFF" >
<use xlink:href="#f0_nt" transform="matrix(11,0,0,11,421.1,291.2)" />
</g>
<g fill="#000000" >
<use xlink:href="#f0_b5" transform="matrix(11,0,0,11,425.2,291.2)" />
<use xlink:href="#f0_ay" transform="matrix(11,0,0,11,431.7,291.2)" />
<use xlink:href="#f0_9q" transform="matrix(11,0,0,11,440.6,291.2)" />
<use xlink:href="#f0_af" transform="matrix(11,0,0,11,444.6,291.2)" />
<use xlink:href="#f0_7z" transform="matrix(11,0,0,11,453.4,291.2)" />
<use xlink:href="#f0_b5" transform="matrix(11,0,0,11,461.8,291.2)" />
</g>
<g fill="#FFFFFF" >
<use xlink:href="#f0_nt" transform="matrix(11,0,0,11,468.4,291.2)" />
</g>
<g fill="#000000" >
<use xlink:href="#f0_t" transform="matrix(11,0,0,11,472.8,291.2)" />
<use xlink:href="#f0_9d" transform="matrix(11,0,0,11,480.9,291.2)" />
<use xlink:href="#f0_nt" transform="matrix(11,0,0,11,488.6,291.2)" />
</g>
<g fill="#FFFFFF" >
<use xlink:href="#f0_nt" transform="matrix(11,0,0,11,493,291.2)" />
</g>
<g fill="#000000" >
<use xlink:href="#f2_24" transform="matrix(11,0,0,11,497.4,291.2)" />
<use xlink:href="#f2_ay" transform="matrix(11,0,0,11,508.8,291.2)" />
<use xlink:href="#f2_c6" transform="matrix(11,0,0,11,517.6,291.2)" />
<use xlink:href="#f2_af" transform="matrix(11,0,0,11,526.4,291.2)" />
<use xlink:href="#f2_bf" transform="matrix(11,0,0,11,535.2,291.2)" />
<use xlink:href="#f2_9q" transform="matrix(11,0,0,11,541,291.2)" />
<use xlink:href="#f2_77" transform="matrix(11,0,0,11,545.1,291.2)" />
<use xlink:href="#f2_nt" transform="matrix(11,0,0,11,553.9,291.2)" />
<use xlink:href="#f0_ov" transform="matrix(11,0,0,11,55,653.2)" />
<use xlink:href="#f0_s0" transform="matrix(11,0,0,11,60.1,653.2)" />
<use xlink:href="#f0_ow" transform="matrix(11,0,0,11,68.6,653.2)" />
</g>
<g fill="#FFFFFF" >
<use xlink:href="#f0_nt" transform="matrix(11,0,0,11,73.7,653.2)" />
</g>
<g fill="#000000" >
<use xlink:href="#f1_2n" transform="matrix(11,0,0,11,78.1,653.2)" />
<use xlink:href="#f1_bf" transform="matrix(11,0,0,11,86.2,653.2)" />
<use xlink:href="#f1_7z" transform="matrix(11,0,0,11,92,653.2)" />
<use xlink:href="#f1_ae" transform="matrix(11,0,0,11,100.5,653.2)" />
<use xlink:href="#f1_bf" transform="matrix(11,0,0,11,114,653.2)" />
<use xlink:href="#f1_9n" transform="matrix(11,0,0,11,119.9,653.2)" />
<use xlink:href="#f1_am" transform="matrix(11,0,0,11,129.1,653.2)" />
<use xlink:href="#f1_b1" transform="matrix(11,0,0,11,138.2,653.2)" />
<use xlink:href="#f1_af" transform="matrix(11,0,0,11,143.7,653.2)" />
</g>
<g fill="#FFFFFF" >
<use xlink:href="#f1_nt" transform="matrix(11,0,0,11,153,653.2)" />
</g>
<g fill="#000000" >
<use xlink:href="#f0_oj" transform="matrix(11,0,0,11,157.4,653.2)" />
</g>
<g fill="#FFFFFF" >
<use xlink:href="#f0_nt" transform="matrix(11,0,0,11,162.5,653.2)" />
</g>
<g fill="#000000" >
<use xlink:href="#f0_5" transform="matrix(11,0,0,11,166.9,653.2)" />
<use xlink:href="#f0_cn" transform="matrix(11,0,0,11,176.8,653.2)" />
<use xlink:href="#f0_9q" transform="matrix(11,0,0,11,183.8,653.2)" />
<use xlink:href="#f0_a8" transform="matrix(11,0,0,11,187.8,653.2)" />
<use xlink:href="#f0_a8" transform="matrix(11,0,0,11,191.4,653.2)" />
<use xlink:href="#f0_77" transform="matrix(11,0,0,11,195.4,653.2)" />
<use xlink:href="#f0_b1" transform="matrix(11,0,0,11,203.5,653.2)" />
<use xlink:href="#f0_co" transform="matrix(11,0,0,11,209.4,653.2)" />
</g>
<g fill="#FFFFFF" >
<use xlink:href="#f0_nt" transform="matrix(11,0,0,11,216.8,653.2)" />
</g>
<g fill="#000000" >
<use xlink:href="#f0_7k" transform="matrix(11,0,0,11,221.2,653.2)" />
<use xlink:href="#f0_c6" transform="matrix(11,0,0,11,230,653.2)" />
<use xlink:href="#f0_7v" transform="matrix(11,0,0,11,238.8,653.2)" />
<use xlink:href="#f0_nq" transform="matrix(11,0,0,11,247.6,653.2)" />
</g>
<g fill="#FFFFFF" >
<use xlink:href="#f0_nt" transform="matrix(11,0,0,11,251.6,653.2)" />
</g>
<g fill="#000000" >
<use xlink:href="#f0_ae" transform="matrix(11,0,0,11,256,653.2)" />
<use xlink:href="#f0_am" transform="matrix(11,0,0,11,269.6,653.2)" />
<use xlink:href="#f0_7v" transform="matrix(11,0,0,11,278.4,653.2)" />
<use xlink:href="#f0_9q" transform="matrix(11,0,0,11,287.2,653.2)" />
<use xlink:href="#f0_89" transform="matrix(11,0,0,11,291.2,653.2)" />
<use xlink:href="#f0_9q" transform="matrix(11,0,0,11,296.4,653.2)" />
<use xlink:href="#f0_7z" transform="matrix(11,0,0,11,300,653.2)" />
<use xlink:href="#f0_7v" transform="matrix(11,0,0,11,308.4,653.2)" />
</g>
<g fill="#FFFFFF" >
<use xlink:href="#f0_nt" transform="matrix(11,0,0,11,317.3,653.2)" />
</g>
<g fill="#000000" >
<use xlink:href="#f0_bf" transform="matrix(11,0,0,11,321.7,653.2)" />
<use xlink:href="#f0_am" transform="matrix(11,0,0,11,327.2,653.2)" />
</g>
<g fill="#FFFFFF" >
<use xlink:href="#f0_nt" transform="matrix(11,0,0,11,336,653.2)" />
</g>
<g fill="#000000" >
<use xlink:href="#f0_7k" transform="matrix(11,0,0,11,340.4,653.2)" />
<use xlink:href="#f0_b1" transform="matrix(11,0,0,11,349.2,653.2)" />
<use xlink:href="#f0_77" transform="matrix(11,0,0,11,355.1,653.2)" />
<use xlink:href="#f0_af" transform="matrix(11,0,0,11,363.2,653.2)" />
<use xlink:href="#f0_7l" transform="matrix(11,0,0,11,372,653.2)" />
<use xlink:href="#f0_9n" transform="matrix(11,0,0,11,378.9,653.2)" />
<use xlink:href="#f0_7z" transform="matrix(11,0,0,11,387.7,653.2)" />
<use xlink:href="#f0_7v" transform="matrix(11,0,0,11,396.1,653.2)" />
</g>
<g fill="#FFFFFF" >
<use xlink:href="#f0_nt" transform="matrix(11,0,0,11,405,653.2)" />
</g>
<g fill="#000000" >
<use xlink:href="#f0_am" transform="matrix(11,0,0,11,409.4,653.2)" />
<use xlink:href="#f0_b1" transform="matrix(11,0,0,11,418.2,653.2)" />
</g>
<g fill="#FFFFFF" >
<use xlink:href="#f0_nt" transform="matrix(11,0,0,11,424.1,653.2)" />
</g>
<g fill="#000000" >
<use xlink:href="#f0_c6" transform="matrix(11,0,0,11,428.1,653.2)" />
<use xlink:href="#f0_af" transform="matrix(11,0,0,11,436.9,653.2)" />
<use xlink:href="#f0_7k" transform="matrix(11,0,0,11,445.7,653.2)" />
<use xlink:href="#f0_b1" transform="matrix(11,0,0,11,454.5,653.2)" />
<use xlink:href="#f0_77" transform="matrix(11,0,0,11,460.4,653.2)" />
<use xlink:href="#f0_af" transform="matrix(11,0,0,11,468.5,653.2)" />
<use xlink:href="#f0_7l" transform="matrix(11,0,0,11,477.2,653.2)" />
<use xlink:href="#f0_9n" transform="matrix(11,0,0,11,484.2,653.2)" />
<use xlink:href="#f0_7z" transform="matrix(11,0,0,11,493,653.2)" />
<use xlink:href="#f0_7v" transform="matrix(11,0,0,11,501.4,653.2)" />
</g>
<g fill="#FFFFFF" >
<use xlink:href="#f0_nt" transform="matrix(11,0,0,11,510.2,653.2)" />
</g>
<g fill="#000000" >
<use xlink:href="#f0_b5" transform="matrix(11,0,0,11,514.6,653.2)" />
<use xlink:href="#f0_ay" transform="matrix(11,0,0,11,521.2,653.2)" />
<use xlink:href="#f0_9q" transform="matrix(11,0,0,11,530.1,653.2)" />
<use xlink:href="#f0_af" transform="matrix(11,0,0,11,534.1,653.2)" />
<use xlink:href="#f0_7z" transform="matrix(11,0,0,11,542.9,653.2)" />
<use xlink:href="#f0_b5" transform="matrix(11,0,0,11,551.3,653.2)" />
</g>
<g fill="#FFFFFF" >
<use xlink:href="#f0_nt" transform="matrix(11,0,0,11,558,653.2)" />
</g>
<g fill="#000000" >
<use xlink:href="#f0_t" transform="matrix(11,0,0,11,562.4,653.2)" />
<use xlink:href="#f0_9d" transform="matrix(11,0,0,11,570.4,653.2)" />
<use xlink:href="#f0_nt" transform="matrix(11,0,0,11,578.5,653.2)" />
<use xlink:href="#f0_nq" transform="matrix(11,0,0,11,582.9,653.2)" />
</g>
<g fill="#FFFFFF" >
<use xlink:href="#f0_nt" transform="matrix(11,0,0,11,586.9,653.2)" />
</g>
<g fill="#000000" >
<use xlink:href="#f2_j" transform="matrix(11,0,0,11,591,653.2)" />
<use xlink:href="#f2_77" transform="matrix(11,0,0,11,599.7,653.2)" />
<use xlink:href="#f2_b1" transform="matrix(11,0,0,11,608.6,653.2)" />
<use xlink:href="#f2_b1" transform="matrix(11,0,0,11,614.4,653.2)" />
<use xlink:href="#f2_9q" transform="matrix(11,0,0,11,620.3,653.2)" />
<use xlink:href="#f2_b5" transform="matrix(11,0,0,11,624.3,653.2)" />
<use xlink:href="#f2_77" transform="matrix(11,0,0,11,631,653.2)" />
<use xlink:href="#f1_nt" transform="matrix(11,0,0,11,639.8,653.2)" />
<use xlink:href="#f1_2t" transform="matrix(11,0,0,11,55,673.8)" />
<use xlink:href="#f1_9n" transform="matrix(11,0,0,11,63.5,673.8)" />
<use xlink:href="#f1_am" transform="matrix(11,0,0,11,72.6,673.8)" />
<use xlink:href="#f1_b1" transform="matrix(11,0,0,11,81.7,673.8)" />
<use xlink:href="#f1_af" transform="matrix(11,0,0,11,87.6,673.8)" />
<use xlink:href="#f1_b5" transform="matrix(11,0,0,11,96.7,673.8)" />
</g>
<g fill="#FFFFFF" >
<use xlink:href="#f1_nt" transform="matrix(11,0,0,11,103.4,673.8)" />
</g>
<g fill="#000000" >
<use xlink:href="#f1_77" transform="matrix(11,0,0,11,107.8,673.8)" />
<use xlink:href="#f1_b1" transform="matrix(11,0,0,11,116.3,673.8)" />
<use xlink:href="#f1_7z" transform="matrix(11,0,0,11,122.1,673.8)" />
</g>
<g fill="#FFFFFF" >
<use xlink:href="#f1_nt" transform="matrix(11,0,0,11,130.6,673.8)" />
</g>
<g fill="#000000" >
<use xlink:href="#f1_am" transform="matrix(11,0,0,11,135,673.8)" />
<use xlink:href="#f1_89" transform="matrix(11,0,0,11,144.2,673.8)" />
</g>
<g fill="#FFFFFF" >
<use xlink:href="#f1_nt" transform="matrix(11,0,0,11,149.7,673.8)" />
</g>
<g fill="#000000" >
<use xlink:href="#f1_s0" transform="matrix(11,0,0,11,154.1,673.8)" />
</g>
<g fill="#FFFFFF" >
<use xlink:href="#f1_nt" transform="matrix(11,0,0,11,162.5,673.8)" />
</g>
<g fill="#000000" >
<use xlink:href="#f1_bf" transform="matrix(11,0,0,11,166.9,673.8)" />
<use xlink:href="#f1_co" transform="matrix(11,0,0,11,172.8,673.8)" />
<use xlink:href="#f1_ay" transform="matrix(11,0,0,11,180.8,673.8)" />
<use xlink:href="#f1_7z" transform="matrix(11,0,0,11,190,673.8)" />
<use xlink:href="#f1_b5" transform="matrix(11,0,0,11,198.4,673.8)" />
</g>
<g fill="#FFFFFF" >
<use xlink:href="#f1_nt" transform="matrix(11,0,0,11,205,673.8)" />
</g>
<g fill="#000000" >
<use xlink:href="#f1_oj" transform="matrix(11,0,0,11,209.4,673.8)" />
<use xlink:href="#f0_ov" transform="matrix(11,0,0,11,55,694.3)" />
<use xlink:href="#f0_9q" transform="matrix(11,0,0,11,60.1,694.3)" />
<use xlink:href="#f0_ow" transform="matrix(11,0,0,11,64.2,694.3)" />
</g>
<g fill="#FFFFFF" >
<use xlink:href="#f0_nt" transform="matrix(11,0,0,11,69.3,694.3)" />
</g>
<g fill="#000000" >
<use xlink:href="#f1_2g" transform="matrix(11,0,0,11,73.7,694.3)" />
<use xlink:href="#f1_b1" transform="matrix(11,0,0,11,82.5,694.3)" />
<use xlink:href="#f1_9q" transform="matrix(11,0,0,11,88.4,694.3)" />
<use xlink:href="#f1_7l" transform="matrix(11,0,0,11,92.4,694.3)" />
<use xlink:href="#f1_a5" transform="matrix(11,0,0,11,99.4,694.3)" />
<use xlink:href="#f1_a8" transform="matrix(11,0,0,11,107.5,694.3)" />
<use xlink:href="#f1_7z" transform="matrix(11,0,0,11,111.5,694.3)" />
</g>
<g fill="#FFFFFF" >
<use xlink:href="#f1_nt" transform="matrix(11,0,0,11,119.9,694.3)" />
</g>
<g fill="#000000" >
<use xlink:href="#f0_oj" transform="matrix(11,0,0,11,124.3,694.3)" />
</g>
<g fill="#FFFFFF" >
<use xlink:href="#f0_nt" transform="matrix(11,0,0,11,129.5,694.3)" />
</g>
<g fill="#000000" >
<use xlink:href="#f0_2t" transform="matrix(11,0,0,11,133.9,694.3)" />
<use xlink:href="#f0_9n" transform="matrix(11,0,0,11,142,694.3)" />
<use xlink:href="#f0_7z" transform="matrix(11,0,0,11,150.8,694.3)" />
<use xlink:href="#f0_b5" transform="matrix(11,0,0,11,159.2,694.3)" />
<use xlink:href="#f0_7z" transform="matrix(11,0,0,11,165.8,694.3)" />
</g>
<g fill="#FFFFFF" >
<use xlink:href="#f0_nt" transform="matrix(11,0,0,11,174.2,694.3)" />
</g>
<g fill="#000000" >
<use xlink:href="#f0_7v" transform="matrix(11,0,0,11,178.6,694.3)" />
<use xlink:href="#f0_7z" transform="matrix(11,0,0,11,187.4,694.3)" />
<use xlink:href="#f0_ch" transform="matrix(11,0,0,11,195.8,694.3)" />
<use xlink:href="#f0_7z" transform="matrix(11,0,0,11,203.6,694.3)" />
<use xlink:href="#f0_a8" transform="matrix(11,0,0,11,212,694.3)" />
<use xlink:href="#f0_am" transform="matrix(11,0,0,11,216,694.3)" />
<use xlink:href="#f0_ay" transform="matrix(11,0,0,11,224.8,694.3)" />
</g>
<g fill="#FFFFFF" >
<use xlink:href="#f0_nt" transform="matrix(11,0,0,11,233.3,694.3)" />
</g>
<g fill="#000000" >
<use xlink:href="#f0_am" transform="matrix(11,0,0,11,237.7,694.3)" />
<use xlink:href="#f0_af" transform="matrix(11,0,0,11,246.5,694.3)" />
<use xlink:href="#f0_a8" transform="matrix(11,0,0,11,255.3,694.3)" />
<use xlink:href="#f0_co" transform="matrix(11,0,0,11,259.3,694.3)" />
</g>
<g fill="#FFFFFF" >
<use xlink:href="#f0_nt" transform="matrix(11,0,0,11,266.7,694.3)" />
</g>
<g fill="#000000" >
<use xlink:href="#f0_89" transform="matrix(11,0,0,11,271.1,694.3)" />
<use xlink:href="#f0_b1" transform="matrix(11,0,0,11,276.2,694.3)" />
<use xlink:href="#f0_am" transform="matrix(11,0,0,11,282.1,694.3)" />
<use xlink:href="#f0_ae" transform="matrix(11,0,0,11,290.9,694.3)" />
</g>
<g fill="#FFFFFF" >
<use xlink:href="#f0_nt" transform="matrix(11,0,0,11,304.5,694.3)" />
</g>
<g fill="#000000" >
<use xlink:href="#f0_7l" transform="matrix(11,0,0,11,308.9,694.3)" />
<use xlink:href="#f0_am" transform="matrix(11,0,0,11,315.9,694.3)" />
<use xlink:href="#f0_b1" transform="matrix(11,0,0,11,324.7,694.3)" />
<use xlink:href="#f0_bf" transform="matrix(11,0,0,11,330.5,694.3)" />
<use xlink:href="#f0_7z" transform="matrix(11,0,0,11,336,694.3)" />
<use xlink:href="#f0_cn" transform="matrix(11,0,0,11,344.4,694.3)" />
</g>
<g fill="#FFFFFF" >
<use xlink:href="#f0_nt" transform="matrix(11,0,0,11,351.8,694.3)" />
</g>
<g fill="#000000" >
<use xlink:href="#f0_77" transform="matrix(11,0,0,11,356.2,694.3)" />
<use xlink:href="#f0_af" transform="matrix(11,0,0,11,364.3,694.3)" />
<use xlink:href="#f0_7v" transform="matrix(11,0,0,11,373.1,694.3)" />
</g>
<g fill="#FFFFFF" >
<use xlink:href="#f0_nt" transform="matrix(11,0,0,11,381.5,694.3)" />
</g>
<g fill="#000000" >
<use xlink:href="#f0_7z" transform="matrix(11,0,0,11,385.9,694.3)" />
<use xlink:href="#f0_ay" transform="matrix(11,0,0,11,394.3,694.3)" />
<use xlink:href="#f0_9q" transform="matrix(11,0,0,11,403.2,694.3)" />
<use xlink:href="#f0_7v" transform="matrix(11,0,0,11,407.2,694.3)" />
<use xlink:href="#f0_7z" transform="matrix(11,0,0,11,416,694.3)" />
<use xlink:href="#f0_b1" transform="matrix(11,0,0,11,424.4,694.3)" />
<use xlink:href="#f0_ae" transform="matrix(11,0,0,11,429.9,694.3)" />
<use xlink:href="#f0_9q" transform="matrix(11,0,0,11,443.4,694.3)" />
<use xlink:href="#f0_b5" transform="matrix(11,0,0,11,447.5,694.3)" />
</g>
<g fill="#FFFFFF" >
<use xlink:href="#f0_nt" transform="matrix(11,0,0,11,454.1,694.3)" />
</g>
<g fill="#000000" >
<use xlink:href="#f0_77" transform="matrix(11,0,0,11,458.5,694.3)" />
<use xlink:href="#f0_af" transform="matrix(11,0,0,11,466.6,694.3)" />
<use xlink:href="#f0_7v" transform="matrix(11,0,0,11,475.4,694.3)" />
</g>
<g fill="#FFFFFF" >
<use xlink:href="#f0_nt" transform="matrix(11,0,0,11,483.8,694.3)" />
</g>
<g fill="#000000" >
<use xlink:href="#f0_89" transform="matrix(11,0,0,11,488.2,694.3)" />
<use xlink:href="#f0_am" transform="matrix(11,0,0,11,493.4,694.3)" />
<use xlink:href="#f0_c6" transform="matrix(11,0,0,11,502.2,694.3)" />
<use xlink:href="#f0_af" transform="matrix(11,0,0,11,511,694.3)" />
<use xlink:href="#f0_7v" transform="matrix(11,0,0,11,519.8,694.3)" />
</g>
<g fill="#FFFFFF" >
<use xlink:href="#f0_nt" transform="matrix(11,0,0,11,528.6,694.3)" />
</g>
<g fill="#000000" >
<use xlink:href="#f0_77" transform="matrix(11,0,0,11,533,694.3)" />
<use xlink:href="#f0_bf" transform="matrix(11,0,0,11,541,694.3)" />
</g>
<g fill="#FFFFFF" >
<use xlink:href="#f0_nt" transform="matrix(11,0,0,11,546.5,694.3)" />
</g>
<g fill="#000000" >
<use xlink:href="#f0_af" transform="matrix(11,0,0,11,551,694.3)" />
<use xlink:href="#f0_am" transform="matrix(11,0,0,11,559.8,694.3)" />
<use xlink:href="#f0_7v" transform="matrix(11,0,0,11,568.6,694.3)" />
<use xlink:href="#f0_7z" transform="matrix(11,0,0,11,577.4,694.3)" />
<use xlink:href="#f0_b5" transform="matrix(11,0,0,11,585.8,694.3)" />
</g>
<g fill="#FFFFFF" >
<use xlink:href="#f0_nt" transform="matrix(11,0,0,11,592.4,694.3)" />
</g>
<g fill="#000000" >
<use xlink:href="#f0_am" transform="matrix(11,0,0,11,596.8,694.3)" />
<use xlink:href="#f0_b1" transform="matrix(11,0,0,11,605.6,694.3)" />
</g>
<g fill="#FFFFFF" >
<use xlink:href="#f0_nt" transform="matrix(11,0,0,11,611.1,694.3)" />
</g>
<g fill="#000000" >
<use xlink:href="#f0_9q" transform="matrix(11,0,0,11,615.5,694.3)" />
<use xlink:href="#f0_af" transform="matrix(11,0,0,11,619.5,694.3)" />
<use xlink:href="#f0_bf" transform="matrix(11,0,0,11,628.3,694.3)" />
<use xlink:href="#f0_7z" transform="matrix(11,0,0,11,633.8,694.3)" />
<use xlink:href="#f0_b1" transform="matrix(11,0,0,11,642.2,694.3)" />
<use xlink:href="#f0_af" transform="matrix(11,0,0,11,648.1,694.3)" />
<use xlink:href="#f0_am" transform="matrix(11,0,0,11,657,694.3)" />
<use xlink:href="#f0_7v" transform="matrix(11,0,0,11,665.7,694.3)" />
<use xlink:href="#f0_7z" transform="matrix(11,0,0,11,674.5,694.3)" />
<use xlink:href="#f0_b5" transform="matrix(11,0,0,11,682.9,694.3)" />
</g>
<g fill="#FFFFFF" >
<use xlink:href="#f0_nt" transform="matrix(11,0,0,11,689.6,694.3)" />
</g>
<g fill="#000000" >
<use xlink:href="#f0_t" transform="matrix(11,0,0,11,694,694.3)" />
<use xlink:href="#f0_9d" transform="matrix(11,0,0,11,702.1,694.3)" />
<use xlink:href="#f0_nt" transform="matrix(11,0,0,11,709.8,694.3)" />
<use xlink:href="#f1_2j" transform="matrix(11,0,0,11,55,714.8)" />
<use xlink:href="#f1_am" transform="matrix(11,0,0,11,64.5,714.8)" />
<use xlink:href="#f1_b5" transform="matrix(11,0,0,11,73.7,714.8)" />
<use xlink:href="#f1_7z" transform="matrix(11,0,0,11,80.3,714.8)" />
<use xlink:href="#f1_nt" transform="matrix(11,0,0,11,88.8,714.8)" />
<use xlink:href="#f0_ov" transform="matrix(11,0,0,11,55,735.4)" />
<use xlink:href="#f0_9q" transform="matrix(11,0,0,11,60.1,735.4)" />
<use xlink:href="#f0_9q" transform="matrix(11,0,0,11,64.2,735.4)" />
<use xlink:href="#f0_ow" transform="matrix(11,0,0,11,68.2,735.4)" />
</g>
<g fill="#FFFFFF" >
<use xlink:href="#f0_nt" transform="matrix(11,0,0,11,73,735.4)" />
</g>
<g fill="#000000" >
<use xlink:href="#f1_2n" transform="matrix(11,0,0,11,77.4,735.4)" />
<use xlink:href="#f1_ay" transform="matrix(11,0,0,11,85.4,735.4)" />
<use xlink:href="#f1_9q" transform="matrix(11,0,0,11,94.6,735.4)" />
<use xlink:href="#f1_af" transform="matrix(11,0,0,11,98.3,735.4)" />
<use xlink:href="#f1_7z" transform="matrix(11,0,0,11,107.4,735.4)" />
</g>
<g fill="#FFFFFF" >
<use xlink:href="#f1_nt" transform="matrix(11,0,0,11,115.9,735.4)" />
</g>
<g fill="#000000" >
<use xlink:href="#f0_oj" transform="matrix(11,0,0,11,120.3,735.4)" />
</g>
<g fill="#FFFFFF" >
<use xlink:href="#f0_nt" transform="matrix(11,0,0,11,125.4,735.4)" />
</g>
<g fill="#000000" >
<use xlink:href="#f0_1c" transform="matrix(11,0,0,11,129.9,735.4)" />
<use xlink:href="#f0_bf" transform="matrix(11,0,0,11,134.3,735.4)" />
</g>
<g fill="#FFFFFF" >
<use xlink:href="#f0_nt" transform="matrix(11,0,0,11,139.8,735.4)" />
</g>
<g fill="#000000" >
<use xlink:href="#f0_9q" transform="matrix(11,0,0,11,143.8,735.4)" />
<use xlink:href="#f0_b5" transform="matrix(11,0,0,11,147.8,735.4)" />
</g>
<g fill="#FFFFFF" >
<use xlink:href="#f0_nt" transform="matrix(11,0,0,11,154.4,735.4)" />
</g>
<g fill="#000000" >
<use xlink:href="#f0_ae" transform="matrix(11,0,0,11,158.5,735.4)" />
<use xlink:href="#f0_am" transform="matrix(11,0,0,11,172,735.4)" />
<use xlink:href="#f0_7v" transform="matrix(11,0,0,11,180.8,735.4)" />
<use xlink:href="#f0_9q" transform="matrix(11,0,0,11,189.6,735.4)" />
<use xlink:href="#f0_89" transform="matrix(11,0,0,11,193.6,735.4)" />
<use xlink:href="#f0_9q" transform="matrix(11,0,0,11,198.8,735.4)" />
<use xlink:href="#f0_7l" transform="matrix(11,0,0,11,202.8,735.4)" />
<use xlink:href="#f0_77" transform="matrix(11,0,0,11,209.8,735.4)" />
<use xlink:href="#f0_bf" transform="matrix(11,0,0,11,217.8,735.4)" />
<use xlink:href="#f0_9q" transform="matrix(11,0,0,11,223.3,735.4)" />
<use xlink:href="#f0_am" transform="matrix(11,0,0,11,227.3,735.4)" />
<use xlink:href="#f0_af" transform="matrix(11,0,0,11,236.1,735.4)" />
</g>
<g fill="#FFFFFF" >
<use xlink:href="#f0_nt" transform="matrix(11,0,0,11,245,735.4)" />
</g>
<g fill="#000000" >
<use xlink:href="#f0_am" transform="matrix(11,0,0,11,249.4,735.4)" />
<use xlink:href="#f0_89" transform="matrix(11,0,0,11,258.2,735.4)" />
</g>
<g fill="#FFFFFF" >
<use xlink:href="#f0_nt" transform="matrix(11,0,0,11,263,735.4)" />
</g>
<g fill="#000000" >
<use xlink:href="#f0_b5" transform="matrix(11,0,0,11,267.4,735.4)" />
<use xlink:href="#f0_bf" transform="matrix(11,0,0,11,274,735.4)" />
<use xlink:href="#f0_9q" transform="matrix(11,0,0,11,279.5,735.4)" />
<use xlink:href="#f0_ay" transform="matrix(11,0,0,11,283.5,735.4)" />
<use xlink:href="#f0_c6" transform="matrix(11,0,0,11,292.3,735.4)" />
<use xlink:href="#f0_a8" transform="matrix(11,0,0,11,301.1,735.4)" />
<use xlink:href="#f0_7z" transform="matrix(11,0,0,11,305.1,735.4)" />
</g>
<g fill="#FFFFFF" >
<use xlink:href="#f0_nt" transform="matrix(11,0,0,11,313.3,735.4)" />
</g>
<g fill="#000000" >
<use xlink:href="#f0_77" transform="matrix(11,0,0,11,317.7,735.4)" />
<use xlink:href="#f0_af" transform="matrix(11,0,0,11,325.8,735.4)" />
<use xlink:href="#f0_7v" transform="matrix(11,0,0,11,334.6,735.4)" />
</g>
<g fill="#FFFFFF" >
<use xlink:href="#f0_nt" transform="matrix(11,0,0,11,343.4,735.4)" />
</g>
<g fill="#000000" >
<use xlink:href="#f0_89" transform="matrix(11,0,0,11,347.8,735.4)" />
<use xlink:href="#f0_am" transform="matrix(11,0,0,11,352.9,735.4)" />
<use xlink:href="#f0_c6" transform="matrix(11,0,0,11,361.7,735.4)" />
<use xlink:href="#f0_af" transform="matrix(11,0,0,11,370.5,735.4)" />
<use xlink:href="#f0_7v" transform="matrix(11,0,0,11,379.3,735.4)" />
</g>
<g fill="#FFFFFF" >
<use xlink:href="#f0_nt" transform="matrix(11,0,0,11,388.1,735.4)" />
</g>
<g fill="#000000" >
<use xlink:href="#f0_am" transform="matrix(11,0,0,11,392.5,735.4)" />
<use xlink:href="#f0_af" transform="matrix(11,0,0,11,401.3,735.4)" />
</g>
<g fill="#FFFFFF" >
<use xlink:href="#f0_nt" transform="matrix(11,0,0,11,410.1,735.4)" />
</g>
<g fill="#000000" >
<use xlink:href="#f0_af" transform="matrix(11,0,0,11,414.5,735.4)" />
<use xlink:href="#f0_am" transform="matrix(11,0,0,11,423,735.4)" />
<use xlink:href="#f0_7v" transform="matrix(11,0,0,11,431.8,735.4)" />
<use xlink:href="#f0_7z" transform="matrix(11,0,0,11,440.6,735.4)" />
<use xlink:href="#f0_nt" transform="matrix(11,0,0,11,449,735.4)" />
<use xlink:href="#f0_ov" transform="matrix(11,0,0,11,55,755.9)" />
<use xlink:href="#f0_9q" transform="matrix(11,0,0,11,60.1,755.9)" />
<use xlink:href="#f0_9q" transform="matrix(11,0,0,11,64.2,755.9)" />
<use xlink:href="#f0_9q" transform="matrix(11,0,0,11,67.8,755.9)" />
<use xlink:href="#f0_ow" transform="matrix(11,0,0,11,71.9,755.9)" />
</g>
<g fill="#FFFFFF" >
<use xlink:href="#f0_nt" transform="matrix(11,0,0,11,77,755.9)" />
</g>
<g fill="#000000" >
<use xlink:href="#f1_2t" transform="matrix(11,0,0,11,81.4,755.9)" />
<use xlink:href="#f1_9n" transform="matrix(11,0,0,11,89.5,755.9)" />
<use xlink:href="#f1_am" transform="matrix(11,0,0,11,98.6,755.9)" />
<use xlink:href="#f1_b1" transform="matrix(11,0,0,11,107.8,755.9)" />
<use xlink:href="#f1_af" transform="matrix(11,0,0,11,113.7,755.9)" />
</g>
<g fill="#FFFFFF" >
<use xlink:href="#f1_nt" transform="matrix(11,0,0,11,122.9,755.9)" />
</g>
<g fill="#000000" >
<use xlink:href="#f0_oj" transform="matrix(11,0,0,11,127.3,755.9)" />
</g>
<g fill="#FFFFFF" >
<use xlink:href="#f0_nt" transform="matrix(11,0,0,11,132.4,755.9)" />
</g>
<g fill="#000000" >
<use xlink:href="#f0_1c" transform="matrix(11,0,0,11,136.5,755.9)" />
<use xlink:href="#f0_bf" transform="matrix(11,0,0,11,140.9,755.9)" />
</g>
<g fill="#FFFFFF" >
<use xlink:href="#f0_nt" transform="matrix(11,0,0,11,146.4,755.9)" />
</g>
<g fill="#000000" >
<use xlink:href="#f0_9q" transform="matrix(11,0,0,11,150.8,755.9)" />
<use xlink:href="#f0_b5" transform="matrix(11,0,0,11,154.4,755.9)" />
</g>
<g fill="#FFFFFF" >
<use xlink:href="#f0_nt" transform="matrix(11,0,0,11,161,755.9)" />
</g>
<g fill="#000000" >
<use xlink:href="#f0_ae" transform="matrix(11,0,0,11,165.4,755.9)" />
<use xlink:href="#f0_am" transform="matrix(11,0,0,11,179,755.9)" />
<use xlink:href="#f0_7v" transform="matrix(11,0,0,11,187.8,755.9)" />
<use xlink:href="#f0_9q" transform="matrix(11,0,0,11,196.2,755.9)" />
<use xlink:href="#f0_89" transform="matrix(11,0,0,11,200.2,755.9)" />
<use xlink:href="#f0_9q" transform="matrix(11,0,0,11,205.4,755.9)" />
<use xlink:href="#f0_7l" transform="matrix(11,0,0,11,209.4,755.9)" />
<use xlink:href="#f0_77" transform="matrix(11,0,0,11,216.3,755.9)" />
<use xlink:href="#f0_bf" transform="matrix(11,0,0,11,224.4,755.9)" />
<use xlink:href="#f0_9q" transform="matrix(11,0,0,11,229.9,755.9)" />
<use xlink:href="#f0_am" transform="matrix(11,0,0,11,233.9,755.9)" />
<use xlink:href="#f0_af" transform="matrix(11,0,0,11,242.7,755.9)" />
</g>
<g fill="#FFFFFF" >
<use xlink:href="#f0_nt" transform="matrix(11,0,0,11,251.6,755.9)" />
</g>
<g fill="#000000" >
<use xlink:href="#f0_am" transform="matrix(11,0,0,11,256,755.9)" />
<use xlink:href="#f0_89" transform="matrix(11,0,0,11,264.8,755.9)" />
</g>
<g fill="#FFFFFF" >
<use xlink:href="#f0_nt" transform="matrix(11,0,0,11,270,755.9)" />
</g>
<g fill="#000000" >
<use xlink:href="#f0_7k" transform="matrix(11,0,0,11,274.4,755.9)" />
<use xlink:href="#f0_b1" transform="matrix(11,0,0,11,283.2,755.9)" />
<use xlink:href="#f0_77" transform="matrix(11,0,0,11,289.1,755.9)" />
<use xlink:href="#f0_af" transform="matrix(11,0,0,11,297.1,755.9)" />
<use xlink:href="#f0_7l" transform="matrix(11,0,0,11,305.9,755.9)" />
<use xlink:href="#f0_9n" transform="matrix(11,0,0,11,312.9,755.9)" />
</g>
<g fill="#FFFFFF" >
<use xlink:href="#f0_nt" transform="matrix(11,0,0,11,321.7,755.9)" />
</g>
<g fill="#000000" >
<use xlink:href="#f0_77" transform="matrix(11,0,0,11,326.1,755.9)" />
<use xlink:href="#f0_af" transform="matrix(11,0,0,11,334.2,755.9)" />
<use xlink:href="#f0_7v" transform="matrix(11,0,0,11,343,755.9)" />
</g>
<g fill="#FFFFFF" >
<use xlink:href="#f0_nt" transform="matrix(11,0,0,11,351.4,755.9)" />
</g>
<g fill="#000000" >
<use xlink:href="#f0_77" transform="matrix(11,0,0,11,355.8,755.9)" />
<use xlink:href="#f0_b1" transform="matrix(11,0,0,11,363.9,755.9)" />
<use xlink:href="#f0_7z" transform="matrix(11,0,0,11,369.8,755.9)" />
</g>
<g fill="#FFFFFF" >
<use xlink:href="#f0_nt" transform="matrix(11,0,0,11,378.2,755.9)" />
</g>
<g fill="#000000" >
<use xlink:href="#f0_89" transform="matrix(11,0,0,11,382.6,755.9)" />
<use xlink:href="#f0_am" transform="matrix(11,0,0,11,387.8,755.9)" />
<use xlink:href="#f0_c6" transform="matrix(11,0,0,11,396.5,755.9)" />
<use xlink:href="#f0_af" transform="matrix(11,0,0,11,405.4,755.9)" />
<use xlink:href="#f0_7v" transform="matrix(11,0,0,11,414.2,755.9)" />
</g>
<g fill="#FFFFFF" >
<use xlink:href="#f0_nt" transform="matrix(11,0,0,11,423,755.9)" />
</g>
<g fill="#000000" >
<use xlink:href="#f0_9q" transform="matrix(11,0,0,11,427,755.9)" />
<use xlink:href="#f0_af" transform="matrix(11,0,0,11,431,755.9)" />
</g>
<g fill="#FFFFFF" >
<use xlink:href="#f0_nt" transform="matrix(11,0,0,11,439.8,755.9)" />
</g>
<g fill="#000000" >
<use xlink:href="#f0_77" transform="matrix(11,0,0,11,444.2,755.9)" />
<use xlink:href="#f0_cn" transform="matrix(11,0,0,11,452.3,755.9)" />
<use xlink:href="#f0_9q" transform="matrix(11,0,0,11,459.2,755.9)" />
<use xlink:href="#f0_a8" transform="matrix(11,0,0,11,463.3,755.9)" />
</g>
<g fill="#FFFFFF" >
<use xlink:href="#f0_nt" transform="matrix(11,0,0,11,467.3,755.9)" />
</g>
<g fill="#000000" >
<use xlink:href="#f0_am" transform="matrix(11,0,0,11,471.7,755.9)" />
<use xlink:href="#f0_89" transform="matrix(11,0,0,11,480.5,755.9)" />
</g>
<g fill="#FFFFFF" >
<use xlink:href="#f0_nt" transform="matrix(11,0,0,11,485.3,755.9)" />
</g>
<g fill="#000000" >
<use xlink:href="#f0_a8" transform="matrix(11,0,0,11,489.7,755.9)" />
<use xlink:href="#f0_7z" transform="matrix(11,0,0,11,493.7,755.9)" />
<use xlink:href="#f0_77" transform="matrix(11,0,0,11,502.1,755.9)" />
<use xlink:href="#f0_89" transform="matrix(11,0,0,11,510.2,755.9)" />
</g>
<g fill="#FFFFFF" >
<use xlink:href="#f0_nt" transform="matrix(11,0,0,11,515,755.9)" />
</g>
<g fill="#000000" >
<use xlink:href="#f0_t" transform="matrix(11,0,0,11,519.4,755.9)" />
<use xlink:href="#f0_9d" transform="matrix(11,0,0,11,527.5,755.9)" />
<use xlink:href="#f0_nt" transform="matrix(11,0,0,11,535.5,755.9)" />
</g>
<g fill="#FFFFFF" >
<use xlink:href="#f0_nt" transform="matrix(11,0,0,11,539.6,755.9)" />
</g>
<g fill="#000000" >
<use xlink:href="#f3_j" transform="matrix(11,0,0,11,544,755.9)" />
<use xlink:href="#f3_77" transform="matrix(11,0,0,11,552.8,755.9)" />
<use xlink:href="#f3_b1" transform="matrix(11,0,0,11,561.2,755.9)" />
<use xlink:href="#f3_b1" transform="matrix(11,0,0,11,567.1,755.9)" />
<use xlink:href="#f3_9q" transform="matrix(11,0,0,11,572.9,755.9)" />
<use xlink:href="#f3_b5" transform="matrix(11,0,0,11,576.6,755.9)" />
<use xlink:href="#f3_77" transform="matrix(11,0,0,11,583.1,755.9)" />
<use xlink:href="#f3_nq" transform="matrix(11,0,0,11,592,755.9)" />
</g>
<g fill="#FFFFFF" >
<use xlink:href="#f3_nt" transform="matrix(11,0,0,11,596.1,755.9)" />
</g>
<g fill="#000000" >
<use xlink:href="#f3_5" transform="matrix(11,0,0,11,600.5,755.9)" />
<use xlink:href="#f3_7l" transform="matrix(11,0,0,11,610.4,755.9)" />
<use xlink:href="#f3_77" transform="matrix(11,0,0,11,617,755.9)" />
<use xlink:href="#f3_7l" transform="matrix(11,0,0,11,625.8,755.9)" />
<use xlink:href="#f3_9q" transform="matrix(11,0,0,11,632.8,755.9)" />
<use xlink:href="#f3_77" transform="matrix(11,0,0,11,636.4,755.9)" />
</g>
</g>
<image preserveAspectRatio="none" x="55" y="55" width="300" height="198" xlink:href="img/1.png" />
<image preserveAspectRatio="none" x="55" y="295" width="532" height="342" xlink:href="img/2.png" />
<image preserveAspectRatio="none" x="55" y="760" width="442" height="272" xlink:href="img/3.png" />
<g fill="#000000" >
<use xlink:href="#f4_l" transform="matrix(8,0,0,8,673.9,1121.9)" />
<use xlink:href="#f4_k" transform="matrix(8,0,0,8,680.7,1121.9)" />
</g>
<defs>
<path d="M321,-256c0,0,-13,0,-23,1c0,0,-10,0,-17,3c0,0,-7,2,-11,5c0,0,-5,3,-7,7c0,0,-40,76,-71,154c0,0,-31,78,-51,157c0,0,-21,81,-32,163c0,0,-10,83,-10,167c0,0,0,84,11,166c0,0,12,82,33,163c0,0,21,81,52,160c0,0,31,78,69,155c0,0,0,3,4,5c0,0,3,2,9,4c0,0,6,3,16,4c0,0,11,1,27,1c0,0,17,0,28,-2c0,0,10,-3,16,-6c0,0,6,-4,7,-10c0,0,1,-6,-2,-13c0,0,-71,-150,-106,-307c0,0,-34,-158,-34,-318c0,0,0,-160,35,-318c0,0,35,-156,103,-308c0,0,4,-9,4,-15c0,0,1,-6,-4,-10c0,0,-6,-4,-16,-6c0,0,-11,-2,-30,-2Z" 
id="f0_ov"
transform="scale(0.001,-0.001)" />

<path d="M128,0c0,0,-11,0,-19,3c0,0,-8,2,-13,8c0,0,-6,6,-8,17c0,0,-3,11,-3,28c0,0,0,15,1,26c0,0,1,11,5,20c0,0,4,8,9,17c0,0,6,8,15,18L302,336c0,0,65,68,104,123c0,0,39,54,61,99c0,0,21,45,28,81c0,0,6,37,6,69c0,0,0,32,-10,61c0,0,-11,29,-30,50c0,0,-20,22,-50,35c0,0,-30,12,-69,12c0,0,-45,0,-81,-12c0,0,-37,-13,-64,-28c0,0,-27,-15,-45,-27c0,0,-19,-13,-28,-13c0,0,-5,0,-9,3c0,0,-4,3,-7,10c0,0,-2,6,-4,18c0,0,-1,11,-1,26c0,0,0,12,0,20c0,0,1,8,3,14c0,0,2,6,5,11c0,0,3,5,12,13c0,0,9,8,31,21c0,0,22,14,55,27c0,0,33,13,73,22c0,0,40,9,84,9c0,0,70,0,123,-20c0,0,53,-20,87,-54c0,0,35,-34,52,-80c0,0,17,-46,17,-97c0,0,0,-46,-8,-92c0,0,-8,-46,-35,-99c0,0,-26,-54,-76,-119c0,0,-50,-65,-133,-151L240,109H660c0,0,6,0,12,-4c0,0,5,-3,9,-10c0,0,5,-7,6,-17c0,0,2,-10,2,-23c0,0,0,-13,-2,-24c0,0,-1,-10,-5,-17c0,0,-3,-7,-9,-11c0,0,-5,-3,-12,-3Z" 
id="f0_rz"
transform="scale(0.001,-0.001)" />

<path d="M142,-256c0,0,-19,0,-30,2c0,0,-11,2,-16,6c0,0,-5,4,-4,10c0,0,0,6,4,15c0,0,69,151,104,308c0,0,35,158,35,318c0,0,0,160,-35,318c0,0,-35,157,-106,307c0,0,-3,7,-2,13c0,0,1,6,7,10c0,0,6,3,16,6c0,0,11,2,28,2c0,0,16,0,26,-1c0,0,10,-1,17,-4c0,0,6,-2,9,-4c0,0,3,-2,5,-5c0,0,76,-153,120,-315c0,0,44,-161,44,-329c0,0,0,-84,-11,-167c0,0,-10,-82,-31,-163c0,0,-21,-79,-51,-157c0,0,-30,-78,-71,-154c0,0,-2,-4,-6,-7c0,0,-5,-3,-12,-5c0,0,-7,-3,-17,-3c0,0,-9,-1,-23,-1Z" 
id="f0_ow"
transform="scale(0.001,-0.001)" />

<path d="M192,-6c0,0,-45,0,-62,16c0,0,-18,18,-18,69c0,0,0,53,18,71c0,0,18,17,64,17c0,0,45,0,62,-17c0,0,17,-17,17,-69c0,0,0,-53,-18,-70c0,0,-17,-17,-63,-17Z" 
id="f0_nt"
transform="scale(0.001,-0.001)" />

<path d="M390,486c0,0,47,0,79,13c0,0,31,12,51,35c0,0,20,23,31,55c0,0,10,31,10,69c0,0,0,50,-18,83c0,0,-17,33,-44,49c0,0,-26,15,-54,19c0,0,-29,5,-59,5H302V486ZM203,-4c0,0,-28,0,-47,2c0,0,-19,2,-30,5c0,0,-11,4,-16,10c0,0,-4,6,-4,13V895c0,0,0,35,18,53c0,0,18,17,48,17H400c0,0,34,0,65,-3c0,0,31,-2,74,-11c0,0,43,-8,88,-31c0,0,44,-24,75,-59c0,0,32,-36,48,-83c0,0,17,-47,17,-106c0,0,0,-82,-26,-144c0,0,-25,-63,-74,-106c0,0,-48,-43,-118,-65c0,0,-71,-23,-166,-23H302V26c0,0,0,-7,-5,-13c0,0,-5,-6,-16,-10c0,0,-11,-3,-30,-5c0,0,-18,-2,-48,-2Z" 
id="f1_2g"
transform="scale(0.001,-0.001)" />

<path d="M188,-4c0,0,-28,0,-46,2c0,0,-18,2,-28,5c0,0,-11,3,-16,9c0,0,-4,5,-4,13v981c0,0,0,8,4,14c0,0,5,6,16,10c0,0,10,4,28,6c0,0,18,2,46,2c0,0,27,0,45,-2c0,0,18,-2,29,-6c0,0,11,-4,15,-10c0,0,5,-6,5,-14V639c0,0,48,47,98,71c0,0,51,23,105,23c0,0,68,0,115,-22c0,0,47,-22,75,-61c0,0,29,-39,42,-91c0,0,12,-52,12,-126V25c0,0,0,-8,-4,-13c0,0,-5,-6,-15,-9c0,0,-10,-3,-29,-5c0,0,-18,-2,-45,-2c0,0,-28,0,-46,2c0,0,-18,2,-29,5c0,0,-10,3,-15,9c0,0,-4,6,-4,13V405c0,0,0,49,-7,76c0,0,-7,28,-21,48c0,0,-13,19,-35,30c0,0,-21,11,-49,11c0,0,-36,0,-72,-26c0,0,-37,-26,-76,-76V25c0,0,0,-7,-5,-13c0,0,-4,-6,-15,-9c0,0,-11,-3,-29,-5c0,0,-18,-2,-45,-2Z" 
id="f1_9n"
transform="scale(0.001,-0.001)" />

<path d="M275,-270c0,0,-30,0,-47,3c0,0,-18,2,-27,8c0,0,-9,6,-10,15c0,0,-1,9,5,22L284,0c0,0,-9,4,-17,14c0,0,-8,9,-12,20L26,645c0,0,-10,26,-10,40c0,0,0,14,9,22c0,0,9,8,30,11c0,0,22,3,57,3c0,0,32,0,50,-1c0,0,19,-2,29,-6c0,0,11,-5,16,-14c0,0,5,-9,11,-26L375,228h2L521,683c0,0,4,19,11,25c0,0,7,7,24,10c0,0,16,3,57,3c0,0,32,0,53,-3c0,0,21,-3,31,-12c0,0,11,-8,11,-22c0,0,0,-13,-6,-32L480,0L399,-235c0,0,-7,-18,-37,-27c0,0,-29,-8,-87,-8Z" 
id="f1_co"
transform="scale(0.001,-0.001)" />

<path d="M188,-4c0,0,-28,0,-46,2c0,0,-18,2,-28,5c0,0,-11,3,-16,9c0,0,-4,5,-4,13v981c0,0,0,8,4,14c0,0,5,6,16,10c0,0,10,4,28,6c0,0,18,2,46,2c0,0,27,0,45,-2c0,0,18,-2,29,-6c0,0,11,-4,15,-10c0,0,5,-6,5,-14V25c0,0,0,-8,-5,-13c0,0,-4,-6,-15,-9c0,0,-11,-3,-29,-5c0,0,-18,-2,-45,-2Z" 
id="f1_a8"
transform="scale(0.001,-0.001)" />

<path d="M409,132c0,0,42,0,73,15c0,0,32,16,52,45c0,0,20,29,29,70c0,0,10,42,10,95c0,0,0,49,-8,91c0,0,-8,41,-26,72c0,0,-19,30,-50,48c0,0,-30,17,-77,17c0,0,-42,0,-73,-16c0,0,-31,-15,-51,-44c0,0,-21,-30,-31,-71c0,0,-10,-42,-10,-95c0,0,0,-49,9,-91c0,0,8,-41,26,-72c0,0,18,-30,49,-47c0,0,32,-17,78,-17ZM402,-17c0,0,-89,0,-154,24c0,0,-66,25,-109,72c0,0,-43,47,-64,115c0,0,-21,69,-21,157c0,0,0,85,23,156c0,0,22,70,68,121c0,0,45,50,113,78c0,0,69,27,160,27c0,0,90,0,155,-24c0,0,66,-24,109,-71c0,0,43,-47,64,-116c0,0,21,-69,21,-157c0,0,0,-86,-23,-156c0,0,-22,-70,-68,-121C676,88,631,38,562,10c0,0,-68,-27,-160,-27Z" 
id="f1_am"
transform="scale(0.001,-0.001)" />

<path d="M371,-16c0,0,-77,0,-136,23c0,0,-60,24,-100,71c0,0,-40,47,-61,114c0,0,-20,67,-20,154c0,0,0,100,25,173c0,0,25,72,69,120c0,0,45,48,106,71c0,0,62,23,135,23c0,0,29,0,58,-5c0,0,29,-5,54,-14c0,0,25,-9,45,-20c0,0,19,-12,28,-20c0,0,8,-8,11,-14c0,0,3,-5,5,-14c0,0,2,-9,3,-22c0,0,1,-13,1,-32c0,0,0,-43,-7,-61c0,0,-7,-18,-19,-18c0,0,-13,0,-27,11c0,0,-14,10,-34,23c0,0,-19,13,-46,23c0,0,-27,11,-64,11c0,0,-73,0,-112,-57c0,0,-39,-56,-39,-165c0,0,0,-54,10,-95c0,0,10,-41,29,-69c0,0,19,-28,47,-41c0,0,29,-14,67,-14c0,0,39,0,67,11c0,0,28,12,49,26c0,0,21,14,35,26c0,0,14,11,24,11c0,0,6,0,11,-4c0,0,4,-3,7,-13c0,0,2,-11,4,-26c0,0,1,-16,1,-41c0,0,0,-19,-1,-32c0,0,-1,-13,-3,-22c0,0,-2,-9,-4,-15c0,0,-3,-5,-12,-14c0,0,-9,-8,-30,-20C547,27,525,14,497,5c0,0,-27,-9,-60,-15c0,0,-32,-6,-66,-6Z" 
id="f1_7l"
transform="scale(0.001,-0.001)" />

<path d="M337,115c0,0,39,0,73,21c0,0,33,20,67,59V308H405c0,0,-45,0,-77,-7c0,0,-32,-6,-53,-20c0,0,-20,-13,-29,-32c0,0,-9,-19,-9,-44c0,0,0,-42,26,-66c0,0,27,-24,74,-24ZM296,-17c0,0,-53,0,-98,14c0,0,-44,13,-77,40c0,0,-32,28,-50,68c0,0,-18,40,-18,94c0,0,0,58,23,101c0,0,22,43,68,71c0,0,45,28,112,42c0,0,67,13,156,13h65v40c0,0,0,32,-6,55c0,0,-7,24,-21,39c0,0,-15,16,-39,23c0,0,-24,8,-60,8c0,0,-47,0,-84,-11c0,0,-37,-10,-66,-23c0,0,-28,-13,-47,-23c0,0,-19,-11,-31,-11c0,0,-9,0,-15,5c0,0,-6,6,-10,15c0,0,-5,10,-7,24c0,0,-2,14,-2,31c0,0,0,23,4,37c0,0,3,13,14,24c0,0,10,11,36,24c0,0,27,13,62,25c0,0,35,11,76,18c0,0,42,7,86,7c0,0,78,0,134,-15c0,0,55,-15,91,-47c0,0,36,-32,53,-82c0,0,16,-50,16,-118V23c0,0,0,-11,-7,-17c0,0,-8,-6,-24,-7c0,0,-16,-3,-47,-3c0,0,-34,0,-49,3c0,0,-15,1,-21,7c0,0,-7,6,-7,17V76C506,76,465,32,412,7c0,0,-52,-24,-116,-24Z" 
id="f1_77"
transform="scale(0.001,-0.001)" />

<path d="M380,142c0,0,19,0,37,5c0,0,19,6,38,19c0,0,19,12,39,33c0,0,20,20,44,50V470c0,0,-40,50,-77,77c0,0,-37,27,-77,27c0,0,-37,0,-63,-18c0,0,-27,-19,-43,-49c0,0,-16,-31,-24,-68c0,0,-8,-38,-8,-77c0,0,0,-42,7,-82c0,0,7,-39,22,-70c0,0,15,-31,41,-50c0,0,25,-18,64,-18ZM333,-17c0,0,-76,0,-129,29c0,0,-52,29,-85,79c0,0,-33,50,-48,117c0,0,-15,67,-15,141c0,0,0,89,19,160c0,0,19,71,55,121c0,0,37,50,91,76c0,0,55,27,125,27c0,0,56,0,102,-22c0,0,45,-23,90,-67v360c0,0,0,8,4,14c0,0,4,6,15,10c0,0,11,4,29,6c0,0,18,2,45,2c0,0,28,0,46,-2c0,0,18,-2,28,-6c0,0,11,-4,15,-10c0,0,5,-6,5,-14V25c0,0,0,-8,-4,-14c0,0,-4,-5,-13,-9c0,0,-9,-3,-24,-4c0,0,-15,-2,-38,-2c0,0,-24,0,-39,2c0,0,-15,1,-24,4c0,0,-9,4,-13,9c0,0,-5,6,-5,14V99C565,99,514,44,458,13c0,0,-57,-30,-125,-30Z" 
id="f1_7v"
transform="scale(0.001,-0.001)" />

<path d="M526,431c0,0,2,79,-32,124c0,0,-34,45,-105,45c0,0,-35,0,-62,-13c0,0,-26,-13,-44,-36c0,0,-17,-23,-27,-54c0,0,-9,-31,-11,-66ZM410,-17c0,0,-88,0,-155,22c0,0,-67,22,-112,68c0,0,-44,45,-66,115c0,0,-22,69,-22,162c0,0,0,89,23,161c0,0,23,71,67,120c0,0,44,50,107,76c0,0,63,26,142,26c0,0,84,0,143,-24c0,0,59,-25,97,-69c0,0,38,-43,56,-103c0,0,18,-60,18,-130V377c0,0,0,-34,-15,-51c0,0,-16,-16,-43,-16H245c0,0,0,-43,10,-77c0,0,11,-35,33,-59c0,0,22,-24,56,-37c0,0,35,-13,83,-13c0,0,50,0,87,7c0,0,37,8,65,16c0,0,27,9,45,16c0,0,18,7,29,7c0,0,6,0,11,-2c0,0,4,-3,7,-10c0,0,3,-7,4,-19c0,0,2,-12,2,-31c0,0,0,-16,-1,-28c0,0,-1,-12,-2,-20c0,0,-2,-8,-5,-14c0,0,-3,-5,-8,-10c0,0,-5,-6,-26,-15c0,0,-22,-9,-55,-17c0,0,-34,-8,-77,-14c0,0,-43,-7,-93,-7Z" 
id="f1_7z"
transform="scale(0.001,-0.001)" />

<path d="M204,-9c0,0,-63,0,-87,23c0,0,-24,23,-24,89c0,0,0,70,24,94c0,0,25,24,88,24c0,0,62,0,86,-24c0,0,24,-23,24,-90c0,0,0,-69,-24,-93c0,0,-25,-23,-87,-23Z" 
id="f1_nt"
transform="scale(0.001,-0.001)" />

<path d="M79,326c0,0,-14,0,-20,11c0,0,-7,12,-7,40c0,0,0,29,7,40c0,0,6,11,20,11H390c0,0,6,0,11,-2c0,0,5,-2,8,-9c0,0,4,-6,6,-16c0,0,2,-9,2,-24c0,0,0,-29,-7,-40c0,0,-7,-11,-20,-11Z" 
id="f0_oj"
transform="scale(0.001,-0.001)" />

<path d="M372,-4c0,0,-18,0,-30,2c0,0,-13,2,-21,3c0,0,-7,3,-10,8c0,0,-3,4,-3,10V857H36c0,0,-6,0,-11,3c0,0,-5,2,-8,9c0,0,-2,6,-4,17c0,0,-2,10,-2,24c0,0,0,14,2,25c0,0,2,11,4,17c0,0,3,7,8,10c0,0,5,3,11,3H708c0,0,6,0,11,-3c0,0,5,-3,8,-10c0,0,4,-6,5,-17c0,0,2,-11,2,-25c0,0,0,-14,-2,-24c0,0,-1,-11,-5,-17c0,0,-3,-7,-8,-9c0,0,-5,-3,-11,-3H436V19c0,0,0,-6,-3,-10c0,0,-3,-5,-10,-8c0,0,-8,-1,-20,-3c0,0,-12,-2,-31,-2Z" 
id="f0_2t"
transform="scale(0.001,-0.001)" />

<path d="M176,-4c0,0,-18,0,-30,2c0,0,-12,1,-19,3c0,0,-7,3,-10,7c0,0,-3,4,-3,10v997c0,0,0,6,3,11c0,0,3,4,10,7c0,0,7,3,19,5c0,0,12,1,30,1c0,0,18,0,30,-1c0,0,12,-2,19,-5c0,0,7,-3,9,-7c0,0,3,-5,3,-10V614c0,0,53,56,107,83c0,0,54,28,108,28c0,0,67,0,113,-23c0,0,46,-23,74,-61c0,0,29,-38,41,-89c0,0,12,-52,12,-124V18c0,0,0,-6,-3,-10c0,0,-3,-4,-9,-7c0,0,-7,-2,-19,-3c0,0,-12,-2,-30,-2c0,0,-19,0,-30,2c0,0,-12,1,-19,3c0,0,-7,3,-10,7c0,0,-3,4,-3,10V412c0,0,0,58,-9,93c0,0,-9,35,-26,61c0,0,-17,25,-44,38c0,0,-27,14,-63,14c0,0,-46,0,-93,-33c0,0,-46,-33,-97,-96V18c0,0,0,-6,-3,-10c0,0,-2,-4,-9,-7c0,0,-7,-2,-19,-3c0,0,-12,-2,-30,-2Z" 
id="f0_9n"
transform="scale(0.001,-0.001)" />

<path d="M564,420c0,0,2,98,-43,153c0,0,-46,56,-134,56c0,0,-46,0,-80,-18c0,0,-35,-17,-58,-45c0,0,-23,-29,-36,-67c0,0,-12,-37,-14,-79ZM405,-13c0,0,-83,0,-145,22c0,0,-62,24,-105,69c0,0,-42,46,-64,114c0,0,-22,69,-22,160c0,0,0,87,23,156c0,0,22,69,64,117c0,0,43,48,102,74c0,0,60,26,134,26c0,0,79,0,135,-26c0,0,55,-25,91,-68c0,0,36,-43,53,-101c0,0,16,-58,16,-123V384c0,0,0,-29,-14,-41c0,0,-15,-13,-33,-13H199c0,0,0,-56,11,-100c0,0,12,-45,38,-77c0,0,26,-33,68,-50c0,0,41,-17,102,-17c0,0,48,0,85,8c0,0,37,8,65,17c0,0,27,10,44,18c0,0,18,8,27,8c0,0,5,0,9,-3c0,0,4,-2,7,-8c0,0,2,-5,3,-14c0,0,1,-9,1,-23c0,0,0,-9,-1,-16c0,0,0,-8,-2,-13c0,0,-1,-6,-3,-10c0,0,-3,-5,-7,-9c0,0,-4,-4,-24,-13c0,0,-20,-10,-53,-18c0,0,-32,-9,-74,-16c0,0,-42,-7,-90,-7Z" 
id="f0_7z"
transform="scale(0.001,-0.001)" />

<path d="M272,-13c0,0,-35,0,-68,6c0,0,-32,6,-58,13c0,0,-26,9,-44,18c0,0,-17,10,-26,17c0,0,-8,8,-12,21c0,0,-3,14,-3,37c0,0,0,14,1,24c0,0,2,9,4,15c0,0,2,6,6,9c0,0,4,3,10,3c0,0,8,0,24,-11c0,0,16,-10,39,-22c0,0,24,-12,56,-22c0,0,32,-10,74,-10c0,0,31,0,56,7c0,0,26,6,44,19c0,0,19,14,29,34c0,0,10,20,10,47c0,0,0,29,-14,48c0,0,-15,19,-39,34c0,0,-24,15,-53,27c0,0,-30,11,-62,24c0,0,-32,13,-62,29c0,0,-30,16,-54,39c0,0,-24,23,-38,55c0,0,-15,32,-15,77c0,0,0,40,16,76c0,0,15,36,45,63c0,0,31,28,77,44c0,0,46,17,107,17c0,0,27,0,54,-5c0,0,26,-5,48,-11c0,0,22,-7,37,-15c0,0,15,-8,23,-14c0,0,8,-6,11,-11c0,0,2,-4,3,-10c0,0,1,-5,2,-14c0,0,2,-8,2,-20c0,0,0,-12,-2,-22c0,0,-1,-9,-3,-15c0,0,-3,-6,-7,-8c0,0,-3,-3,-8,-3c0,0,-7,0,-19,8c0,0,-13,8,-33,18c0,0,-20,9,-47,17c0,0,-28,9,-63,9c0,0,-31,0,-55,-7c0,0,-24,-7,-39,-20c0,0,-15,-13,-23,-31c0,0,-8,-18,-8,-39c0,0,0,-29,15,-49c0,0,15,-20,39,-35c0,0,24,-15,54,-27c0,0,31,-11,62,-24c0,0,32,-13,63,-29c0,0,31,-15,55,-38c0,0,24,-22,38,-53c0,0,15,-32,15,-75c0,0,0,-51,-19,-92c0,0,-19,-40,-54,-68C463,42,428,15,379,1c0,0,-48,-14,-107,-14Z" 
id="f0_b5"
transform="scale(0.001,-0.001)" />

<path d="M339,-13c0,0,-52,0,-90,13c0,0,-37,14,-61,42c0,0,-24,28,-34,71c0,0,-11,43,-11,101V607H49c0,0,-11,0,-18,12c0,0,-7,12,-7,39c0,0,0,14,2,24c0,0,2,10,5,16c0,0,3,7,8,9c0,0,5,3,11,3h93V870c0,0,0,5,2,9c0,0,3,5,10,8c0,0,7,4,19,5c0,0,12,2,30,2c0,0,19,0,31,-2c0,0,11,-1,18,-5c0,0,7,-3,10,-8c0,0,3,-4,3,-9V710H438c0,0,6,0,10,-3c0,0,5,-2,8,-9c0,0,4,-6,5,-16c0,0,1,-10,1,-24c0,0,0,-27,-6,-39c0,0,-7,-12,-18,-12H266V232c0,0,0,-69,20,-105c0,0,21,-35,74,-35c0,0,17,0,30,3c0,0,14,4,24,7c0,0,10,4,18,7c0,0,7,4,13,4c0,0,4,0,7,-2c0,0,4,-2,6,-7c0,0,2,-5,3,-14c0,0,1,-9,1,-23c0,0,0,-22,-2,-34c0,0,-3,-13,-9,-19c0,0,-6,-6,-18,-11c0,0,-12,-4,-28,-8c0,0,-15,-3,-32,-5c0,0,-17,-3,-34,-3Z" 
id="f0_bf"
transform="scale(0.001,-0.001)" />

<path d="M176,-4c0,0,-18,0,-30,2c0,0,-12,1,-19,3c0,0,-7,3,-10,7c0,0,-3,4,-3,10V690c0,0,0,6,3,10c0,0,2,4,9,7c0,0,6,4,17,5c0,0,10,1,27,1c0,0,17,0,28,-1c0,0,10,-1,16,-5c0,0,6,-3,9,-7c0,0,3,-4,3,-10V601c0,0,56,64,110,94c0,0,53,30,108,30c0,0,42,0,75,-10c0,0,33,-10,58,-28c0,0,26,-17,44,-42c0,0,18,-24,30,-55c0,0,33,37,63,63c0,0,31,26,59,41c0,0,28,16,54,23c0,0,27,8,53,8c0,0,65,0,109,-23c0,0,44,-23,71,-61c0,0,28,-38,39,-89c0,0,12,-52,12,-108V18c0,0,0,-6,-3,-10c0,0,-3,-4,-10,-7c0,0,-7,-2,-19,-3c0,0,-12,-2,-29,-2c0,0,-19,0,-31,2c0,0,-12,1,-19,3c0,0,-7,3,-10,7c0,0,-3,4,-3,10V427c0,0,0,43,-8,78c0,0,-7,35,-23,61c0,0,-17,25,-42,38c0,0,-25,14,-60,14c0,0,-42,0,-85,-33c0,0,-43,-33,-94,-96V18c0,0,0,-6,-3,-10c0,0,-3,-4,-11,-7c0,0,-7,-2,-19,-3c0,0,-11,-2,-29,-2c0,0,-18,0,-30,2c0,0,-12,1,-19,3c0,0,-7,3,-10,7c0,0,-3,4,-3,10V427c0,0,0,43,-8,78c0,0,-8,35,-24,61c0,0,-17,25,-42,38c0,0,-25,14,-59,14c0,0,-43,0,-86,-33c0,0,-44,-33,-95,-96V18c0,0,0,-6,-3,-10c0,0,-2,-4,-9,-7c0,0,-7,-2,-19,-3c0,0,-12,-2,-30,-2Z" 
id="f0_ae"
transform="scale(0.001,-0.001)" />

<path d="M176,-4c0,0,-18,0,-30,2c0,0,-12,1,-19,3c0,0,-7,3,-10,7c0,0,-3,4,-3,10V690c0,0,0,5,3,9c0,0,3,5,10,8c0,0,7,3,19,4c0,0,12,2,30,2c0,0,18,0,30,-2c0,0,12,-1,19,-4c0,0,7,-3,9,-8c0,0,3,-4,3,-9V18c0,0,0,-6,-3,-10c0,0,-2,-4,-9,-7c0,0,-7,-2,-19,-3c0,0,-12,-2,-30,-2Zm-1,846c0,0,-43,0,-59,15c0,0,-16,15,-16,58c0,0,0,43,16,59c0,0,17,16,61,16c0,0,43,0,59,-16c0,0,16,-15,16,-58c0,0,0,-43,-16,-58c0,0,-17,-16,-61,-16Z" 
id="f0_9q"
transform="scale(0.001,-0.001)" />

<path d="M401,90c0,0,54,0,93,19c0,0,40,20,65,55c0,0,26,35,37,84c0,0,12,48,12,106c0,0,0,55,-10,104c0,0,-10,48,-33,85c0,0,-23,36,-62,58c0,0,-40,21,-99,21c0,0,-54,0,-93,-20c0,0,-39,-19,-65,-54c0,0,-25,-36,-37,-85c0,0,-12,-48,-12,-106c0,0,0,-55,10,-103c0,0,10,-49,33,-85c0,0,24,-36,63,-58c0,0,39,-21,98,-21ZM395,-13c0,0,-82,0,-144,24c0,0,-61,25,-102,72c0,0,-41,47,-61,114c0,0,-21,67,-21,152c0,0,0,82,22,151c0,0,21,69,64,119c0,0,43,50,107,78c0,0,64,28,150,28c0,0,82,0,144,-25c0,0,61,-25,102,-72c0,0,41,-47,62,-114c0,0,20,-67,20,-151c0,0,0,-83,-21,-152c0,0,-22,-69,-65,-119C652,92,609,42,545,14c0,0,-65,-27,-150,-27Z" 
id="f0_am"
transform="scale(0.001,-0.001)" />

<path d="M366,92c0,0,25,0,48,7c0,0,22,6,46,22c0,0,24,16,50,41c0,0,26,24,56,61V492c0,0,-51,62,-97,94c0,0,-47,33,-98,33c0,0,-47,0,-79,-22c0,0,-33,-23,-54,-59c0,0,-20,-37,-30,-83c0,0,-9,-47,-9,-94c0,0,0,-51,8,-100c0,0,8,-48,27,-86c0,0,19,-38,52,-60c0,0,32,-23,80,-23ZM345,-13c0,0,-74,0,-127,28c0,0,-52,29,-84,78c0,0,-33,49,-48,115c0,0,-15,66,-15,139c0,0,0,86,19,156c0,0,19,70,55,119c0,0,37,50,91,76c0,0,54,27,125,27c0,0,59,0,108,-26c0,0,49,-26,97,-76v390c0,0,0,5,2,10c0,0,3,4,10,7c0,0,8,3,19,5c0,0,12,1,30,1c0,0,18,0,30,-1c0,0,12,-2,19,-5c0,0,7,-3,10,-7c0,0,3,-5,3,-10V18c0,0,0,-6,-2,-10c0,0,-3,-5,-9,-7c0,0,-7,-2,-17,-3c0,0,-10,-2,-25,-2c0,0,-16,0,-26,2c0,0,-11,1,-18,3c0,0,-6,2,-9,7c0,0,-3,4,-3,10v90c0,0,-53,-58,-110,-90c0,0,-58,-31,-125,-31Z" 
id="f0_7v"
transform="scale(0.001,-0.001)" />

<path d="M209,-4c0,0,-18,0,-30,2c0,0,-12,1,-19,3c0,0,-7,3,-10,7c0,0,-3,4,-3,10V607H52c0,0,-12,0,-18,12c0,0,-6,12,-6,39c0,0,0,14,2,24c0,0,1,10,4,16c0,0,3,7,8,9c0,0,4,3,10,3h95v69c0,0,0,71,13,121c0,0,13,50,40,82c0,0,27,33,67,48c0,0,41,15,96,15c0,0,26,0,51,-5c0,0,25,-4,38,-10c0,0,13,-6,18,-10c0,0,4,-5,7,-12c0,0,3,-7,5,-17c0,0,1,-10,1,-24c0,0,0,-15,-2,-23c0,0,-1,-9,-3,-14c0,0,-2,-5,-5,-7c0,0,-3,-2,-8,-2c0,0,-5,0,-13,3c0,0,-7,4,-19,8c0,0,-11,4,-26,7c0,0,-15,4,-36,4c0,0,-27,0,-47,-9c0,0,-19,-9,-31,-28c0,0,-12,-19,-17,-50c0,0,-5,-30,-5,-73V710H421c0,0,6,0,10,-3c0,0,4,-2,7,-9c0,0,4,-6,6,-16c0,0,2,-10,2,-24c0,0,0,-27,-7,-39c0,0,-7,-12,-18,-12H271V18c0,0,0,-6,-3,-10c0,0,-3,-4,-11,-7c0,0,-7,-2,-19,-3c0,0,-12,-2,-29,-2Z" 
id="f0_89"
transform="scale(0.001,-0.001)" />

<path d="M176,-4c0,0,-18,0,-30,2c0,0,-12,1,-19,3c0,0,-7,3,-10,7c0,0,-3,4,-3,10V690c0,0,0,6,3,10c0,0,2,4,9,7c0,0,6,4,17,5c0,0,10,1,27,1c0,0,17,0,28,-1c0,0,10,-1,16,-5c0,0,6,-3,9,-7c0,0,3,-4,3,-10V601c0,0,56,64,112,94c0,0,57,30,114,30c0,0,67,0,113,-23c0,0,46,-23,74,-61c0,0,29,-38,41,-89c0,0,12,-52,12,-123V18c0,0,0,-6,-3,-10c0,0,-3,-4,-9,-7c0,0,-7,-2,-19,-3c0,0,-12,-2,-30,-2c0,0,-19,0,-30,2c0,0,-12,1,-19,3c0,0,-7,3,-10,7c0,0,-3,4,-3,10V412c0,0,0,58,-9,93c0,0,-9,35,-26,61c0,0,-17,25,-44,38c0,0,-27,14,-63,14c0,0,-46,0,-93,-33c0,0,-46,-33,-97,-96V18c0,0,0,-6,-3,-10c0,0,-2,-4,-9,-7c0,0,-7,-2,-19,-3c0,0,-12,-2,-30,-2Z" 
id="f0_af"
transform="scale(0.001,-0.001)" />

<path d="M321,82c0,0,48,0,90,25c0,0,41,24,87,75V325H392c0,0,-50,0,-88,-9c0,0,-37,-9,-62,-25c0,0,-24,-17,-36,-41c0,0,-11,-23,-11,-54c0,0,0,-52,33,-83c0,0,33,-31,93,-31ZM301,-13c0,0,-53,0,-96,13c0,0,-43,14,-73,40c0,0,-30,26,-47,64c0,0,-17,38,-17,87c0,0,0,56,24,98c0,0,23,42,66,69c0,0,43,28,106,42c0,0,63,14,141,14h93v52c0,0,0,39,-9,69c0,0,-8,30,-26,50c0,0,-18,20,-47,30c0,0,-30,10,-72,10c0,0,-46,0,-82,-11c0,0,-36,-11,-63,-24c0,0,-27,-13,-46,-24c0,0,-18,-11,-27,-11c0,0,-6,0,-10,3c0,0,-5,3,-8,9c0,0,-3,6,-5,16c0,0,-1,9,-1,20c0,0,0,19,2,30c0,0,3,11,13,20c0,0,10,10,35,23c0,0,24,13,56,24c0,0,32,10,70,17c0,0,38,8,77,8c0,0,73,0,123,-17c0,0,51,-16,82,-48c0,0,32,-32,46,-79c0,0,14,-47,14,-110V18c0,0,0,-9,-6,-14c0,0,-6,-4,-16,-6c0,0,-11,-2,-31,-2c0,0,-19,0,-31,2c0,0,-12,2,-17,6c0,0,-5,5,-5,13V85c0,0,-44,-47,-98,-73c0,0,-54,-25,-115,-25Z" 
id="f0_77"
transform="scale(0.001,-0.001)" />

<path d="M176,-4c0,0,-18,0,-30,2c0,0,-12,1,-19,3c0,0,-7,3,-10,7c0,0,-3,4,-3,10v997c0,0,0,6,3,11c0,0,3,4,10,7c0,0,7,3,19,5c0,0,12,1,30,1c0,0,18,0,30,-1c0,0,12,-2,19,-5c0,0,7,-3,9,-7c0,0,3,-5,3,-11V18c0,0,0,-6,-3,-10c0,0,-2,-4,-9,-7c0,0,-7,-2,-19,-3c0,0,-12,-2,-30,-2Z" 
id="f0_a8"
transform="scale(0.001,-0.001)" />

<path d="M69,-215c0,0,-12,0,-21,1c0,0,-8,1,-12,4c0,0,-4,2,-4,7c0,0,-1,4,2,10L134,11v96c0,0,0,20,4,32c0,0,4,12,13,18c0,0,9,6,22,8c0,0,13,2,33,2c0,0,19,0,32,-2c0,0,13,-2,22,-8c0,0,9,-6,13,-18c0,0,4,-12,4,-32c0,0,0,-23,-2,-43c0,0,-3,-19,-8,-36c0,0,-5,-17,-14,-33c0,0,-8,-17,-21,-36L130,-194c0,0,-4,-5,-9,-9c0,0,-5,-4,-12,-7c0,0,-7,-3,-16,-4c0,0,-9,-1,-24,-1Z" 
id="f0_nq"
transform="scale(0.001,-0.001)" />

<path d="M252,-271c0,0,-19,0,-31,2c0,0,-12,2,-18,6c0,0,-7,5,-8,12c0,0,0,8,4,18L292,0c0,0,-7,3,-13,10c0,0,-6,6,-8,14L31,665c0,0,-6,16,-6,25c0,0,0,9,6,14c0,0,6,5,20,7c0,0,13,2,36,2c0,0,22,0,35,-1c0,0,12,-1,20,-4c0,0,7,-3,11,-9c0,0,3,-6,7,-15L351,145h3L539,687c0,0,4,14,10,18c0,0,7,4,19,6c0,0,13,2,37,2c0,0,21,0,34,-2c0,0,14,-2,20,-7c0,0,6,-5,6,-14c0,0,0,-9,-4,-23L420,0L330,-246c0,0,-4,-12,-22,-18c0,0,-19,-7,-56,-7Z" 
id="f0_co"
transform="scale(0.001,-0.001)" />

<path d="M346,-177c0,0,56,0,94,11c0,0,37,11,60,28c0,0,24,18,34,41c0,0,10,23,10,49c0,0,0,43,-36,65c0,0,-35,23,-95,25L239,48c0,0,-24,-19,-39,-35c0,0,-15,-16,-24,-31c0,0,-9,-16,-12,-30c0,0,-4,-15,-4,-31c0,0,0,-48,49,-73c0,0,50,-25,137,-25Zm-6,512c0,0,36,0,63,12c0,0,27,12,44,32c0,0,18,21,26,48c0,0,9,27,9,56c0,0,0,69,-38,107c0,0,-37,39,-107,39c0,0,-35,0,-62,-12c0,0,-26,-12,-44,-33c0,0,-17,-21,-26,-48c0,0,-8,-28,-8,-58c0,0,0,-66,37,-104c0,0,38,-39,106,-39Zm0,-606c0,0,-81,0,-138,14c0,0,-57,14,-94,38c0,0,-36,24,-52,57c0,0,-17,33,-17,72c0,0,0,24,6,47c0,0,6,24,18,43c0,0,13,21,31,40c0,0,18,19,42,38c0,0,-36,19,-54,47c0,0,-17,28,-17,61c0,0,0,45,18,81c0,0,19,36,46,64c0,0,-23,28,-36,62c0,0,-14,35,-14,84c0,0,0,58,20,104c0,0,19,45,53,77c0,0,35,31,83,48c0,0,48,17,105,17c0,0,30,0,57,-4c0,0,26,-3,49,-9H649c0,0,13,0,19,-12c0,0,7,-13,7,-38c0,0,0,-26,-7,-37c0,0,-7,-12,-19,-12H553c0,0,26,-27,37,-60c0,0,10,-32,10,-68c0,0,0,-58,-18,-103c0,0,-19,-45,-54,-76c0,0,-34,-31,-82,-47c0,0,-48,-16,-106,-16c0,0,-41,0,-78,10c0,0,-37,11,-57,28c0,0,-14,-14,-22,-31c0,0,-9,-17,-9,-39c0,0,0,-27,24,-44c0,0,25,-17,65,-18l175,-8c0,0,50,-1,92,-14c0,0,41,-12,72,-35c0,0,31,-22,48,-55c0,0,17,-34,17,-76c0,0,0,-47,-20,-88c0,0,-19,-42,-59,-74c0,0,-40,-31,-102,-50c0,0,-61,-18,-146,-18Z" 
id="f0_9d"
transform="scale(0.001,-0.001)" />

<path d="M176,-4c0,0,-18,0,-30,2c0,0,-12,1,-19,3c0,0,-7,3,-10,7c0,0,-3,4,-3,10V690c0,0,0,6,3,10c0,0,2,4,9,7c0,0,6,4,17,5c0,0,10,1,27,1c0,0,17,0,28,-1c0,0,10,-1,16,-5c0,0,6,-3,9,-7c0,0,3,-4,3,-10V592c0,0,27,41,51,66c0,0,25,26,46,41c0,0,22,14,43,20c0,0,21,6,43,6c0,0,10,0,22,-2c0,0,12,-1,26,-4c0,0,13,-3,24,-6c0,0,11,-4,15,-8c0,0,5,-4,6,-7c0,0,2,-3,3,-9c0,0,1,-5,1,-15c0,0,0,-10,0,-27c0,0,0,-16,0,-28c0,0,-1,-11,-3,-17c0,0,-2,-6,-6,-10c0,0,-3,-3,-9,-3c0,0,-6,0,-15,3c0,0,-8,4,-19,7c0,0,-11,3,-24,6c0,0,-14,3,-29,3c0,0,-19,0,-37,-7c0,0,-18,-8,-37,-25c0,0,-20,-18,-42,-46c0,0,-21,-29,-48,-70V18c0,0,0,-6,-3,-10c0,0,-2,-4,-9,-7c0,0,-7,-2,-19,-3c0,0,-12,-2,-30,-2Z" 
id="f0_b1"
transform="scale(0.001,-0.001)" />

<path d="M176,-4c0,0,-18,0,-30,2c0,0,-12,1,-19,3c0,0,-7,3,-10,7c0,0,-3,4,-3,10v997c0,0,0,6,3,11c0,0,3,4,10,7c0,0,7,3,19,5c0,0,12,1,30,1c0,0,18,0,30,-1c0,0,12,-2,19,-5c0,0,7,-3,9,-7c0,0,3,-5,3,-11V408L492,687c0,0,6,7,12,12c0,0,7,5,16,8c0,0,10,4,22,5c0,0,13,1,31,1c0,0,19,0,31,-1c0,0,13,-1,21,-4c0,0,8,-3,11,-7c0,0,3,-4,3,-11c0,0,0,-9,-4,-18c0,0,-5,-8,-16,-20L375,408L648,54c0,0,10,-13,14,-20c0,0,4,-8,4,-15c0,0,0,-6,-3,-10c0,0,-3,-5,-10,-8c0,0,-7,-2,-20,-3c0,0,-13,-2,-32,-2c0,0,-20,0,-33,1c0,0,-13,1,-22,3c0,0,-9,3,-15,7c0,0,-5,5,-10,12L237,391V18c0,0,0,-6,-3,-10c0,0,-2,-4,-9,-7c0,0,-7,-2,-19,-3c0,0,-12,-2,-30,-2Z" 
id="f0_a5"
transform="scale(0.001,-0.001)" />

<path d="M351,-13c0,0,-67,0,-113,22c0,0,-46,22,-75,60c0,0,-28,39,-40,90c0,0,-13,51,-13,124V690c0,0,0,6,3,10c0,0,3,4,10,7c0,0,8,4,20,5c0,0,11,1,29,1c0,0,18,0,30,-1c0,0,12,-1,19,-5c0,0,7,-3,10,-7c0,0,3,-4,3,-10V299c0,0,0,-59,9,-94c0,0,8,-36,26,-61c0,0,18,-24,44,-38c0,0,27,-14,63,-14c0,0,46,0,92,33c0,0,46,32,98,95V690c0,0,0,6,2,10c0,0,3,4,10,7c0,0,8,4,19,5c0,0,12,1,30,1c0,0,18,0,30,-1c0,0,12,-1,19,-5c0,0,7,-3,10,-7c0,0,3,-4,3,-10V18c0,0,0,-6,-2,-10c0,0,-3,-4,-10,-7c0,0,-6,-2,-17,-3c0,0,-11,-2,-27,-2c0,0,-17,0,-28,2c0,0,-10,1,-17,3c0,0,-6,3,-8,7c0,0,-3,4,-3,10v89c0,0,-57,-63,-113,-92c0,0,-56,-28,-113,-28Z" 
id="f0_c6"
transform="scale(0.001,-0.001)" />

<path d="M367,-13c0,0,-73,0,-129,23c0,0,-56,24,-93,70c0,0,-38,46,-58,112c0,0,-20,67,-20,154c0,0,0,99,25,171c0,0,24,71,66,116c0,0,42,46,99,68c0,0,58,22,124,22c0,0,32,0,62,-6c0,0,31,-6,56,-16c0,0,25,-10,45,-22c0,0,20,-13,29,-22c0,0,9,-9,12,-14c0,0,3,-5,6,-13c0,0,2,-7,3,-16c0,0,0,-9,0,-22c0,0,0,-29,-6,-41c0,0,-7,-11,-17,-11c0,0,-11,0,-25,12c0,0,-15,12,-37,27c0,0,-23,15,-55,28c0,0,-31,12,-75,12c0,0,-88,0,-136,-68c0,0,-47,-68,-47,-198c0,0,0,-65,12,-114c0,0,12,-49,36,-81c0,0,24,-33,59,-49c0,0,35,-16,79,-16c0,0,43,0,75,13c0,0,32,14,56,30c0,0,23,16,39,29c0,0,16,13,25,13c0,0,5,0,9,-3c0,0,4,-3,7,-10c0,0,2,-7,3,-18c0,0,1,-11,1,-26c0,0,0,-12,0,-22c0,0,-1,-9,-3,-15c0,0,-2,-7,-4,-12c0,0,-3,-4,-12,-14c0,0,-10,-9,-32,-23c0,0,-22,-14,-50,-24C496,11,468,0,435,-6c0,0,-33,-7,-68,-7Z" 
id="f0_7l"
transform="scale(0.001,-0.001)" />

<path d="M429,92c0,0,47,0,80,22c0,0,33,23,54,60c0,0,20,38,30,84c0,0,10,46,10,93c0,0,0,52,-8,100c0,0,-8,48,-27,86c0,0,-19,37,-51,60c0,0,-32,22,-80,22c0,0,-24,0,-47,-7c0,0,-23,-7,-47,-23c0,0,-24,-15,-50,-40c0,0,-26,-25,-56,-62V220c0,0,51,-62,97,-95c0,0,45,-33,95,-33ZM176,-271c0,0,-18,0,-30,2c0,0,-12,1,-19,4c0,0,-7,3,-10,8c0,0,-3,4,-3,10V690c0,0,0,6,3,10c0,0,2,5,9,8c0,0,6,3,17,4c0,0,10,1,25,1c0,0,16,0,26,-1c0,0,10,-1,17,-4c0,0,6,-3,9,-7c0,0,3,-4,3,-11V601c0,0,30,31,59,54c0,0,28,23,57,39c0,0,28,15,59,23c0,0,30,8,63,8c0,0,74,0,125,-29c0,0,52,-28,84,-77c0,0,32,-50,47,-115c0,0,15,-65,15,-139c0,0,0,-88,-19,-158c0,0,-19,-70,-56,-119c0,0,-37,-49,-91,-75c0,0,-55,-26,-125,-26c0,0,-30,0,-55,6c0,0,-25,6,-50,18c0,0,-24,13,-48,32c0,0,-24,19,-51,46V-247c0,0,0,-6,-3,-10c0,0,-2,-5,-9,-8c0,0,-7,-3,-19,-4c0,0,-12,-2,-30,-2Z" 
id="f0_ay"
transform="scale(0.001,-0.001)" />

<path d="M346,-4c0,0,-23,0,-38,2c0,0,-15,1,-24,3c0,0,-9,3,-15,8c0,0,-5,6,-8,13L33,660c0,0,-3,9,-5,15c0,0,-2,7,-2,11c0,0,0,3,0,5c0,0,0,6,3,11c0,0,3,4,10,7c0,0,7,2,18,3c0,0,12,1,29,1c0,0,22,0,35,-1c0,0,13,-1,20,-4c0,0,7,-3,10,-8c0,0,4,-4,7,-11L347,135l3,-9l2,9L540,689c0,0,1,7,5,11c0,0,3,5,11,8c0,0,7,3,19,4c0,0,12,1,32,1c0,0,18,0,29,-1c0,0,11,-1,17,-4c0,0,7,-3,9,-7c0,0,3,-4,3,-10c0,0,0,-3,-1,-6c0,0,0,-4,-1,-7c0,0,0,-4,-2,-8c0,0,-1,-5,-2,-10L430,22c0,0,-3,-8,-8,-13c0,0,-5,-6,-15,-9c0,0,-9,-2,-24,-3c0,0,-15,-1,-37,-1Z" 
id="f0_ch"
transform="scale(0.001,-0.001)" />

<path d="M176,0c0,0,-17,0,-33,12c0,0,-15,11,-15,40V913c0,0,0,29,15,41c0,0,16,11,33,11H635c0,0,6,0,10,-3c0,0,5,-3,8,-10c0,0,3,-6,5,-16c0,0,2,-10,2,-25c0,0,0,-14,-2,-24c0,0,-2,-10,-5,-16c0,0,-3,-7,-8,-10c0,0,-4,-2,-10,-2H256V555H581c0,0,6,0,11,-3c0,0,5,-3,8,-9c0,0,3,-6,5,-17c0,0,1,-10,1,-24c0,0,0,-14,-1,-23c0,0,-2,-10,-5,-16c0,0,-3,-6,-8,-9c0,0,-5,-2,-11,-2H256V107H640c0,0,6,0,11,-3c0,0,4,-3,8,-10c0,0,4,-6,5,-16c0,0,2,-10,2,-25c0,0,0,-14,-2,-24c0,0,-1,-10,-5,-16c0,0,-4,-7,-8,-10c0,0,-5,-3,-11,-3Z" 
id="f0_t"
transform="scale(0.001,-0.001)" />

<path d="M469,145c0,0,64,0,114,24c0,0,49,25,85,65c0,0,36,40,61,91c0,0,24,52,39,105c0,0,15,53,22,103c0,0,6,51,6,91c0,0,0,45,-10,82c0,0,-10,37,-33,62c0,0,-22,26,-58,40c0,0,-36,13,-89,13c0,0,-65,0,-114,-25c0,0,-49,-25,-86,-65c0,0,-36,-40,-61,-92c0,0,-25,-52,-40,-105c0,0,-15,-54,-21,-104c0,0,-6,-51,-6,-89c0,0,0,-46,10,-83c0,0,10,-36,33,-61c0,0,23,-25,59,-39c0,0,36,-13,89,-13ZM442,-17c0,0,-90,0,-159,20c0,0,-69,20,-117,62c0,0,-47,41,-71,105c0,0,-25,63,-25,149c0,0,0,70,13,147c0,0,12,76,39,150c0,0,28,73,72,140c0,0,44,66,106,117c0,0,62,51,144,80c0,0,83,30,189,30c0,0,90,0,159,-21c0,0,69,-20,116,-63c0,0,47,-42,71,-106c0,0,24,-64,24,-151c0,0,0,-65,-12,-140c0,0,-12,-75,-38,-148c0,0,-27,-74,-70,-141c0,0,-43,-67,-105,-118C778,95,716,44,633,13c0,0,-84,-30,-191,-30Z" 
id="f2_24"
transform="scale(0.001,-0.001)" />

<path d="M387,142c0,0,31,0,56,15c0,0,26,15,46,40c0,0,21,25,36,57c0,0,15,33,25,69c0,0,10,36,15,72c0,0,5,36,5,68c0,0,0,25,-4,46c0,0,-4,21,-13,36c0,0,-10,14,-24,22c0,0,-15,7,-35,7c0,0,-34,0,-68,-20c0,0,-34,-20,-64,-53c0,0,-29,-34,-53,-79c0,0,-23,-46,-32,-97L256,223c0,0,26,-40,58,-61c0,0,31,-20,73,-20ZM63,-270c0,0,-27,0,-45,2c0,0,-17,3,-26,7c0,0,-10,4,-13,10c0,0,-3,6,-1,13L163,692c0,0,3,15,23,22c0,0,21,7,67,7c0,0,23,0,38,-2c0,0,14,-2,23,-5c0,0,8,-4,11,-9c0,0,3,-6,2,-13L306,583c0,0,11,25,35,51c0,0,24,27,58,49c0,0,34,22,75,36c0,0,41,14,84,14c0,0,57,0,96,-19c0,0,40,-20,64,-55c0,0,24,-34,35,-80c0,0,11,-46,11,-99c0,0,0,-49,-9,-105c0,0,-9,-56,-28,-111c0,0,-19,-55,-48,-107c0,0,-29,-51,-69,-90C610,67,569,29,516,6c0,0,-52,-23,-118,-23c0,0,-30,0,-56,6c0,0,-26,6,-48,16c0,0,-22,11,-40,26c0,0,-18,14,-31,31L164,-238c0,0,-2,-7,-7,-13c0,0,-6,-6,-17,-10c0,0,-12,-4,-31,-7c0,0,-18,-2,-46,-2Z" 
id="f2_ay"
transform="scale(0.001,-0.001)" />

<path d="M254,-17c0,0,-53,0,-89,15c0,0,-36,14,-58,39c0,0,-22,25,-32,60c0,0,-10,35,-10,76c0,0,0,25,4,52c0,0,3,26,8,54l82,413c0,0,2,7,7,13c0,0,6,5,17,9c0,0,12,3,31,5c0,0,18,2,45,2c0,0,28,0,45,-2c0,0,18,-2,28,-5c0,0,9,-4,13,-9c0,0,3,-6,2,-13L267,291c0,0,-3,-16,-5,-34c0,0,-2,-18,-2,-34c0,0,0,-18,3,-32c0,0,4,-15,11,-25c0,0,7,-11,19,-16c0,0,11,-5,28,-5c0,0,30,0,64,19c0,0,33,20,63,55c0,0,30,35,53,82c0,0,24,47,36,102l57,289c0,0,0,7,6,13c0,0,6,5,18,9c0,0,11,3,30,5c0,0,18,2,45,2c0,0,28,0,45,-2c0,0,18,-2,28,-5c0,0,10,-4,13,-9c0,0,3,-6,2,-13L647,24c0,0,-1,-7,-6,-13c0,0,-5,-5,-15,-9c0,0,-10,-2,-26,-4c0,0,-16,-2,-39,-2c0,0,-23,0,-37,2c0,0,-15,2,-23,4c0,0,-8,4,-11,9c0,0,-2,6,0,13l20,108c0,0,-15,-26,-41,-52c0,0,-26,-27,-60,-49C409,31,375,9,335,-3c0,0,-40,-14,-81,-14Z" 
id="f2_c6"
transform="scale(0.001,-0.001)" />

<path d="M117,-4c0,0,-28,0,-45,2C72,-2,54,0,44,3C44,3,34,6,31,12c0,0,-3,5,-2,13L163,692c0,0,2,7,7,13c0,0,4,5,15,9c0,0,10,3,26,5c0,0,16,2,38,2c0,0,23,0,38,-2c0,0,14,-2,22,-5c0,0,9,-4,11,-9c0,0,3,-6,1,-13L300,582c0,0,15,26,42,53c0,0,26,27,60,49c0,0,34,22,74,36c0,0,39,13,83,13c0,0,52,0,87,-15c0,0,36,-15,58,-41c0,0,22,-27,31,-61c0,0,10,-35,10,-74c0,0,0,-26,-3,-52c0,0,-4,-26,-9,-54L650,25c0,0,-2,-8,-7,-13c0,0,-6,-6,-17,-9c0,0,-12,-3,-30,-5c0,0,-18,-2,-46,-2c0,0,-27,0,-45,2c0,0,-18,2,-27,5c0,0,-10,3,-14,9c0,0,-3,5,-2,13l82,399c0,0,3,18,5,37c0,0,2,19,2,33c0,0,0,34,-14,55c0,0,-14,22,-48,22c0,0,-30,0,-63,-19c0,0,-34,-20,-63,-53c0,0,-30,-33,-53,-78c0,0,-23,-44,-33,-94L217,25c0,0,-2,-8,-8,-13c0,0,-5,-6,-17,-9c0,0,-11,-3,-30,-5c0,0,-18,-2,-45,-2Z" 
id="f2_af"
transform="scale(0.001,-0.001)" />

<path d="M275,-14c0,0,-44,0,-78,10c0,0,-34,8,-57,28c0,0,-23,20,-35,52c0,0,-12,31,-12,76c0,0,0,8,1,19c0,0,1,10,3,22c0,0,2,12,4,24c0,0,1,13,4,22l64,324H89c0,0,-10,0,-14,7c0,0,-5,6,-5,24c0,0,0,13,3,33c0,0,3,21,9,41c0,0,6,19,15,34c0,0,10,14,23,14h80l30,148c0,0,1,8,7,14c0,0,5,6,17,10c0,0,12,4,30,6c0,0,18,2,46,2c0,0,27,0,44,-2c0,0,18,-2,28,-6c0,0,10,-4,13,-10c0,0,3,-6,2,-14L387,716H532c0,0,12,0,17,-8c0,0,4,-9,4,-24c0,0,0,-8,-1,-19c0,0,-2,-12,-4,-26c0,0,-3,-13,-7,-26c0,0,-5,-14,-10,-25c0,0,-6,-11,-13,-18c0,0,-7,-7,-15,-7H357L294,251c0,0,-2,-11,-4,-26c0,0,-2,-15,-2,-25c0,0,0,-30,14,-43c0,0,14,-14,45,-14c0,0,18,0,31,2c0,0,12,3,22,6c0,0,9,4,16,6c0,0,7,3,13,3c0,0,6,0,10,-6c0,0,4,-5,4,-18c0,0,0,-14,-3,-32c0,0,-3,-18,-8,-35c0,0,-5,-17,-11,-30c0,0,-6,-14,-12,-21c0,0,-7,-7,-21,-13c0,0,-13,-5,-31,-9c0,0,-19,-4,-40,-7c0,0,-21,-3,-42,-3Z" 
id="f2_bf"
transform="scale(0.001,-0.001)" />

<path d="M117,-4c0,0,-28,0,-45,2C72,-2,54,0,44,3C44,3,34,6,31,12c0,0,-3,5,-2,13L162,689c0,0,2,8,7,13c0,0,6,6,17,10c0,0,12,4,30,6c0,0,18,3,46,3c0,0,28,0,45,-3c0,0,18,-2,28,-6c0,0,10,-4,13,-10c0,0,3,-5,2,-13L217,25c0,0,-2,-8,-8,-13c0,0,-5,-6,-17,-9c0,0,-11,-3,-30,-5c0,0,-18,-2,-45,-2ZM281,816c0,0,-31,0,-51,5c0,0,-19,5,-29,17c0,0,-10,11,-12,30c0,0,-1,19,5,47c0,0,5,26,14,45c0,0,9,19,24,31c0,0,14,12,36,17c0,0,22,5,54,5c0,0,31,0,50,-5c0,0,20,-5,30,-17c0,0,10,-12,11,-31c0,0,1,-19,-4,-45c0,0,-5,-28,-14,-47c0,0,-9,-19,-24,-30c0,0,-15,-12,-36,-17c0,0,-22,-5,-54,-5Z" 
id="f2_9q"
transform="scale(0.001,-0.001)" />

<path d="M317,142c0,0,33,0,67,20c0,0,34,19,64,53c0,0,30,34,53,79c0,0,22,45,33,97l21,100c0,0,-26,42,-58,62c0,0,-31,21,-73,21c0,0,-32,0,-58,-15c0,0,-26,-15,-46,-40c0,0,-20,-25,-35,-58c0,0,-16,-33,-26,-68c0,0,-10,-35,-15,-72c0,0,-4,-36,-4,-67c0,0,0,-22,3,-42c0,0,3,-20,12,-36c0,0,9,-16,24,-25c0,0,15,-9,38,-9ZM253,-17c0,0,-60,0,-100,20c0,0,-39,21,-63,57c0,0,-24,35,-34,81c0,0,-10,45,-10,95c0,0,0,47,9,103c0,0,9,55,28,111c0,0,18,55,47,106c0,0,29,51,70,91c0,0,41,39,93,63c0,0,53,23,120,23c0,0,62,0,109,-25c0,0,48,-26,84,-75l12,59c0,0,3,15,23,22c0,0,21,7,66,7c0,0,23,0,38,-2c0,0,15,-2,23,-5c0,0,9,-4,12,-9c0,0,3,-6,1,-13L647,24C647,24,644,9,624,2c0,0,-21,-6,-66,-6c0,0,-23,0,-38,2c0,0,-14,1,-23,3c0,0,-9,4,-12,9c0,0,-2,6,-1,14l21,107c0,0,-11,-24,-36,-50c0,0,-24,-27,-58,-49c0,0,-34,-21,-74,-34c0,0,-41,-15,-84,-15Z" 
id="f2_77"
transform="scale(0.001,-0.001)" />

<path d="M134,-9c0,0,-27,0,-46,5C88,-4,70,0,59,8C59,8,48,17,44,31c0,0,-5,14,-5,32c0,0,0,12,3,30c0,0,2,18,7,37c0,0,5,19,13,36c0,0,8,18,20,29c0,0,12,12,33,19c0,0,22,7,61,7c0,0,29,0,48,-5c0,0,18,-5,29,-15c0,0,10,-9,14,-23c0,0,3,-14,3,-30c0,0,0,-11,-2,-29c0,0,-3,-18,-7,-37c0,0,-5,-19,-13,-37c0,0,-8,-17,-19,-29C229,16,217,4,194,-2c0,0,-23,-7,-60,-7Z" 
id="f2_nt"
transform="scale(0.001,-0.001)" />

<path d="M343,-13c0,0,-49,0,-91,8c0,0,-42,7,-75,18c0,0,-33,11,-54,22c0,0,-22,12,-27,17c0,0,-6,5,-9,10c0,0,-3,5,-5,13c0,0,-3,7,-4,18c0,0,-1,11,-1,27c0,0,0,26,5,37c0,0,6,10,15,10c0,0,7,0,27,-12c0,0,20,-12,51,-25c0,0,31,-14,72,-26c0,0,41,-12,92,-12c0,0,49,0,87,13c0,0,37,12,62,35c0,0,26,24,39,55c0,0,12,32,12,69c0,0,0,41,-16,74c0,0,-16,33,-47,57c0,0,-31,24,-76,36c0,0,-45,13,-103,13H206c0,0,-6,0,-12,3c0,0,-6,2,-10,8c0,0,-4,6,-6,16c0,0,-3,10,-3,25c0,0,0,14,2,24c0,0,2,9,7,15c0,0,4,5,9,8c0,0,5,3,12,3h84c0,0,49,0,89,12c0,0,39,13,66,37c0,0,27,24,42,57c0,0,14,33,14,74c0,0,0,30,-9,57c0,0,-10,28,-30,48c0,0,-19,20,-49,32c0,0,-31,11,-70,11c0,0,-43,0,-80,-13c0,0,-36,-13,-64,-28c0,0,-29,-15,-47,-28c0,0,-19,-13,-26,-13c0,0,-6,0,-10,2c0,0,-4,2,-6,7c0,0,-3,6,-4,16c0,0,-1,10,-1,26c0,0,0,12,0,20c0,0,1,9,3,15c0,0,3,6,6,12c0,0,3,5,10,12c0,0,7,7,28,20c0,0,22,14,54,27c0,0,32,13,73,22c0,0,41,9,89,9c0,0,67,0,118,-17c0,0,51,-18,85,-49c0,0,34,-31,51,-75c0,0,17,-44,17,-97c0,0,0,-45,-12,-84c0,0,-12,-39,-35,-70c0,0,-24,-30,-57,-51c0,0,-34,-21,-78,-30v-1c0,0,50,-5,92,-25c0,0,41,-20,71,-50c0,0,30,-29,47,-69c0,0,16,-40,16,-86c0,0,0,-66,-23,-119c0,0,-23,-54,-66,-92C593,65,550,27,486,7c0,0,-63,-20,-143,-20Z" 
id="f0_s0"
transform="scale(0.001,-0.001)" />

<path d="M320,-17c0,0,-50,0,-93,9c0,0,-43,8,-76,19c0,0,-32,11,-54,24C97,35,75,48,65,58c0,0,-10,9,-14,28c0,0,-4,18,-4,52c0,0,0,23,1,39c0,0,2,15,5,25c0,0,4,10,9,14c0,0,6,4,13,4c0,0,11,0,30,-12c0,0,19,-13,49,-28c0,0,30,-15,71,-27c0,0,42,-12,96,-12c0,0,36,0,64,8c0,0,29,9,49,25c0,0,19,15,30,38c0,0,10,23,10,52c0,0,0,33,-18,56c0,0,-18,24,-46,42c0,0,-29,18,-66,34c0,0,-36,16,-75,34c0,0,-39,18,-76,41c0,0,-36,23,-65,54c0,0,-29,32,-47,75c0,0,-17,44,-17,104c0,0,0,70,25,122c0,0,26,53,70,88c0,0,43,34,103,51c0,0,59,18,125,18c0,0,35,0,69,-6c0,0,34,-5,64,-14c0,0,30,-9,53,-20c0,0,23,-11,31,-18c0,0,7,-8,10,-13c0,0,3,-5,4,-14c0,0,2,-8,3,-21c0,0,1,-13,1,-33c0,0,0,-21,-1,-36c0,0,-1,-15,-4,-25c0,0,-3,-9,-7,-14c0,0,-5,-4,-14,-4c0,0,-8,0,-26,10c0,0,-18,10,-44,23c0,0,-26,12,-60,22c0,0,-34,10,-75,10c0,0,-32,0,-56,-8c0,0,-24,-8,-40,-21c0,0,-16,-14,-24,-34c0,0,-8,-19,-8,-41c0,0,0,-32,18,-56c0,0,17,-23,46,-42c0,0,30,-18,67,-34c0,0,38,-16,76,-34c0,0,39,-18,76,-41c0,0,38,-22,67,-54c0,0,29,-32,47,-75c0,0,18,-43,18,-101c0,0,0,-76,-29,-133c0,0,-28,-58,-77,-96C572,60,524,21,459,2c0,0,-65,-19,-139,-19Z" 
id="f1_2n"
transform="scale(0.001,-0.001)" />

<path d="M344,-14c0,0,-56,0,-97,14c0,0,-42,14,-69,43c0,0,-26,29,-39,74c0,0,-13,45,-13,106V563H47c0,0,-15,0,-22,18c0,0,-7,17,-7,58c0,0,0,22,1,37c0,0,2,15,6,24c0,0,4,8,9,12c0,0,6,4,13,4h79V864c0,0,0,8,4,14c0,0,4,6,15,10c0,0,11,4,29,6c0,0,19,2,46,2c0,0,27,0,46,-2c0,0,18,-2,28,-6c0,0,11,-4,15,-10c0,0,5,-6,5,-14V716H459c0,0,7,0,13,-4c0,0,6,-4,9,-12c0,0,4,-9,6,-24c0,0,2,-15,2,-37c0,0,0,-41,-8,-58c0,0,-7,-18,-21,-18H314V251c0,0,0,-54,17,-81c0,0,17,-27,61,-27c0,0,15,0,27,2c0,0,12,3,22,6c0,0,9,4,15,6c0,0,7,3,12,3c0,0,4,0,9,-3c0,0,4,-2,6,-10c0,0,2,-8,4,-21c0,0,2,-14,2,-35c0,0,0,-33,-4,-50c0,0,-4,-18,-11,-25c0,0,-7,-7,-20,-12c0,0,-13,-5,-31,-9c0,0,-17,-4,-38,-6c0,0,-20,-3,-41,-3Z" 
id="f1_bf"
transform="scale(0.001,-0.001)" />

<path d="M188,-4c0,0,-28,0,-46,2c0,0,-18,2,-28,5c0,0,-11,3,-16,9c0,0,-4,5,-4,13V691c0,0,0,7,4,13c0,0,3,5,13,9c0,0,10,4,25,6c0,0,15,2,38,2c0,0,24,0,40,-2c0,0,15,-2,24,-6c0,0,9,-4,12,-9c0,0,4,-6,4,-13V614c0,0,55,60,110,89c0,0,55,30,115,30c0,0,41,0,74,-8c0,0,33,-9,59,-25c0,0,26,-16,44,-38c0,0,19,-23,32,-50c0,0,30,32,58,55c0,0,29,23,57,38c0,0,28,14,56,21c0,0,28,7,57,7c0,0,66,0,112,-22c0,0,45,-22,73,-61c0,0,28,-38,40,-90c0,0,12,-51,12,-109V25c0,0,0,-8,-5,-13c0,0,-4,-6,-15,-9c0,0,-10,-3,-28,-5c0,0,-18,-2,-46,-2c0,0,-28,0,-46,2c0,0,-18,2,-29,5c0,0,-11,3,-15,9c0,0,-4,6,-4,13V420c0,0,0,34,-6,61c0,0,-7,28,-20,48c0,0,-13,19,-32,30c0,0,-20,11,-47,11c0,0,-34,0,-68,-26c0,0,-34,-26,-74,-76V25c0,0,0,-7,-5,-13c0,0,-4,-6,-15,-9c0,0,-11,-3,-29,-5c0,0,-18,-2,-45,-2c0,0,-27,0,-45,2c0,0,-18,2,-29,5c0,0,-11,3,-16,9c0,0,-4,6,-4,13V420c0,0,0,34,-6,61c0,0,-7,28,-19,48c0,0,-13,19,-33,30c0,0,-21,11,-48,11c0,0,-34,0,-68,-26c0,0,-35,-26,-74,-76V25c0,0,0,-7,-5,-13c0,0,-4,-6,-15,-9c0,0,-11,-3,-29,-5c0,0,-18,-2,-45,-2Z" 
id="f1_ae"
transform="scale(0.001,-0.001)" />

<path d="M188,-4c0,0,-28,0,-46,2c0,0,-18,2,-28,5c0,0,-11,3,-16,9c0,0,-4,5,-4,13V691c0,0,0,7,4,13c0,0,3,5,13,9c0,0,10,4,25,6c0,0,15,2,38,2c0,0,24,0,40,-2c0,0,15,-2,24,-6c0,0,9,-4,12,-9c0,0,4,-6,4,-13V608c0,0,26,37,49,61c0,0,23,25,44,39c0,0,21,14,42,20c0,0,21,5,42,5c0,0,10,0,21,-1c0,0,11,-1,23,-4c0,0,12,-2,21,-5c0,0,9,-4,13,-8c0,0,4,-3,6,-8c0,0,2,-4,3,-12c0,0,2,-8,2,-24c0,0,1,-15,1,-42c0,0,0,-27,-1,-44c0,0,-2,-17,-5,-27c0,0,-3,-10,-8,-13c0,0,-5,-4,-12,-4c0,0,-6,0,-13,3c0,0,-8,2,-17,5c0,0,-10,3,-21,6c0,0,-11,2,-24,2c0,0,-16,0,-32,-6c0,0,-15,-6,-32,-20c0,0,-17,-13,-35,-36c0,0,-19,-22,-39,-55V25c0,0,0,-8,-5,-13c0,0,-4,-6,-15,-9c0,0,-11,-3,-29,-5c0,0,-18,-2,-45,-2Z" 
id="f1_b1"
transform="scale(0.001,-0.001)" />

<path d="M188,-4c0,0,-28,0,-46,2c0,0,-18,2,-28,5c0,0,-11,3,-16,9c0,0,-4,5,-4,13V691c0,0,0,7,4,13c0,0,3,5,13,9c0,0,10,4,25,6c0,0,15,2,38,2c0,0,24,0,40,-2c0,0,15,-2,24,-6c0,0,9,-4,12,-9c0,0,4,-6,4,-13V614c0,0,55,60,112,89c0,0,57,30,119,30c0,0,68,0,115,-22c0,0,47,-22,75,-61c0,0,29,-38,42,-90c0,0,12,-51,12,-124V25c0,0,0,-8,-4,-13c0,0,-5,-6,-15,-9c0,0,-10,-3,-29,-5c0,0,-18,-2,-45,-2c0,0,-28,0,-46,2c0,0,-18,2,-29,5c0,0,-10,3,-15,9c0,0,-4,6,-4,13V405c0,0,0,49,-7,76c0,0,-7,28,-21,48c0,0,-13,19,-35,30c0,0,-21,11,-49,11c0,0,-36,0,-72,-26c0,0,-37,-26,-76,-76V25c0,0,0,-7,-5,-13c0,0,-4,-6,-15,-9c0,0,-11,-3,-29,-5c0,0,-18,-2,-45,-2Z" 
id="f1_af"
transform="scale(0.001,-0.001)" />

<path d="M604,356L436,837h-1L269,356ZM87,-4c0,0,-22,0,-36,2C51,-2,37,0,32,4c0,0,-6,5,-6,15c0,0,1,10,7,27L357,943c0,0,3,8,7,13c0,0,5,6,15,9c0,0,9,3,23,4c0,0,15,1,37,1c0,0,24,0,40,-1c0,0,16,-1,25,-4c0,0,10,-3,15,-9c0,0,5,-5,8,-14L851,45c0,0,6,-16,7,-26c0,0,0,-10,-6,-16c0,0,-6,-4,-20,-5c0,0,-14,-2,-37,-2c0,0,-23,0,-37,1c0,0,-14,1,-21,3c0,0,-7,3,-10,7c0,0,-3,5,-6,11L638,253H236L157,21c0,0,-2,-6,-6,-11c0,0,-3,-5,-10,-9c0,0,-7,-2,-21,-3c0,0,-13,-2,-33,-2Z" 
id="f0_5"
transform="scale(0.001,-0.001)" />

<path d="M92,-4c0,0,-22,0,-35,2C57,-2,43,0,37,3c0,0,-7,5,-6,12c0,0,0,7,7,17L247,360L49,675c0,0,-6,11,-6,18c0,0,-1,7,6,12c0,0,7,5,22,6c0,0,14,2,38,2c0,0,22,0,35,-1c0,0,13,-1,20,-4c0,0,8,-2,12,-6c0,0,3,-3,6,-9L335,443L490,693c0,0,3,5,7,9c0,0,4,3,10,6c0,0,7,3,18,4c0,0,12,1,32,1c0,0,21,0,35,-2c0,0,14,-1,21,-5c0,0,7,-4,6,-12c0,0,-1,-7,-8,-19L415,364L622,32c0,0,6,-10,6,-17c0,0,0,-7,-7,-12c0,0,-7,-3,-21,-5c0,0,-15,-2,-38,-2c0,0,-22,0,-35,1c0,0,-13,1,-21,3c0,0,-8,3,-12,7c0,0,-4,4,-7,9L326,282L165,16c0,0,-3,-5,-7,-9c0,0,-4,-4,-12,-7c0,0,-8,-2,-20,-3c0,0,-13,-1,-34,-1Z" 
id="f0_cn"
transform="scale(0.001,-0.001)" />

<path d="M431,92c0,0,46,0,79,22c0,0,33,23,53,60c0,0,21,37,30,83c0,0,10,46,10,93c0,0,0,51,-8,100c0,0,-8,49,-28,86c0,0,-19,37,-51,60c0,0,-32,23,-80,23c0,0,-24,0,-47,-7c0,0,-23,-7,-47,-22c0,0,-24,-16,-50,-41c0,0,-25,-24,-55,-62V219c0,0,51,-62,98,-95c0,0,46,-32,96,-32ZM443,-13c0,0,-32,0,-59,7c0,0,-27,6,-53,19c0,0,-26,14,-52,36c0,0,-27,22,-56,52V18c0,0,0,-6,-3,-10c0,0,-3,-5,-9,-7c0,0,-7,-2,-17,-3c0,0,-10,-2,-26,-2c0,0,-15,0,-25,2c0,0,-11,1,-17,3c0,0,-7,2,-9,7c0,0,-3,4,-3,10v997c0,0,0,6,3,11c0,0,3,4,10,7c0,0,7,3,19,5c0,0,12,1,30,1c0,0,18,0,30,-1c0,0,12,-2,19,-5c0,0,7,-3,9,-7c0,0,3,-5,3,-10V614c0,0,30,31,58,52c0,0,28,20,55,34c0,0,27,13,54,19c0,0,27,6,57,6c0,0,73,0,125,-30c0,0,52,-29,84,-78c0,0,32,-48,47,-114c0,0,15,-66,15,-139c0,0,0,-87,-19,-157c0,0,-19,-70,-56,-119c0,0,-37,-49,-90,-76c0,0,-54,-25,-124,-25Z" 
id="f0_7k"
transform="scale(0.001,-0.001)" />

<path d="M424,-15c0,0,-82,0,-147,21c0,0,-65,22,-111,66c0,0,-45,44,-70,110c0,0,-25,66,-25,155c0,0,0,69,15,144c0,0,14,75,42,147c0,0,29,72,73,136c0,0,44,64,104,112c0,0,60,48,137,76c0,0,76,29,170,29c0,0,52,0,98,-11c0,0,47,-11,81,-29c0,0,35,-18,49,-32c0,0,14,-15,14,-37c0,0,0,-21,-7,-56c0,0,-7,-35,-18,-57c0,0,-11,-21,-24,-21c0,0,-10,0,-23,12c0,0,-14,13,-35,27c0,0,-22,14,-56,26c0,0,-33,12,-83,12c0,0,-55,0,-101,-22c0,0,-46,-22,-81,-58c0,0,-36,-36,-63,-83c0,0,-27,-47,-45,-97c0,0,-17,-51,-26,-101c0,0,-8,-51,-8,-94c0,0,0,-52,13,-92c0,0,13,-39,37,-65c0,0,25,-26,61,-39c0,0,36,-13,81,-13c0,0,53,0,91,11c0,0,37,11,64,24c0,0,26,14,44,25c0,0,17,11,31,11c0,0,10,0,13,-7c0,0,4,-7,4,-20c0,0,0,-5,-2,-16c0,0,-1,-10,-4,-23c0,0,-2,-13,-5,-28c0,0,-3,-16,-7,-29c0,0,-3,-13,-8,-23c0,0,-5,-11,-13,-19c0,0,-8,-9,-32,-22c0,0,-24,-13,-58,-24C594,11,559,0,516,-7c0,0,-43,-8,-92,-8Z" 
id="f2_j"
transform="scale(0.001,-0.001)" />

<path d="M117,-4c0,0,-28,0,-45,2C72,-2,54,0,44,3C44,3,34,6,31,12c0,0,-3,5,-2,13L162,692c0,0,2,7,7,13c0,0,5,5,15,9c0,0,10,3,27,5c0,0,16,2,38,2c0,0,23,0,38,-2c0,0,14,-2,23,-5c0,0,8,-4,10,-9c0,0,3,-6,2,-13L300,586c0,0,18,32,42,58c0,0,23,27,50,47c0,0,26,20,55,31c0,0,28,11,56,11c0,0,11,0,23,-1c0,0,11,-2,21,-4c0,0,10,-2,18,-5c0,0,8,-4,12,-8c0,0,5,-4,5,-14c0,0,0,-5,-2,-18c0,0,-1,-14,-4,-32c0,0,-3,-18,-8,-37c0,0,-4,-19,-10,-35c0,0,-5,-16,-12,-27c0,0,-7,-10,-16,-10c0,0,-6,0,-13,2c0,0,-7,3,-15,6c0,0,-8,2,-18,5c0,0,-10,2,-22,2c0,0,-26,0,-54,-19c0,0,-29,-20,-55,-51c0,0,-27,-32,-47,-74c0,0,-21,-42,-30,-89L217,25c0,0,-2,-8,-8,-13c0,0,-5,-6,-17,-9c0,0,-11,-3,-30,-5c0,0,-18,-2,-45,-2Z" 
id="f2_b1"
transform="scale(0.001,-0.001)" />

<path d="M210,-17c0,0,-36,0,-69,6c0,0,-32,5,-58,12C83,1,57,8,40,18C40,18,22,28,13,36c0,0,-6,6,-9,13C4,49,2,56,2,66c0,0,0,7,1,17c0,0,1,11,4,23c0,0,2,13,6,26c0,0,3,12,7,23c0,0,5,10,10,17c0,0,5,6,11,6c0,0,11,0,23,-9c0,0,13,-9,33,-20c0,0,20,-11,50,-20c0,0,29,-10,73,-10c0,0,31,0,54,7c0,0,23,7,39,20c0,0,15,13,22,29c0,0,7,16,7,35c0,0,0,26,-18,43c0,0,-19,16,-46,30c0,0,-28,14,-61,29c0,0,-33,15,-60,37c0,0,-28,22,-47,54c0,0,-18,32,-18,80c0,0,0,53,20,99c0,0,20,45,59,79c0,0,39,34,94,53c0,0,55,19,125,19c0,0,31,0,61,-4c0,0,29,-4,53,-11c0,0,23,-7,41,-15c0,0,17,-8,25,-17c0,0,9,-7,9,-25c0,0,0,-9,-3,-26c0,0,-2,-18,-8,-36c0,0,-5,-18,-12,-31c0,0,-8,-13,-17,-13c0,0,-9,0,-22,8c0,0,-14,7,-32,15c0,0,-19,9,-44,16c0,0,-25,6,-58,6c0,0,-27,0,-47,-6c0,0,-21,-7,-34,-19c0,0,-14,-11,-21,-27c0,0,-7,-15,-7,-33c0,0,0,-24,19,-39c0,0,19,-16,48,-30c0,0,28,-14,61,-28c0,0,33,-15,62,-38c0,0,28,-22,47,-54c0,0,19,-32,19,-81c0,0,0,-57,-22,-105c0,0,-21,-48,-63,-83C445,57,403,22,344,2c0,0,-60,-19,-134,-19Z" 
id="f2_b5"
transform="scale(0.001,-0.001)" />

<path d="M378,-4c0,0,-28,0,-47,2c0,0,-19,2,-31,5c0,0,-11,4,-16,10c0,0,-4,6,-4,13V805H38c0,0,-8,0,-13,4c0,0,-5,5,-9,14c0,0,-3,9,-5,25c0,0,-2,15,-2,37c0,0,0,22,2,38c0,0,2,15,5,25c0,0,4,9,9,13c0,0,5,4,13,4H718c0,0,7,0,12,-4c0,0,6,-4,10,-13c0,0,3,-10,5,-25c0,0,2,-16,2,-38c0,0,0,-22,-2,-37c0,0,-2,-16,-5,-25c0,0,-4,-9,-10,-14c0,0,-5,-4,-12,-4H476V26c0,0,0,-7,-5,-13c0,0,-5,-6,-16,-10c0,0,-11,-3,-30,-5c0,0,-19,-2,-47,-2Z" 
id="f1_2t"
transform="scale(0.001,-0.001)" />

<path d="M275,-17c0,0,-37,0,-71,6c0,0,-34,6,-61,13c0,0,-27,9,-45,18c0,0,-18,9,-26,17c0,0,-8,8,-13,25c0,0,-4,17,-4,49c0,0,0,22,1,35c0,0,2,13,5,21c0,0,3,8,7,10c0,0,5,3,11,3c0,0,9,0,25,-9c0,0,16,-10,40,-21c0,0,24,-11,55,-21c0,0,32,-10,72,-10c0,0,26,0,46,5c0,0,19,6,34,15c0,0,14,10,22,25c0,0,7,15,7,34c0,0,0,23,-13,39c0,0,-14,16,-37,28c0,0,-23,11,-52,22c0,0,-28,10,-58,23c0,0,-31,13,-59,29c0,0,-29,17,-52,41c0,0,-23,23,-37,57c0,0,-13,34,-13,81c0,0,0,47,18,87c0,0,19,40,54,69c0,0,35,28,86,44c0,0,50,15,113,15c0,0,31,0,61,-4c0,0,29,-5,53,-11c0,0,24,-7,40,-15c0,0,17,-7,24,-13c0,0,7,-6,10,-11c0,0,3,-6,4,-14c0,0,2,-7,3,-19c0,0,1,-12,1,-29c0,0,0,-20,-1,-33c0,0,-1,-12,-4,-20c0,0,-2,-7,-7,-10c0,0,-4,-3,-10,-3c0,0,-7,0,-21,8c0,0,-14,8,-36,17c0,0,-21,9,-49,17c0,0,-28,7,-64,7c0,0,-25,0,-44,-5c0,0,-19,-5,-30,-15c0,0,-12,-9,-18,-22c0,0,-6,-14,-6,-28c0,0,0,-24,14,-39c0,0,14,-16,37,-28c0,0,23,-12,53,-22c0,0,29,-11,59,-23c0,0,31,-12,60,-29c0,0,30,-16,53,-40c0,0,23,-24,37,-57c0,0,14,-33,14,-79c0,0,0,-57,-21,-100c0,0,-21,-43,-60,-72c0,0,-39,-29,-92,-43c0,0,-53,-15,-115,-15Z" 
id="f1_b5"
transform="scale(0.001,-0.001)" />

<path d="M224,-4c0,0,-26,0,-45,2c0,0,-18,2,-29,5c0,0,-11,3,-15,9c0,0,-4,5,-4,13V563H48c0,0,-14,0,-21,18c0,0,-7,17,-7,58c0,0,0,22,1,37c0,0,2,15,6,24c0,0,3,8,9,12c0,0,5,4,13,4h82v56c0,0,0,68,13,119c0,0,14,51,43,85c0,0,29,34,73,51c0,0,45,17,105,17c0,0,29,0,55,-5c0,0,27,-4,42,-10c0,0,15,-6,20,-10c0,0,5,-5,8,-15c0,0,4,-9,5,-23c0,0,2,-15,2,-37c0,0,0,-21,-2,-34c0,0,-1,-13,-4,-20c0,0,-3,-7,-7,-10c0,0,-4,-3,-8,-3c0,0,-5,0,-12,3c0,0,-6,3,-16,6c0,0,-9,2,-22,5c0,0,-12,3,-29,3c0,0,-21,0,-35,-7c0,0,-15,-6,-25,-20c0,0,-9,-14,-14,-36c0,0,-4,-22,-4,-54V716H440c0,0,7,0,13,-4c0,0,5,-4,9,-12c0,0,4,-9,5,-24c0,0,2,-15,2,-37c0,0,0,-41,-7,-58c0,0,-8,-18,-22,-18H319V25c0,0,0,-8,-5,-13c0,0,-4,-6,-15,-9c0,0,-10,-3,-29,-5c0,0,-19,-2,-46,-2Z" 
id="f1_89"
transform="scale(0.001,-0.001)" />

<path d="M337,-17c0,0,-50,0,-93,8c0,0,-43,7,-76,16c0,0,-34,11,-55,22c0,0,-22,11,-29,17c0,0,-6,6,-10,13c0,0,-3,8,-6,18c0,0,-2,10,-3,25c0,0,-1,16,-1,37c0,0,0,36,6,50c0,0,6,13,17,13c0,0,8,0,26,-10c0,0,18,-10,47,-21c0,0,28,-12,66,-22c0,0,38,-10,87,-10c0,0,41,0,72,10c0,0,31,9,53,27c0,0,22,17,33,42c0,0,11,25,11,56c0,0,0,34,-13,61c0,0,-13,26,-39,45c0,0,-26,20,-65,30c0,0,-39,10,-92,10H189c0,0,-9,0,-16,3c0,0,-7,3,-11,11c0,0,-5,8,-7,23c0,0,-1,14,-1,37c0,0,0,22,1,36c0,0,2,13,6,21c0,0,4,7,11,10c0,0,6,3,15,3h85c0,0,43,0,77,10c0,0,33,10,56,29c0,0,23,19,35,45c0,0,12,27,12,59c0,0,0,25,-8,47c0,0,-9,22,-25,38c0,0,-16,16,-41,26c0,0,-26,9,-60,9c0,0,-39,0,-73,-11c0,0,-34,-12,-62,-26c0,0,-27,-13,-46,-25c0,0,-19,-12,-28,-12c0,0,-6,0,-10,2c0,0,-5,3,-8,11c0,0,-3,7,-4,21c0,0,-2,14,-2,37c0,0,0,18,1,31c0,0,1,12,3,20c0,0,2,8,5,14c0,0,4,6,11,13c0,0,8,7,31,21c0,0,23,14,58,28c0,0,35,13,81,22c0,0,46,10,100,10c0,0,70,0,124,-17c0,0,54,-16,91,-47c0,0,37,-31,56,-76c0,0,19,-46,19,-102c0,0,0,-44,-11,-83c0,0,-12,-38,-33,-68c0,0,-22,-29,-54,-50c0,0,-33,-21,-75,-32v-2c0,0,50,-6,91,-26c0,0,40,-19,68,-49c0,0,28,-30,43,-68c0,0,15,-37,15,-81c0,0,0,-72,-28,-128c0,0,-27,-56,-77,-94C604,60,555,22,487,2c0,0,-69,-19,-150,-19Z" 
id="f1_s0"
transform="scale(0.001,-0.001)" />

<path d="M432,142c0,0,36,0,62,18c0,0,26,19,42,49c0,0,16,31,24,69c0,0,8,38,8,76c0,0,0,43,-6,82c0,0,-7,39,-22,70c0,0,-15,30,-40,49c0,0,-25,18,-62,18c0,0,-19,0,-37,-6c0,0,-19,-5,-38,-18c0,0,-19,-13,-39,-33c0,0,-20,-20,-42,-50V247c0,0,39,-51,75,-78c0,0,36,-27,75,-27ZM188,-270c0,0,-28,0,-46,2c0,0,-18,3,-28,7c0,0,-11,4,-16,10c0,0,-4,6,-4,13V691c0,0,0,7,4,13c0,0,3,5,13,9c0,0,9,4,24,6c0,0,15,2,39,2c0,0,22,0,37,-2c0,0,15,-2,25,-6c0,0,9,-4,13,-9c0,0,4,-6,4,-13V612c0,0,29,30,57,53c0,0,28,23,57,38c0,0,29,15,60,23c0,0,31,7,66,7c0,0,73,0,124,-28c0,0,52,-29,84,-79c0,0,33,-50,48,-117c0,0,15,-66,15,-141c0,0,0,-89,-19,-161c0,0,-19,-71,-56,-121C689,86,652,36,598,9c0,0,-54,-26,-125,-26c0,0,-29,0,-53,6c0,0,-24,6,-47,16c0,0,-23,12,-45,29c0,0,-23,17,-46,40V-238c0,0,0,-7,-5,-13c0,0,-4,-6,-15,-10c0,0,-11,-4,-29,-7c0,0,-18,-2,-45,-2Z" 
id="f1_ay"
transform="scale(0.001,-0.001)" />

<path d="M79,297c0,0,-19,0,-27,18c0,0,-8,17,-8,60c0,0,0,41,8,59c0,0,8,17,27,17H389c0,0,9,0,15,-4c0,0,7,-4,11,-13c0,0,5,-9,7,-23c0,0,1,-15,1,-36c0,0,0,-43,-8,-61c0,0,-8,-17,-26,-17Z" 
id="f1_oj"
transform="scale(0.001,-0.001)" />

<path d="M188,-4c0,0,-28,0,-46,2c0,0,-18,2,-28,5c0,0,-11,3,-16,9c0,0,-4,5,-4,13V689c0,0,0,8,4,13c0,0,5,6,16,10c0,0,10,4,28,6c0,0,18,3,46,3c0,0,27,0,45,-3c0,0,18,-2,29,-6c0,0,11,-4,15,-10c0,0,5,-5,5,-13V25c0,0,0,-8,-5,-13c0,0,-4,-6,-15,-9c0,0,-11,-3,-29,-5c0,0,-18,-2,-45,-2Zm-1,820c0,0,-63,0,-85,21c0,0,-22,21,-22,75c0,0,0,57,23,79c0,0,23,22,86,22c0,0,63,0,85,-21c0,0,22,-21,22,-76c0,0,0,-56,-23,-78c0,0,-23,-22,-86,-22Z" 
id="f1_9q"
transform="scale(0.001,-0.001)" />

<path d="M188,-4c0,0,-28,0,-46,2c0,0,-18,2,-28,5c0,0,-11,3,-16,9c0,0,-4,5,-4,13v981c0,0,0,8,4,14c0,0,5,6,16,10c0,0,10,4,28,6c0,0,18,2,46,2c0,0,27,0,45,-2c0,0,18,-2,29,-6c0,0,11,-4,15,-10c0,0,5,-6,5,-14V422L478,687c0,0,6,9,14,16c0,0,7,6,19,10c0,0,13,4,31,6c0,0,18,2,47,2c0,0,27,0,46,-2c0,0,19,-2,31,-6c0,0,11,-4,16,-9c0,0,4,-6,4,-14c0,0,0,-11,-5,-24c0,0,-6,-13,-17,-27L469,418L695,70c0,0,9,-15,13,-26c0,0,4,-11,4,-20c0,0,0,-7,-4,-13c0,0,-4,-5,-15,-9c0,0,-11,-2,-30,-4c0,0,-18,-2,-48,-2c0,0,-31,0,-50,2c0,0,-19,1,-31,3c0,0,-13,4,-19,10c0,0,-7,6,-12,15L282,377V25c0,0,0,-8,-5,-13c0,0,-4,-6,-15,-9c0,0,-11,-3,-29,-5c0,0,-18,-2,-45,-2Z" 
id="f1_a5"
transform="scale(0.001,-0.001)" />

<path d="M402,542c0,0,41,0,72,10c0,0,32,10,52,28c0,0,21,18,32,44c0,0,10,25,10,56c0,0,0,48,-21,81c0,0,-22,33,-71,46c0,0,-15,4,-34,6c0,0,-19,2,-52,2H302V542ZM203,-4c0,0,-28,0,-47,2c0,0,-19,2,-30,5c0,0,-11,4,-16,10c0,0,-4,6,-4,13V903c0,0,0,33,16,48c0,0,17,14,42,14H414c0,0,38,0,62,-1c0,0,25,-2,45,-4c0,0,58,-8,105,-28c0,0,46,-21,79,-53c0,0,32,-32,49,-77c0,0,17,-44,17,-101c0,0,0,-49,-12,-89c0,0,-12,-40,-36,-71c0,0,-24,-31,-59,-54c0,0,-35,-23,-80,-38c0,0,22,-10,41,-25c0,0,19,-15,36,-36c0,0,17,-22,31,-49c0,0,15,-27,30,-61L803,87c0,0,11,-28,15,-41c0,0,3,-14,3,-21c0,0,0,-8,-3,-14c0,0,-3,-5,-14,-9c0,0,-11,-3,-33,-4c0,0,-21,-2,-59,-2c0,0,-31,0,-50,2c0,0,-18,1,-29,4c0,0,-11,4,-15,11c0,0,-5,6,-8,15L524,244c0,0,-16,37,-31,65c0,0,-14,28,-33,48c0,0,-18,19,-42,28c0,0,-24,10,-55,10H302V27c0,0,0,-8,-5,-14c0,0,-5,-6,-16,-10c0,0,-11,-3,-30,-5c0,0,-18,-2,-48,-2Z" 
id="f1_2j"
transform="scale(0.001,-0.001)" />

<path d="M192,-4c0,0,-18,0,-30,2c0,0,-13,2,-20,3c0,0,-8,3,-11,8c0,0,-3,4,-3,10V946c0,0,0,6,3,11c0,0,4,4,12,7c0,0,7,2,20,4c0,0,12,2,29,2c0,0,19,0,31,-2c0,0,13,-2,20,-4c0,0,7,-3,10,-7c0,0,3,-5,3,-11V19c0,0,0,-6,-3,-10c0,0,-3,-5,-10,-8c0,0,-7,-1,-20,-3c0,0,-12,-2,-31,-2Z" 
id="f0_1c"
transform="scale(0.001,-0.001)" />

<path d="M417,-11c0,0,-76,0,-137,22c0,0,-61,23,-104,67c0,0,-43,44,-66,110c0,0,-24,66,-24,152c0,0,0,71,15,146c0,0,15,75,44,146c0,0,29,70,73,133c0,0,43,63,101,110c0,0,58,47,130,75c0,0,72,27,159,27c0,0,54,0,102,-12c0,0,47,-13,81,-31c0,0,34,-19,49,-33c0,0,15,-15,15,-34c0,0,0,-16,-6,-39c0,0,-5,-23,-14,-36c0,0,-8,-14,-18,-14c0,0,-11,0,-25,14c0,0,-14,14,-38,30c0,0,-24,16,-61,30c0,0,-38,13,-95,13c0,0,-62,0,-114,-23c0,0,-51,-24,-92,-64c0,0,-42,-39,-73,-92c0,0,-31,-52,-52,-109c0,0,-20,-57,-31,-115c0,0,-10,-58,-10,-110c0,0,0,-60,15,-107c0,0,15,-46,43,-78c0,0,28,-32,69,-49c0,0,41,-16,93,-16c0,0,58,0,100,13c0,0,43,13,73,29c0,0,30,16,50,29c0,0,20,13,33,13c0,0,8,0,12,-6c0,0,4,-6,4,-18c0,0,0,-4,-1,-11c0,0,-2,-7,-3,-15c0,0,-2,-8,-3,-18c0,0,-2,-10,-5,-18c0,0,-3,-9,-7,-16c0,0,-3,-7,-11,-15c0,0,-8,-7,-33,-21c0,0,-25,-15,-61,-28C594,20,558,7,513,-1c0,0,-45,-10,-96,-10Z" 
id="f3_j"
transform="scale(0.001,-0.001)" />

<path d="M293,92c0,0,41,0,83,23c0,0,41,22,77,62c0,0,36,40,64,95c0,0,27,54,41,119l25,123c0,0,-35,53,-76,79c0,0,-41,26,-91,26c0,0,-41,0,-73,-19c0,0,-32,-19,-57,-50c0,0,-25,-32,-44,-72c0,0,-18,-40,-30,-82c0,0,-11,-43,-17,-84c0,0,-5,-41,-5,-74c0,0,0,-26,4,-52c0,0,4,-25,15,-47c0,0,12,-21,32,-34c0,0,20,-13,52,-13ZM262,-13c0,0,-60,0,-99,20c0,0,-39,21,-62,55c0,0,-23,35,-32,78c0,0,-8,43,-8,89c0,0,0,42,7,95c0,0,8,53,26,108c0,0,17,55,45,107c0,0,28,53,68,94c0,0,39,42,92,67c0,0,52,25,118,25c0,0,67,0,114,-28c0,0,47,-27,85,-74l14,67c0,0,3,12,17,18c0,0,14,5,44,5c0,0,15,0,25,-1c0,0,10,-1,16,-4c0,0,6,-3,7,-8c0,0,2,-4,1,-10L606,18C606,18,603,6,590,0c0,0,-14,-4,-45,-4c0,0,-15,0,-25,2c0,0,-9,1,-15,3c0,0,-6,2,-8,6c0,0,-3,5,0,11l24,127c0,0,-10,-24,-35,-52c0,0,-25,-28,-60,-52C426,41,391,17,349,2c0,0,-43,-15,-87,-15Z" 
id="f3_77"
transform="scale(0.001,-0.001)" />

<path d="M105,-4c0,0,-18,0,-30,2c0,0,-11,1,-18,3c0,0,-6,3,-8,7c0,0,-2,4,0,10L182,690c0,0,1,6,4,10c0,0,4,5,12,8c0,0,7,3,18,4c0,0,11,1,26,1c0,0,15,0,25,-1c0,0,10,-1,16,-4c0,0,6,-3,7,-8c0,0,2,-4,1,-10L266,568c0,0,17,31,41,59c0,0,23,29,51,51c0,0,28,21,58,34c0,0,30,13,59,13c0,0,13,0,26,-2c0,0,13,-2,24,-5c0,0,11,-2,20,-6c0,0,8,-3,13,-8c0,0,4,-4,4,-14c0,0,0,-3,-1,-11c0,0,-1,-9,-2,-20c0,0,-2,-11,-5,-23c0,0,-3,-12,-7,-22c0,0,-5,-10,-10,-17c0,0,-5,-7,-10,-7c0,0,-6,0,-13,3c0,0,-8,3,-16,6c0,0,-9,4,-20,7c0,0,-11,2,-26,2c0,0,-25,0,-58,-22c0,0,-34,-22,-66,-61c0,0,-32,-39,-58,-92c0,0,-27,-53,-40,-116L172,18c0,0,-2,-6,-5,-10c0,0,-4,-4,-12,-7c0,0,-7,-2,-20,-3c0,0,-12,-2,-30,-2Z" 
id="f3_b1"
transform="scale(0.001,-0.001)" />

<path d="M105,-4c0,0,-18,0,-30,2c0,0,-11,1,-18,3c0,0,-6,3,-8,7c0,0,-2,4,0,10L183,690c0,0,1,5,4,9c0,0,4,5,11,8c0,0,8,3,20,4c0,0,12,2,30,2c0,0,19,0,30,-2c0,0,12,-1,18,-4c0,0,7,-3,9,-8c0,0,2,-4,1,-9L172,18c0,0,-2,-6,-5,-10c0,0,-4,-4,-12,-7c0,0,-7,-2,-20,-3c0,0,-12,-2,-30,-2ZM274,842c0,0,-22,0,-36,4c0,0,-14,3,-20,12c0,0,-7,8,-8,23c0,0,-1,14,3,35c0,0,5,21,11,34c0,0,7,14,17,23c0,0,10,10,25,13c0,0,16,4,38,4c0,0,22,0,36,-4c0,0,14,-3,21,-13c0,0,8,-9,8,-23c0,0,1,-13,-3,-34c0,0,-4,-21,-10,-35c0,0,-7,-15,-17,-23c0,0,-11,-9,-27,-12c0,0,-16,-4,-38,-4Z" 
id="f3_9q"
transform="scale(0.001,-0.001)" />

<path d="M210,-13c0,0,-35,0,-66,6c0,0,-30,5,-55,12C89,5,64,14,46,24C46,24,28,34,18,43c0,0,-6,6,-9,12C9,55,7,62,7,71c0,0,0,6,1,14c0,0,0,8,3,17c0,0,2,9,4,17c0,0,3,8,7,15c0,0,4,6,7,11c0,0,4,4,9,4c0,0,9,0,22,-10c0,0,13,-11,33,-22c0,0,21,-12,51,-22c0,0,31,-10,76,-10c0,0,41,0,71,10c0,0,29,10,48,27c0,0,20,17,29,39c0,0,9,22,9,47c0,0,0,31,-19,51c0,0,-19,20,-49,36c0,0,-29,16,-64,32c0,0,-34,15,-64,37c0,0,-29,21,-49,52c0,0,-20,31,-20,79c0,0,0,49,20,91c0,0,19,42,55,73c0,0,35,31,85,48c0,0,50,18,110,18c0,0,28,0,55,-5c0,0,26,-4,49,-11c0,0,22,-7,39,-15c0,0,16,-8,24,-16c0,0,8,-8,8,-24c0,0,0,-7,-2,-19c0,0,-2,-13,-6,-25c0,0,-4,-12,-10,-20c0,0,-5,-8,-12,-8c0,0,-9,0,-21,7c0,0,-13,7,-31,16c0,0,-18,9,-43,16c0,0,-25,8,-59,8c0,0,-33,0,-58,-10c0,0,-26,-9,-43,-25c0,0,-17,-16,-26,-36c0,0,-9,-21,-9,-43c0,0,0,-30,19,-50c0,0,20,-20,50,-35c0,0,30,-16,65,-31c0,0,35,-16,64,-38c0,0,30,-22,50,-53c0,0,20,-31,20,-78c0,0,0,-52,-21,-97c0,0,-21,-45,-59,-78C425,55,387,23,332,5c0,0,-54,-18,-122,-18Z" 
id="f3_b5"
transform="scale(0.001,-0.001)" />

<path d="M-43,-215c0,0,-13,0,-22,2c0,0,-8,2,-11,5c0,0,-3,3,-2,9c0,0,1,6,7,14L68,19l17,88c0,0,4,20,10,32c0,0,6,12,15,18c0,0,9,6,23,8c0,0,14,2,35,2c0,0,19,0,31,-2c0,0,12,-2,20,-6c0,0,7,-5,10,-12c0,0,3,-7,3,-19c0,0,0,-42,-19,-85c0,0,-19,-43,-54,-84L25,-194c0,0,-10,-11,-25,-16c0,0,-15,-5,-43,-5Z" 
id="f3_nq"
transform="scale(0.001,-0.001)" />

<path d="M124,-6c0,0,-21,0,-35,3C89,-3,76,0,68,6c0,0,-7,7,-10,17c0,0,-3,10,-3,23c0,0,0,12,2,27c0,0,1,14,6,28c0,0,4,15,9,27c0,0,6,12,15,21c0,0,8,8,24,13c0,0,15,5,43,5c0,0,22,0,35,-4c0,0,13,-3,20,-10c0,0,8,-7,10,-17c0,0,3,-10,3,-22c0,0,0,-10,-2,-24c0,0,-2,-15,-5,-30c0,0,-4,-15,-10,-27c0,0,-5,-13,-14,-22c0,0,-9,-9,-26,-12c0,0,-16,-5,-41,-5Z" 
id="f3_nt"
transform="scale(0.001,-0.001)" />

<path d="M611,356L539,837h-1L277,356ZM19,-4c0,0,-21,0,-35,2c0,0,-13,2,-18,6c0,0,-6,5,-3,15c0,0,2,10,10,27L475,943c0,0,5,8,11,13c0,0,6,6,16,9c0,0,10,3,25,4c0,0,15,1,36,1c0,0,25,0,40,-1c0,0,15,-1,25,-4c0,0,9,-3,13,-9c0,0,3,-5,5,-14L791,45c0,0,2,-16,1,-26c0,0,-1,-10,-8,-16c0,0,-7,-4,-22,-5c0,0,-15,-2,-41,-2c0,0,-16,0,-28,1c0,0,-12,1,-18,3c0,0,-7,3,-10,7c0,0,-3,5,-3,11L626,253H223L97,20C97,20,94,13,89,8C89,8,84,3,75,0C75,0,67,-2,53,-3C53,-3,39,-4,19,-4Z" 
id="f3_5"
transform="scale(0.001,-0.001)" />

<path d="M296,-13c0,0,-121,0,-180,60c0,0,-59,62,-59,182c0,0,0,46,8,100c0,0,7,54,26,109c0,0,19,54,48,106c0,0,29,51,71,91c0,0,43,40,99,64c0,0,56,24,128,24c0,0,30,0,58,-5c0,0,27,-5,51,-13c0,0,25,-8,44,-20c0,0,20,-13,31,-22c0,0,11,-10,14,-17c0,0,3,-6,3,-14c0,0,0,-14,-3,-28c0,0,-3,-14,-8,-27c0,0,-5,-12,-12,-20c0,0,-8,-8,-17,-8c0,0,-10,0,-21,10c0,0,-12,11,-30,24c0,0,-18,14,-46,25c0,0,-28,11,-71,11c0,0,-48,0,-85,-20c0,0,-37,-20,-64,-51c0,0,-27,-32,-45,-72c0,0,-18,-40,-29,-81c0,0,-12,-41,-16,-80c0,0,-5,-38,-5,-66c0,0,0,-77,33,-117c0,0,34,-39,100,-39c0,0,49,0,84,12c0,0,34,12,58,27c0,0,25,15,40,27c0,0,16,12,28,12c0,0,6,0,9,-5c0,0,4,-6,4,-17c0,0,0,-8,-2,-21c0,0,-1,-12,-5,-25c0,0,-3,-13,-8,-24c0,0,-5,-12,-14,-21c0,0,-9,-9,-31,-23c0,0,-22,-13,-52,-24C430,11,401,0,366,-6c0,0,-34,-7,-70,-7Z" 
id="f3_7l"
transform="scale(0.001,-0.001)" />

<path d="M435,0V856c0,0,-48,-47,-127,-93c0,0,-79,-46,-142,-69V824c0,0,113,52,197,128c0,0,85,75,120,146h86V0Z" 
id="f4_l"
transform="scale(0.001,-0.001)" />

<path d="M420,92c0,0,92,0,155,89c0,0,64,89,64,358c0,0,0,270,-63,359c0,0,-63,89,-158,89c0,0,-92,0,-147,-79c0,0,-70,-100,-70,-369c0,0,0,-269,63,-358c0,0,63,-89,156,-89Zm0,-110c0,0,-158,0,-248,112C172,94,64,231,64,539c0,0,0,194,39,313c0,0,40,118,119,182c0,0,79,64,198,64c0,0,88,0,155,-35c0,0,66,-36,109,-103c0,0,43,-66,68,-162c0,0,24,-96,24,-259c0,0,0,-192,-39,-311C737,228,697,110,619,46c0,0,-79,-64,-199,-64Z" 
id="f4_k"
transform="scale(0.001,-0.001)" />


</defs>
</svg>