<?xml version="1.0" encoding="UTF-8" standalone="no"?>
<!DOCTYPE svg PUBLIC "-//W3C//DTD SVG 1.1//EN"
"http://www.w3.org/Graphics/SVG/1.1/DTD/svg11.dtd">
<svg viewBox="0 0 909 1286" version="1.1" xmlns="http://www.w3.org/2000/svg" xmlns:xlink="http://www.w3.org/1999/xlink">
<defs>
<clipPath id="c0_35"><path d="M0,1286.3V0H909.3V1286.3Z" /></clipPath>
</defs>
<g clip-path="url(#c0_35)">
<g fill="#000000" >
<use xlink:href="#f0_13" transform="matrix(12,0,0,12,55,486.4)" />
<use xlink:href="#f0_28" transform="matrix(12,0,0,12,67.5,486.4)" />
<use xlink:href="#f0_1x" transform="matrix(12,0,0,12,71.9,486.4)" />
<use xlink:href="#f0_2f" transform="matrix(12,0,0,12,80.3,486.4)" />
<use xlink:href="#f0_2f" transform="matrix(12,0,0,12,87.3,486.4)" />
<use xlink:href="#f0_25" transform="matrix(12,0,0,12,94.6,486.4)" />
<use xlink:href="#f0_22" transform="matrix(12,0,0,12,99.7,486.4)" />
<use xlink:href="#f0_25" transform="matrix(12,0,0,12,105.9,486.4)" />
<use xlink:href="#f0_21" transform="matrix(12,0,0,12,110.7,486.4)" />
<use xlink:href="#f0_20" transform="matrix(12,0,0,12,118.8,486.4)" />
<use xlink:href="#f0_25" transform="matrix(12,0,0,12,133,486.4)" />
<use xlink:href="#f0_2a" transform="matrix(12,0,0,12,137.8,486.4)" />
<use xlink:href="#f0_2g" transform="matrix(12,0,0,12,146.6,486.4)" />
<use xlink:href="#f0_2b" transform="matrix(12,0,0,12,152.1,486.4)" />
<use xlink:href="#f0_22" transform="matrix(12,0,0,12,166.4,486.4)" />
<use xlink:href="#f0_2b" transform="matrix(12,0,0,12,171.9,486.4)" />
<use xlink:href="#f0_2h" transform="matrix(12,0,0,12,181.4,486.4)" />
<use xlink:href="#f0_2e" transform="matrix(12,0,0,12,190.5,486.4)" />
<use xlink:href="#f0_1z" transform="matrix(12,0,0,12,201.4,486.4)" />
<use xlink:href="#f0_28" transform="matrix(12,0,0,12,209.8,486.4)" />
<use xlink:href="#f0_1x" transform="matrix(12,0,0,12,214.2,486.4)" />
<use xlink:href="#f0_2f" transform="matrix(12,0,0,12,222.3,486.4)" />
<use xlink:href="#f0_2f" transform="matrix(12,0,0,12,229.6,486.4)" />
<use xlink:href="#f0_21" transform="matrix(12,0,0,12,236.5,486.4)" />
<use xlink:href="#f0_2f" transform="matrix(12,0,0,12,244.6,486.4)" />
<use xlink:href="#f0_u" transform="matrix(12,0,0,12,251.6,486.4)" />
<use xlink:href="#f1_3d" transform="matrix(12,0,0,12,82.5,523.8)" />
<use xlink:href="#f0_l" transform="matrix(12,0,0,12,110,523.8)" />
<use xlink:href="#f0_i" transform="matrix(12,0,0,12,119.2,523.8)" />
<use xlink:href="#f0_13" transform="matrix(12,0,0,12,124,523.8)" />
<use xlink:href="#f0_2l" transform="matrix(12,0,0,12,136.4,523.8)" />
<use xlink:href="#f0_1z" transform="matrix(12,0,0,12,144.8,523.8)" />
<use xlink:href="#f0_1x" transform="matrix(12,0,0,12,152.9,523.8)" />
<use xlink:href="#f0_20" transform="matrix(12,0,0,12,161,523.8)" />
<use xlink:href="#f0_2b" transform="matrix(12,0,0,12,170.1,523.8)" />
<use xlink:href="#f0_2c" transform="matrix(12,0,0,12,179.6,523.8)" />
<use xlink:href="#f0_2f" transform="matrix(12,0,0,12,188.8,523.8)" />
<use xlink:href="#f0_25" transform="matrix(12,0,0,12,196.1,523.8)" />
<use xlink:href="#f0_20" transform="matrix(12,0,0,12,200.9,523.8)" />
<use xlink:href="#f0_1x" transform="matrix(12,0,0,12,210.1,523.8)" />
<use xlink:href="#f0_15" transform="matrix(12,0,0,12,223,523.8)" />
<use xlink:href="#f0_23" transform="matrix(12,0,0,12,234.4,523.8)" />
<use xlink:href="#f0_u" transform="matrix(12,0,0,12,243.5,523.8)" />
<use xlink:href="#f2_13" transform="matrix(12,0,0,12,253.5,523.8)" />
<use xlink:href="#f2_2l" transform="matrix(12,0,0,12,265.6,523.8)" />
<use xlink:href="#f2_1z" transform="matrix(12,0,0,12,273.6,523.8)" />
<use xlink:href="#f2_1x" transform="matrix(12,0,0,12,281.7,523.8)" />
<use xlink:href="#f2_2f" transform="matrix(12,0,0,12,290.9,523.8)" />
<use xlink:href="#f1_3d" transform="matrix(12,0,0,12,82.5,546.1)" />
<use xlink:href="#f0_m" transform="matrix(12,0,0,12,110,546.1)" />
<use xlink:href="#f0_i" transform="matrix(12,0,0,12,119.2,546.1)" />
<use xlink:href="#f0_13" transform="matrix(12,0,0,12,128.7,546.1)" />
<use xlink:href="#f0_2b" transform="matrix(12,0,0,12,140.5,546.1)" />
<use xlink:href="#f0_2a" transform="matrix(12,0,0,12,150,546.1)" />
<use xlink:href="#f0_25" transform="matrix(12,0,0,12,159.2,546.1)" />
<use xlink:href="#f0_22" transform="matrix(12,0,0,12,163.9,546.1)" />
<use xlink:href="#f0_21" transform="matrix(12,0,0,12,169.8,546.1)" />
<use xlink:href="#f0_2e" transform="matrix(12,0,0,12,177.9,546.1)" />
<use xlink:href="#f0_2b" transform="matrix(12,0,0,12,184.1,546.1)" />
<use xlink:href="#f0_2c" transform="matrix(12,0,0,12,193.6,546.1)" />
<use xlink:href="#f0_2f" transform="matrix(12,0,0,12,202.7,546.1)" />
<use xlink:href="#f0_25" transform="matrix(12,0,0,12,210.1,546.1)" />
<use xlink:href="#f0_20" transform="matrix(12,0,0,12,214.5,546.1)" />
<use xlink:href="#f0_1x" transform="matrix(12,0,0,12,223.6,546.1)" />
<use xlink:href="#f0_21" transform="matrix(12,0,0,12,236.6,546.1)" />
<use xlink:href="#f0_23" transform="matrix(12,0,0,12,244.6,546.1)" />
<use xlink:href="#f0_u" transform="matrix(12,0,0,12,253.8,546.1)" />
<use xlink:href="#f2_1g" transform="matrix(12,0,0,12,263.7,546.1)" />
<use xlink:href="#f2_25" transform="matrix(12,0,0,12,274.7,546.1)" />
<use xlink:href="#f2_2a" transform="matrix(12,0,0,12,279.8,546.1)" />
<use xlink:href="#f2_2h" transform="matrix(12,0,0,12,289,546.1)" />
<use xlink:href="#f2_2f" transform="matrix(12,0,0,12,298.2,546.1)" />
<use xlink:href="#f1_3d" transform="matrix(12,0,0,12,82.5,568.5)" />
<use xlink:href="#f0_n" transform="matrix(12,0,0,12,110,568.5)" />
<use xlink:href="#f0_i" transform="matrix(12,0,0,12,119.2,568.5)" />
<use xlink:href="#f0_17" transform="matrix(12,0,0,12,128.7,568.5)" />
<use xlink:href="#f0_2a" transform="matrix(12,0,0,12,142,568.5)" />
<use xlink:href="#f0_21" transform="matrix(12,0,0,12,150.7,568.5)" />
<use xlink:href="#f0_2g" transform="matrix(12,0,0,12,158.8,568.5)" />
<use xlink:href="#f0_2b" transform="matrix(12,0,0,12,163.9,568.5)" />
<use xlink:href="#f0_2c" transform="matrix(12,0,0,12,173.5,568.5)" />
<use xlink:href="#f0_2f" transform="matrix(12,0,0,12,182.6,568.5)" />
<use xlink:href="#f0_25" transform="matrix(12,0,0,12,189.9,568.5)" />
<use xlink:href="#f0_20" transform="matrix(12,0,0,12,194.3,568.5)" />
<use xlink:href="#f0_1x" transform="matrix(12,0,0,12,203.5,568.5)" />
<use xlink:href="#f0_u" transform="matrix(12,0,0,12,211.6,568.5)" />
<use xlink:href="#f0_15" transform="matrix(12,0,0,12,221.5,568.5)" />
<use xlink:href="#f0_23" transform="matrix(12,0,0,12,232.9,568.5)" />
<use xlink:href="#f0_u" transform="matrix(12,0,0,12,242.1,568.5)" />
<use xlink:href="#f2_17" transform="matrix(12,0,0,12,252,568.5)" />
<use xlink:href="#f2_2a" transform="matrix(12,0,0,12,265.2,568.5)" />
<use xlink:href="#f2_21" transform="matrix(12,0,0,12,274.4,568.5)" />
<use xlink:href="#f2_2g" transform="matrix(12,0,0,12,282.4,568.5)" />
<use xlink:href="#f2_2h" transform="matrix(12,0,0,12,287.5,568.5)" />
<use xlink:href="#f2_29" transform="matrix(12,0,0,12,296.7,568.5)" />
<use xlink:href="#f0_i" transform="matrix(12,0,0,12,309.9,568.5)" />
<use xlink:href="#f1_3d" transform="matrix(12,0,0,12,82.5,590.9)" />
<use xlink:href="#f0_o" transform="matrix(12,0,0,12,110,590.9)" />
<use xlink:href="#f0_i" transform="matrix(12,0,0,12,119.2,590.9)" />
<use xlink:href="#f0_17" transform="matrix(12,0,0,12,128.7,590.9)" />
<use xlink:href="#f0_25" transform="matrix(12,0,0,12,142,590.9)" />
<use xlink:href="#f0_2a" transform="matrix(12,0,0,12,146.7,590.9)" />
<use xlink:href="#f0_23" transform="matrix(12,0,0,12,155.5,590.9)" />
<use xlink:href="#f0_2b" transform="matrix(12,0,0,12,164.7,590.9)" />
<use xlink:href="#f0_2c" transform="matrix(12,0,0,12,174.2,590.9)" />
<use xlink:href="#f0_2f" transform="matrix(12,0,0,12,183.4,590.9)" />
<use xlink:href="#f0_25" transform="matrix(12,0,0,12,190.7,590.9)" />
<use xlink:href="#f0_20" transform="matrix(12,0,0,12,195.1,590.9)" />
<use xlink:href="#f0_1x" transform="matrix(12,0,0,12,204.2,590.9)" />
<use xlink:href="#f0_h" transform="matrix(12,0,0,12,212.4,590.9)" />
<use xlink:href="#f2_17" transform="matrix(12,0,0,12,223.4,590.9)" />
<use xlink:href="#f2_25" transform="matrix(12,0,0,12,236.6,590.9)" />
<use xlink:href="#f2_2a" transform="matrix(12,0,0,12,241.7,590.9)" />
<use xlink:href="#f2_27" transform="matrix(12,0,0,12,250.9,590.9)" />
<use xlink:href="#f2_2b" transform="matrix(12,0,0,12,258.9,590.9)" />
<use xlink:href="#f3_15" transform="matrix(12,0,0,12,55,930.1)" />
<use xlink:href="#f3_1z" transform="matrix(12,0,0,12,67.1,930.1)" />
<use xlink:href="#f3_2b" transform="matrix(12,0,0,12,75.2,930.1)" />
<use xlink:href="#f3_2a" transform="matrix(12,0,0,12,84.4,930.1)" />
<use xlink:href="#f3_2b" transform="matrix(12,0,0,12,94.6,930.1)" />
<use xlink:href="#f3_29" transform="matrix(12,0,0,12,103.8,930.1)" />
<use xlink:href="#f3_25" transform="matrix(12,0,0,12,118.8,930.1)" />
<use xlink:href="#f3_1z" transform="matrix(12,0,0,12,123.9,930.1)" />
<use xlink:href="#f3_25" transform="matrix(12,0,0,12,136.8,930.1)" />
<use xlink:href="#f3_29" transform="matrix(12,0,0,12,141.9,930.1)" />
<use xlink:href="#f3_2c" transform="matrix(12,0,0,12,156.9,930.1)" />
<use xlink:href="#f3_2b" transform="matrix(12,0,0,12,167.2,930.1)" />
<use xlink:href="#f3_2e" transform="matrix(12,0,0,12,176.7,930.1)" />
<use xlink:href="#f3_2g" transform="matrix(12,0,0,12,184.4,930.1)" />
<use xlink:href="#f3_1x" transform="matrix(12,0,0,12,190.6,930.1)" />
<use xlink:href="#f3_2a" transform="matrix(12,0,0,12,199.8,930.1)" />
<use xlink:href="#f3_1z" transform="matrix(12,0,0,12,210,930.1)" />
<use xlink:href="#f3_21" transform="matrix(12,0,0,12,218.1,930.1)" />
<use xlink:href="#f3_u" transform="matrix(12,0,0,12,226.2,930.1)" />
<use xlink:href="#f0_1k" transform="matrix(12,0,0,12,55,966.4)" />
<use xlink:href="#f0_25" transform="matrix(12,0,0,12,66.4,966.4)" />
<use xlink:href="#f0_29" transform="matrix(12,0,0,12,71.2,966.4)" />
<use xlink:href="#f0_1y" transform="matrix(12,0,0,12,85.1,966.4)" />
<use xlink:href="#f0_21" transform="matrix(12,0,0,12,94.3,966.4)" />
<use xlink:href="#f0_2e" transform="matrix(12,0,0,12,102.3,966.4)" />
<use xlink:href="#f0_2f" transform="matrix(12,0,0,12,108.9,966.4)" />
<use xlink:href="#f0_22" transform="matrix(12,0,0,12,121,966.4)" />
<use xlink:href="#f0_2b" transform="matrix(12,0,0,12,126.5,966.4)" />
<use xlink:href="#f0_2e" transform="matrix(12,0,0,12,136,966.4)" />
<use xlink:href="#f0_22" transform="matrix(12,0,0,12,147.1,966.4)" />
<use xlink:href="#f0_2h" transform="matrix(12,0,0,12,152.6,966.4)" />
<use xlink:href="#f0_2e" transform="matrix(12,0,0,12,161.8,966.4)" />
<use xlink:href="#f0_2a" transform="matrix(12,0,0,12,168,966.4)" />
<use xlink:href="#f0_25" transform="matrix(12,0,0,12,177.2,966.4)" />
<use xlink:href="#f0_2g" transform="matrix(12,0,0,12,181.6,966.4)" />
<use xlink:href="#f0_2h" transform="matrix(12,0,0,12,187,966.4)" />
<use xlink:href="#f0_2e" transform="matrix(12,0,0,12,196.2,966.4)" />
<use xlink:href="#f0_21" transform="matrix(12,0,0,12,202.4,966.4)" />
<use xlink:href="#f0_g" transform="matrix(12,0,0,12,210.5,966.4)" />
<use xlink:href="#f0_1g" transform="matrix(12,0,0,12,220.1,966.4)" />
<use xlink:href="#f0_2h" transform="matrix(12,0,0,12,230.3,966.4)" />
<use xlink:href="#f0_28" transform="matrix(12,0,0,12,239.5,966.4)" />
<use xlink:href="#f0_2c" transform="matrix(12,0,0,12,243.9,966.4)" />
<use xlink:href="#f0_2j" transform="matrix(12,0,0,12,257.9,966.4)" />
<use xlink:href="#f0_2b" transform="matrix(12,0,0,12,271.1,966.4)" />
<use xlink:href="#f0_2b" transform="matrix(12,0,0,12,280.6,966.4)" />
<use xlink:href="#f0_20" transform="matrix(12,0,0,12,290.1,966.4)" />
<use xlink:href="#f0_g" transform="matrix(12,0,0,12,299.3,966.4)" />
<use xlink:href="#f0_1g" transform="matrix(12,0,0,12,308.4,966.4)" />
<use xlink:href="#f0_21" transform="matrix(12,0,0,12,318.7,966.4)" />
<use xlink:href="#f0_2a" transform="matrix(12,0,0,12,326.7,966.4)" />
<use xlink:href="#f0_1z" transform="matrix(12,0,0,12,335.5,966.4)" />
<use xlink:href="#f0_25" transform="matrix(12,0,0,12,343.9,966.4)" />
<use xlink:href="#f0_28" transform="matrix(12,0,0,12,348.7,966.4)" />
<use xlink:href="#f0_1y" transform="matrix(12,0,0,12,358.8,966.4)" />
<use xlink:href="#f0_2b" transform="matrix(12,0,0,12,367.6,966.4)" />
<use xlink:href="#f0_2k" transform="matrix(12,0,0,12,377.1,966.4)" />
<use xlink:href="#f0_g" transform="matrix(12,0,0,12,385.9,966.4)" />
<use xlink:href="#f0_1d" transform="matrix(12,0,0,12,395.4,966.4)" />
<use xlink:href="#f0_2h" transform="matrix(12,0,0,12,411.6,966.4)" />
<use xlink:href="#f0_2f" transform="matrix(12,0,0,12,420.7,966.4)" />
<use xlink:href="#f0_25" transform="matrix(12,0,0,12,427.7,966.4)" />
<use xlink:href="#f0_1z" transform="matrix(12,0,0,12,432.5,966.4)" />
<use xlink:href="#f0_1x" transform="matrix(12,0,0,12,440.5,966.4)" />
<use xlink:href="#f0_28" transform="matrix(12,0,0,12,448.9,966.4)" />
<use xlink:href="#f0_25" transform="matrix(12,0,0,12,458.8,966.4)" />
<use xlink:href="#f0_2a" transform="matrix(12,0,0,12,463.6,966.4)" />
<use xlink:href="#f0_2f" transform="matrix(12,0,0,12,472.7,966.4)" />
<use xlink:href="#f0_2g" transform="matrix(12,0,0,12,479.7,966.4)" />
<use xlink:href="#f0_2e" transform="matrix(12,0,0,12,485.2,966.4)" />
<use xlink:href="#f0_2h" transform="matrix(12,0,0,12,491.4,966.4)" />
<use xlink:href="#f0_29" transform="matrix(12,0,0,12,500.6,966.4)" />
<use xlink:href="#f0_21" transform="matrix(12,0,0,12,514.5,966.4)" />
<use xlink:href="#f0_2a" transform="matrix(12,0,0,12,522.9,966.4)" />
<use xlink:href="#f0_2g" transform="matrix(12,0,0,12,531.7,966.4)" />
<use xlink:href="#f0_2f" transform="matrix(12,0,0,12,537.2,966.4)" />
<use xlink:href="#f0_21" transform="matrix(12,0,0,12,548.9,966.4)" />
<use xlink:href="#f0_2g" transform="matrix(12,0,0,12,557,966.4)" />
<use xlink:href="#f0_1z" transform="matrix(12,0,0,12,562.5,966.4)" />
<use xlink:href="#f0_i" transform="matrix(12,0,0,12,570.2,966.4)" />
<use xlink:href="#f0_1g" transform="matrix(12,0,0,12,55,1003.1)" />
<use xlink:href="#f0_2e" transform="matrix(12,0,0,12,65.3,1003.1)" />
<use xlink:href="#f0_2b" transform="matrix(12,0,0,12,71.2,1003.1)" />
<use xlink:href="#f0_20" transform="matrix(12,0,0,12,80.7,1003.1)" />
<use xlink:href="#f0_2h" transform="matrix(12,0,0,12,89.8,1003.1)" />
<use xlink:href="#f0_1z" transform="matrix(12,0,0,12,99,1003.1)" />
<use xlink:href="#f0_2g" transform="matrix(12,0,0,12,107.1,1003.1)" />
<use xlink:href="#f0_25" transform="matrix(12,0,0,12,112.5,1003.1)" />
<use xlink:href="#f0_2b" transform="matrix(12,0,0,12,116.9,1003.1)" />
<use xlink:href="#f0_2a" transform="matrix(12,0,0,12,126.5,1003.1)" />
<use xlink:href="#f0_2b" transform="matrix(12,0,0,12,140,1003.1)" />
<use xlink:href="#f0_22" transform="matrix(12,0,0,12,149.5,1003.1)" />
<use xlink:href="#f0_2e" transform="matrix(12,0,0,12,159.8,1003.1)" />
<use xlink:href="#f0_21" transform="matrix(12,0,0,12,166,1003.1)" />
<use xlink:href="#f0_2f" transform="matrix(12,0,0,12,174.1,1003.1)" />
<use xlink:href="#f0_25" transform="matrix(12,0,0,12,181.4,1003.1)" />
<use xlink:href="#f0_2a" transform="matrix(12,0,0,12,186.1,1003.1)" />
<use xlink:href="#f0_2f" transform="matrix(12,0,0,12,195.3,1003.1)" />
<use xlink:href="#f0_g" transform="matrix(12,0,0,12,202.3,1003.1)" />
<use xlink:href="#f0_1k" transform="matrix(12,0,0,12,212,1003.1)" />
<use xlink:href="#f0_2h" transform="matrix(12,0,0,12,223.4,1003.1)" />
<use xlink:href="#f0_2e" transform="matrix(12,0,0,12,232.5,1003.1)" />
<use xlink:href="#f0_2c" transform="matrix(12,0,0,12,238.7,1003.1)" />
<use xlink:href="#f0_21" transform="matrix(12,0,0,12,247.9,1003.1)" />
<use xlink:href="#f0_2a" transform="matrix(12,0,0,12,256,1003.1)" />
<use xlink:href="#f0_2g" transform="matrix(12,0,0,12,264.8,1003.1)" />
<use xlink:href="#f0_25" transform="matrix(12,0,0,12,270.3,1003.1)" />
<use xlink:href="#f0_2a" transform="matrix(12,0,0,12,275,1003.1)" />
<use xlink:href="#f0_21" transform="matrix(12,0,0,12,283.8,1003.1)" />
<use xlink:href="#f0_21" transform="matrix(12,0,0,12,296.7,1003.1)" />
<use xlink:href="#f0_2g" transform="matrix(12,0,0,12,304.8,1003.1)" />
<use xlink:href="#f0_1z" transform="matrix(12,0,0,12,310.3,1003.1)" />
<use xlink:href="#f0_i" transform="matrix(12,0,0,12,318.4,1003.1)" />
<use xlink:href="#f0_h" transform="matrix(12,0,0,12,323.1,1003.1)" />
<use xlink:href="#f0_15" transform="matrix(12,0,0,12,329,1003.1)" />
<use xlink:href="#f0_i" transform="matrix(12,0,0,12,340.4,1003.1)" />
<use xlink:href="#f0_23" transform="matrix(12,0,0,12,345.1,1003.1)" />
<use xlink:href="#f0_i" transform="matrix(12,0,0,12,353.9,1003.1)" />
<use xlink:href="#f0_h" transform="matrix(12,0,0,12,358.8,1003.1)" />
<use xlink:href="#f2_1g" transform="matrix(12,0,0,12,365,1003.1)" />
<use xlink:href="#f2_25" transform="matrix(12,0,0,12,376,1003.1)" />
<use xlink:href="#f2_2a" transform="matrix(12,0,0,12,381.1,1003.1)" />
<use xlink:href="#f2_2h" transform="matrix(12,0,0,12,390.2,1003.1)" />
<use xlink:href="#f2_2f" transform="matrix(12,0,0,12,399.4,1003.1)" />
<use xlink:href="#f0_15" transform="matrix(12,0,0,12,55,1039.4)" />
<use xlink:href="#f0_20" transform="matrix(12,0,0,12,66.4,1039.4)" />
<use xlink:href="#f0_25" transform="matrix(12,0,0,12,75.6,1039.4)" />
<use xlink:href="#f0_1y" transform="matrix(12,0,0,12,80.3,1039.4)" />
<use xlink:href="#f0_28" transform="matrix(12,0,0,12,89.5,1039.4)" />
<use xlink:href="#f0_21" transform="matrix(12,0,0,12,94.3,1039.4)" />
<use xlink:href="#f0_2f" transform="matrix(12,0,0,12,107.1,1039.4)" />
<use xlink:href="#f0_21" transform="matrix(12,0,0,12,114.4,1039.4)" />
<use xlink:href="#f0_21" transform="matrix(12,0,0,12,122.4,1039.4)" />
<use xlink:href="#f0_20" transform="matrix(12,0,0,12,130.5,1039.4)" />
<use xlink:href="#f0_2f" transform="matrix(12,0,0,12,139.7,1039.4)" />
<use xlink:href="#f0_u" transform="matrix(12,0,0,12,146.6,1039.4)" />
<use xlink:href="#f0_15" transform="matrix(12,0,0,12,156.5,1039.4)" />
<use xlink:href="#f0_23" transform="matrix(12,0,0,12,167.9,1039.4)" />
<use xlink:href="#f0_h" transform="matrix(12,0,0,12,177.2,1039.4)" />
<use xlink:href="#f2_13" transform="matrix(12,0,0,12,188.2,1039.4)" />
<use xlink:href="#f2_2l" transform="matrix(12,0,0,12,200.3,1039.4)" />
<use xlink:href="#f2_1z" transform="matrix(12,0,0,12,208.3,1039.4)" />
<use xlink:href="#f2_1x" transform="matrix(12,0,0,12,216.4,1039.4)" />
<use xlink:href="#f2_2f" transform="matrix(12,0,0,12,225.6,1039.4)" />
<use xlink:href="#f2_g" transform="matrix(12,0,0,12,232.5,1039.4)" />
<use xlink:href="#f2_1g" transform="matrix(12,0,0,12,242.1,1039.4)" />
<use xlink:href="#f2_25" transform="matrix(12,0,0,12,253.1,1039.4)" />
<use xlink:href="#f2_2a" transform="matrix(12,0,0,12,258.2,1039.4)" />
<use xlink:href="#f2_2h" transform="matrix(12,0,0,12,267.4,1039.4)" />
<use xlink:href="#f2_2f" transform="matrix(12,0,0,12,276.5,1039.4)" />
<use xlink:href="#f2_g" transform="matrix(12,0,0,12,283.5,1039.4)" />
<use xlink:href="#f2_17" transform="matrix(12,0,0,12,293.1,1039.4)" />
<use xlink:href="#f2_25" transform="matrix(12,0,0,12,306.3,1039.4)" />
<use xlink:href="#f2_2a" transform="matrix(12,0,0,12,311.4,1039.4)" />
<use xlink:href="#f2_27" transform="matrix(12,0,0,12,320.6,1039.4)" />
<use xlink:href="#f2_23" transform="matrix(12,0,0,12,328.6,1039.4)" />
<use xlink:href="#f2_2b" transform="matrix(12,0,0,12,337.8,1039.4)" />
<use xlink:href="#f0_i" transform="matrix(12,0,0,12,347,1039.4)" />
<use xlink:href="#f0_1d" transform="matrix(12,0,0,12,55,1075.7)" />
<use xlink:href="#f0_21" transform="matrix(12,0,0,12,71.2,1075.7)" />
<use xlink:href="#f0_20" transform="matrix(12,0,0,12,79.2,1075.7)" />
<use xlink:href="#f0_25" transform="matrix(12,0,0,12,88.8,1075.7)" />
<use xlink:href="#f0_1z" transform="matrix(12,0,0,12,93.5,1075.7)" />
<use xlink:href="#f0_25" transform="matrix(12,0,0,12,101.9,1075.7)" />
<use xlink:href="#f0_2a" transform="matrix(12,0,0,12,106.7,1075.7)" />
<use xlink:href="#f0_1x" transform="matrix(12,0,0,12,115.9,1075.7)" />
<use xlink:href="#f0_28" transform="matrix(12,0,0,12,124.3,1075.7)" />
<use xlink:href="#f0_15" transform="matrix(12,0,0,12,133.4,1075.7)" />
<use xlink:href="#f0_23" transform="matrix(12,0,0,12,144.8,1075.7)" />
<use xlink:href="#f0_u" transform="matrix(12,0,0,12,153.9,1075.7)" />
<use xlink:href="#f0_15" transform="matrix(12,0,0,12,163.8,1075.7)" />
<use xlink:href="#f0_2c" transform="matrix(12,0,0,12,175.2,1075.7)" />
<use xlink:href="#f0_24" transform="matrix(12,0,0,12,184.3,1075.7)" />
<use xlink:href="#f0_21" transform="matrix(12,0,0,12,193.1,1075.7)" />
<use xlink:href="#f0_20" transform="matrix(12,0,0,12,201.2,1075.7)" />
<use xlink:href="#f0_2e" transform="matrix(12,0,0,12,210.4,1075.7)" />
<use xlink:href="#f0_25" transform="matrix(12,0,0,12,217,1075.7)" />
<use xlink:href="#f0_2a" transform="matrix(12,0,0,12,221.7,1075.7)" />
<use xlink:href="#f0_21" transform="matrix(12,0,0,12,230.9,1075.7)" />
<use xlink:href="#f0_22" transform="matrix(12,0,0,12,244.1,1075.7)" />
<use xlink:href="#f0_2e" transform="matrix(12,0,0,12,249.6,1075.7)" />
<use xlink:href="#f0_2b" transform="matrix(12,0,0,12,255.8,1075.7)" />
<use xlink:href="#f0_29" transform="matrix(12,0,0,12,265.3,1075.7)" />
<use xlink:href="#f2_15" transform="matrix(12,0,0,12,283.9,1075.7)" />
<use xlink:href="#f2_2c" transform="matrix(12,0,0,12,295.3,1075.7)" />
<use xlink:href="#f2_24" transform="matrix(12,0,0,12,304.4,1075.7)" />
<use xlink:href="#f2_21" transform="matrix(12,0,0,12,313.6,1075.7)" />
<use xlink:href="#f2_20" transform="matrix(12,0,0,12,321.7,1075.7)" />
<use xlink:href="#f2_2e" transform="matrix(12,0,0,12,330.8,1075.7)" />
<use xlink:href="#f2_1x" transform="matrix(12,0,0,12,337.8,1075.7)" />
<use xlink:href="#f0_c" transform="matrix(12,0,0,12,351.8,1075.7)" />
<use xlink:href="#f0_2h" transform="matrix(12,0,0,12,358,1075.7)" />
<use xlink:href="#f0_2f" transform="matrix(12,0,0,12,367.2,1075.7)" />
<use xlink:href="#f0_21" transform="matrix(12,0,0,12,374.1,1075.7)" />
<use xlink:href="#f0_20" transform="matrix(12,0,0,12,382.2,1075.7)" />
<use xlink:href="#f0_22" transform="matrix(12,0,0,12,396.5,1075.7)" />
<use xlink:href="#f0_2b" transform="matrix(12,0,0,12,402,1075.7)" />
<use xlink:href="#f0_2e" transform="matrix(12,0,0,12,411.5,1075.7)" />
<use xlink:href="#f0_2e" transform="matrix(12,0,0,12,422.5,1075.7)" />
<use xlink:href="#f0_21" transform="matrix(12,0,0,12,428.4,1075.7)" />
<use xlink:href="#f0_2f" transform="matrix(12,0,0,12,436.4,1075.7)" />
<use xlink:href="#f0_2c" transform="matrix(12,0,0,12,443.4,1075.7)" />
<use xlink:href="#f0_25" transform="matrix(12,0,0,12,452.9,1075.7)" />
<use xlink:href="#f0_2e" transform="matrix(12,0,0,12,457.3,1075.7)" />
<use xlink:href="#f0_1x" transform="matrix(12,0,0,12,463.5,1075.7)" />
<use xlink:href="#f0_2g" transform="matrix(12,0,0,12,471.6,1075.7)" />
<use xlink:href="#f0_2b" transform="matrix(12,0,0,12,477.1,1075.7)" />
<use xlink:href="#f0_2e" transform="matrix(12,0,0,12,486.6,1075.7)" />
<use xlink:href="#f0_2l" transform="matrix(12,0,0,12,492.8,1075.7)" />
<use xlink:href="#f0_2c" transform="matrix(12,0,0,12,506,1075.7)" />
<use xlink:href="#f0_2e" transform="matrix(12,0,0,12,515.2,1075.7)" />
<use xlink:href="#f0_2b" transform="matrix(12,0,0,12,521.4,1075.7)" />
<use xlink:href="#f0_1y" transform="matrix(12,0,0,12,530.9,1075.7)" />
<use xlink:href="#f0_28" transform="matrix(12,0,0,12,540.1,1075.7)" />
<use xlink:href="#f0_21" transform="matrix(12,0,0,12,544.5,1075.7)" />
<use xlink:href="#f0_29" transform="matrix(12,0,0,12,552.9,1075.7)" />
<use xlink:href="#f0_2f" transform="matrix(12,0,0,12,566.8,1075.7)" />
<use xlink:href="#f0_d" transform="matrix(12,0,0,12,574,1075.7)" />
<use xlink:href="#f0_1k" transform="matrix(12,0,0,12,55,1112)" />
<use xlink:href="#f0_1x" transform="matrix(12,0,0,12,66.4,1112)" />
<use xlink:href="#f0_2k" transform="matrix(12,0,0,12,74.5,1112)" />
<use xlink:href="#f0_2b" transform="matrix(12,0,0,12,83.3,1112)" />
<use xlink:href="#f0_28" transform="matrix(12,0,0,12,93.1,1112)" />
<use xlink:href="#f4_4y" transform="matrix(12,0,0,12,102.3,1112)" />
<use xlink:href="#f0_22" transform="matrix(12,0,0,12,116.3,1112)" />
<use xlink:href="#f0_2e" transform="matrix(12,0,0,12,121.8,1112)" />
<use xlink:href="#f0_2b" transform="matrix(12,0,0,12,128,1112)" />
<use xlink:href="#f0_29" transform="matrix(12,0,0,12,137.9,1112)" />
<use xlink:href="#f2_1k" transform="matrix(12,0,0,12,156.3,1112)" />
<use xlink:href="#f2_1x" transform="matrix(12,0,0,12,166.5,1112)" />
<use xlink:href="#f2_2k" transform="matrix(12,0,0,12,175.7,1112)" />
<use xlink:href="#f2_2h" transform="matrix(12,0,0,12,183.8,1112)" />
<use xlink:href="#f2_2f" transform="matrix(12,0,0,12,192.9,1112)" />
<use xlink:href="#f0_2f" transform="matrix(12,0,0,12,204.7,1112)" />
<use xlink:href="#f0_2c" transform="matrix(12,0,0,12,211.6,1112)" />
<use xlink:href="#f0_21" transform="matrix(12,0,0,12,220.8,1112)" />
<use xlink:href="#f0_1z" transform="matrix(12,0,0,12,228.9,1112)" />
<use xlink:href="#f0_25" transform="matrix(12,0,0,12,237.3,1112)" />
<use xlink:href="#f0_21" transform="matrix(12,0,0,12,242.1,1112)" />
<use xlink:href="#f0_2f" transform="matrix(12,0,0,12,250.5,1112)" />
<use xlink:href="#f0_2g" transform="matrix(12,0,0,12,262.2,1112)" />
<use xlink:href="#f0_2b" transform="matrix(12,0,0,12,267.3,1112)" />
<use xlink:href="#f0_22" transform="matrix(12,0,0,12,281.2,1112)" />
<use xlink:href="#f0_2e" transform="matrix(12,0,0,12,286.7,1112)" />
<use xlink:href="#f0_21" transform="matrix(12,0,0,12,293,1112)" />
<use xlink:href="#f0_21" transform="matrix(12,0,0,12,301,1112)" />
<use xlink:href="#f0_2m" transform="matrix(12,0,0,12,309.1,1112)" />
<use xlink:href="#f0_21" transform="matrix(12,0,0,12,317.5,1112)" />
<use xlink:href="#f0_1z" transform="matrix(12,0,0,12,330.3,1112)" />
<use xlink:href="#f0_1x" transform="matrix(12,0,0,12,338.4,1112)" />
<use xlink:href="#f0_2a" transform="matrix(12,0,0,12,346.4,1112)" />
<use xlink:href="#f0_1z" transform="matrix(12,0,0,12,355.6,1112)" />
<use xlink:href="#f0_21" transform="matrix(12,0,0,12,363.7,1112)" />
<use xlink:href="#f0_2e" transform="matrix(12,0,0,12,371.7,1112)" />
<use xlink:href="#f0_1z" transform="matrix(12,0,0,12,382.7,1112)" />
<use xlink:href="#f0_21" transform="matrix(12,0,0,12,390.8,1112)" />
<use xlink:href="#f0_28" transform="matrix(12,0,0,12,399.2,1112)" />
<use xlink:href="#f0_28" transform="matrix(12,0,0,12,404,1112)" />
<use xlink:href="#f0_2f" transform="matrix(12,0,0,12,408.7,1112)" />
<use xlink:href="#f0_i" transform="matrix(12,0,0,12,415.7,1112)" />
<use xlink:href="#f3_13" transform="matrix(12,0,0,12,55,1148.3)" />
<use xlink:href="#f3_2b" transform="matrix(12,0,0,12,68.3,1148.3)" />
<use xlink:href="#f3_29" transform="matrix(12,0,0,12,77.4,1148.3)" />
<use xlink:href="#f3_29" transform="matrix(12,0,0,12,92.4,1148.3)" />
<use xlink:href="#f3_2b" transform="matrix(12,0,0,12,107.5,1148.3)" />
<use xlink:href="#f3_2a" transform="matrix(12,0,0,12,116.6,1148.3)" />
<use xlink:href="#f3_2a" transform="matrix(12,0,0,12,131.6,1148.3)" />
<use xlink:href="#f3_1x" transform="matrix(12,0,0,12,141.9,1148.3)" />
<use xlink:href="#f3_29" transform="matrix(12,0,0,12,151,1148.3)" />
<use xlink:href="#f3_21" transform="matrix(12,0,0,12,166.1,1148.3)" />
<use xlink:href="#f3_2f" transform="matrix(12,0,0,12,174.5,1148.3)" />
<use xlink:href="#f3_u" transform="matrix(12,0,0,12,181.5,1148.3)" />
<use xlink:href="#f0_1d" transform="matrix(12,0,0,12,55,1184.7)" />
<use xlink:href="#f0_1x" transform="matrix(12,0,0,12,71.2,1184.7)" />
<use xlink:href="#f0_25" transform="matrix(12,0,0,12,79.6,1184.7)" />
<use xlink:href="#f0_20" transform="matrix(12,0,0,12,84.4,1184.7)" />
<use xlink:href="#f0_21" transform="matrix(12,0,0,12,93.5,1184.7)" />
<use xlink:href="#f0_2a" transform="matrix(12,0,0,12,101.9,1184.7)" />
<use xlink:href="#f0_24" transform="matrix(12,0,0,12,115.5,1184.7)" />
<use xlink:href="#f0_1x" transform="matrix(12,0,0,12,124.3,1184.7)" />
<use xlink:href="#f0_25" transform="matrix(12,0,0,12,132.7,1184.7)" />
<use xlink:href="#f0_2e" transform="matrix(12,0,0,12,137.5,1184.7)" />
<use xlink:href="#f0_2g" transform="matrix(12,0,0,12,148.4,1184.7)" />
<use xlink:href="#f0_2e" transform="matrix(12,0,0,12,153.9,1184.7)" />
<use xlink:href="#f0_21" transform="matrix(12,0,0,12,160.1,1184.7)" />
<use xlink:href="#f0_21" transform="matrix(12,0,0,12,168.2,1184.7)" />
<use xlink:href="#f0_h" transform="matrix(12,0,0,12,176.4,1184.7)" />
<use xlink:href="#f2_17" transform="matrix(12,0,0,12,187.1,1184.7)" />
<use xlink:href="#f2_25" transform="matrix(12,0,0,12,200.3,1184.7)" />
<use xlink:href="#f2_2a" transform="matrix(12,0,0,12,205.4,1184.7)" />
<use xlink:href="#f2_27" transform="matrix(12,0,0,12,214.6,1184.7)" />
<use xlink:href="#f2_23" transform="matrix(12,0,0,12,222.6,1184.7)" />
<use xlink:href="#f2_2b" transform="matrix(12,0,0,12,231.8,1184.7)" />
<use xlink:href="#f0_1j" transform="matrix(12,0,0,12,55,1221.3)" />
<use xlink:href="#f0_1x" transform="matrix(12,0,0,12,65.3,1221.3)" />
<use xlink:href="#f0_23" transform="matrix(12,0,0,12,73.4,1221.3)" />
<use xlink:href="#f0_2b" transform="matrix(12,0,0,12,82.5,1221.3)" />
<use xlink:href="#f0_2c" transform="matrix(12,0,0,12,96.4,1221.3)" />
<use xlink:href="#f0_1x" transform="matrix(12,0,0,12,105.6,1221.3)" />
<use xlink:href="#f0_28" transform="matrix(12,0,0,12,114,1221.3)" />
<use xlink:href="#f0_29" transform="matrix(12,0,0,12,118.8,1221.3)" />
<use xlink:href="#f0_j" transform="matrix(12,0,0,12,137.1,1221.3)" />
<use xlink:href="#f0_1g" transform="matrix(12,0,0,12,142.2,1221.3)" />
<use xlink:href="#f0_1x" transform="matrix(12,0,0,12,152.5,1221.3)" />
<use xlink:href="#f0_2a" transform="matrix(12,0,0,12,160.9,1221.3)" />
<use xlink:href="#f0_20" transform="matrix(12,0,0,12,169.7,1221.3)" />
<use xlink:href="#f0_1x" transform="matrix(12,0,0,12,178.9,1221.3)" />
<use xlink:href="#f0_2b" transform="matrix(12,0,0,12,191.7,1221.3)" />
<use xlink:href="#f0_22" transform="matrix(12,0,0,12,201.2,1221.3)" />
<use xlink:href="#f0_2g" transform="matrix(12,0,0,12,211.4,1221.3)" />
<use xlink:href="#f0_24" transform="matrix(12,0,0,12,216.9,1221.3)" />
<use xlink:href="#f0_21" transform="matrix(12,0,0,12,225.7,1221.3)" />
<use xlink:href="#f0_2c" transform="matrix(12,0,0,12,238.5,1221.3)" />
<use xlink:href="#f0_28" transform="matrix(12,0,0,12,248.1,1221.3)" />
<use xlink:href="#f0_1x" transform="matrix(12,0,0,12,252.5,1221.3)" />
<use xlink:href="#f0_2a" transform="matrix(12,0,0,12,260.9,1221.3)" />
<use xlink:href="#f0_2g" transform="matrix(12,0,0,12,269.7,1221.3)" />
<use xlink:href="#f0_27" transform="matrix(12,0,0,12,279.9,1221.3)" />
<use xlink:href="#f0_25" transform="matrix(12,0,0,12,289.4,1221.3)" />
<use xlink:href="#f0_2a" transform="matrix(12,0,0,12,294.2,1221.3)" />
<use xlink:href="#f0_23" transform="matrix(12,0,0,12,303,1221.3)" />
<use xlink:href="#f0_20" transform="matrix(12,0,0,12,312.1,1221.3)" />
<use xlink:href="#f0_2b" transform="matrix(12,0,0,12,321.3,1221.3)" />
<use xlink:href="#f0_29" transform="matrix(12,0,0,12,330.8,1221.3)" />
<use xlink:href="#f0_h" transform="matrix(12,0,0,12,344.8,1221.3)" />
<use xlink:href="#f2_13" transform="matrix(12,0,0,12,355.8,1221.3)" />
<use xlink:href="#f2_2l" transform="matrix(12,0,0,12,367.9,1221.3)" />
<use xlink:href="#f2_1z" transform="matrix(12,0,0,12,376,1221.3)" />
<use xlink:href="#f2_1x" transform="matrix(12,0,0,12,384.1,1221.3)" />
<use xlink:href="#f2_2f" transform="matrix(12,0,0,12,393.6,1221.3)" />
</g>
</g>
<image preserveAspectRatio="none" x="57" y="55" width="385" height="399" xlink:href="img/1.png" />
<image preserveAspectRatio="none" x="112" y="595" width="501" height="266" xlink:href="img/2.png" />
<g fill="#000000" >
<use xlink:href="#f5_l" transform="matrix(8,0,0,8,785.7,1264.1)" />
<use xlink:href="#f5_p" transform="matrix(8,0,0,8,792.5,1264.1)" />
</g>
<defs>
<path d="M577,-14c0,0,-243,0,-379,132C198,118,63,250,63,488c0,0,0,258,130,391c0,0,131,132,387,132c0,0,156,0,335,-38l5,-218H871L848,884c0,0,-52,32,-121,50c0,0,-69,17,-141,17c0,0,-191,0,-279,-112c0,0,-88,-113,-88,-349c0,0,0,-217,92,-332c0,0,92,-115,268,-115c0,0,85,0,160,20c0,0,76,21,120,55l27,149h49L930,32c0,0,-164,-46,-353,-46Z" 
id="f0_13"
transform="scale(0.001,-0.001)" />

<path d="M31,0V33L150,52v956L31,1026v34H274V52L394,33V0Z" 
id="f0_28"
transform="scale(0.001,-0.001)" />

<path d="M284,67c0,0,51,0,88,12c0,0,37,12,74,30V358l-98,-3c0,0,-100,-4,-135,-39c0,0,-35,-35,-35,-117c0,0,0,-132,106,-132ZM233,-14c0,0,-179,0,-179,208c0,0,0,70,27,116c0,0,27,46,87,70c0,0,60,24,173,27l105,3V519c0,0,0,72,-26,107c0,0,-27,34,-82,34c0,0,-75,0,-137,-35L176,538H134V691c0,0,121,26,213,26c0,0,115,0,169,-47c0,0,54,-47,54,-144V52L657,33V0H465L451,70c0,0,-85,-84,-218,-84Z" 
id="f0_1x"
transform="scale(0.001,-0.001)" />

<path d="M278,-14c0,0,-52,0,-115,11c0,0,-63,10,-99,23V193H98L134,95c0,0,56,-50,146,-50c0,0,144,0,144,123c0,0,0,91,-114,130l-66,21c0,0,-75,25,-110,50c0,0,-34,26,-53,63c0,0,-18,36,-18,89c0,0,0,92,63,145c0,0,63,54,170,54c0,0,77,0,193,-23V544H454l-32,81c0,0,-39,35,-124,35c0,0,-61,0,-92,-30c0,0,-32,-30,-32,-80c0,0,0,-43,29,-72c0,0,28,-29,86,-48c0,0,110,-38,144,-55c0,0,33,-17,57,-42c0,0,23,-25,36,-57c0,0,13,-32,13,-79c0,0,0,-104,-66,-158c0,0,-66,-53,-195,-53Z" 
id="f0_2f"
transform="scale(0.001,-0.001)" />

<path d="M32,0V33L151,52V649L52,668v33H275V52L395,33V0ZM201,850c0,0,-32,0,-56,24c0,0,-24,24,-24,56c0,0,0,34,24,58c0,0,24,24,56,24c0,0,34,0,58,-24c0,0,24,-24,24,-58c0,0,0,-32,-24,-56c0,0,-24,-24,-58,-24Z" 
id="f0_25"
transform="scale(0.001,-0.001)" />

<path d="M64,0V34L168,59V639H47v36l121,29v49c0,0,0,155,61,239c0,0,62,84,173,84c0,0,58,0,107,-15V908H472l-33,92c0,0,-26,16,-62,16c0,0,-47,0,-66,-42c0,0,-19,-42,-19,-157V701H478V639H292V59L443,34V0Z" 
id="f0_22"
transform="scale(0.001,-0.001)" />

<path d="M495,413c0,0,0,133,-34,190c0,0,-34,57,-105,57c0,0,-78,0,-119,-63c0,0,-42,-62,-42,-184ZM374,-14c0,0,-163,0,-239,87c0,0,-75,88,-75,283c0,0,0,183,77,273c0,0,76,91,219,91c0,0,269,0,269,-306V353H194V340c0,0,0,-103,23,-160c0,0,22,-57,70,-87c0,0,47,-29,124,-29c0,0,40,0,96,6c0,0,55,7,91,15V43C598,43,562,20,500,3c0,0,-61,-17,-126,-17Z" 
id="f0_21"
transform="scale(0.001,-0.001)" />

<path d="M383,64c0,0,85,0,152,28V645c0,0,-67,13,-152,13c0,0,-194,0,-194,-314c0,0,0,-141,48,-211c0,0,48,-69,146,-69ZM342,-14c0,0,-287,0,-287,358c0,0,0,184,82,280c0,0,81,96,239,96c0,0,81,0,163,-18c0,0,-4,25,-4,124v182l-118,18v34H659V52L745,33V0H548l-9,52c0,0,-84,-66,-197,-66Z" 
id="f0_20"
transform="scale(0.001,-0.001)" />

<path d="M439,0V33l93,19V500c0,0,0,62,-30,97c0,0,-31,36,-94,36c0,0,-67,0,-165,-22V52L338,33V0H35V33l84,19V649L35,668v33H235l7,-57c0,0,57,33,122,54c0,0,65,22,108,22c0,0,91,0,137,-53c0,0,47,-53,47,-154V52L741,33V0Z" 
id="f0_2a"
transform="scale(0.001,-0.001)" />

<path d="M249,-14c0,0,-71,0,-107,42c0,0,-35,42,-35,119V639H15v33l93,29l76,159h47V701H391V639H231V161c0,0,0,-48,22,-73c0,0,22,-24,57,-24c0,0,44,0,106,12V26C416,26,389,8,340,-2c0,0,-49,-12,-91,-12Z" 
id="f0_2g"
transform="scale(0.001,-0.001)" />

<path d="M377,45c0,0,99,0,147,73c0,0,47,73,47,237c0,0,0,161,-47,233c0,0,-47,72,-147,72c0,0,-97,0,-141,-69c0,0,-44,-69,-44,-236c0,0,0,-169,45,-240c0,0,44,-70,140,-70Zm0,-59c0,0,-158,0,-238,94c0,0,-81,95,-81,274c0,0,0,178,81,272c0,0,80,94,244,94c0,0,160,0,241,-92c0,0,82,-92,82,-274c0,0,0,-368,-329,-368Z" 
id="f0_2b"
transform="scale(0.001,-0.001)" />

<path d="M289,-14c0,0,-179,0,-179,205V649L20,668v33H233V200c0,0,0,-128,120,-128c0,0,92,0,173,23V649L420,668v33H649V52L738,33V0H533l-6,57C527,57,474,28,405,7c0,0,-69,-21,-116,-21Z" 
id="f0_2h"
transform="scale(0.001,-0.001)" />

<path d="M31,0V33l88,19V649L31,668v33H235l7,-87c0,0,44,37,121,71c0,0,76,35,121,35h11V530H463l-43,82c0,0,-37,0,-88,-10c0,0,-52,-10,-89,-26V52L363,33V0Z" 
id="f0_2e"
transform="scale(0.001,-0.001)" />

<path d="M399,-14c0,0,-341,0,-341,370c0,0,0,175,87,269c0,0,87,95,249,95c0,0,101,0,220,-23V501H573L541,625c0,0,-62,35,-149,35c0,0,-200,0,-200,-304c0,0,0,-158,61,-225c0,0,61,-67,189,-67c0,0,109,0,189,24V43C631,43,595,16,530,1c0,0,-64,-15,-131,-15Z" 
id="f0_1z"
transform="scale(0.001,-0.001)" />

<path d="M211,-20c0,0,-39,0,-64,25c0,0,-26,27,-26,64c0,0,0,38,26,64c0,0,26,26,64,26c0,0,37,0,64,-25c0,0,26,-26,26,-65c0,0,0,-37,-26,-64c0,0,-26,-25,-64,-25Zm0,556c0,0,-38,0,-64,26c0,0,-26,26,-26,64c0,0,0,37,26,64c0,0,25,27,64,27c0,0,38,0,64,-27c0,0,26,-27,26,-64c0,0,0,-38,-26,-64c0,0,-27,-26,-64,-26Z" 
id="f0_u"
transform="scale(0.001,-0.001)" />

<path d="M273,157c0,0,-114,0,-193,80C80,237,0,317,0,431c0,0,0,112,80,192c0,0,79,80,193,80c0,0,113,0,192,-80c0,0,80,-80,80,-192c0,0,0,-114,-80,-194c0,0,-79,-80,-192,-80Z" 
id="f1_3d"
transform="scale(0.001,-0.001)" />

<path d="M134,0V40L339,60V876L137,804v39l292,166h39V60L672,40V0Z" 
id="f0_l"
transform="scale(0.001,-0.001)" />

<path d="M191,-20c0,0,-39,0,-65,25c0,0,-25,27,-25,64c0,0,0,38,26,64c0,0,26,26,64,26c0,0,38,0,64,-26c0,0,26,-26,26,-64c0,0,0,-37,-25,-64c0,0,-26,-25,-65,-25Z" 
id="f0_i"
transform="scale(0.001,-0.001)" />

<path d="M148,-329c0,0,-58,0,-114,13v151H69l24,-71c0,0,23,-17,64,-17c0,0,39,0,72,22c0,0,33,23,60,67c0,0,27,44,68,157L90,649L19,668v33H344V668L233,648L423,158L606,649L497,668v33H758V668L685,652L411,-43c0,0,-48,-124,-84,-177c0,0,-36,-54,-79,-82c0,0,-44,-27,-100,-27Z" 
id="f0_2l"
transform="scale(0.001,-0.001)" />

<path d="M382,45c0,0,188,0,188,314c0,0,0,143,-47,213c0,0,-46,69,-141,69c0,0,-87,0,-146,-24V58c0,0,67,-13,146,-13ZM25,-325v35l88,18V649L34,668v33H231l1,-41c0,0,31,27,84,43c0,0,53,17,107,17c0,0,134,0,208,-94c0,0,73,-93,73,-267c0,0,0,-178,-80,-276c0,0,-80,-97,-232,-97c0,0,-84,0,-160,16c0,0,4,-53,4,-84V-272l123,-18v-35Z" 
id="f0_2c"
transform="scale(0.001,-0.001)" />

<path d="M44,0V40L172,60V941L44,960v40H794V760H745L721,922c0,0,-83,11,-241,11H316V543H586l23,119h48V354H609L586,475H316V67H513c0,0,193,0,252,12l43,185h49L843,0Z" 
id="f0_15"
transform="scale(0.001,-0.001)" />

<path d="M359,-270c0,0,124,0,192,46c0,0,67,47,67,129c0,0,0,43,-26,67c0,0,-26,24,-79,24H242c0,0,-32,-27,-51,-69c0,0,-20,-41,-20,-77c0,0,0,-64,46,-92c0,0,46,-28,142,-28Zm11,561c0,0,81,0,115,47c0,0,34,47,34,141c0,0,0,100,-35,142c0,0,-35,42,-113,42c0,0,-78,0,-114,-43c0,0,-37,-42,-37,-141c0,0,0,-98,36,-143c0,0,36,-45,114,-45ZM359,-329c0,0,-143,0,-218,44c0,0,-75,43,-75,125c0,0,0,39,27,78c0,0,26,38,98,89c0,0,-43,14,-72,48c0,0,-29,35,-29,74L208,262c0,0,-118,55,-118,217c0,0,0,115,73,178c0,0,73,63,211,63c0,0,28,0,71,-6c0,0,44,-6,67,-13l165,83l26,-32L599,644c0,0,50,-56,50,-165c0,0,0,-120,-72,-182c0,0,-73,-62,-208,-62c0,0,-62,0,-114,11L208,148c0,0,2,-13,29,-24c0,0,27,-12,67,-12H512c0,0,113,0,168,-49c0,0,55,-49,55,-134c0,0,0,-79,-44,-137c0,0,-43,-58,-128,-90c0,0,-84,-31,-204,-31Z" 
id="f0_23"
transform="scale(0.001,-0.001)" />

<path d="M521,-14c0,0,-205,0,-320,107C201,93,85,200,85,390c0,0,0,185,77,326c0,0,77,142,220,219c0,0,142,76,324,76c0,0,158,0,327,-38L1000,755H951V884c0,0,-46,32,-112,50c0,0,-65,17,-137,17c0,0,-135,0,-242,-72c0,0,-107,-72,-166,-203c0,0,-60,-132,-60,-301c0,0,0,-160,78,-244c0,0,78,-84,222,-84c0,0,85,0,166,25c0,0,82,26,133,65l53,149h49L889,52C889,52,803,20,705,3c0,0,-99,-17,-184,-17Z" 
id="f2_13"
transform="scale(0.001,-0.001)" />

<path d="M-15,-329c0,0,-61,0,-112,13l28,152h34l12,-72c0,0,18,-17,60,-17c0,0,100,0,212,202L253,9L116,649L33,668l6,33H230L338,155L513,458c0,0,48,83,48,144c0,0,0,27,-16,44c0,0,-15,16,-33,22l6,33H659c0,0,20,-17,20,-47c0,0,0,-59,-62,-164L322,-7c0,0,-86,-145,-135,-205c0,0,-50,-61,-98,-89c0,0,-49,-28,-104,-28Z" 
id="f2_2l"
transform="scale(0.001,-0.001)" />

<path d="M298,-14c0,0,-120,0,-185,69c0,0,-66,69,-66,191c0,0,0,130,52,237c0,0,52,107,149,172c0,0,97,65,203,65c0,0,53,0,112,-12c0,0,60,-11,99,-27L628,485H587L575,615c0,0,-47,47,-125,47c0,0,-72,0,-134,-53c0,0,-62,-53,-100,-147c0,0,-37,-95,-37,-208c0,0,0,-190,154,-190c0,0,106,0,222,74l22,-32c0,0,-60,-56,-135,-88c0,0,-76,-32,-144,-32Z" 
id="f2_1z"
transform="scale(0.001,-0.001)" />

<path d="M301,78c0,0,85,0,185,104l81,442c0,0,-29,20,-55,28c0,0,-25,8,-62,8c0,0,-75,0,-137,-56c0,0,-62,-56,-98,-152c0,0,-36,-95,-36,-199c0,0,0,-79,33,-127c0,0,33,-48,89,-48ZM245,-14c0,0,-90,0,-145,66c0,0,-54,66,-54,182c0,0,0,131,57,244c0,0,57,114,152,178c0,0,96,64,208,64c0,0,90,0,170,-33l33,26h40L589,52L673,33L667,0H454l22,117C476,117,350,-14,245,-14Z" 
id="f2_1x"
transform="scale(0.001,-0.001)" />

<path d="M228,-14c0,0,-103,0,-209,46L49,200H83L95,99c0,0,20,-21,55,-38c0,0,36,-16,81,-16c0,0,163,0,163,133c0,0,0,44,-35,78c0,0,-34,34,-113,72c0,0,-75,37,-112,81c0,0,-36,45,-36,104c0,0,0,99,66,153c0,0,67,54,184,54c0,0,85,0,200,-26L521,538H486l-11,80c0,0,-47,42,-124,42c0,0,-61,0,-97,-28c0,0,-37,-28,-37,-87c0,0,0,-40,31,-71c0,0,32,-30,119,-75c0,0,78,-40,113,-86c0,0,36,-47,36,-107c0,0,0,-113,-71,-167c0,0,-72,-53,-217,-53Z" 
id="f2_2f"
transform="scale(0.001,-0.001)" />

<path d="M67,0V109L206,235c0,0,133,118,196,190c0,0,63,72,90,149c0,0,27,77,27,177c0,0,0,97,-44,148c0,0,-44,50,-144,50c0,0,-39,0,-81,-10c0,0,-42,-11,-74,-29L150,787H101V980c0,0,135,32,230,32c0,0,164,0,247,-68c0,0,82,-69,82,-193c0,0,0,-84,-32,-158c0,0,-33,-75,-100,-148c0,0,-67,-74,-222,-206c0,0,-67,-57,-141,-125H680V0Z" 
id="f0_m"
transform="scale(0.001,-0.001)" />

<path d="M457,460c0,0,289,0,289,266c0,0,0,106,-54,157c0,0,-54,50,-163,50H419L335,460ZM-7,0L0,40L120,60L276,941L151,960l7,40H559c0,0,161,0,248,-67c0,0,87,-66,87,-198c0,0,0,-167,-109,-255c0,0,-109,-88,-312,-88H323L264,60L427,40L420,0Z" 
id="f2_1g"
transform="scale(0.001,-0.001)" />

<path d="M85,0L199,649l-96,19l6,33H332L218,52L335,33L329,0ZM297,849c0,0,-33,0,-57,24c0,0,-24,24,-24,57c0,0,0,33,24,57c0,0,24,24,57,24c0,0,33,0,57,-24c0,0,24,-24,24,-57c0,0,0,-33,-24,-57c0,0,-24,-24,-57,-24Z" 
id="f2_25"
transform="scale(0.001,-0.001)" />

<path d="M54,0L169,649L81,668l6,33H294L274,558c0,0,62,81,130,121c0,0,67,41,132,41c0,0,75,0,113,-41c0,0,38,-41,38,-117c0,0,0,-10,-3,-32c0,0,-3,-21,-81,-478L700,34L695,0H470l76,434c0,0,17,94,17,123c0,0,0,34,-18,55c0,0,-18,21,-56,21c0,0,-56,0,-121,-47c0,0,-65,-47,-108,-117L178,0Z" 
id="f2_2a"
transform="scale(0.001,-0.001)" />

<path d="M228,-17c0,0,-76,0,-114,40c0,0,-38,41,-38,117c0,0,0,11,4,39c0,0,4,29,80,470L78,667l6,34H293L217,268c0,0,-17,-94,-17,-124c0,0,0,-34,18,-55c0,0,18,-21,57,-21c0,0,55,0,120,47c0,0,65,47,107,115l83,471H709L595,52L683,33L677,0H469l20,144C489,144,427,64,360,23c0,0,-67,-40,-132,-40Z" 
id="f2_2h"
transform="scale(0.001,-0.001)" />

<path d="M350,-14c0,0,-142,0,-269,31L73,228h49L156,87c0,0,29,-16,82,-28c0,0,54,-12,100,-12c0,0,117,0,173,54c0,0,56,53,56,178c0,0,0,99,-52,150c0,0,-51,51,-159,56l-107,6v61l107,7c0,0,84,5,124,52c0,0,41,48,41,145c0,0,0,101,-44,147c0,0,-44,45,-139,45c0,0,-40,0,-83,-10c0,0,-43,-11,-76,-29L153,786H104V979c0,0,74,19,127,26c0,0,54,6,107,6c0,0,321,0,321,-246c0,0,0,-104,-57,-165c0,0,-57,-62,-162,-77c0,0,136,-16,200,-78c0,0,64,-62,64,-173c0,0,0,-135,-92,-211c0,0,-93,-75,-262,-75Z" 
id="f0_n"
transform="scale(0.001,-0.001)" />

<path d="M577,-14c0,0,-243,0,-379,131C198,117,63,248,63,488c0,0,0,263,131,393c0,0,132,130,386,130c0,0,182,0,352,-45V751H882L862,875c0,0,-52,37,-124,57c0,0,-72,19,-152,19c0,0,-191,0,-279,-113c0,0,-88,-114,-88,-348c0,0,0,-220,91,-333c0,0,91,-114,269,-114c0,0,63,0,131,15c0,0,69,15,105,36V377L686,397v40h370V397L958,377V52C958,52,871,24,778,5c0,0,-93,-19,-201,-19Z" 
id="f0_17"
transform="scale(0.001,-0.001)" />

<path d="M515,-13c0,0,-204,0,-317,106C198,93,84,200,84,390c0,0,0,187,78,328c0,0,77,141,219,217c0,0,142,76,325,76c0,0,173,0,334,-45L1002,752H952l2,123c0,0,-95,76,-252,76c0,0,-132,0,-239,-71c0,0,-108,-71,-168,-202c0,0,-61,-132,-61,-303c0,0,0,-155,77,-242c0,0,76,-87,213,-87c0,0,67,0,134,19c0,0,67,19,114,49l47,263L695,397l6,40h369l-6,-40L962,377L906,64C906,64,794,21,703,3c0,0,-91,-16,-188,-16Z" 
id="f2_17"
transform="scale(0.001,-0.001)" />

<path d="M188,355c0,0,148,11,236,69c0,0,89,58,89,143c0,0,0,41,-23,68c0,0,-22,27,-66,27c0,0,-52,0,-101,-43c0,0,-49,-42,-85,-114c0,0,-36,-71,-50,-150ZM298,-14c0,0,-120,0,-186,67c0,0,-65,67,-65,193c0,0,0,125,53,232c0,0,52,108,145,175c0,0,94,67,196,67c0,0,92,0,147,-42c0,0,56,-43,56,-111c0,0,0,-102,-126,-173c0,0,-125,-72,-336,-86l-3,-54c0,0,0,-95,40,-143c0,0,40,-47,118,-47c0,0,67,0,124,22c0,0,57,23,106,52l22,-32c0,0,-69,-58,-146,-89c0,0,-76,-31,-145,-31Z" 
id="f2_21"
transform="scale(0.001,-0.001)" />

<path d="M200,-14c0,0,-59,0,-93,35c0,0,-34,36,-34,100c0,0,0,22,4,51c0,0,4,30,82,467H67l6,33l99,29L275,860h47L295,701H455L443,639H283L210,230c0,0,-13,-69,-13,-99c0,0,0,-34,17,-51c0,0,17,-16,43,-16c0,0,54,0,113,21L386,50c0,0,-92,-64,-186,-64Z" 
id="f2_2g"
transform="scale(0.001,-0.001)" />

<path d="M55,0L169,649L81,668l6,33H295L274,557c0,0,52,73,117,118c0,0,65,45,122,45c0,0,66,0,102,-42c0,0,36,-41,36,-121c0,0,51,72,115,117c0,0,64,46,123,46c0,0,63,0,99,-40c0,0,36,-40,36,-116c0,0,0,-16,-3,-42c0,0,-3,-27,-80,-470l98,-19L1032,0H808l77,434c0,0,17,90,17,124c0,0,0,34,-16,54c0,0,-15,21,-49,21c0,0,-33,0,-78,-32c0,0,-46,-31,-83,-80c0,0,-37,-49,-44,-91L558,0H434l76,434c0,0,19,98,19,124c0,0,0,34,-17,54c0,0,-16,21,-51,21c0,0,-33,0,-81,-34c0,0,-47,-33,-84,-80c0,0,-36,-48,-43,-89L179,0Z" 
id="f2_29"
transform="scale(0.001,-0.001)" />

<path d="M476,327V830h-4L114,327ZM476,0V220H30v99l488,686h86V327H740V220H604V0Z" 
id="f0_o"
transform="scale(0.001,-0.001)" />

<path d="M57,302V417H454V302Z" 
id="f0_h"
transform="scale(0.001,-0.001)" />

<path d="M44,0L223,1008l-101,18l6,34H356L228,338L547,647l-70,20l6,34H700l-5,-34L634,650L415,441L596,51L669,34L663,0H487L324,357L214,254L168,0Z" 
id="f2_27"
transform="scale(0.001,-0.001)" />

<path d="M325,47c0,0,68,0,130,54c0,0,61,55,97,149c0,0,36,94,36,202c0,0,0,103,-39,156c0,0,-39,53,-113,53c0,0,-67,0,-128,-54c0,0,-61,-55,-96,-149c0,0,-35,-94,-35,-204c0,0,0,-101,39,-154c0,0,39,-53,109,-53Zm-6,-61c0,0,-124,0,-199,79c0,0,-74,79,-74,214c0,0,0,120,51,222c0,0,51,102,143,160c0,0,91,59,205,59c0,0,124,0,199,-80c0,0,74,-79,74,-214c0,0,0,-120,-51,-222C667,204,615,102,524,43c0,0,-91,-57,-205,-57Z" 
id="f2_2b"
transform="scale(0.001,-0.001)" />

<path d="M26,0V54L154,74V926L26,945v55H878V746H810L786,908c0,0,-83,10,-241,10H389V551H651l23,111h67V355H674L651,468H389V82H578c0,0,193,0,252,12l43,185h68L927,0Z" 
id="f3_15"
transform="scale(0.001,-0.001)" />

<path d="M425,-14c0,0,-187,0,-280,90c0,0,-93,90,-93,276c0,0,0,115,42,198c0,0,43,82,121,126c0,0,78,44,182,44c0,0,104,0,227,-26V486H571L539,609c0,0,-25,19,-50,26c0,0,-24,7,-65,7c0,0,-44,0,-79,-35c0,0,-36,-35,-56,-98c0,0,-20,-64,-20,-153c0,0,0,-150,47,-214c0,0,47,-64,148,-64c0,0,103,0,176,21V42C640,42,606,15,547,0c0,0,-59,-14,-122,-14Z" 
id="f3_1z"
transform="scale(0.001,-0.001)" />

<path d="M379,60c0,0,59,0,84,64c0,0,24,65,24,231c0,0,0,164,-24,227c0,0,-24,63,-84,63c0,0,-57,0,-80,-60c0,0,-22,-61,-22,-230c0,0,0,-173,23,-234c0,0,22,-61,79,-61Zm-2,-74c0,0,-161,0,-240,91c0,0,-79,91,-79,277c0,0,0,186,80,276c0,0,81,90,245,90c0,0,167,0,245,-93c0,0,78,-93,78,-273c0,0,0,-188,-81,-278c0,0,-81,-90,-248,-90Z" 
id="f3_2b"
transform="scale(0.001,-0.001)" />

<path d="M41,0V49l69,18V634L41,652v49H313l11,-61l50,26c0,0,105,54,188,54c0,0,194,0,194,-207V67L827,49V0H478V49l63,18V484c0,0,0,63,-27,98c0,0,-26,35,-75,35c0,0,-57,0,-114,-25V67L389,49V0Z" 
id="f3_2a"
transform="scale(0.001,-0.001)" />

<path d="M41,0V49l69,18V634L41,652v49H313l11,-61l50,26c0,0,105,54,188,54c0,0,125,0,167,-91c0,0,153,91,258,91c0,0,189,0,189,-207V67l71,-17V0H898V50l63,17V484c0,0,0,63,-24,98c0,0,-25,35,-74,35c0,0,-55,0,-119,-31c0,0,7,-32,7,-73V67L821,50V0H473V50l63,17V484c0,0,0,63,-25,98c0,0,-24,35,-73,35c0,0,-49,0,-113,-29V67L389,49V0Z" 
id="f3_29"
transform="scale(0.001,-0.001)" />

<path d="M34,0V49l76,18V634L38,652v49H325V67L402,49V0ZM217,831c0,0,-48,0,-81,33c0,0,-34,33,-34,82c0,0,0,48,34,81c0,0,34,33,81,33c0,0,48,0,81,-33c0,0,33,-33,33,-81c0,0,0,-47,-33,-81c0,0,-32,-34,-81,-34Z" 
id="f3_25"
transform="scale(0.001,-0.001)" />

<path d="M438,65c0,0,131,0,131,293c0,0,0,279,-130,279c0,0,-69,0,-127,-29V80c0,0,60,-15,126,-15ZM20,-325v50l76,18V634L19,652v49H304l1,-36c0,0,80,55,194,55c0,0,146,0,218,-86c0,0,71,-86,71,-271c0,0,0,-183,-83,-280c0,0,-83,-97,-238,-97c0,0,-79,0,-160,19c0,0,5,-48,5,-109V-257l103,-18v-50Z" 
id="f3_2c"
transform="scale(0.001,-0.001)" />

<path d="M41,0V49l91,18V634L41,652v49H336l8,-145c0,0,80,89,144,128c0,0,64,40,117,40h40V468H604l-45,94c0,0,-47,0,-106,-21c0,0,-60,-20,-105,-48V67L460,49V0Z" 
id="f3_2e"
transform="scale(0.001,-0.001)" />

<path d="M327,-14c0,0,-101,0,-156,45c0,0,-55,45,-55,131V624H25v48l108,29l87,159H332V701H480V624H332V176c0,0,0,-49,20,-73c0,0,20,-25,53,-25c0,0,40,0,97,12V26c0,0,-22,-15,-76,-27c0,0,-55,-13,-99,-13Z" 
id="f3_2g"
transform="scale(0.001,-0.001)" />

<path d="M345,75c0,0,50,0,110,26V351l-63,-2c0,0,-72,-3,-100,-38c0,0,-28,-35,-28,-113c0,0,0,-63,22,-93c0,0,23,-30,59,-30ZM266,-14c0,0,-217,0,-217,208c0,0,0,79,32,126c0,0,32,48,93,71c0,0,60,22,190,25l91,2V521c0,0,0,126,-104,126c0,0,-62,0,-140,-39L183,521H134V691c0,0,112,17,165,21c0,0,53,5,108,5c0,0,264,0,264,-194V67L741,49V0H483L466,54C466,54,408,14,361,0c0,0,-47,-14,-95,-14Z" 
id="f3_1x"
transform="scale(0.001,-0.001)" />

<path d="M434,423c0,0,0,101,-7,142c0,0,-6,40,-22,60c0,0,-16,19,-45,19c0,0,-44,0,-66,-48c0,0,-22,-49,-22,-173ZM389,-14c0,0,-172,0,-254,89c0,0,-83,90,-83,279c0,0,0,184,79,274c0,0,79,91,238,91c0,0,142,0,206,-76c0,0,64,-76,64,-237V345H271V333c0,0,0,-111,18,-158c0,0,18,-47,58,-72c0,0,40,-25,110,-25c0,0,66,0,166,22V42C623,42,582,18,517,1c0,0,-66,-15,-128,-15Z" 
id="f3_21"
transform="scale(0.001,-0.001)" />

<path d="M248,-20c0,0,-52,0,-87,34c0,0,-36,36,-36,88c0,0,0,52,36,88c0,0,35,36,87,36c0,0,52,0,88,-36c0,0,36,-36,36,-88c0,0,0,-51,-36,-87c0,0,-35,-35,-88,-35Zm0,488c0,0,-52,0,-87,36c0,0,-36,36,-36,88c0,0,0,52,35,88c0,0,35,36,88,36c0,0,53,0,89,-36c0,0,35,-37,35,-88c0,0,0,-51,-36,-87c0,0,-35,-37,-88,-37Z" 
id="f3_u"
transform="scale(0.001,-0.001)" />

<path d="M235,0V40L394,60V936H356c0,0,-189,0,-258,-15L78,766H28v234H908V766H857L837,921c0,0,-22,5,-98,9c0,0,-75,4,-165,4H538V60L697,40V0Z" 
id="f0_1k"
transform="scale(0.001,-0.001)" />

<path d="M431,0V33L535,52V499c0,0,0,62,-32,96c0,0,-32,33,-95,33c0,0,-66,0,-163,-22V52L350,33V0H32V33l89,19V649L32,668v33H237l6,-57c0,0,56,32,119,54c0,0,62,22,110,22c0,0,52,0,95,-20c0,0,44,-19,66,-62c0,0,57,32,134,57c0,0,77,25,128,25c0,0,179,0,179,-207V52l90,-19V0H846V33L950,52V499c0,0,0,129,-119,129c0,0,-19,0,-45,-3c0,0,-26,-3,-52,-7c0,0,-25,-4,-49,-8c0,0,-23,-5,-39,-8c0,0,13,-41,13,-89V52L764,33V0Z" 
id="f0_29"
transform="scale(0.001,-0.001)" />

<path d="M376,50c0,0,103,0,149,80c0,0,46,81,46,240c0,0,0,137,-47,204c0,0,-48,67,-148,67c0,0,-44,0,-87,-7c0,0,-44,-8,-63,-17V62c0,0,63,-12,150,-12Zm3,-64c0,0,-64,0,-141,14c0,0,-78,14,-136,37v971L0,1026v34H226V809c0,0,0,-40,-4,-148c0,0,74,59,188,59c0,0,143,0,219,-87c0,0,77,-87,77,-263c0,0,0,-189,-84,-287c0,0,-84,-97,-243,-97Z" 
id="f0_1y"
transform="scale(0.001,-0.001)" />

<path d="M58,-234v58c0,0,131,42,131,125c0,0,0,15,-11,27c0,0,-11,12,-38,25C140,1,89,27,89,75c0,0,0,40,25,61c0,0,26,21,65,21c0,0,48,0,77,-34c0,0,30,-34,30,-86c0,0,0,-101,-60,-170c0,0,-59,-69,-168,-101Z" 
id="f0_g"
transform="scale(0.001,-0.001)" />

<path d="M394,460c0,0,126,0,186,57c0,0,60,57,60,187c0,0,0,123,-57,176c0,0,-58,53,-194,53H316V460ZM54,0V40L172,60V941L44,960v40H421c0,0,368,0,368,-295c0,0,0,-153,-93,-233c0,0,-93,-80,-267,-80H316V60L475,40V0Z" 
id="f0_1g"
transform="scale(0.001,-0.001)" />

<path d="M327,-14L84,649L1,668v33H335V668L219,648L385,174L554,632h63L786,171L944,649L830,668v33h267V668l-78,-16L784,-14H726L553,448L382,-14Z" 
id="f0_2j"
transform="scale(0.001,-0.001)" />

<path d="M13,0V34L95,46L325,350L122,649L40,668v33H357V668L264,648L399,446L554,649l-96,19v33H710V668L630,652L433,397L663,50L745,34V0H427V34l94,17L359,299L169,50L266,34V0Z" 
id="f0_2k"
transform="scale(0.001,-0.001)" />

<path d="M617,0L251,860V60L385,40V0H44V40L172,60V941L44,960v40H347L672,239l355,761h287V960L1185,941V60L1314,40V0H908V40l134,20V859L643,0Z" 
id="f0_1d"
transform="scale(0.001,-0.001)" />

<path d="M51,-233v58c0,0,138,44,138,125c0,0,0,21,-14,31c0,0,-15,11,-32,21c0,0,-18,10,-32,26c0,0,-15,16,-15,48c0,0,0,40,26,61c0,0,25,21,64,21c0,0,46,0,73,-33c0,0,27,-34,27,-93c0,0,0,-96,-62,-164c0,0,-62,-69,-173,-101Z" 
id="f2_g"
transform="scale(0.001,-0.001)" />

<path d="M312,78c0,0,42,0,93,28c0,0,51,27,99,76l82,460c0,0,-18,5,-32,9c0,0,-14,3,-28,6c0,0,-14,2,-29,3c0,0,-16,1,-36,1c0,0,-75,0,-139,-56c0,0,-64,-56,-100,-150c0,0,-37,-95,-37,-202c0,0,0,-80,33,-127c0,0,33,-48,94,-48ZM249,-325c0,0,-65,0,-136,16c0,0,-70,15,-112,37l13,170H48l27,-93c0,0,60,-59,173,-59c0,0,91,0,145,47c0,0,54,48,72,152l29,175c0,0,-54,-59,-120,-97c0,0,-66,-37,-119,-37c0,0,-95,0,-149,66c0,0,-55,67,-55,182c0,0,0,131,58,243c0,0,57,112,154,177c0,0,97,66,211,66c0,0,45,0,117,-9c0,0,72,-9,128,-22L594,-25c0,0,-28,-158,-108,-229c0,0,-80,-71,-237,-71Z" 
id="f2_23"
transform="scale(0.001,-0.001)" />

<path d="M442,0V33l93,19V504c0,0,0,129,-124,129c0,0,-70,0,-168,-22V52L338,33V0H31V33l88,19v956L15,1026v34H243V756c0,0,0,-77,-5,-112c0,0,54,31,122,53c0,0,68,23,115,23c0,0,91,0,137,-53c0,0,47,-53,47,-154V52L744,33V0Z" 
id="f0_24"
transform="scale(0.001,-0.001)" />

<path d="M-17,0l8,40L120,60L276,941L151,960l7,40H909L866,761H817l4,161c0,0,-81,11,-239,11H419L349,543H619l45,119h48L657,354H609l-1,121H338L266,67H463c0,0,190,0,254,12l75,185h49L780,0Z" 
id="f2_15"
transform="scale(0.001,-0.001)" />

<path d="M317,45c0,0,74,0,134,54c0,0,60,55,97,153c0,0,36,98,36,200c0,0,0,82,-33,129c0,0,-33,46,-89,46c0,0,-40,0,-93,-29c0,0,-54,-29,-96,-75L192,81c0,0,46,-36,125,-36ZM-88,-325l5,35l90,17L170,649L93,668l6,33H297L283,588c0,0,130,132,235,132c0,0,90,0,145,-67c0,0,55,-66,55,-182c0,0,0,-132,-56,-244C662,227,606,114,510,49c0,0,-97,-63,-209,-63c0,0,-35,0,-72,5c0,0,-37,5,-55,11l-8,-67L130,-273l119,-17l-6,-35Z" 
id="f2_2c"
transform="scale(0.001,-0.001)" />

<path d="M55,0L232,1008l-88,18l6,34H365L286,615L274,558c0,0,59,79,128,120c0,0,68,42,134,42c0,0,75,0,113,-41c0,0,38,-41,38,-117c0,0,0,-10,-3,-32c0,0,-3,-21,-81,-478L700,34L695,0H470l76,434c0,0,17,94,17,123c0,0,0,34,-18,55c0,0,-18,21,-56,21c0,0,-56,0,-121,-47c0,0,-65,-47,-107,-114L178,0Z" 
id="f2_24"
transform="scale(0.001,-0.001)" />

<path d="M301,78c0,0,41,0,90,27c0,0,49,28,95,77l81,442c0,0,-26,18,-54,27c0,0,-27,10,-67,10c0,0,-70,0,-131,-55c0,0,-61,-55,-99,-152c0,0,-37,-97,-37,-201c0,0,0,-79,33,-127c0,0,33,-48,89,-48ZM245,-14c0,0,-91,0,-145,68c0,0,-54,69,-54,183c0,0,0,128,55,240c0,0,55,112,150,177c0,0,96,66,210,66c0,0,70,0,123,-18c0,0,3,36,51,306l-115,18l6,34H768L589,52L673,33L667,0H454l22,117C476,117,350,-14,245,-14Z" 
id="f2_20"
transform="scale(0.001,-0.001)" />

<path d="M62,0L176,649L88,668l6,33H301L278,543c0,0,55,84,124,130c0,0,69,47,138,47c0,0,37,0,59,-6L566,530H534l-28,95c0,0,-60,0,-124,-46c0,0,-63,-45,-116,-120L186,0Z" 
id="f2_2e"
transform="scale(0.001,-0.001)" />

<path d="M460,-325c0,0,-148,79,-231,172c0,0,-84,93,-123,217c0,0,-39,126,-39,304c0,0,0,178,39,303c0,0,39,125,122,217c0,0,82,93,232,172V997c0,0,-91,-52,-145,-134c0,0,-54,-81,-79,-190c0,0,-25,-109,-25,-305c0,0,0,-194,26,-309c0,0,26,-114,82,-193c0,0,56,-79,141,-128v-63Z" 
id="f0_c"
transform="scale(0.001,-0.001)" />

<path d="M49,-325v63c0,0,85,49,140,128c0,0,56,79,83,194c0,0,26,115,26,308c0,0,0,196,-25,305c0,0,-25,109,-79,190c0,0,-54,82,-145,134v63c0,0,149,-80,232,-172c0,0,83,-92,122,-217c0,0,39,-125,39,-303c0,0,0,-177,-39,-303c0,0,-39,-125,-122,-217c0,0,-83,-93,-232,-173Z" 
id="f0_d"
transform="scale(0.001,-0.001)" />

<path d="M-12,338v55H777V338Z" 
id="f4_4y"
transform="scale(0.001,-0.001)" />

<path d="M131,0l8,40L301,60L455,936H417c0,0,-148,0,-219,-15L150,766H100l42,234H940L898,766H847l8,155c0,0,-67,13,-219,13H599L445,60L601,40L593,0Z" 
id="f2_1k"
transform="scale(0.001,-0.001)" />

<path d="M-6,0c0,0,-12,10,-12,32c0,0,0,21,23,51c0,0,23,31,79,82L287,354L159,649L79,668l6,33H270L378,434l93,88c0,0,47,46,67,72c0,0,19,26,19,44c0,0,0,8,-6,13c0,0,-7,6,-38,17l6,33H651c0,0,16,-12,16,-32c0,0,0,-44,-103,-142L404,377L548,49L634,33L628,0H437L313,298L185,176c0,0,-41,-40,-60,-65c0,0,-19,-26,-19,-48c0,0,0,-21,31,-29L131,0Z" 
id="f2_2k"
transform="scale(0.001,-0.001)" />

<path d="M41,0V34L426,641H261c0,0,-42,0,-80,-7c0,0,-39,-7,-54,-19L104,515H69V701H586V665L201,60H407c0,0,42,0,89,10c0,0,47,10,66,25l39,147h35L617,0Z" 
id="f0_2m"
transform="scale(0.001,-0.001)" />

<path d="M608,-14c0,0,-251,0,-392,133C216,119,75,252,75,488c0,0,0,257,134,390c0,0,135,133,398,133c0,0,174,0,361,-50l4,-240H905L884,866c0,0,-98,67,-229,67c0,0,-173,0,-253,-108c0,0,-80,-108,-80,-334c0,0,0,-209,84,-319c0,0,83,-109,243,-109c0,0,84,0,147,22c0,0,63,22,99,53l24,164h68L982,48C982,48,915,22,808,4C808,4,700,-14,608,-14Z" 
id="f3_13"
transform="scale(0.001,-0.001)" />

<path d="M276,-14c0,0,-57,0,-125,13C151,-1,83,10,48,23V214H97l28,-98c0,0,26,-26,69,-44c0,0,42,-17,86,-17c0,0,65,0,97,28c0,0,32,28,32,71c0,0,0,41,-31,65c0,0,-30,25,-133,57c0,0,-108,34,-154,92c0,0,-45,58,-45,143c0,0,0,95,71,152c0,0,71,57,183,57c0,0,77,0,207,-22V518H457l-24,82c0,0,-21,22,-60,35c0,0,-40,14,-75,14c0,0,-53,0,-79,-22c0,0,-26,-22,-26,-59c0,0,0,-40,32,-65c0,0,32,-26,132,-55c0,0,109,-34,155,-89c0,0,45,-55,45,-137c0,0,0,-117,-72,-177c0,0,-72,-59,-209,-59Z" 
id="f3_2f"
transform="scale(0.001,-0.001)" />

<path d="M410,-14c0,0,-80,0,-162,14c0,0,-81,14,-144,38V270h48L178,134c0,0,28,-35,95,-62c0,0,68,-27,134,-27c0,0,104,0,163,53c0,0,58,54,58,148c0,0,0,54,-23,89c0,0,-22,35,-59,59c0,0,-37,24,-84,41c0,0,-47,17,-97,34c0,0,-49,17,-96,38c0,0,-47,21,-84,53c0,0,-37,32,-60,79c0,0,-23,48,-23,117c0,0,0,119,90,187c0,0,89,68,248,68c0,0,121,0,263,-32V771H654L628,893c0,0,-76,55,-188,55c0,0,-100,0,-156,-40c0,0,-56,-41,-56,-112c0,0,0,-49,22,-81c0,0,23,-32,60,-55c0,0,37,-22,84,-39c0,0,48,-16,97,-34c0,0,50,-17,97,-39c0,0,48,-22,85,-56c0,0,36,-34,59,-83c0,0,23,-49,23,-120c0,0,0,-145,-89,-224c0,0,-89,-79,-256,-79Z" 
id="f0_1j"
transform="scale(0.001,-0.001)" />

<path d="M0,-14L351,1007h73L75,-14Z" 
id="f0_j"
transform="scale(0.001,-0.001)" />

<path d="M477,0V33l64,19L348,354L257,254V52L331,33V0H44V33l89,19v956L29,1026v34H257V338L544,647l-73,20v34H718V667L631,650L431,446L688,50L764,33V0Z" 
id="f0_27"
transform="scale(0.001,-0.001)" />

<path d="M435,0V856c0,0,-48,-47,-127,-93c0,0,-79,-46,-142,-69V824c0,0,113,52,197,128c0,0,85,75,120,146h86V0Z" 
id="f5_l"
transform="scale(0.001,-0.001)" />

<path d="M415,-18c0,0,-149,0,-244,83c0,0,-94,84,-107,222l140,11c0,0,16,-103,73,-154c0,0,56,-52,137,-52c0,0,98,0,165,73c0,0,66,73,66,194c0,0,0,115,-64,182c0,0,-64,66,-169,66c0,0,-65,0,-117,-29c0,0,-52,-30,-82,-77L87,517l106,562H736V951H300L241,657c0,0,99,69,207,69c0,0,143,0,242,-100c0,0,98,-99,98,-255c0,0,0,-149,-86,-257C702,114,597,-18,415,-18Z" 
id="f5_p"
transform="scale(0.001,-0.001)" />


</defs>
</svg>