<?xml version="1.0" encoding="UTF-8" standalone="no"?>
<!DOCTYPE svg PUBLIC "-//W3C//DTD SVG 1.1//EN"
"http://www.w3.org/Graphics/SVG/1.1/DTD/svg11.dtd">
<svg viewBox="0 0 935 1210" version="1.1" xmlns="http://www.w3.org/2000/svg" xmlns:xlink="http://www.w3.org/1999/xlink">
<defs>
<style type="text/css"><![CDATA[
.g0_153{
}
]]></style>
</defs>
<g fill="#000000" >
<use xlink:href="#f0_16" transform="matrix(12,0,0,12,338.2,429.8)" />
<use xlink:href="#f0_25" transform="matrix(12,0,0,12,349.2,429.8)" />
<use xlink:href="#f0_23" transform="matrix(12,0,0,12,354.3,429.8)" />
<use xlink:href="#f0_i" transform="matrix(12,0,0,12,363.4,429.8)" />
<use xlink:href="#f0_s" transform="matrix(12,0,0,12,373,429.8)" />
<use xlink:href="#f0_i" transform="matrix(12,0,0,12,382.1,429.8)" />
<use xlink:href="#f0_1j" transform="matrix(12,0,0,12,391.3,429.8)" />
<use xlink:href="#f0_2g" transform="matrix(12,0,0,12,401.5,429.8)" />
<use xlink:href="#f0_2e" transform="matrix(12,0,0,12,407.7,429.8)" />
<use xlink:href="#f0_2h" transform="matrix(12,0,0,12,415.4,429.8)" />
<use xlink:href="#f0_1z" transform="matrix(12,0,0,12,425.7,429.8)" />
<use xlink:href="#f0_2g" transform="matrix(12,0,0,12,433.8,429.8)" />
<use xlink:href="#f0_2h" transform="matrix(12,0,0,12,440,429.8)" />
<use xlink:href="#f0_2e" transform="matrix(12,0,0,12,450.2,429.8)" />
<use xlink:href="#f0_21" transform="matrix(12,0,0,12,457.9,429.8)" />
<use xlink:href="#f0_2b" transform="matrix(12,0,0,12,470.7,429.8)" />
<use xlink:href="#f0_22" transform="matrix(12,0,0,12,479.9,429.8)" />
<use xlink:href="#f0_29" transform="matrix(12,0,0,12,490.5,429.8)" />
<use xlink:href="#f0_25" transform="matrix(12,0,0,12,505.6,429.8)" />
<use xlink:href="#f0_2g" transform="matrix(12,0,0,12,510.7,429.8)" />
<use xlink:href="#f0_2b" transform="matrix(12,0,0,12,516.9,429.8)" />
<use xlink:href="#f0_1z" transform="matrix(12,0,0,12,526.1,429.8)" />
<use xlink:href="#f0_24" transform="matrix(12,0,0,12,534.1,429.8)" />
<use xlink:href="#f0_2b" transform="matrix(12,0,0,12,544.4,429.8)" />
<use xlink:href="#f0_2a" transform="matrix(12,0,0,12,553.6,429.8)" />
<use xlink:href="#f0_20" transform="matrix(12,0,0,12,563.8,429.8)" />
<use xlink:href="#f0_2e" transform="matrix(12,0,0,12,574.1,429.8)" />
<use xlink:href="#f0_25" transform="matrix(12,0,0,12,581.8,429.8)" />
<use xlink:href="#f0_1x" transform="matrix(12,0,0,12,586.8,429.8)" />
<use xlink:href="#f0_1g" transform="matrix(12,0,0,12,55,473.5)" />
<use xlink:href="#f0_28" transform="matrix(12,0,0,12,66,473.5)" />
<use xlink:href="#f0_1x" transform="matrix(12,0,0,12,70.8,473.5)" />
<use xlink:href="#f0_2f" transform="matrix(12,0,0,12,80.3,473.5)" />
<use xlink:href="#f0_2g" transform="matrix(12,0,0,12,87.3,473.5)" />
<use xlink:href="#f0_25" transform="matrix(12,0,0,12,93.5,473.5)" />
<use xlink:href="#f0_20" transform="matrix(12,0,0,12,98.6,473.5)" />
<use xlink:href="#f0_2f" transform="matrix(12,0,0,12,108.9,473.5)" />
</g>
<path fill-rule="evenodd" d="M55,477.2h60.9v-1.8H55v1.8Z" class="g0_153" />
<g fill="#000000" >
<use xlink:href="#f1_1k" transform="matrix(12,0,0,12,55,517.5)" />
<use xlink:href="#f1_24" transform="matrix(12,0,0,12,66.4,517.5)" />
<use xlink:href="#f1_21" transform="matrix(12,0,0,12,75.2,517.5)" />
<use xlink:href="#f1_2l" transform="matrix(12,0,0,12,83.6,517.5)" />
<use xlink:href="#f1_1x" transform="matrix(12,0,0,12,99.3,517.5)" />
<use xlink:href="#f1_2e" transform="matrix(12,0,0,12,107.4,517.5)" />
<use xlink:href="#f1_21" transform="matrix(12,0,0,12,113.6,517.5)" />
<use xlink:href="#f1_20" transform="matrix(12,0,0,12,129,517.5)" />
<use xlink:href="#f1_2b" transform="matrix(12,0,0,12,138.2,517.5)" />
<use xlink:href="#f1_2h" transform="matrix(12,0,0,12,147.7,517.5)" />
<use xlink:href="#f1_1y" transform="matrix(12,0,0,12,156.9,517.5)" />
<use xlink:href="#f1_28" transform="matrix(12,0,0,12,166,517.5)" />
<use xlink:href="#f1_21" transform="matrix(12,0,0,12,170.4,517.5)" />
<use xlink:href="#f1_29" transform="matrix(12,0,0,12,186.2,517.5)" />
<use xlink:href="#f1_21" transform="matrix(12,0,0,12,199.7,517.5)" />
<use xlink:href="#f1_29" transform="matrix(12,0,0,12,208.2,517.5)" />
<use xlink:href="#f1_1y" transform="matrix(12,0,0,12,222.1,517.5)" />
<use xlink:href="#f1_2e" transform="matrix(12,0,0,12,231.3,517.5)" />
<use xlink:href="#f1_1x" transform="matrix(12,0,0,12,237.5,517.5)" />
<use xlink:href="#f1_2a" transform="matrix(12,0,0,12,245.9,517.5)" />
<use xlink:href="#f1_21" transform="matrix(12,0,0,12,254.7,517.5)" />
<use xlink:href="#f1_1z" transform="matrix(12,0,0,12,270.1,517.5)" />
<use xlink:href="#f1_21" transform="matrix(12,0,0,12,278.1,517.5)" />
<use xlink:href="#f1_28" transform="matrix(12,0,0,12,286.5,517.5)" />
<use xlink:href="#f1_28" transform="matrix(12,0,0,12,291.3,517.5)" />
<use xlink:href="#f1_2b" transform="matrix(12,0,0,12,303,517.5)" />
<use xlink:href="#f1_2e" transform="matrix(12,0,0,12,312.5,517.5)" />
<use xlink:href="#f1_23" transform="matrix(12,0,0,12,318.8,517.5)" />
<use xlink:href="#f1_1x" transform="matrix(12,0,0,12,327.9,517.5)" />
<use xlink:href="#f1_2a" transform="matrix(12,0,0,12,336,517.5)" />
<use xlink:href="#f1_21" transform="matrix(12,0,0,12,344.8,517.5)" />
<use xlink:href="#f1_28" transform="matrix(12,0,0,12,353.2,517.5)" />
<use xlink:href="#f1_28" transform="matrix(12,0,0,12,358.3,517.5)" />
<use xlink:href="#f1_21" transform="matrix(12,0,0,12,363.1,517.5)" />
<use xlink:href="#f1_22" transform="matrix(12,0,0,12,379.3,517.5)" />
<use xlink:href="#f1_2b" transform="matrix(12,0,0,12,384.8,517.5)" />
<use xlink:href="#f1_2h" transform="matrix(12,0,0,12,394.3,517.5)" />
<use xlink:href="#f1_2a" transform="matrix(12,0,0,12,403.5,517.5)" />
<use xlink:href="#f1_20" transform="matrix(12,0,0,12,412.3,517.5)" />
<use xlink:href="#f1_25" transform="matrix(12,0,0,12,428.7,517.5)" />
<use xlink:href="#f1_2a" transform="matrix(12,0,0,12,433.5,517.5)" />
<use xlink:href="#f1_2c" transform="matrix(12,0,0,12,449.6,517.5)" />
<use xlink:href="#f1_28" transform="matrix(12,0,0,12,459.1,517.5)" />
<use xlink:href="#f1_1x" transform="matrix(12,0,0,12,463.9,517.5)" />
<use xlink:href="#f1_2a" transform="matrix(12,0,0,12,472.3,517.5)" />
<use xlink:href="#f1_2g" transform="matrix(12,0,0,12,481.1,517.5)" />
<use xlink:href="#f1_1z" transform="matrix(12,0,0,12,493.9,517.5)" />
<use xlink:href="#f1_21" transform="matrix(12,0,0,12,502,517.5)" />
<use xlink:href="#f1_28" transform="matrix(12,0,0,12,510.1,517.5)" />
<use xlink:href="#f1_28" transform="matrix(12,0,0,12,514.8,517.5)" />
<use xlink:href="#f1_2f" transform="matrix(12,0,0,12,519.6,517.5)" />
<use xlink:href="#f1_i" transform="matrix(12,0,0,12,526.6,517.5)" />
<use xlink:href="#f1_1k" transform="matrix(12,0,0,12,538.8,517.5)" />
<use xlink:href="#f1_24" transform="matrix(12,0,0,12,550.2,517.5)" />
<use xlink:href="#f1_21" transform="matrix(12,0,0,12,559,517.5)" />
<use xlink:href="#f1_2l" transform="matrix(12,0,0,12,567.4,517.5)" />
<use xlink:href="#f1_1x" transform="matrix(12,0,0,12,583.1,517.5)" />
<use xlink:href="#f1_28" transform="matrix(12,0,0,12,591.5,517.5)" />
<use xlink:href="#f1_2f" transform="matrix(12,0,0,12,596.3,517.5)" />
<use xlink:href="#f1_2b" transform="matrix(12,0,0,12,603.3,517.5)" />
<use xlink:href="#f1_1z" transform="matrix(12,0,0,12,620.1,517.5)" />
<use xlink:href="#f1_2b" transform="matrix(12,0,0,12,628.2,517.5)" />
<use xlink:href="#f1_2a" transform="matrix(12,0,0,12,637.7,517.5)" />
<use xlink:href="#f1_2g" transform="matrix(12,0,0,12,646.5,517.5)" />
<use xlink:href="#f1_1x" transform="matrix(12,0,0,12,652,517.5)" />
<use xlink:href="#f1_25" transform="matrix(12,0,0,12,660,517.5)" />
<use xlink:href="#f1_2a" transform="matrix(12,0,0,12,664.8,517.5)" />
<use xlink:href="#f1_20" transform="matrix(12,0,0,12,680.9,517.5)" />
<use xlink:href="#f1_2b" transform="matrix(12,0,0,12,690.1,517.5)" />
<use xlink:href="#f1_2h" transform="matrix(12,0,0,12,699.6,517.5)" />
<use xlink:href="#f1_1y" transform="matrix(12,0,0,12,708.8,517.5)" />
<use xlink:href="#f1_28" transform="matrix(12,0,0,12,717.9,517.5)" />
<use xlink:href="#f1_21" transform="matrix(12,0,0,12,722.3,517.5)" />
<use xlink:href="#f1_2f" transform="matrix(12,0,0,12,737.7,517.5)" />
<use xlink:href="#f1_2g" transform="matrix(12,0,0,12,744.7,517.5)" />
<use xlink:href="#f1_2e" transform="matrix(12,0,0,12,750.2,517.5)" />
<use xlink:href="#f1_1x" transform="matrix(12,0,0,12,756.4,517.5)" />
<use xlink:href="#f1_2a" transform="matrix(12,0,0,12,764.4,517.5)" />
<use xlink:href="#f1_20" transform="matrix(12,0,0,12,773.2,517.5)" />
<use xlink:href="#f1_21" transform="matrix(12,0,0,12,782.4,517.5)" />
<use xlink:href="#f1_20" transform="matrix(12,0,0,12,790.5,517.5)" />
<use xlink:href="#f1_14" transform="matrix(12,0,0,12,807,517.5)" />
<use xlink:href="#f1_1e" transform="matrix(12,0,0,12,820.2,517.5)" />
<use xlink:href="#f1_11" transform="matrix(12,0,0,12,833.4,517.5)" />
<use xlink:href="#f1_1x" transform="matrix(12,0,0,12,853.5,517.5)" />
<use xlink:href="#f1_2a" transform="matrix(12,0,0,12,861.6,517.5)" />
<use xlink:href="#f1_20" transform="matrix(12,0,0,12,870.4,517.5)" />
<use xlink:href="#f1_2e" transform="matrix(12,0,0,12,55,549.1)" />
<use xlink:href="#f1_25" transform="matrix(12,0,0,12,61.6,549.1)" />
<use xlink:href="#f1_1y" transform="matrix(12,0,0,12,66.4,549.1)" />
<use xlink:href="#f1_2b" transform="matrix(12,0,0,12,75.2,549.1)" />
<use xlink:href="#f1_2f" transform="matrix(12,0,0,12,84.7,549.1)" />
<use xlink:href="#f1_2b" transform="matrix(12,0,0,12,91.7,549.1)" />
<use xlink:href="#f1_29" transform="matrix(12,0,0,12,101.2,549.1)" />
<use xlink:href="#f1_21" transform="matrix(12,0,0,12,114.7,549.1)" />
<use xlink:href="#f1_2f" transform="matrix(12,0,0,12,123.2,549.1)" />
<use xlink:href="#f1_i" transform="matrix(12,0,0,12,130.1,549.1)" />
<use xlink:href="#f1_1k" transform="matrix(12,0,0,12,139.6,549.1)" />
<use xlink:href="#f1_24" transform="matrix(12,0,0,12,151,549.1)" />
<use xlink:href="#f1_21" transform="matrix(12,0,0,12,159.8,549.1)" />
<use xlink:href="#f1_2l" transform="matrix(12,0,0,12,168.2,549.1)" />
<use xlink:href="#f1_1x" transform="matrix(12,0,0,12,181.6,549.1)" />
<use xlink:href="#f1_2e" transform="matrix(12,0,0,12,189.6,549.1)" />
<use xlink:href="#f1_21" transform="matrix(12,0,0,12,195.9,549.1)" />
<use xlink:href="#f1_20" transform="matrix(12,0,0,12,208.7,549.1)" />
<use xlink:href="#f1_25" transform="matrix(12,0,0,12,218.2,549.1)" />
<use xlink:href="#f1_22" transform="matrix(12,0,0,12,223,549.1)" />
<use xlink:href="#f1_22" transform="matrix(12,0,0,12,228.9,549.1)" />
<use xlink:href="#f1_21" transform="matrix(12,0,0,12,234.7,549.1)" />
<use xlink:href="#f1_2e" transform="matrix(12,0,0,12,242.8,549.1)" />
<use xlink:href="#f1_21" transform="matrix(12,0,0,12,249,549.1)" />
<use xlink:href="#f1_2a" transform="matrix(12,0,0,12,257.4,549.1)" />
<use xlink:href="#f1_2g" transform="matrix(12,0,0,12,266.2,549.1)" />
<use xlink:href="#f1_25" transform="matrix(12,0,0,12,272.1,549.1)" />
<use xlink:href="#f1_1x" transform="matrix(12,0,0,12,276.5,549.1)" />
<use xlink:href="#f1_2g" transform="matrix(12,0,0,12,284.5,549.1)" />
<use xlink:href="#f1_21" transform="matrix(12,0,0,12,290,549.1)" />
<use xlink:href="#f1_20" transform="matrix(12,0,0,12,298.1,549.1)" />
<use xlink:href="#f1_25" transform="matrix(12,0,0,12,312.4,549.1)" />
<use xlink:href="#f1_2a" transform="matrix(12,0,0,12,317.1,549.1)" />
<use xlink:href="#f1_2g" transform="matrix(12,0,0,12,325.9,549.1)" />
<use xlink:href="#f1_2b" transform="matrix(12,0,0,12,331.4,549.1)" />
<use xlink:href="#f1_h" transform="matrix(12,0,0,12,340.7,549.1)" />
<use xlink:href="#f1_28" transform="matrix(12,0,0,12,351.8,549.1)" />
<use xlink:href="#f1_21" transform="matrix(12,0,0,12,356.2,549.1)" />
<use xlink:href="#f1_2h" transform="matrix(12,0,0,12,364.3,549.1)" />
<use xlink:href="#f1_1z" transform="matrix(12,0,0,12,373.4,549.1)" />
<use xlink:href="#f1_2b" transform="matrix(12,0,0,12,381.5,549.1)" />
<use xlink:href="#f1_2c" transform="matrix(12,0,0,12,391,549.1)" />
<use xlink:href="#f1_28" transform="matrix(12,0,0,12,400.5,549.1)" />
<use xlink:href="#f1_1x" transform="matrix(12,0,0,12,404.9,549.1)" />
<use xlink:href="#f1_2f" transform="matrix(12,0,0,12,413.3,549.1)" />
<use xlink:href="#f1_2g" transform="matrix(12,0,0,12,420.3,549.1)" />
<use xlink:href="#f1_g" transform="matrix(12,0,0,12,425.8,549.1)" />
<use xlink:href="#f1_1z" transform="matrix(12,0,0,12,434.9,549.1)" />
<use xlink:href="#f1_24" transform="matrix(12,0,0,12,443,549.1)" />
<use xlink:href="#f1_2e" transform="matrix(12,0,0,12,451.8,549.1)" />
<use xlink:href="#f1_2b" transform="matrix(12,0,0,12,458,549.1)" />
<use xlink:href="#f1_29" transform="matrix(12,0,0,12,467.5,549.1)" />
<use xlink:href="#f1_2b" transform="matrix(12,0,0,12,481.1,549.1)" />
<use xlink:href="#f1_2c" transform="matrix(12,0,0,12,490.6,549.1)" />
<use xlink:href="#f1_28" transform="matrix(12,0,0,12,500.1,549.1)" />
<use xlink:href="#f1_1x" transform="matrix(12,0,0,12,504.5,549.1)" />
<use xlink:href="#f1_2f" transform="matrix(12,0,0,12,512.9,549.1)" />
<use xlink:href="#f1_2g" transform="matrix(12,0,0,12,519.9,549.1)" />
<use xlink:href="#f1_1x" transform="matrix(12,0,0,12,530.1,549.1)" />
<use xlink:href="#f1_2a" transform="matrix(12,0,0,12,538.2,549.1)" />
<use xlink:href="#f1_20" transform="matrix(12,0,0,12,547,549.1)" />
<use xlink:href="#f1_1z" transform="matrix(12,0,0,12,560.9,549.1)" />
<use xlink:href="#f1_24" transform="matrix(12,0,0,12,569,549.1)" />
<use xlink:href="#f1_28" transform="matrix(12,0,0,12,578.1,549.1)" />
<use xlink:href="#f1_2b" transform="matrix(12,0,0,12,582.5,549.1)" />
<use xlink:href="#f1_2e" transform="matrix(12,0,0,12,592.1,549.1)" />
<use xlink:href="#f1_2b" transform="matrix(12,0,0,12,598.3,549.1)" />
<use xlink:href="#f1_2c" transform="matrix(12,0,0,12,607.8,549.1)" />
<use xlink:href="#f1_28" transform="matrix(12,0,0,12,617,549.1)" />
<use xlink:href="#f1_1x" transform="matrix(12,0,0,12,621.7,549.1)" />
<use xlink:href="#f1_2f" transform="matrix(12,0,0,12,629.8,549.1)" />
<use xlink:href="#f1_2g" transform="matrix(12,0,0,12,636.8,549.1)" />
<use xlink:href="#f1_i" transform="matrix(12,0,0,12,642.2,549.1)" />
<use xlink:href="#f1_13" transform="matrix(12,0,0,12,55,593.1)" />
<use xlink:href="#f1_24" transform="matrix(12,0,0,12,67.1,593.1)" />
<use xlink:href="#f1_28" transform="matrix(12,0,0,12,76.3,593.1)" />
<use xlink:href="#f1_2b" transform="matrix(12,0,0,12,80.7,593.1)" />
<use xlink:href="#f1_2e" transform="matrix(12,0,0,12,90.2,593.1)" />
<use xlink:href="#f1_2b" transform="matrix(12,0,0,12,96.4,593.1)" />
<use xlink:href="#f1_2c" transform="matrix(12,0,0,12,105.9,593.1)" />
<use xlink:href="#f1_28" transform="matrix(12,0,0,12,115.5,593.1)" />
<use xlink:href="#f1_1x" transform="matrix(12,0,0,12,119.9,593.1)" />
<use xlink:href="#f1_2f" transform="matrix(12,0,0,12,127.9,593.1)" />
<use xlink:href="#f1_2g" transform="matrix(12,0,0,12,134.9,593.1)" />
<use xlink:href="#f1_21" transform="matrix(12,0,0,12,144.8,593.1)" />
<use xlink:href="#f1_2a" transform="matrix(12,0,0,12,152.8,593.1)" />
<use xlink:href="#f1_1z" transform="matrix(12,0,0,12,161.6,593.1)" />
<use xlink:href="#f1_28" transform="matrix(12,0,0,12,170.1,593.1)" />
<use xlink:href="#f1_2b" transform="matrix(12,0,0,12,174.5,593.1)" />
<use xlink:href="#f1_2f" transform="matrix(12,0,0,12,184.3,593.1)" />
<use xlink:href="#f1_21" transform="matrix(12,0,0,12,191.3,593.1)" />
<use xlink:href="#f1_2f" transform="matrix(12,0,0,12,199.4,593.1)" />
<use xlink:href="#f1_2g" transform="matrix(12,0,0,12,210.7,593.1)" />
<use xlink:href="#f1_24" transform="matrix(12,0,0,12,216.2,593.1)" />
<use xlink:href="#f1_21" transform="matrix(12,0,0,12,225,593.1)" />
<use xlink:href="#f1_22" transform="matrix(12,0,0,12,237.8,593.1)" />
<use xlink:href="#f1_28" transform="matrix(12,0,0,12,243.7,593.1)" />
<use xlink:href="#f1_2h" transform="matrix(12,0,0,12,248.5,593.1)" />
<use xlink:href="#f1_25" transform="matrix(12,0,0,12,258,593.1)" />
<use xlink:href="#f1_20" transform="matrix(12,0,0,12,262.8,593.1)" />
<use xlink:href="#f1_22" transform="matrix(12,0,0,12,276.7,593.1)" />
<use xlink:href="#f1_25" transform="matrix(12,0,0,12,282.5,593.1)" />
<use xlink:href="#f1_28" transform="matrix(12,0,0,12,287.6,593.1)" />
<use xlink:href="#f1_28" transform="matrix(12,0,0,12,292.8,593.1)" />
<use xlink:href="#f1_21" transform="matrix(12,0,0,12,297.5,593.1)" />
<use xlink:href="#f1_20" transform="matrix(12,0,0,12,305.6,593.1)" />
<use xlink:href="#f1_2f" transform="matrix(12,0,0,12,319.2,593.1)" />
<use xlink:href="#f1_2g" transform="matrix(12,0,0,12,326.1,593.1)" />
<use xlink:href="#f1_2e" transform="matrix(12,0,0,12,331.6,593.1)" />
<use xlink:href="#f1_2h" transform="matrix(12,0,0,12,337.8,593.1)" />
<use xlink:href="#f1_1z" transform="matrix(12,0,0,12,347,593.1)" />
<use xlink:href="#f1_2g" transform="matrix(12,0,0,12,355.1,593.1)" />
<use xlink:href="#f1_2h" transform="matrix(12,0,0,12,360.6,593.1)" />
<use xlink:href="#f1_2e" transform="matrix(12,0,0,12,369.7,593.1)" />
<use xlink:href="#f1_21" transform="matrix(12,0,0,12,375.9,593.1)" />
<use xlink:href="#f1_27" transform="matrix(12,0,0,12,388,593.1)" />
<use xlink:href="#f1_2a" transform="matrix(12,0,0,12,397.2,593.1)" />
<use xlink:href="#f1_2b" transform="matrix(12,0,0,12,406,593.1)" />
<use xlink:href="#f1_2j" transform="matrix(12,0,0,12,415.5,593.1)" />
<use xlink:href="#f1_2a" transform="matrix(12,0,0,12,428.4,593.1)" />
<use xlink:href="#f1_1x" transform="matrix(12,0,0,12,441.6,593.1)" />
<use xlink:href="#f1_2f" transform="matrix(12,0,0,12,449.6,593.1)" />
<use xlink:href="#f1_2f" transform="matrix(12,0,0,12,461,593.1)" />
<use xlink:href="#f1_2g" transform="matrix(12,0,0,12,468,593.1)" />
<use xlink:href="#f1_2e" transform="matrix(12,0,0,12,473.4,593.1)" />
<use xlink:href="#f1_2b" transform="matrix(12,0,0,12,479.7,593.1)" />
<use xlink:href="#f1_29" transform="matrix(12,0,0,12,489.2,593.1)" />
<use xlink:href="#f1_1x" transform="matrix(12,0,0,12,502.7,593.1)" />
<use xlink:href="#f1_i" transform="matrix(12,0,0,12,510.8,593.1)" />
<use xlink:href="#f1_1j" transform="matrix(12,0,0,12,520.5,593.1)" />
<use xlink:href="#f1_2g" transform="matrix(12,0,0,12,530.7,593.1)" />
<use xlink:href="#f1_2e" transform="matrix(12,0,0,12,535.8,593.1)" />
<use xlink:href="#f1_2b" transform="matrix(12,0,0,12,541.7,593.1)" />
<use xlink:href="#f1_29" transform="matrix(12,0,0,12,551.2,593.1)" />
<use xlink:href="#f1_1x" transform="matrix(12,0,0,12,565.2,593.1)" />
<use xlink:href="#f1_1z" transform="matrix(12,0,0,12,577.6,593.1)" />
<use xlink:href="#f1_2b" transform="matrix(12,0,0,12,585.7,593.1)" />
<use xlink:href="#f1_2a" transform="matrix(12,0,0,12,595.2,593.1)" />
<use xlink:href="#f1_2g" transform="matrix(12,0,0,12,604,593.1)" />
<use xlink:href="#f1_1x" transform="matrix(12,0,0,12,609.5,593.1)" />
<use xlink:href="#f1_25" transform="matrix(12,0,0,12,617.6,593.1)" />
<use xlink:href="#f1_2a" transform="matrix(12,0,0,12,622.3,593.1)" />
<use xlink:href="#f1_2f" transform="matrix(12,0,0,12,631.5,593.1)" />
<use xlink:href="#f1_1x" transform="matrix(12,0,0,12,642.9,593.1)" />
<use xlink:href="#f1_2f" transform="matrix(12,0,0,12,655.3,593.1)" />
<use xlink:href="#f1_2g" transform="matrix(12,0,0,12,662.3,593.1)" />
<use xlink:href="#f1_1x" transform="matrix(12,0,0,12,667.8,593.1)" />
<use xlink:href="#f1_1z" transform="matrix(12,0,0,12,675.9,593.1)" />
<use xlink:href="#f1_27" transform="matrix(12,0,0,12,683.9,593.1)" />
<use xlink:href="#f1_2b" transform="matrix(12,0,0,12,697.5,593.1)" />
<use xlink:href="#f1_22" transform="matrix(12,0,0,12,707,593.1)" />
<use xlink:href="#f1_2f" transform="matrix(12,0,0,12,716.9,593.1)" />
<use xlink:href="#f1_1x" transform="matrix(12,0,0,12,723.9,593.1)" />
<use xlink:href="#f1_1z" transform="matrix(12,0,0,12,731.9,593.1)" />
<use xlink:href="#f1_2f" transform="matrix(12,0,0,12,740,593.1)" />
<use xlink:href="#f1_1z" transform="matrix(12,0,0,12,751.4,593.1)" />
<use xlink:href="#f1_1x" transform="matrix(12,0,0,12,759.4,593.1)" />
<use xlink:href="#f1_28" transform="matrix(12,0,0,12,767.9,593.1)" />
<use xlink:href="#f1_28" transform="matrix(12,0,0,12,773,593.1)" />
<use xlink:href="#f1_21" transform="matrix(12,0,0,12,777.8,593.1)" />
<use xlink:href="#f1_20" transform="matrix(12,0,0,12,785.8,593.1)" />
<use xlink:href="#f1_1x" transform="matrix(12,0,0,12,799.7,593.1)" />
<use xlink:href="#f1_2f" transform="matrix(12,0,0,12,807.8,593.1)" />
<use xlink:href="#f1_23" transform="matrix(12,0,0,12,819.2,593.1)" />
<use xlink:href="#f1_2e" transform="matrix(12,0,0,12,828.3,593.1)" />
<use xlink:href="#f1_1x" transform="matrix(12,0,0,12,834.6,593.1)" />
<use xlink:href="#f1_2a" transform="matrix(12,0,0,12,842.6,593.1)" />
<use xlink:href="#f1_2h" transform="matrix(12,0,0,12,851.4,593.1)" />
<use xlink:href="#f1_29" transform="matrix(12,0,0,12,860.9,593.1)" />
<use xlink:href="#f1_i" transform="matrix(12,0,0,12,874.9,593.1)" />
<use xlink:href="#f1_15" transform="matrix(12,0,0,12,55,624.6)" />
<use xlink:href="#f1_1x" transform="matrix(12,0,0,12,66.4,624.6)" />
<use xlink:href="#f1_1z" transform="matrix(12,0,0,12,74.5,624.6)" />
<use xlink:href="#f1_24" transform="matrix(12,0,0,12,82.5,624.6)" />
<use xlink:href="#f1_2b" transform="matrix(12,0,0,12,96.1,624.6)" />
<use xlink:href="#f1_22" transform="matrix(12,0,0,12,105.6,624.6)" />
<use xlink:href="#f1_2g" transform="matrix(12,0,0,12,115.8,624.6)" />
<use xlink:href="#f1_24" transform="matrix(12,0,0,12,121.3,624.6)" />
<use xlink:href="#f1_21" transform="matrix(12,0,0,12,130.1,624.6)" />
<use xlink:href="#f1_22" transform="matrix(12,0,0,12,142.9,624.6)" />
<use xlink:href="#f1_28" transform="matrix(12,0,0,12,148.8,624.6)" />
<use xlink:href="#f1_1x" transform="matrix(12,0,0,12,153.6,624.6)" />
<use xlink:href="#f1_2g" transform="matrix(12,0,0,12,161.6,624.6)" />
<use xlink:href="#f1_2g" transform="matrix(12,0,0,12,167.1,624.6)" />
<use xlink:href="#f1_21" transform="matrix(12,0,0,12,172.6,624.6)" />
<use xlink:href="#f1_2a" transform="matrix(12,0,0,12,180.7,624.6)" />
<use xlink:href="#f1_21" transform="matrix(12,0,0,12,189.5,624.6)" />
<use xlink:href="#f1_20" transform="matrix(12,0,0,12,197.5,624.6)" />
<use xlink:href="#f1_2f" transform="matrix(12,0,0,12,211.6,624.6)" />
<use xlink:href="#f1_1x" transform="matrix(12,0,0,12,218.6,624.6)" />
<use xlink:href="#f1_1z" transform="matrix(12,0,0,12,226.7,624.6)" />
<use xlink:href="#f1_2f" transform="matrix(12,0,0,12,234.7,624.6)" />
<use xlink:href="#f1_2c" transform="matrix(12,0,0,12,246.5,624.6)" />
<use xlink:href="#f1_2e" transform="matrix(12,0,0,12,255.6,624.6)" />
<use xlink:href="#f1_21" transform="matrix(12,0,0,12,261.9,624.6)" />
<use xlink:href="#f1_2f" transform="matrix(12,0,0,12,269.9,624.6)" />
<use xlink:href="#f1_21" transform="matrix(12,0,0,12,276.9,624.6)" />
<use xlink:href="#f1_2a" transform="matrix(12,0,0,12,285,624.6)" />
<use xlink:href="#f1_2g" transform="matrix(12,0,0,12,293.8,624.6)" />
<use xlink:href="#f1_25" transform="matrix(12,0,0,12,304,624.6)" />
<use xlink:href="#f1_2a" transform="matrix(12,0,0,12,308.8,624.6)" />
<use xlink:href="#f1_2g" transform="matrix(12,0,0,12,322.4,624.6)" />
<use xlink:href="#f1_24" transform="matrix(12,0,0,12,327.9,624.6)" />
<use xlink:href="#f1_21" transform="matrix(12,0,0,12,336.7,624.6)" />
<use xlink:href="#f1_23" transform="matrix(12,0,0,12,349.5,624.6)" />
<use xlink:href="#f1_2e" transform="matrix(12,0,0,12,358.7,624.6)" />
<use xlink:href="#f1_1x" transform="matrix(12,0,0,12,364.9,624.6)" />
<use xlink:href="#f1_2a" transform="matrix(12,0,0,12,373,624.6)" />
<use xlink:href="#f1_2h" transform="matrix(12,0,0,12,381.8,624.6)" />
<use xlink:href="#f1_29" transform="matrix(12,0,0,12,391.3,624.6)" />
<use xlink:href="#f1_25" transform="matrix(12,0,0,12,409.9,624.6)" />
<use xlink:href="#f1_2f" transform="matrix(12,0,0,12,414.7,624.6)" />
<use xlink:href="#f1_1z" transform="matrix(12,0,0,12,426.4,624.6)" />
<use xlink:href="#f1_1x" transform="matrix(12,0,0,12,434.5,624.6)" />
<use xlink:href="#f1_28" transform="matrix(12,0,0,12,442.9,624.6)" />
<use xlink:href="#f1_28" transform="matrix(12,0,0,12,447.7,624.6)" />
<use xlink:href="#f1_21" transform="matrix(12,0,0,12,452.4,624.6)" />
<use xlink:href="#f1_20" transform="matrix(12,0,0,12,460.5,624.6)" />
<use xlink:href="#f1_1x" transform="matrix(12,0,0,12,474.4,624.6)" />
<use xlink:href="#f1_2g" transform="matrix(12,0,0,12,487.2,624.6)" />
<use xlink:href="#f1_24" transform="matrix(12,0,0,12,492.7,624.6)" />
<use xlink:href="#f1_2l" transform="matrix(12,0,0,12,501.9,624.6)" />
<use xlink:href="#f1_28" transform="matrix(12,0,0,12,510.7,624.6)" />
<use xlink:href="#f1_1x" transform="matrix(12,0,0,12,515.5,624.6)" />
<use xlink:href="#f1_27" transform="matrix(12,0,0,12,523.5,624.6)" />
<use xlink:href="#f1_2b" transform="matrix(12,0,0,12,532.7,624.6)" />
<use xlink:href="#f1_25" transform="matrix(12,0,0,12,542.6,624.6)" />
<use xlink:href="#f1_20" transform="matrix(12,0,0,12,547,624.6)" />
<use xlink:href="#f1_i" transform="matrix(12,0,0,12,556.1,624.6)" />
<use xlink:href="#f1_15" transform="matrix(12,0,0,12,565.6,624.6)" />
<use xlink:href="#f1_1x" transform="matrix(12,0,0,12,577,624.6)" />
<use xlink:href="#f1_1z" transform="matrix(12,0,0,12,585.1,624.6)" />
<use xlink:href="#f1_24" transform="matrix(12,0,0,12,593.1,624.6)" />
<use xlink:href="#f1_23" transform="matrix(12,0,0,12,606.7,624.6)" />
<use xlink:href="#f1_2e" transform="matrix(12,0,0,12,616.2,624.6)" />
<use xlink:href="#f1_1x" transform="matrix(12,0,0,12,622.4,624.6)" />
<use xlink:href="#f1_2a" transform="matrix(12,0,0,12,630.5,624.6)" />
<use xlink:href="#f1_2h" transform="matrix(12,0,0,12,639.3,624.6)" />
<use xlink:href="#f1_29" transform="matrix(12,0,0,12,648.8,624.6)" />
<use xlink:href="#f1_25" transform="matrix(12,0,0,12,667.5,624.6)" />
<use xlink:href="#f1_2f" transform="matrix(12,0,0,12,672.3,624.6)" />
<use xlink:href="#f1_1z" transform="matrix(12,0,0,12,684,624.6)" />
<use xlink:href="#f1_2b" transform="matrix(12,0,0,12,692,624.6)" />
<use xlink:href="#f1_2a" transform="matrix(12,0,0,12,701.7,624.6)" />
<use xlink:href="#f1_2a" transform="matrix(12,0,0,12,710.5,624.6)" />
<use xlink:href="#f1_21" transform="matrix(12,0,0,12,719.3,624.6)" />
<use xlink:href="#f1_1z" transform="matrix(12,0,0,12,727.7,624.6)" />
<use xlink:href="#f1_2g" transform="matrix(12,0,0,12,735.8,624.6)" />
<use xlink:href="#f1_21" transform="matrix(12,0,0,12,741.3,624.6)" />
<use xlink:href="#f1_20" transform="matrix(12,0,0,12,749.3,624.6)" />
<use xlink:href="#f1_2g" transform="matrix(12,0,0,12,762.9,624.6)" />
<use xlink:href="#f1_2b" transform="matrix(12,0,0,12,768,624.6)" />
<use xlink:href="#f1_21" transform="matrix(12,0,0,12,781.9,624.6)" />
<use xlink:href="#f1_1x" transform="matrix(12,0,0,12,790,624.6)" />
<use xlink:href="#f1_1z" transform="matrix(12,0,0,12,797.7,624.6)" />
<use xlink:href="#f1_24" transform="matrix(12,0,0,12,805.8,624.6)" />
<use xlink:href="#f1_2b" transform="matrix(12,0,0,12,819.3,624.6)" />
<use xlink:href="#f1_2g" transform="matrix(12,0,0,12,828.5,624.6)" />
<use xlink:href="#f1_24" transform="matrix(12,0,0,12,834,624.6)" />
<use xlink:href="#f1_21" transform="matrix(12,0,0,12,842.8,624.6)" />
<use xlink:href="#f1_2e" transform="matrix(12,0,0,12,850.8,624.6)" />
<use xlink:href="#f1_1y" transform="matrix(12,0,0,12,861.8,624.6)" />
<use xlink:href="#f1_2l" transform="matrix(12,0,0,12,871.3,624.6)" />
<use xlink:href="#f1_2f" transform="matrix(12,0,0,12,55,656.2)" />
<use xlink:href="#f1_2g" transform="matrix(12,0,0,12,62,656.2)" />
<use xlink:href="#f1_2e" transform="matrix(12,0,0,12,67.5,656.2)" />
<use xlink:href="#f1_2b" transform="matrix(12,0,0,12,73.4,656.2)" />
<use xlink:href="#f1_29" transform="matrix(12,0,0,12,82.9,656.2)" />
<use xlink:href="#f1_1x" transform="matrix(12,0,0,12,96.4,656.2)" />
<use xlink:href="#f1_28" transform="matrix(12,0,0,12,109.7,656.2)" />
<use xlink:href="#f1_1x" transform="matrix(12,0,0,12,114.4,656.2)" />
<use xlink:href="#f1_29" transform="matrix(12,0,0,12,122.9,656.2)" />
<use xlink:href="#f1_21" transform="matrix(12,0,0,12,136.8,656.2)" />
<use xlink:href="#f1_28" transform="matrix(12,0,0,12,145.2,656.2)" />
<use xlink:href="#f1_28" transform="matrix(12,0,0,12,150,656.2)" />
<use xlink:href="#f1_1x" transform="matrix(12,0,0,12,154.7,656.2)" />
<use xlink:href="#f1_21" transform="matrix(12,0,0,12,163.1,656.2)" />
<use xlink:href="#f1_i" transform="matrix(12,0,0,12,171.2,656.2)" />
<use xlink:href="#f0_16" transform="matrix(12,0,0,12,347.4,972.7)" />
<use xlink:href="#f0_25" transform="matrix(12,0,0,12,358.4,972.7)" />
<use xlink:href="#f0_23" transform="matrix(12,0,0,12,363.5,972.7)" />
<use xlink:href="#f0_i" transform="matrix(12,0,0,12,372.6,972.7)" />
<use xlink:href="#f0_t" transform="matrix(12,0,0,12,382.2,972.7)" />
<use xlink:href="#f0_i" transform="matrix(12,0,0,12,391.3,972.7)" />
<use xlink:href="#f0_1j" transform="matrix(12,0,0,12,400.5,972.7)" />
<use xlink:href="#f0_2g" transform="matrix(12,0,0,12,410.7,972.7)" />
<use xlink:href="#f0_2e" transform="matrix(12,0,0,12,417,972.7)" />
<use xlink:href="#f0_2h" transform="matrix(12,0,0,12,424.7,972.7)" />
<use xlink:href="#f0_1z" transform="matrix(12,0,0,12,434.9,972.7)" />
<use xlink:href="#f0_2g" transform="matrix(12,0,0,12,443,972.7)" />
<use xlink:href="#f0_2h" transform="matrix(12,0,0,12,449.2,972.7)" />
<use xlink:href="#f0_2e" transform="matrix(12,0,0,12,459.4,972.7)" />
<use xlink:href="#f0_21" transform="matrix(12,0,0,12,467.1,972.7)" />
<use xlink:href="#f0_2b" transform="matrix(12,0,0,12,480,972.7)" />
<use xlink:href="#f0_22" transform="matrix(12,0,0,12,489.1,972.7)" />
<use xlink:href="#f0_1z" transform="matrix(12,0,0,12,499.7,972.7)" />
<use xlink:href="#f0_24" transform="matrix(12,0,0,12,507.8,972.7)" />
<use xlink:href="#f0_28" transform="matrix(12,0,0,12,518.1,972.7)" />
<use xlink:href="#f0_2b" transform="matrix(12,0,0,12,522.8,972.7)" />
<use xlink:href="#f0_2e" transform="matrix(12,0,0,12,532.3,972.7)" />
<use xlink:href="#f0_2b" transform="matrix(12,0,0,12,540.4,972.7)" />
<use xlink:href="#f0_2c" transform="matrix(12,0,0,12,549.6,972.7)" />
<use xlink:href="#f0_28" transform="matrix(12,0,0,12,559.8,972.7)" />
<use xlink:href="#f0_1x" transform="matrix(12,0,0,12,564.6,972.7)" />
<use xlink:href="#f0_2f" transform="matrix(12,0,0,12,574.1,972.7)" />
<use xlink:href="#f0_2g" transform="matrix(12,0,0,12,581.1,972.7)" />
<use xlink:href="#f1_13" transform="matrix(12,0,0,12,55,1060.3)" />
<use xlink:href="#f1_24" transform="matrix(12,0,0,12,67.1,1060.3)" />
<use xlink:href="#f1_2e" transform="matrix(12,0,0,12,75.9,1060.3)" />
<use xlink:href="#f1_2b" transform="matrix(12,0,0,12,82.2,1060.3)" />
<use xlink:href="#f1_29" transform="matrix(12,0,0,12,92,1060.3)" />
<use xlink:href="#f1_2b" transform="matrix(12,0,0,12,105.6,1060.3)" />
<use xlink:href="#f1_2c" transform="matrix(12,0,0,12,115.1,1060.3)" />
<use xlink:href="#f1_28" transform="matrix(12,0,0,12,124.6,1060.3)" />
<use xlink:href="#f1_1x" transform="matrix(12,0,0,12,129,1060.3)" />
<use xlink:href="#f1_2f" transform="matrix(12,0,0,12,137.1,1060.3)" />
<use xlink:href="#f1_2g" transform="matrix(12,0,0,12,144.1,1060.3)" />
<use xlink:href="#f1_2f" transform="matrix(12,0,0,12,149.5,1060.3)" />
<use xlink:href="#f1_1x" transform="matrix(12,0,0,12,161.3,1060.3)" />
<use xlink:href="#f1_2e" transform="matrix(12,0,0,12,169.3,1060.3)" />
<use xlink:href="#f1_21" transform="matrix(12,0,0,12,175.5,1060.3)" />
<use xlink:href="#f1_2c" transform="matrix(12,0,0,12,188.4,1060.3)" />
<use xlink:href="#f1_28" transform="matrix(12,0,0,12,197.5,1060.3)" />
<use xlink:href="#f1_1x" transform="matrix(12,0,0,12,202.3,1060.3)" />
<use xlink:href="#f1_2f" transform="matrix(12,0,0,12,210.4,1060.3)" />
<use xlink:href="#f1_2g" transform="matrix(12,0,0,12,217.3,1060.3)" />
<use xlink:href="#f1_25" transform="matrix(12,0,0,12,223.2,1060.3)" />
<use xlink:href="#f1_20" transform="matrix(12,0,0,12,227.6,1060.3)" />
<use xlink:href="#f1_2f" transform="matrix(12,0,0,12,236.7,1060.3)" />
<use xlink:href="#f1_2e" transform="matrix(12,0,0,12,248.5,1060.3)" />
<use xlink:href="#f1_21" transform="matrix(12,0,0,12,254.7,1060.3)" />
<use xlink:href="#f1_2f" transform="matrix(12,0,0,12,262.7,1060.3)" />
<use xlink:href="#f1_2c" transform="matrix(12,0,0,12,269.7,1060.3)" />
<use xlink:href="#f1_2b" transform="matrix(12,0,0,12,278.9,1060.3)" />
<use xlink:href="#f1_2a" transform="matrix(12,0,0,12,288.4,1060.3)" />
<use xlink:href="#f1_2f" transform="matrix(12,0,0,12,297.2,1060.3)" />
<use xlink:href="#f1_25" transform="matrix(12,0,0,12,304.5,1060.3)" />
<use xlink:href="#f1_1y" transform="matrix(12,0,0,12,309.3,1060.3)" />
<use xlink:href="#f1_28" transform="matrix(12,0,0,12,318.8,1060.3)" />
<use xlink:href="#f1_21" transform="matrix(12,0,0,12,323.5,1060.3)" />
<use xlink:href="#f1_22" transform="matrix(12,0,0,12,336.7,1060.3)" />
<use xlink:href="#f1_2b" transform="matrix(12,0,0,12,342.2,1060.3)" />
<use xlink:href="#f1_2e" transform="matrix(12,0,0,12,351.7,1060.3)" />
<use xlink:href="#f1_2c" transform="matrix(12,0,0,12,362.7,1060.3)" />
<use xlink:href="#f1_25" transform="matrix(12,0,0,12,371.9,1060.3)" />
<use xlink:href="#f1_23" transform="matrix(12,0,0,12,376.3,1060.3)" />
<use xlink:href="#f1_29" transform="matrix(12,0,0,12,385.8,1060.3)" />
<use xlink:href="#f1_21" transform="matrix(12,0,0,12,399.7,1060.3)" />
<use xlink:href="#f1_2a" transform="matrix(12,0,0,12,408.1,1060.3)" />
<use xlink:href="#f1_2g" transform="matrix(12,0,0,12,416.9,1060.3)" />
<use xlink:href="#f1_2f" transform="matrix(12,0,0,12,426.8,1060.3)" />
<use xlink:href="#f1_2l" transform="matrix(12,0,0,12,434.1,1060.3)" />
<use xlink:href="#f1_2a" transform="matrix(12,0,0,12,442.9,1060.3)" />
<use xlink:href="#f1_2g" transform="matrix(12,0,0,12,451.7,1060.3)" />
<use xlink:href="#f1_24" transform="matrix(12,0,0,12,457.2,1060.3)" />
<use xlink:href="#f1_21" transform="matrix(12,0,0,12,466.4,1060.3)" />
<use xlink:href="#f1_2f" transform="matrix(12,0,0,12,474.4,1060.3)" />
<use xlink:href="#f1_25" transform="matrix(12,0,0,12,481.8,1060.3)" />
<use xlink:href="#f1_2f" transform="matrix(12,0,0,12,486.5,1060.3)" />
<use xlink:href="#f1_1x" transform="matrix(12,0,0,12,498.2,1060.3)" />
<use xlink:href="#f1_2a" transform="matrix(12,0,0,12,506.7,1060.3)" />
<use xlink:href="#f1_20" transform="matrix(12,0,0,12,515.5,1060.3)" />
<use xlink:href="#f1_2f" transform="matrix(12,0,0,12,529.4,1060.3)" />
<use xlink:href="#f1_2g" transform="matrix(12,0,0,12,536.3,1060.3)" />
<use xlink:href="#f1_2b" transform="matrix(12,0,0,12,541.8,1060.3)" />
<use xlink:href="#f1_2e" transform="matrix(12,0,0,12,551,1060.3)" />
<use xlink:href="#f1_1x" transform="matrix(12,0,0,12,557.2,1060.3)" />
<use xlink:href="#f1_23" transform="matrix(12,0,0,12,565.3,1060.3)" />
<use xlink:href="#f1_21" transform="matrix(12,0,0,12,574.4,1060.3)" />
<use xlink:href="#f1_i" transform="matrix(12,0,0,12,582.5,1060.3)" />
<use xlink:href="#f1_1k" transform="matrix(12,0,0,12,591.7,1060.3)" />
<use xlink:href="#f1_24" transform="matrix(12,0,0,12,603,1060.3)" />
<use xlink:href="#f1_21" transform="matrix(12,0,0,12,611.8,1060.3)" />
<use xlink:href="#f1_2l" transform="matrix(12,0,0,12,620.2,1060.3)" />
<use xlink:href="#f1_23" transform="matrix(12,0,0,12,633.4,1060.3)" />
<use xlink:href="#f1_25" transform="matrix(12,0,0,12,642.9,1060.3)" />
<use xlink:href="#f1_2i" transform="matrix(12,0,0,12,647.7,1060.3)" />
<use xlink:href="#f1_21" transform="matrix(12,0,0,12,656.8,1060.3)" />
<use xlink:href="#f1_2l" transform="matrix(12,0,0,12,670,1060.3)" />
<use xlink:href="#f1_21" transform="matrix(12,0,0,12,678.5,1060.3)" />
<use xlink:href="#f1_28" transform="matrix(12,0,0,12,686.9,1060.3)" />
<use xlink:href="#f1_28" transform="matrix(12,0,0,12,692,1060.3)" />
<use xlink:href="#f1_2b" transform="matrix(12,0,0,12,696.4,1060.3)" />
<use xlink:href="#f1_2j" transform="matrix(12,0,0,12,705.9,1060.3)" />
<use xlink:href="#f1_g" transform="matrix(12,0,0,12,719.2,1060.3)" />
<use xlink:href="#f1_2b" transform="matrix(12,0,0,12,728.6,1060.3)" />
<use xlink:href="#f1_2e" transform="matrix(12,0,0,12,737.8,1060.3)" />
<use xlink:href="#f1_1x" transform="matrix(12,0,0,12,744,1060.3)" />
<use xlink:href="#f1_2a" transform="matrix(12,0,0,12,752.1,1060.3)" />
<use xlink:href="#f1_23" transform="matrix(12,0,0,12,760.9,1060.3)" />
<use xlink:href="#f1_21" transform="matrix(12,0,0,12,770,1060.3)" />
<use xlink:href="#f1_g" transform="matrix(12,0,0,12,778.1,1060.3)" />
<use xlink:href="#f1_2e" transform="matrix(12,0,0,12,787.6,1060.3)" />
<use xlink:href="#f1_21" transform="matrix(12,0,0,12,793.8,1060.3)" />
<use xlink:href="#f1_20" transform="matrix(12,0,0,12,801.5,1060.3)" />
<use xlink:href="#f1_1z" transform="matrix(12,0,0,12,815.4,1060.3)" />
<use xlink:href="#f1_2b" transform="matrix(12,0,0,12,823.5,1060.3)" />
<use xlink:href="#f1_28" transform="matrix(12,0,0,12,833,1060.3)" />
<use xlink:href="#f1_2b" transform="matrix(12,0,0,12,837.4,1060.3)" />
<use xlink:href="#f1_2e" transform="matrix(12,0,0,12,846.9,1060.3)" />
<use xlink:href="#f1_2f" transform="matrix(12,0,0,12,853.1,1060.3)" />
<use xlink:href="#f1_2g" transform="matrix(12,0,0,12,864.5,1060.3)" />
<use xlink:href="#f1_2b" transform="matrix(12,0,0,12,869.6,1060.3)" />
<use xlink:href="#f1_22" transform="matrix(12,0,0,12,55,1092.3)" />
<use xlink:href="#f1_2e" transform="matrix(12,0,0,12,60.5,1092.3)" />
<use xlink:href="#f1_2h" transform="matrix(12,0,0,12,66.8,1092.3)" />
<use xlink:href="#f1_25" transform="matrix(12,0,0,12,76.3,1092.3)" />
<use xlink:href="#f1_2g" transform="matrix(12,0,0,12,80.7,1092.3)" />
<use xlink:href="#f1_2f" transform="matrix(12,0,0,12,86.5,1092.3)" />
<use xlink:href="#f1_1x" transform="matrix(12,0,0,12,98.2,1092.3)" />
<use xlink:href="#f1_2a" transform="matrix(12,0,0,12,106.3,1092.3)" />
<use xlink:href="#f1_20" transform="matrix(12,0,0,12,115.1,1092.3)" />
<use xlink:href="#f1_22" transform="matrix(12,0,0,12,129.4,1092.3)" />
<use xlink:href="#f1_28" transform="matrix(12,0,0,12,135.2,1092.3)" />
<use xlink:href="#f1_2b" transform="matrix(12,0,0,12,139.6,1092.3)" />
<use xlink:href="#f1_2j" transform="matrix(12,0,0,12,149.2,1092.3)" />
<use xlink:href="#f1_21" transform="matrix(12,0,0,12,162.7,1092.3)" />
<use xlink:href="#f1_2e" transform="matrix(12,0,0,12,170.8,1092.3)" />
<use xlink:href="#f1_2f" transform="matrix(12,0,0,12,177,1092.3)" />
<use xlink:href="#f1_i" transform="matrix(12,0,0,12,184,1092.3)" />
<use xlink:href="#f1_1c" transform="matrix(12,0,0,12,193.5,1092.3)" />
<use xlink:href="#f1_21" transform="matrix(12,0,0,12,204.5,1092.3)" />
<use xlink:href="#f1_2h" transform="matrix(12,0,0,12,212.5,1092.3)" />
<use xlink:href="#f1_1z" transform="matrix(12,0,0,12,221.7,1092.3)" />
<use xlink:href="#f1_2b" transform="matrix(12,0,0,12,229.8,1092.3)" />
<use xlink:href="#f1_2c" transform="matrix(12,0,0,12,239.3,1092.3)" />
<use xlink:href="#f1_28" transform="matrix(12,0,0,12,248.4,1092.3)" />
<use xlink:href="#f1_1x" transform="matrix(12,0,0,12,253.2,1092.3)" />
<use xlink:href="#f1_2f" transform="matrix(12,0,0,12,261.3,1092.3)" />
<use xlink:href="#f1_2g" transform="matrix(12,0,0,12,268.2,1092.3)" />
<use xlink:href="#f1_1x" transform="matrix(12,0,0,12,278.5,1092.3)" />
<use xlink:href="#f1_2e" transform="matrix(12,0,0,12,286.5,1092.3)" />
<use xlink:href="#f1_21" transform="matrix(12,0,0,12,292.7,1092.3)" />
<use xlink:href="#f1_1z" transform="matrix(12,0,0,12,305.6,1092.3)" />
<use xlink:href="#f1_2b" transform="matrix(12,0,0,12,313.3,1092.3)" />
<use xlink:href="#f1_28" transform="matrix(12,0,0,12,322.8,1092.3)" />
<use xlink:href="#f1_2b" transform="matrix(12,0,0,12,327.2,1092.3)" />
<use xlink:href="#f1_2e" transform="matrix(12,0,0,12,336.7,1092.3)" />
<use xlink:href="#f1_28" transform="matrix(12,0,0,12,343.3,1092.3)" />
<use xlink:href="#f1_21" transform="matrix(12,0,0,12,347.7,1092.3)" />
<use xlink:href="#f1_2f" transform="matrix(12,0,0,12,355.7,1092.3)" />
<use xlink:href="#f1_2f" transform="matrix(12,0,0,12,363.1,1092.3)" />
<use xlink:href="#f1_2c" transform="matrix(12,0,0,12,374.8,1092.3)" />
<use xlink:href="#f1_28" transform="matrix(12,0,0,12,384.3,1092.3)" />
<use xlink:href="#f1_1x" transform="matrix(12,0,0,12,388.7,1092.3)" />
<use xlink:href="#f1_2f" transform="matrix(12,0,0,12,397.1,1092.3)" />
<use xlink:href="#f1_2g" transform="matrix(12,0,0,12,404.1,1092.3)" />
<use xlink:href="#f1_25" transform="matrix(12,0,0,12,409.5,1092.3)" />
<use xlink:href="#f1_20" transform="matrix(12,0,0,12,413.9,1092.3)" />
<use xlink:href="#f1_2f" transform="matrix(12,0,0,12,423.5,1092.3)" />
<use xlink:href="#f1_1x" transform="matrix(12,0,0,12,435.8,1092.3)" />
<use xlink:href="#f1_2a" transform="matrix(12,0,0,12,443.8,1092.3)" />
<use xlink:href="#f1_20" transform="matrix(12,0,0,12,452.6,1092.3)" />
<use xlink:href="#f1_1x" transform="matrix(12,0,0,12,466.5,1092.3)" />
<use xlink:href="#f1_1z" transform="matrix(12,0,0,12,474.6,1092.3)" />
<use xlink:href="#f1_2g" transform="matrix(12,0,0,12,482.7,1092.3)" />
<use xlink:href="#f1_2f" transform="matrix(12,0,0,12,488.1,1092.3)" />
<use xlink:href="#f1_1x" transform="matrix(12,0,0,12,499.9,1092.3)" />
<use xlink:href="#f1_2f" transform="matrix(12,0,0,12,507.9,1092.3)" />
<use xlink:href="#f1_2f" transform="matrix(12,0,0,12,519.6,1092.3)" />
<use xlink:href="#f1_2g" transform="matrix(12,0,0,12,526.6,1092.3)" />
<use xlink:href="#f1_2b" transform="matrix(12,0,0,12,531.7,1092.3)" />
<use xlink:href="#f1_2e" transform="matrix(12,0,0,12,541.3,1092.3)" />
<use xlink:href="#f1_1x" transform="matrix(12,0,0,12,547.5,1092.3)" />
<use xlink:href="#f1_23" transform="matrix(12,0,0,12,555.5,1092.3)" />
<use xlink:href="#f1_21" transform="matrix(12,0,0,12,564.7,1092.3)" />
<use xlink:href="#f1_2b" transform="matrix(12,0,0,12,577.2,1092.3)" />
<use xlink:href="#f1_2e" transform="matrix(12,0,0,12,586.3,1092.3)" />
<use xlink:href="#f1_23" transform="matrix(12,0,0,12,592.6,1092.3)" />
<use xlink:href="#f1_1x" transform="matrix(12,0,0,12,601.7,1092.3)" />
<use xlink:href="#f1_2a" transform="matrix(12,0,0,12,609.8,1092.3)" />
<use xlink:href="#f1_21" transform="matrix(12,0,0,12,618.6,1092.3)" />
<use xlink:href="#f1_28" transform="matrix(12,0,0,12,627,1092.3)" />
<use xlink:href="#f1_28" transform="matrix(12,0,0,12,632.1,1092.3)" />
<use xlink:href="#f1_21" transform="matrix(12,0,0,12,636.9,1092.3)" />
<use xlink:href="#f1_2f" transform="matrix(12,0,0,12,645,1092.3)" />
<use xlink:href="#f1_i" transform="matrix(12,0,0,12,651.9,1092.3)" />
</g>
<image preserveAspectRatio="none" x="180" y="55" width="574" height="334" xlink:href="img/1.png" />
<image preserveAspectRatio="none" x="255" y="683" width="425" height="249" xlink:href="img/2.png" />
<g fill="#000000" >
<use xlink:href="#f2_r" transform="matrix(8,0,0,8,818.2,1187.9)" />
</g>
<defs>
<path d="M36,0V54L154,74V926L26,945v55H860V731H790L766,908c0,0,-36,5,-121,8c0,0,-84,2,-133,2H389V508H633l23,127h67V298H656L633,426H389V74L556,54V0Z" 
id="f0_16"
transform="scale(0.001,-0.001)" />

<path d="M34,0V49l76,18V634L38,652v49H325V67L402,49V0ZM217,831c0,0,-48,0,-81,33c0,0,-34,33,-34,82c0,0,0,48,34,81c0,0,34,33,81,33c0,0,48,0,81,-33c0,0,33,-33,33,-81c0,0,0,-47,-33,-81c0,0,-32,-34,-81,-34Z" 
id="f0_25"
transform="scale(0.001,-0.001)" />

<path d="M360,-256c0,0,108,0,167,35c0,0,59,35,59,98c0,0,0,70,-95,70H254c0,0,-65,-47,-65,-108c0,0,0,-47,46,-71c0,0,45,-24,125,-24Zm9,561c0,0,55,0,79,43c0,0,25,43,25,129c0,0,0,87,-24,127c0,0,-25,41,-80,41c0,0,-52,0,-75,-41c0,0,-24,-40,-24,-127c0,0,0,-86,23,-129c0,0,23,-43,76,-43Zm-9,-641c0,0,-153,0,-236,43c0,0,-84,44,-84,120c0,0,0,33,28,65c0,0,27,31,105,76c0,0,-44,17,-75,59c0,0,-31,43,-31,90L192,258c0,0,-133,56,-133,219c0,0,0,116,81,180c0,0,82,63,233,63c0,0,32,0,82,-6c0,0,51,-6,74,-13l168,83l26,-32L638,631c0,0,46,-57,46,-154c0,0,0,-119,-80,-182c0,0,-80,-64,-234,-64c0,0,-59,0,-114,9L238,183c0,0,1,-22,28,-41c0,0,26,-19,64,-19H493c0,0,256,0,256,-196c0,0,0,-81,-44,-139c0,0,-45,-59,-131,-92c0,0,-86,-32,-214,-32Z" 
id="f0_23"
transform="scale(0.001,-0.001)" />

<path d="M191,-20c0,0,-51,0,-88,34c0,0,-36,36,-36,88c0,0,0,52,36,88c0,0,36,36,88,36c0,0,51,0,88,-36c0,0,36,-36,36,-88c0,0,0,-51,-36,-87c0,0,-36,-35,-88,-35Z" 
id="f0_i"
transform="scale(0.001,-0.001)" />

<path d="M377,60c0,0,65,0,94,49c0,0,30,49,30,160c0,0,0,115,-30,168c0,0,-29,52,-94,52c0,0,-61,0,-88,-51c0,0,-26,-51,-26,-169c0,0,0,-115,27,-162c0,0,27,-47,87,-47Zm2,509c0,0,51,0,75,43c0,0,24,43,24,143c0,0,0,98,-24,142c0,0,-25,45,-75,45c0,0,-48,0,-71,-45c0,0,-22,-44,-22,-142c0,0,0,-102,22,-144c0,0,22,-42,71,-42ZM377,-14c0,0,-326,0,-326,284c0,0,0,95,46,162c0,0,46,68,128,98c0,0,-72,28,-112,85c0,0,-39,58,-39,141c0,0,0,123,81,191c0,0,81,69,228,69c0,0,145,0,226,-70c0,0,81,-70,81,-192c0,0,0,-82,-40,-140c0,0,-41,-58,-114,-84c0,0,86,-32,132,-99c0,0,45,-67,45,-161c0,0,0,-142,-82,-213c0,0,-81,-71,-254,-71Z" 
id="f0_s"
transform="scale(0.001,-0.001)" />

<path d="M410,-14c0,0,-86,0,-175,14C235,0,145,14,81,38V307h66L181,146c0,0,31,-37,94,-62c0,0,64,-24,132,-24c0,0,214,0,214,177c0,0,0,55,-41,93c0,0,-41,38,-128,68c0,0,-128,42,-185,68c0,0,-56,27,-95,63c0,0,-38,36,-62,87c0,0,-23,51,-23,125c0,0,0,132,90,201c0,0,90,69,263,69c0,0,125,0,278,-32V741H651L618,878c0,0,-76,56,-178,56c0,0,-92,0,-141,-34c0,0,-49,-34,-49,-104c0,0,0,-50,41,-86c0,0,41,-35,128,-63c0,0,171,-56,235,-97c0,0,64,-41,97,-103c0,0,34,-61,34,-143c0,0,0,-318,-375,-318Z" 
id="f0_1j"
transform="scale(0.001,-0.001)" />

<path d="M327,-14c0,0,-101,0,-156,45c0,0,-55,45,-55,131V624H25v48l108,29l87,159H332V701H480V624H332V176c0,0,0,-49,20,-73c0,0,20,-25,53,-25c0,0,40,0,97,12V26c0,0,-22,-15,-76,-27c0,0,-55,-13,-99,-13Z" 
id="f0_2g"
transform="scale(0.001,-0.001)" />

<path d="M41,0V49l91,18V634L41,652v49H336l8,-145c0,0,80,89,144,128c0,0,64,40,117,40h40V468H604l-45,94c0,0,-47,0,-106,-21c0,0,-60,-20,-105,-48V67L460,49V0Z" 
id="f0_2e"
transform="scale(0.001,-0.001)" />

<path d="M287,-18c0,0,-194,0,-194,206V634L23,652v49H309V217c0,0,0,-63,26,-98c0,0,27,-35,76,-35c0,0,57,0,113,25V634l-64,18v49H740V67L809,49V0H536L526,61L475,35c0,0,-104,-53,-188,-53Z" 
id="f0_2h"
transform="scale(0.001,-0.001)" />

<path d="M425,-14c0,0,-187,0,-280,90c0,0,-93,90,-93,276c0,0,0,115,42,198c0,0,43,82,121,126c0,0,78,44,182,44c0,0,104,0,227,-26V486H571L539,609c0,0,-25,19,-50,26c0,0,-24,7,-65,7c0,0,-44,0,-79,-35c0,0,-36,-35,-56,-98c0,0,-20,-64,-20,-153c0,0,0,-150,47,-214c0,0,47,-64,148,-64c0,0,103,0,176,21V42C640,42,606,15,547,0c0,0,-59,-14,-122,-14Z" 
id="f0_1z"
transform="scale(0.001,-0.001)" />

<path d="M434,423c0,0,0,101,-7,142c0,0,-6,40,-22,60c0,0,-16,19,-45,19c0,0,-44,0,-66,-48c0,0,-22,-49,-22,-173ZM389,-14c0,0,-172,0,-254,89c0,0,-83,90,-83,279c0,0,0,184,79,274c0,0,79,91,238,91c0,0,142,0,206,-76c0,0,64,-76,64,-237V345H271V333c0,0,0,-111,18,-158c0,0,18,-47,58,-72c0,0,40,-25,110,-25c0,0,66,0,166,22V42C623,42,582,18,517,1c0,0,-66,-15,-128,-15Z" 
id="f0_21"
transform="scale(0.001,-0.001)" />

<path d="M379,60c0,0,59,0,84,64c0,0,24,65,24,231c0,0,0,164,-24,227c0,0,-24,63,-84,63c0,0,-57,0,-80,-60c0,0,-22,-61,-22,-230c0,0,0,-173,23,-234c0,0,22,-61,79,-61Zm-2,-74c0,0,-161,0,-240,91c0,0,-79,91,-79,277c0,0,0,186,80,276c0,0,81,90,245,90c0,0,167,0,245,-93c0,0,78,-93,78,-273c0,0,0,-188,-81,-278c0,0,-81,-90,-248,-90Z" 
id="f0_2b"
transform="scale(0.001,-0.001)" />

<path d="M41,0V49l76,18V624H11v51l106,29v75c0,0,0,144,73,220c0,0,73,77,210,77c0,0,74,0,124,-15V894H476l-22,81c0,0,-18,17,-47,17c0,0,-74,0,-74,-189V701H475V624H333V67L447,49V0Z" 
id="f0_22"
transform="scale(0.001,-0.001)" />

<path d="M41,0V49l69,18V634L41,652v49H313l11,-61l50,26c0,0,105,54,188,54c0,0,125,0,167,-91c0,0,153,91,258,91c0,0,189,0,189,-207V67l71,-17V0H898V50l63,17V484c0,0,0,63,-24,98c0,0,-25,35,-74,35c0,0,-55,0,-119,-31c0,0,7,-32,7,-73V67L821,50V0H473V50l63,17V484c0,0,0,63,-25,98c0,0,-24,35,-73,35c0,0,-49,0,-113,-29V67L389,49V0Z" 
id="f0_29"
transform="scale(0.001,-0.001)" />

<path d="M41,0V49l69,18V992l-72,18v50H325V756c0,0,0,-49,-4,-116l51,26c0,0,106,54,190,54c0,0,194,0,194,-207V67L827,49V0H478V49l63,18V484c0,0,0,63,-27,98c0,0,-26,35,-75,35c0,0,-57,0,-114,-25V67L389,49V0Z" 
id="f0_24"
transform="scale(0.001,-0.001)" />

<path d="M41,0V49l69,18V634L41,652v49H313l11,-61l50,26c0,0,105,54,188,54c0,0,194,0,194,-207V67L827,49V0H478V49l63,18V484c0,0,0,63,-27,98c0,0,-26,35,-75,35c0,0,-57,0,-114,-25V67L389,49V0Z" 
id="f0_2a"
transform="scale(0.001,-0.001)" />

<path d="M416,68c0,0,60,0,124,32V628c0,0,-58,15,-118,15c0,0,-67,0,-104,-73c0,0,-38,-73,-38,-216c0,0,0,-139,36,-212c0,0,35,-74,100,-74ZM369,-14c0,0,-155,0,-231,88c0,0,-76,90,-76,274c0,0,0,182,82,277c0,0,81,95,236,95c0,0,82,0,165,-20c0,0,-5,24,-5,115V992l-72,18v50H756V67L833,49V0H562L547,40C547,40,505,13,483,4c0,0,-23,-7,-51,-12c0,0,-28,-6,-63,-6Z" 
id="f0_20"
transform="scale(0.001,-0.001)" />

<path d="M345,75c0,0,50,0,110,26V351l-63,-2c0,0,-72,-3,-100,-38c0,0,-28,-35,-28,-113c0,0,0,-63,22,-93c0,0,23,-30,59,-30ZM266,-14c0,0,-217,0,-217,208c0,0,0,79,32,126c0,0,32,48,93,71c0,0,60,22,190,25l91,2V521c0,0,0,126,-104,126c0,0,-62,0,-140,-39L183,521H134V691c0,0,112,17,165,21c0,0,53,5,108,5c0,0,264,0,264,-194V67L741,49V0H483L466,54C466,54,408,14,361,0c0,0,-47,-14,-95,-14Z" 
id="f0_1x"
transform="scale(0.001,-0.001)" />

<path d="M452,474c0,0,104,0,151,52c0,0,47,53,47,178c0,0,0,119,-45,167c0,0,-44,47,-156,47H390V474ZM36,0V54L154,74V926L26,945v55H467c0,0,213,0,318,-71c0,0,105,-71,105,-224c0,0,0,-313,-366,-313H390V74L557,54V0Z" 
id="f0_1g"
transform="scale(0.001,-0.001)" />

<path d="M30,0V49l76,18V992l-72,18v50H322V67L398,49V0Z" 
id="f0_28"
transform="scale(0.001,-0.001)" />

<path d="M276,-14c0,0,-57,0,-125,13C151,-1,83,10,48,23V214H97l28,-98c0,0,26,-26,69,-44c0,0,42,-17,86,-17c0,0,65,0,97,28c0,0,32,28,32,71c0,0,0,41,-31,65c0,0,-30,25,-133,57c0,0,-108,34,-154,92c0,0,-45,58,-45,143c0,0,0,95,71,152c0,0,71,57,183,57c0,0,77,0,207,-22V518H457l-24,82c0,0,-21,22,-60,35c0,0,-40,14,-75,14c0,0,-53,0,-79,-22c0,0,-26,-22,-26,-59c0,0,0,-40,32,-65c0,0,32,-26,132,-55c0,0,109,-34,155,-89c0,0,45,-55,45,-137c0,0,0,-117,-72,-177c0,0,-72,-59,-209,-59Z" 
id="f0_2f"
transform="scale(0.001,-0.001)" />

<path d="M235,0V40L394,60V936H356c0,0,-189,0,-258,-15L78,766H28v234H908V766H857L837,921c0,0,-22,5,-98,9c0,0,-75,4,-165,4H538V60L697,40V0Z" 
id="f1_1k"
transform="scale(0.001,-0.001)" />

<path d="M442,0V33l93,19V504c0,0,0,129,-124,129c0,0,-70,0,-168,-22V52L338,33V0H31V33l88,19v956L15,1026v34H243V756c0,0,0,-77,-5,-112c0,0,54,31,122,53c0,0,68,23,115,23c0,0,91,0,137,-53c0,0,47,-53,47,-154V52L744,33V0Z" 
id="f1_24"
transform="scale(0.001,-0.001)" />

<path d="M495,413c0,0,0,133,-34,190c0,0,-34,57,-105,57c0,0,-78,0,-119,-63c0,0,-42,-62,-42,-184ZM374,-14c0,0,-163,0,-239,87c0,0,-75,88,-75,283c0,0,0,183,77,273c0,0,76,91,219,91c0,0,269,0,269,-306V353H194V340c0,0,0,-103,23,-160c0,0,22,-57,70,-87c0,0,47,-29,124,-29c0,0,40,0,96,6c0,0,55,7,91,15V43C598,43,562,20,500,3c0,0,-61,-17,-126,-17Z" 
id="f1_21"
transform="scale(0.001,-0.001)" />

<path d="M148,-329c0,0,-58,0,-114,13v151H69l24,-71c0,0,23,-17,64,-17c0,0,39,0,72,22c0,0,33,23,60,67c0,0,27,44,68,157L90,649L19,668v33H344V668L233,648L423,158L606,649L497,668v33H758V668L685,652L411,-43c0,0,-48,-124,-84,-177c0,0,-36,-54,-79,-82c0,0,-44,-27,-100,-27Z" 
id="f1_2l"
transform="scale(0.001,-0.001)" />

<path d="M284,67c0,0,51,0,88,12c0,0,37,12,74,30V358l-98,-3c0,0,-100,-4,-135,-39c0,0,-35,-35,-35,-117c0,0,0,-132,106,-132ZM233,-14c0,0,-179,0,-179,208c0,0,0,70,27,116c0,0,27,46,87,70c0,0,60,24,173,27l105,3V519c0,0,0,72,-26,107c0,0,-27,34,-82,34c0,0,-75,0,-137,-35L176,538H134V691c0,0,121,26,213,26c0,0,115,0,169,-47c0,0,54,-47,54,-144V52L657,33V0H465L451,70c0,0,-85,-84,-218,-84Z" 
id="f1_1x"
transform="scale(0.001,-0.001)" />

<path d="M31,0V33l88,19V649L31,668v33H235l7,-87c0,0,44,37,121,71c0,0,76,35,121,35h11V530H463l-43,82c0,0,-37,0,-88,-10c0,0,-52,-10,-89,-26V52L363,33V0Z" 
id="f1_2e"
transform="scale(0.001,-0.001)" />

<path d="M383,64c0,0,85,0,152,28V645c0,0,-67,13,-152,13c0,0,-194,0,-194,-314c0,0,0,-141,48,-211c0,0,48,-69,146,-69ZM342,-14c0,0,-287,0,-287,358c0,0,0,184,82,280c0,0,81,96,239,96c0,0,81,0,163,-18c0,0,-4,25,-4,124v182l-118,18v34H659V52L745,33V0H548l-9,52c0,0,-84,-66,-197,-66Z" 
id="f1_20"
transform="scale(0.001,-0.001)" />

<path d="M377,45c0,0,99,0,147,73c0,0,47,73,47,237c0,0,0,161,-47,233c0,0,-47,72,-147,72c0,0,-97,0,-141,-69c0,0,-44,-69,-44,-236c0,0,0,-169,45,-240c0,0,44,-70,140,-70Zm0,-59c0,0,-158,0,-238,94c0,0,-81,95,-81,274c0,0,0,178,81,272c0,0,80,94,244,94c0,0,160,0,241,-92c0,0,82,-92,82,-274c0,0,0,-368,-329,-368Z" 
id="f1_2b"
transform="scale(0.001,-0.001)" />

<path d="M289,-14c0,0,-179,0,-179,205V649L20,668v33H233V200c0,0,0,-128,120,-128c0,0,92,0,173,23V649L420,668v33H649V52L738,33V0H533l-6,57C527,57,474,28,405,7c0,0,-69,-21,-116,-21Z" 
id="f1_2h"
transform="scale(0.001,-0.001)" />

<path d="M376,50c0,0,103,0,149,80c0,0,46,81,46,240c0,0,0,137,-47,204c0,0,-48,67,-148,67c0,0,-44,0,-87,-7c0,0,-44,-8,-63,-17V62c0,0,63,-12,150,-12Zm3,-64c0,0,-64,0,-141,14c0,0,-78,14,-136,37v971L0,1026v34H226V809c0,0,0,-40,-4,-148c0,0,74,59,188,59c0,0,143,0,219,-87c0,0,77,-87,77,-263c0,0,0,-189,-84,-287c0,0,-84,-97,-243,-97Z" 
id="f1_1y"
transform="scale(0.001,-0.001)" />

<path d="M31,0V33L150,52v956L31,1026v34H274V52L394,33V0Z" 
id="f1_28"
transform="scale(0.001,-0.001)" />

<path d="M431,0V33L535,52V499c0,0,0,62,-32,96c0,0,-32,33,-95,33c0,0,-66,0,-163,-22V52L350,33V0H32V33l89,19V649L32,668v33H237l6,-57c0,0,56,32,119,54c0,0,62,22,110,22c0,0,52,0,95,-20c0,0,44,-19,66,-62c0,0,57,32,134,57c0,0,77,25,128,25c0,0,179,0,179,-207V52l90,-19V0H846V33L950,52V499c0,0,0,129,-119,129c0,0,-19,0,-45,-3c0,0,-26,-3,-52,-7c0,0,-25,-4,-49,-8c0,0,-23,-5,-39,-8c0,0,13,-41,13,-89V52L764,33V0Z" 
id="f1_29"
transform="scale(0.001,-0.001)" />

<path d="M439,0V33l93,19V500c0,0,0,62,-30,97c0,0,-31,36,-94,36c0,0,-67,0,-165,-22V52L338,33V0H35V33l84,19V649L35,668v33H235l7,-57c0,0,57,33,122,54c0,0,65,22,108,22c0,0,91,0,137,-53c0,0,47,-53,47,-154V52L741,33V0Z" 
id="f1_2a"
transform="scale(0.001,-0.001)" />

<path d="M399,-14c0,0,-341,0,-341,370c0,0,0,175,87,269c0,0,87,95,249,95c0,0,101,0,220,-23V501H573L541,625c0,0,-62,35,-149,35c0,0,-200,0,-200,-304c0,0,0,-158,61,-225c0,0,61,-67,189,-67c0,0,109,0,189,24V43C631,43,595,16,530,1c0,0,-64,-15,-131,-15Z" 
id="f1_1z"
transform="scale(0.001,-0.001)" />

<path d="M359,-270c0,0,124,0,192,46c0,0,67,47,67,129c0,0,0,43,-26,67c0,0,-26,24,-79,24H242c0,0,-32,-27,-51,-69c0,0,-20,-41,-20,-77c0,0,0,-64,46,-92c0,0,46,-28,142,-28Zm11,561c0,0,81,0,115,47c0,0,34,47,34,141c0,0,0,100,-35,142c0,0,-35,42,-113,42c0,0,-78,0,-114,-43c0,0,-37,-42,-37,-141c0,0,0,-98,36,-143c0,0,36,-45,114,-45ZM359,-329c0,0,-143,0,-218,44c0,0,-75,43,-75,125c0,0,0,39,27,78c0,0,26,38,98,89c0,0,-43,14,-72,48c0,0,-29,35,-29,74L208,262c0,0,-118,55,-118,217c0,0,0,115,73,178c0,0,73,63,211,63c0,0,28,0,71,-6c0,0,44,-6,67,-13l165,83l26,-32L599,644c0,0,50,-56,50,-165c0,0,0,-120,-72,-182c0,0,-73,-62,-208,-62c0,0,-62,0,-114,11L208,148c0,0,2,-13,29,-24c0,0,27,-12,67,-12H512c0,0,113,0,168,-49c0,0,55,-49,55,-134c0,0,0,-79,-44,-137c0,0,-43,-58,-128,-90c0,0,-84,-31,-204,-31Z" 
id="f1_23"
transform="scale(0.001,-0.001)" />

<path d="M64,0V34L168,59V639H47v36l121,29v49c0,0,0,155,61,239c0,0,62,84,173,84c0,0,58,0,107,-15V908H472l-33,92c0,0,-26,16,-62,16c0,0,-47,0,-66,-42c0,0,-19,-42,-19,-157V701H478V639H292V59L443,34V0Z" 
id="f1_22"
transform="scale(0.001,-0.001)" />

<path d="M32,0V33L151,52V649L52,668v33H275V52L395,33V0ZM201,850c0,0,-32,0,-56,24c0,0,-24,24,-24,56c0,0,0,34,24,58c0,0,24,24,56,24c0,0,34,0,58,-24c0,0,24,-24,24,-58c0,0,0,-32,-24,-56c0,0,-24,-24,-58,-24Z" 
id="f1_25"
transform="scale(0.001,-0.001)" />

<path d="M382,45c0,0,188,0,188,314c0,0,0,143,-47,213c0,0,-46,69,-141,69c0,0,-87,0,-146,-24V58c0,0,67,-13,146,-13ZM25,-325v35l88,18V649L34,668v33H231l1,-41c0,0,31,27,84,43c0,0,53,17,107,17c0,0,134,0,208,-94c0,0,73,-93,73,-267c0,0,0,-178,-80,-276c0,0,-80,-97,-232,-97c0,0,-84,0,-160,16c0,0,4,-53,4,-84V-272l123,-18v-35Z" 
id="f1_2c"
transform="scale(0.001,-0.001)" />

<path d="M249,-14c0,0,-71,0,-107,42c0,0,-35,42,-35,119V639H15v33l93,29l76,159h47V701H391V639H231V161c0,0,0,-48,22,-73c0,0,22,-24,57,-24c0,0,44,0,106,12V26C416,26,389,8,340,-2c0,0,-49,-12,-91,-12Z" 
id="f1_2g"
transform="scale(0.001,-0.001)" />

<path d="M278,-14c0,0,-52,0,-115,11c0,0,-63,10,-99,23V193H98L134,95c0,0,56,-50,146,-50c0,0,144,0,144,123c0,0,0,91,-114,130l-66,21c0,0,-75,25,-110,50c0,0,-34,26,-53,63c0,0,-18,36,-18,89c0,0,0,92,63,145c0,0,63,54,170,54c0,0,77,0,193,-23V544H454l-32,81c0,0,-39,35,-124,35c0,0,-61,0,-92,-30c0,0,-32,-30,-32,-80c0,0,0,-43,29,-72c0,0,28,-29,86,-48c0,0,110,-38,144,-55c0,0,33,-17,57,-42c0,0,23,-25,36,-57c0,0,13,-32,13,-79c0,0,0,-104,-66,-158c0,0,-66,-53,-195,-53Z" 
id="f1_2f"
transform="scale(0.001,-0.001)" />

<path d="M191,-20c0,0,-39,0,-65,25c0,0,-25,27,-25,64c0,0,0,38,26,64c0,0,26,26,64,26c0,0,38,0,64,-26c0,0,26,-26,26,-64c0,0,0,-37,-25,-64c0,0,-26,-25,-65,-25Z" 
id="f1_i"
transform="scale(0.001,-0.001)" />

<path d="M529,65c0,0,183,0,270,108c0,0,87,108,87,334c0,0,0,210,-113,318c0,0,-113,108,-322,108H316V71c0,0,90,-6,213,-6Zm0,-67L172,0H44V40L172,60V941L44,960v40H498c0,0,277,0,411,-123c0,0,133,-124,133,-371c0,0,0,-251,-129,-380C913,126,785,-2,529,-2Z" 
id="f1_14"
transform="scale(0.001,-0.001)" />

<path d="M868,0L251,900V60L385,40V0H44V40L172,60V941L44,960v40H347L862,259V941L727,960v40h341V960L940,941V0Z" 
id="f1_1e"
transform="scale(0.001,-0.001)" />

<path d="M681,416L504,902L333,416ZM669,0V40L803,60L704,348H310L210,60L344,40V0H15V40L128,60l341,949H611L965,60L1092,40V0Z" 
id="f1_11"
transform="scale(0.001,-0.001)" />

<path d="M57,302V417H454V302Z" 
id="f1_h"
transform="scale(0.001,-0.001)" />

<path d="M58,-234v58c0,0,131,42,131,125c0,0,0,15,-11,27c0,0,-11,12,-38,25C140,1,89,27,89,75c0,0,0,40,25,61c0,0,26,21,65,21c0,0,48,0,77,-34c0,0,30,-34,30,-86c0,0,0,-101,-60,-170c0,0,-59,-69,-168,-101Z" 
id="f1_g"
transform="scale(0.001,-0.001)" />

<path d="M577,-14c0,0,-243,0,-379,132C198,118,63,250,63,488c0,0,0,258,130,391c0,0,131,132,387,132c0,0,156,0,335,-38l5,-218H871L848,884c0,0,-52,32,-121,50c0,0,-69,17,-141,17c0,0,-191,0,-279,-112c0,0,-88,-113,-88,-349c0,0,0,-217,92,-332c0,0,92,-115,268,-115c0,0,85,0,160,20c0,0,76,21,120,55l27,149h49L930,32c0,0,-164,-46,-353,-46Z" 
id="f1_13"
transform="scale(0.001,-0.001)" />

<path d="M477,0V33l64,19L348,354L257,254V52L331,33V0H44V33l89,19v956L29,1026v34H257V338L544,647l-73,20v34H718V667L631,650L431,446L688,50L764,33V0Z" 
id="f1_27"
transform="scale(0.001,-0.001)" />

<path d="M327,-14L84,649L1,668v33H335V668L219,648L385,174L554,632h63L786,171L944,649L830,668v33h267V668l-78,-16L784,-14H726L553,448L382,-14Z" 
id="f1_2j"
transform="scale(0.001,-0.001)" />

<path d="M410,-14c0,0,-80,0,-162,14c0,0,-81,14,-144,38V270h48L178,134c0,0,28,-35,95,-62c0,0,68,-27,134,-27c0,0,104,0,163,53c0,0,58,54,58,148c0,0,0,54,-23,89c0,0,-22,35,-59,59c0,0,-37,24,-84,41c0,0,-47,17,-97,34c0,0,-49,17,-96,38c0,0,-47,21,-84,53c0,0,-37,32,-60,79c0,0,-23,48,-23,117c0,0,0,119,90,187c0,0,89,68,248,68c0,0,121,0,263,-32V771H654L628,893c0,0,-76,55,-188,55c0,0,-100,0,-156,-40c0,0,-56,-41,-56,-112c0,0,0,-49,22,-81c0,0,23,-32,60,-55c0,0,37,-22,84,-39c0,0,48,-16,97,-34c0,0,50,-17,97,-39c0,0,48,-22,85,-56c0,0,36,-34,59,-83c0,0,23,-49,23,-120c0,0,0,-145,-89,-224c0,0,-89,-79,-256,-79Z" 
id="f1_1j"
transform="scale(0.001,-0.001)" />

<path d="M44,0V40L172,60V941L44,960v40H794V760H745L721,922c0,0,-83,11,-241,11H316V543H586l23,119h48V354H609L586,475H316V67H513c0,0,193,0,252,12l43,185h49L843,0Z" 
id="f1_15"
transform="scale(0.001,-0.001)" />

<path d="M377,478c0,0,57,0,112,14v10c0,0,0,216,-25,325c0,0,-26,110,-91,110c0,0,-112,0,-112,-245c0,0,0,-214,116,-214ZM312,-14c0,0,-124,0,-232,31V245h65L177,99c0,0,26,-18,62,-29c0,0,36,-10,70,-10c0,0,80,0,126,91c0,0,45,92,52,265c0,0,-77,-28,-154,-28c0,0,-135,0,-213,81c0,0,-78,80,-78,226c0,0,0,152,87,234c0,0,87,82,242,82c0,0,176,0,257,-123c0,0,81,-123,81,-385c0,0,0,-169,-48,-284C661,219,614,103,525,44c0,0,-89,-58,-213,-58Z" 
id="f0_t"
transform="scale(0.001,-0.001)" />

<path d="M438,65c0,0,131,0,131,293c0,0,0,279,-130,279c0,0,-69,0,-127,-29V80c0,0,60,-15,126,-15ZM20,-325v50l76,18V634L19,652v49H304l1,-36c0,0,80,55,194,55c0,0,146,0,218,-86c0,0,71,-86,71,-271c0,0,0,-183,-83,-280c0,0,-83,-97,-238,-97c0,0,-79,0,-160,19c0,0,5,-48,5,-109V-257l103,-18v-50Z" 
id="f0_2c"
transform="scale(0.001,-0.001)" />

<path d="M360,-14L72,649L0,668v33H327V668L216,648L420,164L615,649L504,668v33H764V668L697,652L416,-14Z" 
id="f1_2i"
transform="scale(0.001,-0.001)" />

<path d="M44,0V40L172,60V941L44,960v40H471V960L316,941V65H513c0,0,159,0,234,14l46,208h48L828,0Z" 
id="f1_1c"
transform="scale(0.001,-0.001)" />

<path d="M225,0c0,0,2,129,51,312c0,0,48,183,139,352c0,0,91,170,193,286H72v129H780V975C780,975,676,864,573,680C573,680,470,495,414,301C414,301,374,163,363,0Z" 
id="f2_r"
transform="scale(0.001,-0.001)" />


</defs>
</svg>