<?xml version="1.0" encoding="UTF-8" standalone="no"?>
<!DOCTYPE svg PUBLIC "-//W3C//DTD SVG 1.1//EN"
"http://www.w3.org/Graphics/SVG/1.1/DTD/svg11.dtd">
<svg viewBox="0 0 909 1286" version="1.1" xmlns="http://www.w3.org/2000/svg" xmlns:xlink="http://www.w3.org/1999/xlink">
<defs>
<clipPath id="c0_52"><path d="M0,1286.3V0H909.3V1286.3Z" /></clipPath>
</defs>
<image preserveAspectRatio="none" x="55" y="55" width="286" height="281" xlink:href="img/1.png" />
<g clip-path="url(#c0_52)">
<g fill="#000000" >
<use xlink:href="#f0_1i" transform="matrix(12,0,0,12,55,373.7)" />
<use xlink:href="#f0_21" transform="matrix(12,0,0,12,68.3,373.7)" />
<use xlink:href="#f0_2c" transform="matrix(12,0,0,12,76.3,373.7)" />
<use xlink:href="#f0_2e" transform="matrix(12,0,0,12,86.6,373.7)" />
<use xlink:href="#f0_2b" transform="matrix(12,0,0,12,94.3,373.7)" />
<use xlink:href="#f0_20" transform="matrix(12,0,0,12,103.4,373.7)" />
<use xlink:href="#f0_2h" transform="matrix(12,0,0,12,113.7,373.7)" />
<use xlink:href="#f0_1z" transform="matrix(12,0,0,12,123.9,373.7)" />
<use xlink:href="#f0_2g" transform="matrix(12,0,0,12,132,373.7)" />
<use xlink:href="#f0_25" transform="matrix(12,0,0,12,138.2,373.7)" />
<use xlink:href="#f0_2b" transform="matrix(12,0,0,12,143.3,373.7)" />
<use xlink:href="#f0_2a" transform="matrix(12,0,0,12,152.5,373.7)" />
<use xlink:href="#f0_u" transform="matrix(12,0,0,12,162.7,373.7)" />
<use xlink:href="#f1_2f" transform="matrix(12,0,0,12,178.3,373.7)" />
<use xlink:href="#f1_21" transform="matrix(12,0,0,12,185.2,373.7)" />
<use xlink:href="#f1_2k" transform="matrix(12,0,0,12,193.3,373.7)" />
<use xlink:href="#f1_2h" transform="matrix(12,0,0,12,202.1,373.7)" />
<use xlink:href="#f1_1x" transform="matrix(12,0,0,12,211.6,373.7)" />
<use xlink:href="#f1_28" transform="matrix(12,0,0,12,220,373.7)" />
<use xlink:href="#f1_28" transform="matrix(12,0,0,12,224.8,373.7)" />
<use xlink:href="#f1_2l" transform="matrix(12,0,0,12,229.9,373.7)" />
<use xlink:href="#f1_2b" transform="matrix(12,0,0,12,247.9,373.7)" />
<use xlink:href="#f1_2a" transform="matrix(12,0,0,12,257.4,373.7)" />
<use xlink:href="#f1_28" transform="matrix(12,0,0,12,266.6,373.7)" />
<use xlink:href="#f1_2l" transform="matrix(12,0,0,12,271.7,373.7)" />
<use xlink:href="#f1_i" transform="matrix(12,0,0,12,280.1,373.7)" />
<use xlink:href="#f1_1k" transform="matrix(12,0,0,12,294,373.7)" />
<use xlink:href="#f1_24" transform="matrix(12,0,0,12,305.4,373.7)" />
<use xlink:href="#f1_21" transform="matrix(12,0,0,12,314.5,373.7)" />
<use xlink:href="#f1_2l" transform="matrix(12,0,0,12,323,373.7)" />
<use xlink:href="#f1_1x" transform="matrix(12,0,0,12,340.5,373.7)" />
<use xlink:href="#f1_2e" transform="matrix(12,0,0,12,348.6,373.7)" />
<use xlink:href="#f1_21" transform="matrix(12,0,0,12,354.8,373.7)" />
<use xlink:href="#f1_24" transform="matrix(12,0,0,12,372.4,373.7)" />
<use xlink:href="#f1_21" transform="matrix(12,0,0,12,381.2,373.7)" />
<use xlink:href="#f1_2e" transform="matrix(12,0,0,12,389.3,373.7)" />
<use xlink:href="#f1_29" transform="matrix(12,0,0,12,395.9,373.7)" />
<use xlink:href="#f1_1x" transform="matrix(12,0,0,12,409.8,373.7)" />
<use xlink:href="#f1_2c" transform="matrix(12,0,0,12,417.9,373.7)" />
<use xlink:href="#f1_24" transform="matrix(12,0,0,12,427.4,373.7)" />
<use xlink:href="#f1_2e" transform="matrix(12,0,0,12,436.2,373.7)" />
<use xlink:href="#f1_2b" transform="matrix(12,0,0,12,442.4,373.7)" />
<use xlink:href="#f1_20" transform="matrix(12,0,0,12,451.9,373.7)" />
<use xlink:href="#f1_25" transform="matrix(12,0,0,12,461.4,373.7)" />
<use xlink:href="#f1_2g" transform="matrix(12,0,0,12,465.8,373.7)" />
<use xlink:href="#f1_21" transform="matrix(12,0,0,12,471.3,373.7)" />
<use xlink:href="#f1_2f" transform="matrix(12,0,0,12,479.4,373.7)" />
<use xlink:href="#f1_i" transform="matrix(12,0,0,12,486.3,373.7)" />
<use xlink:href="#f1_16" transform="matrix(12,0,0,12,500.2,373.7)" />
<use xlink:href="#f1_21" transform="matrix(12,0,0,12,510.1,373.7)" />
<use xlink:href="#f1_2e" transform="matrix(12,0,0,12,518.2,373.7)" />
<use xlink:href="#f1_2g" transform="matrix(12,0,0,12,524.4,373.7)" />
<use xlink:href="#f1_25" transform="matrix(12,0,0,12,529.9,373.7)" />
<use xlink:href="#f1_28" transform="matrix(12,0,0,12,534.7,373.7)" />
<use xlink:href="#f1_25" transform="matrix(12,0,0,12,539.4,373.7)" />
<use xlink:href="#f1_2m" transform="matrix(12,0,0,12,544.2,373.7)" />
<use xlink:href="#f1_1x" transform="matrix(12,0,0,12,552.6,373.7)" />
<use xlink:href="#f1_2g" transform="matrix(12,0,0,12,560.7,373.7)" />
<use xlink:href="#f1_25" transform="matrix(12,0,0,12,566.5,373.7)" />
<use xlink:href="#f1_2b" transform="matrix(12,0,0,12,570.9,373.7)" />
<use xlink:href="#f1_2a" transform="matrix(12,0,0,12,580.4,373.7)" />
<use xlink:href="#f1_25" transform="matrix(12,0,0,12,599.3,373.7)" />
<use xlink:href="#f1_2f" transform="matrix(12,0,0,12,603.7,373.7)" />
<use xlink:href="#f1_21" transform="matrix(12,0,0,12,619.9,373.7)" />
<use xlink:href="#f1_2k" transform="matrix(12,0,0,12,628.3,373.7)" />
<use xlink:href="#f1_2g" transform="matrix(12,0,0,12,637.1,373.7)" />
<use xlink:href="#f1_21" transform="matrix(12,0,0,12,642.6,373.7)" />
<use xlink:href="#f1_2e" transform="matrix(12,0,0,12,650.6,373.7)" />
<use xlink:href="#f1_2a" transform="matrix(12,0,0,12,656.9,373.7)" />
<use xlink:href="#f1_1x" transform="matrix(12,0,0,12,665.7,373.7)" />
<use xlink:href="#f1_28" transform="matrix(12,0,0,12,674.1,373.7)" />
<use xlink:href="#f1_i" transform="matrix(12,0,0,12,678.8,373.7)" />
<use xlink:href="#f1_14" transform="matrix(12,0,0,12,692.7,373.7)" />
<use xlink:href="#f1_21" transform="matrix(12,0,0,12,706,373.7)" />
<use xlink:href="#f1_2i" transform="matrix(12,0,0,12,714,373.7)" />
<use xlink:href="#f1_21" transform="matrix(12,0,0,12,723.2,373.7)" />
<use xlink:href="#f1_28" transform="matrix(12,0,0,12,731.6,373.7)" />
<use xlink:href="#f1_2b" transform="matrix(12,0,0,12,736,373.7)" />
<use xlink:href="#f1_2c" transform="matrix(12,0,0,12,745.5,373.7)" />
<use xlink:href="#f1_29" transform="matrix(12,0,0,12,755,373.7)" />
<use xlink:href="#f1_21" transform="matrix(12,0,0,12,769.2,373.7)" />
<use xlink:href="#f1_2a" transform="matrix(12,0,0,12,777.6,373.7)" />
<use xlink:href="#f1_2g" transform="matrix(12,0,0,12,786.4,373.7)" />
<use xlink:href="#f1_25" transform="matrix(12,0,0,12,800.7,373.7)" />
<use xlink:href="#f1_2a" transform="matrix(12,0,0,12,805.4,373.7)" />
<use xlink:href="#f1_1z" transform="matrix(12,0,0,12,814.6,373.7)" />
<use xlink:href="#f1_28" transform="matrix(12,0,0,12,823,373.7)" />
<use xlink:href="#f1_2h" transform="matrix(12,0,0,12,827.8,373.7)" />
<use xlink:href="#f1_20" transform="matrix(12,0,0,12,837,373.7)" />
<use xlink:href="#f1_21" transform="matrix(12,0,0,12,846.1,373.7)" />
<use xlink:href="#f0_13" transform="matrix(12,0,0,12,55,395)" />
<use xlink:href="#f0_2l" transform="matrix(12,0,0,12,68.2,395)" />
<use xlink:href="#f0_20" transform="matrix(12,0,0,12,77.4,395)" />
<use xlink:href="#f0_25" transform="matrix(12,0,0,12,87.7,395)" />
<use xlink:href="#f0_2c" transform="matrix(12,0,0,12,92.7,395)" />
<use xlink:href="#f0_25" transform="matrix(12,0,0,12,103,395)" />
<use xlink:href="#f0_20" transform="matrix(12,0,0,12,108.1,395)" />
<use xlink:href="#f1_28" transform="matrix(12,0,0,12,123.2,395)" />
<use xlink:href="#f1_1x" transform="matrix(12,0,0,12,127.6,395)" />
<use xlink:href="#f1_2e" transform="matrix(12,0,0,12,135.7,395)" />
<use xlink:href="#f1_2i" transform="matrix(12,0,0,12,142.3,395)" />
<use xlink:href="#f1_1x" transform="matrix(12,0,0,12,151.1,395)" />
<use xlink:href="#f1_i" transform="matrix(12,0,0,12,159.2,395)" />
<use xlink:href="#f0_13" transform="matrix(12,0,0,12,55,415.9)" />
<use xlink:href="#f0_2b" transform="matrix(12,0,0,12,68.3,415.9)" />
<use xlink:href="#f0_29" transform="matrix(12,0,0,12,77.4,415.9)" />
<use xlink:href="#f0_29" transform="matrix(12,0,0,12,92.4,415.9)" />
<use xlink:href="#f0_2b" transform="matrix(12,0,0,12,107.5,415.9)" />
<use xlink:href="#f0_2a" transform="matrix(12,0,0,12,116.6,415.9)" />
<use xlink:href="#f0_1z" transform="matrix(12,0,0,12,143,415.9)" />
<use xlink:href="#f0_2g" transform="matrix(12,0,0,12,151.1,415.9)" />
<use xlink:href="#f0_21" transform="matrix(12,0,0,12,157.3,415.9)" />
<use xlink:href="#f0_2a" transform="matrix(12,0,0,12,165.3,415.9)" />
<use xlink:href="#f0_2b" transform="matrix(12,0,0,12,175.6,415.9)" />
<use xlink:href="#f0_2c" transform="matrix(12,0,0,12,184.8,415.9)" />
<use xlink:href="#f0_24" transform="matrix(12,0,0,12,195,415.9)" />
<use xlink:href="#f0_2b" transform="matrix(12,0,0,12,205.3,415.9)" />
<use xlink:href="#f0_2e" transform="matrix(12,0,0,12,214.4,415.9)" />
<use xlink:href="#f0_21" transform="matrix(12,0,0,12,222.1,415.9)" />
<use xlink:href="#f0_2f" transform="matrix(12,0,0,12,230.5,415.9)" />
<use xlink:href="#f0_1x" transform="matrix(12,0,0,12,253.6,415.9)" />
<use xlink:href="#f0_2e" transform="matrix(12,0,0,12,263.1,415.9)" />
<use xlink:href="#f0_21" transform="matrix(12,0,0,12,270.8,415.9)" />
<use xlink:href="#f2_1g" transform="matrix(12,0,0,12,294.9,415.9)" />
<use xlink:href="#f2_28" transform="matrix(12,0,0,12,305.9,415.9)" />
<use xlink:href="#f2_21" transform="matrix(12,0,0,12,311,415.9)" />
<use xlink:href="#f2_2h" transform="matrix(12,0,0,12,319.1,415.9)" />
<use xlink:href="#f2_2e" transform="matrix(12,0,0,12,328.3,415.9)" />
<use xlink:href="#f2_2b" transform="matrix(12,0,0,12,335.2,415.9)" />
<use xlink:href="#f2_1y" transform="matrix(12,0,0,12,344.4,415.9)" />
<use xlink:href="#f2_2e" transform="matrix(12,0,0,12,353.9,415.9)" />
<use xlink:href="#f2_1x" transform="matrix(12,0,0,12,360.9,415.9)" />
<use xlink:href="#f2_1z" transform="matrix(12,0,0,12,370.1,415.9)" />
<use xlink:href="#f2_24" transform="matrix(12,0,0,12,378.1,415.9)" />
<use xlink:href="#f2_25" transform="matrix(12,0,0,12,387.3,415.9)" />
<use xlink:href="#f2_1x" transform="matrix(12,0,0,12,392.4,415.9)" />
<use xlink:href="#f1_c" transform="matrix(12,0,0,12,417.4,415.9)" />
<use xlink:href="#f1_2f" transform="matrix(12,0,0,12,423.6,415.9)" />
<use xlink:href="#f1_21" transform="matrix(12,0,0,12,430.6,415.9)" />
<use xlink:href="#f1_1x" transform="matrix(12,0,0,12,438.7,415.9)" />
<use xlink:href="#f1_h" transform="matrix(12,0,0,12,446.8,415.9)" />
<use xlink:href="#f1_23" transform="matrix(12,0,0,12,453,415.9)" />
<use xlink:href="#f1_2b" transform="matrix(12,0,0,12,462.2,415.9)" />
<use xlink:href="#f1_2b" transform="matrix(12,0,0,12,471.4,415.9)" />
<use xlink:href="#f1_2f" transform="matrix(12,0,0,12,480.9,415.9)" />
<use xlink:href="#f1_21" transform="matrix(12,0,0,12,487.8,415.9)" />
<use xlink:href="#f1_1y" transform="matrix(12,0,0,12,495.9,415.9)" />
<use xlink:href="#f1_21" transform="matrix(12,0,0,12,504.7,415.9)" />
<use xlink:href="#f1_2e" transform="matrix(12,0,0,12,512.8,415.9)" />
<use xlink:href="#f1_2e" transform="matrix(12,0,0,12,519,415.9)" />
<use xlink:href="#f1_2l" transform="matrix(12,0,0,12,525.6,415.9)" />
<use xlink:href="#f1_d" transform="matrix(12,0,0,12,534,415.9)" />
<use xlink:href="#f1_g" transform="matrix(12,0,0,12,540.3,415.9)" />
<use xlink:href="#f2_13" transform="matrix(12,0,0,12,560.8,415.9)" />
<use xlink:href="#f2_2g" transform="matrix(12,0,0,12,572.9,415.9)" />
<use xlink:href="#f2_21" transform="matrix(12,0,0,12,578,415.9)" />
<use xlink:href="#f2_2a" transform="matrix(12,0,0,12,586.2,415.9)" />
<use xlink:href="#f2_2b" transform="matrix(12,0,0,12,595.4,415.9)" />
<use xlink:href="#f2_2c" transform="matrix(12,0,0,12,604.5,415.9)" />
<use xlink:href="#f2_28" transform="matrix(12,0,0,12,613.7,415.9)" />
<use xlink:href="#f2_1x" transform="matrix(12,0,0,12,618.8,415.9)" />
<use xlink:href="#f2_2a" transform="matrix(12,0,0,12,627.9,415.9)" />
<use xlink:href="#f2_1x" transform="matrix(12,0,0,12,637.1,415.9)" />
<use xlink:href="#f2_g" transform="matrix(12,0,0,12,646.3,415.9)" />
<use xlink:href="#f2_13" transform="matrix(12,0,0,12,666.9,415.9)" />
<use xlink:href="#f2_21" transform="matrix(12,0,0,12,679,415.9)" />
<use xlink:href="#f2_2f" transform="matrix(12,0,0,12,687,415.9)" />
<use xlink:href="#f2_2g" transform="matrix(12,0,0,12,694,415.9)" />
<use xlink:href="#f2_2h" transform="matrix(12,0,0,12,699.1,415.9)" />
<use xlink:href="#f2_29" transform="matrix(12,0,0,12,708.3,415.9)" />
<use xlink:href="#f1_c" transform="matrix(12,0,0,12,737.3,415.9)" />
<use xlink:href="#f1_2i" transform="matrix(12,0,0,12,743.5,415.9)" />
<use xlink:href="#f1_21" transform="matrix(12,0,0,12,752.3,415.9)" />
<use xlink:href="#f1_2a" transform="matrix(12,0,0,12,760.4,415.9)" />
<use xlink:href="#f1_2h" transform="matrix(12,0,0,12,769.2,415.9)" />
<use xlink:href="#f1_2f" transform="matrix(12,0,0,12,778.7,415.9)" />
<use xlink:href="#f1_23" transform="matrix(12,0,0,12,801.8,415.9)" />
<use xlink:href="#f1_25" transform="matrix(12,0,0,12,810.9,415.9)" />
<use xlink:href="#f1_2e" transform="matrix(12,0,0,12,815.3,415.9)" />
<use xlink:href="#f1_20" transform="matrix(12,0,0,12,821.5,415.9)" />
<use xlink:href="#f1_28" transform="matrix(12,0,0,12,831,415.9)" />
<use xlink:href="#f1_21" transform="matrix(12,0,0,12,835.8,415.9)" />
<use xlink:href="#f1_d" transform="matrix(12,0,0,12,843.9,415.9)" />
<use xlink:href="#f1_g" transform="matrix(12,0,0,12,850.3,415.9)" />
<use xlink:href="#f2_18" transform="matrix(12,0,0,12,55,437.2)" />
<use xlink:href="#f2_2b" transform="matrix(12,0,0,12,68.3,437.2)" />
<use xlink:href="#f2_2e" transform="matrix(12,0,0,12,77.4,437.2)" />
<use xlink:href="#f2_29" transform="matrix(12,0,0,12,84.4,437.2)" />
<use xlink:href="#f2_25" transform="matrix(12,0,0,12,97.6,437.2)" />
<use xlink:href="#f2_2c" transform="matrix(12,0,0,12,102.7,437.2)" />
<use xlink:href="#f2_24" transform="matrix(12,0,0,12,111.9,437.2)" />
<use xlink:href="#f2_2b" transform="matrix(12,0,0,12,121,437.2)" />
<use xlink:href="#f2_2e" transform="matrix(12,0,0,12,130.2,437.2)" />
<use xlink:href="#f2_1x" transform="matrix(12,0,0,12,137.2,437.2)" />
<use xlink:href="#f2_g" transform="matrix(12,0,0,12,146.4,437.2)" />
<use xlink:href="#f2_12" transform="matrix(12,0,0,12,155.9,437.2)" />
<use xlink:href="#f2_21" transform="matrix(12,0,0,12,167.3,437.2)" />
<use xlink:href="#f2_2e" transform="matrix(12,0,0,12,175.3,437.2)" />
<use xlink:href="#f2_2b" transform="matrix(12,0,0,12,182.3,437.2)" />
<use xlink:href="#f2_21" transform="matrix(12,0,0,12,191.5,437.2)" />
<use xlink:href="#f1_i" transform="matrix(12,0,0,12,199.5,437.2)" />
<use xlink:href="#f0_o" transform="matrix(12,0,0,12,55,479.4)" />
<use xlink:href="#f0_i" transform="matrix(12,0,0,12,64.2,479.4)" />
<use xlink:href="#f0_m" transform="matrix(12,0,0,12,69,479.4)" />
<use xlink:href="#f0_i" transform="matrix(12,0,0,12,78.1,479.4)" />
<use xlink:href="#f0_o" transform="matrix(12,0,0,12,82.9,479.4)" />
<use xlink:href="#f0_1g" transform="matrix(12,0,0,12,96.5,479.4)" />
<use xlink:href="#f0_18" transform="matrix(12,0,0,12,107.5,479.4)" />
<use xlink:href="#f0_1p" transform="matrix(12,0,0,12,121.7,479.4)" />
<use xlink:href="#f0_1c" transform="matrix(12,0,0,12,135,479.4)" />
<use xlink:href="#f0_1l" transform="matrix(12,0,0,12,147.1,479.4)" />
<use xlink:href="#f0_1d" transform="matrix(12,0,0,12,160.3,479.4)" />
<use xlink:href="#f0_1g" transform="matrix(12,0,0,12,182.7,479.4)" />
<use xlink:href="#f0_1c" transform="matrix(12,0,0,12,193.7,479.4)" />
<use xlink:href="#f0_11" transform="matrix(12,0,0,12,205.8,479.4)" />
<use xlink:href="#f0_1k" transform="matrix(12,0,0,12,219,479.4)" />
<use xlink:href="#f0_1p" transform="matrix(12,0,0,12,231.1,479.4)" />
<use xlink:href="#f0_18" transform="matrix(12,0,0,12,244.3,479.4)" />
<use xlink:href="#f0_15" transform="matrix(12,0,0,12,258.6,479.4)" />
<use xlink:href="#f0_1c" transform="matrix(12,0,0,12,270.7,479.4)" />
<use xlink:href="#f0_1d" transform="matrix(12,0,0,12,282.8,479.4)" />
<use xlink:href="#f0_19" transform="matrix(12,0,0,12,300.4,479.4)" />
<use xlink:href="#f0_1e" transform="matrix(12,0,0,12,307.3,479.4)" />
<use xlink:href="#f0_1k" transform="matrix(12,0,0,12,320.6,479.4)" />
<use xlink:href="#f0_18" transform="matrix(12,0,0,12,332.6,479.4)" />
<use xlink:href="#f0_15" transform="matrix(12,0,0,12,346.9,479.4)" />
<use xlink:href="#f0_1j" transform="matrix(12,0,0,12,359,479.4)" />
<use xlink:href="#f0_c" transform="matrix(12,0,0,12,55,500.3)" />
<use xlink:href="#f0_1g" transform="matrix(12,0,0,12,61.3,500.3)" />
<use xlink:href="#f0_28" transform="matrix(12,0,0,12,72.3,500.3)" />
<use xlink:href="#f0_1x" transform="matrix(12,0,0,12,77,500.3)" />
<use xlink:href="#f0_2g" transform="matrix(12,0,0,12,86.2,500.3)" />
<use xlink:href="#f0_2l" transform="matrix(12,0,0,12,92.4,500.3)" />
<use xlink:href="#f0_2f" transform="matrix(12,0,0,12,101.6,500.3)" />
<use xlink:href="#f0_h" transform="matrix(12,0,0,12,108.6,500.3)" />
<use xlink:href="#f0_22" transform="matrix(12,0,0,12,114.8,500.3)" />
<use xlink:href="#f0_28" transform="matrix(12,0,0,12,121,500.3)" />
<use xlink:href="#f0_1x" transform="matrix(12,0,0,12,125.8,500.3)" />
<use xlink:href="#f0_2g" transform="matrix(12,0,0,12,135,500.3)" />
<use xlink:href="#f0_v" transform="matrix(12,0,0,12,141.2,500.3)" />
<use xlink:href="#f0_24" transform="matrix(12,0,0,12,147.4,500.3)" />
<use xlink:href="#f0_21" transform="matrix(12,0,0,12,157.6,500.3)" />
<use xlink:href="#f0_28" transform="matrix(12,0,0,12,166,500.3)" />
<use xlink:href="#f0_29" transform="matrix(12,0,0,12,170.8,500.3)" />
<use xlink:href="#f0_25" transform="matrix(12,0,0,12,185.8,500.3)" />
<use xlink:href="#f0_2a" transform="matrix(12,0,0,12,190.9,500.3)" />
<use xlink:href="#f0_2f" transform="matrix(12,0,0,12,201.2,500.3)" />
<use xlink:href="#f0_h" transform="matrix(12,0,0,12,208.3,500.3)" />
<use xlink:href="#f0_2j" transform="matrix(12,0,0,12,214.6,500.3)" />
<use xlink:href="#f0_2b" transform="matrix(12,0,0,12,227.8,500.3)" />
<use xlink:href="#f0_2e" transform="matrix(12,0,0,12,237.3,500.3)" />
<use xlink:href="#f0_29" transform="matrix(12,0,0,12,245.4,500.3)" />
<use xlink:href="#f0_2f" transform="matrix(12,0,0,12,260.4,500.3)" />
<use xlink:href="#f0_d" transform="matrix(12,0,0,12,267.4,500.3)" />
</g>
</g>
<image preserveAspectRatio="none" x="55" y="525" width="348" height="165" xlink:href="img/2.png" />
<g clip-path="url(#c0_52)">
<g fill="#000000" >
<use xlink:href="#f1_1g" transform="matrix(12,0,0,12,55,707.5)" />
<use xlink:href="#f1_28" transform="matrix(12,0,0,12,65.7,707.5)" />
<use xlink:href="#f1_1x" transform="matrix(12,0,0,12,70.1,707.5)" />
<use xlink:href="#f1_2g" transform="matrix(12,0,0,12,78.1,707.5)" />
<use xlink:href="#f1_2l" transform="matrix(12,0,0,12,84,707.5)" />
<use xlink:href="#f1_24" transform="matrix(12,0,0,12,92.8,707.5)" />
<use xlink:href="#f1_21" transform="matrix(12,0,0,12,101.6,707.5)" />
<use xlink:href="#f1_28" transform="matrix(12,0,0,12,110,707.5)" />
<use xlink:href="#f1_29" transform="matrix(12,0,0,12,115.1,707.5)" />
<use xlink:href="#f1_25" transform="matrix(12,0,0,12,129.4,707.5)" />
<use xlink:href="#f1_2a" transform="matrix(12,0,0,12,134.2,707.5)" />
<use xlink:href="#f1_2g" transform="matrix(12,0,0,12,143,707.5)" />
<use xlink:href="#f1_24" transform="matrix(12,0,0,12,148.4,707.5)" />
<use xlink:href="#f1_21" transform="matrix(12,0,0,12,157.6,707.5)" />
<use xlink:href="#f1_2f" transform="matrix(12,0,0,12,165.7,707.5)" />
<use xlink:href="#f1_2j" transform="matrix(12,0,0,12,177.4,707.5)" />
<use xlink:href="#f1_1x" transform="matrix(12,0,0,12,190.6,707.5)" />
<use xlink:href="#f1_2f" transform="matrix(12,0,0,12,198.7,707.5)" />
<use xlink:href="#f1_25" transform="matrix(12,0,0,12,210.7,707.5)" />
<use xlink:href="#f1_2a" transform="matrix(12,0,0,12,215.5,707.5)" />
<use xlink:href="#f1_2g" transform="matrix(12,0,0,12,224.3,707.5)" />
<use xlink:href="#f1_2e" transform="matrix(12,0,0,12,229.8,707.5)" />
<use xlink:href="#f1_2b" transform="matrix(12,0,0,12,236,707.5)" />
<use xlink:href="#f1_20" transform="matrix(12,0,0,12,245.5,707.5)" />
<use xlink:href="#f1_2h" transform="matrix(12,0,0,12,254.7,707.5)" />
<use xlink:href="#f1_1z" transform="matrix(12,0,0,12,263.9,707.5)" />
<use xlink:href="#f1_21" transform="matrix(12,0,0,12,271.9,707.5)" />
<use xlink:href="#f1_20" transform="matrix(12,0,0,12,280,707.5)" />
<use xlink:href="#f1_1y" transform="matrix(12,0,0,12,293.9,707.5)" />
<use xlink:href="#f1_2l" transform="matrix(12,0,0,12,303.1,707.5)" />
<use xlink:href="#f0_17" transform="matrix(12,0,0,12,316.5,707.5)" />
<use xlink:href="#f0_15" transform="matrix(12,0,0,12,330.8,707.5)" />
<use xlink:href="#f0_17" transform="matrix(12,0,0,12,342.9,707.5)" />
<use xlink:href="#f0_15" transform="matrix(12,0,0,12,357.2,707.5)" />
<use xlink:href="#f0_1e" transform="matrix(12,0,0,12,369.3,707.5)" />
<use xlink:href="#f0_12" transform="matrix(12,0,0,12,382.6,707.5)" />
<use xlink:href="#f0_11" transform="matrix(12,0,0,12,395,707.5)" />
<use xlink:href="#f0_1l" transform="matrix(12,0,0,12,408.2,707.5)" />
<use xlink:href="#f0_1i" transform="matrix(12,0,0,12,421.7,707.5)" />
<use xlink:href="#f1_i" transform="matrix(12,0,0,12,435.1,707.5)" />
<use xlink:href="#f1_1k" transform="matrix(12,0,0,12,55,728.7)" />
<use xlink:href="#f1_24" transform="matrix(12,0,0,12,66.4,728.7)" />
<use xlink:href="#f1_21" transform="matrix(12,0,0,12,75.2,728.7)" />
<use xlink:href="#f1_2l" transform="matrix(12,0,0,12,83.6,728.7)" />
<use xlink:href="#f1_1x" transform="matrix(12,0,0,12,96.8,728.7)" />
<use xlink:href="#f1_2e" transform="matrix(12,0,0,12,104.8,728.7)" />
<use xlink:href="#f1_21" transform="matrix(12,0,0,12,111.1,728.7)" />
<use xlink:href="#f1_1z" transform="matrix(12,0,0,12,123.9,728.7)" />
<use xlink:href="#f1_2b" transform="matrix(12,0,0,12,131.9,728.7)" />
<use xlink:href="#f1_29" transform="matrix(12,0,0,12,141.8,728.7)" />
<use xlink:href="#f1_29" transform="matrix(12,0,0,12,155.8,728.7)" />
<use xlink:href="#f1_2b" transform="matrix(12,0,0,12,169.3,728.7)" />
<use xlink:href="#f1_2a" transform="matrix(12,0,0,12,179.2,728.7)" />
<use xlink:href="#f1_28" transform="matrix(12,0,0,12,188.4,728.7)" />
<use xlink:href="#f1_2l" transform="matrix(12,0,0,12,193.5,728.7)" />
<use xlink:href="#f1_1z" transform="matrix(12,0,0,12,206.7,728.7)" />
<use xlink:href="#f1_1x" transform="matrix(12,0,0,12,214.8,728.7)" />
<use xlink:href="#f1_28" transform="matrix(12,0,0,12,223.2,728.7)" />
<use xlink:href="#f1_28" transform="matrix(12,0,0,12,228.3,728.7)" />
<use xlink:href="#f1_21" transform="matrix(12,0,0,12,233.1,728.7)" />
<use xlink:href="#f1_20" transform="matrix(12,0,0,12,241.1,728.7)" />
<use xlink:href="#f1_1x" transform="matrix(12,0,0,12,255.3,728.7)" />
<use xlink:href="#f1_2f" transform="matrix(12,0,0,12,263.7,728.7)" />
<use xlink:href="#f1_22" transform="matrix(12,0,0,12,275.8,728.7)" />
<use xlink:href="#f1_28" transform="matrix(12,0,0,12,281.7,728.7)" />
<use xlink:href="#f1_1x" transform="matrix(12,0,0,12,286.5,728.7)" />
<use xlink:href="#f1_2g" transform="matrix(12,0,0,12,294.5,728.7)" />
<use xlink:href="#f1_2j" transform="matrix(12,0,0,12,300,728.7)" />
<use xlink:href="#f1_2b" transform="matrix(12,0,0,12,313.3,728.7)" />
<use xlink:href="#f1_2e" transform="matrix(12,0,0,12,322.4,728.7)" />
<use xlink:href="#f1_29" transform="matrix(12,0,0,12,328.6,728.7)" />
<use xlink:href="#f1_2f" transform="matrix(12,0,0,12,342.6,728.7)" />
<use xlink:href="#f1_i" transform="matrix(12,0,0,12,349.6,728.7)" />
<use xlink:href="#f1_1k" transform="matrix(12,0,0,12,55,749.7)" />
<use xlink:href="#f1_24" transform="matrix(12,0,0,12,66.4,749.7)" />
<use xlink:href="#f1_21" transform="matrix(12,0,0,12,75.2,749.7)" />
<use xlink:href="#f1_2e" transform="matrix(12,0,0,12,83.3,749.7)" />
<use xlink:href="#f1_21" transform="matrix(12,0,0,12,89.5,749.7)" />
<use xlink:href="#f1_1x" transform="matrix(12,0,0,12,102.3,749.7)" />
<use xlink:href="#f1_2e" transform="matrix(12,0,0,12,110.3,749.7)" />
<use xlink:href="#f1_21" transform="matrix(12,0,0,12,116.6,749.7)" />
<use xlink:href="#f1_1x" transform="matrix(12,0,0,12,129.4,749.7)" />
<use xlink:href="#f1_1y" transform="matrix(12,0,0,12,137.4,749.7)" />
<use xlink:href="#f1_2b" transform="matrix(12,0,0,12,146.2,749.7)" />
<use xlink:href="#f1_2h" transform="matrix(12,0,0,12,155.8,749.7)" />
<use xlink:href="#f1_2g" transform="matrix(12,0,0,12,164.9,749.7)" />
<use xlink:href="#f0_l" transform="matrix(12,0,0,12,175,749.7)" />
<use xlink:href="#f0_n" transform="matrix(12,0,0,12,184.1,749.7)" />
<use xlink:href="#f1_g" transform="matrix(12,0,0,12,193.3,749.7)" />
<use xlink:href="#f0_k" transform="matrix(12,0,0,12,198.1,749.7)" />
<use xlink:href="#f0_k" transform="matrix(12,0,0,12,207.2,749.7)" />
<use xlink:href="#f0_k" transform="matrix(12,0,0,12,216.4,749.7)" />
<use xlink:href="#f1_2f" transform="matrix(12,0,0,12,230,749.7)" />
<use xlink:href="#f1_2c" transform="matrix(12,0,0,12,236.9,749.7)" />
<use xlink:href="#f1_21" transform="matrix(12,0,0,12,246.1,749.7)" />
<use xlink:href="#f1_1z" transform="matrix(12,0,0,12,254.2,749.7)" />
<use xlink:href="#f1_25" transform="matrix(12,0,0,12,262.6,749.7)" />
<use xlink:href="#f1_21" transform="matrix(12,0,0,12,267,749.7)" />
<use xlink:href="#f1_2f" transform="matrix(12,0,0,12,275.1,749.7)" />
<use xlink:href="#f1_2b" transform="matrix(12,0,0,12,286.8,749.7)" />
<use xlink:href="#f1_22" transform="matrix(12,0,0,12,296.7,749.7)" />
<use xlink:href="#f1_22" transform="matrix(12,0,0,12,307.3,749.7)" />
<use xlink:href="#f1_28" transform="matrix(12,0,0,12,313.1,749.7)" />
<use xlink:href="#f1_1x" transform="matrix(12,0,0,12,317.9,749.7)" />
<use xlink:href="#f1_2g" transform="matrix(12,0,0,12,326,749.7)" />
<use xlink:href="#f1_2j" transform="matrix(12,0,0,12,331.5,749.7)" />
<use xlink:href="#f1_2b" transform="matrix(12,0,0,12,344.7,749.7)" />
<use xlink:href="#f1_2e" transform="matrix(12,0,0,12,353.9,749.7)" />
<use xlink:href="#f1_29" transform="matrix(12,0,0,12,360,749.7)" />
<use xlink:href="#f1_2f" transform="matrix(12,0,0,12,374,749.7)" />
<use xlink:href="#f1_27" transform="matrix(12,0,0,12,385.7,749.7)" />
<use xlink:href="#f1_2a" transform="matrix(12,0,0,12,394.8,749.7)" />
<use xlink:href="#f1_2b" transform="matrix(12,0,0,12,403.6,749.7)" />
<use xlink:href="#f1_2j" transform="matrix(12,0,0,12,413.2,749.7)" />
<use xlink:href="#f1_2a" transform="matrix(12,0,0,12,426.4,749.7)" />
<use xlink:href="#f1_2g" transform="matrix(12,0,0,12,439.9,749.7)" />
<use xlink:href="#f1_2b" transform="matrix(12,0,0,12,445,749.7)" />
<use xlink:href="#f1_20" transform="matrix(12,0,0,12,454.6,749.7)" />
<use xlink:href="#f1_1x" transform="matrix(12,0,0,12,463.7,749.7)" />
<use xlink:href="#f1_2l" transform="matrix(12,0,0,12,472.1,749.7)" />
<use xlink:href="#f1_i" transform="matrix(12,0,0,12,480.6,749.7)" />
<use xlink:href="#f1_1j" transform="matrix(12,0,0,12,55,770.9)" />
<use xlink:href="#f1_24" transform="matrix(12,0,0,12,65.3,770.9)" />
<use xlink:href="#f1_1x" transform="matrix(12,0,0,12,74.1,770.9)" />
<use xlink:href="#f1_2c" transform="matrix(12,0,0,12,82.2,770.9)" />
<use xlink:href="#f1_21" transform="matrix(12,0,0,12,91.3,770.9)" />
<use xlink:href="#f1_2b" transform="matrix(12,0,0,12,104.1,770.9)" />
<use xlink:href="#f1_22" transform="matrix(12,0,0,12,113.6,770.9)" />
<use xlink:href="#f1_2g" transform="matrix(12,0,0,12,123.9,770.9)" />
<use xlink:href="#f1_24" transform="matrix(12,0,0,12,129.4,770.9)" />
<use xlink:href="#f1_21" transform="matrix(12,0,0,12,138.2,770.9)" />
<use xlink:href="#f1_1y" transform="matrix(12,0,0,12,151,770.9)" />
<use xlink:href="#f1_2b" transform="matrix(12,0,0,12,159.8,770.9)" />
<use xlink:href="#f1_20" transform="matrix(12,0,0,12,169.3,770.9)" />
<use xlink:href="#f1_2l" transform="matrix(12,0,0,12,178.8,770.9)" />
<use xlink:href="#f1_25" transform="matrix(12,0,0,12,192.4,770.9)" />
<use xlink:href="#f1_2f" transform="matrix(12,0,0,12,197.1,770.9)" />
<use xlink:href="#f1_23" transform="matrix(12,0,0,12,208.9,770.9)" />
<use xlink:href="#f1_21" transform="matrix(12,0,0,12,218,770.9)" />
<use xlink:href="#f1_2a" transform="matrix(12,0,0,12,226.4,770.9)" />
<use xlink:href="#f1_21" transform="matrix(12,0,0,12,235.2,770.9)" />
<use xlink:href="#f1_2e" transform="matrix(12,0,0,12,243.3,770.9)" />
<use xlink:href="#f1_1x" transform="matrix(12,0,0,12,249.5,770.9)" />
<use xlink:href="#f1_28" transform="matrix(12,0,0,12,257.9,770.9)" />
<use xlink:href="#f1_28" transform="matrix(12,0,0,12,263,770.9)" />
<use xlink:href="#f1_2l" transform="matrix(12,0,0,12,268.2,770.9)" />
<use xlink:href="#f0_20" transform="matrix(12,0,0,12,281.7,770.9)" />
<use xlink:href="#f0_2b" transform="matrix(12,0,0,12,292,770.9)" />
<use xlink:href="#f0_2e" transform="matrix(12,0,0,12,301.5,770.9)" />
<use xlink:href="#f0_2f" transform="matrix(12,0,0,12,309.5,770.9)" />
<use xlink:href="#f0_25" transform="matrix(12,0,0,12,316.5,770.9)" />
<use xlink:href="#f1_h" transform="matrix(12,0,0,12,321.7,770.9)" />
<use xlink:href="#f0_2i" transform="matrix(12,0,0,12,327.9,770.9)" />
<use xlink:href="#f0_21" transform="matrix(12,0,0,12,337.1,770.9)" />
<use xlink:href="#f0_2a" transform="matrix(12,0,0,12,345.1,770.9)" />
<use xlink:href="#f0_2g" transform="matrix(12,0,0,12,355.4,770.9)" />
<use xlink:href="#f0_2e" transform="matrix(12,0,0,12,361.6,770.9)" />
<use xlink:href="#f0_1x" transform="matrix(12,0,0,12,369.3,770.9)" />
<use xlink:href="#f0_28" transform="matrix(12,0,0,12,378.8,770.9)" />
<use xlink:href="#f0_28" transform="matrix(12,0,0,12,383.9,770.9)" />
<use xlink:href="#f0_2l" transform="matrix(12,0,0,12,388.7,770.9)" />
<use xlink:href="#f0_22" transform="matrix(12,0,0,12,402.8,770.9)" />
<use xlink:href="#f0_28" transform="matrix(12,0,0,12,409,770.9)" />
<use xlink:href="#f0_1x" transform="matrix(12,0,0,12,413.7,770.9)" />
<use xlink:href="#f0_2g" transform="matrix(12,0,0,12,422.9,770.9)" />
<use xlink:href="#f1_g" transform="matrix(12,0,0,12,429.2,770.9)" />
<use xlink:href="#f1_18" transform="matrix(12,0,0,12,438.6,770.9)" />
<use xlink:href="#f1_21" transform="matrix(12,0,0,12,451.9,770.9)" />
<use xlink:href="#f1_2a" transform="matrix(12,0,0,12,459.9,770.9)" />
<use xlink:href="#f1_1z" transform="matrix(12,0,0,12,468.7,770.9)" />
<use xlink:href="#f1_21" transform="matrix(12,0,0,12,476.8,770.9)" />
<use xlink:href="#f1_2g" transform="matrix(12,0,0,12,489.6,770.9)" />
<use xlink:href="#f1_24" transform="matrix(12,0,0,12,495.1,770.9)" />
<use xlink:href="#f1_21" transform="matrix(12,0,0,12,503.9,770.9)" />
<use xlink:href="#f1_2a" transform="matrix(12,0,0,12,516.7,770.9)" />
<use xlink:href="#f1_1x" transform="matrix(12,0,0,12,525.5,770.9)" />
<use xlink:href="#f1_29" transform="matrix(12,0,0,12,533.9,770.9)" />
<use xlink:href="#f1_21" transform="matrix(12,0,0,12,547.8,770.9)" />
<use xlink:href="#f0_22" transform="matrix(12,0,0,12,560.8,770.9)" />
<use xlink:href="#f0_28" transform="matrix(12,0,0,12,567.1,770.9)" />
<use xlink:href="#f0_1x" transform="matrix(12,0,0,12,571.8,770.9)" />
<use xlink:href="#f0_2g" transform="matrix(12,0,0,12,581,770.9)" />
<use xlink:href="#f0_2j" transform="matrix(12,0,0,12,587.2,770.9)" />
<use xlink:href="#f0_2b" transform="matrix(12,0,0,12,600.5,770.9)" />
<use xlink:href="#f0_2e" transform="matrix(12,0,0,12,609.9,770.9)" />
<use xlink:href="#f0_29" transform="matrix(12,0,0,12,618,770.9)" />
<use xlink:href="#f1_i" transform="matrix(12,0,0,12,633.1,770.9)" />
<use xlink:href="#f1_1k" transform="matrix(12,0,0,12,55,791.8)" />
<use xlink:href="#f1_24" transform="matrix(12,0,0,12,66.4,791.8)" />
<use xlink:href="#f1_25" transform="matrix(12,0,0,12,75.6,791.8)" />
<use xlink:href="#f1_2f" transform="matrix(12,0,0,12,80.3,791.8)" />
<use xlink:href="#f1_25" transform="matrix(12,0,0,12,92.4,791.8)" />
<use xlink:href="#f1_2f" transform="matrix(12,0,0,12,97.2,791.8)" />
<use xlink:href="#f1_2g" transform="matrix(12,0,0,12,108.9,791.8)" />
<use xlink:href="#f1_24" transform="matrix(12,0,0,12,114.4,791.8)" />
<use xlink:href="#f1_21" transform="matrix(12,0,0,12,123.2,791.8)" />
<use xlink:href="#f1_22" transform="matrix(12,0,0,12,136,791.8)" />
<use xlink:href="#f1_25" transform="matrix(12,0,0,12,141.8,791.8)" />
<use xlink:href="#f1_2e" transform="matrix(12,0,0,12,146.6,791.8)" />
<use xlink:href="#f1_2f" transform="matrix(12,0,0,12,152.8,791.8)" />
<use xlink:href="#f1_2g" transform="matrix(12,0,0,12,159.8,791.8)" />
<use xlink:href="#f1_23" transform="matrix(12,0,0,12,170,791.8)" />
<use xlink:href="#f1_2e" transform="matrix(12,0,0,12,179.2,791.8)" />
<use xlink:href="#f1_2b" transform="matrix(12,0,0,12,185.1,791.8)" />
<use xlink:href="#f1_2h" transform="matrix(12,0,0,12,194.6,791.8)" />
<use xlink:href="#f1_2c" transform="matrix(12,0,0,12,203.7,791.8)" />
<use xlink:href="#f1_2b" transform="matrix(12,0,0,12,217.3,791.8)" />
<use xlink:href="#f1_22" transform="matrix(12,0,0,12,226.8,791.8)" />
<use xlink:href="#f1_1x" transform="matrix(12,0,0,12,237.1,791.8)" />
<use xlink:href="#f1_2a" transform="matrix(12,0,0,12,245.1,791.8)" />
<use xlink:href="#f1_25" transform="matrix(12,0,0,12,254.3,791.8)" />
<use xlink:href="#f1_29" transform="matrix(12,0,0,12,259.4,791.8)" />
<use xlink:href="#f1_1x" transform="matrix(12,0,0,12,273.4,791.8)" />
<use xlink:href="#f1_28" transform="matrix(12,0,0,12,281.8,791.8)" />
<use xlink:href="#f1_2f" transform="matrix(12,0,0,12,286.6,791.8)" />
<use xlink:href="#f1_25" transform="matrix(12,0,0,12,298.6,791.8)" />
<use xlink:href="#f1_2a" transform="matrix(12,0,0,12,303.4,791.8)" />
<use xlink:href="#f1_2j" transform="matrix(12,0,0,12,317.3,791.8)" />
<use xlink:href="#f1_24" transform="matrix(12,0,0,12,330.9,791.8)" />
<use xlink:href="#f1_25" transform="matrix(12,0,0,12,340,791.8)" />
<use xlink:href="#f1_1z" transform="matrix(12,0,0,12,344.8,791.8)" />
<use xlink:href="#f1_24" transform="matrix(12,0,0,12,353.2,791.8)" />
<use xlink:href="#f1_1x" transform="matrix(12,0,0,12,366.8,791.8)" />
<use xlink:href="#f1_2a" transform="matrix(12,0,0,12,374.8,791.8)" />
<use xlink:href="#f1_2g" transform="matrix(12,0,0,12,383.6,791.8)" />
<use xlink:href="#f1_21" transform="matrix(12,0,0,12,389.1,791.8)" />
<use xlink:href="#f1_2e" transform="matrix(12,0,0,12,397.2,791.8)" />
<use xlink:href="#f1_25" transform="matrix(12,0,0,12,403.8,791.8)" />
<use xlink:href="#f1_2b" transform="matrix(12,0,0,12,408.2,791.8)" />
<use xlink:href="#f1_2e" transform="matrix(12,0,0,12,417.7,791.8)" />
<use xlink:href="#f1_2c" transform="matrix(12,0,0,12,428.3,791.8)" />
<use xlink:href="#f1_1x" transform="matrix(12,0,0,12,437.5,791.8)" />
<use xlink:href="#f1_2e" transform="matrix(12,0,0,12,445.5,791.8)" />
<use xlink:href="#f1_2g" transform="matrix(12,0,0,12,451.7,791.8)" />
<use xlink:href="#f1_25" transform="matrix(12,0,0,12,461.6,791.8)" />
<use xlink:href="#f1_2f" transform="matrix(12,0,0,12,466.4,791.8)" />
<use xlink:href="#f1_20" transform="matrix(12,0,0,12,478.1,791.8)" />
<use xlink:href="#f1_21" transform="matrix(12,0,0,12,487.3,791.8)" />
<use xlink:href="#f1_2i" transform="matrix(12,0,0,12,495.3,791.8)" />
<use xlink:href="#f1_21" transform="matrix(12,0,0,12,504.1,791.8)" />
<use xlink:href="#f1_28" transform="matrix(12,0,0,12,512.5,791.8)" />
<use xlink:href="#f1_2b" transform="matrix(12,0,0,12,516.9,791.8)" />
<use xlink:href="#f1_2c" transform="matrix(12,0,0,12,526.5,791.8)" />
<use xlink:href="#f1_21" transform="matrix(12,0,0,12,536,791.8)" />
<use xlink:href="#f1_20" transform="matrix(12,0,0,12,544,791.8)" />
<use xlink:href="#f1_25" transform="matrix(12,0,0,12,558.3,791.8)" />
<use xlink:href="#f1_2a" transform="matrix(12,0,0,12,563.1,791.8)" />
<use xlink:href="#f1_2g" transform="matrix(12,0,0,12,571.9,791.8)" />
<use xlink:href="#f1_2b" transform="matrix(12,0,0,12,577.4,791.8)" />
<use xlink:href="#f1_1x" transform="matrix(12,0,0,12,591.3,791.8)" />
<use xlink:href="#f1_24" transform="matrix(12,0,0,12,604.1,791.8)" />
<use xlink:href="#f1_21" transform="matrix(12,0,0,12,612.9,791.8)" />
<use xlink:href="#f1_1x" transform="matrix(12,0,0,12,621,791.8)" />
<use xlink:href="#f1_20" transform="matrix(12,0,0,12,629,791.8)" />
<use xlink:href="#f1_i" transform="matrix(12,0,0,12,638.2,791.8)" />
<use xlink:href="#f0_19" transform="matrix(12,0,0,12,55,813.1)" />
<use xlink:href="#f0_29" transform="matrix(12,0,0,12,62,813.1)" />
<use xlink:href="#f0_2c" transform="matrix(12,0,0,12,77,813.1)" />
<use xlink:href="#f0_2b" transform="matrix(12,0,0,12,87.3,813.1)" />
<use xlink:href="#f0_2e" transform="matrix(12,0,0,12,96.8,813.1)" />
<use xlink:href="#f0_2g" transform="matrix(12,0,0,12,104.5,813.1)" />
<use xlink:href="#f0_1x" transform="matrix(12,0,0,12,110.8,813.1)" />
<use xlink:href="#f0_2a" transform="matrix(12,0,0,12,119.9,813.1)" />
<use xlink:href="#f0_2g" transform="matrix(12,0,0,12,130.2,813.1)" />
<use xlink:href="#f0_1z" transform="matrix(12,0,0,12,141.2,813.1)" />
<use xlink:href="#f0_24" transform="matrix(12,0,0,12,149.3,813.1)" />
<use xlink:href="#f0_1x" transform="matrix(12,0,0,12,159.5,813.1)" />
<use xlink:href="#f0_2e" transform="matrix(12,0,0,12,168.7,813.1)" />
<use xlink:href="#f0_1x" transform="matrix(12,0,0,12,176.4,813.1)" />
<use xlink:href="#f0_1z" transform="matrix(12,0,0,12,185.6,813.1)" />
<use xlink:href="#f0_2g" transform="matrix(12,0,0,12,193.6,813.1)" />
<use xlink:href="#f0_21" transform="matrix(12,0,0,12,199.8,813.1)" />
<use xlink:href="#f0_2e" transform="matrix(12,0,0,12,208.2,813.1)" />
<use xlink:href="#f0_25" transform="matrix(12,0,0,12,215.9,813.1)" />
<use xlink:href="#f0_2f" transform="matrix(12,0,0,12,221,813.1)" />
<use xlink:href="#f0_2g" transform="matrix(12,0,0,12,228,813.1)" />
<use xlink:href="#f0_25" transform="matrix(12,0,0,12,234.3,813.1)" />
<use xlink:href="#f0_1z" transform="matrix(12,0,0,12,239.4,813.1)" />
<use xlink:href="#f0_22" transform="matrix(12,0,0,12,252.4,813.1)" />
<use xlink:href="#f0_21" transform="matrix(12,0,0,12,258.2,813.1)" />
<use xlink:href="#f0_1x" transform="matrix(12,0,0,12,266.3,813.1)" />
<use xlink:href="#f0_2g" transform="matrix(12,0,0,12,275.5,813.1)" />
<use xlink:href="#f0_2h" transform="matrix(12,0,0,12,281.7,813.1)" />
<use xlink:href="#f0_2e" transform="matrix(12,0,0,12,292.3,813.1)" />
<use xlink:href="#f0_21" transform="matrix(12,0,0,12,300,813.1)" />
<use xlink:href="#f0_2f" transform="matrix(12,0,0,12,308.4,813.1)" />
<use xlink:href="#f0_u" transform="matrix(12,0,0,12,315.4,813.1)" />
<use xlink:href="#f3_3d" transform="matrix(12,0,0,12,82.5,835.5)" />
<use xlink:href="#f1_16" transform="matrix(12,0,0,12,110,835.5)" />
<use xlink:href="#f1_25" transform="matrix(12,0,0,12,120.3,835.5)" />
<use xlink:href="#f1_2e" transform="matrix(12,0,0,12,124.7,835.5)" />
<use xlink:href="#f1_2f" transform="matrix(12,0,0,12,131.3,835.5)" />
<use xlink:href="#f1_2g" transform="matrix(12,0,0,12,138.2,835.5)" />
<use xlink:href="#f1_23" transform="matrix(12,0,0,12,148.5,835.5)" />
<use xlink:href="#f1_2e" transform="matrix(12,0,0,12,157.6,835.5)" />
<use xlink:href="#f1_2b" transform="matrix(12,0,0,12,163.5,835.5)" />
<use xlink:href="#f1_2h" transform="matrix(12,0,0,12,173,835.5)" />
<use xlink:href="#f1_2c" transform="matrix(12,0,0,12,182.2,835.5)" />
<use xlink:href="#f1_2b" transform="matrix(12,0,0,12,195.4,835.5)" />
<use xlink:href="#f1_22" transform="matrix(12,0,0,12,204.9,835.5)" />
<use xlink:href="#f1_1x" transform="matrix(12,0,0,12,215.1,835.5)" />
<use xlink:href="#f1_2a" transform="matrix(12,0,0,12,223.6,835.5)" />
<use xlink:href="#f1_25" transform="matrix(12,0,0,12,232.7,835.5)" />
<use xlink:href="#f1_29" transform="matrix(12,0,0,12,237.5,835.5)" />
<use xlink:href="#f1_1x" transform="matrix(12,0,0,12,251.4,835.5)" />
<use xlink:href="#f1_28" transform="matrix(12,0,0,12,259.8,835.5)" />
<use xlink:href="#f1_2f" transform="matrix(12,0,0,12,264.6,835.5)" />
<use xlink:href="#f1_2g" transform="matrix(12,0,0,12,276.3,835.5)" />
<use xlink:href="#f1_2b" transform="matrix(12,0,0,12,281.8,835.5)" />
<use xlink:href="#f1_24" transform="matrix(12,0,0,12,296.1,835.5)" />
<use xlink:href="#f1_1x" transform="matrix(12,0,0,12,304.9,835.5)" />
<use xlink:href="#f1_2i" transform="matrix(12,0,0,12,312.9,835.5)" />
<use xlink:href="#f1_21" transform="matrix(12,0,0,12,321.7,835.5)" />
<use xlink:href="#f1_1x" transform="matrix(12,0,0,12,334.5,835.5)" />
<use xlink:href="#f1_2a" transform="matrix(12,0,0,12,343,835.5)" />
<use xlink:href="#f1_2b" transform="matrix(12,0,0,12,356.5,835.5)" />
<use xlink:href="#f1_2e" transform="matrix(12,0,0,12,366,835.5)" />
<use xlink:href="#f1_23" transform="matrix(12,0,0,12,372.2,835.5)" />
<use xlink:href="#f1_1x" transform="matrix(12,0,0,12,381.4,835.5)" />
<use xlink:href="#f1_2a" transform="matrix(12,0,0,12,389.5,835.5)" />
<use xlink:href="#f1_2f" transform="matrix(12,0,0,12,403,835.5)" />
<use xlink:href="#f1_2l" transform="matrix(12,0,0,12,410.3,835.5)" />
<use xlink:href="#f1_2f" transform="matrix(12,0,0,12,419.1,835.5)" />
<use xlink:href="#f1_2g" transform="matrix(12,0,0,12,426.1,835.5)" />
<use xlink:href="#f1_21" transform="matrix(12,0,0,12,431.6,835.5)" />
<use xlink:href="#f1_29" transform="matrix(12,0,0,12,440,835.5)" />
<use xlink:href="#f1_28" transform="matrix(12,0,0,12,458.7,835.5)" />
<use xlink:href="#f1_21" transform="matrix(12,0,0,12,463.1,835.5)" />
<use xlink:href="#f1_2i" transform="matrix(12,0,0,12,471.5,835.5)" />
<use xlink:href="#f1_21" transform="matrix(12,0,0,12,480.7,835.5)" />
<use xlink:href="#f1_28" transform="matrix(12,0,0,12,489.1,835.5)" />
<use xlink:href="#f1_2b" transform="matrix(12,0,0,12,498.2,835.5)" />
<use xlink:href="#f1_22" transform="matrix(12,0,0,12,507.7,835.5)" />
<use xlink:href="#f1_2b" transform="matrix(12,0,0,12,518.7,835.5)" />
<use xlink:href="#f1_2e" transform="matrix(12,0,0,12,528.2,835.5)" />
<use xlink:href="#f1_23" transform="matrix(12,0,0,12,534.4,835.5)" />
<use xlink:href="#f1_1x" transform="matrix(12,0,0,12,543.5,835.5)" />
<use xlink:href="#f1_2a" transform="matrix(12,0,0,12,551.6,835.5)" />
<use xlink:href="#f1_25" transform="matrix(12,0,0,12,560.8,835.5)" />
<use xlink:href="#f1_2m" transform="matrix(12,0,0,12,565.5,835.5)" />
<use xlink:href="#f1_1x" transform="matrix(12,0,0,12,573.6,835.5)" />
<use xlink:href="#f1_2g" transform="matrix(12,0,0,12,581.7,835.5)" />
<use xlink:href="#f1_25" transform="matrix(12,0,0,12,587.5,835.5)" />
<use xlink:href="#f1_2b" transform="matrix(12,0,0,12,591.9,835.5)" />
<use xlink:href="#f1_2a" transform="matrix(12,0,0,12,601.4,835.5)" />
<use xlink:href="#f1_i" transform="matrix(12,0,0,12,610.3,835.5)" />
<use xlink:href="#f3_3d" transform="matrix(12,0,0,12,82.5,857.8)" />
<use xlink:href="#f0_1g" transform="matrix(12,0,0,12,110,857.8)" />
<use xlink:href="#f0_1x" transform="matrix(12,0,0,12,121,857.8)" />
<use xlink:href="#f0_2e" transform="matrix(12,0,0,12,130.6,857.8)" />
<use xlink:href="#f0_1x" transform="matrix(12,0,0,12,138.3,857.8)" />
<use xlink:href="#f0_2f" transform="matrix(12,0,0,12,147.4,857.8)" />
<use xlink:href="#f0_25" transform="matrix(12,0,0,12,154.4,857.8)" />
<use xlink:href="#f0_2g" transform="matrix(12,0,0,12,159.5,857.8)" />
<use xlink:href="#f0_25" transform="matrix(12,0,0,12,165.7,857.8)" />
<use xlink:href="#f0_1z" transform="matrix(12,0,0,12,170.8,857.8)" />
<use xlink:href="#f0_1x" transform="matrix(12,0,0,12,183.8,857.8)" />
<use xlink:href="#f0_20" transform="matrix(12,0,0,12,192.9,857.8)" />
<use xlink:href="#f0_1x" transform="matrix(12,0,0,12,203.2,857.8)" />
<use xlink:href="#f0_2c" transform="matrix(12,0,0,12,212.4,857.8)" />
<use xlink:href="#f0_2g" transform="matrix(12,0,0,12,222.6,857.8)" />
<use xlink:href="#f0_1x" transform="matrix(12,0,0,12,228.8,857.8)" />
<use xlink:href="#f0_2g" transform="matrix(12,0,0,12,238,857.8)" />
<use xlink:href="#f0_25" transform="matrix(12,0,0,12,244.2,857.8)" />
<use xlink:href="#f0_2b" transform="matrix(12,0,0,12,249.3,857.8)" />
<use xlink:href="#f0_2a" transform="matrix(12,0,0,12,258.5,857.8)" />
<use xlink:href="#f0_2f" transform="matrix(12,0,0,12,268.8,857.8)" />
<use xlink:href="#f1_u" transform="matrix(12,0,0,12,275.8,857.8)" />
<use xlink:href="#f1_1g" transform="matrix(12,0,0,12,285.7,857.8)" />
<use xlink:href="#f1_2e" transform="matrix(12,0,0,12,295.6,857.8)" />
<use xlink:href="#f1_21" transform="matrix(12,0,0,12,301.8,857.8)" />
<use xlink:href="#f1_2f" transform="matrix(12,0,0,12,309.9,857.8)" />
<use xlink:href="#f1_21" transform="matrix(12,0,0,12,316.9,857.8)" />
<use xlink:href="#f1_2a" transform="matrix(12,0,0,12,324.9,857.8)" />
<use xlink:href="#f1_1z" transform="matrix(12,0,0,12,333.7,857.8)" />
<use xlink:href="#f1_21" transform="matrix(12,0,0,12,341.8,857.8)" />
<use xlink:href="#f1_2b" transform="matrix(12,0,0,12,354.6,857.8)" />
<use xlink:href="#f1_22" transform="matrix(12,0,0,12,364.5,857.8)" />
<use xlink:href="#f1_24" transform="matrix(12,0,0,12,374.9,857.8)" />
<use xlink:href="#f1_2b" transform="matrix(12,0,0,12,383.7,857.8)" />
<use xlink:href="#f1_2b" transform="matrix(12,0,0,12,393.2,857.8)" />
<use xlink:href="#f1_27" transform="matrix(12,0,0,12,402.7,857.8)" />
<use xlink:href="#f1_2f" transform="matrix(12,0,0,12,411.9,857.8)" />
<use xlink:href="#f1_1x" transform="matrix(12,0,0,12,423.6,857.8)" />
<use xlink:href="#f1_2a" transform="matrix(12,0,0,12,431.7,857.8)" />
<use xlink:href="#f1_20" transform="matrix(12,0,0,12,440.5,857.8)" />
<use xlink:href="#f1_2f" transform="matrix(12,0,0,12,454.4,857.8)" />
<use xlink:href="#f1_2h" transform="matrix(12,0,0,12,461.3,857.8)" />
<use xlink:href="#f1_1z" transform="matrix(12,0,0,12,470.5,857.8)" />
<use xlink:href="#f1_27" transform="matrix(12,0,0,12,478.6,857.8)" />
<use xlink:href="#f1_21" transform="matrix(12,0,0,12,487.7,857.8)" />
<use xlink:href="#f1_2e" transform="matrix(12,0,0,12,495.8,857.8)" />
<use xlink:href="#f1_2f" transform="matrix(12,0,0,12,502,857.8)" />
<use xlink:href="#f1_i" transform="matrix(12,0,0,12,509,857.8)" />
<use xlink:href="#f3_3d" transform="matrix(12,0,0,12,82.5,880.2)" />
<use xlink:href="#f0_12" transform="matrix(12,0,0,12,110,880.2)" />
<use xlink:href="#f0_25" transform="matrix(12,0,0,12,122.5,880.2)" />
<use xlink:href="#f0_28" transform="matrix(12,0,0,12,127.6,880.2)" />
<use xlink:href="#f0_1x" transform="matrix(12,0,0,12,132.4,880.2)" />
<use xlink:href="#f0_2g" transform="matrix(12,0,0,12,141.6,880.2)" />
<use xlink:href="#f0_21" transform="matrix(12,0,0,12,147.8,880.2)" />
<use xlink:href="#f0_2e" transform="matrix(12,0,0,12,155.9,880.2)" />
<use xlink:href="#f0_1x" transform="matrix(12,0,0,12,163.6,880.2)" />
<use xlink:href="#f0_28" transform="matrix(12,0,0,12,173.1,880.2)" />
<use xlink:href="#f0_28" transform="matrix(12,0,0,12,178.2,880.2)" />
<use xlink:href="#f0_2l" transform="matrix(12,0,0,12,183,880.2)" />
<use xlink:href="#f0_2f" transform="matrix(12,0,0,12,198,880.2)" />
<use xlink:href="#f0_2l" transform="matrix(12,0,0,12,205,880.2)" />
<use xlink:href="#f0_29" transform="matrix(12,0,0,12,214.5,880.2)" />
<use xlink:href="#f0_29" transform="matrix(12,0,0,12,229.9,880.2)" />
<use xlink:href="#f0_21" transform="matrix(12,0,0,12,244.9,880.2)" />
<use xlink:href="#f0_2g" transform="matrix(12,0,0,12,253,880.2)" />
<use xlink:href="#f0_2e" transform="matrix(12,0,0,12,259.6,880.2)" />
<use xlink:href="#f0_25" transform="matrix(12,0,0,12,267.3,880.2)" />
<use xlink:href="#f0_1z" transform="matrix(12,0,0,12,272.4,880.2)" />
<use xlink:href="#f0_1x" transform="matrix(12,0,0,12,280.5,880.2)" />
<use xlink:href="#f0_28" transform="matrix(12,0,0,12,290,880.2)" />
<use xlink:href="#f1_2j" transform="matrix(12,0,0,12,300.8,880.2)" />
<use xlink:href="#f1_25" transform="matrix(12,0,0,12,314.3,880.2)" />
<use xlink:href="#f1_2g" transform="matrix(12,0,0,12,318.7,880.2)" />
<use xlink:href="#f1_24" transform="matrix(12,0,0,12,324.2,880.2)" />
<use xlink:href="#f1_20" transform="matrix(12,0,0,12,338.5,880.2)" />
<use xlink:href="#f1_2b" transform="matrix(12,0,0,12,347.7,880.2)" />
<use xlink:href="#f1_2e" transform="matrix(12,0,0,12,357.2,880.2)" />
<use xlink:href="#f1_2f" transform="matrix(12,0,0,12,363.4,880.2)" />
<use xlink:href="#f1_1x" transform="matrix(12,0,0,12,370.3,880.2)" />
<use xlink:href="#f1_28" transform="matrix(12,0,0,12,378.8,880.2)" />
<use xlink:href="#f1_1x" transform="matrix(12,0,0,12,388.6,880.2)" />
<use xlink:href="#f1_2a" transform="matrix(12,0,0,12,397.1,880.2)" />
<use xlink:href="#f1_20" transform="matrix(12,0,0,12,405.9,880.2)" />
<use xlink:href="#f1_2i" transform="matrix(12,0,0,12,420.9,880.2)" />
<use xlink:href="#f1_21" transform="matrix(12,0,0,12,429.7,880.2)" />
<use xlink:href="#f1_2a" transform="matrix(12,0,0,12,438.1,880.2)" />
<use xlink:href="#f1_2g" transform="matrix(12,0,0,12,446.9,880.2)" />
<use xlink:href="#f1_2e" transform="matrix(12,0,0,12,452.4,880.2)" />
<use xlink:href="#f1_1x" transform="matrix(12,0,0,12,458.6,880.2)" />
<use xlink:href="#f1_28" transform="matrix(12,0,0,12,467,880.2)" />
<use xlink:href="#f1_2f" transform="matrix(12,0,0,12,476.9,880.2)" />
<use xlink:href="#f1_2h" transform="matrix(12,0,0,12,484.2,880.2)" />
<use xlink:href="#f1_2e" transform="matrix(12,0,0,12,493.4,880.2)" />
<use xlink:href="#f1_22" transform="matrix(12,0,0,12,499.6,880.2)" />
<use xlink:href="#f1_1x" transform="matrix(12,0,0,12,505.1,880.2)" />
<use xlink:href="#f1_1z" transform="matrix(12,0,0,12,513.5,880.2)" />
<use xlink:href="#f1_21" transform="matrix(12,0,0,12,521.6,880.2)" />
<use xlink:href="#f1_2f" transform="matrix(12,0,0,12,529.6,880.2)" />
<use xlink:href="#f1_i" transform="matrix(12,0,0,12,536.6,880.2)" />
<use xlink:href="#f1_16" transform="matrix(12,0,0,12,546.8,880.2)" />
<use xlink:href="#f1_25" transform="matrix(12,0,0,12,557.1,880.2)" />
<use xlink:href="#f1_2e" transform="matrix(12,0,0,12,561.8,880.2)" />
<use xlink:href="#f1_2f" transform="matrix(12,0,0,12,568.1,880.2)" />
<use xlink:href="#f1_2g" transform="matrix(12,0,0,12,575,880.2)" />
<use xlink:href="#f1_23" transform="matrix(12,0,0,12,586,880.2)" />
<use xlink:href="#f1_2e" transform="matrix(12,0,0,12,595.2,880.2)" />
<use xlink:href="#f1_2b" transform="matrix(12,0,0,12,601,880.2)" />
<use xlink:href="#f1_2h" transform="matrix(12,0,0,12,610.5,880.2)" />
<use xlink:href="#f1_2c" transform="matrix(12,0,0,12,619.7,880.2)" />
<use xlink:href="#f1_2b" transform="matrix(12,0,0,12,634,880.2)" />
<use xlink:href="#f1_22" transform="matrix(12,0,0,12,643.5,880.2)" />
<use xlink:href="#f1_1x" transform="matrix(12,0,0,12,654.5,880.2)" />
<use xlink:href="#f1_2a" transform="matrix(12,0,0,12,662.9,880.2)" />
<use xlink:href="#f1_25" transform="matrix(12,0,0,12,672.1,880.2)" />
<use xlink:href="#f1_29" transform="matrix(12,0,0,12,676.8,880.2)" />
<use xlink:href="#f1_1x" transform="matrix(12,0,0,12,690.8,880.2)" />
<use xlink:href="#f1_28" transform="matrix(12,0,0,12,699.5,880.2)" />
<use xlink:href="#f1_2f" transform="matrix(12,0,0,12,704.3,880.2)" />
<use xlink:href="#f1_2g" transform="matrix(12,0,0,12,716.8,880.2)" />
<use xlink:href="#f1_24" transform="matrix(12,0,0,12,722.2,880.2)" />
<use xlink:href="#f1_1x" transform="matrix(12,0,0,12,731,880.2)" />
<use xlink:href="#f1_2g" transform="matrix(12,0,0,12,739.1,880.2)" />
<use xlink:href="#f1_2f" transform="matrix(12,0,0,12,750.1,880.2)" />
<use xlink:href="#f1_24" transform="matrix(12,0,0,12,757,880.2)" />
<use xlink:href="#f1_2b" transform="matrix(12,0,0,12,765.8,880.2)" />
<use xlink:href="#f1_2j" transform="matrix(12,0,0,12,775.4,880.2)" />
<use xlink:href="#f1_1y" transform="matrix(12,0,0,12,794,880.2)" />
<use xlink:href="#f1_25" transform="matrix(12,0,0,12,803.2,880.2)" />
<use xlink:href="#f1_28" transform="matrix(12,0,0,12,808,880.2)" />
<use xlink:href="#f1_1x" transform="matrix(12,0,0,12,812.7,880.2)" />
<use xlink:href="#f1_2g" transform="matrix(12,0,0,12,820.8,880.2)" />
<use xlink:href="#f1_21" transform="matrix(12,0,0,12,826.3,880.2)" />
<use xlink:href="#f1_2e" transform="matrix(12,0,0,12,834.3,880.2)" />
<use xlink:href="#f1_1x" transform="matrix(12,0,0,12,840.6,880.2)" />
<use xlink:href="#f1_28" transform="matrix(12,0,0,12,849,880.2)" />
<use xlink:href="#f1_2f" transform="matrix(12,0,0,12,110,901.5)" />
<use xlink:href="#f1_2l" transform="matrix(12,0,0,12,117.4,901.5)" />
<use xlink:href="#f1_29" transform="matrix(12,0,0,12,126.2,901.5)" />
<use xlink:href="#f1_29" transform="matrix(12,0,0,12,140.4,901.5)" />
<use xlink:href="#f1_21" transform="matrix(12,0,0,12,154.4,901.5)" />
<use xlink:href="#f1_2g" transform="matrix(12,0,0,12,162.5,901.5)" />
<use xlink:href="#f1_2e" transform="matrix(12,0,0,12,167.9,901.5)" />
<use xlink:href="#f1_2l" transform="matrix(12,0,0,12,174.5,901.5)" />
<use xlink:href="#f1_i" transform="matrix(12,0,0,12,182.9,901.5)" />
<use xlink:href="#f3_3d" transform="matrix(12,0,0,12,82.5,923.9)" />
<use xlink:href="#f0_1k" transform="matrix(12,0,0,12,110,923.9)" />
<use xlink:href="#f0_2e" transform="matrix(12,0,0,12,122.5,923.9)" />
<use xlink:href="#f0_25" transform="matrix(12,0,0,12,130.2,923.9)" />
<use xlink:href="#f0_2c" transform="matrix(12,0,0,12,135.3,923.9)" />
<use xlink:href="#f0_28" transform="matrix(12,0,0,12,145.6,923.9)" />
<use xlink:href="#f0_2b" transform="matrix(12,0,0,12,150.3,923.9)" />
<use xlink:href="#f0_1y" transform="matrix(12,0,0,12,159.5,923.9)" />
<use xlink:href="#f0_28" transform="matrix(12,0,0,12,170.1,923.9)" />
<use xlink:href="#f0_1x" transform="matrix(12,0,0,12,174.9,923.9)" />
<use xlink:href="#f0_2f" transform="matrix(12,0,0,12,184,923.9)" />
<use xlink:href="#f0_2g" transform="matrix(12,0,0,12,191,923.9)" />
<use xlink:href="#f0_25" transform="matrix(12,0,0,12,197.2,923.9)" />
<use xlink:href="#f0_1z" transform="matrix(12,0,0,12,202.3,923.9)" />
<use xlink:href="#f0_1x" transform="matrix(12,0,0,12,215.2,923.9)" />
<use xlink:href="#f0_2a" transform="matrix(12,0,0,12,224.3,923.9)" />
<use xlink:href="#f0_25" transform="matrix(12,0,0,12,234.6,923.9)" />
<use xlink:href="#f0_29" transform="matrix(12,0,0,12,239.7,923.9)" />
<use xlink:href="#f0_1x" transform="matrix(12,0,0,12,254.8,923.9)" />
<use xlink:href="#f0_28" transform="matrix(12,0,0,12,264.3,923.9)" />
<use xlink:href="#f0_2f" transform="matrix(12,0,0,12,269,923.9)" />
<use xlink:href="#f0_u" transform="matrix(12,0,0,12,276,923.9)" />
<use xlink:href="#f1_25" transform="matrix(12,0,0,12,287.6,923.9)" />
<use xlink:href="#f1_2g" transform="matrix(12,0,0,12,292,923.9)" />
<use xlink:href="#f1_25" transform="matrix(12,0,0,12,302.2,923.9)" />
<use xlink:href="#f1_2f" transform="matrix(12,0,0,12,307,923.9)" />
<use xlink:href="#f1_2g" transform="matrix(12,0,0,12,318.7,923.9)" />
<use xlink:href="#f1_24" transform="matrix(12,0,0,12,324.2,923.9)" />
<use xlink:href="#f1_21" transform="matrix(12,0,0,12,333,923.9)" />
<use xlink:href="#f1_22" transform="matrix(12,0,0,12,346.1,923.9)" />
<use xlink:href="#f1_25" transform="matrix(12,0,0,12,352,923.9)" />
<use xlink:href="#f1_2e" transform="matrix(12,0,0,12,356.4,923.9)" />
<use xlink:href="#f1_2f" transform="matrix(12,0,0,12,363,923.9)" />
<use xlink:href="#f1_2g" transform="matrix(12,0,0,12,370,923.9)" />
<use xlink:href="#f1_23" transform="matrix(12,0,0,12,380.2,923.9)" />
<use xlink:href="#f1_2e" transform="matrix(12,0,0,12,389.4,923.9)" />
<use xlink:href="#f1_2b" transform="matrix(12,0,0,12,395.2,923.9)" />
<use xlink:href="#f1_2h" transform="matrix(12,0,0,12,404.7,923.9)" />
<use xlink:href="#f1_2c" transform="matrix(12,0,0,12,413.9,923.9)" />
<use xlink:href="#f1_2b" transform="matrix(12,0,0,12,427.1,923.9)" />
<use xlink:href="#f1_22" transform="matrix(12,0,0,12,436.6,923.9)" />
<use xlink:href="#f1_1x" transform="matrix(12,0,0,12,446.9,923.9)" />
<use xlink:href="#f1_2a" transform="matrix(12,0,0,12,454.9,923.9)" />
<use xlink:href="#f1_25" transform="matrix(12,0,0,12,464.1,923.9)" />
<use xlink:href="#f1_29" transform="matrix(12,0,0,12,469.2,923.9)" />
<use xlink:href="#f1_1x" transform="matrix(12,0,0,12,483.5,923.9)" />
<use xlink:href="#f1_28" transform="matrix(12,0,0,12,491.9,923.9)" />
<use xlink:href="#f1_2f" transform="matrix(12,0,0,12,496.7,923.9)" />
<use xlink:href="#f1_2g" transform="matrix(12,0,0,12,508.4,923.9)" />
<use xlink:href="#f1_2b" transform="matrix(12,0,0,12,513.5,923.9)" />
<use xlink:href="#f1_2c" transform="matrix(12,0,0,12,527.5,923.9)" />
<use xlink:href="#f1_2b" transform="matrix(12,0,0,12,536.3,923.9)" />
<use xlink:href="#f1_2f" transform="matrix(12,0,0,12,545.8,923.9)" />
<use xlink:href="#f1_2f" transform="matrix(12,0,0,12,552.7,923.9)" />
<use xlink:href="#f1_21" transform="matrix(12,0,0,12,559.7,923.9)" />
<use xlink:href="#f1_2f" transform="matrix(12,0,0,12,567.8,923.9)" />
<use xlink:href="#f1_2f" transform="matrix(12,0,0,12,574.7,923.9)" />
<use xlink:href="#f0_n" transform="matrix(12,0,0,12,586.9,923.9)" />
<use xlink:href="#f0_23" transform="matrix(12,0,0,12,600.8,923.9)" />
<use xlink:href="#f0_21" transform="matrix(12,0,0,12,610,923.9)" />
<use xlink:href="#f0_2e" transform="matrix(12,0,0,12,618.4,923.9)" />
<use xlink:href="#f0_29" transform="matrix(12,0,0,12,626.1,923.9)" />
<use xlink:href="#f0_28" transform="matrix(12,0,0,12,646.3,923.9)" />
<use xlink:href="#f0_1x" transform="matrix(12,0,0,12,651.1,923.9)" />
<use xlink:href="#f0_2l" transform="matrix(12,0,0,12,660.3,923.9)" />
<use xlink:href="#f0_21" transform="matrix(12,0,0,12,669.4,923.9)" />
<use xlink:href="#f0_2e" transform="matrix(12,0,0,12,677.8,923.9)" />
<use xlink:href="#f0_2f" transform="matrix(12,0,0,12,685.9,923.9)" />
<use xlink:href="#f1_i" transform="matrix(12,0,0,12,692.9,923.9)" />
</g>
</g>
<image preserveAspectRatio="none" x="55" y="949" width="304" height="207" xlink:href="img/3.png" />
<g clip-path="url(#c0_52)">
<g fill="#000000" >
<use xlink:href="#f3_3d" transform="matrix(12,0,0,12,82.5,1175.1)" />
<use xlink:href="#f0_11" transform="matrix(12,0,0,12,110,1175.1)" />
<use xlink:href="#f0_1z" transform="matrix(12,0,0,12,123.3,1175.1)" />
<use xlink:href="#f0_2b" transform="matrix(12,0,0,12,131.3,1175.1)" />
<use xlink:href="#f0_21" transform="matrix(12,0,0,12,140.5,1175.1)" />
<use xlink:href="#f0_28" transform="matrix(12,0,0,12,148.5,1175.1)" />
<use xlink:href="#f0_2b" transform="matrix(12,0,0,12,153.3,1175.1)" />
<use xlink:href="#f0_29" transform="matrix(12,0,0,12,162.8,1175.1)" />
<use xlink:href="#f0_1x" transform="matrix(12,0,0,12,177.9,1175.1)" />
<use xlink:href="#f0_2g" transform="matrix(12,0,0,12,187,1175.1)" />
<use xlink:href="#f0_21" transform="matrix(12,0,0,12,193.2,1175.1)" />
<use xlink:href="#f0_1x" transform="matrix(12,0,0,12,208.3,1175.1)" />
<use xlink:href="#f0_2a" transform="matrix(12,0,0,12,217.5,1175.1)" />
<use xlink:href="#f0_25" transform="matrix(12,0,0,12,227.8,1175.1)" />
<use xlink:href="#f0_29" transform="matrix(12,0,0,12,232.9,1175.1)" />
<use xlink:href="#f0_1x" transform="matrix(12,0,0,12,247.9,1175.1)" />
<use xlink:href="#f0_28" transform="matrix(12,0,0,12,257.1,1175.1)" />
<use xlink:href="#f0_2f" transform="matrix(12,0,0,12,262.2,1175.1)" />
<use xlink:href="#f1_u" transform="matrix(12,0,0,12,269.2,1175.1)" />
<use xlink:href="#f1_1k" transform="matrix(12,0,0,12,280.6,1175.1)" />
<use xlink:href="#f1_24" transform="matrix(12,0,0,12,292,1175.1)" />
<use xlink:href="#f1_21" transform="matrix(12,0,0,12,300.8,1175.1)" />
<use xlink:href="#f1_2f" transform="matrix(12,0,0,12,315.1,1175.1)" />
<use xlink:href="#f1_2c" transform="matrix(12,0,0,12,322,1175.1)" />
<use xlink:href="#f1_1x" transform="matrix(12,0,0,12,331.2,1175.1)" />
<use xlink:href="#f1_1z" transform="matrix(12,0,0,12,339.6,1175.1)" />
<use xlink:href="#f1_21" transform="matrix(12,0,0,12,347.7,1175.1)" />
<use xlink:href="#f1_1y" transform="matrix(12,0,0,12,362.3,1175.1)" />
<use xlink:href="#f1_21" transform="matrix(12,0,0,12,371.1,1175.1)" />
<use xlink:href="#f1_2g" transform="matrix(12,0,0,12,379.2,1175.1)" />
<use xlink:href="#f1_2j" transform="matrix(12,0,0,12,384.7,1175.1)" />
<use xlink:href="#f1_21" transform="matrix(12,0,0,12,397.9,1175.1)" />
<use xlink:href="#f1_21" transform="matrix(12,0,0,12,405.9,1175.1)" />
<use xlink:href="#f1_2a" transform="matrix(12,0,0,12,414,1175.1)" />
<use xlink:href="#f1_2g" transform="matrix(12,0,0,12,429,1175.1)" />
<use xlink:href="#f1_24" transform="matrix(12,0,0,12,434.5,1175.1)" />
<use xlink:href="#f1_21" transform="matrix(12,0,0,12,443.3,1175.1)" />
<use xlink:href="#f1_1y" transform="matrix(12,0,0,12,457.9,1175.1)" />
<use xlink:href="#f1_2b" transform="matrix(12,0,0,12,466.7,1175.1)" />
<use xlink:href="#f1_20" transform="matrix(12,0,0,12,476.3,1175.1)" />
<use xlink:href="#f1_2l" transform="matrix(12,0,0,12,485.8,1175.1)" />
<use xlink:href="#f1_1z" transform="matrix(12,0,0,12,500.4,1175.1)" />
<use xlink:href="#f1_1x" transform="matrix(12,0,0,12,508.5,1175.1)" />
<use xlink:href="#f1_2i" transform="matrix(12,0,0,12,516.9,1175.1)" />
<use xlink:href="#f1_25" transform="matrix(12,0,0,12,526.1,1175.1)" />
<use xlink:href="#f1_2g" transform="matrix(12,0,0,12,530.5,1175.1)" />
<use xlink:href="#f1_2l" transform="matrix(12,0,0,12,536.3,1175.1)" />
<use xlink:href="#f1_1x" transform="matrix(12,0,0,12,551.3,1175.1)" />
<use xlink:href="#f1_2a" transform="matrix(12,0,0,12,559.8,1175.1)" />
<use xlink:href="#f1_20" transform="matrix(12,0,0,12,568.6,1175.1)" />
<use xlink:href="#f1_1x" transform="matrix(12,0,0,12,583.9,1175.1)" />
<use xlink:href="#f1_28" transform="matrix(12,0,0,12,592.3,1175.1)" />
<use xlink:href="#f1_25" transform="matrix(12,0,0,12,597.4,1175.1)" />
<use xlink:href="#f1_29" transform="matrix(12,0,0,12,602.6,1175.1)" />
<use xlink:href="#f1_21" transform="matrix(12,0,0,12,616.5,1175.1)" />
<use xlink:href="#f1_2a" transform="matrix(12,0,0,12,624.9,1175.1)" />
<use xlink:href="#f1_2g" transform="matrix(12,0,0,12,633.7,1175.1)" />
<use xlink:href="#f1_1x" transform="matrix(12,0,0,12,639.2,1175.1)" />
<use xlink:href="#f1_2e" transform="matrix(12,0,0,12,647.3,1175.1)" />
<use xlink:href="#f1_2l" transform="matrix(12,0,0,12,653.5,1175.1)" />
<use xlink:href="#f1_1z" transform="matrix(12,0,0,12,668.2,1175.1)" />
<use xlink:href="#f1_1x" transform="matrix(12,0,0,12,676.6,1175.1)" />
<use xlink:href="#f1_2a" transform="matrix(12,0,0,12,685,1175.1)" />
<use xlink:href="#f1_1x" transform="matrix(12,0,0,12,693.8,1175.1)" />
<use xlink:href="#f1_28" transform="matrix(12,0,0,12,702.2,1175.1)" />
<use xlink:href="#f1_25" transform="matrix(12,0,0,12,713.5,1175.1)" />
<use xlink:href="#f1_2f" transform="matrix(12,0,0,12,718.3,1175.1)" />
<use xlink:href="#f1_22" transform="matrix(12,0,0,12,731.9,1175.1)" />
<use xlink:href="#f1_25" transform="matrix(12,0,0,12,737.7,1175.1)" />
<use xlink:href="#f1_28" transform="matrix(12,0,0,12,742.8,1175.1)" />
<use xlink:href="#f1_28" transform="matrix(12,0,0,12,748,1175.1)" />
<use xlink:href="#f1_21" transform="matrix(12,0,0,12,752.7,1175.1)" />
<use xlink:href="#f1_20" transform="matrix(12,0,0,12,760.8,1175.1)" />
<use xlink:href="#f1_2j" transform="matrix(12,0,0,12,776.2,1175.1)" />
<use xlink:href="#f1_25" transform="matrix(12,0,0,12,789.7,1175.1)" />
<use xlink:href="#f1_2g" transform="matrix(12,0,0,12,794.1,1175.1)" />
<use xlink:href="#f1_24" transform="matrix(12,0,0,12,800,1175.1)" />
<use xlink:href="#f1_28" transform="matrix(12,0,0,12,815.4,1175.1)" />
<use xlink:href="#f1_2b" transform="matrix(12,0,0,12,819.8,1175.1)" />
<use xlink:href="#f1_2b" transform="matrix(12,0,0,12,829.3,1175.1)" />
<use xlink:href="#f1_2f" transform="matrix(12,0,0,12,838.8,1175.1)" />
<use xlink:href="#f1_21" transform="matrix(12,0,0,12,845.8,1175.1)" />
<use xlink:href="#f1_2c" transform="matrix(12,0,0,12,110,1196)" />
<use xlink:href="#f1_1x" transform="matrix(12,0,0,12,119.2,1196)" />
<use xlink:href="#f1_2e" transform="matrix(12,0,0,12,127.3,1196)" />
<use xlink:href="#f1_21" transform="matrix(12,0,0,12,133.5,1196)" />
<use xlink:href="#f1_2a" transform="matrix(12,0,0,12,141.6,1196)" />
<use xlink:href="#f1_1z" transform="matrix(12,0,0,12,150.4,1196)" />
<use xlink:href="#f1_24" transform="matrix(12,0,0,12,158.8,1196)" />
<use xlink:href="#f1_2l" transform="matrix(12,0,0,12,167.9,1196)" />
<use xlink:href="#f1_29" transform="matrix(12,0,0,12,177.1,1196)" />
<use xlink:href="#f1_1x" transform="matrix(12,0,0,12,191,1196)" />
<use xlink:href="#f1_1z" transform="matrix(12,0,0,12,203.8,1196)" />
<use xlink:href="#f1_21" transform="matrix(12,0,0,12,211.9,1196)" />
<use xlink:href="#f1_28" transform="matrix(12,0,0,12,220.3,1196)" />
<use xlink:href="#f1_28" transform="matrix(12,0,0,12,225.4,1196)" />
<use xlink:href="#f1_2f" transform="matrix(12,0,0,12,230.2,1196)" />
<use xlink:href="#f1_c" transform="matrix(12,0,0,12,241.9,1196)" />
<use xlink:href="#f1_29" transform="matrix(12,0,0,12,248.5,1196)" />
<use xlink:href="#f1_21" transform="matrix(12,0,0,12,262.5,1196)" />
<use xlink:href="#f1_2f" transform="matrix(12,0,0,12,270.5,1196)" />
<use xlink:href="#f1_21" transform="matrix(12,0,0,12,277.5,1196)" />
<use xlink:href="#f1_2a" transform="matrix(12,0,0,12,285.9,1196)" />
<use xlink:href="#f1_1z" transform="matrix(12,0,0,12,294.7,1196)" />
<use xlink:href="#f1_24" transform="matrix(12,0,0,12,303.1,1196)" />
<use xlink:href="#f1_2l" transform="matrix(12,0,0,12,312.3,1196)" />
<use xlink:href="#f1_29" transform="matrix(12,0,0,12,321.5,1196)" />
<use xlink:href="#f1_1x" transform="matrix(12,0,0,12,335.4,1196)" />
<use xlink:href="#f1_1z" transform="matrix(12,0,0,12,348.2,1196)" />
<use xlink:href="#f1_21" transform="matrix(12,0,0,12,356.3,1196)" />
<use xlink:href="#f1_28" transform="matrix(12,0,0,12,364.7,1196)" />
<use xlink:href="#f1_28" transform="matrix(12,0,0,12,369.8,1196)" />
<use xlink:href="#f1_2f" transform="matrix(12,0,0,12,374.6,1196)" />
<use xlink:href="#f1_d" transform="matrix(12,0,0,12,381.6,1196)" />
<use xlink:href="#f1_2b" transform="matrix(12,0,0,12,392.5,1196)" />
<use xlink:href="#f1_2e" transform="matrix(12,0,0,12,402,1196)" />
<use xlink:href="#f1_25" transform="matrix(12,0,0,12,408.2,1196)" />
<use xlink:href="#f1_23" transform="matrix(12,0,0,12,412.6,1196)" />
<use xlink:href="#f1_25" transform="matrix(12,0,0,12,422.2,1196)" />
<use xlink:href="#f1_2a" transform="matrix(12,0,0,12,426.9,1196)" />
<use xlink:href="#f1_1x" transform="matrix(12,0,0,12,436.1,1196)" />
<use xlink:href="#f1_2g" transform="matrix(12,0,0,12,444.2,1196)" />
<use xlink:href="#f1_21" transform="matrix(12,0,0,12,449.6,1196)" />
<use xlink:href="#f1_20" transform="matrix(12,0,0,12,457.7,1196)" />
<use xlink:href="#f1_22" transform="matrix(12,0,0,12,472,1196)" />
<use xlink:href="#f1_2e" transform="matrix(12,0,0,12,477.5,1196)" />
<use xlink:href="#f1_2b" transform="matrix(12,0,0,12,483.7,1196)" />
<use xlink:href="#f1_29" transform="matrix(12,0,0,12,493.2,1196)" />
<use xlink:href="#f1_29" transform="matrix(12,0,0,12,511.9,1196)" />
<use xlink:href="#f1_21" transform="matrix(12,0,0,12,525.5,1196)" />
<use xlink:href="#f1_2f" transform="matrix(12,0,0,12,533.9,1196)" />
<use xlink:href="#f1_2b" transform="matrix(12,0,0,12,540.9,1196)" />
<use xlink:href="#f1_20" transform="matrix(12,0,0,12,550.4,1196)" />
<use xlink:href="#f1_21" transform="matrix(12,0,0,12,559.5,1196)" />
<use xlink:href="#f1_2e" transform="matrix(12,0,0,12,567.6,1196)" />
<use xlink:href="#f1_29" transform="matrix(12,0,0,12,574.2,1196)" />
<use xlink:href="#f1_i" transform="matrix(12,0,0,12,587.7,1196)" />
</g>
</g>
<g fill="#000000" >
<use xlink:href="#f4_l" transform="matrix(8,0,0,8,785.7,1264.1)" />
<use xlink:href="#f4_m" transform="matrix(8,0,0,8,792.5,1264.1)" />
</g>
<defs>
<path d="M498,506c0,0,115,0,164,47c0,0,48,48,48,166c0,0,0,112,-46,156c0,0,-46,43,-169,43H390V506ZM793,0L514,423H390V74L518,54V0H36V54L154,74V926L26,945v55H504c0,0,221,0,330,-68c0,0,109,-68,109,-212c0,0,0,-215,-201,-276L1009,74L1117,54V0Z" 
id="f0_1i"
transform="scale(0.001,-0.001)" />

<path d="M434,423c0,0,0,101,-7,142c0,0,-6,40,-22,60c0,0,-16,19,-45,19c0,0,-44,0,-66,-48c0,0,-22,-49,-22,-173ZM389,-14c0,0,-172,0,-254,89c0,0,-83,90,-83,279c0,0,0,184,79,274c0,0,79,91,238,91c0,0,142,0,206,-76c0,0,64,-76,64,-237V345H271V333c0,0,0,-111,18,-158c0,0,18,-47,58,-72c0,0,40,-25,110,-25c0,0,66,0,166,22V42C623,42,582,18,517,1c0,0,-66,-15,-128,-15Z" 
id="f0_21"
transform="scale(0.001,-0.001)" />

<path d="M438,65c0,0,131,0,131,293c0,0,0,279,-130,279c0,0,-69,0,-127,-29V80c0,0,60,-15,126,-15ZM20,-325v50l76,18V634L19,652v49H304l1,-36c0,0,80,55,194,55c0,0,146,0,218,-86c0,0,71,-86,71,-271c0,0,0,-183,-83,-280c0,0,-83,-97,-238,-97c0,0,-79,0,-160,19c0,0,5,-48,5,-109V-257l103,-18v-50Z" 
id="f0_2c"
transform="scale(0.001,-0.001)" />

<path d="M41,0V49l91,18V634L41,652v49H336l8,-145c0,0,80,89,144,128c0,0,64,40,117,40h40V468H604l-45,94c0,0,-47,0,-106,-21c0,0,-60,-20,-105,-48V67L460,49V0Z" 
id="f0_2e"
transform="scale(0.001,-0.001)" />

<path d="M379,60c0,0,59,0,84,64c0,0,24,65,24,231c0,0,0,164,-24,227c0,0,-24,63,-84,63c0,0,-57,0,-80,-60c0,0,-22,-61,-22,-230c0,0,0,-173,23,-234c0,0,22,-61,79,-61Zm-2,-74c0,0,-161,0,-240,91c0,0,-79,91,-79,277c0,0,0,186,80,276c0,0,81,90,245,90c0,0,167,0,245,-93c0,0,78,-93,78,-273c0,0,0,-188,-81,-278c0,0,-81,-90,-248,-90Z" 
id="f0_2b"
transform="scale(0.001,-0.001)" />

<path d="M416,68c0,0,60,0,124,32V628c0,0,-58,15,-118,15c0,0,-67,0,-104,-73c0,0,-38,-73,-38,-216c0,0,0,-139,36,-212c0,0,35,-74,100,-74ZM369,-14c0,0,-155,0,-231,88c0,0,-76,90,-76,274c0,0,0,182,82,277c0,0,81,95,236,95c0,0,82,0,165,-20c0,0,-5,24,-5,115V992l-72,18v50H756V67L833,49V0H562L547,40C547,40,505,13,483,4c0,0,-23,-7,-51,-12c0,0,-28,-6,-63,-6Z" 
id="f0_20"
transform="scale(0.001,-0.001)" />

<path d="M287,-18c0,0,-194,0,-194,206V634L23,652v49H309V217c0,0,0,-63,26,-98c0,0,27,-35,76,-35c0,0,57,0,113,25V634l-64,18v49H740V67L809,49V0H536L526,61L475,35c0,0,-104,-53,-188,-53Z" 
id="f0_2h"
transform="scale(0.001,-0.001)" />

<path d="M425,-14c0,0,-187,0,-280,90c0,0,-93,90,-93,276c0,0,0,115,42,198c0,0,43,82,121,126c0,0,78,44,182,44c0,0,104,0,227,-26V486H571L539,609c0,0,-25,19,-50,26c0,0,-24,7,-65,7c0,0,-44,0,-79,-35c0,0,-36,-35,-56,-98c0,0,-20,-64,-20,-153c0,0,0,-150,47,-214c0,0,47,-64,148,-64c0,0,103,0,176,21V42C640,42,606,15,547,0c0,0,-59,-14,-122,-14Z" 
id="f0_1z"
transform="scale(0.001,-0.001)" />

<path d="M327,-14c0,0,-101,0,-156,45c0,0,-55,45,-55,131V624H25v48l108,29l87,159H332V701H480V624H332V176c0,0,0,-49,20,-73c0,0,20,-25,53,-25c0,0,40,0,97,12V26c0,0,-22,-15,-76,-27c0,0,-55,-13,-99,-13Z" 
id="f0_2g"
transform="scale(0.001,-0.001)" />

<path d="M34,0V49l76,18V634L38,652v49H325V67L402,49V0ZM217,831c0,0,-48,0,-81,33c0,0,-34,33,-34,82c0,0,0,48,34,81c0,0,34,33,81,33c0,0,48,0,81,-33c0,0,33,-33,33,-81c0,0,0,-47,-33,-81c0,0,-32,-34,-81,-34Z" 
id="f0_25"
transform="scale(0.001,-0.001)" />

<path d="M41,0V49l69,18V634L41,652v49H313l11,-61l50,26c0,0,105,54,188,54c0,0,194,0,194,-207V67L827,49V0H478V49l63,18V484c0,0,0,63,-27,98c0,0,-26,35,-75,35c0,0,-57,0,-114,-25V67L389,49V0Z" 
id="f0_2a"
transform="scale(0.001,-0.001)" />

<path d="M248,-20c0,0,-52,0,-87,34c0,0,-36,36,-36,88c0,0,0,52,36,88c0,0,35,36,87,36c0,0,52,0,88,-36c0,0,36,-36,36,-88c0,0,0,-51,-36,-87c0,0,-35,-35,-88,-35Zm0,488c0,0,-52,0,-87,36c0,0,-36,36,-36,88c0,0,0,52,35,88c0,0,35,36,88,36c0,0,53,0,89,-36c0,0,35,-37,35,-88c0,0,0,-51,-36,-87c0,0,-35,-37,-88,-37Z" 
id="f0_u"
transform="scale(0.001,-0.001)" />

<path d="M278,-14c0,0,-52,0,-115,11c0,0,-63,10,-99,23V193H98L134,95c0,0,56,-50,146,-50c0,0,144,0,144,123c0,0,0,91,-114,130l-66,21c0,0,-75,25,-110,50c0,0,-34,26,-53,63c0,0,-18,36,-18,89c0,0,0,92,63,145c0,0,63,54,170,54c0,0,77,0,193,-23V544H454l-32,81c0,0,-39,35,-124,35c0,0,-61,0,-92,-30c0,0,-32,-30,-32,-80c0,0,0,-43,29,-72c0,0,28,-29,86,-48c0,0,110,-38,144,-55c0,0,33,-17,57,-42c0,0,23,-25,36,-57c0,0,13,-32,13,-79c0,0,0,-104,-66,-158c0,0,-66,-53,-195,-53Z" 
id="f1_2f"
transform="scale(0.001,-0.001)" />

<path d="M495,413c0,0,0,133,-34,190c0,0,-34,57,-105,57c0,0,-78,0,-119,-63c0,0,-42,-62,-42,-184ZM374,-14c0,0,-163,0,-239,87c0,0,-75,88,-75,283c0,0,0,183,77,273c0,0,76,91,219,91c0,0,269,0,269,-306V353H194V340c0,0,0,-103,23,-160c0,0,22,-57,70,-87c0,0,47,-29,124,-29c0,0,40,0,96,6c0,0,55,7,91,15V43C598,43,562,20,500,3c0,0,-61,-17,-126,-17Z" 
id="f1_21"
transform="scale(0.001,-0.001)" />

<path d="M13,0V34L95,46L325,350L122,649L40,668v33H357V668L264,648L399,446L554,649l-96,19v33H710V668L630,652L433,397L663,50L745,34V0H427V34l94,17L359,299L169,50L266,34V0Z" 
id="f1_2k"
transform="scale(0.001,-0.001)" />

<path d="M289,-14c0,0,-179,0,-179,205V649L20,668v33H233V200c0,0,0,-128,120,-128c0,0,92,0,173,23V649L420,668v33H649V52L738,33V0H533l-6,57C527,57,474,28,405,7c0,0,-69,-21,-116,-21Z" 
id="f1_2h"
transform="scale(0.001,-0.001)" />

<path d="M284,67c0,0,51,0,88,12c0,0,37,12,74,30V358l-98,-3c0,0,-100,-4,-135,-39c0,0,-35,-35,-35,-117c0,0,0,-132,106,-132ZM233,-14c0,0,-179,0,-179,208c0,0,0,70,27,116c0,0,27,46,87,70c0,0,60,24,173,27l105,3V519c0,0,0,72,-26,107c0,0,-27,34,-82,34c0,0,-75,0,-137,-35L176,538H134V691c0,0,121,26,213,26c0,0,115,0,169,-47c0,0,54,-47,54,-144V52L657,33V0H465L451,70c0,0,-85,-84,-218,-84Z" 
id="f1_1x"
transform="scale(0.001,-0.001)" />

<path d="M31,0V33L150,52v956L31,1026v34H274V52L394,33V0Z" 
id="f1_28"
transform="scale(0.001,-0.001)" />

<path d="M148,-329c0,0,-58,0,-114,13v151H69l24,-71c0,0,23,-17,64,-17c0,0,39,0,72,22c0,0,33,23,60,67c0,0,27,44,68,157L90,649L19,668v33H344V668L233,648L423,158L606,649L497,668v33H758V668L685,652L411,-43c0,0,-48,-124,-84,-177c0,0,-36,-54,-79,-82c0,0,-44,-27,-100,-27Z" 
id="f1_2l"
transform="scale(0.001,-0.001)" />

<path d="M377,45c0,0,99,0,147,73c0,0,47,73,47,237c0,0,0,161,-47,233c0,0,-47,72,-147,72c0,0,-97,0,-141,-69c0,0,-44,-69,-44,-236c0,0,0,-169,45,-240c0,0,44,-70,140,-70Zm0,-59c0,0,-158,0,-238,94c0,0,-81,95,-81,274c0,0,0,178,81,272c0,0,80,94,244,94c0,0,160,0,241,-92c0,0,82,-92,82,-274c0,0,0,-368,-329,-368Z" 
id="f1_2b"
transform="scale(0.001,-0.001)" />

<path d="M439,0V33l93,19V500c0,0,0,62,-30,97c0,0,-31,36,-94,36c0,0,-67,0,-165,-22V52L338,33V0H35V33l84,19V649L35,668v33H235l7,-57c0,0,57,33,122,54c0,0,65,22,108,22c0,0,91,0,137,-53c0,0,47,-53,47,-154V52L741,33V0Z" 
id="f1_2a"
transform="scale(0.001,-0.001)" />

<path d="M191,-20c0,0,-39,0,-65,25c0,0,-25,27,-25,64c0,0,0,38,26,64c0,0,26,26,64,26c0,0,38,0,64,-26c0,0,26,-26,26,-64c0,0,0,-37,-25,-64c0,0,-26,-25,-65,-25Z" 
id="f1_i"
transform="scale(0.001,-0.001)" />

<path d="M235,0V40L394,60V936H356c0,0,-189,0,-258,-15L78,766H28v234H908V766H857L837,921c0,0,-22,5,-98,9c0,0,-75,4,-165,4H538V60L697,40V0Z" 
id="f1_1k"
transform="scale(0.001,-0.001)" />

<path d="M442,0V33l93,19V504c0,0,0,129,-124,129c0,0,-70,0,-168,-22V52L338,33V0H31V33l88,19v956L15,1026v34H243V756c0,0,0,-77,-5,-112c0,0,54,31,122,53c0,0,68,23,115,23c0,0,91,0,137,-53c0,0,47,-53,47,-154V52L744,33V0Z" 
id="f1_24"
transform="scale(0.001,-0.001)" />

<path d="M31,0V33l88,19V649L31,668v33H235l7,-87c0,0,44,37,121,71c0,0,76,35,121,35h11V530H463l-43,82c0,0,-37,0,-88,-10c0,0,-52,-10,-89,-26V52L363,33V0Z" 
id="f1_2e"
transform="scale(0.001,-0.001)" />

<path d="M431,0V33L535,52V499c0,0,0,62,-32,96c0,0,-32,33,-95,33c0,0,-66,0,-163,-22V52L350,33V0H32V33l89,19V649L32,668v33H237l6,-57c0,0,56,32,119,54c0,0,62,22,110,22c0,0,52,0,95,-20c0,0,44,-19,66,-62c0,0,57,32,134,57c0,0,77,25,128,25c0,0,179,0,179,-207V52l90,-19V0H846V33L950,52V499c0,0,0,129,-119,129c0,0,-19,0,-45,-3c0,0,-26,-3,-52,-7c0,0,-25,-4,-49,-8c0,0,-23,-5,-39,-8c0,0,13,-41,13,-89V52L764,33V0Z" 
id="f1_29"
transform="scale(0.001,-0.001)" />

<path d="M382,45c0,0,188,0,188,314c0,0,0,143,-47,213c0,0,-46,69,-141,69c0,0,-87,0,-146,-24V58c0,0,67,-13,146,-13ZM25,-325v35l88,18V649L34,668v33H231l1,-41c0,0,31,27,84,43c0,0,53,17,107,17c0,0,134,0,208,-94c0,0,73,-93,73,-267c0,0,0,-178,-80,-276c0,0,-80,-97,-232,-97c0,0,-84,0,-160,16c0,0,4,-53,4,-84V-272l123,-18v-35Z" 
id="f1_2c"
transform="scale(0.001,-0.001)" />

<path d="M383,64c0,0,85,0,152,28V645c0,0,-67,13,-152,13c0,0,-194,0,-194,-314c0,0,0,-141,48,-211c0,0,48,-69,146,-69ZM342,-14c0,0,-287,0,-287,358c0,0,0,184,82,280c0,0,81,96,239,96c0,0,81,0,163,-18c0,0,-4,25,-4,124v182l-118,18v34H659V52L745,33V0H548l-9,52c0,0,-84,-66,-197,-66Z" 
id="f1_20"
transform="scale(0.001,-0.001)" />

<path d="M32,0V33L151,52V649L52,668v33H275V52L395,33V0ZM201,850c0,0,-32,0,-56,24c0,0,-24,24,-24,56c0,0,0,34,24,58c0,0,24,24,56,24c0,0,34,0,58,-24c0,0,24,-24,24,-58c0,0,0,-32,-24,-56c0,0,-24,-24,-58,-24Z" 
id="f1_25"
transform="scale(0.001,-0.001)" />

<path d="M249,-14c0,0,-71,0,-107,42c0,0,-35,42,-35,119V639H15v33l93,29l76,159h47V701H391V639H231V161c0,0,0,-48,22,-73c0,0,22,-24,57,-24c0,0,44,0,106,12V26C416,26,389,8,340,-2c0,0,-49,-12,-91,-12Z" 
id="f1_2g"
transform="scale(0.001,-0.001)" />

<path d="M54,0V40L172,60V941L44,960v40H794V760H745L721,922c0,0,-83,11,-241,11H316V516H611l23,120h46V328H634L611,449H316V60L483,40V0Z" 
id="f1_16"
transform="scale(0.001,-0.001)" />

<path d="M41,0V34L426,641H261c0,0,-42,0,-80,-7c0,0,-39,-7,-54,-19L104,515H69V701H586V665L201,60H407c0,0,42,0,89,10c0,0,47,10,66,25l39,147h35L617,0Z" 
id="f1_2m"
transform="scale(0.001,-0.001)" />

<path d="M529,65c0,0,183,0,270,108c0,0,87,108,87,334c0,0,0,210,-113,318c0,0,-113,108,-322,108H316V71c0,0,90,-6,213,-6Zm0,-67L172,0H44V40L172,60V941L44,960v40H498c0,0,277,0,411,-123c0,0,133,-124,133,-371c0,0,0,-251,-129,-380C913,126,785,-2,529,-2Z" 
id="f1_14"
transform="scale(0.001,-0.001)" />

<path d="M360,-14L72,649L0,668v33H327V668L216,648L420,164L615,649L504,668v33H764V668L697,652L416,-14Z" 
id="f1_2i"
transform="scale(0.001,-0.001)" />

<path d="M399,-14c0,0,-341,0,-341,370c0,0,0,175,87,269c0,0,87,95,249,95c0,0,101,0,220,-23V501H573L541,625c0,0,-62,35,-149,35c0,0,-200,0,-200,-304c0,0,0,-158,61,-225c0,0,61,-67,189,-67c0,0,109,0,189,24V43C631,43,595,16,530,1c0,0,-64,-15,-131,-15Z" 
id="f1_1z"
transform="scale(0.001,-0.001)" />

<path d="M608,-14c0,0,-251,0,-392,133C216,119,75,252,75,488c0,0,0,257,134,390c0,0,135,133,398,133c0,0,174,0,361,-50l4,-240H905L884,866c0,0,-98,67,-229,67c0,0,-173,0,-253,-108c0,0,-80,-108,-80,-334c0,0,0,-209,84,-319c0,0,83,-109,243,-109c0,0,84,0,147,22c0,0,63,22,99,53l24,164h68L982,48C982,48,915,22,808,4C808,4,700,-14,608,-14Z" 
id="f0_13"
transform="scale(0.001,-0.001)" />

<path d="M159,-329c0,0,-61,0,-123,14v180H81l32,-94c0,0,21,-17,55,-17c0,0,28,0,50,13c0,0,21,14,40,39c0,0,20,25,37,62c0,0,17,37,50,110L64,634L15,652v49H374V652L290,632L455,244L602,634l-82,18v49H749V652L698,637L421,-44c0,0,-47,-121,-83,-176c0,0,-36,-55,-80,-82c0,0,-43,-27,-99,-27Z" 
id="f0_2l"
transform="scale(0.001,-0.001)" />

<path d="M41,0V49l69,18V634L41,652v49H313l11,-61l50,26c0,0,105,54,188,54c0,0,125,0,167,-91c0,0,153,91,258,91c0,0,189,0,189,-207V67l71,-17V0H898V50l63,17V484c0,0,0,63,-24,98c0,0,-25,35,-74,35c0,0,-55,0,-119,-31c0,0,7,-32,7,-73V67L821,50V0H473V50l63,17V484c0,0,0,63,-25,98c0,0,-24,35,-73,35c0,0,-49,0,-113,-29V67L389,49V0Z" 
id="f0_29"
transform="scale(0.001,-0.001)" />

<path d="M41,0V49l69,18V992l-72,18v50H325V756c0,0,0,-49,-4,-116l51,26c0,0,106,54,190,54c0,0,194,0,194,-207V67L827,49V0H478V49l63,18V484c0,0,0,63,-27,98c0,0,-26,35,-75,35c0,0,-57,0,-114,-25V67L389,49V0Z" 
id="f0_24"
transform="scale(0.001,-0.001)" />

<path d="M276,-14c0,0,-57,0,-125,13C151,-1,83,10,48,23V214H97l28,-98c0,0,26,-26,69,-44c0,0,42,-17,86,-17c0,0,65,0,97,28c0,0,32,28,32,71c0,0,0,41,-31,65c0,0,-30,25,-133,57c0,0,-108,34,-154,92c0,0,-45,58,-45,143c0,0,0,95,71,152c0,0,71,57,183,57c0,0,77,0,207,-22V518H457l-24,82c0,0,-21,22,-60,35c0,0,-40,14,-75,14c0,0,-53,0,-79,-22c0,0,-26,-22,-26,-59c0,0,0,-40,32,-65c0,0,32,-26,132,-55c0,0,109,-34,155,-89c0,0,45,-55,45,-137c0,0,0,-117,-72,-177c0,0,-72,-59,-209,-59Z" 
id="f0_2f"
transform="scale(0.001,-0.001)" />

<path d="M345,75c0,0,50,0,110,26V351l-63,-2c0,0,-72,-3,-100,-38c0,0,-28,-35,-28,-113c0,0,0,-63,22,-93c0,0,23,-30,59,-30ZM266,-14c0,0,-217,0,-217,208c0,0,0,79,32,126c0,0,32,48,93,71c0,0,60,22,190,25l91,2V521c0,0,0,126,-104,126c0,0,-62,0,-140,-39L183,521H134V691c0,0,112,17,165,21c0,0,53,5,108,5c0,0,264,0,264,-194V67L741,49V0H483L466,54C466,54,408,14,361,0c0,0,-47,-14,-95,-14Z" 
id="f0_1x"
transform="scale(0.001,-0.001)" />

<path d="M457,460c0,0,289,0,289,266c0,0,0,106,-54,157c0,0,-54,50,-163,50H419L335,460ZM-7,0L0,40L120,60L276,941L151,960l7,40H559c0,0,161,0,248,-67c0,0,87,-66,87,-198c0,0,0,-167,-109,-255c0,0,-109,-88,-312,-88H323L264,60L427,40L420,0Z" 
id="f2_1g"
transform="scale(0.001,-0.001)" />

<path d="M81,0L258,1008l-96,18l6,34H391L214,52L331,33L325,0Z" 
id="f2_28"
transform="scale(0.001,-0.001)" />

<path d="M188,355c0,0,148,11,236,69c0,0,89,58,89,143c0,0,0,41,-23,68c0,0,-22,27,-66,27c0,0,-52,0,-101,-43c0,0,-49,-42,-85,-114c0,0,-36,-71,-50,-150ZM298,-14c0,0,-120,0,-186,67c0,0,-65,67,-65,193c0,0,0,125,53,232c0,0,52,108,145,175c0,0,94,67,196,67c0,0,92,0,147,-42c0,0,56,-43,56,-111c0,0,0,-102,-126,-173c0,0,-125,-72,-336,-86l-3,-54c0,0,0,-95,40,-143c0,0,40,-47,118,-47c0,0,67,0,124,22c0,0,57,23,106,52l22,-32c0,0,-69,-58,-146,-89c0,0,-76,-31,-145,-31Z" 
id="f2_21"
transform="scale(0.001,-0.001)" />

<path d="M228,-17c0,0,-76,0,-114,40c0,0,-38,41,-38,117c0,0,0,11,4,39c0,0,4,29,80,470L78,667l6,34H293L217,268c0,0,-17,-94,-17,-124c0,0,0,-34,18,-55c0,0,18,-21,57,-21c0,0,55,0,120,47c0,0,65,47,107,115l83,471H709L595,52L683,33L677,0H469l20,144C489,144,427,64,360,23c0,0,-67,-40,-132,-40Z" 
id="f2_2h"
transform="scale(0.001,-0.001)" />

<path d="M62,0L176,649L88,668l6,33H301L278,543c0,0,55,84,124,130c0,0,69,47,138,47c0,0,37,0,59,-6L566,530H534l-28,95c0,0,-60,0,-124,-46c0,0,-63,-45,-116,-120L186,0Z" 
id="f2_2e"
transform="scale(0.001,-0.001)" />

<path d="M325,47c0,0,68,0,130,54c0,0,61,55,97,149c0,0,36,94,36,202c0,0,0,103,-39,156c0,0,-39,53,-113,53c0,0,-67,0,-128,-54c0,0,-61,-55,-96,-149c0,0,-35,-94,-35,-204c0,0,0,-101,39,-154c0,0,39,-53,109,-53Zm-6,-61c0,0,-124,0,-199,79c0,0,-74,79,-74,214c0,0,0,120,51,222c0,0,51,102,143,160c0,0,91,59,205,59c0,0,124,0,199,-80c0,0,74,-79,74,-214c0,0,0,-120,-51,-222C667,204,615,102,524,43c0,0,-91,-57,-205,-57Z" 
id="f2_2b"
transform="scale(0.001,-0.001)" />

<path d="M305,45c0,0,76,0,141,56c0,0,64,56,101,151c0,0,37,95,37,200c0,0,0,83,-35,129c0,0,-34,46,-92,46c0,0,-44,0,-96,-29c0,0,-51,-29,-97,-75L185,81c0,0,43,-36,120,-36ZM295,-14c0,0,-65,0,-128,16C167,2,104,19,57,48l171,960l-100,18l6,34H358L303,731c0,0,-13,-85,-29,-144c0,0,59,61,122,97c0,0,64,36,116,36c0,0,94,0,150,-67c0,0,56,-67,56,-182c0,0,0,-129,-56,-242C662,229,606,115,509,50c0,0,-98,-64,-214,-64Z" 
id="f2_1y"
transform="scale(0.001,-0.001)" />

<path d="M301,78c0,0,85,0,185,104l81,442c0,0,-29,20,-55,28c0,0,-25,8,-62,8c0,0,-75,0,-137,-56c0,0,-62,-56,-98,-152c0,0,-36,-95,-36,-199c0,0,0,-79,33,-127c0,0,33,-48,89,-48ZM245,-14c0,0,-90,0,-145,66c0,0,-54,66,-54,182c0,0,0,131,57,244c0,0,57,114,152,178c0,0,96,64,208,64c0,0,90,0,170,-33l33,26h40L589,52L673,33L667,0H454l22,117C476,117,350,-14,245,-14Z" 
id="f2_1x"
transform="scale(0.001,-0.001)" />

<path d="M298,-14c0,0,-120,0,-185,69c0,0,-66,69,-66,191c0,0,0,130,52,237c0,0,52,107,149,172c0,0,97,65,203,65c0,0,53,0,112,-12c0,0,60,-11,99,-27L628,485H587L575,615c0,0,-47,47,-125,47c0,0,-72,0,-134,-53c0,0,-62,-53,-100,-147c0,0,-37,-95,-37,-208c0,0,0,-190,154,-190c0,0,106,0,222,74l22,-32c0,0,-60,-56,-135,-88c0,0,-76,-32,-144,-32Z" 
id="f2_1z"
transform="scale(0.001,-0.001)" />

<path d="M55,0L232,1008l-88,18l6,34H365L286,615L274,558c0,0,59,79,128,120c0,0,68,42,134,42c0,0,75,0,113,-41c0,0,38,-41,38,-117c0,0,0,-10,-3,-32c0,0,-3,-21,-81,-478L700,34L695,0H470l76,434c0,0,17,94,17,123c0,0,0,34,-18,55c0,0,-18,21,-56,21c0,0,-56,0,-121,-47c0,0,-65,-47,-107,-114L178,0Z" 
id="f2_24"
transform="scale(0.001,-0.001)" />

<path d="M85,0L199,649l-96,19l6,33H332L218,52L335,33L329,0ZM297,849c0,0,-33,0,-57,24c0,0,-24,24,-24,57c0,0,0,33,24,57c0,0,24,24,57,24c0,0,33,0,57,-24c0,0,24,-24,24,-57c0,0,0,-33,-24,-57c0,0,-24,-24,-57,-24Z" 
id="f2_25"
transform="scale(0.001,-0.001)" />

<path d="M460,-325c0,0,-148,79,-231,172c0,0,-84,93,-123,217c0,0,-39,126,-39,304c0,0,0,178,39,303c0,0,39,125,122,217c0,0,82,93,232,172V997c0,0,-91,-52,-145,-134c0,0,-54,-81,-79,-190c0,0,-25,-109,-25,-305c0,0,0,-194,26,-309c0,0,26,-114,82,-193c0,0,56,-79,141,-128v-63Z" 
id="f1_c"
transform="scale(0.001,-0.001)" />

<path d="M57,302V417H454V302Z" 
id="f1_h"
transform="scale(0.001,-0.001)" />

<path d="M359,-270c0,0,124,0,192,46c0,0,67,47,67,129c0,0,0,43,-26,67c0,0,-26,24,-79,24H242c0,0,-32,-27,-51,-69c0,0,-20,-41,-20,-77c0,0,0,-64,46,-92c0,0,46,-28,142,-28Zm11,561c0,0,81,0,115,47c0,0,34,47,34,141c0,0,0,100,-35,142c0,0,-35,42,-113,42c0,0,-78,0,-114,-43c0,0,-37,-42,-37,-141c0,0,0,-98,36,-143c0,0,36,-45,114,-45ZM359,-329c0,0,-143,0,-218,44c0,0,-75,43,-75,125c0,0,0,39,27,78c0,0,26,38,98,89c0,0,-43,14,-72,48c0,0,-29,35,-29,74L208,262c0,0,-118,55,-118,217c0,0,0,115,73,178c0,0,73,63,211,63c0,0,28,0,71,-6c0,0,44,-6,67,-13l165,83l26,-32L599,644c0,0,50,-56,50,-165c0,0,0,-120,-72,-182c0,0,-73,-62,-208,-62c0,0,-62,0,-114,11L208,148c0,0,2,-13,29,-24c0,0,27,-12,67,-12H512c0,0,113,0,168,-49c0,0,55,-49,55,-134c0,0,0,-79,-44,-137c0,0,-43,-58,-128,-90c0,0,-84,-31,-204,-31Z" 
id="f1_23"
transform="scale(0.001,-0.001)" />

<path d="M376,50c0,0,103,0,149,80c0,0,46,81,46,240c0,0,0,137,-47,204c0,0,-48,67,-148,67c0,0,-44,0,-87,-7c0,0,-44,-8,-63,-17V62c0,0,63,-12,150,-12Zm3,-64c0,0,-64,0,-141,14c0,0,-78,14,-136,37v971L0,1026v34H226V809c0,0,0,-40,-4,-148c0,0,74,59,188,59c0,0,143,0,219,-87c0,0,77,-87,77,-263c0,0,0,-189,-84,-287c0,0,-84,-97,-243,-97Z" 
id="f1_1y"
transform="scale(0.001,-0.001)" />

<path d="M49,-325v63c0,0,85,49,140,128c0,0,56,79,83,194c0,0,26,115,26,308c0,0,0,196,-25,305c0,0,-25,109,-79,190c0,0,-54,82,-145,134v63c0,0,149,-80,232,-172c0,0,83,-92,122,-217c0,0,39,-125,39,-303c0,0,0,-177,-39,-303c0,0,-39,-125,-122,-217c0,0,-83,-93,-232,-173Z" 
id="f1_d"
transform="scale(0.001,-0.001)" />

<path d="M58,-234v58c0,0,131,42,131,125c0,0,0,15,-11,27c0,0,-11,12,-38,25C140,1,89,27,89,75c0,0,0,40,25,61c0,0,26,21,65,21c0,0,48,0,77,-34c0,0,30,-34,30,-86c0,0,0,-101,-60,-170c0,0,-59,-69,-168,-101Z" 
id="f1_g"
transform="scale(0.001,-0.001)" />

<path d="M521,-14c0,0,-205,0,-320,107C201,93,85,200,85,390c0,0,0,185,77,326c0,0,77,142,220,219c0,0,142,76,324,76c0,0,158,0,327,-38L1000,755H951V884c0,0,-46,32,-112,50c0,0,-65,17,-137,17c0,0,-135,0,-242,-72c0,0,-107,-72,-166,-203c0,0,-60,-132,-60,-301c0,0,0,-160,78,-244c0,0,78,-84,222,-84c0,0,85,0,166,25c0,0,82,26,133,65l53,149h49L889,52C889,52,803,20,705,3c0,0,-99,-17,-184,-17Z" 
id="f2_13"
transform="scale(0.001,-0.001)" />

<path d="M200,-14c0,0,-59,0,-93,35c0,0,-34,36,-34,100c0,0,0,22,4,51c0,0,4,30,82,467H67l6,33l99,29L275,860h47L295,701H455L443,639H283L210,230c0,0,-13,-69,-13,-99c0,0,0,-34,17,-51c0,0,17,-16,43,-16c0,0,54,0,113,21L386,50c0,0,-92,-64,-186,-64Z" 
id="f2_2g"
transform="scale(0.001,-0.001)" />

<path d="M54,0L169,649L81,668l6,33H294L274,558c0,0,62,81,130,121c0,0,67,41,132,41c0,0,75,0,113,-41c0,0,38,-41,38,-117c0,0,0,-10,-3,-32c0,0,-3,-21,-81,-478L700,34L695,0H470l76,434c0,0,17,94,17,123c0,0,0,34,-18,55c0,0,-18,21,-56,21c0,0,-56,0,-121,-47c0,0,-65,-47,-108,-117L178,0Z" 
id="f2_2a"
transform="scale(0.001,-0.001)" />

<path d="M317,45c0,0,74,0,134,54c0,0,60,55,97,153c0,0,36,98,36,200c0,0,0,82,-33,129c0,0,-33,46,-89,46c0,0,-40,0,-93,-29c0,0,-54,-29,-96,-75L192,81c0,0,46,-36,125,-36ZM-88,-325l5,35l90,17L170,649L93,668l6,33H297L283,588c0,0,130,132,235,132c0,0,90,0,145,-67c0,0,55,-66,55,-182c0,0,0,-132,-56,-244C662,227,606,114,510,49c0,0,-97,-63,-209,-63c0,0,-35,0,-72,5c0,0,-37,5,-55,11l-8,-67L130,-273l119,-17l-6,-35Z" 
id="f2_2c"
transform="scale(0.001,-0.001)" />

<path d="M51,-233v58c0,0,138,44,138,125c0,0,0,21,-14,31c0,0,-15,11,-32,21c0,0,-18,10,-32,26c0,0,-15,16,-15,48c0,0,0,40,26,61c0,0,25,21,64,21c0,0,46,0,73,-33c0,0,27,-34,27,-93c0,0,0,-96,-62,-164c0,0,-62,-69,-173,-101Z" 
id="f2_g"
transform="scale(0.001,-0.001)" />

<path d="M228,-14c0,0,-103,0,-209,46L49,200H83L95,99c0,0,20,-21,55,-38c0,0,36,-16,81,-16c0,0,163,0,163,133c0,0,0,44,-35,78c0,0,-34,34,-113,72c0,0,-75,37,-112,81c0,0,-36,45,-36,104c0,0,0,99,66,153c0,0,67,54,184,54c0,0,85,0,200,-26L521,538H486l-11,80c0,0,-47,42,-124,42c0,0,-61,0,-97,-28c0,0,-37,-28,-37,-87c0,0,0,-40,31,-71c0,0,32,-30,119,-75c0,0,78,-40,113,-86c0,0,36,-47,36,-107c0,0,0,-113,-71,-167c0,0,-72,-53,-217,-53Z" 
id="f2_2f"
transform="scale(0.001,-0.001)" />

<path d="M55,0L169,649L81,668l6,33H295L274,557c0,0,52,73,117,118c0,0,65,45,122,45c0,0,66,0,102,-42c0,0,36,-41,36,-121c0,0,51,72,115,117c0,0,64,46,123,46c0,0,63,0,99,-40c0,0,36,-40,36,-116c0,0,0,-16,-3,-42c0,0,-3,-27,-80,-470l98,-19L1032,0H808l77,434c0,0,17,90,17,124c0,0,0,34,-16,54c0,0,-15,21,-49,21c0,0,-33,0,-78,-32c0,0,-46,-31,-83,-80c0,0,-37,-49,-44,-91L558,0H434l76,434c0,0,19,98,19,124c0,0,0,34,-17,54c0,0,-16,21,-51,21c0,0,-33,0,-81,-34c0,0,-47,-33,-84,-80c0,0,-36,-48,-43,-89L179,0Z" 
id="f2_29"
transform="scale(0.001,-0.001)" />

<path d="M-15,0l6,40L121,60L275,941L151,960l6,40H558l-6,-40L419,941L350,549H821l68,392L765,960l6,40h401l-6,-40L1033,941L879,60L1003,40L996,0H596l6,40L735,60l74,421H338L264,60L388,40L382,0Z" 
id="f2_18"
transform="scale(0.001,-0.001)" />

<path d="M459,63c0,0,143,0,210,55c0,0,67,56,67,185c0,0,0,101,-66,146c0,0,-66,46,-190,46H341L266,67c0,0,114,-4,193,-4Zm18,499c0,0,144,0,206,49c0,0,61,48,61,170c0,0,0,77,-48,115c0,0,-48,37,-160,37H419L353,562ZM459,-4L173,0H14l8,40l99,20L277,941L151,960l8,40H570c0,0,330,0,330,-210c0,0,0,-105,-66,-174c0,0,-66,-69,-184,-85c0,0,115,-9,179,-69c0,0,63,-59,63,-157c0,0,0,-160,-108,-235C784,70,675,-4,459,-4Z" 
id="f2_12"
transform="scale(0.001,-0.001)" />

<path d="M435,350V646c0,0,0,84,7,158L145,350ZM435,0V198H21V319l450,686H636V350H736V198H636V0Z" 
id="f0_o"
transform="scale(0.001,-0.001)" />

<path d="M191,-20c0,0,-51,0,-88,34c0,0,-36,36,-36,88c0,0,0,52,36,88c0,0,36,36,88,36c0,0,51,0,88,-36c0,0,36,-36,36,-88c0,0,0,-51,-36,-87c0,0,-36,-35,-88,-35Z" 
id="f0_i"
transform="scale(0.001,-0.001)" />

<path d="M64,0V141c0,0,64,68,119,123c0,0,119,118,174,185c0,0,56,68,81,140c0,0,26,72,26,165c0,0,0,81,-40,131c0,0,-39,50,-105,50c0,0,-46,0,-74,-10c0,0,-27,-10,-50,-29L163,751H98V979c0,0,59,13,116,23c0,0,58,9,125,9c0,0,165,0,252,-68c0,0,88,-68,88,-193c0,0,0,-78,-26,-142c0,0,-26,-64,-83,-124c0,0,-56,-61,-224,-197c0,0,-64,-52,-139,-119H698V0Z" 
id="f0_m"
transform="scale(0.001,-0.001)" />

<path d="M452,474c0,0,104,0,151,52c0,0,47,53,47,178c0,0,0,119,-45,167c0,0,-44,47,-156,47H390V474ZM36,0V54L154,74V926L26,945v55H467c0,0,213,0,318,-71c0,0,105,-71,105,-224c0,0,0,-313,-366,-313H390V74L557,54V0Z" 
id="f0_1g"
transform="scale(0.001,-0.001)" />

<path d="M26,0V55L154,74V926L26,946v54H518V946L389,926V555H798V926L670,946v54h493V946L1034,926V74L1163,55V0H670V55L798,74V473H389V74L518,55V0Z" 
id="f0_18"
transform="scale(0.001,-0.001)" />

<path d="M285,0V54L444,74V389L140,926L27,945v55H542V945L407,926L636,507L856,926L734,945v55h340V945L968,926L680,394V74L838,54V0Z" 
id="f0_1p"
transform="scale(0.001,-0.001)" />

<path d="M26,0V54L154,74V926L27,945v55H544V945L389,926V79H593c0,0,159,0,234,15l61,208h67L927,0Z" 
id="f0_1c"
transform="scale(0.001,-0.001)" />

<path d="M566,-14c0,0,-200,0,-308,93c0,0,-107,94,-107,270V926L38,945v55H515V945L386,926V339c0,0,0,-120,61,-184c0,0,61,-64,178,-64c0,0,112,0,173,63c0,0,61,62,61,184V926L725,945v55h340V945L952,926V343c0,0,0,-173,-100,-265c0,0,-100,-92,-286,-92Z" 
id="f0_1l"
transform="scale(0.001,-0.001)" />

<path d="M900,0V54l135,20V845L658,0H617L248,845V74L382,54V0H26V54L154,74V926L26,945v55H419L705,342l292,658h401V945L1270,926V74L1398,54V0Z" 
id="f0_1d"
transform="scale(0.001,-0.001)" />

<path d="M639,416L478,858L313,416ZM647,0V54L762,74L667,333H283L191,74L319,54V0H15V54L90,74l355,935H662L1016,74l76,-20V0Z" 
id="f0_11"
transform="scale(0.001,-0.001)" />

<path d="M231,0V54L390,74V921H352c0,0,-171,0,-240,-15L92,721H24v279H996V721H927L907,906c0,0,-62,14,-245,14H626V74L785,54V0Z" 
id="f0_1k"
transform="scale(0.001,-0.001)" />

<path d="M26,0V54L154,74V926L26,945v55H878V746H810L786,908c0,0,-83,10,-241,10H389V551H651l23,111h67V355H674L651,468H389V82H578c0,0,193,0,252,12l43,185h68L927,0Z" 
id="f0_15"
transform="scale(0.001,-0.001)" />

<path d="M51,0V55L180,74V926L51,946v54H543V946L415,926V74L543,55V0Z" 
id="f0_19"
transform="scale(0.001,-0.001)" />

<path d="M868,0L251,804V74L385,54V0H29V54L157,74V926L29,945v55H371L862,361V926L727,945v55h356V945L955,926V0Z" 
id="f0_1e"
transform="scale(0.001,-0.001)" />

<path d="M410,-14c0,0,-86,0,-175,14C235,0,145,14,81,38V307h66L181,146c0,0,31,-37,94,-62c0,0,64,-24,132,-24c0,0,214,0,214,177c0,0,0,55,-41,93c0,0,-41,38,-128,68c0,0,-128,42,-185,68c0,0,-56,27,-95,63c0,0,-38,36,-62,87c0,0,-23,51,-23,125c0,0,0,132,90,201c0,0,90,69,263,69c0,0,125,0,278,-32V741H651L618,878c0,0,-76,56,-178,56c0,0,-92,0,-141,-34c0,0,-49,-34,-49,-104c0,0,0,-50,41,-86c0,0,41,-35,128,-63c0,0,171,-56,235,-97c0,0,64,-41,97,-103c0,0,34,-61,34,-143c0,0,0,-318,-375,-318Z" 
id="f0_1j"
transform="scale(0.001,-0.001)" />

<path d="M460,-325c0,0,-148,79,-231,172c0,0,-84,93,-123,217c0,0,-39,126,-39,305c0,0,0,178,39,303c0,0,39,125,123,218c0,0,83,92,231,170V975c0,0,-68,-52,-109,-133c0,0,-41,-81,-61,-189c0,0,-19,-109,-19,-285c0,0,0,-177,19,-285c0,0,19,-107,60,-189c0,0,42,-82,110,-134v-85Z" 
id="f0_c"
transform="scale(0.001,-0.001)" />

<path d="M30,0V49l76,18V992l-72,18v50H322V67L398,49V0Z" 
id="f0_28"
transform="scale(0.001,-0.001)" />

<path d="M56,294V424H453V294Z" 
id="f0_h"
transform="scale(0.001,-0.001)" />

<path d="M41,0V49l76,18V624H11v51l106,29v75c0,0,0,144,73,220c0,0,73,77,210,77c0,0,74,0,124,-15V894H476l-22,81c0,0,-18,17,-47,17c0,0,-74,0,-74,-189V701H475V624H333V67L447,49V0Z" 
id="f0_22"
transform="scale(0.001,-0.001)" />

<path d="M79,-236v69c0,0,47,14,81,37c0,0,34,24,52,52c0,0,19,29,19,53c0,0,0,17,-12,28c0,0,-12,12,-46,30c0,0,-57,30,-57,93c0,0,0,44,32,72c0,0,33,27,88,27c0,0,62,0,105,-41c0,0,42,-41,42,-105c0,0,0,-115,-77,-195c0,0,-78,-80,-227,-120ZM250,468c0,0,-52,0,-88,36c0,0,-35,36,-35,88c0,0,0,52,35,88c0,0,34,36,88,36c0,0,53,0,88,-36c0,0,36,-37,36,-88c0,0,0,-51,-36,-87c0,0,-36,-37,-88,-37Z" 
id="f0_v"
transform="scale(0.001,-0.001)" />

<path d="M305,-14L57,634L4,652v49H351V652L268,632L419,232L581,631h71L814,232L950,634l-82,18v49h227V652l-54,-15L806,-14H715L555,378L395,-14Z" 
id="f0_2j"
transform="scale(0.001,-0.001)" />

<path d="M49,-325v85c0,0,68,53,110,135c0,0,41,82,60,190c0,0,19,109,19,283c0,0,0,177,-19,285c0,0,-20,108,-61,189c0,0,-41,81,-109,133v85c0,0,149,-80,232,-172c0,0,83,-92,122,-217c0,0,39,-125,39,-302c0,0,0,-178,-39,-304c0,0,-39,-125,-122,-218c0,0,-83,-93,-232,-172Z" 
id="f0_d"
transform="scale(0.001,-0.001)" />

<path d="M394,460c0,0,126,0,186,57c0,0,60,57,60,187c0,0,0,123,-57,176c0,0,-58,53,-194,53H316V460ZM54,0V40L172,60V941L44,960v40H421c0,0,368,0,368,-295c0,0,0,-153,-93,-233c0,0,-93,-80,-267,-80H316V60L475,40V0Z" 
id="f1_1g"
transform="scale(0.001,-0.001)" />

<path d="M327,-14L84,649L1,668v33H335V668L219,648L385,174L554,632h63L786,171L944,649L830,668v33h267V668l-78,-16L784,-14H726L553,448L382,-14Z" 
id="f1_2j"
transform="scale(0.001,-0.001)" />

<path d="M614,-14c0,0,-163,0,-285,59c0,0,-122,60,-188,174c0,0,-66,114,-66,269c0,0,0,252,143,387c0,0,144,136,410,136c0,0,65,0,118,-5c0,0,54,-5,100,-14c0,0,46,-9,170,-44V718H949L931,848c0,0,-59,40,-130,62c0,0,-71,23,-146,23c0,0,-174,0,-253,-108c0,0,-80,-108,-80,-335c0,0,0,-211,84,-319c0,0,84,-108,243,-108c0,0,87,0,165,26V377L686,397v55h461V397l-98,-20V52C1049,52,956,22,834,4C834,4,712,-14,614,-14Z" 
id="f0_17"
transform="scale(0.001,-0.001)" />

<path d="M559,77c0,0,87,0,129,53c0,0,42,53,42,162c0,0,0,99,-49,147c0,0,-50,49,-163,49H389V82c0,0,108,-5,170,-5ZM499,570c0,0,80,0,118,42c0,0,38,42,38,141c0,0,0,88,-38,126c0,0,-37,39,-124,39H389V570ZM561,-3L221,0H25V54L154,74V926L25,945v55H511c0,0,199,0,294,-53c0,0,95,-53,95,-173c0,0,0,-89,-56,-154c0,0,-56,-65,-150,-85c0,0,139,-14,211,-76c0,0,71,-61,71,-167c0,0,0,-146,-107,-221C869,71,762,-3,561,-3Z" 
id="f0_12"
transform="scale(0.001,-0.001)" />

<path d="M64,0V34L168,59V639H47v36l121,29v49c0,0,0,155,61,239c0,0,62,84,173,84c0,0,58,0,107,-15V908H472l-33,92c0,0,-26,16,-62,16c0,0,-47,0,-66,-42c0,0,-19,-42,-19,-157V701H478V639H292V59L443,34V0Z" 
id="f1_22"
transform="scale(0.001,-0.001)" />

<path d="M122,0V64L295,82V837L123,780v64l282,165H511V82L685,64V0Z" 
id="f0_l"
transform="scale(0.001,-0.001)" />

<path d="M342,-14c0,0,-138,0,-276,29L57,258h69L165,96c0,0,65,-36,136,-36c0,0,90,0,141,58c0,0,50,57,50,161c0,0,0,91,-40,139c0,0,-41,48,-132,54l-87,5v90l84,6c0,0,66,5,98,49c0,0,32,44,32,134c0,0,0,83,-38,131c0,0,-38,48,-107,48c0,0,-40,0,-66,-13c0,0,-26,-12,-49,-26L155,751H90V979c0,0,76,19,132,26c0,0,55,6,108,6c0,0,337,0,337,-246c0,0,0,-102,-54,-164c0,0,-54,-63,-153,-78c0,0,252,-30,252,-251c0,0,0,-136,-98,-211c0,0,-98,-75,-272,-75Z" 
id="f0_n"
transform="scale(0.001,-0.001)" />

<path d="M379,60c0,0,55,0,82,103c0,0,26,104,26,342c0,0,0,233,-26,335c0,0,-26,102,-82,102c0,0,-55,0,-79,-99c0,0,-23,-99,-23,-338c0,0,0,-244,24,-345c0,0,24,-100,78,-100Zm-2,-74c0,0,-158,0,-238,132c0,0,-81,133,-81,386c0,0,0,249,81,380c0,0,80,132,244,132c0,0,159,0,241,-130c0,0,82,-130,82,-382c0,0,0,-518,-329,-518Z" 
id="f0_k"
transform="scale(0.001,-0.001)" />

<path d="M477,0V33l64,19L348,354L257,254V52L331,33V0H44V33l89,19v956L29,1026v34H257V338L544,647l-73,20v34H718V667L631,650L431,446L688,50L764,33V0Z" 
id="f1_27"
transform="scale(0.001,-0.001)" />

<path d="M410,-14c0,0,-80,0,-162,14c0,0,-81,14,-144,38V270h48L178,134c0,0,28,-35,95,-62c0,0,68,-27,134,-27c0,0,104,0,163,53c0,0,58,54,58,148c0,0,0,54,-23,89c0,0,-22,35,-59,59c0,0,-37,24,-84,41c0,0,-47,17,-97,34c0,0,-49,17,-96,38c0,0,-47,21,-84,53c0,0,-37,32,-60,79c0,0,-23,48,-23,117c0,0,0,119,90,187c0,0,89,68,248,68c0,0,121,0,263,-32V771H654L628,893c0,0,-76,55,-188,55c0,0,-100,0,-156,-40c0,0,-56,-41,-56,-112c0,0,0,-49,22,-81c0,0,23,-32,60,-55c0,0,37,-22,84,-39c0,0,48,-16,97,-34c0,0,50,-17,97,-39c0,0,48,-22,85,-56c0,0,36,-34,59,-83c0,0,23,-49,23,-120c0,0,0,-145,-89,-224c0,0,-89,-79,-256,-79Z" 
id="f1_1j"
transform="scale(0.001,-0.001)" />

<path d="M342,-14L49,634L0,652v49H359V652L275,632L455,233L617,634l-82,18v49H764V652L713,637L433,-14Z" 
id="f0_2i"
transform="scale(0.001,-0.001)" />

<path d="M44,0V40L172,60V941L44,960v40H445V960L316,941V549H787V941L659,960v40h400V960L930,941V60L1059,40V0H659V40L787,60V481H316V60L445,40V0Z" 
id="f1_18"
transform="scale(0.001,-0.001)" />

<path d="M273,157c0,0,-114,0,-193,80C80,237,0,317,0,431c0,0,0,112,80,192c0,0,79,80,193,80c0,0,113,0,192,-80c0,0,80,-80,80,-192c0,0,0,-114,-80,-194c0,0,-79,-80,-192,-80Z" 
id="f3_3d"
transform="scale(0.001,-0.001)" />

<path d="M211,-20c0,0,-39,0,-64,25c0,0,-26,27,-26,64c0,0,0,38,26,64c0,0,26,26,64,26c0,0,37,0,64,-25c0,0,26,-26,26,-65c0,0,0,-37,-26,-64c0,0,-26,-25,-64,-25Zm0,556c0,0,-38,0,-64,26c0,0,-26,26,-26,64c0,0,0,37,26,64c0,0,25,27,64,27c0,0,38,0,64,-27c0,0,26,-27,26,-64c0,0,0,-38,-26,-64c0,0,-27,-26,-64,-26Z" 
id="f1_u"
transform="scale(0.001,-0.001)" />

<path d="M424,64c0,0,74,0,109,71c0,0,36,72,36,236c0,0,0,137,-34,201c0,0,-34,65,-111,65c0,0,-29,0,-62,-7c0,0,-34,-6,-55,-19V76c0,0,47,-12,117,-12Zm21,-78c0,0,-121,0,-354,50V994l-72,18v48H307V802c0,0,0,-69,-8,-141c0,0,30,25,86,42c0,0,57,17,110,17c0,0,153,0,223,-84c0,0,70,-83,70,-266c0,0,0,-180,-90,-283C698,87,608,-14,445,-14Z" 
id="f0_1y"
transform="scale(0.001,-0.001)" />

<path d="M360,-256c0,0,108,0,167,35c0,0,59,35,59,98c0,0,0,70,-95,70H254c0,0,-65,-47,-65,-108c0,0,0,-47,46,-71c0,0,45,-24,125,-24Zm9,561c0,0,55,0,79,43c0,0,25,43,25,129c0,0,0,87,-24,127c0,0,-25,41,-80,41c0,0,-52,0,-75,-41c0,0,-24,-40,-24,-127c0,0,0,-86,23,-129c0,0,23,-43,76,-43Zm-9,-641c0,0,-153,0,-236,43c0,0,-84,44,-84,120c0,0,0,33,28,65c0,0,27,31,105,76c0,0,-44,17,-75,59c0,0,-31,43,-31,90L192,258c0,0,-133,56,-133,219c0,0,0,116,81,180c0,0,82,63,233,63c0,0,32,0,82,-6c0,0,51,-6,74,-13l168,83l26,-32L638,631c0,0,46,-57,46,-154c0,0,0,-119,-80,-182c0,0,-80,-64,-234,-64c0,0,-59,0,-114,9L238,183c0,0,1,-22,28,-41c0,0,26,-19,64,-19H493c0,0,256,0,256,-196c0,0,0,-81,-44,-139c0,0,-45,-59,-131,-92c0,0,-86,-32,-214,-32Z" 
id="f0_23"
transform="scale(0.001,-0.001)" />

<path d="M435,0V856c0,0,-48,-47,-127,-93c0,0,-79,-46,-142,-69V824c0,0,113,52,197,128c0,0,85,75,120,146h86V0Z" 
id="f4_l"
transform="scale(0.001,-0.001)" />

<path d="M46,0c0,0,-2,48,16,93c0,0,27,74,88,146c0,0,61,71,176,165c0,0,178,146,241,232c0,0,63,85,63,161c0,0,0,80,-57,135c0,0,-58,55,-149,55c0,0,-98,0,-156,-59c0,0,-58,-58,-59,-160L71,782c0,0,15,154,107,235c0,0,93,81,249,81c0,0,157,0,249,-87c0,0,92,-88,92,-217c0,0,0,-65,-27,-129c0,0,-27,-63,-89,-133c0,0,-62,-70,-207,-193C445,339,324,238,290,202c0,0,-35,-36,-57,-73H770V0Z" 
id="f4_m"
transform="scale(0.001,-0.001)" />


</defs>
</svg>