<?xml version="1.0" encoding="UTF-8" standalone="no"?>
<!DOCTYPE svg PUBLIC "-//W3C//DTD SVG 1.1//EN"
"http://www.w3.org/Graphics/SVG/1.1/DTD/svg11.dtd">
<svg viewBox="0 0 935 1210" version="1.1" xmlns="http://www.w3.org/2000/svg" xmlns:xlink="http://www.w3.org/1999/xlink">
<defs>
<style type="text/css"><![CDATA[
.g0_173{
}
.g1_173{
fill: #FFFFFF;
}
]]></style>
</defs>
<g fill="#000000" >
<use xlink:href="#f0_18" transform="matrix(12,0,0,12,55,72.3)" />
<use xlink:href="#f0_2b" transform="matrix(12,0,0,12,68.3,72.3)" />
<use xlink:href="#f0_29" transform="matrix(12,0,0,12,77.8,72.3)" />
<use xlink:href="#f0_2b" transform="matrix(12,0,0,12,91.3,72.3)" />
<use xlink:href="#f0_28" transform="matrix(12,0,0,12,101.2,72.3)" />
<use xlink:href="#f0_2b" transform="matrix(12,0,0,12,105.6,72.3)" />
<use xlink:href="#f0_23" transform="matrix(12,0,0,12,115.1,72.3)" />
<use xlink:href="#f0_2b" transform="matrix(12,0,0,12,124.3,72.3)" />
<use xlink:href="#f0_2h" transform="matrix(12,0,0,12,133.8,72.3)" />
<use xlink:href="#f0_2f" transform="matrix(12,0,0,12,143,72.3)" />
<use xlink:href="#f0_1z" transform="matrix(12,0,0,12,154.3,72.3)" />
<use xlink:href="#f0_24" transform="matrix(12,0,0,12,162.4,72.3)" />
<use xlink:href="#f0_2e" transform="matrix(12,0,0,12,171.2,72.3)" />
<use xlink:href="#f0_2b" transform="matrix(12,0,0,12,177.4,72.3)" />
<use xlink:href="#f0_29" transform="matrix(12,0,0,12,186.9,72.3)" />
<use xlink:href="#f0_2b" transform="matrix(12,0,0,12,200.5,72.3)" />
<use xlink:href="#f0_2f" transform="matrix(12,0,0,12,210,72.3)" />
<use xlink:href="#f0_2b" transform="matrix(12,0,0,12,217,72.3)" />
<use xlink:href="#f0_29" transform="matrix(12,0,0,12,226.5,72.3)" />
<use xlink:href="#f0_21" transform="matrix(12,0,0,12,240.4,72.3)" />
<use xlink:href="#f0_2f" transform="matrix(12,0,0,12,248.5,72.3)" />
<use xlink:href="#f0_1x" transform="matrix(12,0,0,12,260.2,72.3)" />
<use xlink:href="#f0_2e" transform="matrix(12,0,0,12,268.3,72.3)" />
<use xlink:href="#f0_21" transform="matrix(12,0,0,12,274.5,72.3)" />
<use xlink:href="#f0_1x" transform="matrix(12,0,0,12,287.3,72.3)" />
<use xlink:href="#f0_28" transform="matrix(12,0,0,12,295.3,72.3)" />
<use xlink:href="#f0_25" transform="matrix(12,0,0,12,300.1,72.3)" />
<use xlink:href="#f0_23" transform="matrix(12,0,0,12,304.9,72.3)" />
<use xlink:href="#f0_2a" transform="matrix(12,0,0,12,314.4,72.3)" />
<use xlink:href="#f0_21" transform="matrix(12,0,0,12,323.6,72.3)" />
<use xlink:href="#f0_20" transform="matrix(12,0,0,12,331.6,72.3)" />
<use xlink:href="#f0_2b" transform="matrix(12,0,0,12,345.5,72.3)" />
<use xlink:href="#f0_2a" transform="matrix(12,0,0,12,355.1,72.3)" />
<use xlink:href="#f0_2g" transform="matrix(12,0,0,12,368.3,72.3)" />
<use xlink:href="#f0_24" transform="matrix(12,0,0,12,373.7,72.3)" />
<use xlink:href="#f0_21" transform="matrix(12,0,0,12,382.5,72.3)" />
<use xlink:href="#f0_29" transform="matrix(12,0,0,12,395.4,72.3)" />
<use xlink:href="#f0_21" transform="matrix(12,0,0,12,408.9,72.3)" />
<use xlink:href="#f0_2g" transform="matrix(12,0,0,12,417,72.3)" />
<use xlink:href="#f0_1x" transform="matrix(12,0,0,12,422.5,72.3)" />
<use xlink:href="#f0_2c" transform="matrix(12,0,0,12,430.5,72.3)" />
<use xlink:href="#f0_24" transform="matrix(12,0,0,12,439.7,72.3)" />
<use xlink:href="#f0_1x" transform="matrix(12,0,0,12,448.5,72.3)" />
<use xlink:href="#f0_2f" transform="matrix(12,0,0,12,456.9,72.3)" />
<use xlink:href="#f0_25" transform="matrix(12,0,0,12,464.2,72.3)" />
<use xlink:href="#f0_1z" transform="matrix(12,0,0,12,469,72.3)" />
<use xlink:href="#f0_2c" transform="matrix(12,0,0,12,481.8,72.3)" />
<use xlink:href="#f0_28" transform="matrix(12,0,0,12,491.3,72.3)" />
<use xlink:href="#f0_1x" transform="matrix(12,0,0,12,495.7,72.3)" />
<use xlink:href="#f0_2g" transform="matrix(12,0,0,12,503.8,72.3)" />
<use xlink:href="#f0_21" transform="matrix(12,0,0,12,509.3,72.3)" />
<use xlink:href="#f0_i" transform="matrix(12,0,0,12,517.3,72.3)" />
<use xlink:href="#f0_1k" transform="matrix(12,0,0,12,526.5,72.3)" />
<use xlink:href="#f0_24" transform="matrix(12,0,0,12,537.8,72.3)" />
<use xlink:href="#f0_21" transform="matrix(12,0,0,12,546.6,72.3)" />
<use xlink:href="#f0_2e" transform="matrix(12,0,0,12,559.5,72.3)" />
<use xlink:href="#f0_21" transform="matrix(12,0,0,12,565.7,72.3)" />
<use xlink:href="#f0_2c" transform="matrix(12,0,0,12,573.7,72.3)" />
<use xlink:href="#f0_28" transform="matrix(12,0,0,12,582.9,72.3)" />
<use xlink:href="#f0_25" transform="matrix(12,0,0,12,587.7,72.3)" />
<use xlink:href="#f0_1z" transform="matrix(12,0,0,12,592.4,72.3)" />
<use xlink:href="#f0_1x" transform="matrix(12,0,0,12,600.9,72.3)" />
<use xlink:href="#f0_2g" transform="matrix(12,0,0,12,608.9,72.3)" />
<use xlink:href="#f0_21" transform="matrix(12,0,0,12,614.4,72.3)" />
<use xlink:href="#f0_20" transform="matrix(12,0,0,12,622.5,72.3)" />
<use xlink:href="#f0_1z" transform="matrix(12,0,0,12,636.4,72.3)" />
<use xlink:href="#f0_24" transform="matrix(12,0,0,12,644.5,72.3)" />
<use xlink:href="#f0_2e" transform="matrix(12,0,0,12,653.3,72.3)" />
<use xlink:href="#f0_2b" transform="matrix(12,0,0,12,659.5,72.3)" />
<use xlink:href="#f0_29" transform="matrix(12,0,0,12,669,72.3)" />
<use xlink:href="#f0_2b" transform="matrix(12,0,0,12,682.6,72.3)" />
<use xlink:href="#f0_2f" transform="matrix(12,0,0,12,692.1,72.3)" />
<use xlink:href="#f0_2b" transform="matrix(12,0,0,12,699,72.3)" />
<use xlink:href="#f0_29" transform="matrix(12,0,0,12,708.5,72.3)" />
<use xlink:href="#f0_21" transform="matrix(12,0,0,12,722.1,72.3)" />
<use xlink:href="#f0_2f" transform="matrix(12,0,0,12,730.5,72.3)" />
<use xlink:href="#f0_1x" transform="matrix(12,0,0,12,742.2,72.3)" />
<use xlink:href="#f0_2e" transform="matrix(12,0,0,12,750.3,72.3)" />
<use xlink:href="#f0_21" transform="matrix(12,0,0,12,756.5,72.3)" />
<use xlink:href="#f0_26" transform="matrix(12,0,0,12,769.3,72.3)" />
<use xlink:href="#f0_2b" transform="matrix(12,0,0,12,773.7,72.3)" />
<use xlink:href="#f0_25" transform="matrix(12,0,0,12,783.6,72.3)" />
<use xlink:href="#f0_2a" transform="matrix(12,0,0,12,788.4,72.3)" />
<use xlink:href="#f0_21" transform="matrix(12,0,0,12,797.2,72.3)" />
<use xlink:href="#f0_20" transform="matrix(12,0,0,12,805.3,72.3)" />
<use xlink:href="#f0_2g" transform="matrix(12,0,0,12,819.2,72.3)" />
<use xlink:href="#f0_2b" transform="matrix(12,0,0,12,824.3,72.3)" />
<use xlink:href="#f0_23" transform="matrix(12,0,0,12,833.8,72.3)" />
<use xlink:href="#f0_21" transform="matrix(12,0,0,12,843,72.3)" />
<use xlink:href="#f0_2g" transform="matrix(12,0,0,12,850.7,72.3)" />
<use xlink:href="#f0_24" transform="matrix(12,0,0,12,856.2,72.3)" />
<use xlink:href="#f0_21" transform="matrix(12,0,0,12,865,72.3)" />
<use xlink:href="#f0_2e" transform="matrix(12,0,0,12,873,72.3)" />
<use xlink:href="#f0_2i" transform="matrix(12,0,0,12,55,103.8)" />
<use xlink:href="#f0_25" transform="matrix(12,0,0,12,64.2,103.8)" />
<use xlink:href="#f0_1x" transform="matrix(12,0,0,12,69,103.8)" />
<use xlink:href="#f0_2c" transform="matrix(12,0,0,12,81.8,103.8)" />
<use xlink:href="#f0_2e" transform="matrix(12,0,0,12,91,103.8)" />
<use xlink:href="#f0_2b" transform="matrix(12,0,0,12,97.2,103.8)" />
<use xlink:href="#f0_2g" transform="matrix(12,0,0,12,106.3,103.8)" />
<use xlink:href="#f0_21" transform="matrix(12,0,0,12,111.8,103.8)" />
<use xlink:href="#f0_25" transform="matrix(12,0,0,12,119.9,103.8)" />
<use xlink:href="#f0_2a" transform="matrix(12,0,0,12,124.6,103.8)" />
<use xlink:href="#f0_27" transform="matrix(12,0,0,12,138.2,103.8)" />
<use xlink:href="#f0_2a" transform="matrix(12,0,0,12,147.7,103.8)" />
<use xlink:href="#f0_2b" transform="matrix(12,0,0,12,156.5,103.8)" />
<use xlink:href="#f0_2j" transform="matrix(12,0,0,12,166,103.8)" />
<use xlink:href="#f0_2a" transform="matrix(12,0,0,12,179.3,103.8)" />
<use xlink:href="#f0_1x" transform="matrix(12,0,0,12,192.8,103.8)" />
<use xlink:href="#f0_2f" transform="matrix(12,0,0,12,200.8,103.8)" />
<use xlink:href="#f0_1z" transform="matrix(12,0,0,12,212.6,103.8)" />
<use xlink:href="#f0_2b" transform="matrix(12,0,0,12,220.6,103.8)" />
<use xlink:href="#f0_24" transform="matrix(12,0,0,12,230.1,103.8)" />
<use xlink:href="#f0_21" transform="matrix(12,0,0,12,238.9,103.8)" />
<use xlink:href="#f0_2f" transform="matrix(12,0,0,12,247,103.8)" />
<use xlink:href="#f0_25" transform="matrix(12,0,0,12,254.3,103.8)" />
<use xlink:href="#f0_2a" transform="matrix(12,0,0,12,259.1,103.8)" />
<use xlink:href="#f0_i" transform="matrix(12,0,0,12,268.3,103.8)" />
<use xlink:href="#f1_16" transform="matrix(12,0,0,12,392.5,330.8)" />
<use xlink:href="#f1_25" transform="matrix(12,0,0,12,403.5,330.8)" />
<use xlink:href="#f1_23" transform="matrix(12,0,0,12,408.6,330.8)" />
<use xlink:href="#f1_i" transform="matrix(12,0,0,12,417.7,330.8)" />
<use xlink:href="#f1_s" transform="matrix(12,0,0,12,427.3,330.8)" />
<use xlink:href="#f1_i" transform="matrix(12,0,0,12,436.4,330.8)" />
<use xlink:href="#f1_1d" transform="matrix(12,0,0,12,445.6,330.8)" />
<use xlink:href="#f1_21" transform="matrix(12,0,0,12,463.2,330.8)" />
<use xlink:href="#f1_2g" transform="matrix(12,0,0,12,470.9,330.8)" />
<use xlink:href="#f1_1x" transform="matrix(12,0,0,12,477.1,330.8)" />
<use xlink:href="#f1_2c" transform="matrix(12,0,0,12,486.3,330.8)" />
<use xlink:href="#f1_24" transform="matrix(12,0,0,12,496.5,330.8)" />
<use xlink:href="#f1_1x" transform="matrix(12,0,0,12,506.8,330.8)" />
<use xlink:href="#f1_2f" transform="matrix(12,0,0,12,515.9,330.8)" />
<use xlink:href="#f1_21" transform="matrix(12,0,0,12,522.9,330.8)" />
<use xlink:href="#f1_19" transform="matrix(12,0,0,12,535.7,330.8)" />
<use xlink:href="#f1_11" transform="matrix(12,0,0,12,55,374.8)" />
<use xlink:href="#f1_2a" transform="matrix(12,0,0,12,68.3,374.8)" />
<use xlink:href="#f1_1x" transform="matrix(12,0,0,12,78.5,374.8)" />
<use xlink:href="#f1_2c" transform="matrix(12,0,0,12,87.6,374.8)" />
<use xlink:href="#f1_24" transform="matrix(12,0,0,12,97.9,374.8)" />
<use xlink:href="#f1_1x" transform="matrix(12,0,0,12,108.2,374.8)" />
<use xlink:href="#f1_2f" transform="matrix(12,0,0,12,117.3,374.8)" />
<use xlink:href="#f1_21" transform="matrix(12,0,0,12,124.3,374.8)" />
<use xlink:href="#f1_19" transform="matrix(12,0,0,12,137.1,374.8)" />
</g>
<path fill-rule="evenodd" d="M55,378.5h89.1v-1.8H55v1.8Z" class="g0_173" />
<path fill-rule="evenodd" d="M55,422.9H880.3V401.6H55v21.3Z" class="g1_173" />
<g fill="#000000" >
<use xlink:href="#f0_11" transform="matrix(12,0,0,12,55,418.8)" />
<use xlink:href="#f0_2f" transform="matrix(12,0,0,12,68.3,418.8)" />
<use xlink:href="#f0_2g" transform="matrix(12,0,0,12,79.2,418.8)" />
<use xlink:href="#f0_24" transform="matrix(12,0,0,12,84.7,418.8)" />
<use xlink:href="#f0_21" transform="matrix(12,0,0,12,93.5,418.8)" />
<use xlink:href="#f0_27" transform="matrix(12,0,0,12,105.6,418.8)" />
<use xlink:href="#f0_25" transform="matrix(12,0,0,12,115.2,418.8)" />
<use xlink:href="#f0_2a" transform="matrix(12,0,0,12,119.9,418.8)" />
<use xlink:href="#f0_21" transform="matrix(12,0,0,12,128.7,418.8)" />
<use xlink:href="#f0_2g" transform="matrix(12,0,0,12,136.8,418.8)" />
<use xlink:href="#f0_2b" transform="matrix(12,0,0,12,142.3,418.8)" />
<use xlink:href="#f0_1z" transform="matrix(12,0,0,12,151.8,418.8)" />
<use xlink:href="#f0_24" transform="matrix(12,0,0,12,159.9,418.8)" />
<use xlink:href="#f0_2b" transform="matrix(12,0,0,12,168.7,418.8)" />
<use xlink:href="#f0_2e" transform="matrix(12,0,0,12,178.2,418.8)" />
<use xlink:href="#f0_21" transform="matrix(12,0,0,12,184.4,418.8)" />
<use xlink:href="#f0_29" transform="matrix(12,0,0,12,196.1,418.8)" />
<use xlink:href="#f0_25" transform="matrix(12,0,0,12,210.1,418.8)" />
<use xlink:href="#f0_1z" transform="matrix(12,0,0,12,214.8,418.8)" />
<use xlink:href="#f0_2e" transform="matrix(12,0,0,12,222.9,418.8)" />
<use xlink:href="#f0_2b" transform="matrix(12,0,0,12,229.1,418.8)" />
<use xlink:href="#f0_2g" transform="matrix(12,0,0,12,238.6,418.8)" />
<use xlink:href="#f0_2h" transform="matrix(12,0,0,12,244.1,418.8)" />
<use xlink:href="#f0_1y" transform="matrix(12,0,0,12,253.3,418.8)" />
<use xlink:href="#f0_2h" transform="matrix(12,0,0,12,262.1,418.8)" />
<use xlink:href="#f0_28" transform="matrix(12,0,0,12,271.6,418.8)" />
<use xlink:href="#f0_21" transform="matrix(12,0,0,12,276,418.8)" />
<use xlink:href="#f0_2f" transform="matrix(12,0,0,12,284.1,418.8)" />
<use xlink:href="#f0_2f" transform="matrix(12,0,0,12,295.1,418.8)" />
<use xlink:href="#f0_24" transform="matrix(12,0,0,12,302.4,418.8)" />
<use xlink:href="#f0_2b" transform="matrix(12,0,0,12,311.2,418.8)" />
<use xlink:href="#f0_2e" transform="matrix(12,0,0,12,320.7,418.8)" />
<use xlink:href="#f0_2g" transform="matrix(12,0,0,12,326.9,418.8)" />
<use xlink:href="#f0_21" transform="matrix(12,0,0,12,332.4,418.8)" />
<use xlink:href="#f0_2a" transform="matrix(12,0,0,12,340.4,418.8)" />
<use xlink:href="#f0_g" transform="matrix(12,0,0,12,349.2,418.8)" />
<use xlink:href="#f0_24" transform="matrix(12,0,0,12,358.4,418.8)" />
<use xlink:href="#f0_2b" transform="matrix(12,0,0,12,367.2,418.8)" />
<use xlink:href="#f0_29" transform="matrix(12,0,0,12,376.7,418.8)" />
<use xlink:href="#f0_2b" transform="matrix(12,0,0,12,390.3,418.8)" />
<use xlink:href="#f0_28" transform="matrix(12,0,0,12,400.1,418.8)" />
<use xlink:href="#f0_2b" transform="matrix(12,0,0,12,404.5,418.8)" />
<use xlink:href="#f0_23" transform="matrix(12,0,0,12,414.1,418.8)" />
<use xlink:href="#f0_2b" transform="matrix(12,0,0,12,423.2,418.8)" />
<use xlink:href="#f0_2h" transform="matrix(12,0,0,12,432.7,418.8)" />
<use xlink:href="#f0_2f" transform="matrix(12,0,0,12,441.9,418.8)" />
<use xlink:href="#f0_1z" transform="matrix(12,0,0,12,452.9,418.8)" />
<use xlink:href="#f0_24" transform="matrix(12,0,0,12,461,418.8)" />
<use xlink:href="#f0_2e" transform="matrix(12,0,0,12,469.8,418.8)" />
<use xlink:href="#f0_2b" transform="matrix(12,0,0,12,476,418.8)" />
<use xlink:href="#f0_29" transform="matrix(12,0,0,12,485.5,418.8)" />
<use xlink:href="#f0_2b" transform="matrix(12,0,0,12,499.1,418.8)" />
<use xlink:href="#f0_2f" transform="matrix(12,0,0,12,508.6,418.8)" />
<use xlink:href="#f0_2b" transform="matrix(12,0,0,12,515.6,418.8)" />
<use xlink:href="#f0_29" transform="matrix(12,0,0,12,525.1,418.8)" />
<use xlink:href="#f0_21" transform="matrix(12,0,0,12,538.6,418.8)" />
<use xlink:href="#f0_2f" transform="matrix(12,0,0,12,547.1,418.8)" />
<use xlink:href="#f0_1x" transform="matrix(12,0,0,12,558.3,418.8)" />
<use xlink:href="#f0_2e" transform="matrix(12,0,0,12,566.3,418.8)" />
<use xlink:href="#f0_21" transform="matrix(12,0,0,12,572.6,418.8)" />
<use xlink:href="#f0_2c" transform="matrix(12,0,0,12,584.7,418.8)" />
<use xlink:href="#f0_2h" transform="matrix(12,0,0,12,593.8,418.8)" />
<use xlink:href="#f0_28" transform="matrix(12,0,0,12,603.3,418.8)" />
<use xlink:href="#f0_28" transform="matrix(12,0,0,12,608.1,418.8)" />
<use xlink:href="#f0_21" transform="matrix(12,0,0,12,612.9,418.8)" />
<use xlink:href="#f0_20" transform="matrix(12,0,0,12,620.9,418.8)" />
<use xlink:href="#f0_2g" transform="matrix(12,0,0,12,634.1,418.8)" />
<use xlink:href="#f0_2b" transform="matrix(12,0,0,12,639.2,418.8)" />
<use xlink:href="#f0_2g" transform="matrix(12,0,0,12,652.5,418.8)" />
<use xlink:href="#f0_24" transform="matrix(12,0,0,12,657.9,418.8)" />
<use xlink:href="#f0_21" transform="matrix(12,0,0,12,666.7,418.8)" />
<use xlink:href="#f0_2b" transform="matrix(12,0,0,12,678.5,418.8)" />
<use xlink:href="#f0_2c" transform="matrix(12,0,0,12,688,418.8)" />
<use xlink:href="#f0_2c" transform="matrix(12,0,0,12,697.2,418.8)" />
<use xlink:href="#f0_2b" transform="matrix(12,0,0,12,706,418.8)" />
<use xlink:href="#f0_2f" transform="matrix(12,0,0,12,715.5,418.8)" />
<use xlink:href="#f0_25" transform="matrix(12,0,0,12,722.8,418.8)" />
<use xlink:href="#f0_2g" transform="matrix(12,0,0,12,727.2,418.8)" />
<use xlink:href="#f0_21" transform="matrix(12,0,0,12,732.7,418.8)" />
<use xlink:href="#f0_2c" transform="matrix(12,0,0,12,744.8,418.8)" />
<use xlink:href="#f0_2b" transform="matrix(12,0,0,12,753.6,418.8)" />
<use xlink:href="#f0_28" transform="matrix(12,0,0,12,763.1,418.8)" />
<use xlink:href="#f0_21" transform="matrix(12,0,0,12,767.5,418.8)" />
<use xlink:href="#f0_2f" transform="matrix(12,0,0,12,775.9,418.8)" />
<use xlink:href="#f0_i" transform="matrix(12,0,0,12,782.9,418.8)" />
<use xlink:href="#f0_1k" transform="matrix(12,0,0,12,791.6,418.8)" />
<use xlink:href="#f0_24" transform="matrix(12,0,0,12,803,418.8)" />
<use xlink:href="#f0_21" transform="matrix(12,0,0,12,811.8,418.8)" />
<use xlink:href="#f0_1z" transform="matrix(12,0,0,12,824.2,418.8)" />
<use xlink:href="#f0_2b" transform="matrix(12,0,0,12,832.3,418.8)" />
<use xlink:href="#f0_24" transform="matrix(12,0,0,12,841.8,418.8)" />
<use xlink:href="#f0_21" transform="matrix(12,0,0,12,850.6,418.8)" />
<use xlink:href="#f0_2f" transform="matrix(12,0,0,12,858.6,418.8)" />
<use xlink:href="#f0_25" transform="matrix(12,0,0,12,866,418.8)" />
<use xlink:href="#f0_2a" transform="matrix(12,0,0,12,871.1,418.8)" />
</g>
<path fill-rule="evenodd" d="M55,454.5H880.3V433.1H55v21.4Z" class="g1_173" />
<g fill="#000000" >
<use xlink:href="#f0_c" transform="matrix(12,0,0,12,55,450.4)" />
<use xlink:href="#f0_2c" transform="matrix(12,0,0,12,61.3,450.4)" />
<use xlink:href="#f0_2e" transform="matrix(12,0,0,12,70.4,450.4)" />
<use xlink:href="#f0_2b" transform="matrix(12,0,0,12,76.3,450.4)" />
<use xlink:href="#f0_2g" transform="matrix(12,0,0,12,85.5,450.4)" />
<use xlink:href="#f0_21" transform="matrix(12,0,0,12,90.9,450.4)" />
<use xlink:href="#f0_25" transform="matrix(12,0,0,12,99,450.4)" />
<use xlink:href="#f0_2a" transform="matrix(12,0,0,12,103.8,450.4)" />
<use xlink:href="#f0_1z" transform="matrix(12,0,0,12,117.7,450.4)" />
<use xlink:href="#f0_2b" transform="matrix(12,0,0,12,125.7,450.4)" />
<use xlink:href="#f0_29" transform="matrix(12,0,0,12,135.6,450.4)" />
<use xlink:href="#f0_2c" transform="matrix(12,0,0,12,149.2,450.4)" />
<use xlink:href="#f0_28" transform="matrix(12,0,0,12,158.7,450.4)" />
<use xlink:href="#f0_21" transform="matrix(12,0,0,12,163.5,450.4)" />
<use xlink:href="#f0_2k" transform="matrix(12,0,0,12,171.9,450.4)" />
<use xlink:href="#f0_d" transform="matrix(12,0,0,12,180.7,450.4)" />
<use xlink:href="#f0_20" transform="matrix(12,0,0,12,192.2,450.4)" />
<use xlink:href="#f0_21" transform="matrix(12,0,0,12,201.4,450.4)" />
<use xlink:href="#f0_23" transform="matrix(12,0,0,12,209.4,450.4)" />
<use xlink:href="#f0_2e" transform="matrix(12,0,0,12,218.6,450.4)" />
<use xlink:href="#f0_1x" transform="matrix(12,0,0,12,224.8,450.4)" />
<use xlink:href="#f0_20" transform="matrix(12,0,0,12,232.9,450.4)" />
<use xlink:href="#f0_21" transform="matrix(12,0,0,12,242.1,450.4)" />
<use xlink:href="#f0_2f" transform="matrix(12,0,0,12,250.1,450.4)" />
<use xlink:href="#f0_22" transform="matrix(12,0,0,12,262.6,450.4)" />
<use xlink:href="#f0_2e" transform="matrix(12,0,0,12,268.1,450.4)" />
<use xlink:href="#f0_2b" transform="matrix(12,0,0,12,274.4,450.4)" />
<use xlink:href="#f0_29" transform="matrix(12,0,0,12,284.2,450.4)" />
<use xlink:href="#f0_2g" transform="matrix(12,0,0,12,302.9,450.4)" />
<use xlink:href="#f0_24" transform="matrix(12,0,0,12,308.4,450.4)" />
<use xlink:href="#f0_21" transform="matrix(12,0,0,12,317.2,450.4)" />
<use xlink:href="#f0_1z" transform="matrix(12,0,0,12,330.4,450.4)" />
<use xlink:href="#f0_24" transform="matrix(12,0,0,12,338.4,450.4)" />
<use xlink:href="#f0_2e" transform="matrix(12,0,0,12,347.2,450.4)" />
<use xlink:href="#f0_2b" transform="matrix(12,0,0,12,353.5,450.4)" />
<use xlink:href="#f0_29" transform="matrix(12,0,0,12,363.3,450.4)" />
<use xlink:href="#f0_2b" transform="matrix(12,0,0,12,376.9,450.4)" />
<use xlink:href="#f0_2f" transform="matrix(12,0,0,12,386.4,450.4)" />
<use xlink:href="#f0_2b" transform="matrix(12,0,0,12,393.4,450.4)" />
<use xlink:href="#f0_29" transform="matrix(12,0,0,12,402.9,450.4)" />
<use xlink:href="#f0_21" transform="matrix(12,0,0,12,416.5,450.4)" />
<use xlink:href="#f0_1x" transform="matrix(12,0,0,12,430,450.4)" />
<use xlink:href="#f0_2e" transform="matrix(12,0,0,12,438.1,450.4)" />
<use xlink:href="#f0_29" transform="matrix(12,0,0,12,444.7,450.4)" />
<use xlink:href="#f0_2f" transform="matrix(12,0,0,12,458.2,450.4)" />
<use xlink:href="#f0_2j" transform="matrix(12,0,0,12,470.3,450.4)" />
<use xlink:href="#f0_24" transform="matrix(12,0,0,12,483.9,450.4)" />
<use xlink:href="#f0_25" transform="matrix(12,0,0,12,493,450.4)" />
<use xlink:href="#f0_28" transform="matrix(12,0,0,12,498.1,450.4)" />
<use xlink:href="#f0_21" transform="matrix(12,0,0,12,502.9,450.4)" />
<use xlink:href="#f0_2e" transform="matrix(12,0,0,12,516.5,450.4)" />
<use xlink:href="#f0_21" transform="matrix(12,0,0,12,522.7,450.4)" />
<use xlink:href="#f0_29" transform="matrix(12,0,0,12,531.1,450.4)" />
<use xlink:href="#f0_1x" transform="matrix(12,0,0,12,544.6,450.4)" />
<use xlink:href="#f0_25" transform="matrix(12,0,0,12,553.1,450.4)" />
<use xlink:href="#f0_2a" transform="matrix(12,0,0,12,557.8,450.4)" />
<use xlink:href="#f0_25" transform="matrix(12,0,0,12,567.3,450.4)" />
<use xlink:href="#f0_2a" transform="matrix(12,0,0,12,572.1,450.4)" />
<use xlink:href="#f0_23" transform="matrix(12,0,0,12,581.3,450.4)" />
<use xlink:href="#f0_2f" transform="matrix(12,0,0,12,595.6,450.4)" />
<use xlink:href="#f0_1x" transform="matrix(12,0,0,12,602.5,450.4)" />
<use xlink:href="#f0_22" transform="matrix(12,0,0,12,610.9,450.4)" />
<use xlink:href="#f0_21" transform="matrix(12,0,0,12,616.8,450.4)" />
<use xlink:href="#f0_2f" transform="matrix(12,0,0,12,630.1,450.4)" />
<use xlink:href="#f0_2h" transform="matrix(12,0,0,12,637.1,450.4)" />
<use xlink:href="#f0_2e" transform="matrix(12,0,0,12,646.3,450.4)" />
<use xlink:href="#f0_2e" transform="matrix(12,0,0,12,652.5,450.4)" />
<use xlink:href="#f0_2b" transform="matrix(12,0,0,12,658.7,450.4)" />
<use xlink:href="#f0_2h" transform="matrix(12,0,0,12,668.2,450.4)" />
<use xlink:href="#f0_2a" transform="matrix(12,0,0,12,677.4,450.4)" />
<use xlink:href="#f0_20" transform="matrix(12,0,0,12,686.2,450.4)" />
<use xlink:href="#f0_25" transform="matrix(12,0,0,12,695.7,450.4)" />
<use xlink:href="#f0_2a" transform="matrix(12,0,0,12,700.5,450.4)" />
<use xlink:href="#f0_23" transform="matrix(12,0,0,12,709.3,450.4)" />
<use xlink:href="#f0_2g" transform="matrix(12,0,0,12,723.6,450.4)" />
<use xlink:href="#f0_24" transform="matrix(12,0,0,12,729,450.4)" />
<use xlink:href="#f0_21" transform="matrix(12,0,0,12,737.8,450.4)" />
<use xlink:href="#f0_1z" transform="matrix(12,0,0,12,751,450.4)" />
<use xlink:href="#f0_21" transform="matrix(12,0,0,12,759.1,450.4)" />
<use xlink:href="#f0_2a" transform="matrix(12,0,0,12,767.5,450.4)" />
<use xlink:href="#f0_2g" transform="matrix(12,0,0,12,776.3,450.4)" />
<use xlink:href="#f0_2e" transform="matrix(12,0,0,12,781.8,450.4)" />
<use xlink:href="#f0_2b" transform="matrix(12,0,0,12,788,450.4)" />
<use xlink:href="#f0_29" transform="matrix(12,0,0,12,797.2,450.4)" />
<use xlink:href="#f0_21" transform="matrix(12,0,0,12,811.1,450.4)" />
<use xlink:href="#f0_2e" transform="matrix(12,0,0,12,819.2,450.4)" />
<use xlink:href="#f0_21" transform="matrix(12,0,0,12,825.4,450.4)" />
<use xlink:href="#f0_i" transform="matrix(12,0,0,12,833.4,450.4)" />
<use xlink:href="#f0_1k" transform="matrix(12,0,0,12,843.7,450.4)" />
<use xlink:href="#f0_24" transform="matrix(12,0,0,12,855,450.4)" />
<use xlink:href="#f0_2h" transform="matrix(12,0,0,12,863.8,450.4)" />
<use xlink:href="#f0_2f" transform="matrix(12,0,0,12,873,450.4)" />
</g>
<path fill-rule="evenodd" d="M55,486H527.5V464.7H55V486Z" class="g1_173" />
<g fill="#000000" >
<use xlink:href="#f0_2g" transform="matrix(12,0,0,12,55,482)" />
<use xlink:href="#f0_24" transform="matrix(12,0,0,12,60.5,482)" />
<use xlink:href="#f0_21" transform="matrix(12,0,0,12,69.3,482)" />
<use xlink:href="#f0_2f" transform="matrix(12,0,0,12,82.1,482)" />
<use xlink:href="#f0_25" transform="matrix(12,0,0,12,89.4,482)" />
<use xlink:href="#f0_2f" transform="matrix(12,0,0,12,93.8,482)" />
<use xlink:href="#f0_2g" transform="matrix(12,0,0,12,100.8,482)" />
<use xlink:href="#f0_21" transform="matrix(12,0,0,12,106.3,482)" />
<use xlink:href="#f0_2e" transform="matrix(12,0,0,12,114.4,482)" />
<use xlink:href="#f0_1z" transform="matrix(12,0,0,12,125.3,482)" />
<use xlink:href="#f0_24" transform="matrix(12,0,0,12,133.4,482)" />
<use xlink:href="#f0_2e" transform="matrix(12,0,0,12,142.2,482)" />
<use xlink:href="#f0_2b" transform="matrix(12,0,0,12,148.4,482)" />
<use xlink:href="#f0_29" transform="matrix(12,0,0,12,157.9,482)" />
<use xlink:href="#f0_1x" transform="matrix(12,0,0,12,171.5,482)" />
<use xlink:href="#f0_2g" transform="matrix(12,0,0,12,179.6,482)" />
<use xlink:href="#f0_25" transform="matrix(12,0,0,12,185.4,482)" />
<use xlink:href="#f0_20" transform="matrix(12,0,0,12,189.8,482)" />
<use xlink:href="#f0_2f" transform="matrix(12,0,0,12,199.3,482)" />
<use xlink:href="#f0_2e" transform="matrix(12,0,0,12,211.3,482)" />
<use xlink:href="#f0_21" transform="matrix(12,0,0,12,217.5,482)" />
<use xlink:href="#f0_29" transform="matrix(12,0,0,12,225.9,482)" />
<use xlink:href="#f0_1x" transform="matrix(12,0,0,12,239.5,482)" />
<use xlink:href="#f0_25" transform="matrix(12,0,0,12,247.9,482)" />
<use xlink:href="#f0_2a" transform="matrix(12,0,0,12,252.7,482)" />
<use xlink:href="#f0_2g" transform="matrix(12,0,0,12,266.7,482)" />
<use xlink:href="#f0_2b" transform="matrix(12,0,0,12,271.8,482)" />
<use xlink:href="#f0_23" transform="matrix(12,0,0,12,281.3,482)" />
<use xlink:href="#f0_21" transform="matrix(12,0,0,12,290.5,482)" />
<use xlink:href="#f0_2g" transform="matrix(12,0,0,12,298.2,482)" />
<use xlink:href="#f0_24" transform="matrix(12,0,0,12,303.7,482)" />
<use xlink:href="#f0_21" transform="matrix(12,0,0,12,312.5,482)" />
<use xlink:href="#f0_2e" transform="matrix(12,0,0,12,320.5,482)" />
<use xlink:href="#f0_2j" transform="matrix(12,0,0,12,331.5,482)" />
<use xlink:href="#f0_24" transform="matrix(12,0,0,12,344.7,482)" />
<use xlink:href="#f0_25" transform="matrix(12,0,0,12,353.9,482)" />
<use xlink:href="#f0_28" transform="matrix(12,0,0,12,359,482)" />
<use xlink:href="#f0_21" transform="matrix(12,0,0,12,363.8,482)" />
<use xlink:href="#f0_24" transform="matrix(12,0,0,12,376.6,482)" />
<use xlink:href="#f0_2b" transform="matrix(12,0,0,12,385.4,482)" />
<use xlink:href="#f0_29" transform="matrix(12,0,0,12,395.3,482)" />
<use xlink:href="#f0_2b" transform="matrix(12,0,0,12,408.8,482)" />
<use xlink:href="#f0_28" transform="matrix(12,0,0,12,418.9,482)" />
<use xlink:href="#f0_2b" transform="matrix(12,0,0,12,423.7,482)" />
<use xlink:href="#f0_23" transform="matrix(12,0,0,12,433.2,482)" />
<use xlink:href="#f0_2f" transform="matrix(12,0,0,12,442.3,482)" />
<use xlink:href="#f0_2f" transform="matrix(12,0,0,12,454.1,482)" />
<use xlink:href="#f0_21" transform="matrix(12,0,0,12,461.1,482)" />
<use xlink:href="#f0_23" transform="matrix(12,0,0,12,469.2,482)" />
<use xlink:href="#f0_2e" transform="matrix(12,0,0,12,478.3,482)" />
<use xlink:href="#f0_21" transform="matrix(12,0,0,12,484.5,482)" />
<use xlink:href="#f0_23" transform="matrix(12,0,0,12,492.6,482)" />
<use xlink:href="#f0_1x" transform="matrix(12,0,0,12,501.8,482)" />
<use xlink:href="#f0_2g" transform="matrix(12,0,0,12,509.5,482)" />
<use xlink:href="#f0_21" transform="matrix(12,0,0,12,514.9,482)" />
<use xlink:href="#f0_i" transform="matrix(12,0,0,12,523.1,482)" />
</g>
<path fill-rule="evenodd" d="M392.5,772.8H542.9V751.5H392.5v21.3Z" class="g1_173" />
<g fill="#000000" >
<use xlink:href="#f1_16" transform="matrix(12,0,0,12,392.5,768.7)" />
<use xlink:href="#f1_25" transform="matrix(12,0,0,12,403.5,768.7)" />
<use xlink:href="#f1_23" transform="matrix(12,0,0,12,408.6,768.7)" />
<use xlink:href="#f1_i" transform="matrix(12,0,0,12,417.7,768.7)" />
<use xlink:href="#f1_t" transform="matrix(12,0,0,12,427.3,768.7)" />
<use xlink:href="#f1_i" transform="matrix(12,0,0,12,436.4,768.7)" />
<use xlink:href="#f1_1d" transform="matrix(12,0,0,12,445.6,768.7)" />
<use xlink:href="#f1_21" transform="matrix(12,0,0,12,463.2,768.7)" />
<use xlink:href="#f1_2g" transform="matrix(12,0,0,12,470.9,768.7)" />
<use xlink:href="#f1_1x" transform="matrix(12,0,0,12,477.1,768.7)" />
<use xlink:href="#f1_2c" transform="matrix(12,0,0,12,486.3,768.7)" />
<use xlink:href="#f1_24" transform="matrix(12,0,0,12,496.5,768.7)" />
<use xlink:href="#f1_1x" transform="matrix(12,0,0,12,506.8,768.7)" />
<use xlink:href="#f1_2f" transform="matrix(12,0,0,12,515.9,768.7)" />
<use xlink:href="#f1_21" transform="matrix(12,0,0,12,522.9,768.7)" />
<use xlink:href="#f1_19" transform="matrix(12,0,0,12,535.7,768.7)" />
</g>
<path fill-rule="evenodd" d="M55,816.4h91.3V795.1H55v21.3Z" class="g1_173" />
<g fill="#000000" >
<use xlink:href="#f1_1k" transform="matrix(12,0,0,12,55,812.4)" />
<use xlink:href="#f1_21" transform="matrix(12,0,0,12,67.1,812.4)" />
<use xlink:href="#f1_28" transform="matrix(12,0,0,12,75.2,812.4)" />
<use xlink:href="#f1_2b" transform="matrix(12,0,0,12,80,812.4)" />
<use xlink:href="#f1_2c" transform="matrix(12,0,0,12,89.1,812.4)" />
<use xlink:href="#f1_24" transform="matrix(12,0,0,12,99.4,812.4)" />
<use xlink:href="#f1_1x" transform="matrix(12,0,0,12,109.6,812.4)" />
<use xlink:href="#f1_2f" transform="matrix(12,0,0,12,118.8,812.4)" />
<use xlink:href="#f1_21" transform="matrix(12,0,0,12,126.1,812.4)" />
<use xlink:href="#f1_19" transform="matrix(12,0,0,12,138.9,812.4)" />
</g>
<path fill-rule="evenodd" d="M55,816h91.3v-1.8H55V816Z" class="g0_173" />
<path fill-rule="evenodd" d="M52.8,870.7H882.5V839.2H52.8v31.5Z" class="g1_173" />
<g fill="#212121" >
<use xlink:href="#f0_15" transform="matrix(12,0,0,12,55,856.4)" />
<use xlink:href="#f0_1x" transform="matrix(12,0,0,12,66.4,856.4)" />
<use xlink:href="#f0_1z" transform="matrix(12,0,0,12,74.5,856.4)" />
<use xlink:href="#f0_24" transform="matrix(12,0,0,12,82.5,856.4)" />
<use xlink:href="#f0_20" transform="matrix(12,0,0,12,98.6,856.4)" />
<use xlink:href="#f0_1x" transform="matrix(12,0,0,12,107.8,856.4)" />
<use xlink:href="#f0_2h" transform="matrix(12,0,0,12,115.9,856.4)" />
<use xlink:href="#f0_23" transform="matrix(12,0,0,12,125,856.4)" />
<use xlink:href="#f0_24" transform="matrix(12,0,0,12,134.5,856.4)" />
<use xlink:href="#f0_2g" transform="matrix(12,0,0,12,143.3,856.4)" />
<use xlink:href="#f0_21" transform="matrix(12,0,0,12,148.8,856.4)" />
<use xlink:href="#f0_2e" transform="matrix(12,0,0,12,156.9,856.4)" />
<use xlink:href="#f0_1z" transform="matrix(12,0,0,12,170.4,856.4)" />
<use xlink:href="#f0_21" transform="matrix(12,0,0,12,178.5,856.4)" />
<use xlink:href="#f0_28" transform="matrix(12,0,0,12,186.6,856.4)" />
<use xlink:href="#f0_28" transform="matrix(12,0,0,12,191.3,856.4)" />
<use xlink:href="#f0_2a" transform="matrix(12,0,0,12,203.8,856.4)" />
<use xlink:href="#f0_2b" transform="matrix(12,0,0,12,212.6,856.4)" />
<use xlink:href="#f0_2j" transform="matrix(12,0,0,12,222.1,856.4)" />
<use xlink:href="#f0_24" transform="matrix(12,0,0,12,242.6,856.4)" />
<use xlink:href="#f0_1x" transform="matrix(12,0,0,12,251.4,856.4)" />
<use xlink:href="#f0_2f" transform="matrix(12,0,0,12,259.5,856.4)" />
<use xlink:href="#f0_24" transform="matrix(12,0,0,12,274.1,856.4)" />
<use xlink:href="#f0_1x" transform="matrix(12,0,0,12,282.9,856.4)" />
<use xlink:href="#f0_28" transform="matrix(12,0,0,12,291.3,856.4)" />
<use xlink:href="#f0_22" transform="matrix(12,0,0,12,296.1,856.4)" />
<use xlink:href="#f0_2g" transform="matrix(12,0,0,12,309.3,856.4)" />
<use xlink:href="#f0_24" transform="matrix(12,0,0,12,314.8,856.4)" />
<use xlink:href="#f0_21" transform="matrix(12,0,0,12,323.6,856.4)" />
<use xlink:href="#f0_2a" transform="matrix(12,0,0,12,339.3,856.4)" />
<use xlink:href="#f0_2h" transform="matrix(12,0,0,12,348.1,856.4)" />
<use xlink:href="#f0_29" transform="matrix(12,0,0,12,357.6,856.4)" />
<use xlink:href="#f0_1y" transform="matrix(12,0,0,12,371.6,856.4)" />
<use xlink:href="#f0_21" transform="matrix(12,0,0,12,380.7,856.4)" />
<use xlink:href="#f0_2e" transform="matrix(12,0,0,12,388.8,856.4)" />
<use xlink:href="#f0_2b" transform="matrix(12,0,0,12,402.3,856.4)" />
<use xlink:href="#f0_22" transform="matrix(12,0,0,12,411.8,856.4)" />
<use xlink:href="#f0_1z" transform="matrix(12,0,0,12,424.7,856.4)" />
<use xlink:href="#f0_24" transform="matrix(12,0,0,12,432.7,856.4)" />
<use xlink:href="#f0_2e" transform="matrix(12,0,0,12,441.5,856.4)" />
<use xlink:href="#f0_2b" transform="matrix(12,0,0,12,447.7,856.4)" />
<use xlink:href="#f0_29" transform="matrix(12,0,0,12,457.6,856.4)" />
<use xlink:href="#f0_2b" transform="matrix(12,0,0,12,471.2,856.4)" />
<use xlink:href="#f0_2f" transform="matrix(12,0,0,12,480.7,856.4)" />
<use xlink:href="#f0_2b" transform="matrix(12,0,0,12,487.7,856.4)" />
<use xlink:href="#f0_29" transform="matrix(12,0,0,12,497.2,856.4)" />
<use xlink:href="#f0_21" transform="matrix(12,0,0,12,510.7,856.4)" />
<use xlink:href="#f0_2f" transform="matrix(12,0,0,12,519.2,856.4)" />
<use xlink:href="#f0_1x" transform="matrix(12,0,0,12,533.4,856.4)" />
<use xlink:href="#f0_2f" transform="matrix(12,0,0,12,541.5,856.4)" />
<use xlink:href="#f0_1z" transform="matrix(12,0,0,12,555.8,856.4)" />
<use xlink:href="#f0_2b" transform="matrix(12,0,0,12,563.9,856.4)" />
<use xlink:href="#f0_29" transform="matrix(12,0,0,12,573.7,856.4)" />
<use xlink:href="#f0_2c" transform="matrix(12,0,0,12,587.3,856.4)" />
<use xlink:href="#f0_1x" transform="matrix(12,0,0,12,596.5,856.4)" />
<use xlink:href="#f0_2e" transform="matrix(12,0,0,12,604.5,856.4)" />
<use xlink:href="#f0_21" transform="matrix(12,0,0,12,610.8,856.4)" />
<use xlink:href="#f0_20" transform="matrix(12,0,0,12,618.8,856.4)" />
<use xlink:href="#f0_2g" transform="matrix(12,0,0,12,635.3,856.4)" />
<use xlink:href="#f0_2b" transform="matrix(12,0,0,12,640.4,856.4)" />
<use xlink:href="#f0_2c" transform="matrix(12,0,0,12,657.3,856.4)" />
<use xlink:href="#f0_1x" transform="matrix(12,0,0,12,666.4,856.4)" />
<use xlink:href="#f0_2e" transform="matrix(12,0,0,12,674.1,856.4)" />
<use xlink:href="#f0_21" transform="matrix(12,0,0,12,680.3,856.4)" />
<use xlink:href="#f0_2a" transform="matrix(12,0,0,12,688.4,856.4)" />
<use xlink:href="#f0_2g" transform="matrix(12,0,0,12,697.2,856.4)" />
<use xlink:href="#f0_1z" transform="matrix(12,0,0,12,710,856.4)" />
<use xlink:href="#f0_21" transform="matrix(12,0,0,12,718.1,856.4)" />
<use xlink:href="#f0_28" transform="matrix(12,0,0,12,726.1,856.4)" />
<use xlink:href="#f0_28" transform="matrix(12,0,0,12,730.9,856.4)" />
<use xlink:href="#f0_i" transform="matrix(12,0,0,12,735.7,856.4)" />
<use xlink:href="#f0_1k" transform="matrix(12,0,0,12,747.7,856.4)" />
<use xlink:href="#f0_24" transform="matrix(12,0,0,12,759.1,856.4)" />
<use xlink:href="#f0_21" transform="matrix(12,0,0,12,767.9,856.4)" />
<use xlink:href="#f0_29" transform="matrix(12,0,0,12,783.6,856.4)" />
<use xlink:href="#f0_25" transform="matrix(12,0,0,12,797.6,856.4)" />
<use xlink:href="#f0_1z" transform="matrix(12,0,0,12,802.3,856.4)" />
<use xlink:href="#f0_2e" transform="matrix(12,0,0,12,810.4,856.4)" />
<use xlink:href="#f0_2b" transform="matrix(12,0,0,12,816.6,856.4)" />
<use xlink:href="#f0_2g" transform="matrix(12,0,0,12,826.1,856.4)" />
<use xlink:href="#f0_2h" transform="matrix(12,0,0,12,831.6,856.4)" />
<use xlink:href="#f0_1y" transform="matrix(12,0,0,12,840.8,856.4)" />
<use xlink:href="#f0_2h" transform="matrix(12,0,0,12,849.6,856.4)" />
<use xlink:href="#f0_28" transform="matrix(12,0,0,12,858.8,856.4)" />
<use xlink:href="#f0_21" transform="matrix(12,0,0,12,863.5,856.4)" />
<use xlink:href="#f0_2f" transform="matrix(12,0,0,12,871.9,856.4)" />
</g>
<path fill-rule="evenodd" d="M52.8,902.3H882.5V870.7H52.8v31.6Z" class="g1_173" />
<g fill="#212121" >
<use xlink:href="#f0_22" transform="matrix(12,0,0,12,55,888)" />
<use xlink:href="#f0_2b" transform="matrix(12,0,0,12,60.5,888)" />
<use xlink:href="#f0_2e" transform="matrix(12,0,0,12,70.1,888)" />
<use xlink:href="#f0_29" transform="matrix(12,0,0,12,76.6,888)" />
<use xlink:href="#f0_25" transform="matrix(12,0,0,12,90.6,888)" />
<use xlink:href="#f0_2a" transform="matrix(12,0,0,12,95.3,888)" />
<use xlink:href="#f0_23" transform="matrix(12,0,0,12,104.5,888)" />
<use xlink:href="#f0_2g" transform="matrix(12,0,0,12,118.1,888)" />
<use xlink:href="#f0_24" transform="matrix(12,0,0,12,123.6,888)" />
<use xlink:href="#f0_21" transform="matrix(12,0,0,12,132.4,888)" />
<use xlink:href="#f0_2f" transform="matrix(12,0,0,12,144.9,888)" />
<use xlink:href="#f0_2c" transform="matrix(12,0,0,12,151.8,888)" />
<use xlink:href="#f0_25" transform="matrix(12,0,0,12,161.3,888)" />
<use xlink:href="#f0_2a" transform="matrix(12,0,0,12,166.1,888)" />
<use xlink:href="#f0_20" transform="matrix(12,0,0,12,175.3,888)" />
<use xlink:href="#f0_28" transform="matrix(12,0,0,12,184.8,888)" />
<use xlink:href="#f0_21" transform="matrix(12,0,0,12,189.5,888)" />
<use xlink:href="#f0_1y" transform="matrix(12,0,0,12,202.5,888)" />
<use xlink:href="#f0_21" transform="matrix(12,0,0,12,211.3,888)" />
<use xlink:href="#f0_23" transform="matrix(12,0,0,12,219.3,888)" />
<use xlink:href="#f0_25" transform="matrix(12,0,0,12,228.9,888)" />
<use xlink:href="#f0_2a" transform="matrix(12,0,0,12,233.6,888)" />
<use xlink:href="#f0_2g" transform="matrix(12,0,0,12,247.2,888)" />
<use xlink:href="#f0_2b" transform="matrix(12,0,0,12,252.3,888)" />
<use xlink:href="#f0_20" transform="matrix(12,0,0,12,266.3,888)" />
<use xlink:href="#f0_25" transform="matrix(12,0,0,12,275.4,888)" />
<use xlink:href="#f0_2f" transform="matrix(12,0,0,12,280.2,888)" />
<use xlink:href="#f0_1x" transform="matrix(12,0,0,12,287.2,888)" />
<use xlink:href="#f0_2c" transform="matrix(12,0,0,12,295.2,888)" />
<use xlink:href="#f0_2c" transform="matrix(12,0,0,12,304.4,888)" />
<use xlink:href="#f0_21" transform="matrix(12,0,0,12,313.6,888)" />
<use xlink:href="#f0_1x" transform="matrix(12,0,0,12,321.6,888)" />
<use xlink:href="#f0_2e" transform="matrix(12,0,0,12,329.7,888)" />
<use xlink:href="#f0_i" transform="matrix(12,0,0,12,335.9,888)" />
<use xlink:href="#f0_1k" transform="matrix(12,0,0,12,345.1,888)" />
<use xlink:href="#f0_24" transform="matrix(12,0,0,12,356.4,888)" />
<use xlink:href="#f0_21" transform="matrix(12,0,0,12,365.2,888)" />
<use xlink:href="#f0_1z" transform="matrix(12,0,0,12,377.7,888)" />
<use xlink:href="#f0_24" transform="matrix(12,0,0,12,386.1,888)" />
<use xlink:href="#f0_2e" transform="matrix(12,0,0,12,394.9,888)" />
<use xlink:href="#f0_2b" transform="matrix(12,0,0,12,401.1,888)" />
<use xlink:href="#f0_29" transform="matrix(12,0,0,12,410.6,888)" />
<use xlink:href="#f0_2b" transform="matrix(12,0,0,12,424.5,888)" />
<use xlink:href="#f0_2f" transform="matrix(12,0,0,12,434.1,888)" />
<use xlink:href="#f0_2b" transform="matrix(12,0,0,12,440.7,888)" />
<use xlink:href="#f0_29" transform="matrix(12,0,0,12,450.2,888)" />
<use xlink:href="#f0_21" transform="matrix(12,0,0,12,464.1,888)" />
<use xlink:href="#f0_2f" transform="matrix(12,0,0,12,472.2,888)" />
<use xlink:href="#f0_22" transform="matrix(12,0,0,12,483.9,888)" />
<use xlink:href="#f0_2b" transform="matrix(12,0,0,12,489.4,888)" />
<use xlink:href="#f0_2e" transform="matrix(12,0,0,12,498.9,888)" />
<use xlink:href="#f0_29" transform="matrix(12,0,0,12,505.5,888)" />
<use xlink:href="#f0_2f" transform="matrix(12,0,0,12,519.1,888)" />
<use xlink:href="#f0_1z" transform="matrix(12,0,0,12,530.4,888)" />
<use xlink:href="#f0_24" transform="matrix(12,0,0,12,538.8,888)" />
<use xlink:href="#f0_2e" transform="matrix(12,0,0,12,547.6,888)" />
<use xlink:href="#f0_2b" transform="matrix(12,0,0,12,553.9,888)" />
<use xlink:href="#f0_29" transform="matrix(12,0,0,12,563.7,888)" />
<use xlink:href="#f0_1x" transform="matrix(12,0,0,12,577.3,888)" />
<use xlink:href="#f0_2g" transform="matrix(12,0,0,12,585.4,888)" />
<use xlink:href="#f0_25" transform="matrix(12,0,0,12,591.2,888)" />
<use xlink:href="#f0_2a" transform="matrix(12,0,0,12,596,888)" />
<use xlink:href="#f0_2b" transform="matrix(12,0,0,12,609.6,888)" />
<use xlink:href="#f0_2a" transform="matrix(12,0,0,12,619.1,888)" />
<use xlink:href="#f0_1z" transform="matrix(12,0,0,12,627.9,888)" />
<use xlink:href="#f0_21" transform="matrix(12,0,0,12,636,888)" />
<use xlink:href="#f0_1x" transform="matrix(12,0,0,12,648.5,888)" />
<use xlink:href="#f0_23" transform="matrix(12,0,0,12,656.5,888)" />
<use xlink:href="#f0_1x" transform="matrix(12,0,0,12,665.7,888)" />
<use xlink:href="#f0_25" transform="matrix(12,0,0,12,674.1,888)" />
<use xlink:href="#f0_2a" transform="matrix(12,0,0,12,678.9,888)" />
<use xlink:href="#f0_i" transform="matrix(12,0,0,12,687.8,888)" />
<use xlink:href="#f0_1j" transform="matrix(12,0,0,12,696.9,888)" />
<use xlink:href="#f0_25" transform="matrix(12,0,0,12,707.5,888)" />
<use xlink:href="#f0_2f" transform="matrix(12,0,0,12,712.3,888)" />
<use xlink:href="#f0_2g" transform="matrix(12,0,0,12,719.3,888)" />
<use xlink:href="#f0_21" transform="matrix(12,0,0,12,724.7,888)" />
<use xlink:href="#f0_2e" transform="matrix(12,0,0,12,732.8,888)" />
<use xlink:href="#f0_1z" transform="matrix(12,0,0,12,743.4,888)" />
<use xlink:href="#f0_24" transform="matrix(12,0,0,12,751.5,888)" />
<use xlink:href="#f0_2e" transform="matrix(12,0,0,12,760.3,888)" />
<use xlink:href="#f0_2b" transform="matrix(12,0,0,12,766.5,888)" />
<use xlink:href="#f0_29" transform="matrix(12,0,0,12,776,888)" />
<use xlink:href="#f0_1x" transform="matrix(12,0,0,12,789.9,888)" />
<use xlink:href="#f0_2g" transform="matrix(12,0,0,12,798.4,888)" />
<use xlink:href="#f0_25" transform="matrix(12,0,0,12,803.8,888)" />
<use xlink:href="#f0_20" transform="matrix(12,0,0,12,808.2,888)" />
<use xlink:href="#f0_2f" transform="matrix(12,0,0,12,817.4,888)" />
<use xlink:href="#f0_2e" transform="matrix(12,0,0,12,829,888)" />
<use xlink:href="#f0_21" transform="matrix(12,0,0,12,835.2,888)" />
<use xlink:href="#f0_29" transform="matrix(12,0,0,12,843.6,888)" />
<use xlink:href="#f0_1x" transform="matrix(12,0,0,12,857.5,888)" />
<use xlink:href="#f0_25" transform="matrix(12,0,0,12,865.9,888)" />
<use xlink:href="#f0_2a" transform="matrix(12,0,0,12,871,888)" />
</g>
<path fill-rule="evenodd" d="M52.8,943.3H882.5v-41H52.8v41Z" class="g1_173" />
<g fill="#212121" >
<use xlink:href="#f0_1x" transform="matrix(12,0,0,12,55,919.5)" />
<use xlink:href="#f0_2g" transform="matrix(12,0,0,12,63.1,919.5)" />
<use xlink:href="#f0_2g" transform="matrix(12,0,0,12,68.2,919.5)" />
<use xlink:href="#f0_1x" transform="matrix(12,0,0,12,73.7,919.5)" />
<use xlink:href="#f0_1z" transform="matrix(12,0,0,12,81.8,919.5)" />
<use xlink:href="#f0_24" transform="matrix(12,0,0,12,89.9,919.5)" />
<use xlink:href="#f0_21" transform="matrix(12,0,0,12,98.7,919.5)" />
<use xlink:href="#f0_20" transform="matrix(12,0,0,12,106.7,919.5)" />
<use xlink:href="#f0_i" transform="matrix(12,0,0,12,115.9,919.5)" />
</g>
<image preserveAspectRatio="none" x="238" y="130" width="459" height="161" xlink:href="img/1.png" />
<image preserveAspectRatio="none" x="238" y="508" width="459" height="220" xlink:href="img/2.png" />
<g fill="#000000" >
<use xlink:href="#f2_r" transform="matrix(8,0,0,8,818.2,1187.9)" />
</g>
<defs>
<path d="M44,0V40L172,60V941L44,960v40H445V960L316,941V549H787V941L659,960v40h400V960L930,941V60L1059,40V0H659V40L787,60V481H316V60L445,40V0Z" 
id="f0_18"
transform="scale(0.001,-0.001)" />

<path d="M377,45c0,0,99,0,147,73c0,0,47,73,47,237c0,0,0,161,-47,233c0,0,-47,72,-147,72c0,0,-97,0,-141,-69c0,0,-44,-69,-44,-236c0,0,0,-169,45,-240c0,0,44,-70,140,-70Zm0,-59c0,0,-158,0,-238,94c0,0,-81,95,-81,274c0,0,0,178,81,272c0,0,80,94,244,94c0,0,160,0,241,-92c0,0,82,-92,82,-274c0,0,0,-368,-329,-368Z" 
id="f0_2b"
transform="scale(0.001,-0.001)" />

<path d="M431,0V33L535,52V499c0,0,0,62,-32,96c0,0,-32,33,-95,33c0,0,-66,0,-163,-22V52L350,33V0H32V33l89,19V649L32,668v33H237l6,-57c0,0,56,32,119,54c0,0,62,22,110,22c0,0,52,0,95,-20c0,0,44,-19,66,-62c0,0,57,32,134,57c0,0,77,25,128,25c0,0,179,0,179,-207V52l90,-19V0H846V33L950,52V499c0,0,0,129,-119,129c0,0,-19,0,-45,-3c0,0,-26,-3,-52,-7c0,0,-25,-4,-49,-8c0,0,-23,-5,-39,-8c0,0,13,-41,13,-89V52L764,33V0Z" 
id="f0_29"
transform="scale(0.001,-0.001)" />

<path d="M31,0V33L150,52v956L31,1026v34H274V52L394,33V0Z" 
id="f0_28"
transform="scale(0.001,-0.001)" />

<path d="M359,-270c0,0,124,0,192,46c0,0,67,47,67,129c0,0,0,43,-26,67c0,0,-26,24,-79,24H242c0,0,-32,-27,-51,-69c0,0,-20,-41,-20,-77c0,0,0,-64,46,-92c0,0,46,-28,142,-28Zm11,561c0,0,81,0,115,47c0,0,34,47,34,141c0,0,0,100,-35,142c0,0,-35,42,-113,42c0,0,-78,0,-114,-43c0,0,-37,-42,-37,-141c0,0,0,-98,36,-143c0,0,36,-45,114,-45ZM359,-329c0,0,-143,0,-218,44c0,0,-75,43,-75,125c0,0,0,39,27,78c0,0,26,38,98,89c0,0,-43,14,-72,48c0,0,-29,35,-29,74L208,262c0,0,-118,55,-118,217c0,0,0,115,73,178c0,0,73,63,211,63c0,0,28,0,71,-6c0,0,44,-6,67,-13l165,83l26,-32L599,644c0,0,50,-56,50,-165c0,0,0,-120,-72,-182c0,0,-73,-62,-208,-62c0,0,-62,0,-114,11L208,148c0,0,2,-13,29,-24c0,0,27,-12,67,-12H512c0,0,113,0,168,-49c0,0,55,-49,55,-134c0,0,0,-79,-44,-137c0,0,-43,-58,-128,-90c0,0,-84,-31,-204,-31Z" 
id="f0_23"
transform="scale(0.001,-0.001)" />

<path d="M289,-14c0,0,-179,0,-179,205V649L20,668v33H233V200c0,0,0,-128,120,-128c0,0,92,0,173,23V649L420,668v33H649V52L738,33V0H533l-6,57C527,57,474,28,405,7c0,0,-69,-21,-116,-21Z" 
id="f0_2h"
transform="scale(0.001,-0.001)" />

<path d="M278,-14c0,0,-52,0,-115,11c0,0,-63,10,-99,23V193H98L134,95c0,0,56,-50,146,-50c0,0,144,0,144,123c0,0,0,91,-114,130l-66,21c0,0,-75,25,-110,50c0,0,-34,26,-53,63c0,0,-18,36,-18,89c0,0,0,92,63,145c0,0,63,54,170,54c0,0,77,0,193,-23V544H454l-32,81c0,0,-39,35,-124,35c0,0,-61,0,-92,-30c0,0,-32,-30,-32,-80c0,0,0,-43,29,-72c0,0,28,-29,86,-48c0,0,110,-38,144,-55c0,0,33,-17,57,-42c0,0,23,-25,36,-57c0,0,13,-32,13,-79c0,0,0,-104,-66,-158c0,0,-66,-53,-195,-53Z" 
id="f0_2f"
transform="scale(0.001,-0.001)" />

<path d="M399,-14c0,0,-341,0,-341,370c0,0,0,175,87,269c0,0,87,95,249,95c0,0,101,0,220,-23V501H573L541,625c0,0,-62,35,-149,35c0,0,-200,0,-200,-304c0,0,0,-158,61,-225c0,0,61,-67,189,-67c0,0,109,0,189,24V43C631,43,595,16,530,1c0,0,-64,-15,-131,-15Z" 
id="f0_1z"
transform="scale(0.001,-0.001)" />

<path d="M442,0V33l93,19V504c0,0,0,129,-124,129c0,0,-70,0,-168,-22V52L338,33V0H31V33l88,19v956L15,1026v34H243V756c0,0,0,-77,-5,-112c0,0,54,31,122,53c0,0,68,23,115,23c0,0,91,0,137,-53c0,0,47,-53,47,-154V52L744,33V0Z" 
id="f0_24"
transform="scale(0.001,-0.001)" />

<path d="M31,0V33l88,19V649L31,668v33H235l7,-87c0,0,44,37,121,71c0,0,76,35,121,35h11V530H463l-43,82c0,0,-37,0,-88,-10c0,0,-52,-10,-89,-26V52L363,33V0Z" 
id="f0_2e"
transform="scale(0.001,-0.001)" />

<path d="M495,413c0,0,0,133,-34,190c0,0,-34,57,-105,57c0,0,-78,0,-119,-63c0,0,-42,-62,-42,-184ZM374,-14c0,0,-163,0,-239,87c0,0,-75,88,-75,283c0,0,0,183,77,273c0,0,76,91,219,91c0,0,269,0,269,-306V353H194V340c0,0,0,-103,23,-160c0,0,22,-57,70,-87c0,0,47,-29,124,-29c0,0,40,0,96,6c0,0,55,7,91,15V43C598,43,562,20,500,3c0,0,-61,-17,-126,-17Z" 
id="f0_21"
transform="scale(0.001,-0.001)" />

<path d="M284,67c0,0,51,0,88,12c0,0,37,12,74,30V358l-98,-3c0,0,-100,-4,-135,-39c0,0,-35,-35,-35,-117c0,0,0,-132,106,-132ZM233,-14c0,0,-179,0,-179,208c0,0,0,70,27,116c0,0,27,46,87,70c0,0,60,24,173,27l105,3V519c0,0,0,72,-26,107c0,0,-27,34,-82,34c0,0,-75,0,-137,-35L176,538H134V691c0,0,121,26,213,26c0,0,115,0,169,-47c0,0,54,-47,54,-144V52L657,33V0H465L451,70c0,0,-85,-84,-218,-84Z" 
id="f0_1x"
transform="scale(0.001,-0.001)" />

<path d="M32,0V33L151,52V649L52,668v33H275V52L395,33V0ZM201,850c0,0,-32,0,-56,24c0,0,-24,24,-24,56c0,0,0,34,24,58c0,0,24,24,56,24c0,0,34,0,58,-24c0,0,24,-24,24,-58c0,0,0,-32,-24,-56c0,0,-24,-24,-58,-24Z" 
id="f0_25"
transform="scale(0.001,-0.001)" />

<path d="M439,0V33l93,19V500c0,0,0,62,-30,97c0,0,-31,36,-94,36c0,0,-67,0,-165,-22V52L338,33V0H35V33l84,19V649L35,668v33H235l7,-57c0,0,57,33,122,54c0,0,65,22,108,22c0,0,91,0,137,-53c0,0,47,-53,47,-154V52L741,33V0Z" 
id="f0_2a"
transform="scale(0.001,-0.001)" />

<path d="M383,64c0,0,85,0,152,28V645c0,0,-67,13,-152,13c0,0,-194,0,-194,-314c0,0,0,-141,48,-211c0,0,48,-69,146,-69ZM342,-14c0,0,-287,0,-287,358c0,0,0,184,82,280c0,0,81,96,239,96c0,0,81,0,163,-18c0,0,-4,25,-4,124v182l-118,18v34H659V52L745,33V0H548l-9,52c0,0,-84,-66,-197,-66Z" 
id="f0_20"
transform="scale(0.001,-0.001)" />

<path d="M249,-14c0,0,-71,0,-107,42c0,0,-35,42,-35,119V639H15v33l93,29l76,159h47V701H391V639H231V161c0,0,0,-48,22,-73c0,0,22,-24,57,-24c0,0,44,0,106,12V26C416,26,389,8,340,-2c0,0,-49,-12,-91,-12Z" 
id="f0_2g"
transform="scale(0.001,-0.001)" />

<path d="M382,45c0,0,188,0,188,314c0,0,0,143,-47,213c0,0,-46,69,-141,69c0,0,-87,0,-146,-24V58c0,0,67,-13,146,-13ZM25,-325v35l88,18V649L34,668v33H231l1,-41c0,0,31,27,84,43c0,0,53,17,107,17c0,0,134,0,208,-94c0,0,73,-93,73,-267c0,0,0,-178,-80,-276c0,0,-80,-97,-232,-97c0,0,-84,0,-160,16c0,0,4,-53,4,-84V-272l123,-18v-35Z" 
id="f0_2c"
transform="scale(0.001,-0.001)" />

<path d="M191,-20c0,0,-39,0,-65,25c0,0,-25,27,-25,64c0,0,0,38,26,64c0,0,26,26,64,26c0,0,38,0,64,-26c0,0,26,-26,26,-64c0,0,0,-37,-25,-64c0,0,-26,-25,-65,-25Z" 
id="f0_i"
transform="scale(0.001,-0.001)" />

<path d="M235,0V40L394,60V936H356c0,0,-189,0,-258,-15L78,766H28v234H908V766H857L837,921c0,0,-22,5,-98,9c0,0,-75,4,-165,4H538V60L697,40V0Z" 
id="f0_1k"
transform="scale(0.001,-0.001)" />

<path d="M64,-325c0,0,-46,0,-107,14v148H-8l19,-81c0,0,25,-21,62,-21c0,0,44,0,67,47c0,0,22,47,22,152V649L57,668v33H286V-28c0,0,0,-146,-57,-221c0,0,-56,-76,-165,-76ZM213,850c0,0,-34,0,-58,24c0,0,-24,24,-24,56c0,0,0,34,24,58c0,0,24,24,58,24c0,0,32,0,56,-24c0,0,24,-24,24,-58c0,0,0,-32,-24,-56c0,0,-24,-24,-56,-24Z" 
id="f0_26"
transform="scale(0.001,-0.001)" />

<path d="M360,-14L72,649L0,668v33H327V668L216,648L420,164L615,649L504,668v33H764V668L697,652L416,-14Z" 
id="f0_2i"
transform="scale(0.001,-0.001)" />

<path d="M477,0V33l64,19L348,354L257,254V52L331,33V0H44V33l89,19v956L29,1026v34H257V338L544,647l-73,20v34H718V667L631,650L431,446L688,50L764,33V0Z" 
id="f0_27"
transform="scale(0.001,-0.001)" />

<path d="M327,-14L84,649L1,668v33H335V668L219,648L385,174L554,632h63L786,171L944,649L830,668v33h267V668l-78,-16L784,-14H726L553,448L382,-14Z" 
id="f0_2j"
transform="scale(0.001,-0.001)" />

<path d="M36,0V54L154,74V926L26,945v55H860V731H790L766,908c0,0,-36,5,-121,8c0,0,-84,2,-133,2H389V508H633l23,127h67V298H656L633,426H389V74L556,54V0Z" 
id="f1_16"
transform="scale(0.001,-0.001)" />

<path d="M34,0V49l76,18V634L38,652v49H325V67L402,49V0ZM217,831c0,0,-48,0,-81,33c0,0,-34,33,-34,82c0,0,0,48,34,81c0,0,34,33,81,33c0,0,48,0,81,-33c0,0,33,-33,33,-81c0,0,0,-47,-33,-81c0,0,-32,-34,-81,-34Z" 
id="f1_25"
transform="scale(0.001,-0.001)" />

<path d="M360,-256c0,0,108,0,167,35c0,0,59,35,59,98c0,0,0,70,-95,70H254c0,0,-65,-47,-65,-108c0,0,0,-47,46,-71c0,0,45,-24,125,-24Zm9,561c0,0,55,0,79,43c0,0,25,43,25,129c0,0,0,87,-24,127c0,0,-25,41,-80,41c0,0,-52,0,-75,-41c0,0,-24,-40,-24,-127c0,0,0,-86,23,-129c0,0,23,-43,76,-43Zm-9,-641c0,0,-153,0,-236,43c0,0,-84,44,-84,120c0,0,0,33,28,65c0,0,27,31,105,76c0,0,-44,17,-75,59c0,0,-31,43,-31,90L192,258c0,0,-133,56,-133,219c0,0,0,116,81,180c0,0,82,63,233,63c0,0,32,0,82,-6c0,0,51,-6,74,-13l168,83l26,-32L638,631c0,0,46,-57,46,-154c0,0,0,-119,-80,-182c0,0,-80,-64,-234,-64c0,0,-59,0,-114,9L238,183c0,0,1,-22,28,-41c0,0,26,-19,64,-19H493c0,0,256,0,256,-196c0,0,0,-81,-44,-139c0,0,-45,-59,-131,-92c0,0,-86,-32,-214,-32Z" 
id="f1_23"
transform="scale(0.001,-0.001)" />

<path d="M191,-20c0,0,-51,0,-88,34c0,0,-36,36,-36,88c0,0,0,52,36,88c0,0,36,36,88,36c0,0,51,0,88,-36c0,0,36,-36,36,-88c0,0,0,-51,-36,-87c0,0,-36,-35,-88,-35Z" 
id="f1_i"
transform="scale(0.001,-0.001)" />

<path d="M377,60c0,0,65,0,94,49c0,0,30,49,30,160c0,0,0,115,-30,168c0,0,-29,52,-94,52c0,0,-61,0,-88,-51c0,0,-26,-51,-26,-169c0,0,0,-115,27,-162c0,0,27,-47,87,-47Zm2,509c0,0,51,0,75,43c0,0,24,43,24,143c0,0,0,98,-24,142c0,0,-25,45,-75,45c0,0,-48,0,-71,-45c0,0,-22,-44,-22,-142c0,0,0,-102,22,-144c0,0,22,-42,71,-42ZM377,-14c0,0,-326,0,-326,284c0,0,0,95,46,162c0,0,46,68,128,98c0,0,-72,28,-112,85c0,0,-39,58,-39,141c0,0,0,123,81,191c0,0,81,69,228,69c0,0,145,0,226,-70c0,0,81,-70,81,-192c0,0,0,-82,-40,-140c0,0,-41,-58,-114,-84c0,0,86,-32,132,-99c0,0,45,-67,45,-161c0,0,0,-142,-82,-213c0,0,-81,-71,-254,-71Z" 
id="f1_s"
transform="scale(0.001,-0.001)" />

<path d="M900,0V54l135,20V845L658,0H617L248,845V74L382,54V0H26V54L154,74V926L26,945v55H419L705,342l292,658h401V945L1270,926V74L1398,54V0Z" 
id="f1_1d"
transform="scale(0.001,-0.001)" />

<path d="M434,423c0,0,0,101,-7,142c0,0,-6,40,-22,60c0,0,-16,19,-45,19c0,0,-44,0,-66,-48c0,0,-22,-49,-22,-173ZM389,-14c0,0,-172,0,-254,89c0,0,-83,90,-83,279c0,0,0,184,79,274c0,0,79,91,238,91c0,0,142,0,206,-76c0,0,64,-76,64,-237V345H271V333c0,0,0,-111,18,-158c0,0,18,-47,58,-72c0,0,40,-25,110,-25c0,0,66,0,166,22V42C623,42,582,18,517,1c0,0,-66,-15,-128,-15Z" 
id="f1_21"
transform="scale(0.001,-0.001)" />

<path d="M327,-14c0,0,-101,0,-156,45c0,0,-55,45,-55,131V624H25v48l108,29l87,159H332V701H480V624H332V176c0,0,0,-49,20,-73c0,0,20,-25,53,-25c0,0,40,0,97,12V26c0,0,-22,-15,-76,-27c0,0,-55,-13,-99,-13Z" 
id="f1_2g"
transform="scale(0.001,-0.001)" />

<path d="M345,75c0,0,50,0,110,26V351l-63,-2c0,0,-72,-3,-100,-38c0,0,-28,-35,-28,-113c0,0,0,-63,22,-93c0,0,23,-30,59,-30ZM266,-14c0,0,-217,0,-217,208c0,0,0,79,32,126c0,0,32,48,93,71c0,0,60,22,190,25l91,2V521c0,0,0,126,-104,126c0,0,-62,0,-140,-39L183,521H134V691c0,0,112,17,165,21c0,0,53,5,108,5c0,0,264,0,264,-194V67L741,49V0H483L466,54C466,54,408,14,361,0c0,0,-47,-14,-95,-14Z" 
id="f1_1x"
transform="scale(0.001,-0.001)" />

<path d="M438,65c0,0,131,0,131,293c0,0,0,279,-130,279c0,0,-69,0,-127,-29V80c0,0,60,-15,126,-15ZM20,-325v50l76,18V634L19,652v49H304l1,-36c0,0,80,55,194,55c0,0,146,0,218,-86c0,0,71,-86,71,-271c0,0,0,-183,-83,-280c0,0,-83,-97,-238,-97c0,0,-79,0,-160,19c0,0,5,-48,5,-109V-257l103,-18v-50Z" 
id="f1_2c"
transform="scale(0.001,-0.001)" />

<path d="M41,0V49l69,18V992l-72,18v50H325V756c0,0,0,-49,-4,-116l51,26c0,0,106,54,190,54c0,0,194,0,194,-207V67L827,49V0H478V49l63,18V484c0,0,0,63,-27,98c0,0,-26,35,-75,35c0,0,-57,0,-114,-25V67L389,49V0Z" 
id="f1_24"
transform="scale(0.001,-0.001)" />

<path d="M276,-14c0,0,-57,0,-125,13C151,-1,83,10,48,23V214H97l28,-98c0,0,26,-26,69,-44c0,0,42,-17,86,-17c0,0,65,0,97,28c0,0,32,28,32,71c0,0,0,41,-31,65c0,0,-30,25,-133,57c0,0,-108,34,-154,92c0,0,-45,58,-45,143c0,0,0,95,71,152c0,0,71,57,183,57c0,0,77,0,207,-22V518H457l-24,82c0,0,-21,22,-60,35c0,0,-40,14,-75,14c0,0,-53,0,-79,-22c0,0,-26,-22,-26,-59c0,0,0,-40,32,-65c0,0,32,-26,132,-55c0,0,109,-34,155,-89c0,0,45,-55,45,-137c0,0,0,-117,-72,-177c0,0,-72,-59,-209,-59Z" 
id="f1_2f"
transform="scale(0.001,-0.001)" />

<path d="M51,0V55L180,74V926L51,946v54H543V946L415,926V74L543,55V0Z" 
id="f1_19"
transform="scale(0.001,-0.001)" />

<path d="M639,416L478,858L313,416ZM647,0V54L762,74L667,333H283L191,74L319,54V0H15V54L90,74l355,935H662L1016,74l76,-20V0Z" 
id="f1_11"
transform="scale(0.001,-0.001)" />

<path d="M41,0V49l69,18V634L41,652v49H313l11,-61l50,26c0,0,105,54,188,54c0,0,194,0,194,-207V67L827,49V0H478V49l63,18V484c0,0,0,63,-27,98c0,0,-26,35,-75,35c0,0,-57,0,-114,-25V67L389,49V0Z" 
id="f1_2a"
transform="scale(0.001,-0.001)" />

<path d="M681,416L504,902L333,416ZM669,0V40L803,60L704,348H310L210,60L344,40V0H15V40L128,60l341,949H611L965,60L1092,40V0Z" 
id="f0_11"
transform="scale(0.001,-0.001)" />

<path d="M376,50c0,0,103,0,149,80c0,0,46,81,46,240c0,0,0,137,-47,204c0,0,-48,67,-148,67c0,0,-44,0,-87,-7c0,0,-44,-8,-63,-17V62c0,0,63,-12,150,-12Zm3,-64c0,0,-64,0,-141,14c0,0,-78,14,-136,37v971L0,1026v34H226V809c0,0,0,-40,-4,-148c0,0,74,59,188,59c0,0,143,0,219,-87c0,0,77,-87,77,-263c0,0,0,-189,-84,-287c0,0,-84,-97,-243,-97Z" 
id="f0_1y"
transform="scale(0.001,-0.001)" />

<path d="M58,-234v58c0,0,131,42,131,125c0,0,0,15,-11,27c0,0,-11,12,-38,25C140,1,89,27,89,75c0,0,0,40,25,61c0,0,26,21,65,21c0,0,48,0,77,-34c0,0,30,-34,30,-86c0,0,0,-101,-60,-170c0,0,-59,-69,-168,-101Z" 
id="f0_g"
transform="scale(0.001,-0.001)" />

<path d="M460,-325c0,0,-148,79,-231,172c0,0,-84,93,-123,217c0,0,-39,126,-39,304c0,0,0,178,39,303c0,0,39,125,122,217c0,0,82,93,232,172V997c0,0,-91,-52,-145,-134c0,0,-54,-81,-79,-190c0,0,-25,-109,-25,-305c0,0,0,-194,26,-309c0,0,26,-114,82,-193c0,0,56,-79,141,-128v-63Z" 
id="f0_c"
transform="scale(0.001,-0.001)" />

<path d="M13,0V34L95,46L325,350L122,649L40,668v33H357V668L264,648L399,446L554,649l-96,19v33H710V668L630,652L433,397L663,50L745,34V0H427V34l94,17L359,299L169,50L266,34V0Z" 
id="f0_2k"
transform="scale(0.001,-0.001)" />

<path d="M49,-325v63c0,0,85,49,140,128c0,0,56,79,83,194c0,0,26,115,26,308c0,0,0,196,-25,305c0,0,-25,109,-79,190c0,0,-54,82,-145,134v63c0,0,149,-80,232,-172c0,0,83,-92,122,-217c0,0,39,-125,39,-303c0,0,0,-177,-39,-303c0,0,-39,-125,-122,-217c0,0,-83,-93,-232,-173Z" 
id="f0_d"
transform="scale(0.001,-0.001)" />

<path d="M64,0V34L168,59V639H47v36l121,29v49c0,0,0,155,61,239c0,0,62,84,173,84c0,0,58,0,107,-15V908H472l-33,92c0,0,-26,16,-62,16c0,0,-47,0,-66,-42c0,0,-19,-42,-19,-157V701H478V639H292V59L443,34V0Z" 
id="f0_22"
transform="scale(0.001,-0.001)" />

<path d="M377,478c0,0,57,0,112,14v10c0,0,0,216,-25,325c0,0,-26,110,-91,110c0,0,-112,0,-112,-245c0,0,0,-214,116,-214ZM312,-14c0,0,-124,0,-232,31V245h65L177,99c0,0,26,-18,62,-29c0,0,36,-10,70,-10c0,0,80,0,126,91c0,0,45,92,52,265c0,0,-77,-28,-154,-28c0,0,-135,0,-213,81c0,0,-78,80,-78,226c0,0,0,152,87,234c0,0,87,82,242,82c0,0,176,0,257,-123c0,0,81,-123,81,-385c0,0,0,-169,-48,-284C661,219,614,103,525,44c0,0,-89,-58,-213,-58Z" 
id="f1_t"
transform="scale(0.001,-0.001)" />

<path d="M231,0V54L390,74V921H352c0,0,-171,0,-240,-15L92,721H24v279H996V721H927L907,906c0,0,-62,14,-245,14H626V74L785,54V0Z" 
id="f1_1k"
transform="scale(0.001,-0.001)" />

<path d="M30,0V49l76,18V992l-72,18v50H322V67L398,49V0Z" 
id="f1_28"
transform="scale(0.001,-0.001)" />

<path d="M379,60c0,0,59,0,84,64c0,0,24,65,24,231c0,0,0,164,-24,227c0,0,-24,63,-84,63c0,0,-57,0,-80,-60c0,0,-22,-61,-22,-230c0,0,0,-173,23,-234c0,0,22,-61,79,-61Zm-2,-74c0,0,-161,0,-240,91c0,0,-79,91,-79,277c0,0,0,186,80,276c0,0,81,90,245,90c0,0,167,0,245,-93c0,0,78,-93,78,-273c0,0,0,-188,-81,-278c0,0,-81,-90,-248,-90Z" 
id="f1_2b"
transform="scale(0.001,-0.001)" />

<path d="M44,0V40L172,60V941L44,960v40H794V760H745L721,922c0,0,-83,11,-241,11H316V543H586l23,119h48V354H609L586,475H316V67H513c0,0,193,0,252,12l43,185h49L843,0Z" 
id="f0_15"
transform="scale(0.001,-0.001)" />

<path d="M410,-14c0,0,-80,0,-162,14c0,0,-81,14,-144,38V270h48L178,134c0,0,28,-35,95,-62c0,0,68,-27,134,-27c0,0,104,0,163,53c0,0,58,54,58,148c0,0,0,54,-23,89c0,0,-22,35,-59,59c0,0,-37,24,-84,41c0,0,-47,17,-97,34c0,0,-49,17,-96,38c0,0,-47,21,-84,53c0,0,-37,32,-60,79c0,0,-23,48,-23,117c0,0,0,119,90,187c0,0,89,68,248,68c0,0,121,0,263,-32V771H654L628,893c0,0,-76,55,-188,55c0,0,-100,0,-156,-40c0,0,-56,-41,-56,-112c0,0,0,-49,22,-81c0,0,23,-32,60,-55c0,0,37,-22,84,-39c0,0,48,-16,97,-34c0,0,50,-17,97,-39c0,0,48,-22,85,-56c0,0,36,-34,59,-83c0,0,23,-49,23,-120c0,0,0,-145,-89,-224c0,0,-89,-79,-256,-79Z" 
id="f0_1j"
transform="scale(0.001,-0.001)" />

<path d="M225,0c0,0,2,129,51,312c0,0,48,183,139,352c0,0,91,170,193,286H72v129H780V975C780,975,676,864,573,680C573,680,470,495,414,301C414,301,374,163,363,0Z" 
id="f2_r"
transform="scale(0.001,-0.001)" />


</defs>
</svg>