<?xml version="1.0" encoding="UTF-8" standalone="no"?>
<!DOCTYPE svg PUBLIC "-//W3C//DTD SVG 1.1//EN"
"http://www.w3.org/Graphics/SVG/1.1/DTD/svg11.dtd">
<svg viewBox="0 0 935 1210" version="1.1" xmlns="http://www.w3.org/2000/svg" xmlns:xlink="http://www.w3.org/1999/xlink">
<defs>
<style type="text/css"><![CDATA[
.g0_175{
fill: #FFFFFF;
}
]]></style>
</defs>
<path fill-rule="evenodd" d="M52.8,705.3H882.5V55H52.8V705.3Z" class="g0_175" />
<path fill-rule="evenodd" d="M52.8,746H882.5V705.3H52.8V746Z" class="g0_175" />
<g fill="#212121" >
<use xlink:href="#f0_16" transform="matrix(12,0,0,12,330.1,722.5)" />
<use xlink:href="#f0_25" transform="matrix(12,0,0,12,340.4,722.5)" />
<use xlink:href="#f0_23" transform="matrix(12,0,0,12,345.1,722.5)" />
<use xlink:href="#f0_i" transform="matrix(12,0,0,12,354.3,722.5)" />
<use xlink:href="#f0_l" transform="matrix(12,0,0,12,363.8,722.5)" />
<use xlink:href="#f0_l" transform="matrix(12,0,0,12,373,722.5)" />
<use xlink:href="#f0_i" transform="matrix(12,0,0,12,382.1,722.5)" />
<use xlink:href="#f0_14" transform="matrix(12,0,0,12,391.6,722.5)" />
<use xlink:href="#f0_25" transform="matrix(12,0,0,12,404.9,722.5)" />
<use xlink:href="#f0_22" transform="matrix(12,0,0,12,409.6,722.5)" />
<use xlink:href="#f0_22" transform="matrix(12,0,0,12,415.4,722.5)" />
<use xlink:href="#f0_21" transform="matrix(12,0,0,12,421.3,722.5)" />
<use xlink:href="#f0_2e" transform="matrix(12,0,0,12,429.4,722.5)" />
<use xlink:href="#f0_21" transform="matrix(12,0,0,12,435.6,722.5)" />
<use xlink:href="#f0_2a" transform="matrix(12,0,0,12,444,722.5)" />
<use xlink:href="#f0_2g" transform="matrix(12,0,0,12,452.8,722.5)" />
<use xlink:href="#f0_2f" transform="matrix(12,0,0,12,463,722.5)" />
<use xlink:href="#f0_2g" transform="matrix(12,0,0,12,470,722.5)" />
<use xlink:href="#f0_1x" transform="matrix(12,0,0,12,475.5,722.5)" />
<use xlink:href="#f0_23" transform="matrix(12,0,0,12,483.6,722.5)" />
<use xlink:href="#f0_21" transform="matrix(12,0,0,12,492.7,722.5)" />
<use xlink:href="#f0_2f" transform="matrix(12,0,0,12,500.8,722.5)" />
<use xlink:href="#f0_2b" transform="matrix(12,0,0,12,512.2,722.5)" />
<use xlink:href="#f0_22" transform="matrix(12,0,0,12,521.7,722.5)" />
<use xlink:href="#f0_29" transform="matrix(12,0,0,12,532.3,722.5)" />
<use xlink:href="#f0_21" transform="matrix(12,0,0,12,545.9,722.5)" />
<use xlink:href="#f0_25" transform="matrix(12,0,0,12,554.3,722.5)" />
<use xlink:href="#f0_2b" transform="matrix(12,0,0,12,558.7,722.5)" />
<use xlink:href="#f0_2f" transform="matrix(12,0,0,12,568.6,722.5)" />
<use xlink:href="#f0_25" transform="matrix(12,0,0,12,575.9,722.5)" />
<use xlink:href="#f0_2f" transform="matrix(12,0,0,12,580.6,722.5)" />
<use xlink:href="#f0_19" transform="matrix(12,0,0,12,592.3,722.5)" />
<use xlink:href="#f0_19" transform="matrix(12,0,0,12,598.6,722.5)" />
</g>
<path fill-rule="evenodd" d="M52.8,777.5H882.5V746H52.8v31.5Z" class="g0_175" />
<g fill="#212121" >
<use xlink:href="#f0_19" transform="matrix(12,0,0,12,55,763.2)" />
<use xlink:href="#f0_2a" transform="matrix(12,0,0,12,61.3,763.2)" />
<use xlink:href="#f1_29" transform="matrix(12,0,0,12,74.8,763.2)" />
<use xlink:href="#f1_21" transform="matrix(12,0,0,12,89.9,763.2)" />
<use xlink:href="#f1_2g" transform="matrix(12,0,0,12,97.9,763.2)" />
<use xlink:href="#f1_1x" transform="matrix(12,0,0,12,104.2,763.2)" />
<use xlink:href="#f1_2c" transform="matrix(12,0,0,12,113.3,763.2)" />
<use xlink:href="#f1_24" transform="matrix(12,0,0,12,123.6,763.2)" />
<use xlink:href="#f1_1x" transform="matrix(12,0,0,12,133.8,763.2)" />
<use xlink:href="#f1_2f" transform="matrix(12,0,0,12,143,763.2)" />
<use xlink:href="#f1_21" transform="matrix(12,0,0,12,149.9,763.2)" />
<use xlink:href="#f1_19" transform="matrix(12,0,0,12,163.5,763.2)" />
<use xlink:href="#f1_19" transform="matrix(12,0,0,12,170.5,763.2)" />
<use xlink:href="#f0_g" transform="matrix(12,0,0,12,177.5,763.2)" />
<use xlink:href="#f0_2g" transform="matrix(12,0,0,12,187.8,763.2)" />
<use xlink:href="#f0_24" transform="matrix(12,0,0,12,193.3,763.2)" />
<use xlink:href="#f0_21" transform="matrix(12,0,0,12,202.1,763.2)" />
<use xlink:href="#f0_1z" transform="matrix(12,0,0,12,215.6,763.2)" />
<use xlink:href="#f0_21" transform="matrix(12,0,0,12,223.7,763.2)" />
<use xlink:href="#f0_2a" transform="matrix(12,0,0,12,231.7,763.2)" />
<use xlink:href="#f0_2g" transform="matrix(12,0,0,12,240.5,763.2)" />
<use xlink:href="#f0_2e" transform="matrix(12,0,0,12,246,763.2)" />
<use xlink:href="#f0_2b" transform="matrix(12,0,0,12,251.9,763.2)" />
<use xlink:href="#f0_29" transform="matrix(12,0,0,12,261.4,763.2)" />
<use xlink:href="#f0_21" transform="matrix(12,0,0,12,275,763.2)" />
<use xlink:href="#f0_2e" transform="matrix(12,0,0,12,283,763.2)" />
<use xlink:href="#f0_21" transform="matrix(12,0,0,12,289.2,763.2)" />
<use xlink:href="#f0_2f" transform="matrix(12,0,0,12,297.3,763.2)" />
<use xlink:href="#f0_1x" transform="matrix(12,0,0,12,309.8,763.2)" />
<use xlink:href="#f0_2e" transform="matrix(12,0,0,12,317.8,763.2)" />
<use xlink:href="#f0_21" transform="matrix(12,0,0,12,324,763.2)" />
<use xlink:href="#f0_2c" transform="matrix(12,0,0,12,337.6,763.2)" />
<use xlink:href="#f0_2e" transform="matrix(12,0,0,12,346.8,763.2)" />
<use xlink:href="#f0_21" transform="matrix(12,0,0,12,353,763.2)" />
<use xlink:href="#f0_2f" transform="matrix(12,0,0,12,361,763.2)" />
<use xlink:href="#f0_21" transform="matrix(12,0,0,12,368,763.2)" />
<use xlink:href="#f0_2a" transform="matrix(12,0,0,12,376.4,763.2)" />
<use xlink:href="#f0_2g" transform="matrix(12,0,0,12,385.2,763.2)" />
<use xlink:href="#f0_2j" transform="matrix(12,0,0,12,396.2,763.2)" />
<use xlink:href="#f0_25" transform="matrix(12,0,0,12,409.4,763.2)" />
<use xlink:href="#f0_2g" transform="matrix(12,0,0,12,413.8,763.2)" />
<use xlink:href="#f0_24" transform="matrix(12,0,0,12,419.3,763.2)" />
<use xlink:href="#f0_2g" transform="matrix(12,0,0,12,433.5,763.2)" />
<use xlink:href="#f0_2j" transform="matrix(12,0,0,12,439,763.2)" />
<use xlink:href="#f0_2b" transform="matrix(12,0,0,12,451.9,763.2)" />
<use xlink:href="#f0_27" transform="matrix(12,0,0,12,466.9,763.2)" />
<use xlink:href="#f0_25" transform="matrix(12,0,0,12,476,763.2)" />
<use xlink:href="#f0_2a" transform="matrix(12,0,0,12,480.4,763.2)" />
<use xlink:href="#f0_21" transform="matrix(12,0,0,12,489.6,763.2)" />
<use xlink:href="#f0_2g" transform="matrix(12,0,0,12,497.7,763.2)" />
<use xlink:href="#f0_2b" transform="matrix(12,0,0,12,503.1,763.2)" />
<use xlink:href="#f0_1z" transform="matrix(12,0,0,12,512.7,763.2)" />
<use xlink:href="#f0_24" transform="matrix(12,0,0,12,520.7,763.2)" />
<use xlink:href="#f0_2b" transform="matrix(12,0,0,12,529.5,763.2)" />
<use xlink:href="#f0_2e" transform="matrix(12,0,0,12,538.7,763.2)" />
<use xlink:href="#f0_21" transform="matrix(12,0,0,12,544.9,763.2)" />
<use xlink:href="#f0_2f" transform="matrix(12,0,0,12,553,763.2)" />
<use xlink:href="#f0_2g" transform="matrix(12,0,0,12,565.1,763.2)" />
<use xlink:href="#f0_24" transform="matrix(12,0,0,12,570.5,763.2)" />
<use xlink:href="#f0_1x" transform="matrix(12,0,0,12,579.3,763.2)" />
<use xlink:href="#f0_2g" transform="matrix(12,0,0,12,587.4,763.2)" />
<use xlink:href="#f0_1x" transform="matrix(12,0,0,12,598,763.2)" />
<use xlink:href="#f0_2e" transform="matrix(12,0,0,12,606.1,763.2)" />
<use xlink:href="#f0_21" transform="matrix(12,0,0,12,612.3,763.2)" />
<use xlink:href="#f0_1x" transform="matrix(12,0,0,12,625.8,763.2)" />
<use xlink:href="#f0_2g" transform="matrix(12,0,0,12,633.5,763.2)" />
<use xlink:href="#f0_2g" transform="matrix(12,0,0,12,638.6,763.2)" />
<use xlink:href="#f0_1x" transform="matrix(12,0,0,12,644.2,763.2)" />
<use xlink:href="#f0_1z" transform="matrix(12,0,0,12,652.2,763.2)" />
<use xlink:href="#f0_24" transform="matrix(12,0,0,12,660.3,763.2)" />
<use xlink:href="#f0_21" transform="matrix(12,0,0,12,669.1,763.2)" />
<use xlink:href="#f0_20" transform="matrix(12,0,0,12,677.2,763.2)" />
<use xlink:href="#f0_2g" transform="matrix(12,0,0,12,691.4,763.2)" />
<use xlink:href="#f0_2b" transform="matrix(12,0,0,12,696.5,763.2)" />
<use xlink:href="#f0_2f" transform="matrix(12,0,0,12,711.6,763.2)" />
<use xlink:href="#f0_2c" transform="matrix(12,0,0,12,718.5,763.2)" />
<use xlink:href="#f0_25" transform="matrix(12,0,0,12,727.7,763.2)" />
<use xlink:href="#f0_2a" transform="matrix(12,0,0,12,732.5,763.2)" />
<use xlink:href="#f0_20" transform="matrix(12,0,0,12,741.3,763.2)" />
<use xlink:href="#f0_28" transform="matrix(12,0,0,12,750.8,763.2)" />
<use xlink:href="#f0_21" transform="matrix(12,0,0,12,755.6,763.2)" />
<use xlink:href="#f0_22" transform="matrix(12,0,0,12,769.5,763.2)" />
<use xlink:href="#f0_25" transform="matrix(12,0,0,12,775.3,763.2)" />
<use xlink:href="#f0_1y" transform="matrix(12,0,0,12,780.1,763.2)" />
<use xlink:href="#f0_21" transform="matrix(12,0,0,12,789.3,763.2)" />
<use xlink:href="#f0_2e" transform="matrix(12,0,0,12,797.7,763.2)" />
<use xlink:href="#f0_2f" transform="matrix(12,0,0,12,803.9,763.2)" />
<use xlink:href="#f0_22" transform="matrix(12,0,0,12,816.3,763.2)" />
<use xlink:href="#f0_2e" transform="matrix(12,0,0,12,821.8,763.2)" />
<use xlink:href="#f0_2b" transform="matrix(12,0,0,12,828.1,763.2)" />
<use xlink:href="#f0_29" transform="matrix(12,0,0,12,837.9,763.2)" />
<use xlink:href="#f0_2g" transform="matrix(12,0,0,12,857,763.2)" />
<use xlink:href="#f0_24" transform="matrix(12,0,0,12,862.5,763.2)" />
<use xlink:href="#f0_21" transform="matrix(12,0,0,12,871.3,763.2)" />
</g>
<path fill-rule="evenodd" d="M52.8,809.1H882.5V777.5H52.8v31.6Z" class="g0_175" />
<g fill="#212121" >
<use xlink:href="#f0_1z" transform="matrix(12,0,0,12,55,794.8)" />
<use xlink:href="#f0_21" transform="matrix(12,0,0,12,63.1,794.8)" />
<use xlink:href="#f0_2a" transform="matrix(12,0,0,12,71.2,794.8)" />
<use xlink:href="#f0_2g" transform="matrix(12,0,0,12,80,794.8)" />
<use xlink:href="#f0_2e" transform="matrix(12,0,0,12,85.5,794.8)" />
<use xlink:href="#f0_2b" transform="matrix(12,0,0,12,91.7,794.8)" />
<use xlink:href="#f0_2f" transform="matrix(12,0,0,12,101.2,794.8)" />
<use xlink:href="#f0_2b" transform="matrix(12,0,0,12,107.8,794.8)" />
<use xlink:href="#f0_29" transform="matrix(12,0,0,12,117.3,794.8)" />
<use xlink:href="#f0_21" transform="matrix(12,0,0,12,130.9,794.8)" />
<use xlink:href="#f0_2f" transform="matrix(12,0,0,12,139.3,794.8)" />
<use xlink:href="#f0_1x" transform="matrix(12,0,0,12,153.9,794.8)" />
<use xlink:href="#f0_2g" transform="matrix(12,0,0,12,162,794.8)" />
<use xlink:href="#f0_2b" transform="matrix(12,0,0,12,174.8,794.8)" />
<use xlink:href="#f0_2c" transform="matrix(12,0,0,12,184.3,794.8)" />
<use xlink:href="#f0_2c" transform="matrix(12,0,0,12,193.5,794.8)" />
<use xlink:href="#f0_2b" transform="matrix(12,0,0,12,202.3,794.8)" />
<use xlink:href="#f0_2f" transform="matrix(12,0,0,12,211.8,794.8)" />
<use xlink:href="#f0_25" transform="matrix(12,0,0,12,218.8,794.8)" />
<use xlink:href="#f0_2g" transform="matrix(12,0,0,12,223.2,794.8)" />
<use xlink:href="#f0_21" transform="matrix(12,0,0,12,228.6,794.8)" />
<use xlink:href="#f0_2c" transform="matrix(12,0,0,12,244.4,794.8)" />
<use xlink:href="#f0_2b" transform="matrix(12,0,0,12,253.2,794.8)" />
<use xlink:href="#f0_28" transform="matrix(12,0,0,12,262.7,794.8)" />
<use xlink:href="#f0_21" transform="matrix(12,0,0,12,267.1,794.8)" />
<use xlink:href="#f0_2f" transform="matrix(12,0,0,12,275.5,794.8)" />
<use xlink:href="#f0_i" transform="matrix(12,0,0,12,282.5,794.8)" />
<use xlink:href="#f0_1k" transform="matrix(12,0,0,12,294.9,794.8)" />
<use xlink:href="#f0_24" transform="matrix(12,0,0,12,306.3,794.8)" />
<use xlink:href="#f0_21" transform="matrix(12,0,0,12,315.1,794.8)" />
<use xlink:href="#f0_29" transform="matrix(12,0,0,12,331.2,794.8)" />
<use xlink:href="#f0_21" transform="matrix(12,0,0,12,344.7,794.8)" />
<use xlink:href="#f0_2g" transform="matrix(12,0,0,12,352.8,794.8)" />
<use xlink:href="#f0_1x" transform="matrix(12,0,0,12,358.3,794.8)" />
<use xlink:href="#f0_2c" transform="matrix(12,0,0,12,366.4,794.8)" />
<use xlink:href="#f0_24" transform="matrix(12,0,0,12,375.5,794.8)" />
<use xlink:href="#f0_1x" transform="matrix(12,0,0,12,384.3,794.8)" />
<use xlink:href="#f0_2f" transform="matrix(12,0,0,12,392.7,794.8)" />
<use xlink:href="#f0_25" transform="matrix(12,0,0,12,400.1,794.8)" />
<use xlink:href="#f0_1z" transform="matrix(12,0,0,12,404.8,794.8)" />
<use xlink:href="#f0_2c" transform="matrix(12,0,0,12,420.6,794.8)" />
<use xlink:href="#f0_28" transform="matrix(12,0,0,12,429.7,794.8)" />
<use xlink:href="#f0_1x" transform="matrix(12,0,0,12,434.5,794.8)" />
<use xlink:href="#f0_2g" transform="matrix(12,0,0,12,442.6,794.8)" />
<use xlink:href="#f0_21" transform="matrix(12,0,0,12,448,794.8)" />
<use xlink:href="#f0_25" transform="matrix(12,0,0,12,463.8,794.8)" />
<use xlink:href="#f0_2f" transform="matrix(12,0,0,12,468.6,794.8)" />
<use xlink:href="#f0_2e" transform="matrix(12,0,0,12,483.2,794.8)" />
<use xlink:href="#f0_2b" transform="matrix(12,0,0,12,489.4,794.8)" />
<use xlink:href="#f0_2g" transform="matrix(12,0,0,12,498.6,794.8)" />
<use xlink:href="#f0_1x" transform="matrix(12,0,0,12,504.1,794.8)" />
<use xlink:href="#f0_2g" transform="matrix(12,0,0,12,511.8,794.8)" />
<use xlink:href="#f0_21" transform="matrix(12,0,0,12,517.3,794.8)" />
<use xlink:href="#f0_20" transform="matrix(12,0,0,12,525.3,794.8)" />
<use xlink:href="#f0_1y" transform="matrix(12,0,0,12,541.8,794.8)" />
<use xlink:href="#f0_2l" transform="matrix(12,0,0,12,551,794.8)" />
<use xlink:href="#f0_t" transform="matrix(12,0,0,12,567.1,794.8)" />
<use xlink:href="#f0_k" transform="matrix(12,0,0,12,576.3,794.8)" />
<use xlink:href="#f0_20" transform="matrix(12,0,0,12,593.1,794.8)" />
<use xlink:href="#f0_21" transform="matrix(12,0,0,12,602.3,794.8)" />
<use xlink:href="#f0_23" transform="matrix(12,0,0,12,610.3,794.8)" />
<use xlink:href="#f0_2e" transform="matrix(12,0,0,12,619.5,794.8)" />
<use xlink:href="#f0_21" transform="matrix(12,0,0,12,625.7,794.8)" />
<use xlink:href="#f0_21" transform="matrix(12,0,0,12,633.8,794.8)" />
<use xlink:href="#f0_2f" transform="matrix(12,0,0,12,641.9,794.8)" />
<use xlink:href="#f0_2j" transform="matrix(12,0,0,12,656.5,794.8)" />
<use xlink:href="#f0_24" transform="matrix(12,0,0,12,669.7,794.8)" />
<use xlink:href="#f0_21" transform="matrix(12,0,0,12,678.5,794.8)" />
<use xlink:href="#f0_2a" transform="matrix(12,0,0,12,686.9,794.8)" />
<use xlink:href="#f0_1z" transform="matrix(12,0,0,12,703.4,794.8)" />
<use xlink:href="#f0_2b" transform="matrix(12,0,0,12,711.5,794.8)" />
<use xlink:href="#f0_29" transform="matrix(12,0,0,12,721.3,794.8)" />
<use xlink:href="#f0_2c" transform="matrix(12,0,0,12,734.9,794.8)" />
<use xlink:href="#f0_1x" transform="matrix(12,0,0,12,744.1,794.8)" />
<use xlink:href="#f0_2e" transform="matrix(12,0,0,12,752.1,794.8)" />
<use xlink:href="#f0_21" transform="matrix(12,0,0,12,758.4,794.8)" />
<use xlink:href="#f0_20" transform="matrix(12,0,0,12,766.4,794.8)" />
<use xlink:href="#f0_2g" transform="matrix(12,0,0,12,783.3,794.8)" />
<use xlink:href="#f0_2b" transform="matrix(12,0,0,12,788.4,794.8)" />
<use xlink:href="#f0_29" transform="matrix(12,0,0,12,805.3,794.8)" />
<use xlink:href="#f0_21" transform="matrix(12,0,0,12,818.8,794.8)" />
<use xlink:href="#f0_25" transform="matrix(12,0,0,12,827.2,794.8)" />
<use xlink:href="#f0_2b" transform="matrix(12,0,0,12,831.6,794.8)" />
<use xlink:href="#f0_2f" transform="matrix(12,0,0,12,841.5,794.8)" />
<use xlink:href="#f0_25" transform="matrix(12,0,0,12,848.8,794.8)" />
<use xlink:href="#f0_2f" transform="matrix(12,0,0,12,853.6,794.8)" />
<use xlink:href="#f0_19" transform="matrix(12,0,0,12,868.2,794.8)" />
<use xlink:href="#f0_g" transform="matrix(12,0,0,12,874.5,794.8)" />
</g>
<path fill-rule="evenodd" d="M52.8,850.2H882.5V809.1H52.8v41.1Z" class="g0_175" />
<g fill="#212121" >
<use xlink:href="#f0_2c" transform="matrix(12,0,0,12,55,826.3)" />
<use xlink:href="#f0_21" transform="matrix(12,0,0,12,64.2,826.3)" />
<use xlink:href="#f0_2e" transform="matrix(12,0,0,12,72.3,826.3)" />
<use xlink:href="#f0_2c" transform="matrix(12,0,0,12,78.5,826.3)" />
<use xlink:href="#f0_21" transform="matrix(12,0,0,12,87.7,826.3)" />
<use xlink:href="#f0_2a" transform="matrix(12,0,0,12,95.7,826.3)" />
<use xlink:href="#f0_20" transform="matrix(12,0,0,12,104.5,826.3)" />
<use xlink:href="#f0_25" transform="matrix(12,0,0,12,114,826.3)" />
<use xlink:href="#f0_1z" transform="matrix(12,0,0,12,118.8,826.3)" />
<use xlink:href="#f0_2h" transform="matrix(12,0,0,12,126.9,826.3)" />
<use xlink:href="#f0_28" transform="matrix(12,0,0,12,136.4,826.3)" />
<use xlink:href="#f0_1x" transform="matrix(12,0,0,12,141.1,826.3)" />
<use xlink:href="#f0_2e" transform="matrix(12,0,0,12,149.2,826.3)" />
<use xlink:href="#f0_2g" transform="matrix(12,0,0,12,160.2,826.3)" />
<use xlink:href="#f0_2b" transform="matrix(12,0,0,12,165.3,826.3)" />
<use xlink:href="#f0_2g" transform="matrix(12,0,0,12,179.2,826.3)" />
<use xlink:href="#f0_24" transform="matrix(12,0,0,12,184.7,826.3)" />
<use xlink:href="#f0_21" transform="matrix(12,0,0,12,193.5,826.3)" />
<use xlink:href="#f0_2c" transform="matrix(12,0,0,12,206.3,826.3)" />
<use xlink:href="#f0_2e" transform="matrix(12,0,0,12,215.5,826.3)" />
<use xlink:href="#f0_21" transform="matrix(12,0,0,12,221.7,826.3)" />
<use xlink:href="#f0_2i" transform="matrix(12,0,0,12,229.8,826.3)" />
<use xlink:href="#f0_25" transform="matrix(12,0,0,12,238.9,826.3)" />
<use xlink:href="#f0_2b" transform="matrix(12,0,0,12,243.3,826.3)" />
<use xlink:href="#f0_2h" transform="matrix(12,0,0,12,252.9,826.3)" />
<use xlink:href="#f0_2f" transform="matrix(12,0,0,12,262,826.3)" />
<use xlink:href="#f0_2c" transform="matrix(12,0,0,12,273.7,826.3)" />
<use xlink:href="#f0_28" transform="matrix(12,0,0,12,283.2,826.3)" />
<use xlink:href="#f0_1x" transform="matrix(12,0,0,12,287.6,826.3)" />
<use xlink:href="#f0_2g" transform="matrix(12,0,0,12,295.7,826.3)" />
<use xlink:href="#f0_21" transform="matrix(12,0,0,12,301.2,826.3)" />
<use xlink:href="#f0_i" transform="matrix(12,0,0,12,309.3,826.3)" />
</g>
<path fill-rule="evenodd" d="M52.8,881.7H882.5V850.2H52.8v31.5Z" class="g0_175" />
<g fill="#212121" >
<use xlink:href="#f1_11" transform="matrix(12,0,0,12,55,867.4)" />
<use xlink:href="#f1_2a" transform="matrix(12,0,0,12,68.3,867.4)" />
<use xlink:href="#f1_1x" transform="matrix(12,0,0,12,78.5,867.4)" />
<use xlink:href="#f1_2c" transform="matrix(12,0,0,12,87.6,867.4)" />
<use xlink:href="#f1_24" transform="matrix(12,0,0,12,97.9,867.4)" />
<use xlink:href="#f1_1x" transform="matrix(12,0,0,12,108.2,867.4)" />
<use xlink:href="#f1_2f" transform="matrix(12,0,0,12,117.4,867.4)" />
<use xlink:href="#f1_21" transform="matrix(12,0,0,12,124.3,867.4)" />
<use xlink:href="#f1_19" transform="matrix(12,0,0,12,137.5,867.4)" />
<use xlink:href="#f1_19" transform="matrix(12,0,0,12,144.5,867.4)" />
<use xlink:href="#f0_25" transform="matrix(12,0,0,12,156.6,867.4)" />
<use xlink:href="#f0_2f" transform="matrix(12,0,0,12,161.4,867.4)" />
<use xlink:href="#f0_1x" transform="matrix(12,0,0,12,173.5,867.4)" />
<use xlink:href="#f0_1z" transform="matrix(12,0,0,12,181.6,867.4)" />
<use xlink:href="#f0_1z" transform="matrix(12,0,0,12,189.6,867.4)" />
<use xlink:href="#f0_2b" transform="matrix(12,0,0,12,197.7,867.4)" />
<use xlink:href="#f0_29" transform="matrix(12,0,0,12,207.2,867.4)" />
<use xlink:href="#f0_2c" transform="matrix(12,0,0,12,220.8,867.4)" />
<use xlink:href="#f0_1x" transform="matrix(12,0,0,12,229.9,867.4)" />
<use xlink:href="#f0_2a" transform="matrix(12,0,0,12,238.4,867.4)" />
<use xlink:href="#f0_25" transform="matrix(12,0,0,12,247.5,867.4)" />
<use xlink:href="#f0_21" transform="matrix(12,0,0,12,252.3,867.4)" />
<use xlink:href="#f0_20" transform="matrix(12,0,0,12,260.4,867.4)" />
<use xlink:href="#f0_1y" transform="matrix(12,0,0,12,274.6,867.4)" />
<use xlink:href="#f0_2l" transform="matrix(12,0,0,12,283.8,867.4)" />
<use xlink:href="#f0_2f" transform="matrix(12,0,0,12,297.7,867.4)" />
<use xlink:href="#f0_25" transform="matrix(12,0,0,12,305,867.4)" />
<use xlink:href="#f0_2f" transform="matrix(12,0,0,12,309.8,867.4)" />
<use xlink:href="#f0_2g" transform="matrix(12,0,0,12,316.8,867.4)" />
<use xlink:href="#f0_21" transform="matrix(12,0,0,12,322.2,867.4)" />
<use xlink:href="#f0_2e" transform="matrix(12,0,0,12,330.3,867.4)" />
<use xlink:href="#f0_1z" transform="matrix(12,0,0,12,341.6,867.4)" />
<use xlink:href="#f0_24" transform="matrix(12,0,0,12,349.7,867.4)" />
<use xlink:href="#f0_2e" transform="matrix(12,0,0,12,358.5,867.4)" />
<use xlink:href="#f0_2b" transform="matrix(12,0,0,12,364.7,867.4)" />
<use xlink:href="#f0_29" transform="matrix(12,0,0,12,374.2,867.4)" />
<use xlink:href="#f0_1x" transform="matrix(12,0,0,12,387.8,867.4)" />
<use xlink:href="#f0_2g" transform="matrix(12,0,0,12,395.9,867.4)" />
<use xlink:href="#f0_25" transform="matrix(12,0,0,12,401.7,867.4)" />
<use xlink:href="#f0_20" transform="matrix(12,0,0,12,406.1,867.4)" />
<use xlink:href="#f0_2f" transform="matrix(12,0,0,12,420.4,867.4)" />
<use xlink:href="#f0_21" transform="matrix(12,0,0,12,427.4,867.4)" />
<use xlink:href="#f0_23" transform="matrix(12,0,0,12,435.4,867.4)" />
<use xlink:href="#f0_2e" transform="matrix(12,0,0,12,444.6,867.4)" />
<use xlink:href="#f0_21" transform="matrix(12,0,0,12,450.8,867.4)" />
<use xlink:href="#f0_23" transform="matrix(12,0,0,12,458.9,867.4)" />
<use xlink:href="#f0_1x" transform="matrix(12,0,0,12,468.1,867.4)" />
<use xlink:href="#f0_2g" transform="matrix(12,0,0,12,476.1,867.4)" />
<use xlink:href="#f0_25" transform="matrix(12,0,0,12,481.6,867.4)" />
<use xlink:href="#f0_2b" transform="matrix(12,0,0,12,486,867.4)" />
<use xlink:href="#f0_2a" transform="matrix(12,0,0,12,495.5,867.4)" />
<use xlink:href="#f0_i" transform="matrix(12,0,0,12,504.3,867.4)" />
<use xlink:href="#f0_1k" transform="matrix(12,0,0,12,514.2,867.4)" />
<use xlink:href="#f0_24" transform="matrix(12,0,0,12,525.5,867.4)" />
<use xlink:href="#f0_21" transform="matrix(12,0,0,12,534.3,867.4)" />
<use xlink:href="#f0_2e" transform="matrix(12,0,0,12,547.5,867.4)" />
<use xlink:href="#f0_21" transform="matrix(12,0,0,12,553.7,867.4)" />
<use xlink:href="#f0_29" transform="matrix(12,0,0,12,561.8,867.4)" />
<use xlink:href="#f0_1x" transform="matrix(12,0,0,12,575.4,867.4)" />
<use xlink:href="#f0_25" transform="matrix(12,0,0,12,583.8,867.4)" />
<use xlink:href="#f0_2a" transform="matrix(12,0,0,12,588.5,867.4)" />
<use xlink:href="#f0_25" transform="matrix(12,0,0,12,598.6,867.4)" />
<use xlink:href="#f0_2a" transform="matrix(12,0,0,12,603.4,867.4)" />
<use xlink:href="#f0_23" transform="matrix(12,0,0,12,612.5,867.4)" />
<use xlink:href="#f0_1z" transform="matrix(12,0,0,12,626.8,867.4)" />
<use xlink:href="#f0_2b" transform="matrix(12,0,0,12,634.9,867.4)" />
<use xlink:href="#f0_24" transform="matrix(12,0,0,12,644.4,867.4)" />
<use xlink:href="#f0_21" transform="matrix(12,0,0,12,653.2,867.4)" />
<use xlink:href="#f0_2f" transform="matrix(12,0,0,12,661.3,867.4)" />
<use xlink:href="#f0_25" transform="matrix(12,0,0,12,668.6,867.4)" />
<use xlink:href="#f0_2a" transform="matrix(12,0,0,12,673.4,867.4)" />
<use xlink:href="#f0_25" transform="matrix(12,0,0,12,687.7,867.4)" />
<use xlink:href="#f0_2f" transform="matrix(12,0,0,12,692.4,867.4)" />
<use xlink:href="#f0_20" transform="matrix(12,0,0,12,704.5,867.4)" />
<use xlink:href="#f0_21" transform="matrix(12,0,0,12,713.7,867.4)" />
<use xlink:href="#f0_23" transform="matrix(12,0,0,12,721.7,867.4)" />
<use xlink:href="#f0_2e" transform="matrix(12,0,0,12,730.9,867.4)" />
<use xlink:href="#f0_1x" transform="matrix(12,0,0,12,737.1,867.4)" />
<use xlink:href="#f0_20" transform="matrix(12,0,0,12,745.2,867.4)" />
<use xlink:href="#f0_21" transform="matrix(12,0,0,12,754.4,867.4)" />
<use xlink:href="#f0_20" transform="matrix(12,0,0,12,762.4,867.4)" />
<use xlink:href="#f0_2g" transform="matrix(12,0,0,12,776.7,867.4)" />
<use xlink:href="#f0_2b" transform="matrix(12,0,0,12,781.8,867.4)" />
<use xlink:href="#f0_1x" transform="matrix(12,0,0,12,795.8,867.4)" />
<use xlink:href="#f0_28" transform="matrix(12,0,0,12,804.2,867.4)" />
<use xlink:href="#f0_28" transform="matrix(12,0,0,12,808.9,867.4)" />
<use xlink:href="#f0_2b" transform="matrix(12,0,0,12,813.3,867.4)" />
<use xlink:href="#f0_2j" transform="matrix(12,0,0,12,822.8,867.4)" />
<use xlink:href="#f0_2f" transform="matrix(12,0,0,12,841.2,867.4)" />
<use xlink:href="#f0_25" transform="matrix(12,0,0,12,848.5,867.4)" />
<use xlink:href="#f0_2f" transform="matrix(12,0,0,12,853.2,867.4)" />
<use xlink:href="#f0_2g" transform="matrix(12,0,0,12,860.2,867.4)" />
<use xlink:href="#f0_21" transform="matrix(12,0,0,12,865.7,867.4)" />
<use xlink:href="#f0_2e" transform="matrix(12,0,0,12,873.8,867.4)" />
</g>
<path fill-rule="evenodd" d="M52.8,922.4H882.5V881.7H52.8v40.7Z" class="g0_175" />
<g fill="#212121" >
<use xlink:href="#f0_1z" transform="matrix(12,0,0,12,55,899)" />
<use xlink:href="#f0_24" transform="matrix(12,0,0,12,63.1,899)" />
<use xlink:href="#f0_2e" transform="matrix(12,0,0,12,71.9,899)" />
<use xlink:href="#f0_2b" transform="matrix(12,0,0,12,78.1,899)" />
<use xlink:href="#f0_29" transform="matrix(12,0,0,12,88,899)" />
<use xlink:href="#f0_1x" transform="matrix(12,0,0,12,101.6,899)" />
<use xlink:href="#f0_2g" transform="matrix(12,0,0,12,109.6,899)" />
<use xlink:href="#f0_25" transform="matrix(12,0,0,12,115.5,899)" />
<use xlink:href="#f0_20" transform="matrix(12,0,0,12,119.9,899)" />
<use xlink:href="#f0_2f" transform="matrix(12,0,0,12,133.8,899)" />
<use xlink:href="#f0_21" transform="matrix(12,0,0,12,140.8,899)" />
<use xlink:href="#f0_23" transform="matrix(12,0,0,12,148.8,899)" />
<use xlink:href="#f0_2e" transform="matrix(12,0,0,12,158,899)" />
<use xlink:href="#f0_21" transform="matrix(12,0,0,12,164.2,899)" />
<use xlink:href="#f0_23" transform="matrix(12,0,0,12,172.3,899)" />
<use xlink:href="#f0_1x" transform="matrix(12,0,0,12,181.4,899)" />
<use xlink:href="#f0_2g" transform="matrix(12,0,0,12,189.5,899)" />
<use xlink:href="#f0_25" transform="matrix(12,0,0,12,195.4,899)" />
<use xlink:href="#f0_2b" transform="matrix(12,0,0,12,199.8,899)" />
<use xlink:href="#f0_2a" transform="matrix(12,0,0,12,209.3,899)" />
<use xlink:href="#f0_i" transform="matrix(12,0,0,12,218.1,899)" />
</g>
<path fill-rule="evenodd" d="M52.8,954H882.5V922.4H52.8V954Z" class="g0_175" />
<g fill="#212121" >
<use xlink:href="#f1_1k" transform="matrix(12,0,0,12,55,939.7)" />
<use xlink:href="#f1_21" transform="matrix(12,0,0,12,67.1,939.7)" />
<use xlink:href="#f1_28" transform="matrix(12,0,0,12,75.2,939.7)" />
<use xlink:href="#f1_2b" transform="matrix(12,0,0,12,80,939.7)" />
<use xlink:href="#f1_2c" transform="matrix(12,0,0,12,89.1,939.7)" />
<use xlink:href="#f1_24" transform="matrix(12,0,0,12,99.4,939.7)" />
<use xlink:href="#f1_1x" transform="matrix(12,0,0,12,109.6,939.7)" />
<use xlink:href="#f1_2f" transform="matrix(12,0,0,12,118.8,939.7)" />
<use xlink:href="#f1_21" transform="matrix(12,0,0,12,126.1,939.7)" />
<use xlink:href="#f1_19" transform="matrix(12,0,0,12,139.3,939.7)" />
<use xlink:href="#f1_19" transform="matrix(12,0,0,12,146.3,939.7)" />
<use xlink:href="#f0_g" transform="matrix(12,0,0,12,153.3,939.7)" />
<use xlink:href="#f0_2j" transform="matrix(12,0,0,12,163.2,939.7)" />
<use xlink:href="#f0_24" transform="matrix(12,0,0,12,176.4,939.7)" />
<use xlink:href="#f0_25" transform="matrix(12,0,0,12,185.6,939.7)" />
<use xlink:href="#f0_1z" transform="matrix(12,0,0,12,190.3,939.7)" />
<use xlink:href="#f0_24" transform="matrix(12,0,0,12,198.8,939.7)" />
<use xlink:href="#f0_25" transform="matrix(12,0,0,12,213,939.7)" />
<use xlink:href="#f0_2f" transform="matrix(12,0,0,12,217.8,939.7)" />
<use xlink:href="#f0_28" transform="matrix(12,0,0,12,230.3,939.7)" />
<use xlink:href="#f0_25" transform="matrix(12,0,0,12,235,939.7)" />
<use xlink:href="#f0_27" transform="matrix(12,0,0,12,239.8,939.7)" />
<use xlink:href="#f0_21" transform="matrix(12,0,0,12,249,939.7)" />
<use xlink:href="#f0_2g" transform="matrix(12,0,0,12,262.1,939.7)" />
<use xlink:href="#f0_21" transform="matrix(12,0,0,12,267.6,939.7)" />
<use xlink:href="#f0_28" transform="matrix(12,0,0,12,276,939.7)" />
<use xlink:href="#f0_2b" transform="matrix(12,0,0,12,280.4,939.7)" />
<use xlink:href="#f0_2c" transform="matrix(12,0,0,12,289.9,939.7)" />
<use xlink:href="#f0_24" transform="matrix(12,0,0,12,299.1,939.7)" />
<use xlink:href="#f0_1x" transform="matrix(12,0,0,12,307.9,939.7)" />
<use xlink:href="#f0_2f" transform="matrix(12,0,0,12,316,939.7)" />
<use xlink:href="#f0_21" transform="matrix(12,0,0,12,322.9,939.7)" />
<use xlink:href="#f0_19" transform="matrix(12,0,0,12,336.1,939.7)" />
<use xlink:href="#f0_g" transform="matrix(12,0,0,12,342.3,939.7)" />
<use xlink:href="#f0_20" transform="matrix(12,0,0,12,352.2,939.7)" />
<use xlink:href="#f0_21" transform="matrix(12,0,0,12,361.4,939.7)" />
<use xlink:href="#f0_h" transform="matrix(12,0,0,12,369.8,939.7)" />
<use xlink:href="#f0_1z" transform="matrix(12,0,0,12,376,939.7)" />
<use xlink:href="#f0_2b" transform="matrix(12,0,0,12,383.7,939.7)" />
<use xlink:href="#f0_2a" transform="matrix(12,0,0,12,393.2,939.7)" />
<use xlink:href="#f0_20" transform="matrix(12,0,0,12,402,939.7)" />
<use xlink:href="#f0_21" transform="matrix(12,0,0,12,411.2,939.7)" />
<use xlink:href="#f0_2a" transform="matrix(12,0,0,12,419.2,939.7)" />
<use xlink:href="#f0_2f" transform="matrix(12,0,0,12,428.4,939.7)" />
<use xlink:href="#f0_1x" transform="matrix(12,0,0,12,435.4,939.7)" />
<use xlink:href="#f0_2g" transform="matrix(12,0,0,12,443.4,939.7)" />
<use xlink:href="#f0_25" transform="matrix(12,0,0,12,448.9,939.7)" />
<use xlink:href="#f0_2b" transform="matrix(12,0,0,12,453.3,939.7)" />
<use xlink:href="#f0_2a" transform="matrix(12,0,0,12,462.8,939.7)" />
<use xlink:href="#f0_2b" transform="matrix(12,0,0,12,476.7,939.7)" />
<use xlink:href="#f0_22" transform="matrix(12,0,0,12,486.3,939.7)" />
<use xlink:href="#f0_1z" transform="matrix(12,0,0,12,496.9,939.7)" />
<use xlink:href="#f0_24" transform="matrix(12,0,0,12,505.3,939.7)" />
<use xlink:href="#f0_2e" transform="matrix(12,0,0,12,514.1,939.7)" />
<use xlink:href="#f0_2b" transform="matrix(12,0,0,12,520.3,939.7)" />
<use xlink:href="#f0_29" transform="matrix(12,0,0,12,530.2,939.7)" />
<use xlink:href="#f0_2b" transform="matrix(12,0,0,12,543.8,939.7)" />
<use xlink:href="#f0_2f" transform="matrix(12,0,0,12,553.3,939.7)" />
<use xlink:href="#f0_2b" transform="matrix(12,0,0,12,560.2,939.7)" />
<use xlink:href="#f0_29" transform="matrix(12,0,0,12,569.8,939.7)" />
<use xlink:href="#f0_21" transform="matrix(12,0,0,12,583.3,939.7)" />
<use xlink:href="#f0_2f" transform="matrix(12,0,0,12,591.7,939.7)" />
<use xlink:href="#f0_2b" transform="matrix(12,0,0,12,603.8,939.7)" />
<use xlink:href="#f0_1z" transform="matrix(12,0,0,12,613.3,939.7)" />
<use xlink:href="#f0_1z" transform="matrix(12,0,0,12,621.4,939.7)" />
<use xlink:href="#f0_2h" transform="matrix(12,0,0,12,629.5,939.7)" />
<use xlink:href="#f0_2e" transform="matrix(12,0,0,12,638.6,939.7)" />
<use xlink:href="#f0_2f" transform="matrix(12,0,0,12,644.8,939.7)" />
<use xlink:href="#f0_i" transform="matrix(12,0,0,12,651.8,939.7)" />
<use xlink:href="#f0_1e" transform="matrix(12,0,0,12,661.3,939.7)" />
<use xlink:href="#f0_2h" transform="matrix(12,0,0,12,674.6,939.7)" />
<use xlink:href="#f0_1z" transform="matrix(12,0,0,12,683.7,939.7)" />
<use xlink:href="#f0_28" transform="matrix(12,0,0,12,692.1,939.7)" />
<use xlink:href="#f0_21" transform="matrix(12,0,0,12,696.5,939.7)" />
<use xlink:href="#f0_1x" transform="matrix(12,0,0,12,704.6,939.7)" />
<use xlink:href="#f0_2e" transform="matrix(12,0,0,12,712.6,939.7)" />
<use xlink:href="#f0_21" transform="matrix(12,0,0,12,724,939.7)" />
<use xlink:href="#f0_2a" transform="matrix(12,0,0,12,732,939.7)" />
<use xlink:href="#f0_2i" transform="matrix(12,0,0,12,741.2,939.7)" />
<use xlink:href="#f0_21" transform="matrix(12,0,0,12,750,939.7)" />
<use xlink:href="#f0_28" transform="matrix(12,0,0,12,758.4,939.7)" />
<use xlink:href="#f0_2b" transform="matrix(12,0,0,12,762.8,939.7)" />
<use xlink:href="#f0_2c" transform="matrix(12,0,0,12,772.3,939.7)" />
<use xlink:href="#f0_21" transform="matrix(12,0,0,12,781.5,939.7)" />
<use xlink:href="#f0_2f" transform="matrix(12,0,0,12,789.9,939.7)" />
<use xlink:href="#f0_2e" transform="matrix(12,0,0,12,802,939.7)" />
<use xlink:href="#f0_21" transform="matrix(12,0,0,12,808.2,939.7)" />
<use xlink:href="#f0_2b" transform="matrix(12,0,0,12,816.3,939.7)" />
<use xlink:href="#f0_2e" transform="matrix(12,0,0,12,825.4,939.7)" />
<use xlink:href="#f0_23" transform="matrix(12,0,0,12,831.7,939.7)" />
<use xlink:href="#f0_1x" transform="matrix(12,0,0,12,840.8,939.7)" />
<use xlink:href="#f0_2a" transform="matrix(12,0,0,12,848.9,939.7)" />
<use xlink:href="#f0_25" transform="matrix(12,0,0,12,858.1,939.7)" />
<use xlink:href="#f0_2m" transform="matrix(12,0,0,12,862.8,939.7)" />
<use xlink:href="#f0_21" transform="matrix(12,0,0,12,871.2,939.7)" />
</g>
<path fill-rule="evenodd" d="M52.8,995.1H882.5V954H52.8v41.1Z" class="g0_175" />
<g fill="#212121" >
<use xlink:href="#f0_1x" transform="matrix(12,0,0,12,55,971.2)" />
<use xlink:href="#f0_2a" transform="matrix(12,0,0,12,63.1,971.2)" />
<use xlink:href="#f0_20" transform="matrix(12,0,0,12,71.9,971.2)" />
<use xlink:href="#f0_1z" transform="matrix(12,0,0,12,85.1,971.2)" />
<use xlink:href="#f0_28" transform="matrix(12,0,0,12,93.5,971.2)" />
<use xlink:href="#f0_21" transform="matrix(12,0,0,12,98.3,971.2)" />
<use xlink:href="#f0_1x" transform="matrix(12,0,0,12,106.4,971.2)" />
<use xlink:href="#f0_2i" transform="matrix(12,0,0,12,114.8,971.2)" />
<use xlink:href="#f0_1x" transform="matrix(12,0,0,12,123.6,971.2)" />
<use xlink:href="#f0_23" transform="matrix(12,0,0,12,131.6,971.2)" />
<use xlink:href="#f0_21" transform="matrix(12,0,0,12,140.8,971.2)" />
<use xlink:href="#f0_2b" transform="matrix(12,0,0,12,152.9,971.2)" />
<use xlink:href="#f0_2e" transform="matrix(12,0,0,12,162.4,971.2)" />
<use xlink:href="#f0_1z" transform="matrix(12,0,0,12,172.7,971.2)" />
<use xlink:href="#f0_21" transform="matrix(12,0,0,12,180.7,971.2)" />
<use xlink:href="#f0_28" transform="matrix(12,0,0,12,188.9,971.2)" />
<use xlink:href="#f0_28" transform="matrix(12,0,0,12,193.7,971.2)" />
<use xlink:href="#f0_2c" transform="matrix(12,0,0,12,202.1,971.2)" />
<use xlink:href="#f0_28" transform="matrix(12,0,0,12,211.6,971.2)" />
<use xlink:href="#f0_1x" transform="matrix(12,0,0,12,216.4,971.2)" />
<use xlink:href="#f0_2g" transform="matrix(12,0,0,12,224.5,971.2)" />
<use xlink:href="#f0_21" transform="matrix(12,0,0,12,229.9,971.2)" />
<use xlink:href="#f0_22" transform="matrix(12,0,0,12,242.4,971.2)" />
<use xlink:href="#f0_2b" transform="matrix(12,0,0,12,247.9,971.2)" />
<use xlink:href="#f0_2e" transform="matrix(12,0,0,12,257.4,971.2)" />
<use xlink:href="#f0_29" transform="matrix(12,0,0,12,263.6,971.2)" />
<use xlink:href="#f0_1x" transform="matrix(12,0,0,12,277.2,971.2)" />
<use xlink:href="#f0_2g" transform="matrix(12,0,0,12,285.3,971.2)" />
<use xlink:href="#f0_25" transform="matrix(12,0,0,12,291.1,971.2)" />
<use xlink:href="#f0_2b" transform="matrix(12,0,0,12,295.5,971.2)" />
<use xlink:href="#f0_2a" transform="matrix(12,0,0,12,305,971.2)" />
<use xlink:href="#f0_2f" transform="matrix(12,0,0,12,317.9,971.2)" />
<use xlink:href="#f0_2g" transform="matrix(12,0,0,12,324.8,971.2)" />
<use xlink:href="#f0_1x" transform="matrix(12,0,0,12,330.3,971.2)" />
<use xlink:href="#f0_2e" transform="matrix(12,0,0,12,338.4,971.2)" />
<use xlink:href="#f0_2g" transform="matrix(12,0,0,12,344.2,971.2)" />
<use xlink:href="#f0_2f" transform="matrix(12,0,0,12,349.7,971.2)" />
<use xlink:href="#f0_2g" transform="matrix(12,0,0,12,360.4,971.2)" />
<use xlink:href="#f0_2b" transform="matrix(12,0,0,12,365.5,971.2)" />
<use xlink:href="#f0_2c" transform="matrix(12,0,0,12,379,971.2)" />
<use xlink:href="#f0_2e" transform="matrix(12,0,0,12,387.8,971.2)" />
<use xlink:href="#f0_2b" transform="matrix(12,0,0,12,393.7,971.2)" />
<use xlink:href="#f0_20" transform="matrix(12,0,0,12,403.2,971.2)" />
<use xlink:href="#f0_2h" transform="matrix(12,0,0,12,412.4,971.2)" />
<use xlink:href="#f0_1z" transform="matrix(12,0,0,12,421.6,971.2)" />
<use xlink:href="#f0_21" transform="matrix(12,0,0,12,429.3,971.2)" />
<use xlink:href="#f0_22" transform="matrix(12,0,0,12,441.4,971.2)" />
<use xlink:href="#f0_2b" transform="matrix(12,0,0,12,446.9,971.2)" />
<use xlink:href="#f0_2h" transform="matrix(12,0,0,12,456.4,971.2)" />
<use xlink:href="#f0_2e" transform="matrix(12,0,0,12,465.5,971.2)" />
<use xlink:href="#f0_20" transform="matrix(12,0,0,12,475.8,971.2)" />
<use xlink:href="#f0_1x" transform="matrix(12,0,0,12,485,971.2)" />
<use xlink:href="#f0_2h" transform="matrix(12,0,0,12,493,971.2)" />
<use xlink:href="#f0_23" transform="matrix(12,0,0,12,502.2,971.2)" />
<use xlink:href="#f0_24" transform="matrix(12,0,0,12,511.4,971.2)" />
<use xlink:href="#f0_2g" transform="matrix(12,0,0,12,520.2,971.2)" />
<use xlink:href="#f0_21" transform="matrix(12,0,0,12,525.6,971.2)" />
<use xlink:href="#f0_2e" transform="matrix(12,0,0,12,533.7,971.2)" />
<use xlink:href="#f0_1z" transform="matrix(12,0,0,12,544,971.2)" />
<use xlink:href="#f0_21" transform="matrix(12,0,0,12,552,971.2)" />
<use xlink:href="#f0_28" transform="matrix(12,0,0,12,560.1,971.2)" />
<use xlink:href="#f0_28" transform="matrix(12,0,0,12,564.9,971.2)" />
<use xlink:href="#f0_2f" transform="matrix(12,0,0,12,569.6,971.2)" />
<use xlink:href="#f0_g" transform="matrix(12,0,0,12,576.6,971.2)" />
<use xlink:href="#f0_21" transform="matrix(12,0,0,12,585.4,971.2)" />
<use xlink:href="#f0_1x" transform="matrix(12,0,0,12,593.4,971.2)" />
<use xlink:href="#f0_1z" transform="matrix(12,0,0,12,601.5,971.2)" />
<use xlink:href="#f0_24" transform="matrix(12,0,0,12,609.9,971.2)" />
<use xlink:href="#f0_2j" transform="matrix(12,0,0,12,622.7,971.2)" />
<use xlink:href="#f0_25" transform="matrix(12,0,0,12,636.3,971.2)" />
<use xlink:href="#f0_2g" transform="matrix(12,0,0,12,640.7,971.2)" />
<use xlink:href="#f0_24" transform="matrix(12,0,0,12,646.2,971.2)" />
<use xlink:href="#f0_1x" transform="matrix(12,0,0,12,659,971.2)" />
<use xlink:href="#f0_24" transform="matrix(12,0,0,12,671.1,971.2)" />
<use xlink:href="#f0_1x" transform="matrix(12,0,0,12,679.9,971.2)" />
<use xlink:href="#f0_2c" transform="matrix(12,0,0,12,688,971.2)" />
<use xlink:href="#f0_28" transform="matrix(12,0,0,12,697.5,971.2)" />
<use xlink:href="#f0_2b" transform="matrix(12,0,0,12,701.9,971.2)" />
<use xlink:href="#f0_25" transform="matrix(12,0,0,12,711.8,971.2)" />
<use xlink:href="#f0_20" transform="matrix(12,0,0,12,716.5,971.2)" />
<use xlink:href="#f0_2f" transform="matrix(12,0,0,12,729.7,971.2)" />
<use xlink:href="#f0_21" transform="matrix(12,0,0,12,736.7,971.2)" />
<use xlink:href="#f0_2g" transform="matrix(12,0,0,12,744.8,971.2)" />
<use xlink:href="#f0_2b" transform="matrix(12,0,0,12,753.9,971.2)" />
<use xlink:href="#f0_22" transform="matrix(12,0,0,12,763.4,971.2)" />
<use xlink:href="#f0_1z" transform="matrix(12,0,0,12,773,971.2)" />
<use xlink:href="#f0_24" transform="matrix(12,0,0,12,781,971.2)" />
<use xlink:href="#f0_2e" transform="matrix(12,0,0,12,789.8,971.2)" />
<use xlink:href="#f0_2b" transform="matrix(12,0,0,12,796.4,971.2)" />
<use xlink:href="#f0_29" transform="matrix(12,0,0,12,805.9,971.2)" />
<use xlink:href="#f0_2b" transform="matrix(12,0,0,12,819.5,971.2)" />
<use xlink:href="#f0_2f" transform="matrix(12,0,0,12,829,971.2)" />
<use xlink:href="#f0_2b" transform="matrix(12,0,0,12,836,971.2)" />
<use xlink:href="#f0_29" transform="matrix(12,0,0,12,845.5,971.2)" />
<use xlink:href="#f0_21" transform="matrix(12,0,0,12,859.1,971.2)" />
<use xlink:href="#f0_2f" transform="matrix(12,0,0,12,867.5,971.2)" />
<use xlink:href="#f0_i" transform="matrix(12,0,0,12,874.4,971.2)" />
</g>
<path fill-rule="evenodd" d="M52.8,1027H882.5V995.1H52.8V1027Z" class="g0_175" />
<g fill="#212121" >
<use xlink:href="#f1_1j" transform="matrix(12,0,0,12,55,1012.3)" />
<use xlink:href="#f1_25" transform="matrix(12,0,0,12,65.3,1012.3)" />
<use xlink:href="#f1_23" transform="matrix(12,0,0,12,70.4,1012.3)" />
<use xlink:href="#f1_2a" transform="matrix(12,0,0,12,79.5,1012.3)" />
<use xlink:href="#f1_25" transform="matrix(12,0,0,12,89.8,1012.3)" />
<use xlink:href="#f1_22" transform="matrix(12,0,0,12,94.9,1012.3)" />
<use xlink:href="#f1_25" transform="matrix(12,0,0,12,100.8,1012.3)" />
<use xlink:href="#f1_1z" transform="matrix(12,0,0,12,105.9,1012.3)" />
<use xlink:href="#f1_1x" transform="matrix(12,0,0,12,114.1,1012.3)" />
<use xlink:href="#f1_2a" transform="matrix(12,0,0,12,123.2,1012.3)" />
<use xlink:href="#f1_1z" transform="matrix(12,0,0,12,133.4,1012.3)" />
<use xlink:href="#f1_21" transform="matrix(12,0,0,12,141.6,1012.3)" />
<use xlink:href="#f1_2b" transform="matrix(12,0,0,12,154.3,1012.3)" />
<use xlink:href="#f1_22" transform="matrix(12,0,0,12,163.5,1012.3)" />
<use xlink:href="#f1_1d" transform="matrix(12,0,0,12,174.1,1012.3)" />
<use xlink:href="#f1_21" transform="matrix(12,0,0,12,191.7,1012.3)" />
<use xlink:href="#f1_25" transform="matrix(12,0,0,12,199.8,1012.3)" />
<use xlink:href="#f1_2b" transform="matrix(12,0,0,12,204.9,1012.3)" />
<use xlink:href="#f1_2f" transform="matrix(12,0,0,12,214,1012.3)" />
<use xlink:href="#f1_25" transform="matrix(12,0,0,12,221,1012.3)" />
<use xlink:href="#f1_2f" transform="matrix(12,0,0,12,226.1,1012.3)" />
<use xlink:href="#f1_u" transform="matrix(12,0,0,12,233.1,1012.3)" />
</g>
<path fill-rule="evenodd" d="M80.3,1068.8H882.5v-33H80.3v33Z" class="g0_175" />
<g fill="#212121" >
<use xlink:href="#f2_3d" transform="matrix(12,0,0,12,82.5,1054.1)" />
<use xlink:href="#f0_1d" transform="matrix(12,0,0,12,110,1054.1)" />
<use xlink:href="#f0_1x" transform="matrix(12,0,0,12,126.2,1054.1)" />
<use xlink:href="#f0_25" transform="matrix(12,0,0,12,134.6,1054.1)" />
<use xlink:href="#f0_2a" transform="matrix(12,0,0,12,139.4,1054.1)" />
<use xlink:href="#f0_2g" transform="matrix(12,0,0,12,148.2,1054.1)" />
<use xlink:href="#f0_21" transform="matrix(12,0,0,12,153.6,1054.1)" />
<use xlink:href="#f0_2a" transform="matrix(12,0,0,12,162,1054.1)" />
<use xlink:href="#f0_1x" transform="matrix(12,0,0,12,170.8,1054.1)" />
<use xlink:href="#f0_2a" transform="matrix(12,0,0,12,179.3,1054.1)" />
<use xlink:href="#f0_1z" transform="matrix(12,0,0,12,188.1,1054.1)" />
<use xlink:href="#f0_21" transform="matrix(12,0,0,12,196.1,1054.1)" />
<use xlink:href="#f0_2b" transform="matrix(12,0,0,12,208.9,1054.1)" />
<use xlink:href="#f0_22" transform="matrix(12,0,0,12,218.5,1054.1)" />
<use xlink:href="#f0_1z" transform="matrix(12,0,0,12,228.7,1054.1)" />
<use xlink:href="#f0_24" transform="matrix(12,0,0,12,237.1,1054.1)" />
<use xlink:href="#f0_2e" transform="matrix(12,0,0,12,245.9,1054.1)" />
<use xlink:href="#f0_2b" transform="matrix(12,0,0,12,252.1,1054.1)" />
<use xlink:href="#f0_29" transform="matrix(12,0,0,12,262,1054.1)" />
<use xlink:href="#f0_2b" transform="matrix(12,0,0,12,275.6,1054.1)" />
<use xlink:href="#f0_2f" transform="matrix(12,0,0,12,285.1,1054.1)" />
<use xlink:href="#f0_2b" transform="matrix(12,0,0,12,292.1,1054.1)" />
<use xlink:href="#f0_29" transform="matrix(12,0,0,12,301.6,1054.1)" />
<use xlink:href="#f0_21" transform="matrix(12,0,0,12,315.2,1054.1)" />
<use xlink:href="#f0_2a" transform="matrix(12,0,0,12,328.3,1054.1)" />
<use xlink:href="#f0_2h" transform="matrix(12,0,0,12,337.1,1054.1)" />
<use xlink:href="#f0_29" transform="matrix(12,0,0,12,346.6,1054.1)" />
<use xlink:href="#f0_1y" transform="matrix(12,0,0,12,360.6,1054.1)" />
<use xlink:href="#f0_21" transform="matrix(12,0,0,12,369.7,1054.1)" />
<use xlink:href="#f0_2e" transform="matrix(12,0,0,12,377.8,1054.1)" />
<use xlink:href="#f0_23" transform="matrix(12,0,0,12,388.8,1054.1)" />
<use xlink:href="#f0_21" transform="matrix(12,0,0,12,397.9,1054.1)" />
<use xlink:href="#f0_2a" transform="matrix(12,0,0,12,406,1054.1)" />
<use xlink:href="#f0_21" transform="matrix(12,0,0,12,414.8,1054.1)" />
<use xlink:href="#f0_2e" transform="matrix(12,0,0,12,422.9,1054.1)" />
<use xlink:href="#f0_1x" transform="matrix(12,0,0,12,429.1,1054.1)" />
<use xlink:href="#f0_2g" transform="matrix(12,0,0,12,437.2,1054.1)" />
<use xlink:href="#f0_25" transform="matrix(12,0,0,12,443,1054.1)" />
<use xlink:href="#f0_2b" transform="matrix(12,0,0,12,447.4,1054.1)" />
<use xlink:href="#f0_2a" transform="matrix(12,0,0,12,456.9,1054.1)" />
<use xlink:href="#f0_1x" transform="matrix(12,0,0,12,470.5,1054.1)" />
<use xlink:href="#f0_22" transform="matrix(12,0,0,12,478.9,1054.1)" />
<use xlink:href="#f0_2g" transform="matrix(12,0,0,12,484.8,1054.1)" />
<use xlink:href="#f0_21" transform="matrix(12,0,0,12,490.2,1054.1)" />
<use xlink:href="#f0_2e" transform="matrix(12,0,0,12,498.3,1054.1)" />
<use xlink:href="#f0_23" transform="matrix(12,0,0,12,508.9,1054.1)" />
<use xlink:href="#f0_21" transform="matrix(12,0,0,12,518.1,1054.1)" />
<use xlink:href="#f0_2a" transform="matrix(12,0,0,12,526.1,1054.1)" />
<use xlink:href="#f0_21" transform="matrix(12,0,0,12,534.9,1054.1)" />
<use xlink:href="#f0_2e" transform="matrix(12,0,0,12,543,1054.1)" />
<use xlink:href="#f0_1x" transform="matrix(12,0,0,12,549.2,1054.1)" />
<use xlink:href="#f0_2g" transform="matrix(12,0,0,12,557.3,1054.1)" />
<use xlink:href="#f0_25" transform="matrix(12,0,0,12,562.8,1054.1)" />
<use xlink:href="#f0_2b" transform="matrix(12,0,0,12,567.2,1054.1)" />
<use xlink:href="#f0_2a" transform="matrix(12,0,0,12,576.7,1054.1)" />
<use xlink:href="#f0_25" transform="matrix(12,0,0,12,590.6,1054.1)" />
<use xlink:href="#f0_2a" transform="matrix(12,0,0,12,595.4,1054.1)" />
<use xlink:href="#f0_1z" transform="matrix(12,0,0,12,608.9,1054.1)" />
<use xlink:href="#f0_1x" transform="matrix(12,0,0,12,617,1054.1)" />
<use xlink:href="#f0_2f" transform="matrix(12,0,0,12,625.4,1054.1)" />
<use xlink:href="#f0_21" transform="matrix(12,0,0,12,632.4,1054.1)" />
<use xlink:href="#f0_2b" transform="matrix(12,0,0,12,645.2,1054.1)" />
<use xlink:href="#f0_22" transform="matrix(12,0,0,12,654.7,1054.1)" />
<use xlink:href="#f0_2f" transform="matrix(12,0,0,12,665,1054.1)" />
<use xlink:href="#f0_21" transform="matrix(12,0,0,12,671.9,1054.1)" />
<use xlink:href="#f0_2k" transform="matrix(12,0,0,12,680.3,1054.1)" />
<use xlink:href="#f0_2h" transform="matrix(12,0,0,12,689.1,1054.1)" />
<use xlink:href="#f0_1x" transform="matrix(12,0,0,12,698.6,1054.1)" />
<use xlink:href="#f0_28" transform="matrix(12,0,0,12,707.1,1054.1)" />
<use xlink:href="#f0_2e" transform="matrix(12,0,0,12,716.2,1054.1)" />
<use xlink:href="#f0_21" transform="matrix(12,0,0,12,722.4,1054.1)" />
<use xlink:href="#f0_2c" transform="matrix(12,0,0,12,730.5,1054.1)" />
<use xlink:href="#f0_2e" transform="matrix(12,0,0,12,739.7,1054.1)" />
<use xlink:href="#f0_2b" transform="matrix(12,0,0,12,745.9,1054.1)" />
<use xlink:href="#f0_20" transform="matrix(12,0,0,12,755.4,1054.1)" />
<use xlink:href="#f0_2h" transform="matrix(12,0,0,12,764.6,1054.1)" />
<use xlink:href="#f0_1z" transform="matrix(12,0,0,12,773.7,1054.1)" />
<use xlink:href="#f0_2g" transform="matrix(12,0,0,12,781.8,1054.1)" />
<use xlink:href="#f0_25" transform="matrix(12,0,0,12,787.3,1054.1)" />
<use xlink:href="#f0_2b" transform="matrix(12,0,0,12,791.7,1054.1)" />
<use xlink:href="#f0_2a" transform="matrix(12,0,0,12,801.2,1054.1)" />
<use xlink:href="#f0_i" transform="matrix(12,0,0,12,810,1054.1)" />
</g>
<path fill-rule="evenodd" d="M80.3,1101.8H882.5v-33H80.3v33Z" class="g0_175" />
<g fill="#212121" >
<use xlink:href="#f2_3d" transform="matrix(12,0,0,12,82.5,1087.1)" />
<use xlink:href="#f0_19" transform="matrix(12,0,0,12,110,1087.1)" />
<use xlink:href="#f0_2a" transform="matrix(12,0,0,12,116.3,1087.1)" />
<use xlink:href="#f0_1z" transform="matrix(12,0,0,12,125.1,1087.1)" />
<use xlink:href="#f0_2e" transform="matrix(12,0,0,12,133.1,1087.1)" />
<use xlink:href="#f0_21" transform="matrix(12,0,0,12,139.3,1087.1)" />
<use xlink:href="#f0_1x" transform="matrix(12,0,0,12,147.4,1087.1)" />
<use xlink:href="#f0_2f" transform="matrix(12,0,0,12,155.5,1087.1)" />
<use xlink:href="#f0_21" transform="matrix(12,0,0,12,162.8,1087.1)" />
<use xlink:href="#f0_2f" transform="matrix(12,0,0,12,170.8,1087.1)" />
<use xlink:href="#f0_2i" transform="matrix(12,0,0,12,182.6,1087.1)" />
<use xlink:href="#f0_1x" transform="matrix(12,0,0,12,191.7,1087.1)" />
<use xlink:href="#f0_2e" transform="matrix(12,0,0,12,199.8,1087.1)" />
<use xlink:href="#f0_25" transform="matrix(12,0,0,12,206.4,1087.1)" />
<use xlink:href="#f0_1x" transform="matrix(12,0,0,12,210.8,1087.1)" />
<use xlink:href="#f0_2g" transform="matrix(12,0,0,12,218.8,1087.1)" />
<use xlink:href="#f0_25" transform="matrix(12,0,0,12,224.7,1087.1)" />
<use xlink:href="#f0_2b" transform="matrix(12,0,0,12,229.1,1087.1)" />
<use xlink:href="#f0_2a" transform="matrix(12,0,0,12,238.6,1087.1)" />
<use xlink:href="#f0_25" transform="matrix(12,0,0,12,252.5,1087.1)" />
<use xlink:href="#f0_2a" transform="matrix(12,0,0,12,257.3,1087.1)" />
<use xlink:href="#f0_2c" transform="matrix(12,0,0,12,270.8,1087.1)" />
<use xlink:href="#f0_2b" transform="matrix(12,0,0,12,280,1087.1)" />
<use xlink:href="#f0_2c" transform="matrix(12,0,0,12,289.5,1087.1)" />
<use xlink:href="#f0_2h" transform="matrix(12,0,0,12,298.7,1087.1)" />
<use xlink:href="#f0_28" transform="matrix(12,0,0,12,308.2,1087.1)" />
<use xlink:href="#f0_1x" transform="matrix(12,0,0,12,312.6,1087.1)" />
<use xlink:href="#f0_2g" transform="matrix(12,0,0,12,320.7,1087.1)" />
<use xlink:href="#f0_25" transform="matrix(12,0,0,12,326.5,1087.1)" />
<use xlink:href="#f0_2b" transform="matrix(12,0,0,12,330.9,1087.1)" />
<use xlink:href="#f0_2a" transform="matrix(12,0,0,12,340.4,1087.1)" />
<use xlink:href="#f0_i" transform="matrix(12,0,0,12,349.2,1087.1)" />
</g>
<path fill-rule="evenodd" d="M55,1132.2H520.5V1111H55v21.2Z" class="g0_175" />
<g fill="#000000" >
<use xlink:href="#f1_1p" transform="matrix(12,0,0,12,55,1128.2)" />
<use xlink:href="#f1_2b" transform="matrix(12,0,0,12,68.3,1128.2)" />
<use xlink:href="#f1_2h" transform="matrix(12,0,0,12,77.4,1128.2)" />
<use xlink:href="#f1_2g" transform="matrix(12,0,0,12,87.6,1128.2)" />
<use xlink:href="#f1_2h" transform="matrix(12,0,0,12,93.9,1128.2)" />
<use xlink:href="#f1_1y" transform="matrix(12,0,0,12,104.2,1128.2)" />
<use xlink:href="#f1_21" transform="matrix(12,0,0,12,114.4,1128.2)" />
<use xlink:href="#f0_h" transform="matrix(12,0,0,12,126.9,1128.2)" />
<use xlink:href="#f0_24" transform="matrix(12,0,0,12,137.9,1128.2)" />
<use xlink:href="#f0_2g" transform="matrix(12,0,0,12,146.7,1128.2)" />
<use xlink:href="#f0_2g" transform="matrix(12,0,0,12,151.8,1128.2)" />
<use xlink:href="#f0_2c" transform="matrix(12,0,0,12,157.3,1128.2)" />
<use xlink:href="#f0_2f" transform="matrix(12,0,0,12,166.5,1128.2)" />
<use xlink:href="#f0_u" transform="matrix(12,0,0,12,173.5,1128.2)" />
<use xlink:href="#f0_j" transform="matrix(12,0,0,12,178.5,1128.2)" />
<use xlink:href="#f0_j" transform="matrix(12,0,0,12,183.7,1128.2)" />
<use xlink:href="#f0_2j" transform="matrix(12,0,0,12,188.8,1128.2)" />
<use xlink:href="#f0_2j" transform="matrix(12,0,0,12,202,1128.2)" />
<use xlink:href="#f0_2j" transform="matrix(12,0,0,12,215.3,1128.2)" />
<use xlink:href="#f0_i" transform="matrix(12,0,0,12,228.4,1128.2)" />
<use xlink:href="#f0_2l" transform="matrix(12,0,0,12,233.2,1128.2)" />
<use xlink:href="#f0_2b" transform="matrix(12,0,0,12,241.6,1128.2)" />
<use xlink:href="#f0_2h" transform="matrix(12,0,0,12,251.1,1128.2)" />
<use xlink:href="#f0_2g" transform="matrix(12,0,0,12,260.3,1128.2)" />
<use xlink:href="#f0_2h" transform="matrix(12,0,0,12,265.8,1128.2)" />
<use xlink:href="#f0_1y" transform="matrix(12,0,0,12,274.9,1128.2)" />
<use xlink:href="#f0_21" transform="matrix(12,0,0,12,283.7,1128.2)" />
<use xlink:href="#f0_i" transform="matrix(12,0,0,12,291.8,1128.2)" />
<use xlink:href="#f0_1z" transform="matrix(12,0,0,12,296.6,1128.2)" />
<use xlink:href="#f0_2b" transform="matrix(12,0,0,12,304.3,1128.2)" />
<use xlink:href="#f0_29" transform="matrix(12,0,0,12,313.8,1128.2)" />
<use xlink:href="#f0_j" transform="matrix(12,0,0,12,327.3,1128.2)" />
<use xlink:href="#f0_2j" transform="matrix(12,0,0,12,332.4,1128.2)" />
<use xlink:href="#f0_1x" transform="matrix(12,0,0,12,345.7,1128.2)" />
<use xlink:href="#f0_2g" transform="matrix(12,0,0,12,353.7,1128.2)" />
<use xlink:href="#f0_1z" transform="matrix(12,0,0,12,359.2,1128.2)" />
<use xlink:href="#f0_24" transform="matrix(12,0,0,12,367.6,1128.2)" />
<use xlink:href="#f0_z" transform="matrix(12,0,0,12,376.8,1128.2)" />
<use xlink:href="#f0_2i" transform="matrix(12,0,0,12,384.9,1128.2)" />
<use xlink:href="#f0_x" transform="matrix(12,0,0,12,393.7,1128.2)" />
<use xlink:href="#f0_1h" transform="matrix(12,0,0,12,403.9,1128.2)" />
<use xlink:href="#f0_q" transform="matrix(12,0,0,12,417.2,1128.2)" />
<use xlink:href="#f0_2h" transform="matrix(12,0,0,12,426.7,1128.2)" />
<use xlink:href="#f0_1z" transform="matrix(12,0,0,12,435.8,1128.2)" />
<use xlink:href="#f0_1b" transform="matrix(12,0,0,12,443.9,1128.2)" />
<use xlink:href="#f0_1n" transform="matrix(12,0,0,12,457.1,1128.2)" />
<use xlink:href="#f0_19" transform="matrix(12,0,0,12,474,1128.2)" />
<use xlink:href="#f0_19" transform="matrix(12,0,0,12,480.2,1128.2)" />
<use xlink:href="#f0_16" transform="matrix(12,0,0,12,486.7,1128.2)" />
<use xlink:href="#f0_29" transform="matrix(12,0,0,12,497,1128.2)" />
<use xlink:href="#f0_23" transform="matrix(12,0,0,12,510.6,1128.2)" />
</g>
<image preserveAspectRatio="none" x="246" y="55" width="443" height="630" xlink:href="img/1.png" />
<g fill="#000000" >
<use xlink:href="#f3_t" transform="matrix(8,0,0,8,818.2,1187.9)" />
</g>
<defs>
<path d="M54,0V40L172,60V941L44,960v40H794V760H745L721,922c0,0,-83,11,-241,11H316V516H611l23,120h46V328H634L611,449H316V60L483,40V0Z" 
id="f0_16"
transform="scale(0.001,-0.001)" />

<path d="M32,0V33L151,52V649L52,668v33H275V52L395,33V0ZM201,850c0,0,-32,0,-56,24c0,0,-24,24,-24,56c0,0,0,34,24,58c0,0,24,24,56,24c0,0,34,0,58,-24c0,0,24,-24,24,-58c0,0,0,-32,-24,-56c0,0,-24,-24,-58,-24Z" 
id="f0_25"
transform="scale(0.001,-0.001)" />

<path d="M359,-270c0,0,124,0,192,46c0,0,67,47,67,129c0,0,0,43,-26,67c0,0,-26,24,-79,24H242c0,0,-32,-27,-51,-69c0,0,-20,-41,-20,-77c0,0,0,-64,46,-92c0,0,46,-28,142,-28Zm11,561c0,0,81,0,115,47c0,0,34,47,34,141c0,0,0,100,-35,142c0,0,-35,42,-113,42c0,0,-78,0,-114,-43c0,0,-37,-42,-37,-141c0,0,0,-98,36,-143c0,0,36,-45,114,-45ZM359,-329c0,0,-143,0,-218,44c0,0,-75,43,-75,125c0,0,0,39,27,78c0,0,26,38,98,89c0,0,-43,14,-72,48c0,0,-29,35,-29,74L208,262c0,0,-118,55,-118,217c0,0,0,115,73,178c0,0,73,63,211,63c0,0,28,0,71,-6c0,0,44,-6,67,-13l165,83l26,-32L599,644c0,0,50,-56,50,-165c0,0,0,-120,-72,-182c0,0,-73,-62,-208,-62c0,0,-62,0,-114,11L208,148c0,0,2,-13,29,-24c0,0,27,-12,67,-12H512c0,0,113,0,168,-49c0,0,55,-49,55,-134c0,0,0,-79,-44,-137c0,0,-43,-58,-128,-90c0,0,-84,-31,-204,-31Z" 
id="f0_23"
transform="scale(0.001,-0.001)" />

<path d="M191,-20c0,0,-39,0,-65,25c0,0,-25,27,-25,64c0,0,0,38,26,64c0,0,26,26,64,26c0,0,38,0,64,-26c0,0,26,-26,26,-64c0,0,0,-37,-25,-64c0,0,-26,-25,-65,-25Z" 
id="f0_i"
transform="scale(0.001,-0.001)" />

<path d="M134,0V40L339,60V876L137,804v39l292,166h39V60L672,40V0Z" 
id="f0_l"
transform="scale(0.001,-0.001)" />

<path d="M529,65c0,0,183,0,270,108c0,0,87,108,87,334c0,0,0,210,-113,318c0,0,-113,108,-322,108H316V71c0,0,90,-6,213,-6Zm0,-67L172,0H44V40L172,60V941L44,960v40H498c0,0,277,0,411,-123c0,0,133,-124,133,-371c0,0,0,-251,-129,-380C913,126,785,-2,529,-2Z" 
id="f0_14"
transform="scale(0.001,-0.001)" />

<path d="M64,0V34L168,59V639H47v36l121,29v49c0,0,0,155,61,239c0,0,62,84,173,84c0,0,58,0,107,-15V908H472l-33,92c0,0,-26,16,-62,16c0,0,-47,0,-66,-42c0,0,-19,-42,-19,-157V701H478V639H292V59L443,34V0Z" 
id="f0_22"
transform="scale(0.001,-0.001)" />

<path d="M495,413c0,0,0,133,-34,190c0,0,-34,57,-105,57c0,0,-78,0,-119,-63c0,0,-42,-62,-42,-184ZM374,-14c0,0,-163,0,-239,87c0,0,-75,88,-75,283c0,0,0,183,77,273c0,0,76,91,219,91c0,0,269,0,269,-306V353H194V340c0,0,0,-103,23,-160c0,0,22,-57,70,-87c0,0,47,-29,124,-29c0,0,40,0,96,6c0,0,55,7,91,15V43C598,43,562,20,500,3c0,0,-61,-17,-126,-17Z" 
id="f0_21"
transform="scale(0.001,-0.001)" />

<path d="M31,0V33l88,19V649L31,668v33H235l7,-87c0,0,44,37,121,71c0,0,76,35,121,35h11V530H463l-43,82c0,0,-37,0,-88,-10c0,0,-52,-10,-89,-26V52L363,33V0Z" 
id="f0_2e"
transform="scale(0.001,-0.001)" />

<path d="M439,0V33l93,19V500c0,0,0,62,-30,97c0,0,-31,36,-94,36c0,0,-67,0,-165,-22V52L338,33V0H35V33l84,19V649L35,668v33H235l7,-57c0,0,57,33,122,54c0,0,65,22,108,22c0,0,91,0,137,-53c0,0,47,-53,47,-154V52L741,33V0Z" 
id="f0_2a"
transform="scale(0.001,-0.001)" />

<path d="M249,-14c0,0,-71,0,-107,42c0,0,-35,42,-35,119V639H15v33l93,29l76,159h47V701H391V639H231V161c0,0,0,-48,22,-73c0,0,22,-24,57,-24c0,0,44,0,106,12V26C416,26,389,8,340,-2c0,0,-49,-12,-91,-12Z" 
id="f0_2g"
transform="scale(0.001,-0.001)" />

<path d="M278,-14c0,0,-52,0,-115,11c0,0,-63,10,-99,23V193H98L134,95c0,0,56,-50,146,-50c0,0,144,0,144,123c0,0,0,91,-114,130l-66,21c0,0,-75,25,-110,50c0,0,-34,26,-53,63c0,0,-18,36,-18,89c0,0,0,92,63,145c0,0,63,54,170,54c0,0,77,0,193,-23V544H454l-32,81c0,0,-39,35,-124,35c0,0,-61,0,-92,-30c0,0,-32,-30,-32,-80c0,0,0,-43,29,-72c0,0,28,-29,86,-48c0,0,110,-38,144,-55c0,0,33,-17,57,-42c0,0,23,-25,36,-57c0,0,13,-32,13,-79c0,0,0,-104,-66,-158c0,0,-66,-53,-195,-53Z" 
id="f0_2f"
transform="scale(0.001,-0.001)" />

<path d="M284,67c0,0,51,0,88,12c0,0,37,12,74,30V358l-98,-3c0,0,-100,-4,-135,-39c0,0,-35,-35,-35,-117c0,0,0,-132,106,-132ZM233,-14c0,0,-179,0,-179,208c0,0,0,70,27,116c0,0,27,46,87,70c0,0,60,24,173,27l105,3V519c0,0,0,72,-26,107c0,0,-27,34,-82,34c0,0,-75,0,-137,-35L176,538H134V691c0,0,121,26,213,26c0,0,115,0,169,-47c0,0,54,-47,54,-144V52L657,33V0H465L451,70c0,0,-85,-84,-218,-84Z" 
id="f0_1x"
transform="scale(0.001,-0.001)" />

<path d="M377,45c0,0,99,0,147,73c0,0,47,73,47,237c0,0,0,161,-47,233c0,0,-47,72,-147,72c0,0,-97,0,-141,-69c0,0,-44,-69,-44,-236c0,0,0,-169,45,-240c0,0,44,-70,140,-70Zm0,-59c0,0,-158,0,-238,94c0,0,-81,95,-81,274c0,0,0,178,81,272c0,0,80,94,244,94c0,0,160,0,241,-92c0,0,82,-92,82,-274c0,0,0,-368,-329,-368Z" 
id="f0_2b"
transform="scale(0.001,-0.001)" />

<path d="M431,0V33L535,52V499c0,0,0,62,-32,96c0,0,-32,33,-95,33c0,0,-66,0,-163,-22V52L350,33V0H32V33l89,19V649L32,668v33H237l6,-57c0,0,56,32,119,54c0,0,62,22,110,22c0,0,52,0,95,-20c0,0,44,-19,66,-62c0,0,57,32,134,57c0,0,77,25,128,25c0,0,179,0,179,-207V52l90,-19V0H846V33L950,52V499c0,0,0,129,-119,129c0,0,-19,0,-45,-3c0,0,-26,-3,-52,-7c0,0,-25,-4,-49,-8c0,0,-23,-5,-39,-8c0,0,13,-41,13,-89V52L764,33V0Z" 
id="f0_29"
transform="scale(0.001,-0.001)" />

<path d="M55,0V40L184,60V941L55,960v40H455V960L327,941V60L455,40V0Z" 
id="f0_19"
transform="scale(0.001,-0.001)" />

<path d="M41,0V49l69,18V634L41,652v49H313l11,-61l50,26c0,0,105,54,188,54c0,0,125,0,167,-91c0,0,153,91,258,91c0,0,189,0,189,-207V67l71,-17V0H898V50l63,17V484c0,0,0,63,-24,98c0,0,-25,35,-74,35c0,0,-55,0,-119,-31c0,0,7,-32,7,-73V67L821,50V0H473V50l63,17V484c0,0,0,63,-25,98c0,0,-24,35,-73,35c0,0,-49,0,-113,-29V67L389,49V0Z" 
id="f1_29"
transform="scale(0.001,-0.001)" />

<path d="M434,423c0,0,0,101,-7,142c0,0,-6,40,-22,60c0,0,-16,19,-45,19c0,0,-44,0,-66,-48c0,0,-22,-49,-22,-173ZM389,-14c0,0,-172,0,-254,89c0,0,-83,90,-83,279c0,0,0,184,79,274c0,0,79,91,238,91c0,0,142,0,206,-76c0,0,64,-76,64,-237V345H271V333c0,0,0,-111,18,-158c0,0,18,-47,58,-72c0,0,40,-25,110,-25c0,0,66,0,166,22V42C623,42,582,18,517,1c0,0,-66,-15,-128,-15Z" 
id="f1_21"
transform="scale(0.001,-0.001)" />

<path d="M327,-14c0,0,-101,0,-156,45c0,0,-55,45,-55,131V624H25v48l108,29l87,159H332V701H480V624H332V176c0,0,0,-49,20,-73c0,0,20,-25,53,-25c0,0,40,0,97,12V26c0,0,-22,-15,-76,-27c0,0,-55,-13,-99,-13Z" 
id="f1_2g"
transform="scale(0.001,-0.001)" />

<path d="M345,75c0,0,50,0,110,26V351l-63,-2c0,0,-72,-3,-100,-38c0,0,-28,-35,-28,-113c0,0,0,-63,22,-93c0,0,23,-30,59,-30ZM266,-14c0,0,-217,0,-217,208c0,0,0,79,32,126c0,0,32,48,93,71c0,0,60,22,190,25l91,2V521c0,0,0,126,-104,126c0,0,-62,0,-140,-39L183,521H134V691c0,0,112,17,165,21c0,0,53,5,108,5c0,0,264,0,264,-194V67L741,49V0H483L466,54C466,54,408,14,361,0c0,0,-47,-14,-95,-14Z" 
id="f1_1x"
transform="scale(0.001,-0.001)" />

<path d="M438,65c0,0,131,0,131,293c0,0,0,279,-130,279c0,0,-69,0,-127,-29V80c0,0,60,-15,126,-15ZM20,-325v50l76,18V634L19,652v49H304l1,-36c0,0,80,55,194,55c0,0,146,0,218,-86c0,0,71,-86,71,-271c0,0,0,-183,-83,-280c0,0,-83,-97,-238,-97c0,0,-79,0,-160,19c0,0,5,-48,5,-109V-257l103,-18v-50Z" 
id="f1_2c"
transform="scale(0.001,-0.001)" />

<path d="M41,0V49l69,18V992l-72,18v50H325V756c0,0,0,-49,-4,-116l51,26c0,0,106,54,190,54c0,0,194,0,194,-207V67L827,49V0H478V49l63,18V484c0,0,0,63,-27,98c0,0,-26,35,-75,35c0,0,-57,0,-114,-25V67L389,49V0Z" 
id="f1_24"
transform="scale(0.001,-0.001)" />

<path d="M276,-14c0,0,-57,0,-125,13C151,-1,83,10,48,23V214H97l28,-98c0,0,26,-26,69,-44c0,0,42,-17,86,-17c0,0,65,0,97,28c0,0,32,28,32,71c0,0,0,41,-31,65c0,0,-30,25,-133,57c0,0,-108,34,-154,92c0,0,-45,58,-45,143c0,0,0,95,71,152c0,0,71,57,183,57c0,0,77,0,207,-22V518H457l-24,82c0,0,-21,22,-60,35c0,0,-40,14,-75,14c0,0,-53,0,-79,-22c0,0,-26,-22,-26,-59c0,0,0,-40,32,-65c0,0,32,-26,132,-55c0,0,109,-34,155,-89c0,0,45,-55,45,-137c0,0,0,-117,-72,-177c0,0,-72,-59,-209,-59Z" 
id="f1_2f"
transform="scale(0.001,-0.001)" />

<path d="M51,0V55L180,74V926L51,946v54H543V946L415,926V74L543,55V0Z" 
id="f1_19"
transform="scale(0.001,-0.001)" />

<path d="M58,-234v58c0,0,131,42,131,125c0,0,0,15,-11,27c0,0,-11,12,-38,25C140,1,89,27,89,75c0,0,0,40,25,61c0,0,26,21,65,21c0,0,48,0,77,-34c0,0,30,-34,30,-86c0,0,0,-101,-60,-170c0,0,-59,-69,-168,-101Z" 
id="f0_g"
transform="scale(0.001,-0.001)" />

<path d="M442,0V33l93,19V504c0,0,0,129,-124,129c0,0,-70,0,-168,-22V52L338,33V0H31V33l88,19v956L15,1026v34H243V756c0,0,0,-77,-5,-112c0,0,54,31,122,53c0,0,68,23,115,23c0,0,91,0,137,-53c0,0,47,-53,47,-154V52L744,33V0Z" 
id="f0_24"
transform="scale(0.001,-0.001)" />

<path d="M399,-14c0,0,-341,0,-341,370c0,0,0,175,87,269c0,0,87,95,249,95c0,0,101,0,220,-23V501H573L541,625c0,0,-62,35,-149,35c0,0,-200,0,-200,-304c0,0,0,-158,61,-225c0,0,61,-67,189,-67c0,0,109,0,189,24V43C631,43,595,16,530,1c0,0,-64,-15,-131,-15Z" 
id="f0_1z"
transform="scale(0.001,-0.001)" />

<path d="M382,45c0,0,188,0,188,314c0,0,0,143,-47,213c0,0,-46,69,-141,69c0,0,-87,0,-146,-24V58c0,0,67,-13,146,-13ZM25,-325v35l88,18V649L34,668v33H231l1,-41c0,0,31,27,84,43c0,0,53,17,107,17c0,0,134,0,208,-94c0,0,73,-93,73,-267c0,0,0,-178,-80,-276c0,0,-80,-97,-232,-97c0,0,-84,0,-160,16c0,0,4,-53,4,-84V-272l123,-18v-35Z" 
id="f0_2c"
transform="scale(0.001,-0.001)" />

<path d="M327,-14L84,649L1,668v33H335V668L219,648L385,174L554,632h63L786,171L944,649L830,668v33h267V668l-78,-16L784,-14H726L553,448L382,-14Z" 
id="f0_2j"
transform="scale(0.001,-0.001)" />

<path d="M477,0V33l64,19L348,354L257,254V52L331,33V0H44V33l89,19v956L29,1026v34H257V338L544,647l-73,20v34H718V667L631,650L431,446L688,50L764,33V0Z" 
id="f0_27"
transform="scale(0.001,-0.001)" />

<path d="M383,64c0,0,85,0,152,28V645c0,0,-67,13,-152,13c0,0,-194,0,-194,-314c0,0,0,-141,48,-211c0,0,48,-69,146,-69ZM342,-14c0,0,-287,0,-287,358c0,0,0,184,82,280c0,0,81,96,239,96c0,0,81,0,163,-18c0,0,-4,25,-4,124v182l-118,18v34H659V52L745,33V0H548l-9,52c0,0,-84,-66,-197,-66Z" 
id="f0_20"
transform="scale(0.001,-0.001)" />

<path d="M31,0V33L150,52v956L31,1026v34H274V52L394,33V0Z" 
id="f0_28"
transform="scale(0.001,-0.001)" />

<path d="M376,50c0,0,103,0,149,80c0,0,46,81,46,240c0,0,0,137,-47,204c0,0,-48,67,-148,67c0,0,-44,0,-87,-7c0,0,-44,-8,-63,-17V62c0,0,63,-12,150,-12Zm3,-64c0,0,-64,0,-141,14c0,0,-78,14,-136,37v971L0,1026v34H226V809c0,0,0,-40,-4,-148c0,0,74,59,188,59c0,0,143,0,219,-87c0,0,77,-87,77,-263c0,0,0,-189,-84,-287c0,0,-84,-97,-243,-97Z" 
id="f0_1y"
transform="scale(0.001,-0.001)" />

<path d="M235,0V40L394,60V936H356c0,0,-189,0,-258,-15L78,766H28v234H908V766H857L837,921c0,0,-22,5,-98,9c0,0,-75,4,-165,4H538V60L697,40V0Z" 
id="f0_1k"
transform="scale(0.001,-0.001)" />

<path d="M148,-329c0,0,-58,0,-114,13v151H69l24,-71c0,0,23,-17,64,-17c0,0,39,0,72,22c0,0,33,23,60,67c0,0,27,44,68,157L90,649L19,668v33H344V668L233,648L423,158L606,649L497,668v33H758V668L685,652L411,-43c0,0,-48,-124,-84,-177c0,0,-36,-54,-79,-82c0,0,-44,-27,-100,-27Z" 
id="f0_2l"
transform="scale(0.001,-0.001)" />

<path d="M370,468c0,0,96,0,194,40c0,0,0,229,-45,336c0,0,-45,107,-146,107c0,0,-187,0,-187,-259c0,0,0,-115,45,-169c0,0,45,-55,139,-55ZM312,-14c0,0,-122,0,-223,25V184h48L163,76c0,0,24,-11,65,-20c0,0,40,-9,81,-9c0,0,119,0,183,105c0,0,65,104,71,307c0,0,-113,-62,-230,-62c0,0,-132,0,-208,79c0,0,-76,78,-76,219c0,0,0,151,85,233c0,0,84,83,237,83c0,0,171,0,251,-123c0,0,79,-123,79,-385c0,0,0,-252,-102,-385C599,118,497,-14,312,-14Z" 
id="f0_t"
transform="scale(0.001,-0.001)" />

<path d="M377,45c0,0,99,0,145,108c0,0,46,109,46,352c0,0,0,240,-45,345c0,0,-46,106,-146,106c0,0,-97,0,-139,-100c0,0,-43,-99,-43,-351c0,0,0,-254,44,-357c0,0,43,-103,138,-103Zm0,-59c0,0,-158,0,-238,132c0,0,-81,133,-81,386c0,0,0,249,81,380c0,0,80,132,244,132c0,0,159,0,241,-130c0,0,82,-130,82,-382c0,0,0,-518,-329,-518Z" 
id="f0_k"
transform="scale(0.001,-0.001)" />

<path d="M289,-14c0,0,-179,0,-179,205V649L20,668v33H233V200c0,0,0,-128,120,-128c0,0,92,0,173,23V649L420,668v33H649V52L738,33V0H533l-6,57C527,57,474,28,405,7c0,0,-69,-21,-116,-21Z" 
id="f0_2h"
transform="scale(0.001,-0.001)" />

<path d="M360,-14L72,649L0,668v33H327V668L216,648L420,164L615,649L504,668v33H764V668L697,652L416,-14Z" 
id="f0_2i"
transform="scale(0.001,-0.001)" />

<path d="M639,416L478,858L313,416ZM647,0V54L762,74L667,333H283L191,74L319,54V0H15V54L90,74l355,935H662L1016,74l76,-20V0Z" 
id="f1_11"
transform="scale(0.001,-0.001)" />

<path d="M41,0V49l69,18V634L41,652v49H313l11,-61l50,26c0,0,105,54,188,54c0,0,194,0,194,-207V67L827,49V0H478V49l63,18V484c0,0,0,63,-27,98c0,0,-26,35,-75,35c0,0,-57,0,-114,-25V67L389,49V0Z" 
id="f1_2a"
transform="scale(0.001,-0.001)" />

<path d="M231,0V54L390,74V921H352c0,0,-171,0,-240,-15L92,721H24v279H996V721H927L907,906c0,0,-62,14,-245,14H626V74L785,54V0Z" 
id="f1_1k"
transform="scale(0.001,-0.001)" />

<path d="M30,0V49l76,18V992l-72,18v50H322V67L398,49V0Z" 
id="f1_28"
transform="scale(0.001,-0.001)" />

<path d="M379,60c0,0,59,0,84,64c0,0,24,65,24,231c0,0,0,164,-24,227c0,0,-24,63,-84,63c0,0,-57,0,-80,-60c0,0,-22,-61,-22,-230c0,0,0,-173,23,-234c0,0,22,-61,79,-61Zm-2,-74c0,0,-161,0,-240,91c0,0,-79,91,-79,277c0,0,0,186,80,276c0,0,81,90,245,90c0,0,167,0,245,-93c0,0,78,-93,78,-273c0,0,0,-188,-81,-278c0,0,-81,-90,-248,-90Z" 
id="f1_2b"
transform="scale(0.001,-0.001)" />

<path d="M57,302V417H454V302Z" 
id="f0_h"
transform="scale(0.001,-0.001)" />

<path d="M868,0L251,900V60L385,40V0H44V40L172,60V941L44,960v40H347L862,259V941L727,960v40h341V960L940,941V0Z" 
id="f0_1e"
transform="scale(0.001,-0.001)" />

<path d="M41,0V34L426,641H261c0,0,-42,0,-80,-7c0,0,-39,-7,-54,-19L104,515H69V701H586V665L201,60H407c0,0,42,0,89,10c0,0,47,10,66,25l39,147h35L617,0Z" 
id="f0_2m"
transform="scale(0.001,-0.001)" />

<path d="M410,-14c0,0,-86,0,-175,14C235,0,145,14,81,38V307h66L181,146c0,0,31,-37,94,-62c0,0,64,-24,132,-24c0,0,214,0,214,177c0,0,0,55,-41,93c0,0,-41,38,-128,68c0,0,-128,42,-185,68c0,0,-56,27,-95,63c0,0,-38,36,-62,87c0,0,-23,51,-23,125c0,0,0,132,90,201c0,0,90,69,263,69c0,0,125,0,278,-32V741H651L618,878c0,0,-76,56,-178,56c0,0,-92,0,-141,-34c0,0,-49,-34,-49,-104c0,0,0,-50,41,-86c0,0,41,-35,128,-63c0,0,171,-56,235,-97c0,0,64,-41,97,-103c0,0,34,-61,34,-143c0,0,0,-318,-375,-318Z" 
id="f1_1j"
transform="scale(0.001,-0.001)" />

<path d="M34,0V49l76,18V634L38,652v49H325V67L402,49V0ZM217,831c0,0,-48,0,-81,33c0,0,-34,33,-34,82c0,0,0,48,34,81c0,0,34,33,81,33c0,0,48,0,81,-33c0,0,33,-33,33,-81c0,0,0,-47,-33,-81c0,0,-32,-34,-81,-34Z" 
id="f1_25"
transform="scale(0.001,-0.001)" />

<path d="M360,-256c0,0,108,0,167,35c0,0,59,35,59,98c0,0,0,70,-95,70H254c0,0,-65,-47,-65,-108c0,0,0,-47,46,-71c0,0,45,-24,125,-24Zm9,561c0,0,55,0,79,43c0,0,25,43,25,129c0,0,0,87,-24,127c0,0,-25,41,-80,41c0,0,-52,0,-75,-41c0,0,-24,-40,-24,-127c0,0,0,-86,23,-129c0,0,23,-43,76,-43Zm-9,-641c0,0,-153,0,-236,43c0,0,-84,44,-84,120c0,0,0,33,28,65c0,0,27,31,105,76c0,0,-44,17,-75,59c0,0,-31,43,-31,90L192,258c0,0,-133,56,-133,219c0,0,0,116,81,180c0,0,82,63,233,63c0,0,32,0,82,-6c0,0,51,-6,74,-13l168,83l26,-32L638,631c0,0,46,-57,46,-154c0,0,0,-119,-80,-182c0,0,-80,-64,-234,-64c0,0,-59,0,-114,9L238,183c0,0,1,-22,28,-41c0,0,26,-19,64,-19H493c0,0,256,0,256,-196c0,0,0,-81,-44,-139c0,0,-45,-59,-131,-92c0,0,-86,-32,-214,-32Z" 
id="f1_23"
transform="scale(0.001,-0.001)" />

<path d="M41,0V49l76,18V624H11v51l106,29v75c0,0,0,144,73,220c0,0,73,77,210,77c0,0,74,0,124,-15V894H476l-22,81c0,0,-18,17,-47,17c0,0,-74,0,-74,-189V701H475V624H333V67L447,49V0Z" 
id="f1_22"
transform="scale(0.001,-0.001)" />

<path d="M425,-14c0,0,-187,0,-280,90c0,0,-93,90,-93,276c0,0,0,115,42,198c0,0,43,82,121,126c0,0,78,44,182,44c0,0,104,0,227,-26V486H571L539,609c0,0,-25,19,-50,26c0,0,-24,7,-65,7c0,0,-44,0,-79,-35c0,0,-36,-35,-56,-98c0,0,-20,-64,-20,-153c0,0,0,-150,47,-214c0,0,47,-64,148,-64c0,0,103,0,176,21V42C640,42,606,15,547,0c0,0,-59,-14,-122,-14Z" 
id="f1_1z"
transform="scale(0.001,-0.001)" />

<path d="M900,0V54l135,20V845L658,0H617L248,845V74L382,54V0H26V54L154,74V926L26,945v55H419L705,342l292,658h401V945L1270,926V74L1398,54V0Z" 
id="f1_1d"
transform="scale(0.001,-0.001)" />

<path d="M248,-20c0,0,-52,0,-87,34c0,0,-36,36,-36,88c0,0,0,52,36,88c0,0,35,36,87,36c0,0,52,0,88,-36c0,0,36,-36,36,-88c0,0,0,-51,-36,-87c0,0,-35,-35,-88,-35Zm0,488c0,0,-52,0,-87,36c0,0,-36,36,-36,88c0,0,0,52,35,88c0,0,35,36,88,36c0,0,53,0,89,-36c0,0,35,-37,35,-88c0,0,0,-51,-36,-87c0,0,-35,-37,-88,-37Z" 
id="f1_u"
transform="scale(0.001,-0.001)" />

<path d="M273,157c0,0,-114,0,-193,80C80,237,0,317,0,431c0,0,0,112,80,192c0,0,79,80,193,80c0,0,113,0,192,-80c0,0,80,-80,80,-192c0,0,0,-114,-80,-194c0,0,-79,-80,-192,-80Z" 
id="f2_3d"
transform="scale(0.001,-0.001)" />

<path d="M617,0L251,860V60L385,40V0H44V40L172,60V941L44,960v40H347L672,239l355,761h287V960L1185,941V60L1314,40V0H908V40l134,20V859L643,0Z" 
id="f0_1d"
transform="scale(0.001,-0.001)" />

<path d="M13,0V34L95,46L325,350L122,649L40,668v33H357V668L264,648L399,446L554,649l-96,19v33H710V668L630,652L433,397L663,50L745,34V0H427V34l94,17L359,299L169,50L266,34V0Z" 
id="f0_2k"
transform="scale(0.001,-0.001)" />

<path d="M285,0V54L444,74V389L140,926L27,945v55H542V945L407,926L636,507L856,926L734,945v55h340V945L968,926L680,394V74L838,54V0Z" 
id="f1_1p"
transform="scale(0.001,-0.001)" />

<path d="M287,-18c0,0,-194,0,-194,206V634L23,652v49H309V217c0,0,0,-63,26,-98c0,0,27,-35,76,-35c0,0,57,0,113,25V634l-64,18v49H740V67L809,49V0H536L526,61L475,35c0,0,-104,-53,-188,-53Z" 
id="f1_2h"
transform="scale(0.001,-0.001)" />

<path d="M424,64c0,0,74,0,109,71c0,0,36,72,36,236c0,0,0,137,-34,201c0,0,-34,65,-111,65c0,0,-29,0,-62,-7c0,0,-34,-6,-55,-19V76c0,0,47,-12,117,-12Zm21,-78c0,0,-121,0,-354,50V994l-72,18v48H307V802c0,0,0,-69,-8,-141c0,0,30,25,86,42c0,0,57,17,110,17c0,0,153,0,223,-84c0,0,70,-83,70,-266c0,0,0,-180,-90,-283C698,87,608,-14,445,-14Z" 
id="f1_1y"
transform="scale(0.001,-0.001)" />

<path d="M211,-20c0,0,-39,0,-64,25c0,0,-26,27,-26,64c0,0,0,38,26,64c0,0,26,26,64,26c0,0,37,0,64,-25c0,0,26,-26,26,-65c0,0,0,-37,-26,-64c0,0,-26,-25,-64,-25Zm0,556c0,0,-38,0,-64,26c0,0,-26,26,-26,64c0,0,0,37,26,64c0,0,25,27,64,27c0,0,38,0,64,-27c0,0,26,-27,26,-64c0,0,0,-38,-26,-64c0,0,-27,-26,-64,-26Z" 
id="f0_u"
transform="scale(0.001,-0.001)" />

<path d="M0,-14L351,1007h73L75,-14Z" 
id="f0_j"
transform="scale(0.001,-0.001)" />

<path d="M306,-20c0,0,-39,0,-65,25c0,0,-25,27,-25,64c0,0,0,38,26,64c0,0,26,26,64,26c0,0,37,0,63,-25c0,0,26,-26,26,-65c0,0,0,-37,-25,-64c0,0,-26,-25,-64,-25ZM269,261L249,510l107,22c0,0,64,13,93,65c0,0,29,52,29,152c0,0,0,109,-39,154c0,0,-40,45,-140,45c0,0,-83,0,-145,-36L128,789H79V979c0,0,118,32,220,32c0,0,316,0,316,-253c0,0,0,-121,-60,-195c0,0,-60,-74,-175,-98l-42,-9L328,261Z" 
id="f0_z"
transform="scale(0.001,-0.001)" />

<path d="M76,316v76H787V316Zm0,306v76H787V622Z" 
id="f0_x"
transform="scale(0.001,-0.001)" />

<path d="M551,45c0,0,171,0,252,106c0,0,82,107,82,349c0,0,0,241,-82,346c0,0,-82,105,-252,105c0,0,-171,0,-252,-106c0,0,-80,-106,-80,-345c0,0,0,-241,80,-348c0,0,81,-107,252,-107ZM930,-246c0,0,-53,0,-94,17c0,0,-41,18,-83,56c0,0,-41,39,-139,162c0,0,-27,-3,-63,-3c0,0,-239,0,-364,130C187,116,63,247,63,500c0,0,0,511,488,511c0,0,240,0,365,-129c0,0,125,-130,125,-382c0,0,0,-366,-265,-475l37,-45c0,0,66,-82,112,-117c0,0,46,-35,91,-35l61,2v-49c0,0,-17,-7,-64,-17c0,0,-48,-10,-83,-10Z" 
id="f0_1h"
transform="scale(0.001,-0.001)" />

<path d="M410,45c0,0,90,0,130,58c0,0,40,59,40,193c0,0,0,122,-38,177c0,0,-38,54,-122,54c0,0,-102,0,-217,-37c0,0,0,-227,51,-336c0,0,52,-109,156,-109Zm3,-59c0,0,-169,0,-258,131c0,0,-89,131,-89,377c0,0,0,161,47,278c0,0,47,117,131,178c0,0,85,61,196,61c0,0,109,0,217,-26V813H608L582,915c0,0,-25,13,-67,23c0,0,-41,10,-75,10c0,0,-109,0,-170,-105c0,0,-60,-106,-66,-308c0,0,121,63,244,63c0,0,132,0,201,-74c0,0,69,-74,69,-214c0,0,0,-156,-78,-240c0,0,-79,-84,-227,-84Z" 
id="f0_q"
transform="scale(0.001,-0.001)" />

<path d="M843,0L451,506L316,398V60L460,40V0H44V40L172,60V941L44,960v40H445V960L316,941V470L795,941l-99,19v40h313V960L894,941L552,607L979,60L1088,40V0Z" 
id="f0_1b"
transform="scale(0.001,-0.001)" />

<path d="M420,-22L89,941L1,960v40H383V960L236,941L474,236L744,930h33L1037,236l227,705l-156,19v40h331V960l-87,-19L1025,-22H985L726,666L460,-22Z" 
id="f0_1n"
transform="scale(0.001,-0.001)" />

<path d="M420,489c0,0,93,0,153,65c0,0,60,65,60,181c0,0,0,116,-62,184c0,0,-61,68,-148,68c0,0,-90,0,-156,-74c0,0,-66,-73,-66,-189c0,0,0,-105,63,-170c0,0,63,-65,156,-65ZM391,-18c0,0,-128,0,-209,71c0,0,-82,71,-98,200l129,12c0,0,17,-91,63,-132c0,0,46,-41,118,-41c0,0,62,0,109,28c0,0,47,29,76,76c0,0,30,47,50,128c0,0,20,80,20,164c0,0,0,9,-1,27c0,0,-40,-65,-110,-105c0,0,-69,-39,-151,-39c0,0,-135,0,-229,98c0,0,-94,99,-94,260c0,0,0,166,98,268c0,0,98,101,245,101c0,0,107,0,195,-57c0,0,89,-58,134,-164c0,0,46,-106,46,-308c0,0,0,-209,-45,-334C737,235,691,111,602,46c0,0,-90,-64,-211,-64Z" 
id="f3_t"
transform="scale(0.001,-0.001)" />


</defs>
</svg>