<?xml version="1.0" encoding="UTF-8" standalone="no"?>
<!DOCTYPE svg PUBLIC "-//W3C//DTD SVG 1.1//EN"
"http://www.w3.org/Graphics/SVG/1.1/DTD/svg11.dtd">
<svg viewBox="0 0 797 1155" version="1.1" xmlns="http://www.w3.org/2000/svg" xmlns:xlink="http://www.w3.org/1999/xlink">
<defs>
<clipPath id="c0_106"><path d="M0,1155V0H797.5V1155Z" /></clipPath>
</defs>
<g clip-path="url(#c0_106)">
<g fill="#000000" >
<use xlink:href="#f0_1g" transform="matrix(12,0,0,12,82.5,484.9)" />
<use xlink:href="#f0_1x" transform="matrix(12,0,0,12,93.5,484.9)" />
<use xlink:href="#f0_2e" transform="matrix(12,0,0,12,103.1,484.9)" />
<use xlink:href="#f0_21" transform="matrix(12,0,0,12,110.8,484.9)" />
<use xlink:href="#f0_2a" transform="matrix(12,0,0,12,118.8,484.9)" />
<use xlink:href="#f0_1z" transform="matrix(12,0,0,12,129.1,484.9)" />
<use xlink:href="#f0_24" transform="matrix(12,0,0,12,137.1,484.9)" />
<use xlink:href="#f0_2l" transform="matrix(12,0,0,12,147.4,484.9)" />
<use xlink:href="#f0_29" transform="matrix(12,0,0,12,156.5,484.9)" />
<use xlink:href="#f0_1x" transform="matrix(12,0,0,12,171.6,484.9)" />
<use xlink:href="#f1_3d" transform="matrix(12,0,0,12,55,525.6)" />
<use xlink:href="#f2_1g" transform="matrix(12,0,0,12,82.5,525.6)" />
<use xlink:href="#f2_1x" transform="matrix(12,0,0,12,92.8,525.6)" />
<use xlink:href="#f2_2e" transform="matrix(12,0,0,12,100.9,525.6)" />
<use xlink:href="#f2_21" transform="matrix(12,0,0,12,107.1,525.6)" />
<use xlink:href="#f2_2a" transform="matrix(12,0,0,12,115.1,525.6)" />
<use xlink:href="#f2_1z" transform="matrix(12,0,0,12,123.9,525.6)" />
<use xlink:href="#f2_24" transform="matrix(12,0,0,12,132.3,525.6)" />
<use xlink:href="#f2_2l" transform="matrix(12,0,0,12,141.5,525.6)" />
<use xlink:href="#f2_29" transform="matrix(12,0,0,12,150.7,525.6)" />
<use xlink:href="#f2_1x" transform="matrix(12,0,0,12,164.6,525.6)" />
<use xlink:href="#f2_25" transform="matrix(12,0,0,12,177.9,525.6)" />
<use xlink:href="#f2_2f" transform="matrix(12,0,0,12,182.7,525.6)" />
<use xlink:href="#f2_2g" transform="matrix(12,0,0,12,194.4,525.6)" />
<use xlink:href="#f2_24" transform="matrix(12,0,0,12,199.9,525.6)" />
<use xlink:href="#f2_21" transform="matrix(12,0,0,12,208.7,525.6)" />
<use xlink:href="#f2_29" transform="matrix(12,0,0,12,221.9,525.6)" />
<use xlink:href="#f2_2b" transform="matrix(12,0,0,12,235.4,525.6)" />
<use xlink:href="#f2_2f" transform="matrix(12,0,0,12,244.9,525.6)" />
<use xlink:href="#f2_2g" transform="matrix(12,0,0,12,251.9,525.6)" />
<use xlink:href="#f2_1z" transform="matrix(12,0,0,12,262.1,525.6)" />
<use xlink:href="#f2_2b" transform="matrix(12,0,0,12,269.8,525.6)" />
<use xlink:href="#f2_29" transform="matrix(12,0,0,12,279.3,525.6)" />
<use xlink:href="#f2_29" transform="matrix(12,0,0,12,293.3,525.6)" />
<use xlink:href="#f2_2b" transform="matrix(12,0,0,12,306.8,525.6)" />
<use xlink:href="#f2_2a" transform="matrix(12,0,0,12,316.7,525.6)" />
<use xlink:href="#f2_2g" transform="matrix(12,0,0,12,330.3,525.6)" />
<use xlink:href="#f2_25" transform="matrix(12,0,0,12,335.8,525.6)" />
<use xlink:href="#f2_2f" transform="matrix(12,0,0,12,340.2,525.6)" />
<use xlink:href="#f2_2f" transform="matrix(12,0,0,12,347.5,525.6)" />
<use xlink:href="#f2_2h" transform="matrix(12,0,0,12,354.4,525.6)" />
<use xlink:href="#f2_21" transform="matrix(12,0,0,12,363.6,525.6)" />
<use xlink:href="#f2_2g" transform="matrix(12,0,0,12,376.4,525.6)" />
<use xlink:href="#f2_2l" transform="matrix(12,0,0,12,381.9,525.6)" />
<use xlink:href="#f2_2c" transform="matrix(12,0,0,12,390.3,525.6)" />
<use xlink:href="#f2_21" transform="matrix(12,0,0,12,399.9,525.6)" />
<use xlink:href="#f2_i" transform="matrix(12,0,0,12,408.3,525.6)" />
<use xlink:href="#f1_3d" transform="matrix(12,0,0,12,55,551.3)" />
<use xlink:href="#f2_1k" transform="matrix(12,0,0,12,82.5,551.3)" />
<use xlink:href="#f2_24" transform="matrix(12,0,0,12,93.9,551.3)" />
<use xlink:href="#f2_21" transform="matrix(12,0,0,12,102.7,551.3)" />
<use xlink:href="#f2_2c" transform="matrix(12,0,0,12,115.5,551.3)" />
<use xlink:href="#f2_1x" transform="matrix(12,0,0,12,124.7,551.3)" />
<use xlink:href="#f2_2e" transform="matrix(12,0,0,12,132.8,551.3)" />
<use xlink:href="#f2_21" transform="matrix(12,0,0,12,139,551.3)" />
<use xlink:href="#f2_2a" transform="matrix(12,0,0,12,147.1,551.3)" />
<use xlink:href="#f2_1z" transform="matrix(12,0,0,12,155.9,551.3)" />
<use xlink:href="#f2_24" transform="matrix(12,0,0,12,164.3,551.3)" />
<use xlink:href="#f2_2l" transform="matrix(12,0,0,12,173.4,551.3)" />
<use xlink:href="#f2_29" transform="matrix(12,0,0,12,182.6,551.3)" />
<use xlink:href="#f2_1x" transform="matrix(12,0,0,12,196.5,551.3)" />
<use xlink:href="#f2_1z" transform="matrix(12,0,0,12,209.3,551.3)" />
<use xlink:href="#f2_2b" transform="matrix(12,0,0,12,217.4,551.3)" />
<use xlink:href="#f2_2a" transform="matrix(12,0,0,12,226.9,551.3)" />
<use xlink:href="#f2_2f" transform="matrix(12,0,0,12,236.1,551.3)" />
<use xlink:href="#f2_25" transform="matrix(12,0,0,12,243.4,551.3)" />
<use xlink:href="#f2_2f" transform="matrix(12,0,0,12,248.2,551.3)" />
<use xlink:href="#f2_2g" transform="matrix(12,0,0,12,255.1,551.3)" />
<use xlink:href="#f2_2f" transform="matrix(12,0,0,12,260.6,551.3)" />
<use xlink:href="#f2_2b" transform="matrix(12,0,0,12,272.3,551.3)" />
<use xlink:href="#f2_22" transform="matrix(12,0,0,12,281.9,551.3)" />
<use xlink:href="#f2_1z" transform="matrix(12,0,0,12,292.1,551.3)" />
<use xlink:href="#f2_21" transform="matrix(12,0,0,12,300.2,551.3)" />
<use xlink:href="#f2_28" transform="matrix(12,0,0,12,308.6,551.3)" />
<use xlink:href="#f2_28" transform="matrix(12,0,0,12,313.4,551.3)" />
<use xlink:href="#f2_2f" transform="matrix(12,0,0,12,318.1,551.3)" />
<use xlink:href="#f2_2g" transform="matrix(12,0,0,12,329.8,551.3)" />
<use xlink:href="#f2_24" transform="matrix(12,0,0,12,335.3,551.3)" />
<use xlink:href="#f2_1x" transform="matrix(12,0,0,12,344.1,551.3)" />
<use xlink:href="#f2_2g" transform="matrix(12,0,0,12,352.2,551.3)" />
<use xlink:href="#f2_1x" transform="matrix(12,0,0,12,362.8,551.3)" />
<use xlink:href="#f2_2e" transform="matrix(12,0,0,12,370.9,551.3)" />
<use xlink:href="#f2_21" transform="matrix(12,0,0,12,377.1,551.3)" />
<use xlink:href="#f2_25" transform="matrix(12,0,0,12,389.9,551.3)" />
<use xlink:href="#f2_2f" transform="matrix(12,0,0,12,394.3,551.3)" />
<use xlink:href="#f2_2b" transform="matrix(12,0,0,12,401.2,551.3)" />
<use xlink:href="#f2_20" transform="matrix(12,0,0,12,410.8,551.3)" />
<use xlink:href="#f2_25" transform="matrix(12,0,0,12,420.3,551.3)" />
<use xlink:href="#f2_1x" transform="matrix(12,0,0,12,424.7,551.3)" />
<use xlink:href="#f2_29" transform="matrix(12,0,0,12,433.1,551.3)" />
<use xlink:href="#f2_21" transform="matrix(12,0,0,12,447,551.3)" />
<use xlink:href="#f2_2g" transform="matrix(12,0,0,12,455.8,551.3)" />
<use xlink:href="#f2_2e" transform="matrix(12,0,0,12,461.3,551.3)" />
<use xlink:href="#f2_25" transform="matrix(12,0,0,12,467.5,551.3)" />
<use xlink:href="#f2_1z" transform="matrix(12,0,0,12,471.9,551.3)" />
<use xlink:href="#f2_i" transform="matrix(12,0,0,12,480,551.3)" />
<use xlink:href="#f1_3d" transform="matrix(12,0,0,12,55,576.6)" />
<use xlink:href="#f2_1k" transform="matrix(12,0,0,12,82.5,576.6)" />
<use xlink:href="#f2_24" transform="matrix(12,0,0,12,93.9,576.6)" />
<use xlink:href="#f2_21" transform="matrix(12,0,0,12,102.7,576.6)" />
<use xlink:href="#f2_2l" transform="matrix(12,0,0,12,111.1,576.6)" />
<use xlink:href="#f2_2i" transform="matrix(12,0,0,12,124.7,576.6)" />
<use xlink:href="#f2_1x" transform="matrix(12,0,0,12,133.5,576.6)" />
<use xlink:href="#f2_2e" transform="matrix(12,0,0,12,141.6,576.6)" />
<use xlink:href="#f2_2l" transform="matrix(12,0,0,12,148.2,576.6)" />
<use xlink:href="#f2_25" transform="matrix(12,0,0,12,162.1,576.6)" />
<use xlink:href="#f2_2a" transform="matrix(12,0,0,12,166.8,576.6)" />
<use xlink:href="#f2_2f" transform="matrix(12,0,0,12,180.4,576.6)" />
<use xlink:href="#f2_24" transform="matrix(12,0,0,12,187.7,576.6)" />
<use xlink:href="#f2_1x" transform="matrix(12,0,0,12,196.9,576.6)" />
<use xlink:href="#f2_2c" transform="matrix(12,0,0,12,204.9,576.6)" />
<use xlink:href="#f2_21" transform="matrix(12,0,0,12,214.1,576.6)" />
<use xlink:href="#f2_20" transform="matrix(12,0,0,12,226.9,576.6)" />
<use xlink:href="#f2_21" transform="matrix(12,0,0,12,236.1,576.6)" />
<use xlink:href="#f2_2c" transform="matrix(12,0,0,12,244.1,576.6)" />
<use xlink:href="#f2_21" transform="matrix(12,0,0,12,253.3,576.6)" />
<use xlink:href="#f2_2a" transform="matrix(12,0,0,12,261.7,576.6)" />
<use xlink:href="#f2_20" transform="matrix(12,0,0,12,270.5,576.6)" />
<use xlink:href="#f2_25" transform="matrix(12,0,0,12,280,576.6)" />
<use xlink:href="#f2_2a" transform="matrix(12,0,0,12,284.8,576.6)" />
<use xlink:href="#f2_23" transform="matrix(12,0,0,12,293.6,576.6)" />
<use xlink:href="#f2_2b" transform="matrix(12,0,0,12,307.5,576.6)" />
<use xlink:href="#f2_2a" transform="matrix(12,0,0,12,317,576.6)" />
<use xlink:href="#f2_22" transform="matrix(12,0,0,12,331,576.6)" />
<use xlink:href="#f2_2h" transform="matrix(12,0,0,12,336.5,576.6)" />
<use xlink:href="#f2_2a" transform="matrix(12,0,0,12,346,576.6)" />
<use xlink:href="#f2_1z" transform="matrix(12,0,0,12,354.8,576.6)" />
<use xlink:href="#f2_2g" transform="matrix(12,0,0,12,362.8,576.6)" />
<use xlink:href="#f2_25" transform="matrix(12,0,0,12,368.7,576.6)" />
<use xlink:href="#f2_2b" transform="matrix(12,0,0,12,373.1,576.6)" />
<use xlink:href="#f2_2a" transform="matrix(12,0,0,12,382.6,576.6)" />
<use xlink:href="#f2_i" transform="matrix(12,0,0,12,391.8,576.6)" />
<use xlink:href="#f1_3d" transform="matrix(12,0,0,12,55,602.3)" />
<use xlink:href="#f2_1k" transform="matrix(12,0,0,12,82.5,602.3)" />
<use xlink:href="#f2_24" transform="matrix(12,0,0,12,93.9,602.3)" />
<use xlink:href="#f2_21" transform="matrix(12,0,0,12,102.7,602.3)" />
<use xlink:href="#f2_2l" transform="matrix(12,0,0,12,111.1,602.3)" />
<use xlink:href="#f2_24" transform="matrix(12,0,0,12,124.7,602.3)" />
<use xlink:href="#f2_1x" transform="matrix(12,0,0,12,133.5,602.3)" />
<use xlink:href="#f2_2i" transform="matrix(12,0,0,12,141.9,602.3)" />
<use xlink:href="#f2_21" transform="matrix(12,0,0,12,151.1,602.3)" />
<use xlink:href="#f2_2g" transform="matrix(12,0,0,12,163.9,602.3)" />
<use xlink:href="#f2_24" transform="matrix(12,0,0,12,169.4,602.3)" />
<use xlink:href="#f2_25" transform="matrix(12,0,0,12,178.5,602.3)" />
<use xlink:href="#f2_2a" transform="matrix(12,0,0,12,183.3,602.3)" />
<use xlink:href="#f2_2j" transform="matrix(12,0,0,12,196.9,602.3)" />
<use xlink:href="#f2_1x" transform="matrix(12,0,0,12,210.1,602.3)" />
<use xlink:href="#f2_28" transform="matrix(12,0,0,12,218.5,602.3)" />
<use xlink:href="#f2_28" transform="matrix(12,0,0,12,223.2,602.3)" />
<use xlink:href="#f2_2f" transform="matrix(12,0,0,12,228,602.3)" />
<use xlink:href="#f2_29" transform="matrix(12,0,0,12,240.3,602.3)" />
<use xlink:href="#f2_1x" transform="matrix(12,0,0,12,254.2,602.3)" />
<use xlink:href="#f2_20" transform="matrix(12,0,0,12,262.3,602.3)" />
<use xlink:href="#f2_21" transform="matrix(12,0,0,12,271.8,602.3)" />
<use xlink:href="#f2_2h" transform="matrix(12,0,0,12,284.6,602.3)" />
<use xlink:href="#f2_2c" transform="matrix(12,0,0,12,293.8,602.3)" />
<use xlink:href="#f2_2b" transform="matrix(12,0,0,12,307.7,602.3)" />
<use xlink:href="#f2_22" transform="matrix(12,0,0,12,317.2,602.3)" />
<use xlink:href="#f2_1z" transform="matrix(12,0,0,12,327.4,602.3)" />
<use xlink:href="#f2_21" transform="matrix(12,0,0,12,335.5,602.3)" />
<use xlink:href="#f2_28" transform="matrix(12,0,0,12,343.9,602.3)" />
<use xlink:href="#f2_28" transform="matrix(12,0,0,12,348.7,602.3)" />
<use xlink:href="#f2_2h" transform="matrix(12,0,0,12,353.5,602.3)" />
<use xlink:href="#f2_28" transform="matrix(12,0,0,12,363,602.3)" />
<use xlink:href="#f2_2b" transform="matrix(12,0,0,12,367.4,602.3)" />
<use xlink:href="#f2_2f" transform="matrix(12,0,0,12,376.9,602.3)" />
<use xlink:href="#f2_21" transform="matrix(12,0,0,12,383.9,602.3)" />
<use xlink:href="#f2_i" transform="matrix(12,0,0,12,391.9,602.3)" />
<use xlink:href="#f1_3d" transform="matrix(12,0,0,12,55,627.9)" />
<use xlink:href="#f2_1k" transform="matrix(12,0,0,12,82.5,627.9)" />
<use xlink:href="#f2_24" transform="matrix(12,0,0,12,93.9,627.9)" />
<use xlink:href="#f2_21" transform="matrix(12,0,0,12,102.7,627.9)" />
<use xlink:href="#f2_2l" transform="matrix(12,0,0,12,111.1,627.9)" />
<use xlink:href="#f2_2h" transform="matrix(12,0,0,12,124.3,627.9)" />
<use xlink:href="#f2_2f" transform="matrix(12,0,0,12,133.9,627.9)" />
<use xlink:href="#f2_2h" transform="matrix(12,0,0,12,140.8,627.9)" />
<use xlink:href="#f2_1x" transform="matrix(12,0,0,12,150,627.9)" />
<use xlink:href="#f2_28" transform="matrix(12,0,0,12,158.4,627.9)" />
<use xlink:href="#f2_28" transform="matrix(12,0,0,12,163.5,627.9)" />
<use xlink:href="#f2_2l" transform="matrix(12,0,0,12,168.6,627.9)" />
<use xlink:href="#f2_1x" transform="matrix(12,0,0,12,181.8,627.9)" />
<use xlink:href="#f2_2e" transform="matrix(12,0,0,12,189.9,627.9)" />
<use xlink:href="#f2_21" transform="matrix(12,0,0,12,196.1,627.9)" />
<use xlink:href="#f2_1z" transform="matrix(12,0,0,12,209.1,627.9)" />
<use xlink:href="#f2_28" transform="matrix(12,0,0,12,217.5,627.9)" />
<use xlink:href="#f2_2b" transform="matrix(12,0,0,12,221.9,627.9)" />
<use xlink:href="#f2_2f" transform="matrix(12,0,0,12,231.4,627.9)" />
<use xlink:href="#f2_21" transform="matrix(12,0,0,12,238.4,627.9)" />
<use xlink:href="#f2_28" transform="matrix(12,0,0,12,246.8,627.9)" />
<use xlink:href="#f2_2l" transform="matrix(12,0,0,12,251.9,627.9)" />
<use xlink:href="#f2_2c" transform="matrix(12,0,0,12,265.5,627.9)" />
<use xlink:href="#f2_1x" transform="matrix(12,0,0,12,274.6,627.9)" />
<use xlink:href="#f2_1z" transform="matrix(12,0,0,12,282.7,627.9)" />
<use xlink:href="#f2_27" transform="matrix(12,0,0,12,290.8,627.9)" />
<use xlink:href="#f2_21" transform="matrix(12,0,0,12,299.9,627.9)" />
<use xlink:href="#f2_20" transform="matrix(12,0,0,12,308,627.9)" />
<use xlink:href="#f2_2b" transform="matrix(12,0,0,12,321.9,627.9)" />
<use xlink:href="#f2_2e" transform="matrix(12,0,0,12,331.4,627.9)" />
<use xlink:href="#f2_29" transform="matrix(12,0,0,12,342.6,627.9)" />
<use xlink:href="#f2_1x" transform="matrix(12,0,0,12,356.2,627.9)" />
<use xlink:href="#f2_2l" transform="matrix(12,0,0,12,364.6,627.9)" />
<use xlink:href="#f2_24" transform="matrix(12,0,0,12,378.6,627.9)" />
<use xlink:href="#f2_1x" transform="matrix(12,0,0,12,387.4,627.9)" />
<use xlink:href="#f2_2i" transform="matrix(12,0,0,12,395.8,627.9)" />
<use xlink:href="#f2_21" transform="matrix(12,0,0,12,404.6,627.9)" />
<use xlink:href="#f2_2f" transform="matrix(12,0,0,12,417.4,627.9)" />
<use xlink:href="#f2_29" transform="matrix(12,0,0,12,424.7,627.9)" />
<use xlink:href="#f2_1x" transform="matrix(12,0,0,12,438.7,627.9)" />
<use xlink:href="#f2_28" transform="matrix(12,0,0,12,447.1,627.9)" />
<use xlink:href="#f2_28" transform="matrix(12,0,0,12,452.2,627.9)" />
<use xlink:href="#f2_25" transform="matrix(12,0,0,12,462.1,627.9)" />
<use xlink:href="#f2_2a" transform="matrix(12,0,0,12,466.8,627.9)" />
<use xlink:href="#f2_2g" transform="matrix(12,0,0,12,475.6,627.9)" />
<use xlink:href="#f2_21" transform="matrix(12,0,0,12,481.1,627.9)" />
<use xlink:href="#f2_2e" transform="matrix(12,0,0,12,489.2,627.9)" />
<use xlink:href="#f2_1z" transform="matrix(12,0,0,12,495.4,627.9)" />
<use xlink:href="#f2_21" transform="matrix(12,0,0,12,503.5,627.9)" />
<use xlink:href="#f2_28" transform="matrix(12,0,0,12,511.9,627.9)" />
<use xlink:href="#f2_28" transform="matrix(12,0,0,12,516.7,627.9)" />
<use xlink:href="#f2_2h" transform="matrix(12,0,0,12,521.4,627.9)" />
<use xlink:href="#f2_28" transform="matrix(12,0,0,12,530.9,627.9)" />
<use xlink:href="#f2_1x" transform="matrix(12,0,0,12,535.7,627.9)" />
<use xlink:href="#f2_2e" transform="matrix(12,0,0,12,543.8,627.9)" />
<use xlink:href="#f2_2f" transform="matrix(12,0,0,12,554.7,627.9)" />
<use xlink:href="#f2_2c" transform="matrix(12,0,0,12,561.7,627.9)" />
<use xlink:href="#f2_1x" transform="matrix(12,0,0,12,570.9,627.9)" />
<use xlink:href="#f2_1z" transform="matrix(12,0,0,12,578.9,627.9)" />
<use xlink:href="#f2_21" transform="matrix(12,0,0,12,587.3,627.9)" />
<use xlink:href="#f2_2f" transform="matrix(12,0,0,12,595.4,627.9)" />
<use xlink:href="#f2_i" transform="matrix(12,0,0,12,602.4,627.9)" />
<use xlink:href="#f1_3d" transform="matrix(12,0,0,12,55,653.6)" />
<use xlink:href="#f2_1g" transform="matrix(12,0,0,12,82.5,653.6)" />
<use xlink:href="#f2_1x" transform="matrix(12,0,0,12,92.8,653.6)" />
<use xlink:href="#f2_2e" transform="matrix(12,0,0,12,100.9,653.6)" />
<use xlink:href="#f2_21" transform="matrix(12,0,0,12,107.1,653.6)" />
<use xlink:href="#f2_2a" transform="matrix(12,0,0,12,115.1,653.6)" />
<use xlink:href="#f2_1z" transform="matrix(12,0,0,12,123.9,653.6)" />
<use xlink:href="#f2_24" transform="matrix(12,0,0,12,132.3,653.6)" />
<use xlink:href="#f2_2l" transform="matrix(12,0,0,12,141.5,653.6)" />
<use xlink:href="#f2_29" transform="matrix(12,0,0,12,150.7,653.6)" />
<use xlink:href="#f2_1x" transform="matrix(12,0,0,12,164.6,653.6)" />
<use xlink:href="#f2_1z" transform="matrix(12,0,0,12,178.2,653.6)" />
<use xlink:href="#f2_21" transform="matrix(12,0,0,12,186.2,653.6)" />
<use xlink:href="#f2_28" transform="matrix(12,0,0,12,194.6,653.6)" />
<use xlink:href="#f2_28" transform="matrix(12,0,0,12,199.7,653.6)" />
<use xlink:href="#f2_2f" transform="matrix(12,0,0,12,204.5,653.6)" />
<use xlink:href="#f2_1x" transform="matrix(12,0,0,12,217,653.6)" />
<use xlink:href="#f2_2e" transform="matrix(12,0,0,12,225.1,653.6)" />
<use xlink:href="#f2_21" transform="matrix(12,0,0,12,231.3,653.6)" />
<use xlink:href="#f2_29" transform="matrix(12,0,0,12,245.2,653.6)" />
<use xlink:href="#f2_2b" transform="matrix(12,0,0,12,258.8,653.6)" />
<use xlink:href="#f2_20" transform="matrix(12,0,0,12,268.3,653.6)" />
<use xlink:href="#f2_25" transform="matrix(12,0,0,12,277.8,653.6)" />
<use xlink:href="#f2_22" transform="matrix(12,0,0,12,282.6,653.6)" />
<use xlink:href="#f2_25" transform="matrix(12,0,0,12,288.4,653.6)" />
<use xlink:href="#f2_21" transform="matrix(12,0,0,12,293.2,653.6)" />
<use xlink:href="#f2_20" transform="matrix(12,0,0,12,301.6,653.6)" />
<use xlink:href="#f2_2g" transform="matrix(12,0,0,12,316.2,653.6)" />
<use xlink:href="#f2_2b" transform="matrix(12,0,0,12,321.3,653.6)" />
<use xlink:href="#f2_2c" transform="matrix(12,0,0,12,336.4,653.6)" />
<use xlink:href="#f2_21" transform="matrix(12,0,0,12,345.5,653.6)" />
<use xlink:href="#f2_2e" transform="matrix(12,0,0,12,353.2,653.6)" />
<use xlink:href="#f2_22" transform="matrix(12,0,0,12,359.5,653.6)" />
<use xlink:href="#f2_2b" transform="matrix(12,0,0,12,365,653.6)" />
<use xlink:href="#f2_2e" transform="matrix(12,0,0,12,374.5,653.6)" />
<use xlink:href="#f2_29" transform="matrix(12,0,0,12,381.1,653.6)" />
<use xlink:href="#f2_2i" transform="matrix(12,0,0,12,400.6,653.6)" />
<use xlink:href="#f2_1x" transform="matrix(12,0,0,12,409.4,653.6)" />
<use xlink:href="#f2_2e" transform="matrix(12,0,0,12,417.5,653.6)" />
<use xlink:href="#f2_25" transform="matrix(12,0,0,12,424,653.6)" />
<use xlink:href="#f2_2b" transform="matrix(12,0,0,12,428.4,653.6)" />
<use xlink:href="#f2_2h" transform="matrix(12,0,0,12,437.9,653.6)" />
<use xlink:href="#f2_2f" transform="matrix(12,0,0,12,447.1,653.6)" />
<use xlink:href="#f2_22" transform="matrix(12,0,0,12,459.9,653.6)" />
<use xlink:href="#f2_2h" transform="matrix(12,0,0,12,465.4,653.6)" />
<use xlink:href="#f2_2a" transform="matrix(12,0,0,12,474.9,653.6)" />
<use xlink:href="#f2_1z" transform="matrix(12,0,0,12,483.7,653.6)" />
<use xlink:href="#f2_2g" transform="matrix(12,0,0,12,491.8,653.6)" />
<use xlink:href="#f2_25" transform="matrix(12,0,0,12,497.6,653.6)" />
<use xlink:href="#f2_2b" transform="matrix(12,0,0,12,502,653.6)" />
<use xlink:href="#f2_2a" transform="matrix(12,0,0,12,511.6,653.6)" />
<use xlink:href="#f2_2f" transform="matrix(12,0,0,12,520.7,653.6)" />
<use xlink:href="#f2_28" transform="matrix(12,0,0,12,533.5,653.6)" />
<use xlink:href="#f2_25" transform="matrix(12,0,0,12,538.3,653.6)" />
<use xlink:href="#f2_27" transform="matrix(12,0,0,12,543.1,653.6)" />
<use xlink:href="#f2_21" transform="matrix(12,0,0,12,552.2,653.6)" />
<use xlink:href="#f2_2c" transform="matrix(12,0,0,12,565.8,653.6)" />
<use xlink:href="#f2_24" transform="matrix(12,0,0,12,575,653.6)" />
<use xlink:href="#f2_2b" transform="matrix(12,0,0,12,583.8,653.6)" />
<use xlink:href="#f2_2g" transform="matrix(12,0,0,12,593.3,653.6)" />
<use xlink:href="#f2_2b" transform="matrix(12,0,0,12,598.4,653.6)" />
<use xlink:href="#f2_2f" transform="matrix(12,0,0,12,607.9,653.6)" />
<use xlink:href="#f2_2l" transform="matrix(12,0,0,12,615.2,653.6)" />
<use xlink:href="#f2_2a" transform="matrix(12,0,0,12,624,653.6)" />
<use xlink:href="#f2_2g" transform="matrix(12,0,0,12,632.8,653.6)" />
<use xlink:href="#f2_24" transform="matrix(12,0,0,12,638.3,653.6)" />
<use xlink:href="#f2_21" transform="matrix(12,0,0,12,647.1,653.6)" />
<use xlink:href="#f2_2f" transform="matrix(12,0,0,12,655.2,653.6)" />
<use xlink:href="#f2_25" transform="matrix(12,0,0,12,662.5,653.6)" />
<use xlink:href="#f2_2f" transform="matrix(12,0,0,12,667.3,653.6)" />
<use xlink:href="#f2_g" transform="matrix(12,0,0,12,674.2,653.6)" />
<use xlink:href="#f2_2f" transform="matrix(12,0,0,12,684.9,653.6)" />
<use xlink:href="#f2_2g" transform="matrix(12,0,0,12,691.8,653.6)" />
<use xlink:href="#f2_2b" transform="matrix(12,0,0,12,697.3,653.6)" />
<use xlink:href="#f2_2e" transform="matrix(12,0,0,12,706.8,653.6)" />
<use xlink:href="#f2_1x" transform="matrix(12,0,0,12,713,653.6)" />
<use xlink:href="#f2_23" transform="matrix(12,0,0,12,721.1,653.6)" />
<use xlink:href="#f2_21" transform="matrix(12,0,0,12,730.3,653.6)" />
<use xlink:href="#f2_g" transform="matrix(12,0,0,12,738.3,653.6)" />
<use xlink:href="#f2_2f" transform="matrix(12,0,0,12,82.5,677.8)" />
<use xlink:href="#f2_21" transform="matrix(12,0,0,12,89.5,677.8)" />
<use xlink:href="#f2_1z" transform="matrix(12,0,0,12,97.6,677.8)" />
<use xlink:href="#f2_2e" transform="matrix(12,0,0,12,105.6,677.8)" />
<use xlink:href="#f2_21" transform="matrix(12,0,0,12,111.9,677.8)" />
<use xlink:href="#f2_2g" transform="matrix(12,0,0,12,119.9,677.8)" />
<use xlink:href="#f2_25" transform="matrix(12,0,0,12,125.4,677.8)" />
<use xlink:href="#f2_2b" transform="matrix(12,0,0,12,129.8,677.8)" />
<use xlink:href="#f2_2a" transform="matrix(12,0,0,12,139.3,677.8)" />
<use xlink:href="#f2_i" transform="matrix(12,0,0,12,148.1,677.8)" />
<use xlink:href="#f0_13" transform="matrix(12,0,0,12,82.5,726.6)" />
<use xlink:href="#f0_2b" transform="matrix(12,0,0,12,95.8,726.6)" />
<use xlink:href="#f0_28" transform="matrix(12,0,0,12,104.9,726.6)" />
<use xlink:href="#f0_28" transform="matrix(12,0,0,12,110,726.6)" />
<use xlink:href="#f0_21" transform="matrix(12,0,0,12,114.8,726.6)" />
<use xlink:href="#f0_2a" transform="matrix(12,0,0,12,122.9,726.6)" />
<use xlink:href="#f0_1z" transform="matrix(12,0,0,12,133.1,726.6)" />
<use xlink:href="#f0_24" transform="matrix(12,0,0,12,141.2,726.6)" />
<use xlink:href="#f0_2l" transform="matrix(12,0,0,12,151.4,726.6)" />
<use xlink:href="#f0_29" transform="matrix(12,0,0,12,160.9,726.6)" />
<use xlink:href="#f0_1x" transform="matrix(12,0,0,12,176,726.6)" />
<use xlink:href="#f1_3d" transform="matrix(12,0,0,12,55,776.1)" />
<use xlink:href="#f2_1k" transform="matrix(12,0,0,12,82.5,776.1)" />
<use xlink:href="#f2_24" transform="matrix(12,0,0,12,93.9,776.1)" />
<use xlink:href="#f2_21" transform="matrix(12,0,0,12,102.7,776.1)" />
<use xlink:href="#f2_1z" transform="matrix(12,0,0,12,121.4,776.1)" />
<use xlink:href="#f2_2b" transform="matrix(12,0,0,12,129.4,776.1)" />
<use xlink:href="#f2_28" transform="matrix(12,0,0,12,138.9,776.1)" />
<use xlink:href="#f2_28" transform="matrix(12,0,0,12,143.7,776.1)" />
<use xlink:href="#f2_21" transform="matrix(12,0,0,12,148.5,776.1)" />
<use xlink:href="#f2_2a" transform="matrix(12,0,0,12,156.9,776.1)" />
<use xlink:href="#f2_1z" transform="matrix(12,0,0,12,165.7,776.1)" />
<use xlink:href="#f2_24" transform="matrix(12,0,0,12,174.1,776.1)" />
<use xlink:href="#f2_2l" transform="matrix(12,0,0,12,183.3,776.1)" />
<use xlink:href="#f2_29" transform="matrix(12,0,0,12,192.4,776.1)" />
<use xlink:href="#f2_1x" transform="matrix(12,0,0,12,206.4,776.1)" />
<use xlink:href="#f2_2b" transform="matrix(12,0,0,12,225.1,776.1)" />
<use xlink:href="#f2_1z" transform="matrix(12,0,0,12,234.6,776.1)" />
<use xlink:href="#f2_1z" transform="matrix(12,0,0,12,242.6,776.1)" />
<use xlink:href="#f2_2h" transform="matrix(12,0,0,12,250.7,776.1)" />
<use xlink:href="#f2_2e" transform="matrix(12,0,0,12,259.9,776.1)" />
<use xlink:href="#f2_2f" transform="matrix(12,0,0,12,266.1,776.1)" />
<use xlink:href="#f2_25" transform="matrix(12,0,0,12,283.7,776.1)" />
<use xlink:href="#f2_2a" transform="matrix(12,0,0,12,288.4,776.1)" />
<use xlink:href="#f2_28" transform="matrix(12,0,0,12,308.2,776.1)" />
<use xlink:href="#f2_1x" transform="matrix(12,0,0,12,313,776.1)" />
<use xlink:href="#f2_2l" transform="matrix(12,0,0,12,321.4,776.1)" />
<use xlink:href="#f2_21" transform="matrix(12,0,0,12,330.2,776.1)" />
<use xlink:href="#f2_2e" transform="matrix(12,0,0,12,338.3,776.1)" />
<use xlink:href="#f2_1y" transform="matrix(12,0,0,12,355.1,776.1)" />
<use xlink:href="#f2_21" transform="matrix(12,0,0,12,363.9,776.1)" />
<use xlink:href="#f2_28" transform="matrix(12,0,0,12,372.3,776.1)" />
<use xlink:href="#f2_2b" transform="matrix(12,0,0,12,376.7,776.1)" />
<use xlink:href="#f2_2j" transform="matrix(12,0,0,12,386.2,776.1)" />
<use xlink:href="#f2_2g" transform="matrix(12,0,0,12,410,776.1)" />
<use xlink:href="#f2_24" transform="matrix(12,0,0,12,415.5,776.1)" />
<use xlink:href="#f2_21" transform="matrix(12,0,0,12,424.3,776.1)" />
<use xlink:href="#f2_21" transform="matrix(12,0,0,12,443,776.1)" />
<use xlink:href="#f2_2c" transform="matrix(12,0,0,12,451.1,776.1)" />
<use xlink:href="#f2_25" transform="matrix(12,0,0,12,460.6,776.1)" />
<use xlink:href="#f2_20" transform="matrix(12,0,0,12,465,776.1)" />
<use xlink:href="#f2_21" transform="matrix(12,0,0,12,474.2,776.1)" />
<use xlink:href="#f2_2e" transform="matrix(12,0,0,12,482.2,776.1)" />
<use xlink:href="#f2_29" transform="matrix(12,0,0,12,488.8,776.1)" />
<use xlink:href="#f2_25" transform="matrix(12,0,0,12,502.7,776.1)" />
<use xlink:href="#f2_2f" transform="matrix(12,0,0,12,507.5,776.1)" />
<use xlink:href="#f2_25" transform="matrix(12,0,0,12,525.5,776.1)" />
<use xlink:href="#f2_2a" transform="matrix(12,0,0,12,530.2,776.1)" />
<use xlink:href="#f2_20" transform="matrix(12,0,0,12,549.6,776.1)" />
<use xlink:href="#f2_25" transform="matrix(12,0,0,12,559.1,776.1)" />
<use xlink:href="#f2_1z" transform="matrix(12,0,0,12,563.9,776.1)" />
<use xlink:href="#f2_2b" transform="matrix(12,0,0,12,572,776.1)" />
<use xlink:href="#f2_2g" transform="matrix(12,0,0,12,581.5,776.1)" />
<use xlink:href="#f2_2l" transform="matrix(12,0,0,12,587,776.1)" />
<use xlink:href="#f2_28" transform="matrix(12,0,0,12,595.8,776.1)" />
<use xlink:href="#f2_21" transform="matrix(12,0,0,12,600.5,776.1)" />
<use xlink:href="#f2_20" transform="matrix(12,0,0,12,609,776.1)" />
<use xlink:href="#f2_2b" transform="matrix(12,0,0,12,618.1,776.1)" />
<use xlink:href="#f2_2a" transform="matrix(12,0,0,12,627.6,776.1)" />
<use xlink:href="#f2_2b" transform="matrix(12,0,0,12,636.4,776.1)" />
<use xlink:href="#f2_2h" transform="matrix(12,0,0,12,646,776.1)" />
<use xlink:href="#f2_2f" transform="matrix(12,0,0,12,655.1,776.1)" />
<use xlink:href="#f2_2c" transform="matrix(12,0,0,12,672.7,776.1)" />
<use xlink:href="#f2_28" transform="matrix(12,0,0,12,681.9,776.1)" />
<use xlink:href="#f2_1x" transform="matrix(12,0,0,12,686.3,776.1)" />
<use xlink:href="#f2_2a" transform="matrix(12,0,0,12,694.7,776.1)" />
<use xlink:href="#f2_2g" transform="matrix(12,0,0,12,703.5,776.1)" />
<use xlink:href="#f2_2f" transform="matrix(12,0,0,12,709,776.1)" />
<use xlink:href="#f2_1x" transform="matrix(12,0,0,12,726.5,776.1)" />
<use xlink:href="#f2_2f" transform="matrix(12,0,0,12,734.6,776.1)" />
<use xlink:href="#f2_24" transform="matrix(12,0,0,12,82.5,800.7)" />
<use xlink:href="#f2_2l" transform="matrix(12,0,0,12,91.7,800.7)" />
<use xlink:href="#f2_2c" transform="matrix(12,0,0,12,100.5,800.7)" />
<use xlink:href="#f2_2b" transform="matrix(12,0,0,12,109.7,800.7)" />
<use xlink:href="#f2_20" transform="matrix(12,0,0,12,119.2,800.7)" />
<use xlink:href="#f2_21" transform="matrix(12,0,0,12,128.4,800.7)" />
<use xlink:href="#f2_2e" transform="matrix(12,0,0,12,136.4,800.7)" />
<use xlink:href="#f2_29" transform="matrix(12,0,0,12,143,800.7)" />
<use xlink:href="#f2_25" transform="matrix(12,0,0,12,156.9,800.7)" />
<use xlink:href="#f2_2f" transform="matrix(12,0,0,12,161.7,800.7)" />
<use xlink:href="#f2_i" transform="matrix(12,0,0,12,168.7,800.7)" />
<use xlink:href="#f1_3d" transform="matrix(12,0,0,12,55,826)" />
<use xlink:href="#f2_19" transform="matrix(12,0,0,12,82.5,826)" />
<use xlink:href="#f2_2g" transform="matrix(12,0,0,12,88.8,826)" />
<use xlink:href="#f2_25" transform="matrix(12,0,0,12,98.6,826)" />
<use xlink:href="#f2_2f" transform="matrix(12,0,0,12,103,826)" />
<use xlink:href="#f2_22" transform="matrix(12,0,0,12,115.2,826)" />
<use xlink:href="#f2_2b" transform="matrix(12,0,0,12,120.7,826)" />
<use xlink:href="#f2_2h" transform="matrix(12,0,0,12,130.2,826)" />
<use xlink:href="#f2_2a" transform="matrix(12,0,0,12,139.7,826)" />
<use xlink:href="#f2_20" transform="matrix(12,0,0,12,148.5,826)" />
<use xlink:href="#f2_21" transform="matrix(12,0,0,12,162.4,826)" />
<use xlink:href="#f2_25" transform="matrix(12,0,0,12,170.8,826)" />
<use xlink:href="#f2_2g" transform="matrix(12,0,0,12,175.2,826)" />
<use xlink:href="#f2_24" transform="matrix(12,0,0,12,180.7,826)" />
<use xlink:href="#f2_21" transform="matrix(12,0,0,12,189.5,826)" />
<use xlink:href="#f2_2e" transform="matrix(12,0,0,12,197.6,826)" />
<use xlink:href="#f2_1x" transform="matrix(12,0,0,12,208.7,826)" />
<use xlink:href="#f2_2f" transform="matrix(12,0,0,12,216.8,826)" />
<use xlink:href="#f2_1x" transform="matrix(12,0,0,12,228.5,826)" />
<use xlink:href="#f2_24" transform="matrix(12,0,0,12,241.3,826)" />
<use xlink:href="#f2_2b" transform="matrix(12,0,0,12,250.1,826)" />
<use xlink:href="#f2_29" transform="matrix(12,0,0,12,260,826)" />
<use xlink:href="#f2_2b" transform="matrix(12,0,0,12,273.6,826)" />
<use xlink:href="#f2_23" transform="matrix(12,0,0,12,283.1,826)" />
<use xlink:href="#f2_21" transform="matrix(12,0,0,12,292.2,826)" />
<use xlink:href="#f2_2a" transform="matrix(12,0,0,12,300.3,826)" />
<use xlink:href="#f2_21" transform="matrix(12,0,0,12,309.1,826)" />
<use xlink:href="#f2_2b" transform="matrix(12,0,0,12,317.2,826)" />
<use xlink:href="#f2_2h" transform="matrix(12,0,0,12,326.7,826)" />
<use xlink:href="#f2_2f" transform="matrix(12,0,0,12,335.9,826)" />
<use xlink:href="#f2_28" transform="matrix(12,0,0,12,347.9,826)" />
<use xlink:href="#f2_1x" transform="matrix(12,0,0,12,352.3,826)" />
<use xlink:href="#f2_2l" transform="matrix(12,0,0,12,360.7,826)" />
<use xlink:href="#f2_21" transform="matrix(12,0,0,12,369.5,826)" />
<use xlink:href="#f2_2e" transform="matrix(12,0,0,12,377.6,826)" />
<use xlink:href="#f2_2b" transform="matrix(12,0,0,12,388.6,826)" />
<use xlink:href="#f2_2e" transform="matrix(12,0,0,12,398.1,826)" />
<use xlink:href="#f2_25" transform="matrix(12,0,0,12,409.1,826)" />
<use xlink:href="#f2_2a" transform="matrix(12,0,0,12,413.8,826)" />
<use xlink:href="#f2_2c" transform="matrix(12,0,0,12,427.4,826)" />
<use xlink:href="#f2_1x" transform="matrix(12,0,0,12,436.5,826)" />
<use xlink:href="#f2_2g" transform="matrix(12,0,0,12,444.6,826)" />
<use xlink:href="#f2_1z" transform="matrix(12,0,0,12,449.7,826)" />
<use xlink:href="#f2_24" transform="matrix(12,0,0,12,457.8,826)" />
<use xlink:href="#f2_21" transform="matrix(12,0,0,12,466.6,826)" />
<use xlink:href="#f2_2f" transform="matrix(12,0,0,12,475,826)" />
<use xlink:href="#f2_i" transform="matrix(12,0,0,12,482,826)" />
<use xlink:href="#f1_3d" transform="matrix(12,0,0,12,55,851.3)" />
<use xlink:href="#f2_19" transform="matrix(12,0,0,12,82.5,851.3)" />
<use xlink:href="#f2_2g" transform="matrix(12,0,0,12,88.8,851.3)" />
<use xlink:href="#f2_1z" transform="matrix(12,0,0,12,97.9,851.3)" />
<use xlink:href="#f2_2b" transform="matrix(12,0,0,12,105.6,851.3)" />
<use xlink:href="#f2_2a" transform="matrix(12,0,0,12,115.2,851.3)" />
<use xlink:href="#f2_2f" transform="matrix(12,0,0,12,124,851.3)" />
<use xlink:href="#f2_25" transform="matrix(12,0,0,12,131.3,851.3)" />
<use xlink:href="#f2_2f" transform="matrix(12,0,0,12,136,851.3)" />
<use xlink:href="#f2_2g" transform="matrix(12,0,0,12,143,851.3)" />
<use xlink:href="#f2_2f" transform="matrix(12,0,0,12,148.5,851.3)" />
<use xlink:href="#f2_2b" transform="matrix(12,0,0,12,159.5,851.3)" />
<use xlink:href="#f2_22" transform="matrix(12,0,0,12,169,851.3)" />
<use xlink:href="#f2_1z" transform="matrix(12,0,0,12,178.5,851.3)" />
<use xlink:href="#f2_21" transform="matrix(12,0,0,12,186.6,851.3)" />
<use xlink:href="#f2_28" transform="matrix(12,0,0,12,195,851.3)" />
<use xlink:href="#f2_28" transform="matrix(12,0,0,12,200.1,851.3)" />
<use xlink:href="#f2_2f" transform="matrix(12,0,0,12,204.9,851.3)" />
<use xlink:href="#f2_2j" transform="matrix(12,0,0,12,215.9,851.3)" />
<use xlink:href="#f2_24" transform="matrix(12,0,0,12,229.5,851.3)" />
<use xlink:href="#f2_25" transform="matrix(12,0,0,12,238.6,851.3)" />
<use xlink:href="#f2_1z" transform="matrix(12,0,0,12,243.4,851.3)" />
<use xlink:href="#f2_24" transform="matrix(12,0,0,12,251.8,851.3)" />
<use xlink:href="#f2_1x" transform="matrix(12,0,0,12,264.6,851.3)" />
<use xlink:href="#f2_2e" transform="matrix(12,0,0,12,272.7,851.3)" />
<use xlink:href="#f2_21" transform="matrix(12,0,0,12,278.9,851.3)" />
<use xlink:href="#f2_29" transform="matrix(12,0,0,12,291.4,851.3)" />
<use xlink:href="#f2_2h" transform="matrix(12,0,0,12,305,851.3)" />
<use xlink:href="#f2_1z" transform="matrix(12,0,0,12,314.5,851.3)" />
<use xlink:href="#f2_24" transform="matrix(12,0,0,12,322.9,851.3)" />
<use xlink:href="#f2_2g" transform="matrix(12,0,0,12,335.7,851.3)" />
<use xlink:href="#f2_24" transform="matrix(12,0,0,12,341.2,851.3)" />
<use xlink:href="#f2_25" transform="matrix(12,0,0,12,350.4,851.3)" />
<use xlink:href="#f2_1z" transform="matrix(12,0,0,12,354.8,851.3)" />
<use xlink:href="#f2_27" transform="matrix(12,0,0,12,362.8,851.3)" />
<use xlink:href="#f2_21" transform="matrix(12,0,0,12,372.3,851.3)" />
<use xlink:href="#f2_2a" transform="matrix(12,0,0,12,380.4,851.3)" />
<use xlink:href="#f2_21" transform="matrix(12,0,0,12,389.6,851.3)" />
<use xlink:href="#f2_20" transform="matrix(12,0,0,12,397.6,851.3)" />
<use xlink:href="#f2_1x" transform="matrix(12,0,0,12,410.9,851.3)" />
<use xlink:href="#f2_2g" transform="matrix(12,0,0,12,418.9,851.3)" />
<use xlink:href="#f2_2g" transform="matrix(12,0,0,12,428.1,851.3)" />
<use xlink:href="#f2_24" transform="matrix(12,0,0,12,433.5,851.3)" />
<use xlink:href="#f2_21" transform="matrix(12,0,0,12,442.3,851.3)" />
<use xlink:href="#f2_1z" transform="matrix(12,0,0,12,454.4,851.3)" />
<use xlink:href="#f2_2b" transform="matrix(12,0,0,12,462.5,851.3)" />
<use xlink:href="#f2_2e" transform="matrix(12,0,0,12,472,851.3)" />
<use xlink:href="#f2_2a" transform="matrix(12,0,0,12,478.2,851.3)" />
<use xlink:href="#f2_21" transform="matrix(12,0,0,12,487,851.3)" />
<use xlink:href="#f2_2e" transform="matrix(12,0,0,12,495.1,851.3)" />
<use xlink:href="#f2_2f" transform="matrix(12,0,0,12,501.3,851.3)" />
<use xlink:href="#f2_20" transform="matrix(12,0,0,12,512.3,851.3)" />
<use xlink:href="#f2_2h" transform="matrix(12,0,0,12,521.5,851.3)" />
<use xlink:href="#f2_21" transform="matrix(12,0,0,12,530.7,851.3)" />
<use xlink:href="#f2_2g" transform="matrix(12,0,0,12,542.8,851.3)" />
<use xlink:href="#f2_2b" transform="matrix(12,0,0,12,547.9,851.3)" />
<use xlink:href="#f2_1x" transform="matrix(12,0,0,12,561.1,851.3)" />
<use xlink:href="#f2_20" transform="matrix(12,0,0,12,573.2,851.3)" />
<use xlink:href="#f2_21" transform="matrix(12,0,0,12,582.4,851.3)" />
<use xlink:href="#f2_2c" transform="matrix(12,0,0,12,590.4,851.3)" />
<use xlink:href="#f2_2b" transform="matrix(12,0,0,12,599.2,851.3)" />
<use xlink:href="#f2_2f" transform="matrix(12,0,0,12,608.7,851.3)" />
<use xlink:href="#f2_25" transform="matrix(12,0,0,12,616.1,851.3)" />
<use xlink:href="#f2_2g" transform="matrix(12,0,0,12,620.5,851.3)" />
<use xlink:href="#f2_25" transform="matrix(12,0,0,12,626.3,851.3)" />
<use xlink:href="#f2_2b" transform="matrix(12,0,0,12,630.7,851.3)" />
<use xlink:href="#f2_2a" transform="matrix(12,0,0,12,640.2,851.3)" />
<use xlink:href="#f2_2b" transform="matrix(12,0,0,12,653.1,851.3)" />
<use xlink:href="#f2_22" transform="matrix(12,0,0,12,662.6,851.3)" />
<use xlink:href="#f2_1z" transform="matrix(12,0,0,12,672.1,851.3)" />
<use xlink:href="#f2_21" transform="matrix(12,0,0,12,680.2,851.3)" />
<use xlink:href="#f2_28" transform="matrix(12,0,0,12,688.6,851.3)" />
<use xlink:href="#f2_28" transform="matrix(12,0,0,12,693.7,851.3)" />
<use xlink:href="#f2_2h" transform="matrix(12,0,0,12,698.5,851.3)" />
<use xlink:href="#f2_28" transform="matrix(12,0,0,12,708,851.3)" />
<use xlink:href="#f2_2b" transform="matrix(12,0,0,12,712.4,851.3)" />
<use xlink:href="#f2_2f" transform="matrix(12,0,0,12,721.9,851.3)" />
<use xlink:href="#f2_21" transform="matrix(12,0,0,12,728.9,851.3)" />
<use xlink:href="#f2_g" transform="matrix(12,0,0,12,736.9,851.3)" />
<use xlink:href="#f2_24" transform="matrix(12,0,0,12,82.5,875.9)" />
<use xlink:href="#f2_21" transform="matrix(12,0,0,12,91.3,875.9)" />
<use xlink:href="#f2_29" transform="matrix(12,0,0,12,99.8,875.9)" />
<use xlink:href="#f2_25" transform="matrix(12,0,0,12,114,875.9)" />
<use xlink:href="#f2_1z" transform="matrix(12,0,0,12,118.8,875.9)" />
<use xlink:href="#f2_21" transform="matrix(12,0,0,12,126.9,875.9)" />
<use xlink:href="#f2_28" transform="matrix(12,0,0,12,135.3,875.9)" />
<use xlink:href="#f2_28" transform="matrix(12,0,0,12,140.4,875.9)" />
<use xlink:href="#f2_2h" transform="matrix(12,0,0,12,145.2,875.9)" />
<use xlink:href="#f2_28" transform="matrix(12,0,0,12,154.7,875.9)" />
<use xlink:href="#f2_2b" transform="matrix(12,0,0,12,159.1,875.9)" />
<use xlink:href="#f2_2f" transform="matrix(12,0,0,12,168.6,875.9)" />
<use xlink:href="#f2_21" transform="matrix(12,0,0,12,175.9,875.9)" />
<use xlink:href="#f2_2f" transform="matrix(12,0,0,12,184,875.9)" />
<use xlink:href="#f2_1x" transform="matrix(12,0,0,12,195.7,875.9)" />
<use xlink:href="#f2_2a" transform="matrix(12,0,0,12,204.1,875.9)" />
<use xlink:href="#f2_20" transform="matrix(12,0,0,12,212.9,875.9)" />
<use xlink:href="#f2_2c" transform="matrix(12,0,0,12,226.9,875.9)" />
<use xlink:href="#f2_21" transform="matrix(12,0,0,12,236,875.9)" />
<use xlink:href="#f2_1z" transform="matrix(12,0,0,12,244.1,875.9)" />
<use xlink:href="#f2_2g" transform="matrix(12,0,0,12,252.2,875.9)" />
<use xlink:href="#f2_25" transform="matrix(12,0,0,12,257.6,875.9)" />
<use xlink:href="#f2_2a" transform="matrix(12,0,0,12,262.4,875.9)" />
<use xlink:href="#f2_i" transform="matrix(12,0,0,12,271.2,875.9)" />
<use xlink:href="#f1_3d" transform="matrix(12,0,0,12,55,901.2)" />
<use xlink:href="#f2_13" transform="matrix(12,0,0,12,82.5,901.2)" />
<use xlink:href="#f2_2b" transform="matrix(12,0,0,12,94.6,901.2)" />
<use xlink:href="#f2_28" transform="matrix(12,0,0,12,104.2,901.2)" />
<use xlink:href="#f2_28" transform="matrix(12,0,0,12,108.9,901.2)" />
<use xlink:href="#f2_21" transform="matrix(12,0,0,12,113.7,901.2)" />
<use xlink:href="#f2_2a" transform="matrix(12,0,0,12,122.1,901.2)" />
<use xlink:href="#f2_1z" transform="matrix(12,0,0,12,130.9,901.2)" />
<use xlink:href="#f2_24" transform="matrix(12,0,0,12,139.3,901.2)" />
<use xlink:href="#f2_2l" transform="matrix(12,0,0,12,148.5,901.2)" />
<use xlink:href="#f2_29" transform="matrix(12,0,0,12,157.6,901.2)" />
<use xlink:href="#f2_1x" transform="matrix(12,0,0,12,171.6,901.2)" />
<use xlink:href="#f2_1z" transform="matrix(12,0,0,12,184.4,901.2)" />
<use xlink:href="#f2_21" transform="matrix(12,0,0,12,192.5,901.2)" />
<use xlink:href="#f2_28" transform="matrix(12,0,0,12,200.9,901.2)" />
<use xlink:href="#f2_28" transform="matrix(12,0,0,12,206,901.2)" />
<use xlink:href="#f2_2f" transform="matrix(12,0,0,12,210.8,901.2)" />
<use xlink:href="#f2_2i" transform="matrix(12,0,0,12,223,901.2)" />
<use xlink:href="#f2_1x" transform="matrix(12,0,0,12,231.8,901.2)" />
<use xlink:href="#f2_2e" transform="matrix(12,0,0,12,239.9,901.2)" />
<use xlink:href="#f2_2l" transform="matrix(12,0,0,12,246.5,901.2)" />
<use xlink:href="#f2_25" transform="matrix(12,0,0,12,260,901.2)" />
<use xlink:href="#f2_2a" transform="matrix(12,0,0,12,264.8,901.2)" />
<use xlink:href="#f2_2f" transform="matrix(12,0,0,12,278.7,901.2)" />
<use xlink:href="#f2_24" transform="matrix(12,0,0,12,286,901.2)" />
<use xlink:href="#f2_1x" transform="matrix(12,0,0,12,295.2,901.2)" />
<use xlink:href="#f2_2c" transform="matrix(12,0,0,12,303.3,901.2)" />
<use xlink:href="#f2_21" transform="matrix(12,0,0,12,312.4,901.2)" />
<use xlink:href="#f2_1x" transform="matrix(12,0,0,12,325.2,901.2)" />
<use xlink:href="#f2_2a" transform="matrix(12,0,0,12,333.3,901.2)" />
<use xlink:href="#f2_20" transform="matrix(12,0,0,12,342.1,901.2)" />
<use xlink:href="#f2_2b" transform="matrix(12,0,0,12,356,901.2)" />
<use xlink:href="#f2_22" transform="matrix(12,0,0,12,365.9,901.2)" />
<use xlink:href="#f2_2g" transform="matrix(12,0,0,12,371.4,901.2)" />
<use xlink:href="#f2_21" transform="matrix(12,0,0,12,376.9,901.2)" />
<use xlink:href="#f2_2a" transform="matrix(12,0,0,12,385,901.2)" />
<use xlink:href="#f2_1z" transform="matrix(12,0,0,12,398.5,901.2)" />
<use xlink:href="#f2_2b" transform="matrix(12,0,0,12,406.6,901.2)" />
<use xlink:href="#f2_2a" transform="matrix(12,0,0,12,416.1,901.2)" />
<use xlink:href="#f2_2g" transform="matrix(12,0,0,12,424.9,901.2)" />
<use xlink:href="#f2_1x" transform="matrix(12,0,0,12,430.4,901.2)" />
<use xlink:href="#f2_25" transform="matrix(12,0,0,12,438.4,901.2)" />
<use xlink:href="#f2_2a" transform="matrix(12,0,0,12,443.2,901.2)" />
<use xlink:href="#f2_1z" transform="matrix(12,0,0,12,457.4,901.2)" />
<use xlink:href="#f2_24" transform="matrix(12,0,0,12,465.5,901.2)" />
<use xlink:href="#f2_28" transform="matrix(12,0,0,12,474.7,901.2)" />
<use xlink:href="#f2_2b" transform="matrix(12,0,0,12,479.1,901.2)" />
<use xlink:href="#f2_2e" transform="matrix(12,0,0,12,488.6,901.2)" />
<use xlink:href="#f2_2b" transform="matrix(12,0,0,12,494.8,901.2)" />
<use xlink:href="#f2_2c" transform="matrix(12,0,0,12,504.3,901.2)" />
<use xlink:href="#f2_28" transform="matrix(12,0,0,12,513.8,901.2)" />
<use xlink:href="#f2_1x" transform="matrix(12,0,0,12,518.2,901.2)" />
<use xlink:href="#f2_2f" transform="matrix(12,0,0,12,526.3,901.2)" />
<use xlink:href="#f2_2g" transform="matrix(12,0,0,12,533.2,901.2)" />
<use xlink:href="#f2_i" transform="matrix(12,0,0,12,538.7,901.2)" />
<use xlink:href="#f1_3d" transform="matrix(12,0,0,12,55,926.9)" />
<use xlink:href="#f2_19" transform="matrix(12,0,0,12,82.5,926.9)" />
<use xlink:href="#f2_2a" transform="matrix(12,0,0,12,88.8,926.9)" />
<use xlink:href="#f2_1z" transform="matrix(12,0,0,12,102.3,926.9)" />
<use xlink:href="#f2_2b" transform="matrix(12,0,0,12,110.4,926.9)" />
<use xlink:href="#f2_28" transform="matrix(12,0,0,12,119.9,926.9)" />
<use xlink:href="#f2_28" transform="matrix(12,0,0,12,124.6,926.9)" />
<use xlink:href="#f2_21" transform="matrix(12,0,0,12,129.4,926.9)" />
<use xlink:href="#f2_2a" transform="matrix(12,0,0,12,137.8,926.9)" />
<use xlink:href="#f2_1z" transform="matrix(12,0,0,12,146.6,926.9)" />
<use xlink:href="#f2_24" transform="matrix(12,0,0,12,155,926.9)" />
<use xlink:href="#f2_2l" transform="matrix(12,0,0,12,164.2,926.9)" />
<use xlink:href="#f2_29" transform="matrix(12,0,0,12,173.4,926.9)" />
<use xlink:href="#f2_1x" transform="matrix(12,0,0,12,187.3,926.9)" />
<use xlink:href="#f2_1z" transform="matrix(12,0,0,12,200.1,926.9)" />
<use xlink:href="#f2_21" transform="matrix(12,0,0,12,208.2,926.9)" />
<use xlink:href="#f2_28" transform="matrix(12,0,0,12,216.6,926.9)" />
<use xlink:href="#f2_28" transform="matrix(12,0,0,12,221.7,926.9)" />
<use xlink:href="#f2_2f" transform="matrix(12,0,0,12,226.5,926.9)" />
<use xlink:href="#f2_1z" transform="matrix(12,0,0,12,238.2,926.9)" />
<use xlink:href="#f2_2b" transform="matrix(12,0,0,12,246.3,926.9)" />
<use xlink:href="#f2_2a" transform="matrix(12,0,0,12,255.8,926.9)" />
<use xlink:href="#f2_2g" transform="matrix(12,0,0,12,264.6,926.9)" />
<use xlink:href="#f2_1x" transform="matrix(12,0,0,12,270.1,926.9)" />
<use xlink:href="#f2_25" transform="matrix(12,0,0,12,278.5,926.9)" />
<use xlink:href="#f2_2a" transform="matrix(12,0,0,12,283.3,926.9)" />
<use xlink:href="#f2_25" transform="matrix(12,0,0,12,292.4,926.9)" />
<use xlink:href="#f2_2a" transform="matrix(12,0,0,12,297.2,926.9)" />
<use xlink:href="#f2_23" transform="matrix(12,0,0,12,306.4,926.9)" />
<use xlink:href="#f2_1z" transform="matrix(12,0,0,12,320.6,926.9)" />
<use xlink:href="#f2_24" transform="matrix(12,0,0,12,329,926.9)" />
<use xlink:href="#f2_28" transform="matrix(12,0,0,12,338.2,926.9)" />
<use xlink:href="#f2_2b" transform="matrix(12,0,0,12,342.6,926.9)" />
<use xlink:href="#f2_2e" transform="matrix(12,0,0,12,352.1,926.9)" />
<use xlink:href="#f2_2b" transform="matrix(12,0,0,12,358.3,926.9)" />
<use xlink:href="#f2_2c" transform="matrix(12,0,0,12,367.8,926.9)" />
<use xlink:href="#f2_28" transform="matrix(12,0,0,12,377,926.9)" />
<use xlink:href="#f2_1x" transform="matrix(12,0,0,12,381.4,926.9)" />
<use xlink:href="#f2_2f" transform="matrix(12,0,0,12,389.8,926.9)" />
<use xlink:href="#f2_2g" transform="matrix(12,0,0,12,396.8,926.9)" />
<use xlink:href="#f2_2f" transform="matrix(12,0,0,12,402.3,926.9)" />
<use xlink:href="#f2_22" transform="matrix(12,0,0,12,414,926.9)" />
<use xlink:href="#f2_2b" transform="matrix(12,0,0,12,419.5,926.9)" />
<use xlink:href="#f2_2b" transform="matrix(12,0,0,12,429,926.9)" />
<use xlink:href="#f2_20" transform="matrix(12,0,0,12,438.5,926.9)" />
<use xlink:href="#f2_25" transform="matrix(12,0,0,12,452.4,926.9)" />
<use xlink:href="#f2_2f" transform="matrix(12,0,0,12,457.2,926.9)" />
<use xlink:href="#f2_1x" transform="matrix(12,0,0,12,468.9,926.9)" />
<use xlink:href="#f2_2f" transform="matrix(12,0,0,12,477,926.9)" />
<use xlink:href="#f2_2f" transform="matrix(12,0,0,12,484,926.9)" />
<use xlink:href="#f2_25" transform="matrix(12,0,0,12,491.3,926.9)" />
<use xlink:href="#f2_29" transform="matrix(12,0,0,12,496.4,926.9)" />
<use xlink:href="#f2_25" transform="matrix(12,0,0,12,510.7,926.9)" />
<use xlink:href="#f2_28" transform="matrix(12,0,0,12,515.8,926.9)" />
<use xlink:href="#f2_1x" transform="matrix(12,0,0,12,520.6,926.9)" />
<use xlink:href="#f2_2g" transform="matrix(12,0,0,12,528.6,926.9)" />
<use xlink:href="#f2_21" transform="matrix(12,0,0,12,534.1,926.9)" />
<use xlink:href="#f2_20" transform="matrix(12,0,0,12,542.2,926.9)" />
<use xlink:href="#f2_i" transform="matrix(12,0,0,12,551.7,926.9)" />
<use xlink:href="#f1_3d" transform="matrix(12,0,0,12,55,952.5)" />
<use xlink:href="#f2_19" transform="matrix(12,0,0,12,82.5,952.5)" />
<use xlink:href="#f2_2a" transform="matrix(12,0,0,12,88.8,952.5)" />
<use xlink:href="#f2_2g" transform="matrix(12,0,0,12,97.6,952.5)" />
<use xlink:href="#f2_21" transform="matrix(12,0,0,12,103,952.5)" />
<use xlink:href="#f2_2e" transform="matrix(12,0,0,12,111.1,952.5)" />
<use xlink:href="#f2_1z" transform="matrix(12,0,0,12,117.3,952.5)" />
<use xlink:href="#f2_21" transform="matrix(12,0,0,12,125.4,952.5)" />
<use xlink:href="#f2_28" transform="matrix(12,0,0,12,133.8,952.5)" />
<use xlink:href="#f2_28" transform="matrix(12,0,0,12,138.6,952.5)" />
<use xlink:href="#f2_2h" transform="matrix(12,0,0,12,143.3,952.5)" />
<use xlink:href="#f2_28" transform="matrix(12,0,0,12,152.8,952.5)" />
<use xlink:href="#f2_1x" transform="matrix(12,0,0,12,157.6,952.5)" />
<use xlink:href="#f2_2e" transform="matrix(12,0,0,12,165.7,952.5)" />
<use xlink:href="#f2_2f" transform="matrix(12,0,0,12,176.6,952.5)" />
<use xlink:href="#f2_2c" transform="matrix(12,0,0,12,183.6,952.5)" />
<use xlink:href="#f2_1x" transform="matrix(12,0,0,12,192.8,952.5)" />
<use xlink:href="#f2_1z" transform="matrix(12,0,0,12,200.8,952.5)" />
<use xlink:href="#f2_21" transform="matrix(12,0,0,12,208.9,952.5)" />
<use xlink:href="#f2_2f" transform="matrix(12,0,0,12,217,952.5)" />
<use xlink:href="#f2_1x" transform="matrix(12,0,0,12,228.7,952.5)" />
<use xlink:href="#f2_2e" transform="matrix(12,0,0,12,236.8,952.5)" />
<use xlink:href="#f2_21" transform="matrix(12,0,0,12,243,952.5)" />
<use xlink:href="#f2_1x" transform="matrix(12,0,0,12,255.8,952.5)" />
<use xlink:href="#f2_1y" transform="matrix(12,0,0,12,263.9,952.5)" />
<use xlink:href="#f2_2f" transform="matrix(12,0,0,12,273,952.5)" />
<use xlink:href="#f2_21" transform="matrix(12,0,0,12,280,952.5)" />
<use xlink:href="#f2_2a" transform="matrix(12,0,0,12,288.4,952.5)" />
<use xlink:href="#f2_2g" transform="matrix(12,0,0,12,297.2,952.5)" />
<use xlink:href="#f2_i" transform="matrix(12,0,0,12,302.7,952.5)" />
<use xlink:href="#f1_3d" transform="matrix(12,0,0,12,55,977.8)" />
<use xlink:href="#f2_1k" transform="matrix(12,0,0,12,82.5,977.8)" />
<use xlink:href="#f2_24" transform="matrix(12,0,0,12,93.9,977.8)" />
<use xlink:href="#f2_21" transform="matrix(12,0,0,12,102.7,977.8)" />
<use xlink:href="#f2_2l" transform="matrix(12,0,0,12,111.1,977.8)" />
<use xlink:href="#f2_2c" transform="matrix(12,0,0,12,124.6,977.8)" />
<use xlink:href="#f2_2e" transform="matrix(12,0,0,12,133.8,977.8)" />
<use xlink:href="#f2_2b" transform="matrix(12,0,0,12,140,977.8)" />
<use xlink:href="#f2_2i" transform="matrix(12,0,0,12,149.5,977.8)" />
<use xlink:href="#f2_25" transform="matrix(12,0,0,12,158.7,977.8)" />
<use xlink:href="#f2_20" transform="matrix(12,0,0,12,163.1,977.8)" />
<use xlink:href="#f2_21" transform="matrix(12,0,0,12,172.6,977.8)" />
<use xlink:href="#f2_29" transform="matrix(12,0,0,12,185.8,977.8)" />
<use xlink:href="#f2_21" transform="matrix(12,0,0,12,199.7,977.8)" />
<use xlink:href="#f2_1z" transform="matrix(12,0,0,12,207.8,977.8)" />
<use xlink:href="#f2_24" transform="matrix(12,0,0,12,216.2,977.8)" />
<use xlink:href="#f2_1x" transform="matrix(12,0,0,12,225,977.8)" />
<use xlink:href="#f2_2a" transform="matrix(12,0,0,12,233.4,977.8)" />
<use xlink:href="#f2_25" transform="matrix(12,0,0,12,242.6,977.8)" />
<use xlink:href="#f2_1z" transform="matrix(12,0,0,12,247.4,977.8)" />
<use xlink:href="#f2_1x" transform="matrix(12,0,0,12,255.4,977.8)" />
<use xlink:href="#f2_28" transform="matrix(12,0,0,12,263.9,977.8)" />
<use xlink:href="#f2_2f" transform="matrix(12,0,0,12,273.7,977.8)" />
<use xlink:href="#f2_2h" transform="matrix(12,0,0,12,280.7,977.8)" />
<use xlink:href="#f2_2c" transform="matrix(12,0,0,12,289.9,977.8)" />
<use xlink:href="#f2_2c" transform="matrix(12,0,0,12,299,977.8)" />
<use xlink:href="#f2_2b" transform="matrix(12,0,0,12,308.2,977.8)" />
<use xlink:href="#f2_2e" transform="matrix(12,0,0,12,317.7,977.8)" />
<use xlink:href="#f2_2g" transform="matrix(12,0,0,12,323.6,977.8)" />
<use xlink:href="#f2_2g" transform="matrix(12,0,0,12,333.5,977.8)" />
<use xlink:href="#f2_2b" transform="matrix(12,0,0,12,338.6,977.8)" />
<use xlink:href="#f2_2g" transform="matrix(12,0,0,12,352.5,977.8)" />
<use xlink:href="#f2_24" transform="matrix(12,0,0,12,358,977.8)" />
<use xlink:href="#f2_21" transform="matrix(12,0,0,12,366.8,977.8)" />
<use xlink:href="#f2_23" transform="matrix(12,0,0,12,380,977.8)" />
<use xlink:href="#f2_2e" transform="matrix(12,0,0,12,389.1,977.8)" />
<use xlink:href="#f2_2b" transform="matrix(12,0,0,12,395,977.8)" />
<use xlink:href="#f2_2j" transform="matrix(12,0,0,12,404.5,977.8)" />
<use xlink:href="#f2_25" transform="matrix(12,0,0,12,417.8,977.8)" />
<use xlink:href="#f2_2a" transform="matrix(12,0,0,12,422.5,977.8)" />
<use xlink:href="#f2_23" transform="matrix(12,0,0,12,431.3,977.8)" />
<use xlink:href="#f2_2c" transform="matrix(12,0,0,12,445.6,977.8)" />
<use xlink:href="#f2_1x" transform="matrix(12,0,0,12,454.7,977.8)" />
<use xlink:href="#f2_2e" transform="matrix(12,0,0,12,462.8,977.8)" />
<use xlink:href="#f2_2g" transform="matrix(12,0,0,12,469,977.8)" />
<use xlink:href="#f2_2f" transform="matrix(12,0,0,12,474.5,977.8)" />
<use xlink:href="#f2_2b" transform="matrix(12,0,0,12,485.9,977.8)" />
<use xlink:href="#f2_22" transform="matrix(12,0,0,12,495.4,977.8)" />
<use xlink:href="#f2_2g" transform="matrix(12,0,0,12,506,977.8)" />
<use xlink:href="#f2_24" transform="matrix(12,0,0,12,511.5,977.8)" />
<use xlink:href="#f2_21" transform="matrix(12,0,0,12,520.3,977.8)" />
<use xlink:href="#f2_2c" transform="matrix(12,0,0,12,533.4,977.8)" />
<use xlink:href="#f2_28" transform="matrix(12,0,0,12,542.6,977.8)" />
<use xlink:href="#f2_1x" transform="matrix(12,0,0,12,547,977.8)" />
<use xlink:href="#f2_2a" transform="matrix(12,0,0,12,555.4,977.8)" />
<use xlink:href="#f2_2g" transform="matrix(12,0,0,12,564.2,977.8)" />
<use xlink:href="#f2_i" transform="matrix(12,0,0,12,570.4,977.8)" />
<use xlink:href="#f2_1k" transform="matrix(12,0,0,12,579.9,977.8)" />
<use xlink:href="#f2_24" transform="matrix(12,0,0,12,591.3,977.8)" />
<use xlink:href="#f2_21" transform="matrix(12,0,0,12,600.1,977.8)" />
<use xlink:href="#f2_2l" transform="matrix(12,0,0,12,608.5,977.8)" />
<use xlink:href="#f2_1x" transform="matrix(12,0,0,12,622,977.8)" />
<use xlink:href="#f2_28" transform="matrix(12,0,0,12,630.4,977.8)" />
<use xlink:href="#f2_28" transform="matrix(12,0,0,12,635.2,977.8)" />
<use xlink:href="#f2_2b" transform="matrix(12,0,0,12,639.6,977.8)" />
<use xlink:href="#f2_2j" transform="matrix(12,0,0,12,649.5,977.8)" />
<use xlink:href="#f2_2g" transform="matrix(12,0,0,12,667.8,977.8)" />
<use xlink:href="#f2_24" transform="matrix(12,0,0,12,673.3,977.8)" />
<use xlink:href="#f2_21" transform="matrix(12,0,0,12,682.1,977.8)" />
<use xlink:href="#f2_2c" transform="matrix(12,0,0,12,695.3,977.8)" />
<use xlink:href="#f2_1x" transform="matrix(12,0,0,12,704.4,977.8)" />
<use xlink:href="#f2_2e" transform="matrix(12,0,0,12,712.5,977.8)" />
<use xlink:href="#f2_2g" transform="matrix(12,0,0,12,718.4,977.8)" />
<use xlink:href="#f2_2g" transform="matrix(12,0,0,12,728.3,977.8)" />
<use xlink:href="#f2_2b" transform="matrix(12,0,0,12,733.4,977.8)" />
<use xlink:href="#f2_1y" transform="matrix(12,0,0,12,82.5,1002.4)" />
<use xlink:href="#f2_21" transform="matrix(12,0,0,12,91.3,1002.4)" />
<use xlink:href="#f2_2a" transform="matrix(12,0,0,12,99.8,1002.4)" />
<use xlink:href="#f2_20" transform="matrix(12,0,0,12,108.6,1002.4)" />
<use xlink:href="#f2_2j" transform="matrix(12,0,0,12,122.5,1002.4)" />
<use xlink:href="#f2_25" transform="matrix(12,0,0,12,136,1002.4)" />
<use xlink:href="#f2_2g" transform="matrix(12,0,0,12,140.4,1002.4)" />
<use xlink:href="#f2_24" transform="matrix(12,0,0,12,146.3,1002.4)" />
<use xlink:href="#f2_2b" transform="matrix(12,0,0,12,155.1,1002.4)" />
<use xlink:href="#f2_2h" transform="matrix(12,0,0,12,164.6,1002.4)" />
<use xlink:href="#f2_2g" transform="matrix(12,0,0,12,173.7,1002.4)" />
<use xlink:href="#f2_1y" transform="matrix(12,0,0,12,183.6,1002.4)" />
<use xlink:href="#f2_2e" transform="matrix(12,0,0,12,192.4,1002.4)" />
<use xlink:href="#f2_21" transform="matrix(12,0,0,12,198.6,1002.4)" />
<use xlink:href="#f2_1x" transform="matrix(12,0,0,12,206.7,1002.4)" />
<use xlink:href="#f2_27" transform="matrix(12,0,0,12,214.8,1002.4)" />
<use xlink:href="#f2_25" transform="matrix(12,0,0,12,224.3,1002.4)" />
<use xlink:href="#f2_2a" transform="matrix(12,0,0,12,229.1,1002.4)" />
<use xlink:href="#f2_23" transform="matrix(12,0,0,12,237.9,1002.4)" />
<use xlink:href="#f2_i" transform="matrix(12,0,0,12,247,1002.4)" />
<use xlink:href="#f2_1k" transform="matrix(12,0,0,12,256.5,1002.4)" />
<use xlink:href="#f2_24" transform="matrix(12,0,0,12,267.9,1002.4)" />
<use xlink:href="#f2_21" transform="matrix(12,0,0,12,276.7,1002.4)" />
<use xlink:href="#f2_2l" transform="matrix(12,0,0,12,285.1,1002.4)" />
<use xlink:href="#f2_1x" transform="matrix(12,0,0,12,298.6,1002.4)" />
<use xlink:href="#f2_2e" transform="matrix(12,0,0,12,306.7,1002.4)" />
<use xlink:href="#f2_21" transform="matrix(12,0,0,12,312.9,1002.4)" />
<use xlink:href="#f2_2c" transform="matrix(12,0,0,12,325.7,1002.4)" />
<use xlink:href="#f2_2e" transform="matrix(12,0,0,12,334.9,1002.4)" />
<use xlink:href="#f2_21" transform="matrix(12,0,0,12,341.1,1002.4)" />
<use xlink:href="#f2_2f" transform="matrix(12,0,0,12,349.2,1002.4)" />
<use xlink:href="#f2_21" transform="matrix(12,0,0,12,356.1,1002.4)" />
<use xlink:href="#f2_2a" transform="matrix(12,0,0,12,364.6,1002.4)" />
<use xlink:href="#f2_2g" transform="matrix(12,0,0,12,373.4,1002.4)" />
<use xlink:href="#f2_25" transform="matrix(12,0,0,12,384,1002.4)" />
<use xlink:href="#f2_2a" transform="matrix(12,0,0,12,388.7,1002.4)" />
<use xlink:href="#f2_2l" transform="matrix(12,0,0,12,402.6,1002.4)" />
<use xlink:href="#f2_2b" transform="matrix(12,0,0,12,411.1,1002.4)" />
<use xlink:href="#f2_2h" transform="matrix(12,0,0,12,420.6,1002.4)" />
<use xlink:href="#f2_2a" transform="matrix(12,0,0,12,429.8,1002.4)" />
<use xlink:href="#f2_23" transform="matrix(12,0,0,12,438.6,1002.4)" />
<use xlink:href="#f2_2c" transform="matrix(12,0,0,12,452.8,1002.4)" />
<use xlink:href="#f2_1x" transform="matrix(12,0,0,12,462,1002.4)" />
<use xlink:href="#f2_2e" transform="matrix(12,0,0,12,470.1,1002.4)" />
<use xlink:href="#f2_2g" transform="matrix(12,0,0,12,476.3,1002.4)" />
<use xlink:href="#f2_2f" transform="matrix(12,0,0,12,481.8,1002.4)" />
<use xlink:href="#f2_2f" transform="matrix(12,0,0,12,494.1,1002.4)" />
<use xlink:href="#f2_2h" transform="matrix(12,0,0,12,501.1,1002.4)" />
<use xlink:href="#f2_1z" transform="matrix(12,0,0,12,510.2,1002.4)" />
<use xlink:href="#f2_24" transform="matrix(12,0,0,12,518.3,1002.4)" />
<use xlink:href="#f2_1x" transform="matrix(12,0,0,12,531.9,1002.4)" />
<use xlink:href="#f2_2f" transform="matrix(12,0,0,12,539.9,1002.4)" />
<use xlink:href="#f2_2l" transform="matrix(12,0,0,12,552,1002.4)" />
<use xlink:href="#f2_2b" transform="matrix(12,0,0,12,560.4,1002.4)" />
<use xlink:href="#f2_2h" transform="matrix(12,0,0,12,570,1002.4)" />
<use xlink:href="#f2_2a" transform="matrix(12,0,0,12,579.5,1002.4)" />
<use xlink:href="#f2_23" transform="matrix(12,0,0,12,588.3,1002.4)" />
<use xlink:href="#f2_2f" transform="matrix(12,0,0,12,602.2,1002.4)" />
<use xlink:href="#f2_2g" transform="matrix(12,0,0,12,609.2,1002.4)" />
<use xlink:href="#f2_21" transform="matrix(12,0,0,12,614.6,1002.4)" />
<use xlink:href="#f2_29" transform="matrix(12,0,0,12,623.1,1002.4)" />
<use xlink:href="#f2_1x" transform="matrix(12,0,0,12,641.4,1002.4)" />
<use xlink:href="#f2_2a" transform="matrix(12,0,0,12,649.8,1002.4)" />
<use xlink:href="#f2_20" transform="matrix(12,0,0,12,658.6,1002.4)" />
<use xlink:href="#f2_2c" transform="matrix(12,0,0,12,672.5,1002.4)" />
<use xlink:href="#f2_21" transform="matrix(12,0,0,12,681.7,1002.4)" />
<use xlink:href="#f2_2g" transform="matrix(12,0,0,12,689.7,1002.4)" />
<use xlink:href="#f2_25" transform="matrix(12,0,0,12,695.2,1002.4)" />
<use xlink:href="#f2_2b" transform="matrix(12,0,0,12,699.6,1002.4)" />
<use xlink:href="#f2_28" transform="matrix(12,0,0,12,709.5,1002.4)" />
<use xlink:href="#f2_21" transform="matrix(12,0,0,12,713.9,1002.4)" />
<use xlink:href="#f2_2b" transform="matrix(12,0,0,12,726.7,1002.4)" />
<use xlink:href="#f2_22" transform="matrix(12,0,0,12,736.6,1002.4)" />
<use xlink:href="#f2_1x" transform="matrix(12,0,0,12,82.5,1026.6)" />
<use xlink:href="#f2_28" transform="matrix(12,0,0,12,95.7,1026.6)" />
<use xlink:href="#f2_21" transform="matrix(12,0,0,12,100.1,1026.6)" />
<use xlink:href="#f2_1x" transform="matrix(12,0,0,12,108.2,1026.6)" />
<use xlink:href="#f2_22" transform="matrix(12,0,0,12,116.6,1026.6)" />
<use xlink:href="#f2_c" transform="matrix(12,0,0,12,126.8,1026.6)" />
<use xlink:href="#f2_25" transform="matrix(12,0,0,12,133.4,1026.6)" />
<use xlink:href="#f2_2a" transform="matrix(12,0,0,12,138.2,1026.6)" />
<use xlink:href="#f2_20" transform="matrix(12,0,0,12,151.7,1026.6)" />
<use xlink:href="#f2_25" transform="matrix(12,0,0,12,161.3,1026.6)" />
<use xlink:href="#f2_1z" transform="matrix(12,0,0,12,166,1026.6)" />
<use xlink:href="#f2_2b" transform="matrix(12,0,0,12,174.1,1026.6)" />
<use xlink:href="#f2_2g" transform="matrix(12,0,0,12,183.6,1026.6)" />
<use xlink:href="#f2_24" transform="matrix(12,0,0,12,193.8,1026.6)" />
<use xlink:href="#f2_21" transform="matrix(12,0,0,12,202.6,1026.6)" />
<use xlink:href="#f2_2e" transform="matrix(12,0,0,12,210.7,1026.6)" />
<use xlink:href="#f2_1y" transform="matrix(12,0,0,12,216.9,1026.6)" />
<use xlink:href="#f2_d" transform="matrix(12,0,0,12,225.7,1026.6)" />
<use xlink:href="#f0_1k" transform="matrix(12,0,0,12,55,1086.8)" />
<use xlink:href="#f0_2l" transform="matrix(12,0,0,12,67.1,1086.8)" />
<use xlink:href="#f0_2c" transform="matrix(12,0,0,12,76.3,1086.8)" />
<use xlink:href="#f0_21" transform="matrix(12,0,0,12,86.6,1086.8)" />
<use xlink:href="#f0_2f" transform="matrix(12,0,0,12,94.6,1086.8)" />
<use xlink:href="#f0_2b" transform="matrix(12,0,0,12,106.3,1086.8)" />
<use xlink:href="#f0_22" transform="matrix(12,0,0,12,115.5,1086.8)" />
<use xlink:href="#f0_13" transform="matrix(12,0,0,12,126.1,1086.8)" />
<use xlink:href="#f0_2b" transform="matrix(12,0,0,12,139.4,1086.8)" />
<use xlink:href="#f0_28" transform="matrix(12,0,0,12,148.5,1086.8)" />
<use xlink:href="#f0_28" transform="matrix(12,0,0,12,153.6,1086.8)" />
<use xlink:href="#f0_21" transform="matrix(12,0,0,12,158.4,1086.8)" />
<use xlink:href="#f0_2a" transform="matrix(12,0,0,12,166.4,1086.8)" />
<use xlink:href="#f0_1z" transform="matrix(12,0,0,12,176.7,1086.8)" />
<use xlink:href="#f0_24" transform="matrix(12,0,0,12,184.8,1086.8)" />
<use xlink:href="#f0_2l" transform="matrix(12,0,0,12,195,1086.8)" />
<use xlink:href="#f0_29" transform="matrix(12,0,0,12,204.5,1086.8)" />
<use xlink:href="#f0_1x" transform="matrix(12,0,0,12,219.6,1086.8)" />
</g>
</g>
<image preserveAspectRatio="none" x="83" y="55" width="687" height="394" xlink:href="img/1.png" />
<g fill="#000000" >
<use xlink:href="#f3_o" transform="matrix(8,0,0,8,680.7,1132.9)" />
</g>
<defs>
<path d="M452,474c0,0,104,0,151,52c0,0,47,53,47,178c0,0,0,119,-45,167c0,0,-44,47,-156,47H390V474ZM36,0V54L154,74V926L26,945v55H467c0,0,213,0,318,-71c0,0,105,-71,105,-224c0,0,0,-313,-366,-313H390V74L557,54V0Z" 
id="f0_1g"
transform="scale(0.001,-0.001)" />

<path d="M345,75c0,0,50,0,110,26V351l-63,-2c0,0,-72,-3,-100,-38c0,0,-28,-35,-28,-113c0,0,0,-63,22,-93c0,0,23,-30,59,-30ZM266,-14c0,0,-217,0,-217,208c0,0,0,79,32,126c0,0,32,48,93,71c0,0,60,22,190,25l91,2V521c0,0,0,126,-104,126c0,0,-62,0,-140,-39L183,521H134V691c0,0,112,17,165,21c0,0,53,5,108,5c0,0,264,0,264,-194V67L741,49V0H483L466,54C466,54,408,14,361,0c0,0,-47,-14,-95,-14Z" 
id="f0_1x"
transform="scale(0.001,-0.001)" />

<path d="M41,0V49l91,18V634L41,652v49H336l8,-145c0,0,80,89,144,128c0,0,64,40,117,40h40V468H604l-45,94c0,0,-47,0,-106,-21c0,0,-60,-20,-105,-48V67L460,49V0Z" 
id="f0_2e"
transform="scale(0.001,-0.001)" />

<path d="M434,423c0,0,0,101,-7,142c0,0,-6,40,-22,60c0,0,-16,19,-45,19c0,0,-44,0,-66,-48c0,0,-22,-49,-22,-173ZM389,-14c0,0,-172,0,-254,89c0,0,-83,90,-83,279c0,0,0,184,79,274c0,0,79,91,238,91c0,0,142,0,206,-76c0,0,64,-76,64,-237V345H271V333c0,0,0,-111,18,-158c0,0,18,-47,58,-72c0,0,40,-25,110,-25c0,0,66,0,166,22V42C623,42,582,18,517,1c0,0,-66,-15,-128,-15Z" 
id="f0_21"
transform="scale(0.001,-0.001)" />

<path d="M41,0V49l69,18V634L41,652v49H313l11,-61l50,26c0,0,105,54,188,54c0,0,194,0,194,-207V67L827,49V0H478V49l63,18V484c0,0,0,63,-27,98c0,0,-26,35,-75,35c0,0,-57,0,-114,-25V67L389,49V0Z" 
id="f0_2a"
transform="scale(0.001,-0.001)" />

<path d="M425,-14c0,0,-187,0,-280,90c0,0,-93,90,-93,276c0,0,0,115,42,198c0,0,43,82,121,126c0,0,78,44,182,44c0,0,104,0,227,-26V486H571L539,609c0,0,-25,19,-50,26c0,0,-24,7,-65,7c0,0,-44,0,-79,-35c0,0,-36,-35,-56,-98c0,0,-20,-64,-20,-153c0,0,0,-150,47,-214c0,0,47,-64,148,-64c0,0,103,0,176,21V42C640,42,606,15,547,0c0,0,-59,-14,-122,-14Z" 
id="f0_1z"
transform="scale(0.001,-0.001)" />

<path d="M41,0V49l69,18V992l-72,18v50H325V756c0,0,0,-49,-4,-116l51,26c0,0,106,54,190,54c0,0,194,0,194,-207V67L827,49V0H478V49l63,18V484c0,0,0,63,-27,98c0,0,-26,35,-75,35c0,0,-57,0,-114,-25V67L389,49V0Z" 
id="f0_24"
transform="scale(0.001,-0.001)" />

<path d="M159,-329c0,0,-61,0,-123,14v180H81l32,-94c0,0,21,-17,55,-17c0,0,28,0,50,13c0,0,21,14,40,39c0,0,20,25,37,62c0,0,17,37,50,110L64,634L15,652v49H374V652L290,632L455,244L602,634l-82,18v49H749V652L698,637L421,-44c0,0,-47,-121,-83,-176c0,0,-36,-55,-80,-82c0,0,-43,-27,-99,-27Z" 
id="f0_2l"
transform="scale(0.001,-0.001)" />

<path d="M41,0V49l69,18V634L41,652v49H313l11,-61l50,26c0,0,105,54,188,54c0,0,125,0,167,-91c0,0,153,91,258,91c0,0,189,0,189,-207V67l71,-17V0H898V50l63,17V484c0,0,0,63,-24,98c0,0,-25,35,-74,35c0,0,-55,0,-119,-31c0,0,7,-32,7,-73V67L821,50V0H473V50l63,17V484c0,0,0,63,-25,98c0,0,-24,35,-73,35c0,0,-49,0,-113,-29V67L389,49V0Z" 
id="f0_29"
transform="scale(0.001,-0.001)" />

<path d="M273,157c0,0,-114,0,-193,80C80,237,0,317,0,431c0,0,0,112,80,192c0,0,79,80,193,80c0,0,113,0,192,-80c0,0,80,-80,80,-192c0,0,0,-114,-80,-194c0,0,-79,-80,-192,-80Z" 
id="f1_3d"
transform="scale(0.001,-0.001)" />

<path d="M394,460c0,0,126,0,186,57c0,0,60,57,60,187c0,0,0,123,-57,176c0,0,-58,53,-194,53H316V460ZM54,0V40L172,60V941L44,960v40H421c0,0,368,0,368,-295c0,0,0,-153,-93,-233c0,0,-93,-80,-267,-80H316V60L475,40V0Z" 
id="f2_1g"
transform="scale(0.001,-0.001)" />

<path d="M284,67c0,0,51,0,88,12c0,0,37,12,74,30V358l-98,-3c0,0,-100,-4,-135,-39c0,0,-35,-35,-35,-117c0,0,0,-132,106,-132ZM233,-14c0,0,-179,0,-179,208c0,0,0,70,27,116c0,0,27,46,87,70c0,0,60,24,173,27l105,3V519c0,0,0,72,-26,107c0,0,-27,34,-82,34c0,0,-75,0,-137,-35L176,538H134V691c0,0,121,26,213,26c0,0,115,0,169,-47c0,0,54,-47,54,-144V52L657,33V0H465L451,70c0,0,-85,-84,-218,-84Z" 
id="f2_1x"
transform="scale(0.001,-0.001)" />

<path d="M31,0V33l88,19V649L31,668v33H235l7,-87c0,0,44,37,121,71c0,0,76,35,121,35h11V530H463l-43,82c0,0,-37,0,-88,-10c0,0,-52,-10,-89,-26V52L363,33V0Z" 
id="f2_2e"
transform="scale(0.001,-0.001)" />

<path d="M495,413c0,0,0,133,-34,190c0,0,-34,57,-105,57c0,0,-78,0,-119,-63c0,0,-42,-62,-42,-184ZM374,-14c0,0,-163,0,-239,87c0,0,-75,88,-75,283c0,0,0,183,77,273c0,0,76,91,219,91c0,0,269,0,269,-306V353H194V340c0,0,0,-103,23,-160c0,0,22,-57,70,-87c0,0,47,-29,124,-29c0,0,40,0,96,6c0,0,55,7,91,15V43C598,43,562,20,500,3c0,0,-61,-17,-126,-17Z" 
id="f2_21"
transform="scale(0.001,-0.001)" />

<path d="M439,0V33l93,19V500c0,0,0,62,-30,97c0,0,-31,36,-94,36c0,0,-67,0,-165,-22V52L338,33V0H35V33l84,19V649L35,668v33H235l7,-57c0,0,57,33,122,54c0,0,65,22,108,22c0,0,91,0,137,-53c0,0,47,-53,47,-154V52L741,33V0Z" 
id="f2_2a"
transform="scale(0.001,-0.001)" />

<path d="M399,-14c0,0,-341,0,-341,370c0,0,0,175,87,269c0,0,87,95,249,95c0,0,101,0,220,-23V501H573L541,625c0,0,-62,35,-149,35c0,0,-200,0,-200,-304c0,0,0,-158,61,-225c0,0,61,-67,189,-67c0,0,109,0,189,24V43C631,43,595,16,530,1c0,0,-64,-15,-131,-15Z" 
id="f2_1z"
transform="scale(0.001,-0.001)" />

<path d="M442,0V33l93,19V504c0,0,0,129,-124,129c0,0,-70,0,-168,-22V52L338,33V0H31V33l88,19v956L15,1026v34H243V756c0,0,0,-77,-5,-112c0,0,54,31,122,53c0,0,68,23,115,23c0,0,91,0,137,-53c0,0,47,-53,47,-154V52L744,33V0Z" 
id="f2_24"
transform="scale(0.001,-0.001)" />

<path d="M148,-329c0,0,-58,0,-114,13v151H69l24,-71c0,0,23,-17,64,-17c0,0,39,0,72,22c0,0,33,23,60,67c0,0,27,44,68,157L90,649L19,668v33H344V668L233,648L423,158L606,649L497,668v33H758V668L685,652L411,-43c0,0,-48,-124,-84,-177c0,0,-36,-54,-79,-82c0,0,-44,-27,-100,-27Z" 
id="f2_2l"
transform="scale(0.001,-0.001)" />

<path d="M431,0V33L535,52V499c0,0,0,62,-32,96c0,0,-32,33,-95,33c0,0,-66,0,-163,-22V52L350,33V0H32V33l89,19V649L32,668v33H237l6,-57c0,0,56,32,119,54c0,0,62,22,110,22c0,0,52,0,95,-20c0,0,44,-19,66,-62c0,0,57,32,134,57c0,0,77,25,128,25c0,0,179,0,179,-207V52l90,-19V0H846V33L950,52V499c0,0,0,129,-119,129c0,0,-19,0,-45,-3c0,0,-26,-3,-52,-7c0,0,-25,-4,-49,-8c0,0,-23,-5,-39,-8c0,0,13,-41,13,-89V52L764,33V0Z" 
id="f2_29"
transform="scale(0.001,-0.001)" />

<path d="M32,0V33L151,52V649L52,668v33H275V52L395,33V0ZM201,850c0,0,-32,0,-56,24c0,0,-24,24,-24,56c0,0,0,34,24,58c0,0,24,24,56,24c0,0,34,0,58,-24c0,0,24,-24,24,-58c0,0,0,-32,-24,-56c0,0,-24,-24,-58,-24Z" 
id="f2_25"
transform="scale(0.001,-0.001)" />

<path d="M278,-14c0,0,-52,0,-115,11c0,0,-63,10,-99,23V193H98L134,95c0,0,56,-50,146,-50c0,0,144,0,144,123c0,0,0,91,-114,130l-66,21c0,0,-75,25,-110,50c0,0,-34,26,-53,63c0,0,-18,36,-18,89c0,0,0,92,63,145c0,0,63,54,170,54c0,0,77,0,193,-23V544H454l-32,81c0,0,-39,35,-124,35c0,0,-61,0,-92,-30c0,0,-32,-30,-32,-80c0,0,0,-43,29,-72c0,0,28,-29,86,-48c0,0,110,-38,144,-55c0,0,33,-17,57,-42c0,0,23,-25,36,-57c0,0,13,-32,13,-79c0,0,0,-104,-66,-158c0,0,-66,-53,-195,-53Z" 
id="f2_2f"
transform="scale(0.001,-0.001)" />

<path d="M249,-14c0,0,-71,0,-107,42c0,0,-35,42,-35,119V639H15v33l93,29l76,159h47V701H391V639H231V161c0,0,0,-48,22,-73c0,0,22,-24,57,-24c0,0,44,0,106,12V26C416,26,389,8,340,-2c0,0,-49,-12,-91,-12Z" 
id="f2_2g"
transform="scale(0.001,-0.001)" />

<path d="M377,45c0,0,99,0,147,73c0,0,47,73,47,237c0,0,0,161,-47,233c0,0,-47,72,-147,72c0,0,-97,0,-141,-69c0,0,-44,-69,-44,-236c0,0,0,-169,45,-240c0,0,44,-70,140,-70Zm0,-59c0,0,-158,0,-238,94c0,0,-81,95,-81,274c0,0,0,178,81,272c0,0,80,94,244,94c0,0,160,0,241,-92c0,0,82,-92,82,-274c0,0,0,-368,-329,-368Z" 
id="f2_2b"
transform="scale(0.001,-0.001)" />

<path d="M289,-14c0,0,-179,0,-179,205V649L20,668v33H233V200c0,0,0,-128,120,-128c0,0,92,0,173,23V649L420,668v33H649V52L738,33V0H533l-6,57C527,57,474,28,405,7c0,0,-69,-21,-116,-21Z" 
id="f2_2h"
transform="scale(0.001,-0.001)" />

<path d="M382,45c0,0,188,0,188,314c0,0,0,143,-47,213c0,0,-46,69,-141,69c0,0,-87,0,-146,-24V58c0,0,67,-13,146,-13ZM25,-325v35l88,18V649L34,668v33H231l1,-41c0,0,31,27,84,43c0,0,53,17,107,17c0,0,134,0,208,-94c0,0,73,-93,73,-267c0,0,0,-178,-80,-276c0,0,-80,-97,-232,-97c0,0,-84,0,-160,16c0,0,4,-53,4,-84V-272l123,-18v-35Z" 
id="f2_2c"
transform="scale(0.001,-0.001)" />

<path d="M191,-20c0,0,-39,0,-65,25c0,0,-25,27,-25,64c0,0,0,38,26,64c0,0,26,26,64,26c0,0,38,0,64,-26c0,0,26,-26,26,-64c0,0,0,-37,-25,-64c0,0,-26,-25,-65,-25Z" 
id="f2_i"
transform="scale(0.001,-0.001)" />

<path d="M235,0V40L394,60V936H356c0,0,-189,0,-258,-15L78,766H28v234H908V766H857L837,921c0,0,-22,5,-98,9c0,0,-75,4,-165,4H538V60L697,40V0Z" 
id="f2_1k"
transform="scale(0.001,-0.001)" />

<path d="M64,0V34L168,59V639H47v36l121,29v49c0,0,0,155,61,239c0,0,62,84,173,84c0,0,58,0,107,-15V908H472l-33,92c0,0,-26,16,-62,16c0,0,-47,0,-66,-42c0,0,-19,-42,-19,-157V701H478V639H292V59L443,34V0Z" 
id="f2_22"
transform="scale(0.001,-0.001)" />

<path d="M31,0V33L150,52v956L31,1026v34H274V52L394,33V0Z" 
id="f2_28"
transform="scale(0.001,-0.001)" />

<path d="M383,64c0,0,85,0,152,28V645c0,0,-67,13,-152,13c0,0,-194,0,-194,-314c0,0,0,-141,48,-211c0,0,48,-69,146,-69ZM342,-14c0,0,-287,0,-287,358c0,0,0,184,82,280c0,0,81,96,239,96c0,0,81,0,163,-18c0,0,-4,25,-4,124v182l-118,18v34H659V52L745,33V0H548l-9,52c0,0,-84,-66,-197,-66Z" 
id="f2_20"
transform="scale(0.001,-0.001)" />

<path d="M360,-14L72,649L0,668v33H327V668L216,648L420,164L615,649L504,668v33H764V668L697,652L416,-14Z" 
id="f2_2i"
transform="scale(0.001,-0.001)" />

<path d="M359,-270c0,0,124,0,192,46c0,0,67,47,67,129c0,0,0,43,-26,67c0,0,-26,24,-79,24H242c0,0,-32,-27,-51,-69c0,0,-20,-41,-20,-77c0,0,0,-64,46,-92c0,0,46,-28,142,-28Zm11,561c0,0,81,0,115,47c0,0,34,47,34,141c0,0,0,100,-35,142c0,0,-35,42,-113,42c0,0,-78,0,-114,-43c0,0,-37,-42,-37,-141c0,0,0,-98,36,-143c0,0,36,-45,114,-45ZM359,-329c0,0,-143,0,-218,44c0,0,-75,43,-75,125c0,0,0,39,27,78c0,0,26,38,98,89c0,0,-43,14,-72,48c0,0,-29,35,-29,74L208,262c0,0,-118,55,-118,217c0,0,0,115,73,178c0,0,73,63,211,63c0,0,28,0,71,-6c0,0,44,-6,67,-13l165,83l26,-32L599,644c0,0,50,-56,50,-165c0,0,0,-120,-72,-182c0,0,-73,-62,-208,-62c0,0,-62,0,-114,11L208,148c0,0,2,-13,29,-24c0,0,27,-12,67,-12H512c0,0,113,0,168,-49c0,0,55,-49,55,-134c0,0,0,-79,-44,-137c0,0,-43,-58,-128,-90c0,0,-84,-31,-204,-31Z" 
id="f2_23"
transform="scale(0.001,-0.001)" />

<path d="M327,-14L84,649L1,668v33H335V668L219,648L385,174L554,632h63L786,171L944,649L830,668v33h267V668l-78,-16L784,-14H726L553,448L382,-14Z" 
id="f2_2j"
transform="scale(0.001,-0.001)" />

<path d="M477,0V33l64,19L348,354L257,254V52L331,33V0H44V33l89,19v956L29,1026v34H257V338L544,647l-73,20v34H718V667L631,650L431,446L688,50L764,33V0Z" 
id="f2_27"
transform="scale(0.001,-0.001)" />

<path d="M58,-234v58c0,0,131,42,131,125c0,0,0,15,-11,27c0,0,-11,12,-38,25C140,1,89,27,89,75c0,0,0,40,25,61c0,0,26,21,65,21c0,0,48,0,77,-34c0,0,30,-34,30,-86c0,0,0,-101,-60,-170c0,0,-59,-69,-168,-101Z" 
id="f2_g"
transform="scale(0.001,-0.001)" />

<path d="M608,-14c0,0,-251,0,-392,133C216,119,75,252,75,488c0,0,0,257,134,390c0,0,135,133,398,133c0,0,174,0,361,-50l4,-240H905L884,866c0,0,-98,67,-229,67c0,0,-173,0,-253,-108c0,0,-80,-108,-80,-334c0,0,0,-209,84,-319c0,0,83,-109,243,-109c0,0,84,0,147,22c0,0,63,22,99,53l24,164h68L982,48C982,48,915,22,808,4C808,4,700,-14,608,-14Z" 
id="f0_13"
transform="scale(0.001,-0.001)" />

<path d="M379,60c0,0,59,0,84,64c0,0,24,65,24,231c0,0,0,164,-24,227c0,0,-24,63,-84,63c0,0,-57,0,-80,-60c0,0,-22,-61,-22,-230c0,0,0,-173,23,-234c0,0,22,-61,79,-61Zm-2,-74c0,0,-161,0,-240,91c0,0,-79,91,-79,277c0,0,0,186,80,276c0,0,81,90,245,90c0,0,167,0,245,-93c0,0,78,-93,78,-273c0,0,0,-188,-81,-278c0,0,-81,-90,-248,-90Z" 
id="f0_2b"
transform="scale(0.001,-0.001)" />

<path d="M30,0V49l76,18V992l-72,18v50H322V67L398,49V0Z" 
id="f0_28"
transform="scale(0.001,-0.001)" />

<path d="M376,50c0,0,103,0,149,80c0,0,46,81,46,240c0,0,0,137,-47,204c0,0,-48,67,-148,67c0,0,-44,0,-87,-7c0,0,-44,-8,-63,-17V62c0,0,63,-12,150,-12Zm3,-64c0,0,-64,0,-141,14c0,0,-78,14,-136,37v971L0,1026v34H226V809c0,0,0,-40,-4,-148c0,0,74,59,188,59c0,0,143,0,219,-87c0,0,77,-87,77,-263c0,0,0,-189,-84,-287c0,0,-84,-97,-243,-97Z" 
id="f2_1y"
transform="scale(0.001,-0.001)" />

<path d="M55,0V40L184,60V941L55,960v40H455V960L327,941V60L455,40V0Z" 
id="f2_19"
transform="scale(0.001,-0.001)" />

<path d="M577,-14c0,0,-243,0,-379,132C198,118,63,250,63,488c0,0,0,258,130,391c0,0,131,132,387,132c0,0,156,0,335,-38l5,-218H871L848,884c0,0,-52,32,-121,50c0,0,-69,17,-141,17c0,0,-191,0,-279,-112c0,0,-88,-113,-88,-349c0,0,0,-217,92,-332c0,0,92,-115,268,-115c0,0,85,0,160,20c0,0,76,21,120,55l27,149h49L930,32c0,0,-164,-46,-353,-46Z" 
id="f2_13"
transform="scale(0.001,-0.001)" />

<path d="M460,-325c0,0,-148,79,-231,172c0,0,-84,93,-123,217c0,0,-39,126,-39,304c0,0,0,178,39,303c0,0,39,125,122,217c0,0,82,93,232,172V997c0,0,-91,-52,-145,-134c0,0,-54,-81,-79,-190c0,0,-25,-109,-25,-305c0,0,0,-194,26,-309c0,0,26,-114,82,-193c0,0,56,-79,141,-128v-63Z" 
id="f2_c"
transform="scale(0.001,-0.001)" />

<path d="M49,-325v63c0,0,85,49,140,128c0,0,56,79,83,194c0,0,26,115,26,308c0,0,0,196,-25,305c0,0,-25,109,-79,190c0,0,-54,82,-145,134v63c0,0,149,-80,232,-172c0,0,83,-92,122,-217c0,0,39,-125,39,-303c0,0,0,-177,-39,-303c0,0,-39,-125,-122,-217c0,0,-83,-93,-232,-173Z" 
id="f2_d"
transform="scale(0.001,-0.001)" />

<path d="M231,0V54L390,74V921H352c0,0,-171,0,-240,-15L92,721H24v279H996V721H927L907,906c0,0,-62,14,-245,14H626V74L785,54V0Z" 
id="f0_1k"
transform="scale(0.001,-0.001)" />

<path d="M438,65c0,0,131,0,131,293c0,0,0,279,-130,279c0,0,-69,0,-127,-29V80c0,0,60,-15,126,-15ZM20,-325v50l76,18V634L19,652v49H304l1,-36c0,0,80,55,194,55c0,0,146,0,218,-86c0,0,71,-86,71,-271c0,0,0,-183,-83,-280c0,0,-83,-97,-238,-97c0,0,-79,0,-160,19c0,0,5,-48,5,-109V-257l103,-18v-50Z" 
id="f0_2c"
transform="scale(0.001,-0.001)" />

<path d="M276,-14c0,0,-57,0,-125,13C151,-1,83,10,48,23V214H97l28,-98c0,0,26,-26,69,-44c0,0,42,-17,86,-17c0,0,65,0,97,28c0,0,32,28,32,71c0,0,0,41,-31,65c0,0,-30,25,-133,57c0,0,-108,34,-154,92c0,0,-45,58,-45,143c0,0,0,95,71,152c0,0,71,57,183,57c0,0,77,0,207,-22V518H457l-24,82c0,0,-21,22,-60,35c0,0,-40,14,-75,14c0,0,-53,0,-79,-22c0,0,-26,-22,-26,-59c0,0,0,-40,32,-65c0,0,32,-26,132,-55c0,0,109,-34,155,-89c0,0,45,-55,45,-137c0,0,0,-117,-72,-177c0,0,-72,-59,-209,-59Z" 
id="f0_2f"
transform="scale(0.001,-0.001)" />

<path d="M41,0V49l76,18V624H11v51l106,29v75c0,0,0,144,73,220c0,0,73,77,210,77c0,0,74,0,124,-15V894H476l-22,81c0,0,-18,17,-47,17c0,0,-74,0,-74,-189V701H475V624H333V67L447,49V0Z" 
id="f0_22"
transform="scale(0.001,-0.001)" />

<path d="M494,385V878L152,385ZM494,0V262H20V385l498,708H628V385H775V262H628V0Z" 
id="f3_o"
transform="scale(0.001,-0.001)" />


</defs>
</svg>