<?xml version="1.0" encoding="UTF-8" standalone="no"?>
<!DOCTYPE svg PUBLIC "-//W3C//DTD SVG 1.1//EN"
"http://www.w3.org/Graphics/SVG/1.1/DTD/svg11.dtd">
<svg viewBox="0 0 909 1286" version="1.1" xmlns="http://www.w3.org/2000/svg" xmlns:xlink="http://www.w3.org/1999/xlink">
<defs>
</defs>
<g fill="#000000" >
<use xlink:href="#f0_1g" transform="matrix(12,0,0,12,55,72.3)" />
<use xlink:href="#f0_24" transform="matrix(12,0,0,12,65.3,72.3)" />
<use xlink:href="#f0_2b" transform="matrix(12,0,0,12,74.1,72.3)" />
<use xlink:href="#f0_2g" transform="matrix(12,0,0,12,83.6,72.3)" />
<use xlink:href="#f0_2b" transform="matrix(12,0,0,12,88.7,72.3)" />
<use xlink:href="#f0_2f" transform="matrix(12,0,0,12,98.2,72.3)" />
<use xlink:href="#f0_2l" transform="matrix(12,0,0,12,105.2,72.3)" />
<use xlink:href="#f0_2a" transform="matrix(12,0,0,12,114,72.3)" />
<use xlink:href="#f0_2g" transform="matrix(12,0,0,12,122.8,72.3)" />
<use xlink:href="#f0_24" transform="matrix(12,0,0,12,128.3,72.3)" />
<use xlink:href="#f0_21" transform="matrix(12,0,0,12,137.1,72.3)" />
<use xlink:href="#f0_2g" transform="matrix(12,0,0,12,145.2,72.3)" />
<use xlink:href="#f0_25" transform="matrix(12,0,0,12,151,72.3)" />
<use xlink:href="#f0_1z" transform="matrix(12,0,0,12,155.4,72.3)" />
<use xlink:href="#f0_2c" transform="matrix(12,0,0,12,168.2,72.3)" />
<use xlink:href="#f0_25" transform="matrix(12,0,0,12,177.7,72.3)" />
<use xlink:href="#f0_23" transform="matrix(12,0,0,12,182.5,72.3)" />
<use xlink:href="#f0_29" transform="matrix(12,0,0,12,192,72.3)" />
<use xlink:href="#f0_21" transform="matrix(12,0,0,12,206,72.3)" />
<use xlink:href="#f0_2a" transform="matrix(12,0,0,12,214.4,72.3)" />
<use xlink:href="#f0_2g" transform="matrix(12,0,0,12,223.2,72.3)" />
<use xlink:href="#f0_2f" transform="matrix(12,0,0,12,228.7,72.3)" />
<use xlink:href="#f0_1x" transform="matrix(12,0,0,12,240.4,72.3)" />
<use xlink:href="#f0_2e" transform="matrix(12,0,0,12,248.4,72.3)" />
<use xlink:href="#f0_21" transform="matrix(12,0,0,12,254.6,72.3)" />
<use xlink:href="#f0_1z" transform="matrix(12,0,0,12,267.5,72.3)" />
<use xlink:href="#f0_24" transform="matrix(12,0,0,12,275.5,72.3)" />
<use xlink:href="#f0_28" transform="matrix(12,0,0,12,284.7,72.3)" />
<use xlink:href="#f0_2b" transform="matrix(12,0,0,12,289.1,72.3)" />
<use xlink:href="#f0_2e" transform="matrix(12,0,0,12,298.6,72.3)" />
<use xlink:href="#f0_2b" transform="matrix(12,0,0,12,304.8,72.3)" />
<use xlink:href="#f0_2c" transform="matrix(12,0,0,12,314.3,72.3)" />
<use xlink:href="#f0_24" transform="matrix(12,0,0,12,323.5,72.3)" />
<use xlink:href="#f0_2l" transform="matrix(12,0,0,12,332.7,72.3)" />
<use xlink:href="#f0_28" transform="matrix(12,0,0,12,341.5,72.3)" />
<use xlink:href="#f0_28" transform="matrix(12,0,0,12,346.2,72.3)" />
<use xlink:href="#f0_1x" transform="matrix(12,0,0,12,355.8,72.3)" />
<use xlink:href="#f0_1x" transform="matrix(12,0,0,12,368.6,72.3)" />
<use xlink:href="#f0_2a" transform="matrix(12,0,0,12,377,72.3)" />
<use xlink:href="#f0_20" transform="matrix(12,0,0,12,385.8,72.3)" />
<use xlink:href="#f0_1y" transform="matrix(12,0,0,12,399.7,72.3)" />
<use xlink:href="#f0_i" transform="matrix(12,0,0,12,408.5,72.3)" />
<use xlink:href="#f0_1j" transform="matrix(12,0,0,12,55,108.6)" />
<use xlink:href="#f0_2g" transform="matrix(12,0,0,12,65.3,108.6)" />
<use xlink:href="#f0_2b" transform="matrix(12,0,0,12,70.4,108.6)" />
<use xlink:href="#f0_2e" transform="matrix(12,0,0,12,79.5,108.6)" />
<use xlink:href="#f0_21" transform="matrix(12,0,0,12,85.8,108.6)" />
<use xlink:href="#f0_22" transform="matrix(12,0,0,12,98.6,108.6)" />
<use xlink:href="#f0_2b" transform="matrix(12,0,0,12,104.1,108.6)" />
<use xlink:href="#f0_2b" transform="matrix(12,0,0,12,113.6,108.6)" />
<use xlink:href="#f0_20" transform="matrix(12,0,0,12,123.1,108.6)" />
<use xlink:href="#f0_25" transform="matrix(12,0,0,12,136.7,108.6)" />
<use xlink:href="#f0_2a" transform="matrix(12,0,0,12,141.5,108.6)" />
<use xlink:href="#f0_2g" transform="matrix(12,0,0,12,155,108.6)" />
<use xlink:href="#f0_24" transform="matrix(12,0,0,12,160.5,108.6)" />
<use xlink:href="#f0_21" transform="matrix(12,0,0,12,169.3,108.6)" />
<use xlink:href="#f0_22" transform="matrix(12,0,0,12,182.5,108.6)" />
<use xlink:href="#f0_2b" transform="matrix(12,0,0,12,188,108.6)" />
<use xlink:href="#f0_2e" transform="matrix(12,0,0,12,197.5,108.6)" />
<use xlink:href="#f0_29" transform="matrix(12,0,0,12,203.7,108.6)" />
<use xlink:href="#f0_2b" transform="matrix(12,0,0,12,222,108.6)" />
<use xlink:href="#f0_22" transform="matrix(12,0,0,12,231.5,108.6)" />
<use xlink:href="#f0_2f" transform="matrix(12,0,0,12,241.8,108.6)" />
<use xlink:href="#f0_2g" transform="matrix(12,0,0,12,248.7,108.6)" />
<use xlink:href="#f0_1x" transform="matrix(12,0,0,12,254.2,108.6)" />
<use xlink:href="#f0_2e" transform="matrix(12,0,0,12,262.3,108.6)" />
<use xlink:href="#f0_1z" transform="matrix(12,0,0,12,268.5,108.6)" />
<use xlink:href="#f0_24" transform="matrix(12,0,0,12,276.6,108.6)" />
<use xlink:href="#f0_1x" transform="matrix(12,0,0,12,290.1,108.6)" />
<use xlink:href="#f0_2a" transform="matrix(12,0,0,12,298.5,108.6)" />
<use xlink:href="#f0_20" transform="matrix(12,0,0,12,307.3,108.6)" />
<use xlink:href="#f0_2f" transform="matrix(12,0,0,12,321.3,108.6)" />
<use xlink:href="#f0_2b" transform="matrix(12,0,0,12,328.2,108.6)" />
<use xlink:href="#f0_29" transform="matrix(12,0,0,12,338.1,108.6)" />
<use xlink:href="#f0_21" transform="matrix(12,0,0,12,351.7,108.6)" />
<use xlink:href="#f0_2f" transform="matrix(12,0,0,12,365,108.6)" />
<use xlink:href="#f0_2g" transform="matrix(12,0,0,12,372,108.6)" />
<use xlink:href="#f0_2b" transform="matrix(12,0,0,12,377.4,108.6)" />
<use xlink:href="#f0_2e" transform="matrix(12,0,0,12,386.6,108.6)" />
<use xlink:href="#f0_21" transform="matrix(12,0,0,12,392.8,108.6)" />
<use xlink:href="#f0_25" transform="matrix(12,0,0,12,405.6,108.6)" />
<use xlink:href="#f0_2a" transform="matrix(12,0,0,12,410.4,108.6)" />
<use xlink:href="#f0_2g" transform="matrix(12,0,0,12,423.9,108.6)" />
<use xlink:href="#f0_24" transform="matrix(12,0,0,12,429,108.6)" />
<use xlink:href="#f0_21" transform="matrix(12,0,0,12,437.9,108.6)" />
<use xlink:href="#f0_22" transform="matrix(12,0,0,12,451.1,108.6)" />
<use xlink:href="#f0_2b" transform="matrix(12,0,0,12,456.6,108.6)" />
<use xlink:href="#f0_2e" transform="matrix(12,0,0,12,466.1,108.6)" />
<use xlink:href="#f0_29" transform="matrix(12,0,0,12,472.7,108.6)" />
<use xlink:href="#f0_2b" transform="matrix(12,0,0,12,491,108.6)" />
<use xlink:href="#f0_22" transform="matrix(12,0,0,12,500.5,108.6)" />
<use xlink:href="#f0_2b" transform="matrix(12,0,0,12,510.7,108.6)" />
<use xlink:href="#f0_25" transform="matrix(12,0,0,12,520.3,108.6)" />
<use xlink:href="#f0_28" transform="matrix(12,0,0,12,525,108.6)" />
<use xlink:href="#f0_20" transform="matrix(12,0,0,12,534.5,108.6)" />
<use xlink:href="#f0_2e" transform="matrix(12,0,0,12,543.7,108.6)" />
<use xlink:href="#f0_2b" transform="matrix(12,0,0,12,549.9,108.6)" />
<use xlink:href="#f0_2c" transform="matrix(12,0,0,12,559.4,108.6)" />
<use xlink:href="#f0_28" transform="matrix(12,0,0,12,568.6,108.6)" />
<use xlink:href="#f0_21" transform="matrix(12,0,0,12,573,108.6)" />
<use xlink:href="#f0_2g" transform="matrix(12,0,0,12,581.1,108.6)" />
<use xlink:href="#f0_2f" transform="matrix(12,0,0,12,586.5,108.6)" />
<use xlink:href="#f0_i" transform="matrix(12,0,0,12,593.5,108.6)" />
<use xlink:href="#f0_1g" transform="matrix(12,0,0,12,55,144.9)" />
<use xlink:href="#f0_2l" transform="matrix(12,0,0,12,65.7,144.9)" />
<use xlink:href="#f0_2e" transform="matrix(12,0,0,12,74.1,144.9)" />
<use xlink:href="#f0_21" transform="matrix(12,0,0,12,80.3,144.9)" />
<use xlink:href="#f0_2a" transform="matrix(12,0,0,12,88.7,144.9)" />
<use xlink:href="#f0_2b" transform="matrix(12,0,0,12,97.5,144.9)" />
<use xlink:href="#f0_25" transform="matrix(12,0,0,12,107.4,144.9)" />
<use xlink:href="#f0_20" transform="matrix(12,0,0,12,111.8,144.9)" />
<use xlink:href="#f0_2f" transform="matrix(12,0,0,12,121,144.9)" />
<use xlink:href="#f0_2j" transform="matrix(12,0,0,12,132.8,144.9)" />
<use xlink:href="#f0_24" transform="matrix(12,0,0,12,146.3,144.9)" />
<use xlink:href="#f0_25" transform="matrix(12,0,0,12,155.5,144.9)" />
<use xlink:href="#f0_1z" transform="matrix(12,0,0,12,160.3,144.9)" />
<use xlink:href="#f0_24" transform="matrix(12,0,0,12,168.7,144.9)" />
<use xlink:href="#f0_1x" transform="matrix(12,0,0,12,182.3,144.9)" />
<use xlink:href="#f0_2e" transform="matrix(12,0,0,12,190.4,144.9)" />
<use xlink:href="#f0_21" transform="matrix(12,0,0,12,196.6,144.9)" />
<use xlink:href="#f0_2g" transform="matrix(12,0,0,12,209.4,144.9)" />
<use xlink:href="#f0_24" transform="matrix(12,0,0,12,214.9,144.9)" />
<use xlink:href="#f0_21" transform="matrix(12,0,0,12,223.7,144.9)" />
<use xlink:href="#f0_2f" transform="matrix(12,0,0,12,236.5,144.9)" />
<use xlink:href="#f0_2g" transform="matrix(12,0,0,12,243.5,144.9)" />
<use xlink:href="#f0_2b" transform="matrix(12,0,0,12,248.6,144.9)" />
<use xlink:href="#f0_2e" transform="matrix(12,0,0,12,257.7,144.9)" />
<use xlink:href="#f0_1x" transform="matrix(12,0,0,12,264,144.9)" />
<use xlink:href="#f0_23" transform="matrix(12,0,0,12,272.1,144.9)" />
<use xlink:href="#f0_21" transform="matrix(12,0,0,12,281.2,144.9)" />
<use xlink:href="#f0_1y" transform="matrix(12,0,0,12,294,144.9)" />
<use xlink:href="#f0_2b" transform="matrix(12,0,0,12,302.8,144.9)" />
<use xlink:href="#f0_20" transform="matrix(12,0,0,12,312.3,144.9)" />
<use xlink:href="#f0_25" transform="matrix(12,0,0,12,321.5,144.9)" />
<use xlink:href="#f0_21" transform="matrix(12,0,0,12,325.9,144.9)" />
<use xlink:href="#f0_2f" transform="matrix(12,0,0,12,334.3,144.9)" />
<use xlink:href="#f0_1x" transform="matrix(12,0,0,12,346.3,144.9)" />
<use xlink:href="#f0_2e" transform="matrix(12,0,0,12,354.4,144.9)" />
<use xlink:href="#f0_21" transform="matrix(12,0,0,12,360.6,144.9)" />
<use xlink:href="#f0_2c" transform="matrix(12,0,0,12,373.4,144.9)" />
<use xlink:href="#f0_2e" transform="matrix(12,0,0,12,382.5,144.9)" />
<use xlink:href="#f0_21" transform="matrix(12,0,0,12,388.8,144.9)" />
<use xlink:href="#f0_2f" transform="matrix(12,0,0,12,396.8,144.9)" />
<use xlink:href="#f0_21" transform="matrix(12,0,0,12,403.8,144.9)" />
<use xlink:href="#f0_2a" transform="matrix(12,0,0,12,411.9,144.9)" />
<use xlink:href="#f0_2g" transform="matrix(12,0,0,12,420.7,144.9)" />
<use xlink:href="#f0_i" transform="matrix(12,0,0,12,426.1,144.9)" />
<use xlink:href="#f0_13" transform="matrix(12,0,0,12,55,181.2)" />
<use xlink:href="#f0_21" transform="matrix(12,0,0,12,67.1,181.2)" />
<use xlink:href="#f0_28" transform="matrix(12,0,0,12,75.6,181.2)" />
<use xlink:href="#f0_28" transform="matrix(12,0,0,12,80.3,181.2)" />
<use xlink:href="#f0_2j" transform="matrix(12,0,0,12,89.8,181.2)" />
<use xlink:href="#f0_1x" transform="matrix(12,0,0,12,103.1,181.2)" />
<use xlink:href="#f0_28" transform="matrix(12,0,0,12,111.4,181.2)" />
<use xlink:href="#f0_28" transform="matrix(12,0,0,12,116.5,181.2)" />
<use xlink:href="#f0_25" transform="matrix(12,0,0,12,126.1,181.2)" />
<use xlink:href="#f0_2f" transform="matrix(12,0,0,12,130.9,181.2)" />
<use xlink:href="#f0_29" transform="matrix(12,0,0,12,142.9,181.2)" />
<use xlink:href="#f0_1x" transform="matrix(12,0,0,12,156.9,181.2)" />
<use xlink:href="#f0_20" transform="matrix(12,0,0,12,164.9,181.2)" />
<use xlink:href="#f0_21" transform="matrix(12,0,0,12,174.1,181.2)" />
<use xlink:href="#f0_2h" transform="matrix(12,0,0,12,186.9,181.2)" />
<use xlink:href="#f0_2c" transform="matrix(12,0,0,12,196.1,181.2)" />
<use xlink:href="#f0_2b" transform="matrix(12,0,0,12,210,181.2)" />
<use xlink:href="#f0_22" transform="matrix(12,0,0,12,219.5,181.2)" />
<use xlink:href="#f0_1x" transform="matrix(12,0,0,12,229.8,181.2)" />
<use xlink:href="#f0_2a" transform="matrix(12,0,0,12,238.2,181.2)" />
<use xlink:href="#f0_25" transform="matrix(12,0,0,12,252.1,181.2)" />
<use xlink:href="#f0_2a" transform="matrix(12,0,0,12,256.9,181.2)" />
<use xlink:href="#f0_2a" transform="matrix(12,0,0,12,266,181.2)" />
<use xlink:href="#f0_21" transform="matrix(12,0,0,12,274.8,181.2)" />
<use xlink:href="#f0_2e" transform="matrix(12,0,0,12,282.9,181.2)" />
<use xlink:href="#f0_28" transform="matrix(12,0,0,12,294.5,181.2)" />
<use xlink:href="#f0_1x" transform="matrix(12,0,0,12,299.3,181.2)" />
<use xlink:href="#f0_2l" transform="matrix(12,0,0,12,307.7,181.2)" />
<use xlink:href="#f0_21" transform="matrix(12,0,0,12,316.5,181.2)" />
<use xlink:href="#f0_2e" transform="matrix(12,0,0,12,324.6,181.2)" />
<use xlink:href="#f0_2b" transform="matrix(12,0,0,12,335.6,181.2)" />
<use xlink:href="#f0_22" transform="matrix(12,0,0,12,345.1,181.2)" />
<use xlink:href="#f0_1z" transform="matrix(12,0,0,12,355.3,181.2)" />
<use xlink:href="#f0_21" transform="matrix(12,0,0,12,363.4,181.2)" />
<use xlink:href="#f0_28" transform="matrix(12,0,0,12,371.8,181.2)" />
<use xlink:href="#f0_28" transform="matrix(12,0,0,12,376.6,181.2)" />
<use xlink:href="#f0_2h" transform="matrix(12,0,0,12,381.3,181.2)" />
<use xlink:href="#f0_28" transform="matrix(12,0,0,12,390.8,181.2)" />
<use xlink:href="#f0_2b" transform="matrix(12,0,0,12,395.2,181.2)" />
<use xlink:href="#f0_2f" transform="matrix(12,0,0,12,405.1,181.2)" />
<use xlink:href="#f0_21" transform="matrix(12,0,0,12,412.1,181.2)" />
<use xlink:href="#f0_1x" transform="matrix(12,0,0,12,424.9,181.2)" />
<use xlink:href="#f0_2a" transform="matrix(12,0,0,12,433,181.2)" />
<use xlink:href="#f0_20" transform="matrix(12,0,0,12,441.8,181.2)" />
<use xlink:href="#f0_1x" transform="matrix(12,0,0,12,455.7,181.2)" />
<use xlink:href="#f0_2a" transform="matrix(12,0,0,12,464.1,181.2)" />
<use xlink:href="#f0_2b" transform="matrix(12,0,0,12,477.7,181.2)" />
<use xlink:href="#f0_2h" transform="matrix(12,0,0,12,487.2,181.2)" />
<use xlink:href="#f0_2g" transform="matrix(12,0,0,12,496,181.2)" />
<use xlink:href="#f0_21" transform="matrix(12,0,0,12,501.5,181.2)" />
<use xlink:href="#f0_2e" transform="matrix(12,0,0,12,509.5,181.2)" />
<use xlink:href="#f0_28" transform="matrix(12,0,0,12,520.5,181.2)" />
<use xlink:href="#f0_1x" transform="matrix(12,0,0,12,524.9,181.2)" />
<use xlink:href="#f0_2l" transform="matrix(12,0,0,12,533.3,181.2)" />
<use xlink:href="#f0_21" transform="matrix(12,0,0,12,542.1,181.2)" />
<use xlink:href="#f0_2e" transform="matrix(12,0,0,12,550.2,181.2)" />
<use xlink:href="#f0_2b" transform="matrix(12,0,0,12,561.1,181.2)" />
<use xlink:href="#f0_22" transform="matrix(12,0,0,12,570.6,181.2)" />
<use xlink:href="#f0_2c" transform="matrix(12,0,0,12,580.9,181.2)" />
<use xlink:href="#f0_21" transform="matrix(12,0,0,12,590.1,181.2)" />
<use xlink:href="#f0_1z" transform="matrix(12,0,0,12,598.1,181.2)" />
<use xlink:href="#f0_2g" transform="matrix(12,0,0,12,606.2,181.2)" />
<use xlink:href="#f0_2b" transform="matrix(12,0,0,12,611.3,181.2)" />
<use xlink:href="#f0_2f" transform="matrix(12,0,0,12,620.8,181.2)" />
<use xlink:href="#f0_21" transform="matrix(12,0,0,12,627.8,181.2)" />
<use xlink:href="#f0_i" transform="matrix(12,0,0,12,635.9,181.2)" />
<use xlink:href="#f0_1k" transform="matrix(12,0,0,12,55,217.9)" />
<use xlink:href="#f0_24" transform="matrix(12,0,0,12,66.4,217.9)" />
<use xlink:href="#f0_21" transform="matrix(12,0,0,12,75.2,217.9)" />
<use xlink:href="#f0_29" transform="matrix(12,0,0,12,88.4,217.9)" />
<use xlink:href="#f0_21" transform="matrix(12,0,0,12,101.9,217.9)" />
<use xlink:href="#f0_29" transform="matrix(12,0,0,12,110.3,217.9)" />
<use xlink:href="#f0_1y" transform="matrix(12,0,0,12,124.3,217.9)" />
<use xlink:href="#f0_21" transform="matrix(12,0,0,12,133.4,217.9)" />
<use xlink:href="#f0_2e" transform="matrix(12,0,0,12,141.5,217.9)" />
<use xlink:href="#f0_2f" transform="matrix(12,0,0,12,147.7,217.9)" />
<use xlink:href="#f0_2e" transform="matrix(12,0,0,12,159.4,217.9)" />
<use xlink:href="#f0_21" transform="matrix(12,0,0,12,165.7,217.9)" />
<use xlink:href="#f0_2c" transform="matrix(12,0,0,12,173.7,217.9)" />
<use xlink:href="#f0_2e" transform="matrix(12,0,0,12,182.9,217.9)" />
<use xlink:href="#f0_2b" transform="matrix(12,0,0,12,189.1,217.9)" />
<use xlink:href="#f0_20" transform="matrix(12,0,0,12,198.6,217.9)" />
<use xlink:href="#f0_2h" transform="matrix(12,0,0,12,207.8,217.9)" />
<use xlink:href="#f0_1z" transform="matrix(12,0,0,12,217,217.9)" />
<use xlink:href="#f0_21" transform="matrix(12,0,0,12,225,217.9)" />
<use xlink:href="#f1_3d" transform="matrix(12,0,0,12,82.5,255.3)" />
<use xlink:href="#f0_1m" transform="matrix(12,0,0,12,110,255.3)" />
<use xlink:href="#f0_21" transform="matrix(12,0,0,12,123.2,255.3)" />
<use xlink:href="#f0_23" transform="matrix(12,0,0,12,131.3,255.3)" />
<use xlink:href="#f0_21" transform="matrix(12,0,0,12,140.5,255.3)" />
<use xlink:href="#f0_2g" transform="matrix(12,0,0,12,148.5,255.3)" />
<use xlink:href="#f0_1x" transform="matrix(12,0,0,12,154,255.3)" />
<use xlink:href="#f0_2g" transform="matrix(12,0,0,12,161.7,255.3)" />
<use xlink:href="#f0_25" transform="matrix(12,0,0,12,167.2,255.3)" />
<use xlink:href="#f0_2i" transform="matrix(12,0,0,12,172,255.3)" />
<use xlink:href="#f0_21" transform="matrix(12,0,0,12,181.1,255.3)" />
<use xlink:href="#f0_28" transform="matrix(12,0,0,12,189.5,255.3)" />
<use xlink:href="#f0_2l" transform="matrix(12,0,0,12,194.3,255.3)" />
<use xlink:href="#f0_1y" transform="matrix(12,0,0,12,208.2,255.3)" />
<use xlink:href="#f0_2l" transform="matrix(12,0,0,12,217.4,255.3)" />
<use xlink:href="#f0_22" transform="matrix(12,0,0,12,230.9,255.3)" />
<use xlink:href="#f0_2e" transform="matrix(12,0,0,12,236.8,255.3)" />
<use xlink:href="#f0_1x" transform="matrix(12,0,0,12,243,255.3)" />
<use xlink:href="#f0_23" transform="matrix(12,0,0,12,251.1,255.3)" />
<use xlink:href="#f0_29" transform="matrix(12,0,0,12,260.6,255.3)" />
<use xlink:href="#f0_21" transform="matrix(12,0,0,12,274.5,255.3)" />
<use xlink:href="#f0_2a" transform="matrix(12,0,0,12,283,255.3)" />
<use xlink:href="#f0_2g" transform="matrix(12,0,0,12,291.8,255.3)" />
<use xlink:href="#f0_1x" transform="matrix(12,0,0,12,297.2,255.3)" />
<use xlink:href="#f0_2g" transform="matrix(12,0,0,12,305.3,255.3)" />
<use xlink:href="#f0_25" transform="matrix(12,0,0,12,310.8,255.3)" />
<use xlink:href="#f0_2b" transform="matrix(12,0,0,12,315.2,255.3)" />
<use xlink:href="#f0_2a" transform="matrix(12,0,0,12,324.7,255.3)" />
<use xlink:href="#f1_3d" transform="matrix(12,0,0,12,82.5,277.6)" />
<use xlink:href="#f0_11" transform="matrix(12,0,0,12,110,277.6)" />
<use xlink:href="#f0_2f" transform="matrix(12,0,0,12,123.3,277.6)" />
<use xlink:href="#f0_21" transform="matrix(12,0,0,12,130.2,277.6)" />
<use xlink:href="#f0_2k" transform="matrix(12,0,0,12,138.6,277.6)" />
<use xlink:href="#f0_2h" transform="matrix(12,0,0,12,147.4,277.6)" />
<use xlink:href="#f0_1x" transform="matrix(12,0,0,12,156.6,277.6)" />
<use xlink:href="#f0_28" transform="matrix(12,0,0,12,165,277.6)" />
<use xlink:href="#f0_28" transform="matrix(12,0,0,12,170.1,277.6)" />
<use xlink:href="#f0_2l" transform="matrix(12,0,0,12,175.3,277.6)" />
<use xlink:href="#f0_1y" transform="matrix(12,0,0,12,188.9,277.6)" />
<use xlink:href="#f0_2l" transform="matrix(12,0,0,12,198.1,277.6)" />
<use xlink:href="#f0_22" transform="matrix(12,0,0,12,212,277.6)" />
<use xlink:href="#f0_28" transform="matrix(12,0,0,12,217.8,277.6)" />
<use xlink:href="#f0_1x" transform="matrix(12,0,0,12,222.6,277.6)" />
<use xlink:href="#f0_23" transform="matrix(12,0,0,12,230.7,277.6)" />
<use xlink:href="#f0_21" transform="matrix(12,0,0,12,240.2,277.6)" />
<use xlink:href="#f0_28" transform="matrix(12,0,0,12,248.6,277.6)" />
<use xlink:href="#f0_28" transform="matrix(12,0,0,12,253.4,277.6)" />
<use xlink:href="#f0_1x" transform="matrix(12,0,0,12,258.1,277.6)" />
<use xlink:href="#f0_2g" transform="matrix(12,0,0,12,266.2,277.6)" />
<use xlink:href="#f0_21" transform="matrix(12,0,0,12,271.7,277.6)" />
<use xlink:href="#f0_20" transform="matrix(12,0,0,12,279.8,277.6)" />
<use xlink:href="#f0_2m" transform="matrix(12,0,0,12,293.7,277.6)" />
<use xlink:href="#f0_2b" transform="matrix(12,0,0,12,301.7,277.6)" />
<use xlink:href="#f0_2b" transform="matrix(12,0,0,12,310.9,277.6)" />
<use xlink:href="#f0_2f" transform="matrix(12,0,0,12,320.4,277.6)" />
<use xlink:href="#f0_2c" transform="matrix(12,0,0,12,327.4,277.6)" />
<use xlink:href="#f0_2b" transform="matrix(12,0,0,12,336.5,277.6)" />
<use xlink:href="#f0_2e" transform="matrix(12,0,0,12,345.7,277.6)" />
<use xlink:href="#f0_21" transform="matrix(12,0,0,12,351.9,277.6)" />
<use xlink:href="#f0_2f" transform="matrix(12,0,0,12,360,277.6)" />
<use xlink:href="#f1_3d" transform="matrix(12,0,0,12,82.5,300)" />
<use xlink:href="#f0_1j" transform="matrix(12,0,0,12,110,300)" />
<use xlink:href="#f0_21" transform="matrix(12,0,0,12,120.3,300)" />
<use xlink:href="#f0_2k" transform="matrix(12,0,0,12,128.4,300)" />
<use xlink:href="#f0_2h" transform="matrix(12,0,0,12,137.2,300)" />
<use xlink:href="#f0_1x" transform="matrix(12,0,0,12,146.3,300)" />
<use xlink:href="#f0_28" transform="matrix(12,0,0,12,154.8,300)" />
<use xlink:href="#f0_28" transform="matrix(12,0,0,12,159.8,300)" />
<use xlink:href="#f0_2l" transform="matrix(12,0,0,12,165,300)" />
<use xlink:href="#f0_1y" transform="matrix(12,0,0,12,178.5,300)" />
<use xlink:href="#f0_2l" transform="matrix(12,0,0,12,187.7,300)" />
<use xlink:href="#f0_25" transform="matrix(12,0,0,12,201.6,300)" />
<use xlink:href="#f0_2f" transform="matrix(12,0,0,12,206.4,300)" />
<use xlink:href="#f0_2b" transform="matrix(12,0,0,12,213.4,300)" />
<use xlink:href="#f0_23" transform="matrix(12,0,0,12,222.9,300)" />
<use xlink:href="#f0_1x" transform="matrix(12,0,0,12,232,300)" />
<use xlink:href="#f0_29" transform="matrix(12,0,0,12,240.5,300)" />
<use xlink:href="#f0_2l" transform="matrix(12,0,0,12,254.4,300)" />
<use xlink:href="#f0_g" transform="matrix(12,0,0,12,263.2,300)" />
<use xlink:href="#f0_1x" transform="matrix(12,0,0,12,272.9,300)" />
<use xlink:href="#f0_2a" transform="matrix(12,0,0,12,281.3,300)" />
<use xlink:href="#f0_25" transform="matrix(12,0,0,12,290.5,300)" />
<use xlink:href="#f0_2f" transform="matrix(12,0,0,12,295.3,300)" />
<use xlink:href="#f0_2b" transform="matrix(12,0,0,12,302.2,300)" />
<use xlink:href="#f0_23" transform="matrix(12,0,0,12,311.7,300)" />
<use xlink:href="#f0_1x" transform="matrix(12,0,0,12,320.9,300)" />
<use xlink:href="#f0_29" transform="matrix(12,0,0,12,329.3,300)" />
<use xlink:href="#f0_2l" transform="matrix(12,0,0,12,343.3,300)" />
<use xlink:href="#f0_1x" transform="matrix(12,0,0,12,356.8,300)" />
<use xlink:href="#f0_2a" transform="matrix(12,0,0,12,365.2,300)" />
<use xlink:href="#f0_20" transform="matrix(12,0,0,12,374,300)" />
<use xlink:href="#f0_2b" transform="matrix(12,0,0,12,387.9,300)" />
<use xlink:href="#f0_2b" transform="matrix(12,0,0,12,397.1,300)" />
<use xlink:href="#f0_23" transform="matrix(12,0,0,12,406.6,300)" />
<use xlink:href="#f0_1x" transform="matrix(12,0,0,12,415.8,300)" />
<use xlink:href="#f0_29" transform="matrix(12,0,0,12,423.8,300)" />
<use xlink:href="#f0_2l" transform="matrix(12,0,0,12,437.8,300)" />
<use xlink:href="#f0_i" transform="matrix(12,0,0,12,446.6,300)" />
<use xlink:href="#f0_13" transform="matrix(12,0,0,12,55,336.7)" />
<use xlink:href="#f0_2b" transform="matrix(12,0,0,12,67.1,336.7)" />
<use xlink:href="#f0_29" transform="matrix(12,0,0,12,76.7,336.7)" />
<use xlink:href="#f0_29" transform="matrix(12,0,0,12,90.6,336.7)" />
<use xlink:href="#f0_2b" transform="matrix(12,0,0,12,104.2,336.7)" />
<use xlink:href="#f0_2a" transform="matrix(12,0,0,12,114.1,336.7)" />
<use xlink:href="#f0_13" transform="matrix(12,0,0,12,127.6,336.7)" />
<use xlink:href="#f0_24" transform="matrix(12,0,0,12,140.1,336.7)" />
<use xlink:href="#f0_28" transform="matrix(12,0,0,12,149.3,336.7)" />
<use xlink:href="#f0_2b" transform="matrix(12,0,0,12,153.7,336.7)" />
<use xlink:href="#f0_2e" transform="matrix(12,0,0,12,163.2,336.7)" />
<use xlink:href="#f0_2b" transform="matrix(12,0,0,12,169.4,336.7)" />
<use xlink:href="#f0_2c" transform="matrix(12,0,0,12,178.9,336.7)" />
<use xlink:href="#f0_24" transform="matrix(12,0,0,12,188.1,336.7)" />
<use xlink:href="#f0_2l" transform="matrix(12,0,0,12,197.2,336.7)" />
<use xlink:href="#f0_1z" transform="matrix(12,0,0,12,206,336.7)" />
<use xlink:href="#f0_21" transform="matrix(12,0,0,12,214.1,336.7)" />
<use xlink:href="#f0_1x" transform="matrix(12,0,0,12,222.2,336.7)" />
<use xlink:href="#f0_2a" transform="matrix(12,0,0,12,230.6,336.7)" />
<use xlink:href="#f0_29" transform="matrix(12,0,0,12,244.5,336.7)" />
<use xlink:href="#f0_21" transform="matrix(12,0,0,12,258.4,336.7)" />
<use xlink:href="#f0_29" transform="matrix(12,0,0,12,266.9,336.7)" />
<use xlink:href="#f0_1y" transform="matrix(12,0,0,12,280.8,336.7)" />
<use xlink:href="#f0_21" transform="matrix(12,0,0,12,290,336.7)" />
<use xlink:href="#f0_2e" transform="matrix(12,0,0,12,298,336.7)" />
<use xlink:href="#f0_2f" transform="matrix(12,0,0,12,304.2,336.7)" />
<use xlink:href="#f0_1x" transform="matrix(12,0,0,12,316,336.7)" />
<use xlink:href="#f0_2e" transform="matrix(12,0,0,12,324,336.7)" />
<use xlink:href="#f0_21" transform="matrix(12,0,0,12,330.2,336.7)" />
<use xlink:href="#f2_13" transform="matrix(12,0,0,12,59.8,373)" />
<use xlink:href="#f2_24" transform="matrix(12,0,0,12,71.9,373)" />
<use xlink:href="#f2_28" transform="matrix(12,0,0,12,81.1,373)" />
<use xlink:href="#f2_1x" transform="matrix(12,0,0,12,86.2,373)" />
<use xlink:href="#f2_29" transform="matrix(12,0,0,12,95.3,373)" />
<use xlink:href="#f2_2l" transform="matrix(12,0,0,12,108.6,373)" />
<use xlink:href="#f2_20" transform="matrix(12,0,0,12,116.6,373)" />
<use xlink:href="#f2_2b" transform="matrix(12,0,0,12,125.8,373)" />
<use xlink:href="#f2_29" transform="matrix(12,0,0,12,135,373)" />
<use xlink:href="#f2_2b" transform="matrix(12,0,0,12,148.2,373)" />
<use xlink:href="#f2_2a" transform="matrix(12,0,0,12,157.4,373)" />
<use xlink:href="#f2_1x" transform="matrix(12,0,0,12,166.5,373)" />
<use xlink:href="#f2_2f" transform="matrix(12,0,0,12,175.7,373)" />
<use xlink:href="#f2_g" transform="matrix(12,0,0,12,182.6,373)" />
<use xlink:href="#f2_13" transform="matrix(12,0,0,12,192.1,373)" />
<use xlink:href="#f2_24" transform="matrix(12,0,0,12,204.2,373)" />
<use xlink:href="#f2_28" transform="matrix(12,0,0,12,213.4,373)" />
<use xlink:href="#f2_2b" transform="matrix(12,0,0,12,218.5,373)" />
<use xlink:href="#f2_2e" transform="matrix(12,0,0,12,227.7,373)" />
<use xlink:href="#f2_21" transform="matrix(12,0,0,12,234.7,373)" />
<use xlink:href="#f2_28" transform="matrix(12,0,0,12,242.7,373)" />
<use xlink:href="#f2_28" transform="matrix(12,0,0,12,247.8,373)" />
<use xlink:href="#f2_1x" transform="matrix(12,0,0,12,253,373)" />
<use xlink:href="#f2_g" transform="matrix(12,0,0,12,262.1,373)" />
<use xlink:href="#f2_1m" transform="matrix(12,0,0,12,271.6,373)" />
<use xlink:href="#f2_2b" transform="matrix(12,0,0,12,282.6,373)" />
<use xlink:href="#f2_28" transform="matrix(12,0,0,12,291.8,373)" />
<use xlink:href="#f2_2i" transform="matrix(12,0,0,12,296.9,373)" />
<use xlink:href="#f2_2b" transform="matrix(12,0,0,12,305,373)" />
<use xlink:href="#f2_2k" transform="matrix(12,0,0,12,314.2,373)" />
<use xlink:href="#f2_g" transform="matrix(12,0,0,12,322.2,373)" />
<use xlink:href="#f2_1l" transform="matrix(12,0,0,12,331.7,373)" />
<use xlink:href="#f2_28" transform="matrix(12,0,0,12,345,373)" />
<use xlink:href="#f2_2b" transform="matrix(12,0,0,12,350.1,373)" />
<use xlink:href="#f2_2g" transform="matrix(12,0,0,12,359.2,373)" />
<use xlink:href="#f2_24" transform="matrix(12,0,0,12,364.3,373)" />
<use xlink:href="#f2_2e" transform="matrix(12,0,0,12,373.8,373)" />
<use xlink:href="#f2_25" transform="matrix(12,0,0,12,380.8,373)" />
<use xlink:href="#f2_2k" transform="matrix(12,0,0,12,385.8,373)" />
<use xlink:href="#f2_g" transform="matrix(12,0,0,12,394,373)" />
<use xlink:href="#f2_1l" transform="matrix(12,0,0,12,403.1,373)" />
<use xlink:href="#f2_28" transform="matrix(12,0,0,12,416.3,373)" />
<use xlink:href="#f2_2i" transform="matrix(12,0,0,12,421.4,373)" />
<use xlink:href="#f2_1x" transform="matrix(12,0,0,12,429.6,373)" />
<use xlink:href="#f2_g" transform="matrix(12,0,0,12,438.7,373)" />
<use xlink:href="#f2_13" transform="matrix(12,0,0,12,448.3,373)" />
<use xlink:href="#f2_1x" transform="matrix(12,0,0,12,460.4,373)" />
<use xlink:href="#f2_2h" transform="matrix(12,0,0,12,469.5,373)" />
<use xlink:href="#f2_28" transform="matrix(12,0,0,12,478.7,373)" />
<use xlink:href="#f2_2e" transform="matrix(12,0,0,12,483.8,373)" />
<use xlink:href="#f2_21" transform="matrix(12,0,0,12,490.8,373)" />
<use xlink:href="#f2_2c" transform="matrix(12,0,0,12,498.9,373)" />
<use xlink:href="#f2_1x" transform="matrix(12,0,0,12,508,373)" />
<use xlink:href="#f2_g" transform="matrix(12,0,0,12,517.2,373)" />
<use xlink:href="#f2_13" transform="matrix(12,0,0,12,526.7,373)" />
<use xlink:href="#f2_24" transform="matrix(12,0,0,12,538.8,373)" />
<use xlink:href="#f2_1x" transform="matrix(12,0,0,12,547.9,373)" />
<use xlink:href="#f2_2e" transform="matrix(12,0,0,12,557.1,373)" />
<use xlink:href="#f2_1x" transform="matrix(12,0,0,12,564.1,373)" />
<use xlink:href="#f2_g" transform="matrix(12,0,0,12,573.2,373)" />
<use xlink:href="#f2_11" transform="matrix(12,0,0,12,582.5,373)" />
<use xlink:href="#f2_1z" transform="matrix(12,0,0,12,593.8,373)" />
<use xlink:href="#f2_21" transform="matrix(12,0,0,12,601.9,373)" />
<use xlink:href="#f2_2g" transform="matrix(12,0,0,12,610,373)" />
<use xlink:href="#f2_1x" transform="matrix(12,0,0,12,615.1,373)" />
<use xlink:href="#f2_1y" transform="matrix(12,0,0,12,624.2,373)" />
<use xlink:href="#f2_2h" transform="matrix(12,0,0,12,633.4,373)" />
<use xlink:href="#f2_28" transform="matrix(12,0,0,12,642.6,373)" />
<use xlink:href="#f2_1x" transform="matrix(12,0,0,12,647.7,373)" />
<use xlink:href="#f2_2e" transform="matrix(12,0,0,12,656.9,373)" />
<use xlink:href="#f2_25" transform="matrix(12,0,0,12,663.9,373)" />
<use xlink:href="#f2_1x" transform="matrix(12,0,0,12,669,373)" />
<use xlink:href="#f0_21" transform="matrix(12,0,0,12,683,373)" />
<use xlink:href="#f0_2g" transform="matrix(12,0,0,12,690.7,373)" />
<use xlink:href="#f0_1z" transform="matrix(12,0,0,12,696.2,373)" />
<use xlink:href="#f0_i" transform="matrix(12,0,0,12,704.2,373)" />
<use xlink:href="#f3_n" transform="matrix(12,0,0,12,55,409.3)" />
<use xlink:href="#f3_i" transform="matrix(12,0,0,12,64.2,409.3)" />
<use xlink:href="#f3_l" transform="matrix(12,0,0,12,69,409.3)" />
<use xlink:href="#f3_i" transform="matrix(12,0,0,12,78.1,409.3)" />
<use xlink:href="#f3_m" transform="matrix(12,0,0,12,82.9,409.3)" />
<use xlink:href="#f3_12" transform="matrix(12,0,0,12,96.5,409.3)" />
<use xlink:href="#f3_2e" transform="matrix(12,0,0,12,108.9,409.3)" />
<use xlink:href="#f3_2b" transform="matrix(12,0,0,12,116.6,409.3)" />
<use xlink:href="#f3_2j" transform="matrix(12,0,0,12,125.8,409.3)" />
<use xlink:href="#f3_2a" transform="matrix(12,0,0,12,139,409.3)" />
<use xlink:href="#f3_1x" transform="matrix(12,0,0,12,154,409.3)" />
<use xlink:href="#f3_28" transform="matrix(12,0,0,12,163.2,409.3)" />
<use xlink:href="#f3_23" transform="matrix(12,0,0,12,167.9,409.3)" />
<use xlink:href="#f3_1x" transform="matrix(12,0,0,12,177.1,409.3)" />
<use xlink:href="#f3_21" transform="matrix(12,0,0,12,186.3,409.3)" />
<use xlink:href="#f3_2b" transform="matrix(12,0,0,12,199.1,409.3)" />
<use xlink:href="#f3_2e" transform="matrix(12,0,0,12,208.2,409.3)" />
<use xlink:href="#f3_1g" transform="matrix(12,0,0,12,220.7,409.3)" />
<use xlink:href="#f3_24" transform="matrix(12,0,0,12,231.8,409.3)" />
<use xlink:href="#f3_1x" transform="matrix(12,0,0,12,242.1,409.3)" />
<use xlink:href="#f3_21" transform="matrix(12,0,0,12,251.2,409.3)" />
<use xlink:href="#f3_2b" transform="matrix(12,0,0,12,259.3,409.3)" />
<use xlink:href="#f3_2c" transform="matrix(12,0,0,12,268.5,409.3)" />
<use xlink:href="#f3_24" transform="matrix(12,0,0,12,278.7,409.3)" />
<use xlink:href="#f3_2l" transform="matrix(12,0,0,12,289,409.3)" />
<use xlink:href="#f3_1z" transform="matrix(12,0,0,12,298.1,409.3)" />
<use xlink:href="#f3_21" transform="matrix(12,0,0,12,306.2,409.3)" />
<use xlink:href="#f3_1x" transform="matrix(12,0,0,12,314.3,409.3)" />
<use xlink:href="#f3_21" transform="matrix(12,0,0,12,323.4,409.3)" />
<use xlink:href="#f3_u" transform="matrix(12,0,0,12,331.5,409.3)" />
<use xlink:href="#f0_1k" transform="matrix(12,0,0,12,55,656.2)" />
<use xlink:href="#f0_24" transform="matrix(12,0,0,12,66.4,656.2)" />
<use xlink:href="#f0_21" transform="matrix(12,0,0,12,75.2,656.2)" />
<use xlink:href="#f0_2l" transform="matrix(12,0,0,12,83.6,656.2)" />
<use xlink:href="#f0_1x" transform="matrix(12,0,0,12,96.8,656.2)" />
<use xlink:href="#f0_2e" transform="matrix(12,0,0,12,104.8,656.2)" />
<use xlink:href="#f0_21" transform="matrix(12,0,0,12,111.1,656.2)" />
<use xlink:href="#f0_29" transform="matrix(12,0,0,12,124.2,656.2)" />
<use xlink:href="#f0_1x" transform="matrix(12,0,0,12,138.2,656.2)" />
<use xlink:href="#f0_2e" transform="matrix(12,0,0,12,146.2,656.2)" />
<use xlink:href="#f0_25" transform="matrix(12,0,0,12,152.8,656.2)" />
<use xlink:href="#f0_2a" transform="matrix(12,0,0,12,157.6,656.2)" />
<use xlink:href="#f0_21" transform="matrix(12,0,0,12,166.8,656.2)" />
<use xlink:href="#f0_i" transform="matrix(12,0,0,12,175,656.2)" />
<use xlink:href="#f0_1j" transform="matrix(12,0,0,12,55,692.1)" />
<use xlink:href="#f0_25" transform="matrix(12,0,0,12,65.7,692.1)" />
<use xlink:href="#f0_29" transform="matrix(12,0,0,12,70.4,692.1)" />
<use xlink:href="#f0_2c" transform="matrix(12,0,0,12,84.4,692.1)" />
<use xlink:href="#f0_28" transform="matrix(12,0,0,12,93.9,692.1)" />
<use xlink:href="#f0_21" transform="matrix(12,0,0,12,98.6,692.1)" />
<use xlink:href="#f0_g" transform="matrix(12,0,0,12,106.7,692.1)" />
<use xlink:href="#f0_1y" transform="matrix(12,0,0,12,117.4,692.1)" />
<use xlink:href="#f0_2e" transform="matrix(12,0,0,12,126.2,692.1)" />
<use xlink:href="#f0_1x" transform="matrix(12,0,0,12,132.4,692.1)" />
<use xlink:href="#f0_2a" transform="matrix(12,0,0,12,140.8,692.1)" />
<use xlink:href="#f0_1z" transform="matrix(12,0,0,12,149.6,692.1)" />
<use xlink:href="#f0_24" transform="matrix(12,0,0,12,158,692.1)" />
<use xlink:href="#f0_21" transform="matrix(12,0,0,12,166.8,692.1)" />
<use xlink:href="#f0_20" transform="matrix(12,0,0,12,174.9,692.1)" />
<use xlink:href="#f0_1x" transform="matrix(12,0,0,12,189.9,692.1)" />
<use xlink:href="#f0_2a" transform="matrix(12,0,0,12,198.3,692.1)" />
<use xlink:href="#f0_20" transform="matrix(12,0,0,12,207.1,692.1)" />
<use xlink:href="#f0_22" transform="matrix(12,0,0,12,222.5,692.1)" />
<use xlink:href="#f0_25" transform="matrix(12,0,0,12,228.4,692.1)" />
<use xlink:href="#f0_28" transform="matrix(12,0,0,12,233.5,692.1)" />
<use xlink:href="#f0_1x" transform="matrix(12,0,0,12,238.3,692.1)" />
<use xlink:href="#f0_29" transform="matrix(12,0,0,12,246.7,692.1)" />
<use xlink:href="#f0_21" transform="matrix(12,0,0,12,260.6,692.1)" />
<use xlink:href="#f0_2a" transform="matrix(12,0,0,12,269,692.1)" />
<use xlink:href="#f0_2g" transform="matrix(12,0,0,12,277.8,692.1)" />
<use xlink:href="#f0_2b" transform="matrix(12,0,0,12,283.3,692.1)" />
<use xlink:href="#f0_2h" transform="matrix(12,0,0,12,292.8,692.1)" />
<use xlink:href="#f0_2f" transform="matrix(12,0,0,12,302,692.1)" />
<use xlink:href="#f0_1x" transform="matrix(12,0,0,12,314.8,692.1)" />
<use xlink:href="#f0_2f" transform="matrix(12,0,0,12,322.9,692.1)" />
<use xlink:href="#f0_25" transform="matrix(12,0,0,12,336.1,692.1)" />
<use xlink:href="#f0_2a" transform="matrix(12,0,0,12,340.5,692.1)" />
<use xlink:href="#f2_15" transform="matrix(12,0,0,12,355.5,692.1)" />
<use xlink:href="#f2_1z" transform="matrix(12,0,0,12,366.8,692.1)" />
<use xlink:href="#f2_2g" transform="matrix(12,0,0,12,374.9,692.1)" />
<use xlink:href="#f2_2b" transform="matrix(12,0,0,12,380,692.1)" />
<use xlink:href="#f2_1z" transform="matrix(12,0,0,12,389.1,692.1)" />
<use xlink:href="#f2_1x" transform="matrix(12,0,0,12,397.3,692.1)" />
<use xlink:href="#f2_2e" transform="matrix(12,0,0,12,406.4,692.1)" />
<use xlink:href="#f2_2c" transform="matrix(12,0,0,12,413.4,692.1)" />
<use xlink:href="#f2_2h" transform="matrix(12,0,0,12,422.9,692.1)" />
<use xlink:href="#f2_2f" transform="matrix(12,0,0,12,432,692.1)" />
<use xlink:href="#f0_g" transform="matrix(12,0,0,12,439.1,692.1)" />
<use xlink:href="#f0_2b" transform="matrix(12,0,0,12,449.7,692.1)" />
<use xlink:href="#f0_2e" transform="matrix(12,0,0,12,458.8,692.1)" />
<use xlink:href="#f0_22" transform="matrix(12,0,0,12,470.9,692.1)" />
<use xlink:href="#f0_28" transform="matrix(12,0,0,12,476.8,692.1)" />
<use xlink:href="#f0_1x" transform="matrix(12,0,0,12,481.5,692.1)" />
<use xlink:href="#f0_2g" transform="matrix(12,0,0,12,489.6,692.1)" />
<use xlink:href="#f0_2e" transform="matrix(12,0,0,12,500.9,692.1)" />
<use xlink:href="#f0_25" transform="matrix(12,0,0,12,507.2,692.1)" />
<use xlink:href="#f0_1y" transform="matrix(12,0,0,12,512.1,692.1)" />
<use xlink:href="#f0_1y" transform="matrix(12,0,0,12,521.2,692.1)" />
<use xlink:href="#f0_2b" transform="matrix(12,0,0,12,530,692.1)" />
<use xlink:href="#f0_2a" transform="matrix(12,0,0,12,539.5,692.1)" />
<use xlink:href="#f0_2f" transform="matrix(12,0,0,12,554.2,692.1)" />
<use xlink:href="#f0_24" transform="matrix(12,0,0,12,561.5,692.1)" />
<use xlink:href="#f0_1x" transform="matrix(12,0,0,12,570.3,692.1)" />
<use xlink:href="#f0_2c" transform="matrix(12,0,0,12,578.4,692.1)" />
<use xlink:href="#f0_21" transform="matrix(12,0,0,12,587.5,692.1)" />
<use xlink:href="#f0_20" transform="matrix(12,0,0,12,595.6,692.1)" />
<use xlink:href="#f0_25" transform="matrix(12,0,0,12,611,692.1)" />
<use xlink:href="#f0_2a" transform="matrix(12,0,0,12,615.7,692.1)" />
<use xlink:href="#f2_1j" transform="matrix(12,0,0,12,630.9,692.1)" />
<use xlink:href="#f2_1x" transform="matrix(12,0,0,12,640.1,692.1)" />
<use xlink:href="#f2_2e" transform="matrix(12,0,0,12,649.3,692.1)" />
<use xlink:href="#f2_23" transform="matrix(12,0,0,12,656.2,692.1)" />
<use xlink:href="#f2_1x" transform="matrix(12,0,0,12,665.4,692.1)" />
<use xlink:href="#f2_2f" transform="matrix(12,0,0,12,674.6,692.1)" />
<use xlink:href="#f2_2f" transform="matrix(12,0,0,12,681.9,692.1)" />
<use xlink:href="#f2_2h" transform="matrix(12,0,0,12,688.8,692.1)" />
<use xlink:href="#f2_29" transform="matrix(12,0,0,12,698,692.1)" />
<use xlink:href="#f2_g" transform="matrix(12,0,0,12,711.2,692.1)" />
<use xlink:href="#f2_1c" transform="matrix(12,0,0,12,721.8,692.1)" />
<use xlink:href="#f2_1x" transform="matrix(12,0,0,12,732.1,692.1)" />
<use xlink:href="#f2_29" transform="matrix(12,0,0,12,741.2,692.1)" />
<use xlink:href="#f2_25" transform="matrix(12,0,0,12,754.5,692.1)" />
<use xlink:href="#f2_2a" transform="matrix(12,0,0,12,759.6,692.1)" />
<use xlink:href="#f2_1x" transform="matrix(12,0,0,12,768.7,692.1)" />
<use xlink:href="#f2_2e" transform="matrix(12,0,0,12,777.9,692.1)" />
<use xlink:href="#f2_25" transform="matrix(12,0,0,12,784.9,692.1)" />
<use xlink:href="#f2_1x" transform="matrix(12,0,0,12,789.9,692.1)" />
<use xlink:href="#f2_g" transform="matrix(12,0,0,12,799.1,692.1)" />
<use xlink:href="#f2_16" transform="matrix(12,0,0,12,809.7,692.1)" />
<use xlink:href="#f2_2h" transform="matrix(12,0,0,12,820.7,692.1)" />
<use xlink:href="#f2_1z" transform="matrix(12,0,0,12,829.9,692.1)" />
<use xlink:href="#f2_2h" transform="matrix(12,0,0,12,838,692.1)" />
<use xlink:href="#f2_2f" transform="matrix(12,0,0,12,847.2,692.1)" />
<use xlink:href="#f0_21" transform="matrix(12,0,0,12,55,713.7)" />
<use xlink:href="#f0_2g" transform="matrix(12,0,0,12,63.1,713.7)" />
<use xlink:href="#f0_1z" transform="matrix(12,0,0,12,68.6,713.7)" />
<use xlink:href="#f0_i" transform="matrix(12,0,0,12,76.7,713.7)" />
<use xlink:href="#f0_1b" transform="matrix(12,0,0,12,55,749.7)" />
<use xlink:href="#f0_21" transform="matrix(12,0,0,12,67.9,749.7)" />
<use xlink:href="#f0_28" transform="matrix(12,0,0,12,76.3,749.7)" />
<use xlink:href="#f0_2c" transform="matrix(12,0,0,12,81.1,749.7)" />
<use xlink:href="#f0_2f" transform="matrix(12,0,0,12,90.6,749.7)" />
<use xlink:href="#f0_2j" transform="matrix(12,0,0,12,102.6,749.7)" />
<use xlink:href="#f0_24" transform="matrix(12,0,0,12,116.2,749.7)" />
<use xlink:href="#f0_25" transform="matrix(12,0,0,12,125.4,749.7)" />
<use xlink:href="#f0_1z" transform="matrix(12,0,0,12,130.1,749.7)" />
<use xlink:href="#f0_24" transform="matrix(12,0,0,12,138.5,749.7)" />
<use xlink:href="#f0_1x" transform="matrix(12,0,0,12,152.5,749.7)" />
<use xlink:href="#f0_2e" transform="matrix(12,0,0,12,160.5,749.7)" />
<use xlink:href="#f0_21" transform="matrix(12,0,0,12,166.7,749.7)" />
<use xlink:href="#f0_2g" transform="matrix(12,0,0,12,179.9,749.7)" />
<use xlink:href="#f0_24" transform="matrix(12,0,0,12,185.4,749.7)" />
<use xlink:href="#f0_21" transform="matrix(12,0,0,12,194.2,749.7)" />
<use xlink:href="#f0_23" transform="matrix(12,0,0,12,207.4,749.7)" />
<use xlink:href="#f0_25" transform="matrix(12,0,0,12,216.9,749.7)" />
<use xlink:href="#f0_1x" transform="matrix(12,0,0,12,221.3,749.7)" />
<use xlink:href="#f0_2a" transform="matrix(12,0,0,12,229.7,749.7)" />
<use xlink:href="#f0_2g" transform="matrix(12,0,0,12,238.5,749.7)" />
<use xlink:href="#f0_1y" transform="matrix(12,0,0,12,249.1,749.7)" />
<use xlink:href="#f0_2e" transform="matrix(12,0,0,12,257.9,749.7)" />
<use xlink:href="#f0_2b" transform="matrix(12,0,0,12,264.1,749.7)" />
<use xlink:href="#f0_2j" transform="matrix(12,0,0,12,273.6,749.7)" />
<use xlink:href="#f0_2a" transform="matrix(12,0,0,12,286.9,749.7)" />
<use xlink:href="#f0_1x" transform="matrix(12,0,0,12,300.8,749.7)" />
<use xlink:href="#f0_28" transform="matrix(12,0,0,12,309.6,749.7)" />
<use xlink:href="#f0_23" transform="matrix(12,0,0,12,314.3,749.7)" />
<use xlink:href="#f0_1x" transform="matrix(12,0,0,12,323.5,749.7)" />
<use xlink:href="#f0_21" transform="matrix(12,0,0,12,331.6,749.7)" />
<use xlink:href="#f0_1x" transform="matrix(12,0,0,12,344.8,749.7)" />
<use xlink:href="#f0_2e" transform="matrix(12,0,0,12,352.8,749.7)" />
<use xlink:href="#f0_21" transform="matrix(12,0,0,12,359,749.7)" />
<use xlink:href="#f0_2g" transform="matrix(12,0,0,12,372.2,749.7)" />
<use xlink:href="#f0_24" transform="matrix(12,0,0,12,377.7,749.7)" />
<use xlink:href="#f0_21" transform="matrix(12,0,0,12,386.5,749.7)" />
<use xlink:href="#f0_28" transform="matrix(12,0,0,12,400.2,749.7)" />
<use xlink:href="#f0_1x" transform="matrix(12,0,0,12,405,749.7)" />
<use xlink:href="#f0_2e" transform="matrix(12,0,0,12,413,749.7)" />
<use xlink:href="#f0_23" transform="matrix(12,0,0,12,419.2,749.7)" />
<use xlink:href="#f0_21" transform="matrix(12,0,0,12,428.4,749.7)" />
<use xlink:href="#f0_2f" transform="matrix(12,0,0,12,436.5,749.7)" />
<use xlink:href="#f0_2g" transform="matrix(12,0,0,12,443.4,749.7)" />
<use xlink:href="#f0_2f" transform="matrix(12,0,0,12,454,749.7)" />
<use xlink:href="#f0_21" transform="matrix(12,0,0,12,461,749.7)" />
<use xlink:href="#f0_1x" transform="matrix(12,0,0,12,469.1,749.7)" />
<use xlink:href="#f0_2c" transform="matrix(12,0,0,12,482.2,749.7)" />
<use xlink:href="#f0_28" transform="matrix(12,0,0,12,491.8,749.7)" />
<use xlink:href="#f0_1x" transform="matrix(12,0,0,12,496.2,749.7)" />
<use xlink:href="#f0_2a" transform="matrix(12,0,0,12,504.6,749.7)" />
<use xlink:href="#f0_2g" transform="matrix(12,0,0,12,513.4,749.7)" />
<use xlink:href="#f0_2f" transform="matrix(12,0,0,12,518.9,749.7)" />
<use xlink:href="#f0_g" transform="matrix(12,0,0,12,526,749.7)" />
<use xlink:href="#f0_2f" transform="matrix(12,0,0,12,535.9,749.7)" />
<use xlink:href="#f0_2b" transform="matrix(12,0,0,12,542.9,749.7)" />
<use xlink:href="#f0_29" transform="matrix(12,0,0,12,552.4,749.7)" />
<use xlink:href="#f0_21" transform="matrix(12,0,0,12,566,749.7)" />
<use xlink:href="#f0_1x" transform="matrix(12,0,0,12,579.1,749.7)" />
<use xlink:href="#f0_2e" transform="matrix(12,0,0,12,587.2,749.7)" />
<use xlink:href="#f0_21" transform="matrix(12,0,0,12,593.4,749.7)" />
<use xlink:href="#f0_22" transform="matrix(12,0,0,12,607,749.7)" />
<use xlink:href="#f0_2e" transform="matrix(12,0,0,12,612.5,749.7)" />
<use xlink:href="#f0_21" transform="matrix(12,0,0,12,619.1,749.7)" />
<use xlink:href="#f0_21" transform="matrix(12,0,0,12,627.1,749.7)" />
<use xlink:href="#f0_22" transform="matrix(12,0,0,12,640.7,749.7)" />
<use xlink:href="#f0_28" transform="matrix(12,0,0,12,646.5,749.7)" />
<use xlink:href="#f0_2b" transform="matrix(12,0,0,12,650.9,749.7)" />
<use xlink:href="#f0_1x" transform="matrix(12,0,0,12,660.5,749.7)" />
<use xlink:href="#f0_2g" transform="matrix(12,0,0,12,668.5,749.7)" />
<use xlink:href="#f0_25" transform="matrix(12,0,0,12,674.4,749.7)" />
<use xlink:href="#f0_2a" transform="matrix(12,0,0,12,679.1,749.7)" />
<use xlink:href="#f0_23" transform="matrix(12,0,0,12,687.9,749.7)" />
<use xlink:href="#f0_1x" transform="matrix(12,0,0,12,702.2,749.7)" />
<use xlink:href="#f0_2f" transform="matrix(12,0,0,12,710.6,749.7)" />
<use xlink:href="#f0_25" transform="matrix(12,0,0,12,723.1,749.7)" />
<use xlink:href="#f0_2a" transform="matrix(12,0,0,12,727.8,749.7)" />
<use xlink:href="#f2_1j" transform="matrix(12,0,0,12,742.1,749.7)" />
<use xlink:href="#f2_1x" transform="matrix(12,0,0,12,751.2,749.7)" />
<use xlink:href="#f2_2e" transform="matrix(12,0,0,12,760.7,749.7)" />
<use xlink:href="#f2_23" transform="matrix(12,0,0,12,767.7,749.7)" />
<use xlink:href="#f2_1x" transform="matrix(12,0,0,12,776.9,749.7)" />
<use xlink:href="#f2_2f" transform="matrix(12,0,0,12,786,749.7)" />
<use xlink:href="#f2_2f" transform="matrix(12,0,0,12,793,749.7)" />
<use xlink:href="#f2_2h" transform="matrix(12,0,0,12,800.3,749.7)" />
<use xlink:href="#f2_29" transform="matrix(12,0,0,12,809.5,749.7)" />
<use xlink:href="#f0_1x" transform="matrix(12,0,0,12,827.9,749.7)" />
<use xlink:href="#f0_2a" transform="matrix(12,0,0,12,836,749.7)" />
<use xlink:href="#f0_20" transform="matrix(12,0,0,12,845.1,749.7)" />
<use xlink:href="#f0_2f" transform="matrix(12,0,0,12,55,770.9)" />
<use xlink:href="#f0_2b" transform="matrix(12,0,0,12,62,770.9)" />
<use xlink:href="#f0_29" transform="matrix(12,0,0,12,71.5,770.9)" />
<use xlink:href="#f0_21" transform="matrix(12,0,0,12,85.5,770.9)" />
<use xlink:href="#f0_1x" transform="matrix(12,0,0,12,98.3,770.9)" />
<use xlink:href="#f0_2e" transform="matrix(12,0,0,12,106.3,770.9)" />
<use xlink:href="#f0_21" transform="matrix(12,0,0,12,112.5,770.9)" />
<use xlink:href="#f0_21" transform="matrix(12,0,0,12,125.4,770.9)" />
<use xlink:href="#f0_2c" transform="matrix(12,0,0,12,133.4,770.9)" />
<use xlink:href="#f0_25" transform="matrix(12,0,0,12,142.9,770.9)" />
<use xlink:href="#f0_2c" transform="matrix(12,0,0,12,147.3,770.9)" />
<use xlink:href="#f0_24" transform="matrix(12,0,0,12,156.9,770.9)" />
<use xlink:href="#f0_2l" transform="matrix(12,0,0,12,166,770.9)" />
<use xlink:href="#f0_2g" transform="matrix(12,0,0,12,174.5,770.9)" />
<use xlink:href="#f0_21" transform="matrix(12,0,0,12,179.9,770.9)" />
<use xlink:href="#f0_2f" transform="matrix(12,0,0,12,188,770.9)" />
<use xlink:href="#f0_2b" transform="matrix(12,0,0,12,199.7,770.9)" />
<use xlink:href="#f0_2a" transform="matrix(12,0,0,12,209.2,770.9)" />
<use xlink:href="#f0_2b" transform="matrix(12,0,0,12,222.8,770.9)" />
<use xlink:href="#f0_2g" transform="matrix(12,0,0,12,232.2,770.9)" />
<use xlink:href="#f0_24" transform="matrix(12,0,0,12,237.7,770.9)" />
<use xlink:href="#f0_21" transform="matrix(12,0,0,12,246.5,770.9)" />
<use xlink:href="#f0_2e" transform="matrix(12,0,0,12,254.5,770.9)" />
<use xlink:href="#f0_2c" transform="matrix(12,0,0,12,265.5,770.9)" />
<use xlink:href="#f0_28" transform="matrix(12,0,0,12,274.7,770.9)" />
<use xlink:href="#f0_1x" transform="matrix(12,0,0,12,279.1,770.9)" />
<use xlink:href="#f0_2a" transform="matrix(12,0,0,12,287.5,770.9)" />
<use xlink:href="#f0_2g" transform="matrix(12,0,0,12,296.3,770.9)" />
<use xlink:href="#f0_2f" transform="matrix(12,0,0,12,301.8,770.9)" />
<use xlink:href="#f0_28" transform="matrix(12,0,0,12,313.9,770.9)" />
<use xlink:href="#f0_25" transform="matrix(12,0,0,12,318.6,770.9)" />
<use xlink:href="#f0_27" transform="matrix(12,0,0,12,323.4,770.9)" />
<use xlink:href="#f0_21" transform="matrix(12,0,0,12,332.6,770.9)" />
<use xlink:href="#f2_15" transform="matrix(12,0,0,12,345.6,770.9)" />
<use xlink:href="#f2_1z" transform="matrix(12,0,0,12,356.9,770.9)" />
<use xlink:href="#f2_2g" transform="matrix(12,0,0,12,365,770.9)" />
<use xlink:href="#f2_2b" transform="matrix(12,0,0,12,370.1,770.9)" />
<use xlink:href="#f2_1z" transform="matrix(12,0,0,12,379.2,770.9)" />
<use xlink:href="#f2_1x" transform="matrix(12,0,0,12,387.4,770.9)" />
<use xlink:href="#f2_2e" transform="matrix(12,0,0,12,396.6,770.9)" />
<use xlink:href="#f2_2c" transform="matrix(12,0,0,12,403.5,770.9)" />
<use xlink:href="#f2_2h" transform="matrix(12,0,0,12,412.7,770.9)" />
<use xlink:href="#f2_2f" transform="matrix(12,0,0,12,421.8,770.9)" />
<use xlink:href="#f0_i" transform="matrix(12,0,0,12,429.2,770.9)" />
<use xlink:href="#f3_1g" transform="matrix(12,0,0,12,55,807.2)" />
<use xlink:href="#f3_28" transform="matrix(12,0,0,12,66,807.2)" />
<use xlink:href="#f3_1x" transform="matrix(12,0,0,12,70.8,807.2)" />
<use xlink:href="#f3_2a" transform="matrix(12,0,0,12,80,807.2)" />
<use xlink:href="#f3_2g" transform="matrix(12,0,0,12,90.2,807.2)" />
<use xlink:href="#f3_1y" transform="matrix(12,0,0,12,101.2,807.2)" />
<use xlink:href="#f3_2b" transform="matrix(12,0,0,12,111.4,807.2)" />
<use xlink:href="#f3_20" transform="matrix(12,0,0,12,120.6,807.2)" />
<use xlink:href="#f3_2l" transform="matrix(12,0,0,12,130.8,807.2)" />
<use xlink:href="#f3_24" transform="matrix(12,0,0,12,144.8,807.2)" />
<use xlink:href="#f3_1x" transform="matrix(12,0,0,12,155,807.2)" />
<use xlink:href="#f3_2f" transform="matrix(12,0,0,12,164.2,807.2)" />
<use xlink:href="#f3_2g" transform="matrix(12,0,0,12,175.9,807.2)" />
<use xlink:href="#f3_24" transform="matrix(12,0,0,12,182.1,807.2)" />
<use xlink:href="#f3_2e" transform="matrix(12,0,0,12,192.4,807.2)" />
<use xlink:href="#f3_21" transform="matrix(12,0,0,12,200.1,807.2)" />
<use xlink:href="#f3_21" transform="matrix(12,0,0,12,208.1,807.2)" />
<use xlink:href="#f3_2c" transform="matrix(12,0,0,12,220.9,807.2)" />
<use xlink:href="#f3_1x" transform="matrix(12,0,0,12,231.2,807.2)" />
<use xlink:href="#f3_2e" transform="matrix(12,0,0,12,240.6,807.2)" />
<use xlink:href="#f3_2g" transform="matrix(12,0,0,12,248.3,807.2)" />
<use xlink:href="#f3_2f" transform="matrix(12,0,0,12,254.6,807.2)" />
<use xlink:href="#f3_h" transform="matrix(12,0,0,12,261.5,807.2)" />
<use xlink:href="#f1_3d" transform="matrix(12,0,0,12,82.5,845)" />
<use xlink:href="#f3_22" transform="matrix(12,0,0,12,110,845)" />
<use xlink:href="#f3_25" transform="matrix(12,0,0,12,115.9,845)" />
<use xlink:href="#f3_2k" transform="matrix(12,0,0,12,121.4,845)" />
<use xlink:href="#f3_25" transform="matrix(12,0,0,12,130.2,845)" />
<use xlink:href="#f3_2a" transform="matrix(12,0,0,12,135.3,845)" />
<use xlink:href="#f3_23" transform="matrix(12,0,0,12,145.6,845)" />
<use xlink:href="#f3_2f" transform="matrix(12,0,0,12,159.5,845)" />
<use xlink:href="#f3_2g" transform="matrix(12,0,0,12,166.5,845)" />
<use xlink:href="#f3_2e" transform="matrix(12,0,0,12,172.7,845)" />
<use xlink:href="#f3_2h" transform="matrix(12,0,0,12,180.4,845)" />
<use xlink:href="#f3_1z" transform="matrix(12,0,0,12,190.6,845)" />
<use xlink:href="#f3_2g" transform="matrix(12,0,0,12,198.7,845)" />
<use xlink:href="#f3_2h" transform="matrix(12,0,0,12,204.9,845)" />
<use xlink:href="#f3_2e" transform="matrix(12,0,0,12,215.5,845)" />
<use xlink:href="#f3_21" transform="matrix(12,0,0,12,223.2,845)" />
<use xlink:href="#f3_2f" transform="matrix(12,0,0,12,231.3,845)" />
<use xlink:href="#f3_1z" transform="matrix(12,0,0,12,243,845)" />
<use xlink:href="#f3_1x" transform="matrix(12,0,0,12,251.1,845)" />
<use xlink:href="#f3_28" transform="matrix(12,0,0,12,260.6,845)" />
<use xlink:href="#f3_28" transform="matrix(12,0,0,12,265.7,845)" />
<use xlink:href="#f3_21" transform="matrix(12,0,0,12,270.5,845)" />
<use xlink:href="#f3_20" transform="matrix(12,0,0,12,278.6,845)" />
<use xlink:href="#f3_24" transform="matrix(12,0,0,12,293.6,845)" />
<use xlink:href="#f3_2b" transform="matrix(12,0,0,12,303.8,845)" />
<use xlink:href="#f3_28" transform="matrix(12,0,0,12,313,845)" />
<use xlink:href="#f3_20" transform="matrix(12,0,0,12,317.7,845)" />
<use xlink:href="#f3_22" transform="matrix(12,0,0,12,332.7,845)" />
<use xlink:href="#f3_1x" transform="matrix(12,0,0,12,338.6,845)" />
<use xlink:href="#f3_2f" transform="matrix(12,0,0,12,347.8,845)" />
<use xlink:href="#f3_2g" transform="matrix(12,0,0,12,354.7,845)" />
<use xlink:href="#f1_3d" transform="matrix(12,0,0,12,82.5,867.4)" />
<use xlink:href="#f3_2f" transform="matrix(12,0,0,12,110,867.4)" />
<use xlink:href="#f3_2g" transform="matrix(12,0,0,12,117,867.4)" />
<use xlink:href="#f3_1x" transform="matrix(12,0,0,12,123.2,867.4)" />
<use xlink:href="#f3_28" transform="matrix(12,0,0,12,132.4,867.4)" />
<use xlink:href="#f3_27" transform="matrix(12,0,0,12,137.5,867.4)" />
<use xlink:href="#f3_28" transform="matrix(12,0,0,12,152.2,867.4)" />
<use xlink:href="#f3_25" transform="matrix(12,0,0,12,156.9,867.4)" />
<use xlink:href="#f3_27" transform="matrix(12,0,0,12,162.4,867.4)" />
<use xlink:href="#f3_21" transform="matrix(12,0,0,12,172.3,867.4)" />
<use xlink:href="#f3_2f" transform="matrix(12,0,0,12,185.2,867.4)" />
<use xlink:href="#f3_2g" transform="matrix(12,0,0,12,192.2,867.4)" />
<use xlink:href="#f3_2e" transform="matrix(12,0,0,12,198.8,867.4)" />
<use xlink:href="#f3_2h" transform="matrix(12,0,0,12,206.5,867.4)" />
<use xlink:href="#f3_1z" transform="matrix(12,0,0,12,216.7,867.4)" />
<use xlink:href="#f3_2g" transform="matrix(12,0,0,12,224.8,867.4)" />
<use xlink:href="#f3_2h" transform="matrix(12,0,0,12,231,867.4)" />
<use xlink:href="#f3_2e" transform="matrix(12,0,0,12,241.3,867.4)" />
<use xlink:href="#f3_21" transform="matrix(12,0,0,12,249.3,867.4)" />
<use xlink:href="#f3_1z" transform="matrix(12,0,0,12,262.2,867.4)" />
<use xlink:href="#f3_1x" transform="matrix(12,0,0,12,270.2,867.4)" />
<use xlink:href="#f3_28" transform="matrix(12,0,0,12,279.4,867.4)" />
<use xlink:href="#f3_28" transform="matrix(12,0,0,12,284.5,867.4)" />
<use xlink:href="#f3_21" transform="matrix(12,0,0,12,289.3,867.4)" />
<use xlink:href="#f3_20" transform="matrix(12,0,0,12,297.4,867.4)" />
<use xlink:href="#f3_2f" transform="matrix(12,0,0,12,312.3,867.4)" />
<use xlink:href="#f3_2g" transform="matrix(12,0,0,12,319.3,867.4)" />
<use xlink:href="#f3_25" transform="matrix(12,0,0,12,325.5,867.4)" />
<use xlink:href="#f3_2c" transform="matrix(12,0,0,12,330.6,867.4)" />
<use xlink:href="#f3_21" transform="matrix(12,0,0,12,340.9,867.4)" />
<use xlink:href="#f1_3d" transform="matrix(12,0,0,12,82.5,889.8)" />
<use xlink:href="#f3_28" transform="matrix(12,0,0,12,110,889.8)" />
<use xlink:href="#f3_21" transform="matrix(12,0,0,12,114.8,889.8)" />
<use xlink:href="#f3_1x" transform="matrix(12,0,0,12,122.9,889.8)" />
<use xlink:href="#f3_22" transform="matrix(12,0,0,12,132.4,889.8)" />
<use xlink:href="#f3_28" transform="matrix(12,0,0,12,143,889.8)" />
<use xlink:href="#f3_25" transform="matrix(12,0,0,12,147.8,889.8)" />
<use xlink:href="#f3_27" transform="matrix(12,0,0,12,153.2,889.8)" />
<use xlink:href="#f3_21" transform="matrix(12,0,0,12,163.1,889.8)" />
<use xlink:href="#f3_2f" transform="matrix(12,0,0,12,176,889.8)" />
<use xlink:href="#f3_2g" transform="matrix(12,0,0,12,182.9,889.8)" />
<use xlink:href="#f3_2e" transform="matrix(12,0,0,12,189.5,889.8)" />
<use xlink:href="#f3_2h" transform="matrix(12,0,0,12,197.2,889.8)" />
<use xlink:href="#f3_1z" transform="matrix(12,0,0,12,207.5,889.8)" />
<use xlink:href="#f3_2g" transform="matrix(12,0,0,12,215.5,889.8)" />
<use xlink:href="#f3_2h" transform="matrix(12,0,0,12,221.7,889.8)" />
<use xlink:href="#f3_2e" transform="matrix(12,0,0,12,232,889.8)" />
<use xlink:href="#f3_21" transform="matrix(12,0,0,12,240.1,889.8)" />
<use xlink:href="#f3_1z" transform="matrix(12,0,0,12,252.9,889.8)" />
<use xlink:href="#f3_1x" transform="matrix(12,0,0,12,260.9,889.8)" />
<use xlink:href="#f3_28" transform="matrix(12,0,0,12,270.1,889.8)" />
<use xlink:href="#f3_28" transform="matrix(12,0,0,12,275.2,889.8)" />
<use xlink:href="#f3_21" transform="matrix(12,0,0,12,280,889.8)" />
<use xlink:href="#f3_20" transform="matrix(12,0,0,12,288.1,889.8)" />
<use xlink:href="#f3_22" transform="matrix(12,0,0,12,303.1,889.8)" />
<use xlink:href="#f3_2e" transform="matrix(12,0,0,12,309.3,889.8)" />
<use xlink:href="#f3_2b" transform="matrix(12,0,0,12,317,889.8)" />
<use xlink:href="#f3_2a" transform="matrix(12,0,0,12,326.2,889.8)" />
<use xlink:href="#f3_20" transform="matrix(12,0,0,12,336.4,889.8)" />
<use xlink:href="#f3_i" transform="matrix(12,0,0,12,346.6,889.8)" />
<use xlink:href="#f0_1g" transform="matrix(12,0,0,12,55,1190.9)" />
<use xlink:href="#f0_25" transform="matrix(12,0,0,12,65.7,1190.9)" />
<use xlink:href="#f0_23" transform="matrix(12,0,0,12,70.1,1190.9)" />
<use xlink:href="#f0_29" transform="matrix(12,0,0,12,79.6,1190.9)" />
<use xlink:href="#f0_21" transform="matrix(12,0,0,12,93.5,1190.9)" />
<use xlink:href="#f0_2a" transform="matrix(12,0,0,12,101.9,1190.9)" />
<use xlink:href="#f0_2g" transform="matrix(12,0,0,12,110.7,1190.9)" />
<use xlink:href="#f0_2f" transform="matrix(12,0,0,12,116.3,1190.9)" />
<use xlink:href="#f0_1x" transform="matrix(12,0,0,12,128,1190.9)" />
<use xlink:href="#f0_2e" transform="matrix(12,0,0,12,136.1,1190.9)" />
<use xlink:href="#f0_21" transform="matrix(12,0,0,12,142.3,1190.9)" />
<use xlink:href="#f0_1z" transform="matrix(12,0,0,12,155.1,1190.9)" />
<use xlink:href="#f0_24" transform="matrix(12,0,0,12,163.1,1190.9)" />
<use xlink:href="#f0_28" transform="matrix(12,0,0,12,172.3,1190.9)" />
<use xlink:href="#f0_2b" transform="matrix(12,0,0,12,176.7,1190.9)" />
<use xlink:href="#f0_2e" transform="matrix(12,0,0,12,186.2,1190.9)" />
<use xlink:href="#f0_2b" transform="matrix(12,0,0,12,192.4,1190.9)" />
<use xlink:href="#f0_2c" transform="matrix(12,0,0,12,202,1190.9)" />
<use xlink:href="#f0_24" transform="matrix(12,0,0,12,211.1,1190.9)" />
<use xlink:href="#f0_2l" transform="matrix(12,0,0,12,220.3,1190.9)" />
<use xlink:href="#f0_28" transform="matrix(12,0,0,12,229.1,1190.9)" />
<use xlink:href="#f0_28" transform="matrix(12,0,0,12,234.2,1190.9)" />
<use xlink:href="#f0_1x" transform="matrix(12,0,0,12,243.6,1190.9)" />
<use xlink:href="#f0_g" transform="matrix(12,0,0,12,251.6,1190.9)" />
<use xlink:href="#f0_1z" transform="matrix(12,0,0,12,261.2,1190.9)" />
<use xlink:href="#f0_g" transform="matrix(12,0,0,12,269.2,1190.9)" />
<use xlink:href="#f0_1z" transform="matrix(12,0,0,12,278.7,1190.9)" />
<use xlink:href="#f0_1x" transform="matrix(12,0,0,12,286.8,1190.9)" />
<use xlink:href="#f0_2e" transform="matrix(12,0,0,12,294.9,1190.9)" />
<use xlink:href="#f0_2b" transform="matrix(12,0,0,12,300.7,1190.9)" />
<use xlink:href="#f0_2g" transform="matrix(12,0,0,12,309.9,1190.9)" />
<use xlink:href="#f0_21" transform="matrix(12,0,0,12,315.4,1190.9)" />
<use xlink:href="#f0_2a" transform="matrix(12,0,0,12,323.5,1190.9)" />
<use xlink:href="#f0_2b" transform="matrix(12,0,0,12,332.3,1190.9)" />
<use xlink:href="#f0_25" transform="matrix(12,0,0,12,341.8,1190.9)" />
<use xlink:href="#f0_20" transform="matrix(12,0,0,12,346.2,1190.9)" />
<use xlink:href="#f0_2f" transform="matrix(12,0,0,12,355.7,1190.9)" />
<use xlink:href="#f0_1x" transform="matrix(12,0,0,12,367.4,1190.9)" />
<use xlink:href="#f0_2a" transform="matrix(12,0,0,12,375.8,1190.9)" />
<use xlink:href="#f0_20" transform="matrix(12,0,0,12,384.6,1190.9)" />
<use xlink:href="#f0_2k" transform="matrix(12,0,0,12,398.5,1190.9)" />
<use xlink:href="#f0_1x" transform="matrix(12,0,0,12,407.3,1190.9)" />
<use xlink:href="#f0_2a" transform="matrix(12,0,0,12,415.7,1190.9)" />
<use xlink:href="#f0_2g" transform="matrix(12,0,0,12,424.5,1190.9)" />
<use xlink:href="#f0_24" transform="matrix(12,0,0,12,430,1190.9)" />
<use xlink:href="#f0_2b" transform="matrix(12,0,0,12,438.8,1190.9)" />
<use xlink:href="#f0_2c" transform="matrix(12,0,0,12,448.3,1190.9)" />
<use xlink:href="#f0_24" transform="matrix(12,0,0,12,457.5,1190.9)" />
<use xlink:href="#f0_2l" transform="matrix(12,0,0,12,466.7,1190.9)" />
<use xlink:href="#f0_28" transform="matrix(12,0,0,12,475.8,1190.9)" />
<use xlink:href="#f0_28" transform="matrix(12,0,0,12,480.9,1190.9)" />
<use xlink:href="#f0_2f" transform="matrix(12,0,0,12,485.7,1190.9)" />
<use xlink:href="#f0_i" transform="matrix(12,0,0,12,492.7,1190.9)" />
<use xlink:href="#f0_16" transform="matrix(12,0,0,12,55,1227.2)" />
<use xlink:href="#f0_2b" transform="matrix(12,0,0,12,64.9,1227.2)" />
<use xlink:href="#f0_2b" transform="matrix(12,0,0,12,74.5,1227.2)" />
<use xlink:href="#f0_20" transform="matrix(12,0,0,12,84,1227.2)" />
<use xlink:href="#f0_25" transform="matrix(12,0,0,12,97.5,1227.2)" />
<use xlink:href="#f0_2f" transform="matrix(12,0,0,12,102.3,1227.2)" />
<use xlink:href="#f0_2f" transform="matrix(12,0,0,12,114,1227.2)" />
<use xlink:href="#f0_2g" transform="matrix(12,0,0,12,121,1227.2)" />
<use xlink:href="#f0_2b" transform="matrix(12,0,0,12,126.1,1227.2)" />
<use xlink:href="#f0_2e" transform="matrix(12,0,0,12,135.6,1227.2)" />
<use xlink:href="#f0_21" transform="matrix(12,0,0,12,141.8,1227.2)" />
<use xlink:href="#f0_20" transform="matrix(12,0,0,12,149.9,1227.2)" />
<use xlink:href="#f0_25" transform="matrix(12,0,0,12,163.8,1227.2)" />
<use xlink:href="#f0_2a" transform="matrix(12,0,0,12,168.6,1227.2)" />
<use xlink:href="#f0_2g" transform="matrix(12,0,0,12,182.1,1227.2)" />
<use xlink:href="#f0_24" transform="matrix(12,0,0,12,187.6,1227.2)" />
<use xlink:href="#f0_21" transform="matrix(12,0,0,12,196.4,1227.2)" />
<use xlink:href="#f0_22" transform="matrix(12,0,0,12,209.2,1227.2)" />
<use xlink:href="#f0_2b" transform="matrix(12,0,0,12,214.7,1227.2)" />
<use xlink:href="#f0_2e" transform="matrix(12,0,0,12,224.2,1227.2)" />
<use xlink:href="#f0_29" transform="matrix(12,0,0,12,230.8,1227.2)" />
<use xlink:href="#f0_2b" transform="matrix(12,0,0,12,249.1,1227.2)" />
<use xlink:href="#f0_22" transform="matrix(12,0,0,12,258.6,1227.2)" />
<use xlink:href="#f3_28" transform="matrix(12,0,0,12,269.2,1227.2)" />
<use xlink:href="#f3_1x" transform="matrix(12,0,0,12,274,1227.2)" />
<use xlink:href="#f3_29" transform="matrix(12,0,0,12,283.5,1227.2)" />
<use xlink:href="#f3_25" transform="matrix(12,0,0,12,298.6,1227.2)" />
<use xlink:href="#f3_2a" transform="matrix(12,0,0,12,303.7,1227.2)" />
<use xlink:href="#f3_1x" transform="matrix(12,0,0,12,313.9,1227.2)" />
<use xlink:href="#f3_2e" transform="matrix(12,0,0,12,323.5,1227.2)" />
<use xlink:href="#f3_25" transform="matrix(12,0,0,12,331.2,1227.2)" />
<use xlink:href="#f3_2a" transform="matrix(12,0,0,12,336.2,1227.2)" />
<use xlink:href="#f3_1x" transform="matrix(12,0,0,12,351.3,1227.2)" />
<use xlink:href="#f3_2a" transform="matrix(12,0,0,12,360.4,1227.2)" />
<use xlink:href="#f3_20" transform="matrix(12,0,0,12,370.7,1227.2)" />
<use xlink:href="#f3_29" transform="matrix(12,0,0,12,385.7,1227.2)" />
<use xlink:href="#f3_1x" transform="matrix(12,0,0,12,400.7,1227.2)" />
<use xlink:href="#f3_2a" transform="matrix(12,0,0,12,409.9,1227.2)" />
<use xlink:href="#f3_2a" transform="matrix(12,0,0,12,420.1,1227.2)" />
<use xlink:href="#f3_25" transform="matrix(12,0,0,12,430.4,1227.2)" />
<use xlink:href="#f3_2g" transform="matrix(12,0,0,12,435.5,1227.2)" />
<use xlink:href="#f3_2b" transform="matrix(12,0,0,12,441.7,1227.2)" />
<use xlink:href="#f3_28" transform="matrix(12,0,0,12,450.9,1227.2)" />
<use xlink:href="#f0_2j" transform="matrix(12,0,0,12,460.7,1227.2)" />
<use xlink:href="#f0_24" transform="matrix(12,0,0,12,474,1227.2)" />
<use xlink:href="#f0_25" transform="matrix(12,0,0,12,483.1,1227.2)" />
<use xlink:href="#f0_1z" transform="matrix(12,0,0,12,487.9,1227.2)" />
<use xlink:href="#f0_24" transform="matrix(12,0,0,12,496.3,1227.2)" />
<use xlink:href="#f0_1x" transform="matrix(12,0,0,12,509.8,1227.2)" />
<use xlink:href="#f0_2e" transform="matrix(12,0,0,12,517.9,1227.2)" />
<use xlink:href="#f0_21" transform="matrix(12,0,0,12,524.1,1227.2)" />
<use xlink:href="#f0_1z" transform="matrix(12,0,0,12,536.9,1227.2)" />
<use xlink:href="#f0_2b" transform="matrix(12,0,0,12,545,1227.2)" />
<use xlink:href="#f0_29" transform="matrix(12,0,0,12,554.5,1227.2)" />
<use xlink:href="#f0_2c" transform="matrix(12,0,0,12,568.1,1227.2)" />
<use xlink:href="#f0_28" transform="matrix(12,0,0,12,577.6,1227.2)" />
<use xlink:href="#f0_21" transform="matrix(12,0,0,12,582.3,1227.2)" />
<use xlink:href="#f0_2k" transform="matrix(12,0,0,12,590.8,1227.2)" />
<use xlink:href="#f0_1z" transform="matrix(12,0,0,12,604.3,1227.2)" />
<use xlink:href="#f0_1x" transform="matrix(12,0,0,12,612.4,1227.2)" />
<use xlink:href="#f0_2e" transform="matrix(12,0,0,12,620.4,1227.2)" />
<use xlink:href="#f0_1y" transform="matrix(12,0,0,12,627,1227.2)" />
<use xlink:href="#f0_2b" transform="matrix(12,0,0,12,635.8,1227.2)" />
<use xlink:href="#f0_24" transform="matrix(12,0,0,12,645.3,1227.2)" />
<use xlink:href="#f0_2l" transform="matrix(12,0,0,12,654.5,1227.2)" />
<use xlink:href="#f0_20" transform="matrix(12,0,0,12,663.3,1227.2)" />
<use xlink:href="#f0_2e" transform="matrix(12,0,0,12,672.5,1227.2)" />
<use xlink:href="#f0_1x" transform="matrix(12,0,0,12,678.7,1227.2)" />
<use xlink:href="#f0_2g" transform="matrix(12,0,0,12,686.7,1227.2)" />
<use xlink:href="#f0_21" transform="matrix(12,0,0,12,692.2,1227.2)" />
<use xlink:href="#f0_2f" transform="matrix(12,0,0,12,700.3,1227.2)" />
<use xlink:href="#f0_i" transform="matrix(12,0,0,12,707.3,1227.2)" />
</g>
<image preserveAspectRatio="none" x="57" y="428" width="341" height="195" xlink:href="img/1.png" />
<image preserveAspectRatio="none" x="112" y="894" width="506" height="264" xlink:href="img/2.png" />
<g fill="#000000" >
<use xlink:href="#f4_q" transform="matrix(8,0,0,8,792.5,1264.1)" />
</g>
<defs>
<path d="M394,460c0,0,126,0,186,57c0,0,60,57,60,187c0,0,0,123,-57,176c0,0,-58,53,-194,53H316V460ZM54,0V40L172,60V941L44,960v40H421c0,0,368,0,368,-295c0,0,0,-153,-93,-233c0,0,-93,-80,-267,-80H316V60L475,40V0Z" 
id="f0_1g"
transform="scale(0.001,-0.001)" />

<path d="M442,0V33l93,19V504c0,0,0,129,-124,129c0,0,-70,0,-168,-22V52L338,33V0H31V33l88,19v956L15,1026v34H243V756c0,0,0,-77,-5,-112c0,0,54,31,122,53c0,0,68,23,115,23c0,0,91,0,137,-53c0,0,47,-53,47,-154V52L744,33V0Z" 
id="f0_24"
transform="scale(0.001,-0.001)" />

<path d="M377,45c0,0,99,0,147,73c0,0,47,73,47,237c0,0,0,161,-47,233c0,0,-47,72,-147,72c0,0,-97,0,-141,-69c0,0,-44,-69,-44,-236c0,0,0,-169,45,-240c0,0,44,-70,140,-70Zm0,-59c0,0,-158,0,-238,94c0,0,-81,95,-81,274c0,0,0,178,81,272c0,0,80,94,244,94c0,0,160,0,241,-92c0,0,82,-92,82,-274c0,0,0,-368,-329,-368Z" 
id="f0_2b"
transform="scale(0.001,-0.001)" />

<path d="M249,-14c0,0,-71,0,-107,42c0,0,-35,42,-35,119V639H15v33l93,29l76,159h47V701H391V639H231V161c0,0,0,-48,22,-73c0,0,22,-24,57,-24c0,0,44,0,106,12V26C416,26,389,8,340,-2c0,0,-49,-12,-91,-12Z" 
id="f0_2g"
transform="scale(0.001,-0.001)" />

<path d="M278,-14c0,0,-52,0,-115,11c0,0,-63,10,-99,23V193H98L134,95c0,0,56,-50,146,-50c0,0,144,0,144,123c0,0,0,91,-114,130l-66,21c0,0,-75,25,-110,50c0,0,-34,26,-53,63c0,0,-18,36,-18,89c0,0,0,92,63,145c0,0,63,54,170,54c0,0,77,0,193,-23V544H454l-32,81c0,0,-39,35,-124,35c0,0,-61,0,-92,-30c0,0,-32,-30,-32,-80c0,0,0,-43,29,-72c0,0,28,-29,86,-48c0,0,110,-38,144,-55c0,0,33,-17,57,-42c0,0,23,-25,36,-57c0,0,13,-32,13,-79c0,0,0,-104,-66,-158c0,0,-66,-53,-195,-53Z" 
id="f0_2f"
transform="scale(0.001,-0.001)" />

<path d="M148,-329c0,0,-58,0,-114,13v151H69l24,-71c0,0,23,-17,64,-17c0,0,39,0,72,22c0,0,33,23,60,67c0,0,27,44,68,157L90,649L19,668v33H344V668L233,648L423,158L606,649L497,668v33H758V668L685,652L411,-43c0,0,-48,-124,-84,-177c0,0,-36,-54,-79,-82c0,0,-44,-27,-100,-27Z" 
id="f0_2l"
transform="scale(0.001,-0.001)" />

<path d="M439,0V33l93,19V500c0,0,0,62,-30,97c0,0,-31,36,-94,36c0,0,-67,0,-165,-22V52L338,33V0H35V33l84,19V649L35,668v33H235l7,-57c0,0,57,33,122,54c0,0,65,22,108,22c0,0,91,0,137,-53c0,0,47,-53,47,-154V52L741,33V0Z" 
id="f0_2a"
transform="scale(0.001,-0.001)" />

<path d="M495,413c0,0,0,133,-34,190c0,0,-34,57,-105,57c0,0,-78,0,-119,-63c0,0,-42,-62,-42,-184ZM374,-14c0,0,-163,0,-239,87c0,0,-75,88,-75,283c0,0,0,183,77,273c0,0,76,91,219,91c0,0,269,0,269,-306V353H194V340c0,0,0,-103,23,-160c0,0,22,-57,70,-87c0,0,47,-29,124,-29c0,0,40,0,96,6c0,0,55,7,91,15V43C598,43,562,20,500,3c0,0,-61,-17,-126,-17Z" 
id="f0_21"
transform="scale(0.001,-0.001)" />

<path d="M32,0V33L151,52V649L52,668v33H275V52L395,33V0ZM201,850c0,0,-32,0,-56,24c0,0,-24,24,-24,56c0,0,0,34,24,58c0,0,24,24,56,24c0,0,34,0,58,-24c0,0,24,-24,24,-58c0,0,0,-32,-24,-56c0,0,-24,-24,-58,-24Z" 
id="f0_25"
transform="scale(0.001,-0.001)" />

<path d="M399,-14c0,0,-341,0,-341,370c0,0,0,175,87,269c0,0,87,95,249,95c0,0,101,0,220,-23V501H573L541,625c0,0,-62,35,-149,35c0,0,-200,0,-200,-304c0,0,0,-158,61,-225c0,0,61,-67,189,-67c0,0,109,0,189,24V43C631,43,595,16,530,1c0,0,-64,-15,-131,-15Z" 
id="f0_1z"
transform="scale(0.001,-0.001)" />

<path d="M382,45c0,0,188,0,188,314c0,0,0,143,-47,213c0,0,-46,69,-141,69c0,0,-87,0,-146,-24V58c0,0,67,-13,146,-13ZM25,-325v35l88,18V649L34,668v33H231l1,-41c0,0,31,27,84,43c0,0,53,17,107,17c0,0,134,0,208,-94c0,0,73,-93,73,-267c0,0,0,-178,-80,-276c0,0,-80,-97,-232,-97c0,0,-84,0,-160,16c0,0,4,-53,4,-84V-272l123,-18v-35Z" 
id="f0_2c"
transform="scale(0.001,-0.001)" />

<path d="M359,-270c0,0,124,0,192,46c0,0,67,47,67,129c0,0,0,43,-26,67c0,0,-26,24,-79,24H242c0,0,-32,-27,-51,-69c0,0,-20,-41,-20,-77c0,0,0,-64,46,-92c0,0,46,-28,142,-28Zm11,561c0,0,81,0,115,47c0,0,34,47,34,141c0,0,0,100,-35,142c0,0,-35,42,-113,42c0,0,-78,0,-114,-43c0,0,-37,-42,-37,-141c0,0,0,-98,36,-143c0,0,36,-45,114,-45ZM359,-329c0,0,-143,0,-218,44c0,0,-75,43,-75,125c0,0,0,39,27,78c0,0,26,38,98,89c0,0,-43,14,-72,48c0,0,-29,35,-29,74L208,262c0,0,-118,55,-118,217c0,0,0,115,73,178c0,0,73,63,211,63c0,0,28,0,71,-6c0,0,44,-6,67,-13l165,83l26,-32L599,644c0,0,50,-56,50,-165c0,0,0,-120,-72,-182c0,0,-73,-62,-208,-62c0,0,-62,0,-114,11L208,148c0,0,2,-13,29,-24c0,0,27,-12,67,-12H512c0,0,113,0,168,-49c0,0,55,-49,55,-134c0,0,0,-79,-44,-137c0,0,-43,-58,-128,-90c0,0,-84,-31,-204,-31Z" 
id="f0_23"
transform="scale(0.001,-0.001)" />

<path d="M431,0V33L535,52V499c0,0,0,62,-32,96c0,0,-32,33,-95,33c0,0,-66,0,-163,-22V52L350,33V0H32V33l89,19V649L32,668v33H237l6,-57c0,0,56,32,119,54c0,0,62,22,110,22c0,0,52,0,95,-20c0,0,44,-19,66,-62c0,0,57,32,134,57c0,0,77,25,128,25c0,0,179,0,179,-207V52l90,-19V0H846V33L950,52V499c0,0,0,129,-119,129c0,0,-19,0,-45,-3c0,0,-26,-3,-52,-7c0,0,-25,-4,-49,-8c0,0,-23,-5,-39,-8c0,0,13,-41,13,-89V52L764,33V0Z" 
id="f0_29"
transform="scale(0.001,-0.001)" />

<path d="M284,67c0,0,51,0,88,12c0,0,37,12,74,30V358l-98,-3c0,0,-100,-4,-135,-39c0,0,-35,-35,-35,-117c0,0,0,-132,106,-132ZM233,-14c0,0,-179,0,-179,208c0,0,0,70,27,116c0,0,27,46,87,70c0,0,60,24,173,27l105,3V519c0,0,0,72,-26,107c0,0,-27,34,-82,34c0,0,-75,0,-137,-35L176,538H134V691c0,0,121,26,213,26c0,0,115,0,169,-47c0,0,54,-47,54,-144V52L657,33V0H465L451,70c0,0,-85,-84,-218,-84Z" 
id="f0_1x"
transform="scale(0.001,-0.001)" />

<path d="M31,0V33l88,19V649L31,668v33H235l7,-87c0,0,44,37,121,71c0,0,76,35,121,35h11V530H463l-43,82c0,0,-37,0,-88,-10c0,0,-52,-10,-89,-26V52L363,33V0Z" 
id="f0_2e"
transform="scale(0.001,-0.001)" />

<path d="M31,0V33L150,52v956L31,1026v34H274V52L394,33V0Z" 
id="f0_28"
transform="scale(0.001,-0.001)" />

<path d="M383,64c0,0,85,0,152,28V645c0,0,-67,13,-152,13c0,0,-194,0,-194,-314c0,0,0,-141,48,-211c0,0,48,-69,146,-69ZM342,-14c0,0,-287,0,-287,358c0,0,0,184,82,280c0,0,81,96,239,96c0,0,81,0,163,-18c0,0,-4,25,-4,124v182l-118,18v34H659V52L745,33V0H548l-9,52c0,0,-84,-66,-197,-66Z" 
id="f0_20"
transform="scale(0.001,-0.001)" />

<path d="M376,50c0,0,103,0,149,80c0,0,46,81,46,240c0,0,0,137,-47,204c0,0,-48,67,-148,67c0,0,-44,0,-87,-7c0,0,-44,-8,-63,-17V62c0,0,63,-12,150,-12Zm3,-64c0,0,-64,0,-141,14c0,0,-78,14,-136,37v971L0,1026v34H226V809c0,0,0,-40,-4,-148c0,0,74,59,188,59c0,0,143,0,219,-87c0,0,77,-87,77,-263c0,0,0,-189,-84,-287c0,0,-84,-97,-243,-97Z" 
id="f0_1y"
transform="scale(0.001,-0.001)" />

<path d="M191,-20c0,0,-39,0,-65,25c0,0,-25,27,-25,64c0,0,0,38,26,64c0,0,26,26,64,26c0,0,38,0,64,-26c0,0,26,-26,26,-64c0,0,0,-37,-25,-64c0,0,-26,-25,-65,-25Z" 
id="f0_i"
transform="scale(0.001,-0.001)" />

<path d="M410,-14c0,0,-80,0,-162,14c0,0,-81,14,-144,38V270h48L178,134c0,0,28,-35,95,-62c0,0,68,-27,134,-27c0,0,104,0,163,53c0,0,58,54,58,148c0,0,0,54,-23,89c0,0,-22,35,-59,59c0,0,-37,24,-84,41c0,0,-47,17,-97,34c0,0,-49,17,-96,38c0,0,-47,21,-84,53c0,0,-37,32,-60,79c0,0,-23,48,-23,117c0,0,0,119,90,187c0,0,89,68,248,68c0,0,121,0,263,-32V771H654L628,893c0,0,-76,55,-188,55c0,0,-100,0,-156,-40c0,0,-56,-41,-56,-112c0,0,0,-49,22,-81c0,0,23,-32,60,-55c0,0,37,-22,84,-39c0,0,48,-16,97,-34c0,0,50,-17,97,-39c0,0,48,-22,85,-56c0,0,36,-34,59,-83c0,0,23,-49,23,-120c0,0,0,-145,-89,-224c0,0,-89,-79,-256,-79Z" 
id="f0_1j"
transform="scale(0.001,-0.001)" />

<path d="M64,0V34L168,59V639H47v36l121,29v49c0,0,0,155,61,239c0,0,62,84,173,84c0,0,58,0,107,-15V908H472l-33,92c0,0,-26,16,-62,16c0,0,-47,0,-66,-42c0,0,-19,-42,-19,-157V701H478V639H292V59L443,34V0Z" 
id="f0_22"
transform="scale(0.001,-0.001)" />

<path d="M327,-14L84,649L1,668v33H335V668L219,648L385,174L554,632h63L786,171L944,649L830,668v33h267V668l-78,-16L784,-14H726L553,448L382,-14Z" 
id="f0_2j"
transform="scale(0.001,-0.001)" />

<path d="M577,-14c0,0,-243,0,-379,132C198,118,63,250,63,488c0,0,0,258,130,391c0,0,131,132,387,132c0,0,156,0,335,-38l5,-218H871L848,884c0,0,-52,32,-121,50c0,0,-69,17,-141,17c0,0,-191,0,-279,-112c0,0,-88,-113,-88,-349c0,0,0,-217,92,-332c0,0,92,-115,268,-115c0,0,85,0,160,20c0,0,76,21,120,55l27,149h49L930,32c0,0,-164,-46,-353,-46Z" 
id="f0_13"
transform="scale(0.001,-0.001)" />

<path d="M289,-14c0,0,-179,0,-179,205V649L20,668v33H233V200c0,0,0,-128,120,-128c0,0,92,0,173,23V649L420,668v33H649V52L738,33V0H533l-6,57C527,57,474,28,405,7c0,0,-69,-21,-116,-21Z" 
id="f0_2h"
transform="scale(0.001,-0.001)" />

<path d="M235,0V40L394,60V936H356c0,0,-189,0,-258,-15L78,766H28v234H908V766H857L837,921c0,0,-22,5,-98,9c0,0,-75,4,-165,4H538V60L697,40V0Z" 
id="f0_1k"
transform="scale(0.001,-0.001)" />

<path d="M273,157c0,0,-114,0,-193,80C80,237,0,317,0,431c0,0,0,112,80,192c0,0,79,80,193,80c0,0,113,0,192,-80c0,0,80,-80,80,-192c0,0,0,-114,-80,-194c0,0,-79,-80,-192,-80Z" 
id="f1_3d"
transform="scale(0.001,-0.001)" />

<path d="M536,-22L130,941L17,960v40H421V960L287,941L590,205L892,941L761,960v40h325V960L976,941L574,-22Z" 
id="f0_1m"
transform="scale(0.001,-0.001)" />

<path d="M360,-14L72,649L0,668v33H327V668L216,648L420,164L615,649L504,668v33H764V668L697,652L416,-14Z" 
id="f0_2i"
transform="scale(0.001,-0.001)" />

<path d="M681,416L504,902L333,416ZM669,0V40L803,60L704,348H310L210,60L344,40V0H15V40L128,60l341,949H611L965,60L1092,40V0Z" 
id="f0_11"
transform="scale(0.001,-0.001)" />

<path d="M13,0V34L95,46L325,350L122,649L40,668v33H357V668L264,648L399,446L554,649l-96,19v33H710V668L630,652L433,397L663,50L745,34V0H427V34l94,17L359,299L169,50L266,34V0Z" 
id="f0_2k"
transform="scale(0.001,-0.001)" />

<path d="M41,0V34L426,641H261c0,0,-42,0,-80,-7c0,0,-39,-7,-54,-19L104,515H69V701H586V665L201,60H407c0,0,42,0,89,10c0,0,47,10,66,25l39,147h35L617,0Z" 
id="f0_2m"
transform="scale(0.001,-0.001)" />

<path d="M58,-234v58c0,0,131,42,131,125c0,0,0,15,-11,27c0,0,-11,12,-38,25C140,1,89,27,89,75c0,0,0,40,25,61c0,0,26,21,65,21c0,0,48,0,77,-34c0,0,30,-34,30,-86c0,0,0,-101,-60,-170c0,0,-59,-69,-168,-101Z" 
id="f0_g"
transform="scale(0.001,-0.001)" />

<path d="M521,-14c0,0,-205,0,-320,107C201,93,85,200,85,390c0,0,0,185,77,326c0,0,77,142,220,219c0,0,142,76,324,76c0,0,158,0,327,-38L1000,755H951V884c0,0,-46,32,-112,50c0,0,-65,17,-137,17c0,0,-135,0,-242,-72c0,0,-107,-72,-166,-203c0,0,-60,-132,-60,-301c0,0,0,-160,78,-244c0,0,78,-84,222,-84c0,0,85,0,166,25c0,0,82,26,133,65l53,149h49L889,52C889,52,803,20,705,3c0,0,-99,-17,-184,-17Z" 
id="f2_13"
transform="scale(0.001,-0.001)" />

<path d="M55,0L232,1008l-88,18l6,34H365L286,615L274,558c0,0,59,79,128,120c0,0,68,42,134,42c0,0,75,0,113,-41c0,0,38,-41,38,-117c0,0,0,-10,-3,-32c0,0,-3,-21,-81,-478L700,34L695,0H470l76,434c0,0,17,94,17,123c0,0,0,34,-18,55c0,0,-18,21,-56,21c0,0,-56,0,-121,-47c0,0,-65,-47,-107,-114L178,0Z" 
id="f2_24"
transform="scale(0.001,-0.001)" />

<path d="M81,0L258,1008l-96,18l6,34H391L214,52L331,33L325,0Z" 
id="f2_28"
transform="scale(0.001,-0.001)" />

<path d="M301,78c0,0,85,0,185,104l81,442c0,0,-29,20,-55,28c0,0,-25,8,-62,8c0,0,-75,0,-137,-56c0,0,-62,-56,-98,-152c0,0,-36,-95,-36,-199c0,0,0,-79,33,-127c0,0,33,-48,89,-48ZM245,-14c0,0,-90,0,-145,66c0,0,-54,66,-54,182c0,0,0,131,57,244c0,0,57,114,152,178c0,0,96,64,208,64c0,0,90,0,170,-33l33,26h40L589,52L673,33L667,0H454l22,117C476,117,350,-14,245,-14Z" 
id="f2_1x"
transform="scale(0.001,-0.001)" />

<path d="M55,0L169,649L81,668l6,33H295L274,557c0,0,52,73,117,118c0,0,65,45,122,45c0,0,66,0,102,-42c0,0,36,-41,36,-121c0,0,51,72,115,117c0,0,64,46,123,46c0,0,63,0,99,-40c0,0,36,-40,36,-116c0,0,0,-16,-3,-42c0,0,-3,-27,-80,-470l98,-19L1032,0H808l77,434c0,0,17,90,17,124c0,0,0,34,-16,54c0,0,-15,21,-49,21c0,0,-33,0,-78,-32c0,0,-46,-31,-83,-80c0,0,-37,-49,-44,-91L558,0H434l76,434c0,0,19,98,19,124c0,0,0,34,-17,54c0,0,-16,21,-51,21c0,0,-33,0,-81,-34c0,0,-47,-33,-84,-80c0,0,-36,-48,-43,-89L179,0Z" 
id="f2_29"
transform="scale(0.001,-0.001)" />

<path d="M-15,-329c0,0,-61,0,-112,13l28,152h34l12,-72c0,0,18,-17,60,-17c0,0,100,0,212,202L253,9L116,649L33,668l6,33H230L338,155L513,458c0,0,48,83,48,144c0,0,0,27,-16,44c0,0,-15,16,-33,22l6,33H659c0,0,20,-17,20,-47c0,0,0,-59,-62,-164L322,-7c0,0,-86,-145,-135,-205c0,0,-50,-61,-98,-89c0,0,-49,-28,-104,-28Z" 
id="f2_2l"
transform="scale(0.001,-0.001)" />

<path d="M301,78c0,0,41,0,90,27c0,0,49,28,95,77l81,442c0,0,-26,18,-54,27c0,0,-27,10,-67,10c0,0,-70,0,-131,-55c0,0,-61,-55,-99,-152c0,0,-37,-97,-37,-201c0,0,0,-79,33,-127c0,0,33,-48,89,-48ZM245,-14c0,0,-91,0,-145,68c0,0,-54,69,-54,183c0,0,0,128,55,240c0,0,55,112,150,177c0,0,96,66,210,66c0,0,70,0,123,-18c0,0,3,36,51,306l-115,18l6,34H768L589,52L673,33L667,0H454l22,117C476,117,350,-14,245,-14Z" 
id="f2_20"
transform="scale(0.001,-0.001)" />

<path d="M325,47c0,0,68,0,130,54c0,0,61,55,97,149c0,0,36,94,36,202c0,0,0,103,-39,156c0,0,-39,53,-113,53c0,0,-67,0,-128,-54c0,0,-61,-55,-96,-149c0,0,-35,-94,-35,-204c0,0,0,-101,39,-154c0,0,39,-53,109,-53Zm-6,-61c0,0,-124,0,-199,79c0,0,-74,79,-74,214c0,0,0,120,51,222c0,0,51,102,143,160c0,0,91,59,205,59c0,0,124,0,199,-80c0,0,74,-79,74,-214c0,0,0,-120,-51,-222C667,204,615,102,524,43c0,0,-91,-57,-205,-57Z" 
id="f2_2b"
transform="scale(0.001,-0.001)" />

<path d="M54,0L169,649L81,668l6,33H294L274,558c0,0,62,81,130,121c0,0,67,41,132,41c0,0,75,0,113,-41c0,0,38,-41,38,-117c0,0,0,-10,-3,-32c0,0,-3,-21,-81,-478L700,34L695,0H470l76,434c0,0,17,94,17,123c0,0,0,34,-18,55c0,0,-18,21,-56,21c0,0,-56,0,-121,-47c0,0,-65,-47,-108,-117L178,0Z" 
id="f2_2a"
transform="scale(0.001,-0.001)" />

<path d="M228,-14c0,0,-103,0,-209,46L49,200H83L95,99c0,0,20,-21,55,-38c0,0,36,-16,81,-16c0,0,163,0,163,133c0,0,0,44,-35,78c0,0,-34,34,-113,72c0,0,-75,37,-112,81c0,0,-36,45,-36,104c0,0,0,99,66,153c0,0,67,54,184,54c0,0,85,0,200,-26L521,538H486l-11,80c0,0,-47,42,-124,42c0,0,-61,0,-97,-28c0,0,-37,-28,-37,-87c0,0,0,-40,31,-71c0,0,32,-30,119,-75c0,0,78,-40,113,-86c0,0,36,-47,36,-107c0,0,0,-113,-71,-167c0,0,-72,-53,-217,-53Z" 
id="f2_2f"
transform="scale(0.001,-0.001)" />

<path d="M51,-233v58c0,0,138,44,138,125c0,0,0,21,-14,31c0,0,-15,11,-32,21c0,0,-18,10,-32,26c0,0,-15,16,-15,48c0,0,0,40,26,61c0,0,25,21,64,21c0,0,46,0,73,-33c0,0,27,-34,27,-93c0,0,0,-96,-62,-164c0,0,-62,-69,-173,-101Z" 
id="f2_g"
transform="scale(0.001,-0.001)" />

<path d="M62,0L176,649L88,668l6,33H301L278,543c0,0,55,84,124,130c0,0,69,47,138,47c0,0,37,0,59,-6L566,530H534l-28,95c0,0,-60,0,-124,-46c0,0,-63,-45,-116,-120L186,0Z" 
id="f2_2e"
transform="scale(0.001,-0.001)" />

<path d="M188,355c0,0,148,11,236,69c0,0,89,58,89,143c0,0,0,41,-23,68c0,0,-22,27,-66,27c0,0,-52,0,-101,-43c0,0,-49,-42,-85,-114c0,0,-36,-71,-50,-150ZM298,-14c0,0,-120,0,-186,67c0,0,-65,67,-65,193c0,0,0,125,53,232c0,0,52,108,145,175c0,0,94,67,196,67c0,0,92,0,147,-42c0,0,56,-43,56,-111c0,0,0,-102,-126,-173c0,0,-125,-72,-336,-86l-3,-54c0,0,0,-95,40,-143c0,0,40,-47,118,-47c0,0,67,0,124,22c0,0,57,23,106,52l22,-32c0,0,-69,-58,-146,-89c0,0,-76,-31,-145,-31Z" 
id="f2_21"
transform="scale(0.001,-0.001)" />

<path d="M395,-22L175,941L80,960l7,40H455l-7,-40L322,941L484,211L885,941L771,960l9,40h300l-7,-40L975,941L433,-22Z" 
id="f2_1m"
transform="scale(0.001,-0.001)" />

<path d="M246,-14L105,649L21,668l7,33H219L327,155L512,458c0,0,48,78,48,144c0,0,0,28,-15,44c0,0,-16,16,-34,22l6,33H659c0,0,19,-17,19,-47c0,0,0,-66,-62,-164L301,-14Z" 
id="f2_2i"
transform="scale(0.001,-0.001)" />

<path d="M-6,0c0,0,-12,10,-12,32c0,0,0,21,23,51c0,0,23,31,79,82L287,354L159,649L79,668l6,33H270L378,434l93,88c0,0,47,46,67,72c0,0,19,26,19,44c0,0,0,8,-6,13c0,0,-7,6,-38,17l6,33H651c0,0,16,-12,16,-32c0,0,0,-44,-103,-142L404,377L548,49L634,33L628,0H437L313,298L185,176c0,0,-41,-40,-60,-65c0,0,-19,-26,-19,-48c0,0,0,-21,31,-29L131,0Z" 
id="f2_2k"
transform="scale(0.001,-0.001)" />

<path d="M507,-14c0,0,-174,0,-265,70c0,0,-91,70,-91,204c0,0,0,41,7,78L265,941L140,960l7,40H547l-7,-40L408,941L303,341c0,0,-8,-41,-8,-76c0,0,0,-197,224,-197c0,0,143,0,233,71c0,0,89,71,111,199L969,941L838,960l7,40h341l-7,-40L1047,941L942,344C942,344,912,173,797,79c0,0,-114,-93,-290,-93Z" 
id="f2_1l"
transform="scale(0.001,-0.001)" />

<path d="M200,-14c0,0,-59,0,-93,35c0,0,-34,36,-34,100c0,0,0,22,4,51c0,0,4,30,82,467H67l6,33l99,29L275,860h47L295,701H455L443,639H283L210,230c0,0,-13,-69,-13,-99c0,0,0,-34,17,-51c0,0,17,-16,43,-16c0,0,54,0,113,21L386,50c0,0,-92,-64,-186,-64Z" 
id="f2_2g"
transform="scale(0.001,-0.001)" />

<path d="M85,0L199,649l-96,19l6,33H332L218,52L335,33L329,0ZM297,849c0,0,-33,0,-57,24c0,0,-24,24,-24,57c0,0,0,33,24,57c0,0,24,24,57,24c0,0,33,0,57,-24c0,0,24,-24,24,-57c0,0,0,-33,-24,-57c0,0,-24,-24,-57,-24Z" 
id="f2_25"
transform="scale(0.001,-0.001)" />

<path d="M228,-17c0,0,-76,0,-114,40c0,0,-38,41,-38,117c0,0,0,11,4,39c0,0,4,29,80,470L78,667l6,34H293L217,268c0,0,-17,-94,-17,-124c0,0,0,-34,18,-55c0,0,18,-21,57,-21c0,0,55,0,120,47c0,0,65,47,107,115l83,471H709L595,52L683,33L677,0H469l20,144C489,144,427,64,360,23c0,0,-67,-40,-132,-40Z" 
id="f2_2h"
transform="scale(0.001,-0.001)" />

<path d="M317,45c0,0,74,0,134,54c0,0,60,55,97,153c0,0,36,98,36,200c0,0,0,82,-33,129c0,0,-33,46,-89,46c0,0,-40,0,-93,-29c0,0,-54,-29,-96,-75L192,81c0,0,46,-36,125,-36ZM-88,-325l5,35l90,17L170,649L93,668l6,33H297L283,588c0,0,130,132,235,132c0,0,90,0,145,-67c0,0,55,-66,55,-182c0,0,0,-132,-56,-244C662,227,606,114,510,49c0,0,-97,-63,-209,-63c0,0,-35,0,-72,5c0,0,-37,5,-55,11l-8,-67L130,-273l119,-17l-6,-35Z" 
id="f2_2c"
transform="scale(0.001,-0.001)" />

<path d="M631,416L539,902L283,416ZM576,0l8,40L691,60L643,348H249L96,60L197,40L189,0H-83l8,40L7,60l509,949H659L845,60L938,40L930,0Z" 
id="f2_11"
transform="scale(0.001,-0.001)" />

<path d="M298,-14c0,0,-120,0,-185,69c0,0,-66,69,-66,191c0,0,0,130,52,237c0,0,52,107,149,172c0,0,97,65,203,65c0,0,53,0,112,-12c0,0,60,-11,99,-27L628,485H587L575,615c0,0,-47,47,-125,47c0,0,-72,0,-134,-53c0,0,-62,-53,-100,-147c0,0,-37,-95,-37,-208c0,0,0,-190,154,-190c0,0,106,0,222,74l22,-32c0,0,-60,-56,-135,-88c0,0,-76,-32,-144,-32Z" 
id="f2_1z"
transform="scale(0.001,-0.001)" />

<path d="M305,45c0,0,76,0,141,56c0,0,64,56,101,151c0,0,37,95,37,200c0,0,0,83,-35,129c0,0,-34,46,-92,46c0,0,-44,0,-96,-29c0,0,-51,-29,-97,-75L185,81c0,0,43,-36,120,-36ZM295,-14c0,0,-65,0,-128,16C167,2,104,19,57,48l171,960l-100,18l6,34H358L303,731c0,0,-13,-85,-29,-144c0,0,59,61,122,97c0,0,64,36,116,36c0,0,94,0,150,-67c0,0,56,-67,56,-182c0,0,0,-129,-56,-242C662,229,606,115,509,50c0,0,-98,-64,-214,-64Z" 
id="f2_1y"
transform="scale(0.001,-0.001)" />

<path d="M342,-14c0,0,-138,0,-276,29L57,258h69L165,96c0,0,65,-36,136,-36c0,0,90,0,141,58c0,0,50,57,50,161c0,0,0,91,-40,139c0,0,-41,48,-132,54l-87,5v90l84,6c0,0,66,5,98,49c0,0,32,44,32,134c0,0,0,83,-38,131c0,0,-38,48,-107,48c0,0,-40,0,-66,-13c0,0,-26,-12,-49,-26L155,751H90V979c0,0,76,19,132,26c0,0,55,6,108,6c0,0,337,0,337,-246c0,0,0,-102,-54,-164c0,0,-54,-63,-153,-78c0,0,252,-30,252,-251c0,0,0,-136,-98,-211c0,0,-98,-75,-272,-75Z" 
id="f3_n"
transform="scale(0.001,-0.001)" />

<path d="M191,-20c0,0,-51,0,-88,34c0,0,-36,36,-36,88c0,0,0,52,36,88c0,0,36,36,88,36c0,0,51,0,88,-36c0,0,36,-36,36,-88c0,0,0,-51,-36,-87c0,0,-36,-35,-88,-35Z" 
id="f3_i"
transform="scale(0.001,-0.001)" />

<path d="M122,0V64L295,82V837L123,780v64l282,165H511V82L685,64V0Z" 
id="f3_l"
transform="scale(0.001,-0.001)" />

<path d="M64,0V141c0,0,64,68,119,123c0,0,119,118,174,185c0,0,56,68,81,140c0,0,26,72,26,165c0,0,0,81,-40,131c0,0,-39,50,-105,50c0,0,-46,0,-74,-10c0,0,-27,-10,-50,-29L163,751H98V979c0,0,59,13,116,23c0,0,58,9,125,9c0,0,165,0,252,-68c0,0,88,-68,88,-193c0,0,0,-78,-26,-142c0,0,-26,-64,-83,-124c0,0,-56,-61,-224,-197c0,0,-64,-52,-139,-119H698V0Z" 
id="f3_m"
transform="scale(0.001,-0.001)" />

<path d="M559,77c0,0,87,0,129,53c0,0,42,53,42,162c0,0,0,99,-49,147c0,0,-50,49,-163,49H389V82c0,0,108,-5,170,-5ZM499,570c0,0,80,0,118,42c0,0,38,42,38,141c0,0,0,88,-38,126c0,0,-37,39,-124,39H389V570ZM561,-3L221,0H25V54L154,74V926L25,945v55H511c0,0,199,0,294,-53c0,0,95,-53,95,-173c0,0,0,-89,-56,-154c0,0,-56,-65,-150,-85c0,0,139,-14,211,-76c0,0,71,-61,71,-167c0,0,0,-146,-107,-221C869,71,762,-3,561,-3Z" 
id="f3_12"
transform="scale(0.001,-0.001)" />

<path d="M41,0V49l91,18V634L41,652v49H336l8,-145c0,0,80,89,144,128c0,0,64,40,117,40h40V468H604l-45,94c0,0,-47,0,-106,-21c0,0,-60,-20,-105,-48V67L460,49V0Z" 
id="f3_2e"
transform="scale(0.001,-0.001)" />

<path d="M379,60c0,0,59,0,84,64c0,0,24,65,24,231c0,0,0,164,-24,227c0,0,-24,63,-84,63c0,0,-57,0,-80,-60c0,0,-22,-61,-22,-230c0,0,0,-173,23,-234c0,0,22,-61,79,-61Zm-2,-74c0,0,-161,0,-240,91c0,0,-79,91,-79,277c0,0,0,186,80,276c0,0,81,90,245,90c0,0,167,0,245,-93c0,0,78,-93,78,-273c0,0,0,-188,-81,-278c0,0,-81,-90,-248,-90Z" 
id="f3_2b"
transform="scale(0.001,-0.001)" />

<path d="M305,-14L57,634L4,652v49H351V652L268,632L419,232L581,631h71L814,232L950,634l-82,18v49h227V652l-54,-15L806,-14H715L555,378L395,-14Z" 
id="f3_2j"
transform="scale(0.001,-0.001)" />

<path d="M41,0V49l69,18V634L41,652v49H313l11,-61l50,26c0,0,105,54,188,54c0,0,194,0,194,-207V67L827,49V0H478V49l63,18V484c0,0,0,63,-27,98c0,0,-26,35,-75,35c0,0,-57,0,-114,-25V67L389,49V0Z" 
id="f3_2a"
transform="scale(0.001,-0.001)" />

<path d="M345,75c0,0,50,0,110,26V351l-63,-2c0,0,-72,-3,-100,-38c0,0,-28,-35,-28,-113c0,0,0,-63,22,-93c0,0,23,-30,59,-30ZM266,-14c0,0,-217,0,-217,208c0,0,0,79,32,126c0,0,32,48,93,71c0,0,60,22,190,25l91,2V521c0,0,0,126,-104,126c0,0,-62,0,-140,-39L183,521H134V691c0,0,112,17,165,21c0,0,53,5,108,5c0,0,264,0,264,-194V67L741,49V0H483L466,54C466,54,408,14,361,0c0,0,-47,-14,-95,-14Z" 
id="f3_1x"
transform="scale(0.001,-0.001)" />

<path d="M30,0V49l76,18V992l-72,18v50H322V67L398,49V0Z" 
id="f3_28"
transform="scale(0.001,-0.001)" />

<path d="M360,-256c0,0,108,0,167,35c0,0,59,35,59,98c0,0,0,70,-95,70H254c0,0,-65,-47,-65,-108c0,0,0,-47,46,-71c0,0,45,-24,125,-24Zm9,561c0,0,55,0,79,43c0,0,25,43,25,129c0,0,0,87,-24,127c0,0,-25,41,-80,41c0,0,-52,0,-75,-41c0,0,-24,-40,-24,-127c0,0,0,-86,23,-129c0,0,23,-43,76,-43Zm-9,-641c0,0,-153,0,-236,43c0,0,-84,44,-84,120c0,0,0,33,28,65c0,0,27,31,105,76c0,0,-44,17,-75,59c0,0,-31,43,-31,90L192,258c0,0,-133,56,-133,219c0,0,0,116,81,180c0,0,82,63,233,63c0,0,32,0,82,-6c0,0,51,-6,74,-13l168,83l26,-32L638,631c0,0,46,-57,46,-154c0,0,0,-119,-80,-182c0,0,-80,-64,-234,-64c0,0,-59,0,-114,9L238,183c0,0,1,-22,28,-41c0,0,26,-19,64,-19H493c0,0,256,0,256,-196c0,0,0,-81,-44,-139c0,0,-45,-59,-131,-92c0,0,-86,-32,-214,-32Z" 
id="f3_23"
transform="scale(0.001,-0.001)" />

<path d="M434,423c0,0,0,101,-7,142c0,0,-6,40,-22,60c0,0,-16,19,-45,19c0,0,-44,0,-66,-48c0,0,-22,-49,-22,-173ZM389,-14c0,0,-172,0,-254,89c0,0,-83,90,-83,279c0,0,0,184,79,274c0,0,79,91,238,91c0,0,142,0,206,-76c0,0,64,-76,64,-237V345H271V333c0,0,0,-111,18,-158c0,0,18,-47,58,-72c0,0,40,-25,110,-25c0,0,66,0,166,22V42C623,42,582,18,517,1c0,0,-66,-15,-128,-15Z" 
id="f3_21"
transform="scale(0.001,-0.001)" />

<path d="M452,474c0,0,104,0,151,52c0,0,47,53,47,178c0,0,0,119,-45,167c0,0,-44,47,-156,47H390V474ZM36,0V54L154,74V926L26,945v55H467c0,0,213,0,318,-71c0,0,105,-71,105,-224c0,0,0,-313,-366,-313H390V74L557,54V0Z" 
id="f3_1g"
transform="scale(0.001,-0.001)" />

<path d="M41,0V49l69,18V992l-72,18v50H325V756c0,0,0,-49,-4,-116l51,26c0,0,106,54,190,54c0,0,194,0,194,-207V67L827,49V0H478V49l63,18V484c0,0,0,63,-27,98c0,0,-26,35,-75,35c0,0,-57,0,-114,-25V67L389,49V0Z" 
id="f3_24"
transform="scale(0.001,-0.001)" />

<path d="M438,65c0,0,131,0,131,293c0,0,0,279,-130,279c0,0,-69,0,-127,-29V80c0,0,60,-15,126,-15ZM20,-325v50l76,18V634L19,652v49H304l1,-36c0,0,80,55,194,55c0,0,146,0,218,-86c0,0,71,-86,71,-271c0,0,0,-183,-83,-280c0,0,-83,-97,-238,-97c0,0,-79,0,-160,19c0,0,5,-48,5,-109V-257l103,-18v-50Z" 
id="f3_2c"
transform="scale(0.001,-0.001)" />

<path d="M159,-329c0,0,-61,0,-123,14v180H81l32,-94c0,0,21,-17,55,-17c0,0,28,0,50,13c0,0,21,14,40,39c0,0,20,25,37,62c0,0,17,37,50,110L64,634L15,652v49H374V652L290,632L455,244L602,634l-82,18v49H749V652L698,637L421,-44c0,0,-47,-121,-83,-176c0,0,-36,-55,-80,-82c0,0,-43,-27,-99,-27Z" 
id="f3_2l"
transform="scale(0.001,-0.001)" />

<path d="M425,-14c0,0,-187,0,-280,90c0,0,-93,90,-93,276c0,0,0,115,42,198c0,0,43,82,121,126c0,0,78,44,182,44c0,0,104,0,227,-26V486H571L539,609c0,0,-25,19,-50,26c0,0,-24,7,-65,7c0,0,-44,0,-79,-35c0,0,-36,-35,-56,-98c0,0,-20,-64,-20,-153c0,0,0,-150,47,-214c0,0,47,-64,148,-64c0,0,103,0,176,21V42C640,42,606,15,547,0c0,0,-59,-14,-122,-14Z" 
id="f3_1z"
transform="scale(0.001,-0.001)" />

<path d="M248,-20c0,0,-52,0,-87,34c0,0,-36,36,-36,88c0,0,0,52,36,88c0,0,35,36,87,36c0,0,52,0,88,-36c0,0,36,-36,36,-88c0,0,0,-51,-36,-87c0,0,-35,-35,-88,-35Zm0,488c0,0,-52,0,-87,36c0,0,-36,36,-36,88c0,0,0,52,35,88c0,0,35,36,88,36c0,0,53,0,89,-36c0,0,35,-37,35,-88c0,0,0,-51,-36,-87c0,0,-35,-37,-88,-37Z" 
id="f3_u"
transform="scale(0.001,-0.001)" />

<path d="M-17,0l8,40L120,60L276,941L151,960l7,40H909L866,761H817l4,161c0,0,-81,11,-239,11H419L349,543H619l45,119h48L657,354H609l-1,121H338L266,67H463c0,0,190,0,254,12l75,185h49L780,0Z" 
id="f2_15"
transform="scale(0.001,-0.001)" />

<path d="M311,-14c0,0,-94,0,-169,18C142,4,67,23,18,55L57,277h48l1,-143c0,0,25,-37,84,-63c0,0,59,-26,126,-26c0,0,122,0,188,58c0,0,66,58,66,162c0,0,0,40,-18,70c0,0,-18,30,-48,54c0,0,-30,23,-67,44c0,0,-38,20,-77,40c0,0,-40,21,-78,44c0,0,-37,24,-67,55c0,0,-30,31,-48,71c0,0,-18,40,-18,94c0,0,0,133,90,204c0,0,91,70,259,70c0,0,128,0,241,-28L703,774H654l-4,128c0,0,-23,20,-66,33c0,0,-42,13,-98,13c0,0,-99,0,-153,-48c0,0,-53,-48,-53,-136c0,0,0,-47,33,-85c0,0,34,-39,100,-73c0,0,102,-53,146,-80c0,0,45,-28,75,-59c0,0,31,-31,49,-72c0,0,18,-40,18,-92c0,0,0,-154,-100,-236c0,0,-100,-81,-290,-81Z" 
id="f2_1j"
transform="scale(0.001,-0.001)" />

<path d="M312,78c0,0,42,0,93,28c0,0,51,27,99,76l82,460c0,0,-18,5,-32,9c0,0,-14,3,-28,6c0,0,-14,2,-29,3c0,0,-16,1,-36,1c0,0,-75,0,-139,-56c0,0,-64,-56,-100,-150c0,0,-37,-95,-37,-202c0,0,0,-80,33,-127c0,0,33,-48,94,-48ZM249,-325c0,0,-65,0,-136,16c0,0,-70,15,-112,37l13,170H48l27,-93c0,0,60,-59,173,-59c0,0,91,0,145,47c0,0,54,48,72,152l29,175c0,0,-54,-59,-120,-97c0,0,-66,-37,-119,-37c0,0,-95,0,-149,66c0,0,-55,67,-55,182c0,0,0,131,58,243c0,0,57,112,154,177c0,0,97,66,211,66c0,0,45,0,117,-9c0,0,72,-9,128,-22L594,-25c0,0,-28,-158,-108,-229c0,0,-80,-71,-237,-71Z" 
id="f2_23"
transform="scale(0.001,-0.001)" />

<path d="M-17,0l8,40L120,60L276,941L151,960l7,40H585l-8,-40L420,941L265,65H424c0,0,142,0,222,14l83,208h48L713,0Z" 
id="f2_1c"
transform="scale(0.001,-0.001)" />

<path d="M-7,0L0,40L120,60L276,941L151,960l7,40H946L903,761H854l5,161c0,0,-81,11,-240,11H419L345,516H677l44,120h45L712,328H667l-2,121H333L264,60L427,40L420,0Z" 
id="f2_16"
transform="scale(0.001,-0.001)" />

<path d="M843,0L451,506L316,398V60L460,40V0H44V40L172,60V941L44,960v40H445V960L316,941V470L795,941l-99,19v40h313V960L894,941L552,607L979,60L1088,40V0Z" 
id="f0_1b"
transform="scale(0.001,-0.001)" />

<path d="M477,0V33l64,19L348,354L257,254V52L331,33V0H44V33l89,19v956L29,1026v34H257V338L544,647l-73,20v34H718V667L631,650L431,446L688,50L764,33V0Z" 
id="f0_27"
transform="scale(0.001,-0.001)" />

<path d="M327,-14c0,0,-101,0,-156,45c0,0,-55,45,-55,131V624H25v48l108,29l87,159H332V701H480V624H332V176c0,0,0,-49,20,-73c0,0,20,-25,53,-25c0,0,40,0,97,12V26c0,0,-22,-15,-76,-27c0,0,-55,-13,-99,-13Z" 
id="f3_2g"
transform="scale(0.001,-0.001)" />

<path d="M424,64c0,0,74,0,109,71c0,0,36,72,36,236c0,0,0,137,-34,201c0,0,-34,65,-111,65c0,0,-29,0,-62,-7c0,0,-34,-6,-55,-19V76c0,0,47,-12,117,-12Zm21,-78c0,0,-121,0,-354,50V994l-72,18v48H307V802c0,0,0,-69,-8,-141c0,0,30,25,86,42c0,0,57,17,110,17c0,0,153,0,223,-84c0,0,70,-83,70,-266c0,0,0,-180,-90,-283C698,87,608,-14,445,-14Z" 
id="f3_1y"
transform="scale(0.001,-0.001)" />

<path d="M416,68c0,0,60,0,124,32V628c0,0,-58,15,-118,15c0,0,-67,0,-104,-73c0,0,-38,-73,-38,-216c0,0,0,-139,36,-212c0,0,35,-74,100,-74ZM369,-14c0,0,-155,0,-231,88c0,0,-76,90,-76,274c0,0,0,182,82,277c0,0,81,95,236,95c0,0,82,0,165,-20c0,0,-5,24,-5,115V992l-72,18v50H756V67L833,49V0H562L547,40C547,40,505,13,483,4c0,0,-23,-7,-51,-12c0,0,-28,-6,-63,-6Z" 
id="f3_20"
transform="scale(0.001,-0.001)" />

<path d="M276,-14c0,0,-57,0,-125,13C151,-1,83,10,48,23V214H97l28,-98c0,0,26,-26,69,-44c0,0,42,-17,86,-17c0,0,65,0,97,28c0,0,32,28,32,71c0,0,0,41,-31,65c0,0,-30,25,-133,57c0,0,-108,34,-154,92c0,0,-45,58,-45,143c0,0,0,95,71,152c0,0,71,57,183,57c0,0,77,0,207,-22V518H457l-24,82c0,0,-21,22,-60,35c0,0,-40,14,-75,14c0,0,-53,0,-79,-22c0,0,-26,-22,-26,-59c0,0,0,-40,32,-65c0,0,32,-26,132,-55c0,0,109,-34,155,-89c0,0,45,-55,45,-137c0,0,0,-117,-72,-177c0,0,-72,-59,-209,-59Z" 
id="f3_2f"
transform="scale(0.001,-0.001)" />

<path d="M56,294V424H453V294Z" 
id="f3_h"
transform="scale(0.001,-0.001)" />

<path d="M41,0V49l76,18V624H11v51l106,29v75c0,0,0,144,73,220c0,0,73,77,210,77c0,0,74,0,124,-15V894H476l-22,81c0,0,-18,17,-47,17c0,0,-74,0,-74,-189V701H475V624H333V67L447,49V0Z" 
id="f3_22"
transform="scale(0.001,-0.001)" />

<path d="M34,0V49l76,18V634L38,652v49H325V67L402,49V0ZM217,831c0,0,-48,0,-81,33c0,0,-34,33,-34,82c0,0,0,48,34,81c0,0,34,33,81,33c0,0,48,0,81,-33c0,0,33,-33,33,-81c0,0,0,-47,-33,-81c0,0,-32,-34,-81,-34Z" 
id="f3_25"
transform="scale(0.001,-0.001)" />

<path d="M6,0V49L69,61L292,323L91,634L23,652v49H398V652L319,632L421,475L557,634l-71,18v49H725V652L663,637L466,406L689,65L756,49V0H381V49l79,17L337,254L175,65L245,49V0Z" 
id="f3_2k"
transform="scale(0.001,-0.001)" />

<path d="M287,-18c0,0,-194,0,-194,206V634L23,652v49H309V217c0,0,0,-63,26,-98c0,0,27,-35,76,-35c0,0,57,0,113,25V634l-64,18v49H740V67L809,49V0H536L526,61L475,35c0,0,-104,-53,-188,-53Z" 
id="f3_2h"
transform="scale(0.001,-0.001)" />

<path d="M43,0V49l67,18V992l-72,18v50H325V336L599,635l-75,17v49H791V652L711,636L544,460L785,67L847,50V0H510V50l41,17L411,313L325,253V67L395,49V0Z" 
id="f3_27"
transform="scale(0.001,-0.001)" />

<path d="M54,0V40L172,60V941L44,960v40H794V760H745L721,922c0,0,-83,11,-241,11H316V516H611l23,120h46V328H634L611,449H316V60L483,40V0Z" 
id="f0_16"
transform="scale(0.001,-0.001)" />

<path d="M41,0V49l69,18V634L41,652v49H313l11,-61l50,26c0,0,105,54,188,54c0,0,125,0,167,-91c0,0,153,91,258,91c0,0,189,0,189,-207V67l71,-17V0H898V50l63,17V484c0,0,0,63,-24,98c0,0,-25,35,-74,35c0,0,-55,0,-119,-31c0,0,7,-32,7,-73V67L821,50V0H473V50l63,17V484c0,0,0,63,-25,98c0,0,-24,35,-73,35c0,0,-49,0,-113,-29V67L389,49V0Z" 
id="f3_29"
transform="scale(0.001,-0.001)" />

<path d="M435,92c0,0,86,0,147,69c0,0,60,68,60,186c0,0,0,114,-60,179c0,0,-60,66,-152,66c0,0,-91,0,-154,-66c0,0,-64,-65,-64,-171c0,0,0,-70,30,-133c0,0,29,-64,82,-97c0,0,52,-33,111,-33Zm3,-110c0,0,-168,0,-274,123C164,105,58,228,58,512c0,0,0,317,117,461c0,0,102,125,275,125c0,0,129,0,212,-72c0,0,82,-72,99,-200L627,815c0,0,-18,79,-51,115c0,0,-54,58,-134,58c0,0,-64,0,-113,-36c0,0,-63,-46,-99,-135c0,0,-37,-89,-38,-253c0,0,48,74,118,110c0,0,70,36,147,36c0,0,135,0,229,-99c0,0,94,-99,94,-256c0,0,0,-103,-44,-191C736,164,691,75,614,28c0,0,-78,-46,-176,-46Z" 
id="f4_q"
transform="scale(0.001,-0.001)" />


</defs>
</svg>