<?xml version="1.0" encoding="UTF-8" standalone="no"?>
<!DOCTYPE svg PUBLIC "-//W3C//DTD SVG 1.1//EN"
"http://www.w3.org/Graphics/SVG/1.1/DTD/svg11.dtd">
<svg viewBox="0 0 935 1210" version="1.1" xmlns="http://www.w3.org/2000/svg" xmlns:xlink="http://www.w3.org/1999/xlink">
<defs>
<style type="text/css"><![CDATA[
.g0_151{
}
]]></style>
</defs>
<g fill="#000000" >
<use xlink:href="#f0_16" transform="matrix(12,0,0,12,327.9,72.3)" />
<use xlink:href="#f0_25" transform="matrix(12,0,0,12,338.9,72.3)" />
<use xlink:href="#f0_23" transform="matrix(12,0,0,12,344,72.3)" />
<use xlink:href="#f0_i" transform="matrix(12,0,0,12,353.2,72.3)" />
<use xlink:href="#f0_p" transform="matrix(12,0,0,12,362.7,72.3)" />
<use xlink:href="#f0_i" transform="matrix(12,0,0,12,371.9,72.3)" />
<use xlink:href="#f0_1j" transform="matrix(12,0,0,12,381,72.3)" />
<use xlink:href="#f0_2g" transform="matrix(12,0,0,12,391.3,72.3)" />
<use xlink:href="#f0_2e" transform="matrix(12,0,0,12,397.5,72.3)" />
<use xlink:href="#f0_2h" transform="matrix(12,0,0,12,405.2,72.3)" />
<use xlink:href="#f0_1z" transform="matrix(12,0,0,12,415.4,72.3)" />
<use xlink:href="#f0_2g" transform="matrix(12,0,0,12,423.5,72.3)" />
<use xlink:href="#f0_2h" transform="matrix(12,0,0,12,429.7,72.3)" />
<use xlink:href="#f0_2e" transform="matrix(12,0,0,12,440,72.3)" />
<use xlink:href="#f0_21" transform="matrix(12,0,0,12,447.7,72.3)" />
<use xlink:href="#f0_2b" transform="matrix(12,0,0,12,460.5,72.3)" />
<use xlink:href="#f0_22" transform="matrix(12,0,0,12,469.6,72.3)" />
<use xlink:href="#f0_17" transform="matrix(12,0,0,12,480.5,72.3)" />
<use xlink:href="#f0_2b" transform="matrix(12,0,0,12,494.8,72.3)" />
<use xlink:href="#f0_28" transform="matrix(12,0,0,12,503.9,72.3)" />
<use xlink:href="#f0_23" transform="matrix(12,0,0,12,508.8,72.3)" />
<use xlink:href="#f0_25" transform="matrix(12,0,0,12,517.9,72.3)" />
<use xlink:href="#f0_1x" transform="matrix(12,0,0,12,527.8,72.3)" />
<use xlink:href="#f0_2c" transform="matrix(12,0,0,12,537,72.3)" />
<use xlink:href="#f0_2c" transform="matrix(12,0,0,12,547.2,72.3)" />
<use xlink:href="#f0_1x" transform="matrix(12,0,0,12,557.5,72.3)" />
<use xlink:href="#f0_2e" transform="matrix(12,0,0,12,566.6,72.3)" />
<use xlink:href="#f0_1x" transform="matrix(12,0,0,12,574.3,72.3)" />
<use xlink:href="#f0_2g" transform="matrix(12,0,0,12,583.5,72.3)" />
<use xlink:href="#f0_2h" transform="matrix(12,0,0,12,589.7,72.3)" />
<use xlink:href="#f0_2f" transform="matrix(12,0,0,12,600,72.3)" />
<use xlink:href="#f0_1c" transform="matrix(12,0,0,12,55,159.9)" />
<use xlink:href="#f0_2l" transform="matrix(12,0,0,12,67.1,159.9)" />
<use xlink:href="#f0_2f" transform="matrix(12,0,0,12,76.3,159.9)" />
<use xlink:href="#f0_2b" transform="matrix(12,0,0,12,83.3,159.9)" />
<use xlink:href="#f0_2f" transform="matrix(12,0,0,12,92.4,159.9)" />
<use xlink:href="#f0_2b" transform="matrix(12,0,0,12,99.4,159.9)" />
<use xlink:href="#f0_29" transform="matrix(12,0,0,12,108.9,159.9)" />
<use xlink:href="#f0_21" transform="matrix(12,0,0,12,124,159.9)" />
<use xlink:href="#f0_2f" transform="matrix(12,0,0,12,132.4,159.9)" />
</g>
<path fill-rule="evenodd" d="M55,163.6h84.7v-1.9H55v1.9Z" class="g0_151" />
<g fill="#000000" >
<use xlink:href="#f1_19" transform="matrix(12,0,0,12,55,203.9)" />
<use xlink:href="#f1_2g" transform="matrix(12,0,0,12,61.3,203.9)" />
<use xlink:href="#f1_25" transform="matrix(12,0,0,12,73.7,203.9)" />
<use xlink:href="#f1_2f" transform="matrix(12,0,0,12,78.1,203.9)" />
<use xlink:href="#f1_1x" transform="matrix(12,0,0,12,92.4,203.9)" />
<use xlink:href="#f1_2f" transform="matrix(12,0,0,12,107.8,203.9)" />
<use xlink:href="#f1_25" transform="matrix(12,0,0,12,115.1,203.9)" />
<use xlink:href="#f1_2a" transform="matrix(12,0,0,12,119.8,203.9)" />
<use xlink:href="#f1_23" transform="matrix(12,0,0,12,129,203.9)" />
<use xlink:href="#f1_28" transform="matrix(12,0,0,12,138.5,203.9)" />
<use xlink:href="#f1_21" transform="matrix(12,0,0,12,143.3,203.9)" />
<use xlink:href="#f1_29" transform="matrix(12,0,0,12,159,203.9)" />
<use xlink:href="#f1_21" transform="matrix(12,0,0,12,172.6,203.9)" />
<use xlink:href="#f1_29" transform="matrix(12,0,0,12,181,203.9)" />
<use xlink:href="#f1_1y" transform="matrix(12,0,0,12,195,203.9)" />
<use xlink:href="#f1_2e" transform="matrix(12,0,0,12,204.1,203.9)" />
<use xlink:href="#f1_1x" transform="matrix(12,0,0,12,210.3,203.9)" />
<use xlink:href="#f1_2a" transform="matrix(12,0,0,12,218.8,203.9)" />
<use xlink:href="#f1_21" transform="matrix(12,0,0,12,227.6,203.9)" />
<use xlink:href="#f1_21" transform="matrix(12,0,0,12,242.9,203.9)" />
<use xlink:href="#f1_2a" transform="matrix(12,0,0,12,251.4,203.9)" />
<use xlink:href="#f1_1z" transform="matrix(12,0,0,12,260.1,203.9)" />
<use xlink:href="#f1_28" transform="matrix(12,0,0,12,268.6,203.9)" />
<use xlink:href="#f1_2b" transform="matrix(12,0,0,12,273,203.9)" />
<use xlink:href="#f1_2f" transform="matrix(12,0,0,12,282.5,203.9)" />
<use xlink:href="#f1_21" transform="matrix(12,0,0,12,289.4,203.9)" />
<use xlink:href="#f1_20" transform="matrix(12,0,0,12,297.5,203.9)" />
<use xlink:href="#f1_2b" transform="matrix(12,0,0,12,314,203.9)" />
<use xlink:href="#f1_2e" transform="matrix(12,0,0,12,323.5,203.9)" />
<use xlink:href="#f1_23" transform="matrix(12,0,0,12,329.7,203.9)" />
<use xlink:href="#f1_1x" transform="matrix(12,0,0,12,338.9,203.9)" />
<use xlink:href="#f1_2a" transform="matrix(12,0,0,12,347,203.9)" />
<use xlink:href="#f1_21" transform="matrix(12,0,0,12,355.8,203.9)" />
<use xlink:href="#f1_28" transform="matrix(12,0,0,12,364.2,203.9)" />
<use xlink:href="#f1_28" transform="matrix(12,0,0,12,368.9,203.9)" />
<use xlink:href="#f1_21" transform="matrix(12,0,0,12,373.7,203.9)" />
<use xlink:href="#f1_2j" transform="matrix(12,0,0,12,389.1,203.9)" />
<use xlink:href="#f1_24" transform="matrix(12,0,0,12,402.6,203.9)" />
<use xlink:href="#f1_25" transform="matrix(12,0,0,12,411.8,203.9)" />
<use xlink:href="#f1_1z" transform="matrix(12,0,0,12,416.6,203.9)" />
<use xlink:href="#f1_24" transform="matrix(12,0,0,12,425,203.9)" />
<use xlink:href="#f1_1z" transform="matrix(12,0,0,12,441.1,203.9)" />
<use xlink:href="#f1_2b" transform="matrix(12,0,0,12,449.2,203.9)" />
<use xlink:href="#f1_2a" transform="matrix(12,0,0,12,458.7,203.9)" />
<use xlink:href="#f1_2g" transform="matrix(12,0,0,12,467.5,203.9)" />
<use xlink:href="#f1_1x" transform="matrix(12,0,0,12,473,203.9)" />
<use xlink:href="#f1_25" transform="matrix(12,0,0,12,481.4,203.9)" />
<use xlink:href="#f1_2a" transform="matrix(12,0,0,12,486.1,203.9)" />
<use xlink:href="#f1_2f" transform="matrix(12,0,0,12,494.9,203.9)" />
<use xlink:href="#f1_24" transform="matrix(12,0,0,12,509.2,203.9)" />
<use xlink:href="#f1_2l" transform="matrix(12,0,0,12,518.4,203.9)" />
<use xlink:href="#f1_20" transform="matrix(12,0,0,12,527.2,203.9)" />
<use xlink:href="#f1_2e" transform="matrix(12,0,0,12,536.4,203.9)" />
<use xlink:href="#f1_2b" transform="matrix(12,0,0,12,542.6,203.9)" />
<use xlink:href="#f1_28" transform="matrix(12,0,0,12,552.5,203.9)" />
<use xlink:href="#f1_2l" transform="matrix(12,0,0,12,557.2,203.9)" />
<use xlink:href="#f1_2g" transform="matrix(12,0,0,12,565.7,203.9)" />
<use xlink:href="#f1_25" transform="matrix(12,0,0,12,571.5,203.9)" />
<use xlink:href="#f1_1z" transform="matrix(12,0,0,12,576.3,203.9)" />
<use xlink:href="#f1_21" transform="matrix(12,0,0,12,591.7,203.9)" />
<use xlink:href="#f1_2a" transform="matrix(12,0,0,12,599.7,203.9)" />
<use xlink:href="#f1_2m" transform="matrix(12,0,0,12,608.9,203.9)" />
<use xlink:href="#f1_2l" transform="matrix(12,0,0,12,617.3,203.9)" />
<use xlink:href="#f1_29" transform="matrix(12,0,0,12,626.1,203.9)" />
<use xlink:href="#f1_21" transform="matrix(12,0,0,12,640,203.9)" />
<use xlink:href="#f1_2f" transform="matrix(12,0,0,12,648.4,203.9)" />
<use xlink:href="#f1_i" transform="matrix(12,0,0,12,655.4,203.9)" />
<use xlink:href="#f1_18" transform="matrix(12,0,0,12,667.5,203.9)" />
<use xlink:href="#f1_2l" transform="matrix(12,0,0,12,681,203.9)" />
<use xlink:href="#f1_20" transform="matrix(12,0,0,12,689.5,203.9)" />
<use xlink:href="#f1_2e" transform="matrix(12,0,0,12,698.6,203.9)" />
<use xlink:href="#f1_2b" transform="matrix(12,0,0,12,704.8,203.9)" />
<use xlink:href="#f1_28" transform="matrix(12,0,0,12,714.7,203.9)" />
<use xlink:href="#f1_2l" transform="matrix(12,0,0,12,719.5,203.9)" />
<use xlink:href="#f1_2g" transform="matrix(12,0,0,12,727.9,203.9)" />
<use xlink:href="#f1_25" transform="matrix(12,0,0,12,733.8,203.9)" />
<use xlink:href="#f1_1z" transform="matrix(12,0,0,12,738.5,203.9)" />
<use xlink:href="#f1_21" transform="matrix(12,0,0,12,754.9,203.9)" />
<use xlink:href="#f1_2a" transform="matrix(12,0,0,12,763,203.9)" />
<use xlink:href="#f1_2m" transform="matrix(12,0,0,12,771.8,203.9)" />
<use xlink:href="#f1_2l" transform="matrix(12,0,0,12,780.2,203.9)" />
<use xlink:href="#f1_29" transform="matrix(12,0,0,12,789.3,203.9)" />
<use xlink:href="#f1_21" transform="matrix(12,0,0,12,803.3,203.9)" />
<use xlink:href="#f1_2f" transform="matrix(12,0,0,12,811.7,203.9)" />
<use xlink:href="#f1_25" transform="matrix(12,0,0,12,826.3,203.9)" />
<use xlink:href="#f1_2a" transform="matrix(12,0,0,12,831.1,203.9)" />
<use xlink:href="#f1_1z" transform="matrix(12,0,0,12,839.9,203.9)" />
<use xlink:href="#f1_28" transform="matrix(12,0,0,12,848.3,203.9)" />
<use xlink:href="#f1_2h" transform="matrix(12,0,0,12,853.1,203.9)" />
<use xlink:href="#f1_20" transform="matrix(12,0,0,12,862.3,203.9)" />
<use xlink:href="#f1_21" transform="matrix(12,0,0,12,871.8,203.9)" />
<use xlink:href="#f1_2c" transform="matrix(12,0,0,12,55,235.5)" />
<use xlink:href="#f1_2e" transform="matrix(12,0,0,12,64.2,235.5)" />
<use xlink:href="#f1_2b" transform="matrix(12,0,0,12,70.4,235.5)" />
<use xlink:href="#f1_2g" transform="matrix(12,0,0,12,79.6,235.5)" />
<use xlink:href="#f1_21" transform="matrix(12,0,0,12,85.1,235.5)" />
<use xlink:href="#f1_1x" transform="matrix(12,0,0,12,93.1,235.5)" />
<use xlink:href="#f1_2f" transform="matrix(12,0,0,12,101.2,235.5)" />
<use xlink:href="#f1_21" transform="matrix(12,0,0,12,108.2,235.5)" />
<use xlink:href="#f1_2f" transform="matrix(12,0,0,12,116.2,235.5)" />
<use xlink:href="#f1_g" transform="matrix(12,0,0,12,123.2,235.5)" />
<use xlink:href="#f1_2a" transform="matrix(12,0,0,12,135.3,235.5)" />
<use xlink:href="#f1_2h" transform="matrix(12,0,0,12,144.1,235.5)" />
<use xlink:href="#f1_1z" transform="matrix(12,0,0,12,153.2,235.5)" />
<use xlink:href="#f1_28" transform="matrix(12,0,0,12,161.6,235.5)" />
<use xlink:href="#f1_21" transform="matrix(12,0,0,12,166,235.5)" />
<use xlink:href="#f1_1x" transform="matrix(12,0,0,12,174.1,235.5)" />
<use xlink:href="#f1_2f" transform="matrix(12,0,0,12,182.5,235.5)" />
<use xlink:href="#f1_21" transform="matrix(12,0,0,12,189.5,235.5)" />
<use xlink:href="#f1_2f" transform="matrix(12,0,0,12,197.9,235.5)" />
<use xlink:href="#f1_g" transform="matrix(12,0,0,12,204.9,235.5)" />
<use xlink:href="#f1_23" transform="matrix(12,0,0,12,216.9,235.5)" />
<use xlink:href="#f1_28" transform="matrix(12,0,0,12,226.1,235.5)" />
<use xlink:href="#f1_2l" transform="matrix(12,0,0,12,230.9,235.5)" />
<use xlink:href="#f1_1z" transform="matrix(12,0,0,12,239.7,235.5)" />
<use xlink:href="#f1_2b" transform="matrix(12,0,0,12,247.7,235.5)" />
<use xlink:href="#f1_2f" transform="matrix(12,0,0,12,257.3,235.5)" />
<use xlink:href="#f1_25" transform="matrix(12,0,0,12,264.6,235.5)" />
<use xlink:href="#f1_20" transform="matrix(12,0,0,12,269.3,235.5)" />
<use xlink:href="#f1_1x" transform="matrix(12,0,0,12,278.5,235.5)" />
<use xlink:href="#f1_2f" transform="matrix(12,0,0,12,286.9,235.5)" />
<use xlink:href="#f1_21" transform="matrix(12,0,0,12,293.9,235.5)" />
<use xlink:href="#f1_2f" transform="matrix(12,0,0,12,301.9,235.5)" />
<use xlink:href="#f1_g" transform="matrix(12,0,0,12,308.9,235.5)" />
<use xlink:href="#f1_28" transform="matrix(12,0,0,12,321.3,235.5)" />
<use xlink:href="#f1_25" transform="matrix(12,0,0,12,326.1,235.5)" />
<use xlink:href="#f1_2c" transform="matrix(12,0,0,12,330.9,235.5)" />
<use xlink:href="#f1_1x" transform="matrix(12,0,0,12,340,235.5)" />
<use xlink:href="#f1_2f" transform="matrix(12,0,0,12,348.5,235.5)" />
<use xlink:href="#f1_21" transform="matrix(12,0,0,12,355.4,235.5)" />
<use xlink:href="#f1_2f" transform="matrix(12,0,0,12,363.5,235.5)" />
<use xlink:href="#f1_g" transform="matrix(12,0,0,12,370.5,235.5)" />
<use xlink:href="#f1_2c" transform="matrix(12,0,0,12,382.5,235.5)" />
<use xlink:href="#f1_24" transform="matrix(12,0,0,12,391.7,235.5)" />
<use xlink:href="#f1_2b" transform="matrix(12,0,0,12,400.5,235.5)" />
<use xlink:href="#f1_2f" transform="matrix(12,0,0,12,410,235.5)" />
<use xlink:href="#f1_2c" transform="matrix(12,0,0,12,417,235.5)" />
<use xlink:href="#f1_24" transform="matrix(12,0,0,12,426.5,235.5)" />
<use xlink:href="#f1_2b" transform="matrix(12,0,0,12,435.3,235.5)" />
<use xlink:href="#f1_28" transform="matrix(12,0,0,12,445.2,235.5)" />
<use xlink:href="#f1_25" transform="matrix(12,0,0,12,449.9,235.5)" />
<use xlink:href="#f1_2c" transform="matrix(12,0,0,12,454.7,235.5)" />
<use xlink:href="#f1_1x" transform="matrix(12,0,0,12,463.9,235.5)" />
<use xlink:href="#f1_2f" transform="matrix(12,0,0,12,471.9,235.5)" />
<use xlink:href="#f1_21" transform="matrix(12,0,0,12,479.3,235.5)" />
<use xlink:href="#f1_2f" transform="matrix(12,0,0,12,487.3,235.5)" />
<use xlink:href="#f1_g" transform="matrix(12,0,0,12,494.3,235.5)" />
<use xlink:href="#f1_2c" transform="matrix(12,0,0,12,506.3,235.5)" />
<use xlink:href="#f1_24" transform="matrix(12,0,0,12,515.5,235.5)" />
<use xlink:href="#f1_2b" transform="matrix(12,0,0,12,524.3,235.5)" />
<use xlink:href="#f1_2f" transform="matrix(12,0,0,12,533.8,235.5)" />
<use xlink:href="#f1_2c" transform="matrix(12,0,0,12,540.8,235.5)" />
<use xlink:href="#f1_24" transform="matrix(12,0,0,12,550,235.5)" />
<use xlink:href="#f1_1x" transform="matrix(12,0,0,12,559.1,235.5)" />
<use xlink:href="#f1_2g" transform="matrix(12,0,0,12,567.2,235.5)" />
<use xlink:href="#f1_1x" transform="matrix(12,0,0,12,572.7,235.5)" />
<use xlink:href="#f1_2f" transform="matrix(12,0,0,12,580.7,235.5)" />
<use xlink:href="#f1_21" transform="matrix(12,0,0,12,587.7,235.5)" />
<use xlink:href="#f1_1x" transform="matrix(12,0,0,12,603.1,235.5)" />
<use xlink:href="#f1_2a" transform="matrix(12,0,0,12,611.2,235.5)" />
<use xlink:href="#f1_20" transform="matrix(12,0,0,12,620,235.5)" />
<use xlink:href="#f1_2f" transform="matrix(12,0,0,12,636.4,235.5)" />
<use xlink:href="#f1_2h" transform="matrix(12,0,0,12,643.4,235.5)" />
<use xlink:href="#f1_28" transform="matrix(12,0,0,12,652.9,235.5)" />
<use xlink:href="#f1_2c" transform="matrix(12,0,0,12,657.7,235.5)" />
<use xlink:href="#f1_24" transform="matrix(12,0,0,12,667.2,235.5)" />
<use xlink:href="#f1_1x" transform="matrix(12,0,0,12,676,235.5)" />
<use xlink:href="#f1_2g" transform="matrix(12,0,0,12,684.1,235.5)" />
<use xlink:href="#f1_1x" transform="matrix(12,0,0,12,689.6,235.5)" />
<use xlink:href="#f1_2f" transform="matrix(12,0,0,12,697.6,235.5)" />
<use xlink:href="#f1_21" transform="matrix(12,0,0,12,704.6,235.5)" />
<use xlink:href="#f1_2f" transform="matrix(12,0,0,12,712.7,235.5)" />
<use xlink:href="#f1_i" transform="matrix(12,0,0,12,719.6,235.5)" />
<use xlink:href="#f1_1k" transform="matrix(12,0,0,12,731.7,235.5)" />
<use xlink:href="#f1_24" transform="matrix(12,0,0,12,743,235.5)" />
<use xlink:href="#f1_21" transform="matrix(12,0,0,12,751.8,235.5)" />
<use xlink:href="#f1_21" transform="matrix(12,0,0,12,767.2,235.5)" />
<use xlink:href="#f1_2a" transform="matrix(12,0,0,12,775.6,235.5)" />
<use xlink:href="#f1_2i" transform="matrix(12,0,0,12,784.8,235.5)" />
<use xlink:href="#f1_25" transform="matrix(12,0,0,12,794,235.5)" />
<use xlink:href="#f1_2e" transform="matrix(12,0,0,12,799.1,235.5)" />
<use xlink:href="#f1_2b" transform="matrix(12,0,0,12,805.3,235.5)" />
<use xlink:href="#f1_2a" transform="matrix(12,0,0,12,814.8,235.5)" />
<use xlink:href="#f1_29" transform="matrix(12,0,0,12,824,235.5)" />
<use xlink:href="#f1_21" transform="matrix(12,0,0,12,837.6,235.5)" />
<use xlink:href="#f1_2a" transform="matrix(12,0,0,12,846,235.5)" />
<use xlink:href="#f1_2g" transform="matrix(12,0,0,12,854.8,235.5)" />
<use xlink:href="#f1_25" transform="matrix(12,0,0,12,868.6,235.5)" />
<use xlink:href="#f1_2f" transform="matrix(12,0,0,12,873,235.5)" />
<use xlink:href="#f1_1x" transform="matrix(12,0,0,12,55,267)" />
<use xlink:href="#f1_1z" transform="matrix(12,0,0,12,63.1,267)" />
<use xlink:href="#f1_25" transform="matrix(12,0,0,12,71.5,267)" />
<use xlink:href="#f1_20" transform="matrix(12,0,0,12,75.9,267)" />
<use xlink:href="#f1_25" transform="matrix(12,0,0,12,85.4,267)" />
<use xlink:href="#f1_1z" transform="matrix(12,0,0,12,90.2,267)" />
<use xlink:href="#f1_25" transform="matrix(12,0,0,12,102.7,267)" />
<use xlink:href="#f1_2a" transform="matrix(12,0,0,12,107.4,267)" />
<use xlink:href="#f1_2f" transform="matrix(12,0,0,12,116.6,267)" />
<use xlink:href="#f1_25" transform="matrix(12,0,0,12,124.3,267)" />
<use xlink:href="#f1_20" transform="matrix(12,0,0,12,129,267)" />
<use xlink:href="#f1_21" transform="matrix(12,0,0,12,138.2,267)" />
<use xlink:href="#f1_2g" transform="matrix(12,0,0,12,150.3,267)" />
<use xlink:href="#f1_24" transform="matrix(12,0,0,12,155.8,267)" />
<use xlink:href="#f1_21" transform="matrix(12,0,0,12,164.6,267)" />
<use xlink:href="#f1_28" transform="matrix(12,0,0,12,177.1,267)" />
<use xlink:href="#f1_2l" transform="matrix(12,0,0,12,182.2,267)" />
<use xlink:href="#f1_2f" transform="matrix(12,0,0,12,191,267)" />
<use xlink:href="#f1_2b" transform="matrix(12,0,0,12,198,267)" />
<use xlink:href="#f1_2f" transform="matrix(12,0,0,12,207.5,267)" />
<use xlink:href="#f1_2b" transform="matrix(12,0,0,12,214.4,267)" />
<use xlink:href="#f1_29" transform="matrix(12,0,0,12,224,267)" />
<use xlink:href="#f1_21" transform="matrix(12,0,0,12,237.9,267)" />
<use xlink:href="#f1_2f" transform="matrix(12,0,0,12,246,267)" />
<use xlink:href="#f1_2j" transform="matrix(12,0,0,12,257,267)" />
<use xlink:href="#f1_25" transform="matrix(12,0,0,12,270.5,267)" />
<use xlink:href="#f1_2g" transform="matrix(12,0,0,12,274.9,267)" />
<use xlink:href="#f1_24" transform="matrix(12,0,0,12,280.8,267)" />
<use xlink:href="#f1_1x" transform="matrix(12,0,0,12,293.6,267)" />
<use xlink:href="#f1_2c" transform="matrix(12,0,0,12,305.7,267)" />
<use xlink:href="#f1_18" transform="matrix(12,0,0,12,314.9,267)" />
<use xlink:href="#f1_2b" transform="matrix(12,0,0,12,332.1,267)" />
<use xlink:href="#f1_22" transform="matrix(12,0,0,12,342,267)" />
<use xlink:href="#f1_1x" transform="matrix(12,0,0,12,351.5,267)" />
<use xlink:href="#f1_1y" transform="matrix(12,0,0,12,360.2,267)" />
<use xlink:href="#f1_2b" transform="matrix(12,0,0,12,369,267)" />
<use xlink:href="#f1_2h" transform="matrix(12,0,0,12,378.5,267)" />
<use xlink:href="#f1_2g" transform="matrix(12,0,0,12,387.7,267)" />
<use xlink:href="#f1_p" transform="matrix(12,0,0,12,397.2,267)" />
<use xlink:href="#f1_i" transform="matrix(12,0,0,12,406,267)" />
<use xlink:href="#f1_k" transform="matrix(12,0,0,12,410.8,267)" />
<use xlink:href="#f1_i" transform="matrix(12,0,0,12,419.9,267)" />
<use xlink:href="#f1_1k" transform="matrix(12,0,0,12,428.3,267)" />
<use xlink:href="#f1_24" transform="matrix(12,0,0,12,439.7,267)" />
<use xlink:href="#f1_21" transform="matrix(12,0,0,12,448.5,267)" />
<use xlink:href="#f1_2e" transform="matrix(12,0,0,12,456.6,267)" />
<use xlink:href="#f1_21" transform="matrix(12,0,0,12,462.8,267)" />
<use xlink:href="#f1_25" transform="matrix(12,0,0,12,475.2,267)" />
<use xlink:href="#f1_2f" transform="matrix(12,0,0,12,480,267)" />
<use xlink:href="#f1_1x" transform="matrix(12,0,0,12,491,267)" />
<use xlink:href="#f1_2c" transform="matrix(12,0,0,12,503.1,267)" />
<use xlink:href="#f1_2e" transform="matrix(12,0,0,12,512.3,267)" />
<use xlink:href="#f1_2b" transform="matrix(12,0,0,12,518.5,267)" />
<use xlink:href="#f1_2g" transform="matrix(12,0,0,12,528,267)" />
<use xlink:href="#f1_2b" transform="matrix(12,0,0,12,533.1,267)" />
<use xlink:href="#f1_2a" transform="matrix(12,0,0,12,542.7,267)" />
<use xlink:href="#f1_2c" transform="matrix(12,0,0,12,555.5,267)" />
<use xlink:href="#f1_2h" transform="matrix(12,0,0,12,564.7,267)" />
<use xlink:href="#f1_29" transform="matrix(12,0,0,12,573.8,267)" />
<use xlink:href="#f1_2c" transform="matrix(12,0,0,12,587.4,267)" />
<use xlink:href="#f1_25" transform="matrix(12,0,0,12,601,267)" />
<use xlink:href="#f1_2a" transform="matrix(12,0,0,12,605.7,267)" />
<use xlink:href="#f1_2f" transform="matrix(12,0,0,12,614.9,267)" />
<use xlink:href="#f1_25" transform="matrix(12,0,0,12,622.6,267)" />
<use xlink:href="#f1_20" transform="matrix(12,0,0,12,627.3,267)" />
<use xlink:href="#f1_21" transform="matrix(12,0,0,12,636.5,267)" />
<use xlink:href="#f1_2g" transform="matrix(12,0,0,12,648.6,267)" />
<use xlink:href="#f1_24" transform="matrix(12,0,0,12,654.1,267)" />
<use xlink:href="#f1_21" transform="matrix(12,0,0,12,662.9,267)" />
<use xlink:href="#f1_28" transform="matrix(12,0,0,12,675.4,267)" />
<use xlink:href="#f1_2l" transform="matrix(12,0,0,12,680.4,267)" />
<use xlink:href="#f1_2f" transform="matrix(12,0,0,12,689.3,267)" />
<use xlink:href="#f1_2b" transform="matrix(12,0,0,12,696.3,267)" />
<use xlink:href="#f1_2f" transform="matrix(12,0,0,12,705.8,267)" />
<use xlink:href="#f1_2b" transform="matrix(12,0,0,12,712.7,267)" />
<use xlink:href="#f1_29" transform="matrix(12,0,0,12,722.6,267)" />
<use xlink:href="#f1_1x" transform="matrix(12,0,0,12,736.2,267)" />
<use xlink:href="#f1_28" transform="matrix(12,0,0,12,744.6,267)" />
<use xlink:href="#f1_29" transform="matrix(12,0,0,12,753.8,267)" />
<use xlink:href="#f1_21" transform="matrix(12,0,0,12,767.7,267)" />
<use xlink:href="#f1_29" transform="matrix(12,0,0,12,776.1,267)" />
<use xlink:href="#f1_1y" transform="matrix(12,0,0,12,790,267)" />
<use xlink:href="#f1_2e" transform="matrix(12,0,0,12,799.6,267)" />
<use xlink:href="#f1_1x" transform="matrix(12,0,0,12,805.8,267)" />
<use xlink:href="#f1_2a" transform="matrix(12,0,0,12,813.8,267)" />
<use xlink:href="#f1_21" transform="matrix(12,0,0,12,822.6,267)" />
<use xlink:href="#f1_2j" transform="matrix(12,0,0,12,834.7,267)" />
<use xlink:href="#f1_24" transform="matrix(12,0,0,12,848.3,267)" />
<use xlink:href="#f1_25" transform="matrix(12,0,0,12,857.5,267)" />
<use xlink:href="#f1_1z" transform="matrix(12,0,0,12,862.2,267)" />
<use xlink:href="#f1_24" transform="matrix(12,0,0,12,870.6,267)" />
<use xlink:href="#f1_2c" transform="matrix(12,0,0,12,55,298.5)" />
<use xlink:href="#f1_2h" transform="matrix(12,0,0,12,64.2,298.5)" />
<use xlink:href="#f1_29" transform="matrix(12,0,0,12,73.7,298.5)" />
<use xlink:href="#f1_2c" transform="matrix(12,0,0,12,87.3,298.5)" />
<use xlink:href="#f1_2f" transform="matrix(12,0,0,12,96.5,298.5)" />
<use xlink:href="#f1_2c" transform="matrix(12,0,0,12,107.8,298.5)" />
<use xlink:href="#f1_2e" transform="matrix(12,0,0,12,117,298.5)" />
<use xlink:href="#f1_2b" transform="matrix(12,0,0,12,123.2,298.5)" />
<use xlink:href="#f1_2g" transform="matrix(12,0,0,12,132.4,298.5)" />
<use xlink:href="#f1_2b" transform="matrix(12,0,0,12,137.5,298.5)" />
<use xlink:href="#f1_2a" transform="matrix(12,0,0,12,147,298.5)" />
<use xlink:href="#f1_25" transform="matrix(12,0,0,12,160.2,298.5)" />
<use xlink:href="#f1_2a" transform="matrix(12,0,0,12,165,298.5)" />
<use xlink:href="#f1_2f" transform="matrix(12,0,0,12,174.1,298.5)" />
<use xlink:href="#f1_25" transform="matrix(12,0,0,12,181.5,298.5)" />
<use xlink:href="#f1_20" transform="matrix(12,0,0,12,186.2,298.5)" />
<use xlink:href="#f1_21" transform="matrix(12,0,0,12,195.4,298.5)" />
<use xlink:href="#f1_2g" transform="matrix(12,0,0,12,207.9,298.5)" />
<use xlink:href="#f1_24" transform="matrix(12,0,0,12,213.3,298.5)" />
<use xlink:href="#f1_21" transform="matrix(12,0,0,12,222.1,298.5)" />
<use xlink:href="#f1_29" transform="matrix(12,0,0,12,234.6,298.5)" />
<use xlink:href="#f1_21" transform="matrix(12,0,0,12,248.2,298.5)" />
<use xlink:href="#f1_29" transform="matrix(12,0,0,12,256.6,298.5)" />
<use xlink:href="#f1_1y" transform="matrix(12,0,0,12,270.5,298.5)" />
<use xlink:href="#f1_2e" transform="matrix(12,0,0,12,279.7,298.5)" />
<use xlink:href="#f1_1x" transform="matrix(12,0,0,12,285.9,298.5)" />
<use xlink:href="#f1_2a" transform="matrix(12,0,0,12,294.3,298.5)" />
<use xlink:href="#f1_21" transform="matrix(12,0,0,12,303.1,298.5)" />
<use xlink:href="#f1_2h" transform="matrix(12,0,0,12,315.6,298.5)" />
<use xlink:href="#f1_2f" transform="matrix(12,0,0,12,324.8,298.5)" />
<use xlink:href="#f1_25" transform="matrix(12,0,0,12,332.1,298.5)" />
<use xlink:href="#f1_2a" transform="matrix(12,0,0,12,336.8,298.5)" />
<use xlink:href="#f1_23" transform="matrix(12,0,0,12,346,298.5)" />
<use xlink:href="#f1_11" transform="matrix(12,0,0,12,359.6,298.5)" />
<use xlink:href="#f1_1k" transform="matrix(12,0,0,12,372.4,298.5)" />
<use xlink:href="#f1_1g" transform="matrix(12,0,0,12,383.8,298.5)" />
<use xlink:href="#f1_1x" transform="matrix(12,0,0,12,398.4,298.5)" />
<use xlink:href="#f1_2f" transform="matrix(12,0,0,12,406.5,298.5)" />
<use xlink:href="#f1_1x" transform="matrix(12,0,0,12,417.8,298.5)" />
<use xlink:href="#f1_2f" transform="matrix(12,0,0,12,429.9,298.5)" />
<use xlink:href="#f1_2b" transform="matrix(12,0,0,12,436.9,298.5)" />
<use xlink:href="#f1_2h" transform="matrix(12,0,0,12,446.4,298.5)" />
<use xlink:href="#f1_2e" transform="matrix(12,0,0,12,455.6,298.5)" />
<use xlink:href="#f1_1z" transform="matrix(12,0,0,12,461.8,298.5)" />
<use xlink:href="#f1_21" transform="matrix(12,0,0,12,469.9,298.5)" />
<use xlink:href="#f1_2b" transform="matrix(12,0,0,12,482,298.5)" />
<use xlink:href="#f1_22" transform="matrix(12,0,0,12,491.5,298.5)" />
<use xlink:href="#f1_21" transform="matrix(12,0,0,12,501.4,298.5)" />
<use xlink:href="#f1_2a" transform="matrix(12,0,0,12,509.4,298.5)" />
<use xlink:href="#f1_21" transform="matrix(12,0,0,12,518.2,298.5)" />
<use xlink:href="#f1_2e" transform="matrix(12,0,0,12,526.3,298.5)" />
<use xlink:href="#f1_23" transform="matrix(12,0,0,12,532.5,298.5)" />
<use xlink:href="#f1_2l" transform="matrix(12,0,0,12,542,298.5)" />
<use xlink:href="#f1_i" transform="matrix(12,0,0,12,550.5,298.5)" />
<use xlink:href="#f1_1c" transform="matrix(12,0,0,12,560.1,298.5)" />
<use xlink:href="#f1_2l" transform="matrix(12,0,0,12,571.5,298.5)" />
<use xlink:href="#f1_2f" transform="matrix(12,0,0,12,580.3,298.5)" />
<use xlink:href="#f1_2b" transform="matrix(12,0,0,12,587.2,298.5)" />
<use xlink:href="#f1_2f" transform="matrix(12,0,0,12,596.7,298.5)" />
<use xlink:href="#f1_2b" transform="matrix(12,0,0,12,603.7,298.5)" />
<use xlink:href="#f1_29" transform="matrix(12,0,0,12,613.6,298.5)" />
<use xlink:href="#f1_21" transform="matrix(12,0,0,12,627.2,298.5)" />
<use xlink:href="#f1_2f" transform="matrix(12,0,0,12,635.2,298.5)" />
<use xlink:href="#f1_1x" transform="matrix(12,0,0,12,646.6,298.5)" />
<use xlink:href="#f1_2e" transform="matrix(12,0,0,12,654.7,298.5)" />
<use xlink:href="#f1_21" transform="matrix(12,0,0,12,660.9,298.5)" />
<use xlink:href="#f1_2e" transform="matrix(12,0,0,12,673.3,298.5)" />
<use xlink:href="#f1_21" transform="matrix(12,0,0,12,679.6,298.5)" />
<use xlink:href="#f1_2f" transform="matrix(12,0,0,12,687.6,298.5)" />
<use xlink:href="#f1_2c" transform="matrix(12,0,0,12,694.6,298.5)" />
<use xlink:href="#f1_2b" transform="matrix(12,0,0,12,703.8,298.5)" />
<use xlink:href="#f1_2a" transform="matrix(12,0,0,12,713.3,298.5)" />
<use xlink:href="#f1_2f" transform="matrix(12,0,0,12,722.1,298.5)" />
<use xlink:href="#f1_25" transform="matrix(12,0,0,12,729.4,298.5)" />
<use xlink:href="#f1_1y" transform="matrix(12,0,0,12,734.2,298.5)" />
<use xlink:href="#f1_28" transform="matrix(12,0,0,12,743.3,298.5)" />
<use xlink:href="#f1_21" transform="matrix(12,0,0,12,748.1,298.5)" />
<use xlink:href="#f1_22" transform="matrix(12,0,0,12,760.9,298.5)" />
<use xlink:href="#f1_2b" transform="matrix(12,0,0,12,766.4,298.5)" />
<use xlink:href="#f1_2e" transform="matrix(12,0,0,12,775.9,298.5)" />
<use xlink:href="#f1_2g" transform="matrix(12,0,0,12,786.2,298.5)" />
<use xlink:href="#f1_24" transform="matrix(12,0,0,12,791.6,298.5)" />
<use xlink:href="#f1_21" transform="matrix(12,0,0,12,800.4,298.5)" />
<use xlink:href="#f1_20" transform="matrix(12,0,0,12,812.9,298.5)" />
<use xlink:href="#f1_25" transform="matrix(12,0,0,12,822.1,298.5)" />
<use xlink:href="#f1_23" transform="matrix(12,0,0,12,826.5,298.5)" />
<use xlink:href="#f1_21" transform="matrix(12,0,0,12,835.6,298.5)" />
<use xlink:href="#f1_2f" transform="matrix(12,0,0,12,844.1,298.5)" />
<use xlink:href="#f1_2g" transform="matrix(12,0,0,12,851,298.5)" />
<use xlink:href="#f1_25" transform="matrix(12,0,0,12,856.9,298.5)" />
<use xlink:href="#f1_2b" transform="matrix(12,0,0,12,861.3,298.5)" />
<use xlink:href="#f1_2a" transform="matrix(12,0,0,12,870.8,298.5)" />
<use xlink:href="#f1_2b" transform="matrix(12,0,0,12,55,330.5)" />
<use xlink:href="#f1_22" transform="matrix(12,0,0,12,64.6,330.5)" />
<use xlink:href="#f1_1y" transform="matrix(12,0,0,12,74.8,330.5)" />
<use xlink:href="#f1_2b" transform="matrix(12,0,0,12,83.6,330.5)" />
<use xlink:href="#f1_2g" transform="matrix(12,0,0,12,93.1,330.5)" />
<use xlink:href="#f1_24" transform="matrix(12,0,0,12,98.6,330.5)" />
<use xlink:href="#f1_25" transform="matrix(12,0,0,12,112.1,330.5)" />
<use xlink:href="#f1_2a" transform="matrix(12,0,0,12,116.9,330.5)" />
<use xlink:href="#f1_2g" transform="matrix(12,0,0,12,125.7,330.5)" />
<use xlink:href="#f1_2e" transform="matrix(12,0,0,12,131.2,330.5)" />
<use xlink:href="#f1_1x" transform="matrix(12,0,0,12,137.4,330.5)" />
<use xlink:href="#f1_1z" transform="matrix(12,0,0,12,145.5,330.5)" />
<use xlink:href="#f1_21" transform="matrix(12,0,0,12,153.5,330.5)" />
<use xlink:href="#f1_28" transform="matrix(12,0,0,12,162,330.5)" />
<use xlink:href="#f1_28" transform="matrix(12,0,0,12,166.7,330.5)" />
<use xlink:href="#f1_2h" transform="matrix(12,0,0,12,171.5,330.5)" />
<use xlink:href="#f1_28" transform="matrix(12,0,0,12,181,330.5)" />
<use xlink:href="#f1_1x" transform="matrix(12,0,0,12,185.8,330.5)" />
<use xlink:href="#f1_2e" transform="matrix(12,0,0,12,193.8,330.5)" />
<use xlink:href="#f1_1x" transform="matrix(12,0,0,12,204.8,330.5)" />
<use xlink:href="#f1_2f" transform="matrix(12,0,0,12,212.9,330.5)" />
<use xlink:href="#f1_2j" transform="matrix(12,0,0,12,224.6,330.5)" />
<use xlink:href="#f1_21" transform="matrix(12,0,0,12,237.8,330.5)" />
<use xlink:href="#f1_28" transform="matrix(12,0,0,12,246.2,330.5)" />
<use xlink:href="#f1_28" transform="matrix(12,0,0,12,251.3,330.5)" />
<use xlink:href="#f1_1x" transform="matrix(12,0,0,12,260.5,330.5)" />
<use xlink:href="#f1_2f" transform="matrix(12,0,0,12,268.9,330.5)" />
<use xlink:href="#f1_21" transform="matrix(12,0,0,12,280.6,330.5)" />
<use xlink:href="#f1_2k" transform="matrix(12,0,0,12,289,330.5)" />
<use xlink:href="#f1_2g" transform="matrix(12,0,0,12,297.8,330.5)" />
<use xlink:href="#f1_2e" transform="matrix(12,0,0,12,303.3,330.5)" />
<use xlink:href="#f1_1x" transform="matrix(12,0,0,12,309.5,330.5)" />
<use xlink:href="#f1_1z" transform="matrix(12,0,0,12,317.6,330.5)" />
<use xlink:href="#f1_21" transform="matrix(12,0,0,12,325.7,330.5)" />
<use xlink:href="#f1_28" transform="matrix(12,0,0,12,334.1,330.5)" />
<use xlink:href="#f1_28" transform="matrix(12,0,0,12,338.8,330.5)" />
<use xlink:href="#f1_2h" transform="matrix(12,0,0,12,343.2,330.5)" />
<use xlink:href="#f1_28" transform="matrix(12,0,0,12,352.8,330.5)" />
<use xlink:href="#f1_1x" transform="matrix(12,0,0,12,357.5,330.5)" />
<use xlink:href="#f1_2e" transform="matrix(12,0,0,12,365.6,330.5)" />
<use xlink:href="#f1_29" transform="matrix(12,0,0,12,376.9,330.5)" />
<use xlink:href="#f1_1x" transform="matrix(12,0,0,12,390.8,330.5)" />
<use xlink:href="#f1_2g" transform="matrix(12,0,0,12,398.9,330.5)" />
<use xlink:href="#f1_21" transform="matrix(12,0,0,12,404.4,330.5)" />
<use xlink:href="#f1_2e" transform="matrix(12,0,0,12,412.5,330.5)" />
<use xlink:href="#f1_25" transform="matrix(12,0,0,12,418.7,330.5)" />
<use xlink:href="#f1_1x" transform="matrix(12,0,0,12,423.4,330.5)" />
<use xlink:href="#f1_28" transform="matrix(12,0,0,12,431.9,330.5)" />
<use xlink:href="#f1_2f" transform="matrix(12,0,0,12,436.6,330.5)" />
<use xlink:href="#f1_i" transform="matrix(12,0,0,12,443.6,330.5)" />
<use xlink:href="#f0_16" transform="matrix(12,0,0,12,352.5,708.6)" />
<use xlink:href="#f0_25" transform="matrix(12,0,0,12,363.5,708.6)" />
<use xlink:href="#f0_23" transform="matrix(12,0,0,12,368.6,708.6)" />
<use xlink:href="#f0_i" transform="matrix(12,0,0,12,377.8,708.6)" />
<use xlink:href="#f0_q" transform="matrix(12,0,0,12,387.3,708.6)" />
<use xlink:href="#f0_i" transform="matrix(12,0,0,12,396.5,708.6)" />
<use xlink:href="#f0_1j" transform="matrix(12,0,0,12,405.6,708.6)" />
<use xlink:href="#f0_2g" transform="matrix(12,0,0,12,415.9,708.6)" />
<use xlink:href="#f0_2e" transform="matrix(12,0,0,12,422.1,708.6)" />
<use xlink:href="#f0_2h" transform="matrix(12,0,0,12,429.8,708.6)" />
<use xlink:href="#f0_1z" transform="matrix(12,0,0,12,440,708.6)" />
<use xlink:href="#f0_2g" transform="matrix(12,0,0,12,448.1,708.6)" />
<use xlink:href="#f0_2h" transform="matrix(12,0,0,12,454.3,708.6)" />
<use xlink:href="#f0_2e" transform="matrix(12,0,0,12,464.6,708.6)" />
<use xlink:href="#f0_21" transform="matrix(12,0,0,12,472.5,708.6)" />
<use xlink:href="#f0_2b" transform="matrix(12,0,0,12,485.3,708.6)" />
<use xlink:href="#f0_22" transform="matrix(12,0,0,12,494.4,708.6)" />
<use xlink:href="#f0_28" transform="matrix(12,0,0,12,505,708.6)" />
<use xlink:href="#f0_2l" transform="matrix(12,0,0,12,509.8,708.6)" />
<use xlink:href="#f0_2f" transform="matrix(12,0,0,12,519.3,708.6)" />
<use xlink:href="#f0_2b" transform="matrix(12,0,0,12,526.3,708.6)" />
<use xlink:href="#f0_2f" transform="matrix(12,0,0,12,535.5,708.6)" />
<use xlink:href="#f0_2b" transform="matrix(12,0,0,12,542.4,708.6)" />
<use xlink:href="#f0_29" transform="matrix(12,0,0,12,551.9,708.6)" />
<use xlink:href="#f0_21" transform="matrix(12,0,0,12,567,708.6)" />
<use xlink:href="#f0_2f" transform="matrix(12,0,0,12,575.4,708.6)" />
<use xlink:href="#f0_1m" transform="matrix(12,0,0,12,55,752.6)" />
<use xlink:href="#f0_1x" transform="matrix(12,0,0,12,68.3,752.6)" />
<use xlink:href="#f0_1z" transform="matrix(12,0,0,12,77.4,752.6)" />
<use xlink:href="#f0_2h" transform="matrix(12,0,0,12,85.5,752.6)" />
<use xlink:href="#f0_2b" transform="matrix(12,0,0,12,95.7,752.6)" />
<use xlink:href="#f0_28" transform="matrix(12,0,0,12,104.9,752.6)" />
<use xlink:href="#f0_21" transform="matrix(12,0,0,12,109.7,752.6)" />
<use xlink:href="#f0_2f" transform="matrix(12,0,0,12,118.1,752.6)" />
</g>
<path fill-rule="evenodd" d="M55,756.3h70.4v-1.9H55v1.9Z" class="g0_151" />
<g fill="#000000" >
<use xlink:href="#f1_16" transform="matrix(12,0,0,12,55,796.6)" />
<use xlink:href="#f1_28" transform="matrix(12,0,0,12,65.3,796.6)" />
<use xlink:href="#f1_2h" transform="matrix(12,0,0,12,70.1,796.6)" />
<use xlink:href="#f1_25" transform="matrix(12,0,0,12,79.6,796.6)" />
<use xlink:href="#f1_20" transform="matrix(12,0,0,12,84.3,796.6)" />
<use xlink:href="#f1_22" transform="matrix(12,0,0,12,99,796.6)" />
<use xlink:href="#f1_25" transform="matrix(12,0,0,12,104.8,796.6)" />
<use xlink:href="#f1_28" transform="matrix(12,0,0,12,109.9,796.6)" />
<use xlink:href="#f1_28" transform="matrix(12,0,0,12,115.1,796.6)" />
<use xlink:href="#f1_21" transform="matrix(12,0,0,12,119.9,796.6)" />
<use xlink:href="#f1_20" transform="matrix(12,0,0,12,127.9,796.6)" />
<use xlink:href="#f1_2i" transform="matrix(12,0,0,12,142.6,796.6)" />
<use xlink:href="#f1_21" transform="matrix(12,0,0,12,151.4,796.6)" />
<use xlink:href="#f1_2f" transform="matrix(12,0,0,12,159.8,796.6)" />
<use xlink:href="#f1_25" transform="matrix(12,0,0,12,167.1,796.6)" />
<use xlink:href="#f1_1z" transform="matrix(12,0,0,12,171.9,796.6)" />
<use xlink:href="#f1_28" transform="matrix(12,0,0,12,180.3,796.6)" />
<use xlink:href="#f1_21" transform="matrix(12,0,0,12,185.1,796.6)" />
<use xlink:href="#f1_2f" transform="matrix(12,0,0,12,193.1,796.6)" />
<use xlink:href="#f1_1x" transform="matrix(12,0,0,12,205.6,796.6)" />
<use xlink:href="#f1_2e" transform="matrix(12,0,0,12,213.6,796.6)" />
<use xlink:href="#f1_21" transform="matrix(12,0,0,12,219.9,796.6)" />
<use xlink:href="#f1_27" transform="matrix(12,0,0,12,233.4,796.6)" />
<use xlink:href="#f1_2a" transform="matrix(12,0,0,12,242.6,796.6)" />
<use xlink:href="#f1_2b" transform="matrix(12,0,0,12,251.4,796.6)" />
<use xlink:href="#f1_2j" transform="matrix(12,0,0,12,260.9,796.6)" />
<use xlink:href="#f1_2a" transform="matrix(12,0,0,12,274.1,796.6)" />
<use xlink:href="#f1_1x" transform="matrix(12,0,0,12,288.4,796.6)" />
<use xlink:href="#f1_2f" transform="matrix(12,0,0,12,296.4,796.6)" />
<use xlink:href="#f1_2i" transform="matrix(12,0,0,12,308.9,796.6)" />
<use xlink:href="#f1_1x" transform="matrix(12,0,0,12,317.7,796.6)" />
<use xlink:href="#f1_1z" transform="matrix(12,0,0,12,325.7,796.6)" />
<use xlink:href="#f1_2h" transform="matrix(12,0,0,12,333.8,796.6)" />
<use xlink:href="#f1_2b" transform="matrix(12,0,0,12,343,796.6)" />
<use xlink:href="#f1_28" transform="matrix(12,0,0,12,352.9,796.6)" />
<use xlink:href="#f1_21" transform="matrix(12,0,0,12,357.3,796.6)" />
<use xlink:href="#f1_2f" transform="matrix(12,0,0,12,365.3,796.6)" />
<use xlink:href="#f1_i" transform="matrix(12,0,0,12,372.3,796.6)" />
<use xlink:href="#f1_11" transform="matrix(12,0,0,12,383,796.6)" />
<use xlink:href="#f1_29" transform="matrix(12,0,0,12,401.7,796.6)" />
<use xlink:href="#f1_21" transform="matrix(12,0,0,12,415.2,796.6)" />
<use xlink:href="#f1_29" transform="matrix(12,0,0,12,423.6,796.6)" />
<use xlink:href="#f1_1y" transform="matrix(12,0,0,12,437.6,796.6)" />
<use xlink:href="#f1_2e" transform="matrix(12,0,0,12,446.8,796.6)" />
<use xlink:href="#f1_1x" transform="matrix(12,0,0,12,453,796.6)" />
<use xlink:href="#f1_2a" transform="matrix(12,0,0,12,461.4,796.6)" />
<use xlink:href="#f1_21" transform="matrix(12,0,0,12,470.2,796.6)" />
<use xlink:href="#f1_27" transform="matrix(12,0,0,12,483.7,796.6)" />
<use xlink:href="#f1_2a" transform="matrix(12,0,0,12,492.9,796.6)" />
<use xlink:href="#f1_2b" transform="matrix(12,0,0,12,501.7,796.6)" />
<use xlink:href="#f1_2j" transform="matrix(12,0,0,12,511.2,796.6)" />
<use xlink:href="#f1_2a" transform="matrix(12,0,0,12,524.4,796.6)" />
<use xlink:href="#f1_1x" transform="matrix(12,0,0,12,538.7,796.6)" />
<use xlink:href="#f1_2f" transform="matrix(12,0,0,12,546.8,796.6)" />
<use xlink:href="#f1_2g" transform="matrix(12,0,0,12,559.2,796.6)" />
<use xlink:href="#f1_2b" transform="matrix(12,0,0,12,564.3,796.6)" />
<use xlink:href="#f1_2a" transform="matrix(12,0,0,12,573.9,796.6)" />
<use xlink:href="#f1_2b" transform="matrix(12,0,0,12,582.7,796.6)" />
<use xlink:href="#f1_2c" transform="matrix(12,0,0,12,592.2,796.6)" />
<use xlink:href="#f1_28" transform="matrix(12,0,0,12,601.3,796.6)" />
<use xlink:href="#f1_1x" transform="matrix(12,0,0,12,605.7,796.6)" />
<use xlink:href="#f1_2f" transform="matrix(12,0,0,12,613.8,796.6)" />
<use xlink:href="#f1_2g" transform="matrix(12,0,0,12,620.8,796.6)" />
<use xlink:href="#f1_2f" transform="matrix(12,0,0,12,632,796.6)" />
<use xlink:href="#f1_2h" transform="matrix(12,0,0,12,638.9,796.6)" />
<use xlink:href="#f1_2e" transform="matrix(12,0,0,12,648.1,796.6)" />
<use xlink:href="#f1_2e" transform="matrix(12,0,0,12,654.3,796.6)" />
<use xlink:href="#f1_2b" transform="matrix(12,0,0,12,660.2,796.6)" />
<use xlink:href="#f1_2h" transform="matrix(12,0,0,12,669.7,796.6)" />
<use xlink:href="#f1_2a" transform="matrix(12,0,0,12,678.9,796.6)" />
<use xlink:href="#f1_20" transform="matrix(12,0,0,12,687.7,796.6)" />
<use xlink:href="#f1_2f" transform="matrix(12,0,0,12,696.8,796.6)" />
<use xlink:href="#f1_2g" transform="matrix(12,0,0,12,708.9,796.6)" />
<use xlink:href="#f1_24" transform="matrix(12,0,0,12,714.4,796.6)" />
<use xlink:href="#f1_21" transform="matrix(12,0,0,12,723.2,796.6)" />
<use xlink:href="#f1_2i" transform="matrix(12,0,0,12,736.8,796.6)" />
<use xlink:href="#f1_1x" transform="matrix(12,0,0,12,745.6,796.6)" />
<use xlink:href="#f1_1z" transform="matrix(12,0,0,12,753.6,796.6)" />
<use xlink:href="#f1_2h" transform="matrix(12,0,0,12,761.7,796.6)" />
<use xlink:href="#f1_2b" transform="matrix(12,0,0,12,770.9,796.6)" />
<use xlink:href="#f1_28" transform="matrix(12,0,0,12,780.7,796.6)" />
<use xlink:href="#f1_21" transform="matrix(12,0,0,12,785.1,796.6)" />
<use xlink:href="#f1_i" transform="matrix(12,0,0,12,793.4,796.6)" />
<use xlink:href="#f1_1k" transform="matrix(12,0,0,12,804,796.6)" />
<use xlink:href="#f1_24" transform="matrix(12,0,0,12,815.3,796.6)" />
<use xlink:href="#f1_21" transform="matrix(12,0,0,12,824.1,796.6)" />
<use xlink:href="#f1_2c" transform="matrix(12,0,0,12,837.7,796.6)" />
<use xlink:href="#f1_18" transform="matrix(12,0,0,12,846.9,796.6)" />
<use xlink:href="#f1_2b" transform="matrix(12,0,0,12,864.9,796.6)" />
<use xlink:href="#f1_22" transform="matrix(12,0,0,12,874.5,796.6)" />
<use xlink:href="#f1_2g" transform="matrix(12,0,0,12,55,828.1)" />
<use xlink:href="#f1_24" transform="matrix(12,0,0,12,60.5,828.1)" />
<use xlink:href="#f1_21" transform="matrix(12,0,0,12,69.3,828.1)" />
<use xlink:href="#f1_28" transform="matrix(12,0,0,12,82.5,828.1)" />
<use xlink:href="#f1_2h" transform="matrix(12,0,0,12,86.9,828.1)" />
<use xlink:href="#f1_29" transform="matrix(12,0,0,12,96.4,828.1)" />
<use xlink:href="#f1_21" transform="matrix(12,0,0,12,110.3,828.1)" />
<use xlink:href="#f1_2a" transform="matrix(12,0,0,12,118.8,828.1)" />
<use xlink:href="#f1_25" transform="matrix(12,0,0,12,132.7,828.1)" />
<use xlink:href="#f1_2f" transform="matrix(12,0,0,12,137.4,828.1)" />
<use xlink:href="#f1_2f" transform="matrix(12,0,0,12,149.7,828.1)" />
<use xlink:href="#f1_25" transform="matrix(12,0,0,12,157,828.1)" />
<use xlink:href="#f1_29" transform="matrix(12,0,0,12,162.1,828.1)" />
<use xlink:href="#f1_25" transform="matrix(12,0,0,12,176.1,828.1)" />
<use xlink:href="#f1_28" transform="matrix(12,0,0,12,181.2,828.1)" />
<use xlink:href="#f1_1x" transform="matrix(12,0,0,12,186,828.1)" />
<use xlink:href="#f1_2e" transform="matrix(12,0,0,12,194,828.1)" />
<use xlink:href="#f1_2g" transform="matrix(12,0,0,12,205,828.1)" />
<use xlink:href="#f1_2b" transform="matrix(12,0,0,12,210.5,828.1)" />
<use xlink:href="#f1_2g" transform="matrix(12,0,0,12,224.4,828.1)" />
<use xlink:href="#f1_24" transform="matrix(12,0,0,12,229.9,828.1)" />
<use xlink:href="#f1_1x" transform="matrix(12,0,0,12,238.7,828.1)" />
<use xlink:href="#f1_2g" transform="matrix(12,0,0,12,246.7,828.1)" />
<use xlink:href="#f1_2b" transform="matrix(12,0,0,12,256.6,828.1)" />
<use xlink:href="#f1_22" transform="matrix(12,0,0,12,266.1,828.1)" />
<use xlink:href="#f1_28" transform="matrix(12,0,0,12,276.7,828.1)" />
<use xlink:href="#f1_2l" transform="matrix(12,0,0,12,281.8,828.1)" />
<use xlink:href="#f1_2f" transform="matrix(12,0,0,12,290.7,828.1)" />
<use xlink:href="#f1_2b" transform="matrix(12,0,0,12,297.6,828.1)" />
<use xlink:href="#f1_2f" transform="matrix(12,0,0,12,307.2,828.1)" />
<use xlink:href="#f1_2b" transform="matrix(12,0,0,12,314.1,828.1)" />
<use xlink:href="#f1_29" transform="matrix(12,0,0,12,323.6,828.1)" />
<use xlink:href="#f1_21" transform="matrix(12,0,0,12,337.6,828.1)" />
<use xlink:href="#f1_2f" transform="matrix(12,0,0,12,345.6,828.1)" />
<use xlink:href="#f1_1x" transform="matrix(12,0,0,12,357.7,828.1)" />
<use xlink:href="#f1_2a" transform="matrix(12,0,0,12,366.1,828.1)" />
<use xlink:href="#f1_20" transform="matrix(12,0,0,12,374.9,828.1)" />
<use xlink:href="#f1_25" transform="matrix(12,0,0,12,389.1,828.1)" />
<use xlink:href="#f1_2f" transform="matrix(12,0,0,12,393.9,828.1)" />
<use xlink:href="#f1_2g" transform="matrix(12,0,0,12,405.6,828.1)" />
<use xlink:href="#f1_24" transform="matrix(12,0,0,12,411.1,828.1)" />
<use xlink:href="#f1_21" transform="matrix(12,0,0,12,420.3,828.1)" />
<use xlink:href="#f1_2e" transform="matrix(12,0,0,12,428.7,828.1)" />
<use xlink:href="#f1_21" transform="matrix(12,0,0,12,434.9,828.1)" />
<use xlink:href="#f1_22" transform="matrix(12,0,0,12,443,828.1)" />
<use xlink:href="#f1_2b" transform="matrix(12,0,0,12,448.5,828.1)" />
<use xlink:href="#f1_2e" transform="matrix(12,0,0,12,458,828.1)" />
<use xlink:href="#f1_21" transform="matrix(12,0,0,12,464.2,828.1)" />
<use xlink:href="#f1_1x" transform="matrix(12,0,0,12,477.2,828.1)" />
<use xlink:href="#f1_1z" transform="matrix(12,0,0,12,485.3,828.1)" />
<use xlink:href="#f1_25" transform="matrix(12,0,0,12,493.7,828.1)" />
<use xlink:href="#f1_20" transform="matrix(12,0,0,12,498.5,828.1)" />
<use xlink:href="#f1_25" transform="matrix(12,0,0,12,508,828.1)" />
<use xlink:href="#f1_1z" transform="matrix(12,0,0,12,512.7,828.1)" />
<use xlink:href="#f1_i" transform="matrix(12,0,0,12,520.8,828.1)" />
<use xlink:href="#f1_1m" transform="matrix(12,0,0,12,530.4,828.1)" />
<use xlink:href="#f1_1x" transform="matrix(12,0,0,12,543.6,828.1)" />
<use xlink:href="#f1_1z" transform="matrix(12,0,0,12,551.6,828.1)" />
<use xlink:href="#f1_2h" transform="matrix(12,0,0,12,559.7,828.1)" />
<use xlink:href="#f1_2b" transform="matrix(12,0,0,12,568.9,828.1)" />
<use xlink:href="#f1_28" transform="matrix(12,0,0,12,578.8,828.1)" />
<use xlink:href="#f1_21" transform="matrix(12,0,0,12,583.2,828.1)" />
<use xlink:href="#f1_2f" transform="matrix(12,0,0,12,591.2,828.1)" />
<use xlink:href="#f1_25" transform="matrix(12,0,0,12,603.3,828.1)" />
<use xlink:href="#f1_2a" transform="matrix(12,0,0,12,608.1,828.1)" />
<use xlink:href="#f1_2c" transform="matrix(12,0,0,12,622,828.1)" />
<use xlink:href="#f1_28" transform="matrix(12,0,0,12,631.5,828.1)" />
<use xlink:href="#f1_1x" transform="matrix(12,0,0,12,636.3,828.1)" />
<use xlink:href="#f1_2a" transform="matrix(12,0,0,12,644.7,828.1)" />
<use xlink:href="#f1_2g" transform="matrix(12,0,0,12,653.5,828.1)" />
<use xlink:href="#f1_1z" transform="matrix(12,0,0,12,663.7,828.1)" />
<use xlink:href="#f1_21" transform="matrix(12,0,0,12,671.8,828.1)" />
<use xlink:href="#f1_28" transform="matrix(12,0,0,12,680.2,828.1)" />
<use xlink:href="#f1_28" transform="matrix(12,0,0,12,685,828.1)" />
<use xlink:href="#f1_2f" transform="matrix(12,0,0,12,689.7,828.1)" />
<use xlink:href="#f1_1z" transform="matrix(12,0,0,12,701.8,828.1)" />
<use xlink:href="#f1_2b" transform="matrix(12,0,0,12,709.9,828.1)" />
<use xlink:href="#f1_2a" transform="matrix(12,0,0,12,719.4,828.1)" />
<use xlink:href="#f1_2g" transform="matrix(12,0,0,12,728.2,828.1)" />
<use xlink:href="#f1_1x" transform="matrix(12,0,0,12,733.7,828.1)" />
<use xlink:href="#f1_25" transform="matrix(12,0,0,12,742.1,828.1)" />
<use xlink:href="#f1_2a" transform="matrix(12,0,0,12,746.8,828.1)" />
<use xlink:href="#f1_2j" transform="matrix(12,0,0,12,760.8,828.1)" />
<use xlink:href="#f1_1x" transform="matrix(12,0,0,12,774,828.1)" />
<use xlink:href="#f1_2g" transform="matrix(12,0,0,12,782,828.1)" />
<use xlink:href="#f1_21" transform="matrix(12,0,0,12,787.5,828.1)" />
<use xlink:href="#f1_2e" transform="matrix(12,0,0,12,795.6,828.1)" />
<use xlink:href="#f1_g" transform="matrix(12,0,0,12,801.8,828.1)" />
<use xlink:href="#f1_20" transform="matrix(12,0,0,12,811.3,828.1)" />
<use xlink:href="#f1_25" transform="matrix(12,0,0,12,820.5,828.1)" />
<use xlink:href="#f1_2f" transform="matrix(12,0,0,12,825.2,828.1)" />
<use xlink:href="#f1_2f" transform="matrix(12,0,0,12,832.2,828.1)" />
<use xlink:href="#f1_2b" transform="matrix(12,0,0,12,839.2,828.1)" />
<use xlink:href="#f1_28" transform="matrix(12,0,0,12,849,828.1)" />
<use xlink:href="#f1_2i" transform="matrix(12,0,0,12,853.8,828.1)" />
<use xlink:href="#f1_21" transform="matrix(12,0,0,12,862.6,828.1)" />
<use xlink:href="#f1_20" transform="matrix(12,0,0,12,870.7,828.1)" />
<use xlink:href="#f1_25" transform="matrix(12,0,0,12,55,859.7)" />
<use xlink:href="#f1_2a" transform="matrix(12,0,0,12,59.8,859.7)" />
<use xlink:href="#f1_2b" transform="matrix(12,0,0,12,68.6,859.7)" />
<use xlink:href="#f1_2e" transform="matrix(12,0,0,12,78.1,859.7)" />
<use xlink:href="#f1_23" transform="matrix(12,0,0,12,84.3,859.7)" />
<use xlink:href="#f1_1x" transform="matrix(12,0,0,12,93.5,859.7)" />
<use xlink:href="#f1_2a" transform="matrix(12,0,0,12,101.9,859.7)" />
<use xlink:href="#f1_25" transform="matrix(12,0,0,12,111.1,859.7)" />
<use xlink:href="#f1_1z" transform="matrix(12,0,0,12,115.9,859.7)" />
<use xlink:href="#f1_25" transform="matrix(12,0,0,12,130.9,859.7)" />
<use xlink:href="#f1_2b" transform="matrix(12,0,0,12,135.3,859.7)" />
<use xlink:href="#f1_2a" transform="matrix(12,0,0,12,145.2,859.7)" />
<use xlink:href="#f1_2f" transform="matrix(12,0,0,12,154,859.7)" />
<use xlink:href="#f1_g" transform="matrix(12,0,0,12,161,859.7)" />
<use xlink:href="#f1_2f" transform="matrix(12,0,0,12,172.3,859.7)" />
<use xlink:href="#f1_2h" transform="matrix(12,0,0,12,179.3,859.7)" />
<use xlink:href="#f1_23" transform="matrix(12,0,0,12,188.4,859.7)" />
<use xlink:href="#f1_1x" transform="matrix(12,0,0,12,197.6,859.7)" />
<use xlink:href="#f1_2e" transform="matrix(12,0,0,12,205.7,859.7)" />
<use xlink:href="#f1_2f" transform="matrix(12,0,0,12,211.9,859.7)" />
<use xlink:href="#f1_g" transform="matrix(12,0,0,12,218.8,859.7)" />
<use xlink:href="#f1_21" transform="matrix(12,0,0,12,230.2,859.7)" />
<use xlink:href="#f1_2a" transform="matrix(12,0,0,12,238.6,859.7)" />
<use xlink:href="#f1_2m" transform="matrix(12,0,0,12,247.4,859.7)" />
<use xlink:href="#f1_2l" transform="matrix(12,0,0,12,255.8,859.7)" />
<use xlink:href="#f1_29" transform="matrix(12,0,0,12,265,859.7)" />
<use xlink:href="#f1_21" transform="matrix(12,0,0,12,278.9,859.7)" />
<use xlink:href="#f1_2f" transform="matrix(12,0,0,12,287.3,859.7)" />
<use xlink:href="#f1_21" transform="matrix(12,0,0,12,300.9,859.7)" />
<use xlink:href="#f1_2g" transform="matrix(12,0,0,12,308.9,859.7)" />
<use xlink:href="#f1_1z" transform="matrix(12,0,0,12,314.4,859.7)" />
<use xlink:href="#f1_i" transform="matrix(12,0,0,12,322.5,859.7)" />
<use xlink:href="#f1_1k" transform="matrix(12,0,0,12,334.1,859.7)" />
<use xlink:href="#f1_24" transform="matrix(12,0,0,12,345.5,859.7)" />
<use xlink:href="#f1_25" transform="matrix(12,0,0,12,354.7,859.7)" />
<use xlink:href="#f1_2f" transform="matrix(12,0,0,12,359.1,859.7)" />
<use xlink:href="#f1_2i" transform="matrix(12,0,0,12,373.1,859.7)" />
<use xlink:href="#f1_1x" transform="matrix(12,0,0,12,381.9,859.7)" />
<use xlink:href="#f1_1z" transform="matrix(12,0,0,12,389.9,859.7)" />
<use xlink:href="#f1_2h" transform="matrix(12,0,0,12,398,859.7)" />
<use xlink:href="#f1_2b" transform="matrix(12,0,0,12,407.2,859.7)" />
<use xlink:href="#f1_28" transform="matrix(12,0,0,12,417,859.7)" />
<use xlink:href="#f1_21" transform="matrix(12,0,0,12,421.4,859.7)" />
<use xlink:href="#f1_25" transform="matrix(12,0,0,12,436.8,859.7)" />
<use xlink:href="#f1_2f" transform="matrix(12,0,0,12,441.2,859.7)" />
<use xlink:href="#f1_20" transform="matrix(12,0,0,12,454.7,859.7)" />
<use xlink:href="#f1_25" transform="matrix(12,0,0,12,464.3,859.7)" />
<use xlink:href="#f1_22" transform="matrix(12,0,0,12,469.4,859.7)" />
<use xlink:href="#f1_22" transform="matrix(12,0,0,12,475.3,859.7)" />
<use xlink:href="#f1_21" transform="matrix(12,0,0,12,481.1,859.7)" />
<use xlink:href="#f1_2e" transform="matrix(12,0,0,12,489.2,859.7)" />
<use xlink:href="#f1_21" transform="matrix(12,0,0,12,495.4,859.7)" />
<use xlink:href="#f1_2a" transform="matrix(12,0,0,12,503.8,859.7)" />
<use xlink:href="#f1_2g" transform="matrix(12,0,0,12,512.6,859.7)" />
<use xlink:href="#f1_22" transform="matrix(12,0,0,12,525.1,859.7)" />
<use xlink:href="#f1_2e" transform="matrix(12,0,0,12,530.6,859.7)" />
<use xlink:href="#f1_2b" transform="matrix(12,0,0,12,536.8,859.7)" />
<use xlink:href="#f1_29" transform="matrix(12,0,0,12,546.3,859.7)" />
<use xlink:href="#f1_1x" transform="matrix(12,0,0,12,566.7,859.7)" />
<use xlink:href="#f1_2a" transform="matrix(12,0,0,12,575.1,859.7)" />
<use xlink:href="#f1_2b" transform="matrix(12,0,0,12,583.9,859.7)" />
<use xlink:href="#f1_2g" transform="matrix(12,0,0,12,593.4,859.7)" />
<use xlink:href="#f1_24" transform="matrix(12,0,0,12,598.9,859.7)" />
<use xlink:href="#f1_21" transform="matrix(12,0,0,12,607.7,859.7)" />
<use xlink:href="#f1_2e" transform="matrix(12,0,0,12,615.8,859.7)" />
<use xlink:href="#f1_2g" transform="matrix(12,0,0,12,628.6,859.7)" />
<use xlink:href="#f1_2l" transform="matrix(12,0,0,12,634.1,859.7)" />
<use xlink:href="#f1_2c" transform="matrix(12,0,0,12,642.5,859.7)" />
<use xlink:href="#f1_21" transform="matrix(12,0,0,12,651.7,859.7)" />
<use xlink:href="#f1_2b" transform="matrix(12,0,0,12,666.3,859.7)" />
<use xlink:href="#f1_22" transform="matrix(12,0,0,12,676.2,859.7)" />
<use xlink:href="#f1_2i" transform="matrix(12,0,0,12,688.6,859.7)" />
<use xlink:href="#f1_1x" transform="matrix(12,0,0,12,697.4,859.7)" />
<use xlink:href="#f1_1z" transform="matrix(12,0,0,12,705.5,859.7)" />
<use xlink:href="#f1_2h" transform="matrix(12,0,0,12,713.6,859.7)" />
<use xlink:href="#f1_2b" transform="matrix(12,0,0,12,722.7,859.7)" />
<use xlink:href="#f1_28" transform="matrix(12,0,0,12,732.6,859.7)" />
<use xlink:href="#f1_21" transform="matrix(12,0,0,12,737,859.7)" />
<use xlink:href="#f1_1z" transform="matrix(12,0,0,12,751.7,859.7)" />
<use xlink:href="#f1_1x" transform="matrix(12,0,0,12,759.7,859.7)" />
<use xlink:href="#f1_28" transform="matrix(12,0,0,12,768.2,859.7)" />
<use xlink:href="#f1_28" transform="matrix(12,0,0,12,773.3,859.7)" />
<use xlink:href="#f1_21" transform="matrix(12,0,0,12,778.1,859.7)" />
<use xlink:href="#f1_20" transform="matrix(12,0,0,12,786.1,859.7)" />
<use xlink:href="#f1_1z" transform="matrix(12,0,0,12,802.6,859.7)" />
<use xlink:href="#f1_2b" transform="matrix(12,0,0,12,810.6,859.7)" />
<use xlink:href="#f1_2a" transform="matrix(12,0,0,12,820.1,859.7)" />
<use xlink:href="#f1_2g" transform="matrix(12,0,0,12,828.9,859.7)" />
<use xlink:href="#f1_2e" transform="matrix(12,0,0,12,834.4,859.7)" />
<use xlink:href="#f1_1x" transform="matrix(12,0,0,12,840.6,859.7)" />
<use xlink:href="#f1_1z" transform="matrix(12,0,0,12,848.7,859.7)" />
<use xlink:href="#f1_2g" transform="matrix(12,0,0,12,856.4,859.7)" />
<use xlink:href="#f1_25" transform="matrix(12,0,0,12,861.9,859.7)" />
<use xlink:href="#f1_28" transform="matrix(12,0,0,12,866.7,859.7)" />
<use xlink:href="#f1_21" transform="matrix(12,0,0,12,871.7,859.7)" />
<use xlink:href="#f1_2i" transform="matrix(12,0,0,12,55,891.3)" />
<use xlink:href="#f1_1x" transform="matrix(12,0,0,12,63.8,891.3)" />
<use xlink:href="#f1_1z" transform="matrix(12,0,0,12,71.9,891.3)" />
<use xlink:href="#f1_2h" transform="matrix(12,0,0,12,80,891.3)" />
<use xlink:href="#f1_2b" transform="matrix(12,0,0,12,89.1,891.3)" />
<use xlink:href="#f1_28" transform="matrix(12,0,0,12,99,891.3)" />
<use xlink:href="#f1_21" transform="matrix(12,0,0,12,103.4,891.3)" />
<use xlink:href="#f1_i" transform="matrix(12,0,0,12,111.5,891.3)" />
<use xlink:href="#f1_13" transform="matrix(12,0,0,12,120.6,891.3)" />
<use xlink:href="#f1_2b" transform="matrix(12,0,0,12,132.7,891.3)" />
<use xlink:href="#f1_2a" transform="matrix(12,0,0,12,142.2,891.3)" />
<use xlink:href="#f1_2g" transform="matrix(12,0,0,12,151,891.3)" />
<use xlink:href="#f1_2e" transform="matrix(12,0,0,12,156.5,891.3)" />
<use xlink:href="#f1_1x" transform="matrix(12,0,0,12,162.7,891.3)" />
<use xlink:href="#f1_1z" transform="matrix(12,0,0,12,170.8,891.3)" />
<use xlink:href="#f1_2g" transform="matrix(12,0,0,12,178.9,891.3)" />
<use xlink:href="#f1_25" transform="matrix(12,0,0,12,184.4,891.3)" />
<use xlink:href="#f1_28" transform="matrix(12,0,0,12,189.1,891.3)" />
<use xlink:href="#f1_21" transform="matrix(12,0,0,12,193.9,891.3)" />
<use xlink:href="#f1_2i" transform="matrix(12,0,0,12,206.7,891.3)" />
<use xlink:href="#f1_1x" transform="matrix(12,0,0,12,215.5,891.3)" />
<use xlink:href="#f1_1z" transform="matrix(12,0,0,12,223.6,891.3)" />
<use xlink:href="#f1_2h" transform="matrix(12,0,0,12,231.6,891.3)" />
<use xlink:href="#f1_2b" transform="matrix(12,0,0,12,240.8,891.3)" />
<use xlink:href="#f1_28" transform="matrix(12,0,0,12,250.7,891.3)" />
<use xlink:href="#f1_21" transform="matrix(12,0,0,12,255.1,891.3)" />
<use xlink:href="#f1_25" transform="matrix(12,0,0,12,267.9,891.3)" />
<use xlink:href="#f1_2f" transform="matrix(12,0,0,12,272.7,891.3)" />
<use xlink:href="#f1_1x" transform="matrix(12,0,0,12,284,891.3)" />
<use xlink:href="#f1_2a" transform="matrix(12,0,0,12,292.5,891.3)" />
<use xlink:href="#f1_2b" transform="matrix(12,0,0,12,305.7,891.3)" />
<use xlink:href="#f1_2e" transform="matrix(12,0,0,12,315.2,891.3)" />
<use xlink:href="#f1_23" transform="matrix(12,0,0,12,321.4,891.3)" />
<use xlink:href="#f1_1x" transform="matrix(12,0,0,12,330.5,891.3)" />
<use xlink:href="#f1_2a" transform="matrix(12,0,0,12,338.6,891.3)" />
<use xlink:href="#f1_21" transform="matrix(12,0,0,12,347.4,891.3)" />
<use xlink:href="#f1_28" transform="matrix(12,0,0,12,355.8,891.3)" />
<use xlink:href="#f1_28" transform="matrix(12,0,0,12,360.9,891.3)" />
<use xlink:href="#f1_21" transform="matrix(12,0,0,12,365.7,891.3)" />
<use xlink:href="#f1_2g" transform="matrix(12,0,0,12,378.6,891.3)" />
<use xlink:href="#f1_24" transform="matrix(12,0,0,12,384,891.3)" />
<use xlink:href="#f1_1x" transform="matrix(12,0,0,12,392.8,891.3)" />
<use xlink:href="#f1_2g" transform="matrix(12,0,0,12,400.9,891.3)" />
<use xlink:href="#f1_22" transform="matrix(12,0,0,12,410.8,891.3)" />
<use xlink:href="#f1_2h" transform="matrix(12,0,0,12,416.3,891.3)" />
<use xlink:href="#f1_2a" transform="matrix(12,0,0,12,425.8,891.3)" />
<use xlink:href="#f1_1z" transform="matrix(12,0,0,12,434.6,891.3)" />
<use xlink:href="#f1_2g" transform="matrix(12,0,0,12,442.7,891.3)" />
<use xlink:href="#f1_25" transform="matrix(12,0,0,12,448.5,891.3)" />
<use xlink:href="#f1_2b" transform="matrix(12,0,0,12,452.9,891.3)" />
<use xlink:href="#f1_2a" transform="matrix(12,0,0,12,462.4,891.3)" />
<use xlink:href="#f1_2f" transform="matrix(12,0,0,12,471.2,891.3)" />
<use xlink:href="#f1_25" transform="matrix(12,0,0,12,482.9,891.3)" />
<use xlink:href="#f1_2a" transform="matrix(12,0,0,12,487.7,891.3)" />
<use xlink:href="#f1_2b" transform="matrix(12,0,0,12,501.4,891.3)" />
<use xlink:href="#f1_2f" transform="matrix(12,0,0,12,510.9,891.3)" />
<use xlink:href="#f1_29" transform="matrix(12,0,0,12,518.2,891.3)" />
<use xlink:href="#f1_2b" transform="matrix(12,0,0,12,531.8,891.3)" />
<use xlink:href="#f1_2e" transform="matrix(12,0,0,12,541.3,891.3)" />
<use xlink:href="#f1_21" transform="matrix(12,0,0,12,547.5,891.3)" />
<use xlink:href="#f1_23" transform="matrix(12,0,0,12,555.6,891.3)" />
<use xlink:href="#f1_2h" transform="matrix(12,0,0,12,564.8,891.3)" />
<use xlink:href="#f1_28" transform="matrix(12,0,0,12,574.3,891.3)" />
<use xlink:href="#f1_1x" transform="matrix(12,0,0,12,578.7,891.3)" />
<use xlink:href="#f1_2g" transform="matrix(12,0,0,12,586.8,891.3)" />
<use xlink:href="#f1_25" transform="matrix(12,0,0,12,592.6,891.3)" />
<use xlink:href="#f1_2b" transform="matrix(12,0,0,12,597,891.3)" />
<use xlink:href="#f1_2a" transform="matrix(12,0,0,12,606.5,891.3)" />
<use xlink:href="#f1_i" transform="matrix(12,0,0,12,615.3,891.3)" />
<use xlink:href="#f1_19" transform="matrix(12,0,0,12,624.5,891.3)" />
<use xlink:href="#f1_2g" transform="matrix(12,0,0,12,630.7,891.3)" />
<use xlink:href="#f1_2c" transform="matrix(12,0,0,12,640.6,891.3)" />
<use xlink:href="#f1_2h" transform="matrix(12,0,0,12,649.7,891.3)" />
<use xlink:href="#f1_29" transform="matrix(12,0,0,12,658.9,891.3)" />
<use xlink:href="#f1_2c" transform="matrix(12,0,0,12,672.5,891.3)" />
<use xlink:href="#f1_2f" transform="matrix(12,0,0,12,681.6,891.3)" />
<use xlink:href="#f1_21" transform="matrix(12,0,0,12,693,891.3)" />
<use xlink:href="#f1_2k" transform="matrix(12,0,0,12,701.4,891.3)" />
<use xlink:href="#f1_1z" transform="matrix(12,0,0,12,710.2,891.3)" />
<use xlink:href="#f1_21" transform="matrix(12,0,0,12,718.3,891.3)" />
<use xlink:href="#f1_2f" transform="matrix(12,0,0,12,726.7,891.3)" />
<use xlink:href="#f1_2f" transform="matrix(12,0,0,12,733.7,891.3)" />
<use xlink:href="#f1_2b" transform="matrix(12,0,0,12,745,891.3)" />
<use xlink:href="#f1_22" transform="matrix(12,0,0,12,754.9,891.3)" />
<use xlink:href="#f1_2j" transform="matrix(12,0,0,12,764.8,891.3)" />
<use xlink:href="#f1_1x" transform="matrix(12,0,0,12,778,891.3)" />
<use xlink:href="#f1_2g" transform="matrix(12,0,0,12,786.1,891.3)" />
<use xlink:href="#f1_21" transform="matrix(12,0,0,12,791.6,891.3)" />
<use xlink:href="#f1_2e" transform="matrix(12,0,0,12,799.6,891.3)" />
<use xlink:href="#f1_2b" transform="matrix(12,0,0,12,809.9,891.3)" />
<use xlink:href="#f1_2h" transform="matrix(12,0,0,12,819.4,891.3)" />
<use xlink:href="#f1_2g" transform="matrix(12,0,0,12,828.2,891.3)" />
<use xlink:href="#f1_2b" transform="matrix(12,0,0,12,837.7,891.3)" />
<use xlink:href="#f1_22" transform="matrix(12,0,0,12,847.2,891.3)" />
<use xlink:href="#f1_2g" transform="matrix(12,0,0,12,857.1,891.3)" />
<use xlink:href="#f1_24" transform="matrix(12,0,0,12,862.6,891.3)" />
<use xlink:href="#f1_21" transform="matrix(12,0,0,12,871.4,891.3)" />
<use xlink:href="#f1_1z" transform="matrix(12,0,0,12,55,922.8)" />
<use xlink:href="#f1_21" transform="matrix(12,0,0,12,63.1,922.8)" />
<use xlink:href="#f1_28" transform="matrix(12,0,0,12,71.5,922.8)" />
<use xlink:href="#f1_28" transform="matrix(12,0,0,12,76.3,922.8)" />
<use xlink:href="#f1_i" transform="matrix(12,0,0,12,81.1,922.8)" />
<use xlink:href="#f1_16" transform="matrix(12,0,0,12,90.6,922.8)" />
<use xlink:href="#f1_2b" transform="matrix(12,0,0,12,100.5,922.8)" />
<use xlink:href="#f1_2e" transform="matrix(12,0,0,12,110,922.8)" />
<use xlink:href="#f1_21" transform="matrix(12,0,0,12,120.9,922.8)" />
<use xlink:href="#f1_2k" transform="matrix(12,0,0,12,129,922.8)" />
<use xlink:href="#f1_1x" transform="matrix(12,0,0,12,137.8,922.8)" />
<use xlink:href="#f1_29" transform="matrix(12,0,0,12,146.2,922.8)" />
<use xlink:href="#f1_2c" transform="matrix(12,0,0,12,159.8,922.8)" />
<use xlink:href="#f1_28" transform="matrix(12,0,0,12,169.3,922.8)" />
<use xlink:href="#f1_21" transform="matrix(12,0,0,12,174.1,922.8)" />
<use xlink:href="#f1_g" transform="matrix(12,0,0,12,182.1,922.8)" />
<use xlink:href="#f1_25" transform="matrix(12,0,0,12,192,922.8)" />
<use xlink:href="#f1_2g" transform="matrix(12,0,0,12,196.4,922.8)" />
<use xlink:href="#f1_25" transform="matrix(12,0,0,12,207,922.8)" />
<use xlink:href="#f1_2f" transform="matrix(12,0,0,12,211.4,922.8)" />
<use xlink:href="#f1_22" transform="matrix(12,0,0,12,223.5,922.8)" />
<use xlink:href="#f1_2b" transform="matrix(12,0,0,12,229,922.8)" />
<use xlink:href="#f1_2h" transform="matrix(12,0,0,12,238.5,922.8)" />
<use xlink:href="#f1_2a" transform="matrix(12,0,0,12,247.7,922.8)" />
<use xlink:href="#f1_20" transform="matrix(12,0,0,12,256.5,922.8)" />
<use xlink:href="#f1_25" transform="matrix(12,0,0,12,270.7,922.8)" />
<use xlink:href="#f1_2a" transform="matrix(12,0,0,12,275.5,922.8)" />
<use xlink:href="#f2_11" transform="matrix(12,0,0,12,289.4,922.8)" />
<use xlink:href="#f2_29" transform="matrix(12,0,0,12,300.8,922.8)" />
<use xlink:href="#f2_2b" transform="matrix(12,0,0,12,314,922.8)" />
<use xlink:href="#f2_21" transform="matrix(12,0,0,12,323.2,922.8)" />
<use xlink:href="#f2_1y" transform="matrix(12,0,0,12,331.2,922.8)" />
<use xlink:href="#f2_1x" transform="matrix(12,0,0,12,340.4,922.8)" />
<use xlink:href="#f1_i" transform="matrix(12,0,0,12,349.6,922.8)" />
</g>
<image preserveAspectRatio="none" x="163" y="357" width="609" height="311" xlink:href="img/1.png" />
<g fill="#000000" >
<use xlink:href="#f3_p" transform="matrix(8,0,0,8,818.2,1187.9)" />
</g>
<defs>
<path d="M36,0V54L154,74V926L26,945v55H860V731H790L766,908c0,0,-36,5,-121,8c0,0,-84,2,-133,2H389V508H633l23,127h67V298H656L633,426H389V74L556,54V0Z" 
id="f0_16"
transform="scale(0.001,-0.001)" />

<path d="M34,0V49l76,18V634L38,652v49H325V67L402,49V0ZM217,831c0,0,-48,0,-81,33c0,0,-34,33,-34,82c0,0,0,48,34,81c0,0,34,33,81,33c0,0,48,0,81,-33c0,0,33,-33,33,-81c0,0,0,-47,-33,-81c0,0,-32,-34,-81,-34Z" 
id="f0_25"
transform="scale(0.001,-0.001)" />

<path d="M360,-256c0,0,108,0,167,35c0,0,59,35,59,98c0,0,0,70,-95,70H254c0,0,-65,-47,-65,-108c0,0,0,-47,46,-71c0,0,45,-24,125,-24Zm9,561c0,0,55,0,79,43c0,0,25,43,25,129c0,0,0,87,-24,127c0,0,-25,41,-80,41c0,0,-52,0,-75,-41c0,0,-24,-40,-24,-127c0,0,0,-86,23,-129c0,0,23,-43,76,-43Zm-9,-641c0,0,-153,0,-236,43c0,0,-84,44,-84,120c0,0,0,33,28,65c0,0,27,31,105,76c0,0,-44,17,-75,59c0,0,-31,43,-31,90L192,258c0,0,-133,56,-133,219c0,0,0,116,81,180c0,0,82,63,233,63c0,0,32,0,82,-6c0,0,51,-6,74,-13l168,83l26,-32L638,631c0,0,46,-57,46,-154c0,0,0,-119,-80,-182c0,0,-80,-64,-234,-64c0,0,-59,0,-114,9L238,183c0,0,1,-22,28,-41c0,0,26,-19,64,-19H493c0,0,256,0,256,-196c0,0,0,-81,-44,-139c0,0,-45,-59,-131,-92c0,0,-86,-32,-214,-32Z" 
id="f0_23"
transform="scale(0.001,-0.001)" />

<path d="M191,-20c0,0,-51,0,-88,34c0,0,-36,36,-36,88c0,0,0,52,36,88c0,0,36,36,88,36c0,0,51,0,88,-36c0,0,36,-36,36,-88c0,0,0,-51,-36,-87c0,0,-36,-35,-88,-35Z" 
id="f0_i"
transform="scale(0.001,-0.001)" />

<path d="M346,-14c0,0,-139,0,-276,29L61,258h69L169,96c0,0,29,-16,71,-26c0,0,43,-10,77,-10c0,0,172,0,172,230c0,0,0,120,-44,174c0,0,-44,53,-139,53c0,0,-53,0,-97,-19L186,488H111v512H633V834H194V571c0,0,91,21,164,21c0,0,178,0,264,-74c0,0,86,-73,86,-220c0,0,0,-151,-94,-232c0,0,-93,-80,-268,-80Z" 
id="f0_p"
transform="scale(0.001,-0.001)" />

<path d="M410,-14c0,0,-86,0,-175,14C235,0,145,14,81,38V307h66L181,146c0,0,31,-37,94,-62c0,0,64,-24,132,-24c0,0,214,0,214,177c0,0,0,55,-41,93c0,0,-41,38,-128,68c0,0,-128,42,-185,68c0,0,-56,27,-95,63c0,0,-38,36,-62,87c0,0,-23,51,-23,125c0,0,0,132,90,201c0,0,90,69,263,69c0,0,125,0,278,-32V741H651L618,878c0,0,-76,56,-178,56c0,0,-92,0,-141,-34c0,0,-49,-34,-49,-104c0,0,0,-50,41,-86c0,0,41,-35,128,-63c0,0,171,-56,235,-97c0,0,64,-41,97,-103c0,0,34,-61,34,-143c0,0,0,-318,-375,-318Z" 
id="f0_1j"
transform="scale(0.001,-0.001)" />

<path d="M327,-14c0,0,-101,0,-156,45c0,0,-55,45,-55,131V624H25v48l108,29l87,159H332V701H480V624H332V176c0,0,0,-49,20,-73c0,0,20,-25,53,-25c0,0,40,0,97,12V26c0,0,-22,-15,-76,-27c0,0,-55,-13,-99,-13Z" 
id="f0_2g"
transform="scale(0.001,-0.001)" />

<path d="M41,0V49l91,18V634L41,652v49H336l8,-145c0,0,80,89,144,128c0,0,64,40,117,40h40V468H604l-45,94c0,0,-47,0,-106,-21c0,0,-60,-20,-105,-48V67L460,49V0Z" 
id="f0_2e"
transform="scale(0.001,-0.001)" />

<path d="M287,-18c0,0,-194,0,-194,206V634L23,652v49H309V217c0,0,0,-63,26,-98c0,0,27,-35,76,-35c0,0,57,0,113,25V634l-64,18v49H740V67L809,49V0H536L526,61L475,35c0,0,-104,-53,-188,-53Z" 
id="f0_2h"
transform="scale(0.001,-0.001)" />

<path d="M425,-14c0,0,-187,0,-280,90c0,0,-93,90,-93,276c0,0,0,115,42,198c0,0,43,82,121,126c0,0,78,44,182,44c0,0,104,0,227,-26V486H571L539,609c0,0,-25,19,-50,26c0,0,-24,7,-65,7c0,0,-44,0,-79,-35c0,0,-36,-35,-56,-98c0,0,-20,-64,-20,-153c0,0,0,-150,47,-214c0,0,47,-64,148,-64c0,0,103,0,176,21V42C640,42,606,15,547,0c0,0,-59,-14,-122,-14Z" 
id="f0_1z"
transform="scale(0.001,-0.001)" />

<path d="M434,423c0,0,0,101,-7,142c0,0,-6,40,-22,60c0,0,-16,19,-45,19c0,0,-44,0,-66,-48c0,0,-22,-49,-22,-173ZM389,-14c0,0,-172,0,-254,89c0,0,-83,90,-83,279c0,0,0,184,79,274c0,0,79,91,238,91c0,0,142,0,206,-76c0,0,64,-76,64,-237V345H271V333c0,0,0,-111,18,-158c0,0,18,-47,58,-72c0,0,40,-25,110,-25c0,0,66,0,166,22V42C623,42,582,18,517,1c0,0,-66,-15,-128,-15Z" 
id="f0_21"
transform="scale(0.001,-0.001)" />

<path d="M379,60c0,0,59,0,84,64c0,0,24,65,24,231c0,0,0,164,-24,227c0,0,-24,63,-84,63c0,0,-57,0,-80,-60c0,0,-22,-61,-22,-230c0,0,0,-173,23,-234c0,0,22,-61,79,-61Zm-2,-74c0,0,-161,0,-240,91c0,0,-79,91,-79,277c0,0,0,186,80,276c0,0,81,90,245,90c0,0,167,0,245,-93c0,0,78,-93,78,-273c0,0,0,-188,-81,-278c0,0,-81,-90,-248,-90Z" 
id="f0_2b"
transform="scale(0.001,-0.001)" />

<path d="M41,0V49l76,18V624H11v51l106,29v75c0,0,0,144,73,220c0,0,73,77,210,77c0,0,74,0,124,-15V894H476l-22,81c0,0,-18,17,-47,17c0,0,-74,0,-74,-189V701H475V624H333V67L447,49V0Z" 
id="f0_22"
transform="scale(0.001,-0.001)" />

<path d="M614,-14c0,0,-163,0,-285,59c0,0,-122,60,-188,174c0,0,-66,114,-66,269c0,0,0,252,143,387c0,0,144,136,410,136c0,0,65,0,118,-5c0,0,54,-5,100,-14c0,0,46,-9,170,-44V718H949L931,848c0,0,-59,40,-130,62c0,0,-71,23,-146,23c0,0,-174,0,-253,-108c0,0,-80,-108,-80,-335c0,0,0,-211,84,-319c0,0,84,-108,243,-108c0,0,87,0,165,26V377L686,397v55h461V397l-98,-20V52C1049,52,956,22,834,4C834,4,712,-14,614,-14Z" 
id="f0_17"
transform="scale(0.001,-0.001)" />

<path d="M30,0V49l76,18V992l-72,18v50H322V67L398,49V0Z" 
id="f0_28"
transform="scale(0.001,-0.001)" />

<path d="M345,75c0,0,50,0,110,26V351l-63,-2c0,0,-72,-3,-100,-38c0,0,-28,-35,-28,-113c0,0,0,-63,22,-93c0,0,23,-30,59,-30ZM266,-14c0,0,-217,0,-217,208c0,0,0,79,32,126c0,0,32,48,93,71c0,0,60,22,190,25l91,2V521c0,0,0,126,-104,126c0,0,-62,0,-140,-39L183,521H134V691c0,0,112,17,165,21c0,0,53,5,108,5c0,0,264,0,264,-194V67L741,49V0H483L466,54C466,54,408,14,361,0c0,0,-47,-14,-95,-14Z" 
id="f0_1x"
transform="scale(0.001,-0.001)" />

<path d="M438,65c0,0,131,0,131,293c0,0,0,279,-130,279c0,0,-69,0,-127,-29V80c0,0,60,-15,126,-15ZM20,-325v50l76,18V634L19,652v49H304l1,-36c0,0,80,55,194,55c0,0,146,0,218,-86c0,0,71,-86,71,-271c0,0,0,-183,-83,-280c0,0,-83,-97,-238,-97c0,0,-79,0,-160,19c0,0,5,-48,5,-109V-257l103,-18v-50Z" 
id="f0_2c"
transform="scale(0.001,-0.001)" />

<path d="M276,-14c0,0,-57,0,-125,13C151,-1,83,10,48,23V214H97l28,-98c0,0,26,-26,69,-44c0,0,42,-17,86,-17c0,0,65,0,97,28c0,0,32,28,32,71c0,0,0,41,-31,65c0,0,-30,25,-133,57c0,0,-108,34,-154,92c0,0,-45,58,-45,143c0,0,0,95,71,152c0,0,71,57,183,57c0,0,77,0,207,-22V518H457l-24,82c0,0,-21,22,-60,35c0,0,-40,14,-75,14c0,0,-53,0,-79,-22c0,0,-26,-22,-26,-59c0,0,0,-40,32,-65c0,0,32,-26,132,-55c0,0,109,-34,155,-89c0,0,45,-55,45,-137c0,0,0,-117,-72,-177c0,0,-72,-59,-209,-59Z" 
id="f0_2f"
transform="scale(0.001,-0.001)" />

<path d="M26,0V54L154,74V926L27,945v55H544V945L389,926V79H593c0,0,159,0,234,15l61,208h67L927,0Z" 
id="f0_1c"
transform="scale(0.001,-0.001)" />

<path d="M159,-329c0,0,-61,0,-123,14v180H81l32,-94c0,0,21,-17,55,-17c0,0,28,0,50,13c0,0,21,14,40,39c0,0,20,25,37,62c0,0,17,37,50,110L64,634L15,652v49H374V652L290,632L455,244L602,634l-82,18v49H749V652L698,637L421,-44c0,0,-47,-121,-83,-176c0,0,-36,-55,-80,-82c0,0,-43,-27,-99,-27Z" 
id="f0_2l"
transform="scale(0.001,-0.001)" />

<path d="M41,0V49l69,18V634L41,652v49H313l11,-61l50,26c0,0,105,54,188,54c0,0,125,0,167,-91c0,0,153,91,258,91c0,0,189,0,189,-207V67l71,-17V0H898V50l63,17V484c0,0,0,63,-24,98c0,0,-25,35,-74,35c0,0,-55,0,-119,-31c0,0,7,-32,7,-73V67L821,50V0H473V50l63,17V484c0,0,0,63,-25,98c0,0,-24,35,-73,35c0,0,-49,0,-113,-29V67L389,49V0Z" 
id="f0_29"
transform="scale(0.001,-0.001)" />

<path d="M55,0V40L184,60V941L55,960v40H455V960L327,941V60L455,40V0Z" 
id="f1_19"
transform="scale(0.001,-0.001)" />

<path d="M249,-14c0,0,-71,0,-107,42c0,0,-35,42,-35,119V639H15v33l93,29l76,159h47V701H391V639H231V161c0,0,0,-48,22,-73c0,0,22,-24,57,-24c0,0,44,0,106,12V26C416,26,389,8,340,-2c0,0,-49,-12,-91,-12Z" 
id="f1_2g"
transform="scale(0.001,-0.001)" />

<path d="M32,0V33L151,52V649L52,668v33H275V52L395,33V0ZM201,850c0,0,-32,0,-56,24c0,0,-24,24,-24,56c0,0,0,34,24,58c0,0,24,24,56,24c0,0,34,0,58,-24c0,0,24,-24,24,-58c0,0,0,-32,-24,-56c0,0,-24,-24,-58,-24Z" 
id="f1_25"
transform="scale(0.001,-0.001)" />

<path d="M278,-14c0,0,-52,0,-115,11c0,0,-63,10,-99,23V193H98L134,95c0,0,56,-50,146,-50c0,0,144,0,144,123c0,0,0,91,-114,130l-66,21c0,0,-75,25,-110,50c0,0,-34,26,-53,63c0,0,-18,36,-18,89c0,0,0,92,63,145c0,0,63,54,170,54c0,0,77,0,193,-23V544H454l-32,81c0,0,-39,35,-124,35c0,0,-61,0,-92,-30c0,0,-32,-30,-32,-80c0,0,0,-43,29,-72c0,0,28,-29,86,-48c0,0,110,-38,144,-55c0,0,33,-17,57,-42c0,0,23,-25,36,-57c0,0,13,-32,13,-79c0,0,0,-104,-66,-158c0,0,-66,-53,-195,-53Z" 
id="f1_2f"
transform="scale(0.001,-0.001)" />

<path d="M284,67c0,0,51,0,88,12c0,0,37,12,74,30V358l-98,-3c0,0,-100,-4,-135,-39c0,0,-35,-35,-35,-117c0,0,0,-132,106,-132ZM233,-14c0,0,-179,0,-179,208c0,0,0,70,27,116c0,0,27,46,87,70c0,0,60,24,173,27l105,3V519c0,0,0,72,-26,107c0,0,-27,34,-82,34c0,0,-75,0,-137,-35L176,538H134V691c0,0,121,26,213,26c0,0,115,0,169,-47c0,0,54,-47,54,-144V52L657,33V0H465L451,70c0,0,-85,-84,-218,-84Z" 
id="f1_1x"
transform="scale(0.001,-0.001)" />

<path d="M439,0V33l93,19V500c0,0,0,62,-30,97c0,0,-31,36,-94,36c0,0,-67,0,-165,-22V52L338,33V0H35V33l84,19V649L35,668v33H235l7,-57c0,0,57,33,122,54c0,0,65,22,108,22c0,0,91,0,137,-53c0,0,47,-53,47,-154V52L741,33V0Z" 
id="f1_2a"
transform="scale(0.001,-0.001)" />

<path d="M359,-270c0,0,124,0,192,46c0,0,67,47,67,129c0,0,0,43,-26,67c0,0,-26,24,-79,24H242c0,0,-32,-27,-51,-69c0,0,-20,-41,-20,-77c0,0,0,-64,46,-92c0,0,46,-28,142,-28Zm11,561c0,0,81,0,115,47c0,0,34,47,34,141c0,0,0,100,-35,142c0,0,-35,42,-113,42c0,0,-78,0,-114,-43c0,0,-37,-42,-37,-141c0,0,0,-98,36,-143c0,0,36,-45,114,-45ZM359,-329c0,0,-143,0,-218,44c0,0,-75,43,-75,125c0,0,0,39,27,78c0,0,26,38,98,89c0,0,-43,14,-72,48c0,0,-29,35,-29,74L208,262c0,0,-118,55,-118,217c0,0,0,115,73,178c0,0,73,63,211,63c0,0,28,0,71,-6c0,0,44,-6,67,-13l165,83l26,-32L599,644c0,0,50,-56,50,-165c0,0,0,-120,-72,-182c0,0,-73,-62,-208,-62c0,0,-62,0,-114,11L208,148c0,0,2,-13,29,-24c0,0,27,-12,67,-12H512c0,0,113,0,168,-49c0,0,55,-49,55,-134c0,0,0,-79,-44,-137c0,0,-43,-58,-128,-90c0,0,-84,-31,-204,-31Z" 
id="f1_23"
transform="scale(0.001,-0.001)" />

<path d="M31,0V33L150,52v956L31,1026v34H274V52L394,33V0Z" 
id="f1_28"
transform="scale(0.001,-0.001)" />

<path d="M495,413c0,0,0,133,-34,190c0,0,-34,57,-105,57c0,0,-78,0,-119,-63c0,0,-42,-62,-42,-184ZM374,-14c0,0,-163,0,-239,87c0,0,-75,88,-75,283c0,0,0,183,77,273c0,0,76,91,219,91c0,0,269,0,269,-306V353H194V340c0,0,0,-103,23,-160c0,0,22,-57,70,-87c0,0,47,-29,124,-29c0,0,40,0,96,6c0,0,55,7,91,15V43C598,43,562,20,500,3c0,0,-61,-17,-126,-17Z" 
id="f1_21"
transform="scale(0.001,-0.001)" />

<path d="M431,0V33L535,52V499c0,0,0,62,-32,96c0,0,-32,33,-95,33c0,0,-66,0,-163,-22V52L350,33V0H32V33l89,19V649L32,668v33H237l6,-57c0,0,56,32,119,54c0,0,62,22,110,22c0,0,52,0,95,-20c0,0,44,-19,66,-62c0,0,57,32,134,57c0,0,77,25,128,25c0,0,179,0,179,-207V52l90,-19V0H846V33L950,52V499c0,0,0,129,-119,129c0,0,-19,0,-45,-3c0,0,-26,-3,-52,-7c0,0,-25,-4,-49,-8c0,0,-23,-5,-39,-8c0,0,13,-41,13,-89V52L764,33V0Z" 
id="f1_29"
transform="scale(0.001,-0.001)" />

<path d="M376,50c0,0,103,0,149,80c0,0,46,81,46,240c0,0,0,137,-47,204c0,0,-48,67,-148,67c0,0,-44,0,-87,-7c0,0,-44,-8,-63,-17V62c0,0,63,-12,150,-12Zm3,-64c0,0,-64,0,-141,14c0,0,-78,14,-136,37v971L0,1026v34H226V809c0,0,0,-40,-4,-148c0,0,74,59,188,59c0,0,143,0,219,-87c0,0,77,-87,77,-263c0,0,0,-189,-84,-287c0,0,-84,-97,-243,-97Z" 
id="f1_1y"
transform="scale(0.001,-0.001)" />

<path d="M31,0V33l88,19V649L31,668v33H235l7,-87c0,0,44,37,121,71c0,0,76,35,121,35h11V530H463l-43,82c0,0,-37,0,-88,-10c0,0,-52,-10,-89,-26V52L363,33V0Z" 
id="f1_2e"
transform="scale(0.001,-0.001)" />

<path d="M399,-14c0,0,-341,0,-341,370c0,0,0,175,87,269c0,0,87,95,249,95c0,0,101,0,220,-23V501H573L541,625c0,0,-62,35,-149,35c0,0,-200,0,-200,-304c0,0,0,-158,61,-225c0,0,61,-67,189,-67c0,0,109,0,189,24V43C631,43,595,16,530,1c0,0,-64,-15,-131,-15Z" 
id="f1_1z"
transform="scale(0.001,-0.001)" />

<path d="M377,45c0,0,99,0,147,73c0,0,47,73,47,237c0,0,0,161,-47,233c0,0,-47,72,-147,72c0,0,-97,0,-141,-69c0,0,-44,-69,-44,-236c0,0,0,-169,45,-240c0,0,44,-70,140,-70Zm0,-59c0,0,-158,0,-238,94c0,0,-81,95,-81,274c0,0,0,178,81,272c0,0,80,94,244,94c0,0,160,0,241,-92c0,0,82,-92,82,-274c0,0,0,-368,-329,-368Z" 
id="f1_2b"
transform="scale(0.001,-0.001)" />

<path d="M383,64c0,0,85,0,152,28V645c0,0,-67,13,-152,13c0,0,-194,0,-194,-314c0,0,0,-141,48,-211c0,0,48,-69,146,-69ZM342,-14c0,0,-287,0,-287,358c0,0,0,184,82,280c0,0,81,96,239,96c0,0,81,0,163,-18c0,0,-4,25,-4,124v182l-118,18v34H659V52L745,33V0H548l-9,52c0,0,-84,-66,-197,-66Z" 
id="f1_20"
transform="scale(0.001,-0.001)" />

<path d="M327,-14L84,649L1,668v33H335V668L219,648L385,174L554,632h63L786,171L944,649L830,668v33h267V668l-78,-16L784,-14H726L553,448L382,-14Z" 
id="f1_2j"
transform="scale(0.001,-0.001)" />

<path d="M442,0V33l93,19V504c0,0,0,129,-124,129c0,0,-70,0,-168,-22V52L338,33V0H31V33l88,19v956L15,1026v34H243V756c0,0,0,-77,-5,-112c0,0,54,31,122,53c0,0,68,23,115,23c0,0,91,0,137,-53c0,0,47,-53,47,-154V52L744,33V0Z" 
id="f1_24"
transform="scale(0.001,-0.001)" />

<path d="M148,-329c0,0,-58,0,-114,13v151H69l24,-71c0,0,23,-17,64,-17c0,0,39,0,72,22c0,0,33,23,60,67c0,0,27,44,68,157L90,649L19,668v33H344V668L233,648L423,158L606,649L497,668v33H758V668L685,652L411,-43c0,0,-48,-124,-84,-177c0,0,-36,-54,-79,-82c0,0,-44,-27,-100,-27Z" 
id="f1_2l"
transform="scale(0.001,-0.001)" />

<path d="M41,0V34L426,641H261c0,0,-42,0,-80,-7c0,0,-39,-7,-54,-19L104,515H69V701H586V665L201,60H407c0,0,42,0,89,10c0,0,47,10,66,25l39,147h35L617,0Z" 
id="f1_2m"
transform="scale(0.001,-0.001)" />

<path d="M191,-20c0,0,-39,0,-65,25c0,0,-25,27,-25,64c0,0,0,38,26,64c0,0,26,26,64,26c0,0,38,0,64,-26c0,0,26,-26,26,-64c0,0,0,-37,-25,-64c0,0,-26,-25,-65,-25Z" 
id="f1_i"
transform="scale(0.001,-0.001)" />

<path d="M44,0V40L172,60V941L44,960v40H445V960L316,941V549H787V941L659,960v40h400V960L930,941V60L1059,40V0H659V40L787,60V481H316V60L445,40V0Z" 
id="f1_18"
transform="scale(0.001,-0.001)" />

<path d="M289,-14c0,0,-179,0,-179,205V649L20,668v33H233V200c0,0,0,-128,120,-128c0,0,92,0,173,23V649L420,668v33H649V52L738,33V0H533l-6,57C527,57,474,28,405,7c0,0,-69,-21,-116,-21Z" 
id="f1_2h"
transform="scale(0.001,-0.001)" />

<path d="M382,45c0,0,188,0,188,314c0,0,0,143,-47,213c0,0,-46,69,-141,69c0,0,-87,0,-146,-24V58c0,0,67,-13,146,-13ZM25,-325v35l88,18V649L34,668v33H231l1,-41c0,0,31,27,84,43c0,0,53,17,107,17c0,0,134,0,208,-94c0,0,73,-93,73,-267c0,0,0,-178,-80,-276c0,0,-80,-97,-232,-97c0,0,-84,0,-160,16c0,0,4,-53,4,-84V-272l123,-18v-35Z" 
id="f1_2c"
transform="scale(0.001,-0.001)" />

<path d="M58,-234v58c0,0,131,42,131,125c0,0,0,15,-11,27c0,0,-11,12,-38,25C140,1,89,27,89,75c0,0,0,40,25,61c0,0,26,21,65,21c0,0,48,0,77,-34c0,0,30,-34,30,-86c0,0,0,-101,-60,-170c0,0,-59,-69,-168,-101Z" 
id="f1_g"
transform="scale(0.001,-0.001)" />

<path d="M235,0V40L394,60V936H356c0,0,-189,0,-258,-15L78,766H28v234H908V766H857L837,921c0,0,-22,5,-98,9c0,0,-75,4,-165,4H538V60L697,40V0Z" 
id="f1_1k"
transform="scale(0.001,-0.001)" />

<path d="M360,-14L72,649L0,668v33H327V668L216,648L420,164L615,649L504,668v33H764V668L697,652L416,-14Z" 
id="f1_2i"
transform="scale(0.001,-0.001)" />

<path d="M64,0V34L168,59V639H47v36l121,29v49c0,0,0,155,61,239c0,0,62,84,173,84c0,0,58,0,107,-15V908H472l-33,92c0,0,-26,16,-62,16c0,0,-47,0,-66,-42c0,0,-19,-42,-19,-157V701H478V639H292V59L443,34V0Z" 
id="f1_22"
transform="scale(0.001,-0.001)" />

<path d="M350,-14c0,0,-142,0,-253,31L89,228h49L172,87c0,0,32,-18,78,-29c0,0,46,-11,88,-11c0,0,118,0,173,56c0,0,56,55,56,187c0,0,0,93,-24,140c0,0,-24,47,-76,70c0,0,-52,22,-140,22c0,0,-68,0,-133,-18H122v496H630V886H189V567c0,0,81,18,173,18c0,0,173,0,258,-71c0,0,84,-71,84,-216c0,0,0,-151,-92,-232c0,0,-91,-80,-262,-80Z" 
id="f1_p"
transform="scale(0.001,-0.001)" />

<path d="M377,45c0,0,99,0,145,108c0,0,46,109,46,352c0,0,0,240,-45,345c0,0,-46,106,-146,106c0,0,-97,0,-139,-100c0,0,-43,-99,-43,-351c0,0,0,-254,44,-357c0,0,43,-103,138,-103Zm0,-59c0,0,-158,0,-238,132c0,0,-81,133,-81,386c0,0,0,249,81,380c0,0,80,132,244,132c0,0,159,0,241,-130c0,0,82,-130,82,-382c0,0,0,-518,-329,-518Z" 
id="f1_k"
transform="scale(0.001,-0.001)" />

<path d="M681,416L504,902L333,416ZM669,0V40L803,60L704,348H310L210,60L344,40V0H15V40L128,60l341,949H611L965,60L1092,40V0Z" 
id="f1_11"
transform="scale(0.001,-0.001)" />

<path d="M394,460c0,0,126,0,186,57c0,0,60,57,60,187c0,0,0,123,-57,176c0,0,-58,53,-194,53H316V460ZM54,0V40L172,60V941L44,960v40H421c0,0,368,0,368,-295c0,0,0,-153,-93,-233c0,0,-93,-80,-267,-80H316V60L475,40V0Z" 
id="f1_1g"
transform="scale(0.001,-0.001)" />

<path d="M44,0V40L172,60V941L44,960v40H471V960L316,941V65H513c0,0,159,0,234,14l46,208h48L828,0Z" 
id="f1_1c"
transform="scale(0.001,-0.001)" />

<path d="M13,0V34L95,46L325,350L122,649L40,668v33H357V668L264,648L399,446L554,649l-96,19v33H710V668L630,652L433,397L663,50L745,34V0H427V34l94,17L359,299L169,50L266,34V0Z" 
id="f1_2k"
transform="scale(0.001,-0.001)" />

<path d="M404,60c0,0,54,0,75,59c0,0,21,59,21,177c0,0,0,106,-29,162c0,0,-29,57,-87,57c0,0,-55,0,-112,-17v-4c0,0,0,-434,132,-434Zm3,-74c0,0,-172,0,-263,130c0,0,-92,130,-92,378c0,0,0,161,48,278c0,0,48,117,135,178c0,0,87,61,199,61c0,0,117,0,225,-32V751H594L562,896c0,0,-52,39,-113,39c0,0,-75,0,-121,-95c0,0,-47,-96,-55,-267c0,0,81,35,161,35c0,0,137,0,211,-77c0,0,74,-77,74,-220c0,0,0,-158,-81,-242c0,0,-81,-83,-231,-83Z" 
id="f0_q"
transform="scale(0.001,-0.001)" />

<path d="M506,-22L99,926L17,946v54H452V946L348,926L630,270L892,926L791,946v54h295V946L991,926L605,-22Z" 
id="f0_1m"
transform="scale(0.001,-0.001)" />

<path d="M54,0V40L172,60V941L44,960v40H794V760H745L721,922c0,0,-83,11,-241,11H316V516H611l23,120h46V328H634L611,449H316V60L483,40V0Z" 
id="f1_16"
transform="scale(0.001,-0.001)" />

<path d="M477,0V33l64,19L348,354L257,254V52L331,33V0H44V33l89,19v956L29,1026v34H257V338L544,647l-73,20v34H718V667L631,650L431,446L688,50L764,33V0Z" 
id="f1_27"
transform="scale(0.001,-0.001)" />

<path d="M536,-22L130,941L17,960v40H421V960L287,941L590,205L892,941L761,960v40h325V960L976,941L574,-22Z" 
id="f1_1m"
transform="scale(0.001,-0.001)" />

<path d="M577,-14c0,0,-243,0,-379,132C198,118,63,250,63,488c0,0,0,258,130,391c0,0,131,132,387,132c0,0,156,0,335,-38l5,-218H871L848,884c0,0,-52,32,-121,50c0,0,-69,17,-141,17c0,0,-191,0,-279,-112c0,0,-88,-113,-88,-349c0,0,0,-217,92,-332c0,0,92,-115,268,-115c0,0,85,0,160,20c0,0,76,21,120,55l27,149h49L930,32c0,0,-164,-46,-353,-46Z" 
id="f1_13"
transform="scale(0.001,-0.001)" />

<path d="M631,416L539,902L283,416ZM576,0l8,40L691,60L643,348H249L96,60L197,40L189,0H-83l8,40L7,60l509,949H659L845,60L938,40L930,0Z" 
id="f2_11"
transform="scale(0.001,-0.001)" />

<path d="M55,0L169,649L81,668l6,33H295L274,557c0,0,52,73,117,118c0,0,65,45,122,45c0,0,66,0,102,-42c0,0,36,-41,36,-121c0,0,51,72,115,117c0,0,64,46,123,46c0,0,63,0,99,-40c0,0,36,-40,36,-116c0,0,0,-16,-3,-42c0,0,-3,-27,-80,-470l98,-19L1032,0H808l77,434c0,0,17,90,17,124c0,0,0,34,-16,54c0,0,-15,21,-49,21c0,0,-33,0,-78,-32c0,0,-46,-31,-83,-80c0,0,-37,-49,-44,-91L558,0H434l76,434c0,0,19,98,19,124c0,0,0,34,-17,54c0,0,-16,21,-51,21c0,0,-33,0,-81,-34c0,0,-47,-33,-84,-80c0,0,-36,-48,-43,-89L179,0Z" 
id="f2_29"
transform="scale(0.001,-0.001)" />

<path d="M325,47c0,0,68,0,130,54c0,0,61,55,97,149c0,0,36,94,36,202c0,0,0,103,-39,156c0,0,-39,53,-113,53c0,0,-67,0,-128,-54c0,0,-61,-55,-96,-149c0,0,-35,-94,-35,-204c0,0,0,-101,39,-154c0,0,39,-53,109,-53Zm-6,-61c0,0,-124,0,-199,79c0,0,-74,79,-74,214c0,0,0,120,51,222c0,0,51,102,143,160c0,0,91,59,205,59c0,0,124,0,199,-80c0,0,74,-79,74,-214c0,0,0,-120,-51,-222C667,204,615,102,524,43c0,0,-91,-57,-205,-57Z" 
id="f2_2b"
transform="scale(0.001,-0.001)" />

<path d="M188,355c0,0,148,11,236,69c0,0,89,58,89,143c0,0,0,41,-23,68c0,0,-22,27,-66,27c0,0,-52,0,-101,-43c0,0,-49,-42,-85,-114c0,0,-36,-71,-50,-150ZM298,-14c0,0,-120,0,-186,67c0,0,-65,67,-65,193c0,0,0,125,53,232c0,0,52,108,145,175c0,0,94,67,196,67c0,0,92,0,147,-42c0,0,56,-43,56,-111c0,0,0,-102,-126,-173c0,0,-125,-72,-336,-86l-3,-54c0,0,0,-95,40,-143c0,0,40,-47,118,-47c0,0,67,0,124,22c0,0,57,23,106,52l22,-32c0,0,-69,-58,-146,-89c0,0,-76,-31,-145,-31Z" 
id="f2_21"
transform="scale(0.001,-0.001)" />

<path d="M305,45c0,0,76,0,141,56c0,0,64,56,101,151c0,0,37,95,37,200c0,0,0,83,-35,129c0,0,-34,46,-92,46c0,0,-44,0,-96,-29c0,0,-51,-29,-97,-75L185,81c0,0,43,-36,120,-36ZM295,-14c0,0,-65,0,-128,16C167,2,104,19,57,48l171,960l-100,18l6,34H358L303,731c0,0,-13,-85,-29,-144c0,0,59,61,122,97c0,0,64,36,116,36c0,0,94,0,150,-67c0,0,56,-67,56,-182c0,0,0,-129,-56,-242C662,229,606,115,509,50c0,0,-98,-64,-214,-64Z" 
id="f2_1y"
transform="scale(0.001,-0.001)" />

<path d="M301,78c0,0,85,0,185,104l81,442c0,0,-29,20,-55,28c0,0,-25,8,-62,8c0,0,-75,0,-137,-56c0,0,-62,-56,-98,-152c0,0,-36,-95,-36,-199c0,0,0,-79,33,-127c0,0,33,-48,89,-48ZM245,-14c0,0,-90,0,-145,66c0,0,-54,66,-54,182c0,0,0,131,57,244c0,0,57,114,152,178c0,0,96,64,208,64c0,0,90,0,170,-33l33,26h40L589,52L673,33L667,0H454l22,117C476,117,350,-14,245,-14Z" 
id="f2_1x"
transform="scale(0.001,-0.001)" />

<path d="M415,-18c0,0,-149,0,-244,83c0,0,-94,84,-107,222l140,11c0,0,16,-103,73,-154c0,0,56,-52,137,-52c0,0,98,0,165,73c0,0,66,73,66,194c0,0,0,115,-64,182c0,0,-64,66,-169,66c0,0,-65,0,-117,-29c0,0,-52,-30,-82,-77L87,517l106,562H736V951H300L241,657c0,0,99,69,207,69c0,0,143,0,242,-100c0,0,98,-99,98,-255c0,0,0,-149,-86,-257C702,114,597,-18,415,-18Z" 
id="f3_p"
transform="scale(0.001,-0.001)" />


</defs>
</svg>