<?xml version="1.0" encoding="UTF-8" standalone="no"?>
<!DOCTYPE svg PUBLIC "-//W3C//DTD SVG 1.1//EN"
"http://www.w3.org/Graphics/SVG/1.1/DTD/svg11.dtd">
<svg viewBox="0 0 935 1210" version="1.1" xmlns="http://www.w3.org/2000/svg" xmlns:xlink="http://www.w3.org/1999/xlink">
<defs>
<clipPath id="c0_16"><path d="M0,1210V0H935V1210Z" /></clipPath>
</defs>
<g clip-path="url(#c0_16)">
<g fill="#000000" >
<use xlink:href="#f0_p" transform="matrix(12,0,0,12,82.5,72.3)" />
<use xlink:href="#f0_i" transform="matrix(12,0,0,12,91.7,72.3)" />
<use xlink:href="#f0_1g" transform="matrix(12,0,0,12,110,72.3)" />
<use xlink:href="#f0_2e" transform="matrix(12,0,0,12,121.4,72.3)" />
<use xlink:href="#f0_2b" transform="matrix(12,0,0,12,129.1,72.3)" />
<use xlink:href="#f0_2g" transform="matrix(12,0,0,12,138.3,72.3)" />
<use xlink:href="#f0_2b" transform="matrix(12,0,0,12,144.5,72.3)" />
<use xlink:href="#f0_2m" transform="matrix(12,0,0,12,154,72.3)" />
<use xlink:href="#f0_2b" transform="matrix(12,0,0,12,161.7,72.3)" />
<use xlink:href="#f0_1x" transform="matrix(12,0,0,12,170.8,72.3)" />
<use xlink:href="#f0_2a" transform="matrix(12,0,0,12,180,72.3)" />
<use xlink:href="#f0_28" transform="matrix(12,0,0,12,195,72.3)" />
<use xlink:href="#f0_25" transform="matrix(12,0,0,12,199.8,72.3)" />
<use xlink:href="#f0_27" transform="matrix(12,0,0,12,204.9,72.3)" />
<use xlink:href="#f0_21" transform="matrix(12,0,0,12,215.2,72.3)" />
<use xlink:href="#f0_2c" transform="matrix(12,0,0,12,228,72.3)" />
<use xlink:href="#f0_2e" transform="matrix(12,0,0,12,238.2,72.3)" />
<use xlink:href="#f0_2b" transform="matrix(12,0,0,12,245.9,72.3)" />
<use xlink:href="#f0_2g" transform="matrix(12,0,0,12,255.1,72.3)" />
<use xlink:href="#f0_25" transform="matrix(12,0,0,12,261.3,72.3)" />
<use xlink:href="#f0_2f" transform="matrix(12,0,0,12,266.4,72.3)" />
<use xlink:href="#f0_2g" transform="matrix(12,0,0,12,273.4,72.3)" />
<use xlink:href="#f0_2f" transform="matrix(12,0,0,12,279.6,72.3)" />
<use xlink:href="#f1_1k" transform="matrix(12,0,0,12,55,116.3)" />
<use xlink:href="#f1_24" transform="matrix(12,0,0,12,66.4,116.3)" />
<use xlink:href="#f1_21" transform="matrix(12,0,0,12,75.2,116.3)" />
<use xlink:href="#f1_2l" transform="matrix(12,0,0,12,83.6,116.3)" />
<use xlink:href="#f1_1x" transform="matrix(12,0,0,12,96.8,116.3)" />
<use xlink:href="#f1_2e" transform="matrix(12,0,0,12,104.8,116.3)" />
<use xlink:href="#f1_21" transform="matrix(12,0,0,12,111.1,116.3)" />
<use xlink:href="#f1_24" transform="matrix(12,0,0,12,124.2,116.3)" />
<use xlink:href="#f1_21" transform="matrix(12,0,0,12,133,116.3)" />
<use xlink:href="#f1_2g" transform="matrix(12,0,0,12,141.1,116.3)" />
<use xlink:href="#f1_21" transform="matrix(12,0,0,12,146.6,116.3)" />
<use xlink:href="#f1_2e" transform="matrix(12,0,0,12,154.7,116.3)" />
<use xlink:href="#f1_2b" transform="matrix(12,0,0,12,160.9,116.3)" />
<use xlink:href="#f1_2g" transform="matrix(12,0,0,12,170,116.3)" />
<use xlink:href="#f1_2e" transform="matrix(12,0,0,12,175.1,116.3)" />
<use xlink:href="#f1_2b" transform="matrix(12,0,0,12,181,116.3)" />
<use xlink:href="#f1_2c" transform="matrix(12,0,0,12,190.6,116.3)" />
<use xlink:href="#f1_24" transform="matrix(12,0,0,12,199.7,116.3)" />
<use xlink:href="#f1_2f" transform="matrix(12,0,0,12,208.5,116.3)" />
<use xlink:href="#f1_i" transform="matrix(12,0,0,12,215.5,116.3)" />
<use xlink:href="#f1_1k" transform="matrix(12,0,0,12,225,116.3)" />
<use xlink:href="#f1_24" transform="matrix(12,0,0,12,236.3,116.3)" />
<use xlink:href="#f1_21" transform="matrix(12,0,0,12,245.1,116.3)" />
<use xlink:href="#f1_2l" transform="matrix(12,0,0,12,253.5,116.3)" />
<use xlink:href="#f1_1z" transform="matrix(12,0,0,12,266.7,116.3)" />
<use xlink:href="#f1_1x" transform="matrix(12,0,0,12,274.8,116.3)" />
<use xlink:href="#f1_2a" transform="matrix(12,0,0,12,283.2,116.3)" />
<use xlink:href="#f1_28" transform="matrix(12,0,0,12,297.1,116.3)" />
<use xlink:href="#f1_25" transform="matrix(12,0,0,12,301.9,116.3)" />
<use xlink:href="#f1_2i" transform="matrix(12,0,0,12,306.7,116.3)" />
<use xlink:href="#f1_21" transform="matrix(12,0,0,12,315.8,116.3)" />
<use xlink:href="#f1_1x" transform="matrix(12,0,0,12,328.6,116.3)" />
<use xlink:href="#f1_2f" transform="matrix(12,0,0,12,337.1,116.3)" />
<use xlink:href="#f1_2c" transform="matrix(12,0,0,12,349.2,116.3)" />
<use xlink:href="#f1_2e" transform="matrix(12,0,0,12,358.4,116.3)" />
<use xlink:href="#f1_21" transform="matrix(12,0,0,12,364.6,116.3)" />
<use xlink:href="#f1_20" transform="matrix(12,0,0,12,372.7,116.3)" />
<use xlink:href="#f1_1x" transform="matrix(12,0,0,12,381.8,116.3)" />
<use xlink:href="#f1_2g" transform="matrix(12,0,0,12,389.9,116.3)" />
<use xlink:href="#f1_2b" transform="matrix(12,0,0,12,395,116.3)" />
<use xlink:href="#f1_2e" transform="matrix(12,0,0,12,404.5,116.3)" />
<use xlink:href="#f1_2f" transform="matrix(12,0,0,12,410.8,116.3)" />
<use xlink:href="#f1_1x" transform="matrix(12,0,0,12,422.5,116.3)" />
<use xlink:href="#f1_2f" transform="matrix(12,0,0,12,430.2,116.3)" />
<use xlink:href="#f1_2j" transform="matrix(12,0,0,12,441.9,116.3)" />
<use xlink:href="#f1_21" transform="matrix(12,0,0,12,455.1,116.3)" />
<use xlink:href="#f1_28" transform="matrix(12,0,0,12,463.5,116.3)" />
<use xlink:href="#f1_28" transform="matrix(12,0,0,12,468.3,116.3)" />
<use xlink:href="#f1_1x" transform="matrix(12,0,0,12,477.8,116.3)" />
<use xlink:href="#f1_2f" transform="matrix(12,0,0,12,485.9,116.3)" />
<use xlink:href="#f1_2c" transform="matrix(12,0,0,12,497.6,116.3)" />
<use xlink:href="#f1_1x" transform="matrix(12,0,0,12,506.7,116.3)" />
<use xlink:href="#f1_2e" transform="matrix(12,0,0,12,514.8,116.3)" />
<use xlink:href="#f1_1x" transform="matrix(12,0,0,12,521,116.3)" />
<use xlink:href="#f1_2f" transform="matrix(12,0,0,12,529.1,116.3)" />
<use xlink:href="#f1_25" transform="matrix(12,0,0,12,536.4,116.3)" />
<use xlink:href="#f1_2g" transform="matrix(12,0,0,12,540.8,116.3)" />
<use xlink:href="#f1_21" transform="matrix(12,0,0,12,546.3,116.3)" />
<use xlink:href="#f1_2f" transform="matrix(12,0,0,12,554.7,116.3)" />
<use xlink:href="#f1_i" transform="matrix(12,0,0,12,561.9,116.3)" />
<use xlink:href="#f1_1k" transform="matrix(12,0,0,12,571.4,116.3)" />
<use xlink:href="#f1_24" transform="matrix(12,0,0,12,582.8,116.3)" />
<use xlink:href="#f1_21" transform="matrix(12,0,0,12,591.6,116.3)" />
<use xlink:href="#f1_2e" transform="matrix(12,0,0,12,599.7,116.3)" />
<use xlink:href="#f1_21" transform="matrix(12,0,0,12,605.9,116.3)" />
<use xlink:href="#f1_1x" transform="matrix(12,0,0,12,618.8,116.3)" />
<use xlink:href="#f1_2e" transform="matrix(12,0,0,12,626.8,116.3)" />
<use xlink:href="#f1_21" transform="matrix(12,0,0,12,633.1,116.3)" />
<use xlink:href="#f1_22" transform="matrix(12,0,0,12,645.9,116.3)" />
<use xlink:href="#f1_2b" transform="matrix(12,0,0,12,651.4,116.3)" />
<use xlink:href="#f1_2h" transform="matrix(12,0,0,12,660.9,116.3)" />
<use xlink:href="#f1_2e" transform="matrix(12,0,0,12,670.1,116.3)" />
<use xlink:href="#f1_29" transform="matrix(12,0,0,12,681,116.3)" />
<use xlink:href="#f1_1x" transform="matrix(12,0,0,12,694.6,116.3)" />
<use xlink:href="#f1_26" transform="matrix(12,0,0,12,703,116.3)" />
<use xlink:href="#f1_2b" transform="matrix(12,0,0,12,707.4,116.3)" />
<use xlink:href="#f1_2e" transform="matrix(12,0,0,12,716.9,116.3)" />
<use xlink:href="#f1_2g" transform="matrix(12,0,0,12,727.9,116.3)" />
<use xlink:href="#f1_2l" transform="matrix(12,0,0,12,733.4,116.3)" />
<use xlink:href="#f1_2c" transform="matrix(12,0,0,12,741.8,116.3)" />
<use xlink:href="#f1_21" transform="matrix(12,0,0,12,751,116.3)" />
<use xlink:href="#f1_2f" transform="matrix(12,0,0,12,759.4,116.3)" />
<use xlink:href="#f1_2b" transform="matrix(12,0,0,12,771.1,116.3)" />
<use xlink:href="#f1_22" transform="matrix(12,0,0,12,780.6,116.3)" />
<use xlink:href="#f1_2c" transform="matrix(12,0,0,12,790.9,116.3)" />
<use xlink:href="#f1_2e" transform="matrix(12,0,0,12,800,116.3)" />
<use xlink:href="#f1_2b" transform="matrix(12,0,0,12,806.2,116.3)" />
<use xlink:href="#f1_2g" transform="matrix(12,0,0,12,815.4,116.3)" />
<use xlink:href="#f1_2b" transform="matrix(12,0,0,12,820.5,116.3)" />
<use xlink:href="#f1_2m" transform="matrix(12,0,0,12,830.1,116.3)" />
<use xlink:href="#f1_2b" transform="matrix(12,0,0,12,837.8,116.3)" />
<use xlink:href="#f1_1x" transform="matrix(12,0,0,12,847.3,116.3)" />
<use xlink:href="#f1_2a" transform="matrix(12,0,0,12,855.3,116.3)" />
<use xlink:href="#f1_2f" transform="matrix(12,0,0,12,864.1,116.3)" />
<use xlink:href="#f1_22" transform="matrix(12,0,0,12,55,147.8)" />
<use xlink:href="#f1_2b" transform="matrix(12,0,0,12,60.5,147.8)" />
<use xlink:href="#f1_2h" transform="matrix(12,0,0,12,70.1,147.8)" />
<use xlink:href="#f1_2a" transform="matrix(12,0,0,12,79.6,147.8)" />
<use xlink:href="#f1_20" transform="matrix(12,0,0,12,88.4,147.8)" />
<use xlink:href="#f1_h" transform="matrix(12,0,0,12,97.6,147.8)" />
<use xlink:href="#f2_3d" transform="matrix(12,0,0,12,82.5,192.6)" />
<use xlink:href="#f0_11" transform="matrix(12,0,0,12,110,192.6)" />
<use xlink:href="#f0_29" transform="matrix(12,0,0,12,123.3,192.6)" />
<use xlink:href="#f0_2b" transform="matrix(12,0,0,12,138.3,192.6)" />
<use xlink:href="#f0_21" transform="matrix(12,0,0,12,147.4,192.6)" />
<use xlink:href="#f0_1y" transform="matrix(12,0,0,12,155.5,192.6)" />
<use xlink:href="#f0_2b" transform="matrix(12,0,0,12,165.8,192.6)" />
<use xlink:href="#f0_25" transform="matrix(12,0,0,12,174.9,192.6)" />
<use xlink:href="#f0_20" transform="matrix(12,0,0,12,180,192.6)" />
<use xlink:href="#f0_2c" transform="matrix(12,0,0,12,195.8,192.6)" />
<use xlink:href="#f0_2e" transform="matrix(12,0,0,12,206,192.6)" />
<use xlink:href="#f0_2b" transform="matrix(12,0,0,12,213.7,192.6)" />
<use xlink:href="#f0_2g" transform="matrix(12,0,0,12,222.9,192.6)" />
<use xlink:href="#f0_2b" transform="matrix(12,0,0,12,229.1,192.6)" />
<use xlink:href="#f0_2m" transform="matrix(12,0,0,12,238.6,192.6)" />
<use xlink:href="#f0_2b" transform="matrix(12,0,0,12,246.3,192.6)" />
<use xlink:href="#f0_1x" transform="matrix(12,0,0,12,255.5,192.6)" />
<use xlink:href="#f0_2a" transform="matrix(12,0,0,12,264.7,192.6)" />
<use xlink:href="#f0_2f" transform="matrix(12,0,0,12,274.9,192.6)" />
<use xlink:href="#f1_1x" transform="matrix(12,0,0,12,287.6,192.6)" />
<use xlink:href="#f1_2e" transform="matrix(12,0,0,12,295.6,192.6)" />
<use xlink:href="#f1_21" transform="matrix(12,0,0,12,301.9,192.6)" />
<use xlink:href="#f1_22" transform="matrix(12,0,0,12,315.4,192.6)" />
<use xlink:href="#f1_2b" transform="matrix(12,0,0,12,320.9,192.6)" />
<use xlink:href="#f1_2h" transform="matrix(12,0,0,12,330.4,192.6)" />
<use xlink:href="#f1_2a" transform="matrix(12,0,0,12,339.6,192.6)" />
<use xlink:href="#f1_20" transform="matrix(12,0,0,12,348.4,192.6)" />
<use xlink:href="#f1_25" transform="matrix(12,0,0,12,363.4,192.6)" />
<use xlink:href="#f1_2a" transform="matrix(12,0,0,12,368.2,192.6)" />
<use xlink:href="#f1_22" transform="matrix(12,0,0,12,383,192.6)" />
<use xlink:href="#f1_2e" transform="matrix(12,0,0,12,388.5,192.6)" />
<use xlink:href="#f1_21" transform="matrix(12,0,0,12,394.7,192.6)" />
<use xlink:href="#f1_2f" transform="matrix(12,0,0,12,403.1,192.6)" />
<use xlink:href="#f1_24" transform="matrix(12,0,0,12,410.4,192.6)" />
<use xlink:href="#f1_2j" transform="matrix(12,0,0,12,424.7,192.6)" />
<use xlink:href="#f1_1x" transform="matrix(12,0,0,12,437.9,192.6)" />
<use xlink:href="#f1_2g" transform="matrix(12,0,0,12,445.9,192.6)" />
<use xlink:href="#f1_21" transform="matrix(12,0,0,12,451.4,192.6)" />
<use xlink:href="#f1_2e" transform="matrix(12,0,0,12,459.5,192.6)" />
<use xlink:href="#f1_g" transform="matrix(12,0,0,12,465.7,192.6)" />
<use xlink:href="#f1_29" transform="matrix(12,0,0,12,475.2,192.6)" />
<use xlink:href="#f1_2b" transform="matrix(12,0,0,12,488.8,192.6)" />
<use xlink:href="#f1_25" transform="matrix(12,0,0,12,498.7,192.6)" />
<use xlink:href="#f1_2f" transform="matrix(12,0,0,12,503.4,192.6)" />
<use xlink:href="#f1_2g" transform="matrix(12,0,0,12,510.4,192.6)" />
<use xlink:href="#f1_2f" transform="matrix(12,0,0,12,521.4,192.6)" />
<use xlink:href="#f1_2b" transform="matrix(12,0,0,12,528.3,192.6)" />
<use xlink:href="#f1_25" transform="matrix(12,0,0,12,537.9,192.6)" />
<use xlink:href="#f1_28" transform="matrix(12,0,0,12,542.6,192.6)" />
<use xlink:href="#f1_g" transform="matrix(12,0,0,12,547.3,192.6)" />
<use xlink:href="#f1_2b" transform="matrix(12,0,0,12,557.5,192.6)" />
<use xlink:href="#f1_2e" transform="matrix(12,0,0,12,567.1,192.6)" />
<use xlink:href="#f1_2f" transform="matrix(12,0,0,12,578.8,192.6)" />
<use xlink:href="#f1_21" transform="matrix(12,0,0,12,585.7,192.6)" />
<use xlink:href="#f1_1x" transform="matrix(12,0,0,12,593.8,192.6)" />
<use xlink:href="#f1_2j" transform="matrix(12,0,0,12,607.3,192.6)" />
<use xlink:href="#f1_1x" transform="matrix(12,0,0,12,620.6,192.6)" />
<use xlink:href="#f1_2g" transform="matrix(12,0,0,12,628.2,192.6)" />
<use xlink:href="#f1_21" transform="matrix(12,0,0,12,633.7,192.6)" />
<use xlink:href="#f1_2e" transform="matrix(12,0,0,12,641.8,192.6)" />
<use xlink:href="#f1_i" transform="matrix(12,0,0,12,647.7,192.6)" />
<use xlink:href="#f1_1k" transform="matrix(12,0,0,12,657.7,192.6)" />
<use xlink:href="#f1_24" transform="matrix(12,0,0,12,669,192.6)" />
<use xlink:href="#f1_21" transform="matrix(12,0,0,12,677.8,192.6)" />
<use xlink:href="#f1_2l" transform="matrix(12,0,0,12,686.3,192.6)" />
<use xlink:href="#f1_2c" transform="matrix(12,0,0,12,700.2,192.6)" />
<use xlink:href="#f1_2b" transform="matrix(12,0,0,12,709.3,192.6)" />
<use xlink:href="#f1_2f" transform="matrix(12,0,0,12,718.9,192.6)" />
<use xlink:href="#f1_2f" transform="matrix(12,0,0,12,725.8,192.6)" />
<use xlink:href="#f1_21" transform="matrix(12,0,0,12,732.8,192.6)" />
<use xlink:href="#f1_2f" transform="matrix(12,0,0,12,740.9,192.6)" />
<use xlink:href="#f1_2f" transform="matrix(12,0,0,12,748.2,192.6)" />
<use xlink:href="#f1_2c" transform="matrix(12,0,0,12,760.6,192.6)" />
<use xlink:href="#f1_2f" transform="matrix(12,0,0,12,769.8,192.6)" />
<use xlink:href="#f1_21" transform="matrix(12,0,0,12,776.7,192.6)" />
<use xlink:href="#f1_2h" transform="matrix(12,0,0,12,784.8,192.6)" />
<use xlink:href="#f1_20" transform="matrix(12,0,0,12,794,192.6)" />
<use xlink:href="#f1_2b" transform="matrix(12,0,0,12,803.1,192.6)" />
<use xlink:href="#f1_2c" transform="matrix(12,0,0,12,812.7,192.6)" />
<use xlink:href="#f1_2b" transform="matrix(12,0,0,12,821.8,192.6)" />
<use xlink:href="#f1_20" transform="matrix(12,0,0,12,831.3,192.6)" />
<use xlink:href="#f1_25" transform="matrix(12,0,0,12,840.5,192.6)" />
<use xlink:href="#f1_1x" transform="matrix(12,0,0,12,845.3,192.6)" />
<use xlink:href="#f1_22" transform="matrix(12,0,0,12,858.8,192.6)" />
<use xlink:href="#f1_2b" transform="matrix(12,0,0,12,864.3,192.6)" />
<use xlink:href="#f1_2e" transform="matrix(12,0,0,12,873.8,192.6)" />
<use xlink:href="#f1_21" transform="matrix(12,0,0,12,110,224.5)" />
<use xlink:href="#f1_2a" transform="matrix(12,0,0,12,118.1,224.5)" />
<use xlink:href="#f1_23" transform="matrix(12,0,0,12,126.9,224.5)" />
<use xlink:href="#f1_2h" transform="matrix(12,0,0,12,136.1,224.5)" />
<use xlink:href="#f1_28" transform="matrix(12,0,0,12,145.6,224.5)" />
<use xlink:href="#f1_22" transform="matrix(12,0,0,12,150.7,224.5)" />
<use xlink:href="#f1_25" transform="matrix(12,0,0,12,156.9,224.5)" />
<use xlink:href="#f1_2a" transform="matrix(12,0,0,12,161.7,224.5)" />
<use xlink:href="#f1_23" transform="matrix(12,0,0,12,170.9,224.5)" />
<use xlink:href="#f1_2g" transform="matrix(12,0,0,12,184.8,224.5)" />
<use xlink:href="#f1_24" transform="matrix(12,0,0,12,190.3,224.5)" />
<use xlink:href="#f1_21" transform="matrix(12,0,0,12,199.1,224.5)" />
<use xlink:href="#f1_22" transform="matrix(12,0,0,12,211.9,224.5)" />
<use xlink:href="#f1_2b" transform="matrix(12,0,0,12,217.4,224.5)" />
<use xlink:href="#f1_2b" transform="matrix(12,0,0,12,226.9,224.5)" />
<use xlink:href="#f1_20" transform="matrix(12,0,0,12,236.4,224.5)" />
<use xlink:href="#f1_2c" transform="matrix(12,0,0,12,250.3,224.5)" />
<use xlink:href="#f1_1x" transform="matrix(12,0,0,12,259.5,224.5)" />
<use xlink:href="#f1_2e" transform="matrix(12,0,0,12,267.6,224.5)" />
<use xlink:href="#f1_2g" transform="matrix(12,0,0,12,273.4,224.5)" />
<use xlink:href="#f1_25" transform="matrix(12,0,0,12,278.9,224.5)" />
<use xlink:href="#f1_1z" transform="matrix(12,0,0,12,283.3,224.5)" />
<use xlink:href="#f1_28" transform="matrix(12,0,0,12,291.7,224.5)" />
<use xlink:href="#f1_21" transform="matrix(12,0,0,12,296.5,224.5)" />
<use xlink:href="#f1_2f" transform="matrix(12,0,0,12,304.6,224.5)" />
<use xlink:href="#f1_g" transform="matrix(12,0,0,12,311.5,224.5)" />
<use xlink:href="#f1_2f" transform="matrix(12,0,0,12,321,224.5)" />
<use xlink:href="#f1_2h" transform="matrix(12,0,0,12,328,224.5)" />
<use xlink:href="#f1_1z" transform="matrix(12,0,0,12,337.2,224.5)" />
<use xlink:href="#f1_24" transform="matrix(12,0,0,12,345.6,224.5)" />
<use xlink:href="#f1_1x" transform="matrix(12,0,0,12,359.1,224.5)" />
<use xlink:href="#f1_2f" transform="matrix(12,0,0,12,367.2,224.5)" />
<use xlink:href="#f3_11" transform="matrix(12,0,0,12,379.3,224.5)" />
<use xlink:href="#f3_29" transform="matrix(12,0,0,12,390.6,224.5)" />
<use xlink:href="#f3_2b" transform="matrix(12,0,0,12,403.9,224.5)" />
<use xlink:href="#f3_21" transform="matrix(12,0,0,12,413,224.5)" />
<use xlink:href="#f3_1y" transform="matrix(12,0,0,12,421.1,224.5)" />
<use xlink:href="#f3_1x" transform="matrix(12,0,0,12,430.2,224.5)" />
<use xlink:href="#f1_i" transform="matrix(12,0,0,12,439.4,224.5)" />
<use xlink:href="#f2_3d" transform="matrix(12,0,0,12,82.5,257.1)" />
<use xlink:href="#f0_16" transform="matrix(12,0,0,12,110,257.1)" />
<use xlink:href="#f0_28" transform="matrix(12,0,0,12,121,257.1)" />
<use xlink:href="#f0_1x" transform="matrix(12,0,0,12,125.8,257.1)" />
<use xlink:href="#f0_23" transform="matrix(12,0,0,12,135,257.1)" />
<use xlink:href="#f0_21" transform="matrix(12,0,0,12,144.5,257.1)" />
<use xlink:href="#f0_28" transform="matrix(12,0,0,12,152.6,257.1)" />
<use xlink:href="#f0_28" transform="matrix(12,0,0,12,157.6,257.1)" />
<use xlink:href="#f0_1x" transform="matrix(12,0,0,12,162.5,257.1)" />
<use xlink:href="#f0_2g" transform="matrix(12,0,0,12,171.6,257.1)" />
<use xlink:href="#f0_21" transform="matrix(12,0,0,12,177.8,257.1)" />
<use xlink:href="#f0_20" transform="matrix(12,0,0,12,185.9,257.1)" />
<use xlink:href="#f0_2c" transform="matrix(12,0,0,12,204.2,257.1)" />
<use xlink:href="#f0_2e" transform="matrix(12,0,0,12,214.4,257.1)" />
<use xlink:href="#f0_2b" transform="matrix(12,0,0,12,222.1,257.1)" />
<use xlink:href="#f0_2g" transform="matrix(12,0,0,12,231.3,257.1)" />
<use xlink:href="#f0_2b" transform="matrix(12,0,0,12,237.5,257.1)" />
<use xlink:href="#f0_2m" transform="matrix(12,0,0,12,247,257.1)" />
<use xlink:href="#f0_2b" transform="matrix(12,0,0,12,254.7,257.1)" />
<use xlink:href="#f0_1x" transform="matrix(12,0,0,12,263.9,257.1)" />
<use xlink:href="#f0_2a" transform="matrix(12,0,0,12,273.1,257.1)" />
<use xlink:href="#f0_2f" transform="matrix(12,0,0,12,283.3,257.1)" />
<use xlink:href="#f1_1z" transform="matrix(12,0,0,12,298.6,257.1)" />
<use xlink:href="#f1_1x" transform="matrix(12,0,0,12,306.6,257.1)" />
<use xlink:href="#f1_2a" transform="matrix(12,0,0,12,315.1,257.1)" />
<use xlink:href="#f1_1y" transform="matrix(12,0,0,12,331.9,257.1)" />
<use xlink:href="#f1_21" transform="matrix(12,0,0,12,341.1,257.1)" />
<use xlink:href="#f1_22" transform="matrix(12,0,0,12,357.2,257.1)" />
<use xlink:href="#f1_2e" transform="matrix(12,0,0,12,362.7,257.1)" />
<use xlink:href="#f1_21" transform="matrix(12,0,0,12,368.9,257.1)" />
<use xlink:href="#f1_21" transform="matrix(12,0,0,12,377.3,257.1)" />
<use xlink:href="#f1_h" transform="matrix(12,0,0,12,385.5,257.1)" />
<use xlink:href="#f1_28" transform="matrix(12,0,0,12,392.1,257.1)" />
<use xlink:href="#f1_25" transform="matrix(12,0,0,12,396.9,257.1)" />
<use xlink:href="#f1_2i" transform="matrix(12,0,0,12,401.7,257.1)" />
<use xlink:href="#f1_25" transform="matrix(12,0,0,12,411.2,257.1)" />
<use xlink:href="#f1_2a" transform="matrix(12,0,0,12,415.9,257.1)" />
<use xlink:href="#f1_23" transform="matrix(12,0,0,12,425.1,257.1)" />
<use xlink:href="#f1_2b" transform="matrix(12,0,0,12,442.3,257.1)" />
<use xlink:href="#f1_2e" transform="matrix(12,0,0,12,451.8,257.1)" />
<use xlink:href="#f1_2c" transform="matrix(12,0,0,12,465.7,257.1)" />
<use xlink:href="#f1_1x" transform="matrix(12,0,0,12,474.9,257.1)" />
<use xlink:href="#f1_2e" transform="matrix(12,0,0,12,482.6,257.1)" />
<use xlink:href="#f1_1x" transform="matrix(12,0,0,12,488.8,257.1)" />
<use xlink:href="#f1_2f" transform="matrix(12,0,0,12,496.9,257.1)" />
<use xlink:href="#f1_25" transform="matrix(12,0,0,12,504.2,257.1)" />
<use xlink:href="#f1_2g" transform="matrix(12,0,0,12,508.6,257.1)" />
<use xlink:href="#f1_25" transform="matrix(12,0,0,12,514.5,257.1)" />
<use xlink:href="#f1_1z" transform="matrix(12,0,0,12,518.9,257.1)" />
<use xlink:href="#f1_i" transform="matrix(12,0,0,12,526.9,257.1)" />
<use xlink:href="#f1_1k" transform="matrix(12,0,0,12,539.9,257.1)" />
<use xlink:href="#f1_24" transform="matrix(12,0,0,12,551.3,257.1)" />
<use xlink:href="#f1_25" transform="matrix(12,0,0,12,560.4,257.1)" />
<use xlink:href="#f1_2f" transform="matrix(12,0,0,12,565.2,257.1)" />
<use xlink:href="#f1_23" transform="matrix(12,0,0,12,580.2,257.1)" />
<use xlink:href="#f1_2e" transform="matrix(12,0,0,12,589.4,257.1)" />
<use xlink:href="#f1_2b" transform="matrix(12,0,0,12,595.6,257.1)" />
<use xlink:href="#f1_2h" transform="matrix(12,0,0,12,605.1,257.1)" />
<use xlink:href="#f1_2c" transform="matrix(12,0,0,12,614.3,257.1)" />
<use xlink:href="#f1_2b" transform="matrix(12,0,0,12,630.9,257.1)" />
<use xlink:href="#f1_22" transform="matrix(12,0,0,12,640.4,257.1)" />
<use xlink:href="#f1_2b" transform="matrix(12,0,0,12,653.9,257.1)" />
<use xlink:href="#f1_2e" transform="matrix(12,0,0,12,663.5,257.1)" />
<use xlink:href="#f1_23" transform="matrix(12,0,0,12,669.7,257.1)" />
<use xlink:href="#f1_1x" transform="matrix(12,0,0,12,678.8,257.1)" />
<use xlink:href="#f1_2a" transform="matrix(12,0,0,12,686.9,257.1)" />
<use xlink:href="#f1_25" transform="matrix(12,0,0,12,696.1,257.1)" />
<use xlink:href="#f1_2f" transform="matrix(12,0,0,12,700.5,257.1)" />
<use xlink:href="#f1_29" transform="matrix(12,0,0,12,707.8,257.1)" />
<use xlink:href="#f1_2f" transform="matrix(12,0,0,12,721.7,257.1)" />
<use xlink:href="#f1_1x" transform="matrix(12,0,0,12,736.9,257.1)" />
<use xlink:href="#f1_2e" transform="matrix(12,0,0,12,745,257.1)" />
<use xlink:href="#f1_21" transform="matrix(12,0,0,12,751.2,257.1)" />
<use xlink:href="#f1_2e" transform="matrix(12,0,0,12,767.3,257.1)" />
<use xlink:href="#f1_21" transform="matrix(12,0,0,12,773.5,257.1)" />
<use xlink:href="#f1_2f" transform="matrix(12,0,0,12,781.6,257.1)" />
<use xlink:href="#f1_2c" transform="matrix(12,0,0,12,788.5,257.1)" />
<use xlink:href="#f1_2b" transform="matrix(12,0,0,12,797.7,257.1)" />
<use xlink:href="#f1_2a" transform="matrix(12,0,0,12,807.2,257.1)" />
<use xlink:href="#f1_2f" transform="matrix(12,0,0,12,816,257.1)" />
<use xlink:href="#f1_25" transform="matrix(12,0,0,12,823.3,257.1)" />
<use xlink:href="#f1_1y" transform="matrix(12,0,0,12,828.1,257.1)" />
<use xlink:href="#f1_28" transform="matrix(12,0,0,12,837.6,257.1)" />
<use xlink:href="#f1_21" transform="matrix(12,0,0,12,842.4,257.1)" />
<use xlink:href="#f1_22" transform="matrix(12,0,0,12,858.8,257.1)" />
<use xlink:href="#f1_2b" transform="matrix(12,0,0,12,864.3,257.1)" />
<use xlink:href="#f1_2e" transform="matrix(12,0,0,12,873.9,257.1)" />
<use xlink:href="#f1_20" transform="matrix(12,0,0,12,110,289)" />
<use xlink:href="#f1_25" transform="matrix(12,0,0,12,119.6,289)" />
<use xlink:href="#f1_22" transform="matrix(12,0,0,12,124.3,289)" />
<use xlink:href="#f1_22" transform="matrix(12,0,0,12,130.2,289)" />
<use xlink:href="#f1_21" transform="matrix(12,0,0,12,136.1,289)" />
<use xlink:href="#f1_2e" transform="matrix(12,0,0,12,144.1,289)" />
<use xlink:href="#f1_21" transform="matrix(12,0,0,12,150.3,289)" />
<use xlink:href="#f1_2a" transform="matrix(12,0,0,12,158.7,289)" />
<use xlink:href="#f1_2g" transform="matrix(12,0,0,12,167.5,289)" />
<use xlink:href="#f1_2c" transform="matrix(12,0,0,12,177.8,289)" />
<use xlink:href="#f1_1x" transform="matrix(12,0,0,12,186.9,289)" />
<use xlink:href="#f1_2e" transform="matrix(12,0,0,12,195,289)" />
<use xlink:href="#f1_1x" transform="matrix(12,0,0,12,201.2,289)" />
<use xlink:href="#f1_2f" transform="matrix(12,0,0,12,209.3,289)" />
<use xlink:href="#f1_25" transform="matrix(12,0,0,12,216.6,289)" />
<use xlink:href="#f1_2g" transform="matrix(12,0,0,12,221,289)" />
<use xlink:href="#f1_25" transform="matrix(12,0,0,12,226.9,289)" />
<use xlink:href="#f1_1z" transform="matrix(12,0,0,12,231.3,289)" />
<use xlink:href="#f1_20" transform="matrix(12,0,0,12,244.1,289)" />
<use xlink:href="#f1_25" transform="matrix(12,0,0,12,253.6,289)" />
<use xlink:href="#f1_2f" transform="matrix(12,0,0,12,258.4,289)" />
<use xlink:href="#f1_21" transform="matrix(12,0,0,12,265.3,289)" />
<use xlink:href="#f1_1x" transform="matrix(12,0,0,12,273.4,289)" />
<use xlink:href="#f1_2f" transform="matrix(12,0,0,12,281.8,289)" />
<use xlink:href="#f1_21" transform="matrix(12,0,0,12,288.8,289)" />
<use xlink:href="#f1_2f" transform="matrix(12,0,0,12,296.8,289)" />
<use xlink:href="#f1_i" transform="matrix(12,0,0,12,303.8,289)" />
<use xlink:href="#f1_16" transform="matrix(12,0,0,12,313.3,289)" />
<use xlink:href="#f1_2b" transform="matrix(12,0,0,12,323.2,289)" />
<use xlink:href="#f1_2e" transform="matrix(12,0,0,12,332.7,289)" />
<use xlink:href="#f1_21" transform="matrix(12,0,0,12,343.7,289)" />
<use xlink:href="#f1_2k" transform="matrix(12,0,0,12,351.7,289)" />
<use xlink:href="#f1_1x" transform="matrix(12,0,0,12,360.5,289)" />
<use xlink:href="#f1_29" transform="matrix(12,0,0,12,369,289)" />
<use xlink:href="#f1_2c" transform="matrix(12,0,0,12,382.5,289)" />
<use xlink:href="#f1_28" transform="matrix(12,0,0,12,392,289)" />
<use xlink:href="#f1_21" transform="matrix(12,0,0,12,396.8,289)" />
<use xlink:href="#f1_g" transform="matrix(12,0,0,12,404.9,289)" />
<use xlink:href="#f3_1k" transform="matrix(12,0,0,12,414.9,289)" />
<use xlink:href="#f3_2e" transform="matrix(12,0,0,12,425.1,289)" />
<use xlink:href="#f3_2l" transform="matrix(12,0,0,12,432.1,289)" />
<use xlink:href="#f3_2c" transform="matrix(12,0,0,12,440.1,289)" />
<use xlink:href="#f3_1x" transform="matrix(12,0,0,12,449.3,289)" />
<use xlink:href="#f3_2a" transform="matrix(12,0,0,12,458.5,289)" />
<use xlink:href="#f3_2b" transform="matrix(12,0,0,12,467.6,289)" />
<use xlink:href="#f3_2f" transform="matrix(12,0,0,12,476.8,289)" />
<use xlink:href="#f3_2b" transform="matrix(12,0,0,12,484.1,289)" />
<use xlink:href="#f3_29" transform="matrix(12,0,0,12,493.3,289)" />
<use xlink:href="#f3_1x" transform="matrix(12,0,0,12,506.5,289)" />
<use xlink:href="#f1_1z" transform="matrix(12,0,0,12,520.5,289)" />
<use xlink:href="#f1_1x" transform="matrix(12,0,0,12,528.6,289)" />
<use xlink:href="#f1_2h" transform="matrix(12,0,0,12,536.6,289)" />
<use xlink:href="#f1_2f" transform="matrix(12,0,0,12,545.8,289)" />
<use xlink:href="#f1_21" transform="matrix(12,0,0,12,552.8,289)" />
<use xlink:href="#f1_2f" transform="matrix(12,0,0,12,560.8,289)" />
<use xlink:href="#f1_2f" transform="matrix(12,0,0,12,572.5,289)" />
<use xlink:href="#f1_28" transform="matrix(12,0,0,12,579.8,289)" />
<use xlink:href="#f1_21" transform="matrix(12,0,0,12,584.6,289)" />
<use xlink:href="#f1_21" transform="matrix(12,0,0,12,592.7,289)" />
<use xlink:href="#f1_2c" transform="matrix(12,0,0,12,600.7,289)" />
<use xlink:href="#f1_25" transform="matrix(12,0,0,12,610.3,289)" />
<use xlink:href="#f1_2a" transform="matrix(12,0,0,12,615,289)" />
<use xlink:href="#f1_23" transform="matrix(12,0,0,12,624.2,289)" />
<use xlink:href="#f1_2f" transform="matrix(12,0,0,12,638.1,289)" />
<use xlink:href="#f1_25" transform="matrix(12,0,0,12,645.4,289)" />
<use xlink:href="#f1_1z" transform="matrix(12,0,0,12,650.2,289)" />
<use xlink:href="#f1_27" transform="matrix(12,0,0,12,658.3,289)" />
<use xlink:href="#f1_2a" transform="matrix(12,0,0,12,667.8,289)" />
<use xlink:href="#f1_21" transform="matrix(12,0,0,12,676.6,289)" />
<use xlink:href="#f1_2f" transform="matrix(12,0,0,12,685,289)" />
<use xlink:href="#f1_2f" transform="matrix(12,0,0,12,692,289)" />
<use xlink:href="#f1_i" transform="matrix(12,0,0,12,698.9,289)" />
<use xlink:href="#f2_3d" transform="matrix(12,0,0,12,82.5,322)" />
<use xlink:href="#f0_13" transform="matrix(12,0,0,12,110,322)" />
<use xlink:href="#f0_25" transform="matrix(12,0,0,12,123.3,322)" />
<use xlink:href="#f0_28" transform="matrix(12,0,0,12,128.4,322)" />
<use xlink:href="#f0_25" transform="matrix(12,0,0,12,133.1,322)" />
<use xlink:href="#f0_1x" transform="matrix(12,0,0,12,138.2,322)" />
<use xlink:href="#f0_2g" transform="matrix(12,0,0,12,147.4,322)" />
<use xlink:href="#f0_21" transform="matrix(12,0,0,12,153.7,322)" />
<use xlink:href="#f0_20" transform="matrix(12,0,0,12,161.7,322)" />
<use xlink:href="#f0_2c" transform="matrix(12,0,0,12,178.2,322)" />
<use xlink:href="#f0_2e" transform="matrix(12,0,0,12,188.4,322)" />
<use xlink:href="#f0_2b" transform="matrix(12,0,0,12,196.1,322)" />
<use xlink:href="#f0_2g" transform="matrix(12,0,0,12,205.3,322)" />
<use xlink:href="#f0_2b" transform="matrix(12,0,0,12,211.5,322)" />
<use xlink:href="#f0_2m" transform="matrix(12,0,0,12,221,322)" />
<use xlink:href="#f0_2b" transform="matrix(12,0,0,12,228.7,322)" />
<use xlink:href="#f0_1x" transform="matrix(12,0,0,12,237.9,322)" />
<use xlink:href="#f0_2a" transform="matrix(12,0,0,12,247.1,322)" />
<use xlink:href="#f0_2f" transform="matrix(12,0,0,12,257.3,322)" />
<use xlink:href="#f1_2c" transform="matrix(12,0,0,12,270.7,322)" />
<use xlink:href="#f1_2b" transform="matrix(12,0,0,12,279.9,322)" />
<use xlink:href="#f1_2f" transform="matrix(12,0,0,12,289.4,322)" />
<use xlink:href="#f1_2f" transform="matrix(12,0,0,12,296.4,322)" />
<use xlink:href="#f1_21" transform="matrix(12,0,0,12,303.7,322)" />
<use xlink:href="#f1_2f" transform="matrix(12,0,0,12,311.7,322)" />
<use xlink:href="#f1_2f" transform="matrix(12,0,0,12,318.7,322)" />
<use xlink:href="#f1_2g" transform="matrix(12,0,0,12,331.9,322)" />
<use xlink:href="#f1_24" transform="matrix(12,0,0,12,337.4,322)" />
<use xlink:href="#f1_2b" transform="matrix(12,0,0,12,346.2,322)" />
<use xlink:href="#f1_2h" transform="matrix(12,0,0,12,355.7,322)" />
<use xlink:href="#f1_2f" transform="matrix(12,0,0,12,364.8,322)" />
<use xlink:href="#f1_1x" transform="matrix(12,0,0,12,371.8,322)" />
<use xlink:href="#f1_2a" transform="matrix(12,0,0,12,380.2,322)" />
<use xlink:href="#f1_20" transform="matrix(12,0,0,12,389,322)" />
<use xlink:href="#f1_2f" transform="matrix(12,0,0,12,398.2,322)" />
<use xlink:href="#f1_2b" transform="matrix(12,0,0,12,411.4,322)" />
<use xlink:href="#f1_22" transform="matrix(12,0,0,12,421.3,322)" />
<use xlink:href="#f1_1z" transform="matrix(12,0,0,12,433,322)" />
<use xlink:href="#f1_25" transform="matrix(12,0,0,12,441.4,322)" />
<use xlink:href="#f1_28" transform="matrix(12,0,0,12,446.5,322)" />
<use xlink:href="#f1_25" transform="matrix(12,0,0,12,451.6,322)" />
<use xlink:href="#f1_1x" transform="matrix(12,0,0,12,456.4,322)" />
<use xlink:href="#f1_i" transform="matrix(12,0,0,12,464.5,322)" />
<use xlink:href="#f1_1k" transform="matrix(12,0,0,12,476.1,322)" />
<use xlink:href="#f1_24" transform="matrix(12,0,0,12,487.5,322)" />
<use xlink:href="#f1_21" transform="matrix(12,0,0,12,496.3,322)" />
<use xlink:href="#f1_29" transform="matrix(12,0,0,12,510.9,322)" />
<use xlink:href="#f1_2b" transform="matrix(12,0,0,12,524.5,322)" />
<use xlink:href="#f1_2i" transform="matrix(12,0,0,12,534.4,322)" />
<use xlink:href="#f1_21" transform="matrix(12,0,0,12,543.2,322)" />
<use xlink:href="#f1_29" transform="matrix(12,0,0,12,551.6,322)" />
<use xlink:href="#f1_21" transform="matrix(12,0,0,12,565.5,322)" />
<use xlink:href="#f1_2a" transform="matrix(12,0,0,12,573.9,322)" />
<use xlink:href="#f1_2g" transform="matrix(12,0,0,12,582.7,322)" />
<use xlink:href="#f1_2b" transform="matrix(12,0,0,12,594.4,322)" />
<use xlink:href="#f1_22" transform="matrix(12,0,0,12,603.9,322)" />
<use xlink:href="#f1_1z" transform="matrix(12,0,0,12,615.7,322)" />
<use xlink:href="#f1_25" transform="matrix(12,0,0,12,624.1,322)" />
<use xlink:href="#f1_28" transform="matrix(12,0,0,12,628.8,322)" />
<use xlink:href="#f1_25" transform="matrix(12,0,0,12,633.9,322)" />
<use xlink:href="#f1_1x" transform="matrix(12,0,0,12,638.7,322)" />
<use xlink:href="#f1_24" transform="matrix(12,0,0,12,653.4,322)" />
<use xlink:href="#f1_21" transform="matrix(12,0,0,12,662.5,322)" />
<use xlink:href="#f1_28" transform="matrix(12,0,0,12,671,322)" />
<use xlink:href="#f1_2c" transform="matrix(12,0,0,12,675.4,322)" />
<use xlink:href="#f1_2f" transform="matrix(12,0,0,12,684.9,322)" />
<use xlink:href="#f1_25" transform="matrix(12,0,0,12,698.4,322)" />
<use xlink:href="#f1_2a" transform="matrix(12,0,0,12,703.2,322)" />
<use xlink:href="#f1_2c" transform="matrix(12,0,0,12,718.6,322)" />
<use xlink:href="#f1_2e" transform="matrix(12,0,0,12,727.7,322)" />
<use xlink:href="#f1_2b" transform="matrix(12,0,0,12,734,322)" />
<use xlink:href="#f1_2c" transform="matrix(12,0,0,12,743.5,322)" />
<use xlink:href="#f1_21" transform="matrix(12,0,0,12,752.6,322)" />
<use xlink:href="#f1_28" transform="matrix(12,0,0,12,760.7,322)" />
<use xlink:href="#f1_28" transform="matrix(12,0,0,12,765.5,322)" />
<use xlink:href="#f1_25" transform="matrix(12,0,0,12,770.6,322)" />
<use xlink:href="#f1_2a" transform="matrix(12,0,0,12,775.4,322)" />
<use xlink:href="#f1_23" transform="matrix(12,0,0,12,784.5,322)" />
<use xlink:href="#f1_22" transform="matrix(12,0,0,12,800.3,322)" />
<use xlink:href="#f1_2b" transform="matrix(12,0,0,12,805.8,322)" />
<use xlink:href="#f1_2e" transform="matrix(12,0,0,12,815.3,322)" />
<use xlink:href="#f1_2j" transform="matrix(12,0,0,12,821.5,322)" />
<use xlink:href="#f1_1x" transform="matrix(12,0,0,12,834.8,322)" />
<use xlink:href="#f1_2e" transform="matrix(12,0,0,12,842.8,322)" />
<use xlink:href="#f1_20" transform="matrix(12,0,0,12,849,322)" />
<use xlink:href="#f1_2b" transform="matrix(12,0,0,12,864.4,322)" />
<use xlink:href="#f1_2e" transform="matrix(12,0,0,12,873.9,322)" />
<use xlink:href="#f1_1y" transform="matrix(12,0,0,12,110,353.6)" />
<use xlink:href="#f1_1x" transform="matrix(12,0,0,12,118.8,353.6)" />
<use xlink:href="#f1_1z" transform="matrix(12,0,0,12,126.9,353.6)" />
<use xlink:href="#f1_27" transform="matrix(12,0,0,12,135,353.6)" />
<use xlink:href="#f1_2j" transform="matrix(12,0,0,12,144.1,353.6)" />
<use xlink:href="#f1_1x" transform="matrix(12,0,0,12,157.7,353.6)" />
<use xlink:href="#f1_2e" transform="matrix(12,0,0,12,165.8,353.6)" />
<use xlink:href="#f1_20" transform="matrix(12,0,0,12,172,353.6)" />
<use xlink:href="#f1_i" transform="matrix(12,0,0,12,181.1,353.6)" />
<use xlink:href="#f1_19" transform="matrix(12,0,0,12,190.6,353.6)" />
<use xlink:href="#f1_2g" transform="matrix(12,0,0,12,196.5,353.6)" />
<use xlink:href="#f1_1x" transform="matrix(12,0,0,12,206.4,353.6)" />
<use xlink:href="#f1_28" transform="matrix(12,0,0,12,214.4,353.6)" />
<use xlink:href="#f1_2f" transform="matrix(12,0,0,12,219.2,353.6)" />
<use xlink:href="#f1_2b" transform="matrix(12,0,0,12,226.2,353.6)" />
<use xlink:href="#f1_24" transform="matrix(12,0,0,12,240.4,353.6)" />
<use xlink:href="#f1_21" transform="matrix(12,0,0,12,249.2,353.6)" />
<use xlink:href="#f1_28" transform="matrix(12,0,0,12,257.7,353.6)" />
<use xlink:href="#f1_2c" transform="matrix(12,0,0,12,262.1,353.6)" />
<use xlink:href="#f1_2f" transform="matrix(12,0,0,12,271.6,353.6)" />
<use xlink:href="#f1_25" transform="matrix(12,0,0,12,283.7,353.6)" />
<use xlink:href="#f1_2a" transform="matrix(12,0,0,12,288.4,353.6)" />
<use xlink:href="#f1_2b" transform="matrix(12,0,0,12,302,353.6)" />
<use xlink:href="#f1_1y" transform="matrix(12,0,0,12,311.5,353.6)" />
<use xlink:href="#f1_2g" transform="matrix(12,0,0,12,320.3,353.6)" />
<use xlink:href="#f1_1x" transform="matrix(12,0,0,12,325.8,353.6)" />
<use xlink:href="#f1_25" transform="matrix(12,0,0,12,334.2,353.6)" />
<use xlink:href="#f1_2a" transform="matrix(12,0,0,12,338.9,353.6)" />
<use xlink:href="#f1_25" transform="matrix(12,0,0,12,348.1,353.6)" />
<use xlink:href="#f1_2a" transform="matrix(12,0,0,12,352.9,353.6)" />
<use xlink:href="#f1_23" transform="matrix(12,0,0,12,362,353.6)" />
<use xlink:href="#f1_22" transform="matrix(12,0,0,12,376.3,353.6)" />
<use xlink:href="#f1_2b" transform="matrix(12,0,0,12,381.8,353.6)" />
<use xlink:href="#f1_2b" transform="matrix(12,0,0,12,391.3,353.6)" />
<use xlink:href="#f1_20" transform="matrix(12,0,0,12,401.3,353.6)" />
<use xlink:href="#f1_22" transform="matrix(12,0,0,12,414.8,353.6)" />
<use xlink:href="#f1_2e" transform="matrix(12,0,0,12,420.3,353.6)" />
<use xlink:href="#f1_2b" transform="matrix(12,0,0,12,426.5,353.6)" />
<use xlink:href="#f1_29" transform="matrix(12,0,0,12,436.1,353.6)" />
<use xlink:href="#f1_2g" transform="matrix(12,0,0,12,454.4,353.6)" />
<use xlink:href="#f1_24" transform="matrix(12,0,0,12,459.9,353.6)" />
<use xlink:href="#f1_21" transform="matrix(12,0,0,12,468.7,353.6)" />
<use xlink:href="#f1_2b" transform="matrix(12,0,0,12,481.5,353.6)" />
<use xlink:href="#f1_2h" transform="matrix(12,0,0,12,491,353.6)" />
<use xlink:href="#f1_2g" transform="matrix(12,0,0,12,499.8,353.6)" />
<use xlink:href="#f1_2f" transform="matrix(12,0,0,12,505.3,353.6)" />
<use xlink:href="#f1_25" transform="matrix(12,0,0,12,512.2,353.6)" />
<use xlink:href="#f1_20" transform="matrix(12,0,0,12,516.6,353.6)" />
<use xlink:href="#f1_21" transform="matrix(12,0,0,12,525.8,353.6)" />
<use xlink:href="#f1_i" transform="matrix(12,0,0,12,533.9,353.6)" />
<use xlink:href="#f1_16" transform="matrix(12,0,0,12,543.6,353.6)" />
<use xlink:href="#f1_2b" transform="matrix(12,0,0,12,553.5,353.6)" />
<use xlink:href="#f1_2e" transform="matrix(12,0,0,12,563,353.6)" />
<use xlink:href="#f1_21" transform="matrix(12,0,0,12,574,353.6)" />
<use xlink:href="#f1_2k" transform="matrix(12,0,0,12,582,353.6)" />
<use xlink:href="#f1_1x" transform="matrix(12,0,0,12,590.8,353.6)" />
<use xlink:href="#f1_29" transform="matrix(12,0,0,12,599.2,353.6)" />
<use xlink:href="#f1_2c" transform="matrix(12,0,0,12,613.2,353.6)" />
<use xlink:href="#f1_28" transform="matrix(12,0,0,12,622.7,353.6)" />
<use xlink:href="#f1_21" transform="matrix(12,0,0,12,627.5,353.6)" />
<use xlink:href="#f1_g" transform="matrix(12,0,0,12,635.5,353.6)" />
<use xlink:href="#f3_1g" transform="matrix(12,0,0,12,645.2,353.6)" />
<use xlink:href="#f3_1x" transform="matrix(12,0,0,12,656.2,353.6)" />
<use xlink:href="#f3_2e" transform="matrix(12,0,0,12,665.4,353.6)" />
<use xlink:href="#f3_1x" transform="matrix(12,0,0,12,672.4,353.6)" />
<use xlink:href="#f3_29" transform="matrix(12,0,0,12,681.5,353.6)" />
<use xlink:href="#f3_21" transform="matrix(12,0,0,12,694.8,353.6)" />
<use xlink:href="#f3_1z" transform="matrix(12,0,0,12,702.8,353.6)" />
<use xlink:href="#f3_25" transform="matrix(12,0,0,12,710.9,353.6)" />
<use xlink:href="#f3_2h" transform="matrix(12,0,0,12,716,353.6)" />
<use xlink:href="#f3_29" transform="matrix(12,0,0,12,725.1,353.6)" />
<use xlink:href="#f1_i" transform="matrix(12,0,0,12,738.4,353.6)" />
<use xlink:href="#f0_16" transform="matrix(12,0,0,12,395.1,742)" />
<use xlink:href="#f0_25" transform="matrix(12,0,0,12,406.1,742)" />
<use xlink:href="#f0_23" transform="matrix(12,0,0,12,411.1,742)" />
<use xlink:href="#f0_i" transform="matrix(12,0,0,12,420.3,742)" />
<use xlink:href="#f0_r" transform="matrix(12,0,0,12,425.1,742)" />
<use xlink:href="#f0_i" transform="matrix(12,0,0,12,434.3,742)" />
<use xlink:href="#f4_1g" transform="matrix(12,0,0,12,443.5,742)" />
<use xlink:href="#f4_1x" transform="matrix(12,0,0,12,454.8,742)" />
<use xlink:href="#f4_2e" transform="matrix(12,0,0,12,464,742)" />
<use xlink:href="#f4_1x" transform="matrix(12,0,0,12,470.9,742)" />
<use xlink:href="#f4_29" transform="matrix(12,0,0,12,480.1,742)" />
<use xlink:href="#f4_21" transform="matrix(12,0,0,12,494.7,742)" />
<use xlink:href="#f4_1z" transform="matrix(12,0,0,12,502.8,742)" />
<use xlink:href="#f4_25" transform="matrix(12,0,0,12,510.9,742)" />
<use xlink:href="#f4_2h" transform="matrix(12,0,0,12,516,742)" />
<use xlink:href="#f4_29" transform="matrix(12,0,0,12,525.9,742)" />
<use xlink:href="#f2_3d" transform="matrix(12,0,0,12,82.5,786.7)" />
<use xlink:href="#f0_1j" transform="matrix(12,0,0,12,110,786.7)" />
<use xlink:href="#f0_2c" transform="matrix(12,0,0,12,120.3,786.7)" />
<use xlink:href="#f0_2b" transform="matrix(12,0,0,12,130.5,786.7)" />
<use xlink:href="#f0_2e" transform="matrix(12,0,0,12,139.7,786.7)" />
<use xlink:href="#f0_2b" transform="matrix(12,0,0,12,147.4,786.7)" />
<use xlink:href="#f0_2m" transform="matrix(12,0,0,12,156.9,786.7)" />
<use xlink:href="#f0_2b" transform="matrix(12,0,0,12,164.6,786.7)" />
<use xlink:href="#f0_1x" transform="matrix(12,0,0,12,173.8,786.7)" />
<use xlink:href="#f0_2a" transform="matrix(12,0,0,12,182.9,786.7)" />
<use xlink:href="#f0_2f" transform="matrix(12,0,0,12,193.2,786.7)" />
<use xlink:href="#f1_22" transform="matrix(12,0,0,12,205.4,786.7)" />
<use xlink:href="#f1_2b" transform="matrix(12,0,0,12,210.9,786.7)" />
<use xlink:href="#f1_2e" transform="matrix(12,0,0,12,220.4,786.7)" />
<use xlink:href="#f1_29" transform="matrix(12,0,0,12,227,786.7)" />
<use xlink:href="#f1_2e" transform="matrix(12,0,0,12,245.3,786.7)" />
<use xlink:href="#f1_21" transform="matrix(12,0,0,12,251.5,786.7)" />
<use xlink:href="#f1_2c" transform="matrix(12,0,0,12,259.6,786.7)" />
<use xlink:href="#f1_2e" transform="matrix(12,0,0,12,268.8,786.7)" />
<use xlink:href="#f1_2b" transform="matrix(12,0,0,12,275,786.7)" />
<use xlink:href="#f1_20" transform="matrix(12,0,0,12,284.5,786.7)" />
<use xlink:href="#f1_2h" transform="matrix(12,0,0,12,293.7,786.7)" />
<use xlink:href="#f1_1z" transform="matrix(12,0,0,12,302.8,786.7)" />
<use xlink:href="#f1_2g" transform="matrix(12,0,0,12,310.5,786.7)" />
<use xlink:href="#f1_25" transform="matrix(12,0,0,12,316,786.7)" />
<use xlink:href="#f1_2i" transform="matrix(12,0,0,12,320.8,786.7)" />
<use xlink:href="#f1_21" transform="matrix(12,0,0,12,329.6,786.7)" />
<use xlink:href="#f1_1z" transform="matrix(12,0,0,12,342.4,786.7)" />
<use xlink:href="#f1_21" transform="matrix(12,0,0,12,350.5,786.7)" />
<use xlink:href="#f1_28" transform="matrix(12,0,0,12,358.9,786.7)" />
<use xlink:href="#f1_28" transform="matrix(12,0,0,12,364,786.7)" />
<use xlink:href="#f1_2f" transform="matrix(12,0,0,12,368.8,786.7)" />
<use xlink:href="#f1_2j" transform="matrix(12,0,0,12,380.8,786.7)" />
<use xlink:href="#f1_24" transform="matrix(12,0,0,12,394.3,786.7)" />
<use xlink:href="#f1_25" transform="matrix(12,0,0,12,403.5,786.7)" />
<use xlink:href="#f1_1z" transform="matrix(12,0,0,12,408.2,786.7)" />
<use xlink:href="#f1_24" transform="matrix(12,0,0,12,416.6,786.7)" />
<use xlink:href="#f1_1x" transform="matrix(12,0,0,12,430.2,786.7)" />
<use xlink:href="#f1_2e" transform="matrix(12,0,0,12,438.3,786.7)" />
<use xlink:href="#f1_21" transform="matrix(12,0,0,12,444.5,786.7)" />
<use xlink:href="#f1_27" transform="matrix(12,0,0,12,457.4,786.7)" />
<use xlink:href="#f1_2a" transform="matrix(12,0,0,12,466.6,786.7)" />
<use xlink:href="#f1_2b" transform="matrix(12,0,0,12,475.4,786.7)" />
<use xlink:href="#f1_2j" transform="matrix(12,0,0,12,484.9,786.7)" />
<use xlink:href="#f1_2a" transform="matrix(12,0,0,12,498.1,786.7)" />
<use xlink:href="#f1_1x" transform="matrix(12,0,0,12,511.6,786.7)" />
<use xlink:href="#f1_2f" transform="matrix(12,0,0,12,519.7,786.7)" />
<use xlink:href="#f1_2f" transform="matrix(12,0,0,12,531.4,786.7)" />
<use xlink:href="#f1_2c" transform="matrix(12,0,0,12,538.4,786.7)" />
<use xlink:href="#f1_2b" transform="matrix(12,0,0,12,547.6,786.7)" />
<use xlink:href="#f1_2e" transform="matrix(12,0,0,12,557.1,786.7)" />
<use xlink:href="#f1_21" transform="matrix(12,0,0,12,563.3,786.7)" />
<use xlink:href="#f1_2f" transform="matrix(12,0,0,12,571.4,786.7)" />
<use xlink:href="#f1_i" transform="matrix(12,0,0,12,578.3,786.7)" />
<use xlink:href="#f1_1k" transform="matrix(12,0,0,12,588,786.7)" />
<use xlink:href="#f1_24" transform="matrix(12,0,0,12,599.3,786.7)" />
<use xlink:href="#f1_21" transform="matrix(12,0,0,12,608.1,786.7)" />
<use xlink:href="#f1_2l" transform="matrix(12,0,0,12,616.5,786.7)" />
<use xlink:href="#f1_1x" transform="matrix(12,0,0,12,629.8,786.7)" />
<use xlink:href="#f1_2e" transform="matrix(12,0,0,12,637.8,786.7)" />
<use xlink:href="#f1_21" transform="matrix(12,0,0,12,644.1,786.7)" />
<use xlink:href="#f1_2c" transform="matrix(12,0,0,12,657,786.7)" />
<use xlink:href="#f1_1x" transform="matrix(12,0,0,12,666.1,786.7)" />
<use xlink:href="#f1_2e" transform="matrix(12,0,0,12,674.2,786.7)" />
<use xlink:href="#f1_1x" transform="matrix(12,0,0,12,680.4,786.7)" />
<use xlink:href="#f1_2f" transform="matrix(12,0,0,12,688.5,786.7)" />
<use xlink:href="#f1_25" transform="matrix(12,0,0,12,695.8,786.7)" />
<use xlink:href="#f1_2g" transform="matrix(12,0,0,12,700.2,786.7)" />
<use xlink:href="#f1_25" transform="matrix(12,0,0,12,706,786.7)" />
<use xlink:href="#f1_1z" transform="matrix(12,0,0,12,710.8,786.7)" />
<use xlink:href="#f1_1x" transform="matrix(12,0,0,12,723.6,786.7)" />
<use xlink:href="#f1_2a" transform="matrix(12,0,0,12,731.7,786.7)" />
<use xlink:href="#f1_20" transform="matrix(12,0,0,12,740.5,786.7)" />
<use xlink:href="#f1_2c" transform="matrix(12,0,0,12,754.4,786.7)" />
<use xlink:href="#f1_1x" transform="matrix(12,0,0,12,763.6,786.7)" />
<use xlink:href="#f1_2g" transform="matrix(12,0,0,12,771.6,786.7)" />
<use xlink:href="#f1_24" transform="matrix(12,0,0,12,777.1,786.7)" />
<use xlink:href="#f1_2b" transform="matrix(12,0,0,12,785.9,786.7)" />
<use xlink:href="#f1_23" transform="matrix(12,0,0,12,795.4,786.7)" />
<use xlink:href="#f1_21" transform="matrix(12,0,0,12,804.6,786.7)" />
<use xlink:href="#f1_2a" transform="matrix(12,0,0,12,812.7,786.7)" />
<use xlink:href="#f1_25" transform="matrix(12,0,0,12,821.8,786.7)" />
<use xlink:href="#f1_1z" transform="matrix(12,0,0,12,826.6,786.7)" />
<use xlink:href="#f1_25" transform="matrix(12,0,0,12,839.8,786.7)" />
<use xlink:href="#f1_2a" transform="matrix(12,0,0,12,844.5,786.7)" />
<use xlink:href="#f1_2a" transform="matrix(12,0,0,12,110,818.6)" />
<use xlink:href="#f1_1x" transform="matrix(12,0,0,12,118.8,818.6)" />
<use xlink:href="#f1_2g" transform="matrix(12,0,0,12,126.9,818.6)" />
<use xlink:href="#f1_2h" transform="matrix(12,0,0,12,132.4,818.6)" />
<use xlink:href="#f1_2e" transform="matrix(12,0,0,12,141.6,818.6)" />
<use xlink:href="#f1_21" transform="matrix(12,0,0,12,147.8,818.6)" />
<use xlink:href="#f1_i" transform="matrix(12,0,0,12,155.8,818.6)" />
<use xlink:href="#f1_16" transform="matrix(12,0,0,12,165.3,818.6)" />
<use xlink:href="#f1_2b" transform="matrix(12,0,0,12,175.2,818.6)" />
<use xlink:href="#f1_2e" transform="matrix(12,0,0,12,184.4,818.6)" />
<use xlink:href="#f1_21" transform="matrix(12,0,0,12,195.4,818.6)" />
<use xlink:href="#f1_2k" transform="matrix(12,0,0,12,203.4,818.6)" />
<use xlink:href="#f1_1x" transform="matrix(12,0,0,12,212.2,818.6)" />
<use xlink:href="#f1_29" transform="matrix(12,0,0,12,220.6,818.6)" />
<use xlink:href="#f1_2c" transform="matrix(12,0,0,12,234.2,818.6)" />
<use xlink:href="#f1_28" transform="matrix(12,0,0,12,243.7,818.6)" />
<use xlink:href="#f1_21" transform="matrix(12,0,0,12,248.5,818.6)" />
<use xlink:href="#f1_g" transform="matrix(12,0,0,12,256.6,818.6)" />
<use xlink:href="#f3_1g" transform="matrix(12,0,0,12,266.3,818.6)" />
<use xlink:href="#f3_28" transform="matrix(12,0,0,12,277.3,818.6)" />
<use xlink:href="#f3_1x" transform="matrix(12,0,0,12,282.4,818.6)" />
<use xlink:href="#f3_2f" transform="matrix(12,0,0,12,291.6,818.6)" />
<use xlink:href="#f3_29" transform="matrix(12,0,0,12,298.6,818.6)" />
<use xlink:href="#f3_2b" transform="matrix(12,0,0,12,311.8,818.6)" />
<use xlink:href="#f3_20" transform="matrix(12,0,0,12,321,818.6)" />
<use xlink:href="#f3_25" transform="matrix(12,0,0,12,330.1,818.6)" />
<use xlink:href="#f3_2h" transform="matrix(12,0,0,12,335.2,818.6)" />
<use xlink:href="#f3_29" transform="matrix(12,0,0,12,344.4,818.6)" />
<use xlink:href="#f1_2f" transform="matrix(12,0,0,12,362.4,818.6)" />
<use xlink:href="#f1_2c" transform="matrix(12,0,0,12,369.4,818.6)" />
<use xlink:href="#f1_21" transform="matrix(12,0,0,12,378.6,818.6)" />
<use xlink:href="#f1_1z" transform="matrix(12,0,0,12,386.6,818.6)" />
<use xlink:href="#f1_25" transform="matrix(12,0,0,12,395,818.6)" />
<use xlink:href="#f1_21" transform="matrix(12,0,0,12,399.8,818.6)" />
<use xlink:href="#f1_2f" transform="matrix(12,0,0,12,408.2,818.6)" />
<use xlink:href="#f1_1z" transform="matrix(12,0,0,12,419.9,818.6)" />
<use xlink:href="#f1_1x" transform="matrix(12,0,0,12,428,818.6)" />
<use xlink:href="#f1_2h" transform="matrix(12,0,0,12,436.1,818.6)" />
<use xlink:href="#f1_2f" transform="matrix(12,0,0,12,445.2,818.6)" />
<use xlink:href="#f1_21" transform="matrix(12,0,0,12,452.5,818.6)" />
<use xlink:href="#f1_2f" transform="matrix(12,0,0,12,460.6,818.6)" />
<use xlink:href="#f1_1d" transform="matrix(12,0,0,12,472.3,818.6)" />
<use xlink:href="#f1_1x" transform="matrix(12,0,0,12,488.5,818.6)" />
<use xlink:href="#f1_28" transform="matrix(12,0,0,12,496.9,818.6)" />
<use xlink:href="#f1_1x" transform="matrix(12,0,0,12,501.6,818.6)" />
<use xlink:href="#f1_2e" transform="matrix(12,0,0,12,509.7,818.6)" />
<use xlink:href="#f1_25" transform="matrix(12,0,0,12,516.3,818.6)" />
<use xlink:href="#f1_1x" transform="matrix(12,0,0,12,520.7,818.6)" />
<use xlink:href="#f1_i" transform="matrix(12,0,0,12,528.8,818.6)" />
<use xlink:href="#f1_1i" transform="matrix(12,0,0,12,538.5,818.6)" />
<use xlink:href="#f1_21" transform="matrix(12,0,0,12,550.6,818.6)" />
<use xlink:href="#f1_2c" transform="matrix(12,0,0,12,558.6,818.6)" />
<use xlink:href="#f1_2e" transform="matrix(12,0,0,12,567.8,818.6)" />
<use xlink:href="#f1_2b" transform="matrix(12,0,0,12,574,818.6)" />
<use xlink:href="#f1_20" transform="matrix(12,0,0,12,583.5,818.6)" />
<use xlink:href="#f1_2h" transform="matrix(12,0,0,12,592.7,818.6)" />
<use xlink:href="#f1_1z" transform="matrix(12,0,0,12,601.8,818.6)" />
<use xlink:href="#f1_2g" transform="matrix(12,0,0,12,609.9,818.6)" />
<use xlink:href="#f1_25" transform="matrix(12,0,0,12,615.4,818.6)" />
<use xlink:href="#f1_2b" transform="matrix(12,0,0,12,619.8,818.6)" />
<use xlink:href="#f1_2a" transform="matrix(12,0,0,12,629.3,818.6)" />
<use xlink:href="#f1_1z" transform="matrix(12,0,0,12,642.9,818.6)" />
<use xlink:href="#f1_1x" transform="matrix(12,0,0,12,650.9,818.6)" />
<use xlink:href="#f1_2a" transform="matrix(12,0,0,12,659,818.6)" />
<use xlink:href="#f1_1y" transform="matrix(12,0,0,12,672.9,818.6)" />
<use xlink:href="#f1_21" transform="matrix(12,0,0,12,681.7,818.6)" />
<use xlink:href="#f1_1x" transform="matrix(12,0,0,12,694.5,818.6)" />
<use xlink:href="#f1_2f" transform="matrix(12,0,0,12,702.6,818.6)" />
<use xlink:href="#f1_21" transform="matrix(12,0,0,12,709.6,818.6)" />
<use xlink:href="#f1_2k" transform="matrix(12,0,0,12,718,818.6)" />
<use xlink:href="#f1_2h" transform="matrix(12,0,0,12,726.8,818.6)" />
<use xlink:href="#f1_1x" transform="matrix(12,0,0,12,736.3,818.6)" />
<use xlink:href="#f1_28" transform="matrix(12,0,0,12,744.7,818.6)" />
<use xlink:href="#f1_2b" transform="matrix(12,0,0,12,753.8,818.6)" />
<use xlink:href="#f1_2e" transform="matrix(12,0,0,12,763.4,818.6)" />
<use xlink:href="#f1_2f" transform="matrix(12,0,0,12,774.3,818.6)" />
<use xlink:href="#f1_21" transform="matrix(12,0,0,12,781.3,818.6)" />
<use xlink:href="#f1_2k" transform="matrix(12,0,0,12,789.4,818.6)" />
<use xlink:href="#f1_2h" transform="matrix(12,0,0,12,798.2,818.6)" />
<use xlink:href="#f1_1x" transform="matrix(12,0,0,12,807.3,818.6)" />
<use xlink:href="#f1_28" transform="matrix(12,0,0,12,815.7,818.6)" />
<use xlink:href="#f1_i" transform="matrix(12,0,0,12,820.5,818.6)" />
<use xlink:href="#f0_16" transform="matrix(12,0,0,12,366.8,1098.5)" />
<use xlink:href="#f0_25" transform="matrix(12,0,0,12,377.8,1098.5)" />
<use xlink:href="#f0_23" transform="matrix(12,0,0,12,382.9,1098.5)" />
<use xlink:href="#f0_i" transform="matrix(12,0,0,12,392.1,1098.5)" />
<use xlink:href="#f0_s" transform="matrix(12,0,0,12,396.9,1098.5)" />
<use xlink:href="#f0_i" transform="matrix(12,0,0,12,406.1,1098.5)" />
<use xlink:href="#f4_1g" transform="matrix(12,0,0,12,415.2,1098.5)" />
<use xlink:href="#f4_28" transform="matrix(12,0,0,12,426.6,1098.5)" />
<use xlink:href="#f4_1x" transform="matrix(12,0,0,12,431.7,1098.5)" />
<use xlink:href="#f4_2f" transform="matrix(12,0,0,12,440.8,1098.5)" />
<use xlink:href="#f4_29" transform="matrix(12,0,0,12,447.8,1098.5)" />
<use xlink:href="#f4_2b" transform="matrix(12,0,0,12,462.5,1098.5)" />
<use xlink:href="#f4_20" transform="matrix(12,0,0,12,471.6,1098.5)" />
<use xlink:href="#f4_25" transform="matrix(12,0,0,12,480.8,1098.5)" />
<use xlink:href="#f4_2h" transform="matrix(12,0,0,12,485.6,1098.5)" />
<use xlink:href="#f4_29" transform="matrix(12,0,0,12,495.5,1098.5)" />
<use xlink:href="#f0_2f" transform="matrix(12,0,0,12,515,1098.5)" />
<use xlink:href="#f0_2c" transform="matrix(12,0,0,12,521.9,1098.5)" />
<use xlink:href="#f0_21" transform="matrix(12,0,0,12,532.2,1098.5)" />
<use xlink:href="#f0_1z" transform="matrix(12,0,0,12,540.3,1098.5)" />
<use xlink:href="#f0_25" transform="matrix(12,0,0,12,548.3,1098.5)" />
<use xlink:href="#f0_21" transform="matrix(12,0,0,12,553.4,1098.5)" />
<use xlink:href="#f0_2f" transform="matrix(12,0,0,12,561.6,1098.5)" />
</g>
</g>
<image preserveAspectRatio="none" x="253" y="380" width="429" height="322" xlink:href="img/1.png" />
<image preserveAspectRatio="none" x="165" y="845" width="605" height="213" xlink:href="img/2.png" />
<g fill="#000000" >
<use xlink:href="#f5_p" transform="matrix(8,0,0,8,818.2,1187.9)" />
</g>
<defs>
<path d="M346,-14c0,0,-139,0,-276,29L61,258h69L169,96c0,0,29,-16,71,-26c0,0,43,-10,77,-10c0,0,172,0,172,230c0,0,0,120,-44,174c0,0,-44,53,-139,53c0,0,-53,0,-97,-19L186,488H111v512H633V834H194V571c0,0,91,21,164,21c0,0,178,0,264,-74c0,0,86,-73,86,-220c0,0,0,-151,-94,-232c0,0,-93,-80,-268,-80Z" 
id="f0_p"
transform="scale(0.001,-0.001)" />

<path d="M191,-20c0,0,-51,0,-88,34c0,0,-36,36,-36,88c0,0,0,52,36,88c0,0,36,36,88,36c0,0,51,0,88,-36c0,0,36,-36,36,-88c0,0,0,-51,-36,-87c0,0,-36,-35,-88,-35Z" 
id="f0_i"
transform="scale(0.001,-0.001)" />

<path d="M452,474c0,0,104,0,151,52c0,0,47,53,47,178c0,0,0,119,-45,167c0,0,-44,47,-156,47H390V474ZM36,0V54L154,74V926L26,945v55H467c0,0,213,0,318,-71c0,0,105,-71,105,-224c0,0,0,-313,-366,-313H390V74L557,54V0Z" 
id="f0_1g"
transform="scale(0.001,-0.001)" />

<path d="M41,0V49l91,18V634L41,652v49H336l8,-145c0,0,80,89,144,128c0,0,64,40,117,40h40V468H604l-45,94c0,0,-47,0,-106,-21c0,0,-60,-20,-105,-48V67L460,49V0Z" 
id="f0_2e"
transform="scale(0.001,-0.001)" />

<path d="M379,60c0,0,59,0,84,64c0,0,24,65,24,231c0,0,0,164,-24,227c0,0,-24,63,-84,63c0,0,-57,0,-80,-60c0,0,-22,-61,-22,-230c0,0,0,-173,23,-234c0,0,22,-61,79,-61Zm-2,-74c0,0,-161,0,-240,91c0,0,-79,91,-79,277c0,0,0,186,80,276c0,0,81,90,245,90c0,0,167,0,245,-93c0,0,78,-93,78,-273c0,0,0,-188,-81,-278c0,0,-81,-90,-248,-90Z" 
id="f0_2b"
transform="scale(0.001,-0.001)" />

<path d="M327,-14c0,0,-101,0,-156,45c0,0,-55,45,-55,131V624H25v48l108,29l87,159H332V701H480V624H332V176c0,0,0,-49,20,-73c0,0,20,-25,53,-25c0,0,40,0,97,12V26c0,0,-22,-15,-76,-27c0,0,-55,-13,-99,-13Z" 
id="f0_2g"
transform="scale(0.001,-0.001)" />

<path d="M30,0V34L352,634H272c0,0,-41,0,-80,-7c0,0,-39,-8,-54,-19L115,492H61V701H606V664L283,67H395c0,0,43,0,90,11c0,0,47,10,66,24l40,162h54L624,0Z" 
id="f0_2m"
transform="scale(0.001,-0.001)" />

<path d="M345,75c0,0,50,0,110,26V351l-63,-2c0,0,-72,-3,-100,-38c0,0,-28,-35,-28,-113c0,0,0,-63,22,-93c0,0,23,-30,59,-30ZM266,-14c0,0,-217,0,-217,208c0,0,0,79,32,126c0,0,32,48,93,71c0,0,60,22,190,25l91,2V521c0,0,0,126,-104,126c0,0,-62,0,-140,-39L183,521H134V691c0,0,112,17,165,21c0,0,53,5,108,5c0,0,264,0,264,-194V67L741,49V0H483L466,54C466,54,408,14,361,0c0,0,-47,-14,-95,-14Z" 
id="f0_1x"
transform="scale(0.001,-0.001)" />

<path d="M41,0V49l69,18V634L41,652v49H313l11,-61l50,26c0,0,105,54,188,54c0,0,194,0,194,-207V67L827,49V0H478V49l63,18V484c0,0,0,63,-27,98c0,0,-26,35,-75,35c0,0,-57,0,-114,-25V67L389,49V0Z" 
id="f0_2a"
transform="scale(0.001,-0.001)" />

<path d="M30,0V49l76,18V992l-72,18v50H322V67L398,49V0Z" 
id="f0_28"
transform="scale(0.001,-0.001)" />

<path d="M34,0V49l76,18V634L38,652v49H325V67L402,49V0ZM217,831c0,0,-48,0,-81,33c0,0,-34,33,-34,82c0,0,0,48,34,81c0,0,34,33,81,33c0,0,48,0,81,-33c0,0,33,-33,33,-81c0,0,0,-47,-33,-81c0,0,-32,-34,-81,-34Z" 
id="f0_25"
transform="scale(0.001,-0.001)" />

<path d="M43,0V49l67,18V992l-72,18v50H325V336L599,635l-75,17v49H791V652L711,636L544,460L785,67L847,50V0H510V50l41,17L411,313L325,253V67L395,49V0Z" 
id="f0_27"
transform="scale(0.001,-0.001)" />

<path d="M434,423c0,0,0,101,-7,142c0,0,-6,40,-22,60c0,0,-16,19,-45,19c0,0,-44,0,-66,-48c0,0,-22,-49,-22,-173ZM389,-14c0,0,-172,0,-254,89c0,0,-83,90,-83,279c0,0,0,184,79,274c0,0,79,91,238,91c0,0,142,0,206,-76c0,0,64,-76,64,-237V345H271V333c0,0,0,-111,18,-158c0,0,18,-47,58,-72c0,0,40,-25,110,-25c0,0,66,0,166,22V42C623,42,582,18,517,1c0,0,-66,-15,-128,-15Z" 
id="f0_21"
transform="scale(0.001,-0.001)" />

<path d="M438,65c0,0,131,0,131,293c0,0,0,279,-130,279c0,0,-69,0,-127,-29V80c0,0,60,-15,126,-15ZM20,-325v50l76,18V634L19,652v49H304l1,-36c0,0,80,55,194,55c0,0,146,0,218,-86c0,0,71,-86,71,-271c0,0,0,-183,-83,-280c0,0,-83,-97,-238,-97c0,0,-79,0,-160,19c0,0,5,-48,5,-109V-257l103,-18v-50Z" 
id="f0_2c"
transform="scale(0.001,-0.001)" />

<path d="M276,-14c0,0,-57,0,-125,13C151,-1,83,10,48,23V214H97l28,-98c0,0,26,-26,69,-44c0,0,42,-17,86,-17c0,0,65,0,97,28c0,0,32,28,32,71c0,0,0,41,-31,65c0,0,-30,25,-133,57c0,0,-108,34,-154,92c0,0,-45,58,-45,143c0,0,0,95,71,152c0,0,71,57,183,57c0,0,77,0,207,-22V518H457l-24,82c0,0,-21,22,-60,35c0,0,-40,14,-75,14c0,0,-53,0,-79,-22c0,0,-26,-22,-26,-59c0,0,0,-40,32,-65c0,0,32,-26,132,-55c0,0,109,-34,155,-89c0,0,45,-55,45,-137c0,0,0,-117,-72,-177c0,0,-72,-59,-209,-59Z" 
id="f0_2f"
transform="scale(0.001,-0.001)" />

<path d="M235,0V40L394,60V936H356c0,0,-189,0,-258,-15L78,766H28v234H908V766H857L837,921c0,0,-22,5,-98,9c0,0,-75,4,-165,4H538V60L697,40V0Z" 
id="f1_1k"
transform="scale(0.001,-0.001)" />

<path d="M442,0V33l93,19V504c0,0,0,129,-124,129c0,0,-70,0,-168,-22V52L338,33V0H31V33l88,19v956L15,1026v34H243V756c0,0,0,-77,-5,-112c0,0,54,31,122,53c0,0,68,23,115,23c0,0,91,0,137,-53c0,0,47,-53,47,-154V52L744,33V0Z" 
id="f1_24"
transform="scale(0.001,-0.001)" />

<path d="M495,413c0,0,0,133,-34,190c0,0,-34,57,-105,57c0,0,-78,0,-119,-63c0,0,-42,-62,-42,-184ZM374,-14c0,0,-163,0,-239,87c0,0,-75,88,-75,283c0,0,0,183,77,273c0,0,76,91,219,91c0,0,269,0,269,-306V353H194V340c0,0,0,-103,23,-160c0,0,22,-57,70,-87c0,0,47,-29,124,-29c0,0,40,0,96,6c0,0,55,7,91,15V43C598,43,562,20,500,3c0,0,-61,-17,-126,-17Z" 
id="f1_21"
transform="scale(0.001,-0.001)" />

<path d="M148,-329c0,0,-58,0,-114,13v151H69l24,-71c0,0,23,-17,64,-17c0,0,39,0,72,22c0,0,33,23,60,67c0,0,27,44,68,157L90,649L19,668v33H344V668L233,648L423,158L606,649L497,668v33H758V668L685,652L411,-43c0,0,-48,-124,-84,-177c0,0,-36,-54,-79,-82c0,0,-44,-27,-100,-27Z" 
id="f1_2l"
transform="scale(0.001,-0.001)" />

<path d="M284,67c0,0,51,0,88,12c0,0,37,12,74,30V358l-98,-3c0,0,-100,-4,-135,-39c0,0,-35,-35,-35,-117c0,0,0,-132,106,-132ZM233,-14c0,0,-179,0,-179,208c0,0,0,70,27,116c0,0,27,46,87,70c0,0,60,24,173,27l105,3V519c0,0,0,72,-26,107c0,0,-27,34,-82,34c0,0,-75,0,-137,-35L176,538H134V691c0,0,121,26,213,26c0,0,115,0,169,-47c0,0,54,-47,54,-144V52L657,33V0H465L451,70c0,0,-85,-84,-218,-84Z" 
id="f1_1x"
transform="scale(0.001,-0.001)" />

<path d="M31,0V33l88,19V649L31,668v33H235l7,-87c0,0,44,37,121,71c0,0,76,35,121,35h11V530H463l-43,82c0,0,-37,0,-88,-10c0,0,-52,-10,-89,-26V52L363,33V0Z" 
id="f1_2e"
transform="scale(0.001,-0.001)" />

<path d="M249,-14c0,0,-71,0,-107,42c0,0,-35,42,-35,119V639H15v33l93,29l76,159h47V701H391V639H231V161c0,0,0,-48,22,-73c0,0,22,-24,57,-24c0,0,44,0,106,12V26C416,26,389,8,340,-2c0,0,-49,-12,-91,-12Z" 
id="f1_2g"
transform="scale(0.001,-0.001)" />

<path d="M377,45c0,0,99,0,147,73c0,0,47,73,47,237c0,0,0,161,-47,233c0,0,-47,72,-147,72c0,0,-97,0,-141,-69c0,0,-44,-69,-44,-236c0,0,0,-169,45,-240c0,0,44,-70,140,-70Zm0,-59c0,0,-158,0,-238,94c0,0,-81,95,-81,274c0,0,0,178,81,272c0,0,80,94,244,94c0,0,160,0,241,-92c0,0,82,-92,82,-274c0,0,0,-368,-329,-368Z" 
id="f1_2b"
transform="scale(0.001,-0.001)" />

<path d="M382,45c0,0,188,0,188,314c0,0,0,143,-47,213c0,0,-46,69,-141,69c0,0,-87,0,-146,-24V58c0,0,67,-13,146,-13ZM25,-325v35l88,18V649L34,668v33H231l1,-41c0,0,31,27,84,43c0,0,53,17,107,17c0,0,134,0,208,-94c0,0,73,-93,73,-267c0,0,0,-178,-80,-276c0,0,-80,-97,-232,-97c0,0,-84,0,-160,16c0,0,4,-53,4,-84V-272l123,-18v-35Z" 
id="f1_2c"
transform="scale(0.001,-0.001)" />

<path d="M278,-14c0,0,-52,0,-115,11c0,0,-63,10,-99,23V193H98L134,95c0,0,56,-50,146,-50c0,0,144,0,144,123c0,0,0,91,-114,130l-66,21c0,0,-75,25,-110,50c0,0,-34,26,-53,63c0,0,-18,36,-18,89c0,0,0,92,63,145c0,0,63,54,170,54c0,0,77,0,193,-23V544H454l-32,81c0,0,-39,35,-124,35c0,0,-61,0,-92,-30c0,0,-32,-30,-32,-80c0,0,0,-43,29,-72c0,0,28,-29,86,-48c0,0,110,-38,144,-55c0,0,33,-17,57,-42c0,0,23,-25,36,-57c0,0,13,-32,13,-79c0,0,0,-104,-66,-158c0,0,-66,-53,-195,-53Z" 
id="f1_2f"
transform="scale(0.001,-0.001)" />

<path d="M191,-20c0,0,-39,0,-65,25c0,0,-25,27,-25,64c0,0,0,38,26,64c0,0,26,26,64,26c0,0,38,0,64,-26c0,0,26,-26,26,-64c0,0,0,-37,-25,-64c0,0,-26,-25,-65,-25Z" 
id="f1_i"
transform="scale(0.001,-0.001)" />

<path d="M399,-14c0,0,-341,0,-341,370c0,0,0,175,87,269c0,0,87,95,249,95c0,0,101,0,220,-23V501H573L541,625c0,0,-62,35,-149,35c0,0,-200,0,-200,-304c0,0,0,-158,61,-225c0,0,61,-67,189,-67c0,0,109,0,189,24V43C631,43,595,16,530,1c0,0,-64,-15,-131,-15Z" 
id="f1_1z"
transform="scale(0.001,-0.001)" />

<path d="M439,0V33l93,19V500c0,0,0,62,-30,97c0,0,-31,36,-94,36c0,0,-67,0,-165,-22V52L338,33V0H35V33l84,19V649L35,668v33H235l7,-57c0,0,57,33,122,54c0,0,65,22,108,22c0,0,91,0,137,-53c0,0,47,-53,47,-154V52L741,33V0Z" 
id="f1_2a"
transform="scale(0.001,-0.001)" />

<path d="M31,0V33L150,52v956L31,1026v34H274V52L394,33V0Z" 
id="f1_28"
transform="scale(0.001,-0.001)" />

<path d="M32,0V33L151,52V649L52,668v33H275V52L395,33V0ZM201,850c0,0,-32,0,-56,24c0,0,-24,24,-24,56c0,0,0,34,24,58c0,0,24,24,56,24c0,0,34,0,58,-24c0,0,24,-24,24,-58c0,0,0,-32,-24,-56c0,0,-24,-24,-58,-24Z" 
id="f1_25"
transform="scale(0.001,-0.001)" />

<path d="M360,-14L72,649L0,668v33H327V668L216,648L420,164L615,649L504,668v33H764V668L697,652L416,-14Z" 
id="f1_2i"
transform="scale(0.001,-0.001)" />

<path d="M383,64c0,0,85,0,152,28V645c0,0,-67,13,-152,13c0,0,-194,0,-194,-314c0,0,0,-141,48,-211c0,0,48,-69,146,-69ZM342,-14c0,0,-287,0,-287,358c0,0,0,184,82,280c0,0,81,96,239,96c0,0,81,0,163,-18c0,0,-4,25,-4,124v182l-118,18v34H659V52L745,33V0H548l-9,52c0,0,-84,-66,-197,-66Z" 
id="f1_20"
transform="scale(0.001,-0.001)" />

<path d="M327,-14L84,649L1,668v33H335V668L219,648L385,174L554,632h63L786,171L944,649L830,668v33h267V668l-78,-16L784,-14H726L553,448L382,-14Z" 
id="f1_2j"
transform="scale(0.001,-0.001)" />

<path d="M64,0V34L168,59V639H47v36l121,29v49c0,0,0,155,61,239c0,0,62,84,173,84c0,0,58,0,107,-15V908H472l-33,92c0,0,-26,16,-62,16c0,0,-47,0,-66,-42c0,0,-19,-42,-19,-157V701H478V639H292V59L443,34V0Z" 
id="f1_22"
transform="scale(0.001,-0.001)" />

<path d="M289,-14c0,0,-179,0,-179,205V649L20,668v33H233V200c0,0,0,-128,120,-128c0,0,92,0,173,23V649L420,668v33H649V52L738,33V0H533l-6,57C527,57,474,28,405,7c0,0,-69,-21,-116,-21Z" 
id="f1_2h"
transform="scale(0.001,-0.001)" />

<path d="M431,0V33L535,52V499c0,0,0,62,-32,96c0,0,-32,33,-95,33c0,0,-66,0,-163,-22V52L350,33V0H32V33l89,19V649L32,668v33H237l6,-57c0,0,56,32,119,54c0,0,62,22,110,22c0,0,52,0,95,-20c0,0,44,-19,66,-62c0,0,57,32,134,57c0,0,77,25,128,25c0,0,179,0,179,-207V52l90,-19V0H846V33L950,52V499c0,0,0,129,-119,129c0,0,-19,0,-45,-3c0,0,-26,-3,-52,-7c0,0,-25,-4,-49,-8c0,0,-23,-5,-39,-8c0,0,13,-41,13,-89V52L764,33V0Z" 
id="f1_29"
transform="scale(0.001,-0.001)" />

<path d="M64,-325c0,0,-46,0,-107,14v148H-8l19,-81c0,0,25,-21,62,-21c0,0,44,0,67,47c0,0,22,47,22,152V649L57,668v33H286V-28c0,0,0,-146,-57,-221c0,0,-56,-76,-165,-76ZM213,850c0,0,-34,0,-58,24c0,0,-24,24,-24,56c0,0,0,34,24,58c0,0,24,24,58,24c0,0,32,0,56,-24c0,0,24,-24,24,-58c0,0,0,-32,-24,-56c0,0,-24,-24,-56,-24Z" 
id="f1_26"
transform="scale(0.001,-0.001)" />

<path d="M41,0V34L426,641H261c0,0,-42,0,-80,-7c0,0,-39,-7,-54,-19L104,515H69V701H586V665L201,60H407c0,0,42,0,89,10c0,0,47,10,66,25l39,147h35L617,0Z" 
id="f1_2m"
transform="scale(0.001,-0.001)" />

<path d="M57,302V417H454V302Z" 
id="f1_h"
transform="scale(0.001,-0.001)" />

<path d="M273,157c0,0,-114,0,-193,80C80,237,0,317,0,431c0,0,0,112,80,192c0,0,79,80,193,80c0,0,113,0,192,-80c0,0,80,-80,80,-192c0,0,0,-114,-80,-194c0,0,-79,-80,-192,-80Z" 
id="f2_3d"
transform="scale(0.001,-0.001)" />

<path d="M639,416L478,858L313,416ZM647,0V54L762,74L667,333H283L191,74L319,54V0H15V54L90,74l355,935H662L1016,74l76,-20V0Z" 
id="f0_11"
transform="scale(0.001,-0.001)" />

<path d="M41,0V49l69,18V634L41,652v49H313l11,-61l50,26c0,0,105,54,188,54c0,0,125,0,167,-91c0,0,153,91,258,91c0,0,189,0,189,-207V67l71,-17V0H898V50l63,17V484c0,0,0,63,-24,98c0,0,-25,35,-74,35c0,0,-55,0,-119,-31c0,0,7,-32,7,-73V67L821,50V0H473V50l63,17V484c0,0,0,63,-25,98c0,0,-24,35,-73,35c0,0,-49,0,-113,-29V67L389,49V0Z" 
id="f0_29"
transform="scale(0.001,-0.001)" />

<path d="M424,64c0,0,74,0,109,71c0,0,36,72,36,236c0,0,0,137,-34,201c0,0,-34,65,-111,65c0,0,-29,0,-62,-7c0,0,-34,-6,-55,-19V76c0,0,47,-12,117,-12Zm21,-78c0,0,-121,0,-354,50V994l-72,18v48H307V802c0,0,0,-69,-8,-141c0,0,30,25,86,42c0,0,57,17,110,17c0,0,153,0,223,-84c0,0,70,-83,70,-266c0,0,0,-180,-90,-283C698,87,608,-14,445,-14Z" 
id="f0_1y"
transform="scale(0.001,-0.001)" />

<path d="M416,68c0,0,60,0,124,32V628c0,0,-58,15,-118,15c0,0,-67,0,-104,-73c0,0,-38,-73,-38,-216c0,0,0,-139,36,-212c0,0,35,-74,100,-74ZM369,-14c0,0,-155,0,-231,88c0,0,-76,90,-76,274c0,0,0,182,82,277c0,0,81,95,236,95c0,0,82,0,165,-20c0,0,-5,24,-5,115V992l-72,18v50H756V67L833,49V0H562L547,40C547,40,505,13,483,4c0,0,-23,-7,-51,-12c0,0,-28,-6,-63,-6Z" 
id="f0_20"
transform="scale(0.001,-0.001)" />

<path d="M58,-234v58c0,0,131,42,131,125c0,0,0,15,-11,27c0,0,-11,12,-38,25C140,1,89,27,89,75c0,0,0,40,25,61c0,0,26,21,65,21c0,0,48,0,77,-34c0,0,30,-34,30,-86c0,0,0,-101,-60,-170c0,0,-59,-69,-168,-101Z" 
id="f1_g"
transform="scale(0.001,-0.001)" />

<path d="M359,-270c0,0,124,0,192,46c0,0,67,47,67,129c0,0,0,43,-26,67c0,0,-26,24,-79,24H242c0,0,-32,-27,-51,-69c0,0,-20,-41,-20,-77c0,0,0,-64,46,-92c0,0,46,-28,142,-28Zm11,561c0,0,81,0,115,47c0,0,34,47,34,141c0,0,0,100,-35,142c0,0,-35,42,-113,42c0,0,-78,0,-114,-43c0,0,-37,-42,-37,-141c0,0,0,-98,36,-143c0,0,36,-45,114,-45ZM359,-329c0,0,-143,0,-218,44c0,0,-75,43,-75,125c0,0,0,39,27,78c0,0,26,38,98,89c0,0,-43,14,-72,48c0,0,-29,35,-29,74L208,262c0,0,-118,55,-118,217c0,0,0,115,73,178c0,0,73,63,211,63c0,0,28,0,71,-6c0,0,44,-6,67,-13l165,83l26,-32L599,644c0,0,50,-56,50,-165c0,0,0,-120,-72,-182c0,0,-73,-62,-208,-62c0,0,-62,0,-114,11L208,148c0,0,2,-13,29,-24c0,0,27,-12,67,-12H512c0,0,113,0,168,-49c0,0,55,-49,55,-134c0,0,0,-79,-44,-137c0,0,-43,-58,-128,-90c0,0,-84,-31,-204,-31Z" 
id="f1_23"
transform="scale(0.001,-0.001)" />

<path d="M631,416L539,902L283,416ZM576,0l8,40L691,60L643,348H249L96,60L197,40L189,0H-83l8,40L7,60l509,949H659L845,60L938,40L930,0Z" 
id="f3_11"
transform="scale(0.001,-0.001)" />

<path d="M55,0L169,649L81,668l6,33H295L274,557c0,0,52,73,117,118c0,0,65,45,122,45c0,0,66,0,102,-42c0,0,36,-41,36,-121c0,0,51,72,115,117c0,0,64,46,123,46c0,0,63,0,99,-40c0,0,36,-40,36,-116c0,0,0,-16,-3,-42c0,0,-3,-27,-80,-470l98,-19L1032,0H808l77,434c0,0,17,90,17,124c0,0,0,34,-16,54c0,0,-15,21,-49,21c0,0,-33,0,-78,-32c0,0,-46,-31,-83,-80c0,0,-37,-49,-44,-91L558,0H434l76,434c0,0,19,98,19,124c0,0,0,34,-17,54c0,0,-16,21,-51,21c0,0,-33,0,-81,-34c0,0,-47,-33,-84,-80c0,0,-36,-48,-43,-89L179,0Z" 
id="f3_29"
transform="scale(0.001,-0.001)" />

<path d="M325,47c0,0,68,0,130,54c0,0,61,55,97,149c0,0,36,94,36,202c0,0,0,103,-39,156c0,0,-39,53,-113,53c0,0,-67,0,-128,-54c0,0,-61,-55,-96,-149c0,0,-35,-94,-35,-204c0,0,0,-101,39,-154c0,0,39,-53,109,-53Zm-6,-61c0,0,-124,0,-199,79c0,0,-74,79,-74,214c0,0,0,120,51,222c0,0,51,102,143,160c0,0,91,59,205,59c0,0,124,0,199,-80c0,0,74,-79,74,-214c0,0,0,-120,-51,-222C667,204,615,102,524,43c0,0,-91,-57,-205,-57Z" 
id="f3_2b"
transform="scale(0.001,-0.001)" />

<path d="M188,355c0,0,148,11,236,69c0,0,89,58,89,143c0,0,0,41,-23,68c0,0,-22,27,-66,27c0,0,-52,0,-101,-43c0,0,-49,-42,-85,-114c0,0,-36,-71,-50,-150ZM298,-14c0,0,-120,0,-186,67c0,0,-65,67,-65,193c0,0,0,125,53,232c0,0,52,108,145,175c0,0,94,67,196,67c0,0,92,0,147,-42c0,0,56,-43,56,-111c0,0,0,-102,-126,-173c0,0,-125,-72,-336,-86l-3,-54c0,0,0,-95,40,-143c0,0,40,-47,118,-47c0,0,67,0,124,22c0,0,57,23,106,52l22,-32c0,0,-69,-58,-146,-89c0,0,-76,-31,-145,-31Z" 
id="f3_21"
transform="scale(0.001,-0.001)" />

<path d="M305,45c0,0,76,0,141,56c0,0,64,56,101,151c0,0,37,95,37,200c0,0,0,83,-35,129c0,0,-34,46,-92,46c0,0,-44,0,-96,-29c0,0,-51,-29,-97,-75L185,81c0,0,43,-36,120,-36ZM295,-14c0,0,-65,0,-128,16C167,2,104,19,57,48l171,960l-100,18l6,34H358L303,731c0,0,-13,-85,-29,-144c0,0,59,61,122,97c0,0,64,36,116,36c0,0,94,0,150,-67c0,0,56,-67,56,-182c0,0,0,-129,-56,-242C662,229,606,115,509,50c0,0,-98,-64,-214,-64Z" 
id="f3_1y"
transform="scale(0.001,-0.001)" />

<path d="M301,78c0,0,85,0,185,104l81,442c0,0,-29,20,-55,28c0,0,-25,8,-62,8c0,0,-75,0,-137,-56c0,0,-62,-56,-98,-152c0,0,-36,-95,-36,-199c0,0,0,-79,33,-127c0,0,33,-48,89,-48ZM245,-14c0,0,-90,0,-145,66c0,0,-54,66,-54,182c0,0,0,131,57,244c0,0,57,114,152,178c0,0,96,64,208,64c0,0,90,0,170,-33l33,26h40L589,52L673,33L667,0H454l22,117C476,117,350,-14,245,-14Z" 
id="f3_1x"
transform="scale(0.001,-0.001)" />

<path d="M36,0V54L154,74V926L26,945v55H860V731H790L766,908c0,0,-36,5,-121,8c0,0,-84,2,-133,2H389V508H633l23,127h67V298H656L633,426H389V74L556,54V0Z" 
id="f0_16"
transform="scale(0.001,-0.001)" />

<path d="M360,-256c0,0,108,0,167,35c0,0,59,35,59,98c0,0,0,70,-95,70H254c0,0,-65,-47,-65,-108c0,0,0,-47,46,-71c0,0,45,-24,125,-24Zm9,561c0,0,55,0,79,43c0,0,25,43,25,129c0,0,0,87,-24,127c0,0,-25,41,-80,41c0,0,-52,0,-75,-41c0,0,-24,-40,-24,-127c0,0,0,-86,23,-129c0,0,23,-43,76,-43Zm-9,-641c0,0,-153,0,-236,43c0,0,-84,44,-84,120c0,0,0,33,28,65c0,0,27,31,105,76c0,0,-44,17,-75,59c0,0,-31,43,-31,90L192,258c0,0,-133,56,-133,219c0,0,0,116,81,180c0,0,82,63,233,63c0,0,32,0,82,-6c0,0,51,-6,74,-13l168,83l26,-32L638,631c0,0,46,-57,46,-154c0,0,0,-119,-80,-182c0,0,-80,-64,-234,-64c0,0,-59,0,-114,9L238,183c0,0,1,-22,28,-41c0,0,26,-19,64,-19H493c0,0,256,0,256,-196c0,0,0,-81,-44,-139c0,0,-45,-59,-131,-92c0,0,-86,-32,-214,-32Z" 
id="f0_23"
transform="scale(0.001,-0.001)" />

<path d="M376,50c0,0,103,0,149,80c0,0,46,81,46,240c0,0,0,137,-47,204c0,0,-48,67,-148,67c0,0,-44,0,-87,-7c0,0,-44,-8,-63,-17V62c0,0,63,-12,150,-12Zm3,-64c0,0,-64,0,-141,14c0,0,-78,14,-136,37v971L0,1026v34H226V809c0,0,0,-40,-4,-148c0,0,74,59,188,59c0,0,143,0,219,-87c0,0,77,-87,77,-263c0,0,0,-189,-84,-287c0,0,-84,-97,-243,-97Z" 
id="f1_1y"
transform="scale(0.001,-0.001)" />

<path d="M54,0V40L172,60V941L44,960v40H794V760H745L721,922c0,0,-83,11,-241,11H316V516H611l23,120h46V328H634L611,449H316V60L483,40V0Z" 
id="f1_16"
transform="scale(0.001,-0.001)" />

<path d="M13,0V34L95,46L325,350L122,649L40,668v33H357V668L264,648L399,446L554,649l-96,19v33H710V668L630,652L433,397L663,50L745,34V0H427V34l94,17L359,299L169,50L266,34V0Z" 
id="f1_2k"
transform="scale(0.001,-0.001)" />

<path d="M131,0l8,40L301,60L455,936H417c0,0,-148,0,-219,-15L150,766H100l42,234H940L898,766H847l8,155c0,0,-67,13,-219,13H599L445,60L601,40L593,0Z" 
id="f3_1k"
transform="scale(0.001,-0.001)" />

<path d="M62,0L176,649L88,668l6,33H301L278,543c0,0,55,84,124,130c0,0,69,47,138,47c0,0,37,0,59,-6L566,530H534l-28,95c0,0,-60,0,-124,-46c0,0,-63,-45,-116,-120L186,0Z" 
id="f3_2e"
transform="scale(0.001,-0.001)" />

<path d="M-15,-329c0,0,-61,0,-112,13l28,152h34l12,-72c0,0,18,-17,60,-17c0,0,100,0,212,202L253,9L116,649L33,668l6,33H230L338,155L513,458c0,0,48,83,48,144c0,0,0,27,-16,44c0,0,-15,16,-33,22l6,33H659c0,0,20,-17,20,-47c0,0,0,-59,-62,-164L322,-7c0,0,-86,-145,-135,-205c0,0,-50,-61,-98,-89c0,0,-49,-28,-104,-28Z" 
id="f3_2l"
transform="scale(0.001,-0.001)" />

<path d="M317,45c0,0,74,0,134,54c0,0,60,55,97,153c0,0,36,98,36,200c0,0,0,82,-33,129c0,0,-33,46,-89,46c0,0,-40,0,-93,-29c0,0,-54,-29,-96,-75L192,81c0,0,46,-36,125,-36ZM-88,-325l5,35l90,17L170,649L93,668l6,33H297L283,588c0,0,130,132,235,132c0,0,90,0,145,-67c0,0,55,-66,55,-182c0,0,0,-132,-56,-244C662,227,606,114,510,49c0,0,-97,-63,-209,-63c0,0,-35,0,-72,5c0,0,-37,5,-55,11l-8,-67L130,-273l119,-17l-6,-35Z" 
id="f3_2c"
transform="scale(0.001,-0.001)" />

<path d="M54,0L169,649L81,668l6,33H294L274,558c0,0,62,81,130,121c0,0,67,41,132,41c0,0,75,0,113,-41c0,0,38,-41,38,-117c0,0,0,-10,-3,-32c0,0,-3,-21,-81,-478L700,34L695,0H470l76,434c0,0,17,94,17,123c0,0,0,34,-18,55c0,0,-18,21,-56,21c0,0,-56,0,-121,-47c0,0,-65,-47,-108,-117L178,0Z" 
id="f3_2a"
transform="scale(0.001,-0.001)" />

<path d="M228,-14c0,0,-103,0,-209,46L49,200H83L95,99c0,0,20,-21,55,-38c0,0,36,-16,81,-16c0,0,163,0,163,133c0,0,0,44,-35,78c0,0,-34,34,-113,72c0,0,-75,37,-112,81c0,0,-36,45,-36,104c0,0,0,99,66,153c0,0,67,54,184,54c0,0,85,0,200,-26L521,538H486l-11,80c0,0,-47,42,-124,42c0,0,-61,0,-97,-28c0,0,-37,-28,-37,-87c0,0,0,-40,31,-71c0,0,32,-30,119,-75c0,0,78,-40,113,-86c0,0,36,-47,36,-107c0,0,0,-113,-71,-167c0,0,-72,-53,-217,-53Z" 
id="f3_2f"
transform="scale(0.001,-0.001)" />

<path d="M477,0V33l64,19L348,354L257,254V52L331,33V0H44V33l89,19v956L29,1026v34H257V338L544,647l-73,20v34H718V667L631,650L431,446L688,50L764,33V0Z" 
id="f1_27"
transform="scale(0.001,-0.001)" />

<path d="M608,-14c0,0,-251,0,-392,133C216,119,75,252,75,488c0,0,0,257,134,390c0,0,135,133,398,133c0,0,174,0,361,-50l4,-240H905L884,866c0,0,-98,67,-229,67c0,0,-173,0,-253,-108c0,0,-80,-108,-80,-334c0,0,0,-209,84,-319c0,0,83,-109,243,-109c0,0,84,0,147,22c0,0,63,22,99,53l24,164h68L982,48C982,48,915,22,808,4C808,4,700,-14,608,-14Z" 
id="f0_13"
transform="scale(0.001,-0.001)" />

<path d="M55,0V40L184,60V941L55,960v40H455V960L327,941V60L455,40V0Z" 
id="f1_19"
transform="scale(0.001,-0.001)" />

<path d="M457,460c0,0,289,0,289,266c0,0,0,106,-54,157c0,0,-54,50,-163,50H419L335,460ZM-7,0L0,40L120,60L276,941L151,960l7,40H559c0,0,161,0,248,-67c0,0,87,-66,87,-198c0,0,0,-167,-109,-255c0,0,-109,-88,-312,-88H323L264,60L427,40L420,0Z" 
id="f3_1g"
transform="scale(0.001,-0.001)" />

<path d="M298,-14c0,0,-120,0,-185,69c0,0,-66,69,-66,191c0,0,0,130,52,237c0,0,52,107,149,172c0,0,97,65,203,65c0,0,53,0,112,-12c0,0,60,-11,99,-27L628,485H587L575,615c0,0,-47,47,-125,47c0,0,-72,0,-134,-53c0,0,-62,-53,-100,-147c0,0,-37,-95,-37,-208c0,0,0,-190,154,-190c0,0,106,0,222,74l22,-32c0,0,-60,-56,-135,-88c0,0,-76,-32,-144,-32Z" 
id="f3_1z"
transform="scale(0.001,-0.001)" />

<path d="M85,0L199,649l-96,19l6,33H332L218,52L335,33L329,0ZM297,849c0,0,-33,0,-57,24c0,0,-24,24,-24,57c0,0,0,33,24,57c0,0,24,24,57,24c0,0,33,0,57,-24c0,0,24,-24,24,-57c0,0,0,-33,-24,-57c0,0,-24,-24,-57,-24Z" 
id="f3_25"
transform="scale(0.001,-0.001)" />

<path d="M228,-17c0,0,-76,0,-114,40c0,0,-38,41,-38,117c0,0,0,11,4,39c0,0,4,29,80,470L78,667l6,34H293L217,268c0,0,-17,-94,-17,-124c0,0,0,-34,18,-55c0,0,18,-21,57,-21c0,0,55,0,120,47c0,0,65,47,107,115l83,471H709L595,52L683,33L677,0H469l20,144C489,144,427,64,360,23c0,0,-67,-40,-132,-40Z" 
id="f3_2h"
transform="scale(0.001,-0.001)" />

<path d="M160,0L581,834H186L152,715H87v285H727V941L338,0Z" 
id="f0_r"
transform="scale(0.001,-0.001)" />

<path d="M480,474c0,0,114,0,179,69c0,0,65,69,65,188c0,0,0,90,-43,139c0,0,-44,48,-130,48H499L421,474ZM0,0L7,54L128,74L279,926L154,945l9,55H559c0,0,189,0,287,-67c0,0,97,-67,97,-200c0,0,0,-162,-111,-251c0,0,-111,-90,-320,-90H406L349,74L512,54L504,0Z" 
id="f4_1g"
transform="scale(0.001,-0.001)" />

<path d="M304,96c0,0,30,0,67,30c0,0,36,30,65,74l74,420c0,0,-33,25,-92,25c0,0,-55,0,-102,-52c0,0,-47,-53,-75,-143c0,0,-27,-90,-27,-187c0,0,0,-77,26,-122c0,0,26,-45,64,-45ZM215,-14c0,0,-93,0,-145,66c0,0,-52,68,-52,187c0,0,0,130,54,242c0,0,55,111,152,175c0,0,98,64,215,64c0,0,103,0,187,-35l61,28h40L614,67L695,43L689,0H430l-3,104c0,0,-44,-55,-99,-87c0,0,-56,-31,-113,-31Z" 
id="f4_1x"
transform="scale(0.001,-0.001)" />

<path d="M31,0L143,634L56,652l8,49H344L327,550c0,0,41,80,99,125c0,0,59,45,118,45c0,0,36,0,62,-8L562,461H521L489,563c0,0,-56,0,-98,-28c0,0,-42,-28,-81,-90L232,0Z" 
id="f4_2e"
transform="scale(0.001,-0.001)" />

<path d="M29,0L140,634L73,652l10,49H327L325,576c0,0,54,73,114,108c0,0,61,36,135,36c0,0,67,0,104,-40c0,0,38,-39,39,-108c0,0,105,148,252,148c0,0,66,0,104,-42c0,0,39,-41,39,-116c0,0,0,-27,-12,-98L1029,67l86,-18L1106,0H818l76,424c0,0,16,87,16,117c0,0,0,72,-54,72c0,0,-26,0,-61,-30c0,0,-36,-30,-64,-76c0,0,-28,-46,-35,-87L622,0H423l76,424c0,0,16,87,16,117c0,0,0,72,-55,72c0,0,-36,0,-81,-50c0,0,-46,-49,-72,-120L228,0Z" 
id="f4_29"
transform="scale(0.001,-0.001)" />

<path d="M254,378c0,0,91,10,150,67c0,0,59,56,59,132c0,0,0,31,-16,47c0,0,-15,15,-36,15c0,0,-51,0,-96,-76c0,0,-44,-76,-61,-185ZM307,-14c0,0,-132,0,-202,66c0,0,-69,66,-69,194c0,0,0,128,54,238c0,0,55,110,144,173c0,0,90,63,186,63c0,0,103,0,164,-42c0,0,61,-41,61,-111c0,0,0,-67,-50,-124c0,0,-49,-57,-142,-93c0,0,-93,-37,-211,-46c0,0,-3,-15,-3,-50c0,0,0,-176,135,-176c0,0,55,0,102,21c0,0,47,22,88,49l33,-47c0,0,-66,-55,-143,-85c0,0,-77,-30,-147,-30Z" 
id="f4_21"
transform="scale(0.001,-0.001)" />

<path d="M292,-14c0,0,-129,0,-199,69c0,0,-71,69,-71,191c0,0,0,138,55,246c0,0,55,108,151,168c0,0,97,60,208,60c0,0,54,0,117,-10c0,0,63,-10,103,-24L619,471H565L555,599c0,0,-40,44,-109,44c0,0,-59,0,-111,-52c0,0,-53,-53,-83,-142c0,0,-30,-90,-30,-195c0,0,0,-83,33,-130c0,0,33,-46,96,-46c0,0,56,0,102,20c0,0,46,21,89,51l32,-48c0,0,-61,-54,-136,-85c0,0,-75,-30,-146,-30Z" 
id="f4_1z"
transform="scale(0.001,-0.001)" />

<path d="M39,0L151,634L83,652l8,49H363L251,67L340,49L332,0ZM304,831c0,0,-48,0,-82,33c0,0,-33,33,-33,82c0,0,0,48,34,81c0,0,34,33,81,33c0,0,47,0,81,-33c0,0,33,-33,33,-81c0,0,0,-47,-33,-81c0,0,-33,-34,-81,-34Z" 
id="f4_25"
transform="scale(0.001,-0.001)" />

<path d="M219,-17c0,0,-75,0,-118,40c0,0,-42,41,-42,117c0,0,0,14,5,48c0,0,5,34,78,446L56,652l10,49H354L278,278c0,0,-17,-86,-17,-117c0,0,0,-72,68,-72c0,0,48,0,107,53c0,0,60,54,86,117l79,442H800L689,67L771,49L761,0H497l6,132C503,132,387,-17,219,-17Z" 
id="f4_2h"
transform="scale(0.001,-0.001)" />

<path d="M410,-14c0,0,-86,0,-175,14C235,0,145,14,81,38V307h66L181,146c0,0,31,-37,94,-62c0,0,64,-24,132,-24c0,0,214,0,214,177c0,0,0,55,-41,93c0,0,-41,38,-128,68c0,0,-128,42,-185,68c0,0,-56,27,-95,63c0,0,-38,36,-62,87c0,0,-23,51,-23,125c0,0,0,132,90,201c0,0,90,69,263,69c0,0,125,0,278,-32V741H651L618,878c0,0,-76,56,-178,56c0,0,-92,0,-141,-34c0,0,-49,-34,-49,-104c0,0,0,-50,41,-86c0,0,41,-35,128,-63c0,0,171,-56,235,-97c0,0,64,-41,97,-103c0,0,34,-61,34,-143c0,0,0,-318,-375,-318Z" 
id="f0_1j"
transform="scale(0.001,-0.001)" />

<path d="M81,0L258,1008l-96,18l6,34H391L214,52L331,33L325,0Z" 
id="f3_28"
transform="scale(0.001,-0.001)" />

<path d="M301,78c0,0,41,0,90,27c0,0,49,28,95,77l81,442c0,0,-26,18,-54,27c0,0,-27,10,-67,10c0,0,-70,0,-131,-55c0,0,-61,-55,-99,-152c0,0,-37,-97,-37,-201c0,0,0,-79,33,-127c0,0,33,-48,89,-48ZM245,-14c0,0,-91,0,-145,68c0,0,-54,69,-54,183c0,0,0,128,55,240c0,0,55,112,150,177c0,0,96,66,210,66c0,0,70,0,123,-18c0,0,3,36,51,306l-115,18l6,34H768L589,52L673,33L667,0H454l22,117C476,117,350,-14,245,-14Z" 
id="f3_20"
transform="scale(0.001,-0.001)" />

<path d="M617,0L251,860V60L385,40V0H44V40L172,60V941L44,960v40H347L672,239l355,761h287V960L1185,941V60L1314,40V0H908V40l134,20V859L643,0Z" 
id="f1_1d"
transform="scale(0.001,-0.001)" />

<path d="M448,506c0,0,134,0,190,49c0,0,57,50,57,168c0,0,0,114,-56,162c0,0,-56,48,-195,48H316V506ZM777,0L496,438H316V60L468,40V0H54V40L172,60V941L44,960v40H476c0,0,188,0,277,-63c0,0,90,-64,90,-204c0,0,0,-100,-54,-173c0,0,-55,-73,-151,-101L909,60L1017,40V0Z" 
id="f1_1i"
transform="scale(0.001,-0.001)" />

<path d="M377,60c0,0,65,0,94,49c0,0,30,49,30,160c0,0,0,115,-30,168c0,0,-29,52,-94,52c0,0,-61,0,-88,-51c0,0,-26,-51,-26,-169c0,0,0,-115,27,-162c0,0,27,-47,87,-47Zm2,509c0,0,51,0,75,43c0,0,24,43,24,143c0,0,0,98,-24,142c0,0,-25,45,-75,45c0,0,-48,0,-71,-45c0,0,-22,-44,-22,-142c0,0,0,-102,22,-144c0,0,22,-42,71,-42ZM377,-14c0,0,-326,0,-326,284c0,0,0,95,46,162c0,0,46,68,128,98c0,0,-72,28,-112,85c0,0,-39,58,-39,141c0,0,0,123,81,191c0,0,81,69,228,69c0,0,145,0,226,-70c0,0,81,-70,81,-192c0,0,0,-82,-40,-140c0,0,-41,-58,-114,-84c0,0,86,-32,132,-99c0,0,45,-67,45,-161c0,0,0,-142,-82,-213c0,0,-81,-71,-254,-71Z" 
id="f0_s"
transform="scale(0.001,-0.001)" />

<path d="M34,0L210,992l-68,18l8,50H422L246,67L335,49L327,0Z" 
id="f4_28"
transform="scale(0.001,-0.001)" />

<path d="M213,-14c0,0,-57,0,-123,13C90,-1,24,11,-7,26L26,220H75L87,122c0,0,47,-67,132,-67c0,0,61,0,97,32c0,0,37,33,37,81c0,0,0,29,-20,53c0,0,-20,24,-61,48l-50,29c0,0,-82,46,-117,96c0,0,-34,51,-34,113c0,0,0,213,281,213c0,0,88,0,196,-24L515,516H466l-9,82c0,0,-16,19,-47,35c0,0,-30,16,-68,16c0,0,-57,0,-84,-25c0,0,-26,-25,-26,-66c0,0,0,-29,22,-55c0,0,22,-25,97,-67c0,0,70,-39,101,-68c0,0,31,-29,48,-64c0,0,17,-35,17,-82c0,0,0,-114,-76,-175c0,0,-76,-61,-228,-61Z" 
id="f4_2f"
transform="scale(0.001,-0.001)" />

<path d="M320,60c0,0,48,0,93,55c0,0,44,55,70,149c0,0,27,93,27,202c0,0,0,179,-94,179c0,0,-47,0,-93,-56c0,0,-45,-57,-73,-152c0,0,-28,-95,-28,-199c0,0,0,-85,27,-132c0,0,28,-46,71,-46ZM303,-14c0,0,-127,0,-203,79c0,0,-76,80,-76,214c0,0,0,121,52,222c0,0,52,102,146,160c0,0,94,59,211,59c0,0,126,0,203,-80c0,0,76,-80,76,-214c0,0,0,-121,-53,-222C659,204,607,102,514,44c0,0,-94,-58,-211,-58Z" 
id="f4_2b"
transform="scale(0.001,-0.001)" />

<path d="M291,96c0,0,28,0,68,30c0,0,40,30,71,74l73,410c0,0,-15,14,-46,25c0,0,-31,10,-54,10c0,0,-51,0,-95,-53c0,0,-43,-53,-69,-143c0,0,-25,-90,-25,-185c0,0,0,-80,21,-124c0,0,22,-44,56,-44ZM206,-14c0,0,-85,0,-137,65c0,0,-51,66,-51,181c0,0,0,132,48,244c0,0,48,113,135,178c0,0,87,66,193,66c0,0,81,0,130,-21l2,22l8,70l34,201l-119,19l9,49H783L606,64L680,45L671,0H423l-5,108c0,0,-44,-59,-101,-91c0,0,-57,-31,-111,-31Z" 
id="f4_20"
transform="scale(0.001,-0.001)" />

<path d="M425,-14c0,0,-187,0,-280,90c0,0,-93,90,-93,276c0,0,0,115,42,198c0,0,43,82,121,126c0,0,78,44,182,44c0,0,104,0,227,-26V486H571L539,609c0,0,-25,19,-50,26c0,0,-24,7,-65,7c0,0,-44,0,-79,-35c0,0,-36,-35,-56,-98c0,0,-20,-64,-20,-153c0,0,0,-150,47,-214c0,0,47,-64,148,-64c0,0,103,0,176,21V42C640,42,606,15,547,0c0,0,-59,-14,-122,-14Z" 
id="f0_1z"
transform="scale(0.001,-0.001)" />

<path d="M415,-18c0,0,-149,0,-244,83c0,0,-94,84,-107,222l140,11c0,0,16,-103,73,-154c0,0,56,-52,137,-52c0,0,98,0,165,73c0,0,66,73,66,194c0,0,0,115,-64,182c0,0,-64,66,-169,66c0,0,-65,0,-117,-29c0,0,-52,-30,-82,-77L87,517l106,562H736V951H300L241,657c0,0,99,69,207,69c0,0,143,0,242,-100c0,0,98,-99,98,-255c0,0,0,-149,-86,-257C702,114,597,-18,415,-18Z" 
id="f5_p"
transform="scale(0.001,-0.001)" />


</defs>
</svg>