<?xml version="1.0" encoding="UTF-8" standalone="no"?>
<!DOCTYPE svg PUBLIC "-//W3C//DTD SVG 1.1//EN"
"http://www.w3.org/Graphics/SVG/1.1/DTD/svg11.dtd">
<svg viewBox="0 0 935 1210" version="1.1" xmlns="http://www.w3.org/2000/svg" xmlns:xlink="http://www.w3.org/1999/xlink">
<defs>
<style type="text/css"><![CDATA[
.g0_168{
}
]]></style>
</defs>
<g fill="#000000" >
<use xlink:href="#f0_13" transform="matrix(12,0,0,12,55,72.3)" />
<use xlink:href="#f0_1x" transform="matrix(12,0,0,12,67.1,72.3)" />
<use xlink:href="#f0_28" transform="matrix(12,0,0,12,75.6,72.3)" />
<use xlink:href="#f0_28" transform="matrix(12,0,0,12,80.3,72.3)" />
<use xlink:href="#f0_21" transform="matrix(12,0,0,12,85.1,72.3)" />
<use xlink:href="#f0_20" transform="matrix(12,0,0,12,93.2,72.3)" />
<use xlink:href="#f0_1x" transform="matrix(12,0,0,12,107.5,72.3)" />
<use xlink:href="#f0_2f" transform="matrix(12,0,0,12,115.5,72.3)" />
<use xlink:href="#f0_21" transform="matrix(12,0,0,12,127.6,72.3)" />
<use xlink:href="#f0_2d" transform="matrix(12,0,0,12,135.7,72.3)" />
<use xlink:href="#f0_2h" transform="matrix(12,0,0,12,144.9,72.3)" />
<use xlink:href="#f0_1x" transform="matrix(12,0,0,12,154,72.3)" />
<use xlink:href="#f0_2g" transform="matrix(12,0,0,12,162.1,72.3)" />
<use xlink:href="#f0_25" transform="matrix(12,0,0,12,167.9,72.3)" />
<use xlink:href="#f0_2b" transform="matrix(12,0,0,12,172.3,72.3)" />
<use xlink:href="#f0_2a" transform="matrix(12,0,0,12,181.8,72.3)" />
<use xlink:href="#f0_1x" transform="matrix(12,0,0,12,190.6,72.3)" />
<use xlink:href="#f0_28" transform="matrix(12,0,0,12,199.1,72.3)" />
<use xlink:href="#f0_20" transform="matrix(12,0,0,12,208.6,72.3)" />
<use xlink:href="#f0_25" transform="matrix(12,0,0,12,218.1,72.3)" />
<use xlink:href="#f0_2i" transform="matrix(12,0,0,12,222.9,72.3)" />
<use xlink:href="#f0_25" transform="matrix(12,0,0,12,232.4,72.3)" />
<use xlink:href="#f0_2f" transform="matrix(12,0,0,12,237.1,72.3)" />
<use xlink:href="#f0_25" transform="matrix(12,0,0,12,244.5,72.3)" />
<use xlink:href="#f0_2b" transform="matrix(12,0,0,12,248.9,72.3)" />
<use xlink:href="#f0_2a" transform="matrix(12,0,0,12,258.7,72.3)" />
<use xlink:href="#f0_1x" transform="matrix(12,0,0,12,272.9,72.3)" />
<use xlink:href="#f0_2f" transform="matrix(12,0,0,12,281,72.3)" />
<use xlink:href="#f0_2g" transform="matrix(12,0,0,12,293.1,72.3)" />
<use xlink:href="#f0_24" transform="matrix(12,0,0,12,298.6,72.3)" />
<use xlink:href="#f0_21" transform="matrix(12,0,0,12,307.4,72.3)" />
<use xlink:href="#f0_2a" transform="matrix(12,0,0,12,320.5,72.3)" />
<use xlink:href="#f0_2h" transform="matrix(12,0,0,12,329.3,72.3)" />
<use xlink:href="#f0_29" transform="matrix(12,0,0,12,338.9,72.3)" />
<use xlink:href="#f0_1y" transform="matrix(12,0,0,12,352.8,72.3)" />
<use xlink:href="#f0_21" transform="matrix(12,0,0,12,361.6,72.3)" />
<use xlink:href="#f0_2e" transform="matrix(12,0,0,12,369.7,72.3)" />
<use xlink:href="#f0_2b" transform="matrix(12,0,0,12,381,72.3)" />
<use xlink:href="#f0_22" transform="matrix(12,0,0,12,390.5,72.3)" />
<use xlink:href="#f0_1z" transform="matrix(12,0,0,12,401.1,72.3)" />
<use xlink:href="#f0_24" transform="matrix(12,0,0,12,409.2,72.3)" />
<use xlink:href="#f0_2e" transform="matrix(12,0,0,12,418,72.3)" />
<use xlink:href="#f0_2b" transform="matrix(12,0,0,12,424.6,72.3)" />
<use xlink:href="#f0_29" transform="matrix(12,0,0,12,434.1,72.3)" />
<use xlink:href="#f0_2b" transform="matrix(12,0,0,12,447.6,72.3)" />
<use xlink:href="#f0_2f" transform="matrix(12,0,0,12,457.2,72.3)" />
<use xlink:href="#f0_2b" transform="matrix(12,0,0,12,464.1,72.3)" />
<use xlink:href="#f0_29" transform="matrix(12,0,0,12,473.6,72.3)" />
<use xlink:href="#f0_21" transform="matrix(12,0,0,12,487.2,72.3)" />
<use xlink:href="#f0_2f" transform="matrix(12,0,0,12,495.6,72.3)" />
<use xlink:href="#f0_25" transform="matrix(12,0,0,12,508.4,72.3)" />
<use xlink:href="#f0_2a" transform="matrix(12,0,0,12,513.2,72.3)" />
<use xlink:href="#f0_2g" transform="matrix(12,0,0,12,527.1,72.3)" />
<use xlink:href="#f0_24" transform="matrix(12,0,0,12,532.5,72.3)" />
<use xlink:href="#f0_21" transform="matrix(12,0,0,12,541.3,72.3)" />
<use xlink:href="#f0_20" transform="matrix(12,0,0,12,554.5,72.3)" />
<use xlink:href="#f0_1x" transform="matrix(12,0,0,12,563.7,72.3)" />
<use xlink:href="#f0_2h" transform="matrix(12,0,0,12,571.8,72.3)" />
<use xlink:href="#f0_23" transform="matrix(12,0,0,12,580.9,72.3)" />
<use xlink:href="#f0_24" transform="matrix(12,0,0,12,590.1,72.3)" />
<use xlink:href="#f0_2g" transform="matrix(12,0,0,12,598.9,72.3)" />
<use xlink:href="#f0_21" transform="matrix(12,0,0,12,604.4,72.3)" />
<use xlink:href="#f0_2e" transform="matrix(12,0,0,12,612.4,72.3)" />
<use xlink:href="#f0_1z" transform="matrix(12,0,0,12,623.4,72.3)" />
<use xlink:href="#f0_21" transform="matrix(12,0,0,12,631.5,72.3)" />
<use xlink:href="#f0_28" transform="matrix(12,0,0,12,639.9,72.3)" />
<use xlink:href="#f0_28" transform="matrix(12,0,0,12,644.7,72.3)" />
<use xlink:href="#f0_1x" transform="matrix(12,0,0,12,654.2,72.3)" />
<use xlink:href="#f0_2a" transform="matrix(12,0,0,12,662.6,72.3)" />
<use xlink:href="#f0_20" transform="matrix(12,0,0,12,671.4,72.3)" />
<use xlink:href="#f0_2g" transform="matrix(12,0,0,12,685.7,72.3)" />
<use xlink:href="#f0_24" transform="matrix(12,0,0,12,691.2,72.3)" />
<use xlink:href="#f0_21" transform="matrix(12,0,0,12,700,72.3)" />
<use xlink:href="#f0_2c" transform="matrix(12,0,0,12,713.1,72.3)" />
<use xlink:href="#f0_1x" transform="matrix(12,0,0,12,722.3,72.3)" />
<use xlink:href="#f0_2e" transform="matrix(12,0,0,12,730.4,72.3)" />
<use xlink:href="#f0_21" transform="matrix(12,0,0,12,736.6,72.3)" />
<use xlink:href="#f0_2a" transform="matrix(12,0,0,12,744.7,72.3)" />
<use xlink:href="#f0_2g" transform="matrix(12,0,0,12,753.5,72.3)" />
<use xlink:href="#f0_1z" transform="matrix(12,0,0,12,763.7,72.3)" />
<use xlink:href="#f0_21" transform="matrix(12,0,0,12,771.8,72.3)" />
<use xlink:href="#f0_28" transform="matrix(12,0,0,12,780.2,72.3)" />
<use xlink:href="#f0_28" transform="matrix(12,0,0,12,785,72.3)" />
<use xlink:href="#f0_2e" transform="matrix(12,0,0,12,794.8,72.3)" />
<use xlink:href="#f0_21" transform="matrix(12,0,0,12,801.1,72.3)" />
<use xlink:href="#f0_29" transform="matrix(12,0,0,12,809.5,72.3)" />
<use xlink:href="#f0_1x" transform="matrix(12,0,0,12,823,72.3)" />
<use xlink:href="#f0_25" transform="matrix(12,0,0,12,831.5,72.3)" />
<use xlink:href="#f0_2a" transform="matrix(12,0,0,12,836.2,72.3)" />
<use xlink:href="#f0_2f" transform="matrix(12,0,0,12,845.4,72.3)" />
<use xlink:href="#f0_2g" transform="matrix(12,0,0,12,857.5,72.3)" />
<use xlink:href="#f0_24" transform="matrix(12,0,0,12,863,72.3)" />
<use xlink:href="#f0_21" transform="matrix(12,0,0,12,871.8,72.3)" />
<use xlink:href="#f0_2f" transform="matrix(12,0,0,12,55,103.8)" />
<use xlink:href="#f0_1x" transform="matrix(12,0,0,12,62,103.8)" />
<use xlink:href="#f0_29" transform="matrix(12,0,0,12,70.4,103.8)" />
<use xlink:href="#f0_21" transform="matrix(12,0,0,12,84.4,103.8)" />
<use xlink:href="#f0_i" transform="matrix(12,0,0,12,92.4,103.8)" />
<use xlink:href="#f0_19" transform="matrix(12,0,0,12,101.2,103.8)" />
<use xlink:href="#f0_2g" transform="matrix(12,0,0,12,107.1,103.8)" />
<use xlink:href="#f0_1y" transform="matrix(12,0,0,12,116.6,103.8)" />
<use xlink:href="#f0_21" transform="matrix(12,0,0,12,125.4,103.8)" />
<use xlink:href="#f0_23" transform="matrix(12,0,0,12,133.5,103.8)" />
<use xlink:href="#f0_25" transform="matrix(12,0,0,12,143,103.8)" />
<use xlink:href="#f0_2a" transform="matrix(12,0,0,12,147.8,103.8)" />
<use xlink:href="#f0_2f" transform="matrix(12,0,0,12,156.6,103.8)" />
<use xlink:href="#f0_2j" transform="matrix(12,0,0,12,167.6,103.8)" />
<use xlink:href="#f0_25" transform="matrix(12,0,0,12,181.2,103.8)" />
<use xlink:href="#f0_2g" transform="matrix(12,0,0,12,185.6,103.8)" />
<use xlink:href="#f0_24" transform="matrix(12,0,0,12,191.4,103.8)" />
<use xlink:href="#f0_2a" transform="matrix(12,0,0,12,204.3,103.8)" />
<use xlink:href="#f0_2h" transform="matrix(12,0,0,12,213.1,103.8)" />
<use xlink:href="#f0_1z" transform="matrix(12,0,0,12,222.3,103.8)" />
<use xlink:href="#f0_28" transform="matrix(12,0,0,12,230.7,103.8)" />
<use xlink:href="#f0_21" transform="matrix(12,0,0,12,235.5,103.8)" />
<use xlink:href="#f0_1x" transform="matrix(12,0,0,12,243.9,103.8)" />
<use xlink:href="#f0_2e" transform="matrix(12,0,0,12,251.9,103.8)" />
<use xlink:href="#f0_20" transform="matrix(12,0,0,12,262.2,103.8)" />
<use xlink:href="#f0_25" transform="matrix(12,0,0,12,271.7,103.8)" />
<use xlink:href="#f0_2i" transform="matrix(12,0,0,12,276.5,103.8)" />
<use xlink:href="#f0_25" transform="matrix(12,0,0,12,285.6,103.8)" />
<use xlink:href="#f0_2f" transform="matrix(12,0,0,12,290.4,103.8)" />
<use xlink:href="#f0_25" transform="matrix(12,0,0,12,297.7,103.8)" />
<use xlink:href="#f0_2b" transform="matrix(12,0,0,12,302.1,103.8)" />
<use xlink:href="#f0_2a" transform="matrix(12,0,0,12,312,103.8)" />
<use xlink:href="#f0_i" transform="matrix(12,0,0,12,320.8,103.8)" />
<use xlink:href="#f0_1k" transform="matrix(12,0,0,12,329.6,103.8)" />
<use xlink:href="#f0_24" transform="matrix(12,0,0,12,340.9,103.8)" />
<use xlink:href="#f0_25" transform="matrix(12,0,0,12,350.1,103.8)" />
<use xlink:href="#f0_2f" transform="matrix(12,0,0,12,354.9,103.8)" />
<use xlink:href="#f0_25" transform="matrix(12,0,0,12,366.2,103.8)" />
<use xlink:href="#f0_2f" transform="matrix(12,0,0,12,370.6,103.8)" />
<use xlink:href="#f0_27" transform="matrix(12,0,0,12,381.6,103.8)" />
<use xlink:href="#f0_2a" transform="matrix(12,0,0,12,391.1,103.8)" />
<use xlink:href="#f0_2b" transform="matrix(12,0,0,12,399.9,103.8)" />
<use xlink:href="#f0_2j" transform="matrix(12,0,0,12,409.5,103.8)" />
<use xlink:href="#f0_2a" transform="matrix(12,0,0,12,422.7,103.8)" />
<use xlink:href="#f0_1x" transform="matrix(12,0,0,12,435.5,103.8)" />
<use xlink:href="#f0_2f" transform="matrix(12,0,0,12,443.6,103.8)" />
<use xlink:href="#f0_27" transform="matrix(12,0,0,12,454.6,103.8)" />
<use xlink:href="#f0_1x" transform="matrix(12,0,0,12,463.7,103.8)" />
<use xlink:href="#f0_2e" transform="matrix(12,0,0,12,471.8,103.8)" />
<use xlink:href="#f0_2l" transform="matrix(12,0,0,12,478.4,103.8)" />
<use xlink:href="#f0_2b" transform="matrix(12,0,0,12,486.8,103.8)" />
<use xlink:href="#f0_27" transform="matrix(12,0,0,12,496.3,103.8)" />
<use xlink:href="#f0_25" transform="matrix(12,0,0,12,505.8,103.8)" />
<use xlink:href="#f0_2a" transform="matrix(12,0,0,12,510.6,103.8)" />
<use xlink:href="#f0_21" transform="matrix(12,0,0,12,519.4,103.8)" />
<use xlink:href="#f0_2f" transform="matrix(12,0,0,12,527.8,103.8)" />
<use xlink:href="#f0_25" transform="matrix(12,0,0,12,535.1,103.8)" />
<use xlink:href="#f0_2f" transform="matrix(12,0,0,12,539.9,103.8)" />
<use xlink:href="#f0_i" transform="matrix(12,0,0,12,546.9,103.8)" />
<use xlink:href="#f0_13" transform="matrix(12,0,0,12,556.1,103.8)" />
<use xlink:href="#f0_24" transform="matrix(12,0,0,12,568.5,103.8)" />
<use xlink:href="#f0_2e" transform="matrix(12,0,0,12,577.3,103.8)" />
<use xlink:href="#f0_2b" transform="matrix(12,0,0,12,583.5,103.8)" />
<use xlink:href="#f0_29" transform="matrix(12,0,0,12,593.1,103.8)" />
<use xlink:href="#f0_2b" transform="matrix(12,0,0,12,606.6,103.8)" />
<use xlink:href="#f0_2f" transform="matrix(12,0,0,12,616.1,103.8)" />
<use xlink:href="#f0_2b" transform="matrix(12,0,0,12,623.1,103.8)" />
<use xlink:href="#f0_29" transform="matrix(12,0,0,12,632.6,103.8)" />
<use xlink:href="#f0_21" transform="matrix(12,0,0,12,646.6,103.8)" />
<use xlink:href="#f0_2f" transform="matrix(12,0,0,12,654.6,103.8)" />
<use xlink:href="#f0_23" transform="matrix(12,0,0,12,665.6,103.8)" />
<use xlink:href="#f0_21" transform="matrix(12,0,0,12,674.8,103.8)" />
<use xlink:href="#f0_2g" transform="matrix(12,0,0,12,682.9,103.8)" />
<use xlink:href="#f0_20" transform="matrix(12,0,0,12,692.5,103.8)" />
<use xlink:href="#f0_25" transform="matrix(12,0,0,12,701.7,103.8)" />
<use xlink:href="#f0_2f" transform="matrix(12,0,0,12,706.5,103.8)" />
<use xlink:href="#f0_2g" transform="matrix(12,0,0,12,713.4,103.8)" />
<use xlink:href="#f0_2e" transform="matrix(12,0,0,12,718.9,103.8)" />
<use xlink:href="#f0_25" transform="matrix(12,0,0,12,725.1,103.8)" />
<use xlink:href="#f0_1y" transform="matrix(12,0,0,12,729.9,103.8)" />
<use xlink:href="#f0_2h" transform="matrix(12,0,0,12,738.7,103.8)" />
<use xlink:href="#f0_2g" transform="matrix(12,0,0,12,747.9,103.8)" />
<use xlink:href="#f0_21" transform="matrix(12,0,0,12,753.3,103.8)" />
<use xlink:href="#f0_20" transform="matrix(12,0,0,12,761.4,103.8)" />
<use xlink:href="#f0_21" transform="matrix(12,0,0,12,774.7,103.8)" />
<use xlink:href="#f0_2d" transform="matrix(12,0,0,12,782.8,103.8)" />
<use xlink:href="#f0_2h" transform="matrix(12,0,0,12,791.9,103.8)" />
<use xlink:href="#f0_1x" transform="matrix(12,0,0,12,801.1,103.8)" />
<use xlink:href="#f0_28" transform="matrix(12,0,0,12,809.5,103.8)" />
<use xlink:href="#f0_28" transform="matrix(12,0,0,12,814.3,103.8)" />
<use xlink:href="#f0_2l" transform="matrix(12,0,0,12,819.4,103.8)" />
<use xlink:href="#f0_20" transform="matrix(12,0,0,12,831.9,103.8)" />
<use xlink:href="#f0_2h" transform="matrix(12,0,0,12,841,103.8)" />
<use xlink:href="#f0_2e" transform="matrix(12,0,0,12,850.2,103.8)" />
<use xlink:href="#f0_25" transform="matrix(12,0,0,12,856.8,103.8)" />
<use xlink:href="#f0_2a" transform="matrix(12,0,0,12,861.6,103.8)" />
<use xlink:href="#f0_23" transform="matrix(12,0,0,12,870.7,103.8)" />
<use xlink:href="#f0_29" transform="matrix(12,0,0,12,55,135.3)" />
<use xlink:href="#f0_25" transform="matrix(12,0,0,12,69.3,135.3)" />
<use xlink:href="#f0_2g" transform="matrix(12,0,0,12,73.7,135.3)" />
<use xlink:href="#f0_2b" transform="matrix(12,0,0,12,79.2,135.3)" />
<use xlink:href="#f0_2f" transform="matrix(12,0,0,12,88.7,135.3)" />
<use xlink:href="#f0_25" transform="matrix(12,0,0,12,96,135.3)" />
<use xlink:href="#f0_2f" transform="matrix(12,0,0,12,100.4,135.3)" />
<use xlink:href="#f0_i" transform="matrix(12,0,0,12,107.4,135.3)" />
<use xlink:href="#f0_19" transform="matrix(12,0,0,12,116.9,135.3)" />
<use xlink:href="#f0_2g" transform="matrix(12,0,0,12,123.1,135.3)" />
<use xlink:href="#f0_2g" transform="matrix(12,0,0,12,132.8,135.3)" />
<use xlink:href="#f0_1x" transform="matrix(12,0,0,12,138.3,135.3)" />
<use xlink:href="#f0_27" transform="matrix(12,0,0,12,146.3,135.3)" />
<use xlink:href="#f0_21" transform="matrix(12,0,0,12,155.5,135.3)" />
<use xlink:href="#f0_2f" transform="matrix(12,0,0,12,163.6,135.3)" />
<use xlink:href="#f0_2c" transform="matrix(12,0,0,12,175.3,135.3)" />
<use xlink:href="#f0_28" transform="matrix(12,0,0,12,184.8,135.3)" />
<use xlink:href="#f0_1x" transform="matrix(12,0,0,12,189.2,135.3)" />
<use xlink:href="#f0_1z" transform="matrix(12,0,0,12,197.2,135.3)" />
<use xlink:href="#f0_21" transform="matrix(12,0,0,12,205.3,135.3)" />
<use xlink:href="#f0_2b" transform="matrix(12,0,0,12,218.2,135.3)" />
<use xlink:href="#f0_2a" transform="matrix(12,0,0,12,227.8,135.3)" />
<use xlink:href="#f0_28" transform="matrix(12,0,0,12,236.9,135.3)" />
<use xlink:href="#f0_2l" transform="matrix(12,0,0,12,242,135.3)" />
<use xlink:href="#f0_25" transform="matrix(12,0,0,12,255.6,135.3)" />
<use xlink:href="#f0_2a" transform="matrix(12,0,0,12,260.4,135.3)" />
<use xlink:href="#f0_2f" transform="matrix(12,0,0,12,274.3,135.3)" />
<use xlink:href="#f0_2b" transform="matrix(12,0,0,12,281.3,135.3)" />
<use xlink:href="#f0_29" transform="matrix(12,0,0,12,291.1,135.3)" />
<use xlink:href="#f0_1x" transform="matrix(12,0,0,12,304.7,135.3)" />
<use xlink:href="#f0_2g" transform="matrix(12,0,0,12,312.8,135.3)" />
<use xlink:href="#f0_25" transform="matrix(12,0,0,12,318.6,135.3)" />
<use xlink:href="#f0_1z" transform="matrix(12,0,0,12,323,135.3)" />
<use xlink:href="#f0_1z" transform="matrix(12,0,0,12,335.8,135.3)" />
<use xlink:href="#f0_21" transform="matrix(12,0,0,12,343.9,135.3)" />
<use xlink:href="#f0_28" transform="matrix(12,0,0,12,352.3,135.3)" />
<use xlink:href="#f0_28" transform="matrix(12,0,0,12,357.4,135.3)" />
<use xlink:href="#f0_2f" transform="matrix(12,0,0,12,362.2,135.3)" />
<use xlink:href="#f0_i" transform="matrix(12,0,0,12,369.2,135.3)" />
<use xlink:href="#f0_19" transform="matrix(12,0,0,12,59.8,179.3)" />
<use xlink:href="#f0_2g" transform="matrix(12,0,0,12,65.7,179.3)" />
<use xlink:href="#f0_25" transform="matrix(12,0,0,12,75.9,179.3)" />
<use xlink:href="#f0_2f" transform="matrix(12,0,0,12,80.3,179.3)" />
<use xlink:href="#f0_20" transform="matrix(12,0,0,12,92,179.3)" />
<use xlink:href="#f0_25" transform="matrix(12,0,0,12,101.5,179.3)" />
<use xlink:href="#f0_2i" transform="matrix(12,0,0,12,106.3,179.3)" />
<use xlink:href="#f0_25" transform="matrix(12,0,0,12,115.5,179.3)" />
<use xlink:href="#f0_20" transform="matrix(12,0,0,12,120.2,179.3)" />
<use xlink:href="#f0_21" transform="matrix(12,0,0,12,129.4,179.3)" />
<use xlink:href="#f0_20" transform="matrix(12,0,0,12,137.5,179.3)" />
<use xlink:href="#f0_25" transform="matrix(12,0,0,12,151.7,179.3)" />
<use xlink:href="#f0_2a" transform="matrix(12,0,0,12,156.5,179.3)" />
<use xlink:href="#f0_2g" transform="matrix(12,0,0,12,165.3,179.3)" />
<use xlink:href="#f0_2b" transform="matrix(12,0,0,12,170.8,179.3)" />
<use xlink:href="#f0_22" transform="matrix(12,0,0,12,185.1,179.3)" />
<use xlink:href="#f0_2b" transform="matrix(12,0,0,12,190.6,179.3)" />
<use xlink:href="#f0_28" transform="matrix(12,0,0,12,200.4,179.3)" />
<use xlink:href="#f0_28" transform="matrix(12,0,0,12,205.2,179.3)" />
<use xlink:href="#f0_2b" transform="matrix(12,0,0,12,209.6,179.3)" />
<use xlink:href="#f0_2j" transform="matrix(12,0,0,12,219.1,179.3)" />
<use xlink:href="#f0_25" transform="matrix(12,0,0,12,232.7,179.3)" />
<use xlink:href="#f0_2a" transform="matrix(12,0,0,12,237.4,179.3)" />
<use xlink:href="#f0_23" transform="matrix(12,0,0,12,246.2,179.3)" />
<use xlink:href="#f0_2c" transform="matrix(12,0,0,12,260.2,179.3)" />
<use xlink:href="#f0_24" transform="matrix(12,0,0,12,269.7,179.3)" />
<use xlink:href="#f0_1x" transform="matrix(12,0,0,12,278.5,179.3)" />
<use xlink:href="#f0_2f" transform="matrix(12,0,0,12,286.9,179.3)" />
<use xlink:href="#f0_21" transform="matrix(12,0,0,12,293.8,179.3)" />
<use xlink:href="#f0_2f" transform="matrix(12,0,0,12,301.9,179.3)" />
<use xlink:href="#f0_h" transform="matrix(12,0,0,12,309.2,179.3)" />
<use xlink:href="#f1_1g" transform="matrix(12,0,0,12,55,223.4)" />
<use xlink:href="#f1_2e" transform="matrix(12,0,0,12,66.4,223.4)" />
<use xlink:href="#f1_2b" transform="matrix(12,0,0,12,74.1,223.4)" />
<use xlink:href="#f1_2c" transform="matrix(12,0,0,12,83.3,223.4)" />
<use xlink:href="#f1_24" transform="matrix(12,0,0,12,93.5,223.4)" />
<use xlink:href="#f1_1x" transform="matrix(12,0,0,12,103.7,223.4)" />
<use xlink:href="#f1_2f" transform="matrix(12,0,0,12,112.9,223.4)" />
<use xlink:href="#f1_21" transform="matrix(12,0,0,12,119.9,223.4)" />
</g>
<path fill-rule="evenodd" d="M55,227h73.4v-1.8H55V227Z" class="g0_168" />
<g fill="#000000" >
<use xlink:href="#f0_14" transform="matrix(12,0,0,12,55,267)" />
<use xlink:href="#f0_2h" transform="matrix(12,0,0,12,68.3,267)" />
<use xlink:href="#f0_2e" transform="matrix(12,0,0,12,77.4,267)" />
<use xlink:href="#f0_25" transform="matrix(12,0,0,12,84,267)" />
<use xlink:href="#f0_2a" transform="matrix(12,0,0,12,88.8,267)" />
<use xlink:href="#f0_23" transform="matrix(12,0,0,12,97.6,267)" />
<use xlink:href="#f0_2g" transform="matrix(12,0,0,12,110.4,267)" />
<use xlink:href="#f0_24" transform="matrix(12,0,0,12,115.9,267)" />
<use xlink:href="#f0_25" transform="matrix(12,0,0,12,125,267)" />
<use xlink:href="#f0_2f" transform="matrix(12,0,0,12,129.4,267)" />
<use xlink:href="#f0_2c" transform="matrix(12,0,0,12,140.1,267)" />
<use xlink:href="#f0_24" transform="matrix(12,0,0,12,149.6,267)" />
<use xlink:href="#f0_1x" transform="matrix(12,0,0,12,158.4,267)" />
<use xlink:href="#f0_2f" transform="matrix(12,0,0,12,166.8,267)" />
<use xlink:href="#f0_21" transform="matrix(12,0,0,12,173.8,267)" />
<use xlink:href="#f0_1z" transform="matrix(12,0,0,12,185.5,267)" />
<use xlink:href="#f0_24" transform="matrix(12,0,0,12,193.9,267)" />
<use xlink:href="#f0_2e" transform="matrix(12,0,0,12,202.7,267)" />
<use xlink:href="#f0_2b" transform="matrix(12,0,0,12,208.9,267)" />
<use xlink:href="#f0_29" transform="matrix(12,0,0,12,218.4,267)" />
<use xlink:href="#f0_1x" transform="matrix(12,0,0,12,232,267)" />
<use xlink:href="#f0_2g" transform="matrix(12,0,0,12,240.1,267)" />
<use xlink:href="#f0_25" transform="matrix(12,0,0,12,245.9,267)" />
<use xlink:href="#f0_2a" transform="matrix(12,0,0,12,250.7,267)" />
<use xlink:href="#f0_1z" transform="matrix(12,0,0,12,263.2,267)" />
<use xlink:href="#f0_2b" transform="matrix(12,0,0,12,271.2,267)" />
<use xlink:href="#f0_2a" transform="matrix(12,0,0,12,280.7,267)" />
<use xlink:href="#f0_20" transform="matrix(12,0,0,12,289.5,267)" />
<use xlink:href="#f0_21" transform="matrix(12,0,0,12,298.7,267)" />
<use xlink:href="#f0_2a" transform="matrix(12,0,0,12,307.1,267)" />
<use xlink:href="#f0_2f" transform="matrix(12,0,0,12,316.3,267)" />
<use xlink:href="#f0_21" transform="matrix(12,0,0,12,323.3,267)" />
<use xlink:href="#f0_2f" transform="matrix(12,0,0,12,331.3,267)" />
<use xlink:href="#f0_2g" transform="matrix(12,0,0,12,342,267)" />
<use xlink:href="#f0_2b" transform="matrix(12,0,0,12,347.4,267)" />
<use xlink:href="#f0_22" transform="matrix(12,0,0,12,360.3,267)" />
<use xlink:href="#f0_2b" transform="matrix(12,0,0,12,365.8,267)" />
<use xlink:href="#f0_2e" transform="matrix(12,0,0,12,375.3,267)" />
<use xlink:href="#f0_29" transform="matrix(12,0,0,12,381.5,267)" />
<use xlink:href="#f0_1z" transform="matrix(12,0,0,12,398.7,267)" />
<use xlink:href="#f0_24" transform="matrix(12,0,0,12,407.1,267)" />
<use xlink:href="#f0_2e" transform="matrix(12,0,0,12,415.9,267)" />
<use xlink:href="#f0_2b" transform="matrix(12,0,0,12,422.5,267)" />
<use xlink:href="#f0_29" transform="matrix(12,0,0,12,432,267)" />
<use xlink:href="#f0_2b" transform="matrix(12,0,0,12,445.6,267)" />
<use xlink:href="#f0_2f" transform="matrix(12,0,0,12,455.1,267)" />
<use xlink:href="#f0_2b" transform="matrix(12,0,0,12,462.1,267)" />
<use xlink:href="#f0_29" transform="matrix(12,0,0,12,471.6,267)" />
<use xlink:href="#f0_21" transform="matrix(12,0,0,12,485.2,267)" />
<use xlink:href="#f0_2f" transform="matrix(12,0,0,12,493.6,267)" />
<use xlink:href="#f0_i" transform="matrix(12,0,0,12,500.6,267)" />
<use xlink:href="#f0_1k" transform="matrix(12,0,0,12,509,267)" />
<use xlink:href="#f0_24" transform="matrix(12,0,0,12,520.9,267)" />
<use xlink:href="#f0_21" transform="matrix(12,0,0,12,529.6,267)" />
<use xlink:href="#f0_2e" transform="matrix(12,0,0,12,537.7,267)" />
<use xlink:href="#f0_21" transform="matrix(12,0,0,12,543.9,267)" />
<use xlink:href="#f0_1x" transform="matrix(12,0,0,12,555.7,267)" />
<use xlink:href="#f0_2e" transform="matrix(12,0,0,12,563.7,267)" />
<use xlink:href="#f0_21" transform="matrix(12,0,0,12,569.9,267)" />
<use xlink:href="#f0_2g" transform="matrix(12,0,0,12,581.7,267)" />
<use xlink:href="#f0_2j" transform="matrix(12,0,0,12,587.2,267)" />
<use xlink:href="#f0_2b" transform="matrix(12,0,0,12,600,267)" />
<use xlink:href="#f0_25" transform="matrix(12,0,0,12,612.8,267)" />
<use xlink:href="#f0_20" transform="matrix(12,0,0,12,617.2,267)" />
<use xlink:href="#f0_21" transform="matrix(12,0,0,12,626.4,267)" />
<use xlink:href="#f0_2a" transform="matrix(12,0,0,12,634.8,267)" />
<use xlink:href="#f0_2g" transform="matrix(12,0,0,12,643.6,267)" />
<use xlink:href="#f0_25" transform="matrix(12,0,0,12,649.5,267)" />
<use xlink:href="#f0_1z" transform="matrix(12,0,0,12,653.9,267)" />
<use xlink:href="#f0_1x" transform="matrix(12,0,0,12,661.9,267)" />
<use xlink:href="#f0_28" transform="matrix(12,0,0,12,670.3,267)" />
<use xlink:href="#f0_1z" transform="matrix(12,0,0,12,678.8,267)" />
<use xlink:href="#f0_2b" transform="matrix(12,0,0,12,686.8,267)" />
<use xlink:href="#f0_2c" transform="matrix(12,0,0,12,696.4,267)" />
<use xlink:href="#f0_25" transform="matrix(12,0,0,12,705.9,267)" />
<use xlink:href="#f0_21" transform="matrix(12,0,0,12,710.3,267)" />
<use xlink:href="#f0_2f" transform="matrix(12,0,0,12,718.7,267)" />
<use xlink:href="#f0_2b" transform="matrix(12,0,0,12,729.3,267)" />
<use xlink:href="#f0_22" transform="matrix(12,0,0,12,738.8,267)" />
<use xlink:href="#f0_21" transform="matrix(12,0,0,12,748,267)" />
<use xlink:href="#f0_1x" transform="matrix(12,0,0,12,756.1,267)" />
<use xlink:href="#f0_1z" transform="matrix(12,0,0,12,764.1,267)" />
<use xlink:href="#f0_24" transform="matrix(12,0,0,12,772.5,267)" />
<use xlink:href="#f0_1z" transform="matrix(12,0,0,12,785,267)" />
<use xlink:href="#f0_24" transform="matrix(12,0,0,12,793.4,267)" />
<use xlink:href="#f0_2e" transform="matrix(12,0,0,12,802.2,267)" />
<use xlink:href="#f0_2b" transform="matrix(12,0,0,12,808.4,267)" />
<use xlink:href="#f0_29" transform="matrix(12,0,0,12,818.3,267)" />
<use xlink:href="#f0_2b" transform="matrix(12,0,0,12,831.9,267)" />
<use xlink:href="#f0_2f" transform="matrix(12,0,0,12,841.4,267)" />
<use xlink:href="#f0_2b" transform="matrix(12,0,0,12,848.4,267)" />
<use xlink:href="#f0_29" transform="matrix(12,0,0,12,857.9,267)" />
<use xlink:href="#f0_21" transform="matrix(12,0,0,12,871.5,267)" />
<use xlink:href="#f0_2j" transform="matrix(12,0,0,12,55,298.5)" />
<use xlink:href="#f0_24" transform="matrix(12,0,0,12,68.3,298.5)" />
<use xlink:href="#f0_25" transform="matrix(12,0,0,12,77.4,298.5)" />
<use xlink:href="#f0_1z" transform="matrix(12,0,0,12,82.2,298.5)" />
<use xlink:href="#f0_24" transform="matrix(12,0,0,12,90.6,298.5)" />
<use xlink:href="#f0_1x" transform="matrix(12,0,0,12,104.9,298.5)" />
<use xlink:href="#f0_2e" transform="matrix(12,0,0,12,112.9,298.5)" />
<use xlink:href="#f0_21" transform="matrix(12,0,0,12,119.1,298.5)" />
<use xlink:href="#f0_1x" transform="matrix(12,0,0,12,132.7,298.5)" />
<use xlink:href="#f0_2g" transform="matrix(12,0,0,12,140.8,298.5)" />
<use xlink:href="#f0_2g" transform="matrix(12,0,0,12,145.9,298.5)" />
<use xlink:href="#f0_1x" transform="matrix(12,0,0,12,151.4,298.5)" />
<use xlink:href="#f0_1z" transform="matrix(12,0,0,12,159.4,298.5)" />
<use xlink:href="#f0_24" transform="matrix(12,0,0,12,167.5,298.5)" />
<use xlink:href="#f0_21" transform="matrix(12,0,0,12,176.3,298.5)" />
<use xlink:href="#f0_20" transform="matrix(12,0,0,12,184.4,298.5)" />
<use xlink:href="#f0_2g" transform="matrix(12,0,0,12,199,298.5)" />
<use xlink:href="#f0_2b" transform="matrix(12,0,0,12,204.1,298.5)" />
<use xlink:href="#f0_1z" transform="matrix(12,0,0,12,218.8,298.5)" />
<use xlink:href="#f0_21" transform="matrix(12,0,0,12,226.9,298.5)" />
<use xlink:href="#f0_2a" transform="matrix(12,0,0,12,234.9,298.5)" />
<use xlink:href="#f0_2g" transform="matrix(12,0,0,12,243.7,298.5)" />
<use xlink:href="#f0_2e" transform="matrix(12,0,0,12,249.2,298.5)" />
<use xlink:href="#f0_2b" transform="matrix(12,0,0,12,255.1,298.5)" />
<use xlink:href="#f0_29" transform="matrix(12,0,0,12,264.6,298.5)" />
<use xlink:href="#f0_21" transform="matrix(12,0,0,12,278.2,298.5)" />
<use xlink:href="#f0_2e" transform="matrix(12,0,0,12,286.2,298.5)" />
<use xlink:href="#f0_21" transform="matrix(12,0,0,12,292.5,298.5)" />
<use xlink:href="#f0_i" transform="matrix(12,0,0,12,300.5,298.5)" />
<use xlink:href="#f0_14" transform="matrix(12,0,0,12,310.7,298.5)" />
<use xlink:href="#f0_2h" transform="matrix(12,0,0,12,324,298.5)" />
<use xlink:href="#f0_2e" transform="matrix(12,0,0,12,333.2,298.5)" />
<use xlink:href="#f0_25" transform="matrix(12,0,0,12,339.7,298.5)" />
<use xlink:href="#f0_2a" transform="matrix(12,0,0,12,344.5,298.5)" />
<use xlink:href="#f0_23" transform="matrix(12,0,0,12,353.3,298.5)" />
<use xlink:href="#f0_2g" transform="matrix(12,0,0,12,367.9,298.5)" />
<use xlink:href="#f0_24" transform="matrix(12,0,0,12,373.4,298.5)" />
<use xlink:href="#f0_21" transform="matrix(12,0,0,12,382.2,298.5)" />
<use xlink:href="#f0_21" transform="matrix(12,0,0,12,395.7,298.5)" />
<use xlink:href="#f0_2a" transform="matrix(12,0,0,12,403.8,298.5)" />
<use xlink:href="#f0_20" transform="matrix(12,0,0,12,412.6,298.5)" />
<use xlink:href="#f0_2b" transform="matrix(12,0,0,12,427.3,298.5)" />
<use xlink:href="#f0_22" transform="matrix(12,0,0,12,436.8,298.5)" />
<use xlink:href="#f0_2g" transform="matrix(12,0,0,12,447.8,298.5)" />
<use xlink:href="#f0_24" transform="matrix(12,0,0,12,453.2,298.5)" />
<use xlink:href="#f0_21" transform="matrix(12,0,0,12,462,298.5)" />
<use xlink:href="#f0_2c" transform="matrix(12,0,0,12,475.6,298.5)" />
<use xlink:href="#f0_2e" transform="matrix(12,0,0,12,484.8,298.5)" />
<use xlink:href="#f0_2b" transform="matrix(12,0,0,12,490.6,298.5)" />
<use xlink:href="#f0_2c" transform="matrix(12,0,0,12,500.1,298.5)" />
<use xlink:href="#f0_24" transform="matrix(12,0,0,12,509.3,298.5)" />
<use xlink:href="#f0_1x" transform="matrix(12,0,0,12,518.1,298.5)" />
<use xlink:href="#f0_2f" transform="matrix(12,0,0,12,526.2,298.5)" />
<use xlink:href="#f0_21" transform="matrix(12,0,0,12,533.1,298.5)" />
<use xlink:href="#f0_g" transform="matrix(12,0,0,12,541.2,298.5)" />
<use xlink:href="#f0_2a" transform="matrix(12,0,0,12,551.4,298.5)" />
<use xlink:href="#f0_2h" transform="matrix(12,0,0,12,560.2,298.5)" />
<use xlink:href="#f0_1z" transform="matrix(12,0,0,12,569.4,298.5)" />
<use xlink:href="#f0_28" transform="matrix(12,0,0,12,577.8,298.5)" />
<use xlink:href="#f0_21" transform="matrix(12,0,0,12,582.6,298.5)" />
<use xlink:href="#f0_2b" transform="matrix(12,0,0,12,590.6,298.5)" />
<use xlink:href="#f0_28" transform="matrix(12,0,0,12,600.5,298.5)" />
<use xlink:href="#f0_2h" transform="matrix(12,0,0,12,604.9,298.5)" />
<use xlink:href="#f0_2f" transform="matrix(12,0,0,12,614.1,298.5)" />
<use xlink:href="#f0_20" transform="matrix(12,0,0,12,626.5,298.5)" />
<use xlink:href="#f0_25" transform="matrix(12,0,0,12,636.1,298.5)" />
<use xlink:href="#f0_2f" transform="matrix(12,0,0,12,640.8,298.5)" />
<use xlink:href="#f0_2f" transform="matrix(12,0,0,12,648.1,298.5)" />
<use xlink:href="#f0_2b" transform="matrix(12,0,0,12,655.1,298.5)" />
<use xlink:href="#f0_28" transform="matrix(12,0,0,12,665,298.5)" />
<use xlink:href="#f0_2i" transform="matrix(12,0,0,12,669.8,298.5)" />
<use xlink:href="#f0_21" transform="matrix(12,0,0,12,678.6,298.5)" />
<use xlink:href="#f0_2f" transform="matrix(12,0,0,12,686.6,298.5)" />
<use xlink:href="#f0_i" transform="matrix(12,0,0,12,693.6,298.5)" />
<use xlink:href="#f0_1e" transform="matrix(12,0,0,12,703.8,298.5)" />
<use xlink:href="#f0_2h" transform="matrix(12,0,0,12,717.1,298.5)" />
<use xlink:href="#f0_1z" transform="matrix(12,0,0,12,726.2,298.5)" />
<use xlink:href="#f0_28" transform="matrix(12,0,0,12,734.6,298.5)" />
<use xlink:href="#f0_21" transform="matrix(12,0,0,12,739,298.5)" />
<use xlink:href="#f0_1x" transform="matrix(12,0,0,12,747.4,298.5)" />
<use xlink:href="#f0_2e" transform="matrix(12,0,0,12,755.5,298.5)" />
<use xlink:href="#f0_29" transform="matrix(12,0,0,12,767.5,298.5)" />
<use xlink:href="#f0_21" transform="matrix(12,0,0,12,781.1,298.5)" />
<use xlink:href="#f0_29" transform="matrix(12,0,0,12,789.5,298.5)" />
<use xlink:href="#f0_1y" transform="matrix(12,0,0,12,803.5,298.5)" />
<use xlink:href="#f0_2e" transform="matrix(12,0,0,12,812.6,298.5)" />
<use xlink:href="#f0_1x" transform="matrix(12,0,0,12,818.8,298.5)" />
<use xlink:href="#f0_2a" transform="matrix(12,0,0,12,827.3,298.5)" />
<use xlink:href="#f0_21" transform="matrix(12,0,0,12,836.1,298.5)" />
<use xlink:href="#f0_1x" transform="matrix(12,0,0,12,849.6,298.5)" />
<use xlink:href="#f0_28" transform="matrix(12,0,0,12,858,298.5)" />
<use xlink:href="#f0_2f" transform="matrix(12,0,0,12,862.8,298.5)" />
<use xlink:href="#f0_2b" transform="matrix(12,0,0,12,869.8,298.5)" />
<use xlink:href="#f0_20" transform="matrix(12,0,0,12,55,330.5)" />
<use xlink:href="#f0_25" transform="matrix(12,0,0,12,64.6,330.5)" />
<use xlink:href="#f0_2f" transform="matrix(12,0,0,12,69,330.5)" />
<use xlink:href="#f0_25" transform="matrix(12,0,0,12,76.3,330.5)" />
<use xlink:href="#f0_2a" transform="matrix(12,0,0,12,81,330.5)" />
<use xlink:href="#f0_2g" transform="matrix(12,0,0,12,89.8,330.5)" />
<use xlink:href="#f0_21" transform="matrix(12,0,0,12,95.3,330.5)" />
<use xlink:href="#f0_23" transform="matrix(12,0,0,12,103.4,330.5)" />
<use xlink:href="#f0_2e" transform="matrix(12,0,0,12,112.5,330.5)" />
<use xlink:href="#f0_1x" transform="matrix(12,0,0,12,118.8,330.5)" />
<use xlink:href="#f0_2g" transform="matrix(12,0,0,12,126.8,330.5)" />
<use xlink:href="#f0_21" transform="matrix(12,0,0,12,132.3,330.5)" />
<use xlink:href="#f0_2f" transform="matrix(12,0,0,12,140.4,330.5)" />
<use xlink:href="#f0_1x" transform="matrix(12,0,0,12,152.1,330.5)" />
<use xlink:href="#f0_2g" transform="matrix(12,0,0,12,160.2,330.5)" />
<use xlink:href="#f0_2g" transform="matrix(12,0,0,12,170,330.5)" />
<use xlink:href="#f0_24" transform="matrix(12,0,0,12,175.5,330.5)" />
<use xlink:href="#f0_21" transform="matrix(12,0,0,12,184.3,330.5)" />
<use xlink:href="#f0_21" transform="matrix(12,0,0,12,197.1,330.5)" />
<use xlink:href="#f0_2a" transform="matrix(12,0,0,12,205.2,330.5)" />
<use xlink:href="#f0_20" transform="matrix(12,0,0,12,214,330.5)" />
<use xlink:href="#f0_i" transform="matrix(12,0,0,12,223.2,330.5)" />
<use xlink:href="#f0_1k" transform="matrix(12,0,0,12,232.7,330.5)" />
<use xlink:href="#f0_24" transform="matrix(12,0,0,12,244,330.5)" />
<use xlink:href="#f0_21" transform="matrix(12,0,0,12,252.8,330.5)" />
<use xlink:href="#f0_1z" transform="matrix(12,0,0,12,265.6,330.5)" />
<use xlink:href="#f0_21" transform="matrix(12,0,0,12,273.7,330.5)" />
<use xlink:href="#f0_2a" transform="matrix(12,0,0,12,281.8,330.5)" />
<use xlink:href="#f0_2g" transform="matrix(12,0,0,12,290.6,330.5)" />
<use xlink:href="#f0_2e" transform="matrix(12,0,0,12,296,330.5)" />
<use xlink:href="#f0_2b" transform="matrix(12,0,0,12,302.3,330.5)" />
<use xlink:href="#f0_2f" transform="matrix(12,0,0,12,311.8,330.5)" />
<use xlink:href="#f0_2b" transform="matrix(12,0,0,12,318.4,330.5)" />
<use xlink:href="#f0_29" transform="matrix(12,0,0,12,327.9,330.5)" />
<use xlink:href="#f0_21" transform="matrix(12,0,0,12,341.5,330.5)" />
<use xlink:href="#f0_29" transform="matrix(12,0,0,12,354.6,330.5)" />
<use xlink:href="#f0_2b" transform="matrix(12,0,0,12,368.2,330.5)" />
<use xlink:href="#f0_2i" transform="matrix(12,0,0,12,378.1,330.5)" />
<use xlink:href="#f0_21" transform="matrix(12,0,0,12,386.9,330.5)" />
<use xlink:href="#f0_2f" transform="matrix(12,0,0,12,395,330.5)" />
<use xlink:href="#f0_2g" transform="matrix(12,0,0,12,406.7,330.5)" />
<use xlink:href="#f0_2b" transform="matrix(12,0,0,12,412.2,330.5)" />
<use xlink:href="#f0_2g" transform="matrix(12,0,0,12,425.7,330.5)" />
<use xlink:href="#f0_24" transform="matrix(12,0,0,12,431.2,330.5)" />
<use xlink:href="#f0_21" transform="matrix(12,0,0,12,440,330.5)" />
<use xlink:href="#f0_2b" transform="matrix(12,0,0,12,452.8,330.5)" />
<use xlink:href="#f0_2c" transform="matrix(12,0,0,12,462.3,330.5)" />
<use xlink:href="#f0_2c" transform="matrix(12,0,0,12,471.5,330.5)" />
<use xlink:href="#f0_2b" transform="matrix(12,0,0,12,480.3,330.5)" />
<use xlink:href="#f0_2f" transform="matrix(12,0,0,12,489.8,330.5)" />
<use xlink:href="#f0_25" transform="matrix(12,0,0,12,496.8,330.5)" />
<use xlink:href="#f0_2g" transform="matrix(12,0,0,12,501.2,330.5)" />
<use xlink:href="#f0_21" transform="matrix(12,0,0,12,506.7,330.5)" />
<use xlink:href="#f0_2c" transform="matrix(12,0,0,12,519.5,330.5)" />
<use xlink:href="#f0_2b" transform="matrix(12,0,0,12,528.3,330.5)" />
<use xlink:href="#f0_28" transform="matrix(12,0,0,12,537.8,330.5)" />
<use xlink:href="#f0_21" transform="matrix(12,0,0,12,542.6,330.5)" />
<use xlink:href="#f0_2f" transform="matrix(12,0,0,12,550.6,330.5)" />
<use xlink:href="#f0_i" transform="matrix(12,0,0,12,557.6,330.5)" />
<use xlink:href="#f0_1j" transform="matrix(12,0,0,12,567.1,330.5)" />
<use xlink:href="#f0_2c" transform="matrix(12,0,0,12,577.3,330.5)" />
<use xlink:href="#f0_25" transform="matrix(12,0,0,12,586.9,330.5)" />
<use xlink:href="#f0_2a" transform="matrix(12,0,0,12,591.6,330.5)" />
<use xlink:href="#f0_20" transform="matrix(12,0,0,12,600.4,330.5)" />
<use xlink:href="#f0_28" transform="matrix(12,0,0,12,609.9,330.5)" />
<use xlink:href="#f0_21" transform="matrix(12,0,0,12,614.7,330.5)" />
<use xlink:href="#f0_22" transform="matrix(12,0,0,12,627.9,330.5)" />
<use xlink:href="#f0_25" transform="matrix(12,0,0,12,633.7,330.5)" />
<use xlink:href="#f0_1y" transform="matrix(12,0,0,12,638.5,330.5)" />
<use xlink:href="#f0_21" transform="matrix(12,0,0,12,647.7,330.5)" />
<use xlink:href="#f0_2e" transform="matrix(12,0,0,12,655.7,330.5)" />
<use xlink:href="#f0_2f" transform="matrix(12,0,0,12,662,330.5)" />
<use xlink:href="#f0_2f" transform="matrix(12,0,0,12,673.7,330.5)" />
<use xlink:href="#f0_2g" transform="matrix(12,0,0,12,680.6,330.5)" />
<use xlink:href="#f0_1x" transform="matrix(12,0,0,12,686.1,330.5)" />
<use xlink:href="#f0_2e" transform="matrix(12,0,0,12,694.2,330.5)" />
<use xlink:href="#f0_2g" transform="matrix(12,0,0,12,700.4,330.5)" />
<use xlink:href="#f0_2f" transform="matrix(12,0,0,12,705.9,330.5)" />
<use xlink:href="#f0_2g" transform="matrix(12,0,0,12,717.3,330.5)" />
<use xlink:href="#f0_2b" transform="matrix(12,0,0,12,722.4,330.5)" />
<use xlink:href="#f0_1x" transform="matrix(12,0,0,12,736.3,330.5)" />
<use xlink:href="#f0_2c" transform="matrix(12,0,0,12,744.4,330.5)" />
<use xlink:href="#f0_2c" transform="matrix(12,0,0,12,753.5,330.5)" />
<use xlink:href="#f0_21" transform="matrix(12,0,0,12,763.7,330.5)" />
<use xlink:href="#f0_1x" transform="matrix(12,0,0,12,771.8,330.5)" />
<use xlink:href="#f0_2e" transform="matrix(12,0,0,12,779.8,330.5)" />
<use xlink:href="#f0_i" transform="matrix(12,0,0,12,786,330.5)" />
<use xlink:href="#f1_16" transform="matrix(12,0,0,12,365,678.9)" />
<use xlink:href="#f1_25" transform="matrix(12,0,0,12,376,678.9)" />
<use xlink:href="#f1_23" transform="matrix(12,0,0,12,381.1,678.9)" />
<use xlink:href="#f1_i" transform="matrix(12,0,0,12,390.2,678.9)" />
<use xlink:href="#f1_m" transform="matrix(12,0,0,12,399.8,678.9)" />
<use xlink:href="#f1_i" transform="matrix(12,0,0,12,408.9,678.9)" />
<use xlink:href="#f1_1g" transform="matrix(12,0,0,12,418.1,678.9)" />
<use xlink:href="#f1_2e" transform="matrix(12,0,0,12,429.1,678.9)" />
<use xlink:href="#f1_2b" transform="matrix(12,0,0,12,436.8,678.9)" />
<use xlink:href="#f1_2c" transform="matrix(12,0,0,12,446,678.9)" />
<use xlink:href="#f1_24" transform="matrix(12,0,0,12,456.2,678.9)" />
<use xlink:href="#f1_1x" transform="matrix(12,0,0,12,466.5,678.9)" />
<use xlink:href="#f1_2f" transform="matrix(12,0,0,12,475.6,678.9)" />
<use xlink:href="#f1_21" transform="matrix(12,0,0,12,482.6,678.9)" />
<use xlink:href="#f1_2b" transform="matrix(12,0,0,12,495.4,678.9)" />
<use xlink:href="#f1_22" transform="matrix(12,0,0,12,504.9,678.9)" />
<use xlink:href="#f1_29" transform="matrix(12,0,0,12,515.5,678.9)" />
<use xlink:href="#f1_25" transform="matrix(12,0,0,12,530.6,678.9)" />
<use xlink:href="#f1_2g" transform="matrix(12,0,0,12,535.7,678.9)" />
<use xlink:href="#f1_2b" transform="matrix(12,0,0,12,541.9,678.9)" />
<use xlink:href="#f1_2f" transform="matrix(12,0,0,12,551.1,678.9)" />
<use xlink:href="#f1_25" transform="matrix(12,0,0,12,558.1,678.9)" />
<use xlink:href="#f1_2f" transform="matrix(12,0,0,12,563.2,678.9)" />
<use xlink:href="#f1_1d" transform="matrix(12,0,0,12,55,766.5)" />
<use xlink:href="#f1_21" transform="matrix(12,0,0,12,72.6,766.5)" />
<use xlink:href="#f1_2g" transform="matrix(12,0,0,12,80.7,766.5)" />
<use xlink:href="#f1_1x" transform="matrix(12,0,0,12,86.9,766.5)" />
<use xlink:href="#f1_2c" transform="matrix(12,0,0,12,96.1,766.5)" />
<use xlink:href="#f1_24" transform="matrix(12,0,0,12,106.3,766.5)" />
<use xlink:href="#f1_1x" transform="matrix(12,0,0,12,116.6,766.5)" />
<use xlink:href="#f1_2f" transform="matrix(12,0,0,12,125.7,766.5)" />
<use xlink:href="#f1_21" transform="matrix(12,0,0,12,132.7,766.5)" />
</g>
<path fill-rule="evenodd" d="M55,770.2h85.5v-1.8H55v1.8Z" class="g0_168" />
<g fill="#000000" >
<use xlink:href="#f0_14" transform="matrix(12,0,0,12,55,810.5)" />
<use xlink:href="#f0_2h" transform="matrix(12,0,0,12,68.3,810.5)" />
<use xlink:href="#f0_2e" transform="matrix(12,0,0,12,77.4,810.5)" />
<use xlink:href="#f0_25" transform="matrix(12,0,0,12,84,810.5)" />
<use xlink:href="#f0_2a" transform="matrix(12,0,0,12,88.8,810.5)" />
<use xlink:href="#f0_23" transform="matrix(12,0,0,12,97.6,810.5)" />
<use xlink:href="#f0_2g" transform="matrix(12,0,0,12,114.4,810.5)" />
<use xlink:href="#f0_24" transform="matrix(12,0,0,12,119.9,810.5)" />
<use xlink:href="#f0_25" transform="matrix(12,0,0,12,129,810.5)" />
<use xlink:href="#f0_2f" transform="matrix(12,0,0,12,133.8,810.5)" />
<use xlink:href="#f0_2c" transform="matrix(12,0,0,12,148.5,810.5)" />
<use xlink:href="#f0_24" transform="matrix(12,0,0,12,157.6,810.5)" />
<use xlink:href="#f0_1x" transform="matrix(12,0,0,12,166.4,810.5)" />
<use xlink:href="#f0_2f" transform="matrix(12,0,0,12,174.8,810.5)" />
<use xlink:href="#f0_21" transform="matrix(12,0,0,12,181.8,810.5)" />
<use xlink:href="#f0_g" transform="matrix(12,0,0,12,189.9,810.5)" />
<use xlink:href="#f0_1z" transform="matrix(12,0,0,12,202.3,810.5)" />
<use xlink:href="#f0_24" transform="matrix(12,0,0,12,210.4,810.5)" />
<use xlink:href="#f0_2e" transform="matrix(12,0,0,12,219.2,810.5)" />
<use xlink:href="#f0_2b" transform="matrix(12,0,0,12,225.4,810.5)" />
<use xlink:href="#f0_29" transform="matrix(12,0,0,12,235.3,810.5)" />
<use xlink:href="#f0_2b" transform="matrix(12,0,0,12,248.8,810.5)" />
<use xlink:href="#f0_2f" transform="matrix(12,0,0,12,258.4,810.5)" />
<use xlink:href="#f0_2b" transform="matrix(12,0,0,12,265.3,810.5)" />
<use xlink:href="#f0_29" transform="matrix(12,0,0,12,274.8,810.5)" />
<use xlink:href="#f0_21" transform="matrix(12,0,0,12,288.4,810.5)" />
<use xlink:href="#f0_2f" transform="matrix(12,0,0,12,296.8,810.5)" />
<use xlink:href="#f0_1x" transform="matrix(12,0,0,12,311.5,810.5)" />
<use xlink:href="#f0_28" transform="matrix(12,0,0,12,319.9,810.5)" />
<use xlink:href="#f0_25" transform="matrix(12,0,0,12,325,810.5)" />
<use xlink:href="#f0_23" transform="matrix(12,0,0,12,329.8,810.5)" />
<use xlink:href="#f0_2a" transform="matrix(12,0,0,12,339.3,810.5)" />
<use xlink:href="#f0_21" transform="matrix(12,0,0,12,348.1,810.5)" />
<use xlink:href="#f0_20" transform="matrix(12,0,0,12,356.2,810.5)" />
<use xlink:href="#f0_2g" transform="matrix(12,0,0,12,373,810.5)" />
<use xlink:href="#f0_24" transform="matrix(12,0,0,12,378.5,810.5)" />
<use xlink:href="#f0_21" transform="matrix(12,0,0,12,387.3,810.5)" />
<use xlink:href="#f0_29" transform="matrix(12,0,0,12,395.7,810.5)" />
<use xlink:href="#f0_2f" transform="matrix(12,0,0,12,409.6,810.5)" />
<use xlink:href="#f0_21" transform="matrix(12,0,0,12,416.6,810.5)" />
<use xlink:href="#f0_28" transform="matrix(12,0,0,12,425,810.5)" />
<use xlink:href="#f0_2i" transform="matrix(12,0,0,12,429.8,810.5)" />
<use xlink:href="#f0_21" transform="matrix(12,0,0,12,439,810.5)" />
<use xlink:href="#f0_2f" transform="matrix(12,0,0,12,447.4,810.5)" />
<use xlink:href="#f0_2b" transform="matrix(12,0,0,12,462,810.5)" />
<use xlink:href="#f0_2a" transform="matrix(12,0,0,12,471.5,810.5)" />
<use xlink:href="#f0_2g" transform="matrix(12,0,0,12,488,810.5)" />
<use xlink:href="#f0_24" transform="matrix(12,0,0,12,493.5,810.5)" />
<use xlink:href="#f0_21" transform="matrix(12,0,0,12,502.3,810.5)" />
<use xlink:href="#f0_21" transform="matrix(12,0,0,12,518,810.5)" />
<use xlink:href="#f0_2d" transform="matrix(12,0,0,12,526.1,810.5)" />
<use xlink:href="#f0_2h" transform="matrix(12,0,0,12,535.3,810.5)" />
<use xlink:href="#f0_1x" transform="matrix(12,0,0,12,544.4,810.5)" />
<use xlink:href="#f0_2g" transform="matrix(12,0,0,12,552.5,810.5)" />
<use xlink:href="#f0_2b" transform="matrix(12,0,0,12,557.6,810.5)" />
<use xlink:href="#f0_2e" transform="matrix(12,0,0,12,567.2,810.5)" />
<use xlink:href="#f0_25" transform="matrix(12,0,0,12,573.4,810.5)" />
<use xlink:href="#f0_1x" transform="matrix(12,0,0,12,577.8,810.5)" />
<use xlink:href="#f0_28" transform="matrix(12,0,0,12,586.2,810.5)" />
<use xlink:href="#f0_2c" transform="matrix(12,0,0,12,598.3,810.5)" />
<use xlink:href="#f0_28" transform="matrix(12,0,0,12,607.8,810.5)" />
<use xlink:href="#f0_1x" transform="matrix(12,0,0,12,612.6,810.5)" />
<use xlink:href="#f0_2g" transform="matrix(12,0,0,12,620.6,810.5)" />
<use xlink:href="#f0_21" transform="matrix(12,0,0,12,626.1,810.5)" />
<use xlink:href="#f0_i" transform="matrix(12,0,0,12,634.2,810.5)" />
<use xlink:href="#f0_1k" transform="matrix(12,0,0,12,646.6,810.5)" />
<use xlink:href="#f0_24" transform="matrix(12,0,0,12,657.9,810.5)" />
<use xlink:href="#f0_21" transform="matrix(12,0,0,12,666.7,810.5)" />
<use xlink:href="#f0_1x" transform="matrix(12,0,0,12,682.5,810.5)" />
<use xlink:href="#f0_2a" transform="matrix(12,0,0,12,690.6,810.5)" />
<use xlink:href="#f0_1x" transform="matrix(12,0,0,12,699.4,810.5)" />
<use xlink:href="#f0_28" transform="matrix(12,0,0,12,707.8,810.5)" />
<use xlink:href="#f0_2l" transform="matrix(12,0,0,12,712.9,810.5)" />
<use xlink:href="#f0_2f" transform="matrix(12,0,0,12,721.7,810.5)" />
<use xlink:href="#f0_25" transform="matrix(12,0,0,12,729,810.5)" />
<use xlink:href="#f0_2f" transform="matrix(12,0,0,12,733.8,810.5)" />
<use xlink:href="#f0_2b" transform="matrix(12,0,0,12,748.8,810.5)" />
<use xlink:href="#f0_22" transform="matrix(12,0,0,12,758.3,810.5)" />
<use xlink:href="#f0_2g" transform="matrix(12,0,0,12,771.5,810.5)" />
<use xlink:href="#f0_24" transform="matrix(12,0,0,12,777,810.5)" />
<use xlink:href="#f0_21" transform="matrix(12,0,0,12,785.8,810.5)" />
<use xlink:href="#f0_29" transform="matrix(12,0,0,12,802.2,810.5)" />
<use xlink:href="#f0_21" transform="matrix(12,0,0,12,815.8,810.5)" />
<use xlink:href="#f0_2g" transform="matrix(12,0,0,12,823.9,810.5)" />
<use xlink:href="#f0_1x" transform="matrix(12,0,0,12,829.3,810.5)" />
<use xlink:href="#f0_2c" transform="matrix(12,0,0,12,837.4,810.5)" />
<use xlink:href="#f0_24" transform="matrix(12,0,0,12,846.6,810.5)" />
<use xlink:href="#f0_1x" transform="matrix(12,0,0,12,855.4,810.5)" />
<use xlink:href="#f0_2f" transform="matrix(12,0,0,12,863.4,810.5)" />
<use xlink:href="#f0_21" transform="matrix(12,0,0,12,870.8,810.5)" />
<use xlink:href="#f0_1z" transform="matrix(12,0,0,12,55,842.1)" />
<use xlink:href="#f0_24" transform="matrix(12,0,0,12,63.1,842.1)" />
<use xlink:href="#f0_2e" transform="matrix(12,0,0,12,71.9,842.1)" />
<use xlink:href="#f0_2b" transform="matrix(12,0,0,12,78.1,842.1)" />
<use xlink:href="#f0_29" transform="matrix(12,0,0,12,88,842.1)" />
<use xlink:href="#f0_2b" transform="matrix(12,0,0,12,101.6,842.1)" />
<use xlink:href="#f0_2f" transform="matrix(12,0,0,12,111.1,842.1)" />
<use xlink:href="#f0_2b" transform="matrix(12,0,0,12,118,842.1)" />
<use xlink:href="#f0_29" transform="matrix(12,0,0,12,127.6,842.1)" />
<use xlink:href="#f0_21" transform="matrix(12,0,0,12,141.1,842.1)" />
<use xlink:href="#f0_25" transform="matrix(12,0,0,12,154.3,842.1)" />
<use xlink:href="#f0_2f" transform="matrix(12,0,0,12,159.1,842.1)" />
<use xlink:href="#f0_2h" transform="matrix(12,0,0,12,170.8,842.1)" />
<use xlink:href="#f0_2f" transform="matrix(12,0,0,12,180,842.1)" />
<use xlink:href="#f0_21" transform="matrix(12,0,0,12,186.9,842.1)" />
<use xlink:href="#f0_20" transform="matrix(12,0,0,12,195,842.1)" />
<use xlink:href="#f0_25" transform="matrix(12,0,0,12,209.3,842.1)" />
<use xlink:href="#f0_2a" transform="matrix(12,0,0,12,214,842.1)" />
<use xlink:href="#f0_1z" transform="matrix(12,0,0,12,227.6,842.1)" />
<use xlink:href="#f0_2l" transform="matrix(12,0,0,12,236,842.1)" />
<use xlink:href="#f0_2g" transform="matrix(12,0,0,12,244.4,842.1)" />
<use xlink:href="#f0_2b" transform="matrix(12,0,0,12,249.9,842.1)" />
<use xlink:href="#f0_23" transform="matrix(12,0,0,12,259.4,842.1)" />
<use xlink:href="#f0_21" transform="matrix(12,0,0,12,268.6,842.1)" />
<use xlink:href="#f0_2a" transform="matrix(12,0,0,12,276.7,842.1)" />
<use xlink:href="#f0_21" transform="matrix(12,0,0,12,285.8,842.1)" />
<use xlink:href="#f0_2g" transform="matrix(12,0,0,12,293.9,842.1)" />
<use xlink:href="#f0_25" transform="matrix(12,0,0,12,299.4,842.1)" />
<use xlink:href="#f0_1z" transform="matrix(12,0,0,12,304.1,842.1)" />
<use xlink:href="#f0_2f" transform="matrix(12,0,0,12,312.2,842.1)" />
<use xlink:href="#f0_1x" transform="matrix(12,0,0,12,323.9,842.1)" />
<use xlink:href="#f0_2a" transform="matrix(12,0,0,12,332.3,842.1)" />
<use xlink:href="#f0_20" transform="matrix(12,0,0,12,341.1,842.1)" />
<use xlink:href="#f0_1z" transform="matrix(12,0,0,12,355.1,842.1)" />
<use xlink:href="#f0_1x" transform="matrix(12,0,0,12,363.1,842.1)" />
<use xlink:href="#f0_2a" transform="matrix(12,0,0,12,371.5,842.1)" />
<use xlink:href="#f0_1z" transform="matrix(12,0,0,12,380.3,842.1)" />
<use xlink:href="#f0_21" transform="matrix(12,0,0,12,388.4,842.1)" />
<use xlink:href="#f0_2e" transform="matrix(12,0,0,12,396.5,842.1)" />
<use xlink:href="#f0_2f" transform="matrix(12,0,0,12,407.4,842.1)" />
<use xlink:href="#f0_2g" transform="matrix(12,0,0,12,414.4,842.1)" />
<use xlink:href="#f0_2h" transform="matrix(12,0,0,12,419.9,842.1)" />
<use xlink:href="#f0_20" transform="matrix(12,0,0,12,428.7,842.1)" />
<use xlink:href="#f0_25" transform="matrix(12,0,0,12,438.2,842.1)" />
<use xlink:href="#f0_21" transform="matrix(12,0,0,12,442.6,842.1)" />
<use xlink:href="#f0_2f" transform="matrix(12,0,0,12,451,842.1)" />
<use xlink:href="#f0_i" transform="matrix(12,0,0,12,458,842.1)" />
</g>
<image preserveAspectRatio="none" x="254" y="357" width="427" height="282" xlink:href="img/1.png" />
<g fill="#000000" >
<use xlink:href="#f2_m" transform="matrix(8,0,0,8,818.2,1187.9)" />
</g>
<defs>
<path d="M577,-14c0,0,-243,0,-379,132C198,118,63,250,63,488c0,0,0,258,130,391c0,0,131,132,387,132c0,0,156,0,335,-38l5,-218H871L848,884c0,0,-52,32,-121,50c0,0,-69,17,-141,17c0,0,-191,0,-279,-112c0,0,-88,-113,-88,-349c0,0,0,-217,92,-332c0,0,92,-115,268,-115c0,0,85,0,160,20c0,0,76,21,120,55l27,149h49L930,32c0,0,-164,-46,-353,-46Z" 
id="f0_13"
transform="scale(0.001,-0.001)" />

<path d="M284,67c0,0,51,0,88,12c0,0,37,12,74,30V358l-98,-3c0,0,-100,-4,-135,-39c0,0,-35,-35,-35,-117c0,0,0,-132,106,-132ZM233,-14c0,0,-179,0,-179,208c0,0,0,70,27,116c0,0,27,46,87,70c0,0,60,24,173,27l105,3V519c0,0,0,72,-26,107c0,0,-27,34,-82,34c0,0,-75,0,-137,-35L176,538H134V691c0,0,121,26,213,26c0,0,115,0,169,-47c0,0,54,-47,54,-144V52L657,33V0H465L451,70c0,0,-85,-84,-218,-84Z" 
id="f0_1x"
transform="scale(0.001,-0.001)" />

<path d="M31,0V33L150,52v956L31,1026v34H274V52L394,33V0Z" 
id="f0_28"
transform="scale(0.001,-0.001)" />

<path d="M495,413c0,0,0,133,-34,190c0,0,-34,57,-105,57c0,0,-78,0,-119,-63c0,0,-42,-62,-42,-184ZM374,-14c0,0,-163,0,-239,87c0,0,-75,88,-75,283c0,0,0,183,77,273c0,0,76,91,219,91c0,0,269,0,269,-306V353H194V340c0,0,0,-103,23,-160c0,0,22,-57,70,-87c0,0,47,-29,124,-29c0,0,40,0,96,6c0,0,55,7,91,15V43C598,43,562,20,500,3c0,0,-61,-17,-126,-17Z" 
id="f0_21"
transform="scale(0.001,-0.001)" />

<path d="M383,64c0,0,85,0,152,28V645c0,0,-67,13,-152,13c0,0,-194,0,-194,-314c0,0,0,-141,48,-211c0,0,48,-69,146,-69ZM342,-14c0,0,-287,0,-287,358c0,0,0,184,82,280c0,0,81,96,239,96c0,0,81,0,163,-18c0,0,-4,25,-4,124v182l-118,18v34H659V52L745,33V0H548l-9,52c0,0,-84,-66,-197,-66Z" 
id="f0_20"
transform="scale(0.001,-0.001)" />

<path d="M278,-14c0,0,-52,0,-115,11c0,0,-63,10,-99,23V193H98L134,95c0,0,56,-50,146,-50c0,0,144,0,144,123c0,0,0,91,-114,130l-66,21c0,0,-75,25,-110,50c0,0,-34,26,-53,63c0,0,-18,36,-18,89c0,0,0,92,63,145c0,0,63,54,170,54c0,0,77,0,193,-23V544H454l-32,81c0,0,-39,35,-124,35c0,0,-61,0,-92,-30c0,0,-32,-30,-32,-80c0,0,0,-43,29,-72c0,0,28,-29,86,-48c0,0,110,-38,144,-55c0,0,33,-17,57,-42c0,0,23,-25,36,-57c0,0,13,-32,13,-79c0,0,0,-104,-66,-158c0,0,-66,-53,-195,-53Z" 
id="f0_2f"
transform="scale(0.001,-0.001)" />

<path d="M383,64c0,0,44,0,87,7c0,0,43,7,65,17V645c0,0,-67,13,-152,13c0,0,-194,0,-194,-309c0,0,0,-143,48,-214c0,0,47,-71,146,-71Zm56,-389v35l96,18V-77c0,0,0,73,7,124c0,0,-79,-61,-200,-61c0,0,-287,0,-287,362c0,0,0,180,81,276c0,0,81,96,237,96c0,0,84,0,166,-18l67,33h53V-272l77,-18v-35Z" 
id="f0_2d"
transform="scale(0.001,-0.001)" />

<path d="M289,-14c0,0,-179,0,-179,205V649L20,668v33H233V200c0,0,0,-128,120,-128c0,0,92,0,173,23V649L420,668v33H649V52L738,33V0H533l-6,57C527,57,474,28,405,7c0,0,-69,-21,-116,-21Z" 
id="f0_2h"
transform="scale(0.001,-0.001)" />

<path d="M249,-14c0,0,-71,0,-107,42c0,0,-35,42,-35,119V639H15v33l93,29l76,159h47V701H391V639H231V161c0,0,0,-48,22,-73c0,0,22,-24,57,-24c0,0,44,0,106,12V26C416,26,389,8,340,-2c0,0,-49,-12,-91,-12Z" 
id="f0_2g"
transform="scale(0.001,-0.001)" />

<path d="M32,0V33L151,52V649L52,668v33H275V52L395,33V0ZM201,850c0,0,-32,0,-56,24c0,0,-24,24,-24,56c0,0,0,34,24,58c0,0,24,24,56,24c0,0,34,0,58,-24c0,0,24,-24,24,-58c0,0,0,-32,-24,-56c0,0,-24,-24,-58,-24Z" 
id="f0_25"
transform="scale(0.001,-0.001)" />

<path d="M377,45c0,0,99,0,147,73c0,0,47,73,47,237c0,0,0,161,-47,233c0,0,-47,72,-147,72c0,0,-97,0,-141,-69c0,0,-44,-69,-44,-236c0,0,0,-169,45,-240c0,0,44,-70,140,-70Zm0,-59c0,0,-158,0,-238,94c0,0,-81,95,-81,274c0,0,0,178,81,272c0,0,80,94,244,94c0,0,160,0,241,-92c0,0,82,-92,82,-274c0,0,0,-368,-329,-368Z" 
id="f0_2b"
transform="scale(0.001,-0.001)" />

<path d="M439,0V33l93,19V500c0,0,0,62,-30,97c0,0,-31,36,-94,36c0,0,-67,0,-165,-22V52L338,33V0H35V33l84,19V649L35,668v33H235l7,-57c0,0,57,33,122,54c0,0,65,22,108,22c0,0,91,0,137,-53c0,0,47,-53,47,-154V52L741,33V0Z" 
id="f0_2a"
transform="scale(0.001,-0.001)" />

<path d="M360,-14L72,649L0,668v33H327V668L216,648L420,164L615,649L504,668v33H764V668L697,652L416,-14Z" 
id="f0_2i"
transform="scale(0.001,-0.001)" />

<path d="M442,0V33l93,19V504c0,0,0,129,-124,129c0,0,-70,0,-168,-22V52L338,33V0H31V33l88,19v956L15,1026v34H243V756c0,0,0,-77,-5,-112c0,0,54,31,122,53c0,0,68,23,115,23c0,0,91,0,137,-53c0,0,47,-53,47,-154V52L744,33V0Z" 
id="f0_24"
transform="scale(0.001,-0.001)" />

<path d="M431,0V33L535,52V499c0,0,0,62,-32,96c0,0,-32,33,-95,33c0,0,-66,0,-163,-22V52L350,33V0H32V33l89,19V649L32,668v33H237l6,-57c0,0,56,32,119,54c0,0,62,22,110,22c0,0,52,0,95,-20c0,0,44,-19,66,-62c0,0,57,32,134,57c0,0,77,25,128,25c0,0,179,0,179,-207V52l90,-19V0H846V33L950,52V499c0,0,0,129,-119,129c0,0,-19,0,-45,-3c0,0,-26,-3,-52,-7c0,0,-25,-4,-49,-8c0,0,-23,-5,-39,-8c0,0,13,-41,13,-89V52L764,33V0Z" 
id="f0_29"
transform="scale(0.001,-0.001)" />

<path d="M376,50c0,0,103,0,149,80c0,0,46,81,46,240c0,0,0,137,-47,204c0,0,-48,67,-148,67c0,0,-44,0,-87,-7c0,0,-44,-8,-63,-17V62c0,0,63,-12,150,-12Zm3,-64c0,0,-64,0,-141,14c0,0,-78,14,-136,37v971L0,1026v34H226V809c0,0,0,-40,-4,-148c0,0,74,59,188,59c0,0,143,0,219,-87c0,0,77,-87,77,-263c0,0,0,-189,-84,-287c0,0,-84,-97,-243,-97Z" 
id="f0_1y"
transform="scale(0.001,-0.001)" />

<path d="M31,0V33l88,19V649L31,668v33H235l7,-87c0,0,44,37,121,71c0,0,76,35,121,35h11V530H463l-43,82c0,0,-37,0,-88,-10c0,0,-52,-10,-89,-26V52L363,33V0Z" 
id="f0_2e"
transform="scale(0.001,-0.001)" />

<path d="M64,0V34L168,59V639H47v36l121,29v49c0,0,0,155,61,239c0,0,62,84,173,84c0,0,58,0,107,-15V908H472l-33,92c0,0,-26,16,-62,16c0,0,-47,0,-66,-42c0,0,-19,-42,-19,-157V701H478V639H292V59L443,34V0Z" 
id="f0_22"
transform="scale(0.001,-0.001)" />

<path d="M399,-14c0,0,-341,0,-341,370c0,0,0,175,87,269c0,0,87,95,249,95c0,0,101,0,220,-23V501H573L541,625c0,0,-62,35,-149,35c0,0,-200,0,-200,-304c0,0,0,-158,61,-225c0,0,61,-67,189,-67c0,0,109,0,189,24V43C631,43,595,16,530,1c0,0,-64,-15,-131,-15Z" 
id="f0_1z"
transform="scale(0.001,-0.001)" />

<path d="M359,-270c0,0,124,0,192,46c0,0,67,47,67,129c0,0,0,43,-26,67c0,0,-26,24,-79,24H242c0,0,-32,-27,-51,-69c0,0,-20,-41,-20,-77c0,0,0,-64,46,-92c0,0,46,-28,142,-28Zm11,561c0,0,81,0,115,47c0,0,34,47,34,141c0,0,0,100,-35,142c0,0,-35,42,-113,42c0,0,-78,0,-114,-43c0,0,-37,-42,-37,-141c0,0,0,-98,36,-143c0,0,36,-45,114,-45ZM359,-329c0,0,-143,0,-218,44c0,0,-75,43,-75,125c0,0,0,39,27,78c0,0,26,38,98,89c0,0,-43,14,-72,48c0,0,-29,35,-29,74L208,262c0,0,-118,55,-118,217c0,0,0,115,73,178c0,0,73,63,211,63c0,0,28,0,71,-6c0,0,44,-6,67,-13l165,83l26,-32L599,644c0,0,50,-56,50,-165c0,0,0,-120,-72,-182c0,0,-73,-62,-208,-62c0,0,-62,0,-114,11L208,148c0,0,2,-13,29,-24c0,0,27,-12,67,-12H512c0,0,113,0,168,-49c0,0,55,-49,55,-134c0,0,0,-79,-44,-137c0,0,-43,-58,-128,-90c0,0,-84,-31,-204,-31Z" 
id="f0_23"
transform="scale(0.001,-0.001)" />

<path d="M382,45c0,0,188,0,188,314c0,0,0,143,-47,213c0,0,-46,69,-141,69c0,0,-87,0,-146,-24V58c0,0,67,-13,146,-13ZM25,-325v35l88,18V649L34,668v33H231l1,-41c0,0,31,27,84,43c0,0,53,17,107,17c0,0,134,0,208,-94c0,0,73,-93,73,-267c0,0,0,-178,-80,-276c0,0,-80,-97,-232,-97c0,0,-84,0,-160,16c0,0,4,-53,4,-84V-272l123,-18v-35Z" 
id="f0_2c"
transform="scale(0.001,-0.001)" />

<path d="M191,-20c0,0,-39,0,-65,25c0,0,-25,27,-25,64c0,0,0,38,26,64c0,0,26,26,64,26c0,0,38,0,64,-26c0,0,26,-26,26,-64c0,0,0,-37,-25,-64c0,0,-26,-25,-65,-25Z" 
id="f0_i"
transform="scale(0.001,-0.001)" />

<path d="M55,0V40L184,60V941L55,960v40H455V960L327,941V60L455,40V0Z" 
id="f0_19"
transform="scale(0.001,-0.001)" />

<path d="M327,-14L84,649L1,668v33H335V668L219,648L385,174L554,632h63L786,171L944,649L830,668v33h267V668l-78,-16L784,-14H726L553,448L382,-14Z" 
id="f0_2j"
transform="scale(0.001,-0.001)" />

<path d="M235,0V40L394,60V936H356c0,0,-189,0,-258,-15L78,766H28v234H908V766H857L837,921c0,0,-22,5,-98,9c0,0,-75,4,-165,4H538V60L697,40V0Z" 
id="f0_1k"
transform="scale(0.001,-0.001)" />

<path d="M477,0V33l64,19L348,354L257,254V52L331,33V0H44V33l89,19v956L29,1026v34H257V338L544,647l-73,20v34H718V667L631,650L431,446L688,50L764,33V0Z" 
id="f0_27"
transform="scale(0.001,-0.001)" />

<path d="M148,-329c0,0,-58,0,-114,13v151H69l24,-71c0,0,23,-17,64,-17c0,0,39,0,72,22c0,0,33,23,60,67c0,0,27,44,68,157L90,649L19,668v33H344V668L233,648L423,158L606,649L497,668v33H758V668L685,652L411,-43c0,0,-48,-124,-84,-177c0,0,-36,-54,-79,-82c0,0,-44,-27,-100,-27Z" 
id="f0_2l"
transform="scale(0.001,-0.001)" />

<path d="M57,302V417H454V302Z" 
id="f0_h"
transform="scale(0.001,-0.001)" />

<path d="M452,474c0,0,104,0,151,52c0,0,47,53,47,178c0,0,0,119,-45,167c0,0,-44,47,-156,47H390V474ZM36,0V54L154,74V926L26,945v55H467c0,0,213,0,318,-71c0,0,105,-71,105,-224c0,0,0,-313,-366,-313H390V74L557,54V0Z" 
id="f1_1g"
transform="scale(0.001,-0.001)" />

<path d="M41,0V49l91,18V634L41,652v49H336l8,-145c0,0,80,89,144,128c0,0,64,40,117,40h40V468H604l-45,94c0,0,-47,0,-106,-21c0,0,-60,-20,-105,-48V67L460,49V0Z" 
id="f1_2e"
transform="scale(0.001,-0.001)" />

<path d="M379,60c0,0,59,0,84,64c0,0,24,65,24,231c0,0,0,164,-24,227c0,0,-24,63,-84,63c0,0,-57,0,-80,-60c0,0,-22,-61,-22,-230c0,0,0,-173,23,-234c0,0,22,-61,79,-61Zm-2,-74c0,0,-161,0,-240,91c0,0,-79,91,-79,277c0,0,0,186,80,276c0,0,81,90,245,90c0,0,167,0,245,-93c0,0,78,-93,78,-273c0,0,0,-188,-81,-278c0,0,-81,-90,-248,-90Z" 
id="f1_2b"
transform="scale(0.001,-0.001)" />

<path d="M438,65c0,0,131,0,131,293c0,0,0,279,-130,279c0,0,-69,0,-127,-29V80c0,0,60,-15,126,-15ZM20,-325v50l76,18V634L19,652v49H304l1,-36c0,0,80,55,194,55c0,0,146,0,218,-86c0,0,71,-86,71,-271c0,0,0,-183,-83,-280c0,0,-83,-97,-238,-97c0,0,-79,0,-160,19c0,0,5,-48,5,-109V-257l103,-18v-50Z" 
id="f1_2c"
transform="scale(0.001,-0.001)" />

<path d="M41,0V49l69,18V992l-72,18v50H325V756c0,0,0,-49,-4,-116l51,26c0,0,106,54,190,54c0,0,194,0,194,-207V67L827,49V0H478V49l63,18V484c0,0,0,63,-27,98c0,0,-26,35,-75,35c0,0,-57,0,-114,-25V67L389,49V0Z" 
id="f1_24"
transform="scale(0.001,-0.001)" />

<path d="M345,75c0,0,50,0,110,26V351l-63,-2c0,0,-72,-3,-100,-38c0,0,-28,-35,-28,-113c0,0,0,-63,22,-93c0,0,23,-30,59,-30ZM266,-14c0,0,-217,0,-217,208c0,0,0,79,32,126c0,0,32,48,93,71c0,0,60,22,190,25l91,2V521c0,0,0,126,-104,126c0,0,-62,0,-140,-39L183,521H134V691c0,0,112,17,165,21c0,0,53,5,108,5c0,0,264,0,264,-194V67L741,49V0H483L466,54C466,54,408,14,361,0c0,0,-47,-14,-95,-14Z" 
id="f1_1x"
transform="scale(0.001,-0.001)" />

<path d="M276,-14c0,0,-57,0,-125,13C151,-1,83,10,48,23V214H97l28,-98c0,0,26,-26,69,-44c0,0,42,-17,86,-17c0,0,65,0,97,28c0,0,32,28,32,71c0,0,0,41,-31,65c0,0,-30,25,-133,57c0,0,-108,34,-154,92c0,0,-45,58,-45,143c0,0,0,95,71,152c0,0,71,57,183,57c0,0,77,0,207,-22V518H457l-24,82c0,0,-21,22,-60,35c0,0,-40,14,-75,14c0,0,-53,0,-79,-22c0,0,-26,-22,-26,-59c0,0,0,-40,32,-65c0,0,32,-26,132,-55c0,0,109,-34,155,-89c0,0,45,-55,45,-137c0,0,0,-117,-72,-177c0,0,-72,-59,-209,-59Z" 
id="f1_2f"
transform="scale(0.001,-0.001)" />

<path d="M434,423c0,0,0,101,-7,142c0,0,-6,40,-22,60c0,0,-16,19,-45,19c0,0,-44,0,-66,-48c0,0,-22,-49,-22,-173ZM389,-14c0,0,-172,0,-254,89c0,0,-83,90,-83,279c0,0,0,184,79,274c0,0,79,91,238,91c0,0,142,0,206,-76c0,0,64,-76,64,-237V345H271V333c0,0,0,-111,18,-158c0,0,18,-47,58,-72c0,0,40,-25,110,-25c0,0,66,0,166,22V42C623,42,582,18,517,1c0,0,-66,-15,-128,-15Z" 
id="f1_21"
transform="scale(0.001,-0.001)" />

<path d="M529,65c0,0,183,0,270,108c0,0,87,108,87,334c0,0,0,210,-113,318c0,0,-113,108,-322,108H316V71c0,0,90,-6,213,-6Zm0,-67L172,0H44V40L172,60V941L44,960v40H498c0,0,277,0,411,-123c0,0,133,-124,133,-371c0,0,0,-251,-129,-380C913,126,785,-2,529,-2Z" 
id="f0_14"
transform="scale(0.001,-0.001)" />

<path d="M58,-234v58c0,0,131,42,131,125c0,0,0,15,-11,27c0,0,-11,12,-38,25C140,1,89,27,89,75c0,0,0,40,25,61c0,0,26,21,65,21c0,0,48,0,77,-34c0,0,30,-34,30,-86c0,0,0,-101,-60,-170c0,0,-59,-69,-168,-101Z" 
id="f0_g"
transform="scale(0.001,-0.001)" />

<path d="M868,0L251,900V60L385,40V0H44V40L172,60V941L44,960v40H347L862,259V941L727,960v40h341V960L940,941V0Z" 
id="f0_1e"
transform="scale(0.001,-0.001)" />

<path d="M410,-14c0,0,-80,0,-162,14c0,0,-81,14,-144,38V270h48L178,134c0,0,28,-35,95,-62c0,0,68,-27,134,-27c0,0,104,0,163,53c0,0,58,54,58,148c0,0,0,54,-23,89c0,0,-22,35,-59,59c0,0,-37,24,-84,41c0,0,-47,17,-97,34c0,0,-49,17,-96,38c0,0,-47,21,-84,53c0,0,-37,32,-60,79c0,0,-23,48,-23,117c0,0,0,119,90,187c0,0,89,68,248,68c0,0,121,0,263,-32V771H654L628,893c0,0,-76,55,-188,55c0,0,-100,0,-156,-40c0,0,-56,-41,-56,-112c0,0,0,-49,22,-81c0,0,23,-32,60,-55c0,0,37,-22,84,-39c0,0,48,-16,97,-34c0,0,50,-17,97,-39c0,0,48,-22,85,-56c0,0,36,-34,59,-83c0,0,23,-49,23,-120c0,0,0,-145,-89,-224c0,0,-89,-79,-256,-79Z" 
id="f0_1j"
transform="scale(0.001,-0.001)" />

<path d="M36,0V54L154,74V926L26,945v55H860V731H790L766,908c0,0,-36,5,-121,8c0,0,-84,2,-133,2H389V508H633l23,127h67V298H656L633,426H389V74L556,54V0Z" 
id="f1_16"
transform="scale(0.001,-0.001)" />

<path d="M34,0V49l76,18V634L38,652v49H325V67L402,49V0ZM217,831c0,0,-48,0,-81,33c0,0,-34,33,-34,82c0,0,0,48,34,81c0,0,34,33,81,33c0,0,48,0,81,-33c0,0,33,-33,33,-81c0,0,0,-47,-33,-81c0,0,-32,-34,-81,-34Z" 
id="f1_25"
transform="scale(0.001,-0.001)" />

<path d="M360,-256c0,0,108,0,167,35c0,0,59,35,59,98c0,0,0,70,-95,70H254c0,0,-65,-47,-65,-108c0,0,0,-47,46,-71c0,0,45,-24,125,-24Zm9,561c0,0,55,0,79,43c0,0,25,43,25,129c0,0,0,87,-24,127c0,0,-25,41,-80,41c0,0,-52,0,-75,-41c0,0,-24,-40,-24,-127c0,0,0,-86,23,-129c0,0,23,-43,76,-43Zm-9,-641c0,0,-153,0,-236,43c0,0,-84,44,-84,120c0,0,0,33,28,65c0,0,27,31,105,76c0,0,-44,17,-75,59c0,0,-31,43,-31,90L192,258c0,0,-133,56,-133,219c0,0,0,116,81,180c0,0,82,63,233,63c0,0,32,0,82,-6c0,0,51,-6,74,-13l168,83l26,-32L638,631c0,0,46,-57,46,-154c0,0,0,-119,-80,-182c0,0,-80,-64,-234,-64c0,0,-59,0,-114,9L238,183c0,0,1,-22,28,-41c0,0,26,-19,64,-19H493c0,0,256,0,256,-196c0,0,0,-81,-44,-139c0,0,-45,-59,-131,-92c0,0,-86,-32,-214,-32Z" 
id="f1_23"
transform="scale(0.001,-0.001)" />

<path d="M191,-20c0,0,-51,0,-88,34c0,0,-36,36,-36,88c0,0,0,52,36,88c0,0,36,36,88,36c0,0,51,0,88,-36c0,0,36,-36,36,-88c0,0,0,-51,-36,-87c0,0,-36,-35,-88,-35Z" 
id="f1_i"
transform="scale(0.001,-0.001)" />

<path d="M64,0V141c0,0,64,68,119,123c0,0,119,118,174,185c0,0,56,68,81,140c0,0,26,72,26,165c0,0,0,81,-40,131c0,0,-39,50,-105,50c0,0,-46,0,-74,-10c0,0,-27,-10,-50,-29L163,751H98V979c0,0,59,13,116,23c0,0,58,9,125,9c0,0,165,0,252,-68c0,0,88,-68,88,-193c0,0,0,-78,-26,-142c0,0,-26,-64,-83,-124c0,0,-56,-61,-224,-197c0,0,-64,-52,-139,-119H698V0Z" 
id="f1_m"
transform="scale(0.001,-0.001)" />

<path d="M41,0V49l76,18V624H11v51l106,29v75c0,0,0,144,73,220c0,0,73,77,210,77c0,0,74,0,124,-15V894H476l-22,81c0,0,-18,17,-47,17c0,0,-74,0,-74,-189V701H475V624H333V67L447,49V0Z" 
id="f1_22"
transform="scale(0.001,-0.001)" />

<path d="M41,0V49l69,18V634L41,652v49H313l11,-61l50,26c0,0,105,54,188,54c0,0,125,0,167,-91c0,0,153,91,258,91c0,0,189,0,189,-207V67l71,-17V0H898V50l63,17V484c0,0,0,63,-24,98c0,0,-25,35,-74,35c0,0,-55,0,-119,-31c0,0,7,-32,7,-73V67L821,50V0H473V50l63,17V484c0,0,0,63,-25,98c0,0,-24,35,-73,35c0,0,-49,0,-113,-29V67L389,49V0Z" 
id="f1_29"
transform="scale(0.001,-0.001)" />

<path d="M327,-14c0,0,-101,0,-156,45c0,0,-55,45,-55,131V624H25v48l108,29l87,159H332V701H480V624H332V176c0,0,0,-49,20,-73c0,0,20,-25,53,-25c0,0,40,0,97,12V26c0,0,-22,-15,-76,-27c0,0,-55,-13,-99,-13Z" 
id="f1_2g"
transform="scale(0.001,-0.001)" />

<path d="M900,0V54l135,20V845L658,0H617L248,845V74L382,54V0H26V54L154,74V926L26,945v55H419L705,342l292,658h401V945L1270,926V74L1398,54V0Z" 
id="f1_1d"
transform="scale(0.001,-0.001)" />

<path d="M46,0c0,0,-2,48,16,93c0,0,27,74,88,146c0,0,61,71,176,165c0,0,178,146,241,232c0,0,63,85,63,161c0,0,0,80,-57,135c0,0,-58,55,-149,55c0,0,-98,0,-156,-59c0,0,-58,-58,-59,-160L71,782c0,0,15,154,107,235c0,0,93,81,249,81c0,0,157,0,249,-87c0,0,92,-88,92,-217c0,0,0,-65,-27,-129c0,0,-27,-63,-89,-133c0,0,-62,-70,-207,-193C445,339,324,238,290,202c0,0,-35,-36,-57,-73H770V0Z" 
id="f2_m"
transform="scale(0.001,-0.001)" />


</defs>
</svg>