<?xml version="1.0" encoding="UTF-8" standalone="no"?>
<!DOCTYPE svg PUBLIC "-//W3C//DTD SVG 1.1//EN"
"http://www.w3.org/Graphics/SVG/1.1/DTD/svg11.dtd">
<svg viewBox="0 0 935 1210" version="1.1" xmlns="http://www.w3.org/2000/svg" xmlns:xlink="http://www.w3.org/1999/xlink">
<defs>
<clipPath id="c0_155"><path d="M0,1210V0H935V1210Z" /></clipPath>
</defs>
<g clip-path="url(#c0_155)">
<g fill="#000000" >
<use xlink:href="#f0_16" transform="matrix(12,0,0,12,344.8,407.5)" />
<use xlink:href="#f0_25" transform="matrix(12,0,0,12,355,407.5)" />
<use xlink:href="#f0_23" transform="matrix(12,0,0,12,359.8,407.5)" />
<use xlink:href="#f0_i" transform="matrix(12,0,0,12,369,407.5)" />
<use xlink:href="#f0_l" transform="matrix(12,0,0,12,378.5,407.5)" />
<use xlink:href="#f0_l" transform="matrix(12,0,0,12,387.6,407.5)" />
<use xlink:href="#f0_i" transform="matrix(12,0,0,12,396.8,407.5)" />
<use xlink:href="#f0_1j" transform="matrix(12,0,0,12,405.9,407.5)" />
<use xlink:href="#f0_2g" transform="matrix(12,0,0,12,415.8,407.5)" />
<use xlink:href="#f0_2e" transform="matrix(12,0,0,12,421.3,407.5)" />
<use xlink:href="#f0_2h" transform="matrix(12,0,0,12,427.5,407.5)" />
<use xlink:href="#f0_1z" transform="matrix(12,0,0,12,436.7,407.5)" />
<use xlink:href="#f0_2g" transform="matrix(12,0,0,12,444.4,407.5)" />
<use xlink:href="#f0_2h" transform="matrix(12,0,0,12,449.9,407.5)" />
<use xlink:href="#f0_2e" transform="matrix(12,0,0,12,459,407.5)" />
<use xlink:href="#f0_21" transform="matrix(12,0,0,12,465.3,407.5)" />
<use xlink:href="#f0_2b" transform="matrix(12,0,0,12,477.4,407.5)" />
<use xlink:href="#f0_22" transform="matrix(12,0,0,12,486.9,407.5)" />
<use xlink:href="#f0_2c" transform="matrix(12,0,0,12,497.1,407.5)" />
<use xlink:href="#f0_21" transform="matrix(12,0,0,12,506.3,407.5)" />
<use xlink:href="#f0_2e" transform="matrix(12,0,0,12,514.4,407.5)" />
<use xlink:href="#f0_2b" transform="matrix(12,0,0,12,520.6,407.5)" />
<use xlink:href="#f0_2k" transform="matrix(12,0,0,12,530.1,407.5)" />
<use xlink:href="#f0_25" transform="matrix(12,0,0,12,539.3,407.5)" />
<use xlink:href="#f0_2f" transform="matrix(12,0,0,12,544,407.5)" />
<use xlink:href="#f0_2b" transform="matrix(12,0,0,12,551,407.5)" />
<use xlink:href="#f0_29" transform="matrix(12,0,0,12,560.9,407.5)" />
<use xlink:href="#f0_21" transform="matrix(12,0,0,12,574.4,407.5)" />
<use xlink:href="#f0_2f" transform="matrix(12,0,0,12,582.5,407.5)" />
<use xlink:href="#f1_13" transform="matrix(12,0,0,12,55,451.5)" />
<use xlink:href="#f1_2l" transform="matrix(12,0,0,12,68.3,451.5)" />
<use xlink:href="#f1_2g" transform="matrix(12,0,0,12,77.4,451.5)" />
<use xlink:href="#f1_2b" transform="matrix(12,0,0,12,83.6,451.5)" />
<use xlink:href="#f1_2f" transform="matrix(12,0,0,12,92.8,451.5)" />
<use xlink:href="#f1_27" transform="matrix(12,0,0,12,99.8,451.5)" />
<use xlink:href="#f1_21" transform="matrix(12,0,0,12,109.7,451.5)" />
<use xlink:href="#f1_28" transform="matrix(12,0,0,12,118.1,451.5)" />
<use xlink:href="#f1_21" transform="matrix(12,0,0,12,122.8,451.5)" />
<use xlink:href="#f1_2g" transform="matrix(12,0,0,12,130.9,451.5)" />
<use xlink:href="#f1_2b" transform="matrix(12,0,0,12,137.1,451.5)" />
<use xlink:href="#f1_2a" transform="matrix(12,0,0,12,146.3,451.5)" />
<use xlink:href="#f1_u" transform="matrix(12,0,0,12,156.5,451.5)" />
<use xlink:href="#f0_19" transform="matrix(12,0,0,12,55,495.2)" />
<use xlink:href="#f0_2g" transform="matrix(12,0,0,12,61.3,495.2)" />
<use xlink:href="#f0_1z" transform="matrix(12,0,0,12,71.9,495.2)" />
<use xlink:href="#f0_2b" transform="matrix(12,0,0,12,79.6,495.2)" />
<use xlink:href="#f0_2a" transform="matrix(12,0,0,12,89.1,495.2)" />
<use xlink:href="#f0_2f" transform="matrix(12,0,0,12,97.9,495.2)" />
<use xlink:href="#f0_25" transform="matrix(12,0,0,12,105.2,495.2)" />
<use xlink:href="#f0_2f" transform="matrix(12,0,0,12,110,495.2)" />
<use xlink:href="#f0_2g" transform="matrix(12,0,0,12,116.9,495.2)" />
<use xlink:href="#f0_2f" transform="matrix(12,0,0,12,122.4,495.2)" />
<use xlink:href="#f0_2b" transform="matrix(12,0,0,12,134.5,495.2)" />
<use xlink:href="#f0_22" transform="matrix(12,0,0,12,144,495.2)" />
<use xlink:href="#f0_1x" transform="matrix(12,0,0,12,155,495.2)" />
<use xlink:href="#f0_2a" transform="matrix(12,0,0,12,168.5,495.2)" />
<use xlink:href="#f0_21" transform="matrix(12,0,0,12,177.3,495.2)" />
<use xlink:href="#f0_2g" transform="matrix(12,0,0,12,185.4,495.2)" />
<use xlink:href="#f0_2j" transform="matrix(12,0,0,12,190.9,495.2)" />
<use xlink:href="#f0_2b" transform="matrix(12,0,0,12,203.7,495.2)" />
<use xlink:href="#f0_2e" transform="matrix(12,0,0,12,213.2,495.2)" />
<use xlink:href="#f0_27" transform="matrix(12,0,0,12,219.4,495.2)" />
<use xlink:href="#f0_2b" transform="matrix(12,0,0,12,233.4,495.2)" />
<use xlink:href="#f0_22" transform="matrix(12,0,0,12,242.9,495.2)" />
<use xlink:href="#f0_2c" transform="matrix(12,0,0,12,253.9,495.2)" />
<use xlink:href="#f0_2e" transform="matrix(12,0,0,12,263,495.2)" />
<use xlink:href="#f0_2b" transform="matrix(12,0,0,12,268.9,495.2)" />
<use xlink:href="#f0_2g" transform="matrix(12,0,0,12,278.1,495.2)" />
<use xlink:href="#f0_21" transform="matrix(12,0,0,12,283.5,495.2)" />
<use xlink:href="#f0_25" transform="matrix(12,0,0,12,291.6,495.2)" />
<use xlink:href="#f0_2a" transform="matrix(12,0,0,12,296.4,495.2)" />
<use xlink:href="#f0_1x" transform="matrix(12,0,0,12,305.2,495.2)" />
<use xlink:href="#f0_1z" transform="matrix(12,0,0,12,313.2,495.2)" />
<use xlink:href="#f0_21" transform="matrix(12,0,0,12,321.3,495.2)" />
<use xlink:href="#f0_2b" transform="matrix(12,0,0,12,329.4,495.2)" />
<use xlink:href="#f0_2h" transform="matrix(12,0,0,12,338.9,495.2)" />
<use xlink:href="#f0_2f" transform="matrix(12,0,0,12,348.1,495.2)" />
<use xlink:href="#f0_22" transform="matrix(12,0,0,12,360.5,495.2)" />
<use xlink:href="#f0_25" transform="matrix(12,0,0,12,366.4,495.2)" />
<use xlink:href="#f0_28" transform="matrix(12,0,0,12,371.5,495.2)" />
<use xlink:href="#f0_1x" transform="matrix(12,0,0,12,376.3,495.2)" />
<use xlink:href="#f0_29" transform="matrix(12,0,0,12,384.7,495.2)" />
<use xlink:href="#f0_21" transform="matrix(12,0,0,12,398.6,495.2)" />
<use xlink:href="#f0_2a" transform="matrix(12,0,0,12,407,495.2)" />
<use xlink:href="#f0_2g" transform="matrix(12,0,0,12,415.8,495.2)" />
<use xlink:href="#f0_2f" transform="matrix(12,0,0,12,421.3,495.2)" />
<use xlink:href="#f0_25" transform="matrix(12,0,0,12,434.1,495.2)" />
<use xlink:href="#f0_2a" transform="matrix(12,0,0,12,438.9,495.2)" />
<use xlink:href="#f0_2g" transform="matrix(12,0,0,12,453.2,495.2)" />
<use xlink:href="#f0_24" transform="matrix(12,0,0,12,458.6,495.2)" />
<use xlink:href="#f0_21" transform="matrix(12,0,0,12,467.4,495.2)" />
<use xlink:href="#f0_1z" transform="matrix(12,0,0,12,481,495.2)" />
<use xlink:href="#f0_2l" transform="matrix(12,0,0,12,489.1,495.2)" />
<use xlink:href="#f0_2g" transform="matrix(12,0,0,12,497.5,495.2)" />
<use xlink:href="#f0_2b" transform="matrix(12,0,0,12,503,495.2)" />
<use xlink:href="#f0_2c" transform="matrix(12,0,0,12,512.5,495.2)" />
<use xlink:href="#f0_28" transform="matrix(12,0,0,12,521.7,495.2)" />
<use xlink:href="#f0_1x" transform="matrix(12,0,0,12,526.1,495.2)" />
<use xlink:href="#f0_2f" transform="matrix(12,0,0,12,534.5,495.2)" />
<use xlink:href="#f0_29" transform="matrix(12,0,0,12,541.8,495.2)" />
<use xlink:href="#f0_i" transform="matrix(12,0,0,12,555.4,495.2)" />
<use xlink:href="#f0_19" transform="matrix(12,0,0,12,565.6,495.2)" />
<use xlink:href="#f0_2g" transform="matrix(12,0,0,12,571.5,495.2)" />
<use xlink:href="#f0_2c" transform="matrix(12,0,0,12,582.1,495.2)" />
<use xlink:href="#f0_2e" transform="matrix(12,0,0,12,591.2,495.2)" />
<use xlink:href="#f0_2b" transform="matrix(12,0,0,12,597.1,495.2)" />
<use xlink:href="#f0_2i" transform="matrix(12,0,0,12,606.6,495.2)" />
<use xlink:href="#f0_25" transform="matrix(12,0,0,12,615.8,495.2)" />
<use xlink:href="#f0_20" transform="matrix(12,0,0,12,620.2,495.2)" />
<use xlink:href="#f0_21" transform="matrix(12,0,0,12,629.3,495.2)" />
<use xlink:href="#f0_2f" transform="matrix(12,0,0,12,637.8,495.2)" />
<use xlink:href="#f0_29" transform="matrix(12,0,0,12,650.6,495.2)" />
<use xlink:href="#f0_21" transform="matrix(12,0,0,12,664.1,495.2)" />
<use xlink:href="#f0_1z" transform="matrix(12,0,0,12,672.2,495.2)" />
<use xlink:href="#f0_24" transform="matrix(12,0,0,12,680.6,495.2)" />
<use xlink:href="#f0_1x" transform="matrix(12,0,0,12,689.4,495.2)" />
<use xlink:href="#f0_2a" transform="matrix(12,0,0,12,697.8,495.2)" />
<use xlink:href="#f0_25" transform="matrix(12,0,0,12,707,495.2)" />
<use xlink:href="#f0_1z" transform="matrix(12,0,0,12,711.8,495.2)" />
<use xlink:href="#f0_1x" transform="matrix(12,0,0,12,719.8,495.2)" />
<use xlink:href="#f0_28" transform="matrix(12,0,0,12,728.3,495.2)" />
<use xlink:href="#f0_2f" transform="matrix(12,0,0,12,739.5,495.2)" />
<use xlink:href="#f0_2h" transform="matrix(12,0,0,12,746.4,495.2)" />
<use xlink:href="#f0_2c" transform="matrix(12,0,0,12,755.6,495.2)" />
<use xlink:href="#f0_2c" transform="matrix(12,0,0,12,764.8,495.2)" />
<use xlink:href="#f0_2b" transform="matrix(12,0,0,12,773.9,495.2)" />
<use xlink:href="#f0_2e" transform="matrix(12,0,0,12,783.4,495.2)" />
<use xlink:href="#f0_2g" transform="matrix(12,0,0,12,789.3,495.2)" />
<use xlink:href="#f0_1x" transform="matrix(12,0,0,12,799.6,495.2)" />
<use xlink:href="#f0_2a" transform="matrix(12,0,0,12,807.6,495.2)" />
<use xlink:href="#f0_20" transform="matrix(12,0,0,12,816.4,495.2)" />
<use xlink:href="#f0_1x" transform="matrix(12,0,0,12,831.1,495.2)" />
<use xlink:href="#f0_25" transform="matrix(12,0,0,12,839.5,495.2)" />
<use xlink:href="#f0_20" transform="matrix(12,0,0,12,843.9,495.2)" />
<use xlink:href="#f0_2f" transform="matrix(12,0,0,12,853.4,495.2)" />
<use xlink:href="#f0_25" transform="matrix(12,0,0,12,866.2,495.2)" />
<use xlink:href="#f0_2a" transform="matrix(12,0,0,12,871,495.2)" />
<use xlink:href="#f0_1z" transform="matrix(12,0,0,12,55,527.1)" />
<use xlink:href="#f0_21" transform="matrix(12,0,0,12,63.1,527.1)" />
<use xlink:href="#f0_28" transform="matrix(12,0,0,12,71.5,527.1)" />
<use xlink:href="#f0_28" transform="matrix(12,0,0,12,76.3,527.1)" />
<use xlink:href="#f0_29" transform="matrix(12,0,0,12,86.2,527.1)" />
<use xlink:href="#f0_2b" transform="matrix(12,0,0,12,99.7,527.1)" />
<use xlink:href="#f0_2g" transform="matrix(12,0,0,12,109.2,527.1)" />
<use xlink:href="#f0_25" transform="matrix(12,0,0,12,114.7,527.1)" />
<use xlink:href="#f0_28" transform="matrix(12,0,0,12,119.5,527.1)" />
<use xlink:href="#f0_25" transform="matrix(12,0,0,12,124.6,527.1)" />
<use xlink:href="#f0_2g" transform="matrix(12,0,0,12,129,527.1)" />
<use xlink:href="#f0_2l" transform="matrix(12,0,0,12,134.9,527.1)" />
<use xlink:href="#f0_1x" transform="matrix(12,0,0,12,148.4,527.1)" />
<use xlink:href="#f0_2a" transform="matrix(12,0,0,12,156.8,527.1)" />
<use xlink:href="#f0_20" transform="matrix(12,0,0,12,165.6,527.1)" />
<use xlink:href="#f0_29" transform="matrix(12,0,0,12,179.9,527.1)" />
<use xlink:href="#f0_1x" transform="matrix(12,0,0,12,193.5,527.1)" />
<use xlink:href="#f0_25" transform="matrix(12,0,0,12,201.9,527.1)" />
<use xlink:href="#f0_2a" transform="matrix(12,0,0,12,206.7,527.1)" />
<use xlink:href="#f0_2g" transform="matrix(12,0,0,12,215.5,527.1)" />
<use xlink:href="#f0_21" transform="matrix(12,0,0,12,221,527.1)" />
<use xlink:href="#f0_2a" transform="matrix(12,0,0,12,229.4,527.1)" />
<use xlink:href="#f0_1x" transform="matrix(12,0,0,12,238.2,527.1)" />
<use xlink:href="#f0_2a" transform="matrix(12,0,0,12,246.6,527.1)" />
<use xlink:href="#f0_1z" transform="matrix(12,0,0,12,255.7,527.1)" />
<use xlink:href="#f0_21" transform="matrix(12,0,0,12,263.8,527.1)" />
<use xlink:href="#f0_2b" transform="matrix(12,0,0,12,276.6,527.1)" />
<use xlink:href="#f0_22" transform="matrix(12,0,0,12,286.1,527.1)" />
<use xlink:href="#f0_1z" transform="matrix(12,0,0,12,296.4,527.1)" />
<use xlink:href="#f0_21" transform="matrix(12,0,0,12,304.5,527.1)" />
<use xlink:href="#f0_28" transform="matrix(12,0,0,12,312.9,527.1)" />
<use xlink:href="#f0_28" transform="matrix(12,0,0,12,318,527.1)" />
<use xlink:href="#f0_2f" transform="matrix(12,0,0,12,327.5,527.1)" />
<use xlink:href="#f0_24" transform="matrix(12,0,0,12,334.5,527.1)" />
<use xlink:href="#f0_1x" transform="matrix(12,0,0,12,343.7,527.1)" />
<use xlink:href="#f0_2c" transform="matrix(12,0,0,12,351.7,527.1)" />
<use xlink:href="#f0_21" transform="matrix(12,0,0,12,360.9,527.1)" />
<use xlink:href="#f0_i" transform="matrix(12,0,0,12,369,527.1)" />
<use xlink:href="#f1_13" transform="matrix(12,0,0,12,55,570.7)" />
<use xlink:href="#f1_25" transform="matrix(12,0,0,12,68.3,570.7)" />
<use xlink:href="#f1_28" transform="matrix(12,0,0,12,73.4,570.7)" />
<use xlink:href="#f1_25" transform="matrix(12,0,0,12,78.1,570.7)" />
<use xlink:href="#f1_1x" transform="matrix(12,0,0,12,83.2,570.7)" />
<use xlink:href="#f1_1x" transform="matrix(12,0,0,12,97.2,570.7)" />
<use xlink:href="#f1_2a" transform="matrix(12,0,0,12,106.4,570.7)" />
<use xlink:href="#f1_20" transform="matrix(12,0,0,12,116.6,570.7)" />
<use xlink:href="#f1_16" transform="matrix(12,0,0,12,131.6,570.7)" />
<use xlink:href="#f1_28" transform="matrix(12,0,0,12,142.6,570.7)" />
<use xlink:href="#f1_1x" transform="matrix(12,0,0,12,147.4,570.7)" />
<use xlink:href="#f1_23" transform="matrix(12,0,0,12,156.5,570.7)" />
<use xlink:href="#f1_21" transform="matrix(12,0,0,12,165.7,570.7)" />
<use xlink:href="#f1_28" transform="matrix(12,0,0,12,174.1,570.7)" />
<use xlink:href="#f1_28" transform="matrix(12,0,0,12,179.2,570.7)" />
<use xlink:href="#f1_1x" transform="matrix(12,0,0,12,184,570.7)" />
<use xlink:href="#f1_u" transform="matrix(12,0,0,12,193.2,570.7)" />
<use xlink:href="#f0_18" transform="matrix(12,0,0,12,55,614.7)" />
<use xlink:href="#f0_1x" transform="matrix(12,0,0,12,68.3,614.7)" />
<use xlink:href="#f0_25" transform="matrix(12,0,0,12,76.7,614.7)" />
<use xlink:href="#f0_2e" transform="matrix(12,0,0,12,81.1,614.7)" />
<use xlink:href="#f0_2l" transform="matrix(12,0,0,12,87.6,614.7)" />
<use xlink:href="#f0_2b" transform="matrix(12,0,0,12,101.9,614.7)" />
<use xlink:href="#f0_2h" transform="matrix(12,0,0,12,111.4,614.7)" />
<use xlink:href="#f0_2g" transform="matrix(12,0,0,12,120.6,614.7)" />
<use xlink:href="#f0_23" transform="matrix(12,0,0,12,126.1,614.7)" />
<use xlink:href="#f0_2e" transform="matrix(12,0,0,12,134.9,614.7)" />
<use xlink:href="#f0_2b" transform="matrix(12,0,0,12,140.7,614.7)" />
<use xlink:href="#f0_2j" transform="matrix(12,0,0,12,150.3,614.7)" />
<use xlink:href="#f0_2g" transform="matrix(12,0,0,12,163.1,614.7)" />
<use xlink:href="#f0_24" transform="matrix(12,0,0,12,168.6,614.7)" />
<use xlink:href="#f0_2f" transform="matrix(12,0,0,12,177.4,614.7)" />
<use xlink:href="#f0_2g" transform="matrix(12,0,0,12,189.8,614.7)" />
<use xlink:href="#f0_24" transform="matrix(12,0,0,12,195.3,614.7)" />
<use xlink:href="#f0_1x" transform="matrix(12,0,0,12,204.1,614.7)" />
<use xlink:href="#f0_2g" transform="matrix(12,0,0,12,212.2,614.7)" />
<use xlink:href="#f0_22" transform="matrix(12,0,0,12,223.1,614.7)" />
<use xlink:href="#f0_2h" transform="matrix(12,0,0,12,228.6,614.7)" />
<use xlink:href="#f0_2a" transform="matrix(12,0,0,12,238.1,614.7)" />
<use xlink:href="#f0_1z" transform="matrix(12,0,0,12,246.9,614.7)" />
<use xlink:href="#f0_2g" transform="matrix(12,0,0,12,255,614.7)" />
<use xlink:href="#f0_25" transform="matrix(12,0,0,12,260.9,614.7)" />
<use xlink:href="#f0_2b" transform="matrix(12,0,0,12,265.3,614.7)" />
<use xlink:href="#f0_2a" transform="matrix(12,0,0,12,274.8,614.7)" />
<use xlink:href="#f0_25" transform="matrix(12,0,0,12,289.4,614.7)" />
<use xlink:href="#f0_2a" transform="matrix(12,0,0,12,294.2,614.7)" />
<use xlink:href="#f0_28" transform="matrix(12,0,0,12,308.8,614.7)" />
<use xlink:href="#f0_2b" transform="matrix(12,0,0,12,313.2,614.7)" />
<use xlink:href="#f0_1z" transform="matrix(12,0,0,12,322.8,614.7)" />
<use xlink:href="#f0_2b" transform="matrix(12,0,0,12,330.8,614.7)" />
<use xlink:href="#f0_29" transform="matrix(12,0,0,12,340.7,614.7)" />
<use xlink:href="#f0_2b" transform="matrix(12,0,0,12,354.3,614.7)" />
<use xlink:href="#f0_2g" transform="matrix(12,0,0,12,363.8,614.7)" />
<use xlink:href="#f0_25" transform="matrix(12,0,0,12,369.3,614.7)" />
<use xlink:href="#f0_2b" transform="matrix(12,0,0,12,373.7,614.7)" />
<use xlink:href="#f0_2a" transform="matrix(12,0,0,12,383.2,614.7)" />
<use xlink:href="#f0_i" transform="matrix(12,0,0,12,392,614.7)" />
<use xlink:href="#f0_13" transform="matrix(12,0,0,12,402.2,614.7)" />
<use xlink:href="#f0_25" transform="matrix(12,0,0,12,414.7,614.7)" />
<use xlink:href="#f0_28" transform="matrix(12,0,0,12,419.4,614.7)" />
<use xlink:href="#f0_25" transform="matrix(12,0,0,12,424.5,614.7)" />
<use xlink:href="#f0_1x" transform="matrix(12,0,0,12,429.7,614.7)" />
<use xlink:href="#f0_1x" transform="matrix(12,0,0,12,443.2,614.7)" />
<use xlink:href="#f0_2e" transform="matrix(12,0,0,12,451.3,614.7)" />
<use xlink:href="#f0_21" transform="matrix(12,0,0,12,457.5,614.7)" />
<use xlink:href="#f0_2f" transform="matrix(12,0,0,12,471.1,614.7)" />
<use xlink:href="#f0_24" transform="matrix(12,0,0,12,478,614.7)" />
<use xlink:href="#f0_2b" transform="matrix(12,0,0,12,486.8,614.7)" />
<use xlink:href="#f0_2e" transform="matrix(12,0,0,12,496.3,614.7)" />
<use xlink:href="#f0_2g" transform="matrix(12,0,0,12,502.6,614.7)" />
<use xlink:href="#f0_1x" transform="matrix(12,0,0,12,513.5,614.7)" />
<use xlink:href="#f0_2a" transform="matrix(12,0,0,12,521.6,614.7)" />
<use xlink:href="#f0_20" transform="matrix(12,0,0,12,530.4,614.7)" />
<use xlink:href="#f0_22" transform="matrix(12,0,0,12,545,614.7)" />
<use xlink:href="#f0_28" transform="matrix(12,0,0,12,550.9,614.7)" />
<use xlink:href="#f0_1x" transform="matrix(12,0,0,12,555.7,614.7)" />
<use xlink:href="#f0_23" transform="matrix(12,0,0,12,563.7,614.7)" />
<use xlink:href="#f0_21" transform="matrix(12,0,0,12,572.9,614.7)" />
<use xlink:href="#f0_28" transform="matrix(12,0,0,12,581.3,614.7)" />
<use xlink:href="#f0_28" transform="matrix(12,0,0,12,586.4,614.7)" />
<use xlink:href="#f0_1x" transform="matrix(12,0,0,12,591.2,614.7)" />
<use xlink:href="#f0_1x" transform="matrix(12,0,0,12,604.8,614.7)" />
<use xlink:href="#f0_2e" transform="matrix(12,0,0,12,612.8,614.7)" />
<use xlink:href="#f0_21" transform="matrix(12,0,0,12,619,614.7)" />
<use xlink:href="#f0_2e" transform="matrix(12,0,0,12,632.6,614.7)" />
<use xlink:href="#f0_21" transform="matrix(12,0,0,12,638.8,614.7)" />
<use xlink:href="#f0_28" transform="matrix(12,0,0,12,647.2,614.7)" />
<use xlink:href="#f0_1x" transform="matrix(12,0,0,12,652,614.7)" />
<use xlink:href="#f0_2g" transform="matrix(12,0,0,12,660.1,614.7)" />
<use xlink:href="#f0_25" transform="matrix(12,0,0,12,665.9,614.7)" />
<use xlink:href="#f0_2i" transform="matrix(12,0,0,12,670.7,614.7)" />
<use xlink:href="#f0_21" transform="matrix(12,0,0,12,679.5,614.7)" />
<use xlink:href="#f0_28" transform="matrix(12,0,0,12,687.9,614.7)" />
<use xlink:href="#f0_2l" transform="matrix(12,0,0,12,693,614.7)" />
<use xlink:href="#f0_28" transform="matrix(12,0,0,12,707.7,614.7)" />
<use xlink:href="#f0_2b" transform="matrix(12,0,0,12,712.1,614.7)" />
<use xlink:href="#f0_2a" transform="matrix(12,0,0,12,721.9,614.7)" />
<use xlink:href="#f0_23" transform="matrix(12,0,0,12,730.7,614.7)" />
<use xlink:href="#f0_i" transform="matrix(12,0,0,12,739.9,614.7)" />
<use xlink:href="#f0_1k" transform="matrix(12,0,0,12,750.1,614.7)" />
<use xlink:href="#f0_24" transform="matrix(12,0,0,12,761.5,614.7)" />
<use xlink:href="#f0_21" transform="matrix(12,0,0,12,770.3,614.7)" />
<use xlink:href="#f0_2l" transform="matrix(12,0,0,12,778.7,614.7)" />
<use xlink:href="#f0_1x" transform="matrix(12,0,0,12,793,614.7)" />
<use xlink:href="#f0_2e" transform="matrix(12,0,0,12,801.4,614.7)" />
<use xlink:href="#f0_21" transform="matrix(12,0,0,12,807.6,614.7)" />
<use xlink:href="#f0_1z" transform="matrix(12,0,0,12,821.2,614.7)" />
<use xlink:href="#f0_2b" transform="matrix(12,0,0,12,829.2,614.7)" />
<use xlink:href="#f0_2i" transform="matrix(12,0,0,12,838.8,614.7)" />
<use xlink:href="#f0_21" transform="matrix(12,0,0,12,847.6,614.7)" />
<use xlink:href="#f0_2e" transform="matrix(12,0,0,12,855.6,614.7)" />
<use xlink:href="#f0_21" transform="matrix(12,0,0,12,861.8,614.7)" />
<use xlink:href="#f0_20" transform="matrix(12,0,0,12,869.9,614.7)" />
<use xlink:href="#f0_1y" transform="matrix(12,0,0,12,55,646.3)" />
<use xlink:href="#f0_2l" transform="matrix(12,0,0,12,64.2,646.3)" />
<use xlink:href="#f0_2c" transform="matrix(12,0,0,12,77.8,646.3)" />
<use xlink:href="#f0_28" transform="matrix(12,0,0,12,87.3,646.3)" />
<use xlink:href="#f0_1x" transform="matrix(12,0,0,12,92,646.3)" />
<use xlink:href="#f0_2f" transform="matrix(12,0,0,12,100.4,646.3)" />
<use xlink:href="#f0_29" transform="matrix(12,0,0,12,107.8,646.3)" />
<use xlink:href="#f0_1x" transform="matrix(12,0,0,12,121.7,646.3)" />
<use xlink:href="#f0_29" transform="matrix(12,0,0,12,135.2,646.3)" />
<use xlink:href="#f0_21" transform="matrix(12,0,0,12,149.2,646.3)" />
<use xlink:href="#f0_29" transform="matrix(12,0,0,12,157.6,646.3)" />
<use xlink:href="#f0_1y" transform="matrix(12,0,0,12,171.5,646.3)" />
<use xlink:href="#f0_2e" transform="matrix(12,0,0,12,180.3,646.3)" />
<use xlink:href="#f0_1x" transform="matrix(12,0,0,12,186.5,646.3)" />
<use xlink:href="#f0_2a" transform="matrix(12,0,0,12,195,646.3)" />
<use xlink:href="#f0_21" transform="matrix(12,0,0,12,203.8,646.3)" />
<use xlink:href="#f0_i" transform="matrix(12,0,0,12,211.8,646.3)" />
<use xlink:href="#f0_1k" transform="matrix(12,0,0,12,221.7,646.3)" />
<use xlink:href="#f0_24" transform="matrix(12,0,0,12,233,646.3)" />
<use xlink:href="#f0_21" transform="matrix(12,0,0,12,241.8,646.3)" />
<use xlink:href="#f0_2l" transform="matrix(12,0,0,12,250.3,646.3)" />
<use xlink:href="#f0_2c" transform="matrix(12,0,0,12,264.2,646.3)" />
<use xlink:href="#f0_2b" transform="matrix(12,0,0,12,273.3,646.3)" />
<use xlink:href="#f0_2f" transform="matrix(12,0,0,12,282.8,646.3)" />
<use xlink:href="#f0_2f" transform="matrix(12,0,0,12,289.8,646.3)" />
<use xlink:href="#f0_21" transform="matrix(12,0,0,12,296.8,646.3)" />
<use xlink:href="#f0_2f" transform="matrix(12,0,0,12,304.8,646.3)" />
<use xlink:href="#f0_2f" transform="matrix(12,0,0,12,312.2,646.3)" />
<use xlink:href="#f0_1x" transform="matrix(12,0,0,12,324.2,646.3)" />
<use xlink:href="#f0_1z" transform="matrix(12,0,0,12,337.4,646.3)" />
<use xlink:href="#f0_2b" transform="matrix(12,0,0,12,345.5,646.3)" />
<use xlink:href="#f0_2e" transform="matrix(12,0,0,12,354.7,646.3)" />
<use xlink:href="#f0_21" transform="matrix(12,0,0,12,360.9,646.3)" />
<use xlink:href="#f0_29" transform="matrix(12,0,0,12,374.1,646.3)" />
<use xlink:href="#f0_1x" transform="matrix(12,0,0,12,387.6,646.3)" />
<use xlink:href="#f0_20" transform="matrix(12,0,0,12,395.7,646.3)" />
<use xlink:href="#f0_21" transform="matrix(12,0,0,12,404.9,646.3)" />
<use xlink:href="#f0_2h" transform="matrix(12,0,0,12,418,646.3)" />
<use xlink:href="#f0_2c" transform="matrix(12,0,0,12,427.6,646.3)" />
<use xlink:href="#f0_2b" transform="matrix(12,0,0,12,441.5,646.3)" />
<use xlink:href="#f0_22" transform="matrix(12,0,0,12,451,646.3)" />
<use xlink:href="#f0_2a" transform="matrix(12,0,0,12,461.6,646.3)" />
<use xlink:href="#f0_2h" transform="matrix(12,0,0,12,470.4,646.3)" />
<use xlink:href="#f0_29" transform="matrix(12,0,0,12,479.9,646.3)" />
<use xlink:href="#f0_21" transform="matrix(12,0,0,12,493.8,646.3)" />
<use xlink:href="#f0_2e" transform="matrix(12,0,0,12,501.9,646.3)" />
<use xlink:href="#f0_2b" transform="matrix(12,0,0,12,508.1,646.3)" />
<use xlink:href="#f0_2h" transform="matrix(12,0,0,12,517.6,646.3)" />
<use xlink:href="#f0_2f" transform="matrix(12,0,0,12,527.5,646.3)" />
<use xlink:href="#f0_29" transform="matrix(12,0,0,12,539.9,646.3)" />
<use xlink:href="#f0_25" transform="matrix(12,0,0,12,553.8,646.3)" />
<use xlink:href="#f0_1z" transform="matrix(12,0,0,12,558.6,646.3)" />
<use xlink:href="#f0_2e" transform="matrix(12,0,0,12,566.7,646.3)" />
<use xlink:href="#f0_2b" transform="matrix(12,0,0,12,572.9,646.3)" />
<use xlink:href="#f0_2g" transform="matrix(12,0,0,12,582.4,646.3)" />
<use xlink:href="#f0_2h" transform="matrix(12,0,0,12,587.9,646.3)" />
<use xlink:href="#f0_1y" transform="matrix(12,0,0,12,597,646.3)" />
<use xlink:href="#f0_2h" transform="matrix(12,0,0,12,605.8,646.3)" />
<use xlink:href="#f0_28" transform="matrix(12,0,0,12,615,646.3)" />
<use xlink:href="#f0_21" transform="matrix(12,0,0,12,619.8,646.3)" />
<use xlink:href="#f0_2f" transform="matrix(12,0,0,12,627.8,646.3)" />
<use xlink:href="#f0_2e" transform="matrix(12,0,0,12,639.9,646.3)" />
<use xlink:href="#f0_2h" transform="matrix(12,0,0,12,646.1,646.3)" />
<use xlink:href="#f0_2a" transform="matrix(12,0,0,12,655.3,646.3)" />
<use xlink:href="#f0_2a" transform="matrix(12,0,0,12,664.5,646.3)" />
<use xlink:href="#f0_25" transform="matrix(12,0,0,12,673.6,646.3)" />
<use xlink:href="#f0_2a" transform="matrix(12,0,0,12,678.4,646.3)" />
<use xlink:href="#f0_23" transform="matrix(12,0,0,12,687.6,646.3)" />
<use xlink:href="#f0_2c" transform="matrix(12,0,0,12,701.9,646.3)" />
<use xlink:href="#f0_1x" transform="matrix(12,0,0,12,711,646.3)" />
<use xlink:href="#f0_2e" transform="matrix(12,0,0,12,719.1,646.3)" />
<use xlink:href="#f0_1x" transform="matrix(12,0,0,12,725.3,646.3)" />
<use xlink:href="#f0_28" transform="matrix(12,0,0,12,733.7,646.3)" />
<use xlink:href="#f0_28" transform="matrix(12,0,0,12,738.5,646.3)" />
<use xlink:href="#f0_21" transform="matrix(12,0,0,12,743.3,646.3)" />
<use xlink:href="#f0_28" transform="matrix(12,0,0,12,751.7,646.3)" />
<use xlink:href="#f0_2g" transform="matrix(12,0,0,12,761.5,646.3)" />
<use xlink:href="#f0_2b" transform="matrix(12,0,0,12,767,646.3)" />
<use xlink:href="#f0_2g" transform="matrix(12,0,0,12,780.9,646.3)" />
<use xlink:href="#f0_24" transform="matrix(12,0,0,12,786.4,646.3)" />
<use xlink:href="#f0_21" transform="matrix(12,0,0,12,795.2,646.3)" />
<use xlink:href="#f0_28" transform="matrix(12,0,0,12,808.8,646.3)" />
<use xlink:href="#f0_2b" transform="matrix(12,0,0,12,813.2,646.3)" />
<use xlink:href="#f0_2a" transform="matrix(12,0,0,12,822.7,646.3)" />
<use xlink:href="#f0_23" transform="matrix(12,0,0,12,831.5,646.3)" />
<use xlink:href="#f0_1x" transform="matrix(12,0,0,12,845.8,646.3)" />
<use xlink:href="#f0_2k" transform="matrix(12,0,0,12,853.8,646.3)" />
<use xlink:href="#f0_25" transform="matrix(12,0,0,12,863,646.3)" />
<use xlink:href="#f0_2f" transform="matrix(12,0,0,12,867.8,646.3)" />
<use xlink:href="#f0_i" transform="matrix(12,0,0,12,874.7,646.3)" />
<use xlink:href="#f0_1k" transform="matrix(12,0,0,12,55,677.8)" />
<use xlink:href="#f0_24" transform="matrix(12,0,0,12,66.4,677.8)" />
<use xlink:href="#f0_25" transform="matrix(12,0,0,12,75.6,677.8)" />
<use xlink:href="#f0_2f" transform="matrix(12,0,0,12,80.3,677.8)" />
<use xlink:href="#f0_1z" transform="matrix(12,0,0,12,92.4,677.8)" />
<use xlink:href="#f0_2b" transform="matrix(12,0,0,12,100.5,677.8)" />
<use xlink:href="#f0_2e" transform="matrix(12,0,0,12,110,677.8)" />
<use xlink:href="#f0_21" transform="matrix(12,0,0,12,116.2,677.8)" />
<use xlink:href="#f0_25" transform="matrix(12,0,0,12,129.4,677.8)" />
<use xlink:href="#f0_2f" transform="matrix(12,0,0,12,133.8,677.8)" />
<use xlink:href="#f0_1z" transform="matrix(12,0,0,12,145.9,677.8)" />
<use xlink:href="#f0_1x" transform="matrix(12,0,0,12,153.9,677.8)" />
<use xlink:href="#f0_28" transform="matrix(12,0,0,12,162.3,677.8)" />
<use xlink:href="#f0_28" transform="matrix(12,0,0,12,167.1,677.8)" />
<use xlink:href="#f0_21" transform="matrix(12,0,0,12,171.9,677.8)" />
<use xlink:href="#f0_20" transform="matrix(12,0,0,12,180.3,677.8)" />
<use xlink:href="#f0_1x" transform="matrix(12,0,0,12,194.6,677.8)" />
<use xlink:href="#f0_2f" transform="matrix(12,0,0,12,202.6,677.8)" />
<use xlink:href="#f0_1x" transform="matrix(12,0,0,12,214.7,677.8)" />
<use xlink:href="#f0_2k" transform="matrix(12,0,0,12,222.8,677.8)" />
<use xlink:href="#f0_2b" transform="matrix(12,0,0,12,231.6,677.8)" />
<use xlink:href="#f0_2a" transform="matrix(12,0,0,12,241.1,677.8)" />
<use xlink:href="#f0_21" transform="matrix(12,0,0,12,249.9,677.8)" />
<use xlink:href="#f0_29" transform="matrix(12,0,0,12,258.3,677.8)" />
<use xlink:href="#f0_21" transform="matrix(12,0,0,12,272.2,677.8)" />
<use xlink:href="#f0_i" transform="matrix(12,0,0,12,280.3,677.8)" />
<use xlink:href="#f0_19" transform="matrix(12,0,0,12,290.2,677.8)" />
<use xlink:href="#f0_2g" transform="matrix(12,0,0,12,296.4,677.8)" />
<use xlink:href="#f0_2f" transform="matrix(12,0,0,12,306.6,677.8)" />
<use xlink:href="#f0_24" transform="matrix(12,0,0,12,313.6,677.8)" />
<use xlink:href="#f0_2b" transform="matrix(12,0,0,12,322.4,677.8)" />
<use xlink:href="#f0_2j" transform="matrix(12,0,0,12,331.9,677.8)" />
<use xlink:href="#f0_2f" transform="matrix(12,0,0,12,345.2,677.8)" />
<use xlink:href="#f0_1x" transform="matrix(12,0,0,12,357.2,677.8)" />
<use xlink:href="#f0_t" transform="matrix(12,0,0,12,370.4,677.8)" />
<use xlink:href="#f0_f" transform="matrix(12,0,0,12,379.6,677.8)" />
<use xlink:href="#f0_m" transform="matrix(12,0,0,12,390.3,677.8)" />
<use xlink:href="#f0_1x" transform="matrix(12,0,0,12,404.6,677.8)" />
<use xlink:href="#f0_2e" transform="matrix(12,0,0,12,412.3,677.8)" />
<use xlink:href="#f0_2e" transform="matrix(12,0,0,12,418.5,677.8)" />
<use xlink:href="#f0_1x" transform="matrix(12,0,0,12,424.4,677.8)" />
<use xlink:href="#f0_2a" transform="matrix(12,0,0,12,432.4,677.8)" />
<use xlink:href="#f0_23" transform="matrix(12,0,0,12,441.2,677.8)" />
<use xlink:href="#f0_21" transform="matrix(12,0,0,12,450.4,677.8)" />
<use xlink:href="#f0_29" transform="matrix(12,0,0,12,458.8,677.8)" />
<use xlink:href="#f0_21" transform="matrix(12,0,0,12,472.7,677.8)" />
<use xlink:href="#f0_2a" transform="matrix(12,0,0,12,481.2,677.8)" />
<use xlink:href="#f0_2g" transform="matrix(12,0,0,12,490,677.8)" />
<use xlink:href="#f0_g" transform="matrix(12,0,0,12,495.4,677.8)" />
<use xlink:href="#f0_2j" transform="matrix(12,0,0,12,505.3,677.8)" />
<use xlink:href="#f0_24" transform="matrix(12,0,0,12,518.5,677.8)" />
<use xlink:href="#f0_21" transform="matrix(12,0,0,12,527.3,677.8)" />
<use xlink:href="#f0_2e" transform="matrix(12,0,0,12,535.4,677.8)" />
<use xlink:href="#f0_21" transform="matrix(12,0,0,12,541.6,677.8)" />
<use xlink:href="#f0_t" transform="matrix(12,0,0,12,554.8,677.8)" />
<use xlink:href="#f0_25" transform="matrix(12,0,0,12,569.1,677.8)" />
<use xlink:href="#f0_2f" transform="matrix(12,0,0,12,573.5,677.8)" />
<use xlink:href="#f0_2g" transform="matrix(12,0,0,12,585.5,677.8)" />
<use xlink:href="#f0_24" transform="matrix(12,0,0,12,591,677.8)" />
<use xlink:href="#f0_21" transform="matrix(12,0,0,12,599.8,677.8)" />
<use xlink:href="#f0_2a" transform="matrix(12,0,0,12,613,677.8)" />
<use xlink:href="#f0_2h" transform="matrix(12,0,0,12,621.8,677.8)" />
<use xlink:href="#f0_29" transform="matrix(12,0,0,12,631.3,677.8)" />
<use xlink:href="#f0_1y" transform="matrix(12,0,0,12,645.2,677.8)" />
<use xlink:href="#f0_21" transform="matrix(12,0,0,12,654.4,677.8)" />
<use xlink:href="#f0_2e" transform="matrix(12,0,0,12,662.5,677.8)" />
<use xlink:href="#f0_2b" transform="matrix(12,0,0,12,673.8,677.8)" />
<use xlink:href="#f0_22" transform="matrix(12,0,0,12,683.3,677.8)" />
<use xlink:href="#f0_2c" transform="matrix(12,0,0,12,693.9,677.8)" />
<use xlink:href="#f0_1x" transform="matrix(12,0,0,12,703.1,677.8)" />
<use xlink:href="#f0_25" transform="matrix(12,0,0,12,711.5,677.8)" />
<use xlink:href="#f0_2e" transform="matrix(12,0,0,12,715.9,677.8)" />
<use xlink:href="#f0_2f" transform="matrix(12,0,0,12,722.1,677.8)" />
<use xlink:href="#f0_2b" transform="matrix(12,0,0,12,734.2,677.8)" />
<use xlink:href="#f0_22" transform="matrix(12,0,0,12,743.7,677.8)" />
<use xlink:href="#f0_2e" transform="matrix(12,0,0,12,754.3,677.8)" />
<use xlink:href="#f0_1x" transform="matrix(12,0,0,12,760.6,677.8)" />
<use xlink:href="#f0_20" transform="matrix(12,0,0,12,768.6,677.8)" />
<use xlink:href="#f0_25" transform="matrix(12,0,0,12,778.1,677.8)" />
<use xlink:href="#f0_1x" transform="matrix(12,0,0,12,782.9,677.8)" />
<use xlink:href="#f0_28" transform="matrix(12,0,0,12,791.3,677.8)" />
<use xlink:href="#f0_28" transform="matrix(12,0,0,12,796.1,677.8)" />
<use xlink:href="#f0_2l" transform="matrix(12,0,0,12,801.2,677.8)" />
<use xlink:href="#f0_1x" transform="matrix(12,0,0,12,814.8,677.8)" />
<use xlink:href="#f0_2e" transform="matrix(12,0,0,12,822.8,677.8)" />
<use xlink:href="#f0_2e" transform="matrix(12,0,0,12,829.1,677.8)" />
<use xlink:href="#f0_1x" transform="matrix(12,0,0,12,835.3,677.8)" />
<use xlink:href="#f0_2a" transform="matrix(12,0,0,12,843.7,677.8)" />
<use xlink:href="#f0_23" transform="matrix(12,0,0,12,852.5,677.8)" />
<use xlink:href="#f0_21" transform="matrix(12,0,0,12,861.7,677.8)" />
<use xlink:href="#f0_20" transform="matrix(12,0,0,12,870.1,677.8)" />
<use xlink:href="#f0_29" transform="matrix(12,0,0,12,55,709.3)" />
<use xlink:href="#f0_25" transform="matrix(12,0,0,12,69.3,709.3)" />
<use xlink:href="#f0_1z" transform="matrix(12,0,0,12,74.1,709.3)" />
<use xlink:href="#f0_2e" transform="matrix(12,0,0,12,82.2,709.3)" />
<use xlink:href="#f0_2b" transform="matrix(12,0,0,12,88.4,709.3)" />
<use xlink:href="#f0_2g" transform="matrix(12,0,0,12,97.6,709.3)" />
<use xlink:href="#f0_2h" transform="matrix(12,0,0,12,103,709.3)" />
<use xlink:href="#f0_1y" transform="matrix(12,0,0,12,112.2,709.3)" />
<use xlink:href="#f0_2h" transform="matrix(12,0,0,12,121,709.3)" />
<use xlink:href="#f0_28" transform="matrix(12,0,0,12,130.5,709.3)" />
<use xlink:href="#f0_21" transform="matrix(12,0,0,12,135.3,709.3)" />
<use xlink:href="#f0_20" transform="matrix(12,0,0,12,148.1,709.3)" />
<use xlink:href="#f0_2b" transform="matrix(12,0,0,12,157.3,709.3)" />
<use xlink:href="#f0_2h" transform="matrix(12,0,0,12,166.8,709.3)" />
<use xlink:href="#f0_1y" transform="matrix(12,0,0,12,175.9,709.3)" />
<use xlink:href="#f0_28" transform="matrix(12,0,0,12,185.1,709.3)" />
<use xlink:href="#f0_21" transform="matrix(12,0,0,12,189.5,709.3)" />
<use xlink:href="#f0_2g" transform="matrix(12,0,0,12,197.6,709.3)" />
<use xlink:href="#f0_2f" transform="matrix(12,0,0,12,203.1,709.3)" />
<use xlink:href="#f0_1x" transform="matrix(12,0,0,12,214.9,709.3)" />
<use xlink:href="#f0_2a" transform="matrix(12,0,0,12,223,709.3)" />
<use xlink:href="#f0_20" transform="matrix(12,0,0,12,231.8,709.3)" />
<use xlink:href="#f0_m" transform="matrix(12,0,0,12,245.7,709.3)" />
<use xlink:href="#f0_25" transform="matrix(12,0,0,12,260,709.3)" />
<use xlink:href="#f0_2f" transform="matrix(12,0,0,12,264.4,709.3)" />
<use xlink:href="#f0_2g" transform="matrix(12,0,0,12,276.1,709.3)" />
<use xlink:href="#f0_24" transform="matrix(12,0,0,12,281.6,709.3)" />
<use xlink:href="#f0_21" transform="matrix(12,0,0,12,290.4,709.3)" />
<use xlink:href="#f0_1z" transform="matrix(12,0,0,12,303.2,709.3)" />
<use xlink:href="#f0_21" transform="matrix(12,0,0,12,311.3,709.3)" />
<use xlink:href="#f0_2a" transform="matrix(12,0,0,12,319.7,709.3)" />
<use xlink:href="#f0_2g" transform="matrix(12,0,0,12,328.5,709.3)" />
<use xlink:href="#f0_2e" transform="matrix(12,0,0,12,334,709.3)" />
<use xlink:href="#f0_1x" transform="matrix(12,0,0,12,340.2,709.3)" />
<use xlink:href="#f0_28" transform="matrix(12,0,0,12,348.6,709.3)" />
<use xlink:href="#f0_2c" transform="matrix(12,0,0,12,357.8,709.3)" />
<use xlink:href="#f0_1x" transform="matrix(12,0,0,12,366.9,709.3)" />
<use xlink:href="#f0_25" transform="matrix(12,0,0,12,375.3,709.3)" />
<use xlink:href="#f0_2e" transform="matrix(12,0,0,12,379.7,709.3)" />
<use xlink:href="#f0_2b" transform="matrix(12,0,0,12,390.7,709.3)" />
<use xlink:href="#f0_22" transform="matrix(12,0,0,12,400.2,709.3)" />
<use xlink:href="#f0_29" transform="matrix(12,0,0,12,410.8,709.3)" />
<use xlink:href="#f0_25" transform="matrix(12,0,0,12,424.8,709.3)" />
<use xlink:href="#f0_1z" transform="matrix(12,0,0,12,429.9,709.3)" />
<use xlink:href="#f0_2e" transform="matrix(12,0,0,12,438,709.3)" />
<use xlink:href="#f0_2b" transform="matrix(12,0,0,12,444.2,709.3)" />
<use xlink:href="#f0_2g" transform="matrix(12,0,0,12,453.3,709.3)" />
<use xlink:href="#f0_2h" transform="matrix(12,0,0,12,458.8,709.3)" />
<use xlink:href="#f0_1y" transform="matrix(12,0,0,12,468,709.3)" />
<use xlink:href="#f0_2h" transform="matrix(12,0,0,12,476.8,709.3)" />
<use xlink:href="#f0_28" transform="matrix(12,0,0,12,486.3,709.3)" />
<use xlink:href="#f0_21" transform="matrix(12,0,0,12,490.7,709.3)" />
<use xlink:href="#f0_2f" transform="matrix(12,0,0,12,498.8,709.3)" />
<use xlink:href="#f0_i" transform="matrix(12,0,0,12,505.7,709.3)" />
</g>
</g>
<image preserveAspectRatio="none" x="277" y="55" width="381" height="312" xlink:href="img/1.png" />
<image preserveAspectRatio="none" x="246" y="736" width="442" height="417" xlink:href="img/2.png" />
<g fill="#000000" >
<use xlink:href="#f2_t" transform="matrix(8,0,0,8,818.2,1187.9)" />
</g>
<defs>
<path d="M54,0V40L172,60V941L44,960v40H794V760H745L721,922c0,0,-83,11,-241,11H316V516H611l23,120h46V328H634L611,449H316V60L483,40V0Z" 
id="f0_16"
transform="scale(0.001,-0.001)" />

<path d="M32,0V33L151,52V649L52,668v33H275V52L395,33V0ZM201,850c0,0,-32,0,-56,24c0,0,-24,24,-24,56c0,0,0,34,24,58c0,0,24,24,56,24c0,0,34,0,58,-24c0,0,24,-24,24,-58c0,0,0,-32,-24,-56c0,0,-24,-24,-58,-24Z" 
id="f0_25"
transform="scale(0.001,-0.001)" />

<path d="M359,-270c0,0,124,0,192,46c0,0,67,47,67,129c0,0,0,43,-26,67c0,0,-26,24,-79,24H242c0,0,-32,-27,-51,-69c0,0,-20,-41,-20,-77c0,0,0,-64,46,-92c0,0,46,-28,142,-28Zm11,561c0,0,81,0,115,47c0,0,34,47,34,141c0,0,0,100,-35,142c0,0,-35,42,-113,42c0,0,-78,0,-114,-43c0,0,-37,-42,-37,-141c0,0,0,-98,36,-143c0,0,36,-45,114,-45ZM359,-329c0,0,-143,0,-218,44c0,0,-75,43,-75,125c0,0,0,39,27,78c0,0,26,38,98,89c0,0,-43,14,-72,48c0,0,-29,35,-29,74L208,262c0,0,-118,55,-118,217c0,0,0,115,73,178c0,0,73,63,211,63c0,0,28,0,71,-6c0,0,44,-6,67,-13l165,83l26,-32L599,644c0,0,50,-56,50,-165c0,0,0,-120,-72,-182c0,0,-73,-62,-208,-62c0,0,-62,0,-114,11L208,148c0,0,2,-13,29,-24c0,0,27,-12,67,-12H512c0,0,113,0,168,-49c0,0,55,-49,55,-134c0,0,0,-79,-44,-137c0,0,-43,-58,-128,-90c0,0,-84,-31,-204,-31Z" 
id="f0_23"
transform="scale(0.001,-0.001)" />

<path d="M191,-20c0,0,-39,0,-65,25c0,0,-25,27,-25,64c0,0,0,38,26,64c0,0,26,26,64,26c0,0,38,0,64,-26c0,0,26,-26,26,-64c0,0,0,-37,-25,-64c0,0,-26,-25,-65,-25Z" 
id="f0_i"
transform="scale(0.001,-0.001)" />

<path d="M134,0V40L339,60V876L137,804v39l292,166h39V60L672,40V0Z" 
id="f0_l"
transform="scale(0.001,-0.001)" />

<path d="M410,-14c0,0,-80,0,-162,14c0,0,-81,14,-144,38V270h48L178,134c0,0,28,-35,95,-62c0,0,68,-27,134,-27c0,0,104,0,163,53c0,0,58,54,58,148c0,0,0,54,-23,89c0,0,-22,35,-59,59c0,0,-37,24,-84,41c0,0,-47,17,-97,34c0,0,-49,17,-96,38c0,0,-47,21,-84,53c0,0,-37,32,-60,79c0,0,-23,48,-23,117c0,0,0,119,90,187c0,0,89,68,248,68c0,0,121,0,263,-32V771H654L628,893c0,0,-76,55,-188,55c0,0,-100,0,-156,-40c0,0,-56,-41,-56,-112c0,0,0,-49,22,-81c0,0,23,-32,60,-55c0,0,37,-22,84,-39c0,0,48,-16,97,-34c0,0,50,-17,97,-39c0,0,48,-22,85,-56c0,0,36,-34,59,-83c0,0,23,-49,23,-120c0,0,0,-145,-89,-224c0,0,-89,-79,-256,-79Z" 
id="f0_1j"
transform="scale(0.001,-0.001)" />

<path d="M249,-14c0,0,-71,0,-107,42c0,0,-35,42,-35,119V639H15v33l93,29l76,159h47V701H391V639H231V161c0,0,0,-48,22,-73c0,0,22,-24,57,-24c0,0,44,0,106,12V26C416,26,389,8,340,-2c0,0,-49,-12,-91,-12Z" 
id="f0_2g"
transform="scale(0.001,-0.001)" />

<path d="M31,0V33l88,19V649L31,668v33H235l7,-87c0,0,44,37,121,71c0,0,76,35,121,35h11V530H463l-43,82c0,0,-37,0,-88,-10c0,0,-52,-10,-89,-26V52L363,33V0Z" 
id="f0_2e"
transform="scale(0.001,-0.001)" />

<path d="M289,-14c0,0,-179,0,-179,205V649L20,668v33H233V200c0,0,0,-128,120,-128c0,0,92,0,173,23V649L420,668v33H649V52L738,33V0H533l-6,57C527,57,474,28,405,7c0,0,-69,-21,-116,-21Z" 
id="f0_2h"
transform="scale(0.001,-0.001)" />

<path d="M399,-14c0,0,-341,0,-341,370c0,0,0,175,87,269c0,0,87,95,249,95c0,0,101,0,220,-23V501H573L541,625c0,0,-62,35,-149,35c0,0,-200,0,-200,-304c0,0,0,-158,61,-225c0,0,61,-67,189,-67c0,0,109,0,189,24V43C631,43,595,16,530,1c0,0,-64,-15,-131,-15Z" 
id="f0_1z"
transform="scale(0.001,-0.001)" />

<path d="M495,413c0,0,0,133,-34,190c0,0,-34,57,-105,57c0,0,-78,0,-119,-63c0,0,-42,-62,-42,-184ZM374,-14c0,0,-163,0,-239,87c0,0,-75,88,-75,283c0,0,0,183,77,273c0,0,76,91,219,91c0,0,269,0,269,-306V353H194V340c0,0,0,-103,23,-160c0,0,22,-57,70,-87c0,0,47,-29,124,-29c0,0,40,0,96,6c0,0,55,7,91,15V43C598,43,562,20,500,3c0,0,-61,-17,-126,-17Z" 
id="f0_21"
transform="scale(0.001,-0.001)" />

<path d="M377,45c0,0,99,0,147,73c0,0,47,73,47,237c0,0,0,161,-47,233c0,0,-47,72,-147,72c0,0,-97,0,-141,-69c0,0,-44,-69,-44,-236c0,0,0,-169,45,-240c0,0,44,-70,140,-70Zm0,-59c0,0,-158,0,-238,94c0,0,-81,95,-81,274c0,0,0,178,81,272c0,0,80,94,244,94c0,0,160,0,241,-92c0,0,82,-92,82,-274c0,0,0,-368,-329,-368Z" 
id="f0_2b"
transform="scale(0.001,-0.001)" />

<path d="M64,0V34L168,59V639H47v36l121,29v49c0,0,0,155,61,239c0,0,62,84,173,84c0,0,58,0,107,-15V908H472l-33,92c0,0,-26,16,-62,16c0,0,-47,0,-66,-42c0,0,-19,-42,-19,-157V701H478V639H292V59L443,34V0Z" 
id="f0_22"
transform="scale(0.001,-0.001)" />

<path d="M382,45c0,0,188,0,188,314c0,0,0,143,-47,213c0,0,-46,69,-141,69c0,0,-87,0,-146,-24V58c0,0,67,-13,146,-13ZM25,-325v35l88,18V649L34,668v33H231l1,-41c0,0,31,27,84,43c0,0,53,17,107,17c0,0,134,0,208,-94c0,0,73,-93,73,-267c0,0,0,-178,-80,-276c0,0,-80,-97,-232,-97c0,0,-84,0,-160,16c0,0,4,-53,4,-84V-272l123,-18v-35Z" 
id="f0_2c"
transform="scale(0.001,-0.001)" />

<path d="M13,0V34L95,46L325,350L122,649L40,668v33H357V668L264,648L399,446L554,649l-96,19v33H710V668L630,652L433,397L663,50L745,34V0H427V34l94,17L359,299L169,50L266,34V0Z" 
id="f0_2k"
transform="scale(0.001,-0.001)" />

<path d="M278,-14c0,0,-52,0,-115,11c0,0,-63,10,-99,23V193H98L134,95c0,0,56,-50,146,-50c0,0,144,0,144,123c0,0,0,91,-114,130l-66,21c0,0,-75,25,-110,50c0,0,-34,26,-53,63c0,0,-18,36,-18,89c0,0,0,92,63,145c0,0,63,54,170,54c0,0,77,0,193,-23V544H454l-32,81c0,0,-39,35,-124,35c0,0,-61,0,-92,-30c0,0,-32,-30,-32,-80c0,0,0,-43,29,-72c0,0,28,-29,86,-48c0,0,110,-38,144,-55c0,0,33,-17,57,-42c0,0,23,-25,36,-57c0,0,13,-32,13,-79c0,0,0,-104,-66,-158c0,0,-66,-53,-195,-53Z" 
id="f0_2f"
transform="scale(0.001,-0.001)" />

<path d="M431,0V33L535,52V499c0,0,0,62,-32,96c0,0,-32,33,-95,33c0,0,-66,0,-163,-22V52L350,33V0H32V33l89,19V649L32,668v33H237l6,-57c0,0,56,32,119,54c0,0,62,22,110,22c0,0,52,0,95,-20c0,0,44,-19,66,-62c0,0,57,32,134,57c0,0,77,25,128,25c0,0,179,0,179,-207V52l90,-19V0H846V33L950,52V499c0,0,0,129,-119,129c0,0,-19,0,-45,-3c0,0,-26,-3,-52,-7c0,0,-25,-4,-49,-8c0,0,-23,-5,-39,-8c0,0,13,-41,13,-89V52L764,33V0Z" 
id="f0_29"
transform="scale(0.001,-0.001)" />

<path d="M608,-14c0,0,-251,0,-392,133C216,119,75,252,75,488c0,0,0,257,134,390c0,0,135,133,398,133c0,0,174,0,361,-50l4,-240H905L884,866c0,0,-98,67,-229,67c0,0,-173,0,-253,-108c0,0,-80,-108,-80,-334c0,0,0,-209,84,-319c0,0,83,-109,243,-109c0,0,84,0,147,22c0,0,63,22,99,53l24,164h68L982,48C982,48,915,22,808,4C808,4,700,-14,608,-14Z" 
id="f1_13"
transform="scale(0.001,-0.001)" />

<path d="M159,-329c0,0,-61,0,-123,14v180H81l32,-94c0,0,21,-17,55,-17c0,0,28,0,50,13c0,0,21,14,40,39c0,0,20,25,37,62c0,0,17,37,50,110L64,634L15,652v49H374V652L290,632L455,244L602,634l-82,18v49H749V652L698,637L421,-44c0,0,-47,-121,-83,-176c0,0,-36,-55,-80,-82c0,0,-43,-27,-99,-27Z" 
id="f1_2l"
transform="scale(0.001,-0.001)" />

<path d="M327,-14c0,0,-101,0,-156,45c0,0,-55,45,-55,131V624H25v48l108,29l87,159H332V701H480V624H332V176c0,0,0,-49,20,-73c0,0,20,-25,53,-25c0,0,40,0,97,12V26c0,0,-22,-15,-76,-27c0,0,-55,-13,-99,-13Z" 
id="f1_2g"
transform="scale(0.001,-0.001)" />

<path d="M379,60c0,0,59,0,84,64c0,0,24,65,24,231c0,0,0,164,-24,227c0,0,-24,63,-84,63c0,0,-57,0,-80,-60c0,0,-22,-61,-22,-230c0,0,0,-173,23,-234c0,0,22,-61,79,-61Zm-2,-74c0,0,-161,0,-240,91c0,0,-79,91,-79,277c0,0,0,186,80,276c0,0,81,90,245,90c0,0,167,0,245,-93c0,0,78,-93,78,-273c0,0,0,-188,-81,-278c0,0,-81,-90,-248,-90Z" 
id="f1_2b"
transform="scale(0.001,-0.001)" />

<path d="M276,-14c0,0,-57,0,-125,13C151,-1,83,10,48,23V214H97l28,-98c0,0,26,-26,69,-44c0,0,42,-17,86,-17c0,0,65,0,97,28c0,0,32,28,32,71c0,0,0,41,-31,65c0,0,-30,25,-133,57c0,0,-108,34,-154,92c0,0,-45,58,-45,143c0,0,0,95,71,152c0,0,71,57,183,57c0,0,77,0,207,-22V518H457l-24,82c0,0,-21,22,-60,35c0,0,-40,14,-75,14c0,0,-53,0,-79,-22c0,0,-26,-22,-26,-59c0,0,0,-40,32,-65c0,0,32,-26,132,-55c0,0,109,-34,155,-89c0,0,45,-55,45,-137c0,0,0,-117,-72,-177c0,0,-72,-59,-209,-59Z" 
id="f1_2f"
transform="scale(0.001,-0.001)" />

<path d="M43,0V49l67,18V992l-72,18v50H325V336L599,635l-75,17v49H791V652L711,636L544,460L785,67L847,50V0H510V50l41,17L411,313L325,253V67L395,49V0Z" 
id="f1_27"
transform="scale(0.001,-0.001)" />

<path d="M434,423c0,0,0,101,-7,142c0,0,-6,40,-22,60c0,0,-16,19,-45,19c0,0,-44,0,-66,-48c0,0,-22,-49,-22,-173ZM389,-14c0,0,-172,0,-254,89c0,0,-83,90,-83,279c0,0,0,184,79,274c0,0,79,91,238,91c0,0,142,0,206,-76c0,0,64,-76,64,-237V345H271V333c0,0,0,-111,18,-158c0,0,18,-47,58,-72c0,0,40,-25,110,-25c0,0,66,0,166,22V42C623,42,582,18,517,1c0,0,-66,-15,-128,-15Z" 
id="f1_21"
transform="scale(0.001,-0.001)" />

<path d="M30,0V49l76,18V992l-72,18v50H322V67L398,49V0Z" 
id="f1_28"
transform="scale(0.001,-0.001)" />

<path d="M41,0V49l69,18V634L41,652v49H313l11,-61l50,26c0,0,105,54,188,54c0,0,194,0,194,-207V67L827,49V0H478V49l63,18V484c0,0,0,63,-27,98c0,0,-26,35,-75,35c0,0,-57,0,-114,-25V67L389,49V0Z" 
id="f1_2a"
transform="scale(0.001,-0.001)" />

<path d="M248,-20c0,0,-52,0,-87,34c0,0,-36,36,-36,88c0,0,0,52,36,88c0,0,35,36,87,36c0,0,52,0,88,-36c0,0,36,-36,36,-88c0,0,0,-51,-36,-87c0,0,-35,-35,-88,-35Zm0,488c0,0,-52,0,-87,36c0,0,-36,36,-36,88c0,0,0,52,35,88c0,0,35,36,88,36c0,0,53,0,89,-36c0,0,35,-37,35,-88c0,0,0,-51,-36,-87c0,0,-35,-37,-88,-37Z" 
id="f1_u"
transform="scale(0.001,-0.001)" />

<path d="M55,0V40L184,60V941L55,960v40H455V960L327,941V60L455,40V0Z" 
id="f0_19"
transform="scale(0.001,-0.001)" />

<path d="M439,0V33l93,19V500c0,0,0,62,-30,97c0,0,-31,36,-94,36c0,0,-67,0,-165,-22V52L338,33V0H35V33l84,19V649L35,668v33H235l7,-57c0,0,57,33,122,54c0,0,65,22,108,22c0,0,91,0,137,-53c0,0,47,-53,47,-154V52L741,33V0Z" 
id="f0_2a"
transform="scale(0.001,-0.001)" />

<path d="M284,67c0,0,51,0,88,12c0,0,37,12,74,30V358l-98,-3c0,0,-100,-4,-135,-39c0,0,-35,-35,-35,-117c0,0,0,-132,106,-132ZM233,-14c0,0,-179,0,-179,208c0,0,0,70,27,116c0,0,27,46,87,70c0,0,60,24,173,27l105,3V519c0,0,0,72,-26,107c0,0,-27,34,-82,34c0,0,-75,0,-137,-35L176,538H134V691c0,0,121,26,213,26c0,0,115,0,169,-47c0,0,54,-47,54,-144V52L657,33V0H465L451,70c0,0,-85,-84,-218,-84Z" 
id="f0_1x"
transform="scale(0.001,-0.001)" />

<path d="M327,-14L84,649L1,668v33H335V668L219,648L385,174L554,632h63L786,171L944,649L830,668v33h267V668l-78,-16L784,-14H726L553,448L382,-14Z" 
id="f0_2j"
transform="scale(0.001,-0.001)" />

<path d="M477,0V33l64,19L348,354L257,254V52L331,33V0H44V33l89,19v956L29,1026v34H257V338L544,647l-73,20v34H718V667L631,650L431,446L688,50L764,33V0Z" 
id="f0_27"
transform="scale(0.001,-0.001)" />

<path d="M31,0V33L150,52v956L31,1026v34H274V52L394,33V0Z" 
id="f0_28"
transform="scale(0.001,-0.001)" />

<path d="M442,0V33l93,19V504c0,0,0,129,-124,129c0,0,-70,0,-168,-22V52L338,33V0H31V33l88,19v956L15,1026v34H243V756c0,0,0,-77,-5,-112c0,0,54,31,122,53c0,0,68,23,115,23c0,0,91,0,137,-53c0,0,47,-53,47,-154V52L744,33V0Z" 
id="f0_24"
transform="scale(0.001,-0.001)" />

<path d="M148,-329c0,0,-58,0,-114,13v151H69l24,-71c0,0,23,-17,64,-17c0,0,39,0,72,22c0,0,33,23,60,67c0,0,27,44,68,157L90,649L19,668v33H344V668L233,648L423,158L606,649L497,668v33H758V668L685,652L411,-43c0,0,-48,-124,-84,-177c0,0,-36,-54,-79,-82c0,0,-44,-27,-100,-27Z" 
id="f0_2l"
transform="scale(0.001,-0.001)" />

<path d="M360,-14L72,649L0,668v33H327V668L216,648L420,164L615,649L504,668v33H764V668L697,652L416,-14Z" 
id="f0_2i"
transform="scale(0.001,-0.001)" />

<path d="M383,64c0,0,85,0,152,28V645c0,0,-67,13,-152,13c0,0,-194,0,-194,-314c0,0,0,-141,48,-211c0,0,48,-69,146,-69ZM342,-14c0,0,-287,0,-287,358c0,0,0,184,82,280c0,0,81,96,239,96c0,0,81,0,163,-18c0,0,-4,25,-4,124v182l-118,18v34H659V52L745,33V0H548l-9,52c0,0,-84,-66,-197,-66Z" 
id="f0_20"
transform="scale(0.001,-0.001)" />

<path d="M34,0V49l76,18V634L38,652v49H325V67L402,49V0ZM217,831c0,0,-48,0,-81,33c0,0,-34,33,-34,82c0,0,0,48,34,81c0,0,34,33,81,33c0,0,48,0,81,-33c0,0,33,-33,33,-81c0,0,0,-47,-33,-81c0,0,-32,-34,-81,-34Z" 
id="f1_25"
transform="scale(0.001,-0.001)" />

<path d="M345,75c0,0,50,0,110,26V351l-63,-2c0,0,-72,-3,-100,-38c0,0,-28,-35,-28,-113c0,0,0,-63,22,-93c0,0,23,-30,59,-30ZM266,-14c0,0,-217,0,-217,208c0,0,0,79,32,126c0,0,32,48,93,71c0,0,60,22,190,25l91,2V521c0,0,0,126,-104,126c0,0,-62,0,-140,-39L183,521H134V691c0,0,112,17,165,21c0,0,53,5,108,5c0,0,264,0,264,-194V67L741,49V0H483L466,54C466,54,408,14,361,0c0,0,-47,-14,-95,-14Z" 
id="f1_1x"
transform="scale(0.001,-0.001)" />

<path d="M416,68c0,0,60,0,124,32V628c0,0,-58,15,-118,15c0,0,-67,0,-104,-73c0,0,-38,-73,-38,-216c0,0,0,-139,36,-212c0,0,35,-74,100,-74ZM369,-14c0,0,-155,0,-231,88c0,0,-76,90,-76,274c0,0,0,182,82,277c0,0,81,95,236,95c0,0,82,0,165,-20c0,0,-5,24,-5,115V992l-72,18v50H756V67L833,49V0H562L547,40C547,40,505,13,483,4c0,0,-23,-7,-51,-12c0,0,-28,-6,-63,-6Z" 
id="f1_20"
transform="scale(0.001,-0.001)" />

<path d="M36,0V54L154,74V926L26,945v55H860V731H790L766,908c0,0,-36,5,-121,8c0,0,-84,2,-133,2H389V508H633l23,127h67V298H656L633,426H389V74L556,54V0Z" 
id="f1_16"
transform="scale(0.001,-0.001)" />

<path d="M360,-256c0,0,108,0,167,35c0,0,59,35,59,98c0,0,0,70,-95,70H254c0,0,-65,-47,-65,-108c0,0,0,-47,46,-71c0,0,45,-24,125,-24Zm9,561c0,0,55,0,79,43c0,0,25,43,25,129c0,0,0,87,-24,127c0,0,-25,41,-80,41c0,0,-52,0,-75,-41c0,0,-24,-40,-24,-127c0,0,0,-86,23,-129c0,0,23,-43,76,-43Zm-9,-641c0,0,-153,0,-236,43c0,0,-84,44,-84,120c0,0,0,33,28,65c0,0,27,31,105,76c0,0,-44,17,-75,59c0,0,-31,43,-31,90L192,258c0,0,-133,56,-133,219c0,0,0,116,81,180c0,0,82,63,233,63c0,0,32,0,82,-6c0,0,51,-6,74,-13l168,83l26,-32L638,631c0,0,46,-57,46,-154c0,0,0,-119,-80,-182c0,0,-80,-64,-234,-64c0,0,-59,0,-114,9L238,183c0,0,1,-22,28,-41c0,0,26,-19,64,-19H493c0,0,256,0,256,-196c0,0,0,-81,-44,-139c0,0,-45,-59,-131,-92c0,0,-86,-32,-214,-32Z" 
id="f1_23"
transform="scale(0.001,-0.001)" />

<path d="M44,0V40L172,60V941L44,960v40H445V960L316,941V549H787V941L659,960v40h400V960L930,941V60L1059,40V0H659V40L787,60V481H316V60L445,40V0Z" 
id="f0_18"
transform="scale(0.001,-0.001)" />

<path d="M577,-14c0,0,-243,0,-379,132C198,118,63,250,63,488c0,0,0,258,130,391c0,0,131,132,387,132c0,0,156,0,335,-38l5,-218H871L848,884c0,0,-52,32,-121,50c0,0,-69,17,-141,17c0,0,-191,0,-279,-112c0,0,-88,-113,-88,-349c0,0,0,-217,92,-332c0,0,92,-115,268,-115c0,0,85,0,160,20c0,0,76,21,120,55l27,149h49L930,32c0,0,-164,-46,-353,-46Z" 
id="f0_13"
transform="scale(0.001,-0.001)" />

<path d="M235,0V40L394,60V936H356c0,0,-189,0,-258,-15L78,766H28v234H908V766H857L837,921c0,0,-22,5,-98,9c0,0,-75,4,-165,4H538V60L697,40V0Z" 
id="f0_1k"
transform="scale(0.001,-0.001)" />

<path d="M376,50c0,0,103,0,149,80c0,0,46,81,46,240c0,0,0,137,-47,204c0,0,-48,67,-148,67c0,0,-44,0,-87,-7c0,0,-44,-8,-63,-17V62c0,0,63,-12,150,-12Zm3,-64c0,0,-64,0,-141,14c0,0,-78,14,-136,37v971L0,1026v34H226V809c0,0,0,-40,-4,-148c0,0,74,59,188,59c0,0,143,0,219,-87c0,0,77,-87,77,-263c0,0,0,-189,-84,-287c0,0,-84,-97,-243,-97Z" 
id="f0_1y"
transform="scale(0.001,-0.001)" />

<path d="M370,468c0,0,96,0,194,40c0,0,0,229,-45,336c0,0,-45,107,-146,107c0,0,-187,0,-187,-259c0,0,0,-115,45,-169c0,0,45,-55,139,-55ZM312,-14c0,0,-122,0,-223,25V184h48L163,76c0,0,24,-11,65,-20c0,0,40,-9,81,-9c0,0,119,0,183,105c0,0,65,104,71,307c0,0,-113,-62,-230,-62c0,0,-132,0,-208,79c0,0,-76,78,-76,219c0,0,0,151,85,233c0,0,84,83,237,83c0,0,171,0,251,-123c0,0,79,-123,79,-385c0,0,0,-252,-102,-385C599,118,497,-14,312,-14Z" 
id="f0_t"
transform="scale(0.001,-0.001)" />

<path d="M392,152V469H76v77H392V863h77V546H787V469H469V152Z" 
id="f0_f"
transform="scale(0.001,-0.001)" />

<path d="M67,0V109L206,235c0,0,133,118,196,190c0,0,63,72,90,149c0,0,27,77,27,177c0,0,0,97,-44,148c0,0,-44,50,-144,50c0,0,-39,0,-81,-10c0,0,-42,-11,-74,-29L150,787H101V980c0,0,135,32,230,32c0,0,164,0,247,-68c0,0,82,-69,82,-193c0,0,0,-84,-32,-158c0,0,-33,-75,-100,-148c0,0,-67,-74,-222,-206c0,0,-67,-57,-141,-125H680V0Z" 
id="f0_m"
transform="scale(0.001,-0.001)" />

<path d="M58,-234v58c0,0,131,42,131,125c0,0,0,15,-11,27c0,0,-11,12,-38,25C140,1,89,27,89,75c0,0,0,40,25,61c0,0,26,21,65,21c0,0,48,0,77,-34c0,0,30,-34,30,-86c0,0,0,-101,-60,-170c0,0,-59,-69,-168,-101Z" 
id="f0_g"
transform="scale(0.001,-0.001)" />

<path d="M420,489c0,0,93,0,153,65c0,0,60,65,60,181c0,0,0,116,-62,184c0,0,-61,68,-148,68c0,0,-90,0,-156,-74c0,0,-66,-73,-66,-189c0,0,0,-105,63,-170c0,0,63,-65,156,-65ZM391,-18c0,0,-128,0,-209,71c0,0,-82,71,-98,200l129,12c0,0,17,-91,63,-132c0,0,46,-41,118,-41c0,0,62,0,109,28c0,0,47,29,76,76c0,0,30,47,50,128c0,0,20,80,20,164c0,0,0,9,-1,27c0,0,-40,-65,-110,-105c0,0,-69,-39,-151,-39c0,0,-135,0,-229,98c0,0,-94,99,-94,260c0,0,0,166,98,268c0,0,98,101,245,101c0,0,107,0,195,-57c0,0,89,-58,134,-164c0,0,46,-106,46,-308c0,0,0,-209,-45,-334C737,235,691,111,602,46c0,0,-90,-64,-211,-64Z" 
id="f2_t"
transform="scale(0.001,-0.001)" />


</defs>
</svg>