<?xml version="1.0" encoding="UTF-8" standalone="no"?>
<!DOCTYPE svg PUBLIC "-//W3C//DTD SVG 1.1//EN"
"http://www.w3.org/Graphics/SVG/1.1/DTD/svg11.dtd">
<svg viewBox="0 0 935 1210" version="1.1" xmlns="http://www.w3.org/2000/svg" xmlns:xlink="http://www.w3.org/1999/xlink">
<defs>
</defs>
<g fill="#000000" >
<use xlink:href="#f0_3d" transform="matrix(12,0,0,12,82.5,73.4)" />
<use xlink:href="#f1_11" transform="matrix(12,0,0,12,110,73.4)" />
<use xlink:href="#f1_2f" transform="matrix(12,0,0,12,123.3,73.4)" />
<use xlink:href="#f1_1z" transform="matrix(12,0,0,12,130.2,73.4)" />
<use xlink:href="#f1_2b" transform="matrix(12,0,0,12,138.3,73.4)" />
<use xlink:href="#f1_29" transform="matrix(12,0,0,12,147.4,73.4)" />
<use xlink:href="#f1_2l" transform="matrix(12,0,0,12,162.5,73.4)" />
<use xlink:href="#f1_1z" transform="matrix(12,0,0,12,172,73.4)" />
<use xlink:href="#f1_21" transform="matrix(12,0,0,12,180.1,73.4)" />
<use xlink:href="#f1_2g" transform="matrix(12,0,0,12,188.1,73.4)" />
<use xlink:href="#f1_21" transform="matrix(12,0,0,12,194.3,73.4)" />
<use xlink:href="#f1_2f" transform="matrix(12,0,0,12,202.4,73.4)" />
<use xlink:href="#f1_c" transform="matrix(12,0,0,12,215.3,73.4)" />
<use xlink:href="#f1_2f" transform="matrix(12,0,0,12,221.5,73.4)" />
<use xlink:href="#f1_1x" transform="matrix(12,0,0,12,228.5,73.4)" />
<use xlink:href="#f1_1z" transform="matrix(12,0,0,12,237.7,73.4)" />
<use xlink:href="#f1_22" transform="matrix(12,0,0,12,251.6,73.4)" />
<use xlink:href="#f1_2h" transform="matrix(12,0,0,12,257.4,73.4)" />
<use xlink:href="#f1_2a" transform="matrix(12,0,0,12,267.7,73.4)" />
<use xlink:href="#f1_23" transform="matrix(12,0,0,12,277.9,73.4)" />
<use xlink:href="#f1_25" transform="matrix(12,0,0,12,287.1,73.4)" />
<use xlink:href="#f1_d" transform="matrix(12,0,0,12,292.2,73.4)" />
<use xlink:href="#f1_h" transform="matrix(12,0,0,12,298.6,73.4)" />
<use xlink:href="#f2_1k" transform="matrix(12,0,0,12,304.8,73.4)" />
<use xlink:href="#f2_24" transform="matrix(12,0,0,12,316.2,73.4)" />
<use xlink:href="#f2_21" transform="matrix(12,0,0,12,325,73.4)" />
<use xlink:href="#f2_2l" transform="matrix(12,0,0,12,333.4,73.4)" />
<use xlink:href="#f2_1z" transform="matrix(12,0,0,12,347.7,73.4)" />
<use xlink:href="#f2_1x" transform="matrix(12,0,0,12,355.7,73.4)" />
<use xlink:href="#f2_2a" transform="matrix(12,0,0,12,363.8,73.4)" />
<use xlink:href="#f2_1y" transform="matrix(12,0,0,12,378.4,73.4)" />
<use xlink:href="#f2_21" transform="matrix(12,0,0,12,387.6,73.4)" />
<use xlink:href="#f2_2f" transform="matrix(12,0,0,12,401.5,73.4)" />
<use xlink:href="#f2_1x" transform="matrix(12,0,0,12,408.5,73.4)" />
<use xlink:href="#f2_2c" transform="matrix(12,0,0,12,416.5,73.4)" />
<use xlink:href="#f2_2e" transform="matrix(12,0,0,12,425.7,73.4)" />
<use xlink:href="#f2_2b" transform="matrix(12,0,0,12,431.9,73.4)" />
<use xlink:href="#f2_2c" transform="matrix(12,0,0,12,441.4,73.4)" />
<use xlink:href="#f2_24" transform="matrix(12,0,0,12,450.6,73.4)" />
<use xlink:href="#f2_2l" transform="matrix(12,0,0,12,459.8,73.4)" />
<use xlink:href="#f2_2g" transform="matrix(12,0,0,12,468.2,73.4)" />
<use xlink:href="#f2_25" transform="matrix(12,0,0,12,474.1,73.4)" />
<use xlink:href="#f2_1z" transform="matrix(12,0,0,12,478.8,73.4)" />
<use xlink:href="#f2_1x" transform="matrix(12,0,0,12,493,73.4)" />
<use xlink:href="#f2_2f" transform="matrix(12,0,0,12,501.1,73.4)" />
<use xlink:href="#f2_2j" transform="matrix(12,0,0,12,513.9,73.4)" />
<use xlink:href="#f2_21" transform="matrix(12,0,0,12,527.1,73.4)" />
<use xlink:href="#f2_28" transform="matrix(12,0,0,12,535.1,73.4)" />
<use xlink:href="#f2_28" transform="matrix(12,0,0,12,539.9,73.4)" />
<use xlink:href="#f2_1x" transform="matrix(12,0,0,12,550.1,73.4)" />
<use xlink:href="#f2_2f" transform="matrix(12,0,0,12,558.6,73.4)" />
<use xlink:href="#f2_2c" transform="matrix(12,0,0,12,571.5,73.4)" />
<use xlink:href="#f2_1x" transform="matrix(12,0,0,12,580.6,73.4)" />
<use xlink:href="#f2_2e" transform="matrix(12,0,0,12,588.7,73.4)" />
<use xlink:href="#f2_1x" transform="matrix(12,0,0,12,594.9,73.4)" />
<use xlink:href="#f2_2f" transform="matrix(12,0,0,12,603,73.4)" />
<use xlink:href="#f2_25" transform="matrix(12,0,0,12,610.3,73.4)" />
<use xlink:href="#f2_2g" transform="matrix(12,0,0,12,614.7,73.4)" />
<use xlink:href="#f2_25" transform="matrix(12,0,0,12,620.6,73.4)" />
<use xlink:href="#f2_1z" transform="matrix(12,0,0,12,625,73.4)" />
<use xlink:href="#f2_i" transform="matrix(12,0,0,12,633,73.4)" />
<use xlink:href="#f2_11" transform="matrix(12,0,0,12,643.6,73.4)" />
<use xlink:href="#f2_2f" transform="matrix(12,0,0,12,656.9,73.4)" />
<use xlink:href="#f2_21" transform="matrix(12,0,0,12,663.8,73.4)" />
<use xlink:href="#f2_2k" transform="matrix(12,0,0,12,672.2,73.4)" />
<use xlink:href="#f2_2h" transform="matrix(12,0,0,12,681,73.4)" />
<use xlink:href="#f2_1x" transform="matrix(12,0,0,12,690.2,73.4)" />
<use xlink:href="#f2_28" transform="matrix(12,0,0,12,698.6,73.4)" />
<use xlink:href="#f2_2e" transform="matrix(12,0,0,12,708.8,73.4)" />
<use xlink:href="#f2_21" transform="matrix(12,0,0,12,715,73.4)" />
<use xlink:href="#f2_2c" transform="matrix(12,0,0,12,723.1,73.4)" />
<use xlink:href="#f2_2e" transform="matrix(12,0,0,12,732.3,73.4)" />
<use xlink:href="#f2_2b" transform="matrix(12,0,0,12,738.5,73.4)" />
<use xlink:href="#f2_20" transform="matrix(12,0,0,12,748,73.4)" />
<use xlink:href="#f2_2h" transform="matrix(12,0,0,12,757.2,73.4)" />
<use xlink:href="#f2_1z" transform="matrix(12,0,0,12,766.3,73.4)" />
<use xlink:href="#f2_2g" transform="matrix(12,0,0,12,774,73.4)" />
<use xlink:href="#f2_25" transform="matrix(12,0,0,12,779.5,73.4)" />
<use xlink:href="#f2_2b" transform="matrix(12,0,0,12,783.9,73.4)" />
<use xlink:href="#f2_2a" transform="matrix(12,0,0,12,793.4,73.4)" />
<use xlink:href="#f2_2b" transform="matrix(12,0,0,12,808.1,73.4)" />
<use xlink:href="#f2_1z" transform="matrix(12,0,0,12,817.6,73.4)" />
<use xlink:href="#f2_1z" transform="matrix(12,0,0,12,825.7,73.4)" />
<use xlink:href="#f2_2h" transform="matrix(12,0,0,12,833.7,73.4)" />
<use xlink:href="#f2_2e" transform="matrix(12,0,0,12,842.9,73.4)" />
<use xlink:href="#f2_2f" transform="matrix(12,0,0,12,848.8,73.4)" />
<use xlink:href="#f2_1y" transform="matrix(12,0,0,12,861.6,73.4)" />
<use xlink:href="#f2_2l" transform="matrix(12,0,0,12,871.1,73.4)" />
<use xlink:href="#f2_1z" transform="matrix(12,0,0,12,110,105.3)" />
<use xlink:href="#f2_2b" transform="matrix(12,0,0,12,118.1,105.3)" />
<use xlink:href="#f2_2a" transform="matrix(12,0,0,12,127.6,105.3)" />
<use xlink:href="#f2_25" transform="matrix(12,0,0,12,136.8,105.3)" />
<use xlink:href="#f2_20" transform="matrix(12,0,0,12,141.2,105.3)" />
<use xlink:href="#f2_25" transform="matrix(12,0,0,12,150.7,105.3)" />
<use xlink:href="#f2_1x" transform="matrix(12,0,0,12,155.5,105.3)" />
<use xlink:href="#f2_i" transform="matrix(12,0,0,12,163.5,105.3)" />
<use xlink:href="#f2_1j" transform="matrix(12,0,0,12,176.1,105.3)" />
<use xlink:href="#f2_21" transform="matrix(12,0,0,12,186.3,105.3)" />
<use xlink:href="#f2_2k" transform="matrix(12,0,0,12,194.4,105.3)" />
<use xlink:href="#f2_2h" transform="matrix(12,0,0,12,203.2,105.3)" />
<use xlink:href="#f2_1x" transform="matrix(12,0,0,12,212.4,105.3)" />
<use xlink:href="#f2_28" transform="matrix(12,0,0,12,220.8,105.3)" />
<use xlink:href="#f2_2e" transform="matrix(12,0,0,12,232.9,105.3)" />
<use xlink:href="#f2_21" transform="matrix(12,0,0,12,239.1,105.3)" />
<use xlink:href="#f2_2c" transform="matrix(12,0,0,12,247.1,105.3)" />
<use xlink:href="#f2_2e" transform="matrix(12,0,0,12,256.3,105.3)" />
<use xlink:href="#f2_2b" transform="matrix(12,0,0,12,262.5,105.3)" />
<use xlink:href="#f2_20" transform="matrix(12,0,0,12,272,105.3)" />
<use xlink:href="#f2_2h" transform="matrix(12,0,0,12,281.2,105.3)" />
<use xlink:href="#f2_1z" transform="matrix(12,0,0,12,290.4,105.3)" />
<use xlink:href="#f2_2g" transform="matrix(12,0,0,12,298.4,105.3)" />
<use xlink:href="#f2_25" transform="matrix(12,0,0,12,303.9,105.3)" />
<use xlink:href="#f2_2b" transform="matrix(12,0,0,12,308.3,105.3)" />
<use xlink:href="#f2_2a" transform="matrix(12,0,0,12,317.8,105.3)" />
<use xlink:href="#f2_2b" transform="matrix(12,0,0,12,334.3,105.3)" />
<use xlink:href="#f2_1z" transform="matrix(12,0,0,12,343.8,105.3)" />
<use xlink:href="#f2_1z" transform="matrix(12,0,0,12,351.9,105.3)" />
<use xlink:href="#f2_2h" transform="matrix(12,0,0,12,360,105.3)" />
<use xlink:href="#f2_2e" transform="matrix(12,0,0,12,369.1,105.3)" />
<use xlink:href="#f2_2f" transform="matrix(12,0,0,12,375.3,105.3)" />
<use xlink:href="#f2_2g" transform="matrix(12,0,0,12,389.6,105.3)" />
<use xlink:href="#f2_24" transform="matrix(12,0,0,12,395,105.3)" />
<use xlink:href="#f2_2e" transform="matrix(12,0,0,12,403.8,105.3)" />
<use xlink:href="#f2_2b" transform="matrix(12,0,0,12,410,105.3)" />
<use xlink:href="#f2_2h" transform="matrix(12,0,0,12,419.6,105.3)" />
<use xlink:href="#f2_23" transform="matrix(12,0,0,12,428.7,105.3)" />
<use xlink:href="#f2_24" transform="matrix(12,0,0,12,437.9,105.3)" />
<use xlink:href="#f2_1x" transform="matrix(12,0,0,12,454.5,105.3)" />
<use xlink:href="#f2_2f" transform="matrix(12,0,0,12,462.5,105.3)" />
<use xlink:href="#f2_1z" transform="matrix(12,0,0,12,469.5,105.3)" />
<use xlink:href="#f2_2b" transform="matrix(12,0,0,12,477.6,105.3)" />
<use xlink:href="#f2_2f" transform="matrix(12,0,0,12,487.1,105.3)" />
<use xlink:href="#f2_2c" transform="matrix(12,0,0,12,494.1,105.3)" />
<use xlink:href="#f2_2b" transform="matrix(12,0,0,12,502.9,105.3)" />
<use xlink:href="#f2_2e" transform="matrix(12,0,0,12,512.4,105.3)" />
<use xlink:href="#f2_21" transform="matrix(12,0,0,12,518.6,105.3)" />
<use xlink:href="#f2_2f" transform="matrix(12,0,0,12,526.7,105.3)" />
<use xlink:href="#f2_i" transform="matrix(12,0,0,12,533.6,105.3)" />
<use xlink:href="#f2_12" transform="matrix(12,0,0,12,545.8,105.3)" />
<use xlink:href="#f2_2e" transform="matrix(12,0,0,12,557.9,105.3)" />
<use xlink:href="#f2_1x" transform="matrix(12,0,0,12,564.1,105.3)" />
<use xlink:href="#f2_2a" transform="matrix(12,0,0,12,572.2,105.3)" />
<use xlink:href="#f2_1z" transform="matrix(12,0,0,12,581,105.3)" />
<use xlink:href="#f2_24" transform="matrix(12,0,0,12,589.4,105.3)" />
<use xlink:href="#f2_21" transform="matrix(12,0,0,12,598.2,105.3)" />
<use xlink:href="#f2_20" transform="matrix(12,0,0,12,606.3,105.3)" />
<use xlink:href="#f2_1x" transform="matrix(12,0,0,12,623.1,105.3)" />
<use xlink:href="#f2_2a" transform="matrix(12,0,0,12,631.2,105.3)" />
<use xlink:href="#f2_20" transform="matrix(12,0,0,12,640,105.3)" />
<use xlink:href="#f2_2f" transform="matrix(12,0,0,12,656.8,105.3)" />
<use xlink:href="#f2_21" transform="matrix(12,0,0,12,663.8,105.3)" />
<use xlink:href="#f2_2c" transform="matrix(12,0,0,12,671.9,105.3)" />
<use xlink:href="#f2_2g" transform="matrix(12,0,0,12,681,105.3)" />
<use xlink:href="#f2_1x" transform="matrix(12,0,0,12,686.5,105.3)" />
<use xlink:href="#f2_2g" transform="matrix(12,0,0,12,694.6,105.3)" />
<use xlink:href="#f2_21" transform="matrix(12,0,0,12,700.1,105.3)" />
<use xlink:href="#f2_29" transform="matrix(12,0,0,12,715.5,105.3)" />
<use xlink:href="#f2_2l" transform="matrix(12,0,0,12,729.4,105.3)" />
<use xlink:href="#f2_1z" transform="matrix(12,0,0,12,738.2,105.3)" />
<use xlink:href="#f2_21" transform="matrix(12,0,0,12,746.6,105.3)" />
<use xlink:href="#f2_28" transform="matrix(12,0,0,12,755,105.3)" />
<use xlink:href="#f2_25" transform="matrix(12,0,0,12,760.1,105.3)" />
<use xlink:href="#f2_2h" transform="matrix(12,0,0,12,764.9,105.3)" />
<use xlink:href="#f2_29" transform="matrix(12,0,0,12,774.4,105.3)" />
<use xlink:href="#f2_25" transform="matrix(12,0,0,12,796.3,105.3)" />
<use xlink:href="#f2_2f" transform="matrix(12,0,0,12,801.1,105.3)" />
<use xlink:href="#f2_22" transform="matrix(12,0,0,12,816.1,105.3)" />
<use xlink:href="#f2_2b" transform="matrix(12,0,0,12,821.6,105.3)" />
<use xlink:href="#f2_2h" transform="matrix(12,0,0,12,831.1,105.3)" />
<use xlink:href="#f2_2a" transform="matrix(12,0,0,12,840.3,105.3)" />
<use xlink:href="#f2_20" transform="matrix(12,0,0,12,849.5,105.3)" />
<use xlink:href="#f2_25" transform="matrix(12,0,0,12,866.3,105.3)" />
<use xlink:href="#f2_2a" transform="matrix(12,0,0,12,871.1,105.3)" />
<use xlink:href="#f2_11" transform="matrix(12,0,0,12,110,136.8)" />
<use xlink:href="#f2_2f" transform="matrix(12,0,0,12,123.3,136.8)" />
<use xlink:href="#f2_1z" transform="matrix(12,0,0,12,130.2,136.8)" />
<use xlink:href="#f2_2b" transform="matrix(12,0,0,12,138.3,136.8)" />
<use xlink:href="#f2_29" transform="matrix(12,0,0,12,148.2,136.8)" />
<use xlink:href="#f2_2l" transform="matrix(12,0,0,12,162.1,136.8)" />
<use xlink:href="#f2_1z" transform="matrix(12,0,0,12,170.9,136.8)" />
<use xlink:href="#f2_21" transform="matrix(12,0,0,12,179,136.8)" />
<use xlink:href="#f2_2g" transform="matrix(12,0,0,12,187,136.8)" />
<use xlink:href="#f2_21" transform="matrix(12,0,0,12,192.5,136.8)" />
<use xlink:href="#f2_2f" transform="matrix(12,0,0,12,200.6,136.8)" />
<use xlink:href="#f2_i" transform="matrix(12,0,0,12,207.5,136.8)" />
<use xlink:href="#f2_16" transform="matrix(12,0,0,12,217.1,136.8)" />
<use xlink:href="#f2_2b" transform="matrix(12,0,0,12,227,136.8)" />
<use xlink:href="#f2_2e" transform="matrix(12,0,0,12,236.6,136.8)" />
<use xlink:href="#f2_21" transform="matrix(12,0,0,12,247.2,136.8)" />
<use xlink:href="#f2_2k" transform="matrix(12,0,0,12,255.2,136.8)" />
<use xlink:href="#f2_1x" transform="matrix(12,0,0,12,264,136.8)" />
<use xlink:href="#f2_29" transform="matrix(12,0,0,12,272.5,136.8)" />
<use xlink:href="#f2_2c" transform="matrix(12,0,0,12,286.4,136.8)" />
<use xlink:href="#f2_28" transform="matrix(12,0,0,12,295.9,136.8)" />
<use xlink:href="#f2_21" transform="matrix(12,0,0,12,300.7,136.8)" />
<use xlink:href="#f2_g" transform="matrix(12,0,0,12,308.7,136.8)" />
<use xlink:href="#f3_1g" transform="matrix(12,0,0,12,318.4,136.8)" />
<use xlink:href="#f3_21" transform="matrix(12,0,0,12,329.4,136.8)" />
<use xlink:href="#f3_2a" transform="matrix(12,0,0,12,337.4,136.8)" />
<use xlink:href="#f3_25" transform="matrix(12,0,0,12,346.6,136.8)" />
<use xlink:href="#f3_1z" transform="matrix(12,0,0,12,351.7,136.8)" />
<use xlink:href="#f3_25" transform="matrix(12,0,0,12,359.8,136.8)" />
<use xlink:href="#f3_28" transform="matrix(12,0,0,12,364.9,136.8)" />
<use xlink:href="#f3_28" transform="matrix(12,0,0,12,370,136.8)" />
<use xlink:href="#f3_25" transform="matrix(12,0,0,12,375.2,136.8)" />
<use xlink:href="#f3_2h" transform="matrix(12,0,0,12,380.3,136.8)" />
<use xlink:href="#f3_29" transform="matrix(12,0,0,12,389.5,136.8)" />
<use xlink:href="#f3_g" transform="matrix(12,0,0,12,402.7,136.8)" />
<use xlink:href="#f3_11" transform="matrix(12,0,0,12,412.2,136.8)" />
<use xlink:href="#f3_2f" transform="matrix(12,0,0,12,423.5,136.8)" />
<use xlink:href="#f3_2c" transform="matrix(12,0,0,12,430.5,136.8)" />
<use xlink:href="#f3_21" transform="matrix(12,0,0,12,439.7,136.8)" />
<use xlink:href="#f3_2e" transform="matrix(12,0,0,12,447.7,136.8)" />
<use xlink:href="#f3_23" transform="matrix(12,0,0,12,454.7,136.8)" />
<use xlink:href="#f3_25" transform="matrix(12,0,0,12,463.9,136.8)" />
<use xlink:href="#f3_28" transform="matrix(12,0,0,12,469,136.8)" />
<use xlink:href="#f3_28" transform="matrix(12,0,0,12,474.1,136.8)" />
<use xlink:href="#f3_2h" transform="matrix(12,0,0,12,479.2,136.8)" />
<use xlink:href="#f3_2f" transform="matrix(12,0,0,12,488.4,136.8)" />
<use xlink:href="#f3_g" transform="matrix(12,0,0,12,495.4,136.8)" />
<use xlink:href="#f3_13" transform="matrix(12,0,0,12,504.9,136.8)" />
<use xlink:href="#f3_28" transform="matrix(12,0,0,12,517,136.8)" />
<use xlink:href="#f3_1x" transform="matrix(12,0,0,12,522.1,136.8)" />
<use xlink:href="#f3_2i" transform="matrix(12,0,0,12,531.2,136.8)" />
<use xlink:href="#f3_25" transform="matrix(12,0,0,12,539.4,136.8)" />
<use xlink:href="#f3_1z" transform="matrix(12,0,0,12,544.5,136.8)" />
<use xlink:href="#f3_21" transform="matrix(12,0,0,12,552.5,136.8)" />
<use xlink:href="#f3_2c" transform="matrix(12,0,0,12,560.6,136.8)" />
<use xlink:href="#f3_2f" transform="matrix(12,0,0,12,569.8,136.8)" />
<use xlink:href="#f2_21" transform="matrix(12,0,0,12,581.7,136.8)" />
<use xlink:href="#f2_2g" transform="matrix(12,0,0,12,589.8,136.8)" />
<use xlink:href="#f2_1z" transform="matrix(12,0,0,12,595.3,136.8)" />
<use xlink:href="#f2_i" transform="matrix(12,0,0,12,603.4,136.8)" />
<use xlink:href="#f1_16" transform="matrix(12,0,0,12,388.8,561.2)" />
<use xlink:href="#f1_25" transform="matrix(12,0,0,12,399.8,561.2)" />
<use xlink:href="#f1_23" transform="matrix(12,0,0,12,404.9,561.2)" />
<use xlink:href="#f1_i" transform="matrix(12,0,0,12,414.1,561.2)" />
<use xlink:href="#f1_l" transform="matrix(12,0,0,12,418.9,561.2)" />
<use xlink:href="#f1_k" transform="matrix(12,0,0,12,428.1,561.2)" />
<use xlink:href="#f1_i" transform="matrix(12,0,0,12,437.2,561.2)" />
<use xlink:href="#f1_11" transform="matrix(12,0,0,12,446.7,561.2)" />
<use xlink:href="#f1_2f" transform="matrix(12,0,0,12,460,561.2)" />
<use xlink:href="#f1_1z" transform="matrix(12,0,0,12,466.9,561.2)" />
<use xlink:href="#f1_2b" transform="matrix(12,0,0,12,474.9,561.2)" />
<use xlink:href="#f1_29" transform="matrix(12,0,0,12,484.1,561.2)" />
<use xlink:href="#f1_2l" transform="matrix(12,0,0,12,499.1,561.2)" />
<use xlink:href="#f1_1z" transform="matrix(12,0,0,12,508.3,561.2)" />
<use xlink:href="#f1_21" transform="matrix(12,0,0,12,516.4,561.2)" />
<use xlink:href="#f1_2g" transform="matrix(12,0,0,12,524.4,561.2)" />
<use xlink:href="#f1_21" transform="matrix(12,0,0,12,530.7,561.2)" />
<use xlink:href="#f1_2f" transform="matrix(12,0,0,12,538.7,561.2)" />
<use xlink:href="#f0_3d" transform="matrix(12,0,0,12,82.5,605.9)" />
<use xlink:href="#f1_12" transform="matrix(12,0,0,12,110,605.9)" />
<use xlink:href="#f1_1x" transform="matrix(12,0,0,12,122.5,605.9)" />
<use xlink:href="#f1_2f" transform="matrix(12,0,0,12,131.7,605.9)" />
<use xlink:href="#f1_25" transform="matrix(12,0,0,12,138.6,605.9)" />
<use xlink:href="#f1_20" transform="matrix(12,0,0,12,143.7,605.9)" />
<use xlink:href="#f1_25" transform="matrix(12,0,0,12,154,605.9)" />
<use xlink:href="#f1_2b" transform="matrix(12,0,0,12,159.1,605.9)" />
<use xlink:href="#f1_29" transform="matrix(12,0,0,12,168.3,605.9)" />
<use xlink:href="#f1_2l" transform="matrix(12,0,0,12,183.3,605.9)" />
<use xlink:href="#f1_1z" transform="matrix(12,0,0,12,192.5,605.9)" />
<use xlink:href="#f1_21" transform="matrix(12,0,0,12,200.6,605.9)" />
<use xlink:href="#f1_2g" transform="matrix(12,0,0,12,208.6,605.9)" />
<use xlink:href="#f1_21" transform="matrix(12,0,0,12,214.8,605.9)" />
<use xlink:href="#f1_2f" transform="matrix(12,0,0,12,222.9,605.9)" />
<use xlink:href="#f1_c" transform="matrix(12,0,0,12,237.7,605.9)" />
<use xlink:href="#f1_1z" transform="matrix(12,0,0,12,243.9,605.9)" />
<use xlink:href="#f1_28" transform="matrix(12,0,0,12,252,605.9)" />
<use xlink:href="#f1_2h" transform="matrix(12,0,0,12,256.7,605.9)" />
<use xlink:href="#f1_1y" transform="matrix(12,0,0,12,267,605.9)" />
<use xlink:href="#f1_22" transform="matrix(12,0,0,12,284.9,605.9)" />
<use xlink:href="#f1_2h" transform="matrix(12,0,0,12,290.8,605.9)" />
<use xlink:href="#f1_2a" transform="matrix(12,0,0,12,301,605.9)" />
<use xlink:href="#f1_23" transform="matrix(12,0,0,12,311.3,605.9)" />
<use xlink:href="#f1_25" transform="matrix(12,0,0,12,320.4,605.9)" />
<use xlink:href="#f1_d" transform="matrix(12,0,0,12,325.5,605.9)" />
<use xlink:href="#f1_h" transform="matrix(12,0,0,12,331.9,605.9)" />
<use xlink:href="#f2_1m" transform="matrix(12,0,0,12,338.2,605.9)" />
<use xlink:href="#f2_21" transform="matrix(12,0,0,12,351.4,605.9)" />
<use xlink:href="#f2_23" transform="matrix(12,0,0,12,359.4,605.9)" />
<use xlink:href="#f2_21" transform="matrix(12,0,0,12,368.6,605.9)" />
<use xlink:href="#f2_2g" transform="matrix(12,0,0,12,376.7,605.9)" />
<use xlink:href="#f2_1x" transform="matrix(12,0,0,12,382.2,605.9)" />
<use xlink:href="#f2_2g" transform="matrix(12,0,0,12,390.2,605.9)" />
<use xlink:href="#f2_25" transform="matrix(12,0,0,12,395.7,605.9)" />
<use xlink:href="#f2_2i" transform="matrix(12,0,0,12,400.5,605.9)" />
<use xlink:href="#f2_21" transform="matrix(12,0,0,12,409.3,605.9)" />
<use xlink:href="#f2_2e" transform="matrix(12,0,0,12,425,605.9)" />
<use xlink:href="#f2_21" transform="matrix(12,0,0,12,431.2,605.9)" />
<use xlink:href="#f2_2c" transform="matrix(12,0,0,12,439.3,605.9)" />
<use xlink:href="#f2_2e" transform="matrix(12,0,0,12,448.5,605.9)" />
<use xlink:href="#f2_2b" transform="matrix(12,0,0,12,454.7,605.9)" />
<use xlink:href="#f2_20" transform="matrix(12,0,0,12,464.2,605.9)" />
<use xlink:href="#f2_2h" transform="matrix(12,0,0,12,473.4,605.9)" />
<use xlink:href="#f2_1z" transform="matrix(12,0,0,12,482.2,605.9)" />
<use xlink:href="#f2_2g" transform="matrix(12,0,0,12,490.2,605.9)" />
<use xlink:href="#f2_25" transform="matrix(12,0,0,12,495.7,605.9)" />
<use xlink:href="#f2_2b" transform="matrix(12,0,0,12,500.1,605.9)" />
<use xlink:href="#f2_2a" transform="matrix(12,0,0,12,509.6,605.9)" />
<use xlink:href="#f2_2b" transform="matrix(12,0,0,12,526.1,605.9)" />
<use xlink:href="#f2_1z" transform="matrix(12,0,0,12,535.6,605.9)" />
<use xlink:href="#f2_1z" transform="matrix(12,0,0,12,543.7,605.9)" />
<use xlink:href="#f2_2h" transform="matrix(12,0,0,12,551.8,605.9)" />
<use xlink:href="#f2_2e" transform="matrix(12,0,0,12,560.9,605.9)" />
<use xlink:href="#f2_2f" transform="matrix(12,0,0,12,567.1,605.9)" />
<use xlink:href="#f2_2g" transform="matrix(12,0,0,12,582.1,605.9)" />
<use xlink:href="#f2_24" transform="matrix(12,0,0,12,587.6,605.9)" />
<use xlink:href="#f2_2e" transform="matrix(12,0,0,12,596.4,605.9)" />
<use xlink:href="#f2_2b" transform="matrix(12,0,0,12,602.6,605.9)" />
<use xlink:href="#f2_2h" transform="matrix(12,0,0,12,612.1,605.9)" />
<use xlink:href="#f2_23" transform="matrix(12,0,0,12,621.3,605.9)" />
<use xlink:href="#f2_24" transform="matrix(12,0,0,12,630.5,605.9)" />
<use xlink:href="#f2_22" transform="matrix(12,0,0,12,647.1,605.9)" />
<use xlink:href="#f2_2e" transform="matrix(12,0,0,12,652.6,605.9)" />
<use xlink:href="#f2_1x" transform="matrix(12,0,0,12,658.8,605.9)" />
<use xlink:href="#f2_23" transform="matrix(12,0,0,12,666.8,605.9)" />
<use xlink:href="#f2_29" transform="matrix(12,0,0,12,676.4,605.9)" />
<use xlink:href="#f2_21" transform="matrix(12,0,0,12,690.3,605.9)" />
<use xlink:href="#f2_2a" transform="matrix(12,0,0,12,698.7,605.9)" />
<use xlink:href="#f2_2g" transform="matrix(12,0,0,12,707.5,605.9)" />
<use xlink:href="#f2_1x" transform="matrix(12,0,0,12,713,605.9)" />
<use xlink:href="#f2_2g" transform="matrix(12,0,0,12,721.1,605.9)" />
<use xlink:href="#f2_25" transform="matrix(12,0,0,12,726.5,605.9)" />
<use xlink:href="#f2_2b" transform="matrix(12,0,0,12,730.9,605.9)" />
<use xlink:href="#f2_2a" transform="matrix(12,0,0,12,740.4,605.9)" />
<use xlink:href="#f2_i" transform="matrix(12,0,0,12,749.2,605.9)" />
<use xlink:href="#f2_11" transform="matrix(12,0,0,12,761.9,605.9)" />
<use xlink:href="#f2_1y" transform="matrix(12,0,0,12,775.1,605.9)" />
<use xlink:href="#f2_2f" transform="matrix(12,0,0,12,784.3,605.9)" />
<use xlink:href="#f2_21" transform="matrix(12,0,0,12,791.2,605.9)" />
<use xlink:href="#f2_2a" transform="matrix(12,0,0,12,799.6,605.9)" />
<use xlink:href="#f2_1z" transform="matrix(12,0,0,12,808.4,605.9)" />
<use xlink:href="#f2_21" transform="matrix(12,0,0,12,816.8,605.9)" />
<use xlink:href="#f2_2b" transform="matrix(12,0,0,12,832.6,605.9)" />
<use xlink:href="#f2_22" transform="matrix(12,0,0,12,842.1,605.9)" />
<use xlink:href="#f2_2f" transform="matrix(12,0,0,12,855.6,605.9)" />
<use xlink:href="#f2_21" transform="matrix(12,0,0,12,862.6,605.9)" />
<use xlink:href="#f2_2k" transform="matrix(12,0,0,12,871,605.9)" />
<use xlink:href="#f2_2b" transform="matrix(12,0,0,12,110,637.8)" />
<use xlink:href="#f2_2e" transform="matrix(12,0,0,12,119.6,637.8)" />
<use xlink:href="#f2_23" transform="matrix(12,0,0,12,125.8,637.8)" />
<use xlink:href="#f2_1x" transform="matrix(12,0,0,12,134.9,637.8)" />
<use xlink:href="#f2_2a" transform="matrix(12,0,0,12,143,637.8)" />
<use xlink:href="#f2_2f" transform="matrix(12,0,0,12,151.8,637.8)" />
<use xlink:href="#f2_i" transform="matrix(12,0,0,12,158.8,637.8)" />
<use xlink:href="#f2_1g" transform="matrix(12,0,0,12,171.9,637.8)" />
<use xlink:href="#f2_28" transform="matrix(12,0,0,12,182.3,637.8)" />
<use xlink:href="#f2_1x" transform="matrix(12,0,0,12,186.7,637.8)" />
<use xlink:href="#f2_2f" transform="matrix(12,0,0,12,195.1,637.8)" />
<use xlink:href="#f2_29" transform="matrix(12,0,0,12,202.4,637.8)" />
<use xlink:href="#f2_2b" transform="matrix(12,0,0,12,216,637.8)" />
<use xlink:href="#f2_23" transform="matrix(12,0,0,12,225.5,637.8)" />
<use xlink:href="#f2_1x" transform="matrix(12,0,0,12,234.7,637.8)" />
<use xlink:href="#f2_29" transform="matrix(12,0,0,12,243.1,637.8)" />
<use xlink:href="#f2_2l" transform="matrix(12,0,0,12,257.4,637.8)" />
<use xlink:href="#f2_1y" transform="matrix(12,0,0,12,274.6,637.8)" />
<use xlink:href="#f2_21" transform="matrix(12,0,0,12,283.8,637.8)" />
<use xlink:href="#f2_2g" transform="matrix(12,0,0,12,291.9,637.8)" />
<use xlink:href="#f2_2j" transform="matrix(12,0,0,12,297.3,637.8)" />
<use xlink:href="#f2_21" transform="matrix(12,0,0,12,310.6,637.8)" />
<use xlink:href="#f2_21" transform="matrix(12,0,0,12,318.6,637.8)" />
<use xlink:href="#f2_2a" transform="matrix(12,0,0,12,326.7,637.8)" />
<use xlink:href="#f2_2g" transform="matrix(12,0,0,12,343.9,637.8)" />
<use xlink:href="#f2_2j" transform="matrix(12,0,0,12,349.4,637.8)" />
<use xlink:href="#f2_2b" transform="matrix(12,0,0,12,362.6,637.8)" />
<use xlink:href="#f2_2i" transform="matrix(12,0,0,12,380.1,637.8)" />
<use xlink:href="#f2_21" transform="matrix(12,0,0,12,388.9,637.8)" />
<use xlink:href="#f2_23" transform="matrix(12,0,0,12,397,637.8)" />
<use xlink:href="#f2_21" transform="matrix(12,0,0,12,406.2,637.8)" />
<use xlink:href="#f2_2g" transform="matrix(12,0,0,12,414.2,637.8)" />
<use xlink:href="#f2_1x" transform="matrix(12,0,0,12,419.7,637.8)" />
<use xlink:href="#f2_2g" transform="matrix(12,0,0,12,427.8,637.8)" />
<use xlink:href="#f2_25" transform="matrix(12,0,0,12,433.3,637.8)" />
<use xlink:href="#f2_2i" transform="matrix(12,0,0,12,438,637.8)" />
<use xlink:href="#f2_21" transform="matrix(12,0,0,12,446.8,637.8)" />
<use xlink:href="#f2_2b" transform="matrix(12,0,0,12,463.3,637.8)" />
<use xlink:href="#f2_2e" transform="matrix(12,0,0,12,472.8,637.8)" />
<use xlink:href="#f2_2f" transform="matrix(12,0,0,12,487.1,637.8)" />
<use xlink:href="#f2_2b" transform="matrix(12,0,0,12,494.1,637.8)" />
<use xlink:href="#f2_29" transform="matrix(12,0,0,12,503.6,637.8)" />
<use xlink:href="#f2_1x" transform="matrix(12,0,0,12,517.2,637.8)" />
<use xlink:href="#f2_2g" transform="matrix(12,0,0,12,525.2,637.8)" />
<use xlink:href="#f2_25" transform="matrix(12,0,0,12,531.1,637.8)" />
<use xlink:href="#f2_1z" transform="matrix(12,0,0,12,535.5,637.8)" />
<use xlink:href="#f2_1z" transform="matrix(12,0,0,12,552,637.8)" />
<use xlink:href="#f2_21" transform="matrix(12,0,0,12,560,637.8)" />
<use xlink:href="#f2_28" transform="matrix(12,0,0,12,568.4,637.8)" />
<use xlink:href="#f2_28" transform="matrix(12,0,0,12,573.5,637.8)" />
<use xlink:href="#f2_2f" transform="matrix(12,0,0,12,578.3,637.8)" />
<use xlink:href="#f2_2e" transform="matrix(12,0,0,12,594.2,637.8)" />
<use xlink:href="#f2_21" transform="matrix(12,0,0,12,600.4,637.8)" />
<use xlink:href="#f2_2f" transform="matrix(12,0,0,12,608.5,637.8)" />
<use xlink:href="#f2_2h" transform="matrix(12,0,0,12,615.5,637.8)" />
<use xlink:href="#f2_28" transform="matrix(12,0,0,12,625,637.8)" />
<use xlink:href="#f2_2g" transform="matrix(12,0,0,12,629.4,637.8)" />
<use xlink:href="#f2_2f" transform="matrix(12,0,0,12,635.2,637.8)" />
<use xlink:href="#f2_25" transform="matrix(12,0,0,12,651,637.8)" />
<use xlink:href="#f2_2a" transform="matrix(12,0,0,12,655.7,637.8)" />
<use xlink:href="#f2_2g" transform="matrix(12,0,0,12,673,637.8)" />
<use xlink:href="#f2_24" transform="matrix(12,0,0,12,678.4,637.8)" />
<use xlink:href="#f2_21" transform="matrix(12,0,0,12,687.2,637.8)" />
<use xlink:href="#f2_22" transform="matrix(12,0,0,12,704.1,637.8)" />
<use xlink:href="#f2_2b" transform="matrix(12,0,0,12,709.6,637.8)" />
<use xlink:href="#f2_2e" transform="matrix(12,0,0,12,719.1,637.8)" />
<use xlink:href="#f2_29" transform="matrix(12,0,0,12,725.7,637.8)" />
<use xlink:href="#f2_1x" transform="matrix(12,0,0,12,739.2,637.8)" />
<use xlink:href="#f2_2g" transform="matrix(12,0,0,12,747.3,637.8)" />
<use xlink:href="#f2_25" transform="matrix(12,0,0,12,753.2,637.8)" />
<use xlink:href="#f2_2b" transform="matrix(12,0,0,12,757.6,637.8)" />
<use xlink:href="#f2_2a" transform="matrix(12,0,0,12,767.1,637.8)" />
<use xlink:href="#f2_2b" transform="matrix(12,0,0,12,784.3,637.8)" />
<use xlink:href="#f2_22" transform="matrix(12,0,0,12,793.8,637.8)" />
<use xlink:href="#f2_1y" transform="matrix(12,0,0,12,808.4,637.8)" />
<use xlink:href="#f2_1x" transform="matrix(12,0,0,12,817.2,637.8)" />
<use xlink:href="#f2_2f" transform="matrix(12,0,0,12,825.3,637.8)" />
<use xlink:href="#f2_25" transform="matrix(12,0,0,12,832.6,637.8)" />
<use xlink:href="#f2_20" transform="matrix(12,0,0,12,837.4,637.8)" />
<use xlink:href="#f2_25" transform="matrix(12,0,0,12,846.9,637.8)" />
<use xlink:href="#f2_2h" transform="matrix(12,0,0,12,852,637.8)" />
<use xlink:href="#f2_29" transform="matrix(12,0,0,12,861.5,637.8)" />
<use xlink:href="#f2_i" transform="matrix(12,0,0,12,875.1,637.8)" />
<use xlink:href="#f2_12" transform="matrix(12,0,0,12,110,669.4)" />
<use xlink:href="#f2_1x" transform="matrix(12,0,0,12,122.1,669.4)" />
<use xlink:href="#f2_2f" transform="matrix(12,0,0,12,130.2,669.4)" />
<use xlink:href="#f2_25" transform="matrix(12,0,0,12,137.5,669.4)" />
<use xlink:href="#f2_20" transform="matrix(12,0,0,12,142.3,669.4)" />
<use xlink:href="#f2_25" transform="matrix(12,0,0,12,151.8,669.4)" />
<use xlink:href="#f2_2h" transform="matrix(12,0,0,12,156.6,669.4)" />
<use xlink:href="#f2_29" transform="matrix(12,0,0,12,166.1,669.4)" />
<use xlink:href="#f2_2h" transform="matrix(12,0,0,12,191.7,669.4)" />
<use xlink:href="#f2_2a" transform="matrix(12,0,0,12,201.2,669.4)" />
<use xlink:href="#f2_20" transform="matrix(12,0,0,12,210,669.4)" />
<use xlink:href="#f2_21" transform="matrix(12,0,0,12,219.2,669.4)" />
<use xlink:href="#f2_2e" transform="matrix(12,0,0,12,227.3,669.4)" />
<use xlink:href="#f2_23" transform="matrix(12,0,0,12,233.5,669.4)" />
<use xlink:href="#f2_2b" transform="matrix(12,0,0,12,242.7,669.4)" />
<use xlink:href="#f2_27" transform="matrix(12,0,0,12,264.3,669.4)" />
<use xlink:href="#f2_1x" transform="matrix(12,0,0,12,273.4,669.4)" />
<use xlink:href="#f2_2e" transform="matrix(12,0,0,12,281.5,669.4)" />
<use xlink:href="#f2_2l" transform="matrix(12,0,0,12,287.7,669.4)" />
<use xlink:href="#f2_2b" transform="matrix(12,0,0,12,296.1,669.4)" />
<use xlink:href="#f2_23" transform="matrix(12,0,0,12,305.7,669.4)" />
<use xlink:href="#f2_1x" transform="matrix(12,0,0,12,314.8,669.4)" />
<use xlink:href="#f2_29" transform="matrix(12,0,0,12,323.2,669.4)" />
<use xlink:href="#f2_2l" transform="matrix(12,0,0,12,337.5,669.4)" />
<use xlink:href="#f2_1x" transform="matrix(12,0,0,12,358,669.4)" />
<use xlink:href="#f2_2a" transform="matrix(12,0,0,12,366.5,669.4)" />
<use xlink:href="#f2_20" transform="matrix(12,0,0,12,375.3,669.4)" />
<use xlink:href="#f2_29" transform="matrix(12,0,0,12,396.9,669.4)" />
<use xlink:href="#f2_21" transform="matrix(12,0,0,12,410.8,669.4)" />
<use xlink:href="#f2_25" transform="matrix(12,0,0,12,419.2,669.4)" />
<use xlink:href="#f2_2b" transform="matrix(12,0,0,12,423.6,669.4)" />
<use xlink:href="#f2_2f" transform="matrix(12,0,0,12,433.1,669.4)" />
<use xlink:href="#f2_25" transform="matrix(12,0,0,12,440.5,669.4)" />
<use xlink:href="#f2_2f" transform="matrix(12,0,0,12,445.2,669.4)" />
<use xlink:href="#f2_2g" transform="matrix(12,0,0,12,464.3,669.4)" />
<use xlink:href="#f2_2b" transform="matrix(12,0,0,12,469.8,669.4)" />
<use xlink:href="#f2_22" transform="matrix(12,0,0,12,491.5,669.4)" />
<use xlink:href="#f2_2b" transform="matrix(12,0,0,12,497,669.4)" />
<use xlink:href="#f2_2e" transform="matrix(12,0,0,12,506.5,669.4)" />
<use xlink:href="#f2_29" transform="matrix(12,0,0,12,513.1,669.4)" />
<use xlink:href="#f2_22" transform="matrix(12,0,0,12,539.1,669.4)" />
<use xlink:href="#f2_2b" transform="matrix(12,0,0,12,544.6,669.4)" />
<use xlink:href="#f2_2h" transform="matrix(12,0,0,12,554.1,669.4)" />
<use xlink:href="#f2_2e" transform="matrix(12,0,0,12,563.3,669.4)" />
<use xlink:href="#f2_1y" transform="matrix(12,0,0,12,581.7,669.4)" />
<use xlink:href="#f2_1x" transform="matrix(12,0,0,12,590.5,669.4)" />
<use xlink:href="#f2_2f" transform="matrix(12,0,0,12,598.6,669.4)" />
<use xlink:href="#f2_25" transform="matrix(12,0,0,12,605.9,669.4)" />
<use xlink:href="#f2_20" transform="matrix(12,0,0,12,610.7,669.4)" />
<use xlink:href="#f2_25" transform="matrix(12,0,0,12,620.2,669.4)" />
<use xlink:href="#f2_2b" transform="matrix(12,0,0,12,624.6,669.4)" />
<use xlink:href="#f2_2f" transform="matrix(12,0,0,12,634.1,669.4)" />
<use xlink:href="#f2_2c" transform="matrix(12,0,0,12,641.1,669.4)" />
<use xlink:href="#f2_2b" transform="matrix(12,0,0,12,650.3,669.4)" />
<use xlink:href="#f2_2e" transform="matrix(12,0,0,12,659.8,669.4)" />
<use xlink:href="#f2_21" transform="matrix(12,0,0,12,666,669.4)" />
<use xlink:href="#f2_2f" transform="matrix(12,0,0,12,674.1,669.4)" />
<use xlink:href="#f2_i" transform="matrix(12,0,0,12,681,669.4)" />
<use xlink:href="#f2_16" transform="matrix(12,0,0,12,698,669.4)" />
<use xlink:href="#f2_2b" transform="matrix(12,0,0,12,707.9,669.4)" />
<use xlink:href="#f2_2e" transform="matrix(12,0,0,12,717.4,669.4)" />
<use xlink:href="#f2_21" transform="matrix(12,0,0,12,735.7,669.4)" />
<use xlink:href="#f2_2k" transform="matrix(12,0,0,12,743.8,669.4)" />
<use xlink:href="#f2_1x" transform="matrix(12,0,0,12,752.6,669.4)" />
<use xlink:href="#f2_29" transform="matrix(12,0,0,12,761,669.4)" />
<use xlink:href="#f2_2c" transform="matrix(12,0,0,12,774.6,669.4)" />
<use xlink:href="#f2_28" transform="matrix(12,0,0,12,784.1,669.4)" />
<use xlink:href="#f2_21" transform="matrix(12,0,0,12,788.9,669.4)" />
<use xlink:href="#f2_g" transform="matrix(12,0,0,12,796.9,669.4)" />
<use xlink:href="#f3_11" transform="matrix(12,0,0,12,813.9,669.4)" />
<use xlink:href="#f3_23" transform="matrix(12,0,0,12,825.3,669.4)" />
<use xlink:href="#f3_1x" transform="matrix(12,0,0,12,834.4,669.4)" />
<use xlink:href="#f3_2e" transform="matrix(12,0,0,12,843.6,669.4)" />
<use xlink:href="#f3_25" transform="matrix(12,0,0,12,850.6,669.4)" />
<use xlink:href="#f3_1z" transform="matrix(12,0,0,12,855.7,669.4)" />
<use xlink:href="#f3_2h" transform="matrix(12,0,0,12,863.8,669.4)" />
<use xlink:href="#f3_2f" transform="matrix(12,0,0,12,873,669.4)" />
<use xlink:href="#f2_c" transform="matrix(12,0,0,12,110,701.3)" />
<use xlink:href="#f2_29" transform="matrix(12,0,0,12,116.6,701.3)" />
<use xlink:href="#f2_2h" transform="matrix(12,0,0,12,130.2,701.3)" />
<use xlink:href="#f2_2f" transform="matrix(12,0,0,12,139.4,701.3)" />
<use xlink:href="#f2_24" transform="matrix(12,0,0,12,146.7,701.3)" />
<use xlink:href="#f2_2e" transform="matrix(12,0,0,12,155.5,701.3)" />
<use xlink:href="#f2_2b" transform="matrix(12,0,0,12,161.7,701.3)" />
<use xlink:href="#f2_2b" transform="matrix(12,0,0,12,171.2,701.3)" />
<use xlink:href="#f2_29" transform="matrix(12,0,0,12,180.7,701.3)" />
<use xlink:href="#f2_2f" transform="matrix(12,0,0,12,194.3,701.3)" />
<use xlink:href="#f2_d" transform="matrix(12,0,0,12,201.2,701.3)" />
<use xlink:href="#f2_g" transform="matrix(12,0,0,12,207.5,701.3)" />
<use xlink:href="#f3_1l" transform="matrix(12,0,0,12,217.1,701.3)" />
<use xlink:href="#f3_2f" transform="matrix(12,0,0,12,230.4,701.3)" />
<use xlink:href="#f3_2g" transform="matrix(12,0,0,12,237.3,701.3)" />
<use xlink:href="#f3_25" transform="matrix(12,0,0,12,242.4,701.3)" />
<use xlink:href="#f3_28" transform="matrix(12,0,0,12,247.6,701.3)" />
<use xlink:href="#f3_1x" transform="matrix(12,0,0,12,252.7,701.3)" />
<use xlink:href="#f3_23" transform="matrix(12,0,0,12,261.8,701.3)" />
<use xlink:href="#f3_2b" transform="matrix(12,0,0,12,271,701.3)" />
<use xlink:href="#f2_c" transform="matrix(12,0,0,12,285,701.3)" />
<use xlink:href="#f2_2f" transform="matrix(12,0,0,12,291.2,701.3)" />
<use xlink:href="#f2_29" transform="matrix(12,0,0,12,298.2,701.3)" />
<use xlink:href="#f2_2h" transform="matrix(12,0,0,12,311.8,701.3)" />
<use xlink:href="#f2_2g" transform="matrix(12,0,0,12,320.9,701.3)" />
<use xlink:href="#f2_d" transform="matrix(12,0,0,12,326.4,701.3)" />
<use xlink:href="#f2_21" transform="matrix(12,0,0,12,337.4,701.3)" />
<use xlink:href="#f2_2g" transform="matrix(12,0,0,12,345.1,701.3)" />
<use xlink:href="#f2_1z" transform="matrix(12,0,0,12,350.5,701.3)" />
<use xlink:href="#f2_i" transform="matrix(12,0,0,12,358.6,701.3)" />
<use xlink:href="#f1_16" transform="matrix(12,0,0,12,404.6,1041.6)" />
<use xlink:href="#f1_25" transform="matrix(12,0,0,12,415.6,1041.6)" />
<use xlink:href="#f1_23" transform="matrix(12,0,0,12,420.7,1041.6)" />
<use xlink:href="#f1_i" transform="matrix(12,0,0,12,429.8,1041.6)" />
<use xlink:href="#f1_l" transform="matrix(12,0,0,12,434.6,1041.6)" />
<use xlink:href="#f1_l" transform="matrix(12,0,0,12,443.8,1041.6)" />
<use xlink:href="#f1_i" transform="matrix(12,0,0,12,453,1041.6)" />
<use xlink:href="#f4_11" transform="matrix(12,0,0,12,462.5,1041.6)" />
<use xlink:href="#f4_23" transform="matrix(12,0,0,12,474.6,1041.6)" />
<use xlink:href="#f4_1x" transform="matrix(12,0,0,12,483.8,1041.6)" />
<use xlink:href="#f4_2e" transform="matrix(12,0,0,12,493,1041.6)" />
<use xlink:href="#f4_25" transform="matrix(12,0,0,12,499.9,1041.6)" />
<use xlink:href="#f4_1z" transform="matrix(12,0,0,12,505,1041.6)" />
<use xlink:href="#f4_2h" transform="matrix(12,0,0,12,513.2,1041.6)" />
<use xlink:href="#f4_2f" transform="matrix(12,0,0,12,523.4,1041.6)" />
<use xlink:href="#f0_3d" transform="matrix(12,0,0,12,82.5,1086.7)" />
<use xlink:href="#f1_14" transform="matrix(12,0,0,12,110,1086.7)" />
<use xlink:href="#f1_21" transform="matrix(12,0,0,12,123.3,1086.7)" />
<use xlink:href="#f1_2h" transform="matrix(12,0,0,12,131.3,1086.7)" />
<use xlink:href="#f1_2g" transform="matrix(12,0,0,12,141.6,1086.7)" />
<use xlink:href="#f1_21" transform="matrix(12,0,0,12,147.8,1086.7)" />
<use xlink:href="#f1_2e" transform="matrix(12,0,0,12,155.8,1086.7)" />
<use xlink:href="#f1_2b" transform="matrix(12,0,0,12,163.5,1086.7)" />
<use xlink:href="#f1_29" transform="matrix(12,0,0,12,173,1086.7)" />
<use xlink:href="#f1_2l" transform="matrix(12,0,0,12,188.1,1086.7)" />
<use xlink:href="#f1_1z" transform="matrix(12,0,0,12,197.2,1086.7)" />
<use xlink:href="#f1_21" transform="matrix(12,0,0,12,205.3,1086.7)" />
<use xlink:href="#f1_2g" transform="matrix(12,0,0,12,213.4,1086.7)" />
<use xlink:href="#f1_21" transform="matrix(12,0,0,12,219.6,1086.7)" />
<use xlink:href="#f1_2f" transform="matrix(12,0,0,12,227.7,1086.7)" />
<use xlink:href="#f1_1x" transform="matrix(12,0,0,12,239.1,1086.7)" />
<use xlink:href="#f1_2e" transform="matrix(12,0,0,12,248.7,1086.7)" />
<use xlink:href="#f1_21" transform="matrix(12,0,0,12,256.7,1086.7)" />
<use xlink:href="#f2_1z" transform="matrix(12,0,0,12,269.2,1086.7)" />
<use xlink:href="#f2_2b" transform="matrix(12,0,0,12,277.3,1086.7)" />
<use xlink:href="#f2_29" transform="matrix(12,0,0,12,287.2,1086.7)" />
<use xlink:href="#f2_29" transform="matrix(12,0,0,12,301.1,1086.7)" />
<use xlink:href="#f2_2b" transform="matrix(12,0,0,12,314.7,1086.7)" />
<use xlink:href="#f2_2a" transform="matrix(12,0,0,12,324.6,1086.7)" />
<use xlink:href="#f2_28" transform="matrix(12,0,0,12,333.7,1086.7)" />
<use xlink:href="#f2_2l" transform="matrix(12,0,0,12,338.5,1086.7)" />
<use xlink:href="#f2_27" transform="matrix(12,0,0,12,351.7,1086.7)" />
<use xlink:href="#f2_2a" transform="matrix(12,0,0,12,361.2,1086.7)" />
<use xlink:href="#f2_2b" transform="matrix(12,0,0,12,370,1086.7)" />
<use xlink:href="#f2_2j" transform="matrix(12,0,0,12,379.5,1086.7)" />
<use xlink:href="#f2_2a" transform="matrix(12,0,0,12,392.8,1086.7)" />
<use xlink:href="#f2_1x" transform="matrix(12,0,0,12,405.9,1086.7)" />
<use xlink:href="#f2_2f" transform="matrix(12,0,0,12,414.3,1086.7)" />
<use xlink:href="#f3_25" transform="matrix(12,0,0,12,425.9,1086.7)" />
<use xlink:href="#f3_29" transform="matrix(12,0,0,12,430.9,1086.7)" />
<use xlink:href="#f3_2c" transform="matrix(12,0,0,12,444.2,1086.7)" />
<use xlink:href="#f3_21" transform="matrix(12,0,0,12,453.4,1086.7)" />
<use xlink:href="#f3_2e" transform="matrix(12,0,0,12,461.4,1086.7)" />
<use xlink:href="#f3_22" transform="matrix(12,0,0,12,468.4,1086.7)" />
<use xlink:href="#f3_21" transform="matrix(12,0,0,12,473.9,1086.7)" />
<use xlink:href="#f3_1z" transform="matrix(12,0,0,12,482.3,1086.7)" />
<use xlink:href="#f3_2g" transform="matrix(12,0,0,12,490.3,1086.7)" />
<use xlink:href="#f3_22" transform="matrix(12,0,0,12,499.9,1086.7)" />
<use xlink:href="#f3_2h" transform="matrix(12,0,0,12,505.4,1086.7)" />
<use xlink:href="#f3_2a" transform="matrix(12,0,0,12,514.5,1086.7)" />
<use xlink:href="#f3_23" transform="matrix(12,0,0,12,523.7,1086.7)" />
<use xlink:href="#f3_25" transform="matrix(12,0,0,12,532.9,1086.7)" />
<use xlink:href="#f2_1x" transform="matrix(12,0,0,12,542.5,1086.7)" />
<use xlink:href="#f2_2f" transform="matrix(12,0,0,12,550.5,1086.7)" />
<use xlink:href="#f2_2g" transform="matrix(12,0,0,12,561.5,1086.7)" />
<use xlink:href="#f2_24" transform="matrix(12,0,0,12,567,1086.7)" />
<use xlink:href="#f2_21" transform="matrix(12,0,0,12,575.8,1086.7)" />
<use xlink:href="#f2_2l" transform="matrix(12,0,0,12,584.2,1086.7)" />
<use xlink:href="#f2_20" transform="matrix(12,0,0,12,597.1,1086.7)" />
<use xlink:href="#f2_2b" transform="matrix(12,0,0,12,606.3,1086.7)" />
<use xlink:href="#f2_2a" transform="matrix(12,0,0,12,620.2,1086.7)" />
<use xlink:href="#f2_2b" transform="matrix(12,0,0,12,629,1086.7)" />
<use xlink:href="#f2_2g" transform="matrix(12,0,0,12,638.5,1086.7)" />
<use xlink:href="#f2_24" transform="matrix(12,0,0,12,648.4,1086.7)" />
<use xlink:href="#f2_1x" transform="matrix(12,0,0,12,657.2,1086.7)" />
<use xlink:href="#f2_2i" transform="matrix(12,0,0,12,665.3,1086.7)" />
<use xlink:href="#f2_21" transform="matrix(12,0,0,12,674.1,1086.7)" />
<use xlink:href="#f2_2f" transform="matrix(12,0,0,12,687,1086.7)" />
<use xlink:href="#f2_21" transform="matrix(12,0,0,12,694,1086.7)" />
<use xlink:href="#f2_2k" transform="matrix(12,0,0,12,702.4,1086.7)" />
<use xlink:href="#f2_2h" transform="matrix(12,0,0,12,711.2,1086.7)" />
<use xlink:href="#f2_1x" transform="matrix(12,0,0,12,720.4,1086.7)" />
<use xlink:href="#f2_28" transform="matrix(12,0,0,12,728.8,1086.7)" />
<use xlink:href="#f2_2e" transform="matrix(12,0,0,12,738,1086.7)" />
<use xlink:href="#f2_21" transform="matrix(12,0,0,12,744.2,1086.7)" />
<use xlink:href="#f2_2c" transform="matrix(12,0,0,12,752.2,1086.7)" />
<use xlink:href="#f2_2e" transform="matrix(12,0,0,12,761.4,1086.7)" />
<use xlink:href="#f2_2b" transform="matrix(12,0,0,12,767.6,1086.7)" />
<use xlink:href="#f2_20" transform="matrix(12,0,0,12,777.1,1086.7)" />
<use xlink:href="#f2_2h" transform="matrix(12,0,0,12,786.3,1086.7)" />
<use xlink:href="#f2_1z" transform="matrix(12,0,0,12,795.5,1086.7)" />
<use xlink:href="#f2_2g" transform="matrix(12,0,0,12,803.2,1086.7)" />
<use xlink:href="#f2_25" transform="matrix(12,0,0,12,808.6,1086.7)" />
<use xlink:href="#f2_2b" transform="matrix(12,0,0,12,813,1086.7)" />
<use xlink:href="#f2_2a" transform="matrix(12,0,0,12,822.6,1086.7)" />
<use xlink:href="#f2_1x" transform="matrix(12,0,0,12,835.9,1086.7)" />
<use xlink:href="#f2_2g" transform="matrix(12,0,0,12,844,1086.7)" />
<use xlink:href="#f2_1x" transform="matrix(12,0,0,12,853.9,1086.7)" />
<use xlink:href="#f2_2a" transform="matrix(12,0,0,12,861.9,1086.7)" />
<use xlink:href="#f2_2l" transform="matrix(12,0,0,12,871.1,1086.7)" />
<use xlink:href="#f2_2f" transform="matrix(12,0,0,12,110,1118.3)" />
<use xlink:href="#f2_2g" transform="matrix(12,0,0,12,117,1118.3)" />
<use xlink:href="#f2_1x" transform="matrix(12,0,0,12,122.5,1118.3)" />
<use xlink:href="#f2_23" transform="matrix(12,0,0,12,130.6,1118.3)" />
<use xlink:href="#f2_21" transform="matrix(12,0,0,12,139.7,1118.3)" />
<use xlink:href="#f2_2b" transform="matrix(12,0,0,12,154.4,1118.3)" />
<use xlink:href="#f2_22" transform="matrix(12,0,0,12,163.9,1118.3)" />
<use xlink:href="#f2_2g" transform="matrix(12,0,0,12,176.3,1118.3)" />
<use xlink:href="#f2_24" transform="matrix(12,0,0,12,181.8,1118.3)" />
<use xlink:href="#f2_21" transform="matrix(12,0,0,12,190.6,1118.3)" />
<use xlink:href="#f2_28" transform="matrix(12,0,0,12,206,1118.3)" />
<use xlink:href="#f2_25" transform="matrix(12,0,0,12,210.8,1118.3)" />
<use xlink:href="#f2_22" transform="matrix(12,0,0,12,215.5,1118.3)" />
<use xlink:href="#f2_21" transform="matrix(12,0,0,12,221.4,1118.3)" />
<use xlink:href="#f2_i" transform="matrix(12,0,0,12,229.6,1118.3)" />
<use xlink:href="#f2_1k" transform="matrix(12,0,0,12,241.3,1118.3)" />
<use xlink:href="#f2_24" transform="matrix(12,0,0,12,252.7,1118.3)" />
<use xlink:href="#f2_21" transform="matrix(12,0,0,12,261.5,1118.3)" />
<use xlink:href="#f2_1x" transform="matrix(12,0,0,12,276.5,1118.3)" />
<use xlink:href="#f2_2f" transform="matrix(12,0,0,12,284.5,1118.3)" />
<use xlink:href="#f2_21" transform="matrix(12,0,0,12,291.5,1118.3)" />
<use xlink:href="#f2_2k" transform="matrix(12,0,0,12,299.9,1118.3)" />
<use xlink:href="#f2_2h" transform="matrix(12,0,0,12,308.7,1118.3)" />
<use xlink:href="#f2_1x" transform="matrix(12,0,0,12,318.2,1118.3)" />
<use xlink:href="#f2_28" transform="matrix(12,0,0,12,326.6,1118.3)" />
<use xlink:href="#f2_2e" transform="matrix(12,0,0,12,338,1118.3)" />
<use xlink:href="#f2_21" transform="matrix(12,0,0,12,344.2,1118.3)" />
<use xlink:href="#f2_2c" transform="matrix(12,0,0,12,352.3,1118.3)" />
<use xlink:href="#f2_2e" transform="matrix(12,0,0,12,361.4,1118.3)" />
<use xlink:href="#f2_2b" transform="matrix(12,0,0,12,367.7,1118.3)" />
<use xlink:href="#f2_20" transform="matrix(12,0,0,12,377.2,1118.3)" />
<use xlink:href="#f2_2h" transform="matrix(12,0,0,12,386.3,1118.3)" />
<use xlink:href="#f2_1z" transform="matrix(12,0,0,12,395.5,1118.3)" />
<use xlink:href="#f2_2g" transform="matrix(12,0,0,12,403.6,1118.3)" />
<use xlink:href="#f2_25" transform="matrix(12,0,0,12,409.1,1118.3)" />
<use xlink:href="#f2_2b" transform="matrix(12,0,0,12,413.5,1118.3)" />
<use xlink:href="#f2_2a" transform="matrix(12,0,0,12,423,1118.3)" />
<use xlink:href="#f2_2b" transform="matrix(12,0,0,12,438.7,1118.3)" />
<use xlink:href="#f2_1z" transform="matrix(12,0,0,12,448.2,1118.3)" />
<use xlink:href="#f2_1z" transform="matrix(12,0,0,12,456.3,1118.3)" />
<use xlink:href="#f2_2h" transform="matrix(12,0,0,12,464.4,1118.3)" />
<use xlink:href="#f2_2e" transform="matrix(12,0,0,12,473.5,1118.3)" />
<use xlink:href="#f2_2f" transform="matrix(12,0,0,12,479.4,1118.3)" />
<use xlink:href="#f2_1y" transform="matrix(12,0,0,12,493.3,1118.3)" />
<use xlink:href="#f2_2l" transform="matrix(12,0,0,12,502.5,1118.3)" />
<use xlink:href="#f2_1z" transform="matrix(12,0,0,12,518.2,1118.3)" />
<use xlink:href="#f2_2b" transform="matrix(12,0,0,12,526.3,1118.3)" />
<use xlink:href="#f2_2a" transform="matrix(12,0,0,12,535.8,1118.3)" />
<use xlink:href="#f2_25" transform="matrix(12,0,0,12,545,1118.3)" />
<use xlink:href="#f2_20" transform="matrix(12,0,0,12,549.4,1118.3)" />
<use xlink:href="#f2_25" transform="matrix(12,0,0,12,558.9,1118.3)" />
<use xlink:href="#f2_1x" transform="matrix(12,0,0,12,563.7,1118.3)" />
<use xlink:href="#f2_i" transform="matrix(12,0,0,12,571.7,1118.3)" />
<use xlink:href="#f2_1d" transform="matrix(12,0,0,12,583.9,1118.3)" />
<use xlink:href="#f2_2l" transform="matrix(12,0,0,12,600.4,1118.3)" />
<use xlink:href="#f2_1z" transform="matrix(12,0,0,12,609.2,1118.3)" />
<use xlink:href="#f2_21" transform="matrix(12,0,0,12,617.3,1118.3)" />
<use xlink:href="#f2_28" transform="matrix(12,0,0,12,625.7,1118.3)" />
<use xlink:href="#f2_25" transform="matrix(12,0,0,12,630.8,1118.3)" />
<use xlink:href="#f2_2h" transform="matrix(12,0,0,12,635.6,1118.3)" />
<use xlink:href="#f2_29" transform="matrix(12,0,0,12,645.1,1118.3)" />
<use xlink:href="#f2_25" transform="matrix(12,0,0,12,666,1118.3)" />
<use xlink:href="#f2_2f" transform="matrix(12,0,0,12,670.8,1118.3)" />
<use xlink:href="#f2_2f" transform="matrix(12,0,0,12,685.1,1118.3)" />
<use xlink:href="#f2_21" transform="matrix(12,0,0,12,692,1118.3)" />
<use xlink:href="#f2_2c" transform="matrix(12,0,0,12,700.1,1118.3)" />
<use xlink:href="#f2_2g" transform="matrix(12,0,0,12,709.3,1118.3)" />
<use xlink:href="#f2_1x" transform="matrix(12,0,0,12,714.7,1118.3)" />
<use xlink:href="#f2_2g" transform="matrix(12,0,0,12,722.8,1118.3)" />
<use xlink:href="#f2_21" transform="matrix(12,0,0,12,728.3,1118.3)" />
<use xlink:href="#f2_1x" transform="matrix(12,0,0,12,743.3,1118.3)" />
<use xlink:href="#f2_2a" transform="matrix(12,0,0,12,751.4,1118.3)" />
<use xlink:href="#f2_20" transform="matrix(12,0,0,12,760.2,1118.3)" />
<use xlink:href="#f2_1y" transform="matrix(12,0,0,12,776.3,1118.3)" />
<use xlink:href="#f2_2e" transform="matrix(12,0,0,12,785.1,1118.3)" />
<use xlink:href="#f2_1x" transform="matrix(12,0,0,12,791.3,1118.3)" />
<use xlink:href="#f2_2a" transform="matrix(12,0,0,12,799.4,1118.3)" />
<use xlink:href="#f2_1z" transform="matrix(12,0,0,12,808.2,1118.3)" />
<use xlink:href="#f2_24" transform="matrix(12,0,0,12,816.6,1118.3)" />
<use xlink:href="#f2_21" transform="matrix(12,0,0,12,825.4,1118.3)" />
<use xlink:href="#f2_20" transform="matrix(12,0,0,12,833.4,1118.3)" />
<use xlink:href="#f2_i" transform="matrix(12,0,0,12,842.6,1118.3)" />
<use xlink:href="#f2_16" transform="matrix(12,0,0,12,854.7,1118.3)" />
<use xlink:href="#f2_2b" transform="matrix(12,0,0,12,864.6,1118.3)" />
<use xlink:href="#f2_2e" transform="matrix(12,0,0,12,874.1,1118.3)" />
<use xlink:href="#f2_21" transform="matrix(12,0,0,12,110,1150.2)" />
<use xlink:href="#f2_2k" transform="matrix(12,0,0,12,118.1,1150.2)" />
<use xlink:href="#f2_1x" transform="matrix(12,0,0,12,126.9,1150.2)" />
<use xlink:href="#f2_29" transform="matrix(12,0,0,12,135.3,1150.2)" />
<use xlink:href="#f2_2c" transform="matrix(12,0,0,12,149.3,1150.2)" />
<use xlink:href="#f2_28" transform="matrix(12,0,0,12,158.8,1150.2)" />
<use xlink:href="#f2_21" transform="matrix(12,0,0,12,163.5,1150.2)" />
<use xlink:href="#f2_g" transform="matrix(12,0,0,12,171.6,1150.2)" />
<use xlink:href="#f3_11" transform="matrix(12,0,0,12,181.2,1150.2)" />
<use xlink:href="#f3_28" transform="matrix(12,0,0,12,192.6,1150.2)" />
<use xlink:href="#f3_2g" transform="matrix(12,0,0,12,197.7,1150.2)" />
<use xlink:href="#f3_21" transform="matrix(12,0,0,12,202.8,1150.2)" />
<use xlink:href="#f3_2e" transform="matrix(12,0,0,12,210.9,1150.2)" />
<use xlink:href="#f3_2a" transform="matrix(12,0,0,12,217.8,1150.2)" />
<use xlink:href="#f3_1x" transform="matrix(12,0,0,12,227,1150.2)" />
<use xlink:href="#f3_2e" transform="matrix(12,0,0,12,236.2,1150.2)" />
<use xlink:href="#f3_25" transform="matrix(12,0,0,12,243.1,1150.2)" />
<use xlink:href="#f3_1x" transform="matrix(12,0,0,12,248.2,1150.2)" />
<use xlink:href="#f3_g" transform="matrix(12,0,0,12,257.4,1150.2)" />
<use xlink:href="#f3_1k" transform="matrix(12,0,0,12,266.9,1150.2)" />
<use xlink:href="#f3_2e" transform="matrix(12,0,0,12,277.2,1150.2)" />
<use xlink:href="#f3_25" transform="matrix(12,0,0,12,284.2,1150.2)" />
<use xlink:href="#f3_1z" transform="matrix(12,0,0,12,289.2,1150.2)" />
<use xlink:href="#f3_24" transform="matrix(12,0,0,12,297.4,1150.2)" />
<use xlink:href="#f3_2b" transform="matrix(12,0,0,12,306.6,1150.2)" />
<use xlink:href="#f3_20" transform="matrix(12,0,0,12,315.7,1150.2)" />
<use xlink:href="#f3_21" transform="matrix(12,0,0,12,324.9,1150.2)" />
<use xlink:href="#f3_2e" transform="matrix(12,0,0,12,332.9,1150.2)" />
<use xlink:href="#f3_29" transform="matrix(12,0,0,12,339.9,1150.2)" />
<use xlink:href="#f3_1x" transform="matrix(12,0,0,12,353.1,1150.2)" />
<use xlink:href="#f2_21" transform="matrix(12,0,0,12,367.2,1150.2)" />
<use xlink:href="#f2_2g" transform="matrix(12,0,0,12,375.3,1150.2)" />
<use xlink:href="#f2_1z" transform="matrix(12,0,0,12,380.7,1150.2)" />
<use xlink:href="#f2_i" transform="matrix(12,0,0,12,388.8,1150.2)" />
</g>
<image preserveAspectRatio="none" x="238" y="163" width="459" height="357" xlink:href="img/1.png" />
<image preserveAspectRatio="none" x="263" y="728" width="409" height="273" xlink:href="img/2.png" />
<g fill="#000000" >
<use xlink:href="#f5_r" transform="matrix(8,0,0,8,818.2,1187.9)" />
</g>
<defs>
<path d="M273,157c0,0,-114,0,-193,80C80,237,0,317,0,431c0,0,0,112,80,192c0,0,79,80,193,80c0,0,113,0,192,-80c0,0,80,-80,80,-192c0,0,0,-114,-80,-194c0,0,-79,-80,-192,-80Z" 
id="f0_3d"
transform="scale(0.001,-0.001)" />

<path d="M639,416L478,858L313,416ZM647,0V54L762,74L667,333H283L191,74L319,54V0H15V54L90,74l355,935H662L1016,74l76,-20V0Z" 
id="f1_11"
transform="scale(0.001,-0.001)" />

<path d="M276,-14c0,0,-57,0,-125,13C151,-1,83,10,48,23V214H97l28,-98c0,0,26,-26,69,-44c0,0,42,-17,86,-17c0,0,65,0,97,28c0,0,32,28,32,71c0,0,0,41,-31,65c0,0,-30,25,-133,57c0,0,-108,34,-154,92c0,0,-45,58,-45,143c0,0,0,95,71,152c0,0,71,57,183,57c0,0,77,0,207,-22V518H457l-24,82c0,0,-21,22,-60,35c0,0,-40,14,-75,14c0,0,-53,0,-79,-22c0,0,-26,-22,-26,-59c0,0,0,-40,32,-65c0,0,32,-26,132,-55c0,0,109,-34,155,-89c0,0,45,-55,45,-137c0,0,0,-117,-72,-177c0,0,-72,-59,-209,-59Z" 
id="f1_2f"
transform="scale(0.001,-0.001)" />

<path d="M425,-14c0,0,-187,0,-280,90c0,0,-93,90,-93,276c0,0,0,115,42,198c0,0,43,82,121,126c0,0,78,44,182,44c0,0,104,0,227,-26V486H571L539,609c0,0,-25,19,-50,26c0,0,-24,7,-65,7c0,0,-44,0,-79,-35c0,0,-36,-35,-56,-98c0,0,-20,-64,-20,-153c0,0,0,-150,47,-214c0,0,47,-64,148,-64c0,0,103,0,176,21V42C640,42,606,15,547,0c0,0,-59,-14,-122,-14Z" 
id="f1_1z"
transform="scale(0.001,-0.001)" />

<path d="M379,60c0,0,59,0,84,64c0,0,24,65,24,231c0,0,0,164,-24,227c0,0,-24,63,-84,63c0,0,-57,0,-80,-60c0,0,-22,-61,-22,-230c0,0,0,-173,23,-234c0,0,22,-61,79,-61Zm-2,-74c0,0,-161,0,-240,91c0,0,-79,91,-79,277c0,0,0,186,80,276c0,0,81,90,245,90c0,0,167,0,245,-93c0,0,78,-93,78,-273c0,0,0,-188,-81,-278c0,0,-81,-90,-248,-90Z" 
id="f1_2b"
transform="scale(0.001,-0.001)" />

<path d="M41,0V49l69,18V634L41,652v49H313l11,-61l50,26c0,0,105,54,188,54c0,0,125,0,167,-91c0,0,153,91,258,91c0,0,189,0,189,-207V67l71,-17V0H898V50l63,17V484c0,0,0,63,-24,98c0,0,-25,35,-74,35c0,0,-55,0,-119,-31c0,0,7,-32,7,-73V67L821,50V0H473V50l63,17V484c0,0,0,63,-25,98c0,0,-24,35,-73,35c0,0,-49,0,-113,-29V67L389,49V0Z" 
id="f1_29"
transform="scale(0.001,-0.001)" />

<path d="M159,-329c0,0,-61,0,-123,14v180H81l32,-94c0,0,21,-17,55,-17c0,0,28,0,50,13c0,0,21,14,40,39c0,0,20,25,37,62c0,0,17,37,50,110L64,634L15,652v49H374V652L290,632L455,244L602,634l-82,18v49H749V652L698,637L421,-44c0,0,-47,-121,-83,-176c0,0,-36,-55,-80,-82c0,0,-43,-27,-99,-27Z" 
id="f1_2l"
transform="scale(0.001,-0.001)" />

<path d="M434,423c0,0,0,101,-7,142c0,0,-6,40,-22,60c0,0,-16,19,-45,19c0,0,-44,0,-66,-48c0,0,-22,-49,-22,-173ZM389,-14c0,0,-172,0,-254,89c0,0,-83,90,-83,279c0,0,0,184,79,274c0,0,79,91,238,91c0,0,142,0,206,-76c0,0,64,-76,64,-237V345H271V333c0,0,0,-111,18,-158c0,0,18,-47,58,-72c0,0,40,-25,110,-25c0,0,66,0,166,22V42C623,42,582,18,517,1c0,0,-66,-15,-128,-15Z" 
id="f1_21"
transform="scale(0.001,-0.001)" />

<path d="M327,-14c0,0,-101,0,-156,45c0,0,-55,45,-55,131V624H25v48l108,29l87,159H332V701H480V624H332V176c0,0,0,-49,20,-73c0,0,20,-25,53,-25c0,0,40,0,97,12V26c0,0,-22,-15,-76,-27c0,0,-55,-13,-99,-13Z" 
id="f1_2g"
transform="scale(0.001,-0.001)" />

<path d="M460,-325c0,0,-148,79,-231,172c0,0,-84,93,-123,217c0,0,-39,126,-39,305c0,0,0,178,39,303c0,0,39,125,123,218c0,0,83,92,231,170V975c0,0,-68,-52,-109,-133c0,0,-41,-81,-61,-189c0,0,-19,-109,-19,-285c0,0,0,-177,19,-285c0,0,19,-107,60,-189c0,0,42,-82,110,-134v-85Z" 
id="f1_c"
transform="scale(0.001,-0.001)" />

<path d="M345,75c0,0,50,0,110,26V351l-63,-2c0,0,-72,-3,-100,-38c0,0,-28,-35,-28,-113c0,0,0,-63,22,-93c0,0,23,-30,59,-30ZM266,-14c0,0,-217,0,-217,208c0,0,0,79,32,126c0,0,32,48,93,71c0,0,60,22,190,25l91,2V521c0,0,0,126,-104,126c0,0,-62,0,-140,-39L183,521H134V691c0,0,112,17,165,21c0,0,53,5,108,5c0,0,264,0,264,-194V67L741,49V0H483L466,54C466,54,408,14,361,0c0,0,-47,-14,-95,-14Z" 
id="f1_1x"
transform="scale(0.001,-0.001)" />

<path d="M41,0V49l76,18V624H11v51l106,29v75c0,0,0,144,73,220c0,0,73,77,210,77c0,0,74,0,124,-15V894H476l-22,81c0,0,-18,17,-47,17c0,0,-74,0,-74,-189V701H475V624H333V67L447,49V0Z" 
id="f1_22"
transform="scale(0.001,-0.001)" />

<path d="M287,-18c0,0,-194,0,-194,206V634L23,652v49H309V217c0,0,0,-63,26,-98c0,0,27,-35,76,-35c0,0,57,0,113,25V634l-64,18v49H740V67L809,49V0H536L526,61L475,35c0,0,-104,-53,-188,-53Z" 
id="f1_2h"
transform="scale(0.001,-0.001)" />

<path d="M41,0V49l69,18V634L41,652v49H313l11,-61l50,26c0,0,105,54,188,54c0,0,194,0,194,-207V67L827,49V0H478V49l63,18V484c0,0,0,63,-27,98c0,0,-26,35,-75,35c0,0,-57,0,-114,-25V67L389,49V0Z" 
id="f1_2a"
transform="scale(0.001,-0.001)" />

<path d="M360,-256c0,0,108,0,167,35c0,0,59,35,59,98c0,0,0,70,-95,70H254c0,0,-65,-47,-65,-108c0,0,0,-47,46,-71c0,0,45,-24,125,-24Zm9,561c0,0,55,0,79,43c0,0,25,43,25,129c0,0,0,87,-24,127c0,0,-25,41,-80,41c0,0,-52,0,-75,-41c0,0,-24,-40,-24,-127c0,0,0,-86,23,-129c0,0,23,-43,76,-43Zm-9,-641c0,0,-153,0,-236,43c0,0,-84,44,-84,120c0,0,0,33,28,65c0,0,27,31,105,76c0,0,-44,17,-75,59c0,0,-31,43,-31,90L192,258c0,0,-133,56,-133,219c0,0,0,116,81,180c0,0,82,63,233,63c0,0,32,0,82,-6c0,0,51,-6,74,-13l168,83l26,-32L638,631c0,0,46,-57,46,-154c0,0,0,-119,-80,-182c0,0,-80,-64,-234,-64c0,0,-59,0,-114,9L238,183c0,0,1,-22,28,-41c0,0,26,-19,64,-19H493c0,0,256,0,256,-196c0,0,0,-81,-44,-139c0,0,-45,-59,-131,-92c0,0,-86,-32,-214,-32Z" 
id="f1_23"
transform="scale(0.001,-0.001)" />

<path d="M34,0V49l76,18V634L38,652v49H325V67L402,49V0ZM217,831c0,0,-48,0,-81,33c0,0,-34,33,-34,82c0,0,0,48,34,81c0,0,34,33,81,33c0,0,48,0,81,-33c0,0,33,-33,33,-81c0,0,0,-47,-33,-81c0,0,-32,-34,-81,-34Z" 
id="f1_25"
transform="scale(0.001,-0.001)" />

<path d="M49,-325v85c0,0,68,53,110,135c0,0,41,82,60,190c0,0,19,109,19,283c0,0,0,177,-19,285c0,0,-20,108,-61,189c0,0,-41,81,-109,133v85c0,0,149,-80,232,-172c0,0,83,-92,122,-217c0,0,39,-125,39,-302c0,0,0,-178,-39,-304c0,0,-39,-125,-122,-218c0,0,-83,-93,-232,-172Z" 
id="f1_d"
transform="scale(0.001,-0.001)" />

<path d="M56,294V424H453V294Z" 
id="f1_h"
transform="scale(0.001,-0.001)" />

<path d="M235,0V40L394,60V936H356c0,0,-189,0,-258,-15L78,766H28v234H908V766H857L837,921c0,0,-22,5,-98,9c0,0,-75,4,-165,4H538V60L697,40V0Z" 
id="f2_1k"
transform="scale(0.001,-0.001)" />

<path d="M442,0V33l93,19V504c0,0,0,129,-124,129c0,0,-70,0,-168,-22V52L338,33V0H31V33l88,19v956L15,1026v34H243V756c0,0,0,-77,-5,-112c0,0,54,31,122,53c0,0,68,23,115,23c0,0,91,0,137,-53c0,0,47,-53,47,-154V52L744,33V0Z" 
id="f2_24"
transform="scale(0.001,-0.001)" />

<path d="M495,413c0,0,0,133,-34,190c0,0,-34,57,-105,57c0,0,-78,0,-119,-63c0,0,-42,-62,-42,-184ZM374,-14c0,0,-163,0,-239,87c0,0,-75,88,-75,283c0,0,0,183,77,273c0,0,76,91,219,91c0,0,269,0,269,-306V353H194V340c0,0,0,-103,23,-160c0,0,22,-57,70,-87c0,0,47,-29,124,-29c0,0,40,0,96,6c0,0,55,7,91,15V43C598,43,562,20,500,3c0,0,-61,-17,-126,-17Z" 
id="f2_21"
transform="scale(0.001,-0.001)" />

<path d="M148,-329c0,0,-58,0,-114,13v151H69l24,-71c0,0,23,-17,64,-17c0,0,39,0,72,22c0,0,33,23,60,67c0,0,27,44,68,157L90,649L19,668v33H344V668L233,648L423,158L606,649L497,668v33H758V668L685,652L411,-43c0,0,-48,-124,-84,-177c0,0,-36,-54,-79,-82c0,0,-44,-27,-100,-27Z" 
id="f2_2l"
transform="scale(0.001,-0.001)" />

<path d="M399,-14c0,0,-341,0,-341,370c0,0,0,175,87,269c0,0,87,95,249,95c0,0,101,0,220,-23V501H573L541,625c0,0,-62,35,-149,35c0,0,-200,0,-200,-304c0,0,0,-158,61,-225c0,0,61,-67,189,-67c0,0,109,0,189,24V43C631,43,595,16,530,1c0,0,-64,-15,-131,-15Z" 
id="f2_1z"
transform="scale(0.001,-0.001)" />

<path d="M284,67c0,0,51,0,88,12c0,0,37,12,74,30V358l-98,-3c0,0,-100,-4,-135,-39c0,0,-35,-35,-35,-117c0,0,0,-132,106,-132ZM233,-14c0,0,-179,0,-179,208c0,0,0,70,27,116c0,0,27,46,87,70c0,0,60,24,173,27l105,3V519c0,0,0,72,-26,107c0,0,-27,34,-82,34c0,0,-75,0,-137,-35L176,538H134V691c0,0,121,26,213,26c0,0,115,0,169,-47c0,0,54,-47,54,-144V52L657,33V0H465L451,70c0,0,-85,-84,-218,-84Z" 
id="f2_1x"
transform="scale(0.001,-0.001)" />

<path d="M439,0V33l93,19V500c0,0,0,62,-30,97c0,0,-31,36,-94,36c0,0,-67,0,-165,-22V52L338,33V0H35V33l84,19V649L35,668v33H235l7,-57c0,0,57,33,122,54c0,0,65,22,108,22c0,0,91,0,137,-53c0,0,47,-53,47,-154V52L741,33V0Z" 
id="f2_2a"
transform="scale(0.001,-0.001)" />

<path d="M376,50c0,0,103,0,149,80c0,0,46,81,46,240c0,0,0,137,-47,204c0,0,-48,67,-148,67c0,0,-44,0,-87,-7c0,0,-44,-8,-63,-17V62c0,0,63,-12,150,-12Zm3,-64c0,0,-64,0,-141,14c0,0,-78,14,-136,37v971L0,1026v34H226V809c0,0,0,-40,-4,-148c0,0,74,59,188,59c0,0,143,0,219,-87c0,0,77,-87,77,-263c0,0,0,-189,-84,-287c0,0,-84,-97,-243,-97Z" 
id="f2_1y"
transform="scale(0.001,-0.001)" />

<path d="M278,-14c0,0,-52,0,-115,11c0,0,-63,10,-99,23V193H98L134,95c0,0,56,-50,146,-50c0,0,144,0,144,123c0,0,0,91,-114,130l-66,21c0,0,-75,25,-110,50c0,0,-34,26,-53,63c0,0,-18,36,-18,89c0,0,0,92,63,145c0,0,63,54,170,54c0,0,77,0,193,-23V544H454l-32,81c0,0,-39,35,-124,35c0,0,-61,0,-92,-30c0,0,-32,-30,-32,-80c0,0,0,-43,29,-72c0,0,28,-29,86,-48c0,0,110,-38,144,-55c0,0,33,-17,57,-42c0,0,23,-25,36,-57c0,0,13,-32,13,-79c0,0,0,-104,-66,-158c0,0,-66,-53,-195,-53Z" 
id="f2_2f"
transform="scale(0.001,-0.001)" />

<path d="M382,45c0,0,188,0,188,314c0,0,0,143,-47,213c0,0,-46,69,-141,69c0,0,-87,0,-146,-24V58c0,0,67,-13,146,-13ZM25,-325v35l88,18V649L34,668v33H231l1,-41c0,0,31,27,84,43c0,0,53,17,107,17c0,0,134,0,208,-94c0,0,73,-93,73,-267c0,0,0,-178,-80,-276c0,0,-80,-97,-232,-97c0,0,-84,0,-160,16c0,0,4,-53,4,-84V-272l123,-18v-35Z" 
id="f2_2c"
transform="scale(0.001,-0.001)" />

<path d="M31,0V33l88,19V649L31,668v33H235l7,-87c0,0,44,37,121,71c0,0,76,35,121,35h11V530H463l-43,82c0,0,-37,0,-88,-10c0,0,-52,-10,-89,-26V52L363,33V0Z" 
id="f2_2e"
transform="scale(0.001,-0.001)" />

<path d="M377,45c0,0,99,0,147,73c0,0,47,73,47,237c0,0,0,161,-47,233c0,0,-47,72,-147,72c0,0,-97,0,-141,-69c0,0,-44,-69,-44,-236c0,0,0,-169,45,-240c0,0,44,-70,140,-70Zm0,-59c0,0,-158,0,-238,94c0,0,-81,95,-81,274c0,0,0,178,81,272c0,0,80,94,244,94c0,0,160,0,241,-92c0,0,82,-92,82,-274c0,0,0,-368,-329,-368Z" 
id="f2_2b"
transform="scale(0.001,-0.001)" />

<path d="M249,-14c0,0,-71,0,-107,42c0,0,-35,42,-35,119V639H15v33l93,29l76,159h47V701H391V639H231V161c0,0,0,-48,22,-73c0,0,22,-24,57,-24c0,0,44,0,106,12V26C416,26,389,8,340,-2c0,0,-49,-12,-91,-12Z" 
id="f2_2g"
transform="scale(0.001,-0.001)" />

<path d="M32,0V33L151,52V649L52,668v33H275V52L395,33V0ZM201,850c0,0,-32,0,-56,24c0,0,-24,24,-24,56c0,0,0,34,24,58c0,0,24,24,56,24c0,0,34,0,58,-24c0,0,24,-24,24,-58c0,0,0,-32,-24,-56c0,0,-24,-24,-58,-24Z" 
id="f2_25"
transform="scale(0.001,-0.001)" />

<path d="M327,-14L84,649L1,668v33H335V668L219,648L385,174L554,632h63L786,171L944,649L830,668v33h267V668l-78,-16L784,-14H726L553,448L382,-14Z" 
id="f2_2j"
transform="scale(0.001,-0.001)" />

<path d="M31,0V33L150,52v956L31,1026v34H274V52L394,33V0Z" 
id="f2_28"
transform="scale(0.001,-0.001)" />

<path d="M191,-20c0,0,-39,0,-65,25c0,0,-25,27,-25,64c0,0,0,38,26,64c0,0,26,26,64,26c0,0,38,0,64,-26c0,0,26,-26,26,-64c0,0,0,-37,-25,-64c0,0,-26,-25,-65,-25Z" 
id="f2_i"
transform="scale(0.001,-0.001)" />

<path d="M681,416L504,902L333,416ZM669,0V40L803,60L704,348H310L210,60L344,40V0H15V40L128,60l341,949H611L965,60L1092,40V0Z" 
id="f2_11"
transform="scale(0.001,-0.001)" />

<path d="M13,0V34L95,46L325,350L122,649L40,668v33H357V668L264,648L399,446L554,649l-96,19v33H710V668L630,652L433,397L663,50L745,34V0H427V34l94,17L359,299L169,50L266,34V0Z" 
id="f2_2k"
transform="scale(0.001,-0.001)" />

<path d="M289,-14c0,0,-179,0,-179,205V649L20,668v33H233V200c0,0,0,-128,120,-128c0,0,92,0,173,23V649L420,668v33H649V52L738,33V0H533l-6,57C527,57,474,28,405,7c0,0,-69,-21,-116,-21Z" 
id="f2_2h"
transform="scale(0.001,-0.001)" />

<path d="M383,64c0,0,85,0,152,28V645c0,0,-67,13,-152,13c0,0,-194,0,-194,-314c0,0,0,-141,48,-211c0,0,48,-69,146,-69ZM342,-14c0,0,-287,0,-287,358c0,0,0,184,82,280c0,0,81,96,239,96c0,0,81,0,163,-18c0,0,-4,25,-4,124v182l-118,18v34H659V52L745,33V0H548l-9,52c0,0,-84,-66,-197,-66Z" 
id="f2_20"
transform="scale(0.001,-0.001)" />

<path d="M410,-14c0,0,-80,0,-162,14c0,0,-81,14,-144,38V270h48L178,134c0,0,28,-35,95,-62c0,0,68,-27,134,-27c0,0,104,0,163,53c0,0,58,54,58,148c0,0,0,54,-23,89c0,0,-22,35,-59,59c0,0,-37,24,-84,41c0,0,-47,17,-97,34c0,0,-49,17,-96,38c0,0,-47,21,-84,53c0,0,-37,32,-60,79c0,0,-23,48,-23,117c0,0,0,119,90,187c0,0,89,68,248,68c0,0,121,0,263,-32V771H654L628,893c0,0,-76,55,-188,55c0,0,-100,0,-156,-40c0,0,-56,-41,-56,-112c0,0,0,-49,22,-81c0,0,23,-32,60,-55c0,0,37,-22,84,-39c0,0,48,-16,97,-34c0,0,50,-17,97,-39c0,0,48,-22,85,-56c0,0,36,-34,59,-83c0,0,23,-49,23,-120c0,0,0,-145,-89,-224c0,0,-89,-79,-256,-79Z" 
id="f2_1j"
transform="scale(0.001,-0.001)" />

<path d="M359,-270c0,0,124,0,192,46c0,0,67,47,67,129c0,0,0,43,-26,67c0,0,-26,24,-79,24H242c0,0,-32,-27,-51,-69c0,0,-20,-41,-20,-77c0,0,0,-64,46,-92c0,0,46,-28,142,-28Zm11,561c0,0,81,0,115,47c0,0,34,47,34,141c0,0,0,100,-35,142c0,0,-35,42,-113,42c0,0,-78,0,-114,-43c0,0,-37,-42,-37,-141c0,0,0,-98,36,-143c0,0,36,-45,114,-45ZM359,-329c0,0,-143,0,-218,44c0,0,-75,43,-75,125c0,0,0,39,27,78c0,0,26,38,98,89c0,0,-43,14,-72,48c0,0,-29,35,-29,74L208,262c0,0,-118,55,-118,217c0,0,0,115,73,178c0,0,73,63,211,63c0,0,28,0,71,-6c0,0,44,-6,67,-13l165,83l26,-32L599,644c0,0,50,-56,50,-165c0,0,0,-120,-72,-182c0,0,-73,-62,-208,-62c0,0,-62,0,-114,11L208,148c0,0,2,-13,29,-24c0,0,27,-12,67,-12H512c0,0,113,0,168,-49c0,0,55,-49,55,-134c0,0,0,-79,-44,-137c0,0,-43,-58,-128,-90c0,0,-84,-31,-204,-31Z" 
id="f2_23"
transform="scale(0.001,-0.001)" />

<path d="M536,63c0,0,127,0,191,54c0,0,63,54,63,168c0,0,0,105,-70,154c0,0,-70,49,-225,49H316V67c0,0,103,-4,220,-4ZM480,555c0,0,121,0,178,48c0,0,57,48,57,155c0,0,0,91,-58,133c0,0,-57,42,-186,42H316V555ZM554,-4L235,0H44V40L172,60V941L44,960v40H501c0,0,191,0,279,-56c0,0,88,-56,88,-179c0,0,0,-88,-55,-149c0,0,-54,-62,-151,-83c0,0,135,-14,209,-79c0,0,73,-65,73,-166c0,0,0,-144,-99,-219C845,69,745,-4,554,-4Z" 
id="f2_12"
transform="scale(0.001,-0.001)" />

<path d="M431,0V33L535,52V499c0,0,0,62,-32,96c0,0,-32,33,-95,33c0,0,-66,0,-163,-22V52L350,33V0H32V33l89,19V649L32,668v33H237l6,-57c0,0,56,32,119,54c0,0,62,22,110,22c0,0,52,0,95,-20c0,0,44,-19,66,-62c0,0,57,32,134,57c0,0,77,25,128,25c0,0,179,0,179,-207V52l90,-19V0H846V33L950,52V499c0,0,0,129,-119,129c0,0,-19,0,-45,-3c0,0,-26,-3,-52,-7c0,0,-25,-4,-49,-8c0,0,-23,-5,-39,-8c0,0,13,-41,13,-89V52L764,33V0Z" 
id="f2_29"
transform="scale(0.001,-0.001)" />

<path d="M64,0V34L168,59V639H47v36l121,29v49c0,0,0,155,61,239c0,0,62,84,173,84c0,0,58,0,107,-15V908H472l-33,92c0,0,-26,16,-62,16c0,0,-47,0,-66,-42c0,0,-19,-42,-19,-157V701H478V639H292V59L443,34V0Z" 
id="f2_22"
transform="scale(0.001,-0.001)" />

<path d="M54,0V40L172,60V941L44,960v40H794V760H745L721,922c0,0,-83,11,-241,11H316V516H611l23,120h46V328H634L611,449H316V60L483,40V0Z" 
id="f2_16"
transform="scale(0.001,-0.001)" />

<path d="M58,-234v58c0,0,131,42,131,125c0,0,0,15,-11,27c0,0,-11,12,-38,25C140,1,89,27,89,75c0,0,0,40,25,61c0,0,26,21,65,21c0,0,48,0,77,-34c0,0,30,-34,30,-86c0,0,0,-101,-60,-170c0,0,-59,-69,-168,-101Z" 
id="f2_g"
transform="scale(0.001,-0.001)" />

<path d="M457,460c0,0,289,0,289,266c0,0,0,106,-54,157c0,0,-54,50,-163,50H419L335,460ZM-7,0L0,40L120,60L276,941L151,960l7,40H559c0,0,161,0,248,-67c0,0,87,-66,87,-198c0,0,0,-167,-109,-255c0,0,-109,-88,-312,-88H323L264,60L427,40L420,0Z" 
id="f3_1g"
transform="scale(0.001,-0.001)" />

<path d="M188,355c0,0,148,11,236,69c0,0,89,58,89,143c0,0,0,41,-23,68c0,0,-22,27,-66,27c0,0,-52,0,-101,-43c0,0,-49,-42,-85,-114c0,0,-36,-71,-50,-150ZM298,-14c0,0,-120,0,-186,67c0,0,-65,67,-65,193c0,0,0,125,53,232c0,0,52,108,145,175c0,0,94,67,196,67c0,0,92,0,147,-42c0,0,56,-43,56,-111c0,0,0,-102,-126,-173c0,0,-125,-72,-336,-86l-3,-54c0,0,0,-95,40,-143c0,0,40,-47,118,-47c0,0,67,0,124,22c0,0,57,23,106,52l22,-32c0,0,-69,-58,-146,-89c0,0,-76,-31,-145,-31Z" 
id="f3_21"
transform="scale(0.001,-0.001)" />

<path d="M54,0L169,649L81,668l6,33H294L274,558c0,0,62,81,130,121c0,0,67,41,132,41c0,0,75,0,113,-41c0,0,38,-41,38,-117c0,0,0,-10,-3,-32c0,0,-3,-21,-81,-478L700,34L695,0H470l76,434c0,0,17,94,17,123c0,0,0,34,-18,55c0,0,-18,21,-56,21c0,0,-56,0,-121,-47c0,0,-65,-47,-108,-117L178,0Z" 
id="f3_2a"
transform="scale(0.001,-0.001)" />

<path d="M85,0L199,649l-96,19l6,33H332L218,52L335,33L329,0ZM297,849c0,0,-33,0,-57,24c0,0,-24,24,-24,57c0,0,0,33,24,57c0,0,24,24,57,24c0,0,33,0,57,-24c0,0,24,-24,24,-57c0,0,0,-33,-24,-57c0,0,-24,-24,-57,-24Z" 
id="f3_25"
transform="scale(0.001,-0.001)" />

<path d="M298,-14c0,0,-120,0,-185,69c0,0,-66,69,-66,191c0,0,0,130,52,237c0,0,52,107,149,172c0,0,97,65,203,65c0,0,53,0,112,-12c0,0,60,-11,99,-27L628,485H587L575,615c0,0,-47,47,-125,47c0,0,-72,0,-134,-53c0,0,-62,-53,-100,-147c0,0,-37,-95,-37,-208c0,0,0,-190,154,-190c0,0,106,0,222,74l22,-32c0,0,-60,-56,-135,-88c0,0,-76,-32,-144,-32Z" 
id="f3_1z"
transform="scale(0.001,-0.001)" />

<path d="M81,0L258,1008l-96,18l6,34H391L214,52L331,33L325,0Z" 
id="f3_28"
transform="scale(0.001,-0.001)" />

<path d="M228,-17c0,0,-76,0,-114,40c0,0,-38,41,-38,117c0,0,0,11,4,39c0,0,4,29,80,470L78,667l6,34H293L217,268c0,0,-17,-94,-17,-124c0,0,0,-34,18,-55c0,0,18,-21,57,-21c0,0,55,0,120,47c0,0,65,47,107,115l83,471H709L595,52L683,33L677,0H469l20,144C489,144,427,64,360,23c0,0,-67,-40,-132,-40Z" 
id="f3_2h"
transform="scale(0.001,-0.001)" />

<path d="M55,0L169,649L81,668l6,33H295L274,557c0,0,52,73,117,118c0,0,65,45,122,45c0,0,66,0,102,-42c0,0,36,-41,36,-121c0,0,51,72,115,117c0,0,64,46,123,46c0,0,63,0,99,-40c0,0,36,-40,36,-116c0,0,0,-16,-3,-42c0,0,-3,-27,-80,-470l98,-19L1032,0H808l77,434c0,0,17,90,17,124c0,0,0,34,-16,54c0,0,-15,21,-49,21c0,0,-33,0,-78,-32c0,0,-46,-31,-83,-80c0,0,-37,-49,-44,-91L558,0H434l76,434c0,0,19,98,19,124c0,0,0,34,-17,54c0,0,-16,21,-51,21c0,0,-33,0,-81,-34c0,0,-47,-33,-84,-80c0,0,-36,-48,-43,-89L179,0Z" 
id="f3_29"
transform="scale(0.001,-0.001)" />

<path d="M51,-233v58c0,0,138,44,138,125c0,0,0,21,-14,31c0,0,-15,11,-32,21c0,0,-18,10,-32,26c0,0,-15,16,-15,48c0,0,0,40,26,61c0,0,25,21,64,21c0,0,46,0,73,-33c0,0,27,-34,27,-93c0,0,0,-96,-62,-164c0,0,-62,-69,-173,-101Z" 
id="f3_g"
transform="scale(0.001,-0.001)" />

<path d="M631,416L539,902L283,416ZM576,0l8,40L691,60L643,348H249L96,60L197,40L189,0H-83l8,40L7,60l509,949H659L845,60L938,40L930,0Z" 
id="f3_11"
transform="scale(0.001,-0.001)" />

<path d="M228,-14c0,0,-103,0,-209,46L49,200H83L95,99c0,0,20,-21,55,-38c0,0,36,-16,81,-16c0,0,163,0,163,133c0,0,0,44,-35,78c0,0,-34,34,-113,72c0,0,-75,37,-112,81c0,0,-36,45,-36,104c0,0,0,99,66,153c0,0,67,54,184,54c0,0,85,0,200,-26L521,538H486l-11,80c0,0,-47,42,-124,42c0,0,-61,0,-97,-28c0,0,-37,-28,-37,-87c0,0,0,-40,31,-71c0,0,32,-30,119,-75c0,0,78,-40,113,-86c0,0,36,-47,36,-107c0,0,0,-113,-71,-167c0,0,-72,-53,-217,-53Z" 
id="f3_2f"
transform="scale(0.001,-0.001)" />

<path d="M317,45c0,0,74,0,134,54c0,0,60,55,97,153c0,0,36,98,36,200c0,0,0,82,-33,129c0,0,-33,46,-89,46c0,0,-40,0,-93,-29c0,0,-54,-29,-96,-75L192,81c0,0,46,-36,125,-36ZM-88,-325l5,35l90,17L170,649L93,668l6,33H297L283,588c0,0,130,132,235,132c0,0,90,0,145,-67c0,0,55,-66,55,-182c0,0,0,-132,-56,-244C662,227,606,114,510,49c0,0,-97,-63,-209,-63c0,0,-35,0,-72,5c0,0,-37,5,-55,11l-8,-67L130,-273l119,-17l-6,-35Z" 
id="f3_2c"
transform="scale(0.001,-0.001)" />

<path d="M62,0L176,649L88,668l6,33H301L278,543c0,0,55,84,124,130c0,0,69,47,138,47c0,0,37,0,59,-6L566,530H534l-28,95c0,0,-60,0,-124,-46c0,0,-63,-45,-116,-120L186,0Z" 
id="f3_2e"
transform="scale(0.001,-0.001)" />

<path d="M312,78c0,0,42,0,93,28c0,0,51,27,99,76l82,460c0,0,-18,5,-32,9c0,0,-14,3,-28,6c0,0,-14,2,-29,3c0,0,-16,1,-36,1c0,0,-75,0,-139,-56c0,0,-64,-56,-100,-150c0,0,-37,-95,-37,-202c0,0,0,-80,33,-127c0,0,33,-48,94,-48ZM249,-325c0,0,-65,0,-136,16c0,0,-70,15,-112,37l13,170H48l27,-93c0,0,60,-59,173,-59c0,0,91,0,145,47c0,0,54,48,72,152l29,175c0,0,-54,-59,-120,-97c0,0,-66,-37,-119,-37c0,0,-95,0,-149,66c0,0,-55,67,-55,182c0,0,0,131,58,243c0,0,57,112,154,177c0,0,97,66,211,66c0,0,45,0,117,-9c0,0,72,-9,128,-22L594,-25c0,0,-28,-158,-108,-229c0,0,-80,-71,-237,-71Z" 
id="f3_23"
transform="scale(0.001,-0.001)" />

<path d="M521,-14c0,0,-205,0,-320,107C201,93,85,200,85,390c0,0,0,185,77,326c0,0,77,142,220,219c0,0,142,76,324,76c0,0,158,0,327,-38L1000,755H951V884c0,0,-46,32,-112,50c0,0,-65,17,-137,17c0,0,-135,0,-242,-72c0,0,-107,-72,-166,-203c0,0,-60,-132,-60,-301c0,0,0,-160,78,-244c0,0,78,-84,222,-84c0,0,85,0,166,25c0,0,82,26,133,65l53,149h49L889,52C889,52,803,20,705,3c0,0,-99,-17,-184,-17Z" 
id="f3_13"
transform="scale(0.001,-0.001)" />

<path d="M301,78c0,0,85,0,185,104l81,442c0,0,-29,20,-55,28c0,0,-25,8,-62,8c0,0,-75,0,-137,-56c0,0,-62,-56,-98,-152c0,0,-36,-95,-36,-199c0,0,0,-79,33,-127c0,0,33,-48,89,-48ZM245,-14c0,0,-90,0,-145,66c0,0,-54,66,-54,182c0,0,0,131,57,244c0,0,57,114,152,178c0,0,96,64,208,64c0,0,90,0,170,-33l33,26h40L589,52L673,33L667,0H454l22,117C476,117,350,-14,245,-14Z" 
id="f3_1x"
transform="scale(0.001,-0.001)" />

<path d="M246,-14L105,649L21,668l7,33H219L327,155L512,458c0,0,48,78,48,144c0,0,0,28,-15,44c0,0,-16,16,-34,22l6,33H659c0,0,19,-17,19,-47c0,0,0,-66,-62,-164L301,-14Z" 
id="f3_2i"
transform="scale(0.001,-0.001)" />

<path d="M36,0V54L154,74V926L26,945v55H860V731H790L766,908c0,0,-36,5,-121,8c0,0,-84,2,-133,2H389V508H633l23,127h67V298H656L633,426H389V74L556,54V0Z" 
id="f1_16"
transform="scale(0.001,-0.001)" />

<path d="M191,-20c0,0,-51,0,-88,34c0,0,-36,36,-36,88c0,0,0,52,36,88c0,0,36,36,88,36c0,0,51,0,88,-36c0,0,36,-36,36,-88c0,0,0,-51,-36,-87c0,0,-36,-35,-88,-35Z" 
id="f1_i"
transform="scale(0.001,-0.001)" />

<path d="M122,0V64L295,82V837L123,780v64l282,165H511V82L685,64V0Z" 
id="f1_l"
transform="scale(0.001,-0.001)" />

<path d="M379,60c0,0,55,0,82,103c0,0,26,104,26,342c0,0,0,233,-26,335c0,0,-26,102,-82,102c0,0,-55,0,-79,-99c0,0,-23,-99,-23,-338c0,0,0,-244,24,-345c0,0,24,-100,78,-100Zm-2,-74c0,0,-158,0,-238,132c0,0,-81,133,-81,386c0,0,0,249,81,380c0,0,80,132,244,132c0,0,159,0,241,-130c0,0,82,-130,82,-382c0,0,0,-518,-329,-518Z" 
id="f1_k"
transform="scale(0.001,-0.001)" />

<path d="M559,77c0,0,87,0,129,53c0,0,42,53,42,162c0,0,0,99,-49,147c0,0,-50,49,-163,49H389V82c0,0,108,-5,170,-5ZM499,570c0,0,80,0,118,42c0,0,38,42,38,141c0,0,0,88,-38,126c0,0,-37,39,-124,39H389V570ZM561,-3L221,0H25V54L154,74V926L25,945v55H511c0,0,199,0,294,-53c0,0,95,-53,95,-173c0,0,0,-89,-56,-154c0,0,-56,-65,-150,-85c0,0,139,-14,211,-76c0,0,71,-61,71,-167c0,0,0,-146,-107,-221C869,71,762,-3,561,-3Z" 
id="f1_12"
transform="scale(0.001,-0.001)" />

<path d="M416,68c0,0,60,0,124,32V628c0,0,-58,15,-118,15c0,0,-67,0,-104,-73c0,0,-38,-73,-38,-216c0,0,0,-139,36,-212c0,0,35,-74,100,-74ZM369,-14c0,0,-155,0,-231,88c0,0,-76,90,-76,274c0,0,0,182,82,277c0,0,81,95,236,95c0,0,82,0,165,-20c0,0,-5,24,-5,115V992l-72,18v50H756V67L833,49V0H562L547,40C547,40,505,13,483,4c0,0,-23,-7,-51,-12c0,0,-28,-6,-63,-6Z" 
id="f1_20"
transform="scale(0.001,-0.001)" />

<path d="M30,0V49l76,18V992l-72,18v50H322V67L398,49V0Z" 
id="f1_28"
transform="scale(0.001,-0.001)" />

<path d="M424,64c0,0,74,0,109,71c0,0,36,72,36,236c0,0,0,137,-34,201c0,0,-34,65,-111,65c0,0,-29,0,-62,-7c0,0,-34,-6,-55,-19V76c0,0,47,-12,117,-12Zm21,-78c0,0,-121,0,-354,50V994l-72,18v48H307V802c0,0,0,-69,-8,-141c0,0,30,25,86,42c0,0,57,17,110,17c0,0,153,0,223,-84c0,0,70,-83,70,-266c0,0,0,-180,-90,-283C698,87,608,-14,445,-14Z" 
id="f1_1y"
transform="scale(0.001,-0.001)" />

<path d="M536,-22L130,941L17,960v40H421V960L287,941L590,205L892,941L761,960v40h325V960L976,941L574,-22Z" 
id="f2_1m"
transform="scale(0.001,-0.001)" />

<path d="M360,-14L72,649L0,668v33H327V668L216,648L420,164L615,649L504,668v33H764V668L697,652L416,-14Z" 
id="f2_2i"
transform="scale(0.001,-0.001)" />

<path d="M394,460c0,0,126,0,186,57c0,0,60,57,60,187c0,0,0,123,-57,176c0,0,-58,53,-194,53H316V460ZM54,0V40L172,60V941L44,960v40H421c0,0,368,0,368,-295c0,0,0,-153,-93,-233c0,0,-93,-80,-267,-80H316V60L475,40V0Z" 
id="f2_1g"
transform="scale(0.001,-0.001)" />

<path d="M477,0V33l64,19L348,354L257,254V52L331,33V0H44V33l89,19v956L29,1026v34H257V338L544,647l-73,20v34H718V667L631,650L431,446L688,50L764,33V0Z" 
id="f2_27"
transform="scale(0.001,-0.001)" />

<path d="M460,-325c0,0,-148,79,-231,172c0,0,-84,93,-123,217c0,0,-39,126,-39,304c0,0,0,178,39,303c0,0,39,125,122,217c0,0,82,93,232,172V997c0,0,-91,-52,-145,-134c0,0,-54,-81,-79,-190c0,0,-25,-109,-25,-305c0,0,0,-194,26,-309c0,0,26,-114,82,-193c0,0,56,-79,141,-128v-63Z" 
id="f2_c"
transform="scale(0.001,-0.001)" />

<path d="M49,-325v63c0,0,85,49,140,128c0,0,56,79,83,194c0,0,26,115,26,308c0,0,0,196,-25,305c0,0,-25,109,-79,190c0,0,-54,82,-145,134v63c0,0,149,-80,232,-172c0,0,83,-92,122,-217c0,0,39,-125,39,-303c0,0,0,-177,-39,-303c0,0,-39,-125,-122,-217c0,0,-83,-93,-232,-173Z" 
id="f2_d"
transform="scale(0.001,-0.001)" />

<path d="M507,-14c0,0,-174,0,-265,70c0,0,-91,70,-91,204c0,0,0,41,7,78L265,941L140,960l7,40H547l-7,-40L408,941L303,341c0,0,-8,-41,-8,-76c0,0,0,-197,224,-197c0,0,143,0,233,71c0,0,89,71,111,199L969,941L838,960l7,40h341l-7,-40L1047,941L942,344C942,344,912,173,797,79c0,0,-114,-93,-290,-93Z" 
id="f3_1l"
transform="scale(0.001,-0.001)" />

<path d="M200,-14c0,0,-59,0,-93,35c0,0,-34,36,-34,100c0,0,0,22,4,51c0,0,4,30,82,467H67l6,33l99,29L275,860h47L295,701H455L443,639H283L210,230c0,0,-13,-69,-13,-99c0,0,0,-34,17,-51c0,0,17,-16,43,-16c0,0,54,0,113,21L386,50c0,0,-92,-64,-186,-64Z" 
id="f3_2g"
transform="scale(0.001,-0.001)" />

<path d="M325,47c0,0,68,0,130,54c0,0,61,55,97,149c0,0,36,94,36,202c0,0,0,103,-39,156c0,0,-39,53,-113,53c0,0,-67,0,-128,-54c0,0,-61,-55,-96,-149c0,0,-35,-94,-35,-204c0,0,0,-101,39,-154c0,0,39,-53,109,-53Zm-6,-61c0,0,-124,0,-199,79c0,0,-74,79,-74,214c0,0,0,120,51,222c0,0,51,102,143,160c0,0,91,59,205,59c0,0,124,0,199,-80c0,0,74,-79,74,-214c0,0,0,-120,-51,-222C667,204,615,102,524,43c0,0,-91,-57,-205,-57Z" 
id="f3_2b"
transform="scale(0.001,-0.001)" />

<path d="M589,416L514,835L294,416ZM536,0l11,54L650,74L604,333H252L115,74L225,54L215,0H-78l10,54L8,74l499,935H686L875,74L956,54L946,0Z" 
id="f4_11"
transform="scale(0.001,-0.001)" />

<path d="M304,96c0,0,26,0,61,26c0,0,36,26,69,71l80,434c0,0,-44,18,-96,18c0,0,-55,0,-101,-51c0,0,-45,-52,-72,-143c0,0,-27,-90,-27,-187c0,0,0,-79,24,-123c0,0,24,-45,62,-45ZM219,-325c0,0,-69,0,-138,15c0,0,-69,15,-108,38l16,189H30l27,-98c0,0,27,-27,69,-45c0,0,43,-17,94,-17c0,0,50,0,84,18c0,0,33,19,54,56c0,0,20,37,34,114c0,0,18,109,35,163c0,0,-46,-59,-102,-92c0,0,-56,-33,-110,-33c0,0,-87,0,-140,67c0,0,-53,67,-53,182c0,0,0,133,50,247c0,0,51,115,140,178c0,0,89,63,202,63c0,0,122,0,310,-32L595,-25c0,0,-28,-155,-120,-227c0,0,-92,-73,-256,-73Z" 
id="f4_23"
transform="scale(0.001,-0.001)" />

<path d="M304,96c0,0,30,0,67,30c0,0,36,30,65,74l74,420c0,0,-33,25,-92,25c0,0,-55,0,-102,-52c0,0,-47,-53,-75,-143c0,0,-27,-90,-27,-187c0,0,0,-77,26,-122c0,0,26,-45,64,-45ZM215,-14c0,0,-93,0,-145,66c0,0,-52,68,-52,187c0,0,0,130,54,242c0,0,55,111,152,175c0,0,98,64,215,64c0,0,103,0,187,-35l61,28h40L614,67L695,43L689,0H430l-3,104c0,0,-44,-55,-99,-87c0,0,-56,-31,-113,-31Z" 
id="f4_1x"
transform="scale(0.001,-0.001)" />

<path d="M31,0L143,634L56,652l8,49H344L327,550c0,0,41,80,99,125c0,0,59,45,118,45c0,0,36,0,62,-8L562,461H521L489,563c0,0,-56,0,-98,-28c0,0,-42,-28,-81,-90L232,0Z" 
id="f4_2e"
transform="scale(0.001,-0.001)" />

<path d="M39,0L151,634L83,652l8,49H363L251,67L340,49L332,0ZM304,831c0,0,-48,0,-82,33c0,0,-33,33,-33,82c0,0,0,48,34,81c0,0,34,33,81,33c0,0,47,0,81,-33c0,0,33,-33,33,-81c0,0,0,-47,-33,-81c0,0,-33,-34,-81,-34Z" 
id="f4_25"
transform="scale(0.001,-0.001)" />

<path d="M292,-14c0,0,-129,0,-199,69c0,0,-71,69,-71,191c0,0,0,138,55,246c0,0,55,108,151,168c0,0,97,60,208,60c0,0,54,0,117,-10c0,0,63,-10,103,-24L619,471H565L555,599c0,0,-40,44,-109,44c0,0,-59,0,-111,-52c0,0,-53,-53,-83,-142c0,0,-30,-90,-30,-195c0,0,0,-83,33,-130c0,0,33,-46,96,-46c0,0,56,0,102,20c0,0,46,21,89,51l32,-48c0,0,-61,-54,-136,-85c0,0,-75,-30,-146,-30Z" 
id="f4_1z"
transform="scale(0.001,-0.001)" />

<path d="M219,-17c0,0,-75,0,-118,40c0,0,-42,41,-42,117c0,0,0,14,5,48c0,0,5,34,78,446L56,652l10,49H354L278,278c0,0,-17,-86,-17,-117c0,0,0,-72,68,-72c0,0,48,0,107,53c0,0,60,54,86,117l79,442H800L689,67L771,49L761,0H497l6,132C503,132,387,-17,219,-17Z" 
id="f4_2h"
transform="scale(0.001,-0.001)" />

<path d="M213,-14c0,0,-57,0,-123,13C90,-1,24,11,-7,26L26,220H75L87,122c0,0,47,-67,132,-67c0,0,61,0,97,32c0,0,37,33,37,81c0,0,0,29,-20,53c0,0,-20,24,-61,48l-50,29c0,0,-82,46,-117,96c0,0,-34,51,-34,113c0,0,0,213,281,213c0,0,88,0,196,-24L515,516H466l-9,82c0,0,-16,19,-47,35c0,0,-30,16,-68,16c0,0,-57,0,-84,-25c0,0,-26,-25,-26,-66c0,0,0,-29,22,-55c0,0,22,-25,97,-67c0,0,70,-39,101,-68c0,0,31,-29,48,-64c0,0,17,-35,17,-82c0,0,0,-114,-76,-175c0,0,-76,-61,-228,-61Z" 
id="f4_2f"
transform="scale(0.001,-0.001)" />

<path d="M519,79c0,0,97,0,153,42c0,0,57,42,83,131c0,0,26,89,26,248c0,0,0,216,-79,317c0,0,-79,101,-257,101H389V85c0,0,72,-6,130,-6ZM533,-2L198,0H27V54L155,74V926L27,945v55H502c0,0,269,0,398,-122c0,0,129,-122,129,-372c0,0,0,-258,-123,-383C906,123,783,-2,533,-2Z" 
id="f1_14"
transform="scale(0.001,-0.001)" />

<path d="M41,0V49l91,18V634L41,652v49H336l8,-145c0,0,80,89,144,128c0,0,64,40,117,40h40V468H604l-45,94c0,0,-47,0,-106,-21c0,0,-60,-20,-105,-48V67L460,49V0Z" 
id="f1_2e"
transform="scale(0.001,-0.001)" />

<path d="M17,-325L185,639H64l6,36l127,29l9,49c0,0,30,167,100,245c0,0,71,78,191,78c0,0,57,0,104,-15L574,915H538l-14,85c0,0,-22,16,-63,16c0,0,-45,0,-72,-39c0,0,-26,-39,-48,-160L319,701H475L465,639H309L141,-325Z" 
id="f3_22"
transform="scale(0.001,-0.001)" />

<path d="M617,0L251,860V60L385,40V0H44V40L172,60V941L44,960v40H347L672,239l355,761h287V960L1185,941V60L1314,40V0H908V40l134,20V859L643,0Z" 
id="f2_1d"
transform="scale(0.001,-0.001)" />

<path d="M131,0l8,40L301,60L455,936H417c0,0,-148,0,-219,-15L150,766H100l42,234H940L898,766H847l8,155c0,0,-67,13,-219,13H599L445,60L601,40L593,0Z" 
id="f3_1k"
transform="scale(0.001,-0.001)" />

<path d="M55,0L232,1008l-88,18l6,34H365L286,615L274,558c0,0,59,79,128,120c0,0,68,42,134,42c0,0,75,0,113,-41c0,0,38,-41,38,-117c0,0,0,-10,-3,-32c0,0,-3,-21,-81,-478L700,34L695,0H470l76,434c0,0,17,94,17,123c0,0,0,34,-18,55c0,0,-18,21,-56,21c0,0,-56,0,-121,-47c0,0,-65,-47,-107,-114L178,0Z" 
id="f3_24"
transform="scale(0.001,-0.001)" />

<path d="M301,78c0,0,41,0,90,27c0,0,49,28,95,77l81,442c0,0,-26,18,-54,27c0,0,-27,10,-67,10c0,0,-70,0,-131,-55c0,0,-61,-55,-99,-152c0,0,-37,-97,-37,-201c0,0,0,-79,33,-127c0,0,33,-48,89,-48ZM245,-14c0,0,-91,0,-145,68c0,0,-54,69,-54,183c0,0,0,128,55,240c0,0,55,112,150,177c0,0,96,66,210,66c0,0,70,0,123,-18c0,0,3,36,51,306l-115,18l6,34H768L589,52L673,33L667,0H454l22,117C476,117,350,-14,245,-14Z" 
id="f3_20"
transform="scale(0.001,-0.001)" />

<path d="M225,0c0,0,2,129,51,312c0,0,48,183,139,352c0,0,91,170,193,286H72v129H780V975C780,975,676,864,573,680C573,680,470,495,414,301C414,301,374,163,363,0Z" 
id="f5_r"
transform="scale(0.001,-0.001)" />


</defs>
</svg>