<?xml version="1.0" encoding="UTF-8" standalone="no"?>
<!DOCTYPE svg PUBLIC "-//W3C//DTD SVG 1.1//EN"
"http://www.w3.org/Graphics/SVG/1.1/DTD/svg11.dtd">
<svg viewBox="0 0 935 1210" version="1.1" xmlns="http://www.w3.org/2000/svg" xmlns:xlink="http://www.w3.org/1999/xlink">
<defs>
<style type="text/css"><![CDATA[
.g0_167{
}
]]></style>
</defs>
<g fill="#000000" >
<use xlink:href="#f0_13" transform="matrix(12,0,0,12,358,72.3)" />
<use xlink:href="#f0_21" transform="matrix(12,0,0,12,371.3,72.3)" />
<use xlink:href="#f0_28" transform="matrix(12,0,0,12,379.3,72.3)" />
<use xlink:href="#f0_28" transform="matrix(12,0,0,12,384.4,72.3)" />
<use xlink:href="#f0_13" transform="matrix(12,0,0,12,393.9,72.3)" />
<use xlink:href="#f0_2l" transform="matrix(12,0,0,12,407.2,72.3)" />
<use xlink:href="#f0_1z" transform="matrix(12,0,0,12,416.3,72.3)" />
<use xlink:href="#f0_28" transform="matrix(12,0,0,12,424.7,72.3)" />
<use xlink:href="#f0_21" transform="matrix(12,0,0,12,429.5,72.3)" />
<use xlink:href="#f0_1x" transform="matrix(12,0,0,12,442.3,72.3)" />
<use xlink:href="#f0_2a" transform="matrix(12,0,0,12,451.5,72.3)" />
<use xlink:href="#f0_20" transform="matrix(12,0,0,12,461.7,72.3)" />
<use xlink:href="#f0_13" transform="matrix(12,0,0,12,476.7,72.3)" />
<use xlink:href="#f0_21" transform="matrix(12,0,0,12,489.9,72.3)" />
<use xlink:href="#f0_28" transform="matrix(12,0,0,12,498,72.3)" />
<use xlink:href="#f0_28" transform="matrix(12,0,0,12,503.1,72.3)" />
<use xlink:href="#f0_14" transform="matrix(12,0,0,12,512.6,72.3)" />
<use xlink:href="#f0_25" transform="matrix(12,0,0,12,525.9,72.3)" />
<use xlink:href="#f0_2i" transform="matrix(12,0,0,12,531,72.3)" />
<use xlink:href="#f0_25" transform="matrix(12,0,0,12,540.1,72.3)" />
<use xlink:href="#f0_2f" transform="matrix(12,0,0,12,545.2,72.3)" />
<use xlink:href="#f0_25" transform="matrix(12,0,0,12,552.2,72.3)" />
<use xlink:href="#f0_2b" transform="matrix(12,0,0,12,557.3,72.3)" />
<use xlink:href="#f0_2a" transform="matrix(12,0,0,12,566.5,72.3)" />
</g>
<path fill-rule="evenodd" d="M358,75.9H577V74.1H358v1.8Z" class="g0_167" />
<g fill="#000000" >
<use xlink:href="#f0_13" transform="matrix(12,0,0,12,55,116.3)" />
<use xlink:href="#f0_21" transform="matrix(12,0,0,12,68.3,116.3)" />
<use xlink:href="#f0_28" transform="matrix(12,0,0,12,76.3,116.3)" />
<use xlink:href="#f0_28" transform="matrix(12,0,0,12,81.4,116.3)" />
<use xlink:href="#f0_1z" transform="matrix(12,0,0,12,91,116.3)" />
<use xlink:href="#f0_2l" transform="matrix(12,0,0,12,99,116.3)" />
<use xlink:href="#f0_1z" transform="matrix(12,0,0,12,108.2,116.3)" />
<use xlink:href="#f0_28" transform="matrix(12,0,0,12,116.6,116.3)" />
<use xlink:href="#f0_21" transform="matrix(12,0,0,12,121.4,116.3)" />
</g>
<path fill-rule="evenodd" d="M55,119.9h74.8v-1.8H55v1.8Z" class="g0_167" />
<g fill="#000000" >
<use xlink:href="#f1_13" transform="matrix(12,0,0,12,55,159.9)" />
<use xlink:href="#f1_21" transform="matrix(12,0,0,12,67.1,159.9)" />
<use xlink:href="#f1_28" transform="matrix(12,0,0,12,75.6,159.9)" />
<use xlink:href="#f1_28" transform="matrix(12,0,0,12,80.3,159.9)" />
<use xlink:href="#f1_1z" transform="matrix(12,0,0,12,89.5,159.9)" />
<use xlink:href="#f1_2l" transform="matrix(12,0,0,12,97.9,159.9)" />
<use xlink:href="#f1_1z" transform="matrix(12,0,0,12,106.7,159.9)" />
<use xlink:href="#f1_28" transform="matrix(12,0,0,12,115.1,159.9)" />
<use xlink:href="#f1_21" transform="matrix(12,0,0,12,119.9,159.9)" />
<use xlink:href="#f1_25" transform="matrix(12,0,0,12,132.7,159.9)" />
<use xlink:href="#f1_2f" transform="matrix(12,0,0,12,137.5,159.9)" />
<use xlink:href="#f1_20" transform="matrix(12,0,0,12,148.8,159.9)" />
<use xlink:href="#f1_21" transform="matrix(12,0,0,12,158,159.9)" />
<use xlink:href="#f1_22" transform="matrix(12,0,0,12,166.4,159.9)" />
<use xlink:href="#f1_25" transform="matrix(12,0,0,12,172.3,159.9)" />
<use xlink:href="#f1_2a" transform="matrix(12,0,0,12,177,159.9)" />
<use xlink:href="#f1_21" transform="matrix(12,0,0,12,186.2,159.9)" />
<use xlink:href="#f1_20" transform="matrix(12,0,0,12,194.6,159.9)" />
<use xlink:href="#f1_1x" transform="matrix(12,0,0,12,208.2,159.9)" />
<use xlink:href="#f1_2f" transform="matrix(12,0,0,12,216.3,159.9)" />
<use xlink:href="#f1_2g" transform="matrix(12,0,0,12,227.6,159.9)" />
<use xlink:href="#f1_24" transform="matrix(12,0,0,12,233.1,159.9)" />
<use xlink:href="#f1_21" transform="matrix(12,0,0,12,241.9,159.9)" />
<use xlink:href="#f1_2f" transform="matrix(12,0,0,12,254.4,159.9)" />
<use xlink:href="#f1_21" transform="matrix(12,0,0,12,261.3,159.9)" />
<use xlink:href="#f1_2e" transform="matrix(12,0,0,12,269.4,159.9)" />
<use xlink:href="#f1_25" transform="matrix(12,0,0,12,276,159.9)" />
<use xlink:href="#f1_21" transform="matrix(12,0,0,12,280.4,159.9)" />
<use xlink:href="#f1_2f" transform="matrix(12,0,0,12,288.8,159.9)" />
<use xlink:href="#f1_2b" transform="matrix(12,0,0,12,300.2,159.9)" />
<use xlink:href="#f1_22" transform="matrix(12,0,0,12,309.7,159.9)" />
<use xlink:href="#f1_1z" transform="matrix(12,0,0,12,319.6,159.9)" />
<use xlink:href="#f1_24" transform="matrix(12,0,0,12,328,159.9)" />
<use xlink:href="#f1_1x" transform="matrix(12,0,0,12,336.8,159.9)" />
<use xlink:href="#f1_2a" transform="matrix(12,0,0,12,345.2,159.9)" />
<use xlink:href="#f1_23" transform="matrix(12,0,0,12,354,159.9)" />
<use xlink:href="#f1_21" transform="matrix(12,0,0,12,363.2,159.9)" />
<use xlink:href="#f1_2f" transform="matrix(12,0,0,12,371.3,159.9)" />
<use xlink:href="#f1_2g" transform="matrix(12,0,0,12,382.6,159.9)" />
<use xlink:href="#f1_24" transform="matrix(12,0,0,12,388.1,159.9)" />
<use xlink:href="#f1_1x" transform="matrix(12,0,0,12,396.9,159.9)" />
<use xlink:href="#f1_2g" transform="matrix(12,0,0,12,405,159.9)" />
<use xlink:href="#f1_2b" transform="matrix(12,0,0,12,414.5,159.9)" />
<use xlink:href="#f1_1z" transform="matrix(12,0,0,12,423.6,159.9)" />
<use xlink:href="#f1_1z" transform="matrix(12,0,0,12,431.7,159.9)" />
<use xlink:href="#f1_2h" transform="matrix(12,0,0,12,439.8,159.9)" />
<use xlink:href="#f1_2e" transform="matrix(12,0,0,12,448.9,159.9)" />
<use xlink:href="#f1_25" transform="matrix(12,0,0,12,459.6,159.9)" />
<use xlink:href="#f1_2a" transform="matrix(12,0,0,12,464.3,159.9)" />
<use xlink:href="#f1_1x" transform="matrix(12,0,0,12,477.5,159.9)" />
<use xlink:href="#f1_1z" transform="matrix(12,0,0,12,490,159.9)" />
<use xlink:href="#f1_21" transform="matrix(12,0,0,12,498.1,159.9)" />
<use xlink:href="#f1_28" transform="matrix(12,0,0,12,506.5,159.9)" />
<use xlink:href="#f1_28" transform="matrix(12,0,0,12,511.6,159.9)" />
<use xlink:href="#f1_2j" transform="matrix(12,0,0,12,520.4,159.9)" />
<use xlink:href="#f1_24" transform="matrix(12,0,0,12,534,159.9)" />
<use xlink:href="#f1_25" transform="matrix(12,0,0,12,543.1,159.9)" />
<use xlink:href="#f1_1z" transform="matrix(12,0,0,12,547.9,159.9)" />
<use xlink:href="#f1_24" transform="matrix(12,0,0,12,556.3,159.9)" />
<use xlink:href="#f1_28" transform="matrix(12,0,0,12,569.9,159.9)" />
<use xlink:href="#f1_21" transform="matrix(12,0,0,12,574.6,159.9)" />
<use xlink:href="#f1_1x" transform="matrix(12,0,0,12,582.7,159.9)" />
<use xlink:href="#f1_20" transform="matrix(12,0,0,12,590.8,159.9)" />
<use xlink:href="#f1_2f" transform="matrix(12,0,0,12,600.3,159.9)" />
<use xlink:href="#f1_2g" transform="matrix(12,0,0,12,611.6,159.9)" />
<use xlink:href="#f1_2b" transform="matrix(12,0,0,12,616.7,159.9)" />
<use xlink:href="#f1_20" transform="matrix(12,0,0,12,630.7,159.9)" />
<use xlink:href="#f1_25" transform="matrix(12,0,0,12,639.9,159.9)" />
<use xlink:href="#f1_2i" transform="matrix(12,0,0,12,644.6,159.9)" />
<use xlink:href="#f1_25" transform="matrix(12,0,0,12,653.8,159.9)" />
<use xlink:href="#f1_2f" transform="matrix(12,0,0,12,658.6,159.9)" />
<use xlink:href="#f1_25" transform="matrix(12,0,0,12,665.9,159.9)" />
<use xlink:href="#f1_2b" transform="matrix(12,0,0,12,670.3,159.9)" />
<use xlink:href="#f1_2a" transform="matrix(12,0,0,12,680.1,159.9)" />
<use xlink:href="#f1_2b" transform="matrix(12,0,0,12,693.3,159.9)" />
<use xlink:href="#f1_22" transform="matrix(12,0,0,12,702.9,159.9)" />
<use xlink:href="#f1_1z" transform="matrix(12,0,0,12,712.8,159.9)" />
<use xlink:href="#f1_21" transform="matrix(12,0,0,12,720.8,159.9)" />
<use xlink:href="#f1_28" transform="matrix(12,0,0,12,729.2,159.9)" />
<use xlink:href="#f1_28" transform="matrix(12,0,0,12,734.3,159.9)" />
<use xlink:href="#f1_2f" transform="matrix(12,0,0,12,739.1,159.9)" />
<use xlink:href="#f1_25" transform="matrix(12,0,0,12,750.9,159.9)" />
<use xlink:href="#f1_2a" transform="matrix(12,0,0,12,755.6,159.9)" />
<use xlink:href="#f1_2g" transform="matrix(12,0,0,12,764.4,159.9)" />
<use xlink:href="#f1_2b" transform="matrix(12,0,0,12,769.9,159.9)" />
<use xlink:href="#f1_2g" transform="matrix(12,0,0,12,783.5,159.9)" />
<use xlink:href="#f1_2j" transform="matrix(12,0,0,12,788.6,159.9)" />
<use xlink:href="#f1_2b" transform="matrix(12,0,0,12,801.8,159.9)" />
<use xlink:href="#f1_20" transform="matrix(12,0,0,12,815.7,159.9)" />
<use xlink:href="#f1_1x" transform="matrix(12,0,0,12,824.9,159.9)" />
<use xlink:href="#f1_2h" transform="matrix(12,0,0,12,832.9,159.9)" />
<use xlink:href="#f1_23" transform="matrix(12,0,0,12,842.1,159.9)" />
<use xlink:href="#f1_24" transform="matrix(12,0,0,12,851.3,159.9)" />
<use xlink:href="#f1_2g" transform="matrix(12,0,0,12,860.1,159.9)" />
<use xlink:href="#f1_21" transform="matrix(12,0,0,12,865.6,159.9)" />
<use xlink:href="#f1_2e" transform="matrix(12,0,0,12,873.6,159.9)" />
<use xlink:href="#f1_1z" transform="matrix(12,0,0,12,55,191.4)" />
<use xlink:href="#f1_21" transform="matrix(12,0,0,12,63.1,191.4)" />
<use xlink:href="#f1_28" transform="matrix(12,0,0,12,71.5,191.4)" />
<use xlink:href="#f1_28" transform="matrix(12,0,0,12,76.3,191.4)" />
<use xlink:href="#f1_2f" transform="matrix(12,0,0,12,81.1,191.4)" />
<use xlink:href="#f1_i" transform="matrix(12,0,0,12,88,191.4)" />
<use xlink:href="#f1_13" transform="matrix(12,0,0,12,97.9,191.4)" />
<use xlink:href="#f1_21" transform="matrix(12,0,0,12,110,191.4)" />
<use xlink:href="#f1_28" transform="matrix(12,0,0,12,118.4,191.4)" />
<use xlink:href="#f1_28" transform="matrix(12,0,0,12,123.5,191.4)" />
<use xlink:href="#f1_1z" transform="matrix(12,0,0,12,133.4,191.4)" />
<use xlink:href="#f1_2l" transform="matrix(12,0,0,12,141.8,191.4)" />
<use xlink:href="#f1_1z" transform="matrix(12,0,0,12,150.6,191.4)" />
<use xlink:href="#f1_28" transform="matrix(12,0,0,12,159,191.4)" />
<use xlink:href="#f1_21" transform="matrix(12,0,0,12,163.8,191.4)" />
<use xlink:href="#f1_25" transform="matrix(12,0,0,12,177.4,191.4)" />
<use xlink:href="#f1_2f" transform="matrix(12,0,0,12,182.1,191.4)" />
<use xlink:href="#f1_20" transform="matrix(12,0,0,12,194.2,191.4)" />
<use xlink:href="#f1_25" transform="matrix(12,0,0,12,203.7,191.4)" />
<use xlink:href="#f1_2i" transform="matrix(12,0,0,12,208.5,191.4)" />
<use xlink:href="#f1_25" transform="matrix(12,0,0,12,217.7,191.4)" />
<use xlink:href="#f1_20" transform="matrix(12,0,0,12,222.4,191.4)" />
<use xlink:href="#f1_21" transform="matrix(12,0,0,12,231.6,191.4)" />
<use xlink:href="#f1_20" transform="matrix(12,0,0,12,239.7,191.4)" />
<use xlink:href="#f1_25" transform="matrix(12,0,0,12,254.3,191.4)" />
<use xlink:href="#f1_2a" transform="matrix(12,0,0,12,259.1,191.4)" />
<use xlink:href="#f1_2g" transform="matrix(12,0,0,12,267.9,191.4)" />
<use xlink:href="#f1_2b" transform="matrix(12,0,0,12,273.3,191.4)" />
<use xlink:href="#f1_2g" transform="matrix(12,0,0,12,287.6,191.4)" />
<use xlink:href="#f1_2j" transform="matrix(12,0,0,12,293.1,191.4)" />
<use xlink:href="#f1_2b" transform="matrix(12,0,0,12,305.9,191.4)" />
<use xlink:href="#f1_2c" transform="matrix(12,0,0,12,320.2,191.4)" />
<use xlink:href="#f1_24" transform="matrix(12,0,0,12,329.4,191.4)" />
<use xlink:href="#f1_1x" transform="matrix(12,0,0,12,338.2,191.4)" />
<use xlink:href="#f1_2f" transform="matrix(12,0,0,12,346.2,191.4)" />
<use xlink:href="#f1_21" transform="matrix(12,0,0,12,353.2,191.4)" />
<use xlink:href="#f1_2f" transform="matrix(12,0,0,12,361.3,191.4)" />
<use xlink:href="#f1_h" transform="matrix(12,0,0,12,368.7,191.4)" />
<use xlink:href="#f1_25" transform="matrix(12,0,0,12,380.4,191.4)" />
<use xlink:href="#f1_2a" transform="matrix(12,0,0,12,385.2,191.4)" />
<use xlink:href="#f1_2g" transform="matrix(12,0,0,12,394,191.4)" />
<use xlink:href="#f1_21" transform="matrix(12,0,0,12,399.4,191.4)" />
<use xlink:href="#f1_2e" transform="matrix(12,0,0,12,407.5,191.4)" />
<use xlink:href="#f1_2c" transform="matrix(12,0,0,12,413.7,191.4)" />
<use xlink:href="#f1_24" transform="matrix(12,0,0,12,422.9,191.4)" />
<use xlink:href="#f1_1x" transform="matrix(12,0,0,12,431.7,191.4)" />
<use xlink:href="#f1_2f" transform="matrix(12,0,0,12,440.1,191.4)" />
<use xlink:href="#f1_21" transform="matrix(12,0,0,12,447.1,191.4)" />
<use xlink:href="#f1_1x" transform="matrix(12,0,0,12,460.2,191.4)" />
<use xlink:href="#f1_2a" transform="matrix(12,0,0,12,468.3,191.4)" />
<use xlink:href="#f1_20" transform="matrix(12,0,0,12,477.1,191.4)" />
<use xlink:href="#f1_29" transform="matrix(12,0,0,12,491.8,191.4)" />
<use xlink:href="#f1_25" transform="matrix(12,0,0,12,506,191.4)" />
<use xlink:href="#f1_2g" transform="matrix(12,0,0,12,510.5,191.4)" />
<use xlink:href="#f1_2b" transform="matrix(12,0,0,12,515.9,191.4)" />
<use xlink:href="#f1_2f" transform="matrix(12,0,0,12,525.5,191.4)" />
<use xlink:href="#f1_25" transform="matrix(12,0,0,12,532.8,191.4)" />
<use xlink:href="#f1_2f" transform="matrix(12,0,0,12,537.2,191.4)" />
<use xlink:href="#f1_i" transform="matrix(12,0,0,12,544.3,191.4)" />
<use xlink:href="#f1_1k" transform="matrix(12,0,0,12,554.2,191.4)" />
<use xlink:href="#f1_24" transform="matrix(12,0,0,12,565.5,191.4)" />
<use xlink:href="#f1_21" transform="matrix(12,0,0,12,574.3,191.4)" />
<use xlink:href="#f1_1x" transform="matrix(12,0,0,12,587.5,191.4)" />
<use xlink:href="#f1_2i" transform="matrix(12,0,0,12,595.9,191.4)" />
<use xlink:href="#f1_21" transform="matrix(12,0,0,12,604.7,191.4)" />
<use xlink:href="#f1_2e" transform="matrix(12,0,0,12,612.8,191.4)" />
<use xlink:href="#f1_1x" transform="matrix(12,0,0,12,619,191.4)" />
<use xlink:href="#f1_23" transform="matrix(12,0,0,12,627.1,191.4)" />
<use xlink:href="#f1_21" transform="matrix(12,0,0,12,636.2,191.4)" />
<use xlink:href="#f1_20" transform="matrix(12,0,0,12,649.4,191.4)" />
<use xlink:href="#f1_2h" transform="matrix(12,0,0,12,658.6,191.4)" />
<use xlink:href="#f1_2e" transform="matrix(12,0,0,12,667.8,191.4)" />
<use xlink:href="#f1_1x" transform="matrix(12,0,0,12,674,191.4)" />
<use xlink:href="#f1_2g" transform="matrix(12,0,0,12,682,191.4)" />
<use xlink:href="#f1_25" transform="matrix(12,0,0,12,687.5,191.4)" />
<use xlink:href="#f1_2b" transform="matrix(12,0,0,12,691.9,191.4)" />
<use xlink:href="#f1_2a" transform="matrix(12,0,0,12,701.4,191.4)" />
<use xlink:href="#f1_2b" transform="matrix(12,0,0,12,715.3,191.4)" />
<use xlink:href="#f1_22" transform="matrix(12,0,0,12,724.9,191.4)" />
<use xlink:href="#f1_1z" transform="matrix(12,0,0,12,735.8,191.4)" />
<use xlink:href="#f1_21" transform="matrix(12,0,0,12,743.9,191.4)" />
<use xlink:href="#f1_28" transform="matrix(12,0,0,12,752.3,191.4)" />
<use xlink:href="#f1_28" transform="matrix(12,0,0,12,757.4,191.4)" />
<use xlink:href="#f1_1z" transform="matrix(12,0,0,12,766.9,191.4)" />
<use xlink:href="#f1_2l" transform="matrix(12,0,0,12,775.3,191.4)" />
<use xlink:href="#f1_1z" transform="matrix(12,0,0,12,784.1,191.4)" />
<use xlink:href="#f1_28" transform="matrix(12,0,0,12,792.6,191.4)" />
<use xlink:href="#f1_21" transform="matrix(12,0,0,12,797.6,191.4)" />
<use xlink:href="#f1_25" transform="matrix(12,0,0,12,811.2,191.4)" />
<use xlink:href="#f1_2a" transform="matrix(12,0,0,12,816,191.4)" />
<use xlink:href="#f1_24" transform="matrix(12,0,0,12,829.9,191.4)" />
<use xlink:href="#f1_2h" transform="matrix(12,0,0,12,838.7,191.4)" />
<use xlink:href="#f1_29" transform="matrix(12,0,0,12,848.2,191.4)" />
<use xlink:href="#f1_1x" transform="matrix(12,0,0,12,862.2,191.4)" />
<use xlink:href="#f1_2a" transform="matrix(12,0,0,12,870.9,191.4)" />
<use xlink:href="#f1_1z" transform="matrix(12,0,0,12,55,223.4)" />
<use xlink:href="#f1_21" transform="matrix(12,0,0,12,63.1,223.4)" />
<use xlink:href="#f1_28" transform="matrix(12,0,0,12,71.5,223.4)" />
<use xlink:href="#f1_28" transform="matrix(12,0,0,12,76.3,223.4)" />
<use xlink:href="#f1_2f" transform="matrix(12,0,0,12,81.1,223.4)" />
<use xlink:href="#f1_25" transform="matrix(12,0,0,12,92.8,223.4)" />
<use xlink:href="#f1_2f" transform="matrix(12,0,0,12,97.5,223.4)" />
<use xlink:href="#f1_m" transform="matrix(12,0,0,12,109.2,223.4)" />
<use xlink:href="#f1_o" transform="matrix(12,0,0,12,118.4,223.4)" />
<use xlink:href="#f1_24" transform="matrix(12,0,0,12,132.3,223.4)" />
<use xlink:href="#f1_2b" transform="matrix(12,0,0,12,141.1,223.4)" />
<use xlink:href="#f1_2h" transform="matrix(12,0,0,12,150.6,223.4)" />
<use xlink:href="#f1_2e" transform="matrix(12,0,0,12,159.8,223.4)" />
<use xlink:href="#f1_2f" transform="matrix(12,0,0,12,166,223.4)" />
<use xlink:href="#f1_i" transform="matrix(12,0,0,12,173,223.4)" />
<use xlink:href="#f1_1f" transform="matrix(12,0,0,12,182.1,223.4)" />
<use xlink:href="#f1_22" transform="matrix(12,0,0,12,195.4,223.4)" />
<use xlink:href="#f1_2g" transform="matrix(12,0,0,12,205.2,223.4)" />
<use xlink:href="#f1_24" transform="matrix(12,0,0,12,210.7,223.4)" />
<use xlink:href="#f1_25" transform="matrix(12,0,0,12,219.9,223.4)" />
<use xlink:href="#f1_2f" transform="matrix(12,0,0,12,224.7,223.4)" />
<use xlink:href="#f1_g" transform="matrix(12,0,0,12,231.6,223.4)" />
<use xlink:href="#f1_29" transform="matrix(12,0,0,12,241.1,223.4)" />
<use xlink:href="#f1_25" transform="matrix(12,0,0,12,255.1,223.4)" />
<use xlink:href="#f1_2g" transform="matrix(12,0,0,12,259.5,223.4)" />
<use xlink:href="#f1_2b" transform="matrix(12,0,0,12,264.9,223.4)" />
<use xlink:href="#f1_2f" transform="matrix(12,0,0,12,274.5,223.4)" />
<use xlink:href="#f1_25" transform="matrix(12,0,0,12,281.8,223.4)" />
<use xlink:href="#f1_2f" transform="matrix(12,0,0,12,286.5,223.4)" />
<use xlink:href="#f1_28" transform="matrix(12,0,0,12,298.2,223.4)" />
<use xlink:href="#f1_1x" transform="matrix(12,0,0,12,303,223.4)" />
<use xlink:href="#f1_2f" transform="matrix(12,0,0,12,311.1,223.4)" />
<use xlink:href="#f1_2g" transform="matrix(12,0,0,12,318,223.4)" />
<use xlink:href="#f1_2f" transform="matrix(12,0,0,12,323.5,223.4)" />
<use xlink:href="#f1_22" transform="matrix(12,0,0,12,335.2,223.4)" />
<use xlink:href="#f1_2b" transform="matrix(12,0,0,12,340.7,223.4)" />
<use xlink:href="#f1_2e" transform="matrix(12,0,0,12,350.3,223.4)" />
<use xlink:href="#f1_2b" transform="matrix(12,0,0,12,360.5,223.4)" />
<use xlink:href="#f1_2a" transform="matrix(12,0,0,12,370,223.4)" />
<use xlink:href="#f1_28" transform="matrix(12,0,0,12,379.2,223.4)" />
<use xlink:href="#f1_2l" transform="matrix(12,0,0,12,384,223.4)" />
<use xlink:href="#f1_l" transform="matrix(12,0,0,12,397.2,223.4)" />
<use xlink:href="#f1_24" transform="matrix(12,0,0,12,411.1,223.4)" />
<use xlink:href="#f1_2b" transform="matrix(12,0,0,12,419.9,223.4)" />
<use xlink:href="#f1_2h" transform="matrix(12,0,0,12,429.4,223.4)" />
<use xlink:href="#f1_2e" transform="matrix(12,0,0,12,438.6,223.4)" />
<use xlink:href="#f1_i" transform="matrix(12,0,0,12,444.8,223.4)" />
<use xlink:href="#f1_1k" transform="matrix(12,0,0,12,453.9,223.4)" />
<use xlink:href="#f1_24" transform="matrix(12,0,0,12,465.3,223.4)" />
<use xlink:href="#f1_21" transform="matrix(12,0,0,12,474.1,223.4)" />
<use xlink:href="#f1_2e" transform="matrix(12,0,0,12,482.1,223.4)" />
<use xlink:href="#f1_21" transform="matrix(12,0,0,12,488.3,223.4)" />
<use xlink:href="#f1_22" transform="matrix(12,0,0,12,496.4,223.4)" />
<use xlink:href="#f1_2b" transform="matrix(12,0,0,12,501.9,223.4)" />
<use xlink:href="#f1_2e" transform="matrix(12,0,0,12,511.4,223.4)" />
<use xlink:href="#f1_21" transform="matrix(12,0,0,12,517.6,223.4)" />
<use xlink:href="#f1_g" transform="matrix(12,0,0,12,525.7,223.4)" />
<use xlink:href="#f1_2g" transform="matrix(12,0,0,12,534.5,223.4)" />
<use xlink:href="#f1_24" transform="matrix(12,0,0,12,540,223.4)" />
<use xlink:href="#f1_21" transform="matrix(12,0,0,12,548.8,223.4)" />
<use xlink:href="#f1_29" transform="matrix(12,0,0,12,561.6,223.4)" />
<use xlink:href="#f1_1x" transform="matrix(12,0,0,12,575.2,223.4)" />
<use xlink:href="#f1_26" transform="matrix(12,0,0,12,583.6,223.4)" />
<use xlink:href="#f1_2b" transform="matrix(12,0,0,12,588,223.4)" />
<use xlink:href="#f1_2e" transform="matrix(12,0,0,12,597.5,223.4)" />
<use xlink:href="#f1_25" transform="matrix(12,0,0,12,604.1,223.4)" />
<use xlink:href="#f1_2g" transform="matrix(12,0,0,12,608.5,223.4)" />
<use xlink:href="#f1_2l" transform="matrix(12,0,0,12,614.3,223.4)" />
<use xlink:href="#f1_2b" transform="matrix(12,0,0,12,627.5,223.4)" />
<use xlink:href="#f1_22" transform="matrix(12,0,0,12,637,223.4)" />
<use xlink:href="#f1_1z" transform="matrix(12,0,0,12,646.9,223.4)" />
<use xlink:href="#f1_21" transform="matrix(12,0,0,12,655,223.4)" />
<use xlink:href="#f1_28" transform="matrix(12,0,0,12,663.4,223.4)" />
<use xlink:href="#f1_28" transform="matrix(12,0,0,12,668.5,223.4)" />
<use xlink:href="#f1_1z" transform="matrix(12,0,0,12,677.7,223.4)" />
<use xlink:href="#f1_2l" transform="matrix(12,0,0,12,686.1,223.4)" />
<use xlink:href="#f1_1z" transform="matrix(12,0,0,12,694.9,223.4)" />
<use xlink:href="#f1_28" transform="matrix(12,0,0,12,703.3,223.4)" />
<use xlink:href="#f1_21" transform="matrix(12,0,0,12,708.1,223.4)" />
<use xlink:href="#f1_25" transform="matrix(12,0,0,12,720.9,223.4)" />
<use xlink:href="#f1_2f" transform="matrix(12,0,0,12,725.7,223.4)" />
<use xlink:href="#f1_2f" transform="matrix(12,0,0,12,737.4,223.4)" />
<use xlink:href="#f1_2c" transform="matrix(12,0,0,12,744.4,223.4)" />
<use xlink:href="#f1_21" transform="matrix(12,0,0,12,753.5,223.4)" />
<use xlink:href="#f1_2a" transform="matrix(12,0,0,12,762,223.4)" />
<use xlink:href="#f1_2g" transform="matrix(12,0,0,12,770.8,223.4)" />
<use xlink:href="#f1_25" transform="matrix(12,0,0,12,781,223.4)" />
<use xlink:href="#f1_2a" transform="matrix(12,0,0,12,785.7,223.4)" />
<use xlink:href="#f1_25" transform="matrix(12,0,0,12,799.3,223.4)" />
<use xlink:href="#f1_2a" transform="matrix(12,0,0,12,804.1,223.4)" />
<use xlink:href="#f1_2g" transform="matrix(12,0,0,12,812.9,223.4)" />
<use xlink:href="#f1_21" transform="matrix(12,0,0,12,818.3,223.4)" />
<use xlink:href="#f1_2e" transform="matrix(12,0,0,12,826.4,223.4)" />
<use xlink:href="#f1_2c" transform="matrix(12,0,0,12,832.6,223.4)" />
<use xlink:href="#f1_24" transform="matrix(12,0,0,12,842.1,223.4)" />
<use xlink:href="#f1_1x" transform="matrix(12,0,0,12,850.9,223.4)" />
<use xlink:href="#f1_2f" transform="matrix(12,0,0,12,859,223.4)" />
<use xlink:href="#f1_21" transform="matrix(12,0,0,12,866,223.4)" />
<use xlink:href="#f1_i" transform="matrix(12,0,0,12,874,223.4)" />
<use xlink:href="#f0_16" transform="matrix(12,0,0,12,403.9,654.3)" />
<use xlink:href="#f0_25" transform="matrix(12,0,0,12,414.9,654.3)" />
<use xlink:href="#f0_23" transform="matrix(12,0,0,12,419.9,654.3)" />
<use xlink:href="#f0_i" transform="matrix(12,0,0,12,429.1,654.3)" />
<use xlink:href="#f0_l" transform="matrix(12,0,0,12,438.6,654.3)" />
<use xlink:href="#f0_i" transform="matrix(12,0,0,12,447.8,654.3)" />
<use xlink:href="#f0_13" transform="matrix(12,0,0,12,457,654.3)" />
<use xlink:href="#f0_21" transform="matrix(12,0,0,12,470.2,654.3)" />
<use xlink:href="#f0_28" transform="matrix(12,0,0,12,478.2,654.3)" />
<use xlink:href="#f0_28" transform="matrix(12,0,0,12,483,654.3)" />
<use xlink:href="#f0_1z" transform="matrix(12,0,0,12,492.5,654.3)" />
<use xlink:href="#f0_2l" transform="matrix(12,0,0,12,500.6,654.3)" />
<use xlink:href="#f0_1z" transform="matrix(12,0,0,12,509.7,654.3)" />
<use xlink:href="#f0_28" transform="matrix(12,0,0,12,518.2,654.3)" />
<use xlink:href="#f0_21" transform="matrix(12,0,0,12,522.9,654.3)" />
<use xlink:href="#f0_19" transform="matrix(12,0,0,12,55,698.3)" />
<use xlink:href="#f0_2a" transform="matrix(12,0,0,12,62,698.3)" />
<use xlink:href="#f0_2g" transform="matrix(12,0,0,12,72.3,698.3)" />
<use xlink:href="#f0_21" transform="matrix(12,0,0,12,78.5,698.3)" />
<use xlink:href="#f0_2e" transform="matrix(12,0,0,12,86.5,698.3)" />
<use xlink:href="#f0_2c" transform="matrix(12,0,0,12,94.2,698.3)" />
<use xlink:href="#f0_24" transform="matrix(12,0,0,12,104.5,698.3)" />
<use xlink:href="#f0_1x" transform="matrix(12,0,0,12,114.7,698.3)" />
<use xlink:href="#f0_2f" transform="matrix(12,0,0,12,123.9,698.3)" />
<use xlink:href="#f0_21" transform="matrix(12,0,0,12,131.2,698.3)" />
</g>
<path fill-rule="evenodd" d="M55,702h84.7v-1.8H55V702Z" class="g0_167" />
<g fill="#000000" >
<use xlink:href="#f1_19" transform="matrix(12,0,0,12,55,742)" />
<use xlink:href="#f1_2g" transform="matrix(12,0,0,12,61.3,742)" />
<use xlink:href="#f1_25" transform="matrix(12,0,0,12,73.3,742)" />
<use xlink:href="#f1_2f" transform="matrix(12,0,0,12,77.7,742)" />
<use xlink:href="#f1_1x" transform="matrix(12,0,0,12,91.6,742)" />
<use xlink:href="#f1_2c" transform="matrix(12,0,0,12,106.7,742)" />
<use xlink:href="#f1_24" transform="matrix(12,0,0,12,116.2,742)" />
<use xlink:href="#f1_1x" transform="matrix(12,0,0,12,125,742)" />
<use xlink:href="#f1_2f" transform="matrix(12,0,0,12,133,742)" />
<use xlink:href="#f1_21" transform="matrix(12,0,0,12,140.4,742)" />
<use xlink:href="#f1_25" transform="matrix(12,0,0,12,155.9,742)" />
<use xlink:href="#f1_2a" transform="matrix(12,0,0,12,160.7,742)" />
<use xlink:href="#f1_2j" transform="matrix(12,0,0,12,176.4,742)" />
<use xlink:href="#f1_24" transform="matrix(12,0,0,12,190,742)" />
<use xlink:href="#f1_25" transform="matrix(12,0,0,12,199.1,742)" />
<use xlink:href="#f1_1z" transform="matrix(12,0,0,12,203.9,742)" />
<use xlink:href="#f1_24" transform="matrix(12,0,0,12,212.3,742)" />
<use xlink:href="#f1_20" transform="matrix(12,0,0,12,228.1,742)" />
<use xlink:href="#f1_25" transform="matrix(12,0,0,12,237.6,742)" />
<use xlink:href="#f1_22" transform="matrix(12,0,0,12,242.4,742)" />
<use xlink:href="#f1_22" transform="matrix(12,0,0,12,248.6,742)" />
<use xlink:href="#f1_21" transform="matrix(12,0,0,12,254.4,742)" />
<use xlink:href="#f1_2e" transform="matrix(12,0,0,12,262.5,742)" />
<use xlink:href="#f1_21" transform="matrix(12,0,0,12,268.7,742)" />
<use xlink:href="#f1_2a" transform="matrix(12,0,0,12,277.1,742)" />
<use xlink:href="#f1_2g" transform="matrix(12,0,0,12,285.9,742)" />
<use xlink:href="#f1_1z" transform="matrix(12,0,0,12,298.4,742)" />
<use xlink:href="#f1_24" transform="matrix(12,0,0,12,306.4,742)" />
<use xlink:href="#f1_1x" transform="matrix(12,0,0,12,315.2,742)" />
<use xlink:href="#f1_2a" transform="matrix(12,0,0,12,323.3,742)" />
<use xlink:href="#f1_23" transform="matrix(12,0,0,12,332.1,742)" />
<use xlink:href="#f1_21" transform="matrix(12,0,0,12,341.6,742)" />
<use xlink:href="#f1_2f" transform="matrix(12,0,0,12,349.7,742)" />
<use xlink:href="#f1_2b" transform="matrix(12,0,0,12,363.6,742)" />
<use xlink:href="#f1_1z" transform="matrix(12,0,0,12,373.1,742)" />
<use xlink:href="#f1_1z" transform="matrix(12,0,0,12,381.2,742)" />
<use xlink:href="#f1_2h" transform="matrix(12,0,0,12,389.2,742)" />
<use xlink:href="#f1_2e" transform="matrix(12,0,0,12,398.4,742)" />
<use xlink:href="#f1_2f" transform="matrix(12,0,0,12,404.6,742)" />
<use xlink:href="#f1_2g" transform="matrix(12,0,0,12,418.5,742)" />
<use xlink:href="#f1_2b" transform="matrix(12,0,0,12,423.6,742)" />
<use xlink:href="#f1_2c" transform="matrix(12,0,0,12,440.1,742)" />
<use xlink:href="#f1_2e" transform="matrix(12,0,0,12,448.9,742)" />
<use xlink:href="#f1_21" transform="matrix(12,0,0,12,455.1,742)" />
<use xlink:href="#f1_2c" transform="matrix(12,0,0,12,463.2,742)" />
<use xlink:href="#f1_1x" transform="matrix(12,0,0,12,472.4,742)" />
<use xlink:href="#f1_2e" transform="matrix(12,0,0,12,480.4,742)" />
<use xlink:href="#f1_21" transform="matrix(12,0,0,12,486.7,742)" />
<use xlink:href="#f1_2g" transform="matrix(12,0,0,12,501.3,742)" />
<use xlink:href="#f1_24" transform="matrix(12,0,0,12,506.8,742)" />
<use xlink:href="#f1_21" transform="matrix(12,0,0,12,515.6,742)" />
<use xlink:href="#f1_1z" transform="matrix(12,0,0,12,530.6,742)" />
<use xlink:href="#f1_21" transform="matrix(12,0,0,12,538.7,742)" />
<use xlink:href="#f1_28" transform="matrix(12,0,0,12,547.1,742)" />
<use xlink:href="#f1_28" transform="matrix(12,0,0,12,551.9,742)" />
<use xlink:href="#f1_22" transform="matrix(12,0,0,12,563.6,742)" />
<use xlink:href="#f1_2b" transform="matrix(12,0,0,12,569.1,742)" />
<use xlink:href="#f1_2e" transform="matrix(12,0,0,12,578.6,742)" />
<use xlink:href="#f1_1z" transform="matrix(12,0,0,12,591.7,742)" />
<use xlink:href="#f1_21" transform="matrix(12,0,0,12,599.8,742)" />
<use xlink:href="#f1_28" transform="matrix(12,0,0,12,608.2,742)" />
<use xlink:href="#f1_28" transform="matrix(12,0,0,12,613,742)" />
<use xlink:href="#f1_20" transform="matrix(12,0,0,12,625.4,742)" />
<use xlink:href="#f1_25" transform="matrix(12,0,0,12,634.9,742)" />
<use xlink:href="#f1_2i" transform="matrix(12,0,0,12,639.7,742)" />
<use xlink:href="#f1_25" transform="matrix(12,0,0,12,649.2,742)" />
<use xlink:href="#f1_2f" transform="matrix(12,0,0,12,653.9,742)" />
<use xlink:href="#f1_25" transform="matrix(12,0,0,12,661.3,742)" />
<use xlink:href="#f1_2b" transform="matrix(12,0,0,12,665.8,742)" />
<use xlink:href="#f1_2a" transform="matrix(12,0,0,12,675.6,742)" />
<use xlink:href="#f1_i" transform="matrix(12,0,0,12,684.4,742)" />
<use xlink:href="#f1_19" transform="matrix(12,0,0,12,696.1,742)" />
<use xlink:href="#f1_2g" transform="matrix(12,0,0,12,702.4,742)" />
<use xlink:href="#f1_25" transform="matrix(12,0,0,12,714.4,742)" />
<use xlink:href="#f1_2f" transform="matrix(12,0,0,12,719.2,742)" />
<use xlink:href="#f1_22" transform="matrix(12,0,0,12,733.5,742)" />
<use xlink:href="#f1_2h" transform="matrix(12,0,0,12,739,742)" />
<use xlink:href="#f1_2e" transform="matrix(12,0,0,12,748.1,742)" />
<use xlink:href="#f1_2g" transform="matrix(12,0,0,12,754.4,742)" />
<use xlink:href="#f1_24" transform="matrix(12,0,0,12,759.8,742)" />
<use xlink:href="#f1_21" transform="matrix(12,0,0,12,768.6,742)" />
<use xlink:href="#f1_2e" transform="matrix(12,0,0,12,776.7,742)" />
<use xlink:href="#f1_20" transform="matrix(12,0,0,12,789.9,742)" />
<use xlink:href="#f1_25" transform="matrix(12,0,0,12,799,742)" />
<use xlink:href="#f1_2i" transform="matrix(12,0,0,12,803.8,742)" />
<use xlink:href="#f1_25" transform="matrix(12,0,0,12,813.3,742)" />
<use xlink:href="#f1_20" transform="matrix(12,0,0,12,818.1,742)" />
<use xlink:href="#f1_21" transform="matrix(12,0,0,12,827.3,742)" />
<use xlink:href="#f1_20" transform="matrix(12,0,0,12,835.3,742)" />
<use xlink:href="#f1_25" transform="matrix(12,0,0,12,851.8,742)" />
<use xlink:href="#f1_2a" transform="matrix(12,0,0,12,856.6,742)" />
<use xlink:href="#f1_2g" transform="matrix(12,0,0,12,865.4,742)" />
<use xlink:href="#f1_2b" transform="matrix(12,0,0,12,870.9,742)" />
<use xlink:href="#f1_22" transform="matrix(12,0,0,12,55,773.5)" />
<use xlink:href="#f1_2b" transform="matrix(12,0,0,12,60.5,773.5)" />
<use xlink:href="#f1_28" transform="matrix(12,0,0,12,70.4,773.5)" />
<use xlink:href="#f1_28" transform="matrix(12,0,0,12,75.2,773.5)" />
<use xlink:href="#f1_2b" transform="matrix(12,0,0,12,79.6,773.5)" />
<use xlink:href="#f1_2j" transform="matrix(12,0,0,12,89.5,773.5)" />
<use xlink:href="#f1_25" transform="matrix(12,0,0,12,103,773.5)" />
<use xlink:href="#f1_2a" transform="matrix(12,0,0,12,107.8,773.5)" />
<use xlink:href="#f1_23" transform="matrix(12,0,0,12,116.6,773.5)" />
<use xlink:href="#f1_2c" transform="matrix(12,0,0,12,130.5,773.5)" />
<use xlink:href="#f1_24" transform="matrix(12,0,0,12,140,773.5)" />
<use xlink:href="#f1_1x" transform="matrix(12,0,0,12,148.8,773.5)" />
<use xlink:href="#f1_2f" transform="matrix(12,0,0,12,157.2,773.5)" />
<use xlink:href="#f1_21" transform="matrix(12,0,0,12,164.2,773.5)" />
<use xlink:href="#f1_2f" transform="matrix(12,0,0,12,172.3,773.5)" />
<use xlink:href="#f1_h" transform="matrix(12,0,0,12,179.4,773.5)" />
<use xlink:href="#f0_17" transform="matrix(12,0,0,12,55,817.5)" />
<use xlink:href="#f0_l" transform="matrix(12,0,0,12,69.3,817.5)" />
<use xlink:href="#f0_2c" transform="matrix(12,0,0,12,82.9,817.5)" />
<use xlink:href="#f0_24" transform="matrix(12,0,0,12,93.2,817.5)" />
<use xlink:href="#f0_1x" transform="matrix(12,0,0,12,103.4,817.5)" />
<use xlink:href="#f0_2f" transform="matrix(12,0,0,12,112.6,817.5)" />
<use xlink:href="#f0_21" transform="matrix(12,0,0,12,119.5,817.5)" />
<use xlink:href="#f1_25" transform="matrix(12,0,0,12,132,817.5)" />
<use xlink:href="#f1_2f" transform="matrix(12,0,0,12,136.4,817.5)" />
<use xlink:href="#f1_1x" transform="matrix(12,0,0,12,147.8,817.5)" />
<use xlink:href="#f1_28" transform="matrix(12,0,0,12,156.2,817.5)" />
<use xlink:href="#f1_2f" transform="matrix(12,0,0,12,161,817.5)" />
<use xlink:href="#f1_2b" transform="matrix(12,0,0,12,168,817.5)" />
<use xlink:href="#f1_27" transform="matrix(12,0,0,12,181.9,817.5)" />
<use xlink:href="#f1_2a" transform="matrix(12,0,0,12,191,817.5)" />
<use xlink:href="#f1_2b" transform="matrix(12,0,0,12,199.8,817.5)" />
<use xlink:href="#f1_2j" transform="matrix(12,0,0,12,209.3,817.5)" />
<use xlink:href="#f1_2a" transform="matrix(12,0,0,12,222.6,817.5)" />
<use xlink:href="#f1_1x" transform="matrix(12,0,0,12,235.7,817.5)" />
<use xlink:href="#f1_2f" transform="matrix(12,0,0,12,243.8,817.5)" />
<use xlink:href="#f1_22" transform="matrix(12,0,0,12,255.2,817.5)" />
<use xlink:href="#f1_25" transform="matrix(12,0,0,12,261,817.5)" />
<use xlink:href="#f1_2e" transform="matrix(12,0,0,12,265.8,817.5)" />
<use xlink:href="#f1_2f" transform="matrix(12,0,0,12,272,817.5)" />
<use xlink:href="#f1_2g" transform="matrix(12,0,0,12,279,817.5)" />
<use xlink:href="#f1_23" transform="matrix(12,0,0,12,288.9,817.5)" />
<use xlink:href="#f1_1x" transform="matrix(12,0,0,12,298,817.5)" />
<use xlink:href="#f1_2c" transform="matrix(12,0,0,12,306.1,817.5)" />
<use xlink:href="#f1_2c" transform="matrix(12,0,0,12,319.7,817.5)" />
<use xlink:href="#f1_24" transform="matrix(12,0,0,12,328.8,817.5)" />
<use xlink:href="#f1_1x" transform="matrix(12,0,0,12,337.6,817.5)" />
<use xlink:href="#f1_2f" transform="matrix(12,0,0,12,345.7,817.5)" />
<use xlink:href="#f1_21" transform="matrix(12,0,0,12,352.7,817.5)" />
<use xlink:href="#f1_i" transform="matrix(12,0,0,12,360.7,817.5)" />
<use xlink:href="#f1_14" transform="matrix(12,0,0,12,369.9,817.5)" />
<use xlink:href="#f1_2h" transform="matrix(12,0,0,12,383.1,817.5)" />
<use xlink:href="#f1_2e" transform="matrix(12,0,0,12,392.3,817.5)" />
<use xlink:href="#f1_25" transform="matrix(12,0,0,12,398.5,817.5)" />
<use xlink:href="#f1_2a" transform="matrix(12,0,0,12,403.2,817.5)" />
<use xlink:href="#f1_23" transform="matrix(12,0,0,12,412,817.5)" />
<use xlink:href="#f1_2g" transform="matrix(12,0,0,12,426,817.5)" />
<use xlink:href="#f1_24" transform="matrix(12,0,0,12,431.4,817.5)" />
<use xlink:href="#f1_25" transform="matrix(12,0,0,12,440.6,817.5)" />
<use xlink:href="#f1_2f" transform="matrix(12,0,0,12,445,817.5)" />
<use xlink:href="#f1_2c" transform="matrix(12,0,0,12,456.4,817.5)" />
<use xlink:href="#f1_24" transform="matrix(12,0,0,12,465.9,817.5)" />
<use xlink:href="#f1_1x" transform="matrix(12,0,0,12,474.7,817.5)" />
<use xlink:href="#f1_2f" transform="matrix(12,0,0,12,482.8,817.5)" />
<use xlink:href="#f1_21" transform="matrix(12,0,0,12,489.7,817.5)" />
<use xlink:href="#f1_g" transform="matrix(12,0,0,12,497.8,817.5)" />
<use xlink:href="#f1_1y" transform="matrix(12,0,0,12,506.9,817.5)" />
<use xlink:href="#f1_25" transform="matrix(12,0,0,12,516.1,817.5)" />
<use xlink:href="#f1_2b" transform="matrix(12,0,0,12,520.5,817.5)" />
<use xlink:href="#f1_2f" transform="matrix(12,0,0,12,530.4,817.5)" />
<use xlink:href="#f1_2l" transform="matrix(12,0,0,12,537.7,817.5)" />
<use xlink:href="#f1_2a" transform="matrix(12,0,0,12,546.5,817.5)" />
<use xlink:href="#f1_2g" transform="matrix(12,0,0,12,555.3,817.5)" />
<use xlink:href="#f1_24" transform="matrix(12,0,0,12,560.8,817.5)" />
<use xlink:href="#f1_21" transform="matrix(12,0,0,12,569.9,817.5)" />
<use xlink:href="#f1_2g" transform="matrix(12,0,0,12,578,817.5)" />
<use xlink:href="#f1_25" transform="matrix(12,0,0,12,583.5,817.5)" />
<use xlink:href="#f1_1z" transform="matrix(12,0,0,12,588.3,817.5)" />
<use xlink:href="#f1_1x" transform="matrix(12,0,0,12,600.7,817.5)" />
<use xlink:href="#f1_1z" transform="matrix(12,0,0,12,608.8,817.5)" />
<use xlink:href="#f1_2g" transform="matrix(12,0,0,12,616.9,817.5)" />
<use xlink:href="#f1_25" transform="matrix(12,0,0,12,622.3,817.5)" />
<use xlink:href="#f1_2i" transform="matrix(12,0,0,12,627.1,817.5)" />
<use xlink:href="#f1_25" transform="matrix(12,0,0,12,636.3,817.5)" />
<use xlink:href="#f1_2g" transform="matrix(12,0,0,12,640.7,817.5)" />
<use xlink:href="#f1_25" transform="matrix(12,0,0,12,646.5,817.5)" />
<use xlink:href="#f1_21" transform="matrix(12,0,0,12,651.3,817.5)" />
<use xlink:href="#f1_2f" transform="matrix(12,0,0,12,659.4,817.5)" />
<use xlink:href="#f1_2b" transform="matrix(12,0,0,12,670.7,817.5)" />
<use xlink:href="#f1_1z" transform="matrix(12,0,0,12,680.2,817.5)" />
<use xlink:href="#f1_1z" transform="matrix(12,0,0,12,688.3,817.5)" />
<use xlink:href="#f1_2h" transform="matrix(12,0,0,12,696.4,817.5)" />
<use xlink:href="#f1_2e" transform="matrix(12,0,0,12,705.5,817.5)" />
<use xlink:href="#f1_1x" transform="matrix(12,0,0,12,716.2,817.5)" />
<use xlink:href="#f1_2g" transform="matrix(12,0,0,12,723.9,817.5)" />
<use xlink:href="#f1_1x" transform="matrix(12,0,0,12,733.7,817.5)" />
<use xlink:href="#f1_2i" transform="matrix(12,0,0,12,745.8,817.5)" />
<use xlink:href="#f1_21" transform="matrix(12,0,0,12,754.6,817.5)" />
<use xlink:href="#f1_2e" transform="matrix(12,0,0,12,762.7,817.5)" />
<use xlink:href="#f1_2l" transform="matrix(12,0,0,12,769.3,817.5)" />
<use xlink:href="#f1_22" transform="matrix(12,0,0,12,782.5,817.5)" />
<use xlink:href="#f1_1x" transform="matrix(12,0,0,12,788,817.5)" />
<use xlink:href="#f1_2f" transform="matrix(12,0,0,12,796.4,817.5)" />
<use xlink:href="#f1_2g" transform="matrix(12,0,0,12,803.3,817.5)" />
<use xlink:href="#f1_2e" transform="matrix(12,0,0,12,812.9,817.5)" />
<use xlink:href="#f1_1x" transform="matrix(12,0,0,12,819.1,817.5)" />
<use xlink:href="#f1_2g" transform="matrix(12,0,0,12,826.8,817.5)" />
<use xlink:href="#f1_21" transform="matrix(12,0,0,12,832.3,817.5)" />
<use xlink:href="#f1_i" transform="matrix(12,0,0,12,840.3,817.5)" />
<use xlink:href="#f1_13" transform="matrix(12,0,0,12,849.1,817.5)" />
<use xlink:href="#f1_21" transform="matrix(12,0,0,12,861.2,817.5)" />
<use xlink:href="#f1_28" transform="matrix(12,0,0,12,869.6,817.5)" />
<use xlink:href="#f1_28" transform="matrix(12,0,0,12,874.7,817.5)" />
<use xlink:href="#f1_2f" transform="matrix(12,0,0,12,55,849.1)" />
<use xlink:href="#f1_2l" transform="matrix(12,0,0,12,62.4,849.1)" />
<use xlink:href="#f1_2a" transform="matrix(12,0,0,12,71.2,849.1)" />
<use xlink:href="#f1_2g" transform="matrix(12,0,0,12,80,849.1)" />
<use xlink:href="#f1_24" transform="matrix(12,0,0,12,85.4,849.1)" />
<use xlink:href="#f1_21" transform="matrix(12,0,0,12,94.6,849.1)" />
<use xlink:href="#f1_2f" transform="matrix(12,0,0,12,102.7,849.1)" />
<use xlink:href="#f1_25" transform="matrix(12,0,0,12,110,849.1)" />
<use xlink:href="#f1_2m" transform="matrix(12,0,0,12,114.7,849.1)" />
<use xlink:href="#f1_21" transform="matrix(12,0,0,12,122.8,849.1)" />
<use xlink:href="#f1_2f" transform="matrix(12,0,0,12,131.2,849.1)" />
<use xlink:href="#f1_29" transform="matrix(12,0,0,12,142.9,849.1)" />
<use xlink:href="#f1_2b" transform="matrix(12,0,0,12,156.5,849.1)" />
<use xlink:href="#f1_2e" transform="matrix(12,0,0,12,166,849.1)" />
<use xlink:href="#f1_21" transform="matrix(12,0,0,12,172.2,849.1)" />
<use xlink:href="#f1_2c" transform="matrix(12,0,0,12,184.7,849.1)" />
<use xlink:href="#f1_2e" transform="matrix(12,0,0,12,193.9,849.1)" />
<use xlink:href="#f1_2b" transform="matrix(12,0,0,12,199.7,849.1)" />
<use xlink:href="#f1_2g" transform="matrix(12,0,0,12,208.9,849.1)" />
<use xlink:href="#f1_21" transform="matrix(12,0,0,12,214.4,849.1)" />
<use xlink:href="#f1_25" transform="matrix(12,0,0,12,222.5,849.1)" />
<use xlink:href="#f1_2a" transform="matrix(12,0,0,12,227.2,849.1)" />
<use xlink:href="#f1_2f" transform="matrix(12,0,0,12,236,849.1)" />
<use xlink:href="#f1_g" transform="matrix(12,0,0,12,243,849.1)" />
<use xlink:href="#f1_25" transform="matrix(12,0,0,12,252.5,849.1)" />
<use xlink:href="#f1_2a" transform="matrix(12,0,0,12,257.3,849.1)" />
<use xlink:href="#f1_1z" transform="matrix(12,0,0,12,266.1,849.1)" />
<use xlink:href="#f1_2e" transform="matrix(12,0,0,12,274.1,849.1)" />
<use xlink:href="#f1_21" transform="matrix(12,0,0,12,280.3,849.1)" />
<use xlink:href="#f1_1x" transform="matrix(12,0,0,12,288.4,849.1)" />
<use xlink:href="#f1_2f" transform="matrix(12,0,0,12,296.8,849.1)" />
<use xlink:href="#f1_21" transform="matrix(12,0,0,12,303.8,849.1)" />
<use xlink:href="#f1_2g" transform="matrix(12,0,0,12,316.2,849.1)" />
<use xlink:href="#f1_24" transform="matrix(12,0,0,12,321.7,849.1)" />
<use xlink:href="#f1_21" transform="matrix(12,0,0,12,330.5,849.1)" />
<use xlink:href="#f1_2a" transform="matrix(12,0,0,12,343,849.1)" />
<use xlink:href="#f1_2h" transform="matrix(12,0,0,12,351.8,849.1)" />
<use xlink:href="#f1_29" transform="matrix(12,0,0,12,361.3,849.1)" />
<use xlink:href="#f1_1y" transform="matrix(12,0,0,12,375.2,849.1)" />
<use xlink:href="#f1_21" transform="matrix(12,0,0,12,384.4,849.1)" />
<use xlink:href="#f1_2e" transform="matrix(12,0,0,12,392.5,849.1)" />
<use xlink:href="#f1_2b" transform="matrix(12,0,0,12,403.1,849.1)" />
<use xlink:href="#f1_22" transform="matrix(12,0,0,12,412.6,849.1)" />
<use xlink:href="#f1_29" transform="matrix(12,0,0,12,422.5,849.1)" />
<use xlink:href="#f1_25" transform="matrix(12,0,0,12,436.8,849.1)" />
<use xlink:href="#f1_2g" transform="matrix(12,0,0,12,441.2,849.1)" />
<use xlink:href="#f1_2b" transform="matrix(12,0,0,12,446.7,849.1)" />
<use xlink:href="#f1_1z" transform="matrix(12,0,0,12,456.2,849.1)" />
<use xlink:href="#f1_24" transform="matrix(12,0,0,12,464.3,849.1)" />
<use xlink:href="#f1_2b" transform="matrix(12,0,0,12,473.1,849.1)" />
<use xlink:href="#f1_2a" transform="matrix(12,0,0,12,482.6,849.1)" />
<use xlink:href="#f1_20" transform="matrix(12,0,0,12,491.4,849.1)" />
<use xlink:href="#f1_2e" transform="matrix(12,0,0,12,500.6,849.1)" />
<use xlink:href="#f1_25" transform="matrix(12,0,0,12,507.1,849.1)" />
<use xlink:href="#f1_1x" transform="matrix(12,0,0,12,511.9,849.1)" />
<use xlink:href="#f1_1x" transform="matrix(12,0,0,12,524.4,849.1)" />
<use xlink:href="#f1_2a" transform="matrix(12,0,0,12,532.4,849.1)" />
<use xlink:href="#f1_20" transform="matrix(12,0,0,12,541.2,849.1)" />
<use xlink:href="#f1_2e" transform="matrix(12,0,0,12,554.8,849.1)" />
<use xlink:href="#f1_25" transform="matrix(12,0,0,12,561.4,849.1)" />
<use xlink:href="#f1_1y" transform="matrix(12,0,0,12,566.2,849.1)" />
<use xlink:href="#f1_2b" transform="matrix(12,0,0,12,575,849.1)" />
<use xlink:href="#f1_2f" transform="matrix(12,0,0,12,584.5,849.1)" />
<use xlink:href="#f1_2b" transform="matrix(12,0,0,12,591.4,849.1)" />
<use xlink:href="#f1_29" transform="matrix(12,0,0,12,600.9,849.1)" />
<use xlink:href="#f1_21" transform="matrix(12,0,0,12,614.5,849.1)" />
<use xlink:href="#f1_2f" transform="matrix(12,0,0,12,622.9,849.1)" />
<use xlink:href="#f1_i" transform="matrix(12,0,0,12,629.9,849.1)" />
<use xlink:href="#f1_13" transform="matrix(12,0,0,12,639.7,849.1)" />
<use xlink:href="#f1_21" transform="matrix(12,0,0,12,651.8,849.1)" />
<use xlink:href="#f1_28" transform="matrix(12,0,0,12,660.2,849.1)" />
<use xlink:href="#f1_28" transform="matrix(12,0,0,12,665,849.1)" />
<use xlink:href="#f1_1x" transform="matrix(12,0,0,12,674.1,849.1)" />
<use xlink:href="#f1_28" transform="matrix(12,0,0,12,682.5,849.1)" />
<use xlink:href="#f1_2f" transform="matrix(12,0,0,12,687.3,849.1)" />
<use xlink:href="#f1_2b" transform="matrix(12,0,0,12,694.3,849.1)" />
<use xlink:href="#f1_2c" transform="matrix(12,0,0,12,708.2,849.1)" />
<use xlink:href="#f1_2e" transform="matrix(12,0,0,12,717.5,849.1)" />
<use xlink:href="#f1_21" transform="matrix(12,0,0,12,723.7,849.1)" />
<use xlink:href="#f1_2c" transform="matrix(12,0,0,12,731.7,849.1)" />
<use xlink:href="#f1_1x" transform="matrix(12,0,0,12,740.9,849.1)" />
<use xlink:href="#f1_2e" transform="matrix(12,0,0,12,749,849.1)" />
<use xlink:href="#f1_21" transform="matrix(12,0,0,12,755.2,849.1)" />
<use xlink:href="#f1_2f" transform="matrix(12,0,0,12,763.3,849.1)" />
<use xlink:href="#f1_25" transform="matrix(12,0,0,12,774.7,849.1)" />
<use xlink:href="#f1_2g" transform="matrix(12,0,0,12,779.1,849.1)" />
<use xlink:href="#f1_2f" transform="matrix(12,0,0,12,784.6,849.1)" />
<use xlink:href="#f1_21" transform="matrix(12,0,0,12,791.5,849.1)" />
<use xlink:href="#f1_28" transform="matrix(12,0,0,12,800,849.1)" />
<use xlink:href="#f1_22" transform="matrix(12,0,0,12,804.7,849.1)" />
<use xlink:href="#f1_22" transform="matrix(12,0,0,12,815,849.1)" />
<use xlink:href="#f1_2b" transform="matrix(12,0,0,12,820.5,849.1)" />
<use xlink:href="#f1_2e" transform="matrix(12,0,0,12,830,849.1)" />
<use xlink:href="#f1_14" transform="matrix(12,0,0,12,840.6,849.1)" />
<use xlink:href="#f1_1e" transform="matrix(12,0,0,12,853.8,849.1)" />
<use xlink:href="#f1_11" transform="matrix(12,0,0,12,867,849.1)" />
<use xlink:href="#f1_2e" transform="matrix(12,0,0,12,55,881)" />
<use xlink:href="#f1_21" transform="matrix(12,0,0,12,61.3,881)" />
<use xlink:href="#f1_2c" transform="matrix(12,0,0,12,69.3,881)" />
<use xlink:href="#f1_28" transform="matrix(12,0,0,12,78.8,881)" />
<use xlink:href="#f1_25" transform="matrix(12,0,0,12,83.6,881)" />
<use xlink:href="#f1_1z" transform="matrix(12,0,0,12,88.4,881)" />
<use xlink:href="#f1_1x" transform="matrix(12,0,0,12,96.4,881)" />
<use xlink:href="#f1_2g" transform="matrix(12,0,0,12,104.5,881)" />
<use xlink:href="#f1_25" transform="matrix(12,0,0,12,110.3,881)" />
<use xlink:href="#f1_2b" transform="matrix(12,0,0,12,114.7,881)" />
<use xlink:href="#f1_2a" transform="matrix(12,0,0,12,124.3,881)" />
<use xlink:href="#f1_i" transform="matrix(12,0,0,12,133.1,881)" />
<use xlink:href="#f0_1j" transform="matrix(12,0,0,12,55,924.6)" />
<use xlink:href="#f0_2c" transform="matrix(12,0,0,12,71.5,924.6)" />
<use xlink:href="#f0_24" transform="matrix(12,0,0,12,81.7,924.6)" />
<use xlink:href="#f0_1x" transform="matrix(12,0,0,12,92,924.6)" />
<use xlink:href="#f0_2f" transform="matrix(12,0,0,12,101.2,924.6)" />
<use xlink:href="#f0_21" transform="matrix(12,0,0,12,108.1,924.6)" />
<use xlink:href="#f1_25" transform="matrix(12,0,0,12,122.5,924.6)" />
<use xlink:href="#f1_2f" transform="matrix(12,0,0,12,126.9,924.6)" />
<use xlink:href="#f1_2g" transform="matrix(12,0,0,12,140.1,924.6)" />
<use xlink:href="#f1_24" transform="matrix(12,0,0,12,145.6,924.6)" />
<use xlink:href="#f1_21" transform="matrix(12,0,0,12,154.4,924.6)" />
<use xlink:href="#f1_2c" transform="matrix(12,0,0,12,168.6,924.6)" />
<use xlink:href="#f1_24" transform="matrix(12,0,0,12,177.8,924.6)" />
<use xlink:href="#f1_1x" transform="matrix(12,0,0,12,186.6,924.6)" />
<use xlink:href="#f1_2f" transform="matrix(12,0,0,12,195,924.6)" />
<use xlink:href="#f1_21" transform="matrix(12,0,0,12,202,924.6)" />
<use xlink:href="#f1_2j" transform="matrix(12,0,0,12,216.3,924.6)" />
<use xlink:href="#f1_24" transform="matrix(12,0,0,12,229.5,924.6)" />
<use xlink:href="#f1_21" transform="matrix(12,0,0,12,238.7,924.6)" />
<use xlink:href="#f1_2e" transform="matrix(12,0,0,12,246.7,924.6)" />
<use xlink:href="#f1_21" transform="matrix(12,0,0,12,252.9,924.6)" />
<use xlink:href="#f1_14" transform="matrix(12,0,0,12,267.2,924.6)" />
<use xlink:href="#f1_1e" transform="matrix(12,0,0,12,280.4,924.6)" />
<use xlink:href="#f1_11" transform="matrix(12,0,0,12,293.6,924.6)" />
<use xlink:href="#f1_25" transform="matrix(12,0,0,12,313,924.6)" />
<use xlink:href="#f1_2f" transform="matrix(12,0,0,12,317.8,924.6)" />
<use xlink:href="#f1_2e" transform="matrix(12,0,0,12,331,924.6)" />
<use xlink:href="#f1_21" transform="matrix(12,0,0,12,337.2,924.6)" />
<use xlink:href="#f1_2c" transform="matrix(12,0,0,12,345.3,924.6)" />
<use xlink:href="#f1_28" transform="matrix(12,0,0,12,354.8,924.6)" />
<use xlink:href="#f1_25" transform="matrix(12,0,0,12,359.5,924.6)" />
<use xlink:href="#f1_1z" transform="matrix(12,0,0,12,364.3,924.6)" />
<use xlink:href="#f1_1x" transform="matrix(12,0,0,12,372.4,924.6)" />
<use xlink:href="#f1_2g" transform="matrix(12,0,0,12,380.4,924.6)" />
<use xlink:href="#f1_21" transform="matrix(12,0,0,12,385.9,924.6)" />
<use xlink:href="#f1_20" transform="matrix(12,0,0,12,394,924.6)" />
<use xlink:href="#f1_i" transform="matrix(12,0,0,12,403.1,924.6)" />
<use xlink:href="#f1_11" transform="matrix(12,0,0,12,414.1,924.6)" />
<use xlink:href="#f1_2g" transform="matrix(12,0,0,12,426.9,924.6)" />
<use xlink:href="#f1_2g" transform="matrix(12,0,0,12,437.9,924.6)" />
<use xlink:href="#f1_24" transform="matrix(12,0,0,12,443.4,924.6)" />
<use xlink:href="#f1_21" transform="matrix(12,0,0,12,452.2,924.6)" />
<use xlink:href="#f1_21" transform="matrix(12,0,0,12,466.5,924.6)" />
<use xlink:href="#f1_2a" transform="matrix(12,0,0,12,474.6,924.6)" />
<use xlink:href="#f1_20" transform="matrix(12,0,0,12,483.4,924.6)" />
<use xlink:href="#f1_2b" transform="matrix(12,0,0,12,498.7,924.6)" />
<use xlink:href="#f1_22" transform="matrix(12,0,0,12,508.3,924.6)" />
<use xlink:href="#f1_14" transform="matrix(12,0,0,12,520,924.6)" />
<use xlink:href="#f1_1e" transform="matrix(12,0,0,12,533.2,924.6)" />
<use xlink:href="#f1_11" transform="matrix(12,0,0,12,546.7,924.6)" />
<use xlink:href="#f1_2e" transform="matrix(12,0,0,12,565.8,924.6)" />
<use xlink:href="#f1_21" transform="matrix(12,0,0,12,572,924.6)" />
<use xlink:href="#f1_2c" transform="matrix(12,0,0,12,580,924.6)" />
<use xlink:href="#f1_28" transform="matrix(12,0,0,12,589.6,924.6)" />
<use xlink:href="#f1_25" transform="matrix(12,0,0,12,594.3,924.6)" />
<use xlink:href="#f1_1z" transform="matrix(12,0,0,12,599.1,924.6)" />
<use xlink:href="#f1_1x" transform="matrix(12,0,0,12,607.2,924.6)" />
<use xlink:href="#f1_2g" transform="matrix(12,0,0,12,615.2,924.6)" />
<use xlink:href="#f1_25" transform="matrix(12,0,0,12,621.1,924.6)" />
<use xlink:href="#f1_2b" transform="matrix(12,0,0,12,625.5,924.6)" />
<use xlink:href="#f1_2a" transform="matrix(12,0,0,12,635,924.6)" />
<use xlink:href="#f1_g" transform="matrix(12,0,0,12,643.8,924.6)" />
<use xlink:href="#f1_21" transform="matrix(12,0,0,12,654.8,924.6)" />
<use xlink:href="#f1_1x" transform="matrix(12,0,0,12,662.8,924.6)" />
<use xlink:href="#f1_1z" transform="matrix(12,0,0,12,670.9,924.6)" />
<use xlink:href="#f1_24" transform="matrix(12,0,0,12,679,924.6)" />
<use xlink:href="#f1_1z" transform="matrix(12,0,0,12,694,924.6)" />
<use xlink:href="#f1_24" transform="matrix(12,0,0,12,702.4,924.6)" />
<use xlink:href="#f1_2e" transform="matrix(12,0,0,12,711.2,924.6)" />
<use xlink:href="#f1_2b" transform="matrix(12,0,0,12,717.4,924.6)" />
<use xlink:href="#f1_29" transform="matrix(12,0,0,12,726.9,924.6)" />
<use xlink:href="#f1_2b" transform="matrix(12,0,0,12,740.5,924.6)" />
<use xlink:href="#f1_2f" transform="matrix(12,0,0,12,750,924.6)" />
<use xlink:href="#f1_2b" transform="matrix(12,0,0,12,757,924.6)" />
<use xlink:href="#f1_29" transform="matrix(12,0,0,12,766.8,924.6)" />
<use xlink:href="#f1_21" transform="matrix(12,0,0,12,780.4,924.6)" />
<use xlink:href="#f1_25" transform="matrix(12,0,0,12,795.1,924.6)" />
<use xlink:href="#f1_2f" transform="matrix(12,0,0,12,799.8,924.6)" />
<use xlink:href="#f1_2j" transform="matrix(12,0,0,12,813,924.6)" />
<use xlink:href="#f1_25" transform="matrix(12,0,0,12,826.6,924.6)" />
<use xlink:href="#f1_2g" transform="matrix(12,0,0,12,831,924.6)" />
<use xlink:href="#f1_24" transform="matrix(12,0,0,12,836.4,924.6)" />
<use xlink:href="#f1_2g" transform="matrix(12,0,0,12,851.5,924.6)" />
<use xlink:href="#f1_2j" transform="matrix(12,0,0,12,856.9,924.6)" />
<use xlink:href="#f1_2b" transform="matrix(12,0,0,12,869.8,924.6)" />
<use xlink:href="#f1_2f" transform="matrix(12,0,0,12,55,956.2)" />
<use xlink:href="#f1_25" transform="matrix(12,0,0,12,62.4,956.2)" />
<use xlink:href="#f1_2f" transform="matrix(12,0,0,12,67.1,956.2)" />
<use xlink:href="#f1_2g" transform="matrix(12,0,0,12,74.1,956.2)" />
<use xlink:href="#f1_21" transform="matrix(12,0,0,12,79.6,956.2)" />
<use xlink:href="#f1_2e" transform="matrix(12,0,0,12,87.6,956.2)" />
<use xlink:href="#f1_1z" transform="matrix(12,0,0,12,98.6,956.2)" />
<use xlink:href="#f1_24" transform="matrix(12,0,0,12,106.7,956.2)" />
<use xlink:href="#f1_2e" transform="matrix(12,0,0,12,115.5,956.2)" />
<use xlink:href="#f1_2b" transform="matrix(12,0,0,12,121.7,956.2)" />
<use xlink:href="#f1_29" transform="matrix(12,0,0,12,131.2,956.2)" />
<use xlink:href="#f1_1x" transform="matrix(12,0,0,12,144.8,956.2)" />
<use xlink:href="#f1_2g" transform="matrix(12,0,0,12,152.8,956.2)" />
<use xlink:href="#f1_25" transform="matrix(12,0,0,12,158.7,956.2)" />
<use xlink:href="#f1_20" transform="matrix(12,0,0,12,163.1,956.2)" />
<use xlink:href="#f1_2f" transform="matrix(12,0,0,12,172.2,956.2)" />
<use xlink:href="#f1_i" transform="matrix(12,0,0,12,179.2,956.2)" />
<use xlink:href="#f1_1k" transform="matrix(12,0,0,12,188.7,956.2)" />
<use xlink:href="#f1_24" transform="matrix(12,0,0,12,200.1,956.2)" />
<use xlink:href="#f1_2h" transform="matrix(12,0,0,12,208.9,956.2)" />
<use xlink:href="#f1_2f" transform="matrix(12,0,0,12,218,956.2)" />
<use xlink:href="#f1_g" transform="matrix(12,0,0,12,225,956.2)" />
<use xlink:href="#f1_2g" transform="matrix(12,0,0,12,234.5,956.2)" />
<use xlink:href="#f1_24" transform="matrix(12,0,0,12,240,956.2)" />
<use xlink:href="#f1_21" transform="matrix(12,0,0,12,248.8,956.2)" />
<use xlink:href="#f1_1x" transform="matrix(12,0,0,12,261.6,956.2)" />
<use xlink:href="#f1_29" transform="matrix(12,0,0,12,270,956.2)" />
<use xlink:href="#f1_2b" transform="matrix(12,0,0,12,283.6,956.2)" />
<use xlink:href="#f1_2h" transform="matrix(12,0,0,12,293.1,956.2)" />
<use xlink:href="#f1_2a" transform="matrix(12,0,0,12,302.2,956.2)" />
<use xlink:href="#f1_2g" transform="matrix(12,0,0,12,311,956.2)" />
<use xlink:href="#f1_2b" transform="matrix(12,0,0,12,320.9,956.2)" />
<use xlink:href="#f1_22" transform="matrix(12,0,0,12,330.4,956.2)" />
<use xlink:href="#f1_14" transform="matrix(12,0,0,12,340.7,956.2)" />
<use xlink:href="#f1_1e" transform="matrix(12,0,0,12,353.9,956.2)" />
<use xlink:href="#f1_11" transform="matrix(12,0,0,12,367.4,956.2)" />
<use xlink:href="#f1_23" transform="matrix(12,0,0,12,385,956.2)" />
<use xlink:href="#f1_21" transform="matrix(12,0,0,12,394.2,956.2)" />
<use xlink:href="#f1_2g" transform="matrix(12,0,0,12,402.3,956.2)" />
<use xlink:href="#f1_2f" transform="matrix(12,0,0,12,407.7,956.2)" />
<use xlink:href="#f1_20" transform="matrix(12,0,0,12,419.4,956.2)" />
<use xlink:href="#f1_2b" transform="matrix(12,0,0,12,428.2,956.2)" />
<use xlink:href="#f1_2h" transform="matrix(12,0,0,12,437.8,956.2)" />
<use xlink:href="#f1_1y" transform="matrix(12,0,0,12,446.9,956.2)" />
<use xlink:href="#f1_28" transform="matrix(12,0,0,12,456.1,956.2)" />
<use xlink:href="#f1_21" transform="matrix(12,0,0,12,460.5,956.2)" />
<use xlink:href="#f1_20" transform="matrix(12,0,0,12,468.6,956.2)" />
<use xlink:href="#f1_20" transform="matrix(12,0,0,12,482.5,956.2)" />
<use xlink:href="#f1_2h" transform="matrix(12,0,0,12,491.6,956.2)" />
<use xlink:href="#f1_2e" transform="matrix(12,0,0,12,500.8,956.2)" />
<use xlink:href="#f1_25" transform="matrix(12,0,0,12,507.4,956.2)" />
<use xlink:href="#f1_2a" transform="matrix(12,0,0,12,512.2,956.2)" />
<use xlink:href="#f1_23" transform="matrix(12,0,0,12,521,956.2)" />
<use xlink:href="#f1_2g" transform="matrix(12,0,0,12,534.9,956.2)" />
<use xlink:href="#f1_24" transform="matrix(12,0,0,12,540.4,956.2)" />
<use xlink:href="#f1_25" transform="matrix(12,0,0,12,549.5,956.2)" />
<use xlink:href="#f1_2f" transform="matrix(12,0,0,12,554.3,956.2)" />
<use xlink:href="#f1_2c" transform="matrix(12,0,0,12,566,956.2)" />
<use xlink:href="#f1_24" transform="matrix(12,0,0,12,575.2,956.2)" />
<use xlink:href="#f1_1x" transform="matrix(12,0,0,12,584,956.2)" />
<use xlink:href="#f1_2f" transform="matrix(12,0,0,12,592.4,956.2)" />
<use xlink:href="#f1_21" transform="matrix(12,0,0,12,599.4,956.2)" />
<use xlink:href="#f1_g" transform="matrix(12,0,0,12,607.4,956.2)" />
<use xlink:href="#f1_1y" transform="matrix(12,0,0,12,616.9,956.2)" />
<use xlink:href="#f1_2h" transform="matrix(12,0,0,12,625.7,956.2)" />
<use xlink:href="#f1_2g" transform="matrix(12,0,0,12,634.9,956.2)" />
<use xlink:href="#f1_2g" transform="matrix(12,0,0,12,644.8,956.2)" />
<use xlink:href="#f1_24" transform="matrix(12,0,0,12,650.2,956.2)" />
<use xlink:href="#f1_21" transform="matrix(12,0,0,12,659,956.2)" />
<use xlink:href="#f1_2c" transform="matrix(12,0,0,12,671.9,956.2)" />
<use xlink:href="#f1_28" transform="matrix(12,0,0,12,681.4,956.2)" />
<use xlink:href="#f1_2b" transform="matrix(12,0,0,12,685.8,956.2)" />
<use xlink:href="#f1_25" transform="matrix(12,0,0,12,695.7,956.2)" />
<use xlink:href="#f1_20" transform="matrix(12,0,0,12,700.1,956.2)" />
<use xlink:href="#f1_2l" transform="matrix(12,0,0,12,709.6,956.2)" />
<use xlink:href="#f1_2e" transform="matrix(12,0,0,12,722.8,956.2)" />
<use xlink:href="#f1_21" transform="matrix(12,0,0,12,729,956.2)" />
<use xlink:href="#f1_29" transform="matrix(12,0,0,12,737.4,956.2)" />
<use xlink:href="#f1_1x" transform="matrix(12,0,0,12,751.3,956.2)" />
<use xlink:href="#f1_25" transform="matrix(12,0,0,12,759.7,956.2)" />
<use xlink:href="#f1_2a" transform="matrix(12,0,0,12,764.5,956.2)" />
<use xlink:href="#f1_2f" transform="matrix(12,0,0,12,773.7,956.2)" />
<use xlink:href="#f1_2f" transform="matrix(12,0,0,12,785.7,956.2)" />
<use xlink:href="#f1_1x" transform="matrix(12,0,0,12,792.7,956.2)" />
<use xlink:href="#f1_29" transform="matrix(12,0,0,12,801.1,956.2)" />
<use xlink:href="#f1_21" transform="matrix(12,0,0,12,815.1,956.2)" />
<use xlink:href="#f1_i" transform="matrix(12,0,0,12,823.1,956.2)" />
<use xlink:href="#f0_17" transform="matrix(12,0,0,12,55,1000.2)" />
<use xlink:href="#f0_m" transform="matrix(12,0,0,12,69.3,1000.2)" />
<use xlink:href="#f0_2c" transform="matrix(12,0,0,12,85.1,1000.2)" />
<use xlink:href="#f0_24" transform="matrix(12,0,0,12,95.3,1000.2)" />
<use xlink:href="#f0_1x" transform="matrix(12,0,0,12,105.6,1000.2)" />
<use xlink:href="#f0_2f" transform="matrix(12,0,0,12,114.7,1000.2)" />
<use xlink:href="#f0_21" transform="matrix(12,0,0,12,121.7,1000.2)" />
<use xlink:href="#f1_25" transform="matrix(12,0,0,12,136.8,1000.2)" />
<use xlink:href="#f1_2f" transform="matrix(12,0,0,12,141.2,1000.2)" />
<use xlink:href="#f1_2g" transform="matrix(12,0,0,12,154.8,1000.2)" />
<use xlink:href="#f1_24" transform="matrix(12,0,0,12,160.2,1000.2)" />
<use xlink:href="#f1_21" transform="matrix(12,0,0,12,169,1000.2)" />
<use xlink:href="#f1_2c" transform="matrix(12,0,0,12,183.7,1000.2)" />
<use xlink:href="#f1_24" transform="matrix(12,0,0,12,193.2,1000.2)" />
<use xlink:href="#f1_1x" transform="matrix(12,0,0,12,202,1000.2)" />
<use xlink:href="#f1_2f" transform="matrix(12,0,0,12,210.4,1000.2)" />
<use xlink:href="#f1_21" transform="matrix(12,0,0,12,217.4,1000.2)" />
<use xlink:href="#f1_2j" transform="matrix(12,0,0,12,232,1000.2)" />
<use xlink:href="#f1_24" transform="matrix(12,0,0,12,245.6,1000.2)" />
<use xlink:href="#f1_21" transform="matrix(12,0,0,12,254.4,1000.2)" />
<use xlink:href="#f1_2e" transform="matrix(12,0,0,12,262.4,1000.2)" />
<use xlink:href="#f1_21" transform="matrix(12,0,0,12,268.7,1000.2)" />
<use xlink:href="#f1_2g" transform="matrix(12,0,0,12,283.3,1000.2)" />
<use xlink:href="#f1_24" transform="matrix(12,0,0,12,288.8,1000.2)" />
<use xlink:href="#f1_21" transform="matrix(12,0,0,12,297.6,1000.2)" />
<use xlink:href="#f1_1z" transform="matrix(12,0,0,12,312.2,1000.2)" />
<use xlink:href="#f1_21" transform="matrix(12,0,0,12,320.3,1000.2)" />
<use xlink:href="#f1_28" transform="matrix(12,0,0,12,328.7,1000.2)" />
<use xlink:href="#f1_28" transform="matrix(12,0,0,12,333.8,1000.2)" />
<use xlink:href="#f1_2c" transform="matrix(12,0,0,12,345.2,1000.2)" />
<use xlink:href="#f1_2e" transform="matrix(12,0,0,12,354.4,1000.2)" />
<use xlink:href="#f1_21" transform="matrix(12,0,0,12,360.6,1000.2)" />
<use xlink:href="#f1_2c" transform="matrix(12,0,0,12,368.6,1000.2)" />
<use xlink:href="#f1_1x" transform="matrix(12,0,0,12,377.8,1000.2)" />
<use xlink:href="#f1_2e" transform="matrix(12,0,0,12,385.9,1000.2)" />
<use xlink:href="#f1_21" transform="matrix(12,0,0,12,392.1,1000.2)" />
<use xlink:href="#f1_25" transform="matrix(12,0,0,12,407.1,1000.2)" />
<use xlink:href="#f1_2g" transform="matrix(12,0,0,12,411.5,1000.2)" />
<use xlink:href="#f1_2f" transform="matrix(12,0,0,12,417,1000.2)" />
<use xlink:href="#f1_21" transform="matrix(12,0,0,12,424,1000.2)" />
<use xlink:href="#f1_28" transform="matrix(12,0,0,12,432.4,1000.2)" />
<use xlink:href="#f1_22" transform="matrix(12,0,0,12,437.1,1000.2)" />
<use xlink:href="#f1_22" transform="matrix(12,0,0,12,450,1000.2)" />
<use xlink:href="#f1_2b" transform="matrix(12,0,0,12,455.5,1000.2)" />
<use xlink:href="#f1_2e" transform="matrix(12,0,0,12,465,1000.2)" />
<use xlink:href="#f1_29" transform="matrix(12,0,0,12,478.1,1000.2)" />
<use xlink:href="#f1_25" transform="matrix(12,0,0,12,492.1,1000.2)" />
<use xlink:href="#f1_2g" transform="matrix(12,0,0,12,496.5,1000.2)" />
<use xlink:href="#f1_2b" transform="matrix(12,0,0,12,501.9,1000.2)" />
<use xlink:href="#f1_2f" transform="matrix(12,0,0,12,511.5,1000.2)" />
<use xlink:href="#f1_25" transform="matrix(12,0,0,12,518.8,1000.2)" />
<use xlink:href="#f1_2f" transform="matrix(12,0,0,12,523.2,1000.2)" />
<use xlink:href="#f1_i" transform="matrix(12,0,0,12,530.1,1000.2)" />
<use xlink:href="#f1_19" transform="matrix(12,0,0,12,542.1,1000.2)" />
<use xlink:href="#f1_2g" transform="matrix(12,0,0,12,548.3,1000.2)" />
<use xlink:href="#f1_1x" transform="matrix(12,0,0,12,560.4,1000.2)" />
<use xlink:href="#f1_28" transform="matrix(12,0,0,12,568.5,1000.2)" />
<use xlink:href="#f1_2f" transform="matrix(12,0,0,12,572.9,1000.2)" />
<use xlink:href="#f1_2b" transform="matrix(12,0,0,12,579.8,1000.2)" />
<use xlink:href="#f1_25" transform="matrix(12,0,0,12,596.3,1000.2)" />
<use xlink:href="#f1_2a" transform="matrix(12,0,0,12,601.1,1000.2)" />
<use xlink:href="#f1_2i" transform="matrix(12,0,0,12,610.2,1000.2)" />
<use xlink:href="#f1_2b" transform="matrix(12,0,0,12,619,1000.2)" />
<use xlink:href="#f1_28" transform="matrix(12,0,0,12,628.9,1000.2)" />
<use xlink:href="#f1_2i" transform="matrix(12,0,0,12,633.7,1000.2)" />
<use xlink:href="#f1_21" transform="matrix(12,0,0,12,642.5,1000.2)" />
<use xlink:href="#f1_2f" transform="matrix(12,0,0,12,650.9,1000.2)" />
<use xlink:href="#f1_2c" transform="matrix(12,0,0,12,664.4,1000.2)" />
<use xlink:href="#f1_2e" transform="matrix(12,0,0,12,673.6,1000.2)" />
<use xlink:href="#f1_2b" transform="matrix(12,0,0,12,679.8,1000.2)" />
<use xlink:href="#f1_2g" transform="matrix(12,0,0,12,689,1000.2)" />
<use xlink:href="#f1_21" transform="matrix(12,0,0,12,694.5,1000.2)" />
<use xlink:href="#f1_25" transform="matrix(12,0,0,12,702.5,1000.2)" />
<use xlink:href="#f1_2a" transform="matrix(12,0,0,12,707.3,1000.2)" />
<use xlink:href="#f1_2f" transform="matrix(12,0,0,12,722.7,1000.2)" />
<use xlink:href="#f1_2l" transform="matrix(12,0,0,12,730,1000.2)" />
<use xlink:href="#f1_2a" transform="matrix(12,0,0,12,738.8,1000.2)" />
<use xlink:href="#f1_2g" transform="matrix(12,0,0,12,747.6,1000.2)" />
<use xlink:href="#f1_24" transform="matrix(12,0,0,12,753.4,1000.2)" />
<use xlink:href="#f1_21" transform="matrix(12,0,0,12,762.6,1000.2)" />
<use xlink:href="#f1_2f" transform="matrix(12,0,0,12,770.7,1000.2)" />
<use xlink:href="#f1_25" transform="matrix(12,0,0,12,778,1000.2)" />
<use xlink:href="#f1_2f" transform="matrix(12,0,0,12,782.8,1000.2)" />
<use xlink:href="#f1_1x" transform="matrix(12,0,0,12,796.7,1000.2)" />
<use xlink:href="#f1_2a" transform="matrix(12,0,0,12,804.7,1000.2)" />
<use xlink:href="#f1_20" transform="matrix(12,0,0,12,813.5,1000.2)" />
<use xlink:href="#f1_22" transform="matrix(12,0,0,12,829.7,1000.2)" />
<use xlink:href="#f1_2h" transform="matrix(12,0,0,12,835.5,1000.2)" />
<use xlink:href="#f1_2e" transform="matrix(12,0,0,12,844.7,1000.2)" />
<use xlink:href="#f1_2g" transform="matrix(12,0,0,12,850.9,1000.2)" />
<use xlink:href="#f1_24" transform="matrix(12,0,0,12,856.4,1000.2)" />
<use xlink:href="#f1_21" transform="matrix(12,0,0,12,865.2,1000.2)" />
<use xlink:href="#f1_2e" transform="matrix(12,0,0,12,873.3,1000.2)" />
<use xlink:href="#f1_23" transform="matrix(12,0,0,12,55,1031.7)" />
<use xlink:href="#f1_2e" transform="matrix(12,0,0,12,64.2,1031.7)" />
<use xlink:href="#f1_2b" transform="matrix(12,0,0,12,70.4,1031.7)" />
<use xlink:href="#f1_2j" transform="matrix(12,0,0,12,79.9,1031.7)" />
<use xlink:href="#f1_2g" transform="matrix(12,0,0,12,92.8,1031.7)" />
<use xlink:href="#f1_24" transform="matrix(12,0,0,12,98.2,1031.7)" />
<use xlink:href="#f1_2b" transform="matrix(12,0,0,12,111.4,1031.7)" />
<use xlink:href="#f1_22" transform="matrix(12,0,0,12,121,1031.7)" />
<use xlink:href="#f1_2g" transform="matrix(12,0,0,12,131.2,1031.7)" />
<use xlink:href="#f1_24" transform="matrix(12,0,0,12,136.7,1031.7)" />
<use xlink:href="#f1_21" transform="matrix(12,0,0,12,145.5,1031.7)" />
<use xlink:href="#f1_1z" transform="matrix(12,0,0,12,158.3,1031.7)" />
<use xlink:href="#f1_21" transform="matrix(12,0,0,12,166.4,1031.7)" />
<use xlink:href="#f1_28" transform="matrix(12,0,0,12,174.8,1031.7)" />
<use xlink:href="#f1_28" transform="matrix(12,0,0,12,179.6,1031.7)" />
<use xlink:href="#f1_i" transform="matrix(12,0,0,12,184,1031.7)" />
<use xlink:href="#f0_1d" transform="matrix(12,0,0,12,55,1075.7)" />
<use xlink:href="#f0_25" transform="matrix(12,0,0,12,72.6,1075.7)" />
<use xlink:href="#f0_2g" transform="matrix(12,0,0,12,77.7,1075.7)" />
<use xlink:href="#f0_2b" transform="matrix(12,0,0,12,84,1075.7)" />
<use xlink:href="#f0_2f" transform="matrix(12,0,0,12,93.1,1075.7)" />
<use xlink:href="#f0_25" transform="matrix(12,0,0,12,100.1,1075.7)" />
<use xlink:href="#f0_2f" transform="matrix(12,0,0,12,105.2,1075.7)" />
</g>
<path fill-rule="evenodd" d="M55,1079.4h57.2v-1.8H55v1.8Z" class="g0_167" />
<image preserveAspectRatio="none" x="285" y="250" width="364" height="363" xlink:href="img/1.png" />
<g fill="#000000" >
<use xlink:href="#f2_l" transform="matrix(8,0,0,8,818.2,1187.9)" />
</g>
<defs>
<path d="M608,-14c0,0,-251,0,-392,133C216,119,75,252,75,488c0,0,0,257,134,390c0,0,135,133,398,133c0,0,174,0,361,-50l4,-240H905L884,866c0,0,-98,67,-229,67c0,0,-173,0,-253,-108c0,0,-80,-108,-80,-334c0,0,0,-209,84,-319c0,0,83,-109,243,-109c0,0,84,0,147,22c0,0,63,22,99,53l24,164h68L982,48C982,48,915,22,808,4C808,4,700,-14,608,-14Z" 
id="f0_13"
transform="scale(0.001,-0.001)" />

<path d="M434,423c0,0,0,101,-7,142c0,0,-6,40,-22,60c0,0,-16,19,-45,19c0,0,-44,0,-66,-48c0,0,-22,-49,-22,-173ZM389,-14c0,0,-172,0,-254,89c0,0,-83,90,-83,279c0,0,0,184,79,274c0,0,79,91,238,91c0,0,142,0,206,-76c0,0,64,-76,64,-237V345H271V333c0,0,0,-111,18,-158c0,0,18,-47,58,-72c0,0,40,-25,110,-25c0,0,66,0,166,22V42C623,42,582,18,517,1c0,0,-66,-15,-128,-15Z" 
id="f0_21"
transform="scale(0.001,-0.001)" />

<path d="M30,0V49l76,18V992l-72,18v50H322V67L398,49V0Z" 
id="f0_28"
transform="scale(0.001,-0.001)" />

<path d="M159,-329c0,0,-61,0,-123,14v180H81l32,-94c0,0,21,-17,55,-17c0,0,28,0,50,13c0,0,21,14,40,39c0,0,20,25,37,62c0,0,17,37,50,110L64,634L15,652v49H374V652L290,632L455,244L602,634l-82,18v49H749V652L698,637L421,-44c0,0,-47,-121,-83,-176c0,0,-36,-55,-80,-82c0,0,-43,-27,-99,-27Z" 
id="f0_2l"
transform="scale(0.001,-0.001)" />

<path d="M425,-14c0,0,-187,0,-280,90c0,0,-93,90,-93,276c0,0,0,115,42,198c0,0,43,82,121,126c0,0,78,44,182,44c0,0,104,0,227,-26V486H571L539,609c0,0,-25,19,-50,26c0,0,-24,7,-65,7c0,0,-44,0,-79,-35c0,0,-36,-35,-56,-98c0,0,-20,-64,-20,-153c0,0,0,-150,47,-214c0,0,47,-64,148,-64c0,0,103,0,176,21V42C640,42,606,15,547,0c0,0,-59,-14,-122,-14Z" 
id="f0_1z"
transform="scale(0.001,-0.001)" />

<path d="M345,75c0,0,50,0,110,26V351l-63,-2c0,0,-72,-3,-100,-38c0,0,-28,-35,-28,-113c0,0,0,-63,22,-93c0,0,23,-30,59,-30ZM266,-14c0,0,-217,0,-217,208c0,0,0,79,32,126c0,0,32,48,93,71c0,0,60,22,190,25l91,2V521c0,0,0,126,-104,126c0,0,-62,0,-140,-39L183,521H134V691c0,0,112,17,165,21c0,0,53,5,108,5c0,0,264,0,264,-194V67L741,49V0H483L466,54C466,54,408,14,361,0c0,0,-47,-14,-95,-14Z" 
id="f0_1x"
transform="scale(0.001,-0.001)" />

<path d="M41,0V49l69,18V634L41,652v49H313l11,-61l50,26c0,0,105,54,188,54c0,0,194,0,194,-207V67L827,49V0H478V49l63,18V484c0,0,0,63,-27,98c0,0,-26,35,-75,35c0,0,-57,0,-114,-25V67L389,49V0Z" 
id="f0_2a"
transform="scale(0.001,-0.001)" />

<path d="M416,68c0,0,60,0,124,32V628c0,0,-58,15,-118,15c0,0,-67,0,-104,-73c0,0,-38,-73,-38,-216c0,0,0,-139,36,-212c0,0,35,-74,100,-74ZM369,-14c0,0,-155,0,-231,88c0,0,-76,90,-76,274c0,0,0,182,82,277c0,0,81,95,236,95c0,0,82,0,165,-20c0,0,-5,24,-5,115V992l-72,18v50H756V67L833,49V0H562L547,40C547,40,505,13,483,4c0,0,-23,-7,-51,-12c0,0,-28,-6,-63,-6Z" 
id="f0_20"
transform="scale(0.001,-0.001)" />

<path d="M519,79c0,0,97,0,153,42c0,0,57,42,83,131c0,0,26,89,26,248c0,0,0,216,-79,317c0,0,-79,101,-257,101H389V85c0,0,72,-6,130,-6ZM533,-2L198,0H27V54L155,74V926L27,945v55H502c0,0,269,0,398,-122c0,0,129,-122,129,-372c0,0,0,-258,-123,-383C906,123,783,-2,533,-2Z" 
id="f0_14"
transform="scale(0.001,-0.001)" />

<path d="M34,0V49l76,18V634L38,652v49H325V67L402,49V0ZM217,831c0,0,-48,0,-81,33c0,0,-34,33,-34,82c0,0,0,48,34,81c0,0,34,33,81,33c0,0,48,0,81,-33c0,0,33,-33,33,-81c0,0,0,-47,-33,-81c0,0,-32,-34,-81,-34Z" 
id="f0_25"
transform="scale(0.001,-0.001)" />

<path d="M342,-14L49,634L0,652v49H359V652L275,632L455,233L617,634l-82,18v49H764V652L713,637L433,-14Z" 
id="f0_2i"
transform="scale(0.001,-0.001)" />

<path d="M276,-14c0,0,-57,0,-125,13C151,-1,83,10,48,23V214H97l28,-98c0,0,26,-26,69,-44c0,0,42,-17,86,-17c0,0,65,0,97,28c0,0,32,28,32,71c0,0,0,41,-31,65c0,0,-30,25,-133,57c0,0,-108,34,-154,92c0,0,-45,58,-45,143c0,0,0,95,71,152c0,0,71,57,183,57c0,0,77,0,207,-22V518H457l-24,82c0,0,-21,22,-60,35c0,0,-40,14,-75,14c0,0,-53,0,-79,-22c0,0,-26,-22,-26,-59c0,0,0,-40,32,-65c0,0,32,-26,132,-55c0,0,109,-34,155,-89c0,0,45,-55,45,-137c0,0,0,-117,-72,-177c0,0,-72,-59,-209,-59Z" 
id="f0_2f"
transform="scale(0.001,-0.001)" />

<path d="M379,60c0,0,59,0,84,64c0,0,24,65,24,231c0,0,0,164,-24,227c0,0,-24,63,-84,63c0,0,-57,0,-80,-60c0,0,-22,-61,-22,-230c0,0,0,-173,23,-234c0,0,22,-61,79,-61Zm-2,-74c0,0,-161,0,-240,91c0,0,-79,91,-79,277c0,0,0,186,80,276c0,0,81,90,245,90c0,0,167,0,245,-93c0,0,78,-93,78,-273c0,0,0,-188,-81,-278c0,0,-81,-90,-248,-90Z" 
id="f0_2b"
transform="scale(0.001,-0.001)" />

<path d="M577,-14c0,0,-243,0,-379,132C198,118,63,250,63,488c0,0,0,258,130,391c0,0,131,132,387,132c0,0,156,0,335,-38l5,-218H871L848,884c0,0,-52,32,-121,50c0,0,-69,17,-141,17c0,0,-191,0,-279,-112c0,0,-88,-113,-88,-349c0,0,0,-217,92,-332c0,0,92,-115,268,-115c0,0,85,0,160,20c0,0,76,21,120,55l27,149h49L930,32c0,0,-164,-46,-353,-46Z" 
id="f1_13"
transform="scale(0.001,-0.001)" />

<path d="M495,413c0,0,0,133,-34,190c0,0,-34,57,-105,57c0,0,-78,0,-119,-63c0,0,-42,-62,-42,-184ZM374,-14c0,0,-163,0,-239,87c0,0,-75,88,-75,283c0,0,0,183,77,273c0,0,76,91,219,91c0,0,269,0,269,-306V353H194V340c0,0,0,-103,23,-160c0,0,22,-57,70,-87c0,0,47,-29,124,-29c0,0,40,0,96,6c0,0,55,7,91,15V43C598,43,562,20,500,3c0,0,-61,-17,-126,-17Z" 
id="f1_21"
transform="scale(0.001,-0.001)" />

<path d="M31,0V33L150,52v956L31,1026v34H274V52L394,33V0Z" 
id="f1_28"
transform="scale(0.001,-0.001)" />

<path d="M399,-14c0,0,-341,0,-341,370c0,0,0,175,87,269c0,0,87,95,249,95c0,0,101,0,220,-23V501H573L541,625c0,0,-62,35,-149,35c0,0,-200,0,-200,-304c0,0,0,-158,61,-225c0,0,61,-67,189,-67c0,0,109,0,189,24V43C631,43,595,16,530,1c0,0,-64,-15,-131,-15Z" 
id="f1_1z"
transform="scale(0.001,-0.001)" />

<path d="M148,-329c0,0,-58,0,-114,13v151H69l24,-71c0,0,23,-17,64,-17c0,0,39,0,72,22c0,0,33,23,60,67c0,0,27,44,68,157L90,649L19,668v33H344V668L233,648L423,158L606,649L497,668v33H758V668L685,652L411,-43c0,0,-48,-124,-84,-177c0,0,-36,-54,-79,-82c0,0,-44,-27,-100,-27Z" 
id="f1_2l"
transform="scale(0.001,-0.001)" />

<path d="M32,0V33L151,52V649L52,668v33H275V52L395,33V0ZM201,850c0,0,-32,0,-56,24c0,0,-24,24,-24,56c0,0,0,34,24,58c0,0,24,24,56,24c0,0,34,0,58,-24c0,0,24,-24,24,-58c0,0,0,-32,-24,-56c0,0,-24,-24,-58,-24Z" 
id="f1_25"
transform="scale(0.001,-0.001)" />

<path d="M278,-14c0,0,-52,0,-115,11c0,0,-63,10,-99,23V193H98L134,95c0,0,56,-50,146,-50c0,0,144,0,144,123c0,0,0,91,-114,130l-66,21c0,0,-75,25,-110,50c0,0,-34,26,-53,63c0,0,-18,36,-18,89c0,0,0,92,63,145c0,0,63,54,170,54c0,0,77,0,193,-23V544H454l-32,81c0,0,-39,35,-124,35c0,0,-61,0,-92,-30c0,0,-32,-30,-32,-80c0,0,0,-43,29,-72c0,0,28,-29,86,-48c0,0,110,-38,144,-55c0,0,33,-17,57,-42c0,0,23,-25,36,-57c0,0,13,-32,13,-79c0,0,0,-104,-66,-158c0,0,-66,-53,-195,-53Z" 
id="f1_2f"
transform="scale(0.001,-0.001)" />

<path d="M383,64c0,0,85,0,152,28V645c0,0,-67,13,-152,13c0,0,-194,0,-194,-314c0,0,0,-141,48,-211c0,0,48,-69,146,-69ZM342,-14c0,0,-287,0,-287,358c0,0,0,184,82,280c0,0,81,96,239,96c0,0,81,0,163,-18c0,0,-4,25,-4,124v182l-118,18v34H659V52L745,33V0H548l-9,52c0,0,-84,-66,-197,-66Z" 
id="f1_20"
transform="scale(0.001,-0.001)" />

<path d="M64,0V34L168,59V639H47v36l121,29v49c0,0,0,155,61,239c0,0,62,84,173,84c0,0,58,0,107,-15V908H472l-33,92c0,0,-26,16,-62,16c0,0,-47,0,-66,-42c0,0,-19,-42,-19,-157V701H478V639H292V59L443,34V0Z" 
id="f1_22"
transform="scale(0.001,-0.001)" />

<path d="M439,0V33l93,19V500c0,0,0,62,-30,97c0,0,-31,36,-94,36c0,0,-67,0,-165,-22V52L338,33V0H35V33l84,19V649L35,668v33H235l7,-57c0,0,57,33,122,54c0,0,65,22,108,22c0,0,91,0,137,-53c0,0,47,-53,47,-154V52L741,33V0Z" 
id="f1_2a"
transform="scale(0.001,-0.001)" />

<path d="M284,67c0,0,51,0,88,12c0,0,37,12,74,30V358l-98,-3c0,0,-100,-4,-135,-39c0,0,-35,-35,-35,-117c0,0,0,-132,106,-132ZM233,-14c0,0,-179,0,-179,208c0,0,0,70,27,116c0,0,27,46,87,70c0,0,60,24,173,27l105,3V519c0,0,0,72,-26,107c0,0,-27,34,-82,34c0,0,-75,0,-137,-35L176,538H134V691c0,0,121,26,213,26c0,0,115,0,169,-47c0,0,54,-47,54,-144V52L657,33V0H465L451,70c0,0,-85,-84,-218,-84Z" 
id="f1_1x"
transform="scale(0.001,-0.001)" />

<path d="M249,-14c0,0,-71,0,-107,42c0,0,-35,42,-35,119V639H15v33l93,29l76,159h47V701H391V639H231V161c0,0,0,-48,22,-73c0,0,22,-24,57,-24c0,0,44,0,106,12V26C416,26,389,8,340,-2c0,0,-49,-12,-91,-12Z" 
id="f1_2g"
transform="scale(0.001,-0.001)" />

<path d="M442,0V33l93,19V504c0,0,0,129,-124,129c0,0,-70,0,-168,-22V52L338,33V0H31V33l88,19v956L15,1026v34H243V756c0,0,0,-77,-5,-112c0,0,54,31,122,53c0,0,68,23,115,23c0,0,91,0,137,-53c0,0,47,-53,47,-154V52L744,33V0Z" 
id="f1_24"
transform="scale(0.001,-0.001)" />

<path d="M31,0V33l88,19V649L31,668v33H235l7,-87c0,0,44,37,121,71c0,0,76,35,121,35h11V530H463l-43,82c0,0,-37,0,-88,-10c0,0,-52,-10,-89,-26V52L363,33V0Z" 
id="f1_2e"
transform="scale(0.001,-0.001)" />

<path d="M377,45c0,0,99,0,147,73c0,0,47,73,47,237c0,0,0,161,-47,233c0,0,-47,72,-147,72c0,0,-97,0,-141,-69c0,0,-44,-69,-44,-236c0,0,0,-169,45,-240c0,0,44,-70,140,-70Zm0,-59c0,0,-158,0,-238,94c0,0,-81,95,-81,274c0,0,0,178,81,272c0,0,80,94,244,94c0,0,160,0,241,-92c0,0,82,-92,82,-274c0,0,0,-368,-329,-368Z" 
id="f1_2b"
transform="scale(0.001,-0.001)" />

<path d="M359,-270c0,0,124,0,192,46c0,0,67,47,67,129c0,0,0,43,-26,67c0,0,-26,24,-79,24H242c0,0,-32,-27,-51,-69c0,0,-20,-41,-20,-77c0,0,0,-64,46,-92c0,0,46,-28,142,-28Zm11,561c0,0,81,0,115,47c0,0,34,47,34,141c0,0,0,100,-35,142c0,0,-35,42,-113,42c0,0,-78,0,-114,-43c0,0,-37,-42,-37,-141c0,0,0,-98,36,-143c0,0,36,-45,114,-45ZM359,-329c0,0,-143,0,-218,44c0,0,-75,43,-75,125c0,0,0,39,27,78c0,0,26,38,98,89c0,0,-43,14,-72,48c0,0,-29,35,-29,74L208,262c0,0,-118,55,-118,217c0,0,0,115,73,178c0,0,73,63,211,63c0,0,28,0,71,-6c0,0,44,-6,67,-13l165,83l26,-32L599,644c0,0,50,-56,50,-165c0,0,0,-120,-72,-182c0,0,-73,-62,-208,-62c0,0,-62,0,-114,11L208,148c0,0,2,-13,29,-24c0,0,27,-12,67,-12H512c0,0,113,0,168,-49c0,0,55,-49,55,-134c0,0,0,-79,-44,-137c0,0,-43,-58,-128,-90c0,0,-84,-31,-204,-31Z" 
id="f1_23"
transform="scale(0.001,-0.001)" />

<path d="M289,-14c0,0,-179,0,-179,205V649L20,668v33H233V200c0,0,0,-128,120,-128c0,0,92,0,173,23V649L420,668v33H649V52L738,33V0H533l-6,57C527,57,474,28,405,7c0,0,-69,-21,-116,-21Z" 
id="f1_2h"
transform="scale(0.001,-0.001)" />

<path d="M327,-14L84,649L1,668v33H335V668L219,648L385,174L554,632h63L786,171L944,649L830,668v33h267V668l-78,-16L784,-14H726L553,448L382,-14Z" 
id="f1_2j"
transform="scale(0.001,-0.001)" />

<path d="M360,-14L72,649L0,668v33H327V668L216,648L420,164L615,649L504,668v33H764V668L697,652L416,-14Z" 
id="f1_2i"
transform="scale(0.001,-0.001)" />

<path d="M191,-20c0,0,-39,0,-65,25c0,0,-25,27,-25,64c0,0,0,38,26,64c0,0,26,26,64,26c0,0,38,0,64,-26c0,0,26,-26,26,-64c0,0,0,-37,-25,-64c0,0,-26,-25,-65,-25Z" 
id="f1_i"
transform="scale(0.001,-0.001)" />

<path d="M382,45c0,0,188,0,188,314c0,0,0,143,-47,213c0,0,-46,69,-141,69c0,0,-87,0,-146,-24V58c0,0,67,-13,146,-13ZM25,-325v35l88,18V649L34,668v33H231l1,-41c0,0,31,27,84,43c0,0,53,17,107,17c0,0,134,0,208,-94c0,0,73,-93,73,-267c0,0,0,-178,-80,-276c0,0,-80,-97,-232,-97c0,0,-84,0,-160,16c0,0,4,-53,4,-84V-272l123,-18v-35Z" 
id="f1_2c"
transform="scale(0.001,-0.001)" />

<path d="M57,302V417H454V302Z" 
id="f1_h"
transform="scale(0.001,-0.001)" />

<path d="M431,0V33L535,52V499c0,0,0,62,-32,96c0,0,-32,33,-95,33c0,0,-66,0,-163,-22V52L350,33V0H32V33l89,19V649L32,668v33H237l6,-57c0,0,56,32,119,54c0,0,62,22,110,22c0,0,52,0,95,-20c0,0,44,-19,66,-62c0,0,57,32,134,57c0,0,77,25,128,25c0,0,179,0,179,-207V52l90,-19V0H846V33L950,52V499c0,0,0,129,-119,129c0,0,-19,0,-45,-3c0,0,-26,-3,-52,-7c0,0,-25,-4,-49,-8c0,0,-23,-5,-39,-8c0,0,13,-41,13,-89V52L764,33V0Z" 
id="f1_29"
transform="scale(0.001,-0.001)" />

<path d="M235,0V40L394,60V936H356c0,0,-189,0,-258,-15L78,766H28v234H908V766H857L837,921c0,0,-22,5,-98,9c0,0,-75,4,-165,4H538V60L697,40V0Z" 
id="f1_1k"
transform="scale(0.001,-0.001)" />

<path d="M67,0V109L206,235c0,0,133,118,196,190c0,0,63,72,90,149c0,0,27,77,27,177c0,0,0,97,-44,148c0,0,-44,50,-144,50c0,0,-39,0,-81,-10c0,0,-42,-11,-74,-29L150,787H101V980c0,0,135,32,230,32c0,0,164,0,247,-68c0,0,82,-69,82,-193c0,0,0,-84,-32,-158c0,0,-33,-75,-100,-148c0,0,-67,-74,-222,-206c0,0,-67,-57,-141,-125H680V0Z" 
id="f1_m"
transform="scale(0.001,-0.001)" />

<path d="M476,327V830h-4L114,327ZM476,0V220H30v99l488,686h86V327H740V220H604V0Z" 
id="f1_o"
transform="scale(0.001,-0.001)" />

<path d="M551,45c0,0,171,0,252,108c0,0,82,108,82,349c0,0,0,239,-81,344c0,0,-81,105,-253,105c0,0,-172,0,-252,-105c0,0,-80,-105,-80,-344c0,0,0,-241,80,-349c0,0,81,-108,252,-108Zm0,-59c0,0,-238,0,-363,129C188,115,63,245,63,501c0,0,0,510,488,510c0,0,242,0,366,-129c0,0,124,-130,124,-381c0,0,0,-255,-126,-385C915,116,790,-14,551,-14Z" 
id="f1_1f"
transform="scale(0.001,-0.001)" />

<path d="M58,-234v58c0,0,131,42,131,125c0,0,0,15,-11,27c0,0,-11,12,-38,25C140,1,89,27,89,75c0,0,0,40,25,61c0,0,26,21,65,21c0,0,48,0,77,-34c0,0,30,-34,30,-86c0,0,0,-101,-60,-170c0,0,-59,-69,-168,-101Z" 
id="f1_g"
transform="scale(0.001,-0.001)" />

<path d="M134,0V40L339,60V876L137,804v39l292,166h39V60L672,40V0Z" 
id="f1_l"
transform="scale(0.001,-0.001)" />

<path d="M64,-325c0,0,-46,0,-107,14v148H-8l19,-81c0,0,25,-21,62,-21c0,0,44,0,67,47c0,0,22,47,22,152V649L57,668v33H286V-28c0,0,0,-146,-57,-221c0,0,-56,-76,-165,-76ZM213,850c0,0,-34,0,-58,24c0,0,-24,24,-24,56c0,0,0,34,24,58c0,0,24,24,58,24c0,0,32,0,56,-24c0,0,24,-24,24,-58c0,0,0,-32,-24,-56c0,0,-24,-24,-56,-24Z" 
id="f1_26"
transform="scale(0.001,-0.001)" />

<path d="M36,0V54L154,74V926L26,945v55H860V731H790L766,908c0,0,-36,5,-121,8c0,0,-84,2,-133,2H389V508H633l23,127h67V298H656L633,426H389V74L556,54V0Z" 
id="f0_16"
transform="scale(0.001,-0.001)" />

<path d="M360,-256c0,0,108,0,167,35c0,0,59,35,59,98c0,0,0,70,-95,70H254c0,0,-65,-47,-65,-108c0,0,0,-47,46,-71c0,0,45,-24,125,-24Zm9,561c0,0,55,0,79,43c0,0,25,43,25,129c0,0,0,87,-24,127c0,0,-25,41,-80,41c0,0,-52,0,-75,-41c0,0,-24,-40,-24,-127c0,0,0,-86,23,-129c0,0,23,-43,76,-43Zm-9,-641c0,0,-153,0,-236,43c0,0,-84,44,-84,120c0,0,0,33,28,65c0,0,27,31,105,76c0,0,-44,17,-75,59c0,0,-31,43,-31,90L192,258c0,0,-133,56,-133,219c0,0,0,116,81,180c0,0,82,63,233,63c0,0,32,0,82,-6c0,0,51,-6,74,-13l168,83l26,-32L638,631c0,0,46,-57,46,-154c0,0,0,-119,-80,-182c0,0,-80,-64,-234,-64c0,0,-59,0,-114,9L238,183c0,0,1,-22,28,-41c0,0,26,-19,64,-19H493c0,0,256,0,256,-196c0,0,0,-81,-44,-139c0,0,-45,-59,-131,-92c0,0,-86,-32,-214,-32Z" 
id="f0_23"
transform="scale(0.001,-0.001)" />

<path d="M191,-20c0,0,-51,0,-88,34c0,0,-36,36,-36,88c0,0,0,52,36,88c0,0,36,36,88,36c0,0,51,0,88,-36c0,0,36,-36,36,-88c0,0,0,-51,-36,-87c0,0,-36,-35,-88,-35Z" 
id="f0_i"
transform="scale(0.001,-0.001)" />

<path d="M122,0V64L295,82V837L123,780v64l282,165H511V82L685,64V0Z" 
id="f0_l"
transform="scale(0.001,-0.001)" />

<path d="M51,0V55L180,74V926L51,946v54H543V946L415,926V74L543,55V0Z" 
id="f0_19"
transform="scale(0.001,-0.001)" />

<path d="M327,-14c0,0,-101,0,-156,45c0,0,-55,45,-55,131V624H25v48l108,29l87,159H332V701H480V624H332V176c0,0,0,-49,20,-73c0,0,20,-25,53,-25c0,0,40,0,97,12V26c0,0,-22,-15,-76,-27c0,0,-55,-13,-99,-13Z" 
id="f0_2g"
transform="scale(0.001,-0.001)" />

<path d="M41,0V49l91,18V634L41,652v49H336l8,-145c0,0,80,89,144,128c0,0,64,40,117,40h40V468H604l-45,94c0,0,-47,0,-106,-21c0,0,-60,-20,-105,-48V67L460,49V0Z" 
id="f0_2e"
transform="scale(0.001,-0.001)" />

<path d="M438,65c0,0,131,0,131,293c0,0,0,279,-130,279c0,0,-69,0,-127,-29V80c0,0,60,-15,126,-15ZM20,-325v50l76,18V634L19,652v49H304l1,-36c0,0,80,55,194,55c0,0,146,0,218,-86c0,0,71,-86,71,-271c0,0,0,-183,-83,-280c0,0,-83,-97,-238,-97c0,0,-79,0,-160,19c0,0,5,-48,5,-109V-257l103,-18v-50Z" 
id="f0_2c"
transform="scale(0.001,-0.001)" />

<path d="M41,0V49l69,18V992l-72,18v50H325V756c0,0,0,-49,-4,-116l51,26c0,0,106,54,190,54c0,0,194,0,194,-207V67L827,49V0H478V49l63,18V484c0,0,0,63,-27,98c0,0,-26,35,-75,35c0,0,-57,0,-114,-25V67L389,49V0Z" 
id="f0_24"
transform="scale(0.001,-0.001)" />

<path d="M55,0V40L184,60V941L55,960v40H455V960L327,941V60L455,40V0Z" 
id="f1_19"
transform="scale(0.001,-0.001)" />

<path d="M614,-14c0,0,-163,0,-285,59c0,0,-122,60,-188,174c0,0,-66,114,-66,269c0,0,0,252,143,387c0,0,144,136,410,136c0,0,65,0,118,-5c0,0,54,-5,100,-14c0,0,46,-9,170,-44V718H949L931,848c0,0,-59,40,-130,62c0,0,-71,23,-146,23c0,0,-174,0,-253,-108c0,0,-80,-108,-80,-335c0,0,0,-211,84,-319c0,0,84,-108,243,-108c0,0,87,0,165,26V377L686,397v55h461V397l-98,-20V52C1049,52,956,22,834,4C834,4,712,-14,614,-14Z" 
id="f0_17"
transform="scale(0.001,-0.001)" />

<path d="M477,0V33l64,19L348,354L257,254V52L331,33V0H44V33l89,19v956L29,1026v34H257V338L544,647l-73,20v34H718V667L631,650L431,446L688,50L764,33V0Z" 
id="f1_27"
transform="scale(0.001,-0.001)" />

<path d="M529,65c0,0,183,0,270,108c0,0,87,108,87,334c0,0,0,210,-113,318c0,0,-113,108,-322,108H316V71c0,0,90,-6,213,-6Zm0,-67L172,0H44V40L172,60V941L44,960v40H498c0,0,277,0,411,-123c0,0,133,-124,133,-371c0,0,0,-251,-129,-380C913,126,785,-2,529,-2Z" 
id="f1_14"
transform="scale(0.001,-0.001)" />

<path d="M376,50c0,0,103,0,149,80c0,0,46,81,46,240c0,0,0,137,-47,204c0,0,-48,67,-148,67c0,0,-44,0,-87,-7c0,0,-44,-8,-63,-17V62c0,0,63,-12,150,-12Zm3,-64c0,0,-64,0,-141,14c0,0,-78,14,-136,37v971L0,1026v34H226V809c0,0,0,-40,-4,-148c0,0,74,59,188,59c0,0,143,0,219,-87c0,0,77,-87,77,-263c0,0,0,-189,-84,-287c0,0,-84,-97,-243,-97Z" 
id="f1_1y"
transform="scale(0.001,-0.001)" />

<path d="M41,0V34L426,641H261c0,0,-42,0,-80,-7c0,0,-39,-7,-54,-19L104,515H69V701H586V665L201,60H407c0,0,42,0,89,10c0,0,47,10,66,25l39,147h35L617,0Z" 
id="f1_2m"
transform="scale(0.001,-0.001)" />

<path d="M868,0L251,900V60L385,40V0H44V40L172,60V941L44,960v40H347L862,259V941L727,960v40h341V960L940,941V0Z" 
id="f1_1e"
transform="scale(0.001,-0.001)" />

<path d="M681,416L504,902L333,416ZM669,0V40L803,60L704,348H310L210,60L344,40V0H15V40L128,60l341,949H611L965,60L1092,40V0Z" 
id="f1_11"
transform="scale(0.001,-0.001)" />

<path d="M410,-14c0,0,-86,0,-175,14C235,0,145,14,81,38V307h66L181,146c0,0,31,-37,94,-62c0,0,64,-24,132,-24c0,0,214,0,214,177c0,0,0,55,-41,93c0,0,-41,38,-128,68c0,0,-128,42,-185,68c0,0,-56,27,-95,63c0,0,-38,36,-62,87c0,0,-23,51,-23,125c0,0,0,132,90,201c0,0,90,69,263,69c0,0,125,0,278,-32V741H651L618,878c0,0,-76,56,-178,56c0,0,-92,0,-141,-34c0,0,-49,-34,-49,-104c0,0,0,-50,41,-86c0,0,41,-35,128,-63c0,0,171,-56,235,-97c0,0,64,-41,97,-103c0,0,34,-61,34,-143c0,0,0,-318,-375,-318Z" 
id="f0_1j"
transform="scale(0.001,-0.001)" />

<path d="M64,0V141c0,0,64,68,119,123c0,0,119,118,174,185c0,0,56,68,81,140c0,0,26,72,26,165c0,0,0,81,-40,131c0,0,-39,50,-105,50c0,0,-46,0,-74,-10c0,0,-27,-10,-50,-29L163,751H98V979c0,0,59,13,116,23c0,0,58,9,125,9c0,0,165,0,252,-68c0,0,88,-68,88,-193c0,0,0,-78,-26,-142c0,0,-26,-64,-83,-124c0,0,-56,-61,-224,-197c0,0,-64,-52,-139,-119H698V0Z" 
id="f0_m"
transform="scale(0.001,-0.001)" />

<path d="M900,0V54l135,20V845L658,0H617L248,845V74L382,54V0H26V54L154,74V926L26,945v55H419L705,342l292,658h401V945L1270,926V74L1398,54V0Z" 
id="f0_1d"
transform="scale(0.001,-0.001)" />

<path d="M435,0V856c0,0,-48,-47,-127,-93c0,0,-79,-46,-142,-69V824c0,0,113,52,197,128c0,0,85,75,120,146h86V0Z" 
id="f2_l"
transform="scale(0.001,-0.001)" />


</defs>
</svg>