<?xml version="1.0" encoding="UTF-8" standalone="no"?>
<!DOCTYPE svg PUBLIC "-//W3C//DTD SVG 1.1//EN"
"http://www.w3.org/Graphics/SVG/1.1/DTD/svg11.dtd">
<svg viewBox="0 0 909 1286" version="1.1" xmlns="http://www.w3.org/2000/svg" xmlns:xlink="http://www.w3.org/1999/xlink">
<defs>
<clipPath id="c0_31"><path d="M0,1286.3V0H909.3V1286.3Z" /></clipPath>
</defs>
<g clip-path="url(#c0_31)">
<g fill="#000000" >
<use xlink:href="#f0_15" transform="matrix(12,0,0,12,55,452.9)" />
<use xlink:href="#f0_1z" transform="matrix(12,0,0,12,67.1,452.9)" />
<use xlink:href="#f0_2b" transform="matrix(12,0,0,12,75.2,452.9)" />
<use xlink:href="#f0_2a" transform="matrix(12,0,0,12,84.4,452.9)" />
<use xlink:href="#f0_2b" transform="matrix(12,0,0,12,94.6,452.9)" />
<use xlink:href="#f0_29" transform="matrix(12,0,0,12,103.8,452.9)" />
<use xlink:href="#f0_25" transform="matrix(12,0,0,12,118.8,452.9)" />
<use xlink:href="#f0_1z" transform="matrix(12,0,0,12,123.9,452.9)" />
<use xlink:href="#f0_19" transform="matrix(12,0,0,12,136.8,452.9)" />
<use xlink:href="#f0_29" transform="matrix(12,0,0,12,144.1,452.9)" />
<use xlink:href="#f0_2c" transform="matrix(12,0,0,12,159.1,452.9)" />
<use xlink:href="#f0_2b" transform="matrix(12,0,0,12,169.4,452.9)" />
<use xlink:href="#f0_2e" transform="matrix(12,0,0,12,178.9,452.9)" />
<use xlink:href="#f0_2g" transform="matrix(12,0,0,12,186.6,452.9)" />
<use xlink:href="#f0_1x" transform="matrix(12,0,0,12,192.8,452.9)" />
<use xlink:href="#f0_2a" transform="matrix(12,0,0,12,202,452.9)" />
<use xlink:href="#f0_1z" transform="matrix(12,0,0,12,212.2,452.9)" />
<use xlink:href="#f0_21" transform="matrix(12,0,0,12,220.3,452.9)" />
<use xlink:href="#f1_3d" transform="matrix(12,0,0,12,82.5,490.4)" />
<use xlink:href="#f2_1k" transform="matrix(12,0,0,12,110,490.4)" />
<use xlink:href="#f2_24" transform="matrix(12,0,0,12,121.4,490.4)" />
<use xlink:href="#f2_21" transform="matrix(12,0,0,12,130.2,490.4)" />
<use xlink:href="#f2_2l" transform="matrix(12,0,0,12,138.6,490.4)" />
<use xlink:href="#f2_1x" transform="matrix(12,0,0,12,151.8,490.4)" />
<use xlink:href="#f2_2e" transform="matrix(12,0,0,12,159.8,490.4)" />
<use xlink:href="#f2_21" transform="matrix(12,0,0,12,166.1,490.4)" />
<use xlink:href="#f2_22" transform="matrix(12,0,0,12,179.2,490.4)" />
<use xlink:href="#f2_2b" transform="matrix(12,0,0,12,184.9,490.4)" />
<use xlink:href="#f2_2b" transform="matrix(12,0,0,12,194.4,490.4)" />
<use xlink:href="#f2_20" transform="matrix(12,0,0,12,203.9,490.4)" />
<use xlink:href="#f2_22" transform="matrix(12,0,0,12,217.8,490.4)" />
<use xlink:href="#f2_2b" transform="matrix(12,0,0,12,223.3,490.4)" />
<use xlink:href="#f2_2e" transform="matrix(12,0,0,12,232.8,490.4)" />
<use xlink:href="#f2_24" transform="matrix(12,0,0,12,243.8,490.4)" />
<use xlink:href="#f2_21" transform="matrix(12,0,0,12,252.6,490.4)" />
<use xlink:href="#f2_2e" transform="matrix(12,0,0,12,260.7,490.4)" />
<use xlink:href="#f2_1y" transform="matrix(12,0,0,12,266.9,490.4)" />
<use xlink:href="#f2_1x" transform="matrix(12,0,0,12,275.7,490.4)" />
<use xlink:href="#f2_1z" transform="matrix(12,0,0,12,283.7,490.4)" />
<use xlink:href="#f2_21" transform="matrix(12,0,0,12,291.8,490.4)" />
<use xlink:href="#f2_2b" transform="matrix(12,0,0,12,299.9,490.4)" />
<use xlink:href="#f2_2h" transform="matrix(12,0,0,12,309.4,490.4)" />
<use xlink:href="#f2_2f" transform="matrix(12,0,0,12,318.6,490.4)" />
<use xlink:href="#f2_1x" transform="matrix(12,0,0,12,330.3,490.4)" />
<use xlink:href="#f2_2a" transform="matrix(12,0,0,12,338.3,490.4)" />
<use xlink:href="#f2_25" transform="matrix(12,0,0,12,347.5,490.4)" />
<use xlink:href="#f2_29" transform="matrix(12,0,0,12,352.6,490.4)" />
<use xlink:href="#f2_1x" transform="matrix(12,0,0,12,366.6,490.4)" />
<use xlink:href="#f2_28" transform="matrix(12,0,0,12,375,490.4)" />
<use xlink:href="#f2_2f" transform="matrix(12,0,0,12,379.8,490.4)" />
<use xlink:href="#f2_i" transform="matrix(12,0,0,12,386.7,490.4)" />
<use xlink:href="#f1_3d" transform="matrix(12,0,0,12,82.5,512.8)" />
<use xlink:href="#f2_1j" transform="matrix(12,0,0,12,110,512.8)" />
<use xlink:href="#f2_2c" transform="matrix(12,0,0,12,120.3,512.8)" />
<use xlink:href="#f2_24" transform="matrix(12,0,0,12,129.5,512.8)" />
<use xlink:href="#f2_1x" transform="matrix(12,0,0,12,138.3,512.8)" />
<use xlink:href="#f2_23" transform="matrix(12,0,0,12,146.3,512.8)" />
<use xlink:href="#f2_2a" transform="matrix(12,0,0,12,155.8,512.8)" />
<use xlink:href="#f2_2h" transform="matrix(12,0,0,12,164.6,512.8)" />
<use xlink:href="#f2_29" transform="matrix(12,0,0,12,174.1,512.8)" />
<use xlink:href="#f2_c" transform="matrix(12,0,0,12,192.6,512.8)" />
<use xlink:href="#f2_1d" transform="matrix(12,0,0,12,198.8,512.8)" />
<use xlink:href="#f2_2b" transform="matrix(12,0,0,12,214.9,512.8)" />
<use xlink:href="#f2_2f" transform="matrix(12,0,0,12,224.4,512.8)" />
<use xlink:href="#f2_2f" transform="matrix(12,0,0,12,231.4,512.8)" />
<use xlink:href="#f2_d" transform="matrix(12,0,0,12,238.4,512.8)" />
<use xlink:href="#f2_h" transform="matrix(12,0,0,12,249.4,512.8)" />
<use xlink:href="#f2_25" transform="matrix(12,0,0,12,260.8,512.8)" />
<use xlink:href="#f2_2a" transform="matrix(12,0,0,12,265.6,512.8)" />
<use xlink:href="#f2_22" transform="matrix(12,0,0,12,279.5,512.8)" />
<use xlink:href="#f2_2b" transform="matrix(12,0,0,12,285,512.8)" />
<use xlink:href="#f2_2e" transform="matrix(12,0,0,12,294.5,512.8)" />
<use xlink:href="#f2_29" transform="matrix(12,0,0,12,300.7,512.8)" />
<use xlink:href="#f2_2b" transform="matrix(12,0,0,12,319,512.8)" />
<use xlink:href="#f2_22" transform="matrix(12,0,0,12,328.5,512.8)" />
<use xlink:href="#f2_2c" transform="matrix(12,0,0,12,338.8,512.8)" />
<use xlink:href="#f2_21" transform="matrix(12,0,0,12,348,512.8)" />
<use xlink:href="#f2_1x" transform="matrix(12,0,0,12,356,512.8)" />
<use xlink:href="#f2_2g" transform="matrix(12,0,0,12,364.1,512.8)" />
<use xlink:href="#f2_25" transform="matrix(12,0,0,12,374.7,512.8)" />
<use xlink:href="#f2_2f" transform="matrix(12,0,0,12,379.1,512.8)" />
<use xlink:href="#f2_2h" transform="matrix(12,0,0,12,390.8,512.8)" />
<use xlink:href="#f2_2f" transform="matrix(12,0,0,12,400,512.8)" />
<use xlink:href="#f2_21" transform="matrix(12,0,0,12,406.9,512.8)" />
<use xlink:href="#f2_20" transform="matrix(12,0,0,12,415,512.8)" />
<use xlink:href="#f2_1x" transform="matrix(12,0,0,12,428.9,512.8)" />
<use xlink:href="#f2_2f" transform="matrix(12,0,0,12,437,512.8)" />
<use xlink:href="#f2_22" transform="matrix(12,0,0,12,449.4,512.8)" />
<use xlink:href="#f2_2h" transform="matrix(12,0,0,12,454.9,512.8)" />
<use xlink:href="#f2_21" transform="matrix(12,0,0,12,464.4,512.8)" />
<use xlink:href="#f2_28" transform="matrix(12,0,0,12,472.8,512.8)" />
<use xlink:href="#f2_i" transform="matrix(12,0,0,12,477.2,512.8)" />
<use xlink:href="#f1_3d" transform="matrix(12,0,0,12,82.5,535.1)" />
<use xlink:href="#f2_19" transform="matrix(12,0,0,12,110,535.1)" />
<use xlink:href="#f2_2g" transform="matrix(12,0,0,12,116.3,535.1)" />
<use xlink:href="#f2_25" transform="matrix(12,0,0,12,126.1,535.1)" />
<use xlink:href="#f2_2f" transform="matrix(12,0,0,12,130.5,535.1)" />
<use xlink:href="#f2_1x" transform="matrix(12,0,0,12,147.1,535.1)" />
<use xlink:href="#f2_28" transform="matrix(12,0,0,12,155.5,535.1)" />
<use xlink:href="#f2_2f" transform="matrix(12,0,0,12,160.3,535.1)" />
<use xlink:href="#f2_2b" transform="matrix(12,0,0,12,167.3,535.1)" />
<use xlink:href="#f2_2h" transform="matrix(12,0,0,12,181.5,535.1)" />
<use xlink:href="#f2_2f" transform="matrix(12,0,0,12,190.7,535.1)" />
<use xlink:href="#f2_21" transform="matrix(12,0,0,12,197.7,535.1)" />
<use xlink:href="#f2_20" transform="matrix(12,0,0,12,205.7,535.1)" />
<use xlink:href="#f2_22" transform="matrix(12,0,0,12,219.6,535.1)" />
<use xlink:href="#f2_2b" transform="matrix(12,0,0,12,225.1,535.1)" />
<use xlink:href="#f2_2e" transform="matrix(12,0,0,12,234.6,535.1)" />
<use xlink:href="#f2_2g" transform="matrix(12,0,0,12,245.3,535.1)" />
<use xlink:href="#f2_2e" transform="matrix(12,0,0,12,250.7,535.1)" />
<use xlink:href="#f2_1x" transform="matrix(12,0,0,12,257,535.1)" />
<use xlink:href="#f2_2a" transform="matrix(12,0,0,12,265,535.1)" />
<use xlink:href="#f2_2f" transform="matrix(12,0,0,12,273.8,535.1)" />
<use xlink:href="#f2_h" transform="matrix(12,0,0,12,281,535.1)" />
<use xlink:href="#f2_2f" transform="matrix(12,0,0,12,287.2,535.1)" />
<use xlink:href="#f2_24" transform="matrix(12,0,0,12,294.5,535.1)" />
<use xlink:href="#f2_25" transform="matrix(12,0,0,12,303.7,535.1)" />
<use xlink:href="#f2_2c" transform="matrix(12,0,0,12,308.1,535.1)" />
<use xlink:href="#f2_29" transform="matrix(12,0,0,12,317.6,535.1)" />
<use xlink:href="#f2_21" transform="matrix(12,0,0,12,331.5,535.1)" />
<use xlink:href="#f2_2a" transform="matrix(12,0,0,12,340,535.1)" />
<use xlink:href="#f2_2g" transform="matrix(12,0,0,12,348.8,535.1)" />
<use xlink:href="#f2_2b" transform="matrix(12,0,0,12,359,535.1)" />
<use xlink:href="#f2_22" transform="matrix(12,0,0,12,368.5,535.1)" />
<use xlink:href="#f2_28" transform="matrix(12,0,0,12,379.1,535.1)" />
<use xlink:href="#f2_25" transform="matrix(12,0,0,12,383.9,535.1)" />
<use xlink:href="#f2_2i" transform="matrix(12,0,0,12,388.6,535.1)" />
<use xlink:href="#f2_25" transform="matrix(12,0,0,12,398.2,535.1)" />
<use xlink:href="#f2_2a" transform="matrix(12,0,0,12,402.9,535.1)" />
<use xlink:href="#f2_23" transform="matrix(12,0,0,12,412.1,535.1)" />
<use xlink:href="#f2_29" transform="matrix(12,0,0,12,426.6,535.1)" />
<use xlink:href="#f2_1x" transform="matrix(12,0,0,12,440.2,535.1)" />
<use xlink:href="#f2_2g" transform="matrix(12,0,0,12,448.2,535.1)" />
<use xlink:href="#f2_21" transform="matrix(12,0,0,12,453.7,535.1)" />
<use xlink:href="#f2_2e" transform="matrix(12,0,0,12,461.8,535.1)" />
<use xlink:href="#f2_25" transform="matrix(12,0,0,12,468.3,535.1)" />
<use xlink:href="#f2_1x" transform="matrix(12,0,0,12,472.7,535.1)" />
<use xlink:href="#f2_28" transform="matrix(12,0,0,12,481.2,535.1)" />
<use xlink:href="#f2_1y" transform="matrix(12,0,0,12,490.8,535.1)" />
<use xlink:href="#f2_21" transform="matrix(12,0,0,12,500,535.1)" />
<use xlink:href="#f2_1z" transform="matrix(12,0,0,12,508,535.1)" />
<use xlink:href="#f2_1x" transform="matrix(12,0,0,12,516.1,535.1)" />
<use xlink:href="#f2_2h" transform="matrix(12,0,0,12,524.1,535.1)" />
<use xlink:href="#f2_2f" transform="matrix(12,0,0,12,533.3,535.1)" />
<use xlink:href="#f2_21" transform="matrix(12,0,0,12,540.7,535.1)" />
<use xlink:href="#f2_2b" transform="matrix(12,0,0,12,553.5,535.1)" />
<use xlink:href="#f2_22" transform="matrix(12,0,0,12,563,535.1)" />
<use xlink:href="#f2_25" transform="matrix(12,0,0,12,573.6,535.1)" />
<use xlink:href="#f2_2g" transform="matrix(12,0,0,12,578,535.1)" />
<use xlink:href="#f2_2f" transform="matrix(12,0,0,12,583.5,535.1)" />
<use xlink:href="#f2_2j" transform="matrix(12,0,0,12,595.2,535.1)" />
<use xlink:href="#f2_1x" transform="matrix(12,0,0,12,608.5,535.1)" />
<use xlink:href="#f2_2g" transform="matrix(12,0,0,12,616.5,535.1)" />
<use xlink:href="#f2_21" transform="matrix(12,0,0,12,622,535.1)" />
<use xlink:href="#f2_2e" transform="matrix(12,0,0,12,630,535.1)" />
<use xlink:href="#f2_24" transform="matrix(12,0,0,12,640.7,535.1)" />
<use xlink:href="#f2_2b" transform="matrix(12,0,0,12,649.5,535.1)" />
<use xlink:href="#f2_28" transform="matrix(12,0,0,12,659,535.1)" />
<use xlink:href="#f2_20" transform="matrix(12,0,0,12,663.4,535.1)" />
<use xlink:href="#f2_25" transform="matrix(12,0,0,12,672.9,535.1)" />
<use xlink:href="#f2_2a" transform="matrix(12,0,0,12,677.6,535.1)" />
<use xlink:href="#f2_23" transform="matrix(12,0,0,12,686.8,535.1)" />
<use xlink:href="#f2_1z" transform="matrix(12,0,0,12,700.7,535.1)" />
<use xlink:href="#f2_1x" transform="matrix(12,0,0,12,708.8,535.1)" />
<use xlink:href="#f2_2c" transform="matrix(12,0,0,12,716.9,535.1)" />
<use xlink:href="#f2_1x" transform="matrix(12,0,0,12,726,535.1)" />
<use xlink:href="#f2_1z" transform="matrix(12,0,0,12,734.1,535.1)" />
<use xlink:href="#f2_25" transform="matrix(12,0,0,12,742.5,535.1)" />
<use xlink:href="#f2_2g" transform="matrix(12,0,0,12,746.9,535.1)" />
<use xlink:href="#f2_2l" transform="matrix(12,0,0,12,752.8,535.1)" />
<use xlink:href="#f1_3d" transform="matrix(12,0,0,12,82.5,557.5)" />
<use xlink:href="#f2_1g" transform="matrix(12,0,0,12,110,557.5)" />
<use xlink:href="#f2_2e" transform="matrix(12,0,0,12,120.3,557.5)" />
<use xlink:href="#f2_21" transform="matrix(12,0,0,12,126.5,557.5)" />
<use xlink:href="#f2_2i" transform="matrix(12,0,0,12,134.6,557.5)" />
<use xlink:href="#f2_21" transform="matrix(12,0,0,12,143.4,557.5)" />
<use xlink:href="#f2_2a" transform="matrix(12,0,0,12,151.8,557.5)" />
<use xlink:href="#f2_2g" transform="matrix(12,0,0,12,160.6,557.5)" />
<use xlink:href="#f2_2f" transform="matrix(12,0,0,12,170.8,557.5)" />
<use xlink:href="#f2_2b" transform="matrix(12,0,0,12,177.8,557.5)" />
<use xlink:href="#f2_25" transform="matrix(12,0,0,12,187.3,557.5)" />
<use xlink:href="#f2_28" transform="matrix(12,0,0,12,192.1,557.5)" />
<use xlink:href="#f2_21" transform="matrix(12,0,0,12,201.2,557.5)" />
<use xlink:href="#f2_2e" transform="matrix(12,0,0,12,209.3,557.5)" />
<use xlink:href="#f2_2b" transform="matrix(12,0,0,12,215.5,557.5)" />
<use xlink:href="#f2_2f" transform="matrix(12,0,0,12,225,557.5)" />
<use xlink:href="#f2_25" transform="matrix(12,0,0,12,232.3,557.5)" />
<use xlink:href="#f2_2b" transform="matrix(12,0,0,12,236.7,557.5)" />
<use xlink:href="#f2_2a" transform="matrix(12,0,0,12,246.3,557.5)" />
<use xlink:href="#f2_i" transform="matrix(12,0,0,12,255.1,557.5)" />
<use xlink:href="#f1_3d" transform="matrix(12,0,0,12,82.5,579.9)" />
<use xlink:href="#f2_11" transform="matrix(12,0,0,12,110,579.9)" />
<use xlink:href="#f2_28" transform="matrix(12,0,0,12,123.2,579.9)" />
<use xlink:href="#f2_2b" transform="matrix(12,0,0,12,127.6,579.9)" />
<use xlink:href="#f2_2a" transform="matrix(12,0,0,12,137.5,579.9)" />
<use xlink:href="#f2_23" transform="matrix(12,0,0,12,146.3,579.9)" />
<use xlink:href="#f2_2j" transform="matrix(12,0,0,12,160.2,579.9)" />
<use xlink:href="#f2_25" transform="matrix(12,0,0,12,173.8,579.9)" />
<use xlink:href="#f2_2g" transform="matrix(12,0,0,12,178.2,579.9)" />
<use xlink:href="#f2_24" transform="matrix(12,0,0,12,183.7,579.9)" />
<use xlink:href="#f2_28" transform="matrix(12,0,0,12,197.6,579.9)" />
<use xlink:href="#f2_25" transform="matrix(12,0,0,12,202.7,579.9)" />
<use xlink:href="#f2_1z" transform="matrix(12,0,0,12,207.5,579.9)" />
<use xlink:href="#f2_24" transform="matrix(12,0,0,12,215.9,579.9)" />
<use xlink:href="#f2_21" transform="matrix(12,0,0,12,224.7,579.9)" />
<use xlink:href="#f2_2a" transform="matrix(12,0,0,12,233.1,579.9)" />
<use xlink:href="#f2_2f" transform="matrix(12,0,0,12,241.9,579.9)" />
<use xlink:href="#f2_2g" transform="matrix(12,0,0,12,253.8,579.9)" />
<use xlink:href="#f2_24" transform="matrix(12,0,0,12,259.3,579.9)" />
<use xlink:href="#f2_21" transform="matrix(12,0,0,12,268.1,579.9)" />
<use xlink:href="#f2_2l" transform="matrix(12,0,0,12,276.5,579.9)" />
<use xlink:href="#f2_1x" transform="matrix(12,0,0,12,290.1,579.9)" />
<use xlink:href="#f2_2e" transform="matrix(12,0,0,12,298.2,579.9)" />
<use xlink:href="#f2_21" transform="matrix(12,0,0,12,304.4,579.9)" />
<use xlink:href="#f2_2g" transform="matrix(12,0,0,12,317.3,579.9)" />
<use xlink:href="#f2_24" transform="matrix(12,0,0,12,322.8,579.9)" />
<use xlink:href="#f2_21" transform="matrix(12,0,0,12,331.6,579.9)" />
<use xlink:href="#f2_22" transform="matrix(12,0,0,12,344.5,579.9)" />
<use xlink:href="#f2_25" transform="matrix(12,0,0,12,350.3,579.9)" />
<use xlink:href="#f2_2e" transform="matrix(12,0,0,12,355.1,579.9)" />
<use xlink:href="#f2_2f" transform="matrix(12,0,0,12,361.3,579.9)" />
<use xlink:href="#f2_2g" transform="matrix(12,0,0,12,368.3,579.9)" />
<use xlink:href="#f2_1z" transform="matrix(12,0,0,12,378.5,579.9)" />
<use xlink:href="#f2_2b" transform="matrix(12,0,0,12,386.6,579.9)" />
<use xlink:href="#f2_28" transform="matrix(12,0,0,12,396.1,579.9)" />
<use xlink:href="#f2_2b" transform="matrix(12,0,0,12,400.5,579.9)" />
<use xlink:href="#f2_2a" transform="matrix(12,0,0,12,410,579.9)" />
<use xlink:href="#f2_25" transform="matrix(12,0,0,12,419.2,579.9)" />
<use xlink:href="#f2_2m" transform="matrix(12,0,0,12,423.9,579.9)" />
<use xlink:href="#f2_21" transform="matrix(12,0,0,12,432,579.9)" />
<use xlink:href="#f2_2e" transform="matrix(12,0,0,12,440.1,579.9)" />
<use xlink:href="#f2_2f" transform="matrix(12,0,0,12,446.3,579.9)" />
<use xlink:href="#f2_2b" transform="matrix(12,0,0,12,458,579.9)" />
<use xlink:href="#f2_2a" transform="matrix(12,0,0,12,467.5,579.9)" />
<use xlink:href="#f2_1y" transform="matrix(12,0,0,12,481.1,579.9)" />
<use xlink:href="#f2_1x" transform="matrix(12,0,0,12,489.9,579.9)" />
<use xlink:href="#f2_2e" transform="matrix(12,0,0,12,497.9,579.9)" />
<use xlink:href="#f2_2e" transform="matrix(12,0,0,12,504.1,579.9)" />
<use xlink:href="#f2_21" transform="matrix(12,0,0,12,510.4,579.9)" />
<use xlink:href="#f2_2a" transform="matrix(12,0,0,12,518.8,579.9)" />
<use xlink:href="#f2_2e" transform="matrix(12,0,0,12,532.3,579.9)" />
<use xlink:href="#f2_2b" transform="matrix(12,0,0,12,538.5,579.9)" />
<use xlink:href="#f2_1z" transform="matrix(12,0,0,12,548,579.9)" />
<use xlink:href="#f2_27" transform="matrix(12,0,0,12,556.1,579.9)" />
<use xlink:href="#f2_2f" transform="matrix(12,0,0,12,565.3,579.9)" />
<use xlink:href="#f2_i" transform="matrix(12,0,0,12,572.2,579.9)" />
<use xlink:href="#f1_3d" transform="matrix(12,0,0,12,82.5,602.2)" />
<use xlink:href="#f2_1k" transform="matrix(12,0,0,12,110,602.2)" />
<use xlink:href="#f2_24" transform="matrix(12,0,0,12,121.4,602.2)" />
<use xlink:href="#f2_21" transform="matrix(12,0,0,12,130.2,602.2)" />
<use xlink:href="#f2_2l" transform="matrix(12,0,0,12,138.6,602.2)" />
<use xlink:href="#f2_20" transform="matrix(12,0,0,12,151.8,602.2)" />
<use xlink:href="#f2_21" transform="matrix(12,0,0,12,160.9,602.2)" />
<use xlink:href="#f2_1z" transform="matrix(12,0,0,12,169.4,602.2)" />
<use xlink:href="#f2_2b" transform="matrix(12,0,0,12,177.4,602.2)" />
<use xlink:href="#f2_29" transform="matrix(12,0,0,12,186.9,602.2)" />
<use xlink:href="#f2_2c" transform="matrix(12,0,0,12,200.5,602.2)" />
<use xlink:href="#f2_2b" transform="matrix(12,0,0,12,209.7,602.2)" />
<use xlink:href="#f2_2f" transform="matrix(12,0,0,12,219.2,602.2)" />
<use xlink:href="#f2_21" transform="matrix(12,0,0,12,226.2,602.2)" />
<use xlink:href="#f2_2e" transform="matrix(12,0,0,12,239,602.2)" />
<use xlink:href="#f2_2b" transform="matrix(12,0,0,12,245.2,602.2)" />
<use xlink:href="#f2_1z" transform="matrix(12,0,0,12,254.7,602.2)" />
<use xlink:href="#f2_27" transform="matrix(12,0,0,12,262.8,602.2)" />
<use xlink:href="#f2_2f" transform="matrix(12,0,0,12,271.9,602.2)" />
<use xlink:href="#f2_29" transform="matrix(12,0,0,12,283.7,602.2)" />
<use xlink:href="#f2_1x" transform="matrix(12,0,0,12,297.2,602.2)" />
<use xlink:href="#f2_27" transform="matrix(12,0,0,12,305.3,602.2)" />
<use xlink:href="#f2_25" transform="matrix(12,0,0,12,314.8,602.2)" />
<use xlink:href="#f2_2a" transform="matrix(12,0,0,12,319.6,602.2)" />
<use xlink:href="#f2_23" transform="matrix(12,0,0,12,328.7,602.2)" />
<use xlink:href="#f2_2f" transform="matrix(12,0,0,12,342.6,602.2)" />
<use xlink:href="#f2_2h" transform="matrix(12,0,0,12,349.6,602.2)" />
<use xlink:href="#f2_1y" transform="matrix(12,0,0,12,359.1,602.2)" />
<use xlink:href="#f2_2f" transform="matrix(12,0,0,12,368.3,602.2)" />
<use xlink:href="#f2_2g" transform="matrix(12,0,0,12,375.3,602.2)" />
<use xlink:href="#f2_2e" transform="matrix(12,0,0,12,380.7,602.2)" />
<use xlink:href="#f2_1x" transform="matrix(12,0,0,12,387,602.2)" />
<use xlink:href="#f2_2g" transform="matrix(12,0,0,12,394.7,602.2)" />
<use xlink:href="#f2_21" transform="matrix(12,0,0,12,400.1,602.2)" />
<use xlink:href="#f2_22" transform="matrix(12,0,0,12,413,602.2)" />
<use xlink:href="#f2_2b" transform="matrix(12,0,0,12,418.5,602.2)" />
<use xlink:href="#f2_2e" transform="matrix(12,0,0,12,428,602.2)" />
<use xlink:href="#f2_2g" transform="matrix(12,0,0,12,439.1,602.2)" />
<use xlink:href="#f2_24" transform="matrix(12,0,0,12,444.6,602.2)" />
<use xlink:href="#f2_21" transform="matrix(12,0,0,12,453.4,602.2)" />
<use xlink:href="#f2_23" transform="matrix(12,0,0,12,466.2,602.2)" />
<use xlink:href="#f2_2e" transform="matrix(12,0,0,12,475.3,602.2)" />
<use xlink:href="#f2_2b" transform="matrix(12,0,0,12,481.2,602.2)" />
<use xlink:href="#f2_2j" transform="matrix(12,0,0,12,490.7,602.2)" />
<use xlink:href="#f2_2g" transform="matrix(12,0,0,12,503.6,602.2)" />
<use xlink:href="#f2_24" transform="matrix(12,0,0,12,509,602.2)" />
<use xlink:href="#f2_2b" transform="matrix(12,0,0,12,522.2,602.2)" />
<use xlink:href="#f2_22" transform="matrix(12,0,0,12,531.8,602.2)" />
<use xlink:href="#f2_24" transform="matrix(12,0,0,12,542.4,602.2)" />
<use xlink:href="#f2_25" transform="matrix(12,0,0,12,551.5,602.2)" />
<use xlink:href="#f2_23" transform="matrix(12,0,0,12,556.3,602.2)" />
<use xlink:href="#f2_24" transform="matrix(12,0,0,12,565.8,602.2)" />
<use xlink:href="#f2_21" transform="matrix(12,0,0,12,574.6,602.2)" />
<use xlink:href="#f2_2e" transform="matrix(12,0,0,12,582.7,602.2)" />
<use xlink:href="#f2_2c" transform="matrix(12,0,0,12,593.7,602.2)" />
<use xlink:href="#f2_28" transform="matrix(12,0,0,12,603.2,602.2)" />
<use xlink:href="#f2_1x" transform="matrix(12,0,0,12,607.6,602.2)" />
<use xlink:href="#f2_2a" transform="matrix(12,0,0,12,616,602.2)" />
<use xlink:href="#f2_2g" transform="matrix(12,0,0,12,624.8,602.2)" />
<use xlink:href="#f2_c" transform="matrix(12,0,0,12,635.3,602.2)" />
<use xlink:href="#f2_1j" transform="matrix(12,0,0,12,641.5,602.2)" />
<use xlink:href="#f2_2h" transform="matrix(12,0,0,12,651.8,602.2)" />
<use xlink:href="#f2_1z" transform="matrix(12,0,0,12,661,602.2)" />
<use xlink:href="#f2_1z" transform="matrix(12,0,0,12,669,602.2)" />
<use xlink:href="#f2_21" transform="matrix(12,0,0,12,677.1,602.2)" />
<use xlink:href="#f2_2f" transform="matrix(12,0,0,12,685.2,602.2)" />
<use xlink:href="#f2_2f" transform="matrix(12,0,0,12,692.1,602.2)" />
<use xlink:href="#f2_25" transform="matrix(12,0,0,12,699.4,602.2)" />
<use xlink:href="#f2_2b" transform="matrix(12,0,0,12,703.8,602.2)" />
<use xlink:href="#f2_2a" transform="matrix(12,0,0,12,713.4,602.2)" />
<use xlink:href="#f2_d" transform="matrix(12,0,0,12,722.2,602.2)" />
<use xlink:href="#f2_i" transform="matrix(12,0,0,12,728.5,602.2)" />
<use xlink:href="#f0_n" transform="matrix(12,0,0,12,55,675.2)" />
<use xlink:href="#f0_i" transform="matrix(12,0,0,12,64.2,675.2)" />
<use xlink:href="#f0_n" transform="matrix(12,0,0,12,69,675.2)" />
<use xlink:href="#f0_1g" transform="matrix(12,0,0,12,82.9,675.2)" />
<use xlink:href="#f0_1k" transform="matrix(12,0,0,12,93.9,675.2)" />
<use xlink:href="#f0_15" transform="matrix(12,0,0,12,106,675.2)" />
<use xlink:href="#f0_1i" transform="matrix(12,0,0,12,118.1,675.2)" />
<use xlink:href="#f0_19" transform="matrix(12,0,0,12,131.3,675.2)" />
<use xlink:href="#f0_14" transform="matrix(12,0,0,12,138.3,675.2)" />
<use xlink:href="#f0_1f" transform="matrix(12,0,0,12,151.5,675.2)" />
<use xlink:href="#f0_1g" transform="matrix(12,0,0,12,165.8,675.2)" />
<use xlink:href="#f0_18" transform="matrix(12,0,0,12,176.8,675.2)" />
<use xlink:href="#f0_1p" transform="matrix(12,0,0,12,191,675.2)" />
<use xlink:href="#f0_1k" transform="matrix(12,0,0,12,204.6,675.2)" />
<use xlink:href="#f0_15" transform="matrix(12,0,0,12,216.7,675.2)" />
<use xlink:href="#f0_1j" transform="matrix(12,0,0,12,228.8,675.2)" />
<use xlink:href="#f0_u" transform="matrix(12,0,0,12,239.1,675.2)" />
<use xlink:href="#f2_16" transform="matrix(12,0,0,12,55,919.1)" />
<use xlink:href="#f2_25" transform="matrix(12,0,0,12,65.3,919.1)" />
<use xlink:href="#f2_2e" transform="matrix(12,0,0,12,69.7,919.1)" />
<use xlink:href="#f2_2f" transform="matrix(12,0,0,12,76.3,919.1)" />
<use xlink:href="#f2_2g" transform="matrix(12,0,0,12,83.2,919.1)" />
<use xlink:href="#f2_2g" transform="matrix(12,0,0,12,96.8,919.1)" />
<use xlink:href="#f2_21" transform="matrix(12,0,0,12,102.2,919.1)" />
<use xlink:href="#f2_2e" transform="matrix(12,0,0,12,110.3,919.1)" />
<use xlink:href="#f2_2e" transform="matrix(12,0,0,12,116.2,919.1)" />
<use xlink:href="#f2_21" transform="matrix(12,0,0,12,122.4,919.1)" />
<use xlink:href="#f2_2f" transform="matrix(12,0,0,12,130.5,919.1)" />
<use xlink:href="#f2_2g" transform="matrix(12,0,0,12,137.4,919.1)" />
<use xlink:href="#f2_2e" transform="matrix(12,0,0,12,142.9,919.1)" />
<use xlink:href="#f2_25" transform="matrix(12,0,0,12,149.1,919.1)" />
<use xlink:href="#f2_1x" transform="matrix(12,0,0,12,153.5,919.1)" />
<use xlink:href="#f2_28" transform="matrix(12,0,0,12,161.9,919.1)" />
<use xlink:href="#f2_2c" transform="matrix(12,0,0,12,174.8,919.1)" />
<use xlink:href="#f2_28" transform="matrix(12,0,0,12,184.3,919.1)" />
<use xlink:href="#f2_1x" transform="matrix(12,0,0,12,189,919.1)" />
<use xlink:href="#f2_2a" transform="matrix(12,0,0,12,197.4,919.1)" />
<use xlink:href="#f2_2g" transform="matrix(12,0,0,12,206.2,919.1)" />
<use xlink:href="#f2_2c" transform="matrix(12,0,0,12,220.1,919.1)" />
<use xlink:href="#f2_2b" transform="matrix(12,0,0,12,228.9,919.1)" />
<use xlink:href="#f2_2f" transform="matrix(12,0,0,12,238.5,919.1)" />
<use xlink:href="#f2_2f" transform="matrix(12,0,0,12,245.4,919.1)" />
<use xlink:href="#f2_21" transform="matrix(12,0,0,12,252.4,919.1)" />
<use xlink:href="#f2_2f" transform="matrix(12,0,0,12,260.5,919.1)" />
<use xlink:href="#f2_2f" transform="matrix(12,0,0,12,267.4,919.1)" />
<use xlink:href="#f2_21" transform="matrix(12,0,0,12,274.4,919.1)" />
<use xlink:href="#f2_2f" transform="matrix(12,0,0,12,282.8,919.1)" />
<use xlink:href="#f2_2i" transform="matrix(12,0,0,12,298.2,919.1)" />
<use xlink:href="#f2_1x" transform="matrix(12,0,0,12,307,919.1)" />
<use xlink:href="#f2_2f" transform="matrix(12,0,0,12,315.4,919.1)" />
<use xlink:href="#f2_1z" transform="matrix(12,0,0,12,322.4,919.1)" />
<use xlink:href="#f2_2h" transform="matrix(12,0,0,12,330.4,919.1)" />
<use xlink:href="#f2_28" transform="matrix(12,0,0,12,340,919.1)" />
<use xlink:href="#f2_1x" transform="matrix(12,0,0,12,344.7,919.1)" />
<use xlink:href="#f2_2e" transform="matrix(12,0,0,12,352.8,919.1)" />
<use xlink:href="#f2_2g" transform="matrix(12,0,0,12,367.4,919.1)" />
<use xlink:href="#f2_25" transform="matrix(12,0,0,12,372.9,919.1)" />
<use xlink:href="#f2_2f" transform="matrix(12,0,0,12,377.3,919.1)" />
<use xlink:href="#f2_2f" transform="matrix(12,0,0,12,384.6,919.1)" />
<use xlink:href="#f2_2h" transform="matrix(12,0,0,12,391.6,919.1)" />
<use xlink:href="#f2_21" transform="matrix(12,0,0,12,400.7,919.1)" />
<use xlink:href="#f2_28" transform="matrix(12,0,0,12,417.6,919.1)" />
<use xlink:href="#f2_25" transform="matrix(12,0,0,12,422.4,919.1)" />
<use xlink:href="#f2_27" transform="matrix(12,0,0,12,427.5,919.1)" />
<use xlink:href="#f2_21" transform="matrix(12,0,0,12,436.6,919.1)" />
<use xlink:href="#f0_2k" transform="matrix(12,0,0,12,453.8,919.1)" />
<use xlink:href="#f0_2l" transform="matrix(12,0,0,12,462.6,919.1)" />
<use xlink:href="#f0_28" transform="matrix(12,0,0,12,471.7,919.1)" />
<use xlink:href="#f0_21" transform="matrix(12,0,0,12,476.8,919.1)" />
<use xlink:href="#f0_29" transform="matrix(12,0,0,12,485,919.1)" />
<use xlink:href="#f2_1x" transform="matrix(12,0,0,12,508.4,919.1)" />
<use xlink:href="#f2_2a" transform="matrix(12,0,0,12,516.8,919.1)" />
<use xlink:href="#f2_20" transform="matrix(12,0,0,12,525.6,919.1)" />
<use xlink:href="#f0_2c" transform="matrix(12,0,0,12,543.2,919.1)" />
<use xlink:href="#f0_24" transform="matrix(12,0,0,12,553.5,919.1)" />
<use xlink:href="#f0_28" transform="matrix(12,0,0,12,563.7,919.1)" />
<use xlink:href="#f0_2b" transform="matrix(12,0,0,12,568.5,919.1)" />
<use xlink:href="#f0_21" transform="matrix(12,0,0,12,577.7,919.1)" />
<use xlink:href="#f0_29" transform="matrix(12,0,0,12,585.7,919.1)" />
<use xlink:href="#f2_i" transform="matrix(12,0,0,12,600.8,919.1)" />
<use xlink:href="#f2_1j" transform="matrix(12,0,0,12,614,919.1)" />
<use xlink:href="#f2_2b" transform="matrix(12,0,0,12,624.3,919.1)" />
<use xlink:href="#f2_2g" transform="matrix(12,0,0,12,641.5,919.1)" />
<use xlink:href="#f2_24" transform="matrix(12,0,0,12,647,919.1)" />
<use xlink:href="#f2_21" transform="matrix(12,0,0,12,655.8,919.1)" />
<use xlink:href="#f2_2l" transform="matrix(12,0,0,12,664.2,919.1)" />
<use xlink:href="#f2_1x" transform="matrix(12,0,0,12,681,919.1)" />
<use xlink:href="#f2_2e" transform="matrix(12,0,0,12,689.1,919.1)" />
<use xlink:href="#f2_21" transform="matrix(12,0,0,12,695.3,919.1)" />
<use xlink:href="#f2_27" transform="matrix(12,0,0,12,711.8,919.1)" />
<use xlink:href="#f2_2a" transform="matrix(12,0,0,12,721,919.1)" />
<use xlink:href="#f2_2b" transform="matrix(12,0,0,12,729.8,919.1)" />
<use xlink:href="#f2_2j" transform="matrix(12,0,0,12,739.3,919.1)" />
<use xlink:href="#f2_2a" transform="matrix(12,0,0,12,752.5,919.1)" />
<use xlink:href="#f2_1x" transform="matrix(12,0,0,12,769.7,919.1)" />
<use xlink:href="#f2_2f" transform="matrix(12,0,0,12,777.7,919.1)" />
<use xlink:href="#f2_2i" transform="matrix(12,0,0,12,793.5,919.1)" />
<use xlink:href="#f2_1x" transform="matrix(12,0,0,12,802.7,919.1)" />
<use xlink:href="#f2_2f" transform="matrix(12,0,0,12,810.7,919.1)" />
<use xlink:href="#f2_1z" transform="matrix(12,0,0,12,817.7,919.1)" />
<use xlink:href="#f2_2h" transform="matrix(12,0,0,12,825.8,919.1)" />
<use xlink:href="#f2_28" transform="matrix(12,0,0,12,835.3,919.1)" />
<use xlink:href="#f2_1x" transform="matrix(12,0,0,12,840,919.1)" />
<use xlink:href="#f2_2e" transform="matrix(12,0,0,12,848.1,919.1)" />
<use xlink:href="#f2_1z" transform="matrix(12,0,0,12,55,940.4)" />
<use xlink:href="#f2_2e" transform="matrix(12,0,0,12,63.1,940.4)" />
<use xlink:href="#f2_2l" transform="matrix(12,0,0,12,69.7,940.4)" />
<use xlink:href="#f2_2c" transform="matrix(12,0,0,12,78.1,940.4)" />
<use xlink:href="#f2_2g" transform="matrix(12,0,0,12,87.3,940.4)" />
<use xlink:href="#f2_2b" transform="matrix(12,0,0,12,92.8,940.4)" />
<use xlink:href="#f2_23" transform="matrix(12,0,0,12,102.3,940.4)" />
<use xlink:href="#f2_1x" transform="matrix(12,0,0,12,111.4,940.4)" />
<use xlink:href="#f2_29" transform="matrix(12,0,0,12,119.5,940.4)" />
<use xlink:href="#f2_2f" transform="matrix(12,0,0,12,133.1,940.4)" />
<use xlink:href="#f2_i" transform="matrix(12,0,0,12,140,940.4)" />
<use xlink:href="#f0_13" transform="matrix(12,0,0,12,55,961.3)" />
<use xlink:href="#f0_2b" transform="matrix(12,0,0,12,68.3,961.3)" />
<use xlink:href="#f0_29" transform="matrix(12,0,0,12,77.4,961.3)" />
<use xlink:href="#f0_29" transform="matrix(12,0,0,12,92.4,961.3)" />
<use xlink:href="#f0_2b" transform="matrix(12,0,0,12,107.5,961.3)" />
<use xlink:href="#f0_2a" transform="matrix(12,0,0,12,116.6,961.3)" />
<use xlink:href="#f0_28" transform="matrix(12,0,0,12,127.3,961.3)" />
<use xlink:href="#f0_2l" transform="matrix(12,0,0,12,132,961.3)" />
<use xlink:href="#f0_27" transform="matrix(12,0,0,12,145.9,961.3)" />
<use xlink:href="#f0_2a" transform="matrix(12,0,0,12,155.8,961.3)" />
<use xlink:href="#f0_2b" transform="matrix(12,0,0,12,166.1,961.3)" />
<use xlink:href="#f0_2j" transform="matrix(12,0,0,12,175.2,961.3)" />
<use xlink:href="#f0_2a" transform="matrix(12,0,0,12,188.5,961.3)" />
<use xlink:href="#f0_1x" transform="matrix(12,0,0,12,203.5,961.3)" />
<use xlink:href="#f0_2f" transform="matrix(12,0,0,12,212.6,961.3)" />
<use xlink:href="#f0_1y" transform="matrix(12,0,0,12,224.3,961.3)" />
<use xlink:href="#f0_2b" transform="matrix(12,0,0,12,234.6,961.3)" />
<use xlink:href="#f0_2g" transform="matrix(12,0,0,12,243.8,961.3)" />
<use xlink:href="#f0_1x" transform="matrix(12,0,0,12,250,961.3)" />
<use xlink:href="#f0_2a" transform="matrix(12,0,0,12,259.1,961.3)" />
<use xlink:href="#f0_25" transform="matrix(12,0,0,12,269.4,961.3)" />
<use xlink:href="#f0_1z" transform="matrix(12,0,0,12,274.5,961.3)" />
<use xlink:href="#f0_1x" transform="matrix(12,0,0,12,282.6,961.3)" />
<use xlink:href="#f0_28" transform="matrix(12,0,0,12,291.8,961.3)" />
<use xlink:href="#f0_2f" transform="matrix(12,0,0,12,301.3,961.3)" />
<use xlink:href="#f0_2a" transform="matrix(12,0,0,12,308.2,961.3)" />
<use xlink:href="#f0_1x" transform="matrix(12,0,0,12,318.5,961.3)" />
<use xlink:href="#f0_27" transform="matrix(12,0,0,12,327.7,961.3)" />
<use xlink:href="#f0_21" transform="matrix(12,0,0,12,337.6,961.3)" />
<use xlink:href="#f0_i" transform="matrix(12,0,0,12,345.6,961.3)" />
<use xlink:href="#f2_1g" transform="matrix(12,0,0,12,55,982.6)" />
<use xlink:href="#f2_28" transform="matrix(12,0,0,12,65.7,982.6)" />
<use xlink:href="#f2_1x" transform="matrix(12,0,0,12,70.1,982.6)" />
<use xlink:href="#f2_2a" transform="matrix(12,0,0,12,78.5,982.6)" />
<use xlink:href="#f2_2g" transform="matrix(12,0,0,12,87.3,982.6)" />
<use xlink:href="#f2_1y" transform="matrix(12,0,0,12,97.5,982.6)" />
<use xlink:href="#f2_2b" transform="matrix(12,0,0,12,106.3,982.6)" />
<use xlink:href="#f2_20" transform="matrix(12,0,0,12,115.8,982.6)" />
<use xlink:href="#f2_2l" transform="matrix(12,0,0,12,125,982.6)" />
<use xlink:href="#f2_20" transform="matrix(12,0,0,12,138.2,982.6)" />
<use xlink:href="#f2_25" transform="matrix(12,0,0,12,147.7,982.6)" />
<use xlink:href="#f2_22" transform="matrix(12,0,0,12,152.5,982.6)" />
<use xlink:href="#f2_22" transform="matrix(12,0,0,12,158.7,982.6)" />
<use xlink:href="#f2_21" transform="matrix(12,0,0,12,164.5,982.6)" />
<use xlink:href="#f2_2e" transform="matrix(12,0,0,12,172.6,982.6)" />
<use xlink:href="#f2_21" transform="matrix(12,0,0,12,178.8,982.6)" />
<use xlink:href="#f2_2a" transform="matrix(12,0,0,12,187.2,982.6)" />
<use xlink:href="#f2_2g" transform="matrix(12,0,0,12,196,982.6)" />
<use xlink:href="#f2_25" transform="matrix(12,0,0,12,201.9,982.6)" />
<use xlink:href="#f2_1x" transform="matrix(12,0,0,12,206.3,982.6)" />
<use xlink:href="#f2_2g" transform="matrix(12,0,0,12,214.4,982.6)" />
<use xlink:href="#f2_21" transform="matrix(12,0,0,12,219.8,982.6)" />
<use xlink:href="#f2_20" transform="matrix(12,0,0,12,227.9,982.6)" />
<use xlink:href="#f2_25" transform="matrix(12,0,0,12,241.8,982.6)" />
<use xlink:href="#f2_2a" transform="matrix(12,0,0,12,246.6,982.6)" />
<use xlink:href="#f2_2g" transform="matrix(12,0,0,12,255.4,982.6)" />
<use xlink:href="#f2_2b" transform="matrix(12,0,0,12,260.9,982.6)" />
<use xlink:href="#f2_2g" transform="matrix(12,0,0,12,274.8,982.6)" />
<use xlink:href="#f2_2e" transform="matrix(12,0,0,12,279.9,982.6)" />
<use xlink:href="#f2_2h" transform="matrix(12,0,0,12,286.1,982.6)" />
<use xlink:href="#f2_21" transform="matrix(12,0,0,12,295.3,982.6)" />
<use xlink:href="#f2_2e" transform="matrix(12,0,0,12,308.1,982.6)" />
<use xlink:href="#f2_2b" transform="matrix(12,0,0,12,314,982.6)" />
<use xlink:href="#f2_2b" transform="matrix(12,0,0,12,323.1,982.6)" />
<use xlink:href="#f2_2g" transform="matrix(12,0,0,12,332.3,982.6)" />
<use xlink:href="#f2_g" transform="matrix(12,0,0,12,337.4,982.6)" />
<use xlink:href="#f2_2f" transform="matrix(12,0,0,12,347.4,982.6)" />
<use xlink:href="#f2_2g" transform="matrix(12,0,0,12,354,982.6)" />
<use xlink:href="#f2_21" transform="matrix(12,0,0,12,359.5,982.6)" />
<use xlink:href="#f2_29" transform="matrix(12,0,0,12,367.5,982.6)" />
<use xlink:href="#f2_1x" transform="matrix(12,0,0,12,385.8,982.6)" />
<use xlink:href="#f2_2a" transform="matrix(12,0,0,12,394.3,982.6)" />
<use xlink:href="#f2_20" transform="matrix(12,0,0,12,403.1,982.6)" />
<use xlink:href="#f2_28" transform="matrix(12,0,0,12,417.3,982.6)" />
<use xlink:href="#f2_21" transform="matrix(12,0,0,12,421.7,982.6)" />
<use xlink:href="#f2_1x" transform="matrix(12,0,0,12,430.2,982.6)" />
<use xlink:href="#f2_22" transform="matrix(12,0,0,12,438.6,982.6)" />
<use xlink:href="#f2_i" transform="matrix(12,0,0,12,444.1,982.6)" />
<use xlink:href="#f0_1g" transform="matrix(12,0,0,12,55,1003.5)" />
<use xlink:href="#f0_28" transform="matrix(12,0,0,12,66,1003.5)" />
<use xlink:href="#f0_1x" transform="matrix(12,0,0,12,70.8,1003.5)" />
<use xlink:href="#f0_2a" transform="matrix(12,0,0,12,80,1003.5)" />
<use xlink:href="#f0_2g" transform="matrix(12,0,0,12,90.2,1003.5)" />
<use xlink:href="#f0_1y" transform="matrix(12,0,0,12,101.2,1003.5)" />
<use xlink:href="#f0_2b" transform="matrix(12,0,0,12,111.4,1003.5)" />
<use xlink:href="#f0_20" transform="matrix(12,0,0,12,120.6,1003.5)" />
<use xlink:href="#f0_2l" transform="matrix(12,0,0,12,130.8,1003.5)" />
<use xlink:href="#f0_25" transform="matrix(12,0,0,12,144.8,1003.5)" />
<use xlink:href="#f0_2f" transform="matrix(12,0,0,12,149.9,1003.5)" />
<use xlink:href="#f0_2g" transform="matrix(12,0,0,12,161.6,1003.5)" />
<use xlink:href="#f0_24" transform="matrix(12,0,0,12,167.8,1003.5)" />
<use xlink:href="#f0_21" transform="matrix(12,0,0,12,178.1,1003.5)" />
<use xlink:href="#f0_2f" transform="matrix(12,0,0,12,190.5,1003.5)" />
<use xlink:href="#f0_2c" transform="matrix(12,0,0,12,197.5,1003.5)" />
<use xlink:href="#f0_2b" transform="matrix(12,0,0,12,207.7,1003.5)" />
<use xlink:href="#f0_2e" transform="matrix(12,0,0,12,216.9,1003.5)" />
<use xlink:href="#f0_2b" transform="matrix(12,0,0,12,224.6,1003.5)" />
<use xlink:href="#f0_2c" transform="matrix(12,0,0,12,233.8,1003.5)" />
<use xlink:href="#f0_24" transform="matrix(12,0,0,12,244,1003.5)" />
<use xlink:href="#f0_2l" transform="matrix(12,0,0,12,254.3,1003.5)" />
<use xlink:href="#f0_2g" transform="matrix(12,0,0,12,263.4,1003.5)" />
<use xlink:href="#f0_25" transform="matrix(12,0,0,12,269.6,1003.5)" />
<use xlink:href="#f0_1z" transform="matrix(12,0,0,12,274.7,1003.5)" />
<use xlink:href="#f0_23" transform="matrix(12,0,0,12,287.6,1003.5)" />
<use xlink:href="#f0_21" transform="matrix(12,0,0,12,296.8,1003.5)" />
<use xlink:href="#f0_2a" transform="matrix(12,0,0,12,304.8,1003.5)" />
<use xlink:href="#f0_21" transform="matrix(12,0,0,12,315.1,1003.5)" />
<use xlink:href="#f0_2e" transform="matrix(12,0,0,12,323.1,1003.5)" />
<use xlink:href="#f0_1x" transform="matrix(12,0,0,12,330.8,1003.5)" />
<use xlink:href="#f0_2g" transform="matrix(12,0,0,12,340,1003.5)" />
<use xlink:href="#f0_25" transform="matrix(12,0,0,12,346.2,1003.5)" />
<use xlink:href="#f0_2b" transform="matrix(12,0,0,12,351.3,1003.5)" />
<use xlink:href="#f0_2a" transform="matrix(12,0,0,12,360.5,1003.5)" />
<use xlink:href="#f0_i" transform="matrix(12,0,0,12,370.8,1003.5)" />
<use xlink:href="#f2_1j" transform="matrix(12,0,0,12,55,1024.8)" />
<use xlink:href="#f2_2g" transform="matrix(12,0,0,12,65.3,1024.8)" />
<use xlink:href="#f2_21" transform="matrix(12,0,0,12,70.8,1024.8)" />
<use xlink:href="#f2_29" transform="matrix(12,0,0,12,78.8,1024.8)" />
<use xlink:href="#f2_25" transform="matrix(12,0,0,12,97.5,1024.8)" />
<use xlink:href="#f2_2f" transform="matrix(12,0,0,12,102.3,1024.8)" />
<use xlink:href="#f2_2e" transform="matrix(12,0,0,12,114,1024.8)" />
<use xlink:href="#f2_24" transform="matrix(12,0,0,12,120.2,1024.8)" />
<use xlink:href="#f2_25" transform="matrix(12,0,0,12,129.4,1024.8)" />
<use xlink:href="#f2_2m" transform="matrix(12,0,0,12,134.1,1024.8)" />
<use xlink:href="#f2_2b" transform="matrix(12,0,0,12,142.2,1024.8)" />
<use xlink:href="#f2_29" transform="matrix(12,0,0,12,152.1,1024.8)" />
<use xlink:href="#f2_1x" transform="matrix(12,0,0,12,165.7,1024.8)" />
<use xlink:href="#f2_2g" transform="matrix(12,0,0,12,173.7,1024.8)" />
<use xlink:href="#f2_2b" transform="matrix(12,0,0,12,179.2,1024.8)" />
<use xlink:href="#f2_2h" transform="matrix(12,0,0,12,188.7,1024.8)" />
<use xlink:href="#f2_2f" transform="matrix(12,0,0,12,197.9,1024.8)" />
<use xlink:href="#f2_1x" transform="matrix(12,0,0,12,209.6,1024.8)" />
<use xlink:href="#f2_2a" transform="matrix(12,0,0,12,217.7,1024.8)" />
<use xlink:href="#f2_20" transform="matrix(12,0,0,12,226.5,1024.8)" />
<use xlink:href="#f2_2e" transform="matrix(12,0,0,12,240.4,1024.8)" />
<use xlink:href="#f2_21" transform="matrix(12,0,0,12,246.6,1024.8)" />
<use xlink:href="#f2_23" transform="matrix(12,0,0,12,254.7,1024.8)" />
<use xlink:href="#f2_21" transform="matrix(12,0,0,12,263.8,1024.8)" />
<use xlink:href="#f2_2a" transform="matrix(12,0,0,12,271.9,1024.8)" />
<use xlink:href="#f2_21" transform="matrix(12,0,0,12,280.7,1024.8)" />
<use xlink:href="#f2_2e" transform="matrix(12,0,0,12,288.8,1024.8)" />
<use xlink:href="#f2_1x" transform="matrix(12,0,0,12,295,1024.8)" />
<use xlink:href="#f2_2g" transform="matrix(12,0,0,12,303,1024.8)" />
<use xlink:href="#f2_21" transform="matrix(12,0,0,12,308.5,1024.8)" />
<use xlink:href="#f2_2j" transform="matrix(12,0,0,12,321.3,1024.8)" />
<use xlink:href="#f2_24" transform="matrix(12,0,0,12,334.6,1024.8)" />
<use xlink:href="#f2_21" transform="matrix(12,0,0,12,343.3,1024.8)" />
<use xlink:href="#f2_2a" transform="matrix(12,0,0,12,351.4,1024.8)" />
<use xlink:href="#f2_1x" transform="matrix(12,0,0,12,365,1024.8)" />
<use xlink:href="#f2_21" transform="matrix(12,0,0,12,373,1024.8)" />
<use xlink:href="#f2_2e" transform="matrix(12,0,0,12,381.1,1024.8)" />
<use xlink:href="#f2_25" transform="matrix(12,0,0,12,387.7,1024.8)" />
<use xlink:href="#f2_1x" transform="matrix(12,0,0,12,392.4,1024.8)" />
<use xlink:href="#f2_28" transform="matrix(12,0,0,12,400.9,1024.8)" />
<use xlink:href="#f2_2c" transform="matrix(12,0,0,12,410,1024.8)" />
<use xlink:href="#f2_1x" transform="matrix(12,0,0,12,419.2,1024.8)" />
<use xlink:href="#f2_2e" transform="matrix(12,0,0,12,427.6,1024.8)" />
<use xlink:href="#f2_2g" transform="matrix(12,0,0,12,433.8,1024.8)" />
<use xlink:href="#f2_2f" transform="matrix(12,0,0,12,439.3,1024.8)" />
<use xlink:href="#f2_1x" transform="matrix(12,0,0,12,450.6,1024.8)" />
<use xlink:href="#f2_2e" transform="matrix(12,0,0,12,458.7,1024.8)" />
<use xlink:href="#f2_21" transform="matrix(12,0,0,12,464.9,1024.8)" />
<use xlink:href="#f2_20" transform="matrix(12,0,0,12,477.7,1024.8)" />
<use xlink:href="#f2_21" transform="matrix(12,0,0,12,486.9,1024.8)" />
<use xlink:href="#f2_2f" transform="matrix(12,0,0,12,495,1024.8)" />
<use xlink:href="#f2_2g" transform="matrix(12,0,0,12,501.9,1024.8)" />
<use xlink:href="#f2_2e" transform="matrix(12,0,0,12,507,1024.8)" />
<use xlink:href="#f2_2b" transform="matrix(12,0,0,12,512.9,1024.8)" />
<use xlink:href="#f2_2l" transform="matrix(12,0,0,12,522.4,1024.8)" />
<use xlink:href="#f2_21" transform="matrix(12,0,0,12,530.9,1024.8)" />
<use xlink:href="#f2_20" transform="matrix(12,0,0,12,538.9,1024.8)" />
<use xlink:href="#f2_i" transform="matrix(12,0,0,12,548.1,1024.8)" />
<use xlink:href="#f2_1c" transform="matrix(12,0,0,12,55,1045.7)" />
<use xlink:href="#f2_21" transform="matrix(12,0,0,12,66,1045.7)" />
<use xlink:href="#f2_1x" transform="matrix(12,0,0,12,74.1,1045.7)" />
<use xlink:href="#f2_2i" transform="matrix(12,0,0,12,82.5,1045.7)" />
<use xlink:href="#f2_21" transform="matrix(12,0,0,12,91.3,1045.7)" />
<use xlink:href="#f2_2f" transform="matrix(12,0,0,12,99.7,1045.7)" />
<use xlink:href="#f2_29" transform="matrix(12,0,0,12,111.8,1045.7)" />
<use xlink:href="#f2_1x" transform="matrix(12,0,0,12,125.4,1045.7)" />
<use xlink:href="#f2_2l" transform="matrix(12,0,0,12,133.8,1045.7)" />
<use xlink:href="#f2_1y" transform="matrix(12,0,0,12,147.7,1045.7)" />
<use xlink:href="#f2_21" transform="matrix(12,0,0,12,156.5,1045.7)" />
<use xlink:href="#f2_2f" transform="matrix(12,0,0,12,169.3,1045.7)" />
<use xlink:href="#f2_29" transform="matrix(12,0,0,12,176.6,1045.7)" />
<use xlink:href="#f2_1x" transform="matrix(12,0,0,12,190.6,1045.7)" />
<use xlink:href="#f2_28" transform="matrix(12,0,0,12,199,1045.7)" />
<use xlink:href="#f2_28" transform="matrix(12,0,0,12,204.1,1045.7)" />
<use xlink:href="#f2_c" transform="matrix(12,0,0,12,213.3,1045.7)" />
<use xlink:href="#f0_29" transform="matrix(12,0,0,12,219.7,1045.7)" />
<use xlink:href="#f0_25" transform="matrix(12,0,0,12,234.7,1045.7)" />
<use xlink:href="#f0_1z" transform="matrix(12,0,0,12,239.8,1045.7)" />
<use xlink:href="#f0_2e" transform="matrix(12,0,0,12,248.3,1045.7)" />
<use xlink:href="#f0_2b" transform="matrix(12,0,0,12,256.4,1045.7)" />
<use xlink:href="#f0_2c" transform="matrix(12,0,0,12,265.5,1045.7)" />
<use xlink:href="#f0_24" transform="matrix(12,0,0,12,275.8,1045.7)" />
<use xlink:href="#f0_2l" transform="matrix(12,0,0,12,286,1045.7)" />
<use xlink:href="#f0_28" transform="matrix(12,0,0,12,295.2,1045.7)" />
<use xlink:href="#f0_28" transform="matrix(12,0,0,12,300.3,1045.7)" />
<use xlink:href="#f2_d" transform="matrix(12,0,0,12,305.2,1045.7)" />
<use xlink:href="#f2_1x" transform="matrix(12,0,0,12,316.1,1045.7)" />
<use xlink:href="#f2_2f" transform="matrix(12,0,0,12,324.2,1045.7)" />
<use xlink:href="#f2_25" transform="matrix(12,0,0,12,336.3,1045.7)" />
<use xlink:href="#f2_2a" transform="matrix(12,0,0,12,341.1,1045.7)" />
<use xlink:href="#f3_1j" transform="matrix(12,0,0,12,354.7,1045.7)" />
<use xlink:href="#f3_21" transform="matrix(12,0,0,12,363.9,1045.7)" />
<use xlink:href="#f3_28" transform="matrix(12,0,0,12,372,1045.7)" />
<use xlink:href="#f3_1x" transform="matrix(12,0,0,12,377,1045.7)" />
<use xlink:href="#f3_23" transform="matrix(12,0,0,12,386.2,1045.7)" />
<use xlink:href="#f3_25" transform="matrix(12,0,0,12,395.4,1045.7)" />
<use xlink:href="#f3_2a" transform="matrix(12,0,0,12,400.5,1045.7)" />
<use xlink:href="#f3_21" transform="matrix(12,0,0,12,409.7,1045.7)" />
<use xlink:href="#f3_28" transform="matrix(12,0,0,12,417.8,1045.7)" />
<use xlink:href="#f3_28" transform="matrix(12,0,0,12,422.9,1045.7)" />
<use xlink:href="#f3_1x" transform="matrix(12,0,0,12,428.4,1045.7)" />
<use xlink:href="#f2_2b" transform="matrix(12,0,0,12,442,1045.7)" />
<use xlink:href="#f2_2e" transform="matrix(12,0,0,12,451.5,1045.7)" />
<use xlink:href="#f2_28" transform="matrix(12,0,0,12,462.5,1045.7)" />
<use xlink:href="#f2_1x" transform="matrix(12,0,0,12,466.9,1045.7)" />
<use xlink:href="#f2_2e" transform="matrix(12,0,0,12,475,1045.7)" />
<use xlink:href="#f2_23" transform="matrix(12,0,0,12,481.2,1045.7)" />
<use xlink:href="#f2_21" transform="matrix(12,0,0,12,490.3,1045.7)" />
<use xlink:href="#f2_c" transform="matrix(12,0,0,12,503.2,1045.7)" />
<use xlink:href="#f0_29" transform="matrix(12,0,0,12,509.5,1045.7)" />
<use xlink:href="#f0_1x" transform="matrix(12,0,0,12,524.5,1045.7)" />
<use xlink:href="#f0_1z" transform="matrix(12,0,0,12,533.7,1045.7)" />
<use xlink:href="#f0_2e" transform="matrix(12,0,0,12,542.1,1045.7)" />
<use xlink:href="#f0_2b" transform="matrix(12,0,0,12,549.8,1045.7)" />
<use xlink:href="#f0_2c" transform="matrix(12,0,0,12,559,1045.7)" />
<use xlink:href="#f0_24" transform="matrix(12,0,0,12,569.2,1045.7)" />
<use xlink:href="#f0_2l" transform="matrix(12,0,0,12,579.5,1045.7)" />
<use xlink:href="#f0_28" transform="matrix(12,0,0,12,588.6,1045.7)" />
<use xlink:href="#f0_28" transform="matrix(12,0,0,12,593.7,1045.7)" />
<use xlink:href="#f2_d" transform="matrix(12,0,0,12,598.6,1045.7)" />
<use xlink:href="#f2_1x" transform="matrix(12,0,0,12,609.6,1045.7)" />
<use xlink:href="#f2_2f" transform="matrix(12,0,0,12,617.6,1045.7)" />
<use xlink:href="#f2_25" transform="matrix(12,0,0,12,629.7,1045.7)" />
<use xlink:href="#f2_2a" transform="matrix(12,0,0,12,634.5,1045.7)" />
<use xlink:href="#f2_22" transform="matrix(12,0,0,12,648.4,1045.7)" />
<use xlink:href="#f2_21" transform="matrix(12,0,0,12,654.3,1045.7)" />
<use xlink:href="#f2_2e" transform="matrix(12,0,0,12,662.3,1045.7)" />
<use xlink:href="#f2_2a" transform="matrix(12,0,0,12,668.6,1045.7)" />
<use xlink:href="#f2_2f" transform="matrix(12,0,0,12,677.7,1045.7)" />
<use xlink:href="#f2_i" transform="matrix(12,0,0,12,684.7,1045.7)" />
</g>
</g>
<image preserveAspectRatio="none" x="55" y="55" width="486" height="365" xlink:href="img/1.png" />
<image preserveAspectRatio="none" x="57" y="715" width="343" height="187" xlink:href="img/2.png" />
<g fill="#000000" >
<use xlink:href="#f4_l" transform="matrix(8,0,0,8,785.7,1264.1)" />
<use xlink:href="#f4_l" transform="matrix(8,0,0,8,792.5,1264.1)" />
</g>
<defs>
<path d="M26,0V54L154,74V926L26,945v55H878V746H810L786,908c0,0,-83,10,-241,10H389V551H651l23,111h67V355H674L651,468H389V82H578c0,0,193,0,252,12l43,185h68L927,0Z" 
id="f0_15"
transform="scale(0.001,-0.001)" />

<path d="M425,-14c0,0,-187,0,-280,90c0,0,-93,90,-93,276c0,0,0,115,42,198c0,0,43,82,121,126c0,0,78,44,182,44c0,0,104,0,227,-26V486H571L539,609c0,0,-25,19,-50,26c0,0,-24,7,-65,7c0,0,-44,0,-79,-35c0,0,-36,-35,-56,-98c0,0,-20,-64,-20,-153c0,0,0,-150,47,-214c0,0,47,-64,148,-64c0,0,103,0,176,21V42C640,42,606,15,547,0c0,0,-59,-14,-122,-14Z" 
id="f0_1z"
transform="scale(0.001,-0.001)" />

<path d="M379,60c0,0,59,0,84,64c0,0,24,65,24,231c0,0,0,164,-24,227c0,0,-24,63,-84,63c0,0,-57,0,-80,-60c0,0,-22,-61,-22,-230c0,0,0,-173,23,-234c0,0,22,-61,79,-61Zm-2,-74c0,0,-161,0,-240,91c0,0,-79,91,-79,277c0,0,0,186,80,276c0,0,81,90,245,90c0,0,167,0,245,-93c0,0,78,-93,78,-273c0,0,0,-188,-81,-278c0,0,-81,-90,-248,-90Z" 
id="f0_2b"
transform="scale(0.001,-0.001)" />

<path d="M41,0V49l69,18V634L41,652v49H313l11,-61l50,26c0,0,105,54,188,54c0,0,194,0,194,-207V67L827,49V0H478V49l63,18V484c0,0,0,63,-27,98c0,0,-26,35,-75,35c0,0,-57,0,-114,-25V67L389,49V0Z" 
id="f0_2a"
transform="scale(0.001,-0.001)" />

<path d="M41,0V49l69,18V634L41,652v49H313l11,-61l50,26c0,0,105,54,188,54c0,0,125,0,167,-91c0,0,153,91,258,91c0,0,189,0,189,-207V67l71,-17V0H898V50l63,17V484c0,0,0,63,-24,98c0,0,-25,35,-74,35c0,0,-55,0,-119,-31c0,0,7,-32,7,-73V67L821,50V0H473V50l63,17V484c0,0,0,63,-25,98c0,0,-24,35,-73,35c0,0,-49,0,-113,-29V67L389,49V0Z" 
id="f0_29"
transform="scale(0.001,-0.001)" />

<path d="M34,0V49l76,18V634L38,652v49H325V67L402,49V0ZM217,831c0,0,-48,0,-81,33c0,0,-34,33,-34,82c0,0,0,48,34,81c0,0,34,33,81,33c0,0,48,0,81,-33c0,0,33,-33,33,-81c0,0,0,-47,-33,-81c0,0,-32,-34,-81,-34Z" 
id="f0_25"
transform="scale(0.001,-0.001)" />

<path d="M51,0V55L180,74V926L51,946v54H543V946L415,926V74L543,55V0Z" 
id="f0_19"
transform="scale(0.001,-0.001)" />

<path d="M438,65c0,0,131,0,131,293c0,0,0,279,-130,279c0,0,-69,0,-127,-29V80c0,0,60,-15,126,-15ZM20,-325v50l76,18V634L19,652v49H304l1,-36c0,0,80,55,194,55c0,0,146,0,218,-86c0,0,71,-86,71,-271c0,0,0,-183,-83,-280c0,0,-83,-97,-238,-97c0,0,-79,0,-160,19c0,0,5,-48,5,-109V-257l103,-18v-50Z" 
id="f0_2c"
transform="scale(0.001,-0.001)" />

<path d="M41,0V49l91,18V634L41,652v49H336l8,-145c0,0,80,89,144,128c0,0,64,40,117,40h40V468H604l-45,94c0,0,-47,0,-106,-21c0,0,-60,-20,-105,-48V67L460,49V0Z" 
id="f0_2e"
transform="scale(0.001,-0.001)" />

<path d="M327,-14c0,0,-101,0,-156,45c0,0,-55,45,-55,131V624H25v48l108,29l87,159H332V701H480V624H332V176c0,0,0,-49,20,-73c0,0,20,-25,53,-25c0,0,40,0,97,12V26c0,0,-22,-15,-76,-27c0,0,-55,-13,-99,-13Z" 
id="f0_2g"
transform="scale(0.001,-0.001)" />

<path d="M345,75c0,0,50,0,110,26V351l-63,-2c0,0,-72,-3,-100,-38c0,0,-28,-35,-28,-113c0,0,0,-63,22,-93c0,0,23,-30,59,-30ZM266,-14c0,0,-217,0,-217,208c0,0,0,79,32,126c0,0,32,48,93,71c0,0,60,22,190,25l91,2V521c0,0,0,126,-104,126c0,0,-62,0,-140,-39L183,521H134V691c0,0,112,17,165,21c0,0,53,5,108,5c0,0,264,0,264,-194V67L741,49V0H483L466,54C466,54,408,14,361,0c0,0,-47,-14,-95,-14Z" 
id="f0_1x"
transform="scale(0.001,-0.001)" />

<path d="M434,423c0,0,0,101,-7,142c0,0,-6,40,-22,60c0,0,-16,19,-45,19c0,0,-44,0,-66,-48c0,0,-22,-49,-22,-173ZM389,-14c0,0,-172,0,-254,89c0,0,-83,90,-83,279c0,0,0,184,79,274c0,0,79,91,238,91c0,0,142,0,206,-76c0,0,64,-76,64,-237V345H271V333c0,0,0,-111,18,-158c0,0,18,-47,58,-72c0,0,40,-25,110,-25c0,0,66,0,166,22V42C623,42,582,18,517,1c0,0,-66,-15,-128,-15Z" 
id="f0_21"
transform="scale(0.001,-0.001)" />

<path d="M273,157c0,0,-114,0,-193,80C80,237,0,317,0,431c0,0,0,112,80,192c0,0,79,80,193,80c0,0,113,0,192,-80c0,0,80,-80,80,-192c0,0,0,-114,-80,-194c0,0,-79,-80,-192,-80Z" 
id="f1_3d"
transform="scale(0.001,-0.001)" />

<path d="M235,0V40L394,60V936H356c0,0,-189,0,-258,-15L78,766H28v234H908V766H857L837,921c0,0,-22,5,-98,9c0,0,-75,4,-165,4H538V60L697,40V0Z" 
id="f2_1k"
transform="scale(0.001,-0.001)" />

<path d="M442,0V33l93,19V504c0,0,0,129,-124,129c0,0,-70,0,-168,-22V52L338,33V0H31V33l88,19v956L15,1026v34H243V756c0,0,0,-77,-5,-112c0,0,54,31,122,53c0,0,68,23,115,23c0,0,91,0,137,-53c0,0,47,-53,47,-154V52L744,33V0Z" 
id="f2_24"
transform="scale(0.001,-0.001)" />

<path d="M495,413c0,0,0,133,-34,190c0,0,-34,57,-105,57c0,0,-78,0,-119,-63c0,0,-42,-62,-42,-184ZM374,-14c0,0,-163,0,-239,87c0,0,-75,88,-75,283c0,0,0,183,77,273c0,0,76,91,219,91c0,0,269,0,269,-306V353H194V340c0,0,0,-103,23,-160c0,0,22,-57,70,-87c0,0,47,-29,124,-29c0,0,40,0,96,6c0,0,55,7,91,15V43C598,43,562,20,500,3c0,0,-61,-17,-126,-17Z" 
id="f2_21"
transform="scale(0.001,-0.001)" />

<path d="M148,-329c0,0,-58,0,-114,13v151H69l24,-71c0,0,23,-17,64,-17c0,0,39,0,72,22c0,0,33,23,60,67c0,0,27,44,68,157L90,649L19,668v33H344V668L233,648L423,158L606,649L497,668v33H758V668L685,652L411,-43c0,0,-48,-124,-84,-177c0,0,-36,-54,-79,-82c0,0,-44,-27,-100,-27Z" 
id="f2_2l"
transform="scale(0.001,-0.001)" />

<path d="M284,67c0,0,51,0,88,12c0,0,37,12,74,30V358l-98,-3c0,0,-100,-4,-135,-39c0,0,-35,-35,-35,-117c0,0,0,-132,106,-132ZM233,-14c0,0,-179,0,-179,208c0,0,0,70,27,116c0,0,27,46,87,70c0,0,60,24,173,27l105,3V519c0,0,0,72,-26,107c0,0,-27,34,-82,34c0,0,-75,0,-137,-35L176,538H134V691c0,0,121,26,213,26c0,0,115,0,169,-47c0,0,54,-47,54,-144V52L657,33V0H465L451,70c0,0,-85,-84,-218,-84Z" 
id="f2_1x"
transform="scale(0.001,-0.001)" />

<path d="M31,0V33l88,19V649L31,668v33H235l7,-87c0,0,44,37,121,71c0,0,76,35,121,35h11V530H463l-43,82c0,0,-37,0,-88,-10c0,0,-52,-10,-89,-26V52L363,33V0Z" 
id="f2_2e"
transform="scale(0.001,-0.001)" />

<path d="M64,0V34L168,59V639H47v36l121,29v49c0,0,0,155,61,239c0,0,62,84,173,84c0,0,58,0,107,-15V908H472l-33,92c0,0,-26,16,-62,16c0,0,-47,0,-66,-42c0,0,-19,-42,-19,-157V701H478V639H292V59L443,34V0Z" 
id="f2_22"
transform="scale(0.001,-0.001)" />

<path d="M377,45c0,0,99,0,147,73c0,0,47,73,47,237c0,0,0,161,-47,233c0,0,-47,72,-147,72c0,0,-97,0,-141,-69c0,0,-44,-69,-44,-236c0,0,0,-169,45,-240c0,0,44,-70,140,-70Zm0,-59c0,0,-158,0,-238,94c0,0,-81,95,-81,274c0,0,0,178,81,272c0,0,80,94,244,94c0,0,160,0,241,-92c0,0,82,-92,82,-274c0,0,0,-368,-329,-368Z" 
id="f2_2b"
transform="scale(0.001,-0.001)" />

<path d="M383,64c0,0,85,0,152,28V645c0,0,-67,13,-152,13c0,0,-194,0,-194,-314c0,0,0,-141,48,-211c0,0,48,-69,146,-69ZM342,-14c0,0,-287,0,-287,358c0,0,0,184,82,280c0,0,81,96,239,96c0,0,81,0,163,-18c0,0,-4,25,-4,124v182l-118,18v34H659V52L745,33V0H548l-9,52c0,0,-84,-66,-197,-66Z" 
id="f2_20"
transform="scale(0.001,-0.001)" />

<path d="M376,50c0,0,103,0,149,80c0,0,46,81,46,240c0,0,0,137,-47,204c0,0,-48,67,-148,67c0,0,-44,0,-87,-7c0,0,-44,-8,-63,-17V62c0,0,63,-12,150,-12Zm3,-64c0,0,-64,0,-141,14c0,0,-78,14,-136,37v971L0,1026v34H226V809c0,0,0,-40,-4,-148c0,0,74,59,188,59c0,0,143,0,219,-87c0,0,77,-87,77,-263c0,0,0,-189,-84,-287c0,0,-84,-97,-243,-97Z" 
id="f2_1y"
transform="scale(0.001,-0.001)" />

<path d="M399,-14c0,0,-341,0,-341,370c0,0,0,175,87,269c0,0,87,95,249,95c0,0,101,0,220,-23V501H573L541,625c0,0,-62,35,-149,35c0,0,-200,0,-200,-304c0,0,0,-158,61,-225c0,0,61,-67,189,-67c0,0,109,0,189,24V43C631,43,595,16,530,1c0,0,-64,-15,-131,-15Z" 
id="f2_1z"
transform="scale(0.001,-0.001)" />

<path d="M289,-14c0,0,-179,0,-179,205V649L20,668v33H233V200c0,0,0,-128,120,-128c0,0,92,0,173,23V649L420,668v33H649V52L738,33V0H533l-6,57C527,57,474,28,405,7c0,0,-69,-21,-116,-21Z" 
id="f2_2h"
transform="scale(0.001,-0.001)" />

<path d="M278,-14c0,0,-52,0,-115,11c0,0,-63,10,-99,23V193H98L134,95c0,0,56,-50,146,-50c0,0,144,0,144,123c0,0,0,91,-114,130l-66,21c0,0,-75,25,-110,50c0,0,-34,26,-53,63c0,0,-18,36,-18,89c0,0,0,92,63,145c0,0,63,54,170,54c0,0,77,0,193,-23V544H454l-32,81c0,0,-39,35,-124,35c0,0,-61,0,-92,-30c0,0,-32,-30,-32,-80c0,0,0,-43,29,-72c0,0,28,-29,86,-48c0,0,110,-38,144,-55c0,0,33,-17,57,-42c0,0,23,-25,36,-57c0,0,13,-32,13,-79c0,0,0,-104,-66,-158c0,0,-66,-53,-195,-53Z" 
id="f2_2f"
transform="scale(0.001,-0.001)" />

<path d="M439,0V33l93,19V500c0,0,0,62,-30,97c0,0,-31,36,-94,36c0,0,-67,0,-165,-22V52L338,33V0H35V33l84,19V649L35,668v33H235l7,-57c0,0,57,33,122,54c0,0,65,22,108,22c0,0,91,0,137,-53c0,0,47,-53,47,-154V52L741,33V0Z" 
id="f2_2a"
transform="scale(0.001,-0.001)" />

<path d="M32,0V33L151,52V649L52,668v33H275V52L395,33V0ZM201,850c0,0,-32,0,-56,24c0,0,-24,24,-24,56c0,0,0,34,24,58c0,0,24,24,56,24c0,0,34,0,58,-24c0,0,24,-24,24,-58c0,0,0,-32,-24,-56c0,0,-24,-24,-58,-24Z" 
id="f2_25"
transform="scale(0.001,-0.001)" />

<path d="M431,0V33L535,52V499c0,0,0,62,-32,96c0,0,-32,33,-95,33c0,0,-66,0,-163,-22V52L350,33V0H32V33l89,19V649L32,668v33H237l6,-57c0,0,56,32,119,54c0,0,62,22,110,22c0,0,52,0,95,-20c0,0,44,-19,66,-62c0,0,57,32,134,57c0,0,77,25,128,25c0,0,179,0,179,-207V52l90,-19V0H846V33L950,52V499c0,0,0,129,-119,129c0,0,-19,0,-45,-3c0,0,-26,-3,-52,-7c0,0,-25,-4,-49,-8c0,0,-23,-5,-39,-8c0,0,13,-41,13,-89V52L764,33V0Z" 
id="f2_29"
transform="scale(0.001,-0.001)" />

<path d="M31,0V33L150,52v956L31,1026v34H274V52L394,33V0Z" 
id="f2_28"
transform="scale(0.001,-0.001)" />

<path d="M191,-20c0,0,-39,0,-65,25c0,0,-25,27,-25,64c0,0,0,38,26,64c0,0,26,26,64,26c0,0,38,0,64,-26c0,0,26,-26,26,-64c0,0,0,-37,-25,-64c0,0,-26,-25,-65,-25Z" 
id="f2_i"
transform="scale(0.001,-0.001)" />

<path d="M410,-14c0,0,-80,0,-162,14c0,0,-81,14,-144,38V270h48L178,134c0,0,28,-35,95,-62c0,0,68,-27,134,-27c0,0,104,0,163,53c0,0,58,54,58,148c0,0,0,54,-23,89c0,0,-22,35,-59,59c0,0,-37,24,-84,41c0,0,-47,17,-97,34c0,0,-49,17,-96,38c0,0,-47,21,-84,53c0,0,-37,32,-60,79c0,0,-23,48,-23,117c0,0,0,119,90,187c0,0,89,68,248,68c0,0,121,0,263,-32V771H654L628,893c0,0,-76,55,-188,55c0,0,-100,0,-156,-40c0,0,-56,-41,-56,-112c0,0,0,-49,22,-81c0,0,23,-32,60,-55c0,0,37,-22,84,-39c0,0,48,-16,97,-34c0,0,50,-17,97,-39c0,0,48,-22,85,-56c0,0,36,-34,59,-83c0,0,23,-49,23,-120c0,0,0,-145,-89,-224c0,0,-89,-79,-256,-79Z" 
id="f2_1j"
transform="scale(0.001,-0.001)" />

<path d="M382,45c0,0,188,0,188,314c0,0,0,143,-47,213c0,0,-46,69,-141,69c0,0,-87,0,-146,-24V58c0,0,67,-13,146,-13ZM25,-325v35l88,18V649L34,668v33H231l1,-41c0,0,31,27,84,43c0,0,53,17,107,17c0,0,134,0,208,-94c0,0,73,-93,73,-267c0,0,0,-178,-80,-276c0,0,-80,-97,-232,-97c0,0,-84,0,-160,16c0,0,4,-53,4,-84V-272l123,-18v-35Z" 
id="f2_2c"
transform="scale(0.001,-0.001)" />

<path d="M359,-270c0,0,124,0,192,46c0,0,67,47,67,129c0,0,0,43,-26,67c0,0,-26,24,-79,24H242c0,0,-32,-27,-51,-69c0,0,-20,-41,-20,-77c0,0,0,-64,46,-92c0,0,46,-28,142,-28Zm11,561c0,0,81,0,115,47c0,0,34,47,34,141c0,0,0,100,-35,142c0,0,-35,42,-113,42c0,0,-78,0,-114,-43c0,0,-37,-42,-37,-141c0,0,0,-98,36,-143c0,0,36,-45,114,-45ZM359,-329c0,0,-143,0,-218,44c0,0,-75,43,-75,125c0,0,0,39,27,78c0,0,26,38,98,89c0,0,-43,14,-72,48c0,0,-29,35,-29,74L208,262c0,0,-118,55,-118,217c0,0,0,115,73,178c0,0,73,63,211,63c0,0,28,0,71,-6c0,0,44,-6,67,-13l165,83l26,-32L599,644c0,0,50,-56,50,-165c0,0,0,-120,-72,-182c0,0,-73,-62,-208,-62c0,0,-62,0,-114,11L208,148c0,0,2,-13,29,-24c0,0,27,-12,67,-12H512c0,0,113,0,168,-49c0,0,55,-49,55,-134c0,0,0,-79,-44,-137c0,0,-43,-58,-128,-90c0,0,-84,-31,-204,-31Z" 
id="f2_23"
transform="scale(0.001,-0.001)" />

<path d="M460,-325c0,0,-148,79,-231,172c0,0,-84,93,-123,217c0,0,-39,126,-39,304c0,0,0,178,39,303c0,0,39,125,122,217c0,0,82,93,232,172V997c0,0,-91,-52,-145,-134c0,0,-54,-81,-79,-190c0,0,-25,-109,-25,-305c0,0,0,-194,26,-309c0,0,26,-114,82,-193c0,0,56,-79,141,-128v-63Z" 
id="f2_c"
transform="scale(0.001,-0.001)" />

<path d="M617,0L251,860V60L385,40V0H44V40L172,60V941L44,960v40H347L672,239l355,761h287V960L1185,941V60L1314,40V0H908V40l134,20V859L643,0Z" 
id="f2_1d"
transform="scale(0.001,-0.001)" />

<path d="M49,-325v63c0,0,85,49,140,128c0,0,56,79,83,194c0,0,26,115,26,308c0,0,0,196,-25,305c0,0,-25,109,-79,190c0,0,-54,82,-145,134v63c0,0,149,-80,232,-172c0,0,83,-92,122,-217c0,0,39,-125,39,-303c0,0,0,-177,-39,-303c0,0,-39,-125,-122,-217c0,0,-83,-93,-232,-173Z" 
id="f2_d"
transform="scale(0.001,-0.001)" />

<path d="M57,302V417H454V302Z" 
id="f2_h"
transform="scale(0.001,-0.001)" />

<path d="M249,-14c0,0,-71,0,-107,42c0,0,-35,42,-35,119V639H15v33l93,29l76,159h47V701H391V639H231V161c0,0,0,-48,22,-73c0,0,22,-24,57,-24c0,0,44,0,106,12V26C416,26,389,8,340,-2c0,0,-49,-12,-91,-12Z" 
id="f2_2g"
transform="scale(0.001,-0.001)" />

<path d="M55,0V40L184,60V941L55,960v40H455V960L327,941V60L455,40V0Z" 
id="f2_19"
transform="scale(0.001,-0.001)" />

<path d="M360,-14L72,649L0,668v33H327V668L216,648L420,164L615,649L504,668v33H764V668L697,652L416,-14Z" 
id="f2_2i"
transform="scale(0.001,-0.001)" />

<path d="M327,-14L84,649L1,668v33H335V668L219,648L385,174L554,632h63L786,171L944,649L830,668v33h267V668l-78,-16L784,-14H726L553,448L382,-14Z" 
id="f2_2j"
transform="scale(0.001,-0.001)" />

<path d="M394,460c0,0,126,0,186,57c0,0,60,57,60,187c0,0,0,123,-57,176c0,0,-58,53,-194,53H316V460ZM54,0V40L172,60V941L44,960v40H421c0,0,368,0,368,-295c0,0,0,-153,-93,-233c0,0,-93,-80,-267,-80H316V60L475,40V0Z" 
id="f2_1g"
transform="scale(0.001,-0.001)" />

<path d="M681,416L504,902L333,416ZM669,0V40L803,60L704,348H310L210,60L344,40V0H15V40L128,60l341,949H611L965,60L1092,40V0Z" 
id="f2_11"
transform="scale(0.001,-0.001)" />

<path d="M41,0V34L426,641H261c0,0,-42,0,-80,-7c0,0,-39,-7,-54,-19L104,515H69V701H586V665L201,60H407c0,0,42,0,89,10c0,0,47,10,66,25l39,147h35L617,0Z" 
id="f2_2m"
transform="scale(0.001,-0.001)" />

<path d="M477,0V33l64,19L348,354L257,254V52L331,33V0H44V33l89,19v956L29,1026v34H257V338L544,647l-73,20v34H718V667L631,650L431,446L688,50L764,33V0Z" 
id="f2_27"
transform="scale(0.001,-0.001)" />

<path d="M342,-14c0,0,-138,0,-276,29L57,258h69L165,96c0,0,65,-36,136,-36c0,0,90,0,141,58c0,0,50,57,50,161c0,0,0,91,-40,139c0,0,-41,48,-132,54l-87,5v90l84,6c0,0,66,5,98,49c0,0,32,44,32,134c0,0,0,83,-38,131c0,0,-38,48,-107,48c0,0,-40,0,-66,-13c0,0,-26,-12,-49,-26L155,751H90V979c0,0,76,19,132,26c0,0,55,6,108,6c0,0,337,0,337,-246c0,0,0,-102,-54,-164c0,0,-54,-63,-153,-78c0,0,252,-30,252,-251c0,0,0,-136,-98,-211c0,0,-98,-75,-272,-75Z" 
id="f0_n"
transform="scale(0.001,-0.001)" />

<path d="M191,-20c0,0,-51,0,-88,34c0,0,-36,36,-36,88c0,0,0,52,36,88c0,0,36,36,88,36c0,0,51,0,88,-36c0,0,36,-36,36,-88c0,0,0,-51,-36,-87c0,0,-36,-35,-88,-35Z" 
id="f0_i"
transform="scale(0.001,-0.001)" />

<path d="M452,474c0,0,104,0,151,52c0,0,47,53,47,178c0,0,0,119,-45,167c0,0,-44,47,-156,47H390V474ZM36,0V54L154,74V926L26,945v55H467c0,0,213,0,318,-71c0,0,105,-71,105,-224c0,0,0,-313,-366,-313H390V74L557,54V0Z" 
id="f0_1g"
transform="scale(0.001,-0.001)" />

<path d="M231,0V54L390,74V921H352c0,0,-171,0,-240,-15L92,721H24v279H996V721H927L907,906c0,0,-62,14,-245,14H626V74L785,54V0Z" 
id="f0_1k"
transform="scale(0.001,-0.001)" />

<path d="M498,506c0,0,115,0,164,47c0,0,48,48,48,166c0,0,0,112,-46,156c0,0,-46,43,-169,43H390V506ZM793,0L514,423H390V74L518,54V0H36V54L154,74V926L26,945v55H504c0,0,221,0,330,-68c0,0,109,-68,109,-212c0,0,0,-215,-201,-276L1009,74L1117,54V0Z" 
id="f0_1i"
transform="scale(0.001,-0.001)" />

<path d="M519,79c0,0,97,0,153,42c0,0,57,42,83,131c0,0,26,89,26,248c0,0,0,216,-79,317c0,0,-79,101,-257,101H389V85c0,0,72,-6,130,-6ZM533,-2L198,0H27V54L155,74V926L27,945v55H502c0,0,269,0,398,-122c0,0,129,-122,129,-372c0,0,0,-258,-123,-383C906,123,783,-2,533,-2Z" 
id="f0_14"
transform="scale(0.001,-0.001)" />

<path d="M595,60c0,0,141,0,206,102c0,0,65,102,65,340c0,0,0,236,-65,335c0,0,-65,100,-206,100c0,0,-142,0,-207,-100c0,0,-66,-99,-66,-335c0,0,0,-239,66,-340c0,0,65,-102,207,-102Zm0,-74c0,0,-253,0,-387,130C208,116,75,246,75,501c0,0,0,510,520,510c0,0,256,0,387,-129c0,0,132,-130,132,-381c0,0,0,-254,-133,-385C981,116,848,-14,595,-14Z" 
id="f0_1f"
transform="scale(0.001,-0.001)" />

<path d="M26,0V55L154,74V926L26,946v54H518V946L389,926V555H798V926L670,946v54h493V946L1034,926V74L1163,55V0H670V55L798,74V473H389V74L518,55V0Z" 
id="f0_18"
transform="scale(0.001,-0.001)" />

<path d="M285,0V54L444,74V389L140,926L27,945v55H542V945L407,926L636,507L856,926L734,945v55h340V945L968,926L680,394V74L838,54V0Z" 
id="f0_1p"
transform="scale(0.001,-0.001)" />

<path d="M410,-14c0,0,-86,0,-175,14C235,0,145,14,81,38V307h66L181,146c0,0,31,-37,94,-62c0,0,64,-24,132,-24c0,0,214,0,214,177c0,0,0,55,-41,93c0,0,-41,38,-128,68c0,0,-128,42,-185,68c0,0,-56,27,-95,63c0,0,-38,36,-62,87c0,0,-23,51,-23,125c0,0,0,132,90,201c0,0,90,69,263,69c0,0,125,0,278,-32V741H651L618,878c0,0,-76,56,-178,56c0,0,-92,0,-141,-34c0,0,-49,-34,-49,-104c0,0,0,-50,41,-86c0,0,41,-35,128,-63c0,0,171,-56,235,-97c0,0,64,-41,97,-103c0,0,34,-61,34,-143c0,0,0,-318,-375,-318Z" 
id="f0_1j"
transform="scale(0.001,-0.001)" />

<path d="M248,-20c0,0,-52,0,-87,34c0,0,-36,36,-36,88c0,0,0,52,36,88c0,0,35,36,87,36c0,0,52,0,88,-36c0,0,36,-36,36,-88c0,0,0,-51,-36,-87c0,0,-35,-35,-88,-35Zm0,488c0,0,-52,0,-87,36c0,0,-36,36,-36,88c0,0,0,52,35,88c0,0,35,36,88,36c0,0,53,0,89,-36c0,0,35,-37,35,-88c0,0,0,-51,-36,-87c0,0,-35,-37,-88,-37Z" 
id="f0_u"
transform="scale(0.001,-0.001)" />

<path d="M54,0V40L172,60V941L44,960v40H794V760H745L721,922c0,0,-83,11,-241,11H316V516H611l23,120h46V328H634L611,449H316V60L483,40V0Z" 
id="f2_16"
transform="scale(0.001,-0.001)" />

<path d="M6,0V49L69,61L292,323L91,634L23,652v49H398V652L319,632L421,475L557,634l-71,18v49H725V652L663,637L466,406L689,65L756,49V0H381V49l79,17L337,254L175,65L245,49V0Z" 
id="f0_2k"
transform="scale(0.001,-0.001)" />

<path d="M159,-329c0,0,-61,0,-123,14v180H81l32,-94c0,0,21,-17,55,-17c0,0,28,0,50,13c0,0,21,14,40,39c0,0,20,25,37,62c0,0,17,37,50,110L64,634L15,652v49H374V652L290,632L455,244L602,634l-82,18v49H749V652L698,637L421,-44c0,0,-47,-121,-83,-176c0,0,-36,-55,-80,-82c0,0,-43,-27,-99,-27Z" 
id="f0_2l"
transform="scale(0.001,-0.001)" />

<path d="M30,0V49l76,18V992l-72,18v50H322V67L398,49V0Z" 
id="f0_28"
transform="scale(0.001,-0.001)" />

<path d="M41,0V49l69,18V992l-72,18v50H325V756c0,0,0,-49,-4,-116l51,26c0,0,106,54,190,54c0,0,194,0,194,-207V67L827,49V0H478V49l63,18V484c0,0,0,63,-27,98c0,0,-26,35,-75,35c0,0,-57,0,-114,-25V67L389,49V0Z" 
id="f0_24"
transform="scale(0.001,-0.001)" />

<path d="M608,-14c0,0,-251,0,-392,133C216,119,75,252,75,488c0,0,0,257,134,390c0,0,135,133,398,133c0,0,174,0,361,-50l4,-240H905L884,866c0,0,-98,67,-229,67c0,0,-173,0,-253,-108c0,0,-80,-108,-80,-334c0,0,0,-209,84,-319c0,0,83,-109,243,-109c0,0,84,0,147,22c0,0,63,22,99,53l24,164h68L982,48C982,48,915,22,808,4C808,4,700,-14,608,-14Z" 
id="f0_13"
transform="scale(0.001,-0.001)" />

<path d="M43,0V49l67,18V992l-72,18v50H325V336L599,635l-75,17v49H791V652L711,636L544,460L785,67L847,50V0H510V50l41,17L411,313L325,253V67L395,49V0Z" 
id="f0_27"
transform="scale(0.001,-0.001)" />

<path d="M305,-14L57,634L4,652v49H351V652L268,632L419,232L581,631h71L814,232L950,634l-82,18v49h227V652l-54,-15L806,-14H715L555,378L395,-14Z" 
id="f0_2j"
transform="scale(0.001,-0.001)" />

<path d="M276,-14c0,0,-57,0,-125,13C151,-1,83,10,48,23V214H97l28,-98c0,0,26,-26,69,-44c0,0,42,-17,86,-17c0,0,65,0,97,28c0,0,32,28,32,71c0,0,0,41,-31,65c0,0,-30,25,-133,57c0,0,-108,34,-154,92c0,0,-45,58,-45,143c0,0,0,95,71,152c0,0,71,57,183,57c0,0,77,0,207,-22V518H457l-24,82c0,0,-21,22,-60,35c0,0,-40,14,-75,14c0,0,-53,0,-79,-22c0,0,-26,-22,-26,-59c0,0,0,-40,32,-65c0,0,32,-26,132,-55c0,0,109,-34,155,-89c0,0,45,-55,45,-137c0,0,0,-117,-72,-177c0,0,-72,-59,-209,-59Z" 
id="f0_2f"
transform="scale(0.001,-0.001)" />

<path d="M424,64c0,0,74,0,109,71c0,0,36,72,36,236c0,0,0,137,-34,201c0,0,-34,65,-111,65c0,0,-29,0,-62,-7c0,0,-34,-6,-55,-19V76c0,0,47,-12,117,-12Zm21,-78c0,0,-121,0,-354,50V994l-72,18v48H307V802c0,0,0,-69,-8,-141c0,0,30,25,86,42c0,0,57,17,110,17c0,0,153,0,223,-84c0,0,70,-83,70,-266c0,0,0,-180,-90,-283C698,87,608,-14,445,-14Z" 
id="f0_1y"
transform="scale(0.001,-0.001)" />

<path d="M58,-234v58c0,0,131,42,131,125c0,0,0,15,-11,27c0,0,-11,12,-38,25C140,1,89,27,89,75c0,0,0,40,25,61c0,0,26,21,65,21c0,0,48,0,77,-34c0,0,30,-34,30,-86c0,0,0,-101,-60,-170c0,0,-59,-69,-168,-101Z" 
id="f2_g"
transform="scale(0.001,-0.001)" />

<path d="M416,68c0,0,60,0,124,32V628c0,0,-58,15,-118,15c0,0,-67,0,-104,-73c0,0,-38,-73,-38,-216c0,0,0,-139,36,-212c0,0,35,-74,100,-74ZM369,-14c0,0,-155,0,-231,88c0,0,-76,90,-76,274c0,0,0,182,82,277c0,0,81,95,236,95c0,0,82,0,165,-20c0,0,-5,24,-5,115V992l-72,18v50H756V67L833,49V0H562L547,40C547,40,505,13,483,4c0,0,-23,-7,-51,-12c0,0,-28,-6,-63,-6Z" 
id="f0_20"
transform="scale(0.001,-0.001)" />

<path d="M360,-256c0,0,108,0,167,35c0,0,59,35,59,98c0,0,0,70,-95,70H254c0,0,-65,-47,-65,-108c0,0,0,-47,46,-71c0,0,45,-24,125,-24Zm9,561c0,0,55,0,79,43c0,0,25,43,25,129c0,0,0,87,-24,127c0,0,-25,41,-80,41c0,0,-52,0,-75,-41c0,0,-24,-40,-24,-127c0,0,0,-86,23,-129c0,0,23,-43,76,-43Zm-9,-641c0,0,-153,0,-236,43c0,0,-84,44,-84,120c0,0,0,33,28,65c0,0,27,31,105,76c0,0,-44,17,-75,59c0,0,-31,43,-31,90L192,258c0,0,-133,56,-133,219c0,0,0,116,81,180c0,0,82,63,233,63c0,0,32,0,82,-6c0,0,51,-6,74,-13l168,83l26,-32L638,631c0,0,46,-57,46,-154c0,0,0,-119,-80,-182c0,0,-80,-64,-234,-64c0,0,-59,0,-114,9L238,183c0,0,1,-22,28,-41c0,0,26,-19,64,-19H493c0,0,256,0,256,-196c0,0,0,-81,-44,-139c0,0,-45,-59,-131,-92c0,0,-86,-32,-214,-32Z" 
id="f0_23"
transform="scale(0.001,-0.001)" />

<path d="M44,0V40L172,60V941L44,960v40H471V960L316,941V65H513c0,0,159,0,234,14l46,208h48L828,0Z" 
id="f2_1c"
transform="scale(0.001,-0.001)" />

<path d="M311,-14c0,0,-94,0,-169,18C142,4,67,23,18,55L57,277h48l1,-143c0,0,25,-37,84,-63c0,0,59,-26,126,-26c0,0,122,0,188,58c0,0,66,58,66,162c0,0,0,40,-18,70c0,0,-18,30,-48,54c0,0,-30,23,-67,44c0,0,-38,20,-77,40c0,0,-40,21,-78,44c0,0,-37,24,-67,55c0,0,-30,31,-48,71c0,0,-18,40,-18,94c0,0,0,133,90,204c0,0,91,70,259,70c0,0,128,0,241,-28L703,774H654l-4,128c0,0,-23,20,-66,33c0,0,-42,13,-98,13c0,0,-99,0,-153,-48c0,0,-53,-48,-53,-136c0,0,0,-47,33,-85c0,0,34,-39,100,-73c0,0,102,-53,146,-80c0,0,45,-28,75,-59c0,0,31,-31,49,-72c0,0,18,-40,18,-92c0,0,0,-154,-100,-236c0,0,-100,-81,-290,-81Z" 
id="f3_1j"
transform="scale(0.001,-0.001)" />

<path d="M188,355c0,0,148,11,236,69c0,0,89,58,89,143c0,0,0,41,-23,68c0,0,-22,27,-66,27c0,0,-52,0,-101,-43c0,0,-49,-42,-85,-114c0,0,-36,-71,-50,-150ZM298,-14c0,0,-120,0,-186,67c0,0,-65,67,-65,193c0,0,0,125,53,232c0,0,52,108,145,175c0,0,94,67,196,67c0,0,92,0,147,-42c0,0,56,-43,56,-111c0,0,0,-102,-126,-173c0,0,-125,-72,-336,-86l-3,-54c0,0,0,-95,40,-143c0,0,40,-47,118,-47c0,0,67,0,124,22c0,0,57,23,106,52l22,-32c0,0,-69,-58,-146,-89c0,0,-76,-31,-145,-31Z" 
id="f3_21"
transform="scale(0.001,-0.001)" />

<path d="M81,0L258,1008l-96,18l6,34H391L214,52L331,33L325,0Z" 
id="f3_28"
transform="scale(0.001,-0.001)" />

<path d="M301,78c0,0,85,0,185,104l81,442c0,0,-29,20,-55,28c0,0,-25,8,-62,8c0,0,-75,0,-137,-56c0,0,-62,-56,-98,-152c0,0,-36,-95,-36,-199c0,0,0,-79,33,-127c0,0,33,-48,89,-48ZM245,-14c0,0,-90,0,-145,66c0,0,-54,66,-54,182c0,0,0,131,57,244c0,0,57,114,152,178c0,0,96,64,208,64c0,0,90,0,170,-33l33,26h40L589,52L673,33L667,0H454l22,117C476,117,350,-14,245,-14Z" 
id="f3_1x"
transform="scale(0.001,-0.001)" />

<path d="M312,78c0,0,42,0,93,28c0,0,51,27,99,76l82,460c0,0,-18,5,-32,9c0,0,-14,3,-28,6c0,0,-14,2,-29,3c0,0,-16,1,-36,1c0,0,-75,0,-139,-56c0,0,-64,-56,-100,-150c0,0,-37,-95,-37,-202c0,0,0,-80,33,-127c0,0,33,-48,94,-48ZM249,-325c0,0,-65,0,-136,16c0,0,-70,15,-112,37l13,170H48l27,-93c0,0,60,-59,173,-59c0,0,91,0,145,47c0,0,54,48,72,152l29,175c0,0,-54,-59,-120,-97c0,0,-66,-37,-119,-37c0,0,-95,0,-149,66c0,0,-55,67,-55,182c0,0,0,131,58,243c0,0,57,112,154,177c0,0,97,66,211,66c0,0,45,0,117,-9c0,0,72,-9,128,-22L594,-25c0,0,-28,-158,-108,-229c0,0,-80,-71,-237,-71Z" 
id="f3_23"
transform="scale(0.001,-0.001)" />

<path d="M85,0L199,649l-96,19l6,33H332L218,52L335,33L329,0ZM297,849c0,0,-33,0,-57,24c0,0,-24,24,-24,57c0,0,0,33,24,57c0,0,24,24,57,24c0,0,33,0,57,-24c0,0,24,-24,24,-57c0,0,0,-33,-24,-57c0,0,-24,-24,-57,-24Z" 
id="f3_25"
transform="scale(0.001,-0.001)" />

<path d="M54,0L169,649L81,668l6,33H294L274,558c0,0,62,81,130,121c0,0,67,41,132,41c0,0,75,0,113,-41c0,0,38,-41,38,-117c0,0,0,-10,-3,-32c0,0,-3,-21,-81,-478L700,34L695,0H470l76,434c0,0,17,94,17,123c0,0,0,34,-18,55c0,0,-18,21,-56,21c0,0,-56,0,-121,-47c0,0,-65,-47,-108,-117L178,0Z" 
id="f3_2a"
transform="scale(0.001,-0.001)" />

<path d="M435,0V856c0,0,-48,-47,-127,-93c0,0,-79,-46,-142,-69V824c0,0,113,52,197,128c0,0,85,75,120,146h86V0Z" 
id="f4_l"
transform="scale(0.001,-0.001)" />


</defs>
</svg>