<?xml version="1.0" encoding="UTF-8" standalone="no"?>
<!DOCTYPE svg PUBLIC "-//W3C//DTD SVG 1.1//EN"
"http://www.w3.org/Graphics/SVG/1.1/DTD/svg11.dtd">
<svg viewBox="0 0 935 1210" version="1.1" xmlns="http://www.w3.org/2000/svg" xmlns:xlink="http://www.w3.org/1999/xlink">
<defs>
</defs>
<g fill="#000000" >
<use xlink:href="#f0_1x" transform="matrix(12,0,0,12,55,72.3)" />
<use xlink:href="#f0_2f" transform="matrix(12,0,0,12,63.1,72.3)" />
<use xlink:href="#f0_2j" transform="matrix(12,0,0,12,74.5,72.3)" />
<use xlink:href="#f0_21" transform="matrix(12,0,0,12,87.7,72.3)" />
<use xlink:href="#f0_28" transform="matrix(12,0,0,12,96.1,72.3)" />
<use xlink:href="#f0_28" transform="matrix(12,0,0,12,100.9,72.3)" />
<use xlink:href="#f0_1x" transform="matrix(12,0,0,12,110,72.3)" />
<use xlink:href="#f0_2f" transform="matrix(12,0,0,12,118.1,72.3)" />
<use xlink:href="#f0_2c" transform="matrix(12,0,0,12,129.4,72.3)" />
<use xlink:href="#f0_1x" transform="matrix(12,0,0,12,138.6,72.3)" />
<use xlink:href="#f0_2e" transform="matrix(12,0,0,12,146.7,72.3)" />
<use xlink:href="#f0_1x" transform="matrix(12,0,0,12,152.9,72.3)" />
<use xlink:href="#f0_2f" transform="matrix(12,0,0,12,160.9,72.3)" />
<use xlink:href="#f0_25" transform="matrix(12,0,0,12,168.3,72.3)" />
<use xlink:href="#f0_2g" transform="matrix(12,0,0,12,172.7,72.3)" />
<use xlink:href="#f0_21" transform="matrix(12,0,0,12,178.1,72.3)" />
<use xlink:href="#f0_2f" transform="matrix(12,0,0,12,186.2,72.3)" />
<use xlink:href="#f0_i" transform="matrix(12,0,0,12,193.2,72.3)" />
<use xlink:href="#f0_1k" transform="matrix(12,0,0,12,202.3,72.3)" />
<use xlink:href="#f0_24" transform="matrix(12,0,0,12,213.7,72.3)" />
<use xlink:href="#f0_21" transform="matrix(12,0,0,12,222.5,72.3)" />
<use xlink:href="#f0_2l" transform="matrix(12,0,0,12,230.9,72.3)" />
<use xlink:href="#f0_20" transform="matrix(12,0,0,12,243.7,72.3)" />
<use xlink:href="#f0_2b" transform="matrix(12,0,0,12,252.9,72.3)" />
<use xlink:href="#f0_24" transform="matrix(12,0,0,12,266.8,72.3)" />
<use xlink:href="#f0_1x" transform="matrix(12,0,0,12,275.6,72.3)" />
<use xlink:href="#f0_2i" transform="matrix(12,0,0,12,284,72.3)" />
<use xlink:href="#f0_21" transform="matrix(12,0,0,12,292.8,72.3)" />
<use xlink:href="#f0_1z" transform="matrix(12,0,0,12,305.3,72.3)" />
<use xlink:href="#f0_21" transform="matrix(12,0,0,12,313.4,72.3)" />
<use xlink:href="#f0_28" transform="matrix(12,0,0,12,321.8,72.3)" />
<use xlink:href="#f0_28" transform="matrix(12,0,0,12,326.9,72.3)" />
<use xlink:href="#f0_2j" transform="matrix(12,0,0,12,335.7,72.3)" />
<use xlink:href="#f0_1x" transform="matrix(12,0,0,12,348.9,72.3)" />
<use xlink:href="#f0_28" transform="matrix(12,0,0,12,357.3,72.3)" />
<use xlink:href="#f0_28" transform="matrix(12,0,0,12,362.4,72.3)" />
<use xlink:href="#f0_i" transform="matrix(12,0,0,12,367.2,72.3)" />
<use xlink:href="#f0_1k" transform="matrix(12,0,0,12,376.4,72.3)" />
<use xlink:href="#f0_24" transform="matrix(12,0,0,12,387.7,72.3)" />
<use xlink:href="#f0_21" transform="matrix(12,0,0,12,396.5,72.3)" />
<use xlink:href="#f0_2e" transform="matrix(12,0,0,12,404.6,72.3)" />
<use xlink:href="#f0_21" transform="matrix(12,0,0,12,410.8,72.3)" />
<use xlink:href="#f0_2e" transform="matrix(12,0,0,12,423.3,72.3)" />
<use xlink:href="#f0_21" transform="matrix(12,0,0,12,429.5,72.3)" />
<use xlink:href="#f0_2f" transform="matrix(12,0,0,12,437.5,72.3)" />
<use xlink:href="#f0_2c" transform="matrix(12,0,0,12,444.5,72.3)" />
<use xlink:href="#f0_25" transform="matrix(12,0,0,12,454,72.3)" />
<use xlink:href="#f0_2e" transform="matrix(12,0,0,12,458.4,72.3)" />
<use xlink:href="#f0_1x" transform="matrix(12,0,0,12,464.6,72.3)" />
<use xlink:href="#f0_2g" transform="matrix(12,0,0,12,472.7,72.3)" />
<use xlink:href="#f0_25" transform="matrix(12,0,0,12,478.6,72.3)" />
<use xlink:href="#f0_2b" transform="matrix(12,0,0,12,483.4,72.3)" />
<use xlink:href="#f0_2a" transform="matrix(12,0,0,12,493,72.3)" />
<use xlink:href="#f0_1z" transform="matrix(12,0,0,12,506.2,72.3)" />
<use xlink:href="#f0_1x" transform="matrix(12,0,0,12,514.2,72.3)" />
<use xlink:href="#f0_2a" transform="matrix(12,0,0,12,522.6,72.3)" />
<use xlink:href="#f0_1y" transform="matrix(12,0,0,12,535.8,72.3)" />
<use xlink:href="#f0_21" transform="matrix(12,0,0,12,544.6,72.3)" />
<use xlink:href="#f0_1x" transform="matrix(12,0,0,12,557.1,72.3)" />
<use xlink:href="#f0_21" transform="matrix(12,0,0,12,565.2,72.3)" />
<use xlink:href="#f0_2e" transform="matrix(12,0,0,12,573.2,72.3)" />
<use xlink:href="#f0_2b" transform="matrix(12,0,0,12,579.5,72.3)" />
<use xlink:href="#f0_1y" transform="matrix(12,0,0,12,589,72.3)" />
<use xlink:href="#f0_25" transform="matrix(12,0,0,12,598.1,72.3)" />
<use xlink:href="#f0_1z" transform="matrix(12,0,0,12,602.9,72.3)" />
<use xlink:href="#f0_1x" transform="matrix(12,0,0,12,615.4,72.3)" />
<use xlink:href="#f0_2f" transform="matrix(12,0,0,12,623.4,72.3)" />
<use xlink:href="#f0_2j" transform="matrix(12,0,0,12,634.8,72.3)" />
<use xlink:href="#f0_21" transform="matrix(12,0,0,12,648,72.3)" />
<use xlink:href="#f0_28" transform="matrix(12,0,0,12,656.4,72.3)" />
<use xlink:href="#f0_28" transform="matrix(12,0,0,12,661.2,72.3)" />
<use xlink:href="#f0_1x" transform="matrix(12,0,0,12,670.4,72.3)" />
<use xlink:href="#f0_2f" transform="matrix(12,0,0,12,678.4,72.3)" />
<use xlink:href="#f0_1x" transform="matrix(12,0,0,12,689.8,72.3)" />
<use xlink:href="#f0_2a" transform="matrix(12,0,0,12,698.2,72.3)" />
<use xlink:href="#f0_1x" transform="matrix(12,0,0,12,707,72.3)" />
<use xlink:href="#f0_21" transform="matrix(12,0,0,12,715.1,72.3)" />
<use xlink:href="#f0_2e" transform="matrix(12,0,0,12,723.1,72.3)" />
<use xlink:href="#f0_2b" transform="matrix(12,0,0,12,729.4,72.3)" />
<use xlink:href="#f0_1y" transform="matrix(12,0,0,12,738.9,72.3)" />
<use xlink:href="#f0_25" transform="matrix(12,0,0,12,748,72.3)" />
<use xlink:href="#f0_1z" transform="matrix(12,0,0,12,752.8,72.3)" />
<use xlink:href="#f0_i" transform="matrix(12,0,0,12,760.9,72.3)" />
<use xlink:href="#f0_1k" transform="matrix(12,0,0,12,770,72.3)" />
<use xlink:href="#f0_24" transform="matrix(12,0,0,12,781.4,72.3)" />
<use xlink:href="#f0_21" transform="matrix(12,0,0,12,790.2,72.3)" />
<use xlink:href="#f0_29" transform="matrix(12,0,0,12,802.6,72.3)" />
<use xlink:href="#f0_2b" transform="matrix(12,0,0,12,816.2,72.3)" />
<use xlink:href="#f0_2i" transform="matrix(12,0,0,12,826.1,72.3)" />
<use xlink:href="#f0_21" transform="matrix(12,0,0,12,834.9,72.3)" />
<use xlink:href="#f0_29" transform="matrix(12,0,0,12,843.3,72.3)" />
<use xlink:href="#f0_21" transform="matrix(12,0,0,12,857.2,72.3)" />
<use xlink:href="#f0_2a" transform="matrix(12,0,0,12,865.6,72.3)" />
<use xlink:href="#f0_2g" transform="matrix(12,0,0,12,874.4,72.3)" />
<use xlink:href="#f0_2b" transform="matrix(12,0,0,12,55,103.8)" />
<use xlink:href="#f0_1z" transform="matrix(12,0,0,12,64.6,103.8)" />
<use xlink:href="#f0_1z" transform="matrix(12,0,0,12,72.6,103.8)" />
<use xlink:href="#f0_2h" transform="matrix(12,0,0,12,80.7,103.8)" />
<use xlink:href="#f0_2e" transform="matrix(12,0,0,12,89.9,103.8)" />
<use xlink:href="#f0_2f" transform="matrix(12,0,0,12,96.1,103.8)" />
<use xlink:href="#f0_2g" transform="matrix(12,0,0,12,107.4,103.8)" />
<use xlink:href="#f0_24" transform="matrix(12,0,0,12,112.9,103.8)" />
<use xlink:href="#f0_2e" transform="matrix(12,0,0,12,121.7,103.8)" />
<use xlink:href="#f0_2b" transform="matrix(12,0,0,12,127.9,103.8)" />
<use xlink:href="#f0_2h" transform="matrix(12,0,0,12,137.1,103.8)" />
<use xlink:href="#f0_23" transform="matrix(12,0,0,12,146.3,103.8)" />
<use xlink:href="#f0_24" transform="matrix(12,0,0,12,155.4,103.8)" />
<use xlink:href="#f0_22" transform="matrix(12,0,0,12,169.3,103.8)" />
<use xlink:href="#f0_28" transform="matrix(12,0,0,12,175.2,103.8)" />
<use xlink:href="#f0_1x" transform="matrix(12,0,0,12,180,103.8)" />
<use xlink:href="#f0_23" transform="matrix(12,0,0,12,188,103.8)" />
<use xlink:href="#f0_21" transform="matrix(12,0,0,12,197.2,103.8)" />
<use xlink:href="#f0_28" transform="matrix(12,0,0,12,205.6,103.8)" />
<use xlink:href="#f0_28" transform="matrix(12,0,0,12,210.7,103.8)" />
<use xlink:href="#f0_1x" transform="matrix(12,0,0,12,215.5,103.8)" />
<use xlink:href="#f0_i" transform="matrix(12,0,0,12,223.6,103.8)" />
<use xlink:href="#f0_15" transform="matrix(12,0,0,12,233.1,103.8)" />
<use xlink:href="#f0_2k" transform="matrix(12,0,0,12,244.4,103.8)" />
<use xlink:href="#f0_1z" transform="matrix(12,0,0,12,253.2,103.8)" />
<use xlink:href="#f0_24" transform="matrix(12,0,0,12,261.7,103.8)" />
<use xlink:href="#f0_1x" transform="matrix(12,0,0,12,270.5,103.8)" />
<use xlink:href="#f0_2a" transform="matrix(12,0,0,12,278.9,103.8)" />
<use xlink:href="#f0_23" transform="matrix(12,0,0,12,287.7,103.8)" />
<use xlink:href="#f0_21" transform="matrix(12,0,0,12,296.8,103.8)" />
<use xlink:href="#f0_2b" transform="matrix(12,0,0,12,309.6,103.8)" />
<use xlink:href="#f0_22" transform="matrix(12,0,0,12,319.2,103.8)" />
<use xlink:href="#f0_2a" transform="matrix(12,0,0,12,329.8,103.8)" />
<use xlink:href="#f0_2h" transform="matrix(12,0,0,12,338.6,103.8)" />
<use xlink:href="#f0_2g" transform="matrix(12,0,0,12,347.7,103.8)" />
<use xlink:href="#f0_2e" transform="matrix(12,0,0,12,353.2,103.8)" />
<use xlink:href="#f0_25" transform="matrix(12,0,0,12,359.4,103.8)" />
<use xlink:href="#f0_21" transform="matrix(12,0,0,12,363.8,103.8)" />
<use xlink:href="#f0_2a" transform="matrix(12,0,0,12,372.3,103.8)" />
<use xlink:href="#f0_2g" transform="matrix(12,0,0,12,381.1,103.8)" />
<use xlink:href="#f0_2f" transform="matrix(12,0,0,12,386.5,103.8)" />
<use xlink:href="#f0_2b" transform="matrix(12,0,0,12,398.3,103.8)" />
<use xlink:href="#f0_2e" transform="matrix(12,0,0,12,407.8,103.8)" />
<use xlink:href="#f0_23" transform="matrix(12,0,0,12,418.4,103.8)" />
<use xlink:href="#f0_1x" transform="matrix(12,0,0,12,427.2,103.8)" />
<use xlink:href="#f0_2f" transform="matrix(12,0,0,12,435.3,103.8)" />
<use xlink:href="#f0_21" transform="matrix(12,0,0,12,442.2,103.8)" />
<use xlink:href="#f0_2f" transform="matrix(12,0,0,12,450.3,103.8)" />
<use xlink:href="#f0_2b" transform="matrix(12,0,0,12,462,103.8)" />
<use xlink:href="#f0_1z" transform="matrix(12,0,0,12,471.5,103.8)" />
<use xlink:href="#f0_1z" transform="matrix(12,0,0,12,479.6,103.8)" />
<use xlink:href="#f0_2h" transform="matrix(12,0,0,12,487.6,103.8)" />
<use xlink:href="#f0_2e" transform="matrix(12,0,0,12,496.8,103.8)" />
<use xlink:href="#f0_2f" transform="matrix(12,0,0,12,503,103.8)" />
<use xlink:href="#f0_1y" transform="matrix(12,0,0,12,514.7,103.8)" />
<use xlink:href="#f0_2l" transform="matrix(12,0,0,12,523.9,103.8)" />
<use xlink:href="#f0_20" transform="matrix(12,0,0,12,537.1,103.8)" />
<use xlink:href="#f0_25" transform="matrix(12,0,0,12,546.6,103.8)" />
<use xlink:href="#f0_22" transform="matrix(12,0,0,12,551.7,103.8)" />
<use xlink:href="#f0_22" transform="matrix(12,0,0,12,557.6,103.8)" />
<use xlink:href="#f0_2h" transform="matrix(12,0,0,12,563.5,103.8)" />
<use xlink:href="#f0_2f" transform="matrix(12,0,0,12,573,103.8)" />
<use xlink:href="#f0_25" transform="matrix(12,0,0,12,580.3,103.8)" />
<use xlink:href="#f0_2b" transform="matrix(12,0,0,12,584.7,103.8)" />
<use xlink:href="#f0_2a" transform="matrix(12,0,0,12,594.6,103.8)" />
<use xlink:href="#f0_i" transform="matrix(12,0,0,12,603.4,103.8)" />
<use xlink:href="#f1_16" transform="matrix(12,0,0,12,322.8,418.1)" />
<use xlink:href="#f1_25" transform="matrix(12,0,0,12,333.8,418.1)" />
<use xlink:href="#f1_23" transform="matrix(12,0,0,12,338.9,418.1)" />
<use xlink:href="#f1_i" transform="matrix(12,0,0,12,348,418.1)" />
<use xlink:href="#f1_m" transform="matrix(12,0,0,12,352.8,418.1)" />
<use xlink:href="#f1_i" transform="matrix(12,0,0,12,362.1,418.1)" />
<use xlink:href="#f1_15" transform="matrix(12,0,0,12,371.5,418.1)" />
<use xlink:href="#f1_2k" transform="matrix(12,0,0,12,383.6,418.1)" />
<use xlink:href="#f1_1x" transform="matrix(12,0,0,12,392.4,418.1)" />
<use xlink:href="#f1_29" transform="matrix(12,0,0,12,401.6,418.1)" />
<use xlink:href="#f1_2c" transform="matrix(12,0,0,12,416.6,418.1)" />
<use xlink:href="#f1_28" transform="matrix(12,0,0,12,427.3,418.1)" />
<use xlink:href="#f1_21" transform="matrix(12,0,0,12,432,418.1)" />
<use xlink:href="#f1_2f" transform="matrix(12,0,0,12,440.1,418.1)" />
<use xlink:href="#f1_2b" transform="matrix(12,0,0,12,451.8,418.1)" />
<use xlink:href="#f1_22" transform="matrix(12,0,0,12,461,418.1)" />
<use xlink:href="#f1_1b" transform="matrix(12,0,0,12,471.6,418.1)" />
<use xlink:href="#f1_25" transform="matrix(12,0,0,12,486.2,418.1)" />
<use xlink:href="#f1_2a" transform="matrix(12,0,0,12,491.3,418.1)" />
<use xlink:href="#f1_23" transform="matrix(12,0,0,12,501.6,418.1)" />
<use xlink:href="#f1_20" transform="matrix(12,0,0,12,510.8,418.1)" />
<use xlink:href="#f1_2b" transform="matrix(12,0,0,12,521,418.1)" />
<use xlink:href="#f1_29" transform="matrix(12,0,0,12,530.2,418.1)" />
<use xlink:href="#f1_1d" transform="matrix(12,0,0,12,550,418.1)" />
<use xlink:href="#f1_2b" transform="matrix(12,0,0,12,567.6,418.1)" />
<use xlink:href="#f1_2a" transform="matrix(12,0,0,12,576.4,418.1)" />
<use xlink:href="#f1_21" transform="matrix(12,0,0,12,586.6,418.1)" />
<use xlink:href="#f1_2e" transform="matrix(12,0,0,12,594.7,418.1)" />
<use xlink:href="#f1_1x" transform="matrix(12,0,0,12,602.4,418.1)" />
<use xlink:href="#f0_1k" transform="matrix(12,0,0,12,55,461.8)" />
<use xlink:href="#f0_24" transform="matrix(12,0,0,12,66.4,461.8)" />
<use xlink:href="#f0_21" transform="matrix(12,0,0,12,75.2,461.8)" />
<use xlink:href="#f0_2l" transform="matrix(12,0,0,12,83.6,461.8)" />
<use xlink:href="#f0_1x" transform="matrix(12,0,0,12,96.8,461.8)" />
<use xlink:href="#f0_2e" transform="matrix(12,0,0,12,104.8,461.8)" />
<use xlink:href="#f0_21" transform="matrix(12,0,0,12,111.1,461.8)" />
<use xlink:href="#f0_20" transform="matrix(12,0,0,12,123.9,461.8)" />
<use xlink:href="#f0_25" transform="matrix(12,0,0,12,133.4,461.8)" />
<use xlink:href="#f0_2i" transform="matrix(12,0,0,12,138.2,461.8)" />
<use xlink:href="#f0_25" transform="matrix(12,0,0,12,147.7,461.8)" />
<use xlink:href="#f0_20" transform="matrix(12,0,0,12,152.4,461.8)" />
<use xlink:href="#f0_21" transform="matrix(12,0,0,12,161.6,461.8)" />
<use xlink:href="#f0_20" transform="matrix(12,0,0,12,169.7,461.8)" />
<use xlink:href="#f0_25" transform="matrix(12,0,0,12,184,461.8)" />
<use xlink:href="#f0_2a" transform="matrix(12,0,0,12,188.7,461.8)" />
<use xlink:href="#f0_2g" transform="matrix(12,0,0,12,197.5,461.8)" />
<use xlink:href="#f0_2b" transform="matrix(12,0,0,12,203,461.8)" />
<use xlink:href="#f2_11" transform="matrix(12,0,0,12,217.1,461.8)" />
<use xlink:href="#f2_2e" transform="matrix(12,0,0,12,228.5,461.8)" />
<use xlink:href="#f2_1z" transform="matrix(12,0,0,12,235.5,461.8)" />
<use xlink:href="#f2_24" transform="matrix(12,0,0,12,243.5,461.8)" />
<use xlink:href="#f2_1x" transform="matrix(12,0,0,12,252.7,461.8)" />
<use xlink:href="#f2_21" transform="matrix(12,0,0,12,261.9,461.8)" />
<use xlink:href="#f2_1y" transform="matrix(12,0,0,12,269.9,461.8)" />
<use xlink:href="#f2_1x" transform="matrix(12,0,0,12,279.1,461.8)" />
<use xlink:href="#f2_1z" transform="matrix(12,0,0,12,288.3,461.8)" />
<use xlink:href="#f2_2g" transform="matrix(12,0,0,12,296.3,461.8)" />
<use xlink:href="#f2_21" transform="matrix(12,0,0,12,301.4,461.8)" />
<use xlink:href="#f2_2e" transform="matrix(12,0,0,12,309.6,461.8)" />
<use xlink:href="#f2_25" transform="matrix(12,0,0,12,316.5,461.8)" />
<use xlink:href="#f2_1x" transform="matrix(12,0,0,12,321.6,461.8)" />
<use xlink:href="#f0_1x" transform="matrix(12,0,0,12,335.6,461.8)" />
<use xlink:href="#f0_2a" transform="matrix(12,0,0,12,343.7,461.8)" />
<use xlink:href="#f0_20" transform="matrix(12,0,0,12,352.5,461.8)" />
<use xlink:href="#f2_15" transform="matrix(12,0,0,12,366.5,461.8)" />
<use xlink:href="#f2_2h" transform="matrix(12,0,0,12,377.8,461.8)" />
<use xlink:href="#f2_1y" transform="matrix(12,0,0,12,387,461.8)" />
<use xlink:href="#f2_1x" transform="matrix(12,0,0,12,396.1,461.8)" />
<use xlink:href="#f2_1z" transform="matrix(12,0,0,12,405.3,461.8)" />
<use xlink:href="#f2_2g" transform="matrix(12,0,0,12,413.4,461.8)" />
<use xlink:href="#f2_21" transform="matrix(12,0,0,12,418.5,461.8)" />
<use xlink:href="#f2_2e" transform="matrix(12,0,0,12,426.6,461.8)" />
<use xlink:href="#f2_25" transform="matrix(12,0,0,12,433.5,461.8)" />
<use xlink:href="#f2_1x" transform="matrix(12,0,0,12,438.6,461.8)" />
<use xlink:href="#f0_i" transform="matrix(12,0,0,12,447.9,461.8)" />
<use xlink:href="#f3_11" transform="matrix(12,0,0,12,55,505.8)" />
<use xlink:href="#f3_2e" transform="matrix(12,0,0,12,67.1,505.8)" />
<use xlink:href="#f3_1z" transform="matrix(12,0,0,12,74.1,505.8)" />
<use xlink:href="#f3_24" transform="matrix(12,0,0,12,82.2,505.8)" />
<use xlink:href="#f3_1x" transform="matrix(12,0,0,12,92.4,505.8)" />
<use xlink:href="#f3_21" transform="matrix(12,0,0,12,101.6,505.8)" />
<use xlink:href="#f3_1y" transform="matrix(12,0,0,12,109.7,505.8)" />
<use xlink:href="#f3_1x" transform="matrix(12,0,0,12,118.8,505.8)" />
<use xlink:href="#f3_1z" transform="matrix(12,0,0,12,128,505.8)" />
<use xlink:href="#f3_2g" transform="matrix(12,0,0,12,136.1,505.8)" />
<use xlink:href="#f3_21" transform="matrix(12,0,0,12,141.1,505.8)" />
<use xlink:href="#f3_2e" transform="matrix(12,0,0,12,149.6,505.8)" />
<use xlink:href="#f3_25" transform="matrix(12,0,0,12,156.6,505.8)" />
<use xlink:href="#f3_1x" transform="matrix(12,0,0,12,161.7,505.8)" />
<use xlink:href="#f2_11" transform="matrix(12,0,0,12,55,549.8)" />
<use xlink:href="#f2_2e" transform="matrix(12,0,0,12,66.4,549.8)" />
<use xlink:href="#f2_1z" transform="matrix(12,0,0,12,73.4,549.8)" />
<use xlink:href="#f2_24" transform="matrix(12,0,0,12,81.4,549.8)" />
<use xlink:href="#f2_1x" transform="matrix(12,0,0,12,90.6,549.8)" />
<use xlink:href="#f2_21" transform="matrix(12,0,0,12,99.8,549.8)" />
<use xlink:href="#f2_1y" transform="matrix(12,0,0,12,107.8,549.8)" />
<use xlink:href="#f2_1x" transform="matrix(12,0,0,12,117,549.8)" />
<use xlink:href="#f2_1z" transform="matrix(12,0,0,12,126.2,549.8)" />
<use xlink:href="#f2_2g" transform="matrix(12,0,0,12,134.2,549.8)" />
<use xlink:href="#f2_21" transform="matrix(12,0,0,12,139.3,549.8)" />
<use xlink:href="#f2_2e" transform="matrix(12,0,0,12,147.5,549.8)" />
<use xlink:href="#f2_25" transform="matrix(12,0,0,12,154.4,549.8)" />
<use xlink:href="#f2_1x" transform="matrix(12,0,0,12,159.5,549.8)" />
<use xlink:href="#f0_1z" transform="matrix(12,0,0,12,176.8,549.8)" />
<use xlink:href="#f0_1x" transform="matrix(12,0,0,12,184.9,549.8)" />
<use xlink:href="#f0_2a" transform="matrix(12,0,0,12,193.3,549.8)" />
<use xlink:href="#f0_1y" transform="matrix(12,0,0,12,210.1,549.8)" />
<use xlink:href="#f0_21" transform="matrix(12,0,0,12,219.3,549.8)" />
<use xlink:href="#f0_2g" transform="matrix(12,0,0,12,235.5,549.8)" />
<use xlink:href="#f0_24" transform="matrix(12,0,0,12,241,549.8)" />
<use xlink:href="#f0_21" transform="matrix(12,0,0,12,249.8,549.8)" />
<use xlink:href="#f0_2e" transform="matrix(12,0,0,12,257.8,549.8)" />
<use xlink:href="#f0_29" transform="matrix(12,0,0,12,264.4,549.8)" />
<use xlink:href="#f0_2b" transform="matrix(12,0,0,12,278,549.8)" />
<use xlink:href="#f0_1x" transform="matrix(12,0,0,12,287.5,549.8)" />
<use xlink:href="#f0_1z" transform="matrix(12,0,0,12,295.6,549.8)" />
<use xlink:href="#f0_25" transform="matrix(12,0,0,12,304,549.8)" />
<use xlink:href="#f0_20" transform="matrix(12,0,0,12,308.4,549.8)" />
<use xlink:href="#f0_2b" transform="matrix(12,0,0,12,317.5,549.8)" />
<use xlink:href="#f0_2c" transform="matrix(12,0,0,12,327.1,549.8)" />
<use xlink:href="#f0_24" transform="matrix(12,0,0,12,336.2,549.8)" />
<use xlink:href="#f0_25" transform="matrix(12,0,0,12,345.4,549.8)" />
<use xlink:href="#f0_28" transform="matrix(12,0,0,12,350.5,549.8)" />
<use xlink:href="#f0_21" transform="matrix(12,0,0,12,355.3,549.8)" />
<use xlink:href="#f0_2f" transform="matrix(12,0,0,12,363.7,549.8)" />
<use xlink:href="#f0_c" transform="matrix(12,0,0,12,378.7,549.8)" />
<use xlink:href="#f0_24" transform="matrix(12,0,0,12,384.9,549.8)" />
<use xlink:href="#f0_2b" transform="matrix(12,0,0,12,393.7,549.8)" />
<use xlink:href="#f0_2g" transform="matrix(12,0,0,12,403.2,549.8)" />
<use xlink:href="#f0_2f" transform="matrix(12,0,0,12,416.4,549.8)" />
<use xlink:href="#f0_2c" transform="matrix(12,0,0,12,423.4,549.8)" />
<use xlink:href="#f0_2e" transform="matrix(12,0,0,12,432.6,549.8)" />
<use xlink:href="#f0_25" transform="matrix(12,0,0,12,439.1,549.8)" />
<use xlink:href="#f0_2a" transform="matrix(12,0,0,12,443.9,549.8)" />
<use xlink:href="#f0_23" transform="matrix(12,0,0,12,452.7,549.8)" />
<use xlink:href="#f0_2f" transform="matrix(12,0,0,12,461.9,549.8)" />
<use xlink:href="#f0_d" transform="matrix(12,0,0,12,468.8,549.8)" />
<use xlink:href="#f0_g" transform="matrix(12,0,0,12,475.1,549.8)" />
<use xlink:href="#f0_24" transform="matrix(12,0,0,12,488.2,549.8)" />
<use xlink:href="#f0_1x" transform="matrix(12,0,0,12,497,549.8)" />
<use xlink:href="#f0_28" transform="matrix(12,0,0,12,505.4,549.8)" />
<use xlink:href="#f0_2b" transform="matrix(12,0,0,12,509.8,549.8)" />
<use xlink:href="#f0_2c" transform="matrix(12,0,0,12,519.3,549.8)" />
<use xlink:href="#f0_24" transform="matrix(12,0,0,12,528.9,549.8)" />
<use xlink:href="#f0_25" transform="matrix(12,0,0,12,538,549.8)" />
<use xlink:href="#f0_28" transform="matrix(12,0,0,12,543.1,549.8)" />
<use xlink:href="#f0_21" transform="matrix(12,0,0,12,547.9,549.8)" />
<use xlink:href="#f0_2f" transform="matrix(12,0,0,12,556,549.8)" />
<use xlink:href="#f0_c" transform="matrix(12,0,0,12,571,549.8)" />
<use xlink:href="#f0_2f" transform="matrix(12,0,0,12,577.2,549.8)" />
<use xlink:href="#f0_2h" transform="matrix(12,0,0,12,584.2,549.8)" />
<use xlink:href="#f0_2e" transform="matrix(12,0,0,12,593.4,549.8)" />
<use xlink:href="#f0_2i" transform="matrix(12,0,0,12,599.6,549.8)" />
<use xlink:href="#f0_25" transform="matrix(12,0,0,12,608.7,549.8)" />
<use xlink:href="#f0_2i" transform="matrix(12,0,0,12,613.5,549.8)" />
<use xlink:href="#f0_21" transform="matrix(12,0,0,12,622.7,549.8)" />
<use xlink:href="#f0_25" transform="matrix(12,0,0,12,639.2,549.8)" />
<use xlink:href="#f0_2a" transform="matrix(12,0,0,12,643.9,549.8)" />
<use xlink:href="#f0_24" transform="matrix(12,0,0,12,661.5,549.8)" />
<use xlink:href="#f0_25" transform="matrix(12,0,0,12,670.7,549.8)" />
<use xlink:href="#f0_23" transform="matrix(12,0,0,12,675.1,549.8)" />
<use xlink:href="#f0_24" transform="matrix(12,0,0,12,684.6,549.8)" />
<use xlink:href="#f0_2f" transform="matrix(12,0,0,12,701.8,549.8)" />
<use xlink:href="#f0_1x" transform="matrix(12,0,0,12,708.8,549.8)" />
<use xlink:href="#f0_28" transform="matrix(12,0,0,12,717.2,549.8)" />
<use xlink:href="#f0_2g" transform="matrix(12,0,0,12,721.6,549.8)" />
<use xlink:href="#f0_1z" transform="matrix(12,0,0,12,735.1,549.8)" />
<use xlink:href="#f0_2b" transform="matrix(12,0,0,12,743.2,549.8)" />
<use xlink:href="#f0_2a" transform="matrix(12,0,0,12,752.7,549.8)" />
<use xlink:href="#f0_1z" transform="matrix(12,0,0,12,761.5,549.8)" />
<use xlink:href="#f0_21" transform="matrix(12,0,0,12,769.6,549.8)" />
<use xlink:href="#f0_2a" transform="matrix(12,0,0,12,778,549.8)" />
<use xlink:href="#f0_2g" transform="matrix(12,0,0,12,786.8,549.8)" />
<use xlink:href="#f0_2e" transform="matrix(12,0,0,12,792.3,549.8)" />
<use xlink:href="#f0_1x" transform="matrix(12,0,0,12,798.1,549.8)" />
<use xlink:href="#f0_2g" transform="matrix(12,0,0,12,806.2,549.8)" />
<use xlink:href="#f0_25" transform="matrix(12,0,0,12,811.7,549.8)" />
<use xlink:href="#f0_2b" transform="matrix(12,0,0,12,816.1,549.8)" />
<use xlink:href="#f0_2a" transform="matrix(12,0,0,12,825.6,549.8)" />
<use xlink:href="#f0_d" transform="matrix(12,0,0,12,834.4,549.8)" />
<use xlink:href="#f0_g" transform="matrix(12,0,0,12,840.6,549.8)" />
<use xlink:href="#f0_1x" transform="matrix(12,0,0,12,853.4,549.8)" />
<use xlink:href="#f0_2a" transform="matrix(12,0,0,12,861.5,549.8)" />
<use xlink:href="#f0_20" transform="matrix(12,0,0,12,870.3,549.8)" />
<use xlink:href="#f0_29" transform="matrix(12,0,0,12,55,581.3)" />
<use xlink:href="#f0_21" transform="matrix(12,0,0,12,69,581.3)" />
<use xlink:href="#f0_2g" transform="matrix(12,0,0,12,77,581.3)" />
<use xlink:href="#f0_24" transform="matrix(12,0,0,12,82.5,581.3)" />
<use xlink:href="#f0_1x" transform="matrix(12,0,0,12,91.3,581.3)" />
<use xlink:href="#f0_2a" transform="matrix(12,0,0,12,99.7,581.3)" />
<use xlink:href="#f0_2b" transform="matrix(12,0,0,12,108.5,581.3)" />
<use xlink:href="#f0_23" transform="matrix(12,0,0,12,118,581.3)" />
<use xlink:href="#f0_21" transform="matrix(12,0,0,12,127.2,581.3)" />
<use xlink:href="#f0_2a" transform="matrix(12,0,0,12,135.3,581.3)" />
<use xlink:href="#f0_2f" transform="matrix(12,0,0,12,144.4,581.3)" />
<use xlink:href="#f0_c" transform="matrix(12,0,0,12,158.4,581.3)" />
<use xlink:href="#f0_29" transform="matrix(12,0,0,12,164.9,581.3)" />
<use xlink:href="#f0_1x" transform="matrix(12,0,0,12,178.5,581.3)" />
<use xlink:href="#f0_2e" transform="matrix(12,0,0,12,186.6,581.3)" />
<use xlink:href="#f0_2f" transform="matrix(12,0,0,12,192.8,581.3)" />
<use xlink:href="#f0_24" transform="matrix(12,0,0,12,200.1,581.3)" />
<use xlink:href="#f0_2l" transform="matrix(12,0,0,12,209.3,581.3)" />
<use xlink:href="#f0_1x" transform="matrix(12,0,0,12,224.7,581.3)" />
<use xlink:href="#f0_2e" transform="matrix(12,0,0,12,232.7,581.3)" />
<use xlink:href="#f0_21" transform="matrix(12,0,0,12,238.9,581.3)" />
<use xlink:href="#f0_1x" transform="matrix(12,0,0,12,247,581.3)" />
<use xlink:href="#f0_2f" transform="matrix(12,0,0,12,255.4,581.3)" />
<use xlink:href="#f0_d" transform="matrix(12,0,0,12,262.4,581.3)" />
<use xlink:href="#f0_i" transform="matrix(12,0,0,12,268.6,581.3)" />
<use xlink:href="#f0_1k" transform="matrix(12,0,0,12,280.6,581.3)" />
<use xlink:href="#f0_24" transform="matrix(12,0,0,12,292,581.3)" />
<use xlink:href="#f0_21" transform="matrix(12,0,0,12,300.8,581.3)" />
<use xlink:href="#f0_2e" transform="matrix(12,0,0,12,308.8,581.3)" />
<use xlink:href="#f0_21" transform="matrix(12,0,0,12,315,581.3)" />
<use xlink:href="#f0_2f" transform="matrix(12,0,0,12,330.1,581.3)" />
<use xlink:href="#f0_2g" transform="matrix(12,0,0,12,337,581.3)" />
<use xlink:href="#f0_2e" transform="matrix(12,0,0,12,342.1,581.3)" />
<use xlink:href="#f0_2h" transform="matrix(12,0,0,12,348.4,581.3)" />
<use xlink:href="#f0_1z" transform="matrix(12,0,0,12,357.5,581.3)" />
<use xlink:href="#f0_2g" transform="matrix(12,0,0,12,365.2,581.3)" />
<use xlink:href="#f0_2h" transform="matrix(12,0,0,12,370.7,581.3)" />
<use xlink:href="#f0_2e" transform="matrix(12,0,0,12,379.9,581.3)" />
<use xlink:href="#f0_21" transform="matrix(12,0,0,12,386.1,581.3)" />
<use xlink:href="#f0_2b" transform="matrix(12,0,0,12,400.4,581.3)" />
<use xlink:href="#f0_22" transform="matrix(12,0,0,12,409.9,581.3)" />
<use xlink:href="#f0_1z" transform="matrix(12,0,0,12,422.3,581.3)" />
<use xlink:href="#f0_21" transform="matrix(12,0,0,12,430.4,581.3)" />
<use xlink:href="#f0_28" transform="matrix(12,0,0,12,438.8,581.3)" />
<use xlink:href="#f0_28" transform="matrix(12,0,0,12,443.6,581.3)" />
<use xlink:href="#f0_2j" transform="matrix(12,0,0,12,455.3,581.3)" />
<use xlink:href="#f0_1x" transform="matrix(12,0,0,12,468.5,581.3)" />
<use xlink:href="#f0_28" transform="matrix(12,0,0,12,476.9,581.3)" />
<use xlink:href="#f0_28" transform="matrix(12,0,0,12,482,581.3)" />
<use xlink:href="#f0_25" transform="matrix(12,0,0,12,493.8,581.3)" />
<use xlink:href="#f0_2f" transform="matrix(12,0,0,12,498.5,581.3)" />
<use xlink:href="#f0_20" transform="matrix(12,0,0,12,512.5,581.3)" />
<use xlink:href="#f0_25" transform="matrix(12,0,0,12,522,581.3)" />
<use xlink:href="#f0_22" transform="matrix(12,0,0,12,526.7,581.3)" />
<use xlink:href="#f0_22" transform="matrix(12,0,0,12,532.9,581.3)" />
<use xlink:href="#f0_21" transform="matrix(12,0,0,12,538.8,581.3)" />
<use xlink:href="#f0_2e" transform="matrix(12,0,0,12,546.9,581.3)" />
<use xlink:href="#f0_21" transform="matrix(12,0,0,12,553.1,581.3)" />
<use xlink:href="#f0_2a" transform="matrix(12,0,0,12,561.5,581.3)" />
<use xlink:href="#f0_2g" transform="matrix(12,0,0,12,570.3,581.3)" />
<use xlink:href="#f0_22" transform="matrix(12,0,0,12,582.7,581.3)" />
<use xlink:href="#f0_2e" transform="matrix(12,0,0,12,588.2,581.3)" />
<use xlink:href="#f0_2b" transform="matrix(12,0,0,12,594.5,581.3)" />
<use xlink:href="#f0_29" transform="matrix(12,0,0,12,604,581.3)" />
<use xlink:href="#f0_2b" transform="matrix(12,0,0,12,624.5,581.3)" />
<use xlink:href="#f0_2g" transform="matrix(12,0,0,12,633.7,581.3)" />
<use xlink:href="#f0_24" transform="matrix(12,0,0,12,639.1,581.3)" />
<use xlink:href="#f0_21" transform="matrix(12,0,0,12,647.9,581.3)" />
<use xlink:href="#f0_2e" transform="matrix(12,0,0,12,656,581.3)" />
<use xlink:href="#f0_29" transform="matrix(12,0,0,12,669.2,581.3)" />
<use xlink:href="#f0_2b" transform="matrix(12,0,0,12,682.7,581.3)" />
<use xlink:href="#f0_2a" transform="matrix(12,0,0,12,692.2,581.3)" />
<use xlink:href="#f0_21" transform="matrix(12,0,0,12,701,581.3)" />
<use xlink:href="#f0_2e" transform="matrix(12,0,0,12,709.1,581.3)" />
<use xlink:href="#f0_1x" transform="matrix(12,0,0,12,715.3,581.3)" />
<use xlink:href="#f0_2a" transform="matrix(12,0,0,12,723.7,581.3)" />
<use xlink:href="#f0_2f" transform="matrix(12,0,0,12,732.9,581.3)" />
<use xlink:href="#f0_i" transform="matrix(12,0,0,12,739.9,581.3)" />
<use xlink:href="#f0_1d" transform="matrix(12,0,0,12,752.3,581.3)" />
<use xlink:href="#f0_21" transform="matrix(12,0,0,12,768.5,581.3)" />
<use xlink:href="#f0_2g" transform="matrix(12,0,0,12,776.5,581.3)" />
<use xlink:href="#f0_24" transform="matrix(12,0,0,12,782,581.3)" />
<use xlink:href="#f0_1x" transform="matrix(12,0,0,12,790.8,581.3)" />
<use xlink:href="#f0_2a" transform="matrix(12,0,0,12,798.9,581.3)" />
<use xlink:href="#f0_2b" transform="matrix(12,0,0,12,807.7,581.3)" />
<use xlink:href="#f0_23" transform="matrix(12,0,0,12,817.2,581.3)" />
<use xlink:href="#f0_21" transform="matrix(12,0,0,12,826.4,581.3)" />
<use xlink:href="#f0_2a" transform="matrix(12,0,0,12,834.4,581.3)" />
<use xlink:href="#f0_2f" transform="matrix(12,0,0,12,843.6,581.3)" />
<use xlink:href="#f0_1x" transform="matrix(12,0,0,12,857.5,581.3)" />
<use xlink:href="#f0_2e" transform="matrix(12,0,0,12,865.6,581.3)" />
<use xlink:href="#f0_21" transform="matrix(12,0,0,12,871.8,581.3)" />
<use xlink:href="#f0_22" transform="matrix(12,0,0,12,55,612.9)" />
<use xlink:href="#f0_2b" transform="matrix(12,0,0,12,60.5,612.9)" />
<use xlink:href="#f0_2h" transform="matrix(12,0,0,12,70.1,612.9)" />
<use xlink:href="#f0_2a" transform="matrix(12,0,0,12,79.6,612.9)" />
<use xlink:href="#f0_20" transform="matrix(12,0,0,12,88.4,612.9)" />
<use xlink:href="#f0_25" transform="matrix(12,0,0,12,102.3,612.9)" />
<use xlink:href="#f0_2a" transform="matrix(12,0,0,12,107,612.9)" />
<use xlink:href="#f0_2g" transform="matrix(12,0,0,12,120.2,612.9)" />
<use xlink:href="#f0_24" transform="matrix(12,0,0,12,125.7,612.9)" />
<use xlink:href="#f0_21" transform="matrix(12,0,0,12,134.5,612.9)" />
<use xlink:href="#f0_23" transform="matrix(12,0,0,12,147,612.9)" />
<use xlink:href="#f0_2h" transform="matrix(12,0,0,12,156.2,612.9)" />
<use xlink:href="#f0_2g" transform="matrix(12,0,0,12,165.3,612.9)" />
<use xlink:href="#f0_2b" transform="matrix(12,0,0,12,174.8,612.9)" />
<use xlink:href="#f0_22" transform="matrix(12,0,0,12,184.4,612.9)" />
<use xlink:href="#f0_2f" transform="matrix(12,0,0,12,194.3,612.9)" />
<use xlink:href="#f0_2b" transform="matrix(12,0,0,12,201.2,612.9)" />
<use xlink:href="#f0_29" transform="matrix(12,0,0,12,211.1,612.9)" />
<use xlink:href="#f0_21" transform="matrix(12,0,0,12,224.7,612.9)" />
<use xlink:href="#f0_2e" transform="matrix(12,0,0,12,237.1,612.9)" />
<use xlink:href="#f0_2h" transform="matrix(12,0,0,12,243.4,612.9)" />
<use xlink:href="#f0_29" transform="matrix(12,0,0,12,252.9,612.9)" />
<use xlink:href="#f0_25" transform="matrix(12,0,0,12,267.1,612.9)" />
<use xlink:href="#f0_2a" transform="matrix(12,0,0,12,271.9,612.9)" />
<use xlink:href="#f0_1x" transform="matrix(12,0,0,12,281.1,612.9)" />
<use xlink:href="#f0_2a" transform="matrix(12,0,0,12,289.5,612.9)" />
<use xlink:href="#f0_2g" transform="matrix(12,0,0,12,298.3,612.9)" />
<use xlink:href="#f0_2f" transform="matrix(12,0,0,12,303.8,612.9)" />
<use xlink:href="#f0_2f" transform="matrix(12,0,0,12,315.2,612.9)" />
<use xlink:href="#f0_2h" transform="matrix(12,0,0,12,322.1,612.9)" />
<use xlink:href="#f0_1z" transform="matrix(12,0,0,12,331.3,612.9)" />
<use xlink:href="#f0_24" transform="matrix(12,0,0,12,339.4,612.9)" />
<use xlink:href="#f0_1x" transform="matrix(12,0,0,12,352.6,612.9)" />
<use xlink:href="#f0_2f" transform="matrix(12,0,0,12,361,612.9)" />
<use xlink:href="#f0_1y" transform="matrix(12,0,0,12,372.7,612.9)" />
<use xlink:href="#f0_2h" transform="matrix(12,0,0,12,381.5,612.9)" />
<use xlink:href="#f0_22" transform="matrix(12,0,0,12,391,612.9)" />
<use xlink:href="#f0_22" transform="matrix(12,0,0,12,396.9,612.9)" />
<use xlink:href="#f0_1x" transform="matrix(12,0,0,12,402.7,612.9)" />
<use xlink:href="#f0_28" transform="matrix(12,0,0,12,411.2,612.9)" />
<use xlink:href="#f0_2b" transform="matrix(12,0,0,12,415.6,612.9)" />
<use xlink:href="#f0_21" transform="matrix(12,0,0,12,425.4,612.9)" />
<use xlink:href="#f0_2f" transform="matrix(12,0,0,12,433.5,612.9)" />
<use xlink:href="#f0_1x" transform="matrix(12,0,0,12,444.9,612.9)" />
<use xlink:href="#f0_2a" transform="matrix(12,0,0,12,453.3,612.9)" />
<use xlink:href="#f0_20" transform="matrix(12,0,0,12,462.1,612.9)" />
<use xlink:href="#f0_1z" transform="matrix(12,0,0,12,475.7,612.9)" />
<use xlink:href="#f0_2b" transform="matrix(12,0,0,12,483.7,612.9)" />
<use xlink:href="#f0_2j" transform="matrix(12,0,0,12,493.2,612.9)" />
<use xlink:href="#f0_2f" transform="matrix(12,0,0,12,506.5,612.9)" />
<use xlink:href="#f0_i" transform="matrix(12,0,0,12,513.4,612.9)" />
<use xlink:href="#f0_1k" transform="matrix(12,0,0,12,523,612.9)" />
<use xlink:href="#f0_24" transform="matrix(12,0,0,12,534.4,612.9)" />
<use xlink:href="#f0_25" transform="matrix(12,0,0,12,543.6,612.9)" />
<use xlink:href="#f0_2f" transform="matrix(12,0,0,12,548,612.9)" />
<use xlink:href="#f0_24" transform="matrix(12,0,0,12,559.7,612.9)" />
<use xlink:href="#f0_21" transform="matrix(12,0,0,12,568.5,612.9)" />
<use xlink:href="#f0_28" transform="matrix(12,0,0,12,576.9,612.9)" />
<use xlink:href="#f0_2c" transform="matrix(12,0,0,12,581.7,612.9)" />
<use xlink:href="#f0_2f" transform="matrix(12,0,0,12,590.8,612.9)" />
<use xlink:href="#f0_25" transform="matrix(12,0,0,12,602.5,612.9)" />
<use xlink:href="#f0_2a" transform="matrix(12,0,0,12,607.3,612.9)" />
<use xlink:href="#f0_2c" transform="matrix(12,0,0,12,620.9,612.9)" />
<use xlink:href="#f0_2e" transform="matrix(12,0,0,12,630,612.9)" />
<use xlink:href="#f0_2b" transform="matrix(12,0,0,12,636.3,612.9)" />
<use xlink:href="#f0_20" transform="matrix(12,0,0,12,645.8,612.9)" />
<use xlink:href="#f0_2h" transform="matrix(12,0,0,12,654.9,612.9)" />
<use xlink:href="#f0_1z" transform="matrix(12,0,0,12,664.1,612.9)" />
<use xlink:href="#f0_2g" transform="matrix(12,0,0,12,672.2,612.9)" />
<use xlink:href="#f0_25" transform="matrix(12,0,0,12,677.7,612.9)" />
<use xlink:href="#f0_2b" transform="matrix(12,0,0,12,682.1,612.9)" />
<use xlink:href="#f0_2a" transform="matrix(12,0,0,12,691.6,612.9)" />
<use xlink:href="#f0_2b" transform="matrix(12,0,0,12,704.8,612.9)" />
<use xlink:href="#f0_22" transform="matrix(12,0,0,12,714.3,612.9)" />
<use xlink:href="#f0_1y" transform="matrix(12,0,0,12,724.5,612.9)" />
<use xlink:href="#f0_25" transform="matrix(12,0,0,12,733.7,612.9)" />
<use xlink:href="#f0_2b" transform="matrix(12,0,0,12,738.1,612.9)" />
<use xlink:href="#f0_23" transform="matrix(12,0,0,12,747.6,612.9)" />
<use xlink:href="#f0_1x" transform="matrix(12,0,0,12,756.8,612.9)" />
<use xlink:href="#f0_2f" transform="matrix(12,0,0,12,764.8,612.9)" />
<use xlink:href="#f0_22" transform="matrix(12,0,0,12,776.6,612.9)" />
<use xlink:href="#f0_2e" transform="matrix(12,0,0,12,782.1,612.9)" />
<use xlink:href="#f0_2b" transform="matrix(12,0,0,12,788.3,612.9)" />
<use xlink:href="#f0_29" transform="matrix(12,0,0,12,797.8,612.9)" />
<use xlink:href="#f0_2g" transform="matrix(12,0,0,12,816.1,612.9)" />
<use xlink:href="#f0_24" transform="matrix(12,0,0,12,821.6,612.9)" />
<use xlink:href="#f0_21" transform="matrix(12,0,0,12,830.4,612.9)" />
<use xlink:href="#f0_20" transform="matrix(12,0,0,12,842.9,612.9)" />
<use xlink:href="#f0_2h" transform="matrix(12,0,0,12,852,612.9)" />
<use xlink:href="#f0_2a" transform="matrix(12,0,0,12,861.2,612.9)" />
<use xlink:href="#f0_23" transform="matrix(12,0,0,12,870.4,612.9)" />
<use xlink:href="#f0_2b" transform="matrix(12,0,0,12,55,644.4)" />
<use xlink:href="#f0_22" transform="matrix(12,0,0,12,64.6,644.4)" />
<use xlink:href="#f0_2g" transform="matrix(12,0,0,12,74.8,644.4)" />
<use xlink:href="#f0_24" transform="matrix(12,0,0,12,80.3,644.4)" />
<use xlink:href="#f0_21" transform="matrix(12,0,0,12,89.1,644.4)" />
<use xlink:href="#f0_1x" transform="matrix(12,0,0,12,101.9,644.4)" />
<use xlink:href="#f0_2a" transform="matrix(12,0,0,12,110,644.4)" />
<use xlink:href="#f0_25" transform="matrix(12,0,0,12,119.1,644.4)" />
<use xlink:href="#f0_29" transform="matrix(12,0,0,12,124.2,644.4)" />
<use xlink:href="#f0_1x" transform="matrix(12,0,0,12,138.2,644.4)" />
<use xlink:href="#f0_28" transform="matrix(12,0,0,12,146.6,644.4)" />
<use xlink:href="#f0_i" transform="matrix(12,0,0,12,151,644.4)" />
<use xlink:href="#f3_15" transform="matrix(12,0,0,12,55,688.4)" />
<use xlink:href="#f3_2h" transform="matrix(12,0,0,12,67.1,688.4)" />
<use xlink:href="#f3_1y" transform="matrix(12,0,0,12,77.4,688.4)" />
<use xlink:href="#f3_1x" transform="matrix(12,0,0,12,86.6,688.4)" />
<use xlink:href="#f3_1z" transform="matrix(12,0,0,12,95.7,688.4)" />
<use xlink:href="#f3_2g" transform="matrix(12,0,0,12,103.8,688.4)" />
<use xlink:href="#f3_21" transform="matrix(12,0,0,12,108.9,688.4)" />
<use xlink:href="#f3_2e" transform="matrix(12,0,0,12,117,688.4)" />
<use xlink:href="#f3_25" transform="matrix(12,0,0,12,124,688.4)" />
<use xlink:href="#f3_1x" transform="matrix(12,0,0,12,129,688.4)" />
<use xlink:href="#f0_1k" transform="matrix(12,0,0,12,55,732.4)" />
<use xlink:href="#f0_24" transform="matrix(12,0,0,12,66.4,732.4)" />
<use xlink:href="#f0_21" transform="matrix(12,0,0,12,75.2,732.4)" />
<use xlink:href="#f0_2l" transform="matrix(12,0,0,12,83.6,732.4)" />
<use xlink:href="#f0_1x" transform="matrix(12,0,0,12,97.1,732.4)" />
<use xlink:href="#f0_2e" transform="matrix(12,0,0,12,105.2,732.4)" />
<use xlink:href="#f0_21" transform="matrix(12,0,0,12,111.4,732.4)" />
<use xlink:href="#f0_2e" transform="matrix(12,0,0,12,124.6,732.4)" />
<use xlink:href="#f0_21" transform="matrix(12,0,0,12,130.8,732.4)" />
<use xlink:href="#f0_22" transform="matrix(12,0,0,12,139.2,732.4)" />
<use xlink:href="#f0_21" transform="matrix(12,0,0,12,144.7,732.4)" />
<use xlink:href="#f0_2e" transform="matrix(12,0,0,12,152.8,732.4)" />
<use xlink:href="#f0_2e" transform="matrix(12,0,0,12,159,732.4)" />
<use xlink:href="#f0_21" transform="matrix(12,0,0,12,165.2,732.4)" />
<use xlink:href="#f0_20" transform="matrix(12,0,0,12,173.3,732.4)" />
<use xlink:href="#f0_1x" transform="matrix(12,0,0,12,187.6,732.4)" />
<use xlink:href="#f0_2f" transform="matrix(12,0,0,12,195.7,732.4)" />
<use xlink:href="#f4_50" transform="matrix(12,0,0,12,208,732.4)" />
<use xlink:href="#f4_1k" transform="matrix(12,0,0,12,217.1,732.4)" />
<use xlink:href="#f4_2e" transform="matrix(12,0,0,12,229.6,732.4)" />
<use xlink:href="#f4_2h" transform="matrix(12,0,0,12,237.3,732.4)" />
<use xlink:href="#f4_21" transform="matrix(12,0,0,12,247.5,732.4)" />
<use xlink:href="#f4_1y" transform="matrix(12,0,0,12,260.7,732.4)" />
<use xlink:href="#f4_1x" transform="matrix(12,0,0,12,271,732.4)" />
<use xlink:href="#f4_1z" transform="matrix(12,0,0,12,280.1,732.4)" />
<use xlink:href="#f4_2g" transform="matrix(12,0,0,12,288.2,732.4)" />
<use xlink:href="#f4_21" transform="matrix(12,0,0,12,294.4,732.4)" />
<use xlink:href="#f4_2e" transform="matrix(12,0,0,12,302.5,732.4)" />
<use xlink:href="#f4_25" transform="matrix(12,0,0,12,310.2,732.4)" />
<use xlink:href="#f4_1x" transform="matrix(12,0,0,12,315.3,732.4)" />
<use xlink:href="#f4_51" transform="matrix(12,0,0,12,324.4,732.4)" />
<use xlink:href="#f4_i" transform="matrix(12,0,0,12,333.6,732.4)" />
<use xlink:href="#f0_1k" transform="matrix(12,0,0,12,343.7,732.4)" />
<use xlink:href="#f0_24" transform="matrix(12,0,0,12,355,732.4)" />
<use xlink:href="#f0_21" transform="matrix(12,0,0,12,363.8,732.4)" />
<use xlink:href="#f0_2c" transform="matrix(12,0,0,12,377,732.4)" />
<use xlink:href="#f0_2e" transform="matrix(12,0,0,12,386.2,732.4)" />
<use xlink:href="#f0_21" transform="matrix(12,0,0,12,392.4,732.4)" />
<use xlink:href="#f0_2f" transform="matrix(12,0,0,12,400.5,732.4)" />
<use xlink:href="#f0_21" transform="matrix(12,0,0,12,407.4,732.4)" />
<use xlink:href="#f0_2a" transform="matrix(12,0,0,12,415.8,732.4)" />
<use xlink:href="#f0_1z" transform="matrix(12,0,0,12,425,732.4)" />
<use xlink:href="#f0_21" transform="matrix(12,0,0,12,433.1,732.4)" />
<use xlink:href="#f0_2b" transform="matrix(12,0,0,12,446.2,732.4)" />
<use xlink:href="#f0_22" transform="matrix(12,0,0,12,455.8,732.4)" />
<use xlink:href="#f0_29" transform="matrix(12,0,0,12,466.7,732.4)" />
<use xlink:href="#f0_2b" transform="matrix(12,0,0,12,480.3,732.4)" />
<use xlink:href="#f0_2g" transform="matrix(12,0,0,12,489.8,732.4)" />
<use xlink:href="#f0_25" transform="matrix(12,0,0,12,495.3,732.4)" />
<use xlink:href="#f0_28" transform="matrix(12,0,0,12,500.1,732.4)" />
<use xlink:href="#f0_21" transform="matrix(12,0,0,12,504.8,732.4)" />
<use xlink:href="#f0_22" transform="matrix(12,0,0,12,518.4,732.4)" />
<use xlink:href="#f0_28" transform="matrix(12,0,0,12,524.3,732.4)" />
<use xlink:href="#f0_1x" transform="matrix(12,0,0,12,529,732.4)" />
<use xlink:href="#f0_23" transform="matrix(12,0,0,12,537.1,732.4)" />
<use xlink:href="#f0_21" transform="matrix(12,0,0,12,546.3,732.4)" />
<use xlink:href="#f0_28" transform="matrix(12,0,0,12,554.7,732.4)" />
<use xlink:href="#f0_28" transform="matrix(12,0,0,12,559.8,732.4)" />
<use xlink:href="#f0_2h" transform="matrix(12,0,0,12,564.6,732.4)" />
<use xlink:href="#f0_29" transform="matrix(12,0,0,12,574.1,732.4)" />
<use xlink:href="#f0_1x" transform="matrix(12,0,0,12,592.8,732.4)" />
<use xlink:href="#f0_2a" transform="matrix(12,0,0,12,601.2,732.4)" />
<use xlink:href="#f0_20" transform="matrix(12,0,0,12,610,732.4)" />
<use xlink:href="#f0_1x" transform="matrix(12,0,0,12,624.3,732.4)" />
<use xlink:href="#f0_2e" transform="matrix(12,0,0,12,637.4,732.4)" />
<use xlink:href="#f0_25" transform="matrix(12,0,0,12,644,732.4)" />
<use xlink:href="#f0_23" transform="matrix(12,0,0,12,648.4,732.4)" />
<use xlink:href="#f0_25" transform="matrix(12,0,0,12,657.9,732.4)" />
<use xlink:href="#f0_20" transform="matrix(12,0,0,12,662.7,732.4)" />
<use xlink:href="#f0_1z" transform="matrix(12,0,0,12,677,732.4)" />
<use xlink:href="#f0_21" transform="matrix(12,0,0,12,685.1,732.4)" />
<use xlink:href="#f0_28" transform="matrix(12,0,0,12,693.5,732.4)" />
<use xlink:href="#f0_28" transform="matrix(12,0,0,12,698.2,732.4)" />
<use xlink:href="#f0_2j" transform="matrix(12,0,0,12,708.1,732.4)" />
<use xlink:href="#f0_1x" transform="matrix(12,0,0,12,721.4,732.4)" />
<use xlink:href="#f0_28" transform="matrix(12,0,0,12,729.7,732.4)" />
<use xlink:href="#f0_28" transform="matrix(12,0,0,12,734.8,732.4)" />
<use xlink:href="#f0_1z" transform="matrix(12,0,0,12,744.8,732.4)" />
<use xlink:href="#f0_24" transform="matrix(12,0,0,12,753.2,732.4)" />
<use xlink:href="#f0_1x" transform="matrix(12,0,0,12,762,732.4)" />
<use xlink:href="#f0_2e" transform="matrix(12,0,0,12,770,732.4)" />
<use xlink:href="#f0_1x" transform="matrix(12,0,0,12,776.2,732.4)" />
<use xlink:href="#f0_1z" transform="matrix(12,0,0,12,784.3,732.4)" />
<use xlink:href="#f0_2g" transform="matrix(12,0,0,12,792.4,732.4)" />
<use xlink:href="#f0_21" transform="matrix(12,0,0,12,797.9,732.4)" />
<use xlink:href="#f0_2e" transform="matrix(12,0,0,12,805.9,732.4)" />
<use xlink:href="#f0_25" transform="matrix(12,0,0,12,812.5,732.4)" />
<use xlink:href="#f0_2m" transform="matrix(12,0,0,12,816.9,732.4)" />
<use xlink:href="#f0_21" transform="matrix(12,0,0,12,825,732.4)" />
<use xlink:href="#f0_2g" transform="matrix(12,0,0,12,838.2,732.4)" />
<use xlink:href="#f0_24" transform="matrix(12,0,0,12,843.6,732.4)" />
<use xlink:href="#f0_21" transform="matrix(12,0,0,12,852.4,732.4)" />
<use xlink:href="#f0_29" transform="matrix(12,0,0,12,860.9,732.4)" />
<use xlink:href="#f0_i" transform="matrix(12,0,0,12,875.2,732.4)" />
<use xlink:href="#f0_19" transform="matrix(12,0,0,12,55,764)" />
<use xlink:href="#f0_2g" transform="matrix(12,0,0,12,61.3,764)" />
<use xlink:href="#f0_25" transform="matrix(12,0,0,12,75.5,764)" />
<use xlink:href="#f0_2a" transform="matrix(12,0,0,12,80.3,764)" />
<use xlink:href="#f0_1z" transform="matrix(12,0,0,12,89.1,764)" />
<use xlink:href="#f0_28" transform="matrix(12,0,0,12,97.5,764)" />
<use xlink:href="#f0_2h" transform="matrix(12,0,0,12,102.3,764)" />
<use xlink:href="#f0_20" transform="matrix(12,0,0,12,111.4,764)" />
<use xlink:href="#f0_21" transform="matrix(12,0,0,12,120.6,764)" />
<use xlink:href="#f0_2f" transform="matrix(12,0,0,12,129,764)" />
<use xlink:href="#f0_1z" transform="matrix(12,0,0,12,145.1,764)" />
<use xlink:href="#f0_2l" transform="matrix(12,0,0,12,153.6,764)" />
<use xlink:href="#f0_1x" transform="matrix(12,0,0,12,162.4,764)" />
<use xlink:href="#f0_2a" transform="matrix(12,0,0,12,170.8,764)" />
<use xlink:href="#f0_2b" transform="matrix(12,0,0,12,179.6,764)" />
<use xlink:href="#f0_1y" transform="matrix(12,0,0,12,189.1,764)" />
<use xlink:href="#f0_1x" transform="matrix(12,0,0,12,197.9,764)" />
<use xlink:href="#f0_1z" transform="matrix(12,0,0,12,206,764)" />
<use xlink:href="#f0_2g" transform="matrix(12,0,0,12,214,764)" />
<use xlink:href="#f0_21" transform="matrix(12,0,0,12,219.5,764)" />
<use xlink:href="#f0_2e" transform="matrix(12,0,0,12,227.6,764)" />
<use xlink:href="#f0_25" transform="matrix(12,0,0,12,234.2,764)" />
<use xlink:href="#f0_1x" transform="matrix(12,0,0,12,238.6,764)" />
<use xlink:href="#f0_c" transform="matrix(12,0,0,12,255.8,764)" />
<use xlink:href="#f0_1y" transform="matrix(12,0,0,12,262,764)" />
<use xlink:href="#f0_28" transform="matrix(12,0,0,12,271.1,764)" />
<use xlink:href="#f0_2h" transform="matrix(12,0,0,12,275.9,764)" />
<use xlink:href="#f0_21" transform="matrix(12,0,0,12,285.1,764)" />
<use xlink:href="#f0_h" transform="matrix(12,0,0,12,293.4,764)" />
<use xlink:href="#f0_23" transform="matrix(12,0,0,12,299.7,764)" />
<use xlink:href="#f0_2e" transform="matrix(12,0,0,12,308.8,764)" />
<use xlink:href="#f0_21" transform="matrix(12,0,0,12,315.1,764)" />
<use xlink:href="#f0_21" transform="matrix(12,0,0,12,323.1,764)" />
<use xlink:href="#f0_2a" transform="matrix(12,0,0,12,331.5,764)" />
<use xlink:href="#f0_1x" transform="matrix(12,0,0,12,349.5,764)" />
<use xlink:href="#f0_28" transform="matrix(12,0,0,12,357.9,764)" />
<use xlink:href="#f0_23" transform="matrix(12,0,0,12,362.3,764)" />
<use xlink:href="#f0_1x" transform="matrix(12,0,0,12,371.8,764)" />
<use xlink:href="#f0_21" transform="matrix(12,0,0,12,379.9,764)" />
<use xlink:href="#f0_d" transform="matrix(12,0,0,12,387.9,764)" />
<use xlink:href="#f0_i" transform="matrix(12,0,0,12,394.2,764)" />
<use xlink:href="#f0_1k" transform="matrix(12,0,0,12,408.3,764)" />
<use xlink:href="#f0_24" transform="matrix(12,0,0,12,419.6,764)" />
<use xlink:href="#f0_21" transform="matrix(12,0,0,12,428.4,764)" />
<use xlink:href="#f0_2l" transform="matrix(12,0,0,12,436.8,764)" />
<use xlink:href="#f0_1x" transform="matrix(12,0,0,12,454.4,764)" />
<use xlink:href="#f0_2e" transform="matrix(12,0,0,12,462.5,764)" />
<use xlink:href="#f0_21" transform="matrix(12,0,0,12,468.7,764)" />
<use xlink:href="#f0_28" transform="matrix(12,0,0,12,486.3,764)" />
<use xlink:href="#f0_25" transform="matrix(12,0,0,12,491,764)" />
<use xlink:href="#f0_27" transform="matrix(12,0,0,12,495.8,764)" />
<use xlink:href="#f0_21" transform="matrix(12,0,0,12,505,764)" />
<use xlink:href="#f0_2c" transform="matrix(12,0,0,12,522.3,764)" />
<use xlink:href="#f0_28" transform="matrix(12,0,0,12,531.8,764)" />
<use xlink:href="#f0_1x" transform="matrix(12,0,0,12,536.6,764)" />
<use xlink:href="#f0_2a" transform="matrix(12,0,0,12,545,764)" />
<use xlink:href="#f0_2g" transform="matrix(12,0,0,12,553.8,764)" />
<use xlink:href="#f0_2f" transform="matrix(12,0,0,12,559.3,764)" />
<use xlink:href="#f0_25" transform="matrix(12,0,0,12,575.9,764)" />
<use xlink:href="#f0_2a" transform="matrix(12,0,0,12,580.6,764)" />
<use xlink:href="#f0_24" transform="matrix(12,0,0,12,598.6,764)" />
<use xlink:href="#f0_1x" transform="matrix(12,0,0,12,607.8,764)" />
<use xlink:href="#f0_2i" transform="matrix(12,0,0,12,616.2,764)" />
<use xlink:href="#f0_25" transform="matrix(12,0,0,12,625.3,764)" />
<use xlink:href="#f0_2a" transform="matrix(12,0,0,12,630.1,764)" />
<use xlink:href="#f0_23" transform="matrix(12,0,0,12,638.9,764)" />
<use xlink:href="#f0_1z" transform="matrix(12,0,0,12,657.2,764)" />
<use xlink:href="#f0_24" transform="matrix(12,0,0,12,665.6,764)" />
<use xlink:href="#f0_28" transform="matrix(12,0,0,12,674.8,764)" />
<use xlink:href="#f0_2b" transform="matrix(12,0,0,12,679.2,764)" />
<use xlink:href="#f0_2e" transform="matrix(12,0,0,12,688.7,764)" />
<use xlink:href="#f0_2b" transform="matrix(12,0,0,12,694.9,764)" />
<use xlink:href="#f0_2c" transform="matrix(12,0,0,12,704.5,764)" />
<use xlink:href="#f0_24" transform="matrix(12,0,0,12,713.6,764)" />
<use xlink:href="#f0_2l" transform="matrix(12,0,0,12,722.8,764)" />
<use xlink:href="#f0_28" transform="matrix(12,0,0,12,732,764)" />
<use xlink:href="#f0_28" transform="matrix(12,0,0,12,737,764)" />
<use xlink:href="#f0_1x" transform="matrix(12,0,0,12,750.6,764)" />
<use xlink:href="#f0_i" transform="matrix(12,0,0,12,758.7,764)" />
<use xlink:href="#f0_1j" transform="matrix(12,0,0,12,772.6,764)" />
<use xlink:href="#f0_2b" transform="matrix(12,0,0,12,782.8,764)" />
<use xlink:href="#f0_g" transform="matrix(12,0,0,12,792.4,764)" />
<use xlink:href="#f0_27" transform="matrix(12,0,0,12,805.9,764)" />
<use xlink:href="#f0_2a" transform="matrix(12,0,0,12,815.1,764)" />
<use xlink:href="#f0_2b" transform="matrix(12,0,0,12,823.9,764)" />
<use xlink:href="#f0_2j" transform="matrix(12,0,0,12,833.4,764)" />
<use xlink:href="#f0_2a" transform="matrix(12,0,0,12,846.6,764)" />
<use xlink:href="#f0_1x" transform="matrix(12,0,0,12,864.5,764)" />
<use xlink:href="#f0_2f" transform="matrix(12,0,0,12,872.6,764)" />
<use xlink:href="#f1_2c" transform="matrix(12,0,0,12,55,795.5)" />
<use xlink:href="#f1_24" transform="matrix(12,0,0,12,65.3,795.5)" />
<use xlink:href="#f1_2b" transform="matrix(12,0,0,12,75.5,795.5)" />
<use xlink:href="#f1_2g" transform="matrix(12,0,0,12,84.7,795.5)" />
<use xlink:href="#f1_2b" transform="matrix(12,0,0,12,90.9,795.5)" />
<use xlink:href="#f1_2f" transform="matrix(12,0,0,12,100.1,795.5)" />
<use xlink:href="#f1_2l" transform="matrix(12,0,0,12,107,795.5)" />
<use xlink:href="#f1_2a" transform="matrix(12,0,0,12,116.2,795.5)" />
<use xlink:href="#f1_2g" transform="matrix(12,0,0,12,126.5,795.5)" />
<use xlink:href="#f1_24" transform="matrix(12,0,0,12,132.7,795.5)" />
<use xlink:href="#f1_21" transform="matrix(12,0,0,12,142.9,795.5)" />
<use xlink:href="#f1_2g" transform="matrix(12,0,0,12,151,795.5)" />
<use xlink:href="#f1_25" transform="matrix(12,0,0,12,157.2,795.5)" />
<use xlink:href="#f1_1z" transform="matrix(12,0,0,12,162.3,795.5)" />
<use xlink:href="#f1_1x" transform="matrix(12,0,0,12,174.8,795.5)" />
<use xlink:href="#f1_2h" transform="matrix(12,0,0,12,184,795.5)" />
<use xlink:href="#f1_2g" transform="matrix(12,0,0,12,194.2,795.5)" />
<use xlink:href="#f1_2b" transform="matrix(12,0,0,12,200.4,795.5)" />
<use xlink:href="#f1_2g" transform="matrix(12,0,0,12,209.2,795.5)" />
<use xlink:href="#f1_2e" transform="matrix(12,0,0,12,215.4,795.5)" />
<use xlink:href="#f1_2b" transform="matrix(12,0,0,12,223.1,795.5)" />
<use xlink:href="#f1_2c" transform="matrix(12,0,0,12,232.3,795.5)" />
<use xlink:href="#f1_24" transform="matrix(12,0,0,12,242.5,795.5)" />
<use xlink:href="#f1_2f" transform="matrix(12,0,0,12,252.8,795.5)" />
<use xlink:href="#f0_i" transform="matrix(12,0,0,12,260.1,795.5)" />
<use xlink:href="#f0_13" transform="matrix(12,0,0,12,55,839.6)" />
<use xlink:href="#f0_2l" transform="matrix(12,0,0,12,67.5,839.6)" />
<use xlink:href="#f0_1x" transform="matrix(12,0,0,12,76.3,839.6)" />
<use xlink:href="#f0_2a" transform="matrix(12,0,0,12,84.7,839.6)" />
<use xlink:href="#f0_2b" transform="matrix(12,0,0,12,93.5,839.6)" />
<use xlink:href="#f0_1y" transform="matrix(12,0,0,12,103,839.6)" />
<use xlink:href="#f0_1x" transform="matrix(12,0,0,12,111.8,839.6)" />
<use xlink:href="#f0_1z" transform="matrix(12,0,0,12,119.9,839.6)" />
<use xlink:href="#f0_2g" transform="matrix(12,0,0,12,127.9,839.6)" />
<use xlink:href="#f0_21" transform="matrix(12,0,0,12,133.4,839.6)" />
<use xlink:href="#f0_2e" transform="matrix(12,0,0,12,141.5,839.6)" />
<use xlink:href="#f0_25" transform="matrix(12,0,0,12,148.1,839.6)" />
<use xlink:href="#f0_1x" transform="matrix(12,0,0,12,152.5,839.6)" />
<use xlink:href="#f0_1x" transform="matrix(12,0,0,12,164.9,839.6)" />
<use xlink:href="#f0_2e" transform="matrix(12,0,0,12,173,839.6)" />
<use xlink:href="#f0_21" transform="matrix(12,0,0,12,179.2,839.6)" />
<use xlink:href="#f0_2h" transform="matrix(12,0,0,12,191.7,839.6)" />
<use xlink:href="#f0_2a" transform="matrix(12,0,0,12,200.9,839.6)" />
<use xlink:href="#f0_25" transform="matrix(12,0,0,12,210,839.6)" />
<use xlink:href="#f0_1z" transform="matrix(12,0,0,12,214.8,839.6)" />
<use xlink:href="#f0_21" transform="matrix(12,0,0,12,222.9,839.6)" />
<use xlink:href="#f0_28" transform="matrix(12,0,0,12,231.3,839.6)" />
<use xlink:href="#f0_28" transform="matrix(12,0,0,12,236.4,839.6)" />
<use xlink:href="#f0_2h" transform="matrix(12,0,0,12,241.2,839.6)" />
<use xlink:href="#f0_28" transform="matrix(12,0,0,12,250.7,839.6)" />
<use xlink:href="#f0_1x" transform="matrix(12,0,0,12,255.5,839.6)" />
<use xlink:href="#f0_2e" transform="matrix(12,0,0,12,263.5,839.6)" />
<use xlink:href="#f0_g" transform="matrix(12,0,0,12,269.7,839.6)" />
<use xlink:href="#f0_22" transform="matrix(12,0,0,12,278.9,839.6)" />
<use xlink:href="#f0_25" transform="matrix(12,0,0,12,284.8,839.6)" />
<use xlink:href="#f0_28" transform="matrix(12,0,0,12,289.8,839.6)" />
<use xlink:href="#f0_1x" transform="matrix(12,0,0,12,294.7,839.6)" />
<use xlink:href="#f0_29" transform="matrix(12,0,0,12,303.1,839.6)" />
<use xlink:href="#f0_21" transform="matrix(12,0,0,12,317,839.6)" />
<use xlink:href="#f0_2a" transform="matrix(12,0,0,12,325.4,839.6)" />
<use xlink:href="#f0_2g" transform="matrix(12,0,0,12,334.2,839.6)" />
<use xlink:href="#f0_2b" transform="matrix(12,0,0,12,339.7,839.6)" />
<use xlink:href="#f0_2h" transform="matrix(12,0,0,12,349.2,839.6)" />
<use xlink:href="#f0_2f" transform="matrix(12,0,0,12,358.4,839.6)" />
<use xlink:href="#f0_1x" transform="matrix(12,0,0,12,369.7,839.6)" />
<use xlink:href="#f0_28" transform="matrix(12,0,0,12,377.8,839.6)" />
<use xlink:href="#f0_23" transform="matrix(12,0,0,12,382.2,839.6)" />
<use xlink:href="#f0_1x" transform="matrix(12,0,0,12,391.4,839.6)" />
<use xlink:href="#f0_21" transform="matrix(12,0,0,12,399.4,839.6)" />
<use xlink:href="#f0_i" transform="matrix(12,0,0,12,407.5,839.6)" />
<use xlink:href="#f0_1k" transform="matrix(12,0,0,12,416.7,839.6)" />
<use xlink:href="#f0_24" transform="matrix(12,0,0,12,428,839.6)" />
<use xlink:href="#f0_21" transform="matrix(12,0,0,12,436.8,839.6)" />
<use xlink:href="#f0_2l" transform="matrix(12,0,0,12,445.2,839.6)" />
<use xlink:href="#f0_22" transform="matrix(12,0,0,12,458.8,839.6)" />
<use xlink:href="#f0_2b" transform="matrix(12,0,0,12,464.3,839.6)" />
<use xlink:href="#f0_2e" transform="matrix(12,0,0,12,473.8,839.6)" />
<use xlink:href="#f0_29" transform="matrix(12,0,0,12,480.4,839.6)" />
<use xlink:href="#f0_1z" transform="matrix(12,0,0,12,498.3,839.6)" />
<use xlink:href="#f0_2b" transform="matrix(12,0,0,12,506.4,839.6)" />
<use xlink:href="#f0_28" transform="matrix(12,0,0,12,515.9,839.6)" />
<use xlink:href="#f0_2b" transform="matrix(12,0,0,12,520.3,839.6)" />
<use xlink:href="#f0_2a" transform="matrix(12,0,0,12,529.8,839.6)" />
<use xlink:href="#f0_25" transform="matrix(12,0,0,12,539,839.6)" />
<use xlink:href="#f0_21" transform="matrix(12,0,0,12,543.8,839.6)" />
<use xlink:href="#f0_2f" transform="matrix(12,0,0,12,552.2,839.6)" />
<use xlink:href="#f0_2j" transform="matrix(12,0,0,12,563.5,839.6)" />
<use xlink:href="#f0_24" transform="matrix(12,0,0,12,577.1,839.6)" />
<use xlink:href="#f0_25" transform="matrix(12,0,0,12,586.3,839.6)" />
<use xlink:href="#f0_1z" transform="matrix(12,0,0,12,591,839.6)" />
<use xlink:href="#f0_24" transform="matrix(12,0,0,12,599.4,839.6)" />
<use xlink:href="#f0_1x" transform="matrix(12,0,0,12,612.6,839.6)" />
<use xlink:href="#f0_2e" transform="matrix(12,0,0,12,620.7,839.6)" />
<use xlink:href="#f0_21" transform="matrix(12,0,0,12,626.9,839.6)" />
<use xlink:href="#f0_2f" transform="matrix(12,0,0,12,639.4,839.6)" />
<use xlink:href="#f0_2h" transform="matrix(12,0,0,12,646.4,839.6)" />
<use xlink:href="#f0_2e" transform="matrix(12,0,0,12,655.5,839.6)" />
<use xlink:href="#f0_2e" transform="matrix(12,0,0,12,661.7,839.6)" />
<use xlink:href="#f0_2b" transform="matrix(12,0,0,12,667.6,839.6)" />
<use xlink:href="#f0_2h" transform="matrix(12,0,0,12,677.1,839.6)" />
<use xlink:href="#f0_2a" transform="matrix(12,0,0,12,686.3,839.6)" />
<use xlink:href="#f0_20" transform="matrix(12,0,0,12,695.1,839.6)" />
<use xlink:href="#f0_21" transform="matrix(12,0,0,12,704.3,839.6)" />
<use xlink:href="#f0_20" transform="matrix(12,0,0,12,712.3,839.6)" />
<use xlink:href="#f0_1y" transform="matrix(12,0,0,12,725.9,839.6)" />
<use xlink:href="#f0_2l" transform="matrix(12,0,0,12,735.1,839.6)" />
<use xlink:href="#f0_23" transform="matrix(12,0,0,12,748.3,839.6)" />
<use xlink:href="#f0_21" transform="matrix(12,0,0,12,757.4,839.6)" />
<use xlink:href="#f0_28" transform="matrix(12,0,0,12,765.8,839.6)" />
<use xlink:href="#f0_1x" transform="matrix(12,0,0,12,770.6,839.6)" />
<use xlink:href="#f0_2g" transform="matrix(12,0,0,12,778.7,839.6)" />
<use xlink:href="#f0_25" transform="matrix(12,0,0,12,784.5,839.6)" />
<use xlink:href="#f0_2a" transform="matrix(12,0,0,12,789.3,839.6)" />
<use xlink:href="#f0_2b" transform="matrix(12,0,0,12,798.5,839.6)" />
<use xlink:href="#f0_2h" transform="matrix(12,0,0,12,808,839.6)" />
<use xlink:href="#f0_2f" transform="matrix(12,0,0,12,817.1,839.6)" />
<use xlink:href="#f0_2f" transform="matrix(12,0,0,12,828.5,839.6)" />
<use xlink:href="#f0_24" transform="matrix(12,0,0,12,835.5,839.6)" />
<use xlink:href="#f0_21" transform="matrix(12,0,0,12,844.3,839.6)" />
<use xlink:href="#f0_1x" transform="matrix(12,0,0,12,852.3,839.6)" />
<use xlink:href="#f0_2g" transform="matrix(12,0,0,12,860.4,839.6)" />
<use xlink:href="#f0_24" transform="matrix(12,0,0,12,865.9,839.6)" />
<use xlink:href="#f0_i" transform="matrix(12,0,0,12,874.7,839.6)" />
<use xlink:href="#f0_1j" transform="matrix(12,0,0,12,55,871.1)" />
<use xlink:href="#f0_2b" transform="matrix(12,0,0,12,65.3,871.1)" />
<use xlink:href="#f0_29" transform="matrix(12,0,0,12,74.8,871.1)" />
<use xlink:href="#f0_21" transform="matrix(12,0,0,12,88.4,871.1)" />
<use xlink:href="#f0_24" transform="matrix(12,0,0,12,101.2,871.1)" />
<use xlink:href="#f0_1x" transform="matrix(12,0,0,12,110.4,871.1)" />
<use xlink:href="#f0_2i" transform="matrix(12,0,0,12,118.8,871.1)" />
<use xlink:href="#f0_21" transform="matrix(12,0,0,12,127.6,871.1)" />
<use xlink:href="#f0_2f" transform="matrix(12,0,0,12,140.4,871.1)" />
<use xlink:href="#f0_2c" transform="matrix(12,0,0,12,147.4,871.1)" />
<use xlink:href="#f0_21" transform="matrix(12,0,0,12,156.6,871.1)" />
<use xlink:href="#f0_1z" transform="matrix(12,0,0,12,164.6,871.1)" />
<use xlink:href="#f0_25" transform="matrix(12,0,0,12,173,871.1)" />
<use xlink:href="#f0_1x" transform="matrix(12,0,0,12,177.8,871.1)" />
<use xlink:href="#f0_28" transform="matrix(12,0,0,12,186.2,871.1)" />
<use xlink:href="#f0_25" transform="matrix(12,0,0,12,191.3,871.1)" />
<use xlink:href="#f0_2m" transform="matrix(12,0,0,12,196.1,871.1)" />
<use xlink:href="#f0_21" transform="matrix(12,0,0,12,204.2,871.1)" />
<use xlink:href="#f0_20" transform="matrix(12,0,0,12,212.3,871.1)" />
<use xlink:href="#f0_2f" transform="matrix(12,0,0,12,226.2,871.1)" />
<use xlink:href="#f0_2g" transform="matrix(12,0,0,12,233.1,871.1)" />
<use xlink:href="#f0_2e" transform="matrix(12,0,0,12,238.6,871.1)" />
<use xlink:href="#f0_2h" transform="matrix(12,0,0,12,244.8,871.1)" />
<use xlink:href="#f0_1z" transform="matrix(12,0,0,12,254,871.1)" />
<use xlink:href="#f0_2g" transform="matrix(12,0,0,12,262.1,871.1)" />
<use xlink:href="#f0_2h" transform="matrix(12,0,0,12,267.6,871.1)" />
<use xlink:href="#f0_2e" transform="matrix(12,0,0,12,276.7,871.1)" />
<use xlink:href="#f0_21" transform="matrix(12,0,0,12,282.9,871.1)" />
<use xlink:href="#f0_2f" transform="matrix(12,0,0,12,291,871.1)" />
<use xlink:href="#f0_27" transform="matrix(12,0,0,12,302.7,871.1)" />
<use xlink:href="#f0_2a" transform="matrix(12,0,0,12,311.9,871.1)" />
<use xlink:href="#f0_2b" transform="matrix(12,0,0,12,320.7,871.1)" />
<use xlink:href="#f0_2j" transform="matrix(12,0,0,12,330.2,871.1)" />
<use xlink:href="#f0_2a" transform="matrix(12,0,0,12,343.4,871.1)" />
<use xlink:href="#f0_1x" transform="matrix(12,0,0,12,356.9,871.1)" />
<use xlink:href="#f0_2f" transform="matrix(12,0,0,12,365,871.1)" />
<use xlink:href="#f0_24" transform="matrix(12,0,0,12,376.7,871.1)" />
<use xlink:href="#f0_21" transform="matrix(12,0,0,12,385.5,871.1)" />
<use xlink:href="#f0_2g" transform="matrix(12,0,0,12,393.6,871.1)" />
<use xlink:href="#f0_21" transform="matrix(12,0,0,12,399.1,871.1)" />
<use xlink:href="#f0_2e" transform="matrix(12,0,0,12,407.1,871.1)" />
<use xlink:href="#f0_2b" transform="matrix(12,0,0,12,413,871.1)" />
<use xlink:href="#f0_1z" transform="matrix(12,0,0,12,422.2,871.1)" />
<use xlink:href="#f0_2l" transform="matrix(12,0,0,12,430.6,871.1)" />
<use xlink:href="#f0_2f" transform="matrix(12,0,0,12,439.4,871.1)" />
<use xlink:href="#f0_2g" transform="matrix(12,0,0,12,446.4,871.1)" />
<use xlink:href="#f0_2j" transform="matrix(12,0,0,12,456.6,871.1)" />
<use xlink:href="#f0_24" transform="matrix(12,0,0,12,469.8,871.1)" />
<use xlink:href="#f0_25" transform="matrix(12,0,0,12,479,871.1)" />
<use xlink:href="#f0_1z" transform="matrix(12,0,0,12,483.4,871.1)" />
<use xlink:href="#f0_24" transform="matrix(12,0,0,12,491.8,871.1)" />
<use xlink:href="#f0_24" transform="matrix(12,0,0,12,505.7,871.1)" />
<use xlink:href="#f0_21" transform="matrix(12,0,0,12,514.5,871.1)" />
<use xlink:href="#f0_28" transform="matrix(12,0,0,12,522.9,871.1)" />
<use xlink:href="#f0_2c" transform="matrix(12,0,0,12,527.7,871.1)" />
<use xlink:href="#f0_2f" transform="matrix(12,0,0,12,536.8,871.1)" />
<use xlink:href="#f0_25" transform="matrix(12,0,0,12,548.9,871.1)" />
<use xlink:href="#f0_2a" transform="matrix(12,0,0,12,553.7,871.1)" />
<use xlink:href="#f0_22" transform="matrix(12,0,0,12,567.6,871.1)" />
<use xlink:href="#f0_25" transform="matrix(12,0,0,12,573.8,871.1)" />
<use xlink:href="#f0_2k" transform="matrix(12,0,0,12,578.6,871.1)" />
<use xlink:href="#f0_25" transform="matrix(12,0,0,12,588.1,871.1)" />
<use xlink:href="#f0_2a" transform="matrix(12,0,0,12,592.9,871.1)" />
<use xlink:href="#f0_23" transform="matrix(12,0,0,12,602,871.1)" />
<use xlink:href="#f0_2a" transform="matrix(12,0,0,12,616.6,871.1)" />
<use xlink:href="#f0_25" transform="matrix(12,0,0,12,625.7,871.1)" />
<use xlink:href="#f0_2g" transform="matrix(12,0,0,12,630.1,871.1)" />
<use xlink:href="#f0_2e" transform="matrix(12,0,0,12,635.6,871.1)" />
<use xlink:href="#f0_2b" transform="matrix(12,0,0,12,641.9,871.1)" />
<use xlink:href="#f0_23" transform="matrix(12,0,0,12,651.4,871.1)" />
<use xlink:href="#f0_21" transform="matrix(12,0,0,12,660.5,871.1)" />
<use xlink:href="#f0_2a" transform="matrix(12,0,0,12,668.6,871.1)" />
<use xlink:href="#f0_i" transform="matrix(12,0,0,12,677.4,871.1)" />
<use xlink:href="#f0_16" transform="matrix(12,0,0,12,687,871.1)" />
<use xlink:href="#f0_2b" transform="matrix(12,0,0,12,696.9,871.1)" />
<use xlink:href="#f0_2e" transform="matrix(12,0,0,12,706.4,871.1)" />
<use xlink:href="#f0_21" transform="matrix(12,0,0,12,717.4,871.1)" />
<use xlink:href="#f0_2k" transform="matrix(12,0,0,12,725.5,871.1)" />
<use xlink:href="#f0_1x" transform="matrix(12,0,0,12,734.3,871.1)" />
<use xlink:href="#f0_29" transform="matrix(12,0,0,12,742.7,871.1)" />
<use xlink:href="#f0_2c" transform="matrix(12,0,0,12,756.3,871.1)" />
<use xlink:href="#f0_28" transform="matrix(12,0,0,12,765.8,871.1)" />
<use xlink:href="#f0_21" transform="matrix(12,0,0,12,770.5,871.1)" />
<use xlink:href="#f0_g" transform="matrix(12,0,0,12,778.6,871.1)" />
<use xlink:href="#f2_1e" transform="matrix(12,0,0,12,788.3,871.1)" />
<use xlink:href="#f2_2b" transform="matrix(12,0,0,12,800.4,871.1)" />
<use xlink:href="#f2_2f" transform="matrix(12,0,0,12,809.5,871.1)" />
<use xlink:href="#f2_2g" transform="matrix(12,0,0,12,816.5,871.1)" />
<use xlink:href="#f2_2b" transform="matrix(12,0,0,12,821.6,871.1)" />
<use xlink:href="#f2_1z" transform="matrix(12,0,0,12,830.8,871.1)" />
<use xlink:href="#f0_i" transform="matrix(12,0,0,12,838.9,871.1)" />
</g>
<image preserveAspectRatio="none" x="324" y="130" width="287" height="248" xlink:href="img/1.png" />
<image preserveAspectRatio="none" x="303" y="897" width="329" height="248" xlink:href="img/2.png" />
<g fill="#000000" >
<use xlink:href="#f5_m" transform="matrix(8,0,0,8,818.2,1187.9)" />
</g>
<defs>
<path d="M284,67c0,0,51,0,88,12c0,0,37,12,74,30V358l-98,-3c0,0,-100,-4,-135,-39c0,0,-35,-35,-35,-117c0,0,0,-132,106,-132ZM233,-14c0,0,-179,0,-179,208c0,0,0,70,27,116c0,0,27,46,87,70c0,0,60,24,173,27l105,3V519c0,0,0,72,-26,107c0,0,-27,34,-82,34c0,0,-75,0,-137,-35L176,538H134V691c0,0,121,26,213,26c0,0,115,0,169,-47c0,0,54,-47,54,-144V52L657,33V0H465L451,70c0,0,-85,-84,-218,-84Z" 
id="f0_1x"
transform="scale(0.001,-0.001)" />

<path d="M278,-14c0,0,-52,0,-115,11c0,0,-63,10,-99,23V193H98L134,95c0,0,56,-50,146,-50c0,0,144,0,144,123c0,0,0,91,-114,130l-66,21c0,0,-75,25,-110,50c0,0,-34,26,-53,63c0,0,-18,36,-18,89c0,0,0,92,63,145c0,0,63,54,170,54c0,0,77,0,193,-23V544H454l-32,81c0,0,-39,35,-124,35c0,0,-61,0,-92,-30c0,0,-32,-30,-32,-80c0,0,0,-43,29,-72c0,0,28,-29,86,-48c0,0,110,-38,144,-55c0,0,33,-17,57,-42c0,0,23,-25,36,-57c0,0,13,-32,13,-79c0,0,0,-104,-66,-158c0,0,-66,-53,-195,-53Z" 
id="f0_2f"
transform="scale(0.001,-0.001)" />

<path d="M327,-14L84,649L1,668v33H335V668L219,648L385,174L554,632h63L786,171L944,649L830,668v33h267V668l-78,-16L784,-14H726L553,448L382,-14Z" 
id="f0_2j"
transform="scale(0.001,-0.001)" />

<path d="M495,413c0,0,0,133,-34,190c0,0,-34,57,-105,57c0,0,-78,0,-119,-63c0,0,-42,-62,-42,-184ZM374,-14c0,0,-163,0,-239,87c0,0,-75,88,-75,283c0,0,0,183,77,273c0,0,76,91,219,91c0,0,269,0,269,-306V353H194V340c0,0,0,-103,23,-160c0,0,22,-57,70,-87c0,0,47,-29,124,-29c0,0,40,0,96,6c0,0,55,7,91,15V43C598,43,562,20,500,3c0,0,-61,-17,-126,-17Z" 
id="f0_21"
transform="scale(0.001,-0.001)" />

<path d="M31,0V33L150,52v956L31,1026v34H274V52L394,33V0Z" 
id="f0_28"
transform="scale(0.001,-0.001)" />

<path d="M382,45c0,0,188,0,188,314c0,0,0,143,-47,213c0,0,-46,69,-141,69c0,0,-87,0,-146,-24V58c0,0,67,-13,146,-13ZM25,-325v35l88,18V649L34,668v33H231l1,-41c0,0,31,27,84,43c0,0,53,17,107,17c0,0,134,0,208,-94c0,0,73,-93,73,-267c0,0,0,-178,-80,-276c0,0,-80,-97,-232,-97c0,0,-84,0,-160,16c0,0,4,-53,4,-84V-272l123,-18v-35Z" 
id="f0_2c"
transform="scale(0.001,-0.001)" />

<path d="M31,0V33l88,19V649L31,668v33H235l7,-87c0,0,44,37,121,71c0,0,76,35,121,35h11V530H463l-43,82c0,0,-37,0,-88,-10c0,0,-52,-10,-89,-26V52L363,33V0Z" 
id="f0_2e"
transform="scale(0.001,-0.001)" />

<path d="M32,0V33L151,52V649L52,668v33H275V52L395,33V0ZM201,850c0,0,-32,0,-56,24c0,0,-24,24,-24,56c0,0,0,34,24,58c0,0,24,24,56,24c0,0,34,0,58,-24c0,0,24,-24,24,-58c0,0,0,-32,-24,-56c0,0,-24,-24,-58,-24Z" 
id="f0_25"
transform="scale(0.001,-0.001)" />

<path d="M249,-14c0,0,-71,0,-107,42c0,0,-35,42,-35,119V639H15v33l93,29l76,159h47V701H391V639H231V161c0,0,0,-48,22,-73c0,0,22,-24,57,-24c0,0,44,0,106,12V26C416,26,389,8,340,-2c0,0,-49,-12,-91,-12Z" 
id="f0_2g"
transform="scale(0.001,-0.001)" />

<path d="M191,-20c0,0,-39,0,-65,25c0,0,-25,27,-25,64c0,0,0,38,26,64c0,0,26,26,64,26c0,0,38,0,64,-26c0,0,26,-26,26,-64c0,0,0,-37,-25,-64c0,0,-26,-25,-65,-25Z" 
id="f0_i"
transform="scale(0.001,-0.001)" />

<path d="M235,0V40L394,60V936H356c0,0,-189,0,-258,-15L78,766H28v234H908V766H857L837,921c0,0,-22,5,-98,9c0,0,-75,4,-165,4H538V60L697,40V0Z" 
id="f0_1k"
transform="scale(0.001,-0.001)" />

<path d="M442,0V33l93,19V504c0,0,0,129,-124,129c0,0,-70,0,-168,-22V52L338,33V0H31V33l88,19v956L15,1026v34H243V756c0,0,0,-77,-5,-112c0,0,54,31,122,53c0,0,68,23,115,23c0,0,91,0,137,-53c0,0,47,-53,47,-154V52L744,33V0Z" 
id="f0_24"
transform="scale(0.001,-0.001)" />

<path d="M148,-329c0,0,-58,0,-114,13v151H69l24,-71c0,0,23,-17,64,-17c0,0,39,0,72,22c0,0,33,23,60,67c0,0,27,44,68,157L90,649L19,668v33H344V668L233,648L423,158L606,649L497,668v33H758V668L685,652L411,-43c0,0,-48,-124,-84,-177c0,0,-36,-54,-79,-82c0,0,-44,-27,-100,-27Z" 
id="f0_2l"
transform="scale(0.001,-0.001)" />

<path d="M383,64c0,0,85,0,152,28V645c0,0,-67,13,-152,13c0,0,-194,0,-194,-314c0,0,0,-141,48,-211c0,0,48,-69,146,-69ZM342,-14c0,0,-287,0,-287,358c0,0,0,184,82,280c0,0,81,96,239,96c0,0,81,0,163,-18c0,0,-4,25,-4,124v182l-118,18v34H659V52L745,33V0H548l-9,52c0,0,-84,-66,-197,-66Z" 
id="f0_20"
transform="scale(0.001,-0.001)" />

<path d="M377,45c0,0,99,0,147,73c0,0,47,73,47,237c0,0,0,161,-47,233c0,0,-47,72,-147,72c0,0,-97,0,-141,-69c0,0,-44,-69,-44,-236c0,0,0,-169,45,-240c0,0,44,-70,140,-70Zm0,-59c0,0,-158,0,-238,94c0,0,-81,95,-81,274c0,0,0,178,81,272c0,0,80,94,244,94c0,0,160,0,241,-92c0,0,82,-92,82,-274c0,0,0,-368,-329,-368Z" 
id="f0_2b"
transform="scale(0.001,-0.001)" />

<path d="M360,-14L72,649L0,668v33H327V668L216,648L420,164L615,649L504,668v33H764V668L697,652L416,-14Z" 
id="f0_2i"
transform="scale(0.001,-0.001)" />

<path d="M399,-14c0,0,-341,0,-341,370c0,0,0,175,87,269c0,0,87,95,249,95c0,0,101,0,220,-23V501H573L541,625c0,0,-62,35,-149,35c0,0,-200,0,-200,-304c0,0,0,-158,61,-225c0,0,61,-67,189,-67c0,0,109,0,189,24V43C631,43,595,16,530,1c0,0,-64,-15,-131,-15Z" 
id="f0_1z"
transform="scale(0.001,-0.001)" />

<path d="M439,0V33l93,19V500c0,0,0,62,-30,97c0,0,-31,36,-94,36c0,0,-67,0,-165,-22V52L338,33V0H35V33l84,19V649L35,668v33H235l7,-57c0,0,57,33,122,54c0,0,65,22,108,22c0,0,91,0,137,-53c0,0,47,-53,47,-154V52L741,33V0Z" 
id="f0_2a"
transform="scale(0.001,-0.001)" />

<path d="M376,50c0,0,103,0,149,80c0,0,46,81,46,240c0,0,0,137,-47,204c0,0,-48,67,-148,67c0,0,-44,0,-87,-7c0,0,-44,-8,-63,-17V62c0,0,63,-12,150,-12Zm3,-64c0,0,-64,0,-141,14c0,0,-78,14,-136,37v971L0,1026v34H226V809c0,0,0,-40,-4,-148c0,0,74,59,188,59c0,0,143,0,219,-87c0,0,77,-87,77,-263c0,0,0,-189,-84,-287c0,0,-84,-97,-243,-97Z" 
id="f0_1y"
transform="scale(0.001,-0.001)" />

<path d="M431,0V33L535,52V499c0,0,0,62,-32,96c0,0,-32,33,-95,33c0,0,-66,0,-163,-22V52L350,33V0H32V33l89,19V649L32,668v33H237l6,-57c0,0,56,32,119,54c0,0,62,22,110,22c0,0,52,0,95,-20c0,0,44,-19,66,-62c0,0,57,32,134,57c0,0,77,25,128,25c0,0,179,0,179,-207V52l90,-19V0H846V33L950,52V499c0,0,0,129,-119,129c0,0,-19,0,-45,-3c0,0,-26,-3,-52,-7c0,0,-25,-4,-49,-8c0,0,-23,-5,-39,-8c0,0,13,-41,13,-89V52L764,33V0Z" 
id="f0_29"
transform="scale(0.001,-0.001)" />

<path d="M289,-14c0,0,-179,0,-179,205V649L20,668v33H233V200c0,0,0,-128,120,-128c0,0,92,0,173,23V649L420,668v33H649V52L738,33V0H533l-6,57C527,57,474,28,405,7c0,0,-69,-21,-116,-21Z" 
id="f0_2h"
transform="scale(0.001,-0.001)" />

<path d="M359,-270c0,0,124,0,192,46c0,0,67,47,67,129c0,0,0,43,-26,67c0,0,-26,24,-79,24H242c0,0,-32,-27,-51,-69c0,0,-20,-41,-20,-77c0,0,0,-64,46,-92c0,0,46,-28,142,-28Zm11,561c0,0,81,0,115,47c0,0,34,47,34,141c0,0,0,100,-35,142c0,0,-35,42,-113,42c0,0,-78,0,-114,-43c0,0,-37,-42,-37,-141c0,0,0,-98,36,-143c0,0,36,-45,114,-45ZM359,-329c0,0,-143,0,-218,44c0,0,-75,43,-75,125c0,0,0,39,27,78c0,0,26,38,98,89c0,0,-43,14,-72,48c0,0,-29,35,-29,74L208,262c0,0,-118,55,-118,217c0,0,0,115,73,178c0,0,73,63,211,63c0,0,28,0,71,-6c0,0,44,-6,67,-13l165,83l26,-32L599,644c0,0,50,-56,50,-165c0,0,0,-120,-72,-182c0,0,-73,-62,-208,-62c0,0,-62,0,-114,11L208,148c0,0,2,-13,29,-24c0,0,27,-12,67,-12H512c0,0,113,0,168,-49c0,0,55,-49,55,-134c0,0,0,-79,-44,-137c0,0,-43,-58,-128,-90c0,0,-84,-31,-204,-31Z" 
id="f0_23"
transform="scale(0.001,-0.001)" />

<path d="M64,0V34L168,59V639H47v36l121,29v49c0,0,0,155,61,239c0,0,62,84,173,84c0,0,58,0,107,-15V908H472l-33,92c0,0,-26,16,-62,16c0,0,-47,0,-66,-42c0,0,-19,-42,-19,-157V701H478V639H292V59L443,34V0Z" 
id="f0_22"
transform="scale(0.001,-0.001)" />

<path d="M44,0V40L172,60V941L44,960v40H794V760H745L721,922c0,0,-83,11,-241,11H316V543H586l23,119h48V354H609L586,475H316V67H513c0,0,193,0,252,12l43,185h49L843,0Z" 
id="f0_15"
transform="scale(0.001,-0.001)" />

<path d="M13,0V34L95,46L325,350L122,649L40,668v33H357V668L264,648L399,446L554,649l-96,19v33H710V668L630,652L433,397L663,50L745,34V0H427V34l94,17L359,299L169,50L266,34V0Z" 
id="f0_2k"
transform="scale(0.001,-0.001)" />

<path d="M36,0V54L154,74V926L26,945v55H860V731H790L766,908c0,0,-36,5,-121,8c0,0,-84,2,-133,2H389V508H633l23,127h67V298H656L633,426H389V74L556,54V0Z" 
id="f1_16"
transform="scale(0.001,-0.001)" />

<path d="M34,0V49l76,18V634L38,652v49H325V67L402,49V0ZM217,831c0,0,-48,0,-81,33c0,0,-34,33,-34,82c0,0,0,48,34,81c0,0,34,33,81,33c0,0,48,0,81,-33c0,0,33,-33,33,-81c0,0,0,-47,-33,-81c0,0,-32,-34,-81,-34Z" 
id="f1_25"
transform="scale(0.001,-0.001)" />

<path d="M360,-256c0,0,108,0,167,35c0,0,59,35,59,98c0,0,0,70,-95,70H254c0,0,-65,-47,-65,-108c0,0,0,-47,46,-71c0,0,45,-24,125,-24Zm9,561c0,0,55,0,79,43c0,0,25,43,25,129c0,0,0,87,-24,127c0,0,-25,41,-80,41c0,0,-52,0,-75,-41c0,0,-24,-40,-24,-127c0,0,0,-86,23,-129c0,0,23,-43,76,-43Zm-9,-641c0,0,-153,0,-236,43c0,0,-84,44,-84,120c0,0,0,33,28,65c0,0,27,31,105,76c0,0,-44,17,-75,59c0,0,-31,43,-31,90L192,258c0,0,-133,56,-133,219c0,0,0,116,81,180c0,0,82,63,233,63c0,0,32,0,82,-6c0,0,51,-6,74,-13l168,83l26,-32L638,631c0,0,46,-57,46,-154c0,0,0,-119,-80,-182c0,0,-80,-64,-234,-64c0,0,-59,0,-114,9L238,183c0,0,1,-22,28,-41c0,0,26,-19,64,-19H493c0,0,256,0,256,-196c0,0,0,-81,-44,-139c0,0,-45,-59,-131,-92c0,0,-86,-32,-214,-32Z" 
id="f1_23"
transform="scale(0.001,-0.001)" />

<path d="M191,-20c0,0,-51,0,-88,34c0,0,-36,36,-36,88c0,0,0,52,36,88c0,0,36,36,88,36c0,0,51,0,88,-36c0,0,36,-36,36,-88c0,0,0,-51,-36,-87c0,0,-36,-35,-88,-35Z" 
id="f1_i"
transform="scale(0.001,-0.001)" />

<path d="M64,0V141c0,0,64,68,119,123c0,0,119,118,174,185c0,0,56,68,81,140c0,0,26,72,26,165c0,0,0,81,-40,131c0,0,-39,50,-105,50c0,0,-46,0,-74,-10c0,0,-27,-10,-50,-29L163,751H98V979c0,0,59,13,116,23c0,0,58,9,125,9c0,0,165,0,252,-68c0,0,88,-68,88,-193c0,0,0,-78,-26,-142c0,0,-26,-64,-83,-124c0,0,-56,-61,-224,-197c0,0,-64,-52,-139,-119H698V0Z" 
id="f1_m"
transform="scale(0.001,-0.001)" />

<path d="M26,0V54L154,74V926L26,945v55H878V746H810L786,908c0,0,-83,10,-241,10H389V551H651l23,111h67V355H674L651,468H389V82H578c0,0,193,0,252,12l43,185h68L927,0Z" 
id="f1_15"
transform="scale(0.001,-0.001)" />

<path d="M6,0V49L69,61L292,323L91,634L23,652v49H398V652L319,632L421,475L557,634l-71,18v49H725V652L663,637L466,406L689,65L756,49V0H381V49l79,17L337,254L175,65L245,49V0Z" 
id="f1_2k"
transform="scale(0.001,-0.001)" />

<path d="M345,75c0,0,50,0,110,26V351l-63,-2c0,0,-72,-3,-100,-38c0,0,-28,-35,-28,-113c0,0,0,-63,22,-93c0,0,23,-30,59,-30ZM266,-14c0,0,-217,0,-217,208c0,0,0,79,32,126c0,0,32,48,93,71c0,0,60,22,190,25l91,2V521c0,0,0,126,-104,126c0,0,-62,0,-140,-39L183,521H134V691c0,0,112,17,165,21c0,0,53,5,108,5c0,0,264,0,264,-194V67L741,49V0H483L466,54C466,54,408,14,361,0c0,0,-47,-14,-95,-14Z" 
id="f1_1x"
transform="scale(0.001,-0.001)" />

<path d="M41,0V49l69,18V634L41,652v49H313l11,-61l50,26c0,0,105,54,188,54c0,0,125,0,167,-91c0,0,153,91,258,91c0,0,189,0,189,-207V67l71,-17V0H898V50l63,17V484c0,0,0,63,-24,98c0,0,-25,35,-74,35c0,0,-55,0,-119,-31c0,0,7,-32,7,-73V67L821,50V0H473V50l63,17V484c0,0,0,63,-25,98c0,0,-24,35,-73,35c0,0,-49,0,-113,-29V67L389,49V0Z" 
id="f1_29"
transform="scale(0.001,-0.001)" />

<path d="M438,65c0,0,131,0,131,293c0,0,0,279,-130,279c0,0,-69,0,-127,-29V80c0,0,60,-15,126,-15ZM20,-325v50l76,18V634L19,652v49H304l1,-36c0,0,80,55,194,55c0,0,146,0,218,-86c0,0,71,-86,71,-271c0,0,0,-183,-83,-280c0,0,-83,-97,-238,-97c0,0,-79,0,-160,19c0,0,5,-48,5,-109V-257l103,-18v-50Z" 
id="f1_2c"
transform="scale(0.001,-0.001)" />

<path d="M30,0V49l76,18V992l-72,18v50H322V67L398,49V0Z" 
id="f1_28"
transform="scale(0.001,-0.001)" />

<path d="M434,423c0,0,0,101,-7,142c0,0,-6,40,-22,60c0,0,-16,19,-45,19c0,0,-44,0,-66,-48c0,0,-22,-49,-22,-173ZM389,-14c0,0,-172,0,-254,89c0,0,-83,90,-83,279c0,0,0,184,79,274c0,0,79,91,238,91c0,0,142,0,206,-76c0,0,64,-76,64,-237V345H271V333c0,0,0,-111,18,-158c0,0,18,-47,58,-72c0,0,40,-25,110,-25c0,0,66,0,166,22V42C623,42,582,18,517,1c0,0,-66,-15,-128,-15Z" 
id="f1_21"
transform="scale(0.001,-0.001)" />

<path d="M276,-14c0,0,-57,0,-125,13C151,-1,83,10,48,23V214H97l28,-98c0,0,26,-26,69,-44c0,0,42,-17,86,-17c0,0,65,0,97,28c0,0,32,28,32,71c0,0,0,41,-31,65c0,0,-30,25,-133,57c0,0,-108,34,-154,92c0,0,-45,58,-45,143c0,0,0,95,71,152c0,0,71,57,183,57c0,0,77,0,207,-22V518H457l-24,82c0,0,-21,22,-60,35c0,0,-40,14,-75,14c0,0,-53,0,-79,-22c0,0,-26,-22,-26,-59c0,0,0,-40,32,-65c0,0,32,-26,132,-55c0,0,109,-34,155,-89c0,0,45,-55,45,-137c0,0,0,-117,-72,-177c0,0,-72,-59,-209,-59Z" 
id="f1_2f"
transform="scale(0.001,-0.001)" />

<path d="M379,60c0,0,59,0,84,64c0,0,24,65,24,231c0,0,0,164,-24,227c0,0,-24,63,-84,63c0,0,-57,0,-80,-60c0,0,-22,-61,-22,-230c0,0,0,-173,23,-234c0,0,22,-61,79,-61Zm-2,-74c0,0,-161,0,-240,91c0,0,-79,91,-79,277c0,0,0,186,80,276c0,0,81,90,245,90c0,0,167,0,245,-93c0,0,78,-93,78,-273c0,0,0,-188,-81,-278c0,0,-81,-90,-248,-90Z" 
id="f1_2b"
transform="scale(0.001,-0.001)" />

<path d="M41,0V49l76,18V624H11v51l106,29v75c0,0,0,144,73,220c0,0,73,77,210,77c0,0,74,0,124,-15V894H476l-22,81c0,0,-18,17,-47,17c0,0,-74,0,-74,-189V701H475V624H333V67L447,49V0Z" 
id="f1_22"
transform="scale(0.001,-0.001)" />

<path d="M850,0L476,482L389,407V74L533,54V0H26V54L154,74V926L26,945v55H518V945L389,926V519L845,926l-92,19v55h343V945L974,926L643,634L1083,74l93,-20V0Z" 
id="f1_1b"
transform="scale(0.001,-0.001)" />

<path d="M41,0V49l69,18V634L41,652v49H313l11,-61l50,26c0,0,105,54,188,54c0,0,194,0,194,-207V67L827,49V0H478V49l63,18V484c0,0,0,63,-27,98c0,0,-26,35,-75,35c0,0,-57,0,-114,-25V67L389,49V0Z" 
id="f1_2a"
transform="scale(0.001,-0.001)" />

<path d="M416,68c0,0,60,0,124,32V628c0,0,-58,15,-118,15c0,0,-67,0,-104,-73c0,0,-38,-73,-38,-216c0,0,0,-139,36,-212c0,0,35,-74,100,-74ZM369,-14c0,0,-155,0,-231,88c0,0,-76,90,-76,274c0,0,0,182,82,277c0,0,81,95,236,95c0,0,82,0,165,-20c0,0,-5,24,-5,115V992l-72,18v50H756V67L833,49V0H562L547,40C547,40,505,13,483,4c0,0,-23,-7,-51,-12c0,0,-28,-6,-63,-6Z" 
id="f1_20"
transform="scale(0.001,-0.001)" />

<path d="M900,0V54l135,20V845L658,0H617L248,845V74L382,54V0H26V54L154,74V926L26,945v55H419L705,342l292,658h401V945L1270,926V74L1398,54V0Z" 
id="f1_1d"
transform="scale(0.001,-0.001)" />

<path d="M41,0V49l91,18V634L41,652v49H336l8,-145c0,0,80,89,144,128c0,0,64,40,117,40h40V468H604l-45,94c0,0,-47,0,-106,-21c0,0,-60,-20,-105,-48V67L460,49V0Z" 
id="f1_2e"
transform="scale(0.001,-0.001)" />

<path d="M631,416L539,902L283,416ZM576,0l8,40L691,60L643,348H249L96,60L197,40L189,0H-83l8,40L7,60l509,949H659L845,60L938,40L930,0Z" 
id="f2_11"
transform="scale(0.001,-0.001)" />

<path d="M62,0L176,649L88,668l6,33H301L278,543c0,0,55,84,124,130c0,0,69,47,138,47c0,0,37,0,59,-6L566,530H534l-28,95c0,0,-60,0,-124,-46c0,0,-63,-45,-116,-120L186,0Z" 
id="f2_2e"
transform="scale(0.001,-0.001)" />

<path d="M298,-14c0,0,-120,0,-185,69c0,0,-66,69,-66,191c0,0,0,130,52,237c0,0,52,107,149,172c0,0,97,65,203,65c0,0,53,0,112,-12c0,0,60,-11,99,-27L628,485H587L575,615c0,0,-47,47,-125,47c0,0,-72,0,-134,-53c0,0,-62,-53,-100,-147c0,0,-37,-95,-37,-208c0,0,0,-190,154,-190c0,0,106,0,222,74l22,-32c0,0,-60,-56,-135,-88c0,0,-76,-32,-144,-32Z" 
id="f2_1z"
transform="scale(0.001,-0.001)" />

<path d="M55,0L232,1008l-88,18l6,34H365L286,615L274,558c0,0,59,79,128,120c0,0,68,42,134,42c0,0,75,0,113,-41c0,0,38,-41,38,-117c0,0,0,-10,-3,-32c0,0,-3,-21,-81,-478L700,34L695,0H470l76,434c0,0,17,94,17,123c0,0,0,34,-18,55c0,0,-18,21,-56,21c0,0,-56,0,-121,-47c0,0,-65,-47,-107,-114L178,0Z" 
id="f2_24"
transform="scale(0.001,-0.001)" />

<path d="M301,78c0,0,85,0,185,104l81,442c0,0,-29,20,-55,28c0,0,-25,8,-62,8c0,0,-75,0,-137,-56c0,0,-62,-56,-98,-152c0,0,-36,-95,-36,-199c0,0,0,-79,33,-127c0,0,33,-48,89,-48ZM245,-14c0,0,-90,0,-145,66c0,0,-54,66,-54,182c0,0,0,131,57,244c0,0,57,114,152,178c0,0,96,64,208,64c0,0,90,0,170,-33l33,26h40L589,52L673,33L667,0H454l22,117C476,117,350,-14,245,-14Z" 
id="f2_1x"
transform="scale(0.001,-0.001)" />

<path d="M188,355c0,0,148,11,236,69c0,0,89,58,89,143c0,0,0,41,-23,68c0,0,-22,27,-66,27c0,0,-52,0,-101,-43c0,0,-49,-42,-85,-114c0,0,-36,-71,-50,-150ZM298,-14c0,0,-120,0,-186,67c0,0,-65,67,-65,193c0,0,0,125,53,232c0,0,52,108,145,175c0,0,94,67,196,67c0,0,92,0,147,-42c0,0,56,-43,56,-111c0,0,0,-102,-126,-173c0,0,-125,-72,-336,-86l-3,-54c0,0,0,-95,40,-143c0,0,40,-47,118,-47c0,0,67,0,124,22c0,0,57,23,106,52l22,-32c0,0,-69,-58,-146,-89c0,0,-76,-31,-145,-31Z" 
id="f2_21"
transform="scale(0.001,-0.001)" />

<path d="M305,45c0,0,76,0,141,56c0,0,64,56,101,151c0,0,37,95,37,200c0,0,0,83,-35,129c0,0,-34,46,-92,46c0,0,-44,0,-96,-29c0,0,-51,-29,-97,-75L185,81c0,0,43,-36,120,-36ZM295,-14c0,0,-65,0,-128,16C167,2,104,19,57,48l171,960l-100,18l6,34H358L303,731c0,0,-13,-85,-29,-144c0,0,59,61,122,97c0,0,64,36,116,36c0,0,94,0,150,-67c0,0,56,-67,56,-182c0,0,0,-129,-56,-242C662,229,606,115,509,50c0,0,-98,-64,-214,-64Z" 
id="f2_1y"
transform="scale(0.001,-0.001)" />

<path d="M200,-14c0,0,-59,0,-93,35c0,0,-34,36,-34,100c0,0,0,22,4,51c0,0,4,30,82,467H67l6,33l99,29L275,860h47L295,701H455L443,639H283L210,230c0,0,-13,-69,-13,-99c0,0,0,-34,17,-51c0,0,17,-16,43,-16c0,0,54,0,113,21L386,50c0,0,-92,-64,-186,-64Z" 
id="f2_2g"
transform="scale(0.001,-0.001)" />

<path d="M85,0L199,649l-96,19l6,33H332L218,52L335,33L329,0ZM297,849c0,0,-33,0,-57,24c0,0,-24,24,-24,57c0,0,0,33,24,57c0,0,24,24,57,24c0,0,33,0,57,-24c0,0,24,-24,24,-57c0,0,0,-33,-24,-57c0,0,-24,-24,-57,-24Z" 
id="f2_25"
transform="scale(0.001,-0.001)" />

<path d="M-17,0l8,40L120,60L276,941L151,960l7,40H909L866,761H817l4,161c0,0,-81,11,-239,11H419L349,543H619l45,119h48L657,354H609l-1,121H338L266,67H463c0,0,190,0,254,12l75,185h49L780,0Z" 
id="f2_15"
transform="scale(0.001,-0.001)" />

<path d="M228,-17c0,0,-76,0,-114,40c0,0,-38,41,-38,117c0,0,0,11,4,39c0,0,4,29,80,470L78,667l6,34H293L217,268c0,0,-17,-94,-17,-124c0,0,0,-34,18,-55c0,0,18,-21,57,-21c0,0,55,0,120,47c0,0,65,47,107,115l83,471H709L595,52L683,33L677,0H469l20,144C489,144,427,64,360,23c0,0,-67,-40,-132,-40Z" 
id="f2_2h"
transform="scale(0.001,-0.001)" />

<path d="M589,416L514,835L294,416ZM536,0l11,54L650,74L604,333H252L115,74L225,54L215,0H-78l10,54L8,74l499,935H686L875,74L956,54L946,0Z" 
id="f3_11"
transform="scale(0.001,-0.001)" />

<path d="M31,0L143,634L56,652l8,49H344L327,550c0,0,41,80,99,125c0,0,59,45,118,45c0,0,36,0,62,-8L562,461H521L489,563c0,0,-56,0,-98,-28c0,0,-42,-28,-81,-90L232,0Z" 
id="f3_2e"
transform="scale(0.001,-0.001)" />

<path d="M292,-14c0,0,-129,0,-199,69c0,0,-71,69,-71,191c0,0,0,138,55,246c0,0,55,108,151,168c0,0,97,60,208,60c0,0,54,0,117,-10c0,0,63,-10,103,-24L619,471H565L555,599c0,0,-40,44,-109,44c0,0,-59,0,-111,-52c0,0,-53,-53,-83,-142c0,0,-30,-90,-30,-195c0,0,0,-83,33,-130c0,0,33,-46,96,-46c0,0,56,0,102,20c0,0,46,21,89,51l32,-48c0,0,-61,-54,-136,-85c0,0,-75,-30,-146,-30Z" 
id="f3_1z"
transform="scale(0.001,-0.001)" />

<path d="M30,0L204,992l-67,18l8,50H417L354,714L330,595l-5,-21c0,0,115,146,285,146c0,0,73,0,117,-40c0,0,44,-40,44,-109c0,0,0,-38,-13,-108L687,67L774,49L764,0H476l76,424c0,0,16,87,16,117c0,0,0,72,-67,72c0,0,-47,0,-106,-52c0,0,-59,-52,-88,-118L228,0Z" 
id="f3_24"
transform="scale(0.001,-0.001)" />

<path d="M304,96c0,0,30,0,67,30c0,0,36,30,65,74l74,420c0,0,-33,25,-92,25c0,0,-55,0,-102,-52c0,0,-47,-53,-75,-143c0,0,-27,-90,-27,-187c0,0,0,-77,26,-122c0,0,26,-45,64,-45ZM215,-14c0,0,-93,0,-145,66c0,0,-52,68,-52,187c0,0,0,130,54,242c0,0,55,111,152,175c0,0,98,64,215,64c0,0,103,0,187,-35l61,28h40L614,67L695,43L689,0H430l-3,104c0,0,-44,-55,-99,-87c0,0,-56,-31,-113,-31Z" 
id="f3_1x"
transform="scale(0.001,-0.001)" />

<path d="M254,378c0,0,91,10,150,67c0,0,59,56,59,132c0,0,0,31,-16,47c0,0,-15,15,-36,15c0,0,-51,0,-96,-76c0,0,-44,-76,-61,-185ZM307,-14c0,0,-132,0,-202,66c0,0,-69,66,-69,194c0,0,0,128,54,238c0,0,55,110,144,173c0,0,90,63,186,63c0,0,103,0,164,-42c0,0,61,-41,61,-111c0,0,0,-67,-50,-124c0,0,-49,-57,-142,-93c0,0,-93,-37,-211,-46c0,0,-3,-15,-3,-50c0,0,0,-176,135,-176c0,0,55,0,102,21c0,0,47,22,88,49l33,-47c0,0,-66,-55,-143,-85c0,0,-77,-30,-147,-30Z" 
id="f3_21"
transform="scale(0.001,-0.001)" />

<path d="M326,57c0,0,51,0,97,53c0,0,45,54,72,144c0,0,27,90,27,184c0,0,0,78,-25,123c0,0,-25,45,-65,45c0,0,-27,0,-62,-28c0,0,-36,-29,-68,-75L230,93c0,0,15,-14,44,-25c0,0,29,-11,52,-11Zm9,-74c0,0,-81,0,-166,14C169,-3,84,9,20,35L189,994l-68,18l8,48H401L345,739c0,0,-15,-87,-32,-145c0,0,46,61,100,93c0,0,54,33,110,33c0,0,89,0,142,-67c0,0,53,-67,53,-183c0,0,0,-131,-51,-245C667,225,616,110,529,46c0,0,-87,-63,-194,-63Z" 
id="f3_1y"
transform="scale(0.001,-0.001)" />

<path d="M221,-14c0,0,-82,0,-127,38C94,24,50,64,50,138c0,0,0,35,13,108l69,378H46l8,48l106,29L264,860H373L345,701H463L449,624H331L263,244c0,0,-12,-61,-12,-89c0,0,0,-40,20,-58c0,0,20,-18,48,-18c0,0,26,0,82,20L421,46C421,46,384,20,328,3c0,0,-56,-17,-107,-17Z" 
id="f3_2g"
transform="scale(0.001,-0.001)" />

<path d="M39,0L151,634L83,652l8,49H363L251,67L340,49L332,0ZM304,831c0,0,-48,0,-82,33c0,0,-33,33,-33,82c0,0,0,48,34,81c0,0,34,33,81,33c0,0,47,0,81,-33c0,0,33,-33,33,-81c0,0,0,-47,-33,-81c0,0,-33,-34,-81,-34Z" 
id="f3_25"
transform="scale(0.001,-0.001)" />

<path d="M460,-325c0,0,-148,79,-231,172c0,0,-84,93,-123,217c0,0,-39,126,-39,304c0,0,0,178,39,303c0,0,39,125,122,217c0,0,82,93,232,172V997c0,0,-91,-52,-145,-134c0,0,-54,-81,-79,-190c0,0,-25,-109,-25,-305c0,0,0,-194,26,-309c0,0,26,-114,82,-193c0,0,56,-79,141,-128v-63Z" 
id="f0_c"
transform="scale(0.001,-0.001)" />

<path d="M49,-325v63c0,0,85,49,140,128c0,0,56,79,83,194c0,0,26,115,26,308c0,0,0,196,-25,305c0,0,-25,109,-79,190c0,0,-54,82,-145,134v63c0,0,149,-80,232,-172c0,0,83,-92,122,-217c0,0,39,-125,39,-303c0,0,0,-177,-39,-303c0,0,-39,-125,-122,-217c0,0,-83,-93,-232,-173Z" 
id="f0_d"
transform="scale(0.001,-0.001)" />

<path d="M58,-234v58c0,0,131,42,131,125c0,0,0,15,-11,27c0,0,-11,12,-38,25C140,1,89,27,89,75c0,0,0,40,25,61c0,0,26,21,65,21c0,0,48,0,77,-34c0,0,30,-34,30,-86c0,0,0,-101,-60,-170c0,0,-59,-69,-168,-101Z" 
id="f0_g"
transform="scale(0.001,-0.001)" />

<path d="M617,0L251,860V60L385,40V0H44V40L172,60V941L44,960v40H347L672,239l355,761h287V960L1185,941V60L1314,40V0H908V40l134,20V859L643,0Z" 
id="f0_1d"
transform="scale(0.001,-0.001)" />

<path d="M-10,0l9,54L130,74L280,926L155,945l10,55H950L905,746H837l4,162c0,0,-81,10,-239,10H499L434,551H644l42,111h67L698,355H632l-3,113H419L351,82H488c0,0,189,0,252,12l77,185h68L822,0Z" 
id="f3_15"
transform="scale(0.001,-0.001)" />

<path d="M219,-17c0,0,-75,0,-118,40c0,0,-42,41,-42,117c0,0,0,14,5,48c0,0,5,34,78,446L56,652l10,49H354L278,278c0,0,-17,-86,-17,-117c0,0,0,-72,68,-72c0,0,48,0,107,53c0,0,60,54,86,117l79,442H800L689,67L771,49L761,0H497l6,132C503,132,387,-17,219,-17Z" 
id="f3_2h"
transform="scale(0.001,-0.001)" />

<path d="M214,536c0,0,-62,0,-108,51c0,0,-45,52,-45,138c0,0,0,101,61,181c0,0,62,80,196,128V998c0,0,-78,-28,-122,-89c0,0,-43,-61,-43,-127c0,0,0,-14,4,-21c0,0,3,-4,7,-4c0,0,3,0,11,5c0,0,24,17,60,17c0,0,43,0,75,-34c0,0,33,-35,33,-83c0,0,0,-50,-37,-88c0,0,-38,-38,-92,-38Zm359,0c0,0,-63,0,-108,51c0,0,-46,52,-46,138c0,0,0,101,62,181c0,0,62,80,196,128V998c0,0,-78,-28,-122,-89c0,0,-44,-61,-44,-127c0,0,0,-14,5,-21c0,0,3,-4,7,-4c0,0,3,0,11,5c0,0,24,17,60,17c0,0,42,0,75,-34c0,0,33,-35,33,-83c0,0,0,-50,-38,-88c0,0,-37,-38,-91,-38Z" 
id="f4_50"
transform="scale(0.001,-0.001)" />

<path d="M244,0V27h34c0,0,44,0,71,16c0,0,19,11,30,36c0,0,8,18,8,94V953H314c0,0,-103,0,-149,-43c0,0,-66,-60,-83,-172H55v274H965V738H938c0,0,-24,95,-53,136c0,0,-29,41,-80,66c0,0,-28,13,-99,13H631V173c0,0,0,-78,8,-97c0,0,9,-20,34,-34c0,0,25,-15,68,-15h33V0Z" 
id="f4_1k"
transform="scale(0.001,-0.001)" />

<path d="M57,0V26c0,0,45,4,61,25c0,0,16,22,16,113V550c0,0,0,59,-6,76c0,0,-7,21,-22,30c0,0,-14,10,-49,14v27H342l1,-158c0,0,69,109,121,144c0,0,52,36,100,36c0,0,42,0,66,-26c0,0,25,-26,25,-73c0,0,0,-50,-24,-77c0,0,-25,-28,-59,-28c0,0,-39,0,-68,25c0,0,-28,26,-33,29c0,0,-8,4,-17,4c0,0,-22,0,-41,-16c0,0,-31,-26,-46,-73c0,0,-24,-72,-24,-159V122c0,0,0,-42,5,-54c0,0,9,-21,27,-30c0,0,17,-9,59,-12V0Z" 
id="f4_2e"
transform="scale(0.001,-0.001)" />

<path d="M304,-20c0,0,-59,0,-105,36c0,0,-45,36,-61,84c0,0,-16,49,-16,169V546c0,0,0,79,-14,98c0,0,-15,20,-61,26v27H331V221c0,0,0,-74,8,-96c0,0,7,-21,22,-33c0,0,15,-11,35,-11c0,0,27,0,49,14c0,0,30,20,71,78V546c0,0,0,79,-14,98c0,0,-15,20,-61,26v27H726V152c0,0,0,-81,14,-100c0,0,15,-20,61,-26V0H516V93C516,93,466,34,416,7c0,0,-50,-27,-112,-27Z" 
id="f4_2h"
transform="scale(0.001,-0.001)" />

<path d="M458,424c0,0,0,120,-13,165c0,0,-13,44,-40,67c0,0,-16,14,-42,14c0,0,-39,0,-63,-38c0,0,-44,-66,-44,-182V424ZM358,-20c0,0,-155,0,-235,119c0,0,-64,96,-64,239c0,0,0,174,94,277c0,0,94,104,221,104c0,0,106,0,184,-87c0,0,78,-87,84,-257H259c0,0,7,-139,74,-220c0,0,51,-62,124,-62c0,0,45,0,81,25c0,0,37,25,79,90l25,-16C642,192,585,76,517,28c0,0,-69,-48,-159,-48Z" 
id="f4_21"
transform="scale(0.001,-0.001)" />

<path d="M434,31c0,0,38,0,65,22c0,0,28,22,46,86c0,0,18,64,18,231c0,0,0,161,-40,220c0,0,-29,44,-78,44c0,0,-64,0,-123,-73V251c0,0,0,-95,4,-121c0,0,8,-44,36,-71c0,0,28,-28,72,-28ZM115,-20V867c0,0,0,61,-5,75c0,0,-7,21,-23,31c0,0,-17,10,-55,12v27H322V628c0,0,88,91,192,91c0,0,72,0,135,-42c0,0,64,-43,99,-120c0,0,36,-78,36,-179c0,0,0,-114,-45,-208C739,170,693,77,617,28c0,0,-76,-48,-174,-48c0,0,-56,0,-100,18c0,0,-44,17,-87,57L141,-20Z" 
id="f4_1y"
transform="scale(0.001,-0.001)" />

<path d="M350,115c0,0,37,0,86,42V391c0,0,-90,-53,-134,-113c0,0,-29,-41,-29,-82c0,0,0,-34,24,-60c0,0,19,-21,53,-21ZM207,-9c0,0,-59,0,-99,38c0,0,-40,40,-40,99c0,0,0,80,69,143c0,0,69,64,299,170v70c0,0,0,79,-8,100c0,0,-9,20,-33,36c0,0,-23,15,-53,15c0,0,-49,0,-80,-22c0,0,-19,-13,-19,-31c0,0,0,-16,21,-39c0,0,28,-32,28,-62c0,0,0,-36,-27,-62c0,0,-27,-26,-71,-26c0,0,-47,0,-79,29c0,0,-32,28,-32,66c0,0,0,54,43,103c0,0,42,48,118,75c0,0,76,26,158,26c0,0,99,0,157,-42c0,0,58,-43,75,-92c0,0,11,-31,11,-144V170c0,0,0,-47,3,-60c0,0,4,-12,11,-18c0,0,8,-6,18,-6c0,0,19,0,39,28L738,96c0,0,-37,-56,-77,-81c0,0,-40,-24,-90,-24c0,0,-60,0,-94,27c0,0,-33,28,-41,85C436,103,309,-9,207,-9Z" 
id="f4_1x"
transform="scale(0.001,-0.001)" />

<path d="M365,-20c0,0,-139,0,-223,105c0,0,-83,105,-83,253c0,0,0,142,76,250c0,0,92,131,253,131c0,0,108,0,172,-55c0,0,63,-54,63,-121c0,0,0,-43,-25,-68c0,0,-26,-25,-68,-25c0,0,-44,0,-73,29c0,0,-28,29,-35,104c0,0,-5,47,-22,65c0,0,-17,19,-40,19c0,0,-36,0,-61,-38c0,0,-39,-58,-39,-176c0,0,0,-99,31,-188c0,0,32,-90,86,-134c0,0,41,-32,97,-32c0,0,36,0,69,17c0,0,33,17,78,65l23,-18C644,163,595,70,521,25c0,0,-73,-45,-156,-45Z" 
id="f4_1z"
transform="scale(0.001,-0.001)" />

<path d="M298,-9c0,0,-67,0,-113,36c0,0,-46,37,-58,83c0,0,-8,25,-8,137V624H28v26c0,0,94,66,161,139c0,0,66,73,115,163h25V697H494V624H329V193c0,0,0,-60,5,-78c0,0,6,-17,20,-28c0,0,14,-11,26,-11c0,0,48,0,92,75l22,-17C494,134,434,-9,298,-9Z" 
id="f4_2g"
transform="scale(0.001,-0.001)" />

<path d="M32,0V26c0,0,46,2,69,27c0,0,14,18,14,92V551c0,0,0,75,-17,95c0,0,-17,21,-66,24v27H325V145c0,0,0,-74,17,-95c0,0,17,-21,68,-24V0ZM220,804c0,0,-48,0,-82,33c0,0,-33,34,-33,82c0,0,0,48,33,82c0,0,34,33,82,33c0,0,48,0,82,-33c0,0,33,-34,33,-82c0,0,0,-48,-34,-82c0,0,-34,-33,-81,-33Z" 
id="f4_25"
transform="scale(0.001,-0.001)" />

<path d="M87,536v37c0,0,77,28,120,89c0,0,44,61,44,127c0,0,0,14,-4,21c0,0,-2,4,-6,4c0,0,-4,0,-12,-6c0,0,-24,-17,-60,-17c0,0,-43,0,-75,35c0,0,-32,34,-32,82c0,0,0,51,37,89c0,0,37,37,92,37c0,0,61,0,107,-51c0,0,46,-51,46,-137c0,0,0,-101,-62,-181c0,0,-62,-80,-195,-129Zm359,0v37c0,0,76,28,120,89c0,0,44,61,44,127c0,0,0,14,-4,21c0,0,-3,4,-6,4c0,0,-4,0,-12,-6c0,0,-24,-17,-60,-17c0,0,-43,0,-75,35c0,0,-33,34,-33,82c0,0,0,51,38,89c0,0,37,37,91,37c0,0,62,0,108,-51c0,0,46,-51,46,-137c0,0,0,-101,-62,-181c0,0,-62,-80,-195,-129Z" 
id="f4_51"
transform="scale(0.001,-0.001)" />

<path d="M191,-18c0,0,-51,0,-87,36c0,0,-37,36,-37,87c0,0,0,52,37,88c0,0,36,37,87,37c0,0,52,0,89,-37c0,0,36,-36,36,-88c0,0,0,-51,-37,-87c0,0,-36,-36,-88,-36Z" 
id="f4_i"
transform="scale(0.001,-0.001)" />

<path d="M41,0V34L426,641H261c0,0,-42,0,-80,-7c0,0,-39,-7,-54,-19L104,515H69V701H586V665L201,60H407c0,0,42,0,89,10c0,0,47,10,66,25l39,147h35L617,0Z" 
id="f0_2m"
transform="scale(0.001,-0.001)" />

<path d="M55,0V40L184,60V941L55,960v40H455V960L327,941V60L455,40V0Z" 
id="f0_19"
transform="scale(0.001,-0.001)" />

<path d="M57,302V417H454V302Z" 
id="f0_h"
transform="scale(0.001,-0.001)" />

<path d="M477,0V33l64,19L348,354L257,254V52L331,33V0H44V33l89,19v956L29,1026v34H257V338L544,647l-73,20v34H718V667L631,650L431,446L688,50L764,33V0Z" 
id="f0_27"
transform="scale(0.001,-0.001)" />

<path d="M410,-14c0,0,-80,0,-162,14c0,0,-81,14,-144,38V270h48L178,134c0,0,28,-35,95,-62c0,0,68,-27,134,-27c0,0,104,0,163,53c0,0,58,54,58,148c0,0,0,54,-23,89c0,0,-22,35,-59,59c0,0,-37,24,-84,41c0,0,-47,17,-97,34c0,0,-49,17,-96,38c0,0,-47,21,-84,53c0,0,-37,32,-60,79c0,0,-23,48,-23,117c0,0,0,119,90,187c0,0,89,68,248,68c0,0,121,0,263,-32V771H654L628,893c0,0,-76,55,-188,55c0,0,-100,0,-156,-40c0,0,-56,-41,-56,-112c0,0,0,-49,22,-81c0,0,23,-32,60,-55c0,0,37,-22,84,-39c0,0,48,-16,97,-34c0,0,50,-17,97,-39c0,0,48,-22,85,-56c0,0,36,-34,59,-83c0,0,23,-49,23,-120c0,0,0,-145,-89,-224c0,0,-89,-79,-256,-79Z" 
id="f0_1j"
transform="scale(0.001,-0.001)" />

<path d="M41,0V49l69,18V992l-72,18v50H325V756c0,0,0,-49,-4,-116l51,26c0,0,106,54,190,54c0,0,194,0,194,-207V67L827,49V0H478V49l63,18V484c0,0,0,63,-27,98c0,0,-26,35,-75,35c0,0,-57,0,-114,-25V67L389,49V0Z" 
id="f1_24"
transform="scale(0.001,-0.001)" />

<path d="M327,-14c0,0,-101,0,-156,45c0,0,-55,45,-55,131V624H25v48l108,29l87,159H332V701H480V624H332V176c0,0,0,-49,20,-73c0,0,20,-25,53,-25c0,0,40,0,97,12V26c0,0,-22,-15,-76,-27c0,0,-55,-13,-99,-13Z" 
id="f1_2g"
transform="scale(0.001,-0.001)" />

<path d="M159,-329c0,0,-61,0,-123,14v180H81l32,-94c0,0,21,-17,55,-17c0,0,28,0,50,13c0,0,21,14,40,39c0,0,20,25,37,62c0,0,17,37,50,110L64,634L15,652v49H374V652L290,632L455,244L602,634l-82,18v49H749V652L698,637L421,-44c0,0,-47,-121,-83,-176c0,0,-36,-55,-80,-82c0,0,-43,-27,-99,-27Z" 
id="f1_2l"
transform="scale(0.001,-0.001)" />

<path d="M425,-14c0,0,-187,0,-280,90c0,0,-93,90,-93,276c0,0,0,115,42,198c0,0,43,82,121,126c0,0,78,44,182,44c0,0,104,0,227,-26V486H571L539,609c0,0,-25,19,-50,26c0,0,-24,7,-65,7c0,0,-44,0,-79,-35c0,0,-36,-35,-56,-98c0,0,-20,-64,-20,-153c0,0,0,-150,47,-214c0,0,47,-64,148,-64c0,0,103,0,176,21V42C640,42,606,15,547,0c0,0,-59,-14,-122,-14Z" 
id="f1_1z"
transform="scale(0.001,-0.001)" />

<path d="M287,-18c0,0,-194,0,-194,206V634L23,652v49H309V217c0,0,0,-63,26,-98c0,0,27,-35,76,-35c0,0,57,0,113,25V634l-64,18v49H740V67L809,49V0H536L526,61L475,35c0,0,-104,-53,-188,-53Z" 
id="f1_2h"
transform="scale(0.001,-0.001)" />

<path d="M577,-14c0,0,-243,0,-379,132C198,118,63,250,63,488c0,0,0,258,130,391c0,0,131,132,387,132c0,0,156,0,335,-38l5,-218H871L848,884c0,0,-52,32,-121,50c0,0,-69,17,-141,17c0,0,-191,0,-279,-112c0,0,-88,-113,-88,-349c0,0,0,-217,92,-332c0,0,92,-115,268,-115c0,0,85,0,160,20c0,0,76,21,120,55l27,149h49L930,32c0,0,-164,-46,-353,-46Z" 
id="f0_13"
transform="scale(0.001,-0.001)" />

<path d="M54,0V40L172,60V941L44,960v40H794V760H745L721,922c0,0,-83,11,-241,11H316V516H611l23,120h46V328H634L611,449H316V60L483,40V0Z" 
id="f0_16"
transform="scale(0.001,-0.001)" />

<path d="M712,0L354,900L205,60L336,40L329,0H-10l7,40L127,60L283,941L157,960l8,40H454L752,250L873,941L742,960l7,40h341l-8,-40L951,941L785,0Z" 
id="f2_1e"
transform="scale(0.001,-0.001)" />

<path d="M325,47c0,0,68,0,130,54c0,0,61,55,97,149c0,0,36,94,36,202c0,0,0,103,-39,156c0,0,-39,53,-113,53c0,0,-67,0,-128,-54c0,0,-61,-55,-96,-149c0,0,-35,-94,-35,-204c0,0,0,-101,39,-154c0,0,39,-53,109,-53Zm-6,-61c0,0,-124,0,-199,79c0,0,-74,79,-74,214c0,0,0,120,51,222c0,0,51,102,143,160c0,0,91,59,205,59c0,0,124,0,199,-80c0,0,74,-79,74,-214c0,0,0,-120,-51,-222C667,204,615,102,524,43c0,0,-91,-57,-205,-57Z" 
id="f2_2b"
transform="scale(0.001,-0.001)" />

<path d="M228,-14c0,0,-103,0,-209,46L49,200H83L95,99c0,0,20,-21,55,-38c0,0,36,-16,81,-16c0,0,163,0,163,133c0,0,0,44,-35,78c0,0,-34,34,-113,72c0,0,-75,37,-112,81c0,0,-36,45,-36,104c0,0,0,99,66,153c0,0,67,54,184,54c0,0,85,0,200,-26L521,538H486l-11,80c0,0,-47,42,-124,42c0,0,-61,0,-97,-28c0,0,-37,-28,-37,-87c0,0,0,-40,31,-71c0,0,32,-30,119,-75c0,0,78,-40,113,-86c0,0,36,-47,36,-107c0,0,0,-113,-71,-167c0,0,-72,-53,-217,-53Z" 
id="f2_2f"
transform="scale(0.001,-0.001)" />

<path d="M46,0c0,0,-2,48,16,93c0,0,27,74,88,146c0,0,61,71,176,165c0,0,178,146,241,232c0,0,63,85,63,161c0,0,0,80,-57,135c0,0,-58,55,-149,55c0,0,-98,0,-156,-59c0,0,-58,-58,-59,-160L71,782c0,0,15,154,107,235c0,0,93,81,249,81c0,0,157,0,249,-87c0,0,92,-88,92,-217c0,0,0,-65,-27,-129c0,0,-27,-63,-89,-133c0,0,-62,-70,-207,-193C445,339,324,238,290,202c0,0,-35,-36,-57,-73H770V0Z" 
id="f5_m"
transform="scale(0.001,-0.001)" />


</defs>
</svg>