<?xml version="1.0" encoding="UTF-8" standalone="no"?>
<!DOCTYPE svg PUBLIC "-//W3C//DTD SVG 1.1//EN"
"http://www.w3.org/Graphics/SVG/1.1/DTD/svg11.dtd">
<svg viewBox="0 0 909 1286" version="1.1" xmlns="http://www.w3.org/2000/svg" xmlns:xlink="http://www.w3.org/1999/xlink">
<defs>
</defs>
<image preserveAspectRatio="none" x="110" y="55" width="364" height="208" xlink:href="img/1.png" />
<g fill="#000000" >
<use xlink:href="#f0_3d" transform="matrix(12,0,0,12,82.5,302.2)" />
<use xlink:href="#f1_12" transform="matrix(12,0,0,12,110,302.2)" />
<use xlink:href="#f1_2b" transform="matrix(12,0,0,12,122.1,302.2)" />
<use xlink:href="#f1_20" transform="matrix(12,0,0,12,131.7,302.2)" />
<use xlink:href="#f1_2l" transform="matrix(12,0,0,12,140.8,302.2)" />
<use xlink:href="#f1_1z" transform="matrix(12,0,0,12,154,302.2)" />
<use xlink:href="#f1_2b" transform="matrix(12,0,0,12,162.1,302.2)" />
<use xlink:href="#f1_2a" transform="matrix(12,0,0,12,171.6,302.2)" />
<use xlink:href="#f1_2f" transform="matrix(12,0,0,12,180.4,302.2)" />
<use xlink:href="#f1_25" transform="matrix(12,0,0,12,187.7,302.2)" />
<use xlink:href="#f1_2f" transform="matrix(12,0,0,12,192.5,302.2)" />
<use xlink:href="#f1_2g" transform="matrix(12,0,0,12,199.4,302.2)" />
<use xlink:href="#f1_2f" transform="matrix(12,0,0,12,204.9,302.2)" />
<use xlink:href="#f1_2b" transform="matrix(12,0,0,12,216.6,302.2)" />
<use xlink:href="#f1_22" transform="matrix(12,0,0,12,226.1,302.2)" />
<use xlink:href="#f1_22" transform="matrix(12,0,0,12,236.8,302.2)" />
<use xlink:href="#f1_2b" transform="matrix(12,0,0,12,242.3,302.2)" />
<use xlink:href="#f1_2h" transform="matrix(12,0,0,12,251.8,302.2)" />
<use xlink:href="#f1_2e" transform="matrix(12,0,0,12,260.9,302.2)" />
<use xlink:href="#f1_2c" transform="matrix(12,0,0,12,271.9,302.2)" />
<use xlink:href="#f1_1x" transform="matrix(12,0,0,12,281.1,302.2)" />
<use xlink:href="#f1_2e" transform="matrix(12,0,0,12,289.1,302.2)" />
<use xlink:href="#f1_2g" transform="matrix(12,0,0,12,295,302.2)" />
<use xlink:href="#f1_2f" transform="matrix(12,0,0,12,300.5,302.2)" />
<use xlink:href="#f2_u" transform="matrix(12,0,0,12,307.7,302.2)" />
<use xlink:href="#f2_24" transform="matrix(12,0,0,12,318.7,302.2)" />
<use xlink:href="#f2_21" transform="matrix(12,0,0,12,329,302.2)" />
<use xlink:href="#f2_1x" transform="matrix(12,0,0,12,337,302.2)" />
<use xlink:href="#f2_20" transform="matrix(12,0,0,12,346.2,302.2)" />
<use xlink:href="#f2_g" transform="matrix(12,0,0,12,356.1,302.2)" />
<use xlink:href="#f2_29" transform="matrix(12,0,0,12,365.6,302.2)" />
<use xlink:href="#f2_1x" transform="matrix(12,0,0,12,380.6,302.2)" />
<use xlink:href="#f2_2a" transform="matrix(12,0,0,12,389.8,302.2)" />
<use xlink:href="#f2_2g" transform="matrix(12,0,0,12,400,302.2)" />
<use xlink:href="#f2_28" transform="matrix(12,0,0,12,406.2,302.2)" />
<use xlink:href="#f2_21" transform="matrix(12,0,0,12,411,302.2)" />
<use xlink:href="#f2_g" transform="matrix(12,0,0,12,419.1,302.2)" />
<use xlink:href="#f2_2i" transform="matrix(12,0,0,12,428.6,302.2)" />
<use xlink:href="#f2_25" transform="matrix(12,0,0,12,437.7,302.2)" />
<use xlink:href="#f2_2f" transform="matrix(12,0,0,12,442.8,302.2)" />
<use xlink:href="#f2_1z" transform="matrix(12,0,0,12,449.8,302.2)" />
<use xlink:href="#f2_21" transform="matrix(12,0,0,12,457.9,302.2)" />
<use xlink:href="#f2_2e" transform="matrix(12,0,0,12,466,302.2)" />
<use xlink:href="#f2_1x" transform="matrix(12,0,0,12,473.7,302.2)" />
<use xlink:href="#f2_28" transform="matrix(12,0,0,12,483.2,302.2)" />
<use xlink:href="#f2_24" transform="matrix(12,0,0,12,492.7,302.2)" />
<use xlink:href="#f2_2h" transform="matrix(12,0,0,12,503,302.2)" />
<use xlink:href="#f2_29" transform="matrix(12,0,0,12,513.2,302.2)" />
<use xlink:href="#f2_2c" transform="matrix(12,0,0,12,528.2,302.2)" />
<use xlink:href="#f2_g" transform="matrix(12,0,0,12,538.5,302.2)" />
<use xlink:href="#f2_1x" transform="matrix(12,0,0,12,548,302.2)" />
<use xlink:href="#f2_2a" transform="matrix(12,0,0,12,557.1,302.2)" />
<use xlink:href="#f2_20" transform="matrix(12,0,0,12,567.4,302.2)" />
<use xlink:href="#f2_22" transform="matrix(12,0,0,12,582.4,302.2)" />
<use xlink:href="#f2_2b" transform="matrix(12,0,0,12,588.3,302.2)" />
<use xlink:href="#f2_2b" transform="matrix(12,0,0,12,597.4,302.2)" />
<use xlink:href="#f2_2g" transform="matrix(12,0,0,12,606.6,302.2)" />
<use xlink:href="#f2_i" transform="matrix(12,0,0,12,612.5,302.2)" />
<use xlink:href="#f1_1k" transform="matrix(12,0,0,12,220.1,323.5)" />
<use xlink:href="#f1_24" transform="matrix(12,0,0,12,231.4,323.5)" />
<use xlink:href="#f1_21" transform="matrix(12,0,0,12,240.2,323.5)" />
<use xlink:href="#f1_24" transform="matrix(12,0,0,12,253,323.5)" />
<use xlink:href="#f1_21" transform="matrix(12,0,0,12,261.8,323.5)" />
<use xlink:href="#f1_1x" transform="matrix(12,0,0,12,270.3,323.5)" />
<use xlink:href="#f1_20" transform="matrix(12,0,0,12,278.3,323.5)" />
<use xlink:href="#f1_2e" transform="matrix(12,0,0,12,292.2,323.5)" />
<use xlink:href="#f1_21" transform="matrix(12,0,0,12,298.5,323.5)" />
<use xlink:href="#f1_23" transform="matrix(12,0,0,12,306.5,323.5)" />
<use xlink:href="#f1_25" transform="matrix(12,0,0,12,316,323.5)" />
<use xlink:href="#f1_2b" transform="matrix(12,0,0,12,320.4,323.5)" />
<use xlink:href="#f1_2a" transform="matrix(12,0,0,12,329.9,323.5)" />
<use xlink:href="#f1_24" transform="matrix(12,0,0,12,343.5,323.5)" />
<use xlink:href="#f1_1x" transform="matrix(12,0,0,12,352.3,323.5)" />
<use xlink:href="#f1_2f" transform="matrix(12,0,0,12,360.7,323.5)" />
<use xlink:href="#f1_2f" transform="matrix(12,0,0,12,372.4,323.5)" />
<use xlink:href="#f1_21" transform="matrix(12,0,0,12,379.4,323.5)" />
<use xlink:href="#f1_2a" transform="matrix(12,0,0,12,387.8,323.5)" />
<use xlink:href="#f1_2f" transform="matrix(12,0,0,12,397,323.5)" />
<use xlink:href="#f1_2b" transform="matrix(12,0,0,12,403.9,323.5)" />
<use xlink:href="#f1_2e" transform="matrix(12,0,0,12,413.5,323.5)" />
<use xlink:href="#f1_2l" transform="matrix(12,0,0,12,419.7,323.5)" />
<use xlink:href="#f1_2g" transform="matrix(12,0,0,12,432.9,323.5)" />
<use xlink:href="#f1_21" transform="matrix(12,0,0,12,438.3,323.5)" />
<use xlink:href="#f1_2a" transform="matrix(12,0,0,12,446.4,323.5)" />
<use xlink:href="#f1_2g" transform="matrix(12,0,0,12,455.2,323.5)" />
<use xlink:href="#f1_1x" transform="matrix(12,0,0,12,460.7,323.5)" />
<use xlink:href="#f1_1z" transform="matrix(12,0,0,12,468.7,323.5)" />
<use xlink:href="#f1_28" transform="matrix(12,0,0,12,477.2,323.5)" />
<use xlink:href="#f1_21" transform="matrix(12,0,0,12,481.6,323.5)" />
<use xlink:href="#f1_2f" transform="matrix(12,0,0,12,490,323.5)" />
<use xlink:href="#f1_i" transform="matrix(12,0,0,12,496.9,323.5)" />
<use xlink:href="#f1_1k" transform="matrix(12,0,0,12,220.1,344.4)" />
<use xlink:href="#f1_24" transform="matrix(12,0,0,12,231.4,344.4)" />
<use xlink:href="#f1_21" transform="matrix(12,0,0,12,240.2,344.4)" />
<use xlink:href="#f1_2i" transform="matrix(12,0,0,12,254.5,344.4)" />
<use xlink:href="#f1_25" transform="matrix(12,0,0,12,263.7,344.4)" />
<use xlink:href="#f1_2f" transform="matrix(12,0,0,12,268.4,344.4)" />
<use xlink:href="#f1_1z" transform="matrix(12,0,0,12,275.4,344.4)" />
<use xlink:href="#f1_21" transform="matrix(12,0,0,12,283.5,344.4)" />
<use xlink:href="#f1_2e" transform="matrix(12,0,0,12,291.5,344.4)" />
<use xlink:href="#f1_1x" transform="matrix(12,0,0,12,297.8,344.4)" />
<use xlink:href="#f1_28" transform="matrix(12,0,0,12,306.2,344.4)" />
<use xlink:href="#f1_24" transform="matrix(12,0,0,12,317.2,344.4)" />
<use xlink:href="#f1_2h" transform="matrix(12,0,0,12,326,344.4)" />
<use xlink:href="#f1_29" transform="matrix(12,0,0,12,335.5,344.4)" />
<use xlink:href="#f1_2c" transform="matrix(12,0,0,12,349.4,344.4)" />
<use xlink:href="#f1_1z" transform="matrix(12,0,0,12,364.4,344.4)" />
<use xlink:href="#f1_2b" transform="matrix(12,0,0,12,372.5,344.4)" />
<use xlink:href="#f1_2a" transform="matrix(12,0,0,12,382,344.4)" />
<use xlink:href="#f1_2g" transform="matrix(12,0,0,12,390.8,344.4)" />
<use xlink:href="#f1_1x" transform="matrix(12,0,0,12,396.3,344.4)" />
<use xlink:href="#f1_25" transform="matrix(12,0,0,12,404.7,344.4)" />
<use xlink:href="#f1_2a" transform="matrix(12,0,0,12,409.5,344.4)" />
<use xlink:href="#f1_2f" transform="matrix(12,0,0,12,418.3,344.4)" />
<use xlink:href="#f1_2g" transform="matrix(12,0,0,12,431.1,344.4)" />
<use xlink:href="#f1_24" transform="matrix(12,0,0,12,436.6,344.4)" />
<use xlink:href="#f1_21" transform="matrix(12,0,0,12,445.7,344.4)" />
<use xlink:href="#f1_25" transform="matrix(12,0,0,12,460,344.4)" />
<use xlink:href="#f1_29" transform="matrix(12,0,0,12,464.7,344.4)" />
<use xlink:href="#f1_2c" transform="matrix(12,0,0,12,478.7,344.4)" />
<use xlink:href="#f1_2b" transform="matrix(12,0,0,12,487.8,344.4)" />
<use xlink:href="#f1_2e" transform="matrix(12,0,0,12,497.3,344.4)" />
<use xlink:href="#f1_2g" transform="matrix(12,0,0,12,503.6,344.4)" />
<use xlink:href="#f1_1x" transform="matrix(12,0,0,12,509,344.4)" />
<use xlink:href="#f1_2a" transform="matrix(12,0,0,12,517.1,344.4)" />
<use xlink:href="#f1_2g" transform="matrix(12,0,0,12,525.9,344.4)" />
<use xlink:href="#f1_25" transform="matrix(12,0,0,12,537.2,344.4)" />
<use xlink:href="#f1_2a" transform="matrix(12,0,0,12,542,344.4)" />
<use xlink:href="#f1_2g" transform="matrix(12,0,0,12,550.8,344.4)" />
<use xlink:href="#f1_21" transform="matrix(12,0,0,12,556.3,344.4)" />
<use xlink:href="#f1_2e" transform="matrix(12,0,0,12,564.4,344.4)" />
<use xlink:href="#f1_2a" transform="matrix(12,0,0,12,570.6,344.4)" />
<use xlink:href="#f1_1x" transform="matrix(12,0,0,12,579.4,344.4)" />
<use xlink:href="#f1_28" transform="matrix(12,0,0,12,587.8,344.4)" />
<use xlink:href="#f1_2b" transform="matrix(12,0,0,12,598.8,344.4)" />
<use xlink:href="#f1_2e" transform="matrix(12,0,0,12,607.9,344.4)" />
<use xlink:href="#f1_23" transform="matrix(12,0,0,12,614.1,344.4)" />
<use xlink:href="#f1_1x" transform="matrix(12,0,0,12,623.3,344.4)" />
<use xlink:href="#f1_2a" transform="matrix(12,0,0,12,631.4,344.4)" />
<use xlink:href="#f1_2f" transform="matrix(12,0,0,12,640.2,344.4)" />
<use xlink:href="#f1_i" transform="matrix(12,0,0,12,647.1,344.4)" />
<use xlink:href="#f1_19" transform="matrix(12,0,0,12,657.7,344.4)" />
<use xlink:href="#f1_2g" transform="matrix(12,0,0,12,664,344.4)" />
<use xlink:href="#f1_25" transform="matrix(12,0,0,12,675.3,344.4)" />
<use xlink:href="#f1_2f" transform="matrix(12,0,0,12,679.7,344.4)" />
<use xlink:href="#f1_1z" transform="matrix(12,0,0,12,692.5,344.4)" />
<use xlink:href="#f1_2b" transform="matrix(12,0,0,12,700.6,344.4)" />
<use xlink:href="#f1_2i" transform="matrix(12,0,0,12,710.1,344.4)" />
<use xlink:href="#f1_21" transform="matrix(12,0,0,12,718.9,344.4)" />
<use xlink:href="#f1_2e" transform="matrix(12,0,0,12,727,344.4)" />
<use xlink:href="#f1_21" transform="matrix(12,0,0,12,733.2,344.4)" />
<use xlink:href="#f1_20" transform="matrix(12,0,0,12,741.2,344.4)" />
<use xlink:href="#f1_1y" transform="matrix(12,0,0,12,756.6,344.4)" />
<use xlink:href="#f1_2l" transform="matrix(12,0,0,12,765.8,344.4)" />
<use xlink:href="#f1_1x" transform="matrix(12,0,0,12,780.4,344.4)" />
<use xlink:href="#f1_2f" transform="matrix(12,0,0,12,794.3,344.4)" />
<use xlink:href="#f1_2b" transform="matrix(12,0,0,12,801.3,344.4)" />
<use xlink:href="#f1_22" transform="matrix(12,0,0,12,811.2,344.4)" />
<use xlink:href="#f1_2g" transform="matrix(12,0,0,12,816.7,344.4)" />
<use xlink:href="#f1_1x" transform="matrix(12,0,0,12,828,344.4)" />
<use xlink:href="#f1_2a" transform="matrix(12,0,0,12,836.1,344.4)" />
<use xlink:href="#f1_20" transform="matrix(12,0,0,12,844.9,344.4)" />
<use xlink:href="#f1_2f" transform="matrix(12,0,0,12,220.1,365.7)" />
<use xlink:href="#f1_2c" transform="matrix(12,0,0,12,227,365.7)" />
<use xlink:href="#f1_2b" transform="matrix(12,0,0,12,236.2,365.7)" />
<use xlink:href="#f1_2a" transform="matrix(12,0,0,12,245.7,365.7)" />
<use xlink:href="#f1_23" transform="matrix(12,0,0,12,254.5,365.7)" />
<use xlink:href="#f1_2l" transform="matrix(12,0,0,12,264,365.7)" />
<use xlink:href="#f1_28" transform="matrix(12,0,0,12,277.6,365.7)" />
<use xlink:href="#f1_1x" transform="matrix(12,0,0,12,282.4,365.7)" />
<use xlink:href="#f1_2l" transform="matrix(12,0,0,12,290.8,365.7)" />
<use xlink:href="#f1_21" transform="matrix(12,0,0,12,299.6,365.7)" />
<use xlink:href="#f1_2e" transform="matrix(12,0,0,12,307.6,365.7)" />
<use xlink:href="#f1_2b" transform="matrix(12,0,0,12,318.6,365.7)" />
<use xlink:href="#f1_22" transform="matrix(12,0,0,12,328.5,365.7)" />
<use xlink:href="#f1_2f" transform="matrix(12,0,0,12,338.7,365.7)" />
<use xlink:href="#f1_27" transform="matrix(12,0,0,12,345.7,365.7)" />
<use xlink:href="#f1_25" transform="matrix(12,0,0,12,355.2,365.7)" />
<use xlink:href="#f1_2a" transform="matrix(12,0,0,12,360,365.7)" />
<use xlink:href="#f1_1z" transform="matrix(12,0,0,12,374.2,365.7)" />
<use xlink:href="#f1_1x" transform="matrix(12,0,0,12,382.2,365.7)" />
<use xlink:href="#f1_28" transform="matrix(12,0,0,12,390.6,365.7)" />
<use xlink:href="#f1_28" transform="matrix(12,0,0,12,395.7,365.7)" />
<use xlink:href="#f1_21" transform="matrix(12,0,0,12,400.5,365.7)" />
<use xlink:href="#f1_20" transform="matrix(12,0,0,12,408.6,365.7)" />
<use xlink:href="#f1_2g" transform="matrix(12,0,0,12,422.5,365.7)" />
<use xlink:href="#f1_24" transform="matrix(12,0,0,12,428,365.7)" />
<use xlink:href="#f1_21" transform="matrix(12,0,0,12,436.8,365.7)" />
<use xlink:href="#f1_29" transform="matrix(12,0,0,12,450,365.7)" />
<use xlink:href="#f1_1x" transform="matrix(12,0,0,12,463.9,365.7)" />
<use xlink:href="#f1_2a" transform="matrix(12,0,0,12,472.3,365.7)" />
<use xlink:href="#f1_2g" transform="matrix(12,0,0,12,481.1,365.7)" />
<use xlink:href="#f1_28" transform="matrix(12,0,0,12,487,365.7)" />
<use xlink:href="#f1_21" transform="matrix(12,0,0,12,491.4,365.7)" />
<use xlink:href="#f1_2b" transform="matrix(12,0,0,12,504.2,365.7)" />
<use xlink:href="#f1_2e" transform="matrix(12,0,0,12,513.7,365.7)" />
<use xlink:href="#f1_2c" transform="matrix(12,0,0,12,524.7,365.7)" />
<use xlink:href="#f1_1x" transform="matrix(12,0,0,12,533.8,365.7)" />
<use xlink:href="#f1_28" transform="matrix(12,0,0,12,541.9,365.7)" />
<use xlink:href="#f1_28" transform="matrix(12,0,0,12,546.7,365.7)" />
<use xlink:href="#f1_25" transform="matrix(12,0,0,12,551.8,365.7)" />
<use xlink:href="#f1_2h" transform="matrix(12,0,0,12,556.6,365.7)" />
<use xlink:href="#f1_29" transform="matrix(12,0,0,12,566.1,365.7)" />
<use xlink:href="#f1_i" transform="matrix(12,0,0,12,579.7,365.7)" />
<use xlink:href="#f1_1d" transform="matrix(12,0,0,12,589.8,365.7)" />
<use xlink:href="#f1_1x" transform="matrix(12,0,0,12,605.9,365.7)" />
<use xlink:href="#f1_2a" transform="matrix(12,0,0,12,614.4,365.7)" />
<use xlink:href="#f1_2g" transform="matrix(12,0,0,12,623.2,365.7)" />
<use xlink:href="#f1_28" transform="matrix(12,0,0,12,628.6,365.7)" />
<use xlink:href="#f1_21" transform="matrix(12,0,0,12,633.4,365.7)" />
<use xlink:href="#f1_2f" transform="matrix(12,0,0,12,646.2,365.7)" />
<use xlink:href="#f1_21" transform="matrix(12,0,0,12,653.2,365.7)" />
<use xlink:href="#f1_1z" transform="matrix(12,0,0,12,661.3,365.7)" />
<use xlink:href="#f1_2e" transform="matrix(12,0,0,12,669.3,365.7)" />
<use xlink:href="#f1_21" transform="matrix(12,0,0,12,675.5,365.7)" />
<use xlink:href="#f1_2g" transform="matrix(12,0,0,12,683.6,365.7)" />
<use xlink:href="#f1_21" transform="matrix(12,0,0,12,689.1,365.7)" />
<use xlink:href="#f1_2f" transform="matrix(12,0,0,12,697.2,365.7)" />
<use xlink:href="#f1_2f" transform="matrix(12,0,0,12,708.9,365.7)" />
<use xlink:href="#f1_24" transform="matrix(12,0,0,12,716.2,365.7)" />
<use xlink:href="#f1_21" transform="matrix(12,0,0,12,725,365.7)" />
<use xlink:href="#f1_28" transform="matrix(12,0,0,12,733.4,365.7)" />
<use xlink:href="#f1_28" transform="matrix(12,0,0,12,738.5,365.7)" />
<use xlink:href="#f1_i" transform="matrix(12,0,0,12,742.9,365.7)" />
<use xlink:href="#f1_1d" transform="matrix(12,0,0,12,752.8,365.7)" />
<use xlink:href="#f1_1x" transform="matrix(12,0,0,12,768.9,365.7)" />
<use xlink:href="#f1_2a" transform="matrix(12,0,0,12,777.3,365.7)" />
<use xlink:href="#f1_2g" transform="matrix(12,0,0,12,786.1,365.7)" />
<use xlink:href="#f1_28" transform="matrix(12,0,0,12,792,365.7)" />
<use xlink:href="#f1_21" transform="matrix(12,0,0,12,796.4,365.7)" />
<use xlink:href="#f1_1z" transform="matrix(12,0,0,12,809.2,365.7)" />
<use xlink:href="#f1_1x" transform="matrix(12,0,0,12,817.3,365.7)" />
<use xlink:href="#f1_2i" transform="matrix(12,0,0,12,825.7,365.7)" />
<use xlink:href="#f1_25" transform="matrix(12,0,0,12,834.9,365.7)" />
<use xlink:href="#f1_2g" transform="matrix(12,0,0,12,839.3,365.7)" />
<use xlink:href="#f1_2l" transform="matrix(12,0,0,12,845.5,365.7)" />
<use xlink:href="#f1_24" transform="matrix(12,0,0,12,220.1,386.6)" />
<use xlink:href="#f1_1x" transform="matrix(12,0,0,12,228.9,386.6)" />
<use xlink:href="#f1_2f" transform="matrix(12,0,0,12,237.3,386.6)" />
<use xlink:href="#f1_23" transform="matrix(12,0,0,12,249,386.6)" />
<use xlink:href="#f1_25" transform="matrix(12,0,0,12,258.5,386.6)" />
<use xlink:href="#f1_28" transform="matrix(12,0,0,12,263.3,386.6)" />
<use xlink:href="#f1_28" transform="matrix(12,0,0,12,268.4,386.6)" />
<use xlink:href="#f1_2f" transform="matrix(12,0,0,12,273.2,386.6)" />
<use xlink:href="#f1_i" transform="matrix(12,0,0,12,280.2,386.6)" />
<use xlink:href="#f1_16" transform="matrix(12,0,0,12,220.1,407.8)" />
<use xlink:href="#f1_2b" transform="matrix(12,0,0,12,230,407.8)" />
<use xlink:href="#f1_2b" transform="matrix(12,0,0,12,239.5,407.8)" />
<use xlink:href="#f1_2g" transform="matrix(12,0,0,12,248.7,407.8)" />
<use xlink:href="#f1_25" transform="matrix(12,0,0,12,258.5,407.8)" />
<use xlink:href="#f1_2g" transform="matrix(12,0,0,12,262.9,407.8)" />
<use xlink:href="#f1_25" transform="matrix(12,0,0,12,273.2,407.8)" />
<use xlink:href="#f1_2f" transform="matrix(12,0,0,12,277.9,407.8)" />
<use xlink:href="#f1_2f" transform="matrix(12,0,0,12,289.7,407.8)" />
<use xlink:href="#f1_2b" transform="matrix(12,0,0,12,296.6,407.8)" />
<use xlink:href="#f1_22" transform="matrix(12,0,0,12,306.1,407.8)" />
<use xlink:href="#f1_2g" transform="matrix(12,0,0,12,311.6,407.8)" />
<use xlink:href="#f1_1x" transform="matrix(12,0,0,12,321.9,407.8)" />
<use xlink:href="#f1_2a" transform="matrix(12,0,0,12,329.9,407.8)" />
<use xlink:href="#f1_20" transform="matrix(12,0,0,12,338.7,407.8)" />
<use xlink:href="#f1_29" transform="matrix(12,0,0,12,353,407.8)" />
<use xlink:href="#f1_2h" transform="matrix(12,0,0,12,366.6,407.8)" />
<use xlink:href="#f1_2f" transform="matrix(12,0,0,12,376.1,407.8)" />
<use xlink:href="#f1_1z" transform="matrix(12,0,0,12,383.1,407.8)" />
<use xlink:href="#f1_2h" transform="matrix(12,0,0,12,391.1,407.8)" />
<use xlink:href="#f1_28" transform="matrix(12,0,0,12,400.6,407.8)" />
<use xlink:href="#f1_1x" transform="matrix(12,0,0,12,405.4,407.8)" />
<use xlink:href="#f1_2e" transform="matrix(12,0,0,12,413.5,407.8)" />
<use xlink:href="#f1_i" transform="matrix(12,0,0,12,419.7,407.8)" />
<use xlink:href="#f1_19" transform="matrix(12,0,0,12,429.2,407.8)" />
<use xlink:href="#f1_2g" transform="matrix(12,0,0,12,435.1,407.8)" />
<use xlink:href="#f1_25" transform="matrix(12,0,0,12,445.3,407.8)" />
<use xlink:href="#f1_2f" transform="matrix(12,0,0,12,449.7,407.8)" />
<use xlink:href="#f1_2g" transform="matrix(12,0,0,12,461.4,407.8)" />
<use xlink:href="#f1_24" transform="matrix(12,0,0,12,466.9,407.8)" />
<use xlink:href="#f1_21" transform="matrix(12,0,0,12,475.7,407.8)" />
<use xlink:href="#f1_28" transform="matrix(12,0,0,12,488.9,407.8)" />
<use xlink:href="#f1_2b" transform="matrix(12,0,0,12,493.3,407.8)" />
<use xlink:href="#f1_1z" transform="matrix(12,0,0,12,502.8,407.8)" />
<use xlink:href="#f1_2b" transform="matrix(12,0,0,12,510.8,407.8)" />
<use xlink:href="#f1_29" transform="matrix(12,0,0,12,520.4,407.8)" />
<use xlink:href="#f1_2b" transform="matrix(12,0,0,12,533.9,407.8)" />
<use xlink:href="#f1_2g" transform="matrix(12,0,0,12,543.4,407.8)" />
<use xlink:href="#f1_2b" transform="matrix(12,0,0,12,548.5,407.8)" />
<use xlink:href="#f1_2e" transform="matrix(12,0,0,12,558.1,407.8)" />
<use xlink:href="#f1_2l" transform="matrix(12,0,0,12,564.3,407.8)" />
<use xlink:href="#f1_2b" transform="matrix(12,0,0,12,577.5,407.8)" />
<use xlink:href="#f1_2e" transform="matrix(12,0,0,12,587,407.8)" />
<use xlink:href="#f1_23" transform="matrix(12,0,0,12,592.9,407.8)" />
<use xlink:href="#f1_1x" transform="matrix(12,0,0,12,602,407.8)" />
<use xlink:href="#f1_2a" transform="matrix(12,0,0,12,610.1,407.8)" />
<use xlink:href="#f1_i" transform="matrix(12,0,0,12,618.9,407.8)" />
</g>
<image preserveAspectRatio="none" x="220" y="433" width="303" height="164" xlink:href="img/2.png" />
<g fill="#000000" >
<use xlink:href="#f0_3d" transform="matrix(12,0,0,12,82.5,615.4)" />
<use xlink:href="#f2_14" transform="matrix(12,0,0,12,110,615.4)" />
<use xlink:href="#f2_25" transform="matrix(12,0,0,12,123.3,615.4)" />
<use xlink:href="#f2_23" transform="matrix(12,0,0,12,128.4,615.4)" />
<use xlink:href="#f2_21" transform="matrix(12,0,0,12,137.5,615.4)" />
<use xlink:href="#f2_2f" transform="matrix(12,0,0,12,145.6,615.4)" />
<use xlink:href="#f2_2g" transform="matrix(12,0,0,12,152.6,615.4)" />
<use xlink:href="#f2_25" transform="matrix(12,0,0,12,158.8,615.4)" />
<use xlink:href="#f2_2i" transform="matrix(12,0,0,12,163.9,615.4)" />
<use xlink:href="#f2_21" transform="matrix(12,0,0,12,173,615.4)" />
<use xlink:href="#f2_2f" transform="matrix(12,0,0,12,185.9,615.4)" />
<use xlink:href="#f2_2l" transform="matrix(12,0,0,12,192.9,615.4)" />
<use xlink:href="#f2_2f" transform="matrix(12,0,0,12,202,615.4)" />
<use xlink:href="#f2_2g" transform="matrix(12,0,0,12,209,615.4)" />
<use xlink:href="#f2_21" transform="matrix(12,0,0,12,215.2,615.4)" />
<use xlink:href="#f2_29" transform="matrix(12,0,0,12,223.3,615.4)" />
<use xlink:href="#f1_u" transform="matrix(12,0,0,12,238.4,615.4)" />
<use xlink:href="#f1_19" transform="matrix(12,0,0,12,248.3,615.4)" />
<use xlink:href="#f1_2g" transform="matrix(12,0,0,12,254.6,615.4)" />
<use xlink:href="#f1_25" transform="matrix(12,0,0,12,264.8,615.4)" />
<use xlink:href="#f1_2f" transform="matrix(12,0,0,12,269.2,615.4)" />
<use xlink:href="#f1_2j" transform="matrix(12,0,0,12,280.9,615.4)" />
<use xlink:href="#f1_21" transform="matrix(12,0,0,12,294.2,615.4)" />
<use xlink:href="#f1_28" transform="matrix(12,0,0,12,302.5,615.4)" />
<use xlink:href="#f1_28" transform="matrix(12,0,0,12,307.6,615.4)" />
<use xlink:href="#f1_20" transform="matrix(12,0,0,12,316.8,615.4)" />
<use xlink:href="#f1_21" transform="matrix(12,0,0,12,326,615.4)" />
<use xlink:href="#f1_2i" transform="matrix(12,0,0,12,334.4,615.4)" />
<use xlink:href="#f1_21" transform="matrix(12,0,0,12,343.2,615.4)" />
<use xlink:href="#f1_28" transform="matrix(12,0,0,12,351.6,615.4)" />
<use xlink:href="#f1_2b" transform="matrix(12,0,0,12,356,615.4)" />
<use xlink:href="#f1_2c" transform="matrix(12,0,0,12,365.5,615.4)" />
<use xlink:href="#f1_21" transform="matrix(12,0,0,12,375,615.4)" />
<use xlink:href="#f1_20" transform="matrix(12,0,0,12,383.1,615.4)" />
<use xlink:href="#f1_g" transform="matrix(12,0,0,12,392.3,615.4)" />
<use xlink:href="#f1_2j" transform="matrix(12,0,0,12,401.8,615.4)" />
<use xlink:href="#f1_25" transform="matrix(12,0,0,12,415,615.4)" />
<use xlink:href="#f1_2g" transform="matrix(12,0,0,12,419.4,615.4)" />
<use xlink:href="#f1_24" transform="matrix(12,0,0,12,424.9,615.4)" />
<use xlink:href="#f1_2f" transform="matrix(12,0,0,12,438.4,615.4)" />
<use xlink:href="#f1_1x" transform="matrix(12,0,0,12,445.7,615.4)" />
<use xlink:href="#f1_28" transform="matrix(12,0,0,12,454.1,615.4)" />
<use xlink:href="#f1_25" transform="matrix(12,0,0,12,458.9,615.4)" />
<use xlink:href="#f1_2i" transform="matrix(12,0,0,12,463.7,615.4)" />
<use xlink:href="#f1_1x" transform="matrix(12,0,0,12,472.8,615.4)" />
<use xlink:href="#f1_2e" transform="matrix(12,0,0,12,481.2,615.4)" />
<use xlink:href="#f1_2l" transform="matrix(12,0,0,12,487.8,615.4)" />
<use xlink:href="#f1_23" transform="matrix(12,0,0,12,501,615.4)" />
<use xlink:href="#f1_28" transform="matrix(12,0,0,12,510.5,615.4)" />
<use xlink:href="#f1_1x" transform="matrix(12,0,0,12,514.9,615.4)" />
<use xlink:href="#f1_2a" transform="matrix(12,0,0,12,523.3,615.4)" />
<use xlink:href="#f1_20" transform="matrix(12,0,0,12,532.1,615.4)" />
<use xlink:href="#f1_2f" transform="matrix(12,0,0,12,541.7,615.4)" />
<use xlink:href="#f1_1x" transform="matrix(12,0,0,12,553.4,615.4)" />
<use xlink:href="#f1_2a" transform="matrix(12,0,0,12,561.4,615.4)" />
<use xlink:href="#f1_20" transform="matrix(12,0,0,12,570.2,615.4)" />
<use xlink:href="#f1_28" transform="matrix(12,0,0,12,584.5,615.4)" />
<use xlink:href="#f1_25" transform="matrix(12,0,0,12,589.6,615.4)" />
<use xlink:href="#f1_2i" transform="matrix(12,0,0,12,594.4,615.4)" />
<use xlink:href="#f1_21" transform="matrix(12,0,0,12,603.6,615.4)" />
<use xlink:href="#f1_2e" transform="matrix(12,0,0,12,611.7,615.4)" />
<use xlink:href="#f1_i" transform="matrix(12,0,0,12,617.9,615.4)" />
<use xlink:href="#f0_3d" transform="matrix(12,0,0,12,82.5,637.8)" />
<use xlink:href="#f2_13" transform="matrix(12,0,0,12,110,637.8)" />
<use xlink:href="#f2_25" transform="matrix(12,0,0,12,123.3,637.8)" />
<use xlink:href="#f2_2e" transform="matrix(12,0,0,12,128.4,637.8)" />
<use xlink:href="#f2_1z" transform="matrix(12,0,0,12,136.1,637.8)" />
<use xlink:href="#f2_2h" transform="matrix(12,0,0,12,144.1,637.8)" />
<use xlink:href="#f2_28" transform="matrix(12,0,0,12,154.8,637.8)" />
<use xlink:href="#f2_1x" transform="matrix(12,0,0,12,159.5,637.8)" />
<use xlink:href="#f2_2g" transform="matrix(12,0,0,12,168.7,637.8)" />
<use xlink:href="#f2_2b" transform="matrix(12,0,0,12,174.9,637.8)" />
<use xlink:href="#f2_2e" transform="matrix(12,0,0,12,184.4,637.8)" />
<use xlink:href="#f2_2l" transform="matrix(12,0,0,12,192.2,637.8)" />
<use xlink:href="#f2_2f" transform="matrix(12,0,0,12,206.1,637.8)" />
<use xlink:href="#f2_2l" transform="matrix(12,0,0,12,213.1,637.8)" />
<use xlink:href="#f2_2f" transform="matrix(12,0,0,12,222.3,637.8)" />
<use xlink:href="#f2_2g" transform="matrix(12,0,0,12,229.2,637.8)" />
<use xlink:href="#f2_21" transform="matrix(12,0,0,12,235.4,637.8)" />
<use xlink:href="#f2_29" transform="matrix(12,0,0,12,243.9,637.8)" />
<use xlink:href="#f1_u" transform="matrix(12,0,0,12,259,637.8)" />
<use xlink:href="#f1_19" transform="matrix(12,0,0,12,268.9,637.8)" />
<use xlink:href="#f1_2f" transform="matrix(12,0,0,12,275.1,637.8)" />
<use xlink:href="#f1_2b" transform="matrix(12,0,0,12,286.8,637.8)" />
<use xlink:href="#f1_22" transform="matrix(12,0,0,12,296.3,637.8)" />
<use xlink:href="#f1_2g" transform="matrix(12,0,0,12,306.6,637.8)" />
<use xlink:href="#f1_24" transform="matrix(12,0,0,12,312.1,637.8)" />
<use xlink:href="#f1_21" transform="matrix(12,0,0,12,320.9,637.8)" />
<use xlink:href="#f1_2b" transform="matrix(12,0,0,12,333.3,637.8)" />
<use xlink:href="#f1_2c" transform="matrix(12,0,0,12,342.8,637.8)" />
<use xlink:href="#f1_21" transform="matrix(12,0,0,12,352,637.8)" />
<use xlink:href="#f1_2a" transform="matrix(12,0,0,12,360.1,637.8)" />
<use xlink:href="#f1_2g" transform="matrix(12,0,0,12,373.6,637.8)" />
<use xlink:href="#f1_2l" transform="matrix(12,0,0,12,379.1,637.8)" />
<use xlink:href="#f1_2c" transform="matrix(12,0,0,12,387.5,637.8)" />
<use xlink:href="#f1_21" transform="matrix(12,0,0,12,396.7,637.8)" />
<use xlink:href="#f1_i" transform="matrix(12,0,0,12,404.8,637.8)" />
<use xlink:href="#f1_18" transform="matrix(12,0,0,12,414.3,637.8)" />
<use xlink:href="#f1_21" transform="matrix(12,0,0,12,427.5,637.8)" />
<use xlink:href="#f1_1x" transform="matrix(12,0,0,12,435.5,637.8)" />
<use xlink:href="#f1_2e" transform="matrix(12,0,0,12,443.6,637.8)" />
<use xlink:href="#f1_2g" transform="matrix(12,0,0,12,449.8,637.8)" />
<use xlink:href="#f1_25" transform="matrix(12,0,0,12,460.1,637.8)" />
<use xlink:href="#f1_2f" transform="matrix(12,0,0,12,464.5,637.8)" />
<use xlink:href="#f1_1z" transform="matrix(12,0,0,12,476.2,637.8)" />
<use xlink:href="#f1_24" transform="matrix(12,0,0,12,484.6,637.8)" />
<use xlink:href="#f1_1x" transform="matrix(12,0,0,12,493.4,637.8)" />
<use xlink:href="#f1_29" transform="matrix(12,0,0,12,501.8,637.8)" />
<use xlink:href="#f1_1y" transform="matrix(12,0,0,12,515.7,637.8)" />
<use xlink:href="#f1_21" transform="matrix(12,0,0,12,524.9,637.8)" />
<use xlink:href="#f1_2e" transform="matrix(12,0,0,12,533,637.8)" />
<use xlink:href="#f1_21" transform="matrix(12,0,0,12,539.2,637.8)" />
<use xlink:href="#f1_20" transform="matrix(12,0,0,12,547.2,637.8)" />
<use xlink:href="#f1_1x" transform="matrix(12,0,0,12,561.2,637.8)" />
<use xlink:href="#f1_2a" transform="matrix(12,0,0,12,569.6,637.8)" />
<use xlink:href="#f1_20" transform="matrix(12,0,0,12,578.4,637.8)" />
<use xlink:href="#f1_2i" transform="matrix(12,0,0,12,592.3,637.8)" />
<use xlink:href="#f1_1x" transform="matrix(12,0,0,12,601.1,637.8)" />
<use xlink:href="#f1_28" transform="matrix(12,0,0,12,609.5,637.8)" />
<use xlink:href="#f1_2i" transform="matrix(12,0,0,12,614.3,637.8)" />
<use xlink:href="#f1_2h" transform="matrix(12,0,0,12,623.4,637.8)" />
<use xlink:href="#f1_28" transform="matrix(12,0,0,12,633,637.8)" />
<use xlink:href="#f1_1x" transform="matrix(12,0,0,12,637.7,637.8)" />
<use xlink:href="#f1_2e" transform="matrix(12,0,0,12,645.8,637.8)" />
<use xlink:href="#f1_i" transform="matrix(12,0,0,12,652,637.8)" />
</g>
<image preserveAspectRatio="none" x="119" y="663" width="597" height="374" xlink:href="img/3.png" />
<g fill="#000000" >
<use xlink:href="#f0_3d" transform="matrix(12,0,0,12,82.5,1055.9)" />
<use xlink:href="#f2_15" transform="matrix(12,0,0,12,110,1055.9)" />
<use xlink:href="#f2_2k" transform="matrix(12,0,0,12,122.1,1055.9)" />
<use xlink:href="#f2_1z" transform="matrix(12,0,0,12,131.3,1055.9)" />
<use xlink:href="#f2_2e" transform="matrix(12,0,0,12,139.7,1055.9)" />
<use xlink:href="#f2_21" transform="matrix(12,0,0,12,147.4,1055.9)" />
<use xlink:href="#f2_2g" transform="matrix(12,0,0,12,155.5,1055.9)" />
<use xlink:href="#f2_25" transform="matrix(12,0,0,12,161.7,1055.9)" />
<use xlink:href="#f2_2b" transform="matrix(12,0,0,12,166.8,1055.9)" />
<use xlink:href="#f2_2a" transform="matrix(12,0,0,12,176,1055.9)" />
<use xlink:href="#f1_u" transform="matrix(12,0,0,12,186.3,1055.9)" />
<use xlink:href="#f1_19" transform="matrix(12,0,0,12,196.2,1055.9)" />
<use xlink:href="#f1_2g" transform="matrix(12,0,0,12,202.1,1055.9)" />
<use xlink:href="#f1_24" transform="matrix(12,0,0,12,212.3,1055.9)" />
<use xlink:href="#f1_1x" transform="matrix(12,0,0,12,221.1,1055.9)" />
<use xlink:href="#f1_2f" transform="matrix(12,0,0,12,229.2,1055.9)" />
<use xlink:href="#f1_1e" transform="matrix(12,0,0,12,240.9,1055.9)" />
<use xlink:href="#f1_21" transform="matrix(12,0,0,12,254.2,1055.9)" />
<use xlink:href="#f1_2c" transform="matrix(12,0,0,12,262.3,1055.9)" />
<use xlink:href="#f1_24" transform="matrix(12,0,0,12,271.4,1055.9)" />
<use xlink:href="#f1_2e" transform="matrix(12,0,0,12,280.2,1055.9)" />
<use xlink:href="#f1_25" transform="matrix(12,0,0,12,286.8,1055.9)" />
<use xlink:href="#f1_20" transform="matrix(12,0,0,12,291.6,1055.9)" />
<use xlink:href="#f1_25" transform="matrix(12,0,0,12,301.1,1055.9)" />
<use xlink:href="#f1_1x" transform="matrix(12,0,0,12,305.9,1055.9)" />
<use xlink:href="#f1_i" transform="matrix(12,0,0,12,313.9,1055.9)" />
<use xlink:href="#f3_m" transform="matrix(8,0,0,8,785.7,1264.1)" />
<use xlink:href="#f3_l" transform="matrix(8,0,0,8,792.5,1264.1)" />
</g>
<defs>
<path d="M273,157c0,0,-114,0,-193,80C80,237,0,317,0,431c0,0,0,112,80,192c0,0,79,80,193,80c0,0,113,0,192,-80c0,0,80,-80,80,-192c0,0,0,-114,-80,-194c0,0,-79,-80,-192,-80Z" 
id="f0_3d"
transform="scale(0.001,-0.001)" />

<path d="M536,63c0,0,127,0,191,54c0,0,63,54,63,168c0,0,0,105,-70,154c0,0,-70,49,-225,49H316V67c0,0,103,-4,220,-4ZM480,555c0,0,121,0,178,48c0,0,57,48,57,155c0,0,0,91,-58,133c0,0,-57,42,-186,42H316V555ZM554,-4L235,0H44V40L172,60V941L44,960v40H501c0,0,191,0,279,-56c0,0,88,-56,88,-179c0,0,0,-88,-55,-149c0,0,-54,-62,-151,-83c0,0,135,-14,209,-79c0,0,73,-65,73,-166c0,0,0,-144,-99,-219C845,69,745,-4,554,-4Z" 
id="f1_12"
transform="scale(0.001,-0.001)" />

<path d="M377,45c0,0,99,0,147,73c0,0,47,73,47,237c0,0,0,161,-47,233c0,0,-47,72,-147,72c0,0,-97,0,-141,-69c0,0,-44,-69,-44,-236c0,0,0,-169,45,-240c0,0,44,-70,140,-70Zm0,-59c0,0,-158,0,-238,94c0,0,-81,95,-81,274c0,0,0,178,81,272c0,0,80,94,244,94c0,0,160,0,241,-92c0,0,82,-92,82,-274c0,0,0,-368,-329,-368Z" 
id="f1_2b"
transform="scale(0.001,-0.001)" />

<path d="M383,64c0,0,85,0,152,28V645c0,0,-67,13,-152,13c0,0,-194,0,-194,-314c0,0,0,-141,48,-211c0,0,48,-69,146,-69ZM342,-14c0,0,-287,0,-287,358c0,0,0,184,82,280c0,0,81,96,239,96c0,0,81,0,163,-18c0,0,-4,25,-4,124v182l-118,18v34H659V52L745,33V0H548l-9,52c0,0,-84,-66,-197,-66Z" 
id="f1_20"
transform="scale(0.001,-0.001)" />

<path d="M148,-329c0,0,-58,0,-114,13v151H69l24,-71c0,0,23,-17,64,-17c0,0,39,0,72,22c0,0,33,23,60,67c0,0,27,44,68,157L90,649L19,668v33H344V668L233,648L423,158L606,649L497,668v33H758V668L685,652L411,-43c0,0,-48,-124,-84,-177c0,0,-36,-54,-79,-82c0,0,-44,-27,-100,-27Z" 
id="f1_2l"
transform="scale(0.001,-0.001)" />

<path d="M399,-14c0,0,-341,0,-341,370c0,0,0,175,87,269c0,0,87,95,249,95c0,0,101,0,220,-23V501H573L541,625c0,0,-62,35,-149,35c0,0,-200,0,-200,-304c0,0,0,-158,61,-225c0,0,61,-67,189,-67c0,0,109,0,189,24V43C631,43,595,16,530,1c0,0,-64,-15,-131,-15Z" 
id="f1_1z"
transform="scale(0.001,-0.001)" />

<path d="M439,0V33l93,19V500c0,0,0,62,-30,97c0,0,-31,36,-94,36c0,0,-67,0,-165,-22V52L338,33V0H35V33l84,19V649L35,668v33H235l7,-57c0,0,57,33,122,54c0,0,65,22,108,22c0,0,91,0,137,-53c0,0,47,-53,47,-154V52L741,33V0Z" 
id="f1_2a"
transform="scale(0.001,-0.001)" />

<path d="M278,-14c0,0,-52,0,-115,11c0,0,-63,10,-99,23V193H98L134,95c0,0,56,-50,146,-50c0,0,144,0,144,123c0,0,0,91,-114,130l-66,21c0,0,-75,25,-110,50c0,0,-34,26,-53,63c0,0,-18,36,-18,89c0,0,0,92,63,145c0,0,63,54,170,54c0,0,77,0,193,-23V544H454l-32,81c0,0,-39,35,-124,35c0,0,-61,0,-92,-30c0,0,-32,-30,-32,-80c0,0,0,-43,29,-72c0,0,28,-29,86,-48c0,0,110,-38,144,-55c0,0,33,-17,57,-42c0,0,23,-25,36,-57c0,0,13,-32,13,-79c0,0,0,-104,-66,-158c0,0,-66,-53,-195,-53Z" 
id="f1_2f"
transform="scale(0.001,-0.001)" />

<path d="M32,0V33L151,52V649L52,668v33H275V52L395,33V0ZM201,850c0,0,-32,0,-56,24c0,0,-24,24,-24,56c0,0,0,34,24,58c0,0,24,24,56,24c0,0,34,0,58,-24c0,0,24,-24,24,-58c0,0,0,-32,-24,-56c0,0,-24,-24,-58,-24Z" 
id="f1_25"
transform="scale(0.001,-0.001)" />

<path d="M249,-14c0,0,-71,0,-107,42c0,0,-35,42,-35,119V639H15v33l93,29l76,159h47V701H391V639H231V161c0,0,0,-48,22,-73c0,0,22,-24,57,-24c0,0,44,0,106,12V26C416,26,389,8,340,-2c0,0,-49,-12,-91,-12Z" 
id="f1_2g"
transform="scale(0.001,-0.001)" />

<path d="M64,0V34L168,59V639H47v36l121,29v49c0,0,0,155,61,239c0,0,62,84,173,84c0,0,58,0,107,-15V908H472l-33,92c0,0,-26,16,-62,16c0,0,-47,0,-66,-42c0,0,-19,-42,-19,-157V701H478V639H292V59L443,34V0Z" 
id="f1_22"
transform="scale(0.001,-0.001)" />

<path d="M289,-14c0,0,-179,0,-179,205V649L20,668v33H233V200c0,0,0,-128,120,-128c0,0,92,0,173,23V649L420,668v33H649V52L738,33V0H533l-6,57C527,57,474,28,405,7c0,0,-69,-21,-116,-21Z" 
id="f1_2h"
transform="scale(0.001,-0.001)" />

<path d="M31,0V33l88,19V649L31,668v33H235l7,-87c0,0,44,37,121,71c0,0,76,35,121,35h11V530H463l-43,82c0,0,-37,0,-88,-10c0,0,-52,-10,-89,-26V52L363,33V0Z" 
id="f1_2e"
transform="scale(0.001,-0.001)" />

<path d="M382,45c0,0,188,0,188,314c0,0,0,143,-47,213c0,0,-46,69,-141,69c0,0,-87,0,-146,-24V58c0,0,67,-13,146,-13ZM25,-325v35l88,18V649L34,668v33H231l1,-41c0,0,31,27,84,43c0,0,53,17,107,17c0,0,134,0,208,-94c0,0,73,-93,73,-267c0,0,0,-178,-80,-276c0,0,-80,-97,-232,-97c0,0,-84,0,-160,16c0,0,4,-53,4,-84V-272l123,-18v-35Z" 
id="f1_2c"
transform="scale(0.001,-0.001)" />

<path d="M284,67c0,0,51,0,88,12c0,0,37,12,74,30V358l-98,-3c0,0,-100,-4,-135,-39c0,0,-35,-35,-35,-117c0,0,0,-132,106,-132ZM233,-14c0,0,-179,0,-179,208c0,0,0,70,27,116c0,0,27,46,87,70c0,0,60,24,173,27l105,3V519c0,0,0,72,-26,107c0,0,-27,34,-82,34c0,0,-75,0,-137,-35L176,538H134V691c0,0,121,26,213,26c0,0,115,0,169,-47c0,0,54,-47,54,-144V52L657,33V0H465L451,70c0,0,-85,-84,-218,-84Z" 
id="f1_1x"
transform="scale(0.001,-0.001)" />

<path d="M248,-20c0,0,-52,0,-87,34c0,0,-36,36,-36,88c0,0,0,52,36,88c0,0,35,36,87,36c0,0,52,0,88,-36c0,0,36,-36,36,-88c0,0,0,-51,-36,-87c0,0,-35,-35,-88,-35Zm0,488c0,0,-52,0,-87,36c0,0,-36,36,-36,88c0,0,0,52,35,88c0,0,35,36,88,36c0,0,53,0,89,-36c0,0,35,-37,35,-88c0,0,0,-51,-36,-87c0,0,-35,-37,-88,-37Z" 
id="f2_u"
transform="scale(0.001,-0.001)" />

<path d="M41,0V49l69,18V992l-72,18v50H325V756c0,0,0,-49,-4,-116l51,26c0,0,106,54,190,54c0,0,194,0,194,-207V67L827,49V0H478V49l63,18V484c0,0,0,63,-27,98c0,0,-26,35,-75,35c0,0,-57,0,-114,-25V67L389,49V0Z" 
id="f2_24"
transform="scale(0.001,-0.001)" />

<path d="M434,423c0,0,0,101,-7,142c0,0,-6,40,-22,60c0,0,-16,19,-45,19c0,0,-44,0,-66,-48c0,0,-22,-49,-22,-173ZM389,-14c0,0,-172,0,-254,89c0,0,-83,90,-83,279c0,0,0,184,79,274c0,0,79,91,238,91c0,0,142,0,206,-76c0,0,64,-76,64,-237V345H271V333c0,0,0,-111,18,-158c0,0,18,-47,58,-72c0,0,40,-25,110,-25c0,0,66,0,166,22V42C623,42,582,18,517,1c0,0,-66,-15,-128,-15Z" 
id="f2_21"
transform="scale(0.001,-0.001)" />

<path d="M345,75c0,0,50,0,110,26V351l-63,-2c0,0,-72,-3,-100,-38c0,0,-28,-35,-28,-113c0,0,0,-63,22,-93c0,0,23,-30,59,-30ZM266,-14c0,0,-217,0,-217,208c0,0,0,79,32,126c0,0,32,48,93,71c0,0,60,22,190,25l91,2V521c0,0,0,126,-104,126c0,0,-62,0,-140,-39L183,521H134V691c0,0,112,17,165,21c0,0,53,5,108,5c0,0,264,0,264,-194V67L741,49V0H483L466,54C466,54,408,14,361,0c0,0,-47,-14,-95,-14Z" 
id="f2_1x"
transform="scale(0.001,-0.001)" />

<path d="M416,68c0,0,60,0,124,32V628c0,0,-58,15,-118,15c0,0,-67,0,-104,-73c0,0,-38,-73,-38,-216c0,0,0,-139,36,-212c0,0,35,-74,100,-74ZM369,-14c0,0,-155,0,-231,88c0,0,-76,90,-76,274c0,0,0,182,82,277c0,0,81,95,236,95c0,0,82,0,165,-20c0,0,-5,24,-5,115V992l-72,18v50H756V67L833,49V0H562L547,40C547,40,505,13,483,4c0,0,-23,-7,-51,-12c0,0,-28,-6,-63,-6Z" 
id="f2_20"
transform="scale(0.001,-0.001)" />

<path d="M20,-236v69c0,0,47,14,81,37c0,0,33,24,52,52c0,0,18,28,18,53c0,0,0,17,-11,28c0,0,-12,12,-45,30c0,0,-57,30,-57,93c0,0,0,48,34,74c0,0,33,25,85,25c0,0,63,0,105,-41c0,0,42,-41,42,-105c0,0,0,-115,-78,-195c0,0,-77,-81,-226,-120Z" 
id="f2_g"
transform="scale(0.001,-0.001)" />

<path d="M41,0V49l69,18V634L41,652v49H313l11,-61l50,26c0,0,105,54,188,54c0,0,125,0,167,-91c0,0,153,91,258,91c0,0,189,0,189,-207V67l71,-17V0H898V50l63,17V484c0,0,0,63,-24,98c0,0,-25,35,-74,35c0,0,-55,0,-119,-31c0,0,7,-32,7,-73V67L821,50V0H473V50l63,17V484c0,0,0,63,-25,98c0,0,-24,35,-73,35c0,0,-49,0,-113,-29V67L389,49V0Z" 
id="f2_29"
transform="scale(0.001,-0.001)" />

<path d="M41,0V49l69,18V634L41,652v49H313l11,-61l50,26c0,0,105,54,188,54c0,0,194,0,194,-207V67L827,49V0H478V49l63,18V484c0,0,0,63,-27,98c0,0,-26,35,-75,35c0,0,-57,0,-114,-25V67L389,49V0Z" 
id="f2_2a"
transform="scale(0.001,-0.001)" />

<path d="M327,-14c0,0,-101,0,-156,45c0,0,-55,45,-55,131V624H25v48l108,29l87,159H332V701H480V624H332V176c0,0,0,-49,20,-73c0,0,20,-25,53,-25c0,0,40,0,97,12V26c0,0,-22,-15,-76,-27c0,0,-55,-13,-99,-13Z" 
id="f2_2g"
transform="scale(0.001,-0.001)" />

<path d="M30,0V49l76,18V992l-72,18v50H322V67L398,49V0Z" 
id="f2_28"
transform="scale(0.001,-0.001)" />

<path d="M342,-14L49,634L0,652v49H359V652L275,632L455,233L617,634l-82,18v49H764V652L713,637L433,-14Z" 
id="f2_2i"
transform="scale(0.001,-0.001)" />

<path d="M34,0V49l76,18V634L38,652v49H325V67L402,49V0ZM217,831c0,0,-48,0,-81,33c0,0,-34,33,-34,82c0,0,0,48,34,81c0,0,34,33,81,33c0,0,48,0,81,-33c0,0,33,-33,33,-81c0,0,0,-47,-33,-81c0,0,-32,-34,-81,-34Z" 
id="f2_25"
transform="scale(0.001,-0.001)" />

<path d="M276,-14c0,0,-57,0,-125,13C151,-1,83,10,48,23V214H97l28,-98c0,0,26,-26,69,-44c0,0,42,-17,86,-17c0,0,65,0,97,28c0,0,32,28,32,71c0,0,0,41,-31,65c0,0,-30,25,-133,57c0,0,-108,34,-154,92c0,0,-45,58,-45,143c0,0,0,95,71,152c0,0,71,57,183,57c0,0,77,0,207,-22V518H457l-24,82c0,0,-21,22,-60,35c0,0,-40,14,-75,14c0,0,-53,0,-79,-22c0,0,-26,-22,-26,-59c0,0,0,-40,32,-65c0,0,32,-26,132,-55c0,0,109,-34,155,-89c0,0,45,-55,45,-137c0,0,0,-117,-72,-177c0,0,-72,-59,-209,-59Z" 
id="f2_2f"
transform="scale(0.001,-0.001)" />

<path d="M425,-14c0,0,-187,0,-280,90c0,0,-93,90,-93,276c0,0,0,115,42,198c0,0,43,82,121,126c0,0,78,44,182,44c0,0,104,0,227,-26V486H571L539,609c0,0,-25,19,-50,26c0,0,-24,7,-65,7c0,0,-44,0,-79,-35c0,0,-36,-35,-56,-98c0,0,-20,-64,-20,-153c0,0,0,-150,47,-214c0,0,47,-64,148,-64c0,0,103,0,176,21V42C640,42,606,15,547,0c0,0,-59,-14,-122,-14Z" 
id="f2_1z"
transform="scale(0.001,-0.001)" />

<path d="M41,0V49l91,18V634L41,652v49H336l8,-145c0,0,80,89,144,128c0,0,64,40,117,40h40V468H604l-45,94c0,0,-47,0,-106,-21c0,0,-60,-20,-105,-48V67L460,49V0Z" 
id="f2_2e"
transform="scale(0.001,-0.001)" />

<path d="M287,-18c0,0,-194,0,-194,206V634L23,652v49H309V217c0,0,0,-63,26,-98c0,0,27,-35,76,-35c0,0,57,0,113,25V634l-64,18v49H740V67L809,49V0H536L526,61L475,35c0,0,-104,-53,-188,-53Z" 
id="f2_2h"
transform="scale(0.001,-0.001)" />

<path d="M438,65c0,0,131,0,131,293c0,0,0,279,-130,279c0,0,-69,0,-127,-29V80c0,0,60,-15,126,-15ZM20,-325v50l76,18V634L19,652v49H304l1,-36c0,0,80,55,194,55c0,0,146,0,218,-86c0,0,71,-86,71,-271c0,0,0,-183,-83,-280c0,0,-83,-97,-238,-97c0,0,-79,0,-160,19c0,0,5,-48,5,-109V-257l103,-18v-50Z" 
id="f2_2c"
transform="scale(0.001,-0.001)" />

<path d="M41,0V49l76,18V624H11v51l106,29v75c0,0,0,144,73,220c0,0,73,77,210,77c0,0,74,0,124,-15V894H476l-22,81c0,0,-18,17,-47,17c0,0,-74,0,-74,-189V701H475V624H333V67L447,49V0Z" 
id="f2_22"
transform="scale(0.001,-0.001)" />

<path d="M379,60c0,0,59,0,84,64c0,0,24,65,24,231c0,0,0,164,-24,227c0,0,-24,63,-84,63c0,0,-57,0,-80,-60c0,0,-22,-61,-22,-230c0,0,0,-173,23,-234c0,0,22,-61,79,-61Zm-2,-74c0,0,-161,0,-240,91c0,0,-79,91,-79,277c0,0,0,186,80,276c0,0,81,90,245,90c0,0,167,0,245,-93c0,0,78,-93,78,-273c0,0,0,-188,-81,-278c0,0,-81,-90,-248,-90Z" 
id="f2_2b"
transform="scale(0.001,-0.001)" />

<path d="M191,-20c0,0,-51,0,-88,34c0,0,-36,36,-36,88c0,0,0,52,36,88c0,0,36,36,88,36c0,0,51,0,88,-36c0,0,36,-36,36,-88c0,0,0,-51,-36,-87c0,0,-36,-35,-88,-35Z" 
id="f2_i"
transform="scale(0.001,-0.001)" />

<path d="M235,0V40L394,60V936H356c0,0,-189,0,-258,-15L78,766H28v234H908V766H857L837,921c0,0,-22,5,-98,9c0,0,-75,4,-165,4H538V60L697,40V0Z" 
id="f1_1k"
transform="scale(0.001,-0.001)" />

<path d="M442,0V33l93,19V504c0,0,0,129,-124,129c0,0,-70,0,-168,-22V52L338,33V0H31V33l88,19v956L15,1026v34H243V756c0,0,0,-77,-5,-112c0,0,54,31,122,53c0,0,68,23,115,23c0,0,91,0,137,-53c0,0,47,-53,47,-154V52L744,33V0Z" 
id="f1_24"
transform="scale(0.001,-0.001)" />

<path d="M495,413c0,0,0,133,-34,190c0,0,-34,57,-105,57c0,0,-78,0,-119,-63c0,0,-42,-62,-42,-184ZM374,-14c0,0,-163,0,-239,87c0,0,-75,88,-75,283c0,0,0,183,77,273c0,0,76,91,219,91c0,0,269,0,269,-306V353H194V340c0,0,0,-103,23,-160c0,0,22,-57,70,-87c0,0,47,-29,124,-29c0,0,40,0,96,6c0,0,55,7,91,15V43C598,43,562,20,500,3c0,0,-61,-17,-126,-17Z" 
id="f1_21"
transform="scale(0.001,-0.001)" />

<path d="M359,-270c0,0,124,0,192,46c0,0,67,47,67,129c0,0,0,43,-26,67c0,0,-26,24,-79,24H242c0,0,-32,-27,-51,-69c0,0,-20,-41,-20,-77c0,0,0,-64,46,-92c0,0,46,-28,142,-28Zm11,561c0,0,81,0,115,47c0,0,34,47,34,141c0,0,0,100,-35,142c0,0,-35,42,-113,42c0,0,-78,0,-114,-43c0,0,-37,-42,-37,-141c0,0,0,-98,36,-143c0,0,36,-45,114,-45ZM359,-329c0,0,-143,0,-218,44c0,0,-75,43,-75,125c0,0,0,39,27,78c0,0,26,38,98,89c0,0,-43,14,-72,48c0,0,-29,35,-29,74L208,262c0,0,-118,55,-118,217c0,0,0,115,73,178c0,0,73,63,211,63c0,0,28,0,71,-6c0,0,44,-6,67,-13l165,83l26,-32L599,644c0,0,50,-56,50,-165c0,0,0,-120,-72,-182c0,0,-73,-62,-208,-62c0,0,-62,0,-114,11L208,148c0,0,2,-13,29,-24c0,0,27,-12,67,-12H512c0,0,113,0,168,-49c0,0,55,-49,55,-134c0,0,0,-79,-44,-137c0,0,-43,-58,-128,-90c0,0,-84,-31,-204,-31Z" 
id="f1_23"
transform="scale(0.001,-0.001)" />

<path d="M31,0V33L150,52v956L31,1026v34H274V52L394,33V0Z" 
id="f1_28"
transform="scale(0.001,-0.001)" />

<path d="M191,-20c0,0,-39,0,-65,25c0,0,-25,27,-25,64c0,0,0,38,26,64c0,0,26,26,64,26c0,0,38,0,64,-26c0,0,26,-26,26,-64c0,0,0,-37,-25,-64c0,0,-26,-25,-65,-25Z" 
id="f1_i"
transform="scale(0.001,-0.001)" />

<path d="M360,-14L72,649L0,668v33H327V668L216,648L420,164L615,649L504,668v33H764V668L697,652L416,-14Z" 
id="f1_2i"
transform="scale(0.001,-0.001)" />

<path d="M431,0V33L535,52V499c0,0,0,62,-32,96c0,0,-32,33,-95,33c0,0,-66,0,-163,-22V52L350,33V0H32V33l89,19V649L32,668v33H237l6,-57c0,0,56,32,119,54c0,0,62,22,110,22c0,0,52,0,95,-20c0,0,44,-19,66,-62c0,0,57,32,134,57c0,0,77,25,128,25c0,0,179,0,179,-207V52l90,-19V0H846V33L950,52V499c0,0,0,129,-119,129c0,0,-19,0,-45,-3c0,0,-26,-3,-52,-7c0,0,-25,-4,-49,-8c0,0,-23,-5,-39,-8c0,0,13,-41,13,-89V52L764,33V0Z" 
id="f1_29"
transform="scale(0.001,-0.001)" />

<path d="M55,0V40L184,60V941L55,960v40H455V960L327,941V60L455,40V0Z" 
id="f1_19"
transform="scale(0.001,-0.001)" />

<path d="M376,50c0,0,103,0,149,80c0,0,46,81,46,240c0,0,0,137,-47,204c0,0,-48,67,-148,67c0,0,-44,0,-87,-7c0,0,-44,-8,-63,-17V62c0,0,63,-12,150,-12Zm3,-64c0,0,-64,0,-141,14c0,0,-78,14,-136,37v971L0,1026v34H226V809c0,0,0,-40,-4,-148c0,0,74,59,188,59c0,0,143,0,219,-87c0,0,77,-87,77,-263c0,0,0,-189,-84,-287c0,0,-84,-97,-243,-97Z" 
id="f1_1y"
transform="scale(0.001,-0.001)" />

<path d="M477,0V33l64,19L348,354L257,254V52L331,33V0H44V33l89,19v956L29,1026v34H257V338L544,647l-73,20v34H718V667L631,650L431,446L688,50L764,33V0Z" 
id="f1_27"
transform="scale(0.001,-0.001)" />

<path d="M617,0L251,860V60L385,40V0H44V40L172,60V941L44,960v40H347L672,239l355,761h287V960L1185,941V60L1314,40V0H908V40l134,20V859L643,0Z" 
id="f1_1d"
transform="scale(0.001,-0.001)" />

<path d="M54,0V40L172,60V941L44,960v40H794V760H745L721,922c0,0,-83,11,-241,11H316V516H611l23,120h46V328H634L611,449H316V60L483,40V0Z" 
id="f1_16"
transform="scale(0.001,-0.001)" />

<path d="M519,79c0,0,97,0,153,42c0,0,57,42,83,131c0,0,26,89,26,248c0,0,0,216,-79,317c0,0,-79,101,-257,101H389V85c0,0,72,-6,130,-6ZM533,-2L198,0H27V54L155,74V926L27,945v55H502c0,0,269,0,398,-122c0,0,129,-122,129,-372c0,0,0,-258,-123,-383C906,123,783,-2,533,-2Z" 
id="f2_14"
transform="scale(0.001,-0.001)" />

<path d="M360,-256c0,0,108,0,167,35c0,0,59,35,59,98c0,0,0,70,-95,70H254c0,0,-65,-47,-65,-108c0,0,0,-47,46,-71c0,0,45,-24,125,-24Zm9,561c0,0,55,0,79,43c0,0,25,43,25,129c0,0,0,87,-24,127c0,0,-25,41,-80,41c0,0,-52,0,-75,-41c0,0,-24,-40,-24,-127c0,0,0,-86,23,-129c0,0,23,-43,76,-43Zm-9,-641c0,0,-153,0,-236,43c0,0,-84,44,-84,120c0,0,0,33,28,65c0,0,27,31,105,76c0,0,-44,17,-75,59c0,0,-31,43,-31,90L192,258c0,0,-133,56,-133,219c0,0,0,116,81,180c0,0,82,63,233,63c0,0,32,0,82,-6c0,0,51,-6,74,-13l168,83l26,-32L638,631c0,0,46,-57,46,-154c0,0,0,-119,-80,-182c0,0,-80,-64,-234,-64c0,0,-59,0,-114,9L238,183c0,0,1,-22,28,-41c0,0,26,-19,64,-19H493c0,0,256,0,256,-196c0,0,0,-81,-44,-139c0,0,-45,-59,-131,-92c0,0,-86,-32,-214,-32Z" 
id="f2_23"
transform="scale(0.001,-0.001)" />

<path d="M159,-329c0,0,-61,0,-123,14v180H81l32,-94c0,0,21,-17,55,-17c0,0,28,0,50,13c0,0,21,14,40,39c0,0,20,25,37,62c0,0,17,37,50,110L64,634L15,652v49H374V652L290,632L455,244L602,634l-82,18v49H749V652L698,637L421,-44c0,0,-47,-121,-83,-176c0,0,-36,-55,-80,-82c0,0,-43,-27,-99,-27Z" 
id="f2_2l"
transform="scale(0.001,-0.001)" />

<path d="M211,-20c0,0,-39,0,-64,25c0,0,-26,27,-26,64c0,0,0,38,26,64c0,0,26,26,64,26c0,0,37,0,64,-25c0,0,26,-26,26,-65c0,0,0,-37,-26,-64c0,0,-26,-25,-64,-25Zm0,556c0,0,-38,0,-64,26c0,0,-26,26,-26,64c0,0,0,37,26,64c0,0,25,27,64,27c0,0,38,0,64,-27c0,0,26,-27,26,-64c0,0,0,-38,-26,-64c0,0,-27,-26,-64,-26Z" 
id="f1_u"
transform="scale(0.001,-0.001)" />

<path d="M327,-14L84,649L1,668v33H335V668L219,648L385,174L554,632h63L786,171L944,649L830,668v33h267V668l-78,-16L784,-14H726L553,448L382,-14Z" 
id="f1_2j"
transform="scale(0.001,-0.001)" />

<path d="M58,-234v58c0,0,131,42,131,125c0,0,0,15,-11,27c0,0,-11,12,-38,25C140,1,89,27,89,75c0,0,0,40,25,61c0,0,26,21,65,21c0,0,48,0,77,-34c0,0,30,-34,30,-86c0,0,0,-101,-60,-170c0,0,-59,-69,-168,-101Z" 
id="f1_g"
transform="scale(0.001,-0.001)" />

<path d="M608,-14c0,0,-251,0,-392,133C216,119,75,252,75,488c0,0,0,257,134,390c0,0,135,133,398,133c0,0,174,0,361,-50l4,-240H905L884,866c0,0,-98,67,-229,67c0,0,-173,0,-253,-108c0,0,-80,-108,-80,-334c0,0,0,-209,84,-319c0,0,83,-109,243,-109c0,0,84,0,147,22c0,0,63,22,99,53l24,164h68L982,48C982,48,915,22,808,4C808,4,700,-14,608,-14Z" 
id="f2_13"
transform="scale(0.001,-0.001)" />

<path d="M44,0V40L172,60V941L44,960v40H445V960L316,941V549H787V941L659,960v40h400V960L930,941V60L1059,40V0H659V40L787,60V481H316V60L445,40V0Z" 
id="f1_18"
transform="scale(0.001,-0.001)" />

<path d="M26,0V54L154,74V926L26,945v55H878V746H810L786,908c0,0,-83,10,-241,10H389V551H651l23,111h67V355H674L651,468H389V82H578c0,0,193,0,252,12l43,185h68L927,0Z" 
id="f2_15"
transform="scale(0.001,-0.001)" />

<path d="M6,0V49L69,61L292,323L91,634L23,652v49H398V652L319,632L421,475L557,634l-71,18v49H725V652L663,637L466,406L689,65L756,49V0H381V49l79,17L337,254L175,65L245,49V0Z" 
id="f2_2k"
transform="scale(0.001,-0.001)" />

<path d="M868,0L251,900V60L385,40V0H44V40L172,60V941L44,960v40H347L862,259V941L727,960v40h341V960L940,941V0Z" 
id="f1_1e"
transform="scale(0.001,-0.001)" />

<path d="M46,0c0,0,-2,48,16,93c0,0,27,74,88,146c0,0,61,71,176,165c0,0,178,146,241,232c0,0,63,85,63,161c0,0,0,80,-57,135c0,0,-58,55,-149,55c0,0,-98,0,-156,-59c0,0,-58,-58,-59,-160L71,782c0,0,15,154,107,235c0,0,93,81,249,81c0,0,157,0,249,-87c0,0,92,-88,92,-217c0,0,0,-65,-27,-129c0,0,-27,-63,-89,-133c0,0,-62,-70,-207,-193C445,339,324,238,290,202c0,0,-35,-36,-57,-73H770V0Z" 
id="f3_m"
transform="scale(0.001,-0.001)" />

<path d="M435,0V856c0,0,-48,-47,-127,-93c0,0,-79,-46,-142,-69V824c0,0,113,52,197,128c0,0,85,75,120,146h86V0Z" 
id="f3_l"
transform="scale(0.001,-0.001)" />


</defs>
</svg>