<?xml version="1.0" encoding="UTF-8" standalone="no"?>
<!DOCTYPE svg PUBLIC "-//W3C//DTD SVG 1.1//EN"
"http://www.w3.org/Graphics/SVG/1.1/DTD/svg11.dtd">
<svg viewBox="0 0 935 1210" version="1.1" xmlns="http://www.w3.org/2000/svg" xmlns:xlink="http://www.w3.org/1999/xlink">
<defs>
<clipPath id="c0_15"><path d="M0,1210V0H935V1210Z" /></clipPath>
<style type="text/css"><![CDATA[
.g0_15{
fill: #FFFFFF;
}
]]></style>
</defs>
<path fill-rule="evenodd" d="M80.3,330.5H882.5V55H80.3V330.5Z" class="g0_15" />
<path fill-rule="evenodd" d="M80.3,383.6H882.5V330.5H80.3v53.1Z" class="g0_15" />
<path fill-rule="evenodd" d="M80.3,436.4H882.5V383.6H80.3v52.8Z" class="g0_15" />
<g clip-path="url(#c0_15)">
<g fill="#000000" >
<use xlink:href="#f0_16" transform="matrix(12,0,0,12,355.8,400.9)" />
<use xlink:href="#f0_25" transform="matrix(12,0,0,12,366.8,400.9)" />
<use xlink:href="#f0_23" transform="matrix(12,0,0,12,371.9,400.9)" />
<use xlink:href="#f0_i" transform="matrix(12,0,0,12,381.1,400.9)" />
<use xlink:href="#f0_p" transform="matrix(12,0,0,12,385.9,400.9)" />
<use xlink:href="#f1_i" transform="matrix(12,0,0,12,395.1,400.9)" />
<use xlink:href="#f1_15" transform="matrix(12,0,0,12,404.6,400.9)" />
<use xlink:href="#f1_2k" transform="matrix(12,0,0,12,416.7,400.9)" />
<use xlink:href="#f1_1x" transform="matrix(12,0,0,12,425.9,400.9)" />
<use xlink:href="#f1_29" transform="matrix(12,0,0,12,434.7,400.9)" />
<use xlink:href="#f1_2c" transform="matrix(12,0,0,12,449.3,400.9)" />
<use xlink:href="#f1_28" transform="matrix(12,0,0,12,458.5,400.9)" />
<use xlink:href="#f1_21" transform="matrix(12,0,0,12,463.6,400.9)" />
<use xlink:href="#f1_2b" transform="matrix(12,0,0,12,476.4,400.9)" />
<use xlink:href="#f1_22" transform="matrix(12,0,0,12,485.2,400.9)" />
<use xlink:href="#f1_20" transform="matrix(12,0,0,12,496.2,400.9)" />
<use xlink:href="#f1_25" transform="matrix(12,0,0,12,505.3,400.9)" />
<use xlink:href="#f1_2a" transform="matrix(12,0,0,12,510.4,400.9)" />
<use xlink:href="#f1_2b" transform="matrix(12,0,0,12,520.7,400.9)" />
<use xlink:href="#f1_22" transform="matrix(12,0,0,12,529.5,400.9)" />
<use xlink:href="#f1_28" transform="matrix(12,0,0,12,535.7,400.9)" />
<use xlink:href="#f1_1x" transform="matrix(12,0,0,12,540.8,400.9)" />
<use xlink:href="#f1_23" transform="matrix(12,0,0,12,550,400.9)" />
<use xlink:href="#f1_21" transform="matrix(12,0,0,12,559.2,400.9)" />
<use xlink:href="#f1_28" transform="matrix(12,0,0,12,567.3,400.9)" />
<use xlink:href="#f1_28" transform="matrix(12,0,0,12,572.4,400.9)" />
<use xlink:href="#f1_1x" transform="matrix(12,0,0,12,577.5,400.9)" />
<use xlink:href="#f1_2g" transform="matrix(12,0,0,12,586.7,400.9)" />
<use xlink:href="#f1_21" transform="matrix(12,0,0,12,591.8,400.9)" />
<use xlink:href="#f1_2f" transform="matrix(12,0,0,12,599.9,400.9)" />
</g>
</g>
<path fill-rule="evenodd" d="M80.3,468.4H882.5v-32H80.3v32Z" class="g0_15" />
<g clip-path="url(#c0_15)">
<g fill="#000000" >
<use xlink:href="#f0_n" transform="matrix(12,0,0,12,82.5,506.9)" />
<use xlink:href="#f0_i" transform="matrix(12,0,0,12,91.7,506.9)" />
<use xlink:href="#f0_15" transform="matrix(12,0,0,12,110,506.9)" />
<use xlink:href="#f0_2h" transform="matrix(12,0,0,12,122.1,506.9)" />
<use xlink:href="#f0_23" transform="matrix(12,0,0,12,132.4,506.9)" />
<use xlink:href="#f0_28" transform="matrix(12,0,0,12,141.6,506.9)" />
<use xlink:href="#f0_21" transform="matrix(12,0,0,12,146.3,506.9)" />
<use xlink:href="#f0_2a" transform="matrix(12,0,0,12,154.4,506.9)" />
<use xlink:href="#f0_2b" transform="matrix(12,0,0,12,164.6,506.9)" />
<use xlink:href="#f0_25" transform="matrix(12,0,0,12,173.8,506.9)" />
<use xlink:href="#f0_20" transform="matrix(12,0,0,12,178.9,506.9)" />
<use xlink:href="#f0_2f" transform="matrix(12,0,0,12,189.2,506.9)" />
<use xlink:href="#f2_15" transform="matrix(12,0,0,12,55,550.5)" />
<use xlink:href="#f2_2h" transform="matrix(12,0,0,12,66.4,550.5)" />
<use xlink:href="#f2_23" transform="matrix(12,0,0,12,75.6,550.5)" />
<use xlink:href="#f2_28" transform="matrix(12,0,0,12,84.7,550.5)" />
<use xlink:href="#f2_21" transform="matrix(12,0,0,12,89.5,550.5)" />
<use xlink:href="#f2_2a" transform="matrix(12,0,0,12,97.9,550.5)" />
<use xlink:href="#f2_2b" transform="matrix(12,0,0,12,106.7,550.5)" />
<use xlink:href="#f2_25" transform="matrix(12,0,0,12,116.2,550.5)" />
<use xlink:href="#f2_20" transform="matrix(12,0,0,12,120.6,550.5)" />
<use xlink:href="#f2_2f" transform="matrix(12,0,0,12,130.1,550.5)" />
<use xlink:href="#f2_1x" transform="matrix(12,0,0,12,141.2,550.5)" />
<use xlink:href="#f2_2e" transform="matrix(12,0,0,12,149.3,550.5)" />
<use xlink:href="#f2_21" transform="matrix(12,0,0,12,155.5,550.5)" />
<use xlink:href="#f2_22" transform="matrix(12,0,0,12,168,550.5)" />
<use xlink:href="#f2_2e" transform="matrix(12,0,0,12,173.5,550.5)" />
<use xlink:href="#f2_21" transform="matrix(12,0,0,12,179.7,550.5)" />
<use xlink:href="#f2_2f" transform="matrix(12,0,0,12,188.1,550.5)" />
<use xlink:href="#f2_24" transform="matrix(12,0,0,12,195.4,550.5)" />
<use xlink:href="#f2_2j" transform="matrix(12,0,0,12,204.2,550.5)" />
<use xlink:href="#f2_1x" transform="matrix(12,0,0,12,217.4,550.5)" />
<use xlink:href="#f2_2g" transform="matrix(12,0,0,12,225.5,550.5)" />
<use xlink:href="#f2_21" transform="matrix(12,0,0,12,230.9,550.5)" />
<use xlink:href="#f2_2e" transform="matrix(12,0,0,12,239,550.5)" />
<use xlink:href="#f2_2b" transform="matrix(12,0,0,12,249.3,550.5)" />
<use xlink:href="#f2_2e" transform="matrix(12,0,0,12,258.4,550.5)" />
<use xlink:href="#f2_23" transform="matrix(12,0,0,12,264.6,550.5)" />
<use xlink:href="#f2_1x" transform="matrix(12,0,0,12,273.8,550.5)" />
<use xlink:href="#f2_2a" transform="matrix(12,0,0,12,281.9,550.5)" />
<use xlink:href="#f2_25" transform="matrix(12,0,0,12,291,550.5)" />
<use xlink:href="#f2_2f" transform="matrix(12,0,0,12,295.8,550.5)" />
<use xlink:href="#f2_29" transform="matrix(12,0,0,12,303.1,550.5)" />
<use xlink:href="#f2_2f" transform="matrix(12,0,0,12,317.1,550.5)" />
<use xlink:href="#f2_2g" transform="matrix(12,0,0,12,328.3,550.5)" />
<use xlink:href="#f2_24" transform="matrix(12,0,0,12,333.8,550.5)" />
<use xlink:href="#f2_1x" transform="matrix(12,0,0,12,342.6,550.5)" />
<use xlink:href="#f2_2g" transform="matrix(12,0,0,12,350.6,550.5)" />
<use xlink:href="#f2_1x" transform="matrix(12,0,0,12,360.1,550.5)" />
<use xlink:href="#f2_2e" transform="matrix(12,0,0,12,368.2,550.5)" />
<use xlink:href="#f2_21" transform="matrix(12,0,0,12,374.4,550.5)" />
<use xlink:href="#f2_22" transform="matrix(12,0,0,12,386.9,550.5)" />
<use xlink:href="#f2_2b" transform="matrix(12,0,0,12,392.4,550.5)" />
<use xlink:href="#f2_2h" transform="matrix(12,0,0,12,401.9,550.5)" />
<use xlink:href="#f2_2a" transform="matrix(12,0,0,12,411.1,550.5)" />
<use xlink:href="#f2_20" transform="matrix(12,0,0,12,419.9,550.5)" />
<use xlink:href="#f2_25" transform="matrix(12,0,0,12,433.8,550.5)" />
<use xlink:href="#f2_2a" transform="matrix(12,0,0,12,438.5,550.5)" />
<use xlink:href="#f2_2f" transform="matrix(12,0,0,12,451.6,550.5)" />
<use xlink:href="#f2_2g" transform="matrix(12,0,0,12,458.5,550.5)" />
<use xlink:href="#f2_1x" transform="matrix(12,0,0,12,464,550.5)" />
<use xlink:href="#f2_23" transform="matrix(12,0,0,12,472.1,550.5)" />
<use xlink:href="#f2_2a" transform="matrix(12,0,0,12,481.2,550.5)" />
<use xlink:href="#f2_1x" transform="matrix(12,0,0,12,490,550.5)" />
<use xlink:href="#f2_2a" transform="matrix(12,0,0,12,498.4,550.5)" />
<use xlink:href="#f2_2g" transform="matrix(12,0,0,12,507.2,550.5)" />
<use xlink:href="#f2_2j" transform="matrix(12,0,0,12,516.8,550.5)" />
<use xlink:href="#f2_1x" transform="matrix(12,0,0,12,530,550.5)" />
<use xlink:href="#f2_2g" transform="matrix(12,0,0,12,538,550.5)" />
<use xlink:href="#f2_21" transform="matrix(12,0,0,12,543.5,550.5)" />
<use xlink:href="#f2_2e" transform="matrix(12,0,0,12,551.6,550.5)" />
<use xlink:href="#f2_i" transform="matrix(12,0,0,12,557.8,550.5)" />
<use xlink:href="#f2_1k" transform="matrix(12,0,0,12,566.2,550.5)" />
<use xlink:href="#f2_24" transform="matrix(12,0,0,12,577.6,550.5)" />
<use xlink:href="#f2_21" transform="matrix(12,0,0,12,586.4,550.5)" />
<use xlink:href="#f2_2l" transform="matrix(12,0,0,12,594.8,550.5)" />
<use xlink:href="#f2_1x" transform="matrix(12,0,0,12,607.4,550.5)" />
<use xlink:href="#f2_2e" transform="matrix(12,0,0,12,615.5,550.5)" />
<use xlink:href="#f2_21" transform="matrix(12,0,0,12,621.7,550.5)" />
<use xlink:href="#f2_2f" transform="matrix(12,0,0,12,634.2,550.5)" />
<use xlink:href="#f2_2h" transform="matrix(12,0,0,12,641.1,550.5)" />
<use xlink:href="#f2_2e" transform="matrix(12,0,0,12,650.3,550.5)" />
<use xlink:href="#f2_2e" transform="matrix(12,0,0,12,656.5,550.5)" />
<use xlink:href="#f2_2b" transform="matrix(12,0,0,12,662.7,550.5)" />
<use xlink:href="#f2_2h" transform="matrix(12,0,0,12,672.2,550.5)" />
<use xlink:href="#f2_2a" transform="matrix(12,0,0,12,681.4,550.5)" />
<use xlink:href="#f2_20" transform="matrix(12,0,0,12,690.2,550.5)" />
<use xlink:href="#f2_21" transform="matrix(12,0,0,12,699.4,550.5)" />
<use xlink:href="#f2_20" transform="matrix(12,0,0,12,707.4,550.5)" />
<use xlink:href="#f2_1y" transform="matrix(12,0,0,12,720.6,550.5)" />
<use xlink:href="#f2_2l" transform="matrix(12,0,0,12,729.8,550.5)" />
<use xlink:href="#f2_1x" transform="matrix(12,0,0,12,742.6,550.5)" />
<use xlink:href="#f2_2c" transform="matrix(12,0,0,12,754.9,550.5)" />
<use xlink:href="#f2_2e" transform="matrix(12,0,0,12,764.1,550.5)" />
<use xlink:href="#f2_2b" transform="matrix(12,0,0,12,770.3,550.5)" />
<use xlink:href="#f2_2g" transform="matrix(12,0,0,12,779.8,550.5)" />
<use xlink:href="#f2_21" transform="matrix(12,0,0,12,785.3,550.5)" />
<use xlink:href="#f2_25" transform="matrix(12,0,0,12,793.3,550.5)" />
<use xlink:href="#f2_2a" transform="matrix(12,0,0,12,798.1,550.5)" />
<use xlink:href="#f2_2e" transform="matrix(12,0,0,12,810.9,550.5)" />
<use xlink:href="#f2_25" transform="matrix(12,0,0,12,817.5,550.5)" />
<use xlink:href="#f2_1z" transform="matrix(12,0,0,12,822.3,550.5)" />
<use xlink:href="#f2_24" transform="matrix(12,0,0,12,830.7,550.5)" />
<use xlink:href="#f2_28" transform="matrix(12,0,0,12,843.9,550.5)" />
<use xlink:href="#f2_1x" transform="matrix(12,0,0,12,848.7,550.5)" />
<use xlink:href="#f2_2l" transform="matrix(12,0,0,12,857.1,550.5)" />
<use xlink:href="#f2_21" transform="matrix(12,0,0,12,865.9,550.5)" />
<use xlink:href="#f2_2e" transform="matrix(12,0,0,12,873.9,550.5)" />
<use xlink:href="#f2_27" transform="matrix(12,0,0,12,55,582.5)" />
<use xlink:href="#f2_2a" transform="matrix(12,0,0,12,64.2,582.5)" />
<use xlink:href="#f2_2b" transform="matrix(12,0,0,12,73,582.5)" />
<use xlink:href="#f2_2j" transform="matrix(12,0,0,12,82.5,582.5)" />
<use xlink:href="#f2_2a" transform="matrix(12,0,0,12,95.8,582.5)" />
<use xlink:href="#f2_1x" transform="matrix(12,0,0,12,109.3,582.5)" />
<use xlink:href="#f2_2f" transform="matrix(12,0,0,12,117.7,582.5)" />
<use xlink:href="#f2_2c" transform="matrix(12,0,0,12,129.4,582.5)" />
<use xlink:href="#f2_21" transform="matrix(12,0,0,12,138.6,582.5)" />
<use xlink:href="#f2_28" transform="matrix(12,0,0,12,147,582.5)" />
<use xlink:href="#f2_28" transform="matrix(12,0,0,12,152.1,582.5)" />
<use xlink:href="#f2_25" transform="matrix(12,0,0,12,156.9,582.5)" />
<use xlink:href="#f2_1z" transform="matrix(12,0,0,12,161.6,582.5)" />
<use xlink:href="#f2_28" transform="matrix(12,0,0,12,170.1,582.5)" />
<use xlink:href="#f2_21" transform="matrix(12,0,0,12,174.8,582.5)" />
<use xlink:href="#f2_i" transform="matrix(12,0,0,12,182.9,582.5)" />
<use xlink:href="#f2_1k" transform="matrix(12,0,0,12,192.4,582.5)" />
<use xlink:href="#f2_24" transform="matrix(12,0,0,12,204.1,582.5)" />
<use xlink:href="#f2_21" transform="matrix(12,0,0,12,212.9,582.5)" />
<use xlink:href="#f2_2l" transform="matrix(12,0,0,12,221.3,582.5)" />
<use xlink:href="#f2_24" transform="matrix(12,0,0,12,235.2,582.5)" />
<use xlink:href="#f2_1x" transform="matrix(12,0,0,12,244,582.5)" />
<use xlink:href="#f2_2i" transform="matrix(12,0,0,12,252.5,582.5)" />
<use xlink:href="#f2_21" transform="matrix(12,0,0,12,261.3,582.5)" />
<use xlink:href="#f2_2b" transform="matrix(12,0,0,12,274.4,582.5)" />
<use xlink:href="#f2_2a" transform="matrix(12,0,0,12,283.9,582.5)" />
<use xlink:href="#f2_21" transform="matrix(12,0,0,12,292.7,582.5)" />
<use xlink:href="#f2_2f" transform="matrix(12,0,0,12,305.9,582.5)" />
<use xlink:href="#f2_24" transform="matrix(12,0,0,12,313.2,582.5)" />
<use xlink:href="#f2_2b" transform="matrix(12,0,0,12,322,582.5)" />
<use xlink:href="#f2_2e" transform="matrix(12,0,0,12,331.5,582.5)" />
<use xlink:href="#f2_2g" transform="matrix(12,0,0,12,337.4,582.5)" />
<use xlink:href="#f2_22" transform="matrix(12,0,0,12,347.6,582.5)" />
<use xlink:href="#f2_28" transform="matrix(12,0,0,12,353.5,582.5)" />
<use xlink:href="#f2_1x" transform="matrix(12,0,0,12,358.2,582.5)" />
<use xlink:href="#f2_23" transform="matrix(12,0,0,12,366.3,582.5)" />
<use xlink:href="#f2_21" transform="matrix(12,0,0,12,375.5,582.5)" />
<use xlink:href="#f2_28" transform="matrix(12,0,0,12,383.9,582.5)" />
<use xlink:href="#f2_28" transform="matrix(12,0,0,12,389,582.5)" />
<use xlink:href="#f2_1x" transform="matrix(12,0,0,12,393.8,582.5)" />
<use xlink:href="#f2_1x" transform="matrix(12,0,0,12,406.6,582.5)" />
<use xlink:href="#f2_2a" transform="matrix(12,0,0,12,415,582.5)" />
<use xlink:href="#f2_20" transform="matrix(12,0,0,12,424.2,582.5)" />
<use xlink:href="#f2_2b" transform="matrix(12,0,0,12,438.1,582.5)" />
<use xlink:href="#f2_2a" transform="matrix(12,0,0,12,447.6,582.5)" />
<use xlink:href="#f2_21" transform="matrix(12,0,0,12,456.4,582.5)" />
<use xlink:href="#f2_28" transform="matrix(12,0,0,12,469.6,582.5)" />
<use xlink:href="#f2_2b" transform="matrix(12,0,0,12,474,582.5)" />
<use xlink:href="#f2_2a" transform="matrix(12,0,0,12,483.5,582.5)" />
<use xlink:href="#f2_23" transform="matrix(12,0,0,12,492.3,582.5)" />
<use xlink:href="#f2_22" transform="matrix(12,0,0,12,506.6,582.5)" />
<use xlink:href="#f2_28" transform="matrix(12,0,0,12,512.5,582.5)" />
<use xlink:href="#f2_1x" transform="matrix(12,0,0,12,517.2,582.5)" />
<use xlink:href="#f2_23" transform="matrix(12,0,0,12,525.3,582.5)" />
<use xlink:href="#f2_21" transform="matrix(12,0,0,12,534.8,582.5)" />
<use xlink:href="#f2_28" transform="matrix(12,0,0,12,543.2,582.5)" />
<use xlink:href="#f2_28" transform="matrix(12,0,0,12,548,582.5)" />
<use xlink:href="#f2_1x" transform="matrix(12,0,0,12,552.7,582.5)" />
<use xlink:href="#f2_i" transform="matrix(12,0,0,12,561.2,582.5)" />
<use xlink:href="#f2_1k" transform="matrix(12,0,0,12,570.7,582.5)" />
<use xlink:href="#f2_24" transform="matrix(12,0,0,12,582.4,582.5)" />
<use xlink:href="#f2_21" transform="matrix(12,0,0,12,591.2,582.5)" />
<use xlink:href="#f2_2l" transform="matrix(12,0,0,12,599.6,582.5)" />
<use xlink:href="#f2_1z" transform="matrix(12,0,0,12,613.2,582.5)" />
<use xlink:href="#f2_1x" transform="matrix(12,0,0,12,621.3,582.5)" />
<use xlink:href="#f2_2a" transform="matrix(12,0,0,12,629.7,582.5)" />
<use xlink:href="#f2_1y" transform="matrix(12,0,0,12,643.6,582.5)" />
<use xlink:href="#f2_21" transform="matrix(12,0,0,12,652.6,582.5)" />
<use xlink:href="#f2_24" transform="matrix(12,0,0,12,661,582.5)" />
<use xlink:href="#f2_1x" transform="matrix(12,0,0,12,669.8,582.5)" />
<use xlink:href="#f2_2i" transform="matrix(12,0,0,12,678.2,582.5)" />
<use xlink:href="#f2_21" transform="matrix(12,0,0,12,687.4,582.5)" />
<use xlink:href="#f2_1x" transform="matrix(12,0,0,12,700.2,582.5)" />
<use xlink:href="#f2_2f" transform="matrix(12,0,0,12,708.2,582.5)" />
<use xlink:href="#f2_1x" transform="matrix(12,0,0,12,720,582.5)" />
<use xlink:href="#f2_2h" transform="matrix(12,0,0,12,728,582.5)" />
<use xlink:href="#f2_2g" transform="matrix(12,0,0,12,737.2,582.5)" />
<use xlink:href="#f2_2b" transform="matrix(12,0,0,12,742.7,582.5)" />
<use xlink:href="#f2_2g" transform="matrix(12,0,0,12,751.8,582.5)" />
<use xlink:href="#f2_2e" transform="matrix(12,0,0,12,757.3,582.5)" />
<use xlink:href="#f2_2b" transform="matrix(12,0,0,12,763.2,582.5)" />
<use xlink:href="#f2_2c" transform="matrix(12,0,0,12,772.7,582.5)" />
<use xlink:href="#f2_24" transform="matrix(12,0,0,12,781.9,582.5)" />
<use xlink:href="#f2_25" transform="matrix(12,0,0,12,790.7,582.5)" />
<use xlink:href="#f2_1z" transform="matrix(12,0,0,12,795.4,582.5)" />
<use xlink:href="#f2_1x" transform="matrix(12,0,0,12,808.2,582.5)" />
<use xlink:href="#f2_2f" transform="matrix(12,0,0,12,816.3,582.5)" />
<use xlink:href="#f2_2j" transform="matrix(12,0,0,12,828,582.5)" />
<use xlink:href="#f2_21" transform="matrix(12,0,0,12,841.3,582.5)" />
<use xlink:href="#f2_28" transform="matrix(12,0,0,12,849.6,582.5)" />
<use xlink:href="#f2_28" transform="matrix(12,0,0,12,854.7,582.5)" />
<use xlink:href="#f2_1x" transform="matrix(12,0,0,12,864.3,582.5)" />
<use xlink:href="#f2_2f" transform="matrix(12,0,0,12,872.7,582.5)" />
<use xlink:href="#f2_24" transform="matrix(12,0,0,12,55,614)" />
<use xlink:href="#f2_21" transform="matrix(12,0,0,12,63.8,614)" />
<use xlink:href="#f2_2g" transform="matrix(12,0,0,12,71.9,614)" />
<use xlink:href="#f2_21" transform="matrix(12,0,0,12,77.4,614)" />
<use xlink:href="#f2_2e" transform="matrix(12,0,0,12,85.5,614)" />
<use xlink:href="#f2_2b" transform="matrix(12,0,0,12,91.7,614)" />
<use xlink:href="#f2_2g" transform="matrix(12,0,0,12,100.8,614)" />
<use xlink:href="#f2_2e" transform="matrix(12,0,0,12,105.9,614)" />
<use xlink:href="#f2_2b" transform="matrix(12,0,0,12,111.8,614)" />
<use xlink:href="#f2_2c" transform="matrix(12,0,0,12,121.3,614)" />
<use xlink:href="#f2_24" transform="matrix(12,0,0,12,130.5,614)" />
<use xlink:href="#f2_25" transform="matrix(12,0,0,12,139.7,614)" />
<use xlink:href="#f2_1z" transform="matrix(12,0,0,12,144.4,614)" />
<use xlink:href="#f2_2b" transform="matrix(12,0,0,12,157.3,614)" />
<use xlink:href="#f2_2e" transform="matrix(12,0,0,12,166.8,614)" />
<use xlink:href="#f2_23" transform="matrix(12,0,0,12,173,614)" />
<use xlink:href="#f2_1x" transform="matrix(12,0,0,12,182.2,614)" />
<use xlink:href="#f2_2a" transform="matrix(12,0,0,12,190.2,614)" />
<use xlink:href="#f2_25" transform="matrix(12,0,0,12,199.4,614)" />
<use xlink:href="#f2_2f" transform="matrix(12,0,0,12,203.8,614)" />
<use xlink:href="#f2_29" transform="matrix(12,0,0,12,211.1,614)" />
<use xlink:href="#f2_2f" transform="matrix(12,0,0,12,225,614)" />
<use xlink:href="#f2_i" transform="matrix(12,0,0,12,232.2,614)" />
<use xlink:href="#f2_16" transform="matrix(12,0,0,12,241.7,614)" />
<use xlink:href="#f2_2b" transform="matrix(12,0,0,12,251.6,614)" />
<use xlink:href="#f2_2e" transform="matrix(12,0,0,12,261.1,614)" />
<use xlink:href="#f2_21" transform="matrix(12,0,0,12,272.1,614)" />
<use xlink:href="#f2_2k" transform="matrix(12,0,0,12,280.1,614)" />
<use xlink:href="#f2_1x" transform="matrix(12,0,0,12,288.9,614)" />
<use xlink:href="#f2_29" transform="matrix(12,0,0,12,297.3,614)" />
<use xlink:href="#f2_2c" transform="matrix(12,0,0,12,311.3,614)" />
<use xlink:href="#f2_28" transform="matrix(12,0,0,12,320.8,614)" />
<use xlink:href="#f2_21" transform="matrix(12,0,0,12,325.5,614)" />
<use xlink:href="#f2_g" transform="matrix(12,0,0,12,333.6,614)" />
<use xlink:href="#f3_15" transform="matrix(12,0,0,12,343.3,614)" />
<use xlink:href="#f3_2h" transform="matrix(12,0,0,12,354.7,614)" />
<use xlink:href="#f3_23" transform="matrix(12,0,0,12,363.8,614)" />
<use xlink:href="#f3_28" transform="matrix(12,0,0,12,373,614)" />
<use xlink:href="#f3_21" transform="matrix(12,0,0,12,378.1,614)" />
<use xlink:href="#f3_2a" transform="matrix(12,0,0,12,386.2,614)" />
<use xlink:href="#f3_1x" transform="matrix(12,0,0,12,395.4,614)" />
<use xlink:href="#f2_i" transform="matrix(12,0,0,12,404.6,614)" />
<use xlink:href="#f2_1d" transform="matrix(12,0,0,12,55,657.6)" />
<use xlink:href="#f2_2b" transform="matrix(12,0,0,12,71.2,657.6)" />
<use xlink:href="#f2_2f" transform="matrix(12,0,0,12,80.7,657.6)" />
<use xlink:href="#f2_2g" transform="matrix(12,0,0,12,87.7,657.6)" />
<use xlink:href="#f2_2b" transform="matrix(12,0,0,12,97.5,657.6)" />
<use xlink:href="#f2_22" transform="matrix(12,0,0,12,107,657.6)" />
<use xlink:href="#f2_2g" transform="matrix(12,0,0,12,117.7,657.6)" />
<use xlink:href="#f2_24" transform="matrix(12,0,0,12,123.1,657.6)" />
<use xlink:href="#f2_21" transform="matrix(12,0,0,12,131.9,657.6)" />
<use xlink:href="#f2_21" transform="matrix(12,0,0,12,145.1,657.6)" />
<use xlink:href="#f2_2h" transform="matrix(12,0,0,12,153.2,657.6)" />
<use xlink:href="#f2_23" transform="matrix(12,0,0,12,162.4,657.6)" />
<use xlink:href="#f2_28" transform="matrix(12,0,0,12,171.9,657.6)" />
<use xlink:href="#f2_21" transform="matrix(12,0,0,12,176.3,657.6)" />
<use xlink:href="#f2_2a" transform="matrix(12,0,0,12,184.7,657.6)" />
<use xlink:href="#f2_2b" transform="matrix(12,0,0,12,193.5,657.6)" />
<use xlink:href="#f2_25" transform="matrix(12,0,0,12,203.4,657.6)" />
<use xlink:href="#f2_20" transform="matrix(12,0,0,12,207.8,657.6)" />
<use xlink:href="#f2_2f" transform="matrix(12,0,0,12,216.9,657.6)" />
<use xlink:href="#f2_24" transform="matrix(12,0,0,12,229.6,657.6)" />
<use xlink:href="#f2_1x" transform="matrix(12,0,0,12,238.4,657.6)" />
<use xlink:href="#f2_2i" transform="matrix(12,0,0,12,246.8,657.6)" />
<use xlink:href="#f2_21" transform="matrix(12,0,0,12,255.6,657.6)" />
<use xlink:href="#f2_1z" transform="matrix(12,0,0,12,268.9,657.6)" />
<use xlink:href="#f2_24" transform="matrix(12,0,0,12,276.9,657.6)" />
<use xlink:href="#f2_28" transform="matrix(12,0,0,12,286.1,657.6)" />
<use xlink:href="#f2_2b" transform="matrix(12,0,0,12,290.5,657.6)" />
<use xlink:href="#f2_2e" transform="matrix(12,0,0,12,300,657.6)" />
<use xlink:href="#f2_2b" transform="matrix(12,0,0,12,306.2,657.6)" />
<use xlink:href="#f2_2c" transform="matrix(12,0,0,12,315.8,657.6)" />
<use xlink:href="#f2_28" transform="matrix(12,0,0,12,325.3,657.6)" />
<use xlink:href="#f2_1x" transform="matrix(12,0,0,12,329.7,657.6)" />
<use xlink:href="#f2_2f" transform="matrix(12,0,0,12,337.7,657.6)" />
<use xlink:href="#f2_2g" transform="matrix(12,0,0,12,344.7,657.6)" />
<use xlink:href="#f2_2f" transform="matrix(12,0,0,12,355.3,657.6)" />
<use xlink:href="#f2_2b" transform="matrix(12,0,0,12,362.3,657.6)" />
<use xlink:href="#f2_2g" transform="matrix(12,0,0,12,376.5,657.6)" />
<use xlink:href="#f2_24" transform="matrix(12,0,0,12,382,657.6)" />
<use xlink:href="#f2_21" transform="matrix(12,0,0,12,390.8,657.6)" />
<use xlink:href="#f2_2l" transform="matrix(12,0,0,12,399.2,657.6)" />
<use xlink:href="#f2_1z" transform="matrix(12,0,0,12,412.8,657.6)" />
<use xlink:href="#f2_1x" transform="matrix(12,0,0,12,420.8,657.6)" />
<use xlink:href="#f2_2a" transform="matrix(12,0,0,12,428.9,657.6)" />
<use xlink:href="#f2_2f" transform="matrix(12,0,0,12,442.8,657.6)" />
<use xlink:href="#f2_2l" transform="matrix(12,0,0,12,450.1,657.6)" />
<use xlink:href="#f2_2a" transform="matrix(12,0,0,12,458.9,657.6)" />
<use xlink:href="#f2_2g" transform="matrix(12,0,0,12,467.7,657.6)" />
<use xlink:href="#f2_24" transform="matrix(12,0,0,12,473.6,657.6)" />
<use xlink:href="#f2_21" transform="matrix(12,0,0,12,482.4,657.6)" />
<use xlink:href="#f2_2f" transform="matrix(12,0,0,12,490.5,657.6)" />
<use xlink:href="#f2_25" transform="matrix(12,0,0,12,497.8,657.6)" />
<use xlink:href="#f2_2m" transform="matrix(12,0,0,12,502.5,657.6)" />
<use xlink:href="#f2_21" transform="matrix(12,0,0,12,510.9,657.6)" />
<use xlink:href="#f2_2g" transform="matrix(12,0,0,12,524.1,657.6)" />
<use xlink:href="#f2_24" transform="matrix(12,0,0,12,529.6,657.6)" />
<use xlink:href="#f2_21" transform="matrix(12,0,0,12,538.4,657.6)" />
<use xlink:href="#f2_25" transform="matrix(12,0,0,12,546.8,657.6)" />
<use xlink:href="#f2_2e" transform="matrix(12,0,0,12,551.2,657.6)" />
<use xlink:href="#f2_2b" transform="matrix(12,0,0,12,562.6,657.6)" />
<use xlink:href="#f2_2j" transform="matrix(12,0,0,12,572.1,657.6)" />
<use xlink:href="#f2_2a" transform="matrix(12,0,0,12,585.3,657.6)" />
<use xlink:href="#f2_22" transform="matrix(12,0,0,12,599.2,657.6)" />
<use xlink:href="#f2_2b" transform="matrix(12,0,0,12,604.7,657.6)" />
<use xlink:href="#f2_2b" transform="matrix(12,0,0,12,614.2,657.6)" />
<use xlink:href="#f2_20" transform="matrix(12,0,0,12,624.3,657.6)" />
<use xlink:href="#f2_i" transform="matrix(12,0,0,12,633.1,657.6)" />
<use xlink:href="#f2_1k" transform="matrix(12,0,0,12,642.6,657.6)" />
<use xlink:href="#f2_24" transform="matrix(12,0,0,12,654,657.6)" />
<use xlink:href="#f2_21" transform="matrix(12,0,0,12,662.8,657.6)" />
<use xlink:href="#f2_2e" transform="matrix(12,0,0,12,675.9,657.6)" />
<use xlink:href="#f2_21" transform="matrix(12,0,0,12,682.2,657.6)" />
<use xlink:href="#f2_2f" transform="matrix(12,0,0,12,690.2,657.6)" />
<use xlink:href="#f2_21" transform="matrix(12,0,0,12,697.2,657.6)" />
<use xlink:href="#f2_2e" transform="matrix(12,0,0,12,705.3,657.6)" />
<use xlink:href="#f2_2i" transform="matrix(12,0,0,12,711.5,657.6)" />
<use xlink:href="#f2_21" transform="matrix(12,0,0,12,720.3,657.6)" />
<use xlink:href="#f2_22" transform="matrix(12,0,0,12,733.8,657.6)" />
<use xlink:href="#f2_2b" transform="matrix(12,0,0,12,739.3,657.6)" />
<use xlink:href="#f2_2b" transform="matrix(12,0,0,12,748.8,657.6)" />
<use xlink:href="#f2_20" transform="matrix(12,0,0,12,758.4,657.6)" />
<use xlink:href="#f2_29" transform="matrix(12,0,0,12,772.6,657.6)" />
<use xlink:href="#f2_1x" transform="matrix(12,0,0,12,786.2,657.6)" />
<use xlink:href="#f2_2g" transform="matrix(12,0,0,12,794.3,657.6)" />
<use xlink:href="#f2_21" transform="matrix(12,0,0,12,799.7,657.6)" />
<use xlink:href="#f2_2e" transform="matrix(12,0,0,12,807.8,657.6)" />
<use xlink:href="#f2_25" transform="matrix(12,0,0,12,814.4,657.6)" />
<use xlink:href="#f2_1x" transform="matrix(12,0,0,12,818.8,657.6)" />
<use xlink:href="#f2_28" transform="matrix(12,0,0,12,827.2,657.6)" />
<use xlink:href="#f2_22" transform="matrix(12,0,0,12,837.1,657.6)" />
<use xlink:href="#f2_2b" transform="matrix(12,0,0,12,842.6,657.6)" />
<use xlink:href="#f2_2h" transform="matrix(12,0,0,12,852.1,657.6)" />
<use xlink:href="#f2_2a" transform="matrix(12,0,0,12,861.6,657.6)" />
<use xlink:href="#f2_20" transform="matrix(12,0,0,12,870.4,657.6)" />
<use xlink:href="#f2_25" transform="matrix(12,0,0,12,55,689.5)" />
<use xlink:href="#f2_2f" transform="matrix(12,0,0,12,59.8,689.5)" />
<use xlink:href="#f2_21" transform="matrix(12,0,0,12,71.5,689.5)" />
<use xlink:href="#f2_2h" transform="matrix(12,0,0,12,79.6,689.5)" />
<use xlink:href="#f2_23" transform="matrix(12,0,0,12,88.8,689.5)" />
<use xlink:href="#f2_28" transform="matrix(12,0,0,12,98.3,689.5)" />
<use xlink:href="#f2_21" transform="matrix(12,0,0,12,103.1,689.5)" />
<use xlink:href="#f2_2a" transform="matrix(12,0,0,12,111.5,689.5)" />
<use xlink:href="#f2_2b" transform="matrix(12,0,0,12,120.3,689.5)" />
<use xlink:href="#f2_25" transform="matrix(12,0,0,12,130.1,689.5)" />
<use xlink:href="#f2_20" transform="matrix(12,0,0,12,134.5,689.5)" />
<use xlink:href="#f2_2f" transform="matrix(12,0,0,12,143.7,689.5)" />
<use xlink:href="#f2_1x" transform="matrix(12,0,0,12,155.4,689.5)" />
<use xlink:href="#f2_2e" transform="matrix(12,0,0,12,163.5,689.5)" />
<use xlink:href="#f2_21" transform="matrix(12,0,0,12,169.7,689.5)" />
<use xlink:href="#f2_1g" transform="matrix(12,0,0,12,182.7,689.5)" />
<use xlink:href="#f2_1x" transform="matrix(12,0,0,12,192.9,689.5)" />
<use xlink:href="#f2_2e" transform="matrix(12,0,0,12,201,689.5)" />
<use xlink:href="#f2_1x" transform="matrix(12,0,0,12,207.2,689.5)" />
<use xlink:href="#f2_29" transform="matrix(12,0,0,12,215.6,689.5)" />
<use xlink:href="#f2_2l" transform="matrix(12,0,0,12,229.6,689.5)" />
<use xlink:href="#f2_28" transform="matrix(12,0,0,12,238.7,689.5)" />
<use xlink:href="#f2_2b" transform="matrix(12,0,0,12,243.1,689.5)" />
<use xlink:href="#f2_2a" transform="matrix(12,0,0,12,253,689.5)" />
<use xlink:href="#f2_c" transform="matrix(12,0,0,12,266.6,689.5)" />
<use xlink:href="#f2_1z" transform="matrix(12,0,0,12,272.8,689.5)" />
<use xlink:href="#f2_1x" transform="matrix(12,0,0,12,280.8,689.5)" />
<use xlink:href="#f2_2e" transform="matrix(12,0,0,12,288.9,689.5)" />
<use xlink:href="#f2_1y" transform="matrix(12,0,0,12,295.1,689.5)" />
<use xlink:href="#f2_2b" transform="matrix(12,0,0,12,303.9,689.5)" />
<use xlink:href="#f2_24" transform="matrix(12,0,0,12,313.4,689.5)" />
<use xlink:href="#f2_2l" transform="matrix(12,0,0,12,322.6,689.5)" />
<use xlink:href="#f2_20" transform="matrix(12,0,0,12,331.4,689.5)" />
<use xlink:href="#f2_2e" transform="matrix(12,0,0,12,340.6,689.5)" />
<use xlink:href="#f2_1x" transform="matrix(12,0,0,12,346.8,689.5)" />
<use xlink:href="#f2_2g" transform="matrix(12,0,0,12,354.8,689.5)" />
<use xlink:href="#f2_21" transform="matrix(12,0,0,12,360.3,689.5)" />
<use xlink:href="#f2_d" transform="matrix(12,0,0,12,368.4,689.5)" />
<use xlink:href="#f2_i" transform="matrix(12,0,0,12,374.6,689.5)" />
<use xlink:href="#f0_16" transform="matrix(12,0,0,12,411.2,994.3)" />
<use xlink:href="#f0_25" transform="matrix(12,0,0,12,422.2,994.3)" />
<use xlink:href="#f0_23" transform="matrix(12,0,0,12,427.3,994.3)" />
<use xlink:href="#f0_i" transform="matrix(12,0,0,12,436.4,994.3)" />
<use xlink:href="#f0_q" transform="matrix(12,0,0,12,441.3,994.3)" />
<use xlink:href="#f0_i" transform="matrix(12,0,0,12,450.5,994.3)" />
<use xlink:href="#f1_15" transform="matrix(12,0,0,12,460,994.3)" />
<use xlink:href="#f1_2h" transform="matrix(12,0,0,12,472.1,994.3)" />
<use xlink:href="#f1_23" transform="matrix(12,0,0,12,482.3,994.3)" />
<use xlink:href="#f1_28" transform="matrix(12,0,0,12,491.5,994.3)" />
<use xlink:href="#f1_21" transform="matrix(12,0,0,12,496.6,994.3)" />
<use xlink:href="#f1_2a" transform="matrix(12,0,0,12,504.7,994.3)" />
<use xlink:href="#f1_1x" transform="matrix(12,0,0,12,514.9,994.3)" />
<use xlink:href="#f0_o" transform="matrix(12,0,0,12,82.5,1038.3)" />
<use xlink:href="#f0_i" transform="matrix(12,0,0,12,91.7,1038.3)" />
<use xlink:href="#f0_1j" transform="matrix(12,0,0,12,110,1038.3)" />
<use xlink:href="#f0_28" transform="matrix(12,0,0,12,120.3,1038.3)" />
<use xlink:href="#f0_25" transform="matrix(12,0,0,12,125.1,1038.3)" />
<use xlink:href="#f0_29" transform="matrix(12,0,0,12,130.1,1038.3)" />
<use xlink:href="#f0_21" transform="matrix(12,0,0,12,145.2,1038.3)" />
<use xlink:href="#f0_29" transform="matrix(12,0,0,12,158.4,1038.3)" />
<use xlink:href="#f0_2b" transform="matrix(12,0,0,12,173.4,1038.3)" />
<use xlink:href="#f0_2h" transform="matrix(12,0,0,12,182.6,1038.3)" />
<use xlink:href="#f0_28" transform="matrix(12,0,0,12,192.8,1038.3)" />
<use xlink:href="#f0_20" transform="matrix(12,0,0,12,197.6,1038.3)" />
<use xlink:href="#f0_2f" transform="matrix(12,0,0,12,208.2,1038.3)" />
<use xlink:href="#f2_1k" transform="matrix(12,0,0,12,55,1082)" />
<use xlink:href="#f2_24" transform="matrix(12,0,0,12,66.4,1082)" />
<use xlink:href="#f2_21" transform="matrix(12,0,0,12,75.2,1082)" />
<use xlink:href="#f2_2l" transform="matrix(12,0,0,12,83.6,1082)" />
<use xlink:href="#f2_1x" transform="matrix(12,0,0,12,102.3,1082)" />
<use xlink:href="#f2_2e" transform="matrix(12,0,0,12,110.3,1082)" />
<use xlink:href="#f2_21" transform="matrix(12,0,0,12,116.6,1082)" />
<use xlink:href="#f2_2f" transform="matrix(12,0,0,12,134.9,1082)" />
<use xlink:href="#f2_1x" transform="matrix(12,0,0,12,141.8,1082)" />
<use xlink:href="#f2_2c" transform="matrix(12,0,0,12,149.9,1082)" />
<use xlink:href="#f2_2e" transform="matrix(12,0,0,12,159.1,1082)" />
<use xlink:href="#f2_2b" transform="matrix(12,0,0,12,165.3,1082)" />
<use xlink:href="#f2_2c" transform="matrix(12,0,0,12,174.8,1082)" />
<use xlink:href="#f2_24" transform="matrix(12,0,0,12,184,1082)" />
<use xlink:href="#f2_2l" transform="matrix(12,0,0,12,193.1,1082)" />
<use xlink:href="#f2_2g" transform="matrix(12,0,0,12,201.6,1082)" />
<use xlink:href="#f2_25" transform="matrix(12,0,0,12,207.4,1082)" />
<use xlink:href="#f2_1z" transform="matrix(12,0,0,12,212.2,1082)" />
<use xlink:href="#f2_25" transform="matrix(12,0,0,12,230.9,1082)" />
<use xlink:href="#f2_2a" transform="matrix(12,0,0,12,235.6,1082)" />
<use xlink:href="#f2_2a" transform="matrix(12,0,0,12,255.1,1082)" />
<use xlink:href="#f2_1x" transform="matrix(12,0,0,12,263.9,1082)" />
<use xlink:href="#f2_2g" transform="matrix(12,0,0,12,271.9,1082)" />
<use xlink:href="#f2_2h" transform="matrix(12,0,0,12,277.4,1082)" />
<use xlink:href="#f2_2e" transform="matrix(12,0,0,12,286.6,1082)" />
<use xlink:href="#f2_21" transform="matrix(12,0,0,12,292.8,1082)" />
<use xlink:href="#f2_i" transform="matrix(12,0,0,12,300.8,1082)" />
<use xlink:href="#f2_1l" transform="matrix(12,0,0,12,315.8,1082)" />
<use xlink:href="#f2_2a" transform="matrix(12,0,0,12,329,1082)" />
<use xlink:href="#f2_20" transform="matrix(12,0,0,12,337.8,1082)" />
<use xlink:href="#f2_21" transform="matrix(12,0,0,12,347,1082)" />
<use xlink:href="#f2_2e" transform="matrix(12,0,0,12,355,1082)" />
<use xlink:href="#f2_22" transform="matrix(12,0,0,12,371.5,1082)" />
<use xlink:href="#f2_1x" transform="matrix(12,0,0,12,377.4,1082)" />
<use xlink:href="#f2_2i" transform="matrix(12,0,0,12,385.8,1082)" />
<use xlink:href="#f2_2b" transform="matrix(12,0,0,12,394.6,1082)" />
<use xlink:href="#f2_2e" transform="matrix(12,0,0,12,404.1,1082)" />
<use xlink:href="#f2_1x" transform="matrix(12,0,0,12,410.3,1082)" />
<use xlink:href="#f2_1y" transform="matrix(12,0,0,12,418.4,1082)" />
<use xlink:href="#f2_28" transform="matrix(12,0,0,12,427.2,1082)" />
<use xlink:href="#f2_21" transform="matrix(12,0,0,12,431.9,1082)" />
<use xlink:href="#f2_1z" transform="matrix(12,0,0,12,450.3,1082)" />
<use xlink:href="#f2_2b" transform="matrix(12,0,0,12,458.3,1082)" />
<use xlink:href="#f2_2a" transform="matrix(12,0,0,12,467.8,1082)" />
<use xlink:href="#f2_20" transform="matrix(12,0,0,12,476.6,1082)" />
<use xlink:href="#f2_25" transform="matrix(12,0,0,12,486.2,1082)" />
<use xlink:href="#f2_2g" transform="matrix(12,0,0,12,490.6,1082)" />
<use xlink:href="#f2_25" transform="matrix(12,0,0,12,496.4,1082)" />
<use xlink:href="#f2_2b" transform="matrix(12,0,0,12,500.8,1082)" />
<use xlink:href="#f2_2a" transform="matrix(12,0,0,12,510.3,1082)" />
<use xlink:href="#f2_2f" transform="matrix(12,0,0,12,519.5,1082)" />
<use xlink:href="#f2_g" transform="matrix(12,0,0,12,526.5,1082)" />
<use xlink:href="#f2_2g" transform="matrix(12,0,0,12,541.5,1082)" />
<use xlink:href="#f2_24" transform="matrix(12,0,0,12,546.9,1082)" />
<use xlink:href="#f2_21" transform="matrix(12,0,0,12,555.7,1082)" />
<use xlink:href="#f2_2l" transform="matrix(12,0,0,12,564.2,1082)" />
<use xlink:href="#f2_22" transform="matrix(12,0,0,12,583.2,1082)" />
<use xlink:href="#f2_2b" transform="matrix(12,0,0,12,588.7,1082)" />
<use xlink:href="#f2_2e" transform="matrix(12,0,0,12,598.2,1082)" />
<use xlink:href="#f2_29" transform="matrix(12,0,0,12,604.4,1082)" />
<use xlink:href="#f2_1x" transform="matrix(12,0,0,12,628.2,1082)" />
<use xlink:href="#f2_23" transform="matrix(12,0,0,12,636.3,1082)" />
<use xlink:href="#f2_23" transform="matrix(12,0,0,12,645.5,1082)" />
<use xlink:href="#f2_2e" transform="matrix(12,0,0,12,654.6,1082)" />
<use xlink:href="#f2_21" transform="matrix(12,0,0,12,660.9,1082)" />
<use xlink:href="#f2_23" transform="matrix(12,0,0,12,668.9,1082)" />
<use xlink:href="#f2_1x" transform="matrix(12,0,0,12,678.1,1082)" />
<use xlink:href="#f2_2g" transform="matrix(12,0,0,12,686.2,1082)" />
<use xlink:href="#f2_21" transform="matrix(12,0,0,12,691.6,1082)" />
<use xlink:href="#f2_2f" transform="matrix(12,0,0,12,699.7,1082)" />
<use xlink:href="#f2_2j" transform="matrix(12,0,0,12,717.5,1082)" />
<use xlink:href="#f2_24" transform="matrix(12,0,0,12,730.7,1082)" />
<use xlink:href="#f2_25" transform="matrix(12,0,0,12,739.9,1082)" />
<use xlink:href="#f2_1z" transform="matrix(12,0,0,12,744.6,1082)" />
<use xlink:href="#f2_24" transform="matrix(12,0,0,12,753,1082)" />
<use xlink:href="#f2_1x" transform="matrix(12,0,0,12,772.1,1082)" />
<use xlink:href="#f2_2e" transform="matrix(12,0,0,12,780.1,1082)" />
<use xlink:href="#f2_21" transform="matrix(12,0,0,12,786.3,1082)" />
<use xlink:href="#f2_27" transform="matrix(12,0,0,12,805.1,1082)" />
<use xlink:href="#f2_2a" transform="matrix(12,0,0,12,814.3,1082)" />
<use xlink:href="#f2_2b" transform="matrix(12,0,0,12,823.1,1082)" />
<use xlink:href="#f2_2j" transform="matrix(12,0,0,12,832.6,1082)" />
<use xlink:href="#f2_2a" transform="matrix(12,0,0,12,845.8,1082)" />
<use xlink:href="#f2_1x" transform="matrix(12,0,0,12,864.9,1082)" />
<use xlink:href="#f2_2f" transform="matrix(12,0,0,12,872.9,1082)" />
<use xlink:href="#f3_1g" transform="matrix(12,0,0,12,55,1113.9)" />
<use xlink:href="#f3_28" transform="matrix(12,0,0,12,66,1113.9)" />
<use xlink:href="#f3_1x" transform="matrix(12,0,0,12,71.1,1113.9)" />
<use xlink:href="#f3_2f" transform="matrix(12,0,0,12,80.3,1113.9)" />
<use xlink:href="#f3_29" transform="matrix(12,0,0,12,87.3,1113.9)" />
<use xlink:href="#f3_2b" transform="matrix(12,0,0,12,100.5,1113.9)" />
<use xlink:href="#f3_20" transform="matrix(12,0,0,12,109.7,1113.9)" />
<use xlink:href="#f3_25" transform="matrix(12,0,0,12,118.9,1113.9)" />
<use xlink:href="#f3_2h" transform="matrix(12,0,0,12,124,1113.9)" />
<use xlink:href="#f3_29" transform="matrix(12,0,0,12,133.1,1113.9)" />
<use xlink:href="#f2_i" transform="matrix(12,0,0,12,146.3,1113.9)" />
<use xlink:href="#f2_14" transform="matrix(12,0,0,12,156.2,1113.9)" />
<use xlink:href="#f2_2h" transform="matrix(12,0,0,12,169.4,1113.9)" />
<use xlink:href="#f2_2e" transform="matrix(12,0,0,12,178.6,1113.9)" />
<use xlink:href="#f2_25" transform="matrix(12,0,0,12,185.1,1113.9)" />
<use xlink:href="#f2_2a" transform="matrix(12,0,0,12,189.9,1113.9)" />
<use xlink:href="#f2_23" transform="matrix(12,0,0,12,198.7,1113.9)" />
<use xlink:href="#f2_2h" transform="matrix(12,0,0,12,213,1113.9)" />
<use xlink:href="#f2_2a" transform="matrix(12,0,0,12,222.5,1113.9)" />
<use xlink:href="#f2_22" transform="matrix(12,0,0,12,231.7,1113.9)" />
<use xlink:href="#f2_1x" transform="matrix(12,0,0,12,237.2,1113.9)" />
<use xlink:href="#f2_2i" transform="matrix(12,0,0,12,245.6,1113.9)" />
<use xlink:href="#f2_2b" transform="matrix(12,0,0,12,254.4,1113.9)" />
<use xlink:href="#f2_2e" transform="matrix(12,0,0,12,263.9,1113.9)" />
<use xlink:href="#f2_1x" transform="matrix(12,0,0,12,270.1,1113.9)" />
<use xlink:href="#f2_1y" transform="matrix(12,0,0,12,278.2,1113.9)" />
<use xlink:href="#f2_28" transform="matrix(12,0,0,12,287.4,1113.9)" />
<use xlink:href="#f2_21" transform="matrix(12,0,0,12,292.1,1113.9)" />
<use xlink:href="#f2_1z" transform="matrix(12,0,0,12,305.3,1113.9)" />
<use xlink:href="#f2_2b" transform="matrix(12,0,0,12,313.4,1113.9)" />
<use xlink:href="#f2_2a" transform="matrix(12,0,0,12,322.9,1113.9)" />
<use xlink:href="#f2_20" transform="matrix(12,0,0,12,331.7,1113.9)" />
<use xlink:href="#f2_25" transform="matrix(12,0,0,12,341.2,1113.9)" />
<use xlink:href="#f2_2g" transform="matrix(12,0,0,12,345.6,1113.9)" />
<use xlink:href="#f2_25" transform="matrix(12,0,0,12,351.4,1113.9)" />
<use xlink:href="#f2_2b" transform="matrix(12,0,0,12,355.8,1113.9)" />
<use xlink:href="#f2_2a" transform="matrix(12,0,0,12,365.7,1113.9)" />
<use xlink:href="#f2_g" transform="matrix(12,0,0,12,374.5,1113.9)" />
<use xlink:href="#f2_2g" transform="matrix(12,0,0,12,384.4,1113.9)" />
<use xlink:href="#f2_24" transform="matrix(12,0,0,12,389.9,1113.9)" />
<use xlink:href="#f2_21" transform="matrix(12,0,0,12,398.7,1113.9)" />
<use xlink:href="#f2_2l" transform="matrix(12,0,0,12,407.1,1113.9)" />
<use xlink:href="#f2_22" transform="matrix(12,0,0,12,421,1113.9)" />
<use xlink:href="#f2_2b" transform="matrix(12,0,0,12,426.9,1113.9)" />
<use xlink:href="#f2_2e" transform="matrix(12,0,0,12,436.4,1113.9)" />
<use xlink:href="#f2_29" transform="matrix(12,0,0,12,442.6,1113.9)" />
<use xlink:href="#f2_22" transform="matrix(12,0,0,12,461.7,1113.9)" />
<use xlink:href="#f2_2e" transform="matrix(12,0,0,12,467.2,1113.9)" />
<use xlink:href="#f2_2h" transform="matrix(12,0,0,12,473.4,1113.9)" />
<use xlink:href="#f2_25" transform="matrix(12,0,0,12,482.9,1113.9)" />
<use xlink:href="#f2_2g" transform="matrix(12,0,0,12,487.3,1113.9)" />
<use xlink:href="#f2_25" transform="matrix(12,0,0,12,493.1,1113.9)" />
<use xlink:href="#f2_2a" transform="matrix(12,0,0,12,497.9,1113.9)" />
<use xlink:href="#f2_23" transform="matrix(12,0,0,12,506.7,1113.9)" />
<use xlink:href="#f2_1y" transform="matrix(12,0,0,12,521.3,1113.9)" />
<use xlink:href="#f2_2b" transform="matrix(12,0,0,12,530.1,1113.9)" />
<use xlink:href="#f2_20" transform="matrix(12,0,0,12,539.7,1113.9)" />
<use xlink:href="#f2_25" transform="matrix(12,0,0,12,549.2,1113.9)" />
<use xlink:href="#f2_21" transform="matrix(12,0,0,12,553.6,1113.9)" />
<use xlink:href="#f2_2f" transform="matrix(12,0,0,12,561.6,1113.9)" />
<use xlink:href="#f2_2j" transform="matrix(12,0,0,12,573.7,1113.9)" />
<use xlink:href="#f2_25" transform="matrix(12,0,0,12,587.3,1113.9)" />
<use xlink:href="#f2_2g" transform="matrix(12,0,0,12,591.7,1113.9)" />
<use xlink:href="#f2_24" transform="matrix(12,0,0,12,597.5,1113.9)" />
<use xlink:href="#f2_2f" transform="matrix(12,0,0,12,611.4,1113.9)" />
<use xlink:href="#f2_2c" transform="matrix(12,0,0,12,618.4,1113.9)" />
<use xlink:href="#f2_2b" transform="matrix(12,0,0,12,627.6,1113.9)" />
<use xlink:href="#f2_2e" transform="matrix(12,0,0,12,637.1,1113.9)" />
<use xlink:href="#f2_21" transform="matrix(12,0,0,12,643.3,1113.9)" />
<use xlink:href="#f2_2f" transform="matrix(12,0,0,12,651.4,1113.9)" />
<use xlink:href="#f2_i" transform="matrix(12,0,0,12,658.3,1113.9)" />
<use xlink:href="#f2_1k" transform="matrix(12,0,0,12,668.2,1113.9)" />
<use xlink:href="#f2_24" transform="matrix(12,0,0,12,679.5,1113.9)" />
<use xlink:href="#f2_21" transform="matrix(12,0,0,12,688.3,1113.9)" />
<use xlink:href="#f2_2l" transform="matrix(12,0,0,12,696.8,1113.9)" />
<use xlink:href="#f2_2c" transform="matrix(12,0,0,12,711.2,1113.9)" />
<use xlink:href="#f2_2b" transform="matrix(12,0,0,12,720.4,1113.9)" />
<use xlink:href="#f2_2f" transform="matrix(12,0,0,12,729.9,1113.9)" />
<use xlink:href="#f2_2f" transform="matrix(12,0,0,12,736.9,1113.9)" />
<use xlink:href="#f2_21" transform="matrix(12,0,0,12,743.8,1113.9)" />
<use xlink:href="#f2_2f" transform="matrix(12,0,0,12,752.3,1113.9)" />
<use xlink:href="#f2_2f" transform="matrix(12,0,0,12,759.2,1113.9)" />
<use xlink:href="#f2_2g" transform="matrix(12,0,0,12,771.4,1113.9)" />
<use xlink:href="#f2_2e" transform="matrix(12,0,0,12,776.9,1113.9)" />
<use xlink:href="#f2_2h" transform="matrix(12,0,0,12,783.1,1113.9)" />
<use xlink:href="#f2_21" transform="matrix(12,0,0,12,792.3,1113.9)" />
<use xlink:href="#f2_1z" transform="matrix(12,0,0,12,805.4,1113.9)" />
<use xlink:href="#f2_21" transform="matrix(12,0,0,12,813.5,1113.9)" />
<use xlink:href="#f2_28" transform="matrix(12,0,0,12,821.9,1113.9)" />
<use xlink:href="#f2_28" transform="matrix(12,0,0,12,826.7,1113.9)" />
<use xlink:href="#f2_2j" transform="matrix(12,0,0,12,836.6,1113.9)" />
<use xlink:href="#f2_1x" transform="matrix(12,0,0,12,849.8,1113.9)" />
<use xlink:href="#f2_28" transform="matrix(12,0,0,12,858.2,1113.9)" />
<use xlink:href="#f2_28" transform="matrix(12,0,0,12,863.3,1113.9)" />
<use xlink:href="#f2_2f" transform="matrix(12,0,0,12,868.1,1113.9)" />
<use xlink:href="#f2_i" transform="matrix(12,0,0,12,875,1113.9)" />
<use xlink:href="#f2_1k" transform="matrix(12,0,0,12,55,1145.4)" />
<use xlink:href="#f2_24" transform="matrix(12,0,0,12,66.4,1145.4)" />
<use xlink:href="#f2_21" transform="matrix(12,0,0,12,75.2,1145.4)" />
<use xlink:href="#f2_2l" transform="matrix(12,0,0,12,83.6,1145.4)" />
<use xlink:href="#f2_1x" transform="matrix(12,0,0,12,96.8,1145.4)" />
<use xlink:href="#f2_2e" transform="matrix(12,0,0,12,104.8,1145.4)" />
<use xlink:href="#f2_21" transform="matrix(12,0,0,12,111.1,1145.4)" />
<use xlink:href="#f2_21" transform="matrix(12,0,0,12,123.9,1145.4)" />
<use xlink:href="#f2_2k" transform="matrix(12,0,0,12,132.3,1145.4)" />
<use xlink:href="#f2_2g" transform="matrix(12,0,0,12,141.1,1145.4)" />
<use xlink:href="#f2_2e" transform="matrix(12,0,0,12,146.6,1145.4)" />
<use xlink:href="#f2_21" transform="matrix(12,0,0,12,152.8,1145.4)" />
<use xlink:href="#f2_29" transform="matrix(12,0,0,12,161.2,1145.4)" />
<use xlink:href="#f2_21" transform="matrix(12,0,0,12,174.8,1145.4)" />
<use xlink:href="#f2_28" transform="matrix(12,0,0,12,183.2,1145.4)" />
<use xlink:href="#f2_2l" transform="matrix(12,0,0,12,188.3,1145.4)" />
<use xlink:href="#f2_2e" transform="matrix(12,0,0,12,201.5,1145.4)" />
<use xlink:href="#f2_21" transform="matrix(12,0,0,12,207.7,1145.4)" />
<use xlink:href="#f2_2f" transform="matrix(12,0,0,12,215.8,1145.4)" />
<use xlink:href="#f2_25" transform="matrix(12,0,0,12,223.1,1145.4)" />
<use xlink:href="#f2_2f" transform="matrix(12,0,0,12,227.9,1145.4)" />
<use xlink:href="#f2_2g" transform="matrix(12,0,0,12,234.8,1145.4)" />
<use xlink:href="#f2_1x" transform="matrix(12,0,0,12,240.3,1145.4)" />
<use xlink:href="#f2_2a" transform="matrix(12,0,0,12,248.7,1145.4)" />
<use xlink:href="#f2_2g" transform="matrix(12,0,0,12,257.5,1145.4)" />
<use xlink:href="#f2_2g" transform="matrix(12,0,0,12,267.4,1145.4)" />
<use xlink:href="#f2_2b" transform="matrix(12,0,0,12,272.5,1145.4)" />
<use xlink:href="#f2_1x" transform="matrix(12,0,0,12,286.8,1145.4)" />
<use xlink:href="#f2_20" transform="matrix(12,0,0,12,294.9,1145.4)" />
<use xlink:href="#f2_2i" transform="matrix(12,0,0,12,304,1145.4)" />
<use xlink:href="#f2_21" transform="matrix(12,0,0,12,312.8,1145.4)" />
<use xlink:href="#f2_2e" transform="matrix(12,0,0,12,320.9,1145.4)" />
<use xlink:href="#f2_2f" transform="matrix(12,0,0,12,327.1,1145.4)" />
<use xlink:href="#f2_21" transform="matrix(12,0,0,12,334.1,1145.4)" />
<use xlink:href="#f2_1z" transform="matrix(12,0,0,12,346.9,1145.4)" />
<use xlink:href="#f2_2b" transform="matrix(12,0,0,12,355,1145.4)" />
<use xlink:href="#f2_2a" transform="matrix(12,0,0,12,364.5,1145.4)" />
<use xlink:href="#f2_20" transform="matrix(12,0,0,12,373.3,1145.4)" />
<use xlink:href="#f2_25" transform="matrix(12,0,0,12,382.8,1145.4)" />
<use xlink:href="#f2_2g" transform="matrix(12,0,0,12,387.2,1145.4)" />
<use xlink:href="#f2_25" transform="matrix(12,0,0,12,393,1145.4)" />
<use xlink:href="#f2_2b" transform="matrix(12,0,0,12,397.4,1145.4)" />
<use xlink:href="#f2_2a" transform="matrix(12,0,0,12,407,1145.4)" />
<use xlink:href="#f2_2f" transform="matrix(12,0,0,12,415.8,1145.4)" />
<use xlink:href="#f2_i" transform="matrix(12,0,0,12,422.7,1145.4)" />
</g>
</g>
<image preserveAspectRatio="none" x="183" y="55" width="596" height="243" xlink:href="img/1.png" />
<image preserveAspectRatio="none" x="308" y="716" width="319" height="238" xlink:href="img/2.png" />
<g fill="#000000" >
<use xlink:href="#f4_o" transform="matrix(8,0,0,8,818.2,1187.9)" />
</g>
<defs>
<path d="M36,0V54L154,74V926L26,945v55H860V731H790L766,908c0,0,-36,5,-121,8c0,0,-84,2,-133,2H389V508H633l23,127h67V298H656L633,426H389V74L556,54V0Z" 
id="f0_16"
transform="scale(0.001,-0.001)" />

<path d="M34,0V49l76,18V634L38,652v49H325V67L402,49V0ZM217,831c0,0,-48,0,-81,33c0,0,-34,33,-34,82c0,0,0,48,34,81c0,0,34,33,81,33c0,0,48,0,81,-33c0,0,33,-33,33,-81c0,0,0,-47,-33,-81c0,0,-32,-34,-81,-34Z" 
id="f0_25"
transform="scale(0.001,-0.001)" />

<path d="M360,-256c0,0,108,0,167,35c0,0,59,35,59,98c0,0,0,70,-95,70H254c0,0,-65,-47,-65,-108c0,0,0,-47,46,-71c0,0,45,-24,125,-24Zm9,561c0,0,55,0,79,43c0,0,25,43,25,129c0,0,0,87,-24,127c0,0,-25,41,-80,41c0,0,-52,0,-75,-41c0,0,-24,-40,-24,-127c0,0,0,-86,23,-129c0,0,23,-43,76,-43Zm-9,-641c0,0,-153,0,-236,43c0,0,-84,44,-84,120c0,0,0,33,28,65c0,0,27,31,105,76c0,0,-44,17,-75,59c0,0,-31,43,-31,90L192,258c0,0,-133,56,-133,219c0,0,0,116,81,180c0,0,82,63,233,63c0,0,32,0,82,-6c0,0,51,-6,74,-13l168,83l26,-32L638,631c0,0,46,-57,46,-154c0,0,0,-119,-80,-182c0,0,-80,-64,-234,-64c0,0,-59,0,-114,9L238,183c0,0,1,-22,28,-41c0,0,26,-19,64,-19H493c0,0,256,0,256,-196c0,0,0,-81,-44,-139c0,0,-45,-59,-131,-92c0,0,-86,-32,-214,-32Z" 
id="f0_23"
transform="scale(0.001,-0.001)" />

<path d="M191,-20c0,0,-51,0,-88,34c0,0,-36,36,-36,88c0,0,0,52,36,88c0,0,36,36,88,36c0,0,51,0,88,-36c0,0,36,-36,36,-88c0,0,0,-51,-36,-87c0,0,-36,-35,-88,-35Z" 
id="f0_i"
transform="scale(0.001,-0.001)" />

<path d="M346,-14c0,0,-139,0,-276,29L61,258h69L169,96c0,0,29,-16,71,-26c0,0,43,-10,77,-10c0,0,172,0,172,230c0,0,0,120,-44,174c0,0,-44,53,-139,53c0,0,-53,0,-97,-19L186,488H111v512H633V834H194V571c0,0,91,21,164,21c0,0,178,0,264,-74c0,0,86,-73,86,-220c0,0,0,-151,-94,-232c0,0,-93,-80,-268,-80Z" 
id="f0_p"
transform="scale(0.001,-0.001)" />

<path d="M135,-20c0,0,-51,0,-88,34c0,0,-36,36,-36,88c0,0,0,52,36,88c0,0,36,36,88,36c0,0,51,0,88,-36c0,0,36,-36,36,-88c0,0,0,-51,-36,-87c0,0,-36,-35,-88,-35Z" 
id="f1_i"
transform="scale(0.001,-0.001)" />

<path d="M-10,0l9,54L130,74L280,926L155,945l10,55H950L905,746H837l4,162c0,0,-81,10,-239,10H499L434,551H644l42,111h67L698,355H632l-3,113H419L351,82H488c0,0,189,0,252,12l77,185h68L822,0Z" 
id="f1_15"
transform="scale(0.001,-0.001)" />

<path d="M-6,0c0,0,-12,10,-12,32c0,0,0,26,24,57c0,0,24,31,78,76L295,343L145,634L81,652l8,49H312L435,459l76,63c0,0,37,30,55,54c0,0,18,24,18,47c0,0,0,22,-41,30l9,48H711c0,0,16,-12,16,-32c0,0,0,-56,-103,-142L468,398L639,65L703,49L695,0H469L327,279L204,176c0,0,-26,-23,-41,-39c0,0,-15,-16,-21,-28c0,0,-6,-13,-6,-31c0,0,0,-23,31,-30L158,0Z" 
id="f1_2k"
transform="scale(0.001,-0.001)" />

<path d="M304,96c0,0,30,0,67,30c0,0,36,30,65,74l74,420c0,0,-33,25,-92,25c0,0,-55,0,-102,-52c0,0,-47,-53,-75,-143c0,0,-27,-90,-27,-187c0,0,0,-77,26,-122c0,0,26,-45,64,-45ZM215,-14c0,0,-93,0,-145,66c0,0,-52,68,-52,187c0,0,0,130,54,242c0,0,55,111,152,175c0,0,98,64,215,64c0,0,103,0,187,-35l61,28h40L614,67L695,43L689,0H430l-3,104c0,0,-44,-55,-99,-87c0,0,-56,-31,-113,-31Z" 
id="f1_1x"
transform="scale(0.001,-0.001)" />

<path d="M29,0L140,634L73,652l10,49H327L325,576c0,0,54,73,114,108c0,0,61,36,135,36c0,0,67,0,104,-40c0,0,38,-39,39,-108c0,0,105,148,252,148c0,0,66,0,104,-42c0,0,39,-41,39,-116c0,0,0,-27,-12,-98L1029,67l86,-18L1106,0H818l76,424c0,0,16,87,16,117c0,0,0,72,-54,72c0,0,-26,0,-61,-30c0,0,-36,-30,-64,-76c0,0,-28,-46,-35,-87L622,0H423l76,424c0,0,16,87,16,117c0,0,0,72,-55,72c0,0,-36,0,-81,-50c0,0,-46,-49,-72,-120L228,0Z" 
id="f1_29"
transform="scale(0.001,-0.001)" />

<path d="M327,60c0,0,53,0,99,52c0,0,45,53,70,142c0,0,25,89,25,184c0,0,0,78,-22,123c0,0,-23,45,-60,45c0,0,-51,0,-126,-99L240,95c0,0,18,-17,43,-26c0,0,25,-9,44,-9ZM-108,-325l9,50l78,18L137,638L63,656l9,45H330L325,598c0,0,94,122,199,122c0,0,88,0,141,-67c0,0,53,-68,53,-182c0,0,0,-133,-49,-244C669,227,621,115,533,50c0,0,-88,-64,-198,-64c0,0,-64,0,-116,24l-1,-21l-9,-70L181,-257l119,-18l-9,-50Z" 
id="f1_2c"
transform="scale(0.001,-0.001)" />

<path d="M34,0L210,992l-68,18l8,50H422L246,67L335,49L327,0Z" 
id="f1_28"
transform="scale(0.001,-0.001)" />

<path d="M254,378c0,0,91,10,150,67c0,0,59,56,59,132c0,0,0,31,-16,47c0,0,-15,15,-36,15c0,0,-51,0,-96,-76c0,0,-44,-76,-61,-185ZM307,-14c0,0,-132,0,-202,66c0,0,-69,66,-69,194c0,0,0,128,54,238c0,0,55,110,144,173c0,0,90,63,186,63c0,0,103,0,164,-42c0,0,61,-41,61,-111c0,0,0,-67,-50,-124c0,0,-49,-57,-142,-93c0,0,-93,-37,-211,-46c0,0,-3,-15,-3,-50c0,0,0,-176,135,-176c0,0,55,0,102,21c0,0,47,22,88,49l33,-47c0,0,-66,-55,-143,-85c0,0,-77,-30,-147,-30Z" 
id="f1_21"
transform="scale(0.001,-0.001)" />

<path d="M320,60c0,0,48,0,93,55c0,0,44,55,70,149c0,0,27,93,27,202c0,0,0,179,-94,179c0,0,-47,0,-93,-56c0,0,-45,-57,-73,-152c0,0,-28,-95,-28,-199c0,0,0,-85,27,-132c0,0,28,-46,71,-46ZM303,-14c0,0,-127,0,-203,79c0,0,-76,80,-76,214c0,0,0,121,52,222c0,0,52,102,146,160c0,0,94,59,211,59c0,0,126,0,203,-80c0,0,76,-80,76,-214c0,0,0,-121,-53,-222C659,204,607,102,514,44c0,0,-94,-58,-211,-58Z" 
id="f1_2b"
transform="scale(0.001,-0.001)" />

<path d="M0,-325L166,624H45l9,51l126,29l17,91c0,0,28,148,107,214c0,0,80,67,213,67c0,0,68,0,119,-16L606,895H559l-9,83c0,0,-16,15,-42,15c0,0,-40,0,-64,-39c0,0,-25,-40,-43,-135L380,701H533L520,624H366L201,-325Z" 
id="f1_22"
transform="scale(0.001,-0.001)" />

<path d="M291,96c0,0,28,0,68,30c0,0,40,30,71,74l73,410c0,0,-15,14,-46,25c0,0,-31,10,-54,10c0,0,-51,0,-95,-53c0,0,-43,-53,-69,-143c0,0,-25,-90,-25,-185c0,0,0,-80,21,-124c0,0,22,-44,56,-44ZM206,-14c0,0,-85,0,-137,65c0,0,-51,66,-51,181c0,0,0,132,48,244c0,0,48,113,135,178c0,0,87,66,193,66c0,0,81,0,130,-21l2,22l8,70l34,201l-119,19l9,49H783L606,64L680,45L671,0H423l-5,108c0,0,-44,-59,-101,-91c0,0,-57,-31,-111,-31Z" 
id="f1_20"
transform="scale(0.001,-0.001)" />

<path d="M39,0L151,634L83,652l8,49H363L251,67L340,49L332,0ZM304,831c0,0,-48,0,-82,33c0,0,-33,33,-33,82c0,0,0,48,34,81c0,0,34,33,81,33c0,0,47,0,81,-33c0,0,33,-33,33,-81c0,0,0,-47,-33,-81c0,0,-33,-34,-81,-34Z" 
id="f1_25"
transform="scale(0.001,-0.001)" />

<path d="M31,0L142,634L75,652l10,49H334L328,571c0,0,116,149,284,149c0,0,74,0,117,-40c0,0,43,-39,43,-111c0,0,0,-39,-19,-136L689,67L775,49L765,0H477l77,424c0,0,16,87,16,117c0,0,0,72,-68,72c0,0,-47,0,-106,-52c0,0,-59,-52,-87,-118L230,0Z" 
id="f1_2a"
transform="scale(0.001,-0.001)" />

<path d="M304,96c0,0,26,0,61,26c0,0,36,26,69,71l80,434c0,0,-44,18,-96,18c0,0,-55,0,-101,-51c0,0,-45,-52,-72,-143c0,0,-27,-90,-27,-187c0,0,0,-79,24,-123c0,0,24,-45,62,-45ZM219,-325c0,0,-69,0,-138,15c0,0,-69,15,-108,38l16,189H30l27,-98c0,0,27,-27,69,-45c0,0,43,-17,94,-17c0,0,50,0,84,18c0,0,33,19,54,56c0,0,20,37,34,114c0,0,18,109,35,163c0,0,-46,-59,-102,-92c0,0,-56,-33,-110,-33c0,0,-87,0,-140,67c0,0,-53,67,-53,182c0,0,0,133,50,247c0,0,51,115,140,178c0,0,89,63,202,63c0,0,122,0,310,-32L595,-25c0,0,-28,-155,-120,-227c0,0,-92,-73,-256,-73Z" 
id="f1_23"
transform="scale(0.001,-0.001)" />

<path d="M221,-14c0,0,-82,0,-127,38C94,24,50,64,50,138c0,0,0,35,13,108l69,378H46l8,48l106,29L264,860H373L345,701H463L449,624H331L263,244c0,0,-12,-61,-12,-89c0,0,0,-40,20,-58c0,0,20,-18,48,-18c0,0,26,0,82,20L421,46C421,46,384,20,328,3c0,0,-56,-17,-107,-17Z" 
id="f1_2g"
transform="scale(0.001,-0.001)" />

<path d="M213,-14c0,0,-57,0,-123,13C90,-1,24,11,-7,26L26,220H75L87,122c0,0,47,-67,132,-67c0,0,61,0,97,32c0,0,37,33,37,81c0,0,0,29,-20,53c0,0,-20,24,-61,48l-50,29c0,0,-82,46,-117,96c0,0,-34,51,-34,113c0,0,0,213,281,213c0,0,88,0,196,-24L515,516H466l-9,82c0,0,-16,19,-47,35c0,0,-30,16,-68,16c0,0,-57,0,-84,-25c0,0,-26,-25,-26,-66c0,0,0,-29,22,-55c0,0,22,-25,97,-67c0,0,70,-39,101,-68c0,0,31,-29,48,-64c0,0,17,-35,17,-82c0,0,0,-114,-76,-175c0,0,-76,-61,-228,-61Z" 
id="f1_2f"
transform="scale(0.001,-0.001)" />

<path d="M342,-14c0,0,-138,0,-276,29L57,258h69L165,96c0,0,65,-36,136,-36c0,0,90,0,141,58c0,0,50,57,50,161c0,0,0,91,-40,139c0,0,-41,48,-132,54l-87,5v90l84,6c0,0,66,5,98,49c0,0,32,44,32,134c0,0,0,83,-38,131c0,0,-38,48,-107,48c0,0,-40,0,-66,-13c0,0,-26,-12,-49,-26L155,751H90V979c0,0,76,19,132,26c0,0,55,6,108,6c0,0,337,0,337,-246c0,0,0,-102,-54,-164c0,0,-54,-63,-153,-78c0,0,252,-30,252,-251c0,0,0,-136,-98,-211c0,0,-98,-75,-272,-75Z" 
id="f0_n"
transform="scale(0.001,-0.001)" />

<path d="M26,0V54L154,74V926L26,945v55H878V746H810L786,908c0,0,-83,10,-241,10H389V551H651l23,111h67V355H674L651,468H389V82H578c0,0,193,0,252,12l43,185h68L927,0Z" 
id="f0_15"
transform="scale(0.001,-0.001)" />

<path d="M287,-18c0,0,-194,0,-194,206V634L23,652v49H309V217c0,0,0,-63,26,-98c0,0,27,-35,76,-35c0,0,57,0,113,25V634l-64,18v49H740V67L809,49V0H536L526,61L475,35c0,0,-104,-53,-188,-53Z" 
id="f0_2h"
transform="scale(0.001,-0.001)" />

<path d="M30,0V49l76,18V992l-72,18v50H322V67L398,49V0Z" 
id="f0_28"
transform="scale(0.001,-0.001)" />

<path d="M434,423c0,0,0,101,-7,142c0,0,-6,40,-22,60c0,0,-16,19,-45,19c0,0,-44,0,-66,-48c0,0,-22,-49,-22,-173ZM389,-14c0,0,-172,0,-254,89c0,0,-83,90,-83,279c0,0,0,184,79,274c0,0,79,91,238,91c0,0,142,0,206,-76c0,0,64,-76,64,-237V345H271V333c0,0,0,-111,18,-158c0,0,18,-47,58,-72c0,0,40,-25,110,-25c0,0,66,0,166,22V42C623,42,582,18,517,1c0,0,-66,-15,-128,-15Z" 
id="f0_21"
transform="scale(0.001,-0.001)" />

<path d="M41,0V49l69,18V634L41,652v49H313l11,-61l50,26c0,0,105,54,188,54c0,0,194,0,194,-207V67L827,49V0H478V49l63,18V484c0,0,0,63,-27,98c0,0,-26,35,-75,35c0,0,-57,0,-114,-25V67L389,49V0Z" 
id="f0_2a"
transform="scale(0.001,-0.001)" />

<path d="M379,60c0,0,59,0,84,64c0,0,24,65,24,231c0,0,0,164,-24,227c0,0,-24,63,-84,63c0,0,-57,0,-80,-60c0,0,-22,-61,-22,-230c0,0,0,-173,23,-234c0,0,22,-61,79,-61Zm-2,-74c0,0,-161,0,-240,91c0,0,-79,91,-79,277c0,0,0,186,80,276c0,0,81,90,245,90c0,0,167,0,245,-93c0,0,78,-93,78,-273c0,0,0,-188,-81,-278c0,0,-81,-90,-248,-90Z" 
id="f0_2b"
transform="scale(0.001,-0.001)" />

<path d="M416,68c0,0,60,0,124,32V628c0,0,-58,15,-118,15c0,0,-67,0,-104,-73c0,0,-38,-73,-38,-216c0,0,0,-139,36,-212c0,0,35,-74,100,-74ZM369,-14c0,0,-155,0,-231,88c0,0,-76,90,-76,274c0,0,0,182,82,277c0,0,81,95,236,95c0,0,82,0,165,-20c0,0,-5,24,-5,115V992l-72,18v50H756V67L833,49V0H562L547,40C547,40,505,13,483,4c0,0,-23,-7,-51,-12c0,0,-28,-6,-63,-6Z" 
id="f0_20"
transform="scale(0.001,-0.001)" />

<path d="M276,-14c0,0,-57,0,-125,13C151,-1,83,10,48,23V214H97l28,-98c0,0,26,-26,69,-44c0,0,42,-17,86,-17c0,0,65,0,97,28c0,0,32,28,32,71c0,0,0,41,-31,65c0,0,-30,25,-133,57c0,0,-108,34,-154,92c0,0,-45,58,-45,143c0,0,0,95,71,152c0,0,71,57,183,57c0,0,77,0,207,-22V518H457l-24,82c0,0,-21,22,-60,35c0,0,-40,14,-75,14c0,0,-53,0,-79,-22c0,0,-26,-22,-26,-59c0,0,0,-40,32,-65c0,0,32,-26,132,-55c0,0,109,-34,155,-89c0,0,45,-55,45,-137c0,0,0,-117,-72,-177c0,0,-72,-59,-209,-59Z" 
id="f0_2f"
transform="scale(0.001,-0.001)" />

<path d="M44,0V40L172,60V941L44,960v40H794V760H745L721,922c0,0,-83,11,-241,11H316V543H586l23,119h48V354H609L586,475H316V67H513c0,0,193,0,252,12l43,185h49L843,0Z" 
id="f2_15"
transform="scale(0.001,-0.001)" />

<path d="M289,-14c0,0,-179,0,-179,205V649L20,668v33H233V200c0,0,0,-128,120,-128c0,0,92,0,173,23V649L420,668v33H649V52L738,33V0H533l-6,57C527,57,474,28,405,7c0,0,-69,-21,-116,-21Z" 
id="f2_2h"
transform="scale(0.001,-0.001)" />

<path d="M359,-270c0,0,124,0,192,46c0,0,67,47,67,129c0,0,0,43,-26,67c0,0,-26,24,-79,24H242c0,0,-32,-27,-51,-69c0,0,-20,-41,-20,-77c0,0,0,-64,46,-92c0,0,46,-28,142,-28Zm11,561c0,0,81,0,115,47c0,0,34,47,34,141c0,0,0,100,-35,142c0,0,-35,42,-113,42c0,0,-78,0,-114,-43c0,0,-37,-42,-37,-141c0,0,0,-98,36,-143c0,0,36,-45,114,-45ZM359,-329c0,0,-143,0,-218,44c0,0,-75,43,-75,125c0,0,0,39,27,78c0,0,26,38,98,89c0,0,-43,14,-72,48c0,0,-29,35,-29,74L208,262c0,0,-118,55,-118,217c0,0,0,115,73,178c0,0,73,63,211,63c0,0,28,0,71,-6c0,0,44,-6,67,-13l165,83l26,-32L599,644c0,0,50,-56,50,-165c0,0,0,-120,-72,-182c0,0,-73,-62,-208,-62c0,0,-62,0,-114,11L208,148c0,0,2,-13,29,-24c0,0,27,-12,67,-12H512c0,0,113,0,168,-49c0,0,55,-49,55,-134c0,0,0,-79,-44,-137c0,0,-43,-58,-128,-90c0,0,-84,-31,-204,-31Z" 
id="f2_23"
transform="scale(0.001,-0.001)" />

<path d="M31,0V33L150,52v956L31,1026v34H274V52L394,33V0Z" 
id="f2_28"
transform="scale(0.001,-0.001)" />

<path d="M495,413c0,0,0,133,-34,190c0,0,-34,57,-105,57c0,0,-78,0,-119,-63c0,0,-42,-62,-42,-184ZM374,-14c0,0,-163,0,-239,87c0,0,-75,88,-75,283c0,0,0,183,77,273c0,0,76,91,219,91c0,0,269,0,269,-306V353H194V340c0,0,0,-103,23,-160c0,0,22,-57,70,-87c0,0,47,-29,124,-29c0,0,40,0,96,6c0,0,55,7,91,15V43C598,43,562,20,500,3c0,0,-61,-17,-126,-17Z" 
id="f2_21"
transform="scale(0.001,-0.001)" />

<path d="M439,0V33l93,19V500c0,0,0,62,-30,97c0,0,-31,36,-94,36c0,0,-67,0,-165,-22V52L338,33V0H35V33l84,19V649L35,668v33H235l7,-57c0,0,57,33,122,54c0,0,65,22,108,22c0,0,91,0,137,-53c0,0,47,-53,47,-154V52L741,33V0Z" 
id="f2_2a"
transform="scale(0.001,-0.001)" />

<path d="M377,45c0,0,99,0,147,73c0,0,47,73,47,237c0,0,0,161,-47,233c0,0,-47,72,-147,72c0,0,-97,0,-141,-69c0,0,-44,-69,-44,-236c0,0,0,-169,45,-240c0,0,44,-70,140,-70Zm0,-59c0,0,-158,0,-238,94c0,0,-81,95,-81,274c0,0,0,178,81,272c0,0,80,94,244,94c0,0,160,0,241,-92c0,0,82,-92,82,-274c0,0,0,-368,-329,-368Z" 
id="f2_2b"
transform="scale(0.001,-0.001)" />

<path d="M32,0V33L151,52V649L52,668v33H275V52L395,33V0ZM201,850c0,0,-32,0,-56,24c0,0,-24,24,-24,56c0,0,0,34,24,58c0,0,24,24,56,24c0,0,34,0,58,-24c0,0,24,-24,24,-58c0,0,0,-32,-24,-56c0,0,-24,-24,-58,-24Z" 
id="f2_25"
transform="scale(0.001,-0.001)" />

<path d="M383,64c0,0,85,0,152,28V645c0,0,-67,13,-152,13c0,0,-194,0,-194,-314c0,0,0,-141,48,-211c0,0,48,-69,146,-69ZM342,-14c0,0,-287,0,-287,358c0,0,0,184,82,280c0,0,81,96,239,96c0,0,81,0,163,-18c0,0,-4,25,-4,124v182l-118,18v34H659V52L745,33V0H548l-9,52c0,0,-84,-66,-197,-66Z" 
id="f2_20"
transform="scale(0.001,-0.001)" />

<path d="M278,-14c0,0,-52,0,-115,11c0,0,-63,10,-99,23V193H98L134,95c0,0,56,-50,146,-50c0,0,144,0,144,123c0,0,0,91,-114,130l-66,21c0,0,-75,25,-110,50c0,0,-34,26,-53,63c0,0,-18,36,-18,89c0,0,0,92,63,145c0,0,63,54,170,54c0,0,77,0,193,-23V544H454l-32,81c0,0,-39,35,-124,35c0,0,-61,0,-92,-30c0,0,-32,-30,-32,-80c0,0,0,-43,29,-72c0,0,28,-29,86,-48c0,0,110,-38,144,-55c0,0,33,-17,57,-42c0,0,23,-25,36,-57c0,0,13,-32,13,-79c0,0,0,-104,-66,-158c0,0,-66,-53,-195,-53Z" 
id="f2_2f"
transform="scale(0.001,-0.001)" />

<path d="M284,67c0,0,51,0,88,12c0,0,37,12,74,30V358l-98,-3c0,0,-100,-4,-135,-39c0,0,-35,-35,-35,-117c0,0,0,-132,106,-132ZM233,-14c0,0,-179,0,-179,208c0,0,0,70,27,116c0,0,27,46,87,70c0,0,60,24,173,27l105,3V519c0,0,0,72,-26,107c0,0,-27,34,-82,34c0,0,-75,0,-137,-35L176,538H134V691c0,0,121,26,213,26c0,0,115,0,169,-47c0,0,54,-47,54,-144V52L657,33V0H465L451,70c0,0,-85,-84,-218,-84Z" 
id="f2_1x"
transform="scale(0.001,-0.001)" />

<path d="M31,0V33l88,19V649L31,668v33H235l7,-87c0,0,44,37,121,71c0,0,76,35,121,35h11V530H463l-43,82c0,0,-37,0,-88,-10c0,0,-52,-10,-89,-26V52L363,33V0Z" 
id="f2_2e"
transform="scale(0.001,-0.001)" />

<path d="M64,0V34L168,59V639H47v36l121,29v49c0,0,0,155,61,239c0,0,62,84,173,84c0,0,58,0,107,-15V908H472l-33,92c0,0,-26,16,-62,16c0,0,-47,0,-66,-42c0,0,-19,-42,-19,-157V701H478V639H292V59L443,34V0Z" 
id="f2_22"
transform="scale(0.001,-0.001)" />

<path d="M442,0V33l93,19V504c0,0,0,129,-124,129c0,0,-70,0,-168,-22V52L338,33V0H31V33l88,19v956L15,1026v34H243V756c0,0,0,-77,-5,-112c0,0,54,31,122,53c0,0,68,23,115,23c0,0,91,0,137,-53c0,0,47,-53,47,-154V52L744,33V0Z" 
id="f2_24"
transform="scale(0.001,-0.001)" />

<path d="M327,-14L84,649L1,668v33H335V668L219,648L385,174L554,632h63L786,171L944,649L830,668v33h267V668l-78,-16L784,-14H726L553,448L382,-14Z" 
id="f2_2j"
transform="scale(0.001,-0.001)" />

<path d="M249,-14c0,0,-71,0,-107,42c0,0,-35,42,-35,119V639H15v33l93,29l76,159h47V701H391V639H231V161c0,0,0,-48,22,-73c0,0,22,-24,57,-24c0,0,44,0,106,12V26C416,26,389,8,340,-2c0,0,-49,-12,-91,-12Z" 
id="f2_2g"
transform="scale(0.001,-0.001)" />

<path d="M431,0V33L535,52V499c0,0,0,62,-32,96c0,0,-32,33,-95,33c0,0,-66,0,-163,-22V52L350,33V0H32V33l89,19V649L32,668v33H237l6,-57c0,0,56,32,119,54c0,0,62,22,110,22c0,0,52,0,95,-20c0,0,44,-19,66,-62c0,0,57,32,134,57c0,0,77,25,128,25c0,0,179,0,179,-207V52l90,-19V0H846V33L950,52V499c0,0,0,129,-119,129c0,0,-19,0,-45,-3c0,0,-26,-3,-52,-7c0,0,-25,-4,-49,-8c0,0,-23,-5,-39,-8c0,0,13,-41,13,-89V52L764,33V0Z" 
id="f2_29"
transform="scale(0.001,-0.001)" />

<path d="M191,-20c0,0,-39,0,-65,25c0,0,-25,27,-25,64c0,0,0,38,26,64c0,0,26,26,64,26c0,0,38,0,64,-26c0,0,26,-26,26,-64c0,0,0,-37,-25,-64c0,0,-26,-25,-65,-25Z" 
id="f2_i"
transform="scale(0.001,-0.001)" />

<path d="M235,0V40L394,60V936H356c0,0,-189,0,-258,-15L78,766H28v234H908V766H857L837,921c0,0,-22,5,-98,9c0,0,-75,4,-165,4H538V60L697,40V0Z" 
id="f2_1k"
transform="scale(0.001,-0.001)" />

<path d="M148,-329c0,0,-58,0,-114,13v151H69l24,-71c0,0,23,-17,64,-17c0,0,39,0,72,22c0,0,33,23,60,67c0,0,27,44,68,157L90,649L19,668v33H344V668L233,648L423,158L606,649L497,668v33H758V668L685,652L411,-43c0,0,-48,-124,-84,-177c0,0,-36,-54,-79,-82c0,0,-44,-27,-100,-27Z" 
id="f2_2l"
transform="scale(0.001,-0.001)" />

<path d="M376,50c0,0,103,0,149,80c0,0,46,81,46,240c0,0,0,137,-47,204c0,0,-48,67,-148,67c0,0,-44,0,-87,-7c0,0,-44,-8,-63,-17V62c0,0,63,-12,150,-12Zm3,-64c0,0,-64,0,-141,14c0,0,-78,14,-136,37v971L0,1026v34H226V809c0,0,0,-40,-4,-148c0,0,74,59,188,59c0,0,143,0,219,-87c0,0,77,-87,77,-263c0,0,0,-189,-84,-287c0,0,-84,-97,-243,-97Z" 
id="f2_1y"
transform="scale(0.001,-0.001)" />

<path d="M382,45c0,0,188,0,188,314c0,0,0,143,-47,213c0,0,-46,69,-141,69c0,0,-87,0,-146,-24V58c0,0,67,-13,146,-13ZM25,-325v35l88,18V649L34,668v33H231l1,-41c0,0,31,27,84,43c0,0,53,17,107,17c0,0,134,0,208,-94c0,0,73,-93,73,-267c0,0,0,-178,-80,-276c0,0,-80,-97,-232,-97c0,0,-84,0,-160,16c0,0,4,-53,4,-84V-272l123,-18v-35Z" 
id="f2_2c"
transform="scale(0.001,-0.001)" />

<path d="M399,-14c0,0,-341,0,-341,370c0,0,0,175,87,269c0,0,87,95,249,95c0,0,101,0,220,-23V501H573L541,625c0,0,-62,35,-149,35c0,0,-200,0,-200,-304c0,0,0,-158,61,-225c0,0,61,-67,189,-67c0,0,109,0,189,24V43C631,43,595,16,530,1c0,0,-64,-15,-131,-15Z" 
id="f2_1z"
transform="scale(0.001,-0.001)" />

<path d="M477,0V33l64,19L348,354L257,254V52L331,33V0H44V33l89,19v956L29,1026v34H257V338L544,647l-73,20v34H718V667L631,650L431,446L688,50L764,33V0Z" 
id="f2_27"
transform="scale(0.001,-0.001)" />

<path d="M360,-14L72,649L0,668v33H327V668L216,648L420,164L615,649L504,668v33H764V668L697,652L416,-14Z" 
id="f2_2i"
transform="scale(0.001,-0.001)" />

<path d="M54,0V40L172,60V941L44,960v40H794V760H745L721,922c0,0,-83,11,-241,11H316V516H611l23,120h46V328H634L611,449H316V60L483,40V0Z" 
id="f2_16"
transform="scale(0.001,-0.001)" />

<path d="M13,0V34L95,46L325,350L122,649L40,668v33H357V668L264,648L399,446L554,649l-96,19v33H710V668L630,652L433,397L663,50L745,34V0H427V34l94,17L359,299L169,50L266,34V0Z" 
id="f2_2k"
transform="scale(0.001,-0.001)" />

<path d="M58,-234v58c0,0,131,42,131,125c0,0,0,15,-11,27c0,0,-11,12,-38,25C140,1,89,27,89,75c0,0,0,40,25,61c0,0,26,21,65,21c0,0,48,0,77,-34c0,0,30,-34,30,-86c0,0,0,-101,-60,-170c0,0,-59,-69,-168,-101Z" 
id="f2_g"
transform="scale(0.001,-0.001)" />

<path d="M-17,0l8,40L120,60L276,941L151,960l7,40H909L866,761H817l4,161c0,0,-81,11,-239,11H419L349,543H619l45,119h48L657,354H609l-1,121H338L266,67H463c0,0,190,0,254,12l75,185h49L780,0Z" 
id="f3_15"
transform="scale(0.001,-0.001)" />

<path d="M228,-17c0,0,-76,0,-114,40c0,0,-38,41,-38,117c0,0,0,11,4,39c0,0,4,29,80,470L78,667l6,34H293L217,268c0,0,-17,-94,-17,-124c0,0,0,-34,18,-55c0,0,18,-21,57,-21c0,0,55,0,120,47c0,0,65,47,107,115l83,471H709L595,52L683,33L677,0H469l20,144C489,144,427,64,360,23c0,0,-67,-40,-132,-40Z" 
id="f3_2h"
transform="scale(0.001,-0.001)" />

<path d="M312,78c0,0,42,0,93,28c0,0,51,27,99,76l82,460c0,0,-18,5,-32,9c0,0,-14,3,-28,6c0,0,-14,2,-29,3c0,0,-16,1,-36,1c0,0,-75,0,-139,-56c0,0,-64,-56,-100,-150c0,0,-37,-95,-37,-202c0,0,0,-80,33,-127c0,0,33,-48,94,-48ZM249,-325c0,0,-65,0,-136,16c0,0,-70,15,-112,37l13,170H48l27,-93c0,0,60,-59,173,-59c0,0,91,0,145,47c0,0,54,48,72,152l29,175c0,0,-54,-59,-120,-97c0,0,-66,-37,-119,-37c0,0,-95,0,-149,66c0,0,-55,67,-55,182c0,0,0,131,58,243c0,0,57,112,154,177c0,0,97,66,211,66c0,0,45,0,117,-9c0,0,72,-9,128,-22L594,-25c0,0,-28,-158,-108,-229c0,0,-80,-71,-237,-71Z" 
id="f3_23"
transform="scale(0.001,-0.001)" />

<path d="M81,0L258,1008l-96,18l6,34H391L214,52L331,33L325,0Z" 
id="f3_28"
transform="scale(0.001,-0.001)" />

<path d="M188,355c0,0,148,11,236,69c0,0,89,58,89,143c0,0,0,41,-23,68c0,0,-22,27,-66,27c0,0,-52,0,-101,-43c0,0,-49,-42,-85,-114c0,0,-36,-71,-50,-150ZM298,-14c0,0,-120,0,-186,67c0,0,-65,67,-65,193c0,0,0,125,53,232c0,0,52,108,145,175c0,0,94,67,196,67c0,0,92,0,147,-42c0,0,56,-43,56,-111c0,0,0,-102,-126,-173c0,0,-125,-72,-336,-86l-3,-54c0,0,0,-95,40,-143c0,0,40,-47,118,-47c0,0,67,0,124,22c0,0,57,23,106,52l22,-32c0,0,-69,-58,-146,-89c0,0,-76,-31,-145,-31Z" 
id="f3_21"
transform="scale(0.001,-0.001)" />

<path d="M54,0L169,649L81,668l6,33H294L274,558c0,0,62,81,130,121c0,0,67,41,132,41c0,0,75,0,113,-41c0,0,38,-41,38,-117c0,0,0,-10,-3,-32c0,0,-3,-21,-81,-478L700,34L695,0H470l76,434c0,0,17,94,17,123c0,0,0,34,-18,55c0,0,-18,21,-56,21c0,0,-56,0,-121,-47c0,0,-65,-47,-108,-117L178,0Z" 
id="f3_2a"
transform="scale(0.001,-0.001)" />

<path d="M301,78c0,0,85,0,185,104l81,442c0,0,-29,20,-55,28c0,0,-25,8,-62,8c0,0,-75,0,-137,-56c0,0,-62,-56,-98,-152c0,0,-36,-95,-36,-199c0,0,0,-79,33,-127c0,0,33,-48,89,-48ZM245,-14c0,0,-90,0,-145,66c0,0,-54,66,-54,182c0,0,0,131,57,244c0,0,57,114,152,178c0,0,96,64,208,64c0,0,90,0,170,-33l33,26h40L589,52L673,33L667,0H454l22,117C476,117,350,-14,245,-14Z" 
id="f3_1x"
transform="scale(0.001,-0.001)" />

<path d="M617,0L251,860V60L385,40V0H44V40L172,60V941L44,960v40H347L672,239l355,761h287V960L1185,941V60L1314,40V0H908V40l134,20V859L643,0Z" 
id="f2_1d"
transform="scale(0.001,-0.001)" />

<path d="M41,0V34L426,641H261c0,0,-42,0,-80,-7c0,0,-39,-7,-54,-19L104,515H69V701H586V665L201,60H407c0,0,42,0,89,10c0,0,47,10,66,25l39,147h35L617,0Z" 
id="f2_2m"
transform="scale(0.001,-0.001)" />

<path d="M394,460c0,0,126,0,186,57c0,0,60,57,60,187c0,0,0,123,-57,176c0,0,-58,53,-194,53H316V460ZM54,0V40L172,60V941L44,960v40H421c0,0,368,0,368,-295c0,0,0,-153,-93,-233c0,0,-93,-80,-267,-80H316V60L475,40V0Z" 
id="f2_1g"
transform="scale(0.001,-0.001)" />

<path d="M460,-325c0,0,-148,79,-231,172c0,0,-84,93,-123,217c0,0,-39,126,-39,304c0,0,0,178,39,303c0,0,39,125,122,217c0,0,82,93,232,172V997c0,0,-91,-52,-145,-134c0,0,-54,-81,-79,-190c0,0,-25,-109,-25,-305c0,0,0,-194,26,-309c0,0,26,-114,82,-193c0,0,56,-79,141,-128v-63Z" 
id="f2_c"
transform="scale(0.001,-0.001)" />

<path d="M49,-325v63c0,0,85,49,140,128c0,0,56,79,83,194c0,0,26,115,26,308c0,0,0,196,-25,305c0,0,-25,109,-79,190c0,0,-54,82,-145,134v63c0,0,149,-80,232,-172c0,0,83,-92,122,-217c0,0,39,-125,39,-303c0,0,0,-177,-39,-303c0,0,-39,-125,-122,-217c0,0,-83,-93,-232,-173Z" 
id="f2_d"
transform="scale(0.001,-0.001)" />

<path d="M404,60c0,0,54,0,75,59c0,0,21,59,21,177c0,0,0,106,-29,162c0,0,-29,57,-87,57c0,0,-55,0,-112,-17v-4c0,0,0,-434,132,-434Zm3,-74c0,0,-172,0,-263,130c0,0,-92,130,-92,378c0,0,0,161,48,278c0,0,48,117,135,178c0,0,87,61,199,61c0,0,117,0,225,-32V751H594L562,896c0,0,-52,39,-113,39c0,0,-75,0,-121,-95c0,0,-47,-96,-55,-267c0,0,81,35,161,35c0,0,137,0,211,-77c0,0,74,-77,74,-220c0,0,0,-158,-81,-242c0,0,-81,-83,-231,-83Z" 
id="f0_q"
transform="scale(0.001,-0.001)" />

<path d="M219,-17c0,0,-75,0,-118,40c0,0,-42,41,-42,117c0,0,0,14,5,48c0,0,5,34,78,446L56,652l10,49H354L278,278c0,0,-17,-86,-17,-117c0,0,0,-72,68,-72c0,0,48,0,107,53c0,0,60,54,86,117l79,442H800L689,67L771,49L761,0H497l6,132C503,132,387,-17,219,-17Z" 
id="f1_2h"
transform="scale(0.001,-0.001)" />

<path d="M435,350V646c0,0,0,84,7,158L145,350ZM435,0V198H21V319l450,686H636V350H736V198H636V0Z" 
id="f0_o"
transform="scale(0.001,-0.001)" />

<path d="M410,-14c0,0,-86,0,-175,14C235,0,145,14,81,38V307h66L181,146c0,0,31,-37,94,-62c0,0,64,-24,132,-24c0,0,214,0,214,177c0,0,0,55,-41,93c0,0,-41,38,-128,68c0,0,-128,42,-185,68c0,0,-56,27,-95,63c0,0,-38,36,-62,87c0,0,-23,51,-23,125c0,0,0,132,90,201c0,0,90,69,263,69c0,0,125,0,278,-32V741H651L618,878c0,0,-76,56,-178,56c0,0,-92,0,-141,-34c0,0,-49,-34,-49,-104c0,0,0,-50,41,-86c0,0,41,-35,128,-63c0,0,171,-56,235,-97c0,0,64,-41,97,-103c0,0,34,-61,34,-143c0,0,0,-318,-375,-318Z" 
id="f0_1j"
transform="scale(0.001,-0.001)" />

<path d="M41,0V49l69,18V634L41,652v49H313l11,-61l50,26c0,0,105,54,188,54c0,0,125,0,167,-91c0,0,153,91,258,91c0,0,189,0,189,-207V67l71,-17V0H898V50l63,17V484c0,0,0,63,-24,98c0,0,-25,35,-74,35c0,0,-55,0,-119,-31c0,0,7,-32,7,-73V67L821,50V0H473V50l63,17V484c0,0,0,63,-25,98c0,0,-24,35,-73,35c0,0,-49,0,-113,-29V67L389,49V0Z" 
id="f0_29"
transform="scale(0.001,-0.001)" />

<path d="M557,-14c0,0,-199,0,-298,89c0,0,-99,90,-99,255V941L32,960v40H432V960L304,941V341c0,0,0,-273,264,-273c0,0,144,0,220,68c0,0,77,68,77,202V941L730,960v40h341V960L943,941V344c0,0,0,-180,-99,-269c0,0,-99,-89,-287,-89Z" 
id="f2_1l"
transform="scale(0.001,-0.001)" />

<path d="M457,460c0,0,289,0,289,266c0,0,0,106,-54,157c0,0,-54,50,-163,50H419L335,460ZM-7,0L0,40L120,60L276,941L151,960l7,40H559c0,0,161,0,248,-67c0,0,87,-66,87,-198c0,0,0,-167,-109,-255c0,0,-109,-88,-312,-88H323L264,60L427,40L420,0Z" 
id="f3_1g"
transform="scale(0.001,-0.001)" />

<path d="M228,-14c0,0,-103,0,-209,46L49,200H83L95,99c0,0,20,-21,55,-38c0,0,36,-16,81,-16c0,0,163,0,163,133c0,0,0,44,-35,78c0,0,-34,34,-113,72c0,0,-75,37,-112,81c0,0,-36,45,-36,104c0,0,0,99,66,153c0,0,67,54,184,54c0,0,85,0,200,-26L521,538H486l-11,80c0,0,-47,42,-124,42c0,0,-61,0,-97,-28c0,0,-37,-28,-37,-87c0,0,0,-40,31,-71c0,0,32,-30,119,-75c0,0,78,-40,113,-86c0,0,36,-47,36,-107c0,0,0,-113,-71,-167c0,0,-72,-53,-217,-53Z" 
id="f3_2f"
transform="scale(0.001,-0.001)" />

<path d="M55,0L169,649L81,668l6,33H295L274,557c0,0,52,73,117,118c0,0,65,45,122,45c0,0,66,0,102,-42c0,0,36,-41,36,-121c0,0,51,72,115,117c0,0,64,46,123,46c0,0,63,0,99,-40c0,0,36,-40,36,-116c0,0,0,-16,-3,-42c0,0,-3,-27,-80,-470l98,-19L1032,0H808l77,434c0,0,17,90,17,124c0,0,0,34,-16,54c0,0,-15,21,-49,21c0,0,-33,0,-78,-32c0,0,-46,-31,-83,-80c0,0,-37,-49,-44,-91L558,0H434l76,434c0,0,19,98,19,124c0,0,0,34,-17,54c0,0,-16,21,-51,21c0,0,-33,0,-81,-34c0,0,-47,-33,-84,-80c0,0,-36,-48,-43,-89L179,0Z" 
id="f3_29"
transform="scale(0.001,-0.001)" />

<path d="M325,47c0,0,68,0,130,54c0,0,61,55,97,149c0,0,36,94,36,202c0,0,0,103,-39,156c0,0,-39,53,-113,53c0,0,-67,0,-128,-54c0,0,-61,-55,-96,-149c0,0,-35,-94,-35,-204c0,0,0,-101,39,-154c0,0,39,-53,109,-53Zm-6,-61c0,0,-124,0,-199,79c0,0,-74,79,-74,214c0,0,0,120,51,222c0,0,51,102,143,160c0,0,91,59,205,59c0,0,124,0,199,-80c0,0,74,-79,74,-214c0,0,0,-120,-51,-222C667,204,615,102,524,43c0,0,-91,-57,-205,-57Z" 
id="f3_2b"
transform="scale(0.001,-0.001)" />

<path d="M301,78c0,0,41,0,90,27c0,0,49,28,95,77l81,442c0,0,-26,18,-54,27c0,0,-27,10,-67,10c0,0,-70,0,-131,-55c0,0,-61,-55,-99,-152c0,0,-37,-97,-37,-201c0,0,0,-79,33,-127c0,0,33,-48,89,-48ZM245,-14c0,0,-91,0,-145,68c0,0,-54,69,-54,183c0,0,0,128,55,240c0,0,55,112,150,177c0,0,96,66,210,66c0,0,70,0,123,-18c0,0,3,36,51,306l-115,18l6,34H768L589,52L673,33L667,0H454l22,117C476,117,350,-14,245,-14Z" 
id="f3_20"
transform="scale(0.001,-0.001)" />

<path d="M85,0L199,649l-96,19l6,33H332L218,52L335,33L329,0ZM297,849c0,0,-33,0,-57,24c0,0,-24,24,-24,57c0,0,0,33,24,57c0,0,24,24,57,24c0,0,33,0,57,-24c0,0,24,-24,24,-57c0,0,0,-33,-24,-57c0,0,-24,-24,-57,-24Z" 
id="f3_25"
transform="scale(0.001,-0.001)" />

<path d="M529,65c0,0,183,0,270,108c0,0,87,108,87,334c0,0,0,210,-113,318c0,0,-113,108,-322,108H316V71c0,0,90,-6,213,-6Zm0,-67L172,0H44V40L172,60V941L44,960v40H498c0,0,277,0,411,-123c0,0,133,-124,133,-371c0,0,0,-251,-129,-380C913,126,785,-2,529,-2Z" 
id="f2_14"
transform="scale(0.001,-0.001)" />

<path d="M494,385V878L152,385ZM494,0V262H20V385l498,708H628V385H775V262H628V0Z" 
id="f4_o"
transform="scale(0.001,-0.001)" />


</defs>
</svg>