<?xml version="1.0" encoding="UTF-8" standalone="no"?>
<!DOCTYPE svg PUBLIC "-//W3C//DTD SVG 1.1//EN"
"http://www.w3.org/Graphics/SVG/1.1/DTD/svg11.dtd">
<svg viewBox="0 0 935 1210" version="1.1" xmlns="http://www.w3.org/2000/svg" xmlns:xlink="http://www.w3.org/1999/xlink">
<defs>
<clipPath id="c0_171"><path d="M0,1210V0H935V1210Z" /></clipPath>
<style type="text/css"><![CDATA[
.g0_171{
}
]]></style>
</defs>
<g clip-path="url(#c0_171)">
<g fill="#000000" >
<use xlink:href="#f0_16" transform="matrix(12,0,0,12,395.8,72.3)" />
<use xlink:href="#f0_25" transform="matrix(12,0,0,12,406.8,72.3)" />
<use xlink:href="#f0_23" transform="matrix(12,0,0,12,411.9,72.3)" />
<use xlink:href="#f0_i" transform="matrix(12,0,0,12,421,72.3)" />
<use xlink:href="#f0_q" transform="matrix(12,0,0,12,430.6,72.3)" />
<use xlink:href="#f0_i" transform="matrix(12,0,0,12,439.7,72.3)" />
<use xlink:href="#f0_13" transform="matrix(12,0,0,12,448.9,72.3)" />
<use xlink:href="#f0_2l" transform="matrix(12,0,0,12,462.1,72.3)" />
<use xlink:href="#f0_2g" transform="matrix(12,0,0,12,471.3,72.3)" />
<use xlink:href="#f0_2b" transform="matrix(12,0,0,12,477.5,72.3)" />
<use xlink:href="#f0_27" transform="matrix(12,0,0,12,486.6,72.3)" />
<use xlink:href="#f0_25" transform="matrix(12,0,0,12,496.7,72.3)" />
<use xlink:href="#f0_2a" transform="matrix(12,0,0,12,501.7,72.3)" />
<use xlink:href="#f0_21" transform="matrix(12,0,0,12,512,72.3)" />
<use xlink:href="#f0_2f" transform="matrix(12,0,0,12,520.1,72.3)" />
<use xlink:href="#f0_25" transform="matrix(12,0,0,12,527.1,72.3)" />
<use xlink:href="#f0_2f" transform="matrix(12,0,0,12,532.2,72.3)" />
<use xlink:href="#f0_19" transform="matrix(12,0,0,12,55,116.3)" />
<use xlink:href="#f0_29" transform="matrix(12,0,0,12,62,116.3)" />
<use xlink:href="#f0_2c" transform="matrix(12,0,0,12,77,116.3)" />
<use xlink:href="#f0_2b" transform="matrix(12,0,0,12,87.3,116.3)" />
<use xlink:href="#f0_2e" transform="matrix(12,0,0,12,96.8,116.3)" />
<use xlink:href="#f0_2g" transform="matrix(12,0,0,12,104.5,116.3)" />
<use xlink:href="#f0_1x" transform="matrix(12,0,0,12,110.7,116.3)" />
<use xlink:href="#f0_2a" transform="matrix(12,0,0,12,119.9,116.3)" />
<use xlink:href="#f0_1z" transform="matrix(12,0,0,12,130.1,116.3)" />
<use xlink:href="#f0_21" transform="matrix(12,0,0,12,138.2,116.3)" />
<use xlink:href="#f0_2b" transform="matrix(12,0,0,12,151,116.3)" />
<use xlink:href="#f0_22" transform="matrix(12,0,0,12,160.2,116.3)" />
<use xlink:href="#f0_29" transform="matrix(12,0,0,12,170.8,116.3)" />
<use xlink:href="#f0_25" transform="matrix(12,0,0,12,185.8,116.3)" />
<use xlink:href="#f0_2g" transform="matrix(12,0,0,12,190.9,116.3)" />
<use xlink:href="#f0_2b" transform="matrix(12,0,0,12,197.2,116.3)" />
<use xlink:href="#f0_2f" transform="matrix(12,0,0,12,206.3,116.3)" />
<use xlink:href="#f0_25" transform="matrix(12,0,0,12,213.3,116.3)" />
<use xlink:href="#f0_2f" transform="matrix(12,0,0,12,218.8,116.3)" />
</g>
</g>
<path fill-rule="evenodd" d="M55,119.9H226.3v-1.8H55v1.8Z" class="g0_171" />
<g clip-path="url(#c0_171)">
<g fill="#000000" >
<use xlink:href="#f1_3d" transform="matrix(12,0,0,12,82.5,161)" />
<use xlink:href="#f2_1g" transform="matrix(12,0,0,12,110,161)" />
<use xlink:href="#f2_2e" transform="matrix(12,0,0,12,120.3,161)" />
<use xlink:href="#f2_2b" transform="matrix(12,0,0,12,126.2,161)" />
<use xlink:href="#f2_20" transform="matrix(12,0,0,12,135.7,161)" />
<use xlink:href="#f2_2h" transform="matrix(12,0,0,12,144.8,161)" />
<use xlink:href="#f2_1z" transform="matrix(12,0,0,12,154,161)" />
<use xlink:href="#f2_21" transform="matrix(12,0,0,12,162.1,161)" />
<use xlink:href="#f2_23" transform="matrix(12,0,0,12,174.9,161)" />
<use xlink:href="#f2_21" transform="matrix(12,0,0,12,184,161)" />
<use xlink:href="#f2_2a" transform="matrix(12,0,0,12,192.1,161)" />
<use xlink:href="#f2_21" transform="matrix(12,0,0,12,200.9,161)" />
<use xlink:href="#f2_2g" transform="matrix(12,0,0,12,209,161)" />
<use xlink:href="#f2_25" transform="matrix(12,0,0,12,214.5,161)" />
<use xlink:href="#f2_1z" transform="matrix(12,0,0,12,219.2,161)" />
<use xlink:href="#f2_1x" transform="matrix(12,0,0,12,227.3,161)" />
<use xlink:href="#f2_28" transform="matrix(12,0,0,12,235.7,161)" />
<use xlink:href="#f2_28" transform="matrix(12,0,0,12,240.8,161)" />
<use xlink:href="#f2_2l" transform="matrix(12,0,0,12,246,161)" />
<use xlink:href="#f2_25" transform="matrix(12,0,0,12,259.5,161)" />
<use xlink:href="#f2_20" transform="matrix(12,0,0,12,264.3,161)" />
<use xlink:href="#f2_21" transform="matrix(12,0,0,12,273.4,161)" />
<use xlink:href="#f2_2a" transform="matrix(12,0,0,12,281.9,161)" />
<use xlink:href="#f2_2g" transform="matrix(12,0,0,12,290.7,161)" />
<use xlink:href="#f2_25" transform="matrix(12,0,0,12,296.5,161)" />
<use xlink:href="#f2_1z" transform="matrix(12,0,0,12,300.9,161)" />
<use xlink:href="#f2_1x" transform="matrix(12,0,0,12,309,161)" />
<use xlink:href="#f2_28" transform="matrix(12,0,0,12,317.4,161)" />
<use xlink:href="#f2_20" transform="matrix(12,0,0,12,326.9,161)" />
<use xlink:href="#f2_1x" transform="matrix(12,0,0,12,336.1,161)" />
<use xlink:href="#f2_2h" transform="matrix(12,0,0,12,344.1,161)" />
<use xlink:href="#f2_23" transform="matrix(12,0,0,12,353.3,161)" />
<use xlink:href="#f2_24" transform="matrix(12,0,0,12,362.8,161)" />
<use xlink:href="#f2_2g" transform="matrix(12,0,0,12,371.6,161)" />
<use xlink:href="#f2_21" transform="matrix(12,0,0,12,377.1,161)" />
<use xlink:href="#f2_2e" transform="matrix(12,0,0,12,385.2,161)" />
<use xlink:href="#f2_1z" transform="matrix(12,0,0,12,396.1,161)" />
<use xlink:href="#f2_21" transform="matrix(12,0,0,12,404.2,161)" />
<use xlink:href="#f2_28" transform="matrix(12,0,0,12,412.3,161)" />
<use xlink:href="#f2_28" transform="matrix(12,0,0,12,417,161)" />
<use xlink:href="#f2_2f" transform="matrix(12,0,0,12,421.8,161)" />
<use xlink:href="#f2_i" transform="matrix(12,0,0,12,428.8,161)" />
<use xlink:href="#f1_3d" transform="matrix(12,0,0,12,82.5,194)" />
<use xlink:href="#f2_17" transform="matrix(12,0,0,12,110,194)" />
<use xlink:href="#f2_2e" transform="matrix(12,0,0,12,123.3,194)" />
<use xlink:href="#f2_2b" transform="matrix(12,0,0,12,129.5,194)" />
<use xlink:href="#f2_2j" transform="matrix(12,0,0,12,139,194)" />
<use xlink:href="#f2_2g" transform="matrix(12,0,0,12,151.8,194)" />
<use xlink:href="#f2_24" transform="matrix(12,0,0,12,157.3,194)" />
<use xlink:href="#f2_2b" transform="matrix(12,0,0,12,170.5,194)" />
<use xlink:href="#f2_22" transform="matrix(12,0,0,12,180,194)" />
<use xlink:href="#f2_2g" transform="matrix(12,0,0,12,190.2,194)" />
<use xlink:href="#f2_24" transform="matrix(12,0,0,12,195.7,194)" />
<use xlink:href="#f2_21" transform="matrix(12,0,0,12,204.5,194)" />
<use xlink:href="#f2_1y" transform="matrix(12,0,0,12,217.3,194)" />
<use xlink:href="#f2_2b" transform="matrix(12,0,0,12,226.1,194)" />
<use xlink:href="#f2_20" transform="matrix(12,0,0,12,235.7,194)" />
<use xlink:href="#f2_2l" transform="matrix(12,0,0,12,245.2,194)" />
<use xlink:href="#f2_2b" transform="matrix(12,0,0,12,258.4,194)" />
<use xlink:href="#f2_1z" transform="matrix(12,0,0,12,267.9,194)" />
<use xlink:href="#f2_1z" transform="matrix(12,0,0,12,275.9,194)" />
<use xlink:href="#f2_2h" transform="matrix(12,0,0,12,284,194)" />
<use xlink:href="#f2_2e" transform="matrix(12,0,0,12,293.2,194)" />
<use xlink:href="#f2_2f" transform="matrix(12,0,0,12,299.4,194)" />
<use xlink:href="#f2_2i" transform="matrix(12,0,0,12,311.1,194)" />
<use xlink:href="#f2_25" transform="matrix(12,0,0,12,320.3,194)" />
<use xlink:href="#f2_1x" transform="matrix(12,0,0,12,324.7,194)" />
<use xlink:href="#f2_29" transform="matrix(12,0,0,12,337.8,194)" />
<use xlink:href="#f2_25" transform="matrix(12,0,0,12,352.1,194)" />
<use xlink:href="#f2_2g" transform="matrix(12,0,0,12,356.5,194)" />
<use xlink:href="#f2_2b" transform="matrix(12,0,0,12,362,194)" />
<use xlink:href="#f2_2f" transform="matrix(12,0,0,12,371.5,194)" />
<use xlink:href="#f2_25" transform="matrix(12,0,0,12,378.9,194)" />
<use xlink:href="#f2_2f" transform="matrix(12,0,0,12,383.3,194)" />
<use xlink:href="#f2_i" transform="matrix(12,0,0,12,390.2,194)" />
<use xlink:href="#f1_3d" transform="matrix(12,0,0,12,82.5,227)" />
<use xlink:href="#f2_13" transform="matrix(12,0,0,12,110,227)" />
<use xlink:href="#f2_21" transform="matrix(12,0,0,12,122.1,227)" />
<use xlink:href="#f2_28" transform="matrix(12,0,0,12,130.6,227)" />
<use xlink:href="#f2_28" transform="matrix(12,0,0,12,135.3,227)" />
<use xlink:href="#f2_2e" transform="matrix(12,0,0,12,144.8,227)" />
<use xlink:href="#f2_21" transform="matrix(12,0,0,12,151,227)" />
<use xlink:href="#f2_2c" transform="matrix(12,0,0,12,159.1,227)" />
<use xlink:href="#f2_1x" transform="matrix(12,0,0,12,168.3,227)" />
<use xlink:href="#f2_25" transform="matrix(12,0,0,12,176.7,227)" />
<use xlink:href="#f2_2e" transform="matrix(12,0,0,12,181.1,227)" />
<use xlink:href="#f2_1x" transform="matrix(12,0,0,12,192.1,227)" />
<use xlink:href="#f2_2a" transform="matrix(12,0,0,12,200.5,227)" />
<use xlink:href="#f2_20" transform="matrix(12,0,0,12,209.3,227)" />
<use xlink:href="#f2_2e" transform="matrix(12,0,0,12,223.2,227)" />
<use xlink:href="#f2_21" transform="matrix(12,0,0,12,229.4,227)" />
<use xlink:href="#f2_2c" transform="matrix(12,0,0,12,237.5,227)" />
<use xlink:href="#f2_28" transform="matrix(12,0,0,12,247,227)" />
<use xlink:href="#f2_1x" transform="matrix(12,0,0,12,251.4,227)" />
<use xlink:href="#f2_1z" transform="matrix(12,0,0,12,259.8,227)" />
<use xlink:href="#f2_21" transform="matrix(12,0,0,12,267.9,227)" />
<use xlink:href="#f2_29" transform="matrix(12,0,0,12,276.3,227)" />
<use xlink:href="#f2_21" transform="matrix(12,0,0,12,290.2,227)" />
<use xlink:href="#f2_2a" transform="matrix(12,0,0,12,298.6,227)" />
<use xlink:href="#f2_2g" transform="matrix(12,0,0,12,307.4,227)" />
<use xlink:href="#f2_1x" transform="matrix(12,0,0,12,317.7,227)" />
<use xlink:href="#f2_28" transform="matrix(12,0,0,12,325.7,227)" />
<use xlink:href="#f2_2f" transform="matrix(12,0,0,12,330.5,227)" />
<use xlink:href="#f2_2b" transform="matrix(12,0,0,12,337.5,227)" />
<use xlink:href="#f2_2b" transform="matrix(12,0,0,12,351.4,227)" />
<use xlink:href="#f2_1z" transform="matrix(12,0,0,12,360.9,227)" />
<use xlink:href="#f2_1z" transform="matrix(12,0,0,12,369,227)" />
<use xlink:href="#f2_2h" transform="matrix(12,0,0,12,377,227)" />
<use xlink:href="#f2_2e" transform="matrix(12,0,0,12,386.2,227)" />
<use xlink:href="#f2_2f" transform="matrix(12,0,0,12,392.4,227)" />
<use xlink:href="#f2_2i" transform="matrix(12,0,0,12,404.1,227)" />
<use xlink:href="#f2_25" transform="matrix(12,0,0,12,413.3,227)" />
<use xlink:href="#f2_1x" transform="matrix(12,0,0,12,417.7,227)" />
<use xlink:href="#f2_29" transform="matrix(12,0,0,12,430.9,227)" />
<use xlink:href="#f2_25" transform="matrix(12,0,0,12,445.1,227)" />
<use xlink:href="#f2_2g" transform="matrix(12,0,0,12,449.6,227)" />
<use xlink:href="#f2_2b" transform="matrix(12,0,0,12,455.1,227)" />
<use xlink:href="#f2_2f" transform="matrix(12,0,0,12,464.6,227)" />
<use xlink:href="#f2_25" transform="matrix(12,0,0,12,471.9,227)" />
<use xlink:href="#f2_2f" transform="matrix(12,0,0,12,476.3,227)" />
<use xlink:href="#f2_i" transform="matrix(12,0,0,12,483.6,227)" />
<use xlink:href="#f1_3d" transform="matrix(12,0,0,12,82.5,260)" />
<use xlink:href="#f2_1d" transform="matrix(12,0,0,12,110,260)" />
<use xlink:href="#f2_1x" transform="matrix(12,0,0,12,126.2,260)" />
<use xlink:href="#f2_25" transform="matrix(12,0,0,12,134.6,260)" />
<use xlink:href="#f2_2a" transform="matrix(12,0,0,12,139.4,260)" />
<use xlink:href="#f2_2g" transform="matrix(12,0,0,12,148.2,260)" />
<use xlink:href="#f2_21" transform="matrix(12,0,0,12,153.6,260)" />
<use xlink:href="#f2_2a" transform="matrix(12,0,0,12,162,260)" />
<use xlink:href="#f2_1x" transform="matrix(12,0,0,12,170.8,260)" />
<use xlink:href="#f2_2a" transform="matrix(12,0,0,12,179.3,260)" />
<use xlink:href="#f2_1z" transform="matrix(12,0,0,12,188.1,260)" />
<use xlink:href="#f2_21" transform="matrix(12,0,0,12,196.1,260)" />
<use xlink:href="#f2_2b" transform="matrix(12,0,0,12,208.9,260)" />
<use xlink:href="#f2_22" transform="matrix(12,0,0,12,218.5,260)" />
<use xlink:href="#f2_2a" transform="matrix(12,0,0,12,229.1,260)" />
<use xlink:href="#f2_2h" transform="matrix(12,0,0,12,237.9,260)" />
<use xlink:href="#f2_1z" transform="matrix(12,0,0,12,247,260)" />
<use xlink:href="#f2_28" transform="matrix(12,0,0,12,255.5,260)" />
<use xlink:href="#f2_21" transform="matrix(12,0,0,12,260.2,260)" />
<use xlink:href="#f2_2b" transform="matrix(12,0,0,12,268.3,260)" />
<use xlink:href="#f2_h" transform="matrix(12,0,0,12,278,260)" />
<use xlink:href="#f2_1z" transform="matrix(12,0,0,12,284.3,260)" />
<use xlink:href="#f2_2l" transform="matrix(12,0,0,12,292.7,260)" />
<use xlink:href="#f2_2g" transform="matrix(12,0,0,12,301.1,260)" />
<use xlink:href="#f2_2b" transform="matrix(12,0,0,12,306.6,260)" />
<use xlink:href="#f2_2c" transform="matrix(12,0,0,12,316.1,260)" />
<use xlink:href="#f2_28" transform="matrix(12,0,0,12,325.3,260)" />
<use xlink:href="#f2_1x" transform="matrix(12,0,0,12,329.7,260)" />
<use xlink:href="#f2_2f" transform="matrix(12,0,0,12,337.8,260)" />
<use xlink:href="#f2_29" transform="matrix(12,0,0,12,345.1,260)" />
<use xlink:href="#f2_25" transform="matrix(12,0,0,12,359.3,260)" />
<use xlink:href="#f2_1z" transform="matrix(12,0,0,12,364.1,260)" />
<use xlink:href="#f2_2e" transform="matrix(12,0,0,12,376.9,260)" />
<use xlink:href="#f2_1x" transform="matrix(12,0,0,12,383.2,260)" />
<use xlink:href="#f2_2g" transform="matrix(12,0,0,12,391.2,260)" />
<use xlink:href="#f2_25" transform="matrix(12,0,0,12,396.7,260)" />
<use xlink:href="#f2_2b" transform="matrix(12,0,0,12,401.1,260)" />
<use xlink:href="#f2_i" transform="matrix(12,0,0,12,410.6,260)" />
<use xlink:href="#f0_13" transform="matrix(12,0,0,12,55,304)" />
<use xlink:href="#f0_21" transform="matrix(12,0,0,12,68.3,304)" />
<use xlink:href="#f0_28" transform="matrix(12,0,0,12,76.3,304)" />
<use xlink:href="#f0_28" transform="matrix(12,0,0,12,81.4,304)" />
<use xlink:href="#f0_1z" transform="matrix(12,0,0,12,91,304)" />
<use xlink:href="#f0_2l" transform="matrix(12,0,0,12,99,304)" />
<use xlink:href="#f0_1z" transform="matrix(12,0,0,12,108.2,304)" />
<use xlink:href="#f0_28" transform="matrix(12,0,0,12,116.6,304)" />
<use xlink:href="#f0_21" transform="matrix(12,0,0,12,121.4,304)" />
<use xlink:href="#f0_21" transform="matrix(12,0,0,12,134.2,304)" />
<use xlink:href="#f0_2k" transform="matrix(12,0,0,12,142.6,304)" />
<use xlink:href="#f0_25" transform="matrix(12,0,0,12,151.4,304)" />
<use xlink:href="#f0_2g" transform="matrix(12,0,0,12,156.5,304)" />
</g>
</g>
<path fill-rule="evenodd" d="M55,307.7H162.9v-1.8H55v1.8Z" class="g0_171" />
<g clip-path="url(#c0_171)">
<g fill="#000000" >
<use xlink:href="#f2_1j" transform="matrix(12,0,0,12,55,347.7)" />
<use xlink:href="#f2_2b" transform="matrix(12,0,0,12,65.3,347.7)" />
<use xlink:href="#f2_29" transform="matrix(12,0,0,12,74.8,347.7)" />
<use xlink:href="#f2_21" transform="matrix(12,0,0,12,88.4,347.7)" />
<use xlink:href="#f2_1z" transform="matrix(12,0,0,12,101.2,347.7)" />
<use xlink:href="#f2_21" transform="matrix(12,0,0,12,109.2,347.7)" />
<use xlink:href="#f2_28" transform="matrix(12,0,0,12,117.7,347.7)" />
<use xlink:href="#f2_28" transform="matrix(12,0,0,12,122.8,347.7)" />
<use xlink:href="#f2_2f" transform="matrix(12,0,0,12,127.6,347.7)" />
<use xlink:href="#f2_20" transform="matrix(12,0,0,12,139.3,347.7)" />
<use xlink:href="#f2_25" transform="matrix(12,0,0,12,148.8,347.7)" />
<use xlink:href="#f2_2i" transform="matrix(12,0,0,12,153.6,347.7)" />
<use xlink:href="#f2_25" transform="matrix(12,0,0,12,163.1,347.7)" />
<use xlink:href="#f2_20" transform="matrix(12,0,0,12,167.8,347.7)" />
<use xlink:href="#f2_21" transform="matrix(12,0,0,12,177,347.7)" />
<use xlink:href="#f2_1x" transform="matrix(12,0,0,12,189.8,347.7)" />
<use xlink:href="#f2_2g" transform="matrix(12,0,0,12,197.9,347.7)" />
<use xlink:href="#f2_1x" transform="matrix(12,0,0,12,208.1,347.7)" />
<use xlink:href="#f2_22" transform="matrix(12,0,0,12,221.3,347.7)" />
<use xlink:href="#f2_1x" transform="matrix(12,0,0,12,226.8,347.7)" />
<use xlink:href="#f2_2f" transform="matrix(12,0,0,12,234.9,347.7)" />
<use xlink:href="#f2_2g" transform="matrix(12,0,0,12,241.8,347.7)" />
<use xlink:href="#f2_2e" transform="matrix(12,0,0,12,252.4,347.7)" />
<use xlink:href="#f2_1x" transform="matrix(12,0,0,12,258.6,347.7)" />
<use xlink:href="#f2_2g" transform="matrix(12,0,0,12,266.7,347.7)" />
<use xlink:href="#f2_21" transform="matrix(12,0,0,12,272.1,347.7)" />
<use xlink:href="#f2_2j" transform="matrix(12,0,0,12,285,347.7)" />
<use xlink:href="#f2_24" transform="matrix(12,0,0,12,298.2,347.7)" />
<use xlink:href="#f2_21" transform="matrix(12,0,0,12,307,347.7)" />
<use xlink:href="#f2_2e" transform="matrix(12,0,0,12,315,347.7)" />
<use xlink:href="#f2_21" transform="matrix(12,0,0,12,321.2,347.7)" />
<use xlink:href="#f2_1x" transform="matrix(12,0,0,12,329.3,347.7)" />
<use xlink:href="#f2_2f" transform="matrix(12,0,0,12,337.4,347.7)" />
<use xlink:href="#f2_2f" transform="matrix(12,0,0,12,349.1,347.7)" />
<use xlink:href="#f2_2b" transform="matrix(12,0,0,12,356,347.7)" />
<use xlink:href="#f2_29" transform="matrix(12,0,0,12,365.9,347.7)" />
<use xlink:href="#f2_21" transform="matrix(12,0,0,12,379.5,347.7)" />
<use xlink:href="#f2_20" transform="matrix(12,0,0,12,392.3,347.7)" />
<use xlink:href="#f2_25" transform="matrix(12,0,0,12,401.8,347.7)" />
<use xlink:href="#f2_2i" transform="matrix(12,0,0,12,406.6,347.7)" />
<use xlink:href="#f2_25" transform="matrix(12,0,0,12,416.1,347.7)" />
<use xlink:href="#f2_20" transform="matrix(12,0,0,12,421.2,347.7)" />
<use xlink:href="#f2_21" transform="matrix(12,0,0,12,430.4,347.7)" />
<use xlink:href="#f2_2f" transform="matrix(12,0,0,12,438.5,347.7)" />
<use xlink:href="#f2_2f" transform="matrix(12,0,0,12,450.2,347.7)" />
<use xlink:href="#f2_28" transform="matrix(12,0,0,12,457.5,347.7)" />
<use xlink:href="#f2_2b" transform="matrix(12,0,0,12,461.9,347.7)" />
<use xlink:href="#f2_2j" transform="matrix(12,0,0,12,471.4,347.7)" />
<use xlink:href="#f2_28" transform="matrix(12,0,0,12,485,347.7)" />
<use xlink:href="#f2_2l" transform="matrix(12,0,0,12,490.1,347.7)" />
<use xlink:href="#f2_1x" transform="matrix(12,0,0,12,503.7,347.7)" />
<use xlink:href="#f2_2a" transform="matrix(12,0,0,12,512.1,347.7)" />
<use xlink:href="#f2_20" transform="matrix(12,0,0,12,520.9,347.7)" />
<use xlink:href="#f2_2f" transform="matrix(12,0,0,12,534.8,347.7)" />
<use xlink:href="#f2_2b" transform="matrix(12,0,0,12,541.7,347.7)" />
<use xlink:href="#f2_29" transform="matrix(12,0,0,12,551.6,347.7)" />
<use xlink:href="#f2_21" transform="matrix(12,0,0,12,565.2,347.7)" />
<use xlink:href="#f2_21" transform="matrix(12,0,0,12,578,347.7)" />
<use xlink:href="#f2_2i" transform="matrix(12,0,0,12,586.4,347.7)" />
<use xlink:href="#f2_21" transform="matrix(12,0,0,12,595.6,347.7)" />
<use xlink:href="#f2_2a" transform="matrix(12,0,0,12,604,347.7)" />
<use xlink:href="#f2_20" transform="matrix(12,0,0,12,617.6,347.7)" />
<use xlink:href="#f2_2b" transform="matrix(12,0,0,12,626.7,347.7)" />
<use xlink:href="#f2_2a" transform="matrix(12,0,0,12,641,347.7)" />
<use xlink:href="#f2_2b" transform="matrix(12,0,0,12,649.8,347.7)" />
<use xlink:href="#f2_2g" transform="matrix(12,0,0,12,659,347.7)" />
<use xlink:href="#f2_20" transform="matrix(12,0,0,12,669.2,347.7)" />
<use xlink:href="#f2_25" transform="matrix(12,0,0,12,678.3,347.7)" />
<use xlink:href="#f2_2i" transform="matrix(12,0,0,12,683.1,347.7)" />
<use xlink:href="#f2_25" transform="matrix(12,0,0,12,692.3,347.7)" />
<use xlink:href="#f2_20" transform="matrix(12,0,0,12,697,347.7)" />
<use xlink:href="#f2_21" transform="matrix(12,0,0,12,706.2,347.7)" />
<use xlink:href="#f2_2b" transform="matrix(12,0,0,12,719,347.7)" />
<use xlink:href="#f2_2a" transform="matrix(12,0,0,12,728.5,347.7)" />
<use xlink:href="#f2_1z" transform="matrix(12,0,0,12,737.3,347.7)" />
<use xlink:href="#f2_21" transform="matrix(12,0,0,12,745.4,347.7)" />
<use xlink:href="#f2_2g" transform="matrix(12,0,0,12,758.2,347.7)" />
<use xlink:href="#f2_24" transform="matrix(12,0,0,12,763.7,347.7)" />
<use xlink:href="#f2_21" transform="matrix(12,0,0,12,772.5,347.7)" />
<use xlink:href="#f2_2l" transform="matrix(12,0,0,12,780.9,347.7)" />
<use xlink:href="#f2_1x" transform="matrix(12,0,0,12,794.8,347.7)" />
<use xlink:href="#f2_2e" transform="matrix(12,0,0,12,802.9,347.7)" />
<use xlink:href="#f2_21" transform="matrix(12,0,0,12,809.1,347.7)" />
<use xlink:href="#f2_22" transform="matrix(12,0,0,12,822.3,347.7)" />
<use xlink:href="#f2_2b" transform="matrix(12,0,0,12,827.8,347.7)" />
<use xlink:href="#f2_2e" transform="matrix(12,0,0,12,837.3,347.7)" />
<use xlink:href="#f2_29" transform="matrix(12,0,0,12,843.5,347.7)" />
<use xlink:href="#f2_21" transform="matrix(12,0,0,12,857.1,347.7)" />
<use xlink:href="#f2_20" transform="matrix(12,0,0,12,865.2,347.7)" />
<use xlink:href="#f2_i" transform="matrix(12,0,0,12,874.3,347.7)" />
<use xlink:href="#f2_1k" transform="matrix(12,0,0,12,55,379.6)" />
<use xlink:href="#f2_24" transform="matrix(12,0,0,12,66.4,379.6)" />
<use xlink:href="#f2_2b" transform="matrix(12,0,0,12,75.2,379.6)" />
<use xlink:href="#f2_2f" transform="matrix(12,0,0,12,84.7,379.6)" />
<use xlink:href="#f2_21" transform="matrix(12,0,0,12,91.7,379.6)" />
<use xlink:href="#f2_1z" transform="matrix(12,0,0,12,104.5,379.6)" />
<use xlink:href="#f2_21" transform="matrix(12,0,0,12,112.5,379.6)" />
<use xlink:href="#f2_28" transform="matrix(12,0,0,12,121,379.6)" />
<use xlink:href="#f2_28" transform="matrix(12,0,0,12,125.7,379.6)" />
<use xlink:href="#f2_2f" transform="matrix(12,0,0,12,130.5,379.6)" />
<use xlink:href="#f2_2j" transform="matrix(12,0,0,12,142.2,379.6)" />
<use xlink:href="#f2_24" transform="matrix(12,0,0,12,155.4,379.6)" />
<use xlink:href="#f2_25" transform="matrix(12,0,0,12,164.6,379.6)" />
<use xlink:href="#f2_1z" transform="matrix(12,0,0,12,169.3,379.6)" />
<use xlink:href="#f2_24" transform="matrix(12,0,0,12,177.8,379.6)" />
<use xlink:href="#f2_20" transform="matrix(12,0,0,12,191.3,379.6)" />
<use xlink:href="#f2_2b" transform="matrix(12,0,0,12,200.5,379.6)" />
<use xlink:href="#f2_2a" transform="matrix(12,0,0,12,214.7,379.6)" />
<use xlink:href="#f2_2b" transform="matrix(12,0,0,12,223.5,379.6)" />
<use xlink:href="#f2_2g" transform="matrix(12,0,0,12,232.7,379.6)" />
<use xlink:href="#f2_20" transform="matrix(12,0,0,12,242.6,379.6)" />
<use xlink:href="#f2_25" transform="matrix(12,0,0,12,251.8,379.6)" />
<use xlink:href="#f2_2i" transform="matrix(12,0,0,12,256.5,379.6)" />
<use xlink:href="#f2_25" transform="matrix(12,0,0,12,265.7,379.6)" />
<use xlink:href="#f2_20" transform="matrix(12,0,0,12,270.5,379.6)" />
<use xlink:href="#f2_21" transform="matrix(12,0,0,12,279.6,379.6)" />
<use xlink:href="#f2_2b" transform="matrix(12,0,0,12,292.4,379.6)" />
<use xlink:href="#f2_2a" transform="matrix(12,0,0,12,302,379.6)" />
<use xlink:href="#f2_1z" transform="matrix(12,0,0,12,310.8,379.6)" />
<use xlink:href="#f2_21" transform="matrix(12,0,0,12,318.8,379.6)" />
<use xlink:href="#f2_22" transform="matrix(12,0,0,12,331.6,379.6)" />
<use xlink:href="#f2_2b" transform="matrix(12,0,0,12,337.1,379.6)" />
<use xlink:href="#f2_2e" transform="matrix(12,0,0,12,346.6,379.6)" />
<use xlink:href="#f2_29" transform="matrix(12,0,0,12,353.2,379.6)" />
<use xlink:href="#f2_21" transform="matrix(12,0,0,12,366.8,379.6)" />
<use xlink:href="#f2_20" transform="matrix(12,0,0,12,374.9,379.6)" />
<use xlink:href="#f2_g" transform="matrix(12,0,0,12,384,379.6)" />
<use xlink:href="#f2_21" transform="matrix(12,0,0,12,393.5,379.6)" />
<use xlink:href="#f2_2a" transform="matrix(12,0,0,12,401.6,379.6)" />
<use xlink:href="#f2_2g" transform="matrix(12,0,0,12,410.4,379.6)" />
<use xlink:href="#f2_21" transform="matrix(12,0,0,12,415.9,379.6)" />
<use xlink:href="#f2_2e" transform="matrix(12,0,0,12,423.9,379.6)" />
<use xlink:href="#f2_25" transform="matrix(12,0,0,12,434.9,379.6)" />
<use xlink:href="#f2_2a" transform="matrix(12,0,0,12,439.7,379.6)" />
<use xlink:href="#f2_2g" transform="matrix(12,0,0,12,448.5,379.6)" />
<use xlink:href="#f2_2b" transform="matrix(12,0,0,12,454,379.6)" />
<use xlink:href="#f2_1x" transform="matrix(12,0,0,12,467.9,379.6)" />
<use xlink:href="#f2_2c" transform="matrix(12,0,0,12,480.3,379.6)" />
<use xlink:href="#f2_24" transform="matrix(12,0,0,12,489.5,379.6)" />
<use xlink:href="#f2_1x" transform="matrix(12,0,0,12,498.3,379.6)" />
<use xlink:href="#f2_2f" transform="matrix(12,0,0,12,506.3,379.6)" />
<use xlink:href="#f2_21" transform="matrix(12,0,0,12,513.3,379.6)" />
<use xlink:href="#f2_27" transform="matrix(12,0,0,12,526.1,379.6)" />
<use xlink:href="#f2_2a" transform="matrix(12,0,0,12,535.3,379.6)" />
<use xlink:href="#f2_2b" transform="matrix(12,0,0,12,544.1,379.6)" />
<use xlink:href="#f2_2j" transform="matrix(12,0,0,12,553.6,379.6)" />
<use xlink:href="#f2_2a" transform="matrix(12,0,0,12,566.8,379.6)" />
<use xlink:href="#f2_1x" transform="matrix(12,0,0,12,580.4,379.6)" />
<use xlink:href="#f2_2f" transform="matrix(12,0,0,12,588.4,379.6)" />
<use xlink:href="#f2_17" transform="matrix(12,0,0,12,600.1,379.6)" />
<use xlink:href="#f2_1f" transform="matrix(7.9,0,0,7.9,614,381.1)" />
<use xlink:href="#f2_2c" transform="matrix(12,0,0,12,625.7,379.6)" />
<use xlink:href="#f2_24" transform="matrix(12,0,0,12,635.3,379.6)" />
<use xlink:href="#f2_1x" transform="matrix(12,0,0,12,644.1,379.6)" />
<use xlink:href="#f2_2f" transform="matrix(12,0,0,12,652.1,379.6)" />
<use xlink:href="#f2_21" transform="matrix(12,0,0,12,659.4,379.6)" />
<use xlink:href="#f2_i" transform="matrix(12,0,0,12,667.5,379.6)" />
<use xlink:href="#f2_16" transform="matrix(12,0,0,12,677,379.6)" />
<use xlink:href="#f2_2b" transform="matrix(12,0,0,12,686.9,379.6)" />
<use xlink:href="#f2_2e" transform="matrix(12,0,0,12,696.4,379.6)" />
<use xlink:href="#f2_21" transform="matrix(12,0,0,12,707,379.6)" />
<use xlink:href="#f2_2k" transform="matrix(12,0,0,12,715.1,379.6)" />
<use xlink:href="#f2_1x" transform="matrix(12,0,0,12,723.9,379.6)" />
<use xlink:href="#f2_29" transform="matrix(12,0,0,12,732.3,379.6)" />
<use xlink:href="#f2_2c" transform="matrix(12,0,0,12,745.9,379.6)" />
<use xlink:href="#f2_28" transform="matrix(12,0,0,12,755.4,379.6)" />
<use xlink:href="#f2_21" transform="matrix(12,0,0,12,760.2,379.6)" />
<use xlink:href="#f2_g" transform="matrix(12,0,0,12,768.2,379.6)" />
<use xlink:href="#f2_2a" transform="matrix(12,0,0,12,777.7,379.6)" />
<use xlink:href="#f2_21" transform="matrix(12,0,0,12,786.5,379.6)" />
<use xlink:href="#f2_2h" transform="matrix(12,0,0,12,794.9,379.6)" />
<use xlink:href="#f2_2e" transform="matrix(12,0,0,12,804.1,379.6)" />
<use xlink:href="#f2_2b" transform="matrix(12,0,0,12,810.3,379.6)" />
<use xlink:href="#f2_2a" transform="matrix(12,0,0,12,819.8,379.6)" />
<use xlink:href="#f2_1x" transform="matrix(12,0,0,12,828.6,379.6)" />
<use xlink:href="#f2_28" transform="matrix(12,0,0,12,837.1,379.6)" />
<use xlink:href="#f2_1z" transform="matrix(12,0,0,12,846.2,379.6)" />
<use xlink:href="#f2_21" transform="matrix(12,0,0,12,854.3,379.6)" />
<use xlink:href="#f2_28" transform="matrix(12,0,0,12,862.7,379.6)" />
<use xlink:href="#f2_28" transform="matrix(12,0,0,12,867.5,379.6)" />
<use xlink:href="#f2_2f" transform="matrix(12,0,0,12,872.6,379.6)" />
<use xlink:href="#f2_2b" transform="matrix(12,0,0,12,55,411.1)" />
<use xlink:href="#f2_2a" transform="matrix(12,0,0,12,64.6,411.1)" />
<use xlink:href="#f2_1z" transform="matrix(12,0,0,12,73.4,411.1)" />
<use xlink:href="#f2_21" transform="matrix(12,0,0,12,81.4,411.1)" />
<use xlink:href="#f2_22" transform="matrix(12,0,0,12,94.6,411.1)" />
<use xlink:href="#f2_2b" transform="matrix(12,0,0,12,100.1,411.1)" />
<use xlink:href="#f2_2e" transform="matrix(12,0,0,12,109.6,411.1)" />
<use xlink:href="#f2_29" transform="matrix(12,0,0,12,115.8,411.1)" />
<use xlink:href="#f2_21" transform="matrix(12,0,0,12,129.4,411.1)" />
<use xlink:href="#f2_20" transform="matrix(12,0,0,12,137.5,411.1)" />
<use xlink:href="#f2_2j" transform="matrix(12,0,0,12,151.4,411.1)" />
<use xlink:href="#f2_25" transform="matrix(12,0,0,12,164.9,411.1)" />
<use xlink:href="#f2_28" transform="matrix(12,0,0,12,170,411.1)" />
<use xlink:href="#f2_28" transform="matrix(12,0,0,12,174.8,411.1)" />
<use xlink:href="#f2_2a" transform="matrix(12,0,0,12,184.7,411.1)" />
<use xlink:href="#f2_2b" transform="matrix(12,0,0,12,193.5,411.1)" />
<use xlink:href="#f2_2g" transform="matrix(12,0,0,12,203,411.1)" />
<use xlink:href="#f2_20" transform="matrix(12,0,0,12,212.9,411.1)" />
<use xlink:href="#f2_25" transform="matrix(12,0,0,12,222.1,411.1)" />
<use xlink:href="#f2_2i" transform="matrix(12,0,0,12,226.8,411.1)" />
<use xlink:href="#f2_25" transform="matrix(12,0,0,12,236,411.1)" />
<use xlink:href="#f2_20" transform="matrix(12,0,0,12,240.8,411.1)" />
<use xlink:href="#f2_21" transform="matrix(12,0,0,12,249.9,411.1)" />
<use xlink:href="#f2_i" transform="matrix(12,0,0,12,258,411.1)" />
<use xlink:href="#f0_1d" transform="matrix(12,0,0,12,55,454.8)" />
<use xlink:href="#f0_21" transform="matrix(12,0,0,12,72.6,454.8)" />
<use xlink:href="#f0_25" transform="matrix(12,0,0,12,80.7,454.8)" />
<use xlink:href="#f0_2b" transform="matrix(12,0,0,12,85.8,454.8)" />
<use xlink:href="#f0_2f" transform="matrix(12,0,0,12,94.9,454.8)" />
<use xlink:href="#f0_25" transform="matrix(12,0,0,12,102,454.8)" />
<use xlink:href="#f0_2f" transform="matrix(12,0,0,12,107,454.8)" />
</g>
</g>
<path fill-rule="evenodd" d="M55,458.5h59.1v-1.8H55v1.8Z" class="g0_171" />
<g clip-path="url(#c0_171)">
<g fill="#000000" >
<use xlink:href="#f2_11" transform="matrix(12,0,0,12,55,498.8)" />
<use xlink:href="#f2_28" transform="matrix(12,0,0,12,68.3,498.8)" />
<use xlink:href="#f2_2f" transform="matrix(12,0,0,12,73,498.8)" />
<use xlink:href="#f2_2b" transform="matrix(12,0,0,12,80,498.8)" />
<use xlink:href="#f2_27" transform="matrix(12,0,0,12,93.9,498.8)" />
<use xlink:href="#f2_2a" transform="matrix(12,0,0,12,103.1,498.8)" />
<use xlink:href="#f2_2b" transform="matrix(12,0,0,12,111.9,498.8)" />
<use xlink:href="#f2_2j" transform="matrix(12,0,0,12,121.4,498.8)" />
<use xlink:href="#f2_2a" transform="matrix(12,0,0,12,134.6,498.8)" />
<use xlink:href="#f2_1x" transform="matrix(12,0,0,12,148.1,498.8)" />
<use xlink:href="#f2_2f" transform="matrix(12,0,0,12,156.2,498.8)" />
<use xlink:href="#f2_2e" transform="matrix(12,0,0,12,167.5,498.8)" />
<use xlink:href="#f2_21" transform="matrix(12,0,0,12,173.8,498.8)" />
<use xlink:href="#f2_20" transform="matrix(12,0,0,12,181.8,498.8)" />
<use xlink:href="#f2_2h" transform="matrix(12,0,0,12,191,498.8)" />
<use xlink:href="#f2_1z" transform="matrix(12,0,0,12,200.2,498.8)" />
<use xlink:href="#f2_2g" transform="matrix(12,0,0,12,208.2,498.8)" />
<use xlink:href="#f2_25" transform="matrix(12,0,0,12,214.1,498.8)" />
<use xlink:href="#f2_2b" transform="matrix(12,0,0,12,218.5,498.8)" />
<use xlink:href="#f2_2a" transform="matrix(12,0,0,12,228,498.8)" />
<use xlink:href="#f2_1x" transform="matrix(12,0,0,12,236.8,498.8)" />
<use xlink:href="#f2_28" transform="matrix(12,0,0,12,245.4,498.8)" />
<use xlink:href="#f2_20" transform="matrix(12,0,0,12,254.5,498.8)" />
<use xlink:href="#f2_25" transform="matrix(12,0,0,12,264.1,498.8)" />
<use xlink:href="#f2_2i" transform="matrix(12,0,0,12,268.8,498.8)" />
<use xlink:href="#f2_25" transform="matrix(12,0,0,12,278.3,498.8)" />
<use xlink:href="#f2_2f" transform="matrix(12,0,0,12,283.1,498.8)" />
<use xlink:href="#f2_25" transform="matrix(12,0,0,12,290.4,498.8)" />
<use xlink:href="#f2_2b" transform="matrix(12,0,0,12,294.8,498.8)" />
<use xlink:href="#f2_2a" transform="matrix(12,0,0,12,304.7,498.8)" />
<use xlink:href="#f2_1y" transform="matrix(12,0,0,12,318.3,498.8)" />
<use xlink:href="#f2_21" transform="matrix(12,0,0,12,327.1,498.8)" />
<use xlink:href="#f2_1z" transform="matrix(12,0,0,12,335.1,498.8)" />
<use xlink:href="#f2_1x" transform="matrix(12,0,0,12,343.2,498.8)" />
<use xlink:href="#f2_2h" transform="matrix(12,0,0,12,351.3,498.8)" />
<use xlink:href="#f2_2f" transform="matrix(12,0,0,12,360.8,498.8)" />
<use xlink:href="#f2_21" transform="matrix(12,0,0,12,367.7,498.8)" />
<use xlink:href="#f2_25" transform="matrix(12,0,0,12,380.5,498.8)" />
<use xlink:href="#f2_2g" transform="matrix(12,0,0,12,384.9,498.8)" />
<use xlink:href="#f2_2e" transform="matrix(12,0,0,12,394.8,498.8)" />
<use xlink:href="#f2_21" transform="matrix(12,0,0,12,401,498.8)" />
<use xlink:href="#f2_20" transform="matrix(12,0,0,12,409.1,498.8)" />
<use xlink:href="#f2_2h" transform="matrix(12,0,0,12,418.3,498.8)" />
<use xlink:href="#f2_1z" transform="matrix(12,0,0,12,427.8,498.8)" />
<use xlink:href="#f2_21" transform="matrix(12,0,0,12,435.9,498.8)" />
<use xlink:href="#f2_2f" transform="matrix(12,0,0,12,443.9,498.8)" />
<use xlink:href="#f2_2g" transform="matrix(12,0,0,12,455.3,498.8)" />
<use xlink:href="#f2_24" transform="matrix(12,0,0,12,460.8,498.8)" />
<use xlink:href="#f2_21" transform="matrix(12,0,0,12,469.6,498.8)" />
<use xlink:href="#f2_2a" transform="matrix(12,0,0,12,482.4,498.8)" />
<use xlink:href="#f2_2h" transform="matrix(12,0,0,12,491.2,498.8)" />
<use xlink:href="#f2_29" transform="matrix(12,0,0,12,500.7,498.8)" />
<use xlink:href="#f2_1y" transform="matrix(12,0,0,12,514.6,498.8)" />
<use xlink:href="#f2_21" transform="matrix(12,0,0,12,523.8,498.8)" />
<use xlink:href="#f2_2e" transform="matrix(12,0,0,12,531.9,498.8)" />
<use xlink:href="#f2_2b" transform="matrix(12,0,0,12,542.5,498.8)" />
<use xlink:href="#f2_22" transform="matrix(12,0,0,12,552,498.8)" />
<use xlink:href="#f2_1z" transform="matrix(12,0,0,12,561.9,498.8)" />
<use xlink:href="#f2_24" transform="matrix(12,0,0,12,570.3,498.8)" />
<use xlink:href="#f2_2e" transform="matrix(12,0,0,12,579.1,498.8)" />
<use xlink:href="#f2_2b" transform="matrix(12,0,0,12,585.3,498.8)" />
<use xlink:href="#f2_29" transform="matrix(12,0,0,12,595.2,498.8)" />
<use xlink:href="#f2_2b" transform="matrix(12,0,0,12,608.8,498.8)" />
<use xlink:href="#f2_2f" transform="matrix(12,0,0,12,618.3,498.8)" />
<use xlink:href="#f2_2b" transform="matrix(12,0,0,12,625.3,498.8)" />
<use xlink:href="#f2_29" transform="matrix(12,0,0,12,634.8,498.8)" />
<use xlink:href="#f2_21" transform="matrix(12,0,0,12,648.3,498.8)" />
<use xlink:href="#f2_2f" transform="matrix(12,0,0,12,656.8,498.8)" />
<use xlink:href="#f2_2g" transform="matrix(12,0,0,12,668.1,498.8)" />
<use xlink:href="#f2_2b" transform="matrix(12,0,0,12,673.6,498.8)" />
<use xlink:href="#f2_24" transform="matrix(12,0,0,12,687.5,498.8)" />
<use xlink:href="#f2_1x" transform="matrix(12,0,0,12,696.3,498.8)" />
<use xlink:href="#f2_28" transform="matrix(12,0,0,12,704.7,498.8)" />
<use xlink:href="#f2_22" transform="matrix(12,0,0,12,709.5,498.8)" />
<use xlink:href="#f2_2g" transform="matrix(12,0,0,12,719.4,498.8)" />
<use xlink:href="#f2_24" transform="matrix(12,0,0,12,724.9,498.8)" />
<use xlink:href="#f2_21" transform="matrix(12,0,0,12,733.7,498.8)" />
<use xlink:href="#f2_2c" transform="matrix(12,0,0,12,746.2,498.8)" />
<use xlink:href="#f2_1x" transform="matrix(12,0,0,12,755.3,498.8)" />
<use xlink:href="#f2_2e" transform="matrix(12,0,0,12,763.4,498.8)" />
<use xlink:href="#f2_21" transform="matrix(12,0,0,12,769.6,498.8)" />
<use xlink:href="#f2_2a" transform="matrix(12,0,0,12,778,498.8)" />
<use xlink:href="#f2_2g" transform="matrix(12,0,0,12,786.8,498.8)" />
<use xlink:href="#f2_1z" transform="matrix(12,0,0,12,796.7,498.8)" />
<use xlink:href="#f2_21" transform="matrix(12,0,0,12,804.8,498.8)" />
<use xlink:href="#f2_28" transform="matrix(12,0,0,12,813.2,498.8)" />
<use xlink:href="#f2_28" transform="matrix(12,0,0,12,817.9,498.8)" />
<use xlink:href="#f2_i" transform="matrix(12,0,0,12,822.7,498.8)" />
<use xlink:href="#f2_19" transform="matrix(12,0,0,12,831.9,498.8)" />
<use xlink:href="#f2_2g" transform="matrix(12,0,0,12,838.1,498.8)" />
<use xlink:href="#f2_25" transform="matrix(12,0,0,12,848,498.8)" />
<use xlink:href="#f2_2f" transform="matrix(12,0,0,12,852.4,498.8)" />
<use xlink:href="#f2_2b" transform="matrix(12,0,0,12,863.7,498.8)" />
<use xlink:href="#f2_22" transform="matrix(12,0,0,12,873.6,498.8)" />
<use xlink:href="#f2_2g" transform="matrix(12,0,0,12,55,530.4)" />
<use xlink:href="#f2_2j" transform="matrix(12,0,0,12,60.5,530.4)" />
<use xlink:href="#f2_2b" transform="matrix(12,0,0,12,73.4,530.4)" />
<use xlink:href="#f2_2g" transform="matrix(12,0,0,12,86.9,530.4)" />
<use xlink:href="#f2_2l" transform="matrix(12,0,0,12,92.4,530.4)" />
<use xlink:href="#f2_2c" transform="matrix(12,0,0,12,100.8,530.4)" />
<use xlink:href="#f2_21" transform="matrix(12,0,0,12,110.3,530.4)" />
<use xlink:href="#f2_2f" transform="matrix(12,0,0,12,118.4,530.4)" />
<use xlink:href="#f2_29" transform="matrix(12,0,0,12,130.5,530.4)" />
<use xlink:href="#f2_21" transform="matrix(12,0,0,12,144.4,530.4)" />
<use xlink:href="#f2_25" transform="matrix(12,0,0,12,152.8,530.4)" />
<use xlink:href="#f2_2b" transform="matrix(12,0,0,12,157.2,530.4)" />
<use xlink:href="#f2_2f" transform="matrix(12,0,0,12,166.8,530.4)" />
<use xlink:href="#f2_25" transform="matrix(12,0,0,12,174.1,530.4)" />
<use xlink:href="#f2_2f" transform="matrix(12,0,0,12,178.8,530.4)" />
<use xlink:href="#f2_19" transform="matrix(12,0,0,12,190.6,530.4)" />
<use xlink:href="#f2_1x" transform="matrix(12,0,0,12,201.5,530.4)" />
<use xlink:href="#f2_2a" transform="matrix(12,0,0,12,209.6,530.4)" />
<use xlink:href="#f2_20" transform="matrix(12,0,0,12,218.4,530.4)" />
<use xlink:href="#f2_29" transform="matrix(12,0,0,12,232.7,530.4)" />
<use xlink:href="#f2_21" transform="matrix(12,0,0,12,246.6,530.4)" />
<use xlink:href="#f2_25" transform="matrix(12,0,0,12,255,530.4)" />
<use xlink:href="#f2_2b" transform="matrix(12,0,0,12,259.4,530.4)" />
<use xlink:href="#f2_2f" transform="matrix(12,0,0,12,268.9,530.4)" />
<use xlink:href="#f2_25" transform="matrix(12,0,0,12,276.2,530.4)" />
<use xlink:href="#f2_2f" transform="matrix(12,0,0,12,281,530.4)" />
<use xlink:href="#f2_19" transform="matrix(12,0,0,12,292.7,530.4)" />
<use xlink:href="#f2_19" transform="matrix(12,0,0,12,298.9,530.4)" />
<use xlink:href="#f2_i" transform="matrix(12,0,0,12,305.2,530.4)" />
<use xlink:href="#f2_17" transform="matrix(12,0,0,12,314.7,530.4)" />
<use xlink:href="#f2_1x" transform="matrix(12,0,0,12,327.9,530.4)" />
<use xlink:href="#f2_29" transform="matrix(12,0,0,12,335.9,530.4)" />
<use xlink:href="#f2_21" transform="matrix(12,0,0,12,349.9,530.4)" />
<use xlink:href="#f2_2g" transform="matrix(12,0,0,12,357.9,530.4)" />
<use xlink:href="#f2_21" transform="matrix(12,0,0,12,363.4,530.4)" />
<use xlink:href="#f2_2f" transform="matrix(12,0,0,12,371.5,530.4)" />
<use xlink:href="#f2_2f" transform="matrix(12,0,0,12,383.2,530.4)" />
<use xlink:href="#f2_2h" transform="matrix(12,0,0,12,390.2,530.4)" />
<use xlink:href="#f2_1z" transform="matrix(12,0,0,12,399.3,530.4)" />
<use xlink:href="#f2_24" transform="matrix(12,0,0,12,407.4,530.4)" />
<use xlink:href="#f2_1x" transform="matrix(12,0,0,12,420.9,530.4)" />
<use xlink:href="#f2_2f" transform="matrix(12,0,0,12,429.3,530.4)" />
<use xlink:href="#f2_2f" transform="matrix(12,0,0,12,441.1,530.4)" />
<use xlink:href="#f2_2c" transform="matrix(12,0,0,12,448,530.4)" />
<use xlink:href="#f2_21" transform="matrix(12,0,0,12,457.2,530.4)" />
<use xlink:href="#f2_2e" transform="matrix(12,0,0,12,465.3,530.4)" />
<use xlink:href="#f2_29" transform="matrix(12,0,0,12,471.8,530.4)" />
<use xlink:href="#f2_2b" transform="matrix(12,0,0,12,490.2,530.4)" />
<use xlink:href="#f2_2e" transform="matrix(12,0,0,12,499.7,530.4)" />
<use xlink:href="#f2_21" transform="matrix(12,0,0,12,510.6,530.4)" />
<use xlink:href="#f2_23" transform="matrix(12,0,0,12,518.7,530.4)" />
<use xlink:href="#f2_23" transform="matrix(12,0,0,12,527.9,530.4)" />
<use xlink:href="#f2_1x" transform="matrix(12,0,0,12,542.1,530.4)" />
<use xlink:href="#f2_2e" transform="matrix(12,0,0,12,550.2,530.4)" />
<use xlink:href="#f2_21" transform="matrix(12,0,0,12,556.4,530.4)" />
<use xlink:href="#f2_22" transform="matrix(12,0,0,12,569.2,530.4)" />
<use xlink:href="#f2_2b" transform="matrix(12,0,0,12,574.7,530.4)" />
<use xlink:href="#f2_2e" transform="matrix(12,0,0,12,584.2,530.4)" />
<use xlink:href="#f2_29" transform="matrix(12,0,0,12,590.4,530.4)" />
<use xlink:href="#f2_21" transform="matrix(12,0,0,12,604,530.4)" />
<use xlink:href="#f2_20" transform="matrix(12,0,0,12,612.1,530.4)" />
<use xlink:href="#f2_1y" transform="matrix(12,0,0,12,626.4,530.4)" />
<use xlink:href="#f2_2l" transform="matrix(12,0,0,12,635.5,530.4)" />
<use xlink:href="#f2_29" transform="matrix(12,0,0,12,649.3,530.4)" />
<use xlink:href="#f2_21" transform="matrix(12,0,0,12,663.2,530.4)" />
<use xlink:href="#f2_25" transform="matrix(12,0,0,12,671.6,530.4)" />
<use xlink:href="#f2_2b" transform="matrix(12,0,0,12,676,530.4)" />
<use xlink:href="#f2_2f" transform="matrix(12,0,0,12,685.9,530.4)" />
<use xlink:href="#f2_25" transform="matrix(12,0,0,12,693.2,530.4)" />
<use xlink:href="#f2_2f" transform="matrix(12,0,0,12,698,530.4)" />
<use xlink:href="#f2_i" transform="matrix(12,0,0,12,704.9,530.4)" />
<use xlink:href="#f0_1d" transform="matrix(12,0,0,12,55,574.4)" />
<use xlink:href="#f0_21" transform="matrix(12,0,0,12,72.6,574.4)" />
<use xlink:href="#f0_25" transform="matrix(12,0,0,12,80.7,574.4)" />
<use xlink:href="#f0_2b" transform="matrix(12,0,0,12,85.8,574.4)" />
<use xlink:href="#f0_2f" transform="matrix(12,0,0,12,94.9,574.4)" />
<use xlink:href="#f0_25" transform="matrix(12,0,0,12,102,574.4)" />
<use xlink:href="#f0_2f" transform="matrix(12,0,0,12,107,574.4)" />
<use xlink:href="#f0_19" transform="matrix(12,0,0,12,118.8,574.4)" />
</g>
</g>
<path fill-rule="evenodd" d="M55,578h70.8v-1.8H55V578Z" class="g0_171" />
<g clip-path="url(#c0_171)">
<g fill="#000000" >
<use xlink:href="#f2_19" transform="matrix(12,0,0,12,55,618)" />
<use xlink:href="#f2_2g" transform="matrix(12,0,0,12,61.3,618)" />
<use xlink:href="#f2_25" transform="matrix(12,0,0,12,71.1,618)" />
<use xlink:href="#f2_2f" transform="matrix(12,0,0,12,75.5,618)" />
<use xlink:href="#f2_20" transform="matrix(12,0,0,12,87.2,618)" />
<use xlink:href="#f2_25" transform="matrix(12,0,0,12,96.8,618)" />
<use xlink:href="#f2_2i" transform="matrix(12,0,0,12,101.5,618)" />
<use xlink:href="#f2_25" transform="matrix(12,0,0,12,111,618)" />
<use xlink:href="#f2_20" transform="matrix(12,0,0,12,115.8,618)" />
<use xlink:href="#f2_21" transform="matrix(12,0,0,12,125,618)" />
<use xlink:href="#f2_20" transform="matrix(12,0,0,12,133,618)" />
<use xlink:href="#f2_25" transform="matrix(12,0,0,12,147.3,618)" />
<use xlink:href="#f2_2a" transform="matrix(12,0,0,12,152.1,618)" />
<use xlink:href="#f2_2g" transform="matrix(12,0,0,12,160.9,618)" />
<use xlink:href="#f2_2b" transform="matrix(12,0,0,12,166.4,618)" />
<use xlink:href="#f2_22" transform="matrix(12,0,0,12,180.6,618)" />
<use xlink:href="#f2_2b" transform="matrix(12,0,0,12,186.1,618)" />
<use xlink:href="#f2_28" transform="matrix(12,0,0,12,195.7,618)" />
<use xlink:href="#f2_28" transform="matrix(12,0,0,12,200.4,618)" />
<use xlink:href="#f2_2b" transform="matrix(12,0,0,12,204.8,618)" />
<use xlink:href="#f2_2j" transform="matrix(12,0,0,12,214.3,618)" />
<use xlink:href="#f2_25" transform="matrix(12,0,0,12,227.9,618)" />
<use xlink:href="#f2_2a" transform="matrix(12,0,0,12,232.7,618)" />
<use xlink:href="#f2_23" transform="matrix(12,0,0,12,241.8,618)" />
<use xlink:href="#f2_2c" transform="matrix(12,0,0,12,255.7,618)" />
<use xlink:href="#f2_24" transform="matrix(12,0,0,12,264.9,618)" />
<use xlink:href="#f2_1x" transform="matrix(12,0,0,12,274.1,618)" />
<use xlink:href="#f2_2f" transform="matrix(12,0,0,12,282.1,618)" />
<use xlink:href="#f2_21" transform="matrix(12,0,0,12,289.1,618)" />
<use xlink:href="#f2_2f" transform="matrix(12,0,0,12,297.5,618)" />
<use xlink:href="#f2_h" transform="matrix(12,0,0,12,304.8,618)" />
<use xlink:href="#f0_1g" transform="matrix(12,0,0,12,55,662)" />
<use xlink:href="#f0_2e" transform="matrix(12,0,0,12,66.4,662)" />
<use xlink:href="#f0_2b" transform="matrix(12,0,0,12,74.1,662)" />
<use xlink:href="#f0_2c" transform="matrix(12,0,0,12,83.3,662)" />
<use xlink:href="#f0_24" transform="matrix(12,0,0,12,93.5,662)" />
<use xlink:href="#f0_1x" transform="matrix(12,0,0,12,103.7,662)" />
<use xlink:href="#f0_2f" transform="matrix(12,0,0,12,112.9,662)" />
<use xlink:href="#f0_21" transform="matrix(12,0,0,12,119.9,662)" />
<use xlink:href="#f0_19" transform="matrix(12,0,0,12,132.7,662)" />
</g>
</g>
<path fill-rule="evenodd" d="M55,665.7h85.1v-1.9H55v1.9Z" class="g0_171" />
<g clip-path="url(#c0_171)">
<g fill="#000000" >
<use xlink:href="#f2_19" transform="matrix(12,0,0,12,55,706)" />
<use xlink:href="#f2_2g" transform="matrix(12,0,0,12,61.3,706)" />
<use xlink:href="#f2_25" transform="matrix(12,0,0,12,71.9,706)" />
<use xlink:href="#f2_2f" transform="matrix(12,0,0,12,76.6,706)" />
<use xlink:href="#f2_2g" transform="matrix(12,0,0,12,89.1,706)" />
<use xlink:href="#f2_24" transform="matrix(12,0,0,12,94.6,706)" />
<use xlink:href="#f2_21" transform="matrix(12,0,0,12,103.4,706)" />
<use xlink:href="#f2_28" transform="matrix(12,0,0,12,117.3,706)" />
<use xlink:href="#f2_2b" transform="matrix(12,0,0,12,121.7,706)" />
<use xlink:href="#f2_2a" transform="matrix(12,0,0,12,131.2,706)" />
<use xlink:href="#f2_23" transform="matrix(12,0,0,12,140,706)" />
<use xlink:href="#f2_21" transform="matrix(12,0,0,12,149.5,706)" />
<use xlink:href="#f2_2f" transform="matrix(12,0,0,12,157.6,706)" />
<use xlink:href="#f2_2g" transform="matrix(12,0,0,12,164.5,706)" />
<use xlink:href="#f2_2c" transform="matrix(12,0,0,12,175.5,706)" />
<use xlink:href="#f2_24" transform="matrix(12,0,0,12,184.9,706)" />
<use xlink:href="#f2_1x" transform="matrix(12,0,0,12,193.7,706)" />
<use xlink:href="#f2_2f" transform="matrix(12,0,0,12,202.1,706)" />
<use xlink:href="#f2_21" transform="matrix(12,0,0,12,209.1,706)" />
<use xlink:href="#f2_2b" transform="matrix(12,0,0,12,222.6,706)" />
<use xlink:href="#f2_22" transform="matrix(12,0,0,12,232.1,706)" />
<use xlink:href="#f2_29" transform="matrix(12,0,0,12,243.5,706)" />
<use xlink:href="#f2_21" transform="matrix(12,0,0,12,257.4,706)" />
<use xlink:href="#f2_25" transform="matrix(12,0,0,12,265.8,706)" />
<use xlink:href="#f2_2b" transform="matrix(12,0,0,12,270.2,706)" />
<use xlink:href="#f2_2f" transform="matrix(12,0,0,12,280.1,706)" />
<use xlink:href="#f2_25" transform="matrix(12,0,0,12,287.4,706)" />
<use xlink:href="#f2_2f" transform="matrix(12,0,0,12,292.2,706)" />
<use xlink:href="#f2_19" transform="matrix(12,0,0,12,304.6,706)" />
<use xlink:href="#f2_i" transform="matrix(12,0,0,12,310.8,706)" />
<use xlink:href="#f2_14" transform="matrix(12,0,0,12,321.1,706)" />
<use xlink:href="#f2_2h" transform="matrix(12,0,0,12,334.3,706)" />
<use xlink:href="#f2_2e" transform="matrix(12,0,0,12,343.5,706)" />
<use xlink:href="#f2_25" transform="matrix(12,0,0,12,349.7,706)" />
<use xlink:href="#f2_2a" transform="matrix(12,0,0,12,354.4,706)" />
<use xlink:href="#f2_23" transform="matrix(12,0,0,12,363.2,706)" />
<use xlink:href="#f2_2g" transform="matrix(12,0,0,12,377.9,706)" />
<use xlink:href="#f2_24" transform="matrix(12,0,0,12,383.4,706)" />
<use xlink:href="#f2_25" transform="matrix(12,0,0,12,392.5,706)" />
<use xlink:href="#f2_2f" transform="matrix(12,0,0,12,397.3,706)" />
<use xlink:href="#f2_2c" transform="matrix(12,0,0,12,409.7,706)" />
<use xlink:href="#f2_24" transform="matrix(12,0,0,12,419.2,706)" />
<use xlink:href="#f2_1x" transform="matrix(12,0,0,12,428.4,706)" />
<use xlink:href="#f2_2f" transform="matrix(12,0,0,12,436.5,706)" />
<use xlink:href="#f2_21" transform="matrix(12,0,0,12,443.4,706)" />
<use xlink:href="#f2_g" transform="matrix(12,0,0,12,451.5,706)" />
<use xlink:href="#f2_24" transform="matrix(12,0,0,12,461.7,706)" />
<use xlink:href="#f2_2b" transform="matrix(12,0,0,12,470.5,706)" />
<use xlink:href="#f2_29" transform="matrix(12,0,0,12,480.4,706)" />
<use xlink:href="#f2_2b" transform="matrix(12,0,0,12,494,706)" />
<use xlink:href="#f2_28" transform="matrix(12,0,0,12,503.9,706)" />
<use xlink:href="#f2_2b" transform="matrix(12,0,0,12,508.3,706)" />
<use xlink:href="#f2_23" transform="matrix(12,0,0,12,517.8,706)" />
<use xlink:href="#f2_2b" transform="matrix(12,0,0,12,527,706)" />
<use xlink:href="#f2_2h" transform="matrix(12,0,0,12,536.5,706)" />
<use xlink:href="#f2_2f" transform="matrix(12,0,0,12,545.6,706)" />
<use xlink:href="#f2_1z" transform="matrix(12,0,0,12,558.1,706)" />
<use xlink:href="#f2_24" transform="matrix(12,0,0,12,566.2,706)" />
<use xlink:href="#f2_2e" transform="matrix(12,0,0,12,575,706)" />
<use xlink:href="#f2_2b" transform="matrix(12,0,0,12,581.2,706)" />
<use xlink:href="#f2_29" transform="matrix(12,0,0,12,590.7,706)" />
<use xlink:href="#f2_2b" transform="matrix(12,0,0,12,604.3,706)" />
<use xlink:href="#f2_2f" transform="matrix(12,0,0,12,613.8,706)" />
<use xlink:href="#f2_2b" transform="matrix(12,0,0,12,620.7,706)" />
<use xlink:href="#f2_29" transform="matrix(12,0,0,12,630.2,706)" />
<use xlink:href="#f2_21" transform="matrix(12,0,0,12,644.2,706)" />
<use xlink:href="#f2_2f" transform="matrix(12,0,0,12,652.2,706)" />
<use xlink:href="#f2_2c" transform="matrix(12,0,0,12,664.7,706)" />
<use xlink:href="#f2_1x" transform="matrix(12,0,0,12,673.9,706)" />
<use xlink:href="#f2_25" transform="matrix(12,0,0,12,682.3,706)" />
<use xlink:href="#f2_2e" transform="matrix(12,0,0,12,687,706)" />
<use xlink:href="#f2_2f" transform="matrix(12,0,0,12,693.3,706)" />
<use xlink:href="#f2_1x" transform="matrix(12,0,0,12,705.7,706)" />
<use xlink:href="#f2_2a" transform="matrix(12,0,0,12,714.1,706)" />
<use xlink:href="#f2_20" transform="matrix(12,0,0,12,722.9,706)" />
<use xlink:href="#f2_14" transform="matrix(12,0,0,12,737.6,706)" />
<use xlink:href="#f2_1e" transform="matrix(12,0,0,12,750.8,706)" />
<use xlink:href="#f2_11" transform="matrix(12,0,0,12,764.3,706)" />
<use xlink:href="#f2_2f" transform="matrix(12,0,0,12,783,706)" />
<use xlink:href="#f2_21" transform="matrix(12,0,0,12,790,706)" />
<use xlink:href="#f2_23" transform="matrix(12,0,0,12,798.4,706)" />
<use xlink:href="#f2_29" transform="matrix(12,0,0,12,807.9,706)" />
<use xlink:href="#f2_21" transform="matrix(12,0,0,12,821.5,706)" />
<use xlink:href="#f2_2a" transform="matrix(12,0,0,12,829.9,706)" />
<use xlink:href="#f2_2g" transform="matrix(12,0,0,12,838.7,706)" />
<use xlink:href="#f2_2f" transform="matrix(12,0,0,12,844.2,706)" />
<use xlink:href="#f2_1x" transform="matrix(12,0,0,12,856.6,706)" />
<use xlink:href="#f2_2e" transform="matrix(12,0,0,12,864.7,706)" />
<use xlink:href="#f2_21" transform="matrix(12,0,0,12,870.9,706)" />
<use xlink:href="#f2_21" transform="matrix(12,0,0,12,55,737.6)" />
<use xlink:href="#f2_2k" transform="matrix(12,0,0,12,63.1,737.6)" />
<use xlink:href="#f2_1z" transform="matrix(12,0,0,12,71.9,737.6)" />
<use xlink:href="#f2_24" transform="matrix(12,0,0,12,80.3,737.6)" />
<use xlink:href="#f2_1x" transform="matrix(12,0,0,12,89.5,737.6)" />
<use xlink:href="#f2_2a" transform="matrix(12,0,0,12,97.9,737.6)" />
<use xlink:href="#f2_23" transform="matrix(12,0,0,12,106.7,737.6)" />
<use xlink:href="#f2_21" transform="matrix(12,0,0,12,115.9,737.6)" />
<use xlink:href="#f2_20" transform="matrix(12,0,0,12,123.9,737.6)" />
<use xlink:href="#f2_c" transform="matrix(12,0,0,12,137.8,737.6)" />
<use xlink:href="#f2_27" transform="matrix(12,0,0,12,144.1,737.6)" />
<use xlink:href="#f2_2a" transform="matrix(12,0,0,12,153.2,737.6)" />
<use xlink:href="#f2_2b" transform="matrix(12,0,0,12,162,737.6)" />
<use xlink:href="#f2_2j" transform="matrix(12,0,0,12,171.5,737.6)" />
<use xlink:href="#f2_2a" transform="matrix(12,0,0,12,184.8,737.6)" />
<use xlink:href="#f2_1x" transform="matrix(12,0,0,12,198.3,737.6)" />
<use xlink:href="#f2_2f" transform="matrix(12,0,0,12,206.4,737.6)" />
<use xlink:href="#f2_2e" transform="matrix(12,0,0,12,218.1,737.6)" />
<use xlink:href="#f2_21" transform="matrix(12,0,0,12,224.3,737.6)" />
<use xlink:href="#f2_1z" transform="matrix(12,0,0,12,232.4,737.6)" />
<use xlink:href="#f2_2b" transform="matrix(12,0,0,12,240.4,737.6)" />
<use xlink:href="#f2_29" transform="matrix(12,0,0,12,250.3,737.6)" />
<use xlink:href="#f2_1y" transform="matrix(12,0,0,12,264.2,737.6)" />
<use xlink:href="#f2_25" transform="matrix(12,0,0,12,273.4,737.6)" />
<use xlink:href="#f2_2a" transform="matrix(12,0,0,12,278.2,737.6)" />
<use xlink:href="#f2_1x" transform="matrix(12,0,0,12,287.3,737.6)" />
<use xlink:href="#f2_2g" transform="matrix(12,0,0,12,295.4,737.6)" />
<use xlink:href="#f2_25" transform="matrix(12,0,0,12,300.9,737.6)" />
<use xlink:href="#f2_2b" transform="matrix(12,0,0,12,305.3,737.6)" />
<use xlink:href="#f2_2a" transform="matrix(12,0,0,12,314.8,737.6)" />
<use xlink:href="#f2_d" transform="matrix(12,0,0,12,323.6,737.6)" />
<use xlink:href="#f2_i" transform="matrix(12,0,0,12,329.8,737.6)" />
<use xlink:href="#f2_19" transform="matrix(12,0,0,12,344.1,737.6)" />
<use xlink:href="#f2_2g" transform="matrix(12,0,0,12,349.9,737.6)" />
<use xlink:href="#f2_25" transform="matrix(12,0,0,12,360.2,737.6)" />
<use xlink:href="#f2_2f" transform="matrix(12,0,0,12,364.6,737.6)" />
<use xlink:href="#f2_22" transform="matrix(12,0,0,12,376.6,737.6)" />
<use xlink:href="#f2_2h" transform="matrix(12,0,0,12,382.1,737.6)" />
<use xlink:href="#f2_2e" transform="matrix(12,0,0,12,391.3,737.6)" />
<use xlink:href="#f2_2g" transform="matrix(12,0,0,12,397.5,737.6)" />
<use xlink:href="#f2_24" transform="matrix(12,0,0,12,403,737.6)" />
<use xlink:href="#f2_21" transform="matrix(12,0,0,12,411.8,737.6)" />
<use xlink:href="#f2_2e" transform="matrix(12,0,0,12,419.9,737.6)" />
<use xlink:href="#f2_20" transform="matrix(12,0,0,12,430.8,737.6)" />
<use xlink:href="#f2_25" transform="matrix(12,0,0,12,440,737.6)" />
<use xlink:href="#f2_2i" transform="matrix(12,0,0,12,444.8,737.6)" />
<use xlink:href="#f2_25" transform="matrix(12,0,0,12,453.9,737.6)" />
<use xlink:href="#f2_20" transform="matrix(12,0,0,12,458.7,737.6)" />
<use xlink:href="#f2_21" transform="matrix(12,0,0,12,467.9,737.6)" />
<use xlink:href="#f2_20" transform="matrix(12,0,0,12,475.9,737.6)" />
<use xlink:href="#f2_25" transform="matrix(12,0,0,12,490.2,737.6)" />
<use xlink:href="#f2_2a" transform="matrix(12,0,0,12,495,737.6)" />
<use xlink:href="#f2_2g" transform="matrix(12,0,0,12,503.8,737.6)" />
<use xlink:href="#f2_2b" transform="matrix(12,0,0,12,509.3,737.6)" />
<use xlink:href="#f2_22" transform="matrix(12,0,0,12,523.5,737.6)" />
<use xlink:href="#f2_2b" transform="matrix(12,0,0,12,529,737.6)" />
<use xlink:href="#f2_28" transform="matrix(12,0,0,12,538.9,737.6)" />
<use xlink:href="#f2_28" transform="matrix(12,0,0,12,543.7,737.6)" />
<use xlink:href="#f2_2b" transform="matrix(12,0,0,12,548.1,737.6)" />
<use xlink:href="#f2_2j" transform="matrix(12,0,0,12,557.6,737.6)" />
<use xlink:href="#f2_25" transform="matrix(12,0,0,12,571.1,737.6)" />
<use xlink:href="#f2_2a" transform="matrix(12,0,0,12,575.9,737.6)" />
<use xlink:href="#f2_23" transform="matrix(12,0,0,12,585.1,737.6)" />
<use xlink:href="#f2_h" transform="matrix(12,0,0,12,594.9,737.6)" />
<use xlink:href="#f0_1c" transform="matrix(12,0,0,12,55,781.2)" />
<use xlink:href="#f0_21" transform="matrix(12,0,0,12,67.1,781.2)" />
<use xlink:href="#f0_2c" transform="matrix(12,0,0,12,75.2,781.2)" />
<use xlink:href="#f0_2g" transform="matrix(12,0,0,12,85.5,781.2)" />
<use xlink:href="#f0_2b" transform="matrix(12,0,0,12,91.7,781.2)" />
<use xlink:href="#f0_2g" transform="matrix(12,0,0,12,100.8,781.2)" />
<use xlink:href="#f0_21" transform="matrix(12,0,0,12,107,781.2)" />
<use xlink:href="#f0_2a" transform="matrix(12,0,0,12,115.1,781.2)" />
<use xlink:href="#f0_21" transform="matrix(12,0,0,12,125.4,781.2)" />
</g>
</g>
<path fill-rule="evenodd" d="M55,784.9h78.5V783H55v1.9Z" class="g0_171" />
<g clip-path="url(#c0_171)">
<g fill="#000000" >
<use xlink:href="#f1_3d" transform="matrix(12,0,0,12,82.5,826.3)" />
<use xlink:href="#f2_19" transform="matrix(12,0,0,12,110,826.3)" />
<use xlink:href="#f2_2g" transform="matrix(12,0,0,12,116.3,826.3)" />
<use xlink:href="#f2_25" transform="matrix(12,0,0,12,126.1,826.3)" />
<use xlink:href="#f2_2f" transform="matrix(12,0,0,12,130.5,826.3)" />
<use xlink:href="#f2_2g" transform="matrix(12,0,0,12,142.2,826.3)" />
<use xlink:href="#f2_24" transform="matrix(12,0,0,12,147.7,826.3)" />
<use xlink:href="#f2_21" transform="matrix(12,0,0,12,156.5,826.3)" />
<use xlink:href="#f2_22" transform="matrix(12,0,0,12,169.7,826.3)" />
<use xlink:href="#f2_25" transform="matrix(12,0,0,12,175.6,826.3)" />
<use xlink:href="#f2_2e" transform="matrix(12,0,0,12,180.3,826.3)" />
<use xlink:href="#f2_2f" transform="matrix(12,0,0,12,186.6,826.3)" />
<use xlink:href="#f2_2g" transform="matrix(12,0,0,12,193.5,826.3)" />
<use xlink:href="#f2_2f" transform="matrix(12,0,0,12,203.8,826.3)" />
<use xlink:href="#f2_2g" transform="matrix(12,0,0,12,210.7,826.3)" />
<use xlink:href="#f2_1x" transform="matrix(12,0,0,12,216.2,826.3)" />
<use xlink:href="#f2_23" transform="matrix(12,0,0,12,224.3,826.3)" />
<use xlink:href="#f2_21" transform="matrix(12,0,0,12,233.4,826.3)" />
<use xlink:href="#f2_2b" transform="matrix(12,0,0,12,245.9,826.3)" />
<use xlink:href="#f2_22" transform="matrix(12,0,0,12,255.4,826.3)" />
<use xlink:href="#f2_29" transform="matrix(12,0,0,12,266,826.3)" />
<use xlink:href="#f2_21" transform="matrix(12,0,0,12,279.6,826.3)" />
<use xlink:href="#f2_25" transform="matrix(12,0,0,12,288,826.3)" />
<use xlink:href="#f2_2b" transform="matrix(12,0,0,12,292.4,826.3)" />
<use xlink:href="#f2_2f" transform="matrix(12,0,0,12,301.9,826.3)" />
<use xlink:href="#f2_25" transform="matrix(12,0,0,12,309.2,826.3)" />
<use xlink:href="#f2_2f" transform="matrix(12,0,0,12,314,826.3)" />
<use xlink:href="#f2_i" transform="matrix(12,0,0,12,321,826.3)" />
<use xlink:href="#f1_3d" transform="matrix(12,0,0,12,82.5,859.4)" />
<use xlink:href="#f2_15" transform="matrix(12,0,0,12,110,859.4)" />
<use xlink:href="#f2_1x" transform="matrix(12,0,0,12,121.4,859.4)" />
<use xlink:href="#f2_1z" transform="matrix(12,0,0,12,129.5,859.4)" />
<use xlink:href="#f2_24" transform="matrix(12,0,0,12,137.5,859.4)" />
<use xlink:href="#f2_25" transform="matrix(12,0,0,12,151.4,859.4)" />
<use xlink:href="#f2_2a" transform="matrix(12,0,0,12,156.2,859.4)" />
<use xlink:href="#f2_20" transform="matrix(12,0,0,12,165,859.4)" />
<use xlink:href="#f2_25" transform="matrix(12,0,0,12,174.5,859.4)" />
<use xlink:href="#f2_2i" transform="matrix(12,0,0,12,179.3,859.4)" />
<use xlink:href="#f2_25" transform="matrix(12,0,0,12,188.8,859.4)" />
<use xlink:href="#f2_20" transform="matrix(12,0,0,12,193.6,859.4)" />
<use xlink:href="#f2_2h" transform="matrix(12,0,0,12,202.7,859.4)" />
<use xlink:href="#f2_1x" transform="matrix(12,0,0,12,211.9,859.4)" />
<use xlink:href="#f2_28" transform="matrix(12,0,0,12,220.3,859.4)" />
<use xlink:href="#f2_1z" transform="matrix(12,0,0,12,229.8,859.4)" />
<use xlink:href="#f2_24" transform="matrix(12,0,0,12,238.2,859.4)" />
<use xlink:href="#f2_2e" transform="matrix(12,0,0,12,247,859.4)" />
<use xlink:href="#f2_2b" transform="matrix(12,0,0,12,253.3,859.4)" />
<use xlink:href="#f2_29" transform="matrix(12,0,0,12,262.8,859.4)" />
<use xlink:href="#f2_2b" transform="matrix(12,0,0,12,276.3,859.4)" />
<use xlink:href="#f2_2f" transform="matrix(12,0,0,12,285.9,859.4)" />
<use xlink:href="#f2_2b" transform="matrix(12,0,0,12,292.8,859.4)" />
<use xlink:href="#f2_29" transform="matrix(12,0,0,12,302.7,859.4)" />
<use xlink:href="#f2_21" transform="matrix(12,0,0,12,316.3,859.4)" />
<use xlink:href="#f2_21" transform="matrix(12,0,0,12,329.1,859.4)" />
<use xlink:href="#f2_2k" transform="matrix(12,0,0,12,337.5,859.4)" />
<use xlink:href="#f2_25" transform="matrix(12,0,0,12,346.7,859.4)" />
<use xlink:href="#f2_2f" transform="matrix(12,0,0,12,351.4,859.4)" />
<use xlink:href="#f2_2g" transform="matrix(12,0,0,12,358.4,859.4)" />
<use xlink:href="#f2_2f" transform="matrix(12,0,0,12,363.9,859.4)" />
<use xlink:href="#f2_2j" transform="matrix(12,0,0,12,375.6,859.4)" />
<use xlink:href="#f2_25" transform="matrix(12,0,0,12,389.1,859.4)" />
<use xlink:href="#f2_2g" transform="matrix(12,0,0,12,393.5,859.4)" />
<use xlink:href="#f2_24" transform="matrix(12,0,0,12,399,859.4)" />
<use xlink:href="#f2_2g" transform="matrix(12,0,0,12,412.6,859.4)" />
<use xlink:href="#f2_2j" transform="matrix(12,0,0,12,418.1,859.4)" />
<use xlink:href="#f2_2b" transform="matrix(12,0,0,12,430.9,859.4)" />
<use xlink:href="#f2_2f" transform="matrix(12,0,0,12,445.2,859.4)" />
<use xlink:href="#f2_25" transform="matrix(12,0,0,12,452.1,859.4)" />
<use xlink:href="#f2_2f" transform="matrix(12,0,0,12,456.5,859.4)" />
<use xlink:href="#f2_2g" transform="matrix(12,0,0,12,463.5,859.4)" />
<use xlink:href="#f2_21" transform="matrix(12,0,0,12,469,859.4)" />
<use xlink:href="#f2_2e" transform="matrix(12,0,0,12,477,859.4)" />
<use xlink:href="#f2_1z" transform="matrix(12,0,0,12,488,859.4)" />
<use xlink:href="#f2_24" transform="matrix(12,0,0,12,496.1,859.4)" />
<use xlink:href="#f2_2e" transform="matrix(12,0,0,12,504.9,859.4)" />
<use xlink:href="#f2_2b" transform="matrix(12,0,0,12,511.1,859.4)" />
<use xlink:href="#f2_29" transform="matrix(12,0,0,12,520.6,859.4)" />
<use xlink:href="#f2_1x" transform="matrix(12,0,0,12,534.2,859.4)" />
<use xlink:href="#f2_2g" transform="matrix(12,0,0,12,542.2,859.4)" />
<use xlink:href="#f2_25" transform="matrix(12,0,0,12,548.1,859.4)" />
<use xlink:href="#f2_20" transform="matrix(12,0,0,12,552.5,859.4)" />
<use xlink:href="#f2_2f" transform="matrix(12,0,0,12,562,859.4)" />
<use xlink:href="#f2_i" transform="matrix(12,0,0,12,569,859.4)" />
<use xlink:href="#f1_3d" transform="matrix(12,0,0,12,82.5,892.4)" />
<use xlink:href="#f2_15" transform="matrix(12,0,0,12,110,892.4)" />
<use xlink:href="#f2_28" transform="matrix(12,0,0,12,121.4,892.4)" />
<use xlink:href="#f2_21" transform="matrix(12,0,0,12,126.2,892.4)" />
<use xlink:href="#f2_29" transform="matrix(12,0,0,12,134.6,892.4)" />
<use xlink:href="#f2_21" transform="matrix(12,0,0,12,148.5,892.4)" />
<use xlink:href="#f2_2a" transform="matrix(12,0,0,12,156.9,892.4)" />
<use xlink:href="#f2_2g" transform="matrix(12,0,0,12,165.7,892.4)" />
<use xlink:href="#f2_2f" transform="matrix(12,0,0,12,171.2,892.4)" />
<use xlink:href="#f2_2b" transform="matrix(12,0,0,12,182.9,892.4)" />
<use xlink:href="#f2_22" transform="matrix(12,0,0,12,192.4,892.4)" />
<use xlink:href="#f2_2f" transform="matrix(12,0,0,12,202.7,892.4)" />
<use xlink:href="#f2_2l" transform="matrix(12,0,0,12,210,892.4)" />
<use xlink:href="#f2_2a" transform="matrix(12,0,0,12,218.8,892.4)" />
<use xlink:href="#f2_1x" transform="matrix(12,0,0,12,227.6,892.4)" />
<use xlink:href="#f2_2c" transform="matrix(12,0,0,12,235.7,892.4)" />
<use xlink:href="#f2_2g" transform="matrix(12,0,0,12,244.8,892.4)" />
<use xlink:href="#f2_2b" transform="matrix(12,0,0,12,250.3,892.4)" />
<use xlink:href="#f2_2a" transform="matrix(12,0,0,12,259.8,892.4)" />
<use xlink:href="#f2_21" transform="matrix(12,0,0,12,268.6,892.4)" />
<use xlink:href="#f2_29" transform="matrix(12,0,0,12,277,892.4)" />
<use xlink:href="#f2_1x" transform="matrix(12,0,0,12,290.6,892.4)" />
<use xlink:href="#f2_28" transform="matrix(12,0,0,12,299,892.4)" />
<use xlink:href="#f2_1z" transform="matrix(12,0,0,12,308.5,892.4)" />
<use xlink:href="#f2_2b" transform="matrix(12,0,0,12,316.6,892.4)" />
<use xlink:href="#f2_29" transform="matrix(12,0,0,12,326.5,892.4)" />
<use xlink:href="#f2_2c" transform="matrix(12,0,0,12,340,892.4)" />
<use xlink:href="#f2_28" transform="matrix(12,0,0,12,349.6,892.4)" />
<use xlink:href="#f2_21" transform="matrix(12,0,0,12,354.3,892.4)" />
<use xlink:href="#f2_2k" transform="matrix(12,0,0,12,362.7,892.4)" />
<use xlink:href="#f2_1x" transform="matrix(12,0,0,12,376.3,892.4)" />
<use xlink:href="#f2_2f" transform="matrix(12,0,0,12,384.4,892.4)" />
<use xlink:href="#f2_2f" transform="matrix(12,0,0,12,391.7,892.4)" />
<use xlink:href="#f2_21" transform="matrix(12,0,0,12,398.6,892.4)" />
<use xlink:href="#f2_29" transform="matrix(12,0,0,12,407.1,892.4)" />
<use xlink:href="#f2_1y" transform="matrix(12,0,0,12,421,892.4)" />
<use xlink:href="#f2_28" transform="matrix(12,0,0,12,430.5,892.4)" />
<use xlink:href="#f2_21" transform="matrix(12,0,0,12,435.3,892.4)" />
<use xlink:href="#f2_i" transform="matrix(12,0,0,12,443.3,892.4)" />
<use xlink:href="#f1_3d" transform="matrix(12,0,0,12,82.5,925)" />
<use xlink:href="#f2_13" transform="matrix(12,0,0,12,110,925)" />
<use xlink:href="#f2_2b" transform="matrix(12,0,0,12,122.1,925)" />
<use xlink:href="#f2_2a" transform="matrix(12,0,0,12,131.7,925)" />
<use xlink:href="#f2_20" transform="matrix(12,0,0,12,140.5,925)" />
<use xlink:href="#f2_21" transform="matrix(12,0,0,12,149.6,925)" />
<use xlink:href="#f2_2a" transform="matrix(12,0,0,12,158,925)" />
<use xlink:href="#f2_2f" transform="matrix(12,0,0,12,166.8,925)" />
<use xlink:href="#f2_1x" transform="matrix(12,0,0,12,173.8,925)" />
<use xlink:href="#f2_2g" transform="matrix(12,0,0,12,181.9,925)" />
<use xlink:href="#f2_25" transform="matrix(12,0,0,12,187.7,925)" />
<use xlink:href="#f2_2b" transform="matrix(12,0,0,12,192.1,925)" />
<use xlink:href="#f2_2a" transform="matrix(12,0,0,12,201.6,925)" />
<use xlink:href="#f2_1x" transform="matrix(12,0,0,12,215.2,925)" />
<use xlink:href="#f2_2a" transform="matrix(12,0,0,12,223.6,925)" />
<use xlink:href="#f2_20" transform="matrix(12,0,0,12,232.4,925)" />
<use xlink:href="#f2_1z" transform="matrix(12,0,0,12,246.3,925)" />
<use xlink:href="#f2_2b" transform="matrix(12,0,0,12,254.4,925)" />
<use xlink:href="#f2_25" transform="matrix(12,0,0,12,263.9,925)" />
<use xlink:href="#f2_28" transform="matrix(12,0,0,12,268.7,925)" />
<use xlink:href="#f2_25" transform="matrix(12,0,0,12,273.8,925)" />
<use xlink:href="#f2_2a" transform="matrix(12,0,0,12,278.6,925)" />
<use xlink:href="#f2_23" transform="matrix(12,0,0,12,287.7,925)" />
<use xlink:href="#f2_2b" transform="matrix(12,0,0,12,301.6,925)" />
<use xlink:href="#f2_22" transform="matrix(12,0,0,12,311.2,925)" />
<use xlink:href="#f2_1z" transform="matrix(12,0,0,12,321.4,925)" />
<use xlink:href="#f2_24" transform="matrix(12,0,0,12,329.8,925)" />
<use xlink:href="#f2_2e" transform="matrix(12,0,0,12,338.6,925)" />
<use xlink:href="#f2_2b" transform="matrix(12,0,0,12,344.8,925)" />
<use xlink:href="#f2_29" transform="matrix(12,0,0,12,354.3,925)" />
<use xlink:href="#f2_2b" transform="matrix(12,0,0,12,367.9,925)" />
<use xlink:href="#f2_2f" transform="matrix(12,0,0,12,377.4,925)" />
<use xlink:href="#f2_2b" transform="matrix(12,0,0,12,384.4,925)" />
<use xlink:href="#f2_29" transform="matrix(12,0,0,12,394.3,925)" />
<use xlink:href="#f2_21" transform="matrix(12,0,0,12,407.8,925)" />
<use xlink:href="#f2_2f" transform="matrix(12,0,0,12,415.9,925)" />
<use xlink:href="#f2_2b" transform="matrix(12,0,0,12,427.6,925)" />
<use xlink:href="#f2_1z" transform="matrix(12,0,0,12,437.1,925)" />
<use xlink:href="#f2_1z" transform="matrix(12,0,0,12,445.2,925)" />
<use xlink:href="#f2_2h" transform="matrix(12,0,0,12,453.3,925)" />
<use xlink:href="#f2_2e" transform="matrix(12,0,0,12,462.4,925)" />
<use xlink:href="#f2_i" transform="matrix(12,0,0,12,468.7,925)" />
<use xlink:href="#f0_1q" transform="matrix(12,0,0,12,55,969.4)" />
<use xlink:href="#f0_2l" transform="matrix(12,0,0,12,66.8,969.4)" />
<use xlink:href="#f0_23" transform="matrix(12,0,0,12,75.9,969.4)" />
<use xlink:href="#f0_2b" transform="matrix(12,0,0,12,85.1,969.4)" />
<use xlink:href="#f0_2g" transform="matrix(12,0,0,12,94.3,969.4)" />
<use xlink:href="#f0_21" transform="matrix(12,0,0,12,100.5,969.4)" />
<use xlink:href="#f0_2a" transform="matrix(12,0,0,12,108.6,969.4)" />
<use xlink:href="#f0_21" transform="matrix(12,0,0,12,118.8,969.4)" />
</g>
</g>
<path fill-rule="evenodd" d="M55,973.1h72.3v-1.9H55v1.9Z" class="g0_171" />
<g clip-path="url(#c0_171)">
<g fill="#000000" >
<use xlink:href="#f1_3d" transform="matrix(12,0,0,12,82.5,1014.1)" />
<use xlink:href="#f2_13" transform="matrix(12,0,0,12,110,1014.1)" />
<use xlink:href="#f2_24" transform="matrix(12,0,0,12,122.1,1014.1)" />
<use xlink:href="#f2_2e" transform="matrix(12,0,0,12,130.9,1014.1)" />
<use xlink:href="#f2_2b" transform="matrix(12,0,0,12,137.2,1014.1)" />
<use xlink:href="#f2_29" transform="matrix(12,0,0,12,147,1014.1)" />
<use xlink:href="#f2_2b" transform="matrix(12,0,0,12,160.6,1014.1)" />
<use xlink:href="#f2_2f" transform="matrix(12,0,0,12,170.1,1014.1)" />
<use xlink:href="#f2_2b" transform="matrix(12,0,0,12,177.1,1014.1)" />
<use xlink:href="#f2_29" transform="matrix(12,0,0,12,186.6,1014.1)" />
<use xlink:href="#f2_21" transform="matrix(12,0,0,12,200.2,1014.1)" />
<use xlink:href="#f2_2f" transform="matrix(12,0,0,12,208.6,1014.1)" />
<use xlink:href="#f2_1x" transform="matrix(12,0,0,12,220.3,1014.1)" />
<use xlink:href="#f2_28" transform="matrix(12,0,0,12,228.7,1014.1)" />
<use xlink:href="#f2_25" transform="matrix(12,0,0,12,233.5,1014.1)" />
<use xlink:href="#f2_23" transform="matrix(12,0,0,12,238.2,1014.1)" />
<use xlink:href="#f2_2a" transform="matrix(12,0,0,12,247.8,1014.1)" />
<use xlink:href="#f2_1x" transform="matrix(12,0,0,12,261.3,1014.1)" />
<use xlink:href="#f2_2f" transform="matrix(12,0,0,12,269.4,1014.1)" />
<use xlink:href="#f2_24" transform="matrix(12,0,0,12,281.5,1014.1)" />
<use xlink:href="#f2_2b" transform="matrix(12,0,0,12,290.3,1014.1)" />
<use xlink:href="#f2_29" transform="matrix(12,0,0,12,300.1,1014.1)" />
<use xlink:href="#f2_2b" transform="matrix(12,0,0,12,313.7,1014.1)" />
<use xlink:href="#f2_28" transform="matrix(12,0,0,12,323.6,1014.1)" />
<use xlink:href="#f2_2b" transform="matrix(12,0,0,12,328,1014.1)" />
<use xlink:href="#f2_23" transform="matrix(12,0,0,12,337.5,1014.1)" />
<use xlink:href="#f2_2b" transform="matrix(12,0,0,12,346.7,1014.1)" />
<use xlink:href="#f2_2h" transform="matrix(12,0,0,12,356.2,1014.1)" />
<use xlink:href="#f2_2f" transform="matrix(12,0,0,12,365.3,1014.1)" />
<use xlink:href="#f2_2c" transform="matrix(12,0,0,12,377.1,1014.1)" />
<use xlink:href="#f2_1x" transform="matrix(12,0,0,12,386.2,1014.1)" />
<use xlink:href="#f2_25" transform="matrix(12,0,0,12,394.3,1014.1)" />
<use xlink:href="#f2_2e" transform="matrix(12,0,0,12,398.7,1014.1)" />
<use xlink:href="#f2_2b" transform="matrix(12,0,0,12,409.7,1014.1)" />
<use xlink:href="#f2_22" transform="matrix(12,0,0,12,419.2,1014.1)" />
<use xlink:href="#f2_1z" transform="matrix(12,0,0,12,429.4,1014.1)" />
<use xlink:href="#f2_24" transform="matrix(12,0,0,12,437.5,1014.1)" />
<use xlink:href="#f2_2e" transform="matrix(12,0,0,12,446.3,1014.1)" />
<use xlink:href="#f2_2b" transform="matrix(12,0,0,12,452.5,1014.1)" />
<use xlink:href="#f2_29" transform="matrix(12,0,0,12,462.4,1014.1)" />
<use xlink:href="#f2_2b" transform="matrix(12,0,0,12,476.3,1014.1)" />
<use xlink:href="#f2_2f" transform="matrix(12,0,0,12,485.8,1014.1)" />
<use xlink:href="#f2_2b" transform="matrix(12,0,0,12,492.4,1014.1)" />
<use xlink:href="#f2_29" transform="matrix(12,0,0,12,501.9,1014.1)" />
<use xlink:href="#f2_21" transform="matrix(12,0,0,12,515.9,1014.1)" />
<use xlink:href="#f2_2f" transform="matrix(12,0,0,12,523.9,1014.1)" />
<use xlink:href="#f2_i" transform="matrix(12,0,0,12,530.9,1014.1)" />
<use xlink:href="#f1_3d" transform="matrix(12,0,0,12,82.5,1047.1)" />
<use xlink:href="#f2_1j" transform="matrix(12,0,0,12,110,1047.1)" />
<use xlink:href="#f2_2l" transform="matrix(12,0,0,12,120.7,1047.1)" />
<use xlink:href="#f2_2a" transform="matrix(12,0,0,12,129.5,1047.1)" />
<use xlink:href="#f2_1x" transform="matrix(12,0,0,12,138.3,1047.1)" />
<use xlink:href="#f2_2c" transform="matrix(12,0,0,12,146.3,1047.1)" />
<use xlink:href="#f2_2f" transform="matrix(12,0,0,12,155.5,1047.1)" />
<use xlink:href="#f2_25" transform="matrix(12,0,0,12,162.8,1047.1)" />
<use xlink:href="#f2_2f" transform="matrix(12,0,0,12,167.6,1047.1)" />
<use xlink:href="#f2_2b" transform="matrix(12,0,0,12,179.3,1047.1)" />
<use xlink:href="#f2_22" transform="matrix(12,0,0,12,189.2,1047.1)" />
<use xlink:href="#f2_24" transform="matrix(12,0,0,12,199.4,1047.1)" />
<use xlink:href="#f2_2b" transform="matrix(12,0,0,12,208.2,1047.1)" />
<use xlink:href="#f2_29" transform="matrix(12,0,0,12,218.1,1047.1)" />
<use xlink:href="#f2_2b" transform="matrix(12,0,0,12,231.7,1047.1)" />
<use xlink:href="#f2_28" transform="matrix(12,0,0,12,241.5,1047.1)" />
<use xlink:href="#f2_2b" transform="matrix(12,0,0,12,245.9,1047.1)" />
<use xlink:href="#f2_23" transform="matrix(12,0,0,12,255.5,1047.1)" />
<use xlink:href="#f2_2b" transform="matrix(12,0,0,12,264.6,1047.1)" />
<use xlink:href="#f2_2h" transform="matrix(12,0,0,12,274.1,1047.1)" />
<use xlink:href="#f2_2f" transform="matrix(12,0,0,12,283.3,1047.1)" />
<use xlink:href="#f2_1z" transform="matrix(12,0,0,12,295,1047.1)" />
<use xlink:href="#f2_24" transform="matrix(12,0,0,12,303.1,1047.1)" />
<use xlink:href="#f2_2e" transform="matrix(12,0,0,12,311.9,1047.1)" />
<use xlink:href="#f2_2b" transform="matrix(12,0,0,12,318.1,1047.1)" />
<use xlink:href="#f2_29" transform="matrix(12,0,0,12,327.6,1047.1)" />
<use xlink:href="#f2_2b" transform="matrix(12,0,0,12,341.2,1047.1)" />
<use xlink:href="#f2_2f" transform="matrix(12,0,0,12,350.7,1047.1)" />
<use xlink:href="#f2_2b" transform="matrix(12,0,0,12,357.7,1047.1)" />
<use xlink:href="#f2_29" transform="matrix(12,0,0,12,367.2,1047.1)" />
<use xlink:href="#f2_21" transform="matrix(12,0,0,12,380.7,1047.1)" />
<use xlink:href="#f2_2f" transform="matrix(12,0,0,12,389.2,1047.1)" />
<use xlink:href="#f2_2b" transform="matrix(12,0,0,12,400.9,1047.1)" />
<use xlink:href="#f2_1z" transform="matrix(12,0,0,12,410.4,1047.1)" />
<use xlink:href="#f2_1z" transform="matrix(12,0,0,12,418.5,1047.1)" />
<use xlink:href="#f2_2h" transform="matrix(12,0,0,12,426.5,1047.1)" />
<use xlink:href="#f2_2e" transform="matrix(12,0,0,12,435.7,1047.1)" />
<use xlink:href="#f2_i" transform="matrix(12,0,0,12,441.9,1047.1)" />
<use xlink:href="#f1_3d" transform="matrix(12,0,0,12,82.5,1080.1)" />
<use xlink:href="#f2_1k" transform="matrix(12,0,0,12,110,1080.1)" />
<use xlink:href="#f2_24" transform="matrix(12,0,0,12,121.4,1080.1)" />
<use xlink:href="#f2_21" transform="matrix(12,0,0,12,130.2,1080.1)" />
<use xlink:href="#f2_2c" transform="matrix(12,0,0,12,143,1080.1)" />
<use xlink:href="#f2_1x" transform="matrix(12,0,0,12,152.2,1080.1)" />
<use xlink:href="#f2_25" transform="matrix(12,0,0,12,160.6,1080.1)" />
<use xlink:href="#f2_2e" transform="matrix(12,0,0,12,165,1080.1)" />
<use xlink:href="#f2_21" transform="matrix(12,0,0,12,171.2,1080.1)" />
<use xlink:href="#f2_20" transform="matrix(12,0,0,12,179.3,1080.1)" />
<use xlink:href="#f2_1z" transform="matrix(12,0,0,12,193.2,1080.1)" />
<use xlink:href="#f2_24" transform="matrix(12,0,0,12,201.6,1080.1)" />
<use xlink:href="#f2_2e" transform="matrix(12,0,0,12,210.4,1080.1)" />
<use xlink:href="#f2_2b" transform="matrix(12,0,0,12,216.6,1080.1)" />
<use xlink:href="#f2_29" transform="matrix(12,0,0,12,226.1,1080.1)" />
<use xlink:href="#f2_2b" transform="matrix(12,0,0,12,239.7,1080.1)" />
<use xlink:href="#f2_2f" transform="matrix(12,0,0,12,249.2,1080.1)" />
<use xlink:href="#f2_2b" transform="matrix(12,0,0,12,256.2,1080.1)" />
<use xlink:href="#f2_29" transform="matrix(12,0,0,12,266.1,1080.1)" />
<use xlink:href="#f2_21" transform="matrix(12,0,0,12,279.6,1080.1)" />
<use xlink:href="#f2_2f" transform="matrix(12,0,0,12,287.7,1080.1)" />
<use xlink:href="#f2_1x" transform="matrix(12,0,0,12,299.4,1080.1)" />
<use xlink:href="#f2_2e" transform="matrix(12,0,0,12,307.5,1080.1)" />
<use xlink:href="#f2_21" transform="matrix(12,0,0,12,313.7,1080.1)" />
<use xlink:href="#f2_27" transform="matrix(12,0,0,12,326.5,1080.1)" />
<use xlink:href="#f2_2a" transform="matrix(12,0,0,12,335.7,1080.1)" />
<use xlink:href="#f2_2b" transform="matrix(12,0,0,12,344.5,1080.1)" />
<use xlink:href="#f2_2j" transform="matrix(12,0,0,12,354,1080.1)" />
<use xlink:href="#f2_2a" transform="matrix(12,0,0,12,367.2,1080.1)" />
<use xlink:href="#f2_1x" transform="matrix(12,0,0,12,380.7,1080.1)" />
<use xlink:href="#f2_2f" transform="matrix(12,0,0,12,389.1,1080.1)" />
<use xlink:href="#f2_1y" transform="matrix(12,0,0,12,400.9,1080.1)" />
<use xlink:href="#f2_25" transform="matrix(12,0,0,12,410,1080.1)" />
<use xlink:href="#f2_2i" transform="matrix(12,0,0,12,414.8,1080.1)" />
<use xlink:href="#f2_1x" transform="matrix(12,0,0,12,424,1080.1)" />
<use xlink:href="#f2_28" transform="matrix(12,0,0,12,432.4,1080.1)" />
<use xlink:href="#f2_21" transform="matrix(12,0,0,12,437.1,1080.1)" />
<use xlink:href="#f2_2a" transform="matrix(12,0,0,12,445.6,1080.1)" />
<use xlink:href="#f2_2g" transform="matrix(12,0,0,12,454.4,1080.1)" />
<use xlink:href="#f2_2b" transform="matrix(12,0,0,12,464.6,1080.1)" />
<use xlink:href="#f2_2e" transform="matrix(12,0,0,12,473.8,1080.1)" />
<use xlink:href="#f2_2g" transform="matrix(12,0,0,12,484.4,1080.1)" />
<use xlink:href="#f2_21" transform="matrix(12,0,0,12,489.8,1080.1)" />
<use xlink:href="#f2_2g" transform="matrix(12,0,0,12,497.5,1080.1)" />
<use xlink:href="#f2_2e" transform="matrix(12,0,0,12,503,1080.1)" />
<use xlink:href="#f2_1x" transform="matrix(12,0,0,12,509.2,1080.1)" />
<use xlink:href="#f2_20" transform="matrix(12,0,0,12,517.3,1080.1)" />
<use xlink:href="#f2_i" transform="matrix(12,0,0,12,526.1,1080.1)" />
</g>
</g>
<g fill="#000000" >
<use xlink:href="#f3_p" transform="matrix(8,0,0,8,818.2,1187.9)" />
</g>
<defs>
<path d="M36,0V54L154,74V926L26,945v55H860V731H790L766,908c0,0,-36,5,-121,8c0,0,-84,2,-133,2H389V508H633l23,127h67V298H656L633,426H389V74L556,54V0Z" 
id="f0_16"
transform="scale(0.001,-0.001)" />

<path d="M34,0V49l76,18V634L38,652v49H325V67L402,49V0ZM217,831c0,0,-48,0,-81,33c0,0,-34,33,-34,82c0,0,0,48,34,81c0,0,34,33,81,33c0,0,48,0,81,-33c0,0,33,-33,33,-81c0,0,0,-47,-33,-81c0,0,-32,-34,-81,-34Z" 
id="f0_25"
transform="scale(0.001,-0.001)" />

<path d="M360,-256c0,0,108,0,167,35c0,0,59,35,59,98c0,0,0,70,-95,70H254c0,0,-65,-47,-65,-108c0,0,0,-47,46,-71c0,0,45,-24,125,-24Zm9,561c0,0,55,0,79,43c0,0,25,43,25,129c0,0,0,87,-24,127c0,0,-25,41,-80,41c0,0,-52,0,-75,-41c0,0,-24,-40,-24,-127c0,0,0,-86,23,-129c0,0,23,-43,76,-43Zm-9,-641c0,0,-153,0,-236,43c0,0,-84,44,-84,120c0,0,0,33,28,65c0,0,27,31,105,76c0,0,-44,17,-75,59c0,0,-31,43,-31,90L192,258c0,0,-133,56,-133,219c0,0,0,116,81,180c0,0,82,63,233,63c0,0,32,0,82,-6c0,0,51,-6,74,-13l168,83l26,-32L638,631c0,0,46,-57,46,-154c0,0,0,-119,-80,-182c0,0,-80,-64,-234,-64c0,0,-59,0,-114,9L238,183c0,0,1,-22,28,-41c0,0,26,-19,64,-19H493c0,0,256,0,256,-196c0,0,0,-81,-44,-139c0,0,-45,-59,-131,-92c0,0,-86,-32,-214,-32Z" 
id="f0_23"
transform="scale(0.001,-0.001)" />

<path d="M191,-20c0,0,-51,0,-88,34c0,0,-36,36,-36,88c0,0,0,52,36,88c0,0,36,36,88,36c0,0,51,0,88,-36c0,0,36,-36,36,-88c0,0,0,-51,-36,-87c0,0,-36,-35,-88,-35Z" 
id="f0_i"
transform="scale(0.001,-0.001)" />

<path d="M404,60c0,0,54,0,75,59c0,0,21,59,21,177c0,0,0,106,-29,162c0,0,-29,57,-87,57c0,0,-55,0,-112,-17v-4c0,0,0,-434,132,-434Zm3,-74c0,0,-172,0,-263,130c0,0,-92,130,-92,378c0,0,0,161,48,278c0,0,48,117,135,178c0,0,87,61,199,61c0,0,117,0,225,-32V751H594L562,896c0,0,-52,39,-113,39c0,0,-75,0,-121,-95c0,0,-47,-96,-55,-267c0,0,81,35,161,35c0,0,137,0,211,-77c0,0,74,-77,74,-220c0,0,0,-158,-81,-242c0,0,-81,-83,-231,-83Z" 
id="f0_q"
transform="scale(0.001,-0.001)" />

<path d="M608,-14c0,0,-251,0,-392,133C216,119,75,252,75,488c0,0,0,257,134,390c0,0,135,133,398,133c0,0,174,0,361,-50l4,-240H905L884,866c0,0,-98,67,-229,67c0,0,-173,0,-253,-108c0,0,-80,-108,-80,-334c0,0,0,-209,84,-319c0,0,83,-109,243,-109c0,0,84,0,147,22c0,0,63,22,99,53l24,164h68L982,48C982,48,915,22,808,4C808,4,700,-14,608,-14Z" 
id="f0_13"
transform="scale(0.001,-0.001)" />

<path d="M159,-329c0,0,-61,0,-123,14v180H81l32,-94c0,0,21,-17,55,-17c0,0,28,0,50,13c0,0,21,14,40,39c0,0,20,25,37,62c0,0,17,37,50,110L64,634L15,652v49H374V652L290,632L455,244L602,634l-82,18v49H749V652L698,637L421,-44c0,0,-47,-121,-83,-176c0,0,-36,-55,-80,-82c0,0,-43,-27,-99,-27Z" 
id="f0_2l"
transform="scale(0.001,-0.001)" />

<path d="M327,-14c0,0,-101,0,-156,45c0,0,-55,45,-55,131V624H25v48l108,29l87,159H332V701H480V624H332V176c0,0,0,-49,20,-73c0,0,20,-25,53,-25c0,0,40,0,97,12V26c0,0,-22,-15,-76,-27c0,0,-55,-13,-99,-13Z" 
id="f0_2g"
transform="scale(0.001,-0.001)" />

<path d="M379,60c0,0,59,0,84,64c0,0,24,65,24,231c0,0,0,164,-24,227c0,0,-24,63,-84,63c0,0,-57,0,-80,-60c0,0,-22,-61,-22,-230c0,0,0,-173,23,-234c0,0,22,-61,79,-61Zm-2,-74c0,0,-161,0,-240,91c0,0,-79,91,-79,277c0,0,0,186,80,276c0,0,81,90,245,90c0,0,167,0,245,-93c0,0,78,-93,78,-273c0,0,0,-188,-81,-278c0,0,-81,-90,-248,-90Z" 
id="f0_2b"
transform="scale(0.001,-0.001)" />

<path d="M43,0V49l67,18V992l-72,18v50H325V336L599,635l-75,17v49H791V652L711,636L544,460L785,67L847,50V0H510V50l41,17L411,313L325,253V67L395,49V0Z" 
id="f0_27"
transform="scale(0.001,-0.001)" />

<path d="M41,0V49l69,18V634L41,652v49H313l11,-61l50,26c0,0,105,54,188,54c0,0,194,0,194,-207V67L827,49V0H478V49l63,18V484c0,0,0,63,-27,98c0,0,-26,35,-75,35c0,0,-57,0,-114,-25V67L389,49V0Z" 
id="f0_2a"
transform="scale(0.001,-0.001)" />

<path d="M434,423c0,0,0,101,-7,142c0,0,-6,40,-22,60c0,0,-16,19,-45,19c0,0,-44,0,-66,-48c0,0,-22,-49,-22,-173ZM389,-14c0,0,-172,0,-254,89c0,0,-83,90,-83,279c0,0,0,184,79,274c0,0,79,91,238,91c0,0,142,0,206,-76c0,0,64,-76,64,-237V345H271V333c0,0,0,-111,18,-158c0,0,18,-47,58,-72c0,0,40,-25,110,-25c0,0,66,0,166,22V42C623,42,582,18,517,1c0,0,-66,-15,-128,-15Z" 
id="f0_21"
transform="scale(0.001,-0.001)" />

<path d="M276,-14c0,0,-57,0,-125,13C151,-1,83,10,48,23V214H97l28,-98c0,0,26,-26,69,-44c0,0,42,-17,86,-17c0,0,65,0,97,28c0,0,32,28,32,71c0,0,0,41,-31,65c0,0,-30,25,-133,57c0,0,-108,34,-154,92c0,0,-45,58,-45,143c0,0,0,95,71,152c0,0,71,57,183,57c0,0,77,0,207,-22V518H457l-24,82c0,0,-21,22,-60,35c0,0,-40,14,-75,14c0,0,-53,0,-79,-22c0,0,-26,-22,-26,-59c0,0,0,-40,32,-65c0,0,32,-26,132,-55c0,0,109,-34,155,-89c0,0,45,-55,45,-137c0,0,0,-117,-72,-177c0,0,-72,-59,-209,-59Z" 
id="f0_2f"
transform="scale(0.001,-0.001)" />

<path d="M51,0V55L180,74V926L51,946v54H543V946L415,926V74L543,55V0Z" 
id="f0_19"
transform="scale(0.001,-0.001)" />

<path d="M41,0V49l69,18V634L41,652v49H313l11,-61l50,26c0,0,105,54,188,54c0,0,125,0,167,-91c0,0,153,91,258,91c0,0,189,0,189,-207V67l71,-17V0H898V50l63,17V484c0,0,0,63,-24,98c0,0,-25,35,-74,35c0,0,-55,0,-119,-31c0,0,7,-32,7,-73V67L821,50V0H473V50l63,17V484c0,0,0,63,-25,98c0,0,-24,35,-73,35c0,0,-49,0,-113,-29V67L389,49V0Z" 
id="f0_29"
transform="scale(0.001,-0.001)" />

<path d="M438,65c0,0,131,0,131,293c0,0,0,279,-130,279c0,0,-69,0,-127,-29V80c0,0,60,-15,126,-15ZM20,-325v50l76,18V634L19,652v49H304l1,-36c0,0,80,55,194,55c0,0,146,0,218,-86c0,0,71,-86,71,-271c0,0,0,-183,-83,-280c0,0,-83,-97,-238,-97c0,0,-79,0,-160,19c0,0,5,-48,5,-109V-257l103,-18v-50Z" 
id="f0_2c"
transform="scale(0.001,-0.001)" />

<path d="M41,0V49l91,18V634L41,652v49H336l8,-145c0,0,80,89,144,128c0,0,64,40,117,40h40V468H604l-45,94c0,0,-47,0,-106,-21c0,0,-60,-20,-105,-48V67L460,49V0Z" 
id="f0_2e"
transform="scale(0.001,-0.001)" />

<path d="M345,75c0,0,50,0,110,26V351l-63,-2c0,0,-72,-3,-100,-38c0,0,-28,-35,-28,-113c0,0,0,-63,22,-93c0,0,23,-30,59,-30ZM266,-14c0,0,-217,0,-217,208c0,0,0,79,32,126c0,0,32,48,93,71c0,0,60,22,190,25l91,2V521c0,0,0,126,-104,126c0,0,-62,0,-140,-39L183,521H134V691c0,0,112,17,165,21c0,0,53,5,108,5c0,0,264,0,264,-194V67L741,49V0H483L466,54C466,54,408,14,361,0c0,0,-47,-14,-95,-14Z" 
id="f0_1x"
transform="scale(0.001,-0.001)" />

<path d="M425,-14c0,0,-187,0,-280,90c0,0,-93,90,-93,276c0,0,0,115,42,198c0,0,43,82,121,126c0,0,78,44,182,44c0,0,104,0,227,-26V486H571L539,609c0,0,-25,19,-50,26c0,0,-24,7,-65,7c0,0,-44,0,-79,-35c0,0,-36,-35,-56,-98c0,0,-20,-64,-20,-153c0,0,0,-150,47,-214c0,0,47,-64,148,-64c0,0,103,0,176,21V42C640,42,606,15,547,0c0,0,-59,-14,-122,-14Z" 
id="f0_1z"
transform="scale(0.001,-0.001)" />

<path d="M41,0V49l76,18V624H11v51l106,29v75c0,0,0,144,73,220c0,0,73,77,210,77c0,0,74,0,124,-15V894H476l-22,81c0,0,-18,17,-47,17c0,0,-74,0,-74,-189V701H475V624H333V67L447,49V0Z" 
id="f0_22"
transform="scale(0.001,-0.001)" />

<path d="M273,157c0,0,-114,0,-193,80C80,237,0,317,0,431c0,0,0,112,80,192c0,0,79,80,193,80c0,0,113,0,192,-80c0,0,80,-80,80,-192c0,0,0,-114,-80,-194c0,0,-79,-80,-192,-80Z" 
id="f1_3d"
transform="scale(0.001,-0.001)" />

<path d="M394,460c0,0,126,0,186,57c0,0,60,57,60,187c0,0,0,123,-57,176c0,0,-58,53,-194,53H316V460ZM54,0V40L172,60V941L44,960v40H421c0,0,368,0,368,-295c0,0,0,-153,-93,-233c0,0,-93,-80,-267,-80H316V60L475,40V0Z" 
id="f2_1g"
transform="scale(0.001,-0.001)" />

<path d="M31,0V33l88,19V649L31,668v33H235l7,-87c0,0,44,37,121,71c0,0,76,35,121,35h11V530H463l-43,82c0,0,-37,0,-88,-10c0,0,-52,-10,-89,-26V52L363,33V0Z" 
id="f2_2e"
transform="scale(0.001,-0.001)" />

<path d="M377,45c0,0,99,0,147,73c0,0,47,73,47,237c0,0,0,161,-47,233c0,0,-47,72,-147,72c0,0,-97,0,-141,-69c0,0,-44,-69,-44,-236c0,0,0,-169,45,-240c0,0,44,-70,140,-70Zm0,-59c0,0,-158,0,-238,94c0,0,-81,95,-81,274c0,0,0,178,81,272c0,0,80,94,244,94c0,0,160,0,241,-92c0,0,82,-92,82,-274c0,0,0,-368,-329,-368Z" 
id="f2_2b"
transform="scale(0.001,-0.001)" />

<path d="M383,64c0,0,85,0,152,28V645c0,0,-67,13,-152,13c0,0,-194,0,-194,-314c0,0,0,-141,48,-211c0,0,48,-69,146,-69ZM342,-14c0,0,-287,0,-287,358c0,0,0,184,82,280c0,0,81,96,239,96c0,0,81,0,163,-18c0,0,-4,25,-4,124v182l-118,18v34H659V52L745,33V0H548l-9,52c0,0,-84,-66,-197,-66Z" 
id="f2_20"
transform="scale(0.001,-0.001)" />

<path d="M289,-14c0,0,-179,0,-179,205V649L20,668v33H233V200c0,0,0,-128,120,-128c0,0,92,0,173,23V649L420,668v33H649V52L738,33V0H533l-6,57C527,57,474,28,405,7c0,0,-69,-21,-116,-21Z" 
id="f2_2h"
transform="scale(0.001,-0.001)" />

<path d="M399,-14c0,0,-341,0,-341,370c0,0,0,175,87,269c0,0,87,95,249,95c0,0,101,0,220,-23V501H573L541,625c0,0,-62,35,-149,35c0,0,-200,0,-200,-304c0,0,0,-158,61,-225c0,0,61,-67,189,-67c0,0,109,0,189,24V43C631,43,595,16,530,1c0,0,-64,-15,-131,-15Z" 
id="f2_1z"
transform="scale(0.001,-0.001)" />

<path d="M495,413c0,0,0,133,-34,190c0,0,-34,57,-105,57c0,0,-78,0,-119,-63c0,0,-42,-62,-42,-184ZM374,-14c0,0,-163,0,-239,87c0,0,-75,88,-75,283c0,0,0,183,77,273c0,0,76,91,219,91c0,0,269,0,269,-306V353H194V340c0,0,0,-103,23,-160c0,0,22,-57,70,-87c0,0,47,-29,124,-29c0,0,40,0,96,6c0,0,55,7,91,15V43C598,43,562,20,500,3c0,0,-61,-17,-126,-17Z" 
id="f2_21"
transform="scale(0.001,-0.001)" />

<path d="M359,-270c0,0,124,0,192,46c0,0,67,47,67,129c0,0,0,43,-26,67c0,0,-26,24,-79,24H242c0,0,-32,-27,-51,-69c0,0,-20,-41,-20,-77c0,0,0,-64,46,-92c0,0,46,-28,142,-28Zm11,561c0,0,81,0,115,47c0,0,34,47,34,141c0,0,0,100,-35,142c0,0,-35,42,-113,42c0,0,-78,0,-114,-43c0,0,-37,-42,-37,-141c0,0,0,-98,36,-143c0,0,36,-45,114,-45ZM359,-329c0,0,-143,0,-218,44c0,0,-75,43,-75,125c0,0,0,39,27,78c0,0,26,38,98,89c0,0,-43,14,-72,48c0,0,-29,35,-29,74L208,262c0,0,-118,55,-118,217c0,0,0,115,73,178c0,0,73,63,211,63c0,0,28,0,71,-6c0,0,44,-6,67,-13l165,83l26,-32L599,644c0,0,50,-56,50,-165c0,0,0,-120,-72,-182c0,0,-73,-62,-208,-62c0,0,-62,0,-114,11L208,148c0,0,2,-13,29,-24c0,0,27,-12,67,-12H512c0,0,113,0,168,-49c0,0,55,-49,55,-134c0,0,0,-79,-44,-137c0,0,-43,-58,-128,-90c0,0,-84,-31,-204,-31Z" 
id="f2_23"
transform="scale(0.001,-0.001)" />

<path d="M439,0V33l93,19V500c0,0,0,62,-30,97c0,0,-31,36,-94,36c0,0,-67,0,-165,-22V52L338,33V0H35V33l84,19V649L35,668v33H235l7,-57c0,0,57,33,122,54c0,0,65,22,108,22c0,0,91,0,137,-53c0,0,47,-53,47,-154V52L741,33V0Z" 
id="f2_2a"
transform="scale(0.001,-0.001)" />

<path d="M249,-14c0,0,-71,0,-107,42c0,0,-35,42,-35,119V639H15v33l93,29l76,159h47V701H391V639H231V161c0,0,0,-48,22,-73c0,0,22,-24,57,-24c0,0,44,0,106,12V26C416,26,389,8,340,-2c0,0,-49,-12,-91,-12Z" 
id="f2_2g"
transform="scale(0.001,-0.001)" />

<path d="M32,0V33L151,52V649L52,668v33H275V52L395,33V0ZM201,850c0,0,-32,0,-56,24c0,0,-24,24,-24,56c0,0,0,34,24,58c0,0,24,24,56,24c0,0,34,0,58,-24c0,0,24,-24,24,-58c0,0,0,-32,-24,-56c0,0,-24,-24,-58,-24Z" 
id="f2_25"
transform="scale(0.001,-0.001)" />

<path d="M284,67c0,0,51,0,88,12c0,0,37,12,74,30V358l-98,-3c0,0,-100,-4,-135,-39c0,0,-35,-35,-35,-117c0,0,0,-132,106,-132ZM233,-14c0,0,-179,0,-179,208c0,0,0,70,27,116c0,0,27,46,87,70c0,0,60,24,173,27l105,3V519c0,0,0,72,-26,107c0,0,-27,34,-82,34c0,0,-75,0,-137,-35L176,538H134V691c0,0,121,26,213,26c0,0,115,0,169,-47c0,0,54,-47,54,-144V52L657,33V0H465L451,70c0,0,-85,-84,-218,-84Z" 
id="f2_1x"
transform="scale(0.001,-0.001)" />

<path d="M31,0V33L150,52v956L31,1026v34H274V52L394,33V0Z" 
id="f2_28"
transform="scale(0.001,-0.001)" />

<path d="M148,-329c0,0,-58,0,-114,13v151H69l24,-71c0,0,23,-17,64,-17c0,0,39,0,72,22c0,0,33,23,60,67c0,0,27,44,68,157L90,649L19,668v33H344V668L233,648L423,158L606,649L497,668v33H758V668L685,652L411,-43c0,0,-48,-124,-84,-177c0,0,-36,-54,-79,-82c0,0,-44,-27,-100,-27Z" 
id="f2_2l"
transform="scale(0.001,-0.001)" />

<path d="M442,0V33l93,19V504c0,0,0,129,-124,129c0,0,-70,0,-168,-22V52L338,33V0H31V33l88,19v956L15,1026v34H243V756c0,0,0,-77,-5,-112c0,0,54,31,122,53c0,0,68,23,115,23c0,0,91,0,137,-53c0,0,47,-53,47,-154V52L744,33V0Z" 
id="f2_24"
transform="scale(0.001,-0.001)" />

<path d="M278,-14c0,0,-52,0,-115,11c0,0,-63,10,-99,23V193H98L134,95c0,0,56,-50,146,-50c0,0,144,0,144,123c0,0,0,91,-114,130l-66,21c0,0,-75,25,-110,50c0,0,-34,26,-53,63c0,0,-18,36,-18,89c0,0,0,92,63,145c0,0,63,54,170,54c0,0,77,0,193,-23V544H454l-32,81c0,0,-39,35,-124,35c0,0,-61,0,-92,-30c0,0,-32,-30,-32,-80c0,0,0,-43,29,-72c0,0,28,-29,86,-48c0,0,110,-38,144,-55c0,0,33,-17,57,-42c0,0,23,-25,36,-57c0,0,13,-32,13,-79c0,0,0,-104,-66,-158c0,0,-66,-53,-195,-53Z" 
id="f2_2f"
transform="scale(0.001,-0.001)" />

<path d="M191,-20c0,0,-39,0,-65,25c0,0,-25,27,-25,64c0,0,0,38,26,64c0,0,26,26,64,26c0,0,38,0,64,-26c0,0,26,-26,26,-64c0,0,0,-37,-25,-64c0,0,-26,-25,-65,-25Z" 
id="f2_i"
transform="scale(0.001,-0.001)" />

<path d="M577,-14c0,0,-243,0,-379,131C198,117,63,248,63,488c0,0,0,263,131,393c0,0,132,130,386,130c0,0,182,0,352,-45V751H882L862,875c0,0,-52,37,-124,57c0,0,-72,19,-152,19c0,0,-191,0,-279,-113c0,0,-88,-114,-88,-348c0,0,0,-220,91,-333c0,0,91,-114,269,-114c0,0,63,0,131,15c0,0,69,15,105,36V377L686,397v40h370V397L958,377V52C958,52,871,24,778,5c0,0,-93,-19,-201,-19Z" 
id="f2_17"
transform="scale(0.001,-0.001)" />

<path d="M327,-14L84,649L1,668v33H335V668L219,648L385,174L554,632h63L786,171L944,649L830,668v33h267V668l-78,-16L784,-14H726L553,448L382,-14Z" 
id="f2_2j"
transform="scale(0.001,-0.001)" />

<path d="M64,0V34L168,59V639H47v36l121,29v49c0,0,0,155,61,239c0,0,62,84,173,84c0,0,58,0,107,-15V908H472l-33,92c0,0,-26,16,-62,16c0,0,-47,0,-66,-42c0,0,-19,-42,-19,-157V701H478V639H292V59L443,34V0Z" 
id="f2_22"
transform="scale(0.001,-0.001)" />

<path d="M376,50c0,0,103,0,149,80c0,0,46,81,46,240c0,0,0,137,-47,204c0,0,-48,67,-148,67c0,0,-44,0,-87,-7c0,0,-44,-8,-63,-17V62c0,0,63,-12,150,-12Zm3,-64c0,0,-64,0,-141,14c0,0,-78,14,-136,37v971L0,1026v34H226V809c0,0,0,-40,-4,-148c0,0,74,59,188,59c0,0,143,0,219,-87c0,0,77,-87,77,-263c0,0,0,-189,-84,-287c0,0,-84,-97,-243,-97Z" 
id="f2_1y"
transform="scale(0.001,-0.001)" />

<path d="M360,-14L72,649L0,668v33H327V668L216,648L420,164L615,649L504,668v33H764V668L697,652L416,-14Z" 
id="f2_2i"
transform="scale(0.001,-0.001)" />

<path d="M431,0V33L535,52V499c0,0,0,62,-32,96c0,0,-32,33,-95,33c0,0,-66,0,-163,-22V52L350,33V0H32V33l89,19V649L32,668v33H237l6,-57c0,0,56,32,119,54c0,0,62,22,110,22c0,0,52,0,95,-20c0,0,44,-19,66,-62c0,0,57,32,134,57c0,0,77,25,128,25c0,0,179,0,179,-207V52l90,-19V0H846V33L950,52V499c0,0,0,129,-119,129c0,0,-19,0,-45,-3c0,0,-26,-3,-52,-7c0,0,-25,-4,-49,-8c0,0,-23,-5,-39,-8c0,0,13,-41,13,-89V52L764,33V0Z" 
id="f2_29"
transform="scale(0.001,-0.001)" />

<path d="M577,-14c0,0,-243,0,-379,132C198,118,63,250,63,488c0,0,0,258,130,391c0,0,131,132,387,132c0,0,156,0,335,-38l5,-218H871L848,884c0,0,-52,32,-121,50c0,0,-69,17,-141,17c0,0,-191,0,-279,-112c0,0,-88,-113,-88,-349c0,0,0,-217,92,-332c0,0,92,-115,268,-115c0,0,85,0,160,20c0,0,76,21,120,55l27,149h49L930,32c0,0,-164,-46,-353,-46Z" 
id="f2_13"
transform="scale(0.001,-0.001)" />

<path d="M382,45c0,0,188,0,188,314c0,0,0,143,-47,213c0,0,-46,69,-141,69c0,0,-87,0,-146,-24V58c0,0,67,-13,146,-13ZM25,-325v35l88,18V649L34,668v33H231l1,-41c0,0,31,27,84,43c0,0,53,17,107,17c0,0,134,0,208,-94c0,0,73,-93,73,-267c0,0,0,-178,-80,-276c0,0,-80,-97,-232,-97c0,0,-84,0,-160,16c0,0,4,-53,4,-84V-272l123,-18v-35Z" 
id="f2_2c"
transform="scale(0.001,-0.001)" />

<path d="M617,0L251,860V60L385,40V0H44V40L172,60V941L44,960v40H347L672,239l355,761h287V960L1185,941V60L1314,40V0H908V40l134,20V859L643,0Z" 
id="f2_1d"
transform="scale(0.001,-0.001)" />

<path d="M57,302V417H454V302Z" 
id="f2_h"
transform="scale(0.001,-0.001)" />

<path d="M30,0V49l76,18V992l-72,18v50H322V67L398,49V0Z" 
id="f0_28"
transform="scale(0.001,-0.001)" />

<path d="M6,0V49L69,61L292,323L91,634L23,652v49H398V652L319,632L421,475L557,634l-71,18v49H725V652L663,637L466,406L689,65L756,49V0H381V49l79,17L337,254L175,65L245,49V0Z" 
id="f0_2k"
transform="scale(0.001,-0.001)" />

<path d="M410,-14c0,0,-80,0,-162,14c0,0,-81,14,-144,38V270h48L178,134c0,0,28,-35,95,-62c0,0,68,-27,134,-27c0,0,104,0,163,53c0,0,58,54,58,148c0,0,0,54,-23,89c0,0,-22,35,-59,59c0,0,-37,24,-84,41c0,0,-47,17,-97,34c0,0,-49,17,-96,38c0,0,-47,21,-84,53c0,0,-37,32,-60,79c0,0,-23,48,-23,117c0,0,0,119,90,187c0,0,89,68,248,68c0,0,121,0,263,-32V771H654L628,893c0,0,-76,55,-188,55c0,0,-100,0,-156,-40c0,0,-56,-41,-56,-112c0,0,0,-49,22,-81c0,0,23,-32,60,-55c0,0,37,-22,84,-39c0,0,48,-16,97,-34c0,0,50,-17,97,-39c0,0,48,-22,85,-56c0,0,36,-34,59,-83c0,0,23,-49,23,-120c0,0,0,-145,-89,-224c0,0,-89,-79,-256,-79Z" 
id="f2_1j"
transform="scale(0.001,-0.001)" />

<path d="M235,0V40L394,60V936H356c0,0,-189,0,-258,-15L78,766H28v234H908V766H857L837,921c0,0,-22,5,-98,9c0,0,-75,4,-165,4H538V60L697,40V0Z" 
id="f2_1k"
transform="scale(0.001,-0.001)" />

<path d="M58,-234v58c0,0,131,42,131,125c0,0,0,15,-11,27c0,0,-11,12,-38,25C140,1,89,27,89,75c0,0,0,40,25,61c0,0,26,21,65,21c0,0,48,0,77,-34c0,0,30,-34,30,-86c0,0,0,-101,-60,-170c0,0,-59,-69,-168,-101Z" 
id="f2_g"
transform="scale(0.001,-0.001)" />

<path d="M477,0V33l64,19L348,354L257,254V52L331,33V0H44V33l89,19v956L29,1026v34H257V338L544,647l-73,20v34H718V667L631,650L431,446L688,50L764,33V0Z" 
id="f2_27"
transform="scale(0.001,-0.001)" />

<path d="M551,45c0,0,171,0,252,108c0,0,82,108,82,349c0,0,0,239,-81,344c0,0,-81,105,-253,105c0,0,-172,0,-252,-105c0,0,-80,-105,-80,-344c0,0,0,-241,80,-349c0,0,81,-108,252,-108Zm0,-59c0,0,-238,0,-363,129C188,115,63,245,63,501c0,0,0,510,488,510c0,0,242,0,366,-129c0,0,124,-130,124,-381c0,0,0,-255,-126,-385C915,116,790,-14,551,-14Z" 
id="f2_1f"
transform="scale(0.001,-0.001)" />

<path d="M54,0V40L172,60V941L44,960v40H794V760H745L721,922c0,0,-83,11,-241,11H316V516H611l23,120h46V328H634L611,449H316V60L483,40V0Z" 
id="f2_16"
transform="scale(0.001,-0.001)" />

<path d="M13,0V34L95,46L325,350L122,649L40,668v33H357V668L264,648L399,446L554,649l-96,19v33H710V668L630,652L433,397L663,50L745,34V0H427V34l94,17L359,299L169,50L266,34V0Z" 
id="f2_2k"
transform="scale(0.001,-0.001)" />

<path d="M900,0V54l135,20V845L658,0H617L248,845V74L382,54V0H26V54L154,74V926L26,945v55H419L705,342l292,658h401V945L1270,926V74L1398,54V0Z" 
id="f0_1d"
transform="scale(0.001,-0.001)" />

<path d="M681,416L504,902L333,416ZM669,0V40L803,60L704,348H310L210,60L344,40V0H15V40L128,60l341,949H611L965,60L1092,40V0Z" 
id="f2_11"
transform="scale(0.001,-0.001)" />

<path d="M55,0V40L184,60V941L55,960v40H455V960L327,941V60L455,40V0Z" 
id="f2_19"
transform="scale(0.001,-0.001)" />

<path d="M452,474c0,0,104,0,151,52c0,0,47,53,47,178c0,0,0,119,-45,167c0,0,-44,47,-156,47H390V474ZM36,0V54L154,74V926L26,945v55H467c0,0,213,0,318,-71c0,0,105,-71,105,-224c0,0,0,-313,-366,-313H390V74L557,54V0Z" 
id="f0_1g"
transform="scale(0.001,-0.001)" />

<path d="M41,0V49l69,18V992l-72,18v50H325V756c0,0,0,-49,-4,-116l51,26c0,0,106,54,190,54c0,0,194,0,194,-207V67L827,49V0H478V49l63,18V484c0,0,0,63,-27,98c0,0,-26,35,-75,35c0,0,-57,0,-114,-25V67L389,49V0Z" 
id="f0_24"
transform="scale(0.001,-0.001)" />

<path d="M529,65c0,0,183,0,270,108c0,0,87,108,87,334c0,0,0,210,-113,318c0,0,-113,108,-322,108H316V71c0,0,90,-6,213,-6Zm0,-67L172,0H44V40L172,60V941L44,960v40H498c0,0,277,0,411,-123c0,0,133,-124,133,-371c0,0,0,-251,-129,-380C913,126,785,-2,529,-2Z" 
id="f2_14"
transform="scale(0.001,-0.001)" />

<path d="M868,0L251,900V60L385,40V0H44V40L172,60V941L44,960v40H347L862,259V941L727,960v40h341V960L940,941V0Z" 
id="f2_1e"
transform="scale(0.001,-0.001)" />

<path d="M460,-325c0,0,-148,79,-231,172c0,0,-84,93,-123,217c0,0,-39,126,-39,304c0,0,0,178,39,303c0,0,39,125,122,217c0,0,82,93,232,172V997c0,0,-91,-52,-145,-134c0,0,-54,-81,-79,-190c0,0,-25,-109,-25,-305c0,0,0,-194,26,-309c0,0,26,-114,82,-193c0,0,56,-79,141,-128v-63Z" 
id="f2_c"
transform="scale(0.001,-0.001)" />

<path d="M49,-325v63c0,0,85,49,140,128c0,0,56,79,83,194c0,0,26,115,26,308c0,0,0,196,-25,305c0,0,-25,109,-79,190c0,0,-54,82,-145,134v63c0,0,149,-80,232,-172c0,0,83,-92,122,-217c0,0,39,-125,39,-303c0,0,0,-177,-39,-303c0,0,-39,-125,-122,-217c0,0,-83,-93,-232,-173Z" 
id="f2_d"
transform="scale(0.001,-0.001)" />

<path d="M26,0V54L154,74V926L27,945v55H544V945L389,926V79H593c0,0,159,0,234,15l61,208h67L927,0Z" 
id="f0_1c"
transform="scale(0.001,-0.001)" />

<path d="M44,0V40L172,60V941L44,960v40H794V760H745L721,922c0,0,-83,11,-241,11H316V543H586l23,119h48V354H609L586,475H316V67H513c0,0,193,0,252,12l43,185h49L843,0Z" 
id="f2_15"
transform="scale(0.001,-0.001)" />

<path d="M73,0V85L627,921H448c0,0,-170,0,-239,-15L186,749H119v251H892V921L335,77H544c0,0,85,0,167,8c0,0,83,9,119,17l44,191h67L921,0Z" 
id="f0_1q"
transform="scale(0.001,-0.001)" />

<path d="M415,-18c0,0,-149,0,-244,83c0,0,-94,84,-107,222l140,11c0,0,16,-103,73,-154c0,0,56,-52,137,-52c0,0,98,0,165,73c0,0,66,73,66,194c0,0,0,115,-64,182c0,0,-64,66,-169,66c0,0,-65,0,-117,-29c0,0,-52,-30,-82,-77L87,517l106,562H736V951H300L241,657c0,0,99,69,207,69c0,0,143,0,242,-100c0,0,98,-99,98,-255c0,0,0,-149,-86,-257C702,114,597,-18,415,-18Z" 
id="f3_p"
transform="scale(0.001,-0.001)" />


</defs>
</svg>