<?xml version="1.0" encoding="UTF-8" standalone="no"?>
<!DOCTYPE svg PUBLIC "-//W3C//DTD SVG 1.1//EN"
"http://www.w3.org/Graphics/SVG/1.1/DTD/svg11.dtd">
<svg viewBox="0 0 909 1286" version="1.1" xmlns="http://www.w3.org/2000/svg" xmlns:xlink="http://www.w3.org/1999/xlink">
<defs>
</defs>
<g fill="#000000" >
<use xlink:href="#f0_13" transform="matrix(12,0,0,12,110,71.9)" />
<use xlink:href="#f0_2b" transform="matrix(12,0,0,12,122.1,71.9)" />
<use xlink:href="#f0_21" transform="matrix(12,0,0,12,131.7,71.9)" />
<use xlink:href="#f0_28" transform="matrix(12,0,0,12,139.7,71.9)" />
<use xlink:href="#f0_21" transform="matrix(12,0,0,12,144.5,71.9)" />
<use xlink:href="#f0_2a" transform="matrix(12,0,0,12,152.9,71.9)" />
<use xlink:href="#f0_2g" transform="matrix(12,0,0,12,161.7,71.9)" />
<use xlink:href="#f0_21" transform="matrix(12,0,0,12,167.2,71.9)" />
<use xlink:href="#f0_2e" transform="matrix(12,0,0,12,175.2,71.9)" />
<use xlink:href="#f0_1x" transform="matrix(12,0,0,12,181.5,71.9)" />
<use xlink:href="#f0_2g" transform="matrix(12,0,0,12,189.2,71.9)" />
<use xlink:href="#f0_21" transform="matrix(12,0,0,12,194.6,71.9)" />
<use xlink:href="#f0_2f" transform="matrix(12,0,0,12,202.7,71.9)" />
<use xlink:href="#f0_1x" transform="matrix(12,0,0,12,214.4,71.9)" />
<use xlink:href="#f0_2e" transform="matrix(12,0,0,12,222.5,71.9)" />
<use xlink:href="#f0_21" transform="matrix(12,0,0,12,228.7,71.9)" />
<use xlink:href="#f1_24" transform="matrix(12,0,0,12,241.7,71.9)" />
<use xlink:href="#f1_2b" transform="matrix(12,0,0,12,252,71.9)" />
<use xlink:href="#f1_28" transform="matrix(12,0,0,12,261.2,71.9)" />
<use xlink:href="#f1_2b" transform="matrix(12,0,0,12,265.9,71.9)" />
<use xlink:href="#f1_2m" transform="matrix(12,0,0,12,275.1,71.9)" />
<use xlink:href="#f1_2b" transform="matrix(12,0,0,12,282.8,71.9)" />
<use xlink:href="#f1_25" transform="matrix(12,0,0,12,292,71.9)" />
<use xlink:href="#f1_1z" transform="matrix(12,0,0,12,297.1,71.9)" />
<use xlink:href="#f0_1x" transform="matrix(12,0,0,12,309.9,71.9)" />
<use xlink:href="#f0_2a" transform="matrix(12,0,0,12,318.4,71.9)" />
<use xlink:href="#f0_20" transform="matrix(12,0,0,12,327.2,71.9)" />
<use xlink:href="#f1_1z" transform="matrix(12,0,0,12,341.2,71.9)" />
<use xlink:href="#f1_1x" transform="matrix(12,0,0,12,349.2,71.9)" />
<use xlink:href="#f1_2e" transform="matrix(12,0,0,12,358.7,71.9)" />
<use xlink:href="#f1_2a" transform="matrix(12,0,0,12,366.4,71.9)" />
<use xlink:href="#f1_25" transform="matrix(12,0,0,12,376.7,71.9)" />
<use xlink:href="#f1_2i" transform="matrix(12,0,0,12,381.8,71.9)" />
<use xlink:href="#f1_2b" transform="matrix(12,0,0,12,390.9,71.9)" />
<use xlink:href="#f1_2e" transform="matrix(12,0,0,12,400.1,71.9)" />
<use xlink:href="#f1_2b" transform="matrix(12,0,0,12,407.8,71.9)" />
<use xlink:href="#f1_2h" transform="matrix(12,0,0,12,417,71.9)" />
<use xlink:href="#f1_2f" transform="matrix(12,0,0,12,427.6,71.9)" />
<use xlink:href="#f0_25" transform="matrix(12,0,0,12,439.8,71.9)" />
<use xlink:href="#f0_2a" transform="matrix(12,0,0,12,444.6,71.9)" />
<use xlink:href="#f0_2a" transform="matrix(12,0,0,12,458.5,71.9)" />
<use xlink:href="#f0_2h" transform="matrix(12,0,0,12,467.3,71.9)" />
<use xlink:href="#f0_2g" transform="matrix(12,0,0,12,476.5,71.9)" />
<use xlink:href="#f0_2e" transform="matrix(12,0,0,12,481.6,71.9)" />
<use xlink:href="#f0_25" transform="matrix(12,0,0,12,488.2,71.9)" />
<use xlink:href="#f0_2g" transform="matrix(12,0,0,12,492.6,71.9)" />
<use xlink:href="#f0_25" transform="matrix(12,0,0,12,498.1,71.9)" />
<use xlink:href="#f0_2b" transform="matrix(12,0,0,12,502.5,71.9)" />
<use xlink:href="#f0_2a" transform="matrix(12,0,0,12,512,71.9)" />
<use xlink:href="#f0_i" transform="matrix(12,0,0,12,520.8,71.9)" />
</g>
<image preserveAspectRatio="none" x="55" y="118" width="528" height="528" xlink:href="img/1.png" />
<g fill="#000000" >
<use xlink:href="#f0_i" transform="matrix(12,0,0,12,55,663.5)" />
</g>
<image preserveAspectRatio="none" x="110" y="668" width="441" height="235" xlink:href="img/2.png" />
<g fill="#000000" >
<use xlink:href="#f2_3d" transform="matrix(12,0,0,12,82.5,921.3)" />
<use xlink:href="#f1_14" transform="matrix(12,0,0,12,110,921.3)" />
<use xlink:href="#f1_25" transform="matrix(12,0,0,12,123.3,921.3)" />
<use xlink:href="#f1_23" transform="matrix(12,0,0,12,128.4,921.3)" />
<use xlink:href="#f1_21" transform="matrix(12,0,0,12,137.5,921.3)" />
<use xlink:href="#f1_2f" transform="matrix(12,0,0,12,145.6,921.3)" />
<use xlink:href="#f1_2g" transform="matrix(12,0,0,12,152.6,921.3)" />
<use xlink:href="#f1_25" transform="matrix(12,0,0,12,158.8,921.3)" />
<use xlink:href="#f1_2b" transform="matrix(12,0,0,12,163.9,921.3)" />
<use xlink:href="#f1_2a" transform="matrix(12,0,0,12,173,921.3)" />
<use xlink:href="#f0_u" transform="matrix(12,0,0,12,183.4,921.3)" />
<use xlink:href="#f0_25" transform="matrix(12,0,0,12,195.5,921.3)" />
<use xlink:href="#f0_2g" transform="matrix(12,0,0,12,199.9,921.3)" />
<use xlink:href="#f0_25" transform="matrix(12,0,0,12,212.3,921.3)" />
<use xlink:href="#f0_2f" transform="matrix(12,0,0,12,217.1,921.3)" />
<use xlink:href="#f0_25" transform="matrix(12,0,0,12,231.4,921.3)" />
<use xlink:href="#f0_2a" transform="matrix(12,0,0,12,236.1,921.3)" />
<use xlink:href="#f0_2g" transform="matrix(12,0,0,12,244.9,921.3)" />
<use xlink:href="#f0_2e" transform="matrix(12,0,0,12,250.4,921.3)" />
<use xlink:href="#f0_1x" transform="matrix(12,0,0,12,256.6,921.3)" />
<use xlink:href="#f0_1z" transform="matrix(12,0,0,12,264.7,921.3)" />
<use xlink:href="#f0_21" transform="matrix(12,0,0,12,272.8,921.3)" />
<use xlink:href="#f0_28" transform="matrix(12,0,0,12,281.2,921.3)" />
<use xlink:href="#f0_28" transform="matrix(12,0,0,12,285.9,921.3)" />
<use xlink:href="#f0_2h" transform="matrix(12,0,0,12,290.7,921.3)" />
<use xlink:href="#f0_28" transform="matrix(12,0,0,12,300.2,921.3)" />
<use xlink:href="#f0_1x" transform="matrix(12,0,0,12,305,921.3)" />
<use xlink:href="#f0_2e" transform="matrix(12,0,0,12,313.1,921.3)" />
<use xlink:href="#f0_1x" transform="matrix(12,0,0,12,326.2,921.3)" />
<use xlink:href="#f0_2a" transform="matrix(12,0,0,12,334.3,921.3)" />
<use xlink:href="#f0_20" transform="matrix(12,0,0,12,343.1,921.3)" />
<use xlink:href="#f0_21" transform="matrix(12,0,0,12,359.2,921.3)" />
<use xlink:href="#f0_2k" transform="matrix(12,0,0,12,367.3,921.3)" />
<use xlink:href="#f0_2g" transform="matrix(12,0,0,12,376.1,921.3)" />
<use xlink:href="#f0_2e" transform="matrix(12,0,0,12,381.6,921.3)" />
<use xlink:href="#f0_1x" transform="matrix(12,0,0,12,387.8,921.3)" />
<use xlink:href="#f0_1z" transform="matrix(12,0,0,12,395.8,921.3)" />
<use xlink:href="#f0_21" transform="matrix(12,0,0,12,403.9,921.3)" />
<use xlink:href="#f0_28" transform="matrix(12,0,0,12,412.3,921.3)" />
<use xlink:href="#f0_28" transform="matrix(12,0,0,12,417.1,921.3)" />
<use xlink:href="#f0_2h" transform="matrix(12,0,0,12,421.9,921.3)" />
<use xlink:href="#f0_28" transform="matrix(12,0,0,12,431.4,921.3)" />
<use xlink:href="#f0_1x" transform="matrix(12,0,0,12,436.1,921.3)" />
<use xlink:href="#f0_2e" transform="matrix(12,0,0,12,444.2,921.3)" />
<use xlink:href="#f0_i" transform="matrix(12,0,0,12,450.4,921.3)" />
<use xlink:href="#f0_1d" transform="matrix(12,0,0,12,462.1,921.3)" />
<use xlink:href="#f0_2b" transform="matrix(12,0,0,12,478.2,921.3)" />
<use xlink:href="#f0_2h" transform="matrix(12,0,0,12,487.8,921.3)" />
<use xlink:href="#f0_2g" transform="matrix(12,0,0,12,496.6,921.3)" />
<use xlink:href="#f0_24" transform="matrix(12,0,0,12,502,921.3)" />
<use xlink:href="#f0_25" transform="matrix(12,0,0,12,517.8,921.3)" />
<use xlink:href="#f0_2f" transform="matrix(12,0,0,12,522.6,921.3)" />
<use xlink:href="#f0_2f" transform="matrix(12,0,0,12,536.5,921.3)" />
<use xlink:href="#f0_2h" transform="matrix(12,0,0,12,543.4,921.3)" />
<use xlink:href="#f0_2e" transform="matrix(12,0,0,12,552.6,921.3)" />
<use xlink:href="#f0_2e" transform="matrix(12,0,0,12,558.8,921.3)" />
<use xlink:href="#f0_2b" transform="matrix(12,0,0,12,565,921.3)" />
<use xlink:href="#f0_2h" transform="matrix(12,0,0,12,574.6,921.3)" />
<use xlink:href="#f0_2a" transform="matrix(12,0,0,12,583.7,921.3)" />
<use xlink:href="#f0_20" transform="matrix(12,0,0,12,592.5,921.3)" />
<use xlink:href="#f0_21" transform="matrix(12,0,0,12,601.7,921.3)" />
<use xlink:href="#f0_20" transform="matrix(12,0,0,12,609.8,921.3)" />
<use xlink:href="#f0_1y" transform="matrix(12,0,0,12,625.9,921.3)" />
<use xlink:href="#f0_2l" transform="matrix(12,0,0,12,635,921.3)" />
<use xlink:href="#f0_29" transform="matrix(12,0,0,12,650.8,921.3)" />
<use xlink:href="#f0_1x" transform="matrix(12,0,0,12,664.3,921.3)" />
<use xlink:href="#f0_2a" transform="matrix(12,0,0,12,672.8,921.3)" />
<use xlink:href="#f0_2l" transform="matrix(12,0,0,12,681.9,921.3)" />
<use xlink:href="#f0_22" transform="matrix(12,0,0,12,698,921.3)" />
<use xlink:href="#f0_25" transform="matrix(12,0,0,12,703.9,921.3)" />
<use xlink:href="#f0_2a" transform="matrix(12,0,0,12,708.7,921.3)" />
<use xlink:href="#f0_23" transform="matrix(12,0,0,12,717.8,921.3)" />
<use xlink:href="#f0_21" transform="matrix(12,0,0,12,727,921.3)" />
<use xlink:href="#f0_2e" transform="matrix(12,0,0,12,735.1,921.3)" />
<use xlink:href="#f0_28" transform="matrix(12,0,0,12,748.6,921.3)" />
<use xlink:href="#f0_25" transform="matrix(12,0,0,12,753.4,921.3)" />
<use xlink:href="#f0_27" transform="matrix(12,0,0,12,758.1,921.3)" />
<use xlink:href="#f0_21" transform="matrix(12,0,0,12,767.3,921.3)" />
<use xlink:href="#f0_2f" transform="matrix(12,0,0,12,782.3,921.3)" />
<use xlink:href="#f0_2g" transform="matrix(12,0,0,12,789.3,921.3)" />
<use xlink:href="#f0_2e" transform="matrix(12,0,0,12,794.8,921.3)" />
<use xlink:href="#f0_2h" transform="matrix(12,0,0,12,801,921.3)" />
<use xlink:href="#f0_1z" transform="matrix(12,0,0,12,810.2,921.3)" />
<use xlink:href="#f0_2g" transform="matrix(12,0,0,12,818.2,921.3)" />
<use xlink:href="#f0_2h" transform="matrix(12,0,0,12,823.7,921.3)" />
<use xlink:href="#f0_2e" transform="matrix(12,0,0,12,832.5,921.3)" />
<use xlink:href="#f0_21" transform="matrix(12,0,0,12,838.7,921.3)" />
<use xlink:href="#f0_2f" transform="matrix(12,0,0,12,846.4,921.3)" />
<use xlink:href="#f0_1z" transform="matrix(12,0,0,12,110,942.2)" />
<use xlink:href="#f0_1x" transform="matrix(12,0,0,12,118.1,942.2)" />
<use xlink:href="#f0_28" transform="matrix(12,0,0,12,126.5,942.2)" />
<use xlink:href="#f0_28" transform="matrix(12,0,0,12,131.3,942.2)" />
<use xlink:href="#f0_21" transform="matrix(12,0,0,12,136.1,942.2)" />
<use xlink:href="#f0_20" transform="matrix(12,0,0,12,144.1,942.2)" />
<use xlink:href="#f1_2g" transform="matrix(12,0,0,12,158.1,942.2)" />
<use xlink:href="#f1_21" transform="matrix(12,0,0,12,164.3,942.2)" />
<use xlink:href="#f1_2a" transform="matrix(12,0,0,12,172.4,942.2)" />
<use xlink:href="#f1_2g" transform="matrix(12,0,0,12,182.6,942.2)" />
<use xlink:href="#f1_1x" transform="matrix(12,0,0,12,188.9,942.2)" />
<use xlink:href="#f1_1z" transform="matrix(12,0,0,12,198,942.2)" />
<use xlink:href="#f1_28" transform="matrix(12,0,0,12,206.1,942.2)" />
<use xlink:href="#f1_21" transform="matrix(12,0,0,12,210.9,942.2)" />
<use xlink:href="#f1_2f" transform="matrix(12,0,0,12,219.3,942.2)" />
<use xlink:href="#f0_i" transform="matrix(12,0,0,12,226.3,942.2)" />
<use xlink:href="#f0_19" transform="matrix(12,0,0,12,235.8,942.2)" />
<use xlink:href="#f0_2g" transform="matrix(12,0,0,12,241.7,942.2)" />
<use xlink:href="#f0_25" transform="matrix(12,0,0,12,251.9,942.2)" />
<use xlink:href="#f0_2f" transform="matrix(12,0,0,12,256.3,942.2)" />
<use xlink:href="#f0_2h" transform="matrix(12,0,0,12,268,942.2)" />
<use xlink:href="#f0_2f" transform="matrix(12,0,0,12,277.2,942.2)" />
<use xlink:href="#f0_21" transform="matrix(12,0,0,12,284.2,942.2)" />
<use xlink:href="#f0_20" transform="matrix(12,0,0,12,292.2,942.2)" />
<use xlink:href="#f0_22" transform="matrix(12,0,0,12,306.5,942.2)" />
<use xlink:href="#f0_2b" transform="matrix(12,0,0,12,312,942.2)" />
<use xlink:href="#f0_2e" transform="matrix(12,0,0,12,321.5,942.2)" />
<use xlink:href="#f0_22" transform="matrix(12,0,0,12,332.5,942.2)" />
<use xlink:href="#f0_2b" transform="matrix(12,0,0,12,338,942.2)" />
<use xlink:href="#f0_2b" transform="matrix(12,0,0,12,347.5,942.2)" />
<use xlink:href="#f0_20" transform="matrix(12,0,0,12,357,942.2)" />
<use xlink:href="#f0_1z" transform="matrix(12,0,0,12,370.9,942.2)" />
<use xlink:href="#f0_1x" transform="matrix(12,0,0,12,379,942.2)" />
<use xlink:href="#f0_2c" transform="matrix(12,0,0,12,387.1,942.2)" />
<use xlink:href="#f0_2g" transform="matrix(12,0,0,12,395.9,942.2)" />
<use xlink:href="#f0_2h" transform="matrix(12,0,0,12,401.3,942.2)" />
<use xlink:href="#f0_2e" transform="matrix(12,0,0,12,410.5,942.2)" />
<use xlink:href="#f0_21" transform="matrix(12,0,0,12,416.7,942.2)" />
<use xlink:href="#f0_1x" transform="matrix(12,0,0,12,429.2,942.2)" />
<use xlink:href="#f0_2a" transform="matrix(12,0,0,12,437.2,942.2)" />
<use xlink:href="#f0_20" transform="matrix(12,0,0,12,446,942.2)" />
<use xlink:href="#f0_20" transform="matrix(12,0,0,12,460.4,942.2)" />
<use xlink:href="#f0_21" transform="matrix(12,0,0,12,469.5,942.2)" />
<use xlink:href="#f0_22" transform="matrix(12,0,0,12,477.9,942.2)" />
<use xlink:href="#f0_21" transform="matrix(12,0,0,12,483.8,942.2)" />
<use xlink:href="#f0_2a" transform="matrix(12,0,0,12,491.9,942.2)" />
<use xlink:href="#f0_1z" transform="matrix(12,0,0,12,500.7,942.2)" />
<use xlink:href="#f0_21" transform="matrix(12,0,0,12,509.1,942.2)" />
<use xlink:href="#f0_i" transform="matrix(12,0,0,12,517.1,942.2)" />
<use xlink:href="#f2_3d" transform="matrix(12,0,0,12,82.5,964.6)" />
<use xlink:href="#f1_13" transform="matrix(12,0,0,12,110,964.6)" />
<use xlink:href="#f1_2a" transform="matrix(12,0,0,12,123.3,964.6)" />
<use xlink:href="#f1_25" transform="matrix(12,0,0,12,133.5,964.6)" />
<use xlink:href="#f1_20" transform="matrix(12,0,0,12,138.6,964.6)" />
<use xlink:href="#f1_2b" transform="matrix(12,0,0,12,148.9,964.6)" />
<use xlink:href="#f1_1y" transform="matrix(12,0,0,12,158,964.6)" />
<use xlink:href="#f1_28" transform="matrix(12,0,0,12,168.3,964.6)" />
<use xlink:href="#f1_1x" transform="matrix(12,0,0,12,173,964.6)" />
<use xlink:href="#f1_2f" transform="matrix(12,0,0,12,182.2,964.6)" />
<use xlink:href="#f1_2g" transform="matrix(12,0,0,12,189.2,964.6)" />
<use xlink:href="#f1_2f" transform="matrix(12,0,0,12,195.4,964.6)" />
<use xlink:href="#f0_u" transform="matrix(12,0,0,12,202.5,964.6)" />
<use xlink:href="#f0_13" transform="matrix(12,0,0,12,212.7,964.6)" />
<use xlink:href="#f0_21" transform="matrix(12,0,0,12,224.8,964.6)" />
<use xlink:href="#f0_2e" transform="matrix(12,0,0,12,232.9,964.6)" />
<use xlink:href="#f0_2g" transform="matrix(12,0,0,12,239.1,964.6)" />
<use xlink:href="#f0_1x" transform="matrix(12,0,0,12,244.6,964.6)" />
<use xlink:href="#f0_25" transform="matrix(12,0,0,12,252.7,964.6)" />
<use xlink:href="#f0_2a" transform="matrix(12,0,0,12,257.4,964.6)" />
<use xlink:href="#f0_21" transform="matrix(12,0,0,12,271.3,964.6)" />
<use xlink:href="#f0_1z" transform="matrix(12,0,0,12,279.4,964.6)" />
<use xlink:href="#f0_2g" transform="matrix(12,0,0,12,287.5,964.6)" />
<use xlink:href="#f0_2b" transform="matrix(12,0,0,12,293,964.6)" />
<use xlink:href="#f0_20" transform="matrix(12,0,0,12,302.5,964.6)" />
<use xlink:href="#f0_21" transform="matrix(12,0,0,12,311.6,964.6)" />
<use xlink:href="#f0_2e" transform="matrix(12,0,0,12,319.3,964.6)" />
<use xlink:href="#f0_29" transform="matrix(12,0,0,12,325.5,964.6)" />
<use xlink:href="#f0_1x" transform="matrix(12,0,0,12,339.1,964.6)" />
<use xlink:href="#f0_28" transform="matrix(12,0,0,12,347.5,964.6)" />
<use xlink:href="#f0_1z" transform="matrix(12,0,0,12,357.4,964.6)" />
<use xlink:href="#f0_21" transform="matrix(12,0,0,12,365.5,964.6)" />
<use xlink:href="#f0_28" transform="matrix(12,0,0,12,373.9,964.6)" />
<use xlink:href="#f0_28" transform="matrix(12,0,0,12,379,964.6)" />
<use xlink:href="#f0_2f" transform="matrix(12,0,0,12,383.8,964.6)" />
<use xlink:href="#f0_1x" transform="matrix(12,0,0,12,395.9,964.6)" />
<use xlink:href="#f0_2e" transform="matrix(12,0,0,12,403.9,964.6)" />
<use xlink:href="#f0_21" transform="matrix(12,0,0,12,410.2,964.6)" />
<use xlink:href="#f0_29" transform="matrix(12,0,0,12,423.7,964.6)" />
<use xlink:href="#f0_2b" transform="matrix(12,0,0,12,437.3,964.6)" />
<use xlink:href="#f0_20" transform="matrix(12,0,0,12,446.8,964.6)" />
<use xlink:href="#f0_25" transform="matrix(12,0,0,12,456,964.6)" />
<use xlink:href="#f0_22" transform="matrix(12,0,0,12,460.7,964.6)" />
<use xlink:href="#f0_25" transform="matrix(12,0,0,12,466.9,964.6)" />
<use xlink:href="#f0_21" transform="matrix(12,0,0,12,471.7,964.6)" />
<use xlink:href="#f0_20" transform="matrix(12,0,0,12,480.1,964.6)" />
<use xlink:href="#f0_25" transform="matrix(12,0,0,12,494.4,964.6)" />
<use xlink:href="#f0_2a" transform="matrix(12,0,0,12,499.2,964.6)" />
<use xlink:href="#f0_2g" transform="matrix(12,0,0,12,508,964.6)" />
<use xlink:href="#f0_2b" transform="matrix(12,0,0,12,513.4,964.6)" />
<use xlink:href="#f0_2f" transform="matrix(12,0,0,12,527.7,964.6)" />
<use xlink:href="#f0_2g" transform="matrix(12,0,0,12,534.7,964.6)" />
<use xlink:href="#f0_25" transform="matrix(12,0,0,12,540.2,964.6)" />
<use xlink:href="#f0_2a" transform="matrix(12,0,0,12,544.6,964.6)" />
<use xlink:href="#f0_23" transform="matrix(12,0,0,12,553.4,964.6)" />
<use xlink:href="#f0_25" transform="matrix(12,0,0,12,562.9,964.6)" />
<use xlink:href="#f0_2a" transform="matrix(12,0,0,12,567.7,964.6)" />
<use xlink:href="#f0_23" transform="matrix(12,0,0,12,576.8,964.6)" />
<use xlink:href="#f0_1z" transform="matrix(12,0,0,12,591.1,964.6)" />
<use xlink:href="#f0_21" transform="matrix(12,0,0,12,599.2,964.6)" />
<use xlink:href="#f0_28" transform="matrix(12,0,0,12,607.6,964.6)" />
<use xlink:href="#f0_28" transform="matrix(12,0,0,12,612.7,964.6)" />
<use xlink:href="#f0_2f" transform="matrix(12,0,0,12,617.5,964.6)" />
<use xlink:href="#f0_2b" transform="matrix(12,0,0,12,629.6,964.6)" />
<use xlink:href="#f0_2e" transform="matrix(12,0,0,12,639.1,964.6)" />
<use xlink:href="#f0_1z" transform="matrix(12,0,0,12,650.1,964.6)" />
<use xlink:href="#f0_2a" transform="matrix(12,0,0,12,658.1,964.6)" />
<use xlink:href="#f0_25" transform="matrix(12,0,0,12,668,964.6)" />
<use xlink:href="#f0_20" transform="matrix(12,0,0,12,672.4,964.6)" />
<use xlink:href="#f0_2b" transform="matrix(12,0,0,12,681.5,964.6)" />
<use xlink:href="#f0_20" transform="matrix(12,0,0,12,691,964.6)" />
<use xlink:href="#f0_2b" transform="matrix(12,0,0,12,700.2,964.6)" />
<use xlink:href="#f0_1y" transform="matrix(12,0,0,12,709.7,964.6)" />
<use xlink:href="#f0_28" transform="matrix(12,0,0,12,718.9,964.6)" />
<use xlink:href="#f0_1x" transform="matrix(12,0,0,12,723.3,964.6)" />
<use xlink:href="#f0_2f" transform="matrix(12,0,0,12,731.7,964.6)" />
<use xlink:href="#f0_2g" transform="matrix(12,0,0,12,738.7,964.6)" />
<use xlink:href="#f0_2f" transform="matrix(12,0,0,12,744.2,964.6)" />
<use xlink:href="#f0_2b" transform="matrix(12,0,0,12,756,964.6)" />
<use xlink:href="#f0_2e" transform="matrix(12,0,0,12,765.5,964.6)" />
<use xlink:href="#f0_1z" transform="matrix(12,0,0,12,776.5,964.6)" />
<use xlink:href="#f0_2a" transform="matrix(12,0,0,12,784.6,964.6)" />
<use xlink:href="#f0_25" transform="matrix(12,0,0,12,793.7,964.6)" />
<use xlink:href="#f0_20" transform="matrix(12,0,0,12,798.1,964.6)" />
<use xlink:href="#f0_2b" transform="matrix(12,0,0,12,807.3,964.6)" />
<use xlink:href="#f0_1z" transform="matrix(12,0,0,12,816.8,964.6)" />
<use xlink:href="#f0_2l" transform="matrix(12,0,0,12,825.2,964.6)" />
<use xlink:href="#f0_2g" transform="matrix(12,0,0,12,833.7,964.6)" />
<use xlink:href="#f0_21" transform="matrix(12,0,0,12,839.1,964.6)" />
<use xlink:href="#f0_2f" transform="matrix(12,0,0,12,847.2,964.6)" />
<use xlink:href="#f0_g" transform="matrix(12,0,0,12,854.5,964.6)" />
<use xlink:href="#f0_24" transform="matrix(12,0,0,12,110,985.5)" />
<use xlink:href="#f0_21" transform="matrix(12,0,0,12,118.8,985.5)" />
<use xlink:href="#f0_2a" transform="matrix(12,0,0,12,127.3,985.5)" />
<use xlink:href="#f0_1z" transform="matrix(12,0,0,12,136.1,985.5)" />
<use xlink:href="#f0_21" transform="matrix(12,0,0,12,144.5,985.5)" />
<use xlink:href="#f0_2g" transform="matrix(12,0,0,12,157.3,985.5)" />
<use xlink:href="#f0_24" transform="matrix(12,0,0,12,162.8,985.5)" />
<use xlink:href="#f0_21" transform="matrix(12,0,0,12,171.6,985.5)" />
<use xlink:href="#f0_2a" transform="matrix(12,0,0,12,184.7,985.5)" />
<use xlink:href="#f0_1x" transform="matrix(12,0,0,12,193.5,985.5)" />
<use xlink:href="#f0_29" transform="matrix(12,0,0,12,202,985.5)" />
<use xlink:href="#f0_21" transform="matrix(12,0,0,12,215.9,985.5)" />
<use xlink:href="#f0_13" transform="matrix(12,0,0,12,229.1,985.5)" />
<use xlink:href="#f0_2a" transform="matrix(12,0,0,12,241.4,985.5)" />
<use xlink:href="#f0_25" transform="matrix(12,0,0,12,250.5,985.5)" />
<use xlink:href="#f0_20" transform="matrix(12,0,0,12,255.3,985.5)" />
<use xlink:href="#f0_1x" transform="matrix(12,0,0,12,264.5,985.5)" />
<use xlink:href="#f0_2e" transform="matrix(12,0,0,12,272.5,985.5)" />
<use xlink:href="#f0_25" transform="matrix(12,0,0,12,279.1,985.5)" />
<use xlink:href="#f0_1x" transform="matrix(12,0,0,12,283.9,985.5)" />
<use xlink:href="#f0_i" transform="matrix(12,0,0,12,292,985.5)" />
<use xlink:href="#f0_15" transform="matrix(12,0,0,12,301.8,985.5)" />
<use xlink:href="#f0_1x" transform="matrix(12,0,0,12,313.2,985.5)" />
<use xlink:href="#f0_1z" transform="matrix(12,0,0,12,321.2,985.5)" />
<use xlink:href="#f0_24" transform="matrix(12,0,0,12,329.3,985.5)" />
<use xlink:href="#f0_1z" transform="matrix(12,0,0,12,343.2,985.5)" />
<use xlink:href="#f0_2a" transform="matrix(12,0,0,12,351.3,985.5)" />
<use xlink:href="#f0_25" transform="matrix(12,0,0,12,360.4,985.5)" />
<use xlink:href="#f0_20" transform="matrix(12,0,0,12,365.2,985.5)" />
<use xlink:href="#f0_2b" transform="matrix(12,0,0,12,374.4,985.5)" />
<use xlink:href="#f0_1y" transform="matrix(12,0,0,12,383.9,985.5)" />
<use xlink:href="#f0_28" transform="matrix(12,0,0,12,393.1,985.5)" />
<use xlink:href="#f0_1x" transform="matrix(12,0,0,12,397.8,985.5)" />
<use xlink:href="#f0_2f" transform="matrix(12,0,0,12,405.9,985.5)" />
<use xlink:href="#f0_2g" transform="matrix(12,0,0,12,412.9,985.5)" />
<use xlink:href="#f0_2c" transform="matrix(12,0,0,12,423.5,985.5)" />
<use xlink:href="#f0_2b" transform="matrix(12,0,0,12,432.3,985.5)" />
<use xlink:href="#f0_2f" transform="matrix(12,0,0,12,441.8,985.5)" />
<use xlink:href="#f0_2f" transform="matrix(12,0,0,12,448.7,985.5)" />
<use xlink:href="#f0_21" transform="matrix(12,0,0,12,455.7,985.5)" />
<use xlink:href="#f0_2f" transform="matrix(12,0,0,12,463.8,985.5)" />
<use xlink:href="#f0_2f" transform="matrix(12,0,0,12,470.7,985.5)" />
<use xlink:href="#f0_21" transform="matrix(12,0,0,12,478.1,985.5)" />
<use xlink:href="#f0_2f" transform="matrix(12,0,0,12,486.1,985.5)" />
<use xlink:href="#f0_1x" transform="matrix(12,0,0,12,498.2,985.5)" />
<use xlink:href="#f0_2f" transform="matrix(12,0,0,12,511.4,985.5)" />
<use xlink:href="#f0_2g" transform="matrix(12,0,0,12,518,985.5)" />
<use xlink:href="#f0_25" transform="matrix(12,0,0,12,523.5,985.5)" />
<use xlink:href="#f0_2a" transform="matrix(12,0,0,12,528.2,985.5)" />
<use xlink:href="#f0_23" transform="matrix(12,0,0,12,537,985.5)" />
<use xlink:href="#f0_25" transform="matrix(12,0,0,12,546.6,985.5)" />
<use xlink:href="#f0_2a" transform="matrix(12,0,0,12,551.3,985.5)" />
<use xlink:href="#f0_23" transform="matrix(12,0,0,12,560.5,985.5)" />
<use xlink:href="#f0_1z" transform="matrix(12,0,0,12,574.8,985.5)" />
<use xlink:href="#f0_1x" transform="matrix(12,0,0,12,582.8,985.5)" />
<use xlink:href="#f0_2c" transform="matrix(12,0,0,12,590.9,985.5)" />
<use xlink:href="#f0_2f" transform="matrix(12,0,0,12,600.1,985.5)" />
<use xlink:href="#f0_2h" transform="matrix(12,0,0,12,607,985.5)" />
<use xlink:href="#f0_28" transform="matrix(12,0,0,12,616.5,985.5)" />
<use xlink:href="#f0_21" transform="matrix(12,0,0,12,621.3,985.5)" />
<use xlink:href="#f0_1z" transform="matrix(12,0,0,12,634.5,985.5)" />
<use xlink:href="#f0_1x" transform="matrix(12,0,0,12,642.6,985.5)" />
<use xlink:href="#f0_28" transform="matrix(12,0,0,12,651,985.5)" />
<use xlink:href="#f0_28" transform="matrix(12,0,0,12,655.7,985.5)" />
<use xlink:href="#f0_21" transform="matrix(12,0,0,12,660.5,985.5)" />
<use xlink:href="#f0_20" transform="matrix(12,0,0,12,668.6,985.5)" />
<use xlink:href="#f1_2a" transform="matrix(12,0,0,12,683.4,985.5)" />
<use xlink:href="#f1_21" transform="matrix(12,0,0,12,693.6,985.5)" />
<use xlink:href="#f1_29" transform="matrix(12,0,0,12,701.7,985.5)" />
<use xlink:href="#f1_1x" transform="matrix(12,0,0,12,716.7,985.5)" />
<use xlink:href="#f1_2g" transform="matrix(12,0,0,12,725.9,985.5)" />
<use xlink:href="#f1_2b" transform="matrix(12,0,0,12,732.1,985.5)" />
<use xlink:href="#f1_1z" transform="matrix(12,0,0,12,741.3,985.5)" />
<use xlink:href="#f1_2l" transform="matrix(12,0,0,12,749.3,985.5)" />
<use xlink:href="#f1_2f" transform="matrix(12,0,0,12,758.5,985.5)" />
<use xlink:href="#f1_2g" transform="matrix(12,0,0,12,765.5,985.5)" />
<use xlink:href="#f0_1z" transform="matrix(12,0,0,12,777.3,985.5)" />
<use xlink:href="#f0_2b" transform="matrix(12,0,0,12,785.3,985.5)" />
<use xlink:href="#f0_2a" transform="matrix(12,0,0,12,794.8,985.5)" />
<use xlink:href="#f0_2g" transform="matrix(12,0,0,12,803.6,985.5)" />
<use xlink:href="#f0_1x" transform="matrix(12,0,0,12,809.1,985.5)" />
<use xlink:href="#f0_25" transform="matrix(12,0,0,12,817.2,985.5)" />
<use xlink:href="#f0_2a" transform="matrix(12,0,0,12,822,985.5)" />
<use xlink:href="#f0_25" transform="matrix(12,0,0,12,831.1,985.5)" />
<use xlink:href="#f0_2a" transform="matrix(12,0,0,12,835.9,985.5)" />
<use xlink:href="#f0_23" transform="matrix(12,0,0,12,845.4,985.5)" />
<use xlink:href="#f0_2c" transform="matrix(12,0,0,12,110,1006.8)" />
<use xlink:href="#f0_2b" transform="matrix(12,0,0,12,119.2,1006.8)" />
<use xlink:href="#f0_25" transform="matrix(12,0,0,12,128.7,1006.8)" />
<use xlink:href="#f0_2f" transform="matrix(12,0,0,12,133.1,1006.8)" />
<use xlink:href="#f0_2b" transform="matrix(12,0,0,12,140.1,1006.8)" />
<use xlink:href="#f0_2a" transform="matrix(12,0,0,12,149.6,1006.8)" />
<use xlink:href="#f0_2b" transform="matrix(12,0,0,12,158.4,1006.8)" />
<use xlink:href="#f0_2h" transform="matrix(12,0,0,12,167.9,1006.8)" />
<use xlink:href="#f0_2f" transform="matrix(12,0,0,12,177.1,1006.8)" />
<use xlink:href="#f0_22" transform="matrix(12,0,0,12,189.2,1006.8)" />
<use xlink:href="#f0_28" transform="matrix(12,0,0,12,195,1006.8)" />
<use xlink:href="#f0_2h" transform="matrix(12,0,0,12,199.8,1006.8)" />
<use xlink:href="#f0_25" transform="matrix(12,0,0,12,209.3,1006.8)" />
<use xlink:href="#f0_20" transform="matrix(12,0,0,12,214.1,1006.8)" />
<use xlink:href="#f0_i" transform="matrix(12,0,0,12,223.2,1006.8)" />
<use xlink:href="#f0_13" transform="matrix(12,0,0,12,110,1027.7)" />
<use xlink:href="#f0_2a" transform="matrix(12,0,0,12,122.1,1027.7)" />
<use xlink:href="#f0_25" transform="matrix(12,0,0,12,131.3,1027.7)" />
<use xlink:href="#f0_20" transform="matrix(12,0,0,12,136.1,1027.7)" />
<use xlink:href="#f0_2b" transform="matrix(12,0,0,12,145.2,1027.7)" />
<use xlink:href="#f0_1y" transform="matrix(12,0,0,12,154.8,1027.7)" />
<use xlink:href="#f0_28" transform="matrix(12,0,0,12,163.9,1027.7)" />
<use xlink:href="#f0_1x" transform="matrix(12,0,0,12,168.7,1027.7)" />
<use xlink:href="#f0_2f" transform="matrix(12,0,0,12,177.1,1027.7)" />
<use xlink:href="#f0_2g" transform="matrix(12,0,0,12,184.1,1027.7)" />
<use xlink:href="#f0_2f" transform="matrix(12,0,0,12,189.5,1027.7)" />
<use xlink:href="#f0_1x" transform="matrix(12,0,0,12,204.2,1027.7)" />
<use xlink:href="#f0_2e" transform="matrix(12,0,0,12,212.3,1027.7)" />
<use xlink:href="#f0_21" transform="matrix(12,0,0,12,218.5,1027.7)" />
<use xlink:href="#f0_20" transform="matrix(12,0,0,12,233.9,1027.7)" />
<use xlink:href="#f0_21" transform="matrix(12,0,0,12,243,1027.7)" />
<use xlink:href="#f0_22" transform="matrix(12,0,0,12,251.1,1027.7)" />
<use xlink:href="#f0_21" transform="matrix(12,0,0,12,256.6,1027.7)" />
<use xlink:href="#f0_2a" transform="matrix(12,0,0,12,265,1027.7)" />
<use xlink:href="#f0_2f" transform="matrix(12,0,0,12,274.2,1027.7)" />
<use xlink:href="#f0_25" transform="matrix(12,0,0,12,281.5,1027.7)" />
<use xlink:href="#f0_2i" transform="matrix(12,0,0,12,286.3,1027.7)" />
<use xlink:href="#f0_21" transform="matrix(12,0,0,12,295.4,1027.7)" />
<use xlink:href="#f0_1z" transform="matrix(12,0,0,12,311.2,1027.7)" />
<use xlink:href="#f0_21" transform="matrix(12,0,0,12,319.2,1027.7)" />
<use xlink:href="#f0_28" transform="matrix(12,0,0,12,327.9,1027.7)" />
<use xlink:href="#f0_28" transform="matrix(12,0,0,12,332.7,1027.7)" />
<use xlink:href="#f0_2f" transform="matrix(12,0,0,12,337.4,1027.7)" />
<use xlink:href="#f0_2h" transform="matrix(12,0,0,12,352.1,1027.7)" />
<use xlink:href="#f0_2f" transform="matrix(12,0,0,12,361.3,1027.7)" />
<use xlink:href="#f0_21" transform="matrix(12,0,0,12,368.2,1027.7)" />
<use xlink:href="#f0_20" transform="matrix(12,0,0,12,376.3,1027.7)" />
<use xlink:href="#f0_2g" transform="matrix(12,0,0,12,393.1,1027.7)" />
<use xlink:href="#f0_2b" transform="matrix(12,0,0,12,398.2,1027.7)" />
<use xlink:href="#f0_27" transform="matrix(12,0,0,12,415.5,1027.7)" />
<use xlink:href="#f0_25" transform="matrix(12,0,0,12,424.6,1027.7)" />
<use xlink:href="#f0_28" transform="matrix(12,0,0,12,429.4,1027.7)" />
<use xlink:href="#f0_28" transform="matrix(12,0,0,12,434.2,1027.7)" />
<use xlink:href="#f0_2b" transform="matrix(12,0,0,12,446.2,1027.7)" />
<use xlink:href="#f0_2e" transform="matrix(12,0,0,12,455.8,1027.7)" />
<use xlink:href="#f0_2c" transform="matrix(12,0,0,12,469.7,1027.7)" />
<use xlink:href="#f0_1x" transform="matrix(12,0,0,12,478.5,1027.7)" />
<use xlink:href="#f0_2e" transform="matrix(12,0,0,12,486.5,1027.7)" />
<use xlink:href="#f0_1x" transform="matrix(12,0,0,12,492.7,1027.7)" />
<use xlink:href="#f0_28" transform="matrix(12,0,0,12,501.2,1027.7)" />
<use xlink:href="#f0_2l" transform="matrix(12,0,0,12,505.9,1027.7)" />
<use xlink:href="#f0_2f" transform="matrix(12,0,0,12,514.7,1027.7)" />
<use xlink:href="#f0_21" transform="matrix(12,0,0,12,522,1027.7)" />
<use xlink:href="#f0_2b" transform="matrix(12,0,0,12,537.8,1027.7)" />
<use xlink:href="#f0_2g" transform="matrix(12,0,0,12,547,1027.7)" />
<use xlink:href="#f0_24" transform="matrix(12,0,0,12,552.4,1027.7)" />
<use xlink:href="#f0_21" transform="matrix(12,0,0,12,561.2,1027.7)" />
<use xlink:href="#f0_2e" transform="matrix(12,0,0,12,569.3,1027.7)" />
<use xlink:href="#f0_2c" transform="matrix(12,0,0,12,583.2,1027.7)" />
<use xlink:href="#f0_2e" transform="matrix(12,0,0,12,592,1027.7)" />
<use xlink:href="#f0_21" transform="matrix(12,0,0,12,598.2,1027.7)" />
<use xlink:href="#f0_2l" transform="matrix(12,0,0,12,606.3,1027.7)" />
<use xlink:href="#f0_1x" transform="matrix(12,0,0,12,622.4,1027.7)" />
<use xlink:href="#f0_2a" transform="matrix(12,0,0,12,630.8,1027.7)" />
<use xlink:href="#f0_20" transform="matrix(12,0,0,12,639.6,1027.7)" />
<use xlink:href="#f0_21" transform="matrix(12,0,0,12,656.5,1027.7)" />
<use xlink:href="#f0_2a" transform="matrix(12,0,0,12,664.5,1027.7)" />
<use xlink:href="#f0_21" transform="matrix(12,0,0,12,673.3,1027.7)" />
<use xlink:href="#f0_29" transform="matrix(12,0,0,12,681.7,1027.7)" />
<use xlink:href="#f0_25" transform="matrix(12,0,0,12,696,1027.7)" />
<use xlink:href="#f0_21" transform="matrix(12,0,0,12,700.8,1027.7)" />
<use xlink:href="#f0_2f" transform="matrix(12,0,0,12,709.2,1027.7)" />
<use xlink:href="#f0_i" transform="matrix(12,0,0,12,716.2,1027.7)" />
<use xlink:href="#f0_1k" transform="matrix(12,0,0,12,728.6,1027.7)" />
<use xlink:href="#f0_24" transform="matrix(12,0,0,12,740,1027.7)" />
<use xlink:href="#f0_21" transform="matrix(12,0,0,12,748.8,1027.7)" />
<use xlink:href="#f0_2l" transform="matrix(12,0,0,12,757.2,1027.7)" />
<use xlink:href="#f0_1x" transform="matrix(12,0,0,12,773.3,1027.7)" />
<use xlink:href="#f0_2e" transform="matrix(12,0,0,12,781.4,1027.7)" />
<use xlink:href="#f0_21" transform="matrix(12,0,0,12,787.6,1027.7)" />
<use xlink:href="#f0_29" transform="matrix(12,0,0,12,803.3,1027.7)" />
<use xlink:href="#f0_1x" transform="matrix(12,0,0,12,816.9,1027.7)" />
<use xlink:href="#f0_25" transform="matrix(12,0,0,12,825.3,1027.7)" />
<use xlink:href="#f0_2a" transform="matrix(12,0,0,12,830.1,1027.7)" />
<use xlink:href="#f0_28" transform="matrix(12,0,0,12,839.6,1027.7)" />
<use xlink:href="#f0_2l" transform="matrix(12,0,0,12,845.1,1027.7)" />
<use xlink:href="#f0_22" transform="matrix(12,0,0,12,110,1049)" />
<use xlink:href="#f0_2b" transform="matrix(12,0,0,12,115.5,1049)" />
<use xlink:href="#f0_2h" transform="matrix(12,0,0,12,125.1,1049)" />
<use xlink:href="#f0_2a" transform="matrix(12,0,0,12,134.6,1049)" />
<use xlink:href="#f0_20" transform="matrix(12,0,0,12,143.4,1049)" />
<use xlink:href="#f0_2b" transform="matrix(12,0,0,12,157.3,1049)" />
<use xlink:href="#f0_2a" transform="matrix(12,0,0,12,166.8,1049)" />
<use xlink:href="#f0_2g" transform="matrix(12,0,0,12,180.3,1049)" />
<use xlink:href="#f0_24" transform="matrix(12,0,0,12,185.8,1049)" />
<use xlink:href="#f0_21" transform="matrix(12,0,0,12,194.6,1049)" />
<use xlink:href="#f0_2g" transform="matrix(12,0,0,12,207.1,1049)" />
<use xlink:href="#f0_21" transform="matrix(12,0,0,12,212.6,1049)" />
<use xlink:href="#f0_2a" transform="matrix(12,0,0,12,220.6,1049)" />
<use xlink:href="#f0_2g" transform="matrix(12,0,0,12,229.4,1049)" />
<use xlink:href="#f0_1x" transform="matrix(12,0,0,12,234.9,1049)" />
<use xlink:href="#f0_1z" transform="matrix(12,0,0,12,243,1049)" />
<use xlink:href="#f0_28" transform="matrix(12,0,0,12,251.1,1049)" />
<use xlink:href="#f0_21" transform="matrix(12,0,0,12,255.8,1049)" />
<use xlink:href="#f0_2f" transform="matrix(12,0,0,12,263.9,1049)" />
<use xlink:href="#f0_i" transform="matrix(12,0,0,12,270.9,1049)" />
<use xlink:href="#f0_1k" transform="matrix(12,0,0,12,110,1069.9)" />
<use xlink:href="#f0_24" transform="matrix(12,0,0,12,121.4,1069.9)" />
<use xlink:href="#f0_21" transform="matrix(12,0,0,12,130.2,1069.9)" />
<use xlink:href="#f0_2a" transform="matrix(12,0,0,12,143,1069.9)" />
<use xlink:href="#f0_21" transform="matrix(12,0,0,12,151.8,1069.9)" />
<use xlink:href="#f0_29" transform="matrix(12,0,0,12,160.2,1069.9)" />
<use xlink:href="#f0_1x" transform="matrix(12,0,0,12,174.1,1069.9)" />
<use xlink:href="#f0_2g" transform="matrix(12,0,0,12,182.2,1069.9)" />
<use xlink:href="#f0_2b" transform="matrix(12,0,0,12,187.7,1069.9)" />
<use xlink:href="#f0_1z" transform="matrix(12,0,0,12,197.2,1069.9)" />
<use xlink:href="#f0_2l" transform="matrix(12,0,0,12,205.6,1069.9)" />
<use xlink:href="#f0_2f" transform="matrix(12,0,0,12,214.1,1069.9)" />
<use xlink:href="#f0_2g" transform="matrix(12,0,0,12,221,1069.9)" />
<use xlink:href="#f0_2c" transform="matrix(12,0,0,12,231.3,1069.9)" />
<use xlink:href="#f0_2b" transform="matrix(12,0,0,12,240.1,1069.9)" />
<use xlink:href="#f0_25" transform="matrix(12,0,0,12,249.6,1069.9)" />
<use xlink:href="#f0_2f" transform="matrix(12,0,0,12,254.3,1069.9)" />
<use xlink:href="#f0_2b" transform="matrix(12,0,0,12,261.3,1069.9)" />
<use xlink:href="#f0_2a" transform="matrix(12,0,0,12,270.8,1069.9)" />
<use xlink:href="#f0_2b" transform="matrix(12,0,0,12,284.4,1069.9)" />
<use xlink:href="#f0_22" transform="matrix(12,0,0,12,293.9,1069.9)" />
<use xlink:href="#f3_1g" transform="matrix(12,0,0,12,304.4,1069.9)" />
<use xlink:href="#f3_24" transform="matrix(12,0,0,12,315.4,1069.9)" />
<use xlink:href="#f3_2l" transform="matrix(12,0,0,12,324.6,1069.9)" />
<use xlink:href="#f3_2f" transform="matrix(12,0,0,12,333,1069.9)" />
<use xlink:href="#f3_1x" transform="matrix(12,0,0,12,340,1069.9)" />
<use xlink:href="#f3_28" transform="matrix(12,0,0,12,349.2,1069.9)" />
<use xlink:href="#f3_25" transform="matrix(12,0,0,12,354.3,1069.9)" />
<use xlink:href="#f3_1x" transform="matrix(12,0,0,12,359.4,1069.9)" />
<use xlink:href="#f0_25" transform="matrix(12,0,0,12,373.8,1069.9)" />
<use xlink:href="#f0_2f" transform="matrix(12,0,0,12,378.2,1069.9)" />
<use xlink:href="#f0_1x" transform="matrix(12,0,0,12,389.9,1069.9)" />
<use xlink:href="#f0_2a" transform="matrix(12,0,0,12,402.7,1069.9)" />
<use xlink:href="#f0_21" transform="matrix(12,0,0,12,411.9,1069.9)" />
<use xlink:href="#f0_2h" transform="matrix(12,0,0,12,419.9,1069.9)" />
<use xlink:href="#f0_2e" transform="matrix(12,0,0,12,429.1,1069.9)" />
<use xlink:href="#f0_2b" transform="matrix(12,0,0,12,435.3,1069.9)" />
<use xlink:href="#f0_2g" transform="matrix(12,0,0,12,444.5,1069.9)" />
<use xlink:href="#f0_2b" transform="matrix(12,0,0,12,449.6,1069.9)" />
<use xlink:href="#f0_2k" transform="matrix(12,0,0,12,459.1,1069.9)" />
<use xlink:href="#f0_25" transform="matrix(12,0,0,12,468.3,1069.9)" />
<use xlink:href="#f0_2a" transform="matrix(12,0,0,12,473.1,1069.9)" />
<use xlink:href="#f2_3d" transform="matrix(12,0,0,12,82.5,1092.6)" />
<use xlink:href="#f0_1g" transform="matrix(12,0,0,12,110,1092.6)" />
<use xlink:href="#f0_24" transform="matrix(12,0,0,12,120.3,1092.6)" />
<use xlink:href="#f0_2l" transform="matrix(12,0,0,12,129.5,1092.6)" />
<use xlink:href="#f0_28" transform="matrix(12,0,0,12,138.6,1092.6)" />
<use xlink:href="#f0_2h" transform="matrix(12,0,0,12,143.4,1092.6)" />
<use xlink:href="#f0_29" transform="matrix(12,0,0,12,152.9,1092.6)" />
<use xlink:href="#f0_25" transform="matrix(12,0,0,12,171.6,1092.6)" />
<use xlink:href="#f0_2a" transform="matrix(12,0,0,12,176.3,1092.6)" />
<use xlink:href="#f0_1z" transform="matrix(12,0,0,12,185.5,1092.6)" />
<use xlink:href="#f0_28" transform="matrix(12,0,0,12,193.9,1092.6)" />
<use xlink:href="#f0_2h" transform="matrix(12,0,0,12,198.7,1092.6)" />
<use xlink:href="#f0_20" transform="matrix(12,0,0,12,207.9,1092.6)" />
<use xlink:href="#f0_21" transform="matrix(12,0,0,12,217,1092.6)" />
<use xlink:href="#f0_2f" transform="matrix(12,0,0,12,225.4,1092.6)" />
<use xlink:href="#f0_2g" transform="matrix(12,0,0,12,237.2,1092.6)" />
<use xlink:href="#f0_2j" transform="matrix(12,0,0,12,242.6,1092.6)" />
<use xlink:href="#f0_2b" transform="matrix(12,0,0,12,255.5,1092.6)" />
<use xlink:href="#f0_20" transform="matrix(12,0,0,12,269.7,1092.6)" />
<use xlink:href="#f0_25" transform="matrix(12,0,0,12,278.9,1092.6)" />
<use xlink:href="#f0_2f" transform="matrix(12,0,0,12,283.3,1092.6)" />
<use xlink:href="#f0_2g" transform="matrix(12,0,0,12,290.3,1092.6)" />
<use xlink:href="#f0_25" transform="matrix(12,0,0,12,296.1,1092.6)" />
<use xlink:href="#f0_2a" transform="matrix(12,0,0,12,300.9,1092.6)" />
<use xlink:href="#f0_1z" transform="matrix(12,0,0,12,309.7,1092.6)" />
<use xlink:href="#f0_2g" transform="matrix(12,0,0,12,317.8,1092.6)" />
<use xlink:href="#f0_2g" transform="matrix(12,0,0,12,327.6,1092.6)" />
<use xlink:href="#f0_2l" transform="matrix(12,0,0,12,333.1,1092.6)" />
<use xlink:href="#f0_2c" transform="matrix(12,0,0,12,341.6,1092.6)" />
<use xlink:href="#f0_21" transform="matrix(12,0,0,12,350.7,1092.6)" />
<use xlink:href="#f0_2f" transform="matrix(12,0,0,12,359.1,1092.6)" />
<use xlink:href="#f0_2b" transform="matrix(12,0,0,12,370.8,1092.6)" />
<use xlink:href="#f0_22" transform="matrix(12,0,0,12,380.4,1092.6)" />
<use xlink:href="#f0_25" transform="matrix(12,0,0,12,391,1092.6)" />
<use xlink:href="#f0_2a" transform="matrix(12,0,0,12,395.7,1092.6)" />
<use xlink:href="#f0_20" transform="matrix(12,0,0,12,404.5,1092.6)" />
<use xlink:href="#f0_25" transform="matrix(12,0,0,12,414.1,1092.6)" />
<use xlink:href="#f0_2i" transform="matrix(12,0,0,12,418.8,1092.6)" />
<use xlink:href="#f0_25" transform="matrix(12,0,0,12,428.3,1092.6)" />
<use xlink:href="#f0_20" transform="matrix(12,0,0,12,433.1,1092.6)" />
<use xlink:href="#f0_2h" transform="matrix(12,0,0,12,442.3,1092.6)" />
<use xlink:href="#f0_1x" transform="matrix(12,0,0,12,451.4,1092.6)" />
<use xlink:href="#f0_28" transform="matrix(12,0,0,12,459.9,1092.6)" />
<use xlink:href="#f0_i" transform="matrix(12,0,0,12,464.6,1092.6)" />
<use xlink:href="#f1_1g" transform="matrix(12,0,0,12,137.5,1113.5)" />
<use xlink:href="#f1_2b" transform="matrix(12,0,0,12,148.5,1113.5)" />
<use xlink:href="#f1_28" transform="matrix(12,0,0,12,157.7,1113.5)" />
<use xlink:href="#f1_2l" transform="matrix(12,0,0,12,162.5,1113.5)" />
<use xlink:href="#f1_2c" transform="matrix(12,0,0,12,171.6,1113.5)" />
<use xlink:href="#f0_u" transform="matrix(12,0,0,12,181.9,1113.5)" />
<use xlink:href="#f0_2f" transform="matrix(12,0,0,12,192.6,1113.5)" />
<use xlink:href="#f0_21" transform="matrix(12,0,0,12,199.5,1113.5)" />
<use xlink:href="#f0_20" transform="matrix(12,0,0,12,207.6,1113.5)" />
<use xlink:href="#f0_21" transform="matrix(12,0,0,12,216.8,1113.5)" />
<use xlink:href="#f0_2a" transform="matrix(12,0,0,12,225.2,1113.5)" />
<use xlink:href="#f0_2g" transform="matrix(12,0,0,12,234,1113.5)" />
<use xlink:href="#f0_1x" transform="matrix(12,0,0,12,239.5,1113.5)" />
<use xlink:href="#f0_2e" transform="matrix(12,0,0,12,247.5,1113.5)" />
<use xlink:href="#f0_2l" transform="matrix(12,0,0,12,254.1,1113.5)" />
<use xlink:href="#f0_g" transform="matrix(12,0,0,12,262.5,1113.5)" />
<use xlink:href="#f0_2j" transform="matrix(12,0,0,12,272.8,1113.5)" />
<use xlink:href="#f0_25" transform="matrix(12,0,0,12,286.3,1113.5)" />
<use xlink:href="#f0_2g" transform="matrix(12,0,0,12,290.7,1113.5)" />
<use xlink:href="#f0_24" transform="matrix(12,0,0,12,296.2,1113.5)" />
<use xlink:href="#f0_1x" transform="matrix(12,0,0,12,310.5,1113.5)" />
<use xlink:href="#f0_2g" transform="matrix(12,0,0,12,323.7,1113.5)" />
<use xlink:href="#f0_2h" transform="matrix(12,0,0,12,329.1,1113.5)" />
<use xlink:href="#f0_1y" transform="matrix(12,0,0,12,338.3,1113.5)" />
<use xlink:href="#f0_2h" transform="matrix(12,0,0,12,347.1,1113.5)" />
<use xlink:href="#f0_28" transform="matrix(12,0,0,12,356.6,1113.5)" />
<use xlink:href="#f0_1x" transform="matrix(12,0,0,12,361,1113.5)" />
<use xlink:href="#f0_2e" transform="matrix(12,0,0,12,369.1,1113.5)" />
<use xlink:href="#f0_1y" transform="matrix(12,0,0,12,380.8,1113.5)" />
<use xlink:href="#f0_2b" transform="matrix(12,0,0,12,389.6,1113.5)" />
<use xlink:href="#f0_20" transform="matrix(12,0,0,12,399.1,1113.5)" />
<use xlink:href="#f0_2l" transform="matrix(12,0,0,12,408.6,1113.5)" />
<use xlink:href="#f0_1x" transform="matrix(12,0,0,12,422.5,1113.5)" />
<use xlink:href="#f0_2a" transform="matrix(12,0,0,12,430.9,1113.5)" />
<use xlink:href="#f0_20" transform="matrix(12,0,0,12,439.7,1113.5)" />
<use xlink:href="#f0_29" transform="matrix(12,0,0,12,454.8,1113.5)" />
<use xlink:href="#f0_2b" transform="matrix(12,0,0,12,468.3,1113.5)" />
<use xlink:href="#f0_2h" transform="matrix(12,0,0,12,477.8,1113.5)" />
<use xlink:href="#f0_2g" transform="matrix(12,0,0,12,487,1113.5)" />
<use xlink:href="#f0_24" transform="matrix(12,0,0,12,492.5,1113.5)" />
<use xlink:href="#f0_2f" transform="matrix(12,0,0,12,506.4,1113.5)" />
<use xlink:href="#f0_2h" transform="matrix(12,0,0,12,513.4,1113.5)" />
<use xlink:href="#f0_2e" transform="matrix(12,0,0,12,522.5,1113.5)" />
<use xlink:href="#f0_2e" transform="matrix(12,0,0,12,528.8,1113.5)" />
<use xlink:href="#f0_2b" transform="matrix(12,0,0,12,535,1113.5)" />
<use xlink:href="#f0_2h" transform="matrix(12,0,0,12,544.5,1113.5)" />
<use xlink:href="#f0_2a" transform="matrix(12,0,0,12,553.7,1113.5)" />
<use xlink:href="#f0_20" transform="matrix(12,0,0,12,562.5,1113.5)" />
<use xlink:href="#f0_21" transform="matrix(12,0,0,12,571.6,1113.5)" />
<use xlink:href="#f0_20" transform="matrix(12,0,0,12,579.7,1113.5)" />
<use xlink:href="#f0_1y" transform="matrix(12,0,0,12,594.3,1113.5)" />
<use xlink:href="#f0_2l" transform="matrix(12,0,0,12,603.5,1113.5)" />
<use xlink:href="#f0_1z" transform="matrix(12,0,0,12,618,1113.5)" />
<use xlink:href="#f0_25" transform="matrix(12,0,0,12,626.5,1113.5)" />
<use xlink:href="#f0_2e" transform="matrix(12,0,0,12,630.9,1113.5)" />
<use xlink:href="#f0_1z" transform="matrix(12,0,0,12,637.1,1113.5)" />
<use xlink:href="#f0_28" transform="matrix(12,0,0,12,645.5,1113.5)" />
<use xlink:href="#f0_21" transform="matrix(12,0,0,12,650.3,1113.5)" />
<use xlink:href="#f0_2g" transform="matrix(12,0,0,12,658.3,1113.5)" />
<use xlink:href="#f0_2b" transform="matrix(12,0,0,12,669.3,1113.5)" />
<use xlink:href="#f0_22" transform="matrix(12,0,0,12,678.8,1113.5)" />
<use xlink:href="#f0_2g" transform="matrix(12,0,0,12,689.8,1113.5)" />
<use xlink:href="#f0_21" transform="matrix(12,0,0,12,695.3,1113.5)" />
<use xlink:href="#f0_2a" transform="matrix(12,0,0,12,703.3,1113.5)" />
<use xlink:href="#f0_2g" transform="matrix(12,0,0,12,712.1,1113.5)" />
<use xlink:href="#f0_1x" transform="matrix(12,0,0,12,717.6,1113.5)" />
<use xlink:href="#f0_1z" transform="matrix(12,0,0,12,725.7,1113.5)" />
<use xlink:href="#f0_28" transform="matrix(12,0,0,12,733.7,1113.5)" />
<use xlink:href="#f0_21" transform="matrix(12,0,0,12,738.1,1113.5)" />
<use xlink:href="#f0_2f" transform="matrix(12,0,0,12,746.6,1113.5)" />
<use xlink:href="#f0_i" transform="matrix(12,0,0,12,753.5,1113.5)" />
<use xlink:href="#f0_19" transform="matrix(12,0,0,12,763.8,1113.5)" />
<use xlink:href="#f0_2g" transform="matrix(12,0,0,12,769.6,1113.5)" />
<use xlink:href="#f0_2e" transform="matrix(12,0,0,12,780.2,1113.5)" />
<use xlink:href="#f0_21" transform="matrix(12,0,0,12,786.5,1113.5)" />
<use xlink:href="#f0_2c" transform="matrix(12,0,0,12,794.5,1113.5)" />
<use xlink:href="#f0_2e" transform="matrix(12,0,0,12,804,1113.5)" />
<use xlink:href="#f0_21" transform="matrix(12,0,0,12,810.2,1113.5)" />
<use xlink:href="#f0_2f" transform="matrix(12,0,0,12,818.3,1113.5)" />
<use xlink:href="#f0_21" transform="matrix(12,0,0,12,825.3,1113.5)" />
<use xlink:href="#f0_2a" transform="matrix(12,0,0,12,833.3,1113.5)" />
<use xlink:href="#f0_2g" transform="matrix(12,0,0,12,842.1,1113.5)" />
<use xlink:href="#f0_2f" transform="matrix(12,0,0,12,847.6,1113.5)" />
<use xlink:href="#f0_2g" transform="matrix(12,0,0,12,137.5,1134.4)" />
<use xlink:href="#f0_24" transform="matrix(12,0,0,12,143,1134.4)" />
<use xlink:href="#f0_21" transform="matrix(12,0,0,12,151.8,1134.4)" />
<use xlink:href="#f0_1x" transform="matrix(12,0,0,12,164.6,1134.4)" />
<use xlink:href="#f0_2f" transform="matrix(12,0,0,12,172.7,1134.4)" />
<use xlink:href="#f0_21" transform="matrix(12,0,0,12,179.7,1134.4)" />
<use xlink:href="#f0_2k" transform="matrix(12,0,0,12,187.7,1134.4)" />
<use xlink:href="#f0_2h" transform="matrix(12,0,0,12,196.5,1134.4)" />
<use xlink:href="#f0_1x" transform="matrix(12,0,0,12,206,1134.4)" />
<use xlink:href="#f0_28" transform="matrix(12,0,0,12,214.5,1134.4)" />
<use xlink:href="#f0_2f" transform="matrix(12,0,0,12,223.6,1134.4)" />
<use xlink:href="#f0_2g" transform="matrix(12,0,0,12,230.6,1134.4)" />
<use xlink:href="#f0_1x" transform="matrix(12,0,0,12,236.1,1134.4)" />
<use xlink:href="#f0_23" transform="matrix(12,0,0,12,244.1,1134.4)" />
<use xlink:href="#f0_21" transform="matrix(12,0,0,12,253.3,1134.4)" />
<use xlink:href="#f0_i" transform="matrix(12,0,0,12,261.4,1134.4)" />
<use xlink:href="#f0_15" transform="matrix(12,0,0,12,270.9,1134.4)" />
<use xlink:href="#f0_23" transform="matrix(12,0,0,12,282.2,1134.4)" />
<use xlink:href="#f0_u" transform="matrix(12,0,0,12,291.4,1134.4)" />
<use xlink:href="#f3_18" transform="matrix(12,0,0,12,301.5,1134.4)" />
<use xlink:href="#f3_2l" transform="matrix(12,0,0,12,314.7,1134.4)" />
<use xlink:href="#f3_20" transform="matrix(12,0,0,12,322.8,1134.4)" />
<use xlink:href="#f3_2e" transform="matrix(12,0,0,12,331.9,1134.4)" />
<use xlink:href="#f3_1x" transform="matrix(12,0,0,12,338.9,1134.4)" />
<use xlink:href="#f0_1x" transform="matrix(12,0,0,12,352.9,1134.4)" />
<use xlink:href="#f0_2a" transform="matrix(12,0,0,12,361,1134.4)" />
<use xlink:href="#f0_20" transform="matrix(12,0,0,12,369.8,1134.4)" />
<use xlink:href="#f3_11" transform="matrix(12,0,0,12,383.7,1134.4)" />
<use xlink:href="#f3_20" transform="matrix(12,0,0,12,395.1,1134.4)" />
<use xlink:href="#f3_1x" transform="matrix(12,0,0,12,404.2,1134.4)" />
<use xlink:href="#f3_29" transform="matrix(12,0,0,12,413.4,1134.4)" />
<use xlink:href="#f3_2f" transform="matrix(12,0,0,12,426.6,1134.4)" />
<use xlink:href="#f3_25" transform="matrix(12,0,0,12,433.6,1134.4)" />
<use xlink:href="#f3_1x" transform="matrix(12,0,0,12,438.6,1134.4)" />
<use xlink:href="#f0_i" transform="matrix(12,0,0,12,447.9,1134.4)" />
<use xlink:href="#f1_1d" transform="matrix(12,0,0,12,137.5,1155.7)" />
<use xlink:href="#f1_21" transform="matrix(12,0,0,12,155.1,1155.7)" />
<use xlink:href="#f1_20" transform="matrix(12,0,0,12,163.2,1155.7)" />
<use xlink:href="#f1_2h" transform="matrix(12,0,0,12,173.4,1155.7)" />
<use xlink:href="#f1_2f" transform="matrix(12,0,0,12,183.7,1155.7)" />
<use xlink:href="#f1_1x" transform="matrix(12,0,0,12,190.6,1155.7)" />
<use xlink:href="#f0_u" transform="matrix(12,0,0,12,199.9,1155.7)" />
<use xlink:href="#f0_22" transform="matrix(12,0,0,12,209.8,1155.7)" />
<use xlink:href="#f0_2e" transform="matrix(12,0,0,12,215.3,1155.7)" />
<use xlink:href="#f0_21" transform="matrix(12,0,0,12,221.5,1155.7)" />
<use xlink:href="#f0_21" transform="matrix(12,0,0,12,229.6,1155.7)" />
<use xlink:href="#f0_22" transform="matrix(12,0,0,12,242.8,1155.7)" />
<use xlink:href="#f0_28" transform="matrix(12,0,0,12,248.6,1155.7)" />
<use xlink:href="#f0_2b" transform="matrix(12,0,0,12,253,1155.7)" />
<use xlink:href="#f0_1x" transform="matrix(12,0,0,12,262.5,1155.7)" />
<use xlink:href="#f0_2g" transform="matrix(12,0,0,12,270.6,1155.7)" />
<use xlink:href="#f0_25" transform="matrix(12,0,0,12,276.1,1155.7)" />
<use xlink:href="#f0_2a" transform="matrix(12,0,0,12,280.9,1155.7)" />
<use xlink:href="#f0_23" transform="matrix(12,0,0,12,289.7,1155.7)" />
<use xlink:href="#f0_2j" transform="matrix(12,0,0,12,303.6,1155.7)" />
<use xlink:href="#f0_25" transform="matrix(12,0,0,12,317.1,1155.7)" />
<use xlink:href="#f0_2g" transform="matrix(12,0,0,12,321.5,1155.7)" />
<use xlink:href="#f0_24" transform="matrix(12,0,0,12,327.4,1155.7)" />
<use xlink:href="#f0_1x" transform="matrix(12,0,0,12,340.9,1155.7)" />
<use xlink:href="#f0_2f" transform="matrix(12,0,0,12,353.7,1155.7)" />
<use xlink:href="#f0_2b" transform="matrix(12,0,0,12,360.7,1155.7)" />
<use xlink:href="#f0_22" transform="matrix(12,0,0,12,370.2,1155.7)" />
<use xlink:href="#f0_2g" transform="matrix(12,0,0,12,375.7,1155.7)" />
<use xlink:href="#f0_g" transform="matrix(12,0,0,12,381.2,1155.7)" />
<use xlink:href="#f0_2g" transform="matrix(12,0,0,12,390.3,1155.7)" />
<use xlink:href="#f0_2e" transform="matrix(12,0,0,12,395.8,1155.7)" />
<use xlink:href="#f0_1x" transform="matrix(12,0,0,12,402,1155.7)" />
<use xlink:href="#f0_2a" transform="matrix(12,0,0,12,410.1,1155.7)" />
<use xlink:href="#f0_2f" transform="matrix(12,0,0,12,418.9,1155.7)" />
<use xlink:href="#f0_2c" transform="matrix(12,0,0,12,425.9,1155.7)" />
<use xlink:href="#f0_1x" transform="matrix(12,0,0,12,435,1155.7)" />
<use xlink:href="#f0_2e" transform="matrix(12,0,0,12,443.1,1155.7)" />
<use xlink:href="#f0_21" transform="matrix(12,0,0,12,449.3,1155.7)" />
<use xlink:href="#f0_2a" transform="matrix(12,0,0,12,457.4,1155.7)" />
<use xlink:href="#f0_2g" transform="matrix(12,0,0,12,466.2,1155.7)" />
<use xlink:href="#f0_1y" transform="matrix(12,0,0,12,476.4,1155.7)" />
<use xlink:href="#f0_21" transform="matrix(12,0,0,12,485.2,1155.7)" />
<use xlink:href="#f0_28" transform="matrix(12,0,0,12,493.6,1155.7)" />
<use xlink:href="#f0_28" transform="matrix(12,0,0,12,498.7,1155.7)" />
<use xlink:href="#f0_28" transform="matrix(12,0,0,12,508.3,1155.7)" />
<use xlink:href="#f0_25" transform="matrix(12,0,0,12,513.4,1155.7)" />
<use xlink:href="#f0_27" transform="matrix(12,0,0,12,518.2,1155.7)" />
<use xlink:href="#f0_21" transform="matrix(12,0,0,12,527.3,1155.7)" />
<use xlink:href="#f0_1y" transform="matrix(12,0,0,12,540.2,1155.7)" />
<use xlink:href="#f0_2b" transform="matrix(12,0,0,12,549,1155.7)" />
<use xlink:href="#f0_20" transform="matrix(12,0,0,12,558.5,1155.7)" />
<use xlink:href="#f0_2l" transform="matrix(12,0,0,12,568,1155.7)" />
<use xlink:href="#f0_2j" transform="matrix(12,0,0,12,581.2,1155.7)" />
<use xlink:href="#f0_25" transform="matrix(12,0,0,12,594.7,1155.7)" />
<use xlink:href="#f0_2g" transform="matrix(12,0,0,12,599.1,1155.7)" />
<use xlink:href="#f0_24" transform="matrix(12,0,0,12,605,1155.7)" />
<use xlink:href="#f0_2g" transform="matrix(12,0,0,12,618.5,1155.7)" />
<use xlink:href="#f0_21" transform="matrix(12,0,0,12,624,1155.7)" />
<use xlink:href="#f0_2a" transform="matrix(12,0,0,12,632.1,1155.7)" />
<use xlink:href="#f0_2g" transform="matrix(12,0,0,12,640.9,1155.7)" />
<use xlink:href="#f0_1x" transform="matrix(12,0,0,12,646.3,1155.7)" />
<use xlink:href="#f0_1z" transform="matrix(12,0,0,12,654.4,1155.7)" />
<use xlink:href="#f0_28" transform="matrix(12,0,0,12,662.8,1155.7)" />
<use xlink:href="#f0_21" transform="matrix(12,0,0,12,667.2,1155.7)" />
<use xlink:href="#f0_2f" transform="matrix(12,0,0,12,675.3,1155.7)" />
<use xlink:href="#f0_1x" transform="matrix(12,0,0,12,687,1155.7)" />
<use xlink:href="#f0_2g" transform="matrix(12,0,0,12,695.1,1155.7)" />
<use xlink:href="#f0_2g" transform="matrix(12,0,0,12,705,1155.7)" />
<use xlink:href="#f0_24" transform="matrix(12,0,0,12,710.4,1155.7)" />
<use xlink:href="#f0_21" transform="matrix(12,0,0,12,719.2,1155.7)" />
<use xlink:href="#f0_29" transform="matrix(12,0,0,12,732.4,1155.7)" />
<use xlink:href="#f0_1x" transform="matrix(12,0,0,12,746,1155.7)" />
<use xlink:href="#f0_2e" transform="matrix(12,0,0,12,754.1,1155.7)" />
<use xlink:href="#f0_23" transform="matrix(12,0,0,12,760.3,1155.7)" />
<use xlink:href="#f0_25" transform="matrix(12,0,0,12,769.8,1155.7)" />
<use xlink:href="#f0_2a" transform="matrix(12,0,0,12,774.5,1155.7)" />
<use xlink:href="#f0_i" transform="matrix(12,0,0,12,783.3,1155.7)" />
<use xlink:href="#f0_1l" transform="matrix(12,0,0,12,137.5,1176.6)" />
<use xlink:href="#f0_29" transform="matrix(12,0,0,12,151.1,1176.6)" />
<use xlink:href="#f0_1y" transform="matrix(12,0,0,12,165,1176.6)" />
<use xlink:href="#f0_2e" transform="matrix(12,0,0,12,173.8,1176.6)" />
<use xlink:href="#f0_21" transform="matrix(12,0,0,12,180,1176.6)" />
<use xlink:href="#f0_28" transform="matrix(12,0,0,12,188.4,1176.6)" />
<use xlink:href="#f0_28" transform="matrix(12,0,0,12,193.5,1176.6)" />
<use xlink:href="#f0_1x" transform="matrix(12,0,0,12,198.3,1176.6)" />
<use xlink:href="#f0_28" transform="matrix(12,0,0,12,211.5,1176.6)" />
<use xlink:href="#f0_25" transform="matrix(12,0,0,12,216.3,1176.6)" />
<use xlink:href="#f0_27" transform="matrix(12,0,0,12,221.1,1176.6)" />
<use xlink:href="#f0_21" transform="matrix(12,0,0,12,230.2,1176.6)" />
<use xlink:href="#f0_i" transform="matrix(12,0,0,12,238.3,1176.6)" />
<use xlink:href="#f0_1d" transform="matrix(12,0,0,12,137.5,1197.9)" />
<use xlink:href="#f0_2b" transform="matrix(12,0,0,12,153.7,1197.9)" />
<use xlink:href="#f0_2h" transform="matrix(12,0,0,12,163.2,1197.9)" />
<use xlink:href="#f0_2g" transform="matrix(12,0,0,12,172,1197.9)" />
<use xlink:href="#f0_24" transform="matrix(12,0,0,12,177.5,1197.9)" />
<use xlink:href="#f0_1x" transform="matrix(12,0,0,12,191,1197.9)" />
<use xlink:href="#f0_2g" transform="matrix(12,0,0,12,199.1,1197.9)" />
<use xlink:href="#f0_2g" transform="matrix(12,0,0,12,208.6,1197.9)" />
<use xlink:href="#f0_24" transform="matrix(12,0,0,12,214.1,1197.9)" />
<use xlink:href="#f0_21" transform="matrix(12,0,0,12,222.9,1197.9)" />
<use xlink:href="#f0_1z" transform="matrix(12,0,0,12,235.7,1197.9)" />
<use xlink:href="#f0_21" transform="matrix(12,0,0,12,243.8,1197.9)" />
<use xlink:href="#f0_2a" transform="matrix(12,0,0,12,251.8,1197.9)" />
<use xlink:href="#f0_2g" transform="matrix(12,0,0,12,260.6,1197.9)" />
<use xlink:href="#f0_2e" transform="matrix(12,0,0,12,266.1,1197.9)" />
<use xlink:href="#f0_21" transform="matrix(12,0,0,12,272.3,1197.9)" />
<use xlink:href="#f0_2b" transform="matrix(12,0,0,12,285.2,1197.9)" />
<use xlink:href="#f0_22" transform="matrix(12,0,0,12,294.7,1197.9)" />
<use xlink:href="#f0_1z" transform="matrix(12,0,0,12,304.9,1197.9)" />
<use xlink:href="#f0_2b" transform="matrix(12,0,0,12,313,1197.9)" />
<use xlink:href="#f0_2a" transform="matrix(12,0,0,12,322.5,1197.9)" />
<use xlink:href="#f0_1z" transform="matrix(12,0,0,12,331.3,1197.9)" />
<use xlink:href="#f0_1x" transform="matrix(12,0,0,12,339.4,1197.9)" />
<use xlink:href="#f0_2i" transform="matrix(12,0,0,12,347.4,1197.9)" />
<use xlink:href="#f0_21" transform="matrix(12,0,0,12,356.2,1197.9)" />
<use xlink:href="#f0_2f" transform="matrix(12,0,0,12,369,1197.9)" />
<use xlink:href="#f0_2h" transform="matrix(12,0,0,12,376,1197.9)" />
<use xlink:href="#f0_2e" transform="matrix(12,0,0,12,385.2,1197.9)" />
<use xlink:href="#f0_22" transform="matrix(12,0,0,12,391.8,1197.9)" />
<use xlink:href="#f0_1x" transform="matrix(12,0,0,12,397.6,1197.9)" />
<use xlink:href="#f0_1z" transform="matrix(12,0,0,12,405.7,1197.9)" />
<use xlink:href="#f0_21" transform="matrix(12,0,0,12,413.8,1197.9)" />
<use xlink:href="#f0_2j" transform="matrix(12,0,0,12,426.6,1197.9)" />
<use xlink:href="#f0_24" transform="matrix(12,0,0,12,440.6,1197.9)" />
<use xlink:href="#f0_25" transform="matrix(12,0,0,12,449.7,1197.9)" />
<use xlink:href="#f0_1z" transform="matrix(12,0,0,12,454.5,1197.9)" />
<use xlink:href="#f0_24" transform="matrix(12,0,0,12,462.9,1197.9)" />
<use xlink:href="#f0_25" transform="matrix(12,0,0,12,476.8,1197.9)" />
<use xlink:href="#f0_2f" transform="matrix(12,0,0,12,481.6,1197.9)" />
<use xlink:href="#f0_20" transform="matrix(12,0,0,12,493.3,1197.9)" />
<use xlink:href="#f0_25" transform="matrix(12,0,0,12,502.8,1197.9)" />
<use xlink:href="#f0_2e" transform="matrix(12,0,0,12,507.6,1197.9)" />
<use xlink:href="#f0_21" transform="matrix(12,0,0,12,513.8,1197.9)" />
<use xlink:href="#f0_1z" transform="matrix(12,0,0,12,521.9,1197.9)" />
<use xlink:href="#f0_2g" transform="matrix(12,0,0,12,529.9,1197.9)" />
<use xlink:href="#f0_21" transform="matrix(12,0,0,12,535.4,1197.9)" />
<use xlink:href="#f0_20" transform="matrix(12,0,0,12,543.5,1197.9)" />
<use xlink:href="#f0_20" transform="matrix(12,0,0,12,557.4,1197.9)" />
<use xlink:href="#f0_2b" transform="matrix(12,0,0,12,566.2,1197.9)" />
<use xlink:href="#f0_2j" transform="matrix(12,0,0,12,575.7,1197.9)" />
<use xlink:href="#f0_2a" transform="matrix(12,0,0,12,588.9,1197.9)" />
<use xlink:href="#f0_2j" transform="matrix(12,0,0,12,597.7,1197.9)" />
<use xlink:href="#f0_1x" transform="matrix(12,0,0,12,610.9,1197.9)" />
<use xlink:href="#f0_2e" transform="matrix(12,0,0,12,619,1197.9)" />
<use xlink:href="#f0_20" transform="matrix(12,0,0,12,625.2,1197.9)" />
<use xlink:href="#f0_i" transform="matrix(12,0,0,12,634.4,1197.9)" />
<use xlink:href="#f0_19" transform="matrix(12,0,0,12,142.3,1218.8)" />
<use xlink:href="#f0_2g" transform="matrix(12,0,0,12,148.2,1218.8)" />
<use xlink:href="#f0_2e" transform="matrix(12,0,0,12,158.1,1218.8)" />
<use xlink:href="#f0_21" transform="matrix(12,0,0,12,164.3,1218.8)" />
<use xlink:href="#f0_2c" transform="matrix(12,0,0,12,172.4,1218.8)" />
<use xlink:href="#f0_2e" transform="matrix(12,0,0,12,181.5,1218.8)" />
<use xlink:href="#f0_21" transform="matrix(12,0,0,12,187.8,1218.8)" />
<use xlink:href="#f0_2f" transform="matrix(12,0,0,12,195.8,1218.8)" />
<use xlink:href="#f0_21" transform="matrix(12,0,0,12,202.8,1218.8)" />
<use xlink:href="#f0_2a" transform="matrix(12,0,0,12,210.9,1218.8)" />
<use xlink:href="#f0_2g" transform="matrix(12,0,0,12,219.7,1218.8)" />
<use xlink:href="#f0_2f" transform="matrix(12,0,0,12,225.1,1218.8)" />
<use xlink:href="#f0_2g" transform="matrix(12,0,0,12,236.8,1218.8)" />
<use xlink:href="#f0_24" transform="matrix(12,0,0,12,242.3,1218.8)" />
<use xlink:href="#f0_21" transform="matrix(12,0,0,12,251.1,1218.8)" />
<use xlink:href="#f0_2f" transform="matrix(12,0,0,12,263.9,1218.8)" />
<use xlink:href="#f0_21" transform="matrix(12,0,0,12,270.9,1218.8)" />
<use xlink:href="#f0_2k" transform="matrix(12,0,0,12,279,1218.8)" />
<use xlink:href="#f0_2h" transform="matrix(12,0,0,12,287.8,1218.8)" />
<use xlink:href="#f0_1x" transform="matrix(12,0,0,12,296.9,1218.8)" />
<use xlink:href="#f0_28" transform="matrix(12,0,0,12,305.4,1218.8)" />
<use xlink:href="#f0_2f" transform="matrix(12,0,0,12,314.9,1218.8)" />
<use xlink:href="#f0_2g" transform="matrix(12,0,0,12,321.8,1218.8)" />
<use xlink:href="#f0_1x" transform="matrix(12,0,0,12,327.3,1218.8)" />
<use xlink:href="#f0_23" transform="matrix(12,0,0,12,335.4,1218.8)" />
<use xlink:href="#f0_21" transform="matrix(12,0,0,12,344.6,1218.8)" />
<use xlink:href="#f0_i" transform="matrix(12,0,0,12,352.6,1218.8)" />
<use xlink:href="#f4_s" transform="matrix(8,0,0,8,792.5,1264.1)" />
</g>
<defs>
<path d="M577,-14c0,0,-243,0,-379,132C198,118,63,250,63,488c0,0,0,258,130,391c0,0,131,132,387,132c0,0,156,0,335,-38l5,-218H871L848,884c0,0,-52,32,-121,50c0,0,-69,17,-141,17c0,0,-191,0,-279,-112c0,0,-88,-113,-88,-349c0,0,0,-217,92,-332c0,0,92,-115,268,-115c0,0,85,0,160,20c0,0,76,21,120,55l27,149h49L930,32c0,0,-164,-46,-353,-46Z" 
id="f0_13"
transform="scale(0.001,-0.001)" />

<path d="M377,45c0,0,99,0,147,73c0,0,47,73,47,237c0,0,0,161,-47,233c0,0,-47,72,-147,72c0,0,-97,0,-141,-69c0,0,-44,-69,-44,-236c0,0,0,-169,45,-240c0,0,44,-70,140,-70Zm0,-59c0,0,-158,0,-238,94c0,0,-81,95,-81,274c0,0,0,178,81,272c0,0,80,94,244,94c0,0,160,0,241,-92c0,0,82,-92,82,-274c0,0,0,-368,-329,-368Z" 
id="f0_2b"
transform="scale(0.001,-0.001)" />

<path d="M495,413c0,0,0,133,-34,190c0,0,-34,57,-105,57c0,0,-78,0,-119,-63c0,0,-42,-62,-42,-184ZM374,-14c0,0,-163,0,-239,87c0,0,-75,88,-75,283c0,0,0,183,77,273c0,0,76,91,219,91c0,0,269,0,269,-306V353H194V340c0,0,0,-103,23,-160c0,0,22,-57,70,-87c0,0,47,-29,124,-29c0,0,40,0,96,6c0,0,55,7,91,15V43C598,43,562,20,500,3c0,0,-61,-17,-126,-17Z" 
id="f0_21"
transform="scale(0.001,-0.001)" />

<path d="M31,0V33L150,52v956L31,1026v34H274V52L394,33V0Z" 
id="f0_28"
transform="scale(0.001,-0.001)" />

<path d="M439,0V33l93,19V500c0,0,0,62,-30,97c0,0,-31,36,-94,36c0,0,-67,0,-165,-22V52L338,33V0H35V33l84,19V649L35,668v33H235l7,-57c0,0,57,33,122,54c0,0,65,22,108,22c0,0,91,0,137,-53c0,0,47,-53,47,-154V52L741,33V0Z" 
id="f0_2a"
transform="scale(0.001,-0.001)" />

<path d="M249,-14c0,0,-71,0,-107,42c0,0,-35,42,-35,119V639H15v33l93,29l76,159h47V701H391V639H231V161c0,0,0,-48,22,-73c0,0,22,-24,57,-24c0,0,44,0,106,12V26C416,26,389,8,340,-2c0,0,-49,-12,-91,-12Z" 
id="f0_2g"
transform="scale(0.001,-0.001)" />

<path d="M31,0V33l88,19V649L31,668v33H235l7,-87c0,0,44,37,121,71c0,0,76,35,121,35h11V530H463l-43,82c0,0,-37,0,-88,-10c0,0,-52,-10,-89,-26V52L363,33V0Z" 
id="f0_2e"
transform="scale(0.001,-0.001)" />

<path d="M284,67c0,0,51,0,88,12c0,0,37,12,74,30V358l-98,-3c0,0,-100,-4,-135,-39c0,0,-35,-35,-35,-117c0,0,0,-132,106,-132ZM233,-14c0,0,-179,0,-179,208c0,0,0,70,27,116c0,0,27,46,87,70c0,0,60,24,173,27l105,3V519c0,0,0,72,-26,107c0,0,-27,34,-82,34c0,0,-75,0,-137,-35L176,538H134V691c0,0,121,26,213,26c0,0,115,0,169,-47c0,0,54,-47,54,-144V52L657,33V0H465L451,70c0,0,-85,-84,-218,-84Z" 
id="f0_1x"
transform="scale(0.001,-0.001)" />

<path d="M278,-14c0,0,-52,0,-115,11c0,0,-63,10,-99,23V193H98L134,95c0,0,56,-50,146,-50c0,0,144,0,144,123c0,0,0,91,-114,130l-66,21c0,0,-75,25,-110,50c0,0,-34,26,-53,63c0,0,-18,36,-18,89c0,0,0,92,63,145c0,0,63,54,170,54c0,0,77,0,193,-23V544H454l-32,81c0,0,-39,35,-124,35c0,0,-61,0,-92,-30c0,0,-32,-30,-32,-80c0,0,0,-43,29,-72c0,0,28,-29,86,-48c0,0,110,-38,144,-55c0,0,33,-17,57,-42c0,0,23,-25,36,-57c0,0,13,-32,13,-79c0,0,0,-104,-66,-158c0,0,-66,-53,-195,-53Z" 
id="f0_2f"
transform="scale(0.001,-0.001)" />

<path d="M41,0V49l69,18V992l-72,18v50H325V756c0,0,0,-49,-4,-116l51,26c0,0,106,54,190,54c0,0,194,0,194,-207V67L827,49V0H478V49l63,18V484c0,0,0,63,-27,98c0,0,-26,35,-75,35c0,0,-57,0,-114,-25V67L389,49V0Z" 
id="f1_24"
transform="scale(0.001,-0.001)" />

<path d="M379,60c0,0,59,0,84,64c0,0,24,65,24,231c0,0,0,164,-24,227c0,0,-24,63,-84,63c0,0,-57,0,-80,-60c0,0,-22,-61,-22,-230c0,0,0,-173,23,-234c0,0,22,-61,79,-61Zm-2,-74c0,0,-161,0,-240,91c0,0,-79,91,-79,277c0,0,0,186,80,276c0,0,81,90,245,90c0,0,167,0,245,-93c0,0,78,-93,78,-273c0,0,0,-188,-81,-278c0,0,-81,-90,-248,-90Z" 
id="f1_2b"
transform="scale(0.001,-0.001)" />

<path d="M30,0V49l76,18V992l-72,18v50H322V67L398,49V0Z" 
id="f1_28"
transform="scale(0.001,-0.001)" />

<path d="M30,0V34L352,634H272c0,0,-41,0,-80,-7c0,0,-39,-8,-54,-19L115,492H61V701H606V664L283,67H395c0,0,43,0,90,11c0,0,47,10,66,24l40,162h54L624,0Z" 
id="f1_2m"
transform="scale(0.001,-0.001)" />

<path d="M34,0V49l76,18V634L38,652v49H325V67L402,49V0ZM217,831c0,0,-48,0,-81,33c0,0,-34,33,-34,82c0,0,0,48,34,81c0,0,34,33,81,33c0,0,48,0,81,-33c0,0,33,-33,33,-81c0,0,0,-47,-33,-81c0,0,-32,-34,-81,-34Z" 
id="f1_25"
transform="scale(0.001,-0.001)" />

<path d="M425,-14c0,0,-187,0,-280,90c0,0,-93,90,-93,276c0,0,0,115,42,198c0,0,43,82,121,126c0,0,78,44,182,44c0,0,104,0,227,-26V486H571L539,609c0,0,-25,19,-50,26c0,0,-24,7,-65,7c0,0,-44,0,-79,-35c0,0,-36,-35,-56,-98c0,0,-20,-64,-20,-153c0,0,0,-150,47,-214c0,0,47,-64,148,-64c0,0,103,0,176,21V42C640,42,606,15,547,0c0,0,-59,-14,-122,-14Z" 
id="f1_1z"
transform="scale(0.001,-0.001)" />

<path d="M383,64c0,0,85,0,152,28V645c0,0,-67,13,-152,13c0,0,-194,0,-194,-314c0,0,0,-141,48,-211c0,0,48,-69,146,-69ZM342,-14c0,0,-287,0,-287,358c0,0,0,184,82,280c0,0,81,96,239,96c0,0,81,0,163,-18c0,0,-4,25,-4,124v182l-118,18v34H659V52L745,33V0H548l-9,52c0,0,-84,-66,-197,-66Z" 
id="f0_20"
transform="scale(0.001,-0.001)" />

<path d="M345,75c0,0,50,0,110,26V351l-63,-2c0,0,-72,-3,-100,-38c0,0,-28,-35,-28,-113c0,0,0,-63,22,-93c0,0,23,-30,59,-30ZM266,-14c0,0,-217,0,-217,208c0,0,0,79,32,126c0,0,32,48,93,71c0,0,60,22,190,25l91,2V521c0,0,0,126,-104,126c0,0,-62,0,-140,-39L183,521H134V691c0,0,112,17,165,21c0,0,53,5,108,5c0,0,264,0,264,-194V67L741,49V0H483L466,54C466,54,408,14,361,0c0,0,-47,-14,-95,-14Z" 
id="f1_1x"
transform="scale(0.001,-0.001)" />

<path d="M41,0V49l91,18V634L41,652v49H336l8,-145c0,0,80,89,144,128c0,0,64,40,117,40h40V468H604l-45,94c0,0,-47,0,-106,-21c0,0,-60,-20,-105,-48V67L460,49V0Z" 
id="f1_2e"
transform="scale(0.001,-0.001)" />

<path d="M41,0V49l69,18V634L41,652v49H313l11,-61l50,26c0,0,105,54,188,54c0,0,194,0,194,-207V67L827,49V0H478V49l63,18V484c0,0,0,63,-27,98c0,0,-26,35,-75,35c0,0,-57,0,-114,-25V67L389,49V0Z" 
id="f1_2a"
transform="scale(0.001,-0.001)" />

<path d="M342,-14L49,634L0,652v49H359V652L275,632L455,233L617,634l-82,18v49H764V652L713,637L433,-14Z" 
id="f1_2i"
transform="scale(0.001,-0.001)" />

<path d="M287,-18c0,0,-194,0,-194,206V634L23,652v49H309V217c0,0,0,-63,26,-98c0,0,27,-35,76,-35c0,0,57,0,113,25V634l-64,18v49H740V67L809,49V0H536L526,61L475,35c0,0,-104,-53,-188,-53Z" 
id="f1_2h"
transform="scale(0.001,-0.001)" />

<path d="M276,-14c0,0,-57,0,-125,13C151,-1,83,10,48,23V214H97l28,-98c0,0,26,-26,69,-44c0,0,42,-17,86,-17c0,0,65,0,97,28c0,0,32,28,32,71c0,0,0,41,-31,65c0,0,-30,25,-133,57c0,0,-108,34,-154,92c0,0,-45,58,-45,143c0,0,0,95,71,152c0,0,71,57,183,57c0,0,77,0,207,-22V518H457l-24,82c0,0,-21,22,-60,35c0,0,-40,14,-75,14c0,0,-53,0,-79,-22c0,0,-26,-22,-26,-59c0,0,0,-40,32,-65c0,0,32,-26,132,-55c0,0,109,-34,155,-89c0,0,45,-55,45,-137c0,0,0,-117,-72,-177c0,0,-72,-59,-209,-59Z" 
id="f1_2f"
transform="scale(0.001,-0.001)" />

<path d="M32,0V33L151,52V649L52,668v33H275V52L395,33V0ZM201,850c0,0,-32,0,-56,24c0,0,-24,24,-24,56c0,0,0,34,24,58c0,0,24,24,56,24c0,0,34,0,58,-24c0,0,24,-24,24,-58c0,0,0,-32,-24,-56c0,0,-24,-24,-58,-24Z" 
id="f0_25"
transform="scale(0.001,-0.001)" />

<path d="M289,-14c0,0,-179,0,-179,205V649L20,668v33H233V200c0,0,0,-128,120,-128c0,0,92,0,173,23V649L420,668v33H649V52L738,33V0H533l-6,57C527,57,474,28,405,7c0,0,-69,-21,-116,-21Z" 
id="f0_2h"
transform="scale(0.001,-0.001)" />

<path d="M191,-20c0,0,-39,0,-65,25c0,0,-25,27,-25,64c0,0,0,38,26,64c0,0,26,26,64,26c0,0,38,0,64,-26c0,0,26,-26,26,-64c0,0,0,-37,-25,-64c0,0,-26,-25,-65,-25Z" 
id="f0_i"
transform="scale(0.001,-0.001)" />

<path d="M273,157c0,0,-114,0,-193,80C80,237,0,317,0,431c0,0,0,112,80,192c0,0,79,80,193,80c0,0,113,0,192,-80c0,0,80,-80,80,-192c0,0,0,-114,-80,-194c0,0,-79,-80,-192,-80Z" 
id="f2_3d"
transform="scale(0.001,-0.001)" />

<path d="M519,79c0,0,97,0,153,42c0,0,57,42,83,131c0,0,26,89,26,248c0,0,0,216,-79,317c0,0,-79,101,-257,101H389V85c0,0,72,-6,130,-6ZM533,-2L198,0H27V54L155,74V926L27,945v55H502c0,0,269,0,398,-122c0,0,129,-122,129,-372c0,0,0,-258,-123,-383C906,123,783,-2,533,-2Z" 
id="f1_14"
transform="scale(0.001,-0.001)" />

<path d="M360,-256c0,0,108,0,167,35c0,0,59,35,59,98c0,0,0,70,-95,70H254c0,0,-65,-47,-65,-108c0,0,0,-47,46,-71c0,0,45,-24,125,-24Zm9,561c0,0,55,0,79,43c0,0,25,43,25,129c0,0,0,87,-24,127c0,0,-25,41,-80,41c0,0,-52,0,-75,-41c0,0,-24,-40,-24,-127c0,0,0,-86,23,-129c0,0,23,-43,76,-43Zm-9,-641c0,0,-153,0,-236,43c0,0,-84,44,-84,120c0,0,0,33,28,65c0,0,27,31,105,76c0,0,-44,17,-75,59c0,0,-31,43,-31,90L192,258c0,0,-133,56,-133,219c0,0,0,116,81,180c0,0,82,63,233,63c0,0,32,0,82,-6c0,0,51,-6,74,-13l168,83l26,-32L638,631c0,0,46,-57,46,-154c0,0,0,-119,-80,-182c0,0,-80,-64,-234,-64c0,0,-59,0,-114,9L238,183c0,0,1,-22,28,-41c0,0,26,-19,64,-19H493c0,0,256,0,256,-196c0,0,0,-81,-44,-139c0,0,-45,-59,-131,-92c0,0,-86,-32,-214,-32Z" 
id="f1_23"
transform="scale(0.001,-0.001)" />

<path d="M434,423c0,0,0,101,-7,142c0,0,-6,40,-22,60c0,0,-16,19,-45,19c0,0,-44,0,-66,-48c0,0,-22,-49,-22,-173ZM389,-14c0,0,-172,0,-254,89c0,0,-83,90,-83,279c0,0,0,184,79,274c0,0,79,91,238,91c0,0,142,0,206,-76c0,0,64,-76,64,-237V345H271V333c0,0,0,-111,18,-158c0,0,18,-47,58,-72c0,0,40,-25,110,-25c0,0,66,0,166,22V42C623,42,582,18,517,1c0,0,-66,-15,-128,-15Z" 
id="f1_21"
transform="scale(0.001,-0.001)" />

<path d="M327,-14c0,0,-101,0,-156,45c0,0,-55,45,-55,131V624H25v48l108,29l87,159H332V701H480V624H332V176c0,0,0,-49,20,-73c0,0,20,-25,53,-25c0,0,40,0,97,12V26c0,0,-22,-15,-76,-27c0,0,-55,-13,-99,-13Z" 
id="f1_2g"
transform="scale(0.001,-0.001)" />

<path d="M211,-20c0,0,-39,0,-64,25c0,0,-26,27,-26,64c0,0,0,38,26,64c0,0,26,26,64,26c0,0,37,0,64,-25c0,0,26,-26,26,-65c0,0,0,-37,-26,-64c0,0,-26,-25,-64,-25Zm0,556c0,0,-38,0,-64,26c0,0,-26,26,-26,64c0,0,0,37,26,64c0,0,25,27,64,27c0,0,38,0,64,-27c0,0,26,-27,26,-64c0,0,0,-38,-26,-64c0,0,-27,-26,-64,-26Z" 
id="f0_u"
transform="scale(0.001,-0.001)" />

<path d="M399,-14c0,0,-341,0,-341,370c0,0,0,175,87,269c0,0,87,95,249,95c0,0,101,0,220,-23V501H573L541,625c0,0,-62,35,-149,35c0,0,-200,0,-200,-304c0,0,0,-158,61,-225c0,0,61,-67,189,-67c0,0,109,0,189,24V43C631,43,595,16,530,1c0,0,-64,-15,-131,-15Z" 
id="f0_1z"
transform="scale(0.001,-0.001)" />

<path d="M13,0V34L95,46L325,350L122,649L40,668v33H357V668L264,648L399,446L554,649l-96,19v33H710V668L630,652L433,397L663,50L745,34V0H427V34l94,17L359,299L169,50L266,34V0Z" 
id="f0_2k"
transform="scale(0.001,-0.001)" />

<path d="M617,0L251,860V60L385,40V0H44V40L172,60V941L44,960v40H347L672,239l355,761h287V960L1185,941V60L1314,40V0H908V40l134,20V859L643,0Z" 
id="f0_1d"
transform="scale(0.001,-0.001)" />

<path d="M442,0V33l93,19V504c0,0,0,129,-124,129c0,0,-70,0,-168,-22V52L338,33V0H31V33l88,19v956L15,1026v34H243V756c0,0,0,-77,-5,-112c0,0,54,31,122,53c0,0,68,23,115,23c0,0,91,0,137,-53c0,0,47,-53,47,-154V52L744,33V0Z" 
id="f0_24"
transform="scale(0.001,-0.001)" />

<path d="M376,50c0,0,103,0,149,80c0,0,46,81,46,240c0,0,0,137,-47,204c0,0,-48,67,-148,67c0,0,-44,0,-87,-7c0,0,-44,-8,-63,-17V62c0,0,63,-12,150,-12Zm3,-64c0,0,-64,0,-141,14c0,0,-78,14,-136,37v971L0,1026v34H226V809c0,0,0,-40,-4,-148c0,0,74,59,188,59c0,0,143,0,219,-87c0,0,77,-87,77,-263c0,0,0,-189,-84,-287c0,0,-84,-97,-243,-97Z" 
id="f0_1y"
transform="scale(0.001,-0.001)" />

<path d="M148,-329c0,0,-58,0,-114,13v151H69l24,-71c0,0,23,-17,64,-17c0,0,39,0,72,22c0,0,33,23,60,67c0,0,27,44,68,157L90,649L19,668v33H344V668L233,648L423,158L606,649L497,668v33H758V668L685,652L411,-43c0,0,-48,-124,-84,-177c0,0,-36,-54,-79,-82c0,0,-44,-27,-100,-27Z" 
id="f0_2l"
transform="scale(0.001,-0.001)" />

<path d="M431,0V33L535,52V499c0,0,0,62,-32,96c0,0,-32,33,-95,33c0,0,-66,0,-163,-22V52L350,33V0H32V33l89,19V649L32,668v33H237l6,-57c0,0,56,32,119,54c0,0,62,22,110,22c0,0,52,0,95,-20c0,0,44,-19,66,-62c0,0,57,32,134,57c0,0,77,25,128,25c0,0,179,0,179,-207V52l90,-19V0H846V33L950,52V499c0,0,0,129,-119,129c0,0,-19,0,-45,-3c0,0,-26,-3,-52,-7c0,0,-25,-4,-49,-8c0,0,-23,-5,-39,-8c0,0,13,-41,13,-89V52L764,33V0Z" 
id="f0_29"
transform="scale(0.001,-0.001)" />

<path d="M64,0V34L168,59V639H47v36l121,29v49c0,0,0,155,61,239c0,0,62,84,173,84c0,0,58,0,107,-15V908H472l-33,92c0,0,-26,16,-62,16c0,0,-47,0,-66,-42c0,0,-19,-42,-19,-157V701H478V639H292V59L443,34V0Z" 
id="f0_22"
transform="scale(0.001,-0.001)" />

<path d="M359,-270c0,0,124,0,192,46c0,0,67,47,67,129c0,0,0,43,-26,67c0,0,-26,24,-79,24H242c0,0,-32,-27,-51,-69c0,0,-20,-41,-20,-77c0,0,0,-64,46,-92c0,0,46,-28,142,-28Zm11,561c0,0,81,0,115,47c0,0,34,47,34,141c0,0,0,100,-35,142c0,0,-35,42,-113,42c0,0,-78,0,-114,-43c0,0,-37,-42,-37,-141c0,0,0,-98,36,-143c0,0,36,-45,114,-45ZM359,-329c0,0,-143,0,-218,44c0,0,-75,43,-75,125c0,0,0,39,27,78c0,0,26,38,98,89c0,0,-43,14,-72,48c0,0,-29,35,-29,74L208,262c0,0,-118,55,-118,217c0,0,0,115,73,178c0,0,73,63,211,63c0,0,28,0,71,-6c0,0,44,-6,67,-13l165,83l26,-32L599,644c0,0,50,-56,50,-165c0,0,0,-120,-72,-182c0,0,-73,-62,-208,-62c0,0,-62,0,-114,11L208,148c0,0,2,-13,29,-24c0,0,27,-12,67,-12H512c0,0,113,0,168,-49c0,0,55,-49,55,-134c0,0,0,-79,-44,-137c0,0,-43,-58,-128,-90c0,0,-84,-31,-204,-31Z" 
id="f0_23"
transform="scale(0.001,-0.001)" />

<path d="M477,0V33l64,19L348,354L257,254V52L331,33V0H44V33l89,19v956L29,1026v34H257V338L544,647l-73,20v34H718V667L631,650L431,446L688,50L764,33V0Z" 
id="f0_27"
transform="scale(0.001,-0.001)" />

<path d="M55,0V40L184,60V941L55,960v40H455V960L327,941V60L455,40V0Z" 
id="f0_19"
transform="scale(0.001,-0.001)" />

<path d="M382,45c0,0,188,0,188,314c0,0,0,143,-47,213c0,0,-46,69,-141,69c0,0,-87,0,-146,-24V58c0,0,67,-13,146,-13ZM25,-325v35l88,18V649L34,668v33H231l1,-41c0,0,31,27,84,43c0,0,53,17,107,17c0,0,134,0,208,-94c0,0,73,-93,73,-267c0,0,0,-178,-80,-276c0,0,-80,-97,-232,-97c0,0,-84,0,-160,16c0,0,4,-53,4,-84V-272l123,-18v-35Z" 
id="f0_2c"
transform="scale(0.001,-0.001)" />

<path d="M608,-14c0,0,-251,0,-392,133C216,119,75,252,75,488c0,0,0,257,134,390c0,0,135,133,398,133c0,0,174,0,361,-50l4,-240H905L884,866c0,0,-98,67,-229,67c0,0,-173,0,-253,-108c0,0,-80,-108,-80,-334c0,0,0,-209,84,-319c0,0,83,-109,243,-109c0,0,84,0,147,22c0,0,63,22,99,53l24,164h68L982,48C982,48,915,22,808,4C808,4,700,-14,608,-14Z" 
id="f1_13"
transform="scale(0.001,-0.001)" />

<path d="M416,68c0,0,60,0,124,32V628c0,0,-58,15,-118,15c0,0,-67,0,-104,-73c0,0,-38,-73,-38,-216c0,0,0,-139,36,-212c0,0,35,-74,100,-74ZM369,-14c0,0,-155,0,-231,88c0,0,-76,90,-76,274c0,0,0,182,82,277c0,0,81,95,236,95c0,0,82,0,165,-20c0,0,-5,24,-5,115V992l-72,18v50H756V67L833,49V0H562L547,40C547,40,505,13,483,4c0,0,-23,-7,-51,-12c0,0,-28,-6,-63,-6Z" 
id="f1_20"
transform="scale(0.001,-0.001)" />

<path d="M424,64c0,0,74,0,109,71c0,0,36,72,36,236c0,0,0,137,-34,201c0,0,-34,65,-111,65c0,0,-29,0,-62,-7c0,0,-34,-6,-55,-19V76c0,0,47,-12,117,-12Zm21,-78c0,0,-121,0,-354,50V994l-72,18v48H307V802c0,0,0,-69,-8,-141c0,0,30,25,86,42c0,0,57,17,110,17c0,0,153,0,223,-84c0,0,70,-83,70,-266c0,0,0,-180,-90,-283C698,87,608,-14,445,-14Z" 
id="f1_1y"
transform="scale(0.001,-0.001)" />

<path d="M58,-234v58c0,0,131,42,131,125c0,0,0,15,-11,27c0,0,-11,12,-38,25C140,1,89,27,89,75c0,0,0,40,25,61c0,0,26,21,65,21c0,0,48,0,77,-34c0,0,30,-34,30,-86c0,0,0,-101,-60,-170c0,0,-59,-69,-168,-101Z" 
id="f0_g"
transform="scale(0.001,-0.001)" />

<path d="M44,0V40L172,60V941L44,960v40H794V760H745L721,922c0,0,-83,11,-241,11H316V543H586l23,119h48V354H609L586,475H316V67H513c0,0,193,0,252,12l43,185h49L843,0Z" 
id="f0_15"
transform="scale(0.001,-0.001)" />

<path d="M41,0V49l69,18V634L41,652v49H313l11,-61l50,26c0,0,105,54,188,54c0,0,125,0,167,-91c0,0,153,91,258,91c0,0,189,0,189,-207V67l71,-17V0H898V50l63,17V484c0,0,0,63,-24,98c0,0,-25,35,-74,35c0,0,-55,0,-119,-31c0,0,7,-32,7,-73V67L821,50V0H473V50l63,17V484c0,0,0,63,-25,98c0,0,-24,35,-73,35c0,0,-49,0,-113,-29V67L389,49V0Z" 
id="f1_29"
transform="scale(0.001,-0.001)" />

<path d="M159,-329c0,0,-61,0,-123,14v180H81l32,-94c0,0,21,-17,55,-17c0,0,28,0,50,13c0,0,21,14,40,39c0,0,20,25,37,62c0,0,17,37,50,110L64,634L15,652v49H374V652L290,632L455,244L602,634l-82,18v49H749V652L698,637L421,-44c0,0,-47,-121,-83,-176c0,0,-36,-55,-80,-82c0,0,-43,-27,-99,-27Z" 
id="f1_2l"
transform="scale(0.001,-0.001)" />

<path d="M360,-14L72,649L0,668v33H327V668L216,648L420,164L615,649L504,668v33H764V668L697,652L416,-14Z" 
id="f0_2i"
transform="scale(0.001,-0.001)" />

<path d="M235,0V40L394,60V936H356c0,0,-189,0,-258,-15L78,766H28v234H908V766H857L837,921c0,0,-22,5,-98,9c0,0,-75,4,-165,4H538V60L697,40V0Z" 
id="f0_1k"
transform="scale(0.001,-0.001)" />

<path d="M457,460c0,0,289,0,289,266c0,0,0,106,-54,157c0,0,-54,50,-163,50H419L335,460ZM-7,0L0,40L120,60L276,941L151,960l7,40H559c0,0,161,0,248,-67c0,0,87,-66,87,-198c0,0,0,-167,-109,-255c0,0,-109,-88,-312,-88H323L264,60L427,40L420,0Z" 
id="f3_1g"
transform="scale(0.001,-0.001)" />

<path d="M55,0L232,1008l-88,18l6,34H365L286,615L274,558c0,0,59,79,128,120c0,0,68,42,134,42c0,0,75,0,113,-41c0,0,38,-41,38,-117c0,0,0,-10,-3,-32c0,0,-3,-21,-81,-478L700,34L695,0H470l76,434c0,0,17,94,17,123c0,0,0,34,-18,55c0,0,-18,21,-56,21c0,0,-56,0,-121,-47c0,0,-65,-47,-107,-114L178,0Z" 
id="f3_24"
transform="scale(0.001,-0.001)" />

<path d="M-15,-329c0,0,-61,0,-112,13l28,152h34l12,-72c0,0,18,-17,60,-17c0,0,100,0,212,202L253,9L116,649L33,668l6,33H230L338,155L513,458c0,0,48,83,48,144c0,0,0,27,-16,44c0,0,-15,16,-33,22l6,33H659c0,0,20,-17,20,-47c0,0,0,-59,-62,-164L322,-7c0,0,-86,-145,-135,-205c0,0,-50,-61,-98,-89c0,0,-49,-28,-104,-28Z" 
id="f3_2l"
transform="scale(0.001,-0.001)" />

<path d="M228,-14c0,0,-103,0,-209,46L49,200H83L95,99c0,0,20,-21,55,-38c0,0,36,-16,81,-16c0,0,163,0,163,133c0,0,0,44,-35,78c0,0,-34,34,-113,72c0,0,-75,37,-112,81c0,0,-36,45,-36,104c0,0,0,99,66,153c0,0,67,54,184,54c0,0,85,0,200,-26L521,538H486l-11,80c0,0,-47,42,-124,42c0,0,-61,0,-97,-28c0,0,-37,-28,-37,-87c0,0,0,-40,31,-71c0,0,32,-30,119,-75c0,0,78,-40,113,-86c0,0,36,-47,36,-107c0,0,0,-113,-71,-167c0,0,-72,-53,-217,-53Z" 
id="f3_2f"
transform="scale(0.001,-0.001)" />

<path d="M301,78c0,0,85,0,185,104l81,442c0,0,-29,20,-55,28c0,0,-25,8,-62,8c0,0,-75,0,-137,-56c0,0,-62,-56,-98,-152c0,0,-36,-95,-36,-199c0,0,0,-79,33,-127c0,0,33,-48,89,-48ZM245,-14c0,0,-90,0,-145,66c0,0,-54,66,-54,182c0,0,0,131,57,244c0,0,57,114,152,178c0,0,96,64,208,64c0,0,90,0,170,-33l33,26h40L589,52L673,33L667,0H454l22,117C476,117,350,-14,245,-14Z" 
id="f3_1x"
transform="scale(0.001,-0.001)" />

<path d="M81,0L258,1008l-96,18l6,34H391L214,52L331,33L325,0Z" 
id="f3_28"
transform="scale(0.001,-0.001)" />

<path d="M85,0L199,649l-96,19l6,33H332L218,52L335,33L329,0ZM297,849c0,0,-33,0,-57,24c0,0,-24,24,-24,57c0,0,0,33,24,57c0,0,24,24,57,24c0,0,33,0,57,-24c0,0,24,-24,24,-57c0,0,0,-33,-24,-57c0,0,-24,-24,-57,-24Z" 
id="f3_25"
transform="scale(0.001,-0.001)" />

<path d="M394,460c0,0,126,0,186,57c0,0,60,57,60,187c0,0,0,123,-57,176c0,0,-58,53,-194,53H316V460ZM54,0V40L172,60V941L44,960v40H421c0,0,368,0,368,-295c0,0,0,-153,-93,-233c0,0,-93,-80,-267,-80H316V60L475,40V0Z" 
id="f0_1g"
transform="scale(0.001,-0.001)" />

<path d="M327,-14L84,649L1,668v33H335V668L219,648L385,174L554,632h63L786,171L944,649L830,668v33h267V668l-78,-16L784,-14H726L553,448L382,-14Z" 
id="f0_2j"
transform="scale(0.001,-0.001)" />

<path d="M452,474c0,0,104,0,151,52c0,0,47,53,47,178c0,0,0,119,-45,167c0,0,-44,47,-156,47H390V474ZM36,0V54L154,74V926L26,945v55H467c0,0,213,0,318,-71c0,0,105,-71,105,-224c0,0,0,-313,-366,-313H390V74L557,54V0Z" 
id="f1_1g"
transform="scale(0.001,-0.001)" />

<path d="M438,65c0,0,131,0,131,293c0,0,0,279,-130,279c0,0,-69,0,-127,-29V80c0,0,60,-15,126,-15ZM20,-325v50l76,18V634L19,652v49H304l1,-36c0,0,80,55,194,55c0,0,146,0,218,-86c0,0,71,-86,71,-271c0,0,0,-183,-83,-280c0,0,-83,-97,-238,-97c0,0,-79,0,-160,19c0,0,5,-48,5,-109V-257l103,-18v-50Z" 
id="f1_2c"
transform="scale(0.001,-0.001)" />

<path d="M-15,0l6,40L121,60L275,941L151,960l6,40H558l-6,-40L419,941L350,549H821l68,392L765,960l6,40h401l-6,-40L1033,941L879,60L1003,40L996,0H596l6,40L735,60l74,421H338L264,60L388,40L382,0Z" 
id="f3_18"
transform="scale(0.001,-0.001)" />

<path d="M301,78c0,0,41,0,90,27c0,0,49,28,95,77l81,442c0,0,-26,18,-54,27c0,0,-27,10,-67,10c0,0,-70,0,-131,-55c0,0,-61,-55,-99,-152c0,0,-37,-97,-37,-201c0,0,0,-79,33,-127c0,0,33,-48,89,-48ZM245,-14c0,0,-91,0,-145,68c0,0,-54,69,-54,183c0,0,0,128,55,240c0,0,55,112,150,177c0,0,96,66,210,66c0,0,70,0,123,-18c0,0,3,36,51,306l-115,18l6,34H768L589,52L673,33L667,0H454l22,117C476,117,350,-14,245,-14Z" 
id="f3_20"
transform="scale(0.001,-0.001)" />

<path d="M62,0L176,649L88,668l6,33H301L278,543c0,0,55,84,124,130c0,0,69,47,138,47c0,0,37,0,59,-6L566,530H534l-28,95c0,0,-60,0,-124,-46c0,0,-63,-45,-116,-120L186,0Z" 
id="f3_2e"
transform="scale(0.001,-0.001)" />

<path d="M631,416L539,902L283,416ZM576,0l8,40L691,60L643,348H249L96,60L197,40L189,0H-83l8,40L7,60l509,949H659L845,60L938,40L930,0Z" 
id="f3_11"
transform="scale(0.001,-0.001)" />

<path d="M55,0L169,649L81,668l6,33H295L274,557c0,0,52,73,117,118c0,0,65,45,122,45c0,0,66,0,102,-42c0,0,36,-41,36,-121c0,0,51,72,115,117c0,0,64,46,123,46c0,0,63,0,99,-40c0,0,36,-40,36,-116c0,0,0,-16,-3,-42c0,0,-3,-27,-80,-470l98,-19L1032,0H808l77,434c0,0,17,90,17,124c0,0,0,34,-16,54c0,0,-15,21,-49,21c0,0,-33,0,-78,-32c0,0,-46,-31,-83,-80c0,0,-37,-49,-44,-91L558,0H434l76,434c0,0,19,98,19,124c0,0,0,34,-17,54c0,0,-16,21,-51,21c0,0,-33,0,-81,-34c0,0,-47,-33,-84,-80c0,0,-36,-48,-43,-89L179,0Z" 
id="f3_29"
transform="scale(0.001,-0.001)" />

<path d="M900,0V54l135,20V845L658,0H617L248,845V74L382,54V0H26V54L154,74V926L26,945v55H419L705,342l292,658h401V945L1270,926V74L1398,54V0Z" 
id="f1_1d"
transform="scale(0.001,-0.001)" />

<path d="M557,-14c0,0,-199,0,-298,89c0,0,-99,90,-99,255V941L32,960v40H432V960L304,941V341c0,0,0,-273,264,-273c0,0,144,0,220,68c0,0,77,68,77,202V941L730,960v40h341V960L943,941V344c0,0,0,-180,-99,-269c0,0,-99,-89,-287,-89Z" 
id="f0_1l"
transform="scale(0.001,-0.001)" />

<path d="M423,92c0,0,97,0,159,62c0,0,62,62,62,157c0,0,0,97,-64,160c0,0,-64,64,-161,64c0,0,-96,0,-158,-63c0,0,-62,-62,-62,-156c0,0,0,-58,27,-111c0,0,27,-54,81,-84c0,0,54,-29,116,-29Zm0,552c0,0,78,0,127,49c0,0,49,49,49,120c0,0,0,74,-50,124c0,0,-51,51,-128,51c0,0,-77,0,-127,-50c0,0,-51,-49,-51,-118c0,0,0,-77,50,-126c0,0,50,-50,130,-50ZM422,-18c0,0,-162,0,-261,95c0,0,-99,96,-99,239c0,0,0,107,54,179c0,0,54,72,154,98c0,0,-84,31,-124,87c0,0,-40,57,-40,136c0,0,0,119,85,201c0,0,86,81,229,81c0,0,143,0,230,-83c0,0,87,-83,87,-203c0,0,0,-76,-40,-132c0,0,-39,-56,-121,-87c0,0,101,-33,154,-106c0,0,52,-73,52,-174c0,0,0,-141,-99,-236c0,0,-99,-95,-261,-95Z" 
id="f4_s"
transform="scale(0.001,-0.001)" />


</defs>
</svg>