<?xml version="1.0" encoding="UTF-8" standalone="no"?>
<!DOCTYPE svg PUBLIC "-//W3C//DTD SVG 1.1//EN"
"http://www.w3.org/Graphics/SVG/1.1/DTD/svg11.dtd">
<svg viewBox="0 0 935 1210" version="1.1" xmlns="http://www.w3.org/2000/svg" xmlns:xlink="http://www.w3.org/1999/xlink">
<defs>
<style type="text/css"><![CDATA[
.g0_147{
}
]]></style>
</defs>
<g fill="#000000" >
<use xlink:href="#f0_13" transform="matrix(12,0,0,12,388.8,72.3)" />
<use xlink:href="#f0_21" transform="matrix(12,0,0,12,402.1,72.3)" />
<use xlink:href="#f0_28" transform="matrix(12,0,0,12,410.1,72.3)" />
<use xlink:href="#f0_28" transform="matrix(12,0,0,12,415.2,72.3)" />
<use xlink:href="#f0_u" transform="matrix(12,0,0,12,420,72.3)" />
<use xlink:href="#f0_1k" transform="matrix(12,0,0,12,431,72.3)" />
<use xlink:href="#f0_24" transform="matrix(12,0,0,12,443.1,72.3)" />
<use xlink:href="#f0_21" transform="matrix(12,0,0,12,453.3,72.3)" />
<use xlink:href="#f0_2h" transform="matrix(12,0,0,12,466.1,72.3)" />
<use xlink:href="#f0_2a" transform="matrix(12,0,0,12,476.4,72.3)" />
<use xlink:href="#f0_25" transform="matrix(12,0,0,12,486.6,72.3)" />
<use xlink:href="#f0_2g" transform="matrix(12,0,0,12,491.7,72.3)" />
<use xlink:href="#f0_2b" transform="matrix(12,0,0,12,502.7,72.3)" />
<use xlink:href="#f0_22" transform="matrix(12,0,0,12,511.9,72.3)" />
<use xlink:href="#f0_28" transform="matrix(12,0,0,12,522.5,72.3)" />
<use xlink:href="#f0_25" transform="matrix(12,0,0,12,527.3,72.3)" />
<use xlink:href="#f0_22" transform="matrix(12,0,0,12,532.4,72.3)" />
<use xlink:href="#f0_21" transform="matrix(12,0,0,12,538.3,72.3)" />
</g>
<path fill-rule="evenodd" d="M388.8,75.9H546.6V74.1H388.8v1.8Z" class="g0_147" />
<g fill="#000000" >
<use xlink:href="#f1_1k" transform="matrix(12,0,0,12,55,116.3)" />
<use xlink:href="#f1_24" transform="matrix(12,0,0,12,66.4,116.3)" />
<use xlink:href="#f1_21" transform="matrix(12,0,0,12,75.2,116.3)" />
<use xlink:href="#f1_1y" transform="matrix(12,0,0,12,88.4,116.3)" />
<use xlink:href="#f1_1x" transform="matrix(12,0,0,12,97.2,116.3)" />
<use xlink:href="#f1_2f" transform="matrix(12,0,0,12,105.6,116.3)" />
<use xlink:href="#f1_25" transform="matrix(12,0,0,12,112.9,116.3)" />
<use xlink:href="#f1_1z" transform="matrix(12,0,0,12,117.7,116.3)" />
<use xlink:href="#f1_2f" transform="matrix(12,0,0,12,130.8,116.3)" />
<use xlink:href="#f1_2g" transform="matrix(12,0,0,12,137.8,116.3)" />
<use xlink:href="#f1_2e" transform="matrix(12,0,0,12,143.3,116.3)" />
<use xlink:href="#f1_2h" transform="matrix(12,0,0,12,149.5,116.3)" />
<use xlink:href="#f1_1z" transform="matrix(12,0,0,12,158.7,116.3)" />
<use xlink:href="#f1_2g" transform="matrix(12,0,0,12,166.7,116.3)" />
<use xlink:href="#f1_2h" transform="matrix(12,0,0,12,172.2,116.3)" />
<use xlink:href="#f1_2e" transform="matrix(12,0,0,12,181,116.3)" />
<use xlink:href="#f1_1x" transform="matrix(12,0,0,12,187.2,116.3)" />
<use xlink:href="#f1_28" transform="matrix(12,0,0,12,195.3,116.3)" />
<use xlink:href="#f1_1x" transform="matrix(12,0,0,12,204.8,116.3)" />
<use xlink:href="#f1_2a" transform="matrix(12,0,0,12,213.2,116.3)" />
<use xlink:href="#f1_20" transform="matrix(12,0,0,12,222,116.3)" />
<use xlink:href="#f1_22" transform="matrix(12,0,0,12,236.7,116.3)" />
<use xlink:href="#f1_2h" transform="matrix(12,0,0,12,242.2,116.3)" />
<use xlink:href="#f1_2a" transform="matrix(12,0,0,12,251.7,116.3)" />
<use xlink:href="#f1_1z" transform="matrix(12,0,0,12,260.9,116.3)" />
<use xlink:href="#f1_2g" transform="matrix(12,0,0,12,268.9,116.3)" />
<use xlink:href="#f1_25" transform="matrix(12,0,0,12,274.4,116.3)" />
<use xlink:href="#f1_2b" transform="matrix(12,0,0,12,278.8,116.3)" />
<use xlink:href="#f1_2a" transform="matrix(12,0,0,12,288.3,116.3)" />
<use xlink:href="#f1_1x" transform="matrix(12,0,0,12,297.5,116.3)" />
<use xlink:href="#f1_28" transform="matrix(12,0,0,12,305.9,116.3)" />
<use xlink:href="#f1_2h" transform="matrix(12,0,0,12,315.4,116.3)" />
<use xlink:href="#f1_2a" transform="matrix(12,0,0,12,324.9,116.3)" />
<use xlink:href="#f1_25" transform="matrix(12,0,0,12,334.1,116.3)" />
<use xlink:href="#f1_2g" transform="matrix(12,0,0,12,338.5,116.3)" />
<use xlink:href="#f1_2b" transform="matrix(12,0,0,12,349.1,116.3)" />
<use xlink:href="#f1_22" transform="matrix(12,0,0,12,358.6,116.3)" />
<use xlink:href="#f1_28" transform="matrix(12,0,0,12,369.6,116.3)" />
<use xlink:href="#f1_25" transform="matrix(12,0,0,12,374.4,116.3)" />
<use xlink:href="#f1_22" transform="matrix(12,0,0,12,379.5,116.3)" />
<use xlink:href="#f1_21" transform="matrix(12,0,0,12,385.4,116.3)" />
<use xlink:href="#f1_2g" transform="matrix(12,0,0,12,399.1,116.3)" />
<use xlink:href="#f1_24" transform="matrix(12,0,0,12,404.6,116.3)" />
<use xlink:href="#f1_1x" transform="matrix(12,0,0,12,413.4,116.3)" />
<use xlink:href="#f1_2g" transform="matrix(12,0,0,12,421.4,116.3)" />
<use xlink:href="#f1_25" transform="matrix(12,0,0,12,432.1,116.3)" />
<use xlink:href="#f1_2f" transform="matrix(12,0,0,12,436.9,116.3)" />
<use xlink:href="#f1_1z" transform="matrix(12,0,0,12,448.9,116.3)" />
<use xlink:href="#f1_1x" transform="matrix(12,0,0,12,457,116.3)" />
<use xlink:href="#f1_2c" transform="matrix(12,0,0,12,465.1,116.3)" />
<use xlink:href="#f1_1x" transform="matrix(12,0,0,12,474.2,116.3)" />
<use xlink:href="#f1_1y" transform="matrix(12,0,0,12,482.6,116.3)" />
<use xlink:href="#f1_28" transform="matrix(12,0,0,12,491.8,116.3)" />
<use xlink:href="#f1_21" transform="matrix(12,0,0,12,496.6,116.3)" />
<use xlink:href="#f1_2b" transform="matrix(12,0,0,12,509.8,116.3)" />
<use xlink:href="#f1_22" transform="matrix(12,0,0,12,519.3,116.3)" />
<use xlink:href="#f1_25" transform="matrix(12,0,0,12,530.3,116.3)" />
<use xlink:href="#f1_2a" transform="matrix(12,0,0,12,535,116.3)" />
<use xlink:href="#f1_20" transform="matrix(12,0,0,12,544.2,116.3)" />
<use xlink:href="#f1_21" transform="matrix(12,0,0,12,553.4,116.3)" />
<use xlink:href="#f1_2c" transform="matrix(12,0,0,12,561.4,116.3)" />
<use xlink:href="#f1_21" transform="matrix(12,0,0,12,570.6,116.3)" />
<use xlink:href="#f1_2a" transform="matrix(12,0,0,12,579,116.3)" />
<use xlink:href="#f1_20" transform="matrix(12,0,0,12,587.8,116.3)" />
<use xlink:href="#f1_21" transform="matrix(12,0,0,12,597,116.3)" />
<use xlink:href="#f1_2a" transform="matrix(12,0,0,12,605.4,116.3)" />
<use xlink:href="#f1_2g" transform="matrix(12,0,0,12,614.2,116.3)" />
<use xlink:href="#f1_21" transform="matrix(12,0,0,12,624.8,116.3)" />
<use xlink:href="#f1_2k" transform="matrix(12,0,0,12,632.9,116.3)" />
<use xlink:href="#f1_25" transform="matrix(12,0,0,12,642,116.3)" />
<use xlink:href="#f1_2f" transform="matrix(12,0,0,12,646.8,116.3)" />
<use xlink:href="#f1_2g" transform="matrix(12,0,0,12,653.8,116.3)" />
<use xlink:href="#f1_21" transform="matrix(12,0,0,12,659.2,116.3)" />
<use xlink:href="#f1_2a" transform="matrix(12,0,0,12,667.3,116.3)" />
<use xlink:href="#f1_1z" transform="matrix(12,0,0,12,676.5,116.3)" />
<use xlink:href="#f1_21" transform="matrix(12,0,0,12,684.5,116.3)" />
<use xlink:href="#f1_1x" transform="matrix(12,0,0,12,697.7,116.3)" />
<use xlink:href="#f1_2a" transform="matrix(12,0,0,12,706.1,116.3)" />
<use xlink:href="#f1_20" transform="matrix(12,0,0,12,714.9,116.3)" />
<use xlink:href="#f1_2c" transform="matrix(12,0,0,12,729.2,116.3)" />
<use xlink:href="#f1_21" transform="matrix(12,0,0,12,738.4,116.3)" />
<use xlink:href="#f1_2e" transform="matrix(12,0,0,12,746.4,116.3)" />
<use xlink:href="#f1_22" transform="matrix(12,0,0,12,753,116.3)" />
<use xlink:href="#f1_2b" transform="matrix(12,0,0,12,758.5,116.3)" />
<use xlink:href="#f1_2e" transform="matrix(12,0,0,12,768,116.3)" />
<use xlink:href="#f1_29" transform="matrix(12,0,0,12,774.3,116.3)" />
<use xlink:href="#f1_25" transform="matrix(12,0,0,12,788.6,116.3)" />
<use xlink:href="#f1_2a" transform="matrix(12,0,0,12,793.7,116.3)" />
<use xlink:href="#f1_23" transform="matrix(12,0,0,12,802.6,116.3)" />
<use xlink:href="#f1_21" transform="matrix(12,0,0,12,816.8,116.3)" />
<use xlink:href="#f1_2f" transform="matrix(12,0,0,12,824.9,116.3)" />
<use xlink:href="#f1_2f" transform="matrix(12,0,0,12,832.2,116.3)" />
<use xlink:href="#f1_21" transform="matrix(12,0,0,12,839.2,116.3)" />
<use xlink:href="#f1_2a" transform="matrix(12,0,0,12,847.6,116.3)" />
<use xlink:href="#f1_2g" transform="matrix(12,0,0,12,856.4,116.3)" />
<use xlink:href="#f1_25" transform="matrix(12,0,0,12,862.3,116.3)" />
<use xlink:href="#f1_1x" transform="matrix(12,0,0,12,866.7,116.3)" />
<use xlink:href="#f1_28" transform="matrix(12,0,0,12,875.4,116.3)" />
<use xlink:href="#f1_22" transform="matrix(12,0,0,12,55,147.8)" />
<use xlink:href="#f1_2h" transform="matrix(12,0,0,12,60.9,147.8)" />
<use xlink:href="#f1_2a" transform="matrix(12,0,0,12,70.4,147.8)" />
<use xlink:href="#f1_1z" transform="matrix(12,0,0,12,79.2,147.8)" />
<use xlink:href="#f1_2g" transform="matrix(12,0,0,12,87.3,147.8)" />
<use xlink:href="#f1_25" transform="matrix(12,0,0,12,93.1,147.8)" />
<use xlink:href="#f1_2b" transform="matrix(12,0,0,12,97.5,147.8)" />
<use xlink:href="#f1_2a" transform="matrix(12,0,0,12,107,147.8)" />
<use xlink:href="#f1_2f" transform="matrix(12,0,0,12,115.8,147.8)" />
<use xlink:href="#f1_2b" transform="matrix(12,0,0,12,128.7,147.8)" />
<use xlink:href="#f1_22" transform="matrix(12,0,0,12,138.2,147.8)" />
<use xlink:href="#f1_28" transform="matrix(12,0,0,12,149.9,147.8)" />
<use xlink:href="#f1_25" transform="matrix(12,0,0,12,154.7,147.8)" />
<use xlink:href="#f1_22" transform="matrix(12,0,0,12,159.8,147.8)" />
<use xlink:href="#f1_21" transform="matrix(12,0,0,12,165.7,147.8)" />
<use xlink:href="#f1_25" transform="matrix(12,0,0,12,179.9,147.8)" />
<use xlink:href="#f1_2f" transform="matrix(12,0,0,12,184.7,147.8)" />
<use xlink:href="#f1_1z" transform="matrix(12,0,0,12,197.5,147.8)" />
<use xlink:href="#f1_1x" transform="matrix(12,0,0,12,205.6,147.8)" />
<use xlink:href="#f1_28" transform="matrix(12,0,0,12,214,147.8)" />
<use xlink:href="#f1_28" transform="matrix(12,0,0,12,218.8,147.8)" />
<use xlink:href="#f1_21" transform="matrix(12,0,0,12,223.5,147.8)" />
<use xlink:href="#f1_20" transform="matrix(12,0,0,12,231.6,147.8)" />
<use xlink:href="#f1_1x" transform="matrix(12,0,0,12,246.6,147.8)" />
<use xlink:href="#f1_2f" transform="matrix(12,0,0,12,254.7,147.8)" />
<use xlink:href="#f1_2g" transform="matrix(12,0,0,12,267.5,147.8)" />
<use xlink:href="#f1_24" transform="matrix(12,0,0,12,273,147.8)" />
<use xlink:href="#f1_21" transform="matrix(12,0,0,12,281.8,147.8)" />
<use xlink:href="#f1_1z" transform="matrix(12,0,0,12,295.7,147.8)" />
<use xlink:href="#f1_21" transform="matrix(12,0,0,12,303.8,147.8)" />
<use xlink:href="#f1_28" transform="matrix(12,0,0,12,312.2,147.8)" />
<use xlink:href="#f1_28" transform="matrix(12,0,0,12,316.9,147.8)" />
<use xlink:href="#f1_i" transform="matrix(12,0,0,12,321.7,147.8)" />
<use xlink:href="#f1_11" transform="matrix(12,0,0,12,332.7,147.8)" />
<use xlink:href="#f1_28" transform="matrix(12,0,0,12,345.9,147.8)" />
<use xlink:href="#f1_28" transform="matrix(12,0,0,12,351,147.8)" />
<use xlink:href="#f1_2b" transform="matrix(12,0,0,12,361.3,147.8)" />
<use xlink:href="#f1_2e" transform="matrix(12,0,0,12,370.8,147.8)" />
<use xlink:href="#f1_23" transform="matrix(12,0,0,12,377,147.8)" />
<use xlink:href="#f1_1x" transform="matrix(12,0,0,12,386.2,147.8)" />
<use xlink:href="#f1_2a" transform="matrix(12,0,0,12,394.2,147.8)" />
<use xlink:href="#f1_25" transform="matrix(12,0,0,12,403.4,147.8)" />
<use xlink:href="#f1_2f" transform="matrix(12,0,0,12,408.2,147.8)" />
<use xlink:href="#f1_29" transform="matrix(12,0,0,12,415.5,147.8)" />
<use xlink:href="#f1_2f" transform="matrix(12,0,0,12,429.7,147.8)" />
<use xlink:href="#f1_25" transform="matrix(12,0,0,12,442.9,147.8)" />
<use xlink:href="#f1_2a" transform="matrix(12,0,0,12,447.7,147.8)" />
<use xlink:href="#f1_1z" transform="matrix(12,0,0,12,456.5,147.8)" />
<use xlink:href="#f1_28" transform="matrix(12,0,0,12,464.9,147.8)" />
<use xlink:href="#f1_2h" transform="matrix(12,0,0,12,469.7,147.8)" />
<use xlink:href="#f1_20" transform="matrix(12,0,0,12,478.9,147.8)" />
<use xlink:href="#f1_25" transform="matrix(12,0,0,12,488.4,147.8)" />
<use xlink:href="#f1_2a" transform="matrix(12,0,0,12,493.1,147.8)" />
<use xlink:href="#f1_23" transform="matrix(12,0,0,12,502.3,147.8)" />
<use xlink:href="#f1_2c" transform="matrix(12,0,0,12,517.3,147.8)" />
<use xlink:href="#f1_28" transform="matrix(12,0,0,12,526.8,147.8)" />
<use xlink:href="#f1_1x" transform="matrix(12,0,0,12,531.2,147.8)" />
<use xlink:href="#f1_2a" transform="matrix(12,0,0,12,539.7,147.8)" />
<use xlink:href="#f1_2g" transform="matrix(12,0,0,12,548.5,147.8)" />
<use xlink:href="#f1_2f" transform="matrix(12,0,0,12,553.9,147.8)" />
<use xlink:href="#f1_g" transform="matrix(12,0,0,12,560.9,147.8)" />
<use xlink:href="#f1_1x" transform="matrix(12,0,0,12,571.5,147.8)" />
<use xlink:href="#f1_2a" transform="matrix(12,0,0,12,579.6,147.8)" />
<use xlink:href="#f1_25" transform="matrix(12,0,0,12,588.7,147.8)" />
<use xlink:href="#f1_29" transform="matrix(12,0,0,12,593.5,147.8)" />
<use xlink:href="#f1_1x" transform="matrix(12,0,0,12,607.4,147.8)" />
<use xlink:href="#f1_28" transform="matrix(12,0,0,12,615.9,147.8)" />
<use xlink:href="#f1_2f" transform="matrix(12,0,0,12,620.6,147.8)" />
<use xlink:href="#f1_1x" transform="matrix(12,0,0,12,633.8,147.8)" />
<use xlink:href="#f1_2e" transform="matrix(12,0,0,12,641.9,147.8)" />
<use xlink:href="#f1_21" transform="matrix(12,0,0,12,648.1,147.8)" />
<use xlink:href="#f1_29" transform="matrix(12,0,0,12,662.4,147.8)" />
<use xlink:href="#f1_1x" transform="matrix(12,0,0,12,675.9,147.8)" />
<use xlink:href="#f1_20" transform="matrix(12,0,0,12,684,147.8)" />
<use xlink:href="#f1_21" transform="matrix(12,0,0,12,693.5,147.8)" />
<use xlink:href="#f1_2h" transform="matrix(12,0,0,12,707.4,147.8)" />
<use xlink:href="#f1_2c" transform="matrix(12,0,0,12,716.6,147.8)" />
<use xlink:href="#f1_2b" transform="matrix(12,0,0,12,731.3,147.8)" />
<use xlink:href="#f1_22" transform="matrix(12,0,0,12,740.8,147.8)" />
<use xlink:href="#f1_1z" transform="matrix(12,0,0,12,752.1,147.8)" />
<use xlink:href="#f1_21" transform="matrix(12,0,0,12,760.2,147.8)" />
<use xlink:href="#f1_28" transform="matrix(12,0,0,12,768.6,147.8)" />
<use xlink:href="#f1_28" transform="matrix(12,0,0,12,773.4,147.8)" />
<use xlink:href="#f1_i" transform="matrix(12,0,0,12,778.1,147.8)" />
<use xlink:href="#f1_1j" transform="matrix(12,0,0,12,788.7,147.8)" />
<use xlink:href="#f1_2b" transform="matrix(12,0,0,12,799,147.8)" />
<use xlink:href="#f1_g" transform="matrix(12,0,0,12,808.4,147.8)" />
<use xlink:href="#f1_1z" transform="matrix(12,0,0,12,819.1,147.8)" />
<use xlink:href="#f1_21" transform="matrix(12,0,0,12,827.1,147.8)" />
<use xlink:href="#f1_28" transform="matrix(12,0,0,12,835.2,147.8)" />
<use xlink:href="#f1_28" transform="matrix(12,0,0,12,840,147.8)" />
<use xlink:href="#f1_2f" transform="matrix(12,0,0,12,844.7,147.8)" />
<use xlink:href="#f1_1x" transform="matrix(12,0,0,12,857.5,147.8)" />
<use xlink:href="#f1_2e" transform="matrix(12,0,0,12,865.6,147.8)" />
<use xlink:href="#f1_21" transform="matrix(12,0,0,12,871.8,147.8)" />
<use xlink:href="#f1_1z" transform="matrix(12,0,0,12,55,179.3)" />
<use xlink:href="#f1_2b" transform="matrix(12,0,0,12,63.1,179.3)" />
<use xlink:href="#f1_2a" transform="matrix(12,0,0,12,72.6,179.3)" />
<use xlink:href="#f1_2f" transform="matrix(12,0,0,12,81.4,179.3)" />
<use xlink:href="#f1_25" transform="matrix(12,0,0,12,88.7,179.3)" />
<use xlink:href="#f1_20" transform="matrix(12,0,0,12,93.5,179.3)" />
<use xlink:href="#f1_21" transform="matrix(12,0,0,12,102.7,179.3)" />
<use xlink:href="#f1_2e" transform="matrix(12,0,0,12,110.7,179.3)" />
<use xlink:href="#f1_21" transform="matrix(12,0,0,12,116.9,179.3)" />
<use xlink:href="#f1_20" transform="matrix(12,0,0,12,125,179.3)" />
<use xlink:href="#f1_1x" transform="matrix(12,0,0,12,138.9,179.3)" />
<use xlink:href="#f1_2f" transform="matrix(12,0,0,12,147,179.3)" />
<use xlink:href="#f1_1y" transform="matrix(12,0,0,12,158.7,179.3)" />
<use xlink:href="#f1_1x" transform="matrix(12,0,0,12,167.5,179.3)" />
<use xlink:href="#f1_2f" transform="matrix(12,0,0,12,175.9,179.3)" />
<use xlink:href="#f1_25" transform="matrix(12,0,0,12,183.2,179.3)" />
<use xlink:href="#f1_1z" transform="matrix(12,0,0,12,188,179.3)" />
<use xlink:href="#f1_2h" transform="matrix(12,0,0,12,200.8,179.3)" />
<use xlink:href="#f1_2a" transform="matrix(12,0,0,12,210,179.3)" />
<use xlink:href="#f1_25" transform="matrix(12,0,0,12,219.2,179.3)" />
<use xlink:href="#f1_2g" transform="matrix(12,0,0,12,223.6,179.3)" />
<use xlink:href="#f1_2b" transform="matrix(12,0,0,12,233.8,179.3)" />
<use xlink:href="#f1_22" transform="matrix(12,0,0,12,243.3,179.3)" />
<use xlink:href="#f1_28" transform="matrix(12,0,0,12,253.9,179.3)" />
<use xlink:href="#f1_25" transform="matrix(12,0,0,12,259,179.3)" />
<use xlink:href="#f1_22" transform="matrix(12,0,0,12,263.8,179.3)" />
<use xlink:href="#f1_21" transform="matrix(12,0,0,12,269.7,179.3)" />
<use xlink:href="#f1_i" transform="matrix(12,0,0,12,277.8,179.3)" />
<use xlink:href="#f0_1i" transform="matrix(12,0,0,12,287.6,179.3)" />
<use xlink:href="#f0_2b" transform="matrix(12,0,0,12,300.8,179.3)" />
<use xlink:href="#f0_1y" transform="matrix(12,0,0,12,310,179.3)" />
<use xlink:href="#f0_21" transform="matrix(12,0,0,12,320.2,179.3)" />
<use xlink:href="#f0_2e" transform="matrix(12,0,0,12,328.6,179.3)" />
<use xlink:href="#f0_2g" transform="matrix(12,0,0,12,336.3,179.3)" />
<use xlink:href="#f0_18" transform="matrix(12,0,0,12,347.3,179.3)" />
<use xlink:href="#f0_2b" transform="matrix(12,0,0,12,361.5,179.3)" />
<use xlink:href="#f0_2b" transform="matrix(12,0,0,12,370.7,179.3)" />
<use xlink:href="#f0_27" transform="matrix(12,0,0,12,379.9,179.3)" />
<use xlink:href="#f0_21" transform="matrix(12,0,0,12,389.8,179.3)" />
<use xlink:href="#f1_22" transform="matrix(12,0,0,12,403.1,179.3)" />
<use xlink:href="#f1_25" transform="matrix(12,0,0,12,409,179.3)" />
<use xlink:href="#f1_2e" transform="matrix(12,0,0,12,413.4,179.3)" />
<use xlink:href="#f1_2f" transform="matrix(12,0,0,12,420,179.3)" />
<use xlink:href="#f1_2g" transform="matrix(12,0,0,12,427.3,179.3)" />
<use xlink:href="#f1_20" transform="matrix(12,0,0,12,437.2,179.3)" />
<use xlink:href="#f1_25" transform="matrix(12,0,0,12,446.3,179.3)" />
<use xlink:href="#f1_2f" transform="matrix(12,0,0,12,451.1,179.3)" />
<use xlink:href="#f1_1z" transform="matrix(12,0,0,12,458.1,179.3)" />
<use xlink:href="#f1_2b" transform="matrix(12,0,0,12,466.1,179.3)" />
<use xlink:href="#f1_2i" transform="matrix(12,0,0,12,475.6,179.3)" />
<use xlink:href="#f1_21" transform="matrix(12,0,0,12,484.4,179.3)" />
<use xlink:href="#f1_2e" transform="matrix(12,0,0,12,492.5,179.3)" />
<use xlink:href="#f1_21" transform="matrix(12,0,0,12,498.7,179.3)" />
<use xlink:href="#f1_20" transform="matrix(12,0,0,12,506.8,179.3)" />
<use xlink:href="#f1_1z" transform="matrix(12,0,0,12,520.7,179.3)" />
<use xlink:href="#f1_21" transform="matrix(12,0,0,12,528.8,179.3)" />
<use xlink:href="#f1_28" transform="matrix(12,0,0,12,537.2,179.3)" />
<use xlink:href="#f1_28" transform="matrix(12,0,0,12,542.3,179.3)" />
<use xlink:href="#f1_2f" transform="matrix(12,0,0,12,547.1,179.3)" />
<use xlink:href="#f1_25" transform="matrix(12,0,0,12,559.2,179.3)" />
<use xlink:href="#f1_2a" transform="matrix(12,0,0,12,563.9,179.3)" />
<use xlink:href="#f1_1x" transform="matrix(12,0,0,12,577.5,179.3)" />
<use xlink:href="#f1_2c" transform="matrix(12,0,0,12,590.3,179.3)" />
<use xlink:href="#f1_25" transform="matrix(12,0,0,12,599.8,179.3)" />
<use xlink:href="#f1_21" transform="matrix(12,0,0,12,604.6,179.3)" />
<use xlink:href="#f1_1z" transform="matrix(12,0,0,12,612.7,179.3)" />
<use xlink:href="#f1_21" transform="matrix(12,0,0,12,620.7,179.3)" />
<use xlink:href="#f1_2b" transform="matrix(12,0,0,12,633.5,179.3)" />
<use xlink:href="#f1_22" transform="matrix(12,0,0,12,643,179.3)" />
<use xlink:href="#f1_1z" transform="matrix(12,0,0,12,653.3,179.3)" />
<use xlink:href="#f1_2b" transform="matrix(12,0,0,12,661.4,179.3)" />
<use xlink:href="#f1_2e" transform="matrix(12,0,0,12,670.9,179.3)" />
<use xlink:href="#f1_27" transform="matrix(12,0,0,12,677.1,179.3)" />
<use xlink:href="#f1_i" transform="matrix(12,0,0,12,686.3,179.3)" />
<use xlink:href="#f0_14" transform="matrix(12,0,0,12,55,223.4)" />
<use xlink:href="#f0_25" transform="matrix(12,0,0,12,68.3,223.4)" />
<use xlink:href="#f0_22" transform="matrix(12,0,0,12,73.4,223.4)" />
<use xlink:href="#f0_22" transform="matrix(12,0,0,12,79.2,223.4)" />
<use xlink:href="#f0_21" transform="matrix(12,0,0,12,85.1,223.4)" />
<use xlink:href="#f0_2e" transform="matrix(12,0,0,12,93.5,223.4)" />
<use xlink:href="#f0_21" transform="matrix(12,0,0,12,101.6,223.4)" />
<use xlink:href="#f0_2a" transform="matrix(12,0,0,12,109.7,223.4)" />
<use xlink:href="#f0_2g" transform="matrix(12,0,0,12,119.9,223.4)" />
<use xlink:href="#f0_2g" transform="matrix(12,0,0,12,130.9,223.4)" />
<use xlink:href="#f0_2l" transform="matrix(12,0,0,12,137.1,223.4)" />
<use xlink:href="#f0_2c" transform="matrix(12,0,0,12,146.2,223.4)" />
<use xlink:href="#f0_21" transform="matrix(12,0,0,12,156.5,223.4)" />
<use xlink:href="#f0_2f" transform="matrix(12,0,0,12,164.6,223.4)" />
<use xlink:href="#f0_2b" transform="matrix(12,0,0,12,176.3,223.4)" />
<use xlink:href="#f0_22" transform="matrix(12,0,0,12,185.4,223.4)" />
<use xlink:href="#f0_1z" transform="matrix(12,0,0,12,196.1,223.4)" />
<use xlink:href="#f0_21" transform="matrix(12,0,0,12,204.1,223.4)" />
<use xlink:href="#f0_28" transform="matrix(12,0,0,12,212.2,223.4)" />
<use xlink:href="#f0_28" transform="matrix(12,0,0,12,217.3,223.4)" />
</g>
<path fill-rule="evenodd" d="M55,227H222.6v-1.8H55V227Z" class="g0_147" />
<g fill="#000000" >
<use xlink:href="#f1_1k" transform="matrix(12,0,0,12,55,267)" />
<use xlink:href="#f1_24" transform="matrix(12,0,0,12,66.4,267)" />
<use xlink:href="#f1_21" transform="matrix(12,0,0,12,75.2,267)" />
<use xlink:href="#f1_2e" transform="matrix(12,0,0,12,83.3,267)" />
<use xlink:href="#f1_21" transform="matrix(12,0,0,12,89.5,267)" />
<use xlink:href="#f1_1x" transform="matrix(12,0,0,12,103,267)" />
<use xlink:href="#f1_2e" transform="matrix(12,0,0,12,111.1,267)" />
<use xlink:href="#f1_21" transform="matrix(12,0,0,12,117.3,267)" />
<use xlink:href="#f1_20" transform="matrix(12,0,0,12,130.8,267)" />
<use xlink:href="#f1_25" transform="matrix(12,0,0,12,140.4,267)" />
<use xlink:href="#f1_22" transform="matrix(12,0,0,12,145.1,267)" />
<use xlink:href="#f1_22" transform="matrix(12,0,0,12,151,267)" />
<use xlink:href="#f1_21" transform="matrix(12,0,0,12,156.9,267)" />
<use xlink:href="#f1_2e" transform="matrix(12,0,0,12,164.9,267)" />
<use xlink:href="#f1_21" transform="matrix(12,0,0,12,171.1,267)" />
<use xlink:href="#f1_2a" transform="matrix(12,0,0,12,179.6,267)" />
<use xlink:href="#f1_2g" transform="matrix(12,0,0,12,188.4,267)" />
<use xlink:href="#f1_2g" transform="matrix(12,0,0,12,199.3,267)" />
<use xlink:href="#f1_2l" transform="matrix(12,0,0,12,204.8,267)" />
<use xlink:href="#f1_2c" transform="matrix(12,0,0,12,213.2,267)" />
<use xlink:href="#f1_21" transform="matrix(12,0,0,12,222.4,267)" />
<use xlink:href="#f1_2f" transform="matrix(12,0,0,12,230.8,267)" />
<use xlink:href="#f1_2b" transform="matrix(12,0,0,12,243.3,267)" />
<use xlink:href="#f1_22" transform="matrix(12,0,0,12,252.8,267)" />
<use xlink:href="#f1_1z" transform="matrix(12,0,0,12,263.8,267)" />
<use xlink:href="#f1_21" transform="matrix(12,0,0,12,271.8,267)" />
<use xlink:href="#f1_28" transform="matrix(12,0,0,12,280.2,267)" />
<use xlink:href="#f1_28" transform="matrix(12,0,0,12,285.3,267)" />
<use xlink:href="#f1_2f" transform="matrix(12,0,0,12,290.1,267)" />
<use xlink:href="#f1_22" transform="matrix(12,0,0,12,303,267)" />
<use xlink:href="#f1_2b" transform="matrix(12,0,0,12,308.5,267)" />
<use xlink:href="#f1_2h" transform="matrix(12,0,0,12,318,267)" />
<use xlink:href="#f1_2a" transform="matrix(12,0,0,12,327.5,267)" />
<use xlink:href="#f1_20" transform="matrix(12,0,0,12,336.3,267)" />
<use xlink:href="#f1_25" transform="matrix(12,0,0,12,351.3,267)" />
<use xlink:href="#f1_2a" transform="matrix(12,0,0,12,356.1,267)" />
<use xlink:href="#f1_24" transform="matrix(12,0,0,12,371.1,267)" />
<use xlink:href="#f1_2h" transform="matrix(12,0,0,12,379.9,267)" />
<use xlink:href="#f1_29" transform="matrix(12,0,0,12,389.4,267)" />
<use xlink:href="#f1_1x" transform="matrix(12,0,0,12,403.3,267)" />
<use xlink:href="#f1_2a" transform="matrix(12,0,0,12,411.7,267)" />
<use xlink:href="#f1_1y" transform="matrix(12,0,0,12,426,267)" />
<use xlink:href="#f1_2b" transform="matrix(12,0,0,12,434.8,267)" />
<use xlink:href="#f1_20" transform="matrix(12,0,0,12,444.3,267)" />
<use xlink:href="#f1_2l" transform="matrix(12,0,0,12,453.9,267)" />
<use xlink:href="#f1_i" transform="matrix(12,0,0,12,462.3,267)" />
<use xlink:href="#f1_1k" transform="matrix(12,0,0,12,472.5,267)" />
<use xlink:href="#f1_24" transform="matrix(12,0,0,12,483.9,267)" />
<use xlink:href="#f1_25" transform="matrix(12,0,0,12,493,267)" />
<use xlink:href="#f1_2f" transform="matrix(12,0,0,12,497.8,267)" />
<use xlink:href="#f1_25" transform="matrix(12,0,0,12,510.6,267)" />
<use xlink:href="#f1_2a" transform="matrix(12,0,0,12,515.4,267)" />
<use xlink:href="#f1_1z" transform="matrix(12,0,0,12,524.6,267)" />
<use xlink:href="#f1_28" transform="matrix(12,0,0,12,533,267)" />
<use xlink:href="#f1_2h" transform="matrix(12,0,0,12,537.7,267)" />
<use xlink:href="#f1_20" transform="matrix(12,0,0,12,546.9,267)" />
<use xlink:href="#f1_21" transform="matrix(12,0,0,12,556.1,267)" />
<use xlink:href="#f1_2f" transform="matrix(12,0,0,12,564.5,267)" />
<use xlink:href="#f1_24" transform="matrix(12,0,0,12,576.9,267)" />
<use xlink:href="#f1_21" transform="matrix(12,0,0,12,586.1,267)" />
<use xlink:href="#f1_2c" transform="matrix(12,0,0,12,594.2,267)" />
<use xlink:href="#f1_1x" transform="matrix(12,0,0,12,603.3,267)" />
<use xlink:href="#f1_2g" transform="matrix(12,0,0,12,611.4,267)" />
<use xlink:href="#f1_2b" transform="matrix(12,0,0,12,616.9,267)" />
<use xlink:href="#f1_1z" transform="matrix(12,0,0,12,626.4,267)" />
<use xlink:href="#f1_2l" transform="matrix(12,0,0,12,634.5,267)" />
<use xlink:href="#f1_2g" transform="matrix(12,0,0,12,642.9,267)" />
<use xlink:href="#f1_21" transform="matrix(12,0,0,12,648.4,267)" />
<use xlink:href="#f1_2f" transform="matrix(12,0,0,12,656.4,267)" />
<use xlink:href="#f1_25" transform="matrix(12,0,0,12,669.3,267)" />
<use xlink:href="#f1_2a" transform="matrix(12,0,0,12,674,267)" />
<use xlink:href="#f1_28" transform="matrix(12,0,0,12,688.7,267)" />
<use xlink:href="#f1_25" transform="matrix(12,0,0,12,693.8,267)" />
<use xlink:href="#f1_2i" transform="matrix(12,0,0,12,698.6,267)" />
<use xlink:href="#f1_21" transform="matrix(12,0,0,12,707.7,267)" />
<use xlink:href="#f1_2e" transform="matrix(12,0,0,12,715.8,267)" />
<use xlink:href="#f1_g" transform="matrix(12,0,0,12,722,267)" />
<use xlink:href="#f1_2a" transform="matrix(12,0,0,12,732.3,267)" />
<use xlink:href="#f1_21" transform="matrix(12,0,0,12,741.1,267)" />
<use xlink:href="#f1_2c" transform="matrix(12,0,0,12,749.1,267)" />
<use xlink:href="#f1_24" transform="matrix(12,0,0,12,758.6,267)" />
<use xlink:href="#f1_2e" transform="matrix(12,0,0,12,767.4,267)" />
<use xlink:href="#f1_2b" transform="matrix(12,0,0,12,773.6,267)" />
<use xlink:href="#f1_2a" transform="matrix(12,0,0,12,783.2,267)" />
<use xlink:href="#f1_2f" transform="matrix(12,0,0,12,792,267)" />
<use xlink:href="#f1_25" transform="matrix(12,0,0,12,805.1,267)" />
<use xlink:href="#f1_2a" transform="matrix(12,0,0,12,809.9,267)" />
<use xlink:href="#f1_27" transform="matrix(12,0,0,12,824.2,267)" />
<use xlink:href="#f1_25" transform="matrix(12,0,0,12,833.7,267)" />
<use xlink:href="#f1_20" transform="matrix(12,0,0,12,838.1,267)" />
<use xlink:href="#f1_2a" transform="matrix(12,0,0,12,847.6,267)" />
<use xlink:href="#f1_21" transform="matrix(12,0,0,12,856.8,267)" />
<use xlink:href="#f1_2l" transform="matrix(12,0,0,12,865.2,267)" />
<use xlink:href="#f1_g" transform="matrix(12,0,0,12,874,267)" />
<use xlink:href="#f1_2a" transform="matrix(12,0,0,12,55,298.5)" />
<use xlink:href="#f1_21" transform="matrix(12,0,0,12,63.8,298.5)" />
<use xlink:href="#f1_2h" transform="matrix(12,0,0,12,71.9,298.5)" />
<use xlink:href="#f1_2e" transform="matrix(12,0,0,12,81.1,298.5)" />
<use xlink:href="#f1_2b" transform="matrix(12,0,0,12,87.3,298.5)" />
<use xlink:href="#f1_2a" transform="matrix(12,0,0,12,96.8,298.5)" />
<use xlink:href="#f1_2f" transform="matrix(12,0,0,12,105.6,298.5)" />
<use xlink:href="#f1_25" transform="matrix(12,0,0,12,117.7,298.5)" />
<use xlink:href="#f1_2a" transform="matrix(12,0,0,12,122.4,298.5)" />
<use xlink:href="#f1_1y" transform="matrix(12,0,0,12,136.4,298.5)" />
<use xlink:href="#f1_2e" transform="matrix(12,0,0,12,145.2,298.5)" />
<use xlink:href="#f1_1x" transform="matrix(12,0,0,12,151.4,298.5)" />
<use xlink:href="#f1_25" transform="matrix(12,0,0,12,159.8,298.5)" />
<use xlink:href="#f1_2a" transform="matrix(12,0,0,12,164.6,298.5)" />
<use xlink:href="#f1_g" transform="matrix(12,0,0,12,173.4,298.5)" />
<use xlink:href="#f1_21" transform="matrix(12,0,0,12,183,298.5)" />
<use xlink:href="#f1_2g" transform="matrix(12,0,0,12,191.1,298.5)" />
<use xlink:href="#f1_1z" transform="matrix(12,0,0,12,196.6,298.5)" />
<use xlink:href="#f1_i" transform="matrix(12,0,0,12,204.7,298.5)" />
<use xlink:href="#f1_14" transform="matrix(12,0,0,12,214.2,298.5)" />
<use xlink:href="#f1_25" transform="matrix(12,0,0,12,227.4,298.5)" />
<use xlink:href="#f1_22" transform="matrix(12,0,0,12,232.1,298.5)" />
<use xlink:href="#f1_22" transform="matrix(12,0,0,12,238,298.5)" />
<use xlink:href="#f1_21" transform="matrix(12,0,0,12,243.9,298.5)" />
<use xlink:href="#f1_2e" transform="matrix(12,0,0,12,251.9,298.5)" />
<use xlink:href="#f1_21" transform="matrix(12,0,0,12,258.1,298.5)" />
<use xlink:href="#f1_2a" transform="matrix(12,0,0,12,266.6,298.5)" />
<use xlink:href="#f1_2g" transform="matrix(12,0,0,12,275.4,298.5)" />
<use xlink:href="#f1_1z" transform="matrix(12,0,0,12,285.6,298.5)" />
<use xlink:href="#f1_21" transform="matrix(12,0,0,12,293.6,298.5)" />
<use xlink:href="#f1_28" transform="matrix(12,0,0,12,302.1,298.5)" />
<use xlink:href="#f1_28" transform="matrix(12,0,0,12,306.8,298.5)" />
<use xlink:href="#f1_2f" transform="matrix(12,0,0,12,311.6,298.5)" />
<use xlink:href="#f1_1x" transform="matrix(12,0,0,12,323.3,298.5)" />
<use xlink:href="#f1_2e" transform="matrix(12,0,0,12,331.4,298.5)" />
<use xlink:href="#f1_21" transform="matrix(12,0,0,12,337.6,298.5)" />
<use xlink:href="#f1_23" transform="matrix(12,0,0,12,350.4,298.5)" />
<use xlink:href="#f1_2e" transform="matrix(12,0,0,12,359.6,298.5)" />
<use xlink:href="#f1_2b" transform="matrix(12,0,0,12,365.8,298.5)" />
<use xlink:href="#f1_2h" transform="matrix(12,0,0,12,375.3,298.5)" />
<use xlink:href="#f1_2c" transform="matrix(12,0,0,12,384.5,298.5)" />
<use xlink:href="#f1_21" transform="matrix(12,0,0,12,393.6,298.5)" />
<use xlink:href="#f1_20" transform="matrix(12,0,0,12,401.7,298.5)" />
<use xlink:href="#f1_2g" transform="matrix(12,0,0,12,415.3,298.5)" />
<use xlink:href="#f1_2b" transform="matrix(12,0,0,12,420.4,298.5)" />
<use xlink:href="#f1_23" transform="matrix(12,0,0,12,429.5,298.5)" />
<use xlink:href="#f1_21" transform="matrix(12,0,0,12,438.7,298.5)" />
<use xlink:href="#f1_2g" transform="matrix(12,0,0,12,446.8,298.5)" />
<use xlink:href="#f1_24" transform="matrix(12,0,0,12,452.3,298.5)" />
<use xlink:href="#f1_21" transform="matrix(12,0,0,12,461.1,298.5)" />
<use xlink:href="#f1_2e" transform="matrix(12,0,0,12,469.2,298.5)" />
<use xlink:href="#f1_2g" transform="matrix(12,0,0,12,479.8,298.5)" />
<use xlink:href="#f1_2b" transform="matrix(12,0,0,12,484.9,298.5)" />
<use xlink:href="#f1_22" transform="matrix(12,0,0,12,499.2,298.5)" />
<use xlink:href="#f1_2b" transform="matrix(12,0,0,12,504.7,298.5)" />
<use xlink:href="#f1_2e" transform="matrix(12,0,0,12,514.2,298.5)" />
<use xlink:href="#f1_29" transform="matrix(12,0,0,12,520.4,298.5)" />
<use xlink:href="#f1_2g" transform="matrix(12,0,0,12,538.7,298.5)" />
<use xlink:href="#f1_25" transform="matrix(12,0,0,12,544.2,298.5)" />
<use xlink:href="#f1_2f" transform="matrix(12,0,0,12,549,298.5)" />
<use xlink:href="#f1_2f" transform="matrix(12,0,0,12,555.9,298.5)" />
<use xlink:href="#f1_2h" transform="matrix(12,0,0,12,562.9,298.5)" />
<use xlink:href="#f1_21" transform="matrix(12,0,0,12,572.1,298.5)" />
<use xlink:href="#f1_2f" transform="matrix(12,0,0,12,580.5,298.5)" />
<use xlink:href="#f1_2j" transform="matrix(12,0,0,12,592.2,298.5)" />
<use xlink:href="#f1_24" transform="matrix(12,0,0,12,605.4,298.5)" />
<use xlink:href="#f1_25" transform="matrix(12,0,0,12,614.6,298.5)" />
<use xlink:href="#f1_1z" transform="matrix(12,0,0,12,619.3,298.5)" />
<use xlink:href="#f1_24" transform="matrix(12,0,0,12,627.7,298.5)" />
<use xlink:href="#f1_2c" transform="matrix(12,0,0,12,641.3,298.5)" />
<use xlink:href="#f1_21" transform="matrix(12,0,0,12,650.5,298.5)" />
<use xlink:href="#f1_2e" transform="matrix(12,0,0,12,658.5,298.5)" />
<use xlink:href="#f1_22" transform="matrix(12,0,0,12,665.1,298.5)" />
<use xlink:href="#f1_2b" transform="matrix(12,0,0,12,670.6,298.5)" />
<use xlink:href="#f1_2e" transform="matrix(12,0,0,12,680.1,298.5)" />
<use xlink:href="#f1_29" transform="matrix(12,0,0,12,686.7,298.5)" />
<use xlink:href="#f1_2f" transform="matrix(12,0,0,12,705,298.5)" />
<use xlink:href="#f1_2c" transform="matrix(12,0,0,12,712,298.5)" />
<use xlink:href="#f1_21" transform="matrix(12,0,0,12,721.1,298.5)" />
<use xlink:href="#f1_1z" transform="matrix(12,0,0,12,729.2,298.5)" />
<use xlink:href="#f1_25" transform="matrix(12,0,0,12,737.6,298.5)" />
<use xlink:href="#f1_22" transform="matrix(12,0,0,12,742.7,298.5)" />
<use xlink:href="#f1_25" transform="matrix(12,0,0,12,749,298.5)" />
<use xlink:href="#f1_1z" transform="matrix(12,0,0,12,753.7,298.5)" />
<use xlink:href="#f1_22" transform="matrix(12,0,0,12,766.9,298.5)" />
<use xlink:href="#f1_2h" transform="matrix(12,0,0,12,772.4,298.5)" />
<use xlink:href="#f1_2a" transform="matrix(12,0,0,12,781.9,298.5)" />
<use xlink:href="#f1_1z" transform="matrix(12,0,0,12,790.7,298.5)" />
<use xlink:href="#f1_2g" transform="matrix(12,0,0,12,798.8,298.5)" />
<use xlink:href="#f1_25" transform="matrix(12,0,0,12,804.3,298.5)" />
<use xlink:href="#f1_2b" transform="matrix(12,0,0,12,808.7,298.5)" />
<use xlink:href="#f1_2a" transform="matrix(12,0,0,12,818.6,298.5)" />
<use xlink:href="#f1_i" transform="matrix(12,0,0,12,827.4,298.5)" />
<use xlink:href="#f0_16" transform="matrix(12,0,0,12,356.2,750.4)" />
<use xlink:href="#f0_25" transform="matrix(12,0,0,12,367.2,750.4)" />
<use xlink:href="#f0_23" transform="matrix(12,0,0,12,372.3,750.4)" />
<use xlink:href="#f0_i" transform="matrix(12,0,0,12,381.4,750.4)" />
<use xlink:href="#f0_l" transform="matrix(12,0,0,12,386.2,750.4)" />
<use xlink:href="#f0_i" transform="matrix(12,0,0,12,395.4,750.4)" />
<use xlink:href="#f0_14" transform="matrix(12,0,0,12,404.9,750.4)" />
<use xlink:href="#f0_25" transform="matrix(12,0,0,12,418.1,750.4)" />
<use xlink:href="#f0_22" transform="matrix(12,0,0,12,423.2,750.4)" />
<use xlink:href="#f0_22" transform="matrix(12,0,0,12,429.1,750.4)" />
<use xlink:href="#f0_21" transform="matrix(12,0,0,12,435,750.4)" />
<use xlink:href="#f0_2e" transform="matrix(12,0,0,12,443.4,750.4)" />
<use xlink:href="#f0_21" transform="matrix(12,0,0,12,451.1,750.4)" />
<use xlink:href="#f0_2a" transform="matrix(12,0,0,12,459.1,750.4)" />
<use xlink:href="#f0_2g" transform="matrix(12,0,0,12,469.4,750.4)" />
<use xlink:href="#f0_2g" transform="matrix(12,0,0,12,480.4,750.4)" />
<use xlink:href="#f0_2l" transform="matrix(12,0,0,12,486.6,750.4)" />
<use xlink:href="#f0_2c" transform="matrix(12,0,0,12,495.7,750.4)" />
<use xlink:href="#f0_21" transform="matrix(12,0,0,12,506,750.4)" />
<use xlink:href="#f0_2f" transform="matrix(12,0,0,12,514.1,750.4)" />
<use xlink:href="#f0_2b" transform="matrix(12,0,0,12,525.8,750.4)" />
<use xlink:href="#f0_22" transform="matrix(12,0,0,12,534.9,750.4)" />
<use xlink:href="#f0_1z" transform="matrix(12,0,0,12,545.6,750.4)" />
<use xlink:href="#f0_21" transform="matrix(12,0,0,12,553.6,750.4)" />
<use xlink:href="#f0_28" transform="matrix(12,0,0,12,561.7,750.4)" />
<use xlink:href="#f0_28" transform="matrix(12,0,0,12,566.8,750.4)" />
<use xlink:href="#f0_2f" transform="matrix(12,0,0,12,571.6,750.4)" />
<use xlink:href="#f0_13" transform="matrix(12,0,0,12,55,794.4)" />
<use xlink:href="#f0_21" transform="matrix(12,0,0,12,68.3,794.4)" />
<use xlink:href="#f0_28" transform="matrix(12,0,0,12,76.3,794.4)" />
<use xlink:href="#f0_28" transform="matrix(12,0,0,12,81.4,794.4)" />
<use xlink:href="#f0_2g" transform="matrix(12,0,0,12,91,794.4)" />
<use xlink:href="#f0_24" transform="matrix(12,0,0,12,97.2,794.4)" />
<use xlink:href="#f0_21" transform="matrix(12,0,0,12,107.4,794.4)" />
<use xlink:href="#f0_2b" transform="matrix(12,0,0,12,115.5,794.4)" />
<use xlink:href="#f0_2e" transform="matrix(12,0,0,12,124.6,794.4)" />
<use xlink:href="#f0_2l" transform="matrix(12,0,0,12,132.3,794.4)" />
</g>
<path fill-rule="evenodd" d="M55,798.1h86.6v-1.9H55v1.9Z" class="g0_147" />
<g fill="#000000" >
<use xlink:href="#f1_19" transform="matrix(12,0,0,12,55,838.1)" />
<use xlink:href="#f1_2a" transform="matrix(12,0,0,12,61.3,838.1)" />
<use xlink:href="#f1_l" transform="matrix(12,0,0,12,74.1,838.1)" />
<use xlink:href="#f1_s" transform="matrix(12,0,0,12,83.3,838.1)" />
<use xlink:href="#f1_n" transform="matrix(12,0,0,12,92.4,838.1)" />
<use xlink:href="#f1_t" transform="matrix(12,0,0,12,101.6,838.1)" />
<use xlink:href="#f1_g" transform="matrix(12,0,0,12,110.8,838.1)" />
<use xlink:href="#f1_1j" transform="matrix(12,0,0,12,119.5,838.1)" />
<use xlink:href="#f1_1z" transform="matrix(12,0,0,12,129.8,838.1)" />
<use xlink:href="#f1_24" transform="matrix(12,0,0,12,137.9,838.1)" />
<use xlink:href="#f1_28" transform="matrix(12,0,0,12,147.1,838.1)" />
<use xlink:href="#f1_21" transform="matrix(12,0,0,12,151.8,838.1)" />
<use xlink:href="#f1_25" transform="matrix(12,0,0,12,160.3,838.1)" />
<use xlink:href="#f1_20" transform="matrix(12,0,0,12,165,838.1)" />
<use xlink:href="#f1_21" transform="matrix(12,0,0,12,174.2,838.1)" />
<use xlink:href="#f1_2a" transform="matrix(12,0,0,12,182.6,838.1)" />
<use xlink:href="#f1_g" transform="matrix(12,0,0,12,191.4,838.1)" />
<use xlink:href="#f1_17" transform="matrix(12,0,0,12,200.2,838.1)" />
<use xlink:href="#f1_21" transform="matrix(12,0,0,12,213.4,838.1)" />
<use xlink:href="#f1_2e" transform="matrix(12,0,0,12,221.4,838.1)" />
<use xlink:href="#f1_29" transform="matrix(12,0,0,12,228,838.1)" />
<use xlink:href="#f1_1x" transform="matrix(12,0,0,12,242,838.1)" />
<use xlink:href="#f1_2a" transform="matrix(12,0,0,12,250.4,838.1)" />
<use xlink:href="#f1_1y" transform="matrix(12,0,0,12,263.6,838.1)" />
<use xlink:href="#f1_2b" transform="matrix(12,0,0,12,272.4,838.1)" />
<use xlink:href="#f1_2g" transform="matrix(12,0,0,12,281.9,838.1)" />
<use xlink:href="#f1_1x" transform="matrix(12,0,0,12,287.4,838.1)" />
<use xlink:href="#f1_2a" transform="matrix(12,0,0,12,295.4,838.1)" />
<use xlink:href="#f1_25" transform="matrix(12,0,0,12,304.6,838.1)" />
<use xlink:href="#f1_2f" transform="matrix(12,0,0,12,309,838.1)" />
<use xlink:href="#f1_2g" transform="matrix(12,0,0,12,316,838.1)" />
<use xlink:href="#f1_g" transform="matrix(12,0,0,12,321.5,838.1)" />
<use xlink:href="#f1_1x" transform="matrix(12,0,0,12,330.2,838.1)" />
<use xlink:href="#f1_2a" transform="matrix(12,0,0,12,338.3,838.1)" />
<use xlink:href="#f1_20" transform="matrix(12,0,0,12,347.1,838.1)" />
<use xlink:href="#f1_1j" transform="matrix(12,0,0,12,360.3,838.1)" />
<use xlink:href="#f1_1z" transform="matrix(12,0,0,12,370.9,838.1)" />
<use xlink:href="#f1_24" transform="matrix(12,0,0,12,379.3,838.1)" />
<use xlink:href="#f1_2j" transform="matrix(12,0,0,12,388.1,838.1)" />
<use xlink:href="#f1_1x" transform="matrix(12,0,0,12,401.3,838.1)" />
<use xlink:href="#f1_2a" transform="matrix(12,0,0,12,409.7,838.1)" />
<use xlink:href="#f1_2a" transform="matrix(12,0,0,12,418.8,838.1)" />
<use xlink:href="#f1_g" transform="matrix(12,0,0,12,428,838.1)" />
<use xlink:href="#f1_1x" transform="matrix(12,0,0,12,436.8,838.1)" />
<use xlink:href="#f1_12" transform="matrix(12,0,0,12,448.9,838.1)" />
<use xlink:href="#f1_2e" transform="matrix(12,0,0,12,461,838.1)" />
<use xlink:href="#f1_25" transform="matrix(12,0,0,12,467.6,838.1)" />
<use xlink:href="#f1_2g" transform="matrix(12,0,0,12,472,838.1)" />
<use xlink:href="#f1_25" transform="matrix(12,0,0,12,477.5,838.1)" />
<use xlink:href="#f1_2f" transform="matrix(12,0,0,12,482.2,838.1)" />
<use xlink:href="#f1_24" transform="matrix(12,0,0,12,489.5,838.1)" />
<use xlink:href="#f1_2m" transform="matrix(12,0,0,12,502.4,838.1)" />
<use xlink:href="#f1_2b" transform="matrix(12,0,0,12,510.4,838.1)" />
<use xlink:href="#f1_2b" transform="matrix(12,0,0,12,520,838.1)" />
<use xlink:href="#f1_28" transform="matrix(12,0,0,12,529.5,838.1)" />
<use xlink:href="#f1_2b" transform="matrix(12,0,0,12,533.9,838.1)" />
<use xlink:href="#f1_23" transform="matrix(12,0,0,12,543.4,838.1)" />
<use xlink:href="#f1_25" transform="matrix(12,0,0,12,552.9,838.1)" />
<use xlink:href="#f1_2f" transform="matrix(12,0,0,12,557.3,838.1)" />
<use xlink:href="#f1_2g" transform="matrix(12,0,0,12,564.3,838.1)" />
<use xlink:href="#f1_g" transform="matrix(12,0,0,12,569.8,838.1)" />
<use xlink:href="#f1_20" transform="matrix(12,0,0,12,578.8,838.1)" />
<use xlink:href="#f1_21" transform="matrix(12,0,0,12,588,838.1)" />
<use xlink:href="#f1_2i" transform="matrix(12,0,0,12,596,838.1)" />
<use xlink:href="#f1_21" transform="matrix(12,0,0,12,604.8,838.1)" />
<use xlink:href="#f1_28" transform="matrix(12,0,0,12,613.3,838.1)" />
<use xlink:href="#f1_2b" transform="matrix(12,0,0,12,617.7,838.1)" />
<use xlink:href="#f1_2c" transform="matrix(12,0,0,12,627.2,838.1)" />
<use xlink:href="#f1_21" transform="matrix(12,0,0,12,636.3,838.1)" />
<use xlink:href="#f1_20" transform="matrix(12,0,0,12,644.4,838.1)" />
<use xlink:href="#f1_2g" transform="matrix(12,0,0,12,657.7,838.1)" />
<use xlink:href="#f1_24" transform="matrix(12,0,0,12,663.2,838.1)" />
<use xlink:href="#f1_21" transform="matrix(12,0,0,12,672,838.1)" />
<use xlink:href="#f1_1z" transform="matrix(12,0,0,12,684.1,838.1)" />
<use xlink:href="#f1_21" transform="matrix(12,0,0,12,692.1,838.1)" />
<use xlink:href="#f1_28" transform="matrix(12,0,0,12,700.6,838.1)" />
<use xlink:href="#f1_28" transform="matrix(12,0,0,12,705.7,838.1)" />
<use xlink:href="#f1_2g" transform="matrix(12,0,0,12,714.5,838.1)" />
<use xlink:href="#f1_24" transform="matrix(12,0,0,12,720,838.1)" />
<use xlink:href="#f1_21" transform="matrix(12,0,0,12,728.8,838.1)" />
<use xlink:href="#f1_2b" transform="matrix(12,0,0,12,736.8,838.1)" />
<use xlink:href="#f1_2e" transform="matrix(12,0,0,12,746.4,838.1)" />
<use xlink:href="#f1_2l" transform="matrix(12,0,0,12,752.9,838.1)" />
<use xlink:href="#f1_2b" transform="matrix(12,0,0,12,765.4,838.1)" />
<use xlink:href="#f1_2e" transform="matrix(12,0,0,12,774.9,838.1)" />
<use xlink:href="#f1_1z" transform="matrix(12,0,0,12,785.2,838.1)" />
<use xlink:href="#f1_21" transform="matrix(12,0,0,12,793.2,838.1)" />
<use xlink:href="#f1_28" transform="matrix(12,0,0,12,801.3,838.1)" />
<use xlink:href="#f1_28" transform="matrix(12,0,0,12,806.4,838.1)" />
<use xlink:href="#f1_20" transform="matrix(12,0,0,12,815.2,838.1)" />
<use xlink:href="#f1_2b" transform="matrix(12,0,0,12,824.4,838.1)" />
<use xlink:href="#f1_1z" transform="matrix(12,0,0,12,833.9,838.1)" />
<use xlink:href="#f1_2g" transform="matrix(12,0,0,12,842,838.1)" />
<use xlink:href="#f1_2e" transform="matrix(12,0,0,12,847.1,838.1)" />
<use xlink:href="#f1_25" transform="matrix(12,0,0,12,853.3,838.1)" />
<use xlink:href="#f1_2a" transform="matrix(12,0,0,12,858.1,838.1)" />
<use xlink:href="#f1_21" transform="matrix(12,0,0,12,867.3,838.1)" />
<use xlink:href="#f1_i" transform="matrix(12,0,0,12,875.3,838.1)" />
<use xlink:href="#f1_1k" transform="matrix(12,0,0,12,55,870)" />
<use xlink:href="#f1_24" transform="matrix(12,0,0,12,66.4,870)" />
<use xlink:href="#f1_21" transform="matrix(12,0,0,12,75.2,870)" />
<use xlink:href="#f1_29" transform="matrix(12,0,0,12,88.4,870)" />
<use xlink:href="#f1_2b" transform="matrix(12,0,0,12,101.9,870)" />
<use xlink:href="#f1_20" transform="matrix(12,0,0,12,111.4,870)" />
<use xlink:href="#f1_21" transform="matrix(12,0,0,12,120.6,870)" />
<use xlink:href="#f1_2e" transform="matrix(12,0,0,12,128.7,870)" />
<use xlink:href="#f1_2a" transform="matrix(12,0,0,12,134.9,870)" />
<use xlink:href="#f1_2g" transform="matrix(12,0,0,12,148.4,870)" />
<use xlink:href="#f1_24" transform="matrix(12,0,0,12,153.9,870)" />
<use xlink:href="#f1_21" transform="matrix(12,0,0,12,162.7,870)" />
<use xlink:href="#f1_2b" transform="matrix(12,0,0,12,170.8,870)" />
<use xlink:href="#f1_2e" transform="matrix(12,0,0,12,180.3,870)" />
<use xlink:href="#f1_2l" transform="matrix(12,0,0,12,186.5,870)" />
<use xlink:href="#f1_25" transform="matrix(12,0,0,12,200.1,870)" />
<use xlink:href="#f1_2a" transform="matrix(12,0,0,12,204.8,870)" />
<use xlink:href="#f1_1z" transform="matrix(12,0,0,12,214,870)" />
<use xlink:href="#f1_28" transform="matrix(12,0,0,12,222.4,870)" />
<use xlink:href="#f1_2h" transform="matrix(12,0,0,12,227.2,870)" />
<use xlink:href="#f1_20" transform="matrix(12,0,0,12,236.4,870)" />
<use xlink:href="#f1_21" transform="matrix(12,0,0,12,245.5,870)" />
<use xlink:href="#f1_2f" transform="matrix(12,0,0,12,253.6,870)" />
<use xlink:href="#f1_2g" transform="matrix(12,0,0,12,265.3,870)" />
<use xlink:href="#f1_24" transform="matrix(12,0,0,12,270.8,870)" />
<use xlink:href="#f1_21" transform="matrix(12,0,0,12,279.6,870)" />
<use xlink:href="#f1_22" transform="matrix(12,0,0,12,292.8,870)" />
<use xlink:href="#f1_2b" transform="matrix(12,0,0,12,298.3,870)" />
<use xlink:href="#f1_28" transform="matrix(12,0,0,12,308.1,870)" />
<use xlink:href="#f1_28" transform="matrix(12,0,0,12,312.9,870)" />
<use xlink:href="#f1_2b" transform="matrix(12,0,0,12,317.3,870)" />
<use xlink:href="#f1_2j" transform="matrix(12,0,0,12,326.8,870)" />
<use xlink:href="#f1_25" transform="matrix(12,0,0,12,340.4,870)" />
<use xlink:href="#f1_2a" transform="matrix(12,0,0,12,345.1,870)" />
<use xlink:href="#f1_23" transform="matrix(12,0,0,12,354.3,870)" />
<use xlink:href="#f1_1z" transform="matrix(12,0,0,12,368.2,870)" />
<use xlink:href="#f1_2b" transform="matrix(12,0,0,12,376.3,870)" />
<use xlink:href="#f1_29" transform="matrix(12,0,0,12,385.8,870)" />
<use xlink:href="#f1_2c" transform="matrix(12,0,0,12,399.4,870)" />
<use xlink:href="#f1_2b" transform="matrix(12,0,0,12,408.5,870)" />
<use xlink:href="#f1_2a" transform="matrix(12,0,0,12,418.1,870)" />
<use xlink:href="#f1_21" transform="matrix(12,0,0,12,427.2,870)" />
<use xlink:href="#f1_2a" transform="matrix(12,0,0,12,435.3,870)" />
<use xlink:href="#f1_2g" transform="matrix(12,0,0,12,444.1,870)" />
<use xlink:href="#f1_2f" transform="matrix(12,0,0,12,449.6,870)" />
<use xlink:href="#f1_h" transform="matrix(12,0,0,12,457,870)" />
<use xlink:href="#f2_3d" transform="matrix(12,0,0,12,82.5,914.7)" />
<use xlink:href="#f1_11" transform="matrix(12,0,0,12,110,914.7)" />
<use xlink:href="#f1_28" transform="matrix(12,0,0,12,123.3,914.7)" />
<use xlink:href="#f1_28" transform="matrix(12,0,0,12,128.4,914.7)" />
<use xlink:href="#f1_28" transform="matrix(12,0,0,12,137.9,914.7)" />
<use xlink:href="#f1_25" transform="matrix(12,0,0,12,143,914.7)" />
<use xlink:href="#f1_2i" transform="matrix(12,0,0,12,147.8,914.7)" />
<use xlink:href="#f1_25" transform="matrix(12,0,0,12,157.3,914.7)" />
<use xlink:href="#f1_2a" transform="matrix(12,0,0,12,162.1,914.7)" />
<use xlink:href="#f1_23" transform="matrix(12,0,0,12,171.2,914.7)" />
<use xlink:href="#f1_2b" transform="matrix(12,0,0,12,185.1,914.7)" />
<use xlink:href="#f1_2e" transform="matrix(12,0,0,12,194.7,914.7)" />
<use xlink:href="#f1_23" transform="matrix(12,0,0,12,200.9,914.7)" />
<use xlink:href="#f1_1x" transform="matrix(12,0,0,12,210,914.7)" />
<use xlink:href="#f1_2a" transform="matrix(12,0,0,12,218.1,914.7)" />
<use xlink:href="#f1_25" transform="matrix(12,0,0,12,227.3,914.7)" />
<use xlink:href="#f1_2f" transform="matrix(12,0,0,12,232,914.7)" />
<use xlink:href="#f1_29" transform="matrix(12,0,0,12,239.4,914.7)" />
<use xlink:href="#f1_2f" transform="matrix(12,0,0,12,253.3,914.7)" />
<use xlink:href="#f1_1x" transform="matrix(12,0,0,12,265,914.7)" />
<use xlink:href="#f1_2e" transform="matrix(12,0,0,12,273.1,914.7)" />
<use xlink:href="#f1_21" transform="matrix(12,0,0,12,279.3,914.7)" />
<use xlink:href="#f1_29" transform="matrix(12,0,0,12,292.5,914.7)" />
<use xlink:href="#f1_1x" transform="matrix(12,0,0,12,306,914.7)" />
<use xlink:href="#f1_20" transform="matrix(12,0,0,12,314.1,914.7)" />
<use xlink:href="#f1_21" transform="matrix(12,0,0,12,323.3,914.7)" />
<use xlink:href="#f1_2h" transform="matrix(12,0,0,12,336.1,914.7)" />
<use xlink:href="#f1_2c" transform="matrix(12,0,0,12,345.3,914.7)" />
<use xlink:href="#f1_2b" transform="matrix(12,0,0,12,359.2,914.7)" />
<use xlink:href="#f1_22" transform="matrix(12,0,0,12,368.7,914.7)" />
<use xlink:href="#f1_1z" transform="matrix(12,0,0,12,378.9,914.7)" />
<use xlink:href="#f1_21" transform="matrix(12,0,0,12,387,914.7)" />
<use xlink:href="#f1_28" transform="matrix(12,0,0,12,395.4,914.7)" />
<use xlink:href="#f1_28" transform="matrix(12,0,0,12,400.5,914.7)" />
<use xlink:href="#f1_2f" transform="matrix(12,0,0,12,405.3,914.7)" />
<use xlink:href="#f1_i" transform="matrix(12,0,0,12,412.3,914.7)" />
<use xlink:href="#f2_3d" transform="matrix(12,0,0,12,82.5,947.7)" />
<use xlink:href="#f1_13" transform="matrix(12,0,0,12,110,947.7)" />
<use xlink:href="#f1_21" transform="matrix(12,0,0,12,122.1,947.7)" />
<use xlink:href="#f1_28" transform="matrix(12,0,0,12,130.6,947.7)" />
<use xlink:href="#f1_28" transform="matrix(12,0,0,12,135.3,947.7)" />
<use xlink:href="#f1_25" transform="matrix(12,0,0,12,145.2,947.7)" />
<use xlink:href="#f1_2f" transform="matrix(12,0,0,12,150,947.7)" />
<use xlink:href="#f1_2g" transform="matrix(12,0,0,12,161.7,947.7)" />
<use xlink:href="#f1_24" transform="matrix(12,0,0,12,167.2,947.7)" />
<use xlink:href="#f1_21" transform="matrix(12,0,0,12,176,947.7)" />
<use xlink:href="#f1_2f" transform="matrix(12,0,0,12,188.8,947.7)" />
<use xlink:href="#f1_2g" transform="matrix(12,0,0,12,195.7,947.7)" />
<use xlink:href="#f1_2e" transform="matrix(12,0,0,12,201.2,947.7)" />
<use xlink:href="#f1_2h" transform="matrix(12,0,0,12,207.4,947.7)" />
<use xlink:href="#f1_1z" transform="matrix(12,0,0,12,216.6,947.7)" />
<use xlink:href="#f1_2g" transform="matrix(12,0,0,12,224.3,947.7)" />
<use xlink:href="#f1_2h" transform="matrix(12,0,0,12,229.8,947.7)" />
<use xlink:href="#f1_2e" transform="matrix(12,0,0,12,239,947.7)" />
<use xlink:href="#f1_1x" transform="matrix(12,0,0,12,245.2,947.7)" />
<use xlink:href="#f1_28" transform="matrix(12,0,0,12,253.2,947.7)" />
<use xlink:href="#f1_1x" transform="matrix(12,0,0,12,262.4,947.7)" />
<use xlink:href="#f1_2a" transform="matrix(12,0,0,12,270.8,947.7)" />
<use xlink:href="#f1_20" transform="matrix(12,0,0,12,279.6,947.7)" />
<use xlink:href="#f1_22" transform="matrix(12,0,0,12,293.9,947.7)" />
<use xlink:href="#f1_2h" transform="matrix(12,0,0,12,299.4,947.7)" />
<use xlink:href="#f1_2a" transform="matrix(12,0,0,12,308.9,947.7)" />
<use xlink:href="#f1_1z" transform="matrix(12,0,0,12,317.7,947.7)" />
<use xlink:href="#f1_2g" transform="matrix(12,0,0,12,325.8,947.7)" />
<use xlink:href="#f1_25" transform="matrix(12,0,0,12,331.6,947.7)" />
<use xlink:href="#f1_2b" transform="matrix(12,0,0,12,336,947.7)" />
<use xlink:href="#f1_2a" transform="matrix(12,0,0,12,345.5,947.7)" />
<use xlink:href="#f1_1x" transform="matrix(12,0,0,12,354.3,947.7)" />
<use xlink:href="#f1_28" transform="matrix(12,0,0,12,362.7,947.7)" />
<use xlink:href="#f1_2h" transform="matrix(12,0,0,12,371.9,947.7)" />
<use xlink:href="#f1_2a" transform="matrix(12,0,0,12,381.4,947.7)" />
<use xlink:href="#f1_25" transform="matrix(12,0,0,12,390.6,947.7)" />
<use xlink:href="#f1_2g" transform="matrix(12,0,0,12,395,947.7)" />
<use xlink:href="#f1_2b" transform="matrix(12,0,0,12,405.2,947.7)" />
<use xlink:href="#f1_22" transform="matrix(12,0,0,12,414.7,947.7)" />
<use xlink:href="#f1_28" transform="matrix(12,0,0,12,425.3,947.7)" />
<use xlink:href="#f1_25" transform="matrix(12,0,0,12,430.4,947.7)" />
<use xlink:href="#f1_22" transform="matrix(12,0,0,12,435.2,947.7)" />
<use xlink:href="#f1_21" transform="matrix(12,0,0,12,441.1,947.7)" />
<use xlink:href="#f1_i" transform="matrix(12,0,0,12,449.2,947.7)" />
<use xlink:href="#f2_3d" transform="matrix(12,0,0,12,82.5,980.8)" />
<use xlink:href="#f1_11" transform="matrix(12,0,0,12,110,980.8)" />
<use xlink:href="#f1_28" transform="matrix(12,0,0,12,123.3,980.8)" />
<use xlink:href="#f1_28" transform="matrix(12,0,0,12,128.4,980.8)" />
<use xlink:href="#f1_1z" transform="matrix(12,0,0,12,137.9,980.8)" />
<use xlink:href="#f1_21" transform="matrix(12,0,0,12,146,980.8)" />
<use xlink:href="#f1_28" transform="matrix(12,0,0,12,154.4,980.8)" />
<use xlink:href="#f1_28" transform="matrix(12,0,0,12,159.5,980.8)" />
<use xlink:href="#f1_2f" transform="matrix(12,0,0,12,164.3,980.8)" />
<use xlink:href="#f1_1x" transform="matrix(12,0,0,12,176,980.8)" />
<use xlink:href="#f1_2e" transform="matrix(12,0,0,12,184,980.8)" />
<use xlink:href="#f1_25" transform="matrix(12,0,0,12,190.6,980.8)" />
<use xlink:href="#f1_2f" transform="matrix(12,0,0,12,195.4,980.8)" />
<use xlink:href="#f1_21" transform="matrix(12,0,0,12,202.4,980.8)" />
<use xlink:href="#f1_22" transform="matrix(12,0,0,12,215.5,980.8)" />
<use xlink:href="#f1_2e" transform="matrix(12,0,0,12,221,980.8)" />
<use xlink:href="#f1_2b" transform="matrix(12,0,0,12,227.3,980.8)" />
<use xlink:href="#f1_29" transform="matrix(12,0,0,12,237.1,980.8)" />
<use xlink:href="#f1_2g" transform="matrix(12,0,0,12,255.5,980.8)" />
<use xlink:href="#f1_24" transform="matrix(12,0,0,12,260.9,980.8)" />
<use xlink:href="#f1_21" transform="matrix(12,0,0,12,269.7,980.8)" />
<use xlink:href="#f1_2c" transform="matrix(12,0,0,12,282.6,980.8)" />
<use xlink:href="#f1_2e" transform="matrix(12,0,0,12,291.7,980.8)" />
<use xlink:href="#f1_21" transform="matrix(12,0,0,12,297.9,980.8)" />
<use xlink:href="#f1_h" transform="matrix(12,0,0,12,306.3,980.8)" />
<use xlink:href="#f1_21" transform="matrix(12,0,0,12,312.5,980.8)" />
<use xlink:href="#f1_2k" transform="matrix(12,0,0,12,320.6,980.8)" />
<use xlink:href="#f1_25" transform="matrix(12,0,0,12,329.7,980.8)" />
<use xlink:href="#f1_2f" transform="matrix(12,0,0,12,334.5,980.8)" />
<use xlink:href="#f1_2g" transform="matrix(12,0,0,12,341.5,980.8)" />
<use xlink:href="#f1_25" transform="matrix(12,0,0,12,347,980.8)" />
<use xlink:href="#f1_2a" transform="matrix(12,0,0,12,351.7,980.8)" />
<use xlink:href="#f1_23" transform="matrix(12,0,0,12,360.5,980.8)" />
<use xlink:href="#f1_1z" transform="matrix(12,0,0,12,374.4,980.8)" />
<use xlink:href="#f1_21" transform="matrix(12,0,0,12,382.5,980.8)" />
<use xlink:href="#f1_28" transform="matrix(12,0,0,12,390.9,980.8)" />
<use xlink:href="#f1_28" transform="matrix(12,0,0,12,396,980.8)" />
<use xlink:href="#f1_2f" transform="matrix(12,0,0,12,400.8,980.8)" />
<use xlink:href="#f1_i" transform="matrix(12,0,0,12,407.8,980.8)" />
<use xlink:href="#f1_1k" transform="matrix(12,0,0,12,417.4,980.8)" />
<use xlink:href="#f1_24" transform="matrix(12,0,0,12,428.8,980.8)" />
<use xlink:href="#f1_25" transform="matrix(12,0,0,12,437.9,980.8)" />
<use xlink:href="#f1_2f" transform="matrix(12,0,0,12,442.7,980.8)" />
<use xlink:href="#f1_2j" transform="matrix(12,0,0,12,454.4,980.8)" />
<use xlink:href="#f1_1x" transform="matrix(12,0,0,12,467.7,980.8)" />
<use xlink:href="#f1_2f" transform="matrix(12,0,0,12,476,980.8)" />
<use xlink:href="#f1_23" transform="matrix(12,0,0,12,488.1,980.8)" />
<use xlink:href="#f1_25" transform="matrix(12,0,0,12,497.3,980.8)" />
<use xlink:href="#f1_2i" transform="matrix(12,0,0,12,502,980.8)" />
<use xlink:href="#f1_21" transform="matrix(12,0,0,12,511.2,980.8)" />
<use xlink:href="#f1_2a" transform="matrix(12,0,0,12,519.6,980.8)" />
<use xlink:href="#f1_1y" transform="matrix(12,0,0,12,533.2,980.8)" />
<use xlink:href="#f1_2l" transform="matrix(12,0,0,12,542.3,980.8)" />
<use xlink:href="#f1_1i" transform="matrix(12,0,0,12,555.9,980.8)" />
<use xlink:href="#f1_2h" transform="matrix(12,0,0,12,568,980.8)" />
<use xlink:href="#f1_20" transform="matrix(12,0,0,12,577.1,980.8)" />
<use xlink:href="#f1_2b" transform="matrix(12,0,0,12,586.3,980.8)" />
<use xlink:href="#f1_28" transform="matrix(12,0,0,12,596.2,980.8)" />
<use xlink:href="#f1_22" transform="matrix(12,0,0,12,601,980.8)" />
<use xlink:href="#f1_1m" transform="matrix(12,0,0,12,611.2,980.8)" />
<use xlink:href="#f1_25" transform="matrix(12,0,0,12,624.8,980.8)" />
<use xlink:href="#f1_2e" transform="matrix(12,0,0,12,629.5,980.8)" />
<use xlink:href="#f1_1z" transform="matrix(12,0,0,12,635.7,980.8)" />
<use xlink:href="#f1_24" transform="matrix(12,0,0,12,644.1,980.8)" />
<use xlink:href="#f1_2b" transform="matrix(12,0,0,12,652.9,980.8)" />
<use xlink:href="#f1_2j" transform="matrix(12,0,0,12,662.5,980.8)" />
<use xlink:href="#f1_i" transform="matrix(12,0,0,12,675.7,980.8)" />
<use xlink:href="#f2_3d" transform="matrix(12,0,0,12,82.5,1013.8)" />
<use xlink:href="#f1_15" transform="matrix(12,0,0,12,110,1013.8)" />
<use xlink:href="#f1_2a" transform="matrix(12,0,0,12,121.4,1013.8)" />
<use xlink:href="#f1_21" transform="matrix(12,0,0,12,130.2,1013.8)" />
<use xlink:href="#f1_2e" transform="matrix(12,0,0,12,138.3,1013.8)" />
<use xlink:href="#f1_23" transform="matrix(12,0,0,12,144.5,1013.8)" />
<use xlink:href="#f1_2l" transform="matrix(12,0,0,12,154,1013.8)" />
<use xlink:href="#f1_22" transform="matrix(12,0,0,12,167.5,1013.8)" />
<use xlink:href="#f1_28" transform="matrix(12,0,0,12,173.4,1013.8)" />
<use xlink:href="#f1_2b" transform="matrix(12,0,0,12,177.8,1013.8)" />
<use xlink:href="#f1_2j" transform="matrix(12,0,0,12,187.3,1013.8)" />
<use xlink:href="#f1_2b" transform="matrix(12,0,0,12,205.3,1013.8)" />
<use xlink:href="#f1_1z" transform="matrix(12,0,0,12,214.8,1013.8)" />
<use xlink:href="#f1_1z" transform="matrix(12,0,0,12,222.8,1013.8)" />
<use xlink:href="#f1_2h" transform="matrix(12,0,0,12,230.9,1013.8)" />
<use xlink:href="#f1_2e" transform="matrix(12,0,0,12,240.1,1013.8)" />
<use xlink:href="#f1_2f" transform="matrix(12,0,0,12,246.3,1013.8)" />
<use xlink:href="#f1_2j" transform="matrix(12,0,0,12,258,1013.8)" />
<use xlink:href="#f1_25" transform="matrix(12,0,0,12,271.6,1013.8)" />
<use xlink:href="#f1_2g" transform="matrix(12,0,0,12,276,1013.8)" />
<use xlink:href="#f1_24" transform="matrix(12,0,0,12,281.4,1013.8)" />
<use xlink:href="#f1_25" transform="matrix(12,0,0,12,290.6,1013.8)" />
<use xlink:href="#f1_2a" transform="matrix(12,0,0,12,295.4,1013.8)" />
<use xlink:href="#f1_2g" transform="matrix(12,0,0,12,308.9,1013.8)" />
<use xlink:href="#f1_24" transform="matrix(12,0,0,12,314.4,1013.8)" />
<use xlink:href="#f1_21" transform="matrix(12,0,0,12,323.5,1013.8)" />
<use xlink:href="#f1_1z" transform="matrix(12,0,0,12,336.3,1013.8)" />
<use xlink:href="#f1_21" transform="matrix(12,0,0,12,344.4,1013.8)" />
<use xlink:href="#f1_28" transform="matrix(12,0,0,12,352.8,1013.8)" />
<use xlink:href="#f1_28" transform="matrix(12,0,0,12,357.9,1013.8)" />
<use xlink:href="#f1_2f" transform="matrix(12,0,0,12,362.7,1013.8)" />
<use xlink:href="#f1_i" transform="matrix(12,0,0,12,369.7,1013.8)" />
<use xlink:href="#f2_3d" transform="matrix(12,0,0,12,82.5,1046.4)" />
<use xlink:href="#f1_13" transform="matrix(12,0,0,12,110,1046.4)" />
<use xlink:href="#f1_21" transform="matrix(12,0,0,12,122.1,1046.4)" />
<use xlink:href="#f1_28" transform="matrix(12,0,0,12,130.6,1046.4)" />
<use xlink:href="#f1_28" transform="matrix(12,0,0,12,135.3,1046.4)" />
<use xlink:href="#f1_2f" transform="matrix(12,0,0,12,140.1,1046.4)" />
<use xlink:href="#f1_1z" transform="matrix(12,0,0,12,151.8,1046.4)" />
<use xlink:href="#f1_2b" transform="matrix(12,0,0,12,159.9,1046.4)" />
<use xlink:href="#f1_2a" transform="matrix(12,0,0,12,169.4,1046.4)" />
<use xlink:href="#f1_2g" transform="matrix(12,0,0,12,178.2,1046.4)" />
<use xlink:href="#f1_1x" transform="matrix(12,0,0,12,183.7,1046.4)" />
<use xlink:href="#f1_25" transform="matrix(12,0,0,12,192.1,1046.4)" />
<use xlink:href="#f1_2a" transform="matrix(12,0,0,12,196.8,1046.4)" />
<use xlink:href="#f1_2f" transform="matrix(12,0,0,12,206,1046.4)" />
<use xlink:href="#f1_2g" transform="matrix(12,0,0,12,217.7,1046.4)" />
<use xlink:href="#f1_24" transform="matrix(12,0,0,12,223.2,1046.4)" />
<use xlink:href="#f1_21" transform="matrix(12,0,0,12,232,1046.4)" />
<use xlink:href="#f1_24" transform="matrix(12,0,0,12,244.8,1046.4)" />
<use xlink:href="#f1_21" transform="matrix(12,0,0,12,253.6,1046.4)" />
<use xlink:href="#f1_2e" transform="matrix(12,0,0,12,261.7,1046.4)" />
<use xlink:href="#f1_21" transform="matrix(12,0,0,12,267.9,1046.4)" />
<use xlink:href="#f1_20" transform="matrix(12,0,0,12,276,1046.4)" />
<use xlink:href="#f1_25" transform="matrix(12,0,0,12,285.5,1046.4)" />
<use xlink:href="#f1_2g" transform="matrix(12,0,0,12,289.9,1046.4)" />
<use xlink:href="#f1_2l" transform="matrix(12,0,0,12,295.7,1046.4)" />
<use xlink:href="#f1_25" transform="matrix(12,0,0,12,309.3,1046.4)" />
<use xlink:href="#f1_2a" transform="matrix(12,0,0,12,314,1046.4)" />
<use xlink:href="#f1_22" transform="matrix(12,0,0,12,323.6,1046.4)" />
<use xlink:href="#f1_2b" transform="matrix(12,0,0,12,329.1,1046.4)" />
<use xlink:href="#f1_2e" transform="matrix(12,0,0,12,338.6,1046.4)" />
<use xlink:href="#f1_29" transform="matrix(12,0,0,12,345.2,1046.4)" />
<use xlink:href="#f1_1x" transform="matrix(12,0,0,12,358.7,1046.4)" />
<use xlink:href="#f1_2g" transform="matrix(12,0,0,12,366.8,1046.4)" />
<use xlink:href="#f1_25" transform="matrix(12,0,0,12,372.6,1046.4)" />
<use xlink:href="#f1_2b" transform="matrix(12,0,0,12,377,1046.4)" />
<use xlink:href="#f1_2a" transform="matrix(12,0,0,12,386.6,1046.4)" />
<use xlink:href="#f1_2j" transform="matrix(12,0,0,12,400.1,1046.4)" />
<use xlink:href="#f1_24" transform="matrix(12,0,0,12,413.7,1046.4)" />
<use xlink:href="#f1_25" transform="matrix(12,0,0,12,422.8,1046.4)" />
<use xlink:href="#f1_1z" transform="matrix(12,0,0,12,427.6,1046.4)" />
<use xlink:href="#f1_24" transform="matrix(12,0,0,12,436,1046.4)" />
<use xlink:href="#f1_25" transform="matrix(12,0,0,12,449.9,1046.4)" />
<use xlink:href="#f1_2f" transform="matrix(12,0,0,12,454.7,1046.4)" />
<use xlink:href="#f1_2c" transform="matrix(12,0,0,12,466.4,1046.4)" />
<use xlink:href="#f1_1x" transform="matrix(12,0,0,12,475.6,1046.4)" />
<use xlink:href="#f1_2f" transform="matrix(12,0,0,12,483.6,1046.4)" />
<use xlink:href="#f1_2f" transform="matrix(12,0,0,12,490.6,1046.4)" />
<use xlink:href="#f1_21" transform="matrix(12,0,0,12,497.6,1046.4)" />
<use xlink:href="#f1_20" transform="matrix(12,0,0,12,505.6,1046.4)" />
<use xlink:href="#f1_22" transform="matrix(12,0,0,12,519.9,1046.4)" />
<use xlink:href="#f1_2e" transform="matrix(12,0,0,12,525.4,1046.4)" />
<use xlink:href="#f1_2b" transform="matrix(12,0,0,12,531.6,1046.4)" />
<use xlink:href="#f1_29" transform="matrix(12,0,0,12,541.5,1046.4)" />
<use xlink:href="#f1_1z" transform="matrix(12,0,0,12,559.8,1046.4)" />
<use xlink:href="#f1_21" transform="matrix(12,0,0,12,567.9,1046.4)" />
<use xlink:href="#f1_28" transform="matrix(12,0,0,12,576.3,1046.4)" />
<use xlink:href="#f1_28" transform="matrix(12,0,0,12,581.1,1046.4)" />
<use xlink:href="#f1_2g" transform="matrix(12,0,0,12,590.6,1046.4)" />
<use xlink:href="#f1_2b" transform="matrix(12,0,0,12,596.1,1046.4)" />
<use xlink:href="#f1_1z" transform="matrix(12,0,0,12,610,1046.4)" />
<use xlink:href="#f1_21" transform="matrix(12,0,0,12,618.1,1046.4)" />
<use xlink:href="#f1_28" transform="matrix(12,0,0,12,626.5,1046.4)" />
<use xlink:href="#f1_28" transform="matrix(12,0,0,12,631.2,1046.4)" />
<use xlink:href="#f1_i" transform="matrix(12,0,0,12,635.6,1046.4)" />
<use xlink:href="#f2_3d" transform="matrix(12,0,0,12,82.5,1079.4)" />
<use xlink:href="#f1_11" transform="matrix(12,0,0,12,110,1079.4)" />
<use xlink:href="#f1_28" transform="matrix(12,0,0,12,123.3,1079.4)" />
<use xlink:href="#f1_28" transform="matrix(12,0,0,12,128.4,1079.4)" />
<use xlink:href="#f1_1z" transform="matrix(12,0,0,12,137.9,1079.4)" />
<use xlink:href="#f1_21" transform="matrix(12,0,0,12,146,1079.4)" />
<use xlink:href="#f1_28" transform="matrix(12,0,0,12,154.4,1079.4)" />
<use xlink:href="#f1_28" transform="matrix(12,0,0,12,159.5,1079.4)" />
<use xlink:href="#f1_2f" transform="matrix(12,0,0,12,164.3,1079.4)" />
<use xlink:href="#f1_24" transform="matrix(12,0,0,12,176,1079.4)" />
<use xlink:href="#f1_1x" transform="matrix(12,0,0,12,185.1,1079.4)" />
<use xlink:href="#f1_2i" transform="matrix(12,0,0,12,193.6,1079.4)" />
<use xlink:href="#f1_21" transform="matrix(12,0,0,12,202.4,1079.4)" />
<use xlink:href="#f1_2f" transform="matrix(12,0,0,12,215.2,1079.4)" />
<use xlink:href="#f1_1x" transform="matrix(12,0,0,12,222.1,1079.4)" />
<use xlink:href="#f1_29" transform="matrix(12,0,0,12,230.6,1079.4)" />
<use xlink:href="#f1_21" transform="matrix(12,0,0,12,244.5,1079.4)" />
<use xlink:href="#f1_1z" transform="matrix(12,0,0,12,257.3,1079.4)" />
<use xlink:href="#f1_24" transform="matrix(12,0,0,12,265.7,1079.4)" />
<use xlink:href="#f1_21" transform="matrix(12,0,0,12,274.5,1079.4)" />
<use xlink:href="#f1_29" transform="matrix(12,0,0,12,282.9,1079.4)" />
<use xlink:href="#f1_25" transform="matrix(12,0,0,12,297.2,1079.4)" />
<use xlink:href="#f1_1z" transform="matrix(12,0,0,12,302,1079.4)" />
<use xlink:href="#f1_1x" transform="matrix(12,0,0,12,310.1,1079.4)" />
<use xlink:href="#f1_28" transform="matrix(12,0,0,12,318.5,1079.4)" />
<use xlink:href="#f1_1z" transform="matrix(12,0,0,12,328,1079.4)" />
<use xlink:href="#f1_2b" transform="matrix(12,0,0,12,336.1,1079.4)" />
<use xlink:href="#f1_29" transform="matrix(12,0,0,12,345.9,1079.4)" />
<use xlink:href="#f1_2c" transform="matrix(12,0,0,12,359.5,1079.4)" />
<use xlink:href="#f1_2b" transform="matrix(12,0,0,12,368.7,1079.4)" />
<use xlink:href="#f1_2f" transform="matrix(12,0,0,12,378.2,1079.4)" />
<use xlink:href="#f1_25" transform="matrix(12,0,0,12,385.5,1079.4)" />
<use xlink:href="#f1_2g" transform="matrix(12,0,0,12,389.9,1079.4)" />
<use xlink:href="#f1_25" transform="matrix(12,0,0,12,395.8,1079.4)" />
<use xlink:href="#f1_2b" transform="matrix(12,0,0,12,400.2,1079.4)" />
<use xlink:href="#f1_2a" transform="matrix(12,0,0,12,409.7,1079.4)" />
<use xlink:href="#f1_i" transform="matrix(12,0,0,12,418.5,1079.4)" />
</g>
<image preserveAspectRatio="none" x="250" y="325" width="435" height="385" xlink:href="img/1.png" />
<g fill="#000000" >
<use xlink:href="#f3_l" transform="matrix(8,0,0,8,818.2,1187.9)" />
</g>
<defs>
<path d="M608,-14c0,0,-251,0,-392,133C216,119,75,252,75,488c0,0,0,257,134,390c0,0,135,133,398,133c0,0,174,0,361,-50l4,-240H905L884,866c0,0,-98,67,-229,67c0,0,-173,0,-253,-108c0,0,-80,-108,-80,-334c0,0,0,-209,84,-319c0,0,83,-109,243,-109c0,0,84,0,147,22c0,0,63,22,99,53l24,164h68L982,48C982,48,915,22,808,4C808,4,700,-14,608,-14Z" 
id="f0_13"
transform="scale(0.001,-0.001)" />

<path d="M434,423c0,0,0,101,-7,142c0,0,-6,40,-22,60c0,0,-16,19,-45,19c0,0,-44,0,-66,-48c0,0,-22,-49,-22,-173ZM389,-14c0,0,-172,0,-254,89c0,0,-83,90,-83,279c0,0,0,184,79,274c0,0,79,91,238,91c0,0,142,0,206,-76c0,0,64,-76,64,-237V345H271V333c0,0,0,-111,18,-158c0,0,18,-47,58,-72c0,0,40,-25,110,-25c0,0,66,0,166,22V42C623,42,582,18,517,1c0,0,-66,-15,-128,-15Z" 
id="f0_21"
transform="scale(0.001,-0.001)" />

<path d="M30,0V49l76,18V992l-72,18v50H322V67L398,49V0Z" 
id="f0_28"
transform="scale(0.001,-0.001)" />

<path d="M248,-20c0,0,-52,0,-87,34c0,0,-36,36,-36,88c0,0,0,52,36,88c0,0,35,36,87,36c0,0,52,0,88,-36c0,0,36,-36,36,-88c0,0,0,-51,-36,-87c0,0,-35,-35,-88,-35Zm0,488c0,0,-52,0,-87,36c0,0,-36,36,-36,88c0,0,0,52,35,88c0,0,35,36,88,36c0,0,53,0,89,-36c0,0,35,-37,35,-88c0,0,0,-51,-36,-87c0,0,-35,-37,-88,-37Z" 
id="f0_u"
transform="scale(0.001,-0.001)" />

<path d="M231,0V54L390,74V921H352c0,0,-171,0,-240,-15L92,721H24v279H996V721H927L907,906c0,0,-62,14,-245,14H626V74L785,54V0Z" 
id="f0_1k"
transform="scale(0.001,-0.001)" />

<path d="M41,0V49l69,18V992l-72,18v50H325V756c0,0,0,-49,-4,-116l51,26c0,0,106,54,190,54c0,0,194,0,194,-207V67L827,49V0H478V49l63,18V484c0,0,0,63,-27,98c0,0,-26,35,-75,35c0,0,-57,0,-114,-25V67L389,49V0Z" 
id="f0_24"
transform="scale(0.001,-0.001)" />

<path d="M287,-18c0,0,-194,0,-194,206V634L23,652v49H309V217c0,0,0,-63,26,-98c0,0,27,-35,76,-35c0,0,57,0,113,25V634l-64,18v49H740V67L809,49V0H536L526,61L475,35c0,0,-104,-53,-188,-53Z" 
id="f0_2h"
transform="scale(0.001,-0.001)" />

<path d="M41,0V49l69,18V634L41,652v49H313l11,-61l50,26c0,0,105,54,188,54c0,0,194,0,194,-207V67L827,49V0H478V49l63,18V484c0,0,0,63,-27,98c0,0,-26,35,-75,35c0,0,-57,0,-114,-25V67L389,49V0Z" 
id="f0_2a"
transform="scale(0.001,-0.001)" />

<path d="M34,0V49l76,18V634L38,652v49H325V67L402,49V0ZM217,831c0,0,-48,0,-81,33c0,0,-34,33,-34,82c0,0,0,48,34,81c0,0,34,33,81,33c0,0,48,0,81,-33c0,0,33,-33,33,-81c0,0,0,-47,-33,-81c0,0,-32,-34,-81,-34Z" 
id="f0_25"
transform="scale(0.001,-0.001)" />

<path d="M327,-14c0,0,-101,0,-156,45c0,0,-55,45,-55,131V624H25v48l108,29l87,159H332V701H480V624H332V176c0,0,0,-49,20,-73c0,0,20,-25,53,-25c0,0,40,0,97,12V26c0,0,-22,-15,-76,-27c0,0,-55,-13,-99,-13Z" 
id="f0_2g"
transform="scale(0.001,-0.001)" />

<path d="M379,60c0,0,59,0,84,64c0,0,24,65,24,231c0,0,0,164,-24,227c0,0,-24,63,-84,63c0,0,-57,0,-80,-60c0,0,-22,-61,-22,-230c0,0,0,-173,23,-234c0,0,22,-61,79,-61Zm-2,-74c0,0,-161,0,-240,91c0,0,-79,91,-79,277c0,0,0,186,80,276c0,0,81,90,245,90c0,0,167,0,245,-93c0,0,78,-93,78,-273c0,0,0,-188,-81,-278c0,0,-81,-90,-248,-90Z" 
id="f0_2b"
transform="scale(0.001,-0.001)" />

<path d="M41,0V49l76,18V624H11v51l106,29v75c0,0,0,144,73,220c0,0,73,77,210,77c0,0,74,0,124,-15V894H476l-22,81c0,0,-18,17,-47,17c0,0,-74,0,-74,-189V701H475V624H333V67L447,49V0Z" 
id="f0_22"
transform="scale(0.001,-0.001)" />

<path d="M235,0V40L394,60V936H356c0,0,-189,0,-258,-15L78,766H28v234H908V766H857L837,921c0,0,-22,5,-98,9c0,0,-75,4,-165,4H538V60L697,40V0Z" 
id="f1_1k"
transform="scale(0.001,-0.001)" />

<path d="M442,0V33l93,19V504c0,0,0,129,-124,129c0,0,-70,0,-168,-22V52L338,33V0H31V33l88,19v956L15,1026v34H243V756c0,0,0,-77,-5,-112c0,0,54,31,122,53c0,0,68,23,115,23c0,0,91,0,137,-53c0,0,47,-53,47,-154V52L744,33V0Z" 
id="f1_24"
transform="scale(0.001,-0.001)" />

<path d="M495,413c0,0,0,133,-34,190c0,0,-34,57,-105,57c0,0,-78,0,-119,-63c0,0,-42,-62,-42,-184ZM374,-14c0,0,-163,0,-239,87c0,0,-75,88,-75,283c0,0,0,183,77,273c0,0,76,91,219,91c0,0,269,0,269,-306V353H194V340c0,0,0,-103,23,-160c0,0,22,-57,70,-87c0,0,47,-29,124,-29c0,0,40,0,96,6c0,0,55,7,91,15V43C598,43,562,20,500,3c0,0,-61,-17,-126,-17Z" 
id="f1_21"
transform="scale(0.001,-0.001)" />

<path d="M376,50c0,0,103,0,149,80c0,0,46,81,46,240c0,0,0,137,-47,204c0,0,-48,67,-148,67c0,0,-44,0,-87,-7c0,0,-44,-8,-63,-17V62c0,0,63,-12,150,-12Zm3,-64c0,0,-64,0,-141,14c0,0,-78,14,-136,37v971L0,1026v34H226V809c0,0,0,-40,-4,-148c0,0,74,59,188,59c0,0,143,0,219,-87c0,0,77,-87,77,-263c0,0,0,-189,-84,-287c0,0,-84,-97,-243,-97Z" 
id="f1_1y"
transform="scale(0.001,-0.001)" />

<path d="M284,67c0,0,51,0,88,12c0,0,37,12,74,30V358l-98,-3c0,0,-100,-4,-135,-39c0,0,-35,-35,-35,-117c0,0,0,-132,106,-132ZM233,-14c0,0,-179,0,-179,208c0,0,0,70,27,116c0,0,27,46,87,70c0,0,60,24,173,27l105,3V519c0,0,0,72,-26,107c0,0,-27,34,-82,34c0,0,-75,0,-137,-35L176,538H134V691c0,0,121,26,213,26c0,0,115,0,169,-47c0,0,54,-47,54,-144V52L657,33V0H465L451,70c0,0,-85,-84,-218,-84Z" 
id="f1_1x"
transform="scale(0.001,-0.001)" />

<path d="M278,-14c0,0,-52,0,-115,11c0,0,-63,10,-99,23V193H98L134,95c0,0,56,-50,146,-50c0,0,144,0,144,123c0,0,0,91,-114,130l-66,21c0,0,-75,25,-110,50c0,0,-34,26,-53,63c0,0,-18,36,-18,89c0,0,0,92,63,145c0,0,63,54,170,54c0,0,77,0,193,-23V544H454l-32,81c0,0,-39,35,-124,35c0,0,-61,0,-92,-30c0,0,-32,-30,-32,-80c0,0,0,-43,29,-72c0,0,28,-29,86,-48c0,0,110,-38,144,-55c0,0,33,-17,57,-42c0,0,23,-25,36,-57c0,0,13,-32,13,-79c0,0,0,-104,-66,-158c0,0,-66,-53,-195,-53Z" 
id="f1_2f"
transform="scale(0.001,-0.001)" />

<path d="M32,0V33L151,52V649L52,668v33H275V52L395,33V0ZM201,850c0,0,-32,0,-56,24c0,0,-24,24,-24,56c0,0,0,34,24,58c0,0,24,24,56,24c0,0,34,0,58,-24c0,0,24,-24,24,-58c0,0,0,-32,-24,-56c0,0,-24,-24,-58,-24Z" 
id="f1_25"
transform="scale(0.001,-0.001)" />

<path d="M399,-14c0,0,-341,0,-341,370c0,0,0,175,87,269c0,0,87,95,249,95c0,0,101,0,220,-23V501H573L541,625c0,0,-62,35,-149,35c0,0,-200,0,-200,-304c0,0,0,-158,61,-225c0,0,61,-67,189,-67c0,0,109,0,189,24V43C631,43,595,16,530,1c0,0,-64,-15,-131,-15Z" 
id="f1_1z"
transform="scale(0.001,-0.001)" />

<path d="M249,-14c0,0,-71,0,-107,42c0,0,-35,42,-35,119V639H15v33l93,29l76,159h47V701H391V639H231V161c0,0,0,-48,22,-73c0,0,22,-24,57,-24c0,0,44,0,106,12V26C416,26,389,8,340,-2c0,0,-49,-12,-91,-12Z" 
id="f1_2g"
transform="scale(0.001,-0.001)" />

<path d="M31,0V33l88,19V649L31,668v33H235l7,-87c0,0,44,37,121,71c0,0,76,35,121,35h11V530H463l-43,82c0,0,-37,0,-88,-10c0,0,-52,-10,-89,-26V52L363,33V0Z" 
id="f1_2e"
transform="scale(0.001,-0.001)" />

<path d="M289,-14c0,0,-179,0,-179,205V649L20,668v33H233V200c0,0,0,-128,120,-128c0,0,92,0,173,23V649L420,668v33H649V52L738,33V0H533l-6,57C527,57,474,28,405,7c0,0,-69,-21,-116,-21Z" 
id="f1_2h"
transform="scale(0.001,-0.001)" />

<path d="M31,0V33L150,52v956L31,1026v34H274V52L394,33V0Z" 
id="f1_28"
transform="scale(0.001,-0.001)" />

<path d="M439,0V33l93,19V500c0,0,0,62,-30,97c0,0,-31,36,-94,36c0,0,-67,0,-165,-22V52L338,33V0H35V33l84,19V649L35,668v33H235l7,-57c0,0,57,33,122,54c0,0,65,22,108,22c0,0,91,0,137,-53c0,0,47,-53,47,-154V52L741,33V0Z" 
id="f1_2a"
transform="scale(0.001,-0.001)" />

<path d="M383,64c0,0,85,0,152,28V645c0,0,-67,13,-152,13c0,0,-194,0,-194,-314c0,0,0,-141,48,-211c0,0,48,-69,146,-69ZM342,-14c0,0,-287,0,-287,358c0,0,0,184,82,280c0,0,81,96,239,96c0,0,81,0,163,-18c0,0,-4,25,-4,124v182l-118,18v34H659V52L745,33V0H548l-9,52c0,0,-84,-66,-197,-66Z" 
id="f1_20"
transform="scale(0.001,-0.001)" />

<path d="M64,0V34L168,59V639H47v36l121,29v49c0,0,0,155,61,239c0,0,62,84,173,84c0,0,58,0,107,-15V908H472l-33,92c0,0,-26,16,-62,16c0,0,-47,0,-66,-42c0,0,-19,-42,-19,-157V701H478V639H292V59L443,34V0Z" 
id="f1_22"
transform="scale(0.001,-0.001)" />

<path d="M377,45c0,0,99,0,147,73c0,0,47,73,47,237c0,0,0,161,-47,233c0,0,-47,72,-147,72c0,0,-97,0,-141,-69c0,0,-44,-69,-44,-236c0,0,0,-169,45,-240c0,0,44,-70,140,-70Zm0,-59c0,0,-158,0,-238,94c0,0,-81,95,-81,274c0,0,0,178,81,272c0,0,80,94,244,94c0,0,160,0,241,-92c0,0,82,-92,82,-274c0,0,0,-368,-329,-368Z" 
id="f1_2b"
transform="scale(0.001,-0.001)" />

<path d="M382,45c0,0,188,0,188,314c0,0,0,143,-47,213c0,0,-46,69,-141,69c0,0,-87,0,-146,-24V58c0,0,67,-13,146,-13ZM25,-325v35l88,18V649L34,668v33H231l1,-41c0,0,31,27,84,43c0,0,53,17,107,17c0,0,134,0,208,-94c0,0,73,-93,73,-267c0,0,0,-178,-80,-276c0,0,-80,-97,-232,-97c0,0,-84,0,-160,16c0,0,4,-53,4,-84V-272l123,-18v-35Z" 
id="f1_2c"
transform="scale(0.001,-0.001)" />

<path d="M13,0V34L95,46L325,350L122,649L40,668v33H357V668L264,648L399,446L554,649l-96,19v33H710V668L630,652L433,397L663,50L745,34V0H427V34l94,17L359,299L169,50L266,34V0Z" 
id="f1_2k"
transform="scale(0.001,-0.001)" />

<path d="M431,0V33L535,52V499c0,0,0,62,-32,96c0,0,-32,33,-95,33c0,0,-66,0,-163,-22V52L350,33V0H32V33l89,19V649L32,668v33H237l6,-57c0,0,56,32,119,54c0,0,62,22,110,22c0,0,52,0,95,-20c0,0,44,-19,66,-62c0,0,57,32,134,57c0,0,77,25,128,25c0,0,179,0,179,-207V52l90,-19V0H846V33L950,52V499c0,0,0,129,-119,129c0,0,-19,0,-45,-3c0,0,-26,-3,-52,-7c0,0,-25,-4,-49,-8c0,0,-23,-5,-39,-8c0,0,13,-41,13,-89V52L764,33V0Z" 
id="f1_29"
transform="scale(0.001,-0.001)" />

<path d="M359,-270c0,0,124,0,192,46c0,0,67,47,67,129c0,0,0,43,-26,67c0,0,-26,24,-79,24H242c0,0,-32,-27,-51,-69c0,0,-20,-41,-20,-77c0,0,0,-64,46,-92c0,0,46,-28,142,-28Zm11,561c0,0,81,0,115,47c0,0,34,47,34,141c0,0,0,100,-35,142c0,0,-35,42,-113,42c0,0,-78,0,-114,-43c0,0,-37,-42,-37,-141c0,0,0,-98,36,-143c0,0,36,-45,114,-45ZM359,-329c0,0,-143,0,-218,44c0,0,-75,43,-75,125c0,0,0,39,27,78c0,0,26,38,98,89c0,0,-43,14,-72,48c0,0,-29,35,-29,74L208,262c0,0,-118,55,-118,217c0,0,0,115,73,178c0,0,73,63,211,63c0,0,28,0,71,-6c0,0,44,-6,67,-13l165,83l26,-32L599,644c0,0,50,-56,50,-165c0,0,0,-120,-72,-182c0,0,-73,-62,-208,-62c0,0,-62,0,-114,11L208,148c0,0,2,-13,29,-24c0,0,27,-12,67,-12H512c0,0,113,0,168,-49c0,0,55,-49,55,-134c0,0,0,-79,-44,-137c0,0,-43,-58,-128,-90c0,0,-84,-31,-204,-31Z" 
id="f1_23"
transform="scale(0.001,-0.001)" />

<path d="M191,-20c0,0,-39,0,-65,25c0,0,-25,27,-25,64c0,0,0,38,26,64c0,0,26,26,64,26c0,0,38,0,64,-26c0,0,26,-26,26,-64c0,0,0,-37,-25,-64c0,0,-26,-25,-65,-25Z" 
id="f1_i"
transform="scale(0.001,-0.001)" />

<path d="M681,416L504,902L333,416ZM669,0V40L803,60L704,348H310L210,60L344,40V0H15V40L128,60l341,949H611L965,60L1092,40V0Z" 
id="f1_11"
transform="scale(0.001,-0.001)" />

<path d="M58,-234v58c0,0,131,42,131,125c0,0,0,15,-11,27c0,0,-11,12,-38,25C140,1,89,27,89,75c0,0,0,40,25,61c0,0,26,21,65,21c0,0,48,0,77,-34c0,0,30,-34,30,-86c0,0,0,-101,-60,-170c0,0,-59,-69,-168,-101Z" 
id="f1_g"
transform="scale(0.001,-0.001)" />

<path d="M410,-14c0,0,-80,0,-162,14c0,0,-81,14,-144,38V270h48L178,134c0,0,28,-35,95,-62c0,0,68,-27,134,-27c0,0,104,0,163,53c0,0,58,54,58,148c0,0,0,54,-23,89c0,0,-22,35,-59,59c0,0,-37,24,-84,41c0,0,-47,17,-97,34c0,0,-49,17,-96,38c0,0,-47,21,-84,53c0,0,-37,32,-60,79c0,0,-23,48,-23,117c0,0,0,119,90,187c0,0,89,68,248,68c0,0,121,0,263,-32V771H654L628,893c0,0,-76,55,-188,55c0,0,-100,0,-156,-40c0,0,-56,-41,-56,-112c0,0,0,-49,22,-81c0,0,23,-32,60,-55c0,0,37,-22,84,-39c0,0,48,-16,97,-34c0,0,50,-17,97,-39c0,0,48,-22,85,-56c0,0,36,-34,59,-83c0,0,23,-49,23,-120c0,0,0,-145,-89,-224c0,0,-89,-79,-256,-79Z" 
id="f1_1j"
transform="scale(0.001,-0.001)" />

<path d="M498,506c0,0,115,0,164,47c0,0,48,48,48,166c0,0,0,112,-46,156c0,0,-46,43,-169,43H390V506ZM793,0L514,423H390V74L518,54V0H36V54L154,74V926L26,945v55H504c0,0,221,0,330,-68c0,0,109,-68,109,-212c0,0,0,-215,-201,-276L1009,74L1117,54V0Z" 
id="f0_1i"
transform="scale(0.001,-0.001)" />

<path d="M424,64c0,0,74,0,109,71c0,0,36,72,36,236c0,0,0,137,-34,201c0,0,-34,65,-111,65c0,0,-29,0,-62,-7c0,0,-34,-6,-55,-19V76c0,0,47,-12,117,-12Zm21,-78c0,0,-121,0,-354,50V994l-72,18v48H307V802c0,0,0,-69,-8,-141c0,0,30,25,86,42c0,0,57,17,110,17c0,0,153,0,223,-84c0,0,70,-83,70,-266c0,0,0,-180,-90,-283C698,87,608,-14,445,-14Z" 
id="f0_1y"
transform="scale(0.001,-0.001)" />

<path d="M41,0V49l91,18V634L41,652v49H336l8,-145c0,0,80,89,144,128c0,0,64,40,117,40h40V468H604l-45,94c0,0,-47,0,-106,-21c0,0,-60,-20,-105,-48V67L460,49V0Z" 
id="f0_2e"
transform="scale(0.001,-0.001)" />

<path d="M26,0V55L154,74V926L26,946v54H518V946L389,926V555H798V926L670,946v54h493V946L1034,926V74L1163,55V0H670V55L798,74V473H389V74L518,55V0Z" 
id="f0_18"
transform="scale(0.001,-0.001)" />

<path d="M43,0V49l67,18V992l-72,18v50H325V336L599,635l-75,17v49H791V652L711,636L544,460L785,67L847,50V0H510V50l41,17L411,313L325,253V67L395,49V0Z" 
id="f0_27"
transform="scale(0.001,-0.001)" />

<path d="M360,-14L72,649L0,668v33H327V668L216,648L420,164L615,649L504,668v33H764V668L697,652L416,-14Z" 
id="f1_2i"
transform="scale(0.001,-0.001)" />

<path d="M477,0V33l64,19L348,354L257,254V52L331,33V0H44V33l89,19v956L29,1026v34H257V338L544,647l-73,20v34H718V667L631,650L431,446L688,50L764,33V0Z" 
id="f1_27"
transform="scale(0.001,-0.001)" />

<path d="M519,79c0,0,97,0,153,42c0,0,57,42,83,131c0,0,26,89,26,248c0,0,0,216,-79,317c0,0,-79,101,-257,101H389V85c0,0,72,-6,130,-6ZM533,-2L198,0H27V54L155,74V926L27,945v55H502c0,0,269,0,398,-122c0,0,129,-122,129,-372c0,0,0,-258,-123,-383C906,123,783,-2,533,-2Z" 
id="f0_14"
transform="scale(0.001,-0.001)" />

<path d="M159,-329c0,0,-61,0,-123,14v180H81l32,-94c0,0,21,-17,55,-17c0,0,28,0,50,13c0,0,21,14,40,39c0,0,20,25,37,62c0,0,17,37,50,110L64,634L15,652v49H374V652L290,632L455,244L602,634l-82,18v49H749V652L698,637L421,-44c0,0,-47,-121,-83,-176c0,0,-36,-55,-80,-82c0,0,-43,-27,-99,-27Z" 
id="f0_2l"
transform="scale(0.001,-0.001)" />

<path d="M438,65c0,0,131,0,131,293c0,0,0,279,-130,279c0,0,-69,0,-127,-29V80c0,0,60,-15,126,-15ZM20,-325v50l76,18V634L19,652v49H304l1,-36c0,0,80,55,194,55c0,0,146,0,218,-86c0,0,71,-86,71,-271c0,0,0,-183,-83,-280c0,0,-83,-97,-238,-97c0,0,-79,0,-160,19c0,0,5,-48,5,-109V-257l103,-18v-50Z" 
id="f0_2c"
transform="scale(0.001,-0.001)" />

<path d="M276,-14c0,0,-57,0,-125,13C151,-1,83,10,48,23V214H97l28,-98c0,0,26,-26,69,-44c0,0,42,-17,86,-17c0,0,65,0,97,28c0,0,32,28,32,71c0,0,0,41,-31,65c0,0,-30,25,-133,57c0,0,-108,34,-154,92c0,0,-45,58,-45,143c0,0,0,95,71,152c0,0,71,57,183,57c0,0,77,0,207,-22V518H457l-24,82c0,0,-21,22,-60,35c0,0,-40,14,-75,14c0,0,-53,0,-79,-22c0,0,-26,-22,-26,-59c0,0,0,-40,32,-65c0,0,32,-26,132,-55c0,0,109,-34,155,-89c0,0,45,-55,45,-137c0,0,0,-117,-72,-177c0,0,-72,-59,-209,-59Z" 
id="f0_2f"
transform="scale(0.001,-0.001)" />

<path d="M425,-14c0,0,-187,0,-280,90c0,0,-93,90,-93,276c0,0,0,115,42,198c0,0,43,82,121,126c0,0,78,44,182,44c0,0,104,0,227,-26V486H571L539,609c0,0,-25,19,-50,26c0,0,-24,7,-65,7c0,0,-44,0,-79,-35c0,0,-36,-35,-56,-98c0,0,-20,-64,-20,-153c0,0,0,-150,47,-214c0,0,47,-64,148,-64c0,0,103,0,176,21V42C640,42,606,15,547,0c0,0,-59,-14,-122,-14Z" 
id="f0_1z"
transform="scale(0.001,-0.001)" />

<path d="M148,-329c0,0,-58,0,-114,13v151H69l24,-71c0,0,23,-17,64,-17c0,0,39,0,72,22c0,0,33,23,60,67c0,0,27,44,68,157L90,649L19,668v33H344V668L233,648L423,158L606,649L497,668v33H758V668L685,652L411,-43c0,0,-48,-124,-84,-177c0,0,-36,-54,-79,-82c0,0,-44,-27,-100,-27Z" 
id="f1_2l"
transform="scale(0.001,-0.001)" />

<path d="M529,65c0,0,183,0,270,108c0,0,87,108,87,334c0,0,0,210,-113,318c0,0,-113,108,-322,108H316V71c0,0,90,-6,213,-6Zm0,-67L172,0H44V40L172,60V941L44,960v40H498c0,0,277,0,411,-123c0,0,133,-124,133,-371c0,0,0,-251,-129,-380C913,126,785,-2,529,-2Z" 
id="f1_14"
transform="scale(0.001,-0.001)" />

<path d="M327,-14L84,649L1,668v33H335V668L219,648L385,174L554,632h63L786,171L944,649L830,668v33h267V668l-78,-16L784,-14H726L553,448L382,-14Z" 
id="f1_2j"
transform="scale(0.001,-0.001)" />

<path d="M36,0V54L154,74V926L26,945v55H860V731H790L766,908c0,0,-36,5,-121,8c0,0,-84,2,-133,2H389V508H633l23,127h67V298H656L633,426H389V74L556,54V0Z" 
id="f0_16"
transform="scale(0.001,-0.001)" />

<path d="M360,-256c0,0,108,0,167,35c0,0,59,35,59,98c0,0,0,70,-95,70H254c0,0,-65,-47,-65,-108c0,0,0,-47,46,-71c0,0,45,-24,125,-24Zm9,561c0,0,55,0,79,43c0,0,25,43,25,129c0,0,0,87,-24,127c0,0,-25,41,-80,41c0,0,-52,0,-75,-41c0,0,-24,-40,-24,-127c0,0,0,-86,23,-129c0,0,23,-43,76,-43Zm-9,-641c0,0,-153,0,-236,43c0,0,-84,44,-84,120c0,0,0,33,28,65c0,0,27,31,105,76c0,0,-44,17,-75,59c0,0,-31,43,-31,90L192,258c0,0,-133,56,-133,219c0,0,0,116,81,180c0,0,82,63,233,63c0,0,32,0,82,-6c0,0,51,-6,74,-13l168,83l26,-32L638,631c0,0,46,-57,46,-154c0,0,0,-119,-80,-182c0,0,-80,-64,-234,-64c0,0,-59,0,-114,9L238,183c0,0,1,-22,28,-41c0,0,26,-19,64,-19H493c0,0,256,0,256,-196c0,0,0,-81,-44,-139c0,0,-45,-59,-131,-92c0,0,-86,-32,-214,-32Z" 
id="f0_23"
transform="scale(0.001,-0.001)" />

<path d="M191,-20c0,0,-51,0,-88,34c0,0,-36,36,-36,88c0,0,0,52,36,88c0,0,36,36,88,36c0,0,51,0,88,-36c0,0,36,-36,36,-88c0,0,0,-51,-36,-87c0,0,-36,-35,-88,-35Z" 
id="f0_i"
transform="scale(0.001,-0.001)" />

<path d="M122,0V64L295,82V837L123,780v64l282,165H511V82L685,64V0Z" 
id="f0_l"
transform="scale(0.001,-0.001)" />

<path d="M55,0V40L184,60V941L55,960v40H455V960L327,941V60L455,40V0Z" 
id="f1_19"
transform="scale(0.001,-0.001)" />

<path d="M134,0V40L339,60V876L137,804v39l292,166h39V60L672,40V0Z" 
id="f1_l"
transform="scale(0.001,-0.001)" />

<path d="M377,45c0,0,100,0,147,52c0,0,47,52,47,174c0,0,0,119,-46,173c0,0,-47,54,-148,54c0,0,-98,0,-141,-51c0,0,-44,-51,-44,-176c0,0,0,-126,44,-176c0,0,44,-50,141,-50Zm2,518c0,0,84,0,123,46c0,0,39,46,39,148c0,0,0,102,-40,151c0,0,-41,48,-122,48c0,0,-79,0,-118,-47c0,0,-38,-47,-38,-152c0,0,0,-104,37,-149c0,0,38,-45,119,-45ZM377,-14c0,0,-319,0,-319,285c0,0,0,99,48,164c0,0,48,66,129,96c0,0,-65,30,-106,87c0,0,-40,56,-40,139c0,0,0,123,75,191c0,0,76,68,219,68c0,0,139,0,216,-67c0,0,76,-68,76,-192c0,0,0,-82,-40,-139c0,0,-40,-57,-108,-87c0,0,85,-31,132,-98c0,0,47,-67,47,-162c0,0,0,-142,-80,-214c0,0,-80,-71,-249,-71Z" 
id="f1_s"
transform="scale(0.001,-0.001)" />

<path d="M350,-14c0,0,-142,0,-269,31L73,228h49L156,87c0,0,29,-16,82,-28c0,0,54,-12,100,-12c0,0,117,0,173,54c0,0,56,53,56,178c0,0,0,99,-52,150c0,0,-51,51,-159,56l-107,6v61l107,7c0,0,84,5,124,52c0,0,41,48,41,145c0,0,0,101,-44,147c0,0,-44,45,-139,45c0,0,-40,0,-83,-10c0,0,-43,-11,-76,-29L153,786H104V979c0,0,74,19,127,26c0,0,54,6,107,6c0,0,321,0,321,-246c0,0,0,-104,-57,-165c0,0,-57,-62,-162,-77c0,0,136,-16,200,-78c0,0,64,-62,64,-173c0,0,0,-135,-92,-211c0,0,-93,-75,-262,-75Z" 
id="f1_n"
transform="scale(0.001,-0.001)" />

<path d="M370,468c0,0,96,0,194,40c0,0,0,229,-45,336c0,0,-45,107,-146,107c0,0,-187,0,-187,-259c0,0,0,-115,45,-169c0,0,45,-55,139,-55ZM312,-14c0,0,-122,0,-223,25V184h48L163,76c0,0,24,-11,65,-20c0,0,40,-9,81,-9c0,0,119,0,183,105c0,0,65,104,71,307c0,0,-113,-62,-230,-62c0,0,-132,0,-208,79c0,0,-76,78,-76,219c0,0,0,151,85,233c0,0,84,83,237,83c0,0,171,0,251,-123c0,0,79,-123,79,-385c0,0,0,-252,-102,-385C599,118,497,-14,312,-14Z" 
id="f1_t"
transform="scale(0.001,-0.001)" />

<path d="M577,-14c0,0,-243,0,-379,131C198,117,63,248,63,488c0,0,0,263,131,393c0,0,132,130,386,130c0,0,182,0,352,-45V751H882L862,875c0,0,-52,37,-124,57c0,0,-72,19,-152,19c0,0,-191,0,-279,-113c0,0,-88,-114,-88,-348c0,0,0,-220,91,-333c0,0,91,-114,269,-114c0,0,63,0,131,15c0,0,69,15,105,36V377L686,397v40h370V397L958,377V52C958,52,871,24,778,5c0,0,-93,-19,-201,-19Z" 
id="f1_17"
transform="scale(0.001,-0.001)" />

<path d="M536,63c0,0,127,0,191,54c0,0,63,54,63,168c0,0,0,105,-70,154c0,0,-70,49,-225,49H316V67c0,0,103,-4,220,-4ZM480,555c0,0,121,0,178,48c0,0,57,48,57,155c0,0,0,91,-58,133c0,0,-57,42,-186,42H316V555ZM554,-4L235,0H44V40L172,60V941L44,960v40H501c0,0,191,0,279,-56c0,0,88,-56,88,-179c0,0,0,-88,-55,-149c0,0,-54,-62,-151,-83c0,0,135,-14,209,-79c0,0,73,-65,73,-166c0,0,0,-144,-99,-219C845,69,745,-4,554,-4Z" 
id="f1_12"
transform="scale(0.001,-0.001)" />

<path d="M41,0V34L426,641H261c0,0,-42,0,-80,-7c0,0,-39,-7,-54,-19L104,515H69V701H586V665L201,60H407c0,0,42,0,89,10c0,0,47,10,66,25l39,147h35L617,0Z" 
id="f1_2m"
transform="scale(0.001,-0.001)" />

<path d="M57,302V417H454V302Z" 
id="f1_h"
transform="scale(0.001,-0.001)" />

<path d="M273,157c0,0,-114,0,-193,80C80,237,0,317,0,431c0,0,0,112,80,192c0,0,79,80,193,80c0,0,113,0,192,-80c0,0,80,-80,80,-192c0,0,0,-114,-80,-194c0,0,-79,-80,-192,-80Z" 
id="f2_3d"
transform="scale(0.001,-0.001)" />

<path d="M577,-14c0,0,-243,0,-379,132C198,118,63,250,63,488c0,0,0,258,130,391c0,0,131,132,387,132c0,0,156,0,335,-38l5,-218H871L848,884c0,0,-52,32,-121,50c0,0,-69,17,-141,17c0,0,-191,0,-279,-112c0,0,-88,-113,-88,-349c0,0,0,-217,92,-332c0,0,92,-115,268,-115c0,0,85,0,160,20c0,0,76,21,120,55l27,149h49L930,32c0,0,-164,-46,-353,-46Z" 
id="f1_13"
transform="scale(0.001,-0.001)" />

<path d="M448,506c0,0,134,0,190,49c0,0,57,50,57,168c0,0,0,114,-56,162c0,0,-56,48,-195,48H316V506ZM777,0L496,438H316V60L468,40V0H54V40L172,60V941L44,960v40H476c0,0,188,0,277,-63c0,0,90,-64,90,-204c0,0,0,-100,-54,-173c0,0,-55,-73,-151,-101L909,60L1017,40V0Z" 
id="f1_1i"
transform="scale(0.001,-0.001)" />

<path d="M536,-22L130,941L17,960v40H421V960L287,941L590,205L892,941L761,960v40h325V960L976,941L574,-22Z" 
id="f1_1m"
transform="scale(0.001,-0.001)" />

<path d="M44,0V40L172,60V941L44,960v40H794V760H745L721,922c0,0,-83,11,-241,11H316V543H586l23,119h48V354H609L586,475H316V67H513c0,0,193,0,252,12l43,185h49L843,0Z" 
id="f1_15"
transform="scale(0.001,-0.001)" />

<path d="M435,0V856c0,0,-48,-47,-127,-93c0,0,-79,-46,-142,-69V824c0,0,113,52,197,128c0,0,85,75,120,146h86V0Z" 
id="f3_l"
transform="scale(0.001,-0.001)" />


</defs>
</svg>