<?xml version="1.0" encoding="UTF-8" standalone="no"?>
<!DOCTYPE svg PUBLIC "-//W3C//DTD SVG 1.1//EN"
"http://www.w3.org/Graphics/SVG/1.1/DTD/svg11.dtd">
<svg viewBox="0 0 935 1210" version="1.1" xmlns="http://www.w3.org/2000/svg" xmlns:xlink="http://www.w3.org/1999/xlink">
<defs>
</defs>
<g fill="#000000" >
<use xlink:href="#f0_1b" transform="matrix(12,0,0,12,279.9,415.2)" />
<use xlink:href="#f0_15" transform="matrix(12,0,0,12,292.7,415.2)" />
<use xlink:href="#f0_1n" transform="matrix(12,0,0,12,304.1,415.2)" />
<use xlink:href="#f0_17" transform="matrix(12,0,0,12,325.7,415.2)" />
<use xlink:href="#f0_11" transform="matrix(12,0,0,12,338.9,415.2)" />
<use xlink:href="#f0_1i" transform="matrix(12,0,0,12,352.1,415.2)" />
<use xlink:href="#f0_14" transform="matrix(12,0,0,12,364.2,415.2)" />
<use xlink:href="#f0_15" transform="matrix(12,0,0,12,377.4,415.2)" />
<use xlink:href="#f0_1e" transform="matrix(12,0,0,12,388.7,415.2)" />
<use xlink:href="#f1_l" transform="matrix(12,0,0,12,77.8,506.2)" />
<use xlink:href="#f1_i" transform="matrix(12,0,0,12,86.9,506.2)" />
<use xlink:href="#f1_o" transform="matrix(12,0,0,12,91.7,506.2)" />
<use xlink:href="#f1_i" transform="matrix(12,0,0,12,100.9,506.2)" />
<use xlink:href="#f1_n" transform="matrix(12,0,0,12,105.6,506.2)" />
<use xlink:href="#f1_1d" transform="matrix(12,0,0,12,119.2,506.2)" />
<use xlink:href="#f1_2h" transform="matrix(12,0,0,12,136.4,506.2)" />
<use xlink:href="#f1_2f" transform="matrix(12,0,0,12,146.7,506.2)" />
<use xlink:href="#f1_21" transform="matrix(12,0,0,12,153.7,506.2)" />
<use xlink:href="#f1_2h" transform="matrix(12,0,0,12,161.7,506.2)" />
<use xlink:href="#f1_29" transform="matrix(12,0,0,12,172,506.2)" />
<use xlink:href="#f1_u" transform="matrix(12,0,0,12,187.1,506.2)" />
<use xlink:href="#f0_19" transform="matrix(12,0,0,12,55,536.2)" />
<use xlink:href="#f0_2g" transform="matrix(12,0,0,12,60.9,536.2)" />
<use xlink:href="#f0_25" transform="matrix(12,0,0,12,72.3,536.2)" />
<use xlink:href="#f0_2f" transform="matrix(12,0,0,12,76.7,536.2)" />
<use xlink:href="#f0_2g" transform="matrix(12,0,0,12,89.5,536.2)" />
<use xlink:href="#f0_24" transform="matrix(12,0,0,12,94.6,536.2)" />
<use xlink:href="#f0_21" transform="matrix(12,0,0,12,103.4,536.2)" />
<use xlink:href="#f0_25" transform="matrix(12,0,0,12,117.7,536.2)" />
<use xlink:href="#f0_2a" transform="matrix(12,0,0,12,122.1,536.2)" />
<use xlink:href="#f0_2f" transform="matrix(12,0,0,12,130.9,536.2)" />
<use xlink:href="#f0_2g" transform="matrix(12,0,0,12,137.5,536.2)" />
<use xlink:href="#f0_25" transform="matrix(12,0,0,12,143,536.2)" />
<use xlink:href="#f0_2g" transform="matrix(12,0,0,12,147,536.2)" />
<use xlink:href="#f0_2h" transform="matrix(12,0,0,12,152.5,536.2)" />
<use xlink:href="#f0_2g" transform="matrix(12,0,0,12,161.3,536.2)" />
<use xlink:href="#f0_25" transform="matrix(12,0,0,12,166.8,536.2)" />
<use xlink:href="#f0_2b" transform="matrix(12,0,0,12,170.8,536.2)" />
<use xlink:href="#f0_2a" transform="matrix(12,0,0,12,180.3,536.2)" />
<use xlink:href="#f0_2j" transform="matrix(12,0,0,12,195,536.2)" />
<use xlink:href="#f0_24" transform="matrix(12,0,0,12,208.2,536.2)" />
<use xlink:href="#f0_21" transform="matrix(12,0,0,12,217,536.2)" />
<use xlink:href="#f0_2e" transform="matrix(12,0,0,12,224.7,536.2)" />
<use xlink:href="#f0_21" transform="matrix(12,0,0,12,230.5,536.2)" />
<use xlink:href="#f0_1x" transform="matrix(12,0,0,12,244.4,536.2)" />
<use xlink:href="#f0_2e" transform="matrix(12,0,0,12,252.1,536.2)" />
<use xlink:href="#f0_2g" transform="matrix(12,0,0,12,258,536.2)" />
<use xlink:href="#f0_25" transform="matrix(12,0,0,12,263.5,536.2)" />
<use xlink:href="#f0_2f" transform="matrix(12,0,0,12,267.9,536.2)" />
<use xlink:href="#f0_2g" transform="matrix(12,0,0,12,274.5,536.2)" />
<use xlink:href="#f0_25" transform="matrix(12,0,0,12,280,536.2)" />
<use xlink:href="#f0_1z" transform="matrix(12,0,0,12,284.4,536.2)" />
<use xlink:href="#f0_1x" transform="matrix(12,0,0,12,298.6,536.2)" />
<use xlink:href="#f0_2a" transform="matrix(12,0,0,12,306.7,536.2)" />
<use xlink:href="#f0_20" transform="matrix(12,0,0,12,315.5,536.2)" />
<use xlink:href="#f0_21" transform="matrix(12,0,0,12,330.5,536.2)" />
<use xlink:href="#f0_20" transform="matrix(12,0,0,12,338.2,536.2)" />
<use xlink:href="#f0_2h" transform="matrix(12,0,0,12,347,536.2)" />
<use xlink:href="#f0_1z" transform="matrix(12,0,0,12,356.2,536.2)" />
<use xlink:href="#f0_1x" transform="matrix(12,0,0,12,364.3,536.2)" />
<use xlink:href="#f0_2g" transform="matrix(12,0,0,12,372,536.2)" />
<use xlink:href="#f0_25" transform="matrix(12,0,0,12,377.4,536.2)" />
<use xlink:href="#f0_2b" transform="matrix(12,0,0,12,381.5,536.2)" />
<use xlink:href="#f0_2a" transform="matrix(12,0,0,12,391,536.2)" />
<use xlink:href="#f0_1x" transform="matrix(12,0,0,12,399.4,536.2)" />
<use xlink:href="#f0_28" transform="matrix(12,0,0,12,407.8,536.2)" />
<use xlink:href="#f0_2c" transform="matrix(12,0,0,12,418.5,536.2)" />
<use xlink:href="#f0_28" transform="matrix(12,0,0,12,427.6,536.2)" />
<use xlink:href="#f0_1x" transform="matrix(12,0,0,12,432,536.2)" />
<use xlink:href="#f0_2a" transform="matrix(12,0,0,12,440.1,536.2)" />
<use xlink:href="#f0_2g" transform="matrix(12,0,0,12,448.5,536.2)" />
<use xlink:href="#f0_2f" transform="matrix(12,0,0,12,454,536.2)" />
<use xlink:href="#f0_2b" transform="matrix(12,0,0,12,466.8,536.2)" />
<use xlink:href="#f0_2e" transform="matrix(12,0,0,12,476,536.2)" />
<use xlink:href="#f0_1x" transform="matrix(12,0,0,12,488.1,536.2)" />
<use xlink:href="#f0_2a" transform="matrix(12,0,0,12,496.1,536.2)" />
<use xlink:href="#f0_25" transform="matrix(12,0,0,12,504.9,536.2)" />
<use xlink:href="#f0_29" transform="matrix(12,0,0,12,509.7,536.2)" />
<use xlink:href="#f0_1x" transform="matrix(12,0,0,12,523.3,536.2)" />
<use xlink:href="#f0_28" transform="matrix(12,0,0,12,531.7,536.2)" />
<use xlink:href="#f0_2f" transform="matrix(12,0,0,12,536.1,536.2)" />
<use xlink:href="#f0_1x" transform="matrix(12,0,0,12,549.3,536.2)" />
<use xlink:href="#f0_2e" transform="matrix(12,0,0,12,557,536.2)" />
<use xlink:href="#f0_21" transform="matrix(12,0,0,12,562.8,536.2)" />
<use xlink:href="#f0_2c" transform="matrix(12,0,0,12,576.7,536.2)" />
<use xlink:href="#f0_2e" transform="matrix(12,0,0,12,585.5,536.2)" />
<use xlink:href="#f0_21" transform="matrix(12,0,0,12,591.8,536.2)" />
<use xlink:href="#f0_2f" transform="matrix(12,0,0,12,599.8,536.2)" />
<use xlink:href="#f0_21" transform="matrix(12,0,0,12,606.4,536.2)" />
<use xlink:href="#f0_2e" transform="matrix(12,0,0,12,614.1,536.2)" />
<use xlink:href="#f0_2i" transform="matrix(12,0,0,12,620.3,536.2)" />
<use xlink:href="#f0_21" transform="matrix(12,0,0,12,629.1,536.2)" />
<use xlink:href="#f0_20" transform="matrix(12,0,0,12,637.2,536.2)" />
<use xlink:href="#f0_g" transform="matrix(12,0,0,12,646,536.2)" />
<use xlink:href="#f0_2f" transform="matrix(12,0,0,12,656.6,536.2)" />
<use xlink:href="#f0_2g" transform="matrix(12,0,0,12,663.2,536.2)" />
<use xlink:href="#f0_2b" transform="matrix(12,0,0,12,668.3,536.2)" />
<use xlink:href="#f0_2e" transform="matrix(12,0,0,12,677.5,536.2)" />
<use xlink:href="#f0_21" transform="matrix(12,0,0,12,683.4,536.2)" />
<use xlink:href="#f0_20" transform="matrix(12,0,0,12,691.1,536.2)" />
<use xlink:href="#f0_1x" transform="matrix(12,0,0,12,706.1,536.2)" />
<use xlink:href="#f0_2a" transform="matrix(12,0,0,12,714.2,536.2)" />
<use xlink:href="#f0_20" transform="matrix(12,0,0,12,722.6,536.2)" />
<use xlink:href="#f0_21" transform="matrix(12,0,0,12,737.6,536.2)" />
<use xlink:href="#f0_2k" transform="matrix(12,0,0,12,745.7,536.2)" />
<use xlink:href="#f0_24" transform="matrix(12,0,0,12,754.5,536.2)" />
<use xlink:href="#f0_25" transform="matrix(12,0,0,12,763.7,536.2)" />
<use xlink:href="#f0_1y" transform="matrix(12,0,0,12,768.1,536.2)" />
<use xlink:href="#f0_25" transform="matrix(12,0,0,12,777.2,536.2)" />
<use xlink:href="#f0_2g" transform="matrix(12,0,0,12,781.6,536.2)" />
<use xlink:href="#f0_21" transform="matrix(12,0,0,12,787.1,536.2)" />
<use xlink:href="#f0_20" transform="matrix(12,0,0,12,795.2,536.2)" />
<use xlink:href="#f0_2g" transform="matrix(12,0,0,12,810.2,536.2)" />
<use xlink:href="#f0_2b" transform="matrix(12,0,0,12,815,536.2)" />
<use xlink:href="#f0_2c" transform="matrix(12,0,0,12,830.3,536.2)" />
<use xlink:href="#f0_2h" transform="matrix(12,0,0,12,839.1,536.2)" />
<use xlink:href="#f0_1y" transform="matrix(12,0,0,12,847.9,536.2)" />
<use xlink:href="#f0_28" transform="matrix(12,0,0,12,856.7,536.2)" />
<use xlink:href="#f0_25" transform="matrix(12,0,0,12,861.5,536.2)" />
<use xlink:href="#f0_1z" transform="matrix(12,0,0,12,865.9,536.2)" />
<use xlink:href="#f0_i" transform="matrix(12,0,0,12,874,536.2)" />
<use xlink:href="#f0_1k" transform="matrix(12,0,0,12,55,560.4)" />
<use xlink:href="#f0_24" transform="matrix(12,0,0,12,66,560.4)" />
<use xlink:href="#f0_21" transform="matrix(12,0,0,12,74.8,560.4)" />
<use xlink:href="#f0_2e" transform="matrix(12,0,0,12,82.5,560.4)" />
<use xlink:href="#f0_21" transform="matrix(12,0,0,12,88.4,560.4)" />
<use xlink:href="#f0_1x" transform="matrix(12,0,0,12,100.9,560.4)" />
<use xlink:href="#f0_2e" transform="matrix(12,0,0,12,108.6,560.4)" />
<use xlink:href="#f0_21" transform="matrix(12,0,0,12,114.4,560.4)" />
<use xlink:href="#f0_2a" transform="matrix(12,0,0,12,126.9,560.4)" />
<use xlink:href="#f0_1x" transform="matrix(12,0,0,12,135.7,560.4)" />
<use xlink:href="#f0_2g" transform="matrix(12,0,0,12,143.4,560.4)" />
<use xlink:href="#f0_2h" transform="matrix(12,0,0,12,148.5,560.4)" />
<use xlink:href="#f0_2e" transform="matrix(12,0,0,12,157.3,560.4)" />
<use xlink:href="#f0_1x" transform="matrix(12,0,0,12,163.2,560.4)" />
<use xlink:href="#f0_28" transform="matrix(12,0,0,12,171.6,560.4)" />
<use xlink:href="#f0_2f" transform="matrix(12,0,0,12,180.4,560.4)" />
<use xlink:href="#f0_1z" transform="matrix(12,0,0,12,187.3,560.4)" />
<use xlink:href="#f0_25" transform="matrix(12,0,0,12,195.4,560.4)" />
<use xlink:href="#f0_21" transform="matrix(12,0,0,12,199.8,560.4)" />
<use xlink:href="#f0_2a" transform="matrix(12,0,0,12,207.9,560.4)" />
<use xlink:href="#f0_1z" transform="matrix(12,0,0,12,216.7,560.4)" />
<use xlink:href="#f0_21" transform="matrix(12,0,0,12,224.7,560.4)" />
<use xlink:href="#f0_29" transform="matrix(12,0,0,12,237.2,560.4)" />
<use xlink:href="#f0_2h" transform="matrix(12,0,0,12,250.8,560.4)" />
<use xlink:href="#f0_2f" transform="matrix(12,0,0,12,259.9,560.4)" />
<use xlink:href="#f0_21" transform="matrix(12,0,0,12,266.9,560.4)" />
<use xlink:href="#f0_2h" transform="matrix(12,0,0,12,275,560.4)" />
<use xlink:href="#f0_29" transform="matrix(12,0,0,12,284.1,560.4)" />
<use xlink:href="#f0_g" transform="matrix(12,0,0,12,297.7,560.4)" />
<use xlink:href="#f0_1j" transform="matrix(12,0,0,12,306.5,560.4)" />
<use xlink:href="#f0_1z" transform="matrix(12,0,0,12,316.4,560.4)" />
<use xlink:href="#f0_25" transform="matrix(12,0,0,12,324.8,560.4)" />
<use xlink:href="#f0_21" transform="matrix(12,0,0,12,329.2,560.4)" />
<use xlink:href="#f0_2a" transform="matrix(12,0,0,12,337.3,560.4)" />
<use xlink:href="#f0_1z" transform="matrix(12,0,0,12,346.1,560.4)" />
<use xlink:href="#f0_21" transform="matrix(12,0,0,12,354.1,560.4)" />
<use xlink:href="#f0_29" transform="matrix(12,0,0,12,366.6,560.4)" />
<use xlink:href="#f0_2h" transform="matrix(12,0,0,12,380.2,560.4)" />
<use xlink:href="#f0_2f" transform="matrix(12,0,0,12,389.3,560.4)" />
<use xlink:href="#f0_21" transform="matrix(12,0,0,12,396.3,560.4)" />
<use xlink:href="#f0_2h" transform="matrix(12,0,0,12,404,560.4)" />
<use xlink:href="#f0_29" transform="matrix(12,0,0,12,413.2,560.4)" />
<use xlink:href="#f0_1x" transform="matrix(12,0,0,12,431.7,560.4)" />
<use xlink:href="#f0_2a" transform="matrix(12,0,0,12,439.8,560.4)" />
<use xlink:href="#f0_20" transform="matrix(12,0,0,12,448.2,560.4)" />
<use xlink:href="#f0_1q" transform="matrix(12,0,0,12,461.8,560.4)" />
<use xlink:href="#f0_2b" transform="matrix(12,0,0,12,472.4,560.4)" />
<use xlink:href="#f0_2b" transform="matrix(12,0,0,12,481.6,560.4)" />
<use xlink:href="#f0_28" transform="matrix(12,0,0,12,491.1,560.4)" />
<use xlink:href="#f0_2b" transform="matrix(12,0,0,12,495.1,560.4)" />
<use xlink:href="#f0_23" transform="matrix(12,0,0,12,504.3,560.4)" />
<use xlink:href="#f0_25" transform="matrix(12,0,0,12,513.4,560.4)" />
<use xlink:href="#f0_1z" transform="matrix(12,0,0,12,517.8,560.4)" />
<use xlink:href="#f0_1x" transform="matrix(12,0,0,12,525.9,560.4)" />
<use xlink:href="#f0_28" transform="matrix(12,0,0,12,534,560.4)" />
<use xlink:href="#f0_29" transform="matrix(12,0,0,12,543.5,560.4)" />
<use xlink:href="#f0_2h" transform="matrix(12,0,0,12,557.1,560.4)" />
<use xlink:href="#f0_2f" transform="matrix(12,0,0,12,566.2,560.4)" />
<use xlink:href="#f0_21" transform="matrix(12,0,0,12,572.8,560.4)" />
<use xlink:href="#f0_2h" transform="matrix(12,0,0,12,580.9,560.4)" />
<use xlink:href="#f0_29" transform="matrix(12,0,0,12,590.1,560.4)" />
<use xlink:href="#f0_i" transform="matrix(12,0,0,12,603.6,560.4)" />
<use xlink:href="#f0_11" transform="matrix(12,0,0,12,55,599.7)" />
<use xlink:href="#f0_28" transform="matrix(12,0,0,12,68.3,599.7)" />
<use xlink:href="#f0_28" transform="matrix(12,0,0,12,73,599.7)" />
<use xlink:href="#f0_1z" transform="matrix(12,0,0,12,82.5,599.7)" />
<use xlink:href="#f0_2b" transform="matrix(12,0,0,12,90.2,599.7)" />
<use xlink:href="#f0_28" transform="matrix(12,0,0,12,99.7,599.7)" />
<use xlink:href="#f0_28" transform="matrix(12,0,0,12,104.5,599.7)" />
<use xlink:href="#f0_21" transform="matrix(12,0,0,12,108.9,599.7)" />
<use xlink:href="#f0_23" transform="matrix(12,0,0,12,117,599.7)" />
<use xlink:href="#f0_21" transform="matrix(12,0,0,12,125.8,599.7)" />
<use xlink:href="#f0_2f" transform="matrix(12,0,0,12,133.8,599.7)" />
<use xlink:href="#f0_29" transform="matrix(12,0,0,12,145.5,599.7)" />
<use xlink:href="#f0_1x" transform="matrix(12,0,0,12,159.1,599.7)" />
<use xlink:href="#f0_25" transform="matrix(12,0,0,12,167.5,599.7)" />
<use xlink:href="#f0_2a" transform="matrix(12,0,0,12,172.3,599.7)" />
<use xlink:href="#f0_2g" transform="matrix(12,0,0,12,180.7,599.7)" />
<use xlink:href="#f0_1x" transform="matrix(12,0,0,12,185.8,599.7)" />
<use xlink:href="#f0_25" transform="matrix(12,0,0,12,194.3,599.7)" />
<use xlink:href="#f0_2a" transform="matrix(12,0,0,12,198.7,599.7)" />
<use xlink:href="#f0_29" transform="matrix(12,0,0,12,212.6,599.7)" />
<use xlink:href="#f0_2h" transform="matrix(12,0,0,12,226.2,599.7)" />
<use xlink:href="#f0_2f" transform="matrix(12,0,0,12,235.3,599.7)" />
<use xlink:href="#f0_21" transform="matrix(12,0,0,12,242.3,599.7)" />
<use xlink:href="#f0_2h" transform="matrix(12,0,0,12,250.4,599.7)" />
<use xlink:href="#f0_29" transform="matrix(12,0,0,12,259.5,599.7)" />
<use xlink:href="#f0_2f" transform="matrix(12,0,0,12,273.1,599.7)" />
<use xlink:href="#f0_25" transform="matrix(12,0,0,12,285.2,599.7)" />
<use xlink:href="#f0_2a" transform="matrix(12,0,0,12,289.6,599.7)" />
<use xlink:href="#f0_12" transform="matrix(12,0,0,12,303.7,599.7)" />
<use xlink:href="#f0_2b" transform="matrix(12,0,0,12,315.4,599.7)" />
<use xlink:href="#f0_2g" transform="matrix(12,0,0,12,324.6,599.7)" />
<use xlink:href="#f0_1x" transform="matrix(12,0,0,12,329.7,599.7)" />
<use xlink:href="#f0_2a" transform="matrix(12,0,0,12,337.8,599.7)" />
<use xlink:href="#f0_2l" transform="matrix(12,0,0,12,346.6,599.7)" />
<use xlink:href="#f0_1x" transform="matrix(12,0,0,12,360.2,599.7)" />
<use xlink:href="#f0_2a" transform="matrix(12,0,0,12,368.2,599.7)" />
<use xlink:href="#f0_20" transform="matrix(12,0,0,12,377,599.7)" />
<use xlink:href="#f0_1q" transform="matrix(12,0,0,12,390.9,599.7)" />
<use xlink:href="#f0_2b" transform="matrix(12,0,0,12,401.6,599.7)" />
<use xlink:href="#f0_2b" transform="matrix(12,0,0,12,410.7,599.7)" />
<use xlink:href="#f0_28" transform="matrix(12,0,0,12,420.3,599.7)" />
<use xlink:href="#f0_2b" transform="matrix(12,0,0,12,424.7,599.7)" />
<use xlink:href="#f0_23" transform="matrix(12,0,0,12,433.8,599.7)" />
<use xlink:href="#f0_2l" transform="matrix(12,0,0,12,443,599.7)" />
<use xlink:href="#f0_14" transform="matrix(12,0,0,12,456.2,599.7)" />
<use xlink:href="#f0_21" transform="matrix(12,0,0,12,469,599.7)" />
<use xlink:href="#f0_2c" transform="matrix(12,0,0,12,477.1,599.7)" />
<use xlink:href="#f0_1x" transform="matrix(12,0,0,12,485.9,599.7)" />
<use xlink:href="#f0_2e" transform="matrix(12,0,0,12,493.6,599.7)" />
<use xlink:href="#f0_2g" transform="matrix(12,0,0,12,499.4,599.7)" />
<use xlink:href="#f0_29" transform="matrix(12,0,0,12,504.9,599.7)" />
<use xlink:href="#f0_21" transform="matrix(12,0,0,12,518.5,599.7)" />
<use xlink:href="#f0_2a" transform="matrix(12,0,0,12,526.5,599.7)" />
<use xlink:href="#f0_2g" transform="matrix(12,0,0,12,535,599.7)" />
<use xlink:href="#f0_2f" transform="matrix(12,0,0,12,540.5,599.7)" />
<use xlink:href="#f0_i" transform="matrix(12,0,0,12,547.3,599.7)" />
<use xlink:href="#f0_11" transform="matrix(12,0,0,12,556.8,599.7)" />
<use xlink:href="#f0_2a" transform="matrix(12,0,0,12,569.6,599.7)" />
<use xlink:href="#f0_25" transform="matrix(12,0,0,12,578.8,599.7)" />
<use xlink:href="#f0_29" transform="matrix(12,0,0,12,583.6,599.7)" />
<use xlink:href="#f0_1x" transform="matrix(12,0,0,12,597.1,599.7)" />
<use xlink:href="#f0_28" transform="matrix(12,0,0,12,605.6,599.7)" />
<use xlink:href="#f0_2f" transform="matrix(12,0,0,12,610,599.7)" />
<use xlink:href="#f0_1x" transform="matrix(12,0,0,12,622,599.7)" />
<use xlink:href="#f0_2e" transform="matrix(12,0,0,12,629.7,599.7)" />
<use xlink:href="#f0_21" transform="matrix(12,0,0,12,635.6,599.7)" />
<use xlink:href="#f0_1x" transform="matrix(12,0,0,12,648.4,599.7)" />
<use xlink:href="#f0_28" transform="matrix(12,0,0,12,656.5,599.7)" />
<use xlink:href="#f0_2f" transform="matrix(12,0,0,12,660.9,599.7)" />
<use xlink:href="#f0_2b" transform="matrix(12,0,0,12,667.5,599.7)" />
<use xlink:href="#f0_2c" transform="matrix(12,0,0,12,681.8,599.7)" />
<use xlink:href="#f0_2e" transform="matrix(12,0,0,12,690.6,599.7)" />
<use xlink:href="#f0_21" transform="matrix(12,0,0,12,696.4,599.7)" />
<use xlink:href="#f0_2f" transform="matrix(12,0,0,12,704.5,599.7)" />
<use xlink:href="#f0_21" transform="matrix(12,0,0,12,711.5,599.7)" />
<use xlink:href="#f0_2e" transform="matrix(12,0,0,12,719.2,599.7)" />
<use xlink:href="#f0_2i" transform="matrix(12,0,0,12,725.4,599.7)" />
<use xlink:href="#f0_21" transform="matrix(12,0,0,12,734.2,599.7)" />
<use xlink:href="#f0_20" transform="matrix(12,0,0,12,741.9,599.7)" />
<use xlink:href="#f0_25" transform="matrix(12,0,0,12,756.2,599.7)" />
<use xlink:href="#f0_2a" transform="matrix(12,0,0,12,760.6,599.7)" />
<use xlink:href="#f0_29" transform="matrix(12,0,0,12,774.5,599.7)" />
<use xlink:href="#f0_2h" transform="matrix(12,0,0,12,788.1,599.7)" />
<use xlink:href="#f0_2f" transform="matrix(12,0,0,12,797.6,599.7)" />
<use xlink:href="#f0_21" transform="matrix(12,0,0,12,804.2,599.7)" />
<use xlink:href="#f0_2h" transform="matrix(12,0,0,12,812.2,599.7)" />
<use xlink:href="#f0_29" transform="matrix(12,0,0,12,821.4,599.7)" />
<use xlink:href="#f0_2f" transform="matrix(12,0,0,12,835,599.7)" />
<use xlink:href="#f0_i" transform="matrix(12,0,0,12,841.9,599.7)" />
<use xlink:href="#f0_1k" transform="matrix(12,0,0,12,851.4,599.7)" />
<use xlink:href="#f0_24" transform="matrix(12,0,0,12,862.7,599.7)" />
<use xlink:href="#f0_21" transform="matrix(12,0,0,12,871.5,599.7)" />
<use xlink:href="#f0_2f" transform="matrix(12,0,0,12,55,623.5)" />
<use xlink:href="#f0_2c" transform="matrix(12,0,0,12,61.6,623.5)" />
<use xlink:href="#f0_21" transform="matrix(12,0,0,12,70.8,623.5)" />
<use xlink:href="#f0_1z" transform="matrix(12,0,0,12,78.5,623.5)" />
<use xlink:href="#f0_25" transform="matrix(12,0,0,12,86.9,623.5)" />
<use xlink:href="#f0_29" transform="matrix(12,0,0,12,91.7,623.5)" />
<use xlink:href="#f0_21" transform="matrix(12,0,0,12,105.3,623.5)" />
<use xlink:href="#f0_2a" transform="matrix(12,0,0,12,113.3,623.5)" />
<use xlink:href="#f0_2f" transform="matrix(12,0,0,12,122.1,623.5)" />
<use xlink:href="#f0_1x" transform="matrix(12,0,0,12,136.4,623.5)" />
<use xlink:href="#f0_2e" transform="matrix(12,0,0,12,144.1,623.5)" />
<use xlink:href="#f0_21" transform="matrix(12,0,0,12,150.3,623.5)" />
<use xlink:href="#f0_22" transform="matrix(12,0,0,12,165.7,623.5)" />
<use xlink:href="#f0_25" transform="matrix(12,0,0,12,171.6,623.5)" />
<use xlink:href="#f0_2k" transform="matrix(12,0,0,12,176.3,623.5)" />
<use xlink:href="#f0_21" transform="matrix(12,0,0,12,185.1,623.5)" />
<use xlink:href="#f0_20" transform="matrix(12,0,0,12,193.2,623.5)" />
<use xlink:href="#f0_25" transform="matrix(12,0,0,12,209.7,623.5)" />
<use xlink:href="#f0_2a" transform="matrix(12,0,0,12,214.4,623.5)" />
<use xlink:href="#f0_2g" transform="matrix(12,0,0,12,230.6,623.5)" />
<use xlink:href="#f0_24" transform="matrix(12,0,0,12,236,623.5)" />
<use xlink:href="#f0_21" transform="matrix(12,0,0,12,244.5,623.5)" />
<use xlink:href="#f0_26" transform="matrix(12,0,0,12,260.2,623.5)" />
<use xlink:href="#f0_1x" transform="matrix(12,0,0,12,264.6,623.5)" />
<use xlink:href="#f0_2e" transform="matrix(12,0,0,12,272.3,623.5)" />
<use xlink:href="#f0_2f" transform="matrix(12,0,0,12,278.5,623.5)" />
<use xlink:href="#f0_2b" transform="matrix(12,0,0,12,292.5,623.5)" />
<use xlink:href="#f0_2e" transform="matrix(12,0,0,12,301.6,623.5)" />
<use xlink:href="#f0_1z" transform="matrix(12,0,0,12,314.8,623.5)" />
<use xlink:href="#f0_2b" transform="matrix(12,0,0,12,322.5,623.5)" />
<use xlink:href="#f0_2a" transform="matrix(12,0,0,12,332,623.5)" />
<use xlink:href="#f0_2g" transform="matrix(12,0,0,12,340.4,623.5)" />
<use xlink:href="#f0_1x" transform="matrix(12,0,0,12,345.5,623.5)" />
<use xlink:href="#f0_25" transform="matrix(12,0,0,12,353.7,623.5)" />
<use xlink:href="#f0_2a" transform="matrix(12,0,0,12,358.4,623.5)" />
<use xlink:href="#f0_21" transform="matrix(12,0,0,12,367.2,623.5)" />
<use xlink:href="#f0_2e" transform="matrix(12,0,0,12,374.9,623.5)" />
<use xlink:href="#f0_2f" transform="matrix(12,0,0,12,381.1,623.5)" />
<use xlink:href="#f0_25" transform="matrix(12,0,0,12,395.8,623.5)" />
<use xlink:href="#f0_2a" transform="matrix(12,0,0,12,400.2,623.5)" />
<use xlink:href="#f0_1z" transform="matrix(12,0,0,12,416.7,623.5)" />
<use xlink:href="#f0_24" transform="matrix(12,0,0,12,424.7,623.5)" />
<use xlink:href="#f0_21" transform="matrix(12,0,0,12,433.5,623.5)" />
<use xlink:href="#f0_29" transform="matrix(12,0,0,12,441.6,623.5)" />
<use xlink:href="#f0_25" transform="matrix(12,0,0,12,455.5,623.5)" />
<use xlink:href="#f0_1z" transform="matrix(12,0,0,12,459.9,623.5)" />
<use xlink:href="#f0_1x" transform="matrix(12,0,0,12,468,623.5)" />
<use xlink:href="#f0_28" transform="matrix(12,0,0,12,476.4,623.5)" />
<use xlink:href="#f0_2f" transform="matrix(12,0,0,12,488.5,623.5)" />
<use xlink:href="#f0_2b" transform="matrix(12,0,0,12,495.1,623.5)" />
<use xlink:href="#f0_28" transform="matrix(12,0,0,12,504.6,623.5)" />
<use xlink:href="#f0_2h" transform="matrix(12,0,0,12,509,623.5)" />
<use xlink:href="#f0_2g" transform="matrix(12,0,0,12,517.8,623.5)" />
<use xlink:href="#f0_25" transform="matrix(12,0,0,12,523.3,623.5)" />
<use xlink:href="#f0_2b" transform="matrix(12,0,0,12,527.3,623.5)" />
<use xlink:href="#f0_2a" transform="matrix(12,0,0,12,536.8,623.5)" />
<use xlink:href="#f0_2f" transform="matrix(12,0,0,12,545.6,623.5)" />
<use xlink:href="#f0_1x" transform="matrix(12,0,0,12,559.9,623.5)" />
<use xlink:href="#f0_2a" transform="matrix(12,0,0,12,568,623.5)" />
<use xlink:href="#f0_20" transform="matrix(12,0,0,12,576.8,623.5)" />
<use xlink:href="#f0_1x" transform="matrix(12,0,0,12,592.9,623.5)" />
<use xlink:href="#f0_2e" transform="matrix(12,0,0,12,600.6,623.5)" />
<use xlink:href="#f0_21" transform="matrix(12,0,0,12,606.8,623.5)" />
<use xlink:href="#f0_2c" transform="matrix(12,0,0,12,622.2,623.5)" />
<use xlink:href="#f0_2e" transform="matrix(12,0,0,12,631,623.5)" />
<use xlink:href="#f0_21" transform="matrix(12,0,0,12,636.9,623.5)" />
<use xlink:href="#f0_2f" transform="matrix(12,0,0,12,644.9,623.5)" />
<use xlink:href="#f0_21" transform="matrix(12,0,0,12,651.9,623.5)" />
<use xlink:href="#f0_2e" transform="matrix(12,0,0,12,659.6,623.5)" />
<use xlink:href="#f0_2i" transform="matrix(12,0,0,12,665.8,623.5)" />
<use xlink:href="#f0_21" transform="matrix(12,0,0,12,674.2,623.5)" />
<use xlink:href="#f0_20" transform="matrix(12,0,0,12,682.3,623.5)" />
<use xlink:href="#f0_22" transform="matrix(12,0,0,12,698.8,623.5)" />
<use xlink:href="#f0_2b" transform="matrix(12,0,0,12,703.9,623.5)" />
<use xlink:href="#f0_2e" transform="matrix(12,0,0,12,713.1,623.5)" />
<use xlink:href="#f0_28" transform="matrix(12,0,0,12,727,623.5)" />
<use xlink:href="#f0_2b" transform="matrix(12,0,0,12,731,623.5)" />
<use xlink:href="#f0_2a" transform="matrix(12,0,0,12,740.5,623.5)" />
<use xlink:href="#f0_23" transform="matrix(12,0,0,12,749.3,623.5)" />
<use xlink:href="#f0_21" transform="matrix(12,0,0,12,758.5,623.5)" />
<use xlink:href="#f0_2e" transform="matrix(12,0,0,12,766.2,623.5)" />
<use xlink:href="#f0_20" transform="matrix(12,0,0,12,779.4,623.5)" />
<use xlink:href="#f0_2h" transform="matrix(12,0,0,12,788.6,623.5)" />
<use xlink:href="#f0_2e" transform="matrix(12,0,0,12,797.7,623.5)" />
<use xlink:href="#f0_1x" transform="matrix(12,0,0,12,803.6,623.5)" />
<use xlink:href="#f0_2g" transform="matrix(12,0,0,12,811.3,623.5)" />
<use xlink:href="#f0_25" transform="matrix(12,0,0,12,816.8,623.5)" />
<use xlink:href="#f0_2b" transform="matrix(12,0,0,12,820.8,623.5)" />
<use xlink:href="#f0_2a" transform="matrix(12,0,0,12,830.3,623.5)" />
<use xlink:href="#f0_i" transform="matrix(12,0,0,12,838.8,623.5)" />
<use xlink:href="#f0_1k" transform="matrix(12,0,0,12,850.5,623.5)" />
<use xlink:href="#f0_24" transform="matrix(12,0,0,12,861.8,623.5)" />
<use xlink:href="#f0_21" transform="matrix(12,0,0,12,870.6,623.5)" />
<use xlink:href="#f0_2f" transform="matrix(12,0,0,12,55,647.4)" />
<use xlink:href="#f0_2c" transform="matrix(12,0,0,12,61.6,647.4)" />
<use xlink:href="#f0_21" transform="matrix(12,0,0,12,70.8,647.4)" />
<use xlink:href="#f0_1z" transform="matrix(12,0,0,12,78.5,647.4)" />
<use xlink:href="#f0_25" transform="matrix(12,0,0,12,86.9,647.4)" />
<use xlink:href="#f0_29" transform="matrix(12,0,0,12,91.7,647.4)" />
<use xlink:href="#f0_21" transform="matrix(12,0,0,12,105.3,647.4)" />
<use xlink:href="#f0_2a" transform="matrix(12,0,0,12,113.3,647.4)" />
<use xlink:href="#f0_2f" transform="matrix(12,0,0,12,122.1,647.4)" />
<use xlink:href="#f0_1x" transform="matrix(12,0,0,12,133.5,647.4)" />
<use xlink:href="#f0_2e" transform="matrix(12,0,0,12,141.2,647.4)" />
<use xlink:href="#f0_21" transform="matrix(12,0,0,12,147.4,647.4)" />
<use xlink:href="#f0_1z" transform="matrix(12,0,0,12,159.6,647.4)" />
<use xlink:href="#f0_2b" transform="matrix(12,0,0,12,167.3,647.4)" />
<use xlink:href="#f0_2e" transform="matrix(12,0,0,12,176.4,647.4)" />
<use xlink:href="#f0_2e" transform="matrix(12,0,0,12,182.3,647.4)" />
<use xlink:href="#f0_21" transform="matrix(12,0,0,12,188.2,647.4)" />
<use xlink:href="#f0_1z" transform="matrix(12,0,0,12,196.2,647.4)" />
<use xlink:href="#f0_2g" transform="matrix(12,0,0,12,203.9,647.4)" />
<use xlink:href="#f0_28" transform="matrix(12,0,0,12,209.4,647.4)" />
<use xlink:href="#f0_2l" transform="matrix(12,0,0,12,214.2,647.4)" />
<use xlink:href="#f0_25" transform="matrix(12,0,0,12,227.4,647.4)" />
<use xlink:href="#f0_20" transform="matrix(12,0,0,12,231.8,647.4)" />
<use xlink:href="#f0_21" transform="matrix(12,0,0,12,240.9,647.4)" />
<use xlink:href="#f0_2a" transform="matrix(12,0,0,12,249,647.4)" />
<use xlink:href="#f0_2g" transform="matrix(12,0,0,12,257.4,647.4)" />
<use xlink:href="#f0_25" transform="matrix(12,0,0,12,262.9,647.4)" />
<use xlink:href="#f0_22" transform="matrix(12,0,0,12,267.7,647.4)" />
<use xlink:href="#f0_25" transform="matrix(12,0,0,12,273.6,647.4)" />
<use xlink:href="#f0_21" transform="matrix(12,0,0,12,278,647.4)" />
<use xlink:href="#f0_20" transform="matrix(12,0,0,12,286,647.4)" />
<use xlink:href="#f0_1x" transform="matrix(12,0,0,12,299.2,647.4)" />
<use xlink:href="#f0_2a" transform="matrix(12,0,0,12,307.3,647.4)" />
<use xlink:href="#f0_20" transform="matrix(12,0,0,12,316.1,647.4)" />
<use xlink:href="#f0_28" transform="matrix(12,0,0,12,329.6,647.4)" />
<use xlink:href="#f0_1x" transform="matrix(12,0,0,12,334,647.4)" />
<use xlink:href="#f0_1y" transform="matrix(12,0,0,12,342.1,647.4)" />
<use xlink:href="#f0_21" transform="matrix(12,0,0,12,350.9,647.4)" />
<use xlink:href="#f0_28" transform="matrix(12,0,0,12,359.3,647.4)" />
<use xlink:href="#f0_21" transform="matrix(12,0,0,12,363.7,647.4)" />
<use xlink:href="#f0_20" transform="matrix(12,0,0,12,371.8,647.4)" />
<use xlink:href="#f0_i" transform="matrix(12,0,0,12,380.6,647.4)" />
<use xlink:href="#f0_1k" transform="matrix(12,0,0,12,389.6,647.4)" />
<use xlink:href="#f0_24" transform="matrix(12,0,0,12,400.9,647.4)" />
<use xlink:href="#f0_21" transform="matrix(12,0,0,12,409.3,647.4)" />
<use xlink:href="#f0_2l" transform="matrix(12,0,0,12,417.7,647.4)" />
<use xlink:href="#f0_1x" transform="matrix(12,0,0,12,430.9,647.4)" />
<use xlink:href="#f0_2e" transform="matrix(12,0,0,12,438.6,647.4)" />
<use xlink:href="#f0_21" transform="matrix(12,0,0,12,444.5,647.4)" />
<use xlink:href="#f0_2f" transform="matrix(12,0,0,12,457,647.4)" />
<use xlink:href="#f0_2g" transform="matrix(12,0,0,12,463.6,647.4)" />
<use xlink:href="#f0_2b" transform="matrix(12,0,0,12,468.7,647.4)" />
<use xlink:href="#f0_2e" transform="matrix(12,0,0,12,477.8,647.4)" />
<use xlink:href="#f0_21" transform="matrix(12,0,0,12,483.7,647.4)" />
<use xlink:href="#f0_20" transform="matrix(12,0,0,12,491.4,647.4)" />
<use xlink:href="#f0_1x" transform="matrix(12,0,0,12,504.6,647.4)" />
<use xlink:href="#f0_2a" transform="matrix(12,0,0,12,512.7,647.4)" />
<use xlink:href="#f0_20" transform="matrix(12,0,0,12,521.5,647.4)" />
<use xlink:href="#f0_1x" transform="matrix(12,0,0,12,534.7,647.4)" />
<use xlink:href="#f0_1z" transform="matrix(12,0,0,12,546.8,647.4)" />
<use xlink:href="#f0_1x" transform="matrix(12,0,0,12,554.9,647.4)" />
<use xlink:href="#f0_2g" transform="matrix(12,0,0,12,562.6,647.4)" />
<use xlink:href="#f0_1x" transform="matrix(12,0,0,12,567.7,647.4)" />
<use xlink:href="#f0_28" transform="matrix(12,0,0,12,575.8,647.4)" />
<use xlink:href="#f0_2b" transform="matrix(12,0,0,12,579.8,647.4)" />
<use xlink:href="#f0_23" transform="matrix(12,0,0,12,589.3,647.4)" />
<use xlink:href="#f0_2h" transform="matrix(12,0,0,12,598.1,647.4)" />
<use xlink:href="#f0_21" transform="matrix(12,0,0,12,607.3,647.4)" />
<use xlink:href="#f0_25" transform="matrix(12,0,0,12,619.7,647.4)" />
<use xlink:href="#f0_2f" transform="matrix(12,0,0,12,624.1,647.4)" />
<use xlink:href="#f0_2c" transform="matrix(12,0,0,12,635.5,647.4)" />
<use xlink:href="#f0_2e" transform="matrix(12,0,0,12,644.3,647.4)" />
<use xlink:href="#f0_21" transform="matrix(12,0,0,12,650.5,647.4)" />
<use xlink:href="#f0_2c" transform="matrix(12,0,0,12,658.2,647.4)" />
<use xlink:href="#f0_1x" transform="matrix(12,0,0,12,667,647.4)" />
<use xlink:href="#f0_2e" transform="matrix(12,0,0,12,674.7,647.4)" />
<use xlink:href="#f0_21" transform="matrix(12,0,0,12,680.9,647.4)" />
<use xlink:href="#f0_20" transform="matrix(12,0,0,12,688.6,647.4)" />
<use xlink:href="#f0_22" transform="matrix(12,0,0,12,702.2,647.4)" />
<use xlink:href="#f0_2b" transform="matrix(12,0,0,12,707.7,647.4)" />
<use xlink:href="#f0_2e" transform="matrix(12,0,0,12,716.8,647.4)" />
<use xlink:href="#f0_22" transform="matrix(12,0,0,12,727.5,647.4)" />
<use xlink:href="#f0_2h" transform="matrix(12,0,0,12,733,647.4)" />
<use xlink:href="#f0_2g" transform="matrix(12,0,0,12,741.8,647.4)" />
<use xlink:href="#f0_2h" transform="matrix(12,0,0,12,746.9,647.4)" />
<use xlink:href="#f0_2e" transform="matrix(12,0,0,12,755.7,647.4)" />
<use xlink:href="#f0_21" transform="matrix(12,0,0,12,761.6,647.4)" />
<use xlink:href="#f0_2e" transform="matrix(12,0,0,12,773.7,647.4)" />
<use xlink:href="#f0_21" transform="matrix(12,0,0,12,779.9,647.4)" />
<use xlink:href="#f0_22" transform="matrix(12,0,0,12,787.9,647.4)" />
<use xlink:href="#f0_21" transform="matrix(12,0,0,12,793.4,647.4)" />
<use xlink:href="#f0_2e" transform="matrix(12,0,0,12,801.5,647.4)" />
<use xlink:href="#f0_21" transform="matrix(12,0,0,12,807.4,647.4)" />
<use xlink:href="#f0_2a" transform="matrix(12,0,0,12,815.4,647.4)" />
<use xlink:href="#f0_1z" transform="matrix(12,0,0,12,824.2,647.4)" />
<use xlink:href="#f0_21" transform="matrix(12,0,0,12,831.9,647.4)" />
<use xlink:href="#f0_i" transform="matrix(12,0,0,12,839.6,647.4)" />
<use xlink:href="#f0_1g" transform="matrix(12,0,0,12,55,687)" />
<use xlink:href="#f0_28" transform="matrix(12,0,0,12,65.3,687)" />
<use xlink:href="#f0_1x" transform="matrix(12,0,0,12,69.7,687)" />
<use xlink:href="#f0_2a" transform="matrix(12,0,0,12,77.8,687)" />
<use xlink:href="#f0_2g" transform="matrix(12,0,0,12,86.2,687)" />
<use xlink:href="#f0_2f" transform="matrix(12,0,0,12,91.3,687)" />
<use xlink:href="#f0_1x" transform="matrix(12,0,0,12,106,687)" />
<use xlink:href="#f0_2a" transform="matrix(12,0,0,12,114,687)" />
<use xlink:href="#f0_20" transform="matrix(12,0,0,12,122.8,687)" />
<use xlink:href="#f0_1x" transform="matrix(12,0,0,12,139.7,687)" />
<use xlink:href="#f0_2a" transform="matrix(12,0,0,12,147.7,687)" />
<use xlink:href="#f0_25" transform="matrix(12,0,0,12,156.9,687)" />
<use xlink:href="#f0_29" transform="matrix(12,0,0,12,161.7,687)" />
<use xlink:href="#f0_1x" transform="matrix(12,0,0,12,175.2,687)" />
<use xlink:href="#f0_28" transform="matrix(12,0,0,12,183.7,687)" />
<use xlink:href="#f0_2f" transform="matrix(12,0,0,12,196.1,687)" />
<use xlink:href="#f0_2c" transform="matrix(12,0,0,12,203.1,687)" />
<use xlink:href="#f0_21" transform="matrix(12,0,0,12,211.9,687)" />
<use xlink:href="#f0_1z" transform="matrix(12,0,0,12,219.9,687)" />
<use xlink:href="#f0_25" transform="matrix(12,0,0,12,228,687)" />
<use xlink:href="#f0_29" transform="matrix(12,0,0,12,232.8,687)" />
<use xlink:href="#f0_21" transform="matrix(12,0,0,12,246.3,687)" />
<use xlink:href="#f0_2a" transform="matrix(12,0,0,12,254.4,687)" />
<use xlink:href="#f0_2f" transform="matrix(12,0,0,12,263.2,687)" />
<use xlink:href="#f0_1x" transform="matrix(12,0,0,12,278.2,687)" />
<use xlink:href="#f0_2e" transform="matrix(12,0,0,12,285.9,687)" />
<use xlink:href="#f0_21" transform="matrix(12,0,0,12,292.1,687)" />
<use xlink:href="#f0_1x" transform="matrix(12,0,0,12,307.9,687)" />
<use xlink:href="#f0_28" transform="matrix(12,0,0,12,316,687)" />
<use xlink:href="#f0_2f" transform="matrix(12,0,0,12,320.4,687)" />
<use xlink:href="#f0_2b" transform="matrix(12,0,0,12,327,687)" />
<use xlink:href="#f0_2c" transform="matrix(12,0,0,12,344.2,687)" />
<use xlink:href="#f0_2e" transform="matrix(12,0,0,12,353,687)" />
<use xlink:href="#f0_21" transform="matrix(12,0,0,12,359.2,687)" />
<use xlink:href="#f0_2f" transform="matrix(12,0,0,12,366.9,687)" />
<use xlink:href="#f0_21" transform="matrix(12,0,0,12,373.9,687)" />
<use xlink:href="#f0_2e" transform="matrix(12,0,0,12,381.6,687)" />
<use xlink:href="#f0_2i" transform="matrix(12,0,0,12,387.8,687)" />
<use xlink:href="#f0_21" transform="matrix(12,0,0,12,396.6,687)" />
<use xlink:href="#f0_20" transform="matrix(12,0,0,12,404.3,687)" />
<use xlink:href="#f0_1x" transform="matrix(12,0,0,12,421.1,687)" />
<use xlink:href="#f0_2f" transform="matrix(12,0,0,12,429.2,687)" />
<use xlink:href="#f0_20" transform="matrix(12,0,0,12,443.8,687)" />
<use xlink:href="#f0_2e" transform="matrix(12,0,0,12,452.6,687)" />
<use xlink:href="#f0_2l" transform="matrix(12,0,0,12,458.8,687)" />
<use xlink:href="#f0_2f" transform="matrix(12,0,0,12,475.3,687)" />
<use xlink:href="#f0_2c" transform="matrix(12,0,0,12,482.3,687)" />
<use xlink:href="#f0_21" transform="matrix(12,0,0,12,491.1,687)" />
<use xlink:href="#f0_1z" transform="matrix(12,0,0,12,499.2,687)" />
<use xlink:href="#f0_25" transform="matrix(12,0,0,12,507.2,687)" />
<use xlink:href="#f0_29" transform="matrix(12,0,0,12,512,687)" />
<use xlink:href="#f0_21" transform="matrix(12,0,0,12,525.6,687)" />
<use xlink:href="#f0_2a" transform="matrix(12,0,0,12,533.6,687)" />
<use xlink:href="#f0_2f" transform="matrix(12,0,0,12,542.4,687)" />
<use xlink:href="#f0_i" transform="matrix(12,0,0,12,549.4,687)" />
<use xlink:href="#f0_19" transform="matrix(12,0,0,12,562.3,687)" />
<use xlink:href="#f0_2a" transform="matrix(12,0,0,12,568.5,687)" />
<use xlink:href="#f0_2f" transform="matrix(12,0,0,12,577.3,687)" />
<use xlink:href="#f0_21" transform="matrix(12,0,0,12,583.9,687)" />
<use xlink:href="#f0_1z" transform="matrix(12,0,0,12,592,687)" />
<use xlink:href="#f0_2g" transform="matrix(12,0,0,12,599.7,687)" />
<use xlink:href="#f0_2f" transform="matrix(12,0,0,12,604.8,687)" />
<use xlink:href="#f0_1x" transform="matrix(12,0,0,12,619.5,687)" />
<use xlink:href="#f0_2e" transform="matrix(12,0,0,12,627.2,687)" />
<use xlink:href="#f0_21" transform="matrix(12,0,0,12,633,687)" />
<use xlink:href="#f0_2c" transform="matrix(12,0,0,12,648.8,687)" />
<use xlink:href="#f0_2e" transform="matrix(12,0,0,12,657.6,687)" />
<use xlink:href="#f0_21" transform="matrix(12,0,0,12,663.8,687)" />
<use xlink:href="#f0_2f" transform="matrix(12,0,0,12,671.9,687)" />
<use xlink:href="#f0_21" transform="matrix(12,0,0,12,678.5,687)" />
<use xlink:href="#f0_2e" transform="matrix(12,0,0,12,686.2,687)" />
<use xlink:href="#f0_2i" transform="matrix(12,0,0,12,692.4,687)" />
<use xlink:href="#f0_21" transform="matrix(12,0,0,12,701.2,687)" />
<use xlink:href="#f0_20" transform="matrix(12,0,0,12,709.3,687)" />
<use xlink:href="#f0_25" transform="matrix(12,0,0,12,726.5,687)" />
<use xlink:href="#f0_2a" transform="matrix(12,0,0,12,730.9,687)" />
<use xlink:href="#f0_25" transform="matrix(12,0,0,12,747.7,687)" />
<use xlink:href="#f0_2a" transform="matrix(12,0,0,12,752.5,687)" />
<use xlink:href="#f0_2f" transform="matrix(12,0,0,12,761.3,687)" />
<use xlink:href="#f0_21" transform="matrix(12,0,0,12,768.3,687)" />
<use xlink:href="#f0_1z" transform="matrix(12,0,0,12,776.3,687)" />
<use xlink:href="#f0_2g" transform="matrix(12,0,0,12,784,687)" />
<use xlink:href="#f0_1y" transform="matrix(12,0,0,12,796.8,687)" />
<use xlink:href="#f0_2b" transform="matrix(12,0,0,12,805.3,687)" />
<use xlink:href="#f0_2k" transform="matrix(12,0,0,12,814.8,687)" />
<use xlink:href="#f0_21" transform="matrix(12,0,0,12,823.6,687)" />
<use xlink:href="#f0_2f" transform="matrix(12,0,0,12,831.6,687)" />
<use xlink:href="#f0_1x" transform="matrix(12,0,0,12,846.3,687)" />
<use xlink:href="#f0_22" transform="matrix(12,0,0,12,854.4,687)" />
<use xlink:href="#f0_2g" transform="matrix(12,0,0,12,859.5,687)" />
<use xlink:href="#f0_21" transform="matrix(12,0,0,12,864.6,687)" />
<use xlink:href="#f0_2e" transform="matrix(12,0,0,12,872.7,687)" />
<use xlink:href="#f0_1z" transform="matrix(12,0,0,12,55,710.8)" />
<use xlink:href="#f0_2b" transform="matrix(12,0,0,12,62.7,710.8)" />
<use xlink:href="#f0_28" transform="matrix(12,0,0,12,72.3,710.8)" />
<use xlink:href="#f0_28" transform="matrix(12,0,0,12,76.7,710.8)" />
<use xlink:href="#f0_21" transform="matrix(12,0,0,12,81.1,710.8)" />
<use xlink:href="#f0_1z" transform="matrix(12,0,0,12,89.1,710.8)" />
<use xlink:href="#f0_2g" transform="matrix(12,0,0,12,96.8,710.8)" />
<use xlink:href="#f0_25" transform="matrix(12,0,0,12,102.3,710.8)" />
<use xlink:href="#f0_2a" transform="matrix(12,0,0,12,106.7,710.8)" />
<use xlink:href="#f0_23" transform="matrix(12,0,0,12,115.5,710.8)" />
<use xlink:href="#f0_g" transform="matrix(12,0,0,12,124.7,710.8)" />
<use xlink:href="#f0_27" transform="matrix(12,0,0,12,135.3,710.8)" />
<use xlink:href="#f0_25" transform="matrix(12,0,0,12,144.4,710.8)" />
<use xlink:href="#f0_28" transform="matrix(12,0,0,12,149.2,710.8)" />
<use xlink:href="#f0_28" transform="matrix(12,0,0,12,154,710.8)" />
<use xlink:href="#f0_25" transform="matrix(12,0,0,12,158.7,710.8)" />
<use xlink:href="#f0_2a" transform="matrix(12,0,0,12,163.5,710.8)" />
<use xlink:href="#f0_23" transform="matrix(12,0,0,12,172.3,710.8)" />
<use xlink:href="#f0_1x" transform="matrix(12,0,0,12,188.1,710.8)" />
<use xlink:href="#f0_2a" transform="matrix(12,0,0,12,196.1,710.8)" />
<use xlink:href="#f0_20" transform="matrix(12,0,0,12,204.6,710.8)" />
<use xlink:href="#f0_2c" transform="matrix(12,0,0,12,219.9,710.8)" />
<use xlink:href="#f0_25" transform="matrix(12,0,0,12,229.1,710.8)" />
<use xlink:href="#f0_2a" transform="matrix(12,0,0,12,233.5,710.8)" />
<use xlink:href="#f0_2a" transform="matrix(12,0,0,12,242.7,710.8)" />
<use xlink:href="#f0_25" transform="matrix(12,0,0,12,251.8,710.8)" />
<use xlink:href="#f0_2a" transform="matrix(12,0,0,12,256.2,710.8)" />
<use xlink:href="#f0_23" transform="matrix(12,0,0,12,265,710.8)" />
<use xlink:href="#f0_i" transform="matrix(12,0,0,12,274.2,710.8)" />
<use xlink:href="#f0_12" transform="matrix(12,0,0,12,285,710.8)" />
<use xlink:href="#f0_25" transform="matrix(12,0,0,12,297.5,710.8)" />
<use xlink:href="#f0_2e" transform="matrix(12,0,0,12,301.9,710.8)" />
<use xlink:href="#f0_20" transform="matrix(12,0,0,12,307.7,710.8)" />
<use xlink:href="#f0_2f" transform="matrix(12,0,0,12,316.9,710.8)" />
<use xlink:href="#f0_1x" transform="matrix(12,0,0,12,329.7,710.8)" />
<use xlink:href="#f0_2a" transform="matrix(12,0,0,12,337.8,710.8)" />
<use xlink:href="#f0_20" transform="matrix(12,0,0,12,346.6,710.8)" />
<use xlink:href="#f0_29" transform="matrix(12,0,0,12,362.3,710.8)" />
<use xlink:href="#f0_1x" transform="matrix(12,0,0,12,375.9,710.8)" />
<use xlink:href="#f0_29" transform="matrix(12,0,0,12,384,710.8)" />
<use xlink:href="#f0_29" transform="matrix(12,0,0,12,397.9,710.8)" />
<use xlink:href="#f0_1x" transform="matrix(12,0,0,12,411.6,710.8)" />
<use xlink:href="#f0_28" transform="matrix(12,0,0,12,420,710.8)" />
<use xlink:href="#f0_2f" transform="matrix(12,0,0,12,424.7,710.8)" />
<use xlink:href="#f0_1x" transform="matrix(12,0,0,12,437.5,710.8)" />
<use xlink:href="#f0_2e" transform="matrix(12,0,0,12,445.2,710.8)" />
<use xlink:href="#f0_21" transform="matrix(12,0,0,12,451.5,710.8)" />
<use xlink:href="#f0_2f" transform="matrix(12,0,0,12,465.7,710.8)" />
<use xlink:href="#f0_2g" transform="matrix(12,0,0,12,472.3,710.8)" />
<use xlink:href="#f0_2h" transform="matrix(12,0,0,12,477.4,710.8)" />
<use xlink:href="#f0_22" transform="matrix(12,0,0,12,486.6,710.8)" />
<use xlink:href="#f0_22" transform="matrix(12,0,0,12,492.5,710.8)" />
<use xlink:href="#f0_21" transform="matrix(12,0,0,12,498,710.8)" />
<use xlink:href="#f0_20" transform="matrix(12,0,0,12,506.1,710.8)" />
<use xlink:href="#f0_1x" transform="matrix(12,0,0,12,521.1,710.8)" />
<use xlink:href="#f0_2a" transform="matrix(12,0,0,12,529.2,710.8)" />
<use xlink:href="#f0_20" transform="matrix(12,0,0,12,538,710.8)" />
<use xlink:href="#f0_2c" transform="matrix(12,0,0,12,553,710.8)" />
<use xlink:href="#f0_2e" transform="matrix(12,0,0,12,561.8,710.8)" />
<use xlink:href="#f0_21" transform="matrix(12,0,0,12,568,710.8)" />
<use xlink:href="#f0_2f" transform="matrix(12,0,0,12,576.1,710.8)" />
<use xlink:href="#f0_21" transform="matrix(12,0,0,12,582.7,710.8)" />
<use xlink:href="#f0_2e" transform="matrix(12,0,0,12,590.4,710.8)" />
<use xlink:href="#f0_2i" transform="matrix(12,0,0,12,596.6,710.8)" />
<use xlink:href="#f0_21" transform="matrix(12,0,0,12,605.4,710.8)" />
<use xlink:href="#f0_20" transform="matrix(12,0,0,12,613.4,710.8)" />
<use xlink:href="#f0_i" transform="matrix(12,0,0,12,622.2,710.8)" />
<use xlink:href="#f0_11" transform="matrix(12,0,0,12,633.4,710.8)" />
<use xlink:href="#f0_2a" transform="matrix(12,0,0,12,646.3,710.8)" />
<use xlink:href="#f0_25" transform="matrix(12,0,0,12,655.4,710.8)" />
<use xlink:href="#f0_29" transform="matrix(12,0,0,12,660.2,710.8)" />
<use xlink:href="#f0_1x" transform="matrix(12,0,0,12,673.8,710.8)" />
<use xlink:href="#f0_28" transform="matrix(12,0,0,12,682.2,710.8)" />
<use xlink:href="#f0_2f" transform="matrix(12,0,0,12,693.2,710.8)" />
<use xlink:href="#f0_27" transform="matrix(12,0,0,12,699.8,710.8)" />
<use xlink:href="#f0_21" transform="matrix(12,0,0,12,708.9,710.8)" />
<use xlink:href="#f0_28" transform="matrix(12,0,0,12,717,710.8)" />
<use xlink:href="#f0_21" transform="matrix(12,0,0,12,721.4,710.8)" />
<use xlink:href="#f0_2g" transform="matrix(12,0,0,12,729.1,710.8)" />
<use xlink:href="#f0_2b" transform="matrix(12,0,0,12,734.2,710.8)" />
<use xlink:href="#f0_2a" transform="matrix(12,0,0,12,743.4,710.8)" />
<use xlink:href="#f0_2f" transform="matrix(12,0,0,12,752.2,710.8)" />
<use xlink:href="#f0_1x" transform="matrix(12,0,0,12,765.4,710.8)" />
<use xlink:href="#f0_2e" transform="matrix(12,0,0,12,773.1,710.8)" />
<use xlink:href="#f0_21" transform="matrix(12,0,0,12,779,710.8)" />
<use xlink:href="#f0_1x" transform="matrix(12,0,0,12,793.2,710.8)" />
<use xlink:href="#f0_28" transform="matrix(12,0,0,12,801.3,710.8)" />
<use xlink:href="#f0_2f" transform="matrix(12,0,0,12,805.7,710.8)" />
<use xlink:href="#f0_2b" transform="matrix(12,0,0,12,812.3,710.8)" />
<use xlink:href="#f0_27" transform="matrix(12,0,0,12,827.7,710.8)" />
<use xlink:href="#f0_21" transform="matrix(12,0,0,12,836.9,710.8)" />
<use xlink:href="#f0_2c" transform="matrix(12,0,0,12,844.6,710.8)" />
<use xlink:href="#f0_2g" transform="matrix(12,0,0,12,853.4,710.8)" />
<use xlink:href="#f0_25" transform="matrix(12,0,0,12,865.1,710.8)" />
<use xlink:href="#f0_2a" transform="matrix(12,0,0,12,869.8,710.8)" />
<use xlink:href="#f0_29" transform="matrix(12,0,0,12,55,734.6)" />
<use xlink:href="#f0_2h" transform="matrix(12,0,0,12,68.6,734.6)" />
<use xlink:href="#f0_2f" transform="matrix(12,0,0,12,77.8,734.6)" />
<use xlink:href="#f0_21" transform="matrix(12,0,0,12,84.7,734.6)" />
<use xlink:href="#f0_2h" transform="matrix(12,0,0,12,92.4,734.6)" />
<use xlink:href="#f0_29" transform="matrix(12,0,0,12,102,734.6)" />
<use xlink:href="#f0_2f" transform="matrix(12,0,0,12,115.5,734.6)" />
<use xlink:href="#f0_i" transform="matrix(12,0,0,12,122.1,734.6)" />
<use xlink:href="#f1_l" transform="matrix(12,0,0,12,82.9,1047.5)" />
<use xlink:href="#f1_i" transform="matrix(12,0,0,12,91.7,1047.5)" />
<use xlink:href="#f1_o" transform="matrix(12,0,0,12,96.5,1047.5)" />
<use xlink:href="#f1_i" transform="matrix(12,0,0,12,105.6,1047.5)" />
<use xlink:href="#f1_p" transform="matrix(12,0,0,12,110.4,1047.5)" />
<use xlink:href="#f1_c" transform="matrix(12,0,0,12,125.1,1047.5)" />
<use xlink:href="#f1_14" transform="matrix(12,0,0,12,131.3,1047.5)" />
<use xlink:href="#f1_d" transform="matrix(12,0,0,12,144.5,1047.5)" />
<use xlink:href="#f1_i" transform="matrix(12,0,0,12,150.7,1047.5)" />
<use xlink:href="#f1_1b" transform="matrix(12,0,0,12,155.1,1047.5)" />
<use xlink:href="#f1_21" transform="matrix(12,0,0,12,169.8,1047.5)" />
<use xlink:href="#f1_2l" transform="matrix(12,0,0,12,177.8,1047.5)" />
<use xlink:href="#f1_2f" transform="matrix(12,0,0,12,187,1047.5)" />
<use xlink:href="#f1_u" transform="matrix(12,0,0,12,194,1047.5)" />
<use xlink:href="#f1_11" transform="matrix(12,0,0,12,206.1,1047.5)" />
<use xlink:href="#f1_27" transform="matrix(12,0,0,12,225.2,1047.5)" />
<use xlink:href="#f1_21" transform="matrix(12,0,0,12,235.1,1047.5)" />
<use xlink:href="#f1_2l" transform="matrix(12,0,0,12,243.2,1047.5)" />
<use xlink:href="#f1_25" transform="matrix(12,0,0,12,258.2,1047.5)" />
<use xlink:href="#f1_2f" transform="matrix(12,0,0,12,263.3,1047.5)" />
<use xlink:href="#f1_1x" transform="matrix(12,0,0,12,276.1,1047.5)" />
<use xlink:href="#f1_2g" transform="matrix(12,0,0,12,291.1,1047.5)" />
<use xlink:href="#f1_2b" transform="matrix(12,0,0,12,297.4,1047.5)" />
<use xlink:href="#f1_2b" transform="matrix(12,0,0,12,306.5,1047.5)" />
<use xlink:href="#f1_28" transform="matrix(12,0,0,12,315.7,1047.5)" />
<use xlink:href="#f1_1y" transform="matrix(12,0,0,12,326.3,1047.5)" />
<use xlink:href="#f1_2l" transform="matrix(12,0,0,12,336.5,1047.5)" />
<use xlink:href="#f1_2j" transform="matrix(12,0,0,12,351.6,1047.5)" />
<use xlink:href="#f1_24" transform="matrix(12,0,0,12,364.8,1047.5)" />
<use xlink:href="#f1_25" transform="matrix(12,0,0,12,375,1047.5)" />
<use xlink:href="#f1_1z" transform="matrix(12,0,0,12,380.1,1047.5)" />
<use xlink:href="#f1_24" transform="matrix(12,0,0,12,388.2,1047.5)" />
<use xlink:href="#f1_21" transform="matrix(12,0,0,12,404.3,1047.5)" />
<use xlink:href="#f1_1x" transform="matrix(12,0,0,12,412.4,1047.5)" />
<use xlink:href="#f1_1z" transform="matrix(12,0,0,12,421.5,1047.5)" />
<use xlink:href="#f1_24" transform="matrix(12,0,0,12,429.6,1047.5)" />
<use xlink:href="#f1_2f" transform="matrix(12,0,0,12,445.7,1047.5)" />
<use xlink:href="#f1_2c" transform="matrix(12,0,0,12,452.7,1047.5)" />
<use xlink:href="#f1_21" transform="matrix(12,0,0,12,462.9,1047.5)" />
<use xlink:href="#f1_1z" transform="matrix(12,0,0,12,471,1047.5)" />
<use xlink:href="#f1_25" transform="matrix(12,0,0,12,479.1,1047.5)" />
<use xlink:href="#f1_21" transform="matrix(12,0,0,12,484.1,1047.5)" />
<use xlink:href="#f1_2f" transform="matrix(12,0,0,12,492.3,1047.5)" />
<use xlink:href="#f1_25" transform="matrix(12,0,0,12,505.1,1047.5)" />
<use xlink:href="#f1_2a" transform="matrix(12,0,0,12,510.2,1047.5)" />
<use xlink:href="#f1_1x" transform="matrix(12,0,0,12,526.3,1047.5)" />
<use xlink:href="#f1_23" transform="matrix(12,0,0,12,541.3,1047.5)" />
<use xlink:href="#f1_2e" transform="matrix(12,0,0,12,550.5,1047.5)" />
<use xlink:href="#f1_2b" transform="matrix(12,0,0,12,558.2,1047.5)" />
<use xlink:href="#f1_2h" transform="matrix(12,0,0,12,567.3,1047.5)" />
<use xlink:href="#f1_2c" transform="matrix(12,0,0,12,577.6,1047.5)" />
<use xlink:href="#f1_2b" transform="matrix(12,0,0,12,593.7,1047.5)" />
<use xlink:href="#f1_22" transform="matrix(12,0,0,12,602.9,1047.5)" />
<use xlink:href="#f1_2b" transform="matrix(12,0,0,12,614.6,1047.5)" />
<use xlink:href="#f1_2e" transform="matrix(12,0,0,12,624.1,1047.5)" />
<use xlink:href="#f1_23" transform="matrix(12,0,0,12,631.8,1047.5)" />
<use xlink:href="#f1_1x" transform="matrix(12,0,0,12,641,1047.5)" />
<use xlink:href="#f1_2a" transform="matrix(12,0,0,12,650.1,1047.5)" />
<use xlink:href="#f1_25" transform="matrix(12,0,0,12,660.4,1047.5)" />
<use xlink:href="#f1_2f" transform="matrix(12,0,0,12,665.5,1047.5)" />
<use xlink:href="#f1_29" transform="matrix(12,0,0,12,672.8,1047.5)" />
<use xlink:href="#f1_2f" transform="matrix(12,0,0,12,688.2,1047.5)" />
<use xlink:href="#f1_29" transform="matrix(12,0,0,12,701,1047.5)" />
<use xlink:href="#f1_1x" transform="matrix(12,0,0,12,716,1047.5)" />
<use xlink:href="#f1_2l" transform="matrix(12,0,0,12,725.2,1047.5)" />
<use xlink:href="#f1_1y" transform="matrix(12,0,0,12,740.2,1047.5)" />
<use xlink:href="#f1_21" transform="matrix(12,0,0,12,750.5,1047.5)" />
<use xlink:href="#f1_25" transform="matrix(12,0,0,12,764.4,1047.5)" />
<use xlink:href="#f1_20" transform="matrix(12,0,0,12,769.5,1047.5)" />
<use xlink:href="#f1_21" transform="matrix(12,0,0,12,779.8,1047.5)" />
<use xlink:href="#f1_2a" transform="matrix(12,0,0,12,787.8,1047.5)" />
<use xlink:href="#f1_2g" transform="matrix(12,0,0,12,798.1,1047.5)" />
<use xlink:href="#f1_25" transform="matrix(12,0,0,12,804.3,1047.5)" />
<use xlink:href="#f1_22" transform="matrix(12,0,0,12,809.4,1047.5)" />
<use xlink:href="#f1_25" transform="matrix(12,0,0,12,815.3,1047.5)" />
<use xlink:href="#f1_21" transform="matrix(12,0,0,12,820.4,1047.5)" />
<use xlink:href="#f1_20" transform="matrix(12,0,0,12,828.5,1047.5)" />
<use xlink:href="#f0_i" transform="matrix(12,0,0,12,839.6,1047.5)" />
<use xlink:href="#f0_19" transform="matrix(12,0,0,12,850.3,1047.5)" />
<use xlink:href="#f0_2g" transform="matrix(12,0,0,12,856.1,1047.5)" />
<use xlink:href="#f0_25" transform="matrix(12,0,0,12,867.5,1047.5)" />
<use xlink:href="#f0_2f" transform="matrix(12,0,0,12,871.9,1047.5)" />
<use xlink:href="#f0_2c" transform="matrix(12,0,0,12,55,1071.3)" />
<use xlink:href="#f0_2e" transform="matrix(12,0,0,12,64.2,1071.3)" />
<use xlink:href="#f0_21" transform="matrix(12,0,0,12,70.4,1071.3)" />
<use xlink:href="#f0_2c" transform="matrix(12,0,0,12,78.5,1071.3)" />
<use xlink:href="#f0_1x" transform="matrix(12,0,0,12,87.7,1071.3)" />
<use xlink:href="#f0_2e" transform="matrix(12,0,0,12,95.7,1071.3)" />
<use xlink:href="#f0_21" transform="matrix(12,0,0,12,101.9,1071.3)" />
<use xlink:href="#f0_20" transform="matrix(12,0,0,12,110,1071.3)" />
<use xlink:href="#f0_1y" transform="matrix(12,0,0,12,123.2,1071.3)" />
<use xlink:href="#f0_2l" transform="matrix(12,0,0,12,132.4,1071.3)" />
<use xlink:href="#f0_1x" transform="matrix(12,0,0,12,144.8,1071.3)" />
<use xlink:href="#f0_2g" transform="matrix(12,0,0,12,156.9,1071.3)" />
<use xlink:href="#f0_1x" transform="matrix(12,0,0,12,162.4,1071.3)" />
<use xlink:href="#f0_2k" transform="matrix(12,0,0,12,170.5,1071.3)" />
<use xlink:href="#f0_2b" transform="matrix(12,0,0,12,179.3,1071.3)" />
<use xlink:href="#f0_2a" transform="matrix(12,0,0,12,188.8,1071.3)" />
<use xlink:href="#f0_2b" transform="matrix(12,0,0,12,197.6,1071.3)" />
<use xlink:href="#f0_29" transform="matrix(12,0,0,12,207.1,1071.3)" />
<use xlink:href="#f0_25" transform="matrix(12,0,0,12,221,1071.3)" />
<use xlink:href="#f0_2f" transform="matrix(12,0,0,12,225.8,1071.3)" />
<use xlink:href="#f0_2g" transform="matrix(12,0,0,12,232.8,1071.3)" />
<use xlink:href="#f0_2g" transform="matrix(12,0,0,12,242.3,1071.3)" />
<use xlink:href="#f0_2b" transform="matrix(12,0,0,12,247.4,1071.3)" />
<use xlink:href="#f0_24" transform="matrix(12,0,0,12,260.6,1071.3)" />
<use xlink:href="#f0_21" transform="matrix(12,0,0,12,269.4,1071.3)" />
<use xlink:href="#f0_28" transform="matrix(12,0,0,12,277.8,1071.3)" />
<use xlink:href="#f0_2c" transform="matrix(12,0,0,12,282.2,1071.3)" />
<use xlink:href="#f0_2b" transform="matrix(12,0,0,12,295.4,1071.3)" />
<use xlink:href="#f0_2g" transform="matrix(12,0,0,12,305,1071.3)" />
<use xlink:href="#f0_24" transform="matrix(12,0,0,12,310.4,1071.3)" />
<use xlink:href="#f0_21" transform="matrix(12,0,0,12,319.2,1071.3)" />
<use xlink:href="#f0_2e" transform="matrix(12,0,0,12,327.3,1071.3)" />
<use xlink:href="#f0_1y" transform="matrix(12,0,0,12,337.6,1071.3)" />
<use xlink:href="#f0_25" transform="matrix(12,0,0,12,346.7,1071.3)" />
<use xlink:href="#f0_2b" transform="matrix(12,0,0,12,351.1,1071.3)" />
<use xlink:href="#f0_28" transform="matrix(12,0,0,12,361,1071.3)" />
<use xlink:href="#f0_2b" transform="matrix(12,0,0,12,365.4,1071.3)" />
<use xlink:href="#f0_23" transform="matrix(12,0,0,12,374.9,1071.3)" />
<use xlink:href="#f0_25" transform="matrix(12,0,0,12,384.4,1071.3)" />
<use xlink:href="#f0_2f" transform="matrix(12,0,0,12,388.8,1071.3)" />
<use xlink:href="#f0_2g" transform="matrix(12,0,0,12,395.8,1071.3)" />
<use xlink:href="#f0_2f" transform="matrix(12,0,0,12,401.3,1071.3)" />
<use xlink:href="#f0_2g" transform="matrix(12,0,0,12,412.3,1071.3)" />
<use xlink:href="#f0_2b" transform="matrix(12,0,0,12,417.4,1071.3)" />
<use xlink:href="#f0_25" transform="matrix(12,0,0,12,430.6,1071.3)" />
<use xlink:href="#f0_20" transform="matrix(12,0,0,12,435,1071.3)" />
<use xlink:href="#f0_21" transform="matrix(12,0,0,12,444.2,1071.3)" />
<use xlink:href="#f0_2a" transform="matrix(12,0,0,12,452.6,1071.3)" />
<use xlink:href="#f0_2g" transform="matrix(12,0,0,12,461.4,1071.3)" />
<use xlink:href="#f0_25" transform="matrix(12,0,0,12,467.2,1071.3)" />
<use xlink:href="#f0_22" transform="matrix(12,0,0,12,472,1071.3)" />
<use xlink:href="#f0_2l" transform="matrix(12,0,0,12,478.2,1071.3)" />
<use xlink:href="#f0_2g" transform="matrix(12,0,0,12,490.7,1071.3)" />
<use xlink:href="#f0_24" transform="matrix(12,0,0,12,496.2,1071.3)" />
<use xlink:href="#f0_21" transform="matrix(12,0,0,12,505,1071.3)" />
<use xlink:href="#f0_2f" transform="matrix(12,0,0,12,517.6,1071.3)" />
<use xlink:href="#f0_2c" transform="matrix(12,0,0,12,524.5,1071.3)" />
<use xlink:href="#f0_21" transform="matrix(12,0,0,12,533.7,1071.3)" />
<use xlink:href="#f0_1z" transform="matrix(12,0,0,12,542.1,1071.3)" />
<use xlink:href="#f0_25" transform="matrix(12,0,0,12,550.5,1071.3)" />
<use xlink:href="#f0_21" transform="matrix(12,0,0,12,555.3,1071.3)" />
<use xlink:href="#f0_2f" transform="matrix(12,0,0,12,563.3,1071.3)" />
<use xlink:href="#f0_i" transform="matrix(12,0,0,12,570.3,1071.3)" />
<use xlink:href="#f0_1k" transform="matrix(12,0,0,12,579.2,1071.3)" />
<use xlink:href="#f0_1x" transform="matrix(12,0,0,12,590.5,1071.3)" />
<use xlink:href="#f0_2k" transform="matrix(12,0,0,12,598.6,1071.3)" />
<use xlink:href="#f0_2b" transform="matrix(12,0,0,12,607.4,1071.3)" />
<use xlink:href="#f0_2a" transform="matrix(12,0,0,12,616.9,1071.3)" />
<use xlink:href="#f0_2b" transform="matrix(12,0,0,12,625.7,1071.3)" />
<use xlink:href="#f0_29" transform="matrix(12,0,0,12,635.6,1071.3)" />
<use xlink:href="#f0_25" transform="matrix(12,0,0,12,649.5,1071.3)" />
<use xlink:href="#f0_1z" transform="matrix(12,0,0,12,654.3,1071.3)" />
<use xlink:href="#f0_27" transform="matrix(12,0,0,12,666.4,1071.3)" />
<use xlink:href="#f0_21" transform="matrix(12,0,0,12,675.6,1071.3)" />
<use xlink:href="#f0_2l" transform="matrix(12,0,0,12,684,1071.3)" />
<use xlink:href="#f0_2f" transform="matrix(12,0,0,12,692.8,1071.3)" />
<use xlink:href="#f0_1x" transform="matrix(12,0,0,12,703.8,1071.3)" />
<use xlink:href="#f0_2e" transform="matrix(12,0,0,12,711.8,1071.3)" />
<use xlink:href="#f0_21" transform="matrix(12,0,0,12,718.1,1071.3)" />
<use xlink:href="#f0_1y" transform="matrix(12,0,0,12,730.2,1071.3)" />
<use xlink:href="#f0_1x" transform="matrix(12,0,0,12,739,1071.3)" />
<use xlink:href="#f0_2f" transform="matrix(12,0,0,12,747,1071.3)" />
<use xlink:href="#f0_21" transform="matrix(12,0,0,12,754.3,1071.3)" />
<use xlink:href="#f0_20" transform="matrix(12,0,0,12,762.4,1071.3)" />
<use xlink:href="#f0_2b" transform="matrix(12,0,0,12,775.6,1071.3)" />
<use xlink:href="#f0_2a" transform="matrix(12,0,0,12,785.1,1071.3)" />
<use xlink:href="#f0_1z" transform="matrix(12,0,0,12,797.6,1071.3)" />
<use xlink:href="#f0_2b" transform="matrix(12,0,0,12,805.7,1071.3)" />
<use xlink:href="#f0_2a" transform="matrix(12,0,0,12,815.2,1071.3)" />
<use xlink:href="#f0_2g" transform="matrix(12,0,0,12,824,1071.3)" />
<use xlink:href="#f0_2e" transform="matrix(12,0,0,12,829.4,1071.3)" />
<use xlink:href="#f0_1x" transform="matrix(12,0,0,12,835.7,1071.3)" />
<use xlink:href="#f0_2f" transform="matrix(12,0,0,12,843.7,1071.3)" />
<use xlink:href="#f0_2g" transform="matrix(12,0,0,12,850.3,1071.3)" />
<use xlink:href="#f0_25" transform="matrix(12,0,0,12,855.8,1071.3)" />
<use xlink:href="#f0_2a" transform="matrix(12,0,0,12,860.6,1071.3)" />
<use xlink:href="#f0_23" transform="matrix(12,0,0,12,869.4,1071.3)" />
<use xlink:href="#f0_1z" transform="matrix(12,0,0,12,55,1095.6)" />
<use xlink:href="#f0_24" transform="matrix(12,0,0,12,63.1,1095.6)" />
<use xlink:href="#f0_1x" transform="matrix(12,0,0,12,71.9,1095.6)" />
<use xlink:href="#f0_2e" transform="matrix(12,0,0,12,80,1095.6)" />
<use xlink:href="#f0_1x" transform="matrix(12,0,0,12,86.2,1095.6)" />
<use xlink:href="#f0_1z" transform="matrix(12,0,0,12,94.3,1095.6)" />
<use xlink:href="#f0_2g" transform="matrix(12,0,0,12,102.3,1095.6)" />
<use xlink:href="#f0_21" transform="matrix(12,0,0,12,107.8,1095.6)" />
<use xlink:href="#f0_2e" transform="matrix(12,0,0,12,115.9,1095.6)" />
<use xlink:href="#f0_2f" transform="matrix(12,0,0,12,122.1,1095.6)" />
<use xlink:href="#f0_i" transform="matrix(12,0,0,12,129,1095.6)" />
<use xlink:href="#f0_1k" transform="matrix(12,0,0,12,138.6,1095.6)" />
<use xlink:href="#f0_24" transform="matrix(12,0,0,12,150,1095.6)" />
<use xlink:href="#f0_21" transform="matrix(12,0,0,12,158.8,1095.6)" />
<use xlink:href="#f0_1z" transform="matrix(12,0,0,12,171.6,1095.6)" />
<use xlink:href="#f0_24" transform="matrix(12,0,0,12,179.7,1095.6)" />
<use xlink:href="#f0_1x" transform="matrix(12,0,0,12,188.5,1095.6)" />
<use xlink:href="#f0_2e" transform="matrix(12,0,0,12,196.5,1095.6)" />
<use xlink:href="#f0_1x" transform="matrix(12,0,0,12,202.7,1095.6)" />
<use xlink:href="#f0_1z" transform="matrix(12,0,0,12,210.8,1095.6)" />
<use xlink:href="#f0_2g" transform="matrix(12,0,0,12,218.9,1095.6)" />
<use xlink:href="#f0_21" transform="matrix(12,0,0,12,224.4,1095.6)" />
<use xlink:href="#f0_2e" transform="matrix(12,0,0,12,232.4,1095.6)" />
<use xlink:href="#f0_2f" transform="matrix(12,0,0,12,238.6,1095.6)" />
<use xlink:href="#f0_1x" transform="matrix(12,0,0,12,250.4,1095.6)" />
<use xlink:href="#f0_2e" transform="matrix(12,0,0,12,258.4,1095.6)" />
<use xlink:href="#f0_21" transform="matrix(12,0,0,12,264.6,1095.6)" />
<use xlink:href="#f0_25" transform="matrix(12,0,0,12,277.5,1095.6)" />
<use xlink:href="#f0_2a" transform="matrix(12,0,0,12,282.2,1095.6)" />
<use xlink:href="#f0_1x" transform="matrix(12,0,0,12,295.8,1095.6)" />
<use xlink:href="#f0_2c" transform="matrix(12,0,0,12,308.6,1095.6)" />
<use xlink:href="#f0_1x" transform="matrix(12,0,0,12,317.8,1095.6)" />
<use xlink:href="#f0_25" transform="matrix(12,0,0,12,326.2,1095.6)" />
<use xlink:href="#f0_2e" transform="matrix(12,0,0,12,330.6,1095.6)" />
<use xlink:href="#f0_1z" transform="matrix(12,0,0,12,341.5,1095.6)" />
<use xlink:href="#f0_1x" transform="matrix(12,0,0,12,349.6,1095.6)" />
<use xlink:href="#f0_28" transform="matrix(12,0,0,12,358,1095.6)" />
<use xlink:href="#f0_28" transform="matrix(12,0,0,12,363.1,1095.6)" />
<use xlink:href="#f0_21" transform="matrix(12,0,0,12,367.9,1095.6)" />
<use xlink:href="#f0_20" transform="matrix(12,0,0,12,376,1095.6)" />
<use xlink:href="#f0_1z" transform="matrix(12,0,0,12,389.9,1095.6)" />
<use xlink:href="#f0_2b" transform="matrix(12,0,0,12,398,1095.6)" />
<use xlink:href="#f0_2h" transform="matrix(12,0,0,12,407.5,1095.6)" />
<use xlink:href="#f0_2c" transform="matrix(12,0,0,12,416.6,1095.6)" />
<use xlink:href="#f0_28" transform="matrix(12,0,0,12,425.8,1095.6)" />
<use xlink:href="#f0_21" transform="matrix(12,0,0,12,430.6,1095.6)" />
<use xlink:href="#f0_2g" transform="matrix(12,0,0,12,438.6,1095.6)" />
<use xlink:href="#f0_i" transform="matrix(12,0,0,12,444.1,1095.6)" />
<use xlink:href="#f0_1b" transform="matrix(12,0,0,12,77.8,1134.8)" />
<use xlink:href="#f0_21" transform="matrix(12,0,0,12,90.6,1134.8)" />
<use xlink:href="#f0_2l" transform="matrix(12,0,0,12,99,1134.8)" />
<use xlink:href="#f0_29" transform="matrix(12,0,0,12,112.9,1134.8)" />
<use xlink:href="#f0_1x" transform="matrix(12,0,0,12,126.9,1134.8)" />
<use xlink:href="#f0_2l" transform="matrix(12,0,0,12,135.3,1134.8)" />
<use xlink:href="#f0_1y" transform="matrix(12,0,0,12,148.8,1134.8)" />
<use xlink:href="#f0_21" transform="matrix(12,0,0,12,158,1134.8)" />
<use xlink:href="#f0_2b" transform="matrix(12,0,0,12,170.8,1134.8)" />
<use xlink:href="#f0_22" transform="matrix(12,0,0,12,180.3,1134.8)" />
<use xlink:href="#f0_2g" transform="matrix(12,0,0,12,190.6,1134.8)" />
<use xlink:href="#f0_2j" transform="matrix(12,0,0,12,196.1,1134.8)" />
<use xlink:href="#f0_2b" transform="matrix(12,0,0,12,208.9,1134.8)" />
<use xlink:href="#f0_2g" transform="matrix(12,0,0,12,222.8,1134.8)" />
<use xlink:href="#f0_2l" transform="matrix(12,0,0,12,228.3,1134.8)" />
<use xlink:href="#f0_2c" transform="matrix(12,0,0,12,236.7,1134.8)" />
<use xlink:href="#f0_21" transform="matrix(12,0,0,12,245.9,1134.8)" />
<use xlink:href="#f0_2f" transform="matrix(12,0,0,12,254,1134.8)" />
<use xlink:href="#f0_h" transform="matrix(12,0,0,12,261.2,1134.8)" />
<use xlink:href="#f1_25" transform="matrix(12,0,0,12,267.4,1134.8)" />
<use xlink:href="#f1_2a" transform="matrix(12,0,0,12,272.5,1134.8)" />
<use xlink:href="#f1_20" transform="matrix(12,0,0,12,282.8,1134.8)" />
<use xlink:href="#f1_21" transform="matrix(12,0,0,12,293,1134.8)" />
<use xlink:href="#f1_2a" transform="matrix(12,0,0,12,301.1,1134.8)" />
<use xlink:href="#f1_2g" transform="matrix(12,0,0,12,311.4,1134.8)" />
<use xlink:href="#f1_21" transform="matrix(12,0,0,12,317.6,1134.8)" />
<use xlink:href="#f1_20" transform="matrix(12,0,0,12,325.6,1134.8)" />
<use xlink:href="#f1_27" transform="matrix(12,0,0,12,340.6,1134.8)" />
<use xlink:href="#f1_21" transform="matrix(12,0,0,12,350.5,1134.8)" />
<use xlink:href="#f1_2l" transform="matrix(12,0,0,12,358.6,1134.8)" />
<use xlink:href="#f1_1x" transform="matrix(12,0,0,12,372.5,1134.8)" />
<use xlink:href="#f1_2a" transform="matrix(12,0,0,12,381.7,1134.8)" />
<use xlink:href="#f1_20" transform="matrix(12,0,0,12,391.9,1134.8)" />
<use xlink:href="#f1_1y" transform="matrix(12,0,0,12,406.9,1134.8)" />
<use xlink:href="#f1_2e" transform="matrix(12,0,0,12,417.2,1134.8)" />
<use xlink:href="#f1_1x" transform="matrix(12,0,0,12,424.9,1134.8)" />
<use xlink:href="#f1_1z" transform="matrix(12,0,0,12,434,1134.8)" />
<use xlink:href="#f1_27" transform="matrix(12,0,0,12,442.1,1134.8)" />
<use xlink:href="#f1_21" transform="matrix(12,0,0,12,452.4,1134.8)" />
<use xlink:href="#f1_2g" transform="matrix(12,0,0,12,460.4,1134.8)" />
<use xlink:href="#f1_21" transform="matrix(12,0,0,12,466.6,1134.8)" />
<use xlink:href="#f1_20" transform="matrix(12,0,0,12,474.7,1134.8)" />
<use xlink:href="#f1_27" transform="matrix(12,0,0,12,489.7,1134.8)" />
<use xlink:href="#f1_21" transform="matrix(12,0,0,12,499.6,1134.8)" />
<use xlink:href="#f1_2l" transform="matrix(12,0,0,12,507.7,1134.8)" />
<use xlink:href="#f1_i" transform="matrix(12,0,0,12,516.8,1134.8)" />
</g>
<image preserveAspectRatio="none" x="80" y="55" width="474" height="334" xlink:href="img/1.png" />
<image preserveAspectRatio="none" x="94" y="757" width="443" height="241" xlink:href="img/2.png" />
<g fill="#000000" >
<use xlink:href="#f2_s" transform="matrix(8,0,0,8,818.2,1187.9)" />
</g>
<defs>
<path d="M843,0L451,506L316,398V60L460,40V0H44V40L172,60V941L44,960v40H445V960L316,941V470L795,941l-99,19v40h313V960L894,941L552,607L979,60L1088,40V0Z" 
id="f0_1b"
transform="scale(0.001,-0.001)" />

<path d="M44,0V40L172,60V941L44,960v40H794V760H745L721,922c0,0,-83,11,-241,11H316V543H586l23,119h48V354H609L586,475H316V67H513c0,0,193,0,252,12l43,185h49L843,0Z" 
id="f0_15"
transform="scale(0.001,-0.001)" />

<path d="M420,-22L89,941L1,960v40H383V960L236,941L474,236L744,930h33L1037,236l227,705l-156,19v40h331V960l-87,-19L1025,-22H985L726,666L460,-22Z" 
id="f0_1n"
transform="scale(0.001,-0.001)" />

<path d="M577,-14c0,0,-243,0,-379,131C198,117,63,248,63,488c0,0,0,263,131,393c0,0,132,130,386,130c0,0,182,0,352,-45V751H882L862,875c0,0,-52,37,-124,57c0,0,-72,19,-152,19c0,0,-191,0,-279,-113c0,0,-88,-114,-88,-348c0,0,0,-220,91,-333c0,0,91,-114,269,-114c0,0,63,0,131,15c0,0,69,15,105,36V377L686,397v40h370V397L958,377V52C958,52,871,24,778,5c0,0,-93,-19,-201,-19Z" 
id="f0_17"
transform="scale(0.001,-0.001)" />

<path d="M681,416L504,902L333,416ZM669,0V40L803,60L704,348H310L210,60L344,40V0H15V40L128,60l341,949H611L965,60L1092,40V0Z" 
id="f0_11"
transform="scale(0.001,-0.001)" />

<path d="M448,506c0,0,134,0,190,49c0,0,57,50,57,168c0,0,0,114,-56,162c0,0,-56,48,-195,48H316V506ZM777,0L496,438H316V60L468,40V0H54V40L172,60V941L44,960v40H476c0,0,188,0,277,-63c0,0,90,-64,90,-204c0,0,0,-100,-54,-173c0,0,-55,-73,-151,-101L909,60L1017,40V0Z" 
id="f0_1i"
transform="scale(0.001,-0.001)" />

<path d="M529,65c0,0,183,0,270,108c0,0,87,108,87,334c0,0,0,210,-113,318c0,0,-113,108,-322,108H316V71c0,0,90,-6,213,-6Zm0,-67L172,0H44V40L172,60V941L44,960v40H498c0,0,277,0,411,-123c0,0,133,-124,133,-371c0,0,0,-251,-129,-380C913,126,785,-2,529,-2Z" 
id="f0_14"
transform="scale(0.001,-0.001)" />

<path d="M868,0L251,900V60L385,40V0H44V40L172,60V941L44,960v40H347L862,259V941L727,960v40h341V960L940,941V0Z" 
id="f0_1e"
transform="scale(0.001,-0.001)" />

<path d="M122,0V64L295,82V837L123,780v64l282,165H511V82L685,64V0Z" 
id="f1_l"
transform="scale(0.001,-0.001)" />

<path d="M191,-20c0,0,-51,0,-88,34c0,0,-36,36,-36,88c0,0,0,52,36,88c0,0,36,36,88,36c0,0,51,0,88,-36c0,0,36,-36,36,-88c0,0,0,-51,-36,-87c0,0,-36,-35,-88,-35Z" 
id="f1_i"
transform="scale(0.001,-0.001)" />

<path d="M435,350V646c0,0,0,84,7,158L145,350ZM435,0V198H21V319l450,686H636V350H736V198H636V0Z" 
id="f1_o"
transform="scale(0.001,-0.001)" />

<path d="M342,-14c0,0,-138,0,-276,29L57,258h69L165,96c0,0,65,-36,136,-36c0,0,90,0,141,58c0,0,50,57,50,161c0,0,0,91,-40,139c0,0,-41,48,-132,54l-87,5v90l84,6c0,0,66,5,98,49c0,0,32,44,32,134c0,0,0,83,-38,131c0,0,-38,48,-107,48c0,0,-40,0,-66,-13c0,0,-26,-12,-49,-26L155,751H90V979c0,0,76,19,132,26c0,0,55,6,108,6c0,0,337,0,337,-246c0,0,0,-102,-54,-164c0,0,-54,-63,-153,-78c0,0,252,-30,252,-251c0,0,0,-136,-98,-211c0,0,-98,-75,-272,-75Z" 
id="f1_n"
transform="scale(0.001,-0.001)" />

<path d="M900,0V54l135,20V845L658,0H617L248,845V74L382,54V0H26V54L154,74V926L26,945v55H419L705,342l292,658h401V945L1270,926V74L1398,54V0Z" 
id="f1_1d"
transform="scale(0.001,-0.001)" />

<path d="M287,-18c0,0,-194,0,-194,206V634L23,652v49H309V217c0,0,0,-63,26,-98c0,0,27,-35,76,-35c0,0,57,0,113,25V634l-64,18v49H740V67L809,49V0H536L526,61L475,35c0,0,-104,-53,-188,-53Z" 
id="f1_2h"
transform="scale(0.001,-0.001)" />

<path d="M276,-14c0,0,-57,0,-125,13C151,-1,83,10,48,23V214H97l28,-98c0,0,26,-26,69,-44c0,0,42,-17,86,-17c0,0,65,0,97,28c0,0,32,28,32,71c0,0,0,41,-31,65c0,0,-30,25,-133,57c0,0,-108,34,-154,92c0,0,-45,58,-45,143c0,0,0,95,71,152c0,0,71,57,183,57c0,0,77,0,207,-22V518H457l-24,82c0,0,-21,22,-60,35c0,0,-40,14,-75,14c0,0,-53,0,-79,-22c0,0,-26,-22,-26,-59c0,0,0,-40,32,-65c0,0,32,-26,132,-55c0,0,109,-34,155,-89c0,0,45,-55,45,-137c0,0,0,-117,-72,-177c0,0,-72,-59,-209,-59Z" 
id="f1_2f"
transform="scale(0.001,-0.001)" />

<path d="M434,423c0,0,0,101,-7,142c0,0,-6,40,-22,60c0,0,-16,19,-45,19c0,0,-44,0,-66,-48c0,0,-22,-49,-22,-173ZM389,-14c0,0,-172,0,-254,89c0,0,-83,90,-83,279c0,0,0,184,79,274c0,0,79,91,238,91c0,0,142,0,206,-76c0,0,64,-76,64,-237V345H271V333c0,0,0,-111,18,-158c0,0,18,-47,58,-72c0,0,40,-25,110,-25c0,0,66,0,166,22V42C623,42,582,18,517,1c0,0,-66,-15,-128,-15Z" 
id="f1_21"
transform="scale(0.001,-0.001)" />

<path d="M41,0V49l69,18V634L41,652v49H313l11,-61l50,26c0,0,105,54,188,54c0,0,125,0,167,-91c0,0,153,91,258,91c0,0,189,0,189,-207V67l71,-17V0H898V50l63,17V484c0,0,0,63,-24,98c0,0,-25,35,-74,35c0,0,-55,0,-119,-31c0,0,7,-32,7,-73V67L821,50V0H473V50l63,17V484c0,0,0,63,-25,98c0,0,-24,35,-73,35c0,0,-49,0,-113,-29V67L389,49V0Z" 
id="f1_29"
transform="scale(0.001,-0.001)" />

<path d="M248,-20c0,0,-52,0,-87,34c0,0,-36,36,-36,88c0,0,0,52,36,88c0,0,35,36,87,36c0,0,52,0,88,-36c0,0,36,-36,36,-88c0,0,0,-51,-36,-87c0,0,-35,-35,-88,-35Zm0,488c0,0,-52,0,-87,36c0,0,-36,36,-36,88c0,0,0,52,35,88c0,0,35,36,88,36c0,0,53,0,89,-36c0,0,35,-37,35,-88c0,0,0,-51,-36,-87c0,0,-35,-37,-88,-37Z" 
id="f1_u"
transform="scale(0.001,-0.001)" />

<path d="M55,0V40L184,60V941L55,960v40H455V960L327,941V60L455,40V0Z" 
id="f0_19"
transform="scale(0.001,-0.001)" />

<path d="M249,-14c0,0,-71,0,-107,42c0,0,-35,42,-35,119V639H15v33l93,29l76,159h47V701H391V639H231V161c0,0,0,-48,22,-73c0,0,22,-24,57,-24c0,0,44,0,106,12V26C416,26,389,8,340,-2c0,0,-49,-12,-91,-12Z" 
id="f0_2g"
transform="scale(0.001,-0.001)" />

<path d="M32,0V33L151,52V649L52,668v33H275V52L395,33V0ZM201,850c0,0,-32,0,-56,24c0,0,-24,24,-24,56c0,0,0,34,24,58c0,0,24,24,56,24c0,0,34,0,58,-24c0,0,24,-24,24,-58c0,0,0,-32,-24,-56c0,0,-24,-24,-58,-24Z" 
id="f0_25"
transform="scale(0.001,-0.001)" />

<path d="M278,-14c0,0,-52,0,-115,11c0,0,-63,10,-99,23V193H98L134,95c0,0,56,-50,146,-50c0,0,144,0,144,123c0,0,0,91,-114,130l-66,21c0,0,-75,25,-110,50c0,0,-34,26,-53,63c0,0,-18,36,-18,89c0,0,0,92,63,145c0,0,63,54,170,54c0,0,77,0,193,-23V544H454l-32,81c0,0,-39,35,-124,35c0,0,-61,0,-92,-30c0,0,-32,-30,-32,-80c0,0,0,-43,29,-72c0,0,28,-29,86,-48c0,0,110,-38,144,-55c0,0,33,-17,57,-42c0,0,23,-25,36,-57c0,0,13,-32,13,-79c0,0,0,-104,-66,-158c0,0,-66,-53,-195,-53Z" 
id="f0_2f"
transform="scale(0.001,-0.001)" />

<path d="M442,0V33l93,19V504c0,0,0,129,-124,129c0,0,-70,0,-168,-22V52L338,33V0H31V33l88,19v956L15,1026v34H243V756c0,0,0,-77,-5,-112c0,0,54,31,122,53c0,0,68,23,115,23c0,0,91,0,137,-53c0,0,47,-53,47,-154V52L744,33V0Z" 
id="f0_24"
transform="scale(0.001,-0.001)" />

<path d="M495,413c0,0,0,133,-34,190c0,0,-34,57,-105,57c0,0,-78,0,-119,-63c0,0,-42,-62,-42,-184ZM374,-14c0,0,-163,0,-239,87c0,0,-75,88,-75,283c0,0,0,183,77,273c0,0,76,91,219,91c0,0,269,0,269,-306V353H194V340c0,0,0,-103,23,-160c0,0,22,-57,70,-87c0,0,47,-29,124,-29c0,0,40,0,96,6c0,0,55,7,91,15V43C598,43,562,20,500,3c0,0,-61,-17,-126,-17Z" 
id="f0_21"
transform="scale(0.001,-0.001)" />

<path d="M439,0V33l93,19V500c0,0,0,62,-30,97c0,0,-31,36,-94,36c0,0,-67,0,-165,-22V52L338,33V0H35V33l84,19V649L35,668v33H235l7,-57c0,0,57,33,122,54c0,0,65,22,108,22c0,0,91,0,137,-53c0,0,47,-53,47,-154V52L741,33V0Z" 
id="f0_2a"
transform="scale(0.001,-0.001)" />

<path d="M289,-14c0,0,-179,0,-179,205V649L20,668v33H233V200c0,0,0,-128,120,-128c0,0,92,0,173,23V649L420,668v33H649V52L738,33V0H533l-6,57C527,57,474,28,405,7c0,0,-69,-21,-116,-21Z" 
id="f0_2h"
transform="scale(0.001,-0.001)" />

<path d="M377,45c0,0,99,0,147,73c0,0,47,73,47,237c0,0,0,161,-47,233c0,0,-47,72,-147,72c0,0,-97,0,-141,-69c0,0,-44,-69,-44,-236c0,0,0,-169,45,-240c0,0,44,-70,140,-70Zm0,-59c0,0,-158,0,-238,94c0,0,-81,95,-81,274c0,0,0,178,81,272c0,0,80,94,244,94c0,0,160,0,241,-92c0,0,82,-92,82,-274c0,0,0,-368,-329,-368Z" 
id="f0_2b"
transform="scale(0.001,-0.001)" />

<path d="M327,-14L84,649L1,668v33H335V668L219,648L385,174L554,632h63L786,171L944,649L830,668v33h267V668l-78,-16L784,-14H726L553,448L382,-14Z" 
id="f0_2j"
transform="scale(0.001,-0.001)" />

<path d="M31,0V33l88,19V649L31,668v33H235l7,-87c0,0,44,37,121,71c0,0,76,35,121,35h11V530H463l-43,82c0,0,-37,0,-88,-10c0,0,-52,-10,-89,-26V52L363,33V0Z" 
id="f0_2e"
transform="scale(0.001,-0.001)" />

<path d="M284,67c0,0,51,0,88,12c0,0,37,12,74,30V358l-98,-3c0,0,-100,-4,-135,-39c0,0,-35,-35,-35,-117c0,0,0,-132,106,-132ZM233,-14c0,0,-179,0,-179,208c0,0,0,70,27,116c0,0,27,46,87,70c0,0,60,24,173,27l105,3V519c0,0,0,72,-26,107c0,0,-27,34,-82,34c0,0,-75,0,-137,-35L176,538H134V691c0,0,121,26,213,26c0,0,115,0,169,-47c0,0,54,-47,54,-144V52L657,33V0H465L451,70c0,0,-85,-84,-218,-84Z" 
id="f0_1x"
transform="scale(0.001,-0.001)" />

<path d="M399,-14c0,0,-341,0,-341,370c0,0,0,175,87,269c0,0,87,95,249,95c0,0,101,0,220,-23V501H573L541,625c0,0,-62,35,-149,35c0,0,-200,0,-200,-304c0,0,0,-158,61,-225c0,0,61,-67,189,-67c0,0,109,0,189,24V43C631,43,595,16,530,1c0,0,-64,-15,-131,-15Z" 
id="f0_1z"
transform="scale(0.001,-0.001)" />

<path d="M383,64c0,0,85,0,152,28V645c0,0,-67,13,-152,13c0,0,-194,0,-194,-314c0,0,0,-141,48,-211c0,0,48,-69,146,-69ZM342,-14c0,0,-287,0,-287,358c0,0,0,184,82,280c0,0,81,96,239,96c0,0,81,0,163,-18c0,0,-4,25,-4,124v182l-118,18v34H659V52L745,33V0H548l-9,52c0,0,-84,-66,-197,-66Z" 
id="f0_20"
transform="scale(0.001,-0.001)" />

<path d="M31,0V33L150,52v956L31,1026v34H274V52L394,33V0Z" 
id="f0_28"
transform="scale(0.001,-0.001)" />

<path d="M382,45c0,0,188,0,188,314c0,0,0,143,-47,213c0,0,-46,69,-141,69c0,0,-87,0,-146,-24V58c0,0,67,-13,146,-13ZM25,-325v35l88,18V649L34,668v33H231l1,-41c0,0,31,27,84,43c0,0,53,17,107,17c0,0,134,0,208,-94c0,0,73,-93,73,-267c0,0,0,-178,-80,-276c0,0,-80,-97,-232,-97c0,0,-84,0,-160,16c0,0,4,-53,4,-84V-272l123,-18v-35Z" 
id="f0_2c"
transform="scale(0.001,-0.001)" />

<path d="M431,0V33L535,52V499c0,0,0,62,-32,96c0,0,-32,33,-95,33c0,0,-66,0,-163,-22V52L350,33V0H32V33l89,19V649L32,668v33H237l6,-57c0,0,56,32,119,54c0,0,62,22,110,22c0,0,52,0,95,-20c0,0,44,-19,66,-62c0,0,57,32,134,57c0,0,77,25,128,25c0,0,179,0,179,-207V52l90,-19V0H846V33L950,52V499c0,0,0,129,-119,129c0,0,-19,0,-45,-3c0,0,-26,-3,-52,-7c0,0,-25,-4,-49,-8c0,0,-23,-5,-39,-8c0,0,13,-41,13,-89V52L764,33V0Z" 
id="f0_29"
transform="scale(0.001,-0.001)" />

<path d="M360,-14L72,649L0,668v33H327V668L216,648L420,164L615,649L504,668v33H764V668L697,652L416,-14Z" 
id="f0_2i"
transform="scale(0.001,-0.001)" />

<path d="M58,-234v58c0,0,131,42,131,125c0,0,0,15,-11,27c0,0,-11,12,-38,25C140,1,89,27,89,75c0,0,0,40,25,61c0,0,26,21,65,21c0,0,48,0,77,-34c0,0,30,-34,30,-86c0,0,0,-101,-60,-170c0,0,-59,-69,-168,-101Z" 
id="f0_g"
transform="scale(0.001,-0.001)" />

<path d="M13,0V34L95,46L325,350L122,649L40,668v33H357V668L264,648L399,446L554,649l-96,19v33H710V668L630,652L433,397L663,50L745,34V0H427V34l94,17L359,299L169,50L266,34V0Z" 
id="f0_2k"
transform="scale(0.001,-0.001)" />

<path d="M376,50c0,0,103,0,149,80c0,0,46,81,46,240c0,0,0,137,-47,204c0,0,-48,67,-148,67c0,0,-44,0,-87,-7c0,0,-44,-8,-63,-17V62c0,0,63,-12,150,-12Zm3,-64c0,0,-64,0,-141,14c0,0,-78,14,-136,37v971L0,1026v34H226V809c0,0,0,-40,-4,-148c0,0,74,59,188,59c0,0,143,0,219,-87c0,0,77,-87,77,-263c0,0,0,-189,-84,-287c0,0,-84,-97,-243,-97Z" 
id="f0_1y"
transform="scale(0.001,-0.001)" />

<path d="M191,-20c0,0,-39,0,-65,25c0,0,-25,27,-25,64c0,0,0,38,26,64c0,0,26,26,64,26c0,0,38,0,64,-26c0,0,26,-26,26,-64c0,0,0,-37,-25,-64c0,0,-26,-25,-65,-25Z" 
id="f0_i"
transform="scale(0.001,-0.001)" />

<path d="M235,0V40L394,60V936H356c0,0,-189,0,-258,-15L78,766H28v234H908V766H857L837,921c0,0,-22,5,-98,9c0,0,-75,4,-165,4H538V60L697,40V0Z" 
id="f0_1k"
transform="scale(0.001,-0.001)" />

<path d="M410,-14c0,0,-80,0,-162,14c0,0,-81,14,-144,38V270h48L178,134c0,0,28,-35,95,-62c0,0,68,-27,134,-27c0,0,104,0,163,53c0,0,58,54,58,148c0,0,0,54,-23,89c0,0,-22,35,-59,59c0,0,-37,24,-84,41c0,0,-47,17,-97,34c0,0,-49,17,-96,38c0,0,-47,21,-84,53c0,0,-37,32,-60,79c0,0,-23,48,-23,117c0,0,0,119,90,187c0,0,89,68,248,68c0,0,121,0,263,-32V771H654L628,893c0,0,-76,55,-188,55c0,0,-100,0,-156,-40c0,0,-56,-41,-56,-112c0,0,0,-49,22,-81c0,0,23,-32,60,-55c0,0,37,-22,84,-39c0,0,48,-16,97,-34c0,0,50,-17,97,-39c0,0,48,-22,85,-56c0,0,36,-34,59,-83c0,0,23,-49,23,-120c0,0,0,-145,-89,-224c0,0,-89,-79,-256,-79Z" 
id="f0_1j"
transform="scale(0.001,-0.001)" />

<path d="M73,0V70L634,936H448c0,0,-185,0,-254,-15L171,764H119v236H800V936L236,63H452c0,0,87,0,176,8c0,0,89,8,125,16l44,191h53L830,0Z" 
id="f0_1q"
transform="scale(0.001,-0.001)" />

<path d="M359,-270c0,0,124,0,192,46c0,0,67,47,67,129c0,0,0,43,-26,67c0,0,-26,24,-79,24H242c0,0,-32,-27,-51,-69c0,0,-20,-41,-20,-77c0,0,0,-64,46,-92c0,0,46,-28,142,-28Zm11,561c0,0,81,0,115,47c0,0,34,47,34,141c0,0,0,100,-35,142c0,0,-35,42,-113,42c0,0,-78,0,-114,-43c0,0,-37,-42,-37,-141c0,0,0,-98,36,-143c0,0,36,-45,114,-45ZM359,-329c0,0,-143,0,-218,44c0,0,-75,43,-75,125c0,0,0,39,27,78c0,0,26,38,98,89c0,0,-43,14,-72,48c0,0,-29,35,-29,74L208,262c0,0,-118,55,-118,217c0,0,0,115,73,178c0,0,73,63,211,63c0,0,28,0,71,-6c0,0,44,-6,67,-13l165,83l26,-32L599,644c0,0,50,-56,50,-165c0,0,0,-120,-72,-182c0,0,-73,-62,-208,-62c0,0,-62,0,-114,11L208,148c0,0,2,-13,29,-24c0,0,27,-12,67,-12H512c0,0,113,0,168,-49c0,0,55,-49,55,-134c0,0,0,-79,-44,-137c0,0,-43,-58,-128,-90c0,0,-84,-31,-204,-31Z" 
id="f0_23"
transform="scale(0.001,-0.001)" />

<path d="M536,63c0,0,127,0,191,54c0,0,63,54,63,168c0,0,0,105,-70,154c0,0,-70,49,-225,49H316V67c0,0,103,-4,220,-4ZM480,555c0,0,121,0,178,48c0,0,57,48,57,155c0,0,0,91,-58,133c0,0,-57,42,-186,42H316V555ZM554,-4L235,0H44V40L172,60V941L44,960v40H501c0,0,191,0,279,-56c0,0,88,-56,88,-179c0,0,0,-88,-55,-149c0,0,-54,-62,-151,-83c0,0,135,-14,209,-79c0,0,73,-65,73,-166c0,0,0,-144,-99,-219C845,69,745,-4,554,-4Z" 
id="f0_12"
transform="scale(0.001,-0.001)" />

<path d="M148,-329c0,0,-58,0,-114,13v151H69l24,-71c0,0,23,-17,64,-17c0,0,39,0,72,22c0,0,33,23,60,67c0,0,27,44,68,157L90,649L19,668v33H344V668L233,648L423,158L606,649L497,668v33H758V668L685,652L411,-43c0,0,-48,-124,-84,-177c0,0,-36,-54,-79,-82c0,0,-44,-27,-100,-27Z" 
id="f0_2l"
transform="scale(0.001,-0.001)" />

<path d="M64,0V34L168,59V639H47v36l121,29v49c0,0,0,155,61,239c0,0,62,84,173,84c0,0,58,0,107,-15V908H472l-33,92c0,0,-26,16,-62,16c0,0,-47,0,-66,-42c0,0,-19,-42,-19,-157V701H478V639H292V59L443,34V0Z" 
id="f0_22"
transform="scale(0.001,-0.001)" />

<path d="M64,-325c0,0,-46,0,-107,14v148H-8l19,-81c0,0,25,-21,62,-21c0,0,44,0,67,47c0,0,22,47,22,152V649L57,668v33H286V-28c0,0,0,-146,-57,-221c0,0,-56,-76,-165,-76ZM213,850c0,0,-34,0,-58,24c0,0,-24,24,-24,56c0,0,0,34,24,58c0,0,24,24,58,24c0,0,32,0,56,-24c0,0,24,-24,24,-58c0,0,0,-32,-24,-56c0,0,-24,-24,-56,-24Z" 
id="f0_26"
transform="scale(0.001,-0.001)" />

<path d="M394,460c0,0,126,0,186,57c0,0,60,57,60,187c0,0,0,123,-57,176c0,0,-58,53,-194,53H316V460ZM54,0V40L172,60V941L44,960v40H421c0,0,368,0,368,-295c0,0,0,-153,-93,-233c0,0,-93,-80,-267,-80H316V60L475,40V0Z" 
id="f0_1g"
transform="scale(0.001,-0.001)" />

<path d="M477,0V33l64,19L348,354L257,254V52L331,33V0H44V33l89,19v956L29,1026v34H257V338L544,647l-73,20v34H718V667L631,650L431,446L688,50L764,33V0Z" 
id="f0_27"
transform="scale(0.001,-0.001)" />

<path d="M346,-14c0,0,-139,0,-276,29L61,258h69L169,96c0,0,29,-16,71,-26c0,0,43,-10,77,-10c0,0,172,0,172,230c0,0,0,120,-44,174c0,0,-44,53,-139,53c0,0,-53,0,-97,-19L186,488H111v512H633V834H194V571c0,0,91,21,164,21c0,0,178,0,264,-74c0,0,86,-73,86,-220c0,0,0,-151,-94,-232c0,0,-93,-80,-268,-80Z" 
id="f1_p"
transform="scale(0.001,-0.001)" />

<path d="M460,-325c0,0,-148,79,-231,172c0,0,-84,93,-123,217c0,0,-39,126,-39,305c0,0,0,178,39,303c0,0,39,125,123,218c0,0,83,92,231,170V975c0,0,-68,-52,-109,-133c0,0,-41,-81,-61,-189c0,0,-19,-109,-19,-285c0,0,0,-177,19,-285c0,0,19,-107,60,-189c0,0,42,-82,110,-134v-85Z" 
id="f1_c"
transform="scale(0.001,-0.001)" />

<path d="M519,79c0,0,97,0,153,42c0,0,57,42,83,131c0,0,26,89,26,248c0,0,0,216,-79,317c0,0,-79,101,-257,101H389V85c0,0,72,-6,130,-6ZM533,-2L198,0H27V54L155,74V926L27,945v55H502c0,0,269,0,398,-122c0,0,129,-122,129,-372c0,0,0,-258,-123,-383C906,123,783,-2,533,-2Z" 
id="f1_14"
transform="scale(0.001,-0.001)" />

<path d="M49,-325v85c0,0,68,53,110,135c0,0,41,82,60,190c0,0,19,109,19,283c0,0,0,177,-19,285c0,0,-20,108,-61,189c0,0,-41,81,-109,133v85c0,0,149,-80,232,-172c0,0,83,-92,122,-217c0,0,39,-125,39,-302c0,0,0,-178,-39,-304c0,0,-39,-125,-122,-218c0,0,-83,-93,-232,-172Z" 
id="f1_d"
transform="scale(0.001,-0.001)" />

<path d="M850,0L476,482L389,407V74L533,54V0H26V54L154,74V926L26,945v55H518V945L389,926V519L845,926l-92,19v55h343V945L974,926L643,634L1083,74l93,-20V0Z" 
id="f1_1b"
transform="scale(0.001,-0.001)" />

<path d="M159,-329c0,0,-61,0,-123,14v180H81l32,-94c0,0,21,-17,55,-17c0,0,28,0,50,13c0,0,21,14,40,39c0,0,20,25,37,62c0,0,17,37,50,110L64,634L15,652v49H374V652L290,632L455,244L602,634l-82,18v49H749V652L698,637L421,-44c0,0,-47,-121,-83,-176c0,0,-36,-55,-80,-82c0,0,-43,-27,-99,-27Z" 
id="f1_2l"
transform="scale(0.001,-0.001)" />

<path d="M639,416L478,858L313,416ZM647,0V54L762,74L667,333H283L191,74L319,54V0H15V54L90,74l355,935H662L1016,74l76,-20V0Z" 
id="f1_11"
transform="scale(0.001,-0.001)" />

<path d="M43,0V49l67,18V992l-72,18v50H325V336L599,635l-75,17v49H791V652L711,636L544,460L785,67L847,50V0H510V50l41,17L411,313L325,253V67L395,49V0Z" 
id="f1_27"
transform="scale(0.001,-0.001)" />

<path d="M34,0V49l76,18V634L38,652v49H325V67L402,49V0ZM217,831c0,0,-48,0,-81,33c0,0,-34,33,-34,82c0,0,0,48,34,81c0,0,34,33,81,33c0,0,48,0,81,-33c0,0,33,-33,33,-81c0,0,0,-47,-33,-81c0,0,-32,-34,-81,-34Z" 
id="f1_25"
transform="scale(0.001,-0.001)" />

<path d="M345,75c0,0,50,0,110,26V351l-63,-2c0,0,-72,-3,-100,-38c0,0,-28,-35,-28,-113c0,0,0,-63,22,-93c0,0,23,-30,59,-30ZM266,-14c0,0,-217,0,-217,208c0,0,0,79,32,126c0,0,32,48,93,71c0,0,60,22,190,25l91,2V521c0,0,0,126,-104,126c0,0,-62,0,-140,-39L183,521H134V691c0,0,112,17,165,21c0,0,53,5,108,5c0,0,264,0,264,-194V67L741,49V0H483L466,54C466,54,408,14,361,0c0,0,-47,-14,-95,-14Z" 
id="f1_1x"
transform="scale(0.001,-0.001)" />

<path d="M327,-14c0,0,-101,0,-156,45c0,0,-55,45,-55,131V624H25v48l108,29l87,159H332V701H480V624H332V176c0,0,0,-49,20,-73c0,0,20,-25,53,-25c0,0,40,0,97,12V26c0,0,-22,-15,-76,-27c0,0,-55,-13,-99,-13Z" 
id="f1_2g"
transform="scale(0.001,-0.001)" />

<path d="M379,60c0,0,59,0,84,64c0,0,24,65,24,231c0,0,0,164,-24,227c0,0,-24,63,-84,63c0,0,-57,0,-80,-60c0,0,-22,-61,-22,-230c0,0,0,-173,23,-234c0,0,22,-61,79,-61Zm-2,-74c0,0,-161,0,-240,91c0,0,-79,91,-79,277c0,0,0,186,80,276c0,0,81,90,245,90c0,0,167,0,245,-93c0,0,78,-93,78,-273c0,0,0,-188,-81,-278c0,0,-81,-90,-248,-90Z" 
id="f1_2b"
transform="scale(0.001,-0.001)" />

<path d="M30,0V49l76,18V992l-72,18v50H322V67L398,49V0Z" 
id="f1_28"
transform="scale(0.001,-0.001)" />

<path d="M424,64c0,0,74,0,109,71c0,0,36,72,36,236c0,0,0,137,-34,201c0,0,-34,65,-111,65c0,0,-29,0,-62,-7c0,0,-34,-6,-55,-19V76c0,0,47,-12,117,-12Zm21,-78c0,0,-121,0,-354,50V994l-72,18v48H307V802c0,0,0,-69,-8,-141c0,0,30,25,86,42c0,0,57,17,110,17c0,0,153,0,223,-84c0,0,70,-83,70,-266c0,0,0,-180,-90,-283C698,87,608,-14,445,-14Z" 
id="f1_1y"
transform="scale(0.001,-0.001)" />

<path d="M305,-14L57,634L4,652v49H351V652L268,632L419,232L581,631h71L814,232L950,634l-82,18v49h227V652l-54,-15L806,-14H715L555,378L395,-14Z" 
id="f1_2j"
transform="scale(0.001,-0.001)" />

<path d="M41,0V49l69,18V992l-72,18v50H325V756c0,0,0,-49,-4,-116l51,26c0,0,106,54,190,54c0,0,194,0,194,-207V67L827,49V0H478V49l63,18V484c0,0,0,63,-27,98c0,0,-26,35,-75,35c0,0,-57,0,-114,-25V67L389,49V0Z" 
id="f1_24"
transform="scale(0.001,-0.001)" />

<path d="M425,-14c0,0,-187,0,-280,90c0,0,-93,90,-93,276c0,0,0,115,42,198c0,0,43,82,121,126c0,0,78,44,182,44c0,0,104,0,227,-26V486H571L539,609c0,0,-25,19,-50,26c0,0,-24,7,-65,7c0,0,-44,0,-79,-35c0,0,-36,-35,-56,-98c0,0,-20,-64,-20,-153c0,0,0,-150,47,-214c0,0,47,-64,148,-64c0,0,103,0,176,21V42C640,42,606,15,547,0c0,0,-59,-14,-122,-14Z" 
id="f1_1z"
transform="scale(0.001,-0.001)" />

<path d="M438,65c0,0,131,0,131,293c0,0,0,279,-130,279c0,0,-69,0,-127,-29V80c0,0,60,-15,126,-15ZM20,-325v50l76,18V634L19,652v49H304l1,-36c0,0,80,55,194,55c0,0,146,0,218,-86c0,0,71,-86,71,-271c0,0,0,-183,-83,-280c0,0,-83,-97,-238,-97c0,0,-79,0,-160,19c0,0,5,-48,5,-109V-257l103,-18v-50Z" 
id="f1_2c"
transform="scale(0.001,-0.001)" />

<path d="M41,0V49l69,18V634L41,652v49H313l11,-61l50,26c0,0,105,54,188,54c0,0,194,0,194,-207V67L827,49V0H478V49l63,18V484c0,0,0,63,-27,98c0,0,-26,35,-75,35c0,0,-57,0,-114,-25V67L389,49V0Z" 
id="f1_2a"
transform="scale(0.001,-0.001)" />

<path d="M360,-256c0,0,108,0,167,35c0,0,59,35,59,98c0,0,0,70,-95,70H254c0,0,-65,-47,-65,-108c0,0,0,-47,46,-71c0,0,45,-24,125,-24Zm9,561c0,0,55,0,79,43c0,0,25,43,25,129c0,0,0,87,-24,127c0,0,-25,41,-80,41c0,0,-52,0,-75,-41c0,0,-24,-40,-24,-127c0,0,0,-86,23,-129c0,0,23,-43,76,-43Zm-9,-641c0,0,-153,0,-236,43c0,0,-84,44,-84,120c0,0,0,33,28,65c0,0,27,31,105,76c0,0,-44,17,-75,59c0,0,-31,43,-31,90L192,258c0,0,-133,56,-133,219c0,0,0,116,81,180c0,0,82,63,233,63c0,0,32,0,82,-6c0,0,51,-6,74,-13l168,83l26,-32L638,631c0,0,46,-57,46,-154c0,0,0,-119,-80,-182c0,0,-80,-64,-234,-64c0,0,-59,0,-114,9L238,183c0,0,1,-22,28,-41c0,0,26,-19,64,-19H493c0,0,256,0,256,-196c0,0,0,-81,-44,-139c0,0,-45,-59,-131,-92c0,0,-86,-32,-214,-32Z" 
id="f1_23"
transform="scale(0.001,-0.001)" />

<path d="M41,0V49l91,18V634L41,652v49H336l8,-145c0,0,80,89,144,128c0,0,64,40,117,40h40V468H604l-45,94c0,0,-47,0,-106,-21c0,0,-60,-20,-105,-48V67L460,49V0Z" 
id="f1_2e"
transform="scale(0.001,-0.001)" />

<path d="M41,0V49l76,18V624H11v51l106,29v75c0,0,0,144,73,220c0,0,73,77,210,77c0,0,74,0,124,-15V894H476l-22,81c0,0,-18,17,-47,17c0,0,-74,0,-74,-189V701H475V624H333V67L447,49V0Z" 
id="f1_22"
transform="scale(0.001,-0.001)" />

<path d="M416,68c0,0,60,0,124,32V628c0,0,-58,15,-118,15c0,0,-67,0,-104,-73c0,0,-38,-73,-38,-216c0,0,0,-139,36,-212c0,0,35,-74,100,-74ZM369,-14c0,0,-155,0,-231,88c0,0,-76,90,-76,274c0,0,0,182,82,277c0,0,81,95,236,95c0,0,82,0,165,-20c0,0,-5,24,-5,115V992l-72,18v50H756V67L833,49V0H562L547,40C547,40,505,13,483,4c0,0,-23,-7,-51,-12c0,0,-28,-6,-63,-6Z" 
id="f1_20"
transform="scale(0.001,-0.001)" />

<path d="M57,302V417H454V302Z" 
id="f0_h"
transform="scale(0.001,-0.001)" />

<path d="M423,92c0,0,97,0,159,62c0,0,62,62,62,157c0,0,0,97,-64,160c0,0,-64,64,-161,64c0,0,-96,0,-158,-63c0,0,-62,-62,-62,-156c0,0,0,-58,27,-111c0,0,27,-54,81,-84c0,0,54,-29,116,-29Zm0,552c0,0,78,0,127,49c0,0,49,49,49,120c0,0,0,74,-50,124c0,0,-51,51,-128,51c0,0,-77,0,-127,-50c0,0,-51,-49,-51,-118c0,0,0,-77,50,-126c0,0,50,-50,130,-50ZM422,-18c0,0,-162,0,-261,95c0,0,-99,96,-99,239c0,0,0,107,54,179c0,0,54,72,154,98c0,0,-84,31,-124,87c0,0,-40,57,-40,136c0,0,0,119,85,201c0,0,86,81,229,81c0,0,143,0,230,-83c0,0,87,-83,87,-203c0,0,0,-76,-40,-132c0,0,-39,-56,-121,-87c0,0,101,-33,154,-106c0,0,52,-73,52,-174c0,0,0,-141,-99,-236c0,0,-99,-95,-261,-95Z" 
id="f2_s"
transform="scale(0.001,-0.001)" />


</defs>
</svg>