<?xml version="1.0" encoding="UTF-8" standalone="no"?>
<!DOCTYPE svg PUBLIC "-//W3C//DTD SVG 1.1//EN"
"http://www.w3.org/Graphics/SVG/1.1/DTD/svg11.dtd">
<svg viewBox="0 0 909 1286" version="1.1" xmlns="http://www.w3.org/2000/svg" xmlns:xlink="http://www.w3.org/1999/xlink">
<defs>
<clipPath id="c0_146"><path d="M0,1286.3V0H909.3V1286.3Z" /></clipPath>
</defs>
<g clip-path="url(#c0_146)">
<g fill="#000000" >
<use xlink:href="#f0_16" transform="matrix(12,0,0,12,284.6,495.9)" />
<use xlink:href="#f0_21" transform="matrix(12,0,0,12,295.6,495.9)" />
<use xlink:href="#f0_29" transform="matrix(12,0,0,12,303.7,495.9)" />
<use xlink:href="#f0_1x" transform="matrix(12,0,0,12,318.7,495.9)" />
<use xlink:href="#f0_28" transform="matrix(12,0,0,12,327.9,495.9)" />
<use xlink:href="#f0_21" transform="matrix(12,0,0,12,332.7,495.9)" />
<use xlink:href="#f0_1i" transform="matrix(12,0,0,12,345.5,495.9)" />
<use xlink:href="#f0_21" transform="matrix(12,0,0,12,358.7,495.9)" />
<use xlink:href="#f0_2c" transform="matrix(12,0,0,12,366.8,495.9)" />
<use xlink:href="#f0_2e" transform="matrix(12,0,0,12,377.4,495.9)" />
<use xlink:href="#f0_2b" transform="matrix(12,0,0,12,385.1,495.9)" />
<use xlink:href="#f0_20" transform="matrix(12,0,0,12,394.2,495.9)" />
<use xlink:href="#f0_2h" transform="matrix(12,0,0,12,404.5,495.9)" />
<use xlink:href="#f0_1z" transform="matrix(12,0,0,12,414.7,495.9)" />
<use xlink:href="#f0_2g" transform="matrix(12,0,0,12,422.8,495.9)" />
<use xlink:href="#f0_25" transform="matrix(12,0,0,12,429,495.9)" />
<use xlink:href="#f0_2i" transform="matrix(12,0,0,12,434.1,495.9)" />
<use xlink:href="#f0_21" transform="matrix(12,0,0,12,443.3,495.9)" />
<use xlink:href="#f0_1j" transform="matrix(12,0,0,12,456.1,495.9)" />
<use xlink:href="#f0_2l" transform="matrix(12,0,0,12,466.4,495.9)" />
<use xlink:href="#f0_2f" transform="matrix(12,0,0,12,475.5,495.9)" />
<use xlink:href="#f0_2g" transform="matrix(12,0,0,12,482.5,495.9)" />
<use xlink:href="#f0_21" transform="matrix(12,0,0,12,488.7,495.9)" />
<use xlink:href="#f0_29" transform="matrix(12,0,0,12,496.8,495.9)" />
<use xlink:href="#f0_2b" transform="matrix(12,0,0,12,516.6,495.9)" />
<use xlink:href="#f0_22" transform="matrix(12,0,0,12,525.7,495.9)" />
<use xlink:href="#f0_22" transform="matrix(12,0,0,12,536.7,495.9)" />
<use xlink:href="#f0_2e" transform="matrix(12,0,0,12,542.9,495.9)" />
<use xlink:href="#f0_2b" transform="matrix(12,0,0,12,550.6,495.9)" />
<use xlink:href="#f0_23" transform="matrix(12,0,0,12,559.8,495.9)" />
<use xlink:href="#f1_3d" transform="matrix(12,0,0,12,82.5,560.8)" />
<use xlink:href="#f2_16" transform="matrix(12,0,0,12,110,560.8)" />
<use xlink:href="#f2_2e" transform="matrix(12,0,0,12,119.9,560.8)" />
<use xlink:href="#f2_2b" transform="matrix(12,0,0,12,126.2,560.8)" />
<use xlink:href="#f2_23" transform="matrix(12,0,0,12,135.7,560.8)" />
<use xlink:href="#f2_2f" transform="matrix(12,0,0,12,144.8,560.8)" />
<use xlink:href="#f2_1x" transform="matrix(12,0,0,12,156.5,560.8)" />
<use xlink:href="#f2_2e" transform="matrix(12,0,0,12,164.6,560.8)" />
<use xlink:href="#f2_21" transform="matrix(12,0,0,12,170.8,560.8)" />
<use xlink:href="#f2_1y" transform="matrix(12,0,0,12,183.6,560.8)" />
<use xlink:href="#f2_21" transform="matrix(12,0,0,12,192.4,560.8)" />
<use xlink:href="#f2_2a" transform="matrix(12,0,0,12,200.5,560.8)" />
<use xlink:href="#f2_21" transform="matrix(12,0,0,12,209.3,560.8)" />
<use xlink:href="#f2_22" transform="matrix(12,0,0,12,217.7,560.8)" />
<use xlink:href="#f2_25" transform="matrix(12,0,0,12,223.9,560.8)" />
<use xlink:href="#f2_1z" transform="matrix(12,0,0,12,228.7,560.8)" />
<use xlink:href="#f2_25" transform="matrix(12,0,0,12,237.1,560.8)" />
<use xlink:href="#f2_1x" transform="matrix(12,0,0,12,241.9,560.8)" />
<use xlink:href="#f2_28" transform="matrix(12,0,0,12,250.3,560.8)" />
<use xlink:href="#f2_22" transform="matrix(12,0,0,12,259.8,560.8)" />
<use xlink:href="#f2_2b" transform="matrix(12,0,0,12,265.3,560.8)" />
<use xlink:href="#f2_2e" transform="matrix(12,0,0,12,274.8,560.8)" />
<use xlink:href="#f2_29" transform="matrix(12,0,0,12,286.2,560.8)" />
<use xlink:href="#f2_1x" transform="matrix(12,0,0,12,299.7,560.8)" />
<use xlink:href="#f2_2a" transform="matrix(12,0,0,12,308.1,560.8)" />
<use xlink:href="#f2_27" transform="matrix(12,0,0,12,316.9,560.8)" />
<use xlink:href="#f2_25" transform="matrix(12,0,0,12,326.5,560.8)" />
<use xlink:href="#f2_2a" transform="matrix(12,0,0,12,331.2,560.8)" />
<use xlink:href="#f2_20" transform="matrix(12,0,0,12,340.4,560.8)" />
<use xlink:href="#f2_1y" transform="matrix(12,0,0,12,354.7,560.8)" />
<use xlink:href="#f2_21" transform="matrix(12,0,0,12,363.5,560.8)" />
<use xlink:href="#f2_1z" transform="matrix(12,0,0,12,371.5,560.8)" />
<use xlink:href="#f2_1x" transform="matrix(12,0,0,12,379.6,560.8)" />
<use xlink:href="#f2_2h" transform="matrix(12,0,0,12,387.7,560.8)" />
<use xlink:href="#f2_2f" transform="matrix(12,0,0,12,397.2,560.8)" />
<use xlink:href="#f2_21" transform="matrix(12,0,0,12,404.2,560.8)" />
<use xlink:href="#f2_2g" transform="matrix(12,0,0,12,417,560.8)" />
<use xlink:href="#f2_24" transform="matrix(12,0,0,12,422.5,560.8)" />
<use xlink:href="#f2_21" transform="matrix(12,0,0,12,431.3,560.8)" />
<use xlink:href="#f2_2l" transform="matrix(12,0,0,12,439.7,560.8)" />
<use xlink:href="#f2_21" transform="matrix(12,0,0,12,452.9,560.8)" />
<use xlink:href="#f2_1x" transform="matrix(12,0,0,12,460.9,560.8)" />
<use xlink:href="#f2_2g" transform="matrix(12,0,0,12,469,560.8)" />
<use xlink:href="#f2_25" transform="matrix(12,0,0,12,479.6,560.8)" />
<use xlink:href="#f2_2a" transform="matrix(12,0,0,12,484.3,560.8)" />
<use xlink:href="#f2_2f" transform="matrix(12,0,0,12,493.1,560.8)" />
<use xlink:href="#f2_21" transform="matrix(12,0,0,12,500.5,560.8)" />
<use xlink:href="#f2_1z" transform="matrix(12,0,0,12,508.5,560.8)" />
<use xlink:href="#f2_2g" transform="matrix(12,0,0,12,516.6,560.8)" />
<use xlink:href="#f2_2f" transform="matrix(12,0,0,12,522.1,560.8)" />
<use xlink:href="#f2_1x" transform="matrix(12,0,0,12,533.8,560.8)" />
<use xlink:href="#f2_2a" transform="matrix(12,0,0,12,541.9,560.8)" />
<use xlink:href="#f2_20" transform="matrix(12,0,0,12,550.7,560.8)" />
<use xlink:href="#f2_2c" transform="matrix(12,0,0,12,564.6,560.8)" />
<use xlink:href="#f2_2e" transform="matrix(12,0,0,12,573.7,560.8)" />
<use xlink:href="#f2_2b" transform="matrix(12,0,0,12,580,560.8)" />
<use xlink:href="#f2_2g" transform="matrix(12,0,0,12,589.1,560.8)" />
<use xlink:href="#f2_21" transform="matrix(12,0,0,12,594.6,560.8)" />
<use xlink:href="#f2_1z" transform="matrix(12,0,0,12,602.7,560.8)" />
<use xlink:href="#f2_2g" transform="matrix(12,0,0,12,610.4,560.8)" />
<use xlink:href="#f2_2g" transform="matrix(12,0,0,12,620.3,560.8)" />
<use xlink:href="#f2_24" transform="matrix(12,0,0,12,625.7,560.8)" />
<use xlink:href="#f2_21" transform="matrix(12,0,0,12,634.5,560.8)" />
<use xlink:href="#f2_1z" transform="matrix(12,0,0,12,647.4,560.8)" />
<use xlink:href="#f2_2e" transform="matrix(12,0,0,12,655.4,560.8)" />
<use xlink:href="#f2_2b" transform="matrix(12,0,0,12,661.3,560.8)" />
<use xlink:href="#f2_2c" transform="matrix(12,0,0,12,670.8,560.8)" />
<use xlink:href="#f2_i" transform="matrix(12,0,0,12,680,560.8)" />
<use xlink:href="#f1_3d" transform="matrix(12,0,0,12,82.5,583.2)" />
<use xlink:href="#f2_16" transform="matrix(12,0,0,12,110,583.2)" />
<use xlink:href="#f2_2e" transform="matrix(12,0,0,12,119.9,583.2)" />
<use xlink:href="#f2_2b" transform="matrix(12,0,0,12,126.2,583.2)" />
<use xlink:href="#f2_23" transform="matrix(12,0,0,12,135.7,583.2)" />
<use xlink:href="#f2_2f" transform="matrix(12,0,0,12,144.8,583.2)" />
<use xlink:href="#f2_29" transform="matrix(12,0,0,12,155.8,583.2)" />
<use xlink:href="#f2_1x" transform="matrix(12,0,0,12,169.4,583.2)" />
<use xlink:href="#f2_25" transform="matrix(12,0,0,12,177.8,583.2)" />
<use xlink:href="#f2_2a" transform="matrix(12,0,0,12,182.6,583.2)" />
<use xlink:href="#f2_2g" transform="matrix(12,0,0,12,191.4,583.2)" />
<use xlink:href="#f2_1x" transform="matrix(12,0,0,12,196.9,583.2)" />
<use xlink:href="#f2_25" transform="matrix(12,0,0,12,205.3,583.2)" />
<use xlink:href="#f2_2a" transform="matrix(12,0,0,12,210,583.2)" />
<use xlink:href="#f2_21" transform="matrix(12,0,0,12,223.4,583.2)" />
<use xlink:href="#f2_1z" transform="matrix(12,0,0,12,231.4,583.2)" />
<use xlink:href="#f2_2b" transform="matrix(12,0,0,12,239.5,583.2)" />
<use xlink:href="#f2_28" transform="matrix(12,0,0,12,249.4,583.2)" />
<use xlink:href="#f2_2b" transform="matrix(12,0,0,12,253.8,583.2)" />
<use xlink:href="#f2_23" transform="matrix(12,0,0,12,263.3,583.2)" />
<use xlink:href="#f2_25" transform="matrix(12,0,0,12,272.8,583.2)" />
<use xlink:href="#f2_1z" transform="matrix(12,0,0,12,277.2,583.2)" />
<use xlink:href="#f2_1x" transform="matrix(12,0,0,12,285.3,583.2)" />
<use xlink:href="#f2_28" transform="matrix(12,0,0,12,293.7,583.2)" />
<use xlink:href="#f2_1y" transform="matrix(12,0,0,12,302.9,583.2)" />
<use xlink:href="#f2_1x" transform="matrix(12,0,0,12,311.7,583.2)" />
<use xlink:href="#f2_28" transform="matrix(12,0,0,12,320.1,583.2)" />
<use xlink:href="#f2_1x" transform="matrix(12,0,0,12,324.9,583.2)" />
<use xlink:href="#f2_2a" transform="matrix(12,0,0,12,333.3,583.2)" />
<use xlink:href="#f2_1z" transform="matrix(12,0,0,12,342.1,583.2)" />
<use xlink:href="#f2_21" transform="matrix(12,0,0,12,350.1,583.2)" />
<use xlink:href="#f2_1y" transform="matrix(12,0,0,12,362.6,583.2)" />
<use xlink:href="#f2_21" transform="matrix(12,0,0,12,371.4,583.2)" />
<use xlink:href="#f2_1z" transform="matrix(12,0,0,12,379.5,583.2)" />
<use xlink:href="#f2_1x" transform="matrix(12,0,0,12,387.5,583.2)" />
<use xlink:href="#f2_2h" transform="matrix(12,0,0,12,395.6,583.2)" />
<use xlink:href="#f2_2f" transform="matrix(12,0,0,12,405.1,583.2)" />
<use xlink:href="#f2_21" transform="matrix(12,0,0,12,412.1,583.2)" />
<use xlink:href="#f2_2g" transform="matrix(12,0,0,12,424.2,583.2)" />
<use xlink:href="#f2_24" transform="matrix(12,0,0,12,429.7,583.2)" />
<use xlink:href="#f2_21" transform="matrix(12,0,0,12,438.5,583.2)" />
<use xlink:href="#f2_2f" transform="matrix(12,0,0,12,446.5,583.2)" />
<use xlink:href="#f2_21" transform="matrix(12,0,0,12,453.5,583.2)" />
<use xlink:href="#f2_2f" transform="matrix(12,0,0,12,465.6,583.2)" />
<use xlink:href="#f2_21" transform="matrix(12,0,0,12,472.6,583.2)" />
<use xlink:href="#f2_2e" transform="matrix(12,0,0,12,481,583.2)" />
<use xlink:href="#f2_2i" transform="matrix(12,0,0,12,487.2,583.2)" />
<use xlink:href="#f2_21" transform="matrix(12,0,0,12,496,583.2)" />
<use xlink:href="#f2_1x" transform="matrix(12,0,0,12,508.1,583.2)" />
<use xlink:href="#f2_2f" transform="matrix(12,0,0,12,516.2,583.2)" />
<use xlink:href="#f2_1x" transform="matrix(12,0,0,12,527.2,583.2)" />
<use xlink:href="#f2_2a" transform="matrix(12,0,0,12,535.6,583.2)" />
<use xlink:href="#f2_25" transform="matrix(12,0,0,12,548.8,583.2)" />
<use xlink:href="#f2_29" transform="matrix(12,0,0,12,553.5,583.2)" />
<use xlink:href="#f2_2c" transform="matrix(12,0,0,12,567.5,583.2)" />
<use xlink:href="#f2_2b" transform="matrix(12,0,0,12,576.6,583.2)" />
<use xlink:href="#f2_2e" transform="matrix(12,0,0,12,586.2,583.2)" />
<use xlink:href="#f2_2g" transform="matrix(12,0,0,12,592,583.2)" />
<use xlink:href="#f2_1x" transform="matrix(12,0,0,12,597.5,583.2)" />
<use xlink:href="#f2_2a" transform="matrix(12,0,0,12,605.6,583.2)" />
<use xlink:href="#f2_2g" transform="matrix(12,0,0,12,614.4,583.2)" />
<use xlink:href="#f2_28" transform="matrix(12,0,0,12,623.9,583.2)" />
<use xlink:href="#f2_25" transform="matrix(12,0,0,12,628.7,583.2)" />
<use xlink:href="#f2_2a" transform="matrix(12,0,0,12,633.4,583.2)" />
<use xlink:href="#f2_27" transform="matrix(12,0,0,12,642.6,583.2)" />
<use xlink:href="#f2_2b" transform="matrix(12,0,0,12,655.8,583.2)" />
<use xlink:href="#f2_22" transform="matrix(12,0,0,12,665.3,583.2)" />
<use xlink:href="#f2_22" transform="matrix(12,0,0,12,675.2,583.2)" />
<use xlink:href="#f2_2b" transform="matrix(12,0,0,12,680.7,583.2)" />
<use xlink:href="#f2_2b" transform="matrix(12,0,0,12,690.2,583.2)" />
<use xlink:href="#f2_20" transform="matrix(12,0,0,12,699.7,583.2)" />
<use xlink:href="#f2_1z" transform="matrix(12,0,0,12,712.6,583.2)" />
<use xlink:href="#f2_24" transform="matrix(12,0,0,12,720.6,583.2)" />
<use xlink:href="#f2_1x" transform="matrix(12,0,0,12,729.4,583.2)" />
<use xlink:href="#f2_25" transform="matrix(12,0,0,12,737.8,583.2)" />
<use xlink:href="#f2_2a" transform="matrix(12,0,0,12,742.6,583.2)" />
<use xlink:href="#f2_1x" transform="matrix(12,0,0,12,755.4,583.2)" />
<use xlink:href="#f2_2a" transform="matrix(12,0,0,12,763.9,583.2)" />
<use xlink:href="#f2_20" transform="matrix(12,0,0,12,772.7,583.2)" />
<use xlink:href="#f2_22" transform="matrix(12,0,0,12,786.2,583.2)" />
<use xlink:href="#f2_2b" transform="matrix(12,0,0,12,791.7,583.2)" />
<use xlink:href="#f2_2b" transform="matrix(12,0,0,12,801.2,583.2)" />
<use xlink:href="#f2_20" transform="matrix(12,0,0,12,810.8,583.2)" />
<use xlink:href="#f2_2j" transform="matrix(12,0,0,12,824,583.2)" />
<use xlink:href="#f2_21" transform="matrix(12,0,0,12,837.2,583.2)" />
<use xlink:href="#f2_1y" transform="matrix(12,0,0,12,845.2,583.2)" />
<use xlink:href="#f2_25" transform="matrix(12,0,0,12,110,604.1)" />
<use xlink:href="#f2_2a" transform="matrix(12,0,0,12,114.8,604.1)" />
<use xlink:href="#f2_2g" transform="matrix(12,0,0,12,128.4,604.1)" />
<use xlink:href="#f2_24" transform="matrix(12,0,0,12,133.8,604.1)" />
<use xlink:href="#f2_21" transform="matrix(12,0,0,12,142.6,604.1)" />
<use xlink:href="#f2_21" transform="matrix(12,0,0,12,155.4,604.1)" />
<use xlink:href="#f2_1z" transform="matrix(12,0,0,12,163.5,604.1)" />
<use xlink:href="#f2_2b" transform="matrix(12,0,0,12,171.6,604.1)" />
<use xlink:href="#f2_2f" transform="matrix(12,0,0,12,181.1,604.1)" />
<use xlink:href="#f2_2l" transform="matrix(12,0,0,12,188.4,604.1)" />
<use xlink:href="#f2_2f" transform="matrix(12,0,0,12,197.2,604.1)" />
<use xlink:href="#f2_2g" transform="matrix(12,0,0,12,204.2,604.1)" />
<use xlink:href="#f2_21" transform="matrix(12,0,0,12,209.7,604.1)" />
<use xlink:href="#f2_29" transform="matrix(12,0,0,12,218.1,604.1)" />
<use xlink:href="#f2_i" transform="matrix(12,0,0,12,231.6,604.1)" />
<use xlink:href="#f1_3d" transform="matrix(12,0,0,12,82.5,626.4)" />
<use xlink:href="#f2_19" transform="matrix(12,0,0,12,114.8,626.4)" />
<use xlink:href="#f2_2a" transform="matrix(12,0,0,12,121,626.4)" />
<use xlink:href="#f2_2f" transform="matrix(12,0,0,12,134.6,626.4)" />
<use xlink:href="#f2_2b" transform="matrix(12,0,0,12,141.5,626.4)" />
<use xlink:href="#f2_29" transform="matrix(12,0,0,12,151,626.4)" />
<use xlink:href="#f2_21" transform="matrix(12,0,0,12,164.6,626.4)" />
<use xlink:href="#f2_1z" transform="matrix(12,0,0,12,177.4,626.4)" />
<use xlink:href="#f2_2b" transform="matrix(12,0,0,12,185.5,626.4)" />
<use xlink:href="#f2_2h" transform="matrix(12,0,0,12,195,626.4)" />
<use xlink:href="#f2_2a" transform="matrix(12,0,0,12,204.2,626.4)" />
<use xlink:href="#f2_2g" transform="matrix(12,0,0,12,213,626.4)" />
<use xlink:href="#f2_2e" transform="matrix(12,0,0,12,218.5,626.4)" />
<use xlink:href="#f2_25" transform="matrix(12,0,0,12,224.7,626.4)" />
<use xlink:href="#f2_21" transform="matrix(12,0,0,12,229.1,626.4)" />
<use xlink:href="#f2_2f" transform="matrix(12,0,0,12,237.5,626.4)" />
<use xlink:href="#f2_2g" transform="matrix(12,0,0,12,249.2,626.4)" />
<use xlink:href="#f2_24" transform="matrix(12,0,0,12,254.7,626.4)" />
<use xlink:href="#f2_21" transform="matrix(12,0,0,12,263.5,626.4)" />
<use xlink:href="#f2_29" transform="matrix(12,0,0,12,276.7,626.4)" />
<use xlink:href="#f2_2h" transform="matrix(12,0,0,12,290.2,626.4)" />
<use xlink:href="#f2_2f" transform="matrix(12,0,0,12,299.4,626.4)" />
<use xlink:href="#f2_1z" transform="matrix(12,0,0,12,306.7,626.4)" />
<use xlink:href="#f2_2h" transform="matrix(12,0,0,12,314.8,626.4)" />
<use xlink:href="#f2_28" transform="matrix(12,0,0,12,324.3,626.4)" />
<use xlink:href="#f2_1x" transform="matrix(12,0,0,12,329.1,626.4)" />
<use xlink:href="#f2_2e" transform="matrix(12,0,0,12,337.1,626.4)" />
<use xlink:href="#f2_28" transform="matrix(12,0,0,12,348.5,626.4)" />
<use xlink:href="#f2_21" transform="matrix(12,0,0,12,352.9,626.4)" />
<use xlink:href="#f2_23" transform="matrix(12,0,0,12,360.9,626.4)" />
<use xlink:href="#f2_2f" transform="matrix(12,0,0,12,370.1,626.4)" />
<use xlink:href="#f2_2b" transform="matrix(12,0,0,12,381.8,626.4)" />
<use xlink:href="#f2_22" transform="matrix(12,0,0,12,391.3,626.4)" />
<use xlink:href="#f2_22" transform="matrix(12,0,0,12,401.9,626.4)" />
<use xlink:href="#f2_2e" transform="matrix(12,0,0,12,407.4,626.4)" />
<use xlink:href="#f2_2b" transform="matrix(12,0,0,12,413.7,626.4)" />
<use xlink:href="#f2_23" transform="matrix(12,0,0,12,423.2,626.4)" />
<use xlink:href="#f2_1x" transform="matrix(12,0,0,12,437.1,626.4)" />
<use xlink:href="#f2_2e" transform="matrix(12,0,0,12,445.2,626.4)" />
<use xlink:href="#f2_21" transform="matrix(12,0,0,12,451.4,626.4)" />
<use xlink:href="#f2_2h" transform="matrix(12,0,0,12,464.2,626.4)" />
<use xlink:href="#f2_2f" transform="matrix(12,0,0,12,473.3,626.4)" />
<use xlink:href="#f2_21" transform="matrix(12,0,0,12,480.3,626.4)" />
<use xlink:href="#f2_20" transform="matrix(12,0,0,12,488.4,626.4)" />
<use xlink:href="#f2_1x" transform="matrix(12,0,0,12,502.3,626.4)" />
<use xlink:href="#f2_2f" transform="matrix(12,0,0,12,510.4,626.4)" />
<use xlink:href="#f2_22" transform="matrix(12,0,0,12,522.1,626.4)" />
<use xlink:href="#f2_2b" transform="matrix(12,0,0,12,527.6,626.4)" />
<use xlink:href="#f2_2b" transform="matrix(12,0,0,12,537.1,626.4)" />
<use xlink:href="#f2_20" transform="matrix(12,0,0,12,546.6,626.4)" />
<use xlink:href="#f2_1y" transform="matrix(12,0,0,12,560.5,626.4)" />
<use xlink:href="#f2_2l" transform="matrix(12,0,0,12,569.7,626.4)" />
<use xlink:href="#f2_29" transform="matrix(12,0,0,12,583.2,626.4)" />
<use xlink:href="#f2_1x" transform="matrix(12,0,0,12,597.2,626.4)" />
<use xlink:href="#f2_2a" transform="matrix(12,0,0,12,605.6,626.4)" />
</g>
</g>
<image preserveAspectRatio="none" x="165" y="55" width="382" height="423" xlink:href="img/1.png" />
<g fill="#000000" >
<use xlink:href="#f3_m" transform="matrix(8,0,0,8,785.7,1264.1)" />
<use xlink:href="#f3_o" transform="matrix(8,0,0,8,792.5,1264.1)" />
</g>
<defs>
<path d="M36,0V54L154,74V926L26,945v55H860V731H790L766,908c0,0,-36,5,-121,8c0,0,-84,2,-133,2H389V508H633l23,127h67V298H656L633,426H389V74L556,54V0Z" 
id="f0_16"
transform="scale(0.001,-0.001)" />

<path d="M434,423c0,0,0,101,-7,142c0,0,-6,40,-22,60c0,0,-16,19,-45,19c0,0,-44,0,-66,-48c0,0,-22,-49,-22,-173ZM389,-14c0,0,-172,0,-254,89c0,0,-83,90,-83,279c0,0,0,184,79,274c0,0,79,91,238,91c0,0,142,0,206,-76c0,0,64,-76,64,-237V345H271V333c0,0,0,-111,18,-158c0,0,18,-47,58,-72c0,0,40,-25,110,-25c0,0,66,0,166,22V42C623,42,582,18,517,1c0,0,-66,-15,-128,-15Z" 
id="f0_21"
transform="scale(0.001,-0.001)" />

<path d="M41,0V49l69,18V634L41,652v49H313l11,-61l50,26c0,0,105,54,188,54c0,0,125,0,167,-91c0,0,153,91,258,91c0,0,189,0,189,-207V67l71,-17V0H898V50l63,17V484c0,0,0,63,-24,98c0,0,-25,35,-74,35c0,0,-55,0,-119,-31c0,0,7,-32,7,-73V67L821,50V0H473V50l63,17V484c0,0,0,63,-25,98c0,0,-24,35,-73,35c0,0,-49,0,-113,-29V67L389,49V0Z" 
id="f0_29"
transform="scale(0.001,-0.001)" />

<path d="M345,75c0,0,50,0,110,26V351l-63,-2c0,0,-72,-3,-100,-38c0,0,-28,-35,-28,-113c0,0,0,-63,22,-93c0,0,23,-30,59,-30ZM266,-14c0,0,-217,0,-217,208c0,0,0,79,32,126c0,0,32,48,93,71c0,0,60,22,190,25l91,2V521c0,0,0,126,-104,126c0,0,-62,0,-140,-39L183,521H134V691c0,0,112,17,165,21c0,0,53,5,108,5c0,0,264,0,264,-194V67L741,49V0H483L466,54C466,54,408,14,361,0c0,0,-47,-14,-95,-14Z" 
id="f0_1x"
transform="scale(0.001,-0.001)" />

<path d="M30,0V49l76,18V992l-72,18v50H322V67L398,49V0Z" 
id="f0_28"
transform="scale(0.001,-0.001)" />

<path d="M498,506c0,0,115,0,164,47c0,0,48,48,48,166c0,0,0,112,-46,156c0,0,-46,43,-169,43H390V506ZM793,0L514,423H390V74L518,54V0H36V54L154,74V926L26,945v55H504c0,0,221,0,330,-68c0,0,109,-68,109,-212c0,0,0,-215,-201,-276L1009,74L1117,54V0Z" 
id="f0_1i"
transform="scale(0.001,-0.001)" />

<path d="M438,65c0,0,131,0,131,293c0,0,0,279,-130,279c0,0,-69,0,-127,-29V80c0,0,60,-15,126,-15ZM20,-325v50l76,18V634L19,652v49H304l1,-36c0,0,80,55,194,55c0,0,146,0,218,-86c0,0,71,-86,71,-271c0,0,0,-183,-83,-280c0,0,-83,-97,-238,-97c0,0,-79,0,-160,19c0,0,5,-48,5,-109V-257l103,-18v-50Z" 
id="f0_2c"
transform="scale(0.001,-0.001)" />

<path d="M41,0V49l91,18V634L41,652v49H336l8,-145c0,0,80,89,144,128c0,0,64,40,117,40h40V468H604l-45,94c0,0,-47,0,-106,-21c0,0,-60,-20,-105,-48V67L460,49V0Z" 
id="f0_2e"
transform="scale(0.001,-0.001)" />

<path d="M379,60c0,0,59,0,84,64c0,0,24,65,24,231c0,0,0,164,-24,227c0,0,-24,63,-84,63c0,0,-57,0,-80,-60c0,0,-22,-61,-22,-230c0,0,0,-173,23,-234c0,0,22,-61,79,-61Zm-2,-74c0,0,-161,0,-240,91c0,0,-79,91,-79,277c0,0,0,186,80,276c0,0,81,90,245,90c0,0,167,0,245,-93c0,0,78,-93,78,-273c0,0,0,-188,-81,-278c0,0,-81,-90,-248,-90Z" 
id="f0_2b"
transform="scale(0.001,-0.001)" />

<path d="M416,68c0,0,60,0,124,32V628c0,0,-58,15,-118,15c0,0,-67,0,-104,-73c0,0,-38,-73,-38,-216c0,0,0,-139,36,-212c0,0,35,-74,100,-74ZM369,-14c0,0,-155,0,-231,88c0,0,-76,90,-76,274c0,0,0,182,82,277c0,0,81,95,236,95c0,0,82,0,165,-20c0,0,-5,24,-5,115V992l-72,18v50H756V67L833,49V0H562L547,40C547,40,505,13,483,4c0,0,-23,-7,-51,-12c0,0,-28,-6,-63,-6Z" 
id="f0_20"
transform="scale(0.001,-0.001)" />

<path d="M287,-18c0,0,-194,0,-194,206V634L23,652v49H309V217c0,0,0,-63,26,-98c0,0,27,-35,76,-35c0,0,57,0,113,25V634l-64,18v49H740V67L809,49V0H536L526,61L475,35c0,0,-104,-53,-188,-53Z" 
id="f0_2h"
transform="scale(0.001,-0.001)" />

<path d="M425,-14c0,0,-187,0,-280,90c0,0,-93,90,-93,276c0,0,0,115,42,198c0,0,43,82,121,126c0,0,78,44,182,44c0,0,104,0,227,-26V486H571L539,609c0,0,-25,19,-50,26c0,0,-24,7,-65,7c0,0,-44,0,-79,-35c0,0,-36,-35,-56,-98c0,0,-20,-64,-20,-153c0,0,0,-150,47,-214c0,0,47,-64,148,-64c0,0,103,0,176,21V42C640,42,606,15,547,0c0,0,-59,-14,-122,-14Z" 
id="f0_1z"
transform="scale(0.001,-0.001)" />

<path d="M327,-14c0,0,-101,0,-156,45c0,0,-55,45,-55,131V624H25v48l108,29l87,159H332V701H480V624H332V176c0,0,0,-49,20,-73c0,0,20,-25,53,-25c0,0,40,0,97,12V26c0,0,-22,-15,-76,-27c0,0,-55,-13,-99,-13Z" 
id="f0_2g"
transform="scale(0.001,-0.001)" />

<path d="M34,0V49l76,18V634L38,652v49H325V67L402,49V0ZM217,831c0,0,-48,0,-81,33c0,0,-34,33,-34,82c0,0,0,48,34,81c0,0,34,33,81,33c0,0,48,0,81,-33c0,0,33,-33,33,-81c0,0,0,-47,-33,-81c0,0,-32,-34,-81,-34Z" 
id="f0_25"
transform="scale(0.001,-0.001)" />

<path d="M342,-14L49,634L0,652v49H359V652L275,632L455,233L617,634l-82,18v49H764V652L713,637L433,-14Z" 
id="f0_2i"
transform="scale(0.001,-0.001)" />

<path d="M410,-14c0,0,-86,0,-175,14C235,0,145,14,81,38V307h66L181,146c0,0,31,-37,94,-62c0,0,64,-24,132,-24c0,0,214,0,214,177c0,0,0,55,-41,93c0,0,-41,38,-128,68c0,0,-128,42,-185,68c0,0,-56,27,-95,63c0,0,-38,36,-62,87c0,0,-23,51,-23,125c0,0,0,132,90,201c0,0,90,69,263,69c0,0,125,0,278,-32V741H651L618,878c0,0,-76,56,-178,56c0,0,-92,0,-141,-34c0,0,-49,-34,-49,-104c0,0,0,-50,41,-86c0,0,41,-35,128,-63c0,0,171,-56,235,-97c0,0,64,-41,97,-103c0,0,34,-61,34,-143c0,0,0,-318,-375,-318Z" 
id="f0_1j"
transform="scale(0.001,-0.001)" />

<path d="M159,-329c0,0,-61,0,-123,14v180H81l32,-94c0,0,21,-17,55,-17c0,0,28,0,50,13c0,0,21,14,40,39c0,0,20,25,37,62c0,0,17,37,50,110L64,634L15,652v49H374V652L290,632L455,244L602,634l-82,18v49H749V652L698,637L421,-44c0,0,-47,-121,-83,-176c0,0,-36,-55,-80,-82c0,0,-43,-27,-99,-27Z" 
id="f0_2l"
transform="scale(0.001,-0.001)" />

<path d="M276,-14c0,0,-57,0,-125,13C151,-1,83,10,48,23V214H97l28,-98c0,0,26,-26,69,-44c0,0,42,-17,86,-17c0,0,65,0,97,28c0,0,32,28,32,71c0,0,0,41,-31,65c0,0,-30,25,-133,57c0,0,-108,34,-154,92c0,0,-45,58,-45,143c0,0,0,95,71,152c0,0,71,57,183,57c0,0,77,0,207,-22V518H457l-24,82c0,0,-21,22,-60,35c0,0,-40,14,-75,14c0,0,-53,0,-79,-22c0,0,-26,-22,-26,-59c0,0,0,-40,32,-65c0,0,32,-26,132,-55c0,0,109,-34,155,-89c0,0,45,-55,45,-137c0,0,0,-117,-72,-177c0,0,-72,-59,-209,-59Z" 
id="f0_2f"
transform="scale(0.001,-0.001)" />

<path d="M41,0V49l76,18V624H11v51l106,29v75c0,0,0,144,73,220c0,0,73,77,210,77c0,0,74,0,124,-15V894H476l-22,81c0,0,-18,17,-47,17c0,0,-74,0,-74,-189V701H475V624H333V67L447,49V0Z" 
id="f0_22"
transform="scale(0.001,-0.001)" />

<path d="M360,-256c0,0,108,0,167,35c0,0,59,35,59,98c0,0,0,70,-95,70H254c0,0,-65,-47,-65,-108c0,0,0,-47,46,-71c0,0,45,-24,125,-24Zm9,561c0,0,55,0,79,43c0,0,25,43,25,129c0,0,0,87,-24,127c0,0,-25,41,-80,41c0,0,-52,0,-75,-41c0,0,-24,-40,-24,-127c0,0,0,-86,23,-129c0,0,23,-43,76,-43Zm-9,-641c0,0,-153,0,-236,43c0,0,-84,44,-84,120c0,0,0,33,28,65c0,0,27,31,105,76c0,0,-44,17,-75,59c0,0,-31,43,-31,90L192,258c0,0,-133,56,-133,219c0,0,0,116,81,180c0,0,82,63,233,63c0,0,32,0,82,-6c0,0,51,-6,74,-13l168,83l26,-32L638,631c0,0,46,-57,46,-154c0,0,0,-119,-80,-182c0,0,-80,-64,-234,-64c0,0,-59,0,-114,9L238,183c0,0,1,-22,28,-41c0,0,26,-19,64,-19H493c0,0,256,0,256,-196c0,0,0,-81,-44,-139c0,0,-45,-59,-131,-92c0,0,-86,-32,-214,-32Z" 
id="f0_23"
transform="scale(0.001,-0.001)" />

<path d="M273,157c0,0,-114,0,-193,80C80,237,0,317,0,431c0,0,0,112,80,192c0,0,79,80,193,80c0,0,113,0,192,-80c0,0,80,-80,80,-192c0,0,0,-114,-80,-194c0,0,-79,-80,-192,-80Z" 
id="f1_3d"
transform="scale(0.001,-0.001)" />

<path d="M54,0V40L172,60V941L44,960v40H794V760H745L721,922c0,0,-83,11,-241,11H316V516H611l23,120h46V328H634L611,449H316V60L483,40V0Z" 
id="f2_16"
transform="scale(0.001,-0.001)" />

<path d="M31,0V33l88,19V649L31,668v33H235l7,-87c0,0,44,37,121,71c0,0,76,35,121,35h11V530H463l-43,82c0,0,-37,0,-88,-10c0,0,-52,-10,-89,-26V52L363,33V0Z" 
id="f2_2e"
transform="scale(0.001,-0.001)" />

<path d="M377,45c0,0,99,0,147,73c0,0,47,73,47,237c0,0,0,161,-47,233c0,0,-47,72,-147,72c0,0,-97,0,-141,-69c0,0,-44,-69,-44,-236c0,0,0,-169,45,-240c0,0,44,-70,140,-70Zm0,-59c0,0,-158,0,-238,94c0,0,-81,95,-81,274c0,0,0,178,81,272c0,0,80,94,244,94c0,0,160,0,241,-92c0,0,82,-92,82,-274c0,0,0,-368,-329,-368Z" 
id="f2_2b"
transform="scale(0.001,-0.001)" />

<path d="M359,-270c0,0,124,0,192,46c0,0,67,47,67,129c0,0,0,43,-26,67c0,0,-26,24,-79,24H242c0,0,-32,-27,-51,-69c0,0,-20,-41,-20,-77c0,0,0,-64,46,-92c0,0,46,-28,142,-28Zm11,561c0,0,81,0,115,47c0,0,34,47,34,141c0,0,0,100,-35,142c0,0,-35,42,-113,42c0,0,-78,0,-114,-43c0,0,-37,-42,-37,-141c0,0,0,-98,36,-143c0,0,36,-45,114,-45ZM359,-329c0,0,-143,0,-218,44c0,0,-75,43,-75,125c0,0,0,39,27,78c0,0,26,38,98,89c0,0,-43,14,-72,48c0,0,-29,35,-29,74L208,262c0,0,-118,55,-118,217c0,0,0,115,73,178c0,0,73,63,211,63c0,0,28,0,71,-6c0,0,44,-6,67,-13l165,83l26,-32L599,644c0,0,50,-56,50,-165c0,0,0,-120,-72,-182c0,0,-73,-62,-208,-62c0,0,-62,0,-114,11L208,148c0,0,2,-13,29,-24c0,0,27,-12,67,-12H512c0,0,113,0,168,-49c0,0,55,-49,55,-134c0,0,0,-79,-44,-137c0,0,-43,-58,-128,-90c0,0,-84,-31,-204,-31Z" 
id="f2_23"
transform="scale(0.001,-0.001)" />

<path d="M278,-14c0,0,-52,0,-115,11c0,0,-63,10,-99,23V193H98L134,95c0,0,56,-50,146,-50c0,0,144,0,144,123c0,0,0,91,-114,130l-66,21c0,0,-75,25,-110,50c0,0,-34,26,-53,63c0,0,-18,36,-18,89c0,0,0,92,63,145c0,0,63,54,170,54c0,0,77,0,193,-23V544H454l-32,81c0,0,-39,35,-124,35c0,0,-61,0,-92,-30c0,0,-32,-30,-32,-80c0,0,0,-43,29,-72c0,0,28,-29,86,-48c0,0,110,-38,144,-55c0,0,33,-17,57,-42c0,0,23,-25,36,-57c0,0,13,-32,13,-79c0,0,0,-104,-66,-158c0,0,-66,-53,-195,-53Z" 
id="f2_2f"
transform="scale(0.001,-0.001)" />

<path d="M284,67c0,0,51,0,88,12c0,0,37,12,74,30V358l-98,-3c0,0,-100,-4,-135,-39c0,0,-35,-35,-35,-117c0,0,0,-132,106,-132ZM233,-14c0,0,-179,0,-179,208c0,0,0,70,27,116c0,0,27,46,87,70c0,0,60,24,173,27l105,3V519c0,0,0,72,-26,107c0,0,-27,34,-82,34c0,0,-75,0,-137,-35L176,538H134V691c0,0,121,26,213,26c0,0,115,0,169,-47c0,0,54,-47,54,-144V52L657,33V0H465L451,70c0,0,-85,-84,-218,-84Z" 
id="f2_1x"
transform="scale(0.001,-0.001)" />

<path d="M495,413c0,0,0,133,-34,190c0,0,-34,57,-105,57c0,0,-78,0,-119,-63c0,0,-42,-62,-42,-184ZM374,-14c0,0,-163,0,-239,87c0,0,-75,88,-75,283c0,0,0,183,77,273c0,0,76,91,219,91c0,0,269,0,269,-306V353H194V340c0,0,0,-103,23,-160c0,0,22,-57,70,-87c0,0,47,-29,124,-29c0,0,40,0,96,6c0,0,55,7,91,15V43C598,43,562,20,500,3c0,0,-61,-17,-126,-17Z" 
id="f2_21"
transform="scale(0.001,-0.001)" />

<path d="M376,50c0,0,103,0,149,80c0,0,46,81,46,240c0,0,0,137,-47,204c0,0,-48,67,-148,67c0,0,-44,0,-87,-7c0,0,-44,-8,-63,-17V62c0,0,63,-12,150,-12Zm3,-64c0,0,-64,0,-141,14c0,0,-78,14,-136,37v971L0,1026v34H226V809c0,0,0,-40,-4,-148c0,0,74,59,188,59c0,0,143,0,219,-87c0,0,77,-87,77,-263c0,0,0,-189,-84,-287c0,0,-84,-97,-243,-97Z" 
id="f2_1y"
transform="scale(0.001,-0.001)" />

<path d="M439,0V33l93,19V500c0,0,0,62,-30,97c0,0,-31,36,-94,36c0,0,-67,0,-165,-22V52L338,33V0H35V33l84,19V649L35,668v33H235l7,-57c0,0,57,33,122,54c0,0,65,22,108,22c0,0,91,0,137,-53c0,0,47,-53,47,-154V52L741,33V0Z" 
id="f2_2a"
transform="scale(0.001,-0.001)" />

<path d="M64,0V34L168,59V639H47v36l121,29v49c0,0,0,155,61,239c0,0,62,84,173,84c0,0,58,0,107,-15V908H472l-33,92c0,0,-26,16,-62,16c0,0,-47,0,-66,-42c0,0,-19,-42,-19,-157V701H478V639H292V59L443,34V0Z" 
id="f2_22"
transform="scale(0.001,-0.001)" />

<path d="M32,0V33L151,52V649L52,668v33H275V52L395,33V0ZM201,850c0,0,-32,0,-56,24c0,0,-24,24,-24,56c0,0,0,34,24,58c0,0,24,24,56,24c0,0,34,0,58,-24c0,0,24,-24,24,-58c0,0,0,-32,-24,-56c0,0,-24,-24,-58,-24Z" 
id="f2_25"
transform="scale(0.001,-0.001)" />

<path d="M399,-14c0,0,-341,0,-341,370c0,0,0,175,87,269c0,0,87,95,249,95c0,0,101,0,220,-23V501H573L541,625c0,0,-62,35,-149,35c0,0,-200,0,-200,-304c0,0,0,-158,61,-225c0,0,61,-67,189,-67c0,0,109,0,189,24V43C631,43,595,16,530,1c0,0,-64,-15,-131,-15Z" 
id="f2_1z"
transform="scale(0.001,-0.001)" />

<path d="M31,0V33L150,52v956L31,1026v34H274V52L394,33V0Z" 
id="f2_28"
transform="scale(0.001,-0.001)" />

<path d="M431,0V33L535,52V499c0,0,0,62,-32,96c0,0,-32,33,-95,33c0,0,-66,0,-163,-22V52L350,33V0H32V33l89,19V649L32,668v33H237l6,-57c0,0,56,32,119,54c0,0,62,22,110,22c0,0,52,0,95,-20c0,0,44,-19,66,-62c0,0,57,32,134,57c0,0,77,25,128,25c0,0,179,0,179,-207V52l90,-19V0H846V33L950,52V499c0,0,0,129,-119,129c0,0,-19,0,-45,-3c0,0,-26,-3,-52,-7c0,0,-25,-4,-49,-8c0,0,-23,-5,-39,-8c0,0,13,-41,13,-89V52L764,33V0Z" 
id="f2_29"
transform="scale(0.001,-0.001)" />

<path d="M477,0V33l64,19L348,354L257,254V52L331,33V0H44V33l89,19v956L29,1026v34H257V338L544,647l-73,20v34H718V667L631,650L431,446L688,50L764,33V0Z" 
id="f2_27"
transform="scale(0.001,-0.001)" />

<path d="M383,64c0,0,85,0,152,28V645c0,0,-67,13,-152,13c0,0,-194,0,-194,-314c0,0,0,-141,48,-211c0,0,48,-69,146,-69ZM342,-14c0,0,-287,0,-287,358c0,0,0,184,82,280c0,0,81,96,239,96c0,0,81,0,163,-18c0,0,-4,25,-4,124v182l-118,18v34H659V52L745,33V0H548l-9,52c0,0,-84,-66,-197,-66Z" 
id="f2_20"
transform="scale(0.001,-0.001)" />

<path d="M289,-14c0,0,-179,0,-179,205V649L20,668v33H233V200c0,0,0,-128,120,-128c0,0,92,0,173,23V649L420,668v33H649V52L738,33V0H533l-6,57C527,57,474,28,405,7c0,0,-69,-21,-116,-21Z" 
id="f2_2h"
transform="scale(0.001,-0.001)" />

<path d="M249,-14c0,0,-71,0,-107,42c0,0,-35,42,-35,119V639H15v33l93,29l76,159h47V701H391V639H231V161c0,0,0,-48,22,-73c0,0,22,-24,57,-24c0,0,44,0,106,12V26C416,26,389,8,340,-2c0,0,-49,-12,-91,-12Z" 
id="f2_2g"
transform="scale(0.001,-0.001)" />

<path d="M442,0V33l93,19V504c0,0,0,129,-124,129c0,0,-70,0,-168,-22V52L338,33V0H31V33l88,19v956L15,1026v34H243V756c0,0,0,-77,-5,-112c0,0,54,31,122,53c0,0,68,23,115,23c0,0,91,0,137,-53c0,0,47,-53,47,-154V52L744,33V0Z" 
id="f2_24"
transform="scale(0.001,-0.001)" />

<path d="M148,-329c0,0,-58,0,-114,13v151H69l24,-71c0,0,23,-17,64,-17c0,0,39,0,72,22c0,0,33,23,60,67c0,0,27,44,68,157L90,649L19,668v33H344V668L233,648L423,158L606,649L497,668v33H758V668L685,652L411,-43c0,0,-48,-124,-84,-177c0,0,-36,-54,-79,-82c0,0,-44,-27,-100,-27Z" 
id="f2_2l"
transform="scale(0.001,-0.001)" />

<path d="M382,45c0,0,188,0,188,314c0,0,0,143,-47,213c0,0,-46,69,-141,69c0,0,-87,0,-146,-24V58c0,0,67,-13,146,-13ZM25,-325v35l88,18V649L34,668v33H231l1,-41c0,0,31,27,84,43c0,0,53,17,107,17c0,0,134,0,208,-94c0,0,73,-93,73,-267c0,0,0,-178,-80,-276c0,0,-80,-97,-232,-97c0,0,-84,0,-160,16c0,0,4,-53,4,-84V-272l123,-18v-35Z" 
id="f2_2c"
transform="scale(0.001,-0.001)" />

<path d="M191,-20c0,0,-39,0,-65,25c0,0,-25,27,-25,64c0,0,0,38,26,64c0,0,26,26,64,26c0,0,38,0,64,-26c0,0,26,-26,26,-64c0,0,0,-37,-25,-64c0,0,-26,-25,-65,-25Z" 
id="f2_i"
transform="scale(0.001,-0.001)" />

<path d="M360,-14L72,649L0,668v33H327V668L216,648L420,164L615,649L504,668v33H764V668L697,652L416,-14Z" 
id="f2_2i"
transform="scale(0.001,-0.001)" />

<path d="M327,-14L84,649L1,668v33H335V668L219,648L385,174L554,632h63L786,171L944,649L830,668v33h267V668l-78,-16L784,-14H726L553,448L382,-14Z" 
id="f2_2j"
transform="scale(0.001,-0.001)" />

<path d="M55,0V40L184,60V941L55,960v40H455V960L327,941V60L455,40V0Z" 
id="f2_19"
transform="scale(0.001,-0.001)" />

<path d="M46,0c0,0,-2,48,16,93c0,0,27,74,88,146c0,0,61,71,176,165c0,0,178,146,241,232c0,0,63,85,63,161c0,0,0,80,-57,135c0,0,-58,55,-149,55c0,0,-98,0,-156,-59c0,0,-58,-58,-59,-160L71,782c0,0,15,154,107,235c0,0,93,81,249,81c0,0,157,0,249,-87c0,0,92,-88,92,-217c0,0,0,-65,-27,-129c0,0,-27,-63,-89,-133c0,0,-62,-70,-207,-193C445,339,324,238,290,202c0,0,-35,-36,-57,-73H770V0Z" 
id="f3_m"
transform="scale(0.001,-0.001)" />

<path d="M494,385V878L152,385ZM494,0V262H20V385l498,708H628V385H775V262H628V0Z" 
id="f3_o"
transform="scale(0.001,-0.001)" />


</defs>
</svg>