<?xml version="1.0" encoding="UTF-8" standalone="no"?>
<!DOCTYPE svg PUBLIC "-//W3C//DTD SVG 1.1//EN"
"http://www.w3.org/Graphics/SVG/1.1/DTD/svg11.dtd">
<svg viewBox="0 0 797 1155" version="1.1" xmlns="http://www.w3.org/2000/svg" xmlns:xlink="http://www.w3.org/1999/xlink">
<defs>
</defs>
<g fill="#000000" >
<use xlink:href="#f0_ov" transform="matrix(11,0,0,11,55,71.2)" />
<use xlink:href="#f0_s0" transform="matrix(11,0,0,11,60.1,71.2)" />
<use xlink:href="#f0_ow" transform="matrix(11,0,0,11,68.6,71.2)" />
</g>
<g fill="#FFFFFF" >
<use xlink:href="#f0_nt" transform="matrix(11,0,0,11,73.7,71.2)" />
</g>
<g fill="#000000" >
<use xlink:href="#f1_j" transform="matrix(11,0,0,11,78.1,71.2)" />
<use xlink:href="#f1_am" transform="matrix(11,0,0,11,86.9,71.2)" />
<use xlink:href="#f1_b1" transform="matrix(11,0,0,11,96.1,71.2)" />
<use xlink:href="#f1_ae" transform="matrix(11,0,0,11,102,71.2)" />
</g>
<g fill="#FFFFFF" >
<use xlink:href="#f1_nt" transform="matrix(11,0,0,11,115.5,71.2)" />
</g>
<g fill="#000000" >
<use xlink:href="#f0_oj" transform="matrix(11,0,0,11,119.9,71.2)" />
</g>
<g fill="#FFFFFF" >
<use xlink:href="#f0_nt" transform="matrix(11,0,0,11,125.1,71.2)" />
</g>
<g fill="#000000" >
<use xlink:href="#f0_1c" transform="matrix(11,0,0,11,129.5,71.2)" />
<use xlink:href="#f0_bf" transform="matrix(11,0,0,11,133.9,71.2)" />
</g>
<g fill="#FFFFFF" >
<use xlink:href="#f0_nt" transform="matrix(11,0,0,11,139.4,71.2)" />
</g>
<g fill="#000000" >
<use xlink:href="#f0_9q" transform="matrix(11,0,0,11,143.8,71.2)" />
<use xlink:href="#f0_b5" transform="matrix(11,0,0,11,147.8,71.2)" />
</g>
<g fill="#FFFFFF" >
<use xlink:href="#f0_nt" transform="matrix(11,0,0,11,154.1,71.2)" />
</g>
<g fill="#000000" >
<use xlink:href="#f0_7l" transform="matrix(11,0,0,11,158.5,71.2)" />
<use xlink:href="#f0_am" transform="matrix(11,0,0,11,165.4,71.2)" />
<use xlink:href="#f0_af" transform="matrix(11,0,0,11,174.2,71.2)" />
<use xlink:href="#f0_7v" transform="matrix(11,0,0,11,183.1,71.2)" />
<use xlink:href="#f0_7z" transform="matrix(11,0,0,11,191.9,71.2)" />
<use xlink:href="#f0_af" transform="matrix(11,0,0,11,200.3,71.2)" />
<use xlink:href="#f0_b5" transform="matrix(11,0,0,11,209.1,71.2)" />
<use xlink:href="#f0_7z" transform="matrix(11,0,0,11,215.7,71.2)" />
<use xlink:href="#f0_7v" transform="matrix(11,0,0,11,224.1,71.2)" />
</g>
<g fill="#FFFFFF" >
<use xlink:href="#f0_nt" transform="matrix(11,0,0,11,232.9,71.2)" />
</g>
<g fill="#000000" >
<use xlink:href="#f0_b5" transform="matrix(11,0,0,11,237.3,71.2)" />
<use xlink:href="#f0_bf" transform="matrix(11,0,0,11,243.9,71.2)" />
<use xlink:href="#f0_b1" transform="matrix(11,0,0,11,249.4,71.2)" />
<use xlink:href="#f0_c6" transform="matrix(11,0,0,11,255.3,71.2)" />
<use xlink:href="#f0_7l" transform="matrix(11,0,0,11,264.1,71.2)" />
<use xlink:href="#f0_bf" transform="matrix(11,0,0,11,271.1,71.2)" />
<use xlink:href="#f0_c6" transform="matrix(11,0,0,11,276.6,71.2)" />
<use xlink:href="#f0_b1" transform="matrix(11,0,0,11,285.4,71.2)" />
<use xlink:href="#f0_7z" transform="matrix(11,0,0,11,291.3,71.2)" />
</g>
<g fill="#FFFFFF" >
<use xlink:href="#f0_nt" transform="matrix(11,0,0,11,299.7,71.2)" />
</g>
<g fill="#000000" >
<use xlink:href="#f0_ci" transform="matrix(11,0,0,11,304.1,71.2)" />
<use xlink:href="#f0_9n" transform="matrix(11,0,0,11,316.2,71.2)" />
<use xlink:href="#f0_9q" transform="matrix(11,0,0,11,325,71.2)" />
<use xlink:href="#f0_7l" transform="matrix(11,0,0,11,329,71.2)" />
<use xlink:href="#f0_9n" transform="matrix(11,0,0,11,336,71.2)" />
</g>
<g fill="#FFFFFF" >
<use xlink:href="#f0_nt" transform="matrix(11,0,0,11,344.8,71.2)" />
</g>
<g fill="#000000" >
<use xlink:href="#f0_9d" transform="matrix(11,0,0,11,349.2,71.2)" />
<use xlink:href="#f0_b1" transform="matrix(11,0,0,11,357.3,71.2)" />
<use xlink:href="#f0_am" transform="matrix(11,0,0,11,363.2,71.2)" />
<use xlink:href="#f0_ci" transform="matrix(11,0,0,11,371.9,71.2)" />
</g>
<g fill="#FFFFFF" >
<use xlink:href="#f0_nt" transform="matrix(11,0,0,11,383.7,71.2)" />
</g>
<g fill="#000000" >
<use xlink:href="#f0_ch" transform="matrix(11,0,0,11,388.1,71.2)" />
<use xlink:href="#f0_7z" transform="matrix(11,0,0,11,395.8,71.2)" />
<use xlink:href="#f0_b1" transform="matrix(11,0,0,11,404.2,71.2)" />
<use xlink:href="#f0_bf" transform="matrix(11,0,0,11,410.1,71.2)" />
<use xlink:href="#f0_9q" transform="matrix(11,0,0,11,415.6,71.2)" />
<use xlink:href="#f0_7l" transform="matrix(11,0,0,11,419.6,71.2)" />
<use xlink:href="#f0_77" transform="matrix(11,0,0,11,426.2,71.2)" />
<use xlink:href="#f0_a8" transform="matrix(11,0,0,11,434.3,71.2)" />
<use xlink:href="#f0_a8" transform="matrix(11,0,0,11,438.3,71.2)" />
<use xlink:href="#f0_co" transform="matrix(11,0,0,11,442.3,71.2)" />
</g>
<g fill="#FFFFFF" >
<use xlink:href="#f0_nt" transform="matrix(11,0,0,11,449.7,71.2)" />
</g>
<g fill="#000000" >
<use xlink:href="#f0_c6" transform="matrix(11,0,0,11,454.1,71.2)" />
<use xlink:href="#f0_af" transform="matrix(11,0,0,11,462.9,71.2)" />
<use xlink:href="#f0_7v" transform="matrix(11,0,0,11,471.7,71.2)" />
<use xlink:href="#f0_7z" transform="matrix(11,0,0,11,480.5,71.2)" />
<use xlink:href="#f0_b1" transform="matrix(11,0,0,11,488.9,71.2)" />
</g>
<g fill="#FFFFFF" >
<use xlink:href="#f0_nt" transform="matrix(11,0,0,11,494.8,71.2)" />
</g>
<g fill="#000000" >
<use xlink:href="#f0_bf" transform="matrix(11,0,0,11,499.2,71.2)" />
<use xlink:href="#f0_9n" transform="matrix(11,0,0,11,504.7,71.2)" />
<use xlink:href="#f0_7z" transform="matrix(11,0,0,11,513.6,71.2)" />
</g>
<g fill="#FFFFFF" >
<use xlink:href="#f0_nt" transform="matrix(11,0,0,11,522,71.2)" />
</g>
<g fill="#000000" >
<use xlink:href="#f0_b5" transform="matrix(11,0,0,11,526.4,71.2)" />
<use xlink:href="#f0_am" transform="matrix(11,0,0,11,533,71.2)" />
<use xlink:href="#f0_9q" transform="matrix(11,0,0,11,541.4,71.2)" />
<use xlink:href="#f0_a8" transform="matrix(11,0,0,11,545.4,71.2)" />
</g>
<g fill="#FFFFFF" >
<use xlink:href="#f0_nt" transform="matrix(11,0,0,11,549.2,71.2)" />
</g>
<g fill="#000000" >
<use xlink:href="#f0_b5" transform="matrix(11,0,0,11,553.6,71.2)" />
<use xlink:href="#f0_c6" transform="matrix(11,0,0,11,560.2,71.2)" />
<use xlink:href="#f0_b1" transform="matrix(11,0,0,11,569,71.2)" />
<use xlink:href="#f0_89" transform="matrix(11,0,0,11,574.8,71.2)" />
<use xlink:href="#f0_77" transform="matrix(11,0,0,11,580,71.2)" />
<use xlink:href="#f0_7l" transform="matrix(11,0,0,11,588.1,71.2)" />
<use xlink:href="#f0_7z" transform="matrix(11,0,0,11,595,71.2)" />
<use xlink:href="#f0_nt" transform="matrix(11,0,0,11,603.4,71.2)" />
</g>
<g fill="#FFFFFF" >
<use xlink:href="#f0_nt" transform="matrix(11,0,0,11,607.8,71.2)" />
</g>
<g fill="#000000" >
<use xlink:href="#f0_t" transform="matrix(11,0,0,11,612.2,71.2)" />
<use xlink:href="#f0_9d" transform="matrix(11,0,0,11,620.3,71.2)" />
<use xlink:href="#f0_nt" transform="matrix(11,0,0,11,628,71.2)" />
<use xlink:href="#f0_nq" transform="matrix(11,0,0,11,632.4,71.2)" />
</g>
<g fill="#FFFFFF" >
<use xlink:href="#f0_nt" transform="matrix(11,0,0,11,636.5,71.2)" />
</g>
<g fill="#000000" >
<use xlink:href="#f2_j" transform="matrix(11,0,0,11,640.9,71.2)" />
<use xlink:href="#f2_am" transform="matrix(11,0,0,11,649.6,71.2)" />
<use xlink:href="#f2_a8" transform="matrix(11,0,0,11,658.5,71.2)" />
<use xlink:href="#f2_am" transform="matrix(11,0,0,11,662.5,71.2)" />
<use xlink:href="#f2_7l" transform="matrix(11,0,0,11,671.3,71.2)" />
<use xlink:href="#f2_77" transform="matrix(11,0,0,11,678.3,71.2)" />
<use xlink:href="#f2_b5" transform="matrix(11,0,0,11,687.1,71.2)" />
<use xlink:href="#f2_9q" transform="matrix(11,0,0,11,693.7,71.2)" />
<use xlink:href="#f2_77" transform="matrix(11,0,0,11,697.7,71.2)" />
<use xlink:href="#f1_nt" transform="matrix(11,0,0,11,706.5,71.2)" />
<use xlink:href="#f0_ov" transform="matrix(11,0,0,11,55,515.7)" />
<use xlink:href="#f0_s1" transform="matrix(11,0,0,11,60.1,515.7)" />
<use xlink:href="#f0_ow" transform="matrix(11,0,0,11,68.6,515.7)" />
</g>
<g fill="#FFFFFF" >
<use xlink:href="#f0_nt" transform="matrix(11,0,0,11,73.7,515.7)" />
</g>
<g fill="#000000" >
<use xlink:href="#f1_i" transform="matrix(11,0,0,11,78.1,515.7)" />
<use xlink:href="#f1_c6" transform="matrix(11,0,0,11,87.6,515.7)" />
<use xlink:href="#f1_a8" transform="matrix(11,0,0,11,96.8,515.7)" />
<use xlink:href="#f1_7k" transform="matrix(11,0,0,11,100.8,515.7)" />
</g>
<g fill="#FFFFFF" >
<use xlink:href="#f1_nt" transform="matrix(11,0,0,11,110,515.7)" />
</g>
<g fill="#000000" >
<use xlink:href="#f0_oj" transform="matrix(11,0,0,11,114.4,515.7)" />
</g>
<g fill="#FFFFFF" >
<use xlink:href="#f0_nt" transform="matrix(11,0,0,11,119.6,515.7)" />
</g>
<g fill="#000000" >
<use xlink:href="#f0_2t" transform="matrix(11,0,0,11,124,515.7)" />
<use xlink:href="#f0_9n" transform="matrix(11,0,0,11,132,515.7)" />
<use xlink:href="#f0_9q" transform="matrix(11,0,0,11,140.5,515.7)" />
<use xlink:href="#f0_b5" transform="matrix(11,0,0,11,144.5,515.7)" />
</g>
<g fill="#FFFFFF" >
<use xlink:href="#f0_nt" transform="matrix(11,0,0,11,151.1,515.7)" />
</g>
<g fill="#000000" >
<use xlink:href="#f0_b5" transform="matrix(11,0,0,11,155.5,515.7)" />
<use xlink:href="#f0_bf" transform="matrix(11,0,0,11,162.1,515.7)" />
<use xlink:href="#f0_7z" transform="matrix(11,0,0,11,167.6,515.7)" />
<use xlink:href="#f0_ae" transform="matrix(11,0,0,11,176,515.7)" />
</g>
<g fill="#FFFFFF" >
<use xlink:href="#f0_nt" transform="matrix(11,0,0,11,189.3,515.7)" />
</g>
<g fill="#000000" >
<use xlink:href="#f0_9n" transform="matrix(11,0,0,11,193.7,515.7)" />
<use xlink:href="#f0_77" transform="matrix(11,0,0,11,202.5,515.7)" />
<use xlink:href="#f0_b5" transform="matrix(11,0,0,11,210.6,515.7)" />
</g>
<g fill="#FFFFFF" >
<use xlink:href="#f0_nt" transform="matrix(11,0,0,11,217.2,515.7)" />
</g>
<g fill="#000000" >
<use xlink:href="#f0_7v" transform="matrix(11,0,0,11,221.6,515.7)" />
<use xlink:href="#f0_9q" transform="matrix(11,0,0,11,230,515.7)" />
<use xlink:href="#f0_b5" transform="matrix(11,0,0,11,234,515.7)" />
<use xlink:href="#f0_7l" transform="matrix(11,0,0,11,240.6,515.7)" />
</g>
<g fill="#FFFFFF" >
<use xlink:href="#f0_nt" transform="matrix(11,0,0,11,247.6,515.7)" />
</g>
<g fill="#000000" >
<use xlink:href="#f0_a8" transform="matrix(11,0,0,11,252,515.7)" />
<use xlink:href="#f0_9q" transform="matrix(11,0,0,11,255.7,515.7)" />
<use xlink:href="#f0_a5" transform="matrix(11,0,0,11,259.7,515.7)" />
<use xlink:href="#f0_7z" transform="matrix(11,0,0,11,267.4,515.7)" />
</g>
<g fill="#FFFFFF" >
<use xlink:href="#f0_nt" transform="matrix(11,0,0,11,275.5,515.7)" />
</g>
<g fill="#000000" >
<use xlink:href="#f0_b5" transform="matrix(11,0,0,11,279.9,515.7)" />
<use xlink:href="#f0_bf" transform="matrix(11,0,0,11,286.5,515.7)" />
<use xlink:href="#f0_b1" transform="matrix(11,0,0,11,292,515.7)" />
<use xlink:href="#f0_c6" transform="matrix(11,0,0,11,297.9,515.7)" />
<use xlink:href="#f0_7l" transform="matrix(11,0,0,11,306.6,515.7)" />
<use xlink:href="#f0_bf" transform="matrix(11,0,0,11,313.6,515.7)" />
<use xlink:href="#f0_c6" transform="matrix(11,0,0,11,319.1,515.7)" />
<use xlink:href="#f0_b1" transform="matrix(11,0,0,11,327.9,515.7)" />
<use xlink:href="#f0_7z" transform="matrix(11,0,0,11,333.8,515.7)" />
</g>
<g fill="#FFFFFF" >
<use xlink:href="#f0_nt" transform="matrix(11,0,0,11,342.3,515.7)" />
</g>
<g fill="#000000" >
<use xlink:href="#f0_77" transform="matrix(11,0,0,11,346.7,515.7)" />
<use xlink:href="#f0_af" transform="matrix(11,0,0,11,354.7,515.7)" />
<use xlink:href="#f0_7v" transform="matrix(11,0,0,11,363.5,515.7)" />
</g>
<g fill="#FFFFFF" >
<use xlink:href="#f0_nt" transform="matrix(11,0,0,11,372.3,515.7)" />
</g>
<g fill="#000000" >
<use xlink:href="#f0_b5" transform="matrix(11,0,0,11,376.7,515.7)" />
<use xlink:href="#f0_c6" transform="matrix(11,0,0,11,383.3,515.7)" />
<use xlink:href="#f0_b1" transform="matrix(11,0,0,11,392.2,515.7)" />
<use xlink:href="#f0_b1" transform="matrix(11,0,0,11,398,515.7)" />
<use xlink:href="#f0_am" transform="matrix(11,0,0,11,403.9,515.7)" />
<use xlink:href="#f0_c6" transform="matrix(11,0,0,11,412.7,515.7)" />
<use xlink:href="#f0_af" transform="matrix(11,0,0,11,421.5,515.7)" />
<use xlink:href="#f0_7v" transform="matrix(11,0,0,11,430.3,515.7)" />
<use xlink:href="#f0_7z" transform="matrix(11,0,0,11,439.1,515.7)" />
<use xlink:href="#f0_7v" transform="matrix(11,0,0,11,447.5,515.7)" />
</g>
<g fill="#FFFFFF" >
<use xlink:href="#f0_nt" transform="matrix(11,0,0,11,456.3,515.7)" />
</g>
<g fill="#000000" >
<use xlink:href="#f0_7k" transform="matrix(11,0,0,11,460.7,515.7)" />
<use xlink:href="#f0_co" transform="matrix(11,0,0,11,469.5,515.7)" />
</g>
<g fill="#FFFFFF" >
<use xlink:href="#f0_nt" transform="matrix(11,0,0,11,477.2,515.7)" />
</g>
<g fill="#000000" >
<use xlink:href="#f0_af" transform="matrix(11,0,0,11,481.6,515.7)" />
<use xlink:href="#f0_c6" transform="matrix(11,0,0,11,490.5,515.7)" />
<use xlink:href="#f0_ae" transform="matrix(11,0,0,11,499.3,515.7)" />
<use xlink:href="#f0_7z" transform="matrix(11,0,0,11,512.5,515.7)" />
<use xlink:href="#f0_b1" transform="matrix(11,0,0,11,520.9,515.7)" />
<use xlink:href="#f0_am" transform="matrix(11,0,0,11,526.7,515.7)" />
<use xlink:href="#f0_c6" transform="matrix(11,0,0,11,535.6,515.7)" />
<use xlink:href="#f0_b5" transform="matrix(11,0,0,11,544.4,515.7)" />
</g>
<g fill="#FFFFFF" >
<use xlink:href="#f0_nt" transform="matrix(11,0,0,11,551,515.7)" />
</g>
<g fill="#000000" >
<use xlink:href="#f0_89" transform="matrix(11,0,0,11,555.4,515.7)" />
<use xlink:href="#f0_a8" transform="matrix(11,0,0,11,560.5,515.7)" />
<use xlink:href="#f0_7z" transform="matrix(11,0,0,11,564.2,515.7)" />
<use xlink:href="#f0_b5" transform="matrix(11,0,0,11,572.6,515.7)" />
<use xlink:href="#f0_9n" transform="matrix(11,0,0,11,579.2,515.7)" />
<use xlink:href="#f0_co" transform="matrix(11,0,0,11,588,515.7)" />
</g>
<g fill="#FFFFFF" >
<use xlink:href="#f0_nt" transform="matrix(11,0,0,11,595.7,515.7)" />
</g>
<g fill="#000000" >
<use xlink:href="#f0_b5" transform="matrix(11,0,0,11,600.1,515.7)" />
<use xlink:href="#f0_7l" transform="matrix(11,0,0,11,606.7,515.7)" />
<use xlink:href="#f0_77" transform="matrix(11,0,0,11,613.7,515.7)" />
<use xlink:href="#f0_a8" transform="matrix(11,0,0,11,621.8,515.7)" />
<use xlink:href="#f0_co" transform="matrix(11,0,0,11,625.4,515.7)" />
</g>
<g fill="#FFFFFF" >
<use xlink:href="#f0_nt" transform="matrix(11,0,0,11,633.2,515.7)" />
</g>
<g fill="#000000" >
<use xlink:href="#f0_a8" transform="matrix(11,0,0,11,637.2,515.7)" />
<use xlink:href="#f0_7z" transform="matrix(11,0,0,11,641.2,515.7)" />
<use xlink:href="#f0_77" transform="matrix(11,0,0,11,649.6,515.7)" />
<use xlink:href="#f0_ch" transform="matrix(11,0,0,11,657.7,515.7)" />
<use xlink:href="#f0_7z" transform="matrix(11,0,0,11,665.4,515.7)" />
<use xlink:href="#f0_b5" transform="matrix(11,0,0,11,673.8,515.7)" />
<use xlink:href="#f0_nt" transform="matrix(11,0,0,11,680.1,515.7)" />
<use xlink:href="#f0_1x" transform="matrix(11,0,0,11,55,536.2)" />
<use xlink:href="#f0_77" transform="matrix(11,0,0,11,69.3,536.2)" />
<use xlink:href="#f0_af" transform="matrix(11,0,0,11,77.4,536.2)" />
<use xlink:href="#f0_co" transform="matrix(11,0,0,11,86.2,536.2)" />
</g>
<g fill="#FFFFFF" >
<use xlink:href="#f0_nt" transform="matrix(11,0,0,11,93.9,536.2)" />
</g>
<g fill="#000000" >
<use xlink:href="#f0_b1" transform="matrix(11,0,0,11,98.3,536.2)" />
<use xlink:href="#f0_am" transform="matrix(11,0,0,11,104.2,536.2)" />
<use xlink:href="#f0_am" transform="matrix(11,0,0,11,113,536.2)" />
<use xlink:href="#f0_bf" transform="matrix(11,0,0,11,121.8,536.2)" />
<use xlink:href="#f0_b5" transform="matrix(11,0,0,11,127.3,536.2)" />
</g>
<g fill="#FFFFFF" >
<use xlink:href="#f0_nt" transform="matrix(11,0,0,11,133.9,536.2)" />
</g>
<g fill="#000000" >
<use xlink:href="#f0_77" transform="matrix(11,0,0,11,138.3,536.2)" />
<use xlink:href="#f0_b1" transform="matrix(11,0,0,11,146.4,536.2)" />
<use xlink:href="#f0_7z" transform="matrix(11,0,0,11,152.2,536.2)" />
</g>
<g fill="#FFFFFF" >
<use xlink:href="#f0_nt" transform="matrix(11,0,0,11,160.7,536.2)" />
</g>
<g fill="#000000" >
<use xlink:href="#f0_77" transform="matrix(11,0,0,11,165.1,536.2)" />
<use xlink:href="#f0_b1" transform="matrix(11,0,0,11,173.2,536.2)" />
<use xlink:href="#f0_9q" transform="matrix(11,0,0,11,178.6,536.2)" />
<use xlink:href="#f0_b5" transform="matrix(11,0,0,11,182.7,536.2)" />
<use xlink:href="#f0_7z" transform="matrix(11,0,0,11,189.2,536.2)" />
</g>
<g fill="#FFFFFF" >
<use xlink:href="#f0_nt" transform="matrix(11,0,0,11,197.7,536.2)" />
</g>
<g fill="#000000" >
<use xlink:href="#f0_89" transform="matrix(11,0,0,11,202.1,536.2)" />
<use xlink:href="#f0_b1" transform="matrix(11,0,0,11,207.3,536.2)" />
<use xlink:href="#f0_am" transform="matrix(11,0,0,11,213.1,536.2)" />
<use xlink:href="#f0_ae" transform="matrix(11,0,0,11,221.5,536.2)" />
</g>
<g fill="#FFFFFF" >
<use xlink:href="#f0_nt" transform="matrix(11,0,0,11,235.1,536.2)" />
</g>
<g fill="#000000" >
<use xlink:href="#f0_9q" transform="matrix(11,0,0,11,239.5,536.2)" />
<use xlink:href="#f0_bf" transform="matrix(11,0,0,11,243.6,536.2)" />
<use xlink:href="#f0_b5" transform="matrix(11,0,0,11,249.1,536.2)" />
</g>
<g fill="#FFFFFF" >
<use xlink:href="#f0_nt" transform="matrix(11,0,0,11,255.3,536.2)" />
</g>
<g fill="#000000" >
<use xlink:href="#f0_7k" transform="matrix(11,0,0,11,259.7,536.2)" />
<use xlink:href="#f0_77" transform="matrix(11,0,0,11,268.5,536.2)" />
<use xlink:href="#f0_b5" transform="matrix(11,0,0,11,276.6,536.2)" />
<use xlink:href="#f0_7z" transform="matrix(11,0,0,11,283.2,536.2)" />
<use xlink:href="#f0_nt" transform="matrix(11,0,0,11,291.6,536.2)" />
</g>
<g fill="#FFFFFF" >
<use xlink:href="#f0_nt" transform="matrix(11,0,0,11,295.7,536.2)" />
</g>
<g fill="#000000" >
<use xlink:href="#f0_t" transform="matrix(11,0,0,11,300.1,536.2)" />
<use xlink:href="#f0_9d" transform="matrix(11,0,0,11,308.1,536.2)" />
<use xlink:href="#f0_nt" transform="matrix(11,0,0,11,316.2,536.2)" />
<use xlink:href="#f0_nq" transform="matrix(11,0,0,11,320.6,536.2)" />
</g>
<g fill="#FFFFFF" >
<use xlink:href="#f0_nt" transform="matrix(11,0,0,11,324.7,536.2)" />
</g>
<g fill="#000000" >
<use xlink:href="#f1_24" transform="matrix(11,0,0,11,329.1,536.2)" />
<use xlink:href="#f1_af" transform="matrix(11,0,0,11,340,536.2)" />
<use xlink:href="#f1_9q" transform="matrix(11,0,0,11,349.2,536.2)" />
<use xlink:href="#f1_am" transform="matrix(11,0,0,11,353.2,536.2)" />
<use xlink:href="#f1_af" transform="matrix(11,0,0,11,362.4,536.2)" />
<use xlink:href="#f1_nt" transform="matrix(11,0,0,11,371.5,536.2)" />
<use xlink:href="#f1_j" transform="matrix(11,0,0,11,55,939.3)" />
</g>
<g fill="#FFFFFF" >
<use xlink:href="#f1_nt" transform="matrix(11,0,0,11,63.8,939.3)" />
</g>
<g fill="#000000" >
<use xlink:href="#f1_oj" transform="matrix(11,0,0,11,68.2,939.3)" />
</g>
<g fill="#FFFFFF" >
<use xlink:href="#f1_nt" transform="matrix(11,0,0,11,73.4,939.3)" />
</g>
<g fill="#000000" >
<use xlink:href="#f1_5" transform="matrix(11,0,0,11,77.8,939.3)" />
<use xlink:href="#f1_7z" transform="matrix(11,0,0,11,88,939.3)" />
<use xlink:href="#f1_b1" transform="matrix(11,0,0,11,96.5,939.3)" />
<use xlink:href="#f1_9q" transform="matrix(11,0,0,11,102.3,939.3)" />
<use xlink:href="#f1_77" transform="matrix(11,0,0,11,106.4,939.3)" />
<use xlink:href="#f1_a8" transform="matrix(11,0,0,11,114.8,939.3)" />
</g>
<g fill="#FFFFFF" >
<use xlink:href="#f1_nt" transform="matrix(11,0,0,11,118.8,939.3)" />
</g>
<g fill="#000000" >
<use xlink:href="#f1_ae" transform="matrix(11,0,0,11,123.6,939.3)" />
<use xlink:href="#f1_am" transform="matrix(11,0,0,11,137.2,939.3)" />
<use xlink:href="#f1_7v" transform="matrix(11,0,0,11,146.3,939.3)" />
<use xlink:href="#f1_9q" transform="matrix(11,0,0,11,155.4,939.3)" />
<use xlink:href="#f1_89" transform="matrix(11,0,0,11,159.5,939.3)" />
<use xlink:href="#f1_9q" transform="matrix(11,0,0,11,165,939.3)" />
<use xlink:href="#f1_7l" transform="matrix(11,0,0,11,169,939.3)" />
<use xlink:href="#f1_77" transform="matrix(11,0,0,11,176,939.3)" />
<use xlink:href="#f1_bf" transform="matrix(11,0,0,11,184.4,939.3)" />
<use xlink:href="#f1_9q" transform="matrix(11,0,0,11,190.2,939.3)" />
<use xlink:href="#f1_am" transform="matrix(11,0,0,11,194.3,939.3)" />
<use xlink:href="#f1_af" transform="matrix(11,0,0,11,203.4,939.3)" />
<use xlink:href="#f0_ov" transform="matrix(11,0,0,11,55,980.4)" />
<use xlink:href="#f0_ry" transform="matrix(11,0,0,11,60.1,980.4)" />
<use xlink:href="#f0_ow" transform="matrix(11,0,0,11,68.6,980.4)" />
</g>
<g fill="#FFFFFF" >
<use xlink:href="#f0_nt" transform="matrix(11,0,0,11,73.7,980.4)" />
</g>
<g fill="#000000" >
<use xlink:href="#f1_2n" transform="matrix(11,0,0,11,78.1,980.4)" />
<use xlink:href="#f1_bf" transform="matrix(11,0,0,11,86.2,980.4)" />
<use xlink:href="#f1_7z" transform="matrix(11,0,0,11,92,980.4)" />
<use xlink:href="#f1_ae" transform="matrix(11,0,0,11,100.5,980.4)" />
</g>
<g fill="#FFFFFF" >
<use xlink:href="#f1_nt" transform="matrix(11,0,0,11,114.1,980.4)" />
</g>
<g fill="#000000" >
<use xlink:href="#f1_bf" transform="matrix(11,0,0,11,118.5,980.4)" />
<use xlink:href="#f1_7z" transform="matrix(11,0,0,11,124.3,980.4)" />
<use xlink:href="#f1_af" transform="matrix(11,0,0,11,132.8,980.4)" />
<use xlink:href="#f1_7v" transform="matrix(11,0,0,11,141.9,980.4)" />
<use xlink:href="#f1_b1" transform="matrix(11,0,0,11,151.1,980.4)" />
<use xlink:href="#f1_9q" transform="matrix(11,0,0,11,156.9,980.4)" />
<use xlink:href="#f1_a8" transform="matrix(11,0,0,11,161,980.4)" />
</g>
<g fill="#FFFFFF" >
<use xlink:href="#f1_nt" transform="matrix(11,0,0,11,165.1,980.4)" />
</g>
<g fill="#000000" >
<use xlink:href="#f0_oj" transform="matrix(11,0,0,11,169.5,980.4)" />
</g>
<g fill="#FFFFFF" >
<use xlink:href="#f0_nt" transform="matrix(11,0,0,11,174.6,980.4)" />
</g>
<g fill="#000000" >
<use xlink:href="#f0_5" transform="matrix(11,0,0,11,55,1000.9)" />
<use xlink:href="#f0_cn" transform="matrix(11,0,0,11,64.9,1000.9)" />
<use xlink:href="#f0_9q" transform="matrix(11,0,0,11,72.2,1000.9)" />
<use xlink:href="#f0_a8" transform="matrix(11,0,0,11,75.9,1000.9)" />
<use xlink:href="#f0_a8" transform="matrix(11,0,0,11,79.9,1000.9)" />
<use xlink:href="#f0_77" transform="matrix(11,0,0,11,83.9,1000.9)" />
<use xlink:href="#f0_b1" transform="matrix(11,0,0,11,92,1000.9)" />
<use xlink:href="#f0_co" transform="matrix(11,0,0,11,97.9,1000.9)" />
<use xlink:href="#f0_7k" transform="matrix(11,0,0,11,109.2,1000.9)" />
<use xlink:href="#f0_c6" transform="matrix(11,0,0,11,118.1,1000.9)" />
<use xlink:href="#f0_7v" transform="matrix(11,0,0,11,126.9,1000.9)" />
<use xlink:href="#f0_7v" transform="matrix(11,0,0,11,139.3,1000.9)" />
<use xlink:href="#f0_7z" transform="matrix(11,0,0,11,148.1,1000.9)" />
<use xlink:href="#f0_ch" transform="matrix(11,0,0,11,156.5,1000.9)" />
<use xlink:href="#f0_7z" transform="matrix(11,0,0,11,164.2,1000.9)" />
<use xlink:href="#f0_a8" transform="matrix(11,0,0,11,172.3,1000.9)" />
<use xlink:href="#f0_am" transform="matrix(11,0,0,11,176.3,1000.9)" />
<use xlink:href="#f0_ay" transform="matrix(11,0,0,11,185.1,1000.9)" />
<use xlink:href="#f0_b5" transform="matrix(11,0,0,11,193.9,1000.9)" />
<use xlink:href="#f0_bf" transform="matrix(11,0,0,11,204.2,1000.9)" />
<use xlink:href="#f0_am" transform="matrix(11,0,0,11,209.7,1000.9)" />
<use xlink:href="#f0_89" transform="matrix(11,0,0,11,222.2,1000.9)" />
<use xlink:href="#f0_am" transform="matrix(11,0,0,11,227.3,1000.9)" />
<use xlink:href="#f0_b1" transform="matrix(11,0,0,11,236.1,1000.9)" />
<use xlink:href="#f0_ae" transform="matrix(11,0,0,11,242,1000.9)" />
<use xlink:href="#f0_bf" transform="matrix(11,0,0,11,259.2,1000.9)" />
<use xlink:href="#f0_7z" transform="matrix(11,0,0,11,264.7,1000.9)" />
<use xlink:href="#f0_af" transform="matrix(11,0,0,11,273.1,1000.9)" />
<use xlink:href="#f0_7v" transform="matrix(11,0,0,11,281.9,1000.9)" />
<use xlink:href="#f0_b1" transform="matrix(11,0,0,11,290.7,1000.9)" />
<use xlink:href="#f0_9q" transform="matrix(11,0,0,11,296.6,1000.9)" />
<use xlink:href="#f0_a8" transform="matrix(11,0,0,11,300.6,1000.9)" />
<use xlink:href="#f0_b5" transform="matrix(11,0,0,11,304.6,1000.9)" />
<use xlink:href="#f0_77" transform="matrix(11,0,0,11,314.9,1000.9)" />
<use xlink:href="#f0_af" transform="matrix(11,0,0,11,322.9,1000.9)" />
<use xlink:href="#f0_7v" transform="matrix(11,0,0,11,331.7,1000.9)" />
<use xlink:href="#f0_9n" transform="matrix(11,0,0,11,344.2,1000.9)" />
<use xlink:href="#f0_7z" transform="matrix(11,0,0,11,353,1000.9)" />
<use xlink:href="#f0_a8" transform="matrix(11,0,0,11,361.4,1000.9)" />
<use xlink:href="#f0_ay" transform="matrix(11,0,0,11,365.5,1000.9)" />
<use xlink:href="#f0_b5" transform="matrix(11,0,0,11,374.3,1000.9)" />
<use xlink:href="#f0_9q" transform="matrix(11,0,0,11,384.5,1000.9)" />
<use xlink:href="#f0_af" transform="matrix(11,0,0,11,388.5,1000.9)" />
<use xlink:href="#f0_7l" transform="matrix(11,0,0,11,401,1000.9)" />
<use xlink:href="#f0_a8" transform="matrix(11,0,0,11,408,1000.9)" />
<use xlink:href="#f0_9q" transform="matrix(11,0,0,11,412,1000.9)" />
<use xlink:href="#f0_ae" transform="matrix(11,0,0,11,416,1000.9)" />
<use xlink:href="#f0_7k" transform="matrix(11,0,0,11,429.5,1000.9)" />
<use xlink:href="#f0_9q" transform="matrix(11,0,0,11,438.3,1000.9)" />
<use xlink:href="#f0_af" transform="matrix(11,0,0,11,442.4,1000.9)" />
<use xlink:href="#f0_9d" transform="matrix(11,0,0,11,451.2,1000.9)" />
<use xlink:href="#f0_am" transform="matrix(11,0,0,11,462.9,1000.9)" />
<use xlink:href="#f0_89" transform="matrix(11,0,0,11,471.7,1000.9)" />
<use xlink:href="#f0_ci" transform="matrix(11,0,0,11,480.5,1000.9)" />
<use xlink:href="#f0_7z" transform="matrix(11,0,0,11,492.5,1000.9)" />
<use xlink:href="#f0_77" transform="matrix(11,0,0,11,501,1000.9)" />
<use xlink:href="#f0_a5" transform="matrix(11,0,0,11,509.1,1000.9)" />
<use xlink:href="#f0_b5" transform="matrix(11,0,0,11,520.4,1000.9)" />
<use xlink:href="#f0_bf" transform="matrix(11,0,0,11,527,1000.9)" />
<use xlink:href="#f0_7z" transform="matrix(11,0,0,11,532.5,1000.9)" />
<use xlink:href="#f0_ae" transform="matrix(11,0,0,11,540.9,1000.9)" />
<use xlink:href="#f0_ae" transform="matrix(11,0,0,11,554.5,1000.9)" />
<use xlink:href="#f0_7z" transform="matrix(11,0,0,11,568,1000.9)" />
<use xlink:href="#f0_7v" transform="matrix(11,0,0,11,576.4,1000.9)" />
<use xlink:href="#f0_ay" transform="matrix(11,0,0,11,588.9,1000.9)" />
<use xlink:href="#f0_a8" transform="matrix(11,0,0,11,597.7,1000.9)" />
<use xlink:href="#f0_77" transform="matrix(11,0,0,11,601.8,1000.9)" />
<use xlink:href="#f0_af" transform="matrix(11,0,0,11,609.8,1000.9)" />
<use xlink:href="#f0_bf" transform="matrix(11,0,0,11,618.6,1000.9)" />
<use xlink:href="#f0_b5" transform="matrix(11,0,0,11,624.1,1000.9)" />
<use xlink:href="#f0_nt" transform="matrix(11,0,0,11,630.7,1000.9)" />
<use xlink:href="#f0_t" transform="matrix(11,0,0,11,638.8,1000.9)" />
<use xlink:href="#f0_nt" transform="matrix(11,0,0,11,646.8,1000.9)" />
<use xlink:href="#f0_9d" transform="matrix(11,0,0,11,651.2,1000.9)" />
<use xlink:href="#f0_oj" transform="matrix(11,0,0,11,659.9,1000.9)" />
<use xlink:href="#f0_14" transform="matrix(11,0,0,11,668.7,1000.9)" />
<use xlink:href="#f0_b1" transform="matrix(11,0,0,11,679.4,1000.9)" />
<use xlink:href="#f0_77" transform="matrix(11,0,0,11,685.3,1000.9)" />
<use xlink:href="#f0_ay" transform="matrix(11,0,0,11,693.3,1000.9)" />
<use xlink:href="#f0_7z" transform="matrix(11,0,0,11,702.1,1000.9)" />
<use xlink:href="#f0_b5" transform="matrix(11,0,0,11,710.5,1000.9)" />
</g>
<image preserveAspectRatio="none" x="55" y="76" width="520" height="423" xlink:href="img/1.png" />
<image preserveAspectRatio="none" x="55" y="540" width="469" height="342" xlink:href="img/2.png" />
<g fill="#000000" >
<use xlink:href="#f3_t" transform="matrix(8,0,0,8,680.7,1121.9)" />
</g>
<defs>
<path d="M321,-256c0,0,-13,0,-23,1c0,0,-10,0,-17,3c0,0,-7,2,-11,5c0,0,-5,3,-7,7c0,0,-40,76,-71,154c0,0,-31,78,-51,157c0,0,-21,81,-32,163c0,0,-10,83,-10,167c0,0,0,84,11,166c0,0,12,82,33,163c0,0,21,81,52,160c0,0,31,78,69,155c0,0,0,3,4,5c0,0,3,2,9,4c0,0,6,3,16,4c0,0,11,1,27,1c0,0,17,0,28,-2c0,0,10,-3,16,-6c0,0,6,-4,7,-10c0,0,1,-6,-2,-13c0,0,-71,-150,-106,-307c0,0,-34,-158,-34,-318c0,0,0,-160,35,-318c0,0,35,-156,103,-308c0,0,4,-9,4,-15c0,0,1,-6,-4,-10c0,0,-6,-4,-16,-6c0,0,-11,-2,-30,-2Z" 
id="f0_ov"
transform="scale(0.001,-0.001)" />

<path d="M343,-13c0,0,-49,0,-91,8c0,0,-42,7,-75,18c0,0,-33,11,-54,22c0,0,-22,12,-27,17c0,0,-6,5,-9,10c0,0,-3,5,-5,13c0,0,-3,7,-4,18c0,0,-1,11,-1,27c0,0,0,26,5,37c0,0,6,10,15,10c0,0,7,0,27,-12c0,0,20,-12,51,-25c0,0,31,-14,72,-26c0,0,41,-12,92,-12c0,0,49,0,87,13c0,0,37,12,62,35c0,0,26,24,39,55c0,0,12,32,12,69c0,0,0,41,-16,74c0,0,-16,33,-47,57c0,0,-31,24,-76,36c0,0,-45,13,-103,13H206c0,0,-6,0,-12,3c0,0,-6,2,-10,8c0,0,-4,6,-6,16c0,0,-3,10,-3,25c0,0,0,14,2,24c0,0,2,9,7,15c0,0,4,5,9,8c0,0,5,3,12,3h84c0,0,49,0,89,12c0,0,39,13,66,37c0,0,27,24,42,57c0,0,14,33,14,74c0,0,0,30,-9,57c0,0,-10,28,-30,48c0,0,-19,20,-49,32c0,0,-31,11,-70,11c0,0,-43,0,-80,-13c0,0,-36,-13,-64,-28c0,0,-29,-15,-47,-28c0,0,-19,-13,-26,-13c0,0,-6,0,-10,2c0,0,-4,2,-6,7c0,0,-3,6,-4,16c0,0,-1,10,-1,26c0,0,0,12,0,20c0,0,1,9,3,15c0,0,3,6,6,12c0,0,3,5,10,12c0,0,7,7,28,20c0,0,22,14,54,27c0,0,32,13,73,22c0,0,41,9,89,9c0,0,67,0,118,-17c0,0,51,-18,85,-49c0,0,34,-31,51,-75c0,0,17,-44,17,-97c0,0,0,-45,-12,-84c0,0,-12,-39,-35,-70c0,0,-24,-30,-57,-51c0,0,-34,-21,-78,-30v-1c0,0,50,-5,92,-25c0,0,41,-20,71,-50c0,0,30,-29,47,-69c0,0,16,-40,16,-86c0,0,0,-66,-23,-119c0,0,-23,-54,-66,-92C593,65,550,27,486,7c0,0,-63,-20,-143,-20Z" 
id="f0_s0"
transform="scale(0.001,-0.001)" />

<path d="M142,-256c0,0,-19,0,-30,2c0,0,-11,2,-16,6c0,0,-5,4,-4,10c0,0,0,6,4,15c0,0,69,151,104,308c0,0,35,158,35,318c0,0,0,160,-35,318c0,0,-35,157,-106,307c0,0,-3,7,-2,13c0,0,1,6,7,10c0,0,6,3,16,6c0,0,11,2,28,2c0,0,16,0,26,-1c0,0,10,-1,17,-4c0,0,6,-2,9,-4c0,0,3,-2,5,-5c0,0,76,-153,120,-315c0,0,44,-161,44,-329c0,0,0,-84,-11,-167c0,0,-10,-82,-31,-163c0,0,-21,-79,-51,-157c0,0,-30,-78,-71,-154c0,0,-2,-4,-6,-7c0,0,-5,-3,-12,-5c0,0,-7,-3,-17,-3c0,0,-9,-1,-23,-1Z" 
id="f0_ow"
transform="scale(0.001,-0.001)" />

<path d="M192,-6c0,0,-45,0,-62,16c0,0,-18,18,-18,69c0,0,0,53,18,71c0,0,18,17,64,17c0,0,45,0,62,-17c0,0,17,-17,17,-69c0,0,0,-53,-18,-70c0,0,-17,-17,-63,-17Z" 
id="f0_nt"
transform="scale(0.001,-0.001)" />

<path d="M489,-15c0,0,-99,0,-179,30c0,0,-80,30,-136,91c0,0,-56,61,-85,152c0,0,-30,91,-30,212c0,0,0,123,32,218c0,0,33,96,92,161c0,0,59,65,142,98c0,0,82,34,181,34c0,0,40,0,78,-7c0,0,37,-7,69,-18c0,0,31,-11,57,-25c0,0,25,-14,35,-24c0,0,10,-10,14,-17c0,0,4,-7,6,-17c0,0,2,-11,3,-25c0,0,2,-14,2,-35c0,0,0,-22,-2,-38c0,0,-1,-15,-5,-25c0,0,-4,-10,-9,-14c0,0,-5,-5,-12,-5c0,0,-11,0,-28,13c0,0,-18,13,-45,29c0,0,-27,16,-65,29c0,0,-37,13,-89,13c0,0,-58,0,-103,-23c0,0,-45,-23,-77,-67c0,0,-31,-44,-48,-106c0,0,-16,-61,-16,-139c0,0,0,-85,17,-147c0,0,18,-62,50,-103c0,0,33,-40,79,-60c0,0,45,-19,103,-19c0,0,52,0,90,12c0,0,38,12,65,27c0,0,27,15,45,27c0,0,17,12,27,12c0,0,8,0,12,-3c0,0,4,-3,7,-12c0,0,3,-9,5,-25c0,0,1,-16,1,-43c0,0,0,-18,-1,-31c0,0,-1,-14,-3,-23c0,0,-2,-9,-6,-16c0,0,-4,-7,-12,-15c0,0,-8,-9,-32,-22c0,0,-23,-14,-57,-26C661,13,627,1,583,-6c0,0,-43,-9,-94,-9Z" 
id="f1_j"
transform="scale(0.001,-0.001)" />

<path d="M409,132c0,0,42,0,73,15c0,0,32,16,52,45c0,0,20,29,29,70c0,0,10,42,10,95c0,0,0,49,-8,91c0,0,-8,41,-26,72c0,0,-19,30,-50,48c0,0,-30,17,-77,17c0,0,-42,0,-73,-16c0,0,-31,-15,-51,-44c0,0,-21,-30,-31,-71c0,0,-10,-42,-10,-95c0,0,0,-49,9,-91c0,0,8,-41,26,-72c0,0,18,-30,49,-47c0,0,32,-17,78,-17ZM402,-17c0,0,-89,0,-154,24c0,0,-66,25,-109,72c0,0,-43,47,-64,115c0,0,-21,69,-21,157c0,0,0,85,23,156c0,0,22,70,68,121c0,0,45,50,113,78c0,0,69,27,160,27c0,0,90,0,155,-24c0,0,66,-24,109,-71c0,0,43,-47,64,-116c0,0,21,-69,21,-157c0,0,0,-86,-23,-156c0,0,-22,-70,-68,-121C676,88,631,38,562,10c0,0,-68,-27,-160,-27Z" 
id="f1_am"
transform="scale(0.001,-0.001)" />

<path d="M188,-4c0,0,-28,0,-46,2c0,0,-18,2,-28,5c0,0,-11,3,-16,9c0,0,-4,5,-4,13V691c0,0,0,7,4,13c0,0,3,5,13,9c0,0,10,4,25,6c0,0,15,2,38,2c0,0,24,0,40,-2c0,0,15,-2,24,-6c0,0,9,-4,12,-9c0,0,4,-6,4,-13V608c0,0,26,37,49,61c0,0,23,25,44,39c0,0,21,14,42,20c0,0,21,5,42,5c0,0,10,0,21,-1c0,0,11,-1,23,-4c0,0,12,-2,21,-5c0,0,9,-4,13,-8c0,0,4,-3,6,-8c0,0,2,-4,3,-12c0,0,2,-8,2,-24c0,0,1,-15,1,-42c0,0,0,-27,-1,-44c0,0,-2,-17,-5,-27c0,0,-3,-10,-8,-13c0,0,-5,-4,-12,-4c0,0,-6,0,-13,3c0,0,-8,2,-17,5c0,0,-10,3,-21,6c0,0,-11,2,-24,2c0,0,-16,0,-32,-6c0,0,-15,-6,-32,-20c0,0,-17,-13,-35,-36c0,0,-19,-22,-39,-55V25c0,0,0,-8,-5,-13c0,0,-4,-6,-15,-9c0,0,-11,-3,-29,-5c0,0,-18,-2,-45,-2Z" 
id="f1_b1"
transform="scale(0.001,-0.001)" />

<path d="M188,-4c0,0,-28,0,-46,2c0,0,-18,2,-28,5c0,0,-11,3,-16,9c0,0,-4,5,-4,13V691c0,0,0,7,4,13c0,0,3,5,13,9c0,0,10,4,25,6c0,0,15,2,38,2c0,0,24,0,40,-2c0,0,15,-2,24,-6c0,0,9,-4,12,-9c0,0,4,-6,4,-13V614c0,0,55,60,110,89c0,0,55,30,115,30c0,0,41,0,74,-8c0,0,33,-9,59,-25c0,0,26,-16,44,-38c0,0,19,-23,32,-50c0,0,30,32,58,55c0,0,29,23,57,38c0,0,28,14,56,21c0,0,28,7,57,7c0,0,66,0,112,-22c0,0,45,-22,73,-61c0,0,28,-38,40,-90c0,0,12,-51,12,-109V25c0,0,0,-8,-5,-13c0,0,-4,-6,-15,-9c0,0,-10,-3,-28,-5c0,0,-18,-2,-46,-2c0,0,-28,0,-46,2c0,0,-18,2,-29,5c0,0,-11,3,-15,9c0,0,-4,6,-4,13V420c0,0,0,34,-6,61c0,0,-7,28,-20,48c0,0,-13,19,-32,30c0,0,-20,11,-47,11c0,0,-34,0,-68,-26c0,0,-34,-26,-74,-76V25c0,0,0,-7,-5,-13c0,0,-4,-6,-15,-9c0,0,-11,-3,-29,-5c0,0,-18,-2,-45,-2c0,0,-27,0,-45,2c0,0,-18,2,-29,5c0,0,-11,3,-16,9c0,0,-4,6,-4,13V420c0,0,0,34,-6,61c0,0,-7,28,-19,48c0,0,-13,19,-33,30c0,0,-21,11,-48,11c0,0,-34,0,-68,-26c0,0,-35,-26,-74,-76V25c0,0,0,-7,-5,-13c0,0,-4,-6,-15,-9c0,0,-11,-3,-29,-5c0,0,-18,-2,-45,-2Z" 
id="f1_ae"
transform="scale(0.001,-0.001)" />

<path d="M204,-9c0,0,-63,0,-87,23c0,0,-24,23,-24,89c0,0,0,70,24,94c0,0,25,24,88,24c0,0,62,0,86,-24c0,0,24,-23,24,-90c0,0,0,-69,-24,-93c0,0,-25,-23,-87,-23Z" 
id="f1_nt"
transform="scale(0.001,-0.001)" />

<path d="M79,326c0,0,-14,0,-20,11c0,0,-7,12,-7,40c0,0,0,29,7,40c0,0,6,11,20,11H390c0,0,6,0,11,-2c0,0,5,-2,8,-9c0,0,4,-6,6,-16c0,0,2,-9,2,-24c0,0,0,-29,-7,-40c0,0,-7,-11,-20,-11Z" 
id="f0_oj"
transform="scale(0.001,-0.001)" />

<path d="M192,-4c0,0,-18,0,-30,2c0,0,-13,2,-20,3c0,0,-8,3,-11,8c0,0,-3,4,-3,10V946c0,0,0,6,3,11c0,0,4,4,12,7c0,0,7,2,20,4c0,0,12,2,29,2c0,0,19,0,31,-2c0,0,13,-2,20,-4c0,0,7,-3,10,-7c0,0,3,-5,3,-11V19c0,0,0,-6,-3,-10c0,0,-3,-5,-10,-8c0,0,-7,-1,-20,-3c0,0,-12,-2,-31,-2Z" 
id="f0_1c"
transform="scale(0.001,-0.001)" />

<path d="M339,-13c0,0,-52,0,-90,13c0,0,-37,14,-61,42c0,0,-24,28,-34,71c0,0,-11,43,-11,101V607H49c0,0,-11,0,-18,12c0,0,-7,12,-7,39c0,0,0,14,2,24c0,0,2,10,5,16c0,0,3,7,8,9c0,0,5,3,11,3h93V870c0,0,0,5,2,9c0,0,3,5,10,8c0,0,7,4,19,5c0,0,12,2,30,2c0,0,19,0,31,-2c0,0,11,-1,18,-5c0,0,7,-3,10,-8c0,0,3,-4,3,-9V710H438c0,0,6,0,10,-3c0,0,5,-2,8,-9c0,0,4,-6,5,-16c0,0,1,-10,1,-24c0,0,0,-27,-6,-39c0,0,-7,-12,-18,-12H266V232c0,0,0,-69,20,-105c0,0,21,-35,74,-35c0,0,17,0,30,3c0,0,14,4,24,7c0,0,10,4,18,7c0,0,7,4,13,4c0,0,4,0,7,-2c0,0,4,-2,6,-7c0,0,2,-5,3,-14c0,0,1,-9,1,-23c0,0,0,-22,-2,-34c0,0,-3,-13,-9,-19c0,0,-6,-6,-18,-11c0,0,-12,-4,-28,-8c0,0,-15,-3,-32,-5c0,0,-17,-3,-34,-3Z" 
id="f0_bf"
transform="scale(0.001,-0.001)" />

<path d="M176,-4c0,0,-18,0,-30,2c0,0,-12,1,-19,3c0,0,-7,3,-10,7c0,0,-3,4,-3,10V690c0,0,0,5,3,9c0,0,3,5,10,8c0,0,7,3,19,4c0,0,12,2,30,2c0,0,18,0,30,-2c0,0,12,-1,19,-4c0,0,7,-3,9,-8c0,0,3,-4,3,-9V18c0,0,0,-6,-3,-10c0,0,-2,-4,-9,-7c0,0,-7,-2,-19,-3c0,0,-12,-2,-30,-2Zm-1,846c0,0,-43,0,-59,15c0,0,-16,15,-16,58c0,0,0,43,16,59c0,0,17,16,61,16c0,0,43,0,59,-16c0,0,16,-15,16,-58c0,0,0,-43,-16,-58c0,0,-17,-16,-61,-16Z" 
id="f0_9q"
transform="scale(0.001,-0.001)" />

<path d="M272,-13c0,0,-35,0,-68,6c0,0,-32,6,-58,13c0,0,-26,9,-44,18c0,0,-17,10,-26,17c0,0,-8,8,-12,21c0,0,-3,14,-3,37c0,0,0,14,1,24c0,0,2,9,4,15c0,0,2,6,6,9c0,0,4,3,10,3c0,0,8,0,24,-11c0,0,16,-10,39,-22c0,0,24,-12,56,-22c0,0,32,-10,74,-10c0,0,31,0,56,7c0,0,26,6,44,19c0,0,19,14,29,34c0,0,10,20,10,47c0,0,0,29,-14,48c0,0,-15,19,-39,34c0,0,-24,15,-53,27c0,0,-30,11,-62,24c0,0,-32,13,-62,29c0,0,-30,16,-54,39c0,0,-24,23,-38,55c0,0,-15,32,-15,77c0,0,0,40,16,76c0,0,15,36,45,63c0,0,31,28,77,44c0,0,46,17,107,17c0,0,27,0,54,-5c0,0,26,-5,48,-11c0,0,22,-7,37,-15c0,0,15,-8,23,-14c0,0,8,-6,11,-11c0,0,2,-4,3,-10c0,0,1,-5,2,-14c0,0,2,-8,2,-20c0,0,0,-12,-2,-22c0,0,-1,-9,-3,-15c0,0,-3,-6,-7,-8c0,0,-3,-3,-8,-3c0,0,-7,0,-19,8c0,0,-13,8,-33,18c0,0,-20,9,-47,17c0,0,-28,9,-63,9c0,0,-31,0,-55,-7c0,0,-24,-7,-39,-20c0,0,-15,-13,-23,-31c0,0,-8,-18,-8,-39c0,0,0,-29,15,-49c0,0,15,-20,39,-35c0,0,24,-15,54,-27c0,0,31,-11,62,-24c0,0,32,-13,63,-29c0,0,31,-15,55,-38c0,0,24,-22,38,-53c0,0,15,-32,15,-75c0,0,0,-51,-19,-92c0,0,-19,-40,-54,-68C463,42,428,15,379,1c0,0,-48,-14,-107,-14Z" 
id="f0_b5"
transform="scale(0.001,-0.001)" />

<path d="M367,-13c0,0,-73,0,-129,23c0,0,-56,24,-93,70c0,0,-38,46,-58,112c0,0,-20,67,-20,154c0,0,0,99,25,171c0,0,24,71,66,116c0,0,42,46,99,68c0,0,58,22,124,22c0,0,32,0,62,-6c0,0,31,-6,56,-16c0,0,25,-10,45,-22c0,0,20,-13,29,-22c0,0,9,-9,12,-14c0,0,3,-5,6,-13c0,0,2,-7,3,-16c0,0,0,-9,0,-22c0,0,0,-29,-6,-41c0,0,-7,-11,-17,-11c0,0,-11,0,-25,12c0,0,-15,12,-37,27c0,0,-23,15,-55,28c0,0,-31,12,-75,12c0,0,-88,0,-136,-68c0,0,-47,-68,-47,-198c0,0,0,-65,12,-114c0,0,12,-49,36,-81c0,0,24,-33,59,-49c0,0,35,-16,79,-16c0,0,43,0,75,13c0,0,32,14,56,30c0,0,23,16,39,29c0,0,16,13,25,13c0,0,5,0,9,-3c0,0,4,-3,7,-10c0,0,2,-7,3,-18c0,0,1,-11,1,-26c0,0,0,-12,0,-22c0,0,-1,-9,-3,-15c0,0,-2,-7,-4,-12c0,0,-3,-4,-12,-14c0,0,-10,-9,-32,-23c0,0,-22,-14,-50,-24C496,11,468,0,435,-6c0,0,-33,-7,-68,-7Z" 
id="f0_7l"
transform="scale(0.001,-0.001)" />

<path d="M401,90c0,0,54,0,93,19c0,0,40,20,65,55c0,0,26,35,37,84c0,0,12,48,12,106c0,0,0,55,-10,104c0,0,-10,48,-33,85c0,0,-23,36,-62,58c0,0,-40,21,-99,21c0,0,-54,0,-93,-20c0,0,-39,-19,-65,-54c0,0,-25,-36,-37,-85c0,0,-12,-48,-12,-106c0,0,0,-55,10,-103c0,0,10,-49,33,-85c0,0,24,-36,63,-58c0,0,39,-21,98,-21ZM395,-13c0,0,-82,0,-144,24c0,0,-61,25,-102,72c0,0,-41,47,-61,114c0,0,-21,67,-21,152c0,0,0,82,22,151c0,0,21,69,64,119c0,0,43,50,107,78c0,0,64,28,150,28c0,0,82,0,144,-25c0,0,61,-25,102,-72c0,0,41,-47,62,-114c0,0,20,-67,20,-151c0,0,0,-83,-21,-152c0,0,-22,-69,-65,-119C652,92,609,42,545,14c0,0,-65,-27,-150,-27Z" 
id="f0_am"
transform="scale(0.001,-0.001)" />

<path d="M176,-4c0,0,-18,0,-30,2c0,0,-12,1,-19,3c0,0,-7,3,-10,7c0,0,-3,4,-3,10V690c0,0,0,6,3,10c0,0,2,4,9,7c0,0,6,4,17,5c0,0,10,1,27,1c0,0,17,0,28,-1c0,0,10,-1,16,-5c0,0,6,-3,9,-7c0,0,3,-4,3,-10V601c0,0,56,64,112,94c0,0,57,30,114,30c0,0,67,0,113,-23c0,0,46,-23,74,-61c0,0,29,-38,41,-89c0,0,12,-52,12,-123V18c0,0,0,-6,-3,-10c0,0,-3,-4,-9,-7c0,0,-7,-2,-19,-3c0,0,-12,-2,-30,-2c0,0,-19,0,-30,2c0,0,-12,1,-19,3c0,0,-7,3,-10,7c0,0,-3,4,-3,10V412c0,0,0,58,-9,93c0,0,-9,35,-26,61c0,0,-17,25,-44,38c0,0,-27,14,-63,14c0,0,-46,0,-93,-33c0,0,-46,-33,-97,-96V18c0,0,0,-6,-3,-10c0,0,-2,-4,-9,-7c0,0,-7,-2,-19,-3c0,0,-12,-2,-30,-2Z" 
id="f0_af"
transform="scale(0.001,-0.001)" />

<path d="M366,92c0,0,25,0,48,7c0,0,22,6,46,22c0,0,24,16,50,41c0,0,26,24,56,61V492c0,0,-51,62,-97,94c0,0,-47,33,-98,33c0,0,-47,0,-79,-22c0,0,-33,-23,-54,-59c0,0,-20,-37,-30,-83c0,0,-9,-47,-9,-94c0,0,0,-51,8,-100c0,0,8,-48,27,-86c0,0,19,-38,52,-60c0,0,32,-23,80,-23ZM345,-13c0,0,-74,0,-127,28c0,0,-52,29,-84,78c0,0,-33,49,-48,115c0,0,-15,66,-15,139c0,0,0,86,19,156c0,0,19,70,55,119c0,0,37,50,91,76c0,0,54,27,125,27c0,0,59,0,108,-26c0,0,49,-26,97,-76v390c0,0,0,5,2,10c0,0,3,4,10,7c0,0,8,3,19,5c0,0,12,1,30,1c0,0,18,0,30,-1c0,0,12,-2,19,-5c0,0,7,-3,10,-7c0,0,3,-5,3,-10V18c0,0,0,-6,-2,-10c0,0,-3,-5,-9,-7c0,0,-7,-2,-17,-3c0,0,-10,-2,-25,-2c0,0,-16,0,-26,2c0,0,-11,1,-18,3c0,0,-6,2,-9,7c0,0,-3,4,-3,10v90c0,0,-53,-58,-110,-90c0,0,-58,-31,-125,-31Z" 
id="f0_7v"
transform="scale(0.001,-0.001)" />

<path d="M564,420c0,0,2,98,-43,153c0,0,-46,56,-134,56c0,0,-46,0,-80,-18c0,0,-35,-17,-58,-45c0,0,-23,-29,-36,-67c0,0,-12,-37,-14,-79ZM405,-13c0,0,-83,0,-145,22c0,0,-62,24,-105,69c0,0,-42,46,-64,114c0,0,-22,69,-22,160c0,0,0,87,23,156c0,0,22,69,64,117c0,0,43,48,102,74c0,0,60,26,134,26c0,0,79,0,135,-26c0,0,55,-25,91,-68c0,0,36,-43,53,-101c0,0,16,-58,16,-123V384c0,0,0,-29,-14,-41c0,0,-15,-13,-33,-13H199c0,0,0,-56,11,-100c0,0,12,-45,38,-77c0,0,26,-33,68,-50c0,0,41,-17,102,-17c0,0,48,0,85,8c0,0,37,8,65,17c0,0,27,10,44,18c0,0,18,8,27,8c0,0,5,0,9,-3c0,0,4,-2,7,-8c0,0,2,-5,3,-14c0,0,1,-9,1,-23c0,0,0,-9,-1,-16c0,0,0,-8,-2,-13c0,0,-1,-6,-3,-10c0,0,-3,-5,-7,-9c0,0,-4,-4,-24,-13c0,0,-20,-10,-53,-18c0,0,-32,-9,-74,-16c0,0,-42,-7,-90,-7Z" 
id="f0_7z"
transform="scale(0.001,-0.001)" />

<path d="M176,-4c0,0,-18,0,-30,2c0,0,-12,1,-19,3c0,0,-7,3,-10,7c0,0,-3,4,-3,10V690c0,0,0,6,3,10c0,0,2,4,9,7c0,0,6,4,17,5c0,0,10,1,27,1c0,0,17,0,28,-1c0,0,10,-1,16,-5c0,0,6,-3,9,-7c0,0,3,-4,3,-10V592c0,0,27,41,51,66c0,0,25,26,46,41c0,0,22,14,43,20c0,0,21,6,43,6c0,0,10,0,22,-2c0,0,12,-1,26,-4c0,0,13,-3,24,-6c0,0,11,-4,15,-8c0,0,5,-4,6,-7c0,0,2,-3,3,-9c0,0,1,-5,1,-15c0,0,0,-10,0,-27c0,0,0,-16,0,-28c0,0,-1,-11,-3,-17c0,0,-2,-6,-6,-10c0,0,-3,-3,-9,-3c0,0,-6,0,-15,3c0,0,-8,4,-19,7c0,0,-11,3,-24,6c0,0,-14,3,-29,3c0,0,-19,0,-37,-7c0,0,-18,-8,-37,-25c0,0,-20,-18,-42,-46c0,0,-21,-29,-48,-70V18c0,0,0,-6,-3,-10c0,0,-2,-4,-9,-7c0,0,-7,-2,-19,-3c0,0,-12,-2,-30,-2Z" 
id="f0_b1"
transform="scale(0.001,-0.001)" />

<path d="M351,-13c0,0,-67,0,-113,22c0,0,-46,22,-75,60c0,0,-28,39,-40,90c0,0,-13,51,-13,124V690c0,0,0,6,3,10c0,0,3,4,10,7c0,0,8,4,20,5c0,0,11,1,29,1c0,0,18,0,30,-1c0,0,12,-1,19,-5c0,0,7,-3,10,-7c0,0,3,-4,3,-10V299c0,0,0,-59,9,-94c0,0,8,-36,26,-61c0,0,18,-24,44,-38c0,0,27,-14,63,-14c0,0,46,0,92,33c0,0,46,32,98,95V690c0,0,0,6,2,10c0,0,3,4,10,7c0,0,8,4,19,5c0,0,12,1,30,1c0,0,18,0,30,-1c0,0,12,-1,19,-5c0,0,7,-3,10,-7c0,0,3,-4,3,-10V18c0,0,0,-6,-2,-10c0,0,-3,-4,-10,-7c0,0,-6,-2,-17,-3c0,0,-11,-2,-27,-2c0,0,-17,0,-28,2c0,0,-10,1,-17,3c0,0,-6,3,-8,7c0,0,-3,4,-3,10v89c0,0,-57,-63,-113,-92c0,0,-56,-28,-113,-28Z" 
id="f0_c6"
transform="scale(0.001,-0.001)" />

<path d="M324,-4c0,0,-23,0,-37,2c0,0,-15,1,-24,3c0,0,-9,3,-14,8c0,0,-4,6,-7,13L46,660c0,0,-4,11,-5,18c0,0,-2,8,-2,13c0,0,0,7,3,11c0,0,3,4,10,7c0,0,8,2,19,3c0,0,12,1,30,1c0,0,20,0,33,-1c0,0,13,-1,20,-4c0,0,6,-3,9,-8c0,0,3,-4,5,-11L330,136l2,-7l1,7L482,689c0,0,1,7,5,11c0,0,3,5,10,8c0,0,6,3,18,4c0,0,12,1,31,1c0,0,18,0,29,-1c0,0,12,-1,18,-4c0,0,7,-3,10,-7c0,0,3,-5,5,-11L768,136l1,-7l1,7L930,689c0,0,1,7,5,11c0,0,3,5,10,8c0,0,7,3,20,4c0,0,12,1,31,1c0,0,18,0,29,-1c0,0,11,-1,17,-4c0,0,6,-3,9,-6c0,0,3,-4,3,-11c0,0,0,-5,-2,-13c0,0,-1,-7,-5,-18L849,22c0,0,-2,-8,-7,-13c0,0,-5,-6,-13,-9c0,0,-9,-2,-24,-3c0,0,-15,-1,-37,-1c0,0,-23,0,-39,2c0,0,-15,1,-25,3c0,0,-9,3,-14,8c0,0,-4,6,-6,13L543,510l-2,6l-2,-6L409,22c0,0,-3,-8,-7,-13c0,0,-5,-6,-15,-9c0,0,-10,-2,-25,-3c0,0,-15,-1,-38,-1Z" 
id="f0_ci"
transform="scale(0.001,-0.001)" />

<path d="M176,-4c0,0,-18,0,-30,2c0,0,-12,1,-19,3c0,0,-7,3,-10,7c0,0,-3,4,-3,10v997c0,0,0,6,3,11c0,0,3,4,10,7c0,0,7,3,19,5c0,0,12,1,30,1c0,0,18,0,30,-1c0,0,12,-2,19,-5c0,0,7,-3,9,-7c0,0,3,-5,3,-10V614c0,0,53,56,107,83c0,0,54,28,108,28c0,0,67,0,113,-23c0,0,46,-23,74,-61c0,0,29,-38,41,-89c0,0,12,-52,12,-124V18c0,0,0,-6,-3,-10c0,0,-3,-4,-9,-7c0,0,-7,-2,-19,-3c0,0,-12,-2,-30,-2c0,0,-19,0,-30,2c0,0,-12,1,-19,3c0,0,-7,3,-10,7c0,0,-3,4,-3,10V412c0,0,0,58,-9,93c0,0,-9,35,-26,61c0,0,-17,25,-44,38c0,0,-27,14,-63,14c0,0,-46,0,-93,-33c0,0,-46,-33,-97,-96V18c0,0,0,-6,-3,-10c0,0,-2,-4,-9,-7c0,0,-7,-2,-19,-3c0,0,-12,-2,-30,-2Z" 
id="f0_9n"
transform="scale(0.001,-0.001)" />

<path d="M346,-177c0,0,56,0,94,11c0,0,37,11,60,28c0,0,24,18,34,41c0,0,10,23,10,49c0,0,0,43,-36,65c0,0,-35,23,-95,25L239,48c0,0,-24,-19,-39,-35c0,0,-15,-16,-24,-31c0,0,-9,-16,-12,-30c0,0,-4,-15,-4,-31c0,0,0,-48,49,-73c0,0,50,-25,137,-25Zm-6,512c0,0,36,0,63,12c0,0,27,12,44,32c0,0,18,21,26,48c0,0,9,27,9,56c0,0,0,69,-38,107c0,0,-37,39,-107,39c0,0,-35,0,-62,-12c0,0,-26,-12,-44,-33c0,0,-17,-21,-26,-48c0,0,-8,-28,-8,-58c0,0,0,-66,37,-104c0,0,38,-39,106,-39Zm0,-606c0,0,-81,0,-138,14c0,0,-57,14,-94,38c0,0,-36,24,-52,57c0,0,-17,33,-17,72c0,0,0,24,6,47c0,0,6,24,18,43c0,0,13,21,31,40c0,0,18,19,42,38c0,0,-36,19,-54,47c0,0,-17,28,-17,61c0,0,0,45,18,81c0,0,19,36,46,64c0,0,-23,28,-36,62c0,0,-14,35,-14,84c0,0,0,58,20,104c0,0,19,45,53,77c0,0,35,31,83,48c0,0,48,17,105,17c0,0,30,0,57,-4c0,0,26,-3,49,-9H649c0,0,13,0,19,-12c0,0,7,-13,7,-38c0,0,0,-26,-7,-37c0,0,-7,-12,-19,-12H553c0,0,26,-27,37,-60c0,0,10,-32,10,-68c0,0,0,-58,-18,-103c0,0,-19,-45,-54,-76c0,0,-34,-31,-82,-47c0,0,-48,-16,-106,-16c0,0,-41,0,-78,10c0,0,-37,11,-57,28c0,0,-14,-14,-22,-31c0,0,-9,-17,-9,-39c0,0,0,-27,24,-44c0,0,25,-17,65,-18l175,-8c0,0,50,-1,92,-14c0,0,41,-12,72,-35c0,0,31,-22,48,-55c0,0,17,-34,17,-76c0,0,0,-47,-20,-88c0,0,-19,-42,-59,-74c0,0,-40,-31,-102,-50c0,0,-61,-18,-146,-18Z" 
id="f0_9d"
transform="scale(0.001,-0.001)" />

<path d="M346,-4c0,0,-23,0,-38,2c0,0,-15,1,-24,3c0,0,-9,3,-15,8c0,0,-5,6,-8,13L33,660c0,0,-3,9,-5,15c0,0,-2,7,-2,11c0,0,0,3,0,5c0,0,0,6,3,11c0,0,3,4,10,7c0,0,7,2,18,3c0,0,12,1,29,1c0,0,22,0,35,-1c0,0,13,-1,20,-4c0,0,7,-3,10,-8c0,0,4,-4,7,-11L347,135l3,-9l2,9L540,689c0,0,1,7,5,11c0,0,3,5,11,8c0,0,7,3,19,4c0,0,12,1,32,1c0,0,18,0,29,-1c0,0,11,-1,17,-4c0,0,7,-3,9,-7c0,0,3,-4,3,-10c0,0,0,-3,-1,-6c0,0,0,-4,-1,-7c0,0,0,-4,-2,-8c0,0,-1,-5,-2,-10L430,22c0,0,-3,-8,-8,-13c0,0,-5,-6,-15,-9c0,0,-9,-2,-24,-3c0,0,-15,-1,-37,-1Z" 
id="f0_ch"
transform="scale(0.001,-0.001)" />

<path d="M321,82c0,0,48,0,90,25c0,0,41,24,87,75V325H392c0,0,-50,0,-88,-9c0,0,-37,-9,-62,-25c0,0,-24,-17,-36,-41c0,0,-11,-23,-11,-54c0,0,0,-52,33,-83c0,0,33,-31,93,-31ZM301,-13c0,0,-53,0,-96,13c0,0,-43,14,-73,40c0,0,-30,26,-47,64c0,0,-17,38,-17,87c0,0,0,56,24,98c0,0,23,42,66,69c0,0,43,28,106,42c0,0,63,14,141,14h93v52c0,0,0,39,-9,69c0,0,-8,30,-26,50c0,0,-18,20,-47,30c0,0,-30,10,-72,10c0,0,-46,0,-82,-11c0,0,-36,-11,-63,-24c0,0,-27,-13,-46,-24c0,0,-18,-11,-27,-11c0,0,-6,0,-10,3c0,0,-5,3,-8,9c0,0,-3,6,-5,16c0,0,-1,9,-1,20c0,0,0,19,2,30c0,0,3,11,13,20c0,0,10,10,35,23c0,0,24,13,56,24c0,0,32,10,70,17c0,0,38,8,77,8c0,0,73,0,123,-17c0,0,51,-16,82,-48c0,0,32,-32,46,-79c0,0,14,-47,14,-110V18c0,0,0,-9,-6,-14c0,0,-6,-4,-16,-6c0,0,-11,-2,-31,-2c0,0,-19,0,-31,2c0,0,-12,2,-17,6c0,0,-5,5,-5,13V85c0,0,-44,-47,-98,-73c0,0,-54,-25,-115,-25Z" 
id="f0_77"
transform="scale(0.001,-0.001)" />

<path d="M176,-4c0,0,-18,0,-30,2c0,0,-12,1,-19,3c0,0,-7,3,-10,7c0,0,-3,4,-3,10v997c0,0,0,6,3,11c0,0,3,4,10,7c0,0,7,3,19,5c0,0,12,1,30,1c0,0,18,0,30,-1c0,0,12,-2,19,-5c0,0,7,-3,9,-7c0,0,3,-5,3,-11V18c0,0,0,-6,-3,-10c0,0,-2,-4,-9,-7c0,0,-7,-2,-19,-3c0,0,-12,-2,-30,-2Z" 
id="f0_a8"
transform="scale(0.001,-0.001)" />

<path d="M252,-271c0,0,-19,0,-31,2c0,0,-12,2,-18,6c0,0,-7,5,-8,12c0,0,0,8,4,18L292,0c0,0,-7,3,-13,10c0,0,-6,6,-8,14L31,665c0,0,-6,16,-6,25c0,0,0,9,6,14c0,0,6,5,20,7c0,0,13,2,36,2c0,0,22,0,35,-1c0,0,12,-1,20,-4c0,0,7,-3,11,-9c0,0,3,-6,7,-15L351,145h3L539,687c0,0,4,14,10,18c0,0,7,4,19,6c0,0,13,2,37,2c0,0,21,0,34,-2c0,0,14,-2,20,-7c0,0,6,-5,6,-14c0,0,0,-9,-4,-23L420,0L330,-246c0,0,-4,-12,-22,-18c0,0,-19,-7,-56,-7Z" 
id="f0_co"
transform="scale(0.001,-0.001)" />

<path d="M209,-4c0,0,-18,0,-30,2c0,0,-12,1,-19,3c0,0,-7,3,-10,7c0,0,-3,4,-3,10V607H52c0,0,-12,0,-18,12c0,0,-6,12,-6,39c0,0,0,14,2,24c0,0,1,10,4,16c0,0,3,7,8,9c0,0,4,3,10,3h95v69c0,0,0,71,13,121c0,0,13,50,40,82c0,0,27,33,67,48c0,0,41,15,96,15c0,0,26,0,51,-5c0,0,25,-4,38,-10c0,0,13,-6,18,-10c0,0,4,-5,7,-12c0,0,3,-7,5,-17c0,0,1,-10,1,-24c0,0,0,-15,-2,-23c0,0,-1,-9,-3,-14c0,0,-2,-5,-5,-7c0,0,-3,-2,-8,-2c0,0,-5,0,-13,3c0,0,-7,4,-19,8c0,0,-11,4,-26,7c0,0,-15,4,-36,4c0,0,-27,0,-47,-9c0,0,-19,-9,-31,-28c0,0,-12,-19,-17,-50c0,0,-5,-30,-5,-73V710H421c0,0,6,0,10,-3c0,0,4,-2,7,-9c0,0,4,-6,6,-16c0,0,2,-10,2,-24c0,0,0,-27,-7,-39c0,0,-7,-12,-18,-12H271V18c0,0,0,-6,-3,-10c0,0,-3,-4,-11,-7c0,0,-7,-2,-19,-3c0,0,-12,-2,-29,-2Z" 
id="f0_89"
transform="scale(0.001,-0.001)" />

<path d="M176,0c0,0,-17,0,-33,12c0,0,-15,11,-15,40V913c0,0,0,29,15,41c0,0,16,11,33,11H635c0,0,6,0,10,-3c0,0,5,-3,8,-10c0,0,3,-6,5,-16c0,0,2,-10,2,-25c0,0,0,-14,-2,-24c0,0,-2,-10,-5,-16c0,0,-3,-7,-8,-10c0,0,-4,-2,-10,-2H256V555H581c0,0,6,0,11,-3c0,0,5,-3,8,-9c0,0,3,-6,5,-17c0,0,1,-10,1,-24c0,0,0,-14,-1,-23c0,0,-2,-10,-5,-16c0,0,-3,-6,-8,-9c0,0,-5,-2,-11,-2H256V107H640c0,0,6,0,11,-3c0,0,4,-3,8,-10c0,0,4,-6,5,-16c0,0,2,-10,2,-25c0,0,0,-14,-2,-24c0,0,-1,-10,-5,-16c0,0,-4,-7,-8,-10c0,0,-5,-3,-11,-3Z" 
id="f0_t"
transform="scale(0.001,-0.001)" />

<path d="M69,-215c0,0,-12,0,-21,1c0,0,-8,1,-12,4c0,0,-4,2,-4,7c0,0,-1,4,2,10L134,11v96c0,0,0,20,4,32c0,0,4,12,13,18c0,0,9,6,22,8c0,0,13,2,33,2c0,0,19,0,32,-2c0,0,13,-2,22,-8c0,0,9,-6,13,-18c0,0,4,-12,4,-32c0,0,0,-23,-2,-43c0,0,-3,-19,-8,-36c0,0,-5,-17,-14,-33c0,0,-8,-17,-21,-36L130,-194c0,0,-4,-5,-9,-9c0,0,-5,-4,-12,-7c0,0,-7,-3,-16,-4c0,0,-9,-1,-24,-1Z" 
id="f0_nq"
transform="scale(0.001,-0.001)" />

<path d="M424,-15c0,0,-82,0,-147,21c0,0,-65,22,-111,66c0,0,-45,44,-70,110c0,0,-25,66,-25,155c0,0,0,69,15,144c0,0,14,75,42,147c0,0,29,72,73,136c0,0,44,64,104,112c0,0,60,48,137,76c0,0,76,29,170,29c0,0,52,0,98,-11c0,0,47,-11,81,-29c0,0,35,-18,49,-32c0,0,14,-15,14,-37c0,0,0,-21,-7,-56c0,0,-7,-35,-18,-57c0,0,-11,-21,-24,-21c0,0,-10,0,-23,12c0,0,-14,13,-35,27c0,0,-22,14,-56,26c0,0,-33,12,-83,12c0,0,-55,0,-101,-22c0,0,-46,-22,-81,-58c0,0,-36,-36,-63,-83c0,0,-27,-47,-45,-97c0,0,-17,-51,-26,-101c0,0,-8,-51,-8,-94c0,0,0,-52,13,-92c0,0,13,-39,37,-65c0,0,25,-26,61,-39c0,0,36,-13,81,-13c0,0,53,0,91,11c0,0,37,11,64,24c0,0,26,14,44,25c0,0,17,11,31,11c0,0,10,0,13,-7c0,0,4,-7,4,-20c0,0,0,-5,-2,-16c0,0,-1,-10,-4,-23c0,0,-2,-13,-5,-28c0,0,-3,-16,-7,-29c0,0,-3,-13,-8,-23c0,0,-5,-11,-13,-19c0,0,-8,-9,-32,-22c0,0,-24,-13,-58,-24C594,11,559,0,516,-7c0,0,-43,-8,-92,-8Z" 
id="f2_j"
transform="scale(0.001,-0.001)" />

<path d="M359,131c0,0,37,0,67,15c0,0,30,14,53,39c0,0,24,25,41,58c0,0,17,32,28,68c0,0,12,37,17,73c0,0,5,37,5,70c0,0,0,32,-6,56c0,0,-7,24,-21,41c0,0,-15,17,-38,26c0,0,-22,9,-55,9c0,0,-37,0,-67,-15c0,0,-30,-14,-54,-39c0,0,-23,-25,-40,-57c0,0,-18,-33,-29,-68c0,0,-11,-36,-16,-73c0,0,-5,-37,-5,-71c0,0,0,-31,6,-56c0,0,6,-24,21,-41c0,0,14,-17,37,-26c0,0,23,-9,56,-9ZM339,-17c0,0,-76,0,-130,17c0,0,-55,17,-92,51c0,0,-36,34,-54,84c0,0,-18,50,-18,114c0,0,0,54,10,110c0,0,10,57,32,111c0,0,21,54,55,102c0,0,34,48,82,84c0,0,47,36,108,56c0,0,61,21,138,21c0,0,75,0,130,-17c0,0,55,-18,91,-52c0,0,37,-34,55,-83c0,0,18,-50,18,-114c0,0,0,-54,-10,-111c0,0,-10,-56,-32,-110c0,0,-22,-55,-56,-102c0,0,-34,-47,-81,-84C585,60,538,24,477,3c0,0,-62,-20,-138,-20Z" 
id="f2_am"
transform="scale(0.001,-0.001)" />

<path d="M118,-4c0,0,-29,0,-46,2C72,-2,54,0,44,3c0,0,-9,3,-13,9c0,0,-3,5,-2,13l197,981c0,0,1,8,7,14c0,0,5,6,17,10c0,0,12,4,30,6c0,0,18,2,46,2c0,0,28,0,45,-2c0,0,18,-2,27,-6c0,0,10,-4,13,-10c0,0,3,-6,1,-14L217,25c0,0,-2,-8,-8,-13c0,0,-5,-6,-16,-9c0,0,-11,-3,-30,-5c0,0,-18,-2,-45,-2Z" 
id="f2_a8"
transform="scale(0.001,-0.001)" />

<path d="M298,-16c0,0,-127,0,-191,64c0,0,-63,65,-63,191c0,0,0,45,9,100c0,0,8,54,28,109c0,0,19,55,50,107c0,0,31,51,76,91c0,0,44,40,103,63c0,0,59,24,136,24c0,0,30,0,58,-4c0,0,29,-5,53,-12c0,0,24,-8,42,-19c0,0,18,-10,27,-19c0,0,9,-8,12,-15c0,0,2,-7,2,-16c0,0,0,-18,-4,-39c0,0,-4,-22,-11,-41c0,0,-6,-20,-16,-33c0,0,-11,-13,-23,-13c0,0,-11,0,-21,9c0,0,-11,9,-26,20c0,0,-15,11,-38,21c0,0,-23,9,-60,9c0,0,-39,0,-70,-17c0,0,-30,-18,-53,-45c0,0,-23,-27,-38,-62c0,0,-15,-35,-24,-70c0,0,-10,-36,-14,-68c0,0,-4,-33,-4,-57c0,0,0,-60,26,-92c0,0,27,-31,84,-31c0,0,41,0,71,11c0,0,30,10,51,23c0,0,21,13,37,24c0,0,15,10,28,10c0,0,7,0,11,-6c0,0,4,-7,4,-20c0,0,0,-13,-4,-32c0,0,-3,-19,-8,-38c0,0,-5,-20,-11,-36c0,0,-7,-17,-17,-27c0,0,-10,-9,-31,-22C479,26,457,14,429,5c0,0,-29,-9,-62,-15c0,0,-33,-6,-69,-6Z" 
id="f2_7l"
transform="scale(0.001,-0.001)" />

<path d="M317,142c0,0,33,0,67,20c0,0,34,19,64,53c0,0,30,34,53,79c0,0,22,45,33,97l21,100c0,0,-26,42,-58,62c0,0,-31,21,-73,21c0,0,-32,0,-58,-15c0,0,-26,-15,-46,-40c0,0,-20,-25,-35,-58c0,0,-16,-33,-26,-68c0,0,-10,-35,-15,-72c0,0,-4,-36,-4,-67c0,0,0,-22,3,-42c0,0,3,-20,12,-36c0,0,9,-16,24,-25c0,0,15,-9,38,-9ZM253,-17c0,0,-60,0,-100,20c0,0,-39,21,-63,57c0,0,-24,35,-34,81c0,0,-10,45,-10,95c0,0,0,47,9,103c0,0,9,55,28,111c0,0,18,55,47,106c0,0,29,51,70,91c0,0,41,39,93,63c0,0,53,23,120,23c0,0,62,0,109,-25c0,0,48,-26,84,-75l12,59c0,0,3,15,23,22c0,0,21,7,66,7c0,0,23,0,38,-2c0,0,15,-2,23,-5c0,0,9,-4,12,-9c0,0,3,-6,1,-13L647,24C647,24,644,9,624,2c0,0,-21,-6,-66,-6c0,0,-23,0,-38,2c0,0,-14,1,-23,3c0,0,-9,4,-12,9c0,0,-2,6,-1,14l21,107c0,0,-11,-24,-36,-50c0,0,-24,-27,-58,-49c0,0,-34,-21,-74,-34c0,0,-41,-15,-84,-15Z" 
id="f2_77"
transform="scale(0.001,-0.001)" />

<path d="M210,-17c0,0,-36,0,-69,6c0,0,-32,5,-58,12C83,1,57,8,40,18C40,18,22,28,13,36c0,0,-6,6,-9,13C4,49,2,56,2,66c0,0,0,7,1,17c0,0,1,11,4,23c0,0,2,13,6,26c0,0,3,12,7,23c0,0,5,10,10,17c0,0,5,6,11,6c0,0,11,0,23,-9c0,0,13,-9,33,-20c0,0,20,-11,50,-20c0,0,29,-10,73,-10c0,0,31,0,54,7c0,0,23,7,39,20c0,0,15,13,22,29c0,0,7,16,7,35c0,0,0,26,-18,43c0,0,-19,16,-46,30c0,0,-28,14,-61,29c0,0,-33,15,-60,37c0,0,-28,22,-47,54c0,0,-18,32,-18,80c0,0,0,53,20,99c0,0,20,45,59,79c0,0,39,34,94,53c0,0,55,19,125,19c0,0,31,0,61,-4c0,0,29,-4,53,-11c0,0,23,-7,41,-15c0,0,17,-8,25,-17c0,0,9,-7,9,-25c0,0,0,-9,-3,-26c0,0,-2,-18,-8,-36c0,0,-5,-18,-12,-31c0,0,-8,-13,-17,-13c0,0,-9,0,-22,8c0,0,-14,7,-32,15c0,0,-19,9,-44,16c0,0,-25,6,-58,6c0,0,-27,0,-47,-6c0,0,-21,-7,-34,-19c0,0,-14,-11,-21,-27c0,0,-7,-15,-7,-33c0,0,0,-24,19,-39c0,0,19,-16,48,-30c0,0,28,-14,61,-28c0,0,33,-15,62,-38c0,0,28,-22,47,-54c0,0,19,-32,19,-81c0,0,0,-57,-22,-105c0,0,-21,-48,-63,-83C445,57,403,22,344,2c0,0,-60,-19,-134,-19Z" 
id="f2_b5"
transform="scale(0.001,-0.001)" />

<path d="M117,-4c0,0,-28,0,-45,2C72,-2,54,0,44,3C44,3,34,6,31,12c0,0,-3,5,-2,13L162,689c0,0,2,8,7,13c0,0,6,6,17,10c0,0,12,4,30,6c0,0,18,3,46,3c0,0,28,0,45,-3c0,0,18,-2,28,-6c0,0,10,-4,13,-10c0,0,3,-5,2,-13L217,25c0,0,-2,-8,-8,-13c0,0,-5,-6,-17,-9c0,0,-11,-3,-30,-5c0,0,-18,-2,-45,-2ZM281,816c0,0,-31,0,-51,5c0,0,-19,5,-29,17c0,0,-10,11,-12,30c0,0,-1,19,5,47c0,0,5,26,14,45c0,0,9,19,24,31c0,0,14,12,36,17c0,0,22,5,54,5c0,0,31,0,50,-5c0,0,20,-5,30,-17c0,0,10,-12,11,-31c0,0,1,-19,-4,-45c0,0,-5,-28,-14,-47c0,0,-9,-19,-24,-30c0,0,-15,-12,-36,-17c0,0,-22,-5,-54,-5Z" 
id="f2_9q"
transform="scale(0.001,-0.001)" />

<path d="M469,327V857h-2L153,327ZM530,-4c0,0,-18,0,-30,2c0,0,-12,1,-19,3c0,0,-7,3,-9,7c0,0,-3,4,-3,10V221H71c0,0,-9,0,-15,2c0,0,-6,2,-11,8c0,0,-5,6,-7,17c0,0,-2,12,-2,30c0,0,0,14,1,25c0,0,1,11,3,20c0,0,2,10,6,18c0,0,4,9,9,18L403,947c0,0,3,6,10,10c0,0,7,5,19,8c0,0,11,3,27,4c0,0,17,1,39,1c0,0,25,0,43,-2c0,0,18,-2,29,-5c0,0,12,-3,18,-8c0,0,6,-4,6,-11V327H702c0,0,13,0,21,-13c0,0,8,-13,8,-40c0,0,0,-25,-8,-39c0,0,-7,-14,-21,-14H594V18c0,0,0,-6,-3,-10c0,0,-3,-4,-11,-7c0,0,-7,-2,-19,-3c0,0,-12,-2,-31,-2Z" 
id="f0_s1"
transform="scale(0.001,-0.001)" />

<path d="M440,150c0,0,41,0,68,8c0,0,28,9,49,26c0,0,20,16,32,41c0,0,11,25,11,58c0,0,0,33,-11,60c0,0,-11,26,-33,44c0,0,-21,18,-55,28c0,0,-33,9,-87,9H298V150ZM407,567c0,0,42,0,68,10c0,0,25,10,42,28c0,0,16,17,24,41c0,0,9,24,9,50c0,0,0,29,-9,52c0,0,-9,23,-27,39c0,0,-18,15,-45,23c0,0,-27,8,-72,8H298V567ZM164,0c0,0,-25,0,-42,15c0,0,-16,14,-16,47V903c0,0,0,33,16,48c0,0,17,14,42,14H406c0,0,88,0,150,-15c0,0,61,-15,103,-45c0,0,42,-30,65,-77c0,0,22,-46,22,-108c0,0,0,-36,-9,-67c0,0,-9,-31,-26,-56c0,0,-17,-25,-42,-45c0,0,-25,-19,-57,-31c0,0,41,-7,76,-26c0,0,34,-19,60,-48c0,0,26,-30,41,-69c0,0,15,-40,15,-89c0,0,0,-51,-14,-93c0,0,-15,-42,-40,-74c0,0,-25,-32,-59,-55c0,0,-35,-23,-77,-38C614,29,573,14,525,7C525,7,478,0,420,0Z" 
id="f1_i"
transform="scale(0.001,-0.001)" />

<path d="M334,-17c0,0,-69,0,-115,22c0,0,-47,22,-76,61c0,0,-28,39,-41,90c0,0,-12,51,-12,127V691c0,0,0,7,4,13c0,0,4,5,15,9c0,0,11,4,29,6c0,0,19,2,45,2c0,0,28,0,46,-2c0,0,18,-2,29,-6c0,0,11,-4,15,-9c0,0,5,-6,5,-13V314c0,0,0,-52,6,-79c0,0,7,-28,21,-48c0,0,14,-20,35,-30c0,0,21,-11,49,-11c0,0,36,0,72,26c0,0,36,26,77,76V691c0,0,0,7,4,13c0,0,4,5,15,9c0,0,11,4,29,6c0,0,18,2,45,2c0,0,28,0,46,-2c0,0,18,-2,28,-6c0,0,11,-4,15,-9c0,0,5,-6,5,-13V25c0,0,0,-8,-4,-13c0,0,-4,-6,-13,-9c0,0,-10,-3,-25,-5c0,0,-15,-2,-38,-2c0,0,-25,0,-40,2c0,0,-16,2,-25,5c0,0,-9,3,-12,9c0,0,-4,5,-4,13v77c0,0,-55,-60,-112,-90c0,0,-57,-29,-118,-29Z" 
id="f1_c6"
transform="scale(0.001,-0.001)" />

<path d="M188,-4c0,0,-28,0,-46,2c0,0,-18,2,-28,5c0,0,-11,3,-16,9c0,0,-4,5,-4,13v981c0,0,0,8,4,14c0,0,5,6,16,10c0,0,10,4,28,6c0,0,18,2,46,2c0,0,27,0,45,-2c0,0,18,-2,29,-6c0,0,11,-4,15,-10c0,0,5,-6,5,-14V25c0,0,0,-8,-5,-13c0,0,-4,-6,-15,-9c0,0,-11,-3,-29,-5c0,0,-18,-2,-45,-2Z" 
id="f1_a8"
transform="scale(0.001,-0.001)" />

<path d="M433,142c0,0,37,0,62,18c0,0,26,19,42,49c0,0,17,30,25,68c0,0,7,38,7,76c0,0,0,43,-6,82c0,0,-7,40,-22,71c0,0,-16,30,-41,49c0,0,-25,18,-63,18c0,0,-19,0,-37,-5c0,0,-18,-5,-37,-18c0,0,-19,-13,-39,-33c0,0,-20,-20,-42,-50V246c0,0,39,-51,75,-78c0,0,37,-26,76,-26ZM477,-17c0,0,-33,0,-63,7c0,0,-29,6,-55,19c0,0,-27,14,-52,36c0,0,-26,22,-53,52V25c0,0,0,-8,-4,-14c0,0,-4,-5,-13,-9c0,0,-10,-3,-25,-4c0,0,-16,-2,-38,-2c0,0,-24,0,-39,2c0,0,-15,1,-24,4c0,0,-10,4,-13,9c0,0,-4,6,-4,14v981c0,0,0,8,4,14c0,0,5,6,16,10c0,0,10,4,28,6c0,0,18,2,46,2c0,0,27,0,45,-2c0,0,18,-2,29,-6c0,0,11,-4,15,-10c0,0,5,-6,5,-14V639c0,0,25,25,50,43c0,0,26,18,51,29c0,0,25,12,52,17c0,0,27,5,57,5c0,0,74,0,125,-29c0,0,52,-30,84,-80c0,0,33,-50,48,-116c0,0,15,-67,15,-141c0,0,0,-89,-20,-160c0,0,-19,-71,-56,-121C688,86,652,36,598,9c0,0,-53,-26,-121,-26Z" 
id="f1_7k"
transform="scale(0.001,-0.001)" />

<path d="M372,-4c0,0,-18,0,-30,2c0,0,-13,2,-21,3c0,0,-7,3,-10,8c0,0,-3,4,-3,10V857H36c0,0,-6,0,-11,3c0,0,-5,2,-8,9c0,0,-2,6,-4,17c0,0,-2,10,-2,24c0,0,0,14,2,25c0,0,2,11,4,17c0,0,3,7,8,10c0,0,5,3,11,3H708c0,0,6,0,11,-3c0,0,5,-3,8,-10c0,0,4,-6,5,-17c0,0,2,-11,2,-25c0,0,0,-14,-2,-24c0,0,-1,-11,-5,-17c0,0,-3,-7,-8,-9c0,0,-5,-3,-11,-3H436V19c0,0,0,-6,-3,-10c0,0,-3,-5,-10,-8c0,0,-8,-1,-20,-3c0,0,-12,-2,-31,-2Z" 
id="f0_2t"
transform="scale(0.001,-0.001)" />

<path d="M176,-4c0,0,-18,0,-30,2c0,0,-12,1,-19,3c0,0,-7,3,-10,7c0,0,-3,4,-3,10V690c0,0,0,6,3,10c0,0,2,4,9,7c0,0,6,4,17,5c0,0,10,1,27,1c0,0,17,0,28,-1c0,0,10,-1,16,-5c0,0,6,-3,9,-7c0,0,3,-4,3,-10V601c0,0,56,64,110,94c0,0,53,30,108,30c0,0,42,0,75,-10c0,0,33,-10,58,-28c0,0,26,-17,44,-42c0,0,18,-24,30,-55c0,0,33,37,63,63c0,0,31,26,59,41c0,0,28,16,54,23c0,0,27,8,53,8c0,0,65,0,109,-23c0,0,44,-23,71,-61c0,0,28,-38,39,-89c0,0,12,-52,12,-108V18c0,0,0,-6,-3,-10c0,0,-3,-4,-10,-7c0,0,-7,-2,-19,-3c0,0,-12,-2,-29,-2c0,0,-19,0,-31,2c0,0,-12,1,-19,3c0,0,-7,3,-10,7c0,0,-3,4,-3,10V427c0,0,0,43,-8,78c0,0,-7,35,-23,61c0,0,-17,25,-42,38c0,0,-25,14,-60,14c0,0,-42,0,-85,-33c0,0,-43,-33,-94,-96V18c0,0,0,-6,-3,-10c0,0,-3,-4,-11,-7c0,0,-7,-2,-19,-3c0,0,-11,-2,-29,-2c0,0,-18,0,-30,2c0,0,-12,1,-19,3c0,0,-7,3,-10,7c0,0,-3,4,-3,10V427c0,0,0,43,-8,78c0,0,-8,35,-24,61c0,0,-17,25,-42,38c0,0,-25,14,-59,14c0,0,-43,0,-86,-33c0,0,-44,-33,-95,-96V18c0,0,0,-6,-3,-10c0,0,-2,-4,-9,-7c0,0,-7,-2,-19,-3c0,0,-12,-2,-30,-2Z" 
id="f0_ae"
transform="scale(0.001,-0.001)" />

<path d="M176,-4c0,0,-18,0,-30,2c0,0,-12,1,-19,3c0,0,-7,3,-10,7c0,0,-3,4,-3,10v997c0,0,0,6,3,11c0,0,3,4,10,7c0,0,7,3,19,5c0,0,12,1,30,1c0,0,18,0,30,-1c0,0,12,-2,19,-5c0,0,7,-3,9,-7c0,0,3,-5,3,-11V408L492,687c0,0,6,7,12,12c0,0,7,5,16,8c0,0,10,4,22,5c0,0,13,1,31,1c0,0,19,0,31,-1c0,0,13,-1,21,-4c0,0,8,-3,11,-7c0,0,3,-4,3,-11c0,0,0,-9,-4,-18c0,0,-5,-8,-16,-20L375,408L648,54c0,0,10,-13,14,-20c0,0,4,-8,4,-15c0,0,0,-6,-3,-10c0,0,-3,-5,-10,-8c0,0,-7,-2,-20,-3c0,0,-13,-2,-32,-2c0,0,-20,0,-33,1c0,0,-13,1,-22,3c0,0,-9,3,-15,7c0,0,-5,5,-10,12L237,391V18c0,0,0,-6,-3,-10c0,0,-2,-4,-9,-7c0,0,-7,-2,-19,-3c0,0,-12,-2,-30,-2Z" 
id="f0_a5"
transform="scale(0.001,-0.001)" />

<path d="M431,92c0,0,46,0,79,22c0,0,33,23,53,60c0,0,21,37,30,83c0,0,10,46,10,93c0,0,0,51,-8,100c0,0,-8,49,-28,86c0,0,-19,37,-51,60c0,0,-32,23,-80,23c0,0,-24,0,-47,-7c0,0,-23,-7,-47,-22c0,0,-24,-16,-50,-41c0,0,-25,-24,-55,-62V219c0,0,51,-62,98,-95c0,0,46,-32,96,-32ZM443,-13c0,0,-32,0,-59,7c0,0,-27,6,-53,19c0,0,-26,14,-52,36c0,0,-27,22,-56,52V18c0,0,0,-6,-3,-10c0,0,-3,-5,-9,-7c0,0,-7,-2,-17,-3c0,0,-10,-2,-26,-2c0,0,-15,0,-25,2c0,0,-11,1,-17,3c0,0,-7,2,-9,7c0,0,-3,4,-3,10v997c0,0,0,6,3,11c0,0,3,4,10,7c0,0,7,3,19,5c0,0,12,1,30,1c0,0,18,0,30,-1c0,0,12,-2,19,-5c0,0,7,-3,9,-7c0,0,3,-5,3,-10V614c0,0,30,31,58,52c0,0,28,20,55,34c0,0,27,13,54,19c0,0,27,6,57,6c0,0,73,0,125,-30c0,0,52,-29,84,-78c0,0,32,-48,47,-114c0,0,15,-66,15,-139c0,0,0,-87,-19,-157c0,0,-19,-70,-56,-119c0,0,-37,-49,-90,-76c0,0,-54,-25,-124,-25Z" 
id="f0_7k"
transform="scale(0.001,-0.001)" />

<path d="M189,-4c0,0,-18,0,-30,2c0,0,-12,2,-19,3c0,0,-7,3,-9,8c0,0,-3,4,-3,10V907c0,0,0,31,16,45c0,0,17,13,37,13h78c0,0,24,0,41,-4c0,0,18,-5,32,-15c0,0,13,-9,22,-24c0,0,9,-15,16,-35L649,188h4L944,884c0,0,8,23,18,39c0,0,9,15,21,25c0,0,11,9,26,13c0,0,14,4,32,4h82c0,0,11,0,21,-3c0,0,10,-4,17,-11c0,0,7,-7,12,-18c0,0,4,-10,4,-26V19c0,0,0,-6,-3,-10c0,0,-3,-5,-10,-8c0,0,-8,-1,-19,-3c0,0,-12,-2,-30,-2c0,0,-18,0,-30,2c0,0,-12,2,-19,3c0,0,-7,3,-10,8c0,0,-3,4,-3,10V860h-2L707,15c0,0,-2,-5,-6,-9c0,0,-4,-3,-12,-6c0,0,-8,-2,-18,-3c0,0,-11,-1,-26,-1c0,0,-16,0,-27,2c0,0,-11,1,-19,3c0,0,-7,2,-11,6c0,0,-4,4,-6,8L253,860V19c0,0,0,-6,-3,-10c0,0,-3,-5,-11,-8c0,0,-7,-1,-19,-3c0,0,-12,-2,-31,-2Z" 
id="f0_1x"
transform="scale(0.001,-0.001)" />

<path d="M514,145c0,0,72,0,121,27c0,0,48,26,78,73c0,0,30,46,42,107c0,0,13,62,13,131c0,0,0,76,-12,139c0,0,-12,62,-41,106c0,0,-29,45,-76,69c0,0,-48,24,-120,24c0,0,-72,0,-120,-27c0,0,-49,-27,-79,-73c0,0,-29,-45,-42,-106c0,0,-12,-61,-12,-129c0,0,0,-79,12,-142c0,0,12,-63,40,-108c0,0,28,-44,76,-68c0,0,48,-23,120,-23ZM508,-17c0,0,-113,0,-196,29c0,0,-84,29,-140,90c0,0,-56,60,-84,154c0,0,-28,93,-28,221c0,0,0,117,29,210c0,0,30,94,89,160c0,0,59,65,146,101c0,0,87,35,202,35c0,0,110,0,194,-29c0,0,84,-30,140,-90c0,0,56,-60,85,-153c0,0,29,-92,29,-217c0,0,0,-120,-30,-215c0,0,-30,-95,-89,-161C855,118,796,52,709,17c0,0,-87,-34,-201,-34Z" 
id="f1_24"
transform="scale(0.001,-0.001)" />

<path d="M188,-4c0,0,-28,0,-46,2c0,0,-18,2,-28,5c0,0,-11,3,-16,9c0,0,-4,5,-4,13V691c0,0,0,7,4,13c0,0,3,5,13,9c0,0,10,4,25,6c0,0,15,2,38,2c0,0,24,0,40,-2c0,0,15,-2,24,-6c0,0,9,-4,12,-9c0,0,4,-6,4,-13V614c0,0,55,60,112,89c0,0,57,30,119,30c0,0,68,0,115,-22c0,0,47,-22,75,-61c0,0,29,-38,42,-90c0,0,12,-51,12,-124V25c0,0,0,-8,-4,-13c0,0,-5,-6,-15,-9c0,0,-10,-3,-29,-5c0,0,-18,-2,-45,-2c0,0,-28,0,-46,2c0,0,-18,2,-29,5c0,0,-10,3,-15,9c0,0,-4,6,-4,13V405c0,0,0,49,-7,76c0,0,-7,28,-21,48c0,0,-13,19,-35,30c0,0,-21,11,-49,11c0,0,-36,0,-72,-26c0,0,-37,-26,-76,-76V25c0,0,0,-7,-5,-13c0,0,-4,-6,-15,-9c0,0,-11,-3,-29,-5c0,0,-18,-2,-45,-2Z" 
id="f1_af"
transform="scale(0.001,-0.001)" />

<path d="M188,-4c0,0,-28,0,-46,2c0,0,-18,2,-28,5c0,0,-11,3,-16,9c0,0,-4,5,-4,13V689c0,0,0,8,4,13c0,0,5,6,16,10c0,0,10,4,28,6c0,0,18,3,46,3c0,0,27,0,45,-3c0,0,18,-2,29,-6c0,0,11,-4,15,-10c0,0,5,-5,5,-13V25c0,0,0,-8,-5,-13c0,0,-4,-6,-15,-9c0,0,-11,-3,-29,-5c0,0,-18,-2,-45,-2Zm-1,820c0,0,-63,0,-85,21c0,0,-22,21,-22,75c0,0,0,57,23,79c0,0,23,22,86,22c0,0,63,0,85,-21c0,0,22,-21,22,-76c0,0,0,-56,-23,-78c0,0,-23,-22,-86,-22Z" 
id="f1_9q"
transform="scale(0.001,-0.001)" />

<path d="M79,297c0,0,-19,0,-27,18c0,0,-8,17,-8,60c0,0,0,41,8,59c0,0,8,17,27,17H389c0,0,9,0,15,-4c0,0,7,-4,11,-13c0,0,5,-9,7,-23c0,0,1,-15,1,-36c0,0,0,-43,-8,-61c0,0,-8,-17,-26,-17Z" 
id="f1_oj"
transform="scale(0.001,-0.001)" />

<path d="M589,371L453,782h-1L317,371ZM106,-4c0,0,-35,0,-54,2C52,-2,32,0,25,8c0,0,-7,9,-5,24c0,0,2,16,11,42L329,931c0,0,4,13,10,21c0,0,6,7,19,12c0,0,13,4,36,5c0,0,23,1,61,1c0,0,44,0,71,-1c0,0,26,-1,40,-5c0,0,15,-5,21,-13c0,0,6,-8,11,-22L896,73c0,0,9,-27,11,-43c0,0,3,-15,-6,-23c0,0,-8,-7,-29,-9c0,0,-21,-2,-57,-2c0,0,-38,0,-59,1c0,0,-22,1,-33,4c0,0,-11,3,-16,9c0,0,-4,6,-7,16L635,220H272L211,31c0,0,-2,-11,-7,-18c0,0,-5,-7,-16,-11c0,0,-11,-3,-31,-4c0,0,-19,-2,-51,-2Z" 
id="f1_5"
transform="scale(0.001,-0.001)" />

<path d="M526,431c0,0,2,79,-32,124c0,0,-34,45,-105,45c0,0,-35,0,-62,-13c0,0,-26,-13,-44,-36c0,0,-17,-23,-27,-54c0,0,-9,-31,-11,-66ZM410,-17c0,0,-88,0,-155,22c0,0,-67,22,-112,68c0,0,-44,45,-66,115c0,0,-22,69,-22,162c0,0,0,89,23,161c0,0,23,71,67,120c0,0,44,50,107,76c0,0,63,26,142,26c0,0,84,0,143,-24c0,0,59,-25,97,-69c0,0,38,-43,56,-103c0,0,18,-60,18,-130V377c0,0,0,-34,-15,-51c0,0,-16,-16,-43,-16H245c0,0,0,-43,10,-77c0,0,11,-35,33,-59c0,0,22,-24,56,-37c0,0,35,-13,83,-13c0,0,50,0,87,7c0,0,37,8,65,16c0,0,27,9,45,16c0,0,18,7,29,7c0,0,6,0,11,-2c0,0,4,-3,7,-10c0,0,3,-7,4,-19c0,0,2,-12,2,-31c0,0,0,-16,-1,-28c0,0,-1,-12,-2,-20c0,0,-2,-8,-5,-14c0,0,-3,-5,-8,-10c0,0,-5,-6,-26,-15c0,0,-22,-9,-55,-17c0,0,-34,-8,-77,-14c0,0,-43,-7,-93,-7Z" 
id="f1_7z"
transform="scale(0.001,-0.001)" />

<path d="M337,115c0,0,39,0,73,21c0,0,33,20,67,59V308H405c0,0,-45,0,-77,-7c0,0,-32,-6,-53,-20c0,0,-20,-13,-29,-32c0,0,-9,-19,-9,-44c0,0,0,-42,26,-66c0,0,27,-24,74,-24ZM296,-17c0,0,-53,0,-98,14c0,0,-44,13,-77,40c0,0,-32,28,-50,68c0,0,-18,40,-18,94c0,0,0,58,23,101c0,0,22,43,68,71c0,0,45,28,112,42c0,0,67,13,156,13h65v40c0,0,0,32,-6,55c0,0,-7,24,-21,39c0,0,-15,16,-39,23c0,0,-24,8,-60,8c0,0,-47,0,-84,-11c0,0,-37,-10,-66,-23c0,0,-28,-13,-47,-23c0,0,-19,-11,-31,-11c0,0,-9,0,-15,5c0,0,-6,6,-10,15c0,0,-5,10,-7,24c0,0,-2,14,-2,31c0,0,0,23,4,37c0,0,3,13,14,24c0,0,10,11,36,24c0,0,27,13,62,25c0,0,35,11,76,18c0,0,42,7,86,7c0,0,78,0,134,-15c0,0,55,-15,91,-47c0,0,36,-32,53,-82c0,0,16,-50,16,-118V23c0,0,0,-11,-7,-17c0,0,-8,-6,-24,-7c0,0,-16,-3,-47,-3c0,0,-34,0,-49,3c0,0,-15,1,-21,7c0,0,-7,6,-7,17V76C506,76,465,32,412,7c0,0,-52,-24,-116,-24Z" 
id="f1_77"
transform="scale(0.001,-0.001)" />

<path d="M380,142c0,0,19,0,37,5c0,0,19,6,38,19c0,0,19,12,39,33c0,0,20,20,44,50V470c0,0,-40,50,-77,77c0,0,-37,27,-77,27c0,0,-37,0,-63,-18c0,0,-27,-19,-43,-49c0,0,-16,-31,-24,-68c0,0,-8,-38,-8,-77c0,0,0,-42,7,-82c0,0,7,-39,22,-70c0,0,15,-31,41,-50c0,0,25,-18,64,-18ZM333,-17c0,0,-76,0,-129,29c0,0,-52,29,-85,79c0,0,-33,50,-48,117c0,0,-15,67,-15,141c0,0,0,89,19,160c0,0,19,71,55,121c0,0,37,50,91,76c0,0,55,27,125,27c0,0,56,0,102,-22c0,0,45,-23,90,-67v360c0,0,0,8,4,14c0,0,4,6,15,10c0,0,11,4,29,6c0,0,18,2,45,2c0,0,28,0,46,-2c0,0,18,-2,28,-6c0,0,11,-4,15,-10c0,0,5,-6,5,-14V25c0,0,0,-8,-4,-14c0,0,-4,-5,-13,-9c0,0,-9,-3,-24,-4c0,0,-15,-2,-38,-2c0,0,-24,0,-39,2c0,0,-15,1,-24,4c0,0,-9,4,-13,9c0,0,-5,6,-5,14V99C565,99,514,44,458,13c0,0,-57,-30,-125,-30Z" 
id="f1_7v"
transform="scale(0.001,-0.001)" />

<path d="M224,-4c0,0,-26,0,-45,2c0,0,-18,2,-29,5c0,0,-11,3,-15,9c0,0,-4,5,-4,13V563H48c0,0,-14,0,-21,18c0,0,-7,17,-7,58c0,0,0,22,1,37c0,0,2,15,6,24c0,0,3,8,9,12c0,0,5,4,13,4h82v56c0,0,0,68,13,119c0,0,14,51,43,85c0,0,29,34,73,51c0,0,45,17,105,17c0,0,29,0,55,-5c0,0,27,-4,42,-10c0,0,15,-6,20,-10c0,0,5,-5,8,-15c0,0,4,-9,5,-23c0,0,2,-15,2,-37c0,0,0,-21,-2,-34c0,0,-1,-13,-4,-20c0,0,-3,-7,-7,-10c0,0,-4,-3,-8,-3c0,0,-5,0,-12,3c0,0,-6,3,-16,6c0,0,-9,2,-22,5c0,0,-12,3,-29,3c0,0,-21,0,-35,-7c0,0,-15,-6,-25,-20c0,0,-9,-14,-14,-36c0,0,-4,-22,-4,-54V716H440c0,0,7,0,13,-4c0,0,5,-4,9,-12c0,0,4,-9,5,-24c0,0,2,-15,2,-37c0,0,0,-41,-7,-58c0,0,-8,-18,-22,-18H319V25c0,0,0,-8,-5,-13c0,0,-4,-6,-15,-9c0,0,-10,-3,-29,-5c0,0,-19,-2,-46,-2Z" 
id="f1_89"
transform="scale(0.001,-0.001)" />

<path d="M371,-16c0,0,-77,0,-136,23c0,0,-60,24,-100,71c0,0,-40,47,-61,114c0,0,-20,67,-20,154c0,0,0,100,25,173c0,0,25,72,69,120c0,0,45,48,106,71c0,0,62,23,135,23c0,0,29,0,58,-5c0,0,29,-5,54,-14c0,0,25,-9,45,-20c0,0,19,-12,28,-20c0,0,8,-8,11,-14c0,0,3,-5,5,-14c0,0,2,-9,3,-22c0,0,1,-13,1,-32c0,0,0,-43,-7,-61c0,0,-7,-18,-19,-18c0,0,-13,0,-27,11c0,0,-14,10,-34,23c0,0,-19,13,-46,23c0,0,-27,11,-64,11c0,0,-73,0,-112,-57c0,0,-39,-56,-39,-165c0,0,0,-54,10,-95c0,0,10,-41,29,-69c0,0,19,-28,47,-41c0,0,29,-14,67,-14c0,0,39,0,67,11c0,0,28,12,49,26c0,0,21,14,35,26c0,0,14,11,24,11c0,0,6,0,11,-4c0,0,4,-3,7,-13c0,0,2,-11,4,-26c0,0,1,-16,1,-41c0,0,0,-19,-1,-32c0,0,-1,-13,-3,-22c0,0,-2,-9,-4,-15c0,0,-3,-5,-12,-14c0,0,-9,-8,-30,-20C547,27,525,14,497,5c0,0,-27,-9,-60,-15c0,0,-32,-6,-66,-6Z" 
id="f1_7l"
transform="scale(0.001,-0.001)" />

<path d="M344,-14c0,0,-56,0,-97,14c0,0,-42,14,-69,43c0,0,-26,29,-39,74c0,0,-13,45,-13,106V563H47c0,0,-15,0,-22,18c0,0,-7,17,-7,58c0,0,0,22,1,37c0,0,2,15,6,24c0,0,4,8,9,12c0,0,6,4,13,4h79V864c0,0,0,8,4,14c0,0,4,6,15,10c0,0,11,4,29,6c0,0,19,2,46,2c0,0,27,0,46,-2c0,0,18,-2,28,-6c0,0,11,-4,15,-10c0,0,5,-6,5,-14V716H459c0,0,7,0,13,-4c0,0,6,-4,9,-12c0,0,4,-9,6,-24c0,0,2,-15,2,-37c0,0,0,-41,-8,-58c0,0,-7,-18,-21,-18H314V251c0,0,0,-54,17,-81c0,0,17,-27,61,-27c0,0,15,0,27,2c0,0,12,3,22,6c0,0,9,4,15,6c0,0,7,3,12,3c0,0,4,0,9,-3c0,0,4,-2,6,-10c0,0,2,-8,4,-21c0,0,2,-14,2,-35c0,0,0,-33,-4,-50c0,0,-4,-18,-11,-25c0,0,-7,-7,-20,-12c0,0,-13,-5,-31,-9c0,0,-17,-4,-38,-6c0,0,-20,-3,-41,-3Z" 
id="f1_bf"
transform="scale(0.001,-0.001)" />

<path d="M161,0c0,0,-5,0,-10,3c0,0,-4,2,-8,8c0,0,-5,6,-7,16c0,0,-2,9,-2,24c0,0,0,13,2,23c0,0,2,9,6,16c0,0,3,6,8,9c0,0,5,4,11,4H362V837L176,726c0,0,-15,-8,-23,-9c0,0,-1,-1,-3,-1c-3,0,-8,1,-11,4c0,0,-5,5,-7,16c0,0,-2,11,-2,28c0,0,0,13,1,22c0,0,1,9,4,15c0,0,2,6,6,10c0,0,4,5,11,9L374,963c0,0,3,2,7,4c0,0,5,1,11,3c0,0,7,1,16,2c0,0,9,0,22,0c0,0,18,0,30,-2c0,0,12,-1,19,-4c0,0,7,-2,9,-6c0,0,2,-5,2,-9V103H665c0,0,6,0,11,-4c0,0,5,-3,8,-9c0,0,4,-7,6,-16c0,0,2,-10,2,-23c0,0,0,-15,-3,-24c0,0,-2,-10,-6,-16c0,0,-3,-6,-8,-8c0,0,-5,-3,-10,-3Z" 
id="f0_ry"
transform="scale(0.001,-0.001)" />

<path d="M320,-17c0,0,-50,0,-93,9c0,0,-43,8,-76,19c0,0,-32,11,-54,24C97,35,75,48,65,58c0,0,-10,9,-14,28c0,0,-4,18,-4,52c0,0,0,23,1,39c0,0,2,15,5,25c0,0,4,10,9,14c0,0,6,4,13,4c0,0,11,0,30,-12c0,0,19,-13,49,-28c0,0,30,-15,71,-27c0,0,42,-12,96,-12c0,0,36,0,64,8c0,0,29,9,49,25c0,0,19,15,30,38c0,0,10,23,10,52c0,0,0,33,-18,56c0,0,-18,24,-46,42c0,0,-29,18,-66,34c0,0,-36,16,-75,34c0,0,-39,18,-76,41c0,0,-36,23,-65,54c0,0,-29,32,-47,75c0,0,-17,44,-17,104c0,0,0,70,25,122c0,0,26,53,70,88c0,0,43,34,103,51c0,0,59,18,125,18c0,0,35,0,69,-6c0,0,34,-5,64,-14c0,0,30,-9,53,-20c0,0,23,-11,31,-18c0,0,7,-8,10,-13c0,0,3,-5,4,-14c0,0,2,-8,3,-21c0,0,1,-13,1,-33c0,0,0,-21,-1,-36c0,0,-1,-15,-4,-25c0,0,-3,-9,-7,-14c0,0,-5,-4,-14,-4c0,0,-8,0,-26,10c0,0,-18,10,-44,23c0,0,-26,12,-60,22c0,0,-34,10,-75,10c0,0,-32,0,-56,-8c0,0,-24,-8,-40,-21c0,0,-16,-14,-24,-34c0,0,-8,-19,-8,-41c0,0,0,-32,18,-56c0,0,17,-23,46,-42c0,0,30,-18,67,-34c0,0,38,-16,76,-34c0,0,39,-18,76,-41c0,0,38,-22,67,-54c0,0,29,-32,47,-75c0,0,18,-43,18,-101c0,0,0,-76,-29,-133c0,0,-28,-58,-77,-96C572,60,524,21,459,2c0,0,-65,-19,-139,-19Z" 
id="f1_2n"
transform="scale(0.001,-0.001)" />

<path d="M604,356L436,837h-1L269,356ZM87,-4c0,0,-22,0,-36,2C51,-2,37,0,32,4c0,0,-6,5,-6,15c0,0,1,10,7,27L357,943c0,0,3,8,7,13c0,0,5,6,15,9c0,0,9,3,23,4c0,0,15,1,37,1c0,0,24,0,40,-1c0,0,16,-1,25,-4c0,0,10,-3,15,-9c0,0,5,-5,8,-14L851,45c0,0,6,-16,7,-26c0,0,0,-10,-6,-16c0,0,-6,-4,-20,-5c0,0,-14,-2,-37,-2c0,0,-23,0,-37,1c0,0,-14,1,-21,3c0,0,-7,3,-10,7c0,0,-3,5,-6,11L638,253H236L157,21c0,0,-2,-6,-6,-11c0,0,-3,-5,-10,-9c0,0,-7,-2,-21,-3c0,0,-13,-2,-33,-2Z" 
id="f0_5"
transform="scale(0.001,-0.001)" />

<path d="M92,-4c0,0,-22,0,-35,2C57,-2,43,0,37,3c0,0,-7,5,-6,12c0,0,0,7,7,17L247,360L49,675c0,0,-6,11,-6,18c0,0,-1,7,6,12c0,0,7,5,22,6c0,0,14,2,38,2c0,0,22,0,35,-1c0,0,13,-1,20,-4c0,0,8,-2,12,-6c0,0,3,-3,6,-9L335,443L490,693c0,0,3,5,7,9c0,0,4,3,10,6c0,0,7,3,18,4c0,0,12,1,32,1c0,0,21,0,35,-2c0,0,14,-1,21,-5c0,0,7,-4,6,-12c0,0,-1,-7,-8,-19L415,364L622,32c0,0,6,-10,6,-17c0,0,0,-7,-7,-12c0,0,-7,-3,-21,-5c0,0,-15,-2,-38,-2c0,0,-22,0,-35,1c0,0,-13,1,-21,3c0,0,-8,3,-12,7c0,0,-4,4,-7,9L326,282L165,16c0,0,-3,-5,-7,-9c0,0,-4,-4,-12,-7c0,0,-8,-2,-20,-3c0,0,-13,-1,-34,-1Z" 
id="f0_cn"
transform="scale(0.001,-0.001)" />

<path d="M429,92c0,0,47,0,80,22c0,0,33,23,54,60c0,0,20,38,30,84c0,0,10,46,10,93c0,0,0,52,-8,100c0,0,-8,48,-27,86c0,0,-19,37,-51,60c0,0,-32,22,-80,22c0,0,-24,0,-47,-7c0,0,-23,-7,-47,-23c0,0,-24,-15,-50,-40c0,0,-26,-25,-56,-62V220c0,0,51,-62,97,-95c0,0,45,-33,95,-33ZM176,-271c0,0,-18,0,-30,2c0,0,-12,1,-19,4c0,0,-7,3,-10,8c0,0,-3,4,-3,10V690c0,0,0,6,3,10c0,0,2,5,9,8c0,0,6,3,17,4c0,0,10,1,25,1c0,0,16,0,26,-1c0,0,10,-1,17,-4c0,0,6,-3,9,-7c0,0,3,-4,3,-11V601c0,0,30,31,59,54c0,0,28,23,57,39c0,0,28,15,59,23c0,0,30,8,63,8c0,0,74,0,125,-29c0,0,52,-28,84,-77c0,0,32,-50,47,-115c0,0,15,-65,15,-139c0,0,0,-88,-19,-158c0,0,-19,-70,-56,-119c0,0,-37,-49,-91,-75c0,0,-55,-26,-125,-26c0,0,-30,0,-55,6c0,0,-25,6,-50,18c0,0,-24,13,-48,32c0,0,-24,19,-51,46V-247c0,0,0,-6,-3,-10c0,0,-2,-5,-9,-8c0,0,-7,-3,-19,-4c0,0,-12,-2,-30,-2Z" 
id="f0_ay"
transform="scale(0.001,-0.001)" />

<path d="M541,-13c0,0,-112,0,-200,34c0,0,-88,35,-149,99c0,0,-60,64,-92,154c0,0,-33,90,-33,200c0,0,0,115,35,208c0,0,35,94,98,160c0,0,63,65,151,101c0,0,89,37,196,37c0,0,55,0,104,-10c0,0,48,-10,86,-23c0,0,37,-12,63,-28c0,0,26,-15,35,-24c0,0,10,-10,14,-23c0,0,4,-13,4,-37c0,0,0,-14,-2,-25c0,0,-1,-10,-4,-18c0,0,-3,-7,-8,-10c0,0,-4,-3,-9,-3c0,0,-9,0,-30,14c0,0,-21,15,-56,32c0,0,-35,17,-84,31c0,0,-49,14,-116,14c0,0,-80,0,-143,-29c0,0,-64,-29,-108,-81c0,0,-44,-51,-67,-122c0,0,-24,-71,-24,-154c0,0,0,-93,26,-165c0,0,26,-72,71,-121c0,0,46,-49,109,-75c0,0,63,-25,138,-25c0,0,45,0,91,11c0,0,46,10,85,32V423H499c0,0,-13,0,-19,13c0,0,-7,13,-7,40c0,0,0,14,2,24c0,0,1,10,5,17c0,0,3,6,7,9c0,0,5,3,12,3H805c0,0,8,0,17,-3c0,0,8,-3,14,-9c0,0,7,-6,11,-16c0,0,4,-11,4,-24V108c0,0,0,-19,-7,-33c0,0,-7,-15,-28,-26c0,0,-22,-10,-56,-23C760,26,725,13,689,4c0,0,-37,-8,-74,-12c0,0,-37,-5,-74,-5Z" 
id="f0_14"
transform="scale(0.001,-0.001)" />

<path d="M420,489c0,0,93,0,153,65c0,0,60,65,60,181c0,0,0,116,-62,184c0,0,-61,68,-148,68c0,0,-90,0,-156,-74c0,0,-66,-73,-66,-189c0,0,0,-105,63,-170c0,0,63,-65,156,-65ZM391,-18c0,0,-128,0,-209,71c0,0,-82,71,-98,200l129,12c0,0,17,-91,63,-132c0,0,46,-41,118,-41c0,0,62,0,109,28c0,0,47,29,76,76c0,0,30,47,50,128c0,0,20,80,20,164c0,0,0,9,-1,27c0,0,-40,-65,-110,-105c0,0,-69,-39,-151,-39c0,0,-135,0,-229,98c0,0,-94,99,-94,260c0,0,0,166,98,268c0,0,98,101,245,101c0,0,107,0,195,-57c0,0,89,-58,134,-164c0,0,46,-106,46,-308c0,0,0,-209,-45,-334C737,235,691,111,602,46c0,0,-90,-64,-211,-64Z" 
id="f3_t"
transform="scale(0.001,-0.001)" />


</defs>
</svg>